<svg width="876" height="195" viewBox="0 0 876 195" fill="none" xmlns="http://www.w3.org/2000/svg">
<path opacity="0.43" d="M990.961 51.6643V95.1501C947.084 94.4781 900.494 82.8548 855.984 74.5832C845.793 72.6873 835.713 70.9673 825.794 69.5914C762.173 60.7919 732.238 63.1917 670.977 63.1917C657.21 63.1917 635.147 67.1595 612.5 71.3993C586.445 76.2791 559.615 81.5348 543.784 81.5428C491.458 81.5668 443.412 77.327 393.727 75.4071C372.2 74.5752 350.369 74.1752 327.754 74.7512C284.804 75.8471 241.99 84.6627 199.001 85.5426C181.025 85.9106 150.563 82.8068 133.78 79.255C117.349 75.7831 152.139 73.3272 160.226 72.2953C179.066 69.8954 195.161 61.2078 214.2 59.1439C220.088 58.504 225.999 57.912 231.927 57.368C284.9 52.4802 339.33 51.1124 393.727 49.8164C422.293 49.1364 450.86 48.4725 479.203 47.3365C566.718 43.8247 656.674 28.7534 744.574 27.1935C819.018 25.8736 912.581 46.4646 990.961 51.6643Z" fill="#707D00"/>
<path d="M406.004 92.4548C408.588 92.4548 413.9 92.2709 413.9 89.607C413.9 88.2791 413.252 87.5191 411.964 87.3271C414.38 86.3751 412.932 83.3353 412.124 83.9033C415.028 74.9677 406.804 75.7277 404.388 76.6796C413.892 68.128 404.228 64.7042 401.005 66.2241C403.261 62.6163 399.557 61.8484 399.069 62.6163C398.101 53.4888 387.789 55.2007 386.981 59.3845C376.182 51.0169 372.158 63.5683 373.446 65.8482C366.838 65.6562 369.094 71.7439 369.902 72.3119C363.454 72.6958 364.422 79.1515 366.998 82.0074C362.806 82.0074 364.094 87.9031 366.35 87.9031C364.742 88.0951 361.839 87.7111 361.999 90.5669C362.095 92.2628 362.806 92.2788 365.702 92.4708C368.622 92.6468 404.876 92.4548 406.004 92.4548Z" fill="#6FA000"/>
<path d="M384.007 66.8877C382.879 68.2157 384.327 69.7356 385.615 68.2157C386.911 66.7038 385.135 65.5598 384.007 66.8877Z" fill="#5C1B79"/>
<path d="M378.854 72.2152C379.494 74.2951 381.59 71.2632 380.79 70.6952C379.982 70.1193 378.206 70.1193 378.854 72.2152Z" fill="#5C1B79"/>
<path d="M384.809 71.6403C383.681 72.2083 384.649 73.5442 386.097 72.9682C387.553 72.4002 385.937 71.0723 384.809 71.6403Z" fill="#5C1B79"/>
<path d="M396.581 80.5746C395.454 81.9019 397.709 82.6615 398.189 81.5261C398.668 80.3828 397.709 79.2474 396.581 80.5746Z" fill="#5C1B79"/>
<path d="M403.02 80.0068C402.212 78.1029 400.764 79.2468 401.412 80.9587C402.052 82.6706 403.828 81.9107 403.02 80.0068Z" fill="#5C1B79"/>
<path d="M362.213 194.784C368.389 194.784 381.093 194.32 381.093 187.625C381.093 184.281 379.549 182.369 376.469 181.897C382.244 179.513 378.781 171.873 376.853 173.305C383.788 150.867 364.141 152.778 358.358 155.162C381.084 133.675 357.974 125.084 350.27 128.9C355.662 119.828 346.806 117.916 345.646 119.828C343.334 96.9092 318.68 101.205 316.752 111.708C290.937 90.7015 281.305 122.212 284.393 127.94C268.602 127.46 273.994 142.739 275.922 144.171C260.514 145.123 262.826 161.362 268.986 168.522C258.971 168.522 262.05 183.321 267.442 183.321C263.586 183.801 256.659 182.841 257.043 190.009C257.275 194.272 258.971 194.304 265.906 194.784C272.842 195.264 359.518 194.784 362.213 194.784Z" fill="#6FA000"/>
<path d="M309.633 130.563C306.937 133.907 310.401 137.722 313.489 133.907C316.577 130.091 312.329 127.219 309.633 130.563Z" fill="#5C1B79"/>
<path d="M297.3 143.931C298.836 149.162 303.852 141.547 301.924 140.115C299.996 138.683 295.757 138.683 297.3 143.931Z" fill="#5C1B79"/>
<path d="M311.565 142.498C308.869 143.929 311.181 147.273 314.645 145.841C318.109 144.409 314.261 141.066 311.565 142.498Z" fill="#5C1B79"/>
<path d="M339.676 164.937C336.98 168.281 342.371 170.193 343.531 167.321C344.683 164.465 342.371 161.601 339.676 164.937Z" fill="#5C1B79"/>
<path d="M355.097 163.505C353.169 158.73 349.706 161.593 351.241 165.889C352.785 170.193 357.017 168.281 355.097 163.505Z" fill="#5C1B79"/>
<path d="M288.139 62.2463C291.587 62.2463 298.675 61.9984 298.675 58.4385C298.675 56.6626 297.819 55.6467 296.099 55.3987C299.323 54.1267 297.387 50.0709 296.315 50.8309C300.187 38.9115 289.219 39.9274 285.996 41.1914C298.683 29.7759 285.78 25.2162 281.484 27.2401C284.492 22.4243 279.548 21.4083 278.9 22.4243C277.612 10.2489 263.853 12.5368 262.773 18.1125C248.365 6.95309 242.99 23.6882 244.71 26.7361C235.894 26.4801 238.902 34.5997 239.982 35.3597C231.382 35.8637 232.67 44.4872 236.11 48.295C230.518 48.295 232.238 56.1587 235.246 56.1587C233.094 56.4146 229.222 55.9027 229.438 59.7105C229.566 61.9744 230.51 61.9904 234.382 62.2463C238.262 62.4943 286.636 62.2463 288.139 62.2463Z" fill="#4A7737"/>
<path d="M240.392 28.1379C238.888 29.9138 240.824 31.9457 242.544 29.9138C244.264 27.8819 241.896 26.3619 240.392 28.1379Z" fill="#4A7737"/>
<path d="M233.508 35.2297C234.364 38.0056 237.163 33.9578 236.083 33.1979C235.011 32.4459 232.652 32.4459 233.508 35.2297Z" fill="#4A7737"/>
<path d="M241.466 34.4742C239.962 35.2342 241.25 37.0101 243.186 36.2502C245.114 35.4902 242.97 33.7143 241.466 34.4742Z" fill="#4A7737"/>
<path d="M257.158 46.3903C255.654 48.1662 258.662 49.1821 259.31 47.6622C259.958 46.1423 258.67 44.6143 257.158 46.3903Z" fill="#4A7737"/>
<path d="M265.759 45.6302C264.687 43.0943 262.751 44.6142 263.607 46.9021C264.471 49.182 266.839 48.166 265.759 45.6302Z" fill="#4A7737"/>
<path d="M4.89772 35.7759C4.89772 35.7759 -1.88593 28.7203 0.513949 26.3684C2.91383 24.0165 6.49764 30.1362 6.49764 30.1362C6.49764 30.1362 0.113953 17.9048 5.2977 15.081C10.4814 12.2571 13.2733 27.7843 13.2733 27.7843C13.2733 27.7843 9.68154 0.961659 19.2571 0.0257048C28.8326 -0.910249 24.8408 24.0245 24.8408 24.0245C24.8408 24.0245 26.4327 9.44126 30.8245 10.8492C35.2082 12.2571 30.8245 24.9685 30.8245 24.9685C30.8245 24.9685 35.2082 14.617 37.6081 16.0249C40 17.4328 33.2243 32.0241 33.2243 32.0241C33.2243 32.0241 37.6081 25.9044 39.608 27.3204C41.5999 28.7283 35.6162 35.792 35.6162 35.792H4.89772V35.7759Z" fill="#7D9E24"/>
<path d="M115.934 94.3897C115.934 94.3897 102.367 80.2624 107.151 75.5587C111.934 70.8549 119.126 83.0943 119.126 83.0943C119.126 83.0943 106.351 58.6075 116.734 52.9598C127.11 47.3121 132.701 78.3825 132.701 78.3825C132.701 78.3825 125.518 24.7052 144.677 22.8252C163.836 20.9453 155.852 70.8469 155.852 70.8469C155.852 70.8469 159.044 41.6563 167.828 44.4802C176.611 47.304 167.828 72.7268 167.828 72.7268C167.828 72.7268 176.611 52.0078 181.395 54.8317C186.187 57.6555 172.611 86.8461 172.611 86.8461C172.611 86.8461 181.395 74.6067 185.387 77.4306C189.379 80.2544 177.403 94.3817 177.403 94.3817H115.934V94.3897Z" fill="#5A9300"/>
</svg>
