<svg width="715" height="289" viewBox="0 0 715 289" fill="none" xmlns="http://www.w3.org/2000/svg">
<path d="M714.892 292.586C716.548 295.888 698.591 292.586 694.897 292.586C684.596 292.586 674.295 292.586 663.995 292.586C648.263 292.586 632.541 292.586 616.809 292.586C596.831 292.586 576.844 292.586 556.866 292.586C533.808 292.586 510.749 292.586 487.691 292.586C462.727 292.586 437.764 292.586 412.8 292.586C387.106 292.586 361.412 292.586 335.728 292.586C310.479 292.586 285.239 292.586 259.991 292.586C236.363 292.586 212.743 292.586 189.115 292.586C168.282 292.586 147.458 292.586 126.626 292.586C109.764 292.586 92.9016 292.586 76.0484 292.586C64.3323 292.586 52.616 292.586 40.8998 292.586C29.7178 292.586 10.0157 296.031 0 290.805C5.34173 288.134 18.9898 283.024 24.9281 280.121C86.9544 249.834 146.15 215.994 202.211 175.228C206.44 172.156 210.633 169.022 214.791 165.844C246.53 141.539 275.909 114.385 302.235 84.2937C309.09 76.3968 315.741 68.3219 322.177 60.069C323.949 57.7987 325.703 55.5107 327.439 53.2137C328.329 52.0208 329.237 50.8188 330.119 49.6348L333.359 49.6793H333.511L369.87 50.0799L410.316 50.0443L411.117 49.9553C411.135 49.9909 411.242 50.1155 411.26 50.1511C519.403 199.087 713.112 289.024 714.892 292.586Z" fill="#3D3B38"/>
<path d="M408.497 50.1895C411.257 57.3385 416.314 63.3746 420.792 69.5176C425.466 75.6161 430.327 81.5632 435.277 87.448C465.003 122.614 497.348 155.697 532.665 185.255C564.858 212.097 600.114 236.491 634.265 260.912C637.328 263.084 640.497 265.167 643.711 267.206C656.576 275.37 670.019 282.724 683.32 290.781L678.824 297.975C665.968 289.819 652.56 282.118 639.616 273.527C636.375 271.382 633.152 269.174 629.992 266.832C596.25 241.557 561.582 216.397 529.772 188.656C489.299 153.009 452.522 113.124 420.088 70.0518C416.696 65.3689 413.349 60.6415 410.518 55.6024C409.592 53.9109 408.702 52.1837 408.141 50.3052L408.497 50.1895Z" fill="white"/>
<path d="M334.137 50.2335C315.343 76.3279 295.775 102.013 274.069 125.774C252.017 149.287 229.101 172.087 203.763 192.092C166.069 222.21 124.02 246.934 83.432 272.797C69.8373 281.424 56.2783 290.086 42.0871 298.09L38.0273 290.647C52.0138 283.124 65.7331 274.746 79.4525 266.413C120.343 241.485 162.962 217.679 201.004 188.549C220.207 174.081 238.057 157.914 255.275 141.123C266.796 129.95 278.058 118.51 288.581 106.393C304.179 88.044 319.528 69.4103 333.835 50.0198C333.835 50.0109 334.137 50.2335 334.137 50.2335Z" fill="white"/>
<path d="M362.297 290.32L362.555 281.408L373.844 281.506L373.96 290.409L362.297 290.32Z" fill="white"/>
<path d="M362.957 268.31L363.571 250.834L373.596 251.012L373.712 268.435L362.957 268.31Z" fill="white"/>
<path d="M364.086 237.747L364.763 220.324L373.523 220.467L373.568 237.934L364.086 237.747Z" fill="white"/>
<path d="M365.219 207.255L365.753 189.832L373.249 189.886L373.436 207.353L365.219 207.255Z" fill="white"/>
<path d="M366.051 176.754L366.318 159.322H372.906L373.111 176.79L366.051 176.754Z" fill="white"/>
<path d="M366.512 146.227L366.85 128.76L372.601 128.813L372.744 146.245L366.512 146.227Z" fill="white"/>
<path d="M367.207 115.67L367.474 98.2383L372.397 98.2561L372.602 115.724L367.207 115.67Z" fill="white"/>
<path d="M367.891 85.0745C368.193 79.2164 368.71 73.3227 369.68 67.4824L373.722 68.0967C372.939 73.759 372.6 79.4924 372.458 85.2525L367.891 85.0745Z" fill="white"/>
<path d="M372.758 54.4812C374.574 48.8012 377.076 43.317 380.325 38.3047L383.085 40.0408C380.138 44.8839 377.913 50.1277 376.328 55.5763L372.758 54.4812Z" fill="white"/>
<path d="M388.715 27.8804C389.81 26.8566 390.816 25.815 391.973 24.8C393.14 23.8118 394.359 22.9126 395.606 22.0935C398.107 20.4376 400.725 19.0398 403.378 17.7578L404.464 19.9301C401.918 21.2477 399.425 22.6722 397.11 24.3015C395.953 25.1116 394.84 25.9752 393.816 26.9011C392.81 27.827 391.813 28.9131 390.807 29.9014L388.715 27.8804Z" fill="white"/>
<path d="M415.594 12.7377C421.122 10.7969 426.731 9.14098 432.438 7.81445L432.821 9.36355C427.23 10.8236 421.71 12.622 416.315 14.6875L415.594 12.7377Z" fill="white"/>
<path d="M445.352 5.42834C451.103 4.50244 456.863 3.68339 462.641 2.93555L462.739 3.60326C456.997 4.52026 451.272 5.51739 445.565 6.61244L445.352 5.42834Z" fill="white"/>
<path d="M475.633 1.39402L484.491 0.441406L475.668 1.6611L475.633 1.39402Z" fill="white"/>
</svg>
