<svg width="209" height="85" viewBox="0 0 209 85" fill="none" xmlns="http://www.w3.org/2000/svg">
<path d="M0 57.0426C7.2519 48.2224 14.6216 39.9009 26.2428 31.0082C36.9121 22.8408 50.7089 14.0025 81.3754 8.11941C110.129 2.5989 145.926 0.577444 200.533 0.713417C197.732 11.0383 228.399 25.0979 187.725 18.5168C155.562 13.3136 173.701 10.9295 142.092 20.0216C128.748 23.856 115.088 25.7778 101.935 30.5006C94.2112 33.2744 85.5814 37.9428 83.2155 47.5425C82.4269 50.7424 82.3363 54.1055 82.5992 57.3961C83.1793 64.5392 85.4999 73.4409 90.3496 84.8536C77.8219 55.4018 28.7719 59.3179 0 57.0426Z" fill="#3D3B38"/>
<path d="M3.72266 57.507C10.1859 48.7775 17.9726 41.154 26.0132 33.9111C39.7374 22.0452 56.9335 14.9112 74.4287 10.7413C102.639 4.44123 131.71 3.18118 160.509 2.26562C131.728 3.24463 102.648 4.56815 74.474 10.9226C57.0059 15.1287 39.8824 22.2718 26.2126 34.1378C18.2173 41.3806 10.4397 49.0223 4.02176 57.7336C4.02176 57.7245 3.72266 57.507 3.72266 57.507Z" fill="#FCF9F9"/>
</svg>
