<svg width="395" height="220" viewBox="0 0 395 220" fill="none" xmlns="http://www.w3.org/2000/svg">
<path d="M394.657 188.051H359.703V219.032H394.657V188.051Z" fill="#749DC1"/>
<path d="M391.64 184.865H366.852V194.558H391.64V184.865Z" fill="#749DC1"/>
<path d="M380.683 181.809H368.926V188.053H380.683V181.809Z" fill="#749DC1"/>
<path d="M387.983 164.219H384.172V189.719H387.983V164.219Z" fill="#749DC1"/>
<path d="M355.096 187.094H316.324V219.026H355.096V187.094Z" fill="#749DC1"/>
<path d="M366.857 201.711H346.992V219.026H366.857V201.711Z" fill="#749DC1"/>
<path d="M353.348 138.479H321.254V188.043H353.348V138.479Z" fill="#749DC1"/>
<path d="M348.264 106.229H326.18V142.451H348.264V106.229Z" fill="#749DC1"/>
<path d="M345.884 55.5527H329.52V108.935H345.884V55.5527Z" fill="#749DC1"/>
<path d="M341.908 56.667H333.328V26.7988L337.696 22.3535L341.908 26.7988V56.667Z" fill="#749DC1"/>
<path d="M258.968 116.875H242.598V86.0559L250.783 80.3359L258.968 86.0559V116.875Z" fill="#749DC1"/>
<path d="M274.22 116.875H257.855V86.0559L266.041 80.3359L274.22 86.0559V116.875Z" fill="#749DC1"/>
<path d="M290.109 116.875H273.738V86.0559L281.924 80.3359L290.109 86.0559V116.875Z" fill="#749DC1"/>
<path d="M290.104 108.934H233.699V219.031H290.104V108.934Z" fill="#749DC1"/>
<path d="M257.853 112.746H229.887V219.026H257.853V112.746Z" fill="#749DC1"/>
<path d="M316.324 172.477H281.926V219.026H316.324V172.477Z" fill="#749DC1"/>
<path d="M225.127 140.391H169.195V219.028H225.127V140.391Z" fill="#749DC1"/>
<path d="M242.598 192.814H210.504V219.027H242.598V192.814Z" fill="#749DC1"/>
<path d="M219.09 27.5918H169.195V140.387H219.09V27.5918Z" fill="#749DC1"/>
<path d="M215.592 43.797H189.852V22.3535L215.592 24.8899V43.797Z" fill="#749DC1"/>
<path d="M185.396 0.267578H181.902V33.0735H185.396V0.267578Z" fill="#749DC1"/>
<path d="M177.135 0.267578H173.641V33.0735H177.135V0.267578Z" fill="#749DC1"/>
<path d="M158.387 122.277H148.855V164.22H158.387V122.277Z" fill="#749DC1"/>
<path d="M161.56 130.223H129.148V175.342H161.56V130.223Z" fill="#749DC1"/>
<path d="M173.64 159.451H129.148V219.026H173.64V159.451Z" fill="#749DC1"/>
<path d="M145.359 114.965H140.273V132.759H145.359V114.965Z" fill="#749DC1"/>
<path d="M119.936 219.025H81.8047V64.7662L90.7018 58.4121L119.936 67.9433V219.025Z" fill="#749DC1"/>
<path d="M123.742 68.5781H79.8906V219.026H123.742V68.5781Z" fill="#749DC1"/>
<path d="M137.097 210.367H105.637V219.025H137.097V210.367Z" fill="#749DC1"/>
<path d="M64.0022 146.896H23.3281V219.024H64.0022V146.896Z" fill="#749DC1"/>
<path d="M86.5668 179.711H51.9297V219.033H86.5668V179.711Z" fill="#749DC1"/>
<path d="M18.8749 199.367H6.80078V219.025H18.8749V199.367Z" fill="#749DC1"/>
<path d="M36.0368 212.191H0.765625V219.024H36.0368V212.191Z" fill="#749DC1"/>
<path d="M52.9887 152.778H34.6641V142.057L43.8264 136.971L52.9887 142.057V152.778Z" fill="#749DC1"/>
<path d="M61.7307 118.621H56.9102V146.691H61.7307V118.621Z" fill="#749DC1"/>
<path d="M30.5309 118.992H25.8203V146.952H30.5309V118.992Z" fill="#749DC1"/>
</svg>
