<svg width="1460" height="362" viewBox="0 0 1460 362" fill="none" xmlns="http://www.w3.org/2000/svg">
<path d="M1460 127.818V362C1424.76 361.454 1381.85 360.787 1337.16 360.093C1257.88 358.863 1173.01 357.545 1115.58 356.644C1075.69 356.029 1049.04 355.621 1046.71 355.578C1007.46 354.937 963.595 353.593 916.486 351.288C870.105 349.026 820.586 345.819 769.24 341.443C757.395 340.429 745.456 339.354 733.429 338.219C730.153 337.898 726.877 337.586 723.579 337.274C722.64 337.179 721.701 337.075 720.762 336.988C681.777 333.157 641.999 328.633 601.988 323.295C600.721 323.13 599.461 322.957 598.18 322.783C566.279 318.493 534.24 313.683 502.338 308.31L500.678 308.041C498.553 307.677 496.427 307.313 494.308 306.949C491.032 306.386 487.756 305.823 484.473 305.242C483.964 305.155 483.476 305.069 482.981 304.982C476.887 303.907 470.801 302.815 464.73 301.706C435.915 296.428 407.305 290.656 379.102 284.364C360.982 280.325 343.029 276.07 325.295 271.598C324.21 271.329 323.118 271.052 322.033 270.766C316.93 269.475 311.841 268.157 306.782 266.823C304.365 266.173 301.955 265.549 299.553 264.899C293.263 263.209 287.016 261.493 280.799 259.742C280.639 259.699 280.472 259.655 280.311 259.603C278.819 259.179 277.319 258.754 275.827 258.338C274.866 258.061 273.912 257.792 272.958 257.515C268.416 256.224 263.895 254.898 259.388 253.572C258.151 253.199 256.906 252.817 255.668 252.453C255.464 252.401 255.275 252.332 255.071 252.28C254.722 252.176 254.372 252.072 254.016 251.968C253.113 251.682 252.203 251.414 251.293 251.136C250.725 250.963 250.143 250.79 249.568 250.616C248.141 250.183 246.699 249.75 245.265 249.299C242.972 248.606 240.708 247.895 238.437 247.176C233.704 245.702 229.002 244.212 224.32 242.695C224.124 242.634 223.927 242.565 223.731 242.504C177.794 227.598 134.361 210.81 94.5754 191.952C77.8313 184.013 61.7278 175.702 46.3669 167C41.3582 164.166 36.4224 161.298 31.5739 158.377C28.6691 156.635 25.7862 154.867 22.9397 153.09C22.5539 152.848 22.1753 152.622 21.7895 152.388C18.8556 152.388 13.25 146.928 10.651 145.195C7.29489 142.959 3.24717 141.494 0.670027 137.906C0.386105 137.508 0.10218 137.057 0.0293793 136.537C-0.560305 132.524 7.89913 131.302 9.92299 130.444C10.7675 130.089 11.6119 129.734 12.4564 129.387C15.565 128.113 18.6809 126.891 21.7895 125.66C22.1753 125.496 22.5539 125.348 22.9397 125.201C80.736 104.098 134.987 120.764 195.455 116.352C231.164 113.744 266.144 103.049 300.55 91.9644C323.489 85.2738 346.123 76.8758 368.742 68.8505C453.649 38.7252 540.77 14.0599 628.837 1.76194C663.824 -3.11739 699.351 2.38594 733.305 15.1952C773.076 30.2146 810.78 51.7425 849.859 68.9285C894.638 88.6191 939.425 108.31 984.219 127.94C1022.42 144.675 1065.81 161.35 1107.05 158.62C1111.5 158.325 1333.17 138.998 1460 127.818Z" fill="#7FA024"/>
</svg>
