<svg width="1920" height="462" viewBox="0 0 1920 462" fill="none" xmlns="http://www.w3.org/2000/svg">
<path d="M1919.3 199.361L1920 480H0V41.4105C64.2456 7.7818 174.385 -12.9542 303.293 9.15981C306.401 9.68836 309.48 10.4245 312.532 11.3401L529.008 41.118C523.454 24.1007 530.405 31.3587 537.093 40.2119C541.771 46.4034 546.331 53.3878 546.387 53.3878C549.814 53.3217 552.483 63.7982 555.347 71.7831C557.085 76.6249 558.892 80.5513 560.978 80.6551H561.054C561.193 80.6551 561.318 80.674 561.451 80.6834C561.819 80.6928 562.18 80.7211 562.542 80.74H562.625C562.757 80.74 562.89 80.7495 563.022 80.7684C563.39 80.7778 563.752 80.7967 564.113 80.825C564.148 80.825 564.176 80.825 564.203 80.8344C564.328 80.8439 564.468 80.8438 564.593 80.8627C566.219 80.9477 567.846 81.0609 569.473 81.1742C573.525 81.4762 577.585 81.8726 581.652 82.354C585.607 82.8165 589.562 83.3639 593.518 83.9963C593.74 84.0246 593.956 84.0624 594.178 84.0907C596.013 84.3738 597.835 84.6947 599.67 84.9967C626.836 89.7536 654.107 97.8517 681.162 107.819C706.507 117.153 731.658 128.149 756.363 139.569C756.398 139.579 756.419 139.588 756.447 139.597C756.509 139.626 756.551 139.645 756.607 139.673C757.044 139.871 757.489 140.098 757.927 140.296L758.025 140.324L758.178 140.4L759.505 141.004C759.54 141.023 759.568 141.032 759.596 141.041C759.637 141.079 759.7 141.098 759.742 141.126C765.379 143.741 770.975 146.374 776.543 149.026C776.557 149.026 776.564 149.036 776.585 149.036C776.599 149.045 776.613 149.055 776.627 149.055C776.675 149.083 776.717 149.102 776.759 149.121C818.586 168.932 849.458 191.131 882.964 207.015C884.368 207.686 885.779 208.337 887.19 208.988C897.381 213.622 907.857 217.633 919 220.795C926.237 222.881 933.306 226.619 941.071 228.601C941.829 228.79 942.587 228.969 943.365 229.12C943.483 229.148 943.615 229.177 943.74 229.186C944.088 229.271 944.429 229.328 944.769 229.384C945.179 229.46 945.597 229.516 946.014 229.573C946.598 229.658 947.682 227.44 948.384 226.959C948.488 226.883 948.586 226.845 948.662 226.855C948.69 226.855 948.739 226.864 948.773 226.883C948.822 226.883 948.878 226.883 948.926 226.892C948.94 226.892 948.954 226.902 948.975 226.902C949.058 226.902 949.142 226.93 949.232 226.94C952.333 227.327 955.482 227.648 958.7 227.874C958.971 227.902 963.163 227.912 968.954 227.874C971.713 227.855 974.834 227.827 978.067 227.789C978.275 227.789 978.491 227.789 978.7 227.78C988.731 227.676 999.672 227.43 1004.07 226.996C1004.18 226.987 1004.26 226.968 1004.35 226.959C1005.4 226.836 1005.54 225.562 1005.88 224.221C1006.1 223.381 1005.95 223.542 1004.89 220.05C1004.6 219.068 1004.48 217.785 1004.39 216.793C1003.62 207.365 1007.92 201.022 1012.77 197.162C1016.4 194.198 1020.47 192.32 1024.34 190.262C1028.25 188.195 1033.22 186.364 1037.16 184.58C1092.07 159.729 1147.99 140.305 1204.07 121.032C1222.47 114.709 1240.85 108.319 1259.23 101.825C1267.32 98.9654 1275.62 96.0113 1284.06 93.1703C1312.95 83.4394 1343.44 75.0299 1372.31 76.0964C1386.91 76.5872 1401.47 78.7958 1415.78 82.7316C1421.24 83.7886 1426.69 85.3365 1432.12 87.1675C1443.86 91.1222 1455.51 96.3699 1466.96 100.74C1477.5 104.77 1488.13 108.366 1498.82 111.669C1534.39 122.665 1570.56 130.31 1606.26 138.908C1636.57 146.214 1666.75 154.463 1697.03 161.947C1709.63 165.062 1722.22 168.177 1734.81 171.282C1764.04 178.502 1793.26 185.723 1822.48 192.924C1853.7 200.607 1888.34 198.209 1919.3 199.361Z" fill="#96C22F"/>
</svg>
