<svg width="521" height="735" viewBox="0 0 521 735" fill="none" xmlns="http://www.w3.org/2000/svg">
<path opacity="0.12" d="M511.106 735H185.01C179.964 735 175.879 730.904 175.879 725.869V725.311C175.879 720.265 179.975 716.18 185.01 716.18H511.094C516.141 716.18 520.225 720.277 520.225 725.311V725.869C520.237 730.904 516.141 735 511.106 735Z" fill="black"/>
<path d="M463.739 633.193H16.588C7.42129 633.193 0 625.76 0 616.605V16.588C0 7.42126 7.43317 0 16.588 0H463.739C472.906 0 480.327 7.43313 480.327 16.588V616.594C480.327 625.76 472.906 633.193 463.739 633.193Z" fill="#606060"/>
<path d="M273.413 627.615H212.084V711.992H273.413V627.615Z" fill="#606060"/>
<path d="M309.119 707.109H176.392C168.757 707.109 162.582 713.296 162.582 720.919V721.18C162.582 728.815 168.768 734.99 176.392 734.99H309.119C316.754 734.99 322.929 728.803 322.929 721.18V720.919C322.941 713.296 316.754 707.109 309.119 707.109Z" fill="#606060"/>
<path d="M441.903 37.6572H38.4238V595.534H441.903V37.6572Z" fill="#E7E9EA"/>
<path d="M35.1875 34.5913V598.583H445.138V34.5913H35.1875ZM438.655 592.468H41.6707V40.7183H438.655V592.468Z" fill="#ACB4BB"/>
</svg>
