<svg width="603" height="157" viewBox="0 0 603 157" fill="none" xmlns="http://www.w3.org/2000/svg">
<path d="M486.002 136.816H414.809V156.075H486.002V136.816Z" fill="white"/>
<path d="M487 138.255H414.789V113.596H472.863L487 125.705V138.255Z" fill="#72645D"/>
<path d="M454.268 156.075H414.809V130.632L434.541 114.607L454.268 130.632V156.075Z" fill="white"/>
<path d="M460.209 100.824H454.266V114.607H460.209V100.824Z" fill="#5E5D5C"/>
<path d="M462.455 111.916H452.254V116.401H462.455V111.916Z" fill="#E7D0B0"/>
<path d="M433.528 125.926H431.172V131.756H433.528V125.926Z" fill="#417A8C"/>
<path d="M437.23 125.926H434.539V131.756H437.23V125.926Z" fill="#417A8C"/>
<path d="M424.675 140.498H421.422V141.616H424.675V140.498Z" fill="#417A8C"/>
<path d="M428.374 140.498H425.684V141.616H428.374V140.498Z" fill="#417A8C"/>
<path d="M424.675 142.398H421.422V149.574H424.675V142.398Z" fill="#417A8C"/>
<path d="M428.374 142.398H425.684V149.574H428.374V142.398Z" fill="#417A8C"/>
<path d="M461.666 141.617H458.078V144.194H461.666V141.617Z" fill="#417A8C"/>
<path d="M461.666 145.988H458.078V148.344H461.666V145.988Z" fill="#417A8C"/>
<path d="M461.666 149.576H458.078V151.932H461.666V149.576Z" fill="#417A8C"/>
<path d="M467.049 141.617H463.461V144.194H467.049V141.617Z" fill="#417A8C"/>
<path d="M467.049 145.988H463.461V148.344H467.049V145.988Z" fill="#417A8C"/>
<path d="M467.049 149.576H463.461V151.932H467.049V149.576Z" fill="#417A8C"/>
<path d="M472.428 141.617H468.84V144.194H472.428V141.617Z" fill="#417A8C"/>
<path d="M472.428 145.988H468.84V148.344H472.428V145.988Z" fill="#417A8C"/>
<path d="M472.428 149.576H468.84V151.932H472.428V149.576Z" fill="#417A8C"/>
<path d="M477.807 141.617H474.219V144.194H477.807V141.617Z" fill="#417A8C"/>
<path d="M477.807 145.988H474.219V148.344H477.807V145.988Z" fill="#417A8C"/>
<path d="M477.807 149.576H474.219V151.932H477.807V149.576Z" fill="#417A8C"/>
<path d="M483.189 141.617H479.602V144.194H483.189V141.617Z" fill="#417A8C"/>
<path d="M483.189 145.988H479.602V148.344H483.189V145.988Z" fill="#417A8C"/>
<path d="M483.189 149.576H479.602V151.932H483.189V149.576Z" fill="#417A8C"/>
<path d="M443.511 140.498H440.258V141.616H443.511V140.498Z" fill="#417A8C"/>
<path d="M447.206 140.498H444.516V141.616H447.206V140.498Z" fill="#417A8C"/>
<path d="M443.511 142.398H440.258V149.574H443.511V142.398Z" fill="#417A8C"/>
<path d="M447.206 142.398H444.516V149.574H447.206V142.398Z" fill="#417A8C"/>
<path d="M400.646 106.748H398.359V115.136H400.646V106.748Z" fill="#6B3425"/>
<path d="M447.862 135.899H388.973V115.136L418.42 108.1L447.862 115.136V135.899Z" fill="#8A9995"/>
<path d="M449.736 135.898H386.855V156.073H449.736V135.898Z" fill="#776B67"/>
<path d="M399.999 121.352H396.715V129.443H399.999V121.352Z" fill="#417A8C"/>
<path d="M404.984 121.352H400.645V129.443H404.984V121.352Z" fill="#417A8C"/>
<path d="M418.3 121.352H415.016V129.443H418.3V121.352Z" fill="#417A8C"/>
<path d="M423.285 121.352H418.945V129.443H423.285V121.352Z" fill="#417A8C"/>
<path d="M435.191 121.352H431.906V129.443H435.191V121.352Z" fill="#417A8C"/>
<path d="M440.179 121.352H435.84V129.443H440.179V121.352Z" fill="#417A8C"/>
<path d="M399.999 138.248H396.715V146.339H399.999V138.248Z" fill="#417A8C"/>
<path d="M404.984 138.248H400.645V146.339H404.984V138.248Z" fill="#417A8C"/>
<path d="M418.3 138.248H415.016V146.339H418.3V138.248Z" fill="#417A8C"/>
<path d="M423.285 138.248H418.945V146.339H423.285V138.248Z" fill="#417A8C"/>
<path d="M435.191 138.248H431.906V146.339H435.191V138.248Z" fill="#417A8C"/>
<path d="M440.179 138.248H435.84V146.339H440.179V138.248Z" fill="#417A8C"/>
<path d="M448.41 115.586L418.324 108.177L388.131 115.479L388.074 115.264L418.324 107.949L418.349 107.956L448.46 115.371L448.41 115.586Z" fill="#6B3425"/>
<path d="M395.261 120.523H263.84V156.073H395.261V120.523Z" fill="white"/>
<path d="M397.094 123.177H263.797V77.666H371.001L397.094 100.008V123.177Z" fill="#818986"/>
<path d="M336.676 156.073H263.84V109.11L300.255 79.5234L336.676 109.11V156.073Z" fill="white"/>
<path d="M347.641 54.0801H336.676V79.5293H347.641V54.0801Z" fill="white"/>
<path d="M351.779 74.5586H332.949V82.8333H351.779V74.5586Z" fill="#417A8C"/>
<path d="M298.393 100.418H294.047V111.175H298.393V100.418Z" fill="#417A8C"/>
<path d="M305.223 100.418H300.258V111.175H305.223V100.418Z" fill="#417A8C"/>
<path d="M282.044 127.314H276.043V129.386H282.044V127.314Z" fill="#417A8C"/>
<path d="M288.871 127.314H283.906V129.386H288.871V127.314Z" fill="#417A8C"/>
<path d="M282.044 130.832H276.043V144.071H282.044V130.832Z" fill="#417A8C"/>
<path d="M288.871 130.832H283.906V144.071H288.871V130.832Z" fill="#417A8C"/>
<path d="M350.331 129.389H343.711V134.145H350.331V129.389Z" fill="#417A8C"/>
<path d="M350.331 137.455H343.711V141.801H350.331V137.455Z" fill="#417A8C"/>
<path d="M350.331 144.08H343.711V148.426H350.331V144.08Z" fill="#417A8C"/>
<path d="M360.264 129.389H353.645V134.145H360.264V129.389Z" fill="#417A8C"/>
<path d="M360.264 137.455H353.645V141.801H360.264V137.455Z" fill="#417A8C"/>
<path d="M360.264 144.08H353.645V148.426H360.264V144.08Z" fill="#417A8C"/>
<path d="M370.194 129.389H363.574V134.145H370.194V129.389Z" fill="#417A8C"/>
<path d="M370.194 137.455H363.574V141.801H370.194V137.455Z" fill="#417A8C"/>
<path d="M370.194 144.08H363.574V148.426H370.194V144.08Z" fill="#417A8C"/>
<path d="M380.128 129.389H373.508V134.145H380.128V129.389Z" fill="#417A8C"/>
<path d="M380.128 137.455H373.508V141.801H380.128V137.455Z" fill="#417A8C"/>
<path d="M380.128 144.08H373.508V148.426H380.128V144.08Z" fill="#417A8C"/>
<path d="M390.057 129.389H383.438V134.145H390.057V129.389Z" fill="#417A8C"/>
<path d="M390.057 137.455H383.438V141.801H390.057V137.455Z" fill="#417A8C"/>
<path d="M390.057 144.08H383.438V148.426H390.057V144.08Z" fill="#417A8C"/>
<path d="M316.809 127.314H310.809V129.386H316.809V127.314Z" fill="#417A8C"/>
<path d="M323.637 127.314H318.672V129.386H323.637V127.314Z" fill="#417A8C"/>
<path d="M316.809 130.832H310.809V144.071H316.809V130.832Z" fill="#417A8C"/>
<path d="M323.637 130.832H318.672V144.071H323.637V130.832Z" fill="#417A8C"/>
<path d="M220.754 51.9102H215.922V69.6217H220.754V51.9102Z" fill="#6B3425"/>
<path d="M320.482 113.47H196.109V69.6206L258.296 54.7578L320.482 69.6206V113.47Z" fill="#EAE7E4"/>
<path d="M324.447 113.471H191.648V156.076H324.447V113.471Z" fill="#686665"/>
<path d="M219.393 82.7539H212.457V99.8464H219.393V82.7539Z" fill="#AFD1D3"/>
<path d="M229.923 82.7539H220.758V99.8464H229.923V82.7539Z" fill="#AFD1D3"/>
<path d="M258.041 82.7559H251.105V99.8483H258.041V82.7559Z" fill="#AFD1D3"/>
<path d="M268.572 82.7559H259.406V99.8483H268.572V82.7559Z" fill="#AFD1D3"/>
<path d="M293.713 82.7559H286.777V99.8483H293.713V82.7559Z" fill="#AFD1D3"/>
<path d="M304.243 82.7559H295.078V99.8483H304.243V82.7559Z" fill="#AFD1D3"/>
<path d="M219.393 118.424H212.457V135.516H219.393V118.424Z" fill="#417A8C"/>
<path d="M229.923 118.424H220.758V135.516H229.923V118.424Z" fill="#417A8C"/>
<path d="M258.041 118.424H251.105V135.516H258.041V118.424Z" fill="#417A8C"/>
<path d="M268.572 118.424H259.406V135.516H268.572V118.424Z" fill="#417A8C"/>
<path d="M293.717 118.424H286.781V135.516H293.717V118.424Z" fill="#417A8C"/>
<path d="M304.247 118.424H295.082V135.516H304.247V118.424Z" fill="#417A8C"/>
<path d="M321.629 70.5695L258.091 54.9171L194.326 70.3358L194.219 69.8873L258.091 54.4434L258.148 54.456L321.737 70.121L321.629 70.5695Z" fill="#6B3425"/>
<path d="M204.965 105.74H0V36.0938H164.836L204.965 70.285V105.74Z" fill="#A09795"/>
<path d="M112.061 156.075H0.0625V84.2119L56.0585 38.9414L112.061 84.2119V156.075Z" fill="#AFABAA"/>
<path d="M128.928 0H112.062V38.9413H128.928V0Z" fill="#AFABAA"/>
<path d="M135.287 31.3418H106.332V44.0064H135.287V31.3418Z" fill="#E0DDDA"/>
<path d="M53.1985 70.916H46.5156V87.3769H53.1985V70.916Z" fill="#417A8C"/>
<path d="M63.6953 70.916H56.0586V87.3769H63.6953V70.916Z" fill="#417A8C"/>
<path d="M28.0644 112.072H18.8359V115.237H28.0644V112.072Z" fill="#6F99A3"/>
<path d="M38.5625 112.072H30.9258V115.237H38.5625V112.072Z" fill="#6F99A3"/>
<path d="M28.0644 117.453H18.8359V137.717H28.0644V117.453Z" fill="#6F99A3"/>
<path d="M38.5625 117.455H30.9258V137.718H38.5625V117.455Z" fill="#6F99A3"/>
<path d="M133.057 115.238H122.875V122.521H133.057V115.238Z" fill="#417A8C"/>
<path d="M133.057 127.582H122.875V134.233H133.057V127.582Z" fill="#417A8C"/>
<path d="M133.057 137.713H122.875V144.364H133.057V137.713Z" fill="#417A8C"/>
<path d="M148.335 115.238H138.152V122.521H148.335V115.238Z" fill="#417A8C"/>
<path d="M148.335 127.582H138.152V134.233H148.335V127.582Z" fill="#417A8C"/>
<path d="M148.335 137.713H138.152V144.364H148.335V137.713Z" fill="#417A8C"/>
<path d="M163.604 115.238H153.422V122.521H163.604V115.238Z" fill="#417A8C"/>
<path d="M163.604 127.582H153.422V134.233H163.604V127.582Z" fill="#417A8C"/>
<path d="M163.604 137.713H153.422V144.364H163.604V137.713Z" fill="#417A8C"/>
<path d="M178.874 115.238H168.691V122.521H178.874V115.238Z" fill="#417A8C"/>
<path d="M178.874 127.582H168.691V134.233H178.874V127.582Z" fill="#417A8C"/>
<path d="M178.874 137.713H168.691V144.364H178.874V137.713Z" fill="#417A8C"/>
<path d="M194.143 115.238H183.961V122.521H194.143V115.238Z" fill="#417A8C"/>
<path d="M194.143 127.582H183.961V134.233H194.143V127.582Z" fill="#417A8C"/>
<path d="M194.143 137.713H183.961V144.364H194.143V137.713Z" fill="#417A8C"/>
<path d="M81.5175 112.074H72.2891V115.239H81.5175V112.074Z" fill="#6F99A3"/>
<path d="M92.0156 112.074H84.3789V115.239H92.0156V112.074Z" fill="#6F99A3"/>
<path d="M81.5175 117.455H72.2891V137.718H81.5175V117.455Z" fill="#6F99A3"/>
<path d="M92.0156 117.455H84.3789V137.718H92.0156V117.455Z" fill="#6F99A3"/>
<path d="M581.226 17.041C593.253 17.041 602.999 26.7874 602.999 38.814V156.08H559.453V38.814C559.453 26.7874 569.2 17.041 581.226 17.041Z" fill="#8A9995"/>
<path d="M602.999 38.8086H559.453V41.6195H602.999V38.8086Z" fill="#72645D"/>
<path d="M602.999 54.2578H559.453V57.0687H602.999V54.2578Z" fill="#72645D"/>
<path d="M602.999 69.7012H559.453V72.512H602.999V69.7012Z" fill="#72645D"/>
<path d="M602.999 85.1523H559.453V87.9632H602.999V85.1523Z" fill="#72645D"/>
<path d="M602.999 100.602H559.453V103.412H602.999V100.602Z" fill="#72645D"/>
<path d="M602.999 116.053H559.453V118.864H602.999V116.053Z" fill="#72645D"/>
<path d="M602.999 131.496H559.453V134.307H602.999V131.496Z" fill="#72645D"/>
<path d="M481.598 119.439V156.075H527.184V75.6465L496.795 92.6253L487.851 114.076L481.598 119.439Z" fill="#EFE6E4"/>
<path d="M478.59 122.805L477.453 121.422L487.111 113.526L496.087 91.9995L526.741 74.8691L527.619 76.4294L497.495 93.2566L488.595 114.625L478.59 122.805Z" fill="#3D3B38"/>
<path d="M517.354 104.24H507.52V113.178H517.354V104.24Z" fill="white"/>
<path d="M506.624 128.369H487.852V143.56H506.624V128.369Z" fill="white"/>
<path d="M527.184 129.266H510.199V131.053H527.184V129.266Z" fill="white"/>
<path d="M527.182 130.156H511.984V156.073H527.182V130.156Z" fill="white"/>
<path d="M525.396 131.055H513.773V154.287H525.396V131.055Z" fill="#897F7D"/>
<path d="M526.286 153.395L515.34 130.156H513.773L526.286 155.182V153.395Z" fill="white"/>
<path d="M525.396 130.156L512.883 155.182H514.67L526.659 130.156H525.396Z" fill="white"/>
<path d="M496.791 130.156H489.641V141.772H496.791V130.156Z" fill="#897F7D"/>
<path d="M494.112 129.266H492.324V142.669H494.112V129.266Z" fill="white"/>
<path d="M497.686 132.842H487.852V134.629H497.686V132.842Z" fill="white"/>
<path d="M497.686 137.307H487.852V139.094H497.686V137.307Z" fill="white"/>
<path d="M515.568 106.029H509.309V111.392H515.568V106.029Z" fill="#897F7D"/>
<path d="M512.881 105.139H511.984V112.289H512.881V105.139Z" fill="white"/>
<path d="M516.457 107.816H507.52V108.707H516.457V107.816Z" fill="white"/>
<path d="M505.732 130.156H498.582V141.772H505.732V130.156Z" fill="#897F7D"/>
<path d="M503.045 129.266H501.258V142.669H503.045V129.266Z" fill="white"/>
<path d="M506.628 132.842H496.793V134.629H506.628V132.842Z" fill="white"/>
<path d="M506.628 137.307H496.793V139.094H506.628V137.307Z" fill="white"/>
<path d="M571.74 119.439V156.075H526.16V75.6465L556.549 92.6253L565.487 114.076L571.74 119.439Z" fill="#EFE6E4"/>
<path d="M574.751 122.805L575.882 121.422L566.224 113.526L557.248 91.9995L526.594 74.8691L525.723 76.4294L555.84 93.2566L564.746 114.625L574.751 122.805Z" fill="#3D3B38"/>
<path d="M535.985 113.184L545.82 113.184L545.82 104.246L535.985 104.246L535.985 113.184Z" fill="white"/>
<path d="M545.817 143.566L564.59 143.566L564.59 128.375L545.817 128.375L545.817 143.566Z" fill="white"/>
<path d="M526.152 131.051L543.137 131.051L543.137 129.263L526.152 129.263L526.152 131.051Z" fill="white"/>
<path d="M526.154 156.078L541.352 156.078L541.352 130.161L526.154 130.161L526.154 156.078Z" fill="white"/>
<path d="M527.94 154.287L539.562 154.287L539.563 131.055L527.94 131.055L527.94 154.287Z" fill="#897F7D"/>
<path d="M527.051 153.395L538.004 130.156H539.564L527.051 155.182V153.395Z" fill="white"/>
<path d="M527.945 130.156L540.458 155.182H538.671L526.676 130.156H527.945Z" fill="white"/>
<path d="M555.654 141.779L562.805 141.779L562.805 130.163L555.654 130.163L555.654 141.779Z" fill="#897F7D"/>
<path d="M558.33 142.67L560.117 142.67L560.117 129.266L558.33 129.266L558.33 142.67Z" fill="white"/>
<path d="M554.755 134.625L564.59 134.625L564.59 132.837L554.755 132.837L554.755 134.625Z" fill="white"/>
<path d="M554.755 139.096L564.59 139.096L564.59 137.308L554.755 137.308L554.755 139.096Z" fill="white"/>
<path d="M537.775 111.395L544.035 111.395L544.035 106.032L537.775 106.032L537.775 111.395Z" fill="#897F7D"/>
<path d="M540.455 112.285L541.352 112.285L541.352 105.135L540.455 105.135L540.455 112.285Z" fill="white"/>
<path d="M536.882 108.713L545.82 108.713L545.82 107.822L536.882 107.822L536.882 108.713Z" fill="white"/>
<path d="M546.717 141.779L553.867 141.779L553.867 130.163L546.717 130.163L546.717 141.779Z" fill="#897F7D"/>
<path d="M549.392 142.67L551.18 142.67L551.18 129.266L549.392 129.266L549.392 142.67Z" fill="white"/>
<path d="M545.818 134.625L555.652 134.625L555.652 132.837L545.818 132.837L545.818 134.625Z" fill="white"/>
<path d="M545.818 139.096L555.652 139.096L555.652 137.308L545.818 137.308L545.818 139.096Z" fill="white"/>
</svg>
