<svg version="1.1" id="Слой_2_1_" xmlns="http://www.w3.org/2000/svg" x="0" y="0" viewBox="0 0 194.8 99.2" style="enable-background:new 0 0 194.8 99.2" xml:space="preserve"><style>.st0{fill:#303030}.st1{fill:#fff}</style><path class="st0" d="M12.7 60.8h6.8v38h-6.8zM172.2 60.8h6.8v38h-6.8z"/><path class="st1" d="M184.3 64.4H10.5C4.7 64.4 0 59.7 0 53.9V10.5C0 4.7 4.7 0 10.5 0h173.7c5.8 0 10.5 4.7 10.5 10.5v43.4c0 5.8-4.7 10.5-10.4 10.5zM10.5 3C6.4 3 3 6.4 3 10.5v43.4c0 4.1 3.4 7.5 7.5 7.5h173.7c4.1 0 7.5-3.4 7.5-7.5V10.5c0-4.1-3.4-7.5-7.5-7.5H10.5z"/><path d="M193.3 10.5v43.4c0 5-4 9-9 9H10.5c-5 0-9-4-9-9V10.5c0-5 4-9 9-9h173.7c5 0 9.1 4 9.1 9z" style="fill:#0a93fd"/><path class="st1" d="M169.3 47v-8h-26v-9.8h26v-8l16 12.9z"/></svg>