<svg id="Слой_2" data-name="Слой 2" xmlns="http://www.w3.org/2000/svg" viewBox="0 0 194.76 64.43"><defs><style>.cls-2{fill:#fff}</style></defs><rect x="1.5" y="1.5" width="191.76" height="61.43" rx="9.01" style="fill:#0a93fd"/><path class="cls-2" d="M184.25 64.43H10.51A10.53 10.53 0 0 1 0 53.92V10.51A10.53 10.53 0 0 1 10.51 0h173.74a10.53 10.53 0 0 1 10.51 10.51v43.41a10.53 10.53 0 0 1-10.51 10.51ZM10.51 3A7.52 7.52 0 0 0 3 10.51v43.41a7.52 7.52 0 0 0 7.51 7.51h173.74a7.52 7.52 0 0 0 7.51-7.51V10.51A7.52 7.52 0 0 0 184.25 3Z"/><path class="cls-2" d="m185.26 34.11-15.97-12.88v7.93h-25.95v9.89h25.95v7.93l15.97-12.87z"/></svg>