<svg width="720" height="572" fill="none" xmlns="http://www.w3.org/2000/svg"><path d="M373.908 385.404h-27.816v186.025h27.816V385.404Z" fill="#606060"/><path d="M711.442 10.687H10.699v373.117h700.743V10.687Z" fill="#FFFFFE"/><path d="M709.302 10.691v370.445H10.698V10.691h698.604ZM720 0H0v391.827h720V0Z" fill="#232323"/><path d="M151.833 428.717h-27.815v-6.414h27.815v6.414Zm-26.746-1.069h25.676v-4.276h-25.676v4.276ZM141.669 391.829h-7.489v13.898h7.489v-13.898Z" fill="#000"/><path d="M154.505 404.647H121.34v3.208h33.165v-3.208Z" fill="#000"/><path d="M151.297 407.862h-26.746v9.622h26.746v-9.622Z" fill="#606060"/><path d="M152.897 417.482h-29.956v5.346h29.956v-5.346Z" fill="#232323"/><path d="M140.599 422.827h-5.349v7.484h5.349v-7.484ZM269.509 428.717h-27.816v-6.414h27.816v6.414Zm-26.746-1.069h25.676v-4.276h-25.676v4.276ZM259.348 391.829h-7.489v13.898h7.489v-13.898Z" fill="#000"/><path d="M272.188 404.647h-33.165v3.208h33.165v-3.208Z" fill="#000"/><path d="M268.978 407.862h-26.746v9.622h26.746v-9.622Z" fill="#606060"/><path d="M270.58 417.482h-29.955v5.346h29.955v-5.346Z" fill="#232323"/><path d="M258.283 422.827h-5.349v7.484h5.349v-7.484ZM474.923 428.717h-27.816v-6.414h27.816v6.414Zm-26.746-1.069h25.676v-4.276h-25.676v4.276ZM464.758 391.829h-7.488v13.898h7.488v-13.898Z" fill="#000"/><path d="M477.597 404.647h-33.165v3.208h33.165v-3.208Z" fill="#000"/><path d="M474.385 407.862h-26.746v9.622h26.746v-9.622Z" fill="#606060"/><path d="M475.991 417.482h-29.956v5.346h29.956v-5.346Z" fill="#232323"/><path d="M463.689 422.827h-5.349v7.484h5.349v-7.484ZM592.603 428.717h-27.816v-6.414h27.816v6.414Zm-26.746-1.069h25.676v-4.276h-25.676v4.276ZM582.436 391.829h-7.489v13.898h7.489v-13.898Z" fill="#000"/><path d="M595.28 404.647h-33.165v3.208h33.165v-3.208Z" fill="#000"/><path d="M592.068 407.862h-26.746v9.622h26.746v-9.622Z" fill="#606060"/><path d="M593.676 417.482h-29.955v5.346h29.955v-5.346Z" fill="#232323"/></svg>