<svg width="1830" height="580" fill="none" xmlns="http://www.w3.org/2000/svg"><path d="M139.552 543.729h-7.019v13.029h7.019v-13.029Z" fill="#000"/><path d="M151.583 555.756h-31.085v3.007h31.085v-3.007Z" fill="#000"/><path d="M148.574 558.76h-25.068v9.02h25.068v-9.02Z" fill="#606060"/><path d="M150.081 567.779h-28.077v5.012h28.077v-5.012Z" fill="#232323"/><path d="M259.378 578.307h-26.071v-6.014h26.071v6.014Zm-25.069-1.003h24.066v-4.009h-24.066v4.009ZM249.855 543.729h-7.019v13.029h7.019v-13.029Z" fill="#000"/><path d="M261.886 555.756h-31.085v3.007h31.085v-3.007Z" fill="#000"/><path d="M258.877 558.76h-25.068v9.02h25.068v-9.02Z" fill="#606060"/><path d="M260.379 567.779h-28.076v5.012h28.076v-5.012Z" fill="#232323"/><path d="M1830 0H0v546.233h1830V0Z" fill="#fff"/><path d="M1819.97 10.023V536.21H10.027V10.023H1819.97ZM1830 0H0v546.233h1830V0Z" fill="#232323"/><path d="M469.956 578.307h-26.071v-6.014h26.071v6.014Zm-25.068-1.003h24.065v-4.009h-24.065v4.009ZM460.429 543.729h-7.019v13.029h7.019v-13.029Z" fill="#000"/><path d="M472.46 555.756h-31.085v3.007h31.085v-3.007Z" fill="#000"/><path d="M469.453 558.76h-25.068v9.02h25.068v-9.02Z" fill="#606060"/><path d="M470.958 567.779h-28.077v5.012h28.077v-5.012Z" fill="#232323"/><path d="M459.424 572.795h-5.014v7.016h5.014v-7.016ZM580.255 578.307h-26.071v-6.014h26.071v6.014Zm-25.069-1.003h24.066v-4.009h-24.066v4.009ZM570.728 543.729h-7.019v13.029h7.019v-13.029Z" fill="#000"/><path d="M582.763 555.756h-31.085v3.007h31.085v-3.007Z" fill="#000"/><path d="M579.756 558.76h-25.068v9.02h25.068v-9.02Z" fill="#606060"/><path d="M581.256 567.779H553.18v5.012h28.076v-5.012Z" fill="#232323"/><path d="M569.727 572.795h-5.014v7.016h5.014v-7.016ZM730.669 578.307h-26.071v-6.014h26.071v6.014Zm-25.069-1.003h24.066v-4.009H705.6v4.009ZM721.14 543.729h-7.019v13.029h7.019v-13.029Z" fill="#000"/><path d="M733.175 555.756H702.09v3.007h31.085v-3.007Z" fill="#000"/><path d="M730.166 558.76h-25.068v9.02h25.068v-9.02Z" fill="#606060"/><path d="M731.669 567.779h-28.077v5.012h28.077v-5.012Z" fill="#232323"/><path d="M720.137 572.795h-5.014v7.016h5.014v-7.016ZM840.966 578.307h-26.071v-6.014h26.071v6.014Zm-25.069-1.003h24.066v-4.009h-24.066v4.009ZM831.441 543.729h-7.019v13.029h7.019v-13.029Z" fill="#000"/><path d="M843.474 555.756h-31.085v3.007h31.085v-3.007Z" fill="#000"/><path d="M840.467 558.76h-25.069v9.02h25.069v-9.02Z" fill="#606060"/><path d="M841.969 567.779h-28.076v5.012h28.076v-5.012Z" fill="#232323"/><path d="M830.438 572.795h-5.014v7.016h5.014v-7.016ZM961.296 578.307h-26.071v-6.014h26.071v6.014Zm-25.069-1.003h24.066v-4.009h-24.066v4.009ZM951.769 543.729h-7.019v13.029h7.019v-13.029Z" fill="#000"/><path d="M963.804 555.756h-31.085v3.007h31.085v-3.007Z" fill="#000"/><path d="M960.795 558.76h-25.068v9.02h25.068v-9.02Z" fill="#606060"/><path d="M962.299 567.779h-28.076v5.012h28.076v-5.012Z" fill="#232323"/><path d="M950.768 572.795h-5.014v7.016h5.014v-7.016ZM1071.6 578.307h-26.07v-6.014h26.07v6.014Zm-25.07-1.003h24.07v-4.009h-24.07v4.009ZM1062.07 543.729h-7.02v13.029h7.02v-13.029Z" fill="#000"/><path d="M1074.1 555.756h-31.08v3.007h31.08v-3.007Z" fill="#000"/><path d="M1071.1 558.76h-25.07v9.02h25.07v-9.02Z" fill="#606060"/><path d="M1072.6 567.779h-28.07v5.012h28.07v-5.012Z" fill="#232323"/><path d="M1061.07 572.795h-5.01v7.016h5.01v-7.016ZM1222.01 578.307h-26.07v-6.014h26.07v6.014Zm-25.07-1.003h24.07v-4.009h-24.07v4.009ZM1212.48 543.729h-7.02v13.029h7.02v-13.029Z" fill="#000"/><path d="M1224.51 555.756h-31.08v3.007h31.08v-3.007Z" fill="#000"/><path d="M1221.51 558.76h-25.07v9.02h25.07v-9.02Z" fill="#606060"/><path d="M1223.01 567.779h-28.07v5.012h28.07v-5.012Z" fill="#232323"/><path d="M1211.48 572.795h-5.01v7.016h5.01v-7.016ZM1332.31 578.307h-26.07v-6.014h26.07v6.014Zm-25.07-1.003h24.07v-4.009h-24.07v4.009ZM1322.78 543.729h-7.01v13.029h7.01v-13.029Z" fill="#000"/><path d="M1334.82 555.756h-31.09v3.007h31.09v-3.007Z" fill="#000"/><path d="M1331.81 558.76h-25.07v9.02h25.07v-9.02Z" fill="#606060"/><path d="M1333.31 567.779h-28.07v5.012h28.07v-5.012Z" fill="#232323"/><path d="M1321.78 572.795h-5.01v7.016h5.01v-7.016ZM1557.93 578.307h-26.07v-6.014h26.07v6.014Zm-25.07-1.003h24.06v-4.009h-24.06v4.009ZM1548.4 543.729h-7.02v13.029h7.02v-13.029Z" fill="#000"/><path d="M1560.43 555.756h-31.08v3.007h31.08v-3.007Z" fill="#000"/><path d="M1557.43 558.76h-25.07v9.02h25.07v-9.02Z" fill="#606060"/><path d="M1558.93 567.779h-28.08v5.012h28.08v-5.012Z" fill="#232323"/><path d="M1547.4 572.795h-5.02v7.016h5.02v-7.016ZM1668.23 578.307h-26.07v-6.014h26.07v6.014Zm-25.07-1.003h24.07v-4.009h-24.07v4.009ZM1658.7 543.729h-7.02v13.029h7.02v-13.029Z" fill="#000"/><path d="M1670.74 555.756h-31.09v3.007h31.09v-3.007Z" fill="#000"/><path d="M1667.73 558.76h-25.07v9.02h25.07v-9.02Z" fill="#606060"/><path d="M1669.23 567.779h-28.08v5.012h28.08v-5.012Z" fill="#232323"/><path d="M1657.7 572.795h-5.01v7.016h5.01v-7.016Z" fill="#000"/></svg>