<svg width="1603" height="1189" fill="none" xmlns="http://www.w3.org/2000/svg"><path d="M235.044 383.644H65.834l-20.025-61.103h209.26l-20.025 61.103ZM235.044 453.765H65.834l-20.025-61.103h209.26l-20.025 61.103ZM235.044 523.88H65.834l-20.025-61.103h209.26l-20.025 61.103Z" fill="#232323"/><path d="M173.969 300.51H126.91c-18.248 0-33.04 14.799-33.04 33.055v200.337c0 18.257 14.792 33.056 33.04 33.056h47.059c18.248 0 33.041-14.799 33.041-33.056V333.565c0-18.256-14.793-33.055-33.041-33.055ZM1563.95 201.338H21.026C9.414 201.338 0 210.756 0 222.373c0 11.618 9.414 21.036 21.026 21.036H1563.95c11.61 0 21.02-9.418 21.02-21.036 0-11.617-9.41-21.035-21.02-21.035Z" fill="#232323"/><path d="M159.198 228.387h-13.016v81.136h13.016v-81.136ZM458.573 228.387h-16.02v81.136h16.02v-81.136ZM1361.69 222.371h-15.01v87.147h15.01v-87.147ZM1550.93 57.096h-75.09V1189h75.09V57.096Z" fill="#232323"/><path d="M1431.78 294.494H321.398v532.897H1431.78V294.494Z" fill="#fff"/><path d="M1421.77 304.511v512.863H331.411V304.511H1421.77Zm10.01-10.017H321.398v532.897H1431.78V294.494Z" fill="#232323"/><path d="M152.689 386.651c17.972 0 32.541-14.576 32.541-32.555 0-17.98-14.569-32.555-32.541-32.555-17.972 0-32.541 14.575-32.541 32.555 0 17.979 14.569 32.555 32.541 32.555Z" fill="#6B3425"/><path d="M152.689 456.768c17.972 0 32.541-14.576 32.541-32.555 0-17.98-14.569-32.555-32.541-32.555-17.972 0-32.541 14.575-32.541 32.555 0 17.979 14.569 32.555 32.541 32.555Z" fill="#FFE051"/><path d="M152.689 526.889c17.972 0 32.541-14.575 32.541-32.555 0-17.979-14.569-32.555-32.541-32.555-17.972 0-32.541 14.576-32.541 32.555 0 17.98 14.569 32.555 32.541 32.555Z" fill="#7FA024"/><path d="M1590.99 0h-197.25c-6.64 0-12.02 5.382-12.02 12.02v65.11c0 6.638 5.38 12.02 12.02 12.02h197.25c6.63 0 12.01-5.382 12.01-12.02V12.02c0-6.638-5.38-12.02-12.01-12.02Z" fill="#0C96FD"/><path d="M1590.99 10.017c.53 0 1.04.211 1.41.587.38.376.59.885.59 1.416v65.11c0 .531-.21 1.04-.59 1.416a1.98 1.98 0 0 1-1.41.587h-197.25c-.53 0-1.04-.211-1.42-.587a2.02 2.02 0 0 1-.58-1.416V12.02c0-.531.21-1.04.58-1.416.38-.376.89-.587 1.42-.587h197.25Zm0-10.017h-197.25c-3.19 0-6.24 1.266-8.5 3.52a12.038 12.038 0 0 0-3.52 8.5v65.11c0 3.188 1.27 6.245 3.52 8.5a12.028 12.028 0 0 0 8.5 3.52h197.25c3.18 0 6.24-1.266 8.49-3.52a12.038 12.038 0 0 0 3.52-8.5V12.02c0-3.188-1.27-6.245-3.52-8.5a12.004 12.004 0 0 0-8.49-3.52Z" fill="#fff"/><path d="M1590.99 91.15h-197.25c-6.64 0-12.02 5.382-12.02 12.021v65.109c0 6.639 5.38 12.02 12.02 12.02h197.25c6.63 0 12.01-5.381 12.01-12.02v-65.109c0-6.639-5.38-12.02-12.01-12.02Z" fill="#0C96FD"/><path d="M1590.99 101.167c.53 0 1.04.211 1.41.587.38.376.59.885.59 1.417v65.109a1.99 1.99 0 0 1-.59 1.417c-.37.375-.88.587-1.41.587h-197.25c-.53 0-1.04-.212-1.42-.587a2.023 2.023 0 0 1-.58-1.417v-65.109c0-.532.21-1.041.58-1.417a2.02 2.02 0 0 1 1.42-.587h197.25Zm0-10.017h-197.25c-3.19 0-6.24 1.267-8.5 3.521a12.038 12.038 0 0 0-3.52 8.5v65.109c0 3.188 1.27 6.246 3.52 8.5a12.028 12.028 0 0 0 8.5 3.52h197.25c3.18 0 6.24-1.266 8.49-3.52a12.038 12.038 0 0 0 3.52-8.5v-65.109c0-3.188-1.27-6.246-3.52-8.5a12.004 12.004 0 0 0-8.49-3.52Z" fill="#fff"/></svg>