<svg width="1585" height="1132" fill="none" xmlns="http://www.w3.org/2000/svg"><path d="M235.044 326.644H65.834l-20.025-61.103h209.26l-20.025 61.103ZM235.044 396.765H65.834l-20.025-61.103h209.26l-20.025 61.103ZM235.044 466.88H65.834l-20.025-61.103h209.26l-20.025 61.103Z" fill="#232323"/><path d="M173.969 243.51H126.91c-18.248 0-33.04 14.799-33.04 33.055v200.337c0 18.257 14.792 33.056 33.04 33.056h47.059c18.248 0 33.041-14.799 33.041-33.056V276.565c0-18.256-14.793-33.055-33.041-33.055ZM1563.95 144.338H21.026C9.414 144.338 0 153.756 0 165.373c0 11.618 9.414 21.036 21.026 21.036H1563.95c11.61 0 21.02-9.418 21.02-21.036 0-11.617-9.41-21.035-21.02-21.035Z" fill="#232323"/><path d="M159.198 171.387h-13.016v81.136h13.016v-81.136ZM458.573 171.387h-16.02v81.136h16.02v-81.136ZM1361.69 165.371h-15.01v87.147h15.01v-87.147ZM1550.93.096h-75.09V1132h75.09V.096Z" fill="#232323"/><path d="M1431.78 237.494H321.398v532.897H1431.78V237.494Z" fill="#fff"/><path d="M1421.77 247.511v512.863H331.411V247.511H1421.77Zm10.01-10.017H321.398v532.897H1431.78V237.494Z" fill="#232323"/><path d="M152.689 329.651c17.972 0 32.541-14.576 32.541-32.555 0-17.98-14.569-32.555-32.541-32.555-17.972 0-32.541 14.575-32.541 32.555 0 17.979 14.569 32.555 32.541 32.555Z" fill="#6B3425"/><path d="M152.689 399.768c17.972 0 32.541-14.576 32.541-32.555 0-17.98-14.569-32.555-32.541-32.555-17.972 0-32.541 14.575-32.541 32.555 0 17.979 14.569 32.555 32.541 32.555Z" fill="#FFE051"/><path d="M152.689 469.889c17.972 0 32.541-14.575 32.541-32.555 0-17.979-14.569-32.555-32.541-32.555-17.972 0-32.541 14.576-32.541 32.555 0 17.98 14.569 32.555 32.541 32.555Z" fill="#7FA024"/></svg>