<svg width="1279" height="992" fill="none" xmlns="http://www.w3.org/2000/svg"><path d="M1272.44 11.607H11.61v540.907h1260.83V11.607Z" fill="#FAFAFA"/><path d="M1144.74 595.4h-65.61v395.589h65.61V595.4Z" fill="#303030"/><path d="M1089.22 991.999h-21.2V594.393h21.2v397.606Zm-19.18-2.018h17.16v-393.57h-17.16v393.57Z" fill="#232323"/><path d="m1087.3 609.132-18.17 7.063.74 1.882 18.16-7.063-.73-1.882ZM1087.3 639.406l-18.17 7.063.73 1.881 18.17-7.063-.73-1.881ZM1087.3 669.677l-18.17 7.063.73 1.882 18.17-7.063-.73-1.882ZM1087.3 699.953l-18.17 7.063.74 1.881 18.16-7.063-.73-1.881ZM1087.3 730.228l-18.17 7.063.73 1.882 18.17-7.063-.73-1.882ZM1087.3 760.505l-18.17 7.063.73 1.882 18.17-7.063-.73-1.882ZM1087.3 790.779l-18.17 7.063.74 1.881 18.16-7.063-.73-1.881ZM1087.29 821.056l-18.17 7.063.74 1.882 18.17-7.063-.74-1.882ZM1087.3 851.33l-18.17 7.063.73 1.881 18.17-7.063-.73-1.881ZM1087.3 881.607l-18.17 7.063.74 1.882 18.16-7.063-.73-1.882ZM1087.29 911.876l-18.17 7.063.74 1.882 18.17-7.063-.74-1.882ZM1087.3 942.152l-18.17 7.063.73 1.881 18.17-7.063-.73-1.881ZM1266.89 12.11v532.833H12.114V12.11H1266.89ZM1279 0H0v557.053h1279V0Z" fill="#232323"/><path d="M1216.92 557.051H57.541v49.448H1216.92v-49.448Z" fill="#232323"/><path d="M1218.94 569.514H55.523l2.02-8.426H1216.92l2.02 8.426ZM1218.94 582.743H55.523l2.02-8.427H1216.92l2.02 8.427ZM1218.94 595.796H55.523l2.02-8.427H1216.92l2.02 8.427ZM1218.94 609.026H55.523l2.02-8.426H1216.92l2.02 8.426Z" fill="#606060"/><path d="M103.976 608.52H93.881v38.347h10.095V608.52Z" fill="#303030"/><path d="M1279 627.691H4.037v6.055H1279v-6.055Z" fill="#606060"/><path d="M275.587 608.52h-10.095v38.347h10.095V608.52Z" fill="#303030"/><path d="M275.587 637.785h-10.095v9.083h10.095v-9.083Z" fill="#606060"/><path d="M302.839 608.52h-10.095v38.347h10.095V608.52Z" fill="#303030"/><path d="M302.839 637.785h-10.095v9.083h10.095v-9.083Z" fill="#606060"/><path d="M474.452 608.52h-10.095v38.347h10.095V608.52ZM552.181 608.52h-10.095v38.347h10.095V608.52Z" fill="#303030"/><path d="M552.181 637.785h-10.095v9.083h10.095v-9.083Z" fill="#606060"/><path d="M723.79 608.52h-10.095v38.347h10.095V608.52Z" fill="#303030"/><path d="M723.79 637.785h-10.095v9.083h10.095v-9.083Z" fill="#606060"/><path d="M784.358 608.52h-10.094v38.347h10.094V608.52Z" fill="#303030"/><path d="M784.358 637.785h-10.094v9.083h10.094v-9.083Z" fill="#606060"/><path d="M955.97 608.52h-10.095v38.347h10.095V608.52Z" fill="#303030"/><path d="M955.97 637.785h-10.095v9.083h10.095v-9.083Z" fill="#606060"/><path d="M1172 608.52h-10.1v38.347h10.1V608.52Z" fill="#303030"/><path d="M1172 637.785h-10.1v9.083h10.1v-9.083Z" fill="#606060"/><path d="M1054.84 600.449h-6.95a24.278 24.278 0 0 1-24.28-24.28v-1.958h55.52v1.958c0 6.439-2.56 12.615-7.12 17.169a24.278 24.278 0 0 1-17.17 7.111Z" fill="#8A9995"/><path d="M1047.83 636.772h3.03l2.02-3.784v-33.554h-3.03v33.685l-2.02 3.653Z" fill="#303030"/><path d="M180.697 574.207h55.521v1.958a24.27 24.27 0 0 1-7.114 17.169 24.286 24.286 0 0 1-17.174 7.111h-6.945a24.294 24.294 0 0 1-22.439-14.988 24.27 24.27 0 0 1-1.849-9.292v-1.958Z" fill="#8A9995"/><path d="M211.987 636.772h-3.029l-2.019-3.784v-33.554h3.029v33.685l2.019 3.653Z" fill="#303030"/></svg>