<svg width="1534" height="776" fill="none" xmlns="http://www.w3.org/2000/svg"><path d="M1526.13 13.922H13.922V662.79H1526.13V13.921Z" fill="#FAFAFA"/><path d="M1519.47 14.527V653.71H14.529V14.527H1519.47ZM1534 0H0v668.238h1534V0Z" fill="#232323"/><path d="M1459.54 668.236H69.012v59.319H1459.54v-59.319Z" fill="#232323"/><path d="M1461.96 683.187H66.594l2.421-10.109H1459.54l2.42 10.109ZM1461.96 699.056H66.594l2.421-10.109H1459.54l2.42 10.109ZM1461.96 714.714H66.594l2.421-10.109H1459.54l2.42 10.109ZM1461.96 730.587H66.594l2.421-10.108H1459.54l2.42 10.108Z" fill="#606060"/><path d="M124.705 729.979h-12.107v46.001h12.107v-46.001Z" fill="#303030"/><path d="M1534 752.977H4.844v7.263H1534v-7.263Z" fill="#606060"/><path d="M330.529 729.979h-12.107v46.001h12.107v-46.001Z" fill="#303030"/><path d="M330.529 765.084h-12.107v10.895h12.107v-10.895Z" fill="#606060"/><path d="M363.213 729.979h-12.108v46.001h12.108v-46.001Z" fill="#303030"/><path d="M363.213 765.084h-12.108v10.895h12.108v-10.895Z" fill="#606060"/><path d="M569.049 729.979h-12.108v46.001h12.108v-46.001ZM662.271 729.979h-12.107v46.001h12.107v-46.001Z" fill="#303030"/><path d="M662.271 765.084h-12.107v10.895h12.107v-10.895Z" fill="#606060"/><path d="M868.096 729.979h-12.108v46.001h12.108v-46.001Z" fill="#303030"/><path d="M868.096 765.084h-12.108v10.895h12.108v-10.895Z" fill="#606060"/><path d="M940.744 729.979h-12.107v46.001h12.107v-46.001Z" fill="#303030"/><path d="M940.744 765.084h-12.107v10.895h12.107v-10.895Z" fill="#606060"/><path d="M1146.56 729.979h-12.1v46.001h12.1v-46.001Z" fill="#303030"/><path d="M1146.56 765.084h-12.1v10.895h12.1v-10.895Z" fill="#606060"/><path d="M1405.66 729.979h-12.11v46.001h12.11v-46.001Z" fill="#303030"/><path d="M1405.66 765.084h-12.11v10.895h12.11v-10.895Z" fill="#606060"/><path d="M1265.14 720.297h-8.33a29.12 29.12 0 0 1-20.59-8.531 29.103 29.103 0 0 1-8.54-20.596v-2.348h66.59v2.348a29.125 29.125 0 0 1-29.13 29.127Z" fill="#8A9995"/><path d="M1256.74 763.869h3.63l2.43-4.539v-40.252h-3.64v40.409l-2.42 4.382Z" fill="#303030"/><path d="M216.723 688.816h66.59v2.349a29.122 29.122 0 0 1-8.532 20.596 29.137 29.137 0 0 1-20.598 8.53h-8.33a29.127 29.127 0 0 1-29.13-29.126v-2.349Z" fill="#8A9995"/><path d="M254.245 763.869h-3.632l-2.422-4.539v-40.252h3.633v40.409l2.421 4.382Z" fill="#303030"/></svg>