<svg width="375" height="308" fill="none" xmlns="http://www.w3.org/2000/svg"><path d="M169.758 54.385c18.162 3.435 52.381-66.68 90.254-51.21 37.874 15.471 10.04 65.317 23.55 76.487 13.509 11.17 50.515-23.205 66.074 12.901 15.559 36.107-8.095 74.783-8.437 80.787-.342 6.005 42.657 38.283 30.724 82.728-11.932 44.445-170.389 48.745-226.949 50.449-56.56 1.705-132.175 1.574-143.319-44.759-11.143-46.333 39.477-86.687 44.155-99.64 4.678-12.953-37.663-58.027 15.428-113.433 41.079-42.871 90.359 2.255 108.52 5.69Z" fill="#9ECBDD"/><path d="M27.282 186.592H350.9c-5.493-6.791-9.778-11.354-9.672-13.268l-304.352 1.495c-2.838 3.461-6.15 7.42-9.593 11.773Z" fill="#1C4563"/><path d="M84.368 172.8s-4.863-9.361 6.176-10.436c-1.156-7.473 9.672-18.722 28.464-13.923 3.18-8.129 21.105-22.498 33.563-5.009 23.733-9.964 27.15 4.379 23.969 6.949 18.424-3.33 15.192 9.282 12.064 10.672 24.39-5.218 21.026 11.747 21.026 11.747H84.368ZM212.572 68.153s-1.918-4.93 2.445-5.48c-.447-3.933 3.837-9.833 11.275-7.316 1.262-4.274 8.358-11.825 13.299-2.622 9.409-5.218 10.749 2.308 9.488 3.645 7.306-1.757 6.019 4.877 4.783 5.611 9.672-2.727 8.332 6.162 8.332 6.162h-49.622Z" fill="#fff"/><path d="M1.708 261.741c11.144 46.333 86.785 46.49 143.319 44.759 56.533-1.73 214.991-6.004 226.949-50.449 8.121-30.233-9.172-54.855-20.973-69.381H27.229c-15.087 19.089-32.564 45.887-25.52 75.071Z" fill="#E7D0B0"/><path d="M12.59 207.7c-9.25 15.864-15.637 34.428-10.907 54.042 11.144 46.333 86.785 46.49 143.319 44.759 56.534-1.73 214.991-6.004 226.949-50.449 4.994-18.591.368-35.058-6.649-48.352H12.591Z" fill="#3D3B38"/><path d="M146.525 230.856h-19.712v3.959h19.712v-3.959ZM217.225 230.856h-19.712v3.959h19.712v-3.959ZM193.57 230.856h-19.712v3.959h19.712v-3.959ZM122.871 230.856H103.16v3.959h19.711v-3.959ZM99.217 230.856H82.133v3.959h17.084v-3.959ZM78.19 230.856H58.478v3.959H78.19v-3.959ZM54.536 230.856H34.825v3.959h19.711v-3.959ZM169.915 230.856h-19.449v3.959h19.449v-3.959ZM354.683 230.856h-19.712v3.959h19.712v-3.959ZM30.882 230.856H6.833v3.959h24.049v-3.959ZM331.03 230.856h-19.712v3.959h19.712v-3.959ZM363.199 230.856h-4.573v3.959h4.573v-3.959ZM285.56 230.856h-19.712v3.959h19.712v-3.959ZM261.905 230.856h-19.712v3.959h19.712v-3.959ZM238.25 230.856h-17.084v3.959h17.084v-3.959ZM307.373 230.856h-17.872v3.959h17.872v-3.959Z" fill="#fff"/><path d="m134.96 184.022-70.568 3.146-13.799-14.946 10.25-16.912 74.117 5.113v23.599Z" fill="#6B3425"/><path d="M131.018 155.31h-3.942v58.604h3.942V155.31ZM249.289 183.445l70.569 3.147 13.798-14.946-10.25-16.913-74.117 5.114v23.598Z" fill="#6B3425"/><path d="M253.244 213.312h3.943v-58.604h-3.943v58.604Z" fill="#6B3425"/><path d="m74.207 164.301 2.707 7.676h.107l2.707-7.676h1.157l-3.348 9.119h-1.14l-3.348-9.119h1.158Zm7.956 9.119v-6.839h1.051v6.839h-1.05Zm.535-7.979a.749.749 0 0 1-.53-.209.675.675 0 0 1-.218-.504c0-.195.072-.363.218-.503a.749.749 0 0 1 .53-.209c.205 0 .38.07.525.209.149.14.223.308.223.503a.668.668 0 0 1-.223.504.733.733 0 0 1-.525.209Zm3.492-1.14v9.119h-1.051v-9.119h1.05Zm2.975 0v9.119h-1.05v-9.119h1.05Zm3.937 9.279c-.433 0-.826-.081-1.18-.245a2.021 2.021 0 0 1-.841-.717c-.208-.314-.312-.694-.312-1.139 0-.392.077-.71.232-.953.154-.247.36-.44.619-.579.258-.14.543-.244.855-.312.314-.071.63-.127.948-.169.415-.053.752-.093 1.01-.12.262-.03.452-.079.57-.147.122-.068.183-.187.183-.356v-.036c0-.439-.12-.781-.36-1.024-.238-.243-.599-.365-1.082-.365-.502 0-.895.11-1.18.329-.285.22-.486.454-.601.704l-.998-.356c.178-.416.416-.74.712-.971.3-.235.627-.398.98-.49a4.066 4.066 0 0 1 1.05-.142c.22 0 .473.026.758.08.288.05.565.156.832.316.27.16.495.402.673.726.178.323.267.757.267 1.3v4.506h-1.05v-.926h-.054a1.85 1.85 0 0 1-.356.476 2.062 2.062 0 0 1-.664.432c-.276.119-.613.178-1.01.178Zm.16-.944c.416 0 .766-.081 1.052-.245a1.666 1.666 0 0 0 .872-1.447v-.961c-.044.053-.142.102-.294.146a4.92 4.92 0 0 1-.516.112 29.35 29.35 0 0 1-1.007.133 4.053 4.053 0 0 0-.765.174 1.313 1.313 0 0 0-.57.352c-.143.154-.214.365-.214.632 0 .365.135.641.405.828.273.184.62.276 1.038.276Zm7.654 3.491c-.508 0-.944-.065-1.31-.196a2.779 2.779 0 0 1-.912-.507 2.792 2.792 0 0 1-.575-.668l.837-.588c.095.125.216.267.361.427.146.164.344.305.597.423.255.122.589.183 1.002.183.552 0 1.007-.134 1.366-.401.36-.267.539-.685.539-1.255v-1.39h-.089a5.647 5.647 0 0 1-.329.463c-.14.182-.342.343-.606.486-.261.139-.614.209-1.06.209a2.855 2.855 0 0 1-1.487-.392c-.436-.261-.782-.641-1.037-1.14-.252-.498-.379-1.104-.379-1.816 0-.701.123-1.311.37-1.83.246-.523.59-.926 1.029-1.211.439-.288.946-.432 1.522-.432.446 0 .799.074 1.06.222.264.146.466.312.606.499.142.184.252.335.329.454h.107v-1.086h1.015v7.035c0 .588-.134 1.065-.401 1.434-.264.371-.62.642-1.068.814a4.017 4.017 0 0 1-1.487.263Zm-.036-3.758c.421 0 .778-.096 1.069-.289.29-.193.512-.471.663-.833.151-.362.227-.795.227-1.3 0-.493-.074-.928-.223-1.305a1.955 1.955 0 0 0-.659-.886c-.29-.214-.65-.32-1.077-.32-.445 0-.816.112-1.113.338a2.062 2.062 0 0 0-.664.908c-.145.38-.218.802-.218 1.265 0 .475.074.895.223 1.26.151.362.374.647.668.855.297.205.665.307 1.104.307Zm7.783 1.193c-.659 0-1.227-.145-1.705-.436a2.925 2.925 0 0 1-1.1-1.229c-.255-.528-.383-1.143-.383-1.843 0-.701.128-1.318.383-1.853a3.02 3.02 0 0 1 1.077-1.255c.464-.303 1.004-.454 1.621-.454.356 0 .708.059 1.055.178.348.119.664.311.949.579.285.264.512.614.681 1.05.169.437.254.974.254 1.612v.446h-5.272v-.909h4.203c0-.386-.077-.73-.231-1.033a1.747 1.747 0 0 0-.65-.717 1.823 1.823 0 0 0-.989-.262c-.418 0-.78.104-1.086.311a2.045 2.045 0 0 0-.699.802 2.343 2.343 0 0 0-.245 1.059v.606c0 .517.089.954.267 1.314.181.356.432.627.752.814a2.21 2.21 0 0 0 1.118.276c.276 0 .525-.038.748-.115.226-.08.42-.199.583-.357.164-.16.29-.359.379-.596l1.015.285a2.245 2.245 0 0 1-.539.908c-.252.258-.564.46-.935.606a3.477 3.477 0 0 1-1.251.213ZM272.318 174.016v-9.119h3.082c.715 0 1.3.129 1.754.387.457.255.795.601 1.015 1.038.22.436.33.923.33 1.46 0 .537-.11 1.026-.33 1.465a2.457 2.457 0 0 1-1.006 1.051c-.454.258-1.036.387-1.746.387h-2.208v-.979h2.173c.49 0 .883-.085 1.18-.254.297-.169.512-.398.645-.686.137-.291.205-.619.205-.984s-.068-.692-.205-.98a1.454 1.454 0 0 0-.65-.676c-.3-.167-.697-.25-1.193-.25h-1.941v8.14h-1.105Zm9.83.16a2.78 2.78 0 0 1-1.18-.245 2.02 2.02 0 0 1-.842-.717c-.208-.314-.312-.694-.312-1.14 0-.392.078-.709.232-.953a1.63 1.63 0 0 1 .619-.578 3.22 3.22 0 0 1 .855-.312c.314-.071.63-.128.948-.169.416-.054.753-.094 1.011-.121.261-.029.451-.078.57-.146.121-.069.182-.187.182-.357v-.035c0-.44-.12-.781-.36-1.024-.238-.244-.598-.365-1.082-.365-.502 0-.895.109-1.18.329-.285.22-.486.454-.601.704l-.998-.357c.178-.415.416-.739.713-.97.299-.235.626-.398.979-.49a4.07 4.07 0 0 1 1.051-.143c.22 0 .472.027.757.081.288.05.565.155.833.316.27.16.494.402.672.725.178.324.267.757.267 1.301v4.506h-1.051v-.927h-.053c-.071.149-.19.308-.356.477a2.075 2.075 0 0 1-.664.432c-.276.119-.613.178-1.01.178Zm.16-.944c.415 0 .766-.082 1.051-.245a1.67 1.67 0 0 0 .872-1.447v-.962c-.044.054-.142.103-.294.147-.148.042-.32.079-.516.111a22.671 22.671 0 0 1-1.006.134 4.05 4.05 0 0 0-.766.174 1.315 1.315 0 0 0-.57.351c-.143.155-.214.366-.214.633 0 .365.135.641.405.828.273.184.619.276 1.038.276Zm4.892.784v-6.84h1.015v1.033h.072c.124-.338.35-.613.676-.823a1.993 1.993 0 0 1 1.105-.316c.077 0 .173.001.289.004.116.003.203.007.263.013v1.069a3.285 3.285 0 0 0-.245-.04 2.39 2.39 0 0 0-.396-.031c-.333 0-.63.07-.891.209a1.53 1.53 0 0 0-.837 1.394v4.328H287.2Zm4.665 0v-6.84h1.051v6.84h-1.051Zm.535-7.979a.745.745 0 0 1-.53-.21.669.669 0 0 1-.218-.503.67.67 0 0 1 .218-.503.744.744 0 0 1 .53-.209.73.73 0 0 1 .525.209c.148.14.223.307.223.503a.667.667 0 0 1-.223.503.73.73 0 0 1-.525.21Zm7.285 2.671-.944.267a1.757 1.757 0 0 0-.262-.458 1.274 1.274 0 0 0-.464-.374c-.195-.098-.446-.147-.752-.147-.419 0-.767.096-1.046.289-.276.19-.414.432-.414.726 0 .261.095.467.284.619.19.151.487.277.891.378l1.015.25c.612.148 1.067.375 1.367.681.3.303.45.693.45 1.171 0 .392-.113.742-.339 1.051-.222.308-.534.552-.935.73-.4.178-.866.267-1.398.267-.697 0-1.275-.151-1.732-.454-.457-.303-.746-.745-.868-1.327l.997-.249c.095.368.275.644.539.828.267.184.616.276 1.046.276.49 0 .879-.104 1.167-.312.291-.21.436-.463.436-.757a.795.795 0 0 0-.249-.596c-.166-.164-.421-.285-.766-.365l-1.14-.268c-.626-.148-1.086-.378-1.38-.69-.291-.314-.436-.708-.436-1.18 0-.386.108-.727.325-1.024.219-.297.518-.53.895-.699.38-.169.81-.254 1.291-.254.677 0 1.208.149 1.594.446.389.296.665.688.828 1.175Z" fill="#fff"/><path d="M99.898 75.337s-.578-5.402 2.865-8.443c4.547-4.038 8.279-2.727 8.279-2.727s.079-3.383 4.81-6.005 8.778-.393 8.778-.393-5.02-1.154-8.936 1.914c-4.021 3.147 1.314 5.978-1.288 8.338-2.628 2.413-5.125-3.172-9.461-.813-4.652 2.57-5.047 8.129-5.047 8.129Z" fill="#657377"/><path d="M198.409 191.156c-13.51-.839-20.001-47.407-17.058-82.544 2.944-35.11 9.961-81.364 13.483-82.544 3.522-1.18 7.622 41.56 9.383 55.615 1.761 14.055 13.01 110.653-5.808 109.473Z" fill="#5F750E"/><path d="M198.408 185.886h-3.496v21.081h3.496v-21.081Z" fill="#6B3425"/><path d="M230.917 192.412c-11.775-.735-17.399-41.299-14.85-71.872 2.549-30.574 8.673-70.85 11.748-71.872 3.075-1.023 6.65 36.185 8.174 48.43 1.525 12.245 11.328 96.336-5.072 95.314Z" fill="#5F750E"/><path d="M230.917 187.825h-3.049v18.354h3.049v-18.354Z" fill="#6B3425"/><path d="M163.557 190.997c-12.931-.813-19.107-45.336-16.321-78.899 2.812-33.59 9.54-77.798 12.905-78.9 3.364-1.127 7.28 39.726 8.962 53.177 1.708 13.399 12.432 105.75-5.546 104.622Z" fill="#5F750E"/><path d="M163.531 185.962h-3.338V206.1h3.338v-20.138Z" fill="#6B3425"/><path d="M198.409 191.156c-13.51-.839-20.001-47.407-17.058-82.544 2.944-35.11 9.961-81.364 13.483-82.544 3.522-1.18 7.622 41.56 9.383 55.615 1.761 14.055 13.01 110.653-5.808 109.473Z" fill="#5F750E"/><path d="M198.408 185.886h-3.496v21.081h3.496v-21.081Z" fill="#6B3425"/><path d="m211.492 184.231-98.953-1.783s0 2.544 1.261 3.173c1.262.629 2.786.892 2.655 1.914-.132 1.023-6.308 8.496-11.854 14.972-5.545 6.477-9.093 12.691-9.593 15.366-.5 2.674-.5 3.173-1.524 3.933-.999.76-4.284 2.281-6.308 6.844-2.024 4.562-1.892 5.323-2.155 8.495-.263 3.173-.762 18.277-.762 18.277l217.487 6.083c.132-.394 4.81-26.772 4.416-30.705-.368-3.933-9.225-11.301-22.077-14.474-12.879-3.173-35.85-8.26-36.612-8.496-.762-.236-35.981-23.599-35.981-23.599Z" fill="#0C96FD"/><path d="M84.758 240.317c-.263 3.173-.5 15.104-.5 15.104l217.488 6.083c.106-.315 2.445-12.822 3.312-21.239 0 0-30.908-12.219-48.228-13.189-17.347-.971-41.895 8.574-59.609 7.394-17.714-1.18-40.475-11.275-60.529-11.275-20.053 0-51.934 17.122-51.934 17.122Z" fill="#1D7DCC"/><path d="M111.146 246.295H82.761s-1.13 5.323 0 8.26c1.13 2.911 4.81 6.844 11.853 7.106 7.07.262 207.658.498 207.658.498s2.024-1.783 3.285-6.739c1.262-4.955-.841-11.301-.841-11.301s-1.55 2.78-7.989 3.933c-6.44 1.154-30.409.498-30.409.498l-20.448 10.017-108.047-3.435-26.677-8.837ZM116.454 187.509s-3.154 1.783-5.677 4.432c-2.523 2.648-4.836 8.967-4.836 8.967s12.485-11.799 10.513-13.399Z" fill="#2D2D2D"/><path d="M104.076 212.917c-2.024-1.679-9.856 1.783-10.224 4.431-.368 2.674 6.439 3.173 7.569 2.15 1.13-1.023 4.048-5.454 2.655-6.581Z" fill="#7D009B"/><path d="M135.377 218.345c0 3.645 11.38 3.645 11.38.289 0-4.091-11.38-3.514-11.38-.289Z" fill="#1D7DCC"/><path d="M130.592 219.997h12.221c.21 0 .394-.184.394-.394v-2.255a.404.404 0 0 0-.394-.393h-12.221a.404.404 0 0 0-.394.393v2.255c0 .21.184.394.394.394Z" fill="#878FB3"/><path d="m234.987 205.025-22.839-16.493s-67.021-1.023-73.959-1.023c-10.224 0-16.532 4.432-16.532 9.65 0 5.191 14.009 5.191 23.865 5.191 9.855 0 89.465 2.675 89.465 2.675Z" fill="#2D2D2D"/><path d="M253.412 241.471h-.236v-21.423l-18.267-14.92.158-.183 18.345 14.998v21.528Z" fill="#024168"/><path d="M231.572 203.635c-.053-1.154-1.893-4.3-4.495-4.3-2.602 0-2.575 7.604-.814 8.102 1.787.525 5.44-1.127 5.309-3.802Z" fill="#F1F3F2"/><path d="M168.206 254.922h-.236v-29.971l3.784-21.528.237.027-3.785 21.527v29.945ZM124.259 250.623h-.236v-26.169l4.257-22.996.237.053-4.258 22.97v26.142Z" fill="#024168"/><path d="M286.554 217.005s7.885 5.166 8.91 7.971c.998 2.78 2.26 5.323 2.891 5.454.631.132 7.832.394 7.832.394s.815-6.188-.237-6.896c-1.051-.708-16.426-8.417-19.396-6.923Z" fill="#F1F3F2"/><path d="M288.499 237.643h7.517c.263 0 .5-.21.5-.498v-2.832a.499.499 0 0 0-.5-.498h-7.517a.499.499 0 0 0-.499.498v2.832c0 .288.21.498.499.498Z" fill="#878FB3"/><path d="M185.866 218.345c0 3.645 11.38 3.645 11.38.289 0-4.091-11.38-3.514-11.38-.289Z" fill="#1D7DCC"/><path d="M181.083 219.997h12.222c.21 0 .394-.184.394-.394v-2.255a.404.404 0 0 0-.394-.393h-12.222a.404.404 0 0 0-.394.393v2.255c.026.21.184.394.394.394Z" fill="#878FB3"/><path d="M172.514 187.979h-1.183v15.051h1.183v-15.051ZM128.517 201.51h-.814v-11.983l.814-.367v12.35ZM113.774 261.898a24.317 24.317 0 0 1-.447-4.641c0-13.95 11.327-25.225 25.283-25.225 13.956 0 25.284 11.302 25.284 25.225 0 1.599-.157 3.146-.447 4.641h-49.673Z" fill="#024168"/><path d="M138.611 275.899c11.787 0 21.342-9.532 21.342-21.291s-9.555-21.292-21.342-21.292c-11.786 0-21.341 9.533-21.341 21.292 0 11.759 9.555 21.291 21.341 21.291Z" fill="#000"/><path d="M138.611 268.951c7.94 0 14.377-6.421 14.377-14.342 0-7.922-6.437-14.343-14.377-14.343-7.939 0-14.376 6.421-14.376 14.343 0 7.921 6.437 14.342 14.376 14.342Z" fill="#606060"/><path d="M138.612 264.599c5.531 0 10.014-4.473 10.014-9.99 0-5.518-4.483-9.99-10.014-9.99-5.53 0-10.013 4.472-10.013 9.99 0 5.517 4.483 9.99 10.013 9.99Z" fill="#000"/><path d="M150.78 262.343a12.757 12.757 0 0 1-1.998 2.491 14.089 14.089 0 0 1-2.313 1.862l-19.843-19.876a13.938 13.938 0 0 1 1.866-2.281 16.55 16.55 0 0 1 2.523-1.993l19.765 19.797Z" fill="#A8A9AD"/><path d="M146.653 242.705c.868.577 1.709 1.232 2.471 2.019.71.734 1.314 1.495 1.84 2.334l-20.211 19.508a15.372 15.372 0 0 1-2.261-1.888c-.762-.786-1.393-1.652-1.945-2.543l20.106-19.43Z" fill="#A8A9AD"/><path d="M228.627 261.898a24.398 24.398 0 0 1-.447-4.641c0-13.95 11.328-25.225 25.284-25.225s25.284 11.302 25.284 25.225c0 1.599-.158 3.146-.447 4.641h-49.674Z" fill="#024168"/><path d="M253.463 275.899c11.786 0 21.341-9.532 21.341-21.291s-9.555-21.292-21.341-21.292c-11.787 0-21.342 9.533-21.342 21.292 0 11.759 9.555 21.291 21.342 21.291Z" fill="#000"/><path d="M253.463 268.951c7.94 0 14.376-6.421 14.376-14.342 0-7.922-6.436-14.343-14.376-14.343-7.94 0-14.377 6.421-14.377 14.343 0 7.921 6.437 14.342 14.377 14.342Z" fill="#606060"/><path d="M253.464 264.599c5.53 0 10.013-4.473 10.013-9.99 0-5.518-4.483-9.99-10.013-9.99-5.531 0-10.014 4.472-10.014 9.99 0 5.517 4.483 9.99 10.014 9.99Z" fill="#000"/><path d="M265.631 262.343a12.757 12.757 0 0 1-1.998 2.491 14.082 14.082 0 0 1-2.312 1.862l-19.844-19.876a13.99 13.99 0 0 1 1.866-2.281 16.6 16.6 0 0 1 2.523-1.993l19.765 19.797Z" fill="#A8A9AD"/><path d="M261.505 242.705c.867.577 1.708 1.232 2.47 2.019.71.734 1.314 1.495 1.84 2.334l-20.211 19.508a15.313 15.313 0 0 1-2.26-1.888c-.763-.786-1.393-1.652-1.945-2.543l20.106-19.43Z" fill="#A8A9AD"/><path d="M203.343 180.507s-3.338-1.337-6.334 1.416c-1.998 1.862-1.341 6.975-.184 8.575 1.156 1.573 5.572 4.038 5.572 4.038s12.536-13.111.946-14.029Z" fill="#A5713D"/><path d="M204.997 197.421c-1.998.367-4.337.97-5.441 1.993-1.34 1.232-.657 4.851 6.045 3.933 6.676-.891 5.914-3.933 5.073-4.746-1.236-1.127-4.153-1.442-5.677-1.18Z" fill="#F69576"/><path d="m206.809 192.806 2.786 8.05-7.832 1.415s-.21-3.356-.158-5.558c.053-2.203.289-3.016.289-3.016l4.915-.891Z" fill="#F69576"/><path d="M203.815 195.69s.21 1.547 1.34 2.019c1.13.472 3.391.079 3.391.079l-1.735-4.982-3.312.603c.027 0 .027 1.337.316 2.281Z" fill="#DD866F"/><path d="M206.101 182.579s1.13.629 1.892 2.36c.579 1.337.789 2.832 1.104 3.645.316.812.841 2.097.815 3.303-.026 1.207-.762 2.99-2.602 3.855-1.813.891-3.469.787-4.757-.367-1.288-1.154-3.049-3.304-3.732-4.877-.684-1.574-1.472-4.668.052-6.372 1.972-2.176 4.652-2.675 7.228-1.547Z" fill="#F69576"/><path d="M204.315 192.543s.394 1.102 1.104 1.207c.709.105 1.366-.157 1.603-.603.236-.446.263-1.181.263-1.181l-2.97.577Z" fill="#fff"/><path d="M205.733 190.997c-.052 0-.105 0-.131-.026-.105-.053-.132-.184-.132-.263v-.026a.366.366 0 0 0-.078.105c-.053.079-.106.105-.184.105-.106 0-.211-.105-.263-.236-.079-.236.052-.656.079-.682 0-.026.052-.053.078-.053.027 0 .053.053.053.079-.053.105-.131.446-.079.603.053.105.105.158.132.158.026 0 .052-.026.078-.053.079-.131.132-.183.211-.183.026 0 .078 0 .105.026.026.026.026.052.052.105 0 .052.027.157.079.157h.079c.079-.026.079-.105.053-.236-.027-.079-.027-.131 0-.157.026-.026.026-.026.078-.026.053 0 .106.026.132.052.105.052.131.052.184 0 .026-.026.026-.079 0-.157-.053-.184-.21-.42-.316-.473-.026-.026-.052-.052-.026-.078.026-.026.053-.053.079-.026.158.078.342.341.394.577.027.105.027.21-.026.262-.105.157-.263.079-.342.052 0 0-.026 0-.026-.026v.026c.026.105.079.315-.131.394h-.132Z" fill="#6B3425"/><path d="M195.693 189.815c.315-1.573 4.888-1.022 4.573 1.836-.316 2.91-5.046.498-4.573-1.836Z" fill="#F69576"/><path d="M199.53 192.124h-.053c-.026-.026-.052-.052-.026-.079.131-.236.079-.839-.263-1.416-.236-.394-.762-1.049-1.735-.997-.499.026-.841.184-.998.446-.237.393 0 .918 0 .918.026.026 0 .079-.027.079-.026.026-.078 0-.078-.026 0-.027-.263-.578 0-1.023.184-.315.552-.473 1.103-.499.736-.052 1.42.341 1.84 1.076.342.577.447 1.259.263 1.547 0-.026-.026-.026-.026-.026Z" fill="#6B3425"/><path d="M197.926 192.177c-.026 0-.053 0-.079-.026-.026-.053-.736-1.154-.263-2.597 0-.026.053-.053.079-.053.026 0 .053.053.053.079a3.188 3.188 0 0 0 .236 2.492c.026.026.026.079-.026.105ZM203.432 190.128c.128-.023.194-.25.148-.507-.047-.256-.189-.446-.317-.422-.129.023-.195.25-.149.506.047.257.189.446.318.423ZM202.001 188.583c.158-.184.499-.446.893-.577.421-.131.71.026.894.026.184 0 .158-.236.026-.42-.131-.183-.525-.262-1.104-.131-.578.131-.867.446-.998.656-.132.236.079.708.289.446ZM207.056 189.339c.129-.023.195-.25.149-.506-.047-.257-.189-.446-.318-.423-.128.023-.195.25-.148.507.047.256.189.446.317.422ZM205.838 187.718c.158-.184.499-.446.894-.577.42-.131.709.026.893.026.184 0 .158-.236.027-.419-.132-.184-.526-.263-1.104-.132-.579.132-.868.446-.999.656-.131.21.079.708.289.446ZM208.441 193.225l-.289.131s-.368 1.233-.815 1.547c-.447.315-2.024.525-2.234.394-.21-.132-.972-1.285-.972-1.285l-.368.157s.893 1.704 1.025 1.862c.078.078 1.235.603 1.655.577.421-.053 1.682-1.075 1.709-1.233.131-.55.289-2.15.289-2.15Z" fill="#6B3425"/><path d="m206.757 194.247-.71.105.211 1.232.552.027-.053-1.364Z" fill="#6B3425"/><path d="M198.165 182.238s2.182 2.674 6.781 2.097c9.593-1.18 4.284-5.69 4.284-5.69s.605 1.338-1.025 1.731c-2.234.498-6.702-5.69-10.04 1.862Z" fill="#A5713D"/></svg>