<svg width="375" height="308" fill="none" xmlns="http://www.w3.org/2000/svg"><path d="M169.758 54.407c18.162 3.436 52.381-66.707 90.255-51.23 37.873 15.476 10.039 65.343 23.549 76.517C297.071 90.87 334.077 56.48 349.636 92.6c15.559 36.121-8.095 74.813-8.437 80.82-.342 6.007 42.657 38.298 30.724 82.761-11.932 44.463-170.389 48.765-226.949 50.47-56.56 1.705-132.175 1.574-143.318-44.778-11.144-46.351 39.476-86.722 44.154-99.68 4.678-12.959-37.663-58.051 15.428-113.478 41.079-42.89 90.359 2.256 108.52 5.692Z" fill="#9ECBDD"/><path d="M123.502 190.943c.631-.157 1.288-.21 1.919-.262 7.674-.735 15.323-1.495 22.997-2.177.92-.079 1.104-.394 1.078-1.233-.053-1.574-.027-3.122-.027-4.722h5.362c.026.341.053.603.053.892.026.289.052.551.052.813 1.866.289 1.866.289 1.866-1.443v-25.838c.71-.026 1.236-.052 1.761-.078.053-.42.079-.735.105-1.076.289-.026.552-.079.789-.079 1.997 0 1.997 0 2.628-1.888.158-.473.368-.682.867-.656.736.052 1.446 0 2.287 0v-10.519c.604-.026 1.104-.053 1.656-.079a39.79 39.79 0 0 1 .184-1.679h2.891v-2.806h1.524v23.451c.578.026 1.051.078 1.577.105v1.495h2.786c.105.367.184.629.263.866.578.026 1.077.052 1.682.078v5.588c.71 0 1.34.052 1.945-.027.709-.078 1.104.184 1.445.787.158.289.631.472.973.525.525.079 1.104 0 1.629.026.184 0 .395.131.579.21.289.131.525.315.814.393.289.079.631.053 1.025.079v11.988h3.338v-4.328h5.362v4.197c1.813-.105 1.971-.262 1.971-1.836v-8.552h5.861v3.987c0 1.364.237 1.601 1.761 1.758v-6.112a58.306 58.306 0 0 1-.815-.157v-1.26h1.682c.079-.131.132-.157.132-.157.026-3.305.026-6.61.026-9.942 0-.157-.105-.446-.184-.472-.946-.184-.394-.813-.473-1.285.499-.053.894-.079 1.419-.131v-2.991c.447-.052.789-.105 1.13-.131.053-.367.105-.656.158-.971h1.051c.079.368.132.682.184.971h2.707c.053-.394.106-.682.184-1.023.395.026.71.026 1.052.052.052.368.105.656.184.997h2.68c.053-.367.106-.682.184-1.023.395.026.736.026 1.025.053.079.419.158.708.211.996h2.26c.053-.367.105-.682.131-.944h1.052c.079.367.131.682.184.971h2.523c.026-.341.079-.656.105-.997h1.078c.078.367.157.682.236.997h2.208c.052-.341.105-.656.131-.997h1.078c.052.367.105.656.158.97h2.707c.078-.367.131-.682.184-.97h1.025c.052.341.105.656.157.997h2.734c.026-.368.079-.656.105-.997h1.104c.052.341.105.656.157.997.368.026.71.078 1.157.105v3.016c.499.053.92.079 1.393.131-.132.525.289 1.155-.578 1.312-.079.026-.132.393-.132.603-.026.709 0 1.417 0 2.125v7.765c.683.052 1.262.078 1.892.105v1.18c-.315.052-.551.105-.867.157 0 .997-.052 1.968.026 2.912.027.472.316.944.5 1.39.105-.026.236-.052.341-.078v5.902c.447.052.868.105 1.367.157v2.072c.815-.314 1.157-.734 1.13-1.547-.079-1.364-.026-2.755-.026-4.171h3.522v8.368h1.235v-5.404h2.786c0 .918-.026 1.784.026 2.65 0 .236.132.577.316.682.683.367 1.419.682 2.313 1.075v-5.141h4.993c0 .472-.052.892.027 1.311.026.263.184.656.341.682.894.21.841.84.815 1.495-.026.42 0 .814 0 1.26h2.549v-1.889h2.445v1.836c.709.053.946-.21.92-.839-.053-1.259 0-2.545 0-3.804h2.68c0 .656-.026 1.233.027 1.784.026.236.184.629.341.682.92.21.868.866.841 1.574-.026.315 0 .629 0 .944.316-.131.395-.236.5-.393 3.495-5.325 7.017-10.624 10.513-15.949.525-.787 1.051-1.548 1.524-2.335.5-.839.237-1.836-.368-2.518-.236-.262-.157-.813-.21-1.233.394-.105.683-.157.946-.236v-2.99c-.289-.079-.526-.158-.788-.21.92-.184 1.813-.21 2.707-.158.499.027.841-.105 1.051-.603.421-.944.92-1.836 1.314-2.781 2.024-4.8 3.259-9.81 4.389-14.873.184-.813.027-1.495-.604-1.836-1.183-.656-.552-1.6-.683-2.466.604-.026 1.077-.052 1.55-.079l-.158-.236c.29-.288.579-.577.842-.892.131-.183.236-.445.262-.708 1.341-7.581 2.392-15.188 2.734-22.874.394-8.446.578-16.893.762-25.366.105-4.013.026-8.027.026-12.04-.893-.367-1.051-1.05-.683-3.043l1.761-.079c-1.84-.813-.92-2.334-1.13-3.331.394-.289.657-.472.893-.682.421-.341.762-.813 1.235-1.076.552-.288.658-.656.658-1.233a529.282 529.282 0 0 1 0-9.26c0-.288.131-.576.21-.839l.394.079v1.023c0 3.017 0 6.06.026 9.076 0 .315.158.735.395.97.499.525 1.077.998 1.629 1.47.21.157.499.21.789.34-.158 1.181.604 2.65-1.078 3.463.578.053 1.156.079 1.787.131.026.341.053.578.053.84 0 .472.026.97-.027 1.443-.026.183-.183.34-.289.524-.157.289-.473.577-.473.866-.026 14.952-.21 29.93 1.393 44.83.316 2.833.605 5.692 1.104 8.525.473 2.728.237 5.666 2.076 8.106.395.026.868.052 1.42.078v1.968c-.368.262-.657.419-.92.629-.867.656-.447 1.495-.263 2.282 1.262 5.693 2.707 11.306 5.283 16.579.394.787.815 1.207 1.734 1.102.71-.079 1.42-.027 2.129 0 .053 0 .105.105.211.183-.316.079-.579.158-.815.21v2.964c.315.079.604.158.92.263v.996c-.289.263-.736.499-.736.682.079.84.052 1.81.473 2.466 2.812 4.381 5.703 8.709 8.568 13.064 1.025 1.547 2.024 3.095 3.049 4.616.21-.341.263-.629.184-.892m-12.537 2.729c-.289-.656-.526-1.26-.815-1.81-1.445-3.017-3.127-5.903-5.519-8.316-5.966-6.007-14.902-5.85-20.658.341-2.55 2.754-4.31 5.981-5.809 9.365-.052.105-.052.236-.078.42h32.879Zm-88.414 0c.026-.263.105-.499.105-.761 0-4.722.026-9.444-.027-14.192-.026-2.334-1.655-4.144-3.837-4.328-2.391-.21-4.625 1.574-4.678 3.961-.079 4.984-.026 9.968-.026 14.952 0 .079.052.184.105.341 2.812.027 5.545.027 8.358.027Zm77.007-27.36a5494.295 5494.295 0 0 0-2.943-18.651h-4.258a5254.792 5254.792 0 0 1-2.944 18.651h10.145Zm-7.043-23.714h3.942c-.657-4.931-1.314-9.836-1.971-14.768-.631 4.905-1.288 9.811-1.971 14.768Z" fill="#749DC1"/><path d="M167.235 84.495s-3.259-6.296 4.153-7.004c-.763-5.01 6.491-12.565 19.081-9.338 2.129-5.457 14.14-15.084 22.498-3.358 15.927-6.663 18.187 2.938 16.058 4.67 12.353-2.23 10.171 6.216 8.095 7.16 16.348-3.488 14.088 7.87 14.088 7.87h-83.973ZM50.488 116.288s-1.367-3.489 1.734-3.883c-.315-2.754 2.708-6.951 7.964-5.167.894-3.017 5.914-8.342 9.383-1.863 6.65-3.698 7.596 1.627 6.702 2.571 5.151-1.233 4.258 3.436 3.364 3.961 6.834-1.941 5.887 4.354 5.887 4.354H50.488v.027Z" fill="#fff"/><path d="M1.708 261.847c11.144 46.352 86.785 46.509 143.319 44.778 56.533-1.731 214.991-6.007 226.949-50.47 8.121-30.245-9.172-54.877-20.973-69.409H27.229c-15.087 19.097-32.564 45.906-25.52 75.101Z" fill="#3D3B38"/><path d="M352.947 190.76a100.286 100.286 0 0 0-1.971-2.439H27.228c-.63.813-1.262 1.626-1.919 2.439h327.638Z" fill="#fff"/><path d="M12.588 207.785c-9.25 15.87-15.638 34.442-10.907 54.063C12.825 308.199 88.466 308.357 145 306.626c56.533-1.732 214.991-6.007 226.949-50.47 4.994-18.598.368-35.072-6.649-48.371H12.588Z" fill="#8A9995"/><path d="M128.443 66.92h-50.62v119.328h50.62V66.92Z" fill="#BC6A4D"/><path d="M128.154 66.92H77.823v22.35h50.331V66.92Z" fill="#42382C"/><path d="M129.889 179.271H75.93v8.132h53.959v-8.132ZM80.162 63.877h-2.34v25.392h2.34V63.876ZM128.417 63.877h-2.339v25.392h2.339V63.876Z" fill="#494136"/><path d="M128.154 86.831H77.823v2.466h50.331V86.83Z" fill="#494136"/><path d="M114.75 59.392h-4.073v15.53h4.073v-15.53ZM120.874 59.392h-4.073v15.53h4.073v-15.53Z" fill="#DD7858"/><path d="M89.886 110.78h-5.808V98.451c0-1.6 1.314-2.911 2.918-2.911a2.925 2.925 0 0 1 2.917 2.911v12.329h-.026ZM100.347 110.78h-5.809V98.451c0-1.6 1.314-2.911 2.918-2.911a2.925 2.925 0 0 1 2.917 2.911v12.329h-.026ZM110.834 110.78h-5.808V98.451c0-1.6 1.314-2.911 2.917-2.911a2.925 2.925 0 0 1 2.918 2.911v12.329h-.027ZM121.295 110.78h-5.809V98.451c0-1.6 1.314-2.911 2.917-2.911a2.925 2.925 0 0 1 2.918 2.911v12.329h-.026ZM89.887 133.417h-5.809v-12.329c0-1.6 1.314-2.912 2.918-2.912a2.925 2.925 0 0 1 2.917 2.912v12.329h-.026ZM100.347 133.417h-5.809v-12.329c0-1.6 1.315-2.912 2.918-2.912a2.925 2.925 0 0 1 2.917 2.912v12.329h-.026ZM110.835 133.417h-5.809v-12.329c0-1.6 1.314-2.912 2.917-2.912a2.925 2.925 0 0 1 2.918 2.912v12.329h-.026ZM121.295 133.417h-5.809v-12.329c0-1.6 1.314-2.912 2.918-2.912a2.925 2.925 0 0 1 2.917 2.912v12.329h-.026ZM89.887 156.921h-5.809v-12.329c0-1.6 1.314-2.912 2.918-2.912a2.925 2.925 0 0 1 2.917 2.912v12.329h-.026ZM100.347 156.921h-5.809v-12.329c0-1.6 1.315-2.912 2.918-2.912a2.925 2.925 0 0 1 2.917 2.912v12.329h-.026ZM110.835 156.921h-5.809v-12.329c0-1.6 1.314-2.912 2.917-2.912a2.925 2.925 0 0 1 2.918 2.912v12.329h-.026ZM121.295 156.921h-5.809v-12.329c0-1.6 1.314-2.912 2.918-2.912a2.925 2.925 0 0 1 2.917 2.912v12.329h-.026ZM89.861 163.743h-5.808v12.329h5.808v-12.329ZM100.349 163.743H94.54v12.329h5.809v-12.329ZM110.809 163.743h-5.808v12.329h5.808v-12.329ZM121.295 163.743h-5.808v12.329h5.808v-12.329Z" fill="#407889"/><path d="M192.414 110.044h-50.752v77.358h50.752v-77.358Z" fill="#9B9B9B"/><path d="M193.702 179.271h-53.511v8.132h53.511v-8.132Z" fill="#63594C"/><path d="M185.581 164.923h-38.109v11.175h38.109v-11.175Z" fill="#fff"/><path d="M188.63 161.275h-44.076v10.021h44.076v-10.021Z" fill="#FFA539"/><path d="M193.728 107.003h-54.247v6.375h54.247v-6.375ZM193.702 136.619h-53.511v1.889h53.511v-1.889Z" fill="#63594C"/><path d="M146.762 173.526a2.205 2.205 0 1 0 0-4.407c-1.22 0-2.208.987-2.208 2.204s.988 2.203 2.208 2.203Z" fill="#FFA539"/><path d="M151.177 173.579a2.205 2.205 0 1 0 0-4.407c-1.22 0-2.208.987-2.208 2.204s.988 2.203 2.208 2.203Z" fill="#FFA539"/><path d="M155.566 173.551a2.206 2.206 0 0 0 2.208-2.203 2.206 2.206 0 0 0-2.208-2.203 2.206 2.206 0 0 0-2.208 2.203c0 1.217.989 2.203 2.208 2.203ZM159.983 173.605a2.205 2.205 0 1 0 0-4.407c-1.22 0-2.208.986-2.208 2.203 0 1.217.988 2.204 2.208 2.204Z" fill="#FFA539"/><path d="M164.372 173.551a2.206 2.206 0 0 0 2.208-2.203 2.206 2.206 0 0 0-2.208-2.203c-1.22 0-2.208.986-2.208 2.203 0 1.217.988 2.203 2.208 2.203Z" fill="#FFA539"/><path d="M168.787 173.605a2.205 2.205 0 1 0 0-4.407c-1.22 0-2.208.986-2.208 2.203 0 1.217.988 2.204 2.208 2.204Z" fill="#FFA539"/><path d="M173.176 173.579a2.205 2.205 0 1 0 0-4.407c-1.22 0-2.208.987-2.208 2.204s.988 2.203 2.208 2.203Z" fill="#FFA539"/><path d="M177.59 173.63c1.22 0 2.208-.986 2.208-2.203a2.206 2.206 0 0 0-2.208-2.204 2.205 2.205 0 1 0 0 4.407Z" fill="#FFA539"/><path d="M181.979 173.605c1.22 0 2.208-.987 2.208-2.204a2.205 2.205 0 0 0-2.208-2.203 2.205 2.205 0 1 0 0 4.407Z" fill="#FFA539"/><path d="M186.396 173.657c1.22 0 2.208-.986 2.208-2.203a2.206 2.206 0 0 0-2.208-2.204 2.205 2.205 0 1 0 0 4.407Z" fill="#FFA539"/><path d="M153.595 133.417h-5.809v-12.329c0-1.6 1.314-2.912 2.917-2.912a2.925 2.925 0 0 1 2.918 2.912v12.329h-.026ZM164.055 133.417h-5.809v-12.329c0-1.6 1.314-2.912 2.918-2.912a2.925 2.925 0 0 1 2.917 2.912v12.329h-.026ZM174.515 133.417h-5.809v-12.329c0-1.6 1.315-2.912 2.918-2.912a2.925 2.925 0 0 1 2.917 2.912v12.329h-.026ZM185.003 133.417h-5.809v-12.329c0-1.6 1.314-2.912 2.918-2.912a2.925 2.925 0 0 1 2.917 2.912v12.329h-.026ZM153.595 157.787h-5.809v-12.328a2.924 2.924 0 0 1 2.917-2.912 2.925 2.925 0 0 1 2.918 2.912v12.328h-.026ZM164.055 157.787h-5.809v-12.328a2.925 2.925 0 0 1 2.918-2.912 2.924 2.924 0 0 1 2.917 2.912v12.328h-.026ZM174.515 157.787h-5.809v-12.328a2.925 2.925 0 0 1 2.918-2.912 2.924 2.924 0 0 1 2.917 2.912v12.328h-.026ZM185.003 157.787h-5.809v-12.328a2.925 2.925 0 0 1 2.918-2.912 2.924 2.924 0 0 1 2.917 2.912v12.328h-.026Z" fill="#407889"/><path d="M282.011 204.872h-19.869v22.035h-16.873v22.034h-19.87v22.035h-21.394v22.035h-19.87v12.171c69.859-3.174 178.012-12.644 187.815-49.079 8.91-33.157-12.747-59.546-24.18-73.318h-65.759v22.087Z" fill="#606060"/><path d="M293.839 148.735h-2.497v34.102h2.497v-34.102Z" fill="#6B3425"/><path d="M289.37 146.428h61.527l-1.314 3.489H289.37v-3.489Z" fill="#6B3425"/><path d="M311.447 148.159h-3.416v35.177h3.416v-35.177ZM332.211 148.789h-2.891v34.048h2.891v-34.048ZM57.742 185.934h-2.68v1.548h2.68v-1.548Z" fill="#6B3425"/><path d="M60.37 182.445h3.417l-.999-4.276-2.418-.918h2.208l-.263-1.102-3.89-.288 3.654-.735-.526-2.177-3.127-.997s1.708-.105 2.864-.157l-1.55-6.637-2.55-.21 2.445-.262-3.207-13.641-1.892 8.054h1.182l-1.34.708-.605 2.544h2.182l-2.313.551-.21.892h1.209l-1.314.42-1.262 5.351 3.023.63-3.312.682-1.051 4.328h3.154l-3.443 1.338-1.052 4.459c1.656.236 4.074.577 4.074.577l-4.337.603-.893 3.752h16.4l-.5-2.099-3.758-1.39Z" fill="#7EA21A"/><path d="M125.183 208.073h-2.681a4.807 4.807 0 0 1-4.809-4.8V183.73c0-2.649 2.155-4.8 4.809-4.8h2.681a4.807 4.807 0 0 1 4.81 4.8v19.516a4.813 4.813 0 0 1-4.81 4.827ZM199.852 208.073h-2.681a4.807 4.807 0 0 1-4.809-4.8V183.73c0-2.649 2.155-4.8 4.809-4.8h2.681a4.807 4.807 0 0 1 4.81 4.8v19.516a4.813 4.813 0 0 1-4.81 4.827Z" fill="#000"/><path d="M132.778 146.56c.631-1.994 2.681-2.886 5.073-3.384 2.392-.498 17.688-.997 23.365-1.102 5.677-.105 21.683 1.102 24.259 1.286 2.576.21 3.679 1.679 4.363 3.174.683 1.495 8.647 17.863 9.54 18.939.894 1.102 3.18 4.171 3.391 5.168.21.996 1.997 4.774 1.892 5.167-.105.394 0 21.825 0 21.825l-86.89 1.285s-.21-17.654 0-21.929c.21-4.276 3.969-9.339 5.861-11.91 1.892-2.57 8.463-16.342 9.146-18.519Z" fill="#1D7DCC"/><path d="M123.633 165.105h-3.89a2.88 2.88 0 0 1-2.891-2.886 2.88 2.88 0 0 1 2.891-2.885h.998a2.88 2.88 0 0 1 2.892 2.885v2.886Z" fill="#D2D3D5"/><path d="m135.17 148.135-3.469 12.906h59.057l-3.18-12.906c-.027 0-29.752-6.846-52.408 0Z" fill="#3B3B3B"/><path d="m131.701 161.04 2.602 18.388a2.402 2.402 0 0 0 2.365 2.073h49.122a2.383 2.383 0 0 0 2.366-2.073l2.602-18.388h-59.057Z" fill="#0C96FD"/><path d="M174.331 171.245h-26.046v6.847h26.046v-6.847Z" fill="#fff"/><path d="m132.121 164.082 1.498 10.597h-9.987v-5.299s1.577-4.8 8.489-5.298Z" fill="#7D009B"/><path d="M199.037 165.105h3.863a2.88 2.88 0 0 0 2.891-2.886 2.88 2.88 0 0 0-2.891-2.885h-.999a2.88 2.88 0 0 0-2.891 2.885v2.886h.027Z" fill="#D2D3D5"/><path d="m190.547 164.082-1.498 10.597h9.987v-5.299s-1.576-4.8-8.489-5.298Z" fill="#7D009B"/><path d="M88.178 90.108s-5.125-3.253-10.907.446c-3.864 2.465-4.337 11.201-2.918 14.165 1.446 2.964 8.016 8.368 8.016 8.368s24.785-17.969 5.809-22.98Z" fill="#A5713D"/><path d="m104.684 141.443.079 12.775s15.27.183 16.269-.079c.999-.236 5.914-4.145 6.439-4.354.526-.21.999 0 .815.603-.184.603-.946 2.466-.946 2.466s3.732-.42 4.074-.63c.341-.21 2.575-1.941 3.049-2.072.473-.158 1.235.157 1.051.629-.21.473-2.313 3.201-2.313 3.201s.42 2.911-.683 3.987c-1.104 1.075-6.308 1.941-8.831 2.098-2.523.158-21.631 2.597-23.234 2.519-1.603-.079-3.916-.578-4.73-3.988-.816-3.41-1.079-16.526-1.079-16.526l10.04-.629Z" fill="#DD866F"/><path d="M75.615 261.951v20.094H58.822s-2.392-4.014 0-5.116c2.392-1.101 10.198-4.931 10.198-4.931l-.29-10.047h6.886Z" fill="#F69576"/><path d="M75.615 271.999v10.047H58.822s-2.392-4.014 0-5.115c2.392-1.102 10.198-4.932 10.198-4.932h6.596Z" fill="#032240"/><path d="M75.615 280.025v2.02H58.821s-.552-.945-.868-2.02h17.662Z" fill="#BFBFBF"/><path d="m89.441 261.952-.157 10.047s8.804 1.652 11.143 2.361c2.812.865 6.072 1.652 6.518 4.38.395 2.361 0 3.279 0 3.279H79.717l2.97-20.093h6.754v.026Z" fill="#F69576"/><path d="M89.284 272s8.804 1.652 11.143 2.361c2.812.865 6.072 1.652 6.518 4.38.395 2.361 0 3.279 0 3.279H79.717l1.051-10.046h8.516V272Z" fill="#BFBFBF"/><path d="M106.943 278.767c.079.472.132.892.158 1.259H79.925l.84-8.027h8.516s8.805 1.653 11.144 2.361c2.786.892 6.045 1.652 6.518 4.407Z" fill="#032240"/><path d="M101.661 170.955s.946 9.889 0 26.362c-.947 16.474-4.968 32.265-5.415 34.154-.473 1.889-6.36 33.445-6.36 33.445h-9.199s5.178-42.626 5.65-55.558c.474-12.959-1.655-37.197-1.655-37.197l16.979-1.206Z" fill="#254B6B"/><path d="M67.94 172.135h19.58s1.525 39.138 0 40.974c-1.524 1.81-6.123 9.181-6.833 14.847s-2.628 36.934-2.628 36.934H67.94v-92.755Z" fill="#254B6B"/><path d="M82.476 119.461c9.75-.21 12.904 1.259 14.954 5.797 2.05 4.565 7.228 44.594 7.701 52.752.473 8.158-1.104 13.037-12.274 13.037-11.17 0-26.414-9.102-26.414-9.102s-.63 2.833-1.104 4.564c-.473 1.732-5.177 3.62-5.177.63s2.05-49.762 2.365-57.605c.29-7.869 12.563-9.915 19.949-10.073Z" fill="#000"/><path d="M92.857 122.137c3.837-.997 7.385-.944 10.224 4.722 2.838 5.64 5.019 23.241 5.019 23.241l-13.036 5.142s-12.431-30.455-2.207-33.105Z" fill="#000"/><path d="M85.839 118.649c-3.443 0-7.517.315-9.62 1.679-2.575 1.652-2.549 7.843 8.831 8.368 11.355.524 10.987-4.775 9.83-6.348-1.682-2.256-6.413-3.673-9.041-3.699Z" fill="#F69576"/><path d="m90.254 111.566 2.208 14.192H79.058s.657-5.64 1.393-9.286c.762-3.646 1.393-4.906 1.393-4.906h8.41Z" fill="#F69576"/><path d="M84.42 115.423s-.105 2.623 1.63 3.751c1.734 1.155 5.572 1.155 5.572 1.155l-1.367-8.788h-5.65c0 .026-.395 2.23-.185 3.882Z" fill="#DD866F"/><path d="M92.172 94.359s1.709 1.39 2.445 4.485c.578 2.387.446 4.932.736 6.375.289 1.442.762 3.724.368 5.718-.395 1.994-2.182 4.722-5.467 5.64-3.286.918-5.966.262-7.78-2.02-1.813-2.282-4.047-6.374-4.73-9.207-.658-2.833-1.026-8.21 1.997-10.572 3.863-3.043 8.489-3.069 12.431-.42Z" fill="#F69576"/><path d="M86.208 110.359s.315 1.941 1.446 2.335c1.156.393 2.313.131 2.838-.499.526-.629.789-1.862.789-1.862l-5.073.026Z" fill="#fff"/><path d="M89.019 108.236a.429.429 0 0 1-.237-.079c-.131-.105-.157-.315-.157-.472v-.053c-.027.027-.08.053-.184.158-.106.105-.237.157-.368.105-.184-.053-.316-.21-.342-.446-.079-.394.29-1.05.315-1.128.027-.053.105-.079.158-.053.053.027.079.105.053.158-.106.183-.368.708-.29.97.027.184.132.263.184.289.053.026.106-.026.132-.053.158-.183.289-.262.394-.236.053 0 .105.026.132.105.026.053.026.105.026.184 0 .105 0 .262.079.315.026.026.079.026.157.026.158-.026.184-.131.158-.394 0-.131 0-.21.053-.262.026-.026.079-.052.131-.026.079 0 .158.052.237.105.131.105.21.131.289.052.052-.052.052-.131.052-.236-.026-.341-.236-.787-.394-.892-.052-.026-.052-.105-.026-.157.026-.053.105-.053.157-.026.237.157.474.682.5 1.049 0 .183-.026.341-.132.42-.236.236-.446.078-.578-.027-.026 0-.026-.026-.052-.026v.053c0 .183.026.55-.342.603-.053-.026-.079-.026-.105-.026Z" fill="#6B3425"/><path d="M72.698 103.251c1.025-2.518 8.41-.236 7.044 4.407-1.393 4.748-8.542-.682-7.044-4.407Z" fill="#F69576"/><path d="M78.374 108.236c-.026 0-.053 0-.08-.026-.052-.052-.052-.105 0-.157.316-.341.369-1.391-.025-2.414-.263-.734-.947-1.967-2.55-2.177-.84-.105-1.445.026-1.787.42-.5.577-.263 1.521-.263 1.521.026.053-.026.131-.079.131-.052.027-.131-.026-.131-.078 0-.053-.263-1.049.315-1.732.395-.445 1.052-.603 1.998-.498 1.261.157 2.26.997 2.733 2.308.394 1.05.368 2.204-.026 2.65-.053.026-.079.052-.105.052Z" fill="#6B3425"/><path d="M75.72 107.815c-.053 0-.08-.026-.106-.078-.026-.079-.867-2.125.368-4.407.027-.053.106-.079.158-.053.053.027.079.105.053.158-1.183 2.177-.368 4.197-.342 4.197.026.052 0 .131-.053.157-.052.026-.079.026-.079.026ZM85.42 106.084c.217 0 .394-.364.394-.813 0-.449-.177-.813-.394-.813-.218 0-.395.364-.395.813 0 .449.177.813.394.813ZM83.553 103.093c.316-.263.973-.604 1.63-.682.736-.079 1.156.262 1.445.341.29.078.342-.341.184-.682-.157-.341-.788-.604-1.787-.577-.999.026-1.577.498-1.84.786-.289.341-.079 1.181.368.814ZM91.673 105.874c.218 0 .394-.364.394-.813 0-.449-.176-.813-.394-.813-.218 0-.394.364-.394.813 0 .449.176.813.394.813ZM90.177 102.805c.315-.263.972-.604 1.629-.682.736-.079 1.157.262 1.446.341.289.078.341-.341.184-.682-.158-.341-.789-.604-1.788-.578-1.025.027-1.577.499-1.84.787-.262.315-.052 1.181.368.814ZM92.83 112.721l-.499.131s-.999 1.941-1.813 2.309c-.815.367-3.522.236-3.811 0-.29-.236-1.236-2.414-1.236-2.414l-.63.158s.972 3.095 1.13 3.384c.078.157 1.892 1.39 2.575 1.442.71.053 3.102-1.259 3.233-1.547.316-.866 1.051-3.463 1.051-3.463Z" fill="#6B3425"/><path d="m89.728 113.954-1.209-.052-.026 2.098.92.184.315-2.23Z" fill="#6B3425"/><path opacity=".4" d="m65.917 130.689 3.022 17.025-5.414 1.652 2.392-18.677Z" fill="#254B6B"/><path d="M79.059 91.42s2.812 5.089 10.618 5.535c16.269.944 8.804-8.184 8.804-8.184s.579 2.413-2.234 2.544c-3.784.184-9.33-11.437-17.188.105Z" fill="#A5713D"/><path d="M108.888 149.262c-1.235-1.181-2.024-1.837-2.418-2.755-.394-.918-.263-2.544-.263-2.544h-3.364s.132 1.626-.263 2.544c-.394.918-1.182 1.6-2.418 2.755-1.235 1.154-.946 2.465-.972 3.095-.026.656.131 26.127.131 26.127h10.408s.158-25.497.132-26.127c-.027-.63.262-1.915-.973-3.095Z" fill="#000"/><path d="M106.549 135.831h-4.048v2.833h4.048v-2.833Z" fill="#512176"/><path d="M106.261 137.616h-3.443v7.345h3.443v-7.345Z" fill="#512176"/><path d="M108.074 156.028h-7.07v9.654h7.07v-9.654Z" fill="#fff"/><path d="M120.111 149.262c-1.236-1.181-2.024-1.837-2.418-2.755-.395-.918-.263-2.544-.263-2.544h-3.364s.131 1.626-.263 2.544c-.394.918-1.183 1.6-2.418 2.755-1.235 1.154-.946 2.465-.973 3.095-.026.656.132 26.127.132 26.127h10.408s.157-25.497.131-26.127c-.026-.63.263-1.915-.972-3.095Z" fill="#000"/><path d="M117.771 135.831h-4.047v2.833h4.047v-2.833Z" fill="#512176"/><path d="M117.483 137.616h-3.443v7.345h3.443v-7.345Z" fill="#512176"/><path d="M119.297 156.028h-7.07v9.654h7.07v-9.654Z" fill="#fff"/><path d="M131.543 149.262c-1.235-1.181-2.024-1.837-2.418-2.755-.394-.918-.263-2.544-.263-2.544h-3.417s.132 1.626-.263 2.544c-.394.918-1.182 1.6-2.418 2.755-1.235 1.154-.946 2.465-.972 3.095-.026.656.131 26.127.131 26.127h10.408s.158-25.497.132-26.127c.026-.63.315-1.915-.92-3.095Z" fill="#000"/><path d="M129.204 135.831h-4.048v2.833h4.048v-2.833Z" fill="#512176"/><path d="M128.914 137.616h-3.443v7.345h3.443v-7.345Z" fill="#512176"/><path d="M130.727 156.028h-7.07v9.654h7.07v-9.654Z" fill="#fff"/><path d="M142.74 149.262c-1.235-1.181-2.024-1.837-2.418-2.755-.394-.918-.263-2.544-.263-2.544h-3.417s.132 1.626-.263 2.544c-.394.918-1.182 1.6-2.418 2.755-1.235 1.154-.946 2.465-.972 3.095-.026.63.131 26.127.131 26.127h10.408s.158-25.497.132-26.127c-.027-.63.315-1.915-.92-3.095Z" fill="#000"/><path d="M140.426 135.831h-4.047v2.833h4.047v-2.833Z" fill="#512176"/><path d="M140.111 137.616h-3.443v7.345h3.443v-7.345Z" fill="#512176"/><path d="M141.952 156.028h-7.07v9.654h7.07v-9.654Z" fill="#fff"/><path d="M154.41 149.262c-1.235-1.181-2.023-1.837-2.418-2.755-.394-.918-.262-2.544-.262-2.544h-3.417s.131 1.626-.263 2.544c-.394.918-1.183 1.6-2.418 2.755-1.235 1.18-.946 2.465-.972 3.095-.027.656.131 26.127.131 26.127h10.408s.158-25.497.131-26.127c-.026-.63.316-1.915-.92-3.095Z" fill="#000"/><path d="M152.071 135.831h-4.047v2.833h4.047v-2.833Z" fill="#512176"/><path d="M151.781 137.616h-3.443v7.345h3.443v-7.345Z" fill="#512176"/><path d="M153.595 156.028h-7.07v9.654h7.07v-9.654Z" fill="#fff"/><path d="M156.853 170.639H97.717v8.893h59.136v-8.893ZM157.773 152.646H96.719v3.384h61.054v-3.384Z" fill="#DBAC73"/><path d="m138.404 154.35-26.177 20.723h5.572l26.913-20.723h-6.308ZM100.082 154.35h-1.734v21.3h1.734v-21.3ZM155.513 154.35h-1.734v21.3h1.734v-21.3Z" fill="#DBAC73"/><path d="m78.61 147.608.08 12.775s15.27.183 16.268-.079c.999-.262 5.914-4.145 6.439-4.354.526-.21.999 0 .815.603-.184.603-.946 2.466-.946 2.466s3.732-.42 4.074-.63c.342-.21 2.576-1.941 3.049-2.072.473-.158 1.235.157 1.051.629-.21.473-2.313 3.201-2.313 3.201s.421 2.911-.683 3.987c-1.104 1.075-6.308 1.941-8.831 2.098-2.523.158-21.63 2.597-23.234 2.519-1.603-.079-3.916-.577-4.73-3.988-.816-3.41-1.078-16.526-1.078-16.526l10.04-.629ZM246.266 146.822l-12.747 41.997s11.801 53.958 10.855 54.325c-.947.368-13.326 1.889-14.666 2.86-1.34.944-2.471 4.748-2.471 4.748l25.705-1.338-2.655-57.762 15.796-44.83h-19.817Z" fill="#F69576"/><path d="m280.408 146.822 2.207 46.168 7.412 58.706h-25.494s1.34-3.987 3.049-4.932c1.708-.944 11.617-2.649 11.617-2.649s-12.984-50.339-13.142-52.804c-.157-2.466-5.887-44.463-5.887-44.463h20.238v-.026ZM260.17 86.412l-25.494 5.509-9.514-19.386s3.469-6.557 3.232-7.213c-.236-.656-2.864.813-3.232 1.285-.368.472-.762.813-.762.813s-2.05-9.68-3.233-9.548c-1.183.131 0 5.089 0 5.089s-2.628-5.168-3.89-4.748c-1.288.42 1.472 5.928 1.472 5.928s-3.102-3.935-4.1-3.331c-.999.63 1.997 5.168 1.997 5.168s-2.47-2.178-3.39-1.47c-.92.709 3.39 5.142 3.39 5.142s.289 2.702.999 3.41c.71.708 1.524 1.626 1.524 1.626s9.383 25.078 9.856 25.97c.473.892 2.865 1.416 4.1 1.705 1.236.288 27.886-.367 27.886-.367l-.841-15.582Z" fill="#F69576"/><path d="M262.562 85.782c6.859-.078 12.063.971 14.56 3.096 2.497 2.124 3.469 61.198 3.469 61.198l-35.744 1.522s.946-62.09 1.814-62.274c.867-.184 4.888-3.384 15.901-3.542Z" fill="#fff"/><path d="M268.291 83.945s-4.888 44.174-5.598 48.87c-.709 4.695-3.285 56.713-3.285 56.713l35.823-.866s-13.509-49.63-13.273-52.568c.237-2.938-3.601-48.502-3.601-48.502s-3.311-2.807-10.066-3.647Z" fill="#5F750E"/><path d="M255.806 84.233s8.463 43.02 8.463 43.885c0 .866-3.206 58.996-3.206 58.996h-29.778s10.565-36.804 10.565-40.266c0-3.463 2.97-46.929 2.97-46.929l.736-11.122c0-.026 3.049-3.856 10.25-4.564Z" fill="#5F750E"/><path d="M243.113 125.628s7.543 2.938 20.132 2.938c12.589 0 18.135-2.938 18.135-2.938l.21 2.938s-13.194 4.407-20.605 3.988c-7.412-.42-18.161-2.702-18.161-2.702l.289-4.224Z" fill="#7EA21A"/><path d="m249.131 129.089 1.419 36.489h-2.786l-1.103-37.617 2.47 1.128Z" fill="#7EA21A"/><path d="m247.765 129.667 6.938 34.338 2.129-.84-6.281-33.498h-2.786Z" fill="#7EA21A"/><path d="m219.852 81.216 8.699-4.984 6.571 14.402 22.708-4.853-2.418 17.522s-22.708.42-24.837 0c-2.155-.419-10.723-22.087-10.723-22.087ZM273.389 244.089l4.705 6.637 12.852-1.233v2.702l-27.413.866s-.42-4.984 2.497-6.558c2.944-1.548 7.359-2.414 7.359-2.414ZM238.698 242.673l2.576 4.984 12.694-.708v3.804l-27.833.944s.132-4.748 1.998-6.164c1.866-1.443 10.565-2.86 10.565-2.86Z" fill="#5F750E"/><path d="M257.595 53.674s5.624-3.541 11.932.472c4.232 2.702 4.757 12.25 3.18 15.477-1.577 3.252-8.778 9.154-8.778 9.154s-21.683-21.09-6.334-25.103Z" fill="#CC6100"/><path d="m257.279 74.635-2.418 15.529s2.05 2.57 8.358 3.174c6.308.603 6.308-3.174 6.308-3.174s-.71-6.165-1.524-10.178c-.815-3.987-1.525-5.351-1.525-5.351h-9.199Z" fill="#F69576"/><path d="M263.665 78.858s.132 2.86-1.787 4.118c-1.892 1.26-6.097 1.26-6.097 1.26l1.498-9.601h6.176c.026 0 .447 2.413.21 4.223Z" fill="#DD866F"/><path d="M255.203 55.8s-1.866 1.521-2.655 4.905c-.631 2.597-.473 5.404-.815 6.978-.341 1.573-.841 4.066-.394 6.243.447 2.177 2.392 5.167 5.966 6.164 3.601.997 6.545.289 8.516-2.203s4.442-6.978 5.178-10.073c.735-3.096 1.13-8.971-2.182-11.568-4.258-3.306-9.304-3.332-13.614-.446Z" fill="#F69576"/><path d="M262.379 73.375s-.184 1.836-1.682 2.124c-1.498.315-3.128-.052-3.916-.708-.789-.656-1.315-1.862-1.315-1.862l6.913.446Z" fill="#fff"/><path d="M258.54 70.987c-.394-.078-.394-.472-.394-.682v-.052c-.026.026-.053.026-.053.052-.131.105-.368.263-.63.027-.106-.105-.158-.263-.132-.473.026-.42.289-.97.526-1.154.052-.026.131-.026.157.026.053.053.027.132-.026.158-.184.131-.42.603-.447.97 0 .132.027.237.053.263.105.105.158.078.315-.053.079-.052.158-.105.237-.13.052 0 .105 0 .131.052.079.078.079.157.053.288 0 .262.026.394.184.42.079 0 .131 0 .158-.026.078-.053.078-.237.078-.341 0-.105 0-.158.027-.21a.177.177 0 0 1 .157-.105c.106 0 .237.079.421.262.026.026.079.079.131.053.079-.027.184-.105.211-.315.052-.289-.211-.866-.342-1.076-.026-.052 0-.13.052-.157.053-.026.132 0 .158.052.053.08.447.787.368 1.233-.052.263-.184.446-.394.499a.393.393 0 0 1-.394-.132c-.105-.104-.158-.157-.184-.157v.079c0 .157-.027.393-.184.524a.426.426 0 0 1-.237.08c.079.025.053.025 0 .025Z" fill="#6B3425"/><path d="M276.491 65.532c-1.103-2.754-9.198-.262-7.7 4.827 1.524 5.194 9.33-.761 7.7-4.827Z" fill="#F69576"/><path d="M270.288 70.988c.026 0 .053 0 .079-.026a.128.128 0 0 0 0-.184c-.342-.367-.394-1.522.026-2.65.289-.786 1.051-2.15 2.786-2.387.946-.105 1.603.053 1.971.473.552.63.289 1.652.289 1.652-.026.053.027.131.079.158.053.026.132-.027.158-.08 0-.052.289-1.153-.342-1.888-.42-.498-1.156-.682-2.181-.55-1.367.157-2.471 1.101-2.996 2.544-.421 1.128-.421 2.413.026 2.885.052.026.079.053.105.053Z" fill="#6B3425"/><path d="M273.416 70.699c.053 0 .105-.027.105-.079.026-.105.946-2.335-.394-4.8-.026-.053-.105-.08-.158-.053-.052.026-.079.105-.052.157 1.288 2.388.394 4.591.394 4.617-.026.053 0 .131.052.158h.053ZM262.562 68.628c.247 0 .447-.4.447-.892 0-.493-.2-.892-.447-.892s-.447.4-.447.892c0 .493.2.892.447.892Z" fill="#6B3425"/><path d="M264.638 65.375c-.342-.289-1.051-.656-1.787-.735-.815-.079-1.262.289-1.604.367-.315.08-.367-.367-.183-.734.183-.393.867-.656 1.971-.63 1.104.053 1.708.551 2.023.866.263.315.053 1.26-.42.866Z" fill="#A5713D"/><path d="M255.728 68.39c.247 0 .447-.399.447-.891 0-.493-.2-.892-.447-.892-.246 0-.446.4-.446.892s.2.892.446.892Z" fill="#6B3425"/><path d="M257.359 65.033c-.342-.288-1.052-.656-1.787-.734-.815-.079-1.262.288-1.604.367-.315.079-.368-.367-.184-.734.184-.368.868-.656 1.971-.63 1.104.052 1.709.55 2.024.866.289.34.053 1.285-.42.865Z" fill="#A5713D"/><path d="M277.121 88.877c2.208.236 23.234 27.543 23.234 29.064 0 1.522-13.904 18.808-16.19 20.697-2.287 1.889-5.914 3.804-7.044 3.227-1.13-.578-3.653 4.669-4.783 4.328-1.13-.367 1.209-4.407 1.209-4.407s-3.075 4.144-3.864 3.856c-.788-.289 1.866-4.774 1.866-4.774s-3.574 4.853-4.573 3.987c-.999-.866 3.364-5.141 3.364-5.141s-3.916 3.908-4.862 2.859c-.92-1.076 5.283-5.85 6.15-6.138.867-.289 6.991-1.076 6.991-1.076l9.725-17.051-16.952-17.286s-7.228-13.483 5.729-12.145Z" fill="#F69576"/><path d="m278.962 129.535 7.99 8.972s14.56-19.648 14.429-21.012c-.132-1.364-19.975-27.858-22.419-29.563-2.418-1.705-8.7-.42-9.987 1.574-1.288 1.993-.71 11.83 1.419 13.824 2.129 1.993 15.98 14.191 15.98 14.191l-7.412 12.014Z" fill="#5F750E"/><path d="m268.292 83.945-2.917 26.048 8.173-25.078-5.256-.97ZM255.808 84.233l5.125 26.494-9.777-25.996 4.652-.498Z" fill="#7EA21A"/><path d="M252.653 56.427c1.34-.446 1.419.918 5.414 1.102 3.995.183 5.835-2.807 8.227-1.889 2.391.918 2.155 10.047 3.048 10.283.894.21 3.549-1.626 4.022-1.758.473-.13-.92-7.554-3.89-9.286-2.97-1.73-7.99-2.072-9.935-1.862-1.945.21-6.886 3.41-6.886 3.41Z" fill="#CC6100"/></svg>