<svg width="375" height="307" fill="none" xmlns="http://www.w3.org/2000/svg"><path d="M169.76 53.574c18.161 3.44 52.407-66.752 90.28-51.265 37.873 15.488 10.04 65.388 23.549 76.57 13.509 11.182 50.515-23.23 66.074 12.915 15.56 36.145-8.095 74.863-8.436 80.874-.342 6.011 42.656 38.324 30.724 82.817-11.932 44.493-170.389 48.797-226.949 50.504-56.534 1.732-132.175 1.575-143.319-44.808C-9.46 214.798 41.16 174.4 45.838 161.433c4.678-12.941-37.663-58.09 15.428-113.555 41.053-42.917 90.359 2.258 108.494 5.696Z" fill="#9ECBDD"/><path d="M1.708 261.154c11.144 46.383 86.785 46.54 143.319 44.808 56.534-1.733 214.991-6.011 226.949-50.504 8.122-30.266-9.172-54.914-20.973-69.456H27.229c-15.06 19.11-32.538 45.936-25.52 75.152Z" fill="#776B67"/><path d="M12.616 207.056c-9.251 15.881-15.638 34.466-10.907 54.1 11.144 46.383 86.785 46.54 143.318 44.808 56.534-1.733 214.991-6.011 226.95-50.504 4.993-18.611.368-35.095-6.65-48.404H12.617Z" fill="#3D3B38"/><path d="M174.516 87.647s-3.259-6.3 4.153-7.009c-.762-5.013 6.492-12.573 19.081-9.345 2.129-5.46 14.14-15.093 22.498-3.36 15.927-6.667 18.187 2.94 16.058 4.673 12.353-2.231 10.172 6.221 8.095 7.166 16.348-3.491 14.088 7.875 14.088 7.875h-83.973ZM76.901 110.195s-1.366-3.491 1.735-3.884c-.315-2.783 2.707-6.957 7.964-5.172.893-3.018 5.913-8.347 9.383-1.863 6.649-3.701 7.595 1.627 6.702 2.572 5.151-1.234 4.257 3.439 3.364 3.964 6.833-1.943 5.887 4.357 5.887 4.357H76.901v.026ZM146.55 230.233h-19.712v3.964h19.712v-3.964ZM217.25 230.233h-19.712v3.964h19.712v-3.964ZM193.595 230.233h-19.711v3.964h19.711v-3.964ZM122.895 230.233h-19.712v3.964h19.712v-3.964ZM99.242 230.233H82.16v3.964h17.083v-3.964ZM78.215 230.233H58.503v3.964h19.712v-3.964ZM54.562 230.233H34.85v3.964h19.712v-3.964ZM169.941 230.233h-19.449v3.964h19.449v-3.964ZM354.706 230.233h-19.712v3.964h19.712v-3.964ZM30.907 230.233H6.86v3.964h24.048v-3.964ZM331.053 230.233h-19.712v3.964h19.712v-3.964ZM363.223 230.233h-4.573v3.964h4.573v-3.964ZM285.583 230.233h-19.711v3.964h19.711v-3.964ZM261.93 230.233h-19.712v3.964h19.712v-3.964ZM238.278 230.233h-17.084v3.964h17.084v-3.964ZM307.399 230.233h-17.872v3.964h17.872v-3.964Z" fill="#fff"/><path d="m136.561 176.551-70.568 3.15-13.798-14.963 10.25-16.93 74.116 5.118v23.625Z" fill="#6B3425"/><path d="M132.619 147.808h-3.942v58.667h3.942v-58.667ZM250.893 175.973l70.568 3.15 13.799-14.963-10.251-16.931-74.116 5.119v23.625Z" fill="#6B3425"/><path d="M254.852 205.877h3.942V147.21h-3.942v58.667Z" fill="#6B3425"/><path d="m68.07 167.182-2.494-9.119h1.122l1.906 7.427h.089l1.941-7.427h1.247l1.941 7.427h.09l1.905-7.427h1.122l-2.493 9.119h-1.14l-2.013-7.267h-.071l-2.013 7.267h-1.14Zm11.478.16c-.433 0-.826-.081-1.18-.244a2.036 2.036 0 0 1-.841-.717c-.208-.315-.312-.695-.312-1.14 0-.392.077-.71.232-.953.154-.246.36-.439.619-.579.258-.139.543-.243.855-.312.314-.071.63-.127.948-.169.415-.053.752-.093 1.01-.12.262-.03.452-.079.57-.147.122-.068.183-.187.183-.356v-.036c0-.439-.12-.78-.36-1.024-.238-.243-.599-.365-1.083-.365-.501 0-.894.11-1.18.33-.284.219-.485.454-.6.703l-.998-.356c.178-.416.416-.739.713-.971.3-.234.626-.398.98-.49a4.066 4.066 0 0 1 1.05-.142c.22 0 .472.027.757.08.288.05.565.156.832.316.27.16.495.402.673.726.178.323.267.757.267 1.3v4.506h-1.05v-.926h-.054c-.072.148-.19.307-.356.476-.167.17-.388.314-.664.432-.276.119-.613.178-1.01.178Zm.16-.944c.416 0 .767-.081 1.052-.244a1.67 1.67 0 0 0 .872-1.448v-.961c-.044.053-.142.102-.294.147-.148.041-.32.078-.516.111a23.091 23.091 0 0 1-1.007.134 3.979 3.979 0 0 0-.765.173 1.322 1.322 0 0 0-.57.352c-.143.154-.214.365-.214.632 0 .365.135.641.405.828.273.184.62.276 1.038.276Zm4.893.784v-6.839h1.015v1.033h.071c.125-.338.35-.613.677-.824a1.99 1.99 0 0 1 1.104-.316 11.859 11.859 0 0 1 .553.018v1.069a3.012 3.012 0 0 0-.245-.041 2.5 2.5 0 0 0-.397-.031c-.332 0-.629.07-.89.21a1.575 1.575 0 0 0-.615.569 1.538 1.538 0 0 0-.222.824v4.328H84.6Zm9.51-5.307-.944.267a1.754 1.754 0 0 0-.263-.459 1.28 1.28 0 0 0-.463-.374c-.196-.098-.447-.147-.753-.147-.418 0-.767.097-1.046.29-.276.19-.414.432-.414.725 0 .262.095.468.285.619.19.152.487.278.89.379l1.016.249c.611.149 1.067.376 1.367.681.3.303.45.694.45 1.171 0 .392-.114.743-.34 1.051-.222.309-.533.552-.934.73-.4.179-.867.268-1.398.268-.698 0-1.275-.152-1.732-.455-.457-.302-.747-.745-.869-1.326l.998-.25c.095.368.274.644.538.828.268.184.617.276 1.047.276.49 0 .879-.103 1.166-.311.291-.211.437-.463.437-.757a.795.795 0 0 0-.25-.597c-.166-.163-.421-.285-.765-.365l-1.14-.267c-.626-.148-1.087-.379-1.38-.69-.291-.315-.437-.708-.437-1.18 0-.386.108-.727.325-1.024.22-.297.518-.53.895-.699.38-.17.81-.254 1.291-.254.677 0 1.209.148 1.594.445.39.297.665.689.829 1.176Zm1.51 5.307v-.801l3.883-4.987v-.071h-3.758v-.98h5.111v.837l-3.775 4.951v.072h3.9v.979h-5.36Zm8.992.16c-.433 0-.827-.081-1.18-.244a2.03 2.03 0 0 1-.841-.717c-.208-.315-.312-.695-.312-1.14 0-.392.077-.71.232-.953.154-.246.36-.439.618-.579.259-.139.544-.243.855-.312.315-.071.631-.127.949-.169.415-.053.752-.093 1.011-.12.261-.03.451-.079.569-.147.122-.068.183-.187.183-.356v-.036c0-.439-.12-.78-.361-1.024-.237-.243-.598-.365-1.082-.365-.501 0-.895.11-1.18.33-.285.219-.485.454-.601.703l-.997-.356c.178-.416.416-.739.712-.971.3-.234.627-.398.98-.49a4.062 4.062 0 0 1 1.051-.142c.219 0 .472.027.757.08.288.05.565.156.832.316.27.16.495.402.673.726.178.323.267.757.267 1.3v4.506h-1.051v-.926h-.053c-.072.148-.19.307-.357.476-.166.17-.387.314-.663.432-.276.119-.613.178-1.011.178Zm.16-.944c.416 0 .766-.081 1.051-.244a1.665 1.665 0 0 0 .873-1.448v-.961c-.045.053-.142.102-.294.147-.148.041-.32.078-.516.111a23.263 23.263 0 0 1-1.007.134 3.99 3.99 0 0 0-.766.173 1.319 1.319 0 0 0-.569.352c-.143.154-.214.365-.214.632 0 .365.135.641.405.828.273.184.619.276 1.037.276Zm10.24-6.055-2.529 6.839h-1.068l-2.529-6.839h1.139l1.888 5.45h.072l1.887-5.45h1.14Zm3.192 6.999a2.78 2.78 0 0 1-1.18-.244 2.04 2.04 0 0 1-.842-.717c-.208-.315-.311-.695-.311-1.14 0-.392.077-.71.231-.953a1.64 1.64 0 0 1 .619-.579 3.29 3.29 0 0 1 .855-.312 10.7 10.7 0 0 1 .948-.169 47.35 47.35 0 0 1 1.011-.12c.261-.03.451-.079.57-.147.122-.068.183-.187.183-.356v-.036c0-.439-.121-.78-.361-1.024-.238-.243-.598-.365-1.082-.365-.502 0-.895.11-1.18.33-.285.219-.485.454-.601.703l-.998-.356c.179-.416.416-.739.713-.971.3-.234.626-.398.979-.49a4.073 4.073 0 0 1 1.051-.142c.22 0 .472.027.757.08.288.05.566.156.833.316.27.16.494.402.672.726.178.323.267.757.267 1.3v4.506h-1.05v-.926h-.054a1.85 1.85 0 0 1-.356.476c-.166.17-.387.314-.664.432-.276.119-.612.178-1.01.178Zm.16-.944c.416 0 .766-.081 1.051-.244a1.672 1.672 0 0 0 .873-1.448v-.961c-.045.053-.143.102-.294.147a5.252 5.252 0 0 1-.517.111 23.195 23.195 0 0 1-1.006.134 3.99 3.99 0 0 0-.766.173 1.329 1.329 0 0 0-.57.352c-.142.154-.214.365-.214.632 0 .365.135.641.406.828.273.184.618.276 1.037.276ZM271.025 166.335v-9.119h3.188c.635 0 1.159.11 1.572.33.413.216.72.509.922.877.202.365.302.77.302 1.215 0 .392-.069.716-.209.971a1.617 1.617 0 0 1-.543.605 2.46 2.46 0 0 1-.726.33v.089c.279.018.56.116.842.294.282.178.518.433.708.766.19.332.285.739.285 1.22 0 .457-.104.868-.312 1.233-.208.365-.536.655-.984.868-.448.214-1.032.321-1.75.321h-3.295Zm1.104-.98h2.191c.721 0 1.233-.139 1.536-.418.306-.282.459-.624.459-1.024 0-.309-.079-.594-.236-.855a1.709 1.709 0 0 0-.672-.632c-.291-.161-.636-.241-1.034-.241h-2.244v3.17Zm0-4.132h2.049c.332 0 .632-.065.899-.196.27-.13.484-.314.641-.552a1.46 1.46 0 0 0 .241-.837c0-.4-.14-.74-.419-1.019-.279-.282-.721-.423-1.327-.423h-2.084v3.027Zm9.776 5.254c-.659 0-1.227-.145-1.705-.436a2.925 2.925 0 0 1-1.1-1.229c-.255-.528-.383-1.143-.383-1.843 0-.701.128-1.318.383-1.852a3.016 3.016 0 0 1 1.077-1.256c.464-.303 1.004-.454 1.621-.454.356 0 .708.059 1.055.178.348.119.664.312.949.579.285.264.512.614.681 1.05.169.437.254.974.254 1.612v.446h-5.272v-.909h4.203c0-.386-.077-.73-.231-1.033a1.753 1.753 0 0 0-.65-.717 1.823 1.823 0 0 0-.989-.262c-.418 0-.78.104-1.086.311a2.045 2.045 0 0 0-.699.802 2.345 2.345 0 0 0-.245 1.06v.605c0 .517.089.954.267 1.314.181.356.432.627.752.814a2.21 2.21 0 0 0 1.118.276c.276 0 .525-.038.748-.115.226-.08.42-.199.583-.356.164-.161.29-.36.379-.597l1.015.285a2.245 2.245 0 0 1-.539.908c-.252.258-.564.46-.935.606a3.477 3.477 0 0 1-1.251.213Zm4.43-.142v-6.839h1.016v1.033h.071c.125-.339.35-.613.677-.824a1.987 1.987 0 0 1 1.104-.316c.077 0 .174.001.289.004.116.003.204.008.263.014v1.068a3.19 3.19 0 0 0-.245-.04 2.39 2.39 0 0 0-.396-.031c-.333 0-.629.07-.891.209a1.533 1.533 0 0 0-.837 1.394v4.328h-1.051Zm5.716-9.119v9.119h-1.05v-9.119h1.05Zm1.925 9.119v-6.839h1.051v6.839h-1.051Zm.534-7.979a.748.748 0 0 1-.529-.209.674.674 0 0 1-.219-.504c0-.195.073-.363.219-.503a.748.748 0 0 1 .529-.209c.205 0 .38.07.526.209.148.14.222.308.222.503a.67.67 0 0 1-.222.504.736.736 0 0 1-.526.209Zm3.492 3.865v4.114h-1.05v-6.839h1.015v1.068h.089a1.95 1.95 0 0 1 .73-.837c.327-.213.748-.32 1.265-.32.463 0 .868.095 1.215.285.347.187.618.472.81.855.193.38.29.86.29 1.442v4.346h-1.051v-4.275c0-.537-.139-.955-.418-1.255-.28-.303-.662-.454-1.149-.454a1.83 1.83 0 0 0-.9.218 1.565 1.565 0 0 0-.619.637c-.151.279-.227.617-.227 1.015Z" fill="#fff"/><path d="M61.735 261.945h156.25V197.87H74.508c-5.703 0-10.328 4.62-10.328 10.316l-2.445 53.759Z" fill="#0C96FD"/><path d="M69.253 210.022s-6.886.21-9.015 4.962c-2.13 4.751-2.34 11.549-.71 13.571 1.63 2.021 6.597 2.021 6.597 2.021l3.128-20.554Z" fill="#7D009B"/><path d="M68.438 232.073c.552 1.968-5.467 2.73-5.467 2.73l.132-2.73s4.836-1.812 5.335 0Z" fill="#F1F3F2"/><path d="m224.661 174.981-34.692-.63v87.568h136.09c.132-.42 5.388-30.135 4.968-34.545-.421-4.436-10.356-12.704-24.811-16.274-14.455-3.57-40.265-9.293-41.132-9.555-.841-.289-40.423-26.564-40.423-26.564Z" fill="#0C96FD"/><path d="M62.971 240.369c-.289 3.57 2.76 21.55 2.76 21.55h260.354c.105-.367 2.734-14.411 3.732-23.887 0 0-34.719-13.754-54.194-14.83-19.475-1.077-47.046 9.659-66.968 8.321-19.922-1.339-45.469-12.705-67.993-12.705-22.524 0-77.69 21.551-77.69 21.551Z" fill="#1D7DCC"/><path d="m244.794 263.73 81.843-1.103s2.261-1.995 3.68-7.559c1.419-5.565-.946-12.705-.946-12.705s-1.761 3.123-8.989 4.41c-7.228 1.286-34.167.577-34.167.577l-22.971 11.287-19.686-.472 1.236 5.565ZM251.048 198.394l-25.678-18.558-30.067-.604.736 17.404 55.009 1.758Z" fill="#2D2D2D"/><path d="M271.734 239.368h-.262v-24.097l-20.501-16.773.158-.21 20.605 16.878v24.202Z" fill="#024168"/><path d="M247.212 196.82c-.053-1.312-2.129-4.83-5.046-4.83-2.918 0-2.918 8.558-.92 9.135 1.997.551 6.124-1.312 5.966-4.305Z" fill="#F1F3F2"/><path d="M191.782 261.918h-.263v-38.009l4.257-27.326.263.052-4.257 27.3v37.983Z" fill="#024168"/><path d="M308.975 211.859s8.858 5.801 9.988 8.951c1.13 3.15 2.549 5.985 3.259 6.142.709.131 8.804.42 8.804.42s.894-6.956-.262-7.77c-1.157-.787-18.451-9.423-21.789-7.743Z" fill="#F1F3F2"/><path d="M311.103 235.091h8.569c.262 0 .499-.21.499-.499v-3.308a.498.498 0 0 0-.499-.498h-8.569a.499.499 0 0 0-.499.498v3.308c0 .262.237.499.499.499Z" fill="#878FB3"/><path d="M211.626 213.356c0 4.095 12.773 4.095 12.773.315 0-4.568-12.773-3.938-12.773-.315Z" fill="#1D7DCC"/><path d="M206.212 215.221h13.825c.21 0 .394-.184.394-.394v-2.625a.403.403 0 0 0-.394-.393h-13.825a.403.403 0 0 0-.394.393v2.625c.026.21.184.394.394.394Z" fill="#878FB3"/><path d="M196.617 179.232h-1.314v16.931h1.314v-16.931ZM243.9 262.338a28.649 28.649 0 0 1-.499-5.224c0-15.671 12.721-28.375 28.411-28.375 15.691 0 28.412 12.704 28.412 28.375a28.56 28.56 0 0 1-.5 5.224H243.9Z" fill="#024168"/><path d="M271.812 278.114c13.252 0 23.996-10.73 23.996-23.966s-10.744-23.965-23.996-23.965c-13.253 0-23.996 10.729-23.996 23.965s10.743 23.966 23.996 23.966Z" fill="#000"/><path d="M271.812 270.265c8.913 0 16.138-7.216 16.138-16.117s-7.225-16.117-16.138-16.117c-8.912 0-16.137 7.216-16.137 16.117s7.225 16.117 16.137 16.117Z" fill="#606060"/><path d="M271.813 265.409c6.227 0 11.275-5.042 11.275-11.261 0-6.219-5.048-11.261-11.275-11.261s-11.275 5.042-11.275 11.261c0 6.219 5.048 11.261 11.275 11.261Z" fill="#000"/><path d="M285.48 262.863a16.119 16.119 0 0 1-2.234 2.809 19.226 19.226 0 0 1-2.575 2.1l-22.314-22.391a15.033 15.033 0 0 1 2.102-2.573 16.183 16.183 0 0 1 2.813-2.231l22.208 22.286Z" fill="#A8A9AD"/><path d="M280.854 240.762a16.371 16.371 0 0 1 2.786 2.283c.788.814 1.471 1.68 2.05 2.599l-22.709 21.945a16.163 16.163 0 0 1-2.549-2.127 14.97 14.97 0 0 1-2.181-2.861l22.603-21.839Z" fill="#A8A9AD"/><path d="M92.144 250.999H71.486v-7.901H59.922s-.5 3.228-3.942 3.937c-.5 7.192-.053 14.883 5.782 14.883h29.173l1.21-10.919Z" fill="#2D2D2D"/><path d="M88.833 262.336a28.622 28.622 0 0 1-.5-5.224c0-15.671 12.721-28.376 28.412-28.376 15.691 0 28.411 12.705 28.411 28.376 0 1.785-.184 3.517-.499 5.224H88.833Z" fill="#024168"/><path d="M116.746 278.112c13.253 0 23.996-10.73 23.996-23.966s-10.743-23.966-23.996-23.966c-13.252 0-23.996 10.73-23.996 23.966s10.744 23.966 23.996 23.966Z" fill="#000"/><path d="M116.747 270.263c8.912 0 16.137-7.216 16.137-16.118 0-8.901-7.225-16.117-16.137-16.117-8.913 0-16.138 7.216-16.138 16.117 0 8.902 7.225 16.118 16.138 16.118Z" fill="#606060"/><path d="M116.747 265.407c6.227 0 11.275-5.042 11.275-11.261 0-6.22-5.048-11.261-11.275-11.261s-11.275 5.041-11.275 11.261c0 6.219 5.048 11.261 11.275 11.261Z" fill="#000"/><path d="M130.415 262.86a16.138 16.138 0 0 1-2.234 2.809 19.157 19.157 0 0 1-2.576 2.1l-22.314-22.391a15.032 15.032 0 0 1 2.103-2.572 16.14 16.14 0 0 1 2.812-2.231l22.209 22.285Z" fill="#A8A9AD"/><path d="M125.788 240.759a16.3 16.3 0 0 1 2.786 2.284c.788.814 1.472 1.68 2.05 2.599l-22.708 21.944a16.117 16.117 0 0 1-2.55-2.126 15.002 15.002 0 0 1-2.181-2.861l22.603-21.84Z" fill="#A8A9AD"/><path d="M214.779 170.989s-3.68-1.496-6.965 1.549c-2.208 2.047-1.498 7.717-.21 9.45 1.288 1.732 6.15 4.462 6.15 4.462s13.824-14.437 1.025-15.461Z" fill="#A5713D"/><path d="M216.621 189.652c-2.208.393-4.784 1.076-5.993 2.204-1.472 1.365-.709 5.355 6.65 4.358 7.359-.998 6.518-4.358 5.598-5.224-1.367-1.26-4.573-1.627-6.255-1.338Z" fill="#F69576"/><path d="m218.618 184.587 3.075 8.873-8.621 1.548s-.236-3.701-.184-6.142c.053-2.441.342-3.307.342-3.307l5.388-.972Z" fill="#F69576"/><path d="M215.306 187.737s.236 1.707 1.471 2.232c1.236.525 3.733.105 3.733.105l-1.919-5.487-3.627.657c.026 0 .026 1.47.342 2.493Z" fill="#DD866F"/><path d="M217.854 173.273s1.262.709 2.103 2.599c.63 1.47.867 3.123 1.209 4.016.368.892.946 2.31.893 3.622-.026 1.339-.841 3.282-2.865 4.279-1.997.971-3.81.866-5.256-.394-1.419-1.26-3.364-3.622-4.126-5.381-.763-1.759-1.63-5.171.052-7.035 2.155-2.388 5.125-2.966 7.99-1.706Z" fill="#F69576"/><path d="M215.885 184.272s.421 1.207 1.209 1.338c.789.132 1.499-.183 1.761-.656.263-.472.29-1.286.29-1.286l-3.26.604Z" fill="#fff"/><path d="M217.434 182.565c-.053 0-.105 0-.158-.026-.105-.053-.131-.184-.158-.289v-.052c-.026.026-.052.052-.105.131-.052.079-.131.131-.21.105-.105 0-.21-.105-.289-.263-.105-.236.052-.708.079-.761 0-.026.052-.052.105-.052.026.026.052.052.052.105-.052.131-.157.498-.079.656.053.105.106.157.158.157.053 0 .053-.026.079-.052a.515.515 0 0 1 .21-.21c.027 0 .079 0 .105.052.027.027.027.079.053.132.026.052.026.157.079.183h.105c.105-.026.105-.105.052-.262-.026-.079-.026-.131 0-.184.027-.026.053-.026.079-.026.053 0 .105.026.158.052.105.053.131.053.184 0 .026-.026.026-.078 0-.157-.053-.21-.237-.473-.368-.525-.026-.026-.052-.053-.026-.105.026-.026.052-.053.105-.026.158.078.368.393.447.63.026.131.026.21-.027.288-.131.184-.289.105-.368.053 0 0-.026 0-.026-.026v.026c.026.131.079.367-.158.446h-.078Z" fill="#6B3425"/><path d="M206.344 181.279c.368-1.733 5.388-1.129 5.046 2.021-.342 3.202-5.572.525-5.046-2.021Z" fill="#F69576"/><path d="M210.574 183.826h-.052c-.027-.027-.053-.079-.027-.105.158-.237.079-.945-.289-1.549-.263-.446-.841-1.155-1.892-1.103-.552.027-.946.184-1.104.473-.263.42 0 .997 0 .997.026.027 0 .079-.026.105-.027.027-.079 0-.105-.026 0-.026-.29-.656 0-1.155.21-.341.604-.525 1.235-.551.815-.053 1.577.394 2.024 1.181.368.63.499 1.365.289 1.706 0 0-.027.027-.053.027Z" fill="#6B3425"/><path d="M208.815 183.85c-.026 0-.053 0-.079-.026-.026-.052-.815-1.26-.289-2.887 0-.026.052-.053.079-.053.026 0 .052.053.052.079-.499 1.549.263 2.73.263 2.756.026.026 0 .079-.026.105.026.026.026.026 0 .026ZM214.875 181.59c.143-.025.217-.278.165-.563-.052-.285-.21-.496-.353-.47-.142.026-.216.278-.164.564.051.285.209.495.352.469ZM213.309 179.915c.184-.21.552-.499.972-.63.473-.131.789.026.973.052.21.027.184-.262.026-.446-.132-.21-.578-.289-1.235-.157-.657.131-.947.498-1.104.735-.158.236.131.735.368.446ZM218.873 180.752c.143-.026.217-.279.165-.564-.051-.285-.209-.496-.352-.47-.143.026-.217.278-.165.564.052.285.21.495.352.47ZM217.566 178.943c.184-.21.552-.499.972-.63.474-.131.789.026.973.053.21.026.184-.263.026-.447-.158-.183-.578-.288-1.235-.157a1.62 1.62 0 0 0-1.104.735c-.105.21.131.735.368.446ZM220.404 185.034l-.315.131s-.421 1.365-.894 1.706c-.473.341-2.234.578-2.47.446-.211-.131-1.078-1.417-1.078-1.417l-.394.184s.972 1.89 1.104 2.047c.079.105 1.366.683 1.839.63.447-.052 1.867-1.181 1.893-1.365.157-.604.315-2.362.315-2.362Z" fill="#6B3425"/><path d="m218.566 186.161-.788.131.236 1.339.605.026-.053-1.496Z" fill="#6B3425"/><path d="M209.078 172.905s2.418 2.94 7.49 2.31c10.592-1.286 4.731-6.3 4.731-6.3s.657 1.496-1.13 1.89c-2.471.604-7.386-6.247-11.091 2.1Z" fill="#A5713D"/><path d="M160.586 160.385c.499.236 1.104.971.236 2.126-.841 1.155-2.733 1.654-2.733 1.654s.368-2.205.973-2.783c.604-.577 1.524-.997 1.524-.997ZM156.144 156.813s.499-1.181 1.971-1.706c1.472-.525 2.208-.026 2.734 0 .525.026-.631 1.549-1.814 1.942-1.209.42-2.891-.236-2.891-.236Z" fill="#5F750E"/><path d="M160.403 136.731c.552.472 4.389 5.276 5.099 6.536.683 1.234 2.812 6.116 3.653 7.56a9.46 9.46 0 0 0 1.866 2.336v1.234s-1.787-2.127-3.312-5.277c-1.524-3.15-1.997-5.092-3.311-6.588-1.314-1.496-3.496-4.883-3.995-5.276-.473-.447-.526-.945 0-.525Z" fill="#3D211C"/><path d="M166.525 137.702c-.394 1.023-.841 6.851-.841 6.851l-.184-1.286s.21-4.2.526-5.224c.289-1.024.709-.919.499-.341ZM169.891 140.381c.368-.499.683 3.596.814 5.093.132 1.496.631 8.294.684 11.051.079 2.756.552 9.213.552 13.046 0 3.832.079 11.261 0 11.891-.079.629-.789.892-1.025 0-.237-.893-.5-27.956-.631-31.237-.132-3.308-.736-9.371-.394-9.844Z" fill="#3D211C"/><path d="M178.616 147.73c.578-.525.762-.131.473.341-.263.473-2.05 1.811-4.1 5.985-.683 1.417-3.6 10.342-3.6 10.342v-1.312s1.708-5.644 2.943-8.715c1.235-3.071 3.601-6.011 4.284-6.641Z" fill="#3D211C"/><path d="M181.061 152.06c.315-.131.421.21 0 .342-.42.131-2.418.813-3.548 1.548-1.157.761-3.916 3.124-3.916 3.124l.315-.866s2.313-2.022 3.548-2.678c1.236-.682 3.233-1.338 3.601-1.47ZM174.7 135.156c-.106.393-.789 2.415-1.315 3.911-.525 1.496-1.209 4.305-1.682 5.46-.446 1.155-.998 3.491-.998 3.491l-.211-1.076s1.131-3.518 1.656-5.355c.526-1.838 1.84-6.038 2.05-6.431.21-.394.552-.21.5 0ZM157.642 151.482c.316.21 3.102 2.678 4.311 4.463 1.209 1.784 2.234 3.937 3.206 5.617.973 1.68 2.024 3.99 2.891 5.46.867 1.496 2.944 3.465 2.944 3.465v.813s-1.603-1.627-2.76-3.149c-1.156-1.523-3.495-6.405-4.494-8.295-.973-1.89-2.865-4.725-3.943-5.775-1.077-1.05-2.102-1.995-2.391-2.231-.263-.21-.079-.578.236-.368Z" fill="#3D211C"/><path d="M157.904 160.327c.631-.026 3.522.026 4.6.262 1.077.263 2.234.578 2.234.578l.263.604s-2.55-.867-3.811-.945c-1.262-.079-3.049-.079-3.286-.079-.236.026-.341-.42 0-.42Z" fill="#3D211C"/><path d="M162.872 181.485s5.309-1.917 8.515-1.733c3.207.184 7.438 1.733 7.438 1.733s1.183 3.123 1.735 5.407 1.34 6.326.762 8.426c-.578 2.1-3.049 2.835-4.784 3.307-1.734.447-9.54-.367-11.564 0-2.024.368-4.363-1.102-4.599-3.753-.263-2.678 2.497-13.387 2.497-13.387Z" fill="#6B3425"/><path d="M169.469 135.13s.368 2.231-1.051 2.782c-1.419.551-3.022.63-2.917 0 .131-.63 1.182-1.837 1.997-2.389.841-.551 1.971-.393 1.971-.393ZM178.325 136.941s-1.603 1.076-2.996 1.417c-1.393.342-2.076-.577-1.734-1.076.341-.499.919-1.339 2.339-1.181 1.393.105 2.391.84 2.391.84ZM176.672 143.898s1.288 1.47 1.367 2.572c.079 1.103.026 3.045-.604 3.255-.631.21-1.63-1.338-1.551-2.703.105-1.365.788-3.124.788-3.124ZM178.327 153.505c.473-.236 1.971.394 2.996.892 1.025.499 1.577 1.917 1.577 1.917s-1.183.131-2.602-.63c-1.42-.788-2.471-1.969-1.971-2.179ZM164.973 152.611s.789-1.102 1.972-1.181c1.182-.105 2.864.367 2.838.814-.026.472-.552 1.89-2.05 1.732-1.498-.157-2.76-1.365-2.76-1.365ZM168.287 160.801s.92 1.549.263 2.52c-.631.971-1.604 1.785-1.972 1.548-.368-.21-.21-1.706.184-2.598.421-.919 1.525-1.47 1.525-1.47ZM160.378 151.143s-.447-1.969.893-2.835c1.341-.866 2.865-.84 2.865-.84s-.158 2.467-1.393 3.255c-1.235.787-2.365.42-2.365.42ZM157.301 140.904s1.446-1.339 3.075-1.444c1.63-.105 2.366.026 2.55.289.21.262-.158 1.575-1.656 1.942-1.498.368-3.969-.787-3.969-.787Z" fill="#5F750E"/><path d="M169.785 145.552c.762-.341.263-1.26 1.051-1.443.789-.21 1.709.656 2.366 1.443.657.788.604 1.26 1.314 1.391.736.132 1.051.394 1.393 1.313.341.919.131 1.864.657 2.205.525.341 1.13.656 1.051 1.601-.079.945-1.183 1.26-.788 2.126.394.867.078 2.599-1.262 2.835-1.314.237-2.576-.315-3.233-.971-.657-.656-.473-1.601-1.577-1.864-1.103-.262-2.496-.131-2.838-1.312-.342-1.181.999-2.048.473-2.809-.526-.761-1.656-1.312-1.446-2.756.211-1.444 1.788-1.286 2.839-1.759ZM177.645 137.573c.315-1.602-.21-3.019 1.051-3.413 1.262-.394 3.969-.315 4.284.63.316.945-.341 1.339.394 2.1.736.761 1.972 1.759 2.182 3.544.21 1.759-.21 4.62-.92 5.985-.736 1.391-1.919 1.968-2.628 2.205-.736.236-.92.84-1.709.735-.788-.105-2.05-1.26-2.312-1.89-.263-.657.604-2.363-.316-3.387-.92-1.023-1.918-1.732-1.866-3.648.053-1.916 1.708-2.179 1.84-2.861ZM187.025 150.566c1.288-1.181 1.446-2.573 2.97-2.31 1.524.262 2.05 1.339 2.497 2.1.447.761 1.393 1.024 1.708 1.706.342.683.736 1.942 0 2.572-.736.63-1.787-.026-2.102 1.47-.342 1.523.394 3.439-.342 4.489-.736 1.05-3.443 2.363-5.624.866-2.182-1.496-3.102-2.992-2.576-4.593.526-1.602 1.656-1.287 1.577-2.363-.079-1.076-.237-2.598.447-3.36.709-.761.893-.078 1.445-.577ZM172.701 164.424c.947-1.234 1.393.788 2.234.735.842-.052.92-1.391 1.84-.499.92.893 1.656 1.549 1.314 2.153-.341.604-.289.84.079 1.155.394.288 1.104.551.789 1.365-.342.787-1.63 2.835-3.102 2.992-1.471.158-2.129-.157-2.26-1.286-.131-1.129.131-1.444-.92-1.523-1.051-.078-1.393-.262-1.577-1.26-.21-.997 1.314-.577 1.525-1.522.21-.945-.395-1.732.078-2.31Z" fill="#7EA21A"/><path d="M180.717 147.311c.368.026.709 2.178.841 6.404.131 4.227.788 29.216.788 29.216h-.814l-.815-35.62Z" fill="#3D211C"/><path d="M176.33 154.529c.525-.368 1.761 1.181 2.733 1.995.973.813 2.471 1.548 2.471 1.548v.578s-2.156-1.234-3.338-2.258c-1.209-1.023-1.866-1.863-1.866-1.863ZM185.187 159.597s-.893 1.392-1.735 3.728a76.76 76.76 0 0 0-1.498 4.567c-.236.788-.42 1.339-.42 1.339s-.158-2.888 1.551-5.906c1.708-3.019 1.235-4.121 2.102-3.728ZM177.644 169.229l3.89 3.753v1.05l-3.89-4.278v-.525Z" fill="#3D211C"/><path d="M175.069 184.139s-.342-.394.263-1.181c.604-.788 12.352-.866 12.747-.525.394.341-.342.919 0 1.26.341.341 2.102 5.486 2.05 8.767-.079 3.308-.132 5.198-3.706 5.749-3.575.525-8.121.997-10.697 0-2.576-.998-3.18-1.129-3.18-4.41s2.523-9.66 2.523-9.66Z" fill="#7C5349"/><path d="M165.473 183.353s-2.917-1.077-5.44-1.654c-.105-.026-.184-.026-.289-.053.946 0 1.945 0 2.733-.052 1.787-.105 3.049-.499 3.522-.656-.762.21-2.365-.315-4.889-.263 1.84-.735 4.81-2.31 4.81-2.31s-2.286.158-4.52.867c1.813-1.234 3.968-3.492 3.968-3.492s-2.26 1.024-4.284 2.205a2.586 2.586 0 0 0-.342.21c1.656-1.627 3.759-4.226 3.759-4.226s-1.761 1.129-3.732 2.73a22.37 22.37 0 0 0-.92.814l.026-.026c1.525-2.153 3.496-5.46 3.496-5.46-.211 0-1.682 1.653-3.496 3.911-.263.315-.526.656-.762 1.024a549.735 549.735 0 0 0 2.812-6.458s-1.945 2.179-3.233 4.804a38.39 38.39 0 0 0-1.76 4.41c.578-2.126 1.314-5.408 1.445-6.458.158-1.522.315-4.121.315-4.121s-.788 2.494-1.051 3.439c-.131.525-.499 1.942-.815 3.465-.157-2.599-.42-6.904-.42-6.904s-.5 3.439-.473 5.303v1.05c-.657-2.704-1.761-6.431-1.761-6.431s-.158 2.861.42 5.459c.027.079.027.158.053.237-.841-2.074-2.339-5.303-2.339-5.303s.552 2.966 1.077 5.171c-1.104-1.68-3.075-4.2-3.075-4.2s1.314 3.282 2.182 5.355c.026.105.079.184.131.289-1.656-1.68-4.757-4.515-4.757-4.515s1.814 2.783 2.996 4.515c-1.34-.892-4.152-2.467-4.152-2.467s2.523 2.546 3.784 3.727c.447.42 1.314 1.076 2.234 1.759-2.864-1.234-7.043-2.888-7.043-2.888s2.812 1.995 4.546 2.914c.474.263 1.183.551 1.919.866-.315-.078-.631-.105-.92-.131-1.997-.157-5.782-.262-5.782-.262s4.258 1.102 6.176 1.548c-.683-.026-1.314 0-1.787.053-1.918.262-3.968.892-3.968.892s4.625-.21 7.227-.315a7.043 7.043 0 0 0-.972.315c-2.313.866-4.468 2.914-4.468 2.914a61.487 61.487 0 0 0 4.468-1.628c.263-.105.552-.236.815-.341-.894.893-3.733 3.833-3.733 3.833s5.362-3.99 6.939-5.172c0 .132.053.053.21-.131-.052.263-.131 10.474-.131 10.736 0 .263.473.21.473 0 0-.289-.131-9.24-.184-10.578.315.315 1.183 1.076 2.944 1.942 2.312 1.155 3.863 1.47 3.863 1.47s-1.971-1.444-3.417-2.284c-.105-.052-.236-.131-.341-.183.42.105.893.183 1.393.236 2.707.42 4.52.499 4.52.499Z" fill="#512176"/><path d="M165.999 180.938c.079-.026.132-.053.211-.079 0 0-.079.026-.211.079Z" fill="#512176"/><path d="M164.714 198.761h-15.191l-3.338-10.946h20.737l-2.208 10.946Z" fill="#7C5349"/><path d="M138.276 168.703c-.079-.315-.237-.498-.237-.498s.027.157-.052.446a2.238 2.238 0 0 1-.211.577c-.131.263-.394.473-.657.657l-.236.157c-.105.079-.237.131-.342.184-.026.026-.079.026-.105.052-.079.027-.131.053-.184.079-.026.026-.053.026-.079.026-.026 0-.052.027-.079.027-.052.026-.105.052-.131.078-.026 0-.053.027-.079.027-.131.052-.263.105-.342.105h-.052c-.026 0-.053-.027-.053-.053 0 0-.026-.026-.026-.052 0-.027-.026-.079-.026-.132v-.157c0-.053.026-.105.052-.158.053-.131.158-.288.289-.446.184-.21.473-.42.815-.63.184-.105.342-.21.526-.341.079-.053.157-.105.21-.158.158-.131.315-.288.447-.472.026-.053.079-.105.105-.158.053-.078.105-.157.158-.262.026-.026.026-.053.052-.079.053-.079.079-.184.105-.289.027-.078.053-.131.053-.21.026-.078.026-.131.052-.21 0-.078.027-.157.027-.236.026-.21 0-.394-.027-.604a.778.778 0 0 0-.052-.236c0-.052-.026-.079-.026-.131-.027-.131-.079-.236-.105-.341l-.079-.236c-.027-.079-.053-.158-.105-.21-.027-.027-.027-.079-.053-.105-.053-.105-.105-.184-.131-.289-.211-.368-.368-.63-.368-.63s.026.026.052.105c.105.236.342.761.342 1.601 0 .341-.105.761-.289 1.155a2.42 2.42 0 0 1-.184.367 1.083 1.083 0 0 0-.132.237l-.157.236a4.433 4.433 0 0 1-.736.814c-.105.078-.211.157-.316.21a.825.825 0 0 1-.21.105c-.079.026-.158.052-.21.078-.105.027-.21.053-.289.053-.289.026-.395-.131-.368-.368.026-.367.315-.971.525-1.312.395-.656 1.42-2.048 1.551-3.281v-.236c0-.709-.42-1.339-.736-1.707-.026-.026-.052-.078-.105-.105l-.079-.078-.131-.132s.026.053.052.158c0 .026.027.052.027.079.026.105.078.262.131.42.053.236.131.498.184.787 0 .026 0 .053.026.079.027.079.027.184.053.262v.079c.026.131.026.289 0 .473 0 .078-.026.131-.026.21 0 .026 0 .078-.027.105-.157.892-.578 1.942-.867 2.414-.342.63-.789.552-.867-.026v-.052c0-.184.105-.525.236-.919 0-.026.026-.053.026-.079.079-.21.158-.446.237-.682 0-.026.026-.053.026-.079.053-.184.132-.367.184-.551a.476.476 0 0 0 .053-.184c.105-.341.21-.656.315-.971.053-.158.079-.315.105-.473.053-.21.079-.393.079-.551v-.079a1.167 1.167 0 0 0-.21-.525c-.026-.026-.026-.052-.053-.052-.052-.053-.105-.131-.157-.184a2.556 2.556 0 0 0-.552-.42c-.027-.026-.053-.026-.105-.052-.132-.079-.211-.105-.211-.105s.106.078.211.262c.026.053.078.105.105.158.052.078.105.183.157.288.053.158.106.315.106.499v.105c0 .341-.106.945-.211 1.523 0 .052-.026.105-.026.131a15.51 15.51 0 0 1-.158.709c-.026.052-.026.105-.026.157-.079.368-.158.604-.158.578-.026-.053-.026-.21-.026-.499v-.236c0-.237.026-.552.053-.893 0-.105 0-.236.026-.341v-.525a6.491 6.491 0 0 0-.289-1.654c-.184-.577-.973-.63-.973-.63s.158.131.342.368c.026.026.053.052.079.105.052.078.131.183.184.288.026.053.052.079.079.132.026.052.052.078.079.131.078.131.131.289.184.446.052.158.078.315.078.473v.393c0 .079 0 .158-.026.21-.052.42-.158.709-.158.709s-.157-.84-.42-1.68c-.026-.052-.026-.079-.053-.131-.157-.525-.368-1.024-.604-1.286l-.053-.053s-.026 0-.026-.026c-.026 0-.026-.026-.053-.026 0 0-.026 0-.026-.027-.026 0-.026-.026-.052-.026 0 0-.027 0-.027-.026-.026 0-.026-.026-.052-.026h-.027c-.026 0-.026 0-.052-.027H132.257c-.026 0-.052 0-.052.027h-.027c-.026 0-.052.026-.079.026-.078.026-.157.052-.236.105-.026 0-.053.026-.079.026a4.643 4.643 0 0 0-.499.315s.499-.026.972.525 1.13 2.441 1.34 3.124c.211.682-.105.997-.394.997-.289 0-.815-.63-1.708-1.68-.894-1.05-.683-2.1-.683-2.1s-1.052 1.418-.92 2.179c.131.761 1.051 1.286 1.839 1.89.789.604 1.919.866 1.341 1.234-.421.262-.92-.105-.92-.105s-.105.787-.342.892c-.341.131-.683-.735-1.445-1.969-.789-1.233-1.262-1.443-1.262-1.443s-.683 1.522-.631 2.073c.053.552 1.209 1.707 2.471 2.442 1.288.735 2.129 1.286 1.892 1.732-.236.446-1.55-.289-2.838-1.417-1.288-1.129-1.814-2.757-1.814-2.757s-.972 2.1-.709 3.045c.236.945 1.261 1.733 2.26 2.205.999.473 2.654.21 3.022.84.368.63-1.182 1.313-1.892 1.182-.71-.132-1.919-2.127-1.919-2.127s.368 3.492 1.604 3.807c1.077.262 2.339-1.339 2.943-1.733.027-.026.053-.026.053-.026.026 0 .026-.026.052-.026h.079c.473 0 .289 1.627 1.577 1.391.552-.105.946-.788 1.183-1.523 0-.026.026-.052.026-.078l.079-.315c.026-.053.026-.105.053-.158 0-.052.026-.105.026-.157 0-.053.026-.105.026-.158 0-.052.027-.105.027-.157 0-.053.026-.105.026-.132.026-.131.052-.262.052-.367 0-.079.027-.131.027-.21v-.079c.026-.105.026-.184.026-.184s-.053.079-.131.184a.349.349 0 0 0-.079.105c-.027.026-.053.079-.079.105-.026.026-.053.079-.105.105-.053.053-.105.131-.158.184-.263.289-.552.604-.762.656-.316.079-.316-.315-.21-.604 0-.026.026-.052.026-.078.026-.053.052-.079.052-.105.053-.053.079-.105.132-.132a.885.885 0 0 1 .21-.078s.026 0 .026-.027l.158-.078c.026-.027.053-.027.105-.053.132-.052.289-.131.447-.21.026-.026.053-.026.079-.052.473-.263.999-.63 1.393-1.182.131-.157.21-.341.263-.498 0-.027.026-.053.026-.105.052-.158.079-.289.079-.42.052-.079.026-.237 0-.342Zm-3.259 1.864c0 .105-.027.21-.053.315 0 .053-.026.105-.026.131 0 .027 0 .027-.026.053-.027.105-.079.21-.106.341-.105.289-.236.578-.367.735 0 0 0 .026-.027.026-.079.079-.131.132-.184.132-.052 0-.079-.079-.079-.21 0-.105.027-.263.053-.447 0-.052.026-.105.026-.157 0-.053.027-.105.053-.158.026-.052.026-.105.052-.157 0-.026.027-.053.027-.079.026-.052.026-.105.052-.131 0-.026.027-.053.027-.079.026-.052.026-.079.052-.131 0-.026.026-.053.026-.079.027-.026.027-.079.053-.105.079-.157.131-.289.21-.394.026-.026.026-.052.053-.052.052-.053.105-.079.157-.053.079.027.106.105.106.237v.078c-.079.079-.079.132-.079.184Zm-2.313-2.73c.368-.42 1.209.63.946.945-.236.289-1.34-.551-.946-.945Z" fill="#7EA21A"/><path d="M132.835 175.845a8.231 8.231 0 0 0-.237-1.155c-.026-.105-.079-.21-.105-.315-.526-1.497-1.498-2.861-2.234-3.675a5.992 5.992 0 0 1-.604-.814c-.395-.604-.71-1.181-1.183-1.601-.605-.525-.841-.578-.894-.578 0 0 .027.027.105.079l.053.053.131.131.079.079c.053.052.079.105.105.157.027.026.027.053.053.079.052.105.079.21.105.341 0 .026.026.079.026.105v.709c-.052.577-.079 2.074-.315 3.333-.079.42-.184.814-.342 1.155a2.93 2.93 0 0 1-.604.919l-.158.158a5.552 5.552 0 0 1-.499.393c-.132.079-.263.158-.342.21-.026.027-.053.027-.079.053a1.071 1.071 0 0 0-.131.052s.184-.393.499-1.023l.158-.394c.052-.158.079-.315.105-.473.026-.105.026-.236.053-.341 0-.131.026-.236.026-.367v-.368c0-.236-.026-.499-.053-.735-.026-.289.027-.603.132-.945.052-.21.131-.42.21-.656l.158-.472c.157-.499.262-1.05.262-1.654 0-.21 0-.394-.026-.551-.026-.394-.105-.657-.21-.84a.556.556 0 0 0-.105-.158c-.027-.052-.079-.079-.132-.105-.026 0-.026-.026-.052-.026-.027-.026-.053-.026-.105-.053-.027-.026-.079-.026-.105-.052-.027-.026-.079-.026-.106-.053-.026 0-.026-.026-.052-.026-.079-.026-.158-.052-.263-.079a13.493 13.493 0 0 1-.526-.157c-.079-.026-.184-.026-.262-.053-.132-.026-.237-.052-.342-.052-.026 0-.053 0-.105-.026-.184-.027-.289-.053-.289-.053s.131.184.289.42c.026.026.026.053.052.079.053.079.079.157.132.236l.079.158c0 .026.026.052.026.078.026.079.052.158.105.237.026.078.053.183.079.262 0 .053.026.079.026.131.026.079.026.158.026.237 0 .498-.262.813-.525 1.548-.211.63-.263.893-.289 1.234 0 .158-.027.315-.027.525 0 .21-.079.42-.157.63a2.32 2.32 0 0 1-.211.446.906.906 0 0 1-.157.236c-.053.079-.105.132-.132.132-.026 0-.052-.053-.079-.105a.99.99 0 0 1-.052-.315v-.394c0-.131 0-.262.026-.394 0-.052 0-.105.026-.157.027-.105.027-.21.053-.289l.158-.472c.157-.447.394-.919.578-1.47.052-.132.079-.289.131-.42.079-.289.105-.578.105-.867 0-.21-.026-.42-.052-.603a3.76 3.76 0 0 0-.184-.578 3.3 3.3 0 0 0-.263-.525 5.61 5.61 0 0 0-.368-.472 2.942 2.942 0 0 0-.079-.079 1.393 1.393 0 0 0-.289-.263c-.026-.026-.052-.026-.079-.052a1.032 1.032 0 0 0-.236-.131c-.027-.027-.053-.027-.079-.053a3.583 3.583 0 0 0-.736-.262c-.026 0-.053 0-.053-.027-.052 0-.078-.026-.105-.026-.157-.026-.263-.052-.263-.052s.842 1.181.894 1.863c.026.184 0 .499-.026.84 0 .079-.026.158-.026.237l-.079.63c-.027.21-.079.42-.105.63 0 .052-.027.078-.027.131a9.5 9.5 0 0 1-.236.997c-.105.394-.237.552-.368.578-.027 0-.053 0-.105-.026a.603.603 0 0 1-.237-.342c0-.026-.026-.052-.026-.078-.026-.053-.026-.105-.026-.132-.027-.078-.027-.131-.027-.21v-.236c.027-.21.105-.525.158-1.05a8.935 8.935 0 0 0-.026-2.179 4.653 4.653 0 0 0-.132-.577 2.967 2.967 0 0 0-.079-.263c-.026-.078-.078-.183-.105-.262-.026-.079-.079-.158-.131-.236a1.853 1.853 0 0 0-.5-.604c-1.077-.84-1.445-.184-1.445-.184s.42.578.578 1.601c.026.132.026.237.026.368 0 .236-.052.42-.105.604-.052.131-.105.288-.184.42-.157.315-.341.603-.473.971-.026.052-.026.105-.052.131a.644.644 0 0 1-.132.184h-.052a.349.349 0 0 1-.079-.105c0-.026 0-.026-.026-.053 0-.026-.027-.078-.027-.105a10.844 10.844 0 0 1-.079-.682v-.814c0-.184 0-.341.027-.499 0-.078.026-.157.026-.236.079-.761.237-1.312.237-1.549v-.078c0-.027 0-.053-.027-.079h-.052c-.027 0-.027 0-.053-.026h-.131c-.027 0-.053 0-.079-.027h-.105c-.079 0-.132-.026-.211-.026h-.105c-.078 0-.157 0-.262-.026h-.552c-.342.026-.684.052-.894.157-.736.315-1.078.709-1.183 1.68-.105.972.92 1.575 1.209 1.969.289.368-.473.368-1.314-.42-.867-.787-.394-2.152-.394-2.152l-.421.708c-.42.709-.157 1.47.342 2.179.499.709 1.13 1.103 1.078 1.313-.053.21-.894-.132-1.498-.604-.605-.473-.631-1.549-.631-1.549s-1.262 2.258.893 3.596c.631.394 1.551.945 2.471 1.234.92.289 1.682.499 1.708.945 0 .446-1.077.446-1.761.105-.683-.341-.709-1.234-.841-1.339-.131-.105-.604.263-1.682-.052-1.077-.289-1.472-1.549-1.472-1.549s-.105.525.027 1.627c.131 1.103.368 1.523 1.13 2.1.736.578 2.418.893 2.944 1.077.499.157.683.603-.211.761-.92.157-1.55.052-2.365-.473-.815-.525-1.288-1.365-1.288-1.365s-.368 1.392-.026 2.389c.315.998.683 1.181 1.34 1.339.683.157 1.787-.368 1.84-.131.052.236-3.128.262-3.207.026.079.341.473 2.284.763 2.677.289.368.946.657 2.286.788 1.341.157 3.259-.945 3.89-1.05.631-.079 1.104-1.103 1.498-1.601.368-.499.657.262.315.84-.341.551-1.077.708-1.471.918-.368.21-.473.473-1.025.945-.552.499-1.157.578-1.63.657-.447.078-1.472.026-2.181-.027-.71-.052-1.341-.892-1.341-.892s-.289 2.047 1.236 2.598c.394.132.735.394 1.051.394.342 0 3.89.263 4.967-.472 1.078-.709 1.814-2.048 2.05-1.916.237.131.237.866-.525 1.679-.789.814-1.577.709-2.208.814-.631.079-1.262.709-1.814.761-.552.053-.578-.131-1.366-.498-.789-.368-.762.262-.762.262s1.287 2.441 4.362 2.258c.763-.053 3.917-.368 4.81-2.415.657-1.523.184-2.94-.105-3.596-.105-.237-.184-.368-.184-.368.026.026.079.053.105.079.158.105.316.184.5.262.078.027.183.079.289.105.052.027.131.027.184.053 1.051.289 2.391.21 3.443-.368l.157-.078c.105-.053.184-.132.289-.184a5.883 5.883 0 0 0 1.42-1.523c.052-.105.131-.21.184-.315.21-.446.341-.892.394-1.338.026-.237.052-.447.052-.683-.131-.236-.131-.394-.157-.577Zm-6.545 1.758c.605-.262 1.262-.551 1.262-.551s-.026.079-.105.184c-.053.079-.105.157-.184.236-.105.131-.21.263-.368.394a2.478 2.478 0 0 1-.499.367c-.106.053-.184.105-.263.132-.579.183-.92-.184-.92-.184s.473-.315 1.077-.578Zm-2.339-.525c.079-.026.211-.078.316-.105.157-.052.341-.131.499-.183.184-.079.342-.158.473-.237 0 0 0 .053-.026.132 0 .026-.026.052-.026.105-.027.052-.053.105-.132.157-.105.079-.236.184-.447.236-.42.132-.683.105-.814.053-.027 0-.027-.026-.053-.026a.335.335 0 0 1-.079-.053s.132-.026.289-.079Zm-1.104-2.992.237-.315c.499-.604.736-.63.736-.63s-.105 1.365-.789 1.89c-.026.026-.052.026-.078.052-.106.079-.237.105-.368.132h-.184c-.027 0-.053-.027-.079-.053-.027-.026-.027-.052-.027-.079.027-.157.184-.472.552-.997Zm-.63.262c-.027.027-.027.053-.053.079-.026.053-.079.105-.105.158a1.8 1.8 0 0 1-.315.315s.026-.105.052-.263c0-.079.026-.157.053-.236.026-.079.026-.158.052-.263.026-.131.053-.262.079-.367v-.053c0-.026.026-.078.026-.105.027-.105.053-.157.053-.183 0 0 0-.027.026-.027h.026c.027 0 .079.027.132.079.026.026.052.053.052.105 0 .026.027.053.027.079v.052c0 .027 0 .079.026.105 0 .079 0 .158-.026.237a1.337 1.337 0 0 1-.105.288Zm-.211-3.438c.132.157.211.367.237.577 0 .053.026.105.026.184.026.289-.026.604-.158.866l-.078.158a1.13 1.13 0 0 1-.605.551c-.026 0-.026 0-.052-.026-.132-.132-.053-1.05.105-1.706.026-.079.026-.158.052-.21.027-.079.053-.132.079-.184.132-.289.263-.394.394-.21Zm-1.629.367c0-.026.026-.078.026-.105 0-.026 0-.026.026-.026.027-.052.053-.052.106-.052.026 0 .052 0 .052.026.026 0 .026.026.053.052a.406.406 0 0 1 .052.315v.105c0 .027 0 .079-.026.105a4.622 4.622 0 0 1-.131.578.774.774 0 0 0-.053.21c0 .026-.026.052-.026.052-.027 0-.027-.026-.053-.079 0-.026-.026-.052-.026-.105 0-.026 0-.078-.026-.105v-.052c-.027-.131-.027-.289-.027-.446.027-.158.027-.341.053-.473Zm-.132-.708V170.779c-.026.157-.131.315-.236.367 0 0-.026-.105-.079-.236-.026-.079-.026-.131-.026-.21v-.184c.026-.079.052-.131.157-.131.106 0 .158.079.184.184Zm-1.209-1.785h.132s-.184.393-.263.787c-.053.21-.079.446-.026.578 0 0-.395-.683-.211-1.077a.607.607 0 0 1 .29-.288c.026 0 .052-.027.078-.027-.026.027-.026.027 0 .027Zm-3.18 1.076c.184-.394 1.236.394 1.393.682-.026-.026-1.603-.315-1.393-.682Zm1.236 0c-.368-.053-1.472-.709-1.236-1.129.263-.42 1.157-.026 1.525.499.262.341.078.709-.289.63Zm1.524 5.092c.762-.262 1.025.21.92.289-.894.604-1.709.341-1.709.341s.027-.367.789-.63Zm-.342 3.019c-.867-.053-1.209-.499-1.051-.683.158-.183.315-.446 1.445-.656 1.131-.184 1.367-.236 1.367.053 0 .42-.893 1.365-1.761 1.286Zm1.945-1.654c-.315-.052-.158-1.286.158-1.181.315.105.473 1.286-.158 1.181Zm.21 1.076s.395-1.496.71-1.233c.315.288.605.945-.71 1.233Zm3.522 1.654s.946 1.47-.026 1.838c-.237.078.026-1.838.026-1.838Zm.71 5.722c-.473.184-.815.184-.815.184s1.051-.341 1.262-.997c0 0 .026.63-.447.813Zm.657-1.47s.131-.629.131-1.076c0-.446-.105-.761-.105-.761s.605.473.605 1.024-.631.813-.631.813Zm1.367-4.016a1.674 1.674 0 0 1-.211.079c-.131.053-.289.079-.446.105-.237.026-.447.026-.526-.026l-.026-.026c0-.027 0-.053.026-.079 0-.026.026-.026.052-.053.027-.026.079-.078.132-.105.026-.026.052-.026.079-.052.052-.026.105-.053.184-.079.263-.079.578-.079.814.131l.027.027c-.027.026-.053.052-.105.078Zm2.023-.21c-.052 0-.105.027-.157.027a2.828 2.828 0 0 1-.552.052c-.079 0-.158 0-.237.026-.079.027-.131 0-.184.027h-.079c-.105 0-.184.026-.236.026h-.026c-.027 0-.053 0-.053-.026 0 0 0-.027-.026-.027v-.052c0-.105.105-.289.631-.446.709-.21 1.182.341 1.182.341s-.052.026-.157.052h-.106Zm-.368-2.651s.579-.42.947-1.365c.368-.945.578-2.152.814-2.205.027 0 .027 0 .053.026.026.027.052.053.079.105l.079.158c.052.131.105.315.131.499 0 .026 0 .078.026.105.027.105.027.21.027.315v.105c0 .262-.027.551-.106.813a1.777 1.777 0 0 1-.131.342c-.026.078-.079.131-.131.21-.027.026-.053.078-.079.105-.841 1.023-1.709.787-1.709.787Zm2.103 2.914h-.289c-.026 0-.053 0-.079-.026-.079-.027-.158-.027-.21-.053a1.148 1.148 0 0 1-.184-.079c-.026 0-.026-.026-.026-.026.919-.157 1.866-1.076 1.866-1.076s-.053.157-.132.341c-.052.105-.079.21-.157.315a1.508 1.508 0 0 1-.29.394.784.784 0 0 1-.184.131c-.026.026-.078.026-.105.026-.052.053-.131.053-.21.053Z" fill="#5F750E"/><path d="M125.898 180.33c1.025-.078 3.416 1.838 4.441 3.78 1.025 1.943 0 8.321 0 8.321h-1.077s.657-6.431.157-7.664c-.473-1.234-4.073-4.384-3.521-4.437Z" fill="#5F750E"/><path d="M138.723 188.627c-1.025-.42-3.364-1.838-3.811-2.126-.604-.42-.289-.972.158-1.077.446-.105 2.155.42 3.995 1.103 1.918.709 3.259.551 4.914-1.234 1.236-1.339 1.078-3.517 1.078-3.517s-.946 1.575-2.681 2.231c-1.603.63-4.704.577-5.335.499-.631-.079-.605-.998.315-1.05.894-.053 7.701-2.783 8.095-3.15.421-.368.368-2.1.368-2.1s-2.891 2.441-4.52 3.15c-1.735.787-2.576.761-2.707.394-.132-.342 5.624-2.914 6.991-4.857 1.051-1.496-.342-1.995-.342-1.995s-4.915 4.489-5.23 3.964c-.316-.525 4.941-4.62 4.941-4.62s-.473-.604-1.104-1.102c-.053-.027-.079-.079-.131-.105l-.027-.027c-.026-.026-.078-.052-.105-.078l-.026-.027c-.026-.026-.053-.026-.079-.052-.026-.026-.052-.026-.079-.053-.026 0-.026-.026-.052-.026-.027-.026-.053-.026-.105-.052-.027 0-.027-.027-.053-.027-.026-.026-.053-.026-.105-.052-.026 0-.026-.026-.053-.026-.026-.027-.052-.027-.105-.027-.026 0-.026.001-.052-.026-.027 0-.079-.026-.106-.026h-.026c-.026 0-.079-.026-.105-.026H142.324c-.053 0-.079 0-.132.026-.052 0-.079.026-.131.026-.053.027-.079.026-.105.053h-.027c-.026.026-.078.052-.105.078l-.026.027c-.026.026-.079.052-.105.105l-.026.026a.577.577 0 0 0-.106.131v.026c-.026.053-.078.105-.105.158a10.53 10.53 0 0 0-.446.919c-.027.052-.053.131-.079.183-.526 1.234-1.262 3.019-1.551 3.36-.053.079-.105.079-.131.027-.079-.263.236-1.654.578-3.019 0-.053.026-.079.026-.131.026-.079.053-.158.053-.263 0-.052.026-.079.026-.131.026-.079.053-.158.053-.236.026-.079.052-.158.052-.237l.158-.551c.184-.656.315-1.102.315-1.102l-.026-.026c-.026-.027-.053-.053-.079-.053-.026 0-.026-.026-.053-.026-.026 0-.078-.026-.105-.026h-.079c-.052 0-.131 0-.21.026h-.079c-.078.026-.157.026-.236.052-.026 0-.026 0-.053.027-.026 0-.052.026-.079.026-.052.026-.078.026-.131.052-.053.027-.131.053-.184.079l-.158.079c-.026 0-.026.026-.052.026-.105.052-.21.105-.289.184-.027.026-.079.052-.105.078-.027.027-.053.053-.079.053-.027.026-.027.052-.053.079-.552.866-.762 6.247-.709 6.746.026.367-.263.656-.526.682-.053 0-.132 0-.184-.026 0 0-.026 0-.026-.026-.027-.026-.079-.053-.106-.079-.341-.446-.525-1.05-.63-1.706-.027-.131-.027-.289-.053-.446-.026-.237-.026-.499-.026-.735v-.315c0-.105 0-.21.026-.315.132-1.917.657-3.754.657-3.754l-.604.315-1.472.761s-.631 5.093.683 7.849c.105.21.105.394.053.551 0 .026-.026.026-.026.053-.027.052-.053.105-.106.131-.026.026-.026.026-.052.026-.026.026-.053.053-.105.079-.053.026-.132.052-.211.079-.026 0-.052.026-.078.026h-.053a.781.781 0 0 1-.421-.053s-.026 0-.026-.026c-.079-.026-.131-.079-.184-.131-.131-.105-.263-.761-.368-1.628 0-.052-.026-.105-.026-.157-.105-.84-.21-1.89-.289-2.888 0-.131-.026-.262-.026-.367 0-.131-.027-.236-.027-.368-.026-.472-.079-.945-.105-1.338 0-.105 0-.21-.026-.289v-.131c0-.079 0-.184-.026-.263-.027-.525-.053-.84-.053-.84s-.053.053-.158.131c-.052.027-.078.079-.157.105-.079.053-.184.132-.289.21a8.556 8.556 0 0 0-1.157 1.077c-.447.498-.788 1.076-.762 1.601.026.262.026.551.026.866v.158c.079 1.365.237 3.097 1.235 4.436.237.315.132.63-.078.787-.027.027-.053.027-.079.053-.053.026-.105.052-.158.052h-.079c-.079 0-.184 0-.263-.052a3.433 3.433 0 0 1-.709-.499c-.421-.367-.71-.84-.946-1.312-.027-.079-.079-.158-.106-.237a7.023 7.023 0 0 1-.446-1.995c0-.078-.027-.157-.027-.236-.078-.997.027-1.732.027-1.732s-2.129 3.097-2.182 3.386c-.052.289.027.577.211.892.052.105.131.21.21.315.079.105.157.21.263.315 1.051 1.155 2.864 2.31 2.733 2.94a.98.98 0 0 1-.131.289c-.027.052-.079.079-.132.131-.026.026-.052.026-.079.053-.026 0-.079.026-.105.026h-.289c-.052 0-.079 0-.131-.026-.053 0-.079-.027-.132-.027-.131-.026-.263-.078-.447-.131a5.029 5.029 0 0 1-.42-.184c-.105-.052-.184-.078-.289-.131-.21-.105-.394-.21-.578-.315a5.475 5.475 0 0 1-.579-.42c-.026-.026-.078-.052-.105-.079-.709-.603-1.025-1.128-1.025-1.128s-.315.84-.368 1.758v.237c0 .078 0 .157.027.236.026.21.052.394.131.577.026.105.105.21.184.315.158.21.368.394.604.552.158.105.342.21.5.315.341.183.657.341.841.472.026.026.052.026.079.053.21.131.21.236-.211.288-.052 0-.078 0-.131.027-.131 0-.263 0-.368-.027-.026 0-.052 0-.079-.026a1.439 1.439 0 0 1-.315-.105c-.552-.289-.71-.919-.71-.919s.132 1.365.999 2.1c.105.079.21.158.315.21.105.053.237.105.342.132.053.026.105.026.158.026.026 0 .052 0 .079.026a.898.898 0 0 0 .262.026h.053c.105 0 .184 0 .289-.026.053 0 .105-.026.158-.026.157-.026.289-.079.42-.131.132-.053.237-.105.368-.184.684-.394 1.235-.998 1.525-1.339.026-.052.078-.079.105-.131.052-.079.079-.105.105-.131-1.025 1.391-1.183 2.835-.237 4.121.868 1.207 2.497.131 2.497.131s.184.289 1.051.315c.789.026 1.656-1.076 1.656-1.076s-.604.236-1.472-.21c-.972-.499-1.603-1.759-1.76-2.389-.158-.63.078-1.391.578-1.05.499.315 1.918 2.783 3.469 3.413 1.551.63 3.706-1.838 3.706-1.838s-1.104-.026-2.129-.446Zm-6.65-3.203c.027 0 .053 0 .079.027.211.052.316.183.211.393a.47.47 0 0 1-.132.184l-.026.026c-.026.027-.053.053-.079.053-.053.026-.079.052-.131.052h-.027c-.21.053-.446 0-.552-.105-.236-.21-.262-.577 0-.656.027 0 .053-.026.106-.026h.315c.053.026.158.026.236.052Zm1.157-.63c-.053 0-.105-.026-.158-.052-.368-.131-.709-.473-.525-.919a.418.418 0 0 1 .105-.184c.079-.078.157-.157.263-.183.052-.026.105-.026.157-.053.053 0 .132-.026.21 0 .053 0 .079 0 .132.026.052 0 .079.027.131.027.105.026.211.105.289.157l.079.079a.796.796 0 0 1 .211.525c0 .052 0 .105-.027.131-.026.053-.026.079-.052.131a.768.768 0 0 1-.289.289c-.027.026-.053.026-.079.053-.053.026-.132.026-.211.026-.078-.026-.157-.026-.236-.053Zm-.289 6.642s-.684 0-1.104-.63c-.421-.604-.184-1.497-.184-1.497s.762 1.628 1.288 2.127Z" fill="#7EA21A"/><path d="M140.561 198.758h-19.344l-4.232-8.059h26.388l-2.812 8.059Z" fill="#3F2F2D"/><path d="M143.449 184.271s-1.393-2.756-2.024-4.988c-.657-2.231-2.076-5.565-3.022-7.874-.947-2.31-1.656-4.2-2.182-4.752-.526-.551-.815-.315-.815-.315s.447-.341 1.052.42c.525.683 1.524 3.15 2.023 4.515.526 1.339 2.156 5.303 2.497 6.3.342.998.762 2.363 1.209 3.386a182.257 182.257 0 0 0 1.472 3.203l-.21.105Z" fill="#7C5349"/><path d="M135.617 165.95s.079.237.131.316c.079.105.027-.184-.131-.316ZM135.487 166.58s.343-.079.316-.132l-.052-.105s-.132.184-.264.237ZM135.799 165.869s.053.184.053.263v.158s.105-.027.079-.132c0-.105-.132-.289-.132-.289ZM135.617 166.604s.42.184.552.158c.131-.026.131-.079.131-.079s-.105.026-.184-.052c-.079-.053-.499-.027-.499-.027ZM136.037 165.844v.473c0 .052.053.158.053.158s.052 0 .052-.106c.026-.157-.105-.525-.105-.525ZM135.563 166.738s.447.341.631.341a.392.392 0 0 0 .289-.131v-.026s-.078.052-.184.026c-.105-.026-.736-.21-.736-.21ZM136.326 165.869s.079.499.079.631c0 .131-.053.21-.053.21s.105.053.158-.105c.026-.158-.184-.736-.184-.736ZM136.8 166.184s-.106.787-.079.866c.026.079 0 .184 0 .184l.026.052s.105-.026.158-.105c.026-.079-.105-.997-.105-.997ZM136.669 167.288s-.079.026-.131-.026c-.053-.053-1.025-.132-1.025-.132s.814.316.946.316c.131 0 .157-.105.157-.105l.053-.053ZM135.513 167.445s1.261.315 1.314.394a.207.207 0 0 1 .052.131l.132-.026v.026l-.132.027s.079.079-.079.079c-.157 0-1.235-.5-1.287-.631ZM137.298 166.527s-.289 1.05-.237 1.182c.053.131-.026.183-.026.183v.027s.026-.105.105-.079c.079.026.158.026.184-.131.053-.158.026-1.05-.026-1.182ZM135.67 167.812s.709.578 1.051.736c.342.158.473.026.473.026h.079v-.079s-.079-.026-.132-.078c-.078-.027-1.182-.447-1.471-.605ZM137.693 166.999s-.315 1.207-.315 1.312l.052.21-.079.053.027.052.079-.052s.052.157.157.026c.079-.131.263-1.338.079-1.601ZM135.88 168.68s1.393.447 1.446.368a.306.306 0 0 1 .105-.105l-.027-.053s-.078-.026-.184-.105c-.078-.079-1.156-.289-1.34-.105ZM138.115 167.551s-.447 1.05-.368 1.339c.079.288-.079.419-.079.419l.026.053s.053-.131.184-.158c.132-.026.132-.026.315-.656.158-.656-.078-.997-.078-.997ZM136.012 169.021s.236.341.814.446c.579.105.684.105.71.053.026-.053.105-.053.105-.053l-.026-.052s-.026.052-.237-.105c-.157-.132-1.366-.289-1.366-.289ZM136.09 169.649s.026.184.447.315c.42.105.683.132.92.105.21 0 .263-.078.263-.105 0-.026.157 0 .157 0l-.026-.079-.131.027s.052-.079-.184-.132c-.237-.052-.526.079-.973 0-.447-.079-.473-.131-.473-.131ZM138.561 168.05s-.027.367-.211.735c-.157.367-.499.604-.42.761l.079.184-.105.131.026.079.105-.158s.026.21.21-.052c.184-.289.289-.499.394-1.024.106-.525-.078-.656-.078-.656ZM136.273 170.306s.394.342.893.237c.526-.105.736.026.762-.053.027-.079.027-.105.027-.105l.131.026-.026-.052s-.158-.053-.184-.132c-.026-.079-.578.132-.946.105-.394 0-.605 0-.657-.026ZM138.955 168.653c-.026 0-.42.945-.552 1.208-.131.262-.21.341-.131.446.053.079-.105.184-.105.184v.052l.184-.131s0 .131.21-.026c.21-.158.342-.341.447-.788.105-.446-.053-.945-.053-.945Z" fill="#7C5349"/><path d="M139.453 169.23s-.21.709-.368 1.077c-.158.367-.263.551-.368.525h-.105l-.263.236-.053-.105s.237-.131.211-.184c-.027-.052-.211-.131.105-.577.341-.447.631-.867.841-.972Z" fill="#7C5349"/><path d="M136.432 170.672s.342.368.92.395c.578.052.841-.027.841-.053s.158.026.158.026l-.053-.052s-.131-.027-.21-.184c-.079-.158-.447-.053-.973-.079-.525-.026-.683-.053-.683-.053ZM136.508 171.093s.552.394 1.209.525c.684.132.605-.105.605-.105l.158.027-.053-.106-.131.027s.157-.184-.184-.237c-.342-.079-1.341-.026-1.604-.131ZM139.743 169.912s-.999.893-1.051 1.155c-.053.263-.026.394-.026.394l-.132.131.026.079.132-.131s.079.21.289-.079c.21-.289.315-.788.499-1.024.211-.315.263-.525.263-.525ZM136.668 171.906s.893.105 1.235.158c.342.052.605.131.657.052.079-.078.158-.078.158-.078l-.027-.079s-.026.052-.236-.105c-.184-.158-1.735-.184-1.787.052Z" fill="#7C5349"/><path d="M140.059 170.411s-.605 1.076-.763 1.313c-.157.236-.446.236-.446.236l-.079.131-.027.053s.079-.184.079-.263c0-.079-.21 0 .184-.472.394-.447.762-.998 1.052-.998ZM136.878 172.142s.315.394.92.473c.631.053.867.079.893 0 .027-.079 0-.131 0-.131l.211.026-.027-.079s-.157.026-.184-.052c-.026-.079-.262.026-.972-.132-.71-.105-.841-.105-.841-.105ZM140.24 170.91s-.736.551-.946.893c-.21.341-.158.63-.158.63l-.183.157.026.079s.157-.184.184-.131c.026.052.079.183.315-.263.237-.446.631-1.286.762-1.365ZM140.453 171.382s-.421.866-.631 1.234c-.237.367-.447.393-.447.393l-.184.184-.026-.052.184-.184s-.132-.026 0-.263c.131-.236.841-1.26 1.104-1.312Z" fill="#7C5349"/><path d="m139.032 172.879-.21-.026s-.053-.237-.342-.263c-.315-.026-.867.21-1.156.236-.289 0-.552-.078-.552-.078s.341.315.736.315c.394-.026.788-.053 1.025-.053.236 0 .315-.052.315-.052h.184v-.079ZM139.216 173.299l-.183-.052s-.132-.21-.658-.105c-.525.105-.604.157-.946.131-.341-.026-.394-.079-.394-.079s.499.263 1.078.316c.578.052.972-.184.972-.184l.158.026-.027-.053ZM140.558 171.83s-.184.866-.421 1.286c-.236.42-.526.525-.526.525l-.157.184.026-.105.079-.158s-.105-.131.026-.394c.105-.236.762-1.312.973-1.338ZM137.063 173.719s.709.42 1.261.394c.552-.026 1.13-.263 1.13-.263v-.052s-.105.078-.157 0c-.053-.079-.289-.079-.999-.079-.736-.027-1.235 0-1.235 0ZM141.085 172.486s-.473.866-.788 1.234c-.316.367-.5.393-.5.393l-.105.21-.026-.078.079-.184s-.237-.158.079-.499c.315-.315 1.261-1.076 1.261-1.076Z" fill="#7C5349"/><path d="M137.351 174.374s.29.368.736.236c.447-.131.868-.236 1.157-.236.315.026.473.026.473.026l-.053-.053-.157-.026s.078-.237-.316-.289c-.394-.053-.893.368-1.209.368-.315 0-.631-.026-.631-.026ZM141.399 172.906s-.184.499-.63.998c-.447.498-.526.866-.631.892-.105.026-.263.105-.263.105l-.026-.079s.105-.105.105-.183c.026-.105-.184-.132.052-.394.237-.263.92-.919 1.104-1.076.184-.21.289-.263.289-.263ZM139.612 174.638c-.053-.158-.474-.079-.92.158-.473.236-.657.368-.868.342-.21-.027-.394-.079-.394-.079s.158.341.631.236c.473-.105.736-.236 1.025-.289.315-.052.499.026.552-.026.052-.053.026-.158.026-.158l.184.079-.026-.079c.026-.026-.158-.052-.21-.184ZM141.636 173.457s0 .472-.394.84c-.394.367-.578.446-.631.682-.052.236-.42.63-.42.63l-.027-.105.105-.157s-.289.026-.078-.368c.21-.42.289-.577.736-.84.473-.289.683-.577.709-.682ZM140.11 175.398l-.263-.053s.053-.105-.289-.184c-.341-.053-.657.158-1.13.315-.473.158-.841.106-.841.106s.316.341.841.236c.526-.105.894-.236 1.157-.21.236.026.341-.21.341-.21l.211.052-.027-.052ZM137.797 176.397s.631.263 1.262.132c.657-.132 1.078-.132 1.156-.21.079-.079.079-.158.079-.158l.158.026-.026-.079h-.132s.079-.236-.341-.21c-.421.026-.815.473-1.393.473-.605.026-.763.026-.763.026Z" fill="#7C5349"/><path d="M141.846 173.956s.079.525-.263.84c-.342.315-.526.472-.762.787a1.893 1.893 0 0 1-.447.446l-.026-.078s.131-.027.131-.079c0-.053-.184-.341-.052-.551.131-.21.499-.604.893-.84.394-.237.526-.525.526-.525ZM142.055 174.663c-.052.026-.236.761-.631 1.207-.368.446-.709.551-.709.551l-.105.263-.027-.079.079-.21s-.157-.184-.026-.42.657-.735.972-.971c.316-.236.447-.341.447-.341ZM140.664 176.87l-.263-.105s0-.184-.289-.21c-.316-.026-.5.157-1.104.263-.605.105-1.051-.027-1.051-.027s.315.395 1.288.342c.972-.053 1.182-.289 1.182-.289l.263.052-.026-.026ZM140.926 177.472l-.263-.131h-.131s.052-.184-.079-.211c-.158-.026-.526.132-1.157.316s-1.182.105-1.182.105.473.289 1.261.21c.789-.079 1.157-.105 1.209-.21.053-.105.026-.158.026-.158s.289.026.342.132c.026.105-.026-.053-.026-.053ZM142.291 175.189s-.893.84-1.077 1.024c-.184.157-.394.21-.394.472 0 .263.052.394.052.394l-.079.131v.079l.105-.131s-.026.183.316-.158c.342-.341.473-.577.762-1.024.315-.498.394-.708.315-.787Z" fill="#7C5349"/><path d="M142.635 175.663s-.868.498-1.157.813c-.289.315-.473.867-.447 1.024.027.158-.026.21-.026.21l-.026.105s-.026.131.263-.157c.289-.289.394-.709.709-1.103.316-.394.684-.892.684-.892ZM141.083 178.05s-.211-.184-.29-.184h-.157s0-.131-.237-.131c-.236 0-.604.236-1.13.315-.526.105-1.051-.026-1.051-.026s.841.394 1.498.315c.657-.078.92-.289.946-.341.026-.053.105-.079.158-.053.079.026.263.132.263.132v-.027Z" fill="#7C5349"/><path d="M142.843 176.108s-.289.42-.657.578c-.368.157-.683.289-.815.499-.131.21-.105.945-.105.945l-.105.105.026.052.105-.105s.132.158.316-.131c.21-.289.131-.499.63-.866.5-.368.658-.867.605-1.077ZM141.241 178.47s-.132-.158-.211-.184c-.079-.026-.157-.289-.683-.184-.552.105-.789.394-1.183.552-.394.157-.604.157-.604.157s.184.132.972-.078c.789-.211.946-.316 1.235-.316.29 0 .263-.105.263-.105l.263.184-.052-.026ZM141.371 178.943h-.105s0-.263-.289-.289c-.289-.026-.316.263-1.209.446-.894.184-1.315.21-1.315.21s.5.342 1.42.158c.92-.184 1.366-.446 1.393-.473.026-.026.105-.052.105-.052Z" fill="#7C5349"/><path d="m141.532 179.467-.131-.026s-.079-.211-.237-.158c-.158.026-.394.315-1.314.342-.92.026-1.157-.079-1.157-.079s.605.446 1.577.394c.999-.053 1.131-.421 1.131-.421h.105l.026-.052ZM143.187 176.737s-.211.525-.631.814c-.421.289-.973.709-1.025 1.024-.053.315.079.499.079.499l-.158.183.026.053.158-.21s.026.131.368-.184c.315-.315.631-.761.946-1.181.342-.394.315-.945.237-.998Z" fill="#7C5349"/><path d="M143.685 177.497s.053.184-.157.263c-.211.078-1.104.341-1.367.656-.237.315-.447.945-.447.945l-.105.157v.027l.184-.158s.079.131.447-.21c.368-.341.236-.446.788-.709.473-.236.999-.761.657-.971ZM143.974 178.311s-.999.341-1.367.682c-.394.368-.762.578-.736.735.027.158.027.21.027.21l-.132.053.026.078.132-.052s-.026.184.21.026c.237-.157.447-.577.92-.892.473-.289.92-.683.92-.84ZM141.663 179.966l-.079-.026s0-.132-.131-.105c-.132.026-.211.21-1.183.498-.973.289-1.419.315-1.419.315s.341.315 1.314.053c.972-.263 1.13-.368 1.288-.394.157-.026.184-.079.21-.157a.134.134 0 0 0-.026-.132l.078-.026-.052-.026ZM144.63 179.153s-.762-.183-1.472.237c-.683.42-1.103.735-1.077.866.026.131.026.262.026.262l-.184.079.027.079.183-.079s-.052.131.237.053c.289-.079.552-.315 1.025-.762.473-.446.999-.787 1.235-.735ZM141.871 180.491l-.105.052s-.131-.157-.289-.079c-.158.079-1.051.657-1.682.709-.657.053-.815-.026-.815-.026s.394.367.973.289c.578-.079 1.734-.499 1.813-.578.105-.105.053-.21.053-.21l.078-.052-.026-.105ZM142.134 181.149l-.105.052s-.131-.21-.236-.157c-.079.026-.789.498-1.498.735-.71.236-1.052.21-1.052.21s0 .315.868.131c.867-.184 1.787-.525 1.892-.656.105-.132 0-.21 0-.21l.158-.027-.027-.078ZM144.789 179.861s-1.13.079-1.682.499-.762.577-.762.708c.026.105-.079.184-.079.184l-.026.079s.157-.158.183-.079c.027.079.158.105.5-.026.342-.131.683-.525 1.235-.84.526-.341.631-.525.631-.525Z" fill="#7C5349"/><path d="M144.528 184.609s.289-4.62-.21-8.059c-.5-3.438-.526-8.872-.631-12.599-.105-3.728-.263-6.746.158-7.823.446-1.05 1.025-.918 1.025-.918s-.92-.21-1.315 1.207c-.341 1.26-.21 5.25-.105 7.402.105 2.153.237 8.558.368 10.159.132 1.575.421 3.701.395 5.355-.027 1.654-.106 5.276-.106 5.276h.421Z" fill="#8A9995"/><path d="M144.344 154.789s.053.368 0 .526c-.052.157-.157-.263 0-.526ZM144.922 155.55s-.578.079-.578 0v-.158s.368.158.578.158ZM144.027 154.789s.053.289.079.394c.053.132.105.211.105.211s-.184.026-.21-.132c-.053-.158.026-.473.026-.473ZM144.764 155.655s-.525.5-.736.526c-.21.052-.236-.026-.236-.026s.157-.053.236-.158c.079-.131.736-.342.736-.342ZM143.609 154.87s.289.577.289.656v.236s-.079.053-.157-.131c-.079-.184-.132-.761-.132-.761ZM144.921 155.812s-.447.735-.71.867c-.289.131-.525 0-.525 0v-.053s.157.026.289-.079c.131-.105.946-.735.946-.735ZM143.212 155.078s.21.735.289.892c.079.158.21.236.21.236s-.131.132-.289-.026c-.157-.184-.21-1.102-.21-1.102ZM142.741 155.812s.657.998.657 1.129.131.236.131.236v.079s-.158.053-.289-.026c-.131-.079-.499-1.418-.499-1.418ZM143.608 157.23s.131 0 .158-.131c.026-.131 1.445-.787 1.445-.787s-.999.918-1.209.997c-.21.079-.289-.026-.289-.026h-.131l.026-.053ZM145.473 156.757s-1.682 1.208-1.734 1.313a.433.433 0 0 0 0 .21l-.211.052.053.053.21-.053s-.079.158.158.079 1.524-1.444 1.524-1.654ZM142.163 156.547s1.104 1.287 1.104 1.497c0 .21.158.236.158.236v.052s-.132-.131-.211-.026c-.078.105-.21.131-.368-.079-.131-.236-.657-1.443-.683-1.68ZM145.475 157.362s-.684 1.234-1.078 1.628c-.394.42-.683.341-.683.341l-.106.053-.052-.105s.131-.079.158-.21c.026-.105 1.445-1.339 1.761-1.707ZM141.901 157.441s1.287 1.444 1.314 1.602l.052.315.158.026v.079l-.158-.027s0 .237-.21.132c-.184-.105-1.261-1.628-1.156-2.127ZM145.737 158.647s-1.813 1.444-1.945 1.365c-.131-.079-.236-.079-.236-.079v-.079s.131-.078.21-.236c.079-.157 1.577-1.076 1.971-.971ZM141.609 158.437s1.367 1.155 1.446 1.601c.079.446.421.525.421.525v.079s-.158-.158-.368-.105c-.211.052-.211.052-.894-.709s-.605-1.391-.605-1.391ZM145.737 159.225s-.105.604-.92 1.103c-.814.498-.972.551-1.051.498-.079-.052-.21 0-.21 0v-.078s.079.052.289-.289c.21-.341 1.892-1.234 1.892-1.234ZM146.053 160.119s.079.289-.473.709c-.552.42-.972.577-1.288.709-.315.131-.446.052-.446 0 0-.053-.237.078-.237.078v-.131l.21-.052s-.131-.079.211-.289c.315-.21.841-.21 1.445-.578.578-.367.578-.446.578-.446ZM141.268 159.408s.289.472.789.892c.499.394 1.156.525 1.156.788v.288l.237.132v.131l-.237-.158s.079.315-.368.053c-.447-.263-.788-.525-1.288-1.155-.473-.683-.289-.971-.289-.971ZM146.21 161.14s-.368.683-1.209.866c-.841.184-1.104.473-1.183.368-.079-.079-.079-.131-.079-.131l-.157.131v-.079s.21-.157.21-.289c0-.131.972-.183 1.498-.42.526-.262.841-.367.92-.446ZM141.084 160.458c.053 0 1.236 1.05 1.604 1.313.368.289.525.367.499.525-.026.157.289.21.289.21l.053.079-.368-.079s.079.21-.316.079c-.394-.132-.736-.263-1.182-.788-.447-.525-.579-1.339-.579-1.339Z" fill="#8A9995"/><path d="M140.742 161.561s.789.84 1.236 1.233c.447.394.736.604.893.525l.158-.078.526.157v-.157s-.447-.027-.447-.105c0-.079.236-.315-.526-.735-.788-.394-1.472-.814-1.84-.84ZM146.236 161.746s-.289.682-1.13 1.102c-.841.42-1.288.473-1.288.42 0-.052-.236.131-.236.131l.052-.078s.158-.132.21-.368c.027-.236.657-.341 1.42-.709.762-.367.972-.498.972-.498ZM146.343 162.349s-.552.866-1.498 1.443c-.92.578-.973.21-.973.21l-.21.132v-.158l.21-.052s-.367-.158.106-.447c.525-.288 2.05-.813 2.365-1.128ZM140.717 162.665s2.076.63 2.339.945c.237.315.289.525.289.525l.289.131v.131l-.289-.131s0 .315-.499.053c-.499-.289-.999-.893-1.446-1.129-.446-.236-.683-.525-.683-.525ZM146.658 163.557s-1.288.656-1.787.945c-.5.289-.815.525-.973.446-.157-.079-.289 0-.289 0v-.131s.079.052.289-.289c.211-.341 2.497-1.26 2.76-.971Z" fill="#8A9995"/><path d="M140.585 163.557s1.604 1.128 1.998 1.365c.42.236.815.078.815.078l.21.105.079.053s-.237-.21-.289-.315c-.053-.131.315-.131-.579-.525-.867-.42-1.813-.919-2.234-.761ZM146.499 164.003s-.184.735-1.077 1.181c-.894.446-1.262.63-1.341.551-.079-.078-.079-.157-.079-.157l-.289.157v-.131s.237-.052.237-.157c0-.132.394-.132 1.366-.735.973-.604 1.183-.709 1.183-.709ZM140.611 164.317s1.472.315 1.997.656c.526.368.657.761.657.761l.368.105v.132s-.368-.158-.368-.079 0 .289-.657-.158c-.657-.42-1.708-1.365-1.997-1.417ZM140.611 165.104s1.183.971 1.761 1.312c.578.368.946.263.946.263l.42.157v-.078l-.42-.158s.158-.131-.158-.367c-.341-.237-2.102-1.234-2.549-1.129Z" fill="#8A9995"/><path d="m143.713 166.311.289-.157s-.078-.368.368-.578c.447-.21 1.472-.21 1.919-.393.447-.158.762-.42.762-.42s-.315.656-.92.866c-.604.21-1.209.367-1.577.551-.368.158-.525.131-.525.131l-.289.132-.027-.132ZM143.713 166.994l.237-.157s.079-.367.92-.551c.841-.184 1.025-.131 1.498-.394.473-.262.578-.341.578-.341s-.552.656-1.419 1.076c-.841.42-1.577.341-1.577.341l-.237.131v-.105ZM140.742 165.786s.868 1.077 1.472 1.523c.605.446 1.157.394 1.157.394l.368.157-.079-.131-.21-.158s.078-.236-.29-.525c-.368-.262-2.102-1.338-2.418-1.26Z" fill="#8A9995"/><path d="M147.26 166.288s-.789.997-1.656 1.286c-.841.289-1.866.315-1.866.315l-.052-.079s.21.053.236-.105c.026-.157.368-.289 1.446-.709 1.103-.42 1.892-.708 1.892-.708ZM140.403 166.997s1.261.918 1.997 1.233c.736.315 1.025.237 1.025.237l.289.236v-.131l-.236-.21s.236-.368-.447-.657c-.71-.236-2.628-.708-2.628-.708ZM147.26 167.362s-.184.682-.972.787c-.789.105-1.472.184-1.919.394-.447.21-.683.341-.683.341l.026-.131.236-.131s-.289-.289.289-.578c.579-.288 1.577-.026 2.077-.236a6.74 6.74 0 0 0 .946-.446ZM140.193 167.729s.604.552 1.603.998c.972.446 1.34.866 1.524.84.158-.053.447 0 .447 0v-.131s-.21-.079-.289-.21c-.079-.132.21-.289-.342-.525-.526-.237-1.997-.709-2.365-.814a21.707 21.707 0 0 0-.578-.158Z" fill="#8A9995"/><path d="M144.001 169.067c0-.236.657-.367 1.498-.341.867.027 1.209.105 1.498-.052.289-.158.526-.341.526-.341s0 .577-.815.708c-.815.132-1.262.105-1.735.237-.473.131-.736.341-.841.288-.131-.026-.131-.21-.131-.21l-.237.21v-.131s.237-.158.237-.368ZM140.218 168.676s.289.657 1.156.919c.868.262 1.131.263 1.393.551.237.289 1.052.604 1.052.604l-.053-.131-.289-.158s.447-.131-.131-.577c-.579-.446-.815-.604-1.682-.709-.841-.105-1.367-.367-1.446-.499ZM143.764 170.407l.368-.236s-.158-.131.316-.42c.473-.289 1.103-.184 1.918-.236.815-.053 1.341-.342 1.341-.342s-.29.657-1.131.814c-.841.184-1.498.21-1.866.394-.368.157-.657-.079-.657-.079l-.289.21v-.105ZM147.919 170.407s-.762.735-1.813.945c-1.051.21-1.708.473-1.866.394a.555.555 0 0 1-.21-.158l-.211.132v-.132l.211-.078s-.29-.289.368-.499c.657-.21 1.55.131 2.391-.184.841-.341 1.13-.42 1.13-.42Z" fill="#8A9995"/><path d="M140.218 169.49s.21.761.946.997 1.104.341 1.682.63c.578.289.973.341.973.341v-.131s-.211.053-.237-.026c-.052-.079.079-.578-.289-.761-.368-.184-1.156-.525-1.919-.63-.788-.105-1.156-.42-1.156-.42ZM140.348 170.592c.078 0 .867.892 1.734 1.286.868.394 1.419.341 1.419.341l.342.289v-.131l-.236-.236s.105-.368-.263-.604-1.472-.63-2.077-.735c-.63-.131-.919-.21-.919-.21ZM143.871 172.769l.316-.289s-.132-.236.315-.446c.447-.21.841-.079 1.813-.315.973-.236 1.577-.656 1.577-.656s-.236.735-1.682 1.234c-1.445.498-1.997.315-1.997.315l-.368.236.026-.079ZM143.898 173.742s.236-.289.315-.342c.079-.052.211-.078.211-.078s-.211-.21 0-.315c.21-.105.893-.132 1.945-.263a6.19 6.19 0 0 0 1.866-.551s-.526.709-1.788 1.05c-1.261.341-1.813.551-1.945.42-.131-.131-.131-.21-.131-.21s-.394.21-.447.367c-.026.184-.026-.078-.026-.078Z" fill="#8A9995"/><path d="M140.322 171.433s1.919.63 2.286.735c.368.105.736.026.894.393.158.368.158.578.158.578l.21.131.053.131-.237-.131s.158.236-.578-.026c-.736-.263-1.104-.525-1.84-.945-.736-.446-.972-.709-.946-.866Z" fill="#8A9995"/><path d="M140.139 172.299s1.63.184 2.287.42c.657.237 1.262.919 1.367 1.129.079.21.157.289.157.289l.079.131s.132.158-.499-.079c-.631-.236-1.078-.708-1.814-1.076-.736-.394-1.577-.814-1.577-.814ZM144.027 174.635s.211-.368.316-.42c.131-.053.236-.079.236-.079s-.078-.21.29-.341c.367-.131 1.051-.053 1.918-.236.841-.184 1.577-.657 1.577-.657s-.999 1.024-2.05 1.313c-1.051.289-1.577.131-1.656.105-.079-.053-.21-.026-.289.052-.079.079-.315.342-.315.342l-.027-.079Z" fill="#8A9995"/><path d="M140.086 173.032s.684.393 1.341.393c.657 0 1.209-.026 1.55.184.342.21.789 1.26.789 1.26l.236.079v.079l-.236-.079s-.079.289-.578 0c-.5-.289-.526-.604-1.525-.788-.946-.21-1.524-.813-1.577-1.128ZM144.081 175.291s.131-.288.21-.367c.079-.079.026-.499.92-.656.893-.184 1.472.052 2.155.052.683 0 1.025-.131 1.025-.131s-.21.289-1.498.472c-1.288.184-1.63.132-2.077.315-.446.158-.446 0-.446 0l-.289.42v-.105ZM144.159 176.025l.158-.079s-.158-.367.236-.577c.395-.21.657.157 2.103-.105 1.446-.263 2.103-.525 2.103-.525s-.526.787-2.024 1.076c-1.498.315-2.366.184-2.392.184-.026.026-.184.026-.184.026Z" fill="#8A9995"/><path d="m144.291 176.839.157-.131s0-.315.237-.368c.237-.052.762.184 2.181-.315 1.42-.498 1.709-.787 1.709-.787s-.605.971-2.129 1.496c-1.551.499-1.998.105-1.998.105l-.157.079v-.079ZM139.981 174.083s.657.604 1.472.761c.814.158 1.918.394 2.207.788.289.393.21.735.21.735l.368.157v.079l-.368-.21s.053.21-.657-.026c-.683-.237-1.419-.683-2.207-1.024-.762-.368-1.104-1.129-1.025-1.26Z" fill="#8A9995"/><path d="M139.77 175.42s.053.289.421.289 1.918-.184 2.47.079c.579.289 1.314 1.05 1.314 1.05l.29.157.052.053-.368-.105s-.026.236-.815-.026c-.788-.263-.657-.473-1.629-.499-.973-.026-2.155-.499-1.735-.998ZM139.849 176.708s1.708-.131 2.523.131c.814.263 1.498.342 1.603.552.079.21.079.315.079.315h.236v.131h-.236s.157.236-.289.157c-.447-.078-1.025-.525-1.972-.656-.946-.131-1.839-.42-1.944-.63ZM144.395 177.6l.131-.079s-.079-.157.132-.21c.21-.052.446.158 2.102-.026s2.366-.446 2.366-.446-.316.656-1.945.866c-1.63.21-1.945.184-2.182.236-.236.053-.315 0-.42-.078-.079-.079-.053-.21-.053-.21h-.131v-.053ZM139.403 178.256s1.051-.709 2.339-.551c1.314.157 2.129.341 2.207.551.079.21.132.368.132.368h.315v.131h-.315s.158.157-.316.21c-.499.052-1.051-.105-2.05-.42-.972-.341-1.971-.473-2.312-.289ZM144.422 178.44h.211s.079-.289.368-.289 1.997.263 2.996-.026c1.025-.289 1.209-.551 1.209-.551s-.368.735-1.288.997c-.92.263-2.917.368-3.128.289-.21-.079-.21-.289-.21-.289l-.158-.026v-.105ZM144.448 179.515h.21s.079-.368.237-.368c.157 0 1.498.236 2.733.131 1.235-.105 1.708-.341 1.708-.341s.211.446-1.209.709c-1.419.262-3.048.367-3.285.236-.236-.131-.131-.289-.131-.289l-.237.053-.026-.131ZM139.638 179.332s1.735-.551 2.839-.315c1.104.236 1.55.341 1.603.499.053.157.237.21.237.21l.078.078s-.315-.105-.315 0c0 .132-.158.237-.762.263-.605 0-1.393-.315-2.392-.42-1.025-.131-1.288-.315-1.288-.315Z" fill="#8A9995"/><path d="M144.973 186.55s.998-3.675 2.155-6.3c1.156-2.625 2.549-6.877 3.548-9.791.999-2.913 1.866-5.276 1.866-6.168.026-.919-.368-.919-.368-.919s.578 0 .447 1.181c-.105 1.05-1.209 4.174-1.814 5.828-.604 1.68-2.286 6.693-2.786 7.901-.473 1.207-1.182 2.835-1.577 4.147-.42 1.313-1.287 4.174-1.287 4.174l-.184-.053Z" fill="#7EA21A"/><path d="M152.621 163.136s-.131.289-.131.421c-.026.131.158-.184.131-.421Z" fill="#7EA21A"/><path d="M152.097 163.636s.315.184.341.105c.027-.052.053-.131.053-.131s-.263.052-.394.026ZM152.805 163.189l-.157.316-.105.158s.105.052.157-.053c.079-.158.105-.421.105-.421ZM152.148 163.739s.184.473.289.552c.105.079.158.026.158.026s-.079-.052-.106-.184c0-.105-.341-.394-.341-.394ZM153.043 163.319s-.315.394-.342.447a1.066 1.066 0 0 0-.052.184s.026.052.131-.053c.079-.105.263-.578.263-.578ZM152.016 163.846s.079.656.21.813c.132.158.316.105.316.105v-.026s-.105 0-.132-.105c-.052-.157-.394-.787-.394-.787ZM153.199 163.557l-.394.656a.581.581 0 0 1-.184.157s.026.132.184.027c.158-.105.394-.84.394-.84ZM153.305 164.238s-.631.683-.683.762c-.026.105-.132.157-.132.157l-.026.053s.079.052.184.026.657-.998.657-.998ZM152.439 165.183s-.079-.026-.053-.131c0-.105-.657-.892-.657-.892s.368.892.447.997c.079.105.184.026.184.026l.079.027v-.027ZM151.466 164.476s.683 1.26.683 1.365c0 .105-.052.158-.052.158l.105.078-.026.027-.105-.079s0 .131-.106.026c-.105-.105-.551-1.417-.499-1.575ZM153.434 164.922s-.972.814-1.025.971c-.052.158-.157.158-.157.158v.026s.105-.079.131 0c.026.079.079.131.237 0 .131-.105.762-.971.814-1.155ZM151.307 164.945s.079 1.077.21 1.497c.131.42.315.393.315.393l.053.053.053-.053s-.053-.078-.053-.183c.026-.132-.473-1.339-.578-1.707ZM153.384 165.682s-1.104.893-1.182 1.024c-.079.131-.105.236-.105.236h-.106l-.026.053h.105s-.052.183.079.131c.158-.053 1.183-1.05 1.235-1.444ZM150.833 165.918s.684 1.47.789 1.417c.079-.052.157-.026.157-.026l.027-.052s-.053-.079-.053-.237c0-.131-.657-1.102-.92-1.102ZM153.306 166.496s-1.078.656-1.235.997c-.158.341-.368.341-.368.341l-.027.053s.132-.105.237-.026c.105.078.105.078.709-.394.579-.446.684-.971.684-.971ZM150.703 166.366s-.079.499.263 1.05.42.604.473.578c.053-.027.105.026.105.026l.026-.053s-.052.027-.078-.288c-.027-.315-.789-1.313-.789-1.313ZM150.284 167.022s-.132.21.105.63c.236.42.42.63.578.787.158.158.236.105.263.079 0-.026.131.105.131.105l.026-.105-.105-.079s.079-.052-.052-.262c-.132-.21-.447-.315-.71-.735-.236-.368-.236-.42-.236-.42ZM153.253 167.336s-.289.315-.684.552c-.394.236-.788.183-.867.42l-.079.21-.184.052-.026.105.184-.079s-.131.237.21.105c.342-.131.578-.262 1.025-.682.447-.446.421-.683.421-.683ZM149.941 167.782s.027.604.473.893c.447.288.526.551.579.525.079-.053.079-.079.079-.079l.052.131.026-.052s-.078-.158-.052-.263c.026-.105-.526-.315-.762-.604-.211-.315-.368-.472-.395-.551ZM153.095 168.203c-.027 0-.973.603-1.262.735-.289.157-.394.183-.421.315-.026.131-.21.105-.21.105l-.052.052h.236s-.105.131.158.131.499-.078.893-.42c.395-.315.658-.918.658-.918Z" fill="#7EA21A"/><path d="M153.017 169.122s-.658.525-1.025.761c-.368.236-.579.341-.658.236l-.078-.105-.342.027.053-.132s.262.053.289 0c.026-.052-.053-.288.499-.472.526-.158 1.051-.368 1.262-.315Z" fill="#7EA21A"/><path d="M149.785 168.256s-.027.604.368 1.076c.394.473.63.604.657.578 0-.027.105.131.105.131v-.079s-.053-.131-.026-.315c.026-.184-.29-.367-.658-.814a9.466 9.466 0 0 1-.446-.577ZM149.549 168.727s.105.788.499 1.391c.394.63.499.342.499.342l.079.131.053-.131-.105-.079s.262-.053.052-.368c-.21-.315-.972-.971-1.077-1.286ZM152.753 169.989s-1.366.105-1.603.315c-.237.21-.289.367-.289.367l-.184.053-.026.105.184-.053s-.079.263.262.131c.368-.131.789-.524 1.131-.629a1.68 1.68 0 0 0 .525-.289ZM149.075 169.621s.578.762.789 1.077c.21.315.341.577.446.525a.146.146 0 0 1 .158.052l.026-.105s-.052.026-.079-.289c-.026-.262-1.13-1.443-1.34-1.26Z" fill="#7EA21A"/><path d="M152.596 170.724s-1.209.578-1.525.709c-.315.132-.499-.079-.499-.079l-.158.053-.052.026s.184-.105.236-.21c.053-.079-.157-.158.473-.315.631-.158 1.341-.395 1.525-.184ZM149.047 169.989s-.079.604.342 1.129c.394.524.578.708.63.682.079-.053.079-.105.079-.105l.132.184.026-.105s-.132-.079-.105-.184c.026-.105-.211-.184-.605-.84-.394-.656-.499-.761-.499-.761ZM152.386 171.326s-.92-.027-1.34.157a1.456 1.456 0 0 0-.578.472l-.237.027-.026.105s.263-.053.236 0c-.026.052-.079.21.421 0 .499-.237 1.366-.788 1.524-.761ZM152.202 171.929s-.946.552-1.367.71c-.421.184-.604.052-.604.052l-.29.053.027-.053.289-.052s-.053-.132.184-.263c.236-.131 1.524-.604 1.761-.447Z" fill="#7EA21A"/><path d="m150.073 172.323-.132-.184s.132-.262-.052-.525c-.184-.262-.789-.446-.999-.656a2.08 2.08 0 0 1-.342-.473s.027.578.316.84c.289.289.604.525.788.709.184.184.263.184.263.184l.132.157.026-.052ZM149.888 172.847l-.105-.184s.052-.315-.394-.604c-.447-.289-.552-.289-.789-.577-.21-.289-.236-.368-.236-.368s.157.63.552 1.103c.394.472.841.551.841.551l.105.131.026-.052ZM151.938 172.427s-.788.709-1.235.919c-.447.21-.762.105-.762.105l-.263.053.079-.079.158-.079s.026-.21.289-.367c.289-.132 1.577-.657 1.734-.552Z" fill="#7EA21A"/><path d="M148.022 171.641s.21.918.631 1.312c.42.394.998.578.998.578l.053-.053s-.131 0-.131-.131c.026-.131-.132-.289-.658-.814-.499-.525-.893-.892-.893-.892ZM151.833 173.452s-.972.5-1.472.605c-.499.105-.657 0-.657 0l-.236.131.026-.105.184-.105s-.052-.342.421-.421c.499-.079 1.734-.105 1.734-.105ZM147.76 172.507s-.052.577.368.787c.421.21.815.42.999.657.21.236.315.393.315.393v-.105l-.105-.131s.237-.157-.026-.499c-.263-.341-.92-.315-1.156-.551-.237-.236-.395-.551-.395-.551ZM151.754 174.081s-.499.341-1.183.498c-.683.158-.998.447-1.104.394-.078-.052-.262-.079-.262-.079l.026-.105s.131-.026.21-.105c.079-.078-.052-.262.316-.341.367-.079 1.34-.184 1.576-.21.316-.052.421-.052.421-.052Z" fill="#7EA21A"/><path d="M149.231 174.425c.053-.184-.289-.42-.788-.552-.5-.131-.736-.131-.868-.315a2.206 2.206 0 0 1-.21-.367s-.158.446.289.709c.447.262.71.315.946.498.263.184.342.394.421.394.079 0 .131-.131.131-.131l.079.21.026-.105s-.078-.158-.026-.341ZM151.518 174.817s-.342.447-.894.525c-.552.079-.736 0-.946.184-.21.184-.762.289-.762.289l.052-.105.211-.079s-.237-.184.21-.42c.447-.236.631-.315 1.156-.262.526.052.894-.053.973-.132ZM149.023 175.527l-.158-.262s.131-.053-.079-.394c-.21-.315-.604-.341-1.051-.525-.447-.184-.684-.499-.684-.499s0 .551.447.866c.447.289.815.447.999.657.158.21.394.052.394.052l.105.21.027-.105ZM146.603 174.764s.263.709.815 1.076c.552.368.867.683.999.657.105-.027.157-.079.157-.079l.079.131.027-.105-.106-.105s.237-.157-.078-.446c-.316-.289-.947-.158-1.341-.578l-.552-.551Z" fill="#7EA21A"/><path d="M151.308 175.448s-.316.578-.815.63c-.5.053-.736.079-1.13.184-.395.105-.657.105-.657.105l.026-.105s.105.079.158.026c.052-.052.105-.472.368-.551.262-.079.788-.184 1.261-.131.499.026.789-.158.789-.158ZM150.967 176.287c-.053-.026-.736.525-1.314.683-.579.157-.92.026-.92.026l-.263.157.026-.105.21-.157s.027-.315.289-.42c.263-.131 1.026-.236 1.393-.21.395.026.579.026.579.026ZM148.363 177.363l-.105-.289s.131-.157-.079-.42c-.21-.236-.473-.236-.973-.577-.499-.341-.736-.814-.736-.814s-.052.63.684 1.286c.736.657 1.077.604 1.077.604l.158.263-.026-.053ZM148.1 178.125s-.079-.263-.105-.315c-.026-.053-.105-.105-.105-.105s.158-.131.079-.263c-.079-.131-.473-.262-1.078-.551a3.073 3.073 0 0 1-.946-.761s.131.63.762 1.129c.657.498.92.761 1.025.682.105-.079.132-.131.132-.131s.184.236.157.367c.027.132.079-.052.079-.052Z" fill="#7EA21A"/><path d="M150.755 176.971s-1.261.131-1.524.157c-.237.026-.447-.105-.631.158a1.83 1.83 0 0 0-.236.42l-.158.052-.053.079.184-.053s-.157.158.342.079.762-.21 1.314-.42.736-.341.762-.472Z" fill="#7EA21A"/><path d="M150.649 177.678s-.999-.157-1.446-.078c-.447.078-.972.498-1.077.63a2.318 2.318 0 0 1-.158.183l-.079.079s-.105.105.316.026c.42-.078.788-.367 1.314-.525.525-.131 1.13-.315 1.13-.315ZM147.786 178.807s-.027-.315-.079-.394c-.053-.052-.132-.105-.132-.105s.106-.131-.078-.315c-.184-.157-.605-.236-1.052-.525-.447-.289-.736-.814-.736-.814s.316.998.868 1.418c.525.42.893.394.946.394.052-.027.131 0 .158.078l.105.315v-.052Z" fill="#7EA21A"/><path d="M150.493 178.256s-.499.184-.893.052c-.368-.131-.71-.236-.946-.131-.237.105-.762.84-.762.84l-.158.026-.026.053.157-.026s-.026.236.342.105c.368-.132.473-.368 1.077-.342.605.027 1.104-.341 1.209-.577ZM147.603 179.307s0-.236-.027-.315c-.026-.079.106-.394-.367-.682-.474-.289-.868-.21-1.262-.342-.394-.131-.552-.288-.552-.288s.053.262.762.63c.71.367.92.393 1.13.63.211.21.263.078.263.078l.053.368v-.079ZM147.364 179.855l-.079-.105s.184-.262 0-.498c-.184-.237-.42 0-1.209-.473-.788-.472-1.103-.787-1.103-.787s.105.708.893 1.207c.789.499 1.314.578 1.341.578a.73.73 0 0 0 .157.078Z" fill="#7EA21A"/><path d="m147.075 180.487-.052-.132s.078-.262-.053-.341c-.131-.079-.499 0-1.209-.63-.71-.656-.788-.919-.788-.919s.105.893.867 1.549c.762.683 1.13.446 1.13.446l.079.105.026-.078ZM150.281 179.096s-.526.341-1.051.315c-.526-.026-1.209-.052-1.472.21-.263.263-.316.525-.316.525l-.262.053-.027.052.263-.079s-.079.158.394.105c.473-.052.999-.262 1.551-.42.552-.105.946-.656.92-.761Z" fill="#7EA21A"/><path d="M150.073 180.198s-.106.21-.316.158c-.21-.079-1.051-.5-1.472-.368-.42.131-1.025.578-1.025.578l-.21.079-.026.026.236-.026s-.052.21.473.131c.526-.079.5-.263 1.078-.105.605.105 1.367-.026 1.262-.473ZM149.706 181.197s-.946-.42-1.498-.368c-.552.079-.973 0-1.078.132-.105.131-.131.236-.131.236l-.132-.052-.026.105.132.052s-.158.158.131.184c.289.027.736-.21 1.314-.157.578.052 1.183.026 1.288-.132ZM146.839 181.063l-.053-.078s.079-.105-.026-.184-.289.052-1.235-.394c-.92-.446-1.262-.761-1.262-.761s.027.577.92 1.05c.894.472 1.078.499 1.209.577.132.079.184.053.263.027.079-.053.079-.158.079-.158l.079.026.026-.105ZM149.573 182.508s-.421-.735-1.236-.867c-.814-.131-1.314-.105-1.419.027-.105.131-.157.262-.157.262l-.184-.052-.027.105.184.052s-.131.105.132.21c.263.131.63.105 1.288.026.657-.052 1.261 0 1.419.237ZM146.602 181.722l-.105-.027s.027-.236-.131-.288c-.158-.053-1.235-.158-1.735-.578-.499-.42-.578-.656-.578-.656s.026.656.499 1.024c.474.367 1.604.813 1.761.787.158-.026.184-.184.184-.184h.105v-.078ZM146.314 182.56l-.105-.026s.053-.315-.053-.341c-.105-.026-.946-.105-1.629-.394-.683-.289-.894-.577-.894-.577s-.236.315.526.787c.762.473 1.682.84 1.84.788.157-.053.131-.21.131-.21l.132.078.052-.105ZM149.153 183.297s-.868-.762-1.577-.762c-.71-.026-.999 0-1.052.105-.079.131-.184.105-.184.105l-.079.053s.211-.027.184.052c-.026.105.027.211.395.342.341.105.893 0 1.498.105.604.105.815 0 .815 0Z" fill="#7EA21A"/><path d="M148.258 198.759h-7.779l-1.446-15.382h10.671l-1.446 15.382Z" fill="#3D211C"/></svg>