<svg width="375" height="307" fill="none" xmlns="http://www.w3.org/2000/svg"><path d="M169.732 53.439c18.161 3.435 52.381-66.68 90.281-51.21 37.899 15.47 10.039 65.317 23.549 76.487 13.509 11.17 50.515-23.206 66.074 12.9 15.559 36.107-8.095 74.783-8.437 80.788-.342 6.004 42.657 38.282 30.724 82.727-11.932 44.445-170.389 48.745-226.949 50.449-56.56 1.705-132.175 1.574-143.318-44.759-11.144-46.333 39.476-86.687 44.154-99.64 4.678-12.953-37.663-58.08 15.454-113.485 41.027-42.819 90.307 2.308 108.468 5.743Z" fill="#9ECBDD"/><path d="M233.232 128.955s-3.259-6.293 4.153-7.001c-.763-5.008 6.491-12.559 19.081-9.334 2.128-5.454 14.14-15.077 22.497-3.357 15.928-6.66 18.188 2.937 16.059 4.668 12.353-2.229 10.171 6.214 8.095 7.158 16.348-3.487 14.087 7.866 14.087 7.866h-83.972ZM50.462 115.295s-1.366-3.488 1.735-3.881c-.316-2.78 2.707-6.949 7.963-5.166.894-3.015 5.914-8.338 9.383-1.861 6.65-3.697 7.596 1.625 6.702 2.569 5.152-1.232 4.258 3.435 3.365 3.96 6.833-1.941 5.887 4.352 5.887 4.352H50.462v.027Z" fill="#fff"/><path d="M1.683 260.768c11.144 46.333 86.785 46.49 143.318 44.76 56.534-1.731 214.991-6.005 226.95-50.45 8.121-30.233-9.173-54.854-20.974-69.381H27.203c-15.06 19.089-32.537 45.913-25.52 75.071Z" fill="#3D3B38"/><path d="M12.589 206.728C3.337 222.591-3.05 241.156 1.68 260.769c11.144 46.333 86.785 46.49 143.319 44.76 56.534-1.731 214.991-6.005 226.949-50.45 4.994-18.591.368-35.057-6.649-48.351H12.589Z" fill="#8A9995"/><path d="M115.459 190.235c.631-.158 1.288-.21 1.918-.263 7.675-.734 15.323-1.494 22.998-2.176.919-.079 1.103-.393 1.077-1.232-.052-1.574-.026-3.121-.026-4.72h5.361c.027.341.053.603.053.891.026.289.053.551.053.813 1.866.289 1.866.289 1.866-1.442v-25.828c.709-.026 1.235-.052 1.761-.078.052-.42.078-.735.105-1.075.289-.027.552-.079.788-.079 1.998 0 1.998 0 2.628-1.888.158-.472.368-.682.868-.655.736.052 1.445 0 2.286 0v-10.515c.605-.026 1.104-.053 1.656-.079.053-.577.105-1.075.184-1.678h2.891v-2.806h1.525v23.442c.578.026 1.051.079 1.577.105v1.495h2.785c.106.367.184.629.263.865.579.026 1.078.052 1.682.078v5.586c.71 0 1.341.052 1.945-.027.71-.078 1.104.184 1.446.787.158.288.631.472.972.524.526.079 1.104 0 1.63.027.184 0 .394.131.578.209.289.131.526.315.815.394.289.078.631.052 1.025.078v11.983h3.338v-4.326h5.361v4.195c1.814-.105 1.971-.262 1.971-1.835v-8.548h5.861v3.985c0 1.364.237 1.6 1.761 1.757v-6.109a44.523 44.523 0 0 1-.814-.158v-1.258h1.682c.079-.131.131-.158.131-.158.026-3.303.026-6.607.026-9.937 0-.158-.105-.446-.184-.472-.946-.184-.394-.813-.473-1.285.5-.053.894-.079 1.42-.131v-2.99c.446-.052.788-.104 1.13-.131.052-.367.105-.655.157-.97h1.052c.079.367.131.682.184.97h2.707c.052-.393.105-.681.184-1.022.394.026.709.026 1.051.052.053.367.105.656.184.997h2.681c.052-.367.105-.682.184-1.023.394.026.736.026 1.025.052.079.42.158.708.21.997h2.26c.053-.367.106-.682.132-.944h1.051c.079.367.132.682.184.97h2.523c.027-.341.079-.655.105-.996h1.078c.079.367.158.681.237.996h2.207c.053-.341.105-.655.132-.996h1.077c.053.367.105.655.158.97h2.707c.079-.367.131-.682.184-.97h1.025c.053.341.105.655.158.996h2.733c.026-.367.079-.655.105-.996h1.104c.053.341.105.655.158.996.368.026.709.079 1.156.105v3.015c.5.053.92.079 1.393.131-.131.525.289 1.154-.578 1.312-.079.026-.131.393-.131.603-.027.708 0 1.416 0 2.123v7.762c.683.052 1.261.079 1.892.105v1.18c-.315.052-.552.105-.867.157 0 .996-.053 1.967.026 2.911.026.472.315.944.499 1.389.105-.026.237-.052.342-.078v5.899c.447.053.867.105 1.367.158v2.071c.814-.314 1.156-.734 1.13-1.547-.079-1.363-.027-2.753-.027-4.169h3.522v8.365h1.236v-5.402h2.786c0 .918-.027 1.783.026 2.648 0 .236.131.577.315.682.684.367 1.419.682 2.313 1.075v-5.139h4.994c0 .472-.053.891.026 1.311.026.262.184.655.342.682.893.209.841.839.814 1.494-.026.42 0 .813 0 1.259h2.55v-1.888h2.444v1.835c.71.053.946-.209.92-.839-.053-1.258 0-2.543 0-3.802h2.681c0 .656-.026 1.233.026 1.783.026.236.184.63.342.682.92.21.867.865.841 1.573-.026.315 0 .63 0 .944.315-.131.394-.236.499-.393 3.496-5.323 7.018-10.62 10.513-15.942.526-.787 1.052-1.548 1.525-2.334.499-.839.236-1.836-.368-2.517-.237-.263-.158-.813-.211-1.233.395-.105.684-.157.947-.236v-2.989c-.29-.079-.526-.157-.789-.21.92-.183 1.814-.209 2.707-.157.5.026.841-.105 1.051-.603.421-.944.92-1.836 1.315-2.78 2.023-4.798 3.259-9.806 4.389-14.867.184-.813.026-1.495-.605-1.835-1.182-.656-.552-1.6-.683-2.465.604-.026 1.078-.053 1.551-.079a19.381 19.381 0 0 1-.158-.236c.289-.288.578-.577.841-.891.131-.184.236-.446.263-.708 1.34-7.578 2.391-15.182 2.733-22.865.394-8.443.578-16.886.762-25.356.105-4.012.027-8.023.027-12.035-.894-.367-1.052-1.05-.684-3.042.579-.026 1.183-.052 1.761-.079-1.84-.813-.92-2.333-1.13-3.33.394-.288.657-.472.894-.681.42-.341.762-.813 1.235-1.076.552-.288.657-.655.657-1.232a549.211 549.211 0 0 1 0-9.256c0-.288.131-.577.21-.84l.395.08v1.022c0 3.016-.001 6.057.026 9.073 0 .314.157.734.394.97.499.524 1.078.996 1.63 1.468.21.158.499.21.788.341-.158 1.18.605 2.648-1.078 3.461.579.053 1.157.079 1.788.132.026.34.052.576.052.838 0 .472.026.97-.026 1.443-.026.183-.184.34-.289.524-.158.288-.473.577-.473.865-.027 14.946-.211 29.919 1.393 44.812.315 2.832.604 5.69 1.104 8.522.473 2.727.236 5.664 2.076 8.102.394.027.867.053 1.419.079v1.967c-.368.262-.657.419-.92.629-.867.655-.447 1.495-.263 2.281 1.262 5.69 2.708 11.301 5.283 16.572.394.787.815 1.206 1.735 1.101.709-.078 1.419-.026 2.129 0 .052 0 .105.105.21.184-.315.078-.578.157-.815.21v2.962c.316.079.605.158.92.263v.996c-.289.262-.736.498-.736.682.079.839.053 1.809.473 2.465 2.813 4.379 5.704 8.705 8.568 13.058 1.025 1.547 2.024 3.094 3.049 4.615.21-.341.263-.63.184-.892m-12.537 2.701c-.289-.656-.525-1.259-.814-1.809-1.446-3.016-3.128-5.9-5.52-8.312-5.966-6.005-14.902-5.848-20.658.34-2.549 2.754-4.31 5.979-5.808 9.361-.053.105-.053.236-.079.42h32.879Zm-88.44.026c.026-.262.105-.498.105-.76 0-4.72.026-9.44-.026-14.186-.027-2.334-1.656-4.143-3.838-4.326-2.391-.21-4.625 1.573-4.678 3.959-.079 4.982-.026 9.964-.026 14.946 0 .079.052.184.105.341 2.838.026 5.572.026 8.358.026Zm77.008-27.375a5530.571 5530.571 0 0 0-2.944-18.643h-4.258a5214.884 5214.884 0 0 1-2.944 18.643h10.146Zm-7.018-23.677h3.942c-.657-4.93-1.314-9.833-1.971-14.763-.657 4.904-1.314 9.781-1.971 14.763Z" fill="#749DC1"/><path d="M120.374 66.26h-50.62v119.279h50.62V66.259Z" fill="#BC6A4D"/><path d="M120.084 66.26h-50.33V88.6h50.33V66.26Z" fill="#42382C"/><path d="M121.819 178.563H67.861v8.129h53.958v-8.129ZM72.093 63.218h-2.34V88.6h2.34V63.218ZM120.348 63.218h-2.339V88.6h2.339V63.218Z" fill="#494136"/><path d="M120.084 86.134h-50.33V88.6h50.33v-2.466Z" fill="#494136"/><path d="M106.707 58.708h-4.074v15.523h4.074V58.708ZM112.805 58.708h-4.074v15.523h4.074V58.708Z" fill="#DD7858"/><path d="M81.817 110.075H76.01V97.751c0-1.6 1.314-2.91 2.917-2.91a2.924 2.924 0 0 1 2.918 2.91v12.324h-.027ZM92.305 110.075h-5.808V97.751c0-1.6 1.314-2.91 2.917-2.91a2.924 2.924 0 0 1 2.917 2.91v12.324h-.026ZM102.765 110.075h-5.808V97.751c0-1.6 1.314-2.91 2.917-2.91a2.925 2.925 0 0 1 2.918 2.91v12.324h-.027ZM113.251 110.075h-5.808V97.751c0-1.6 1.314-2.91 2.917-2.91a2.924 2.924 0 0 1 2.917 2.91v12.324h-.026ZM81.817 132.729H76.01v-12.324a2.924 2.924 0 0 1 2.917-2.91 2.924 2.924 0 0 1 2.918 2.91v12.324h-.026ZM92.305 132.729h-5.808v-12.324a2.924 2.924 0 0 1 2.917-2.91 2.924 2.924 0 0 1 2.918 2.91v12.324h-.027ZM102.765 132.729h-5.808v-12.324a2.924 2.924 0 0 1 2.917-2.91 2.924 2.924 0 0 1 2.918 2.91v12.324h-.027ZM113.251 132.729h-5.808v-12.324a2.924 2.924 0 0 1 2.917-2.91 2.925 2.925 0 0 1 2.918 2.91v12.324h-.027ZM81.817 156.224H76.01V143.9a2.924 2.924 0 0 1 2.917-2.91 2.924 2.924 0 0 1 2.918 2.91v12.324h-.026ZM92.305 156.224h-5.808V143.9a2.924 2.924 0 0 1 2.917-2.91 2.924 2.924 0 0 1 2.918 2.91v12.324h-.027ZM102.765 156.224h-5.808V143.9a2.924 2.924 0 0 1 2.917-2.91 2.924 2.924 0 0 1 2.918 2.91v12.324h-.027ZM113.251 156.224h-5.808V143.9a2.924 2.924 0 0 1 2.917-2.91 2.925 2.925 0 0 1 2.918 2.91v12.324h-.027ZM81.817 163.042H76.01v12.323h5.808v-12.323ZM92.305 163.042h-5.808v12.323h5.808v-12.323ZM102.765 163.042h-5.808v12.323h5.808v-12.323ZM113.225 163.042h-5.808v12.323h5.808v-12.323Z" fill="#407889"/><path d="M184.344 109.367h-50.751v77.326h50.751v-77.326Z" fill="#9B9B9B"/><path d="M185.66 178.563h-53.511v8.129h53.511v-8.129Z" fill="#63594C"/><path d="M177.538 164.196h-38.11v11.17h38.11v-11.17Z" fill="#fff"/><path d="M180.586 160.577H136.51v10.016h44.076v-10.016Z" fill="#FFA539"/><path d="M185.659 106.3h-54.247v6.372h54.247V106.3ZM185.66 135.903h-53.511v1.889h53.511v-1.889Z" fill="#63594C"/><path d="M138.718 172.796c1.22 0 2.208-.986 2.208-2.203a2.205 2.205 0 0 0-2.208-2.202 2.205 2.205 0 0 0-2.208 2.202c0 1.217.989 2.203 2.208 2.203Z" fill="#FFA539"/><path d="M143.107 172.849c1.22 0 2.208-.986 2.208-2.203a2.205 2.205 0 0 0-2.208-2.202 2.205 2.205 0 0 0-2.207 2.202c0 1.217.988 2.203 2.207 2.203ZM147.524 172.821a2.205 2.205 0 0 0 2.208-2.202 2.206 2.206 0 0 0-2.208-2.203 2.206 2.206 0 0 0-2.208 2.203c0 1.216.989 2.202 2.208 2.202Z" fill="#FFA539"/><path d="M151.913 172.874c1.22 0 2.208-.986 2.208-2.202a2.205 2.205 0 0 0-2.208-2.203 2.205 2.205 0 0 0-2.207 2.203c0 1.216.988 2.202 2.207 2.202Z" fill="#FFA539"/><path d="M156.328 172.849a2.206 2.206 0 0 0 2.208-2.203 2.205 2.205 0 0 0-2.208-2.202 2.205 2.205 0 0 0-2.208 2.202c0 1.217.989 2.203 2.208 2.203Z" fill="#FFA539"/><path d="M160.717 172.9c1.22 0 2.208-.986 2.208-2.203a2.205 2.205 0 0 0-2.208-2.202 2.205 2.205 0 0 0-2.207 2.202c0 1.217.988 2.203 2.207 2.203Z" fill="#FFA539"/><path d="M165.132 172.874a2.205 2.205 0 0 0 2.208-2.202 2.206 2.206 0 0 0-2.208-2.203 2.206 2.206 0 0 0-2.208 2.203c0 1.216.989 2.202 2.208 2.202Z" fill="#FFA539"/><path d="M169.521 172.927c1.22 0 2.208-.986 2.208-2.202a2.205 2.205 0 0 0-2.208-2.203 2.206 2.206 0 0 0-2.208 2.203c0 1.216.989 2.202 2.208 2.202ZM173.938 172.9a2.206 2.206 0 0 0 2.208-2.203 2.205 2.205 0 0 0-2.208-2.202 2.205 2.205 0 0 0-2.208 2.202c0 1.217.989 2.203 2.208 2.203Z" fill="#FFA539"/><path d="M178.327 172.953a2.206 2.206 0 0 0 2.208-2.203 2.206 2.206 0 0 0-2.208-2.203 2.206 2.206 0 0 0-2.208 2.203c0 1.216.989 2.203 2.208 2.203Z" fill="#FFA539"/><path d="M145.525 132.729h-5.808v-12.324a2.924 2.924 0 0 1 2.917-2.91 2.924 2.924 0 0 1 2.918 2.91v12.324h-.027ZM156.013 132.729h-5.808v-12.324a2.924 2.924 0 0 1 2.917-2.91 2.925 2.925 0 0 1 2.918 2.91v12.324h-.027ZM166.473 132.729h-5.808v-12.324a2.924 2.924 0 0 1 2.917-2.91 2.924 2.924 0 0 1 2.918 2.91v12.324h-.027ZM176.933 132.729h-5.808v-12.324a2.924 2.924 0 0 1 2.917-2.91 2.924 2.924 0 0 1 2.918 2.91v12.324h-.027ZM145.525 157.089h-5.808v-12.324a2.925 2.925 0 0 1 2.917-2.911 2.925 2.925 0 0 1 2.918 2.911v12.324h-.027ZM156.013 157.089h-5.808v-12.324a2.925 2.925 0 0 1 2.917-2.911 2.926 2.926 0 0 1 2.918 2.911v12.324h-.027ZM166.473 157.089h-5.808v-12.324a2.925 2.925 0 0 1 2.917-2.911 2.925 2.925 0 0 1 2.918 2.911v12.324h-.027ZM176.933 157.089h-5.808v-12.324a2.925 2.925 0 0 1 2.917-2.911 2.925 2.925 0 0 1 2.918 2.911v12.324h-.027Z" fill="#407889"/><path d="M352.922 188.165a98.476 98.476 0 0 0-1.972-2.44H27.203a160.14 160.14 0 0 1-1.92 2.44h327.639Z" fill="#fff"/><path d="M67.94 229.697h156.249v-64.006H80.687c-5.703 0-10.33 4.615-10.33 10.305l-2.417 53.701Z" fill="#0C96FD"/><path d="M75.43 177.833s-6.886.209-9.015 4.955c-2.129 4.746-2.34 11.538-.71 13.557s6.597 2.019 6.597 2.019l3.128-20.531Z" fill="#7D009B"/><path d="M74.615 199.858c.552 1.966-5.467 2.727-5.467 2.727l.132-2.727s4.836-1.809 5.335 0Z" fill="#F1F3F2"/><path d="m230.838 142.827-34.692-.629v87.473h136.09c.132-.419 5.388-30.102 4.968-34.507-.421-4.431-10.356-12.691-24.811-16.257-14.455-3.566-40.265-9.282-41.132-9.544-.841-.289-40.423-26.536-40.423-26.536Z" fill="#0C96FD"/><path d="M69.148 208.145c-.289 3.566 2.76 21.527 2.76 21.527h260.355c.105-.367 2.733-14.395 3.732-23.861 0 0-34.719-13.74-54.195-14.815-19.475-1.075-47.045 9.649-66.968 8.312-19.922-1.337-45.468-12.691-67.992-12.691-22.525 0-77.692 21.528-77.692 21.528Z" fill="#1D7DCC"/><path d="m250.971 231.48 81.843-1.102s2.261-1.992 3.68-7.551-.946-12.691-.946-12.691-1.761 3.12-8.989 4.405c-7.228 1.285-34.167.577-34.167.577l-22.971 11.275-19.686-.472 1.236 5.559ZM257.227 166.216l-25.678-18.538-30.067-.629.736 17.384 55.009 1.783Z" fill="#2D2D2D"/><path d="M277.909 207.146h-.262v-24.071l-20.501-16.755.158-.21 20.605 16.834v24.202Z" fill="#024168"/><path d="M253.389 164.643c-.052-1.311-2.129-4.825-5.046-4.825-2.917-.026-2.917 8.548-.92 9.125 1.998.577 6.124-1.311 5.966-4.3Z" fill="#F1F3F2"/><path d="M197.959 229.671h-.263v-37.969l4.258-27.296.262.053-4.257 27.27v37.942Z" fill="#024168"/><path d="M315.153 179.668s8.857 5.795 9.987 8.941c1.13 3.147 2.55 5.978 3.259 6.136.71.131 8.805.419 8.805.419s.893-6.948-.263-7.761c-1.156-.787-18.45-9.413-21.788-7.735Z" fill="#F1F3F2"/><path d="M317.281 202.873h8.568c.263 0 .499-.21.499-.499v-3.304a.498.498 0 0 0-.499-.498h-8.568c-.263 0-.5.21-.5.498v3.304c0 .263.237.499.5.499Z" fill="#878FB3"/><path d="M217.803 181.162c0 4.09 12.773 4.09 12.773.314.027-4.562-12.773-3.933-12.773-.314Z" fill="#1D7DCC"/><path d="M212.415 183.023h13.825c.21 0 .394-.183.394-.393v-2.622a.403.403 0 0 0-.394-.393h-13.825a.403.403 0 0 0-.394.393v2.622c0 .21.157.393.394.393Z" fill="#878FB3"/><path d="M202.796 147.049h-1.314v16.912h1.314v-16.912ZM250.078 230.09a28.495 28.495 0 0 1-.5-5.218c0-15.654 12.721-28.345 28.412-28.345 15.69 0 28.411 12.691 28.411 28.345 0 1.783-.184 3.514-.499 5.218h-55.824Z" fill="#024168"/><path d="M277.989 245.848c13.252 0 23.996-10.718 23.996-23.94 0-13.222-10.744-23.94-23.996-23.94-13.253 0-23.996 10.718-23.996 23.94 0 13.222 10.743 23.94 23.996 23.94Z" fill="#000"/><path d="M277.989 238.007c8.913 0 16.138-7.208 16.138-16.1 0-8.891-7.225-16.099-16.138-16.099-8.912 0-16.137 7.208-16.137 16.099 0 8.892 7.225 16.1 16.137 16.1Z" fill="#606060"/><path d="M277.99 233.156c6.227 0 11.275-5.036 11.275-11.248 0-6.213-5.048-11.249-11.275-11.249s-11.275 5.036-11.275 11.249c0 6.212 5.048 11.248 11.275 11.248Z" fill="#000"/><path d="M291.657 230.614a16.193 16.193 0 0 1-2.234 2.806 19.208 19.208 0 0 1-2.576 2.097l-22.288-22.34a15.02 15.02 0 0 1 2.103-2.57 16.174 16.174 0 0 1 2.812-2.229l22.183 22.236Z" fill="#A8A9AD"/><path d="M287.03 208.535c.999.656 1.919 1.39 2.786 2.281a15.895 15.895 0 0 1 2.05 2.596l-22.708 21.921a16.097 16.097 0 0 1-2.549-2.124 14.999 14.999 0 0 1-2.182-2.858l22.603-21.816Z" fill="#A8A9AD"/><path d="M98.322 218.764H77.638v-7.893H66.074s-.5 3.225-3.943 3.933c-.499 7.185-.052 14.868 5.782 14.868h29.174l1.235-10.908Z" fill="#2D2D2D"/><path d="M95.01 230.09a28.548 28.548 0 0 1-.5-5.218c0-15.654 12.721-28.345 28.412-28.345 15.691 0 28.412 12.691 28.412 28.345 0 1.783-.184 3.514-.5 5.218H95.01Z" fill="#024168"/><path d="M122.921 245.848c13.253 0 23.996-10.718 23.996-23.94 0-13.222-10.743-23.94-23.996-23.94-13.252 0-23.996 10.718-23.996 23.94 0 13.222 10.744 23.94 23.996 23.94Z" fill="#000"/><path d="M122.922 238.007c8.912 0 16.137-7.208 16.137-16.1 0-8.891-7.225-16.099-16.137-16.099-8.913 0-16.138 7.208-16.138 16.099 0 8.892 7.225 16.1 16.138 16.1Z" fill="#606060"/><path d="M122.922 233.156c6.227 0 11.275-5.036 11.275-11.248 0-6.213-5.048-11.249-11.275-11.249s-11.275 5.036-11.275 11.249c0 6.212 5.048 11.248 11.275 11.248Z" fill="#000"/><path d="M136.589 230.614a16.193 16.193 0 0 1-2.234 2.806 19.208 19.208 0 0 1-2.576 2.097l-22.287-22.34a15.013 15.013 0 0 1 2.102-2.57 16.218 16.218 0 0 1 2.813-2.229l22.182 22.236Z" fill="#A8A9AD"/><path d="M131.963 208.535a15.95 15.95 0 0 1 4.836 4.877l-22.708 21.921a16.103 16.103 0 0 1-2.55-2.124 14.952 14.952 0 0 1-2.181-2.858l22.603-21.816Z" fill="#A8A9AD"/><path d="M178.562 243.516c-4.704 0-9.645-.708-11.17-2.177-3.18-3.015-4.888-7.368-5.072-12.9-.21-6.398 3.311-13.871 4.599-15.864 2.208-3.409 9.041-3.383 13.115-3.383h.5c3.521 0 9.409 0 11.301 4.012 1.787 3.75 1.998 9.361 1.577 13.347-.053.55-1.393 13.399-5.94 15.68-1.682.839-5.23 1.285-8.91 1.285Zm-10.907-30.469c-1.209 1.862-4.652 9.256-4.468 15.365.158 5.297 1.787 9.44 4.784 12.298 2.444 2.308 15.638 2.465 19.133.734 3.312-1.652 5.02-10.514 5.467-14.998.368-3.697.21-9.282-1.498-12.875-1.551-3.251-6.229-3.513-10.539-3.513h-.5c-3.627 0-10.408 0-12.379 2.989Z" fill="#9B7A56"/><path d="M185.554 232.687c1.787-1.888 6.413 0 6.413 0s-1.866 7.604-3.811 9.937c-1.945 2.334-9.383 3.75-12.958 4.038-3.574.289-13.824.105-17.504-2.7-3.679-2.806-3.758-6.844-3.574-9.65.184-2.805 1.656-4.431 2.891-4.326 1.261.105 5.887.97 5.887.97s.578 4.562 2.182 6.817c1.603 2.255 1.971 3.986 5.598 4.563 3.627.551 9.33.708 9.33.708s3.995-8.732 5.546-10.357Z" fill="#9B7A56"/><path d="M170.1 242.178a.17.17 0 0 1-.158-.158l2.524-31.334c0-.078.078-.131.157-.131s.132.079.132.157l-2.524 31.335c0 .078-.052.131-.131.131ZM184.135 242.834c-.105 0-.157-.079-.131-.158l4.521-31.229c0-.079.078-.131.157-.131s.132.079.132.157l-4.521 31.23c-.026.078-.079.131-.158.131ZM177.957 242.833c-.079 0-.131-.052-.157-.131 0-.131-.526-12.586 3.154-32.593.026-.078.078-.131.157-.105.079.027.132.079.105.158-3.679 20.006-3.154 32.409-3.154 32.54.053.052-.026.131-.105.131Z" fill="#9B7A56"/><path d="m190.153 211.867-19.844-1.023c-.078 0-.131-.079-.131-.158 0-.078.079-.131.158-.131l19.843 1.023c.079 0 .131.079.131.158-.026.078-.078.131-.157.131ZM191.31 213.257l-23.392-1.076c-.079 0-.131-.079-.131-.157 0-.079.079-.131.158-.131l23.365 1.075c.079 0 .131.079.131.157.026.079-.052.132-.131.132ZM191.968 214.805l-24.627-1.259c-.079 0-.132-.079-.132-.158 0-.078.079-.131.158-.131l24.627 1.259c.079 0 .131.079.131.158s-.079.131-.157.131ZM188.286 216.351c-2.391 0-5.466-.079-7.727-.341-4.284-.525-13.509-1.443-13.588-1.443-.079 0-.131-.078-.131-.157s.079-.131.158-.131c.105 0 9.33.918 13.614 1.443 4.258.524 11.328.288 11.38.288.079 0 .158.053.158.131 0 .079-.053.158-.132.158-.078 0-1.655.052-3.732.052ZM186.158 217.767c-1.787 0-3.785-.052-5.782-.21-5.966-.472-14.114-1.626-14.193-1.652-.078 0-.131-.079-.131-.158 0-.078.079-.131.158-.131s8.226 1.154 14.166 1.653c5.94.472 11.88 0 11.932 0 .079 0 .158.052.158.131 0 .079-.053.157-.131.157 0 0-2.629.21-6.177.21ZM188.392 219.079c-2.076 0-4.862-.052-8.121-.288-7.175-.499-14.587-1.627-14.64-1.653-.078 0-.131-.079-.131-.157 0-.079.079-.131.158-.131s7.464 1.154 14.613 1.626c7.149.498 12.011.184 12.063.184.079 0 .158.052.158.131 0 .078-.052.157-.131.157 0 .053-1.472.131-3.969.131ZM188.078 220.678c-2.129 0-4.889-.079-7.937-.393-7.07-.682-14.955-1.784-15.034-1.784-.079 0-.131-.079-.131-.157 0-.079.078-.132.157-.132s7.938 1.102 15.008 1.784c7.07.682 12.431.236 12.484.236.079 0 .157.053.157.131 0 .079-.052.158-.131.158 0 .026-1.761.157-4.573.157ZM192.045 221.884c-1.656 0-6.413-.026-12.405-.236-7.438-.262-14.929-1.679-14.981-1.679-.079-.026-.132-.078-.106-.157.027-.079.079-.131.158-.105.079.026 7.543 1.417 14.955 1.679s12.957.236 13.01.236c.079 0 .131.052.157.131 0 .079-.052.157-.131.157-.053-.026-.263-.026-.657-.026ZM191.888 223.247c-1.551 0-5.493-.026-12.011-.236-8.647-.289-15.639-1.784-15.717-1.784-.079-.026-.132-.105-.106-.184.027-.078.106-.131.184-.105.079.027 7.044 1.522 15.665 1.784 8.62.289 12.747.236 12.773.236.079 0 .132.053.158.131 0 .079-.053.158-.132.158-.052-.026-.289 0-.814 0ZM189.943 224.847c-1.998 0-5.257-.053-10.277-.289-9.961-.472-15.664-2.072-15.717-2.072-.078-.026-.131-.105-.105-.184.027-.079.105-.131.184-.105.053.026 5.73 1.6 15.665 2.073 9.934.472 12.957.236 12.983.236.079 0 .158.052.158.131 0 .078-.053.157-.132.157-.052-.026-.788.053-2.759.053Z" fill="#9B7A56"/><path d="M186.79 226.131c-1.945 0-4.337-.052-7.149-.209-8.542-.446-16.059-2.282-16.138-2.282-.079-.026-.131-.104-.105-.183.026-.079.105-.131.184-.105.079.026 7.57 1.836 16.085 2.281 8.437.446 12.957 0 13.01 0 .079 0 .158.053.158.131 0 .079-.053.158-.132.158-.052.026-2.076.209-5.913.209ZM187.078 227.704c-12.431 0-23.706-2.596-23.838-2.622-.079-.026-.131-.105-.105-.184.026-.078.105-.131.184-.105.158.027 14.744 3.409 29.042 2.465.079 0 .158.053.158.131 0 .079-.053.158-.132.158a90.274 90.274 0 0 1-5.309.157Z" fill="#9B7A56"/><path d="M188.313 229.014c-2.076 0-5.02-.078-8.988-.236-12.458-.524-15.954-2.202-16.085-2.281-.079-.026-.105-.131-.053-.183.027-.079.132-.105.184-.053.027.026 3.601 1.731 15.98 2.255 11.643.498 12.878.053 12.957.026a.227.227 0 0 1 .184 0c.053.053.053.158 0 .21-.157.131-1.393.262-4.179.262Z" fill="#9B7A56"/><path d="M188.997 230.51c-2.024 0-5.257-.078-10.119-.393-10.014-.629-15.586-2.36-15.638-2.386-.079-.026-.132-.105-.105-.184.026-.078.105-.131.184-.105.052.027 5.624 1.731 15.585 2.36 9.961.63 13.036.289 13.063.289.079 0 .157.052.157.131 0 .078-.052.157-.131.157-.026.026-.841.131-2.996.131ZM191.046 232.084c-1.445 0-4.836-.052-12.142-.445-10.855-.577-15.612-2.203-15.638-2.229-.079-.026-.105-.105-.079-.184.026-.078.105-.105.184-.078.052.026 4.757 1.651 15.559 2.202 10.802.577 13.036.446 13.062.446.079 0 .158.052.158.131 0 .079-.052.157-.131.157-.053-.026-.289 0-.973 0ZM190.128 233.683c-1.498 0-4.731-.078-11.249-.472-10.276-.629-15.349-2.228-15.402-2.255-.078-.026-.105-.104-.105-.183.027-.079.105-.105.184-.105.053.026 5.073 1.599 15.323 2.229 10.224.629 12.379.446 12.405.446.079 0 .158.052.158.131 0 .078-.053.157-.131.157 0 .026-.316.052-1.183.052ZM188.997 234.89c-1.656 0-4.731-.053-10.329-.289-10.408-.419-14.955-2.281-15.008-2.307-.078-.026-.105-.105-.078-.184.026-.078.105-.104.184-.078.052.026 4.546 1.861 14.902 2.281 10.355.42 12.116.236 12.142.236.079 0 .158.052.158.131 0 .079-.053.157-.131.157-.027.027-.395.053-1.84.053Z" fill="#9B7A56"/><path d="M186.133 236.07c-1.814 0-4.284-.026-7.701-.157-10.093-.341-14.245-2.23-14.298-2.256-.079-.026-.105-.131-.079-.184.027-.078.132-.105.184-.078.053.026 4.153 1.888 14.167 2.229 10.013.341 12.116 0 12.116 0 .079 0 .157.053.157.131.027.079-.052.158-.131.158 0 0-.894.157-4.415.157ZM188.051 237.67c-1.656 0-4.547-.079-9.619-.315-10.513-.525-13.956-1.889-14.088-1.941-.079-.026-.105-.105-.079-.184.027-.079.106-.105.184-.079.027.027 3.549 1.391 13.983 1.915 10.329.525 11.617.263 11.669.236.079-.026.158.027.184.105.026.079-.026.158-.105.184-.026 0-.342.079-2.129.079ZM186.236 238.798c-1.919 0-4.573-.026-7.885-.079-10.933-.183-13.22-1.757-13.325-1.81-.052-.052-.079-.131-.026-.21.052-.052.131-.078.21-.026.026.026 2.366 1.574 13.168 1.758 10.118.183 11.17.026 11.249 0 .052-.027.131 0 .157.052.053.079.027.158-.052.21-.105.079-1.314.105-3.496.105ZM184.477 240.396c-1.708 0-3.863-.052-6.387-.184-10.591-.55-11.905-1.678-11.958-1.731-.053-.052-.053-.157 0-.21.053-.052.131-.052.21 0 .053.053 1.446 1.102 11.775 1.653 9.619.498 10.697-.105 10.776-.184.026-.052.105-.078.157-.052.079.026.132.105.105.183-.131.341-1.787.525-4.678.525ZM183.844 241.497c-1.393 0-3.285-.026-5.756-.079-4.231-.105-8.016-.55-10.644-1.232-.053 0-.079-.027-.105-.027a.2.2 0 0 1-.105-.052.162.162 0 0 1-.027-.184c.053-.105.132-.078.29-.026 2.602.682 6.36 1.128 10.591 1.233 7.36.183 9.41 0 9.436 0 .079 0 .158.052.158.131 0 .079-.053.157-.132.157 0 0-.92.079-3.706.079Z" fill="#9B7A56"/><path d="M155.355 266.564h-.053c-.236-.026-.394-.262-.368-.498l2.997-21.344c.026-.236.263-.393.499-.367.237.026.394.262.368.498l-2.996 21.344a.475.475 0 0 1-.447.367ZM167.786 260.349a.442.442 0 0 1-.447-.445v-12.639c0-.236.184-.446.447-.446.236 0 .446.184.446.446v12.639c-.026.262-.21.445-.446.445ZM188.656 263.26c-.211 0-.395-.158-.421-.341l-3.338-17.647a.408.408 0 0 1 .342-.498.407.407 0 0 1 .499.341l3.338 17.646a.408.408 0 0 1-.341.499c-.027-.027-.053 0-.079 0ZM177.827 269.816a.455.455 0 0 1-.446-.42l-.552-22.366c0-.236.184-.446.42-.446.237 0 .421.184.447.42l.552 22.366c.026.236-.158.42-.421.446Z" fill="#000"/><path d="M157.589 254.031c-.237 0-.421-.183-.421-.393a.438.438 0 0 1 .394-.472l28.464-2.36a.439.439 0 0 1 .473.394c.027.236-.157.445-.394.472l-28.464 2.359h-.052Z" fill="#000"/><path d="M177.275 256.443c-.079 0-.184-.026-.236-.079l-9.199-6.424a.45.45 0 0 1-.105-.603.452.452 0 0 1 .604-.105l9.199 6.424a.45.45 0 0 1 .105.603.46.46 0 0 1-.368.184ZM171.781 247.867c-8.988 0-13.088-2.097-13.246-2.202a.572.572 0 0 1-.237-.787.574.574 0 0 1 .789-.236c.052.026 4.231 2.15 13.299 2.045 9.094-.105 12.852-2.386 12.878-2.412.263-.184.631-.079.789.184.184.262.079.629-.184.786-.158.105-4.074 2.491-13.51 2.596-.183.026-.394.026-.578.026ZM76.192 207.277h-.105c-2.812-.105-4.126-1.495-4.021-4.301.052-1.625.946-2.123 1.472-2.281.972-.288 2.05.131 2.444.682.63.891.368 1.626-.026 1.993a1.123 1.123 0 0 1-1.472.052c-.105-.105-.132-.262-.026-.367.105-.105.262-.131.368-.026.262.21.578.131.762-.026.263-.236.368-.682-.053-1.285-.236-.341-1.104-.708-1.866-.472-.683.21-1.051.813-1.078 1.783-.078 2.491 1 3.645 3.496 3.749.999.027 1.945-.471 2.628-1.363.868-1.127 1.104-2.701.657-4.09-.893-2.727-2.707-4.982-6.123-7.578l-1.577-1.18c-1.761-1.285-3.575-2.649-4.968-4.196-1.577-1.783-2.339-3.592-2.286-5.559.078-3.618 2.47-5.27 4.652-5.27h.026c1.55 0 2.47 1.259 2.523 3.409.026 1.494-.683 2.91-1.656 3.225-.578.183-1.13-.053-1.524-.656-.736-1.101-.316-1.861-.079-2.124.342-.419.894-.603 1.261-.445.237.105.369.341.342.629-.026.157-.157.262-.289.236-.158-.026-.263-.157-.237-.288v-.079c-.026-.026-.289-.026-.525.183-.21.184-.605.682 0 1.574.263.393.578.55.92.446.657-.21 1.314-1.285 1.288-2.701-.027-1.075-.316-2.858-1.972-2.885h-.026c-1.945 0-4.047 1.469-4.1 4.746-.079 4.065 3.522 6.713 7.044 9.309.525.393 1.077.787 1.603 1.18 3.496 2.674 5.362 5.008 6.308 7.84a5.007 5.007 0 0 1-.736 4.589c-.867.97-1.919 1.547-3.049 1.547Z" fill="#000"/><path d="M81.608 266.617c-.158 0-.29-.131-.263-.289.026-.498 2.97-49.348 2.97-51.655.026-5.428-1.025-7.84-3.653-8.391-1.104-.21-2.103 0-2.84.603-.735.603-1.156 1.547-1.156 2.675 0 2.386 1.551 3.828 3.05 3.828.551 0 .972-.21 1.208-.629.29-.525.21-1.311-.184-1.914-.21-.341-.893-.368-1.235-.158-.263.158-.29.394-.105.708.079.131.026.289-.105.367-.132.079-.29.027-.368-.105-.394-.681-.105-1.206.289-1.442.578-.367 1.577-.288 1.971.315.5.76.578 1.757.21 2.465-.315.577-.92.917-1.682.917-.92 0-1.84-.445-2.496-1.206-.71-.813-1.078-1.94-1.078-3.173 0-1.284.473-2.386 1.34-3.094.868-.708 2.05-.97 3.286-.708 1.524.315 2.602 1.207 3.259 2.754.604 1.416.867 3.356.84 6.162 0 2.333-2.864 49.662-2.97 51.681-.025.184-.157.289-.288.289Z" fill="#000"/><path d="M80.11 258.75c-.21 0-.447-.026-.71-.079-.84-.183-4.126-1.678-6.991-3.068-2.812-1.363-6.071-3.015-6.728-3.566-1.314-1.127-1.13-2.753-.92-3.199.157-.288.604-.498 1.077-.472.5.053.894.341 1.052.866.131.393.079.708-.106.918-.262.314-.735.262-.788.262-.158-.027-.263-.158-.236-.315.026-.157.157-.262.289-.236.078 0 .262 0 .315-.079.052-.078.052-.209 0-.419-.105-.367-.368-.472-.578-.472-.29-.026-.526.105-.552.157-.132.289-.316 1.626.762 2.544.526.445 3.18 1.835 6.623 3.513 3.364 1.626 6.203 2.858 6.886 3.016.631.131 1.13.078 1.472-.184.315-.236.473-.655.473-1.154 0-.944-.63-1.94-1.235-1.94-.263 0-.316.315-.342.42-.026.262.079.524.21.55.158.026.237.184.21.315-.026.157-.183.236-.315.21-.473-.105-.683-.656-.63-1.128.052-.55.394-.918.867-.918.999 0 1.76 1.338 1.76 2.491 0 .656-.236 1.233-.683 1.574-.236.209-.604.393-1.182.393ZM62.657 253.559s1.209-1.312 1.682-1.312c.473 0 1.971 1.312 1.971 1.312h-3.653ZM81.083 237.668h-.08c-.788-.026-4.573-1.101-7.779-2.124-2.55-.813-6.912-2.255-7.57-2.936-1.13-1.207-1.156-2.806-.472-3.488a1.217 1.217 0 0 1 1.025-.367c.394.052.788.341.972.734.237.446.026 1.101-.263 1.39a.566.566 0 0 1-.71.105c-.13-.079-.183-.236-.105-.367.08-.131.237-.184.368-.105.027 0 .08-.053.158-.158.105-.209.132-.471.079-.629a.907.907 0 0 0-.578-.446.604.604 0 0 0-.552.21c-.5.498-.42 1.783.473 2.727.394.42 3.285 1.521 7.333 2.78 3.522 1.101 7.017 2.071 7.648 2.097.5.027.972-.236 1.314-.681.368-.525.473-1.207.237-1.757-.316-.787-.763-1.338-1.157-1.39-.184-.026-.341.052-.5.21-.13.157-.21.288-.183.419.052.21.315.367.394.42.131.052.184.236.131.367-.052.131-.236.184-.367.131-.053-.026-.579-.288-.684-.787-.052-.209-.026-.524.316-.891.368-.393.735-.42.998-.393.579.104 1.157.734 1.551 1.73.29.734.184 1.6-.29 2.281-.446.577-1.05.918-1.707.918ZM65.39 205.861c-.34 0-.578-.157-.683-.498-.052-.131.027-.289.184-.341.132-.053.29.026.342.183.026.132.053.132.184.132.21 0 .578-.105 1.156-.263l.158-.052c.368-.105.71-.42.999-.918.5-.918.63-2.255.315-3.199-.315-.97-.946-1.39-1.393-1.442-.289-.026-.552.079-.683.288-.342.525-.473 1.259-.315 1.731.026.105.105.236.21.262.052.026.079.026.131 0 .184-.078.342-.472.42-.708.027-.131.185-.236.342-.183.132.026.237.183.184.341-.026.078-.236.812-.683 1.048a.736.736 0 0 1-.578.027c-.237-.105-.42-.315-.526-.603-.184-.603-.026-1.521.394-2.177.263-.393.71-.603 1.21-.55.788.104 1.524.812 1.84 1.809.367 1.101.21 2.543-.369 3.618-.341.63-.814 1.049-1.314 1.207l-.158.052c-.63.184-.998.262-1.287.288l-.08-.052Z" fill="#000"/><path d="M64.472 257.649a.263.263 0 0 1-.263-.263l.21-74.625a.263.263 0 0 1 .526 0l-.21 74.625c0 .158-.106.263-.263.263Z" fill="#000"/><path d="M78.533 261.267c-.026 0-.052 0-.079-.026l-13.85-8.05c-.08-.053-.105-.158-.08-.236.053-.079.158-.131.237-.079l16.033 7.001c.079.053.131.157.105.236-.026.079-.158.131-.237.105l-13.141-5.742 11.144 6.476a.17.17 0 0 1 .052.236.237.237 0 0 1-.184.079Z" fill="#000"/><path d="M72.698 262.839a.144.144 0 0 1-.132-.079l-8.016-9.754c-.053-.079-.053-.183 0-.236.053-.052.158-.079.237-.026l11.222 8.968c.079.052.079.183.026.262-.052.078-.184.078-.262.026l-9.883-7.893 6.913 8.417a.202.202 0 0 1-.027.263c0 .026-.026.052-.078.052Z" fill="#000"/><path d="M66.837 263.547a.198.198 0 0 1-.184-.131l-2.155-10.462c-.026-.079.026-.184.132-.21.078-.026.184 0 .21.105l4.94 10.147c.053.079 0 .184-.078.236-.079.053-.184 0-.236-.078l-4.284-8.863 1.866 9.046c.026.105-.053.184-.132.21h-.079Z" fill="#000"/><path d="M63.97 263.549c-.105 0-.183-.105-.183-.184l.71-10.462c0-.105.104-.183.183-.157.105 0 .184.105.158.183l-.71 10.463c0 .078-.079.157-.157.157ZM66.678 234.365h-4.021a.255.255 0 0 1-.263-.209c-.026-.132.026-.263.157-.315l2.05-.892a.29.29 0 0 1 .21 0l1.972.892a.298.298 0 0 1 .158.315c-.027.131-.158.209-.263.209Zm-2.76-.524h1.498l-.736-.341-.762.341Z" fill="#000"/><path d="M79.32 239.373h-.08l-14.639-5.821c-.079-.026-.131-.131-.105-.236a.18.18 0 0 1 .21-.105l17.031 5.323c.106.027.158.131.106.236-.027.105-.132.158-.237.105l-12.484-3.933 10.25 4.09c.105.027.131.132.105.236a.177.177 0 0 1-.158.105Z" fill="#000"/><path d="M73.196 240.631c-.052 0-.079-.026-.105-.052l-8.515-7.08c-.08-.052-.08-.157-.027-.236a.171.171 0 0 1 .237-.052l11.696 6.765a.17.17 0 0 1 .052.236.17.17 0 0 1-.236.052l-9.883-5.716 6.886 5.743c.08.052.08.183.027.262a.145.145 0 0 1-.132.078Z" fill="#000"/><path d="M66.31 241.156a.197.197 0 0 1-.184-.131l-1.63-7.63c-.026-.079.026-.157.105-.21a.204.204 0 0 1 .21.053l5.625 7.551a.201.201 0 0 1-.026.262.202.202 0 0 1-.263-.026l-5.125-6.87 1.445 6.818c.027.105-.052.183-.131.21 0-.027-.026-.027-.026-.027ZM71.935 214.568h-.053l-7.254-2.046c-.079-.026-.158-.105-.131-.21.026-.105.105-.157.21-.131l12.484 1.495c.105 0 .158.105.158.21s-.105.157-.21.157l-10.172-1.206 5.02 1.416c.105.027.158.131.132.21a.22.22 0 0 1-.184.105Z" fill="#000"/><path d="M69.254 214.569c-.026 0-.053 0-.079-.027l-3.311-1.574 1.524 1.286c.079.052.079.183.026.262-.052.079-.184.079-.263.026l-2.575-2.177c-.08-.052-.08-.157-.027-.236a.17.17 0 0 1 .237-.052l4.547 2.177c.079.052.131.157.079.236-.027.052-.106.079-.158.079ZM81.817 267.062c.61 0 1.103-.317 1.103-.708 0-.391-.494-.708-1.103-.708-.61 0-1.104.317-1.104.708 0 .391.494.708 1.104.708ZM64.208 257.779c.595 0 1.078-.223 1.078-.498 0-.276-.483-.499-1.078-.499-.595 0-1.078.223-1.078.499 0 .275.483.498 1.078.498ZM53.222 207.278c-1.13 0-2.182-.577-2.944-1.574a5.006 5.006 0 0 1-.736-4.588c.92-2.832 2.812-5.166 6.308-7.841.526-.393 1.051-.786 1.603-1.179 3.496-2.57 7.123-5.245 7.018-9.309-.08-3.278-2.182-4.746-4.127-4.746h-.026c-1.656.026-1.945 1.809-1.971 2.884-.026 1.416.63 2.491 1.288 2.701.341.105.657-.026.92-.446.604-.891.21-1.416 0-1.573-.237-.21-.5-.236-.526-.183v.078c.026.158-.079.289-.237.289-.157.026-.289-.079-.289-.236-.026-.289.08-.525.342-.63.368-.157.92.027 1.261.446.237.262.657 1.023-.078 2.124-.395.603-.947.839-1.525.656-.972-.315-1.708-1.731-1.656-3.226.053-2.15.973-3.382 2.523-3.408h.027c2.181 0 4.573 1.652 4.652 5.27.052 1.94-.71 3.776-2.287 5.559-1.366 1.547-3.206 2.884-4.967 4.195-.526.394-1.078.787-1.577 1.18-3.39 2.596-5.23 4.877-6.124 7.578-.447 1.39-.21 2.963.657 4.091.684.891 1.63 1.389 2.628 1.363 2.497-.079 3.575-1.232 3.496-3.75-.026-.97-.42-1.573-1.078-1.783-.762-.209-1.603.132-1.866.472-.42.604-.289 1.049-.052 1.285.184.158.5.262.762.026.105-.104.29-.078.368.027.105.105.079.288-.026.367-.42.367-1.052.341-1.472-.053-.394-.367-.657-1.101-.027-1.992.395-.551 1.499-.971 2.445-.682.525.157 1.419.655 1.472 2.281.105 2.779-1.21 4.195-4.022 4.3-.078.027-.105.027-.157.027Z" fill="#000"/><path d="M47.808 266.615a.263.263 0 0 1-.263-.262c-.131-1.993-2.97-49.348-2.97-51.656-.026-2.805.263-4.772.841-6.162.657-1.52 1.709-2.438 3.26-2.753 1.26-.262 2.417 0 3.285.708.867.708 1.34 1.809 1.34 3.094 0 1.233-.394 2.36-1.078 3.173-.657.76-1.577 1.206-2.496 1.206-.763 0-1.367-.314-1.683-.918-.367-.708-.289-1.678.21-2.464.395-.603 1.394-.682 1.972-.315.394.236.683.76.289 1.442-.079.131-.237.184-.368.105s-.184-.236-.105-.367c.184-.341.158-.551-.105-.708-.342-.21-1.025-.184-1.235.157-.395.603-.474 1.39-.184 1.914.236.42.63.63 1.209.63 1.498 0 3.048-1.442 3.048-3.829 0-1.127-.42-2.071-1.156-2.674-.736-.603-1.761-.813-2.839-.603-2.628.524-3.68 2.963-3.653 8.391 0 2.307 2.944 51.157 2.97 51.655 0 .105-.105.236-.29.236Z" fill="#000"/><path d="M49.333 258.75c-.579 0-.973-.183-1.21-.393-.446-.341-.683-.918-.683-1.573 0-1.154.762-2.491 1.761-2.491.473 0 .815.367.867.917.053.472-.157 1.023-.63 1.128-.158.026-.29-.053-.316-.21-.026-.157.053-.288.21-.314.132-.027.237-.289.21-.551 0-.105-.052-.42-.34-.42-.605 0-1.236.997-1.236 1.941 0 .498.184.917.473 1.153.342.263.841.341 1.472.184.683-.157 3.522-1.39 6.886-3.015 3.443-1.652 6.097-3.068 6.623-3.514 1.078-.918.92-2.255.762-2.544-.026-.052-.263-.183-.552-.157-.21.026-.447.105-.578.472-.053.21-.053.341 0 .42.079.078.263.078.315.078.158-.026.29.079.316.236.026.158-.08.289-.237.315-.052 0-.525.052-.788-.262-.184-.21-.21-.525-.105-.918a1.206 1.206 0 0 1 1.05-.865c.448-.026.92.157 1.078.472.21.445.421 2.071-.92 3.199-.683.577-3.916 2.228-6.728 3.566-2.864 1.389-6.15 2.858-6.99 3.068-.264.052-.5.078-.71.078ZM48.334 237.668c-.657 0-1.262-.341-1.682-.917-.474-.682-.579-1.548-.29-2.282.395-.996.973-1.625 1.551-1.73.263-.053.63-.027.999.393.315.367.342.682.315.892-.105.498-.63.76-.683.786a.302.302 0 0 1-.368-.131.301.301 0 0 1 .131-.367c.105-.052.342-.21.395-.42.026-.131-.027-.262-.184-.419-.158-.184-.316-.236-.5-.21-.368.079-.84.603-1.156 1.39-.237.55-.132 1.232.236 1.757.316.445.789.708 1.315.681.63-.026 4.152-.996 7.648-2.097 4.074-1.285 6.938-2.386 7.333-2.78.893-.944.998-2.229.473-2.727-.184-.183-.368-.236-.552-.209-.237.026-.473.209-.578.445-.08.158-.053.42.078.63.053.131.132.157.158.157.131-.079.29-.026.368.105.079.131.026.288-.105.367-.237.131-.5.079-.71-.105-.315-.288-.5-.944-.263-1.39.184-.367.579-.655.973-.734.263-.052.657-.026 1.025.367.683.682.657 2.281-.473 3.488-.657.681-5.02 2.124-7.57 2.936-3.206 1.023-7.017 2.072-7.78 2.124h-.104ZM64.025 205.861H64c-.289 0-.657-.105-1.288-.288l-.157-.053c-.526-.131-.973-.551-1.315-1.206-.578-1.075-.735-2.517-.367-3.619.315-.996 1.05-1.704 1.84-1.809.499-.052.972.131 1.208.551.42.655.579 1.573.394 2.176-.105.289-.262.498-.525.603a.642.642 0 0 1-.578-.026c-.473-.236-.684-.97-.684-1.049a.318.318 0 0 1 .184-.341.319.319 0 0 1 .342.184c.053.236.236.629.42.708.027.026.08.026.132 0 .105-.053.158-.184.21-.262.158-.446 0-1.207-.315-1.731a.637.637 0 0 0-.684-.288c-.446.052-1.077.472-1.393 1.442-.315.944-.184 2.281.316 3.199.263.498.63.839.999.917l.157.053c.578.157.946.262 1.157.262.131 0 .131 0 .184-.131a.302.302 0 0 1 .341-.184c.132.053.21.184.184.341-.157.367-.368.551-.736.551ZM50.883 261.266c-.053 0-.132-.026-.158-.078a.17.17 0 0 1 .053-.236l11.144-6.477-13.142 5.742c-.078.053-.184 0-.236-.104-.053-.079 0-.21.105-.236l16.032-7.001a.212.212 0 0 1 .237.078c.052.079 0 .184-.079.236l-13.85 8.05c-.053.026-.08.026-.106.026Z" fill="#000"/><path d="M56.719 262.841c-.053 0-.08-.027-.105-.053-.08-.052-.08-.183-.027-.262l6.913-8.417-9.883 7.893a.203.203 0 0 1-.262-.027.201.201 0 0 1 .026-.262l11.222-8.967c.08-.053.184-.053.237.026a.165.165 0 0 1 0 .236l-8.016 9.754c0 .052-.053.079-.105.079Z" fill="#000"/><path d="M62.58 263.547h-.027c-.105-.026-.158-.105-.131-.21l1.866-9.046-4.284 8.863c-.053.078-.158.131-.237.078-.079-.052-.131-.157-.079-.236l4.915-10.173c.053-.079.131-.131.21-.105.08.026.132.105.132.21L62.79 263.39c-.053.105-.132.157-.21.157ZM50.095 239.372a.177.177 0 0 1-.158-.105c-.026-.105 0-.183.105-.236l10.25-4.09-12.536 3.907c-.105.026-.184-.026-.237-.105-.026-.105.027-.184.105-.236l17.032-5.323c.105-.026.183.026.21.105a.194.194 0 0 1-.105.236l-14.64 5.821c.026.026 0 .026-.026.026Z" fill="#000"/><path d="M56.218 240.631a.202.202 0 0 1-.131-.053.201.201 0 0 1 .026-.262l6.886-5.742-9.882 5.716a.172.172 0 0 1-.237-.053.17.17 0 0 1 .053-.236l11.695-6.765a.172.172 0 0 1 .237.053c.053.078.053.183-.026.236l-8.516 7.079c-.026 0-.079.027-.105.027Z" fill="#000"/><path d="M63.104 241.155h-.026c-.105-.026-.158-.105-.132-.209l1.446-6.818-5.125 6.87c-.053.079-.184.105-.263.026-.079-.052-.105-.183-.026-.262l5.598-7.525c.053-.079.131-.079.21-.053.08.026.132.131.105.21l-1.63 7.63c0 .079-.078.131-.157.131ZM57.48 214.569a.198.198 0 0 1-.185-.132c-.026-.104.026-.183.132-.209l5.02-1.417-10.172 1.207c-.105 0-.184-.053-.21-.158 0-.105.053-.183.158-.21l12.484-1.495c.105 0 .184.053.21.131.026.105-.026.184-.131.21l-7.254 2.046c-.027.027-.053.027-.053.027Z" fill="#000"/><path d="M60.16 214.567c-.079 0-.131-.026-.158-.105-.052-.079 0-.183.08-.236l4.546-2.177a.254.254 0 0 1 .237.052c.052.079.026.184-.027.236l-2.575 2.178a.203.203 0 0 1-.263-.027.201.201 0 0 1 .026-.262l1.524-1.285-3.311 1.574c-.026.052-.053.052-.079.052ZM47.597 267.062c.61 0 1.104-.317 1.104-.708 0-.391-.494-.708-1.104-.708-.61 0-1.104.317-1.104.708 0 .391.494.708 1.104.708Z" fill="#000"/><path d="M67.546 214.831c-2.603 0-5.02-.105-7.07-.21-5.52-.341-9.515-.944-9.567-.944-.158-.026-.237-.158-.237-.315.026-.157.158-.236.316-.236.052 0 4.02.603 9.514.944 5.072.315 12.51.446 19.133-.655a.272.272 0 0 1 .316.209.272.272 0 0 1-.21.315c-3.995.656-8.306.892-12.195.892ZM65.838 241.287c-.447 0-.92 0-1.393-.027-10.487-.314-17.977-2.543-18.056-2.569a.301.301 0 0 1-.184-.341.302.302 0 0 1 .342-.184c.079.026 7.517 2.229 17.898 2.544 10.382.314 18.634-2.937 18.713-2.963.132-.053.29 0 .342.157a.252.252 0 0 1-.158.341c-.026 0-2.129.839-5.493 1.626-2.786.655-7.096 1.416-12.011 1.416ZM64.865 263.627c-6.754 0-11.091-.971-13.562-1.81-2.68-.891-3.758-1.809-3.784-1.835-.105-.105-.132-.262-.026-.367.105-.105.262-.131.367-.026 0 0 1.052.891 3.654 1.756 2.418.813 6.675 1.757 13.325 1.757 6.65 0 10.907-1.075 13.325-1.966 2.602-.971 3.653-1.967 3.653-1.967a.286.286 0 0 1 .395 0c.105.105.105.288 0 .367-.053.053-1.104 1.049-3.785 2.072-2.47.917-6.807 2.019-13.562 2.019Z" fill="#000"/><path d="M243.427 50.398s6.097-3.855 12.957.524c4.599 2.937 5.151 13.268 3.443 16.808-1.709 3.513-9.541 9.938-9.541 9.938s-29.357-21.318-6.859-27.27Z" fill="#A5713D"/><path d="m223.846 111.334-.078 15.13s3.259 10.068 5.151 9.964c1.892-.079 4.652-.682 5.624-4.72.973-4.038 1.288-19.614 1.288-19.614l-11.985-.76Z" fill="#DD866F"/><path d="m262.219 254.397.999 23.809 22.524-.734s3.023-4.877-.263-6.057c-3.285-1.207-13.929-5.402-13.929-5.402l-.079-11.93-9.252.314Z" fill="#F69576"/><path d="m262.718 266.301.5 11.904 22.524-.734s3.022-4.877-.263-6.057c-3.285-1.206-13.93-5.402-13.93-5.402l-8.831.289Z" fill="#032240"/><path d="m263.113 275.82.105 2.412 22.525-.734s.709-1.127 1.051-2.438l-23.681.76Z" fill="#BFBFBF"/><path d="m241.956 254.318.184 11.905s-10.434 1.966-13.22 2.805c-3.338 1.023-7.202 1.941-7.754 5.192-.473 2.806 0 3.907 0 3.907h32.302l-3.522-23.835h-7.99v.026Z" fill="#F69576"/><path d="M242.14 266.222s-10.434 1.967-13.22 2.806c-3.338 1.022-7.202 1.94-7.753 5.192-.474 2.805 0 3.907 0 3.907h32.301l-1.236-11.905H242.14Z" fill="#BFBFBF"/><path d="M221.193 274.246a12.921 12.921 0 0 0-.184 1.494h32.249l-.999-9.518h-10.092s-10.434 1.967-13.22 2.806c-3.365 1.049-7.228 1.966-7.754 5.218Z" fill="#032240"/><path d="M227.449 146.339s-1.13 11.747 0 31.282c1.13 19.534 5.887 38.282 6.439 40.511.552 2.229 7.569 39.673 7.569 39.673h10.934s-6.15-50.581-6.728-65.946c-.552-15.366 1.971-44.13 1.971-44.13l-20.185-1.39Z" fill="#254B6B"/><path d="m268.132 147.545-26.282.839s-.105 46.49 2.023 48.588c2.129 2.097 8.674 10.619 9.909 17.306 1.235 6.66 5.309 43.71 5.309 43.71l13.588-.446-4.547-109.997Z" fill="#254B6B"/><path d="M250.208 85.245c-11.591-.237-15.296 1.494-17.741 6.896-2.444 5.401-8.568 52.888-9.146 62.563-.552 9.676 1.314 15.471 14.56 15.471 13.247 0 31.356-10.803 31.356-10.803s.735 3.356 1.314 5.401c.552 2.045 6.15 4.274 6.15.734s-2.418-59.05-2.812-68.358c-.395-9.309-14.903-11.72-23.681-11.904Z" fill="#000"/><path d="M237.882 88.418c-4.573-1.18-8.778-1.128-12.142 5.585-3.365 6.712-5.967 27.558-5.967 27.558l15.507 6.136s14.745-36.133 2.602-39.28Z" fill="#000"/><path d="M246.213 84.3c4.073 0 8.909.393 11.432 1.993 3.075 1.966 3.023 9.308-10.46 9.911-13.483.603-13.036-5.664-11.669-7.525 1.971-2.701 7.595-4.38 10.697-4.38Z" fill="#F69576"/><path d="m240.982 75.881-2.628 16.834h15.9s-.762-6.686-1.655-11.039c-.894-4.326-1.656-5.795-1.656-5.795h-9.961Z" fill="#F69576"/><path d="M247.921 80.444s.131 3.094-1.919 4.457c-2.05 1.364-6.623 1.39-6.623 1.39l1.63-10.41h6.702c-.027 0 .447 2.596.21 4.563Z" fill="#DD866F"/><path d="M238.722 55.456s-2.024 1.652-2.891 5.323c-.683 2.832-.526 5.848-.867 7.552-.342 1.704-.92 4.405-.447 6.765.473 2.36 2.575 5.585 6.492 6.686 3.889 1.102 7.096.315 9.251-2.412 2.155-2.727 4.81-7.552 5.598-10.934.789-3.383 1.235-9.728-2.365-12.534-4.626-3.54-10.093-3.592-14.771-.446Z" fill="#F69576"/><path d="M244.977 75.253s-.578 2.255-1.971 2.596c-1.393.34-2.759-.08-3.311-.892-.552-.813-.736-2.281-.736-2.281l6.018.577Z" fill="#fff"/><path d="M242.35 71.897c-.447-.079-.421-.498-.421-.734v-.053c-.026.026-.053.026-.053.053-.157.105-.394.288-.683.026-.105-.105-.158-.262-.158-.498.027-.446.316-1.05.579-1.26.052-.052.131-.026.184.027.052.052.026.13-.027.183-.184.131-.446.656-.473 1.05 0 .13.027.236.079.288.105.105.184.079.342-.052.079-.053.157-.132.263-.132.052 0 .105 0 .131.053.079.079.079.184.079.315 0 .288.026.42.184.472.079 0 .131 0 .184-.026.079-.053.079-.236.079-.368 0-.105 0-.183.052-.236.026-.052.105-.105.158-.105.131 0 .263.08.447.289.026.026.079.079.157.052.079-.026.184-.13.237-.34.053-.315-.237-.945-.368-1.155a.138.138 0 0 1 .053-.183.139.139 0 0 1 .184.052c.052.079.473.866.394 1.338-.053.288-.211.498-.421.55a.374.374 0 0 1-.42-.13c-.105-.105-.158-.158-.211-.184v.079c0 .157-.026.42-.184.55a.44.44 0 0 1-.262.08c-.027.025-.079.025-.105 0Z" fill="#6B3425"/><path d="M261.825 66.023c-1.209-2.99-9.987-.289-8.357 5.218 1.655 5.637 10.118-.813 8.357-5.218Z" fill="#F69576"/><path d="M255.096 71.922c.026 0 .053 0 .079-.026a.127.127 0 0 0 0-.183c-.368-.394-.447-1.652.026-2.858.316-.866 1.13-2.334 3.023-2.57 1.025-.131 1.734.052 2.129.498.604.682.315 1.783.315 1.81-.026.078.026.13.105.157.079.026.131-.026.158-.105.026-.053.315-1.259-.368-2.045-.473-.525-1.262-.735-2.366-.603-1.498.183-2.68 1.18-3.259 2.753-.446 1.232-.446 2.622.027 3.146.052 0 .105.026.131.026Z" fill="#6B3425"/><path d="M258.249 71.426a.146.146 0 0 0 .132-.078c.052-.105 1.025-2.518-.421-5.218-.026-.053-.105-.079-.184-.053-.053.026-.079.105-.053.184 1.393 2.596.421 4.982.421 4.982-.026.078 0 .13.079.183h.026ZM246.711 69.354c.261 0 .473-.435.473-.97 0-.537-.212-.971-.473-.971s-.473.434-.473.97.212.97.473.97ZM248.945 65.84c-.368-.314-1.156-.734-1.945-.813-.867-.078-1.392.315-1.734.394-.342.078-.394-.394-.21-.813.184-.42.919-.735 2.128-.682 1.209.052 1.867.577 2.182.944.342.367.079 1.39-.421.97ZM239.3 69.118c.262 0 .473-.434.473-.97s-.211-.97-.473-.97c-.261 0-.473.434-.473.97s.212.97.473.97ZM241.061 65.474c-.368-.315-1.156-.735-1.945-.813-.867-.079-1.393.314-1.734.393-.342.079-.395-.393-.211-.813.184-.42.92-.734 2.129-.682 1.209.052 1.866.577 2.182.944.341.368.105 1.417-.421.97ZM236.907 77.378l.579.21s.946 2.412 1.892 2.937c.92.524 4.153.655 4.521.393.368-.262 1.708-2.701 1.708-2.701l.736.262s-1.472 3.566-1.682 3.88c-.132.184-2.366 1.443-3.207 1.443-.841 0-3.548-1.81-3.653-2.176-.315-1.128-.894-4.248-.894-4.248Z" fill="#6B3425"/><path d="m240.43 79.135 1.42.078-.184 2.493-1.104.104-.132-2.675Z" fill="#6B3425"/><path opacity=".4" d="m269.867 98.54-3.6 20.242 6.439 1.94-2.839-22.183Z" fill="#254B6B"/><path d="M254.256 51.97s-3.338 6.031-12.616 6.555c-19.318 1.128-10.46-9.701-10.46-9.701s-.684 2.858 2.628 3.015c4.547.236 11.144-13.556 20.448.131Z" fill="#A5713D"/><path d="M269.764 116.867s.762 17.673 1.104 19.194c.341 1.521-4.731 19.508-5.073 21.554-.342 2.045-.079 7.237-.368 8.915-.289 1.678-1.104 4.51-2.26 4.798-1.157.289-7.727.603-8.384.472s.946-2.281 1.104-2.753c.131-.472-2.261 2.072-3.811 2.308-1.551.236-2.182-1.416-.579-2.046 1.604-.629 3.811-5.323 4.915-5.978 1.104-.682 2.129-1.6 2.261-2.072.131-.472 2.181-23.913 2.575-24.726.421-.839-.368-17.411-.368-17.411l8.884-2.255Z" fill="#F69576"/><path d="m117.351 110.521 10.092-2.229v2.885l-10.092-.656Z" fill="#EAEAEA"/><path d="m111.753 255.209-.184 11.721s10.277 1.914 13.01 2.78c3.285 1.022 7.096 1.914 7.622 5.113.473 2.753 0 3.828 0 3.828h-31.802l3.443-23.442h7.911Z" fill="#fff"/><path d="M111.569 266.932s10.277 1.914 13.01 2.779c3.285 1.023 7.096 1.914 7.622 5.113.473 2.753 0 3.828 0 3.828h-31.802l1.235-11.72h9.935Z" fill="#fff"/><path d="M132.199 274.824c.106.551.158 1.049.184 1.469H100.66l.973-9.361h9.935s10.276 1.914 13.009 2.779c3.286.996 7.097 1.914 7.622 5.113Z" fill="#5F750E"/><path d="m96.85 256.286-.183 11.721s10.276 1.914 13.009 2.779c3.286 1.023 7.097 1.915 7.622 5.113.473 2.754 0 3.829 0 3.829H85.497l3.443-23.442h7.91Z" fill="#fff"/><path d="M96.667 268.006s10.276 1.914 13.009 2.78c3.286 1.022 7.097 1.914 7.622 5.113.473 2.753 0 3.828 0 3.828H85.497l1.235-11.721h9.935Z" fill="#fff"/><path d="M117.298 275.899c.105.551.157 1.049.184 1.468h-31.75l.973-9.361h9.935s10.276 1.914 13.009 2.78c3.286.996 7.097 1.914 7.649 5.113Z" fill="#5F750E"/><path d="M110.307 54.514s-5.992-3.776-12.747.525c-4.52 2.884-5.073 13.058-3.39 16.52 1.682 3.46 9.382 9.78 9.382 9.78s28.885-20.977 6.755-26.825Z" fill="#CC6100"/><path d="m129.572 114.483.079 14.893s17.846.21 19.002-.078c1.156-.289 6.912-4.851 7.517-5.087.604-.236 1.182 0 .946.682-.237.681-1.13 2.884-1.13 2.884s4.363-.498 4.783-.734c.394-.236 3.023-2.255 3.548-2.439.552-.183 1.446.184 1.209.734-.236.577-2.707 3.75-2.707 3.75s.5 3.409-.788 4.667c-1.288 1.259-7.359 2.282-10.303 2.465-2.944.184-25.284 3.042-27.15 2.937-1.866-.079-4.599-.656-5.545-4.641-.947-3.986-1.262-19.299-1.262-19.299l11.801-.734Z" fill="#DD866F"/><path d="M126.05 148.937s1.104 11.537 0 30.784c-1.103 19.246-5.782 37.679-6.334 39.856-.552 2.202-7.438 39.043-7.438 39.043h-10.749s6.071-49.768 6.623-64.897c.552-15.13-1.919-43.449-1.919-43.449l19.817-1.337Z" fill="#fff"/><path d="M86.652 150.3h22.866s1.787 45.703 0 47.853c-1.788 2.124-7.175 10.725-7.99 17.332-.815 6.608-3.049 43.16-3.049 43.16H86.652V150.3Z" fill="#fff"/><path d="M114.302 89.834c4.494-1.18 7.517.524 10.749 7.158 2.97 6.083 5.178 16.598 6.229 23.337l-17.083 16.283c-3.285-10.725-7.596-44.76.105-46.778Z" fill="#7EA21A"/><path d="M103.631 88.811c11.407-.236 15.06 1.469 17.452 6.791 2.391 5.323 9.067 62.302 9.619 71.82 0 0-3.758 3.094-16.795 3.094-13.036 0-31.04-1.783-31.04-1.783 0-3.487-2.943-59.024-2.575-68.175.368-9.177 14.718-11.563 23.339-11.747Z" fill="#7EA21A"/><path d="M107.547 87.868c-4.021 0-8.778.367-11.249 1.967-3.022 1.94 6.308 13.556 15.744 12.061 9.435-1.494 7.385-7.866 6.045-9.701-1.919-2.675-7.465-4.327-10.54-4.327Z" fill="#F69576"/><path d="m112.725 79.582 2.576 16.571-15.664-3.46s.762-3.121 1.629-7.395c.894-4.274 1.63-5.716 1.63-5.716h9.829Z" fill="#F69576"/><path d="M105.891 84.092s-.132 3.041 1.892 4.379c2.024 1.337 6.518 1.363 6.518 1.363l-1.603-10.252h-6.597c.026 0-.447 2.57-.21 4.51Z" fill="#DD866F"/><path d="M114.958 59.497s1.971 1.625 2.839 5.244c.657 2.78.525 5.769.867 7.447.342 1.678.894 4.352.421 6.66-.473 2.334-2.55 5.506-6.387 6.581-3.837 1.075-6.991.289-9.094-2.36-2.102-2.648-4.73-7.446-5.52-10.75-.788-3.304-1.287-9.702 2.34-12.35 2.891-2.098 5.414 1.992 9.357.786 2.128-.681 3.101-2.648 5.177-1.258Z" fill="#F69576"/><path d="M107.995 78.165s.368 2.255 1.708 2.727c1.34.472 2.707.158 3.312-.603.604-.76.919-2.176.919-2.176l-5.939.052Z" fill="#fff"/><path d="M111.254 75.702a.446.446 0 0 1-.263-.079c-.157-.131-.183-.394-.183-.55v-.08c-.027.027-.106.08-.211.184a.374.374 0 0 1-.42.131c-.211-.052-.368-.262-.421-.524-.105-.473.342-1.233.368-1.312.026-.052.105-.079.184-.052.053.026.079.105.053.183-.132.21-.421.813-.342 1.128.053.21.158.315.237.341.078.026.131-.026.157-.052.184-.21.316-.289.447-.289.079 0 .131.053.158.105.026.052.026.131.052.236 0 .105 0 .289.079.367.026.027.105.027.158.027.184-.027.21-.158.184-.446 0-.132 0-.236.079-.315a.2.2 0 0 1 .131-.053c.105 0 .184.08.263.132.158.13.236.157.342.052.052-.052.078-.157.078-.288-.026-.394-.289-.919-.473-1.05-.052-.052-.078-.13-.026-.183.053-.053.132-.08.184-.027.263.184.552.787.578 1.233 0 .21-.026.394-.157.499-.29.262-.526.078-.684-.027-.026-.026-.052-.026-.052-.052v.052c0 .237.026.656-.421.709h-.079Z" fill="#6B3425"/><path d="M92.225 69.88c1.182-2.937 9.829-.288 8.226 5.14-1.656 5.558-9.987-.813-8.226-5.14Z" fill="#F69576"/><path d="M98.82 75.7c-.025 0-.052 0-.078-.026a.127.127 0 0 1 0-.183c.342-.393.42-1.626-.026-2.832-.316-.839-1.13-2.307-2.997-2.543-.998-.132-1.708.052-2.102.498-.578.681-.316 1.757-.316 1.783.027.078-.026.13-.078.157-.08.026-.132-.026-.158-.079-.026-.052-.316-1.232.368-2.018.447-.525 1.235-.708 2.313-.577 1.472.183 2.628 1.18 3.206 2.7.447 1.207.447 2.57-.026 3.094-.026 0-.053.027-.105.027Z" fill="#6B3425"/><path d="M95.72 75.203a.145.145 0 0 1-.132-.08c-.053-.104-.999-2.49.42-5.138.027-.053.106-.08.184-.053.053.026.08.105.053.184-1.367 2.543-.42 4.903-.42 4.903.026.079 0 .131-.08.157 0 .027 0 .027-.026.027ZM107.075 73.158c.261 0 .473-.423.473-.944 0-.522-.212-.945-.473-.945-.262 0-.473.423-.473.945 0 .521.211.944.473.944Z" fill="#6B3425"/><path d="M104.894 69.697c.368-.314 1.13-.708 1.918-.787.868-.078 1.367.289 1.709.394.341.079.394-.394.21-.787-.184-.393-.92-.708-2.103-.656-1.182.053-1.839.577-2.155.944-.341.315-.079 1.338.421.892Z" fill="#A5713D"/><path d="M114.382 72.923c.261 0 .473-.423.473-.945 0-.521-.212-.944-.473-.944-.262 0-.474.423-.474.944 0 .522.212.945.474.945Z" fill="#6B3425"/><path d="M112.647 69.356c.368-.315 1.13-.708 1.918-.787.868-.079 1.367.289 1.709.394.341.078.394-.394.21-.787-.184-.394-.92-.709-2.103-.656-1.182.052-1.839.577-2.155.944-.315.368-.105 1.312.421.892Z" fill="#A5713D"/><g opacity=".6"><path d="M146.052 149.986c7.679 0 13.904-2.09 13.904-4.668 0-2.577-6.225-4.667-13.904-4.667-7.678 0-13.903 2.09-13.903 4.667 0 2.578 6.225 4.668 13.903 4.668Z" fill="#8CA9D0"/><path d="M167.026 100.218h-41.947s-7.464 9.413-6.202 23.861c1.393 15.942 12.878 19.194 13.877 20.898.394.682 9.041 2.019 13.22 2.019h.157c4.179 0 12.826-1.337 13.221-2.019.998-1.704 12.484-4.929 13.877-20.898 1.261-14.448-6.203-23.861-6.203-23.861Zm4.31 23.494c-1.182 14.212-13.956 20.924-25.126 21.134-11.17.184-24.048-5.873-25.231-20.085-.368-4.51.946-12.114.946-12.114l48.544-.289s1.235 6.791.867 11.354Z" fill="#fff"/></g><path opacity=".5" d="M121.925 112.62s-1.314 7.578-.946 12.115c1.183 14.211 14.035 20.268 25.231 20.085 11.17-.184 23.943-6.896 25.126-21.134.368-4.563-.841-11.354-.841-11.354l-48.57.288Z" fill="#4A90A8"/><path d="M123.607 131.604c-.263-1.284 2.839-3.225 5.52-3.225 2.838 0 2.234 2.57 4.809 2.57 2.707 0 3.995-1.154 6.65-1.206 3.022-.053 2.733 3.094 4.967 3.094 2.471 0 2.812-3.907 7.018-3.881 3.784.026 2.969 4.563 5.493 4.563 2.602 0 1.182-7.631 4.599-7.578 3.522.052 5.808 4.274 5.362 6.109-.631 2.596-7.649 11.931-21.92 12.114-13.378.184-21.736-8.915-22.498-12.56Z" fill="#DBAC73"/><path d="M134.882 120.984c0 .604-.473 1.076-1.078 1.076a1.065 1.065 0 0 1-1.077-1.076c0-.603.473-1.075 1.077-1.075.605 0 1.078.472 1.078 1.075ZM135.514 124.604a.603.603 0 1 0 .001-1.207.603.603 0 0 0-.001 1.207ZM126.104 115.401a.83.83 0 0 1-.841.839.83.83 0 0 1-.841-.839.83.83 0 0 1 .841-.839.83.83 0 0 1 .841.839ZM157.538 120.329a.997.997 0 1 1-1.995 0 .997.997 0 0 1 1.995 0ZM158.142 119.096a.551.551 0 1 0 .002-1.102.551.551 0 0 0-.002 1.102ZM169.076 117.551a.71.71 0 1 0 .002-1.418.71.71 0 0 0-.002 1.418Z" fill="#fff"/><path d="M160.534 115.845c.158-.419 1.077.84 1.498 1.338.421.498 1.945-.341 1.892.131-.026.472-1.34 1.154-1.235 1.704.131.551 1.919-.341 1.945.158.026.498-1.814 1.704-1.63 1.887.158.21 1.761-.472 1.709-.157-.053.315-1.314.734-1.13 1.285.184.577 1.471-.42 1.55.288.105.708-.92.682-.683 1.049.237.367.972-.341 1.025 0 .053.341-.815.63-.394 1.023.42.367 1.682-1.023 1.708-.157.026.865-.526.786-.893 1.232-.368.446-.447.76.105.944.552.183 1.182.551.841.682-.342.157-1.157.314-1.288.865-.158.524 1.261.97.999 1.311-.263.341-1.078-.079-1.183.393-.079.446.946.734.709 1.023-.236.288-1.314-.21-1.366.183-.053.394.999.944.788 1.233-.21.262-1.209-.498-1.445.026-.237.524.998.734.867.865-.131.158-1.025-.341-1.13.027-.105.367.841.55.736.786-.079.236-.999-.21-1.157.053-.157.262.579.917.342 1.311-.236.393-1.629-.026-1.603.419.052.446 1.077.63.893.813-.184.184-1.577.105-1.524.498.053.394.71.577.605.787-.079.236-1.131-.184-1.157.183-.026.394-.368 1.757-.368 1.757s0-1.678.105-1.992c.105-.315-.604-1.128-.499-1.364.105-.236.92.577.999.288.079-.262-.579-.472-.395-.891.184-.42.841-.184.894-.393.053-.21-.683-.813-.526-1.128.158-.288 1.209.525 1.288.367.079-.183-.604-.865-.447-1.101.158-.262.579.157.684.079.105-.079-1.209-.866-.868-1.443.342-.576 1.209.866 1.367.603.158-.262-.499-.839-.342-1.101.158-.262.71.472.815.184.105-.289-.263-1.6-.079-1.783.184-.184.894.629 1.104-.079.211-.708-1.34-1.311-1.182-1.809.157-.498 1.261.078 1.392-.341.132-.446-1.077-1.101-1.025-1.259.079-.157 1.393.499 1.262-.157s-1.025-.603-1.078-.839c-.052-.21.789-.341.71-.551-.079-.209-1.104-.105-1.261-.55-.158-.446.289-.499.131-.761-.158-.262-1.551.551-1.63.079-.105-.472 1.288-.997 1.078-1.521-.21-.524-2.076.524-2.05.026.026-.472 1.603-.865 1.367-1.442-.237-.603-1.551.315-1.656-.052-.105-.367 1.156-.551.972-.997-.184-.445-1.366.341-1.261-.314.105-.656 1.603-.63 1.498-.997-.105-.367-.526-.183-.526-.472-.026-.262.368-.157.421-.419.105-.131-1.577-1.075-1.288-1.81Z" fill="#7EA21A"/><path d="M143.24 140.52c.421-.472 1.446-1.023 2.917-.525 1.446.525 2.865 1.023 2.681 1.495-.184.472-2.865 1.075-3.863.996-.973-.105-2.681-.891-1.735-1.966ZM148.181 139.445c0-.656 1.971-.105 2.024.315.052.419-2.024.708-2.024-.315ZM151.178 142.488c-.132-.263 1.708-1.338 2.155-.656.473.656-1.472 1.862-2.155.656ZM135.619 140.18c0-.394 2.97.892 2.444 1.364-.526.472-2.392 0-2.444-1.364ZM144.002 143.377c-.132-.288 1.918-.55 2.023-.183.079.367-1.603 1.075-2.023.183ZM142.951 138.868c-.289-.42 1.077-.945 1.235-.473.131.473-.946.892-1.235.473ZM157.301 140.651c-.368-.419 1.893-1.967 2.129-1.495.237.472-1.366 2.335-2.129 1.495ZM158.116 138.631c-.053.341 1.498 0 1.55-.367.053-.394-1.419-.525-1.55.367Z" fill="#A5713D"/><path d="M140.979 126.098c-.21-1.941-3.732-3.016-3.732-4.196 0-1.573 1.709-1.39 2.366-3.461.657-2.045-1.945-3.409-1.945-3.409 1.13 1.285.946 1.757.079 2.727.446.236.972.656.63 1.128-.341.472-1.13.288-1.682.078-.026 0-.052-.026-.079-.026-.236.262-.473.525-.735.839-1.472 1.783 2.207 3.409 2.207 6.084 0 3.487-2.996 8.102-2.996 8.102h5.546s-1.236-1.547-1.236-3.042c-.026-1.547 1.919-1.914 1.577-4.824Zm-2.207 1.573c.026-.577.473-1.39 1.156-1.39.237 0 .368.131.394.341-.079.682-.604 1.599-1.13 1.652-.289 0-.42-.262-.42-.603Z" fill="#4E5E0A"/><path d="M146.211 125.443c-.105-1.023 1.104-1.705.841-2.675-.289-.97-3.285-1.363-3.416-2.334-.184-1.311.473-2.045.473-2.045s-3.049 1.705-3.049 2.937c0 1.573 1.393 1.914 1.472 3.75.105 1.835-2.576 4.3-2.392 5.532.184 1.233 1.577 3.488 1.577 3.488H147.184s-1.761-2.124-1.472-3.068c.289-.97 2.76-2.177 2.865-3.357.026-1.127-2.287-1.206-2.366-2.228Zm0 1.835c.237.157.342.341.368.551-.026.655-1.235 1.416-2.286 1.783-1.078.367-1.314.419-1.314.052 0-.131.026-.262.026-.393.053-.761 1.84-2.832 3.206-1.993Zm-3.259-4.903c-.052-.289.316-.394.763-.341.499.105 1.077.419 1.182.891.184.892-.657 1.783-1.209 1.705-.552-.079-.368-1.102-.736-2.177.027-.026 0-.052 0-.078ZM129.521 128.065c0-.053-.026-.105-.026-.157-.105-1.311 1.104-1.836 1.761-2.675.552-.708.157-1.206-.657-2.019-.342.079-.684.079-.92-.105-.263-.236-.132-.551.105-.787-.578-.97-.026-1.887-.026-1.887-2.944 2.386.184 3.356.552 4.3.368.97-1.288 1.311-2.392 2.937-1.104 1.652.105 2.255.841 3.277.736 1.023.368 3.147.368 3.147h3.312c.026-2.439-2.629-3.986-2.918-6.031Zm-1.472.577c-.079-.21-.026-.367.158-.472.447-.21.841.157 1.051.577.132.288.158.577.053.734-.21.314-.973-.289-1.262-.839Z" fill="#4E5E0A"/><path d="M147.498 133.519c-.368-.472-1.656-1.364-2.681-1.023-2.207.76-2.68.42-4.1.839-.052-.079-.105-.131-.157-.21-.368-.76-1.761-2.333-2.392-3.146-.657-.813-1.866-1.311-2.313-.813-.815.944-1.288 2.098-1.524 3.094a2.122 2.122 0 0 0-.421-.21c-.92-.419-2.313-.603-3.417-.55-1.103.078-1.944 1.022-2.128 1.573-.184.551 0 1.494 1.209 1.442.972-.052 3.364 0 4.757-.184.447.289 2.523.184 5.125.105.026.105.079.184.184.184.368 0 7.464-.079 7.858-.131.395-.053.368-.498 0-.97Z" fill="#DBAC73"/><path d="M147.499 114.009s1.814-.157 2.55.997c.735 1.153 1.419 3.041 1.419 3.041l-4.941 2.124s-.079-.472-.342-.393c-.263.078-1.656.524-1.656.524s-.105-1.206 1.078-2.674c1.209-1.495 1.472-1.364 1.892-1.81.421-.419 0-1.809 0-1.809ZM145.528 120.563l.788 1.784s-.341.183-.578.865c-.236.682-.447 2.805-1.734 4.09a4.588 4.588 0 0 1-4.284 1.206c-1.236-.314-1.551-.76-1.551-.76s3.364-1.731 3.18-2.57c-.184-.839-.552-1.73-2.155-2.202-1.603-.472-3.18-1.705-3.18-1.705s1.051-.236 3.811-.157c2.759.053 5.046.21 5.703-.551Z" fill="#FFA300"/><path d="M147.498 122.583s.079.656-.263 1.862c-.341 1.206-.998 2.596-1.445 2.491-.421-.105.263-2.15.184-2.596-.079-.446-.315-.682-.053-.97.263-.288 1.104-1.075 1.104-1.075l.473.288ZM151.441 123.003s.21.944-.29 2.15c-.499 1.206-2.418 2.727-2.68 2.648-.263-.078.657-1.573.525-2.019-.131-.445-.841-1.389-.315-1.966.525-.577 2.76-.813 2.76-.813ZM153.675 122.845s-.342.681-.237 1.048c.105.368.815 1.154.289 1.652 0 0-.42-.891-.709-.97-.289-.078-.447-.105-.368-.655.079-.551.526-1.102.526-1.102h.499v.027Z" fill="#FFA300"/><path d="M145.659 121.693c-.079-.393-.684-.472-.579-.761.105-.288 2.445-2.386 4.547-2.989 2.103-.577 5.152.262 6.413.813 1.262.551 1.945 1.154 1.892 1.547-.052.393 0 .734-.919 1.39-.92.629-4.574 2.045-6.229 1.94-1.63-.105-4.968-1.022-5.099-1.232-.132-.21.052-.21-.026-.708Z" fill="#FF6D00"/><path d="M155.699 120.041c.102 0 .184-.164.184-.367 0-.203-.082-.367-.184-.367-.101 0-.184.164-.184.367 0 .203.083.367.184.367Z" fill="#000"/><path d="m99.11 121.693.08 14.893s17.846.21 19.002-.078c1.156-.289 6.912-4.851 7.517-5.087.604-.236 1.183 0 .946.682-.237.681-1.13 2.884-1.13 2.884s4.363-.498 4.783-.734c.394-.236 3.023-2.255 3.548-2.439.552-.183 1.446.184 1.209.734-.236.577-2.707 3.75-2.707 3.75s.5 3.409-.788 4.667c-1.288 1.259-7.359 2.282-10.303 2.465-2.944.184-25.284 3.042-27.15 2.937-1.866-.079-4.6-.656-5.545-4.641-.947-3.986-1.262-19.299-1.262-19.299l11.8-.734Z" fill="#F69576"/></svg>