<svg width="375" height="308" fill="none" xmlns="http://www.w3.org/2000/svg"><path d="M169.758 54.385c18.162 3.435 52.381-66.68 90.255-51.21 37.873 15.471 10.039 65.317 23.549 76.487 13.509 11.17 50.515-23.205 66.074 12.901 15.559 36.107-8.095 74.783-8.437 80.787-.342 6.005 42.657 38.283 30.724 82.728-11.932 44.445-170.389 48.745-226.949 50.449-56.56 1.705-132.175 1.574-143.318-44.759-11.144-46.333 39.476-86.687 44.154-99.64 4.678-12.953-37.663-58.027 15.428-113.433 41.08-42.871 90.359 2.255 108.52 5.69Z" fill="#9ECBDD"/><path d="M1.708 261.743c11.144 46.332 86.785 46.49 143.319 44.759 56.533-1.73 214.991-6.004 226.949-50.449 8.122-30.233-9.172-54.855-20.973-69.381l-24.285-28.712-32.328 14.107-49.674-30.364-39.187 28.528-42.42-57.529-27.36 34.324-27.439-9.125-81.081 48.771c-15.087 19.089-32.564 45.887-25.52 75.071Z" fill="#749DC1"/><path d="m161.481 153.843-4.311 30.889-2.943-.446 6.833-30.521.421.078Z" fill="#fff"/><path d="m159.482 164.043 7.806 6.451-.079.446-8.069-5.192.342-1.705Z" fill="#fff"/><path d="m157.931 185.284-4.626-.708.184-.84 4.599.709-.157.839Z" fill="#DFFAF5"/><path d="m159.482 164.043-9.804 3.75-.078.446 9.54-2.491.342-1.705Z" fill="#fff"/><path d="m159.824 162.339-3.364 21.843-1.577-.236 4.941-21.607ZM132.096 160.714l1.131 23.861-2.261.052.815-23.887.315-.026Z" fill="#fff"/><path d="m132.043 168.685 6.807 3.749-.026.341-6.781-2.779v-1.311Z" fill="#fff"/><path d="m133.882 184.863-3.574.131v-.656l3.574-.131v.656Z" fill="#DFFAF5"/><path d="m132.043 168.685-6.833 4.195v.341l6.833-3.225v-1.311Z" fill="#fff"/><path d="m132.069 167.348.552 16.912-1.209.026.657-16.938Z" fill="#fff"/><path d="M357.888 195.717c-11.774-4.694-32.248-15.969-52.459-16.572-34.299-.996-70.175 25.854-70.175 25.854s-70.962-32.933-162.82-25.854c-21.946 1.705-39.476 9.073-52.302 16.939-12.826 18.04-24.364 41.01-18.45 65.658 11.143 46.332 86.785 46.49 143.318 44.759 56.534-1.731 214.991-6.005 226.95-50.449 6.623-24.648-3.654-45.573-14.062-60.335Z" fill="#9C6"/><mask id="mask0_131_9604" style="mask-type:luminance" maskUnits="userSpaceOnUse" x="0" y="178" width="375" height="130"><path d="M357.888 195.717c-11.774-4.694-32.248-15.969-52.459-16.572-34.299-.996-70.175 25.854-70.175 25.854s-70.962-32.933-162.82-25.854c-21.946 1.705-39.476 9.073-52.302 16.939-12.826 18.04-24.364 41.01-18.45 65.658 11.143 46.332 86.785 46.49 143.318 44.759 56.534-1.731 214.991-6.005 226.95-50.449 6.623-24.648-3.654-45.573-14.062-60.335Z" fill="#fff"/></mask><g mask="url('#mask0_131_9604')"><path d="M42.079 152.453H30.646v172.273h11.433V152.453Z" fill="#7EA21A"/></g><mask id="mask1_131_9604" style="mask-type:luminance" maskUnits="userSpaceOnUse" x="0" y="178" width="375" height="130"><path d="M357.888 195.717c-11.774-4.694-32.248-15.969-52.459-16.572-34.299-.996-70.175 25.854-70.175 25.854s-70.962-32.933-162.82-25.854c-21.946 1.705-39.476 9.073-52.302 16.939-12.826 18.04-24.364 41.01-18.45 65.658 11.143 46.332 86.785 46.49 143.318 44.759 56.534-1.731 214.991-6.005 226.95-50.449 6.623-24.648-3.654-45.573-14.062-60.335Z" fill="#fff"/></mask><g mask="url('#mask1_131_9604')"><path d="M65.443 152.453H54.01v172.273h11.433V152.453Z" fill="#7EA21A"/></g><mask id="mask2_131_9604" style="mask-type:luminance" maskUnits="userSpaceOnUse" x="0" y="178" width="375" height="130"><path d="M357.888 195.717c-11.774-4.694-32.248-15.969-52.459-16.572-34.299-.996-70.175 25.854-70.175 25.854s-70.962-32.933-162.82-25.854c-21.946 1.705-39.476 9.073-52.302 16.939-12.826 18.04-24.364 41.01-18.45 65.658 11.143 46.332 86.785 46.49 143.318 44.759 56.534-1.731 214.991-6.005 226.95-50.449 6.623-24.648-3.654-45.573-14.062-60.335Z" fill="#fff"/></mask><g mask="url('#mask2_131_9604')"><path d="M87.546 152.453H76.113v172.273h11.433V152.453Z" fill="#7EA21A"/></g><mask id="mask3_131_9604" style="mask-type:luminance" maskUnits="userSpaceOnUse" x="0" y="178" width="375" height="130"><path d="M357.888 195.717c-11.774-4.694-32.248-15.969-52.459-16.572-34.299-.996-70.175 25.854-70.175 25.854s-70.962-32.933-162.82-25.854c-21.946 1.705-39.476 9.073-52.302 16.939-12.826 18.04-24.364 41.01-18.45 65.658 11.143 46.332 86.785 46.49 143.318 44.759 56.534-1.731 214.991-6.005 226.95-50.449 6.623-24.648-3.654-45.573-14.062-60.335Z" fill="#fff"/></mask><g mask="url('#mask3_131_9604')"><path d="M110.913 152.453H99.48v172.273h11.433V152.453Z" fill="#7EA21A"/></g><mask id="mask4_131_9604" style="mask-type:luminance" maskUnits="userSpaceOnUse" x="0" y="178" width="375" height="130"><path d="M357.888 195.717c-11.774-4.694-32.248-15.969-52.459-16.572-34.299-.996-70.175 25.854-70.175 25.854s-70.962-32.933-162.82-25.854c-21.946 1.705-39.476 9.073-52.302 16.939-12.826 18.04-24.364 41.01-18.45 65.658 11.143 46.332 86.785 46.49 143.318 44.759 56.534-1.731 214.991-6.005 226.95-50.449 6.623-24.648-3.654-45.573-14.062-60.335Z" fill="#fff"/></mask><g mask="url('#mask4_131_9604')"><path d="M134.067 152.453h-11.433v172.273h11.433V152.453Z" fill="#7EA21A"/></g><mask id="mask5_131_9604" style="mask-type:luminance" maskUnits="userSpaceOnUse" x="0" y="178" width="375" height="130"><path d="M357.888 195.717c-11.774-4.694-32.248-15.969-52.459-16.572-34.299-.996-70.175 25.854-70.175 25.854s-70.962-32.933-162.82-25.854c-21.946 1.705-39.476 9.073-52.302 16.939-12.826 18.04-24.364 41.01-18.45 65.658 11.143 46.332 86.785 46.49 143.318 44.759 56.534-1.731 214.991-6.005 226.95-50.449 6.623-24.648-3.654-45.573-14.062-60.335Z" fill="#fff"/></mask><g mask="url('#mask5_131_9604')"><path d="M157.431 152.453h-11.433v172.273h11.433V152.453Z" fill="#7EA21A"/></g><mask id="mask6_131_9604" style="mask-type:luminance" maskUnits="userSpaceOnUse" x="0" y="178" width="375" height="130"><path d="M357.888 195.717c-11.774-4.694-32.248-15.969-52.459-16.572-34.299-.996-70.175 25.854-70.175 25.854s-70.962-32.933-162.82-25.854c-21.946 1.705-39.476 9.073-52.302 16.939-12.826 18.04-24.364 41.01-18.45 65.658 11.143 46.332 86.785 46.49 143.318 44.759 56.534-1.731 214.991-6.005 226.95-50.449 6.623-24.648-3.654-45.573-14.062-60.335Z" fill="#fff"/></mask><g mask="url('#mask6_131_9604')"><path d="M179.536 152.453h-11.433v172.273h11.433V152.453Z" fill="#7EA21A"/></g><mask id="mask7_131_9604" style="mask-type:luminance" maskUnits="userSpaceOnUse" x="0" y="178" width="375" height="130"><path d="M357.888 195.717c-11.774-4.694-32.248-15.969-52.459-16.572-34.299-.996-70.175 25.854-70.175 25.854s-70.962-32.933-162.82-25.854c-21.946 1.705-39.476 9.073-52.302 16.939-12.826 18.04-24.364 41.01-18.45 65.658 11.143 46.332 86.785 46.49 143.318 44.759 56.534-1.731 214.991-6.005 226.95-50.449 6.623-24.648-3.654-45.573-14.062-60.335Z" fill="#fff"/></mask><g mask="url('#mask7_131_9604')"><path d="M202.901 152.453h-11.433v172.273h11.433V152.453Z" fill="#7EA21A"/></g><mask id="mask8_131_9604" style="mask-type:luminance" maskUnits="userSpaceOnUse" x="0" y="178" width="375" height="130"><path d="M357.888 195.717c-11.774-4.694-32.248-15.969-52.459-16.572-34.299-.996-70.175 25.854-70.175 25.854s-70.962-32.933-162.82-25.854c-21.946 1.705-39.476 9.073-52.302 16.939-12.826 18.04-24.364 41.01-18.45 65.658 11.143 46.332 86.785 46.49 143.318 44.759 56.534-1.731 214.991-6.005 226.95-50.449 6.623-24.648-3.654-45.573-14.062-60.335Z" fill="#fff"/></mask><g mask="url('#mask8_131_9604')"><path d="M226.055 152.453h-11.433v172.273h11.433V152.453Z" fill="#7EA21A"/></g><mask id="mask9_131_9604" style="mask-type:luminance" maskUnits="userSpaceOnUse" x="0" y="178" width="375" height="130"><path d="M357.888 195.717c-11.774-4.694-32.248-15.969-52.459-16.572-34.299-.996-70.175 25.854-70.175 25.854s-70.962-32.933-162.82-25.854c-21.946 1.705-39.476 9.073-52.302 16.939-12.826 18.04-24.364 41.01-18.45 65.658 11.143 46.332 86.785 46.49 143.318 44.759 56.534-1.731 214.991-6.005 226.95-50.449 6.623-24.648-3.654-45.573-14.062-60.335Z" fill="#fff"/></mask><g mask="url('#mask9_131_9604')"><path d="M249.421 152.453h-11.433v172.273h11.433V152.453Z" fill="#7EA21A"/></g><mask id="mask10_131_9604" style="mask-type:luminance" maskUnits="userSpaceOnUse" x="0" y="178" width="375" height="130"><path d="M357.888 195.717c-11.774-4.694-32.248-15.969-52.459-16.572-34.299-.996-70.175 25.854-70.175 25.854s-70.962-32.933-162.82-25.854c-21.946 1.705-39.476 9.073-52.302 16.939-12.826 18.04-24.364 41.01-18.45 65.658 11.143 46.332 86.785 46.49 143.318 44.759 56.534-1.731 214.991-6.005 226.95-50.449 6.623-24.648-3.654-45.573-14.062-60.335Z" fill="#fff"/></mask><g mask="url('#mask10_131_9604')"><path d="M271.524 152.453h-11.432v172.273h11.432V152.453Z" fill="#7EA21A"/></g><mask id="mask11_131_9604" style="mask-type:luminance" maskUnits="userSpaceOnUse" x="0" y="178" width="375" height="130"><path d="M357.888 195.717c-11.774-4.694-32.248-15.969-52.459-16.572-34.299-.996-70.175 25.854-70.175 25.854s-70.962-32.933-162.82-25.854c-21.946 1.705-39.476 9.073-52.302 16.939-12.826 18.04-24.364 41.01-18.45 65.658 11.143 46.332 86.785 46.49 143.318 44.759 56.534-1.731 214.991-6.005 226.95-50.449 6.623-24.648-3.654-45.573-14.062-60.335Z" fill="#fff"/></mask><g mask="url('#mask11_131_9604')"><path d="M294.889 152.453h-11.433v172.273h11.433V152.453Z" fill="#7EA21A"/></g><mask id="mask12_131_9604" style="mask-type:luminance" maskUnits="userSpaceOnUse" x="0" y="178" width="375" height="130"><path d="M357.888 195.717c-11.774-4.694-32.248-15.969-52.459-16.572-34.299-.996-70.175 25.854-70.175 25.854s-70.962-32.933-162.82-25.854c-21.946 1.705-39.476 9.073-52.302 16.939-12.826 18.04-24.364 41.01-18.45 65.658 11.143 46.332 86.785 46.49 143.318 44.759 56.534-1.731 214.991-6.005 226.95-50.449 6.623-24.648-3.654-45.573-14.062-60.335Z" fill="#fff"/></mask><g mask="url('#mask12_131_9604')"><path d="M318.045 152.453h-11.433v172.273h11.433V152.453Z" fill="#7EA21A"/></g><mask id="mask13_131_9604" style="mask-type:luminance" maskUnits="userSpaceOnUse" x="0" y="178" width="375" height="130"><path d="M357.888 195.717c-11.774-4.694-32.248-15.969-52.459-16.572-34.299-.996-70.175 25.854-70.175 25.854s-70.962-32.933-162.82-25.854c-21.946 1.705-39.476 9.073-52.302 16.939-12.826 18.04-24.364 41.01-18.45 65.658 11.143 46.332 86.785 46.49 143.318 44.759 56.534-1.731 214.991-6.005 226.95-50.449 6.623-24.648-3.654-45.573-14.062-60.335Z" fill="#fff"/></mask><g mask="url('#mask13_131_9604')"><path d="M341.409 152.453h-11.432v172.273h11.432V152.453Z" fill="#7EA21A"/></g><mask id="mask14_131_9604" style="mask-type:luminance" maskUnits="userSpaceOnUse" x="0" y="178" width="375" height="130"><path d="M357.888 195.717c-11.774-4.694-32.248-15.969-52.459-16.572-34.299-.996-70.175 25.854-70.175 25.854s-70.962-32.933-162.82-25.854c-21.946 1.705-39.476 9.073-52.302 16.939-12.826 18.04-24.364 41.01-18.45 65.658 11.143 46.332 86.785 46.49 143.318 44.759 56.534-1.731 214.991-6.005 226.95-50.449 6.623-24.648-3.654-45.573-14.062-60.335Z" fill="#fff"/></mask><g mask="url('#mask14_131_9604')"><path d="M363.512 152.453H352.08v172.273h11.432V152.453Z" fill="#7EA21A"/></g><path d="M12.588 207.7c-9.25 15.864-15.638 34.428-10.907 54.042 11.144 46.332 86.785 46.49 143.319 44.759 56.533-1.73 214.991-6.004 226.949-50.449 4.994-18.591.368-35.058-6.649-48.352H12.588ZM318.623 161.211s10.881-4.589 15.98 5.086c5.099 9.676-3.627 15.838-7.99 16.126-4.363.289-8.884-1.18-12.011.105-3.128 1.259-9.12 7.132-15.98 6.844-6.86-.288-13.273-5.638-14.692-16.546-2.365-17.777 12.747-15.732 12.747-15.732s-4.415-14.369 4.126-19.168c8.516-4.798 18.03-.498 20.869 6.555 2.838 7.054-3.049 16.73-3.049 16.73Z" fill="#96C22F"/><path d="M310.582 149.49s.394 9.387-1.183 12.114c-1.577 2.727-4.021 5.27-3.811 5.873.184.577 8.621 16.939 11.065 22.787 2.444 5.847 1.971 7.709 1.367 8.993-.579 1.259-.395 10.935-.395 10.935h-6.36s.079-6.923.762-9.781c.71-2.832 1.577-2.832 1.288-4.195-.289-1.364-11.275-27.087-10.303-29.447.973-2.359 4.205-3.015 5.099-6.24.92-3.225 2.471-11.039 2.471-11.039Z" fill="#6B3425"/><path d="M322.461 170.204s-5.598 5.192-6.965 7.421c-1.366 2.255-3.469 6.345-3.469 6.345l1.997 2.937s2.024-7.237 3.233-8.889c1.209-1.652 5.204-7.814 5.204-7.814ZM289.423 169.522s5.782 3.514 9.593 4.405c3.811.892 8.331 1.573 8.331 1.573l1.183 3.068s-18.424-4.457-19.107-9.046Z" fill="#6B3425"/><path d="M233.257 112.912s-3.259-6.294 4.153-7.002c-.762-5.008 6.492-12.56 19.081-9.334 2.129-5.454 14.14-15.077 22.498-3.356 15.927-6.66 18.187 2.936 16.058 4.667 12.353-2.229 10.172 6.214 8.095 7.158 16.348-3.487 14.088 7.867 14.088 7.867h-83.973ZM86.865 58.58s-1.367-3.487 1.734-3.88c-.315-2.78 2.707-6.949 7.964-5.166.894-3.015 5.914-8.338 9.383-1.861 6.649-3.697 7.595 1.625 6.702 2.57 5.151-1.233 4.258 3.434 3.364 3.959 6.834-1.94 5.887 4.353 5.887 4.353H86.865v.026Z" fill="#fff"/><path d="M250.419 66.999H61.317v4.614h189.102V67Z" fill="#6D2F00"/><path d="M55.745 68.676c-.71-5.716 12.537-4.274 14.245 0 1.708 4.274 3.417 21.318 1.998 44.052-1.42 22.733-.579 44.051-3.417 55.693-2.839 11.642-.578 26.143 0 39.227.578 13.084 1.997 16.493 1.419 25.854-.578 9.387 2.523 20.741 2.523 20.741l-13.062-1.128s-1.13-26.43-2.287-52.573c-1.156-26.142 1.13-50.58 2.287-69.905 1.156-19.325-2.865-55.143-3.706-61.96Z" fill="#6D2F00"/><path d="M111.017 98.648c-.158 0-.289.026-.421.052.027-.131.053-.288.053-.446v-.105c.131.027.289.053.447.053a2.05 2.05 0 0 0 2.05-2.045c0-.42-.132-.813-.368-1.154.447-.394.736-.944.736-1.573 0-1.023-.71-1.862-1.682-2.046.026-.183.052-.367.052-.55a2.545 2.545 0 0 0-2.444-2.544 3.42 3.42 0 0 0-1.84-2.229 2.19 2.19 0 0 0-.894-2.386c-.814-.524-1.839-.42-2.575.158a3.36 3.36 0 0 0-3.18-2.255 3.35 3.35 0 0 0-3.365 3.356c0 .393.08.76.184 1.101a3.465 3.465 0 0 0-1.471-.34c-1.367 0-2.55.812-3.05 1.966-1.05.052-1.891.918-1.891 1.966 0 .682.367 1.312.893 1.652a2.86 2.86 0 0 0-.394 1.416c0 .656.236 1.285.63 1.757a2.344 2.344 0 0 0-1.13 2.02 2.398 2.398 0 0 0 2.392 2.385h.105c-.052.184-.105.367-.105.577 0 .787.473 1.469 1.157 1.757a2.381 2.381 0 0 0-.526 1.468 2.342 2.342 0 0 0 2.34 2.334h.21c-.132.288-.21.629-.21.97 0 .944.551 1.731 1.34 2.124a1.525 1.525 0 0 0-.08.498 1.967 1.967 0 0 0 3.076 1.626c.184.052.394.105.604.105.079 0 .158-.026.237-.026a2.075 2.075 0 0 0 2.076 1.966h.105a2.067 2.067 0 0 0 1.971 1.442c.815 0 1.499-.472 1.866-1.153.237.105.5.157.763.157a1.938 1.938 0 0 0 1.945-1.94 2.07 2.07 0 0 0-.237-.918 2.146 2.146 0 0 0 .999-1.809c0-1.023-.71-1.862-1.63-2.098a2.143 2.143 0 0 0 1.63-2.098c0-.078-.027-.157-.027-.236 1.183-.183 2.103-1.206 2.103-2.438a2.455 2.455 0 0 0-2.444-2.517Z" fill="#512176"/><path d="M104.263 91.672a1.837 1.837 0 0 0 1.839-1.835A1.837 1.837 0 0 0 104.263 88c-1.017 0-1.84.822-1.84 1.836 0 1.014.823 1.835 1.84 1.835ZM98.48 97.415c.988 0 1.788-.799 1.788-1.783 0-.985-.8-1.783-1.787-1.783-.987 0-1.787.798-1.787 1.783 0 .984.8 1.783 1.787 1.783ZM105.076 102.056c.987 0 1.788-.798 1.788-1.783 0-.984-.801-1.783-1.788-1.783s-1.787.799-1.787 1.783c0 .985.8 1.783 1.787 1.783Z" fill="#9C6CC0"/><path d="M54.221 127.07c.131 0 .263 0 .368.026-.026-.131-.053-.236-.053-.367v-.078a2.05 2.05 0 0 1-.394.052c-.999 0-1.787-.787-1.787-1.73 0-.368.105-.708.315-.971a1.677 1.677 0 0 1-.63-1.337c0-.865.63-1.573 1.471-1.731-.026-.157-.052-.314-.052-.471 0-1.154.946-2.124 2.155-2.177.21-.839.815-1.521 1.603-1.888a1.808 1.808 0 0 1 .789-2.019 1.937 1.937 0 0 1 2.234.131c.394-1.101 1.498-1.914 2.76-1.914 1.629 0 2.943 1.259 2.943 2.832 0 .341-.053.656-.158.944a2.986 2.986 0 0 1 1.288-.288c1.21 0 2.234.681 2.681 1.652.92.052 1.656.786 1.656 1.678 0 .577-.316 1.101-.789 1.416.21.34.342.76.342 1.206 0 .577-.21 1.075-.552 1.494.578.367.972.997.972 1.705 0 1.101-.946 2.019-2.076 2.019h-.079c.053.157.08.314.08.498 0 .655-.421 1.232-1.026 1.495.29.34.447.76.447 1.232 0 1.075-.92 1.967-2.05 1.967h-.184c.131.262.184.524.184.839 0 .786-.473 1.468-1.157 1.809.027.131.053.262.053.419 0 .918-.762 1.652-1.708 1.652-.368 0-.71-.105-.973-.288a1.711 1.711 0 0 1-.525.079c-.08 0-.132 0-.21-.027-.053.944-.842 1.678-1.814 1.678h-.105c-.237.708-.92 1.207-1.735 1.207a1.85 1.85 0 0 1-1.63-.971c-.21.079-.42.132-.657.132-.946 0-1.708-.735-1.708-1.652 0-.289.079-.551.21-.787a1.794 1.794 0 0 1-.867-1.547c0-.865.605-1.573 1.446-1.783-.815-.21-1.446-.918-1.446-1.783 0-.079.026-.131.026-.184-1.051-.157-1.84-1.022-1.84-2.071.027-1.18 1-2.098 2.182-2.098Z" fill="#512176"/><path d="M60.134 121.145c.886 0 1.603-.692 1.603-1.547 0-.854-.717-1.547-1.603-1.547-.885 0-1.603.693-1.603 1.547 0 .855.718 1.547 1.603 1.547ZM65.18 126.021c.872 0 1.578-.681 1.578-1.521 0-.84-.706-1.521-1.577-1.521s-1.577.681-1.577 1.521c0 .84.706 1.521 1.577 1.521ZM59.424 129.954c.871 0 1.577-.681 1.577-1.521 0-.84-.706-1.52-1.577-1.52-.87 0-1.577.68-1.577 1.52s.706 1.521 1.577 1.521Z" fill="#9C6CC0"/><path d="M83.446 180.01c-.157 0-.315.027-.473.053.026-.158.053-.315.053-.498v-.105c.157.026.315.052.5.052a2.286 2.286 0 0 0 2.286-2.281c0-.472-.158-.918-.394-1.285.499-.419.814-1.049.814-1.757a2.337 2.337 0 0 0-1.866-2.281 2.43 2.43 0 0 0 .079-.629c0-1.547-1.209-2.806-2.733-2.858a3.949 3.949 0 0 0-2.05-2.518c.262-.996-.106-2.071-1.025-2.648-.92-.603-2.077-.472-2.865.184a3.729 3.729 0 0 0-3.548-2.518 3.754 3.754 0 0 0-3.759 3.75c0 .446.08.865.21 1.232a3.833 3.833 0 0 0-1.655-.367c-1.55 0-2.865.918-3.417 2.203a2.226 2.226 0 0 0-2.129 2.229c0 .786.394 1.468.999 1.861a3.056 3.056 0 0 0-.447 1.6c0 .734.263 1.442.71 1.966a2.653 2.653 0 0 0-1.262 2.255 2.672 2.672 0 0 0 2.68 2.675h.106c-.053.21-.105.42-.105.629 0 .892.526 1.626 1.288 1.967a2.559 2.559 0 0 0-.578 1.626 2.587 2.587 0 0 0 2.602 2.595h.236a2.592 2.592 0 0 0-.237 1.102c0 1.049.605 1.94 1.499 2.386a1.991 1.991 0 0 0-.08.551c0 1.206.973 2.176 2.182 2.176.473 0 .894-.157 1.262-.393.21.078.447.104.683.104.105 0 .184-.026.263-.026a2.335 2.335 0 0 0 2.34 2.203h.13c.316.918 1.183 1.599 2.208 1.599.92 0 1.682-.524 2.077-1.285.262.105.552.158.84.158 1.21 0 2.182-.97 2.182-2.177 0-.367-.105-.734-.263-1.022a2.39 2.39 0 0 0 1.13-2.045 2.417 2.417 0 0 0-1.84-2.334 2.417 2.417 0 0 0 1.84-2.334c0-.078-.026-.183-.026-.262a2.747 2.747 0 0 0 2.365-2.727c-.052-1.573-1.287-2.806-2.812-2.806Z" fill="#512176"/><path d="M75.877 172.223a2.074 2.074 0 0 0 2.076-2.071c0-1.144-.93-2.071-2.076-2.071a2.074 2.074 0 0 0-2.076 2.071c0 1.144.93 2.071 2.076 2.071ZM69.437 178.646a2.021 2.021 0 0 0 2.024-2.019 2.021 2.021 0 0 0-2.024-2.019 2.021 2.021 0 0 0-2.023 2.019c0 1.115.906 2.019 2.023 2.019ZM76.797 183.839a2.021 2.021 0 0 0 2.024-2.019 2.021 2.021 0 0 0-2.024-2.019 2.021 2.021 0 0 0-2.024 2.019c0 1.115.906 2.019 2.024 2.019Z" fill="#9C6CC0"/><path d="M154.909 90.991c.158 0 .315.026.473.053a2.927 2.927 0 0 1-.052-.498v-.105a2.92 2.92 0 0 1-.5.052 2.285 2.285 0 0 1-2.286-2.281c0-.472.157-.918.394-1.285a2.281 2.281 0 0 1-.815-1.757c0-1.127.815-2.071 1.866-2.281a2.453 2.453 0 0 1-.079-.63c0-1.546 1.209-2.805 2.734-2.857a3.947 3.947 0 0 1 2.05-2.518c-.263-.996.105-2.071 1.025-2.648.92-.603 2.076-.472 2.865.184a3.728 3.728 0 0 1 3.548-2.518 3.753 3.753 0 0 1 3.758 3.75c0 .446-.079.865-.21 1.232a3.832 3.832 0 0 1 1.656-.367c1.55 0 2.864.918 3.416 2.203a2.226 2.226 0 0 1 2.129 2.229c0 .786-.394 1.468-.999 1.861.29.472.447 1.023.447 1.6a3.06 3.06 0 0 1-.709 1.966 2.652 2.652 0 0 1 1.261 2.255 2.672 2.672 0 0 1-2.681 2.675h-.105c.053.21.105.42.105.63 0 .89-.525 1.625-1.287 1.966.367.446.578 1.022.578 1.626a2.588 2.588 0 0 1-2.602 2.595h-.237c.158.341.237.708.237 1.102 0 1.049-.605 1.94-1.498 2.386.052.183.079.367.079.55a2.174 2.174 0 0 1-2.182 2.177c-.473 0-.894-.158-1.261-.393a1.984 1.984 0 0 1-.684.104c-.105 0-.184-.026-.263-.026a2.334 2.334 0 0 1-2.339 2.203h-.131c-.316.917-1.183 1.599-2.208 1.599-.92 0-1.682-.524-2.076-1.285a2.28 2.28 0 0 1-.841.158 2.174 2.174 0 0 1-2.182-2.177c0-.367.105-.734.263-1.022a2.39 2.39 0 0 1-1.13-2.045c0-1.128.788-2.072 1.84-2.334a2.417 2.417 0 0 1-1.84-2.334c0-.079.026-.183.026-.262a2.747 2.747 0 0 1-2.365-2.727c.026-1.573 1.261-2.806 2.812-2.806Z" fill="#512176"/><path d="M162.452 83.204a2.074 2.074 0 0 0 2.077-2.071c0-1.144-.93-2.072-2.077-2.072a2.074 2.074 0 0 0-2.076 2.072c0 1.144.93 2.072 2.076 2.072ZM168.917 89.627a2.021 2.021 0 0 0 2.024-2.02 2.021 2.021 0 0 0-2.024-2.018 2.021 2.021 0 0 0-2.024 2.019c0 1.115.906 2.019 2.024 2.019ZM161.531 94.845a2.021 2.021 0 0 0 2.024-2.019c0-1.115-.906-2.019-2.024-2.019a2.021 2.021 0 0 0-2.023 2.02c0 1.114.906 2.018 2.023 2.018Z" fill="#9C6CC0"/><path d="m211.969 93.718-.315-.078c.053-.105.105-.184.158-.315 0-.026 0-.052.026-.079.105.053.184.105.289.158a1.551 1.551 0 0 0 1.971-.918 1.49 1.49 0 0 0 .027-.892c.42-.157.762-.472.919-.917.263-.708-.052-1.495-.657-1.862.079-.105.132-.236.184-.367a1.943 1.943 0 0 0-1.077-2.439 2.55 2.55 0 0 0-.736-2.045 1.612 1.612 0 0 0-.053-1.914c-.447-.577-1.209-.76-1.866-.525a2.504 2.504 0 0 0-1.682-2.386 2.528 2.528 0 0 0-3.233 1.521c-.105.289-.131.55-.157.84a2.551 2.551 0 0 0-.946-.604c-.973-.34-2.024-.079-2.655.63a1.474 1.474 0 0 0-1.84.917 1.442 1.442 0 0 0 .21 1.39c-.289.236-.499.55-.63.918-.158.472-.158.97 0 1.39a1.863 1.863 0 0 0-1.314 1.153 1.779 1.779 0 0 0 1.077 2.281c.026 0 .053.027.079.027a1.371 1.371 0 0 0-.21.393c-.211.55-.027 1.154.368 1.547-.342.21-.605.498-.736.891-.316.918.157 1.915 1.051 2.23.053.026.105.026.158.052a1.584 1.584 0 0 0-.394.629 1.793 1.793 0 0 0 .394 1.836c-.079.104-.132.21-.184.34a1.5 1.5 0 0 0 .893 1.888c.29.105.605.105.868.026.131.105.263.184.394.237.053.026.131.026.184.052-.237.787.184 1.652.972 1.914.027 0 .053 0 .079.026a1.552 1.552 0 0 0 2.628 1.18c.132.131.316.236.5.289.762.262 1.603-.131 1.866-.892a1.3 1.3 0 0 0 .052-.708 1.688 1.688 0 0 0 1.183-1.049 1.604 1.604 0 0 0-.631-1.888c.736.08 1.446-.34 1.682-1.075.027-.052.027-.105.053-.157a1.873 1.873 0 0 0 2.129-1.18c.394-1.049-.131-2.124-1.078-2.465Z" fill="#512176"/><path d="M210.724 86.24a1.389 1.389 0 0 0-.843-1.777 1.39 1.39 0 1 0-.938 2.618 1.394 1.394 0 0 0 1.781-.842ZM205.135 88.854a1.34 1.34 0 0 0-2.524-.9 1.341 1.341 0 0 0 2.524.9ZM208.613 93.826a1.341 1.341 0 0 0-2.524-.9 1.341 1.341 0 0 0 2.524.9Z" fill="#9C6CC0"/><path d="M247.792 74.708s-3.207 5.532-5.993 0c-2.786-5.533 3.627-8.942 7.254-7.028 3.627 1.914 4.705 8.653 2.129 11.25-2.576 2.595-5.335 5.086-11.958 4.378-6.624-.708-18.162-4.51-24.128-4.379-5.966.157-21.21 3.304-31.88-1.206-10.671-4.51-9.856-14.526-22.84-15.365-13.01-.866-21.552 9.806-39.503 12.14-17.95 2.334-57.27-1.626-57.27-1.626V70.25s22.893 2.072 36.665 2.622c13.772.577 26.177-2.203 40.475-7.945 14.298-5.742 17.82-6.45 23.759-4.982 8.332 2.045 16.401 15.864 25.153 17.122 8.752 1.285 17.32-1.284 27.57-.21 10.25 1.076 16.348 5.848 24.364 4.72 8.016-1.1 9.225-3.959 9.409-7.918.184-3.96-7.044-6.346-8.121-2.649-1.051 3.698 1.918 5.979 4.915 3.698Z" fill="#351B0A"/><path d="M80.45 72.715c-.367-.524-.972-2.517-3.942-3.409-2.996-.891-4.783 0-4.783 0v.053c.026-.315.131-.63.263-.787.368-.472 3.075-.577 4.442-1.232 1.392-.682 1.498-2.413 1.498-2.413s-.395.21-.973-.157-.131-1.206-.131-1.206-1.314.577-2.077.183c-.762-.393-.525-1.494-.525-1.494s-.42.813-1.025.472c-.605-.367-.368-1.075-.368-1.075s-.394.498-.92.288c-.526-.21-.184-.813-.184-.813s-.316.315-1.104.315-1.104-.892-1.104-.892.026 1.81-.788 1.731c-.815-.079-.473-1.023-.473-1.023s-.474.603-1.13.315c-.684-.288-1.709-1.626-1.709-1.626s-.473.787-1.314.97c-.841.184-1.997-.707-1.997-.707s.026.865-1.21.97c-1.235.105-2.312-.577-2.312-.577s1.34 1.494 1.393 2.202c.026.708-.684.866-.684.866s2.786 2.517 2.024 3.382c-.736.865-1.84-.865-1.84-.865s0 .498-.315.97c-.316.472-1.524.288-1.524.288s.394 1.207.105 1.521c-.29.315-1.13.184-1.13.184s.289.996-.106 1.573c-.394.577-1.918.708-1.918.708s.42.236.315.63c-.105.393-1.078.498-1.078.498s.631.629.579 1.127c-.08.498-1.34.734-1.34.734s.42.394.394.813c-.027.42-1.34 1.705-1.34 1.705s1.392-.499 2.023-.603c.63-.105.683.603.683.603s.605-.97 1.235-1.023c.631-.079.29 1.704.29 1.704s1.682-.629 2.444-.472c.788.184.315 1.39.315 1.39s1.183-.787 1.498-.865c.316-.079.605 1.285.605 1.285s.815-1.285 1.077-1.207c.237.08 1 1.679 1 1.679s.472-1.469 1.13-1.128c.683.315.42 1.835.42 3.12 0 1.285 1.183 1.915 1.183 1.915s1.182-1.18 2.628-2.072c1.472-.892 2.102-3.068 2.812-2.937.71.105 0 1.233 0 1.233s1.21-.682 2.34-1.81c1.13-1.127 1.34-2.438 1.524-2.936.184-.499 1.104 0 1.104 0s-.08-1.102 0-1.39c.078-.288.63-.393.63-.393s-.394-1.495-1.104-2.203c-.71-.708-2.786.236-3.653 0-.315-.079-.473-.34-.578-.656.736-.183 2.628-.524 4.547-.157 2.444.472 3.127 2.78 3.338 3.225.21.446 1.13-.078.84-.524ZM96.746 75.363c0 .551-.474 2.308 1.287 4.353 1.788 2.045 3.496 2.229 3.496 2.229l.026-.026c-.184.21-.394.393-.552.445-.473.184-2.523-1.022-3.863-1.18-1.34-.157-2.234 1.076-2.234 1.076s.394.026.63.55c.263.525-.472.944-.472.944s1.235.21 1.603.84c.368.629-.316 1.336-.316 1.336s.71-.393.973.158c.289.55-.237.944-.237.944s.526-.184.815.236c.29.42-.263.681-.263.681s.394-.078.973.289c.578.367.394 1.18.394 1.18s.815-1.337 1.393-.918c.578.446-.158.97-.158.97s.631-.236.999.289c.368.524.473 1.992.473 1.992s.71-.367 1.419-.078c.71.262 1.13 1.468 1.13 1.468s.368-.655 1.341-.13c.972.497 1.419 1.494 1.419 1.494s-.289-1.73.026-2.255c.316-.55.894-.315.894-.315s-.841-3.147.105-3.435c.946-.288.946 1.495.946 1.495s.237-.367.684-.55c.446-.184 1.261.497 1.261.497s.289-1.075.631-1.18c.368-.105.92.394.92.394s.263-.866.815-1.102c.551-.236 1.734.367 1.734.367s-.184-.393.053-.629c.263-.236 1.025.131 1.025.131s-.158-.76.105-1.101c.289-.34 1.34.079 1.34.079s-.131-.499.105-.787c.237-.288 1.788-.63 1.788-.63s-1.262-.288-1.788-.497c-.525-.21-.21-.76-.21-.76s-.893.419-1.393.183c-.499-.236.605-1.39.605-1.39s-1.525-.315-2.024-.813c-.499-.498.42-1.18.42-1.18s-1.235.026-1.498-.079c-.262-.104.158-1.232.158-1.232s-1.209.55-1.34.393c-.158-.157.052-1.704.052-1.704s-1.025.865-1.367.288c-.341-.55.552-1.547 1.157-2.49.604-.945.052-1.967.052-1.967s-1.419.314-2.917.288c-1.498-.026-2.97 1.259-3.443.84-.473-.42.578-.918.578-.918s-1.209-.08-2.575.236c-1.367.288-2.156 1.153-2.523 1.442-.368.288-.815-.525-.815-.525s-.473.84-.657 1.023c-.184.183-.657 0-.657 0s-.42 1.285-.237 2.124c.184.839 2.155 1.127 2.681 1.704.184.21.184.472.105.734-.631-.21-2.181-.839-3.417-2.019-1.577-1.494-.998-3.513-.946-3.933.158-.314-.71-.314-.71.131ZM125.736 71.665c.131.63-.027 2.701 2.444 4.615 2.471 1.914 4.442 1.73 4.442 1.73l.026-.025c-.158.288-.342.524-.526.629-.499.315-3.048-.577-4.599-.446-1.551.131-2.26 1.704-2.26 1.704s.446-.052.841.472c.394.525-.316 1.18-.316 1.18s1.446-.052 1.998.577c.552.63-.053 1.574-.053 1.574s.684-.603 1.13-.053c.447.55-.052 1.128-.052 1.128s.552-.315.972.078c.421.394-.131.813-.131.813s.42-.183 1.156.105.71 1.233.71 1.233.631-1.705 1.367-1.338.052 1.128.052 1.128.657-.394 1.183.105c.526.498.999 2.15.999 2.15s.709-.55 1.577-.42c.867.131 1.603 1.39 1.603 1.39s.263-.813 1.472-.446c1.209.341 1.945 1.364 1.945 1.364s-.71-1.888-.5-2.544c.237-.682.946-.55.946-.55s-1.682-3.357-.683-3.881c.999-.525 1.419 1.468 1.419 1.468s.184-.472.657-.786c.473-.315 1.525.288 1.525.288s.079-1.259.447-1.468c.367-.184 1.13.236 1.13.236s.105-1.023.657-1.416c.578-.394 2.05.026 2.05.026s-.316-.393-.079-.708c.236-.315 1.183-.079 1.183-.079s-.368-.839-.132-1.258c.237-.446 1.525-.21 1.525-.21s-.263-.525-.079-.892c.184-.393 1.866-1.1 1.866-1.1s-1.472-.027-2.103-.158c-.631-.131-.42-.813-.42-.813s-.92.682-1.525.524c-.63-.157.342-1.704.342-1.704s-1.787 0-2.471-.446c-.657-.446.211-1.416.211-1.416s-1.367.315-1.709.262c-.315-.052-.105-1.416-.105-1.416s-1.235.892-1.445.735c-.211-.158-.316-1.914-.316-1.914s-.946 1.18-1.472.655c-.525-.524.263-1.888.736-3.068.473-1.18-.394-2.202-.394-2.202s-1.524.681-3.206.97c-1.682.315-3.075 2.097-3.68 1.73-.631-.367.447-1.153.447-1.153s-1.367.183-2.839.839c-1.471.655-2.155 1.809-2.496 2.202-.342.394-1.025-.393-1.025-.393s-.342 1.049-.5 1.285c-.158.236-.736.131-.736.131s-.184 1.52.211 2.438c.394.918 2.68.76 3.39 1.312.263.183.315.498.289.812-.736-.104-2.654-.445-4.31-1.494-2.129-1.311-1.919-3.724-1.945-4.222.026-.55-.946-.367-.841.131Z" fill="#7EA21A"/><path d="M175.698 71.378c-.367-.525-.972-2.518-3.942-3.41-2.996-.89-4.783 0-4.783 0v.053c.026-.314.131-.629.263-.786.367-.472 3.075-.577 4.441-1.233 1.393-.681 1.498-2.412 1.498-2.412s-.394.21-.972-.157-.131-1.207-.131-1.207-1.315.577-2.077.184c-.762-.393-.525-1.495-.525-1.495s-.421.813-1.025.472c-.605-.367-.368-1.075-.368-1.075s-.395.498-.92.289c-.526-.21-.184-.813-.184-.813s-.316.315-1.104.315c-.789 0-1.104-.892-1.104-.892s.026 1.81-.788 1.73c-.815-.078-.474-1.022-.474-1.022s-.473.603-1.13.315c-.683-.289-1.708-1.626-1.708-1.626s-.473.787-1.314.97c-.841.184-1.998-.708-1.998-.708s.027.865-1.209.97c-1.235.105-2.313-.577-2.313-.577s1.341 1.495 1.393 2.203c.027.708-.683.865-.683.865s2.786 2.517 2.024 3.383c-.762.865-1.84-.865-1.84-.865s0 .498-.315.97c-.316.472-1.525.288-1.525.288s.395 1.206.105 1.521c-.289.315-1.13.183-1.13.183s.289.997-.105 1.574c-.394.577-1.918.708-1.918.708s.42.236.315.629c-.105.393-1.078.498-1.078.498s.631.63.579 1.128c-.079.498-1.341.734-1.341.734s.421.393.394.813c-.026.42-1.34 1.704-1.34 1.704s1.393-.498 2.024-.603c.63-.105.683.603.683.603s.605-.97 1.235-1.023c.631-.078.289 1.705.289 1.705s1.683-.63 2.445-.472c.788.184.315 1.39.315 1.39s1.183-.787 1.498-.866c.316-.078.605 1.285.605 1.285s.814-1.285 1.077-1.206c.237.079.999 1.678.999 1.678s.473-1.468 1.13-1.127c.684.314.421 1.835.421 3.12 0 1.285 1.182 1.914 1.182 1.914s1.183-1.18 2.629-2.071c1.471-.892 2.102-3.068 2.812-2.937.71.105 0 1.232 0 1.232s1.209-.681 2.339-1.809 1.34-2.439 1.524-2.937c.184-.498 1.104 0 1.104 0s-.079-1.101 0-1.39c.079-.288.631-.393.631-.393s-.394-1.494-1.104-2.202c-.709-.708-2.786.236-3.653 0-.315-.079-.473-.341-.578-.656.736-.183 2.628-.524 4.547-.157 2.444.472 3.127 2.78 3.337 3.225.29.42 1.131-.105.841-.524ZM205.267 78.405c.289.42.814 2.045 3.285 2.727 2.47.681 3.916-.079 3.916-.079v-.026c-.026.262-.105.524-.21.655-.289.394-2.497.499-3.627 1.075-1.13.577-1.183 1.993-1.183 1.993s.315-.183.788.105c.474.289.132.997.132.997s1.077-.472 1.682-.184c.631.315.447 1.206.447 1.206s.341-.682.841-.393c.499.288.315.865.315.865s.316-.42.762-.236c.447.184.158.656.158.656s.263-.263.894-.289c.63 0 .92.708.92.708s-.053-1.494.604-1.442c.683.053.394.84.394.84s.368-.5.92-.29c.552.21 1.419 1.312 1.419 1.312s.368-.656 1.052-.813c.683-.157 1.656.55 1.656.55s-.053-.707.972-.812c1.025-.105 1.892.42 1.892.42s-1.13-1.207-1.182-1.784c-.053-.577.552-.708.552-.708s-2.313-2.019-1.709-2.727c.605-.708 1.525.682 1.525.682s0-.42.236-.787c.263-.393 1.262-.262 1.262-.262s-.342-.996-.105-1.258c.236-.263.919-.158.919-.158s-.236-.813.053-1.285c.315-.472 1.577-.603 1.577-.603s-.342-.21-.263-.524c.079-.315.867-.42.867-.42s-.525-.524-.473-.917c.053-.42 1.104-.63 1.104-.63s-.368-.314-.341-.655c.026-.341 1.077-1.416 1.077-1.416s-1.13.42-1.656.524c-.525.105-.552-.472-.552-.472s-.473.787-.998.866c-.526.078-.263-1.39-.263-1.39s-1.367.55-1.998.42c-.657-.132-.289-1.128-.289-1.128s-.946.655-1.209.708c-.263.052-.525-1.049-.525-1.049s-.657 1.049-.868.996c-.21-.052-.841-1.363-.841-1.363s-.368 1.206-.92.944-.368-1.495-.394-2.544c-.026-1.048-.999-1.547-.999-1.547s-.946.97-2.128 1.731c-1.183.76-1.683 2.543-2.261 2.465-.578-.079-.026-1.023-.026-1.023s-.973.577-1.892 1.521c-.92.944-1.078 2.019-1.209 2.439-.132.419-.894.026-.894.026s.079.891.026 1.127c-.052.236-.525.341-.525.341s.341 1.206.92 1.783c.578.577 2.286-.236 2.996-.052.263.078.394.262.473.524-.605.157-2.155.472-3.732.21-2.024-.341-2.602-2.229-2.786-2.596-.132-.367-.815.079-.578.446ZM72.304 107.483c-.368.315-1.84.918-2.313 3.226-.473 2.333.342 3.618.342 3.618h.026c-.263 0-.473-.052-.604-.131-.368-.236-.657-2.281-1.262-3.278-.604-.996-1.945-.97-1.945-.97s.184.289-.052.734c-.237.446-.92.184-.92.184s.526.944.289 1.547c-.237.603-1.104.498-1.104.498s.657.262.42.761c-.236.472-.788.34-.788.34s.394.263.29.682c-.132.42-.605.184-.605.184s.263.21.315.813c.053.603-.604.891-.604.891s1.366-.157 1.366.472-.762.42-.762.42.5.314.316.839c-.158.524-1.13 1.416-1.13 1.416s.63.288.814.917c.184.63-.394 1.547-.394 1.547s.657-.078.815.84c.157.943-.263 1.783-.263 1.783s1.051-1.128 1.577-1.207c.525-.078.683.446.683.446s1.708-2.281 2.418-1.783c.71.498-.525 1.468-.525 1.468s.367-.026.762.184c.368.21.315 1.128.315 1.128s.894-.394 1.156-.184c.263.184.21.839.21.839s.737-.288 1.183-.026c.447.262.684 1.416.684 1.416s.157-.341.473-.289c.315.053.447.761.447.761s.447-.525.814-.498c.395.026.657.97.657.97s.263-.341.605-.341c.315 0 1.393.891 1.393.891s-.473-1.022-.605-1.494c-.13-.472.421-.551.421-.551s-.762-.393-.867-.865c-.106-.472 1.287-.341 1.287-.341s-.604-1.232-.525-1.836c.079-.603 1.025-.34 1.025-.34s-.683-.839-.762-1.075c-.08-.236.92-.551.92-.551s-1.025-.525-1-.734c.027-.184 1.21-.866 1.21-.866s-1.13-.236-.946-.786c.184-.525 1.366-.446 2.339-.551.972-.079 1.366-1.022 1.366-1.022s-.972-.813-1.76-1.836c-.789-1.049-2.471-1.363-2.445-1.914.027-.551.946-.079.946-.079s-.604-.865-1.55-1.652c-.946-.786-1.971-.839-2.34-.944-.394-.105-.078-.839-.078-.839s-.841.131-1.052.105c-.21-.026-.341-.446-.341-.446s-1.104.394-1.603.971c-.5.576.394 2.097.262 2.753-.052.236-.236.393-.446.472-.184-.551-.579-1.941-.447-3.435.184-1.888 1.892-2.57 2.207-2.753.447-.132 0-.735-.315-.499ZM57.27 168.028c.368-.524.973-2.517 3.943-3.408 2.996-.892 4.783 0 4.783 0v.052c-.026-.314-.131-.629-.262-.786-.368-.472-3.075-.577-4.442-1.233-1.393-.682-1.498-2.412-1.498-2.412s.394.21.972-.158c.578-.367.132-1.206.132-1.206s1.314.577 2.076.184c.736-.393.526-1.495.526-1.495s.42.813 1.025.472c.604-.367.367-1.075.367-1.075s.395.498.92.289c.526-.21.184-.813.184-.813s.316.314 1.104.314c.789 0 1.104-.891 1.104-.891s-.026 1.809.789 1.73c.814-.078.473-1.022.473-1.022s.473.603 1.13.314c.683-.288 1.708-1.625 1.708-1.625s.473.786 1.314.97c.841.184 1.998-.708 1.998-.708s-.027.865 1.209.97c1.235.105 2.313-.577 2.313-.577s-1.34 1.495-1.393 2.203c-.027.708.683.865.683.865s-2.786 2.517-2.024 3.383c.736.865 1.84-.866 1.84-.866s0 .499.315.971c.316.472 1.525.288 1.525.288s-.395 1.206-.105 1.521c.289.314 1.13.183 1.13.183s-.29.997.105 1.574c.394.577 1.918.708 1.918.708s-.42.236-.315.629c.105.393 1.078.498 1.078.498s-.631.629-.578 1.128c.078.498 1.34.734 1.34.734s-.42.393-.394.813c.026.419 1.34 1.704 1.34 1.704s-1.393-.498-2.024-.603c-.63-.105-.683.603-.683.603s-.605-.97-1.235-1.023c-.631-.078-.29 1.705-.29 1.705s-1.681-.63-2.444-.472c-.788.183-.315 1.39-.315 1.39s-1.183-.787-1.498-.866c-.316-.078-.605 1.285-.605 1.285s-.814-1.285-1.077-1.206c-.237.079-.999 1.678-.999 1.678s-.473-1.468-1.13-1.127c-.657.34-.42 1.835-.42 3.12 0 1.285-1.183 1.914-1.183 1.914s-1.183-1.18-2.629-2.071c-1.471-.892-2.102-3.068-2.812-2.937-.71.105 0 1.232 0 1.232s-1.209-.682-2.339-1.809c-1.13-1.128-1.34-2.439-1.524-2.937-.184-.498-1.104 0-1.104 0s.079-1.101 0-1.39c-.08-.288-.631-.393-.631-.393s.394-1.494 1.104-2.202c.71-.708 2.786.236 3.653 0 .316-.079.473-.341.578-.656-.736-.184-2.628-.524-4.546-.157-2.445.472-3.128 2.779-3.338 3.225-.263.446-1.13-.079-.842-.525ZM66.836 201.801c.631.158 2.707.027 4.574 2.518 1.866 2.491 1.63 4.457 1.63 4.457l-.027.026c.289-.157.552-.341.657-.524.315-.498-.526-3.068-.368-4.589.158-1.521 1.76-2.229 1.76-2.229s-.052.446.474.84c.526.419 1.183-.289 1.183-.289s-.08 1.442.552 1.993c.63.577 1.576 0 1.576 0s-.63.682-.078 1.127c.552.446 1.13-.026 1.13-.026s-.342.551.052.97c.395.42.841-.105.841-.105s-.184.42.08 1.154c.262.734 1.208.734 1.208.734s-1.708.577-1.366 1.338c.341.734 1.13.078 1.13.078s-.42.63.079 1.18c.499.525 2.129 1.049 2.129 1.049s-.579.708-.447 1.573c.131.866 1.366 1.626 1.366 1.626s-.814.262-.499 1.468c.315 1.207 1.34 1.967 1.34 1.967s-1.866-.76-2.549-.551c-.683.21-.578.918-.578.918s-3.338-1.73-3.864-.734c-.552.996 1.446 1.442 1.446 1.442s-.473.184-.789.629c-.315.472.263 1.521.263 1.521s-1.261.053-1.472.42c-.21.367.21 1.127.21 1.127s-1.025.079-1.445.63c-.394.55 0 2.045 0 2.045s-.368-.315-.71-.079c-.341.236-.105 1.18-.105 1.18s-.814-.393-1.261-.131c-.447.236-.237 1.521-.237 1.521s-.526-.262-.893-.079c-.395.184-1.13 1.862-1.13 1.862s0-1.469-.132-2.098c-.131-.629-.788-.419-.788-.419s.683-.892.551-1.521c-.131-.629-1.708.314-1.708.314s.026-1.783-.42-2.464c-.447-.682-1.42.183-1.42.183s.342-1.363.29-1.704c-.053-.315-1.42-.131-1.42-.131s.92-1.206.762-1.416c-.157-.21-1.918-.367-1.918-.367s1.209-.944.683-1.469c-.526-.524-1.892.236-3.101.682-1.21.446-2.208-.446-2.208-.446s.71-1.494 1.025-3.172c.342-1.679 2.155-3.016 1.813-3.645-.341-.629-1.182.419-1.182.419s.21-1.363.893-2.831c.684-1.469 1.84-2.098 2.26-2.439.395-.341-.367-1.023-.367-1.023s1.051-.314 1.314-.472c.236-.157.158-.734.158-.734s1.55-.157 2.444.262c.92.42.736 2.701 1.261 3.409.184.262.5.341.815.315-.079-.734-.42-2.649-1.42-4.327-1.287-2.15-3.679-1.992-4.204-2.019-.526-.026-.342-1.075.157-.944Z" fill="#7EA21A"/><path d="M254.574 56.483s5.861-3.697 12.431.498c4.416 2.806 4.941 12.744 3.312 16.126-1.63 3.383-9.147 9.545-9.147 9.545s-28.201-20.453-6.596-26.169Z" fill="#A5713D"/><path d="m235.755 114.983-.079 14.553s-17.426.209-18.529-.079c-1.104-.288-6.755-4.72-7.333-4.982-.578-.236-1.13 0-.92.682.21.681 1.077 2.832 1.077 2.832s-4.257-.472-4.652-.708c-.394-.236-2.943-2.203-3.469-2.36-.526-.158-1.419.183-1.183.734.237.551 2.655 3.671 2.655 3.671s-.499 3.33.762 4.536c1.262 1.206 7.175 2.203 10.04 2.412 2.865.184 24.653 2.963 26.493 2.885 1.813-.079 4.468-.656 5.414-4.537.92-3.906 1.235-18.826 1.235-18.826l-11.511-.813Z" fill="#DD866F"/><path d="M268.897 252.276v22.891h19.134s2.734-4.588 0-5.821c-2.733-1.258-11.617-5.611-11.617-5.611l.342-11.432h-7.859v-.027Z" fill="#F69576"/><path d="M268.897 263.736v11.432h19.134s2.734-4.588 0-5.821c-2.733-1.258-11.617-5.611-11.617-5.611h-7.517Z" fill="#032240"/><path d="M268.897 272.86v2.308h19.134s.631-1.075.999-2.308h-20.133Z" fill="#BFBFBF"/><path d="m253.154 252.277.184 11.433s-10.014 1.888-12.695 2.7c-3.206.997-6.912 1.862-7.438 4.982-.446 2.701 0 3.75 0 3.75h31.014l-3.364-22.891h-7.701v.026Z" fill="#F69576"/><path d="M253.338 263.736s-10.014 1.888-12.695 2.701c-3.206.996-6.912 1.861-7.438 4.982-.446 2.7 0 3.749 0 3.749h31.014l-1.209-11.432h-9.672Z" fill="#BFBFBF"/><path d="M233.206 271.419c-.079.55-.132 1.022-.184 1.442h30.96l-.946-9.125h-9.698s-10.014 1.888-12.694 2.701c-3.207.97-6.939 1.861-7.438 4.982Z" fill="#032240"/><path d="M239.198 148.598s-1.078 11.275 0 30.05c1.077 18.774 5.651 36.761 6.176 38.912.526 2.15 7.254 38.099 7.254 38.099h10.487s-5.914-48.562-6.466-63.324c-.525-14.763 1.893-42.4 1.893-42.4l-19.344-1.337Z" fill="#254B6B"/><path d="M277.649 149.936h-22.314s-1.735 44.602 0 46.673c1.735 2.072 6.991 10.462 7.806 16.913.815 6.45 2.97 42.111 2.97 42.111h11.538V149.936Z" fill="#254B6B"/><path d="M261.064 89.94c-11.117-.235-14.692 1.443-17.031 6.609-2.339 5.165-8.253 50.79-8.778 60.098-.526 9.309 1.261 14.841 13.982 14.841s30.12-10.383 30.12-10.383.709 3.225 1.261 5.192c.526 1.966 5.914 4.116 5.914.708 0-3.409-2.339-56.69-2.681-65.632-.368-8.941-14.35-11.275-22.787-11.432Z" fill="#000"/><path d="M249.237 92.984c-4.389-1.154-8.437-1.076-11.643 5.375-3.233 6.45-5.73 26.457-5.73 26.457l14.876 5.9c0-.027 14.14-34.69 2.497-37.733Z" fill="#000"/><path d="M257.253 89.023c3.916 0 8.568.367 10.986 1.914 2.944 1.888 2.891 8.942-10.04 9.518-12.931.577-12.51-5.427-11.222-7.21 1.892-2.596 7.28-4.222 10.276-4.222Z" fill="#F69576"/><path d="m252.208 80.922-2.524 16.152h15.271s-.736-6.424-1.604-10.593c-.867-4.17-1.603-5.585-1.603-5.585h-9.54v.026Z" fill="#F69576"/><path d="M258.857 85.326s.132 2.99-1.84 4.274c-1.971 1.311-6.36 1.311-6.36 1.311l1.551-9.99h6.439s.473 2.517.21 4.405Z" fill="#DD866F"/><path d="M250.025 61.334s-1.945 1.6-2.786 5.114c-.657 2.7-.499 5.61-.841 7.263-.341 1.626-.893 4.248-.42 6.503.473 2.255 2.47 5.375 6.229 6.424 3.732 1.049 6.807.288 8.883-2.308 2.076-2.596 4.626-7.263 5.388-10.488.762-3.225 1.183-9.361-2.26-12.035-4.416-3.462-9.699-3.488-14.193-.473Z" fill="#F69576"/><path d="M256.832 79.557s-.368 2.203-1.656 2.649c-1.314.445-2.628.157-3.233-.577-.604-.734-.893-2.124-.893-2.124l5.782.052Z" fill="#fff"/><path d="M253.522 77.12c-.421-.079-.421-.472-.394-.708v-.053c-.027.026-.053.026-.053.053-.131.105-.394.288-.657.026-.105-.105-.158-.262-.158-.472.026-.42.289-1.023.552-1.207.053-.052.132-.026.184.026.053.053.026.132-.026.184-.184.131-.421.63-.447 1.023 0 .131.026.236.053.288.105.105.184.08.341-.052.079-.052.158-.131.263-.131.053 0 .105 0 .131.052.079.079.079.184.053.315 0 .289.026.42.184.446.079 0 .131 0 .158-.026.079-.053.079-.236.079-.341 0-.105 0-.158.052-.21.026-.052.105-.105.158-.105.131 0 .263.079.447.262.026.027.078.08.157.053.079-.026.184-.131.211-.341.052-.315-.237-.892-.342-1.102-.026-.052 0-.131.052-.183a.138.138 0 0 1 .184.052c.053.079.474.84.368 1.285-.052.263-.21.472-.394.525-.158.052-.289 0-.394-.131-.105-.105-.158-.158-.21-.184v.079c0 .157-.027.393-.184.524a.446.446 0 0 1-.263.08c-.026 0-.053 0-.105-.027Z" fill="#6B3425"/><path d="M272.207 71.455c-1.156-2.884-9.593-.262-8.042 5.008 1.629 5.428 9.751-.76 8.042-5.008Z" fill="#F69576"/><path d="M265.769 77.147c.026 0 .052 0 .079-.027a.128.128 0 0 0 0-.183c-.342-.367-.421-1.573.026-2.754.315-.839 1.104-2.255 2.917-2.49.973-.132 1.656.052 2.05.472.579.655.289 1.73.289 1.73-.026.079.027.131.079.157.079.027.132-.026.158-.078 0-.053.315-1.206-.342-1.967-.446-.498-1.209-.708-2.26-.577-1.419.184-2.576 1.128-3.128 2.649-.446 1.18-.42 2.517.027 3.015.026.026.052.053.105.053Z" fill="#6B3425"/><path d="M268.79 76.673c.053 0 .105-.026.105-.079.053-.104.973-2.412-.42-5.008-.027-.052-.106-.079-.158-.052-.053.026-.079.105-.053.183 1.341 2.491.421 4.773.395 4.799-.027.052 0 .13.078.157h.053ZM257.7 74.682c.261 0 .473-.41.473-.918 0-.507-.212-.918-.473-.918s-.473.411-.473.918c0 .507.212.918.473.918ZM259.854 71.3a3.723 3.723 0 0 0-1.866-.787c-.841-.079-1.314.289-1.656.367-.341.08-.368-.367-.21-.786.184-.394.894-.682 2.05-.656 1.157.052 1.787.55 2.103.918.315.367.079 1.364-.421.944ZM250.578 74.42c.261 0 .473-.411.473-.918 0-.507-.212-.918-.473-.918s-.473.41-.473.918c0 .507.212.918.473.918ZM252.286 70.959a3.722 3.722 0 0 0-1.866-.787c-.841-.079-1.314.289-1.656.367-.341.079-.368-.367-.21-.787.158-.42.894-.682 2.05-.655 1.157.052 1.787.55 2.103.918.315.367.079 1.338-.421.944ZM249.289 82.258l.579.131s1.13 2.23 2.05 2.649c.946.42 4.021.262 4.363 0 .315-.289 1.393-2.727 1.393-2.727l.736.183s-1.104 3.54-1.262 3.855c-.105.183-2.155 1.573-2.944 1.652-.788.078-3.548-1.442-3.679-1.757-.421-1.023-1.236-3.986-1.236-3.986Z" fill="#6B3425"/><path d="m252.81 83.648 1.367-.052.052 2.387-1.051.21-.368-2.545Z" fill="#6B3425"/><path d="m265.481 122.011-.079 14.552s-17.425.21-18.529-.078c-1.13-.262-6.755-4.72-7.333-4.982-.578-.236-1.13 0-.92.682.237.681 1.078 2.831 1.078 2.831s-4.258-.472-4.652-.708c-.395-.236-2.944-2.202-3.47-2.359-.525-.158-1.419.183-1.182.734.236.55 2.654 3.671 2.654 3.671s-.499 3.33.789 4.536c1.261 1.232 7.175 2.202 10.04 2.412 2.864.184 24.653 2.963 26.492 2.885 1.84-.079 4.468-.656 5.415-4.537.919-3.907 1.235-18.826 1.235-18.826l-11.538-.813Z" fill="#F69576"/><path opacity=".4" d="m279.962 102.712-3.469 19.404 6.176 1.887-2.707-21.291Z" fill="#254B6B"/><path d="M264.955 57.978s-3.206 5.795-12.116 6.293c-18.555 1.076-10.04-9.308-10.04-9.308s-.657 2.753 2.523 2.91c4.363.21 10.697-13.031 19.633.105Z" fill="#A5713D"/><path d="m142.899 118.628.105 15.628s18.713.21 19.922-.078c1.209-.289 7.254-5.087 7.885-5.35.63-.262 1.235 0 .998.735-.236.734-1.182 3.041-1.182 3.041s4.599-.524 4.993-.76c.421-.236 3.154-2.36 3.732-2.544.579-.183 1.525.184 1.288.787-.236.603-2.838 3.933-2.838 3.933s.525 3.566-.841 4.877c-1.367 1.311-7.727 2.386-10.802 2.596-3.102.21-26.519 3.173-28.464 3.094-1.945-.078-4.81-.681-5.809-4.877-.998-4.195-1.34-20.243-1.34-20.243l12.353-.839Z" fill="#DD866F"/><mask id="mask15_131_9604" style="mask-type:luminance" maskUnits="userSpaceOnUse" x="103" y="92" width="40" height="79"><path d="M118.666 92.828s-7.123-1.18-12.196 6.214c-5.072 7.394-2.181 20.059-2.549 33.746-.368 13.688.894 37.995.894 37.995h35.087s-.868-29.892 1.472-41.954c2.339-12.062 2.523-28.24-2.024-31.544-4.573-3.304-13.483-6.004-20.684-4.457Z" fill="#fff"/></mask><g mask="url('#mask15_131_9604')"><path d="M118.666 92.828s-7.123-1.18-12.196 6.214c-5.072 7.394-2.181 20.059-2.549 33.746-.368 13.688.894 37.995.894 37.995h35.087s-.868-29.892 1.472-41.954c2.339-12.062 2.523-28.24-2.024-31.544-4.573-3.304-13.483-6.004-20.684-4.457Z" fill="#FF6D00"/></g><mask id="mask16_131_9604" style="mask-type:luminance" maskUnits="userSpaceOnUse" x="103" y="92" width="40" height="79"><path d="M118.666 92.828s-7.123-1.18-12.196 6.214c-5.072 7.394-2.181 20.059-2.549 33.746-.368 13.688.894 37.995.894 37.995h35.087s-.868-29.892 1.472-41.954c2.339-12.062 2.523-28.24-2.024-31.544-4.573-3.304-13.483-6.004-20.684-4.457Z" fill="#fff"/></mask><g mask="url('#mask16_131_9604')"><path d="M144.79 111.314H99.926v1.285h44.864v-1.285Z" fill="#512176"/></g><mask id="mask17_131_9604" style="mask-type:luminance" maskUnits="userSpaceOnUse" x="103" y="92" width="40" height="79"><path d="M118.666 92.828s-7.123-1.18-12.196 6.214c-5.072 7.394-2.181 20.059-2.549 33.746-.368 13.688.894 37.995.894 37.995h35.087s-.868-29.892 1.472-41.954c2.339-12.062 2.523-28.24-2.024-31.544-4.573-3.304-13.483-6.004-20.684-4.457Z" fill="#fff"/></mask><g mask="url('#mask17_131_9604')"><path d="M109.704 90.835h-1.446v82.623h1.446V90.835Z" fill="#512176"/></g><mask id="mask18_131_9604" style="mask-type:luminance" maskUnits="userSpaceOnUse" x="103" y="92" width="40" height="79"><path d="M118.666 92.828s-7.123-1.18-12.196 6.214c-5.072 7.394-2.181 20.059-2.549 33.746-.368 13.688.894 37.995.894 37.995h35.087s-.868-29.892 1.472-41.954c2.339-12.062 2.523-28.24-2.024-31.544-4.573-3.304-13.483-6.004-20.684-4.457Z" fill="#fff"/></mask><g mask="url('#mask18_131_9604')"><path d="M144.79 116.742H99.926v1.285h44.864v-1.285Z" fill="#512176"/></g><mask id="mask19_131_9604" style="mask-type:luminance" maskUnits="userSpaceOnUse" x="103" y="92" width="40" height="79"><path d="M118.666 92.828s-7.123-1.18-12.196 6.214c-5.072 7.394-2.181 20.059-2.549 33.746-.368 13.688.894 37.995.894 37.995h35.087s-.868-29.892 1.472-41.954c2.339-12.062 2.523-28.24-2.024-31.544-4.573-3.304-13.483-6.004-20.684-4.457Z" fill="#fff"/></mask><g mask="url('#mask19_131_9604')"><path d="M144.79 122.142H99.926v1.285h44.864v-1.285Z" fill="#512176"/></g><mask id="mask20_131_9604" style="mask-type:luminance" maskUnits="userSpaceOnUse" x="103" y="92" width="40" height="79"><path d="M118.666 92.828s-7.123-1.18-12.196 6.214c-5.072 7.394-2.181 20.059-2.549 33.746-.368 13.688.894 37.995.894 37.995h35.087s-.868-29.892 1.472-41.954c2.339-12.062 2.523-28.24-2.024-31.544-4.573-3.304-13.483-6.004-20.684-4.457Z" fill="#fff"/></mask><g mask="url('#mask20_131_9604')"><path d="M144.79 95.082H99.926v1.285h44.864v-1.285Z" fill="#512176"/></g><mask id="mask21_131_9604" style="mask-type:luminance" maskUnits="userSpaceOnUse" x="103" y="92" width="40" height="79"><path d="M118.666 92.828s-7.123-1.18-12.196 6.214c-5.072 7.394-2.181 20.059-2.549 33.746-.368 13.688.894 37.995.894 37.995h35.087s-.868-29.892 1.472-41.954c2.339-12.062 2.523-28.24-2.024-31.544-4.573-3.304-13.483-6.004-20.684-4.457Z" fill="#fff"/></mask><g mask="url('#mask21_131_9604')"><path d="M144.79 100.484H99.926v1.286h44.864v-1.286Z" fill="#512176"/></g><mask id="mask22_131_9604" style="mask-type:luminance" maskUnits="userSpaceOnUse" x="103" y="92" width="40" height="79"><path d="M118.666 92.828s-7.123-1.18-12.196 6.214c-5.072 7.394-2.181 20.059-2.549 33.746-.368 13.688.894 37.995.894 37.995h35.087s-.868-29.892 1.472-41.954c2.339-12.062 2.523-28.24-2.024-31.544-4.573-3.304-13.483-6.004-20.684-4.457Z" fill="#fff"/></mask><g mask="url('#mask22_131_9604')"><path d="M144.79 105.912H99.926v1.285h44.864v-1.285Z" fill="#512176"/></g><mask id="mask23_131_9604" style="mask-type:luminance" maskUnits="userSpaceOnUse" x="103" y="92" width="40" height="79"><path d="M118.666 92.828s-7.123-1.18-12.196 6.214c-5.072 7.394-2.181 20.059-2.549 33.746-.368 13.688.894 37.995.894 37.995h35.087s-.868-29.892 1.472-41.954c2.339-12.062 2.523-28.24-2.024-31.544-4.573-3.304-13.483-6.004-20.684-4.457Z" fill="#fff"/></mask><g mask="url('#mask23_131_9604')"><path d="M144.79 143.827H99.926v1.285h44.864v-1.285Z" fill="#512176"/></g><mask id="mask24_131_9604" style="mask-type:luminance" maskUnits="userSpaceOnUse" x="103" y="92" width="40" height="79"><path d="M118.666 92.828s-7.123-1.18-12.196 6.214c-5.072 7.394-2.181 20.059-2.549 33.746-.368 13.688.894 37.995.894 37.995h35.087s-.868-29.892 1.472-41.954c2.339-12.062 2.523-28.24-2.024-31.544-4.573-3.304-13.483-6.004-20.684-4.457Z" fill="#fff"/></mask><g mask="url('#mask24_131_9604')"><path d="M144.79 149.229H99.926v1.286h44.864v-1.286Z" fill="#512176"/></g><mask id="mask25_131_9604" style="mask-type:luminance" maskUnits="userSpaceOnUse" x="103" y="92" width="40" height="79"><path d="M118.666 92.828s-7.123-1.18-12.196 6.214c-5.072 7.394-2.181 20.059-2.549 33.746-.368 13.688.894 37.995.894 37.995h35.087s-.868-29.892 1.472-41.954c2.339-12.062 2.523-28.24-2.024-31.544-4.573-3.304-13.483-6.004-20.684-4.457Z" fill="#fff"/></mask><g mask="url('#mask25_131_9604')"><path d="M144.79 154.657H99.926v1.285h44.864v-1.285Z" fill="#512176"/></g><mask id="mask26_131_9604" style="mask-type:luminance" maskUnits="userSpaceOnUse" x="103" y="92" width="40" height="79"><path d="M118.666 92.828s-7.123-1.18-12.196 6.214c-5.072 7.394-2.181 20.059-2.549 33.746-.368 13.688.894 37.995.894 37.995h35.087s-.868-29.892 1.472-41.954c2.339-12.062 2.523-28.24-2.024-31.544-4.573-3.304-13.483-6.004-20.684-4.457Z" fill="#fff"/></mask><g mask="url('#mask26_131_9604')"><path d="M144.79 127.569H99.926v1.286h44.864v-1.286Z" fill="#512176"/></g><mask id="mask27_131_9604" style="mask-type:luminance" maskUnits="userSpaceOnUse" x="103" y="92" width="40" height="79"><path d="M118.666 92.828s-7.123-1.18-12.196 6.214c-5.072 7.394-2.181 20.059-2.549 33.746-.368 13.688.894 37.995.894 37.995h35.087s-.868-29.892 1.472-41.954c2.339-12.062 2.523-28.24-2.024-31.544-4.573-3.304-13.483-6.004-20.684-4.457Z" fill="#fff"/></mask><g mask="url('#mask27_131_9604')"><path d="M144.79 132.972H99.926v1.285h44.864v-1.285Z" fill="#512176"/></g><mask id="mask28_131_9604" style="mask-type:luminance" maskUnits="userSpaceOnUse" x="103" y="92" width="40" height="79"><path d="M118.666 92.828s-7.123-1.18-12.196 6.214c-5.072 7.394-2.181 20.059-2.549 33.746-.368 13.688.894 37.995.894 37.995h35.087s-.868-29.892 1.472-41.954c2.339-12.062 2.523-28.24-2.024-31.544-4.573-3.304-13.483-6.004-20.684-4.457Z" fill="#fff"/></mask><g mask="url('#mask28_131_9604')"><path d="M144.79 138.399H99.926v1.286h44.864v-1.286Z" fill="#512176"/></g><mask id="mask29_131_9604" style="mask-type:luminance" maskUnits="userSpaceOnUse" x="103" y="92" width="40" height="79"><path d="M118.666 92.828s-7.123-1.18-12.196 6.214c-5.072 7.394-2.181 20.059-2.549 33.746-.368 13.688.894 37.995.894 37.995h35.087s-.868-29.892 1.472-41.954c2.339-12.062 2.523-28.24-2.024-31.544-4.573-3.304-13.483-6.004-20.684-4.457Z" fill="#fff"/></mask><g mask="url('#mask29_131_9604')"><path d="M144.79 165.487H99.926v1.285h44.864v-1.285Z" fill="#512176"/></g><mask id="mask30_131_9604" style="mask-type:luminance" maskUnits="userSpaceOnUse" x="103" y="92" width="40" height="79"><path d="M118.666 92.828s-7.123-1.18-12.196 6.214c-5.072 7.394-2.181 20.059-2.549 33.746-.368 13.688.894 37.995.894 37.995h35.087s-.868-29.892 1.472-41.954c2.339-12.062 2.523-28.24-2.024-31.544-4.573-3.304-13.483-6.004-20.684-4.457Z" fill="#fff"/></mask><g mask="url('#mask30_131_9604')"><path d="M144.79 160.059H99.926v1.285h44.864v-1.285Z" fill="#512176"/></g><mask id="mask31_131_9604" style="mask-type:luminance" maskUnits="userSpaceOnUse" x="103" y="92" width="40" height="79"><path d="M118.666 92.828s-7.123-1.18-12.196 6.214c-5.072 7.394-2.181 20.059-2.549 33.746-.368 13.688.894 37.995.894 37.995h35.087s-.868-29.892 1.472-41.954c2.339-12.062 2.523-28.24-2.024-31.544-4.573-3.304-13.483-6.004-20.684-4.457Z" fill="#fff"/></mask><g mask="url('#mask31_131_9604')"><path d="M115.116 90.835h-1.445v82.623h1.445V90.835Z" fill="#512176"/></g><mask id="mask32_131_9604" style="mask-type:luminance" maskUnits="userSpaceOnUse" x="103" y="92" width="40" height="79"><path d="M118.666 92.828s-7.123-1.18-12.196 6.214c-5.072 7.394-2.181 20.059-2.549 33.746-.368 13.688.894 37.995.894 37.995h35.087s-.868-29.892 1.472-41.954c2.339-12.062 2.523-28.24-2.024-31.544-4.573-3.304-13.483-6.004-20.684-4.457Z" fill="#fff"/></mask><g mask="url('#mask32_131_9604')"><path d="M120.559 90.835h-1.446v82.623h1.446V90.835Z" fill="#512176"/></g><mask id="mask33_131_9604" style="mask-type:luminance" maskUnits="userSpaceOnUse" x="103" y="92" width="40" height="79"><path d="M118.666 92.828s-7.123-1.18-12.196 6.214c-5.072 7.394-2.181 20.059-2.549 33.746-.368 13.688.894 37.995.894 37.995h35.087s-.868-29.892 1.472-41.954c2.339-12.062 2.523-28.24-2.024-31.544-4.573-3.304-13.483-6.004-20.684-4.457Z" fill="#fff"/></mask><g mask="url('#mask33_131_9604')"><path d="M125.971 90.835h-1.445v82.623h1.445V90.835Z" fill="#512176"/></g><mask id="mask34_131_9604" style="mask-type:luminance" maskUnits="userSpaceOnUse" x="103" y="92" width="40" height="79"><path d="M118.666 92.828s-7.123-1.18-12.196 6.214c-5.072 7.394-2.181 20.059-2.549 33.746-.368 13.688.894 37.995.894 37.995h35.087s-.868-29.892 1.472-41.954c2.339-12.062 2.523-28.24-2.024-31.544-4.573-3.304-13.483-6.004-20.684-4.457Z" fill="#fff"/></mask><g mask="url('#mask34_131_9604')"><path d="M131.412 90.835h-1.446v82.623h1.446V90.835Z" fill="#512176"/></g><mask id="mask35_131_9604" style="mask-type:luminance" maskUnits="userSpaceOnUse" x="103" y="92" width="40" height="79"><path d="M118.666 92.828s-7.123-1.18-12.196 6.214c-5.072 7.394-2.181 20.059-2.549 33.746-.368 13.688.894 37.995.894 37.995h35.087s-.868-29.892 1.472-41.954c2.339-12.062 2.523-28.24-2.024-31.544-4.573-3.304-13.483-6.004-20.684-4.457Z" fill="#fff"/></mask><g mask="url('#mask35_131_9604')"><path d="M136.827 90.835h-1.446v82.623h1.446V90.835Z" fill="#512176"/></g><mask id="mask36_131_9604" style="mask-type:luminance" maskUnits="userSpaceOnUse" x="103" y="92" width="40" height="79"><path d="M118.666 92.828s-7.123-1.18-12.196 6.214c-5.072 7.394-2.181 20.059-2.549 33.746-.368 13.688.894 37.995.894 37.995h35.087s-.868-29.892 1.472-41.954c2.339-12.062 2.523-28.24-2.024-31.544-4.573-3.304-13.483-6.004-20.684-4.457Z" fill="#fff"/></mask><g mask="url('#mask36_131_9604')"><path d="M142.267 90.835h-1.446v82.623h1.446V90.835Z" fill="#512176"/></g><path d="M130.572 56.93s-6.282-3.959-13.378.551c-4.757 3.016-4.205 13.347-3.548 17.332 1.524 9.414 9.829 10.253 9.829 10.253s30.33-22 7.097-28.136Z" fill="#000"/><path d="M127.708 91.91c-4.206 0-9.199.392-11.801 2.07 11.301 6.635 18.476 11.564 18.476 11.564s5.809-7.184 4.389-9.099c-2.05-2.779-7.858-4.51-11.064-4.536Z" fill="#F69576"/><path d="m133.122 83.231 2.707 17.385-10.908-1.862s-6.281-1.547-5.361-6.031c.92-4.484 3.285-9.466 3.285-9.466h10.277v-.026Z" fill="#F69576"/><path d="M125.947 87.95s-.132 3.2 1.997 4.615c2.129 1.39 6.834 1.416 6.834 1.416l-1.683-10.75h-6.938c.026 0-.473 2.7-.21 4.72Z" fill="#DD866F"/><path d="M135.461 62.15s2.076 1.704 2.996 5.506c.683 2.91.552 6.057.894 7.814.367 1.756.946 4.562.446 7-.499 2.44-2.681 5.77-6.702 6.897-4.021 1.127-7.333.314-9.54-2.491-2.208-2.806-4.968-7.814-5.782-11.275-.815-3.462-1.262-10.07 2.444-12.953 4.731-3.698 10.408-3.75 15.244-.499Z" fill="#F69576"/><path d="M128.155 81.736s.394 2.36 1.787 2.858c1.393.498 2.839.157 3.469-.63.631-.786.973-2.28.973-2.28l-6.229.052Z" fill="#fff"/><path d="M131.596 79.141a.53.53 0 0 1-.289-.078c-.184-.132-.184-.394-.184-.578v-.078c-.026.026-.105.079-.21.183-.105.132-.289.184-.447.132-.21-.053-.368-.263-.42-.551-.105-.499.341-1.286.394-1.39.026-.053.131-.08.184-.053.053.026.079.131.053.184-.132.21-.447.865-.368 1.18.052.236.157.341.236.367.079.026.132-.026.158-.052.184-.21.341-.315.473-.289.079 0 .131.053.184.105.026.053.026.131.052.236 0 .131 0 .315.106.367.026.027.105.027.184.027.184-.026.21-.184.21-.472 0-.158 0-.263.079-.341a.28.28 0 0 1 .157-.053c.105 0 .184.079.289.131.184.131.237.158.368.053.053-.053.079-.158.079-.289-.026-.42-.289-.944-.499-1.102-.053-.052-.079-.13-.026-.183.052-.053.131-.079.184-.026.289.21.578.839.604 1.285.026.236-.026.393-.158.525-.289.262-.552.078-.709-.027-.027-.026-.053-.026-.053-.052v.052c0 .236.026.682-.42.761-.158.026-.184.026-.211.026Z" fill="#6B3425"/><path d="M111.596 73.058c1.235-3.095 10.329-.289 8.647 5.401-1.735 5.795-10.487-.865-8.647-5.401Z" fill="#F69576"/><path d="M118.535 79.14c-.026 0-.052 0-.079-.026a.127.127 0 0 1 0-.184c.368-.393.447-1.704-.026-2.963-.342-.891-1.183-2.412-3.128-2.674-1.051-.132-1.787.052-2.207.524-.605.708-.316 1.862-.316 1.862.027.078-.026.157-.105.157-.079.026-.157-.026-.157-.105-.027-.052-.342-1.285.367-2.098.474-.55 1.288-.76 2.445-.603 1.524.184 2.759 1.233 3.364 2.832.473 1.285.447 2.701-.026 3.225-.053.053-.079.053-.132.053Z" fill="#6B3425"/><path d="M115.275 78.642a.145.145 0 0 1-.132-.079c-.052-.105-1.051-2.596.447-5.401.026-.079.105-.079.184-.053.079.027.079.105.052.184-1.445 2.674-.446 5.14-.42 5.165.026.08 0 .158-.079.184h-.052ZM127.208 76.493c.276 0 .499-.447.499-.997s-.223-.997-.499-.997-.499.446-.499.997c0 .55.223.997.499.997Z" fill="#6B3425"/><path d="M123.581 72.48c.526-.471 1.577-1.048 2.655-1.153 1.183-.13 1.866.446 2.365.55.5.106.526-.55.289-1.153-.262-.603-1.261-1.023-2.917-.97-1.656.052-2.523.839-2.97 1.363-.473.525-.131 1.993.578 1.364Z" fill="#000"/><path d="M134.857 76.257c.276 0 .499-.446.499-.997 0-.55-.223-.996-.499-.996s-.5.446-.5.996c0 .551.224.997.5.997Z" fill="#6B3425"/><path d="M133.017 72.27c.394-.498 1.183-1.101 2.024-1.232.893-.132 1.419.472 1.787.603.368.13.421-.603.21-1.233-.184-.629-.972-1.101-2.207-1.049-1.236.08-1.919.892-2.261 1.443-.341.55-.079 2.123.447 1.468Z" fill="#000"/><path d="M104.788 170.809s-1.997 14.579-2.181 25.88c-.184 11.301.552 19.508 0 20.793-.552 1.285-2.55 12.403-3.47 21.711-.92 9.309-2.917 31.728-2.917 31.728h15.481s2.05-33.196 3.337-35.373c1.288-2.176 7.859-34.087 7.859-34.087s4.205 20.61 4.021 22.419c-.184 1.836-.71 13.871 0 20.61.736 6.739 4.389 26.431 4.389 26.431h15.323l-3.259-36.474s-.526-9.466-1.078-20.977c-.552-11.485-2.365-42.661-2.365-42.661h-35.14Z" fill="#2F535E"/><path d="M159.297 271.445c1.945.786 1.577 5.742 1.577 5.742l-28.227-.419c-.131-1.233 0-6.687 0-6.687h13.036c0 .026 8.437-.682 13.614 1.364ZM120.977 273.254c1.551 1.364 1.157 4.799 1.157 4.799l-25.258.367.946-7.473h10.461c0-.027 10.697.576 12.694 2.307Z" fill="#493835"/><path d="M108.258 97.284s2.733-2.203 6.334 2.307c3.601 4.51 5.835 29.237 5.835 29.237h3.837s-1.025-20.61-3.732-26.011c-2.707-5.402-7.385-9.256-7.385-9.256l-4.889 3.723Z" fill="#2F535E"/><path d="M122.449 124.895h19.555l-2.129 45.913s-23.733.184-23.996.079c-.237-.079 6.57-45.992 6.57-45.992Z" fill="#2F535E"/><path d="M138.772 96.473s3.023 4.038 3.259 9.439c.237 5.428-1.209 20.164-1.209 20.164h1.235s4.968-24.988-3.285-29.603Z" fill="#2F535E"/><path d="M132.517 60.182s-1.84 3.775-7.018 5.585c-5.177 1.809-9.383 3.854-9.383 3.854s-.919-7.053 4.784-9.44c5.729-2.386 11.617 0 11.617 0ZM157.092 124.37c-1.393-1.338-2.287-2.098-2.734-3.147-.447-1.049-.289-2.911-.289-2.911H150.232s.158 1.836-.289 2.911c-.447 1.049-1.341 1.809-2.734 3.147-1.393 1.337-1.077 2.805-1.13 3.539-.026.735.158 29.761.158 29.761h11.827s.184-29.053.158-29.761c-.053-.734.263-2.202-1.13-3.539Z" fill="#000"/><path d="M154.438 109.057h-4.626v3.225h4.626v-3.225Z" fill="#512176"/><path d="M154.095 111.103h-3.916v8.364h3.916v-8.364Z" fill="#512176"/><path d="M156.145 132.08h-8.043v10.986h8.043V132.08Z" fill="#fff"/><path d="M169.864 124.37c-1.393-1.338-2.286-2.098-2.733-3.147-.447-1.049-.289-2.911-.289-2.911H163.005s.157 1.836-.29 2.911c-.446 1.049-1.34 1.809-2.733 3.147-1.393 1.337-1.077 2.805-1.13 3.539-.026.735.158 29.761.158 29.761h11.827s.184-29.053.157-29.761c-.026-.734.29-2.202-1.13-3.539Z" fill="#000"/><path d="M167.236 109.057h-4.626v3.225h4.626v-3.225Z" fill="#512176"/><path d="M166.868 111.103h-3.916v8.364h3.916v-8.364Z" fill="#512176"/><path d="M168.945 132.08h-8.042v10.986h8.042V132.08Z" fill="#fff"/><path d="M182.9 124.37c-1.393-1.338-2.286-2.098-2.733-3.147-.447-1.049-.289-2.911-.289-2.911h-3.838s.158 1.836-.289 2.911c-.446 1.049-1.34 1.809-2.733 3.147-1.393 1.337-1.078 2.805-1.13 3.539-.026.735.158 29.761.158 29.761h11.8s.184-29.053.158-29.761c-.026-.734.289-2.202-1.104-3.539Z" fill="#000"/><path d="M180.246 109.057h-4.626v3.225h4.626v-3.225Z" fill="#512176"/><path d="M179.904 111.103h-3.916v8.364h3.916v-8.364Z" fill="#512176"/><path d="M181.953 132.08h-8.042v10.986h8.042V132.08Z" fill="#fff"/><path d="M195.675 124.37c-1.393-1.338-2.287-2.098-2.733-3.147-.447-1.049-.29-2.911-.29-2.911H188.815s.158 1.836-.289 2.911c-.447 1.049-1.34 1.809-2.733 3.147-1.393 1.337-1.078 2.805-1.13 3.539-.027.735.157 29.761.157 29.761h11.827s.184-29.053.158-29.761c-.026-.734.289-2.202-1.13-3.539Z" fill="#000"/><path d="M193.046 109.057h-4.625v3.225h4.625v-3.225Z" fill="#512176"/><path d="M192.679 111.103h-3.916v8.364h3.916v-8.364Z" fill="#512176"/><path d="M194.756 132.08h-8.043v10.986h8.043V132.08Z" fill="#fff"/><path d="M208.974 124.37c-1.393-1.338-2.286-2.098-2.733-3.147-.447-1.049-.289-2.911-.289-2.911h-3.838s.158 1.836-.289 2.911c-.447 1.049-1.34 1.809-2.733 3.147-1.393 1.337-1.078 2.805-1.13 3.539-.027.735.157 29.761.157 29.761h11.828s.184-29.053.157-29.761c-.052-.734.263-2.202-1.13-3.539Z" fill="#000"/><path d="M206.32 109.057h-4.626v3.225h4.626v-3.225Z" fill="#512176"/><path d="M205.952 111.103h-3.916v8.364h3.916v-8.364Z" fill="#512176"/><path d="M208.027 132.08h-8.042v10.986h8.042V132.08Z" fill="#fff"/><path d="M211.759 148.704h-67.415v10.121h67.415v-10.121ZM212.784 128.225h-69.57v3.854h69.57v-3.854Z" fill="#DBAC73"/><path d="m190.733 130.166-29.83 23.599h6.334l30.698-23.599h-7.202ZM147.052 130.166h-1.971v24.281h1.971v-24.281ZM210.235 130.166h-1.971v24.281h1.971v-24.281Z" fill="#DBAC73"/><path d="m118.823 127.385.105 15.628s18.713.21 19.922-.079c1.209-.288 7.254-5.087 7.885-5.349.631-.262 1.235 0 .999.734-.237.735-1.183 3.042-1.183 3.042s4.599-.524 4.994-.76c.42-.236 3.153-2.36 3.732-2.544.578-.183 1.524.184 1.288.787-.263.603-2.839 3.933-2.839 3.933s.526 3.566-.841 4.877-7.727 2.386-10.802 2.596c-3.101.21-26.519 3.173-28.464 3.094-1.945-.079-4.81-.682-5.809-4.877-.998-4.195-1.34-20.243-1.34-20.243l12.353-.839Z" fill="#F69576"/></svg>