<svg width="375" height="307" fill="none" xmlns="http://www.w3.org/2000/svg"><path d="M169.706 53.574c18.161 3.44 52.381-66.752 90.28-51.265 37.9 15.488 10.04 65.388 23.549 76.57 13.51 11.182 50.515-23.23 66.075 12.915 15.559 36.145-8.095 74.863-8.437 80.874-.342 6.011 42.656 38.324 30.724 82.817-11.932 44.493-170.389 48.745-226.923 50.477-56.534 1.733-132.175 1.575-143.318-44.807-11.144-46.383 39.476-86.781 44.154-99.748 4.678-12.941-37.663-58.09 15.428-113.555 41.053-42.891 90.333 2.284 108.468 5.722Z" fill="#9ECBDD"/><path d="M167.209 83.682s-3.259-6.3 4.153-7.008c-.762-5.014 6.492-12.574 19.081-9.345 2.129-5.46 14.14-15.093 22.498-3.36 15.927-6.667 18.187 2.94 16.059 4.672 12.352-2.23 10.171 6.222 8.095 7.167 16.347-3.492 14.087 7.874 14.087 7.874h-83.973ZM297.938 122.794s-1.366-3.491 1.735-3.885c-.315-2.782 2.707-6.956 7.964-5.171.893-3.019 5.913-8.347 9.382-1.864 6.65-3.701 7.596 1.628 6.702 2.573 5.152-1.234 4.258 3.438 3.365 3.963 6.833-1.942 5.887 4.358 5.887 4.358h-35.035v.026Z" fill="#fff"/><path d="M1.655 261.156c11.144 46.383 86.785 46.54 143.319 44.808 56.534-1.733 214.991-6.011 226.949-50.504 8.122-30.266-9.172-54.914-20.973-69.456H27.176c-15.06 19.109-32.538 45.936-25.52 75.152Z" fill="#72645D"/><path d="M12.563 207.056c-9.251 15.881-15.638 34.466-10.907 54.1 11.143 46.383 86.785 46.54 143.318 44.808 56.534-1.733 214.991-6.011 226.95-50.504 4.993-18.611.368-35.095-6.65-48.404H12.563Z" fill="#7EA21A"/><path d="m92.278 92.163 1.025 3.228h10.67l1.025-3.228v14.647h1.157v22.469H91.621l-.763-21.446 1.288.132.132-15.802Z" fill="#749DC1"/><path d="m98.506 84.97 4.81 11.576h-9.514l4.704-11.576ZM81.606 114.238l7.57 15.041H73.879l7.727-15.041Z" fill="#749DC1"/><path d="M81.738 111.509h-.342v3.308h.342v-3.308Z" fill="#749DC1"/><path d="M82.368 112.479h-1.787v.395h1.787v-.395ZM89.965 124.133l1.656 5.145h-2.444l.788-5.145ZM71.198 92.163l-1.024 3.228H59.503l-1.051-3.228v14.647h-1.157v22.469h14.534l.763-21.446-1.262.132-.132-15.802Z" fill="#749DC1"/><path d="m64.944 84.97-4.81 11.576h9.514L64.944 84.97ZM73.512 124.133l-1.682 5.145h2.444l-.762-5.145Z" fill="#749DC1"/><path d="M105.26 128.624H58.083v21.446h47.177v-21.446Z" fill="#749DC1"/><path d="M106.154 147.627H57.295v38.14h48.859v-38.14Z" fill="#749DC1"/><path d="M162.662 107.623h-15.98v10.316h15.98v-10.316ZM164.502 107.622H145l9.961-11.077 9.541 11.077Z" fill="#6388AD"/><path d="M163.819 116.469h-18.135v1.47h18.135v-1.47Z" fill="#6388AD"/><path d="M163.818 117.204H146.13v28.927h17.688v-28.927Z" fill="#6388AD"/><path d="M225.95 128.911h-62.132v17.219h62.132v-17.219Z" fill="#6388AD"/><path d="M171.729 127.677h-1.577v3.99h1.577v-3.99ZM228.342 127.677h-2.392v18.453h2.392v-18.453Z" fill="#6388AD"/><path d="M233.31 166.053H122.765l3.627-20.501H233.31v20.501Z" fill="#6388AD"/><path d="M252.023 154.74h-23.707v-12.914h14.639l9.068 12.914Z" fill="#6388AD"/><path d="M250.077 185.767H123.895v-21.079l2.287-11.891h123.895v32.97Z" fill="#6388AD"/><path d="M80.004 184.874h-3.496v2.021h3.496v-2.021Z" fill="#6B3425"/><path d="M83.42 180.333h4.442l-1.314-5.565-3.128-1.181h2.865l-.342-1.444-5.046-.393 4.73-.945-.656-2.862-4.074-1.286s2.234-.131 3.732-.21l-2.023-8.636-3.312-.289 3.154-.341-4.18-17.744-2.47 10.473h1.525l-1.735.919-.788 3.333h2.838l-2.996.709-.263 1.155h1.577l-1.708.551-1.63 6.983 3.916.813-4.31.867-1.314 5.617h4.074l-4.495 1.733-1.367 5.801c2.156.315 5.283.761 5.283.761l-5.65.787-1.157 4.883H88.94l-.63-2.704-4.889-1.785Z" fill="#7EA21A"/><path d="M349.635 91.768c-15.559-36.119-52.565-1.732-66.074-12.915-13.536-11.182 14.324-61.082-23.549-76.569-37.873-15.487-72.119 54.704-90.281 51.265-3.732-.709-8.752-3.176-14.744-6.247V234.17h218.802c-3.075-33.31-32.827-56.567-32.564-61.555.315-5.985 23.969-44.729 8.41-80.848Z" fill="#895A30"/><path d="M349.635 91.768c-15.559-36.119-52.565-1.732-66.074-12.915-13.536-11.182 14.324-61.082-23.549-76.569-37.873-15.487-72.119 54.704-90.281 51.265-3.732-.709-8.752-3.176-14.744-6.247v159.727h210.286c-9.777-18.506-24.259-30.922-24.048-34.413.315-5.985 23.969-44.729 8.41-80.848Z" fill="#A5713D"/><path d="M300.146 226.19H192.519v13.781h107.627V226.19Z" fill="#D1D1D1"/><path d="M295.416 216.478h-97.981v13.781h97.981v-13.781Z" fill="#D1D1D1"/><path d="M289.895 207.292h-87.126v13.78h87.126v-13.78ZM202.769 58.404v148.651h87.126V81.162c-2.444-.157-4.599-.84-6.36-2.31-4.363-3.596-4.416-11.26-3.758-20.474h-77.008v.026Z" fill="#D1D1D1"/><path d="M208.867 64.311v142.744h74.984V79.115l-.315-.236c-3.39-2.808-4.179-8.032-4.047-14.542h-70.622v-.026Z" fill="#302D2C"/><path d="M57.717 185.191h-2.681v1.549h2.68v-1.549Z" fill="#6B3425"/><path d="M60.344 181.699h3.417l-.999-4.252-2.418-.919h2.208l-.263-1.103-3.89-.288 3.654-.735-.526-2.179-3.128-.998s1.709-.105 2.865-.157l-1.55-6.641-2.55-.21 2.444-.263-3.206-13.649-1.893 8.058h1.183l-1.34.709-.605 2.546h2.182l-2.313.551-.21.893h1.209l-1.315.42-1.261 5.355 3.022.63-3.311.682-1.025 4.331h3.127l-3.443 1.339-1.05 4.463c1.655.236 4.073.577 4.073.577l-4.337.604-.867 3.753h16.4l-.5-2.1-3.784-1.417Z" fill="#7EA21A"/><path d="M269.08 159.281s-1.131 4.83-1.998 17.219c-1.077 15.409-3.995 31.867-3.259 35.647.762 3.78 8.778 52.42 8.253 53.969-.5 1.549-8.253 7.113-8.253 7.113h15.034s.946-32.654.578-38.429c-.342-5.775-2.576-14.647-2.576-14.647l6.361-58.116-14.14-2.756Z" fill="#F69576"/><path d="M279.225 268.163s.841 1.575.841 3.649c0 2.073-.92 3.045-2.575 3.255-1.656.21-4.758-.289-5.677 0-.92.288-.421 1.548-2.681 1.627-2.261.079-10.014.158-10.356 0-.341-.157.263-2.231.999-2.809.762-.603 5.309-1.627 5.309-1.627s4.205.892 7.622-.892c3.469-1.785 6.518-3.203 6.518-3.203Z" fill="#000"/><path d="m275.572 274.097.499 2.677h2.26l1.078-3.57-3.837.893Z" fill="#7D009B"/><path d="M280.776 160.935s-1.13 4.83-1.998 17.22c-1.077 15.408-3.995 31.866-3.259 35.646.736 3.78 8.779 52.42 8.253 53.969-.499 1.549-8.253 7.114-8.253 7.114h15.034s.946-32.655.578-38.429c-.341-5.775-2.575-14.648-2.575-14.648l3.259-58.719-11.039-2.153Z" fill="#F69576"/><path d="M290.947 269.817s.841 1.575.841 3.649c0 2.073-.92 3.044-2.576 3.254-1.656.21-4.757-.288-5.677 0-.92.289-.421 1.549-2.681 1.628-2.26.079-10.013.157-10.355 0-.342-.158.263-2.231.999-2.809.762-.603 5.309-1.627 5.309-1.627s4.205.892 7.622-.893c3.416-1.785 6.518-3.202 6.518-3.202Z" fill="#000"/><path d="m287.293 275.751.499 2.677h2.261l1.077-3.57-3.837.893ZM266.61 157.548h25.573s1.55 13.308 4.1 24.018c6.833 28.638 2.313 37.615 2.313 37.615l-39.976 1.024s.473-52.499 7.99-62.657Z" fill="#000"/><path d="m276.518 124.894-19.502 12.442s-16.742-3.57-17.662-3.99c-.919-.42-5.125-5.145-5.598-5.46-.473-.289-.998-.184-.893.446.079.63.499 2.625.499 2.625s-3.627-1.076-3.916-1.339c-.289-.262-2.208-2.362-2.655-2.598-.446-.236-1.261-.079-1.156.446.105.525 1.735 3.596 1.735 3.596s-.947 2.809-.027 4.069c.92 1.26 5.888 3.019 8.358 3.648 2.471.604 20.921 6.379 22.524 6.589 1.604.21 2.944-.682 6.15-2.152 5.362-2.52 15.533-9.87 15.533-9.87l-3.39-8.452Z" fill="#DD866F"/><path d="M272.023 131.43c-3.338 3.386-1.682 6.641-.526 8.216 3.417 4.594-5.808 20.028-5.808 20.028l27.229 1.26c-4.048-12.705 4.704-16.983 6.018-21.288 4.1-13.624-2.943-16.354-2.943-16.354l-19.87 1.339c-.026-.026-.841 3.491-4.1 6.799Z" fill="#512176"/><path d="M275.387 132.717c7.201.761 9.751.997 10.145 4.803.394 3.78-1.787 18.979-.263 23.362 1.524 4.384.447 28.139-4.783 35.253-5.231 7.114-21.184 8.899-22.919 5.644-1.734-3.255 2.734-30.108 6.65-39.007 3.916-8.898 8.752-13.02 6.307-20.291-2.444-7.297-1.366-10.421 4.863-9.764Z" fill="#fff"/><path d="M283.298 145.395a2.758 2.758 0 0 0 2.76-2.756 2.758 2.758 0 0 0-2.76-2.756 2.758 2.758 0 0 0-2.76 2.756 2.758 2.758 0 0 0 2.76 2.756Z" fill="#fff"/><path d="M287.161 122.244c2.55.394 7.938.945 8.752 1.024.789.078.053 3.491-2.575 6.142-3.443 3.491-6.229 3.465-9.488 3.491-3.023.053-6.282-1.968-7.491-5.04-1.183-3.097 1.051-3.858 3.101-4.462 2.997-.84 5.756-1.444 7.701-1.155Z" fill="#DD866F"/><path d="M312.814 106.494c.841 3.517-5.362 12.363-22.183 13.229-16.821.867-29.278-5.748-29.173-12.022.105-6.273 6.886-3.307 8.909-4.961 2.024-1.654 1.735-4.305 4.258-6.615 2.523-2.31 4.153-.761 5.362-2.1 1.209-1.312.499-5.066 5.677-5.407 5.178-.341 7.306 5.512 8.91 5.749 1.603.236 3.443-.447 5.572 2.1 2.128 2.546 1.314 5.853 3.863 6.851 2.497.971 7.175-3.65 8.805 3.176Z" fill="#000"/><path d="m283.035 114.656-2.208 14.175h12.3s.421-5.617-.315-9.266c-.762-3.649-1.393-4.882-1.393-4.882h-8.384v-.027Z" fill="#DD866F"/><path d="M288.844 118.515s.105 2.599-1.63 3.754c-1.734 1.128-5.571 1.155-5.571 1.155l1.366-8.768h5.651s.421 2.205.184 3.859Z" fill="#DD866F"/><path d="M281.117 97.464s-1.682 1.391-2.418 4.488c-.578 2.363-.447 4.935-.736 6.353-.289 1.444-.762 3.701-.368 5.696.394 1.995 2.181 4.699 5.44 5.617 3.286.919 5.967.263 7.78-2.021 1.814-2.284 4.048-6.352 4.705-9.187.657-2.835 1.025-8.19-1.998-10.552-3.863-2.993-8.463-3.045-12.405-.394Z" fill="#F69576"/><path d="M282.588 112.61c.684-.184 1.42.473 1.42.473s.946-.473 1.261-.473c.999 0 1.866.814 1.866.814s0 2.966-2.838 2.966c-3.233 0-2.839-3.019-2.839-3.019s.5-.603 1.13-.761Z" fill="#512176"/><path d="M287.163 113.423s-.342 1.522-1.604 1.916c-1.261.394-2.339.289-2.943-.367-.605-.657-1.13-1.628-1.13-1.628l5.677.079Z" fill="#fff"/><path d="M284.165 111.324c-.368-.053-.368-.42-.342-.604v-.052c-.026 0-.026.026-.052.026-.132.105-.342.262-.579.026-.105-.079-.131-.236-.131-.42.026-.367.263-.892.473-1.05.053-.026.105-.026.158.026.026.053.026.105-.026.158-.158.105-.368.551-.395.892 0 .105.027.21.053.237.105.078.158.052.289-.053.079-.052.131-.105.237-.105a.24.24 0 0 1 .131.026c.052.053.052.158.052.263 0 .236 0 .367.158.394.079 0 .105 0 .158-.027.052-.052.079-.21.079-.315 0-.078 0-.157.026-.183.026-.053.079-.079.131-.105.106 0 .237.052.395.236a.201.201 0 0 0 .131.052c.079-.026.158-.105.184-.288.053-.263-.21-.788-.289-.972-.026-.052 0-.131.052-.157.053-.026.132 0 .158.052.053.079.394.735.316 1.129-.053.236-.184.42-.342.446-.132.027-.263 0-.342-.105a.438.438 0 0 0-.184-.157v.052c0 .132-.026.342-.157.473-.053.052-.132.079-.237.079-.026.026-.053.026-.105.026Z" fill="#6B3425"/><path d="M300.54 106.363c-1.025-2.52-8.41-.236-7.044 4.384 1.419 4.751 8.542-.683 7.044-4.384Z" fill="#F69576"/><path d="M294.889 111.323c.026 0 .052 0 .079-.026.052-.052.052-.105 0-.157-.289-.342-.368-1.392.026-2.415.263-.735.946-1.969 2.549-2.179.841-.105 1.446.026 1.788.42.499.577.262 1.496.262 1.522-.026.053.027.132.079.132.053.026.132-.027.132-.079 0-.053.263-1.05-.316-1.706-.394-.447-1.051-.604-1.997-.499-1.235.157-2.234.997-2.734 2.31-.394 1.05-.367 2.205.027 2.651.052.026.079.026.105.026Z" fill="#6B3425"/><path d="M297.542 110.904c.053 0 .079-.026.105-.079.027-.078.868-2.126-.368-4.383-.026-.053-.105-.079-.157-.053-.053.026-.079.105-.053.158 1.183 2.178.368 4.173.342 4.2-.026.052 0 .131.052.131.053.026.053.026.079.026ZM282.957 105.366c-.395-.132-1.236-.525-1.893-.368-.709.184-.998.551-1.261.709-.263.157-.289.184-.263-.184.026-.394.526-.84 1.498-1.155.973-.315 1.63-.078 1.998.132.368.209.473 1.049-.079.866ZM287.556 105.943c.421-.131 1.314-.525 2.024-.367.762.184 1.077.551 1.34.709.263.183.316.183.289-.184-.026-.394-.552-.84-1.577-1.155-1.025-.315-1.734-.079-2.128.131-.421.184-.526 1.05.052.866Z" fill="#6B3425"/><path d="M288.869 108.803c.276 0 .5-.482.5-1.076 0-.594-.224-1.076-.5-1.076s-.499.482-.499 1.076c0 .594.223 1.076.499 1.076ZM281.669 108.462c.275 0 .499-.482.499-1.077 0-.594-.224-1.076-.499-1.076-.276 0-.5.482-.5 1.076 0 .595.224 1.077.5 1.077ZM281.957 95.967s1.813 3.885 5.94 6.247c4.126 2.363 7.227 3.36 7.227 3.36s1.314 5.355 4.206 5.723c2.864.393 4.941-4.935 4.941-4.935l-9.12-9.581-6.229-4.489-6.965 3.675Z" fill="#000"/><path d="M295.968 111.639s1.971 4.331 0 4.305c-1.525-.027 0-4.305 0-4.305Z" fill="#FFE051"/><path d="M293.338 121.719s-4.127 4.042-6.203 7.087c-2.076 3.045-3.811 8.085-3.811 8.085l2.208.63s.71-4.935 3.627-8.715c2.917-3.78 5.335-6.011 5.335-6.011l-1.156-1.076Z" fill="#fff"/><path d="m287.162 134.791-16.847 10.133s-17.399-3.728-18.372-4.148c-.972-.42-5.309-5.355-5.808-5.67-.499-.315-1.025-.183-.946.473.079.656.525 2.73.525 2.73s-3.758-1.129-4.073-1.391c-.316-.263-2.313-2.468-2.76-2.704-.447-.236-1.314-.079-1.183.472.132.552 1.787 3.728 1.787 3.728s-.972 2.914-.026 4.226c.946 1.312 6.124 3.15 8.673 3.78 2.576.63 21.762 6.615 23.418 6.851 1.656.21 3.049-.709 6.387-2.257 5.572-2.573 15.69-8.899 15.69-8.899s9.304-4.384 5.178-9.712c-2.654-3.465-11.643 2.388-11.643 2.388Z" fill="#F69576"/><path d="m283.352 156.973 8.831.577.525 4.121-8.384 1.864-.972-6.562Z" fill="#fff"/><path d="M291.183 159.281s6.492-11.497 9.567-7.298c3.075 4.2 4.126 8.138 1.761 9.713-2.366 1.575-10.723-.762-10.723-.762s8.226-.498 8.962-2.1c.71-1.601-.605-5.144-1.919-4.882-1.314.263-7.648 5.329-7.648 5.329ZM290.552 160.882s3.68 1.207 5.52 3.963c1.84 2.757 1.866 5.25 1.866 5.25h-1.735s-.657-5.801-5.651-9.213Z" fill="#fff"/><path d="M115.802 70.794s-5.572-3.517-11.854.473c-4.205 2.677-4.73 12.153-3.154 15.382 1.551 3.229 8.726 9.082 8.726 9.082s26.887-19.477 6.282-24.936Z" fill="#A5713D"/><path d="m133.726 126.628.079 13.886s16.61.184 17.662-.079c1.077-.262 6.439-4.515 6.991-4.751.552-.236 1.077 0 .867.656-.21.656-1.051 2.704-1.051 2.704s4.074-.446 4.442-.683c.368-.236 2.812-2.1 3.311-2.257.5-.158 1.367.157 1.13.682-.21.525-2.523 3.492-2.523 3.492s.473 3.176-.736 4.331c-1.209 1.155-6.833 2.1-9.593 2.283-2.733.184-23.496 2.835-25.231 2.757-1.735-.079-4.258-.604-5.151-4.332-.894-3.727-1.183-17.954-1.183-17.954l10.986-.735Z" fill="#DD866F"/><path d="M102.16 257.639v21.839H83.92s-2.602-4.357 0-5.565c2.602-1.181 11.065-5.355 11.065-5.355l-.315-10.919h7.49Z" fill="#F69576"/><path d="M102.16 268.558v10.919H83.92s-2.602-4.357 0-5.564c2.602-1.182 11.065-5.355 11.065-5.355h7.175Z" fill="#032240"/><path d="M102.16 277.274v2.205H83.92s-.604-1.023-.946-2.205h19.186Z" fill="#BFBFBF"/><path d="m117.167 257.64-.157 10.919s9.54 1.785 12.09 2.573c3.048.945 6.597 1.785 7.096 4.751.42 2.572 0 3.57 0 3.57h-29.594l3.206-21.84h7.359v.027Z" fill="#F69576"/><path d="M116.984 268.558s9.54 1.785 12.09 2.573c3.048.945 6.596 1.785 7.096 4.751.42 2.573 0 3.57 0 3.57h-29.568l1.13-10.92h9.252v.026Z" fill="#BFBFBF"/><path d="M136.169 275.907c.079.525.131.972.158 1.365h-29.489l.92-8.714h9.251s9.541 1.785 12.09 2.572c3.049.945 6.597 1.785 7.07 4.777Z" fill="#032240"/><path d="M130.468 158.705s1.025 10.762 0 28.664-5.388 35.069-5.888 37.117c-.525 2.047-6.912 36.355-6.912 36.355h-9.987s5.65-46.33 6.15-60.4c.525-14.07-1.787-40.45-1.787-40.45l18.424-1.286Z" fill="#254B6B"/><path d="M93.802 159.992h21.263s1.656 42.55 0 44.545c-1.656 1.995-6.676 9.975-7.438 16.117-.762 6.142-2.839 40.188-2.839 40.188H93.776v-100.85h.026Z" fill="#254B6B"/><path d="M109.599 102.715c10.591-.236 14.008 1.365 16.242 6.326 2.234 4.961 7.859 48.456 8.384 57.329.526 8.872-1.209 14.174-13.325 14.174s-28.7-9.896-28.7-9.896-.684 3.071-1.21 4.961c-.525 1.89-5.65 3.938-5.65.683s2.234-54.1 2.575-62.631c.342-8.558 13.667-10.762 21.684-10.946Z" fill="#000"/><path d="M120.899 105.629c4.179-1.102 8.043-1.023 11.118 5.119 3.075 6.142 5.466 25.252 5.466 25.252l-14.192 5.617s-13.509-33.1-2.392-35.988Z" fill="#000"/><path d="M113.251 101.849c-3.732 0-8.147.341-10.46 1.838-2.812 1.811-2.76 8.531 9.593 9.082 12.353.551 11.932-5.198 10.697-6.877-1.84-2.494-6.965-4.043-9.83-4.043Z" fill="#F69576"/><path d="m118.061 94.13 2.392 15.435h-14.56s.709-6.142 1.524-10.106c.815-3.964 1.524-5.329 1.524-5.329h9.12Z" fill="#F69576"/><path d="M111.728 98.33s-.132 2.835 1.761 4.095c1.892 1.234 6.071 1.26 6.071 1.26l-1.472-9.555h-6.15c-.026 0-.447 2.415-.21 4.2Z" fill="#DD866F"/><path d="M120.138 75.442s1.84 1.522 2.654 4.882c.605 2.573.474 5.355.815 6.93.316 1.549.841 4.042.394 6.195-.446 2.152-2.365 5.118-5.939 6.116-3.575.997-6.492.289-8.463-2.205-1.972-2.494-4.416-6.93-5.125-10.001-.71-3.071-1.131-8.925 2.155-11.497 4.205-3.281 9.225-3.308 13.509-.42Z" fill="#F69576"/><path d="M113.647 92.819s.342 2.1 1.577 2.546c1.236.446 2.524.157 3.075-.551.579-.709.868-2.021.868-2.021l-5.52.026Z" fill="#fff"/><path d="M116.696 90.508c-.105 0-.184-.026-.237-.079-.158-.13-.158-.367-.158-.498v-.08c-.026.027-.105.053-.184.158a.433.433 0 0 1-.394.132c-.184-.053-.341-.237-.394-.5-.079-.42.315-1.154.342-1.233.026-.052.105-.079.157-.052a.126.126 0 0 1 .053.157c-.105.184-.394.761-.315 1.05.052.21.131.289.21.315.052.026.105-.026.131-.052.184-.184.316-.263.421-.263.052 0 .131.053.157.105a.499.499 0 0 1 .027.21c0 .105 0 .263.079.341.026.027.078.027.157.027.158-.027.184-.158.184-.42 0-.132 0-.237.053-.29a.2.2 0 0 1 .131-.052c.105 0 .158.08.237.132.157.105.21.13.315.052.053-.052.079-.131.053-.262-.027-.368-.263-.84-.421-.972-.052-.026-.052-.105-.026-.157.052-.053.105-.053.158-.026.236.183.499.735.525 1.155 0 .21-.026.367-.131.446-.263.236-.5.079-.631-.026l-.052-.053v.053c0 .21.026.603-.395.682h-.052Z" fill="#6B3425"/><path d="M98.981 85.103c1.104-2.73 9.146-.263 7.648 4.777-1.498 5.171-9.278-.735-7.648-4.777Z" fill="#F69576"/><path d="M105.13 90.51c-.026 0-.052 0-.078-.027-.053-.053-.053-.131 0-.158.341-.367.394-1.496-.027-2.624-.289-.788-1.051-2.153-2.786-2.363-.92-.105-1.577.053-1.945.473-.551.63-.289 1.653-.289 1.653.027.053-.026.132-.078.158-.053.026-.132-.026-.158-.079 0-.053-.29-1.155.341-1.864.421-.498 1.157-.656 2.156-.55 1.366.157 2.444 1.075 2.97 2.519.42 1.129.394 2.389-.027 2.861h-.079Z" fill="#6B3425"/><path d="M102.266 90.063c-.053 0-.079-.026-.105-.079-.027-.105-.947-2.31.394-4.777.026-.053.105-.079.158-.053.052.027.078.105.052.158-1.288 2.362-.394 4.541-.394 4.567.026.053 0 .131-.053.158-.026.026-.052.026-.052.026ZM112.805 88.173c.247 0 .447-.4.447-.892 0-.493-.2-.893-.447-.893-.246 0-.446.4-.446.893s.2.892.446.892ZM110.781 84.944c.342-.29 1.052-.657 1.788-.735.814-.08 1.261.288 1.577.367.315.079.368-.367.184-.735-.158-.367-.841-.656-1.945-.63-1.104.026-1.709.525-1.998.866-.315.315-.079 1.26.394.867ZM119.613 87.963c.247 0 .447-.4.447-.892 0-.493-.2-.893-.447-.893s-.447.4-.447.893.2.892.447.892ZM117.984 84.604c.342-.289 1.051-.656 1.787-.735.815-.079 1.262.288 1.577.367.316.079.368-.367.184-.735-.184-.367-.841-.656-1.945-.63-1.103.053-1.708.525-1.997.867-.315.34-.079 1.26.394.866ZM120.848 95.392l-.552.13s-1.078 2.127-1.971 2.52c-.894.394-3.837.263-4.153 0-.315-.262-1.34-2.598-1.34-2.598l-.684.158s1.052 3.386 1.209 3.674c.106.184 2.05 1.523 2.813 1.575.762.053 3.364-1.364 3.495-1.68.394-.945 1.183-3.78 1.183-3.78Z" fill="#6B3425"/><path d="m117.483 96.729-1.288-.053-.052 2.284.998.21.342-2.441Z" fill="#6B3425"/><path opacity=".4" d="m91.621 114.921 3.286 18.532-5.888 1.785 2.602-20.317Z" fill="#254B6B"/><path d="M105.893 72.24s3.048 5.512 11.538 6.01c17.688 1.024 9.566-8.872 9.566-8.872s.631 2.625-2.418 2.756c-4.126.184-10.145-12.442-18.686.105Z" fill="#A5713D"/><path d="M137.614 173.614c.893.42 1.971 1.758.446 3.832-1.524 2.074-4.941 2.993-4.941 2.993s.657-3.99 1.735-5.014c1.078-1.076 2.76-1.811 2.76-1.811ZM129.546 167.157s.92-2.153 3.574-3.071c2.655-.919 3.995-.053 4.941 0 .946.052-1.13 2.808-3.285 3.517-2.155.709-5.23-.446-5.23-.446Z" fill="#5F750E"/><path d="M137.272 130.852c1.025.866 7.963 9.555 9.199 11.786 1.235 2.231 5.098 11.051 6.597 13.65 1.498 2.599 3.364 4.226 3.364 4.226v2.231s-3.233-3.858-5.966-9.555c-2.734-5.722-3.601-9.187-5.966-11.917-2.366-2.73-6.335-8.82-7.202-9.555-.867-.735-.972-1.653-.026-.866Z" fill="#3D211C"/><path d="M148.338 132.585c-.71 1.838-1.551 12.39-1.551 12.39l-.315-2.31s.368-7.586.92-9.45c.578-1.864 1.34-1.654.946-.63ZM154.435 137.442c.657-.919 1.235 6.536 1.498 9.214.237 2.703 1.13 14.988 1.235 19.949.132 4.961.999 16.642.999 23.598 0 6.957.131 20.37 0 21.499-.131 1.128-1.446 1.627-1.84 0-.394-1.628-.893-50.557-1.156-56.515-.237-5.959-1.367-16.879-.736-17.745Z" fill="#3D211C"/><path d="M170.23 150.724c1.051-.945 1.367-.236.867.63-.499.866-3.732 3.281-7.411 10.841-1.235 2.546-6.518 18.716-6.518 18.716v-2.363s3.101-10.184 5.335-15.775c2.234-5.592 6.466-10.92 7.727-12.049Z" fill="#3D211C"/><path d="M174.62 158.546c.578-.21.736.368 0 .63-.736.236-4.363 1.444-6.413 2.809-2.076 1.365-7.096 5.617-7.096 5.617l.578-1.575s4.205-3.649 6.439-4.856c2.208-1.155 5.835-2.362 6.492-2.625ZM163.134 127.992c-.184.735-1.419 4.383-2.366 7.087-.946 2.704-2.207 7.796-3.022 9.896-.841 2.1-1.814 6.3-1.814 6.3l-.368-1.943s2.024-6.378 2.997-9.686c.946-3.307 3.311-10.919 3.679-11.628.368-.709.973-.394.894-.026ZM132.306 157.521c.578.394 5.598 4.857 7.779 8.085 2.182 3.229 4.074 7.114 5.809 10.132 1.734 3.019 3.653 7.193 5.23 9.897 1.577 2.703 5.309 6.247 5.309 6.247v1.496s-2.891-2.94-4.967-5.722c-2.077-2.783-6.334-11.603-8.122-14.989-1.787-3.386-5.177-8.531-7.122-10.421-1.945-1.89-3.811-3.596-4.311-4.016-.499-.42-.184-1.102.395-.709Z" fill="#3D211C"/><path d="M132.752 173.507c1.13-.052 6.386.053 8.331.499a83.903 83.903 0 0 1 4.022 1.05l.446 1.102s-4.599-1.575-6.886-1.706c-2.286-.131-5.519-.131-5.939-.131-.421 0-.605-.788.026-.814Z" fill="#3D211C"/><path d="M141.741 211.781s9.62-3.465 15.428-3.15c5.809.315 13.431 3.15 13.431 3.15s2.155 5.617 3.153 9.764c.999 4.148 2.418 11.419 1.367 15.225-1.051 3.806-5.519 5.145-8.673 5.959-3.154.84-17.241-.657-20.895 0-3.653.656-7.884-1.995-8.331-6.799-.447-4.751 4.52-24.149 4.52-24.149Z" fill="#6B3425"/><path d="M153.673 127.913s.657 4.068-1.918 5.039c-2.576.998-5.493 1.155-5.283 0 .21-1.155 2.129-3.307 3.627-4.305 1.498-.971 3.574-.734 3.574-.734ZM169.678 131.22s-2.917 1.943-5.44 2.547c-2.523.603-3.758-1.05-3.128-1.969.631-.919 1.656-2.389 4.206-2.153 2.549.263 4.362 1.575 4.362 1.575ZM166.708 143.819s2.313 2.652 2.497 4.646c.158 1.995.027 5.513-1.077 5.88-1.104.368-2.944-2.388-2.786-4.882.105-2.494 1.366-5.644 1.366-5.644ZM169.678 161.144c.867-.42 3.574.709 5.44 1.628 1.866.918 2.865 3.464 2.865 3.464s-2.155.237-4.731-1.154c-2.576-1.392-4.442-3.518-3.574-3.938ZM145.552 159.544s1.42-1.969 3.575-2.153c2.155-.183 5.177.63 5.125 1.497-.053.84-.973 3.386-3.706 3.15-2.76-.263-4.994-2.494-4.994-2.494ZM151.518 174.374s1.656 2.809.499 4.541c-1.156 1.733-2.891 3.203-3.574 2.809-.683-.394-.394-3.071.342-4.725.762-1.627 2.733-2.625 2.733-2.625ZM137.22 156.919s-.815-3.57 1.603-5.145c2.418-1.575 5.204-1.496 5.204-1.496s-.289 4.488-2.523 5.879c-2.234 1.392-4.284.762-4.284.762ZM131.648 138.387s2.628-2.388 5.572-2.598c2.97-.21 4.258.078 4.626.525.368.472-.29 2.861-3.023 3.517-2.707.683-7.175-1.444-7.175-1.444Z" fill="#5F750E"/><path d="M159.956 154.005c1.367-.603.473-2.257 1.919-2.625 1.445-.367 3.101 1.182 4.31 2.625 1.183 1.444 1.077 2.258 2.392 2.494 1.314.236 1.918.709 2.496 2.389.605 1.68.237 3.386 1.183 3.963.946.578 2.024 1.208 1.919 2.914-.132 1.706-2.155 2.258-1.446 3.833.71 1.575.132 4.698-2.26 5.092-2.392.394-4.652-.551-5.861-1.733-1.183-1.181-.841-2.913-2.865-3.359-2.024-.447-4.547-.237-5.125-2.363-.604-2.152 1.787-3.701.841-5.066-.946-1.365-2.996-2.362-2.628-4.961.341-2.599 3.206-2.363 5.125-3.203ZM174.174 139.568c.578-2.914-.368-5.46 1.892-6.195 2.26-.735 7.175-.551 7.753 1.155.605 1.706-.604 2.441.71 3.806 1.314 1.365 3.574 3.176 3.942 6.379.368 3.202-.368 8.321-1.682 10.841-1.314 2.519-3.469 3.569-4.783 3.989-1.314.42-1.682 1.523-3.101 1.339-1.42-.184-3.706-2.257-4.179-3.439-.473-1.181 1.103-4.252-.579-6.116-1.682-1.863-3.469-3.123-3.364-6.614.158-3.465 3.154-3.912 3.391-5.145ZM191.128 163.061c2.313-2.126 2.628-4.646 5.362-4.173 2.733.472 3.706 2.441 4.547 3.78.841 1.338 2.496 1.863 3.101 3.097.604 1.234 1.314 3.491 0 4.62s-3.233-.052-3.811 2.677c-.605 2.73.71 6.195-.605 8.112-1.314 1.916-6.202 4.304-10.145 1.548-3.942-2.756-5.624-5.407-4.652-8.321.947-2.887 2.997-2.336 2.865-4.278-.131-1.969-.42-4.699.815-6.064 1.209-1.339 1.551-.105 2.523-.998ZM165.212 188.103c1.735-2.231 2.497 1.444 4.048 1.312 1.55-.131 1.682-2.52 3.338-.892 1.682 1.627 2.996 2.809 2.391 3.885-.604 1.076-.552 1.549.158 2.074.683.551 1.997 1.023 1.393 2.441-.605 1.443-2.944 5.118-5.598 5.407-2.655.315-3.838-.289-4.074-2.31-.237-2.021.236-2.625-1.682-2.73-1.919-.131-2.497-.499-2.865-2.284-.368-1.784 2.392-1.076 2.733-2.729.395-1.654-.683-3.098.158-4.174Z" fill="#7EA21A"/><path d="M179.693 157.208c.683.026 1.262 3.937 1.498 11.576.237 7.639 1.446 52.84 1.446 52.84h-1.472l-1.472-64.416Z" fill="#3D211C"/><path d="M171.783 170.253c.946-.63 3.18 2.126 4.941 3.623 1.761 1.496 4.468 2.808 4.468 2.808v1.05s-3.89-2.231-6.045-4.095c-2.181-1.863-3.364-3.386-3.364-3.386ZM187.79 179.415s-1.603 2.519-3.128 6.746c-.946 2.572-2.024 5.984-2.733 8.268-.447 1.444-.736 2.415-.736 2.415s-.316-5.223 2.786-10.683c3.101-5.46 2.26-7.455 3.811-6.746ZM174.174 196.817l6.991 6.798v1.917l-6.991-7.77v-.945Z" fill="#3D211C"/><path d="M169.522 223.777s-.605-.709.473-2.153c1.077-1.444 22.34-1.549 23.05-.945.709.604-.605 1.68 0 2.258.604.603 3.81 9.896 3.705 15.854-.131 5.959-.236 9.424-6.675 10.369-6.44.945-14.692 1.785-19.344 0-4.652-1.785-5.73-2.021-5.73-7.98-.026-5.959 4.521-17.403 4.521-17.403Z" fill="#7C5349"/><path d="M159.298 129.2s-5.283-1.969-9.856-2.967c-.184-.026-.341-.078-.499-.105 1.735.027 3.522 0 4.941-.078 3.233-.184 5.519-.893 6.36-1.208-1.366.368-4.257-.577-8.831-.498 3.312-1.313 8.7-4.2 8.7-4.2s-4.126.315-8.2 1.575c3.259-2.232 7.175-6.3 7.175-6.3s-4.074 1.863-7.727 3.963c-.21.105-.421.237-.631.368 2.996-2.94 6.781-7.639 6.781-7.639s-3.18 2.048-6.781 4.935c-.552.446-1.104.945-1.682 1.496l.026-.026c2.786-3.885 6.308-9.87 6.308-9.87-.368 0-3.049 2.993-6.334 7.088a33.6 33.6 0 0 0-1.393 1.837c1.866-4.095 5.099-11.681 5.099-11.681s-3.522 3.964-5.861 8.715c-1.262 2.546-2.418 5.644-3.207 7.954 1.052-3.859 2.392-9.791 2.602-11.681.29-2.757.579-7.429.579-7.429s-1.42 4.489-1.919 6.247c-.263.945-.92 3.518-1.498 6.274-.316-4.725-.736-12.495-.736-12.495s-.894 6.248-.867 9.581c0 .499 0 1.155.026 1.89-1.209-4.908-3.154-11.654-3.154-11.654s-.289 5.144.736 9.896c.026.131.053.262.079.42-1.498-3.754-4.258-9.582-4.258-9.582s.999 5.382 1.971 9.372c-1.997-3.045-5.572-7.613-5.572-7.613s2.366 5.933 3.916 9.712c.079.158.158.342.237.525-2.97-3.044-8.594-8.163-8.594-8.163s3.285 5.014 5.414 8.19c-2.418-1.601-7.517-4.463-7.517-4.463s4.573 4.594 6.86 6.746c.814.762 2.365 1.969 4.047 3.177-5.177-2.258-12.747-5.198-12.747-5.198s5.099 3.596 8.227 5.25c.867.473 2.129 1.024 3.469 1.575a14.254 14.254 0 0 0-1.656-.262c-3.601-.289-10.434-.447-10.434-.447s7.701 1.969 11.17 2.809c-1.235-.026-2.392 0-3.259.105-3.469.499-7.201 1.627-7.201 1.627s8.384-.367 13.062-.577c-.578.157-1.156.315-1.787.551-4.205 1.575-8.095 5.303-8.095 5.303.184-.053 4.547-1.444 8.095-2.967l1.498-.63c-1.63 1.628-6.755 6.93-6.755 6.93s9.699-7.245 12.537-9.345c0 .237.105.105.368-.262 0 0 .026 0 .026-.026-.079.472-.236 18.926-.236 19.424 0 .473.841.368.841 0 0-.498-.237-16.694-.316-19.109.579.577 2.156 1.942 5.309 3.517 4.206 2.1 6.965 2.678 6.965 2.678s-3.548-2.625-6.202-4.122a7.348 7.348 0 0 1-.631-.341c.788.184 1.629.341 2.549.446 5.152.63 8.463.762 8.463.762Z" fill="#512176"/><path d="M160.244 124.842a1.52 1.52 0 0 0 .368-.131c-.026-.026-.131.026-.368.131Z" fill="#512176"/><path d="M157.906 157.076h-27.492l-5.992-19.792H161.9l-3.994 19.792Z" fill="#7C5349"/><path d="M227.213 201.307c-.158-.578-.447-.919-.447-.919s.026.315-.079.788a5.584 5.584 0 0 1-.394 1.076c-.237.472-.683.866-1.183 1.207-.131.105-.289.184-.42.263-.211.131-.421.236-.631.341-.053.026-.131.053-.184.105a4.331 4.331 0 0 0-.342.158c-.052.026-.105.052-.131.078-.053.027-.079.053-.132.079-.078.053-.183.079-.262.131-.053.027-.079.053-.132.053-.236.105-.473.21-.631.184-.026 0-.052 0-.078-.027-.053-.026-.079-.052-.105-.078-.027-.027-.027-.053-.053-.079-.026-.053-.026-.131-.053-.21 0-.079 0-.184.027-.289.026-.105.052-.184.105-.289.105-.262.289-.525.552-.787.368-.394.867-.761 1.498-1.129.315-.184.631-.367.946-.604l.394-.315c.289-.262.578-.525.815-.84.079-.078.131-.183.21-.288.105-.158.184-.289.263-.447l.079-.157c.079-.158.158-.341.21-.525.053-.131.079-.236.105-.367l.079-.394a2.32 2.32 0 0 0 .053-.42c.026-.368 0-.735-.053-1.103-.026-.157-.052-.288-.079-.446-.026-.079-.026-.157-.052-.21a5.972 5.972 0 0 0-.211-.63c-.052-.131-.105-.262-.157-.42l-.158-.394c-.026-.052-.052-.131-.079-.183-.079-.184-.184-.342-.263-.525-.368-.683-.683-1.129-.683-1.129s.053.079.105.21c.21.394.605 1.391.605 2.887 0 .604-.184 1.365-.526 2.1-.105.237-.21.447-.342.657a3.919 3.919 0 0 1-.262.446 4.013 4.013 0 0 1-.29.42 7.842 7.842 0 0 1-1.34 1.443 2.802 2.802 0 0 1-.578.394c-.132.079-.263.131-.394.21a2.257 2.257 0 0 1-.395.131c-.21.053-.368.079-.499.105-.526.027-.71-.262-.683-.682.026-.683.578-1.733.972-2.389.71-1.181 2.549-3.701 2.786-5.932.026-.131.026-.289.026-.42-.026-1.286-.762-2.441-1.314-3.098a1.097 1.097 0 0 0-.158-.183l-.157-.158-.263-.262s.026.105.105.315c.026.052.026.105.053.157.052.21.131.473.21.761.105.42.236.919.342 1.444 0 .053.026.105.026.158l.079.472c0 .053.026.105.026.158.026.262.026.551 0 .866 0 .131-.026.262-.053.394 0 .052-.026.131-.026.21-.289 1.601-1.077 3.517-1.55 4.357-.631 1.129-1.446 1.024-1.577-.026v-.105c0-.341.184-.945.42-1.68.026-.053.026-.105.053-.131.131-.394.262-.788.42-1.234.026-.053.026-.105.053-.158.105-.315.236-.656.341-.997.027-.105.079-.21.106-.341.21-.604.394-1.208.551-1.759.079-.289.158-.578.211-.84.079-.394.131-.735.131-.998v-.157a2.15 2.15 0 0 0-.368-.945.336.336 0 0 0-.079-.105c-.079-.105-.184-.21-.262-.315-.316-.341-.684-.578-.973-.761-.053-.027-.105-.053-.158-.105-.236-.131-.394-.184-.394-.184s.184.158.394.446c.053.079.132.184.184.289.105.157.184.341.263.525.105.262.184.551.21.892v.21c0 .63-.157 1.707-.368 2.757-.026.078-.026.157-.052.262-.079.473-.184.919-.263 1.313l-.079.315c-.157.656-.289 1.076-.315 1.023-.053-.078-.079-.393-.079-.892v-.42c0-.446.026-.998.079-1.601.026-.21.026-.42.026-.63 0-.315 0-.63-.026-.945-.079-1.155-.263-2.284-.5-2.993-.341-1.023-1.787-1.155-1.787-1.155s.263.237.605.657c.052.052.079.105.131.183.105.158.237.315.342.499.052.079.079.157.131.236.053.079.079.158.132.236.131.237.236.525.315.788.079.289.131.577.158.84V190.413c0 .132-.027.263-.027.394a6.742 6.742 0 0 1-.262 1.286s-.289-1.548-.736-3.071a21.772 21.772 0 0 1-.079-.236c-.316-.945-.683-1.864-1.104-2.336-.026-.053-.079-.079-.105-.105-.026 0-.026-.026-.053-.026-.026-.027-.052-.053-.079-.053-.026 0-.026-.026-.052-.026-.026-.026-.053-.026-.079-.053-.026 0-.026-.026-.052-.026-.027-.026-.053-.026-.079-.026-.027 0-.027-.026-.053-.026s-.052-.027-.079-.027c-.026 0-.026 0-.052-.026-.027 0-.079-.026-.105-.026H216.542c-.026 0-.079 0-.105.026h-.053c-.026 0-.078.026-.105.026h-.026c-.052 0-.079.027-.131.027a3.236 3.236 0 0 0-.447.183c-.053.027-.079.053-.132.079-.525.263-.893.578-.893.578s.893-.053 1.761.971c.841 1.023 2.076 4.41 2.418 5.643.368 1.234-.211 1.785-.736 1.812-.5 0-1.472-1.155-3.075-3.045-1.603-1.89-1.262-3.78-1.262-3.78s-1.918 2.572-1.656 3.963c.263 1.392 1.893 2.337 3.312 3.413 1.419 1.076 3.443 1.549 2.418 2.231-.736.499-1.629-.184-1.656-.184 0 0-.157 1.444-.604 1.601-.605.21-1.209-1.312-2.629-3.543-1.419-2.231-2.286-2.599-2.286-2.599s-1.262 2.783-1.157 3.754c.106.971 2.182 3.097 4.468 4.436 2.313 1.339 3.864 2.336 3.444 3.124-.421.787-2.813-.499-5.152-2.547-2.339-2.047-3.259-4.987-3.259-4.987s-1.735 3.806-1.288 5.486c.447 1.68 2.287 3.124 4.074 3.964 1.787.84 4.81.367 5.441 1.549.63 1.155-2.129 2.388-3.417 2.152-1.288-.236-3.469-3.832-3.469-3.832s.683 6.326 2.917 6.877c1.971.499 4.231-2.415 5.309-3.124a.2.2 0 0 1 .105-.052c.026-.027.053-.027.105-.053h.026c.027 0 .053-.026.079-.026h.079c.841 0 .526 2.914 2.865 2.494 1.025-.184 1.682-1.418 2.129-2.757.026-.052.026-.105.052-.131.053-.184.106-.393.158-.577.026-.105.053-.184.079-.289.026-.105.053-.184.079-.289.026-.105.052-.183.052-.262.027-.079.027-.184.053-.263.026-.078.026-.183.052-.262.053-.236.079-.473.106-.683.026-.131.026-.262.052-.367 0-.053 0-.105.026-.158.027-.21.027-.315.027-.315s-.105.132-.263.342c-.053.052-.079.105-.131.157-.053.053-.106.131-.158.184-.053.079-.105.131-.158.21-.079.105-.184.21-.263.315-.473.551-1.025 1.076-1.393 1.181-.552.131-.578-.551-.394-1.102.026-.053.026-.079.053-.132.026-.078.079-.131.105-.21a.744.744 0 0 1 .263-.236c.078-.026.21-.079.368-.157.026 0 .052-.027.078-.027.079-.026.184-.078.29-.131.052-.026.131-.052.183-.079.237-.105.5-.236.789-.393l.158-.079c.841-.473 1.787-1.155 2.523-2.126.236-.315.394-.604.499-.893.026-.052.053-.105.053-.157.079-.289.131-.552.131-.788-.105-.367-.158-.63-.21-.866Zm-5.914 3.386c-.026.158-.052.368-.105.551-.026.079-.052.184-.079.263 0 .026-.026.079-.026.105-.053.21-.131.394-.21.604-.21.551-.447 1.05-.684 1.338l-.026.027c-.131.157-.236.236-.342.236-.105 0-.157-.131-.131-.368 0-.21.053-.472.105-.787a.954.954 0 0 0 .053-.289c.026-.105.052-.184.079-.289.026-.078.052-.183.078-.262 0-.053.027-.079.027-.131.026-.079.052-.184.079-.263.026-.052.026-.079.052-.131l.079-.236c.026-.053.026-.105.053-.132.026-.078.052-.131.078-.183.132-.289.263-.525.395-.683a.349.349 0 0 1 .079-.105c.105-.105.183-.131.262-.105.132.026.184.21.184.446v.132a.431.431 0 0 1 0 .262Zm-4.205-4.935c.683-.735 2.155 1.129 1.708 1.733-.367.498-2.365-.998-1.708-1.733Z" fill="#7EA21A"/><path d="M217.383 214.248a11.448 11.448 0 0 0-.447-2.1c-.052-.21-.131-.393-.184-.577-.946-2.73-2.707-5.145-4.047-6.641a13.18 13.18 0 0 1-1.104-1.444c-.71-1.076-1.261-2.126-2.129-2.887-1.077-.972-1.524-1.05-1.629-1.05h-.027s.053.052.158.131c.026.026.079.052.105.105a.993.993 0 0 1 .237.236c.052.053.105.105.131.158.079.078.132.183.21.262.027.053.053.105.079.131.079.158.158.368.211.604 0 .052.026.131.026.184 0 .052.026.105.026.183 0 .053 0 .132.026.21v.657c0 .078 0 .157-.026.262-.079 1.05-.131 3.728-.578 6.038-.158.761-.342 1.496-.605 2.1a5.639 5.639 0 0 1-1.077 1.653c-.079.105-.184.184-.263.289a5.36 5.36 0 0 1-.92.735 6.04 6.04 0 0 1-.631.367l-.157.079c-.132.053-.211.079-.211.079s.342-.709.894-1.838c.105-.21.184-.472.263-.734.079-.263.131-.578.184-.867l.079-.63c.026-.21.026-.446.052-.656v-.682c0-.447-.052-.893-.105-1.313-.079-.525.053-1.102.237-1.732.105-.368.262-.762.394-1.182.105-.288.184-.551.289-.866.263-.892.499-1.89.473-2.992 0-.368-.026-.683-.053-.971-.052-.709-.184-1.208-.367-1.523a.956.956 0 0 0-.184-.262l-.211-.21c-.026-.027-.052-.027-.079-.053-.052-.026-.105-.079-.157-.105-.053-.026-.132-.052-.184-.079a1.86 1.86 0 0 0-.211-.078c-.026 0-.078-.027-.105-.027a8.62 8.62 0 0 0-.446-.157c-.316-.105-.658-.184-.973-.263-.158-.026-.315-.078-.473-.105-.21-.052-.42-.078-.604-.105-.053 0-.106-.026-.158-.026-.316-.052-.526-.079-.526-.079s.237.315.526.788l.079.157.236.394c.053.105.105.21.158.289l.079.157c.052.132.105.263.157.42.053.158.106.342.158.499.026.079.026.158.053.236.026.158.026.289.026.42 0 .893-.499 1.47-.946 2.809-.394 1.129-.5 1.627-.526 2.231-.026.263-.026.551-.052.919a4.64 4.64 0 0 1-.263 1.155c-.105.315-.237.577-.368.84-.105.184-.184.341-.289.446-.105.158-.211.236-.263.21-.053-.026-.079-.079-.132-.184-.052-.131-.078-.315-.105-.577 0-.105-.026-.21-.026-.341v-.394c0-.21.026-.446.026-.709 0-.079.027-.184.027-.262.026-.184.078-.368.105-.552.079-.288.184-.551.289-.866.315-.787.709-1.68 1.051-2.677.079-.263.158-.499.237-.788.131-.525.21-1.05.21-1.575a7.54 7.54 0 0 0-.105-1.102 5.785 5.785 0 0 0-.316-1.024c-.131-.315-.289-.656-.499-.945a9.331 9.331 0 0 0-.657-.866l-.131-.131a4.34 4.34 0 0 0-.526-.447.53.53 0 0 1-.131-.105c-.132-.105-.29-.183-.421-.262l-.158-.079a6.342 6.342 0 0 0-1.34-.472c-.026 0-.079-.027-.105-.027-.079-.026-.132-.026-.21-.052-.29-.053-.447-.079-.447-.079s1.524 2.1 1.629 3.36c.027.341 0 .893-.052 1.523-.027.131-.027.288-.053.42-.052.367-.105.761-.158 1.155-.052.393-.131.787-.184 1.154-.026.079-.026.158-.052.21a18.15 18.15 0 0 1-.421 1.838c-.21.682-.446.997-.657 1.024-.052 0-.105 0-.157-.027-.158-.078-.316-.288-.447-.603-.026-.053-.026-.105-.053-.158a2.84 2.84 0 0 0-.079-.262c-.026-.132-.026-.237-.026-.368 0-.079 0-.184.026-.262 0-.053.027-.105.027-.158.052-.394.157-.945.289-1.89.079-.525.105-1.181.105-1.863 0-.683-.053-1.392-.158-2.1a11.43 11.43 0 0 0-.21-1.024c-.053-.158-.105-.341-.158-.499-.052-.157-.131-.315-.184-.472-.079-.158-.131-.289-.21-.447a3.57 3.57 0 0 0-.894-1.076c-1.944-1.549-2.602-.341-2.602-.341s.763 1.05 1.052 2.887c.026.237.052.447.052.657 0 .393-.079.761-.21 1.102-.079.263-.21.499-.315.735-.289.551-.631 1.103-.841 1.733-.027.078-.053.157-.106.236-.105.21-.183.289-.262.315-.027 0-.053 0-.079-.027-.053-.026-.079-.104-.132-.209 0-.027-.026-.053-.026-.079-.026-.053-.026-.131-.052-.21-.079-.289-.106-.709-.132-1.234 0-.131 0-.262-.026-.394v-1.102c0-.315.026-.604.052-.893 0-.131.027-.288.027-.42.157-1.365.42-2.362.447-2.835v-.131c0-.079-.027-.105-.053-.131 0 0-.026-.026-.053-.026h-.026c-.026 0-.026 0-.052-.027h-.027c-.026 0-.052-.026-.105-.026h-.026c-.026 0-.053-.026-.105-.026h-.027c-.026 0-.078-.026-.105-.026h-.026c-.053 0-.105-.027-.158-.027h-.026c-.053 0-.105-.026-.158-.026h-.026c-.131-.026-.263-.026-.394-.052h-.026c-.079 0-.132 0-.211-.027h-.026c-.158 0-.315-.026-.473-.026h-1.025c-.631.026-1.209.105-1.63.289-1.314.577-1.971 1.286-2.155 3.045-.184 1.759 1.656 2.861 2.182 3.544.552.682-.841.63-2.392-.788-1.577-1.417-.736-3.885-.736-3.885l-.762 1.26c-.762 1.26-.289 2.651.631 3.964.92 1.312 2.05 1.968 1.945 2.362-.079.368-1.63-.236-2.734-1.076-1.104-.866-1.156-2.809-1.156-2.809s-2.287 4.095 1.629 6.51c1.157.709 2.786 1.706 4.442 2.258 1.656.551 3.075.892 3.075 1.706.026.814-1.945.787-3.206.184-1.262-.604-1.288-2.232-1.551-2.415-.263-.184-1.078.446-3.049-.079-1.971-.525-2.654-2.783-2.654-2.783s-.211.945.052 2.967c.263 1.995.684 2.756 2.024 3.806 1.34 1.05 4.389 1.627 5.309 1.916.92.289 1.235 1.102-.394 1.391-1.63.289-2.786.105-4.258-.866s-2.313-2.467-2.313-2.467-.657 2.519-.052 4.331c.604 1.811 1.209 2.126 2.444 2.415 1.209.288 3.206-.683 3.311-.237.106.447-5.677.473-5.808.027.131.63.841 4.147 1.393 4.83.552.682 1.708 1.154 4.126 1.443 2.418.263 5.914-1.732 7.018-1.863 1.13-.132 2.024-1.995 2.707-2.862.683-.892 1.183.473.552 1.497-.605 1.023-1.971 1.286-2.628 1.68-.684.393-.868.839-1.867 1.732-.998.892-2.102 1.05-2.917 1.181s-2.681.053-3.942-.052c-1.262-.105-2.418-1.602-2.418-1.602s-.5 3.702 2.234 4.673c.709.262 1.314.735 1.918.735.605 0 7.018.446 8.989-.84 1.971-1.286 3.285-3.701 3.706-3.465.447.236.447 1.575-.946 3.045-1.42 1.47-2.865 1.312-3.969 1.444-1.13.131-2.26 1.286-3.259 1.365-.999.078-1.025-.237-2.471-.893-1.445-.656-1.393.473-1.393.473s2.34 4.436 7.885 4.094c1.367-.078 7.096-.656 8.7-4.383 1.182-2.756.341-5.329-.184-6.51-.184-.42-.342-.656-.342-.656a.805.805 0 0 0 .184.131c.263.184.578.341.894.499.157.078.341.131.525.183.105.027.237.079.342.105 1.919.525 4.337.368 6.203-.656.078-.052.184-.105.262-.157.184-.105.342-.21.5-.341 1.13-.867 1.971-1.785 2.549-2.757.105-.183.21-.393.316-.577.394-.788.604-1.601.736-2.415.052-.394.078-.814.078-1.234.132-.315.105-.63.079-.945Zm-11.879 3.203c1.077-.447 2.286-.972 2.286-.972s-.079.132-.21.342a3.59 3.59 0 0 1-.316.446c-.184.21-.394.472-.63.709a4.637 4.637 0 0 1-.894.656c-.158.105-.342.157-.473.21-1.051.341-1.682-.315-1.682-.315s.841-.63 1.919-1.076Zm-4.206-.945c.158-.053.368-.132.579-.21.289-.105.604-.237.919-.368.316-.131.605-.262.868-.42 0 0 .026.105-.027.263-.026.052-.026.105-.078.157-.053.079-.106.184-.211.289-.157.157-.42.315-.841.446-.762.236-1.209.184-1.445.079-.026 0-.053-.026-.079-.026-.105-.053-.131-.079-.131-.079s.157-.053.446-.131Zm-1.997-5.434c.131-.21.289-.394.394-.551.894-1.103 1.341-1.129 1.341-1.129s-.184 2.468-1.42 3.412a.605.605 0 0 0-.131.105c-.184.132-.421.21-.657.237a.757.757 0 0 1-.342 0c-.052-.027-.105-.053-.131-.079a.366.366 0 0 1-.053-.158c.053-.341.342-.918.999-1.837Zm-1.157.473c-.026.052-.052.078-.078.131a3.937 3.937 0 0 1-.789.866s.026-.184.079-.472c.026-.132.053-.263.079-.42l.079-.473c.052-.236.105-.472.157-.682 0-.027.027-.079.027-.105.026-.053.026-.132.052-.184.053-.158.079-.289.105-.341 0-.027.027-.027.053-.027h.026c.053 0 .132.053.21.158.027.052.079.105.106.184a.374.374 0 0 1 .052.157c0 .026.026.053.026.079.027.052.027.131.027.184 0 .131 0 .262-.027.42a1.385 1.385 0 0 1-.184.525Zm-.368-6.248c.237.289.395.656.447 1.05.027.105.027.21.027.315.026.525-.053 1.103-.263 1.575-.053.105-.079.184-.132.289-.263.446-.63.814-1.104.997-.026 0-.052 0-.078-.026-.211-.262-.106-1.916.184-3.097.026-.132.078-.263.105-.394.026-.131.079-.236.131-.341.184-.473.421-.683.683-.368Zm-2.917.709c.026-.053.026-.131.053-.158 0-.026.026-.052.026-.052.053-.079.105-.105.21-.105.053 0 .079.026.105.052l.079.079c.105.131.132.341.105.578 0 .052 0 .131-.026.183 0 .053-.026.132-.026.21a9.874 9.874 0 0 1-.237 1.024c-.052.158-.079.289-.105.394-.026.052-.026.079-.052.079-.027 0-.053-.053-.079-.132-.027-.052-.027-.105-.053-.183 0-.053-.026-.132-.026-.184 0-.026 0-.079-.026-.105-.027-.236-.053-.525-.079-.788.052-.367.079-.682.131-.892Zm-.263-1.286v.236c0 .052 0 .079-.026.131-.079.289-.237.551-.421.683 0 0-.078-.184-.131-.447a2.037 2.037 0 0 1-.052-.393v-.237c0-.026 0-.078.026-.105a.256.256 0 0 1 .263-.21c.21-.026.315.132.341.342Zm-2.181-3.255h.184s-.316.708-.473 1.417c-.105.394-.132.788-.053 1.05 0 0-.709-1.234-.368-1.942.158-.315.342-.447.526-.499.052-.026.105-.026.131-.026h.053Zm-5.782 1.942c.341-.709 2.207.709 2.497 1.208.026.026-2.839-.499-2.497-1.208Zm2.286.026c-.657-.105-2.681-1.286-2.234-2.047.473-.761 2.077-.026 2.76.892.447.604.131 1.287-.526 1.155Zm2.734 9.214c1.393-.473 1.866.394 1.655.551-1.629 1.103-3.101.604-3.101.604s.053-.709 1.446-1.155Zm-.605 5.46c-1.551-.105-2.181-.919-1.918-1.234.262-.315.578-.814 2.628-1.181 2.05-.341 2.47-.42 2.444.079 0 .735-1.603 2.441-3.154 2.336Zm3.522-2.993c-.578-.078-.289-2.31.263-2.152.552.184.867 2.31-.263 2.152Zm.368 1.943s.683-2.704 1.288-2.231c.552.498 1.104 1.68-1.288 2.231Zm6.36 2.966s1.682 2.678-.026 3.334c-.447.157.026-3.334.026-3.334Zm1.288 10.342c-.867.342-1.445.342-1.445.342s1.918-.604 2.26-1.785c0 0 .052 1.128-.815 1.443Zm1.183-2.651s.236-1.129.236-1.942c-.026-.814-.184-1.392-.184-1.392s1.104.867 1.078 1.864c-.053 1.024-1.13 1.47-1.13 1.47Zm2.497-7.271c-.105.053-.237.105-.368.158-.237.078-.552.131-.841.183-.421.053-.815.053-.946-.052-.027-.026-.027-.053-.027-.053 0-.052 0-.105.053-.157l.079-.079c.052-.052.157-.131.236-.184l.158-.078c.105-.053.21-.079.315-.132.473-.131 1.052-.131 1.446.237.026.026.026.026.026.052s-.052.079-.131.105Zm3.627-.341c-.079.026-.158.026-.263.052a7.718 7.718 0 0 1-.973.105c-.157 0-.315.027-.446.027-.132 0-.237.026-.342.026h-.131c-.211.026-.342.026-.421.026h-.053c-.052 0-.078-.026-.105-.052 0 0 0-.027-.026-.027 0-.026-.026-.026-.026-.052v-.079c0-.184.184-.525 1.13-.814 1.261-.393 2.155.604 2.155.604s-.079.053-.289.105c-.053.053-.131.053-.21.079Zm-.657-4.804s1.051-.761 1.734-2.467c.657-1.706 1.052-3.911 1.472-3.99.026 0 .053 0 .079.026.053.026.079.079.131.158a.869.869 0 0 1 .132.315c.105.236.184.551.236.918 0 .053.027.132.027.184.026.184.052.394.052.578v.21c0 .472-.052.997-.21 1.469-.053.21-.132.42-.237.604-.078.131-.131.263-.236.368-.053.052-.079.131-.132.183-1.445 1.864-3.048 1.444-3.048 1.444Zm3.811 5.276h-.184c-.105 0-.237 0-.342-.026-.053 0-.105-.026-.158-.026-.131-.026-.263-.079-.368-.105-.157-.053-.263-.105-.315-.158-.026-.026-.053-.026-.079-.052 1.63-.289 3.391-1.943 3.391-1.943s-.079.263-.211.63c-.079.184-.157.368-.289.578-.158.262-.315.525-.552.709-.105.105-.21.183-.341.236-.053.026-.132.052-.184.079a.851.851 0 0 1-.368.078Z" fill="#5F750E"/><path d="M204.821 222.385c1.866-.131 6.15 3.307 8.042 6.825 1.892 3.517 0 15.067 0 15.067h-1.945s1.209-11.629.289-13.86c-.893-2.257-7.411-7.953-6.386-8.032Z" fill="#5F750E"/><path d="M228.002 237.399c-1.866-.761-6.071-3.307-6.886-3.858-1.077-.735-.499-1.759.289-1.943.789-.184 3.89.761 7.254 1.995 3.443 1.286 5.887 1.024 8.91-2.231 2.234-2.415 1.971-6.352 1.971-6.352s-1.735 2.861-4.836 4.068c-2.917 1.129-8.515 1.05-9.646.919-1.156-.131-1.077-1.811.579-1.89 1.629-.079 13.903-5.04 14.639-5.696.736-.656.657-3.806.657-3.806s-5.256 4.383-8.174 5.696c-3.127 1.391-4.678 1.365-4.888.735-.237-.63 10.171-5.276 12.615-8.794 1.893-2.703-.63-3.596-.63-3.596s-8.884 8.137-9.488 7.192c-.579-.945 8.909-8.347 8.909-8.347s-.867-1.102-1.997-1.995c-.079-.052-.158-.131-.237-.184l-.026-.026c-.079-.052-.131-.105-.21-.157-.027-.027-.053-.027-.079-.053-.053-.026-.079-.052-.132-.079l-.157-.078a.195.195 0 0 0-.105-.053.536.536 0 0 1-.158-.105c-.026-.026-.053-.026-.079-.052l-.158-.079c-.026 0-.052-.026-.078-.026l-.158-.079c-.026 0-.053-.026-.079-.026a.476.476 0 0 0-.184-.053c-.026 0-.026 0-.053-.026-.078-.026-.131-.026-.21-.053h-.052c-.079 0-.132-.026-.211-.026H234.625c-.079 0-.157.026-.21.026h-.026c-.079.027-.158.027-.211.079h-.026a.793.793 0 0 0-.21.105s-.026 0-.026.026c-.079.027-.132.079-.211.132l-.026.026c-.052.052-.131.105-.184.184l-.026.026c-.053.079-.132.131-.184.21l-.026.026c-.053.079-.132.184-.184.263-.184.315-.473.918-.789 1.653-.052.105-.105.21-.131.342-.973 2.231-2.261 5.459-2.812 6.063-.106.131-.184.131-.211.026-.157-.446.421-2.992 1.052-5.433.026-.079.026-.158.052-.236.026-.158.079-.315.105-.447.027-.078.027-.157.053-.21.026-.157.079-.288.105-.446.026-.157.079-.289.105-.42.105-.341.184-.682.263-.997a98.83 98.83 0 0 1 .552-1.995l-.053-.053a.552.552 0 0 0-.157-.105c-.027-.026-.053-.026-.079-.026-.053-.026-.132-.026-.211-.053h-.157c-.132 0-.237 0-.368.027-.053 0-.105.026-.132.026-.131.026-.289.052-.446.105-.027 0-.079.026-.106.026-.052.026-.105.026-.131.053l-.236.078a1.878 1.878 0 0 1-.342.132c-.105.052-.21.078-.289.131-.027 0-.053.026-.079.026-.21.105-.368.21-.526.315-.079.053-.131.105-.184.131-.052.027-.079.079-.131.105-.026.027-.079.079-.105.132-.999 1.548-1.367 11.287-1.288 12.206.079.656-.473 1.181-.973 1.26-.105.026-.236 0-.341-.027-.027 0-.053-.026-.053-.026-.079-.026-.131-.079-.184-.157-.604-.814-.972-1.89-1.13-3.098l-.079-.787c-.026-.447-.052-.893-.052-1.339 0-.184 0-.368.026-.551 0-.184.026-.368.026-.552.21-3.464 1.209-6.772 1.209-6.772l-1.104.578-2.654 1.365s-1.13 9.213 1.235 14.201c.184.393.21.735.105.997 0 .026-.026.052-.052.105a.57.57 0 0 1-.184.236l-.079.079c-.053.052-.105.079-.184.131-.105.053-.237.105-.368.158-.053.026-.105.026-.158.026-.026 0-.079 0-.105.026-.263.026-.499 0-.736-.079-.026 0-.052-.026-.052-.026a1.631 1.631 0 0 1-.368-.21c-.237-.21-.473-1.365-.684-2.94 0-.105-.026-.183-.026-.288a119.394 119.394 0 0 1-.499-5.25c-.027-.237-.027-.447-.053-.683-.026-.236-.026-.446-.052-.656-.053-.866-.132-1.706-.158-2.415 0-.184-.026-.367-.026-.525 0-.079 0-.157-.027-.236 0-.158-.026-.315-.026-.446a152.73 152.73 0 0 1-.079-1.523s-.105.079-.315.21c-.079.053-.158.131-.263.184a5.271 5.271 0 0 0-.499.394 17.258 17.258 0 0 0-2.077 1.942c-.788.919-1.419 1.942-1.366 2.914.026.472.052.997.078 1.601 0 .105 0 .184.027.289.131 2.467.446 5.617 2.26 8.032.42.577.236 1.129-.158 1.417-.052.027-.079.053-.131.079-.105.053-.184.105-.289.131-.053 0-.105.027-.158.027-.158 0-.315-.027-.473-.105a6.43 6.43 0 0 1-1.262-.893 7.252 7.252 0 0 1-1.708-2.388 3.243 3.243 0 0 1-.184-.447c-.473-1.207-.71-2.467-.815-3.622-.026-.131-.026-.289-.026-.42-.131-1.785.053-3.15.053-3.15s-3.838 5.591-3.969 6.116c-.105.499.053 1.05.368 1.601.105.184.236.368.394.551l.473.552c1.893 2.073 5.204 4.2 4.941 5.328-.052.21-.131.394-.236.525-.079.079-.158.158-.237.21l-.157.079c-.053.026-.132.026-.184.053-.027 0-.079 0-.106.026-.131.026-.262 0-.42 0-.079 0-.158-.026-.237-.026-.078-.027-.157-.027-.236-.053a6.286 6.286 0 0 1-.789-.236c-.236-.079-.499-.21-.788-.341-.158-.079-.342-.158-.526-.263-.368-.184-.709-.394-1.025-.577a8.338 8.338 0 0 1-1.051-.762c-.053-.052-.132-.105-.184-.157-1.314-1.103-1.866-2.074-1.866-2.074s-.605 1.523-.657 3.176v.447c0 .157.026.288.026.446.026.367.105.735.237 1.076.078.21.184.394.315.578.289.367.683.708 1.104.997.289.21.604.394.894.551.604.342 1.156.604 1.524.84.052.027.079.053.131.079.368.263.368.446-.368.551-.079 0-.157.026-.21.026-.236.027-.473 0-.683-.026-.053 0-.105-.026-.158-.026-.21-.053-.394-.105-.552-.21-1.025-.525-1.288-1.654-1.288-1.654s.237 2.468 1.787 3.78c.184.158.368.289.579.394.184.105.42.184.63.262.079.027.184.053.263.079.053 0 .105.026.158.026.158.027.342.027.499.027h.079c.184 0 .342-.027.526-.053.079-.026.184-.026.263-.052.263-.053.525-.158.788-.263.237-.105.447-.21.657-.315 1.235-.709 2.261-1.811 2.76-2.415.079-.078.131-.157.184-.21.105-.131.158-.21.184-.236-1.866 2.494-2.129 5.119-.421 7.481 1.577 2.205 4.521.263 4.521.263s.342.525 1.866.551c1.419.026 2.996-1.969 2.996-1.969s-1.104.42-2.681-.367c-1.761-.893-2.891-3.177-3.154-4.305-.289-1.129.132-2.494 1.052-1.916.92.577 3.469 5.013 6.255 6.168 2.786 1.155 6.597-3.36 6.597-3.36s-2.208-.21-4.074-.945Zm-11.985-5.827c.053 0 .079.026.132.026.368.105.578.315.368.735-.079.131-.158.263-.263.341l-.026.027c-.053.052-.106.078-.158.105-.079.052-.158.078-.237.105-.026 0-.052.026-.079.026-.394.079-.788 0-.998-.21-.447-.394-.473-1.024 0-1.208.052-.026.105-.026.184-.052h.578c.158.052.342.052.499.105Zm2.077-1.129c-.079-.026-.184-.052-.263-.079-.684-.262-1.288-.866-.973-1.68.053-.131.105-.236.184-.341.132-.157.289-.289.473-.341.079-.026.184-.079.29-.079.131-.026.236-.026.367-.026.079 0 .158.026.237.026.079.026.158.026.237.079.184.079.367.157.499.315l.131.131c.263.315.395.656.368.945 0 .079-.026.158-.052.263-.027.078-.053.157-.105.236-.106.184-.29.367-.5.499l-.157.078a1.524 1.524 0 0 1-.368.053c-.079-.026-.237-.026-.368-.079Zm-.526 11.996s-1.262 0-2.024-1.129c-.762-1.102-.315-2.677-.315-2.677s1.367 2.94 2.339 3.806Z" fill="#7EA21A"/><path d="M231.339 255.696h-34.982l-7.648-14.594h47.729l-5.099 14.594Z" fill="#3F2F2D"/><path d="M152.334 238.503s-2.523-4.988-3.68-9.03c-1.156-4.043-3.732-10.054-5.44-14.254-1.709-4.2-2.996-7.612-3.943-8.583-.946-.998-1.471-.578-1.471-.578s.814-.63 1.892.762c.946 1.233 2.76 5.722 3.679 8.137.92 2.441 3.89 9.607 4.521 11.418.631 1.812 1.367 4.279 2.181 6.116.815 1.838 2.655 5.802 2.655 5.802l-.394.21Z" fill="#7C5349"/><path d="M138.141 205.349s.132.42.237.578c.105.158.079-.342-.237-.578ZM137.931 206.451s.605-.157.578-.236c-.026-.079-.078-.184-.078-.184s-.29.341-.5.42ZM138.483 205.217s.106.342.106.5v.262s.184-.026.157-.236c-.026-.21-.263-.526-.263-.526ZM138.167 206.53s.762.315.999.263c.236-.053.236-.158.236-.158s-.184.026-.315-.079c-.184-.079-.92-.026-.92-.026ZM138.929 205.139s-.026.761.027.84c.026.078.105.262.105.262s.105 0 .105-.21-.237-.892-.237-.892ZM138.063 206.765s.788.631 1.156.631c.342.026.526-.237.526-.237l-.026-.052s-.158.105-.316.026c-.184-.052-1.34-.368-1.34-.368ZM139.428 205.192s.132.892.132 1.129a.618.618 0 0 1-.105.367s.183.079.262-.157c.132-.289-.289-1.339-.289-1.339ZM140.27 205.795s-.184 1.417-.131 1.549c.052.131 0 .315 0 .315l.026.078s.184-.026.263-.157c.105-.131-.158-1.785-.158-1.785ZM140.085 207.737s-.131.052-.21-.079c-.105-.131-1.84-.237-1.84-.237s1.446.552 1.709.579c.236 0 .262-.158.262-.158l.132-.053-.053-.052ZM137.984 208.026s2.287.578 2.392.709a.418.418 0 0 1 .105.236l.237-.052-.027.052-.236.053s.158.157-.131.157c-.316.027-2.261-.918-2.34-1.155ZM141.19 206.347s-.499 1.916-.42 2.152c.105.236-.053.341-.053.341l.027.053s.078-.184.184-.131c.131.052.262.052.341-.237.079-.315.053-1.89-.079-2.178ZM138.246 208.708s1.261 1.05 1.866 1.339c.604.288.867.078.867.078h.131v-.131s-.157-.026-.262-.157c-.079-.105-2.077-.866-2.602-1.129ZM141.899 207.239s-.604 2.178-.552 2.362c.027.21.105.368.105.368l-.157.105.026.078.158-.105s.105.263.262.053c.184-.21.526-2.389.158-2.861ZM138.615 210.258s2.523.815 2.602.657c.079-.131.21-.184.21-.184l-.026-.078s-.158-.027-.315-.184c-.158-.158-2.103-.5-2.471-.211ZM142.688 208.209s-.815 1.89-.683 2.415c.131.525-.158.761-.158.761l.026.079s.079-.263.316-.289c.236-.026.236-.052.578-1.207.341-1.129-.079-1.759-.079-1.759ZM138.876 210.887s.421.63 1.472.813c1.051.184 1.235.184 1.314.079.053-.079.21-.079.21-.079l-.026-.078s-.052.078-.42-.184c-.395-.263-2.55-.551-2.55-.551ZM139.008 212.017s.052.341.815.552c.762.21 1.261.21 1.655.21.395 0 .473-.158.447-.184-.026-.053.289-.026.289-.026l-.052-.132-.237.053s.079-.132-.341-.237c-.421-.079-.973.132-1.761 0-.789-.131-.815-.236-.815-.236ZM143.475 209.128s-.052.657-.368 1.313c-.315.656-.919 1.076-.762 1.391l.132.315-.184.236.052.132.184-.289s.079.394.395-.105c.315-.499.525-.919.735-1.838.211-.918-.184-1.155-.184-1.155ZM139.324 213.224s.684.605 1.63.421c.946-.184 1.314.026 1.366-.106.053-.131.027-.157.027-.157l.21.079-.026-.079s-.289-.105-.342-.237c-.053-.131-1.078.237-1.708.184-.657-.052-1.025-.052-1.157-.105ZM144.187 210.205c-.053.026-.736 1.706-.973 2.179-.236.472-.367.63-.236.787.131.158-.184.342-.184.342v.105l.342-.237s0 .263.368-.052.604-.63.814-1.418c.158-.761-.131-1.706-.131-1.706Z" fill="#7C5349"/><path d="M145.08 211.282s-.394 1.286-.657 1.916c-.262.656-.446.997-.657.971l-.21-.026-.473.394-.079-.184s.447-.236.394-.315c-.026-.079-.394-.263.184-1.05.631-.761 1.131-1.496 1.498-1.706Z" fill="#7C5349"/><path d="M139.613 213.906s.605.657 1.682.736c1.078.079 1.524-.052 1.524-.105-.026-.053.316.026.316.026l-.079-.079s-.21-.078-.368-.315c-.158-.263-.815-.079-1.761-.158-.999-.078-1.314-.105-1.314-.105ZM139.77 214.616s.972.708 2.208.945c1.235.236 1.077-.184 1.077-.184l.263.052-.079-.183-.236.052s.289-.341-.342-.446c-.604-.131-2.392 0-2.891-.236ZM145.632 212.488s-1.814 1.601-1.893 2.074c-.105.472-.052.708-.052.708l-.237.263.053.131.236-.263s.158.368.526-.157.578-1.417.92-1.864c.342-.472.447-.892.447-.892ZM140.059 216.111s1.629.158 2.26.289c.631.105 1.078.237 1.209.079.132-.158.289-.131.289-.131l-.052-.132s-.053.079-.421-.184-3.18-.341-3.285.079Z" fill="#7C5349"/><path d="M146.183 213.434s-1.078 1.942-1.367 2.388c-.289.447-.788.447-.788.447l-.158.21-.053.078s.158-.341.132-.472c-.026-.158-.394 0 .341-.84.684-.84 1.393-1.838 1.893-1.811ZM140.428 216.531s.552.735 1.656.84c1.13.105 1.577.131 1.604.026.052-.131 0-.21 0-.21l.367.053-.052-.131s-.263.052-.315-.079c-.053-.131-.474.026-1.735-.236-1.262-.263-1.525-.263-1.525-.263ZM146.526 214.273s-1.341.998-1.709 1.628c-.368.63-.289 1.129-.289 1.129l-.315.288.052.132s.289-.342.342-.237c.026.079.131.315.578-.446.473-.787 1.078-2.31 1.341-2.494ZM146.893 215.14s-.736 1.601-1.156 2.231c-.394.657-.815.709-.815.709l-.342.368-.026-.079.342-.368s-.21-.078 0-.472c.21-.394 1.498-2.284 1.997-2.389Z" fill="#7C5349"/><path d="m144.345 217.871-.368-.052s-.079-.447-.631-.474c-.552-.026-1.577.395-2.102.421-.526 0-.973-.131-.973-.131s.631.578 1.341.551c.709-.026 1.419-.105 1.866-.078.447.026.604-.079.604-.079l.342.026-.079-.184ZM144.686 218.631l-.315-.079s-.263-.368-1.209-.184c-.947.184-1.078.29-1.709.237-.631-.053-.736-.131-.736-.131s.894.473 1.945.578c1.051.105 1.761-.316 1.761-.316l.316.027-.053-.132ZM147.103 215.954s-.342 1.575-.763 2.336c-.42.761-.972.945-.972.945l-.289.341.026-.157.132-.263s-.184-.236.052-.709c.21-.472 1.446-2.441 1.814-2.493Z" fill="#7C5349"/><path d="M140.77 219.367s1.288.736 2.287.683c.999-.052 2.024-.473 2.024-.473l.026-.105s-.184.158-.289 0c-.105-.158-.5-.158-1.814-.131-1.314.026-2.234.026-2.234.026ZM148.05 217.162s-.841 1.575-1.445 2.257c-.605.683-.92.709-.92.709l-.184.394-.053-.132.158-.341s-.421-.315.158-.919c.578-.603 2.286-1.968 2.286-1.968ZM141.269 220.599s.526.683 1.341.447c.814-.237 1.55-.447 2.102-.42.552.026.868.078.868.078l-.106-.131-.315-.026s.158-.446-.552-.499c-.709-.052-1.603.683-2.208.656-.552-.026-1.13-.105-1.13-.105ZM148.601 217.896s-.342.893-1.13 1.812c-.789.918-.947 1.575-1.131 1.601-.184.026-.446.184-.446.184l-.053-.132s.158-.183.184-.341c.026-.157-.342-.236.079-.735.42-.499 1.682-1.654 1.997-1.969.316-.315.5-.42.5-.42ZM145.396 221.045c-.106-.262-.841-.131-1.682.289-.842.42-1.183.656-1.551.604-.368-.053-.684-.132-.684-.132s.263.63 1.157.42c.894-.21 1.314-.446 1.866-.525.552-.078.894.053.999-.052.105-.105.026-.289.026-.289l.342.131-.053-.131s-.315-.079-.42-.315ZM149.023 218.945s.026.84-.71 1.523c-.736.682-1.025.814-1.13 1.233-.105.42-.762 1.155-.762 1.155l-.027-.157.211-.315s-.5.052-.132-.683c.368-.734.552-1.023 1.341-1.522.788-.525 1.182-1.076 1.209-1.234ZM146.262 222.436l-.473-.105s.105-.21-.526-.315c-.63-.105-1.182.289-2.023.578-.841.315-1.525.21-1.525.21s.605.604 1.551.42 1.63-.42 2.076-.394c.447.026.631-.367.631-.367l.394.105-.105-.132ZM142.085 224.247s1.13.473 2.286.263c1.157-.21 1.945-.236 2.077-.394.131-.157.131-.262.131-.262l.263.052-.053-.131h-.236s.157-.446-.605-.394c-.762.053-1.498.84-2.523.84-1.025 0-1.34.026-1.34.026Z" fill="#7C5349"/><path d="M149.417 219.839s.158.945-.473 1.523c-.63.577-.946.866-1.393 1.444-.446.551-.814.813-.814.813l-.053-.131s.237-.052.237-.157c0-.105-.342-.604-.079-.972.263-.367.92-1.076 1.629-1.548.71-.447.946-.972.946-.972ZM149.81 221.124c-.079.026-.447 1.365-1.13 2.179-.683.813-1.261 1.023-1.261 1.023l-.184.447-.053-.132.131-.367s-.289-.368-.026-.788c.263-.42 1.183-1.338 1.735-1.732l.788-.63ZM147.287 225.09l-.473-.184s0-.315-.552-.368c-.552-.026-.894.263-1.997.473-1.078.184-1.919-.053-1.919-.053s.578.709 2.313.63c1.708-.078 2.155-.525 2.155-.525l.473.105v-.078ZM147.76 226.19s-.394-.21-.473-.21h-.237s.105-.315-.157-.367c-.263-.053-.973.236-2.103.551-1.13.315-2.155.21-2.155.21s.867.551 2.286.367c1.446-.183 2.103-.183 2.182-.393.079-.184.026-.289.026-.289s.499.052.631.21c.131.157 0-.079 0-.079Z" fill="#7C5349"/><path d="M150.232 222.043s-1.63 1.549-1.945 1.838c-.315.289-.736.367-.71.84 0 .472.106.709.106.709l-.158.21.026.157.184-.236s-.052.341.552-.289c.605-.63.867-1.05 1.393-1.864.552-.813.683-1.207.552-1.365Z" fill="#7C5349"/><path d="M150.863 222.91s-1.551.918-2.103 1.47c-.552.551-.841 1.575-.841 1.837 0 .263-.026.394-.026.394l-.027.157s-.052.237.447-.288c.5-.525.736-1.26 1.314-1.995.578-.709 1.236-1.575 1.236-1.575ZM148.049 227.214s-.368-.315-.526-.315c-.131 0-.289.027-.289.027s0-.263-.447-.237c-.42.027-1.104.394-2.023.578-.947.184-1.919-.053-1.919-.053s1.498.709 2.707.552c1.209-.132 1.656-.552 1.735-.63.052-.079.184-.132.315-.079.132.052.473.21.473.21l-.026-.053Z" fill="#7C5349"/><path d="M151.23 223.698s-.499.735-1.183 1.023c-.657.289-1.235.525-1.472.893-.236.367-.184 1.732-.184 1.732l-.21.184.026.079.211-.184s.21.289.578-.236c.368-.525.263-.893 1.156-1.549.894-.656 1.183-1.549 1.078-1.942ZM148.312 227.976s-.262-.263-.367-.315c-.106-.053-.263-.525-1.262-.315-.973.21-1.446.709-2.155.997-.71.289-1.078.289-1.078.289s.342.236 1.735-.157c1.393-.394 1.708-.552 2.234-.578.526 0 .447-.184.447-.184l.473.342-.027-.079ZM148.576 228.816l-.211-.026s0-.473-.525-.525c-.5-.053-.578.446-2.182.813-1.603.342-2.365.368-2.365.368s.894.63 2.549.315c1.656-.315 2.471-.814 2.523-.84l.211-.105Z" fill="#7C5349"/><path d="m148.838 229.76-.211-.079s-.157-.368-.42-.315c-.263.052-.684.551-2.366.63-1.682.052-2.102-.131-2.102-.131s1.077.813 2.865.708c1.787-.105 2.05-.761 2.05-.761l.21.026-.026-.078ZM151.861 224.825s-.368.945-1.13 1.496c-.763.525-1.761 1.26-1.84 1.838-.105.577.131.892.131.892l-.289.342.026.078.29-.393s.052.236.63-.315c.579-.552 1.13-1.365 1.735-2.127.604-.708.578-1.706.447-1.811Z" fill="#7C5349"/><path d="M152.729 226.216s.105.342-.289.499c-.368.158-2.024.63-2.471 1.208-.447.551-.814 1.732-.814 1.732l-.211.315-.026.052.315-.288s.158.262.815-.394c.657-.656.421-.814 1.393-1.286.999-.473 1.945-1.47 1.288-1.838ZM153.253 227.688s-1.787.603-2.497 1.259c-.71.657-1.367 1.05-1.34 1.313 0 .262.078.394.078.394l-.236.105.052.131.237-.105s-.053.341.368.052c.42-.288.788-1.023 1.656-1.601.893-.551 1.708-1.286 1.682-1.548ZM149.101 230.68l-.158-.027s0-.21-.21-.183c-.236.052-.368.367-2.155.892s-2.576.551-2.576.551.631.578 2.392.105c1.735-.472 2.05-.656 2.313-.708.263-.053.341-.132.368-.263.052-.131-.053-.236-.053-.236l.132-.053-.053-.078ZM154.489 229.209s-1.393-.315-2.654.42c-1.236.735-1.972 1.313-1.972 1.575 0 .263.053.446.053.446l-.342.132.053.131.341-.131s-.078.262.421.078c.526-.157 1.025-.577 1.866-1.365.841-.761 1.761-1.365 2.234-1.286ZM149.469 231.625l-.21.079s-.211-.289-.5-.158c-.289.132-1.892 1.155-3.048 1.287-1.157.105-1.499-.079-1.499-.079s.71.656 1.788.525c1.077-.131 3.127-.893 3.285-1.076.158-.184.079-.394.079-.394l.157-.105-.052-.079ZM149.968 232.807l-.21.079s-.263-.368-.42-.315c-.158.078-1.42.918-2.681 1.338-1.288.42-1.893.368-1.893.368s0 .577 1.551.236c1.551-.341 3.259-.945 3.443-1.181.184-.236 0-.368 0-.368l.263-.052-.053-.105ZM154.726 230.495s-2.024.157-3.023.892c-.999.735-1.393 1.076-1.367 1.26.027.21-.157.341-.157.341l-.053.132s.263-.263.342-.132c.052.132.289.21.893-.052.631-.263 1.262-.945 2.235-1.523.972-.577 1.13-.918 1.13-.918Z" fill="#7C5349"/><path d="M154.279 239.079s.526-8.347-.368-14.568-.973-16.039-1.13-22.785c-.158-6.746-.473-12.232.315-14.148.789-1.916 1.866-1.68 1.866-1.68s-1.656-.394-2.365 2.205c-.631 2.257-.394 9.476-.21 13.361.183 3.885.42 15.487.657 18.348.262 2.861.735 6.667.709 9.686-.026 3.019-.184 9.555-.184 9.555l.71.026Z" fill="#8A9995"/><path d="M153.937 185.138s.079.656 0 .945c-.079.288-.289-.42 0-.945ZM154.988 186.529s-1.025.158-1.025 0v-.289s.657.289 1.025.289ZM153.359 185.138s.079.525.158.735a2 2 0 0 0 .184.367s-.315.053-.394-.236c-.079-.289.052-.866.052-.866ZM154.699 186.739s-.946.892-1.314.971c-.368.079-.447-.079-.447-.079s.289-.079.447-.288c.157-.21 1.314-.604 1.314-.604ZM152.624 185.295s.525 1.024.525 1.181v.446s-.158.079-.289-.21c-.131-.288-.236-1.417-.236-1.417ZM154.988 187.027s-.789 1.339-1.314 1.549c-.5.236-.946 0-.946 0v-.079s.289.079.525-.157c.21-.184 1.735-1.313 1.735-1.313ZM151.887 185.69s.394 1.312.525 1.601c.158.289.368.446.368.446s-.21.21-.525-.078c-.263-.289-.368-1.969-.368-1.969ZM151.02 187.002s1.209 1.811 1.209 2.047c0 .21.237.447.237.447v.157s-.289.079-.526-.079c-.236-.157-.92-2.572-.92-2.572ZM152.596 189.573s.21 0 .289-.236c.079-.21 2.628-1.418 2.628-1.418s-1.813 1.628-2.181 1.785c-.368.158-.526-.078-.526-.078h-.21v-.053ZM155.988 188.707s-3.076 2.179-3.128 2.389a.485.485 0 0 0 0 .367l-.368.079.079.079.368-.079s-.132.289.289.131c.42-.157 2.76-2.598 2.76-2.966ZM150.02 188.34s2.024 2.336 2.024 2.704c0 .367.289.446.289.446v.079s-.21-.21-.368-.079c-.158.157-.368.236-.657-.131-.315-.394-1.288-2.573-1.288-3.019ZM155.987 189.809s-1.236 2.231-1.945 2.966c-.71.735-1.236.604-1.236.604l-.21.105-.079-.157s.211-.158.289-.368c.053-.236 2.602-2.467 3.181-3.15ZM149.522 189.969s2.313 2.625 2.392 2.913c.079.289.079.578.079.578l.289.079v.157l-.289-.079s0 .447-.368.237c-.368-.237-2.313-2.993-2.103-3.885ZM156.46 192.146s-3.286 2.599-3.496 2.468c-.21-.131-.447-.131-.447-.131v-.158s.211-.158.368-.446c.132-.289 2.839-1.943 3.575-1.733ZM148.997 191.78s2.444 2.1 2.602 2.913c.158.814.736.945.736.945v.158s-.289-.289-.657-.21c-.368.079-.368.079-1.63-1.313-1.261-1.391-1.051-2.493-1.051-2.493ZM156.461 193.196s-.21 1.103-1.656 1.995c-1.472.893-1.761.971-1.892.893-.158-.079-.368 0-.368 0v-.158s.158.079.499-.525c.342-.603 3.417-2.205 3.417-2.205ZM157.013 194.797s.158.525-.867 1.26a10.444 10.444 0 0 1-2.34 1.287c-.578.236-.814.078-.814 0 0-.079-.447.157-.447.157v-.21l.368-.079s-.21-.131.368-.525c.578-.367 1.551-.393 2.628-1.05 1.104-.682 1.104-.84 1.104-.84ZM148.392 193.51s.526.866 1.419 1.601c.894.735 2.077.919 2.077 1.444v.525l.447.21v.21l-.447-.289s.157.578-.657.079c-.815-.499-1.42-.945-2.313-2.1-.894-1.155-.526-1.68-.526-1.68ZM157.328 196.634s-.657 1.26-2.182 1.575c-1.55.315-1.971.84-2.129.683-.157-.158-.157-.21-.157-.21l-.289.236v-.158s.368-.288.368-.524c0-.21 1.76-.315 2.707-.762.946-.446 1.524-.708 1.682-.84ZM148.05 195.428c.078 0 2.234 1.89 2.891 2.388.657.499.972.657.893.945-.079.289.526.368.526.368l.079.157-.657-.131s.157.368-.579.158c-.735-.21-1.34-.499-2.155-1.444-.841-.971-.998-2.441-.998-2.441Z" fill="#8A9995"/><path d="M147.394 197.422s1.419 1.522 2.234 2.257c.814.735 1.34 1.077 1.629.945.289-.131.289-.157.289-.157l.973.289v-.289s-.815-.053-.815-.21c0-.158.447-.604-.973-1.313-1.393-.761-2.654-1.47-3.337-1.522Z" fill="#8A9995"/><path d="M157.327 197.738s-.499 1.26-2.024 1.995c-1.524.735-2.339.84-2.339.761 0-.078-.447.237-.447.237l.079-.158s.289-.236.368-.656c.079-.446 1.157-.604 2.55-1.286a324.42 324.42 0 0 0 1.813-.893ZM157.565 198.84s-.999 1.549-2.681 2.599c-1.682 1.05-1.761.394-1.761.394l-.368.236v-.289l.368-.078s-.657-.289.21-.814c.868-.551 3.654-1.47 4.232-2.048ZM147.366 199.39s3.758 1.129 4.205 1.706c.447.578.526.945.526.945l.525.21v.21l-.525-.21s0 .578-.894.079c-.893-.499-1.787-1.601-2.602-2.021-.788-.42-1.235-.919-1.235-.919ZM158.117 201.019s-2.34 1.207-3.207 1.732c-.867.525-1.472.971-1.761.84-.289-.131-.525 0-.525 0v-.21s.157.079.499-.525c.368-.604 4.547-2.336 4.994-1.837Z" fill="#8A9995"/><path d="M147.156 201.017s2.891 2.022 3.627 2.442c.736.42 1.472.131 1.472.131l.368.21.157.079s-.447-.368-.525-.578c-.079-.21.578-.236-1.052-.945-1.603-.709-3.311-1.654-4.047-1.339ZM157.827 201.832s-.342 1.339-1.971 2.152c-1.63.814-2.261 1.129-2.418.972-.158-.158-.158-.289-.158-.289l-.499.289v-.21s.446-.079.446-.289c0-.21.736-.236 2.497-1.365 1.735-1.102 2.103-1.26 2.103-1.26ZM147.183 202.41s2.655.551 3.627 1.207c.973.656 1.183 1.391 1.183 1.391l.657.21v.21s-.657-.288-.657-.131c0 .158 0 .525-1.183-.289-1.182-.787-3.127-2.546-3.627-2.598ZM147.183 203.8s2.156 1.732 3.181 2.388c1.025.657 1.708.499 1.708.499l.736.289v-.158l-.736-.288s.289-.237-.289-.657c-.605-.42-3.785-2.231-4.6-2.073Z" fill="#8A9995"/><path d="m152.808 206.006.5-.289s-.158-.656.657-1.024c.815-.367 2.654-.394 3.443-.709.815-.315 1.393-.761 1.393-.761s-.578 1.181-1.682 1.575c-1.104.368-2.208.683-2.865.998-.657.288-.946.236-.946.236l-.5.236v-.262ZM152.808 207.266l.447-.288s.132-.657 1.682-.972c1.551-.315 1.84-.236 2.707-.682.868-.446 1.025-.604 1.025-.604s-1.025 1.181-2.549 1.943c-1.524.761-2.865.63-2.865.63l-.447.236v-.263ZM147.419 205.06s1.577 1.969 2.681 2.757c1.104.787 2.076.708 2.076.708l.657.289-.158-.21-.368-.289s.132-.446-.525-.945c-.657-.525-3.759-2.467-4.363-2.31ZM159.194 205.926s-1.445 1.785-2.996 2.31c-1.551.525-3.364.551-3.364.551l-.079-.131s.368.105.447-.184c.079-.288.657-.525 2.628-1.286 1.971-.735 3.364-1.26 3.364-1.26ZM146.788 207.266s2.313 1.654 3.627 2.231c1.314.578 1.84.42 1.84.42l.526.447v-.21l-.447-.368s.42-.656-.815-1.155c-1.261-.525-4.731-1.365-4.731-1.365ZM159.221 207.922s-.341 1.26-1.734 1.418c-1.393.157-2.655.315-3.443.709-.789.393-1.236.603-1.236.603l.079-.21.447-.236s-.526-.499.499-1.024 2.865-.026 3.759-.42c.841-.393 1.629-.84 1.629-.84ZM146.447 208.579s1.103 1.023 2.891 1.811c1.787.787 2.444 1.575 2.733 1.496.289-.079.815 0 .815 0v-.21s-.368-.131-.526-.367c-.158-.237.368-.525-.604-.945-.973-.42-3.627-1.287-4.284-1.497-.658-.21-1.025-.288-1.025-.288Z" fill="#8A9995"/><path d="M153.307 210.994c0-.42 1.156-.682 2.707-.63 1.551.053 2.208.184 2.707-.105.499-.289.946-.604.946-.604s0 1.024-1.445 1.26c-1.472.236-2.287.184-3.154.394-.868.236-1.314.604-1.551.525-.21-.079-.236-.368-.236-.368l-.447.368v-.21c.052.052.473-.263.473-.63ZM146.446 210.286s.526 1.181 2.077 1.653c1.55.499 2.076.499 2.523.998.447.499 1.918 1.102 1.918 1.102l-.052-.262-.526-.289s.815-.236-.236-1.024c-1.052-.787-1.472-1.076-3.023-1.286-1.551-.21-2.523-.682-2.681-.892ZM152.885 213.434l.657-.446s-.289-.21.578-.735 1.971-.315 3.443-.42c1.472-.105 2.418-.63 2.418-.63s-.499 1.181-2.05 1.496c-1.551.315-2.707.394-3.364.709-.657.289-1.183-.131-1.183-.131l-.499.367v-.21ZM160.402 213.407s-1.393 1.339-3.286 1.733c-1.892.393-3.075.84-3.364.708-.289-.131-.368-.288-.368-.288l-.368.236v-.21l.368-.158s-.525-.498.657-.892c1.183-.394 2.786.262 4.337-.341l2.024-.788ZM146.472 211.755s.394 1.392 1.708 1.812c1.341.42 1.998.63 3.023 1.128 1.025.499 1.761.63 1.761.63v-.21s-.368.079-.447-.078c-.079-.158.131-1.024-.526-1.392-.657-.367-2.076-.918-3.469-1.128-1.367-.184-2.05-.762-2.05-.762ZM146.71 213.724c.157 0 1.55 1.601 3.127 2.31 1.577.708 2.576.63 2.576.63l.605.498v-.21l-.447-.446s.21-.656-.447-1.102c-.657-.42-2.655-1.155-3.758-1.339a31.442 31.442 0 0 1-1.656-.341ZM153.097 217.687l.578-.525s-.236-.446.579-.813c.814-.368 1.55-.158 3.311-.552 1.761-.393 2.865-1.207 2.865-1.207s-.421 1.339-3.049 2.231c-2.628.893-3.6.551-3.6.551l-.658.447-.026-.132ZM153.122 219.446s.447-.525.579-.604c.157-.079.367-.157.367-.157s-.367-.368 0-.578c.368-.236 1.604-.236 3.522-.472 1.919-.237 3.364-.998 3.364-.998s-.946 1.26-3.206 1.864c-2.26.604-3.285.997-3.522.787-.236-.21-.236-.367-.236-.367s-.736.367-.789.682c-.052.315-.079-.157-.079-.157Z" fill="#8A9995"/><path d="M146.657 215.271s3.469 1.129 4.126 1.339c.657.21 1.314.053 1.63.709.289.656.315 1.024.315 1.024l.368.21.079.21-.447-.21s.289.446-1.025-.053c-1.314-.499-1.998-.919-3.338-1.732-1.34-.814-1.761-1.208-1.708-1.497Z" fill="#8A9995"/><path d="M146.315 216.82s2.943.341 4.126.761c1.183.42 2.313 1.654 2.444 2.021.158.368.289.499.289.499l.158.21s.237.289-.893-.131c-1.104-.42-1.919-1.286-3.26-1.943-1.314-.63-2.864-1.417-2.864-1.417ZM153.359 221.073s.368-.656.579-.735c.21-.079.446-.158.446-.158s-.157-.367.5-.603c.657-.237 1.918-.105 3.443-.42 1.55-.315 2.864-1.208 2.864-1.208s-1.813 1.864-3.732 2.389c-1.892.525-2.864.262-3.022.184a.447.447 0 0 0-.526.078c-.157.158-.578.604-.578.604l.026-.131Z" fill="#8A9995"/><path d="M146.264 218.132s1.261.709 2.444.709c1.183-.027 2.208-.027 2.786.341.604.367 1.419 2.257 1.419 2.257l.447.132v.157l-.447-.131s-.131.525-1.025 0c-.893-.499-.972-1.103-2.733-1.444-1.761-.341-2.812-1.444-2.891-2.021ZM153.437 222.227s.21-.525.368-.656c.157-.132.052-.893 1.682-1.208 1.603-.315 2.654.105 3.89.105 1.235 0 1.839-.236 1.839-.236s-.368.525-2.707.84c-2.339.315-2.943.262-3.732.551-.815.315-.815 0-.815 0l-.499.735-.026-.131ZM153.596 223.567l.289-.158s-.289-.656.421-1.023c.709-.368 1.183.288 3.811-.184 2.628-.473 3.811-.919 3.811-.919s-.946 1.418-3.654 1.943c-2.707.551-4.257.341-4.336.341-.026-.026-.342 0-.342 0Z" fill="#8A9995"/><path d="m153.859 225.011.289-.236s0-.577.421-.656c.447-.079 1.393.341 3.969-.551 2.575-.893 3.075-1.444 3.075-1.444s-1.078 1.785-3.864 2.704c-2.786.918-3.601.183-3.601.183l-.289.158v-.158ZM146.052 220.049s1.183 1.077 2.655 1.365c1.471.289 3.469.683 3.994 1.418.526.735.395 1.312.395 1.312l.657.289v.157l-.657-.367s.079.367-1.183-.053-2.576-1.207-3.995-1.863c-1.393-.656-1.997-2.048-1.866-2.258Z" fill="#8A9995"/><path d="M145.659 222.464s.079.525.736.499c.657-.027 3.443-.342 4.494.157 1.025.499 2.365 1.89 2.365 1.89l.526.289.079.079-.657-.21s-.079.446-1.472-.053-1.183-.866-2.944-.919c-1.761-.052-3.863-.84-3.127-1.732ZM145.816 224.826s3.075-.262 4.573.237c1.472.498 2.733.63 2.891.997.158.368.158.578.158.578h.446v.21h-.446s.289.446-.5.288c-.815-.131-1.84-.945-3.548-1.207-1.708-.236-3.417-.735-3.574-1.103ZM154.015 226.403l.211-.158s-.158-.289.21-.367c.368-.079.815.288 3.811-.053 2.996-.341 4.258-.787 4.258-.787s-.579 1.181-3.522 1.575c-2.944.393-3.522.341-3.969.42-.447.078-.578 0-.736-.132-.158-.131-.079-.367-.079-.367h-.21l.026-.131ZM144.975 227.636s1.892-1.26 4.258-.997c2.365.262 3.837.603 3.995.971.157.367.236.656.236.656h.578v.21h-.578s.289.289-.578.367c-.867.079-1.919-.21-3.68-.761-1.813-.551-3.574-.84-4.231-.446ZM154.095 227.95h.368s.132-.525.657-.525c.526 0 3.601.472 5.441-.079 1.839-.551 2.181-.971 2.181-.971s-.657 1.339-2.339 1.785c-1.682.472-5.283.656-5.651.499-.368-.132-.368-.499-.368-.499l-.289-.079v-.131ZM154.121 229.867h.368s.131-.656.42-.656 2.733.42 4.941.236c2.208-.183 3.075-.63 3.075-.63s.368.814-2.181 1.287c-2.576.472-5.52.656-5.94.446-.447-.21-.237-.499-.237-.499l-.446.079v-.263ZM145.448 229.526s3.154-.998 5.152-.578c1.997.42 2.812.63 2.891.919.079.289.446.368.446.368l.158.157s-.578-.21-.578 0-.289.446-1.393.446c-1.104.027-2.497-.551-4.337-.761-1.892-.184-2.339-.551-2.339-.551Z" fill="#8A9995"/><path d="M155.093 242.598s1.813-6.667 3.89-11.392c2.102-4.751 4.625-12.442 6.413-17.718 1.787-5.276 3.364-9.529 3.39-11.182.026-1.654-.657-1.654-.657-1.654s1.051 0 .815 2.152c-.211 1.89-2.156 7.534-3.259 10.553-1.104 3.018-4.153 12.101-5.02 14.305-.868 2.205-2.129 5.119-2.865 7.482-.736 2.362-2.313 7.533-2.313 7.533l-.394-.079Z" fill="#7EA21A"/><path d="M168.919 200.231s-.21.5-.236.763c-.027.262.262-.289.236-.763ZM167.972 201.15s.552.315.604.184c.026-.105.079-.21.079-.21s-.473.078-.683.026ZM169.26 200.363s-.184.395-.263.552a.882.882 0 0 1-.21.263s.158.105.289-.105c.105-.237.184-.71.184-.71ZM168.078 201.361s.315.867.525.998c.211.131.263.026.263.026s-.158-.105-.184-.315c-.026-.184-.604-.709-.604-.709ZM169.654 200.599s-.552.708-.605.813c-.026.105-.105.342-.105.342s.079.078.237-.105c.131-.184.473-1.05.473-1.05ZM167.814 201.544s.132 1.181.368 1.47c.237.262.552.184.552.184l.027-.053s-.184 0-.263-.21c-.053-.236-.684-1.391-.684-1.391ZM169.969 201.045s-.552.971-.71 1.181c-.157.21-.315.263-.315.263s.079.21.315.052c.237-.184.71-1.496.71-1.496ZM170.155 202.253s-1.157 1.207-1.209 1.391c-.053.184-.237.315-.237.315l-.026.105s.158.105.315.053c.132-.105 1.157-1.864 1.157-1.864ZM168.577 203.959s-.131-.053-.105-.237c.026-.183-1.157-1.601-1.157-1.601s.631 1.628.815 1.811c.184.184.316.053.316.053l.131.052v-.078ZM166.842 202.673s1.235 2.258 1.209 2.442c-.027.183-.106.288-.106.288l.184.132-.052.052-.184-.131s0 .262-.21.052c-.211-.183-.947-2.546-.841-2.835ZM170.391 203.487s-1.761 1.47-1.866 1.759c-.105.288-.289.288-.289.288l-.027.053s.184-.131.237 0c.053.131.158.236.421 0 .289-.21 1.419-1.759 1.524-2.1ZM166.553 203.54s.158 1.968.394 2.677c.237.709.579.709.579.709l.105.105.105-.105s-.079-.158-.079-.342c0-.183-.946-2.414-1.104-3.044ZM170.285 204.852s-1.998 1.628-2.129 1.864c-.132.21-.184.446-.184.446h-.184l-.027.105h.184s-.105.341.158.236c.237-.105 2.076-1.916 2.182-2.651ZM165.685 205.298s1.235 2.651 1.419 2.573c.158-.079.289-.027.289-.027l.026-.105s-.079-.157-.105-.42c0-.262-1.156-2.047-1.629-2.021ZM170.128 206.347s-1.945 1.208-2.26 1.811c-.289.604-.684.604-.684.604l-.026.105s.237-.184.447-.052c.21.131.184.131 1.288-.735 1.077-.814 1.235-1.733 1.235-1.733ZM165.424 206.111s-.158.919.473 1.89c.631.972.762 1.077.867 1.05.106-.026.211.079.211.079l.026-.105s-.105.026-.158-.499c-.052-.551-1.419-2.415-1.419-2.415ZM164.687 207.292s-.21.367.184 1.155c.395.761.763 1.155 1.025 1.417.263.263.447.21.473.158.027-.053.211.21.211.21l.052-.184-.184-.131s.158-.079-.079-.473c-.236-.393-.788-.577-1.261-1.312-.447-.735-.421-.84-.421-.84ZM170.049 207.844s-.525.604-1.235.998c-.71.393-1.445.367-1.577.761l-.131.394-.316.078-.052.184.341-.157s-.236.42.368.183c.605-.236 1.052-.472 1.866-1.233.815-.735.736-1.208.736-1.208ZM164.056 208.657s.052 1.103.867 1.628c.815.525.946 1.023 1.052.918.131-.078.131-.157.131-.157l.105.236.026-.105s-.131-.289-.078-.472c.052-.184-.947-.578-1.393-1.103-.395-.499-.658-.787-.71-.945ZM169.759 209.393c-.053-.027-1.761 1.076-2.287 1.365-.526.288-.736.341-.762.577-.026.236-.394.184-.394.184l-.079.105h.42s-.184.262.289.236c.474-.026.894-.158 1.604-.735.736-.604 1.209-1.732 1.209-1.732Z" fill="#7EA21A"/><path d="M169.627 211.073s-1.209.945-1.866 1.365c-.657.42-1.051.604-1.183.446l-.131-.183-.631.052.079-.236s.499.105.526-.026c.026-.105-.105-.552.893-.867.999-.288 1.919-.603 2.313-.551Z" fill="#7EA21A"/><path d="M163.767 209.524s-.026 1.076.684 1.942c.709.867 1.156 1.077 1.182 1.024.027-.052.211.263.211.263v-.132s-.106-.236-.053-.577c.053-.341-.526-.683-1.156-1.47-.684-.788-.868-1.05-.868-1.05ZM163.347 210.337s.184 1.417.893 2.546c.71 1.129.92.63.92.63l.158.236.079-.236-.184-.131s.447-.105.079-.683c-.368-.577-1.761-1.785-1.945-2.362ZM169.155 212.647s-2.47.21-2.891.578c-.42.367-.552.656-.552.656l-.368.079-.052.184.368-.079s-.158.472.499.236 1.446-.919 2.024-1.129c.578-.21.972-.525.972-.525ZM162.478 211.965s1.052 1.365 1.446 1.943c.394.577.604 1.023.815.971.21-.053.289.105.289.105l.052-.184s-.105.026-.157-.499c-.079-.525-2.05-2.651-2.445-2.336Z" fill="#7EA21A"/><path d="M168.866 213.96s-2.181 1.076-2.733 1.26c-.552.21-.894-.158-.894-.158l-.263.105-.105.026s.342-.21.447-.367c.105-.158-.289-.289.841-.551 1.13-.263 2.339-.683 2.707-.315ZM162.453 212.673s-.131 1.102.605 2.047c.736.945 1.025 1.313 1.156 1.208.132-.079.158-.21.158-.21l.21.341.053-.184s-.237-.131-.184-.315c.052-.183-.368-.315-1.104-1.522-.736-1.181-.894-1.365-.894-1.365ZM168.498 215.062s-1.682-.052-2.418.289c-.736.341-1.051.866-1.051.866l-.447.053-.052.184s.446-.105.42 0c-.026.105-.131.393.762 0 .894-.42 2.471-1.444 2.786-1.392ZM168.13 216.138s-1.682.971-2.471 1.286c-.762.315-1.104.079-1.104.079l-.499.078.026-.105.5-.078s-.106-.237.341-.473c.473-.21 2.786-1.05 3.207-.787Z" fill="#7EA21A"/><path d="m164.319 216.874-.211-.341s.263-.499-.105-.945c-.368-.446-1.445-.787-1.84-1.181-.394-.394-.604-.84-.604-.84s.026 1.024.578 1.522c.552.499 1.104.945 1.419 1.287.316.367.5.367.5.367l.236.263.027-.132ZM163.976 217.845l-.184-.315s.079-.551-.735-1.076c-.815-.525-.999-.525-1.393-1.05-.395-.525-.447-.656-.447-.656s.289 1.128.999 1.995c.709.866 1.498.997 1.498.997l.21.262.052-.157ZM167.682 217.084s-1.419 1.26-2.26 1.68c-.841.42-1.393.183-1.393.183l-.447.105.132-.157.289-.158s.026-.367.552-.656c.525-.262 2.812-1.234 3.127-.997Z" fill="#7EA21A"/><path d="M160.614 215.639s.394 1.654 1.156 2.363c.762.708 1.814 1.05 1.814 1.05l.079-.079s-.237.026-.211-.21c.027-.236-.236-.525-1.209-1.496-.972-.945-1.629-1.628-1.629-1.628ZM167.499 218.947s-1.761.893-2.681 1.103c-.92.21-1.182 0-1.182 0l-.421.236.053-.184.341-.21s-.079-.603.763-.761c.893-.157 3.127-.184 3.127-.184ZM160.088 217.189s-.105 1.05.657 1.444c.762.394 1.446.735 1.84 1.181.368.447.578.709.578.709l.026-.184-.21-.262s.421-.315-.026-.893c-.473-.603-1.656-.551-2.077-.997-.42-.446-.788-.998-.788-.998ZM167.368 220.05s-.894.603-2.129.892c-1.235.289-1.814.814-1.971.682-.158-.105-.473-.157-.473-.157l.052-.184s.263-.052.394-.183c.132-.158-.078-.473.579-.63.657-.158 2.418-.342 2.864-.394.447-.053.684-.026.684-.026Z" fill="#7EA21A"/><path d="M162.767 220.706c.105-.341-.499-.735-1.419-.971s-1.34-.236-1.551-.577c-.21-.342-.394-.657-.394-.657s-.263.814.526 1.26c.788.447 1.288.552 1.734.893.447.341.605.709.763.709.157-.027.21-.237.21-.237l.158.368.052-.184c0-.026-.184-.315-.079-.604ZM166.92 221.362s-.604.814-1.629.919c-1.025.105-1.314 0-1.709.341-.394.341-1.393.525-1.393.525l.106-.184.368-.131s-.421-.315.394-.761c.815-.447 1.13-.578 2.076-.473.973.131 1.656-.079 1.787-.236ZM162.375 222.675l-.263-.472s.236-.105-.158-.683c-.394-.577-1.077-.603-1.892-.945-.841-.341-1.262-.918-1.262-.918s0 1.023.815 1.548c.815.525 1.472.814 1.787 1.155.316.368.71.105.71.105l.21.394.053-.184ZM158.01 221.309s.474 1.313 1.472 1.969c.999.656 1.577 1.234 1.788 1.155.21-.053.289-.158.289-.158l.157.237.053-.184-.184-.184s.42-.315-.158-.814c-.578-.525-1.682-.315-2.444-1.05-.71-.761-.973-.971-.973-.971Z" fill="#7EA21A"/><path d="M166.554 222.517s-.579 1.024-1.446 1.129c-.867.105-1.314.131-2.05.341-.736.21-1.183.184-1.183.184l.053-.184s.184.131.263.026c.078-.105.184-.84.657-.997.473-.158 1.445-.368 2.313-.263.841.105 1.393-.236 1.393-.236ZM165.897 224.04c-.079-.026-1.314.971-2.392 1.26-1.077.289-1.656.026-1.656.026l-.473.289.053-.184.368-.262s.052-.551.552-.787c.499-.21 1.839-.42 2.523-.368.683.026 1.025.026 1.025.026ZM161.191 225.982l-.211-.525s.237-.315-.131-.735c-.368-.446-.867-.42-1.787-1.024-.92-.603-1.367-1.469-1.367-1.469s-.079 1.128 1.209 2.309c1.314 1.208 1.945 1.103 1.945 1.103l.263.472.079-.131ZM160.743 227.374s-.131-.498-.183-.577l-.184-.184s.315-.21.157-.472c-.157-.237-.867-.473-1.918-1.024a5.825 5.825 0 0 1-1.709-1.391s.237 1.155 1.393 2.047c1.157.893 1.656 1.391 1.84 1.26.184-.131.21-.236.21-.236s.342.42.289.682c-.026.236.105-.105.105-.105Z" fill="#7EA21A"/><path d="M165.528 225.248s-2.313.263-2.733.315c-.447.053-.789-.184-1.131.263-.341.472-.446.761-.446.761l-.263.105-.105.157.315-.078s-.289.288.604.131c.894-.158 1.393-.368 2.366-.761.972-.394 1.367-.63 1.393-.893Z" fill="#7EA21A"/><path d="M165.343 226.534s-1.787-.262-2.602-.157c-.788.131-1.761.892-1.945 1.155-.184.262-.315.341-.315.341l-.131.158s-.211.183.552.052c.762-.131 1.445-.682 2.391-.945.946-.262 2.05-.604 2.05-.604ZM160.192 228.608s-.053-.578-.158-.683l-.21-.21s.184-.262-.158-.551c-.315-.289-1.077-.42-1.892-.945-.815-.525-1.367-1.47-1.367-1.47s.578 1.785 1.551 2.572c.972.788 1.603.709 1.708.683.105-.026.237 0 .289.157.053.132.184.578.184.578l.053-.131Z" fill="#7EA21A"/><path d="M165.054 227.584s-.92.341-1.603.105c-.683-.236-1.288-.42-1.708-.236-.447.184-1.393 1.522-1.393 1.522l-.29.026-.026.105.289-.026s-.052.42.605.184.841-.683 1.945-.63c1.104.079 1.971-.604 2.181-1.05ZM159.825 229.499s0-.446-.052-.578c-.053-.131.184-.708-.683-1.233-.868-.525-1.577-.394-2.287-.63-.736-.237-.999-.525-.999-.525s.079.472 1.367 1.155c1.288.682 1.656.735 2.024 1.128.394.394.473.158.473.158l.105.682.052-.157ZM159.404 230.522l-.131-.184s.342-.472 0-.892c-.342-.42-.762 0-2.181-.84-1.42-.84-1.972-1.418-1.972-1.418s.184 1.287 1.63 2.205c1.445.919 2.392 1.05 2.444 1.05.053 0 .21.079.21.079Z" fill="#7EA21A"/><path d="m158.904 231.626-.105-.236s.158-.473-.079-.604c-.236-.131-.893.026-2.155-1.155-1.261-1.181-1.419-1.68-1.419-1.68s.184 1.601 1.577 2.809c1.393 1.207 2.05.814 2.05.814l.131.183v-.131ZM164.687 229.132s-.972.63-1.892.577c-.92-.052-2.181-.078-2.681.394-.499.473-.552.971-.552.971l-.447.105-.026.105.473-.157s-.131.262.71.157c.841-.105 1.813-.498 2.786-.735.946-.236 1.656-1.233 1.629-1.417Z" fill="#7EA21A"/><path d="M164.319 231.1s-.184.394-.552.262c-.394-.131-1.919-.892-2.654-.682-.736.21-1.867 1.05-1.867 1.05l-.368.131-.052.053.447-.053s-.079.368.867.236c.946-.131.92-.472 1.945-.183 1.025.262 2.418.026 2.234-.814ZM163.609 232.913s-1.735-.761-2.708-.63c-.972.132-1.734 0-1.918.263-.184.262-.237.42-.237.42l-.263-.079-.052.184.263.079s-.289.288.21.341c.499.052 1.314-.394 2.365-.315 1.052.078 2.156 0 2.34-.263ZM158.459 232.676l-.079-.157s.157-.21-.027-.342c-.184-.131-.551.079-2.207-.735-1.656-.813-2.287-1.391-2.287-1.391s.026 1.024 1.63 1.89c1.603.84 1.971.893 2.207 1.05.237.131.342.105.473.026.132-.078.132-.262.132-.262l.131.052.027-.131Z" fill="#7EA21A"/><path d="M163.399 235.275s-.789-1.339-2.208-1.575c-1.446-.21-2.392-.21-2.576.052-.184.263-.289.473-.289.473l-.342-.105-.052.184.342.105s-.237.183.236.393c.473.21 1.157.184 2.339.079 1.157-.131 2.261-.026 2.55.394ZM158.011 233.884l-.21-.078s.053-.42-.237-.525c-.289-.105-2.207-.289-3.153-1.05-.92-.762-1.026-1.182-1.026-1.182s.053 1.155.894 1.838c.841.682 2.917 1.47 3.154 1.417.237-.052.342-.341.342-.341h.184l.052-.079ZM157.512 235.38l-.211-.079s.079-.551-.078-.603c-.158-.053-1.682-.184-2.918-.709-1.235-.525-1.629-1.05-1.629-1.05s-.421.551.946 1.391 3.049 1.523 3.338 1.418c.315-.079.263-.368.263-.368l.236.131.053-.131ZM162.638 236.692s-1.577-1.365-2.839-1.391c-1.261-.026-1.787-.026-1.918.21-.132.21-.342.21-.342.21l-.132.079s.395-.053.342.105c-.052.157.053.394.683.604.631.209 1.604.026 2.708.183 1.156.21 1.498 0 1.498 0Z" fill="#7EA21A"/><path d="M161.007 264.673h-14.035l-2.628-27.825h19.291l-2.628 27.825Z" fill="#3D211C"/><path d="m105.393 133.321.079 13.886s16.61.184 17.662-.079c1.051-.262 6.439-4.514 6.991-4.751.552-.236 1.077 0 .867.657-.21.656-1.051 2.703-1.051 2.703s4.073-.446 4.441-.682c.368-.21 2.813-2.1 3.312-2.258.499-.157 1.367.158 1.13.683-.21.525-2.523 3.491-2.523 3.491s.473 3.176-.736 4.331c-1.209 1.155-6.833 2.1-9.593 2.284-2.76.184-23.497 2.835-25.231 2.756-1.735-.079-4.258-.604-5.151-4.331-.894-3.728-1.183-17.955-1.183-17.955l10.986-.735Z" fill="#F69576"/></svg>