<svg width="720" height="430" fill="none" xmlns="http://www.w3.org/2000/svg"><path d="M711.442 10.68H10.699v372.837h700.743V10.68Z" fill="#FFFFFE"/><path d="M709.302 10.683V380.85H10.698V10.683h698.604ZM720 0H0v391.533h720V0Z" fill="#232323"/><path d="M151.831 428.396h-27.815v-6.41h27.815v6.41Zm-26.746-1.068h25.677v-4.273h-25.677v4.273ZM141.669 391.535h-7.489v13.888h7.489v-13.888Z" fill="#000"/><path d="M154.505 404.346H121.34v3.205h33.165v-3.205Z" fill="#000"/><path d="M151.297 407.557h-26.746v9.614h26.746v-9.614Z" fill="#606060"/><path d="M152.897 417.17h-29.956v5.341h29.956v-5.341Z" fill="#232323"/><path d="M140.599 422.512h-5.349v7.478h5.349v-7.478ZM269.511 428.396h-27.816v-6.41h27.816v6.41Zm-26.746-1.068h25.676v-4.273h-25.676v4.273ZM259.348 391.535h-7.489v13.888h7.489v-13.888Z" fill="#000"/><path d="M272.188 404.346h-33.165v3.205h33.165v-3.205Z" fill="#000"/><path d="M268.98 407.557h-26.746v9.614h26.746v-9.614Z" fill="#606060"/><path d="M270.58 417.17h-29.955v5.341h29.955v-5.341Z" fill="#232323"/><path d="M258.283 422.512h-5.349v7.478h5.349v-7.478ZM474.925 428.396h-27.816v-6.41h27.816v6.41Zm-26.746-1.068h25.676v-4.273h-25.676v4.273ZM464.758 391.537h-7.488v13.888h7.488v-13.888Z" fill="#000"/><path d="M477.595 404.346H444.43v3.205h33.165v-3.205Z" fill="#000"/><path d="M474.387 407.555h-26.746v9.614h26.746v-9.614Z" fill="#606060"/><path d="M475.991 417.17h-29.956v5.341h29.956v-5.341Z" fill="#232323"/><path d="M463.689 422.512h-5.349v7.478h5.349v-7.478ZM592.605 428.396h-27.816v-6.41h27.816v6.41Zm-26.746-1.068h25.676v-4.273h-25.676v4.273ZM582.434 391.535h-7.489v13.888h7.489v-13.888Z" fill="#000"/><path d="M595.282 404.346h-33.165v3.205h33.165v-3.205Z" fill="#000"/><path d="M592.07 407.555h-26.746v9.614h26.746v-9.614Z" fill="#606060"/><path d="M593.674 417.17h-29.955v5.341h29.955v-5.341Z" fill="#232323"/></svg>