<svg width="375" height="308" fill="none" xmlns="http://www.w3.org/2000/svg"><path d="M169.758 54.385c18.162 3.435 52.381-66.68 90.255-51.21 37.873 15.471 10.039 65.317 23.549 76.487 13.509 11.17 50.515-23.205 66.074 12.901 15.559 36.107-8.095 74.783-8.437 80.787-.342 6.005 42.657 38.283 30.724 82.728-11.932 44.445-170.389 48.745-226.949 50.449-56.56 1.705-132.175 1.574-143.318-44.759-11.144-46.333 39.476-86.687 44.154-99.64 4.678-12.953-37.663-58.027 15.428-113.433 41.08-42.871 90.359 2.255 108.52 5.69Z" fill="#9ECBDD"/><path d="M233.258 129.93s-3.26-6.293 4.152-7.001c-.762-5.008 6.492-12.56 19.081-9.335 2.129-5.454 14.14-15.077 22.498-3.356 15.927-6.66 18.188 2.937 16.059 4.667 12.352-2.228 10.171 6.215 8.095 7.159 16.347-3.488 14.087 7.866 14.087 7.866h-83.972ZM50.488 116.242s-1.367-3.487 1.734-3.881c-.315-2.753 2.707-6.948 7.964-5.165.894-3.016 5.914-8.339 9.383-1.862 6.65-3.697 7.596 1.626 6.702 2.57 5.151-1.233 4.258 3.435 3.364 3.959 6.834-1.94 5.887 4.353 5.887 4.353H50.488v.026Z" fill="#fff"/><path d="M258.672 174.742h-16.558v14.632h16.558v-14.632Z" fill="#749DC1"/><path d="M257.254 173.221h-11.749v4.588h11.749v-4.588Z" fill="#749DC1"/><path d="M252.05 171.779h-5.572v2.937h5.572v-2.937ZM255.52 163.467h-1.814v12.036h1.814v-12.036ZM239.96 174.295h-18.371v15.077h18.371v-15.077Z" fill="#749DC1"/><path d="M245.506 181.191h-9.41v8.181h9.41v-8.181ZM239.093 151.326h-15.192v23.415h15.192v-23.415Z" fill="#749DC1"/><path d="M236.702 136.066h-10.461v17.123h10.461v-17.123Z" fill="#749DC1"/><path d="M235.57 112.126h-7.753v25.225h7.753v-25.225Z" fill="#749DC1"/><path d="M233.678 112.649h-4.048V98.543l2.077-2.098 1.971 2.098v14.106ZM194.413 141.1h-7.753v-14.553l3.89-2.701 3.863 2.701V141.1Z" fill="#749DC1"/><path d="M201.64 141.1h-7.754v-14.553l3.89-2.701 3.864 2.701V141.1Z" fill="#749DC1"/><path d="M209.157 141.1h-7.754v-14.553l3.89-2.701 3.864 2.701V141.1Z" fill="#749DC1"/><path d="M209.157 137.351h-26.703v52.022h26.703v-52.022Z" fill="#749DC1"/><path d="M193.887 139.158H180.64v50.214h13.247v-50.214ZM221.589 167.373h-16.296v22h16.296v-22ZM178.407 152.217h-26.493v37.156h26.493v-37.156Z" fill="#749DC1"/><path d="M186.66 176.997h-15.191v12.376h15.191v-12.376ZM175.542 98.91h-23.628v53.307h23.628V98.91Z" fill="#749DC1"/><path d="M173.886 106.566H161.69V96.445l12.196 1.206v8.915ZM159.588 86.01h-1.656v15.496h1.656V86.009ZM155.672 86.01h-1.656v15.496h1.656V86.009ZM146.79 143.67h-4.521v19.824h4.521V143.67Z" fill="#749DC1"/><path d="M148.288 147.419h-15.349v21.318h15.349v-21.318Z" fill="#749DC1"/><path d="M154.018 161.212h-21.079v28.162h21.079v-28.162ZM140.638 140.208h-2.418v8.416h2.418v-8.416ZM128.576 188.533H110.52v-72.868l4.205-3.016 13.851 4.51v71.374Z" fill="#749DC1"/><path d="M130.389 118.287h-20.764v71.085h20.764v-71.085Z" fill="#749DC1"/><path d="M136.723 185.282h-14.902v4.09h14.902v-4.09ZM102.107 154.473H82.842v34.087h19.265v-34.087Z" fill="#749DC1"/><path d="M112.78 170.783h-16.4v18.591h16.4v-18.591ZM80.74 180.091h-5.729v9.283h5.73v-9.283Z" fill="#749DC1"/><path d="M88.862 186.148H72.147v3.226h16.715v-3.226ZM96.877 158.065h-8.673v-5.06l4.337-2.413 4.336 2.413v5.06ZM101.031 141.939h-2.286v13.268h2.286v-13.268ZM86.234 142.096H84v13.215h2.234v-13.215Z" fill="#749DC1"/><path d="M1.708 261.743c11.144 46.332 86.785 46.49 143.319 44.759 56.533-1.73 214.991-6.004 226.949-50.449 8.122-30.233-9.172-54.855-20.973-69.381H27.229c-15.087 19.089-32.564 45.887-25.52 75.071Z" fill="#3D3B38"/><path d="M352.947 189.111a100.286 100.286 0 0 0-1.971-2.439H27.228c-.63.813-1.262 1.626-1.919 2.439h327.638Z" fill="#fff"/><path d="M12.588 207.7c-9.25 15.864-15.638 34.428-10.907 54.042 11.144 46.332 86.785 46.49 143.319 44.759 56.533-1.73 214.991-6.004 226.949-50.449 4.994-18.591.368-35.058-6.649-48.352H12.588Z" fill="#8A9995"/><path d="M292.971 205.943c2.549-1.232 4.205 6.398 3.758 8.391-.446 1.993-12.168 7.054-16.374 6.844-4.205-.21-13.719-2.281-13.719-2.281v-7.447s21.236-3.042 26.335-5.507Z" fill="#FFE051"/><path d="m75.695 170.073 19.895-16.624-14.429 16.336-5.466.288ZM110.256 167.95s1.866-5.742 2.707-7.919c.841-2.202 3.075-1.678 2.707 0-.368 1.678-1.682 7.604-1.682 7.604l-3.732.315ZM95.59 153.449v15.13l-11.327.629 11.328-15.759Z" fill="#424B6A"/><path d="M78.717 168.055c.868-.053 31.355-1.154 39.004-.839 7.648.314 40.133 1.573 40.58 1.573.447 0 8.016 6.267 8.016 6.267v2.412s4.468 2.806 4.678 3.435c.184.629-.105 7.316-1.314 9.912-1.209 2.595-3.548 6.266-3.548 6.266l-121.504-.524s-4.39-7.421-4.573-8.233c-.184-.813 0-6.687 0-6.687l1.971-.314s5.309-5.533 5.887-5.848c.552-.314 27.807-7.237 30.803-7.42Z" fill="#1D7DCC"/><path d="M42.053 181.323s5.309-5.533 5.887-5.848c.552-.314 27.807-7.237 30.803-7.42.867-.053 31.355-1.154 39.003-.839 7.648.314 40.133 1.573 40.58 1.573.447 0 8.016 6.267 8.016 6.267v2.412s4.468 2.806 4.679 3.435c.184.577-.053 6.346-1.052 9.256 0 0-10.118-11.354-29.042-11.852-18.923-.498-28.122 11.852-40.002 11.852-11.88 0-25.415-12.245-37.216-10.987-11.8 1.259-22.708 10.987-22.708 10.987-.5-.918-.867-1.626-.92-1.862-.184-.839 0-6.686 0-6.686l1.971-.288Z" fill="#0C96FD"/><path d="M45.68 185.282v2.91l-5.598.105v-3.015h5.598Z" fill="#F1F3F2"/><path d="m158.669 177.442 2.444-3.225h4.205l1.025.839v2.386h-7.674Z" fill="#7D009B"/><path d="m118.378 167.242 10.067-6.398s14.008 2.124 17.74 3.199c3.732 1.075 5.966 2.648 5.966 3.12v1.39l-33.773-1.311Z" fill="#000"/><path d="M155.148 169.523s.841-3.645.184-3.75c-.658-.105-2.813 3.33-2.813 3.33l2.629.42Z" fill="#0C96FD"/><path d="M81.608 191.601h32.064c3.364 0 4.679-2.255 4.757-5.69.105-4.432-.657-18.538-.657-18.67a.056.056 0 0 0-.052-.052c-.027 0-.053.026-.053.052 0 .132.342 14.317.237 18.748-.079 3.357-1.367 4.982-4.679 4.982-1.997 0-29.594.105-31.04.132.027-.551.106-4.458.605-10.096.552-6.004 4.284-13.11 4.337-13.189.026-.026 0-.052-.026-.078-.027-.027-.053 0-.08.026-.052.078-4.126 7.106-4.677 13.137a380.855 380.855 0 0 0-.842 10.672c0 .026 0 .026.027.026.052-.026.052 0 .079 0Z" fill="#024168"/><path d="M115.302 172.014h-4.704a.348.348 0 0 1-.342-.341v-.97c0-.184.158-.341.342-.341h4.704c.184 0 .342.157.342.341v.97c.026.184-.131.341-.342.341Z" fill="#878FB3"/><path d="M46.89 176.392s-2.05-.839-3.443.525c-1.393 1.363-.552 3.513-.552 3.513l3.995-4.038Z" fill="#FFE051"/><path d="M95.59 153.449 84.76 169.785h-3.6l12.221-16.336h2.208Z" fill="#0C96FD"/><path d="M89.993 161.84s.867 1.521 1.419 2.884c.552 1.364.657 2.937.657 2.937l-6.071.157 3.995-5.978Z" fill="#0C96FD"/><path d="M77.507 197.054c.158-.787.237-1.6.237-2.439 0-7.316-5.94-13.241-13.273-13.241-7.333 0-13.272 5.925-13.272 13.241 0 .839.079 1.652.236 2.439h26.072Z" fill="#024168"/><path d="M64.498 204.947c6.198 0 11.223-5.013 11.223-11.196 0-6.184-5.025-11.197-11.223-11.197s-11.223 5.013-11.223 11.197c0 6.183 5.025 11.196 11.223 11.196Z" fill="#000"/><path d="M64.498 201.276c4.166 0 7.543-3.369 7.543-7.525 0-4.157-3.377-7.526-7.543-7.526s-7.543 3.369-7.543 7.526c0 4.156 3.378 7.525 7.543 7.525Z" fill="#606060"/><path d="M64.499 198.994a5.25 5.25 0 0 0 5.256-5.244 5.25 5.25 0 0 0-5.256-5.245 5.25 5.25 0 0 0-5.257 5.245 5.25 5.25 0 0 0 5.257 5.244Z" fill="#000"/><path d="M58.11 197.815c.29.472.631.918 1.052 1.311.368.367.788.708 1.209.97l10.408-10.436a8.53 8.53 0 0 0-.973-1.206 7.253 7.253 0 0 0-1.314-1.049l-10.382 10.41Z" fill="#A8A9AD"/><path d="M60.267 187.484a6.203 6.203 0 0 0-1.288 1.075 8.523 8.523 0 0 0-.973 1.206l10.618 10.253a8.55 8.55 0 0 0 1.183-.997 8.201 8.201 0 0 0 1.025-1.337l-10.565-10.2Z" fill="#A8A9AD"/><path d="M152.283 196.95c.157-.786.236-1.599.236-2.438 0-7.316-5.94-13.242-13.272-13.242-7.333 0-13.273 5.926-13.273 13.242 0 .839.079 1.652.236 2.438h26.073Z" fill="#024168"/><path d="M139.248 204.345c6.198 0 11.222-5.012 11.222-11.196s-5.024-11.196-11.222-11.196c-6.198 0-11.223 5.012-11.223 11.196s5.025 11.196 11.223 11.196Z" fill="#000"/><path d="M139.248 200.674c4.166 0 7.543-3.369 7.543-7.525 0-4.156-3.377-7.525-7.543-7.525s-7.543 3.369-7.543 7.525c0 4.156 3.377 7.525 7.543 7.525Z" fill="#606060"/><path d="M139.248 198.392a5.25 5.25 0 0 0 5.257-5.244 5.25 5.25 0 0 0-5.257-5.244 5.25 5.25 0 0 0-5.256 5.244 5.25 5.25 0 0 0 5.256 5.244Z" fill="#000"/><path d="M132.86 197.213c.289.472.631.918 1.052 1.312a6.98 6.98 0 0 0 1.209.97l10.408-10.436a8.534 8.534 0 0 0-.973-1.206 7.157 7.157 0 0 0-1.314-1.049l-10.382 10.409Z" fill="#A8A9AD"/><path d="M135.016 186.882a6.26 6.26 0 0 0-1.287 1.075 8.472 8.472 0 0 0-.973 1.207l10.618 10.252a8.447 8.447 0 0 0 1.183-.996c.394-.42.736-.866 1.025-1.338l-10.566-10.2Z" fill="#A8A9AD"/><path d="M126.05 57.743s-6.097-3.855-12.957.524c-4.599 2.937-5.151 13.268-3.443 16.808 1.708 3.514 9.541 9.938 9.541 9.938s29.357-21.318 6.859-27.27Z" fill="#A5713D"/><path d="m145.631 118.679.079 15.13s-3.259 10.069-5.152 9.964c-1.892-.079-4.652-.682-5.624-4.72-.973-4.064-1.288-19.613-1.288-19.613l11.985-.761Z" fill="#DD866F"/><path d="m107.258 261.742-.999 23.809-22.524-.734s-3.022-4.877.263-6.057c3.285-1.18 13.93-5.402 13.93-5.402l.079-11.93 9.251.314Z" fill="#F69576"/><path d="m106.759 273.646-.5 11.904-22.524-.734s-3.022-4.877.263-6.057c3.285-1.18 13.93-5.402 13.93-5.402l8.831.289Z" fill="#032240"/><path d="m106.364 283.166-.105 2.412-22.525-.734s-.71-1.128-1.05-2.439l23.68.761Z" fill="#BFBFBF"/><path d="m127.522 261.664-.183 11.904s10.434 1.967 13.22 2.806c3.337 1.023 7.201 1.94 7.753 5.192.473 2.805 0 3.907 0 3.907h-32.301l3.522-23.835h7.989v.026Z" fill="#F69576"/><path d="M127.339 273.567s10.434 1.967 13.22 2.806c3.337 1.023 7.201 1.94 7.753 5.192.473 2.805 0 3.907 0 3.907h-32.301l1.235-11.905h10.093Z" fill="#BFBFBF"/><path d="M148.311 281.591c.105.577.158 1.075.184 1.495h-32.248l.998-9.519h10.093s10.434 1.967 13.22 2.806c3.338 1.049 7.201 1.967 7.753 5.218Z" fill="#032240"/><path d="M142.057 153.684s1.13 11.747 0 31.282-5.887 38.283-6.439 40.511c-.552 2.229-7.569 39.673-7.569 39.673h-10.934s6.15-50.581 6.728-65.946c.579-15.366-1.971-44.13-1.971-44.13l20.185-1.39Z" fill="#254B6B"/><path d="m101.37 154.89 26.283.839s.105 46.49-2.024 48.588c-2.129 2.098-8.673 10.619-9.909 17.306-1.235 6.66-5.309 43.71-5.309 43.71l-13.588-.445 4.547-109.998Z" fill="#254B6B"/><path d="M119.295 92.59c11.591-.236 15.296 1.494 17.741 6.896 2.444 5.401 8.594 52.888 9.146 62.59.552 9.675-1.314 15.47-14.561 15.47-13.246 0-31.381-10.829-31.381-10.829s-.736 3.356-1.314 5.401c-.578 2.046-6.15 4.274-6.15.734 0-3.539 2.418-59.049 2.812-68.358.368-9.308 14.929-11.72 23.707-11.904Z" fill="#000"/><path d="M131.595 95.763c4.573-1.18 8.778-1.128 12.142 5.585 3.364 6.713 5.966 27.558 5.966 27.558l-15.507 6.136c.027 0-14.718-36.133-2.601-39.279Z" fill="#000"/><path d="M123.264 91.645c-4.073 0-8.909.393-11.433 1.993-3.075 1.966-3.022 9.308 10.461 9.911 13.483.603 13.036-5.663 11.669-7.525-1.945-2.7-7.569-4.379-10.697-4.379Z" fill="#F69576"/><path d="m128.519 83.227 2.628 16.833h-15.901s.763-6.686 1.656-11.039c.894-4.326 1.656-5.794 1.656-5.794h9.961Z" fill="#F69576"/><path d="M121.582 87.789s-.132 3.094 1.918 4.458c2.05 1.363 6.624 1.39 6.624 1.39l-1.63-10.41h-6.702s-.473 2.595-.21 4.562Z" fill="#DD866F"/><path d="M130.781 62.802s2.024 1.652 2.891 5.322c.684 2.832.526 5.848.868 7.552.341 1.705.919 4.405.446 6.765-.473 2.36-2.575 5.585-6.491 6.687-3.89 1.1-7.097.314-9.252-2.413-2.155-2.7-4.81-7.551-5.598-10.934-.789-3.382-1.235-9.728 2.365-12.534 4.6-3.54 10.093-3.592 14.771-.445Z" fill="#F69576"/><path d="M124.498 82.598s.579 2.255 1.971 2.596c1.393.34 2.76-.079 3.312-.892.552-.813.736-2.281.736-2.281l-6.019.577Z" fill="#fff"/><path d="M127.021 79.27c-.105 0-.21-.026-.263-.079-.157-.131-.184-.393-.184-.55v-.08c-.026.027-.105.08-.21.184a.374.374 0 0 1-.42.131c-.211-.052-.368-.262-.421-.55-.105-.473.342-1.26.394-1.338.027-.053.105-.08.184-.053.053.026.079.105.053.184-.132.21-.421.84-.368 1.154.052.21.158.315.236.341.079.026.132-.026.158-.053.184-.21.342-.288.447-.288.079 0 .131.052.158.105.026.052.026.131.052.236 0 .131 0 .288.079.367.026.026.105.026.184.026.184-.026.21-.157.184-.472 0-.13 0-.262.079-.314a.2.2 0 0 1 .131-.053c.105 0 .184.079.263.131.158.131.237.158.342.053.052-.053.079-.158.079-.289-.027-.393-.29-.918-.474-1.05-.052-.052-.078-.13-.026-.183.053-.052.132-.079.184-.026.263.21.552.813.578 1.26 0 .235-.026.393-.157.498-.289.262-.526.078-.684-.027-.026-.026-.052-.026-.052-.052v.052c0 .236.026.656-.421.735h-.105Z" fill="#6B3425"/><path d="M107.678 73.368c1.209-2.99 9.987-.288 8.358 5.218-1.656 5.638-10.145-.813-8.358-5.218Z" fill="#F69576"/><path d="M114.407 79.268c-.026 0-.052 0-.079-.026a.128.128 0 0 1 0-.184c.368-.393.447-1.652-.026-2.858-.315-.865-1.13-2.334-3.022-2.57-1.025-.131-1.735.053-2.129.498-.605.682-.316 1.783-.316 1.81.027.078-.026.13-.105.157-.079.026-.131-.026-.158-.105-.026-.052-.315-1.259.368-2.045.474-.525 1.262-.734 2.366-.603 1.498.183 2.681 1.18 3.259 2.753.447 1.232.447 2.622-.026 3.147-.079 0-.106.026-.132.026Z" fill="#6B3425"/><path d="M111.253 78.772a.144.144 0 0 1-.131-.08c-.053-.104-1.025-2.516.42-5.217.027-.053.105-.079.184-.053.053.027.079.105.053.184-1.393 2.596-.421 4.982-.421 4.982.027.079 0 .131-.079.184h-.026ZM122.791 76.699c.261 0 .473-.435.473-.97 0-.537-.212-.971-.473-.971-.262 0-.473.434-.473.97s.211.971.473.971ZM120.556 73.186c.368-.315 1.156-.735 1.945-.813.867-.08 1.393.314 1.734.393.342.079.395-.393.211-.813-.184-.42-.92-.735-2.129-.682-1.209.052-1.866.577-2.182.944-.341.367-.105 1.39.421.97ZM130.202 76.464c.261 0 .473-.435.473-.971s-.212-.97-.473-.97c-.262 0-.473.434-.473.97s.211.97.473.97ZM128.416 72.82c.368-.316 1.156-.735 1.944-.814.868-.079 1.393.315 1.735.393.342.08.394-.393.21-.813-.184-.42-.92-.734-2.129-.682-1.209.053-1.866.577-2.181.945-.342.393-.079 1.416.421.97ZM132.594 84.723l-.578.21s-.947 2.412-1.893 2.937c-.92.524-4.152.655-4.52.393-.368-.262-1.709-2.7-1.709-2.7l-.736.261s1.472 3.567 1.683 3.881c.131.184 2.365 1.442 3.206 1.442.841 0 3.548-1.809 3.653-2.176.289-1.127.894-4.248.894-4.248Z" fill="#6B3425"/><path d="m129.045 86.48-1.419.079.184 2.492 1.104.105.131-2.676Z" fill="#6B3425"/><path opacity=".4" d="m99.61 105.884 3.601 20.243-6.439 1.94 2.839-22.183Z" fill="#254B6B"/><path d="M115.221 59.315s3.338 6.031 12.616 6.556c19.317 1.127 10.46-9.702 10.46-9.702s.683 2.858-2.628 3.015c-4.547.236-11.118-13.556-20.448.131Z" fill="#A5713D"/><path d="M99.742 124.212s-.762 17.673-1.104 19.194c-.341 1.521 4.731 19.509 5.073 21.554.342 2.045.079 7.237.368 8.915.289 1.678 1.104 4.51 2.26 4.799 1.157.288 7.727.603 8.384.472.657-.105-.946-2.282-1.104-2.754-.131-.472 2.261 2.072 3.811 2.308 1.525.236 2.182-1.416.579-2.045-1.604-.63-3.811-5.323-4.915-5.979-1.104-.682-2.129-1.599-2.261-2.071-.131-.472-2.181-23.914-2.575-24.727-.421-.839.368-17.411.368-17.411l-8.884-2.255Z" fill="#F69576"/><path d="M192.782 246.325c-2.077 2.071-5.099 5.795-5.336 7.342-.236 1.547-.525 1.73.894 2.753 1.446.996 5.414 2.753 5.388 3.487-.026.735-5.178 3.068-5.808 2.806-.631-.262-1.945-1.757-3.733-2.386-1.76-.629-3.416-.839-3.443-2.622-.026-1.783 1.735-13.557 1.735-13.557l10.303 2.177ZM219.381 232.717s6.308 4.379 8.883 4.929c2.576.551 3.391.184 4.206 1.311.814 1.128.184 3.068-2.707 3.829-2.891.76-13.746-3.435-13.746-3.435l3.364-6.634Z" fill="#DBB5A2"/><path d="M223.771 204.764c2.47-.97 11.905 14.422 13.956 16.913 3.311 4.038 3.285 6.214.052 7.394-3.233 1.18-7.543 1.18-9.409-2.36-2.917-5.506-8.226-20.531-4.599-21.947Z" fill="#A84400"/><path d="M174.017 232.034c2.786-1.915 5.914-3.042 9.436-3.803 3.521-.786 9.172-.681 14.271-2.543 5.099-1.835 7.806-4.851 9.383-6.817 1.577-1.993 5.913-7.814 5.913-7.814l12.747 9.649s-1.156 1.835-.63 3.697c.525 1.862 1.103 5.349.131 9.151-.972 3.802-3.574 8.784-9.803 11.459-6.229 2.674-12.117 4.405-18.74 4.169-6.623-.236-20.789-4.353-20.789-4.353l-1.919-12.795Z" fill="#FFDFC6"/><path d="M185.975 238.8c3.469 3.146 2.47 7.84.157 10.068-2.312 2.229-5.755 3.803-7.884 5.769-2.129 1.967-5.073 5.611-5.782 7.683-.71 2.071-.447 3.173.341 3.854.762.656 1.341.42 1.157 1.259-.184.839-5.572 2.675-5.94 2.412-.368-.262-1.104-1.101-1.341-2.412-.236-1.311-1.34-5.821-1.156-6.608.21-.813 4.652-9.413 4.652-9.413s-3.023-10.043.026-13.976c3.049-3.933 8.7-5.087 15.77 1.364Z" fill="#FFDFC6"/><path d="M188.105 245.171c.42-2.124-.053-4.51-2.129-6.398-7.07-6.424-12.721-5.322-15.743-1.389-3.049 3.933-.026 13.976-.026 13.976s-1.577 3.041-2.892 5.663c2.944.184 7.176-1.442 9.41-2.91 3.259-2.15 5.204-5.979 5.65-6.713.316-.498 3.233-1.599 5.73-2.229Z" fill="#FF6D00"/><path d="M217.384 233.346s1.393 3.147 4.152 5.376c2.76 2.228 6.282 5.401 7.675 5.689 1.393.289 2.865.263 3.942 1.39 1.078 1.128 1.998 2.439.894 2.753-1.078.341-5.835 2.465-6.571 2.151-.762-.341-4.021-2.124-7.175-3.934-3.18-1.809-9.514-6.843-9.514-6.843l6.597-6.582Z" fill="#FFDFC6"/><path d="M224.164 240.897c-.894-.734-1.788-1.495-2.629-2.15-2.759-2.229-4.152-5.375-4.152-5.375l-6.492 6.45c2.26 1.521 5.23 3.382 6.912 3.854 2.944.84 4.416.236 5.178-.76.341-.472.788-1.285 1.183-2.019ZM177.25 230.199s-7.359 2.806-9.961 2.176c-2.602-.629-6.413-1.861-8.385-5.926-1.971-4.064-2.444-11.144-4.1-10.881-1.655.262-2.26 2.936-1.209 8.128 1.052 5.166 4.836 10.567 8.91 12.639 4.074 2.071 13.693 2.438 13.693 2.438l1.052-8.574Z" fill="#FF6D00"/><path d="M157.538 222.542c-.973-3.54-1.551-7.158-2.734-6.975-1.655.262-2.26 2.937-1.209 8.129l.079.393c.999-.105 2.26-.551 3.864-1.547Z" fill="#FFDFC6"/><path d="M167.288 232.376c-2.602-.63-6.413-1.862-8.384-5.926 0-.026-.026-.053-.026-.079-.079 1.495.341 3.33 1.235 4.877 1.866 3.199 6.255 6.739 10.776 6.188 2.05-.236 4.126-1.573 5.835-2.936l.525-4.327c0 .026-7.359 2.832-9.961 2.203Z" fill="#6B3425"/><path d="M207.107 218.871c-1.577 1.992-4.284 4.982-9.383 6.817-5.099 1.835-10.75 1.757-14.271 2.543-3.522.787-6.65 1.888-9.436 3.803l1.971 12.769s3.207.944 7.281 1.941c1.76-1.102 4.941-1.6 9.961-1.652 5.519-.053 18.319-1.731 21.578-4.17 3.259-2.438 4.678-5.663 4.415-9.334-.289-3.671-2.444-5.638-.289-6.713 2.155-1.075 5.493-2.071 5.677-4.09.026-.289-.315-.892-.92-1.678l-10.618-8.05c-.026 0-4.389 5.821-5.966 7.814Z" fill="#FF6D00"/><path d="M207.107 218.872c-1.577 1.993-4.284 4.982-9.383 6.817-5.099 1.836-10.749 1.757-14.271 2.544-3.522.786-6.939 1.258-9.725 3.172l.395 4.93c1.392-.524 3.548-1.862 4.468-.892 1.629 1.757 2.523 4.51 4.389 5.087s2.97-.052 3.653-2.832c.683-2.805.683-6.738 2.812-6.974 2.129-.236 6.676 8.574 12.09 9.937 5.414 1.364 8.831-1.206 10.198-5.427.999-3.068-1.183-13.583-2.445-19.142-.867 1.075-1.655 2.124-2.181 2.78Z" fill="#6B3425"/><path d="M211.023 204.607c1.498-2.884 6.229-4.877 9.83-5.165 3.601-.315 5.782.236 7.228 1.626 1.445 1.389 4.888 6.214 5.414 7.079.552.866 2.575 5.009 1.445 6.844-1.13 1.836-7.858 6.555-9.75 7.316-1.893.76-8.279-.236-12.695-1.18-4.415-.997-3.785-12.114-1.472-16.52Z" fill="#FF6D00"/><path d="M236.674 207.046c1.655.262 2.26 3.985 1.419 6.765-.841 2.779-.894 4.641-3.496 5.9-2.602 1.258-9.803 5.191-9.803 5.191s.158-4.693-.71-5.532c-.867-.839-2.68-3.724-.473-6.057 2.208-2.334 2.76-3.016 2.339-4.694-.446-1.678-1.603-3.854-2.549-4.458-.946-.603-3.39-.445-3.706-1.048-.315-.604.132-2.229 2.155-2.465 2.024-.21 3.286.052 3.312.524.026.472-.315.997-.053 1.364.263.341 3.338 5.375 4.941 5.244 1.551-.105 5.415-.918 6.624-.734Z" fill="#FFDFC6"/><path d="M237.278 207.833c.368 1.023.026 2.334-.42 2.832-.447.498-1.814.918-2.497.524-.684-.393-1.788-.891-1.604-1.94.158-1.049 4.311-1.967 4.521-1.416ZM225.688 218.322s4.126 1.153 5.441 1.075c1.287-.079 2.207-.367 2.759-1.075s1.104-2.098 1.393-1.993c.289.105 1.104 1.101 1.183 1.285.079.183-.184.55-.368.341-.184-.21-.631-1.075-.71-.971-.079.105-1.104 2.203-2.391 2.675-1.288.472-3.181.026-4.758-.289-1.576-.288-2.759-.812-2.549-1.048Z" fill="#6B3425"/><path d="M222.141 207.099c2.024-.42 3.969 3.907 1.577 4.353-2.392.445-3.995-3.829-1.577-4.353Z" fill="#fff"/><path d="M223.506 208.043c.473-.42 1.341 1.784.789 2.204-.552.446-1.262-1.784-.789-2.204Z" fill="#6B3425"/><path d="M213.468 204.373c1.288.445-.158 5.191.683 7.918.842 2.754 3.207 6.975 3.706 11.564.5 4.589 1.314 7.997-2.497 9.492-3.81 1.521-5.519 1.416-5.992 1.259-.473-.158-.131-1.862-1.288-2.308-1.156-.446-3.39-2.071-2.838-5.795.552-3.723 2.759-9.833 2.865-14.028.105-4.195 3.127-8.889 5.361-8.102Z" fill="#A84400"/><path d="M229.605 203.951c1.524-.341 3.128 3.488 1.314 3.802-1.813.315-3.127-3.409-1.314-3.802Z" fill="#fff"/><path d="M230.655 204.79c.342-.341 1.051 1.574.657 1.942-.394.367-.999-1.601-.657-1.942Z" fill="#6B3425"/><path d="M293.182 198s10.854 7.499 17.031 9.728c6.202 2.203 12.169 6.503 13.062 11.196.894 4.694-4.205 14.422-7.306 17.726-3.102 3.304-4.652 6.398-3.549 9.046 1.104 2.648 5.31 17.437 5.31 17.437l-1.341 1.337s.894 2.649-.657 2.649c-1.551 0-19.922-4.851-19.922-4.851s-6.176-9.754-6.176-15.051c0-5.297 6.859-20.531 6.859-20.531s-9.514-5.297-12.169-10.384c-2.654-5.087-2.864-12.586-2.864-12.586L293.182 198Z" fill="#002D4C"/><path d="M292.523 201.958c2.996.105 7.859 1.757 9.909 5.533 2.05 3.749 4.704 9.282 3.6 9.728-1.103.446-6.649.55-8.62 1.704-1.971 1.154-6.65 5.795-10.618 7.132-3.995 1.338-8.621 2.858-8.621 2.858l-5.099-7.735s12.169-9.728 13.273-11.93c1.077-2.203 3.154-7.395 6.176-7.29Z" fill="#FFE051"/><path d="M295.835 262.241s-5.94-.656-6.176 2.202c-.237 2.858 1.235 3.094 7.122 3.986 5.888.891 16.532-1.337 16.532-1.337l-17.478-4.851Z" fill="#6B3425"/><path d="M264.192 222.123c.605-.944 4.206.656 5.02.656.815 0 4.258-.97 4.258-.97l3.627 5.506s-1.997 9.335-4.047 8.863c-.815-.184.946-3.986.525-4.117-.447-.157-2.733 5.034-3.916 4.589-1.183-.446 1.84-4.877 1.341-5.323-.526-.446-4.942 5.008-6.203 3.618-1.262-1.389 3.548-4.641 3.39-5.139-.157-.524-5.756 2.281-6.202.577-.447-1.704 5.913-4.195 5.756-4.93-.158-.734-4.574-1.704-3.549-3.33ZM261.089 207.177c.684.079 1.157 2.806 1.63 3.357.473.55 3.916 2.097 3.916 2.097v5.717s-3.522 2.176-6.807 2.91c-3.312.734-5.125 1.285-5.336 0-.078-.498 3.654-1.285 3.522-2.071-.131-.813-5.677.603-5.598-.813.079-1.416 5.204-.734 5.125-1.416-.079-.682-5.125-.603-5.125-1.678s4.915-.053 4.994-.656c.079-.603-3.706-.839-3.18-1.966.552-1.154 5.204-.341 5.677-.551.473-.21-.631-5.113 1.182-4.93ZM272.916 180.798s-1.656 2.307-1.445 6.109c.157 2.911 1.287 5.743 1.445 7.5.158 1.73.394 4.51 1.682 6.581 1.262 2.072 4.573 4.379 9.173 3.986 4.573-.367 7.806-2.282 9.278-5.638 1.471-3.356 2.838-8.915 2.628-12.402-.21-3.488-1.761-9.676-6.545-11.04-6.176-1.73-12.142.21-16.216 4.904Z" fill="#F69576"/><path d="M288.161 195.167s.972 2.123-.263 3.356c-1.209 1.232-2.944 1.835-4.1 1.599-1.157-.236-2.366-1.232-2.366-1.232l6.729-3.723Z" fill="#fff"/><path d="M282.167 195.063c-.447.079-.552-.341-.631-.551 0-.026 0-.026-.026-.052-.026.026-.026.052-.052.052-.106.158-.29.42-.631.236-.132-.052-.237-.21-.289-.419-.105-.42-.053-1.102.157-1.364.053-.053.132-.079.184-.027.053.053.079.131.027.184-.132.184-.211.761-.106 1.154.027.131.106.236.158.262.132.053.184 0 .316-.157.052-.079.131-.184.21-.21a.17.17 0 0 1 .158 0c.105.053.131.158.157.289.079.288.158.393.342.367.079 0 .131-.026.158-.079.052-.078 0-.262-.027-.367-.026-.105-.052-.157-.026-.236.026-.079.053-.131.131-.157.106-.053.29 0 .526.131.053.026.105.052.158 0 .079-.053.131-.184.105-.394-.053-.314-.526-.813-.71-.97a.128.128 0 0 1 0-.184.128.128 0 0 1 .184 0c.079.079.736.656.789 1.154.026.289-.053.525-.237.656-.131.079-.289.079-.447 0-.131-.079-.21-.105-.262-.105 0 .026.026.053.026.079.052.157.105.393 0 .577a.383.383 0 0 1-.237.157c-.026-.052-.052-.052-.105-.026ZM286.307 191.524c.427-.142.541-.948.256-1.799-.285-.852-.863-1.427-1.29-1.285-.426.143-.541.949-.256 1.8.286.852.863 1.426 1.29 1.284ZM287.266 185.755c-.237-.262-.736-.603-1.288-.735-.604-.131-.972.105-1.235.132-.263.026-.237-.315-.079-.578.158-.262.71-.419 1.551-.288s1.235.577 1.445.839c.184.289-.079.997-.394.63ZM278.24 193.781c.427-.142.541-.948.256-1.8-.286-.851-.863-1.426-1.29-1.284-.426.143-.541.948-.256 1.8.286.851.863 1.426 1.29 1.284ZM277.358 187.904c-.341-.078-.972-.078-1.524.158-.578.236-.788.655-.972.839-.184.184-.395-.105-.421-.446-.026-.341.342-.787 1.13-1.154.789-.394 1.393-.262 1.735-.131.341.078.525.839.052.734Z" fill="#6B3425"/><path d="M270.025 182.529s-1.866-1.679-1.13-3.409c.71-1.705 3.154-1.049 3.154-1.049s-.263-3.042 2.339-4.091c2.602-1.048 3.128.236 3.128.236s1.735-3.644 5.178-3.041c3.443.603 3.39 2.15 3.39 2.15s3.101-2.491 5.151-.682c2.05 1.836 2.339 3.304 2.339 3.304s1.683.262 2.839 2.281-.604 2.963-.604 2.963 2.181-.786 2.917 2.229c.736 3.015-5.283 8.102-5.283 8.102s-.263-8.05-1.919-9.728c-1.655-1.652-2.076-.131-3.837-1.573-1.787-1.442-1.498-2.806-1.498-2.806s-1.971 1.757-3.574 1.469c-1.577-.289-1.866-1.678-1.866-1.678s-1.577 2.648-3.522 3.487c-1.945.839-2.418-.655-2.418-.655s-1.288 4.352-4.784 2.491Z" fill="#A84400"/><path d="M297.99 184.625c-1.813-2.124-8.279 2.491-5.414 6.582 2.891 4.143 8.069-3.461 5.414-6.582Z" fill="#F69576"/><path d="M294.101 191.313a.056.056 0 0 0 .052-.052.128.128 0 0 0-.052-.158c-.395-.236-.815-1.232-.763-2.36.027-.786.289-2.228 1.788-2.936.788-.367 1.419-.446 1.892-.158.683.394.736 1.39.736 1.39 0 .053.052.105.131.105.053 0 .105-.052.105-.131 0-.053-.078-1.128-.867-1.573-.526-.315-1.235-.263-2.103.157-1.156.551-1.866 1.704-1.918 3.146-.026 1.128.368 2.255.893 2.57h.106Z" fill="#6B3425"/><path d="M296.543 190.027c.053-.026.079-.052.079-.105 0-.105.158-2.36-1.787-4.169-.053-.052-.105-.052-.158 0-.052.053-.052.105 0 .158 1.866 1.73 1.709 3.959 1.709 3.985 0 .053.052.105.105.131.026.026.026.026.052 0Z" fill="#6B3425"/></svg>