<svg width="375" height="308" fill="none" xmlns="http://www.w3.org/2000/svg"><path d="M169.758 54.385c18.162 3.435 52.381-66.68 90.255-51.21 37.873 15.471 10.039 65.317 23.549 76.487 13.509 11.17 50.515-23.205 66.074 12.901 15.559 36.107-8.095 74.783-8.437 80.787-.342 6.005 42.657 38.283 30.724 82.728-11.932 44.445-170.389 48.745-226.949 50.449-56.56 1.705-132.175 1.574-143.318-44.759-11.144-46.333 39.476-86.687 44.154-99.64 4.678-12.953-37.663-58.027 15.428-113.433 41.08-42.871 90.359 2.255 108.52 5.69Z" fill="#9ECBDD"/><path d="M1.708 261.743c11.144 46.332 86.785 46.49 143.319 44.759 56.533-1.73 214.991-6.004 226.949-50.449 8.122-30.233-9.172-54.855-20.973-69.381H27.229c-15.087 19.089-32.564 45.887-25.52 75.071Z" fill="#776B67"/><path d="M12.588 207.7c-9.25 15.864-15.638 34.428-10.907 54.042 11.144 46.332 86.785 46.49 143.319 44.759 56.533-1.73 214.991-6.004 226.949-50.449 4.994-18.591.368-35.058-6.649-48.352H12.588Z" fill="#3D3B38"/><path d="M160.665 91.123s-3.259-6.294 4.153-7.002c-.763-5.008 6.491-12.56 19.081-9.334 2.129-5.454 14.14-15.077 22.498-3.357 15.927-6.66 18.187 2.937 16.058 4.668 12.353-2.229 10.171 6.214 8.095 7.158 16.348-3.487 14.088 7.867 14.088 7.867h-83.973ZM270.21 128.068s-1.366-3.488 1.735-3.881c-.315-2.78 2.707-6.949 7.964-5.166.893-3.015 5.913-8.338 9.382-1.861 6.65-3.698 7.596 1.625 6.702 2.569 5.152-1.232 4.258 3.435 3.365 3.96 6.833-1.941 5.887 4.352 5.887 4.352H270.21v.027Z" fill="#fff"/><path d="M92.723 193.909H81.29v6.555h11.433v-6.555Z" fill="#6B3425"/><path d="M103.815 179.12h14.508l-4.258-18.119-10.25-3.854h9.33l-1.104-4.668-16.505-1.258 15.48-3.121-2.181-9.282-13.3-4.169s7.255-.42 12.143-.682l-6.623-28.188-10.828-.944 10.329-1.153-13.562-57.818-8.016 34.14h4.967l-5.677 3.015-2.55 10.83h9.252l-9.777 2.334-.894 3.775h5.178l-5.598 1.81-5.362 22.759 12.8 2.701-14.087 2.858-4.31 18.303h13.298l-14.64 5.663-4.441 18.932a4697.092 4697.092 0 0 0 17.241 2.465l-18.424 2.569-3.732 15.89h69.623l-2.077-8.836-15.953-5.952Z" fill="#7EA21A"/><path d="M155.492 198.68h6.15v-3.54h-6.15v3.54Z" fill="#6B3425"/><path d="M149.521 187.196h-7.805l2.286-9.755 5.519-2.071h-5.019l.578-2.517 8.883-.682-8.331-1.678 1.182-5.008 7.149-2.255s-3.916-.236-6.544-.368l3.574-15.181 5.835-.499-5.572-.629 7.333-31.151 4.337 18.381h-2.681l3.049 1.626 1.366 5.821h-4.967l5.283 1.259.473 2.045h-2.786l3.022.97 2.891 12.245-6.886 1.443 7.596 1.547 2.313 9.859h-7.149l7.885 3.041 2.391 10.2c-3.784.551-9.277 1.338-9.277 1.338l9.934 1.389 2.024 8.548h-37.584l1.13-4.772 8.568-3.146Z" fill="#7EA21A"/><path d="M146.525 230.854h-19.712v3.959h19.712v-3.959ZM217.225 230.854h-19.712v3.959h19.712v-3.959ZM193.57 230.854h-19.712v3.959h19.712v-3.959ZM122.872 230.854H103.16v3.959h19.712v-3.959ZM99.217 230.854H82.133v3.959h17.084v-3.959ZM78.19 230.854H58.478v3.959H78.19v-3.959ZM54.537 230.854H34.825v3.959h19.712v-3.959ZM169.917 230.854h-19.449v3.959h19.449v-3.959ZM354.683 230.854h-19.712v3.959h19.712v-3.959ZM30.882 230.854H6.833v3.959h24.049v-3.959ZM331.028 230.854h-19.712v3.959h19.712v-3.959ZM363.197 230.854h-4.573v3.959h4.573v-3.959ZM285.56 230.854h-19.712v3.959h19.712v-3.959ZM261.905 230.854h-19.712v3.959h19.712v-3.959ZM238.25 230.854h-17.083v3.959h17.083v-3.959ZM307.374 230.854h-17.872v3.959h17.872v-3.959Z" fill="#fff"/><path d="m136.537 177.232-70.568 3.146-13.772-14.946L62.42 148.52l74.117 5.113v23.599Z" fill="#6B3425"/><path d="M132.594 148.52h-3.942v58.604h3.942V148.52Z" fill="#6B3425"/><path d="M82.894 158.091c-.473 1.206-.999 3.016-1.603 5.507-.552 2.228-.815 3.487-.815 3.775 0 .027 0 .236.026.63a.943.943 0 0 1-.105.55c-.105.21-.21.341-.368.368-.263.052-.788-.053-1.603-.289-.788-.262-1.262-.472-1.367-.655-.052-.079-.078-.21-.105-.341l-.052-.367c-.526-1.652-.947-3.199-1.236-4.668-.289-1.468-.525-2.832-.63-4.143a1.62 1.62 0 0 0-.08-.288c-.026-.105-.026-.21-.026-.289.053-.314.184-.524.395-.576.105-.027.473.052 1.156.262.683.21 1.078.393 1.157.55.026.105.026.289 0 .577 0 .053-.053.131-.106.236a.587.587 0 0 0-.078.262c.078.472.131.918.21 1.338.052.419.131.813.184 1.18.289 1.73.5 2.753.683 3.094.158-.839.42-1.914.815-3.225.394-1.338.683-2.439.815-3.304 0-.184.052-.394.131-.682.079-.21.237-.341.447-.42.157-.052.5.027 1.025.236.604.21.972.446 1.13.682ZM86.39 168.133c.052.315-.08.525-.342.603-.026 0-.079.027-.184.027-.342 0-.736-.079-1.209-.21-.526-.157-.815-.315-.92-.446-.052-.078 0-.21.132-.419.078-.131.131-.394.131-.761v-5.716c-.105-.341-.158-.577-.158-.682 0-.105.158-.183.5-.183.263 0 .63.078 1.13.262.5.184.814.315.893.446.027.052.053.078.053.131 0 .078-.053.21-.158.419-.105.21-.157.367-.157.446v5.48c0 .053.026.105.052.158.026.052.079.131.105.183.053.053.08.131.105.184 0 0 .027.052.027.078Zm.026-9.413s.026.052.026.105c0 .21-.052.472-.131.787-.105.34-.184.524-.263.576-.079.027-.473-.052-1.183-.288-.683-.236-1.051-.393-1.104-.498-.026-.026-.052-.105-.052-.21 0-.236.052-.498.184-.787.157-.288.315-.472.5-.524.21-.052.577.026 1.077.236.552.21.867.419.946.603ZM90.174 157.829c0 .053-.026.158-.052.263a.71.71 0 0 0-.08.209 6.1 6.1 0 0 0-.157.84v8.338c0 .105.026.21.08.288a.421.421 0 0 1 .078.21c0 .577-.105.892-.316.918-.105.026-.394-.053-.867-.184-.5-.131-.788-.236-.893-.314-.21-.158-.29-.315-.29-.472 0-.027.027-.079.053-.131a.529.529 0 0 0 .053-.236v-9.597c0-.053-.027-.105-.053-.158a.37.37 0 0 1-.053-.157c.027-.21.184-.367.5-.446h.578c.184.026.342.026.473.053l.394.078c.368.131.552.289.552.498ZM93.958 157.829c0 .053-.026.158-.052.263a.712.712 0 0 0-.079.209 6.07 6.07 0 0 0-.158.84v8.338c0 .105.027.21.08.288a.42.42 0 0 1 .078.21c0 .577-.105.892-.315.918-.106.026-.395-.053-.868-.184-.5-.131-.788-.236-.893-.314-.21-.158-.29-.315-.29-.472a.43.43 0 0 1 .053-.131.527.527 0 0 0 .053-.236v-9.597c0-.053-.027-.105-.053-.158a.37.37 0 0 1-.052-.157c.026-.21.183-.367.499-.446h.578c.184.026.342.026.473.053l.394.078c.368.131.552.289.552.498ZM101.292 168.107a.372.372 0 0 1-.158.314c-.105.079-.21.132-.341.105-1.13-.157-1.761-.367-1.893-.629-.026-.052-.026-.079-.026-.105a.933.933 0 0 1 .105-.236c.053-.079.079-.131.105-.183 0-.027.026-.105.026-.158v-.314c-.105.078-.262.288-.499.655-.131.21-.237.367-.315.498-.106.131-.184.236-.29.315-.288.262-.63.42-.998.42a.854.854 0 0 1-.631-.263c-.052-.052-.105-.105-.21-.183-.08-.079-.21-.184-.316-.341l-.71-.813c-.183-.262-.288-.498-.288-.708 0-.052 0-.131.026-.21.184-.786.71-1.547 1.603-2.281.631-.498 1.55-1.049 2.786-1.652 0-.288-.079-.472-.21-.55-.079-.053-.42.052-.946.314s-.92.472-1.157.656l-.131.131a1.456 1.456 0 0 1-.21.157c-.158.105-.29.131-.42.079-.106-.026-.316-.184-.632-.498-.315-.289-.5-.499-.525-.604-.08-.262 0-.445.236-.576.026-.027.21-.079.552-.158l.999-.55c.341-.184.657-.315.972-.394.316-.078.578-.131.815-.157.21-.026.447.079.71.315l.709.629c.237.21.5.393.736.603.289.262.447.498.447.734v5.14c.053.262.105.419.079.498Zm-2.182-3.986c-.236.079-.446.21-.63.315a2.931 2.931 0 0 0-.526.472l-.71.865c-.184.184-.368.446-.552.761-.157.288-.236.524-.236.655 0 .079.026.105.079.105.184 0 .604-.42 1.288-1.232.657-.813 1.104-1.469 1.287-1.941ZM108.204 161.211l-.158.262c-.053.105-.105.21-.105.289v5.952c0 1.494-.552 2.465-1.682 2.884-.5.21-.973.289-1.42.289-.63 0-1.156-.21-1.603-.63-.052-.052-.158-.131-.236-.262a6.09 6.09 0 0 0-.421-.446l-.263-.262a.597.597 0 0 1-.157-.315c-.027-.131.105-.236.42-.314.026 0 .079-.026.158-.026.105 0 .21 0 .341.026.132.026.263.052.368.078.132.027.237.079.342.132a.906.906 0 0 1 .237.157c.078.078.157.183.21.288.079.105.158.184.236.262.079.079.158.158.263.21a.548.548 0 0 0 .289.105c.368.053.605-.21.71-.76.053-.262.079-.708.079-1.39l-.263.341c-.105.131-.184.236-.289.288a.435.435 0 0 1-.316.131c-.499 0-.893-.131-1.209-.393-.972-.813-1.445-2.019-1.445-3.592 0-.997.21-1.888.631-2.701.447-.865 1.025-1.39 1.734-1.599.079-.027.132-.027.158-.027.158 0 .315.079.499.21l.474.367c.052-.157.105-.314.157-.446a.366.366 0 0 1 .289-.262c.184-.026.526.026.999.184.499.157.762.262.841.393.158.262.184.42.132.577Zm-2.418 3.33c.026-.315.052-.603.078-.865.027-.262.027-.472.027-.682 0-.734-.132-1.128-.368-1.232-.184-.079-.421.262-.71.97-.263.734-.42 1.389-.42 1.966 0 1.075.131 1.914.394 2.544a5.754 5.754 0 0 0 .999-2.701ZM114.723 166.011c.079.131-.105.551-.526 1.206a5.3 5.3 0 0 1-.709.892 3.91 3.91 0 0 1-.684.55.524.524 0 0 1-.236.053c-.342 0-.815-.105-1.393-.315-.605-.21-.999-.42-1.209-.682-.526-.682-.789-1.625-.789-2.832 0-1.153.237-2.15.684-3.015.499-.97 1.156-1.442 1.918-1.442.263 0 .605.052 1.025.21.5.183.894.445 1.209.786.079.079.158.315.237.734.053.21.079.446.105.656.026.21.026.419.026.629 0 .63-.105 1.049-.289 1.285-.92.288-1.892.446-2.864.498 0 .446.052.918.157 1.39.105.472.263.734.394.76.184.027.395-.131.658-.445.21-.236.367-.472.42-.656.026-.131.079-.262.105-.419.053-.132.079-.289.132-.42.157-.026.446.052.867.21.447.105.71.262.762.367Zm-2.418-4.143c-.158 0-.368.236-.657.734-.289.525-.447.997-.473 1.442.394 0 .736-.105.972-.288.158-.105.211-.551.211-1.364.026-.341 0-.524-.053-.524Z" fill="#fff"/><path d="m250.893 176.653 70.568 3.146 13.799-14.946-10.251-16.913-74.116 5.114v23.599Z" fill="#6B3425"/><path d="M254.826 206.523h3.943v-58.604h-3.943v58.604Z" fill="#6B3425"/><path d="M268.712 157.618c-.709 1.285-1.34 3.251-1.918 5.847-.473 2.15-.71 3.435-.657 3.881a.312.312 0 0 0 .026.262.913.913 0 0 1 .026.236c-.079.42-.184.656-.368.682-.131.026-.578-.131-1.366-.472-.789-.315-1.209-.577-1.262-.734 0 0-.026-.289-.052-.839a17.656 17.656 0 0 1-.789-3.645c-.131.314-.263.655-.394.97-.132.315-.263.655-.368.97-.132.341-.21.708-.263 1.049a6.99 6.99 0 0 0-.079 1.049.632.632 0 0 0 0 .314c.026.132.026.263.026.341-.078.394-.21.603-.394.656-.079.026-.157.026-.21.026-.421 0-.894-.105-1.419-.288-.657-.236-1.025-.499-1.104-.813 0-.053 0-.289-.026-.708-.421-1.547-.71-2.963-.868-4.222a21.791 21.791 0 0 1-.157-1.993c-.027-.734-.027-1.52-.027-2.386-.079-.445-.105-.708-.079-.813.106-.393.29-.576.5-.576.236.026.631.157 1.13.419.499.262.788.498.841.656 0 .052 0 .314-.053.786-.026.21-.026.42-.052.603 0 .184-.026.367-.026.551 0 .393.026.892.105 1.521.079.629.157 1.39.289 2.255l1.918-5.979c0-.104.053-.288.158-.498a.624.624 0 0 1 .421-.236c.105-.026.473.131 1.077.446.631.288.946.498.946.629v.289c0 .157 0 .367-.026.629-.026.656-.052 1.206-.052 1.678 0 .603.026 1.154.052 1.652s.079.97.158 1.39c.131-.629.263-1.259.42-1.914.158-.656.342-1.311.526-1.967.158-.524.289-.97.394-1.337.105-.367.21-.629.289-.813.105-.446.342-.656.71-.603.158.026.315.052.473.105.158.052.342.131.526.21.63.262.92.498.998.734ZM274.836 167.53a.375.375 0 0 1-.158.315c-.105.078-.21.131-.342.105-1.13-.158-1.761-.367-1.892-.63-.026-.052-.026-.078-.026-.105.026-.078.052-.157.105-.236.052-.078.079-.131.105-.183 0-.026.026-.105.026-.157v-.315c-.105.079-.263.288-.499.655-.105.21-.237.368-.316.499-.105.131-.184.236-.289.314-.289.263-.631.42-.998.42a.857.857 0 0 1-.631-.262 1.677 1.677 0 0 0-.211-.184c-.078-.079-.21-.183-.315-.341l-.71-.813c-.184-.262-.289-.498-.289-.708 0-.052 0-.131.027-.209.184-.787.709-1.547 1.603-2.282.631-.498 1.551-1.048 2.786-1.652 0-.288-.079-.472-.21-.55-.079-.053-.421.052-.947.314-.525.263-.919.472-1.156.656l-.131.131c-.053.053-.132.105-.211.157-.157.105-.289.132-.42.079-.105-.026-.316-.183-.631-.498-.315-.289-.499-.498-.526-.603-.079-.262 0-.446.237-.577.026-.026.21-.079.552-.157l.999-.551c.341-.184.657-.315.972-.393.315-.079.578-.131.815-.158.21-.026.447.079.709.315l.71.629c.237.21.499.394.736.603.289.263.447.499.447.735v5.139c.052.262.079.419.079.498Zm-2.182-3.985c-.236.078-.447.209-.631.314a2.939 2.939 0 0 0-.525.472l-.71.865c-.184.184-.368.446-.552.761-.158.288-.236.524-.236.655 0 .079.026.105.078.105.184 0 .605-.419 1.288-1.232.657-.813 1.078-1.469 1.288-1.94ZM281.223 160.607a.316.316 0 0 1-.158.341 11.63 11.63 0 0 1-.158.079c-.052.026-.105.052-.157.105l-2.34 3.513c0 1.469 0 2.203.027 2.229l.105.341c.052.157.105.315.105.446 0 .157-.079.262-.237.341a.927.927 0 0 1-.42.078c-.315 0-.71-.078-1.156-.236-.526-.157-.789-.393-.789-.681 0-.027 0-.079.026-.158l.079-.236.079-.236c.026-.078.026-.157.026-.209v-5.376l-.157-.786c0-.289.131-.472.394-.525.105-.026.236-.052.394-.052.158 0 .315.026.473.052.158.026.342.079.5.105.341.105.551.21.63.315.027.052.027.105.027.131 0 .026-.053.236-.184.655v.656c.105-.21.21-.393.315-.577.105-.183.21-.393.315-.577.263-.498.473-.76.631-.786.21-.027.5.078.92.34.421.315.657.525.71.708ZM286.585 166.479c0 .498-.158.892-.5 1.18-.341.289-.788.446-1.393.446-.079 0-.157 0-.236-.026-.079-.026-.158-.026-.263-.053-.316-.078-.473-.131-.5-.131-.157-.026-.341-.078-.499-.105a.802.802 0 0 1-.42-.209c-.211-.184-.395-.42-.579-.761l-.446-.786c-.158-.263-.211-.42-.211-.472 0-.105.079-.21.263-.289.053-.026.132-.026.237-.026.131 0 .289 0 .446.026.158.026.368.053.579.079.42.078.657.131.683.157.026.026.079.289.158.787.052.419.157.629.289.629.21 0 .315-.288.315-.839 0-.708-.184-1.154-.578-1.337-.867-.42-1.446-.761-1.708-1.075-.342-.394-.5-.971-.5-1.757 0-.525.132-.997.421-1.442.263-.446.604-.735.972-.839.158-.027.684.131 1.577.524.053.026.132.026.237.052.105.027.289.053.473.079.263.053.473.157.604.289.184.209.263.524.289.996 0 .184.027.341.027.498v.498c.052.289.105.472.105.551 0 .262-.132.393-.368.446-.053 0-.158 0-.289-.026-.132-.027-.289-.079-.473-.132-.421-.131-.657-.288-.789-.419-.026-.026-.052-.367-.079-1.023-.026-.603-.078-.917-.184-.917-.131 0-.262.183-.394.524a3.723 3.723 0 0 0-.184 1.101c0 .472.105.787.316.918.236.131.446.262.657.367.21.105.446.236.657.367.447.262.762.498.92.761.236.34.368.786.368 1.389ZM294.232 161.183c-.053.052-.105.105-.184.157-.079.053-.184.105-.289.184l-3.338 4.641 1.787-.157c.289-.131.447-.21.473-.21.053 0 .132.026.211.079.21.157.394.419.525.786.053.184.105.315.132.446.026.131.026.236.026.315-.053.262-.289.393-.683.393-.079 0-.158 0-.263-.026-.105-.027-.21-.027-.342-.053l-2.707.289a.491.491 0 0 0-.184.052.924.924 0 0 0-.236.105c-.184.079-.29.131-.342.131-.026 0-.053 0-.079-.026-.079-.026-.158-.105-.263-.21l-.394-.393c-.342-.42-.526-.734-.526-.97 0-.027 0-.079.027-.105.026-.027.078-.105.157-.184.079-.052.132-.105.184-.157.053-.053.105-.079.132-.105l3.338-4.772-1.499.314c-.052.027-.157.053-.315.131a.9.9 0 0 1-.315.079c-.132 0-.316-.21-.579-.629-.262-.42-.394-.708-.368-.892 0-.183.158-.314.421-.341.026 0 .21-.026.578-.026l3.364-.498c.342-.079.552-.131.579-.131.052 0 .131 0 .184.026a.552.552 0 0 1 .157.105.905.905 0 0 1 .158.236c.053.105.131.236.21.393.21.394.316.682.316.839 0 .105-.027.158-.053.184ZM301.512 167.53a.374.374 0 0 1-.157.315c-.105.078-.211.131-.342.105-1.13-.158-1.761-.367-1.892-.63-.027-.052-.027-.078-.027-.105.027-.078.053-.157.106-.236.052-.078.078-.131.105-.183 0-.026.026-.105.026-.157v-.315c-.105.079-.263.288-.499.655-.105.21-.237.368-.316.499-.105.131-.184.236-.289.314-.289.263-.631.42-.999.42a.856.856 0 0 1-.63-.262 1.754 1.754 0 0 0-.211-.184c-.078-.079-.21-.183-.315-.341l-.71-.813c-.184-.262-.289-.498-.289-.708 0-.052 0-.131.027-.209.183-.787.709-1.547 1.603-2.282.631-.498 1.55-1.048 2.786-1.652 0-.288-.079-.472-.211-.55-.078-.053-.42.052-.946.314-.525.263-.92.472-1.156.656l-.132.131c-.052.053-.131.105-.21.157-.158.105-.289.132-.42.079-.105-.026-.316-.183-.631-.498-.316-.289-.499-.498-.526-.603-.079-.262 0-.446.237-.577.026-.026.21-.079.552-.157l.998-.551c.342-.184.657-.315.973-.393.315-.079.578-.131.815-.158.21-.026.446.079.709.315l.71.629c.236.21.499.394.736.603.289.263.447.499.447.735v5.139c.052.262.105.419.078.498Zm-2.181-3.985c-.237.078-.447.209-.631.314a2.939 2.939 0 0 0-.525.472l-.71.865c-.184.184-.368.446-.552.761-.158.288-.237.524-.237.655 0 .079.027.105.079.105.184 0 .605-.419 1.288-1.232.684-.813 1.104-1.469 1.288-1.94ZM311.658 160.634c-.21.577-.42 1.207-.63 1.915-.211.707-.421 1.468-.657 2.307-.184.734-.342 1.337-.421 1.757-.079.419-.131.682-.131.786v.499c0 .236-.079.367-.237.393-.131.026-.526-.052-1.183-.21-.683-.183-1.051-.314-1.077-.419-.027-.053-.027-.263-.027-.63-.236-.734-.42-1.861-.578-3.382-.026.131-.079.341-.157.682-.079.314-.184.76-.316 1.311-.105.419-.184.734-.21.996a3.263 3.263 0 0 0-.079.551l-.026.55c0 .263-.105.394-.263.446-.026 0-.079.026-.184.026-.315 0-.683-.052-1.078-.183-.473-.158-.762-.315-.841-.525-.026-.052-.026-.131-.026-.236.026-.105 0-.209-.026-.367l-.578-3.015c-.106-.525-.184-1.049-.263-1.573a31.22 31.22 0 0 1-.184-1.574c-.026-.288-.053-.445-.053-.498 0-.393.105-.551.342-.551.21.027.526.105.972.289.5.21.763.367.789.472v.21c0 .104-.026.236-.026.393.026.341.078.813.131 1.442.079.629.158 1.364.289 2.255l.946-4.484c.079-.314.21-.524.421-.55.052 0 .315.105.815.341.473.236.709.393.709.472.026.445.079.996.184 1.704s.237 1.547.421 2.517c.262-1.311.473-2.36.657-3.094.184-.734.315-1.232.42-1.442.079-.341.263-.498.552-.446.237.026.526.131.867.289.447.183.684.393.736.576ZM318.887 167.53a.375.375 0 0 1-.158.315c-.105.078-.21.131-.342.105-1.13-.158-1.761-.367-1.892-.63-.026-.052-.026-.078-.026-.105.026-.078.052-.157.105-.236.052-.078.079-.131.105-.183 0-.026.026-.105.026-.157v-.315c-.105.079-.263.288-.499.655-.105.21-.237.368-.316.499-.105.131-.184.236-.289.314-.289.263-.63.42-.998.42a.857.857 0 0 1-.631-.262c-.053-.053-.105-.105-.21-.184-.079-.079-.211-.183-.316-.341l-.709-.813c-.184-.262-.29-.498-.29-.708 0-.052 0-.131.027-.209.184-.787.709-1.547 1.603-2.282.631-.498 1.551-1.048 2.786-1.652 0-.288-.079-.472-.21-.55-.079-.053-.421.052-.947.314-.525.263-.919.472-1.156.656l-.131.131c-.053.053-.132.105-.211.157-.157.105-.289.132-.42.079-.105-.026-.316-.183-.631-.498-.315-.289-.499-.498-.526-.603-.078-.262 0-.446.237-.577.026-.026.21-.079.552-.157l.999-.551c.341-.184.657-.315.972-.393.315-.079.578-.131.815-.158.21-.026.447.079.709.315l.71.629c.237.21.499.394.736.603.289.263.447.499.447.735v5.139c.052.262.105.419.079.498Zm-2.182-3.985c-.236.078-.447.209-.631.314a2.939 2.939 0 0 0-.525.472l-.71.865c-.184.184-.368.446-.552.761-.158.288-.236.524-.236.655 0 .079.026.105.078.105.184 0 .605-.419 1.288-1.232.684-.813 1.104-1.469 1.288-1.94Z" fill="#fff"/><path d="M198.617 162.18s-4.311-1.888-8.332 1.6c-2.681 2.333-2.05 9.098-.604 11.222 1.445 2.124 7.148 5.507 7.148 5.507s16.926-16.677 1.788-18.329Z" fill="#A5713D"/><path d="M229.84 209.536c-.21-.525-.446-1.049-.657-1.548h-.026c.237.525.473 1.05.683 1.548ZM229.13 207.99c-3.601.577-10.329 1.521-10.329 1.521l-1.524-9.807-7.675 1.678s1.735 10.043 2.76 12.56c1.025 2.544 2.864 2.648 4.1 2.517.946-.105 9.777-2.543 14.613-3.854a55.056 55.056 0 0 1-1.945-4.615Z" fill="#DD866F"/><path d="M211.023 254.007c-1.131-10.016-5.572-28.397-5.572-28.397l12.931-2.858s1.866 7.499 3.048 20.269" fill="#254B6B"/><path d="m192.547 227.55 15.059-2.255s5.704 29.892 4.758 31.491" fill="#254B6B"/><path d="M197.644 185.387c7.464-1.285 10.066-.525 12.169 2.727 2.102 3.251 10.723 33.432 12.037 39.646 1.314 6.214.657 10.147-7.911 11.432-8.594 1.285-21.368-3.933-21.368-3.933s-.157 2.255-.315 3.619c-.158 1.389-3.574 3.382-3.916 1.075-.342-2.282-4.205-38.467-4.862-44.55-.71-6.057 8.489-9.046 14.166-10.016Z" fill="#000"/><path d="M205.923 186.253c2.839-1.206 5.572-1.573 8.411 2.439 2.838 4.011 6.57 17.279 6.57 17.279l-9.435 5.48c-.027-.026-13.089-21.973-5.546-25.198Z" fill="#000"/><path d="M200.116 184.388c-2.654.394-5.729 1.128-7.201 2.413-1.787 1.573-1.051 6.319 7.753 5.401 8.779-.917 7.885-4.929 6.834-6.004-1.551-1.574-5.362-2.098-7.386-1.81Z" fill="#F69576"/><path d="m202.69 178.438 3.338 10.646-10.303 1.547s-.157-4.405 0-7.315c.158-2.911.5-3.934.5-3.934l6.465-.944Z" fill="#F69576"/><path d="M198.644 182.083s.21 2.019 1.682 2.701c1.472.682 4.416.236 4.416.236l-2.077-6.582-4.336.656c.026 0-.027 1.731.315 2.989Z" fill="#DD866F"/><path d="M202.166 164.986s1.472.891 2.392 3.173c.71 1.756.92 3.749 1.314 4.798.395 1.075 1.025 2.779.946 4.353-.078 1.573-1.13 3.88-3.548 4.955-2.418 1.076-4.573.892-6.229-.655-1.655-1.547-3.863-4.431-4.704-6.529-.841-2.098-1.761-6.188.315-8.365 2.628-2.753 6.177-3.303 9.514-1.73Z" fill="#F69576"/><path d="M199.615 178.41s-.026.577.763.63c.788.052 1.734-.053 2.207-.289.473-.236.868-.603.868-.603l-3.838.262Z" fill="#BF644B"/><path d="M201.35 176.025c-.079 0-.131 0-.184-.026-.131-.078-.158-.236-.184-.341v-.052c-.026.026-.053.052-.105.131a.324.324 0 0 1-.263.131.423.423 0 0 1-.315-.315c-.105-.288.105-.839.131-.892.026-.052.079-.078.105-.052.053.026.079.079.053.105-.053.157-.184.577-.132.787a.38.38 0 0 0 .184.21c.053 0 .079-.027.105-.053.106-.157.184-.236.263-.236.053 0 .079.026.132.053.026.026.026.078.052.157.027.079.027.184.105.236.027.026.053.026.106 0 .105-.026.131-.131.078-.315a.29.29 0 0 1 0-.21c.027-.026.053-.052.079-.052a.38.38 0 0 1 .184.052c.132.053.158.079.237 0 .026-.026.026-.105.026-.183-.053-.263-.263-.577-.421-.63-.052-.026-.052-.078-.026-.105.026-.052.079-.052.105-.026.184.105.447.472.5.761.026.157.026.262-.053.341-.158.21-.342.105-.447.052-.026 0-.026-.026-.052-.026v.026c.026.158.079.42-.21.525 0-.079-.027-.079-.053-.053Z" fill="#6B3425"/><path d="M188.236 174.058c.499-2.045 6.439-1.154 5.94 2.57-.552 3.828-6.65.472-5.94-2.57Z" fill="#F69576"/><path d="M193.177 177.231c-.027 0-.053 0-.053-.027-.052-.026-.052-.078-.026-.131.184-.288.131-1.101-.289-1.861-.289-.525-.973-1.416-2.208-1.364-.657.026-1.104.21-1.34.524-.316.499-.027 1.18-.027 1.207.027.052 0 .105-.052.105-.053.026-.105 0-.105-.053-.027-.026-.342-.787.026-1.363.237-.394.736-.603 1.472-.603.972-.027 1.84.498 2.365 1.468.421.76.552 1.652.289 2.045-.026.053-.052.053-.052.053Z" fill="#6B3425"/><path d="M191.074 177.232c-.026 0-.079 0-.079-.053-.026-.052-.92-1.52-.237-3.408.027-.053.053-.079.106-.053.052.027.078.053.052.105-.657 1.809.21 3.252.21 3.278.027.052 0 .105-.026.105 0 .026 0 .026-.026.026ZM198.353 174.764c.172-.026.27-.325.218-.669-.052-.344-.234-.602-.406-.576-.172.026-.27.326-.218.669.052.344.233.602.406.576ZM196.566 172.695a2.688 2.688 0 0 1 1.183-.709c.552-.157.92.053 1.156.079.237.026.211-.288.053-.551-.158-.262-.683-.367-1.446-.236-.788.158-1.156.551-1.314.84-.184.288.079.918.368.577ZM203.139 173.898c.172-.026.27-.326.218-.67-.052-.344-.234-.602-.406-.576-.172.026-.27.326-.218.67.052.344.234.601.406.576ZM201.614 171.699c.21-.236.683-.577 1.183-.708.551-.158.919.052 1.156.078.236.027.21-.288.053-.55-.158-.263-.684-.368-1.446-.236-.762.131-1.156.55-1.314.839-.184.262.079.918.368.577ZM204.583 179.065l-.368.158s-.473 1.625-1.051 2.045c-.578.393-2.655.708-2.917.551-.263-.131-1.288-1.652-1.288-1.652l-.473.209s1.182 2.229 1.34 2.413c.105.105 1.656.786 2.182.734.525-.052 2.181-1.416 2.234-1.652.157-.734.341-2.806.341-2.806Z" fill="#6B3425"/><path d="m202.402 180.431-.92.157.289 1.6h.71l-.079-1.757Z" fill="#6B3425"/><path d="m197.906 207.465 1.551 9.807s11.775-1.626 12.484-1.941c.736-.288 4.074-3.881 4.442-4.09.368-.21.762-.131.683.367-.078.498-.446 2.019-.446 2.019s2.838-.761 3.075-.944c.236-.184 1.761-1.783 2.102-1.941.342-.157.973-.026.868.368-.106.393-1.42 2.727-1.42 2.727s.657 2.176-.052 3.146c-.736.944-4.626 2.229-6.545 2.648-1.918.42-16.321 4.484-17.556 4.615-1.236.131-3.075.027-4.1-2.517-1.025-2.543-2.76-12.56-2.76-12.56l7.674-1.704Z" fill="#F69576"/><path opacity=".4" d="m186.185 195.927 4.31 12.744-3.969 1.888-.341-14.632Z" fill="#254B6B"/><path d="M191.757 164.253s2.759 3.566 8.804 3.015c12.616-1.154 5.835-7.289 5.835-7.289s.71 1.783-1.419 2.202c-2.918.577-8.516-7.709-13.22 2.072Z" fill="#A5713D"/><path d="m254.597 223.643-36.138-30.181 26.204 29.63 9.934.551ZM191.861 219.787s-3.391-10.409-4.915-14.395c-1.524-3.985-5.598-3.042-4.915 0 .684 3.042 3.049 13.819 3.049 13.819l6.781.576ZM218.459 193.462v27.454l20.579 1.154-20.579-28.608Z" fill="#424B6A"/><path d="M249.131 219.999c-1.55-.079-56.928-2.072-70.805-1.521-13.903.577-72.855 2.832-73.696 2.832-.841 0-14.56 11.353-14.56 11.353v4.353s-8.122 5.113-8.463 6.241c-.342 1.127.157 13.268 2.365 17.987 2.208 4.72 6.44 11.354 6.44 11.354l220.562-.944s7.964-13.451 8.305-14.972c.342-1.521 0-12.114 0-12.114l-3.548-.577s-9.646-10.043-10.671-10.62c-1.051-.498-50.541-13.084-55.929-13.372Z" fill="#1D7DCC"/><path d="M315.705 244.042s-9.646-10.043-10.671-10.62c-1.025-.577-50.489-13.136-55.903-13.451-1.55-.079-56.928-2.072-70.805-1.521-13.903.577-72.855 2.832-73.696 2.832-.841 0-14.56 11.354-14.56 11.354v4.352s-8.122 5.113-8.463 6.241c-.316 1.049.105 11.511 1.918 16.808 0 0 18.372-20.61 52.723-21.528 34.351-.918 51.04 21.528 72.618 21.528 21.578 0 46.152-22.262 67.546-19.955 21.394 2.308 41.211 19.955 41.211 19.955.894-1.652 1.551-2.963 1.656-3.357.342-1.52 0-12.114 0-12.114l-3.574-.524Z" fill="#0C96FD"/><path d="M309.082 251.253v5.297l10.171.183v-5.48h-10.171Z" fill="#F1F3F2"/><path d="m103.946 237.041-4.415-5.873h-7.648l-1.84 1.521v4.352h13.903Z" fill="#7D009B"/><path d="m177.116 218.53-18.292-11.616s-25.416 3.828-32.197 5.795c-6.78 1.967-10.854 4.798-10.854 5.664v2.543l61.343-2.386Z" fill="#000"/><path d="M110.385 222.647s-1.524-6.634-.342-6.817c1.183-.184 5.073 6.057 5.073 6.057l-4.731.76Z" fill="#0C96FD"/><path d="M243.875 262.712H185.66c-6.124 0-8.49-4.09-8.621-10.331-.158-8.05 1.183-33.668 1.183-33.904 0-.052.052-.079.105-.079.052 0 .079.053.079.105-.027.263-.631 26.012-.447 34.062.131 6.109 2.497 9.046 8.489 9.046 3.601 0 53.722.183 56.35.236-.053-.997-.184-8.076-1.13-18.355-.999-10.882-7.806-23.835-7.859-23.94-.026-.052 0-.105.027-.131.052-.026.105 0 .131.026.079.131 7.464 12.901 8.489 23.835.999 10.908 1.525 19.299 1.525 19.378 0 .026 0 .052-.027.078-.026-.052-.052-.026-.079-.026Z" fill="#024168"/><path d="M182.375 227.183h9.12a.348.348 0 0 0 .342-.341v-2.334a.348.348 0 0 0-.342-.341h-9.12a.348.348 0 0 0-.342.341v2.334c0 .184.158.341.342.341Z" fill="#878FB3"/><path d="M306.926 235.129s3.706-1.521 6.229.944c2.55 2.464 1.025 6.371 1.025 6.371l-7.254-7.315Z" fill="#FFE051"/><path d="m218.459 193.462 19.686 29.63h6.518l-22.183-29.63h-4.021Z" fill="#0C96FD"/><path d="M228.658 208.696s-1.551 2.754-2.576 5.218c-1.025 2.491-1.183 5.323-1.183 5.323l11.013.289-7.254-10.83Z" fill="#0C96FD"/><path d="M251.313 272.623a24.57 24.57 0 0 1-.42-4.431c0-13.294 10.802-24.071 24.127-24.071s24.127 10.777 24.127 24.071a24.57 24.57 0 0 1-.42 4.431h-47.414Z" fill="#024168"/><path d="M274.941 286.913c11.235 0 20.342-9.086 20.342-20.295 0-11.208-9.107-20.295-20.342-20.295s-20.343 9.087-20.343 20.295c0 11.209 9.108 20.295 20.343 20.295Z" fill="#000"/><path d="M274.942 280.279c7.562 0 13.693-6.116 13.693-13.661s-6.131-13.661-13.693-13.661c-7.563 0-13.693 6.116-13.693 13.661s6.13 13.661 13.693 13.661Z" fill="#606060"/><path d="M274.941 276.164c5.284 0 9.567-4.274 9.567-9.545s-4.283-9.544-9.567-9.544c-5.283 0-9.566 4.273-9.566 9.544 0 5.271 4.283 9.545 9.566 9.545Z" fill="#000"/><path d="M286.531 273.986a13.499 13.499 0 0 1-1.893 2.386 15.381 15.381 0 0 1-2.181 1.783l-18.923-18.957a13.725 13.725 0 0 1 1.787-2.177 13.545 13.545 0 0 1 2.391-1.888l18.819 18.853Z" fill="#A8A9AD"/><path d="M282.616 255.265c.841.55 1.629 1.18 2.365 1.94a15.25 15.25 0 0 1 1.735 2.203l-19.265 18.59a13.985 13.985 0 0 1-2.155-1.809 14.5 14.5 0 0 1-1.867-2.412l19.187-18.512Z" fill="#A8A9AD"/><path d="M115.537 272.466a24.57 24.57 0 0 1-.421-4.431c0-13.294 10.803-24.071 24.128-24.071s24.127 10.777 24.127 24.071c0 1.521-.158 2.989-.42 4.431h-47.414Z" fill="#024168"/><path d="M139.243 285.813c11.235 0 20.343-9.087 20.343-20.295 0-11.209-9.108-20.295-20.343-20.295s-20.342 9.086-20.342 20.295c0 11.208 9.107 20.295 20.342 20.295Z" fill="#000"/><path d="M139.244 279.179c7.563 0 13.694-6.117 13.694-13.661 0-7.545-6.131-13.662-13.694-13.662-7.562 0-13.693 6.117-13.693 13.662 0 7.544 6.131 13.661 13.693 13.661Z" fill="#606060"/><path d="M139.244 275.063c5.283 0 9.567-4.273 9.567-9.544 0-5.272-4.284-9.545-9.567-9.545-5.284 0-9.567 4.273-9.567 9.545 0 5.271 4.283 9.544 9.567 9.544Z" fill="#000"/><path d="M150.833 272.886a13.447 13.447 0 0 1-1.892 2.386 15.401 15.401 0 0 1-2.182 1.783l-18.923-18.958a13.774 13.774 0 0 1 1.787-2.176 13.46 13.46 0 0 1 2.392-1.888l18.818 18.853Z" fill="#A8A9AD"/><path d="M146.918 254.164c.841.551 1.63 1.18 2.366 1.94a15.228 15.228 0 0 1 1.734 2.203l-19.265 18.591a14.096 14.096 0 0 1-2.155-1.81 14.492 14.492 0 0 1-1.866-2.412l19.186-18.512Z" fill="#A8A9AD"/><path d="M188.971 210.637s4.914-.052 6.465-.734c1.551-.682 1.84-1.154 2.681-.891.841.262 1.235 1.52 0 2.989-1.209 1.468-8.437 3.304-8.437 3.304l-.709-4.668Z" fill="#DBB5A2"/><path d="M173.07 218.896a9.49 9.49 0 0 1-.867-.105h-.027c.316.053.605.079.894.105ZM173.779 218.765c.315 0 .63 0 .946.027h.289-.867.026c4.941 0 9.882 0 14.797-.053l2.313-.079-1.235.079h.21-.421.158c.473-.026.946-.052 1.419-.052.027-.053.079-.131.105-.184 2.234-3.697 1.761-7.263.841-9.597-.919-2.333-2.523-3.933-3.469-4.72-.946-.786-1.051-2.15-1.051-2.15l-10.224-.314s-.105 4.641-.184 6.267c-.079 1.599-.368 4.169-2.339 7.027-.973 1.389-2.155 2.596-3.312 3.644.657.027 1.314.079 1.998.105Z" fill="#FFDFC6"/><path d="M187.92 218.845c.683-.026 1.366-.078 2.05-.105h-.237l-1.813.105ZM188.156 211.712s1.892 1.128 4.153 1.259c2.26.131 5.282.472 6.097.131.815-.341 1.577-.918 2.576-.734.999.183 1.945.524 1.498 1.101-.447.577-2.103 3.435-2.628 3.54-.526.105-2.891.393-5.204.603-2.313.21-7.491-.026-7.491-.026l.999-5.874Z" fill="#FFDFC6"/><path d="M194.488 213.128c-.736-.052-1.498-.105-2.155-.157-2.26-.131-4.152-1.259-4.152-1.259l-.973 5.769c1.735-.052 3.969-.184 5.02-.551 1.84-.655 2.392-1.52 2.418-2.333 0-.341-.079-.918-.158-1.469ZM173.07 218.896a9.49 9.49 0 0 1-.867-.105h-.027c.316.053.605.079.894.105Z" fill="#FF6D00"/><path d="M173.779 218.765c.315 0 .63 0 .946.027h.289-.867.026c4.731 0 9.462 0 14.193-.053.63-.813 1.103-1.547 1.287-2.124.789-2.491.342-4.693-1.182-6.503-1.525-1.809-3.365-2.019-2.655-3.382.736-1.364 2.076-3.12 1.419-4.222-.105-.157-.499-.341-1.104-.524l-8.515-.262s-.105 4.641-.184 6.267c-.079 1.599-.368 4.169-2.339 7.027-.973 1.389-2.155 2.596-3.312 3.644.657.027 1.314.079 1.998.105Z" fill="#FF6D00"/><path d="M173.07 218.896a9.49 9.49 0 0 1-.867-.105h-.027c.316.053.605.079.894.105ZM173.779 218.764c.315 0 .63 0 .946.026h.289-.867.026c3.863 0 7.727 0 11.591-.026.578-1.18.604-2.57.157-3.985-.604-1.967-5.677-6.634-8.41-9.073-.026.892-.053 1.731-.079 2.255-.079 1.6-.368 4.169-2.339 7.027-.973 1.39-2.155 2.596-3.312 3.645.657.052 1.314.105 1.998.131Z" fill="#6B3425"/><path d="M164.265 192.152c-.263-.394.079-1.757 1.761-3.357 1.682-1.599 2.681-2.569 5.493-2.019 2.812.551 3.995 2.229 8.227 2.019 4.231-.209 6.176.394 6.307.603.132.21-6.938 2.754-10.67 3.514-3.732.761-5.047 1.311-7.727.761-2.681-.551-2.918-.866-3.391-1.521Z" fill="#A84400"/><path d="M186.133 189.136c2.365 1.284 4.126 3.513 4.967 4.614.841 1.102 1.945 2.518 1.525 5.376-.421 2.858-1.341 5.113-4.206 5.375-2.864.262-9.593.079-10.329-.996-.762-1.102-2.681-6.529-1.603-10.069 1.078-3.54 7.491-5.454 9.646-4.3Z" fill="#FF6D00"/><path d="M185.738 190.133c.42.236-.053.787 0 .971.052.157 2.943 2.779 3.311 2.805.368.053 3.811-1.127 4.337-.996.499.131 1.182.918 1.34 2.596.158 1.678-.131 2.596-.683 3.094-.552.498-.92.891-.92.891s1.393 2.858 1.104 3.698c-.289.839-2.655 1.625-3.969 1.625s-3.601-2.097-3.601-2.097c-1.393-1.941-1.182-3.304-.919-4.117.262-.813 1.55-1.836 1.235-2.884-.342-1.049-2.103-3.619-2.366-3.619-.262 0-2.391.472-2.47-.079-.079-.55.21-1.73 1.314-1.888 1.078-.157 1.919-.209 2.287 0Z" fill="#FFDFC6"/><path d="M177.354 191.863c.762.053 1.051 1.6.341 2.019-.709.42-2.26.997-3.101 2.596-.841 1.6-1.603 4.956-4.994 7.264-3.416 2.307-5.756 1.73-7.175.681-1.419-1.049-1.104-1.809-.893-2.045.21-.262-.421-2.229 1.182-3.514 1.604-1.284 4.284-1.809 6.308-3.303 1.971-1.574 6.728-3.829 8.332-3.698Z" fill="#A84400"/><path d="M193.597 193.279c.578.21.683 1.601 0 2.046-.684.446-2.313.289-2.602-.367-.289-.656 2.129-1.836 2.602-1.679Z" fill="#6B3425"/><path d="M186.894 200.228s3.206 3.539 4.915 3.277c1.682-.262 1.813-1.652 1.656-2.281-.132-.629-.552-1.626-.552-1.626s-.158.158-.395.131c-.262-.052-.341-.209-.341-.209s-.71 1.311-2.155 1.442c-1.472.105-3.128-.734-3.128-.734Z" fill="#722D21"/><path d="M190.021 202.719c0-.656.815-1.18 1.367-1.207.525-.052.815.105.92.053.079-.053-.053-.341.552-.393.578-.053 1.734.576 2.102 1.52.368.944-.552 2.465-2.26 3.304-1.025.498-2.917 1.075-3.706 0-.788-1.075 2.155-1.363 2.392-2.124.184-.603-1.367-.813-1.367-1.153Z" fill="#C96659"/><path d="M192.518 201.749s.946.498.998 1.259c.053.76-1.182 1.783-1.655 1.992-.5.21 1.025-.839 1.287-1.756.263-.918-.63-1.495-.63-1.495Z" fill="#AF4941"/><path d="M184.635 193.857c1.314-.105 2.181 2.832.631 2.885-1.577.104-2.208-2.754-.631-2.885Z" fill="#fff"/><path d="M185.397 194.592c.342-.236.684 1.233.316 1.469-.368.21-.631-1.259-.316-1.469Z" fill="#6B3425"/><path d="M188.603 191.496c.92-.079 1.499 1.941.421 1.993-1.051.053-1.498-1.914-.421-1.993Z" fill="#fff"/><path d="M189.128 191.993c.237-.157.474.866.211 1.023-.237.132-.421-.865-.211-1.023Z" fill="#6B3425"/></svg>