<svg width="375" height="308" fill="none" xmlns="http://www.w3.org/2000/svg"><path d="M169.758 54.34c18.162 3.432 52.381-66.624 90.254-51.166 37.874 15.457 10.04 65.26 23.55 76.421 13.509 11.16 50.515-23.186 66.074 12.89 15.559 36.075-8.095 74.718-8.437 80.718-.342 5.999 42.657 38.25 30.724 82.656-11.932 44.407-170.389 48.704-226.949 50.407-56.56 1.703-132.175 1.572-143.319-44.721-11.143-46.293 39.477-86.613 44.155-99.555 4.678-12.942-37.663-57.978 15.428-113.336 41.079-42.834 90.359 2.254 108.52 5.686Z" fill="#9ECBDD"/><path d="M1.708 261.86c11.144 46.293 86.785 46.45 143.319 44.721 56.533-1.729 214.991-6 226.949-50.406 8.121-30.207-9.173-54.808-20.973-69.322l-31.539-15.509-25.074.89-49.648-33.927-42.393 10.218-44.339-37.884-21.341 38.722-33.51-65.994-34.825 94.629-14.297-12.863-26.835 21.718c-15.06 19.073-32.538 45.874-25.494 75.007Z" fill="#749DC1"/><path d="M108.652 113.76s-4.336-8.332 5.493-9.275c-1.025-6.654 8.595-16.636 25.311-12.392 2.812-7.23 18.792-19.99 29.856-4.453 21.132-8.856 24.154 3.903 21.316 6.183 16.4-2.96 13.509 8.252 10.723 9.483 21.683-4.637 18.713 10.454 18.713 10.454H108.652ZM212.572 68.094s-1.918-4.926 2.445-5.476c-.447-3.93 3.837-9.824 11.275-7.31 1.262-4.27 8.358-11.815 13.299-2.62 9.409-5.213 10.749 2.306 9.488 3.642 7.306-1.755 6.019 4.873 4.783 5.607 9.672-2.725 8.332 6.157 8.332 6.157h-49.622ZM323.958 130.212l-8.173 58.528-5.546-.865 12.905-57.794.814.131Z" fill="#fff"/><path d="m320.175 149.547 14.797 12.235-.158.812-15.27-9.824.631-3.223Z" fill="#fff"/><path d="m317.231 189.787-8.752-1.362.315-1.598 8.752 1.336-.315 1.624Z" fill="#DFFAF5"/><path d="m320.175 149.547-18.582 7.126-.158.813 18.109-4.716.631-3.223Z" fill="#fff"/><path d="m320.805 146.324-6.334 41.367-2.996-.445 9.33-40.922ZM268.267 143.231l2.155 45.167-4.311.157 1.551-45.297.605-.027Z" fill="#fff"/><path d="m268.161 158.321 12.878 7.126v.629l-12.878-5.24v-2.515Z" fill="#fff"/><path d="m271.656 189-6.78.209.026-1.257 6.754-.21V189Z" fill="#DFFAF5"/><path d="m268.161 158.321-12.958 7.965v.628l12.958-6.078v-2.515Z" fill="#fff"/><path d="m268.187 155.808 1.104 32.014-2.313.079 1.209-32.093Z" fill="#fff"/><path d="M1.708 261.519c11.144 46.293 86.785 46.451 143.319 44.721 56.533-1.729 214.991-5.999 226.949-50.406 8.121-30.207-9.172-54.807-20.973-69.321H27.229c-15.087 19.072-32.564 45.847-25.52 75.006Z" fill="#96C22F"/><path d="M12.588 207.524c-9.25 15.85-15.638 34.399-10.907 53.995C12.825 307.812 88.466 307.969 145 306.24c56.533-1.729 214.991-5.999 226.949-50.406 4.994-18.575.368-35.027-6.649-48.31H12.588Z" fill="#3D3B38"/><path d="M146.525 230.657h-19.712v3.956h19.712v-3.956ZM217.225 230.657h-19.712v3.956h19.712v-3.956ZM193.57 230.657h-19.712v3.956h19.712v-3.956ZM122.871 230.657H103.16v3.956h19.711v-3.956ZM99.217 230.657H82.133v3.956h17.084v-3.956ZM78.19 230.657H58.478v3.956H78.19v-3.956ZM54.536 230.657H34.825v3.956h19.711v-3.956ZM169.917 230.657h-19.449v3.956h19.449v-3.956ZM354.683 230.657h-19.712v3.956h19.712v-3.956ZM30.882 230.657H6.833v3.956h24.049v-3.956ZM331.027 230.657h-19.711v3.956h19.711v-3.956ZM363.197 230.657h-4.573v3.956h4.573v-3.956ZM285.56 230.657h-19.712v3.956h19.712v-3.956ZM261.905 230.657h-19.712v3.956h19.712v-3.956ZM238.25 230.657h-17.084v3.956h17.084v-3.956ZM307.373 230.657h-17.872v3.956h17.872v-3.956Z" fill="#fff"/><path d="m134.96 183.866-70.568 3.144-13.799-14.934 10.25-16.898 74.117 5.109v23.579Z" fill="#6B3425"/><path d="M131.018 155.178h-3.942v58.554h3.942v-58.554ZM249.289 183.292l70.569 3.143 13.798-14.933-10.25-16.898-74.117 5.109v23.579Z" fill="#6B3425"/><path d="M253.244 213.132h3.943v-58.554h-3.943v58.554Z" fill="#6B3425"/><path d="M80.74 164.663c-.472 1.205-.998 3.012-1.602 5.501-.552 2.227-.815 3.485-.815 3.773 0 .026 0 .236.026.629a.945.945 0 0 1-.105.55c-.105.209-.21.34-.368.367-.263.052-.788-.053-1.603-.288-.789-.262-1.262-.472-1.367-.655-.053-.079-.079-.21-.105-.341l-.053-.367c-.525-1.65-.946-3.196-1.235-4.663a31.093 31.093 0 0 1-.63-4.14c0-.026-.027-.131-.08-.288-.026-.105-.026-.209-.026-.288.053-.314.184-.524.394-.576.106-.027.473.052 1.157.262.683.209 1.077.393 1.156.55.027.105.027.288 0 .576 0 .053-.052.131-.105.236a.583.583 0 0 0-.079.262c.08.472.132.917.21 1.336.053.419.132.812.184 1.179.29 1.729.5 2.751.684 3.091.158-.838.42-1.912.815-3.222.394-1.336.683-2.436.814-3.301 0-.183.053-.393.132-.681.079-.21.236-.341.447-.419.157-.053.499.026 1.025.235.604.21.972.446 1.13.682ZM84.211 174.697c.053.315-.079.524-.342.603-.026 0-.078.026-.183.026-.342 0-.736-.078-1.21-.209-.525-.158-.814-.315-.92-.446-.052-.078 0-.209.132-.419.079-.131.131-.393.131-.76v-5.711c-.105-.341-.157-.576-.157-.681 0-.105.157-.184.5-.184.262 0 .63.079 1.13.262.499.184.814.315.893.446.026.052.052.078.052.131 0 .078-.052.209-.157.419-.105.209-.158.367-.158.445v5.476a.37.37 0 0 0 .053.157c.026.052.078.131.105.183.052.053.079.131.105.184.026 0 .026.052.026.078Zm.053-9.405s.026.052.026.105c0 .209-.053.471-.132.786-.105.34-.183.524-.262.576-.08.026-.473-.052-1.183-.288-.683-.236-1.051-.393-1.104-.498-.026-.026-.052-.105-.052-.209 0-.236.052-.498.184-.786.157-.289.315-.472.499-.524.21-.053.578.026 1.078.235.551.21.867.42.946.603ZM88.021 164.401c0 .053-.026.157-.052.262a.712.712 0 0 0-.08.21 6.058 6.058 0 0 0-.157.838v8.331c0 .105.026.21.079.289a.415.415 0 0 1 .079.209c0 .576-.105.891-.316.917-.105.026-.394-.052-.867-.183-.5-.131-.788-.236-.894-.315-.21-.157-.289-.314-.289-.471a.44.44 0 0 1 .053-.131.525.525 0 0 0 .052-.236v-9.589a.372.372 0 0 0-.052-.157.37.37 0 0 1-.053-.157c.027-.21.184-.367.5-.446h.578c.184.027.341.027.473.053l.394.078c.368.131.552.289.552.498ZM91.805 164.401c0 .053-.026.157-.052.262a.712.712 0 0 0-.08.21 6.043 6.043 0 0 0-.157.838v8.331c0 .105.026.21.079.289a.415.415 0 0 1 .079.209c0 .576-.105.891-.316.917-.105.026-.394-.052-.867-.183-.5-.131-.788-.236-.894-.315-.21-.157-.289-.314-.289-.471a.44.44 0 0 1 .053-.131.525.525 0 0 0 .052-.236v-9.589a.372.372 0 0 0-.052-.157.37.37 0 0 1-.053-.157c.027-.21.184-.367.5-.446h.578c.184.027.342.027.473.053l.394.078c.368.131.552.289.552.498ZM99.139 174.67a.375.375 0 0 1-.158.315c-.105.078-.21.131-.342.104-1.13-.157-1.76-.366-1.892-.628-.026-.053-.026-.079-.026-.105a.93.93 0 0 1 .105-.236c.052-.078.079-.131.105-.183 0-.026.026-.105.026-.157v-.315c-.105.079-.263.288-.5.655-.104.21-.236.367-.314.498-.106.131-.184.236-.29.314-.289.262-.63.419-.998.419a.853.853 0 0 1-.631-.262 1.786 1.786 0 0 0-.21-.183 1.35 1.35 0 0 1-.316-.34l-.71-.813c-.183-.262-.288-.497-.288-.707 0-.052 0-.131.026-.21.184-.786.71-1.545 1.603-2.279.63-.498 1.55-1.048 2.786-1.65 0-.289-.079-.472-.21-.551-.08-.052-.42.053-.947.315-.525.262-.92.471-1.156.655l-.131.131a1.462 1.462 0 0 1-.21.157c-.158.105-.29.131-.421.079-.105-.027-.316-.184-.63-.498-.316-.315-.5-.498-.527-.603-.078-.262 0-.445.237-.576.026-.026.21-.079.552-.157l.999-.551c.341-.183.657-.314.972-.392.316-.079.578-.131.815-.158.21-.026.447.079.71.315l.71.628c.236.21.498.393.735.603.29.262.447.498.447.734v5.135c.052.262.105.419.079.497Zm-2.182-3.982c-.236.079-.447.21-.63.315-.184.13-.368.288-.526.471l-.71.865c-.184.183-.368.445-.552.759-.157.289-.236.524-.236.655 0 .079.026.105.079.105.183 0 .604-.419 1.287-1.231.657-.812 1.104-1.467 1.288-1.939ZM106.05 167.78l-.157.262c-.053.105-.106.209-.106.288v5.947c0 1.493-.551 2.463-1.682 2.882a3.622 3.622 0 0 1-1.419.288c-.631 0-1.156-.21-1.603-.629-.053-.052-.158-.131-.237-.262a5.667 5.667 0 0 0-.42-.445l-.263-.262a.602.602 0 0 1-.158-.314c-.026-.131.105-.236.421-.315.026 0 .079-.026.157-.026.106 0 .211 0 .342.026.132.026.263.053.368.079.132.026.237.078.342.131a.906.906 0 0 1 .236.157c.079.079.158.183.211.288.078.105.157.184.236.262.079.079.158.157.263.21a.556.556 0 0 0 .289.105c.368.052.605-.21.71-.76.052-.262.079-.708.079-1.389l-.263.341c-.105.131-.184.236-.289.288a.435.435 0 0 1-.316.131c-.499 0-.893-.131-1.209-.393-.972-.812-1.445-2.017-1.445-3.589 0-.996.21-1.886.63-2.699.447-.864 1.025-1.388 1.735-1.598.079-.026.132-.026.158-.026.158 0 .315.079.499.21l.473.366c.053-.157.105-.314.158-.445a.366.366 0 0 1 .289-.262c.184-.026.526.026.999.183.499.158.762.262.841.393.158.262.184.42.131.577Zm-2.418 3.327c.027-.314.053-.603.079-.865.026-.262.026-.471.026-.681 0-.733-.131-1.126-.368-1.231-.184-.079-.42.262-.709.969-.263.734-.421 1.389-.421 1.965 0 1.074.132 1.913.395 2.541.551-.838.893-1.729.998-2.698ZM112.57 172.574c.079.131-.105.55-.526 1.205a5.29 5.29 0 0 1-.709.891 3.91 3.91 0 0 1-.684.55.525.525 0 0 1-.236.052c-.342 0-.815-.104-1.393-.314-.605-.21-.999-.419-1.209-.681-.526-.681-.789-1.624-.789-2.83 0-1.152.237-2.148.684-3.012.499-.97 1.156-1.441 1.918-1.441.263 0 .605.052 1.025.209.5.184.894.446 1.209.786.079.079.158.315.237.734.052.209.079.445.105.655.026.209.026.419.026.628 0 .629-.105 1.048-.289 1.284-.92.288-1.892.446-2.865.498 0 .445.053.917.158 1.389.105.471.263.733.394.759.184.026.394-.131.657-.445.211-.236.368-.472.421-.655.026-.131.079-.262.105-.419.053-.131.079-.288.131-.419.158-.027.447.052.868.209.447.105.683.262.762.367Zm-2.418-4.139c-.158 0-.368.235-.657.733-.289.524-.447.996-.473 1.441.394 0 .736-.105.972-.288.158-.105.21-.55.21-1.362 0-.341 0-.524-.052-.524ZM276.835 165.187c.867.471 1.314 1.257 1.314 2.384 0 .812-.316 1.834-.973 3.091-.709 1.389-1.445 2.096-2.207 2.096-.158 0-.316-.079-.473-.21-.184-.131-.342-.288-.526-.419v2.306c0 .105.026.236.079.419.052.21.105.367.131.445 0 .079-.026.21-.105.419-.105.236-.21.341-.368.341-.184.026-.526-.105-1.051-.341-.289-.131-.526-.235-.684-.34a1.136 1.136 0 0 1-.367-.314c-.079-.105-.079-.315 0-.577.052-.183.105-.34.105-.445v-8.41c0-.026 0-.079-.027-.131-.026-.052-.026-.105-.052-.183a.493.493 0 0 1-.053-.184c0-.052-.026-.105-.026-.131.053-.445.21-.655.499-.655.027 0 .079.026.158.053.079.026.21.078.368.104.158.053.315.105.447.105.131.026.236.026.341.053.132 0 .29 0 .474-.053.184-.052.367-.105.578-.157.447-.157.736-.236.92-.236.105 0 .21.026.315.053.21.052.421.183.657.419.131.131.263.236.342.314.052.079.131.131.184.184Zm-1.13 1.048c-.211 0-.5.104-.868.34a3.59 3.59 0 0 0-.867.76v3.275c.499-.157.946-.708 1.393-1.677.394-.891.604-1.624.604-2.227 0-.314-.078-.471-.262-.471ZM284.93 175.272a.371.371 0 0 1-.157.314c-.105.079-.211.131-.342.105-1.13-.157-1.761-.367-1.892-.629-.027-.052-.027-.078-.027-.105.027-.078.053-.157.106-.235.052-.079.078-.131.105-.184 0-.026.026-.104.026-.157v-.314c-.105.078-.263.288-.499.655-.132.209-.237.366-.316.497-.105.131-.184.236-.289.315-.289.262-.631.419-.999.419a.856.856 0 0 1-.63-.262c-.053-.052-.106-.105-.211-.183-.079-.079-.21-.184-.315-.341l-.71-.812c-.184-.262-.289-.498-.289-.707 0-.053 0-.131.027-.21.183-.786.709-1.546 1.603-2.279.631-.498 1.55-1.048 2.786-1.651 0-.288-.079-.471-.211-.55-.078-.052-.42.052-.946.314-.552.262-.92.472-1.156.655a8.847 8.847 0 0 1-.132.131c-.052.053-.131.105-.21.158-.158.104-.289.131-.42.078-.106-.026-.316-.183-.631-.498-.316-.288-.5-.497-.526-.602-.079-.262 0-.446.237-.577.026-.026.21-.078.552-.157l.998-.55c.342-.183.657-.314.973-.393.315-.079.578-.131.815-.157.21-.026.446.078.709.314l.71.629c.236.21.499.393.736.603.289.262.447.497.447.733v5.135c.052.236.105.393.078.498Zm-2.181-3.982c-.237.078-.447.209-.631.314a2.901 2.901 0 0 0-.525.472l-.71.864c-.184.184-.368.446-.552.76-.158.288-.237.524-.237.655 0 .079.027.105.079.105.184 0 .605-.419 1.288-1.232.657-.812 1.104-1.467 1.288-1.938ZM291.318 168.357a.317.317 0 0 1-.158.341l-.158.078a.57.57 0 0 0-.158.105l-2.339 3.511c0 1.467 0 2.2.027 2.227l.105.34c.052.157.105.314.105.445 0 .158-.079.262-.237.341a.926.926 0 0 1-.42.079c-.316 0-.71-.079-1.157-.236-.525-.157-.788-.393-.788-.681 0-.027 0-.079.026-.158l.079-.235.079-.236c.026-.079.026-.157.026-.21v-5.37l-.158-.786c0-.289.132-.472.395-.524a1.55 1.55 0 0 1 .394-.053c.158 0 .315.026.473.053.158.026.342.078.499.104.342.105.552.21.631.315a.286.286 0 0 1 .026.131c0 .026-.052.236-.184.655v.655c.106-.21.211-.393.316-.577.105-.183.21-.393.315-.576.263-.498.473-.76.631-.786.21-.026.499.079.92.341.447.314.657.524.71.707ZM294.786 175.299c.052.314-.079.524-.342.602-.026 0-.079.027-.184.027-.342 0-.736-.079-1.209-.21-.526-.157-.815-.314-.92-.445-.052-.079 0-.21.132-.419.078-.131.131-.393.131-.76v-5.711c-.105-.341-.158-.577-.158-.682 0-.104.158-.183.5-.183.263 0 .63.079 1.13.262.499.183.815.314.893.445.027.053.053.079.053.131 0 .079-.053.21-.158.419-.105.21-.157.367-.157.446v5.475c0 .053.026.105.052.158.026.052.079.131.105.183.053.052.079.131.105.183.027 0 .027.053.027.079Zm.052-9.405s.027.052.027.104c0 .21-.053.472-.132.786-.105.341-.184.524-.263.577-.079.026-.473-.053-1.182-.288-.684-.236-1.052-.393-1.104-.498-.027-.026-.053-.105-.053-.21 0-.236.053-.498.184-.786.158-.288.316-.471.5-.524.21-.052.578.026 1.077.236.552.21.867.419.946.603ZM300.725 174.226c0 .498-.158.891-.5 1.179-.341.289-.788.446-1.393.446-.078 0-.157 0-.236-.027-.079-.026-.158-.026-.263-.052-.315-.079-.473-.131-.499-.131-.158-.026-.342-.078-.5-.105a.799.799 0 0 1-.42-.209c-.211-.184-.394-.419-.578-.76l-.447-.786c-.158-.262-.211-.419-.211-.472 0-.104.079-.209.263-.288.053-.026.132-.026.237-.026.131 0 .289 0 .447.026.157.026.368.053.578.079.42.078.657.131.683.157.026.026.079.288.158.786.052.419.158.629.289.629.21 0 .315-.288.315-.839 0-.707-.184-1.152-.578-1.336-.867-.419-1.445-.759-1.708-1.074-.342-.393-.5-.969-.5-1.755 0-.524.132-.996.421-1.441.289-.445.604-.734.972-.838.158-.027.684.131 1.577.524.053.026.132.026.237.052.105.026.289.052.473.078.263.053.473.158.604.289.184.209.263.524.29.995 0 .184.026.341.026.498v.498c.052.288.105.471.105.55 0 .262-.131.393-.368.445-.053 0-.158 0-.289-.026-.131-.026-.289-.078-.473-.131-.421-.131-.657-.288-.789-.419-.026-.026-.052-.367-.078-1.022-.027-.602-.079-.917-.184-.917-.132 0-.263.184-.395.524a3.723 3.723 0 0 0-.184 1.101c0 .471.105.786.316.917.236.131.447.262.657.366.21.105.447.236.657.367.447.262.762.498.92.76.263.34.368.786.368 1.388Z" fill="#fff"/><path d="m212.1 185.936-98.954-1.782s0 2.542 1.262 3.17c1.261.629 2.786.891 2.654 1.913-.131 1.022-6.308 8.488-11.853 14.959-5.546 6.471-9.094 12.68-9.593 15.353-.5 2.672-.5 3.17-1.525 3.929-1.025.76-4.284 2.28-6.308 6.838-2.023 4.559-1.892 5.319-2.155 8.489-.263 3.17-.762 18.26-.762 18.26l217.488 6.078c.131-.393 4.809-26.749 4.415-30.678-.394-3.93-9.225-11.292-22.077-14.462-12.878-3.17-35.849-8.253-36.612-8.488-.788-.236-35.98-23.579-35.98-23.579Z" fill="#0C96FD"/><path d="M85.34 241.977c-.263 3.17-.5 15.09-.5 15.09l217.488 6.078c.105-.314 2.445-12.811 3.312-21.221 0 0-30.908-12.208-48.228-13.177-17.347-.97-41.895 8.566-59.609 7.388-17.715-1.179-40.475-11.266-60.529-11.266-20.053 0-51.934 17.108-51.934 17.108Z" fill="#1D7DCC"/><path d="M111.728 247.948H83.343s-1.13 5.319 0 8.253c1.13 2.908 4.81 6.838 11.853 7.1 7.044.262 207.658.498 207.658.498s2.024-1.782 3.285-6.733c1.262-4.952-.841-11.292-.841-11.292s-1.55 2.777-7.99 3.93c-6.439 1.152-30.408.498-30.408.498l-20.448 10.007-108.048-3.432-26.676-8.829ZM117.036 189.238s-3.154 1.782-5.677 4.428c-2.523 2.672-4.836 8.96-4.836 8.96s12.484-11.816 10.513-13.388Z" fill="#2D2D2D"/><path d="M104.658 214.597c-2.024-1.677-9.856 1.781-10.224 4.427-.368 2.646 6.439 3.17 7.569 2.149 1.157-.996 4.048-5.45 2.655-6.576Z" fill="#7D009B"/><path d="M135.958 220.02c0 3.642 11.381 3.642 11.381.288 0-4.06-11.381-3.51-11.381-.288Z" fill="#1D7DCC"/><path d="M131.176 221.67h12.221c.21 0 .394-.183.394-.393v-2.253a.404.404 0 0 0-.394-.393h-12.221a.404.404 0 0 0-.394.393v2.253c0 .21.184.393.394.393Z" fill="#878FB3"/><path d="m235.571 206.739-22.839-16.479s-67.021-1.022-73.959-1.022c-10.224 0-16.532 4.428-16.532 9.641 0 5.188 14.009 5.188 23.865 5.188 9.855 0 89.465 2.672 89.465 2.672Z" fill="#2D2D2D"/><path d="M253.994 243.129h-.236v-21.404l-18.267-14.907.158-.184 18.345 14.986v21.509Z" fill="#024168"/><path d="M232.153 205.323c-.052-1.153-1.892-4.297-4.494-4.297-2.576 0-2.576 7.598-.815 8.096 1.787.524 5.441-1.127 5.309-3.799Z" fill="#F1F3F2"/><path d="M168.788 256.568h-.237V226.65l3.785-21.536.237.053-3.785 21.483v29.918ZM124.842 252.272h-.21v-26.147l4.231-22.95.237.026-4.258 22.95v26.121Z" fill="#024168"/><path d="M287.138 218.686s7.885 5.161 8.91 7.964c1.025 2.803 2.26 5.318 2.891 5.449.631.131 7.832.393 7.832.393s.815-6.182-.237-6.89c-1.051-.707-16.426-8.41-19.396-6.916Z" fill="#F1F3F2"/><path d="M289.081 239.329h7.517c.263 0 .499-.21.499-.498v-2.829a.498.498 0 0 0-.499-.498h-7.517a.498.498 0 0 0-.499.498v2.829c0 .262.21.498.499.498Z" fill="#878FB3"/><path d="M186.45 220.02c0 3.642 11.38 3.642 11.38.288 0-4.06-11.38-3.51-11.38-.288Z" fill="#1D7DCC"/><path d="M181.693 221.67h12.221c.21 0 .394-.183.394-.393v-2.253a.404.404 0 0 0-.394-.393h-12.221a.404.404 0 0 0-.394.393v2.253c0 .21.157.393.394.393Z" fill="#878FB3"/><path d="M173.098 189.684h-1.183v15.038h1.183v-15.038ZM129.099 203.201h-.815v-11.973l.815-.341v12.314ZM114.355 263.536a24.348 24.348 0 0 1-.446-4.637c0-13.938 11.327-25.203 25.283-25.203 13.956 0 25.284 11.291 25.284 25.203 0 1.598-.158 3.144-.447 4.637h-49.674Z" fill="#024168"/><path d="M139.193 277.527c11.787 0 21.342-9.525 21.342-21.274s-9.555-21.273-21.342-21.273c-11.786 0-21.341 9.524-21.341 21.273s9.555 21.274 21.341 21.274Z" fill="#000"/><path d="M139.193 270.584c7.94 0 14.377-6.416 14.377-14.33 0-7.915-6.437-14.331-14.377-14.331s-14.376 6.416-14.376 14.331c0 7.914 6.436 14.33 14.376 14.33Z" fill="#606060"/><path d="M139.194 266.235c5.53 0 10.014-4.469 10.014-9.981 0-5.513-4.484-9.982-10.014-9.982-5.53 0-10.014 4.469-10.014 9.982 0 5.512 4.484 9.981 10.014 9.981Z" fill="#000"/><path d="M151.361 263.981a12.807 12.807 0 0 1-1.997 2.489 14.128 14.128 0 0 1-2.313 1.86l-19.843-19.858a13.838 13.838 0 0 1 1.866-2.28 16.55 16.55 0 0 1 2.523-1.991l19.764 19.78Z" fill="#A8A9AD"/><path d="M147.235 244.36c.868.577 1.709 1.232 2.471 2.018a14.124 14.124 0 0 1 1.84 2.331l-20.212 19.492a15.465 15.465 0 0 1-2.26-1.886c-.762-.786-1.393-1.651-1.945-2.541l20.106-19.414Z" fill="#A8A9AD"/><path d="M229.211 263.536a24.348 24.348 0 0 1-.447-4.637c0-13.938 11.328-25.203 25.284-25.203 13.982 0 25.284 11.291 25.284 25.203 0 1.598-.158 3.144-.447 4.637h-49.674Z" fill="#024168"/><path d="M254.049 277.527c11.786 0 21.341-9.525 21.341-21.274s-9.555-21.273-21.341-21.273c-11.787 0-21.342 9.524-21.342 21.273s9.555 21.274 21.342 21.274Z" fill="#000"/><path d="M254.049 270.584c7.94 0 14.376-6.416 14.376-14.33 0-7.915-6.436-14.331-14.376-14.331-7.94 0-14.377 6.416-14.377 14.331 0 7.914 6.437 14.33 14.377 14.33Z" fill="#606060"/><path d="M254.05 266.235c5.53 0 10.013-4.469 10.013-9.981 0-5.513-4.483-9.982-10.013-9.982-5.531 0-10.014 4.469-10.014 9.982 0 5.512 4.483 9.981 10.014 9.981Z" fill="#000"/><path d="M266.217 263.981a12.807 12.807 0 0 1-1.997 2.489 14.17 14.17 0 0 1-2.313 1.86l-19.844-19.858a13.94 13.94 0 0 1 1.866-2.28 16.606 16.606 0 0 1 2.524-1.991l19.764 19.78Z" fill="#A8A9AD"/><path d="M262.091 244.36c.867.577 1.708 1.232 2.47 2.018a14.02 14.02 0 0 1 1.84 2.331l-20.211 19.492a15.36 15.36 0 0 1-2.26-1.886c-.762-.786-1.393-1.651-1.945-2.541l20.106-19.414Z" fill="#A8A9AD"/><path d="M203.927 182.217s-3.338-1.336-6.334 1.415c-1.998 1.86-1.341 6.969-.184 8.567 1.156 1.598 5.572 4.034 5.572 4.034s12.536-13.073.946-14.016Z" fill="#A5713D"/><path d="M205.583 199.115c-1.998.366-4.337.969-5.441 1.991-1.34 1.231-.657 4.846 6.045 3.929 6.676-.89 5.914-3.929 5.073-4.742-1.236-1.126-4.153-1.44-5.677-1.178Z" fill="#F69576"/><path d="m207.395 194.53 2.786 8.043-7.832 1.415s-.21-3.353-.158-5.554c.053-2.201.289-3.013.289-3.013l4.915-.891Z" fill="#F69576"/><path d="M204.401 197.387s.21 1.545 1.34 2.017c1.13.472 3.391.079 3.391.079l-1.735-4.978-3.312.602c.027 0 .027 1.337.316 2.28Z" fill="#DD866F"/><path d="M206.687 184.286s1.13.629 1.892 2.358c.578 1.336.789 2.83 1.104 3.642.315.812.841 2.096.815 3.301-.026 1.205-.762 2.987-2.602 3.851-1.814.891-3.469.786-4.757-.367-1.288-1.152-3.049-3.301-3.732-4.873-.684-1.571-1.472-4.663.052-6.366 1.971-2.174 4.652-2.672 7.228-1.546Z" fill="#F69576"/><path d="M204.926 194.242s.394 1.1 1.104 1.205c.71.105 1.367-.157 1.603-.603.237-.419.263-1.178.263-1.178l-2.97.576Z" fill="#fff"/><path d="M206.319 192.722c-.052 0-.105 0-.131-.026-.105-.052-.132-.183-.132-.262v-.026c-.026.026-.052.052-.078.105-.053.078-.106.105-.184.105-.106 0-.211-.105-.263-.236-.079-.236.052-.655.079-.681 0-.027.052-.053.078-.053.027 0 .053.053.053.079-.053.105-.131.445-.079.602.053.105.105.158.132.158.026 0 .052-.027.078-.053.079-.131.132-.183.211-.183.026 0 .079 0 .105.026.026.026.026.052.052.105 0 .052.027.157.079.157h.079c.079-.026.079-.105.053-.236-.027-.078-.027-.131 0-.157.026-.026.026-.026.079-.026.052 0 .105.026.131.052.105.053.131.053.184 0 .026-.026.026-.078 0-.157-.053-.183-.21-.419-.315-.472-.027-.026-.053-.052-.027-.078.027-.026.053-.053.079-.026.158.078.342.34.394.576.027.105.027.21-.026.262-.105.157-.263.079-.342.052 0 0-.026 0-.026-.026v.026c.026.105.079.315-.131.393-.079-.026-.105-.026-.132 0Z" fill="#6B3425"/><path d="M196.279 191.516c.315-1.572 4.888-1.022 4.573 1.834-.315 2.908-5.046.498-4.573-1.834Z" fill="#F69576"/><path d="M200.116 193.822h-.053c-.026-.026-.052-.052-.026-.078.131-.236.079-.839-.263-1.415-.236-.393-.762-1.048-1.734-.995-.5.026-.841.183-.999.445-.237.393 0 .917 0 .917.026.026 0 .078-.026.078-.027.027-.079 0-.079-.026s-.263-.576 0-1.021c.184-.315.552-.472 1.104-.498.735-.053 1.419.34 1.839 1.074.342.576.447 1.257.263 1.546 0-.027-.026-.027-.026-.027Z" fill="#6B3425"/><path d="M198.512 193.875c-.026 0-.053 0-.079-.026-.026-.052-.736-1.153-.263-2.593 0-.027.053-.053.079-.053.026 0 .053.053.053.079a3.181 3.181 0 0 0 .236 2.489c.053.026.026.078-.026.104ZM204.013 191.828c.129-.023.195-.249.149-.506-.047-.256-.189-.445-.317-.422-.129.024-.195.25-.149.506.047.257.189.446.317.422ZM202.587 190.285c.158-.183.499-.445.894-.576.42-.131.709.026.893.026.184 0 .158-.236.026-.419-.131-.184-.525-.262-1.103-.131-.579.131-.868.445-.999.655-.132.209.079.707.289.445ZM207.64 191.042c.129-.023.195-.25.149-.506-.047-.256-.189-.445-.318-.422-.128.023-.195.25-.148.506.047.257.189.445.317.422ZM206.424 189.423c.158-.184.499-.446.894-.577.42-.131.709.027.893.027.184 0 .158-.236.026-.42-.131-.183-.525-.262-1.103-.131-.579.131-.868.446-.999.655-.132.21.079.708.289.446ZM209.025 194.922l-.289.131s-.368 1.232-.815 1.546c-.447.314-2.024.524-2.234.393-.184-.105-.973-1.284-.973-1.284l-.367.158s.893 1.702 1.025 1.86c.078.078 1.235.602 1.655.576.421-.052 1.682-1.074 1.709-1.231.131-.551.289-2.149.289-2.149Z" fill="#6B3425"/><path d="m207.343 195.972-.71.104.211 1.232h.552l-.053-1.336Z" fill="#6B3425"/><path d="M198.749 183.972s2.182 2.672 6.781 2.096c9.593-1.179 4.284-5.686 4.284-5.686s.605 1.337-1.025 1.73c-2.234.471-6.702-5.712-10.04 1.86Z" fill="#A5713D"/></svg>