<svg width="375" height="307" fill="none" xmlns="http://www.w3.org/2000/svg"><path d="M170.447 54.185c18.138 3.437 52.314-66.724 90.139-51.243 37.824 15.48 10.027 65.36 23.519 76.537 13.492 11.177 50.45-23.221 65.989 12.909 15.54 36.13-8.084 74.831-8.426 80.84-.341 6.008 42.602 38.308 30.685 82.781-11.917 44.474-170.171 48.777-226.658 50.483-56.488 1.705-132.005 1.574-143.135-44.789-11.13-46.363 39.426-86.743 44.098-99.705 4.672-12.962-37.615-58.065 15.408-113.507 41.027-42.9 90.244 2.257 108.381 5.694Z" fill="#417A8C"/><path d="M2.613 261.674c11.13 46.363 86.673 46.52 143.135 44.789 56.461-1.732 214.715-6.009 226.658-50.483 8.111-30.252-9.161-54.89-20.946-69.426H28.1c-15.067 19.101-32.522 45.917-25.487 75.12Z" fill="#939393"/><path d="M13.477 207.598c-9.24 15.874-15.618 34.451-10.893 54.077 11.13 46.363 86.674 46.52 143.135 44.789 56.461-1.732 214.715-6.009 226.658-50.483 4.988-18.603.368-35.08-6.641-48.383H13.477Z" fill="#B7B7B7"/><path d="M301.036 151.162s10.867-4.592 15.959 5.09c5.092 9.682-3.622 15.848-7.98 16.137-4.357.288-8.872-1.181-11.995.105-3.124 1.259-9.109 7.136-15.96 6.848-6.851-.289-13.255-5.641-14.673-16.556-2.362-17.79 12.731-15.743 12.731-15.743s-4.41-14.379 4.121-19.181c8.505-4.801 18.007-.498 20.842 6.56 2.808 7.032-3.045 16.74-3.045 16.74Z" fill="#fff"/><path d="M293.004 139.408s.394 9.393-1.181 12.122c-1.575 2.729-4.016 5.274-3.806 5.878.184.577 8.61 16.95 11.051 22.801 2.441 5.851 1.968 7.714 1.365 8.999-.578 1.26-.394 10.942-.394 10.942h-6.352s.079-6.927.761-9.787c.709-2.834 1.575-2.834 1.286-4.198-.289-1.365-11.261-27.104-10.289-29.466.971-2.361 4.199-3.017 5.092-6.245.892-3.227 2.467-11.046 2.467-11.046Z" fill="#6B3425"/><path d="M304.839 160.164s-5.591 5.195-6.956 7.425c-1.365 2.257-3.465 6.35-3.465 6.35l1.995 2.939s2.022-7.242 3.229-8.895c1.207-1.653 5.197-7.819 5.197-7.819ZM271.845 159.481s5.775 3.516 9.581 4.408c3.806.892 8.321 1.574 8.321 1.574l1.181 3.07c.026 0-18.4-4.46-19.083-9.052ZM70.724 195.605H66.26v2.573h4.463v-2.573Z" fill="#6B3425"/><path d="M75.081 189.807h5.67l-1.68-7.11-4.016-1.522h3.648l-.42-1.837-6.457-.499 6.064-1.233-.867-3.647-5.17-1.6s2.834-.158 4.75-.263l-2.598-11.072-4.226-.368 4.042-.446-5.328-22.696-3.15 13.408h1.942l-2.23 1.181-.998 4.25h3.622l-3.832.919-.342 1.495h2.021l-2.204.709-2.1 8.921 5.013 1.049-5.512 1.128-1.68 7.19h5.197l-5.722 2.204-1.732 7.425c2.756.394 6.746.971 6.746.971l-7.219.997-1.47 6.245h27.273l-.814-3.464-6.22-2.335Z" fill="#fff"/><path d="M207.008 68.012s18.269 28.889 21.131 31.171c-3.938-.183-10.5-2.387-10.5-2.387l19.844 25.005h-11.576l21.472 30.226H232.26s14.725 26.894 20.08 31.853l-93.735 1.417c2.94-2.755 17.955-21.725 17.955-21.725h-16.537l21.025-38.701s-10.106-.342-11.234-1.444c5.564-2.65 17.849-25.687 17.849-25.687l-9.45 2.23 23.598-31.984h5.197v.026Z" fill="#4E5E0A"/><path d="m231.282 129.383-58.587 10.81-12.678 23.378h8.53c4.673-3.384 8.741-6.087 9.634-5.903 2.362.472 4.252 5.195 6.142 5.195 1.89 0 5.67-6.848 8.741-6.612 3.071.236 6.851 5.431 8.741 5.667 1.89.236 6.142-7.556 8.977-7.556s9.686 7.32 12.048 7.084c2.362-.236 3.596-5.904 6.851-7.084.919-.315 2.546.105 4.41.918-1.129-2.02-1.838-3.28-1.838-3.28h15.12l-16.091-22.617ZM186.321 100.153c1.995-1.024 3.701-1.706 4.62-1.706 3.307 0 7.56 3.805 9.082 3.438 1.522-.368 3.596-3.438 6.221-3.438s6.746 2.598 7.875 2.362c.735-.158 1.942-2.283 5.118-1.942l-1.654-2.073s6.589 2.204 10.5 2.388c-2.861-2.309-21.13-31.171-21.13-31.171h-5.198l-23.597 31.984 9.449-2.23c.053-.026-.446.892-1.286 2.388ZM238.476 162.992l-69.979 10.627c-4.069 5.011-8.452 10.311-9.922 11.676l93.734-1.417c-3.018-2.834-9.134-12.831-13.833-20.886ZM180.074 126.654c4.515-.104 4.751 3.884 6.615 4.12 1.89.236 5.433-4.251 9.686-4.146 4.252.131 6.614 4.146 9.082 4.356 2.467.236 5.197-5.904 8.688-5.904 3.491 0 6.09 3.306 7.507 3.07 1.418-.236 3.045-4.067 5.644-4.408l-1.418-1.968h11.576l-15.46-19.469-39.347 4.251c-4.043 6.822-9.607 15.323-12.862 16.897 1.155 1.102 11.234 1.444 11.234 1.444l-.945 1.757Z" fill="#5F750E"/><path d="m211.703 66.28-7.376-5.51-7.796 4.435 3.964-8.501-6.011-3.726 7.717-.42 2.126-6.927 2.704 7.058 7.113-.577-5.827 5.222 3.386 8.947Z" fill="#FFE051"/><path d="m205.484 59.537.787 8.475h-4.462l.919-8.475h2.756Z" fill="#FFE051"/><path d="m210.705 184.51 1.68 15.559h-9.66l1.339-15.559h6.641Z" fill="#6B3425"/><path d="M198.162 89.712a3.648 3.648 0 1 0 .002-7.296 3.648 3.648 0 0 0-.002 7.296Z" fill="#FFE051"/><path d="M217.083 94.41a2.94 2.94 0 1 0 .002-5.88 2.94 2.94 0 0 0-.002 5.88ZM188.135 122.771a3.778 3.778 0 1 0 0-7.556 3.78 3.78 0 1 0 0 7.556Z" fill="#fff"/><path d="M201.233 113.535a3.07 3.07 0 1 0-3.071-3.069 3.07 3.07 0 0 0 3.071 3.069Z" fill="#512176"/><path d="M219.946 120.279a4.198 4.198 0 1 0 0-8.396 4.199 4.199 0 1 0 0 8.396Z" fill="#FFE051"/><path d="M181.994 148.014a3.78 3.78 0 1 0-3.78-3.778 3.778 3.778 0 0 0 3.78 3.778Z" fill="#512176"/><path d="M208.214 145.258a4.172 4.172 0 1 0 0-8.344 4.173 4.173 0 1 0 0 8.344Z" fill="#fff"/><path d="M202.069 156.802a3.936 3.936 0 1 0 0-7.872 3.937 3.937 0 1 0 0 7.872Z" fill="#FFE051"/><path d="M224.984 145.231a3.333 3.333 0 1 0 .002-6.666 3.333 3.333 0 0 0-.002 6.666Z" fill="#512176"/><path d="M181.285 174.907a3.07 3.07 0 1 0 .002-6.14 3.07 3.07 0 0 0-.002 6.14Z" fill="#FFE051"/><path d="M208.214 181.126a4.172 4.172 0 1 0 0-8.344 4.173 4.173 0 1 0 0 8.344Z" fill="#512176"/><path d="M232.573 175.51a3.36 3.36 0 1 0 .001-6.719 3.36 3.36 0 0 0-.001 6.719Z" fill="#fff"/><path d="M143.151 79.95c16.657 0 30.16-13.498 30.16-30.148s-13.503-30.148-30.16-30.148-30.16 13.498-30.16 30.148 13.503 30.148 30.16 30.148Z" fill="#000"/><path d="M143.156 75.513c14.207 0 25.724-11.512 25.724-25.713s-11.517-25.714-25.724-25.714S117.432 35.6 117.432 49.8c0 14.201 11.517 25.713 25.724 25.713Z" fill="#fff"/><path d="M182.157 27.946h-3.334v179.365h3.334V27.946Z" fill="#000"/><path d="M180.476 48.358h-9.135v4.303h9.135v-4.303ZM145.25 50.272c.341.919-.289 1.942-1.339 2.257l-20.159 5.72 19.004-8.816c.998-.473 2.179-.079 2.494.84Z" fill="#000"/><path d="M143.834 52.608c-.971.105-1.811-.498-1.837-1.338l-.342-16.005 3.623 15.585c.236.84-.447 1.653-1.444 1.758ZM140.765 32.196a.34.34 0 0 1-.105.262c-.079.079-.132.131-.237.105-.078 0-.236-.079-.498-.263-.263-.183-.394-.288-.394-.367 0-.026 0-.078.026-.105.026-.026.026-.078.026-.105v-2.65c0-.105-.105-.157-.288-.21-.21-.052-.342-.13-.368-.21-.026-.026-.026-.078-.026-.13 0-.106.052-.21.131-.316.131-.157.21-.262.236-.34l.158-.5c.026-.104.079-.157.131-.21.053-.052.131-.078.236-.078.184 0 .368.053.552.157.21.132.315.263.315.42v4.172c0 .027 0 .053.026.079.026.026.026.052.052.079.027.026.027.052.053.078-.026.08-.026.105-.026.132ZM145.802 31.697c0 .13-.052.21-.236.262h-.236c-.026 0-.105.026-.236.052-.132.027-.289.08-.473.132-.236.078-.42.13-.577.183a3.583 3.583 0 0 0-.42.158c-.053.026-.105.078-.158.105l-.079.078c-.078 0-.262-.105-.551-.315-.052-.026-.079-.052-.131-.078-.053-.026-.079-.053-.131-.079a.202.202 0 0 1-.105-.105c-.027-.026-.027-.079-.027-.105 0-.026.184-.288.552-.813.236-.315.42-.604.603-.866.184-.262.315-.499.447-.709.183-.34.341-.63.446-.918.105-.262.157-.498.184-.708-.315.13-.657.446-.972.918-.026.026-.052.053-.052.105 0 .053-.026.105-.026.105a.24.24 0 0 1-.184.079c-.131 0-.315-.08-.499-.21l-.262-.131c-.105-.053-.158-.105-.158-.158 0-.105.105-.288.315-.55a1.75 1.75 0 0 1 .368-.394c.131-.132.262-.237.42-.341.341-.263.63-.368.918-.368.105 0 .184.026.289.105.079.079.184.131.263.184.341.236.551.472.656.656.026.026.026.105.026.157 0 .289-.158.761-.472 1.443-.158.315-.289.604-.447.866a7.63 7.63 0 0 1-.498.761l.551-.184s.026-.026.052-.026c.027 0 .053-.026.079-.052.053-.027.079-.053.131-.027.105 0 .236.132.42.368.105.21.21.34.21.42ZM154.154 35.135a.34.34 0 0 1-.105.263c-.079.078-.132.13-.237.105-.078 0-.236-.08-.498-.263-.263-.184-.394-.288-.394-.367 0-.026 0-.079.026-.105.027-.026.027-.079.027-.105v-2.65c0-.105-.105-.157-.289-.21-.21-.053-.341-.131-.368-.21-.026-.026-.026-.079-.026-.131 0-.105.053-.21.131-.315.132-.157.21-.262.237-.341l.157-.499c.026-.104.079-.157.131-.21.053-.052.132-.078.236-.078.184 0 .368.052.552.157.21.131.315.263.315.42v4.172c0 .026 0 .052.026.079.026.026.026.052.052.078.027.027.027.053.053.08-.026.078-.026.104-.026.13ZM162.392 41.512c0 .13-.052.21-.236.262h-.236c-.027 0-.105.026-.237.053-.131.026-.288.078-.472.13-.236.08-.42.132-.578.184-.157.053-.315.105-.42.158-.052.026-.105.079-.157.105l-.079.078c-.079 0-.262-.104-.551-.314-.053-.027-.079-.053-.131-.079-.053-.026-.079-.053-.132-.079a.21.21 0 0 1-.105-.105c-.026-.026-.026-.078-.026-.105 0-.026.184-.288.551-.813.237-.315.42-.604.604-.866s.315-.498.446-.708c.184-.341.342-.63.447-.919.105-.262.157-.498.183-.708-.315.131-.656.446-.971.918-.026.026-.052.053-.052.105 0 .053-.027.105-.027.105a.237.237 0 0 1-.183.079c-.132 0-.315-.079-.499-.21l-.263-.131c-.105-.053-.157-.105-.157-.158 0-.105.105-.288.315-.55.105-.158.236-.29.367-.394a2.71 2.71 0 0 1 .42-.341c.342-.263.63-.368.919-.368.105 0 .184.026.289.105.079.079.184.132.262.184.342.236.552.472.657.656.026.026.026.105.026.157 0 .289-.158.761-.473 1.443-.157.315-.288.604-.446.866a7.477 7.477 0 0 1-.499.761l.552-.183s.026-.027.052-.027.053-.026.079-.052c.052-.026.079-.053.131-.026.105 0 .236.13.42.367.105.184.21.341.21.42ZM165.04 48.308c-.026.288-.236.656-.578 1.05.42.367.63.76.63 1.233 0 .472-.21.918-.63 1.364a2.711 2.711 0 0 1-.551.446 1.013 1.013 0 0 1-.525.157c-.131 0-.394-.157-.814-.472-.393-.315-.603-.525-.603-.63 0-.105.052-.183.131-.262.105-.079.184-.131.289-.105.052 0 .157.079.288.236.132.158.263.236.368.263.157.026.394-.132.709-.525.288-.367.42-.63.42-.814 0-.078-.053-.105-.158-.105a.32.32 0 0 0-.236.105c-.079.053-.131.105-.21.132-.053.052-.131.078-.184.052-.079 0-.184-.079-.341-.21a1.459 1.459 0 0 1-.21-.184.637.637 0 0 1-.158-.21c-.026-.026-.026-.078-.026-.104 0-.105.053-.21.158-.263.157-.079.341-.21.577-.446.315-.34.525-.708.604-1.076-.158.027-.341.184-.551.473-.21.262-.342.42-.394.446-.079.026-.236-.026-.473-.158a2.686 2.686 0 0 1-.446-.34c0-.027-.026-.027-.026-.053 0-.079.052-.158.157-.289.342-.393.604-.656.709-.76.263-.237.525-.342.788-.316.288.027.551.184.84.499.367.288.498.577.446.866ZM163.257 59.404c0 .105-.078.183-.262.236-.105.026-.184.026-.289.052-.105.027-.21.027-.315.053v1.627c0 .052-.026.078-.052.13-.027.053-.053.08-.079.106-.026.026-.079.052-.105.079-.026.026-.079.026-.105.026-.262-.026-.525-.236-.866-.604-.026-.052-.053-.105-.026-.21 0-.026.026-.052.052-.078.026-.027.053-.053.053-.08v-.813a4.923 4.923 0 0 0-.473.158c-.131.052-.236.079-.315.105-.315.105-.551.131-.656.157-.105 0-.263-.052-.473-.21-.183-.13-.315-.236-.367-.314-.026-.027-.026-.053-.026-.105 0-.053.052-.132.131-.263l.079-.079a.599.599 0 0 0 .105-.13s.341-.525.971-1.549c.63-.997.971-1.522 1.024-1.548.131-.078.236-.131.315-.131.105 0 .262.105.524.262.237.158.368.289.394.394 0 .053-.026.131-.131.262v1.706c.131-.026.21-.026.236-.026.053 0 .105.026.131.052.079.079.184.21.315.42.132.157.21.288.21.315Zm-1.994-.525v-.866l-.683 1.102.683-.236ZM156.434 65.019c0 .026 0 .052-.026.078-.026.027-.026.053-.053.08l-.078.078c-.027.026-.079.026-.105.052-.053 0-.132 0-.237-.052a.696.696 0 0 0-.262-.079c-.158-.026-.341 0-.551.079-.289.079-.525.21-.735.367v.683c.183-.08.341-.132.498-.132.237 0 .525.132.893.394.341.262.525.525.525.708 0 .656-.158 1.26-.499 1.81-.341.552-.709.814-1.102.814-.21 0-.525-.157-.945-.446-.42-.289-.657-.525-.683-.708 0-.08.026-.184.079-.263.052-.079.131-.13.21-.13.131 0 .315.104.551.314.131.105.236.21.289.262l.105.105c.21-.105.446-.393.656-.813.21-.394.315-.709.315-.945 0-.13-.079-.21-.21-.21s-.289.08-.525.263c-.21.183-.341.262-.341.262-.079 0-.236-.052-.473-.157-.236-.105-.393-.21-.472-.315a.202.202 0 0 1-.053-.131c0-.027 0-.053.027-.105 0-.053.026-.105.026-.132v-1.889c0-.052.026-.13.105-.183.079-.053.157-.105.262-.132.027 0 .053 0 .105.027a.2.2 0 0 0 .105.026c.027 0 .053 0 .079-.026a5.493 5.493 0 0 1 1.05-.315c.158-.026.263-.053.368-.079.105-.026.157-.026.21-.026l.131-.026c.052 0 .079 0 .131.026.105.079.236.21.368.393.183.237.262.368.262.473ZM146.403 69.324c-.42-.079-.735-.236-.893-.42 0-.393-.078-.603-.262-.63-.184-.026-.315.158-.42.551l-.079.394c-.026.131-.026.289-.052.446l.288-.21c.105-.079.21-.131.315-.131.132 0 .289 0 .42.052.053.027.132.08.184.105.053.027.131.053.184.105l.157.08c.053.025.105.052.158.078.052.026.105.079.157.105a.448.448 0 0 1 .105.13c.105.158.158.395.158.683 0 .525-.158 1.05-.447 1.548-.314.525-.656.787-1.076.787-.262 0-.525-.105-.84-.314-.315-.21-.525-.42-.603-.657-.184-.498-.289-1.128-.289-1.862 0-.63.079-1.155.21-1.653.157-.525.394-.866.682-1.024.079-.026.158-.052.237-.052.183 0 .446.078.787.236.368.184.63.315.761.42.236.183.368.367.394.577.026.105.052.21.052.262 0 .053 0 .08-.026.132a.344.344 0 0 1-.079.105.352.352 0 0 1-.105.078c0 .079-.026.079-.078.079Zm-.683.84c-.63.314-.945.787-.945 1.39 0 .184.027.367.105.578.315-.053.552-.315.735-.788.105-.262.158-.498.158-.76-.026-.158-.026-.29-.053-.42ZM137.217 66.595c0 .053-.053.105-.105.131a.443.443 0 0 0-.158.158c-.026.078-.21.76-.577 2.02-.184.63-.315 1.102-.394 1.417-.079.315-.131.498-.131.525v.157c0 .053-.027.131-.027.21a.312.312 0 0 1-.21.236h-.052c-.053 0-.131 0-.184-.026-.052-.026-.157-.052-.262-.079-.21-.078-.368-.157-.473-.262-.052-.026-.079-.105-.079-.184 0-.026.027-.079.053-.131a.346.346 0 0 1 .079-.105c.078-.315.157-.577.236-.866.079-.262.131-.525.21-.76.157-.578.289-1.05.394-1.418.105-.367.183-.63.236-.813l-.945.236c-.105.079-.184.105-.236.105-.105-.026-.237-.105-.473-.236s-.367-.262-.394-.315c-.026-.052-.026-.079-.026-.131 0-.157.079-.263.21-.315a.526.526 0 0 1 .236-.052l.263-.027 1.785-.314c.026 0 .026 0 .052-.027.027 0 .053-.026.079-.052.053-.027.105-.053.158-.027.078.027.21.158.42.42.236.289.341.446.315.525ZM129.425 63.684c0 .446-.315.892-.919 1.364-.604.472-1.181.708-1.733.708-.209 0-.472-.13-.787-.393-.341-.289-.499-.577-.499-.814 0-.577.289-1.102.867-1.548-.473-.157-.709-.42-.709-.787 0-.34.236-.787.735-1.338.498-.55.945-.813 1.338-.813.289 0 .499.052.657.183l.367.473c.131.157.236.315.315.446a.738.738 0 0 1 .105.393c0 .079 0 .158-.026.236-.079.29-.289.525-.578.709.578.394.867.787.867 1.18Zm-1.05-.341c-.42 0-.788.104-1.077.314-.367.263-.603.63-.682 1.102h.105c.341 0 .709-.183 1.102-.524.368-.341.552-.63.552-.892Zm-.263-2.23a1.95 1.95 0 0 0-.866.445c-.236.21-.42.473-.525.788.394 0 .709-.132.997-.42.263-.236.394-.525.394-.814ZM123.074 49.826c.184.498.289 1.128.289 1.863 0 .63-.079 1.154-.21 1.653-.157.525-.394.84-.682.997-.079.026-.158.052-.237.052-.183 0-.446-.078-.787-.236a3.998 3.998 0 0 1-.473-.236c-.131-.079-.236-.131-.288-.184-.237-.183-.368-.367-.394-.577-.026-.105-.053-.21-.053-.262 0-.053 0-.079.027-.131a.36.36 0 0 1 .078-.105c.027-.027.053-.053.105-.08.053-.025.079-.025.105-.025.42.078.735.236.893.42 0 .393.079.603.262.63.184.026.315-.184.447-.63.078-.29.131-.63.157-.971-.236.367-.446.55-.63.577-.131 0-.262 0-.394-.079-.131-.052-.262-.131-.367-.183-.105-.053-.236-.132-.341-.184a.748.748 0 0 1-.263-.236c-.105-.158-.157-.394-.157-.682 0-.525.157-1.05.446-1.548.315-.525.656-.788 1.05-.788.236 0 .525.105.84.315.289.158.472.394.577.63Zm-.997-.079c-.315.053-.551.315-.735.787a1.976 1.976 0 0 0-.158.761c0 .131 0 .263.027.42.63-.315.945-.76.945-1.39.026-.21 0-.394-.079-.578ZM123.7 43.795a.34.34 0 0 1-.105.262c-.079.08-.132.132-.237.105-.078 0-.236-.078-.498-.262-.263-.184-.394-.288-.394-.367 0-.026 0-.079.026-.105.026-.026.026-.079.026-.105v-2.65c0-.105-.105-.158-.288-.21-.21-.053-.342-.131-.368-.21-.026-.026-.026-.079-.026-.131 0-.105.052-.21.131-.315.131-.157.21-.262.236-.341l.158-.499c.026-.105.079-.157.131-.21.053-.052.131-.078.236-.078.184 0 .368.052.552.157.21.131.315.263.315.42v4.172c0 .026 0 .052.026.079.026.026.026.052.052.078.027.026.027.053.053.079-.026.079-.026.105-.026.131ZM127.953 39.019c.209.052.367.262.498.656.105.367.158.84.158 1.364 0 .63-.079 1.26-.263 1.863-.236.866-.603 1.312-1.076 1.312a1.35 1.35 0 0 1-.289-.053c-.078-.026-.157-.052-.21-.078-.052-.026-.078-.026-.078-.026l-.552-.21c-.21-.079-.393-.368-.525-.892-.131-.499-.183-1.05-.183-1.68 0-.63.052-1.154.183-1.6.132-.499.342-.787.63-.892h.053a.2.2 0 0 1 .105.026c.052.026.079.026.105.026.105-.052.236-.052.367-.052.158 0 .315.026.552.105.315.052.498.105.525.13Zm-.788.393c-.21 0-.367.237-.472.683a6.04 6.04 0 0 0-.132 1.285c0 .394.053.814.132 1.26.078.446.183.656.262.656.158 0 .315-.263.394-.761.052-.236.079-.472.105-.735.026-.262.026-.55.026-.84 0-.446-.026-.787-.079-1.075-.052-.315-.131-.473-.236-.473ZM130.154 35.501a.34.34 0 0 1-.105.263c-.079.078-.132.13-.237.104-.078 0-.236-.078-.498-.262-.263-.184-.394-.289-.394-.367 0-.026 0-.079.026-.105.027-.026.027-.079.027-.105v-2.624c0-.105-.105-.157-.289-.21-.21-.052-.341-.131-.368-.21-.026-.026-.026-.078-.026-.131 0-.105.053-.21.131-.315.132-.157.21-.262.237-.341l.157-.498c.026-.105.079-.158.131-.21.053-.053.132-.08.237-.08.183 0 .367.053.551.158.21.131.315.263.315.42v4.172c0 .026 0 .053.026.079.026.026.026.052.052.078.027.027.027.053.053.08-.026.052-.026.104-.026.104ZM134.251 35.501a.336.336 0 0 1-.105.263c-.079.078-.131.13-.236.104-.079 0-.237-.078-.499-.262-.263-.184-.394-.289-.394-.367 0-.026 0-.079.026-.105.027-.026.027-.079.027-.105v-2.624c0-.105-.105-.157-.289-.21-.21-.052-.341-.131-.368-.21-.026-.026-.026-.078-.026-.131 0-.105.053-.21.131-.315.132-.157.21-.262.237-.341l.157-.498c.026-.105.079-.158.131-.21.053-.053.132-.08.237-.08.183 0 .367.053.551.158.21.131.315.263.315.42v4.172c0 .026 0 .053.026.079.026.026.026.052.053.078.026.027.026.053.052.08-.026.052-.026.104-.026.104ZM180.427 31.643a3.78 3.78 0 0 0 3.78-3.778 3.78 3.78 0 0 0-7.56 0 3.779 3.779 0 0 0 3.78 3.778Z" fill="#000"/><path d="M248.667 43.502s6.09-3.857 12.941.525c4.594 2.939 5.145 13.277 3.439 16.819-1.707 3.516-9.529 9.944-9.529 9.944s-29.32-21.358-6.851-27.288Z" fill="#A5713D"/><path d="m229.114 104.455-.079 15.139s-18.112.21-19.266-.078c-1.155-.289-7.009-4.933-7.613-5.169-.603-.263-1.181 0-.945.708.237.709 1.129 2.939 1.129 2.939s-4.436-.499-4.83-.735c-.393-.236-3.071-2.309-3.622-2.466-.551-.184-1.47.183-1.234.761.237.577 2.756 3.804 2.756 3.804s-.498 3.464.814 4.723c1.313 1.286 7.455 2.309 10.447 2.493 2.993.183 25.645 3.096 27.535 2.991 1.89-.079 4.646-.682 5.617-4.723.972-4.041 1.287-19.626 1.287-19.626l-11.996-.761Z" fill="#DD866F"/><path d="M263.55 247.532v23.851h19.897s2.835-4.775 0-6.061c-2.835-1.312-12.075-5.851-12.075-5.851l.368-11.912h-8.19v-.027Z" fill="#F69576"/><path d="M263.55 259.47v11.912h19.897s2.835-4.775 0-6.061c-2.835-1.312-12.075-5.851-12.075-5.851h-7.822Z" fill="#032240"/><path d="m247.198 247.532.184 11.939s-10.421 1.968-13.203 2.807c-3.334 1.024-7.192 1.942-7.743 5.196-.473 2.807 0 3.909 0 3.909h32.259l-3.517-23.851h-7.98Z" fill="#F69576"/><path d="M247.382 259.47s-10.421 1.968-13.203 2.808c-3.334 1.023-7.192 1.941-7.743 5.195-.473 2.807 0 3.909 0 3.909h32.259l-1.233-11.912h-10.08Z" fill="#BFBFBF"/><path d="M226.435 267.471a12.732 12.732 0 0 0-.184 1.496h32.207l-.997-9.524h-10.08s-10.421 1.967-13.203 2.807c-3.333 1.05-7.192 1.968-7.743 5.221Z" fill="#032240"/><path d="M232.682 139.483s-1.128 11.755 0 31.302c1.129 19.548 5.88 38.308 6.431 40.538.551 2.231 1.969 49.381 1.969 49.381l17.639 1.81s-7.271-62.106-7.848-77.481c-.551-15.376 1.968-44.159 1.968-44.159l-20.159-1.391Z" fill="#254B6B"/><path d="M272.689 140.874h-23.204s-1.811 46.468 0 48.646c1.811 2.178 7.271 10.915 8.111 17.606.84 6.691 4.016 57.068 4.016 57.068l14.306-2.545-3.229-120.775Z" fill="#254B6B"/><path d="M255.445 78.347c-11.576-.237-15.277 1.495-17.718 6.9-2.441 5.405-8.583 52.923-9.135 62.631-.551 9.682 1.313 15.48 14.542 15.48 13.23 0 38.77-1.128 38.77-4.67s-2.415-59.088-2.809-68.403c-.341-9.315-14.883-11.755-23.65-11.938Z" fill="#005893"/><path d="M243.131 81.522c-4.567-1.18-8.767-1.128-12.126 5.589-1.733 3.437-2.52 12.568-3.308 19.521-.682 5.904-16.799 7.74-16.799 7.74v19.285s30.606 3.543 33.152-17.186c.971-7.871 7.271-32.824-.919-34.949Z" fill="#005893"/><path d="M251.451 77.403c4.068 0 8.898.394 11.418 1.994 3.071 1.968 3.019 9.315-10.447 9.918-13.466.604-13.019-5.667-11.654-7.53 1.968-2.702 7.559-4.382 10.683-4.382Z" fill="#F69576"/><path d="m246.229 68.98-2.625 16.845h15.881s-.761-6.69-1.654-11.046c-.892-4.33-1.653-5.799-1.653-5.799h-9.949Z" fill="#F69576"/><path d="M253.136 73.573s.132 3.096-1.916 4.46c-2.047 1.365-6.615 1.391-6.615 1.391l1.628-10.417h6.693c0-.026.473 2.572.21 4.566Z" fill="#DD866F"/><path d="M243.945 48.541s-2.022 1.653-2.888 5.327c-.682 2.834-.525 5.85-.866 7.556-.341 1.706-.919 4.408-.446 6.77.472 2.361 2.572 5.589 6.483 6.69 3.885 1.103 7.087.316 9.24-2.413 2.152-2.703 4.803-7.557 5.591-10.942.787-3.384 1.234-9.734-2.363-12.542-4.593-3.542-10.053-3.594-14.751-.446Z" fill="#F69576"/><path d="M251.003 67.538s-.367 2.283-1.732 2.782c-1.365.472-2.73.157-3.36-.604-.63-.76-.945-2.204-.945-2.204l6.037.026Z" fill="#fff"/><path d="M247.593 65.02c-.446-.078-.42-.498-.42-.734v-.053c-.026.026-.052.026-.052.052-.158.105-.394.29-.683.027-.105-.105-.157-.263-.157-.499.026-.446.315-1.05.577-1.26.053-.052.131-.026.184.026.052.053.026.132-.026.184-.184.131-.447.656-.473 1.05 0 .131.026.236.079.289.105.105.184.078.341-.053.079-.052.158-.131.263-.131.052 0 .105 0 .131.053.079.078.079.183.079.315 0 .288.026.42.183.472.079 0 .132 0 .184-.026.079-.053.079-.237.079-.368 0-.105 0-.184.052-.236.027-.052.105-.105.158-.105.131 0 .262.079.446.289.026.026.079.078.158.052.078-.026.183-.131.236-.341.052-.315-.236-.945-.368-1.155a.139.139 0 0 1 .053-.184.139.139 0 0 1 .184.053c.052.078.472.866.393 1.339-.052.288-.21.498-.42.55a.374.374 0 0 1-.42-.13c-.105-.106-.157-.158-.21-.184v.078c0 .158-.026.42-.183.552a.446.446 0 0 1-.263.078h-.105Z" fill="#6B3425"/><path d="M267.019 59.117c-1.208-2.991-9.975-.289-8.348 5.221 1.654 5.641 10.132-.813 8.348-5.221Z" fill="#F69576"/><path d="M260.325 65.02c.027 0 .053 0 .079-.026a.126.126 0 0 0 0-.183c-.367-.394-.446-1.653.026-2.86.315-.866 1.129-2.336 3.019-2.572 1.024-.13 1.732.053 2.126.499.604.682.315 1.784.315 1.81-.026.08.026.131.105.158.079.026.131-.026.158-.105.026-.053.315-1.26-.368-2.047-.472-.525-1.26-.734-2.362-.603-1.496.183-2.678 1.18-3.255 2.755-.446 1.233-.446 2.624.026 3.148.053 0 .079.027.131.027Z" fill="#6B3425"/><path d="M263.472 64.522a.146.146 0 0 0 .132-.08c.052-.104 1.023-2.518-.42-5.22-.027-.053-.105-.08-.184-.053-.053.026-.079.105-.053.184 1.391 2.597.42 4.985.42 4.985-.026.079 0 .131.079.184h.026ZM251.924 62.473c.261 0 .472-.435.472-.971s-.211-.971-.472-.971-.473.435-.473.971.212.971.473.971ZM254.155 58.932c-.367-.315-1.155-.735-1.942-.813-.866-.08-1.391.315-1.733.393-.341.08-.393-.393-.21-.813.184-.42.919-.735 2.126-.683 1.208.053 1.864.578 2.179.945.315.368.105 1.418-.42.971ZM244.522 62.212c.261 0 .473-.434.473-.97 0-.537-.212-.972-.473-.972s-.472.435-.472.971c0 .537.211.971.472.971ZM246.308 58.565c-.367-.314-1.155-.734-1.942-.813-.866-.079-1.391.315-1.732.393-.342.08-.394-.393-.21-.813.183-.42.918-.735 2.126-.683 1.207.053 1.863.578 2.178.945.342.394.079 1.418-.42.971ZM243.185 70.346l.603.157s1.181 2.31 2.153 2.755c.971.446 4.2.289 4.541 0 .341-.288 1.443-2.86 1.443-2.86l.762.184s-1.155 3.7-1.313 4.014c-.105.21-2.231 1.653-3.071 1.732-.814.079-3.675-1.496-3.806-1.837-.446-1.05-1.312-4.145-1.312-4.145Z" fill="#6B3425"/><path d="m246.832 71.79 1.444-.053.026 2.519-1.076.21-.394-2.677Z" fill="#6B3425"/><path d="m260.034 111.776-.078 15.139s-18.112.21-19.267-.079c-1.181-.288-7.009-4.932-7.612-5.168-.604-.263-1.181 0-.945.708.236.708 1.129 2.939 1.129 2.939s-4.437-.499-4.83-.735c-.394-.236-3.071-2.309-3.623-2.466-.551-.158-1.47.183-1.233.761.236.577 2.756 3.804 2.756 3.804s-.499 3.464.814 4.723c1.312 1.286 7.454 2.309 10.447 2.493 2.992.183 25.645 3.096 27.535 2.991 1.889-.079 4.646-.682 5.617-4.723.971-4.041 1.286-19.626 1.286-19.626l-11.996-.761Z" fill="#F69576"/><path d="M259.482 45.077s-3.333 6.035-12.599 6.56c-19.293 1.128-10.447-9.708-10.447-9.708s-.683 2.86 2.625 3.017c4.541.21 11.103-13.565 20.421.131Z" fill="#A5713D"/><path d="M243.417 40.88s2.808-7.662 10.814-9.027c8.006-1.364 17.193 5.484 20.369 11.493 3.176 6.008 1.05 18.97 1.05 18.97s-1.234-13.592-4.2-14.326c-2.966-.735-6.299 4.12-6.299 4.12l-21.734-11.23Z" fill="#254B6B"/><path d="M242.555 39.437c-1.365.55-4.226 4.146-3.596 5.405.63 1.26 24.569 12.41 25.619 12.726 1.076.34 3.333-4.041 1.758-6.954-1.574-2.912-20.132-12.646-23.781-11.177ZM278.344 62.018c.147-1.834-1.176-3.436-2.953-3.578-1.777-.142-3.337 1.23-3.483 3.065-.146 1.835 1.176 3.437 2.953 3.578 1.778.142 3.337-1.23 3.483-3.065Z" fill="#fff"/><path d="M263.946 86.69c10.368-.315 11.392 14.3 11.917 23.484.525 9.183-1.05 23.693-3.885 26.736-2.835 3.044-30.895 1.994-30.895 1.994v-19.022s18.112 1.574 18.768.131c.657-1.443-12.678-32.798 4.095-33.323Z" fill="#046AA3"/><path d="M210.238 114.374c-.131-2.939 4.331-2.414 4.804-.683.446 1.732.866 19.443 0 20.755-.866 1.312-3.36 1.968-4.148 0-.787-1.968-.525-17.186-.656-20.072ZM241.083 119.882c-.131-2.492 2.757-2.492 3.019 0 .263 2.493.709 17.947.499 19.6-.236 1.653-3.518 4.225-3.518.577 0-3.647.105-17.684 0-20.177ZM239.116 80.945c1.077-1.784 4.568-2.335 4.043-1.18-.499 1.154-.447 6.27 1.496 6.927 1.942.656 4.2.393 4.252 2.624.053 2.23-6.011 1.18-7.822-.525-1.837-1.706-3.15-5.878-1.969-7.846Z" fill="#fff"/><path d="M258.515 77.9c-.447-1.68 5.144-1.339 5.984.42 1.287 2.623.972 4.198 0 6.533-1.522 3.726-7.586 6.69-12.205 6.69-2.704 0-4.646-1.049-3.413-2.886 1.234-1.836 7.088-.052 9.607-2.833 2.547-2.808.42-6.507.027-7.924ZM247.802 102.828a2.361 2.361 0 1 0 0-4.722 2.362 2.362 0 1 0 0 4.722ZM248.432 153.495a2.152 2.152 0 1 0 0-4.304 2.152 2.152 0 0 0 0 4.304ZM246.937 115.711a1.968 1.968 0 1 0 .002-3.936 1.968 1.968 0 0 0-.002 3.936Z" fill="#fff"/><path d="m121.417 125.839 19.267 36.681 4.384-.551 1.811-44.579s-2.31-9.393-5.906-11.282c-3.57-1.916-6.221-1.05-7.717.787-1.496 1.837-6.904-1.076-9.266-.131-2.363.944-.866 6.376-2.888 6.927-2.047.524-6.299-.446.315 12.148Z" fill="#6C868C"/><path d="M138.271 111.227s1.601-3.122 1.759-4.408c1.338.342 3.543-.393 3.543-.393s-1.102 1.417-.971 2.807c-.997.315-4.331 1.994-4.331 1.994Z" fill="#5B725B"/><path d="M138.14 114.637s.551 2.519.052 3.831c.656.473.971.971 1.129 1.312.787.131 1.391 1.155 1.391 1.155s.184-.997.499-1.601c-.368-.735-.525-1.364-.42-1.837-.945-.787-2.651-2.86-2.651-2.86ZM130.739 113.772c1.26.394 4.541-.787 4.541-.787s-2.861 3.254-3.281 4.12c-1.233-1.076-3.386-1.155-3.386-1.155s1.811-.839 2.126-2.178Z" fill="#9AA69A"/><path d="M129.453 112.513s1.575-1.653 3.307-1.548c1.733.105 4.2 1.495 4.2 1.495s-2.283 1.496-3.937 1.365c-1.68-.158-3.57-1.312-3.57-1.312Z" fill="#512176"/><path d="M131.896 106.687s.892.813 1.942 1.233c3.098 1.233 3.098 4.487 3.098 4.487s-2.389-.814-3.413-2.126c-1.023-1.259-1.627-3.594-1.627-3.594Z" fill="#642E93"/><path d="M136.539 104.668s2.572 5.903.393 7.766c-2.756-1.364-.577-6.533-.393-7.766Z" fill="#512176"/><path d="M143.891 110.229s-2.546-.63-4.252.027c-1.706.682-2.704 2.178-2.704 2.178s1.837.289 3.701-.315 2.599-1.785 3.255-1.89Z" fill="#642E93"/><path d="M142.551 118.18s.079-2.44-1.994-4.303c-2.074-1.863-3.597-1.443-3.597-1.443s.499 1.679 1.707 3.175c1.207 1.496 3.884 2.571 3.884 2.571Z" fill="#642E93"/><path d="M137.619 119.571s1.181-3.674.394-5.274c-.787-1.574-1.05-1.863-1.05-1.863s-1.391 1.338-1.181 3.044c.21 1.705 1.837 4.093 1.837 4.093Z" fill="#512176"/><path d="M132.999 118.652s.341-3.385 1.312-4.723c.972-1.338 2.652-1.47 2.652-1.47s-.657 2.729-1.26 3.805c-.604 1.05-2.231 1.443-2.704 2.388Z" fill="#642E93"/><path d="M133.525 109.312s1.811.446 2.546 1.312c.735.866.866 1.811.866 1.811s-1.312.078-1.968-.656c-.657-.735-1.444-2.467-1.444-2.467ZM139.771 107.423s.236 1.994-.525 3.201c-.761 1.233-2.283 1.81-2.283 1.81s-.289-1.653.603-2.912c.893-1.26 2.205-2.099 2.205-2.099Z" fill="#512176"/><path d="M142.42 113.381s-1.365-1.286-2.808-1.549c-1.444-.262-2.652.604-2.652.604s1.365.866 2.704 1.076c1.339.21 2.756-.131 2.756-.131Z" fill="#512176"/><path d="M139.48 117.498s-.026-2.388-.814-3.49c-.787-1.076-1.706-1.574-1.706-1.574s-.525.866-.026 2.073c.499 1.207 2.546 2.991 2.546 2.991Z" fill="#512176"/><path d="M131.896 115.427s1.102-1.862 2.205-2.623c1.102-.761 2.835-.341 2.835-.341s-.525 1.233-1.575 1.967c-1.05.735-3.465.997-3.465.997Z" fill="#512176"/><path d="M137.005 111.634a.366.366 0 1 0-.403-.612.366.366 0 0 0 .403.612Z" fill="#FFE051"/><path d="M136.615 112.183a.366.366 0 1 0-.403-.612.366.366 0 0 0 .403.612Z" fill="#FFE051"/><path d="M137.048 112.769a.394.394 0 1 0-.433-.658.394.394 0 0 0 .433.658Z" fill="#FFE051"/><path d="M137.655 112.374a.393.393 0 1 0-.432-.657.393.393 0 0 0 .432.657Z" fill="#FFE051"/><path d="M137.459 111.795a.34.34 0 1 0-.376-.568.34.34 0 0 0 .376.568Z" fill="#FFE051"/><path d="M137.799 111.707a.262.262 0 1 0-.289-.438.262.262 0 0 0 .289.438ZM137.175 112.141a.367.367 0 1 0-.405-.613.367.367 0 0 0 .405.613Z" fill="#CEAA22"/><path d="M126.248 108.628s-.63-3.096-1.26-4.093c1.129-.499 2.284-2.257 2.284-2.257s.026 1.627.892 2.519c-.551.787-1.916 3.831-1.916 3.831Z" fill="#5B725B"/><path d="M128.055 111.094s1.811 1.47 2.205 2.65c.735-.026 1.234.131 1.523.289.629-.341 1.627.026 1.627.026s-.446-.813-.551-1.417c-.683-.315-1.155-.656-1.339-1.049-1.102 0-3.465-.499-3.465-.499ZM122.363 114.61c1.102-.446 2.756-3.096 2.756-3.096s-.184 3.883.026 4.723c-1.496-.079-3.045 1.102-3.045 1.102s.788-1.627.263-2.729Z" fill="#9AA69A"/><path d="M120.734 114.453s.184-2.046 1.444-2.938c1.26-.892 3.78-1.286 3.78-1.286s-.761 2.309-1.995 3.149c-1.234.839-3.229 1.075-3.229 1.075Z" fill="#512176"/><path d="M119.186 108.995s1.076.079 2.074-.21c2.887-.84 4.724 1.418 4.724 1.418s-2.152.761-3.596.42c-1.443-.341-3.202-1.628-3.202-1.628Z" fill="#642E93"/><path d="M121.311 104.98s5.145 2.729 4.672 5.222c-2.73.603-4.121-4.251-4.672-5.222Z" fill="#512176"/><path d="M129.633 104.798s-2.152.971-2.966 2.387c-.814 1.417-.683 3.018-.683 3.018s1.47-.814 2.415-2.283c.945-1.469.814-2.702 1.234-3.122Z" fill="#642E93"/><path d="M133.178 111.121s-1.339-1.759-3.859-1.916c-2.52-.158-3.334.997-3.334.997s1.287.892 2.993 1.286 4.2-.367 4.2-.367Z" fill="#642E93"/><path d="M130.474 114.873s-1.26-3.253-2.704-3.936c-1.443-.682-1.811-.708-1.811-.708s-.236 1.705.893 2.807c1.154 1.05 3.622 1.837 3.622 1.837Z" fill="#512176"/><path d="M126.721 116.789s-1.68-2.572-1.758-4.041c-.079-1.496 1.023-2.519 1.023-2.519s1.076 2.283 1.286 3.385c.184 1.049-.761 2.256-.551 3.175Z" fill="#642E93"/><path d="M121.812 109.913s1.522-.683 2.519-.499a3.462 3.462 0 0 1 1.654.788s-.892.787-1.759.656c-.866-.131-2.414-.945-2.414-.945Z" fill="#512176"/><path d="M125.119 105.112s1.286 1.259 1.444 2.545c.157 1.285-.604 2.545-.604 2.545s-1.129-.997-1.207-2.388c-.079-1.364.367-2.702.367-2.702Z" fill="#512176"/><path d="M130.369 107.815s-1.68-.131-2.861.472c-1.181.604-1.523 1.917-1.523 1.917s1.47-.158 2.52-.735c1.05-.578 1.864-1.654 1.864-1.654Z" fill="#512176"/><path d="M130.631 112.355s-1.365-1.68-2.546-1.995c-1.181-.315-2.1-.157-2.1-.157s.132.892 1.155 1.47c1.024.577 3.491.682 3.491.682Z" fill="#512176"/><path d="M124.118 115.134s-.263-1.915.079-3.096c.341-1.181 1.811-1.837 1.811-1.837s.315 1.155 0 2.283c-.341 1.128-1.89 2.65-1.89 2.65Z" fill="#512176"/><path d="M125.544 109.624a.315.315 0 1 0-.6-.195.315.315 0 0 0 .6.195Z" fill="#FFE051"/><path d="M125.598 110.24a.34.34 0 1 0-.648-.21.34.34 0 0 0 .648.21Z" fill="#FFE051"/><path d="M126.238 110.387a.34.34 0 1 0-.648-.212.34.34 0 0 0 .648.212Z" fill="#FFE051"/><path d="M126.425 109.757a.34.34 0 1 0-.648-.21.34.34 0 0 0 .648.21Z" fill="#FFE051"/><path d="M125.99 109.486a.316.316 0 0 0-.202-.397.315.315 0 1 0 .202.397Z" fill="#FFE051"/><path d="M126.159 109.226a.236.236 0 1 0-.449-.147.236.236 0 0 0 .449.147ZM125.938 109.865a.314.314 0 1 0-.598-.194.314.314 0 0 0 .598.194Z" fill="#CEAA22"/><path d="M132.099 122.926s2.966-.315 3.937-.813c.446 1.049 2.1 2.204 2.1 2.204s-1.549-.105-2.441.603c-.735-.524-3.596-1.994-3.596-1.994Z" fill="#5B725B"/><path d="M129.687 124.344s-1.443 1.496-2.598 1.758c0 .656-.158 1.076-.315 1.338.315.577-.079 1.443-.079 1.443s.787-.341 1.365-.393c.315-.578.656-.971 1.05-1.102.026-.971.577-3.044.577-3.044ZM126.482 119.019c.394 1.023 2.861 2.702 2.861 2.702s-3.701-.472-4.514-.341c.105-1.312-.972-2.781-.972-2.781s1.549.787 2.625.42Z" fill="#9AA69A"/><path d="M126.695 117.575s1.942.314 2.756 1.521c.814 1.207 1.129 3.49 1.129 3.49s-2.205-.866-2.966-2.02c-.762-1.207-.919-2.991-.919-2.991Z" fill="#512176"/><path d="M131.917 116.603s-.105.971.131 1.863c.735 2.624-1.47 4.093-1.47 4.093s-.656-1.968-.315-3.253c.341-1.286 1.654-2.703 1.654-2.703Z" fill="#642E93"/><path d="M135.694 118.807s-2.73 4.382-5.119 3.752c-.472-2.493 4.2-3.332 5.119-3.752Z" fill="#512176"/><path d="M135.671 126.232s-.866-1.994-2.204-2.834c-1.339-.84-2.862-.84-2.862-.84s.735 1.365 2.127 2.336c1.338.997 2.546.944 2.939 1.338Z" fill="#642E93"/><path d="M129.525 128.882s1.706-1.05 1.916-3.28c.21-2.23-.866-3.044-.866-3.044s-.893 1.076-1.286 2.572c-.394 1.495.236 3.752.236 3.752Z" fill="#642E93"/><path d="M126.038 126.206s3.123-.866 3.832-2.099c.682-1.233.735-1.548.735-1.548s-1.628-.341-2.704.577c-1.076.918-1.863 3.07-1.863 3.07Z" fill="#512176"/><path d="M124.307 122.69s2.494-1.286 3.911-1.26c1.418.027 2.389 1.129 2.389 1.129s-2.205.788-3.255.866c-1.076.105-2.179-.84-3.045-.735Z" fill="#642E93"/><path d="M130.971 118.86s.629 1.417.419 2.282c-.21.893-.787 1.391-.787 1.391s-.735-.84-.577-1.627c.131-.734.945-2.046.945-2.046Z" fill="#512176"/><path d="M135.458 122.192s-1.234 1.05-2.467 1.076c-1.234.026-2.415-.735-2.415-.735s.971-.919 2.31-.892c1.338.026 2.572.551 2.572.551Z" fill="#512176"/><path d="M132.758 126.653s.184-1.496-.368-2.572c-.551-1.102-1.785-1.495-1.785-1.495s.105 1.312.63 2.283c.525.97 1.523 1.784 1.523 1.784Z" fill="#512176"/><path d="M128.396 126.52s1.627-1.102 1.969-2.099c.341-1.023.21-1.863.21-1.863s-.867.027-1.418.919c-.551.892-.761 3.043-.761 3.043Z" fill="#512176"/><path d="M125.932 120.512s1.837-.079 2.94.315c1.102.394 1.706 1.732 1.706 1.732s-1.103.184-2.179-.184c-1.05-.367-2.467-1.863-2.467-1.863Z" fill="#512176"/><path d="M131.538 122.076c.058-.148-.027-.319-.189-.382s-.34.006-.397.154c-.058.149.026.32.188.383s.34-.006.398-.155Z" fill="#FFE051"/><path d="M130.979 122.064c.057-.149-.027-.32-.189-.383s-.34.006-.398.155c-.058.148.027.32.189.382.162.063.34-.006.398-.154Z" fill="#FFE051"/><path d="M130.829 122.614c.063-.162-.028-.349-.204-.417-.175-.068-.368.008-.431.17s.028.348.203.416c.176.069.369-.007.432-.169Z" fill="#FFE051"/><path d="M131.419 122.845c.063-.162-.028-.348-.204-.417-.175-.068-.369.008-.432.17s.029.349.204.417.369-.008.432-.17Z" fill="#FFE051"/><path d="M131.645 122.483c.053-.135-.025-.291-.173-.349-.149-.058-.312.005-.364.14-.053.135.025.291.173.348.149.058.312-.005.364-.139Z" fill="#FFE051"/><path d="M131.825 122.684c.042-.108-.022-.233-.143-.281-.122-.047-.254.002-.296.11-.042.108.022.234.143.281.122.048.254-.002.296-.11ZM131.309 122.409c.058-.148-.027-.319-.189-.382-.161-.063-.34.006-.397.154-.058.149.026.32.188.383s.34-.006.398-.155Z" fill="#CEAA22"/><path d="M122.151 118.597s-.813 3.437-.63 4.696c-1.364 0-3.359 1.233-3.359 1.233s.735-1.653.262-2.965c.919-.524 3.727-2.964 3.727-2.964Z" fill="#5B725B"/><path d="M121.494 115.239s-1.129-2.309-.972-3.7c-.761-.314-1.181-.708-1.417-.997-.787.053-1.627-.787-1.627-.787s.078 1.024-.105 1.679c.525.63.84 1.207.866 1.68 1.102.551 3.255 2.125 3.255 2.125ZM128.873 114.294c-1.312-.079-4.226 1.836-4.226 1.836s1.995-3.83 2.179-4.801c1.47.761 3.569.288 3.569.288s-1.548 1.339-1.522 2.677Z" fill="#9AA69A"/><path d="M130.421 115.239s-1.129 1.994-2.835 2.309c-1.706.314-4.436-.447-4.436-.447s1.837-1.994 3.491-2.282c1.654-.289 3.78.42 3.78.42Z" fill="#512176"/><path d="M129.449 121.457s-1.05-.577-2.179-.735c-3.307-.472-4.095-3.621-4.095-3.621s2.52.21 3.833 1.234c1.312 1.023 2.441 3.122 2.441 3.122Z" fill="#642E93"/><path d="M125.433 124.527s-3.911-5.117-2.257-7.426c3.018.656 2.152 6.219 2.257 7.426Z" fill="#512176"/><path d="M116.953 120.906s2.625 0 4.121-1.05c1.496-1.075 2.1-2.755 2.1-2.755s-1.838.158-3.518 1.181c-1.653 1.05-2.073 2.388-2.703 2.624Z" fill="#642E93"/><path d="M116.351 112.879s.525 2.388 2.992 3.7c2.467 1.312 3.832.525 3.832.525s-.892-1.522-2.415-2.677c-1.548-1.154-4.409-1.548-4.409-1.548Z" fill="#642E93"/><path d="M120.817 110.332s-.262 3.857.893 5.221c1.128 1.365 1.47 1.548 1.47 1.548s1.023-1.626.42-3.227c-.604-1.6-2.783-3.542-2.783-3.542Z" fill="#512176"/><path d="M125.512 110.122s.499 3.359-.131 4.907c-.604 1.548-2.231 2.073-2.231 2.073s0-2.808.289-3.989c.341-1.207 1.837-1.968 2.073-2.991Z" fill="#642E93"/><path d="M127.244 119.307s-1.864 0-2.783-.656a4.008 4.008 0 0 1-1.286-1.549s1.26-.394 2.074.157c.814.552 1.995 2.048 1.995 2.048Z" fill="#512176"/><path d="M121.655 122.639s-.709-1.863-.262-3.254c.446-1.391 1.785-2.309 1.785-2.309s.682 1.522.105 2.965c-.552 1.469-1.628 2.598-1.628 2.598Z" fill="#512176"/><path d="M117.636 117.494s1.627.919 3.097.84c1.47-.078 2.441-1.233 2.441-1.233s-1.548-.525-2.887-.42c-1.339.105-2.651.813-2.651.813Z" fill="#512176"/><path d="M119.502 112.798s.604 2.309 1.627 3.175c1.024.866 2.048 1.129 2.048 1.129s.289-.971-.473-2.021c-.787-1.023-3.202-2.283-3.202-2.283Z" fill="#512176"/><path d="M127.35 113.011s-.63 2.072-1.523 3.096c-.892 1.023-2.677 1.023-2.677 1.023s.21-1.312 1.076-2.309c.84-.997 3.124-1.81 3.124-1.81Z" fill="#512176"/><path d="M123.828 118.39a.368.368 0 1 0-.542-.498.368.368 0 0 0 .542.498Z" fill="#FFE051"/><path d="M124.103 117.768a.366.366 0 1 0-.539-.497.366.366 0 1 0 .539.497Z" fill="#FFE051"/><path d="M123.563 117.337a.394.394 0 1 0-.58-.533.394.394 0 0 0 .58.533Z" fill="#FFE051"/><path d="M123.062 117.872a.394.394 0 1 0-.579-.534.394.394 0 0 0 .579.534Z" fill="#FFE051"/><path d="M123.322 118.308a.341.341 0 1 0-.501-.463.341.341 0 0 0 .501.463Z" fill="#FFE051"/><path d="M122.915 118.378a.262.262 0 1 0-.386-.356.262.262 0 0 0 .386.356ZM123.56 117.948a.367.367 0 1 0-.539-.497.367.367 0 0 0 .539.497Z" fill="#CEAA22"/><path d="M140.577 123.216s1.365 2.86 2.205 3.647c-.971.761-1.68 2.729-1.68 2.729s-.42-1.574-1.496-2.23c.367-.866.971-4.146.971-4.146Z" fill="#5B725B"/><path d="M138.212 121.249s-2.1-.971-2.756-2.047c-.709.21-1.234.183-1.549.105-.525.472-1.601.367-1.601.367s.63.682.893 1.234c.735.157 1.286.367 1.548.708 1.05-.288 3.465-.367 3.465-.367ZM142.882 116.472c-.971.682-1.943 3.647-1.943 3.647s-.761-3.805-1.181-4.592c1.47-.289 2.678-1.784 2.678-1.784s-.342 1.784.446 2.729Z" fill="#9AA69A"/><path d="M144.484 116.262s.315 2.021-.683 3.201c-1.023 1.181-3.36 2.178-3.36 2.178s.184-2.44 1.182-3.542c1.023-1.155 2.861-1.837 2.861-1.837Z" fill="#512176"/><path d="M147.319 121.142s-1.077.184-1.943.683c-2.598 1.522-4.935-.237-4.935-.237s1.89-1.26 3.387-1.286c1.496 0 3.491.84 3.491.84Z" fill="#642E93"/><path d="M146.217 125.55s-5.643-1.39-5.801-3.962c2.546-1.207 5.04 3.175 5.801 3.962Z" fill="#512176"/><path d="M138.21 127.755s1.864-1.47 2.31-3.044c.447-1.574-.078-3.096-.078-3.096s-1.208 1.128-1.812 2.807c-.603 1.68-.131 2.808-.42 3.333Z" fill="#642E93"/><path d="M133.252 122.453s1.706 1.391 4.2.919c2.493-.473 2.992-1.759 2.992-1.759s-1.47-.577-3.202-.525c-1.733.053-3.99 1.365-3.99 1.365Z" fill="#642E93"/><path d="M134.957 118.175s1.995 2.834 3.57 3.149c1.575.315 1.916.262 1.916.262s-.184-1.705-1.549-2.492c-1.338-.761-3.937-.919-3.937-.919Z" fill="#512176"/><path d="M138.164 115.42s2.231 2.073 2.677 3.516c.446 1.417-.394 2.703-.394 2.703s-1.601-1.968-2.047-2.965c-.446-.997.157-2.414-.236-3.254Z" fill="#642E93"/><path d="M144.562 120.88s-1.312 1.05-2.336 1.102c-1.023.053-1.785-.367-1.785-.367s.657-.998 1.549-1.05c.893-.079 2.572.315 2.572.315Z" fill="#512176"/><path d="M142.493 126.364s-1.549-.918-2.021-2.125c-.473-1.207-.026-2.624-.026-2.624s1.338.682 1.758 2.02c.42 1.312.289 2.729.289 2.729Z" fill="#512176"/><path d="M136.768 124.974s1.654-.262 2.651-1.154c.998-.866 1.024-2.231 1.024-2.231s-1.391.499-2.257 1.312c-.893.866-1.418 2.073-1.418 2.073Z" fill="#512176"/><path d="M135.407 120.645s1.732 1.286 2.94 1.313c1.207.026 2.073-.342 2.073-.342s-.341-.84-1.47-1.155c-1.128-.288-3.543.184-3.543.184Z" fill="#512176"/><path d="M141.072 116.394s.735 1.81.683 3.017c-.053 1.207-1.313 2.204-1.313 2.204s-.577-1.049-.551-2.204c.026-1.181 1.181-3.017 1.181-3.017Z" fill="#512176"/><path d="M141.638 122.13a.315.315 0 1 0-.626-.044.315.315 0 0 0 .626.044Z" fill="#FFE051"/><path d="M141.485 121.559a.34.34 0 1 0-.68-.048.34.34 0 0 0 .68.048Z" fill="#FFE051"/><path d="M140.836 121.557a.34.34 0 1 0-.68-.048.34.34 0 0 0 .68.048Z" fill="#FFE051"/><path d="M140.776 122.205a.341.341 0 1 0-.68-.048.341.341 0 0 0 .68.048Z" fill="#FFE051"/><path d="M141.244 122.361a.315.315 0 1 0-.627-.043.315.315 0 0 0 .627.043Z" fill="#FFE051"/><path d="M140.988 122.656a.236.236 0 1 0-.471-.033.236.236 0 0 0 .471.033ZM141.176 121.993a.315.315 0 1 0-.628-.044.315.315 0 0 0 .628.044Z" fill="#CEAA22"/><path d="M90.703 115.606c2.809-3.306 14.778 3.673 17.01 7.032 2.231 3.332 16.116 15.086 16.116 15.086l3.124 8.738s-11.208.498-20.264-2.598c-9.03-3.122-19.372-24.27-15.986-28.258Z" fill="#72645D"/><path d="M157.425 131.689h-35.593v32.771h35.593v-32.771Z" fill="#FFE051"/><path d="M157.425 140.11h-35.593v.525h35.593v-.525Z" fill="#493127"/><path d="M138.369 131.689h-.525v32.771h.525v-32.771Z" fill="#493127"/><path d="m137.712 140.796.131-.787c.079-.499.788-4.986 2.31-5.825.315-.184.656-.21.971-.053.315.132.525.394.604.709.315 1.6-3.045 5.011-3.439 5.405l-.577.551Zm2.966-6.245a.594.594 0 0 0-.289.079c-.918.498-1.575 3.017-1.89 4.618 1.313-1.417 2.861-3.464 2.704-4.303-.026-.158-.131-.263-.289-.315a.417.417 0 0 0-.236-.079Z" fill="#493127"/><path d="m137.216 140.373.735-.525c.184-.131 4.383-3.227 6.509-2.729.473.105.814.368 1.024.787a.722.722 0 0 1 0 .656c-.709 1.234-6.247 1.68-7.349 1.758l-.919.053Zm6.72-2.781c-1.444 0-3.675 1.338-4.883 2.125 2.415-.236 5.591-.735 5.959-1.417.026-.053.026-.079 0-.157a.909.909 0 0 0-.683-.499c-.131-.052-.262-.052-.393-.052Z" fill="#493127"/><path d="M144.457 144.309h-.027c-1.994-.026-6.142-2.755-6.588-3.857-.131-.315-.026-.498.053-.577.682-.735 4.593.708 6.404 1.915 1.076.709 1.496 1.365 1.234 1.942-.131.262-.394.577-1.076.577Zm-6.142-4.093c.131.604 3.464 3.044 5.643 3.516.42.079.971.131 1.102-.21.105-.236-.157-.63-.708-1.049-1.89-1.444-5.512-2.519-6.037-2.257Z" fill="#493127"/><path d="M141.309 147.877c-.184 0-.394-.052-.578-.157-1.837-.997-2.808-6.953-2.913-7.635l-.131-.84.577.63c.472.498 4.567 5.037 4.174 7.058a1.145 1.145 0 0 1-.657.813.978.978 0 0 1-.472.131Zm-2.809-6.953c.394 2.126 1.313 5.72 2.468 6.35.21.105.393.105.603.026a.628.628 0 0 0 .368-.446c.262-1.312-2.021-4.277-3.439-5.93Z" fill="#493127"/><path d="M135.249 147.195a.92.92 0 0 1-.551-.184c-.315-.21-.473-.498-.525-.865-.184-1.89 3.386-5.432 3.806-5.825l.604-.578-.158.814c-.105.603-1.181 5.877-2.782 6.559a1.045 1.045 0 0 1-.394.079Zm-.262-.63c.157.105.288.105.446.053.971-.42 1.863-3.437 2.283-5.3-1.233 1.312-3.123 3.594-3.018 4.749a.646.646 0 0 0 .289.498Z" fill="#493127"/><path d="M132.043 143.995c-.131 0-.263 0-.394-.027-.892-.104-1.234-.603-1.365-.997-.367-1.023.131-1.915 1.418-2.518 2.1-.971 6.168-1.024 6.667-.105.079.131.131.367-.105.708-.709 1.155-4.095 2.939-6.221 2.939Zm3.727-3.752c-1.207 0-2.703.183-3.832.708-1.024.472-1.418 1.102-1.155 1.863.315.892 1.706.682 2.494.499 2.441-.604 4.698-2.283 4.646-2.677-.105-.236-.998-.393-2.153-.393Z" fill="#493127"/><path d="M137.921 140.846c-.184 0-.367-.053-.446-.079-1.47-.446-4.961-3.017-5.25-4.618-.079-.393.053-.734.341-.944 1.024-.761 2.835.577 4.174 2.073.236.262 2.31 2.65 1.601 3.384-.105.158-.262.184-.42.184Zm-4.646-5.326a.645.645 0 0 0-.394.131c-.236.183-.21.551.132 1.049 1.128 1.784 4.514 3.857 4.987 3.621.157-.288-.945-2.204-2.625-3.673-.866-.735-1.575-1.128-2.1-1.128Z" fill="#493127"/><path d="M108.501 171.545s9.423 21.122 12.993 31.197c3.57 10.076 5.197 20.151 4.226 23.063-.971 2.913-18.138 38.098-18.138 38.098l-17.114.735s12.521-31.67 12.836-36.865c.315-5.195-19.188-56.202-19.188-56.202H108.5v-.026Z" fill="#032240"/><path d="M108.498 171.545s-20.16 53.604-22.417 56.202c-2.283 2.598-34.78 16.897-34.78 16.897l-8.136-12.358s28.61-14.3 28.926-17.212c.315-2.912 0-43.529 0-43.529h36.407Z" fill="#032240"/><path d="m38.965 235.698 5.434-1.575 4.987 7.557s1.942 9.446 2.415 10.417c.499.97-1.312 2.912-1.312 2.912l-11.524-19.311ZM93.829 269.649l1.496-5.458 9.056-.288s9.055 3.28 10.132 3.385c1.076.105 1.811 2.623 1.811 2.623l-22.495-.262Z" fill="#6B3425"/><path d="M75.848 111.748c5.617-3.384 21.603 0 24.542 7.137 2.94 7.137 2.888 31.197 4.699 38.334 1.811 7.137 11.523 25.425 11.261 28.6-.263 3.175-44.545 2.912-46.172-2.598-1.654-5.51-6.195-64.31 5.67-71.473Z" fill="#84766E"/><path d="M79.625 119.016c4.252 3.017 12.678 32.168 15.592 32.824 2.913.656 32.837 4.539 35.751 3.568 2.913-.97 9.213-3.568 8.662-2.282-.551 1.285-5.092 3.568-3.806 3.909 1.312.315 6.562-.656 6.693 1.627.131 2.283 1.05 5.536-1.05 5.536s-10.526-1.941-12.468-1.627c-1.942.315-33.808 4.54-36.722 1.627-2.914-2.912-19.188-27.288-20.16-34.765-.97-7.478 5.172-12.044 7.508-10.417Z" fill="#F69576"/><path d="M72.037 118.676c6.878-3.411 12.127.341 17.01 12.017 4.882 11.676 7.48 18.157 10.08 18.498 2.598.341 15.591 1.312 16.588 2.283.998.971 3.255 13.25 1.628 14.09-1.628.866-20.79 2.388-26.643 0-5.853-2.388-20.789-33.9-22.101-37.494-1.339-3.516 0-7.662 3.438-9.394Z" fill="#8E7C73"/><path d="m93.091 105.215 2.625 16.845h-15.88s.76-6.691 1.653-11.047c.893-4.329 1.654-5.798 1.654-5.798h9.948Z" fill="#F69576"/><path d="M86.162 109.806s-.13 3.096 1.917 4.46c2.047 1.365 6.614 1.391 6.614 1.391l-1.627-10.417h-6.694c0-.026-.472 2.598-.21 4.566Z" fill="#DD866F"/><path d="M95.346 84.8s2.02 1.654 2.887 5.327c.682 2.834.525 5.851.866 7.557.341 1.705.919 4.408.446 6.769-.472 2.362-2.572 5.589-6.483 6.691-3.885 1.102-7.087.315-9.24-2.414-2.152-2.703-4.803-7.557-5.59-10.941-.788-3.385-1.234-9.735 2.362-12.542 4.593-3.569 10.08-3.595 14.752-.446Z" fill="#F69576"/><path d="M88.89 106.474s.184 1.102 1.34 1.129c1.18.026 2.414-.368 3.044-.867.604-.498.998-1.286.998-1.286l-5.381 1.024Z" fill="#fff"/><path d="M91.62 101.253c-.105 0-.21-.026-.263-.079-.157-.131-.183-.393-.183-.551v-.079c-.027.027-.105.079-.21.184a.373.373 0 0 1-.42.131c-.21-.052-.368-.262-.42-.551-.105-.472.341-1.26.394-1.339.026-.052.105-.078.183-.052.053.026.08.105.053.184-.131.21-.42.84-.368 1.155.053.21.158.315.237.341.078.026.13-.026.157-.053.184-.21.341-.288.446-.288.079 0 .132.052.158.105.026.052.026.131.052.236 0 .131 0 .289.079.367.026.027.105.027.184.027.183-.027.21-.158.183-.473 0-.131 0-.262.08-.315a.201.201 0 0 1 .13-.052c.106 0 .184.078.263.131.157.131.236.157.341.052.053-.052.079-.157.079-.288-.026-.394-.289-.92-.473-1.05-.052-.053-.078-.132-.026-.184.053-.053.132-.079.184-.026.263.21.551.813.578 1.26 0 .236-.027.393-.158.498-.289.263-.525.079-.682-.026-.027-.026-.053-.026-.053-.052v.052c0 .236.026.656-.42.735h-.105Z" fill="#6B3425"/><path d="M72.275 95.347c1.207-2.99 9.974-.288 8.347 5.222-1.654 5.641-10.106-.814-8.347-5.222Z" fill="#F69576"/><path d="M78.997 101.253c-.026 0-.052 0-.079-.026a.127.127 0 0 1 0-.184c.368-.393.447-1.653-.026-2.86-.315-.865-1.129-2.335-3.019-2.57-1.023-.132-1.732.052-2.126.498-.603.682-.315 1.784-.315 1.81.026.079-.026.131-.105.158-.078.026-.131-.027-.157-.105-.026-.053-.315-1.26.367-2.047.473-.525 1.26-.735 2.363-.603 1.496.183 2.677 1.18 3.254 2.755.447 1.233.447 2.623-.026 3.148-.052.026-.105.026-.131.026Z" fill="#6B3425"/><path d="M75.843 100.778a.144.144 0 0 1-.132-.079c-.052-.105-1.023-2.519.42-5.221.027-.053.105-.079.184-.053.053.026.079.105.053.184-1.392 2.598-.42 4.985-.42 4.985.026.079 0 .131-.08.184h-.025ZM87.37 98.708c.26 0 .472-.435.472-.971s-.211-.971-.472-.971-.473.435-.473.971.212.971.473.971Z" fill="#6B3425"/><path d="M85.137 95.165c.367-.315 1.155-.735 1.942-.814.866-.078 1.391.315 1.733.394.34.079.393-.394.21-.814-.184-.42-.92-.734-2.127-.682-1.207.053-1.863.578-2.178.945-.315.367-.105 1.417.42.971Z" fill="#A5713D"/><path d="M94.771 98.445c.261 0 .473-.435.473-.971s-.212-.971-.473-.971c-.26 0-.472.435-.472.971s.211.971.472.971Z" fill="#6B3425"/><path d="M93.009 94.826c.367-.315 1.155-.735 1.942-.814.867-.079 1.392.315 1.733.394.341.079.394-.394.21-.814-.184-.42-.919-.735-2.126-.682-1.208.052-1.864.577-2.18.945-.314.367-.104 1.39.42.97Z" fill="#A5713D"/><path d="M103.827 116.654c-.525-1.312-4.358-4.565-5.591-5.011-2.232-.814-1.234 4.434-10.841 5.011-5.775.341-7.901-7.268-11.103-7.268-.29 0-1.208.866-2.258 2.047-1.916-1.365-5.696-3.359-10.263-2.047-6.641 1.915-8.846 11.44-12.915 10.889-4.068-.551-5.643-4.618-5.643-4.618v11.755s2.809 2.938 7.874 1.994c5.067-.945 6.484-9.288 10.159-11.335 2.021-1.128 4.96-.997 7.166-.682v.105c.236 1.941 9.397 8.134 18.741 7.897 9.345-.236 15.198-7.451 14.674-8.737Z" fill="#fff"/><mask id="mask0_131_1442" style="mask-type:luminance" maskUnits="userSpaceOnUse" x="45" y="108" width="59" height="22"><path d="M103.833 116.649c-.525-1.311-4.357-4.565-5.59-5.011-2.232-.813-1.234 4.434-10.841 5.011-5.775.342-7.901-7.268-11.104-7.268-.288 0-1.207.866-2.257 2.047-1.916-1.364-5.696-3.358-10.263-2.047-6.641 1.916-8.846 11.44-12.915 10.889-4.068-.551-5.643-4.618-5.643-4.618v11.755s2.808 2.939 7.874 1.994c5.066-.944 6.484-9.288 10.159-11.335 2.02-1.128 4.96-.997 7.166-.682v.105c.236 1.942 9.397 8.134 18.741 7.898 9.345-.236 15.198-7.452 14.673-8.738Z" fill="#fff"/></mask><g mask="url('#mask0_131_1442')"><path d="M53.066 111.876h-4.463v22.434h4.463v-22.434Z" fill="#512176"/></g><mask id="mask1_131_1442" style="mask-type:luminance" maskUnits="userSpaceOnUse" x="45" y="108" width="59" height="22"><path d="M103.833 116.649c-.525-1.311-4.357-4.565-5.59-5.011-2.232-.813-1.234 4.434-10.841 5.011-5.775.342-7.901-7.268-11.104-7.268-.288 0-1.207.866-2.257 2.047-1.916-1.364-5.696-3.358-10.263-2.047-6.641 1.916-8.846 11.44-12.915 10.889-4.068-.551-5.643-4.618-5.643-4.618v11.755s2.808 2.939 7.874 1.994c5.066-.944 6.484-9.288 10.159-11.335 2.02-1.128 4.96-.997 7.166-.682v.105c.236 1.942 9.397 8.134 18.741 7.898 9.345-.236 15.198-7.452 14.673-8.738Z" fill="#fff"/></mask><g mask="url('#mask1_131_1442')"><path d="M58.684 108.937h-1.759v21.673h1.759v-21.673Z" fill="#512176"/></g><mask id="mask2_131_1442" style="mask-type:luminance" maskUnits="userSpaceOnUse" x="45" y="108" width="59" height="22"><path d="M103.833 116.649c-.525-1.311-4.357-4.565-5.59-5.011-2.232-.813-1.234 4.434-10.841 5.011-5.775.342-7.901-7.268-11.104-7.268-.288 0-1.207.866-2.257 2.047-1.916-1.364-5.696-3.358-10.263-2.047-6.641 1.916-8.846 11.44-12.915 10.889-4.068-.551-5.643-4.618-5.643-4.618v11.755s2.808 2.939 7.874 1.994c5.066-.944 6.484-9.288 10.159-11.335 2.02-1.128 4.96-.997 7.166-.682v.105c.236 1.942 9.397 8.134 18.741 7.898 9.345-.236 15.198-7.452 14.673-8.738Z" fill="#fff"/></mask><g mask="url('#mask2_131_1442')"><path d="M66.372 106.996h-4.2v17.239h4.2v-17.239Z" fill="#512176"/></g><mask id="mask3_131_1442" style="mask-type:luminance" maskUnits="userSpaceOnUse" x="45" y="108" width="59" height="22"><path d="M103.833 116.649c-.525-1.311-4.357-4.565-5.59-5.011-2.232-.813-1.234 4.434-10.841 5.011-5.775.342-7.901-7.268-11.104-7.268-.288 0-1.207.866-2.257 2.047-1.916-1.364-5.696-3.358-10.263-2.047-6.641 1.916-8.846 11.44-12.915 10.889-4.068-.551-5.643-4.618-5.643-4.618v11.755s2.808 2.939 7.874 1.994c5.066-.944 6.484-9.288 10.159-11.335 2.02-1.128 4.96-.997 7.166-.682v.105c.236 1.942 9.397 8.134 18.741 7.898 9.345-.236 15.198-7.452 14.673-8.738Z" fill="#fff"/></mask><g mask="url('#mask3_131_1442')"><path d="M72.046 105.472h-1.81v17.605h1.81v-17.605Z" fill="#512176"/></g><mask id="mask4_131_1442" style="mask-type:luminance" maskUnits="userSpaceOnUse" x="45" y="108" width="59" height="22"><path d="M103.833 116.649c-.525-1.311-4.357-4.565-5.59-5.011-2.232-.813-1.234 4.434-10.841 5.011-5.775.342-7.901-7.268-11.104-7.268-.288 0-1.207.866-2.257 2.047-1.916-1.364-5.696-3.358-10.263-2.047-6.641 1.916-8.846 11.44-12.915 10.889-4.068-.551-5.643-4.618-5.643-4.618v11.755s2.808 2.939 7.874 1.994c5.066-.944 6.484-9.288 10.159-11.335 2.02-1.128 4.96-.997 7.166-.682v.105c.236 1.942 9.397 8.134 18.741 7.898 9.345-.236 15.198-7.452 14.673-8.738Z" fill="#fff"/></mask><g mask="url('#mask4_131_1442')"><path d="M83.015 107.363h-5.302v19.285h5.302v-19.285Z" fill="#512176"/></g><mask id="mask5_131_1442" style="mask-type:luminance" maskUnits="userSpaceOnUse" x="45" y="108" width="59" height="22"><path d="M103.833 116.649c-.525-1.311-4.357-4.565-5.59-5.011-2.232-.813-1.234 4.434-10.841 5.011-5.775.342-7.901-7.268-11.104-7.268-.288 0-1.207.866-2.257 2.047-1.916-1.364-5.696-3.358-10.263-2.047-6.641 1.916-8.846 11.44-12.915 10.889-4.068-.551-5.643-4.618-5.643-4.618v11.755s2.808 2.939 7.874 1.994c5.066-.944 6.484-9.288 10.159-11.335 2.02-1.128 4.96-.997 7.166-.682v.105c.236 1.942 9.397 8.134 18.741 7.898 9.345-.236 15.198-7.452 14.673-8.738Z" fill="#fff"/></mask><g mask="url('#mask5_131_1442')"><path d="M90.052 114.262h-1.969v14.011h1.969v-14.011Z" fill="#512176"/></g><mask id="mask6_131_1442" style="mask-type:luminance" maskUnits="userSpaceOnUse" x="45" y="108" width="59" height="22"><path d="M103.833 116.649c-.525-1.311-4.357-4.565-5.59-5.011-2.232-.813-1.234 4.434-10.841 5.011-5.775.342-7.901-7.268-11.104-7.268-.288 0-1.207.866-2.257 2.047-1.916-1.364-5.696-3.358-10.263-2.047-6.641 1.916-8.846 11.44-12.915 10.889-4.068-.551-5.643-4.618-5.643-4.618v11.755s2.808 2.939 7.874 1.994c5.066-.944 6.484-9.288 10.159-11.335 2.02-1.128 4.96-.997 7.166-.682v.105c.236 1.942 9.397 8.134 18.741 7.898 9.345-.236 15.198-7.452 14.673-8.738Z" fill="#fff"/></mask><g mask="url('#mask6_131_1442')"><path d="M99.736 110.432h-5.04v13.801h5.04v-13.801Z" fill="#512176"/></g><path d="M91.961 76.433c9.922 4.014 9.24 11.308 7.77 12.095-1.102.604-7.323-2.624-13.65 0-8.136 3.359-9.475 13.408-12.021 12.752-2.546-.656-3.098-10.784-2.783-16.32.762-13.382-.367-17.029 20.684-8.527Z" fill="#fff"/><path d="M71.41 93.275c.078.788.157 1.575.262 2.31 1.995-3.097 5.696-8.056 10.788-11.283 5.67-3.595 12.547-3.726 15.96-3.49a13.41 13.41 0 0 0-2.153-2.02c-3.596.472-10.368 1.653-14.725 4.33-4.253 2.65-8.137 7.425-10.132 10.153ZM73.062 76.458a4.671 4.671 0 1 0-4.672-4.67c0 2.58 2.091 4.67 4.672 4.67Z" fill="#512176"/></svg>