<svg width="375" height="307" fill="none" xmlns="http://www.w3.org/2000/svg"><path d="M170.601 53.466c18.161 3.435 52.381-66.68 90.28-51.21 37.899 15.47 10.04 65.317 23.549 76.487 13.536 11.17 50.515-23.206 66.074 12.9 15.56 36.107-8.095 74.783-8.436 80.788-.342 6.005 42.656 38.283 30.724 82.727-11.932 44.445-170.39 48.746-226.95 50.45-56.533 1.73-132.174 1.573-143.318-44.76C-8.62 214.516 42 174.162 46.679 161.208c4.678-12.953-37.663-58.027 15.427-113.432 41.054-42.872 90.36 2.255 108.495 5.69Z" fill="#9ECBDD"/><path d="M160.456 166.399H78.349v22.157h82.107v-22.157Z" fill="#776B67"/><path d="M161.585 168.051H76.404V139.68h68.518l16.663 13.924v14.447Z" fill="#6B3425"/><path d="M123.844 188.555H78.349v-29.262l22.761-18.46 22.734 18.46v29.262Z" fill="#776B67"/><path d="M130.703 124.97h-6.859v15.863h6.859V124.97Z" fill="#A5713D"/><path d="M133.306 137.739h-11.775v5.165h11.775v-5.165Z" fill="#E7D0B0"/><path d="M99.927 153.865H97.22v6.712h2.707v-6.712ZM104.212 153.865h-3.102v6.712h3.102v-6.712ZM89.729 170.621H85.97v1.285h3.759v-1.285ZM93.985 170.621h-3.101v1.285h3.101v-1.285ZM89.729 172.823H85.97v8.259h3.759v-8.259ZM93.985 172.823h-3.101v8.259h3.101v-8.259ZM132.359 171.932h-4.126v2.963h4.126v-2.963ZM132.359 176.94h-4.126v2.701h4.126v-2.701ZM132.359 181.083h-4.126v2.701h4.126v-2.701ZM138.562 171.932h-4.126v2.963h4.126v-2.963ZM138.562 176.94h-4.126v2.701h4.126v-2.701ZM138.562 181.083h-4.126v2.701h4.126v-2.701ZM144.79 171.932h-4.126v2.963h4.126v-2.963ZM144.79 176.94h-4.126v2.701h4.126v-2.701ZM144.79 181.083h-4.126v2.701h4.126v-2.701ZM150.993 171.932h-4.127v2.963h4.127v-2.963ZM150.993 176.94h-4.127v2.701h4.127v-2.701ZM150.993 181.083h-4.127v2.701h4.127v-2.701ZM157.195 171.932h-4.126v2.963h4.126v-2.963ZM157.195 176.94h-4.126v2.701h4.126v-2.701ZM157.195 181.083h-4.126v2.701h4.126v-2.701ZM111.439 170.621h-3.759v1.285h3.759v-1.285ZM115.695 170.621h-3.101v1.285h3.101v-1.285ZM111.439 172.823h-3.759v8.259h3.759v-8.259ZM115.695 172.823h-3.101v8.259h3.101v-8.259Z" fill="#417A8C"/><path d="M279.884 136.611h-2.365v8.601h2.365v-8.601Z" fill="#6B3425"/><path d="M328.454 166.53h-60.608v-21.318l30.304-7.211 30.304 7.211v21.318Z" fill="#E7D0B0"/><path d="M330.398 166.53h-64.707v20.715h64.707V166.53Z" fill="#A5713D"/><path d="M279.227 151.61h-3.39v8.312h3.39v-8.312ZM284.327 151.61h-4.468v8.312h4.468v-8.312ZM298.045 151.61h-3.39v8.312h3.39v-8.312ZM303.17 151.61h-4.468v8.312h4.468v-8.312ZM315.417 151.61h-3.39v8.312h3.39v-8.312ZM320.542 151.61h-4.468v8.312h4.468v-8.312ZM279.227 168.942h-3.39v8.312h3.39v-8.312ZM284.327 168.942h-4.468v8.312h4.468v-8.312ZM298.045 168.942h-3.39v8.312h3.39v-8.312ZM303.17 168.942h-4.468v8.312h4.468v-8.312ZM315.417 168.942h-3.39v8.312h3.39v-8.312ZM320.542 168.942h-4.468v8.312h4.468v-8.312Z" fill="#417A8C"/><path d="M2.551 260.821c11.144 46.333 86.785 46.49 143.319 44.76 56.534-1.731 214.991-6.005 226.949-50.45 8.122-30.232-9.172-54.854-20.973-69.381H28.072c-15.06 19.089-32.538 45.887-25.52 75.071Z" fill="#776B67"/><path d="M13.459 206.778C4.208 222.642-2.179 241.207 2.552 260.82c11.143 46.333 86.785 46.49 143.318 44.759 56.534-1.73 214.991-6.004 226.95-50.449 4.993-18.591.368-35.058-6.65-48.352H13.459Z" fill="#8A9995"/><path d="M187.633 150.561s10.881-4.589 15.98 5.087-3.627 15.838-7.99 16.126c-4.363.288-8.883-1.18-12.011.105-3.128 1.258-9.12 7.132-15.98 6.844-6.86-.289-13.272-5.638-14.692-16.546-2.365-17.778 12.747-15.733 12.747-15.733s-4.415-14.369 4.127-19.167c8.515-4.799 18.029-.498 20.868 6.555 2.812 7.054-3.049 16.729-3.049 16.729Z" fill="#96C22F"/><path d="M179.592 138.815s.394 9.387-1.183 12.114c-1.577 2.727-4.021 5.271-3.811 5.874.184.576 8.621 16.938 11.065 22.786 2.444 5.847 1.971 7.709 1.367 8.994-.579 1.258-.395 10.934-.395 10.934h-6.36s.079-6.923.762-9.781c.71-2.832 1.577-2.832 1.288-4.195-.289-1.364-11.275-27.086-10.303-29.446.973-2.36 4.206-3.016 5.099-6.241.894-3.225 2.471-11.039 2.471-11.039Z" fill="#6B3425"/><path d="M191.443 159.555s-5.598 5.191-6.964 7.42c-1.367 2.255-3.47 6.346-3.47 6.346l1.998 2.937s2.023-7.238 3.232-8.889c1.183-1.652 5.204-7.814 5.204-7.814ZM158.407 158.873s5.782 3.513 9.593 4.405c3.811.891 8.332 1.573 8.332 1.573l1.183 3.068s-18.424-4.458-19.108-9.046Z" fill="#6B3425"/><path d="M177.776 77.799s-3.259-6.293 4.152-7.001c-.762-5.008 6.492-12.56 19.081-9.335 2.129-5.454 14.14-15.077 22.498-3.356 15.927-6.66 18.188 2.936 16.059 4.667 12.353-2.229 10.171 6.214 8.095 7.158 16.347-3.487 14.087 7.867 14.087 7.867h-83.972ZM51.33 115.32s-1.366-3.487 1.735-3.881c-.315-2.779 2.707-6.948 7.964-5.165.893-3.016 5.913-8.338 9.383-1.862 6.65-3.697 7.595 1.626 6.702 2.57 5.151-1.233 4.258 3.435 3.364 3.959 6.833-1.94 5.887 4.353 5.887 4.353H51.331v.026Z" fill="#fff"/><path d="M243.378 192.988h-11.433v6.555h11.433v-6.555Z" fill="#6B3425"/><path d="M254.494 178.199h14.508l-4.258-18.119-10.25-3.854h9.331l-1.104-4.667-16.506-1.259 15.481-3.12-2.182-9.283-13.299-4.169s7.254-.419 12.143-.681l-6.623-28.214-10.829-.944 10.329-1.154-13.588-57.818-8.016 34.14h4.967l-5.677 3.016-2.549 10.83h9.251l-9.777 2.333-.893 3.776h5.177l-5.598 1.809-5.388 22.786 12.8 2.701-14.088 2.858-4.31 18.302h13.299l-14.639 5.664-4.442 18.932a4832.465 4832.465 0 0 0 17.241 2.464l-18.424 2.57-3.732 15.89h69.622l-2.076-8.837-15.901-5.952Z" fill="#7EA21A"/><path d="M316.39 191.975h6.15v-3.54h-6.15v3.54Z" fill="#6B3425"/><path d="M310.398 180.48h-7.805l2.286-9.754 5.519-2.072h-5.046l.578-2.517 8.884-.682-8.332-1.678 1.183-5.008 7.149-2.255s-3.916-.236-6.544-.367l3.574-15.182 5.835-.499-5.572-.629 7.333-31.15 4.336 18.381h-2.681l3.049 1.625 1.367 5.821h-4.968l5.283 1.259.473 2.045h-2.786l3.023.97 2.891 12.246-6.886 1.442 7.596 1.547 2.312 9.859h-7.148l7.884 3.042 2.392 10.2c-3.785.55-9.278 1.337-9.278 1.337l9.935 1.39 2.024 8.548H300.7l1.13-4.773 8.568-3.146Z" fill="#7EA21A"/><path d="M120.69 79.712s-5.361-3.383-11.38.472c-4.047 2.57-4.521 11.668-3.022 14.763 1.498 3.094 8.384 8.731 8.384 8.731s25.783-18.748 6.018-23.966Z" fill="#A5713D"/><path d="m137.906 133.282.079 13.32s15.953.184 16.978-.079c1.025-.262 6.177-4.326 6.702-4.562.552-.21 1.052 0 .841.629-.21.63-.998 2.57-.998 2.57s3.916-.446 4.257-.656c.368-.209 2.708-2.019 3.181-2.176.473-.157 1.314.157 1.077.656-.21.498-2.418 3.356-2.418 3.356s.447 3.041-.709 4.169c-1.157 1.127-6.571 2.019-9.199 2.203-2.629.183-22.577 2.7-24.259 2.648-1.656-.079-4.1-.603-4.941-4.169-.841-3.566-1.13-17.228-1.13-17.228l10.539-.681Z" fill="#DD866F"/><path d="M107.577 259.037v20.951h-17.53s-2.498-4.196 0-5.323c2.496-1.154 10.644-5.139 10.644-5.139l-.316-10.489h7.202Z" fill="#F69576"/><path d="M107.577 269.5v10.489h-17.53s-2.498-4.195 0-5.323c2.496-1.154 10.644-5.139 10.644-5.139h6.886v-.027Z" fill="#032240"/><path d="M107.575 277.863v2.125h-17.53s-.579-.971-.894-2.125h18.424Z" fill="#BFBFBF"/><path d="m121.979 259.037-.158 10.489s9.173 1.73 11.617 2.464c2.944.918 6.334 1.705 6.807 4.563.421 2.465 0 3.435 0 3.435h-28.411l3.075-20.951h7.07Z" fill="#F69576"/><path d="M121.821 269.499s9.173 1.731 11.617 2.465c2.944.918 6.334 1.705 6.807 4.563.421 2.464 0 3.435 0 3.435h-28.411l1.104-10.489h8.883v.026Z" fill="#BFBFBF"/><path d="M140.244 276.554c.079.498.132.944.158 1.311h-28.333l.868-8.365h8.883s9.173 1.731 11.617 2.465c2.944.918 6.334 1.731 6.807 4.589Z" fill="#032240"/><path d="m250.578 131-16.61 8.679s-16.742-3.566-17.662-3.985c-.92-.42-5.125-5.14-5.598-5.454-.473-.289-.999-.184-.894.446.079.629.5 2.622.5 2.622s-3.627-1.075-3.916-1.338c-.289-.262-2.208-2.36-2.655-2.596-.42-.235-1.261-.078-1.156.446.105.525 1.734 3.593 1.734 3.593s-.946 2.805-.026 4.064c.894 1.258 5.887 3.015 8.358 3.645 2.47.603 20.921 6.371 22.524 6.581 1.603.21 2.944-.682 6.15-2.15 5.362-2.491 15.086-8.548 15.086-8.548L250.578 131Z" fill="#DD866F"/><path d="M268.53 120.094c-3.39-.813-11.222-1.836-14.192 2.019-2.97 3.854-3.522 7.604-3.522 7.604s-3.233.839-3.601 2.019c-.368 1.18 5.152 7.551 6.807 7.132 1.656-.42 16.164-9.571 16.164-9.571l-1.656-9.203Z" fill="#FFE051"/><path d="M262.275 91.957c-4.021 2.648-2.05 13.661-5.178 17.306 5.046.656 34.43 5.742 34.43 5.742s4.389-12.822 1.63-17.673c-2.734-4.824-24.128-9.806-30.882-5.375Z" fill="#DBAC73"/><path d="M257.911 131.131c-1.577 1.39-2.234 6.87-1.078 8.443 3.417 4.589-7.437 18.932-7.437 18.932l27.228 1.259c-.552-9.466 1.919-19.378 6.019-21.266 5.204-2.412-4.494-13.923-4.494-13.923l-10.697-1.364s-6.045 4.851-9.541 7.919Z" fill="#FFE051"/><path d="M274.653 137.503a2.756 2.756 0 0 0 2.76-2.753 2.757 2.757 0 0 0-2.76-2.753 2.756 2.756 0 0 0-2.759 2.753 2.755 2.755 0 0 0 2.759 2.753ZM267.032 144.241a2.756 2.756 0 0 0 2.76-2.753 2.757 2.757 0 0 0-2.76-2.753 2.757 2.757 0 0 0-2.76 2.753 2.756 2.756 0 0 0 2.76 2.753ZM259.857 150.692a2.755 2.755 0 0 0 2.759-2.753 2.756 2.756 0 0 0-2.759-2.753 2.757 2.757 0 0 0-2.76 2.753 2.756 2.756 0 0 0 2.76 2.753ZM274.653 146.918a2.757 2.757 0 0 0 2.76-2.753 2.756 2.756 0 0 0-2.76-2.753 2.755 2.755 0 0 0-2.759 2.753 2.756 2.756 0 0 0 2.759 2.753ZM268.635 156.198a2.756 2.756 0 0 0 2.76-2.753 2.757 2.757 0 0 0-2.76-2.753 2.757 2.757 0 0 0-2.76 2.753 2.756 2.756 0 0 0 2.76 2.753ZM265.034 134.278a2.757 2.757 0 0 0 2.76-2.753 2.757 2.757 0 0 0-2.76-2.754 2.757 2.757 0 0 0-2.76 2.754 2.757 2.757 0 0 0 2.76 2.753Z" fill="#fff"/><path d="M251.631 158.114s-3.627 5.323-5.861 17.515c-2.234 12.193-.841 31.492 0 35.268s9.777 52.363 9.225 53.91c-.552 1.547-9.225 7.106-9.225 7.106h16.742s3.022-33.274 2.628-39.043c-.394-5.769-4.862-13.976-4.862-13.976l15.664-56.559-24.311-4.221Z" fill="#F69576"/><path d="M253.022 160.341s6.939 31.282 12.143 44.366c5.204 13.085 7.727 15.969 7.727 15.969s7.543 18.853 9.777 26.169c2.234 7.315 2.786 15.522 3.916 19.088 1.13 3.54 10.04 14.737 12.222 12.115 2.969-3.54.63-8.129-.763-9.676-1.393-1.547-5.598-4.667-5.598-4.667s.841-27.716-.552-33.721c-1.393-5.978-8.095-11.983-8.384-13.766-.289-1.783-1.603-46.595-3.469-50.344-1.866-3.75-8.568-10.646-27.019-5.533Z" fill="#F69576"/><path d="M249.973 157.012s-3.969 9.702-6.755 18.643-1.944 39.069-1.944 39.069l34.666 1.285v-19.928l4.1 19.928h7.386s-.552-41.377-3.917-49.033c-3.364-7.657-7.595-8.679-7.595-8.679l-25.941-1.285Z" fill="#000"/><path d="M262.615 125.966a2.757 2.757 0 0 0 2.76-2.753 2.757 2.757 0 0 0-2.76-2.754 2.757 2.757 0 0 0-2.76 2.754 2.757 2.757 0 0 0 2.76 2.753ZM255.572 135.719a2.755 2.755 0 0 0 2.759-2.753 2.756 2.756 0 0 0-2.759-2.753 2.757 2.757 0 0 0-2.76 2.753 2.756 2.756 0 0 0 2.76 2.753Z" fill="#fff"/><path d="M286.218 264.569s.342 3.645.552 4.301c.184.655 6.623 8.941 8.095 9.754.762.419 4.416 1.442 4.757 1.337 1.314-.446 1.998-6.24 1.13-8.128-2.523-5.402-8.305-8.129-8.305-8.129s5.309 5.035 5.493 6.582c.184 1.547.5 4.877-1.761 5.113-2.286.236-9.961-10.83-9.961-10.83ZM262.957 266.879s.946 1.573.946 3.645c0 2.071-1.025 3.041-2.891 3.251-1.866.21-5.309-.288-6.334 0-1.025.288-.473 1.547-2.97 1.626-2.523.078-11.17.157-11.564 0-.368-.158.289-2.229 1.13-2.806.841-.603 5.94-1.626 5.94-1.626s4.678.892 8.516-.891c3.811-1.783 7.227-3.199 7.227-3.199Z" fill="#512176"/><path d="m258.883 272.804.552 2.675h2.523l1.209-3.566-4.284.891Z" fill="#7D009B"/><path d="m268.477 112.175-2.312 14.815h13.982s-.684-5.874-1.472-9.702c-.788-3.802-1.472-5.113-1.472-5.113h-8.726Z" fill="#F69576"/><path d="M279.335 122.145a.788.788 0 1 0-.157-1.567.788.788 0 0 0 .157 1.567Z" fill="#512176"/><path d="M277.968 122.904a.788.788 0 1 0-.158-1.568.788.788 0 0 0 .158 1.568Z" fill="#512176"/><path d="M276.653 123.69a.787.787 0 1 0-.159-1.566.788.788 0 1 0 .159 1.566Z" fill="#512176"/><path d="M275.818 123.481a.788.788 0 0 0-1.553-.274.79.79 0 0 0 1.553.274Z" fill="#512176"/><path d="M273.606 124.477a.788.788 0 1 0-.158-1.568.788.788 0 0 0 .158 1.568Z" fill="#512176"/><path d="M271.978 124.479a.788.788 0 1 0-.16-1.567.788.788 0 0 0 .16 1.567Z" fill="#512176"/><path d="M271.081 123.905a.789.789 0 0 0-1.519-.423.786.786 0 0 0 .547.97.79.79 0 0 0 .972-.547Z" fill="#512176"/><path d="M268.822 124.137a.788.788 0 1 0-.157-1.567.788.788 0 0 0 .157 1.567Z" fill="#512176"/><path d="M267.378 123.533a.788.788 0 1 0-.157-1.567.788.788 0 0 0 .157 1.567Z" fill="#512176"/><path d="M274.575 116.213s.106 2.727-1.682 3.907c-1.813 1.18-5.834 1.206-5.834 1.206l1.419-9.151h5.887s.421 2.307.21 4.038Z" fill="#DD866F"/><path d="M266.479 94.24s-1.761 1.468-2.55 4.693c-.604 2.491-.473 5.14-.762 6.66-.315 1.495-.815 3.881-.394 5.953.421 2.071 2.26 4.929 5.703 5.873 3.417.97 6.229.262 8.122-2.124 1.892-2.386 4.231-6.66 4.941-9.597.683-2.963 1.077-8.574-2.077-11.039-4.047-3.146-8.857-3.199-12.983-.42Z" fill="#F69576"/><path d="M269.686 108.713c-.394-.052-.368-.446-.368-.656v-.052c-.026 0-.026.026-.052.052-.132.105-.342.263-.605.026-.105-.104-.131-.236-.131-.445.026-.394.263-.919.499-1.102.053-.026.132-.026.158.026.026.052.026.131-.026.157-.158.132-.395.578-.421.919 0 .131.026.209.053.262.105.105.157.052.315-.053.079-.052.158-.105.237-.131.052 0 .105 0 .131.053.079.052.053.157.053.288 0 .263 0 .367.183.42.079 0 .132 0 .158-.026.079-.053.079-.21.079-.315 0-.079 0-.157.026-.21.027-.052.079-.079.158-.105.105 0 .237.079.394.262.027.027.079.079.132.053.079-.026.157-.105.21-.289.052-.288-.21-.839-.315-1.023-.027-.052 0-.131.052-.157.053-.026.132 0 .158.052.052.079.42.761.341 1.181-.052.262-.184.42-.367.472a.39.39 0 0 1-.368-.105c-.079-.105-.158-.131-.184-.157v.052c0 .158-.027.367-.158.499-.053.052-.132.078-.237.078-.052-.026-.079-.026-.105-.026Z" fill="#6B3425"/><path d="M286.797 103.52c-1.052-2.622-8.779-.262-7.359 4.589 1.471 4.956 8.909-.734 7.359-4.589Z" fill="#F69576"/><path d="M280.883 108.713c.027 0 .053 0 .079-.026.053-.052.053-.105 0-.157-.315-.341-.394-1.442.026-2.517.29-.761.999-2.072 2.681-2.282.894-.104 1.525.027 1.866.446.526.603.263 1.573.263 1.573-.026.053.026.132.079.132.053.026.131-.027.131-.079 0-.053.29-1.101-.315-1.783-.42-.472-1.104-.629-2.076-.525-1.314.158-2.339 1.049-2.865 2.413-.394 1.075-.394 2.307.026 2.753.053.026.079.052.105.052Z" fill="#6B3425"/><path d="M283.667 108.267c.053 0 .079-.027.106-.079.026-.079.893-2.229-.368-4.589-.027-.052-.105-.078-.158-.052-.053.026-.079.105-.053.157 1.236 2.281.368 4.379.368 4.379-.026.053 0 .131.053.157 0 .027.026.027.052.027ZM273.497 106.457c.232 0 .42-.376.42-.839 0-.464-.188-.84-.42-.84-.233 0-.421.376-.421.84 0 .463.188.839.421.839ZM276.178 102.578c-.342-.157-.999-.341-1.709-.393-.762-.053-1.209.157-1.524.183-.316.053-.342-.183-.184-.393.158-.21.815-.341 1.866-.315 1.051.026 1.629.289 1.919.446.289.157.078.682-.368.472ZM266.98 106.222c.232 0 .421-.376.421-.839 0-.464-.189-.84-.421-.84-.232 0-.42.376-.42.84 0 .463.188.839.42.839ZM268.556 102.29c-.341-.157-.998-.341-1.708-.393-.762-.053-1.209.157-1.524.183-.316.053-.342-.183-.184-.393.157-.21.814-.341 1.866-.315 1.051.026 1.629.289 1.918.446.29.184.079.682-.368.472Z" fill="#6B3425"/><path d="M303.488 103.07c.907-3.19-9.815-9.017-23.948-13.013-14.133-3.997-26.325-4.65-27.231-1.46-.907 3.191 9.815 9.017 23.948 13.014 14.133 3.996 26.325 4.65 27.231 1.459Z" fill="#E7D0B0"/><path d="M294.156 97.202s-1.604-8.548-3.259-10.489c-1.656-1.94-18.897-5.61-20.028-5.27-1.13.341-10.223 7.263-10.223 7.263l33.51 8.496Z" fill="#E7D0B0"/><path d="M295.1 90.254s-.604-.577-.92-.708c-.315-.132-.841-1.102-.841-1.102s-.131.603-.394.656c-.236.079-.815.131-.893.236-.079.105-.158.236-.158.236s-.263-.184-.421-.289c-.157-.105-.21-.262-.21-.262s-.105.498-.368.656c-.263.157-.709.472-.709.577 0 .105-.526.262-.999.367-.473.13-.71-.105-1.025-.21-.316-.105-.421-.026-.421-.026s.158.183.053.393c-.132.21-.5.891-.394 1.652.105.76.814 1.259.814 1.259s-.972.236-1.235.472c-.289.262-.394.393-.631.865-.236.472-.263.787-.236 1.18.052.393.026.524.236.63.211.104.894.392 1.236.76.341.367.551.471.551.471l.29-.026s.262.367.184.787c-.079.42-.106.839-.027 1.101s.316.42.605.42.683-.079.683-.079.342.42.657.524c.316.105.552.394.552.394s.158-.184.578-.053c.421.131.763.131.999-.105.237-.236.841-1.1 1.051-1.18.211-.104.211-.393.211-.655s.315-.996.315-.996.237.21.552.078c.315-.13.368-.288.604-.262.237.026.447-.052.999-.157.552-.105 1.209-.263 1.393-.577.184-.289.053-1.547.237-1.521.21.026.368.105.525.026.158-.105.158-.813.027-.891-.132-.053-.447-.053-.447-.053s.42-.13.447-.367c.052-.236.026-.524-.053-.603a28.978 28.978 0 0 1-.736-.655s.421-.263.552-.289c.132 0 .394.053.394.053s-1.156-.866-1.393-.892c-.262-.026-.604 0-.604 0s.263-.288.131-.656c-.131-.367-.184-.734-.184-.734s-.814-.052-.92-.052c-.105-.026-.21-.157-.21-.157l.132-.577-.579.34Z" fill="#512176"/><path d="M293.051 90.646s.342-.262.684-.262c.315 0 .998.105.998.105l.973-.472s-.184.682-.132.813c.053.157.184.55.079.734-.105.184-.079.603-.131.84-.053.235-.026.471-.289.681-.263.21-.342.55-.5.76-.157.21 0 .315-.473.525-.473.21-.788.42-.788.42s.788-.63.92-.997c.131-.393.473-.76.709-.997.237-.236.079-.55.184-.943.105-.394-.052-1.128-.052-1.128s-.342.105-.789.105c-.473-.026-1.393-.184-1.393-.184ZM293.286 95.315s-.473 1.284-.815 1.547c-.341.262-.604.367-1.025.445-.42.105-1.13.027-1.182-.105-.027-.13.157-.498.157-.498s-.552.289-.473.499c.079.21.132.445.552.42.421-.027.762 0 1.419-.158.657-.131.684-.131.894-.446.21-.315.604-1.416.604-1.416s.552.446.894.393c.342-.052.21-.183.578-.393.394-.21.762-.131.868-.393.105-.262-.421-.656-.421-.656s.21.367.026.446c-.184.079-.341.052-.499.236-.158.157-.158.393-.526.34-.368-.052-1.051-.261-1.051-.261ZM290.58 92.142s-.132.577.157.63c.316.052 1.025.472 1.025.472s.5-.184.237-.604-.5-.524-.815-.55c-.289-.053-.604.052-.604.052ZM290.134 91.67s-.526-.42-.762-.288c-.237.131-.421.524-.71.577-.289.052-.289 0-.447.236-.157.236-.315.866-.315.866l1.104.84s-.868-.657-.841-.893a.86.86 0 0 1 .447-.682c.315-.183.814-.393.841-.55.026-.158.762.235.762.235l-.079-.34Z" fill="#7D009B"/><path d="M290.947 97.464s-.131.289-.473.42c-.341.131-.499.263-.893.367-.368.105-1.498-.157-1.498-.157l.473.42s.473.157 1.025.105c.525-.053.525-.21.92-.368.42-.157.446-.052.735-.314.29-.263.342-.551.342-.551l-.631.078ZM294.206 98.253s-.289-.289-.605-.21c-.315.078-.578.21-.814.21-.237.026-.447-.079-.421-.289.026-.21.158-.892.158-.892l-.263.158s-.342.603-.237.891c.106.263.184.551.474.551.289 0 1.577-.157 1.577-.157l.131-.262ZM296.73 92.167s-.946-.289-1.052-.21c-.105.079-.578.813-.578.813l-.263.525s.473.026.999 0 1.603.157 1.603.157h.552l-.21-.183s-1.078-.132-1.419-.132c-.342-.026-1.157-.052-1.157-.052l.552-.813.999.026-.026-.131ZM291.236 93.715s-1.314 0-1.761.289c-.447.262-1.945 1.94-1.945 1.94l-.131 1.023s.368-.97.71-1.233c.341-.262 1.209-.996 1.498-1.232.289-.21 1.524-.026 1.524-.026l.105-.76ZM292.656 93.583s.762-1.547.473-2.124c-.289-.577-1.866-1.023-1.866-1.023s-1.104 1.469-.92 1.731c.211.262.789.525.789.525s-.394-.682-.263-.997l.421-.839s1.261.498 1.393.813c.131.315-.447 1.495-.447 1.495l.42.42Z" fill="#7D009B"/><path d="M290.737 93.217s.131 1.732.394 1.81c.289.08 2.05.184 2.05.184s.762-1.653.631-1.757c-.132-.105-1.183-.866-1.183-.866l-.079.288s.973.551.92.761c-.052.21-.447 1.18-.447 1.18l-1.734-.288v-1.862l-.552.55Z" fill="#7D009B"/><path d="m261.328 101.765-.105 1.284s.237.525.316.971c.078.445-.053 1.94 1.314 3.461 1.34 1.521 2.47 1.468 3.995 1.075 1.55-.42 2.339-2.596 2.47-3.645v-.131a.521.521 0 0 1-.184-.472c0-.157.079-.315.21-.393v-.053h.053c.105-.052.21-.105.315-.078l1.209.105c.29.026.5.288.5.603a.595.595 0 0 1-.342.472v.078c-.026 1.049.421 3.33 1.866 3.96 1.446.655 3.759.944 5.309-.341 1.577-1.311 1.656-2.806 1.814-3.225.157-.42.473-.892.473-.892l.105-1.285s-1.971-1.049-4.1-.917c-2.129.131-5.099.97-5.099.97v.026c-.105-.131-.236-.289-.394-.315a9.138 9.138 0 0 0-.71-.052 4.94 4.94 0 0 0-.709-.053c-.158 0-.316.131-.421.236v-.026s-1.603-1.18-3.68-1.652c-2.076-.472-4.205.289-4.205.289Zm10.671 2.805c.315-1.022 2.471-1.547 3.627-1.757 1.156-.209 2.865-.104 3.443 1.076 1.025 2.019-.447 3.933-1.603 4.693-1.157.761-3.811.472-4.863-.577-1.051-1.022-.919-2.412-.604-3.435Zm-9.225-1.94c.762-1.049 2.444-.892 3.574-.524 1.13.367 1.971 1.127 2.103 2.176.158 1.049.052 2.438-1.13 3.304-1.209.865-2.681.865-3.706-.079s-2.155-3.042-.841-4.877Z" fill="#000"/><path d="M273.234 111.702s-1.682-.97-2.181-.865c-.5.105-.657.603-.657.603s-.657-.76-1.078-.446c-.42.315-.841 1.39-.841 1.39s.867 2.019 2.287 1.862c1.366-.105 2.47-2.544 2.47-2.544Z" fill="#7D009B"/><path d="M281.754 110.843a.788.788 0 1 0-.158-1.568.788.788 0 0 0 .158 1.568Z" fill="#512176"/><path d="m271.315 134.75-17.268 9.02s-17.399-3.723-18.371-4.143c-.973-.419-5.31-5.349-5.809-5.663-.499-.315-1.025-.184-.946.472.079.655.526 2.727.526 2.727s-3.759-1.128-4.074-1.39c-.316-.262-2.313-2.465-2.76-2.701-.447-.236-1.314-.079-1.183.472.132.524 1.788 3.723 1.788 3.723s-.973 2.911-.027 4.222c.946 1.311 6.124 3.147 8.674 3.776 2.575.629 21.761 6.608 23.417 6.844 1.656.209 3.049-.708 6.387-2.255 5.572-2.57 15.691-8.889 15.691-8.889l-6.045-6.215Z" fill="#F69576"/><path d="M289.791 123.213c3.601 3.776 2.103 10.253-1.55 13.688-3.654 3.408-9.961 4.615-9.961 4.615s-2.392 3.802-3.338 2.569c-.947-1.232-6.571-9.964-5.783-10.567.815-.603 3.365-.577 3.365-.577s-1.446-7.368 3.39-10.645c3.154-2.151 8.227-5.009 13.877.917Z" fill="#FFE051"/><path d="M280.645 126.884a2.756 2.756 0 0 0 2.76-2.753 2.757 2.757 0 0 0-2.76-2.754 2.756 2.756 0 0 0-2.759 2.754 2.756 2.756 0 0 0 2.759 2.753ZM286.06 136.27a2.756 2.756 0 0 0 2.76-2.753 2.756 2.756 0 0 0-2.76-2.753 2.755 2.755 0 0 0-2.759 2.753 2.756 2.756 0 0 0 2.759 2.753ZM276.73 138.763a2.757 2.757 0 0 0 2.76-2.753 2.757 2.757 0 0 0-2.76-2.754 2.757 2.757 0 0 0-2.76 2.754 2.757 2.757 0 0 0 2.76 2.753Z" fill="#fff"/><path d="M257.122 142.17c-.657.288-1.576.813-1.997 1.049.263-1.101.578-1.888.92-2.491.946-1.6 3.39-2.858 6.702.236 3.312 3.094 6.728 11.642 6.728 11.642l-1.603 1.075s-1.262-3.304-2.812-6.424c-1.551-3.094-3.969-5.795-5.125-6.136-.762-.21-1.998-.603-2.813 1.049ZM256.072 152.16a53.5 53.5 0 0 0 .368 4.353l-1.551-.262s-.21-2.098-.342-4.353c.421.157 1.525.262 1.525.262Z" fill="#512176"/><path d="M272.051 151.609c-.763-1.94-4.074-.682-4.889.236-.815.918-1.498 1.18-3.154.787-1.656-.394-3.364-.525-4.599.681-1.236 1.207-1.604 2.177-3.102 1.993-1.498-.183-1.708-2.045-3.232-.55-1.499 1.494-1.551 2.831-2.05 10.173-.5 7.342-.684 10.541-.027 11.433.657.891 1.787 1.311 1.787 1.311l25.731-6.084s1.682-1.022 1.209-3.12c-.473-2.098-6.781-14.579-7.674-16.86Z" fill="#512176"/><path d="M254.492 156.46s2.55.446 3.969-.026c1.419-.446 3.338-1.338 3.338-1.338s.447 1.102.263 1.233-1.525.918-3.627 1.181c-2.103.262-3.575-.053-3.732-.132-.158-.052-.526-.944-.211-.918ZM262.562 154.703c-.21.105-.131 1.285.263 1.233.394-.053 2.339-.184 3.942-.394 1.604-.21 3.181-.865 3.181-.865l-.237-1.05s-1.288.499-2.917.63c-1.63.131-3.706.236-4.232.446Z" fill="#E7D0B0"/><path d="M271.578 152.291s-.526-1.154-2.103-1.836c-1.577-.681-3.653-.891-4.232-.445-.604.419-.184 1.258.158 1.625.342.367.789 1.285 1.183 2.308.394 1.022.289 3.068.893 3.802.605.734 1.551 1.363 2.681.734 1.13-.629 1.63-2.334 1.682-2.884.079-.551.237-1.075.237-1.075l.552-.053s.42.892 2.076 1.862c1.656.996 4.258 1.39 4.862.97.605-.393.631-1.442-.078-2.15-.736-.708-1.761-1.862-1.761-1.862s-.027-1.861.289-2.36c.315-.524.709-1.468.157-1.888-.552-.419-1.103-.393-2.26.158-1.13.55-2.102.472-2.733 1.049-.631.55-1.157 1.887-1.157 1.887l-.446.158Z" fill="#E7D0B0"/><path d="M134.752 164.065s.972 10.331 0 27.506c-.973 17.175-5.178 33.668-5.677 35.634-.5 1.967-6.65 34.874-6.65 34.874h-9.593s5.414-44.471 5.914-57.974c.499-13.504-1.735-38.808-1.735-38.808l17.741-1.232Z" fill="#254B6B"/><path d="M99.533 165.299h20.448s1.576 40.852 0 42.74c-1.577 1.914-6.413 9.571-7.149 15.471-.736 5.899-2.734 38.571-2.734 38.571H99.533v-96.782Z" fill="#254B6B"/><path d="M114.725 110.34c10.172-.21 13.457 1.311 15.586 6.057 2.129 4.746 7.543 46.516 8.042 55.038.5 8.522-1.156 13.582-12.799 13.582-11.644 0-27.57-9.492-27.57-9.492s-.658 2.937-1.157 4.746c-.5 1.809-5.414 3.776-5.414.656 0-3.121 2.129-51.918 2.47-60.099.316-8.181 13.115-10.305 20.842-10.488Z" fill="#000"/><path d="M125.554 113.145c4.021-1.049 7.727-.97 10.671 4.903 2.943 5.9 5.256 24.229 5.256 24.229l-13.614 5.401s-12.984-31.754-2.313-34.533Z" fill="#000"/><path d="M93.883 120.827c.316-8.181 13.141-10.331 20.842-10.488 6.834-.157 10.539.498 12.905 2.36 3.206-.42 6.15.472 8.594 5.323 2.944 5.899 5.257 24.228 5.257 24.228l-6.229 2.465c1.55 11.38 2.865 22.707 3.101 26.693.5 8.522-1.156 13.582-12.799 13.582-11.644 0-27.57-9.465-27.57-9.465s-.658 2.936-1.157 4.746c-.5 1.809-5.414 3.775-5.414.655 0-3.094 2.129-51.918 2.47-60.099Z" fill="#000"/><path d="M118.218 109.499c-3.6 0-7.832.34-10.066 1.756-2.707 1.731-2.654 8.181 9.199 8.732 11.853.551 11.459-4.982 10.276-6.608-1.708-2.386-6.649-3.854-9.409-3.88Z" fill="#F69576"/><path d="m122.845 102.106 2.313 14.815h-13.983s.684-5.874 1.472-9.702c.789-3.802 1.472-5.113 1.472-5.113h8.726Z" fill="#F69576"/><path d="M116.747 106.144s-.105 2.727 1.682 3.907c1.814 1.18 5.835 1.206 5.835 1.206l-1.419-9.151h-5.888c-.026 0-.446 2.307-.21 4.038Z" fill="#DD866F"/><path d="M124.844 84.144s1.761 1.468 2.549 4.693c.605 2.491.473 5.14.763 6.66.315 1.495.814 3.88.394 5.952-.421 2.072-2.261 4.93-5.704 5.874-3.416.97-6.228.262-8.121-2.124-1.892-2.386-4.231-6.66-4.941-9.597-.683-2.963-1.078-8.574 2.076-11.039 4.048-3.147 8.858-3.173 12.984-.42Z" fill="#F69576"/><path d="M118.614 100.846s.315 2.02 1.524 2.44c1.209.419 2.418.131 2.97-.525.552-.682.841-1.941.841-1.941l-5.335.026Z" fill="#fff"/><path d="M121.532 98.62c-.105 0-.184-.027-.237-.08-.158-.13-.158-.34-.158-.498v-.052c-.026.026-.078.053-.184.157-.105.105-.236.158-.367.105-.184-.052-.316-.236-.368-.472-.079-.42.289-1.102.341-1.18.027-.053.105-.079.158-.053.053.026.079.105.053.158-.106.183-.368.734-.316 1.023.026.183.132.288.21.288.053.026.106-.026.132-.052.157-.184.289-.263.394-.263.053 0 .105.053.158.105.026.053.026.105.026.21s0 .263.079.315c.026.026.079.026.158.026.157-.026.184-.157.184-.42 0-.13 0-.21.052-.288a.2.2 0 0 1 .131-.052c.079 0 .158.078.237.13.158.106.21.132.315.053.053-.052.079-.131.053-.262-.026-.341-.237-.813-.421-.918-.052-.026-.052-.105-.026-.158.026-.052.105-.052.158-.026.236.184.473.708.499 1.102 0 .21-.026.34-.131.446-.263.236-.473.079-.605-.026-.026 0-.026-.027-.052-.053v.053c0 .21.026.577-.368.655-.026.027-.079.027-.105.027Z" fill="#6B3425"/><path d="M104.5 93.426c1.051-2.622 8.778-.262 7.359 4.589-1.446 4.982-8.91-.708-7.359-4.59Z" fill="#F69576"/><path d="M110.413 98.617c-.026 0-.052 0-.078-.026-.053-.052-.053-.105 0-.157.315-.341.394-1.442-.027-2.518-.289-.76-.998-2.071-2.681-2.28-.893-.106-1.524.025-1.866.445-.525.603-.262 1.573-.262 1.573.026.053-.027.131-.079.131-.053.027-.132-.026-.132-.078 0-.053-.289-1.102.316-1.783.42-.472 1.104-.63 2.076-.525 1.314.157 2.339 1.05 2.865 2.413.394 1.075.394 2.307-.026 2.753-.027.052-.053.052-.106.052Z" fill="#6B3425"/><path d="M107.655 98.198c-.053 0-.079-.026-.106-.079-.026-.079-.893-2.229.368-4.588.027-.053.106-.08.158-.053.053.026.079.105.053.157-1.236 2.282-.368 4.38-.368 4.38.026.052 0 .13-.053.157-.026.026-.052.026-.052.026ZM117.798 96.363c.233 0 .421-.376.421-.84 0-.463-.188-.839-.421-.839-.232 0-.42.376-.42.84 0 .463.188.839.42.839ZM115.827 93.296c.342-.289.999-.63 1.709-.708.762-.08 1.209.262 1.524.34.316.08.342-.34.184-.708-.158-.367-.815-.63-1.866-.603-1.051.026-1.629.525-1.919.84-.289.314-.078 1.206.368.839ZM124.317 96.153c.233 0 .421-.375.421-.839 0-.464-.188-.84-.421-.84-.232 0-.42.376-.42.84 0 .464.188.84.42.84ZM122.767 92.955c.342-.288.999-.63 1.708-.708.762-.079 1.209.262 1.525.34.315.08.341-.34.184-.708-.158-.367-.815-.629-1.866-.603-1.052.026-1.63.525-1.919.84-.289.314-.079 1.233.368.839ZM125.526 103.312l-.526.131s-1.025 2.045-1.892 2.412c-.868.394-3.68.263-3.995 0-.289-.262-1.288-2.517-1.288-2.517l-.657.158s.999 3.251 1.156 3.539c.106.184 1.972 1.443 2.708 1.521.735.079 3.232-1.311 3.364-1.625.368-.918 1.13-3.619 1.13-3.619Z" fill="#6B3425"/><path d="m122.293 104.596-1.261-.053-.027 2.204.947.184.341-2.335Z" fill="#6B3425"/><path opacity=".4" d="m97.43 122.06 3.154 17.777-5.65 1.705 2.496-19.482Z" fill="#254B6B"/><path d="M111.15 81.102s2.944 5.297 11.091 5.769c16.979.97 9.199-8.522 9.199-8.522s.604 2.517-2.313 2.648c-3.995.184-9.777-11.93-17.977.105Z" fill="#A5713D"/><path d="M221.589 182.945h-.105c-2.813-.026-4.153-1.39-4.153-4.169 0-1.626.894-2.15 1.393-2.308.946-.314 2.076.079 2.47.603.658.866.421 1.626.027 1.993-.421.393-1.025.446-1.472.079-.105-.105-.131-.262-.053-.367.106-.105.263-.131.368-.053.263.21.579.131.763-.052.236-.236.367-.708-.079-1.285-.237-.341-1.13-.682-1.866-.42-.657.21-1.025.839-1.025 1.81-.027 2.491 1.103 3.618 3.6 3.644.999 0 1.919-.524 2.576-1.442.815-1.154 1.025-2.753.526-4.116-.973-2.701-2.865-4.904-6.334-7.395-.526-.367-1.078-.76-1.63-1.127-1.813-1.233-3.653-2.544-5.099-4.038-1.629-1.731-2.444-3.54-2.444-5.481-.026-3.618 2.313-5.322 4.494-5.401h.027c1.55-.026 2.496 1.18 2.628 3.33.079 1.495-.605 2.937-1.577 3.278-.578.209-1.13-.027-1.551-.604-.788-1.075-.368-1.835-.131-2.123.341-.42.867-.63 1.235-.472.237.104.368.34.342.629-.027.157-.158.262-.289.236-.158-.026-.263-.157-.237-.289v-.078c-.052-.026-.289 0-.526.21-.184.183-.578.708.053 1.573.289.393.578.524.92.419.631-.236 1.288-1.337 1.209-2.727-.053-1.075-.394-2.858-2.076-2.831h-.027c-1.945.052-3.995 1.599-3.968 4.85.026 4.065 3.732 6.608 7.306 9.099.552.367 1.104.761 1.63 1.128 3.574 2.569 5.519 4.851 6.518 7.656.552 1.573.341 3.278-.605 4.615-.657.996-1.708 1.6-2.838 1.626Z" fill="#000"/><path d="M228.764 242.099a.292.292 0 0 1-.29-.288c.027-.498 1.499-49.401 1.446-51.708-.131-5.428-1.262-7.814-3.916-8.26-1.104-.183-2.103.053-2.839.682-.736.629-1.104 1.6-1.077 2.701.079 2.386 1.656 3.776 3.154 3.723.552-.026.972-.236 1.182-.655.263-.551.184-1.311-.236-1.914-.237-.341-.894-.341-1.235-.132-.263.158-.29.394-.079.735.079.131.026.288-.079.367a.284.284 0 0 1-.368-.079c-.421-.682-.158-1.206.236-1.442.579-.367 1.551-.341 1.972.262.525.76.63 1.731.289 2.465-.316.603-.894.944-1.656.97-.92.026-1.84-.393-2.523-1.127-.736-.787-1.157-1.888-1.183-3.121-.026-1.285.421-2.386 1.262-3.12s2.023-1.023 3.285-.813c1.551.262 2.628 1.128 3.338 2.648.631 1.39.972 3.33 1.025 6.136.052 2.308-1.393 49.715-1.446 51.734 0 .131-.131.236-.262.236Z" fill="#000"/><path d="M227.03 234.285c-.21 0-.446 0-.709-.079-.841-.157-4.179-1.547-7.096-2.858-2.865-1.258-6.151-2.832-6.834-3.382-1.367-1.075-1.209-2.727-.999-3.173.132-.315.605-.525 1.052-.498.499.026.893.314 1.077.839.132.393.105.708-.052.917-.263.341-.736.289-.789.289-.158-.026-.263-.157-.236-.289.026-.157.157-.262.289-.235.079 0 .263 0 .315-.079.053-.079.053-.21-.026-.42a.666.666 0 0 0-.578-.472c-.289-.026-.526.131-.552.184-.132.288-.263 1.652.841 2.517.525.42 3.232 1.757 6.728 3.304 3.417 1.521 6.282 2.675 6.965 2.832.631.131 1.13.052 1.472-.236.315-.262.473-.682.447-1.18-.027-.944-.684-1.914-1.288-1.914-.263 0-.316.341-.316.419-.026.262.079.525.237.525.158.026.236.157.21.314-.026.158-.158.236-.315.21-.473-.079-.71-.629-.684-1.101.027-.551.368-.918.841-.944.999-.026 1.814 1.285 1.84 2.438.026.656-.21 1.233-.631 1.6-.262.236-.63.446-1.209.472ZM209.419 229.592s1.157-1.364 1.63-1.364c.473-.026 2.024 1.26 2.024 1.26l-3.654.104ZM227.372 213.177h-.079c-.789 0-4.6-.97-7.859-1.888-2.575-.734-6.991-2.045-7.648-2.701-1.183-1.18-1.235-2.779-.578-3.461.368-.393.762-.419.999-.393.394.052.788.315.998.708.237.446.079 1.101-.236 1.39-.21.209-.473.262-.71.131-.131-.079-.184-.236-.105-.367.079-.132.237-.184.368-.105.026 0 .079-.053.132-.158.105-.209.131-.472.052-.629a.85.85 0 0 0-.578-.42c-.21-.026-.394.053-.552.236-.499.525-.368 1.81.578 2.727.421.42 3.312 1.416 7.412 2.57 3.548.997 7.07 1.862 7.701 1.862.499 0 .972-.262 1.287-.734a1.834 1.834 0 0 0 .184-1.757c-.341-.761-.814-1.311-1.182-1.364-.184-.026-.342.053-.5.236-.131.158-.184.315-.157.42.052.21.315.367.394.393.131.053.21.21.131.367a.261.261 0 0 1-.368.131c-.052-.026-.604-.288-.709-.786-.053-.21-.027-.525.289-.892.341-.419.736-.446.972-.419.578.078 1.157.708 1.603 1.678.316.708.237 1.599-.236 2.281a1.937 1.937 0 0 1-1.603.944ZM210.735 181.844c-.342 0-.578-.158-.683-.472-.053-.131.026-.289.157-.341.132-.053.289.026.342.157.053.131.053.131.184.131.21 0 .578-.131 1.156-.288l.158-.053c.368-.105.71-.445.973-.97.473-.944.578-2.255.236-3.199-.342-.97-.999-1.363-1.445-1.416-.29-.026-.552.079-.684.315-.315.524-.447 1.285-.289 1.73.026.105.105.236.21.263.053.026.079 0 .132 0 .184-.105.341-.472.394-.734.026-.158.184-.236.315-.21.158.026.237.183.211.314-.027.079-.211.839-.657 1.075-.184.105-.368.105-.579.027-.236-.079-.42-.289-.525-.603-.211-.603-.079-1.521.315-2.203.237-.42.71-.629 1.209-.577.789.079 1.551.761 1.892 1.757.395 1.101.29 2.543-.262 3.618-.316.656-.763 1.076-1.288 1.233l-.158.052c-.631.184-.999.315-1.288.315 0 .079 0 .079-.026.079Z" fill="#000"/><path d="M211.392 233.657c-.157 0-.262-.104-.289-.262l-2.023-74.599c0-.157.105-.262.262-.288.158 0 .263.105.29.262l2.023 74.599c0 .157-.131.262-.263.288Z" fill="#000"/><path d="M225.558 236.854c-.027 0-.053 0-.079-.026l-14.088-7.63c-.078-.053-.105-.158-.078-.236.052-.079.131-.132.236-.079l16.216 6.529c.106.026.132.131.106.236-.027.105-.132.131-.237.105l-13.299-5.349 11.328 6.135c.079.053.131.158.079.236-.079.027-.132.079-.184.079Z" fill="#000"/><path d="M219.749 238.585a.2.2 0 0 1-.131-.052l-8.306-9.518c-.052-.079-.052-.184 0-.236.053-.079.158-.079.237-.027l11.485 8.627c.079.053.106.184.027.262-.053.079-.184.105-.263.027l-10.093-7.605 7.175 8.208a.2.2 0 0 1-.026.262c-.026.026-.052.052-.105.052Z" fill="#000"/><path d="M213.915 239.478a.198.198 0 0 1-.184-.131l-2.47-10.41c-.027-.078.026-.183.105-.209.079-.027.184 0 .21.078l5.23 10.017c.053.078 0 .183-.079.236-.078.052-.183 0-.236-.079l-4.547-8.732 2.129 8.994c.026.105-.026.184-.131.21 0 0 0 .026-.027.026Z" fill="#000"/><path d="M211.05 239.556a.179.179 0 0 1-.184-.183l.42-10.489c0-.105.079-.183.184-.183s.184.078.184.183l-.42 10.489c-.027.105-.105.183-.184.183ZM212.862 210.321l-4.021.131a.257.257 0 0 1-.263-.21c-.026-.131.027-.262.158-.315l2.024-.944a.29.29 0 0 1 .21 0l1.998.839c.105.053.183.184.157.289a.282.282 0 0 1-.263.21Zm-2.733-.472 1.472-.053-.736-.315-.736.368Z" fill="#000"/><path d="M225.662 214.935h-.079l-14.797-5.401c-.079-.026-.131-.131-.105-.236.026-.105.132-.131.21-.105l17.189 4.825c.105.026.158.131.132.21-.027.104-.132.157-.211.131l-12.642-3.54 10.382 3.776c.105.026.131.131.105.236a.221.221 0 0 1-.184.104Z" fill="#000"/><path d="M219.592 216.376c-.053 0-.079 0-.106-.027l-8.725-6.843c-.079-.053-.079-.158-.027-.236a.172.172 0 0 1 .237-.053l11.88 6.398c.078.053.131.157.078.236-.052.079-.157.131-.236.079l-10.04-5.402 7.07 5.533c.079.052.079.183.026.262-.052.026-.105.053-.157.053Z" fill="#000"/><path d="M212.705 217.112a.198.198 0 0 1-.184-.131l-1.84-7.578c-.026-.079.026-.158.105-.21.079-.026.158-.026.211.052l5.834 7.368a.202.202 0 0 1-.026.263.203.203 0 0 1-.263-.027l-5.309-6.712 1.656 6.765c.026.105-.026.183-.132.21h-.052ZM217.567 190.366h-.053l-7.306-1.837c-.079-.026-.158-.105-.132-.209.027-.105.106-.158.184-.158l12.511 1.128c.105 0 .184.105.158.184 0 .105-.106.183-.184.157l-10.198-.918 5.046 1.259c.105.026.158.131.132.21-.027.131-.079.184-.158.184Z" fill="#000"/><path d="M214.861 190.445c-.027 0-.053 0-.079-.026l-3.338-1.495 1.551 1.233c.078.052.078.183.026.262-.053.079-.184.079-.263.026l-2.655-2.098c-.078-.053-.078-.158-.052-.236.052-.079.131-.105.236-.079l4.652 2.072c.079.053.132.158.079.236a.176.176 0 0 1-.157.105ZM229.003 242.557c.609-.018 1.094-.35 1.082-.741-.011-.391-.515-.693-1.124-.675-.61.018-1.094.349-1.082.74.011.391.515.694 1.124.676ZM211.125 233.796c.595-.018 1.07-.255 1.062-.53-.008-.275-.497-.484-1.092-.466-.595.017-1.07.255-1.062.53.008.275.497.484 1.092.466ZM198.645 183.627c-1.131.026-2.208-.498-2.997-1.495-1.025-1.258-1.34-2.963-.867-4.562.841-2.858 2.655-5.271 6.071-8.024.5-.419 1.052-.839 1.551-1.232 3.417-2.675 6.965-5.454 6.755-9.492-.158-3.252-2.313-4.668-4.258-4.615h-.027c-1.655.052-1.892 1.861-1.892 2.936 0 1.416.71 2.465 1.367 2.675.341.105.657-.052.893-.472.579-.918.158-1.416-.026-1.573-.236-.21-.499-.21-.552-.184v.079c.026.157-.079.288-.236.315-.158.026-.289-.079-.316-.236a.599.599 0 0 1 .316-.656c.368-.157.92 0 1.261.42.237.262.71.996-.026 2.123-.394.604-.92.866-1.498.682-.973-.288-1.761-1.678-1.761-3.173 0-2.15.867-3.408 2.418-3.487h.026c2.182-.052 4.626 1.495 4.81 5.113.105 1.941-.605 3.776-2.129 5.611-1.34 1.6-3.101 2.99-4.836 4.327-.526.393-1.051.813-1.551 1.232-3.311 2.701-5.072 5.035-5.887 7.762-.42 1.39-.105 2.963.789 4.064.709.892 1.682 1.337 2.654 1.285 2.497-.157 3.548-1.337 3.391-3.828-.053-.971-.447-1.547-1.131-1.731-.762-.21-1.603.184-1.839.524-.395.604-.263 1.076 0 1.285.184.158.499.236.762 0 .105-.105.289-.078.394.027.105.104.079.288-.026.393-.421.367-1.025.367-1.472 0-.421-.367-.683-1.101-.105-1.993.368-.577 1.472-1.023 2.418-.76.525.131 1.419.603 1.524 2.228.184 2.78-1.077 4.222-3.89 4.406 0 .026-.052.026-.078.026Z" fill="#000"/><path d="M194.991 243.097a.308.308 0 0 1-.289-.236c-.184-2.019-4.442-49.244-4.521-51.551-.105-2.806.106-4.772.657-6.188.605-1.547 1.63-2.491 3.154-2.832 1.236-.288 2.418-.079 3.312.603.894.682 1.393 1.757 1.446 3.042.026 1.232-.316 2.36-.999 3.199-.631.786-1.525 1.232-2.471 1.258-.762.026-1.366-.288-1.708-.865-.394-.682-.342-1.678.131-2.465.395-.629 1.367-.734 1.971-.393.395.236.71.734.342 1.442-.079.131-.236.184-.368.105-.131-.079-.184-.236-.105-.367.184-.341.131-.577-.131-.708-.368-.21-1.025-.157-1.236.21-.368.629-.42 1.389-.131 1.914.237.393.657.603 1.209.603 1.498-.053 2.996-1.521 2.917-3.907-.026-1.128-.473-2.045-1.235-2.648-.762-.577-1.787-.761-2.865-.499-2.602.603-3.6 3.068-3.416 8.496.078 2.307 4.468 51.052 4.52 51.524.079.132-.026.263-.184.263Z" fill="#000"/><path d="M196.252 235.202c-.578.027-.972-.157-1.209-.34-.447-.341-.709-.892-.736-1.547-.026-1.154.71-2.518 1.682-2.544.473-.026.841.341.894.892.053.472-.131 1.022-.604 1.153-.158.027-.29-.052-.316-.209-.026-.158.053-.289.21-.315.132-.026.237-.289.184-.551 0-.105-.078-.419-.341-.419-.605.026-1.209 1.022-1.183 1.993.026.498.21.917.526 1.153.341.262.867.315 1.471.158.684-.184 3.47-1.495 6.781-3.226 3.391-1.756 6.019-3.251 6.518-3.697 1.052-.944.841-2.281.71-2.569-.026-.053-.263-.184-.552-.158-.21.026-.447.131-.552.498-.052.21-.052.341 0 .42.079.079.263.079.316.079a.271.271 0 0 1 .315.209.272.272 0 0 1-.21.315c-.053 0-.526.079-.815-.236-.184-.21-.237-.524-.131-.918a1.17 1.17 0 0 1 1.025-.891c.446-.053.919.131 1.077.419.237.42.473 2.072-.815 3.226-.657.576-3.837 2.333-6.623 3.775-2.838 1.469-6.071 3.042-6.912 3.278-.263 0-.5.026-.71.052ZM194.649 214.147c-.657.026-1.288-.289-1.709-.865a2.422 2.422 0 0 1-.368-2.255c.368-.997.92-1.652 1.498-1.757.237-.053.631-.026.999.367.342.341.368.682.342.865-.079.498-.605.787-.657.813-.132.079-.289.026-.368-.105-.079-.131-.026-.288.105-.367.105-.052.342-.21.368-.419.026-.132-.053-.263-.184-.42-.158-.184-.342-.236-.499-.21-.368.079-.815.63-1.104 1.416-.211.577-.105 1.233.289 1.757.341.446.815.682 1.314.655.631-.052 4.1-1.101 7.596-2.307 4.021-1.39 6.859-2.57 7.254-3.015.867-.971.919-2.255.394-2.754-.184-.157-.368-.236-.552-.183a.854.854 0 0 0-.552.446c-.079.157-.026.419.079.629.079.105.131.157.157.157a.284.284 0 0 1 .368.079.282.282 0 0 1-.078.367.597.597 0 0 1-.71-.079c-.315-.288-.526-.917-.315-1.363.184-.394.551-.682.946-.761.263-.052.657-.026 1.025.341.709.656.736 2.255-.368 3.514-.631.708-4.968 2.281-7.464 3.146-3.181 1.102-6.939 2.282-7.728 2.334-.026-.026-.052-.026-.078-.026ZM209.394 181.87h-.026c-.289 0-.657-.079-1.288-.236l-.158-.026c-.525-.131-.998-.525-1.366-1.154-.605-1.049-.789-2.491-.473-3.618.289-.997.998-1.731 1.787-1.862.499-.079.972.105 1.235.498.447.629.631 1.547.447 2.176-.079.315-.263.525-.499.63a.746.746 0 0 1-.579 0c-.473-.21-.709-.944-.736-1.049-.052-.131.053-.288.184-.341.132-.052.29.026.342.184.079.236.263.629.447.708.026.026.079.026.131 0 .105-.053.158-.184.184-.289.132-.472-.026-1.206-.368-1.704-.157-.236-.394-.315-.709-.262-.447.078-1.078.498-1.367 1.494-.289.97-.105 2.281.421 3.199.289.498.657.813 1.025.892l.157.026c.578.131.946.236 1.157.236.131 0 .131 0 .184-.131.052-.131.184-.236.341-.184.132.053.237.184.184.341-.079.289-.315.472-.657.472ZM197.882 237.667c-.052 0-.131-.026-.158-.079a.171.171 0 0 1 .053-.236l10.934-6.791-12.958 6.11c-.079.052-.184 0-.236-.079-.053-.079 0-.184.079-.236l15.795-7.473c.079-.053.184 0 .237.079.053.078.026.183-.053.236l-13.614 8.443c0 .026-.026.026-.079.026Z" fill="#000"/><path d="M203.77 239.058c-.053 0-.079 0-.105-.026-.079-.052-.105-.183-.026-.262l6.675-8.627-9.645 8.181a.202.202 0 0 1-.263-.026.2.2 0 0 1 .026-.262l10.934-9.309c.078-.052.184-.052.236 0 .079.053.079.158.026.236l-7.727 9.991c-.026.078-.079.104-.131.104Z" fill="#000"/><path d="M209.657 239.583h-.027c-.105-.026-.157-.105-.157-.21l1.603-9.099-4.021 8.994c-.053.079-.158.131-.237.079-.079-.053-.131-.157-.079-.236l4.626-10.305c.026-.079.132-.131.21-.105.079.026.132.105.132.21l-1.84 10.541c-.053.078-.131.131-.21.131ZM196.463 215.8c-.078 0-.131-.026-.157-.105-.053-.079 0-.21.105-.236l10.145-4.379-12.405 4.3c-.106.026-.184-.026-.237-.105-.026-.105.026-.183.105-.236l16.874-5.821c.078-.026.184.026.236.105a.194.194 0 0 1-.105.236l-14.455 6.267c-.053-.026-.079-.026-.106-.026Z" fill="#000"/><path d="M202.612 216.874a.197.197 0 0 1-.131-.053c-.079-.078-.053-.183.026-.262l6.729-5.952-9.699 6.005a.17.17 0 0 1-.236-.053.17.17 0 0 1 .052-.236l11.486-7.106a.17.17 0 0 1 .236.053c.053.078.053.183-.026.236l-8.305 7.342c-.053 0-.079.026-.132.026Z" fill="#000"/><path d="M209.526 217.216h-.027c-.105-.026-.157-.105-.157-.21l1.235-6.87-4.915 7.028c-.052.078-.158.104-.263.052-.079-.052-.105-.157-.052-.262l5.388-7.709c.052-.079.131-.105.21-.053.079.027.131.105.105.21l-1.393 7.683c.026.052-.053.131-.131.131ZM203.086 190.786a.198.198 0 0 1-.184-.131c-.026-.105.026-.184.105-.236l4.968-1.548-10.119 1.522c-.105.026-.184-.053-.21-.158-.027-.105.052-.183.157-.21l12.432-1.862c.105-.026.184.052.21.131.027.079-.026.184-.131.21l-7.202 2.256c.027.026 0 .026-.026.026Z" fill="#000"/><path d="M205.793 190.707c-.079 0-.131-.026-.158-.104-.052-.079 0-.184.079-.237l4.495-2.308a.171.171 0 0 1 .236.053c.053.078.053.183-.026.236l-2.523 2.256c-.079.078-.184.052-.263 0-.079-.079-.053-.184 0-.263l1.472-1.338-3.259 1.679c0 .026-.027.026-.053.026ZM194.781 243.578c.61-.018 1.094-.35 1.083-.741-.012-.391-.515-.693-1.125-.675-.609.018-1.094.35-1.082.741.011.391.515.693 1.124.675Z" fill="#000"/><path d="M213.179 190.732c-2.602.079-5.02.053-7.07-.026-5.52-.183-9.541-.656-9.594-.682-.157-.026-.262-.157-.236-.288.026-.158.158-.263.289-.236.053 0 4.048.498 9.541.655 5.072.158 12.51.079 19.107-1.232a.27.27 0 0 1 .315.209.27.27 0 0 1-.21.315c-3.969.84-8.253 1.181-12.142 1.285ZM212.233 217.242c-.447.027-.92.027-1.393.027-10.487 0-18.056-2.019-18.109-2.019-.131-.027-.236-.184-.183-.341.026-.131.183-.236.341-.184.079.026 7.57 2.019 17.977 2.019 10.382 0 18.556-3.487 18.635-3.513a.302.302 0 0 1 .368.131.301.301 0 0 1-.132.367c-.026 0-2.102.891-5.44 1.783-2.865.708-7.149 1.573-12.064 1.73ZM211.944 239.608c-6.754.21-11.117-.655-13.588-1.39-2.707-.812-3.784-1.678-3.837-1.73-.105-.105-.131-.262-.026-.367.105-.105.263-.131.368-.053 0 0 1.077.866 3.705 1.652 2.418.734 6.729 1.547 13.378 1.364 6.65-.21 10.881-1.39 13.247-2.36 2.575-1.049 3.574-2.072 3.6-2.072.106-.104.263-.104.395 0a.253.253 0 0 1 0 .367c-.053.053-1.078 1.102-3.733 2.177-2.444.996-6.754 2.229-13.509 2.412Z" fill="#000"/><path d="M167.711 227.52c-4.652-2.045-6.597-14.841-6.676-15.366-.578-3.959-.657-9.57.946-13.399 1.708-4.09 7.596-4.379 11.117-4.536l.5-.026c4.074-.21 10.881-.525 13.246 2.753 1.393 1.94 5.257 9.23 5.362 15.628.105 5.532-1.393 9.964-4.442 13.137-1.472 1.52-6.334 2.464-11.065 2.7-3.653.131-7.228-.131-8.988-.891Zm18.424-30.102c-2.103-2.91-8.858-2.57-12.511-2.386l-.499.026c-4.284.21-8.963.708-10.356 4.012-1.524 3.671-1.445 9.256-.893 12.953.657 4.432 2.786 13.216 6.176 14.71 3.575 1.573 16.742.787 19.081-1.626 2.891-2.989 4.284-7.21 4.206-12.507-.106-6.162-3.89-13.373-5.204-15.182Z" fill="#9B7A56"/><path d="M169.21 217.87c-1.866-1.81-6.413.314-6.413.314s2.234 7.526 4.258 9.728c2.05 2.229 9.54 3.304 13.141 3.435 3.574.131 13.798-.55 17.346-3.513s3.443-7.028 3.102-9.807c-.342-2.779-1.84-4.353-3.102-4.195-1.261.157-5.834 1.258-5.834 1.258s-.368 4.589-1.84 6.923c-1.498 2.333-1.787 4.09-5.388 4.824s-9.278 1.154-9.278 1.154-4.389-8.548-5.992-10.121Z" fill="#9B7A56"/><path d="M185.109 226.627c.079 0 .158-.078.132-.157l-3.995-31.177c0-.078-.079-.131-.158-.131s-.131.079-.131.157l3.994 31.177c0 .079.079.131.158.131ZM171.102 227.965c.105-.026.158-.105.131-.184l-5.992-30.967c-.026-.078-.105-.131-.158-.105-.079.027-.131.079-.105.158l5.992 30.967c0 .079.053.131.132.131ZM177.276 227.652c.079 0 .132-.079.132-.157 0-.132-.079-12.587-4.705-32.41-.026-.078-.105-.131-.184-.105-.079.027-.131.105-.105.184 4.626 19.797 4.705 32.226 4.705 32.357 0 .078.078.131.157.131Z" fill="#9B7A56"/><path d="m163.636 197.288 19.765-1.941c.078 0 .131-.079.131-.158 0-.078-.079-.131-.158-.131l-19.764 1.967c-.079 0-.131.079-.131.158 0 .052.078.131.157.105ZM162.534 198.757l23.313-2.177c.078 0 .131-.079.131-.157 0-.079-.079-.131-.158-.131l-23.286 2.177c-.079 0-.131.078-.131.157-.027.079.052.131.131.131ZM161.954 200.329l24.548-2.439c.079 0 .131-.079.131-.157 0-.079-.078-.131-.157-.131l-24.548 2.438c-.079 0-.132.079-.132.157 0 .079.079.132.158.132ZM165.712 201.691c2.392-.105 5.441-.315 7.701-.708 4.231-.734 13.43-2.072 13.509-2.072.079 0 .132-.078.132-.157s-.079-.131-.158-.131c-.105.026-9.278 1.337-13.536 2.072-4.231.734-11.301.839-11.354.839-.078 0-.131.078-.131.157s.079.131.158.131c0-.026 1.577-.026 3.679-.131ZM167.894 203.003a67.693 67.693 0 0 0 5.756-.498c5.94-.761 14.009-2.308 14.088-2.308.079-.026.131-.078.105-.157-.026-.079-.079-.131-.158-.105-.079.026-8.147 1.547-14.087 2.307-5.914.761-11.88.577-11.932.577-.079 0-.158.053-.158.131 0 .079.052.158.131.158.053-.026 2.734.052 6.255-.105ZM165.739 204.419c2.076-.105 4.836-.289 8.095-.656 7.149-.839 14.482-2.307 14.561-2.333.078-.027.131-.105.105-.184-.027-.079-.105-.131-.184-.105-.079.026-7.386 1.495-14.534 2.334-7.123.839-11.985.76-12.038.76-.079 0-.158.053-.158.131 0 .079.053.158.132.158.052 0 1.524.026 4.021-.105ZM166.107 206.02a82.65 82.65 0 0 0 7.911-.76c7.044-1.023 14.849-2.491 14.928-2.491.079-.027.132-.079.105-.158-.026-.078-.078-.131-.157-.105-.079.027-7.885 1.495-14.902 2.491-7.018 1.023-12.406.813-12.458.813-.079 0-.158.053-.158.131 0 .079.053.158.131.158.027-.027 1.788.052 4.6-.079ZM162.217 207.408c1.629-.079 6.386-.315 12.379-.839 7.412-.629 14.823-2.386 14.902-2.386.079-.026.131-.105.105-.184-.026-.078-.105-.131-.184-.104-.079.026-7.464 1.756-14.849 2.386-7.386.629-12.931.865-12.984.865-.079 0-.131.079-.131.157 0 .079.078.131.157.131 0 0 .211-.026.605-.026ZM162.428 208.745c1.55-.079 5.493-.289 11.985-.813 8.62-.682 15.532-2.517 15.611-2.543.079-.027.132-.105.105-.184-.026-.079-.105-.131-.184-.105-.078.026-6.964 1.836-15.559 2.517-8.594.682-12.72.839-12.747.839-.079 0-.131.079-.131.158 0 .078.079.131.158.131 0 .026.262.026.762 0ZM164.451 210.241c1.997-.105 5.256-.315 10.25-.787 9.935-.944 15.559-2.806 15.612-2.832.078-.026.105-.105.078-.183-.026-.079-.105-.105-.184-.079-.052.026-5.65 1.862-15.559 2.806-9.882.944-12.931.865-12.957.865-.079 0-.158.052-.158.131 0 .079.053.157.132.157.078 0 .814.027 2.786-.078Z" fill="#9B7A56"/><path d="M167.684 211.394c1.945-.079 4.31-.262 7.149-.524 8.516-.839 15.927-3.016 16.006-3.042.079-.026.131-.105.105-.184-.026-.078-.105-.131-.184-.104-.079.026-7.464 2.202-15.953 3.041-8.411.839-12.958.629-13.01.629-.079 0-.158.053-.158.132 0 .078.053.157.132.157.026-.026 2.05.079 5.913-.105ZM167.447 212.968c12.432-.577 23.549-3.724 23.681-3.75.079-.026.131-.105.105-.183-.026-.079-.105-.132-.184-.105-.131.052-14.561 4.09-28.884 3.828-.079 0-.158.052-.158.131 0 .079.052.157.131.157a89.2 89.2 0 0 0 5.309-.078Z" fill="#9B7A56"/><path d="M162.086 214.252a.16.16 0 0 1 0-.21.163.163 0 0 1 .184-.026c.079.026 1.341.419 12.958-.629 12.326-1.102 15.822-2.99 15.848-3.016.079-.026.158-.026.21.053.026.078.026.157-.052.209-.132.079-3.549 1.915-15.98 3.042-3.969.367-6.886.577-8.963.656-2.785.131-4.047.078-4.205-.079Z" fill="#9B7A56"/><path d="M165.66 215.876c2.024-.105 5.256-.314 10.092-.865 9.961-1.101 15.454-3.094 15.507-3.12.079-.027.105-.105.079-.184-.027-.079-.105-.105-.184-.079-.053.027-5.52 1.993-15.454 3.095-9.935 1.101-12.984.917-13.036.917-.079 0-.158.053-.158.131 0 .079.052.158.131.158.053 0 .868.026 3.023-.053ZM163.716 217.53c1.445-.079 4.836-.289 12.116-1.023 10.828-1.075 15.48-2.937 15.533-2.963.079-.026.105-.105.079-.184-.027-.078-.105-.104-.184-.078-.053.026-4.679 1.861-15.454 2.937-10.776 1.075-13.01 1.048-13.036 1.048-.079 0-.158.053-.158.132 0 .078.052.157.131.157.027 0 .263 0 .973-.026ZM164.688 219.077c1.498-.078 4.731-.288 11.196-1.022 10.25-1.128 15.218-2.963 15.27-2.989.079-.027.106-.105.079-.184-.026-.079-.105-.105-.184-.079-.052.027-4.993 1.836-15.217 2.963-10.198 1.128-12.353 1.049-12.353 1.049-.079 0-.158.053-.158.131 0 .079.053.158.132.158.052.026.368.026 1.235-.027ZM165.897 220.257c1.656-.078 4.731-.288 10.303-.76 10.382-.918 14.824-2.989 14.876-3.015.079-.027.105-.132.079-.184-.026-.079-.131-.105-.184-.079-.053.027-4.468 2.072-14.771 2.99-10.303.917-12.09.812-12.116.812-.079 0-.158.053-.158.131 0 .079.053.158.132.158 0 0 .394 0 1.839-.053Z" fill="#9B7A56"/><path d="M168.787 221.28c1.813-.079 4.284-.236 7.701-.525 10.066-.813 14.113-2.91 14.166-2.937.079-.026.105-.131.053-.183-.027-.079-.132-.105-.184-.053-.027.027-4.074 2.098-14.062 2.885-9.987.813-12.09.577-12.116.577-.079 0-.157.052-.157.131 0 .078.052.157.131.157.052.026.946.131 4.468-.052ZM166.948 222.984c1.656-.079 4.547-.289 9.593-.787 10.487-1.023 13.851-2.543 13.982-2.596.079-.026.106-.131.079-.183-.026-.079-.131-.105-.184-.079-.026.026-3.469 1.573-13.877 2.57-10.303.996-11.591.812-11.643.786-.079 0-.158.026-.158.105-.026.079.027.157.105.157 0 .053.342.105 2.103.027ZM168.815 224.007c1.919-.079 4.573-.236 7.859-.472 10.907-.708 13.141-2.36 13.22-2.439.052-.052.079-.131.026-.21-.053-.052-.131-.078-.21-.026-.027.026-2.287 1.678-13.063 2.386-10.092.656-11.143.551-11.249.551-.052-.026-.131 0-.157.052-.053.079-.027.158.052.21.132.079 1.341.053 3.522-.052ZM165.976 225.213c-.026-.078.027-.157.079-.183a.128.128 0 0 1 .158.052c.079.053 1.182.63 10.776-.341 10.276-1.022 11.616-2.15 11.669-2.202.053-.053.158-.053.21 0 .053.052.053.157 0 .21-.052.052-1.314 1.232-11.853 2.281-2.497.262-4.652.419-6.36.498-2.892.157-4.547.052-4.679-.315ZM171.338 226.604c1.393-.079 3.259-.184 5.73-.341 4.231-.315 7.963-.918 10.565-1.731.053-.027.079-.027.105-.027a.202.202 0 0 0 .106-.052c.052-.052.052-.131.026-.184-.053-.105-.132-.078-.316-.026-2.575.813-6.307 1.417-10.513 1.731-7.332.525-9.409.446-9.409.446-.079 0-.157.053-.157.132 0 .078.052.157.131.157.026 0 .946.026 3.732-.105Z" fill="#9B7A56"/><path d="M200.985 250.306h.052c.237-.052.394-.262.342-.498l-4.021-21.187c-.053-.235-.263-.393-.5-.34-.236.052-.394.262-.342.498l4.022 21.186c.026.21.236.341.447.341ZM188.289 244.669c.237 0 .421-.21.421-.446l-.605-12.613c0-.236-.21-.419-.447-.419-.236 0-.42.21-.42.446l.604 12.612c0 .262.184.446.447.42ZM167.553 248.548c.21 0 .368-.157.42-.367l2.497-17.778a.46.46 0 0 0-.368-.498.46.46 0 0 0-.499.367l-2.497 17.778a.458.458 0 0 0 .368.498h.079ZM178.696 254.58c.237 0 .421-.21.421-.446l-.5-22.367c0-.236-.21-.419-.446-.419-.237 0-.421.209-.421.445l.499 22.367c0 .236.184.446.447.42Z" fill="#000"/><path d="M198.172 237.878c.236 0 .394-.184.42-.42 0-.236-.184-.446-.42-.446l-28.543-1.023c-.237 0-.447.184-.447.42s.184.446.421.446l28.542 1.023h.027Z" fill="#000"/><path d="M178.617 241.232c.079 0 .184-.026.237-.078l8.883-6.844c.184-.157.237-.419.079-.603-.158-.184-.421-.236-.605-.079l-8.883 6.818c-.184.157-.237.419-.079.603.079.131.237.183.368.183ZM183.691 232.396c8.988-.419 12.957-2.727 13.141-2.805.263-.158.368-.525.21-.787-.157-.262-.525-.367-.788-.21-.053.027-4.127 2.36-13.194 2.675-9.094.341-12.957-1.783-12.984-1.809a.586.586 0 0 0-.788.21.583.583 0 0 0 .21.786c.158.105 4.179 2.308 13.615 1.967.184 0 .394-.027.578-.027Z" fill="#000"/><g opacity=".6"><path d="M148.734 169.049c7.679 0 13.904-2.09 13.904-4.667 0-2.578-6.225-4.668-13.904-4.668-7.678 0-13.903 2.09-13.903 4.668 0 2.577 6.225 4.667 13.903 4.667Z" fill="#8CA9D0"/><path d="M169.682 119.307h-41.921s-7.464 9.413-6.202 23.861c1.393 15.942 12.878 19.194 13.877 20.898.394.682 9.041 2.019 13.22 2.019h.158c4.179 0 12.825-1.337 13.22-2.019.998-1.704 12.484-4.93 13.877-20.898 1.235-14.474-6.229-23.861-6.229-23.861Zm4.31 23.468c-1.182 14.211-13.956 20.924-25.126 21.134-11.17.183-24.048-5.874-25.231-20.086-.368-4.51.946-12.114.946-12.114l48.544-.288c.026 0 1.235 6.791.867 11.354Z" fill="#fff"/></g><path opacity=".5" d="M124.581 131.709s-1.314 7.578-.946 12.114c1.183 14.212 14.035 20.269 25.232 20.086 11.17-.184 23.943-6.896 25.126-21.134.368-4.563-.841-11.354-.841-11.354l-48.571.288Z" fill="#4A90A8"/><path d="M126.289 150.668c-.263-1.285 2.839-3.225 5.519-3.225 2.839 0 2.234 2.569 4.81 2.569 2.707 0 3.995-1.153 6.65-1.206 3.022-.052 2.733 3.094 4.967 3.094 2.471 0 2.812-3.907 7.017-3.88 3.785.026 2.97 4.562 5.493 4.562 2.602 0 1.183-7.63 4.6-7.578 3.522.053 5.808 4.274 5.361 6.11-.63 2.596-7.648 11.93-21.919 12.114-13.404.183-21.736-8.915-22.498-12.56Z" fill="#DBAC73"/><path d="M137.564 140.048c0 .603-.473 1.075-1.078 1.075a1.064 1.064 0 0 1-1.077-1.075c0-.604.473-1.076 1.077-1.076a1.1 1.1 0 0 1 1.078 1.076ZM138.168 143.667a.604.604 0 1 0 .002-1.208.604.604 0 0 0-.002 1.208ZM128.786 134.462a.83.83 0 0 1-.841.84.83.83 0 0 1-.841-.84.83.83 0 0 1 .841-.839c.447 0 .841.394.841.839ZM160.195 139.392a.998.998 0 1 1-.999-.996c.579.026.999.472.999.996ZM160.824 138.16a.552.552 0 1 0 0-1.103.552.552 0 0 0 0 1.103ZM171.733 136.64a.71.71 0 1 0 .001-1.419.71.71 0 0 0-.001 1.419Z" fill="#fff"/><path d="M163.191 134.934c.157-.419 1.077.839 1.498 1.338.42.498 1.945-.341 1.892.131-.026.472-1.34 1.153-1.235 1.704.131.551 1.918-.341 1.945.157.026.499-1.814 1.705-1.63 1.888.158.21 1.761-.472 1.709-.157-.053.315-1.315.734-1.131 1.285.184.577 1.472-.42 1.551.288.105.708-.92.682-.683 1.049.236.367.972-.341 1.025 0 .052.341-.815.629-.395 1.023.421.367 1.683-1.023 1.709-.158.026.866-.526.787-.894 1.233-.368.446-.447.76.105.944.552.183 1.183.55.841.681-.341.158-1.156.315-1.287.866-.158.524 1.261.97.998 1.311-.263.341-1.077-.079-1.182.393-.079.446.946.734.709 1.023-.236.288-1.314-.21-1.366.183-.053.394.998.944.788 1.233-.21.262-1.209-.498-1.446.026-.236.524.999.734.868.865-.132.158-1.025-.341-1.13.026-.105.368.841.551.736.787-.079.236-.999-.21-1.157.053-.158.262.578.917.342 1.311-.237.393-1.63-.027-1.603.419.052.446 1.077.629.893.813-.184.184-1.577.105-1.524.498.052.393.709.577.604.787-.079.236-1.13-.184-1.156.183-.026.394-.368 1.757-.368 1.757s0-1.678.105-1.993c.105-.314-.604-1.127-.499-1.363.131-.236.92.577.998.288.079-.262-.578-.472-.394-.891.184-.42.841-.184.894-.394.052-.209-.684-.812-.526-1.127.158-.288 1.209.524 1.288.367.079-.183-.605-.865-.447-1.101.158-.262.578.157.684.078.105-.078-1.209-.865-.868-1.442.342-.577 1.209.866 1.367.603.158-.262-.499-.839-.342-1.101.158-.262.71.472.815.184.105-.289-.263-1.6-.079-1.783.184-.184.894.629 1.104-.079.21-.708-1.34-1.311-1.183-1.809.158-.499 1.262.078 1.393-.341.132-.446-1.077-1.101-1.025-1.259.079-.157 1.393.498 1.262-.157-.132-.656-1.025-.603-1.078-.839-.052-.21.789-.341.71-.551-.079-.21-1.104-.105-1.262-.55-.157-.446.289-.499.132-.761-.158-.262-1.551.551-1.63.079-.105-.472 1.288-.997 1.078-1.521-.211-.524-2.077.524-2.05.026.026-.472 1.603-.865 1.366-1.442-.236-.603-1.55.315-1.655-.052-.106-.368 1.156-.551.972-.997-.184-.446-1.367.341-1.262-.315.106-.655 1.604-.629 1.499-.996-.106-.367-.526-.183-.526-.472-.026-.262.368-.157.42-.419.106-.158-1.576-1.075-1.287-1.81Z" fill="#7EA21A"/><path d="M145.897 159.581c.42-.472 1.445-1.023 2.917-.525 1.445.525 2.865 1.023 2.681 1.495-.184.472-2.865 1.075-3.864.996-.972-.078-2.681-.891-1.734-1.966ZM150.837 158.506c0-.656 1.972-.105 2.024.315.053.446-2.024.708-2.024-.315ZM153.86 161.549c-.132-.263 1.708-1.338 2.155-.656.447.682-1.498 1.889-2.155.656ZM138.275 159.269c0-.394 2.97.892 2.445 1.364-.5.446-2.392-.027-2.445-1.364ZM146.658 162.441c-.131-.289 1.919-.551 2.024-.184.079.368-1.603 1.076-2.024.184ZM145.633 157.931c-.289-.42 1.077-.944 1.235-.472.105.472-.972.918-1.235.472ZM159.958 159.715c-.368-.42 1.892-1.968 2.129-1.495.236.472-1.367 2.36-2.129 1.495ZM160.772 157.694c-.052.341 1.498 0 1.551-.367.053-.367-1.419-.525-1.551.367Z" fill="#A5713D"/><path d="M143.664 145.161c-.211-1.941-3.732-3.016-3.732-4.196 0-1.573 1.708-1.39 2.365-3.461.657-2.045-1.945-3.409-1.945-3.409 1.13 1.285.946 1.757.079 2.727.447.236.972.656.631 1.128-.342.472-1.13.288-1.682.078-.027 0-.053-.026-.079-.026-.237.262-.473.525-.736.839-1.472 1.783 2.208 3.409 2.208 6.084 0 3.487-2.997 8.102-2.997 8.102h5.546s-1.235-1.547-1.235-3.042c-.053-1.547 1.892-1.914 1.577-4.824Zm-2.234 1.573c.026-.577.473-1.39 1.156-1.39.237 0 .368.131.394.341-.079.682-.604 1.599-1.13 1.652-.263 0-.394-.262-.42-.603Z" fill="#4E5E0A"/><path d="M148.868 144.506c-.105-1.023 1.104-1.705.841-2.675-.289-.97-3.285-1.363-3.417-2.334-.184-1.311.473-2.045.473-2.045s-3.048 1.705-3.048 2.937c0 1.573 1.393 1.914 1.471 3.75.105 1.835-2.575 4.3-2.391 5.532.184 1.233 1.577 3.488 1.577 3.488h5.466s-1.761-2.124-1.471-3.068c.289-.944 2.759-2.177 2.864-3.357.027-1.127-2.26-1.18-2.365-2.228Zm0 1.861c.236.158.342.341.368.551-.026.655-1.235 1.416-2.287 1.783-1.077.367-1.314.42-1.314.052 0-.131.026-.262.026-.393.079-.76 1.84-2.832 3.207-1.993Zm-3.233-4.903c-.052-.288.316-.393.762-.341.5.105 1.078.42 1.183.892.184.891-.657 1.783-1.209 1.704-.552-.079-.368-1.101-.736-2.176v-.079ZM132.178 147.128c0-.053-.026-.105-.026-.157-.106-1.311 1.103-1.836 1.761-2.675.551-.708.157-1.206-.658-2.019-.341.079-.683.079-.919-.105-.263-.236-.132-.551.105-.787-.578-.97-.027-1.887-.027-1.887-2.943 2.386.184 3.356.552 4.3.368.97-1.287 1.311-2.391 2.937-1.104 1.651.105 2.255.841 3.277.736 1.023.368 3.147.368 3.147h3.311c.027-2.413-2.602-3.986-2.917-6.031Zm-1.472.603c-.079-.21-.026-.367.158-.472.447-.21.841.157 1.051.577.131.288.158.577.053.734-.211.288-.973-.288-1.262-.839Z" fill="#4E5E0A"/><path d="M150.155 152.582c-.368-.472-1.656-1.364-2.681-1.023-2.208.76-2.681.42-4.1.839-.053-.079-.105-.131-.158-.21-.368-.76-1.761-2.333-2.392-3.146-.657-.813-1.866-1.311-2.312-.813-.815.944-1.288 2.098-1.525 3.094a2.113 2.113 0 0 0-.42-.21c-.92-.419-2.313-.603-3.417-.55-1.104.052-1.945 1.022-2.129 1.573-.184.551 0 1.494 1.209 1.442.973-.052 3.364 0 4.757-.184.447.289 2.523.184 5.125.105.027.105.079.184.184.184.368 0 7.465-.079 7.859-.131.368-.079.368-.498 0-.97Z" fill="#DBAC73"/><path d="M150.153 133.098s1.814-.157 2.55.996c.736 1.154 1.419 3.042 1.419 3.042l-4.941 2.124s-.079-.472-.342-.393c-.262.078-1.655.524-1.655.524s-.106-1.206 1.077-2.674c1.209-1.495 1.472-1.364 1.892-1.81.421-.445 0-1.809 0-1.809ZM148.182 139.627l.789 1.783s-.342.184-.579.865c-.236.682-.446 2.806-1.734 4.091a4.588 4.588 0 0 1-4.284 1.206c-1.235-.315-1.551-.76-1.551-.76s3.364-1.731 3.18-2.57c-.184-.839-.552-1.731-2.155-2.203-1.603-.472-3.18-1.704-3.18-1.704s1.051-.236 3.811-.157c2.76.078 5.072.236 5.703-.551Z" fill="#FFA300"/><path d="M150.153 141.647s.079.655-.263 1.862c-.341 1.206-.999 2.595-1.445 2.491-.447-.105.262-2.151.184-2.596-.079-.446-.316-.682-.053-.971.263-.288 1.104-1.075 1.104-1.075l.473.289ZM154.122 142.066s.211.944-.289 2.151c-.499 1.206-2.418 2.727-2.681 2.648-.262-.079.658-1.573.526-2.019-.131-.446-.841-1.39-.315-1.967.525-.577 2.759-.813 2.759-.813ZM156.357 141.908s-.342.682-.237 1.049c.105.367.815 1.154.289 1.652 0 0-.42-.892-.709-.97-.289-.079-.447-.105-.368-.656.079-.551.525-1.101.525-1.101h.5v.026Z" fill="#FFA300"/><path d="M148.313 140.782c-.079-.394-.684-.472-.579-.761.106-.288 2.445-2.386 4.547-2.989 2.103-.577 5.152.262 6.413.813 1.262.551 1.945 1.154 1.893 1.547-.053.393 0 .734-.92 1.39-.92.629-4.573 2.045-6.229 1.94-1.63-.105-4.968-1.023-5.099-1.232-.184-.184.079-.236-.026-.708Z" fill="#FF6D00"/><path d="M158.354 139.13c.102 0 .184-.164.184-.367 0-.203-.082-.367-.184-.367s-.184.164-.184.367c0 .203.082.367.184.367Z" fill="#000"/><path d="m110.677 139.733.079 13.32s15.953.184 16.978-.078c1.025-.263 6.177-4.327 6.702-4.563.552-.21 1.052 0 .841.629-.21.63-.998 2.57-.998 2.57s3.916-.446 4.257-.655c.368-.21 2.708-2.019 3.181-2.177.473-.157 1.314.158 1.077.656-.236.498-2.418 3.356-2.418 3.356s.447 3.042-.709 4.169c-1.157 1.128-6.571 2.019-9.199 2.203-2.629.183-22.577 2.7-24.259 2.648-1.656-.079-4.1-.603-4.941-4.169-.841-3.566-1.13-17.227-1.13-17.227l10.539-.682Z" fill="#F69576"/></svg>