<svg width="375" height="308" fill="none" xmlns="http://www.w3.org/2000/svg"><path d="M169.758 54.385c18.162 3.435 52.381-66.68 90.255-51.21 37.873 15.471 10.039 65.317 23.549 76.487 13.509 11.17 50.515-23.205 66.074 12.901 15.559 36.107-8.095 74.783-8.437 80.787-.342 6.005 42.657 38.283 30.724 82.728-11.932 44.445-170.389 48.745-226.949 50.449-56.56 1.705-132.175 1.574-143.318-44.759-11.144-46.333 39.476-86.687 44.154-99.64 4.678-12.953-37.663-58.027 15.428-113.433 41.08-42.871 90.359 2.255 108.52 5.69Z" fill="#9ECBDD"/><path d="m357.888 195.717-337.756.367c-12.826 18.04-24.364 41.01-18.45 65.658 11.143 46.333 86.785 46.49 143.318 44.759 56.534-1.73 214.991-6.004 226.95-50.449 6.623-24.648-3.654-45.572-14.062-60.335Z" fill="#1C4563"/><path d="M37.373 225.086C21.21 227.446 4.81 223.88 4.81 223.88c-4.415 11.799-6.308 24.595-3.101 37.889 11.144 46.333 86.785 46.49 143.318 44.76 56.534-1.731 214.991-6.005 226.95-50.45 4.993-18.591.368-35.057-6.65-48.351H244.742s-71.593 13.713-107.548 14.238c-35.954.524-83.657.76-99.82 3.12Z" fill="#E7D0B0"/><path d="M131.754 194.958s-5.151-9.912 6.545-11.039c-1.236-7.919 10.224-19.823 30.093-14.737 3.364-8.6 22.34-23.808 35.481-5.296 25.127-10.541 28.727 4.641 25.363 7.342 19.502-3.54 16.059 9.833 12.747 11.301 25.783-5.506 22.235 12.429 22.235 12.429H131.754ZM219.328 41.668s-1.367-3.487 1.735-3.88c-.316-2.78 2.707-6.95 7.963-5.166.894-3.015 5.914-8.338 9.383-1.862 6.65-3.697 7.596 1.626 6.702 2.57 5.152-1.233 4.258 3.435 3.364 3.96 6.834-1.941 5.888 4.352 5.888 4.352h-35.035v.026Z" fill="#fff"/><path d="M132.727 203.06c.157-1.626 67.861-1.18 68.255 0 .395 1.18-29.567 3.382-29.173 4.641.394 1.258 24.837.21 24.443 2.517-.158.944-8.753 2.098-18.871 2.963-14.719 1.285-32.617 2.045-32.38.734.394-2.202 35.218-1.835 35.297-2.779.079-.97-21.368-1.521-21.21-2.832.184-1.285 22.866-3.042 22.866-4.091 0-1.048-49.306-.236-49.227-1.153ZM288.213 199.388c.447.708-75.693 2.543-75.693 1.337 0-1.206 40.475-3.251 40.475-2.648 0 .603-29.253 1.311-29.253 1.914s63.946-1.442 64.471-.603Z" fill="#9ECBDD"/><path d="m225.687 193.49.841 1.469h9.935l1.393-1.469h-12.169ZM231.077 179.96v13.006s5.072-1.495 4.967-4.406c-.131-2.91-4.967-8.6-4.967-8.6ZM195.569 69.123s-.579-5.402 2.864-8.443c4.547-4.038 8.279-2.727 8.279-2.727s.079-3.383 4.81-6.005 8.778-.393 8.778-.393-5.02-1.154-8.936 1.914c-4.021 3.147 1.315 5.978-1.287 8.338-2.629 2.413-5.126-3.172-9.462-.813-4.678 2.544-5.046 8.13-5.046 8.13ZM207.054 78.457s2.812-3.33 6.492-3.042c4.862.393 6.176 3.278 6.176 3.278s1.997-1.836 6.15-.55c4.153 1.284 5.099 4.85 5.099 4.85s-2.129-3.54-6.071-4.09c-4.074-.577-2.734 4.064-5.546 3.88-2.865-.183-.999-4.72-4.783-5.9-4.074-1.31-7.517 1.574-7.517 1.574Z" fill="#657377"/><path d="M308.846 200.045c-11.355-.708-16.795-39.83-14.324-69.328 2.47-29.499 8.384-68.333 11.327-69.329 2.944-.996 6.413 34.9 7.885 46.7 1.472 11.799 10.934 92.953-4.888 91.957Z" fill="#5F750E"/><path d="M308.847 195.614h-2.944v17.699h2.944v-17.699Z" fill="#6B3425"/><path d="M64.288 103.419s8.752-2.963 15.112 1.573c8.41 6.005 7.648 12.691 7.648 12.691s5.651-1.127 11.775 5.716c6.124 6.844 3.942 14.396 3.942 14.396s.053-8.732-6.492-14.081c-6.728-5.48-9.435 4.405-14.35.97-4.993-3.461 3.364-9.649-2.208-15.968-6.018-6.766-15.427-5.297-15.427-5.297Z" fill="#657377"/><path d="M302.301 229.098a3.877 3.877 0 0 1-3.89-3.881v-10.646a3.877 3.877 0 0 1 3.89-3.881 3.877 3.877 0 0 1 3.89 3.881v10.646a3.877 3.877 0 0 1-3.89 3.881ZM349.399 229.098a3.876 3.876 0 0 1-3.889-3.881v-10.646a3.876 3.876 0 0 1 3.889-3.881 3.876 3.876 0 0 1 3.89 3.881v10.646c0 2.15-1.761 3.881-3.89 3.881Z" fill="#000"/><path d="M307.925 190.315c.394-1.258 1.682-1.809 3.207-2.124 1.524-.314 11.17-.629 14.744-.681 3.575-.053 13.667.681 15.297.812 1.629.131 2.312 1.075 2.759 1.993.447.918 5.467 11.249 6.019 11.957.552.682 1.997 2.622 2.129 3.251.131.63 1.261 3.016 1.182 3.252-.052.262 0 13.766 0 13.766l-54.799.813s-.131-11.144 0-13.819c.132-2.701 2.497-5.873 3.706-7.499 1.183-1.652 5.336-10.357 5.756-11.721Z" fill="#1D7DCC"/><path d="M302.17 202.011h-2.444a1.816 1.816 0 0 1-1.814-1.81c0-.996.815-1.809 1.814-1.809h.631c.998 0 1.813.813 1.813 1.809v1.81Z" fill="#D2D3D5"/><path d="m309.451 191.312-2.208 8.129h37.242l-1.997-8.129s-18.74-4.326-33.037 0Z" fill="#3B3B3B"/><path d="m307.243 199.441 1.629 11.59a1.526 1.526 0 0 0 1.498 1.311h30.987c.763 0 1.393-.551 1.498-1.311l1.63-11.59h-37.242Z" fill="#0C96FD"/><path d="M334.155 205.893h-16.427v4.326h16.427v-4.326Z" fill="#fff"/><path d="m307.531 201.355.946 6.686h-6.281v-3.33c-.026 0 .946-3.041 5.335-3.356Z" fill="#7D009B"/><path d="M349.714 202.011h2.444c.999 0 1.814-.813 1.814-1.81 0-.996-.815-1.809-1.814-1.809h-.63c-.999 0-1.814.813-1.814 1.809v1.81Z" fill="#D2D3D5"/><path d="m344.379 201.355-.946 6.686h6.281v-3.33s-.972-3.041-5.335-3.356Z" fill="#7D009B"/><path d="M308.53 190.133v-11.538a1.783 1.783 0 0 1 1.787-1.835h29.831c.999 0 1.787.813 1.787 1.783v11.59h-2.286l-.211-9.021a1.81 1.81 0 0 0-1.76-1.756l-24.916-.315c-.999 0-1.814.787-1.814 1.783v8.522l-2.418.787Z" fill="#1D7DCC"/><path d="M327.821 191.627h-11.906v7.814h11.906v-7.814ZM337.651 194.408h-8.148v5.034h8.148v-5.034Z" fill="#DBAC73"/><path d="M250.472 72.844s5.572-3.514 11.854.472c4.205 2.674 4.73 12.14 3.154 15.365-1.551 3.225-8.726 9.073-8.726 9.073s-26.887-19.456-6.282-24.91Z" fill="#A5713D"/><path d="m232.548 128.616-.079 13.871s-16.611.184-17.662-.079c-1.051-.262-6.439-4.51-6.991-4.746-.552-.236-1.078 0-.868.656.211.656 1.052 2.701 1.052 2.701s-4.074-.446-4.442-.682c-.368-.236-2.812-2.098-3.312-2.255-.499-.157-1.366.157-1.13.682.21.524 2.523 3.487 2.523 3.487s-.473 3.173.736 4.327c1.209 1.153 6.834 2.097 9.593 2.281 2.734.183 23.497 2.832 25.232 2.753 1.734-.079 4.257-.603 5.151-4.326.893-3.724 1.183-17.936 1.183-17.936l-10.986-.734Z" fill="#DD866F"/><path d="M264.113 259.486v21.816h18.24s2.602-4.352 0-5.559c-2.602-1.18-11.065-5.349-11.065-5.349l.316-10.908h-7.491Z" fill="#F69576"/><path d="M264.113 270.395v10.907h18.24s2.602-4.352 0-5.558c-2.602-1.18-11.065-5.349-11.065-5.349h-7.175Z" fill="#032240"/><path d="M264.113 279.101v2.203h18.24s.605-1.023.947-2.203h-19.187Z" fill="#BFBFBF"/><path d="m249.133 259.487.157 10.908s-9.54 1.783-12.09 2.57c-3.048.944-6.597 1.783-7.096 4.746-.42 2.569 0 3.566 0 3.566h29.568l-3.207-21.816h-7.332v.026Z" fill="#F69576"/><path d="M249.29 270.395s-9.54 1.783-12.09 2.57c-3.048.944-6.597 1.783-7.096 4.746-.42 2.57 0 3.566 0 3.566h29.568l-1.13-10.908h-9.252v.026Z" fill="#BFBFBF"/><path d="M230.102 277.736c-.078.525-.131.971-.157 1.364h29.515l-.92-8.705h-9.251s-9.541 1.783-12.09 2.569c-3.049.944-6.597 1.783-7.097 4.772Z" fill="#032240"/><path d="M235.832 160.659s-1.025 10.75 0 28.633 5.388 35.031 5.887 37.077c.526 2.045 6.913 36.316 6.913 36.316h9.987s-5.651-46.28-6.15-60.335c-.526-14.054 1.787-40.406 1.787-40.406l-18.424-1.285Z" fill="#254B6B"/><path d="M272.471 161.943h-21.263s-1.656 42.505 0 44.498c1.656 1.966 6.676 9.964 7.438 16.099.762 6.136 2.839 40.145 2.839 40.145h11.012V161.943h-.026Z" fill="#254B6B"/><path d="M256.675 104.73c-10.592-.236-14.009 1.364-16.243 6.32-2.234 4.955-7.858 48.404-8.384 57.266-.526 8.863 1.209 14.16 13.325 14.16 12.143 0 28.701-9.885 28.701-9.885s.683 3.067 1.209 4.955c.525 1.888 5.651 3.933 5.651.682s-2.234-54.042-2.576-62.563c-.342-8.522-13.667-10.751-21.683-10.935Z" fill="#000"/><path d="M245.399 107.64c-4.179-1.101-8.042-1.023-11.117 5.113-3.075 6.136-5.467 25.225-5.467 25.225l14.193 5.611s13.483-33.065 2.391-35.949Z" fill="#000"/><path d="M253.023 103.865c3.732 0 8.147.341 10.46 1.835 2.812 1.809 2.76 8.522-9.593 9.073-12.353.55-11.932-5.192-10.697-6.87 1.84-2.491 6.965-4.038 9.83-4.038Z" fill="#F69576"/><path d="m248.237 96.157-2.392 15.418h14.561s-.71-6.136-1.525-10.095c-.814-3.96-1.524-5.323-1.524-5.323h-9.12Z" fill="#F69576"/><path d="M254.571 100.352s.132 2.832-1.761 4.091c-1.892 1.232-6.071 1.258-6.071 1.258l1.472-9.544h6.15s.447 2.386.21 4.195Z" fill="#DD866F"/><path d="M246.136 77.487s-1.84 1.52-2.655 4.877c-.604 2.57-.473 5.349-.815 6.922-.315 1.547-.841 4.038-.394 6.189.447 2.15 2.365 5.113 5.94 6.109 3.574.996 6.492.288 8.463-2.203 1.971-2.49 4.415-6.922 5.125-9.99.71-3.068 1.13-8.915-2.155-11.485-4.205-3.277-9.199-3.303-13.509-.42Z" fill="#F69576"/><path d="M252.628 94.846s-.342 2.097-1.577 2.543c-1.235.446-2.523.157-3.075-.55-.552-.709-.867-2.02-.867-2.02l5.519.027Z" fill="#fff"/><path d="M249.473 92.538c-.394-.079-.394-.446-.394-.682v-.053l-.053.053c-.131.105-.368.262-.63.026a.51.51 0 0 1-.132-.446c.026-.42.289-.97.526-1.154.052-.026.131-.026.157.026.027.053.027.131-.026.157-.184.132-.42.604-.42.971 0 .131.026.236.052.262.105.105.158.08.316-.052.079-.052.157-.105.236-.131.053 0 .105 0 .132.052.078.053.078.158.052.289 0 .262.026.393.184.42.079 0 .132 0 .158-.027.079-.052.079-.21.079-.34 0-.106 0-.158.026-.21a.177.177 0 0 1 .158-.105c.105 0 .236.078.42.262.026.026.079.079.132.052.078-.026.157-.105.21-.314.052-.29-.21-.866-.316-1.05-.026-.052 0-.131.053-.157a.127.127 0 0 1 .158.052c.052.079.447.787.341 1.233-.052.263-.184.446-.394.499a.394.394 0 0 1-.394-.132c-.105-.105-.158-.157-.184-.157v.079c0 .157-.026.393-.158.498a.423.423 0 0 1-.236.079h-.053Z" fill="#6B3425"/><path d="M267.292 87.136c-1.104-2.727-9.146-.262-7.648 4.773 1.524 5.165 9.278-.734 7.648-4.773Z" fill="#F69576"/><path d="M261.143 92.538c.026 0 .052 0 .078-.026.053-.052.053-.13 0-.157-.341-.367-.394-1.495.027-2.622.289-.787 1.051-2.15 2.786-2.36.92-.105 1.577.052 1.945.472.551.63.289 1.652.289 1.652-.027.052.026.131.078.157.053.026.132-.026.158-.078 0-.053.289-1.154-.341-1.862-.421-.498-1.157-.656-2.156-.55-1.366.156-2.444 1.074-2.97 2.516-.42 1.128-.394 2.386.027 2.858h.079Z" fill="#6B3425"/><path d="M264.035 92.093c.052 0 .079-.026.105-.079.026-.105.946-2.307-.394-4.772a.127.127 0 0 0-.158-.053c-.053.027-.079.105-.053.158 1.288 2.36.395 4.536.395 4.562-.027.053 0 .131.052.158.026.026.026.026.053.026ZM253.469 90.205c.247 0 .447-.4.447-.892 0-.493-.2-.892-.447-.892-.246 0-.447.4-.447.892s.201.892.447.892ZM255.519 86.979c-.342-.288-1.051-.656-1.787-.734-.815-.08-1.262.288-1.577.367-.315.079-.368-.367-.184-.735.158-.367.841-.655 1.945-.63 1.104.053 1.708.525 1.997.866.289.315.079 1.26-.394.866ZM246.687 89.97c.247 0 .447-.4.447-.892 0-.493-.2-.892-.447-.892s-.447.4-.447.892.2.892.447.892ZM248.291 86.638c-.342-.288-1.051-.656-1.787-.734-.815-.079-1.262.288-1.577.367-.316.079-.368-.367-.184-.734.157-.368.841-.656 1.945-.63 1.104.052 1.708.525 1.997.866.316.34.079 1.259-.394.865ZM245.425 97.415l.552.132s1.077 2.124 1.971 2.517c.893.393 3.837.262 4.153 0 .315-.262 1.34-2.596 1.34-2.596l.683.157s-1.051 3.383-1.209 3.671c-.105.184-2.05 1.521-2.812 1.574-.762.052-3.364-1.364-3.496-1.679-.367-.944-1.182-3.776-1.182-3.776Z" fill="#6B3425"/><path d="m248.79 98.752 1.315-.052.026 2.282-.973.183-.368-2.413Z" fill="#6B3425"/><path d="m260.881 135.303-.079 13.871s-16.611.183-17.662-.079c-1.078-.262-6.439-4.51-6.991-4.746-.552-.236-1.078 0-.867.656.21.655 1.051 2.7 1.051 2.7s-4.074-.445-4.442-.681c-.368-.21-2.812-2.098-3.311-2.255-.5-.158-1.367.157-1.131.681.211.525 2.524 3.488 2.524 3.488s-.474 3.172.735 4.326c1.209 1.154 6.834 2.098 9.594 2.281 2.733.184 23.496 2.832 25.231 2.754 1.734-.079 4.258-.603 5.151-4.327.894-3.723 1.183-17.935 1.183-17.935l-10.986-.734Z" fill="#F69576"/><path opacity=".4" d="m274.679 116.922-3.312 18.512 5.914 1.757-2.602-20.269Z" fill="#254B6B"/><path d="M260.381 74.287s-3.049 5.506-11.538 6.004c-17.688 1.023-9.567-8.862-9.567-8.862s-.631 2.622 2.418 2.753c4.126.184 10.145-12.429 18.687.105Z" fill="#A5713D"/><path d="m137.352 132.421.079 14.893s17.846.21 19.002-.078c1.157-.289 6.913-4.851 7.517-5.087.605-.236 1.183 0 .946.682-.236.708-1.13 2.884-1.13 2.884s4.363-.498 4.784-.734c.394-.236 3.022-2.255 3.548-2.439.552-.183 1.445.184 1.209.734-.237.577-2.707 3.75-2.707 3.75s.499 3.409-.789 4.667c-1.288 1.259-7.359 2.282-10.303 2.465-2.943.184-25.283 3.042-27.149 2.937-1.866-.105-4.6-.656-5.546-4.641-.946-3.986-1.262-19.299-1.262-19.299l11.801-.734Z" fill="#DD866F"/><path d="M114.25 107.852s-6.781-1.127-11.617 5.926c-4.836 7.054-2.076 19.142-2.418 32.147-.341 13.006.841 36.212.841 36.212h33.458s-.841-28.477 1.393-40.014c2.234-11.511 2.418-26.929-1.945-30.075-4.337-3.121-12.826-5.69-19.712-4.196Z" fill="#4E5E0A"/><path d="M125.629 73.608s-5.992-3.776-12.747.524c-4.52 2.884-4.021 12.743-3.39 16.52 1.472 8.967 9.383 9.78 9.383 9.78s28.884-20.977 6.754-26.824Z" fill="#000"/><path d="M122.871 106.961c-4.022 0-8.779.367-11.249 1.967 10.775 6.319 17.609 11.039 17.609 11.039s5.519-6.844 4.205-8.68c-1.971-2.648-7.49-4.326-10.565-4.326Z" fill="#F69576"/><path d="m128.022 98.674 2.576 16.572-10.408-1.783s-5.993-1.495-5.099-5.742c.894-4.248 3.128-9.047 3.128-9.047h9.803Z" fill="#F69576"/><path d="M121.214 103.184s-.131 3.042 1.893 4.379c2.023 1.338 6.518 1.364 6.518 1.364l-1.604-10.253h-6.597s-.473 2.57-.21 4.51Z" fill="#DD866F"/><path d="M130.281 78.59s1.971 1.625 2.839 5.244c.657 2.78.525 5.769.867 7.447.342 1.678.894 4.352.421 6.66-.473 2.334-2.55 5.506-6.387 6.581-3.837 1.075-6.991.289-9.094-2.36-2.102-2.674-4.731-7.446-5.519-10.75-.789-3.304-1.209-9.597 2.339-12.35 4.521-3.54 9.909-3.566 14.534-.472Z" fill="#F69576"/><path d="M123.318 97.258s.368 2.255 1.708 2.728c1.34.471 2.707.157 3.312-.604.604-.76.919-2.176.919-2.176l-5.939.052Z" fill="#fff"/><path d="M126.577 94.794a.446.446 0 0 1-.263-.078c-.157-.131-.184-.394-.184-.551v-.079c-.026.026-.105.079-.21.184-.105.131-.263.183-.42.131-.211-.052-.368-.262-.421-.525-.105-.472.342-1.233.368-1.311.026-.053.105-.079.184-.053.053.026.079.105.053.184-.132.21-.421.813-.342 1.128.052.21.158.315.236.34.079.027.132-.025.158-.052.184-.21.316-.288.447-.288.079 0 .131.052.158.105.026.052.026.131.052.236 0 .105 0 .288.079.367.026.026.105.026.158.026.184-.026.21-.157.184-.446 0-.13 0-.236.079-.314a.198.198 0 0 1 .131-.053c.105 0 .184.079.263.131.158.131.236.158.342.053.052-.053.078-.158.078-.289-.026-.393-.289-.918-.473-1.049-.052-.052-.079-.131-.026-.184.053-.052.131-.078.184-.026.263.184.552.787.578 1.233 0 .21-.026.393-.158.498-.289.263-.525.08-.683-.026-.026-.026-.052-.026-.052-.052v.052c0 .236.026.656-.421.709h-.079Z" fill="#6B3425"/><path d="M107.522 88.973c1.183-2.937 9.829-.289 8.226 5.14-1.629 5.558-9.961-.814-8.226-5.14Z" fill="#F69576"/><path d="M114.146 94.793c-.027 0-.053 0-.079-.026a.126.126 0 0 1 0-.183c.342-.394.42-1.626-.026-2.832-.316-.84-1.131-2.308-2.997-2.544-.998-.13-1.708.053-2.102.499-.578.681-.316 1.756-.316 1.783.027.078-.026.13-.078.157-.079.026-.132-.026-.158-.079-.026-.052-.316-1.232.368-2.019.447-.524 1.235-.708 2.313-.577 1.472.184 2.628 1.18 3.206 2.701.447 1.206.447 2.57-.026 3.094-.026 0-.079.026-.105.026Z" fill="#6B3425"/><path d="M111.045 94.295a.145.145 0 0 1-.132-.078c-.052-.105-.999-2.491.421-5.14.026-.052.105-.078.184-.052.052.026.078.105.052.183-1.367 2.544-.42 4.904-.42 4.904.026.079 0 .13-.079.157 0 .026 0 .026-.026.026ZM122.398 92.251c.261 0 .473-.423.473-.944 0-.522-.212-.945-.473-.945-.262 0-.473.423-.473.945 0 .521.211.944.473.944Z" fill="#6B3425"/><path d="M118.955 88.45c.499-.447 1.498-.997 2.523-1.102 1.13-.131 1.787.42 2.234.524.446.105.525-.524.263-1.101-.237-.577-1.209-.996-2.76-.918-1.551.079-2.418.813-2.839 1.285-.42.472-.079 1.914.579 1.311Z" fill="#000"/><path d="M129.705 92.016c.261 0 .473-.423.473-.945 0-.521-.212-.944-.473-.944-.262 0-.474.423-.474.944 0 .522.212.945.474.945Z" fill="#6B3425"/><path d="M127.943 88.24c.368-.472 1.13-1.05 1.919-1.18.867-.131 1.366.445 1.708.577.342.13.394-.577.21-1.18-.184-.603-.92-1.05-2.102-.997-1.183.053-1.84.866-2.155 1.39-.316.524-.079 2.019.42 1.39Z" fill="#000"/><path d="M101.056 182.163s-1.919 13.897-2.103 24.674c-.184 10.777.526 18.591 0 19.823-.525 1.206-1.182 11.931-2.05 20.793-.867 8.863-.5 30.994-.5 30.994l11.224-.866s1.971-31.622 3.18-33.72c1.209-2.098 7.49-32.514 7.49-32.514s3.995 19.64 3.837 21.37c-.184 1.731 2.313 12.953 2.997 19.378.683 6.424 6.675 25.46 6.675 25.46h9.094l-3.101-34.769s-.526-9.02-1.025-19.98c-.526-10.961-2.26-40.669-2.26-40.669h-33.458v.026Z" fill="#6B3425"/><path d="M152.989 278.08c1.866.734 1.498 5.48 1.498 5.48l-26.913-.393c-.131-1.18 0-6.372 0-6.372h12.432c0 .026 8.068-.656 12.983 1.285ZM116.484 279.81c1.498 1.285 1.104 4.563 1.104 4.563l-24.075.341.893-7.132h9.961s10.224.576 12.117 2.228Z" fill="#493835"/><path d="M120.793 247.453h21.21l.841 31.99-15.27 3.749-6.781-35.739ZM112.357 247.453l-3.417 32.2-14.876.498-1.655-32.698h19.948Z" fill="#493835"/><path d="M346.797 246.823s1.287.289 2.155.184c.867-.105 1.84.026 2.181.419.342.394.605 1.521.605 1.521s.157.026.368.157c.184.132.184.446.184.446s.105 0 .184.079c.105.079.078.288.078.288s.106.027.158.079c.079.079 0 .184 0 .184s.263-.105.184.209c-.052.315-.368.42-.368.42s-.158.157-.289.157c-.131 0-.105-.131-.105-.131s-.184.184-.342.184c-.157 0-.079-.158-.079-.158s-.157.341-.394.341c-.236.026-.289-.131-.289-.131s.026.315-.578.367c-.605.053-.92-.157-.92-.157s-.972.55-2.05-.105c-1.078-.656-.867-1.652-.736-2.176.184-.446.368-1.993.053-2.177ZM330.896 251.096c.526 0 1.446 2.517 1.761 4.615.289 2.097.578 3.828.578 3.828s.789.865 2.865.865 3.942.184 4.021.525c.105.34-1.156 2.045-3.548 3.251-2.392 1.206-3.706 1.888-3.706 1.888s-.184 1.94.237 3.015c.447 1.075 1.419 3.488 1.209 3.776-.184.289-2.917-1.075-4.652-2.229-1.735-1.153-2.812-2.412-3.259-2.412-.447 0-1.892.734-3.443 1.704-1.551.971-2.129 1.547-2.418 1.311-.289-.235-.053-3.382.683-5.48.736-2.097 1.157-3.251 1.157-3.251s-.92-2.229-2.287-3.147c-1.367-.917-2.576-1.704-2.129-1.992.447-.289 3.259-.866 5.388-.813 2.129.052 3.364.472 3.732.236.368-.236 1.787-2.098 2.392-3.304.604-1.206 1.419-2.386 1.419-2.386ZM55.64 284.267c-.078.472-1.997-.865-1.997-.865s-.341.445-.578.262c-.236-.184-.236-.629-.236-.629s-1.893-.105-1.867-.551c.027-.446.736-1.6.447-1.967s-1.524-.603-1.63-1.809c-.104-1.206.5-1.626.553-1.862.052-.236-.184-.393.026-.681.21-.289.447-.053.5-.21.052-.157.078-.498.341-.734s.63.052.736-.079c.105-.105.026-.393.42-.577.395-.183.526.105.631.053.105-.053.027-.394.42-.472.369-.079.447.262.579.236.131 0 .131-.341.604-.394.474-.026.447.394.579.367.131-.026.131-.445.552-.367.42.079.394.472.604.499.21.026.368-.341.71-.21.341.131.315.603.447.682.13.078.367-.132.71.078.367.236.21.551.34.656.132.078.421-.027.632.288.21.315.026.498.131.603.105.105.5-.026.63.262.132.289-.236.499-.104.63.105.131.368.052.473.419.105.367-.316.708-.237.866.079.157.5.026.526.445.026.394-.42.63-.316.735.106.104.316.052.237.393-.079.341-.42.288-.447.446-.026.131 0 1.153-.71 1.573-.71.446-2.47.105-2.785.262-.316.184-.868 1.311-.92 1.652Z" fill="#72645D"/><path d="m136.748 73.293-33.484 21.842 1.419-9.282-.973-11.354 14.876-9.151 8.779 6.293 9.383 1.652Z" fill="#DBAC73"/><path d="M158.275 126.757c2.891.865 3.417 8.758 3.417 8.758l-9.094-2.098c-.026.026 2.733-7.525 5.677-6.66ZM120.638 123.347c1.156 1.102 5.309 5.507 5.44 6.582.158 1.075-.368 3.356-1.656 3.88-1.287.525-5.098 1.757-6.991 2.151-1.918.419-3.39-1.862-2.497-7.211.894-5.349 4.6-6.477 5.704-5.402ZM139.403 130.296s-1.603-4.327-5.23-4.379c-3.601-.027-4.6 4.352-4.6 4.352l9.83.027ZM140.324 130.506s-.447-5.899 6.229-4.798 5.809 6.503 5.809 6.503l-12.038-1.705ZM136.039 140.024s-3.864 3.173-6.86 1.102c-2.996-2.046-1.262-6.792-1.262-6.792l8.122 5.69ZM136.933 140.339s-3.811 5.323 2.339 8.155c6.15 2.832 8.594-2.806 8.594-2.806l-10.933-5.349Z" fill="#FFA539"/><path d="M123.581 129.379c2.602-.158 19.554-.577 28.911 2.019 9.356 2.596 18.713 11.117 19.791 12.009 1.077.891 1.55 2.15 1.182 2.596-.341.446-.972.682-.972.682s.447.419-.053.629c-.499.21-4.783 1.888-11.801 1.337-7.017-.55-15.165-2.045-24.127-7.184-8.962-5.14-12.563-7.945-13.877-8.994-1.288-1.023-2.024-2.937.946-3.094Z" fill="#A5713D"/><path d="M156.198 143.853s-3.417.708-5.415 2.7c-1.997 1.993-1.892 3.802-.473 5.166 1.42 1.363 3.259.655 4.784-1.442a51.241 51.241 0 0 0 2.575-3.907s-1.971-1.285-1.471-2.517Z" fill="#FFA539"/><path d="M170.626 147.26s.184 1.128-.42 2.308c-.605 1.18-2.445 2.071-2.445 2.071s1.157-1.101 1.577-2.15c.421-1.049.237-2.229.237-2.229h1.051Z" fill="#A5713D"/><path d="M166.294 141.694c.154-.514.109-.981-.099-1.043-.209-.062-.503.304-.657.817-.153.514-.109.981.1 1.043.208.062.502-.304.656-.817ZM122.793 132.184c.184-.393 1.182-.944 1.866-1.023.683-.052 1.104-.262 1.708-.734.605-.472 1.314-.341 1.814-.446.499-.105 2.444-.786 2.549-.708.105.079-.053.761.263.735.315-.053 1.577-.027 1.787.288.21.288.342.629.604.629.263.027.841-.262 1.025-.052.184.21.184.498.184.498s.474-.105.71.184c.21.288-.052.472.053.655.105.184.893.42.867.761-.026.34-.605.367-.421.681.184.315.421.551.263.813-.157.262-.499.079-.394.367.105.289.289.498-.131 1.049-.421.577-.526.498-1.157 1.652s-.999 1.967-2.076 2.701c-1.078.734-2.865 1.285-3.496 1.285-.63 0-2.628-.603-3.39-.656-.762-.052-1.919-.236-2.234-.551-.316-.34-.447-.786-.789-.681-.341.078-.446.209-.604-.184-.158-.393.079-.734-.289-.786-.368-.053-.684.052-.631-.394.053-.472.447-.734.263-.891-.184-.158-.473-.158-.394-.577.078-.393.262-.892.499-1.101.21-.236.683-.263.631-.787-.053-.524-.184-.525.105-.865.289-.341 1.13-1.023 1.051-1.285-.079-.262-.342-.315-.236-.577Z" fill="#6B3425"/><path d="M111.964 135.356c.105-.132 1.051.681 1.682.943.631.263 1.288.472 1.288.472l.053.158s1.051.524 1.734.708a5.277 5.277 0 0 0 1.262.183s-.105-.157.289-.105c.394.053 2.865.394 3.206.341.342-.052.973.472.894.656-.079.183-.815.734-1.708.76-.894 0-2.366-.288-2.55-.393-.157-.105-1.288-.21-2.024-.498-.735-.263-1.051-.446-1.103-.551-.053-.105-1.025-.472-1.893-1.232-.867-.735-1.235-1.311-1.13-1.442ZM122.819 139.368s-3.049 1.154-3.469 1.285a99.91 99.91 0 0 0-3.075 1.128c-.105.052-.841.393-1.314.786-.474.393-.999.97-.947.997.027.052.395.445.789.209.394-.262 1.761-1.285 1.761-1.285s.315.158.92-.078c.604-.236 2.102-.892 2.102-.892s1.13-.131 2.077-.419c.946-.262 2.312-.997 2.312-.997l-1.156-.734ZM124.686 140.129l1.524.367-3.969 2.57s-1.918 1.992-1.918 2.097c0 .105.105 2.282-.079 2.439-.184.157-.657-1.049-.867-1.678-.184-.63.078-1.18.052-1.206-.026-.053.026-.499.71-1.259.683-.734 1.629-1.259 1.629-1.259s-.289 0 .605-.524c.893-.498 2.313-1.547 2.313-1.547Z" fill="#6B3425"/><path d="m126.497 140.915-.736.97s-1.13.603-1.471.813c-.342.21-.368.446-.368.446s-.316.079-.605.419c-.289.341-.368.971-.315 1.233.052.262 1.051 1.993 1.051 1.993s.683-.761.71-1.443c.026-.655-.158-1.127-.158-1.127l.131-.157 1.63-1.6s.604-.157 1.025-.446c.394-.288.788-.865.788-.865l-1.682-.236ZM133.49 138.188l1.472.367s1.025-.236 1.472-.289c.447-.079.709.053.709.053s.421-.184.92 0c.5.183.894.576 1.025 1.153.105.577.289 1.678.289 1.678s-.709.079-1.393-.576c-.683-.656-.683-1.049-.683-1.049l-.237-.079-2.155-.026s-.762.236-1.393.236c-.63 0-.893-.079-.893-.079l.867-1.389Z" fill="#6B3425"/><path d="M134.671 136.485s3.181-.446 3.312-.42c.132.026.21.184.21.184s1.42-.21 2.208-.105c.789.078 1.209.288 1.209.288l-.026.157s.368.158.709.682c.368.551.684 1.888.552 2.019-.131.131-.657-.708-.841-.944-.184-.236-.867-.813-.867-.813l-2.681-.367-4.678.708.893-1.389ZM135.329 134.857l3.837-1.494 2.944-1.075.026.078s.92-.367 1.498-.288c.579.079 1.262.183 1.262.183s-.105.604-.447.656c-.342.052-2.076.184-2.076.184s-.368.314-.841.498c-.473.183-2.208.76-2.208.76s-1.945 1.023-2.523 1.206c-.578.184-1.787.42-1.787.42l.315-1.128ZM135.409 132.629s1.13-1.022 1.524-1.468c.394-.446.762-1.18.841-1.18.079 0 .184.052.184.052s.631-.629.946-1.232c.316-.577.631-1.468.631-1.468l-.079-.21s.526-.708.736-1.364c.21-.681.368-1.547.499-1.547.132 0 .421.866.211 1.652-.184.787-.657 2.255-.657 2.255l.105.158s-.447.996-.736 1.547c-.289.55-.841 1.101-.841 1.101s-.473 1.206-1.314 1.862c-.841.655-2.024 1.022-2.024 1.022l-.026-1.18ZM134.172 131.16s.446-.918.262-1.548c-.21-.629-1.445-2.858-.42-3.723 1.025-.891 1.735-.341 1.997 0 .29.367.5 1.311.552 2.386.053 1.075-.289 1.809-.736 2.203-.42.393-.788 1.285-.788 1.285l-.867-.603Z" fill="#6B3425"/><path d="M127.84 122.324s1.366 0 2.102.131c.736.131 1.419.367 1.419.367s.526-.183 1.814.472c1.288.656 2.313 1.652 2.602 2.046.289.393.394.681.026 1.206-.394.524-1.997.918-2.812.891-.815-.026-1.262-.367-1.262-.367s-1.261-.393-2.05-.655c-.788-.263-2.155-.734-2.602-1.206-.446-.472-.21-.997-.21-.997l.605.629.262-.209.395.314.289-.052.157.157s.316-.105.474-.052c.157.052.289.157.289.157l.42.053-.342-.263s.106-.209-.026-.314c-.131-.131-.289-.184-.289-.184s.184-.131.131-.262c-.052-.131-.315-.262-.315-.262s.263-.105.184-.289c-.079-.183-.604-.341-.604-.341s.131-.262-.027-.472c-.079-.262-.63-.498-.63-.498ZM116.169 132.498c-.42-.656-.499-1.18 0-2.307.5-1.128 1.551-2.99 2.129-3.199.579-.236.868-.236.868-.236s1.235-.708 1.813-1.023c.578-.315 1.393-.525 1.393-.525s-.499.551-.526.787c0 .236.132.577.132.577s-.421.367-.368.577c.052.183.315.21.315.21s-.368.288-.289.472c.079.209.237.314.237.314s-.263.262-.211.498c.053.263.29.446.29.446s-.027-.262.236-.314a.753.753 0 0 1 .394.052l.105-.341.263.079.289-.577.342.183.394-.917s.447.314.263.917c-.184.604-.604.866-1.577 1.888-.972 1.023-1.734 1.705-1.997 1.836-.263.131-.5.183-.5.183s-2.97 1.993-3.995.42Z" fill="#6B3425"/><path d="M116.511 131.397c.868-.105 1.656.603 1.998 1.18.368.576.525 1.311.972 1.861.447.551 1.998 1.442 1.998 1.442l-.316.944s-1.156-.812-1.577-.839c-.42-.026-1.13.105-1.892-.367s-2.181-2.229-2.103-2.91c.079-.682.447-1.233.92-1.311Z" fill="#6B3425"/><path d="M123.709 132.143c.218-.08.281-.453.141-.834-.141-.38-.431-.624-.649-.544-.218.08-.281.453-.141.834.141.381.431.624.649.544ZM130.016 129.804c.232-.085.294-.495.138-.917-.155-.421-.469-.694-.701-.609-.231.085-.293.496-.137.917.155.422.469.694.7.609Z" fill="#000"/><path d="M153.781 105.91c2.864-.892 7.7 5.375 7.7 5.375l-8.726 3.304c0 .026-1.892-7.762 1.026-8.679ZM120.585 123.951c1.577.288 7.49 1.651 8.2 2.464.71.813 1.551 2.99.788 4.143-.788 1.154-3.259 4.274-4.599 5.69-1.367 1.416-3.864.341-6.098-4.615-2.26-4.955.211-7.945 1.709-7.682ZM140.061 119.308s-3.759-2.701-6.781-.734c-3.023 1.966-1.393 6.162-1.393 6.162l8.174-5.428ZM140.953 118.994s-3.653-4.667 2.497-7.447c6.15-2.779 8.437 2.203 8.437 2.203l-10.934 5.244ZM142.688 129.272s-1.445 4.772-5.072 4.72c-3.627-.053-4.836-4.956-4.836-4.956l9.908.236ZM143.608 129.037s-.184 6.53 6.492 5.481c6.702-1.049 5.571-7.08 5.571-7.08l-12.063 1.599Z" fill="#FFA539"/><path d="M126.392 127.332c2.077-1.573 15.928-11.327 25.153-14.369 9.225-3.041 21.762-1.127 23.155-.996 1.393.131 2.47.918 2.444 1.494-.026.577-.421 1.128-.421 1.128s.605.105.316.551c-.289.445-2.944 4.221-9.068 7.656-6.15 3.435-13.745 6.713-24.048 7.421-10.303.708-14.876.341-16.532.236-1.708-.158-3.364-1.338-.999-3.121Z" fill="#A5713D"/><path d="M161.586 121.275s-2.444 2.491-2.996 5.244c-.552 2.753.552 4.195 2.497 4.536 1.945.341 3.075-1.284 3.18-3.854.105-2.57-.026-4.694-.026-4.694s-2.392.053-2.655-1.232Z" fill="#FFA539"/><path d="M175.489 116.11s.788.839.946 2.15c.158 1.311-.867 3.094-.867 3.094s.342-1.547.131-2.674c-.21-1.102-1.051-1.993-1.051-1.993l.841-.577Z" fill="#A5713D"/><path d="M168.678 114.922c.208-.064.248-.531.09-1.044-.159-.512-.456-.875-.664-.811-.208.064-.248.531-.089 1.043.158.513.455.876.663.812ZM132.123 116.189c.184-.394 1.183-.944 1.866-1.023.683-.052 1.104-.262 1.708-.734.605-.472 1.314-.341 1.814-.446.499-.105 2.444-.786 2.549-.708.105.079-.052.761.263.734.315-.052 1.577-.026 1.787.289.21.315.342.629.605.629.263 0 .841-.262 1.025-.052.184.236.184.498.184.498s.473-.105.709.184c.211.288-.052.471.053.655.105.184.894.42.867.76-.026.341-.604.368-.42.682.184.315.42.551.263.813-.158.262-.5.079-.395.367.105.289.289.498-.131 1.049-.421.577-.526.498-1.157 1.652-.63 1.154-.998 1.966-2.076 2.701-1.077.734-2.865 1.285-3.495 1.285-.631 0-2.629-.604-3.391-.656-.762-.052-1.918-.236-2.234-.551-.315-.341-.447-.786-.788-.681-.342.078-.447.209-.605-.184-.158-.393.079-.734-.289-.787-.368-.052-.683.053-.631-.393.053-.472.447-.734.263-.891-.184-.158-.473-.158-.394-.577.079-.42.263-.892.499-1.102.21-.236.684-.262.631-.786-.053-.551-.184-.525.105-.865.289-.341 1.13-1.023 1.051-1.285-.078-.263-.341-.289-.236-.577Z" fill="#6B3425"/><path d="M121.295 119.36c.105-.131 1.052.682 1.682.944.631.263 1.288.472 1.288.472l.053.158s1.051.524 1.734.708c.657.183 1.262.183 1.262.183s-.105-.157.289-.105c.394.053 2.865.394 3.207.341.341-.052.972.472.893.656-.079.183-.815.734-1.708.76-.894 0-2.366-.288-2.55-.393-.157-.105-1.287-.21-2.023-.498-.736-.263-1.052-.446-1.104-.551-.053-.105-1.025-.472-1.893-1.232-.893-.708-1.235-1.311-1.13-1.443ZM132.149 123.398s-3.049 1.154-3.469 1.285a99.91 99.91 0 0 0-3.075 1.128c-.105.052-.841.393-1.314.786-.473.394-.999.971-.946.997.052.026.394.446.788.21.394-.236 1.761-1.285 1.761-1.285s.315.157.92-.079c.604-.236 2.102-.891 2.102-.891s1.131-.132 2.077-.42c.946-.262 2.313-.996 2.313-.996l-1.157-.735ZM134.016 124.159l1.524.367-3.968 2.57s-1.919 1.993-1.919 2.098c0 .105.105 2.281-.079 2.438-.157.158-.657-1.049-.867-1.678-.184-.629.079-1.18.053-1.206-.027-.026.026-.498.709-1.259.683-.76 1.63-1.258 1.63-1.258s-.289 0 .604-.525c.894-.524 2.313-1.547 2.313-1.547Z" fill="#6B3425"/><path d="m135.804 124.92-.736.97s-1.13.603-1.472.813c-.341.21-.368.446-.368.446s-.315.078-.604.419c-.289.341-.368.97-.315 1.233.052.262 1.051 1.992 1.051 1.992s.683-.76.71-1.442a3.062 3.062 0 0 0-.158-1.127l.131-.158 1.63-1.599s.604-.157 1.025-.446c.394-.288.788-.865.788-.865l-1.682-.236ZM142.82 122.192l1.472.367s1.025-.236 1.472-.288c.447-.079.71.052.71.052s.42-.183.919 0c.5.184.894.577 1.025 1.154.106.577.29 1.678.29 1.678s-.71.079-1.393-.577c-.684-.655-.684-1.048-.684-1.048l-.236-.079-2.155-.026s-.763.236-1.393.236c-.631 0-.894-.079-.894-.079l.867-1.39Z" fill="#6B3425"/><path d="M144.004 120.489s3.18-.445 3.311-.419c.132.052.211.184.211.184s1.419-.21 2.207-.105c.789.078 1.209.288 1.209.288l-.026.157s.368.158.71.682c.368.551.683 1.888.552 2.019-.132.131-.657-.708-.841-.944-.184-.236-.868-.813-.868-.813l-2.68-.367-4.679.708.894-1.39ZM144.659 118.89l3.838-1.495 2.943-1.075.027.079s.919-.367 1.498-.289c.578.079 1.261.184 1.261.184s-.105.603-.447.655c-.341.053-2.076.184-2.076.184s-.368.314-.841.498c-.447.184-2.208.76-2.208.76s-1.945 1.023-2.523 1.207c-.578.183-1.787.419-1.787.419l.315-1.127ZM144.739 116.634s1.13-1.022 1.524-1.468c.395-.446.763-1.18.841-1.18.079 0 .184.052.184.052s.631-.629.947-1.232c.315-.577.63-1.468.63-1.468l-.079-.21s.526-.708.736-1.364c.211-.681.368-1.547.5-1.547.131 0 .42.866.21 1.652-.184.787-.657 2.255-.657 2.255l.105.158s-.447.996-.736 1.547c-.289.55-.841 1.101-.841 1.101s-.473 1.206-1.314 1.862c-.867.655-2.024 1.022-2.024 1.022l-.026-1.18ZM143.479 115.164s.446-.917.262-1.547c-.21-.629-1.445-2.858-.42-3.723 1.025-.892 1.735-.341 1.997 0 .289.367.5 1.311.552 2.386.053 1.075-.289 1.809-.736 2.203-.42.393-.788 1.284-.788 1.284l-.867-.603Z" fill="#6B3425"/><path d="M137.145 106.329s1.367 0 2.102.131c.736.131 1.42.367 1.42.367s.525-.183 1.813.472c1.288.656 2.313 1.652 2.602 2.046.289.393.394.681.026 1.206-.394.524-1.997.917-2.812.891-.814-.026-1.261-.367-1.261-.367s-1.262-.393-2.05-.655c-.789-.263-2.156-.735-2.602-1.207-.421-.445-.211-.996-.211-.996l.605.629.263-.209.394.314.289-.052.158.157s.315-.105.473-.052c.158.052.289.157.289.157l.421.052-.342-.262s.105-.21-.026-.314a.823.823 0 0 0-.29-.184s.184-.131.132-.262c-.053-.131-.316-.262-.316-.262s.263-.105.184-.289c-.078-.183-.604-.341-.604-.341s.131-.262-.026-.472c-.158-.209-.631-.498-.631-.498ZM125.474 116.528c-.42-.655-.499-1.18 0-2.307.5-1.128 1.551-2.989 2.129-3.199.579-.21.868-.236.868-.236s1.235-.708 1.813-1.023c.578-.314 1.393-.524 1.393-.524s-.499.55-.526.786c-.026.236.132.577.132.577s-.421.367-.368.577c.052.184.315.21.315.21s-.368.288-.289.472a.7.7 0 0 0 .237.315s-.263.262-.211.498c.053.262.29.445.29.445s-.027-.262.236-.314a.766.766 0 0 1 .394.052l.106-.341.262.079.289-.577.342.184.394-.918s.447.315.263.918c-.184.577-.604.865-1.577 1.888-.972 1.022-1.734 1.704-1.997 1.835-.263.131-.5.184-.5.184s-2.943 1.992-3.995.419Z" fill="#6B3425"/><path d="M125.842 115.427c.867-.104 1.655.603 1.997 1.18.368.577.526 1.311.973 1.862.446.551 1.997 1.442 1.997 1.442l-.315.944s-1.157-.813-1.577-.839c-.421-.026-1.13.105-1.893-.367-.762-.472-2.181-2.229-2.102-2.911.079-.681.42-1.258.92-1.311Z" fill="#6B3425"/><path d="M133.033 116.146c.218-.08.281-.453.14-.834-.14-.381-.43-.624-.648-.544-.218.08-.281.453-.141.834.14.381.431.624.649.544ZM139.34 113.807c.232-.085.294-.495.138-.917-.155-.421-.469-.694-.701-.609-.231.085-.293.496-.138.917.156.422.47.694.701.609Z" fill="#000"/><path opacity=".6" d="M129.758 140.47h-11.144v11.118h11.144V140.47Z" fill="#fff"/><path opacity=".6" d="M136.093 138.109h-8.726v8.706h8.726v-8.706Z" fill="#fff"/><path opacity=".6" d="M142.925 143.59h-13.299v9.544h13.299v-9.544Z" fill="#fff"/><path opacity=".6" d="M146.369 139.682h-10.013v7.709h10.013v-7.709Z" fill="#fff"/><path opacity=".6" d="M153.49 140.47h-13.535v11.957h13.535V140.47Z" fill="#fff"/><path opacity=".6" d="M156.251 136.064h-8.726v11.196h8.726v-11.196Z" fill="#fff"/><path opacity=".6" d="M161.665 140.339h-11.354v11.327h11.354v-11.327Z" fill="#fff"/><path opacity=".6" d="M165.922 136.064h-9.672v9.649h9.672v-9.649Z" fill="#fff"/><path opacity=".6" d="M165.923 143.537h-8.095v8.076h8.095v-8.076Z" fill="#fff"/><path d="M165.266 123.085v23.756c0 1.023-.552 1.862-1.262 1.862-.683 0-1.261-.839-1.261-1.862v-23.783l-3.627-.052v27.165c0 1.023-.552 1.862-1.262 1.862-.683 0-1.261-.839-1.261-1.862v-27.217l-3.391-.053v27.244c0 1.022-.552 1.862-1.261 1.862-.684 0-1.262-.84-1.262-1.862v-27.27l-3.837-.053v27.349c0 1.023-.552 1.862-1.262 1.862-.683 0-1.261-.839-1.261-1.862V122.77l-3.627-.052v27.453c0 1.023-.552 1.862-1.262 1.862-.683 0-1.261-.839-1.261-1.862v-27.48l-3.391-.052v27.532c0 1.023-.552 1.862-1.261 1.862-.684 0-1.262-.839-1.262-1.862v-27.585l-3.837-.052v27.611c0 1.022-.552 1.862-1.262 1.862-.683 0-1.261-.84-1.261-1.862v-27.637l-4.179-.053v24.386c0 1.023-.552 1.862-1.262 1.862-.683 0-1.261-.839-1.261-1.862v-24.438l-9.856-.157 7.306 31.308c.736 3.067 2.681 5.139 4.863 5.139h43.55c2.207 0 4.179-2.124 4.888-5.244l6.676-30.181-11.354-.183Z" fill="#1E2E38"/><path d="M174.7 129.483h-64.707a4.929 4.929 0 1 1 0-9.859h64.733a4.93 4.93 0 0 1 4.942 4.93 4.97 4.97 0 0 1-4.968 4.929Z" fill="#1E2E38"/><path d="m111.91 140.784.079 14.893s17.846.21 19.002-.078c1.157-.289 6.913-4.851 7.517-5.087.605-.236 1.183 0 .946.681-.236.708-1.13 2.885-1.13 2.885s4.363-.498 4.784-.734c.42-.236 3.022-2.255 3.548-2.439.525-.184 1.445.184 1.209.734-.237.577-2.707 3.75-2.707 3.75s.499 3.409-.789 4.667c-1.288 1.259-7.359 2.281-10.302 2.465-2.944.184-25.284 3.042-27.15 2.937-1.866-.079-4.6-.656-5.546-4.641-.946-3.986-1.235-19.273-1.235-19.273l11.774-.76Z" fill="#F69576"/></svg>