<svg width="375" height="307" fill="none" xmlns="http://www.w3.org/2000/svg"><path d="M169.732 53.542c18.161 3.442 52.381-66.81 90.281-51.309 37.899 15.5 10.04 65.443 23.549 76.635 13.509 11.192 50.515-23.25 66.074 12.926 15.559 36.176-8.095 74.927-8.437 80.944-.341 6.016 42.657 38.357 30.725 82.888-11.933 44.53-170.39 48.839-226.95 50.547-56.56 1.707-132.174 1.576-143.318-44.846-11.144-46.423 39.476-86.855 44.154-99.834 4.679-12.978-37.663-58.192 15.454-113.704 41.027-42.902 90.307 2.311 108.468 5.753Z" fill="#9ECBDD"/><path d="M308.346 166.853h-22.393v19.835h22.393v-19.835Z" fill="#749DC1"/><path d="M306.427 164.804h-15.875v6.2h15.875v-6.2Z" fill="#749DC1"/><path d="M299.41 162.833h-7.543v3.993h7.543v-3.993ZM304.088 151.589h-2.445v16.341h2.445v-16.341ZM283.009 166.222h-24.837v20.44h24.837v-20.44Z" fill="#749DC1"/><path d="M290.554 175.601h-12.721v11.087h12.721v-11.087ZM281.88 135.09h-20.553v31.736h20.553V135.09Z" fill="#749DC1"/><path d="M278.621 114.441h-14.14v23.198h14.14v-23.198Z" fill="#749DC1"/><path d="M277.123 81.995h-10.487v34.18h10.487v-34.18Z" fill="#749DC1"/><path d="M274.573 82.703h-5.493V63.577l2.786-2.863 2.707 2.864v19.125ZM221.429 121.272h-10.487v-19.756l5.257-3.652 5.23 3.652v19.756Z" fill="#749DC1"/><path d="M231.207 121.272H220.72v-19.756l5.257-3.652 5.23 3.652v19.756Z" fill="#749DC1"/><path d="M241.379 121.272h-10.487v-19.756l5.256-3.652 5.231 3.652v19.756Z" fill="#749DC1"/><path d="M241.377 116.174h-36.139v70.514h36.139v-70.514Z" fill="#749DC1"/><path d="M220.747 118.618h-17.925v68.071h17.925v-68.071ZM258.172 156.87h-22.025v29.819h22.025V156.87ZM199.747 136.326h-35.823v50.363h35.823v-50.363Z" fill="#749DC1"/><path d="M210.942 169.9h-20.553v16.788h20.553V169.9ZM195.884 64.077h-31.96v72.248h31.96V64.077Z" fill="#749DC1"/><path d="M193.65 74.454h-16.479v-13.74l16.479 1.629v12.111ZM174.304 46.58h-2.234v21.018h2.234V46.58ZM169.023 46.58h-2.234v21.018h2.234V46.58ZM156.984 124.712h-6.098v26.85h6.098v-26.85Z" fill="#749DC1"/><path d="M159.034 129.809h-20.763v28.899h20.763v-28.899Z" fill="#749DC1"/><path d="M166.761 148.515h-28.49v38.146h28.49v-38.146ZM148.654 120.037h-3.259v11.402h3.259v-11.402ZM132.384 185.559h-24.442V86.776l5.703-4.072 18.739 6.095v96.76Z" fill="#749DC1"/><path d="M134.829 90.323h-28.096v96.339h28.096V90.323Z" fill="#749DC1"/><path d="M143.37 181.144h-20.159v5.543h20.159v-5.543ZM96.534 139.373H70.488v46.186h26.046v-46.186Z" fill="#749DC1"/><path d="M110.99 161.493H88.807v25.169h22.183v-25.169ZM67.623 174.079h-7.727v12.584h7.727v-12.584Z" fill="#749DC1"/><path d="M78.637 182.301H56.034v4.387h22.603v-4.387ZM89.492 144.258H77.744v-6.883l5.887-3.258 5.861 3.258v6.883ZM95.063 122.375h-3.075v17.969h3.075v-17.969ZM75.114 122.61H72.09v17.918h3.023V122.61Z" fill="#749DC1"/><path d="M121.516 186.237h4.704v-2.706h-4.704v2.706Z" fill="#6B3425"/><path d="M116.931 177.414h-5.966l1.761-7.487 4.231-1.577h-3.837l.447-1.918 6.807-.525-6.387-1.287.868-3.836 5.466-1.734s-2.996-.184-4.993-.289l2.733-11.638 4.468-.394-4.258-.473 5.599-23.881 3.311 14.081h-2.05l2.339 1.235 1.052 4.466h-3.811l4.021.972.368 1.55h-2.129l2.313.762 2.207 9.406-5.256 1.103 5.808 1.182 1.788 7.567h-5.467l6.019 2.338 1.839 7.802c-2.891.421-7.096 1.025-7.096 1.025l7.596 1.051 1.55 6.568h-28.753l.868-3.652 6.544-2.417Z" fill="#7EA21A"/><path d="M223.008 42.692s-1.367-3.494 1.735-3.888c-.316-2.785 2.707-6.962 7.963-5.175.894-3.022 5.914-8.355 9.383-1.866 6.65-3.704 7.596 1.63 6.702 2.575 5.151-1.235 4.258 3.441 3.364 3.967 6.834-1.944 5.888 4.361 5.888 4.361h-35.035v.026Z" fill="#fff"/><path d="M1.683 261.274c11.144 46.422 86.785 46.58 143.318 44.846 56.534-1.734 214.991-6.017 226.95-50.547 8.121-30.292-9.173-54.961-20.974-69.516H27.203c-15.06 19.126-32.537 46.002-25.52 75.217Z" fill="#3D3B38"/><path d="M12.588 207.128c-9.25 15.895-15.638 34.495-10.907 54.147 11.144 46.422 86.785 46.58 143.319 44.846 56.533-1.734 214.991-6.016 226.949-50.547 4.994-18.627.368-35.126-6.649-48.446H12.588Z" fill="#8A9995"/><path d="M352.922 188.529a98.76 98.76 0 0 0-1.971-2.444H27.203a155.56 155.56 0 0 1-1.919 2.444h327.638Z" fill="#fff"/><path d="M262.431 63.313s5.572-3.52 11.853.473c4.205 2.68 4.731 12.164 3.154 15.395-1.551 3.232-8.726 9.09-8.726 9.09s-26.86-19.493-6.281-24.958Z" fill="#A5713D"/><path d="m244.507 119.194-.079 13.898s-16.611.184-17.662-.079c-1.077-.263-6.439-4.519-6.991-4.755-.552-.237-1.078 0-.867.656.21.657 1.051 2.706 1.051 2.706s-4.074-.446-4.442-.683c-.368-.21-2.812-2.101-3.311-2.259-.5-.158-1.367.158-1.131.683.211.526 2.524 3.494 2.524 3.494s-.474 3.179.735 4.335c1.209 1.156 6.834 2.102 9.594 2.286 2.733.184 23.496 2.837 25.231 2.758 1.734-.079 4.258-.604 5.151-4.335.894-3.73 1.183-17.97 1.183-17.97l-10.986-.735Z" fill="#DD866F"/><path d="M276.098 250.317v21.859h18.24s2.602-4.362 0-5.57c-2.602-1.182-11.065-5.359-11.065-5.359l.316-10.93h-7.491Z" fill="#F69576"/><path d="M276.098 261.247v10.929h18.24s2.602-4.361 0-5.57c-2.602-1.182-11.065-5.359-11.065-5.359h-7.175Z" fill="#032240"/><path d="M276.098 269.97v2.207h18.24s.605-1.025.946-2.207h-19.186Z" fill="#BFBFBF"/><path d="m261.092 250.318.158 10.929s-9.541 1.787-12.09 2.575c-3.049.946-6.597 1.787-7.097 4.755-.42 2.575 0 3.573 0 3.573h29.568l-3.206-21.858h-7.333v.026Z" fill="#F69576"/><path d="M261.25 261.247s-9.541 1.787-12.09 2.575c-3.049.946-6.597 1.787-7.097 4.755-.42 2.575 0 3.573 0 3.573h29.568l-1.13-10.929h-9.251v.026Z" fill="#BFBFBF"/><path d="M242.062 268.603a16.68 16.68 0 0 0-.158 1.366h29.515l-.92-8.722h-9.251s-9.541 1.786-12.09 2.574c-3.049.946-6.597 1.787-7.096 4.782Z" fill="#032240"/><path d="M247.791 151.298s-1.025 10.772 0 28.689c1.025 17.944 5.388 35.099 5.888 37.149.525 2.049 6.912 36.386 6.912 36.386h9.987s-5.65-46.37-6.15-60.451c-.499-14.082 1.787-40.485 1.787-40.485l-18.424-1.288ZM284.455 152.56h-21.262s-1.656 42.586 0 44.583c1.656 1.97 6.676 9.983 7.438 16.131.762 6.148 2.838 40.222 2.838 40.222h11.013V152.56h-.027Z" fill="#254B6B"/><path d="M268.634 95.262c-10.592-.237-14.008 1.366-16.242 6.331-2.234 4.966-7.859 48.498-8.385 57.378-.525 8.88 1.209 14.187 13.326 14.187 12.116 0 28.7-9.905 28.7-9.905s.684 3.074 1.209 4.966c.526 1.891 5.651 3.941 5.651.683s-2.234-54.147-2.576-62.685c-.315-8.565-13.64-10.771-21.683-10.955Z" fill="#000"/><path d="M257.359 98.177c-4.179-1.104-8.043-1.025-11.118 5.123-3.075 6.147-5.467 25.273-5.467 25.273l14.193 5.623s13.509-33.129 2.392-36.02Z" fill="#000"/><path d="M264.98 94.394c3.732 0 8.147.342 10.46 1.84 2.812 1.812 2.76 8.537-9.593 9.089-12.353.552-11.932-5.202-10.697-6.883 1.84-2.496 6.991-4.046 9.83-4.046Z" fill="#F69576"/><path d="m260.196 86.67-2.391 15.449h14.56s-.71-6.148-1.524-10.115c-.815-3.967-1.525-5.333-1.525-5.333h-9.12Z" fill="#F69576"/><path d="M266.531 90.874s.131 2.838-1.761 4.099c-1.893 1.235-6.072 1.26-6.072 1.26l1.472-9.562h6.15s.447 2.39.211 4.203Z" fill="#DD866F"/><path d="M258.12 67.965s-1.839 1.524-2.654 4.887c-.605 2.574-.473 5.359-.815 6.935-.315 1.55-.841 4.046-.394 6.2.447 2.155 2.365 5.124 5.94 6.122 3.574.998 6.491.289 8.463-2.207 1.971-2.496 4.415-6.936 5.125-10.01.709-3.073 1.13-8.932-2.155-11.507-4.206-3.284-9.226-3.31-13.51-.42Z" fill="#F69576"/><path d="M264.585 85.357s-.342 2.102-1.577 2.549c-1.235.446-2.523.157-3.075-.552-.578-.71-.867-2.023-.867-2.023l5.519.026Z" fill="#fff"/><path d="M261.432 83.046c-.394-.08-.394-.447-.394-.684v-.052l-.052.052c-.132.105-.368.263-.631.027a.515.515 0 0 1-.132-.447c.027-.42.29-.973.526-1.157.053-.026.132-.026.158.027.026.052.026.131-.026.157-.184.132-.421.605-.421.973 0 .131.026.236.053.263.105.105.157.078.315-.053.079-.052.158-.105.237-.131.052 0 .105 0 .131.052.079.053.079.158.053.29 0 .262.026.394.183.42.079 0 .132 0 .158-.026.079-.053.079-.21.079-.342 0-.105 0-.158.026-.21.027-.053.079-.105.158-.105.105 0 .237.078.421.262.026.027.078.08.131.053.079-.026.158-.105.21-.316.053-.289-.21-.867-.315-1.05-.026-.053 0-.132.052-.159.053-.026.132 0 .158.053.053.079.447.788.342 1.235-.053.263-.184.447-.394.5a.394.394 0 0 1-.395-.132c-.105-.105-.157-.157-.184-.157v.078c0 .158-.026.395-.157.5a.426.426 0 0 1-.237.079h-.053Z" fill="#6B3425"/><path d="M279.251 77.633c-1.103-2.732-9.146-.262-7.648 4.782 1.525 5.175 9.278-.736 7.648-4.782Z" fill="#F69576"/><path d="M273.102 83.046c.026 0 .052 0 .079-.026.052-.053.052-.132 0-.158-.342-.368-.394-1.497.026-2.627.289-.788 1.051-2.154 2.786-2.364.92-.106 1.577.052 1.945.472.552.63.289 1.656.289 1.656-.026.052.026.13.079.157.052.026.131-.026.158-.079 0-.052.289-1.156-.342-1.865-.421-.5-1.157-.657-2.155-.552-1.367.158-2.445 1.078-2.97 2.522-.421 1.13-.394 2.391.026 2.864h.079Z" fill="#6B3425"/><path d="M275.992 82.6c.053 0 .079-.027.105-.08.026-.105.946-2.311-.394-4.78-.026-.053-.105-.08-.158-.053-.052.026-.079.105-.052.157 1.287 2.365.394 4.545.394 4.572-.026.052 0 .13.052.157.027.026.027.026.053.026ZM265.427 80.708c.246 0 .446-.4.446-.894 0-.493-.2-.894-.446-.894-.247 0-.447.4-.447.894s.2.894.447.894ZM267.476 77.476c-.341-.29-1.051-.657-1.787-.736-.815-.08-1.261.289-1.577.368-.315.078-.368-.368-.184-.736s.841-.657 1.945-.631c1.104.052 1.708.526 1.998.867.315.316.078 1.262-.395.868ZM258.646 80.472c.247 0 .447-.4.447-.894 0-.493-.2-.893-.447-.893s-.447.4-.447.893c0 .494.2.894.447.894ZM260.276 77.134c-.342-.29-1.052-.657-1.788-.736-.814-.079-1.261.289-1.576.368-.316.079-.368-.368-.184-.736.157-.368.841-.657 1.944-.63 1.104.052 1.709.525 1.998.866.289.342.079 1.262-.394.868ZM257.41 87.933l.551.131s1.078 2.128 1.972 2.522c.893.394 3.837.263 4.152 0 .316-.263 1.341-2.6 1.341-2.6l.683.157s-1.051 3.389-1.209 3.678c-.105.184-2.05 1.524-2.812 1.576-.762.053-3.364-1.366-3.496-1.681-.394-.946-1.182-3.783-1.182-3.783Z" fill="#6B3425"/><path d="m260.75 89.272 1.314-.053.052 2.287-.998.184-.368-2.418Z" fill="#6B3425"/><path d="m272.84 125.894-.079 13.897s-16.61.184-17.662-.078c-1.077-.263-6.439-4.519-6.991-4.756-.552-.236-1.077 0-.867.657.21.657 1.051 2.706 1.051 2.706s-4.074-.446-4.442-.683c-.368-.236-2.812-2.102-3.311-2.259-.5-.158-1.367.157-1.13.683.21.525 2.523 3.494 2.523 3.494s-.473 3.179.736 4.335c1.209 1.156 6.833 2.102 9.593 2.285 2.76.184 23.496 2.838 25.231 2.759 1.735-.079 4.258-.604 5.151-4.335.894-3.73 1.183-17.97 1.183-17.97l-10.986-.735Z" fill="#F69576"/><path opacity=".4" d="m286.637 107.477-3.285 18.548 5.887 1.76-2.602-20.308Z" fill="#254B6B"/><path d="M272.34 64.76s-3.049 5.516-11.538 6.015c-17.688 1.025-9.567-8.88-9.567-8.88s-.63 2.628 2.418 2.759c4.153.184 10.172-12.453 18.687.105Z" fill="#A5713D"/><path d="m111.201 251.897-.184 11.192s9.804 1.839 12.406 2.653c3.127.972 6.754 1.839 7.28 4.887.447 2.627 0 3.678 0 3.678h-30.304l3.285-22.41h7.517Z" fill="#000"/><path d="M111.043 263.087s9.804 1.839 12.406 2.654c3.127.972 6.754 1.839 7.28 4.886.447 2.628 0 3.678 0 3.678h-30.33l1.156-11.191h9.488v-.027Z" fill="#000"/><path d="M130.704 270.627c.079.525.132.998.158 1.419h-30.225l.946-8.933h9.462s9.803 1.839 12.405 2.654c3.128.946 6.755 1.812 7.254 4.86Z" fill="#000"/><path d="m96.983 252.946-.184 11.192s9.803 1.839 12.405 2.653c3.128.972 6.754 1.839 7.28 4.887.447 2.627 0 3.678 0 3.678H86.18l3.286-22.41h7.517Z" fill="#000"/><path d="M96.825 264.139s9.803 1.839 12.405 2.653c3.128.972 6.755 1.839 7.28 4.887.447 2.627 0 3.678 0 3.678H86.18l1.157-11.192h9.488v-.026Z" fill="#000"/><path d="M116.485 271.678c.079.525.132.998.158 1.419H86.418l.946-8.933h9.462s9.803 1.839 12.405 2.654c3.128.919 6.755 1.786 7.254 4.86Z" fill="#000"/><path d="M109.835 60.216s-5.703-3.625-12.143.5c-4.31 2.758-4.836 12.479-3.232 15.789 1.603 3.31 8.936 9.326 8.936 9.326s27.544-20.045 6.439-25.615Z" fill="#DBAC73"/><path d="m128.206 117.463.079 14.239s17.005.184 18.109-.079c1.104-.262 6.597-4.623 7.175-4.86.578-.236 1.104 0 .894.657-.211.657-1.078 2.758-1.078 2.758s4.179-.472 4.547-.683c.368-.21 2.865-2.154 3.39-2.312.526-.157 1.393.184 1.157.71-.237.552-2.576 3.573-2.576 3.573s.473 3.258-.762 4.44c-1.235 1.208-7.017 2.154-9.83 2.364-2.812.184-24.101 2.89-25.862 2.811-1.761-.078-4.363-.63-5.282-4.44-.92-3.809-1.209-18.416-1.209-18.416l11.248-.762Z" fill="#DD866F"/><path d="M124.842 150.381s1.051 11.034 0 29.424c-1.052 18.391-5.52 35.993-6.045 38.095-.526 2.101-7.097 37.306-7.097 37.306h-10.25s5.782-47.526 6.308-61.976c.526-14.449-1.84-41.483-1.84-41.483l18.924-1.366Z" fill="#000"/><path d="M87.285 151.695h21.814s1.682 43.664 0 45.687c-1.682 2.023-6.833 10.246-7.622 16.551-.788 6.306-2.917 41.221-2.917 41.221H87.285V151.695Z" fill="#000"/><path d="M113.646 93.948c4.284-1.13 7.175.5 10.25 6.857 2.812 5.806 4.941 15.869 5.94 22.305 1.34 8.539 14.061 7.146 14.061 7.146l-.789 11.008s-27.807 3.048-29.541-2.601c-3.154-10.298-7.254-42.797.079-44.715Z" fill="#EAEAEA"/><path d="M103.475 92.95c10.854-.236 14.35 1.393 16.637 6.49 2.286 5.07 8.647 59.506 9.172 68.596 0 0-3.574 2.969-16.032 2.969s-29.594-1.708-29.594-1.708c0-3.337-2.812-56.38-2.47-65.128.34-8.749 14.06-11.034 22.287-11.218Z" fill="#fff"/><path d="M107.208 92.058c-3.838 0-8.358.368-10.724 1.892-2.864 1.839 15.008 11.533 15.008 11.533s7.043-7.514 5.756-9.274c-1.84-2.548-7.097-4.15-10.04-4.15Z" fill="#F69576"/><path d="m112.122 84.15 2.471 15.816-14.929-3.284s.736-2.995 1.577-7.067 1.551-5.465 1.551-5.465h9.33Z" fill="#F69576"/><path d="M105.63 88.46s-.131 2.916 1.814 4.177c1.919 1.26 6.203 1.287 6.203 1.287l-1.525-9.8h-6.308c.027.027-.42 2.47-.184 4.335Z" fill="#DD866F"/><path d="M114.252 64.946s1.892 1.55 2.707 5.018c.631 2.653.499 5.517.815 7.12.341 1.602.867 4.15.42 6.357s-2.418 5.254-6.071 6.28c-3.653 1.024-6.65.288-8.673-2.26-2.024-2.549-4.521-7.12-5.257-10.273-.736-3.152-1.235-9.247 2.208-11.796 2.76-2.023 5.177 1.892 8.91.736 2.05-.604 2.97-2.496 4.941-1.182Z" fill="#F69576"/><path d="M107.627 82.784s.342 2.154 1.63 2.6c1.261.447 2.576.158 3.154-.551.578-.71.893-2.076.893-2.076l-5.677.027Z" fill="#fff"/><path d="M110.756 80.42a.445.445 0 0 1-.263-.079c-.158-.131-.158-.368-.184-.525v-.08c-.026.027-.105.08-.184.185a.457.457 0 0 1-.394.131c-.184-.053-.342-.237-.395-.5-.078-.446.316-1.182.368-1.26.027-.053.106-.08.158-.053.053.026.079.105.053.157-.105.21-.395.789-.342 1.078.053.21.131.289.21.315.079.026.105-.026.158-.052.184-.21.315-.29.42-.263.079 0 .132.052.158.105.026.053.026.131.026.21 0 .105 0 .29.079.342.027.026.079.026.158.026.158-.026.184-.158.184-.447 0-.131 0-.236.053-.315a.198.198 0 0 1 .131-.053c.105 0 .184.08.263.132.157.105.21.157.315.052.053-.052.079-.131.053-.263-.027-.367-.263-.867-.447-.998-.053-.053-.079-.105-.026-.184.052-.053.105-.079.184-.026.262.183.525.762.552 1.182 0 .21-.027.368-.132.473-.263.237-.499.08-.631-.026l-.052-.052v.052c0 .21.026.63-.394.683-.027.053-.053.053-.079.053Z" fill="#6B3425"/><path d="M92.594 74.877c1.13-2.811 9.383-.263 7.858 4.913-1.577 5.306-9.54-.762-7.858-4.913Z" fill="#F69576"/><path d="M98.902 80.42c-.026 0-.052 0-.079-.026a.127.127 0 0 1 0-.184c.342-.368.421-1.55-.026-2.706-.289-.815-1.077-2.207-2.838-2.417-.947-.106-1.63.052-1.998.472-.552.631-.289 1.682-.289 1.682.026.079-.026.131-.079.157-.052.027-.131-.026-.157-.078 0-.053-.316-1.182.341-1.918.447-.5 1.183-.683 2.208-.552 1.393.184 2.497 1.104 3.049 2.575.42 1.156.42 2.47-.027 2.942-.052.053-.078.053-.105.053Z" fill="#6B3425"/><path d="M95.93 79.974c-.052 0-.104-.026-.104-.079-.053-.105-.946-2.364.394-4.913.026-.052.105-.079.158-.052.052.026.079.105.052.157-1.314 2.444-.394 4.677-.394 4.703.026.053 0 .131-.079.158 0 .026 0 .026-.026.026ZM106.76 78.004c.246 0 .446-.4.446-.894 0-.493-.2-.893-.446-.893-.247 0-.447.4-.447.893 0 .494.2.894.447.894Z" fill="#6B3425"/><path d="M104.657 74.72c.368-.29 1.078-.684 1.84-.763.815-.079 1.288.29 1.63.368.341.079.367-.368.183-.762-.183-.395-.867-.684-1.997-.631-1.13.052-1.735.552-2.05.894-.315.341-.079 1.287.394.893Z" fill="#A5713D"/><path d="M113.725 77.766c.246 0 .446-.4.446-.893 0-.494-.2-.894-.446-.894-.247 0-.447.4-.447.894 0 .493.2.893.447.893Z" fill="#6B3425"/><path d="M112.043 74.377c.368-.29 1.077-.683 1.839-.762.815-.08 1.288.289 1.63.368.342.078.368-.368.184-.763-.184-.394-.867-.683-1.998-.63-1.13.052-1.734.552-2.05.893-.315.342-.078 1.288.395.894Z" fill="#A5713D"/><path d="m85.025 105.457 14.219 31.684 16.558 2.89v9.484l-30.83 3.048.053-47.106ZM94.827 96.681l1.367 12.348 15.323-3.547s-13.983 1.314-13.825 1.34c.158.026-2.865-10.14-2.865-10.14Z" fill="#EAEAEA"/><path d="M113.042 110.946a.972.972 0 1 0 0-1.944.972.972 0 0 0 0 1.944ZM114.592 118.251a.973.973 0 1 0-.001-1.947.973.973 0 0 0 .001 1.947ZM115.8 126.501a.973.973 0 1 0 0-1.946.973.973 0 0 0 0 1.946Z" fill="#000"/><path d="M116.983 179.306c-.052 1.235-.262 6.752 0 8.985.263 2.233.71 4.545.71 4.545l-1.13-.841s-.158-2.811-.421-6.253c-.236-3.467-.315-5.569 0-6.436.316-.893.868-.526.841 0Z" fill="#3D211C"/><path d="M155.197 146.779c.946.447 2.076 1.866.473 4.046-1.63 2.181-5.204 3.153-5.204 3.153s.71-4.23 1.84-5.307c1.104-1.104 2.891-1.892 2.891-1.892ZM146.682 139.975s.972-2.285 3.758-3.231c2.813-.972 4.205-.079 5.204 0 .999.079-1.182 2.969-3.469 3.731-2.26.709-5.493-.5-5.493-.5Z" fill="#5F750E"/><path d="M154.83 101.566c1.077.92 8.41 10.115 9.724 12.479 1.314 2.365 5.388 11.691 6.965 14.45 1.577 2.758 3.548 4.466 3.548 4.466v2.364s-3.417-4.072-6.308-10.114c-2.891-6.043-3.811-9.721-6.308-12.611-2.496-2.89-6.702-9.326-7.621-10.114-.92-.789-.999-1.761 0-.92Z" fill="#3D211C"/><path d="M166.524 103.406c-.736 1.944-1.629 13.084-1.629 13.084l-.342-2.444s.394-8.013.999-9.983c.604-1.97 1.393-1.76.972-.657ZM172.962 108.527c.684-.972 1.315 6.91 1.577 9.747.263 2.864 1.183 15.868 1.315 21.123.131 5.254 1.051 17.602 1.051 24.958 0 7.356.131 21.543 0 22.725-.132 1.183-1.525 1.708-1.945 0-.421-1.707-.946-53.463-1.209-59.768-.263-6.306-1.446-17.865-.789-18.785Z" fill="#3D211C"/><path d="M189.652 122.583c1.104-.998 1.446-.263.92.657-.526.919-3.942 3.468-7.832 11.48-1.314 2.706-6.886 19.783-6.886 19.783v-2.496s3.285-10.771 5.651-16.682c2.365-5.911 6.833-11.56 8.147-12.742Z" fill="#3D211C"/><path d="M194.279 130.859c.631-.237.788.394 0 .657-.789.262-4.6 1.523-6.781 2.968s-7.491 5.964-7.491 5.964l.605-1.655s4.442-3.862 6.807-5.123c2.366-1.288 6.176-2.549 6.86-2.811ZM182.163 98.545c-.184.788-1.498 4.65-2.497 7.487-.999 2.838-2.313 8.223-3.207 10.456-.867 2.234-1.918 6.647-1.918 6.647l-.394-2.049s2.155-6.752 3.154-10.246c.998-3.494 3.495-11.56 3.889-12.295.395-.736 1.052-.42.973 0ZM149.572 129.756c.604.42 5.913 5.123 8.226 8.538 2.313 3.416 4.284 7.54 6.124 10.719 1.84 3.205 3.863 7.619 5.519 10.456 1.656 2.838 5.598 6.621 5.598 6.621v1.576s-3.075-3.1-5.256-6.042c-2.182-2.943-6.702-12.269-8.595-15.842-1.892-3.6-5.466-9.012-7.543-11.034-2.05-2.023-4.021-3.81-4.547-4.256-.499-.421-.131-1.156.474-.736Z" fill="#3D211C"/><path d="M150.047 146.675c1.182-.053 6.754.052 8.804.525 2.05.473 4.258 1.13 4.258 1.13l.473 1.156s-4.862-1.655-7.28-1.786c-2.418-.132-5.835-.132-6.255-.132-.421 0-.658-.867 0-.893Z" fill="#3D211C"/><path d="M159.56 187.161s10.172-3.678 16.296-3.337c6.123.342 14.192 3.337 14.192 3.337s2.287 5.963 3.338 10.325c1.051 4.387 2.549 12.085 1.445 16.104-1.103 4.02-5.834 5.438-9.172 6.305-3.338.867-18.214-.709-22.077 0-3.864.71-8.332-2.101-8.805-7.172-.473-5.07 4.783-25.562 4.783-25.562Z" fill="#6B3425"/><path d="M172.176 98.466s.71 4.283-2.024 5.333c-2.733 1.051-5.808 1.235-5.571 0 .236-1.234 2.26-3.494 3.837-4.545 1.55-1.05 3.758-.788 3.758-.788ZM189.074 101.96s-3.075 2.049-5.756 2.706c-2.68.657-3.968-1.13-3.311-2.075.657-.972 1.761-2.549 4.442-2.286 2.707.263 4.625 1.655 4.625 1.655ZM185.921 115.28s2.445 2.811 2.628 4.913c.184 2.102.027 5.832-1.13 6.227-1.156.394-3.101-2.549-2.943-5.176.157-2.627 1.445-5.964 1.445-5.964ZM189.074 133.591c.92-.447 3.785.762 5.756 1.734s3.023 3.678 3.023 3.678-2.287.263-4.994-1.235c-2.734-1.471-4.705-3.731-3.785-4.177ZM163.58 131.91s1.498-2.102 3.759-2.259c2.286-.184 5.466.683 5.414 1.576-.079.893-1.025 3.599-3.916 3.337-2.891-.263-5.257-2.654-5.257-2.654ZM169.889 147.595s1.761 2.968.526 4.807c-1.235 1.84-3.075 3.39-3.785 2.969-.709-.42-.42-3.231.368-4.991.789-1.734 2.891-2.785 2.891-2.785ZM154.777 129.125s-.868-3.784 1.708-5.439c2.55-1.655 5.493-1.576 5.493-1.576s-.315 4.729-2.681 6.226c-2.365 1.472-4.52.789-4.52.789ZM148.863 109.527s2.759-2.548 5.887-2.758c3.128-.211 4.494.078 4.888.578.395.499-.315 3.021-3.18 3.73-2.864.683-7.595-1.55-7.595-1.55Z" fill="#5F750E"/><path d="M178.748 126.945c1.446-.63.5-2.39 2.024-2.784 1.524-.368 3.285 1.261 4.547 2.784 1.261 1.524 1.13 2.391 2.523 2.654 1.393.262 2.024.735 2.655 2.522.63 1.76.262 3.573 1.261 4.203.999.605 2.155 1.288 2.024 3.1-.132 1.813-2.26 2.391-1.524 4.046.762 1.655.131 4.966-2.392 5.412-2.523.421-4.915-.578-6.177-1.839-1.261-1.261-.893-3.073-3.022-3.546-2.155-.473-4.783-.237-5.414-2.496-.631-2.26 1.892-3.915.893-5.36-.998-1.445-3.154-2.496-2.786-5.254.316-2.811 3.365-2.548 5.388-3.442ZM193.756 111.681c.63-3.074-.395-5.78 1.997-6.541 2.392-.762 7.57-.578 8.2 1.234.631 1.813-.63 2.575.763 4.02 1.392 1.445 3.784 3.363 4.152 6.752.368 3.389-.368 8.801-1.761 11.454-1.393 2.654-3.653 3.757-5.046 4.23-1.393.473-1.761 1.603-3.285 1.393-1.525-.211-3.916-2.391-4.416-3.626-.499-1.235 1.157-4.492-.631-6.463-1.787-1.97-3.679-3.31-3.548-6.988.158-3.704 3.312-4.177 3.575-5.465ZM211.68 136.534c2.444-2.259 2.786-4.939 5.677-4.414 2.891.526 3.916 2.575 4.783 4.02.868 1.445 2.655 1.97 3.286 3.284.631 1.314 1.393 3.704 0 4.913-1.393 1.208-3.417-.053-4.048 2.837-.631 2.89.762 6.568-.631 8.565-1.392 2.023-6.57 4.545-10.723 1.629-4.152-2.89-5.94-5.728-4.915-8.801.999-3.074 3.154-2.47 3.023-4.519-.132-2.076-.447-4.965.867-6.41 1.288-1.472 1.63-.158 2.681-1.104ZM184.294 163.018c1.84-2.338 2.654 1.523 4.284 1.392 1.629-.131 1.761-2.653 3.522-.946 1.761 1.708 3.154 2.969 2.523 4.099-.631 1.129-.578 1.629.158 2.207.736.578 2.129 1.077 1.498 2.6-.631 1.524-3.128 5.413-5.914 5.728-2.786.315-4.047-.316-4.31-2.444-.263-2.154.263-2.784-1.761-2.889-2.024-.132-2.655-.526-3.023-2.391-.368-1.865 2.524-1.13 2.891-2.89.368-1.76-.762-3.31.132-4.466Z" fill="#7EA21A"/><path d="M199.59 130.333c.71.027 1.34 4.178 1.603 12.243.263 8.066 1.525 55.881 1.525 55.881h-1.551l-1.577-68.124Z" fill="#3D211C"/><path d="M191.232 144.127c.999-.683 3.338 2.259 5.204 3.836 1.866 1.576 4.731 2.968 4.731 2.968v1.104s-4.127-2.365-6.387-4.335c-2.26-1.97-3.548-3.573-3.548-3.573ZM208.133 153.821s-1.682 2.654-3.311 7.12c-.999 2.732-2.129 6.332-2.891 8.722-.474 1.524-.789 2.549-.789 2.549s-.315-5.517 2.944-11.297c3.285-5.727 2.418-7.855 4.047-7.094ZM193.757 172.238l7.412 7.198v1.997l-7.412-8.197v-.998Z" fill="#3D211C"/><path d="M188.84 200.743s-.63-.761.5-2.259c1.13-1.524 23.601-1.629 24.364-.998.762.63-.631 1.76 0 2.391.63.63 4.047 10.482 3.916 16.787-.132 6.306-.263 9.957-7.07 10.982-6.807.998-15.533 1.891-20.448 0-4.915-1.892-6.045-2.154-6.045-8.46-.026-6.331 4.783-18.443 4.783-18.443Z" fill="#7C5349"/><path d="M157.379 122.716s-5.283-1.971-9.856-2.969c-.184-.026-.342-.079-.499-.105 1.734.026 3.521 0 4.941-.079 3.232-.184 5.519-.893 6.36-1.209-1.367.368-4.258-.578-8.831-.499 3.312-1.313 8.7-4.203 8.7-4.203s-4.127.315-8.201 1.576c3.259-2.233 7.176-6.305 7.176-6.305s-4.074 1.865-7.728 3.967c-.21.105-.42.236-.63.368 2.996-2.943 6.781-7.645 6.781-7.645s-3.181 2.049-6.781 4.939c-.552.446-1.104.945-1.682 1.497l.026-.026c2.786-3.888 6.308-9.878 6.308-9.878-.368 0-3.049 2.995-6.334 7.093a33.532 33.532 0 0 0-1.393 1.839c1.866-4.098 5.098-11.69 5.098-11.69s-3.521 3.966-5.861 8.721c-1.261 2.549-2.418 5.649-3.206 7.961 1.051-3.862 2.392-9.8 2.602-11.691.289-2.759.578-7.435.578-7.435s-1.419 4.492-1.918 6.252c-.263.946-.92 3.521-1.499 6.279-.315-4.728-.735-12.505-.735-12.505s-.894 6.253-.868 9.589c0 .499 0 1.156.027 1.892-1.209-4.913-3.154-11.665-3.154-11.665s-.29 5.149.736 9.905c.026.131.052.262.078.42-1.498-3.757-4.257-9.59-4.257-9.59s.998 5.387 1.971 9.38c-1.998-3.048-5.572-7.619-5.572-7.619s2.365 5.937 3.916 9.721c.079.157.158.341.237.525-2.97-3.048-8.595-8.171-8.595-8.171s3.285 5.018 5.414 8.197c-2.418-1.602-7.516-4.466-7.516-4.466s4.573 4.598 6.859 6.752c.815.762 2.366 1.97 4.048 3.179-5.178-2.26-12.747-5.202-12.747-5.202s5.099 3.599 8.226 5.254c.868.473 2.129 1.025 3.469 1.577a14.253 14.253 0 0 0-1.655-.263c-3.601-.289-10.434-.447-10.434-.447s7.7 1.971 11.17 2.811c-1.236-.026-2.392 0-3.259.106-3.47.499-7.202 1.628-7.202 1.628s8.384-.367 13.063-.578c-.579.158-1.157.316-1.788.552-4.205 1.576-8.095 5.307-8.095 5.307.184-.052 4.547-1.445 8.095-2.969l1.498-.63c-1.629 1.629-6.754 6.936-6.754 6.936s9.698-7.251 12.537-9.353c0 .236.105.105.368-.263 0 0 .026 0 .026-.026-.079.473-.237 18.942-.237 19.441 0 .473.841.368.841 0 0-.499-.236-16.709-.315-19.126.578.578 2.155 1.944 5.309 3.52 4.205 2.102 6.965 2.68 6.965 2.68s-3.548-2.627-6.203-4.124c-.21-.106-.42-.211-.631-.342.789.184 1.63.342 2.55.447 5.177.656 8.463.762 8.463.762ZM158.35 118.355a1.48 1.48 0 0 0 .368-.131c-.026-.026-.157.026-.368.131Z" fill="#512176"/><path d="M155.986 150.616h-27.465l-6.019-19.809h37.505l-4.021 19.809Z" fill="#7C5349"/><path d="M225.872 199.877c-.184-.656-.526-1.077-.526-1.077s.026.368-.105.946c-.079.342-.21.762-.473 1.235-.289.552-.815 1.025-1.393 1.419-.158.105-.342.21-.499.315-.237.157-.5.289-.736.394-.079.026-.158.079-.211.105-.131.079-.289.131-.394.184l-.158.079-.157.079-.316.157-.157.079c-.289.131-.552.236-.736.21-.027 0-.053 0-.079-.026-.053-.026-.105-.053-.131-.105-.027-.026-.027-.053-.053-.079a.667.667 0 0 1-.053-.263c0-.105 0-.21.027-.315.026-.105.052-.236.105-.342.131-.288.341-.604.631-.945.42-.447.998-.894 1.734-1.314.368-.21.736-.447 1.104-.709a3.06 3.06 0 0 0 .447-.368c.342-.289.657-.631.946-.998.079-.105.158-.211.237-.342.105-.158.21-.341.315-.525.026-.053.053-.132.105-.184.079-.184.158-.394.237-.604.052-.132.079-.289.131-.447.026-.158.079-.315.105-.473.026-.158.053-.315.053-.499.026-.421 0-.867-.053-1.288a3.64 3.64 0 0 0-.105-.525.787.787 0 0 1-.052-.263 24.902 24.902 0 0 0-.237-.735c-.053-.158-.105-.316-.184-.473-.053-.158-.131-.315-.184-.447-.026-.079-.079-.157-.105-.21-.105-.21-.21-.42-.289-.604-.421-.815-.789-1.34-.789-1.34s.053.079.132.236c.236.473.683 1.629.709 3.363 0 .71-.236 1.576-.604 2.47a5.623 5.623 0 0 1-.394.788c-.106.184-.211.341-.316.499-.105.158-.21.342-.341.499a8.986 8.986 0 0 1-1.577 1.708c-.211.184-.447.315-.657.447-.158.078-.29.157-.447.236a1.7 1.7 0 0 1-.473.158 1.855 1.855 0 0 1-.605.105c-.604.026-.815-.289-.815-.788.027-.789.684-2.023 1.131-2.812.841-1.366 2.969-4.308 3.259-6.935.026-.158.026-.316.026-.473-.026-1.524-.894-2.838-1.551-3.626-.079-.079-.131-.157-.184-.236-.052-.079-.131-.132-.184-.184l-.289-.289s.053.131.105.368c.027.052.027.131.053.184.079.236.158.551.263.893.131.499.262 1.077.394 1.681 0 .053.026.132.026.184l.079.552c0 .052.026.131.026.184.027.289.027.63 0 .998-.026.158-.026.289-.052.447 0 .079-.027.157-.027.236-.315 1.865-1.235 4.125-1.813 5.097-.736 1.314-1.682 1.182-1.84-.053v-.131c0-.394.21-1.103.473-1.97.027-.053.027-.105.053-.158.158-.447.315-.92.499-1.419a.488.488 0 0 0 .053-.184c.131-.367.263-.761.394-1.156.053-.131.079-.262.131-.394.237-.709.474-1.418.657-2.049.106-.341.184-.683.237-.972a5.44 5.44 0 0 0 .158-1.156v-.184a2.556 2.556 0 0 0-.421-1.103c-.026-.053-.052-.079-.105-.132-.105-.131-.21-.262-.315-.367a4.16 4.16 0 0 0-1.157-.867.764.764 0 0 0-.21-.105c-.289-.158-.473-.211-.473-.211s.21.184.473.526c.079.105.158.21.21.315.105.184.21.394.316.631.131.315.21.656.236 1.024v.237c0 .735-.21 1.996-.42 3.231-.027.105-.027.21-.053.289-.105.552-.21 1.051-.315 1.524-.027.131-.053.236-.079.368-.184.762-.316 1.261-.368 1.208-.053-.079-.079-.473-.079-1.051v-.473c.026-.525.053-1.156.105-1.865.026-.236.026-.473.026-.735 0-.368 0-.736-.026-1.104-.079-1.366-.315-2.68-.578-3.494-.394-1.209-2.076-1.366-2.076-1.366s.315.289.683.762c.053.052.105.131.158.21.131.184.263.368.394.578.052.079.105.184.158.263.052.078.105.183.157.289.132.289.263.604.368.919.105.315.158.657.158.998V187.031c0 .157-.026.315-.026.446-.105.867-.316 1.498-.316 1.498s-.341-1.813-.867-3.573c-.026-.105-.053-.184-.079-.289-.368-1.13-.788-2.181-1.288-2.733-.052-.052-.079-.105-.131-.131-.026-.026-.026-.026-.053-.026-.026-.026-.052-.053-.105-.079-.026-.026-.026-.026-.052-.026-.027-.027-.053-.027-.106-.053-.026 0-.052-.026-.052-.026-.026-.026-.053-.026-.105-.053-.027 0-.053-.026-.053-.026-.026 0-.079-.026-.105-.026-.026 0-.026 0-.052-.026-.053 0-.079-.027-.132-.027h-.026c-.053 0-.105 0-.158-.026H213.23c-.053 0-.079 0-.132.026h-.052c-.053 0-.079.027-.132.027h-.052c-.053.026-.105.026-.158.052a2.875 2.875 0 0 0-.499.21 11.63 11.63 0 0 1-.158.079c-.604.315-1.051.683-1.051.683s1.051-.052 2.05 1.13c.999 1.182 2.418 5.149 2.838 6.594.421 1.445-.236 2.102-.841 2.128-.604.026-1.708-1.34-3.6-3.547-1.893-2.206-1.472-4.413-1.472-4.413s-2.234 2.995-1.919 4.624c.316 1.628 2.208 2.732 3.864 3.993 1.656 1.261 4.021 1.813 2.838 2.601-.867.578-1.918-.21-1.918-.237 0 0-.184 1.682-.71 1.866-.71.262-1.419-1.55-3.075-4.151-1.656-2.601-2.655-3.048-2.655-3.048s-1.471 3.232-1.366 4.388c.105 1.129 2.523 3.625 5.23 5.201 2.707 1.577 4.521 2.733 4.021 3.652-.499.92-3.285-.578-6.018-2.995-2.734-2.391-3.811-5.832-3.811-5.832s-2.051 4.44-1.525 6.436c.526 1.971 2.681 3.652 4.757 4.651 2.077.998 5.625.446 6.361 1.812.736 1.366-2.497 2.785-3.995 2.522-1.498-.262-4.048-4.466-4.048-4.466s.789 7.383 3.391 8.039c2.286.578 4.941-2.837 6.229-3.651.052-.027.078-.053.131-.079.026-.026.079-.026.105-.053h.026c.027 0 .053-.026.079-.026h.105c.973 0 .605 3.415 3.338 2.916 1.183-.21 1.971-1.655 2.497-3.231.026-.053.026-.105.053-.158.079-.21.131-.447.184-.657.026-.105.052-.21.079-.341l.078-.316.079-.315c.026-.105.053-.21.053-.315.026-.105.026-.21.052-.289.053-.289.105-.552.132-.788.026-.158.052-.289.052-.421 0-.052.027-.131.027-.183.026-.237.052-.368.052-.368s-.105.157-.289.394c-.053.052-.105.131-.158.21a.69.69 0 0 1-.184.21c-.052.079-.131.158-.184.237-.105.131-.21.262-.315.367-.552.631-1.183 1.262-1.63 1.367-.63.157-.683-.657-.446-1.288a.374.374 0 0 0 .052-.157c.053-.079.079-.158.132-.237a.62.62 0 0 1 .315-.263c.105-.052.237-.105.421-.183.026 0 .052-.027.078-.027.106-.052.211-.079.342-.131.079-.026.132-.053.21-.079.289-.131.605-.263.92-.447.053-.026.132-.052.184-.105.973-.551 2.077-1.339 2.944-2.495a5.18 5.18 0 0 0 .578-1.025c.026-.079.053-.131.079-.184a2.94 2.94 0 0 0 .158-.919c.052-.395 0-.684-.079-.973Zm-6.886 3.968c-.027.21-.079.42-.132.656l-.078.316c0 .052-.027.078-.027.131l-.236.709c-.237.631-.526 1.235-.815 1.577 0 .026-.026.026-.026.052-.158.184-.289.289-.421.289-.131 0-.184-.157-.158-.446 0-.237.053-.552.132-.92l.079-.315c.026-.105.052-.21.079-.342.026-.105.052-.21.105-.315.026-.053.026-.105.052-.131.027-.105.053-.211.105-.289.027-.053.027-.105.053-.158.026-.079.079-.184.105-.263l.079-.157a.911.911 0 0 1 .105-.237c.158-.341.289-.604.447-.814.026-.053.079-.079.105-.132.105-.105.21-.157.315-.131.132.053.211.236.211.525v.158c-.053.026-.079.131-.079.237Zm-4.915-5.78c.788-.867 2.523 1.313 1.997 2.023-.446.604-2.786-1.156-1.997-2.023Z" fill="#7EA21A"/><path d="M214.386 215.036c-.079-.841-.263-1.655-.5-2.469-.079-.237-.131-.473-.21-.683-1.104-3.179-3.18-6.017-4.731-7.777-.499-.552-.894-1.13-1.288-1.708-.841-1.261-1.498-2.469-2.47-3.362-1.262-1.13-1.788-1.209-1.893-1.209h-.026s.079.053.184.158a.576.576 0 0 0 .131.105c.079.079.184.157.263.263.053.052.105.105.158.183l.237.316.078.157c.105.21.184.421.237.71a.729.729 0 0 1 .026.236c0 .079.026.131.026.21 0 .079 0 .158.027.237v.762c0 .105 0 .184-.027.289-.105 1.208-.157 4.361-.683 7.067-.184.893-.394 1.734-.71 2.443a6.708 6.708 0 0 1-1.261 1.944l-.315.315a7.363 7.363 0 0 1-1.078.867c-.289.184-.552.316-.736.421a1.189 1.189 0 0 0-.184.079 1.516 1.516 0 0 1-.263.105s.421-.815 1.052-2.155c.131-.262.21-.551.315-.867.079-.315.158-.656.21-1.024.026-.237.079-.499.079-.736.026-.263.053-.525.053-.788v-.788c0-.526-.053-1.051-.106-1.55-.078-.631.053-1.288.263-2.023.132-.447.289-.893.447-1.393.105-.315.21-.656.315-.998.316-1.051.579-2.207.552-3.494 0-.42-.026-.814-.052-1.156-.079-.841-.21-1.392-.421-1.787a2.129 2.129 0 0 0-.21-.315c-.079-.105-.158-.157-.263-.236-.026-.026-.052-.053-.105-.079-.052-.053-.131-.079-.21-.105-.079-.026-.132-.079-.21-.105l-.237-.079c-.052-.026-.079-.026-.131-.053-.158-.052-.342-.105-.526-.183a9 9 0 0 0-1.13-.316 4.125 4.125 0 0 0-.552-.105c-.263-.052-.499-.105-.71-.131-.079 0-.131-.026-.21-.026-.368-.053-.604-.079-.604-.079s.289.368.63.919c.027.053.079.105.105.184.079.158.184.315.263.473.053.105.132.237.184.342.027.052.053.105.079.183.079.158.132.316.184.473.079.184.131.394.184.578.026.105.053.184.053.289.026.184.052.342.052.5 0 1.024-.578 1.707-1.104 3.284-.446 1.313-.578 1.917-.63 2.6-.027.316-.027.657-.053 1.078-.026.446-.158.919-.315 1.366-.132.368-.29.683-.447.972-.105.21-.237.394-.342.525-.131.184-.236.289-.289.263-.053-.026-.105-.079-.158-.21a2.86 2.86 0 0 1-.131-.683c0-.132-.026-.263-.026-.394v-.473c0-.263.026-.526.052-.841 0-.105.026-.21.026-.315.027-.21.079-.421.132-.631.079-.315.21-.657.342-.998.368-.92.841-1.944 1.209-3.126.105-.289.184-.605.262-.92a7.504 7.504 0 0 0 .237-1.839c0-.447-.053-.867-.132-1.287a6.393 6.393 0 0 0-.367-1.209 5.487 5.487 0 0 0-.579-1.103 9.097 9.097 0 0 0-.762-.999.7.7 0 0 1-.131-.157 3.085 3.085 0 0 0-.631-.526c-.053-.026-.105-.078-.158-.105a4.822 4.822 0 0 0-.499-.289 11.63 11.63 0 0 1-.158-.079c-.578-.289-1.13-.446-1.577-.578-.052 0-.079-.026-.131-.026-.079-.026-.158-.026-.237-.052-.341-.079-.525-.079-.525-.079s1.761 2.469 1.918 3.941c.053.42 0 1.05-.052 1.786-.027.158-.027.342-.053.499-.052.421-.105.894-.184 1.34-.079.447-.131.92-.21 1.34-.026.079-.026.184-.053.263a28.131 28.131 0 0 1-.473 2.128c-.236.814-.525 1.156-.788 1.208-.079 0-.132 0-.184-.026-.184-.079-.368-.342-.5-.709-.026-.053-.052-.105-.052-.158a4.348 4.348 0 0 0-.079-.289c-.026-.131-.026-.289-.026-.42 0-.105 0-.211.026-.316 0-.052.026-.131.026-.184.079-.446.211-1.103.342-2.206.079-.631.131-1.366.131-2.155 0-.788-.052-1.628-.184-2.469-.052-.421-.157-.815-.262-1.209-.053-.184-.106-.394-.184-.578-.079-.184-.132-.367-.211-.551a3.032 3.032 0 0 0-.262-.5 4.505 4.505 0 0 0-1.052-1.261c-2.26-1.812-3.022-.394-3.022-.394s.893 1.235 1.235 3.363c.053.263.053.526.053.762 0 .473-.106.893-.237 1.287-.105.289-.237.578-.368.867-.342.657-.736 1.288-.999 2.023-.026.105-.079.21-.105.289-.105.237-.21.342-.289.368-.026 0-.052 0-.079-.026-.052-.027-.105-.132-.157-.237 0-.026-.027-.052-.027-.105-.026-.079-.052-.157-.052-.236-.079-.342-.132-.841-.158-1.445 0-.158-.026-.289-.026-.473v-1.287c0-.368.026-.71.052-1.051.027-.158.027-.342.053-.499.158-1.603.499-2.759.525-3.311v-.131c0-.079-.026-.131-.052-.158 0 0-.026-.026-.053-.026h-.026c-.026 0-.026-.026-.052-.026h-.027c-.026 0-.079-.027-.105-.027h-.026c-.026 0-.079-.026-.105-.026h-.053c-.052 0-.079-.026-.131-.026h-.027c-.052 0-.131-.026-.184-.026h-.026c-.052 0-.131-.027-.184-.027h-.026c-.158-.026-.289-.026-.473-.052h-.026c-.079 0-.158-.026-.237-.026h-.026c-.184-.027-.368-.027-.552-.027h-1.183c-.736.027-1.419.132-1.919.342-1.524.683-2.286 1.497-2.523 3.573-.21 2.075 1.919 3.363 2.55 4.151.631.788-.973.762-2.812-.92-1.84-1.655-.868-4.545-.868-4.545l-.893 1.498c-.894 1.497-.342 3.1.735 4.624 1.078 1.523 2.392 2.312 2.287 2.758-.105.447-1.892-.263-3.18-1.261-1.288-.998-1.367-3.284-1.367-3.284s-2.681 4.808 1.919 7.619c1.34.814 3.259 1.997 5.204 2.627 1.945.631 3.574 1.051 3.6 1.997.027.946-2.286.919-3.732.21-1.471-.709-1.498-2.627-1.813-2.837-.289-.211-1.262.525-3.548-.079-2.287-.604-3.102-3.258-3.102-3.258s-.236 1.104.053 3.468c.289 2.338.788 3.231 2.365 4.44 1.577 1.208 5.125 1.891 6.203 2.259 1.078.342 1.446 1.288-.473 1.629-1.919.315-3.259.132-4.967-1.024-1.709-1.156-2.708-2.89-2.708-2.89s-.762 2.942-.078 5.07c.683 2.128 1.419 2.47 2.838 2.811 1.419.342 3.759-.788 3.864-.289.131.526-6.624.552-6.781.026.131.736.999 4.835 1.629 5.649.631.814 2.024 1.366 4.836 1.681 2.812.316 6.913-2.023 8.227-2.18 1.314-.158 2.365-2.312 3.154-3.363.788-1.051 1.366.578.657 1.76-.71 1.182-2.287 1.498-3.075 1.971-.789.472-1.025.972-2.182 2.023-1.156 1.05-2.47 1.208-3.417 1.392-.946.158-3.127.052-4.599-.079-1.472-.131-2.812-1.865-2.812-1.865s-.605 4.335 2.602 5.464c.841.289 1.55.867 2.234.841.683 0 8.2.526 10.486-.972 2.287-1.497 3.838-4.335 4.337-4.046.526.289.526 1.839-1.13 3.547-1.656 1.708-3.338 1.524-4.652 1.681-1.314.158-2.628 1.524-3.811 1.603-1.183.105-1.209-.263-2.891-1.051-1.682-.788-1.63.552-1.63.552s2.734 5.175 9.199 4.781c1.603-.105 8.279-.762 10.145-5.123 1.393-3.231.395-6.226-.21-7.592-.21-.5-.394-.762-.394-.762l.236.157c.316.21.684.394 1.052.578.184.079.394.158.604.21.132.053.263.079.394.106 2.234.604 5.073.42 7.254-.789.105-.052.211-.105.316-.184.21-.131.394-.262.604-.394 1.341-.998 2.287-2.101 2.97-3.231.132-.236.263-.447.368-.683.447-.92.71-1.865.841-2.811.053-.473.079-.946.079-1.419.105-.446.105-.814.053-1.156Zm-13.851 3.704c1.261-.525 2.68-1.155 2.68-1.155s-.078.157-.236.394c-.105.157-.21.315-.368.525a7.1 7.1 0 0 1-.762.841c-.289.289-.657.551-1.051.788-.211.105-.395.21-.552.263-1.236.42-1.945-.368-1.945-.368s.946-.736 2.234-1.288Zm-4.941-1.103c.184-.052.42-.131.683-.236.342-.132.71-.263 1.077-.421.368-.157.71-.315 1.026-.499 0 0 .026.131-.027.315-.026.053-.052.132-.079.184-.052.105-.131.21-.262.342-.211.184-.5.368-.973.525-.893.289-1.419.21-1.708.105-.027-.026-.079-.026-.105-.052-.106-.053-.158-.105-.158-.105s.21-.053.526-.158Zm-2.34-6.358c.158-.236.316-.446.474-.63 1.025-1.288 1.576-1.314 1.576-1.314s-.21 2.89-1.655 3.993c-.053.053-.105.079-.158.106a2.44 2.44 0 0 1-.762.289.995.995 0 0 1-.394 0c-.053-.027-.106-.053-.132-.106a.38.38 0 0 1-.052-.183c0-.368.368-1.051 1.103-2.155Zm-1.314.578a11.63 11.63 0 0 1-.079.158c-.078.105-.131.21-.236.315-.184.21-.394.447-.683.683 0 0 .026-.21.105-.551.026-.132.052-.316.079-.473.026-.184.078-.368.105-.552.052-.289.105-.552.157-.788 0-.053.027-.079.027-.105.026-.079.026-.158.052-.211.053-.183.105-.341.132-.394 0-.026.026-.026.052-.026h.026c.079 0 .158.079.263.184.053.053.079.131.132.21.026.053.052.105.079.184 0 .026.026.053.026.105.026.079.026.132.026.21 0 .158 0 .316-.026.5a4.442 4.442 0 0 1-.237.551Zm-.447-7.303c.263.315.447.762.526 1.234.026.132.026.237.026.368.027.605-.078 1.288-.315 1.839-.053.105-.105.237-.158.342-.289.525-.736.972-1.261 1.156-.053.026-.079 0-.105-.026-.263-.289-.132-2.234.21-3.626.052-.158.079-.315.131-.473.053-.158.105-.289.158-.394.21-.525.499-.788.788-.42Zm-3.416.814c.026-.079.026-.131.052-.21 0-.026.027-.053.053-.079a.274.274 0 0 1 .236-.131c.053 0 .079.026.132.052.026.027.079.053.105.079.105.158.131.394.131.683 0 .079 0 .158-.026.21-.026.053-.026.158-.026.237-.053.42-.184.841-.263 1.208-.053.184-.079.342-.105.473-.026.079-.026.105-.053.105-.026 0-.052-.052-.079-.157-.026-.053-.026-.132-.052-.211-.026-.078-.026-.131-.053-.21 0-.052-.026-.079-.026-.131a5.165 5.165 0 0 1-.079-.92c-.026-.367-.026-.735.053-.998Zm-.316-1.497v.262c0 .053-.026.105-.026.132-.079.315-.263.656-.499.788 0 0-.079-.237-.132-.499-.026-.132-.052-.289-.079-.447v-.289c0-.052 0-.079.027-.131.052-.158.131-.263.315-.263.263.026.368.21.394.447Zm-2.549-3.81h.21s-.368.841-.578 1.655c-.105.473-.158.92-.053 1.209 0 0-.841-1.445-.42-2.26.184-.367.394-.525.604-.578.053-.026.106-.026.158-.026.026.026.053 0 .079 0Zm-6.728 2.286c.42-.815 2.575.841 2.917 1.419 0 0-3.338-.605-2.917-1.419Zm2.654.026c-.788-.131-3.127-1.497-2.602-2.391.552-.893 2.444-.052 3.233 1.051.499.683.131 1.471-.631 1.34Zm3.18 10.745c1.63-.551 2.182.473 1.945.631-1.892 1.287-3.627.709-3.627.709s.053-.788 1.682-1.34Zm-.709 6.411c-1.814-.105-2.55-1.051-2.234-1.445.315-.368.683-.972 3.075-1.366 2.391-.395 2.865-.5 2.865.105 0 .84-1.866 2.837-3.706 2.706Zm4.126-3.521c-.657-.105-.342-2.706.315-2.496.631.211 1.026 2.706-.315 2.496Zm.421 2.286s.814-3.179 1.498-2.601c.683.578 1.288 1.97-1.498 2.601Zm7.438 3.468s1.971 3.126-.053 3.888c-.499.21.053-3.888.053-3.888Zm1.524 12.111c-.999.394-1.708.394-1.708.394s2.234-.709 2.654-2.102c0 0 .053 1.34-.946 1.708Zm1.367-3.1s.289-1.34.262-2.286c-.026-.945-.236-1.602-.236-1.602s1.288.998 1.261 2.18c-.026 1.156-1.287 1.708-1.287 1.708Zm2.917-8.512c-.105.052-.263.131-.447.184a9.053 9.053 0 0 1-.972.21c-.5.079-.973.079-1.104-.053-.026-.026-.026-.052-.053-.078 0-.053 0-.132.053-.184.026-.027.052-.079.105-.105.079-.079.184-.132.289-.211.053-.026.132-.078.184-.105.105-.052.237-.105.368-.131.552-.158 1.209-.158 1.708.263.027.026.027.052.027.052 0 .053-.053.105-.158.158Zm4.258-.394-.316.079a9.57 9.57 0 0 1-1.156.131c-.184 0-.368.026-.499.026-.132 0-.29.027-.395.027h-.157c-.237.026-.395.026-.5.026h-.052c-.053 0-.105-.026-.105-.053 0 0 0-.026-.027-.026 0-.026-.026-.053-.026-.079 0-.026-.026-.052-.026-.105 0-.236.21-.604 1.34-.946 1.498-.473 2.497.683 2.497.683s-.105.053-.342.132a.94.94 0 0 1-.236.105Zm-.789-5.622s1.236-.894 2.024-2.89c.789-1.997 1.235-4.572 1.708-4.65.027 0 .053 0 .106.026.052.026.105.105.157.184.053.105.105.21.158.368.105.289.21.656.289 1.077 0 .079.026.131.026.21.027.21.053.447.053.683v.236c0 .578-.053 1.156-.237 1.734-.079.237-.157.473-.289.71a3.845 3.845 0 0 1-.263.446c-.052.079-.105.132-.157.211-1.709 2.154-3.575 1.655-3.575 1.655Zm4.468 6.174h-.21c-.131 0-.263 0-.394-.027-.053 0-.132-.026-.184-.026a2.226 2.226 0 0 1-.447-.131 1.618 1.618 0 0 1-.368-.184.365.365 0 0 1-.079-.053c1.919-.315 3.969-2.259 3.969-2.259s-.079.315-.263.735a5.196 5.196 0 0 1-.315.684 4.147 4.147 0 0 1-.631.84c-.132.105-.263.21-.394.289a1.846 1.846 0 0 0-.211.079c-.184.026-.341.053-.473.053Z" fill="#5F750E"/><path d="M199.72 224.52c2.155-.158 7.201 3.888 9.382 7.986 2.182 4.099 0 17.602 0 17.602h-2.26s1.393-13.582.342-16.209c-1.052-2.628-8.673-9.274-7.464-9.379Z" fill="#5F750E"/><path d="M226.816 242.07c-2.181-.893-7.096-3.862-8.042-4.492-1.262-.867-.605-2.05.341-2.26.92-.21 4.574.867 8.463 2.338 4.022 1.498 6.886 1.183 10.408-2.6 2.602-2.812 2.287-7.435 2.287-7.435s-2.024 3.336-5.651 4.755c-3.417 1.313-9.935 1.235-11.275 1.077-1.34-.158-1.262-2.128.657-2.233 1.919-.105 16.269-5.911 17.11-6.673.867-.762.762-4.44.762-4.44s-6.124 5.123-9.54 6.647c-3.654 1.629-5.467 1.602-5.73.84-.263-.735 11.88-6.174 14.744-10.272 2.208-3.153-.735-4.203-.735-4.203s-10.382 9.51-11.065 8.407c-.684-1.104 10.408-9.747 10.408-9.747s-1.026-1.288-2.34-2.339c-.105-.078-.184-.157-.289-.21-.026 0-.026-.026-.052-.026l-.237-.158c-.026-.026-.052-.026-.079-.052a.552.552 0 0 1-.157-.105c-.053-.027-.106-.079-.158-.105-.053-.027-.079-.053-.131-.079-.053-.026-.132-.079-.184-.105-.027-.026-.079-.026-.106-.053a.778.778 0 0 1-.21-.105c-.026-.026-.079-.026-.105-.052-.079-.027-.131-.053-.21-.079-.027 0-.053-.026-.079-.026l-.237-.079c-.026 0-.052 0-.078-.027-.079-.026-.158-.026-.237-.052h-.053c-.078 0-.157-.026-.236-.026h-.368a.944.944 0 0 0-.263.052h-.026c-.079.026-.158.053-.263.079h-.026c-.079.026-.158.079-.237.105l-.026.026-.237.158c-.026 0-.026.026-.052.026a.826.826 0 0 0-.211.21l-.026.027c-.079.079-.157.157-.21.262l-.026.027c-.079.105-.132.21-.211.315-.21.368-.552 1.077-.919 1.944l-.158.394c-1.13 2.627-2.655 6.384-3.285 7.094-.132.131-.211.157-.263.026-.184-.526.499-3.521 1.235-6.358.026-.079.053-.184.079-.263.052-.184.079-.341.131-.525.027-.079.053-.184.079-.263.053-.184.079-.341.131-.525.053-.158.079-.342.132-.499.105-.421.21-.789.315-1.156l.631-2.339-.079-.078a.424.424 0 0 0-.184-.106c-.026-.026-.079-.026-.105-.052-.079-.026-.158-.053-.236-.053h-.184c-.132 0-.29 0-.447.027-.053 0-.105.026-.158.026a3.497 3.497 0 0 0-.499.131c-.027 0-.079.027-.105.027-.053.026-.106.026-.158.052-.079.026-.184.053-.263.105l-.394.158c-.105.052-.237.105-.342.157-.026.027-.052.027-.079.053-.236.131-.446.236-.63.368a1.483 1.483 0 0 0-.211.157c-.052.053-.105.079-.157.132a.577.577 0 0 0-.106.131c-1.156 1.813-1.603 13.189-1.498 14.292.079.762-.552 1.392-1.13 1.471-.131.027-.263 0-.394-.026-.026 0-.053-.026-.079-.026-.079-.053-.158-.105-.21-.184-.71-.946-1.13-2.207-1.314-3.626a9.58 9.58 0 0 1-.105-.919 30.76 30.76 0 0 1-.053-1.577c0-.21 0-.42.026-.63 0-.21.027-.42.027-.631.262-4.045 1.419-7.934 1.419-7.934l-1.288.657-3.101 1.603s-1.341 10.797 1.445 16.604c.21.446.237.84.132 1.156-.027.026-.027.078-.053.105-.053.105-.131.21-.21.289l-.079.078a.578.578 0 0 1-.21.132 1.156 1.156 0 0 1-.421.157c-.052.027-.131.027-.184.027-.052 0-.079 0-.131.026-.289.026-.605 0-.868-.105-.026 0-.052-.026-.078-.026-.158-.053-.289-.158-.421-.263-.289-.237-.552-1.603-.788-3.442-.027-.105-.027-.21-.053-.341-.236-1.787-.42-4.02-.604-6.122a7.704 7.704 0 0 1-.053-.788c-.026-.263-.026-.525-.053-.762-.078-1.024-.131-1.996-.184-2.837-.026-.21-.026-.42-.052-.604 0-.105 0-.184-.026-.289 0-.184-.027-.368-.027-.526a59.29 59.29 0 0 1-.105-1.786s-.131.079-.368.263a4.508 4.508 0 0 0-.315.236c-.184.131-.368.289-.578.447a19.067 19.067 0 0 0-2.418 2.285c-.92 1.077-1.656 2.286-1.604 3.389.027.552.053 1.183.079 1.866 0 .105 0 .236.027.341.131 2.89.525 6.568 2.628 9.379.499.657.263 1.314-.184 1.655-.053.027-.105.079-.158.105a1.758 1.758 0 0 1-.342.132c-.052.026-.131.026-.184.026-.184 0-.367-.026-.551-.105a7.665 7.665 0 0 1-1.499-1.051c-.867-.788-1.524-1.76-1.997-2.811-.079-.184-.158-.342-.237-.525-.552-1.393-.841-2.89-.972-4.23-.026-.158-.026-.342-.053-.499-.131-2.102.079-3.678.079-3.678s-4.494 6.541-4.625 7.172c-.132.578.052 1.208.446 1.865.132.21.289.447.447.657.158.21.368.447.552.657 2.208 2.417 6.071 4.886 5.782 6.226-.052.237-.131.447-.289.631a1.36 1.36 0 0 1-.289.262c-.053.027-.131.053-.184.079-.079.026-.131.053-.21.053-.053 0-.079.026-.132.026a1.603 1.603 0 0 1-.499 0c-.079 0-.184-.026-.263-.026-.079-.027-.184-.027-.289-.053a5.863 5.863 0 0 1-.92-.289 11.959 11.959 0 0 1-.92-.394c-.184-.079-.394-.184-.604-.289a9.894 9.894 0 0 1-1.183-.683 11.5 11.5 0 0 1-1.235-.893 1.287 1.287 0 0 1-.21-.184c-1.525-1.287-2.156-2.417-2.156-2.417s-.683 1.76-.762 3.704v.499c0 .158.026.342.026.5.053.42.132.84.263 1.261.079.236.211.473.368.683.316.446.789.814 1.288 1.182.342.236.683.447 1.051.657.71.394 1.367.709 1.788.972.052.026.105.079.157.105.421.315.421.499-.42.63-.079 0-.158.027-.263.027h-.026c-.289.026-.552 0-.789-.027-.052 0-.105-.026-.184-.026a2.78 2.78 0 0 1-.657-.236c-1.183-.631-1.524-1.944-1.524-1.944s.263 2.889 2.102 4.439c.211.158.421.316.657.447.237.131.473.237.736.315l.316.079c.052 0 .105.026.184.026.184.027.394.053.578.053h.079c.21 0 .42-.026.604-.053.105-.026.211-.026.316-.052.315-.079.604-.184.92-.289.262-.105.525-.237.762-.394 1.445-.841 2.628-2.102 3.232-2.811.079-.105.158-.184.211-.263.105-.158.184-.236.21-.289-2.181 2.916-2.471 5.964-.499 8.749 1.839 2.574 5.282.289 5.282.289s.395.604 2.208.656c1.656.053 3.496-2.285 3.496-2.285s-1.288.473-3.128-.447c-2.05-1.024-3.364-3.731-3.706-5.044-.315-1.314.158-2.916 1.236-2.233 1.051.683 4.073 5.858 7.332 7.198 3.259 1.34 7.833-3.862 7.833-3.862s-2.524-.184-4.679-1.077Zm-14.035-6.804c.053 0 .106.026.158.026.421.131.657.368.447.841a1.546 1.546 0 0 1-.289.394l-.026.026c-.053.053-.132.079-.184.131-.106.053-.184.079-.29.132-.026 0-.052.026-.078.026-.447.105-.92 0-1.183-.236-.526-.473-.552-1.209 0-1.419a.495.495 0 0 1 .21-.053h.683c.184.079.368.105.552.132Zm2.445-1.288c-.105-.026-.211-.052-.316-.105-.788-.315-1.498-1.024-1.13-1.944a1 1 0 0 1 .237-.394c.157-.184.341-.315.578-.42a1.27 1.27 0 0 1 .342-.105c.131-.027.289-.027.42-.027.105 0 .184.027.289.027.105.026.184.052.289.079.211.078.421.21.579.367.052.053.105.105.131.158.315.394.447.762.42 1.103a.95.95 0 0 1-.052.289c-.026.105-.079.184-.132.263-.131.21-.341.42-.604.578-.053.026-.105.053-.184.079-.131.052-.263.052-.421.079-.105.026-.289 0-.446-.027Zm-.605 14.003s-1.472 0-2.365-1.313c-.894-1.288-.368-3.153-.368-3.153s1.577 3.442 2.733 4.466Z" fill="#7EA21A"/><path d="M230.707 263.481h-40.87l-8.936-17.077h55.772l-5.966 17.077Z" fill="#3F2F2D"/><path d="m99.164 124.345.079 14.24s17.005.183 18.109-.079c1.104-.263 6.597-4.624 7.175-4.861.578-.236 1.104 0 .893.657-.21.657-1.077 2.759-1.077 2.759s4.179-.473 4.547-.683c.368-.21 2.864-2.155 3.39-2.312.526-.158 1.393.184 1.157.709-.237.552-2.576 3.573-2.576 3.573s.473 3.258-.762 4.44c-1.236 1.209-7.018 2.154-9.83 2.365-2.812.21-24.101 2.889-25.862 2.811-1.787-.079-4.363-.631-5.283-4.44-.92-3.81-1.209-18.417-1.209-18.417l11.25-.762Z" fill="#F69576"/><path d="M89.728 102.827c5.625-.079 10.172 4.86 10.881 11.297.736 6.41 0 22.804 0 22.804l15.192.21v10.194s-23.313 4.44-25.31 2.18c-1.998-2.259-2.26-4.335-3.233-9.142-.946-4.808-8.49-37.385 2.47-37.543Z" fill="#fff"/><path d="M149.52 219.713s-2.523-4.992-3.679-9.038c-1.157-4.046-3.732-10.062-5.441-14.266-1.708-4.177-2.996-7.618-3.942-8.59-.946-.973-1.472-.578-1.472-.578s.815-.631 1.892.761c.946 1.235 2.76 5.728 3.68 8.145.92 2.443 3.89 9.615 4.52 11.428.631 1.813 1.367 4.282 2.182 6.121a550.204 550.204 0 0 0 2.654 5.806l-.394.211Z" fill="#7C5349"/><path d="M135.353 186.531s.132.421.237.578c.131.184.052-.341-.237-.578ZM135.118 187.635s.604-.157.578-.236c-.026-.079-.079-.184-.079-.184s-.289.342-.499.42ZM135.67 186.399s.105.342.105.5c.026.157 0 .263 0 .263s.184-.027.158-.237c-.027-.21-.263-.526-.263-.526ZM135.353 187.686s.762.316.999.263c.237-.052.237-.158.237-.158s-.184.027-.316-.078c-.158-.053-.92-.027-.92-.027ZM136.116 186.321s-.026.762.026.841c.026.079.105.263.105.263s.105 0 .105-.211c.027-.21-.236-.893-.236-.893ZM135.249 187.95s.789.63 1.157.63a.61.61 0 0 0 .525-.236l-.026-.053s-.158.105-.315.027c-.184-.053-1.341-.368-1.341-.368ZM136.642 186.374s.132.894.132 1.13c0 .21-.106.368-.106.368s.184.079.263-.158c.105-.289-.289-1.34-.289-1.34ZM137.484 186.977s-.184 1.419-.132 1.551c.053.131 0 .315 0 .315l.027.079s.184-.026.263-.158c.078-.131-.158-1.787-.158-1.787ZM137.272 188.921s-.132.052-.211-.079c-.105-.131-1.839-.237-1.839-.237s1.445.552 1.708.579c.237 0 .263-.158.263-.158l.131-.053-.052-.052ZM135.171 189.211s2.286.578 2.391.71c.105.131.105.236.105.236l.237-.052-.026.052-.237.053s.158.157-.131.157c-.289.027-2.26-.92-2.339-1.156ZM138.402 187.529s-.499 1.918-.42 2.155c.105.237-.053.342-.053.342l.026.052s.079-.184.184-.131c.132.052.263.052.342-.237.053-.315.026-1.892-.079-2.181ZM135.459 189.895s1.262 1.051 1.867 1.34c.604.289.867.079.867.079h.131v-.132s-.157-.026-.263-.157c-.105-.105-2.102-.868-2.602-1.13ZM139.113 188.423s-.604 2.18-.552 2.364c.027.21.105.368.105.368l-.157.105.026.079.158-.105s.105.263.263.052c.157-.21.499-2.39.157-2.863ZM135.801 191.443s2.524.815 2.602.657c.079-.131.211-.184.211-.184l-.027-.079s-.157-.026-.315-.184c-.158-.157-2.103-.525-2.471-.21ZM139.874 189.394s-.814 1.891-.683 2.417c.131.525-.158.761-.158.761l.027.079s.078-.262.315-.289c.237-.052.237-.052.578-1.208.342-1.13-.079-1.76-.079-1.76ZM136.09 192.075s.421.631 1.472.815c1.051.184 1.235.184 1.314.079.053-.079.21-.079.21-.079l-.026-.079s-.052.079-.42-.184c-.395-.289-2.55-.552-2.55-.552ZM136.222 193.203s.052.342.815.552c.762.21 1.261.21 1.655.21.395 0 .473-.157.447-.184-.026-.052.289-.026.289-.026l-.052-.131-.237.052s.079-.131-.342-.236c-.42-.079-.972.131-1.76 0-.789-.158-.815-.237-.815-.237ZM140.69 190.313s-.053.657-.368 1.314c-.316.656-.92 1.077-.763 1.392l.132.315-.184.237.052.131.184-.289s.079.394.395-.105c.315-.499.525-.92.736-1.839.21-.92-.184-1.156-.184-1.156ZM136.51 194.413s.684.604 1.63.42c.946-.184 1.314.026 1.367-.105.052-.131.026-.158.026-.158l.21.079-.026-.079s-.289-.105-.342-.236c-.052-.132-1.077.236-1.708.184-.631-.053-1.025-.053-1.157-.105ZM141.373 191.392c-.052.026-.736 1.707-.972 2.18-.237.473-.368.631-.237.788.105.158-.184.342-.184.342v.105l.342-.237s0 .263.368-.052.604-.631.815-1.419c.21-.788-.132-1.707-.132-1.707Z" fill="#7C5349"/><path d="M142.267 192.468s-.394 1.288-.657 1.918c-.263.657-.447.998-.657.972l-.211-.026-.473.394-.078-.184s.446-.236.394-.315c-.026-.079-.394-.263.184-1.051.578-.788 1.156-1.524 1.498-1.708Z" fill="#7C5349"/><path d="M136.8 195.069s.604.657 1.682.736c1.077.079 1.524-.052 1.524-.105-.026-.052.315.026.315.026l-.078-.078s-.211-.079-.368-.316c-.158-.263-.815-.079-1.761-.158-.999-.052-1.314-.105-1.314-.105ZM136.957 195.804s.972.71 2.207.946c1.209.237 1.078-.184 1.078-.184l.263.053-.079-.184-.237.053s.289-.342-.341-.447c-.605-.132-2.392 0-2.891-.237ZM142.818 193.676s-1.814 1.603-1.892 2.076c-.106.473-.053.709-.053.709l-.237.263.053.131.237-.263s.157.368.525-.157c.368-.526.578-1.419.92-1.865.342-.473.447-.894.447-.894ZM137.245 197.303s1.63.158 2.261.289c.63.105 1.077.237 1.209.079.131-.158.289-.131.289-.131l-.053-.132s-.052.079-.42-.184c-.368-.289-3.154-.341-3.286.079Z" fill="#7C5349"/><path d="M143.369 194.622s-1.077 1.944-1.366 2.391c-.29.446-.789.446-.789.446l-.158.211-.052.078s.157-.341.131-.472c-.026-.132-.394 0 .342-.841.709-.841 1.393-1.839 1.892-1.813ZM137.615 197.724s.552.736 1.656.841c1.13.105 1.576.131 1.603.026.026-.105 0-.21 0-.21l.368.052-.053-.131s-.263.052-.315-.079c-.053-.131-.473.026-1.735-.237-1.261-.262-1.524-.262-1.524-.262ZM143.737 195.464s-1.34.999-1.708 1.629c-.368.631-.289 1.13-.289 1.13l-.316.289.053.131s.289-.341.342-.236c.026.079.131.315.578-.447.447-.788 1.051-2.312 1.34-2.496ZM144.08 196.331s-.736 1.602-1.157 2.233c-.394.656-.814.709-.814.709l-.342.368-.026-.079.341-.368s-.21-.079 0-.473c.211-.42 1.525-2.285 1.998-2.39Z" fill="#7C5349"/><path d="m141.531 199.064-.368-.053s-.078-.446-.63-.473c-.552-.026-1.577.395-2.103.421-.526 0-.972-.132-.972-.132s.63.579 1.34.552c.71-.026 1.419-.105 1.866-.079.447.027.605-.078.605-.078l.341.026-.079-.184ZM141.872 199.824l-.315-.079s-.263-.368-1.209-.184c-.946.184-1.078.289-1.709.237-.604-.053-.735-.132-.735-.132s.893.474 1.944.579c1.052.078 1.761-.316 1.761-.316l.316.027-.053-.132ZM144.289 197.144s-.342 1.576-.762 2.338c-.421.762-.973.946-.973.946l-.289.342.026-.158.132-.263s-.184-.236.052-.709c.237-.473 1.446-2.443 1.814-2.496Z" fill="#7C5349"/><path d="M137.957 200.56s1.288.736 2.286.683c.999-.052 2.024-.473 2.024-.473l.026-.105s-.184.158-.289 0c-.105-.158-.499-.158-1.813-.131-1.314.026-2.234.026-2.234.026ZM145.237 198.354s-.841 1.577-1.446 2.26c-.604.683-.92.709-.92.709l-.184.394-.052-.131.157-.342s-.42-.315.158-.919c.578-.604 2.287-1.971 2.287-1.971ZM138.456 201.795s.525.683 1.34.447c.815-.237 1.551-.447 2.103-.421.552.026.867.079.867.079l-.105-.131-.315-.027s.157-.447-.552-.499c-.71-.053-1.604.683-2.208.657-.552-.026-1.13-.105-1.13-.105ZM145.787 199.089s-.342.894-1.13 1.813c-.788.92-.946 1.576-1.13 1.603-.184.026-.447.184-.447.184l-.053-.132s.158-.184.184-.341c.027-.158-.341-.237.079-.736.421-.499 1.682-1.655 1.998-1.97.315-.316.499-.421.499-.421ZM142.582 202.242c-.105-.263-.841-.131-1.682.289-.841.421-1.183.657-1.551.605-.368-.053-.683-.132-.683-.132s.263.631 1.156.421c.894-.211 1.314-.447 1.866-.526.552-.079.894.053.999-.052.105-.106.026-.29.026-.29l.342.132-.052-.132c0-.026-.316-.078-.421-.315ZM146.234 200.113s.027.84-.709 1.524c-.736.683-1.025.814-1.13 1.234-.105.421-.763 1.156-.763 1.156l-.026-.157.21-.316s-.499.053-.131-.683c.368-.735.552-1.024 1.34-1.523.763-.5 1.183-1.051 1.209-1.235ZM143.476 203.634l-.473-.105s.105-.211-.526-.316c-.63-.105-1.182.289-2.023.578-.841.29-1.525.211-1.525.211s.605.604 1.551.42 1.629-.42 2.076-.394c.447.026.631-.368.631-.368l.394.105-.105-.131ZM139.271 205.448s1.13.473 2.287.263c1.156-.211 1.945-.237 2.076-.395.131-.157.131-.262.131-.262l.263.052-.052-.131h-.237s.158-.447-.604-.395c-.763.053-1.498.842-2.523.842-.999 0-1.341.026-1.341.026Z" fill="#7C5349"/><path d="M146.604 201.032s.158.946-.473 1.524c-.631.578-.946.867-1.393 1.445-.447.552-.815.814-.815.814l-.053-.131s.237-.053.237-.158c0-.105-.342-.604-.079-.972.263-.367.92-1.077 1.63-1.55.736-.446.946-.972.946-.972ZM146.997 202.293c-.079.027-.447 1.367-1.131 2.181-.683.814-1.261 1.025-1.261 1.025l-.184.446-.053-.131.132-.368s-.289-.368-.026-.788c.262-.42 1.182-1.34 1.734-1.734.552-.394.789-.631.789-.631ZM144.501 206.287l-.473-.184s0-.315-.552-.368c-.552-.026-.894.263-1.997.473-1.104.21-1.919-.052-1.919-.052s.578.709 2.313.63c1.708-.078 2.155-.525 2.155-.525l.473.105v-.079ZM144.946 207.365s-.394-.211-.473-.211h-.236s.105-.315-.158-.368c-.263-.052-.973.237-2.103.552-1.13.316-2.155.211-2.155.211s.867.552 2.287.368c1.445-.184 2.102-.184 2.181-.395.079-.184.026-.289.026-.289s.5.053.631.211c.132.157 0-.079 0-.079Z" fill="#7C5349"/><path d="M147.444 203.241s-1.63 1.55-1.945 1.839c-.315.289-.736.368-.71.84.027.473.106.71.106.71l-.158.21.026.158.184-.237s-.052.342.552-.289c.605-.63.867-1.051 1.393-1.865.526-.841.657-1.209.552-1.366Z" fill="#7C5349"/><path d="M148.049 204.107s-1.551.919-2.103 1.471c-.552.552-.841 1.576-.841 1.839 0 .263-.026.394-.026.394l-.026.158s-.053.236.447-.289c.499-.526.735-1.261 1.314-1.997.578-.709 1.235-1.576 1.235-1.576ZM145.235 208.416s-.368-.315-.525-.315c-.132 0-.29.026-.29.026s0-.263-.446-.236c-.421.026-1.104.394-2.024.578-.946.184-1.919-.053-1.919-.053s1.498.71 2.707.552c1.209-.131 1.656-.552 1.735-.631.053-.079.184-.131.315-.079.132.053.473.211.473.211l-.026-.053Z" fill="#7C5349"/><path d="M148.416 204.895s-.499.736-1.182 1.025c-.657.289-1.236.525-1.472.893-.237.368-.184 1.734-.184 1.734l-.21.184.026.079.21-.184s.21.289.578-.237c.368-.525.263-.893 1.157-1.55.92-.63 1.209-1.55 1.077-1.944ZM145.499 209.178s-.263-.262-.368-.315c-.105-.052-.263-.526-1.262-.315-.999.21-1.445.709-2.155.998-.71.29-1.078.29-1.078.29s.342.236 1.735-.158c1.393-.368 1.708-.552 2.234-.578.526 0 .447-.184.447-.184l.473.341-.026-.079ZM145.762 210.018l-.21-.026s0-.473-.526-.526c-.525-.052-.578.447-2.181.815-1.603.368-2.366.368-2.366.368s.894.631 2.55.315c1.656-.315 2.47-.814 2.523-.841l.21-.105Z" fill="#7C5349"/><path d="m146.024 210.964-.21-.079s-.158-.368-.421-.315c-.263.052-.683.552-2.365.63-1.682.079-2.103-.131-2.103-.131s1.078.815 2.865.71c1.787-.106 2.05-.763 2.05-.763l.21.027-.026-.079ZM149.047 206.024s-.368.946-1.13 1.498c-.762.525-1.761 1.261-1.84 1.839-.105.578.132.893.132.893l-.289.342.026.079.289-.395s.053.237.631-.315 1.13-1.366 1.734-2.128c.605-.709.579-1.707.447-1.813Z" fill="#7C5349"/><path d="M149.915 207.417s.105.342-.289.5c-.368.157-2.024.63-2.47 1.208-.447.552-.815 1.734-.815 1.734l-.21.315-.027.053.316-.289s.157.263.815-.394c.657-.657.42-.815 1.392-1.287.973-.473 1.945-1.472 1.288-1.84ZM150.439 208.889s-1.787.604-2.497 1.261c-.683.657-1.367 1.051-1.34 1.313 0 .263.079.394.079.394l-.237.105.053.132.236-.105s-.052.341.368.052c.421-.289.789-1.024 1.656-1.602.894-.552 1.708-1.288 1.682-1.55ZM146.313 211.858l-.158-.027s0-.21-.21-.184c-.237.053-.368.368-2.155.894-1.761.526-2.576.552-2.576.552s.631.578 2.392.105c1.734-.473 2.05-.657 2.313-.71.263-.052.341-.131.368-.262.052-.132-.053-.237-.053-.237l.131-.053-.052-.078ZM151.675 210.413s-1.393-.315-2.654.42c-1.235.736-1.971 1.314-1.971 1.577 0 .262.052.446.052.446l-.342.132.053.131.342-.131s-.079.262.42.078c.5-.184 1.025-.578 1.866-1.366.841-.762 1.761-1.366 2.234-1.287ZM146.655 212.828l-.21.079s-.21-.289-.499-.157c-.289.131-1.893 1.156-3.049 1.287-1.157.132-1.498-.078-1.498-.078s.709.657 1.787.525c1.051-.131 3.128-.893 3.285-1.077.158-.184.079-.395.079-.395l.158-.105-.053-.079ZM147.155 214.012l-.21.079s-.263-.368-.421-.315c-.158.078-1.419.92-2.681 1.34-1.261.421-1.892.368-1.892.368s0 .578 1.551.237c1.55-.342 3.259-.947 3.443-1.183.184-.237 0-.368 0-.368l.262-.053-.052-.105ZM151.912 211.7s-2.024.158-3.022.894c-.999.736-1.393 1.077-1.367 1.261.026.211-.158.342-.158.342l-.052.131s.262-.262.341-.131c.053.131.289.21.894-.053.604-.262 1.261-.946 2.234-1.524.972-.578 1.13-.92 1.13-.92Z" fill="#7C5349"/><path d="M151.465 220.29s.526-8.354-.368-14.581c-.893-6.226-.972-16.052-1.13-22.804-.157-6.752-.473-12.242.316-14.16.788-1.918 1.866-1.682 1.866-1.682s-1.656-.394-2.366 2.207c-.63 2.26-.394 9.484-.21 13.373.184 3.888.421 15.5.657 18.364.263 2.863.736 6.673.71 9.694-.027 3.021-.184 9.563-.184 9.563l.709.026Z" fill="#8A9995"/><path d="M151.149 166.301s.079.657 0 .946c-.079.315-.289-.421 0-.946ZM152.175 167.694s-1.025.158-1.025 0v-.289s.657.289 1.025.289ZM150.546 166.301s.079.525.158.736c.079.21.184.368.184.368s-.316.052-.395-.237c-.078-.289.053-.867.053-.867ZM151.885 167.904s-.946.893-1.314.972c-.368.079-.447-.079-.447-.079s.289-.078.447-.289c.158-.21 1.314-.604 1.314-.604ZM149.81 166.458s.526 1.025.526 1.183v.447s-.158.078-.29-.211c-.131-.315-.236-1.419-.236-1.419ZM152.202 168.193s-.789 1.34-1.314 1.551c-.5.236-.946 0-.946 0v-.079s.289.079.525-.158c.184-.184 1.735-1.314 1.735-1.314ZM149.073 166.828s.394 1.314.526 1.603c.131.289.368.447.368.447s-.211.21-.526-.079c-.263-.263-.368-1.971-.368-1.971ZM148.232 168.165s1.209 1.814 1.209 2.05c0 .21.237.447.237.447v.158s-.289.078-.526-.079c-.236-.158-.92-2.576-.92-2.576ZM149.782 170.715s.211 0 .289-.237c.079-.21 2.629-1.419 2.629-1.419s-1.814 1.63-2.182 1.787c-.368.158-.525-.079-.525-.079h-.211v-.052ZM153.174 169.875s-3.075 2.18-3.128 2.39a.723.723 0 0 0 0 .368l-.368.079.079.079.368-.079s-.131.289.289.131c.447-.157 2.76-2.601 2.76-2.968ZM147.207 169.505s2.023 2.338 2.023 2.706c0 .368.289.447.289.447v.078s-.21-.21-.368-.078c-.157.157-.368.236-.657-.132-.289-.394-1.287-2.574-1.287-3.021ZM153.173 170.977s-1.235 2.233-1.945 2.968c-.736.736-1.235.605-1.235.605l-.21.105-.079-.158s.21-.158.289-.368c.052-.236 2.602-2.469 3.18-3.152ZM146.709 171.136s2.312 2.627 2.391 2.916c.079.289.079.578.079.578l.289.079v.157l-.289-.078s0 .446-.368.236c-.368-.21-2.313-2.995-2.102-3.888ZM153.646 173.316s-3.285 2.602-3.495 2.47c-.211-.131-.447-.131-.447-.131v-.158s.21-.157.368-.447c.131-.289 2.838-1.945 3.574-1.734ZM146.183 172.947s2.445 2.102 2.602 2.916c.158.815.736.946.736.946v.158s-.289-.289-.657-.21c-.368.079-.368.079-1.629-1.314-1.262-1.392-1.052-2.496-1.052-2.496ZM153.673 174.366s-.21 1.103-1.656 1.996c-1.472.894-1.761.972-1.892.894-.158-.079-.368 0-.368 0v-.158s.158.079.499-.525c.342-.552 3.417-2.207 3.417-2.207ZM154.199 175.969s.158.525-.867 1.261a10.422 10.422 0 0 1-2.339 1.287c-.578.237-.815.079-.815 0s-.447.158-.447.158v-.21l.368-.079s-.21-.132.368-.526 1.551-.394 2.628-1.051c1.104-.709 1.104-.84 1.104-.84ZM145.579 174.682s.525.867 1.419 1.603c.893.735 2.076.919 2.076 1.445v.525l.447.21v.21l-.447-.289s.158.578-.657.079c-.815-.499-1.419-.946-2.313-2.101-.893-1.183-.525-1.682-.525-1.682ZM154.514 177.808s-.657 1.261-2.181 1.577c-1.525.315-1.972.841-2.129.683-.158-.158-.158-.21-.158-.21l-.289.236v-.157s.368-.29.368-.526c0-.21 1.761-.316 2.707-.762.946-.447 1.551-.71 1.682-.841ZM145.236 176.6c.079 0 2.234 1.891 2.891 2.39.657.5.972.657.894.946-.079.289.525.368.525.368l.079.158-.657-.132s.158.368-.578.158-1.341-.499-2.155-1.445c-.841-.998-.999-2.443-.999-2.443Z" fill="#8A9995"/><path d="M144.605 178.57s1.42 1.524 2.234 2.26c.815.735 1.341 1.077 1.63.945l.289-.157.972.289v-.289s-.814-.053-.814-.21c0-.158.446-.605-.973-1.314-1.419-.709-2.681-1.445-3.338-1.524ZM154.541 178.912s-.499 1.261-2.024 1.997c-1.524.735-2.339.84-2.339.762 0-.079-.447.236-.447.236l.079-.158s.289-.236.368-.656c.079-.447 1.157-.605 2.55-1.288 1.366-.683 1.813-.893 1.813-.893ZM154.751 179.989s-.998 1.55-2.68 2.601c-1.683 1.051-1.761.394-1.761.394l-.368.236v-.289l.368-.079s-.657-.289.21-.814c.867-.525 3.653-1.445 4.231-2.049ZM144.552 180.566s3.759 1.13 4.205 1.708c.447.578.526.945.526.945l.526.211v.21l-.526-.21s0 .578-.894.078c-.893-.499-1.787-1.602-2.601-2.023-.789-.42-1.236-.919-1.236-.919ZM155.303 182.195s-2.339 1.209-3.206 1.734c-.868.526-1.472.973-1.761.841-.29-.131-.526 0-.526 0v-.21s.158.079.499-.526c.368-.604 4.547-2.339 4.994-1.839Z" fill="#8A9995"/><path d="M144.342 182.196s2.891 2.023 3.627 2.443c.736.42 1.472.131 1.472.131l.368.211.157.078s-.446-.367-.525-.578c-.079-.21.578-.236-1.051-.945-1.63-.71-3.312-1.656-4.048-1.34ZM155.013 183.01s-.341 1.34-1.971 2.155c-1.629.814-2.26 1.129-2.418.972-.158-.158-.158-.289-.158-.289l-.499.289v-.211s.447-.078.447-.289c0-.21.736-.236 2.497-1.366 1.734-1.103 2.102-1.261 2.102-1.261ZM144.37 183.588s2.654.552 3.627 1.208c.972.657 1.182 1.393 1.182 1.393l.657.21v.21s-.657-.289-.657-.131c0 .157 0 .525-1.182-.289-1.183-.788-3.128-2.549-3.627-2.601ZM144.37 184.98s2.155 1.734 3.18 2.391c1.025.657 1.708.499 1.708.499l.736.289v-.158l-.736-.289s.289-.236-.289-.656c-.604-.447-3.785-2.234-4.599-2.076Z" fill="#8A9995"/><path d="m149.995 187.188.499-.289s-.158-.657.657-1.024c.815-.368 2.655-.395 3.443-.71a6.126 6.126 0 0 0 1.393-.762s-.578 1.183-1.682 1.577c-1.104.367-2.208.683-2.865.998-.657.315-.946.236-.946.236l-.499.237v-.263ZM150.02 188.449l.447-.289s.131-.657 1.682-.972c1.551-.316 1.84-.237 2.707-.683.867-.447 1.025-.605 1.025-.605s-1.025 1.183-2.549 1.945c-1.525.761-2.865.63-2.865.63l-.447.236v-.262ZM144.605 186.214s1.577 1.971 2.681 2.759c1.104.788 2.076.709 2.076.709l.658.289-.158-.21-.368-.289s.131-.447-.526-.946c-.657-.499-3.758-2.443-4.363-2.312ZM156.406 187.108s-1.445 1.787-2.996 2.312c-1.551.526-3.364.552-3.364.552l-.079-.131s.368.105.447-.184c.079-.289.657-.526 2.628-1.288 1.971-.735 3.364-1.261 3.364-1.261ZM143.975 188.448s2.313 1.655 3.627 2.233c1.34.578 1.84.421 1.84.421l.525.446v-.21l-.447-.368s.421-.656-.814-1.156c-1.236-.499-4.731-1.366-4.731-1.366ZM156.408 189.104s-.342 1.262-1.735 1.419c-1.393.158-2.655.315-3.443.71-.789.394-1.235.604-1.235.604l.078-.21.447-.237s-.525-.499.5-1.024c1.025-.526 2.864-.027 3.758-.421a27.07 27.07 0 0 0 1.63-.841ZM143.633 189.763s1.104 1.024 2.891 1.812c1.787.789 2.444 1.577 2.733 1.498.289-.079.815 0 .815 0v-.21s-.368-.132-.526-.368c-.157-.21.368-.525-.604-.946-.973-.42-3.627-1.287-4.284-1.497-.657-.21-1.025-.289-1.025-.289ZM150.493 192.18c0-.421 1.157-.684 2.707-.631 1.551.053 2.208.184 2.707-.105.5-.289.947-.605.947-.605s0 1.025-1.446 1.262c-1.472.236-2.287.184-3.154.394-.867.21-1.314.605-1.551.526-.21-.079-.236-.368-.236-.368l-.447.368v-.21c.053.026.473-.263.473-.631ZM143.658 191.47s.526 1.182 2.077 1.655c1.55.473 2.076.5 2.523.999.447.499 1.918 1.103 1.918 1.103l-.052-.263-.526-.289s.815-.236-.236-1.024c-1.052-.788-1.472-1.077-3.023-1.288-1.577-.183-2.549-.683-2.681-.893ZM150.099 194.624l.657-.447s-.289-.21.578-.736 1.971-.315 3.443-.421c1.472-.105 2.418-.63 2.418-.63s-.499 1.182-2.05 1.498c-1.551.315-2.707.394-3.364.709-.657.289-1.183-.131-1.183-.131l-.499.368v-.21ZM157.588 194.596s-1.393 1.34-3.285 1.734c-1.893.395-3.075.841-3.364.71-.289-.131-.368-.289-.368-.289l-.368.236v-.21l.368-.158s-.526-.499.657-.893c1.182-.394 2.786.263 4.336-.342 1.498-.631 2.024-.788 2.024-.788Z" fill="#8A9995"/><path d="M143.658 192.914s.395 1.392 1.709 1.813c1.34.42 1.997.63 3.022 1.13 1.025.499 1.761.63 1.761.63v-.21s-.368.079-.447-.079c-.079-.158.132-1.025-.525-1.392-.657-.368-2.077-.92-3.47-1.13-1.366-.158-2.05-.762-2.05-.762ZM143.922 194.91c.157 0 1.55 1.603 3.127 2.312 1.577.709 2.576.631 2.576.631l.604.499v-.21l-.446-.447s.21-.657-.447-1.103c-.657-.421-2.655-1.156-3.759-1.34-1.156-.21-1.655-.342-1.655-.342ZM150.283 198.879l.579-.526s-.237-.446.578-.814c.815-.368 1.551-.158 3.311-.552 1.761-.394 2.865-1.208 2.865-1.208s-.42 1.34-3.049 2.233c-2.628.919-3.6.552-3.6.552l-.657.446-.027-.131ZM150.309 200.639s.447-.526.578-.605c.158-.078.368-.157.368-.157s-.368-.368 0-.578c.368-.237 1.603-.237 3.522-.473 1.919-.236 3.364-.998 3.364-.998s-.946 1.261-3.206 1.865c-2.261.604-3.286.998-3.522.788-.21-.21-.237-.368-.237-.368s-.736.368-.788.683c-.053.316-.079-.157-.079-.157Z" fill="#8A9995"/><path d="M143.869 196.46s3.469 1.13 4.126 1.34c.657.211 1.314.053 1.63.71.315.656.315 1.024.315 1.024l.368.21.079.211-.447-.211s.289.447-1.025-.052c-1.314-.499-1.998-.92-3.338-1.734-1.34-.788-1.787-1.209-1.708-1.498Z" fill="#8A9995"/><path d="M143.501 198.01s2.944.342 4.126.762c1.183.42 2.313 1.655 2.445 2.023.157.368.289.499.289.499l.158.21s.236.289-.894-.131c-1.104-.42-1.919-1.287-3.259-1.944-1.341-.657-2.865-1.419-2.865-1.419ZM150.546 202.241s.368-.657.578-.736c.21-.079.447-.158.447-.158s-.158-.367.499-.604c.657-.236 1.919-.105 3.443-.42 1.551-.316 2.865-1.209 2.865-1.209s-1.814 1.866-3.732 2.391c-1.893.525-2.865.263-3.023.184a.446.446 0 0 0-.526.079c-.157.157-.578.604-.578.604l.027-.131Z" fill="#8A9995"/><path d="M143.45 199.325s1.262.709 2.444.709c1.183 0 2.208-.026 2.786.342.605.367 1.42 2.259 1.42 2.259l.446.131v.158l-.446-.131s-.132.525-1.025 0c-.894-.5-.973-1.104-2.734-1.445-1.761-.342-2.812-1.445-2.891-2.023ZM150.623 203.424s.21-.525.368-.657c.158-.158.053-.893 1.682-1.209 1.603-.315 2.655.105 3.89.105 1.235 0 1.84-.236 1.84-.236s-.368.525-2.707.841c-2.339.315-2.944.263-3.732.552-.815.315-.815 0-.815 0l-.5.736-.026-.132ZM150.808 204.737l.289-.157s-.289-.657.421-1.025c.709-.368 1.182.289 3.811-.184 2.654-.474 3.811-.92 3.811-.92s-.947 1.419-3.654 1.945c-2.707.552-4.257.341-4.336.341h-.342Z" fill="#8A9995"/><path d="m151.046 206.209.289-.237s0-.578.42-.656c.447-.079 1.393.341 3.969-.552 2.576-.92 3.075-1.445 3.075-1.445s-1.077 1.786-3.863 2.706c-2.786.919-3.601.184-3.601.184l-.289.157v-.157ZM143.264 201.242s1.183 1.077 2.655 1.366c1.472.289 3.469.683 3.995 1.419.526.736.394 1.314.394 1.314l.657.289v.157l-.657-.368s.079.368-1.183-.052c-1.261-.42-2.575-1.209-3.995-1.865-1.419-.657-2.023-2.05-1.866-2.26Z" fill="#8A9995"/><path d="M142.844 203.659s.079.525.736.499c.657 0 3.443-.342 4.495.157 1.025.5 2.365 1.892 2.365 1.892l.526.289.079.079-.658-.21s-.078.446-1.471-.053-1.183-.867-2.944-.919c-1.787-.053-3.864-.841-3.128-1.734ZM143.03 206.023s3.075-.263 4.573.237c1.472.499 2.733.631 2.891.999.158.367.158.578.158.578h.447v.21h-.447s.289.447-.5.289c-.814-.131-1.839-.946-3.548-1.209-1.734-.236-3.443-.736-3.574-1.104ZM151.202 207.601l.21-.158s-.158-.289.21-.368c.368-.078.815.29 3.811-.052 2.996-.342 4.258-.789 4.258-.789s-.578 1.183-3.522 1.577c-2.944.395-3.522.342-3.969.421-.446.079-.578 0-.736-.132-.157-.157-.078-.368-.078-.368h-.211l.027-.131ZM142.161 208.837s1.893-1.262 4.258-.999 3.837.604 3.995.972c.158.368.237.657.237.657h.578v.211h-.578s.289.289-.579.368c-.893.078-1.918-.211-3.679-.763-1.787-.552-3.575-.841-4.232-.446ZM151.281 209.151h.368s.132-.525.658-.525c.525 0 3.6.473 5.44-.079 1.84-.526 2.181-.973 2.181-.973s-.657 1.341-2.339 1.787c-1.682.474-5.282.657-5.65.5-.368-.132-.368-.5-.368-.5l-.29-.078v-.132ZM151.307 211.068h.368s.131-.657.42-.657c.29 0 2.734.42 4.942.236 2.207-.184 3.075-.63 3.075-.63s.368.814-2.182 1.287c-2.575.474-5.519.658-5.94.447-.446-.21-.236-.499-.236-.499l-.447.079v-.263ZM142.635 210.727s3.154-.998 5.151-.578c1.998.421 2.812.631 2.891.92.079.289.447.368.447.368l.158.158s-.579-.21-.579 0-.289.447-1.392.447c-1.104 0-2.497-.552-4.337-.763-1.892-.184-2.339-.552-2.339-.552Z" fill="#8A9995"/><path d="M152.279 223.81s1.814-6.673 3.89-11.402c2.103-4.755 4.626-12.453 6.413-17.733 1.787-5.281 3.364-9.537 3.39-11.192.027-1.655-.657-1.655-.657-1.655s1.052 0 .815 2.154c-.21 1.892-2.155 7.54-3.259 10.561-1.104 3.022-4.153 12.112-5.02 14.318-.867 2.207-2.129 5.123-2.865 7.488-.736 2.364-2.313 7.54-2.313 7.54l-.394-.079Z" fill="#7EA21A"/><path d="M166.105 181.407s-.21.5-.236.762c-.027.237.289-.289.236-.762ZM165.158 182.3s.552.315.604.184c.027-.105.079-.211.079-.211s-.473.106-.683.027ZM166.446 181.539s-.184.394-.262.552c-.105.158-.211.263-.211.263s.158.105.289-.105c.132-.237.184-.71.184-.71ZM165.264 182.537s.316.867.526.999c.184.131.263.026.263.026s-.158-.105-.184-.315c-.027-.184-.605-.71-.605-.71ZM166.84 181.774s-.552.71-.604.815c-.027.105-.106.342-.106.342s.079.079.237-.105c.131-.184.473-1.052.473-1.052ZM165.026 182.722s.132 1.182.368 1.471c.237.29.552.184.552.184l.027-.052s-.184 0-.263-.21c-.079-.237-.684-1.393-.684-1.393ZM167.156 182.221s-.552.972-.71 1.182c-.158.211-.316.263-.316.263s.079.211.316.053c.236-.184.71-1.498.71-1.498ZM167.34 183.431s-1.157 1.209-1.209 1.393c-.053.184-.237.315-.237.315l-.052.079s.157.105.315.052c.158-.078 1.183-1.839 1.183-1.839ZM165.763 185.139s-.131-.052-.105-.236c.027-.184-1.156-1.604-1.156-1.604s.631 1.63.815 1.814c.184.184.315.052.315.052l.131.053v-.079ZM164.028 183.852s1.235 2.259 1.209 2.443c-.026.184-.105.289-.105.289l.184.131-.053.053-.184-.132s0 .263-.21.053c-.21-.184-.946-2.548-.841-2.837ZM167.577 184.665s-1.761 1.471-1.866 1.76c-.105.29-.289.29-.289.29l-.026.052s.184-.131.236 0c.053.132.158.237.421 0 .289-.21 1.419-1.761 1.524-2.102ZM163.74 184.718s.157 1.97.394 2.68c.236.709.578.709.578.709l.105.105.105-.105s-.079-.158-.079-.342c-.026-.184-.92-2.417-1.103-3.047ZM167.471 186.03s-1.998 1.629-2.129 1.866a1.63 1.63 0 0 0-.184.447h-.184l-.026.105h.184s-.105.341.157.236c.263-.105 2.077-1.945 2.182-2.654ZM162.871 186.478s1.235 2.655 1.419 2.576c.158-.079.289-.026.289-.026l.027-.105s-.079-.158-.106-.421c-.026-.263-1.13-2.05-1.629-2.024ZM167.315 187.529s-1.945 1.209-2.261 1.814c-.315.604-.683.604-.683.604l-.026.105s.236-.184.447-.052c.184.131.184.131 1.287-.736 1.104-.867 1.236-1.735 1.236-1.735ZM162.61 187.292s-.157.919.473 1.891c.631.972.763 1.077.868 1.051.105-.026.21.079.21.079l.026-.105s-.105.026-.157-.499c-.053-.552-1.42-2.417-1.42-2.417ZM161.899 188.449s-.21.368.184 1.156c.394.762.762 1.156 1.025 1.418.289.289.447.211.473.158.027-.053.211.21.211.21l.052-.184-.184-.131s.158-.079-.079-.473c-.236-.394-.788-.578-1.261-1.314-.473-.709-.421-.84-.421-.84ZM167.236 189s-.526.605-1.235.999c-.71.421-1.446.368-1.577.762l-.132.395-.315.079-.053.183.342-.157s-.237.42.368.184c.604-.237 1.051-.473 1.866-1.236.815-.735.736-1.209.736-1.209ZM161.242 189.839s.053 1.104.868 1.63c.814.526.946 1.025 1.051.92.131-.079.131-.158.131-.158l.105.237.027-.106s-.132-.289-.079-.473c.052-.184-.946-.578-1.393-1.103-.447-.526-.657-.789-.71-.947ZM166.945 190.577c-.053-.027-1.761 1.077-2.287 1.366-.525.289-.736.342-.762.579-.026.236-.394.184-.394.184l-.079.105h.421s-.184.262.289.236c.473-.026.893-.158 1.603-.736.736-.604 1.209-1.734 1.209-1.734Z" fill="#7EA21A"/><path d="M166.814 192.258s-1.209.946-1.866 1.366c-.657.421-1.052.605-1.183.447l-.132-.184-.63.053.079-.237s.499.105.525-.026c.026-.131-.105-.552.894-.867.999-.289 1.918-.605 2.313-.552Z" fill="#7EA21A"/><path d="M160.954 190.708s-.027 1.077.683 1.944c.71.867 1.156 1.077 1.183 1.025.026-.053.21.262.21.262v-.131s-.105-.236-.053-.578c.079-.368-.525-.683-1.156-1.471-.657-.788-.867-1.051-.867-1.051ZM160.533 191.521s.184 1.419.894 2.549c.709 1.13.92.63.92.63l.157.237.079-.237-.184-.131s.447-.105.079-.683c-.368-.578-1.735-1.787-1.945-2.365ZM166.342 193.833s-2.471.211-2.891.579c-.421.368-.552.657-.552.657l-.368.079-.053.184.368-.079s-.158.473.499.236c.658-.236 1.446-.92 2.024-1.13.578-.21.973-.526.973-.526ZM159.665 193.152s1.051 1.366 1.445 1.944c.368.578.605 1.025.815.972.21-.053.289.105.289.105l.053-.184s-.106.026-.158-.499c-.053-.525-2.05-2.653-2.444-2.338Z" fill="#7EA21A"/><path d="M166.053 195.148s-2.182 1.078-2.734 1.262c-.552.21-.893-.158-.893-.158l-.263.105-.105.027s.341-.211.447-.368c.105-.158-.29-.289.841-.552 1.13-.263 2.365-.684 2.707-.316ZM159.64 193.859s-.132 1.104.604 2.05c.736.945 1.025 1.313 1.157 1.208.131-.079.157-.21.157-.21l.211.341.052-.183s-.236-.132-.184-.316c.053-.184-.368-.315-1.104-1.523-.736-1.183-.893-1.367-.893-1.367ZM165.684 196.226s-1.682-.053-2.418.289c-.735.341-1.051.867-1.051.867l-.447.053-.052.184s.447-.106.42 0c-.026.105-.131.394.763 0 .893-.395 2.47-1.42 2.785-1.393ZM165.316 197.328s-1.682.973-2.47 1.288c-.763.315-1.104.079-1.104.079l-.5.079.027-.105.499-.079s-.105-.237.342-.473c.473-.211 2.786-1.052 3.206-.789Z" fill="#7EA21A"/><path d="m161.505 198.038-.21-.342s.262-.499-.106-.946c-.368-.446-1.445-.788-1.839-1.182-.395-.394-.605-.84-.605-.84s.026 1.024.578 1.523c.552.499 1.104.946 1.42 1.288.315.367.499.367.499.367l.236.263.027-.131ZM161.191 199.036l-.184-.315s.078-.552-.736-1.077c-.815-.526-.999-.526-1.393-1.051-.395-.526-.447-.657-.447-.657s.289 1.13.999 1.997c.709.867 1.498.998 1.498.998l.21.263.053-.158ZM164.869 198.275s-1.419 1.261-2.26 1.682c-.841.42-1.393.184-1.393.184l-.447.105.131-.158.289-.158s.027-.368.552-.657c.526-.263 2.839-1.235 3.128-.998Z" fill="#7EA21A"/><path d="M157.8 196.828s.394 1.655 1.157 2.364c.762.709 1.813 1.051 1.813 1.051l.079-.079s-.237.026-.21-.21c.026-.236-.237-.525-1.209-1.498l-1.63-1.628ZM164.685 200.113s-1.761.893-2.68 1.104c-.92.21-1.183 0-1.183 0l-.421.236.053-.184.342-.21s-.079-.605.762-.762c.893-.132 3.127-.184 3.127-.184ZM157.274 198.378s-.105 1.051.657 1.445c.762.394 1.446.735 1.84 1.182.368.447.578.709.578.709l.027-.183-.211-.263s.421-.315-.026-.893c-.473-.605-1.656-.552-2.076-.999-.421-.499-.789-.998-.789-.998ZM164.554 201.242s-.893.605-2.129.894c-1.235.289-1.813.815-1.971.683-.158-.105-.473-.157-.473-.157l.053-.184s.262-.053.394-.184c.131-.158-.079-.473.578-.631.657-.158 2.418-.342 2.865-.394.447-.053.683-.027.683-.027ZM159.954 201.874c.105-.342-.5-.736-1.42-.972-.92-.237-1.34-.237-1.55-.578-.211-.342-.395-.657-.395-.657s-.262.814.526 1.261c.789.447 1.288.552 1.735.893.447.342.604.71.762.71.158-.027.21-.237.21-.237l.158.368.052-.184s-.184-.315-.078-.604ZM164.107 202.557s-.605.814-1.63.92c-1.025.105-1.314 0-1.708.341-.394.342-1.393.526-1.393.526l.105-.184.368-.132s-.421-.315.394-.762 1.13-.578 2.076-.473c.973.132 1.656-.079 1.788-.236Z" fill="#7EA21A"/><path d="m159.587 203.869-.263-.473s.236-.105-.158-.683c-.394-.578-1.077-.604-1.892-.946-.841-.341-1.262-.919-1.262-.919s0 1.024.815 1.55c.815.525 1.472.814 1.787 1.156.316.367.71.105.71.105l.21.394.053-.184ZM155.224 202.504s.474 1.314 1.472 1.97c.999.657 1.577 1.235 1.788 1.156.21-.052.289-.157.289-.157l.157.236.053-.184-.184-.184s.42-.315-.158-.814c-.578-.526-1.682-.315-2.444-1.051-.71-.762-.973-.972-.973-.972ZM163.74 203.712s-.578 1.025-1.446 1.13c-.867.105-1.314.131-2.05.342-.736.21-1.182.184-1.182.184l.052-.184s.184.131.263.026c.079-.105.184-.841.657-.999.473-.157 1.446-.368 2.313-.263.841.106 1.393-.236 1.393-.236ZM163.083 205.235c-.079-.026-1.314.973-2.392 1.262-1.077.289-1.655.026-1.655.026l-.474.289.053-.184.368-.263s.053-.552.552-.788c.499-.21 1.84-.421 2.523-.368.71.026 1.025.026 1.025.026ZM158.377 207.18l-.21-.525s.236-.315-.132-.736c-.368-.446-.867-.42-1.787-1.024a4.652 4.652 0 0 1-1.367-1.472s-.078 1.13 1.209 2.312c1.288 1.182 1.945 1.104 1.945 1.104l.263.473.079-.132ZM157.93 208.572s-.132-.499-.184-.578c-.053-.079-.184-.184-.184-.184s.315-.21.158-.473c-.158-.262-.868-.472-1.919-1.024a5.835 5.835 0 0 1-1.708-1.393s.236 1.156 1.393 2.05c1.156.893 1.655 1.392 1.839 1.261.184-.132.211-.237.211-.237s.341.421.289.683c-.027.237.105-.105.105-.105Z" fill="#7EA21A"/><path d="M162.74 206.445s-2.313.263-2.734.315c-.446.053-.788-.184-1.13.263-.342.473-.447.762-.447.762l-.262.105-.106.158.316-.079s-.289.289.604.132c.894-.158 1.393-.368 2.366-.763.972-.394 1.34-.63 1.393-.893Z" fill="#7EA21A"/><path d="M162.557 207.732s-1.787-.263-2.602-.158c-.788.132-1.761.894-1.945 1.157-.184.262-.315.341-.315.341l-.132.158s-.21.184.552.053c.763-.132 1.446-.684 2.392-.947.946-.262 2.05-.604 2.05-.604ZM157.378 209.808s-.052-.578-.157-.683l-.211-.21s.184-.263-.157-.552c-.316-.289-1.078-.421-1.893-.946-.814-.525-1.366-1.471-1.366-1.471s.578 1.786 1.55 2.574c.973.762 1.604.71 1.709.684.105-.027.236 0 .289.157.052.132.184.578.184.578l.052-.131Z" fill="#7EA21A"/><path d="M162.24 208.783s-.919.342-1.603.105c-.683-.236-1.288-.42-1.708-.236-.447.184-1.393 1.524-1.393 1.524l-.289.026-.027.105.29-.026s-.053.421.604.184c.657-.236.841-.683 1.945-.631 1.104.053 1.997-.604 2.181-1.051ZM157.037 210.7s0-.446-.052-.578c-.053-.131.184-.709-.684-1.235-.867-.525-1.577-.394-2.286-.63-.736-.237-.999-.526-.999-.526s.079.473 1.367 1.156c1.288.683 1.656.736 2.024 1.13.394.394.473.158.473.158l.105.683.052-.158ZM156.591 211.699l-.131-.184s.341-.473 0-.893c-.342-.421-.763 0-2.182-.841s-1.971-1.419-1.971-1.419.184 1.288 1.629 2.207c1.446.92 2.392 1.051 2.445 1.051.052.026.21.079.21.079Z" fill="#7EA21A"/><path d="m156.091 212.828-.105-.236s.157-.473-.079-.604c-.237-.132-.894.026-2.155-1.156-1.262-1.182-1.42-1.682-1.42-1.682s.184 1.603 1.577 2.811c1.393 1.209 2.05.815 2.05.815l.132.184v-.132ZM161.874 210.333s-.973.631-1.893.578c-.92-.052-2.181-.079-2.68.394-.5.474-.552.973-.552.973l-.447.105-.026.105.473-.158s-.132.263.709.158c.841-.105 1.814-.499 2.786-.736.946-.236 1.656-1.235 1.63-1.419Z" fill="#7EA21A"/><path d="M161.505 212.304s-.184.394-.552.263c-.394-.131-1.918-.894-2.654-.683-.736.21-1.866 1.051-1.866 1.051l-.368.131-.053.053.447-.053s-.079.368.867.237c.947-.132.92-.473 1.945-.184 1.025.263 2.418.026 2.234-.815ZM160.795 214.115s-1.735-.762-2.707-.631c-.973.132-1.735 0-1.919.263a1.844 1.844 0 0 0-.236.421l-.263-.079-.053.184.263.079s-.289.289.21.341c.5.053 1.315-.394 2.366-.315 1.051.079 2.155 0 2.339-.263ZM155.645 213.88l-.079-.158s.158-.21-.026-.342c-.184-.131-.552.079-2.208-.735-1.656-.815-2.286-1.393-2.286-1.393s.026 1.025 1.629 1.892 1.971.893 2.208 1.051c.236.131.341.105.473.026.131-.079.131-.263.131-.263l.132.053.026-.131Z" fill="#7EA21A"/><path d="M160.585 216.481s-.788-1.341-2.208-1.577c-1.445-.211-2.391-.211-2.575.052-.184.263-.289.473-.289.473l-.342-.105-.053.184.342.105s-.237.184.236.394c.5.237 1.157.184 2.34.079 1.182-.131 2.26-.026 2.549.395ZM155.198 215.088l-.211-.079s.053-.42-.236-.525c-.289-.105-2.208-.289-3.154-1.051-.92-.762-1.025-1.183-1.025-1.183s.053 1.156.894 1.84c.867.656 2.917 1.471 3.154 1.418.236-.052.341-.341.341-.341h.184l.053-.079ZM154.698 216.586l-.21-.079s.079-.552-.079-.604c-.158-.053-1.682-.184-2.917-.71-1.236-.525-1.63-1.05-1.63-1.05s-.42.551.946 1.392c1.367.841 3.049 1.524 3.338 1.419.316-.079.263-.368.263-.368l.237.131.052-.131ZM159.849 217.9s-1.576-1.367-2.838-1.393c-1.262-.027-1.787-.027-1.919.21-.131.21-.341.21-.341.21l-.132.079s.395-.053.342.105c-.053.158.053.394.683.605.631.21 1.604.026 2.707.184 1.131.21 1.498 0 1.498 0Z" fill="#7EA21A"/><path d="M158.194 245.904h-14.035l-2.629-27.848h19.292l-2.628 27.848Z" fill="#3D211C"/></svg>