<svg width="375" height="308" fill="none" xmlns="http://www.w3.org/2000/svg"><path d="M169.758 54.385c18.162 3.435 52.381-66.68 90.255-51.21 37.873 15.471 10.039 65.317 23.549 76.487 13.509 11.17 50.515-23.205 66.074 12.901 15.559 36.107-8.095 74.783-8.437 80.787-.342 6.005 42.657 38.283 30.724 82.728-11.932 44.445-170.389 48.745-226.949 50.449-56.56 1.705-132.175 1.574-143.318-44.759-11.144-46.333 39.476-86.687 44.154-99.64 4.678-12.953-37.663-58.027 15.428-113.433 41.079-42.871 90.359 2.255 108.52 5.69Z" fill="#9ECBDD"/><path d="M52.88 188.534c-.053.314 0 .629.236 1.022 1.183-1.809 2.366-3.618 3.575-5.401 3.364-5.087 6.755-10.148 10.013-15.261.5-.76.474-1.888.553-2.884.026-.21-.5-.472-.842-.787v-1.18c.342-.105.684-.183 1.078-.288v-3.488c-.263-.078-.578-.157-.946-.262.105-.079.157-.21.236-.21.841-.026 1.656-.078 2.47 0 1.079.131 1.604-.367 2.051-1.285 3.022-6.161 4.73-12.717 6.176-19.377.21-.918.684-1.888-.315-2.648-.315-.236-.657-.446-1.078-.734v-2.308c.657-.026 1.21-.079 1.656-.105 2.155-2.858 1.892-6.267 2.445-9.466.578-3.303.92-6.634 1.287-9.937 1.866-17.411 1.656-34.9 1.63-52.364 0-.34-.342-.682-.552-.996-.105-.21-.316-.394-.342-.603-.052-.551-.026-1.128-.026-1.678 0-.289.026-.577.052-.97.71-.053 1.394-.106 2.077-.158-1.971-.944-1.078-2.675-1.262-4.064.342-.131.684-.184.92-.394.657-.524 1.34-1.075 1.919-1.704.263-.288.447-.734.473-1.127.026-3.54.026-7.054.026-10.594v-1.206c.158-.026.29-.052.447-.105.079.341.236.656.236.997.027 3.618.027 7.21 0 10.829 0 .655.106 1.101.763 1.442.552.288.946.84 1.419 1.232.289.236.604.446 1.051.787-.236 1.18.841 2.937-1.314 3.907.683.026 1.393.079 2.076.105.42 2.307.263 3.12-.788 3.54 0 4.667-.079 9.36.026 14.054.237 9.886.447 19.77.894 29.63.42 8.968 1.63 17.883 3.206 26.719.053.289.158.577.316.813.289.367.657.708.972 1.049-.052.079-.131.184-.184.262.552.026 1.104.053 1.814.105-.132 1.023.604 2.124-.789 2.884-.736.42-.92 1.18-.71 2.151 1.315 5.899 2.787 11.773 5.152 17.358.473 1.101 1.077 2.15 1.551 3.251.262.577.63.735 1.235.708a14.26 14.26 0 0 1 3.154.184c-.289.079-.552.157-.92.262v3.487c.342.079.657.158 1.13.263-.079.472.026 1.127-.237 1.416-.735.812-1.025 1.966-.446 2.936.552.944 1.182 1.836 1.787 2.727 4.1 6.215 8.2 12.429 12.274 18.644.105.157.21.288.578.445 0-.367.026-.734 0-1.127-.053-.813-.105-1.573.972-1.836.184-.052.368-.498.395-.786.052-.656.026-1.338.026-2.098h3.154c0 1.468.026 2.963-.026 4.458-.027.734.262 1.048 1.077.996v-2.124h2.865v2.229h2.97c0-.498.026-.97 0-1.469-.026-.76-.079-1.494.946-1.73.184-.053.368-.498.394-.813.079-.472.027-.97.027-1.521h5.808v6.005c1.025-.472 1.892-.813 2.707-1.259.21-.105.368-.524.368-.813.053-.996.026-2.019.026-3.094h3.233v6.293h1.419v-9.754h4.127c0 1.652.052 3.278-.027 4.877-.052.97.368 1.442 1.315 1.809v-2.412a26.394 26.394 0 0 0 1.577-.183v-6.897l.394.079c.21-.551.525-1.075.578-1.626.079-1.127.026-2.255.026-3.408a11.271 11.271 0 0 1-.998-.184v-1.363c.735-.053 1.419-.079 2.207-.131v-11.564c0-.262-.052-.708-.157-.708-1.025-.21-.526-.944-.684-1.547.578-.052 1.052-.105 1.63-.157v-3.514c.499-.052.92-.079 1.34-.131.053-.393.105-.734.184-1.154h1.314c.027.367.079.734.132 1.154h3.18c.079-.393.131-.76.21-1.154h1.209c.053.341.131.708.21 1.128h3.154c.053-.341.105-.708.184-1.128h1.262c.052.394.105.761.157 1.154h2.602c.079-.367.184-.734.29-1.154h1.261c.053.42.079.761.132 1.18h2.943c.079-.341.132-.708.21-1.154h1.236c.052.341.105.682.157 1.128h2.655c.079-.315.131-.682.236-1.154.368-.026.736-.026 1.209-.052.079.419.132.76.211 1.206h3.127c.079-.367.132-.734.211-1.154.394-.026.762-.026 1.209-.052.078.393.131.76.21 1.206h3.154c.052-.341.131-.682.21-1.128h1.235c.053.341.105.708.184 1.128.395.052.789.105 1.314.157v3.514c.605.052 1.078.105 1.656.157-.079.577.526 1.285-.552 1.521-.105.026-.236.367-.236.551 0 3.88.026 7.735.052 11.616 0 .026.053.052.158.209h1.971v1.469c-.289.052-.604.131-.946.21v7.132c1.761-.184 2.05-.472 2.05-2.046v-4.667h6.86v9.99c0 1.836.184 2.019 2.313 2.15v-4.903h6.281v5.061h3.89v-14.028c.473-.027.867 0 1.209-.079.342-.079.631-.315.946-.472.21-.105.447-.236.683-.236.631-.026 1.288.052 1.919-.053.421-.078.946-.288 1.13-.629.394-.734.868-1.022 1.709-.918.709.079 1.419.027 2.26.027v-6.556c.71-.026 1.288-.078 1.945-.105.079-.288.184-.576.289-.996h3.259v-1.757c.604-.052 1.156-.078 1.84-.131v-27.401h1.787v3.278h3.39c.079.708.132 1.285.211 1.94.63.026 1.209.053 1.918.105v12.298c.973 0 1.814.026 2.681 0 .605-.027.841.236 1.025.76.736 2.203.762 2.176 3.075 2.203.289 0 .578.052.92.078.053.42.079.787.131 1.259.631.026 1.262.052 2.077.105v30.18c0 2.019 0 2.019 2.181 1.678l.079-.944c.026-.34.053-.655.079-1.048h6.281c0 1.861.053 3.697-.026 5.532-.026.97.184 1.338 1.262 1.416 8.962.787 17.924 1.678 26.887 2.544.736.078 1.498.131 2.234.288m-184.95-3.409c-.027-.209-.027-.367-.079-.472-1.735-3.985-3.785-7.735-6.781-10.96-6.755-7.263-17.189-7.447-24.154-.42-2.786 2.806-4.73 6.189-6.439 9.728-.315.656-.604 1.338-.946 2.124h38.399Zm74.695 0c.052-.183.131-.288.131-.393 0-5.821.079-11.642-.026-17.463-.053-2.806-2.655-4.904-5.467-4.641-2.549.236-4.468 2.333-4.494 5.06-.053 5.533-.027 11.039-.027 16.572 0 .288.079.577.106.865h9.777Zm-87.915-31.963c-1.157-7.29-2.287-14.527-3.443-21.79H84.26a9175.206 9175.206 0 0 0-3.416 21.79h11.827ZM86.758 114.8c-.762 5.769-1.524 11.511-2.286 17.253h4.599c-.788-5.821-1.55-11.537-2.313-17.253Z" fill="#749DC1"/><path d="M167.235 84.461s-3.259-6.293 4.153-7c-.763-5.009 6.491-12.56 19.081-9.335 2.129-5.454 14.14-15.078 22.498-3.357 15.927-6.66 18.187 2.937 16.058 4.668 12.353-2.23 10.171 6.214 8.095 7.158 16.348-3.487 14.088 7.866 14.088 7.866h-83.973ZM297.964 123.53s-1.367-3.487 1.734-3.88c-.315-2.78 2.708-6.949 7.964-5.166.894-3.015 5.914-8.338 9.383-1.861 6.649-3.698 7.596 1.625 6.702 2.569 5.151-1.232 4.258 3.435 3.364 3.96 6.834-1.941 5.887 4.352 5.887 4.352h-35.034v.026Z" fill="#fff"/><path d="M1.708 261.743c11.144 46.332 86.785 46.49 143.319 44.759 56.533-1.73 214.991-6.004 226.949-50.449 8.121-30.233-9.172-54.855-20.973-69.381H27.229c-15.087 19.089-32.564 45.887-25.52 75.071Z" fill="#72645D"/><path d="M12.588 207.7c-9.25 15.864-15.638 34.428-10.907 54.042 11.144 46.332 86.785 46.49 143.319 44.759 56.533-1.73 214.991-6.004 226.949-50.449 4.994-18.591.368-35.058-6.649-48.352H12.588Z" fill="#7EA21A"/><path d="M57.742 185.858h-2.68v1.548h2.68v-1.548Z" fill="#6B3425"/><path d="M60.37 182.371h3.417l-.999-4.274-2.418-.918h2.208l-.263-1.101-3.89-.288 3.654-.735-.526-2.176-3.127-.996s1.708-.105 2.864-.158l-1.55-6.634-2.55-.209 2.445-.263-3.207-13.635-1.892 8.05h1.182l-1.34.708-.605 2.544h2.182l-2.313.55-.21.892h1.209l-1.314.419-1.262 5.349 3.023.63-3.312.682-1.051 4.326h3.154l-3.443 1.337-1.052 4.458c1.656.236 4.074.577 4.074.577l-4.337.603-.893 3.749h16.4l-.5-2.097-3.758-1.39Z" fill="#7EA21A"/><path d="M324.932 185.072h-3.496v2.02h3.496v-2.02Z" fill="#6B3425"/><path d="M328.348 180.536h4.442l-1.314-5.559-3.128-1.18h2.865l-.342-1.442-5.046-.393 4.731-.944-.657-2.858-4.074-1.285s2.234-.131 3.732-.21l-2.024-8.627-3.311-.288 3.154-.341-4.179-17.725-2.471 10.462h1.524l-1.734.918-.789 3.33h2.839l-2.996.708-.263 1.153h1.577l-1.709.551-1.629 6.975 3.916.813-4.31.865-1.314 5.611h4.073l-4.494 1.731-1.367 5.795c2.156.314 5.283.76 5.283.76l-5.651.787-1.156 4.877h21.341l-.63-2.701-4.889-1.783Z" fill="#7EA21A"/><path d="M119.218 68.493s-5.572-3.514-11.853.472c-4.205 2.674-4.731 12.14-3.154 15.365 1.551 3.225 8.726 9.073 8.726 9.073s26.887-19.483 6.281-24.91Z" fill="#A5713D"/><path d="m137.143 124.24.079 13.871s16.61.183 17.661-.079c1.078-.262 6.44-4.51 6.992-4.746.551-.236 1.077 0 .867.656-.21.655-1.051 2.7-1.051 2.7s4.073-.445 4.441-.681c.368-.236 2.813-2.098 3.312-2.255.499-.158 1.367.157 1.13.681-.21.525-2.523 3.488-2.523 3.488s.473 3.172-.736 4.326c-1.209 1.154-6.833 2.098-9.593 2.281-2.733.184-23.497 2.832-25.231 2.754-1.735-.079-4.258-.603-5.152-4.327-.893-3.723-1.182-17.935-1.182-17.935l10.986-.734Z" fill="#DD866F"/><path d="M105.577 255.135v21.816h-18.24s-2.602-4.353 0-5.559c2.602-1.206 11.065-5.349 11.065-5.349l-.316-10.908h7.491Z" fill="#F69576"/><path d="M105.577 266.018v10.908h-18.24s-2.602-4.353 0-5.559c2.602-1.206 11.065-5.349 11.065-5.349h7.175Z" fill="#032240"/><path d="M105.577 274.722v2.204h-18.24s-.605-1.023-.946-2.204h19.186Z" fill="#BFBFBF"/><path d="m120.584 255.136-.158 10.908s9.541 1.783 12.09 2.57c3.049.944 6.597 1.783 7.096 4.746.421 2.569 0 3.566 0 3.566h-29.594l3.207-21.816h7.359v.026Z" fill="#F69576"/><path d="M120.4 266.016s9.541 1.783 12.09 2.57c3.049.944 6.597 1.783 7.096 4.746.421 2.57 0 3.566 0 3.566h-29.568l1.131-10.908h9.251v.026Z" fill="#BFBFBF"/><path d="M139.585 273.36c.079.524.132.97.158 1.363h-29.489l.92-8.705h9.251s9.541 1.783 12.09 2.57c3.049.97 6.597 1.809 7.07 4.772Z" fill="#032240"/><path d="M133.884 156.282s1.025 10.751 0 28.634c-1.025 17.909-5.388 35.031-5.887 37.076-.526 2.045-6.913 36.316-6.913 36.316h-9.987s5.651-46.28 6.15-60.334c.526-14.055-1.787-40.407-1.787-40.407l18.424-1.285Z" fill="#254B6B"/><path d="M97.22 157.567h21.262s1.656 42.504 0 44.497c-1.656 1.993-6.676 9.964-7.438 16.1-.762 6.136-2.839 40.144-2.839 40.144H97.193V157.567h.026Z" fill="#254B6B"/><path d="M113.015 100.379c10.592-.236 14.009 1.364 16.243 6.32 2.234 4.955 7.858 48.404 8.384 57.266.525 8.863-1.209 14.16-13.326 14.16-12.116 0-28.7-9.886-28.7-9.886s-.683 3.068-1.21 4.956c-.525 1.888-5.65 3.933-5.65.682s2.234-54.042 2.576-62.564c.342-8.521 13.667-10.776 21.683-10.934Z" fill="#000"/><path d="M124.316 103.264c4.178-1.102 8.042-1.023 11.117 5.113 3.075 6.135 5.467 25.224 5.467 25.224l-14.193 5.612c0 .026-13.509-33.039-2.391-35.949Z" fill="#000"/><path d="M116.668 99.488c-3.732 0-8.148.341-10.461 1.836-2.812 1.809-2.759 8.522 9.594 9.072 12.352.551 11.932-5.192 10.697-6.87-1.84-2.491-6.965-4.011-9.83-4.038Z" fill="#F69576"/><path d="m121.478 91.806 2.392 15.418h-14.561s.71-6.136 1.525-10.096c.814-3.959 1.524-5.322 1.524-5.322h9.12Z" fill="#F69576"/><path d="M115.118 96.001s-.131 2.832 1.761 4.091c1.893 1.232 6.071 1.258 6.071 1.258l-1.471-9.544h-6.15s-.421 2.386-.211 4.195Z" fill="#DD866F"/><path d="M123.554 73.11s1.84 1.52 2.655 4.876c.604 2.57.473 5.35.815 6.923.315 1.547.841 4.038.394 6.188-.447 2.15-2.365 5.113-5.94 6.11-3.574.996-6.492.288-8.463-2.203-1.971-2.491-4.415-6.923-5.125-9.99-.71-3.068-1.13-8.916 2.155-11.485 4.205-3.252 9.225-3.304 13.509-.42Z" fill="#F69576"/><path d="M117.064 90.467s.342 2.097 1.577 2.543c1.235.446 2.523.157 3.075-.55.578-.709.867-2.02.867-2.02l-5.519.027Z" fill="#fff"/><path d="M120.112 88.187c-.105 0-.184-.026-.236-.079-.158-.131-.158-.367-.158-.498v-.08c-.026.027-.105.053-.184.158a.434.434 0 0 1-.394.132c-.184-.053-.342-.237-.394-.499-.079-.42.315-1.154.341-1.233.027-.052.105-.078.158-.052.052.026.079.105.052.157-.105.184-.394.76-.315 1.05.053.21.132.288.21.314.053.026.105-.026.132-.052.184-.184.315-.263.42-.263.053 0 .132.053.158.105a.516.516 0 0 1 .026.21c0 .105 0 .263.079.341.026.026.079.026.158.026.158-.026.184-.157.184-.42 0-.13 0-.235.052-.288a.203.203 0 0 1 .132-.052c.105 0 .157.078.236.13.158.106.211.132.316.053.052-.052.079-.13.052-.262-.026-.367-.263-.84-.42-.97-.053-.027-.053-.105-.027-.158.053-.052.106-.052.158-.026.237.183.5.734.526 1.154 0 .21-.026.367-.132.446-.262.236-.499.079-.63-.026l-.053-.053v.053c0 .21.026.603-.394.682h-.053Z" fill="#6B3425"/><path d="M102.397 82.758c1.104-2.727 9.147-.263 7.649 4.772-1.498 5.192-9.278-.734-7.649-4.772Z" fill="#F69576"/><path d="M108.547 88.187c-.026 0-.053 0-.079-.026-.052-.052-.052-.13 0-.157.342-.367.394-1.495-.026-2.622-.289-.787-1.051-2.15-2.786-2.36-.92-.105-1.577.052-1.945.472-.552.63-.289 1.652-.289 1.652.026.052-.026.13-.079.157-.052.026-.131-.026-.158-.078 0-.053-.289-1.154.342-1.862.421-.498 1.156-.656 2.155-.55 1.367.156 2.444 1.074 2.97 2.516.421 1.128.394 2.387-.026 2.858 0-.026-.026 0-.079 0Z" fill="#6B3425"/><path d="M105.657 87.742c-.053 0-.079-.026-.105-.079-.027-.105-.947-2.307.394-4.772.026-.053.105-.079.157-.053.053.027.079.105.053.158-1.288 2.36-.394 4.536-.394 4.562.026.053 0 .131-.053.157 0 0-.026.027-.052.027ZM116.222 85.854c.247 0 .447-.4.447-.892 0-.493-.2-.892-.447-.892s-.447.4-.447.892.2.892.447.892ZM114.199 82.603c.342-.289 1.051-.656 1.787-.735.815-.079 1.262.289 1.577.367.316.079.368-.367.184-.734-.158-.367-.841-.656-1.945-.63-1.104.026-1.708.525-1.997.866-.289.34-.079 1.26.394.866ZM123.03 85.618c.246 0 .446-.4.446-.892s-.2-.891-.446-.891c-.247 0-.447.399-.447.891 0 .493.2.892.447.892ZM121.401 82.287c.341-.289 1.051-.656 1.787-.735.815-.079 1.261.289 1.577.367.315.08.368-.367.184-.734-.158-.367-.841-.656-1.945-.63-1.104.053-1.708.525-1.998.866-.315.315-.078 1.26.395.866ZM124.264 93.064l-.552.132s-1.077 2.124-1.971 2.517c-.893.393-3.837.262-4.152 0-.316-.262-1.341-2.596-1.341-2.596l-.683.157s1.051 3.383 1.209 3.671c.105.184 2.05 1.521 2.812 1.573.762.053 3.364-1.363 3.496-1.678.394-.97 1.182-3.776 1.182-3.776Z" fill="#6B3425"/><path d="m120.899 94.376-1.314-.053-.026 2.309.999.183.341-2.44Z" fill="#6B3425"/><path opacity=".4" d="m95.038 112.545 3.285 18.512-5.887 1.784 2.602-20.296Z" fill="#254B6B"/><path d="M109.309 69.936s3.049 5.506 11.538 6.004c17.688 1.023 9.567-8.862 9.567-8.862s.631 2.622-2.418 2.753c-4.126.183-10.145-12.429-18.687.105Z" fill="#A5713D"/><path d="M295.101 206.075c-15.506 0-28.096-12.56-28.096-28.031v-1.416h56.192v1.416c0 15.471-12.589 28.031-28.096 28.031Z" fill="#000"/><path d="M288.346 201.276s-18.503 47.356-20.08 51.079c-1.603 3.723-6.754 3.723-5.151-1.416 1.603-5.139 22.393-49.663 22.393-49.663h2.838ZM305.245 201.276l20.973 45.782h-6.045l-17.793-45.782h2.865Z" fill="#000"/><path d="M314.286 224.167h-37.689v3.016h37.689v-3.016ZM322.829 255.03c4.123 0 7.464-3.334 7.464-7.446 0-4.113-3.341-7.447-7.464-7.447-4.122 0-7.464 3.334-7.464 7.447 0 4.112 3.342 7.446 7.464 7.446Z" fill="#000"/><path d="M286.297 158.197s4.994-1.128 5.914 3.015c.919 4.064-.868 4.563-.132 7.421.657 2.517 4.205 3.88 4.205 3.88s-5.939 2.518-7.858-2.831c-1.524-4.222 1.787-6.215 1.367-8.522-.447-2.36-3.496-2.963-3.496-2.963Z" fill="#fff"/><path d="M292.525 157.383s3.759-.918 4.442 2.438c.683 3.304-.657 3.724-.105 6.005.499 2.045 3.154 3.146 3.154 3.146s-4.442 2.046-5.914-2.281c-1.156-3.435 1.34-5.06 1.025-6.922-.315-1.888-2.602-2.386-2.602-2.386ZM300.278 162.154s3.311-.734 3.942 1.993c.605 2.7-.578 3.041-.079 4.929.447 1.678 2.786 2.57 2.786 2.57s-3.942 1.678-5.23-1.888c-1.025-2.806 1.183-4.143.92-5.664-.315-1.547-2.339-1.94-2.339-1.94Z" fill="#fff"/><path d="M325.325 175.03h-60.449v3.199h60.449v-3.199ZM322.75 249.89a2.573 2.573 0 0 0 2.576-2.57 2.573 2.573 0 0 0-2.576-2.57 2.573 2.573 0 0 0-2.575 2.57 2.573 2.573 0 0 0 2.575 2.57Z" fill="#3D3B38"/><path d="m249.133 254.846.157 10.908s-9.54 1.783-12.09 2.569c-3.048.944-6.597 1.783-7.096 4.746-.42 2.57 0 3.566 0 3.566h29.568l-3.207-21.816h-7.332v.027Z" fill="#F69576"/><path d="M249.29 265.754s-9.54 1.783-12.09 2.569c-3.048.944-6.597 1.783-7.096 4.746-.42 2.57 0 3.567 0 3.567h29.568l-1.13-10.908h-9.252v.026Z" fill="#BFBFBF"/><path d="M230.102 273.095c-.078.524-.131.97-.157 1.363h29.515l-.92-8.705h-9.251s-9.541 1.783-12.09 2.57c-3.049.944-6.597 1.809-7.097 4.772Z" fill="#EAEAEA"/><path d="m267.11 257.52.157 10.908s-9.54 1.783-12.089 2.57c-3.049.944-6.597 1.783-7.097 4.746-.42 2.57 0 3.566 0 3.566h29.568l-3.206-21.816h-7.333v.026Z" fill="#F69576"/><path d="M267.293 268.429s-9.541 1.783-12.09 2.569c-3.049.944-6.597 1.783-7.096 4.746-.421 2.57 0 3.566 0 3.566h29.568l-1.131-10.908h-9.251v.027Z" fill="#BFBFBF"/><path d="M248.107 275.77c-.079.524-.131.97-.157 1.363h29.515l-.92-8.705h-9.252s-9.54 1.783-12.089 2.569c-3.076.944-6.597 1.783-7.097 4.773Z" fill="#EAEAEA"/><path d="M250.471 68.23s5.572-3.514 11.854.472c4.205 2.674 4.731 12.14 3.154 15.365-1.551 3.226-8.726 9.073-8.726 9.073s-26.861-19.482-6.282-24.91Z" fill="#000"/><path d="m235.386 124.16-2.917 13.661s-16.611.183-17.662-.079c-1.078-.262-6.439-4.51-6.991-4.746-.552-.236-1.078 0-.868.656.211.655 1.052 2.7 1.052 2.7s-4.074-.445-4.442-.681c-.368-.236-2.812-2.098-3.312-2.255-.499-.158-1.366.157-1.13.681.237.525 2.523 3.488 2.523 3.488s-.473 3.173.736 4.326c1.209 1.154 6.834 2.098 9.593 2.282 2.734.183 23.497 2.831 25.232 2.753 1.734-.079 4.257-.603 5.151-4.327.893-3.723 1.183-17.935 1.183-17.935l-8.148-.524Z" fill="#DD866F"/><path d="M235.832 156.018s-1.025 10.75 0 28.633c1.025 17.909 5.388 35.031 5.887 37.077.526 2.045 4.547 42.137 4.547 42.137h13.194s-6.439-52.101-6.965-66.156c-.525-14.054 1.787-40.407 1.787-40.407l-18.45-1.284Z" fill="#EAEAEA"/><path d="M272.471 157.304h-21.263s-1.656 42.505 0 44.497c1.656 1.993 6.676 9.964 7.438 16.1.762 6.136 2.839 46.359 2.839 46.359l15.953 1.495-4.967-108.451ZM249.869 102.134c-4.179-1.102-9.462-1.338-12.537 4.798-1.314 2.648-5.414 22.524-6.965 27.27-.394 1.206-12.878-1.075-12.878-1.075l.919 15.628s24.338 4.851 26.23-1.783c2.786-9.781 11.828-43.108 5.231-44.838Z" fill="#EAEAEA"/><path d="M256.676 100.115c-10.592-.236-14.008 1.363-16.242 6.319-2.234 4.956-7.859 48.378-8.358 57.267-.5 8.889 1.209 14.159 13.325 14.159s35.534-1.022 35.534-4.274c0-3.251-2.234-54.042-2.576-62.563-.315-8.522-13.64-10.751-21.683-10.908Z" fill="#fff"/><path d="m248.237 91.513-2.392 15.418h14.561s-.71-6.136-1.525-10.095c-.814-3.96-1.524-5.323-1.524-5.323h-9.12Z" fill="#F69576"/><path d="M254.571 95.709s.132 2.831-1.761 4.09c-1.892 1.232-6.071 1.259-6.071 1.259l1.472-9.545h6.15s.447 2.412.21 4.196Z" fill="#DD866F"/><path d="M246.161 72.844s-1.84 1.521-2.655 4.878c-.604 2.57-.473 5.349-.814 6.922-.316 1.547-.841 4.038-.395 6.188.447 2.15 2.366 5.113 5.94 6.11 3.575.996 6.492.288 8.463-2.203 1.971-2.49 4.416-6.922 5.125-9.99.71-3.068 1.131-8.915-2.155-11.485-4.205-3.251-9.225-3.304-13.509-.42Z" fill="#F69576"/><path d="M252.626 90.202s-.342 2.098-1.577 2.543c-1.235.446-2.523.158-3.075-.55-.578-.708-.867-2.02-.867-2.02l5.519.027Z" fill="#fff"/><path d="M249.473 87.897c-.394-.079-.394-.446-.394-.682v-.053l-.053.053c-.131.105-.368.262-.63.026a.51.51 0 0 1-.132-.446c.026-.42.289-.97.526-1.154.052-.026.131-.026.157.026.027.052.027.131-.026.157-.184.132-.42.604-.42.971 0 .131.026.236.052.262.105.105.158.079.316-.052.079-.053.157-.105.236-.131.053 0 .105 0 .132.052.078.053.078.157.052.289 0 .262.026.393.184.42.079 0 .132 0 .158-.027.079-.052.079-.21.079-.34 0-.106 0-.158.026-.21a.177.177 0 0 1 .158-.106c.105 0 .236.079.42.263.026.026.079.078.132.052.078-.026.157-.105.21-.315.052-.288-.21-.865-.316-1.049-.026-.052 0-.131.053-.157a.127.127 0 0 1 .158.052c.052.079.447.787.341 1.233-.052.262-.184.446-.394.498a.394.394 0 0 1-.394-.13c-.105-.106-.158-.158-.184-.158v.079c0 .157-.026.393-.158.498a.423.423 0 0 1-.236.079h-.053Z" fill="#6B3425"/><path d="M267.292 82.493c-1.104-2.727-9.146-.262-7.648 4.772 1.524 5.166 9.278-.734 7.648-4.772Z" fill="#F69576"/><path d="M261.143 87.895c.026 0 .052 0 .078-.026.053-.052.053-.13 0-.157-.341-.367-.394-1.495.027-2.622.289-.787 1.051-2.15 2.786-2.36.92-.105 1.577.052 1.945.472.551.63.289 1.652.289 1.652-.027.052.026.13.079.157.052.026.131-.026.157-.078 0-.053.289-1.154-.341-1.862-.421-.498-1.157-.656-2.156-.55-1.366.156-2.444 1.074-2.97 2.516-.42 1.128-.394 2.386.027 2.858h.079Z" fill="#6B3425"/><path d="M264.033 87.45c.052 0 .079-.027.105-.08.026-.104.946-2.307-.394-4.772-.027-.052-.106-.078-.158-.052-.053.026-.079.105-.053.157 1.288 2.36.395 4.537.395 4.563-.027.052 0 .13.052.157.026.026.026.026.053.026ZM253.467 85.562c.247 0 .447-.4.447-.892 0-.493-.2-.892-.447-.892s-.447.4-.447.892.2.892.447.892Z" fill="#6B3425"/><path d="M255.517 82.338c-.342-.289-1.051-.656-1.787-.735-.815-.078-1.262.289-1.577.368-.316.078-.368-.368-.184-.735.158-.367.841-.656 1.945-.63 1.104.053 1.708.525 1.997.866.289.341.079 1.26-.394.866Z" fill="#000"/><path d="M246.687 85.354c.247 0 .447-.4.447-.892 0-.493-.2-.892-.447-.892s-.447.4-.447.892.2.892.447.892Z" fill="#6B3425"/><path d="M248.316 81.997c-.341-.289-1.051-.656-1.787-.735-.815-.079-1.261.289-1.577.367-.315.08-.368-.367-.184-.734.158-.367.841-.656 1.945-.63 1.104.053 1.709.525 1.998.866.289.341.078 1.285-.395.866Z" fill="#000"/><path d="m260.881 130.662-.079 13.871s-16.611.183-17.662-.079c-1.078-.262-6.439-4.51-6.991-4.746-.552-.236-1.078 0-.867.655.21.656 1.051 2.701 1.051 2.701s-4.074-.446-4.442-.682c-.368-.209-2.812-2.097-3.311-2.255-.5-.157-1.367.158-1.131.682.211.525 2.524 3.488 2.524 3.488s-.474 3.172.735 4.326c1.209 1.154 6.834 2.098 9.594 2.281 2.733.184 23.496 2.832 25.231 2.754 1.734-.079 4.258-.604 5.151-4.327.894-3.723 1.183-17.935 1.183-17.935l-10.986-.734Z" fill="#F69576"/><path d="m274.678 112.281-13.877 32.252-17.767 7.21 31.302 8.549.342-48.011Z" fill="#EAEAEA"/><path d="M249.632 89.286c.657-.577 5.414.866 5.414.866l-5.23-.236c-.026.026-.42-.42-.184-.63ZM249.053 89.154c.368 0 .499.735.499.735h-3.732s2.444-.735 3.233-.735Z" fill="#000"/><path d="M266.346 80.738s-5.309-.577-11.144-4.09c-4.441-2.701-8.962-6.765-8.962-6.765l6.991-5.454c-3.364-6.765 5.415-5.848 7.254-2.23 3.759-3.408 9.462 3.41 6.807 6.635 9.226 1.494 5.178 8.233 1.472 6.083l-2.418 5.821ZM257.962 118.339l-.394 23.442-12.931.76-1.945 11.118s25.888 3.88 27.465 2.963c1.577-.918 4.153-45.363 4.153-45.363l-16.348 7.08Z" fill="#fff"/><path d="M250.972 108.9s-4.73-4.405-6.886-4.3c-1.471.079-1.524 7.08.552 7.106 2.024 0 6.334-2.806 6.334-2.806Z" fill="#512176"/><path d="M249.054 108.9s4.731-4.405 6.886-4.3c1.472.079 1.524 7.08-.552 7.106-2.024 0-6.334-2.806-6.334-2.806Z" fill="#512176"/><path d="M250.157 110.473h-.735a1.12 1.12 0 0 1-1.131-1.127v-1.993c0-.629.5-1.127 1.131-1.127h.762c.631 0 1.13.498 1.13 1.127v1.993c0 .629-.526 1.127-1.157 1.127Z" fill="#512176"/><path d="M169.442 118.051c2.891.865 3.417 8.758 3.417 8.758l-9.094-2.098s2.76-7.526 5.677-6.66ZM131.833 114.616c1.156 1.101 5.309 5.506 5.44 6.581.132 1.075-.368 3.356-1.656 3.881-1.288.524-5.098 1.757-6.991 2.15-1.918.419-3.39-1.862-2.497-7.211.894-5.349 4.574-6.45 5.704-5.401ZM150.598 121.564s-1.603-4.327-5.23-4.379c-3.601-.027-4.6 4.352-4.6 4.352l9.83.027ZM151.519 121.8s-.447-5.9 6.229-4.798c6.676 1.101 5.808 6.503 5.808 6.503l-12.037-1.705ZM147.208 131.318s-3.863 3.173-6.86 1.101c-2.996-2.045-1.261-6.791-1.261-6.791l8.121 5.69ZM148.102 131.632s-3.811 5.323 2.339 8.155c6.15 2.832 8.594-2.806 8.594-2.806l-10.933-5.349Z" fill="#FFA539"/><path d="M134.75 120.647c2.601-.158 19.554-.577 28.91 2.019 9.357 2.596 18.713 11.118 19.791 12.009 1.078.892 1.551 2.15 1.183 2.596-.368.446-.973.682-.973.682s.447.419-.052.629c-.473.21-4.784 1.888-11.801 1.337-7.018-.55-15.165-2.045-24.127-7.184-8.963-5.14-12.564-7.945-13.878-8.994-1.287-1.023-1.997-2.911.947-3.094Z" fill="#A5713D"/><path d="M167.393 135.146s-3.417.708-5.415 2.701c-1.997 1.993-1.892 3.802-.473 5.165 1.42 1.364 3.259.656 4.784-1.442 1.524-2.071 2.575-3.907 2.575-3.907s-1.997-1.311-1.471-2.517Z" fill="#FFA539"/><path d="M181.821 138.556s.184 1.128-.42 2.308c-.579 1.18-2.445 2.071-2.445 2.071s1.157-1.101 1.577-2.15c.447-1.049.237-2.229.237-2.229h1.051Z" fill="#A5713D"/><path d="M177.487 132.994c.154-.514.109-.98-.1-1.043-.208-.062-.502.304-.656.818-.154.513-.109.98.1 1.042.208.062.502-.303.656-.817ZM133.987 123.454c.184-.393 1.183-.944 1.866-1.022.684-.053 1.104-.263 1.709-.735.604-.472 1.314-.341 1.813-.445.526-.131 2.444-.787 2.55-.708.105.078-.053.76.262.734.316-.026 1.577-.026 1.788.288.21.289.341.63.604.63.263.026.841-.263 1.025-.053.184.236.184.498.184.498s.473-.105.71.184c.236.288-.053.472.052.655.105.184.894.42.868.761-.027.341-.605.367-.421.682.184.314.421.55.263.812-.158.263-.499.079-.394.368.105.288.289.498-.132 1.048-.42.577-.525.499-1.156 1.652-.631 1.154-.999 1.967-2.076 2.701-1.052.734-2.865 1.285-3.496 1.285-.631 0-2.628-.603-3.39-.656-.763-.052-1.919-.236-2.234-.55-.316-.341-.447-.787-.789-.682-.342.079-.447.21-.604-.184-.158-.393.078-.734-.29-.786-.368-.053-.683.052-.63-.394.052-.472.446-.734.262-.891-.183-.157-.473-.157-.394-.577.079-.393.263-.891.5-1.101.236-.21.683-.262.63-.787-.052-.55-.184-.524.106-.865.289-.341 1.13-1.023 1.051-1.285 0-.341-.368-.288-.237-.577Z" fill="#6B3425"/><path d="M123.16 126.626c.105-.132 1.051.681 1.682.943.631.263 1.288.472 1.288.472l.052.158s1.051.524 1.735.708a5.272 5.272 0 0 0 1.261.183s-.105-.157.29-.105c.394.053 2.864.394 3.206.341.342-.052.972.472.894.656-.079.183-.815.734-1.709.76-.893 0-2.365-.288-2.549-.393-.184-.105-1.288-.21-2.024-.498-.736-.262-1.051-.446-1.104-.551-.052-.105-1.025-.472-1.892-1.232-.894-.708-1.235-1.311-1.13-1.442ZM134.014 130.664s-3.049 1.153-3.47 1.284c-.42.132-2.97 1.075-3.075 1.128-.105.052-.841.393-1.314.787-.473.393-.999.97-.946.996.053.026.394.446.788.21.395-.236 1.761-1.285 1.761-1.285s.316.157.92-.079a88.688 88.688 0 0 0 2.103-.891s1.13-.131 2.076-.42c.946-.288 2.313-.996 2.313-.996l-1.156-.734ZM135.88 131.425l1.525.367-3.969 2.57s-1.918 1.992-1.918 2.097c0 .105.105 2.281-.079 2.439-.158.157-.657-1.049-.868-1.678-.184-.63.079-1.18.053-1.207-.026-.026.026-.498.71-1.258.683-.761 1.629-1.259 1.629-1.259s-.289 0 .605-.524c.893-.525 2.312-1.547 2.312-1.547Z" fill="#6B3425"/><path d="m137.669 132.185-.736.97s-1.13.603-1.472.813c-.342.21-.368.446-.368.446s-.316.079-.605.419c-.289.341-.368.971-.315 1.233.053.262 1.051 1.993 1.051 1.993s.684-.761.71-1.443a3.062 3.062 0 0 0-.158-1.127l.132-.157 1.629-1.6s.605-.157 1.025-.446c.394-.288.789-.865.789-.865l-1.682-.236ZM144.685 129.458l1.472.367s1.025-.236 1.471-.289c.447-.078.71.053.71.053s.421-.184.92 0a1.58 1.58 0 0 1 1.025 1.153c.105.577.289 1.679.289 1.679s-.71.078-1.393-.577c-.683-.656-.683-1.049-.683-1.049l-.237-.079-2.155-.026s-.762.236-1.393.236-.894-.079-.894-.079l.868-1.389Z" fill="#6B3425"/><path d="M145.841 127.755s3.18-.446 3.311-.42a.497.497 0 0 1 .211.184s1.419-.21 2.207-.105c.789.078 1.209.288 1.209.288l-.026.158s.368.157.71.681c.368.551.683 1.888.552 2.019-.132.131-.658-.708-.841-.944-.184-.236-.868-.813-.868-.813l-2.681-.367-4.678.708.894-1.389ZM146.498 126.127l3.838-1.494 2.943-1.075.026.078s.92-.367 1.499-.288c.578.079 1.261.184 1.261.184s-.105.603-.447.655c-.341.052-2.076.184-2.076.184s-.368.314-.841.498c-.447.183-2.208.76-2.208.76s-1.945 1.023-2.523 1.206c-.578.184-1.787.42-1.787.42l.315-1.128ZM146.603 123.899s1.131-1.022 1.525-1.468c.394-.446.762-1.18.841-1.18.079 0 .184.052.184.052s.631-.629.946-1.232c.315-.577.631-1.468.631-1.468l-.079-.21s.526-.708.736-1.364c.21-.681.368-1.547.499-1.547.132 0 .421.866.21 1.652-.21.787-.657 2.255-.657 2.255l.105.158s-.446.996-.735 1.547c-.29.55-.841 1.101-.841 1.101s-.474 1.206-1.315 1.862c-.867.655-2.023 1.022-2.023 1.022l-.027-1.18ZM145.343 122.43s.447-.918.263-1.548c-.21-.629-1.446-2.858-.421-3.723 1.025-.891 1.735-.341 1.998 0 .289.367.499 1.311.552 2.386.052 1.075-.289 1.809-.736 2.203-.421.393-.789 1.285-.789 1.285l-.867-.603Z" fill="#6B3425"/><path d="M139.009 113.594s1.367 0 2.103.131c.736.131 1.419.367 1.419.367s.526-.183 1.814.472c1.287.656 2.313 1.652 2.602 2.046.289.393.394.681.026 1.206-.368.524-1.998.918-2.812.891-.815-.026-1.262-.367-1.262-.367s-1.261-.393-2.05-.655c-.788-.262-2.155-.734-2.602-1.206-.42-.446-.21-.997-.21-.997l.604.629.263-.209.394.314.29-.052.157.157s.316-.105.473-.052c.158.052.289.157.289.157l.421.053-.342-.263s.105-.209-.026-.314c-.131-.131-.289-.184-.289-.184s.184-.131.131-.262c-.052-.131-.315-.262-.315-.262s.263-.105.184-.289c-.079-.183-.605-.341-.605-.341s.132-.262-.026-.472c-.052-.262-.631-.498-.631-.498ZM127.339 123.768c-.421-.656-.5-1.18 0-2.307.499-1.128 1.551-2.99 2.129-3.199.578-.236.867-.236.867-.236s1.235-.708 1.814-1.023c.578-.315 1.393-.524 1.393-.524s-.5.55-.526.786c0 .236.131.577.131.577s-.42.367-.368.577c.053.21.316.21.316.21s-.368.288-.289.472c.078.209.236.314.236.314s-.263.262-.21.498c.052.263.289.446.289.446s-.026-.262.237-.314c.262-.053.394.052.394.052l.105-.341.263.079.289-.577.342.184.394-.918s.447.314.263.918c-.184.576-.605.865-1.577 1.887-.973 1.023-1.735 1.705-1.998 1.836-.263.131-.499.183-.499.183s-2.944 2.019-3.995.42Z" fill="#6B3425"/><path d="M127.706 122.693c.867-.105 1.656.603 1.998 1.179.368.577.525 1.312.972 1.862.447.551 1.997 1.442 1.997 1.442l-.315.944s-1.156-.813-1.577-.839c-.42-.026-1.13.105-1.892-.367s-2.182-2.229-2.103-2.91c.105-.682.421-1.259.92-1.311Z" fill="#6B3425"/><path d="M134.899 123.409c.218-.08.281-.453.141-.834-.14-.381-.431-.625-.649-.545-.218.08-.281.454-.14.835.14.38.431.624.648.544ZM141.207 121.073c.231-.085.293-.496.138-.918-.156-.421-.47-.694-.701-.609-.232.085-.293.496-.138.917.155.422.469.695.701.61Z" fill="#000"/><path d="M164.975 97.206c2.865-.892 7.701 5.375 7.701 5.375l-8.726 3.304s-1.892-7.788 1.025-8.68ZM131.78 115.219c1.577.289 7.49 1.652 8.2 2.465.71.813 1.551 2.989.789 4.143-.789 1.154-3.259 4.274-4.6 5.69-1.367 1.416-3.863.341-6.097-4.615-2.261-4.956.184-7.945 1.708-7.683ZM151.256 110.578s-3.759-2.7-6.781-.734c-3.023 1.967-1.393 6.162-1.393 6.162l8.174-5.428ZM152.148 110.264s-3.653-4.667 2.497-7.447c6.15-2.779 8.437 2.203 8.437 2.203l-10.934 5.244ZM153.883 120.568s-1.445 4.772-5.072 4.72c-3.627-.053-4.836-4.956-4.836-4.956l9.908.236ZM154.803 120.333s-.184 6.529 6.491 5.481c6.702-1.049 5.572-7.08 5.572-7.08l-12.063 1.599Z" fill="#FFA539"/><path d="M137.589 118.603c2.077-1.573 15.928-11.328 25.153-14.369 9.225-3.042 21.762-1.128 23.155-.997 1.393.131 2.47.918 2.444 1.495-.026.577-.421 1.127-.421 1.127s.605.105.316.551c-.289.446-2.944 4.222-9.068 7.657-6.15 3.435-13.745 6.712-24.048 7.42-10.303.708-14.876.341-16.532.236-1.708-.157-3.364-1.337-.999-3.12Z" fill="#A5713D"/><path d="M172.781 112.545s-2.444 2.491-2.996 5.245c-.552 2.753.552 4.195 2.497 4.536 1.945.341 3.075-1.285 3.18-3.855.105-2.569-.026-4.693-.026-4.693s-2.418.052-2.655-1.233Z" fill="#FFA539"/><path d="M186.658 107.378s.789.839.946 2.151c.158 1.311-.867 3.094-.867 3.094s.342-1.547.132-2.675c-.211-1.101-1.052-1.993-1.052-1.993l.841-.577Z" fill="#A5713D"/><path d="M179.871 106.188c.208-.064.248-.531.09-1.043-.159-.512-.456-.875-.664-.811-.208.064-.248.531-.09 1.043.159.512.456.875.664.811ZM143.318 107.483c.184-.393 1.182-.944 1.866-1.023.683-.052 1.104-.262 1.708-.734.605-.472 1.314-.341 1.814-.446.525-.131 2.444-.786 2.549-.708.105.079-.052.761.263.735.315-.027 1.577-.027 1.787.288.21.288.342.629.605.629.262.027.841-.262 1.025-.052.184.236.184.498.184.498s.473-.105.709.184c.237.288-.052.472.053.655.105.184.893.42.867.761-.026.34-.604.367-.42.681.184.315.42.551.262.813-.157.262-.499.079-.394.367.105.289.289.499-.131 1.049-.421.577-.526.498-1.157 1.652-.63 1.154-.998 1.967-2.076 2.701-1.051.734-2.865 1.285-3.496 1.285-.63 0-2.628-.603-3.39-.656-.762-.052-1.919-.236-2.234-.55-.315-.341-.447-.787-.788-.682-.342.078-.447.21-.605-.184-.158-.393.079-.734-.289-.786-.368-.053-.683.052-.631-.394.053-.472.447-.734.263-.891-.184-.158-.473-.158-.394-.577.079-.393.263-.892.499-1.101.237-.21.683-.263.631-.787-.053-.551-.184-.524.105-.865.289-.341 1.13-1.023 1.051-1.285 0-.341-.368-.315-.236-.577Z" fill="#6B3425"/><path d="M132.49 110.656c.105-.131 1.051.682 1.682.944.631.262 1.288.472 1.288.472l.053.158s1.051.524 1.734.708a5.277 5.277 0 0 0 1.262.183s-.105-.157.289-.105c.394.053 2.865.394 3.206.341.342-.052.973.472.894.656-.079.183-.815.734-1.708.76-.894.026-2.366-.288-2.55-.393-.157-.105-1.288-.21-2.023-.499-.736-.262-1.052-.445-1.104-.55-.053-.105-1.025-.472-1.893-1.233-.893-.734-1.235-1.311-1.13-1.442ZM143.319 114.669s-3.049 1.154-3.47 1.285c-.42.131-2.97 1.075-3.075 1.127-.105.053-.841.394-1.314.787-.473.393-.999.97-.946.996.053.027.394.446.788.21.395-.236 1.761-1.285 1.761-1.285s.316.158.92-.078c.605-.236 2.103-.892 2.103-.892s1.13-.131 2.076-.419c.946-.289 2.313-.997 2.313-.997l-1.156-.734ZM145.211 115.455l1.524.367-3.968 2.57s-1.919 1.993-1.919 2.098c0 .104.105 2.281-.079 2.438-.158.157-.657-1.049-.867-1.678-.184-.629.079-1.18.052-1.206-.026-.026.027-.498.71-1.259.683-.76 1.63-1.258 1.63-1.258s-.29 0 .604-.525c.894-.524 2.313-1.547 2.313-1.547Z" fill="#6B3425"/><path d="m146.999 116.216-.736.97s-1.13.603-1.472.813c-.341.21-.368.446-.368.446s-.315.078-.604.419c-.289.341-.368.97-.316 1.233.053.262 1.052 1.992 1.052 1.992s.683-.76.709-1.442c.027-.655-.157-1.127-.157-1.127l.131-.158 1.63-1.599s.604-.157 1.025-.446c.394-.288.788-.865.788-.865l-1.682-.236ZM154.015 113.488l1.472.367s1.025-.236 1.472-.288c.447-.079.709.052.709.052s.421-.183.92 0c.5.184.894.577 1.025 1.154.105.577.289 1.678.289 1.678s-.709.079-1.392-.577c-.684-.655-.684-1.048-.684-1.048l-.236-.079-2.156-.026s-.762.236-1.393.236c-.63 0-.893-.079-.893-.079l.867-1.39Z" fill="#6B3425"/><path d="M155.171 111.785s3.18-.445 3.312-.419c.131.052.21.183.21.183s1.419-.209 2.208-.104c.788.078 1.209.288 1.209.288l-.027.157s.368.158.71.682c.342.524.683 1.888.552 2.019-.131.131-.657-.708-.841-.944-.184-.236-.867-.813-.867-.813l-2.681-.367-4.678.708.893-1.39ZM155.829 110.158l3.837-1.494 2.944-1.076.026.079s.92-.367 1.498-.288c.578.078 1.262.183 1.262.183s-.106.603-.447.656c-.342.052-2.076.183-2.076.183s-.368.315-.842.499c-.446.183-2.207.76-2.207.76s-1.945 1.023-2.523 1.206c-.579.184-1.788.42-1.788.42l.316-1.128ZM155.934 107.93s1.13-1.022 1.524-1.468c.394-.446.762-1.18.841-1.18.079 0 .184.052.184.052s.631-.629.946-1.232c.316-.577.631-1.469.631-1.469l-.079-.209s.526-.708.736-1.364c.211-.682.368-1.547.5-1.547.105 0 .42.865.21 1.652-.184.787-.657 2.255-.657 2.255l.105.157s-.447.997-.736 1.547c-.289.551-.841 1.102-.841 1.102s-.473 1.206-1.314 1.861c-.867.656-2.024 1.023-2.024 1.023l-.026-1.18ZM154.673 106.462s.447-.918.263-1.547c-.21-.63-1.445-2.858-.42-3.724 1.025-.865 1.734-.341 1.997 0 .289.367.5 1.311.552 2.386.053 1.075-.289 1.81-.736 2.203-.42.393-.788 1.285-.788 1.285l-.868-.603Z" fill="#6B3425"/><path d="M148.34 97.625s1.366 0 2.102.131c.736.131 1.42.367 1.42.367s.525-.183 1.813.472c1.288.656 2.313 1.652 2.602 2.045.289.394.394.682.026 1.207-.394.524-1.997.917-2.812.891-.815-.052-1.261-.367-1.261-.367s-1.262-.393-2.05-.656c-.789-.262-2.156-.734-2.602-1.206-.421-.445-.211-.996-.211-.996l.605.629.263-.21.394.315.289-.052.158.157s.315-.105.473-.052c.157.052.289.157.289.157l.42.052-.341-.262s.105-.21-.027-.314c-.131-.132-.289-.184-.289-.184s.184-.131.132-.262c-.053-.131-.316-.262-.316-.262s.263-.105.184-.289c-.079-.184-.604-.34-.604-.34s.131-.263-.026-.473c-.079-.262-.631-.498-.631-.498ZM136.669 107.799c-.42-.656-.499-1.18 0-2.308.5-1.127 1.551-2.989 2.129-3.199.578-.236.868-.236.868-.236s1.235-.708 1.813-1.022c.578-.315 1.393-.525 1.393-.525s-.499.551-.526.787c0 .236.132.577.132.577s-.421.367-.368.577c.052.183.315.209.315.209s-.368.289-.289.472a.953.953 0 0 0 .237.315s-.263.262-.211.498c.053.262.289.446.289.446s-.026-.262.237-.315c.237-.026.394.053.394.053l.105-.341.263.079.289-.577.342.183.394-.917s.447.314.263.917c-.184.577-.604.866-1.577 1.888-.972 1.023-1.735 1.705-1.997 1.836-.263.131-.5.183-.5.183s-2.97 1.993-3.995.42Z" fill="#6B3425"/><path d="M137.011 106.698c.867-.105 1.656.603 1.998 1.18.367.577.525 1.311.972 1.862.447.55 1.997 1.442 1.997 1.442l-.315.944s-1.156-.813-1.577-.839c-.42-.027-1.13.104-1.892-.367-.762-.472-2.182-2.229-2.103-2.911.079-.682.447-1.232.92-1.311Z" fill="#6B3425"/><path d="M144.232 107.436c.218-.08.281-.454.141-.834-.141-.381-.431-.625-.649-.545-.218.08-.281.454-.141.834.141.381.431.625.649.545ZM150.541 105.099c.232-.085.294-.496.138-.917-.155-.422-.469-.694-.7-.609-.232.085-.294.495-.138.917.155.421.469.694.7.609Z" fill="#000"/><path opacity=".6" d="M141.373 138.268h-11.144v6.267h11.144v-6.267Z" fill="#fff"/><path opacity=".6" d="M147.708 136.931h-8.726v4.903h8.726v-4.903Z" fill="#fff"/><path opacity=".6" d="M154.541 140.025h-13.299v5.375h13.299v-5.375Z" fill="#fff"/><path opacity=".6" d="M157.957 137.823h-10.014v4.353h10.014v-4.353Z" fill="#fff"/><path opacity=".6" d="M165.08 138.268h-13.535v6.713h13.535v-6.713Z" fill="#fff"/><path opacity=".6" d="M167.866 135.778h-8.726v6.319h8.726v-6.319Z" fill="#fff"/><path opacity=".6" d="M173.28 138.189h-11.354v6.372h11.354v-6.372Z" fill="#fff"/><path opacity=".6" d="M177.538 135.778h-9.672v5.428h9.672v-5.428Z" fill="#fff"/><path opacity=".6" d="M177.538 139.974h-8.095v4.536h8.095v-4.536Z" fill="#fff"/><path d="M176.46 114.355v23.756c0 1.023-.552 1.862-1.262 1.862-.683 0-1.261-.839-1.261-1.862v-23.782l-3.627-.052v27.165c0 1.022-.552 1.861-1.262 1.861-.683 0-1.261-.839-1.261-1.861V114.25l-3.391-.052v27.244c0 1.022-.552 1.861-1.261 1.861-.684 0-1.262-.839-1.262-1.861v-27.297l-3.837-.052v27.349c0 1.022-.552 1.861-1.262 1.861-.683 0-1.261-.839-1.261-1.861v-27.375l-3.601-.053v27.454c0 1.022-.552 1.861-1.261 1.861-.684 0-1.262-.839-1.262-1.861v-27.506l-3.39-.053v27.533c0 1.022-.552 1.861-1.262 1.861-.683 0-1.262-.839-1.262-1.861v-27.559l-3.837-.052v27.611c0 1.022-.552 1.861-1.261 1.861-.684 0-1.262-.839-1.262-1.861v-27.664l-4.179-.052v24.385c0 1.023-.552 1.862-1.261 1.862-.684 0-1.262-.839-1.262-1.862v-24.438l-9.856-.157 7.307 31.308c.736 3.068 2.68 5.139 4.862 5.139h43.55c2.208 0 4.179-2.123 4.889-5.244l6.702-30.18-11.407-.184Z" fill="#1E2E38"/><path d="M185.896 120.779h-64.734a4.93 4.93 0 1 1 0-9.859h64.734a4.93 4.93 0 1 1 0 9.859Z" fill="#1E2E38"/><path d="m108.809 130.952.079 13.871s16.611.184 17.662-.079c1.051-.262 6.439-4.51 6.991-4.746.552-.236 1.078 0 .868.656-.211.655-1.052 2.701-1.052 2.701s4.074-.446 4.442-.682c.368-.21 2.812-2.098 3.312-2.255.499-.157 1.366.157 1.13.682-.237.524-2.523 3.487-2.523 3.487s.473 3.173-.736 4.327c-1.209 1.153-6.834 2.097-9.593 2.281-2.76.183-23.497 2.832-25.232 2.753-1.734-.079-4.257-.603-5.15-4.326-.895-3.724-1.184-17.936-1.184-17.936l10.986-.734Z" fill="#F69576"/></svg>