<svg width="375" height="306" fill="none" xmlns="http://www.w3.org/2000/svg"><path d="M170.574 53.524c18.161 3.432 52.381-66.623 90.281-51.166 37.899 15.457 10.04 65.26 23.549 76.421 13.509 11.16 50.515-23.186 66.074 12.89 15.559 36.075-8.069 74.692-8.41 80.692-.342 5.999 42.656 38.25 30.724 82.656-11.932 44.407-170.39 48.704-226.95 50.407-56.56 1.702-132.174 1.571-143.318-44.722C-8.62 214.409 42 174.09 46.679 161.148c4.678-12.942-37.663-57.978 15.427-113.336 41.027-42.808 90.307 2.28 108.468 5.712Z" fill="#9ECBDD"/><path d="M160.43 166.36H78.323v22.138h82.107V166.36Z" fill="#776B67"/><path d="M161.56 168.012H76.378v-28.347h68.519l16.663 13.912v14.435Z" fill="#6B3425"/><path d="M123.819 188.499H78.323v-29.263l22.761-18.418 22.735 18.418v29.263Z" fill="#776B67"/><path d="M130.678 124.967h-6.86v15.85h6.86v-15.85Z" fill="#A5713D"/><path d="M133.281 137.726h-11.775v5.161h11.775v-5.161Z" fill="#E7D0B0"/><path d="M99.902 153.837h-2.707v6.707h2.707v-6.707ZM104.186 153.837h-3.101v6.707h3.101v-6.707ZM89.703 170.58h-3.758v1.284h3.758v-1.284ZM93.96 170.58h-3.102v1.284h3.102v-1.284ZM89.703 172.78h-3.758v8.252h3.758v-8.252ZM93.96 172.78h-3.102v8.252h3.102v-8.252ZM132.334 171.862h-4.126v2.961h4.126v-2.961ZM132.334 176.892h-4.126v2.698h4.126v-2.698ZM132.334 181.033h-4.126v2.698h4.126v-2.698ZM138.537 171.862h-4.127v2.961h4.127v-2.961ZM138.537 176.892h-4.127v2.698h4.127v-2.698ZM138.537 181.033h-4.127v2.698h4.127v-2.698ZM144.765 171.862h-4.127v2.961h4.127v-2.961ZM144.765 176.892h-4.127v2.698h4.127v-2.698ZM144.765 181.033h-4.127v2.698h4.127v-2.698ZM150.967 171.862h-4.126v2.961h4.126v-2.961ZM150.967 176.892h-4.126v2.698h4.126v-2.698ZM150.967 181.033h-4.126v2.698h4.126v-2.698ZM157.17 171.862h-4.126v2.961h4.126v-2.961ZM157.17 176.892h-4.126v2.698h4.126v-2.698ZM157.17 181.033h-4.126v2.698h4.126v-2.698ZM111.413 170.58h-3.758v1.284h3.758v-1.284ZM115.67 170.58h-3.102v1.284h3.102v-1.284ZM111.413 172.78h-3.758v8.252h3.758v-8.252ZM115.67 172.78h-3.102v8.252h3.102v-8.252Z" fill="#417A8C"/><path d="M279.859 136.601h-2.366v8.593h2.366v-8.593Z" fill="#6B3425"/><path d="M328.428 166.494h-60.607v-21.3l30.304-7.231 30.303 7.231v21.3Z" fill="#E7D0B0"/><path d="M330.373 166.494h-64.707v20.697h64.707v-20.697Z" fill="#A5713D"/><path d="M279.202 151.559h-3.391v8.305h3.391v-8.305ZM284.301 151.559h-4.468v8.305h4.468v-8.305ZM298.02 151.559h-3.391v8.305h3.391v-8.305ZM303.145 151.559h-4.468v8.305h4.468v-8.305ZM315.392 151.559h-3.391v8.305h3.391v-8.305ZM320.517 151.559h-4.468v8.305h4.468v-8.305ZM279.202 168.904h-3.391v8.305h3.391v-8.305ZM284.301 168.904h-4.468v8.305h4.468v-8.305ZM298.02 168.904h-3.391v8.305h3.391v-8.305ZM303.145 168.904h-4.468v8.305h4.468v-8.305ZM315.392 168.904h-3.391v8.305h3.391v-8.305ZM320.517 168.904h-4.468v8.305h4.468v-8.305Z" fill="#417A8C"/><path d="M2.524 260.702c11.144 46.293 86.785 46.45 143.318 44.721 56.534-1.729 214.991-5.999 226.95-50.406 8.121-30.207-9.173-54.808-20.974-69.322H28.044c-15.06 19.073-32.538 45.848-25.52 75.007Z" fill="#776B67"/><path d="M13.431 206.707c-9.251 15.85-15.638 34.398-10.907 53.995 11.144 46.293 86.785 46.45 143.319 44.721 56.533-1.729 214.99-6 226.949-50.406 4.994-18.575.368-35.028-6.649-48.31H13.431Z" fill="#8A9995"/><path d="M187.606 150.537s10.881-4.584 15.979 5.083c5.099 9.667-3.627 15.824-7.99 16.112-4.362.288-8.883-1.179-12.011.105-3.127 1.258-9.12 7.126-15.979 6.838-6.86-.288-13.273-5.633-14.692-16.532-2.366-17.762 12.747-15.719 12.747-15.719s-4.416-14.357 4.126-19.151c8.542-4.794 18.03-.498 20.868 6.55 2.813 7.021-3.048 16.714-3.048 16.714Z" fill="#96C22F"/><path d="M179.564 138.8s.394 9.379-1.183 12.104c-1.577 2.725-4.021 5.266-3.811 5.869.184.576 8.621 16.924 11.065 22.766 2.445 5.842 1.972 7.703 1.367 8.986-.578 1.258-.394 10.925-.394 10.925h-6.361s.079-6.916.763-9.772c.709-2.829 1.577-2.829 1.288-4.192-.29-1.362-11.276-27.063-10.303-29.421.972-2.358 4.205-3.013 5.099-6.235.893-3.223 2.47-11.03 2.47-11.03Z" fill="#6B3425"/><path d="M191.416 159.523s-5.598 5.188-6.965 7.415c-1.366 2.253-3.469 6.34-3.469 6.34l1.997 2.934s2.024-7.231 3.233-8.881c1.183-1.651 5.204-7.808 5.204-7.808ZM158.38 158.843s5.782 3.51 9.593 4.401 8.332 1.572 8.332 1.572l1.182 3.065s-18.424-4.453-19.107-9.038Z" fill="#6B3425"/><path d="M220.801 42.05s-1.944-3.72 2.445-4.14c-.447-2.96 3.837-7.44 11.301-5.528 1.262-3.222 8.384-8.933 13.325-1.99 9.436-3.957 10.776 1.728 9.515 2.75 7.306-1.336 6.018 3.694 4.783 4.244 9.672-2.07 8.358 4.663 8.358 4.663h-49.727ZM51.305 115.328s-1.366-3.485 1.735-3.878c-.315-2.777 2.707-6.942 7.964-5.161.893-3.013 5.913-8.331 9.382-1.86 6.65-3.694 7.596 1.624 6.702 2.567 5.152-1.231 4.258 3.432 3.365 3.956 6.833-1.938 5.887 4.349 5.887 4.349H51.305v.027Z" fill="#fff"/><path d="M84.05 198.874H72.619v6.549H84.05v-6.549Z" fill="#6B3425"/><path d="M95.143 184.097h14.508l-4.258-18.103-10.25-3.851h9.331l-1.104-4.664-16.506-1.257 15.481-3.118-2.182-9.274-13.299-4.166s7.254-.419 12.143-.681l-6.597-28.164-10.828-.943 10.329-1.152-13.589-57.768-8.016 34.11h4.968l-5.677 3.013-2.55 10.82H76.3l-9.777 2.332-.894 3.772h5.178l-5.599 1.808-5.361 22.74 12.8 2.699-14.088 2.856-4.31 18.286h13.299l-14.64 5.659-4.468 18.916a4892.18 4892.18 0 0 0 17.242 2.462l-18.424 2.568-3.733 15.876h69.623l-2.077-8.829-15.927-5.947Z" fill="#7EA21A"/><path d="M316.362 191.907h6.15v-3.537h-6.15v3.537Z" fill="#6B3425"/><path d="M310.371 180.404h-7.806l2.287-9.746 5.519-2.07h-5.02l.578-2.515 8.884-.681-8.332-1.677 1.183-5.004 7.149-2.253s-3.917-.236-6.545-.367l3.575-15.169 5.834-.497-5.572-.629 7.333-31.124 4.337 18.365h-2.681l3.049 1.624 1.367 5.817h-4.968l5.283 1.257.473 2.044h-2.812l3.022.969 2.891 12.235-6.886 1.441 7.596 1.545 2.313 9.851h-7.149l7.885 3.039 2.391 10.191c-3.784.55-9.277 1.336-9.277 1.336l9.935 1.389 2.023 8.541h-37.557l1.13-4.768 8.568-3.144Z" fill="#7EA21A"/><path d="M239.987 83.311H78.192v123.815h161.795V83.311Z" fill="#7A7A7A"/><path d="M242.589 78.439H69.072v13.78h173.517V78.44Z" fill="#A5713D"/><path d="M244.061 78.439h-58.242v132.224h58.242V78.439ZM84.972 85.33H74.669v125.333h10.303V85.329Z" fill="#A5713D"/><path d="M189.945 88.97H79.795v19.937h110.15V88.97Z" fill="#A5713D"/><path d="M182.874 93.686h-99.69v9.955h99.69v-9.956ZM236.413 92.219h-41.185V206.55h41.185V92.219Z" fill="#E7D0B0"/><path d="M293.209 183.574h-19.975s-1.839.183-3.338 1.205c-1.471 1.022-2.023 2.017-2.602 6.995-.551 4.978 2.313 23.5 2.313 23.5h23.576v-31.7h.026Z" fill="#FF6D00"/><path d="M292.472 186.245s-21.446.105-23.128 0c-1.656-.105-2.392.917-2.786 1.651-.368.733-1.419 4.689-1.419 4.689h27.333v-6.34Z" fill="#FF6D00"/><path d="M265.665 193.242h27.544v3.799l-26.808-.367-.736-3.432ZM269.318 213.178l23.89-.471v2.567h-23.575l-.315-2.096Z" fill="#8A9995"/><path d="M277.596 191.723h-2.182v5.711h2.182v-5.711ZM282.434 191.513h-2.208v5.947h2.208v-5.947Z" fill="#ADB2B1"/><path d="M281.066 192.926h-4.31v5.816h4.31v-5.816ZM286.744 178.78h-1.84v4.794h1.84v-4.794Z" fill="#8A9995"/><path d="M286.69 179.382h12.195v1.808s-1.84-.682-5.782-.682c-3.943 0-6.413.865-6.413.865v-1.991ZM291.499 183.574h19.975s1.84.183 3.338 1.205c1.472 1.022 2.024 2.017 2.602 6.995.552 4.978-2.313 23.5-2.313 23.5h-23.575v-31.7h-.027Z" fill="#FF6D00"/><path d="M292.261 186.245s21.447.105 23.129 0c1.656-.105 2.392.917 2.786 1.651.368.733 1.419 4.689 1.419 4.689h-27.334v-6.34Z" fill="#FF6D00"/><path d="M319.07 193.242h-27.571v3.799l26.835-.367.736-3.432ZM315.416 213.178l-23.917-.471v2.567h23.602l.315-2.096Z" fill="#8A9995"/><path d="M307.132 197.458h2.181v-5.712h-2.181v5.712Z" fill="#ADB2B1"/><path d="M300.62 178.78h-1.839v4.794h1.839v-4.794Z" fill="#8A9995"/><path d="M303.129 197.333h2.181v-5.712h-2.181v5.712Z" fill="#ADB2B1"/><path d="M303.663 198.742h4.31v-5.816h-4.31v5.816Z" fill="#8A9995"/><path d="M153.702 112.262v3.38h-48.255v-3.38h-.788v4.271h49.936v-4.271h-.893Z" fill="#383D42"/><path d="M160.929 112.262H99.034v1.074h61.895v-1.074Z" fill="#00497F"/><path d="M159.588 111.554h-58.32v1.782h58.32v-1.782Z" fill="#00497F"/><path d="M167.71 170.133c1.379 0 2.497-2.205 2.497-4.925 0-2.721-1.118-4.926-2.497-4.926-1.379 0-2.497 2.205-2.497 4.926 0 2.72 1.118 4.925 2.497 4.925Z" fill="#383D42"/><path d="M167.788 110.583h-6.86v32.618h6.86v-32.618Z" fill="#00497F"/><path d="M167.446 141.445h-6.518v64.187h6.518v-64.187Z" fill="#00497F"/><path d="M169.497 204.218h-9.987v2.489h9.987v-2.489Z" fill="#00497F"/><path d="m160.929 164.763-5.756 1.624h-18.162v.681l13.878 2.515 10.04.76v-5.58Z" fill="#A5A5A5"/><path d="M93.2 170.135c1.38 0 2.497-2.205 2.497-4.925 0-2.721-1.118-4.926-2.497-4.926-1.379 0-2.497 2.205-2.497 4.926 0 2.72 1.118 4.925 2.497 4.925Z" fill="#383D42"/><path d="M93.125 143.215h6.86v-32.617h-6.86v32.617Z" fill="#00497F"/><path d="M93.454 205.619h6.518v-64.187h-6.518v64.187Z" fill="#00497F"/><path d="M91.412 206.683h9.987v-2.489h-9.987v2.489Z" fill="#00497F"/><path d="m99.98 164.765 5.757 1.624h18.135v.681l-13.851 2.515-10.04.76v-5.58Z" fill="#A5A5A5"/><path d="M112.201 172.57h-2.102a1.59 1.59 0 0 1-1.603-1.599v-4.82h5.282v4.82c.027.891-.683 1.599-1.577 1.599Z" fill="#000"/><path d="M131.992 155.671H108.18s-.052-1.126.657-2.593c.71-1.441 2.103-2.725 2.996-3.878.894-1.179 1.709-3.851 2.891-6.078 1.183-2.201 3.338-5.004 3.338-5.004h13.93v17.553Z" fill="#FFE051"/><path d="M113.307 146.239h-2.339a1.052 1.052 0 0 1-1.052-1.048c0-.576.473-1.047 1.052-1.047h.709c.894 0 1.63.733 1.63 1.624v.471Z" fill="#FFE051"/><path d="M131.993 155.67h-24.285v7.808h24.285v-7.808Z" fill="#E8BB3A"/><path d="M108.523 159.339s2.576-.367 3.102 0c.525.367 1.682 3.17 1.682 3.17h-3.391l-1.393-3.17Z" fill="#8A9995"/><path d="M109.601 154.23c.42-.786 5.44-1.022 6.308-.42.867.603 1.944 2.201 1.734 2.594-.21.341-9.278.183-8.042-2.174ZM119.508 156.012a.839.839 0 1 0 0-1.677.84.84 0 1 0 0 1.677Z" fill="#fff"/><path d="M131.993 166.963h-23.759a.941.941 0 0 1-.947-.943v-2.541h24.732v3.484h-.026Z" fill="#606060"/><path d="M131.993 148.31s-9.33 0-12.905-.262c-3.574-.262-4.415-2.594-4.415-2.594l3.627-6.34h13.719v9.196h-.026Z" fill="#749DC1"/><path d="M131.992 162.508h-11.039a.848.848 0 0 1-.841-.969l.552-3.825a1.384 1.384 0 0 1 1.367-1.179h9.987v5.973h-.026Z" fill="#303030"/><path d="M131.992 156.798h-8.227v.891h8.227v-.891ZM131.992 158.371h-8.227v.89h8.227v-.89ZM131.992 159.549h-8.227v.891h8.227v-.891ZM131.992 161.147h-8.227v.891h8.227v-.891Z" fill="#606060"/><path d="M123.845 162.929h-1.025l.868-6.917h1.025l-.868 6.917Z" fill="#8A9995"/><path d="M132.02 165.233h-4.127v1.1h4.127v-1.1Z" fill="#303030"/><path d="M149.128 172.57h2.102c.894 0 1.604-.708 1.604-1.599v-4.82h-5.283v4.82c-.027.891.709 1.599 1.577 1.599Z" fill="#000"/><path d="M129.337 155.671h23.812s.053-1.126-.657-2.593c-.71-1.441-2.103-2.725-2.996-3.878-.894-1.179-1.709-3.851-2.891-6.078-1.183-2.201-3.338-5.004-3.338-5.004h-13.93v17.553Z" fill="#FFE051"/><path d="M148.051 146.239h2.339c.579 0 1.052-.471 1.052-1.048 0-.576-.473-1.047-1.052-1.047h-.709c-.894 0-1.63.733-1.63 1.624v.471Z" fill="#FFE051"/><path d="M129.359 163.48h24.286v-7.807h-24.286v7.807Z" fill="#E8BB3A"/><path d="M152.835 159.339s-2.576-.367-3.101 0c-.526.367-1.682 3.17-1.682 3.17h3.39l1.393-3.17Z" fill="#8A9995"/><path d="M151.757 154.23c-.421-.786-5.441-1.022-6.308-.42-.868.603-1.945 2.201-1.735 2.594.21.341 9.278.183 8.043-2.174ZM141.823 156.012a.839.839 0 1 0 0-1.677.84.84 0 1 0 0 1.677Z" fill="#fff"/><path d="M129.338 166.963h23.759a.941.941 0 0 0 .947-.943v-2.541h-24.732v3.484h.026Z" fill="#606060"/><path d="M129.338 148.31s9.33 0 12.905-.262c3.574-.262 4.415-2.594 4.415-2.594l-3.627-6.34h-13.719v9.196h.026Z" fill="#749DC1"/><path d="M129.338 162.508h11.039c.525 0 .92-.471.841-.969l-.552-3.825a1.384 1.384 0 0 0-1.367-1.179h-9.987v5.973h.026Z" fill="#303030"/><path d="M129.356 157.697h8.227v-.891h-8.227v.891ZM129.356 159.275h8.227v-.89h-8.227v.89ZM129.356 160.46h8.227v-.89h-8.227v.89ZM129.356 162.014h8.227v-.891h-8.227v.891Z" fill="#606060"/><path d="M137.485 162.928h1.025l-.841-6.916h-1.025l.841 6.916Z" fill="#8A9995"/><path d="M129.341 166.321h4.126v-1.101h-4.126v1.101Z" fill="#303030"/><path d="M209.367 55.593H102.319v25.832h107.048V55.593Z" fill="#fff"/><path d="m117.642 64.344-2.444 2.986c-.5-.524-.946-.864-1.314-1.022-.368-.157-.71-.183-.973-.104a1.257 1.257 0 0 0-.683.498 3.198 3.198 0 0 0-.447.76c-.105.261-.21.576-.315.995 0 .026.026.13.052.367.053.21.132.471.289.733.158.262.368.472.657.603.289.13.684.105 1.157-.053.473-.157 1.104-.576 1.813-1.231l2.734 2.908c-.132.262-.368.55-.736.838-.342.289-.762.524-1.236.76-.473.236-.998.42-1.576.576a7.956 7.956 0 0 1-1.735.263 5.516 5.516 0 0 1-1.735-.184 4.687 4.687 0 0 1-1.577-.786c-.709-.55-1.209-1.126-1.55-1.781a5.615 5.615 0 0 1-.605-1.991c-.079-.682 0-1.363.158-2.07a9.5 9.5 0 0 1 .736-1.939 7.999 7.999 0 0 1 1.104-1.624c.42-.472.867-.865 1.287-1.153.368-.21.71-.367 1.052-.445.341-.079.709-.157 1.156-.21.447-.052.92 0 1.446.131.525.131 1.051.367 1.629.708.552.288 1.104.812 1.656 1.467Z" fill="#512176"/><path d="m123.582 61.592 7.044 10.69-4.389 1.65-1.183-1.939-2.943.105-.579 2.096-4.205-1.362 6.255-11.24Zm-.709 8.279 1.656-.288-.684-1.886-.972 2.174Z" fill="#512176"/><path d="m139.615 71.73-2.155 2.437-3.391-2.49-.052 2.385-3.391-.34-.21-10.873a135.12 135.12 0 0 1 5.099-.524c.867-.105 1.603-.026 2.181.183.578.21 1.025.55 1.314.97.29.419.473.917.526 1.467.053.55-.053 1.126-.236 1.729-.184.603-.526 1.153-.973 1.73a6.307 6.307 0 0 1-1.656 1.44l2.944 1.886Zm-5.782-5.763-.132 2.227c.342-.08.631-.184.868-.315.236-.13.446-.288.63-.445.158-.157.29-.315.395-.446.105-.13.131-.262.157-.34 0-.026 0-.079.027-.157 0-.079 0-.21-.027-.341-.026-.131-.105-.236-.236-.34-.132-.08-.316-.132-.578-.132a3.828 3.828 0 0 0-1.104.289ZM149.943 66.754c.29.131.579.289.894.446.289.157.578.367.815.602.236.236.447.524.604.865.158.34.263.733.263 1.205.026.655-.079 1.231-.315 1.755a3.49 3.49 0 0 1-1.025 1.284c-.447.34-.973.629-1.577.812a7.955 7.955 0 0 1-1.971.315c-.316 0-.658 0-.999-.053a13.923 13.923 0 0 1-1.025-.183c-.342-.079-.657-.184-.973-.288-.315-.105-.604-.236-.893-.367l1.051-2.987c.131.053.289.131.499.21.184.078.395.157.631.236.237.078.447.13.71.183.236.052.473.079.709.079.342-.027.631-.079.868-.184.236-.105.341-.262.341-.524a.394.394 0 0 0-.236-.367 5.862 5.862 0 0 0-.552-.235 3.72 3.72 0 0 0-.552-.158c-.237-.052-.473-.157-.736-.262a5.467 5.467 0 0 1-.788-.392c-.263-.158-.5-.341-.736-.577a3.286 3.286 0 0 1-.552-.76c-.158-.288-.21-.628-.237-1.021a3.637 3.637 0 0 1 .342-1.73 3.68 3.68 0 0 1 .999-1.283c.42-.367.92-.629 1.471-.812a6.548 6.548 0 0 1 1.788-.315c.578-.026 1.156 0 1.734.105.579.079 1.13.236 1.63.445l-.815 3.223c-.368-.157-.71-.288-1.025-.393a5.49 5.49 0 0 0-1.078-.236c-.131-.026-.289-.026-.499-.026-.184 0-.394.026-.578.052a1.066 1.066 0 0 0-.499.21c-.132.105-.211.236-.211.393 0 .078.027.13.105.183.079.053.158.079.237.105.105.026.21.052.289.052.079 0 .184.027.263.027.263.052.552.13.867.21.263-.027.526.052.762.156ZM152.782 62.955l7.701-.577-.42 3.511-3.496.157-.026.655 2.549-.183-.289 2.436-2.339.184-.026.76 3.995-.367-.079 3.85-7.464.394-.106-10.82ZM170.233 71.73l-2.155 2.437-3.391-2.49-.052 2.385-3.391-.34-.21-10.873a135.12 135.12 0 0 1 5.099-.524c.867-.105 1.603-.026 2.181.183.579.21 1.025.55 1.315.97.289.419.473.917.525 1.467.053.55-.052 1.126-.236 1.729-.184.603-.526 1.153-.973 1.73a6.307 6.307 0 0 1-1.656 1.44l2.944 1.886Zm-5.782-5.763-.132 2.227c.342-.08.631-.184.868-.315.236-.13.447-.288.631-.445.157-.157.289-.315.394-.446.105-.13.131-.262.158-.34 0-.026 0-.079.026-.157 0-.079 0-.21-.026-.341-.027-.131-.106-.236-.237-.34-.131-.08-.315-.132-.578-.132a3.828 3.828 0 0 0-1.104.289Z" fill="#512176"/><path d="m173.23 62.09 2.05 4.9 2.392-4.795 3.469 2.017-6.15 10.506-5.756-10.296 3.995-2.332Z" fill="#512176"/><path d="m185.136 62.3-.579 11.266-3.679.419.131-11.187 4.127-.498ZM195.569 64.344l-2.445 2.986c-.499-.524-.946-.864-1.314-1.022-.368-.157-.709-.183-.972-.104a1.26 1.26 0 0 0-.684.498 3.193 3.193 0 0 0-.446.76 7.413 7.413 0 0 0-.316.995c0 .026.026.13.053.367.052.21.131.471.289.733.158.262.368.472.657.603.289.13.683.105 1.156-.053.473-.157 1.104-.576 1.814-1.231l2.733 2.908c-.131.262-.368.55-.736.838-.341.289-.762.524-1.235.76-.473.236-.999.42-1.577.576a7.938 7.938 0 0 1-1.735.263 5.51 5.51 0 0 1-1.734-.184 4.687 4.687 0 0 1-1.577-.786c-.71-.55-1.209-1.126-1.551-1.781a5.613 5.613 0 0 1-.604-1.991c-.079-.682 0-1.363.157-2.07a9.558 9.558 0 0 1 .736-1.939 8.081 8.081 0 0 1 1.104-1.624 7.296 7.296 0 0 1 1.288-1.153c.368-.21.71-.367 1.051-.445.342-.079.71-.157 1.157-.21.446-.052.92 0 1.445.131.526.131 1.052.367 1.63.708.552.288 1.104.812 1.656 1.467ZM196.49 62.955l7.7-.577-.42 3.511-3.496.157-.026.655 2.549-.183-.289 2.436-2.339.184-.026.76 3.995-.367-.079 3.85-7.464.394-.105-10.82Z" fill="#512176"/><path d="m221.273 87.528-21.157-1.86s9.488-13.885 10.329-14.619c.841-.733 7.359-2.83 7.885-3.17.499-.34.631-.89 0-1.074-.657-.183-2.76-.629-2.76-.629s2.733-3.117 3.128-3.3c.394-.184 3.311-1.153 3.732-1.494.42-.314.657-1.205.105-1.336-.552-.105-4.284.157-4.284.157s-2.287-2.148-3.916-1.782c-1.63.341-5.677 4.507-7.412 6.681-1.735 2.175-15.927 17.946-16.873 19.413-.946 1.494-1.998 3.878.499 6.681 2.471 2.803 23.523 10.977 23.523 10.977l7.201-14.645Z" fill="#DD866F"/><path d="m222.008 55.933-7.674-1.782a.624.624 0 0 0-.736.446l-3.548 15.195a.621.621 0 0 0 .446.733l7.675 1.782a.624.624 0 0 0 .736-.445l3.548-15.196c.079-.34-.105-.655-.447-.733Z" fill="#000"/><mask id="mask0_131_6799" style="mask-type:luminance" maskUnits="userSpaceOnUse" x="213" y="82" width="40" height="79"><path d="M237.489 83.338s7.017-1.153 12.011 6.13c4.994 7.284 2.155 19.754 2.497 33.22.342 13.467-.867 37.412-.867 37.412h-34.588s.867-29.421-1.446-41.315c-2.312-11.894-2.496-27.797 1.998-31.072 4.494-3.248 13.273-5.92 20.395-4.375Z" fill="#fff"/></mask><g mask="url('#mask0_131_6799')"><path d="M237.489 83.338s7.017-1.153 12.011 6.13c4.994 7.284 2.155 19.754 2.497 33.22.342 13.467-.867 37.412-.867 37.412h-34.588s.867-29.421-1.446-41.315c-2.312-11.894-2.496-27.797 1.998-31.072 4.494-3.248 13.273-5.92 20.395-4.375Z" fill="#000"/></g><path d="M225.741 47.97s6.203-3.904 13.168.523c4.678 2.987 4.152 13.152 3.495 17.082-1.498 9.274-9.698 10.086-9.698 10.086s-29.857-21.64-6.965-27.692Z" fill="#6B3425"/><path d="M228.58 82.42c4.152 0 9.067.392 11.643 2.043-11.144 6.523-18.214 11.396-18.214 11.396s-5.703-7.073-4.337-8.96c1.998-2.75 7.728-4.48 10.908-4.48Z" fill="#F69576"/><path d="m223.243 73.853-2.654 17.108 10.749-1.834s6.203-1.52 5.283-5.947c-.92-4.428-3.233-9.327-3.233-9.327h-10.145Z" fill="#F69576"/><path d="M230.286 78.516s.132 3.144-1.971 4.533c-2.102 1.388-6.728 1.388-6.728 1.388l1.656-10.584h6.833c-.026 0 .473 2.672.21 4.663Z" fill="#DD866F"/><path d="M220.931 53.104s-2.05 1.677-2.944 5.423c-.683 2.856-.526 5.947-.894 7.676-.367 1.73-.946 4.48-.446 6.89.499 2.41 2.628 5.686 6.597 6.786 3.968 1.1 7.227.314 9.409-2.436 2.181-2.751 4.915-7.703 5.703-11.109.789-3.405 1.262-9.903-2.418-12.758-4.678-3.616-10.25-3.668-15.007-.472Z" fill="#F69576"/><path d="M228.132 72.387s-.368 2.332-1.761 2.83c-1.393.497-2.786.157-3.417-.603-.63-.76-.972-2.253-.972-2.253l6.15.026Z" fill="#fff"/><path d="M224.637 69.845c-.447-.079-.421-.498-.421-.733v-.053c-.026.026-.052.026-.052.053-.158.104-.421.314-.71.026-.105-.105-.158-.288-.158-.498.027-.445.316-1.074.579-1.284.052-.052.131-.026.184.026.052.053.026.131-.027.184-.184.13-.447.681-.473 1.074 0 .13.026.236.079.288.105.105.184.079.368-.052.079-.053.184-.131.263-.131.052 0 .105 0 .158.052.078.079.078.184.078.34 0 .289.027.446.211.472.078.026.131 0 .184-.026.078-.052.078-.236.078-.367 0-.104 0-.183.053-.235a.22.22 0 0 1 .184-.105c.131 0 .263.078.473.288.026.026.079.079.158.052.079-.026.184-.13.236-.34.053-.315-.236-.97-.368-1.18-.026-.052-.026-.156.053-.183.053-.026.158-.026.184.053.052.078.499.89.394 1.362-.052.288-.21.498-.42.55a.375.375 0 0 1-.421-.13c-.105-.105-.184-.158-.21-.184v.079c0 .157-.026.419-.184.576a.446.446 0 0 1-.263.078c-.158-.052-.184-.052-.21-.052Z" fill="#6B3425"/><path d="M244.427 63.846c-1.235-3.039-10.171-.288-8.515 5.319 1.708 5.711 10.329-.839 8.515-5.319Z" fill="#F69576"/><path d="M237.593 69.845c.027 0 .053 0 .079-.026a.126.126 0 0 0 0-.184c-.368-.392-.447-1.676.026-2.907.316-.865 1.157-2.385 3.075-2.62 1.025-.131 1.761.052 2.182.524.604.68.315 1.807.315 1.834-.026.078.027.13.105.157.079.026.132-.026.158-.105.026-.052.342-1.284-.368-2.07-.473-.55-1.288-.733-2.392-.602-1.498.183-2.707 1.205-3.311 2.803-.473 1.257-.447 2.646.026 3.196.026-.026.079 0 .105 0Z" fill="#6B3425"/><path d="M240.8 69.347a.144.144 0 0 0 .131-.078c.053-.105 1.051-2.568-.447-5.319-.026-.052-.105-.078-.184-.052-.052.026-.079.105-.052.183 1.419 2.62.446 5.057.42 5.083-.026.079 0 .157.079.183h.053ZM229.051 67.225c.276 0 .499-.434.499-.969 0-.535-.223-.97-.499-.97s-.499.435-.499.97c0 .535.223.97.499.97ZM232.625 63.296c-.499-.446-1.55-1.022-2.602-1.153-1.182-.131-1.839.42-2.313.55-.473.131-.525-.55-.289-1.153.263-.576 1.262-1.021 2.865-.969 1.603.053 2.497.838 2.944 1.336.42.55.079 1.991-.605 1.389ZM221.509 66.963c.275 0 .499-.434.499-.97 0-.535-.224-.97-.499-.97-.276 0-.5.435-.5.97 0 .536.224.97.5.97ZM223.322 63.06c-.394-.471-1.183-1.1-1.971-1.231-.894-.131-1.393.445-1.761.602-.368.131-.394-.602-.21-1.205.184-.629.946-1.074 2.181-1.022 1.235.079 1.892.891 2.234 1.441.315.524.053 2.07-.473 1.415Z" fill="#6B3425"/><path d="M251.131 160.099s1.972 14.357 2.156 25.492c.184 11.134-.552 19.203 0 20.461.551 1.257 2.523 12.208 3.416 21.378.894 9.169 2.891 31.229 2.891 31.229h-15.27s-2.024-32.67-3.285-34.845c-1.262-2.174-7.753-33.586-7.753-33.586s-4.153 20.277-3.969 22.085c.184 1.808.71 13.65 0 20.278-.71 6.628-4.31 26.041-4.31 26.041H209.92l3.207-35.918s.526-9.327 1.077-20.645c.552-11.317 2.34-42.022 2.34-42.022h34.587v.052Z" fill="#FF6D00"/><path d="M197.436 259.183c-1.919.76-1.551 5.659-1.551 5.659l27.807-.393c.132-1.205 0-6.576 0-6.576H210.84s-8.305-.707-13.404 1.31ZM235.176 260.964c-1.55 1.336-1.156 4.715-1.156 4.715l24.889.341-.919-7.362h-10.303c.026 0-10.539.603-12.511 2.306Z" fill="#3D3B38"/><path d="M247.739 87.714s-2.707-2.175-6.256 2.279c-3.548 4.454-5.755 28.792-5.755 28.792h-3.785s.999-20.304 3.679-25.596c2.681-5.292 7.281-9.09 7.281-9.09l4.836 3.615Z" fill="#FF6D00"/><path d="M233.731 114.881h-19.292l2.103 45.193s23.391.183 23.654.079c.263-.053-6.465-45.272-6.465-45.272Z" fill="#FF6D00"/><path d="M217.673 86.902s-2.997 3.982-3.233 9.3c-.237 5.345 1.183 19.859 1.183 19.859h-1.209s-4.889-24.627 3.259-29.16Z" fill="#FF6D00"/><path d="M210.996 63.218s3.89 1.153 3.627 1.808c-.263.655-4.915 1.231-4.915 1.231l1.288-3.039Z" fill="#DD866F"/><path d="M221.011 52.004c.631.655 6.098 1.86 8.542 2.594 2.444.733 3.732 3.799 4.967 3.799 1.236 0 5.704-1.284 5.704-1.284l-2.392-5.423-6.281-1.991-7.254.786-3.286 1.52Z" fill="#6B3425"/><path d="M189.209 87.713s1.708 6.681 2.103 8.253c.394 1.572 19.186 37.202 19.974 38.512.789 1.31 5.388 6.157 5.388 6.157l-2.891 3.274-5.782-4.322-21.946-42.966-1.183-7.336 4.337-1.572Z" fill="#383D42"/><path d="m195.386 101.047-7.385 4.061a2.336 2.336 0 0 0-.973 3.039l10.198 20.75a2.315 2.315 0 0 0 3.18 1.021l7.596-4.087a2.318 2.318 0 0 0 .972-3.065l-10.408-20.723c-.578-1.179-2.024-1.624-3.18-.996Z" fill="#263644"/><path d="m286.086 212.393 7.332-17.999a3.349 3.349 0 0 0 2.629-2.017 3.285 3.285 0 0 0-.789-3.615l-1.314 3.222-1.393-.157-1.314-.943 1.209-2.987a3.323 3.323 0 0 0-2.497 1.991 3.279 3.279 0 0 0 .421 3.222l-7.465 18.261c-.63.262-1.182.76-1.445 1.441a2.652 2.652 0 0 0 .42 2.672l1.078-2.62 1.235.262 1.078.681-1.051 2.568a2.615 2.615 0 0 0 2.05-1.598c.394-.786.262-1.677-.184-2.384Z" fill="#3D3B38"/><path d="m237.305 117.344-.079 15.405s-18.45.21-19.633-.079c-1.182-.288-7.149-5.004-7.779-5.265-.631-.262-1.209 0-.973.707.237.733 1.157 2.987 1.157 2.987s-4.521-.498-4.942-.76c-.42-.262-3.127-2.332-3.679-2.515-.552-.184-1.498.183-1.262.759.237.577 2.813 3.878 2.813 3.878s-.526 3.51.814 4.82c1.341 1.284 7.596 2.332 10.645 2.542 3.049.209 26.125 3.143 28.069 3.039 1.945-.105 4.731-.681 5.73-4.795.973-4.113 1.314-19.937 1.314-19.937l-12.195-.786Z" fill="#F69576"/><path d="M188.578 252.949h-45.811c-3.128 0-5.677-2.541-5.677-5.659v-8.253c0-3.117 2.549-5.659 5.677-5.659h45.811c3.127 0 5.677 2.542 5.677 5.659v8.253a5.661 5.661 0 0 1-5.677 5.659Z" fill="#3D3D3D"/><mask id="mask1_131_6799" style="mask-type:luminance" maskUnits="userSpaceOnUse" x="137" y="233" width="58" height="20"><path d="M188.578 252.949h-45.811c-3.128 0-5.677-2.541-5.677-5.659v-8.253c0-3.117 2.549-5.659 5.677-5.659h45.811c3.127 0 5.677 2.542 5.677 5.659v8.253a5.661 5.661 0 0 1-5.677 5.659Z" fill="#fff"/></mask><g mask="url('#mask1_131_6799')" fill="#000"><path d="m142.82 239.273-4.311-2.436-.21-4.48h-5.598v3.537l5.335 3.379h4.784ZM140.481 245.325l3.732-2.332-3.548-2.358h-5.046l3.259 2.358-3.68 2.332h5.283ZM138.036 246.845l-5.335 3.38v3.537h5.598l.21-4.507 4.311-2.41h-4.784Z"/><path d="m150.442 239.273-4.311-2.436-.236-4.48h-5.598v3.537l5.335 3.379h4.81ZM151.808 242.993l-3.548-2.358h-5.047l3.259 2.358-3.653 2.332h5.283l3.706-2.332ZM145.632 246.845l-5.335 3.38v3.537h5.598l.236-4.507 4.311-2.41h-4.81ZM158.746 239.273l-4.31-2.436-.237-4.48h-5.598v3.537l5.336 3.379h4.809Z"/><path d="m160.113 242.993-3.549-2.358h-5.046l3.259 2.358-3.653 2.332h5.283l3.706-2.332ZM153.937 246.845l-5.336 3.379v3.537h5.598l.237-4.506 4.31-2.41h-4.809ZM166.343 239.273l-4.284-2.436-.236-4.48h-5.598v3.537l5.335 3.379h4.783Z"/><path d="m167.736 242.993-3.548-2.358h-5.046l3.259 2.358-3.654 2.332h5.257l3.732-2.332ZM161.56 246.845l-5.335 3.379v3.537h5.598l.236-4.506 4.284-2.41h-4.783ZM173.964 239.273l-4.31-2.436-.21-4.48h-5.598v3.537l5.335 3.379h4.783Z"/><path d="m175.358 242.993-3.548-2.358h-5.047l3.259 2.358-3.679 2.332h5.283l3.732-2.332ZM169.181 246.845l-5.335 3.38v3.537h5.598l.21-4.507 4.31-2.41h-4.783ZM181.586 239.273l-4.31-2.436-.236-4.48h-5.599v3.537l5.336 3.379h4.809Z"/><path d="m182.952 242.993-3.548-2.358h-5.046l3.259 2.358-3.653 2.332h5.283l3.705-2.332ZM176.777 246.845l-5.336 3.38v3.537h5.599l.236-4.507 4.31-2.41h-4.809ZM189.891 239.273l-4.31-2.436-.237-4.48h-5.598v3.537l5.335 3.379h4.81Z"/><path d="m191.257 242.993-3.548-2.358h-5.046l3.259 2.358-3.653 2.332h5.283l3.705-2.332ZM185.081 246.845l-5.335 3.379v3.537h5.598l.237-4.506 4.31-2.41h-4.81ZM197.488 239.273l-4.284-2.436-.236-4.48h-5.599v3.537l5.336 3.379h4.783Z"/><path d="m198.88 242.993-3.548-2.358h-5.046l3.259 2.358-3.653 2.332h5.256l3.732-2.332ZM187.369 250.224v3.537h5.599l.236-4.506 4.284-2.41h-4.783l-5.336 3.379Z"/></g></svg>