<svg width="377" height="306" fill="none" xmlns="http://www.w3.org/2000/svg"><path d="M171.037 53.471c18.225 3.432 52.592-66.623 90.599-51.166 38.007 15.457 10.075 65.26 23.632 76.421 13.557 11.161 50.693-23.185 66.307 12.89 15.614 36.076-8.123 74.719-8.466 80.718-.343 6 42.807 38.25 30.832 82.657-11.974 44.406-170.99 48.703-227.749 50.406-56.733 1.729-132.64 1.572-143.824-44.721-11.183-46.293 39.615-86.613 44.31-99.555 4.695-12.916-37.795-57.977 15.483-113.335 41.198-42.835 90.677 2.253 108.876 5.685Z" fill="#9ECBDD"/><path d="M337.993 178.856H323.75v12.549h14.243v-12.549Z" fill="#749DC1"/><path d="M336.78 177.574h-10.102v3.93h10.102v-3.93Z" fill="#749DC1"/><path d="M332.322 176.315h-4.801v2.515h4.801v-2.515ZM335.276 169.215h-1.556v10.322h1.556v-10.322ZM321.878 178.464h-15.799v12.916h15.799v-12.916Z" fill="#749DC1"/><path d="M326.679 184.385h-8.097v7.021h8.097v-7.021ZM321.166 158.788h-13.083v20.068h13.083v-20.068Z" fill="#749DC1"/><path d="M319.082 145.741h-8.994v14.671h8.994v-14.671Z" fill="#749DC1"/><path d="M318.133 125.202h-6.673v21.614h6.673v-21.614Z" fill="#749DC1"/><path d="M316.498 125.647h-3.482v-12.078l1.767-1.807 1.715 1.807v12.078ZM282.711 150.038h-6.673v-12.471l3.324-2.332 3.349 2.332v12.471Z" fill="#749DC1"/><path d="M288.909 150.038h-6.647v-12.471l3.323-2.332 3.324 2.332v12.471Z" fill="#749DC1"/><path d="M295.397 150.038h-6.673v-12.471l3.35-2.332 3.323 2.332v12.471Z" fill="#749DC1"/><path d="M295.398 146.816h-22.999v44.564h22.999v-44.564Z" fill="#749DC1"/><path d="M282.236 148.363h-11.394v43.044h11.394v-43.044ZM306.106 172.542h-14.031v18.837h14.031v-18.837ZM268.918 159.549h-22.789v31.831h22.789v-31.831Z" fill="#749DC1"/><path d="M276.038 180.795h-13.082v10.611h13.082v-10.611ZM266.465 113.885h-20.336v45.664h20.336v-45.664Z" fill="#749DC1"/><path d="M265.013 120.46h-10.471v-8.698l10.471 1.021v7.677ZM252.722 102.829h-1.424v13.282h1.424v-13.282ZM249.346 102.829h-1.424v13.282h1.424v-13.282ZM241.697 152.214h-3.877v16.977h3.877v-16.977Z" fill="#749DC1"/><path d="M243.016 155.435h-13.214v18.261h13.214v-18.261Z" fill="#749DC1"/><path d="M247.922 167.278h-18.12v24.129h18.12v-24.129ZM236.422 149.278h-2.084v7.205h2.084v-7.205ZM226.031 190.699h-15.535v-62.458l3.64-2.594 11.895 3.878v61.174Z" fill="#749DC1"/><path d="M227.614 130.495h-17.883v60.911h17.883v-60.911Z" fill="#749DC1"/><path d="M233.02 187.895h-12.818v3.511h12.818v-3.511ZM203.269 161.488h-16.59v29.211h16.59v-29.211Z" fill="#749DC1"/><path d="M212.448 175.478h-14.111v15.928h14.111v-15.928ZM184.859 183.442h-4.932v7.965h4.932v-7.965Z" fill="#749DC1"/><path d="M191.848 188.628h-14.374v2.777h14.374v-2.777ZM198.76 164.579h-7.465v-4.349l3.719-2.044 3.746 2.044v4.349ZM202.319 150.745h-1.952v11.37h1.952v-11.37ZM189.607 150.904h-1.926v11.318h1.926v-11.318Z" fill="#749DC1"/><path d="M2.395 260.651c11.183 46.293 87.091 46.45 143.824 44.721 56.733-1.729 215.749-5.999 227.75-50.406 8.15-30.207-9.205-54.807-21.048-69.321H28.006c-15.113 19.072-32.653 45.847-25.61 75.006Z" fill="#7EA21A"/><path d="M13.341 206.656c-9.284 15.85-15.693 34.399-10.945 53.995 11.183 46.293 87.09 46.45 143.824 44.721 56.733-1.729 215.749-5.999 227.749-50.406 5.012-18.575.37-35.028-6.673-48.31H13.342Z" fill="#8A9995"/><path d="M214.452 101.022s-3.27-6.288 4.167-6.995c-.764-5.004 6.515-12.549 19.149-9.326 2.136-5.45 14.19-15.065 22.577-3.354 15.983-6.654 18.252 2.934 16.115 4.663 12.397-2.227 10.207 6.21 8.124 7.153 16.405-3.485 14.137 7.859 14.137 7.859h-84.269ZM271.844 127.09s-1.372-3.485 1.741-3.878c-.317-2.777 2.716-6.942 7.991-5.161.897-3.013 5.935-8.331 9.416-1.86 6.673-3.694 7.623 1.624 6.726 2.568 5.17-1.232 4.273 3.432 3.376 3.956 6.858-1.939 5.908 4.349 5.908 4.349h-35.158v.026Z" fill="#fff"/><path d="M1.894 235.55h195.862V34.66c-10.735 11.029-19.861 20.12-26.692 18.81-18.225-3.432-67.705-48.52-108.876-5.711C8.91 103.116 51.4 148.178 46.704 161.094c-3.824 10.532-38.191 39.193-44.811 74.456Z" fill="#D1D1D1"/><path d="M11.494 209.93c-4.352 7.991-7.886 16.584-9.6 25.622h195.862V209.93H11.494Z" fill="#776B67"/><path d="M66.224 43.856v191.695h85.587V44.931c-22.498-11.58-55.836-27.64-85.587-1.075Z" fill="#1F5D8C"/><path d="M70.575 40.292v190.465h75.96v-188.5c-21.073-10.505-49.611-21.718-75.96-1.965Z" fill="#9ECBDD"/><path d="M146.535 111.03v-7.153l-75.96 26.828v7.152l75.96-26.827ZM70.575 117.606v7.152l75.96-26.828v-7.152l-75.96 26.828ZM130.974 35.29c-18.489-7.074-40.09-10.244-60.399 4.977v16.348l60.399-21.326ZM70.575 172.624v58.108h75.96v-84.936l-75.96 26.828Z" fill="#749DC1"/><path d="M90.937 73.803c.343.157.66.314 1.002.498.343.183.66.419.924.68.263.263.5.603.685.996.185.393.29.839.317 1.363.026.733-.08 1.414-.37 1.965a3.862 3.862 0 0 1-1.16 1.44 5.51 5.51 0 0 1-1.793.917c-.686.21-1.451.34-2.269.367-.369 0-.738 0-1.134-.052-.395-.053-.791-.105-1.16-.21-.37-.105-.739-.21-1.108-.34a9.316 9.316 0 0 1-1.029-.42l1.213-3.38c.159.053.343.132.554.237.211.104.449.183.713.288.263.078.527.157.79.21.265.052.555.078.818.078.396-.026.713-.079 1.003-.21.29-.13.395-.314.395-.576 0-.183-.105-.314-.263-.42a4.903 4.903 0 0 0-.633-.287c-.159-.053-.37-.105-.633-.184-.264-.078-.528-.183-.844-.288a14.22 14.22 0 0 1-.897-.445 3.897 3.897 0 0 1-.818-.655 5.217 5.217 0 0 1-.633-.865 2.652 2.652 0 0 1-.264-1.153c-.026-.733.106-1.388.396-1.965a4.16 4.16 0 0 1 1.134-1.467 5.703 5.703 0 0 1 1.662-.943c.633-.236 1.319-.34 2.03-.367.66-.026 1.32 0 1.979.105.66.105 1.266.262 1.846.498l-.95 3.642c-.421-.184-.817-.341-1.16-.446-.343-.13-.765-.21-1.213-.262-.132-.026-.317-.026-.554-.026-.211 0-.448.026-.66.079a1.764 1.764 0 0 0-.553.235.61.61 0 0 0-.264.446c0 .078.026.157.105.21a.95.95 0 0 0 .29.104c.106.026.238.053.343.053.106.026.211.026.29.026.317.078.634.13.977.236.342.078.633.157.896.288Z" fill="#000"/><path d="m101.857 72.335-1.899.236v8.88l-4.51.551.237-9.012-2.083.21.105-3.878 8.572-.734-.422 3.747ZM112.037 80.43a5.575 5.575 0 0 1-1.398.996 7.904 7.904 0 0 1-1.767.655c-.633.157-1.266.21-1.926.21a5.798 5.798 0 0 1-1.899-.34 4.926 4.926 0 0 1-1.661-.996 5.043 5.043 0 0 1-1.24-1.73 6.563 6.563 0 0 1-.633-2.357 6.441 6.441 0 0 1 .158-2.253 6.948 6.948 0 0 1 .818-2.044 7.92 7.92 0 0 1 1.372-1.729 7.75 7.75 0 0 1 1.819-1.336 7.79 7.79 0 0 1 2.163-.865c.712-.183 1.398-.236 2.031-.157.633.079 1.213.21 1.714.446.502.235.95.523 1.293.838.343.314.633.655.791.995.317.63.58 1.337.739 2.149.158.786.211 1.624.105 2.462-.079.865-.343 1.703-.712 2.568-.396.864-.976 1.703-1.767 2.489Zm-2.11-6.732c-.158-.341-.369-.577-.66-.734a1.673 1.673 0 0 0-.949-.183 3.04 3.04 0 0 0-1.029.288c-.343.183-.659.419-.949.733-.29.315-.528.682-.712 1.127-.185.445-.29.943-.29 1.467 0 .498.052.917.211 1.231.158.315.342.55.58.708.237.157.501.236.817.262.317.026.607-.026.924-.131.29-.105.58-.262.844-.472.263-.21.501-.445.659-.733.264-.393.448-.786.58-1.153.132-.367.185-.681.211-.97.027-.288 0-.55-.026-.812a1.798 1.798 0 0 0-.211-.628ZM125.013 79.462l-2.453 2.777-3.85-2.83-.053 2.7-3.851-.394-.237-12.313c2.004-.236 3.956-.445 5.802-.603 1.002-.104 1.82-.026 2.479.21.66.262 1.161.629 1.504 1.1.343.472.527 1.048.58 1.677.053.629-.053 1.284-.29 1.965s-.607 1.31-1.108 1.939c-.501.629-1.134 1.179-1.872 1.65l3.349 2.122Zm-6.567-6.55-.132 2.542c.396-.079.712-.21 1.002-.367.29-.157.528-.34.712-.498.185-.183.343-.34.449-.524.105-.157.158-.288.184-.393 0-.026 0-.078.027-.183 0-.105 0-.236-.027-.367-.026-.157-.132-.262-.263-.367-.132-.104-.37-.157-.66-.13-.369 0-.765.078-1.292.288ZM125.224 69.507l8.757-.655-.501 3.982-3.983.183-.026.76 2.874-.21-.342 2.777-2.664.21-.027.864 4.537-.419-.079 4.35-8.493.445-.053-12.287Z" fill="#000"/><path d="m277.779 177.103-59.344-1.074s0 1.519.764 1.886c.765.367 1.662.524 1.583 1.127-.079.602-3.798 5.082-7.121 8.933-3.324 3.878-5.46 7.572-5.75 9.17-.29 1.598-.29 1.886-.897 2.358-.607.445-2.585 1.362-3.798 4.087-1.213 2.724-1.134 3.196-1.292 5.082-.159 1.887-.449 10.925-.449 10.925l130.452 3.642c.079-.236 2.875-15.981 2.637-18.339-.237-2.358-5.538-6.733-13.24-8.646-7.701-1.912-21.496-4.925-21.944-5.082-.475-.105-21.601-14.069-21.601-14.069Z" fill="#0C96FD"/><path d="M201.765 210.612c-.158 1.886-.29 9.012-.29 9.012l130.452 3.642c.053-.184 1.477-7.65 1.978-12.68 0 0-18.542-7.31-28.933-7.86-10.392-.576-25.11 5.135-35.739 4.428-10.629-.708-24.265-6.734-36.292-6.734-12.054-.026-31.176 10.192-31.176 10.192Z" fill="#1D7DCC"/><path d="M217.591 214.174h-17.038s-.686 3.196 0 4.925c.686 1.755 2.875 4.087 7.121 4.244 4.247.157 124.544.314 124.544.314s1.213-1.074 1.978-4.008c.765-2.96-.501-6.733-.501-6.733s-.923 1.651-4.801 2.358c-3.877.707-18.251.314-18.251.314l-12.265 6-64.803-2.044-15.984-5.37ZM220.756 179.068s-1.899 1.074-3.403 2.646c-1.503 1.572-2.901 5.344-2.901 5.344s7.49-7.021 6.304-7.99Z" fill="#2D2D2D"/><path d="M213.344 194.236c-1.213-.996-5.908 1.074-6.119 2.646-.211 1.572 3.851 1.886 4.537 1.284.686-.603 2.426-3.249 1.582-3.93Z" fill="#7D009B"/><path d="M232.125 197.486c0 2.174 6.832 2.174 6.832.157-.027-2.411-6.832-2.07-6.832-.157Z" fill="#1D7DCC"/><path d="M229.408 198.482h7.016a.404.404 0 0 0 .395-.393v-1.022a.403.403 0 0 0-.395-.393h-7.016a.404.404 0 0 0-.396.393v1.022c0 .209.185.393.396.393Z" fill="#878FB3"/><path d="m291.862 189.547-13.715-9.851s-40.195-.603-44.363-.603c-6.119 0-9.917 2.646-9.917 5.764 0 3.118 8.414 3.118 14.296 3.118 5.908-.027 53.699 1.572 53.699 1.572Z" fill="#2D2D2D"/><path d="M302.889 211.292h-.132v-12.785l-10.945-8.907.079-.105 10.998 8.934v12.863Z" fill="#024168"/><path d="M289.806 188.71c-.027-.681-1.135-2.567-2.691-2.567-1.556 0-1.556 4.532-.501 4.846 1.055.315 3.271-.681 3.192-2.279Z" fill="#F1F3F2"/><path d="M251.799 219.335h-.132v-17.894l2.269-12.863.132.026-2.269 12.837v17.894ZM225.451 216.768h-.131v-15.641l2.532-13.728.158.026-2.559 13.728v15.615Z" fill="#024168"/><path d="M322.776 196.699s4.721 3.091 5.327 4.742c.607 1.65 1.372 3.196 1.741 3.249.369.078 4.695.235 4.695.235s.475-3.694-.132-4.113c-.607-.419-9.838-5.004-11.631-4.113Z" fill="#F1F3F2"/><path d="M324.147 209.013h4.115a.499.499 0 0 0 .501-.498v-1.283a.5.5 0 0 0-.501-.498h-4.115a.5.5 0 0 0-.501.498v1.283a.5.5 0 0 0 .501.498Z" fill="#878FB3"/><path d="M262.404 197.486c0 2.174 6.831 2.174 6.831.157-.026-2.411-6.831-2.07-6.831-.157Z" fill="#1D7DCC"/><path d="M259.686 198.482h7.016a.405.405 0 0 0 .396-.393v-1.022a.404.404 0 0 0-.396-.393h-7.016a.403.403 0 0 0-.395.393v1.022c0 .209.184.393.395.393Z" fill="#878FB3"/><path d="M254.384 179.356h-.712v8.986h.712v-8.986ZM228.01 187.426h-.501v-7.152l.501-.21v7.362ZM219.147 223.5a16 16 0 0 1-.263-2.777c0-8.331 6.804-15.064 15.165-15.064 8.388 0 15.166 6.759 15.166 15.064 0 .944-.106 1.86-.264 2.777h-29.804Z" fill="#024168"/><path d="M234.05 231.833c7.064 0 12.791-5.689 12.791-12.707 0-7.017-5.727-12.706-12.791-12.706-7.065 0-12.792 5.689-12.792 12.706 0 7.018 5.727 12.707 12.792 12.707Z" fill="#000"/><path d="M234.051 227.693c4.763 0 8.624-3.836 8.624-8.567s-3.861-8.567-8.624-8.567c-4.764 0-8.625 3.836-8.625 8.567s3.861 8.567 8.625 8.567Z" fill="#606060"/><path d="M234.049 225.1c3.321 0 6.014-2.674 6.014-5.973s-2.693-5.974-6.014-5.974-6.013 2.675-6.013 5.974c0 3.299 2.692 5.973 6.013 5.973Z" fill="#000"/><path d="M241.355 223.763a10.479 10.479 0 0 1-1.187 1.493 9.04 9.04 0 0 1-1.371 1.101l-11.895-11.868a7.72 7.72 0 0 1 1.134-1.363c.474-.471.976-.838 1.503-1.179l11.816 11.816Z" fill="#A8A9AD"/><path d="M238.875 212.025a8.037 8.037 0 0 1 1.478 1.206c.422.419.791.89 1.107 1.388l-12.132 11.658a9.168 9.168 0 0 1-1.372-1.126 8 8 0 0 1-1.16-1.52l12.079-11.606Z" fill="#A8A9AD"/><path d="M288.038 223.5a16 16 0 0 1-.263-2.777c0-8.331 6.804-15.064 15.165-15.064 8.361 0 15.166 6.759 15.166 15.064 0 .944-.105 1.86-.264 2.777h-29.804Z" fill="#024168"/><path d="M302.941 231.833c7.064 0 12.792-5.689 12.792-12.707 0-7.017-5.728-12.706-12.792-12.706-7.065 0-12.792 5.689-12.792 12.706 0 7.018 5.727 12.707 12.792 12.707Z" fill="#000"/><path d="M302.942 227.693c4.763 0 8.625-3.836 8.625-8.567s-3.862-8.567-8.625-8.567-8.625 3.836-8.625 8.567 3.862 8.567 8.625 8.567Z" fill="#606060"/><path d="M302.94 225.1c3.321 0 6.014-2.674 6.014-5.973s-2.693-5.974-6.014-5.974-6.013 2.675-6.013 5.974c0 3.299 2.692 5.973 6.013 5.973Z" fill="#000"/><path d="M310.246 223.763a10.479 10.479 0 0 1-1.187 1.493 9.04 9.04 0 0 1-1.371 1.101l-11.895-11.868a7.72 7.72 0 0 1 1.134-1.363 9.075 9.075 0 0 1 1.503-1.179l11.816 11.816Z" fill="#A8A9AD"/><path d="M307.767 212.025a8.065 8.065 0 0 1 1.477 1.206c.422.419.791.89 1.107 1.388l-12.132 11.658a9.168 9.168 0 0 1-1.372-1.126 8 8 0 0 1-1.16-1.52l12.08-11.606Z" fill="#A8A9AD"/><path d="m210.522 263.95 1.556 11.685s10.55.393 13.399.838c3.429.524 7.359.865 8.361 3.956.87 2.672.58 3.825.58 3.825l-31.729 4.69-.027-23.815 7.86-1.179Z" fill="#F69576"/><path d="M212.078 275.634s10.55.393 13.399.839c3.429.524 7.358.864 8.361 3.956.87 2.672.58 3.825.58 3.825l-31.729 4.689-.528-11.842 9.917-1.467Z" fill="#BFBFBF"/><path d="M233.839 280.429c.184.55.29 1.021.395 1.441l-31.676 4.663-.422-9.432 9.917-1.467s10.55.393 13.398.839c3.456.497 7.385.838 8.388 3.956Z" fill="#032240"/><path d="m174.125 266.021-.185 11.789s10.365 1.939 13.135 2.777c3.323 1.022 7.147 1.939 7.701 5.135.475 2.777 0 3.852 0 3.852h-32.098l3.481-23.553h7.966Z" fill="#F69576"/><path d="M173.94 277.785s10.365 1.938 13.135 2.777c3.323 1.021 7.147 1.938 7.701 5.134.475 2.778 0 3.852 0 3.852h-32.098l1.239-11.79h10.023v.027Z" fill="#BFBFBF"/><path d="M194.776 285.721c.106.551.158 1.048.185 1.467h-32.02l.976-9.405h10.023s10.365 1.939 13.134 2.777c3.297 1.022 7.148 1.939 7.702 5.161Z" fill="#032240"/><path d="M173.335 166.755h37.347s2.374 30.626 3.165 39.455c.791 8.829.58 18.077 0 21.404-.58 3.328-1.583 7.074-1.583 7.074l-.58 37.883h-9.495s-2.954-16.295-4.141-30.626c-1.187-14.331-.791-17.291-.976-19.832-.184-2.542-4.141-22.584-4.141-22.584s-4.193 21.798-5.776 27.692c-1.582 5.895-3.35 9.039-3.745 10.794-.396 1.755-8.915 37.91-8.915 37.91h-10.286s3.349-36.914 4.141-45.743c.791-8.829 2.954-13.362 2.558-17.868-.343-4.532.237-34.765 2.427-45.559Z" fill="#254B6B"/><path d="M197.573 60.336s-6.04-3.799-12.871.524c-4.563 2.908-5.117 13.126-3.429 16.61 1.688 3.484 9.469 9.825 9.469 9.825s29.171-21.09 6.831-26.959Z" fill="#A5713D"/><path d="m217.038 120.565.079 14.96s18.014.209 19.175-.079c1.16-.288 6.963-4.873 7.569-5.108.607-.236 1.187 0 .95.707-.238.707-1.134 2.908-1.134 2.908s4.404-.498 4.826-.734c.396-.235 3.034-2.279 3.587-2.436.554-.157 1.477.183 1.24.76-.237.576-2.743 3.772-2.743 3.772s.501 3.406-.791 4.664c-1.319 1.257-7.412 2.279-10.392 2.462-2.98.184-25.505 3.039-27.378 2.961-1.872-.079-4.642-.655-5.591-4.664-.95-4.008-1.292-19.387-1.292-19.387l11.895-.786Z" fill="#DD866F"/><path d="M190.845 94.788c11.5-.236 15.192 1.467 17.619 6.811 2.4 5.345 8.519 52.293 9.073 61.882.554 9.562-1.292 15.273-14.454 15.273-13.161 0-31.149-10.689-31.149-10.689s-.738 3.328-1.292 5.345-6.119 4.244-6.119.733c0-3.51 2.4-58.37 2.769-67.566.37-9.196 14.85-11.606 23.553-11.79Z" fill="#000"/><path d="M203.085 97.906c4.536-1.179 8.703-1.1 12.053 5.528 3.35 6.628 5.934 27.246 5.934 27.246l-15.403 6.079s-14.638-35.709-2.584-38.853Z" fill="#000"/><path d="M194.801 93.843c-4.062 0-8.836.393-11.341 1.965-3.033 1.938-2.981 9.195 10.392 9.798 13.372.603 12.95-5.606 11.605-7.44-1.978-2.673-7.544-4.323-10.656-4.323Z" fill="#F69576"/><path d="m200.024 85.514 2.611 16.636h-15.799s.765-6.602 1.662-10.899c.897-4.296 1.661-5.737 1.661-5.737h9.865Z" fill="#F69576"/><path d="M193.14 90.046s-.132 3.065 1.925 4.401c2.057 1.337 6.568 1.363 6.568 1.363l-1.609-10.296h-6.673s-.475 2.593-.211 4.532Z" fill="#DD866F"/><path d="M202.267 65.34s2.004 1.65 2.874 5.266c.66 2.777.528 5.79.871 7.466.343 1.677.923 4.375.422 6.707-.475 2.332-2.559 5.528-6.436 6.602-3.877 1.074-7.042.314-9.178-2.384-2.137-2.672-4.774-7.467-5.565-10.794-.792-3.327-1.214-9.64 2.347-12.392 4.563-3.537 10.022-3.589 14.665-.471Z" fill="#F69576"/><path d="M195.251 84.099s.37 2.28 1.715 2.75c1.345.472 2.716.158 3.35-.602.633-.76.949-2.174.949-2.174l-6.014.026Z" fill="#fff"/><path d="M198.546 81.61a.45.45 0 0 1-.264-.08c-.158-.13-.184-.392-.184-.55v-.078c-.027.026-.106.079-.211.183a.377.377 0 0 1-.422.131c-.211-.052-.37-.262-.422-.55-.106-.471.343-1.231.395-1.31.027-.052.106-.078.185-.052.053.026.079.105.053.183-.132.21-.422.839-.343 1.153.052.21.158.314.237.34.079.027.132-.026.158-.052.185-.21.343-.288.449-.288.079 0 .132.052.158.105.026.052.026.13.053.236 0 .13 0 .288.079.366.026.027.105.027.185.027.184-.027.211-.158.184-.446 0-.13 0-.262.079-.314a.203.203 0 0 1 .132-.053c.106 0 .185.079.264.131.158.131.237.158.343.053.053-.053.079-.157.079-.288-.026-.393-.29-.917-.475-1.048-.053-.053-.079-.131-.026-.184.053-.052.132-.078.184-.026.264.183.554.812.581 1.231 0 .236-.027.393-.159.498-.29.262-.527.079-.685-.026-.027-.026-.053-.026-.053-.052v.052c0 .236.026.655-.422.733-.053-.026-.106-.026-.132-.026Z" fill="#6B3425"/><path d="M179.32 75.767c1.187-2.96 9.917-.288 8.308 5.16-1.662 5.581-10.075-.811-8.308-5.16Z" fill="#F69576"/><path d="M185.993 81.61c-.027 0-.053 0-.079-.027a.126.126 0 0 1 0-.183c.369-.393.422-1.625-.027-2.83-.316-.864-1.134-2.332-3.007-2.541-1.002-.131-1.714.052-2.11.498-.58.68-.316 1.781-.316 1.781.026.079-.026.131-.106.157-.079.026-.131-.026-.158-.105-.026-.052-.316-1.23.369-2.017.449-.524 1.24-.733 2.348-.576 1.477.183 2.637 1.179 3.218 2.725.448 1.23.448 2.593-.027 3.091-.026 0-.053.026-.105.026Z" fill="#6B3425"/><path d="M182.88 81.112a.146.146 0 0 1-.132-.08c-.052-.104-1.002-2.488.422-5.16.027-.053.106-.079.185-.053.053.027.079.105.053.184-1.372 2.567-.422 4.925-.422 4.925.026.079 0 .131-.079.157 0 .027-.027.027-.027.027ZM194.327 79.067c.262 0 .475-.422.475-.943 0-.521-.213-.943-.475-.943s-.475.422-.475.943c0 .52.213.943.475.943ZM192.112 75.584c.37-.314 1.135-.707 1.926-.812.87-.079 1.371.288 1.714.393.343.078.396-.393.211-.786-.184-.393-.923-.707-2.11-.681-1.187.052-1.846.576-2.163.943-.342.367-.079 1.388.422.943ZM201.687 78.806c.262 0 .475-.422.475-.943 0-.52-.213-.943-.475-.943s-.475.422-.475.943c0 .521.213.943.475.943ZM199.919 75.243c.37-.315 1.134-.708 1.926-.812.87-.079 1.371.288 1.714.393.343.078.396-.393.211-.786-.185-.393-.923-.708-2.11-.681-1.187.026-1.846.576-2.163.943-.316.34-.079 1.362.422.943ZM203.032 86.874l-.606.158s-1.161 2.279-2.137 2.724c-.976.446-4.167.288-4.51 0-.343-.288-1.451-2.83-1.451-2.83l-.765.184s1.135 3.642 1.319 3.983c.106.183 2.216 1.624 3.033 1.702.818.079 3.667-1.467 3.798-1.807.475-1.075 1.319-4.114 1.319-4.114Z" fill="#6B3425"/><path d="m199.39 88.29-1.398-.053-.052 2.49 1.081.209.369-2.646Z" fill="#6B3425"/><path opacity=".4" d="m171.329 107.938 3.56 19.99-6.382 1.913 2.822-21.903Z" fill="#254B6B"/><path d="M186.811 61.881s3.323 5.948 12.528 6.472c19.175 1.1 10.392-9.59 10.392-9.59s.686 2.83-2.611 2.987c-4.51.236-11.051-13.387-20.309.131Z" fill="#A5713D"/><path d="M258.367 118.811s-6.911-.576-8.546-.733c-1.635-.131-41.699 5.894-43.203 6.209-1.503.314-7.622 3.065-7.622 3.065l-2.163-3.799 6.014-4.034 48.082-6.602 7.358 1.283.08 4.611Z" fill="#383D42"/><path d="m243.649 120.252-1.425-8.279c-.211-1.205-1.345-2.044-2.584-1.913l-23.079 2.804a2.32 2.32 0 0 0-2.03 2.672l1.397 8.488a2.31 2.31 0 0 0 2.612 1.913l23.131-3.013c1.292-.157 2.189-1.362 1.978-2.672Z" fill="#263644"/><path d="M249.611 142.755h-45.972c-3.139 0-5.697-2.541-5.697-5.658v-8.253c0-3.118 2.558-5.659 5.697-5.659h45.972c3.139 0 5.697 2.541 5.697 5.659v8.253c0 3.143-2.532 5.658-5.697 5.658Z" fill="#3D3D3D"/><mask id="mask0_131_7038" style="mask-type:luminance" maskUnits="userSpaceOnUse" x="197" y="123" width="59" height="20"><path d="M249.611 142.755h-45.972c-3.139 0-5.697-2.541-5.697-5.658v-8.253c0-3.118 2.558-5.659 5.697-5.659h45.972c3.139 0 5.697 2.541 5.697 5.659v8.253c0 3.143-2.532 5.658-5.697 5.658Z" fill="#fff"/></mask><g mask="url('#mask0_131_7038')" fill="#000"><path d="m203.692 129.079-4.299-2.41-.237-4.48h-5.618v3.537l5.354 3.353h4.8ZM201.345 135.157l3.745-2.358-3.561-2.332h-5.064l3.271 2.332-3.693 2.358h5.302ZM198.892 136.677l-5.354 3.354v3.536h5.618l.237-4.479 4.299-2.411h-4.8Z"/><path d="m211.341 129.079-4.326-2.41-.237-4.48h-5.591v3.537l5.354 3.353h4.8ZM212.712 132.799l-3.56-2.332h-5.064l3.27 2.332-3.666 2.358h5.302l3.718-2.358ZM206.541 136.677l-5.354 3.354v3.536h5.591l.237-4.479 4.326-2.411h-4.8ZM219.675 129.079l-4.325-2.41-.237-4.48h-5.592v3.537l5.354 3.353h4.8Z"/><path d="m221.047 132.799-3.56-2.332h-5.065l3.271 2.332-3.666 2.358h5.301l3.719-2.358ZM214.875 136.677l-5.354 3.354v3.536h5.592l.237-4.479 4.325-2.411h-4.8ZM227.299 129.079l-4.299-2.41-.238-4.48h-5.618v3.537l5.354 3.353h4.801Z"/><path d="m228.696 132.799-3.561-2.332h-5.064l3.271 2.332-3.666 2.358h5.275l3.745-2.358ZM222.498 136.677l-5.354 3.353v3.537h5.618l.238-4.48 4.299-2.41h-4.801ZM234.947 129.079l-4.299-2.41-.237-4.48h-5.618v3.537l5.354 3.353h4.8Z"/><path d="m236.345 132.799-3.56-2.332h-5.064l3.27 2.332-3.692 2.358h5.301l3.745-2.358ZM230.147 136.677l-5.354 3.353v3.537h5.618l.237-4.48 4.299-2.41h-4.8ZM242.596 129.079l-4.325-2.41-.238-4.48h-5.591v3.537l5.354 3.353h4.8Z"/><path d="m243.968 132.799-3.561-2.332h-5.064l3.27 2.332-3.666 2.358h5.302l3.719-2.358ZM237.796 136.677l-5.354 3.353v3.537h5.591l.238-4.48 4.325-2.41h-4.8ZM250.931 129.079l-4.326-2.41-.237-4.48h-5.592v3.537l5.354 3.353h4.801Z"/><path d="m252.302 132.799-3.56-2.332h-5.064l3.27 2.332-3.666 2.358h5.301l3.719-2.358ZM246.13 136.677l-5.354 3.353v3.537h5.592l.237-4.48 4.326-2.41h-4.801ZM258.552 129.079l-4.299-2.41-.238-4.48h-5.618v3.537l5.354 3.353h4.801Z"/><path d="m259.951 132.799-3.561-2.332h-5.064l3.271 2.332-3.666 2.358h5.275l3.745-2.358ZM248.397 140.03v3.537h5.618l.238-4.48 4.299-2.41h-4.801l-5.354 3.353Z"/></g><path d="m186.284 127.797.079 14.985s18.014.21 19.175-.078c1.16-.288 6.963-4.873 7.569-5.109.607-.236 1.187 0 .95.708-.238.707-1.134 2.908-1.134 2.908s4.404-.498 4.826-.734c.396-.236 3.033-2.279 3.587-2.436.554-.184 1.477.183 1.24.759-.238.577-2.743 3.721-2.743 3.721s.501 3.405-.791 4.663c-1.319 1.257-7.412 2.279-10.392 2.463-2.981.183-25.505 3.039-27.378 2.96-1.872-.079-4.642-.655-5.591-4.663-.95-4.009-1.293-19.387-1.293-19.387l11.896-.76Z" fill="#F69576"/></svg>