<svg width="375" height="308" fill="none" xmlns="http://www.w3.org/2000/svg"><path d="M169.758 54.385c18.162 3.435 52.381-66.68 90.254-51.21 37.874 15.471 10.04 65.317 23.55 76.487 13.509 11.17 50.515-23.205 66.074 12.901 15.559 36.107-8.095 74.783-8.437 80.787-.342 6.005 42.657 38.283 30.724 82.728-11.932 44.445-170.389 48.745-226.949 50.449-56.56 1.705-132.175 1.574-143.319-44.759-11.143-46.333 39.477-86.687 44.155-99.64 4.678-12.953-37.663-58.027 15.428-113.433 41.079-42.871 90.359 2.255 108.52 5.69Z" fill="#9ECBDD"/><path d="M340.648 168.789h-76.666v20.688h76.666v-20.688Z" fill="#776B67"/><path d="M341.725 170.337h-79.557v-26.51h63.972l15.585 13.006v13.504Z" fill="#6B3425"/><path d="M306.48 189.477h-42.499v-27.349l21.237-17.201 21.262 17.201v27.349Z" fill="#776B67"/><path d="M312.867 130.113h-6.387v14.815h6.387v-14.815Z" fill="#A5713D"/><path d="M315.286 142.017h-10.987v4.825h10.987v-4.825Z" fill="#E7D0B0"/><path d="M284.114 157.094h-2.523v6.267h2.523v-6.267ZM288.109 157.094h-2.891v6.267h2.891v-6.267ZM274.599 172.748h-3.495v1.206h3.495v-1.206ZM278.569 172.748h-2.892v1.206h2.892v-1.206ZM274.599 174.793h-3.495v7.709h3.495v-7.709ZM278.569 174.793h-2.892v7.709h2.892v-7.709ZM314.444 173.954h-3.863v2.779h3.863v-2.779ZM314.444 178.648h-3.863v2.518h3.863v-2.518ZM314.444 182.501h-3.863v2.518h3.863v-2.518ZM320.226 173.954h-3.863v2.779h3.863v-2.779ZM320.226 178.648h-3.863v2.518h3.863v-2.518ZM320.226 182.501h-3.863v2.518h3.863v-2.518ZM326.034 173.954h-3.864v2.779h3.864v-2.779ZM326.034 178.648h-3.864v2.518h3.864v-2.518ZM326.034 182.501h-3.864v2.518h3.864v-2.518ZM331.816 173.954h-3.863v2.779h3.863v-2.779ZM331.816 178.648h-3.863v2.518h3.863v-2.518ZM331.816 182.501h-3.863v2.518h3.863v-2.518ZM337.626 173.954h-3.864v2.779h3.864v-2.779ZM337.626 178.648h-3.864v2.518h3.864v-2.518ZM337.626 182.501h-3.864v2.518h3.864v-2.518ZM294.863 172.748h-3.495v1.206h3.495v-1.206ZM298.858 172.748h-2.891v1.206h2.891v-1.206ZM294.863 174.793h-3.495v7.709h3.495v-7.709ZM298.858 174.793h-2.891v7.709h2.891v-7.709Z" fill="#417A8C"/><path d="M152.885 137.533h-2.366v8.6h2.366v-8.6Z" fill="#6B3425"/><path d="M201.454 167.451h-60.607v-21.317l30.303-7.211 30.304 7.211v21.317Z" fill="#E7D0B0"/><path d="M203.373 167.452h-64.707v20.714h64.707v-20.714Z" fill="#A5713D"/><path d="M152.202 152.531h-3.39v8.312h3.39v-8.312ZM157.327 152.531h-4.468v8.312h4.468v-8.312ZM171.046 152.531h-3.391v8.312h3.391v-8.312ZM176.171 152.531h-4.468v8.312h4.468v-8.312ZM188.418 152.531h-3.391v8.312h3.391v-8.312ZM193.543 152.531h-4.468v8.312h4.468v-8.312ZM152.202 169.863h-3.39v8.312h3.39v-8.312ZM157.327 169.863h-4.468v8.312h4.468v-8.312ZM171.046 169.863h-3.391v8.312h3.391v-8.312ZM176.171 169.863h-4.468v8.312h4.468v-8.312ZM188.418 169.863h-3.391v8.312h3.391v-8.312ZM193.543 169.863h-4.468v8.312h4.468v-8.312Z" fill="#417A8C"/><path d="M1.708 261.743c11.144 46.332 86.785 46.49 143.319 44.759 56.533-1.73 214.991-6.004 226.949-50.449 8.121-30.233-9.172-54.855-20.973-69.381H27.229c-15.087 19.089-32.564 45.887-25.52 75.071Z" fill="#776B67"/><path d="M12.588 207.7c-9.25 15.864-15.638 34.428-10.907 54.042 11.144 46.332 86.785 46.49 143.319 44.759 56.533-1.73 214.991-6.004 226.949-50.449 4.994-18.591.368-35.058-6.649-48.352H12.588Z" fill="#8A9995"/><path d="M186.763 151.483s10.881-4.589 15.98 5.087c5.098 9.675-3.627 15.837-7.99 16.126-4.363.288-8.884-1.18-12.011.105-3.128 1.258-9.12 7.132-15.98 6.843-6.86-.288-13.273-5.637-14.692-16.545-2.366-17.778 12.747-15.733 12.747-15.733s-4.416-14.369 4.126-19.167c8.542-4.799 18.03-.499 20.869 6.555 2.838 7.053-3.049 16.729-3.049 16.729Z" fill="#96C22F"/><path d="M178.747 139.737s.394 9.387-1.183 12.114c-1.577 2.727-4.021 5.27-3.811 5.873.184.577 8.621 16.939 11.065 22.787 2.444 5.847 1.971 7.709 1.367 8.993-.578 1.259-.394 10.935-.394 10.935h-6.361s.079-6.923.762-9.781c.71-2.832 1.577-2.832 1.288-4.195-.289-1.364-11.275-27.087-10.302-29.446.972-2.36 4.205-3.016 5.098-6.241.894-3.199 2.471-11.039 2.471-11.039Z" fill="#6B3425"/><path d="M190.601 160.477s-5.598 5.191-6.965 7.42-3.469 6.346-3.469 6.346l1.997 2.936s2.024-7.237 3.233-8.889c1.209-1.651 5.204-7.813 5.204-7.813ZM157.562 159.794s5.783 3.514 9.594 4.406c3.811.891 8.331 1.573 8.331 1.573l1.183 3.068s-18.424-4.458-19.108-9.047Z" fill="#6B3425"/><path d="M233.258 120.829s-3.26-6.293 4.152-7.001c-.762-5.008 6.492-12.559 19.081-9.334 2.129-5.454 14.14-15.077 22.498-3.357 15.927-6.66 18.188 2.937 16.059 4.668 12.352-2.229 10.171 6.214 8.095 7.158 16.347-3.487 14.087 7.866 14.087 7.866h-83.972ZM50.488 116.242s-1.367-3.487 1.734-3.881c-.315-2.753 2.707-6.948 7.964-5.165.894-3.016 5.914-8.339 9.383-1.862 6.65-3.697 7.596 1.626 6.702 2.57 5.151-1.233 4.258 3.435 3.364 3.959 6.834-1.94 5.887 4.353 5.887 4.353H50.488v.026Z" fill="#fff"/><path d="M242.535 193.909h-11.433v6.555h11.433v-6.555Z" fill="#6B3425"/><path d="M253.627 179.12h14.508l-4.258-18.119-10.25-3.854h9.33l-1.104-4.668-16.505-1.258 15.48-3.121-2.181-9.282-13.299-4.169s7.254-.42 12.142-.682l-6.623-28.188-10.828-.944 10.329-1.153-13.562-57.818-8.016 34.14h4.967l-5.677 3.015-2.549 10.83h9.251l-9.777 2.334-.894 3.775h5.178l-5.598 1.81-5.362 22.759 12.8 2.701-14.088 2.858-4.31 18.303h13.299l-14.639 5.663-4.442 18.932a4687.525 4687.525 0 0 0 17.241 2.465l-18.424 2.569-3.732 15.89h69.622l-2.076-8.836-15.953-5.952Z" fill="#7EA21A"/><path d="M68.477 192.898h6.15v-3.539h-6.15v3.539Z" fill="#6B3425"/><path d="M62.474 181.401h-7.806l2.287-9.754 5.519-2.071h-5.02l.578-2.518 8.884-.681-8.332-1.679 1.183-5.008 7.149-2.255s-3.916-.236-6.545-.367l3.575-15.182 5.834-.498-5.545-.629 7.333-31.151 4.336 18.381h-2.68l3.048 1.626 1.367 5.821H72.67l5.283 1.258.473 2.046h-2.786l3.023.97 2.89 12.245-6.885 1.442 7.596 1.547 2.312 9.859H77.43l7.884 3.042 2.392 10.2c-3.785.551-9.278 1.337-9.278 1.337l9.935 1.39 2.024 8.548H52.802l1.13-4.772 8.542-3.147Z" fill="#7EA21A"/><path d="M250.893 55.33s6.097-3.854 12.957.525c4.599 2.937 5.151 13.268 3.443 16.808-1.708 3.514-9.541 9.938-9.541 9.938s-29.357-21.318-6.859-27.27Z" fill="#A5713D"/><path d="m231.312 116.242-.079 15.129s-18.135.21-19.291-.078c-1.156-.289-7.017-4.93-7.622-5.166-.604-.262-1.183 0-.946.708.236.708 1.13 2.937 1.13 2.937s-4.442-.498-4.836-.734c-.394-.236-3.075-2.308-3.627-2.465-.552-.184-1.472.183-1.235.76.236.577 2.759 3.802 2.759 3.802s-.499 3.461.815 4.72c1.314 1.285 7.464 2.308 10.461 2.491 2.996.184 25.678 3.094 27.57 2.989 1.892-.105 4.652-.681 5.624-4.72.973-4.064 1.288-19.613 1.288-19.613l-12.011-.76Z" fill="#DD866F"/><path d="M265.795 259.251v23.835h19.922s2.839-4.772 0-6.057c-2.838-1.311-12.09-5.847-12.09-5.847l.368-11.905h-8.2v-.026Z" fill="#F69576"/><path d="M265.795 271.155v11.905h19.922s2.839-4.773 0-6.057c-2.838-1.311-12.09-5.848-12.09-5.848h-7.832Z" fill="#032240"/><path d="M265.795 280.673v2.414h19.922s.657-1.102 1.025-2.414h-20.947Z" fill="#BFBFBF"/><path d="m249.42 259.252.184 11.904s-10.434 1.967-13.22 2.806c-3.338 1.022-7.202 1.94-7.754 5.192-.473 2.805 0 3.907 0 3.907h32.302l-3.522-23.835h-7.99v.026Z" fill="#F69576"/><path d="M249.604 271.155s-10.434 1.967-13.22 2.806c-3.338 1.023-7.202 1.94-7.754 5.192-.473 2.805 0 3.907 0 3.907h32.302l-1.236-11.905h-10.092Z" fill="#BFBFBF"/><path d="M228.632 279.179a12.693 12.693 0 0 0-.184 1.495h32.248l-.998-9.519h-10.093s-10.434 1.967-13.22 2.806c-3.338 1.049-7.201 1.967-7.753 5.218Z" fill="#032240"/><path d="m130.152 105.963 18.897 9.886s19.028-4.065 20.08-4.537c1.051-.472 5.808-5.847 6.36-6.188.526-.341 1.13-.21 1.025.498-.105.708-.578 2.963-.578 2.963s4.126-1.232 4.468-1.52c.342-.289 2.523-2.701 2.996-2.937.5-.262 1.446-.079 1.314.498-.131.577-1.971 4.064-1.971 4.064s1.078 3.199.026 4.615c-1.025 1.416-6.675 3.435-9.488 4.143-2.812.682-23.812 7.237-25.625 7.473-1.814.236-3.338-.76-6.991-2.465-6.098-2.832-17.163-9.728-17.163-9.728l6.65-6.765Z" fill="#DD866F"/><path d="M109.757 93.534c3.837-.918 12.747-2.098 16.137 2.281 3.391 4.379 4.021 8.627 4.021 8.627s3.68.97 4.1 2.307c.395 1.338-5.861 8.601-7.753 8.129-1.892-.472-18.371-10.908-18.371-10.908l1.866-10.436Z" fill="#FFE051"/><path d="M116.852 61.543c4.574 2.99 2.313 15.523 5.888 19.692-5.73.735-39.161 6.53-39.161 6.53s-4.994-14.58-1.866-20.086c3.154-5.506 27.491-11.17 35.139-6.136Z" fill="#DBAC73"/><path d="M121.818 106.093c1.788 1.574 2.55 7.814 1.236 9.597-3.89 5.218 8.463 21.528 8.463 21.528l-30.961 1.442c.631-10.777-2.182-22.026-6.834-24.176-5.94-2.753 5.1-15.837 5.1-15.837L110.99 97.1s6.86 5.506 10.828 8.993Z" fill="#FFE051"/><path d="M102.79 113.331a3.124 3.124 0 0 0 3.127-3.12c0-1.724-1.4-3.121-3.127-3.121a3.124 3.124 0 0 0-3.128 3.121c0 1.723 1.401 3.12 3.128 3.12ZM111.464 121.014a3.124 3.124 0 0 0 3.128-3.121c0-1.723-1.4-3.12-3.128-3.12a3.124 3.124 0 0 0-3.127 3.12c0 1.724 1.4 3.121 3.127 3.121ZM119.612 128.329a3.124 3.124 0 0 0 3.127-3.12c0-1.723-1.4-3.12-3.127-3.12a3.124 3.124 0 0 0-3.128 3.12 3.124 3.124 0 0 0 3.128 3.12ZM102.79 124.055a3.124 3.124 0 0 0 3.127-3.12c0-1.724-1.4-3.121-3.127-3.121a3.124 3.124 0 0 0-3.128 3.121c0 1.723 1.401 3.12 3.128 3.12ZM109.623 134.571a3.124 3.124 0 0 0 3.128-3.12c0-1.723-1.4-3.12-3.128-3.12a3.124 3.124 0 0 0-3.127 3.12c0 1.723 1.4 3.12 3.127 3.12ZM113.724 109.635a3.124 3.124 0 0 0 3.127-3.121c0-1.723-1.4-3.12-3.127-3.12a3.124 3.124 0 0 0-3.128 3.12c0 1.724 1.4 3.121 3.128 3.121Z" fill="#fff"/><path d="M128.968 136.774s4.126 6.057 6.676 19.928c2.549 13.871.946 35.818 0 40.118-.947 4.3-11.118 59.522-10.487 61.305.631 1.757 10.487 8.076 10.487 8.076h-19.082s-3.443-37.837-2.996-44.392c.447-6.555 5.546-15.89 5.546-15.89l-17.793-64.32 27.649-4.825Z" fill="#F69576"/><path d="M127.392 139.316s-7.885 35.555-13.799 50.449c-5.913 14.894-8.778 18.171-8.778 18.171s-8.594 21.449-11.117 29.761c-2.524 8.312-3.18 17.647-4.442 21.685s-11.407 16.755-13.904 13.792c-3.39-4.038-.71-9.256.868-11.013 1.577-1.756 6.36-5.296 6.36-5.296s-.946-31.544.63-38.335c1.578-6.818 9.226-13.609 9.541-15.628.316-2.019 1.84-52.967 3.943-57.267 2.076-4.3 9.724-12.14 30.698-6.319Z" fill="#F69576"/><path d="M130.834 135.515s4.494 11.039 7.675 21.213c3.18 10.174 2.234 44.445 2.234 44.445l-39.424 1.442V179.96l-4.652 22.655h-8.384s.63-47.067 4.442-55.772c3.81-8.706 8.62-9.886 8.62-9.886l29.489-1.442Z" fill="#000"/><path d="M116.484 100.221a3.124 3.124 0 0 0 3.128-3.12c0-1.724-1.4-3.121-3.128-3.121a3.124 3.124 0 0 0-3.127 3.12c0 1.724 1.4 3.121 3.127 3.121ZM124.475 111.311a3.124 3.124 0 0 0 3.127-3.12c0-1.723-1.4-3.12-3.127-3.12a3.124 3.124 0 0 0-3.128 3.12c0 1.723 1.4 3.12 3.128 3.12Z" fill="#fff"/><path d="M89.65 257.836s-.395 4.143-.605 4.903c-.21.761-7.517 10.174-9.225 11.092-.868.472-5.02 1.652-5.414 1.52-1.499-.498-2.26-7.105-1.262-9.256 2.865-6.135 9.435-9.256 9.435-9.256s-6.045 5.717-6.255 7.473c-.21 1.757-.552 5.533 2.024 5.795 2.55.289 11.301-12.271 11.301-12.271ZM116.063 260.457s-1.078 1.783-1.078 4.143 1.157 3.435 3.285 3.697c2.129.262 6.045-.341 7.202 0 1.156.341.525 1.757 3.39 1.862 2.865.078 12.721.157 13.142 0 .42-.157-.316-2.517-1.262-3.199-.946-.682-6.755-1.836-6.755-1.836s-5.335.997-9.672-1.022c-4.336-2.019-8.252-3.645-8.252-3.645Z" fill="#512176"/><path d="m120.715 267.197-.631 3.041h-2.865l-1.393-4.038 4.889.997Z" fill="#7D009B"/><path d="m109.809 84.54 2.628 16.834h-15.9s.762-6.686 1.655-11.039c.894-4.326 1.656-5.794 1.656-5.794h9.961Z" fill="#F69576"/><path d="M98.445 95.061a.893.893 0 0 0-1.778-.18.893.893 0 0 0 1.778.18Z" fill="#512176"/><path d="M99.99 95.933a.893.893 0 0 0-1.778-.18.893.893 0 0 0 1.778.18Z" fill="#512176"/><path d="M101.495 96.82a.893.893 0 1 0-1.78-.178.893.893 0 0 0 1.78.179Z" fill="#512176"/><path d="M102.497 98.106a.891.891 0 1 0-.311-1.757.892.892 0 1 0 .311 1.757Z" fill="#512176"/><path d="M104.973 97.707a.892.892 0 1 0-1.776-.18.892.892 0 0 0 1.776.18ZM106.812 97.709a.892.892 0 1 0-1.776-.179.892.892 0 0 0 1.776.179Z" fill="#512176"/><path d="M107.943 98.485a.891.891 0 1 0-.481-1.718.891.891 0 1 0 .481 1.718Z" fill="#512176"/><path d="M110.4 97.308a.894.894 0 0 0-1.778-.18c-.05.49.308.927.799.977.491.05.93-.307.979-.797Z" fill="#512176"/><path d="M112.05 96.624a.894.894 0 0 0-1.778-.18.892.892 0 0 0 1.778.18Z" fill="#512176"/><path d="M102.895 89.129s-.131 3.094 1.919 4.457c2.05 1.364 6.623 1.39 6.623 1.39l-1.63-10.41h-6.702c0-.026-.473 2.596-.21 4.563Z" fill="#DD866F"/><path d="M112.095 64.14s2.023 1.652 2.891 5.323c.683 2.832.525 5.847.867 7.551.342 1.705.92 4.405.447 6.765-.473 2.36-2.576 5.585-6.492 6.687-3.916 1.101-7.096.314-9.251-2.413-2.156-2.7-4.81-7.551-5.599-10.934-.788-3.356-1.235-9.728 2.366-12.534 4.599-3.566 10.066-3.592 14.771-.445Z" fill="#F69576"/><path d="M108.337 80.61c-.106 0-.211-.027-.263-.08-.158-.13-.184-.393-.184-.55v-.08c-.027.027-.105.08-.21.184a.375.375 0 0 1-.421.132c-.21-.053-.368-.263-.421-.551-.105-.472.342-1.26.395-1.338.026-.052.105-.079.184-.052.052.026.079.104.052.183-.131.21-.42.84-.368 1.154.053.21.158.315.237.341.079.027.131-.026.158-.052.184-.21.341-.289.446-.289.079 0 .132.053.158.105.026.053.026.131.053.236 0 .132 0 .289.078.368.027.026.106.026.184.026.184-.026.211-.158.184-.472 0-.132 0-.263.079-.315a.203.203 0 0 1 .132-.053c.105 0 .184.08.262.131.158.132.237.158.342.053.053-.053.079-.157.079-.288-.026-.394-.289-.919-.473-1.05-.053-.052-.079-.131-.026-.183.052-.053.131-.08.184-.027.262.21.552.814.578 1.26 0 .235-.026.393-.158.498-.289.262-.526.079-.683-.026-.027-.027-.053-.027-.053-.053v.053c0 .236.027.655-.42.734-.027-.026-.079 0-.105 0Z" fill="#6B3425"/><path d="M88.966 74.682c1.21-2.99 9.988-.288 8.358 5.218-1.656 5.637-10.119-.813-8.358-5.218Z" fill="#F69576"/><path d="M95.695 80.607c-.026 0-.052 0-.079-.026a.127.127 0 0 1 0-.184c.368-.393.447-1.652-.026-2.858-.315-.865-1.13-2.334-3.022-2.57-1.025-.13-1.735.053-2.13.499-.604.681-.315 1.783-.315 1.809.027.079-.026.131-.105.157-.079.026-.131-.026-.157-.105-.027-.052-.316-1.258.367-2.045.474-.524 1.262-.734 2.366-.603 1.498.184 2.68 1.18 3.259 2.753.447 1.233.447 2.622-.026 3.147-.053 0-.08.026-.132.026Z" fill="#6B3425"/><path d="M92.541 80.108a.144.144 0 0 1-.131-.078c-.053-.105-1.025-2.517.42-5.218.026-.053.105-.079.184-.053.053.026.079.105.053.184-1.393 2.596-.42 4.982-.42 4.982.025.079 0 .131-.08.183h-.026ZM104.079 78.038c.261 0 .473-.434.473-.97s-.212-.97-.473-.97c-.262 0-.474.434-.474.97s.212.97.474.97ZM101.057 73.633c.368-.183 1.156-.393 1.945-.446.867-.052 1.393.158 1.735.21.341.053.394-.21.21-.446-.184-.236-.92-.393-2.129-.367-1.209.026-1.866.315-2.182.525-.315.21-.105.76.421.524ZM111.517 77.803c.261 0 .473-.435.473-.97 0-.537-.212-.971-.473-.971s-.473.434-.473.97.212.971.473.971ZM109.73 73.292c.368-.184 1.157-.394 1.945-.446.867-.053 1.367.157 1.735.21.341.052.394-.21.21-.446-.184-.236-.92-.394-2.129-.367-1.209.026-1.866.314-2.181.524-.316.21-.079.76.42.525Z" fill="#6B3425"/><path d="M100.976 72.508c16.06-4.541 28.245-11.16 27.216-14.782-1.03-3.622-14.883-2.877-30.943 1.664-16.06 4.542-28.245 11.16-27.216 14.782 1.029 3.623 14.882 2.878 30.943-1.664Z" fill="#E7D0B0"/><path d="M80.609 67.523s1.813-9.701 3.705-11.93c1.893-2.229 21.499-6.372 22.787-5.979 1.288.394 11.617 8.26 11.617 8.26l-38.11 9.65Z" fill="#E7D0B0"/><path d="M79.532 59.605s.683-.655 1.05-.813c.369-.157.947-1.258.947-1.258s.158.681.447.76c.289.079.92.157.999.262.078.105.184.263.184.263s.315-.21.499-.341c.184-.132.236-.289.236-.289s.106.55.421.734c.29.184.815.525.815.682 0 .158.604.289 1.13.42.526.13.815-.105 1.156-.236.368-.105.5-.026.5-.026s-.184.21-.053.445c.158.236.552.997.447 1.888-.105.866-.92 1.416-.92 1.416s1.104.262 1.42.55c.315.29.446.447.735.997.29.55.316.892.263 1.337-.053.446-.026.603-.263.708-.236.132-1.025.446-1.393.866-.394.42-.63.524-.63.524l-.342-.026s-.29.42-.21.891c.105.472.131.97.052 1.259-.079.315-.368.472-.683.472-.316 0-.762-.079-.762-.079s-.395.472-.736.577c-.368.105-.631.446-.631.446s-.184-.21-.657-.079c-.473.131-.867.131-1.13-.105-.263-.236-.973-1.232-1.21-1.363-.236-.105-.236-.446-.236-.734 0-.289-.368-1.128-.368-1.128s-.289.236-.63.079c-.369-.157-.421-.341-.684-.289-.263.027-.5-.052-1.13-.183-.63-.131-1.367-.315-1.603-.656-.237-.34-.053-1.756-.29-1.704-.236.026-.42.131-.604.026-.184-.105-.184-.944-.053-.996.158-.079.5-.053.5-.053s-.473-.157-.526-.42c-.052-.261-.026-.602.08-.68.104-.08.84-.735.84-.735s-.473-.315-.63-.315c-.158 0-.448.079-.448.079s1.315-.97 1.604-1.023c.289-.026.683 0 .683 0s-.315-.314-.158-.76c.158-.446.21-.84.21-.84s.92-.052 1.052-.078c.105-.026.236-.183.236-.183l-.157-.656.63.367Z" fill="#512176"/><path d="M81.872 60.05s-.394-.287-.762-.314c-.368-.026-1.13.105-1.13.105l-1.13-.55s.21.76.13.917c-.078.158-.21.63-.078.84.131.21.105.707.158.97.052.262.026.55.315.786.29.236.394.63.578.865.184.21 0 .368.552.603.552.236.894.472.894.472s-.894-.707-1.052-1.153c-.157-.446-.551-.866-.788-1.128-.263-.288-.079-.629-.21-1.075-.132-.445.079-1.285.079-1.285s.394.131.893.131c.5 0 1.55-.183 1.55-.183ZM81.582 65.374s.552 1.469.946 1.757c.395.289.684.42 1.157.525.473.104 1.288.026 1.34-.132.053-.13-.184-.55-.184-.55s.631.314.552.577c-.079.236-.131.498-.63.472-.474-.026-.868 0-1.63-.158-.762-.157-.789-.13-.999-.498-.21-.367-.683-1.626-.683-1.626s-.631.499-1.025.446c-.395-.078-.237-.183-.684-.445-.446-.237-.867-.158-.998-.446-.132-.289.473-.735.473-.735s-.237.42-.026.499c.21.078.394.078.578.262.184.183.184.446.604.367.42-.079 1.21-.315 1.21-.315ZM84.683 61.756s.158.655-.184.708c-.342.053-1.183.55-1.183.55s-.578-.209-.263-.707c.316-.499.579-.578.92-.63.342-.026.71.079.71.079ZM85.183 61.204s.605-.472.868-.341c.262.131.473.603.814.655.342.053.316 0 .526.289.21.288.368.996.368.996l-1.235.944s.998-.734.972-1.023c-.026-.288-.131-.576-.5-.76-.34-.21-.92-.446-.972-.63-.052-.183-.867.263-.867.263l.026-.393Z" fill="#7D009B"/><path d="M84.263 67.813s.131.341.525.473c.395.13.579.288 1 .42.42.13 1.681-.184 1.681-.184l-.552.498s-.552.184-1.156.105c-.605-.079-.605-.236-1.051-.42-.447-.183-.5-.052-.815-.367-.316-.315-.394-.63-.394-.63l.762.105ZM80.558 68.706s.315-.341.683-.237c.368.105.657.237.946.263.263.026.5-.105.473-.341-.026-.236-.184-1.023-.184-1.023l.29.183s.367.709.262.997c-.105.315-.21.63-.552.63-.342 0-1.787-.184-1.787-.184l-.131-.288ZM77.666 61.807s1.078-.315 1.21-.236c.13.078.656.918.656.918l.316.603s-.552.026-1.157 0c-.604-.026-1.813.184-1.813.184h-.631l.237-.21s1.209-.131 1.603-.157c.394-.027 1.314-.08 1.314-.08l-.63-.917-1.131.026.026-.131ZM83.921 63.538s1.498 0 1.998.314c.499.315 2.207 2.203 2.207 2.203l.132 1.153s-.42-1.1-.815-1.39c-.394-.288-1.367-1.153-1.708-1.389-.342-.236-1.735-.026-1.735-.026l-.079-.865ZM82.317 63.38s-.868-1.757-.552-2.412c.341-.656 2.129-1.154 2.129-1.154s1.261 1.678 1.025 1.967c-.237.288-.894.576-.894.576s.447-.76.29-1.127l-.474-.944s-1.445.577-1.603.918c-.158.367.5 1.704.5 1.704l-.421.472Z" fill="#7D009B"/><path d="M84.474 62.988s-.132 1.966-.474 2.045c-.315.079-2.312.21-2.312.21s-.868-1.888-.71-1.993c.158-.105 1.34-.997 1.34-.997l.08.341s-1.105.603-1.052.866c.052.262.5 1.337.5 1.337l1.97-.315v-2.124l.658.63Z" fill="#7D009B"/><path d="M113.173 72.374c-2.365.498-4.179 1.862-4.179 1.862v.026c-.131-.131-.315-.262-.473-.262-.289 0-.657.052-.815.052-.157 0-.525.026-.814.053-.184.026-.316.183-.447.34 0-.026-.026-.026-.026-.026s-3.391-.944-5.783-1.101c-2.417-.131-4.651 1.049-4.651 1.049l.105 1.468s.341.55.525 1.023c.184.472.29 2.176 2.077 3.67 1.787 1.495 4.389 1.128 6.045.394 1.655-.734 2.181-3.33 2.128-4.51v-.105a.58.58 0 0 1-.368-.55c-.026-.341.211-.656.552-.682l1.367-.105c.132 0 .263.026.368.105h.053v.052c.131.105.21.263.236.446.026.21-.079.42-.21.55 0 .053 0 .08.026.132.132 1.18 1.052 3.67 2.786 4.143 1.735.472 3.023.524 4.547-1.206 1.524-1.731 1.367-3.435 1.472-3.934.105-.498.368-1.1.368-1.1l-.105-1.47c-.027 0-2.418-.838-4.784-.314Zm-8.068 7.447c-1.183 1.18-4.232 1.547-5.546.655-1.314-.891-2.97-3.067-1.814-5.349.657-1.31 2.602-1.442 3.943-1.206 1.314.236 3.784.813 4.126 1.993.342 1.154.5 2.727-.709 3.907Zm10.223-.55c-1.156 1.074-2.838 1.074-4.205.104-1.366-.97-1.472-2.57-1.288-3.776.158-1.206 1.131-2.071 2.392-2.49 1.262-.42 3.207-.604 4.074.602 1.498 2.072.184 4.484-.973 5.56Z" fill="#000"/><path d="M104.421 84.016s1.919-1.102 2.497-.997c.578.105.736.682.736.682s.736-.865 1.235-.498c.499.367.972 1.573.972 1.573s-.998 2.281-2.602 2.124c-1.603-.157-2.838-2.884-2.838-2.884Z" fill="#7D009B"/><path d="M95.7 82.186a.893.893 0 0 0-1.778-.18.893.893 0 0 0 1.778.18Z" fill="#512176"/><path d="M166 120.489c-.499 2.885-.789 7.683-.079 9.073.71 1.389.578 1.73 2.313 1.704 1.761-.026 5.992-.891 6.413-.288.42.629-2.418 5.48-3.101 5.663-.658.158-2.602-.288-4.416.236-1.813.525-3.259 1.285-4.31-.131-1.052-1.416-6.466-12.035-6.466-12.035l9.646-4.222ZM179.719 94.007s7.701-.105 10.092-1.154c2.418-1.049 2.865-1.81 4.179-1.39 1.314.42 1.919 2.386.026 4.694-1.918 2.281-13.193 5.165-13.193 5.165l-1.104-7.315Z" fill="#DBB5A2"/><path d="M176.25 67.733c2.602-.63 9.83 15.89 11.512 18.643 2.733 4.458 2.418 6.581-.972 7.316-3.391.734-7.622.157-8.989-3.593-2.129-5.847-5.335-21.448-1.551-22.366Z" fill="#A84400"/><path d="M142.371 119.731c1.157-3.173 3.049-5.9 5.467-8.575 2.418-2.674 7.07-5.873 10.145-10.331 3.075-4.457 3.548-8.47 3.653-10.986.132-2.518.29-9.78.29-9.78l15.979.471s.132 2.176 1.63 3.383c1.498 1.206 3.995 3.723 5.44 7.368 1.42 3.67 2.208 9.23-1.314 14.998-3.522 5.769-7.306 10.593-12.826 14.238-5.519 3.645-19.449 8.496-19.449 8.496l-9.015-9.282Z" fill="#FFDFC6"/><path d="M156.065 118.288c4.678.551 6.571 4.956 5.993 8.103-.579 3.146-2.471 6.424-3.049 9.282-.578 2.832-.868 7.499-.237 9.597s1.498 2.832 2.523 2.937c1.025.105 1.341-.42 1.656.367.316.786-2.996 5.401-3.417 5.401-.42 0-1.55-.262-2.496-1.18-.947-.917-4.468-3.959-4.784-4.719-.315-.761-1.682-10.384-1.682-10.384s-8.305-6.45-8.121-11.406c.184-4.956 4.126-9.125 13.614-7.998Z" fill="#FFDFC6"/><path d="M161.532 122.273c-.894-1.967-2.681-3.645-5.441-3.986-9.514-1.127-13.456 3.016-13.64 7.998-.184 4.956 8.121 11.406 8.121 11.406s.499 3.382.946 6.293c2.497-1.573 5.02-5.323 5.966-7.84 1.393-3.645.736-7.893.684-8.732-.053-.603 1.682-3.172 3.364-5.139Z" fill="#FF6D00"/><path d="M178.484 95.684s2.97 1.757 6.492 1.967c3.522.21 8.253.76 9.54.183 1.288-.577 2.471-1.442 4.022-1.154 1.55.263 3.048.84 2.339 1.731-.71.892-3.312 5.402-4.1 5.559-.815.157-4.495.603-8.148.944-3.653.367-11.722-.053-11.722-.053l1.577-9.177Z" fill="#FFDFC6"/><path d="M188.367 97.887c-1.156-.079-2.313-.184-3.391-.236-3.548-.21-6.491-1.967-6.491-1.967l-1.525 9.02c2.707-.079 6.229-.288 7.859-.865 2.891-1.023 3.732-2.386 3.784-3.619 0-.576-.105-1.494-.236-2.333ZM143.975 116.374s-4.363 6.529-6.833 7.525c-2.471.996-6.308 2.203-10.277.052-3.968-2.15-8.489-7.656-9.698-6.476-1.209 1.18-.131 3.697 3.732 7.316 3.864 3.618 10.093 5.794 14.613 5.113 4.521-.682 12.563-5.953 12.563-5.953l-4.1-7.577Z" fill="#FF6D00"/><path d="M123.474 121.538c-2.865-2.333-5.44-4.929-6.281-4.09-1.209 1.18-.132 3.697 3.732 7.316.105.078.21.183.289.262.736-.656 1.524-1.731 2.26-3.488Z" fill="#FFDFC6"/><path d="M137.115 123.899c-2.47.997-6.308 2.203-10.276.053-.027-.026-.053-.026-.079-.053.815 1.259 2.234 2.518 3.837 3.252 3.39 1.521 9.015 1.861 12.379-1.206 1.524-1.39 2.444-3.671 3.049-5.769l-2.076-3.828c.026.026-4.337 6.555-6.834 7.551Z" fill="#6B3425"/><path d="M161.69 89.838c-.132 2.518-.579 6.53-3.654 10.987s-7.727 7.656-10.145 10.331c-2.418 2.675-4.31 5.402-5.467 8.574l9.042 9.256s3.154-1.101 7.043-2.648c.789-1.914 3.102-4.169 7.149-7.106 4.442-3.251 13.904-12.035 15.139-15.916 1.235-3.88.526-7.342-1.84-10.174-2.365-2.832-5.283-3.173-4.126-5.296 1.13-2.124 3.259-4.851 2.234-6.635-.158-.262-.789-.524-1.735-.812l-13.325-.394c-.053.027-.21 7.316-.315 9.833Z" fill="#FF6D00"/><path d="M161.689 89.838c-.132 2.517-.578 6.529-3.653 10.986-3.076 4.458-7.728 7.657-10.146 10.331-2.418 2.675-4.914 5.035-6.071 8.208l3.18 3.802c.815-1.233 1.814-3.566 3.102-3.304 2.339.498 4.678 2.202 6.518 1.599 1.866-.603 2.391-1.756 1.314-4.431-1.078-2.675-3.364-5.874-1.761-7.316 1.603-1.442 10.434 3.121 15.638 1.075 5.204-2.045 6.466-6.109 5.151-10.331-.972-3.068-8.857-10.383-13.141-14.16-.052 1.39-.105 2.728-.131 3.54Z" fill="#6B3425"/><path d="M163.608 65.846c1.893-2.649 6.834-3.986 10.435-3.803 3.627.184 5.703.997 6.938 2.57 1.235 1.573 3.995 6.818 4.416 7.762.42.944 1.866 5.296.499 6.974-1.367 1.679-8.673 5.428-10.644 5.926-1.998.499-8.174-1.363-12.406-2.884-4.231-1.547-2.102-12.481.762-16.545Z" fill="#FF6D00"/><path d="M188.971 71.77c1.603.5 1.709 4.275.5 6.897s-1.525 4.484-4.285 5.375c-2.759.892-10.434 3.829-10.434 3.829s.789-4.641.027-5.56c-.763-.943-2.156-4.037.341-6.056 2.497-2.02 3.154-2.596 2.944-4.327-.21-1.73-1.078-4.038-1.919-4.772s-3.311-.918-3.522-1.547c-.21-.63.447-2.203 2.471-2.15 2.024.052 3.233.498 3.206.97-.026.472-.446.944-.236 1.337.236.367 2.576 5.769 4.179 5.874 1.603.105 5.572-.21 6.728.13Z" fill="#FFDFC6"/><path d="M189.208 72.61c.21 1.075-.289 2.307-.788 2.727-.5.42-1.919.655-2.55.183-.631-.472-1.656-1.127-1.34-2.15.289-.996 4.547-1.337 4.678-.76ZM176.302 81.421s3.943 1.704 5.23 1.81c1.288.104 2.234-.053 2.892-.709.657-.655 1.366-1.94 1.655-1.783.263.158.947 1.259.999 1.442.053.184-.263.499-.42.289-.158-.21-.474-1.154-.579-1.049-.079.105-1.393 2.045-2.733 2.334-1.34.288-3.154-.394-4.678-.918-1.498-.524-2.602-1.206-2.366-1.416Z" fill="#6B3425"/><path d="M174.306 69.83c2.076-.157 3.417 4.405.973 4.536-2.418.105-3.417-4.352-.973-4.536Z" fill="#fff"/><path d="M175.514 70.958c.526-.34 1.078 1.942.5 2.309-.605.34-.999-1.968-.5-2.309Z" fill="#6B3425"/><path d="M166.078 65.95c1.209.63-.867 5.114-.394 7.946s2.208 7.342 2.103 11.957c-.106 4.615.21 8.102-3.759 9.072-3.969.97-5.651.656-6.124.42-.447-.236.132-1.862-.972-2.465-1.104-.603-3.075-2.517-2.024-6.136 1.051-3.618 4.074-9.36 4.757-13.53.657-4.143 4.337-8.338 6.413-7.263Z" fill="#A84400"/><path d="M182.138 67.708c1.577-.131 2.629 3.88.789 3.96-1.84.078-2.655-3.83-.789-3.96Z" fill="#fff"/><path d="M183.084 68.704c.395-.315.841 1.705.395 2.02-.474.288-.789-1.731-.395-2.02Z" fill="#6B3425"/><path d="m106.603 110.211 19.633 10.279s19.79-4.222 20.894-4.72c1.104-.498 6.045-6.083 6.597-6.424.552-.341 1.157-.21 1.078.524-.079.735-.605 3.095-.605 3.095s4.284-1.259 4.652-1.574c.368-.314 2.629-2.805 3.128-3.068.499-.262 1.498-.078 1.34.525-.157.603-2.05 4.221-2.05 4.221s1.104 3.304.027 4.799c-1.078 1.494-6.965 3.566-9.856 4.3-2.918.708-24.732 7.526-26.625 7.788-1.892.236-3.469-.813-7.254-2.544-6.334-2.936-17.82-10.095-17.82-10.095l6.861-7.106Z" fill="#F69576"/><path d="M85.575 97.073c-4.1 4.301-2.365 11.669 1.761 15.55 4.126 3.88 11.328 5.244 11.328 5.244s2.733 4.326 3.784 2.91c1.052-1.416 7.491-11.327 6.571-12.009-.92-.682-3.837-.655-3.837-.655s1.656-8.365-3.837-12.115c-3.575-2.386-9.357-5.663-15.77 1.075Z" fill="#FFE051"/><path d="M95.984 101.242a3.124 3.124 0 0 0 3.128-3.12c0-1.724-1.4-3.12-3.128-3.12a3.124 3.124 0 0 0-3.127 3.12c0 1.723 1.4 3.12 3.127 3.12ZM89.807 111.941a3.124 3.124 0 0 0 3.128-3.12c0-1.724-1.4-3.121-3.128-3.121a3.124 3.124 0 0 0-3.128 3.121c0 1.723 1.4 3.12 3.128 3.12ZM100.424 114.746a3.124 3.124 0 0 0 3.128-3.12c0-1.723-1.4-3.12-3.128-3.12a3.124 3.124 0 0 0-3.127 3.12c0 1.723 1.4 3.12 3.127 3.12Z" fill="#fff"/><path d="M122.737 118.655c.736.315 1.788.944 2.261 1.18-.289-1.259-.657-2.15-1.052-2.832-1.077-1.809-3.837-3.251-7.622.262-3.758 3.514-7.648 13.242-7.648 13.242l1.814 1.232s1.445-3.776 3.206-7.289c1.761-3.54 4.521-6.582 5.835-6.975.867-.262 2.26-.708 3.206 1.18ZM123.921 130.009a53.2 53.2 0 0 1-.421 4.956l1.761-.289s.237-2.386.394-4.955c-.499.157-1.734.288-1.734.288Z" fill="#512176"/><path d="M105.76 129.379c.867-2.203 4.652-.787 5.572.262.92 1.049 1.708 1.337 3.574.891 1.866-.445 3.837-.603 5.23.787 1.393 1.39 1.814 2.491 3.522 2.255 1.709-.236 1.945-2.334 3.654-.629 1.708 1.704 1.76 3.225 2.339 11.563.578 8.339.788 11.983.026 12.98-.762.996-2.024 1.468-2.024 1.468l-29.252-6.922s-1.919-1.154-1.393-3.54 7.701-16.519 8.752-19.115Z" fill="#512176"/><path d="M125.707 134.913s-2.891.498-4.494-.026c-1.629-.524-3.785-1.521-3.785-1.521s-.499 1.259-.315 1.39 1.735 1.049 4.126 1.363c2.392.315 4.074-.078 4.232-.131.184-.105.604-1.127.236-1.075ZM116.537 132.92c.263.104.157 1.469-.316 1.39-.446-.053-2.654-.21-4.494-.42-1.84-.236-3.601-.997-3.601-.997l.263-1.18s1.446.577 3.312.708c1.866.158 4.258.236 4.836.499Z" fill="#E7D0B0"/><path d="M106.286 130.167s.578-1.311 2.391-2.098c1.814-.787 4.153-.996 4.836-.524.684.498.211 1.442-.184 1.861-.394.42-.893 1.469-1.34 2.623-.447 1.153-.316 3.487-1.025 4.326-.71.839-1.761 1.547-3.049.839-1.261-.708-1.84-2.648-1.919-3.278-.078-.629-.262-1.206-.262-1.206l-.631-.052s-.473.996-2.366 2.124c-1.892 1.127-4.835 1.573-5.519 1.127-.683-.446-.71-1.652.105-2.465.815-.812 2.024-2.097 2.024-2.097s.026-2.098-.315-2.701c-.342-.577-.815-1.678-.184-2.15.63-.472 1.261-.446 2.549.183 1.288.63 2.392.551 3.128 1.18.736.63 1.314 2.15 1.314 2.15l.447.158Z" fill="#E7D0B0"/><path d="M234.887 151.247s-1.13 11.747 0 31.282c1.13 19.561 5.887 38.283 6.439 40.511.552 2.229 7.57 39.699 7.57 39.699h10.933s-6.15-50.58-6.728-65.946c-.552-15.365 1.971-44.13 1.971-44.13l-20.185-1.416Z" fill="#254B6B"/><path d="M274.915 152.663h-23.233s-1.814 46.437 0 48.613c1.813 2.151 7.28 10.908 8.121 17.595.841 6.712 3.101 43.868 3.101 43.868h12.011V152.663Z" fill="#254B6B"/><path d="M257.646 90.178c-11.59-.236-15.296 1.494-17.74 6.896-2.418 5.401-8.595 52.888-9.147 62.589-.552 9.676 1.314 15.471 14.561 15.471 13.246 0 31.355-10.803 31.355-10.803s.736 3.356 1.314 5.401c.552 2.046 6.15 4.274 6.15.735 0-3.54-2.392-59.077-2.76-68.385-.394-9.308-14.954-11.72-23.733-11.904Z" fill="#000"/><path d="M245.346 93.326c-4.573-1.18-8.778-1.128-12.143 5.585-3.364 6.712-5.966 27.558-5.966 27.558l15.507 6.136c-.026.026 14.718-36.107 2.602-39.28Z" fill="#000"/><path d="M281.378 102.083c-.367-9.308-14.928-11.747-23.706-11.93-7.754-.158-11.985.55-14.666 2.7-3.653-.472-7.017.525-9.777 6.057-3.364 6.713-5.966 27.559-5.966 27.559l7.07 2.805c-1.761 12.927-3.259 25.802-3.522 30.364-.552 9.676 1.314 15.471 14.56 15.471 13.247 0 31.355-10.803 31.355-10.803s.736 3.356 1.315 5.401c.552 2.045 6.15 4.274 6.15.734s-2.445-59.05-2.813-68.358Z" fill="#000"/><path d="M253.679 89.207c4.074 0 8.909.394 11.433 1.993 3.075 1.967 3.022 9.309-10.461 9.912-13.483.603-13.036-5.664-11.669-7.526 1.945-2.674 7.569-4.352 10.697-4.379Z" fill="#F69576"/><path d="m248.423 80.791-2.629 16.834h15.901s-.762-6.686-1.656-11.039c-.893-4.326-1.655-5.794-1.655-5.794h-9.961Z" fill="#F69576"/><path d="M255.362 85.38s.131 3.094-1.919 4.457c-2.05 1.364-6.623 1.39-6.623 1.39l1.629-10.41h6.702c0-.026.473 2.596.211 4.563Z" fill="#DD866F"/><path d="M246.163 60.39s-2.024 1.653-2.891 5.324c-.684 2.832-.526 5.847-.868 7.551-.341 1.705-.92 4.405-.447 6.765.474 2.36 2.576 5.585 6.492 6.687 3.916 1.101 7.096.314 9.252-2.413 2.155-2.7 4.809-7.551 5.598-10.934.788-3.356 1.235-9.728-2.366-12.534-4.599-3.566-10.092-3.592-14.77-.445Z" fill="#F69576"/><path d="M253.232 79.349s-.368 2.281-1.734 2.78c-1.367.498-2.734.157-3.365-.604-.63-.76-.946-2.202-.946-2.202l6.045.026Z" fill="#fff"/><path d="M249.79 76.832c-.446-.078-.42-.498-.42-.734v-.053c-.026.027-.053.026-.053.053-.157.105-.394.288-.683.026-.105-.105-.158-.262-.158-.498.026-.446.316-1.05.578-1.26.053-.052.132-.026.184.027.053.052.027.13-.026.183-.184.132-.447.656-.473 1.05 0 .13.026.236.079.288.105.105.184.079.342-.052.078-.053.157-.131.262-.131.053 0 .105 0 .132.052.079.079.079.184.079.315 0 .288.026.42.184.472.078 0 .131 0 .184-.026.078-.053.078-.236.078-.367 0-.105 0-.184.053-.237.026-.052.105-.105.158-.105.131 0 .263.08.446.289.027.026.079.079.158.053.079-.027.184-.132.237-.342.052-.314-.237-.944-.368-1.154a.137.137 0 0 1 .052-.183.139.139 0 0 1 .184.052c.053.079.473.866.395 1.338-.053.288-.211.498-.421.55a.373.373 0 0 1-.42-.13c-.106-.105-.158-.158-.211-.184v.079c0 .157-.026.42-.184.55a.444.444 0 0 1-.263.08h-.105Z" fill="#6B3425"/><path d="M269.266 70.93c-1.209-2.989-9.987-.288-8.358 5.218 1.656 5.638 10.145-.812 8.358-5.218Z" fill="#F69576"/><path d="M262.537 76.83c.026 0 .052 0 .079-.026a.127.127 0 0 0 0-.183c-.368-.393-.447-1.652.026-2.858.315-.866 1.13-2.334 3.022-2.57 1.025-.131 1.735.053 2.129.498.605.682.316 1.783.316 1.81-.027.078.026.13.105.157.079.026.131-.026.158-.105.026-.052.315-1.259-.368-2.045-.473-.525-1.262-.734-2.366-.603-1.498.183-2.681 1.18-3.259 2.753-.447 1.232-.447 2.622.026 3.146.079.027.106.027.132.027Z" fill="#6B3425"/><path d="M265.69 76.36a.144.144 0 0 0 .131-.08c.053-.104 1.025-2.517-.42-5.217-.027-.053-.105-.079-.184-.053-.053.026-.079.105-.053.184 1.393 2.596.421 4.982.421 4.982-.027.078 0 .13.078.183h.027ZM254.152 74.29c.261 0 .473-.435.473-.971s-.212-.97-.473-.97c-.262 0-.473.434-.473.97s.211.97.473.97ZM256.386 70.776c-.368-.315-1.156-.734-1.945-.813-.867-.079-1.393.315-1.734.393-.342.08-.395-.393-.211-.813.184-.42.92-.734 2.129-.682 1.209.053 1.866.577 2.182.944.315.368.105 1.39-.421.971ZM246.741 74.026c.261 0 .473-.434.473-.97 0-.537-.212-.971-.473-.971s-.473.434-.473.97c0 .537.212.971.473.971ZM248.527 70.407c-.368-.315-1.156-.734-1.945-.813-.867-.079-1.393.315-1.734.393-.342.079-.395-.393-.211-.813.184-.42.92-.734 2.129-.682 1.209.052 1.866.577 2.182.944.341.368.079 1.39-.421.971ZM245.374 82.18l.604.157s1.183 2.307 2.155 2.753c.973.446 4.206.289 4.547 0 .342-.288 1.446-2.858 1.446-2.858l.762.184s-1.156 3.697-1.314 4.011c-.105.21-2.234 1.652-3.075 1.731-.841.079-3.68-1.495-3.811-1.835-.447-1.075-1.314-4.143-1.314-4.143Z" fill="#6B3425"/><path d="m249.054 83.622 1.419-.052.053 2.49-1.078.21-.394-2.648Z" fill="#6B3425"/><path d="m262.247 123.583-.079 15.13s-18.135.209-19.292-.079c-1.182-.289-7.017-4.93-7.621-5.166-.605-.262-1.183 0-.947.708.237.708 1.13 2.937 1.13 2.937s-4.441-.498-4.835-.734c-.395-.236-3.076-2.308-3.627-2.465-.552-.183-1.472.184-1.236.761.237.576 2.76 3.802 2.76 3.802s-.499 3.461.815 4.719c1.314 1.285 7.464 2.308 10.46 2.491 2.996.184 25.678 3.094 27.57 2.99 1.893-.079 4.652-.682 5.625-4.72.972-4.064 1.288-19.614 1.288-19.614l-12.011-.76Z" fill="#F69576"/><path opacity=".4" d="m277.333 103.473-3.6 20.216 6.439 1.94-2.839-22.156Z" fill="#254B6B"/><path d="M261.722 56.903s-3.338 6.03-12.616 6.555c-19.318 1.127-10.461-9.702-10.461-9.702s-.683 2.858 2.629 3.016c4.547.21 11.117-13.557 20.448.13Z" fill="#A5713D"/></svg>