<svg width="375" height="306" fill="none" xmlns="http://www.w3.org/2000/svg"><path d="M170.574 53.524c18.161 3.432 52.381-66.623 90.281-51.166 37.899 15.457 10.04 65.26 23.549 76.421 13.509 11.16 50.515-23.186 66.074 12.89 15.559 36.075-8.069 74.692-8.41 80.692-.342 5.999 42.656 38.25 30.724 82.656-11.932 44.407-170.39 48.704-226.95 50.407-56.56 1.702-132.174 1.571-143.318-44.722C-8.62 214.409 42 174.09 46.679 161.148c4.678-12.942-37.663-57.978 15.427-113.336 41.027-42.808 90.307 2.28 108.468 5.712Z" fill="#9ECBDD"/><path d="M160.43 166.36H78.324v22.138h82.106V166.36Z" fill="#776B67"/><path d="M161.56 168.012H76.378v-28.347h68.519l16.663 13.912v14.435Z" fill="#6B3425"/><path d="M123.819 188.499H78.324v-29.263l22.76-18.418 22.735 18.418v29.263Z" fill="#776B67"/><path d="M130.678 124.967h-6.86v15.85h6.86v-15.85Z" fill="#A5713D"/><path d="M133.28 137.726h-11.774v5.161h11.774v-5.161Z" fill="#E7D0B0"/><path d="M99.902 153.837h-2.707v6.707h2.707v-6.707ZM104.186 153.837h-3.101v6.707h3.101v-6.707ZM89.703 170.58h-3.758v1.284h3.758v-1.284ZM93.96 170.58h-3.102v1.284h3.102v-1.284ZM89.703 172.78h-3.758v8.252h3.758v-8.252ZM93.96 172.78h-3.102v8.252h3.102v-8.252ZM132.334 171.862h-4.126v2.961h4.126v-2.961ZM132.334 176.892h-4.126v2.698h4.126v-2.698ZM132.334 181.033h-4.126v2.698h4.126v-2.698ZM138.537 171.862h-4.127v2.961h4.127v-2.961ZM138.537 176.892h-4.127v2.698h4.127v-2.698ZM138.537 181.033h-4.127v2.698h4.127v-2.698ZM144.765 171.862h-4.126v2.961h4.126v-2.961ZM144.765 176.892h-4.126v2.698h4.126v-2.698ZM144.765 181.033h-4.126v2.698h4.126v-2.698ZM150.967 171.862h-4.126v2.961h4.126v-2.961ZM150.967 176.892h-4.126v2.698h4.126v-2.698ZM150.967 181.033h-4.126v2.698h4.126v-2.698ZM157.17 171.862h-4.127v2.961h4.127v-2.961ZM157.17 176.892h-4.127v2.698h4.127v-2.698ZM157.17 181.033h-4.127v2.698h4.127v-2.698ZM111.413 170.58h-3.758v1.284h3.758v-1.284ZM115.67 170.58h-3.102v1.284h3.102v-1.284ZM111.413 172.78h-3.758v8.252h3.758v-8.252ZM115.67 172.78h-3.102v8.252h3.102v-8.252Z" fill="#417A8C"/><path d="M279.859 136.601h-2.366v8.593h2.366v-8.593Z" fill="#6B3425"/><path d="M328.428 166.494h-60.607v-21.3l30.304-7.231 30.303 7.231v21.3Z" fill="#E7D0B0"/><path d="M330.373 166.494h-64.707v20.697h64.707v-20.697Z" fill="#A5713D"/><path d="M279.202 151.559h-3.39v8.305h3.39v-8.305ZM284.302 151.559h-4.469v8.305h4.469v-8.305ZM298.02 151.559h-3.391v8.305h3.391v-8.305ZM303.145 151.559h-4.468v8.305h4.468v-8.305ZM315.392 151.559h-3.391v8.305h3.391v-8.305ZM320.517 151.559h-4.468v8.305h4.468v-8.305ZM279.202 168.904h-3.39v8.305h3.39v-8.305ZM284.302 168.904h-4.469v8.305h4.469v-8.305ZM298.02 168.904h-3.391v8.305h3.391v-8.305ZM303.145 168.904h-4.468v8.305h4.468v-8.305ZM315.392 168.904h-3.391v8.305h3.391v-8.305ZM320.517 168.904h-4.468v8.305h4.468v-8.305Z" fill="#417A8C"/><path d="M2.524 260.702c11.144 46.293 86.785 46.45 143.318 44.721 56.534-1.729 214.991-5.999 226.95-50.406 8.121-30.207-9.173-54.808-20.974-69.322H28.044c-15.06 19.073-32.538 45.848-25.52 75.007Z" fill="#776B67"/><path d="M13.431 206.707c-9.251 15.85-15.638 34.398-10.907 53.995 11.144 46.293 86.785 46.45 143.319 44.721 56.533-1.729 214.99-6 226.949-50.406 4.994-18.575.368-35.028-6.649-48.31H13.431Z" fill="#8A9995"/><path d="M187.605 150.537s10.881-4.584 15.98 5.083-3.627 15.824-7.99 16.112c-4.363.288-8.883-1.179-12.011.105-3.128 1.258-9.12 7.126-15.98 6.838-6.859-.288-13.272-5.633-14.692-16.532-2.365-17.762 12.747-15.719 12.747-15.719s-4.415-14.357 4.127-19.151c8.542-4.794 18.03-.498 20.868 6.55 2.812 7.021-3.049 16.714-3.049 16.714Z" fill="#96C22F"/><path d="M179.564 138.8s.394 9.379-1.183 12.104c-1.577 2.725-4.021 5.266-3.811 5.869.184.576 8.621 16.924 11.065 22.766 2.444 5.842 1.971 7.703 1.367 8.986-.578 1.258-.394 10.925-.394 10.925h-6.361s.079-6.916.762-9.772c.71-2.829 1.577-2.829 1.288-4.192-.289-1.362-11.275-27.063-10.302-29.421.972-2.358 4.205-3.013 5.098-6.235.894-3.223 2.471-11.03 2.471-11.03Z" fill="#6B3425"/><path d="M191.416 159.523s-5.599 5.188-6.965 7.415c-1.367 2.253-3.47 6.34-3.47 6.34l1.998 2.934s2.024-7.231 3.233-8.881c1.182-1.651 5.204-7.808 5.204-7.808ZM158.379 158.843s5.783 3.51 9.594 4.401c3.81.891 8.331 1.572 8.331 1.572l1.183 3.065s-18.424-4.453-19.108-9.038Z" fill="#6B3425"/><path d="M218.015 120.959s-3.259-6.288 4.153-6.995c-.762-5.004 6.492-12.549 19.081-9.327 2.129-5.45 14.14-15.064 22.498-3.353 15.927-6.655 18.187 2.934 16.058 4.663 12.353-2.227 10.172 6.209 8.095 7.152 16.348-3.484 14.088 7.86 14.088 7.86h-83.973ZM114.96 64.946s-1.367-3.484 1.735-3.877c-.316-2.777 2.707-6.943 7.963-5.161.894-3.013 5.914-8.331 9.383-1.86 6.65-3.694 7.596 1.624 6.702 2.567 5.152-1.231 4.258 3.432 3.364 3.956 6.834-1.939 5.888 4.35 5.888 4.35H114.96v.025Z" fill="#fff"/><path d="M84.05 198.874H72.619v6.549H84.05v-6.549Z" fill="#6B3425"/><path d="M95.143 184.097h14.508l-4.258-18.103-10.25-3.851h9.331l-1.104-4.664-16.506-1.257 15.481-3.118-2.182-9.274-13.299-4.166s7.254-.419 12.143-.681l-6.597-28.164-10.828-.943 10.329-1.152-13.589-57.768-8.016 34.11h4.968l-5.677 3.013-2.55 10.82H76.3l-9.777 2.332-.894 3.772h5.178l-5.599 1.808-5.361 22.74 12.8 2.699-14.088 2.856-4.31 18.286h13.299l-14.64 5.659-4.468 18.916a4892.18 4892.18 0 0 0 17.242 2.462l-18.424 2.568-3.733 15.876h69.623l-2.077-8.829-15.927-5.947Z" fill="#7EA21A"/><path d="M316.363 191.907h6.15v-3.537h-6.15v3.537Z" fill="#6B3425"/><path d="M310.371 180.404h-7.806l2.287-9.746 5.519-2.07h-5.02l.578-2.515 8.884-.681-8.332-1.677 1.183-5.004 7.149-2.253s-3.916-.236-6.545-.367l3.575-15.169 5.835-.497-5.572-.629 7.333-31.124 4.336 18.365h-2.681l3.049 1.624 1.367 5.817h-4.968l5.283 1.257.473 2.044h-2.812l3.023.969 2.891 12.235-6.886 1.441 7.595 1.545 2.313 9.851h-7.149l7.885 3.039 2.392 10.191c-3.785.55-9.278 1.336-9.278 1.336l9.935 1.389 2.024 8.541h-37.558l1.13-4.768 8.568-3.144Z" fill="#7EA21A"/><path d="M239.987 83.311H78.192v123.815h161.795V83.311Z" fill="#7A7A7A"/><path d="M242.589 78.439H69.072v13.78h173.517V78.44Z" fill="#A5713D"/><path d="M244.061 78.439h-58.242v132.224h58.242V78.439ZM84.972 85.33H74.67v125.333h10.303V85.329Z" fill="#A5713D"/><path d="M189.945 88.97H79.795v19.937h110.15V88.97Z" fill="#A5713D"/><path d="M182.874 93.686h-99.69v9.955h99.69v-9.956ZM236.413 92.219h-41.184V206.55h41.184V92.219Z" fill="#E7D0B0"/><path d="M219.749 56.589H112.7V82.42h107.049V56.589Z" fill="#fff"/><path d="m128.049 65.34-2.444 2.986c-.499-.524-.946-.864-1.314-1.021-.368-.158-.71-.184-.973-.105a1.26 1.26 0 0 0-.683.498 3.198 3.198 0 0 0-.447.76c-.105.261-.21.576-.315.995 0 .026.026.13.052.367.053.21.132.471.29.733.157.262.368.472.657.603.289.13.683.105 1.156-.053.473-.157 1.104-.576 1.814-1.23l2.733 2.907c-.132.262-.368.55-.736.838-.342.289-.762.525-1.235.76-.473.236-.999.42-1.577.577a7.947 7.947 0 0 1-1.735.262 5.516 5.516 0 0 1-1.735-.184 4.454 4.454 0 0 1-1.576-.786c-.71-.55-1.209-1.126-1.551-1.781a5.614 5.614 0 0 1-.605-1.991c-.078-.681 0-1.363.158-2.07a9.558 9.558 0 0 1 .736-1.939 7.999 7.999 0 0 1 1.104-1.624c.42-.472.867-.865 1.288-1.153.368-.21.709-.367 1.051-.445.315-.105.71-.157 1.156-.21.447-.052.92 0 1.446.131.526.131 1.051.367 1.629.708.526.288 1.104.812 1.656 1.467Z" fill="#512176"/><path d="m133.99 62.588 7.043 10.69-4.389 1.65-1.183-1.939-2.943.105-.578 2.096-4.206-1.362 6.256-11.24Zm-.71 8.28 1.656-.289-.684-1.886-.972 2.174Z" fill="#512176"/><path d="m149.995 72.726-2.155 2.437-3.391-2.489-.052 2.384-3.391-.34-.21-10.873a135.12 135.12 0 0 1 5.099-.524c.867-.105 1.603-.026 2.181.184.578.21 1.025.55 1.314.969.289.419.473.917.526 1.467.052.55-.053 1.126-.237 1.73-.184.602-.525 1.152-.972 1.728a6.31 6.31 0 0 1-1.656 1.441l2.944 1.886Zm-5.756-5.763-.132 2.227c.342-.079.631-.184.868-.315.236-.13.447-.288.631-.445.184-.157.289-.315.394-.446a1.84 1.84 0 0 0 .158-.34c0-.026 0-.079.026-.157 0-.079 0-.21-.026-.34-.027-.132-.106-.237-.237-.342-.131-.078-.315-.13-.578-.13-.316.026-.657.104-1.104.288ZM160.323 67.75c.289.132.578.289.894.446.315.157.578.367.815.602.236.236.446.524.604.865.158.34.263.734.263 1.205.026.655-.079 1.232-.315 1.755a3.49 3.49 0 0 1-1.025 1.284c-.447.34-.973.629-1.577.812a7.955 7.955 0 0 1-1.972.315c-.315 0-.657 0-.998-.053a13.923 13.923 0 0 1-1.025-.183c-.342-.079-.657-.183-.973-.288a9.112 9.112 0 0 1-.893-.367l1.051-2.987c.131.053.289.131.499.21.184.079.395.157.631.236.237.078.447.13.71.183.236.053.473.079.709.079.342-.026.631-.079.868-.184.236-.105.341-.262.341-.524a.396.396 0 0 0-.236-.367 5.862 5.862 0 0 0-.552-.235 3.795 3.795 0 0 0-.552-.157c-.237-.053-.473-.158-.736-.262a5.467 5.467 0 0 1-.788-.393c-.263-.158-.5-.341-.736-.577a3.286 3.286 0 0 1-.552-.76c-.158-.288-.211-.628-.237-1.021a3.637 3.637 0 0 1 .342-1.73 3.68 3.68 0 0 1 .999-1.283c.42-.367.919-.629 1.471-.812a6.548 6.548 0 0 1 1.788-.315c.578-.026 1.156 0 1.734.105.578.079 1.13.236 1.63.446l-.815 3.222c-.368-.157-.71-.288-1.025-.393a5.49 5.49 0 0 0-1.078-.236c-.131-.026-.289-.026-.499-.026-.184 0-.394.026-.578.052a1.075 1.075 0 0 0-.5.21.498.498 0 0 0-.21.393c0 .079.026.13.105.183.079.053.158.079.237.105.105.026.21.052.289.052a.99.99 0 0 0 .263.027c.263.052.552.13.867.21.289-.027.526.052.762.157ZM163.189 63.95l7.701-.576-.42 3.511-3.496.157-.026.655 2.549-.183-.289 2.436-2.339.184-.026.76 3.995-.367-.079 3.85-7.464.394-.106-10.82ZM180.615 72.726l-2.155 2.437-3.391-2.489-.052 2.384-3.391-.34-.21-10.873a135.12 135.12 0 0 1 5.099-.524c.867-.105 1.603-.026 2.181.184.578.21 1.025.55 1.314.969.29.419.473.917.526 1.467.053.55-.053 1.126-.236 1.73-.184.602-.526 1.152-.973 1.728a6.31 6.31 0 0 1-1.656 1.441l2.944 1.886Zm-5.756-5.763-.131 2.227c.341-.079.63-.184.867-.315.236-.13.447-.288.631-.445.184-.157.289-.315.394-.446a1.84 1.84 0 0 0 .158-.34c0-.026 0-.079.026-.157 0-.079 0-.21-.026-.34-.027-.132-.105-.237-.237-.342-.131-.078-.315-.13-.578-.13-.315.026-.657.104-1.104.288Z" fill="#512176"/><path d="m183.611 63.086 2.05 4.9 2.391-4.795 3.47 2.017-6.124 10.506-5.756-10.296 3.969-2.332Z" fill="#512176"/><path d="m195.543 63.296-.578 11.266-3.68.419.132-11.187 4.126-.498ZM205.976 65.34l-2.444 2.986c-.5-.524-.946-.864-1.314-1.021-.368-.158-.71-.184-.973-.105a1.257 1.257 0 0 0-.683.498 3.198 3.198 0 0 0-.447.76c-.105.261-.21.576-.315.995 0 .026.026.13.052.367.053.21.132.471.289.733.158.262.368.472.657.603.289.13.684.105 1.157-.053.473-.157 1.104-.576 1.813-1.23l2.734 2.907c-.132.262-.368.55-.736.838-.342.289-.762.525-1.236.76-.473.236-.998.42-1.576.577a7.956 7.956 0 0 1-1.735.262 5.516 5.516 0 0 1-1.735-.184 4.459 4.459 0 0 1-1.577-.786c-.709-.55-1.209-1.126-1.55-1.781a5.614 5.614 0 0 1-.605-1.991c-.079-.681 0-1.363.158-2.07a9.5 9.5 0 0 1 .736-1.939 7.999 7.999 0 0 1 1.104-1.624c.42-.472.867-.865 1.287-1.153.368-.21.71-.367 1.052-.445.315-.105.709-.157 1.156-.21.447-.052.92 0 1.446.131.525.131 1.051.367 1.629.708.526.288 1.078.812 1.656 1.467ZM206.871 63.95l7.701-.576-.421 3.511-3.495.157-.027.655 2.55-.183-.289 2.436-2.339.184-.027.76 3.995-.367-.079 3.85-7.464.394-.105-10.82Z" fill="#512176"/><path d="M159.746 112.472v3.379h-48.254v-3.379h-.815v4.27h49.963v-4.27h-.894Z" fill="#383D42"/><path d="M166.974 112.472h-61.895v1.074h61.895v-1.074Z" fill="#00497F"/><path d="M165.608 111.764h-58.32v1.781h58.32v-1.781Z" fill="#00497F"/><path d="M173.755 170.342c1.379 0 2.497-2.205 2.497-4.925 0-2.72-1.118-4.925-2.497-4.925-1.379 0-2.497 2.205-2.497 4.925 0 2.72 1.118 4.925 2.497 4.925Z" fill="#383D42"/><path d="M173.833 110.768h-6.859v32.617h6.859v-32.617Z" fill="#00497F"/><path d="M173.492 141.629h-6.518v64.187h6.518v-64.187Z" fill="#00497F"/><path d="M175.517 204.402h-9.988v2.489h9.988v-2.489Z" fill="#00497F"/><path d="M145.843 183.68h-2.996v.969h2.996v-.969Z" fill="#383D42"/><path d="M144.66 184.175h-.709v1.074h.709v-1.074Z" fill="#383D42"/><path d="m166.974 183.285-5.756 1.651h-18.161v.655l13.877 2.541 10.04.76v-5.607Z" fill="#A5A5A5"/><path d="M99.243 170.345c1.379 0 2.497-2.205 2.497-4.926 0-2.72-1.118-4.925-2.497-4.925-1.378 0-2.496 2.205-2.496 4.925 0 2.721 1.118 4.926 2.496 4.926Z" fill="#383D42"/><path d="M99.158 143.418h6.86v-32.617h-6.86v32.617Z" fill="#00497F"/><path d="M99.489 205.823h6.518v-64.187h-6.518v64.187Z" fill="#00497F"/><path d="M97.444 206.887h9.988v-2.489h-9.988v2.489Z" fill="#00497F"/><path d="M130.151 183.68h-2.997v.969h2.997v-.969Z" fill="#383D42"/><path d="M128.313 185.235h.71v-1.074h-.71v1.074Z" fill="#383D42"/><path d="m106.024 183.286 5.73 1.65h18.161v.655l-13.877 2.541-10.014.76v-5.606Z" fill="#A5A5A5"/><path d="M118.244 192.664h-2.102a1.59 1.59 0 0 1-1.603-1.598v-4.795h5.282v4.821c.027.865-.683 1.572-1.577 1.572Z" fill="#000"/><path d="M138.035 175.766h-23.811s-.053-1.126.657-2.593c.709-1.441 2.102-2.725 2.996-3.878.893-1.179 1.708-3.851 2.891-6.078 1.183-2.227 3.338-5.004 3.338-5.004h13.929v17.553Z" fill="#FFE051"/><path d="M119.35 166.335h-2.339a1.054 1.054 0 0 1-1.052-1.048c0-.577.474-1.048 1.052-1.048h.709c.894 0 1.63.733 1.63 1.624v.472Z" fill="#FFE051"/><path d="M138.036 175.766h-24.285v7.807h24.285v-7.807Z" fill="#E8BB3A"/><path d="M114.566 179.434s2.576-.367 3.102 0c.525.367 1.682 3.17 1.682 3.17h-3.391l-1.393-3.17Z" fill="#8A9995"/><path d="M115.644 174.325c.42-.786 5.44-1.022 6.308-.419.867.602 1.945 2.2 1.734 2.593-.21.367-9.277.184-8.042-2.174ZM125.551 176.107a.84.84 0 0 0 .841-.838.84.84 0 0 0-.841-.838.84.84 0 0 0-.841.838.84.84 0 0 0 .841.838Z" fill="#fff"/><path d="M138.036 187.084h-23.759a.941.941 0 0 1-.946-.944v-2.541h24.731v3.485h-.026Z" fill="#606060"/><path d="M138.036 168.405s-9.33 0-12.905-.262c-3.574-.262-4.415-2.593-4.415-2.593l3.627-6.341h13.719v9.196h-.026Z" fill="#749DC1"/><path d="M138.035 182.604h-11.038a.848.848 0 0 1-.841-.97l.551-3.825a1.384 1.384 0 0 1 1.367-1.179h9.988v5.974h-.027Z" fill="#303030"/><path d="M138.035 176.919h-8.226v.891h8.226v-.891ZM138.035 178.491h-8.226v.891h8.226v-.891ZM138.035 179.669h-8.226v.891h8.226v-.891ZM138.035 181.242h-8.226v.891h8.226v-.891Z" fill="#606060"/><path d="M129.889 183.049h-1.025l.867-6.917h1.025l-.867 6.917Z" fill="#8A9995"/><path d="M138.063 185.328h-4.126v1.1h4.126v-1.1Z" fill="#303030"/><path d="M155.171 192.664h2.103a1.59 1.59 0 0 0 1.603-1.598v-4.795h-5.283v4.821c-.026.865.683 1.572 1.577 1.572Z" fill="#000"/><path d="M135.38 175.766h23.812s.053-1.127-.657-2.594c-.709-1.441-2.102-2.725-2.996-3.877-.894-1.179-1.708-3.852-2.891-6.078-1.183-2.227-3.338-4.978-3.338-4.978h-13.93v17.527Z" fill="#FFE051"/><path d="M154.067 166.335h2.339c.578 0 1.051-.472 1.051-1.048 0-.577-.473-1.048-1.051-1.048h-.71c-.893 0-1.629.733-1.629 1.624v.472Z" fill="#FFE051"/><path d="M135.392 183.592h24.285v-7.807h-24.285v7.807Z" fill="#E8BB3A"/><path d="M158.878 179.434s-2.576-.367-3.102 0c-.525.367-1.682 3.17-1.682 3.17h3.391l1.393-3.17Z" fill="#8A9995"/><path d="M157.774 174.325c-.42-.786-5.44-1.022-6.308-.419-.867.602-1.945 2.2-1.734 2.593.236.367 9.304.184 8.042-2.174ZM147.866 176.107a.839.839 0 1 0 0-1.676.84.84 0 0 0-.841.838.84.84 0 0 0 .841.838Z" fill="#fff"/><path d="M135.381 187.083h23.76a.94.94 0 0 0 .946-.943v-2.541h-24.732v3.484h.026Z" fill="#606060"/><path d="M135.381 168.403s9.331 0 12.905-.262 4.415-2.594 4.415-2.594l-3.627-6.34h-13.719v9.196h.026Z" fill="#749DC1"/><path d="M135.381 182.604h11.039c.526 0 .92-.472.841-.97l-.552-3.825a1.383 1.383 0 0 0-1.367-1.179h-9.987v5.974h.026Z" fill="#303030"/><path d="M135.391 177.786h8.226v-.891h-8.226v.891ZM135.391 179.364h8.226v-.891h-8.226v.891ZM135.391 180.549h8.226v-.89h-8.226v.89ZM135.391 182.128h8.226v-.891h-8.226v.891Z" fill="#606060"/><path d="M143.529 183.049h1.025l-.867-6.917h-1.025l.867 6.917Z" fill="#8A9995"/><path d="M135.374 186.435h4.126v-1.101h-4.126v1.101Z" fill="#303030"/><path d="M244.534 95.023c6.518.603 4.337 24.181 4.337 24.181l-14.482-2.62s.5-22.452 10.145-21.561Z" fill="#000"/><path d="m235.413 116.583-1.866 15.274s-18.345-1.886-19.501-2.332c-1.157-.419-6.518-5.79-7.123-6.104-.604-.315-1.209-.157-1.051.602.157.76.814 3.092.814 3.092s-4.441-1.022-4.809-1.31c-.368-.288-2.839-2.672-3.364-2.908-.526-.236-1.525 0-1.341.629.184.602 2.339 4.165 2.339 4.165s-.92 3.432.263 4.873c1.183 1.441 7.28 3.196 10.303 3.747 3.022.55 25.599 6.104 27.518 6.235 1.918.131 4.783-.131 6.229-4.113 1.445-3.983 3.6-19.649 3.6-19.649l-12.011-2.201Z" fill="#DD866F"/><mask id="mask0_131_7202" style="mask-type:luminance" maskUnits="userSpaceOnUse" x="240" y="92" width="40" height="78"><path d="M264.35 92.848s7.017-1.153 12.011 6.13c4.994 7.284 2.155 19.754 2.497 33.22.368 13.467-.868 37.412-.868 37.412h-34.561s.867-29.421-1.446-41.315c-2.313-11.894-2.497-27.797 1.998-31.072 4.494-3.275 13.272-5.894 20.369-4.375Z" fill="#fff"/></mask><g mask="url('#mask0_131_7202')"><path d="M264.35 92.848s7.017-1.153 12.011 6.13c4.994 7.284 2.155 19.754 2.497 33.22.368 13.467-.868 37.412-.868 37.412h-34.561s.867-29.421-1.446-41.315c-2.313-11.894-2.497-27.797 1.998-31.072 4.494-3.275 13.272-5.894 20.369-4.375Z" fill="#000"/></g><path d="M252.603 57.506s6.202-3.904 13.167.524c4.679 2.987 4.153 13.152 3.496 17.082-1.498 9.274-9.698 10.086-9.698 10.086s-29.857-21.64-6.965-27.692Z" fill="#6B3425"/><path d="M255.442 91.956c4.152 0 9.067.393 11.643 2.043-11.144 6.524-18.214 11.397-18.214 11.397s-5.703-7.074-4.337-8.96c2.024-2.75 7.727-4.48 10.908-4.48Z" fill="#F69576"/><path d="m250.105 83.39-2.654 17.107 10.749-1.834s6.203-1.52 5.283-5.947c-.92-4.401-3.233-9.326-3.233-9.326h-10.145Z" fill="#F69576"/><path d="M257.148 88.053s.131 3.144-1.971 4.532c-2.103 1.389-6.729 1.389-6.729 1.389l1.656-10.584h6.833s.474 2.672.211 4.663Z" fill="#DD866F"/><path d="M247.792 62.64s-2.05 1.677-2.943 5.424c-.684 2.856-.526 5.947-.894 7.676-.368 1.73-.946 4.48-.447 6.89.5 2.41 2.629 5.685 6.597 6.786 3.969 1.1 7.228.314 9.409-2.437 2.182-2.75 4.915-7.702 5.704-11.108.814-3.406 1.261-9.903-2.418-12.759-4.652-3.615-10.224-3.668-15.008-.471Z" fill="#F69576"/><path d="M254.993 81.924s-.368 2.331-1.761 2.83c-1.393.497-2.786.156-3.416-.604-.631-.76-.973-2.253-.973-2.253l6.15.027Z" fill="#fff"/><path d="M251.498 79.356c-.447-.078-.42-.497-.42-.733v-.053c-.027.027-.053.027-.053.053-.158.105-.42.314-.71.026-.105-.105-.157-.288-.157-.498.026-.445.315-1.074.578-1.284.052-.052.131-.026.184.027.052.052.026.13-.026.183-.184.131-.447.681-.473 1.074 0 .131.026.236.078.288.106.105.184.079.368-.052.079-.052.184-.131.263-.131.053 0 .105 0 .158.052.079.079.079.184.079.34 0 .29.026.446.21.473.079.026.131 0 .184-.027.079-.052.079-.235.079-.366 0-.105 0-.184.052-.236a.222.222 0 0 1 .184-.105c.132 0 .263.079.473.288.027.026.079.079.158.053.079-.027.184-.131.237-.341.052-.314-.237-.97-.368-1.179-.027-.052-.027-.157.052-.183.053-.027.158-.027.184.052.053.079.5.89.394 1.362-.052.289-.21.498-.42.55a.376.376 0 0 1-.421-.13c-.105-.105-.184-.158-.21-.184v.079c0 .157-.026.419-.184.576a.444.444 0 0 1-.263.079c-.131-.027-.157-.027-.21-.053Z" fill="#6B3425"/><path d="M271.314 73.383c-1.235-3.04-10.171-.288-8.515 5.318 1.682 5.712 10.329-.838 8.515-5.318Z" fill="#F69576"/><path d="M264.483 79.382c.026 0 .052 0 .078-.026a.126.126 0 0 0 0-.184c-.367-.393-.446-1.676.027-2.908.315-.864 1.156-2.384 3.075-2.62 1.025-.13 1.761.053 2.181.524.605.681.316 1.808.316 1.834-.027.079.026.131.105.157.079.026.131-.026.157-.105.027-.052.342-1.283-.367-2.07-.474-.55-1.288-.733-2.392-.602-1.498.184-2.707 1.205-3.312 2.803-.473 1.258-.447 2.647.027 3.197.026-.026.052 0 .105 0Z" fill="#6B3425"/><path d="M267.689 78.884a.144.144 0 0 0 .131-.079c.053-.105 1.051-2.567-.447-5.318-.026-.052-.105-.079-.184-.052-.052.026-.079.104-.052.183 1.419 2.62.447 5.056.42 5.083-.026.078 0 .157.079.183h.053ZM255.94 76.762c.276 0 .5-.434.5-.97 0-.535-.224-.969-.5-.969s-.499.434-.499.97c0 .535.223.969.499.969ZM259.487 72.832c-.5-.445-1.551-1.021-2.602-1.152-1.183-.131-1.84.419-2.313.55-.473.13-.526-.55-.289-1.153.263-.576 1.261-1.022 2.865-.97 1.603.053 2.496.84 2.943 1.337.447.55.105 1.99-.604 1.388ZM248.398 76.5c.276 0 .499-.435.499-.97 0-.535-.223-.97-.499-.97s-.5.434-.5.97c0 .535.224.97.5.97ZM250.184 72.597c-.394-.472-1.183-1.1-1.971-1.232-.894-.13-1.393.446-1.761.603-.368.13-.395-.603-.211-1.205.184-.629.947-1.074 2.182-1.022 1.235.079 1.892.89 2.234 1.44.315.525.052 2.07-.473 1.416Z" fill="#6B3425"/><path d="M278.017 169.635s1.971 14.357 2.155 25.491c.184 11.135-.552 19.204 0 20.461.552 1.258 2.523 12.209 3.417 21.379.893 9.169 2.891 31.228 2.891 31.228h-15.271s-2.023-32.669-3.285-34.844c-1.261-2.148-7.753-33.586-7.753-33.586s-4.127 20.303-3.969 22.111c.184 1.808.71 13.65 0 20.278-.709 6.628-4.31 26.041-4.31 26.041h-15.086l3.206-35.918s.526-9.327 1.078-20.645c.552-11.317 2.339-42.022 2.339-42.022h34.588v.026Z" fill="#FF6D00"/><path d="M224.323 268.72c-1.919.759-1.551 5.659-1.551 5.659l27.807-.393c.132-1.206 0-6.576 0-6.576h-12.852s-8.331-.708-13.404 1.31ZM262.064 270.5c-1.551 1.336-1.157 4.716-1.157 4.716l24.89.341-.92-7.362h-10.303s-10.566.602-12.51 2.305Z" fill="#3D3B38"/><path d="M274.6 97.25s-2.707-2.174-6.255 2.28c-3.548 4.453-5.756 28.792-5.756 28.792h-3.785s.999-20.304 3.68-25.596c2.681-5.319 7.28-9.091 7.28-9.091l4.836 3.615Z" fill="#FF6D00"/><path d="M260.592 124.418h-19.291l2.102 45.193s23.392.183 23.655.078c.262-.052-6.466-45.271-6.466-45.271Z" fill="#FF6D00"/><path d="M244.534 96.439s-2.996 3.982-3.233 9.3c-.237 5.345 1.183 19.859 1.183 19.859h-1.209c.026 0-4.863-24.627 3.259-29.16Z" fill="#FF6D00"/><path d="M247.896 61.514c.631.654 6.098 1.86 8.542 2.593 2.445.707 3.732 3.799 4.968 3.799 1.235 0 5.703-1.284 5.703-1.284l-2.392-5.423-6.281-1.991-7.254.786-3.286 1.52Z" fill="#6B3425"/><path d="m263.273 126.724-1.866 15.274s-18.345-1.886-19.502-2.332c-1.156-.419-6.518-5.79-7.122-6.104-.578-.314-1.209-.157-1.051.603.157.759.814 3.091.814 3.091s-4.441-1.022-4.809-1.31c-.368-.288-2.839-2.672-3.365-2.908-.525-.236-1.524 0-1.34.629.184.602 2.339 4.165 2.339 4.165s-.92 3.432.263 4.873c1.183 1.441 7.28 3.197 10.303 3.747 2.996.55 25.599 6.104 27.518 6.235 1.918.131 4.783-.131 6.229-4.113 1.445-3.982 3.6-19.649 3.6-19.649l-12.011-2.201Z" fill="#F69576"/><path d="M119.14 55.62s-6.019-3.798-12.826.524c-4.547 2.908-5.098 13.126-3.416 16.61 1.682 3.485 9.435 9.825 9.435 9.825s29.068-21.09 6.807-26.959Z" fill="#A5713D"/><path d="m138.537 115.85.078 14.959s17.951.21 19.108-.079c1.156-.288 6.938-4.873 7.543-5.108.604-.236 1.183 0 .946.707-.237.707-1.13 2.908-1.13 2.908s4.389-.498 4.81-.733c.394-.236 3.022-2.28 3.574-2.437.552-.183 1.472.183 1.235.76-.236.576-2.733 3.772-2.733 3.772s.499 3.406-.789 4.664c-1.314 1.257-7.385 2.279-10.355 2.462-2.97.184-25.415 3.04-27.281 2.961-1.866-.079-4.626-.655-5.572-4.663-.946-4.009-1.288-19.387-1.288-19.387l11.854-.786Z" fill="#DD866F"/><path d="M104.396 257.218v23.552H84.684s-2.812-4.716 0-5.999c2.813-1.284 11.985-5.79 11.985-5.79l-.341-11.79h8.068v.027Z" fill="#F69576"/><path d="M104.396 269.009v11.789H84.684s-2.812-4.716 0-5.999c2.813-1.284 11.985-5.79 11.985-5.79h7.727Z" fill="#032240"/><path d="M104.396 278.387v2.384H84.684s-.657-1.1-1.025-2.384h20.737Z" fill="#BFBFBF"/><path d="m120.611 257.219-.184 11.789s10.329 1.939 13.089 2.777c3.312 1.022 7.122 1.939 7.674 5.135.473 2.777 0 3.851 0 3.851h-31.985l3.469-23.552h7.937Z" fill="#F69576"/><path d="M120.427 269.008s10.329 1.938 13.089 2.777c3.312 1.021 7.122 1.938 7.674 5.135.473 2.777 0 3.851 0 3.851h-31.985l1.235-11.79h9.987v.027Z" fill="#BFBFBF"/><path d="M141.166 276.92c.105.55.158 1.048.184 1.467h-31.907l.972-9.406h9.988s10.329 1.939 13.088 2.777c3.312 1.048 7.149 1.939 7.675 5.162Z" fill="#032240"/><path d="M134.989 150.459s1.104 11.606 0 30.941c-1.103 19.334-5.808 37.83-6.36 40.057-.552 2.201-7.49 39.22-7.49 39.22h-10.803s6.098-49.987 6.65-65.183c.552-15.195-1.945-43.646-1.945-43.646l19.948-1.389Z" fill="#254B6B"/><path d="M95.356 151.847h22.997s1.787 45.926 0 48.048c-1.788 2.149-7.202 10.768-8.043 17.396-.841 6.629-3.075 43.359-3.075 43.359h-11.88V151.847Z" fill="#254B6B"/><path d="M112.438 90.072c11.459-.236 15.139 1.467 17.557 6.812 2.391 5.344 8.489 52.292 9.041 61.881.552 9.562-1.288 15.274-14.403 15.274s-31.04-10.69-31.04-10.69-.736 3.328-1.288 5.345c-.551 2.017-6.097 4.244-6.097.734 0-3.511 2.392-58.371 2.76-67.567.368-9.195 14.797-11.606 23.47-11.79Z" fill="#000"/><path d="M124.634 93.19c4.52-1.179 8.673-1.1 12.011 5.528 3.338 6.628 5.913 27.247 5.913 27.247l-15.349 6.078s-14.586-35.709-2.575-38.853Z" fill="#000"/><path d="M116.381 89.127c-4.048 0-8.805.393-11.302 1.965-3.022 1.939-2.97 9.196 10.356 9.798 13.325.603 12.904-5.606 11.564-7.44-1.971-2.672-7.517-4.323-10.618-4.323Z" fill="#F69576"/><path d="m121.584 80.798 2.602 16.636h-15.744s.763-6.602 1.656-10.899c.894-4.296 1.656-5.737 1.656-5.737h9.83Z" fill="#F69576"/><path d="M114.725 85.33s-.132 3.066 1.918 4.402c2.05 1.336 6.544 1.362 6.544 1.362l-1.603-10.296h-6.649s-.473 2.593-.21 4.532Z" fill="#DD866F"/><path d="M123.817 60.624s1.998 1.65 2.865 5.266c.657 2.777.526 5.79.868 7.466.341 1.677.919 4.376.42 6.707-.473 2.332-2.549 5.528-6.413 6.602-3.863 1.074-7.017.315-9.146-2.384-2.129-2.672-4.757-7.466-5.546-10.794-.788-3.327-1.209-9.64 2.339-12.392 4.547-3.536 9.988-3.589 14.613-.471Z" fill="#F69576"/><path d="M116.828 79.383s.368 2.28 1.708 2.751c1.341.472 2.708.157 3.338-.603.631-.76.947-2.174.947-2.174l-5.993.026Z" fill="#fff"/><path d="M120.113 76.893a.446.446 0 0 1-.263-.078c-.157-.131-.184-.393-.184-.55v-.079c-.026.026-.105.079-.21.183a.374.374 0 0 1-.42.131c-.211-.052-.368-.261-.421-.55-.105-.471.342-1.231.394-1.31.027-.052.105-.078.184-.052.053.026.079.105.053.183-.132.21-.421.839-.342 1.153.053.21.158.314.237.34.079.027.131-.025.157-.052.184-.21.342-.288.447-.288.079 0 .132.052.158.105.026.052.026.13.052.236 0 .13 0 .288.079.366.027.027.105.027.184.027.184-.027.211-.158.184-.446 0-.13 0-.262.079-.314a.201.201 0 0 1 .132-.052c.105 0 .184.078.262.13.158.132.237.158.342.053.053-.052.079-.157.079-.288-.026-.393-.289-.917-.473-1.048-.053-.053-.079-.131-.026-.184.052-.052.131-.078.184-.026.262.183.551.812.578 1.231 0 .236-.027.394-.158.498-.289.262-.526.079-.683-.026-.027-.026-.053-.026-.053-.052v.052c0 .236.026.655-.42.734-.053-.027-.106-.027-.132-.027Z" fill="#6B3425"/><path d="M100.953 71.051c1.182-2.96 9.882-.288 8.279 5.161-1.656 5.58-10.04-.812-8.279-5.161Z" fill="#F69576"/><path d="M107.601 76.893c-.026 0-.052 0-.078-.026a.126.126 0 0 1 0-.183c.368-.393.42-1.625-.027-2.83-.315-.864-1.13-2.331-2.996-2.541-.999-.131-1.708.052-2.102.498-.579.681-.316 1.781-.316 1.781.026.079-.026.131-.105.157-.079.027-.131-.026-.158-.104-.026-.053-.315-1.232.368-2.018.447-.523 1.236-.733 2.339-.576 1.472.183 2.629 1.179 3.207 2.725.447 1.231.447 2.593-.026 3.091-.027 0-.053.026-.106.026Z" fill="#6B3425"/><path d="M104.5 76.396a.145.145 0 0 1-.132-.079c-.052-.105-.999-2.489.421-5.161.026-.053.105-.079.184-.053.052.027.079.105.052.184-1.366 2.567-.42 4.925-.42 4.925.026.079 0 .131-.079.157 0 .027-.026.027-.026.027ZM115.908 74.351c.261 0 .473-.422.473-.943 0-.52-.212-.943-.473-.943s-.473.422-.473.943c0 .52.212.943.473.943ZM113.699 70.868c.368-.314 1.13-.707 1.918-.812.868-.078 1.367.288 1.709.393.341.105.394-.393.21-.786-.184-.419-.92-.707-2.103-.68-1.182.025-1.84.575-2.155.942-.315.367-.079 1.389.421.943ZM123.24 74.09c.261 0 .473-.422.473-.943 0-.52-.212-.943-.473-.943s-.473.422-.473.943c0 .521.212.943.473.943ZM121.479 70.527c.368-.314 1.13-.707 1.918-.812.868-.079 1.367.288 1.709.393.342.105.394-.393.21-.786-.184-.42-.92-.707-2.102-.681-1.183.052-1.84.576-2.156.943-.315.367-.079 1.362.421.943ZM124.581 82.159l-.604.157s-1.157 2.28-2.129 2.724c-.972.446-4.153.289-4.494 0-.342-.288-1.446-2.829-1.446-2.829l-.762.183s1.13 3.642 1.314 3.983c.105.183 2.208 1.624 3.023 1.703.814.078 3.653-1.468 3.784-1.808.473-1.074 1.314-4.113 1.314-4.113Z" fill="#6B3425"/><path d="m120.953 83.574-1.393-.052-.052 2.488 1.077.21.368-2.646Z" fill="#6B3425"/><path opacity=".4" d="m92.99 103.223 3.55 19.989-6.361 1.913 2.812-21.902Z" fill="#254B6B"/><path d="M108.417 57.166s3.312 5.947 12.484 6.47c19.108 1.101 10.355-9.588 10.355-9.588s.684 2.83-2.601 2.987c-4.495.235-11.013-13.388-20.238.13Z" fill="#A5713D"/><path d="M177.854 114.67s-6.886-.576-8.515-.733c-1.63-.131-41.553 5.894-43.051 6.209-1.498.314-7.596 3.065-7.596 3.065l-2.155-3.799 5.993-4.035 47.913-6.602 7.332 1.284.079 4.611Z" fill="#383D42"/><path d="m163.189 116.085-1.419-8.279c-.21-1.205-1.34-2.043-2.576-1.912l-23.023 2.829a2.32 2.32 0 0 0-2.024 2.673l1.393 8.488c.21 1.231 1.341 2.096 2.602 1.912l23.05-3.012a2.338 2.338 0 0 0 1.997-2.699Z" fill="#263644"/><path d="M169.129 138.591h-45.81c-3.128 0-5.677-2.541-5.677-5.659v-8.253c0-3.117 2.549-5.658 5.677-5.658h45.81c3.128 0 5.677 2.541 5.677 5.658v8.253c.026 3.144-2.523 5.659-5.677 5.659Z" fill="#3D3D3D"/><mask id="mask1_131_7202" style="mask-type:luminance" maskUnits="userSpaceOnUse" x="117" y="119" width="58" height="20"><path d="M169.129 138.591h-45.81c-3.128 0-5.677-2.541-5.677-5.659v-8.253c0-3.117 2.549-5.658 5.677-5.658h45.81c3.128 0 5.677 2.541 5.677 5.658v8.253c.026 3.144-2.523 5.659-5.677 5.659Z" fill="#fff"/></mask><g mask="url('#mask1_131_7202')" fill="#000"><path d="m123.371 124.915-4.284-2.411-.236-4.48h-5.599v3.537l5.336 3.354h4.783ZM121.032 130.992l3.732-2.358-3.548-2.331h-5.046l3.259 2.331-3.679 2.358h5.282ZM118.588 132.513l-5.336 3.353v3.537h5.599l.236-4.48 4.284-2.41h-4.783Z"/><path d="m130.992 124.915-4.31-2.411-.237-4.48h-5.571v3.537l5.335 3.354h4.783ZM132.359 128.634l-3.548-2.331h-5.046l3.259 2.331-3.653 2.358h5.282l3.706-2.358ZM126.209 132.512l-5.335 3.354v3.536h5.571l.237-4.48 4.31-2.41h-4.783ZM139.299 124.915l-4.31-2.411-.236-4.48h-5.572v3.537l5.335 3.354h4.783Z"/><path d="m140.664 128.634-3.548-2.331h-5.046l3.259 2.331-3.653 2.358h5.283l3.705-2.358ZM134.516 132.512l-5.335 3.354v3.536h5.572l.236-4.48 4.31-2.41h-4.783ZM146.895 124.915l-4.284-2.411-.237-4.48h-5.598v3.537l5.335 3.354h4.784Z"/><path d="m148.287 128.634-3.548-2.331h-5.046l3.259 2.331-3.653 2.358h5.283l3.705-2.358ZM142.111 132.512l-5.335 3.354v3.536h5.598l.237-4.48 4.284-2.41h-4.784ZM154.516 124.915l-4.284-2.411-.237-4.48h-5.598v3.537l5.335 3.354h4.784Z"/><path d="m155.909 128.634-3.548-2.331h-5.046l3.259 2.331-3.679 2.358h5.282l3.732-2.358ZM149.732 132.513l-5.335 3.353v3.537h5.598l.237-4.48 4.284-2.41h-4.784ZM162.137 124.915l-4.31-2.411-.237-4.48h-5.572v3.537l5.335 3.354h4.784Z"/><path d="m163.504 128.634-3.548-2.331h-5.046l3.259 2.331-3.653 2.358h5.282l3.706-2.358ZM157.353 132.512l-5.335 3.354v3.536h5.572l.237-4.48 4.31-2.41h-4.784ZM170.444 124.915l-4.31-2.411-.237-4.48h-5.572v3.537l5.336 3.354h4.783Z"/><path d="m171.809 128.634-3.548-2.331h-5.046l3.259 2.331-3.654 2.358h5.283l3.706-2.358ZM165.661 132.512l-5.336 3.354v3.536h5.572l.237-4.48 4.31-2.41h-4.783ZM178.04 124.915l-4.284-2.411-.237-4.48h-5.598v3.537l5.335 3.354h4.784Z"/><path d="m179.432 128.634-3.548-2.331h-5.046l3.259 2.331-3.654 2.358h5.283l3.706-2.358ZM167.921 135.866v3.536h5.598l.237-4.48 4.284-2.41h-4.784l-5.335 3.354Z"/></g><path d="m107.891 123.082.079 14.985s17.951.21 19.107-.078c1.157-.289 6.939-4.873 7.543-5.109.605-.236 1.183 0 .946.707-.236.708-1.13 2.908-1.13 2.908s4.39-.498 4.81-.733c.421-.236 3.023-2.28 3.574-2.437.552-.157 1.472.184 1.236.76-.237.576-2.734 3.773-2.734 3.773s.5 3.405-.788 4.663c-1.314 1.257-7.386 2.279-10.355 2.463-2.97.183-25.416 3.039-27.282 2.96-1.866-.079-4.625-.655-5.572-4.663-.946-4.009-1.287-19.387-1.287-19.387l11.853-.812Z" fill="#F69576"/><path d="M288.373 206.026a3.875 3.875 0 0 1-3.89-3.878v-10.636a3.875 3.875 0 0 1 3.89-3.878 3.875 3.875 0 0 1 3.89 3.878v10.636c-.026 2.149-1.761 3.878-3.89 3.878ZM335.472 206.026a3.875 3.875 0 0 1-3.89-3.877v-10.637a3.875 3.875 0 0 1 3.89-3.877 3.875 3.875 0 0 1 3.89 3.877v10.637c-.027 2.148-1.761 3.877-3.89 3.877Z" fill="#000"/><path d="M293.997 167.253c.394-1.258 1.682-1.808 3.207-2.122 1.524-.315 11.17-.629 14.744-.682 3.575-.052 13.667.682 15.297.813 1.629.131 2.312 1.074 2.759 1.991.447.917 5.467 11.239 6.019 11.946.552.681 1.997 2.62 2.129 3.249.131.629 1.261 3.013 1.182 3.249-.052.262 0 13.754 0 13.754l-54.799.812s-.131-11.134 0-13.807c.132-2.698 2.497-5.868 3.706-7.493 1.183-1.624 5.336-10.322 5.756-11.71Z" fill="#1D7DCC"/><path d="M288.242 178.962h-2.444a1.814 1.814 0 0 1-1.814-1.808c0-.995.815-1.807 1.814-1.807h.631c.998 0 1.813.812 1.813 1.807v1.808Z" fill="#D2D3D5"/><path d="m295.522 168.273-2.208 8.122h37.243l-1.998-8.122s-18.739-4.322-33.037 0Z" fill="#3B3B3B"/><path d="m293.315 176.396 1.629 11.579c.106.734.736 1.31 1.499 1.31h30.987c.762 0 1.393-.55 1.498-1.31l1.629-11.579h-37.242Z" fill="#0C96FD"/><path d="M320.201 182.813h-16.426v4.323h16.426v-4.323Z" fill="#fff"/><path d="m293.577 178.307.946 6.681h-6.281v-3.327s.972-3.039 5.335-3.354Z" fill="#7D009B"/><path d="M335.786 178.962h2.444c.999 0 1.814-.812 1.814-1.808 0-.995-.815-1.807-1.814-1.807h-.63c-.999 0-1.814.812-1.814 1.807v1.808Z" fill="#D2D3D5"/><path d="m330.451 178.307-.946 6.681h6.281v-3.327s-.972-3.039-5.335-3.354Z" fill="#7D009B"/><path d="M294.577 167.095v-11.528a1.782 1.782 0 0 1 1.787-1.834h29.831c.998 0 1.787.813 1.787 1.782v11.58h-2.287l-.21-9.013a1.811 1.811 0 0 0-1.761-1.755l-24.916-.314c-.998 0-1.813.786-1.813 1.781v8.515l-2.418.786Z" fill="#1D7DCC"/></svg>