<svg width="375" height="307" fill="none" xmlns="http://www.w3.org/2000/svg"><path d="M170.118 54.183c18.138 3.437 52.314-66.724 90.138-51.243 37.825 15.48 10.027 65.359 23.519 76.536 13.492 11.178 50.45-23.22 65.99 12.91 15.539 36.13-8.085 74.831-8.426 80.84-.341 6.008 42.602 38.307 30.685 82.781-11.917 44.474-170.171 48.777-226.659 50.483-56.487 1.705-132.005 1.574-143.135-44.789-11.13-46.363 39.426-86.744 44.098-99.705 4.673-12.962-37.614-58.066 15.408-113.507 41.027-42.9 90.244 2.257 108.382 5.694Z" fill="#C6AEA3"/><mask id="mask0_131_1880" style="mask-type:luminance" maskUnits="userSpaceOnUse" x="0" y="0" width="375" height="307"><path d="M170.319 54.23c18.165 3.435 52.393-66.707 90.275-51.23 37.882 15.476 10.042 65.342 23.555 76.516 13.512 11.175 50.526-23.215 66.089 12.906 15.563 36.121-8.097 74.812-8.438 80.819-.342 6.007 42.666 38.298 30.731 82.76-11.935 44.462-170.429 48.764-227.002 50.469-56.573 1.705-132.206 1.574-143.352-44.777-11.146-46.351 39.486-86.721 44.165-99.679 4.68-12.958-37.672-58.05 15.431-113.477 41.089-42.888 90.381 2.256 108.546 5.692Z" fill="#fff"/></mask><g mask="url('#mask0_131_1880')"><path d="M68.896-11.771h-13.04V225.99h13.04V-11.771Z" fill="#BF977C"/></g><mask id="mask1_131_1880" style="mask-type:luminance" maskUnits="userSpaceOnUse" x="0" y="0" width="375" height="307"><path d="M170.319 54.23c18.165 3.435 52.393-66.707 90.275-51.23 37.882 15.476 10.042 65.342 23.555 76.516 13.512 11.175 50.526-23.215 66.089 12.906 15.563 36.121-8.097 74.812-8.438 80.819-.342 6.007 42.666 38.298 30.731 82.76-11.935 44.462-170.429 48.764-227.002 50.469-56.573 1.705-132.206 1.574-143.352-44.777-11.146-46.351 39.486-86.721 44.165-99.679 4.68-12.958-37.672-58.05 15.431-113.477 41.089-42.888 90.381 2.256 108.546 5.692Z" fill="#fff"/></mask><g mask="url('#mask1_131_1880')"><path d="M88.008-11.771H83.59V225.99h4.417V-11.771Z" fill="#BF977C"/></g><mask id="mask2_131_1880" style="mask-type:luminance" maskUnits="userSpaceOnUse" x="0" y="0" width="375" height="307"><path d="M170.319 54.23c18.165 3.435 52.393-66.707 90.275-51.23 37.882 15.476 10.042 65.342 23.555 76.516 13.512 11.175 50.526-23.215 66.089 12.906 15.563 36.121-8.097 74.812-8.438 80.819-.342 6.007 42.666 38.298 30.731 82.76-11.935 44.462-170.429 48.764-227.002 50.469-56.573 1.705-132.206 1.574-143.352-44.777-11.146-46.351 39.486-86.721 44.165-99.679 4.68-12.958-37.672-58.05 15.431-113.477 41.089-42.888 90.381 2.256 108.546 5.692Z" fill="#fff"/></mask><g mask="url('#mask2_131_1880')"><path d="M120.37-11.771h-13.039V225.99h13.039V-11.771Z" fill="#BF977C"/></g><mask id="mask3_131_1880" style="mask-type:luminance" maskUnits="userSpaceOnUse" x="0" y="0" width="375" height="307"><path d="M170.319 54.23c18.165 3.435 52.393-66.707 90.275-51.23 37.882 15.476 10.042 65.342 23.555 76.516 13.512 11.175 50.526-23.215 66.089 12.906 15.563 36.121-8.097 74.812-8.438 80.819-.342 6.007 42.666 38.298 30.731 82.76-11.935 44.462-170.429 48.764-227.002 50.469-56.573 1.705-132.206 1.574-143.352-44.777-11.146-46.351 39.486-86.721 44.165-99.679 4.68-12.958-37.672-58.05 15.431-113.477 41.089-42.888 90.381 2.256 108.546 5.692Z" fill="#fff"/></mask><g mask="url('#mask3_131_1880')"><path d="M139.482-11.771h-4.416V225.99h4.416V-11.771Z" fill="#BF977C"/></g><mask id="mask4_131_1880" style="mask-type:luminance" maskUnits="userSpaceOnUse" x="0" y="0" width="375" height="307"><path d="M170.319 54.23c18.165 3.435 52.393-66.707 90.275-51.23 37.882 15.476 10.042 65.342 23.555 76.516 13.512 11.175 50.526-23.215 66.089 12.906 15.563 36.121-8.097 74.812-8.438 80.819-.342 6.007 42.666 38.298 30.731 82.76-11.935 44.462-170.429 48.764-227.002 50.469-56.573 1.705-132.206 1.574-143.352-44.777-11.146-46.351 39.486-86.721 44.165-99.679 4.68-12.958-37.672-58.05 15.431-113.477 41.089-42.888 90.381 2.256 108.546 5.692Z" fill="#fff"/></mask><g mask="url('#mask4_131_1880')"><path d="M171.87-11.771h-13.039V225.99h13.039V-11.771Z" fill="#BF977C"/></g><mask id="mask5_131_1880" style="mask-type:luminance" maskUnits="userSpaceOnUse" x="0" y="0" width="375" height="307"><path d="M170.319 54.23c18.165 3.435 52.393-66.707 90.275-51.23 37.882 15.476 10.042 65.342 23.555 76.516 13.512 11.175 50.526-23.215 66.089 12.906 15.563 36.121-8.097 74.812-8.438 80.819-.342 6.007 42.666 38.298 30.731 82.76-11.935 44.462-170.429 48.764-227.002 50.469-56.573 1.705-132.206 1.574-143.352-44.777-11.146-46.351 39.486-86.721 44.165-99.679 4.68-12.958-37.672-58.05 15.431-113.477 41.089-42.888 90.381 2.256 108.546 5.692Z" fill="#fff"/></mask><g mask="url('#mask5_131_1880')"><path d="M190.982-11.771h-4.417V225.99h4.417V-11.771Z" fill="#BF977C"/></g><mask id="mask6_131_1880" style="mask-type:luminance" maskUnits="userSpaceOnUse" x="0" y="0" width="375" height="307"><path d="M170.319 54.23c18.165 3.435 52.393-66.707 90.275-51.23 37.882 15.476 10.042 65.342 23.555 76.516 13.512 11.175 50.526-23.215 66.089 12.906 15.563 36.121-8.097 74.812-8.438 80.819-.342 6.007 42.666 38.298 30.731 82.76-11.935 44.462-170.429 48.764-227.002 50.469-56.573 1.705-132.206 1.574-143.352-44.777-11.146-46.351 39.486-86.721 44.165-99.679 4.68-12.958-37.672-58.05 15.431-113.477 41.089-42.888 90.381 2.256 108.546 5.692Z" fill="#fff"/></mask><g mask="url('#mask6_131_1880')"><path d="M223.34-11.771h-13.039V225.99h13.039V-11.771Z" fill="#BF977C"/></g><mask id="mask7_131_1880" style="mask-type:luminance" maskUnits="userSpaceOnUse" x="0" y="0" width="375" height="307"><path d="M170.319 54.23c18.165 3.435 52.393-66.707 90.275-51.23 37.882 15.476 10.042 65.342 23.555 76.516 13.512 11.175 50.526-23.215 66.089 12.906 15.563 36.121-8.097 74.812-8.438 80.819-.342 6.007 42.666 38.298 30.731 82.76-11.935 44.462-170.429 48.764-227.002 50.469-56.573 1.705-132.206 1.574-143.352-44.777-11.146-46.351 39.486-86.721 44.165-99.679 4.68-12.958-37.672-58.05 15.431-113.477 41.089-42.888 90.381 2.256 108.546 5.692Z" fill="#fff"/></mask><g mask="url('#mask7_131_1880')"><path d="M242.453-11.771h-4.417V225.99h4.417V-11.771Z" fill="#BF977C"/></g><mask id="mask8_131_1880" style="mask-type:luminance" maskUnits="userSpaceOnUse" x="0" y="0" width="375" height="307"><path d="M170.319 54.23c18.165 3.435 52.393-66.707 90.275-51.23 37.882 15.476 10.042 65.342 23.555 76.516 13.512 11.175 50.526-23.215 66.089 12.906 15.563 36.121-8.097 74.812-8.438 80.819-.342 6.007 42.666 38.298 30.731 82.76-11.935 44.462-170.429 48.764-227.002 50.469-56.573 1.705-132.206 1.574-143.352-44.777-11.146-46.351 39.486-86.721 44.165-99.679 4.68-12.958-37.672-58.05 15.431-113.477 41.089-42.888 90.381 2.256 108.546 5.692Z" fill="#fff"/></mask><g mask="url('#mask8_131_1880')"><path d="M271.685-11.771h-13.039V225.99h13.039V-11.771Z" fill="#BF977C"/></g><mask id="mask9_131_1880" style="mask-type:luminance" maskUnits="userSpaceOnUse" x="0" y="0" width="375" height="307"><path d="M170.319 54.23c18.165 3.435 52.393-66.707 90.275-51.23 37.882 15.476 10.042 65.342 23.555 76.516 13.512 11.175 50.526-23.215 66.089 12.906 15.563 36.121-8.097 74.812-8.438 80.819-.342 6.007 42.666 38.298 30.731 82.76-11.935 44.462-170.429 48.764-227.002 50.469-56.573 1.705-132.206 1.574-143.352-44.777-11.146-46.351 39.486-86.721 44.165-99.679 4.68-12.958-37.672-58.05 15.431-113.477 41.089-42.888 90.381 2.256 108.546 5.692Z" fill="#fff"/></mask><g mask="url('#mask9_131_1880')"><path d="M290.796-11.771h-4.416V225.99h4.416V-11.771Z" fill="#BF977C"/></g><mask id="mask10_131_1880" style="mask-type:luminance" maskUnits="userSpaceOnUse" x="0" y="0" width="375" height="307"><path d="M170.319 54.23c18.165 3.435 52.393-66.707 90.275-51.23 37.882 15.476 10.042 65.342 23.555 76.516 13.512 11.175 50.526-23.215 66.089 12.906 15.563 36.121-8.097 74.812-8.438 80.819-.342 6.007 42.666 38.298 30.731 82.76-11.935 44.462-170.429 48.764-227.002 50.469-56.573 1.705-132.206 1.574-143.352-44.777-11.146-46.351 39.486-86.721 44.165-99.679 4.68-12.958-37.672-58.05 15.431-113.477 41.089-42.888 90.381 2.256 108.546 5.692Z" fill="#fff"/></mask><g mask="url('#mask10_131_1880')"><path d="M323.158-11.771h-13.039V225.99h13.039V-11.771Z" fill="#BF977C"/></g><mask id="mask11_131_1880" style="mask-type:luminance" maskUnits="userSpaceOnUse" x="0" y="0" width="375" height="307"><path d="M170.319 54.23c18.165 3.435 52.393-66.707 90.275-51.23 37.882 15.476 10.042 65.342 23.555 76.516 13.512 11.175 50.526-23.215 66.089 12.906 15.563 36.121-8.097 74.812-8.438 80.819-.342 6.007 42.666 38.298 30.731 82.76-11.935 44.462-170.429 48.764-227.002 50.469-56.573 1.705-132.206 1.574-143.352-44.777-11.146-46.351 39.486-86.721 44.165-99.679 4.68-12.958-37.672-58.05 15.431-113.477 41.089-42.888 90.381 2.256 108.546 5.692Z" fill="#fff"/></mask><g mask="url('#mask11_131_1880')"><path d="M342.271-11.771h-4.417V225.99h4.417V-11.771Z" fill="#BF977C"/></g><path d="M2.283 261.676c11.13 46.363 86.673 46.52 143.134 44.789 56.462-1.732 214.716-6.009 226.659-50.483 8.111-30.252-9.161-54.89-20.947-69.426H27.77c-15.067 19.101-32.522 45.917-25.487 75.12Z" fill="#72645D"/><path d="M353.072 188.997a98.522 98.522 0 0 0-1.969-2.441H27.77c-.63.814-1.26 1.627-1.916 2.441h327.218Z" fill="#fff"/><path d="M291.886 203.795h-18.453l4.226-57.645h9.371l4.856 57.645Z" fill="#fff"/><path d="M300.442 204.895H264.14l2.126-9.839h32.05l2.126 9.839Z" fill="#fff"/><path d="M271.385 95.325s7.349 11.65 8.504 12.568c-1.575-.078-4.226-.97-4.226-.97l8.006 10.075h-4.672l8.662 12.175h-6.09s5.932 10.836 8.085 12.83l-37.772.577c1.181-1.102 7.245-8.763 7.245-8.763h-6.668l8.479-15.612s-4.069-.131-4.541-.577c2.257-1.076 7.192-10.364 7.192-10.364l-3.806.892 9.528-12.883h2.074v.052Z" fill="#4E5E0A"/><path d="m281.177 120.068-23.598 4.356-5.118 9.42h3.439c1.889-1.365 3.517-2.441 3.884-2.388.945.184 1.707 2.099 2.468 2.099.761 0 2.283-2.755 3.517-2.676 1.234.105 2.756 2.177 3.517 2.282.762.105 2.468-3.043 3.623-3.043 1.155 0 3.911 2.938 4.856 2.86.945-.105 1.443-2.388 2.756-2.86.367-.131 1.024.052 1.785.367-.446-.813-.735-1.312-.735-1.312h6.09l-6.484-9.105ZM263.066 108.288c.814-.42 1.497-.683 1.864-.683 1.339 0 3.045 1.522 3.675 1.391.63-.157 1.444-1.391 2.52-1.391s2.73 1.05 3.176.945c.289-.052.787-.918 2.074-.787l-.657-.84s2.651.892 4.226.971c-1.155-.918-8.504-12.568-8.504-12.568h-2.1l-9.528 12.883 3.806-.892c-.027 0-.21.367-.552.971ZM284.09 133.607l-28.191 4.277c-1.627 2.02-3.412 4.172-3.99 4.697l37.772-.577c-1.233-1.129-3.701-5.143-5.591-8.397ZM260.544 118.967c1.811-.052 1.916 1.574 2.677 1.653.761.105 2.179-1.705 3.911-1.653 1.706.052 2.678 1.653 3.675 1.758.998.105 2.1-2.388 3.491-2.388s2.441 1.338 3.019 1.233c.577-.104 1.233-1.653 2.283-1.784l-.577-.787h4.672l-6.247-7.871-15.854 1.705c-1.628 2.755-3.859 6.192-5.198 6.796.473.446 4.542.577 4.542.577l-.394.761Z" fill="#5F750E"/><path d="m273.275 94.643-2.966-2.23-3.123 1.784 1.575-3.437-2.415-1.496 3.123-.157.84-2.782 1.103 2.834 2.861-.236-2.363 2.1 1.365 3.62Z" fill="#FFE051"/><path d="m270.78 91.914.314 3.41h-1.784l.367-3.41h1.103Z" fill="#FFE051"/><path d="m272.881 142.292.683 6.271h-3.885l.525-6.271h2.677Z" fill="#6B3425"/><path d="M267.816 104.063a1.47 1.47 0 1 0 0-2.94 1.47 1.47 0 0 0 0 2.94Z" fill="#FFE051"/><path d="M275.454 105.953a1.181 1.181 0 1 0 0-2.363 1.181 1.181 0 0 0 0 2.363ZM263.774 117.393a1.523 1.523 0 1 0 0-3.046 1.523 1.523 0 0 0 0 3.046Z" fill="#fff"/><path d="M269.076 113.667a1.233 1.233 0 1 0 .001-2.467 1.233 1.233 0 0 0-.001 2.467Z" fill="#512176"/><path d="M276.61 116.367a1.68 1.68 0 1 0 0-3.36 1.68 1.68 0 0 0 0 3.36Z" fill="#FFE051"/><path d="M261.307 127.572a1.522 1.522 0 1 0 0-3.044 1.522 1.522 0 0 0 0 3.044Z" fill="#512176"/><path d="M271.885 126.47a1.68 1.68 0 1 0 0-3.36 1.68 1.68 0 0 0 0 3.36Z" fill="#fff"/><path d="M269.418 131.115a1.575 1.575 0 1 0 0-3.15 1.575 1.575 0 0 0 0 3.15Z" fill="#FFE051"/><path d="M278.631 126.444a1.338 1.338 0 1 0 0-2.676 1.338 1.338 0 0 0 0 2.676Z" fill="#512176"/><path d="M261.018 138.41a1.235 1.235 0 1 0-.001-2.47 1.235 1.235 0 0 0 .001 2.47Z" fill="#FFE051"/><path d="M271.885 140.927a1.68 1.68 0 1 0 0-3.36 1.68 1.68 0 0 0 0 3.36Z" fill="#512176"/><path d="M281.699 138.671a1.365 1.365 0 1 0 0-2.73 1.365 1.365 0 0 0 0 2.73ZM321.36 142.345h-76.621v10.049h76.621v-10.049Z" fill="#fff"/><path d="M238.626 24.324s-.551-.97.499-1.417c1.05-.446 5.302 2.887 5.302 2.887s-4.934 4.512-5.958 4.066c-1.024-.446-.63-1.469-.63-1.469s-1.811.499-3.623.236c-1.811-.288-3.097-1.574-3.097-1.574s2.809-.394 2.888-.656c.078-.262-.788-1.364.498-2.047 1.286-.708 4.121-.026 4.121-.026ZM244.819 27.42s4.463 4.67 3.203 5.588c-1.26.918-2.153.394-2.153.394s.499 2.309-.157 3.62c-.683 1.286-2.021 2.703-2.021 2.703s.735-2.991 0-3.096c-.735-.105-1.234.63-1.917-.63-.682-1.233 1.47-3.437.893-3.778-.551-.341-1.181.735-1.575-.63-.394-1.338 3.727-4.172 3.727-4.172Z" fill="#4E5E0A"/><path d="M245.74 26.397a2.389 2.389 0 1 0 0-4.778 2.389 2.389 0 0 0 0 4.778Z" fill="#512176"/><path d="M247.737 29.887a2.493 2.493 0 1 0 0-4.985 2.493 2.493 0 0 0 0 4.985Z" fill="#512176"/><path d="M243.667 30.07a2.572 2.572 0 1 0 .002-5.144 2.572 2.572 0 0 0-.002 5.144Z" fill="#512176"/><path d="M128.827 50.458h-63.68v138.17h63.68V50.458Z" fill="#fff"/><path d="M126.068 54.708h-56.96v134.444h56.96V54.708Z" fill="#382822"/><path d="m105.674 69.401 19.975-12.725v131.952l-18.873-11.099-1.102-108.128Z" fill="#4C3129"/><path d="M301.468 142.503c0-.026-.026-.026-.052-.053-.499-.393-.788-.944-.893-3.883-.105-2.939.158-5.825 1.024-8.291.866-2.467 1.811-2.23 2.152-6.796.21-2.755-.63-8.055-.63-8.055h-5.906s-.84 5.3-.63 8.055c.342 4.566 1.287 4.329 2.153 6.796.866 2.466 1.128 5.352 1.023 8.291-.105 2.939-.393 3.49-.892 3.883l-.053.053c-1.784.052-3.071.236-3.071.472 0 .263 1.969.499 4.436.499 2.468 0 4.41-.236 4.41-.499 0-.236-1.286-.42-3.071-.472Z" fill="#fff"/><path d="M296.979 119.518h6.22s.079 10.338-2.913 10.18c-2.993-.157-3.307-10.18-3.307-10.18Z" fill="#FFE051"/><path d="m150.432 105.743-16.012 35.816 2.966 2.938 34.229-24.769s5.617-7.215 4.934-10.993c-.682-3.779-2.861-5.248-5.118-5.274-2.258-.027-3.229-5.773-5.329-6.98-2.073-1.207-5.25 3.07-6.851 1.916-1.601-1.155-3.307-4.96-8.819 7.346Z" fill="#6C868C"/><path d="M171.191 109.733s3.282-.63 4.305-1.286c.525 1.181 2.363 2.414 2.363 2.414s-1.707 0-2.678.918c-.787-.577-3.99-2.046-3.99-2.046Z" fill="#5B725B"/><path d="M168.569 111.594s-1.549 1.863-2.809 2.283c.026.761-.131 1.285-.315 1.6.368.656-.026 1.706-.026 1.706s.84-.446 1.496-.578c.341-.708.709-1.206 1.129-1.39-.026-1.128.525-3.621.525-3.621ZM164.866 105.612c.446 1.18 3.254 2.938 3.254 2.938s-4.094-.236-4.987-.026c.079-1.548-1.129-3.201-1.129-3.201s1.707.813 2.862.289Z" fill="#9AA69A"/><path d="M165.075 103.906s2.153.21 3.098 1.548c.945 1.339 1.338 3.989 1.338 3.989s-2.441-.814-3.333-2.126c-.893-1.312-1.103-3.411-1.103-3.411Z" fill="#512176"/><path d="M170.824 102.333s-.105 1.128.21 2.178c.893 3.017-1.522 4.932-1.522 4.932s-.788-2.256-.42-3.778c.341-1.548 1.732-3.332 1.732-3.332Z" fill="#642E93"/><path d="M175.049 104.589s-2.888 5.379-5.539 4.854c-.603-2.886 4.515-4.277 5.539-4.854Z" fill="#512176"/><path d="M175.209 113.3s-1.024-2.283-2.52-3.149c-1.496-.865-3.203-.734-3.203-.734s.84 1.548 2.389 2.571c1.549 1.023 2.887.866 3.334 1.312Z" fill="#642E93"/><path d="M168.512 116.948s1.864-1.364 2.021-4.014c.184-2.624-1.023-3.516-1.023-3.516s-.971 1.338-1.365 3.122c-.394 1.811.367 4.408.367 4.408Z" fill="#642E93"/><path d="M164.579 114.113s3.439-1.285 4.147-2.781c.735-1.495.762-1.889.762-1.889s-1.812-.262-2.966.918c-1.103 1.155-1.943 3.752-1.943 3.752Z" fill="#512176"/><path d="M162.581 110.126s2.704-1.732 4.279-1.811c1.575-.079 2.651 1.102 2.651 1.102s-2.415 1.103-3.57 1.313c-1.155.21-2.415-.788-3.36-.604Z" fill="#642E93"/><path d="M169.825 105.062s.735 1.601.525 2.65c-.21 1.05-.84 1.706-.84 1.706s-.84-.919-.683-1.863c.158-.892.998-2.493.998-2.493ZM174.893 108.604s-1.339 1.339-2.704 1.496c-1.365.131-2.677-.656-2.677-.656s1.05-1.181 2.52-1.26c1.443-.079 2.861.42 2.861.42Z" fill="#512176"/><path d="M172.005 114.036s.158-1.758-.472-2.991-2.021-1.627-2.021-1.627.157 1.522.761 2.65 1.732 1.968 1.732 1.968Z" fill="#512176"/><path d="M167.23 114.298s1.759-1.417 2.126-2.65c.341-1.234.184-2.204.184-2.204s-.945.105-1.549 1.18c-.63 1.076-.761 3.674-.761 3.674Z" fill="#512176"/><path d="M164.341 107.422s2.048-.262 3.255.105c1.208.368 1.916 1.89 1.916 1.89s-1.207.315-2.388-.026c-1.208-.315-2.783-1.969-2.783-1.969Z" fill="#512176"/><path d="M170.567 108.782a.34.34 0 1 0-.646-.215.34.34 0 1 0 .646.215Z" fill="#FFE051"/><path d="M169.927 108.824a.341.341 0 1 0-.646-.214.341.341 0 0 0 .646.214Z" fill="#FFE051"/><path d="M169.794 109.49a.367.367 0 1 0-.696-.231.367.367 0 0 0 .696.231Z" fill="#FFE051"/><path d="M170.439 109.692a.366.366 0 1 0-.697-.232.367.367 0 0 0 .697.232Z" fill="#FFE051"/><path d="M170.662 109.235a.314.314 0 1 0-.597-.197.314.314 0 0 0 .597.197Z" fill="#FFE051"/><path d="M170.877 109.466a.263.263 0 0 0-.498-.165.262.262 0 1 0 .498.165ZM170.291 109.195a.34.34 0 1 0-.647-.216.34.34 0 0 0 .647.216Z" fill="#CEAA22"/><path d="M166.073 99.235s1.942-2.282 2.31-3.332c1.05.551 3.018.367 3.018.367s-1.181.971-1.338 2.152c-.919.052-3.99.813-3.99.813Z" fill="#5B725B"/><path d="M165.284 102.043s-.027 2.204-.683 3.174c.446.525.63.997.683 1.312.63.263.945 1.234.945 1.234s.341-.814.708-1.234c-.157-.682-.184-1.259 0-1.626-.63-.814-1.653-2.86-1.653-2.86ZM159.353 99.892c.971.577 3.911.236 3.911.236s-2.992 2.126-3.491 2.782c-.814-1.155-2.599-1.627-2.599-1.627s1.654-.367 2.179-1.39Z" fill="#9AA69A"/><path d="M158.54 98.552s1.627-1.076 3.019-.656c1.417.42 3.176 2.074 3.176 2.074s-2.179.787-3.518.367c-1.338-.42-2.677-1.785-2.677-1.785Z" fill="#512176"/><path d="M161.662 94.223s.577.866 1.365 1.417c2.309 1.653 1.706 4.356 1.706 4.356s-1.811-1.155-2.415-2.44c-.604-1.286-.656-3.333-.656-3.333Z" fill="#642E93"/><path d="M165.89 93.437s.997 5.431-1.155 6.533c-2.048-1.68.761-5.563 1.155-6.533Z" fill="#512176"/><path d="M170.901 99.523s-1.995-1.023-3.517-.813c-1.523.21-2.652 1.286-2.652 1.286s1.444.604 3.124.472c1.654-.157 2.494-1.023 3.045-.945Z" fill="#642E93"/><path d="M168.276 105.846s.525-2.02-.84-3.988-2.704-1.89-2.704-1.89.079 1.497.814 2.966c.709 1.495 2.73 2.912 2.73 2.912Z" fill="#642E93"/><path d="M163.921 106.057s1.68-2.834 1.339-4.303c-.341-1.469-.525-1.758-.525-1.758s-1.418.84-1.549 2.309c-.157 1.443.735 3.752.735 3.752Z" fill="#512176"/><path d="M160.271 104.377s.918-2.755 1.968-3.673c1.05-.918 2.494-.708 2.494-.708s-1.076 2.151-1.759 2.912c-.682.787-2.126.787-2.703 1.469Z" fill="#642E93"/><path d="M162.501 96.717s1.418.735 1.864 1.6c.446.867.368 1.68.368 1.68s-1.103-.183-1.523-.918c-.394-.761-.709-2.362-.709-2.362ZM168.043 96.348s-.183 1.706-1.05 2.572c-.866.866-2.231 1.05-2.231 1.05s.079-1.418 1.05-2.31c.971-.892 2.231-1.312 2.231-1.312Z" fill="#512176"/><path d="M169.093 101.834s-.892-1.339-2.021-1.838c-1.155-.525-2.31 0-2.31 0s.971.998 2.021 1.444c1.05.446 2.31.394 2.31.394Z" fill="#512176"/><path d="M165.861 104.693s.447-1.994 0-3.069c-.446-1.076-1.102-1.653-1.102-1.653s-.604.603-.42 1.705c.157 1.128 1.522 3.017 1.522 3.017Z" fill="#512176"/><path d="M159.982 101.465s1.286-1.339 2.336-1.759c1.05-.42 2.415.263 2.415.263s-.682.919-1.68 1.339c-1.024.42-3.071.157-3.071.157Z" fill="#512176"/><path d="M164.919 99.328a.315.315 0 1 0-.218-.59.315.315 0 0 0 .218.59Z" fill="#FFE051"/><path d="M164.503 99.716a.314.314 0 1 0-.218-.59.314.314 0 0 0 .218.59Z" fill="#FFE051"/><path d="M164.775 100.291a.341.341 0 1 0-.237-.64.341.341 0 0 0 .237.64Z" fill="#FFE051"/><path d="M165.352 100.079a.34.34 0 1 0-.235-.64.34.34 0 0 0 .235.64Z" fill="#FFE051"/><path d="M165.279 99.562a.288.288 0 1 0-.198-.541.288.288 0 0 0 .198.54Z" fill="#FFE051"/><path d="M165.571 99.54a.236.236 0 1 0-.164-.442.236.236 0 0 0 .164.443ZM164.974 99.773a.314.314 0 1 0-.218-.59.314.314 0 0 0 .218.59Z" fill="#CEAA22"/><path d="M158.86 111.962s1.995 2.02 2.888 2.44c-.499.944-.42 2.834-.42 2.834s-.814-1.207-1.89-1.47c.026-.813-.578-3.804-.578-3.804Z" fill="#5B725B"/><path d="M156.391 111.016s-1.942-.21-2.809-.918c-.472.393-.892.525-1.181.551-.236.577-1.129.813-1.129.813s.709.394 1.077.788c.63-.105 1.128-.079 1.443.131.735-.551 2.599-1.365 2.599-1.365ZM158.49 105.507c-.525.892-.342 3.726-.342 3.726s-1.811-3.018-2.388-3.569c1.05-.682 1.522-2.361 1.522-2.361s.289 1.627 1.208 2.204Z" fill="#9AA69A"/><path d="M159.672 104.825s.893 1.627.499 2.939c-.42 1.312-1.916 2.886-1.916 2.886s-.657-2.125-.21-3.384c.42-1.286 1.627-2.441 1.627-2.441Z" fill="#512176"/><path d="M163.477 108.158s-.788.472-1.287 1.181c-1.522 2.1-3.911 1.312-3.911 1.312s1.076-1.653 2.231-2.126c1.129-.498 2.967-.367 2.967-.367Z" fill="#642E93"/><path d="M164.029 112.252s-4.856.525-5.775-1.601c1.549-1.838 4.935 1.154 5.775 1.601Z" fill="#512176"/><path d="M158.491 116.553s.972-1.81.814-3.306c-.157-1.495-1.05-2.623-1.05-2.623s-.577 1.338-.499 2.938c.079 1.601.814 2.467.735 2.991Z" fill="#642E93"/><path d="M152.927 113.562s1.785.656 3.57-.498c1.785-1.155 1.758-2.44 1.758-2.44s-1.338-.027-2.677.551c-1.339.577-2.651 2.387-2.651 2.387Z" fill="#642E93"/><path d="M152.872 109.39s2.467 1.811 3.806 1.601c1.338-.21 1.575-.367 1.575-.367s-.709-1.418-1.995-1.654c-1.313-.262-3.386.42-3.386.42Z" fill="#512176"/><path d="M154.475 106.032s2.415 1.102 3.228 2.178c.814 1.076.551 2.414.551 2.414s-1.889-1.181-2.546-1.916c-.682-.708-.656-2.072-1.233-2.676Z" fill="#642E93"/><path d="M161.221 108.761s-.683 1.287-1.47 1.654c-.788.368-1.522.236-1.522.236s.21-1.05.866-1.365c.656-.315 2.126-.525 2.126-.525Z" fill="#512176"/><path d="M161.378 114.061s-1.497-.289-2.258-1.207c-.735-.892-.866-2.23-.866-2.23s1.26.183 2.021 1.18c.735 1.024 1.103 2.257 1.103 2.257Z" fill="#512176"/><path d="M156.468 114.637s1.208-.735 1.706-1.784c.499-1.05.079-2.204.079-2.204s-.919.84-1.339 1.81c-.419.971-.446 2.178-.446 2.178ZM154.029 111.332s1.759.577 2.73.236a4.047 4.047 0 0 0 1.496-.945s-.525-.603-1.522-.525c-.971.105-2.704 1.234-2.704 1.234Z" fill="#512176"/><path d="M157.049 105.979s1.155 1.312 1.496 2.362c.342 1.049-.315 2.282-.315 2.282s-.787-.708-1.128-1.705c-.342-.997-.053-2.939-.053-2.939Z" fill="#512176"/><path d="M159.178 111.048c.138-.043.213-.2.166-.353-.046-.152-.196-.241-.334-.199-.139.042-.214.2-.167.352.047.153.196.242.335.2Z" fill="#FFE051"/><path d="M158.859 110.599a.289.289 0 1 0-.169-.552.289.289 0 0 0 .169.552Z" fill="#FFE051"/><path d="M158.37 110.834c.152-.047.234-.219.184-.385-.051-.167-.216-.264-.368-.217-.152.046-.235.219-.184.385.051.166.215.263.368.217Z" fill="#FFE051"/><path d="M158.531 111.415c.153-.047.235-.219.184-.385-.051-.167-.215-.264-.367-.217-.153.046-.235.219-.184.385.05.166.215.263.367.217Z" fill="#FFE051"/><path d="M158.945 111.389c.138-.042.213-.2.166-.352-.046-.153-.196-.242-.335-.199-.138.042-.213.2-.166.352.046.152.196.241.335.199Z" fill="#FFE051"/><path d="M158.876 111.631c.111-.034.17-.163.132-.287-.038-.125-.159-.198-.269-.165-.111.034-.17.163-.132.287.038.125.159.198.269.165ZM158.783 111.075c.139-.042.213-.2.167-.352-.047-.152-.197-.242-.335-.199-.138.042-.213.2-.167.352.047.152.197.242.335.199Z" fill="#CEAA22"/><path d="M156.282 102.043s-3.019 1.417-3.885 2.283c-.814-1.023-2.887-1.758-2.887-1.758s1.653-.42 2.362-1.548c.919.367 4.41 1.023 4.41 1.023Z" fill="#5B725B"/><path d="M158.355 99.578s1.05-2.178 2.179-2.887c-.21-.734-.184-1.285-.079-1.627-.499-.55-.368-1.679-.368-1.679s-.708.656-1.312.919c-.158.76-.394 1.338-.761 1.626.262 1.129.341 3.647.341 3.647ZM163.37 104.511c-.735-1.023-3.859-2.073-3.859-2.073s4.043-.761 4.856-1.181c.289 1.522 1.864 2.834 1.864 2.834s-1.837-.367-2.861.42Z" fill="#9AA69A"/><path d="M163.606 106.216s-2.153.315-3.36-.761c-1.234-1.076-2.258-3.542-2.258-3.542s2.573.21 3.728 1.259c1.155 1.102 1.89 3.044 1.89 3.044Z" fill="#512176"/><path d="M158.408 109.154s-.184-1.129-.709-2.047c-1.601-2.729.289-5.169.289-5.169s1.312 1.994 1.338 3.569c-.026 1.548-.918 3.647-.918 3.647Z" fill="#642E93"/><path d="M153.764 107.948s1.523-5.904 4.2-6.035c1.286 2.65-3.36 5.247-4.2 6.035Z" fill="#512176"/><path d="M151.503 99.55s1.523 1.969 3.203 2.441c1.653.473 3.281-.052 3.281-.052s-1.181-1.286-2.94-1.916c-1.785-.63-3.019-.158-3.544-.473Z" fill="#642E93"/><path d="M157.12 94.382s-1.47 1.784-.998 4.382c.473 2.597 1.838 3.148 1.838 3.148s.604-1.548.577-3.358c-.026-1.81-1.417-4.172-1.417-4.172Z" fill="#642E93"/><path d="M161.61 96.193s-3.018 2.073-3.359 3.7c-.342 1.626-.289 2.02-.289 2.02s1.811-.184 2.651-1.6c.84-1.391.997-4.12.997-4.12Z" fill="#512176"/><path d="M164.525 99.578s-2.205 2.335-3.727 2.781c-1.523.446-2.835-.446-2.835-.446s2.1-1.653 3.15-2.125c1.076-.446 2.52.21 3.412-.21Z" fill="#642E93"/><path d="M158.697 106.242s-1.076-1.364-1.128-2.466c-.053-1.076.393-1.863.393-1.863s1.05.708 1.103 1.626c.052.919-.368 2.703-.368 2.703Z" fill="#512176"/><path d="M152.95 104.039s.971-1.628 2.257-2.1c1.286-.473 2.756-.026 2.756-.026s-.735 1.391-2.126 1.811c-1.417.446-2.887.315-2.887.315Z" fill="#512176"/><path d="M154.417 98.055s.262 1.732 1.181 2.781c.919 1.05 2.336 1.076 2.336 1.076s-.525-1.443-1.391-2.388c-.866-.944-2.126-1.469-2.126-1.469Z" fill="#512176"/><path d="M159.012 96.666s-1.365 1.81-1.418 3.07c-.052 1.259.368 2.178.368 2.178s.892-.341 1.207-1.522c.342-1.18-.157-3.726-.157-3.726Z" fill="#512176"/><path d="M163.474 102.622s-1.916.762-3.176.683c-1.286-.079-2.31-1.391-2.31-1.391s1.103-.604 2.336-.552c1.208.053 3.15 1.26 3.15 1.26Z" fill="#512176"/><path d="M157.77 102.864a.341.341 0 1 0-.68-.052.341.341 0 0 0 .68.052Z" fill="#FFE051"/><path d="M158.406 102.697a.34.34 0 0 0-.313-.366.34.34 0 1 0 .313.366Z" fill="#FFE051"/><path d="M158.418 102.017a.366.366 0 1 0-.73-.057.366.366 0 0 0 .73.057Z" fill="#FFE051"/><path d="M157.735 101.971a.367.367 0 1 0-.732-.058.367.367 0 0 0 .732.058Z" fill="#FFE051"/><path d="M157.52 102.441a.315.315 0 1 0-.627-.049.315.315 0 0 0 .627.049Z" fill="#FFE051"/><path d="M157.136 102.258a.26.26 0 0 0-.241-.281.26.26 0 0 0-.281.241.26.26 0 0 0 .241.281.26.26 0 0 0 .281-.241ZM157.935 102.394a.34.34 0 1 0-.678-.055.34.34 0 0 0 .678.055Z" fill="#CEAA22"/><path d="M163.608 118.443s-1.312 2.703-1.417 3.778c-1.129-.262-3.019.368-3.019.368s.919-1.234.788-2.414c.84-.263 3.648-1.732 3.648-1.732Z" fill="#5B725B"/><path d="M163.686 115.53s-.499-2.125-.105-3.253c-.577-.394-.84-.814-.971-1.102-.656-.105-1.207-.971-1.207-.971s-.132.866-.394 1.391c.315.629.472 1.18.394 1.574.813.63 2.283 2.361 2.283 2.361ZM169.987 116.212c-1.076-.314-3.859.709-3.859.709s2.389-2.808 2.73-3.542c1.076.918 2.914.944 2.914.944s-1.523.761-1.785 1.889Z" fill="#9AA69A"/><path d="M171.09 117.29s-1.313 1.417-2.782 1.364c-1.47-.078-3.597-1.233-3.597-1.233s1.917-1.286 3.334-1.208c1.444.105 3.045 1.077 3.045 1.077Z" fill="#512176"/><path d="M169.095 122.273s-.762-.682-1.654-1.05c-2.651-1.049-2.704-3.804-2.704-3.804s2.048.682 2.94 1.784c.893 1.102 1.418 3.07 1.418 3.07Z" fill="#642E93"/><path d="M165.183 124.031s-2.257-5.038-.446-6.612c2.388 1.128.604 5.562.446 6.612Z" fill="#512176"/><path d="M158.858 119.362s2.179.525 3.623-.052c1.443-.604 2.257-1.864 2.257-1.864s-1.549-.236-3.15.289c-1.601.525-2.178 1.522-2.73 1.627Z" fill="#642E93"/><path d="M159.88 112.539s-.026 2.073 1.759 3.673c1.785 1.575 3.071 1.207 3.071 1.207s-.446-1.417-1.496-2.702c-1.05-1.26-3.334-2.178-3.334-2.178Z" fill="#642E93"/><path d="M164.055 111.307s-.944 3.148-.262 4.513c.682 1.338.919 1.574.919 1.574s1.155-1.154.945-2.598c-.184-1.443-1.602-3.489-1.602-3.489Z" fill="#512176"/><path d="M168.018 112.066s-.237 2.886-1.024 4.041c-.788 1.154-2.231 1.285-2.231 1.285s.525-2.335.997-3.253c.473-.918 1.864-1.26 2.258-2.073Z" fill="#642E93"/><path d="M167.677 120.044s-1.549-.368-2.178-1.103c-.63-.735-.762-1.549-.762-1.549s1.129-.078 1.706.525c.552.657 1.234 2.127 1.234 2.127ZM162.401 121.722s-.236-1.679.394-2.755c.63-1.05 1.916-1.548 1.916-1.548s.262 1.39-.473 2.492-1.837 1.811-1.837 1.811Z" fill="#512176"/><path d="M160.067 116.66s1.182 1.076 2.415 1.312c1.234.236 2.258-.551 2.258-.551s-1.182-.735-2.31-.919c-1.129-.157-2.363.158-2.363.158Z" fill="#512176"/><path d="M162.506 113.09s.052 2.047.735 2.965c.682.919 1.47 1.338 1.47 1.338s.42-.734 0-1.758c-.42-1.023-2.205-2.545-2.205-2.545Z" fill="#512176"/><path d="M168.99 114.821s-.919 1.601-1.838 2.257c-.919.656-2.415.315-2.415.315s.42-1.05 1.313-1.706c.892-.63 2.94-.866 2.94-.866Z" fill="#512176"/><path d="M165.041 118.6a.315.315 0 1 0-.354-.521.315.315 0 0 0 .354.521Z" fill="#FFE051"/><path d="M165.38 118.123a.314.314 0 1 0-.353-.52.315.315 0 1 0 .353.52Z" fill="#FFE051"/><path d="M165.003 117.677a.341.341 0 1 0-.383-.565.341.341 0 0 0 .383.565Z" fill="#FFE051"/><path d="M164.515 118.037a.34.34 0 1 0-.382-.564.341.341 0 1 0 .382.564Z" fill="#FFE051"/><path d="M164.629 118.417a.288.288 0 1 0-.323-.478.288.288 0 0 0 .323.478Z" fill="#FFE051"/><path d="M164.29 118.421a.236.236 0 1 0-.265-.391.236.236 0 0 0 .265.391ZM164.893 118.204a.315.315 0 1 0-.355-.52.315.315 0 0 0 .355.52Z" fill="#CEAA22"/><path d="M105.911 69.01s-5.276-3.332-11.208.446c-3.99 2.545-4.463 11.519-2.993 14.589 1.47 3.07 8.243 8.606 8.243 8.606s25.435-18.498 5.958-23.64Z" fill="#A5713D"/><path d="m122.871 121.88.078 13.146s15.697.183 16.721-.079c1.024-.236 6.09-4.277 6.615-4.487.525-.21 1.023 0 .84.604-.21.629-.972 2.545-.972 2.545s3.859-.446 4.2-.63c.341-.21 2.651-1.994 3.124-2.152.472-.157 1.286.158 1.076.656-.21.499-2.389 3.306-2.389 3.306s.447 2.992-.708 4.094c-1.155 1.102-6.484 1.994-9.083 2.177-2.598.184-22.259 2.677-23.886 2.598-1.654-.079-4.042-.577-4.882-4.093-.84-3.516-1.129-17.003-1.129-17.003l10.395-.682Z" fill="#DD866F"/><path d="M92.998 245.986v20.675H75.726s-2.467-4.145 0-5.274c2.467-1.128 10.473-5.064 10.473-5.064l-.315-10.337h7.114Z" fill="#F69576"/><path d="M92.998 256.324v10.338H75.726s-2.467-4.146 0-5.274c2.467-1.128 10.473-5.064 10.473-5.064h6.799ZM125.178 263.304c.078.498.131.918.157 1.285H97.406l.866-8.265h8.741s9.03 1.706 11.445 2.44c2.913.919 6.247 1.706 6.72 4.54Z" fill="#032240"/><path d="M119.773 152.264s.971 10.18 0 27.157c-.971 16.976-5.092 33.217-5.591 35.159-.472 1.941-1.706 42.821-1.706 42.821l-15.303 1.574s6.326-53.867 6.798-67.196c.473-13.329-1.706-38.308-1.706-38.308l17.508-1.207Z" fill="#254B6B"/><path d="M85.072 153.471h20.133s1.575 40.328 0 42.191c-1.575 1.863-6.3 9.446-7.035 15.27-.735 5.825-3.491 49.512-3.491 49.512l-12.39-2.204 2.783-104.769Z" fill="#254B6B"/><path d="M100.034 99.236c10.027-.21 13.256 1.286 15.356 5.982 2.099 4.697 7.428 45.917 7.927 54.313.472 8.397-1.129 13.408-12.626 13.408s-33.651-.971-33.651-4.041c0-3.07 2.1-51.243 2.415-59.324.367-8.082 12.993-10.18 20.579-10.338Z" fill="#005893"/><path d="M110.715 101.99c3.964-1.023 7.612-.971 10.5 4.854 1.496 2.991 2.178 10.915 2.861 16.924.577 5.116 14.568 6.717 14.568 6.717v16.74s-26.538 3.07-28.742-14.903c-.814-6.849-6.3-28.469.813-30.332Z" fill="#005893"/><path d="M103.499 98.422c-3.544 0-7.718.342-9.896 1.732-2.651 1.706-2.599 8.082 9.082 8.606 11.681.525 11.287-4.906 10.132-6.533-1.759-2.361-6.615-3.805-9.318-3.805Z" fill="#F69576"/><path d="m108.038 91.102 2.258 14.615h-13.78s.655-5.8 1.443-9.578c.787-3.751 1.444-5.037 1.444-5.037h8.635Z" fill="#F69576"/><path d="M102.027 95.09s-.105 2.703 1.68 3.857c1.785 1.181 5.748 1.207 5.748 1.207l-1.417-9.052h-5.801c-.027 0-.42 2.282-.21 3.988Z" fill="#DD866F"/><path d="M110.007 73.39s1.759 1.444 2.494 4.618c.577 2.44.446 5.09.761 6.56.315 1.47.787 3.83.367 5.877-.42 2.047-2.231 4.854-5.617 5.799-3.386.945-6.142.262-8.006-2.099-1.864-2.361-4.173-6.56-4.856-9.472-.682-2.913-1.076-8.449 2.047-10.889 3.99-3.096 8.741-3.122 12.81-.394Z" fill="#F69576"/><path d="M103.866 89.843s.315 1.995 1.496 2.415c1.181.42 2.389.131 2.914-.525.551-.656.813-1.916.813-1.916l-5.223.026Z" fill="#fff"/><path d="M106.754 87.666c-.105 0-.184-.027-.236-.08-.158-.13-.158-.34-.158-.472v-.052c-.026.026-.078.052-.183.157-.105.105-.237.158-.368.105-.184-.052-.315-.236-.367-.472-.079-.42.288-1.076.341-1.155.026-.053.105-.079.157-.053.053.027.079.105.053.158-.105.184-.368.735-.315.997.026.184.131.29.21.29.052.025.105-.027.131-.053.158-.184.289-.263.394-.237.052 0 .105.053.157.105.027.053.027.105.027.21s0 .263.078.315c.027.027.079.027.158.027.157-.027.184-.158.157-.394 0-.131 0-.21.053-.289a.2.2 0 0 1 .131-.052c.079 0 .158.052.236.13.158.106.21.132.315.053.053-.052.053-.13.053-.262-.026-.341-.236-.788-.42-.919-.053-.026-.053-.105-.026-.157.026-.053.105-.053.157-.026.236.183.473.708.499 1.102 0 .184-.026.341-.131.42-.237.236-.473.079-.604-.026-.026 0-.026-.027-.053-.027v.053c0 .21.027.577-.367.63-.026-.026-.053-.026-.079-.026Z" fill="#6B3425"/><path d="M89.98 82.547c1.05-2.597 8.662-.236 7.245 4.54-1.444 4.88-8.793-.709-7.245-4.54Z" fill="#F69576"/><path d="M95.809 87.665c-.026 0-.052 0-.079-.027-.052-.052-.052-.105 0-.157.315-.341.368-1.417-.026-2.493-.289-.76-.997-2.046-2.625-2.23-.866-.105-1.496.026-1.837.446-.525.577-.263 1.548-.263 1.574.026.053-.026.132-.079.132-.052.026-.13-.027-.13-.08 0-.052-.29-1.101.314-1.757.394-.472 1.103-.63 2.048-.525 1.286.158 2.31 1.023 2.808 2.388.394 1.076.394 2.256-.026 2.729h-.105Z" fill="#6B3425"/><path d="M93.08 87.244c-.053 0-.08-.026-.106-.078-.026-.079-.892-2.178.368-4.54.026-.052.105-.078.157-.052.053.026.079.105.053.157-1.208 2.257-.368 4.303-.368 4.33.027.052 0 .13-.052.157-.026.026-.053.026-.053.026ZM103.077 85.46c.232 0 .42-.375.42-.839 0-.464-.188-.84-.42-.84-.232 0-.42.376-.42.84 0 .464.188.84.42.84ZM101.134 82.392c.341-.289.997-.63 1.68-.709.761-.079 1.207.263 1.496.341.315.08.341-.34.184-.708-.158-.368-.814-.63-1.838-.578-1.05.026-1.601.499-1.89.814-.288.341-.078 1.207.368.84ZM109.511 85.226c.232 0 .42-.376.42-.84 0-.464-.188-.84-.42-.84-.232 0-.42.376-.42.84 0 .464.188.84.42.84ZM107.962 82.076c.342-.29.998-.63 1.68-.71.762-.078 1.208.263 1.497.342.315.079.341-.341.183-.709-.157-.367-.813-.63-1.837-.577-1.05.026-1.601.499-1.89.814-.289.34-.079 1.207.367.84ZM110.666 92.308l-.525.132s-1.024 1.994-1.864 2.387c-.84.394-3.622.237-3.937 0-.289-.262-1.26-2.466-1.26-2.466l-.656.157s.997 3.201 1.155 3.49c.105.184 1.942 1.443 2.651 1.496.709.052 3.202-1.286 3.307-1.6.394-.945 1.129-3.596 1.129-3.596Z" fill="#6B3425"/><path d="m107.488 93.541-1.234-.026-.026 2.153.945.183.315-2.31Z" fill="#6B3425"/><path d="M96.515 70.375s2.888 5.221 10.92 5.694c16.746.97 9.055-8.423 9.055-8.423s.604 2.493-2.283 2.624c-3.911.184-9.607-11.78-17.692.105Z" fill="#A5713D"/><path d="M110.452 66.727s-2.441-6.638-9.37-7.82c-6.93-1.18-14.91 4.776-17.666 9.971-2.756 5.196-.892 16.452-.892 16.452s1.076-11.807 3.648-12.437c2.599-.63 5.46 3.568 5.46 3.568l18.82-9.734Z" fill="#254B6B"/><path d="M111.188 65.493c1.182.472 3.675 3.595 3.124 4.67-.551 1.076-21.314 10.758-22.233 11.047-.918.288-2.887-3.49-1.522-6.035 1.365-2.52 17.481-10.968 20.631-9.682ZM83.172 87.732c1.547-.123 2.697-1.51 2.57-3.1-.126-1.589-1.482-2.777-3.028-2.654-1.546.124-2.697 1.512-2.57 3.1.126 1.59 1.482 2.778 3.028 2.654ZM139.223 130.486c.105-2.545-3.78-2.099-4.174-.603-.394 1.495-.735 16.871 0 17.999.735 1.128 2.914 1.706 3.596 0 .709-1.705.473-14.903.578-17.396ZM114.181 101.465c-.918-1.548-3.963-2.02-3.517-1.023.446.997.394 5.431-1.286 6.008-1.68.578-3.622.342-3.675 2.283-.052 1.942 5.224 1.023 6.798-.446 1.575-1.469 2.704-5.09 1.68-6.822Z" fill="#fff"/><path d="M97.355 98.868c.394-1.469-4.463-1.154-5.198.368-1.102 2.256-.84 3.647 0 5.667 1.313 3.227 6.563 5.799 10.579 5.799 2.336 0 4.016-.919 2.966-2.493-1.076-1.6-6.169-.026-8.347-2.466-2.179-2.467-.315-5.668 0-6.875ZM106.647 120.462a2.047 2.047 0 1 0 0-4.094 2.047 2.047 0 0 0 0 4.094ZM106.124 164.411a1.864 1.864 0 1 0 0-3.727 1.864 1.864 0 0 0 0 3.727ZM107.409 131.641a1.706 1.706 0 1 0 0-3.413 1.706 1.706 0 0 0 0 3.413Z" fill="#fff"/><path d="M211.563 218.698s10.264 23.064 10.92 25.058c.656 1.994-2.966 12.227-1.339 13.145 1.628.919 5.67 1.076 6.746 0 1.076-1.075 3.098-5.352 1.076-16.95-2.021-11.597-5.354-21.226-5.354-21.226h-12.049v-.027Z" fill="#DD866F"/><path d="M229.622 244.726c2.021.315 2.31 3.018 2.048 5.746-.263 2.729-1.339 12.674-1.339 12.674h-1.365v-6.822l-4.173 7.871c-8.768 4.119-8.768-1.076-8.768-1.076l5.171-11.046s-1.732 4.539 1.602 4.592c3.333.052 6.824-11.939 6.824-11.939Z" fill="#512176"/><path d="M219.307 219.172s10.263 23.063 10.92 25.057c.682 1.994-2.966 12.227-1.339 13.145 1.627.919 5.67 1.076 6.746 0 1.076-1.075 3.097-5.352 1.076-16.949-2.021-11.598-5.355-21.227-5.355-21.227h-12.048v-.026Z" fill="#F69576"/><path d="M237.42 245.515c2.021.315 2.284 2.677 2.021 5.432-.262 2.755-1.338 12.673-1.338 12.673h-1.365l.367-8.37-4.541 9.419c-10.421 4.487-8.767-1.075-8.767-1.075l4.672-10.994s-1.128 4.277 2.205 4.329c3.334.052 6.746-11.414 6.746-11.414ZM226.996 101.728c7.324.079 11.655 0 13.309 3.333 1.653 3.332-4.332 28.285-6.668 34.608-2.336 6.323 2.993 11.965 4.673 19.285 1.653 7.321-1.339 16.976-2.652 23.3-1.312 6.323-.656 15.979 2.993 20.964 3.648 4.985 10.316 12.962 10.316 12.962s-15.303 7.976-24.622 7.976c-9.318 0-21.288-2.335-21.288-2.335s3.334-9.315 0-17.291c-3.359-8.003 3.308-46.573 4.62-53.893 1.339-7.321-2.992-37.915-.341-43.582 2.677-5.668 12.232-5.405 19.66-5.327Z" fill="#512176"/><path d="M224.083 100.757c2.546.393 7.927.944 8.741 1.023.787.079 2.31 3.437.866 6.901-1.417 3.437-6.378 4.932-12.52 4.591-6.143-.341-6.668-3.804-7.875-6.9-1.208-3.097 1.05-3.857 3.097-4.461 2.993-.84 5.749-1.443 7.691-1.154Z" fill="#DD866F"/><path d="M249.623 85.014c.84 3.516-5.355 12.358-22.154 13.224-16.799.866-29.241-5.746-29.136-12.017.105-6.297 6.877-3.306 8.898-4.96 2.021-1.652 1.732-4.302 4.252-6.611 2.52-2.31 4.148-.761 5.355-2.1 1.208-1.337.499-5.063 5.67-5.404 5.171-.341 7.297 5.51 8.898 5.746 1.628.21 3.439-.446 5.565 2.099 2.126 2.545 1.312 5.851 3.859 6.848 2.519.97 7.165-3.673 8.793 3.175Z" fill="#000"/><path d="m219.885 93.15-2.205 14.168h13.361s-.656-5.615-1.391-9.262c-.735-3.647-1.392-4.88-1.392-4.88h-8.373v-.027Z" fill="#DD866F"/><path d="M225.682 97.006s.105 2.598-1.627 3.752c-1.732 1.128-5.565 1.155-5.565 1.155l1.365-8.764h5.644s.42 2.204.183 3.857Z" fill="#DD866F"/><path d="M217.967 75.99s-1.68 1.39-2.415 4.487c-.577 2.36-.446 4.932-.735 6.35-.288 1.442-.761 3.699-.367 5.693.394 1.994 2.179 4.697 5.433 5.615 3.282.918 5.959.262 7.77-2.02 1.811-2.283 4.042-6.35 4.699-9.184.656-2.834 1.023-8.186-1.995-10.548-3.859-3.017-8.452-3.043-12.39-.393Z" fill="#F69576"/><path d="M219.463 91.364c.683-.183 1.391.236 1.391.236s.945-.472 1.26-.472c.998 0 1.864.814 1.864.814s-.578 3.463-2.494 3.28c-3.202-.316-3.176-3.36-3.176-3.36s.525-.34 1.155-.498Z" fill="#512176"/><path d="M224.003 91.943s-.262 1.942-1.522 2.336c-1.26.394-2.573.131-3.176-.525-.604-.656-.972-1.89-.972-1.89l5.67.079Z" fill="#fff"/><path d="M221.039 89.817c-.368-.052-.368-.42-.341-.603v-.053c-.027 0-.027.026-.053.026-.131.105-.341.263-.577.027-.105-.08-.131-.237-.131-.42.026-.368.262-.893.472-1.05.052-.027.105-.027.157.026.027.052.027.105-.026.157-.157.105-.367.552-.393.893 0 .105.026.21.052.236.105.079.157.053.289-.052.078-.053.131-.105.236-.105.052 0 .079 0 .131.026.053.052.053.157.053.262 0 .237 0 .368.157.394.079 0 .105 0 .158-.026.052-.053.078-.21.078-.315 0-.079 0-.158.027-.184.026-.052.078-.079.131-.105.105 0 .236.053.394.236a.198.198 0 0 0 .131.053c.079-.026.157-.105.184-.289.052-.262-.21-.787-.289-.971-.026-.053 0-.131.052-.158.053-.026.132 0 .158.053.052.079.394.735.315 1.129-.053.236-.184.42-.341.446-.132.026-.263 0-.342-.105-.078-.105-.131-.131-.183-.158v.053c0 .131-.027.341-.158.472-.052.053-.131.08-.236.08-.053.052-.079.052-.105.025Z" fill="#6B3425"/><path d="M237.366 84.859c-1.024-2.52-8.4-.236-7.035 4.381 1.417 4.75 8.531-.655 7.035-4.381Z" fill="#F69576"/><path d="M231.721 89.844c.027 0 .053 0 .079-.026.053-.053.053-.105 0-.158-.289-.34-.367-1.39.026-2.414.263-.734.945-1.968 2.546-2.177.84-.105 1.444.026 1.785.42.499.577.263 1.495.263 1.521-.026.053.026.131.079.131.052.027.131-.026.131-.078 0-.053.262-1.05-.315-1.706-.394-.446-1.05-.603-1.995-.498-1.234.157-2.231.997-2.73 2.309-.394 1.05-.367 2.204.026 2.65.053 0 .079.026.105.026Z" fill="#6B3425"/><path d="M234.374 89.423c.053 0 .079-.026.105-.079.027-.078.867-2.125-.367-4.382-.026-.052-.105-.078-.158-.052-.052.026-.078.105-.052.157 1.181 2.178.367 4.172.341 4.199-.026.052 0 .13.053.13.052.027.078.027.078.027ZM219.832 83.889c-.393-.131-1.233-.525-1.889-.368-.709.184-.998.552-1.26.71-.263.183-.289.183-.263-.185.026-.393.525-.84 1.496-1.155.972-.315 1.628-.078 1.995.132.341.157.446 1.05-.079.866Z" fill="#6B3425"/><path d="M217.205 85.724c.157-.184.288.446.945.578.656.13 1.128-.5 1.286-.237.157.263-.184.998-1.129.814-.945-.184-1.417-.788-1.102-1.155Z" fill="#000"/><path d="M224.397 84.438c.42-.131 1.312-.525 2.021-.367.761.183 1.076.551 1.338.709.263.157.315.183.289-.184-.026-.368-.551-.84-1.575-1.155-1.023-.315-1.732-.079-2.126.131-.42.184-.525 1.076.053.866Z" fill="#6B3425"/><path d="M227.18 86.3c-.157-.183-.315.447-1.023.578-.709.131-1.208-.499-1.365-.236-.158.262.183.997 1.181.814.997-.21 1.522-.788 1.207-1.155ZM218.806 74.493s1.811 3.883 5.932 6.244c4.121 2.362 7.218 3.359 7.218 3.359s1.313 5.352 4.2 5.72c2.861.393 4.935-4.933 4.935-4.933l-9.108-9.603-6.221-4.46-6.956 3.673Z" fill="#000"/><path d="M232.796 90.13s1.968 4.33 0 4.304c-1.523 0 0-4.303 0-4.303Z" fill="#FFE051"/><path d="M239.701 104.141c5.591-.315 6.772 4.067 6.43 9.393-.341 5.327-2.729 14.825-7.822 21.28-5.092 6.454-12.809 11.964-14.804 12.305-1.995.341-4.83-1.154-5.486-3.332-.656-2.178 1.654-21.961 2.835-25.11 1.181-3.149 3.832-11.965 6.168-13.145 2.336-1.181 4.489-2.65 4.148-1.417-.342 1.233-4.673 8.239-4.83 9.734-.158 1.496-.158 16.294.341 16.137.499-.158 7.166-9.813 7.481-11.309.315-1.496.945-14.3 5.539-14.536Z" fill="#F69576"/><path d="M210.801 103.669s-.577 2.046-.761 4.198c-.367 4.277-2.546 10.705-2.546 10.705-1.68 2.834-4.147 8.921-4.147 8.921s6.378-3.831 9.082-5.825c2.703-1.994 7.061-7.478 9.055-11.309 1.995-3.83 8.531-7.609 9.24-6.533.709 1.076-3.544 4.513-5.197 7.216-1.024 1.679-1.365 5.195-3.36 7.819-1.995 2.623-6.825 11.308-10.158 14.483-3.334 3.149-9.319 6.192-11.156 6.822-3.832 1.338-6.51.367-6.851-2.151-.341-2.519-.473-7.924 2.179-13.985 2.677-6.088 11.733-21.594 14.62-20.361Z" fill="#F69576"/><path d="M152.293 131.272H118.59v31.04h33.703v-31.04Z" fill="#FFE051"/><path d="M152.293 139.248H118.59v.499h33.703v-.499Z" fill="#493127"/><path d="M134.235 131.272h-.499v31.04h.499v-31.04Z" fill="#493127"/><path d="m133.63 139.905.105-.734c.079-.473.735-4.697 2.179-5.51a1.03 1.03 0 0 1 .918-.053.947.947 0 0 1 .578.682c.288 1.522-2.888 4.749-3.255 5.117l-.525.498Zm2.809-5.903a.449.449 0 0 0-.263.078c-.866.473-1.496 2.86-1.785 4.356 1.234-1.338 2.73-3.28 2.546-4.093-.026-.158-.105-.236-.262-.315-.079 0-.158-.026-.236-.026Z" fill="#493127"/><path d="m133.159 139.511.683-.499c.157-.131 4.147-3.043 6.168-2.571.446.105.761.341.971.735a.616.616 0 0 1 0 .603c-.656 1.181-5.932 1.601-6.956 1.679l-.866.053Zm6.352-2.65c-1.365 0-3.491 1.259-4.619 2.02 2.283-.21 5.276-.708 5.643-1.338.026-.053.026-.079 0-.131a.836.836 0 0 0-.63-.473 1.06 1.06 0 0 0-.394-.078Z" fill="#493127"/><path d="M140.008 143.237h-.026c-1.89-.027-5.801-2.624-6.247-3.647-.132-.289-.027-.473.052-.551.656-.683 4.357.682 6.064 1.81 1.023.682 1.417 1.312 1.155 1.837-.079.262-.342.551-.998.551Zm-5.827-3.884c.131.578 3.281 2.887 5.328 3.306.394.079.919.105 1.05-.183.105-.21-.157-.578-.682-.997-1.733-1.365-5.197-2.362-5.696-2.126Z" fill="#493127"/><path d="M137.017 146.622c-.184 0-.368-.052-.525-.131-1.733-.945-2.651-6.586-2.756-7.242l-.132-.813.552.603c.446.472 4.331 4.776 3.963 6.691-.078.367-.288.63-.63.787-.157.053-.315.105-.472.105Zm-2.625-6.612c.394 2.02 1.234 5.405 2.336 6.009.184.104.368.104.578.026.183-.079.288-.236.341-.42.236-1.207-1.916-4.041-3.255-5.615Z" fill="#493127"/><path d="M131.293 145.966a.948.948 0 0 1-.525-.158c-.289-.183-.446-.472-.499-.813-.183-1.784 3.203-5.143 3.596-5.51l.578-.551-.158.787c-.105.577-1.128 5.563-2.651 6.219-.105 0-.21.026-.341.026Zm-.236-.577c.157.105.289.105.42.052.919-.393 1.759-3.253 2.179-5.011-1.182 1.259-2.967 3.411-2.862 4.513 0 .183.079.314.263.446Z" fill="#493127"/><path d="M128.275 142.921c-.131 0-.262 0-.367-.026-.84-.105-1.182-.577-1.313-.945-.341-.97.131-1.81 1.365-2.361 1.995-.918 5.827-.971 6.326-.105.079.131.131.367-.105.682-.709 1.076-3.911 2.755-5.906 2.755Zm3.517-3.542c-1.155 0-2.572.184-3.648.656-.971.446-1.339 1.05-1.103 1.758.289.84 1.602.656 2.363.472 2.31-.577 4.462-2.151 4.41-2.519-.079-.209-.945-.367-2.022-.367Z" fill="#493127"/><path d="M133.812 139.957c-.184 0-.341-.053-.42-.079-1.391-.42-4.698-2.834-4.961-4.356a.837.837 0 0 1 .341-.892c.972-.734 2.678.551 3.964 1.968.236.263 2.179 2.493 1.522 3.201-.131.131-.288.158-.446.158Zm-4.383-5.064c-.158 0-.289.026-.368.105-.236.183-.184.524.105.997 1.076 1.679 4.279 3.647 4.699 3.437.157-.289-.893-2.073-2.494-3.49-.761-.656-1.47-1.049-1.942-1.049Z" fill="#493127"/><path d="m96.04 128.227.08 13.146s15.696.183 16.72-.079c1.023-.236 6.089-4.277 6.614-4.487.525-.21 1.024 0 .84.604-.21.629-.971 2.545-.971 2.545s3.859-.446 4.2-.63c.341-.21 2.651-1.994 3.124-2.151.472-.158 1.286.157 1.076.655-.21.499-2.389 3.307-2.389 3.307s.446 2.991-.709 4.093c-1.128 1.102-6.483 1.994-9.082 2.177-2.598.184-22.259 2.677-23.886 2.598-1.627-.079-4.042-.577-4.882-4.093-.84-3.516-1.129-17.003-1.129-17.003l10.394-.682Z" fill="#F69576"/><path d="M92.657 106.476c-8.977-.289-9.895 12.41-10.342 20.36-.446 7.977.919 20.545 3.36 23.195 2.441 2.65 26.826 1.732 26.826 1.732v-16.504s-15.696 1.364-16.274.105c-.603-1.233 10.972-28.442-3.57-28.888Z" fill="#046AA3"/><path d="M112.498 135.259c.105-2.151-2.415-2.151-2.625 0-.236 2.152-.63 15.56-.42 17.003.21 1.443 3.071 3.673 3.071.498-.026-3.148-.131-15.323-.026-17.501Z" fill="#fff"/></svg>