<svg width="375" height="306" fill="none" xmlns="http://www.w3.org/2000/svg"><path d="M169.758 53.473c18.161 3.432 52.407-66.623 90.28-51.166 37.873 15.458 10.04 65.261 23.549 76.422 13.509 11.16 50.515-23.186 66.074 12.89 15.56 36.075-8.095 74.718-8.436 80.718-.342 5.999 42.656 38.25 30.724 82.656-11.932 44.407-170.39 48.703-226.95 50.406-56.533 1.73-132.174 1.572-143.318-44.721-11.144-46.293 39.476-86.612 44.155-99.554 4.678-12.916-37.663-57.978 15.427-113.336 41.054-42.834 90.36 2.253 108.495 5.685Z" fill="#9ECBDD"/><path d="M1.708 260.649c11.144 46.293 86.785 46.45 143.319 44.721 56.533-1.729 214.991-6 226.949-50.406 8.121-30.207-9.172-54.808-20.973-69.322H27.229c-15.06 19.073-32.538 45.848-25.52 75.007Z" fill="#776B67"/><path d="M12.616 206.656c-9.251 15.85-15.638 34.399-10.907 53.995 11.144 46.293 86.785 46.45 143.318 44.721 56.534-1.729 214.991-5.999 226.95-50.406 4.994-18.575.368-35.028-6.65-48.31H12.617Z" fill="#3D3B38"/><path d="M85.155 97.826s-3.259-6.288 4.153-6.995c-.763-5.004 6.491-12.55 19.081-9.327 2.129-5.45 14.14-15.064 22.498-3.353 15.927-6.655 18.187 2.934 16.058 4.663 12.353-2.227 10.171 6.21 8.095 7.152 16.348-3.484 14.088 7.86 14.088 7.86H85.155ZM270.21 127.09s-1.367-3.485 1.735-3.878c-.316-2.777 2.707-6.942 7.963-5.161.894-3.013 5.914-8.331 9.383-1.86 6.65-3.694 7.596 1.624 6.702 2.568 5.152-1.232 4.258 3.432 3.364 3.956 6.834-1.939 5.888 4.349 5.888 4.349H270.21v.026Z" fill="#fff"/><path d="M226.921 192.874h-11.433v6.549h11.433v-6.549Z" fill="#6B3425"/><path d="M238.014 178.098h14.508l-4.258-18.103-10.25-3.852h9.33l-1.104-4.663-16.505-1.258 15.48-3.117-2.181-9.274-13.299-4.166s7.254-.419 12.142-.681l-6.597-28.19-10.828-.943 10.329-1.153-13.588-57.768-8.043 34.137h4.968l-5.677 3.013-2.55 10.82h9.252l-9.777 2.331-.894 3.773h5.178l-5.598 1.808-5.362 22.74 12.8 2.699-14.088 2.855-4.31 18.287h13.299l-14.64 5.659-4.441 18.915a4731.85 4731.85 0 0 0 17.241 2.463l-18.424 2.567-3.732 15.877h69.596l-2.076-8.829-15.901-5.947Z" fill="#7EA21A"/><path d="M155.517 197.646h6.15v-3.536h-6.15v3.536Z" fill="#6B3425"/><path d="M149.523 186.168h-7.806l2.286-9.746 5.52-2.069h-5.02l.578-2.515 8.884-.681-8.332-1.677 1.183-5.004 7.149-2.253s-3.917-.236-6.545-.367l3.575-15.169 5.834-.498-5.572-.629 7.333-31.123 4.337 18.365h-2.681l3.049 1.624 1.367 5.816h-4.968l5.283 1.258.473 2.043h-2.786l3.023.97 2.891 12.234-6.886 1.441 7.595 1.546 2.313 9.851h-7.149l7.885 3.039 2.392 10.191c-3.785.55-9.278 1.336-9.278 1.336l9.935 1.389 2.024 8.54h-37.558l1.13-4.768 8.542-3.144Z" fill="#7EA21A"/><path d="M146.552 229.788H126.84v3.956h19.712v-3.956ZM217.253 229.788h-19.712v3.956h19.712v-3.956ZM193.6 229.788h-19.712v3.956H193.6v-3.956ZM122.899 229.788h-19.712v3.956h19.712v-3.956ZM99.244 229.788H82.161v3.956h17.083v-3.956ZM78.217 229.788H58.505v3.956h19.712v-3.956ZM54.564 229.788H34.852v3.956h19.712v-3.956ZM169.942 229.788h-19.449v3.956h19.449v-3.956ZM354.71 229.788h-19.712v3.956h19.712v-3.956ZM30.91 229.788H6.86v3.956h24.05v-3.956ZM331.057 229.788h-19.712v3.956h19.712v-3.956ZM363.225 229.788h-4.573v3.956h4.573v-3.956ZM285.588 229.788h-19.712v3.956h19.712v-3.956ZM261.932 229.788H242.22v3.956h19.712v-3.956ZM238.277 229.788h-17.083v3.956h17.083v-3.956ZM307.401 229.788h-17.872v3.956h17.872v-3.956Z" fill="#fff"/><path d="m136.564 176.213-70.569 3.144-13.798-14.933 10.25-16.898 74.117 5.109v23.578Z" fill="#6B3425"/><path d="M132.62 147.526h-3.943v58.554h3.943v-58.554ZM250.893 175.637l70.568 3.144 13.798-14.934-10.25-16.898-74.116 5.109v23.579Z" fill="#6B3425"/><path d="M254.849 205.483h3.943v-58.554h-3.943v58.554Z" fill="#6B3425"/><path d="M82.182 166.882v-9.119h3.081c.716 0 1.3.129 1.755.387.457.256.795.601 1.015 1.038.22.436.33.923.33 1.46a3.23 3.23 0 0 1-.33 1.465 2.45 2.45 0 0 1-1.006 1.051c-.455.258-1.036.387-1.746.387h-2.208v-.979h2.173c.49 0 .883-.085 1.18-.254.296-.169.511-.398.645-.686a2.29 2.29 0 0 0 .205-.984c0-.365-.068-.691-.205-.979a1.46 1.46 0 0 0-.65-.677c-.3-.166-.698-.25-1.193-.25h-1.942v8.14h-1.104Zm9.83.16c-.434 0-.828-.082-1.18-.245a2.02 2.02 0 0 1-.842-.717c-.208-.314-.312-.694-.312-1.139 0-.392.077-.71.232-.953.154-.247.36-.44.618-.579.259-.14.544-.244.855-.312.315-.071.631-.128.949-.169.415-.054.752-.094 1.01-.12.262-.03.452-.079.57-.147.122-.069.183-.187.183-.356v-.036c0-.439-.12-.781-.36-1.024-.238-.244-.599-.365-1.083-.365-.501 0-.895.11-1.18.329-.284.22-.485.454-.6.704l-.998-.356c.178-.416.416-.74.712-.971.3-.235.627-.398.98-.49a4.066 4.066 0 0 1 1.05-.142c.22 0 .473.026.758.08.288.05.565.156.832.316.27.16.495.402.673.726.178.323.267.757.267 1.3v4.506h-1.05v-.926h-.054c-.072.148-.19.307-.357.476a2.063 2.063 0 0 1-.663.432c-.276.119-.613.178-1.01.178Zm.16-.944c.415 0 .765-.081 1.05-.245a1.666 1.666 0 0 0 .873-1.447v-.962c-.044.054-.142.103-.294.147a4.92 4.92 0 0 1-.516.112c-.193.029-.382.056-.566.08-.18.021-.328.038-.44.053a4.056 4.056 0 0 0-.766.174 1.313 1.313 0 0 0-.57.352c-.143.154-.214.365-.214.632 0 .365.135.641.405.828.273.184.619.276 1.037.276Zm4.892.784v-6.839h1.015v1.033h.071a1.64 1.64 0 0 1 .677-.824 1.99 1.99 0 0 1 1.104-.316c.077 0 .174.001.29.004.115.003.203.008.262.014v1.068a3.13 3.13 0 0 0-.244-.04 2.395 2.395 0 0 0-.397-.031c-.332 0-.63.07-.89.209a1.585 1.585 0 0 0-.615.57 1.538 1.538 0 0 0-.222.824v4.328h-1.051Zm4.665 0v-6.839h1.051v6.839h-1.051Zm.534-7.979a.752.752 0 0 1-.53-.209.676.676 0 0 1-.218-.504c0-.196.073-.363.218-.503a.752.752 0 0 1 .53-.209c.205 0 .38.07.526.209.148.14.222.307.222.503a.67.67 0 0 1-.222.504.736.736 0 0 1-.526.209Zm7.286 2.671-.944.267a1.733 1.733 0 0 0-.263-.458 1.27 1.27 0 0 0-.463-.374c-.196-.098-.447-.147-.752-.147-.419 0-.768.096-1.047.289-.276.19-.414.432-.414.726 0 .261.095.468.285.619.19.151.487.278.891.378l1.015.25c.611.148 1.067.375 1.367.681.3.303.45.693.45 1.171 0 .392-.113.742-.339 1.051-.222.309-.534.552-.935.73-.401.178-.867.267-1.398.267-.698 0-1.275-.151-1.732-.454-.457-.303-.747-.745-.868-1.327l.997-.249c.095.368.275.644.539.828.267.184.616.276 1.046.276.49 0 .879-.104 1.167-.312.291-.21.436-.463.436-.756a.795.795 0 0 0-.249-.597c-.166-.163-.422-.285-.766-.365l-1.14-.267c-.626-.149-1.086-.379-1.38-.691-.291-.314-.437-.707-.437-1.179 0-.386.109-.728.325-1.025.22-.296.518-.529.895-.699.38-.169.811-.253 1.292-.253.677 0 1.208.148 1.594.445a2.4 2.4 0 0 1 .828 1.175ZM271.399 156.915l2.707 7.677h.107l2.707-7.677h1.158l-3.348 9.119h-1.14l-3.349-9.119h1.158Zm7.957 9.119v-6.839h1.051v6.839h-1.051Zm.534-7.979a.75.75 0 0 1-.53-.209.674.674 0 0 1-.218-.503c0-.196.073-.364.218-.503a.747.747 0 0 1 .53-.21c.205 0 .38.07.526.21a.666.666 0 0 1 .222.503.667.667 0 0 1-.222.503.736.736 0 0 1-.526.209Zm3.492-1.14v9.119h-1.051v-9.119h1.051Zm2.976 0v9.119h-1.051v-9.119h1.051Zm3.937 9.279a2.78 2.78 0 0 1-1.18-.244 2.04 2.04 0 0 1-.842-.717c-.207-.315-.311-.695-.311-1.14 0-.392.077-.71.231-.953.155-.246.361-.439.619-.579a3.29 3.29 0 0 1 .855-.312 10.7 10.7 0 0 1 .948-.169 47.35 47.35 0 0 1 1.011-.12c.261-.03.451-.079.57-.147.122-.068.183-.187.183-.356v-.036c0-.439-.121-.78-.361-1.024-.237-.243-.598-.365-1.082-.365-.502 0-.895.11-1.18.33-.285.219-.485.454-.601.703l-.997-.356c.178-.416.415-.739.712-.971.3-.234.626-.398.98-.49a4.06 4.06 0 0 1 1.05-.142c.22 0 .472.027.757.08.288.051.566.156.833.316.27.161.494.402.672.726.178.324.268.757.268 1.3v4.506h-1.051v-.926h-.054a1.85 1.85 0 0 1-.356.476c-.166.17-.387.314-.663.432-.276.119-.613.178-1.011.178Zm.16-.943c.416 0 .766-.082 1.051-.245a1.665 1.665 0 0 0 .873-1.447v-.962c-.045.053-.143.102-.294.147a5.252 5.252 0 0 1-.517.111 23.195 23.195 0 0 1-1.006.134 3.99 3.99 0 0 0-.766.173 1.329 1.329 0 0 0-.57.352c-.142.154-.213.365-.213.632 0 .365.135.641.405.828.273.185.619.277 1.037.277Zm7.653 3.49c-.508 0-.944-.065-1.309-.196a2.77 2.77 0 0 1-.913-.507 2.787 2.787 0 0 1-.574-.668l.837-.588c.095.125.215.267.361.428.145.163.344.304.596.423.256.121.589.182 1.002.182.552 0 1.008-.133 1.367-.401.359-.267.539-.685.539-1.255v-1.389h-.089a5.623 5.623 0 0 1-.33.463 1.857 1.857 0 0 1-.605.485c-.262.14-.615.209-1.06.209-.552 0-1.048-.13-1.487-.392-.437-.261-.782-.641-1.038-1.139-.252-.499-.378-1.105-.378-1.817 0-.701.123-1.311.369-1.83.247-.522.59-.926 1.029-1.211.439-.288.947-.432 1.523-.432.445 0 .798.074 1.06.223.264.145.466.311.605.498.143.184.252.336.33.454h.106v-1.086h1.016v7.035c0 .588-.134 1.066-.401 1.434a2.289 2.289 0 0 1-1.069.815 4.033 4.033 0 0 1-1.487.262Zm-.036-3.758c.422 0 .778-.096 1.069-.289.291-.193.512-.471.664-.833.151-.362.227-.795.227-1.3 0-.493-.075-.927-.223-1.304a1.958 1.958 0 0 0-.659-.887c-.291-.213-.65-.32-1.078-.32-.445 0-.816.113-1.113.338a2.06 2.06 0 0 0-.663.909c-.146.38-.218.801-.218 1.264 0 .475.074.895.222 1.26.152.362.374.647.668.855.297.205.665.307 1.104.307Zm7.784 1.194c-.659 0-1.228-.146-1.706-.437a2.931 2.931 0 0 1-1.1-1.229c-.255-.528-.382-1.142-.382-1.843 0-.701.127-1.318.382-1.852a3.026 3.026 0 0 1 1.078-1.256c.463-.303 1.003-.454 1.621-.454.356 0 .708.059 1.055.178s.663.312.948.579c.285.264.512.614.682 1.051.169.436.253.973.253 1.612v.445h-5.271v-.909h4.203c0-.385-.077-.73-.232-1.033a1.744 1.744 0 0 0-.65-.716 1.811 1.811 0 0 0-.988-.263c-.419 0-.781.104-1.087.312a2.059 2.059 0 0 0-.699.801 2.36 2.36 0 0 0-.245 1.06v.605c0 .517.089.955.268 1.314.181.356.431.628.752.815.321.184.693.276 1.118.276.276 0 .525-.039.748-.116.225-.08.42-.199.583-.356.163-.161.289-.359.378-.597l1.016.285a2.256 2.256 0 0 1-.539.908c-.252.259-.564.46-.935.606a3.477 3.477 0 0 1-1.251.214Z" fill="#fff"/><path d="M175.119 184.253c-4.678-.551-9.488-1.834-10.828-3.459-2.812-3.379-3.995-7.885-3.496-13.387.552-6.366 4.942-13.388 6.466-15.195 2.602-3.118 9.383-2.306 13.43-1.808l.5.052c3.495.42 9.356 1.101 10.749 5.319 1.314 3.93.868 9.51 0 13.413-.131.524-2.97 13.126-7.753 14.855-1.814.629-5.414.629-9.068.21Zm-7.201-31.517c-1.419 1.703-5.73 8.619-6.255 14.723-.473 5.266.657 9.563 3.311 12.759 2.156 2.594 15.218 4.297 18.897 2.987 3.47-1.232 6.229-9.851 7.202-14.226.815-3.616 1.288-9.196.026-12.968-1.156-3.406-5.782-4.218-10.04-4.716l-.499-.053c-3.627-.445-10.355-1.257-12.642 1.494Z" fill="#9B7A56"/><path d="M183.372 174.323c1.997-1.65 6.36.76 6.36.76s-2.76 7.336-4.941 9.405c-2.181 2.07-9.751 2.62-13.351 2.489-3.575-.131-13.746-1.519-17.058-4.742-3.311-3.196-2.943-7.231-2.418-9.981.526-2.751 2.155-4.218 3.391-3.956 1.235.235 5.729 1.65 5.729 1.65s.027 4.611 1.341 7.021c1.314 2.411 1.498 4.192 5.02 5.188 3.548.969 9.172 1.807 9.172 1.807s5.02-8.2 6.755-9.641Z" fill="#9B7A56"/><path d="M166.895 181.921a.198.198 0 0 1-.131-.184l6.202-30.783c.027-.079.079-.131.158-.105.079.026.131.105.105.157l-6.176 30.81c-.027.052-.079.105-.158.105ZM180.746 184.228c-.105-.027-.131-.105-.131-.184l8.174-30.443c.026-.078.105-.131.184-.104.079.026.131.104.105.183l-8.174 30.443c0 .078-.079.105-.158.105ZM174.62 183.494c-.079 0-.131-.078-.131-.157 0-.131.972-12.549 6.991-31.989.026-.078.105-.131.184-.104.079.026.131.104.105.183-6.019 19.439-6.991 31.805-6.991 31.936 0 .079-.079.131-.158.131Z" fill="#9B7A56"/><path d="m190.389 154.202-19.581-3.353c-.078-.026-.131-.079-.131-.157.026-.079.079-.131.158-.131l19.58 3.353c.079.026.132.079.132.157-.027.079-.079.131-.158.131ZM191.388 155.722l-23.102-3.799c-.079 0-.131-.078-.131-.157 0-.078.078-.131.157-.131l23.076 3.799c.079 0 .132.079.132.157 0 .105-.053.157-.132.131ZM191.862 157.346c-.026 0-.026 0 0 0l-24.311-4.166c-.079-.026-.131-.078-.131-.157.026-.079.079-.131.157-.131l24.312 4.139c.079.027.131.079.131.158-.026.104-.105.157-.158.157ZM188 158.422c-2.366-.288-5.414-.707-7.648-1.257-4.179-1.022-13.247-3.013-13.326-3.039-.079-.027-.131-.105-.105-.184.026-.078.105-.131.184-.105.079.027 9.146 1.991 13.352 3.039 4.179 1.022 11.196 1.625 11.275 1.625.079 0 .131.078.131.157s-.079.131-.157.131c-.053.026-1.63-.105-3.706-.367ZM185.739 159.572a74.306 74.306 0 0 1-5.703-.891c-5.861-1.178-13.825-3.274-13.904-3.301-.079-.026-.131-.104-.105-.183.026-.079.105-.131.184-.105.079.026 8.016 2.122 13.877 3.301 5.835 1.179 11.801 1.415 11.854 1.415.078 0 .131.079.131.157 0 .079-.079.131-.158.131-.026 0-2.68-.105-6.176-.524ZM187.787 161.146c-2.05-.236-4.809-.629-8.016-1.231-7.07-1.337-14.271-3.328-14.35-3.354-.079-.026-.131-.105-.105-.183.026-.079.105-.131.184-.105.079.026 7.28 2.017 14.324 3.353 7.044 1.336 11.906 1.598 11.958 1.625.079 0 .132.078.132.157 0 .078-.079.131-.158.131-.026 0-1.498-.079-3.969-.393ZM187.288 162.717a87.316 87.316 0 0 1-7.858-1.31c-6.939-1.519-14.639-3.536-14.718-3.536-.079-.027-.132-.105-.105-.184.026-.078.105-.131.184-.105.079.027 7.753 2.044 14.692 3.537 6.938 1.52 12.326 1.703 12.379 1.703.078 0 .131.079.131.157 0 .079-.079.131-.158.131 0 0-1.761-.078-4.547-.393ZM191.1 164.368c-1.629-.183-6.36-.786-12.274-1.702-7.359-1.153-14.613-3.406-14.692-3.433-.079-.026-.131-.104-.105-.183.026-.079.105-.131.184-.105.079.026 7.333 2.28 14.639 3.432 7.333 1.153 12.826 1.756 12.879 1.782.079 0 .131.078.131.157s-.079.131-.157.131c-.027 0-.237-.026-.605-.079ZM190.785 165.703c-1.551-.183-5.467-.681-11.906-1.65-8.542-1.284-15.323-3.616-15.375-3.616-.079-.026-.106-.104-.079-.183.026-.079.105-.105.184-.079.078.027 6.807 2.332 15.322 3.616 8.516 1.283 12.616 1.729 12.668 1.729.079 0 .132.078.132.157s-.079.131-.158.131c-.052-.026-.289-.052-.788-.105ZM188.63 167.041c-1.998-.236-5.231-.681-10.172-1.519-9.829-1.651-15.322-3.878-15.375-3.904-.079-.026-.105-.105-.079-.183.027-.079.105-.105.184-.079.053.026 5.52 2.253 15.323 3.904 9.803 1.65 12.852 1.755 12.878 1.755.079 0 .132.079.132.157 0 .079-.079.131-.158.131 0 0-.762-.026-2.733-.262Z" fill="#9B7A56"/><path d="M185.345 167.957c-1.918-.236-4.284-.55-7.096-1.048-8.437-1.441-15.664-4.139-15.743-4.166-.079-.026-.105-.104-.079-.183.026-.078.105-.105.184-.078.079.026 7.28 2.698 15.69 4.165 8.332 1.441 12.879 1.52 12.931 1.52.079 0 .132.078.132.157 0 .078-.079.131-.158.131 0 0-2.024-.053-5.861-.498ZM185.475 169.554c-12.353-1.467-23.234-5.37-23.339-5.423-.079-.026-.105-.105-.079-.183.027-.079.105-.105.184-.079.132.053 14.245 5.109 28.543 5.842.079 0 .131.079.131.158 0 .078-.078.131-.157.131a69.43 69.43 0 0 1-5.283-.446Z" fill="#9B7A56"/><path d="M186.527 170.996c-2.05-.236-4.967-.655-8.883-1.284-12.301-1.991-15.586-4.087-15.717-4.165-.079-.053-.079-.131-.053-.21.053-.078.132-.078.21-.052.027.026 3.391 2.148 15.612 4.113 11.512 1.86 12.773 1.572 12.879 1.546a.16.16 0 0 1 .184.026.138.138 0 0 1-.027.209c-.184.158-1.445.158-4.205-.183Z" fill="#9B7A56"/><path d="M187.052 172.568c-2.024-.236-5.204-.708-10.014-1.572-9.856-1.808-15.191-4.166-15.244-4.192-.079-.026-.105-.131-.079-.183.027-.079.132-.105.184-.079.053.026 5.362 2.384 15.192 4.166 9.829 1.781 12.904 1.834 12.931 1.834.079 0 .131.052.131.157 0 .078-.052.157-.158.131 0 0-.814-.026-2.943-.262ZM188.865 174.349c-1.445-.157-4.809-.629-12.011-1.887-10.723-1.833-15.244-4.034-15.27-4.06-.079-.027-.105-.131-.079-.184.027-.078.132-.104.184-.078.053.026 4.521 2.174 15.191 4.034 10.671 1.834 12.905 1.965 12.931 1.965.079 0 .132.079.132.157 0 .079-.079.131-.158.131.026.027-.21 0-.92-.078ZM187.787 175.843c-1.498-.183-4.678-.629-11.091-1.808-10.145-1.834-14.981-4.034-15.034-4.061-.078-.026-.105-.131-.078-.183.026-.079.131-.105.184-.079.052.027 4.862 2.201 14.954 4.035 10.093 1.834 12.248 1.913 12.248 1.913.079 0 .131.078.131.157 0 .078-.078.131-.157.131 0 0-.289 0-1.157-.105ZM186.5 176.917c-1.656-.183-4.705-.602-10.224-1.493-10.303-1.651-14.587-4.035-14.639-4.061-.079-.052-.105-.131-.053-.21.053-.078.132-.104.21-.052.053.026 4.311 2.384 14.535 4.035 10.224 1.65 12.011 1.676 12.011 1.676.079 0 .158.053.131.157 0 .079-.052.158-.157.158.026-.027-.368-.053-1.814-.21Z" fill="#9B7A56"/><path d="M183.531 177.729c-1.787-.209-4.257-.55-7.622-1.048-9.987-1.519-13.877-3.903-13.929-3.903-.079-.053-.079-.131-.053-.21.053-.079.132-.079.21-.052.027.026 3.916 2.358 13.825 3.877 9.908 1.52 12.011 1.441 12.037 1.441.079 0 .158.052.158.131 0 .079-.053.157-.131.157-.079 0-.999.026-4.495-.393ZM185.239 179.564c-1.63-.183-4.521-.603-9.515-1.441-10.381-1.755-13.614-3.511-13.745-3.589-.079-.026-.106-.131-.053-.184.053-.052.131-.104.184-.052.026.026 3.364 1.808 13.667 3.537 10.198 1.729 11.512 1.624 11.564 1.624.079 0 .158.053.158.131 0 .079-.053.157-.132.157-.026 0-.367.027-2.128-.183ZM183.319 180.454a610.487 610.487 0 0 1-7.806-1.022c-10.829-1.467-12.931-3.275-13.01-3.354a.157.157 0 0 1 0-.209c.053-.053.158-.053.21 0 .027.026 2.155 1.834 12.852 3.301 10.014 1.362 11.092 1.336 11.171 1.336.052-.026.131.026.157.079.026.078 0 .157-.052.183-.132.052-1.367-.052-3.522-.314ZM181.376 181.843c-1.709-.21-3.838-.524-6.308-.944-10.461-1.781-11.617-3.065-11.67-3.117a.14.14 0 0 1 .027-.21.14.14 0 0 1 .21.026c.053.053 1.314 1.284 11.485 3.013 9.488 1.625 10.619 1.153 10.724 1.101.052-.053.105-.053.157-.027.079.027.106.105.079.184-.157.34-1.84.314-4.704-.026ZM180.613 182.864a156.077 156.077 0 0 1-5.703-.76c-4.179-.602-7.885-1.493-10.434-2.488-.053-.027-.079-.027-.105-.053a.202.202 0 0 1-.106-.052.128.128 0 0 1 0-.184c.079-.078.132-.052.316 0 2.523.996 6.203 1.861 10.355 2.463 7.28 1.048 9.357 1.1 9.357 1.1.079 0 .131.079.131.158 0 .078-.079.131-.158.131.027.052-.893 0-3.653-.315Z" fill="#9B7A56"/><path d="M149.363 204.399h-.052c-.237-.052-.368-.288-.316-.524l5.493-20.827c.053-.236.29-.367.526-.315.237.053.368.288.315.524l-5.493 20.828a.458.458 0 0 1-.473.314ZM162.427 199.682c-.237-.026-.421-.235-.368-.471l1.498-12.523c.026-.236.236-.419.473-.367.236.026.42.236.368.472l-1.498 12.523c0 .209-.237.393-.473.366ZM182.822 205.003a.445.445 0 0 1-.394-.393l-1.235-17.894a.437.437 0 0 1 .394-.471.437.437 0 0 1 .473.393l1.236 17.893a.438.438 0 0 1-.395.472h-.079ZM171.307 210.242c-.236-.026-.394-.235-.394-.471l2.102-22.269a.44.44 0 0 1 .474-.393c.236.026.394.236.394.472l-2.103 22.268a.437.437 0 0 1-.473.393Z" fill="#000"/><path d="M153.069 192.216a.453.453 0 0 1-.394-.445c0-.236.21-.419.446-.419l28.543.995c.237 0 .421.21.421.445 0 .236-.211.42-.447.42l-28.543-.996h-.026Z" fill="#000"/><path d="M172.334 196.932c-.079 0-.158-.053-.236-.105l-8.385-7.44a.421.421 0 0 1-.026-.603.423.423 0 0 1 .605-.026l8.384 7.44a.42.42 0 0 1 .026.603.632.632 0 0 1-.368.131ZM167.865 187.762c-8.936-1.048-12.747-3.615-12.905-3.746a.59.59 0 0 1-.157-.813.592.592 0 0 1 .814-.157c.027.026 3.943 2.62 12.958 3.616 9.041.969 13.036-.865 13.088-.891.289-.131.631-.026.763.262.131.288.026.629-.263.76-.184.078-4.337 1.991-13.72.995-.157.026-.368 0-.578-.026ZM125.026 147.494h-.105c-2.786.236-4.258-.996-4.521-3.773-.131-1.598.684-2.2 1.183-2.436.92-.393 2.05-.105 2.523.393.736.812.578 1.572.21 1.991a1.108 1.108 0 0 1-1.445.236c-.131-.079-.158-.236-.079-.367s.237-.157.368-.079c.289.184.578.053.762-.131.237-.262.289-.733-.21-1.283-.289-.315-1.183-.551-1.892-.262-.657.288-.947.943-.868 1.886.211 2.489 1.42 3.511 3.916 3.275.999-.079 1.866-.681 2.445-1.677.709-1.231.762-2.829.157-4.139-1.209-2.594-3.311-4.611-6.991-6.786l-1.708-.969c-1.919-1.074-3.89-2.175-5.441-3.563-1.787-1.572-2.759-3.275-2.943-5.214-.368-3.589 1.787-5.528 3.968-5.79h.027c1.524-.183 2.602.944 2.917 3.066.21 1.493-.342 2.986-1.262 3.406-.551.262-1.13.078-1.603-.446-.867-1.022-.525-1.808-.341-2.096.289-.445.814-.707 1.182-.602.263.078.395.288.395.576a.264.264 0 0 1-.526 0v-.079c-.053-.026-.289.027-.5.262-.183.21-.499.734.211 1.572.315.367.631.472.972.315.605-.288 1.157-1.441.946-2.83-.157-1.048-.657-2.803-2.312-2.62h-.027c-1.918.236-3.837 1.965-3.495 5.188.42 4.034 4.336 6.235 8.121 8.357.578.315 1.156.655 1.735.996 3.784 2.227 5.939 4.322 7.227 7.021.71 1.493.657 3.249-.157 4.637-.736 1.127-1.735 1.834-2.839 1.965Z" fill="#000"/><path d="M137.668 205.681a.313.313 0 0 1-.316-.262c-.026-.498-3.101-49.28-3.39-51.585-.631-5.371-1.998-7.65-4.678-7.86-1.104-.078-2.077.236-2.76.943-.657.682-.946 1.677-.815 2.777.289 2.384 1.998 3.59 3.496 3.432.552-.078.946-.34 1.104-.759.21-.551.052-1.31-.421-1.86-.263-.315-.92-.262-1.235 0-.237.183-.237.419 0 .733.079.131.052.288-.053.367-.131.079-.289.052-.368-.052-.473-.629-.263-1.179.105-1.468.526-.419 1.525-.471 1.998.079.604.707.788 1.677.499 2.41-.236.629-.788 1.022-1.55 1.101-.92.104-1.866-.21-2.629-.891-.788-.708-1.314-1.782-1.471-3.013-.158-1.284.184-2.41.972-3.222.788-.813 1.919-1.206 3.18-1.101 1.551.131 2.734.891 3.548 2.332.763 1.31 1.262 3.222 1.604 6.026.262 2.305 3.259 49.594 3.39 51.611.026.131-.079.236-.21.262Z" fill="#000"/><path d="M135.199 198.057c-.21.026-.446.026-.709 0-.868-.079-4.311-1.153-7.333-2.175-2.97-.995-6.387-2.253-7.123-2.724-1.445-.944-1.445-2.594-1.287-3.066.105-.314.552-.576.998-.576.5-.026.92.236 1.157.734.157.366.184.681.026.916-.237.367-.71.367-.762.367a.263.263 0 0 1-.263-.262c0-.157.131-.262.263-.262.079 0 .263-.026.315-.105.053-.078.026-.209-.052-.419-.158-.34-.421-.419-.631-.419-.289 0-.5.157-.526.236-.105.288-.105 1.65 1.078 2.436.552.367 3.364 1.441 6.991 2.673 3.548 1.205 6.518 2.096 7.201 2.148.631.079 1.13-.052 1.446-.367.289-.288.394-.707.342-1.205-.106-.943-.868-1.86-1.472-1.782-.263.027-.289.367-.289.446 0 .262.131.498.262.524.158 0 .263.131.237.288 0 .157-.131.262-.289.236-.499-.026-.762-.55-.762-1.048 0-.55.289-.943.762-.996.999-.131 1.919 1.101 2.05 2.253.079.655-.079 1.258-.473 1.651-.21.183-.578.445-1.157.498ZM117.249 195.045s1.025-1.467 1.498-1.519c.473-.053 2.129 1.074 2.129 1.074l-3.627.445ZM133.595 177.046h-.078c-.789.052-4.679-.524-7.99-1.153-2.629-.472-7.149-1.388-7.859-1.991-1.261-1.048-1.498-2.646-.893-3.406.315-.419.709-.498.972-.471.394.026.815.262 1.051.602.289.419.184 1.074-.105 1.415-.184.236-.447.288-.683.183-.132-.052-.21-.209-.158-.34.053-.131.21-.21.342-.158.026 0 .079-.052.131-.183.079-.21.079-.498 0-.629-.131-.209-.394-.366-.631-.366-.21 0-.367.078-.525.262-.447.576-.184 1.833.815 2.646.446.366 3.443 1.1 7.621 1.886 3.627.655 7.228 1.179 7.859 1.126.499-.026.946-.34 1.209-.838.315-.576.315-1.257.026-1.781-.42-.734-.92-1.232-1.314-1.232-.184 0-.315.079-.473.288-.131.184-.158.315-.131.446.078.209.368.34.446.367.132.052.211.209.158.34-.052.131-.21.21-.342.157-.052-.026-.604-.209-.762-.707-.052-.21-.079-.524.211-.917.315-.445.683-.524.946-.498.578.026 1.235.577 1.761 1.52.394.681.368 1.572 0 2.279-.395.655-.947 1.074-1.604 1.153ZM114.12 147.388c-.342.052-.578-.105-.736-.419a.301.301 0 0 1 .132-.367.303.303 0 0 1 .368.131c.052.105.078.131.184.105.21-.026.578-.184 1.103-.393l.158-.053c.342-.157.657-.524.867-1.048.395-.995.368-2.305-.078-3.222-.447-.917-1.104-1.258-1.577-1.258-.316 0-.526.131-.657.367-.263.55-.316 1.31-.106 1.756.053.104.132.209.237.235.053.027.079 0 .131-.026.158-.105.289-.498.316-.76.026-.157.157-.262.315-.235.158.026.263.157.237.314 0 .079-.132.838-.552 1.127a.685.685 0 0 1-.552.078c-.263-.078-.447-.262-.578-.55-.263-.576-.211-1.52.105-2.201.21-.419.631-.681 1.156-.681.789 0 1.603.629 2.05 1.572.5 1.048.526 2.515.079 3.642-.263.681-.657 1.152-1.156 1.336l-.184.131c-.605.236-.973.393-1.262.419Z" fill="#000"/><path d="M119.56 198.871c-.158.026-.289-.079-.289-.236l-8.936-74.011c-.027-.157.078-.288.236-.288.158-.027.289.078.289.235l8.936 74.011c.027.158-.079.289-.236.289Z" fill="#000"/><path d="M133.962 200.755c-.026 0-.052 0-.105-.026l-14.744-6.288c-.079-.026-.132-.131-.105-.236.026-.078.131-.131.21-.104l16.768 4.977c.105.027.158.131.131.236-.026.105-.131.157-.236.131l-13.746-4.087 11.854 5.056c.078.027.131.158.105.236 0 .053-.053.105-.132.105Z" fill="#000"/><path d="M128.365 203.008c-.052 0-.105 0-.157-.052l-9.147-8.698c-.078-.052-.078-.157-.026-.236.053-.078.158-.078.237-.052l12.221 7.519a.17.17 0 0 1 .053.236.173.173 0 0 1-.237.052l-10.776-6.628 7.911 7.519c.079.078.079.183 0 .262 0 .052-.026.078-.079.078Z" fill="#000"/><path d="M122.636 204.45c-.079 0-.157-.026-.184-.131l-3.416-10.113c-.027-.078 0-.183.105-.209.079-.053.184 0 .236.052l6.124 9.484a.17.17 0 1 1-.289.183l-5.335-8.278 2.97 8.75c.026.105-.027.183-.106.236-.078 0-.078 0-.105.026Z" fill="#000"/><path d="M119.796 204.789a.23.23 0 0 1-.211-.157l-.578-10.48c0-.105.079-.183.158-.183.105 0 .184.078.184.157l.578 10.479c.026.079-.053.158-.131.184ZM118.876 175.528l-3.995.498c-.132.026-.237-.052-.289-.183-.053-.131 0-.262.105-.315l1.918-1.126c.079-.026.158-.053.211-.026l2.076.655c.131.026.21.157.184.288.026.105-.079.209-.21.209Zm-2.76-.183 1.472-.183-.762-.236-.71.419Z" fill="#000"/><path d="M132.07 178.93h-.078l-15.244-4.008c-.105-.026-.158-.131-.132-.21.027-.104.105-.157.211-.131l17.556 3.197c.105.026.158.104.158.209-.026.105-.105.157-.21.157l-12.931-2.357 10.697 2.803c.105.026.157.131.131.209-.026.079-.105.131-.158.131Z" fill="#000"/><path d="M126.158 180.924c-.053 0-.079 0-.132-.026l-9.33-5.974a.17.17 0 0 1-.053-.235c.053-.079.132-.105.237-.079l12.431 5.266c.079.026.132.157.106.236-.027.078-.158.131-.237.104l-10.487-4.453 7.543 4.846c.079.053.106.158.053.236-.053.053-.079.079-.131.079Z" fill="#000"/><path d="M119.376 182.312c-.079 0-.157-.026-.184-.131l-2.549-7.362c-.026-.078 0-.157.079-.209.079-.053.157-.027.236.026l6.492 6.785c.079.079.079.184 0 .262-.079.079-.184.079-.263 0l-5.913-6.183 2.286 6.576c.027.105-.026.184-.105.236h-.079ZM121.689 155.25h-.052l-7.465-1.127c-.105-.026-.157-.105-.157-.183 0-.105.078-.157.184-.157l12.563-.027a.18.18 0 0 1 .184.184.179.179 0 0 1-.184.183l-10.251.026 5.152.786c.105.026.158.105.158.21.026.026-.053.105-.132.105Z" fill="#000"/><path d="M119.009 155.588h-.078l-3.47-1.179 1.656 1.1a.17.17 0 0 1 .053.236.172.172 0 0 1-.237.052l-2.838-1.86a.17.17 0 0 1-.053-.236c.053-.078.131-.131.21-.078l4.784 1.598c.105.026.157.131.105.236 0 .078-.053.104-.132.131ZM137.939 206.102c.605-.074 1.057-.449 1.009-.837-.048-.388-.577-.642-1.182-.567-.606.074-1.057.449-1.009.837.048.387.577.641 1.182.567ZM119.332 199.051c.591-.072 1.043-.352 1.009-.625-.034-.273-.54-.435-1.131-.363-.591.073-1.042.353-1.008.626.034.273.54.435 1.13.362ZM102.214 150.299c-1.104.131-2.234-.288-3.128-1.205-1.13-1.179-1.603-2.83-1.288-4.454.578-2.908 2.155-5.476 5.283-8.541.473-.445.946-.917 1.445-1.362 3.154-2.987 6.413-6.052 5.835-10.087-.473-3.222-2.733-4.427-4.652-4.192h-.026c-1.656.21-1.709 2.044-1.603 3.092.131 1.388.946 2.41 1.603 2.515.342.079.631-.105.867-.55.5-.97.026-1.415-.184-1.572-.263-.183-.525-.157-.552-.131v.079c.027.157-.052.288-.184.314-.131.026-.289-.053-.315-.183a.608.608 0 0 1 .236-.682c.342-.209.92-.078 1.315.289.262.235.788.916.184 2.122-.316.628-.842.943-1.446.838-.999-.183-1.892-1.493-2.05-2.987-.21-2.148.552-3.484 2.076-3.694h.027c2.181-.262 4.73 1.074 5.256 4.664.289 1.938-.236 3.825-1.577 5.79-1.183 1.702-2.812 3.248-4.415 4.768-.473.445-.973.917-1.42 1.362-3.048 2.987-4.599 5.476-5.125 8.279-.289 1.441.158 2.96 1.157 3.982.788.812 1.787 1.179 2.759 1.022 2.471-.393 3.417-1.677 3.023-4.14-.158-.943-.605-1.519-1.288-1.624-.788-.131-1.577.341-1.787.707-.342.655-.158 1.075.105 1.284a.57.57 0 0 0 .762-.052c.105-.105.263-.105.394-.026.106.104.106.262.027.393-.368.419-.999.471-1.472.131-.447-.315-.789-1.022-.289-1.965.315-.603 1.366-1.153 2.339-.97.552.079 1.472.472 1.735 2.07.446 2.751-.684 4.297-3.47 4.742-.079-.026-.105-.026-.157-.026Z" fill="#000"/><path d="M104.132 209.794c-.131.026-.263-.078-.289-.209-.368-1.991-9.015-48.573-9.304-50.878-.368-2.777-.342-4.768.079-6.235.447-1.598 1.393-2.62 2.891-3.118 1.209-.419 2.418-.288 3.364.288.946.603 1.551 1.625 1.709 2.908.157 1.232-.106 2.384-.684 3.275-.552.838-1.419 1.389-2.339 1.493-.762.105-1.393-.157-1.76-.707-.474-.655-.5-1.65-.106-2.463.315-.655 1.288-.838 1.919-.576.42.183.762.655.473 1.389-.053.131-.21.209-.342.157-.131-.053-.21-.21-.158-.341.158-.34.08-.576-.184-.707-.368-.184-1.025-.053-1.209.314-.315.655-.289 1.415.053 1.913.263.393.71.55 1.261.471 1.472-.183 2.839-1.781 2.55-4.165-.132-1.101-.657-1.991-1.472-2.515-.815-.498-1.84-.603-2.891-.236-2.55.864-3.312 3.379-2.602 8.75.29 2.279 9.199 50.354 9.304 50.852 0 .183-.105.314-.263.34Z" fill="#000"/><path d="M104.658 201.829c-.578.078-.972-.079-1.235-.236-.473-.288-.789-.812-.868-1.494-.131-1.126.474-2.567 1.446-2.672.473-.052.867.262.972.786.106.472-.026 1.048-.499 1.205-.131.053-.289-.026-.342-.183-.052-.131.027-.288.184-.341.132-.052.211-.314.132-.576-.026-.105-.105-.419-.394-.367-.605.079-1.104 1.153-.973 2.07.053.498.289.891.631 1.1.368.236.894.236 1.472.026.657-.235 3.311-1.807 6.465-3.851 3.207-2.07 5.677-3.772 6.124-4.27.946-1.048.631-2.358.447-2.62-.026-.052-.289-.157-.552-.105-.184.053-.447.157-.499.55-.027.21-.027.341.052.419.079.079.263.053.315.027a.3.3 0 0 1 .342.183.317.317 0 0 1-.184.341c-.052.026-.525.131-.815-.158-.21-.183-.289-.497-.21-.89.105-.524.447-.891.946-.97.447-.104.92.053 1.104.315.263.419.657 2.017-.499 3.275-.605.655-3.627 2.672-6.229 4.375-2.681 1.729-5.756 3.589-6.571 3.903a6.744 6.744 0 0 1-.762.158ZM101.11 181.03c-.657.078-1.288-.184-1.787-.708a2.487 2.487 0 0 1-.579-2.227c.29-1.021.763-1.729 1.314-1.886.237-.079.631-.079 1.025.262.368.314.421.629.421.838-.026.498-.526.839-.578.865-.132.079-.289.052-.368-.079-.079-.131-.053-.288.079-.366.078-.053.315-.262.341-.446 0-.131-.079-.262-.236-.393-.184-.157-.342-.209-.526-.157-.368.105-.736.707-.972 1.52-.158.576.026 1.231.446 1.729.368.419.868.602 1.367.524.631-.105 3.995-1.494 7.333-3.013 3.863-1.756 6.597-3.196 6.939-3.668.762-1.048.709-2.332.157-2.777a.61.61 0 0 0-.578-.131c-.21.052-.421.262-.526.498-.052.157 0 .419.132.602a.37.37 0 0 0 .157.131c.132-.078.29-.052.368.053.079.131.053.288-.052.366-.21.158-.473.158-.71-.026-.341-.262-.604-.864-.447-1.336.132-.393.474-.733.868-.838.263-.079.631-.105 1.051.236.762.602.946 2.174-.053 3.51-.551.76-4.73 2.725-7.148 3.825-3.075 1.389-6.702 2.908-7.465 3.039.079.053.053.053.027.053ZM112.778 147.573h-.026c-.289.026-.657-.026-1.314-.131l-.158-.026c-.526-.079-1.051-.419-1.472-1.022-.709-.995-1.025-2.41-.815-3.537.211-1.021.841-1.834 1.604-2.017.499-.131.972.026 1.287.393.5.603.763 1.493.658 2.122-.053.315-.211.55-.447.655-.184.105-.368.105-.579.053-.499-.184-.788-.891-.814-.97a.25.25 0 0 1 .157-.34c.132-.053.29 0 .342.157.105.236.315.602.499.655.027 0 .079.026.132-.026.105-.053.158-.184.158-.289.078-.471-.158-1.205-.526-1.676-.184-.21-.421-.289-.736-.21-.447.105-1.025.603-1.209 1.598-.184.996.105 2.279.71 3.144.341.472.709.734 1.104.812l.157.026c.578.079.973.131 1.183.131.131 0 .131-.026.158-.157.026-.157.157-.236.315-.209.158.026.237.157.21.314-.026.314-.236.498-.578.55ZM106.524 204.135c-.053 0-.131-.026-.158-.078a.202.202 0 0 1 .027-.262l10.25-7.781-12.353 7.309a.173.173 0 0 1-.237-.052.17.17 0 0 1 .053-.236l15.034-8.908a.171.171 0 0 1 .236.053c.053.078.026.183-.052.236l-12.721 9.667c-.026.026-.053.052-.079.052Z" fill="#000"/><path d="M112.516 204.949c-.053 0-.079 0-.105-.026a.171.171 0 0 1-.053-.236l5.835-9.196-8.857 9.039c-.079.078-.184.078-.263 0-.079-.079-.079-.184 0-.262l10.04-10.27c.053-.079.158-.079.237-.026.078.052.078.157.052.235l-6.755 10.663a.143.143 0 0 1-.131.079Z" fill="#000"/><path d="M118.404 204.948h-.026c-.105 0-.184-.105-.158-.184l.736-9.196-3.18 9.301c-.026.105-.131.131-.237.105-.105-.026-.131-.131-.105-.236l3.627-10.689c.027-.079.105-.131.211-.131.078.026.157.105.131.183l-.867 10.637c.026.131-.053.21-.132.21ZM103.055 182.522a.24.24 0 0 1-.184-.078c-.053-.079-.026-.184.079-.236l9.672-5.318-11.959 5.397c-.079.052-.21 0-.236-.079-.053-.079 0-.21.079-.236l16.242-7.362c.079-.052.184 0 .237.079.052.079 0 .183-.079.236l-13.799 7.571s-.026 0-.052.026Z" fill="#000"/><path d="M109.283 183.02c-.053 0-.106 0-.158-.052-.079-.079-.079-.184 0-.262l6.15-6.524-9.094 6.864a.202.202 0 0 1-.263-.026.202.202 0 0 1 .027-.262l10.776-8.121c.078-.053.184-.053.236.026.053.078.053.183 0 .236l-7.596 8.069c0 .026-.026.026-.078.052Z" fill="#000"/><path d="M116.197 182.707h-.026c-.105 0-.184-.105-.157-.183l.604-6.943-4.231 7.44a.213.213 0 0 1-.237.079c-.079-.052-.105-.157-.079-.236l4.652-8.148c.053-.078.132-.104.21-.078a.197.197 0 0 1 .132.183l-.684 7.755c-.026.052-.105.105-.184.131ZM107.338 157.004c-.078 0-.157-.026-.184-.104a.193.193 0 0 1 .106-.236l4.809-2.018-9.935 2.437c-.105.026-.184-.026-.21-.131-.026-.105.026-.183.132-.21l12.195-3.013c.079-.026.184.027.21.105.026.079-.026.184-.105.21l-6.965 2.908c-.026.052-.026.052-.053.052Z" fill="#000"/><path d="M110.019 156.691a.243.243 0 0 1-.184-.079.171.171 0 0 1 .053-.236l4.258-2.724a.193.193 0 0 1 .236.026c.053.078.053.183 0 .236l-2.286 2.488c-.079.079-.184.079-.263 0-.079-.078-.079-.183 0-.262l1.34-1.467-3.075 1.965c-.026.026-.052.053-.079.053ZM103.958 210.292c.605-.074 1.056-.449 1.008-.837-.048-.388-.577-.642-1.182-.567-.605.074-1.057.449-1.009.837.048.387.577.641 1.183.567Z" fill="#000"/><path d="M117.352 156.034c-2.576.314-4.994.524-7.044.629-5.519.34-9.567.209-9.593.209-.158 0-.263-.131-.263-.288 0-.157.132-.262.289-.262.053 0 4.074.131 9.567-.209 5.073-.315 12.458-1.074 18.897-2.987.132-.052.289.026.342.183.052.131-.026.289-.184.341-3.89 1.153-8.121 1.912-12.011 2.384ZM118.903 182.471l-1.367.157c-10.434.97-18.161-.314-18.24-.34-.158-.027-.237-.158-.21-.315.026-.157.157-.235.315-.209.079.026 7.727 1.31 18.082.34 10.356-.969 18.135-5.187 18.214-5.239.131-.079.289-.027.368.104.079.131.026.289-.105.367-.026 0-1.998 1.1-5.257 2.279-2.733.996-6.912 2.254-11.8 2.856ZM120.688 204.764c-6.702.812-11.144.393-13.667-.131-2.786-.576-3.942-1.336-3.995-1.362-.131-.079-.158-.262-.079-.367a.264.264 0 0 1 .368-.079s1.157.76 3.837 1.284c2.497.498 6.834.917 13.431.105 6.597-.812 10.697-2.41 12.983-3.589 2.471-1.284 3.391-2.385 3.391-2.411.105-.104.263-.131.368-.052.105.105.131.262.052.367-.026.052-.972 1.179-3.522 2.515-2.286 1.283-6.465 2.908-13.167 3.72Z" fill="#000"/><g opacity=".6"><path d="M148.208 207.338c5.37 0 9.724-1.455 9.724-3.249s-4.354-3.249-9.724-3.249c-5.371 0-9.725 1.455-9.725 3.249s4.354 3.249 9.725 3.249Z" fill="#8CA9D0"/><path d="M162.874 172.598h-29.305s-5.23 6.576-4.337 16.662c.973 11.134 8.989 13.387 9.698 14.593.263.471 6.308 1.414 9.252 1.414h.105c2.917 0 8.962-.943 9.251-1.414.71-1.206 8.726-3.459 9.699-14.593.841-10.086-4.363-16.662-4.363-16.662Zm2.996 16.4c-.815 9.929-9.751 14.619-17.557 14.75-7.806.131-16.794-4.113-17.635-14.043-.263-3.143.657-8.462.657-8.462l33.93-.183c.027 0 .868 4.742.605 7.938Z" fill="#fff"/></g><path opacity=".5" d="M131.361 181.269s-.92 5.292-.658 8.462c.815 9.929 9.804 14.173 17.636 14.042 7.806-.131 16.742-4.82 17.557-14.749.263-3.197-.605-7.939-.605-7.939l-33.93.184Z" fill="#4A90A8"/><path d="M132.542 194.499c-.184-.891 1.971-2.253 3.864-2.253 1.971 0 1.55 1.808 3.364 1.808 1.892 0 2.786-.813 4.652-.839 2.129-.052 1.919 2.175 3.469 2.175 1.735 0 1.971-2.725 4.915-2.699 2.655.026 2.076 3.196 3.837 3.196 1.814 0 .815-5.318 3.207-5.292 2.47.053 4.074 2.987 3.758 4.271-.447 1.807-5.361 8.331-15.323 8.462-9.382.078-15.217-6.262-15.743-8.829Z" fill="#DBAC73"/><path d="M139.666 187.872a.76.76 0 1 0 0-1.52.76.76 0 1 0 0 1.52ZM140.851 189.627a.42.42 0 1 0 0-.84.42.42 0 0 0 0 .84ZM133.675 183.81c.334 0 .605-.27.605-.602a.604.604 0 0 0-1.209 0c0 .332.27.602.604.602ZM155.541 187.32a.682.682 0 1 0 0-1.362.682.682 0 0 0-.684.681c0 .376.306.681.684.681ZM156.672 185.776a.393.393 0 1 0 .001-.787.393.393 0 0 0-.001.787ZM164.292 184.701a.498.498 0 1 0 .001-.997.498.498 0 0 0-.001.997Z" fill="#fff"/><path d="M158.326 183.521c.105-.288.736.577 1.051.943.289.367 1.341-.235 1.341.079-.027.341-.946.812-.868 1.205.079.393 1.341-.236 1.367.105.026.34-1.261 1.179-1.156 1.336.105.131 1.235-.314 1.182-.105-.052.21-.92.498-.788.917.131.393 1.025-.288 1.104.184.079.497-.631.471-.473.733.157.262.683-.236.709 0 .027.236-.552.445-.289.707.289.262 1.157-.707 1.183-.104.026.602-.368.55-.631.864-.236.315-.315.524.079.655s.815.393.578.498c-.236.105-.815.236-.893.603-.106.366.893.681.709.916-.184.236-.762-.052-.815.262-.052.315.658.524.5.734-.158.21-.92-.131-.973.131-.052.288.684.655.552.865-.131.183-.841-.341-.998.026-.158.367.683.498.604.602-.079.105-.71-.235-.788.027-.079.262.578.393.525.55-.052.157-.709-.131-.815.026-.105.183.395.629.237.917-.184.262-1.13 0-1.104.288.026.314.762.445.631.576-.131.131-1.104.079-1.078.341.053.262.5.393.421.55-.053.157-.789-.131-.815.131-.026.262-.263 1.231-.263 1.231s0-1.178.079-1.388c.053-.236-.42-.786-.342-.943.079-.157.658.393.71.209.053-.183-.42-.34-.263-.628.132-.289.605-.131.631-.289.026-.157-.473-.576-.368-.786.105-.209.841.367.894.262.052-.131-.421-.602-.316-.785.105-.184.421.104.473.052.079-.052-.841-.603-.604-.996.236-.393.841.603.972.42.105-.184-.341-.603-.236-.76.105-.184.499.34.578.131.079-.184-.184-1.127-.053-1.258.132-.131.631.446.789-.052.158-.498-.946-.917-.841-1.258.105-.34.893.053.972-.235.105-.315-.762-.76-.709-.891.052-.105.972.34.893-.105-.079-.445-.709-.419-.736-.576-.026-.158.552-.236.5-.393-.053-.131-.762-.079-.894-.393-.131-.315.21-.341.105-.524-.105-.184-1.077.393-1.156.052-.079-.341.893-.681.762-1.048s-1.472.367-1.445.026c.026-.34 1.13-.602.972-1.021-.158-.42-1.078.209-1.156-.027-.079-.262.814-.393.683-.707-.132-.314-.946.236-.894-.21.079-.445 1.13-.445 1.052-.707-.079-.262-.368-.131-.368-.314 0-.184.262-.105.289-.288-.027-.21-1.183-.865-.999-1.363Z" fill="#7EA21A"/><path d="M146.237 200.733c.289-.34 1.025-.733 2.05-.366 1.025.366 1.998.733 1.866 1.047-.131.341-1.997.76-2.707.682-.683-.053-1.866-.603-1.209-1.363ZM149.706 199.975c0-.446 1.393-.079 1.419.236.026.288-1.419.498-1.419-.236ZM151.81 202.123c-.105-.183 1.209-.917 1.524-.445.289.445-1.078 1.284-1.524.445ZM140.927 200.498c0-.262 2.077.629 1.709.943-.368.341-1.682.026-1.709-.943ZM146.762 202.724c-.106-.21 1.34-.393 1.419-.131.079.262-1.104.761-1.419.131ZM146.054 199.583c-.184-.289.762-.656.867-.341.079.341-.683.629-.867.341ZM156.065 200.838c-.263-.288 1.314-1.389 1.472-1.048.184.314-.946 1.624-1.472 1.048ZM156.644 199.424c-.027.236 1.051 0 1.077-.262.026-.262-.999-.367-1.077.262Z" fill="#A5713D"/><path d="M144.689 190.677c-.158-1.362-2.602-2.096-2.602-2.934 0-1.1 1.182-.969 1.655-2.41.474-1.441-1.366-2.384-1.366-2.384.788.89.657 1.231.052 1.912.316.184.684.472.447.786-.236.315-.788.21-1.183.053-.026 0-.026 0-.052-.027-.158.184-.342.367-.526.577-1.025 1.231 1.551 2.384 1.551 4.244 0 2.436-2.103 5.659-2.103 5.659h3.864s-.868-1.074-.868-2.122c0-1.074 1.341-1.336 1.131-3.354Zm-1.577 1.101c.026-.42.315-.97.814-.97.184 0 .263.105.29.236-.053.472-.421 1.127-.789 1.153-.21 0-.289-.184-.315-.419Z" fill="#4E5E0A"/><path d="M148.316 190.205c-.052-.707.762-1.205.578-1.86-.184-.681-2.286-.969-2.391-1.624-.132-.917.315-1.441.315-1.441s-2.129 1.179-2.129 2.043c0 1.101.973 1.336 1.025 2.62.053 1.284-1.813 3.013-1.682 3.878.131.864 1.104 2.436 1.104 2.436h3.811s-1.235-1.467-1.025-2.148c.184-.681 1.945-1.52 1.997-2.332.079-.786-1.524-.838-1.603-1.572Zm0 1.31a.563.563 0 0 1 .263.393c-.026.445-.867.969-1.603 1.231-.763.262-.92.289-.92.053 0-.079 0-.184.026-.288.053-.551 1.288-1.992 2.234-1.389Zm-2.26-3.432c-.053-.21.21-.288.525-.236.342.079.763.288.815.603.132.629-.447 1.231-.841 1.205-.394-.052-.263-.76-.526-1.52.027-.026.027-.052.027-.052ZM136.646 192.041v-.104c-.079-.917.762-1.284 1.235-1.86.395-.498.106-.839-.473-1.415-.236.052-.473.052-.63-.079-.184-.157-.079-.367.078-.55-.394-.681 0-1.31 0-1.31-2.076 1.677.132 2.332.395 3.013.262.681-.894.917-1.682 2.043-.763 1.153.052 1.572.578 2.28.525.707.263 2.2.263 2.2h2.339c-.053-1.702-1.893-2.777-2.103-4.218Zm-1.025.42c-.052-.131-.026-.262.105-.341.316-.131.605.105.736.393.079.21.105.393.053.498-.158.236-.684-.184-.894-.55Z" fill="#4E5E0A"/><path d="M149.235 195.837c-.262-.34-1.156-.943-1.866-.707-1.55.524-1.866.288-2.864.576-.053-.052-.079-.105-.105-.157-.263-.524-1.236-1.624-1.683-2.201-.446-.576-1.314-.917-1.603-.576-.578.655-.893 1.467-1.077 2.148a2.9 2.9 0 0 0-.289-.157c-.658-.288-1.604-.419-2.392-.393-.762.052-1.367.707-1.472 1.1-.105.393 0 1.048.841.996.683-.026 2.339 0 3.312-.131.315.183 1.761.131 3.574.079 0 .078.053.131.131.131.263 0 5.231-.053 5.493-.105.237.026.237-.262 0-.603Z" fill="#DBAC73"/><path d="M149.206 182.237s1.262-.105 1.787.707c.526.812.973 2.122.973 2.122l-3.443 1.494s-.053-.341-.237-.289c-.184.053-1.156.367-1.156.367s-.079-.838.762-1.86c.841-1.022 1.025-.943 1.314-1.257.316-.341 0-1.284 0-1.284ZM147.84 186.795l.552 1.232s-.236.131-.42.602c-.158.472-.316 1.965-1.209 2.856-.894.891-2.129 1.048-2.997.838-.867-.209-1.077-.524-1.077-.524s2.365-1.205 2.234-1.807c-.132-.603-.394-1.205-1.498-1.546-1.104-.341-2.234-1.179-2.234-1.179s.736-.157 2.654-.105c1.919.053 3.548.184 3.995-.367Z" fill="#FFA300"/><path d="M149.207 188.212s.053.471-.184 1.284c-.236.838-.709 1.807-.998 1.729-.289-.079.184-1.494.131-1.808-.052-.314-.21-.472-.026-.681.184-.21.788-.76.788-.76l.289.236ZM151.993 188.497s.158.655-.21 1.493c-.342.839-1.682 1.913-1.866 1.86-.184-.052.473-1.1.368-1.414-.105-.315-.605-.97-.211-1.363.342-.393 1.919-.576 1.919-.576ZM153.543 188.394s-.237.471-.158.733c.079.262.578.812.184 1.153 0 0-.289-.603-.5-.681-.21-.053-.315-.079-.262-.446.052-.366.368-.759.368-.759h.368Z" fill="#FFA300"/><path d="M147.92 187.609c-.052-.262-.473-.315-.394-.524.079-.21 1.709-1.677 3.18-2.07 1.472-.393 3.601.184 4.468.577.868.393 1.367.812 1.315 1.074-.027.262 0 .524-.658.969-.657.445-3.206 1.415-4.336 1.362-1.157-.078-3.469-.733-3.575-.864-.105-.157.079-.21 0-.524Z" fill="#FF6D00"/><path d="M154.936 186.457c.072 0 .131-.117.131-.262 0-.145-.059-.262-.131-.262-.073 0-.132.117-.132.262 0 .145.059.262.132.262Z" fill="#000"/><path d="M67.94 267.251h156.249V203.3H80.713c-5.703 0-10.329 4.611-10.329 10.296l-2.444 53.655Z" fill="#0C96FD"/><path d="M75.428 215.432s-6.886.209-9.015 4.951c-2.13 4.742-2.34 11.528-.71 13.545 1.63 2.017 6.597 2.017 6.597 2.017l3.128-20.513Z" fill="#7D009B"/><path d="M74.615 237.439c.552 1.965-5.467 2.725-5.467 2.725l.132-2.725s4.836-1.808 5.335 0Z" fill="#F1F3F2"/><path d="m230.864 180.457-34.693-.628v87.398h136.091c.131-.419 5.388-30.076 4.967-34.477-.42-4.428-10.355-12.68-24.81-16.243-14.456-3.563-40.265-9.275-41.132-9.537-.868-.288-40.423-26.513-40.423-26.513Z" fill="#0C96FD"/><path d="M69.176 245.719c-.289 3.563 2.76 21.509 2.76 21.509H332.29c.105-.367 2.734-14.383 3.732-23.841 0 0-34.719-13.728-54.194-14.802-19.476-1.074-47.046 9.641-66.968 8.305-19.922-1.336-45.469-12.68-67.993-12.68-22.524 0-77.69 21.509-77.69 21.509Z" fill="#1D7DCC"/><path d="m250.998 269.033 81.844-1.101s2.26-1.991 3.679-7.545c1.42-5.554-.946-12.68-.946-12.68s-1.761 3.118-8.988 4.401c-7.228 1.284-34.168.577-34.168.577l-22.97 11.265-19.686-.471 1.235 5.554ZM257.227 203.828l-25.652-18.522-30.093-.603.736 17.344 55.009 1.781Z" fill="#2D2D2D"/><path d="M277.938 244.721h-.263v-24.05l-20.527-16.741.158-.21 20.632 16.846v24.155Z" fill="#024168"/><path d="M253.417 202.255c-.053-1.31-2.129-4.821-5.046-4.821-2.918-.026-2.918 8.541-.92 9.117 1.997.577 6.097-1.31 5.966-4.296Z" fill="#F1F3F2"/><path d="M197.961 267.226h-.263v-37.935l4.258-27.273.263.052-4.258 27.247v37.909Z" fill="#024168"/><path d="M315.18 217.267s8.858 5.789 9.988 8.933c1.13 3.144 2.549 5.974 3.259 6.131.709.157 8.804.419 8.804.419s.894-6.943-.262-7.755c-1.157-.786-18.451-9.405-21.789-7.728Z" fill="#F1F3F2"/><path d="M317.283 240.451h8.568c.263 0 .499-.21.499-.498v-3.301a.498.498 0 0 0-.499-.498h-8.568c-.263 0-.5.21-.5.498v3.301c.027.262.237.498.5.498Z" fill="#878FB3"/><path d="M217.831 218.76c0 4.087 12.773 4.087 12.773.315 0-4.559-12.773-3.93-12.773-.315Z" fill="#1D7DCC"/><path d="M212.417 220.622h13.825c.21 0 .394-.184.394-.393v-2.62a.403.403 0 0 0-.394-.393h-13.825a.403.403 0 0 0-.394.393v2.62c0 .209.184.393.394.393Z" fill="#878FB3"/><path d="M202.796 184.703h-1.314v16.898h1.314v-16.898ZM250.078 267.646a28.452 28.452 0 0 1-.5-5.214c0-15.641 12.721-28.321 28.412-28.321 15.69 0 28.437 12.68 28.437 28.321a28.54 28.54 0 0 1-.499 5.214h-55.85Z" fill="#024168"/><path d="M278.017 283.389c13.252 0 23.996-10.709 23.996-23.919 0-13.211-10.744-23.92-23.996-23.92-13.253 0-23.996 10.709-23.996 23.92 0 13.21 10.743 23.919 23.996 23.919Z" fill="#000"/><path d="M278.017 275.555c8.913 0 16.138-7.202 16.138-16.086 0-8.884-7.225-16.086-16.138-16.086-8.912 0-16.137 7.202-16.137 16.086 0 8.884 7.225 16.086 16.137 16.086Z" fill="#606060"/><path d="M278.015 270.709c6.228 0 11.276-5.032 11.276-11.239 0-6.208-5.048-11.24-11.276-11.24-6.227 0-11.275 5.032-11.275 11.24 0 6.207 5.048 11.239 11.275 11.239Z" fill="#000"/><path d="M291.683 268.169a16.143 16.143 0 0 1-2.234 2.804 19.2 19.2 0 0 1-2.576 2.096l-22.313-22.348a14.946 14.946 0 0 1 2.102-2.567 16.152 16.152 0 0 1 2.812-2.227l22.209 22.242Z" fill="#A8A9AD"/><path d="M287.058 246.109a16.268 16.268 0 0 1 2.786 2.279 15.84 15.84 0 0 1 2.05 2.594l-22.708 21.902a16.137 16.137 0 0 1-2.549-2.122 14.977 14.977 0 0 1-2.182-2.856l22.603-21.797Z" fill="#A8A9AD"/><path d="M98.348 256.328H77.663v-7.886H66.1s-.5 3.223-3.942 3.93c-.5 7.179-.053 14.855 5.782 14.855h29.174l1.235-10.899Z" fill="#2D2D2D"/><path d="M95.008 267.646a28.504 28.504 0 0 1-.5-5.214c0-15.641 12.721-28.321 28.412-28.321 15.691 0 28.438 12.68 28.438 28.321 0 1.782-.184 3.511-.5 5.214h-55.85Z" fill="#024168"/><path d="M122.947 283.389c13.252 0 23.996-10.709 23.996-23.919 0-13.211-10.744-23.92-23.996-23.92-13.253 0-23.996 10.709-23.996 23.92 0 13.21 10.743 23.919 23.996 23.919Z" fill="#000"/><path d="M122.947 275.555c8.913 0 16.138-7.202 16.138-16.086 0-8.884-7.225-16.086-16.138-16.086-8.912 0-16.137 7.202-16.137 16.086 0 8.884 7.225 16.086 16.137 16.086Z" fill="#606060"/><path d="M122.946 270.709c6.227 0 11.275-5.032 11.275-11.239 0-6.208-5.048-11.24-11.275-11.24-6.228 0-11.276 5.032-11.276 11.24 0 6.207 5.048 11.239 11.276 11.239Z" fill="#000"/><path d="M136.613 268.169a16.049 16.049 0 0 1-2.234 2.804 19.192 19.192 0 0 1-2.575 2.096l-22.314-22.348a14.993 14.993 0 0 1 2.102-2.567 16.159 16.159 0 0 1 2.813-2.227l22.208 22.242Z" fill="#A8A9AD"/><path d="M131.988 246.109a16.268 16.268 0 0 1 2.786 2.279 15.84 15.84 0 0 1 2.05 2.594l-22.708 21.902a16.137 16.137 0 0 1-2.549-2.122 15.018 15.018 0 0 1-2.182-2.856l22.603-21.797Z" fill="#A8A9AD"/><path d="M220.986 176.472s-3.68-1.493-6.965 1.546c-2.208 2.043-1.498 7.702-.21 9.431 1.261 1.729 6.15 4.454 6.15 4.454s13.798-14.409 1.025-15.431Z" fill="#A5713D"/><path d="M222.798 195.1c-2.208.393-4.783 1.074-5.992 2.201-1.472 1.362-.71 5.344 6.649 4.349 7.359-.996 6.518-4.349 5.598-5.214-1.34-1.257-4.547-1.624-6.255-1.336Z" fill="#F69576"/><path d="m224.823 190.044 3.075 8.855-8.621 1.546s-.236-3.694-.184-6.131c.053-2.436.342-3.301.342-3.301l5.388-.969Z" fill="#F69576"/><path d="M221.51 193.188s.237 1.703 1.472 2.227c1.262.524 3.732.104 3.732.104l-1.919-5.475-3.627.655s0 1.467.342 2.489Z" fill="#DD866F"/><path d="M224.035 178.751s1.262.708 2.103 2.594c.631 1.467.867 3.118 1.209 4.008.368.891.946 2.306.893 3.616-.052 1.31-.841 3.275-2.864 4.27-1.998.969-3.811.865-5.257-.393-1.419-1.257-3.364-3.615-4.126-5.371-.762-1.755-1.63-5.161.052-7.021 2.182-2.384 5.152-2.96 7.99-1.703Z" fill="#F69576"/><path d="M222.062 189.729s.421 1.205 1.209 1.336c.789.131 1.499-.183 1.761-.655.263-.471.29-1.284.29-1.284l-3.26.603Z" fill="#fff"/><path d="M223.613 188.026c-.053 0-.106 0-.158-.027-.105-.052-.132-.183-.158-.288v-.052a.728.728 0 0 0-.105.131c-.052.078-.131.131-.21.105-.105 0-.21-.105-.289-.262-.105-.236.052-.708.079-.76 0-.026.052-.052.105-.052.026.026.052.052.052.104-.052.131-.157.498-.079.655.053.105.106.157.158.157.053 0 .053-.026.079-.052a.522.522 0 0 1 .21-.21c.026 0 .079.001.105.053.027.026.027.078.053.131.026.052.026.157.079.183h.105c.105-.026.105-.105.052-.262-.026-.078-.026-.131 0-.183.027-.026.053-.026.079-.026.053 0 .105.026.158.052.105.053.131.053.184 0 .026-.026.026-.078 0-.157-.053-.21-.237-.472-.368-.524-.026-.026-.053-.052-.026-.105.026-.026.052-.052.105-.026.158.079.368.393.447.629.026.131.026.209-.027.288-.131.183-.289.105-.368.052 0 0-.026 0-.026-.026v.026c.026.131.079.367-.158.446h-.078Z" fill="#6B3425"/><path d="M212.548 186.742c.368-1.729 5.388-1.127 5.047 2.017-.342 3.196-5.572.524-5.047-2.017Z" fill="#F69576"/><path d="M216.779 189.283h-.053c-.026-.026-.053-.078-.026-.105.157-.235.079-.943-.289-1.545-.263-.446-.841-1.153-1.893-1.101-.552.027-.946.184-1.104.472-.262.419 0 .996 0 .996.027.026 0 .078-.026.104-.026.027-.079 0-.105-.026 0-.026-.289-.655 0-1.153.21-.34.605-.524 1.235-.55.815-.052 1.577.393 2.024 1.179.368.629.499 1.363.289 1.703-.026 0-.052.026-.052.026Z" fill="#6B3425"/><path d="M215.019 189.309c-.026 0-.052 0-.079-.027-.026-.052-.814-1.257-.289-2.881 0-.027.053-.053.079-.053.026 0 .053.053.053.079-.5 1.545.262 2.724.262 2.751.027.026 0 .078-.026.104v.027ZM221.082 187.052c.142-.025.216-.277.164-.562-.051-.285-.209-.495-.352-.469-.143.026-.217.278-.165.562.052.285.21.495.353.469ZM219.515 185.378c.184-.209.552-.498.973-.629.473-.131.788.027.972.053.184.026.184-.262.026-.446-.131-.209-.578-.288-1.235-.157-.657.131-.946.498-1.104.734-.105.183.132.733.368.445ZM225.076 186.188c.143-.026.217-.278.165-.563-.052-.284-.21-.494-.352-.469-.143.026-.217.278-.165.563.051.284.209.494.352.469ZM223.743 184.409c.184-.209.552-.497.973-.628.473-.131.788.026.972.052.21.026.184-.262.026-.445-.131-.21-.578-.288-1.235-.157-.657.131-.946.497-1.104.733-.157.236.132.734.368.445ZM226.611 190.489l-.316.131s-.42 1.362-.893 1.703c-.473.34-2.234.576-2.471.445-.21-.131-1.077-1.415-1.077-1.415l-.395.184s.973 1.886 1.104 2.043c.079.105 1.367.681 1.84.629.447-.052 1.866-1.179 1.892-1.362.132-.603.316-2.358.316-2.358Z" fill="#6B3425"/><path d="m224.742 191.614-.762.105.21 1.362.631.027-.079-1.494Z" fill="#6B3425"/><path d="M215.255 178.384s2.418 2.935 7.49 2.306c10.592-1.284 4.731-6.288 4.731-6.288s.657 1.493-1.13 1.886c-2.444.603-7.386-6.235-11.091 2.096Z" fill="#A5713D"/></svg>