<svg width="374" height="308" fill="none" xmlns="http://www.w3.org/2000/svg"><path d="M169.782 54.122c18.138 3.438 52.314-66.75 90.139-51.264 37.824 15.487 10.027 65.386 23.519 76.568 13.492 11.182 50.45-23.23 65.989 12.914 15.54 36.145-8.084 74.862-8.426 80.873-.341 6.011 42.602 38.323 30.685 82.815-11.917 44.492-170.171 48.796-226.658 50.502-56.488 1.707-132.006 1.575-143.135-44.806-11.13-46.382 39.426-86.779 44.098-99.746 4.672-12.967-37.615-58.088 15.408-113.552 41.027-42.917 90.243 2.257 108.381 5.696Z" fill="#417A8C"/><path d="M1.948 261.698c11.13 46.382 86.673 46.539 143.134 44.807 56.462-1.733 214.716-6.011 226.659-50.503 8.111-30.265-9.161-54.913-20.947-69.455H27.435c-15.066 19.11-32.522 45.936-25.487 75.151Z" fill="#939393"/><path d="M12.812 207.6c-9.24 15.881-15.618 34.465-10.893 54.099 11.13 46.381 86.674 46.539 143.135 44.807 56.461-1.733 214.715-6.011 226.658-50.503 4.988-18.611.368-35.095-6.641-48.403H12.812Z" fill="#3D3B38"/><path d="M146.577 230.778H126.89v3.963h19.687v-3.963ZM217.184 230.778h-19.686v3.963h19.686v-3.963ZM193.564 230.778h-19.687v3.963h19.687v-3.963ZM122.952 230.778h-19.687v3.963h19.687v-3.963ZM99.331 230.778H82.27v3.963h17.062v-3.963ZM78.331 230.778H58.644v3.963h19.687v-3.963ZM54.706 230.778H35.02v3.963h19.687v-3.963ZM169.939 230.778h-19.424v3.963h19.424v-3.963ZM354.468 230.778h-19.687v3.963h19.687v-3.963ZM31.082 230.777H7.064v3.964h24.018v-3.964ZM330.843 230.778h-19.687v3.963h19.687v-3.963ZM362.974 230.778h-4.568v3.963h4.568v-3.963ZM285.434 230.778h-19.687v3.963h19.687v-3.963ZM261.809 230.778h-19.687v3.963h19.687v-3.963ZM238.184 230.778h-17.061v3.963h17.061v-3.963ZM307.221 230.778h-17.849v3.963h17.849v-3.963ZM92.188 169.485c1.706.473 2.887 2.231 6.956 1.785 4.068-.446 11.89-4.987 12.678-6.693.787-1.706.735-3.544 0-4.069-.735-.525-2.573-1.522-2.835-2.362-.263-.84-3.097-8.006-4.594-11.104-1.496-3.097-5.066-5.381-7.166-5.249-2.1.131-4.462 1.968-6.037 2.887-1.575.919-5.643 2.31-7.822 2.835-2.179.525-6.378 3.544-7.822 5.066-1.444 1.522-3.281 4.331-2.494 6.562.788 2.231 1.706 5.46 4.331 6.3 2.625.84 4.016.735 4.673 1.26.656.525 2.572 2.756 5.512 2.835 2.94.078 3.753-.289 4.62-.053Z" fill="#fff"/><path d="M98.409 155.494s-1.182 3.36-.657 5.118c.525 1.759 1.26 4.41.657 6.247-.604 1.838-4.725 5.381-4.725 5.381l-.525-1.312s4.278-2.887 4.593-4.279c.315-1.391 0-3.412-.472-5.853-.473-2.441 1.129-5.302 1.129-5.302Z" fill="#6B3425"/><path d="m93.159 155.888 1.444 35.383s-2.704.132-2.704 0c0-.131 1.26-35.383 1.26-35.383Z" fill="#6B3425"/><path d="M90.142 153.133s.525 7.56.998 8.4c.472.84 2.047 3.36 2.047 3.36l-.367 1.365s-1.68-2.284-2.336-4.515c-.656-2.231-.341-8.61-.341-8.61ZM86.202 160.168s.657 3.228 2.179 5.643c1.522 2.415 4.882 8.137 4.882 8.137l-.105 2.1s-3.674-7.087-4.672-8.793c-.998-1.706-2.546-4.147-2.284-7.087Z" fill="#6B3425"/><path d="m283.173 150.77 9.581-1.076c2.887-7.823 4.882-14.647 4.672-16.38-.578-4.567-14.962-25.487-20.159-29.661-5.224-4.173-8.347-3.675-12.993 1.785-1.654 1.969-4.2 5.512-6.773 9.292l8.505 8.085-10.08-5.775c-3.963 5.985-7.638 11.733-7.638 11.733s2.73 10.395 7.402 20.238c4.594-.184 10.92-.446 10.92-.446l-9.004 4.252c.368.656.735 1.339 1.103 1.969 6.483 11.024 13.439 22.311 18.532 23.204 2.966.525 8.74-11.103 13.36-22.653l-7.428-4.567Z" fill="#fff"/><path d="M291.652 128.274s-6.484 3.412-10.316 7.087c-3.832 3.675-5.092 7.35-5.092 7.35v1.916s4.278-8.374 15.408-16.353ZM256.398 136.464s8.925 3.727 14.148 8.19c5.224 4.436 6.851 7.743 6.851 7.743v3.019c0-.027-7.77-12.442-20.999-18.952Z" fill="#6B3425"/><path d="M273.669 118.641s2.887 13.571 4.41 28.9c1.496 15.33 1.155 56.278 1.155 56.278h-3.938s-.525-77.959-1.627-85.178Z" fill="#6B3425"/><path d="M168.626 80.45a3.491 3.491 0 1 0 0-6.982 3.491 3.491 0 0 0 0 6.982ZM236.716 94.282a1.733 1.733 0 1 0 0-3.465 1.733 1.733 0 0 0 0 3.465ZM214.167 40.683a2.782 2.782 0 1 0-.001-5.565 2.782 2.782 0 0 0 .001 5.565ZM204.534 61.577a1.39 1.39 0 1 0 0-2.781 1.39 1.39 0 0 0 0 2.78ZM280.419 111.922a3.491 3.491 0 1 0 0-6.982 3.491 3.491 0 0 0 0 6.982ZM250.654 25.013a1.732 1.732 0 1 0 0-3.464 1.732 1.732 0 0 0 0 3.464ZM131.25 119.509a2.783 2.783 0 1 0 0-5.566 2.783 2.783 0 0 0 0 5.566ZM226.844 48.715a1.39 1.39 0 1 0 0-2.782 1.39 1.39 0 0 0 0 2.782ZM48.379 182.847h-.656v14.804h.656v-14.804Z" fill="#fff"/><path d="M61.455 178.097H36.624v6.274h24.83v-6.274Z" fill="#512176"/><path d="M60.797 178.752H37.252v4.751h23.545v-4.751Z" fill="#fff"/><path d="m56.285 178.385-15.513 5.959h1.863l15.723-5.959h-2.073Z" fill="#512176"/><path d="M320.186 176.546h-.814v18.794h.814v-18.794Z" fill="#fff"/><path d="M336.772 170.509h-31.551v7.953h31.551v-7.953Z" fill="#512176"/><path d="M335.959 171.349h-29.924v6.011h29.924v-6.011Z" fill="#fff"/><path d="m133.819 182.53-70.452 3.15-13.78-14.962 10.236-16.93 73.996 5.118v23.624Z" fill="#6B3425"/><path d="M129.879 153.788h-3.938v58.666h3.938v-58.666ZM248.032 181.955l70.478 3.15 13.781-14.962-10.237-16.931-74.022 5.119v23.624Z" fill="#6B3425"/><path d="M251.967 211.891h3.937v-58.666h-3.937v58.666Z" fill="#6B3425"/><path d="M73.343 163.421c-.708 1.286-1.338 3.255-1.916 5.853-.472 2.153-.709 3.439-.656 3.885a.319.319 0 0 0 .026.263c.026.105.026.183.026.236-.078.42-.183.656-.367.682-.131.027-.578-.131-1.365-.472-.787-.315-1.207-.578-1.26-.735 0 0-.026-.289-.053-.84a17.758 17.758 0 0 1-.787-3.649c-.131.315-.262.657-.394.972a14.61 14.61 0 0 0-.367.971c-.131.341-.21.709-.263 1.05a7.069 7.069 0 0 0-.078 1.05.632.632 0 0 0 0 .315c.026.131.026.262.026.341-.079.394-.21.604-.394.656-.079.026-.157.026-.21.026-.42 0-.892-.105-1.417-.288-.657-.237-1.024-.499-1.103-.814 0-.052 0-.289-.026-.709-.42-1.548-.709-2.966-.866-4.226a21.98 21.98 0 0 1-.158-1.995c-.026-.735-.026-1.522-.026-2.388-.079-.447-.105-.709-.079-.814.105-.394.289-.577.499-.577.236.026.63.157 1.129.419.498.263.787.499.84.657 0 .052 0 .315-.053.787-.026.21-.026.42-.052.604 0 .184-.027.367-.027.551 0 .394.027.893.105 1.523.08.63.158 1.391.29 2.257l1.915-5.985c0-.105.053-.289.158-.499a.619.619 0 0 1 .42-.236c.105-.026.472.131 1.076.446.63.289.945.499.945.63v.289c0 .158 0 .368-.026.63-.026.656-.053 1.208-.053 1.68 0 .604.026 1.155.053 1.654.026.498.078.971.157 1.391.132-.63.263-1.26.42-1.916.158-.656.341-1.313.525-1.969.158-.525.289-.971.394-1.339.105-.367.21-.63.289-.813.105-.447.34-.657.708-.604.158.026.315.052.473.105.157.052.341.131.525.21.63.236.918.472.997.735ZM79.458 173.343a.375.375 0 0 1-.157.315c-.105.078-.21.131-.341.105-1.13-.158-1.76-.368-1.89-.63-.027-.053-.027-.079-.027-.105.027-.079.053-.158.105-.237.053-.078.08-.131.105-.183 0-.027.027-.105.027-.158v-.315c-.105.079-.263.289-.5.656-.104.21-.235.368-.314.499-.105.131-.184.236-.289.315-.289.263-.63.42-.997.42a.855.855 0 0 1-.63-.262 1.69 1.69 0 0 0-.21-.184c-.079-.079-.21-.184-.315-.341l-.709-.814c-.184-.262-.289-.499-.289-.709 0-.052 0-.131.027-.21.183-.787.708-1.548 1.6-2.283.63-.499 1.55-1.05 2.783-1.654 0-.289-.079-.473-.21-.551-.079-.053-.42.052-.945.315-.525.262-.918.472-1.155.656l-.131.131c-.052.053-.131.105-.21.158-.157.105-.289.131-.42.078-.105-.026-.315-.183-.63-.498-.315-.289-.499-.499-.525-.604-.079-.263 0-.446.236-.577.027-.027.21-.079.552-.158l.997-.551c.341-.184.656-.315.971-.394.315-.079.578-.131.814-.157.21-.027.446.078.709.315l.708.63c.237.21.5.393.735.603.29.263.447.499.447.735v5.145c.052.236.078.394.078.499Zm-2.178-3.99c-.237.079-.447.21-.63.315a2.963 2.963 0 0 0-.525.472l-.709.867c-.184.183-.367.446-.551.761-.158.289-.236.525-.236.656 0 .079.026.105.078.105.184 0 .604-.42 1.287-1.234.656-.813 1.076-1.47 1.286-1.942ZM85.838 166.412a.317.317 0 0 1-.158.342l-.158.078c-.052.027-.105.053-.157.105l-2.336 3.518c0 1.47 0 2.205.026 2.231l.105.341c.053.158.105.315.105.446 0 .158-.079.263-.236.342a.928.928 0 0 1-.42.078c-.315 0-.709-.078-1.155-.236-.525-.157-.787-.394-.787-.682 0-.027 0-.079.026-.158l.079-.236.078-.236c.026-.079.026-.158.026-.21v-5.381l-.157-.788c0-.289.131-.472.394-.525.105-.026.236-.052.394-.052.157 0 .314.026.472.052.157.026.341.079.499.105.34.105.55.21.63.315a.286.286 0 0 1 .026.131c0 .027-.053.237-.184.657v.656c.105-.21.21-.394.315-.578.105-.183.21-.393.315-.577.263-.499.473-.761.63-.788.21-.026.499.079.919.342.42.288.656.525.709.708ZM91.19 172.293c0 .499-.157.892-.498 1.181-.341.289-.787.446-1.391.446-.079 0-.158 0-.237-.026-.078-.026-.157-.026-.262-.052-.315-.079-.473-.132-.499-.132-.157-.026-.341-.078-.498-.105a.798.798 0 0 1-.42-.21c-.21-.183-.394-.42-.578-.761l-.446-.787c-.158-.263-.21-.42-.21-.473 0-.105.079-.21.262-.289.053-.026.132-.026.237-.026.13 0 .288 0 .446.026.157.027.367.053.577.079.42.079.656.131.683.158.026.026.079.288.157.787.053.42.158.63.289.63.21 0 .315-.289.315-.84 0-.709-.184-1.155-.578-1.339-.866-.42-1.443-.761-1.706-1.076-.34-.394-.498-.971-.498-1.758 0-.525.13-.998.42-1.444.262-.446.603-.735.97-.84.158-.026.683.131 1.576.525.052.026.131.026.236.052.105.027.289.053.472.079.263.053.473.158.604.289.184.21.263.525.289.997 0 .184.026.342.026.499v.499c.053.288.105.472.105.551 0 .262-.131.394-.367.446-.053 0-.158 0-.29-.026-.13-.026-.288-.079-.472-.131-.42-.132-.656-.289-.787-.42-.026-.027-.053-.368-.079-1.024-.026-.604-.078-.919-.183-.919-.132 0-.263.184-.394.525a3.737 3.737 0 0 0-.184 1.103c0 .472.105.787.315.918.236.132.446.263.656.368.21.105.447.236.656.367.447.263.762.499.92.762.235.315.367.787.367 1.391ZM98.828 166.991c-.053.052-.105.105-.184.157-.079.053-.184.105-.289.184l-3.333 4.646 1.785-.157c.288-.132.446-.21.472-.21.053 0 .131.026.21.078.21.158.394.42.525.788.053.183.105.315.131.446.027.131.027.236.027.315-.053.262-.29.394-.683.394-.079 0-.157 0-.262-.027-.105-.026-.21-.026-.342-.052l-2.703.289a.49.49 0 0 0-.184.052.942.942 0 0 0-.236.105c-.184.079-.289.131-.341.131-.027 0-.053 0-.08-.026-.078-.026-.157-.105-.262-.21l-.393-.394c-.342-.42-.525-.735-.525-.971 0-.026 0-.079.026-.105.026-.026.079-.105.157-.184.08-.052.132-.104.184-.157.053-.052.105-.079.131-.105l3.334-4.777-1.496.315c-.053.026-.158.052-.315.131a.92.92 0 0 1-.315.079c-.131 0-.315-.21-.578-.63-.262-.42-.393-.709-.367-.893 0-.183.157-.315.42-.341.026 0 .21-.026.577-.026l3.36-.499c.341-.079.551-.131.578-.131a.45.45 0 0 1 .183.026.554.554 0 0 1 .158.105.923.923 0 0 1 .157.236c.053.105.132.237.21.394.21.394.315.683.315.84 0 .105-.026.157-.052.184ZM106.099 173.343a.375.375 0 0 1-.158.315c-.105.078-.21.131-.341.105-1.129-.158-1.758-.368-1.89-.63-.026-.053-.026-.079-.026-.105a.946.946 0 0 1 .105-.237c.053-.078.079-.131.105-.183 0-.027.026-.105.026-.158v-.315c-.105.079-.262.289-.498.656-.105.21-.237.368-.315.499-.105.131-.184.236-.289.315-.289.263-.63.42-.998.42a.856.856 0 0 1-.63-.262 1.654 1.654 0 0 0-.21-.184c-.078-.079-.21-.184-.315-.341l-.708-.814c-.184-.262-.289-.499-.289-.709 0-.052 0-.131.026-.21.184-.787.709-1.548 1.601-2.283.63-.499 1.549-1.05 2.783-1.654 0-.289-.079-.473-.21-.551-.079-.053-.42.052-.945.315-.525.262-.919.472-1.155.656l-.131.131c-.053.053-.132.105-.21.158-.158.105-.289.131-.42.078-.105-.026-.315-.183-.63-.498-.315-.289-.499-.499-.525-.604-.079-.263 0-.446.236-.577.026-.027.21-.079.551-.158l.998-.551a4.19 4.19 0 0 1 .971-.394c.315-.079.577-.131.814-.157.21-.027.446.078.708.315l.709.63c.236.21.499.393.735.603.289.263.446.499.446.735v5.145c.053.236.105.394.079.499Zm-2.179-3.99c-.236.079-.446.21-.63.315a3.01 3.01 0 0 0-.525.472l-.708.867c-.184.183-.368.446-.552.761-.157.289-.236.525-.236.656 0 .079.026.105.079.105.184 0 .604-.42 1.286-1.234.683-.813 1.103-1.47 1.286-1.942ZM116.236 166.439a33.33 33.33 0 0 0-.63 1.916c-.21.709-.42 1.47-.656 2.31-.184.735-.341 1.339-.42 1.759-.079.42-.131.682-.131.787v.499c0 .236-.079.368-.236.394-.132.026-.525-.053-1.182-.21-.682-.184-1.05-.315-1.076-.42-.026-.053-.026-.263-.026-.63-.236-.735-.42-1.864-.577-3.386-.027.131-.079.341-.158.682-.079.315-.184.762-.315 1.313-.105.42-.184.735-.21.997a3.388 3.388 0 0 0-.079.551l-.026.552c0 .262-.105.393-.262.446-.027 0-.079.026-.184.026-.315 0-.683-.052-1.076-.184-.473-.157-.762-.315-.84-.525-.027-.052-.027-.131-.027-.236.027-.105 0-.21-.026-.367l-.577-3.019a33.147 33.147 0 0 1-.263-1.575c-.079-.525-.131-1.05-.184-1.575-.026-.289-.052-.446-.052-.499 0-.393.105-.551.341-.551.21.027.525.105.971.289.499.21.762.367.788.472v.21c0 .105-.026.237-.026.394.026.341.078.814.131 1.444.079.63.157 1.365.289 2.257l.945-4.488c.078-.315.21-.525.42-.551.052 0 .315.104.813.341.473.236.709.393.709.472.026.446.079.998.184 1.706.105.709.236 1.549.42 2.52.262-1.312.472-2.362.656-3.097.184-.735.315-1.234.42-1.444.079-.341.262-.498.551-.446.236.026.525.131.866.289.447.183.683.393.735.577ZM123.455 173.343a.374.374 0 0 1-.157.315c-.105.078-.21.131-.341.105-1.129-.158-1.759-.368-1.89-.63-.027-.053-.027-.079-.027-.105.027-.079.053-.158.105-.237.053-.078.079-.131.105-.183 0-.027.027-.105.027-.158v-.315c-.105.079-.263.289-.499.656-.105.21-.236.368-.315.499-.105.131-.184.236-.289.315-.288.263-.63.42-.997.42a.856.856 0 0 1-.63-.262c-.053-.053-.105-.105-.21-.184-.079-.079-.21-.184-.315-.341l-.709-.814c-.184-.262-.289-.499-.289-.709 0-.052 0-.131.027-.21.183-.787.708-1.548 1.601-2.283.63-.499 1.549-1.05 2.782-1.654 0-.289-.079-.473-.21-.551-.079-.053-.42.052-.945.315-.525.262-.918.472-1.155.656l-.131.131c-.052.053-.131.105-.21.158-.157.105-.289.131-.42.078-.105-.026-.315-.183-.63-.498-.315-.289-.499-.499-.525-.604-.079-.263 0-.446.236-.577.027-.027.21-.079.552-.158l.997-.551a4.19 4.19 0 0 1 .971-.394c.315-.079.578-.131.814-.157.21-.027.446.078.709.315l.708.63c.237.21.499.393.735.603.289.263.447.499.447.735v5.145c.078.236.105.394.078.499Zm-2.178-3.99c-.237.079-.447.21-.63.315a2.939 2.939 0 0 0-.525.472l-.709.867c-.184.183-.367.446-.551.761-.158.289-.236.525-.236.656 0 .079.026.105.078.105.184 0 .604-.42 1.287-1.234.682-.813 1.102-1.47 1.286-1.942ZM277.084 169.223c0 .078.027.131.027.21v.21c0 .735-.315 1.548-.972 2.441-.498.682-1.155 1.312-1.916 1.89-.708.498-1.155.708-1.391.682-.289-.052-.761-.236-1.444-.577-.682-.368-1.05-.63-1.128-.761-.027-.053-.027-.105-.027-.132 0-.052.027-.131.053-.21a.806.806 0 0 0 .052-.21v-8.819c0-.158.21-.21.604-.21.21 0 .368.026.473.052.42-.262.971-.525 1.601-.709.656-.209 1.207-.314 1.68-.314.262 0 .472.026.63.105.157.078.288.209.42.393.183.263.288.446.341.499l.446.367a.997.997 0 0 1 .315.447c.026.105.053.21.053.341 0 .709-.473 1.496-1.418 2.336.971.709 1.523 1.391 1.601 1.969Zm-2.388-4.41c0-.026-.053-.053-.158-.053-.21 0-.525.105-.971.315-.446.21-.761.42-.892.63l.026 1.418c.289-.236.551-.473.787-.709.263-.236.473-.472.683-.709.42-.472.577-.761.525-.892Zm.498 4.016c-.262.026-.656.131-1.207.341-.604.236-1.024.473-1.339.709v2.52c.604-.158 1.181-.656 1.759-1.496.577-.814.84-1.497.787-2.074ZM283.648 171.847c.079.131-.105.551-.525 1.208a5.3 5.3 0 0 1-.708.892c-.237.236-.473.42-.683.551a.51.51 0 0 1-.236.053c-.341 0-.814-.105-1.391-.315-.604-.21-.998-.42-1.208-.683-.525-.682-.787-1.627-.787-2.834 0-1.155.236-2.153.682-3.019.499-.971 1.155-1.444 1.917-1.444.262 0 .603.053 1.023.21.499.184.893.446 1.208.788.078.078.157.315.236.735.052.21.079.446.105.656.026.21.026.42.026.63 0 .63-.105 1.05-.289 1.286-.918.289-1.89.446-2.861.499 0 .446.053.918.158 1.391.105.472.262.735.394.761.183.026.393-.131.656-.446.21-.236.367-.473.42-.656.026-.132.078-.263.105-.42.052-.132.078-.289.131-.42.157-.026.446.052.866.21.446.105.683.236.761.367Zm-2.415-4.173c-.157 0-.367.236-.656.735-.288.525-.446.997-.472 1.443.394 0 .735-.105.971-.288.157-.105.21-.552.21-1.365 0-.315 0-.499-.053-.525ZM289.817 167.017a.317.317 0 0 1-.157.342l-.158.078c-.052.027-.105.053-.157.105l-2.337 3.518c0 1.47 0 2.205.027 2.231l.105.341c.052.158.105.315.105.446 0 .158-.079.263-.237.342a.927.927 0 0 1-.42.078c-.315 0-.708-.078-1.155-.236-.525-.157-.787-.394-.787-.682 0-.027 0-.079.026-.158l.079-.236.079-.236c.026-.079.026-.158.026-.21v-5.381l-.158-.788c0-.288.132-.472.394-.525.105-.026.236-.052.394-.052.157 0 .315.026.472.052.158.027.342.079.499.105.341.105.551.21.63.315a.288.288 0 0 1 .026.131c0 .027-.052.237-.183.657v.656c.105-.21.21-.394.315-.578.105-.183.21-.393.315-.577.262-.499.472-.761.63-.787.21-.027.498.078.918.341.42.289.657.525.709.708ZM293.226 163.631c0 .052-.026.157-.052.262a.701.701 0 0 0-.079.21 6.106 6.106 0 0 0-.158.84v8.347c0 .105.027.21.079.289a.417.417 0 0 1 .079.21c0 .578-.105.893-.315.919-.105.026-.394-.053-.866-.184-.499-.131-.788-.236-.893-.315-.21-.157-.289-.315-.289-.472 0-.027.027-.079.053-.132a.525.525 0 0 0 .052-.236v-9.607a.374.374 0 0 0-.052-.157c-.026-.053-.053-.105-.053-.158.027-.21.184-.367.499-.446h.578c.183.026.341.026.472.052l.394.079c.367.158.551.315.551.499ZM297.035 173.947c.052.315-.079.525-.342.604-.026 0-.078.026-.183.026-.342 0-.735-.079-1.208-.21-.525-.157-.814-.315-.919-.446-.052-.079 0-.21.132-.42.078-.131.131-.394.131-.761v-5.723c-.105-.341-.158-.577-.158-.682 0-.105.158-.184.499-.184.263 0 .63.079 1.129.263.499.183.814.315.892.446.027.052.053.079.053.131 0 .079-.053.21-.158.42-.105.21-.157.368-.157.446v5.486c0 .053.026.105.052.158.027.052.079.131.105.184.053.052.079.131.105.183 0 .027.027.053.027.079Zm.052-9.397s.026.053.026.105c0 .21-.052.473-.131.788-.105.341-.184.524-.262.577-.079.026-.473-.053-1.182-.289-.682-.236-1.05-.393-1.102-.498-.026-.027-.053-.105-.053-.21 0-.237.053-.499.184-.788.158-.289.315-.472.499-.525.21-.052.577.026 1.076.236.551.21.84.394.945.604ZM304.539 173.37c.079.184.105.368.105.525 0 .263-.105.446-.315.551a1 1 0 0 1-.341.053c-.288 0-.656-.053-1.102-.158-.42-.105-.683-.183-.788-.262a.286.286 0 0 1-.078-.184c0-.105.078-.262.21-.472.131-.237.21-.394.21-.499 0-3.57-.027-5.381-.079-5.407-.131-.027-.446.367-.945 1.233-.525.919-.788 1.602-.788 2.048v2.546a.632.632 0 0 1 .184.446c0 .341-.157.578-.472.683-.053.026-.105.026-.158.026-.262 0-.604-.053-1.076-.184-.473-.105-.735-.184-.788-.262-.052-.053-.078-.158-.078-.237 0-.052.026-.105.052-.157.026-.053.079-.105.105-.158.026-.052.079-.105.105-.157.026-.053.053-.079.053-.105v-6.326c0-.079-.027-.158-.105-.289-.079-.105-.105-.21-.079-.289.052-.183.184-.315.42-.367.157-.026.472.026 1.024.157.577.158.892.289.945.447a.71.71 0 0 1-.053.446c-.105.315-.157.499-.157.551 0 .105.026.21.052.315.131-.446.315-.866.578-1.207.288-.42.603-.63.892-.63.315 0 .709.105 1.208.315.498.21.787.393.839.577.289.551.42 2.704.42 6.431Z" fill="#fff"/><path d="m208.313 189.486-98.827-1.785s0 2.546 1.26 3.176c1.26.63 2.783.892 2.651 1.916-.131 1.024-6.299 8.505-11.838 14.988-5.538 6.484-9.082 12.705-9.58 15.382-.5 2.677-.5 3.176-1.523 3.937-.997.761-4.279 2.284-6.3 6.851-2.02 4.568-1.89 5.329-2.152 8.505-.263 3.176-.761 18.295-.761 18.295l217.209 6.09c.131-.394 4.803-26.8 4.409-30.737-.367-3.938-9.213-11.314-22.049-14.49-12.861-3.176-35.803-8.268-36.564-8.504-.761-.263-35.935-23.624-35.935-23.624Z" fill="#0C96FD"/><path d="M81.741 245.634c-.262 3.176-.498 15.119-.498 15.119l217.209 6.09c.105-.315 2.441-12.836 3.307-21.262 0 0-30.869-12.232-48.167-13.203-17.324-.971-41.84 8.583-59.532 7.402-17.692-1.181-40.423-11.287-60.451-11.287s-51.868 17.141-51.868 17.141Z" fill="#1D7DCC"/><path d="M108.096 251.618H79.721s-1.128 5.329 0 8.269c1.13 2.913 4.804 6.851 11.839 7.113 7.06.263 207.391.499 207.391.499s2.022-1.785 3.282-6.746c1.26-4.961-.84-11.313-.84-11.313s-1.549 2.782-7.98 3.937c-6.431 1.155-30.37.499-30.37.499l-20.421 10.027-107.909-3.439-26.617-8.846ZM113.374 192.767s-3.15 1.785-5.67 4.436-4.829 9.004-4.829 9.004 12.468-11.839 10.499-13.44Z" fill="#2D2D2D"/><path d="M101.037 218.202c-2.022-1.68-9.844 1.785-10.211 4.436-.368 2.651 6.43 3.176 7.56 2.152 1.128-.997 4.042-5.459 2.651-6.588Z" fill="#7D009B"/><path d="M132.273 223.635c0 3.648 11.366 3.648 11.366.289 0-4.095-11.366-3.518-11.366-.289Z" fill="#1D7DCC"/><path d="M127.522 225.288h12.205c.21 0 .394-.184.394-.394v-2.257a.404.404 0 0 0-.394-.394h-12.205a.404.404 0 0 0-.394.394v2.257c0 .21.184.394.394.394Z" fill="#878FB3"/><path d="m231.753 210.329-22.81-16.511s-66.935-1.023-73.865-1.023c-10.21 0-16.51 4.436-16.51 9.659 0 5.198 13.99 5.198 23.834 5.198 9.843 0 89.351 2.677 89.351 2.677Z" fill="#2D2D2D"/><path d="M250.154 246.788h-.237v-21.446l-18.216-14.935.131-.184 18.322 15.014v21.551Z" fill="#024168"/><path d="M228.369 208.91c-.053-1.155-1.89-4.305-4.489-4.305-2.598 0-2.572 7.612-.813 8.111 1.758.525 5.407-1.129 5.302-3.806Z" fill="#F1F3F2"/><path d="M165.058 260.253h-.237v-29.976l3.806-21.577.21.027-3.779 21.55v29.976ZM121.196 255.949h-.236v-26.196l4.252-23.021.237.053-4.253 22.994v26.17Z" fill="#024168"/><path d="M283.255 222.297s7.875 5.171 8.899 7.98c.997 2.782 2.257 5.329 2.887 5.46.63.131 7.822.394 7.822.394s.814-6.195-.236-6.904c-1.05-.709-16.406-8.426-19.372-6.93Z" fill="#F1F3F2"/><path d="M285.196 242.982h7.508c.262 0 .498-.21.498-.499v-2.834a.498.498 0 0 0-.498-.499h-7.508a.498.498 0 0 0-.498.499v2.834c.026.263.236.499.498.499Z" fill="#878FB3"/><path d="M182.722 223.635c0 3.648 11.365 3.648 11.365.289-.026-4.095-11.365-3.518-11.365-.289Z" fill="#1D7DCC"/><path d="M177.945 225.288h12.206c.21 0 .393-.184.393-.394v-2.257a.403.403 0 0 0-.393-.394h-12.206a.404.404 0 0 0-.394.394v2.257c0 .21.184.394.394.394Z" fill="#878FB3"/><path d="M169.387 193.24h-1.181v15.067h1.181V193.24ZM125.447 206.785h-.814v-11.996l.814-.368v12.364ZM110.691 267.235a24.525 24.525 0 0 1-.446-4.646c0-13.964 11.313-25.251 25.251-25.251 13.939 0 25.252 11.313 25.252 25.251 0 1.601-.158 3.15-.446 4.646h-49.611Z" fill="#024168"/><path d="M135.497 281.253c11.771 0 21.314-9.543 21.314-21.314 0-11.772-9.543-21.314-21.314-21.314-11.772 0-21.314 9.542-21.314 21.314 0 11.771 9.542 21.314 21.314 21.314Z" fill="#000"/><path d="M135.497 274.297c7.93 0 14.358-6.428 14.358-14.358 0-7.93-6.428-14.358-14.358-14.358-7.93 0-14.358 6.428-14.358 14.358 0 7.93 6.428 14.358 14.358 14.358Z" fill="#606060"/><path d="M135.5 269.94c5.523 0 10.001-4.477 10.001-10 0-5.524-4.478-10.001-10.001-10.001s-10.001 4.477-10.001 10.001c0 5.523 4.478 10 10.001 10Z" fill="#000"/><path d="M147.653 267.682a12.832 12.832 0 0 1-1.995 2.494 14.123 14.123 0 0 1-2.31 1.864l-19.792-19.897a13.855 13.855 0 0 1 1.864-2.283 16.37 16.37 0 0 1 2.52-1.995l19.713 19.817Z" fill="#A8A9AD"/><path d="M143.556 248.022c.866.577 1.706 1.233 2.467 2.021a14.094 14.094 0 0 1 1.838 2.336l-20.186 19.529a15.408 15.408 0 0 1-2.257-1.89c-.761-.787-1.391-1.654-1.942-2.546l20.08-19.45Z" fill="#A8A9AD"/><path d="M225.401 267.235a24.525 24.525 0 0 1-.446-4.646c0-13.964 11.313-25.251 25.251-25.251 13.965 0 25.252 11.313 25.252 25.251 0 1.601-.158 3.15-.446 4.646h-49.611Z" fill="#024168"/><path d="M250.23 281.253c11.771 0 21.314-9.543 21.314-21.314 0-11.772-9.543-21.314-21.314-21.314-11.772 0-21.314 9.542-21.314 21.314 0 11.771 9.542 21.314 21.314 21.314Z" fill="#000"/><path d="M250.23 274.297c7.929 0 14.358-6.428 14.358-14.358 0-7.93-6.429-14.358-14.358-14.358-7.93 0-14.358 6.428-14.358 14.358 0 7.93 6.428 14.358 14.358 14.358Z" fill="#606060"/><path d="M250.228 269.94c5.524 0 10.001-4.477 10.001-10 0-5.524-4.477-10.001-10.001-10.001-5.523 0-10 4.477-10 10.001 0 5.523 4.477 10 10 10Z" fill="#000"/><path d="M262.382 267.682a12.795 12.795 0 0 1-1.995 2.494 14.081 14.081 0 0 1-2.31 1.864l-19.818-19.897a13.855 13.855 0 0 1 1.864-2.283 16.37 16.37 0 0 1 2.52-1.995l19.739 19.817Z" fill="#A8A9AD"/><path d="M258.263 248.022c.867.577 1.707 1.233 2.468 2.021a14.087 14.087 0 0 1 1.837 2.336l-20.185 19.529a15.304 15.304 0 0 1-2.257-1.89c-.762-.787-1.392-1.654-1.943-2.546l20.08-19.45Z" fill="#A8A9AD"/><path d="M199.627 185.287s-3.963-1.47-7.349 1.89c-2.258 2.231-1.313 8.242.078 10.053 1.418 1.812 6.668 4.515 6.668 4.515s14.2-15.801.603-16.458Z" fill="#A5713D"/><path d="M202.198 205.025c-2.336.499-5.04 1.313-6.3 2.546-1.522 1.496-.577 5.696 7.192 4.41 7.77-1.286 6.746-4.83 5.749-5.722-1.444-1.339-4.856-1.601-6.641-1.234Z" fill="#F69576"/><path d="m204.143 199.566 3.57 9.318-9.083 1.943s-.367-3.938-.393-6.51c-.027-2.599.236-3.518.236-3.518l5.67-1.233Z" fill="#F69576"/><path d="M200.756 203.031s.315 1.785 1.654 2.31c1.339.525 3.963-.026 3.963-.026l-2.204-5.775-3.833.814c-.026.026.027 1.575.42 2.677Z" fill="#DD866F"/><path d="M202.962 187.597s1.365.708 2.31 2.703c.735 1.523 1.024 3.281 1.418 4.226.42.945 1.076 2.415 1.076 3.833.026 1.417-.788 3.517-2.888 4.619-2.099 1.103-4.016 1.05-5.564-.236-1.549-1.286-3.675-3.753-4.541-5.565-.867-1.811-1.89-5.433-.184-7.481 2.179-2.651 5.302-3.333 8.373-2.099Z" fill="#F69576"/><path d="M201.229 199.329s.499 1.26 1.339 1.365c.84.105 1.601-.236 1.864-.761.262-.525.262-1.391.262-1.391l-3.465.787Z" fill="#fff"/><path d="M202.831 197.492c-.052 0-.105 0-.157-.027-.105-.052-.158-.21-.184-.288v-.053a.769.769 0 0 0-.105.131.275.275 0 0 1-.236.132c-.131 0-.236-.105-.315-.263-.105-.262.052-.761.052-.814 0-.052.053-.052.105-.052.053 0 .053.052.053.105-.053.131-.131.525-.053.709.053.131.132.157.184.157.053 0 .079-.026.079-.052.079-.132.157-.21.236-.21.053 0 .079 0 .105.052.026.026.026.079.053.131.026.079.052.158.105.184h.105c.105-.052.105-.131.052-.289-.026-.078-.026-.131 0-.183.026-.027.053-.053.079-.053.052 0 .105.026.157.053.105.052.158.052.21-.027.027-.026.027-.105 0-.183-.052-.21-.262-.499-.393-.552-.027-.026-.053-.052-.027-.105.027-.026.053-.052.105-.026.184.079.42.394.473.656.026.132.026.237-.026.315-.132.184-.289.105-.394.053 0 0-.026 0-.053-.026v.026c.027.131.105.367-.157.472-.026 0-.026 0-.053.027Z" fill="#6B3425"/><path d="M191.044 196.468c.315-1.863 5.67-1.391 5.434 1.969-.289 3.438-5.906.761-5.434-1.969Z" fill="#F69576"/><path d="M195.613 199.015h-.053c-.026-.026-.052-.078-.026-.105.158-.262.053-.997-.367-1.653-.289-.447-.945-1.208-2.048-1.103-.604.053-.971.236-1.155.551-.262.473.053 1.077.053 1.077.026.026 0 .078-.027.105-.026.026-.078 0-.105-.027-.026-.026-.341-.682-.052-1.207.21-.368.63-.578 1.286-.63.866-.079 1.68.341 2.205 1.181.42.656.578 1.444.368 1.811h-.079Z" fill="#6B3425"/><path d="M193.747 199.12c-.026 0-.052 0-.079-.026-.026-.053-.892-1.312-.393-3.045 0-.052.052-.052.105-.052.052 0 .052.052.052.105-.472 1.653.368 2.887.368 2.913.026.026.026.079-.027.105h-.026ZM200.088 196.503c.156-.033.231-.302.167-.599-.063-.298-.241-.512-.397-.479-.156.033-.231.302-.168.6.064.297.242.512.398.478ZM198.366 194.789c.184-.236.578-.551 1.024-.709.499-.157.814 0 1.024 0 .21 0 .184-.262.026-.499-.157-.21-.63-.288-1.312-.131-.683.184-.998.551-1.129.814-.131.262.131.84.367.525ZM204.287 195.453c.156-.033.231-.301.167-.599-.063-.298-.241-.512-.397-.479-.156.034-.231.302-.167.6.063.298.241.512.397.478ZM202.828 193.608c.184-.236.578-.551 1.024-.709.499-.157.814 0 1.024 0 .21 0 .183-.262.026-.498-.158-.237-.63-.289-1.312-.132-.683.184-.998.552-1.129.814-.131.263.131.84.367.525ZM206.06 199.986l-.315.157s-.394 1.47-.892 1.838c-.499.367-2.363.682-2.599.551-.236-.131-1.181-1.444-1.181-1.444l-.42.21s1.102 1.969 1.26 2.153c.079.105 1.47.682 1.968.603.499-.078 1.917-1.312 1.969-1.522.105-.683.21-2.546.21-2.546Z" fill="#6B3425"/><path d="m204.143 201.245-.814.158.289 1.444.63-.027-.105-1.575Z" fill="#6B3425"/><path d="M193.642 187.492s2.651 3.044 8.005 2.205c11.182-1.733 4.804-6.825 4.804-6.825s.735 1.549-1.129 2.047c-2.572.683-8.032-6.404-11.68 2.573Z" fill="#A5713D"/><path d="M202.302 183.134s-2.546-4.042-7.297-3.832c-4.751.21-9.161 5.25-10.237 9.082-1.076 3.833 1.733 10.972 1.733 10.972s-.972-7.927.656-8.714c1.627-.788 4.095 1.601 4.095 1.601l11.05-9.109Z" fill="#254B6B"/><path d="M202.618 182.216c.84.157 2.914 1.864 2.704 2.651-.21.788-12.521 10.106-13.098 10.421-.578.315-2.389-1.89-1.864-3.754.525-1.863 10.001-9.712 12.258-9.318ZM187.292 200.822c1.001-.298 1.563-1.374 1.256-2.402-.307-1.027-1.367-1.619-2.367-1.32-1 .299-1.562 1.374-1.255 2.402.307 1.028 1.366 1.619 2.366 1.32ZM209.681 205.551c-.84-.892-2.888-.787-2.468-.184.42.604 1.024 3.544 0 4.148-1.023.603-2.336.735-2.1 2.021.237 1.286 3.596-.053 4.41-1.26.84-1.208 1.076-3.754.158-4.725Z" fill="#fff"/><path d="M198.208 206.182c.052-1.024-3.098-.131-3.387.971-.42 1.654-.026 2.52.788 3.754 1.339 1.942 5.145 2.913 7.796 2.336 1.548-.342 2.52-1.181 1.601-2.074-.945-.892-4.069.84-5.854-.446-1.758-1.313-.997-3.701-.944-4.541Z" fill="#fff"/><path d="M212.591 217.757h-20.527v-8.741l21.918.709-1.391 8.032Z" fill="#0C96FD"/><path d="M182.668 159.72h-31.683v29.188h31.683V159.72Z" fill="#FFE051"/><path d="M182.668 167.227h-31.683v.473h31.683v-.473Z" fill="#493127"/><path d="M165.709 159.72h-.472v29.188h.472V159.72Z" fill="#493127"/><path d="m165.135 167.858.105-.709c.079-.446.708-4.436 2.047-5.197.289-.158.578-.184.866-.053.289.131.473.341.525.63.289 1.417-2.73 4.462-3.071 4.804l-.472.525Zm2.625-5.565a.504.504 0 0 0-.263.079c-.814.446-1.391 2.677-1.68 4.094 1.181-1.26 2.546-3.071 2.415-3.832a.366.366 0 0 0-.262-.289c-.053-.052-.132-.052-.21-.052Z" fill="#493127"/><path d="m164.685 167.464.656-.473c.158-.105 3.911-2.861 5.801-2.415.42.105.709.342.919.709a.568.568 0 0 1 0 .577c-.63 1.103-5.565 1.497-6.562 1.575l-.814.027Zm5.959-2.468c-1.287 0-3.282 1.181-4.332 1.89 2.153-.21 4.962-.656 5.303-1.26.026-.052.026-.078 0-.131-.131-.236-.315-.394-.604-.446-.105-.053-.236-.053-.367-.053Z" fill="#493127"/><path d="M171.142 170.954h-.026c-1.759-.027-5.46-2.468-5.88-3.439-.105-.263-.026-.446.053-.499.603-.63 4.094.63 5.696 1.706.945.63 1.312 1.234 1.102 1.733-.105.236-.367.499-.945.499Zm-5.486-3.623c.105.551 3.097 2.73 5.014 3.124.367.079.866.105.997-.184.105-.21-.131-.551-.63-.945-1.68-1.286-4.935-2.231-5.381-1.995Z" fill="#493127"/><path d="M168.311 174.157c-.184 0-.341-.053-.499-.132-1.627-.892-2.493-6.194-2.572-6.798l-.105-.761.525.551c.42.446 4.068 4.489 3.727 6.3a1.03 1.03 0 0 1-.577.735c-.184.052-.342.105-.499.105Zm-2.468-6.195c.368 1.89 1.155 5.092 2.205 5.644a.538.538 0 0 0 .525.026.484.484 0 0 0 .315-.394c.237-1.155-1.785-3.806-3.045-5.276Z" fill="#493127"/><path d="M162.93 173.527a.926.926 0 0 1-.498-.158 1.128 1.128 0 0 1-.473-.761c-.157-1.68 3.019-4.83 3.386-5.197l.525-.525-.131.735c-.105.525-1.05 5.223-2.494 5.827a.56.56 0 0 1-.315.079Zm-.236-.552c.131.079.263.105.394.053.866-.368 1.654-3.045 2.047-4.699-1.102 1.182-2.782 3.203-2.677 4.226 0 .21.079.342.236.42Z" fill="#493127"/><path d="M160.094 170.692c-.131 0-.236 0-.341-.027-.788-.105-1.103-.525-1.234-.866-.315-.919.131-1.706 1.26-2.231 1.863-.866 5.486-.919 5.932-.079.079.131.105.341-.079.63-.656.971-3.675 2.573-5.538 2.573Zm3.307-3.334c-1.076 0-2.415.157-3.412.63-.919.42-1.26.971-1.024 1.654.289.787 1.523.603 2.231.446 2.179-.551 4.2-2.021 4.148-2.363-.132-.236-.919-.367-1.943-.367Z" fill="#493127"/><path d="M165.29 167.882c-.158 0-.315-.052-.394-.078-1.313-.394-4.41-2.678-4.672-4.095-.053-.368.052-.656.315-.84.918-.683 2.519.499 3.727 1.864.21.236 2.047 2.336 1.417 3.018-.105.105-.236.131-.393.131Zm-4.095-4.751a.61.61 0 0 0-.368.105c-.21.158-.183.473.105.945.998 1.575 4.016 3.439 4.436 3.229.158-.262-.84-1.969-2.336-3.281-.761-.63-1.391-.998-1.837-.998Z" fill="#493127"/></svg>