<svg width="175" height="175" fill="none" xmlns="http://www.w3.org/2000/svg"><g clip-path="url('#clip0_249_1145')"><path d="M87.497 174.995c48.324 0 87.498-39.174 87.498-87.498C174.995 39.174 135.821 0 87.497 0 39.174 0 0 39.174 0 87.497c0 48.324 39.174 87.498 87.497 87.498Z" fill="#AFAFAF"/><path d="M87.497 151.775c35.5 0 64.278-28.778 64.278-64.278 0-35.5-28.778-64.278-64.278-64.278-35.5 0-64.278 28.778-64.278 64.278 0 35.5 28.778 64.278 64.278 64.278Z" fill="#fff"/><path d="M81.092 131.423H72.75v-7.072c0-1.834-.038-3.669 0-5.503 0-.785-.29-.952-1.006-.946H57.948c-1.264 0-1.27 0-1.27-1.21v-6.379c0-1.162 0-1.157 1.21-1.151h4.777c2.227 0 3.41-1.108 3.48-3.351.08-2.404.048-4.808.048-7.213V69.205c0-2.824-.774-3.668-3.609-3.765-1.952-.075-3.904-.048-5.857 0-.677 0-.882-.231-.871-.893a218.29 218.29 0 0 0 0-6.76c0-.77.285-.969 1.006-.963h14.522c.839 0 1.145-.183 1.134-1.076-.048-3.695 0-7.395-.043-11.09 0-.899.296-1.125 1.146-1.076 2.103.059 4.211.043 6.314 0 .667 0 .872.22.866.887-.027 3.765 0 7.578-.027 11.365 0 .77.167 1.076.99 1.022 1.2-.067 2.403-.067 3.604 0 .833.043.995-.296.99-1.076-.033-3.722 0-7.449-.028-11.176 0-.791.237-1.05 1.028-1.033 2.103.048 4.211.043 6.314 0 .715 0 .925.247.92.947v11.294c0 1.195 0 1.178 1.156 1.313 5.067.592 9.934 1.828 14.135 4.878a11.49 11.49 0 0 1 4.91 8.17c.617 5.099-.996 9.34-4.84 12.726-.538.489-1.184.892-1.893 1.414 1.075.447 2.043.785 2.958 1.253a14.789 14.789 0 0 1 8.067 14.775c-.279 2.953-.822 5.809-2.242 8.46a15.593 15.593 0 0 1-7.832 6.992c-4.087 1.775-8.411 2.152-12.784 2.184-1.71 0-1.48-.043-1.48 1.538v10.548c0 1.662.13 1.468-1.435 1.479H87.9c-1.248 0-1.259 0-1.259-1.291v-11.177c0-.823-.23-1.145-1.075-1.108a40.1 40.1 0 0 1-3.604 0c-.71-.027-.93.215-.925.925.038 3.695 0 7.39.027 11.091l.027 1.441Zm-.301-32.018v8.025c0 .678.199.877.87.866 1.921-.038 3.846.027 5.767 0 2.334-.065 4.7 0 6.992-.377 4.35-.704 7.632-2.899 8.525-7.454.666-3.426.242-6.046-3.674-8.068a14.688 14.688 0 0 0-6.4-1.614c-3.765-.112-7.568-.064-11.354-.112-.656 0-.71.322-.71.844-.006 2.609-.016 5.25-.016 7.89Zm0-25.435c0 2.372.026 4.75 0 7.121 0 .78.182 1.038.995 1.022a285.12 285.12 0 0 1 8.928 0 7.998 7.998 0 0 0 5.023-1.662c3.287-2.452 4.303-7.664 2.071-10.805-1.549-2.151-3.926-3.028-6.384-3.28-3.276-.345-6.594-.286-9.891-.426-.656 0-.726.312-.72.84-.012 2.382-.022 4.786-.022 7.19Z" fill="#0A93FD"/><path d="M88.035 1.527h-1.076v12.355h1.076V1.527ZM88.035 161.117h-1.076v12.355h1.076v-12.355ZM173.472 86.959h-12.355v1.076h12.355v-1.076ZM13.882 86.959H1.527v1.076h12.355v-1.076ZM147.91 26.33l-8.736 8.736.76.761 8.736-8.736-.76-.76ZM35.064 139.176l-8.736 8.736.76.761 8.737-8.736-.761-.761ZM139.933 139.177l-.761.761 8.736 8.735.76-.76-8.735-8.736ZM27.089 26.325l-.76.76 8.735 8.737.76-.76-8.735-8.737ZM110.509 4.663l-3.378 11.884 1.035.294 3.378-11.883-1.035-.295ZM66.837 158.163l-3.378 11.884 1.035.294 3.378-11.883-1.035-.295ZM158.456 107.127l-.294 1.035 11.883 3.381.294-1.035-11.883-3.381ZM4.953 63.463l-.295 1.035 11.883 3.38.294-1.034-11.882-3.38ZM162.341 45.177l-10.794 6.01.523.94 10.794-6.01-.523-.94ZM22.921 122.863l-10.796 6.006.523.94 10.796-6.006-.523-.94ZM123.793 151.553l-.939.523 6.012 10.793.939-.523-6.012-10.793ZM46.13 12.13l-.94.524 6.012 10.793.94-.523-6.013-10.793ZM130.906 13.328l-6.301 10.625.926.549 6.3-10.625-.925-.549ZM49.535 150.582l-6.299 10.629.926.548 6.298-10.628-.925-.549ZM151.124 124.551l-.548.926 10.631 6.294.548-.926-10.631-6.294ZM13.796 43.239l-.548.925 10.63 6.294.549-.925-10.63-6.294ZM170.646 65.645l-11.968 3.064.267 1.042 11.968-3.064-.267-1.042ZM16.045 105.254l-11.969 3.064.267 1.042 11.968-3.064-.266-1.042ZM106.288 158.688l-1.042.267 3.066 11.968 1.042-.267-3.066-11.968ZM66.68 4.087l-1.041.267 3.066 11.967 1.042-.267L66.68 4.087Z" fill="#fff"/></g><defs><clipPath id="clip0_249_1145"><path fill="#fff" d="M0 0h175v175H0z"/></clipPath></defs></svg>