<svg width="196" height="159" fill="none" xmlns="http://www.w3.org/2000/svg"><path d="M5.287 87.574h77c2.84 0 5.09 2.3 5.09 5.09v50.322c0 2.839-2.3 5.091-5.09 5.091h-77c-2.84 0-5.09-2.3-5.09-5.091V92.665c-.05-2.79 2.25-5.091 5.09-5.091Z" fill="#AFAFAF"/><path d="M2.252 147.833H83.51V97.511c0-2.84-2.301-5.091-5.091-5.091H7.343c-2.84 0-1.567 2.203-1.567 5.042l-3.524 50.371Z" fill="#0585DD"/><path d="M27.706 99.126c10.625 0 19.238-8.613 19.238-19.237 0-10.625-8.613-19.238-19.238-19.238-10.624 0-19.237 8.613-19.237 19.238 0 10.624 8.613 19.237 19.237 19.237Z" fill="#0A93FD"/><path d="M27.705 94.035c7.814 0 14.147-6.333 14.147-14.147 0-7.813-6.333-14.146-14.147-14.146-7.813 0-14.146 6.334-14.146 14.146 0 7.814 6.333 14.147 14.146 14.147ZM27.852 60.993h-.245v2.692h.245v-2.692ZM27.852 96.043h-.245v2.74h.245v-2.74ZM46.65 79.742h-2.742v.245h2.742v-.245ZM11.552 79.742H8.859v.245h2.693v-.245ZM41.024 66.412l-1.938 1.938.173.173 1.938-1.938-.173-.173ZM16.158 91.238l-1.904 1.904.173.173 1.904-1.904-.173-.173ZM39.232 91.224l-.173.173 1.938 1.939.173-.173-1.938-1.939ZM14.478 66.43l-.173.172 1.938 1.939.173-.173-1.938-1.938ZM32.806 61.638l-.75 2.637.236.067.75-2.637-.236-.067ZM23.195 95.419l-.736 2.59.235.066.737-2.59-.236-.066ZM43.325 84.159l-.067.235 2.636.75.067-.235-2.636-.75ZM9.598 74.559l-.067.235 2.637.75.067-.235-2.637-.75ZM44.254 70.135l-2.346 1.322.12.213 2.346-1.321-.12-.214ZM13.58 87.645l-2.396 1.333.119.214 2.395-1.333-.119-.214ZM35.692 93.96l-.214.119 1.334 2.394.214-.119-1.334-2.394ZM18.653 63.3l-.213.12 1.333 2.394.214-.119-1.334-2.395ZM37.261 63.535l-1.396 2.36.21.124 1.397-2.359-.21-.125ZM19.388 93.775l-1.372 2.316.21.125 1.373-2.317-.21-.124ZM41.701 88.074l-.125.21 2.316 1.374.125-.21-2.316-1.374ZM11.562 70.15l-.124.211 2.358 1.397.125-.21-2.359-1.397ZM46.037 75.047l-2.656.68.06.237 2.656-.68-.06-.237ZM12.064 83.76l-2.656.68.06.237 2.657-.68-.061-.237ZM31.87 95.51l-.237.061.68 2.656.237-.061-.68-2.656ZM23.157 61.542l-.237.06.68 2.656.237-.06-.68-2.656Z" fill="#fff"/><path d="M22.567 85.861c.146-.832.244-1.91.342-3.28l.098-.098h.49l.098.098c0 1.175.049 1.86.049 2.056.44.44.93.784 1.468 1.077a5.12 5.12 0 0 0 1.91.392v-6.51c-.637-.099-1.323-.197-1.959-.392a4.5 4.5 0 0 1-1.37-.686c-.392-.293-.686-.734-.882-1.174a4.24 4.24 0 0 1-.293-1.567c0-1.126.391-2.203 1.125-3.084.735-.88 1.86-1.468 3.378-1.713 0-.734 0-1.224-.049-1.42l.098-.098h.832l.098.098c0 .05-.049.539-.049 1.42 1.86.147 3.133.44 3.818.93l.05.147c-.05.245-.099.44-.148.685-.049.245-.049.49-.098.881l-.097 1.175-.098.098h-.44l-.099-.098c0-.636-.098-1.273-.195-1.909-.686-.734-1.665-1.175-2.693-1.126v6.07c.734.098 1.518.245 2.252.44.538.147 1.028.343 1.468.686.392.294.735.685.93 1.126a4.24 4.24 0 0 1 .294 1.566c0 .881-.196 1.714-.587 2.497-.343.734-.93 1.321-1.567 1.762-.832.49-1.762.881-2.74 1.028 0 1.175.048 1.909.048 2.252l-.098.098h-.881l-.098-.098c0-.245.05-.98.05-2.203-1.518 0-2.987-.343-4.358-.93l-.098-.196Zm4.454-14.049c-.44.049-.881.196-1.273.392a2.827 2.827 0 0 0-.979 1.028 3.812 3.812 0 0 0-.44 1.81c0 .98.244 1.665.783 2.008.587.391 1.224.587 1.91.685v-5.923Zm.98 14.245c.831 0 1.663-.392 2.202-1.028.587-.685.881-1.567.881-2.497.049-.685-.196-1.321-.636-1.86-.44-.44-1.224-.783-2.448-.979v6.364ZM57.663 112.441c10.625 0 19.238-8.613 19.238-19.238s-8.613-19.238-19.237-19.238c-10.625 0-19.238 8.613-19.238 19.238s8.613 19.238 19.237 19.238Z" fill="#0A93FD"/><path d="M57.664 107.35c7.814 0 14.147-6.333 14.147-14.146 0-7.814-6.334-14.147-14.147-14.147-7.813 0-14.146 6.333-14.146 14.147 0 7.813 6.333 14.146 14.146 14.146ZM57.762 74.309h-.244v2.74h.244v-2.74ZM57.762 109.357h-.244v2.741h.244v-2.741ZM76.56 93.057h-2.742v.244h2.742v-.244ZM41.509 93.057h-2.741v.244h2.74v-.244ZM70.938 79.736 69 81.674l.173.173 1.938-1.938-.173-.174ZM46.14 104.494l-1.939 1.938.173.173 1.939-1.938-.174-.173ZM69.183 104.514l-.173.174 1.938 1.938.173-.173-1.938-1.939ZM44.394 79.751l-.173.173 1.938 1.939.173-.173-1.938-1.939ZM62.723 75.014l-.737 2.59.236.067.736-2.59-.235-.067ZM53.133 108.69l-.75 2.637.235.067.75-2.637-.236-.067ZM73.245 97.484l-.067.236 2.636.75.067-.236-2.636-.75ZM39.512 87.889l-.067.235 2.637.75.067-.235-2.637-.75ZM74.133 83.878l-2.395 1.333.12.214 2.394-1.333-.119-.214ZM43.493 100.964l-2.395 1.333.119.214 2.395-1.333-.119-.214ZM65.647 107.257l-.213.119 1.334 2.395.213-.119-1.334-2.395ZM48.567 76.622l-.214.12 1.334 2.394.214-.12-1.334-2.394ZM67.177 76.86l-1.396 2.359.21.124 1.397-2.359-.21-.124ZM49.316 106.992l-1.398 2.359.21.124 1.398-2.358-.21-.125ZM71.63 101.288l-.124.211 2.359 1.396.124-.21-2.358-1.397ZM41.476 83.472l-.124.21 2.358 1.397.125-.21-2.359-1.397ZM75.947 88.364l-2.656.68.06.237 2.656-.68-.06-.237ZM41.976 97.078l-2.656.68.061.237 2.656-.68-.061-.237ZM61.78 108.829l-.237.061.68 2.655.237-.061-.68-2.655ZM53.065 74.86l-.237.06.68 2.655.238-.06-.68-2.656Z" fill="#fff"/><path d="M52.475 99.176c.147-.832.244-1.91.342-3.28l.098-.098h.49l.098.098c0 1.175.049 1.86.049 2.056.44.44.93.783 1.468 1.077a5.12 5.12 0 0 0 1.91.392V92.91c-.637-.098-1.322-.196-1.959-.392a4.503 4.503 0 0 1-1.37-.685c-.392-.294-.686-.734-.882-1.175a4.312 4.312 0 0 1-.293-1.615c0-1.126.391-2.203 1.077-3.084.734-.93 1.86-1.469 3.377-1.713 0-.735 0-1.224-.049-1.469l.098-.098h.832l.098.098c0 .05 0 .539-.049 1.42 1.86.147 3.133.44 3.819.93l.049.147c-.05.244-.098.44-.147.685-.05.245-.05.49-.098.881l-.098 1.175-.098.098h-.44l-.098-.098c0-.636-.098-1.273-.196-1.91-.686-.734-1.665-1.125-2.693-1.125v6.07c.735.098 1.518.245 2.252.44a5.048 5.048 0 0 1 1.469.686c.391.293.734.685.93 1.126.196.49.294 1.028.294 1.566 0 .881-.196 1.713-.588 2.497a4.191 4.191 0 0 1-1.566 1.762c-.833.49-1.763.881-2.742 1.028 0 1.175.05 1.909.05 2.251l-.099.098h-.832l-.098-.098c0-.244.05-.979.05-2.202-1.518 0-2.987-.294-4.357-.93l-.098-.098Zm4.454-14.05c-.44.05-.88.148-1.273.392a2.827 2.827 0 0 0-.978 1.028 3.812 3.812 0 0 0-.441 1.811c0 .98.245 1.665.783 2.008.539.391 1.224.587 1.91.685v-5.923Zm.98 14.245c.831 0 1.664-.391 2.202-1.027.588-.686.881-1.567.881-2.497.05-.685-.196-1.322-.636-1.86-.44-.44-1.224-.783-2.448-.98v6.364Z" fill="#0A93FD"/><path d="M5.385 94.378h71.077c2.839 0 5.09 2.3 5.09 5.09v50.323c0 2.839-2.3 5.09-5.09 5.09H5.385c-2.84 0-5.091-2.3-5.091-5.09V99.469c-.05-2.84 2.251-5.091 5.09-5.091Z" fill="#AFAFAF"/><path d="M68.53 116.455h18.896v16.35H68.53c-4.504 0-8.126-3.672-8.126-8.175-.05-4.504 3.622-8.175 8.126-8.175Z" fill="#0A93FD"/><path d="M67.797 128.497a3.867 3.867 0 1 0 0-7.734 3.867 3.867 0 0 0 0 7.734Z" fill="#fff"/><path d="M56.195 48.805h2.546c3.377-21.735 21.44-38.28 44.839-38.133V8.175C78.81 8.028 59.622 25.7 56.195 48.805Z" fill="#0A93FD" stroke="#0A93FD" stroke-width="1.958" stroke-miterlimit="10"/><path d="m57.517 59.623 6.804-11.797H50.664l6.853 11.797Z" fill="#0A93FD"/><path d="M113.565 59.67c-3.769 0-7.588-.831-11.161-2.642l-.147-.098-2.888-1.567c-2.496-1.37-3.427-4.552-2.056-7.049 1.37-2.496 4.552-3.426 7.049-2.056l2.79 1.518c7.049 3.524 15.713.685 19.385-6.266l3.965-7.538c1.322-2.546 4.454-3.525 7-2.203 2.545 1.322 3.524 4.454 2.203 7l-3.965 7.538c-4.406 8.518-13.168 13.364-22.175 13.364Z" fill="#AFAFAF"/><path d="M105.296 78.909c11.463 0 20.756-9.293 20.756-20.755 0-11.463-9.293-20.756-20.756-20.756-11.463 0-20.755 9.293-20.755 20.756 0 11.462 9.293 20.755 20.755 20.755Z" fill="#0A93FD"/><path d="M105.298 73.377c8.408 0 15.224-6.816 15.224-15.223 0-8.408-6.816-15.224-15.224-15.224-8.408 0-15.224 6.816-15.224 15.224 0 8.407 6.816 15.223 15.224 15.223ZM105.446 37.791h-.245v2.937h.245v-2.937ZM105.446 75.63h-.245v2.937h.245V75.63ZM125.71 58.008h-2.937v.245h2.937v-.245ZM87.87 58.008h-2.936v.245h2.937v-.245ZM119.647 43.635l-2.077 2.077.173.173 2.077-2.077-.173-.173ZM92.887 70.419l-2.076 2.077.173.173 2.076-2.077-.173-.173ZM117.722 70.411l-.173.174 2.077 2.076.173-.173-2.077-2.077ZM90.972 43.68l-.173.173 2.077 2.077.173-.173-2.077-2.077ZM110.785 38.52l-.803 2.826.236.067.803-2.825-.236-.068ZM100.41 74.886l-.803 2.825.236.067.803-2.825-.236-.067ZM122.151 62.808l-.067.236 2.825.803.067-.235-2.825-.804ZM85.723 52.466l-.067.235 2.825.804.067-.236-2.825-.803ZM123.052 48.113l-2.566 1.429.119.214 2.566-1.429-.119-.214ZM90.027 66.552l-2.566 1.427.119.214 2.566-1.428-.119-.213ZM113.927 73.353l-.214.119 1.429 2.566.214-.12-1.429-2.565ZM95.499 40.267l-.214.119 1.43 2.566.213-.12-1.429-2.565ZM115.594 40.567l-1.496 2.527.21.125 1.496-2.527-.21-.125ZM96.32 73.084l-1.498 2.526.21.125 1.498-2.527-.21-.124ZM120.379 66.96l-.125.211 2.527 1.496.125-.21-2.527-1.496ZM87.816 47.67l-.125.21 2.528 1.497.124-.21-2.527-1.497ZM125.038 52.996l-2.845.729.061.237 2.845-.729-.061-.237ZM88.365 62.346l-2.846.728.061.237 2.845-.728-.06-.237ZM109.776 75.058l-.237.06.729 2.846.237-.061-.729-2.845ZM100.38 38.387l-.237.06.729 2.846.237-.06-.729-2.846Z" fill="#fff"/><path d="M99.764 64.615c.147-.88.245-2.056.342-3.524l.098-.098h.539l.098.098c.049 1.273.049 2.007.098 2.203.489.49 1.028.88 1.566 1.174.539.245 1.224.392 2.056.392v-7c-.881-.147-1.566-.245-2.105-.392a4.142 4.142 0 0 1-1.468-.734c-.441-.343-.735-.783-.979-1.273-.196-.49-.294-1.076-.294-1.713 0-1.224.391-2.35 1.175-3.328.783-.98 2.007-1.567 3.622-1.86 0-.784-.049-1.322-.049-1.567l.147-.098h.881l.147.098c0 .049-.049.587-.049 1.517 2.007.147 3.378.49 4.112 1.028l.049.147-.147.734c-.049.245-.049.539-.098.93l-.098 1.273-.098.098h-.489l-.098-.098c-.049-.832-.098-1.468-.196-2.056-.685-.783-1.664-1.175-2.937-1.223v6.51c1.028.147 1.811.294 2.399.44a4.21 4.21 0 0 1 1.566.735c.441.343.783.734.979 1.224.196.49.343 1.028.343 1.664 0 .979-.196 1.86-.637 2.692-.44.833-.979 1.469-1.713 1.91-.685.489-1.664.832-2.937 1.076 0 1.273.049 2.056.098 2.448l-.098.098h-.93l-.147-.098c0-.294.049-1.077.049-2.399-1.762-.049-3.329-.342-4.7-.979l-.097-.049Zm4.797-15.174a3.76 3.76 0 0 0-1.371.391c-.391.196-.734.587-1.077 1.126-.293.538-.44 1.175-.44 1.958 0 1.028.294 1.762.832 2.154.539.392 1.273.636 2.056.734V49.44Zm1.028 15.37c.979-.049 1.762-.392 2.35-1.126.636-.734.93-1.615.93-2.692 0-.832-.245-1.469-.686-1.958-.44-.49-1.321-.832-2.594-1.028v6.804Z" fill="#0A93FD"/><path d="M167.363 37.69c.343-3.475-2.448-6.51-5.923-6.314-.979.049-2.105.244-3.427.685-2.496.832-5.335 1.224-8.272 1.468-3.672-.097-7.392-.391-10.574-1.468-1.273-.44-2.398-.636-3.426-.685-3.476-.196-6.266 2.888-5.923 6.314l.244 2.203 4.993 41.364 30.252.636 2.056-44.203Z" fill="#AFAFAF"/><path d="M189.148 122.474c-16.888-16.056-24.525-34.903-25.161-55.168-1.42-2.84-4.846-4.014-7.685-2.644-2.84 1.42-4.944 5.287-3.525 8.175 1.86 22.077 10.867 41.119 27.804 56.832l-4.699 2.105c-2.937 1.224-4.308 4.602-3.084 7.539 1.224 2.937 4.602 4.307 7.539 3.084l12.874-5.972c5.091-3.525-.392-10.329-4.063-13.951ZM140 143.033a4.275 4.275 0 0 0 4.161-3.819l1.958-68.286c.391-3.182-1.909-6.021-5.042-6.413-3.133-.391-6.021 1.91-6.413 5.042l-1.224 62.119-6.412.196c-3.182.098-5.727 2.79-5.581 6.021.147 3.182 2.938 5.58 6.119 5.482l12.434-.342ZM148.664 28.683c7.814 0 14.147-6.334 14.147-14.147 0-7.813-6.333-14.147-14.147-14.147-7.813 0-14.146 6.334-14.146 14.147 0 7.813 6.333 14.147 14.146 14.147Z" fill="#AFAFAF"/><path d="M130.455 69.657c-.637 0-1.224 0-1.86-.048l-10.819-.833c-2.839-.195-4.993-2.692-4.797-5.58.196-2.84 2.741-4.993 5.581-4.797l10.818.832c7.881.587 14.881-5.336 15.615-13.217.245-2.84 2.79-4.944 5.63-4.7 2.839.245 4.944 2.791 4.699 5.63-1.224 12.874-12.189 22.713-24.867 22.713Z" fill="#AFAFAF"/><path d="M152.824 14.05c.811 0 1.469-.79 1.469-1.763 0-.973-.658-1.762-1.469-1.762s-1.469.789-1.469 1.762.658 1.762 1.469 1.762ZM141.125 14.05c.811 0 1.468-.79 1.468-1.763 0-.973-.657-1.762-1.468-1.762-.811 0-1.469.789-1.469 1.762s.658 1.762 1.469 1.762ZM151.747 19.825c-.245.98-.881 1.91-1.762 2.595-.882.636-1.959 1.028-3.035 1.028-.294 0-.539 0-.833-.05l-.391-.048c-.147-.05-.245-.098-.392-.147l-.391-.147c-.147-.049-.245-.147-.343-.196l-.343-.196-.342-.244c-.833-.686-1.469-1.616-1.763-2.595.637.832 1.322 1.518 2.154 2.007.832.49 1.713.735 2.644.735.93 0 1.86-.245 2.692-.735.783-.44 1.517-1.175 2.105-2.007Z" fill="#fff"/></svg>