<svg width="293" height="153" fill="none" xmlns="http://www.w3.org/2000/svg"><g clip-path="url('#clip0_249_320')"><path d="M231.323 138.111h-64.751c1.425-8.784-.926-16.258-7.65-22.121a21.958 21.958 0 0 0-15.367-5.456 22.28 22.28 0 0 0-12.523 4.093 22.572 22.572 0 0 0-8.189 10.308 23.357 23.357 0 0 0-1.15 13.222h-12.747c-2.54 0-4.022-1.432-4.022-4.024-.035-3.927 0-7.859 0-11.785 0-2.817.074-5.634 0-8.451a10.218 10.218 0 0 1 3.12-7.732c2.943-3.018 6.563-5.012 10.448-6.45 3.885-1.437 8.046-2.57 12.034-3.88a3.269 3.269 0 0 0 1.489-.971 6291.841 6291.841 0 0 0 18.724-23.88 23.815 23.815 0 0 1 2.155-2.409 7.546 7.546 0 0 1 5.425-2.156h59.016c2.747 0 5 1.219 6.925 3.064 1.926 1.846 3.701 3.702 5.535 5.57 6.482 6.615 12.971 13.228 19.465 19.84.478.468 1.073.8 1.724.96 9.534 2.213 19 4.684 28.051 8.49 3.598 1.518 7.103 3.219 10.126 5.749a18.1 18.1 0 0 1 2.38 2.454 6.424 6.424 0 0 1 1.436 4.191v17.585c0 2.461-1.396 3.835-3.839 3.84h-12.999c1.379-8.1-.529-15.113-6.23-20.896a21.873 21.873 0 0 0-16.236-6.726 22.094 22.094 0 0 0-17.712 8.485c-4.523 5.553-5.913 11.974-4.638 19.086Zm-40.66-42.466h42.022c.424.018.849 0 1.27-.051.868-.156 1.259-.788.886-1.587a6.503 6.503 0 0 0-1.19-1.776c-4.322-4.421-8.621-8.865-13.04-13.222a11.136 11.136 0 0 0-8.184-3.398c-15.9.073-31.8.073-47.7 0a8.781 8.781 0 0 0-7.121 3.323c-3.62 4.392-7.091 8.905-10.603 13.394-.575.719-1.103 1.564-.621 2.524.483.96 1.437.759 2.299.765l41.982.028Z" fill="#AFAFAF"/><path d="M144.134 113.68a19.65 19.65 0 0 1 18.129 12.203 19.67 19.67 0 0 1-4.349 21.42 19.652 19.652 0 0 1-30.239-3.13 19.657 19.657 0 0 1-3.253-10.948 19.656 19.656 0 0 1 5.814-13.851 19.637 19.637 0 0 1 13.898-5.694Zm-10.103 19.689a10.1 10.1 0 0 0 12.068 9.895 10.097 10.097 0 0 0 7.932-7.93 10.101 10.101 0 0 0-9.885-12.077 10.113 10.113 0 0 0-10.115 10.112ZM253.742 113.68a19.652 19.652 0 0 1 18.149 12.183 19.665 19.665 0 0 1-14.424 26.776 19.655 19.655 0 0 1-23.408-19.414 19.652 19.652 0 0 1 19.683-19.545Zm10.086 19.689a10.095 10.095 0 0 0-6.24-9.346 10.094 10.094 0 0 0-13.767 7.399 10.102 10.102 0 0 0 4.345 10.363 10.098 10.098 0 0 0 5.628 1.673 10.126 10.126 0 0 0 7.089-2.983 10.127 10.127 0 0 0 2.945-7.106Z" fill="#AFAFAF"/><path d="M134.033 133.368a10.106 10.106 0 0 1 6.21-9.368 10.091 10.091 0 0 1 11.024 2.176 10.1 10.1 0 0 1 2.187 11.024 10.101 10.101 0 0 1-9.358 6.222 10.12 10.12 0 0 1-10.063-10.054ZM263.828 133.368a10.095 10.095 0 0 1-17.211 7.192 10.1 10.1 0 0 1 7.062-17.269 10.123 10.123 0 0 1 10.149 10.077Z" fill="#fff"/><path d="M48.352 76.28C62.281 65.19 65.695 46.3 55.977 34.09c-9.717-12.212-28.886-13.12-42.815-2.03C-.767 43.15-4.181 62.04 5.537 74.251c9.717 12.212 28.886 13.12 42.815 2.03Z" fill="#AFAFAF"/><path d="M70.524 41.032c11.033-8.784 13.766-23.711 6.105-33.34-7.662-9.627-22.817-10.31-33.85-1.526-11.034 8.785-13.767 23.712-6.105 33.34 7.661 9.628 22.817 10.312 33.85 1.526ZM52.24 107.927c10.331-8.226 12.645-22.51 5.17-31.904-7.476-9.395-21.911-10.342-32.242-2.117-10.33 8.226-12.645 22.51-5.169 31.904 7.476 9.395 21.911 10.342 32.242 2.117Z" fill="#AFAFAF"/><path d="M104.823 56.794c12.287-9.784 13.966-28.122 3.751-40.959C98.358 2.998 80.116.522 67.828 10.305c-12.287 9.784-13.967 28.122-3.75 40.96 10.215 12.837 28.457 15.312 40.745 5.529Z" fill="#AFAFAF"/><path d="M97.544 85.743c11.895-9.471 13.357-27.429 3.266-40.11C90.719 32.953 72.896 30.35 61 39.822c-11.894 9.47-13.357 27.428-3.265 40.11 10.09 12.68 27.914 15.282 39.809 5.811ZM37.392 58.154c.549-.437.74-1.109.428-1.501-.312-.393-1.01-.357-1.559.08-.549.437-.74 1.11-.428 1.502.312.392 1.01.356 1.559-.08ZM40.286 123.456c4.46-3.552 5.4-9.793 2.098-13.942-3.3-4.148-9.593-4.632-14.053-1.081-4.46 3.551-5.4 9.793-2.098 13.941 3.301 4.149 9.593 4.633 14.053 1.082Z" fill="#AFAFAF"/><path d="M62.39 130.869c6.653-5.297 7.552-15.239 2.007-22.207s-15.433-8.322-22.086-3.025c-6.652 5.297-7.55 15.24-2.006 22.208 5.545 6.967 15.433 8.321 22.086 3.024Z" fill="#AFAFAF"/><path d="M62.527 115.019c10.103 0 18.293-8.193 18.293-18.298 0-10.106-8.19-18.298-18.293-18.298S44.234 86.615 44.234 96.72c0 10.105 8.19 18.298 18.293 18.298Z" fill="#AFAFAF"/><path d="M61.63 128.464c-4.298-5.403-2.712-13.825 3.552-18.809 6.264-4.984 14.822-4.645 19.115.759.96 1.201 4.5 3.495 8.206 5.714a4.911 4.911 0 0 1 2.353 4.802 4.914 4.914 0 0 1-3.422 4.108c-4.655 1.449-9.31 3.081-10.69 4.179-6.258 4.984-14.82 4.645-19.114-.753ZM111.43 118.025H98.935v10.509h12.495v-10.509Z" fill="#AFAFAF"/><path d="M100.406 28.915 63.378 65.959 99.01 101.6l-9.454 9.457-35.632-35.642-37.355 37.366-10.075-10.1L43.85 65.315 8.218 29.673l9.46-9.427 35.631 35.641L90.337 18.85l10.069 10.066Z" fill="#0A93FD"/></g><defs><clipPath id="clip0_249_320"><path fill="#fff" d="M0 0h293v153H0z"/></clipPath></defs></svg>