<svg width="202" height="175" fill="none" xmlns="http://www.w3.org/2000/svg"><g clip-path="url('#clip0_249_850')"><path d="M8.112 118.478a6.687 6.687 0 0 1-4.058-1.669 6.702 6.702 0 0 1-2.153-3.825C-1.32 95.082-.43 77.615 4.628 61.051c1.036-11.28 9.625-19.229 20.308-18.632l26.55 1.487 5.594-1.767a50.844 50.844 0 0 0 26.498-19.647l7.682-11.215a6.704 6.704 0 0 1 12.121 2.566 6.714 6.714 0 0 1-1.063 5.023l-7.687 11.21a64.351 64.351 0 0 1-33.52 24.846l-7.928 2.503-28.988-1.61c-4.295-.243-6.06 3.55-6.243 6.874l-.049.833-.252.8c-4.606 14.69-5.465 30.26-2.56 46.272a6.705 6.705 0 0 1-5.369 7.793 6.536 6.536 0 0 1-1.61.091Z" fill="#0A93FD"/><path d="m14.902 174.995 4.896-87.731a6.708 6.708 0 0 1 4.476-5.955 6.698 6.698 0 0 1 8.54 4.11c.291.832.416 1.712.367 2.591l-4.107 73.584h11.274a6.708 6.708 0 0 1 6.71 6.714 6.716 6.716 0 0 1-6.71 6.714l-25.446-.027ZM52.807 173.071 38.849 89.82a6.714 6.714 0 0 1 1.147-5.005 6.704 6.704 0 0 1 12.075 2.77l12.041 71.843 7.473-.161a6.715 6.715 0 0 1 .284 13.428l-19.062.376Z" fill="#0A93FD"/><path d="m19.143 103.544-1.336-49.027 40.191-1.832-3.72 48.405-35.135 2.454ZM37.824 39.97c10.21 0 18.488-8.281 18.488-18.497 0-10.217-8.277-18.498-18.488-18.498-10.21 0-18.488 8.281-18.488 18.498 0 10.216 8.277 18.498 18.488 18.498Z" fill="#0A93FD"/><path d="M195.053 113.924a6.696 6.696 0 0 0 5.905-5.8c2.362-18.036.585-35.45-5.288-51.734-1.61-11.205-10.559-18.724-21.199-17.601l-26.443 2.793-5.669-1.494a50.86 50.86 0 0 1-27.442-18.31l-8.203-10.817a6.698 6.698 0 0 0-11.97 3.16 6.706 6.706 0 0 0 1.309 4.961l8.229 10.817a64.344 64.344 0 0 0 34.7 23.16l8.052 2.111 28.871-3.072c4.294-.451 6.227 3.223 6.576 6.558l.091.833.29.784c5.32 14.448 6.952 29.954 4.831 46.089a6.718 6.718 0 0 0 4.381 7.158 6.7 6.7 0 0 0 2.974.361l.005.043Z" fill="#AFAFAF"/><path d="m191.06 170.703-9.217-87.382a6.7 6.7 0 0 0-11.834-3.46 6.706 6.706 0 0 0-1.49 4.867l7.725 73.289-11.246.537a6.687 6.687 0 0 0-4.634 2.196 6.7 6.7 0 0 0-1.088 7.368 6.698 6.698 0 0 0 6.387 3.826l25.397-1.241ZM153.106 170.656l9.834-83.853a6.703 6.703 0 0 0-5.872-7.439 6.697 6.697 0 0 0-7.435 5.876l-8.487 72.343-7.473.215a6.694 6.694 0 0 0-6.069 4.312 6.7 6.7 0 0 0 .145 5.128 6.704 6.704 0 0 0 6.305 3.961l19.052-.543Z" fill="#AFAFAF"/><path d="m183.298 99.546-1.079-49.032-40.235.155 6.104 48.163 35.21.714ZM160.596 36.996c10.21 0 18.488-8.282 18.488-18.498C179.084 8.282 170.806 0 160.596 0c-10.211 0-18.489 8.282-18.489 18.498 0 10.216 8.278 18.498 18.489 18.498Z" fill="#AFAFAF"/><path d="M34.347 22.273c1.031 0 1.868-1.005 1.868-2.245 0-1.24-.837-2.245-1.868-2.245-1.032 0-1.869 1.005-1.869 2.245 0 1.24.837 2.245 1.869 2.245ZM49.227 22.273c1.032 0 1.869-1.005 1.869-2.245 0-1.24-.837-2.245-1.868-2.245-1.032 0-1.869 1.005-1.869 2.245 0 1.24.837 2.245 1.868 2.245ZM35.746 29.615A8.356 8.356 0 0 0 38.43 32.2a6.928 6.928 0 0 0 3.441.945 6.38 6.38 0 0 0 3.393-.95 10.2 10.2 0 0 0 2.722-2.579 6.826 6.826 0 0 1-2.244 3.271l-.403.317-.456.252c-.156.081-.306.167-.462.242l-.494.183c-.166.054-.327.118-.499.156l-.537.09a4.895 4.895 0 0 1-1.073.087 6.53 6.53 0 0 1-3.876-1.321 6.037 6.037 0 0 1-2.196-3.277ZM164.819 20.479c1.032 0 1.868-1.006 1.868-2.246s-.836-2.245-1.868-2.245c-1.031 0-1.868 1.005-1.868 2.245 0 1.24.837 2.245 1.868 2.245ZM149.94 20.479c1.032 0 1.869-1.006 1.869-2.246s-.837-2.245-1.869-2.245c-1.031 0-1.868 1.005-1.868 2.245 0 1.24.837 2.245 1.868 2.245ZM163.42 27.822a6.057 6.057 0 0 1-2.234 3.277 6.526 6.526 0 0 1-3.897 1.32c-.36.012-.72-.017-1.073-.085l-.537-.091c-.172-.038-.333-.102-.5-.156l-.493-.183c-.156-.075-.306-.16-.462-.241l-.451-.253-.408-.322a6.789 6.789 0 0 1-2.244-3.266 10.193 10.193 0 0 0 2.722 2.578 6.374 6.374 0 0 0 3.446.946 6.86 6.86 0 0 0 3.414-.94 8.406 8.406 0 0 0 2.717-2.584Z" fill="#fff"/></g><defs><clipPath id="clip0_249_850"><path fill="#fff" d="M0 0h202v175H0z"/></clipPath></defs></svg>