<svg width="239" height="152" fill="none" xmlns="http://www.w3.org/2000/svg"><g clip-path="url('#clip0_249_1283')" filter="url('#filter0_dd_249_1283')"><path d="M161.583 125.402H84.505c1.698-10.454-1.11-19.349-9.105-26.323-5.205-4.54-11.375-6.659-18.311-6.493a26.512 26.512 0 0 0-14.887 4.867 26.898 26.898 0 0 0-9.75 12.268c-2.025 5.044-2.352 10.26-1.348 15.736H15.917c-3.03 0-4.794-1.703-4.822-4.761-.039-4.677 0-9.355 0-14.027 0-3.329.084-6.708 0-10.054-.122-3.684 1.293-6.659 3.796-9.233 3.462-3.596 7.78-5.949 12.412-7.658 4.633-1.709 9.555-3.057 14.327-4.616.687-.217 1.3-.62 1.77-1.165 7.45-9.448 14.88-18.918 22.29-28.41a28.665 28.665 0 0 1 2.563-2.869 8.995 8.995 0 0 1 6.464-2.563h70.248c3.262 0 5.953 1.443 8.239 3.64 2.286 2.197 4.406 4.406 6.592 6.658 7.72 7.872 15.442 15.742 23.166 23.61a4.502 4.502 0 0 0 2.064 1.143c11.353 2.636 22.617 5.549 33.393 10.105 4.283 1.803 8.456 3.828 12.052 6.83a22.084 22.084 0 0 1 2.835 2.924 7.602 7.602 0 0 1 1.709 4.994v20.93c0 2.924-1.664 4.567-4.572 4.572H214.94c1.664-9.632-.622-17.978-7.413-24.858a26.03 26.03 0 0 0-19.31-8.046c-8.584.056-15.675 3.463-21.085 10.099s-7.069 14.249-5.549 22.7Zm-48.396-50.538h50.016a8.609 8.609 0 0 0 1.515-.061c1.032-.183 1.493-.932 1.054-1.887a7.757 7.757 0 0 0-1.42-2.108c-5.144-5.266-10.271-10.543-15.537-15.715a13.275 13.275 0 0 0-9.721-4.045 6054.67 6054.67 0 0 1-56.797 0 10.42 10.42 0 0 0-8.478 3.946c-4.306 5.227-8.44 10.603-12.618 15.941-.672.86-1.316 1.865-.738 3.008.577 1.143 1.703.904 2.707.904l50.017.017Z" fill="#AFAFAF"/><path d="M57.824 96.337A23.39 23.39 0 0 1 79.4 110.853a23.392 23.392 0 0 1-41.158 21.778 23.39 23.39 0 0 1-3.878-13.023 23.388 23.388 0 0 1 23.46-23.271Zm-12.047 23.432a12.011 12.011 0 0 0 14.355 11.766 12.01 12.01 0 0 0 8.765-16.36 12.017 12.017 0 0 0-11.073-7.435 12.05 12.05 0 0 0-12.047 12.029ZM188.269 96.343a23.396 23.396 0 0 1 22.9 28.011 23.39 23.39 0 0 1-18.437 18.34 23.393 23.393 0 1 1-4.463-46.351Zm12.007 23.388a12.017 12.017 0 0 0-23.814-2.315 12.018 12.018 0 0 0 11.868 14.323 12.052 12.052 0 0 0 11.946-12.008Z" fill="#AFAFAF"/><path d="M45.777 119.768a12.012 12.012 0 0 1 23.797-2.376 12.015 12.015 0 0 1-11.817 14.35 12.034 12.034 0 0 1-11.98-11.974ZM200.277 119.729a12.013 12.013 0 0 1-14.332 11.821 12.013 12.013 0 0 1-9.467-9.415 12.022 12.022 0 0 1 5.073-12.351 12.012 12.012 0 0 1 6.669-2.046 12.05 12.05 0 0 1 12.057 11.991Z" fill="#fff"/><path d="M18.876 101.509H4v12.502h14.876v-12.502Z" fill="#AFAFAF"/><path d="M112.245 5.403h-41.15v34.602h41.15V5.403Z" fill="#0A93FD"/><path d="M112.245 5.403h-41.15v10.404h41.15V5.403Z" fill="#fff"/><path d="M113.184 5.403h-43.02v7.924h43.02V5.403ZM146.735.414h-30.551v39.59h30.551V.415Z" fill="#0A93FD"/><path d="M146.735.414h-30.551v11.653h30.551V.414Z" fill="#fff"/><path d="M147.824.182h-32.732v9.51h32.732V.182Z" fill="#0A93FD"/><path d="M96.889 5.299h-9.455v16.313h9.455V5.3ZM134.979 0h-7.485v13.95h7.485V0Z" fill="#fff"/></g><defs><clipPath id="clip0_249_1283"><path fill="#fff" transform="translate(4)" d="M0 0h231v143.124H0z"/></clipPath><filter id="filter0_dd_249_1283" x="0" y="0" width="239" height="151.125" filterUnits="userSpaceOnUse" color-interpolation-filters="sRGB"><feFlood flood-opacity="0" result="BackgroundImageFix"/><feColorMatrix in="SourceAlpha" values="0 0 0 0 0 0 0 0 0 0 0 0 0 0 0 0 0 0 127 0" result="hardAlpha"/><feOffset dy="4"/><feGaussianBlur stdDeviation="2"/><feComposite in2="hardAlpha" operator="out"/><feColorMatrix values="0 0 0 0 0 0 0 0 0 0 0 0 0 0 0 0 0 0 0.25 0"/><feBlend in2="BackgroundImageFix" result="effect1_dropShadow_249_1283"/><feColorMatrix in="SourceAlpha" values="0 0 0 0 0 0 0 0 0 0 0 0 0 0 0 0 0 0 127 0" result="hardAlpha"/><feOffset dy="4"/><feGaussianBlur stdDeviation="2"/><feComposite in2="hardAlpha" operator="out"/><feColorMatrix values="0 0 0 0 0 0 0 0 0 0 0 0 0 0 0 0 0 0 0.25 0"/><feBlend in2="effect1_dropShadow_249_1283" result="effect2_dropShadow_249_1283"/><feBlend in="SourceGraphic" in2="effect2_dropShadow_249_1283" result="shape"/></filter></defs></svg>