<svg width="293" height="95" fill="none" xmlns="http://www.w3.org/2000/svg"><g clip-path="url('#clip0_249_987')"><path d="M136.201 48.135c7.207 0 13.049-6.222 13.049-13.897 0-7.674-5.842-13.896-13.049-13.896-7.206 0-13.049 6.222-13.049 13.896 0 7.675 5.843 13.897 13.049 13.897Z" fill="#0A93FD"/><path d="M133.855 31.678a21.574 21.574 0 0 0 2.34 5.376c3.971.238 7.936.766 11.913.595.264-1.117.397-2.261.397-3.41a14.598 14.598 0 0 0-1.301-6.048c-.49.384-1.008.73-1.549 1.035-3.589 2.033-7.782 2.199-11.8 2.453Z" fill="#fff"/><path d="M6.061 7.291 38.087.079a3.093 3.093 0 0 1 3.494 1.676c.202.42.307.883.307 1.35v13.768A2.657 2.657 0 0 1 39.9 19.46l-10.896 2.788-.33 18.357s26.913.662 27.136 0c.222-.663 22.54-19.733 39.823-21.704 0-2.313 1.849-6.369 4.157-6.41l13.813-.233a5.767 5.767 0 0 1 5.433 3.549c.297.71.449 1.47.449 2.24v17.756s-.656 8.796 7.229 8.992c5.133.14 15.006-.088 21.264-.264a8.767 8.767 0 0 0 4.707-1.539 8.79 8.79 0 0 0 3.127-3.846l.589-1.397a5.552 5.552 0 0 1 6.418-3.27c19.891 4.713 97.441 24.42 104.598 26.976 11.051 3.947 36.767 18.625 20.139 21.926-16.627 3.3-236.554 0-236.554 0L5.106 73.21a6.516 6.516 0 0 1-3.844-2.49 6.538 6.538 0 0 1-1.263-4.407l1.55-18.864a6.53 6.53 0 0 1 1.965-4.174 6.505 6.505 0 0 1 4.23-1.827l7.84-.383.66-16.328-6.883 1.278a2.645 2.645 0 0 1-1.973-.398 2.654 2.654 0 0 1-1.125-1.672L3.68 11.125a3.11 3.11 0 0 1 1.228-3.341 3.095 3.095 0 0 1 1.152-.493Z" fill="#0A93FD"/><path d="m6.09 44.303 24.894-1.174.13-2.773-23.408 1.091a6.505 6.505 0 0 0-3.784 1.443 6.525 6.525 0 0 0-2.201 3.405 6.486 6.486 0 0 1 4.368-1.992ZM98.18 15.366l13.813-.253a5.758 5.758 0 0 1 4.154 1.657 5.786 5.786 0 0 1 1.727 4.132v17.756s-.656 8.796 7.23 8.992c5.132.145 15.006-.088 21.264-.264a8.768 8.768 0 0 0 4.706-1.537 8.791 8.791 0 0 0 3.128-3.843l.268-.647a8.777 8.777 0 0 1-6.491 3.172c-6.258.175-16.132.403-21.264.264-7.88-.223-7.23-8.992-7.23-8.992V18.046a5.782 5.782 0 0 0-5.881-5.79l-13.814.254c-1.61.026-2.995 2.018-3.687 4a2.986 2.986 0 0 1 2.076-1.144ZM267.413 61.456c-7.157-2.556-84.686-22.247-104.598-26.976a5.552 5.552 0 0 0-3.814.462 5.57 5.57 0 0 0-2.605 2.828l-.48 1.138a5.555 5.555 0 0 1 5.283-1.552c19.896 4.719 97.446 24.425 104.603 26.981 8.319 2.97 24.946 12.03 25.561 17.725 7.725-4.852-14.02-17.062-23.95-20.606ZM4.45 10.147l32.016-7.212a3.093 3.093 0 0 1 3.51 1.686c.202.425.305.89.301 1.361v13.354a2.646 2.646 0 0 0 1.617-2.442l-.006-13.789a3.109 3.109 0 0 0-1.17-2.433 3.096 3.096 0 0 0-2.63-.593L6.072 7.29a3.108 3.108 0 0 0-2.458 3.171c.263-.144.544-.25.837-.315Z" fill="#AFAFAF"/><path d="M115.908 13.452V39.43s-.691 9.235 7.607 9.462c5.406.156 19.411-.088 26-.274a9.224 9.224 0 0 0 4.968-1.625 9.256 9.256 0 0 0 3.294-4.066l.614-1.474c1.11-2.65 2.505-4.103 5.298-3.44 20.945 4.966 102.616 25.718 110.155 28.408a91.573 91.573 0 0 1 16.049 7.978c-5.329-5.091-16.23-10.736-22.468-12.965-7.157-2.556-84.686-22.247-104.598-26.976a5.553 5.553 0 0 0-6.429 3.31l-.589 1.398a8.789 8.789 0 0 1-3.126 3.846 8.767 8.767 0 0 1-4.707 1.54c-6.259.176-16.132.403-21.265.264-7.88-.223-7.229-8.992-7.229-8.992V18.047a5.802 5.802 0 0 0-3.615-5.381 5.3 5.3 0 0 1 .041.786Z" fill="#AFAFAF"/><path d="M226.278 95.002c15.469 0 28.009-12.564 28.009-28.063 0-15.498-12.54-28.062-28.009-28.062-15.469 0-28.008 12.564-28.008 28.062 0 15.499 12.539 28.063 28.008 28.063Z" fill="#AFAFAF"/><path d="M226.278 85.79c10.392 0 18.817-8.44 18.817-18.853 0-10.412-8.425-18.853-18.817-18.853s-18.817 8.44-18.817 18.853c0 10.412 8.425 18.853 18.817 18.853Z" fill="#fff"/><path d="M33.71 95.002c15.468 0 28.008-12.564 28.008-28.063 0-15.498-12.54-28.062-28.008-28.062C18.24 38.877 5.7 51.441 5.7 66.939c0 15.499 12.54 28.063 28.009 28.063Z" fill="#AFAFAF"/><path d="M33.708 85.79c10.392 0 18.817-8.44 18.817-18.853 0-10.412-8.425-18.853-18.817-18.853-10.393 0-18.817 8.44-18.817 18.853 0 10.412 8.424 18.853 18.817 18.853ZM96.048 49.973c.289 4.988.454 9.975.635 14.963-.006 1.21.063 2.42.206 3.621a7.614 7.614 0 0 0 2.415 4.297 7.588 7.588 0 0 0 4.536 1.912l14.851-.181 14.949-.083 14.939.067 14.851.186a7.602 7.602 0 0 0 4.53-1.916 7.623 7.623 0 0 0 2.415-4.292c.141-1.202.21-2.412.207-3.622.181-4.987.346-9.975.635-14.962.289 4.987.455 9.975.635 14.962l.052 1.873V68.283l-.062.517a9.224 9.224 0 0 1-1.384 3.819 9.362 9.362 0 0 1-6.852 4.18c-.336 0-.718.062-1.033.062h-.935l-1.869.041-3.733.047-7.467.093-14.929.047-14.934-.073-7.472-.088-3.733-.051-1.864-.037h-.935c-.299 0-.682-.036-1.033-.056a9.331 9.331 0 0 1-6.847-4.18 9.152 9.152 0 0 1-1.389-3.82l-.062-.517v-1.484l.052-1.873c.186-4.962.356-9.95.625-14.937Z" fill="#fff"/></g><defs><clipPath id="clip0_249_987"><path fill="#fff" d="M0 0h293v95H0z"/></clipPath></defs></svg>