<svg width="293" height="145" fill="none" xmlns="http://www.w3.org/2000/svg"><g clip-path="url('#clip0_249_396')"><path d="M61.818 145c34.14 0 61.817-27.723 61.817-61.92 0-34.198-27.677-61.92-61.818-61.92C27.678 21.16 0 48.881 0 83.08 0 117.277 27.677 145 61.818 145Z" fill="#AFAFAF"/><path d="M61.818 128.569c25.08 0 45.413-20.366 45.413-45.49 0-25.122-20.332-45.488-45.413-45.488-25.081 0-45.414 20.366-45.414 45.489 0 25.123 20.333 45.489 45.414 45.489ZM62.304 22.237h-.974v8.743h.974v-8.743ZM62.304 135.175h-.974v8.742h.974v-8.742ZM122.558 82.592h-8.728v.976h8.728v-.976ZM9.804 82.592H1.076v.976h8.728v-.976ZM104.424 39.714l-6.172 6.181.689.69 6.171-6.181-.688-.69ZM24.697 119.569l-6.172 6.182.69.69 6.17-6.182-.688-.69ZM98.939 119.572l-.689.69 6.172 6.182.688-.69-6.171-6.182ZM19.216 39.712l-.689.69 6.172 6.182.689-.69-6.172-6.182ZM77.969 24.425l-2.387 8.409.937.267 2.387-8.41-.937-.266ZM47.12 133.062l-2.388 8.41.937.267 2.387-8.41-.937-.267ZM111.974 96.86l-.267.94 8.395 2.392.267-.939-8.395-2.392ZM3.526 65.958l-.266.94 8.395 2.392.267-.94-8.396-2.392ZM114.647 53.054l-7.627 4.25.473.853 7.627-4.25-.473-.853ZM16.143 108.008l-7.627 4.251.473.852 7.627-4.25-.473-.853ZM87.552 128.361l-.85.475 4.247 7.638.85-.475-4.247-7.638ZM32.683 29.692l-.851.475 4.248 7.638.85-.475-4.247-7.638ZM92.346 30.48 87.896 38l.838.497 4.45-7.52-.838-.498ZM34.905 127.672l-4.45 7.521.838.498 4.45-7.521-.838-.498ZM106.824 109.206l-.496.84 7.51 4.454.497-.839-7.511-4.455ZM9.799 51.663l-.496.84 7.51 4.454.496-.84-7.51-4.454ZM120.538 67.507l-8.456 2.169.242.946 8.456-2.169-.242-.946ZM11.313 95.54l-8.456 2.168.242.946 8.456-2.168-.242-.946ZM75.203 133.426l-.943.242 2.166 8.469.944-.242-2.167-8.469ZM47.215 24.026l-.944.243 2.167 8.469.943-.242-2.166-8.47Z" fill="#fff"/><path d="M45.25 102.414c.418-2.683.762-6.19 1.032-10.523l.33-.298h1.662l.292.332c.078 3.815.153 6.006.224 6.572a17.546 17.546 0 0 0 4.661 3.415c1.93.855 4.028 1.26 6.137 1.185v-20.88a56.507 56.507 0 0 1-6.244-1.2 11.267 11.267 0 0 1-4.354-2.255 9.81 9.81 0 0 1-2.854-3.84 13.33 13.33 0 0 1-.921-5.112 15.31 15.31 0 0 1 3.521-9.894c2.345-2.908 5.962-4.742 10.852-5.503 0-2.366-.073-3.903-.146-4.654l.37-.332h2.616l.37.331c-.049.2-.098 1.698-.146 4.508 5.945.462 10.048 1.47 12.308 3.025l.15.488c-.199.761-.35 1.464-.486 2.156-.137.693-.215 1.62-.312 2.825l-.278 3.835-.292.337h-1.461l-.297-.298a42.032 42.032 0 0 0-.624-6.094c-2.039-2.312-4.938-3.506-8.699-3.58v19.514c2.426.307 4.832.756 7.204 1.347a13.627 13.627 0 0 1 4.656 2.19 9.165 9.165 0 0 1 2.947 3.694 12.43 12.43 0 0 1 .974 5.005 16.927 16.927 0 0 1-1.919 8.03 15.55 15.55 0 0 1-5.05 5.762c-2.085 1.415-5.02 2.503-8.807 3.264.05 3.766.122 6.206.22 7.318l-.332.332h-2.727l-.37-.332c.048-.813.097-3.2.146-7.162a35.5 35.5 0 0 1-14.042-2.956l-.312-.552Zm14.338-45.308a11.297 11.297 0 0 0-4.106 1.22 8.38 8.38 0 0 0-3.156 3.302 11.452 11.452 0 0 0-1.364 5.816c0 3.129.85 5.284 2.548 6.464a12.737 12.737 0 0 0 6.078 2.142V57.106Zm3.064 45.835a9.245 9.245 0 0 0 7.057-3.361 11.833 11.833 0 0 0 2.781-7.977c0-2.459-.681-4.428-2.045-5.908-1.364-1.48-3.962-2.512-7.793-3.098v20.344Z" fill="#0A93FD"/><path d="M129.88 145c28.54 0 51.677-23.175 51.677-51.763 0-28.588-23.137-51.763-51.677-51.763S78.203 64.649 78.203 93.237c0 28.588 23.137 51.763 51.677 51.763Z" fill="#AFAFAF"/><path d="M129.879 131.262c20.966 0 37.962-17.024 37.962-38.025 0-21-16.996-38.024-37.962-38.024-20.965 0-37.961 17.024-37.961 38.024 0 21.001 16.996 38.025 37.961 38.025ZM130.367 42.377h-.974v7.308h.974v-7.308ZM130.367 136.789h-.974v7.308h.974v-7.308ZM180.654 92.749h-7.297v.977h7.297v-.977ZM86.4 92.749h-7.297v.977H86.4v-.977ZM165.44 56.926l-5.159 5.168.689.69 5.159-5.168-.689-.69ZM98.79 123.689l-5.16 5.167.69.69 5.159-5.167-.689-.69ZM160.97 123.688l-.689.69 5.159 5.168.689-.69-5.159-5.168ZM94.32 56.926l-.69.69 5.16 5.168.689-.69-5.16-5.168ZM143.302 44.189l-1.995 7.03.937.267 1.995-7.03-.937-.267ZM117.515 134.997l-1.995 7.029.937.267 1.995-7.03-.937-.266ZM171.839 104.684l-.267.939 7.018 2 .267-.939-7.018-2ZM81.177 78.846l-.267.94 7.018 1.999.267-.94-7.018-1.999ZM174.001 68.07l-6.376 3.554.474.853 6.375-3.553-.473-.853ZM91.657 114.015l-6.376 3.553.474.853 6.376-3.553-.474-.853ZM151.464 131.052l-.851.474 3.551 6.385.851-.475-3.551-6.384ZM105.595 48.572l-.851.475 3.551 6.384.851-.474-3.551-6.385ZM155.333 49.234l-3.72 6.288.838.497 3.72-6.287-.838-.498ZM107.315 130.474l-3.719 6.288.838.497 3.719-6.287-.838-.498ZM167.545 115.021l-.496.839 6.278 3.724.496-.84-6.278-3.723ZM86.438 66.911l-.497.84 6.279 3.724.496-.84-6.278-3.724ZM178.945 80.15l-7.068 1.812.242.946 7.068-1.813-.242-.946ZM87.637 103.581l-7.069 1.813.242.945 7.069-1.812-.242-.946ZM141.151 135.292l-.944.242 1.812 7.08.944-.243-1.812-7.079ZM117.746 43.839l-.943.242 1.812 7.08.943-.243-1.812-7.08Z" fill="#fff"/><path d="M116.027 109.4c.351-2.244.638-5.171.862-8.781l.278-.249h1.388l.248.278c.059 3.19.12 5.022.185 5.493a14.649 14.649 0 0 0 3.897 2.874 11.678 11.678 0 0 0 5.129.976V92.515a47.457 47.457 0 0 1-5.222-.976 9.54 9.54 0 0 1-3.638-1.883 8.207 8.207 0 0 1-2.387-3.21 11.196 11.196 0 0 1-.769-4.279 12.8 12.8 0 0 1 2.922-8.293c1.948-2.43 4.973-3.964 9.074-4.601 0-1.976-.058-3.269-.122-3.903l.307-.278h2.187l.312.278c-.044.166-.083 1.42-.127 3.766 4.975.39 8.405 1.235 10.292 2.532l.126.4c-.165.64-.292 1.24-.384 1.806a30.726 30.726 0 0 0-.263 2.36l-.249 3.21-.243.279h-1.213l-.249-.249a34.696 34.696 0 0 0-.53-5.074c-1.705-1.951-4.129-2.95-7.272-2.995V87.7c2.029.256 4.04.632 6.025 1.127 1.405.361 2.728.99 3.896 1.854a7.703 7.703 0 0 1 2.465 3.083 10.43 10.43 0 0 1 .798 4.186 14.185 14.185 0 0 1-1.602 6.713 13.021 13.021 0 0 1-4.223 4.815c-1.743 1.181-4.198 2.092-7.364 2.732.045 3.145.107 5.182.185 6.108l-.278.279h-2.279l-.307-.279c.039-.679.08-2.675.122-5.986a29.713 29.713 0 0 1-11.738-2.468l-.239-.464Zm11.987-37.873a9.403 9.403 0 0 0-3.41 1.02 6.982 6.982 0 0 0-2.635 2.76 9.552 9.552 0 0 0-1.14 4.88c0 2.602.708 4.402 2.124 5.4a10.702 10.702 0 0 0 5.085 1.79l-.024-15.85Zm2.557 38.303a7.713 7.713 0 0 0 5.903-2.806 9.911 9.911 0 0 0 2.338-6.669c0-2.059-.572-3.705-1.715-4.937-1.143-1.233-3.315-2.096-6.517-2.59l-.009 17.002Z" fill="#0A93FD"/><path d="M198.687 144.995c22.716 0 41.132-18.446 41.132-41.201 0-22.754-18.416-41.2-41.132-41.2-22.717 0-41.132 18.446-41.132 41.2 0 22.755 18.415 41.201 41.132 41.201Z" fill="#AFAFAF"/><path d="M198.686 134.063c16.688 0 30.217-13.551 30.217-30.267 0-16.717-13.529-30.268-30.217-30.268-16.689 0-30.217 13.551-30.217 30.268 0 16.716 13.528 30.267 30.217 30.267ZM199.173 63.312h-.974v5.82h.974v-5.82ZM199.173 138.463h-.974v5.815h.974v-5.815ZM239.102 103.312h-5.811v.977h5.811v-.977ZM164.075 103.312h-5.805v.977h5.805v-.977ZM226.921 74.828l-4.109 4.115.689.69 4.109-4.115-.689-.69ZM173.867 127.961l-4.109 4.115.689.69 4.108-4.115-.688-.69ZM223.501 127.962l-.689.69 4.109 4.116.689-.69-4.109-4.116ZM170.452 74.823l-.688.69 4.108 4.115.689-.69-4.109-4.115ZM209.281 64.73l-1.588 5.594.937.267 1.588-5.594-.937-.266ZM188.747 137.011l-1.589 5.598.937.267 1.589-5.598-.937-.267ZM232.105 112.815l-.267.939 5.584 1.591.267-.939-5.584-1.591ZM159.948 92.254l-.266.94 5.589 1.592.267-.94-5.59-1.592ZM233.76 83.677l-5.078 2.83.474.853 5.078-2.83-.474-.853ZM168.217 120.252l-5.078 2.83.474.853 5.078-2.83-.474-.853ZM215.951 133.846l-.851.475 2.827 5.085.851-.475-2.827-5.085ZM179.443 68.196l-.851.475 2.827 5.084.851-.474-2.827-5.085ZM218.865 68.721l-2.963 5.007.838.498 2.963-5.007-.838-.498ZM180.644 133.389l-2.962 5.007.838.498 2.962-5.007-.838-.498ZM228.719 121.052l-.496.84 5 2.965.496-.84-5-2.965ZM164.162 82.768l-.496.84 5 2.965.496-.84-5-2.965ZM237.712 93.285l-5.624 1.443.242.945 5.624-1.442-.242-.946ZM165.039 111.937l-5.629 1.444.242.946 5.629-1.444-.242-.946ZM207.742 137.26l-.943.242 1.442 5.638.944-.242-1.443-5.638ZM189.127 64.469l-.943.242 1.44 5.633.944-.242-1.441-5.633Z" fill="#fff"/><path d="M187.659 116.665c.276-1.786.505-4.121.687-7.006l.219-.195h1.105l.195.219c.049 2.54.098 4.004.146 4.391a11.608 11.608 0 0 0 3.108 2.283 9.238 9.238 0 0 0 4.081.786v-13.905a36.54 36.54 0 0 1-4.159-.8 7.46 7.46 0 0 1-2.893-1.497 6.506 6.506 0 0 1-1.9-2.557 8.823 8.823 0 0 1-.613-3.415 10.181 10.181 0 0 1 2.342-6.586c1.559-1.932 3.967-3.152 7.223-3.66 0-1.57-.032-2.603-.097-3.097l.243-.22h1.744l.244.22c-.034.131-.064 1.132-.098 3 3.955.325 6.686.997 8.193 2.015l.097.317a13.99 13.99 0 0 0-.307 1.44 27.73 27.73 0 0 0-.209 1.878l-.195 2.556-.195.22h-.974l-.195-.195a27.17 27.17 0 0 0-.419-4.055c-1.354-1.541-3.282-2.337-5.786-2.385v12.972c1.614.204 3.214.504 4.793.898a9.068 9.068 0 0 1 3.107 1.463 6.057 6.057 0 0 1 1.948 2.44 8.169 8.169 0 0 1 .638 3.327 11.26 11.26 0 0 1-1.276 5.367 10.347 10.347 0 0 1-3.356 3.829c-1.393.944-3.341 1.669-5.844 2.176.034 2.503.083 4.128.146 4.879l-.219.22h-1.817l-.244-.22c.035-.541.064-2.132.098-4.766a23.635 23.635 0 0 1-9.347-1.952l-.214-.385Zm9.541-30.146a7.366 7.366 0 0 0-2.737.81 5.566 5.566 0 0 0-2.094 2.195 7.62 7.62 0 0 0-.906 3.874c0 2.078.563 3.511 1.69 4.298a8.532 8.532 0 0 0 4.047 1.425V86.519Zm2.036 30.487a6.134 6.134 0 0 0 4.696-2.234 7.874 7.874 0 0 0 1.855-5.308 5.583 5.583 0 0 0-1.364-3.933c-.905-.975-2.635-1.663-5.187-2.063v13.538ZM293.001 89.638h-42.185l21.09 36.59 21.095-36.59Z" fill="#0A93FD"/><path d="m273.367 93.954-5.357-.083.414-25.994L61.721 5.137 63.274 0l210.571 63.916-.478 30.038Z" fill="#0A93FD"/></g><defs><clipPath id="clip0_249_396"><path fill="#fff" d="M0 0h293v145H0z"/></clipPath></defs></svg>