<svg width="188" height="175" fill="none" xmlns="http://www.w3.org/2000/svg"><g clip-path="url('#clip0_249_1231')"><path d="M128.096 117.325V75.076H59.904v42.249H0v57.674h188v-57.674h-59.904Z" fill="#0A93FD"/><path d="M97.794 83.769v29.057h-3.519V87.457h-.17l-7.094 4.711v-3.576l7.264-4.823h3.519ZM23.625 158.012v-2.554l9.591-10.5a66.355 66.355 0 0 0 2.781-3.206c.729-.918 1.268-1.778 1.618-2.582.36-.814.539-1.665.539-2.554 0-1.022-.246-1.906-.738-2.653a4.777 4.777 0 0 0-1.986-1.731c-.842-.407-1.788-.611-2.838-.611-1.116 0-2.09.232-2.923.696a4.784 4.784 0 0 0-1.915 1.915c-.445.823-.667 1.788-.667 2.894H23.74c0-1.702.392-3.197 1.177-4.483a8.186 8.186 0 0 1 3.207-3.008c1.362-.719 2.89-1.078 4.583-1.078 1.702 0 3.21.359 4.526 1.078 1.315.719 2.346 1.688 3.093 2.909.747 1.22 1.12 2.577 1.12 4.072a8.761 8.761 0 0 1-.581 3.135c-.378 1.012-1.04 2.143-1.986 3.391-.937 1.239-2.237 2.753-3.902 4.541l-6.527 6.98v.227h13.507v3.122h-18.33ZM156.746 158.409c-1.873 0-3.542-.322-5.008-.965-1.457-.643-2.616-1.537-3.476-2.681-.852-1.154-1.315-2.493-1.391-4.016h3.576c.075.937.397 1.745.964 2.426.568.672 1.31 1.192 2.228 1.561.917.369 1.934.554 3.05.554 1.249 0 2.356-.218 3.32-.653.965-.435 1.722-1.041 2.271-1.816.548-.776.823-1.674.823-2.696 0-1.069-.265-2.01-.795-2.823-.53-.823-1.305-1.467-2.327-1.93-1.021-.464-2.27-.695-3.746-.695h-2.326v-3.122h2.326c1.154 0 2.166-.208 3.037-.624.879-.416 1.565-1.003 2.057-1.759.501-.757.752-1.646.752-2.668 0-.984-.218-1.84-.653-2.568a4.461 4.461 0 0 0-1.844-1.702c-.785-.407-1.712-.611-2.781-.611a7.329 7.329 0 0 0-2.838.554c-.879.359-1.598.884-2.156 1.575-.558.681-.861 1.504-.908 2.468h-3.406c.057-1.522.516-2.856 1.377-4.001.86-1.154 1.986-2.052 3.376-2.695 1.4-.644 2.937-.965 4.612-.965 1.797 0 3.339.364 4.625 1.092 1.286.719 2.275 1.67 2.965 2.852a7.46 7.46 0 0 1 1.036 3.831c0 1.636-.43 3.032-1.291 4.186-.851 1.153-2.01 1.953-3.476 2.397v.227c1.835.303 3.268 1.083 4.299 2.341 1.031 1.249 1.546 2.796 1.546 4.64 0 1.58-.43 2.998-1.291 4.257-.851 1.248-2.014 2.232-3.49 2.951-1.476.719-3.155 1.078-5.037 1.078Z" fill="#fff"/><path d="M131.82 13.195c-.151-3.473-1.355-5.86-3.571-7.097-2.461-1.372-5.572-.934-8.032-.184l.092-.453a4.516 4.516 0 0 0-.923-3.788A4.562 4.562 0 0 0 115.854 0H74.626a4.56 4.56 0 0 0-3.577 1.73 4.525 4.525 0 0 0-.846 3.871l.076.319c-2.46-.756-5.582-1.194-8.048.178-2.217 1.237-3.42 3.624-3.566 7.097-.456 10.457 14.091 18.478 19.202 20.968a20.27 20.27 0 0 0 10.232 9.01 6.71 6.71 0 0 0-.227 1.722 6.815 6.815 0 0 0 2.71 5.401v18.3H84.24c-.841 0-1.648.333-2.242.925a3.154 3.154 0 0 0 0 4.469 3.176 3.176 0 0 0 2.242.925h21.987c.841 0 1.648-.333 2.242-.925a3.153 3.153 0 0 0 0-4.469 3.175 3.175 0 0 0-2.242-.925h-6.34v-18.3a6.828 6.828 0 0 0 2.709-5.4 6.458 6.458 0 0 0-.162-1.454 20.269 20.269 0 0 0 11.229-9.809c5.827-2.976 18.579-10.63 18.156-20.438Zm-70.158.13c.103-2.366.786-3.916 2.032-4.613 1.973-1.08 5.236-.205 7.43.702l4.792 19.753c.054.232.114.464.179.691-5.756-3.246-14.742-9.436-14.433-16.533Zm53.655 15.993c.065-.265.125-.54.179-.794l4.011-19.174c2.168-.886 5.344-1.723 7.289-.643 1.247.697 1.93 2.252 2.033 4.618.282 6.724-7.778 12.644-13.523 15.993h.011Z" fill="#AFAFAF"/></g><defs><clipPath id="clip0_249_1231"><path fill="#fff" d="M0 0h188v175H0z"/></clipPath></defs></svg>