<svg width="175" height="175" fill="none" xmlns="http://www.w3.org/2000/svg"><g clip-path="url('#clip0_249_1059')"><path d="M87.497 174.995c48.324 0 87.498-39.174 87.498-87.498C174.995 39.174 135.821 0 87.497 0 39.174 0 0 39.174 0 87.497c0 48.324 39.174 87.498 87.497 87.498Z" fill="#AFAFAF"/><path d="M87.497 151.774c35.5 0 64.278-28.779 64.278-64.279s-28.778-64.278-64.278-64.278c-35.5 0-64.278 28.778-64.278 64.278 0 35.5 28.778 64.279 64.278 64.279ZM88.035 1.527h-1.076v12.355h1.076V1.527ZM88.035 161.121h-1.076v12.354h1.076v-12.354ZM173.472 86.957h-12.355v1.076h12.355v-1.076ZM13.882 86.957H1.527v1.076h12.355v-1.076ZM147.91 26.33l-8.736 8.736.76.761 8.736-8.736-.76-.76ZM35.064 139.174l-8.736 8.736.76.761 8.737-8.736-.761-.761ZM139.933 139.177l-.761.761 8.736 8.735.76-.76-8.735-8.736ZM27.089 26.325l-.76.76 8.735 8.737.76-.76-8.735-8.737ZM110.509 4.661l-3.378 11.884 1.035.294 3.378-11.883-1.035-.295ZM66.837 158.163l-3.378 11.884 1.035.294 3.378-11.883-1.035-.295ZM158.456 107.127l-.294 1.035 11.883 3.381.294-1.035-11.883-3.381ZM4.954 63.463l-.294 1.035 11.883 3.38.294-1.034-11.883-3.38ZM162.341 45.18l-10.794 6.01.523.94 10.794-6.011-.523-.94ZM22.921 122.863l-10.796 6.006.523.94 10.796-6.006-.523-.94ZM123.793 151.553l-.939.523 6.012 10.793.939-.523-6.012-10.793ZM46.127 12.13l-.94.524L51.2 23.447l.94-.523-6.013-10.793ZM130.908 13.33l-6.301 10.625.926.549 6.3-10.625-.925-.549ZM49.535 150.582l-6.299 10.629.926.548 6.298-10.628-.925-.549ZM151.124 124.551l-.548.926 10.631 6.294.548-.926-10.631-6.294ZM13.796 43.239l-.548.925 10.63 6.294.549-.925-10.63-6.294ZM170.646 65.645l-11.968 3.064.267 1.042 11.968-3.064-.267-1.042ZM16.047 105.252l-11.969 3.064.267 1.042 11.968-3.064-.266-1.042ZM106.288 158.686l-1.042.267 3.066 11.968 1.042-.267-3.066-11.968ZM66.68 4.087l-1.041.267 3.066 11.967 1.042-.267L66.68 4.087Z" fill="#fff"/><path d="M64.047 114.817c.592-3.79 1.078-8.747 1.458-14.871l.473-.414h2.33l.419.468c.1 5.378.204 8.474.312 9.288a24.974 24.974 0 0 0 6.6 4.841c2.28 1.111 5.175 1.669 8.685 1.673V86.279a79.678 79.678 0 0 1-8.842-1.694 16.087 16.087 0 0 1-6.158-3.184 13.817 13.817 0 0 1-4.04-5.427 18.756 18.756 0 0 1-1.28-7.229 21.606 21.606 0 0 1 4.986-13.984c3.317-4.102 8.437-6.694 15.361-7.777-.032-3.342-.1-5.533-.204-6.573l.538-.468h3.7l.538.468c-.068.28-.136 2.4-.204 6.363 8.419.66 14.228 2.094 17.426 4.303l.204.678a36.157 36.157 0 0 0-.651 3.05c-.155.951-.301 2.29-.441 3.995l-.419 5.422-.414.473h-2.087l-.42-.42a58.746 58.746 0 0 0-.887-8.605c-2.89-3.27-6.994-4.957-12.311-5.061v27.549a87.013 87.013 0 0 1 10.219 1.903 19.13 19.13 0 0 1 6.599 3.13 12.907 12.907 0 0 1 4.174 5.218 17.522 17.522 0 0 1 1.361 7.067 23.953 23.953 0 0 1-2.69 11.349 21.948 21.948 0 0 1-7.148 8.138c-2.958 2-7.114 3.54-12.467 4.62.068 5.317.172 8.761.312 10.332l-.468.468h-3.953l-.538-.468c.068-1.151.136-4.525.204-10.123-7.372-.139-14.005-1.531-19.9-4.173l-.377-.802Zm20.294-64.004a15.88 15.88 0 0 0-5.815 1.71c-1.688.904-3.176 2.46-4.464 4.67-1.287 2.208-1.93 4.947-1.93 8.218 0 4.413 1.2 7.461 3.603 9.143a18.067 18.067 0 0 0 8.606 3.028V50.813Zm4.335 64.752a13.055 13.055 0 0 0 9.988-4.771c2.631-3.058 3.945-6.814 3.942-11.268 0-3.478-.966-6.26-2.9-8.347-1.932-2.087-5.609-3.548-11.03-4.384v28.77Z" fill="#0A93FD"/></g><defs><clipPath id="clip0_249_1059"><path fill="#fff" d="M0 0h175v175H0z"/></clipPath></defs></svg>