<svg id="Слой_2" data-name="Слой 2" xmlns="http://www.w3.org/2000/svg" viewBox="0 0 326.9 253.63"><defs><style>.cls-2{fill:#303030}.cls-3{fill:#232323}.cls-4{fill:#606060}.cls-5{fill:#8a9995}</style></defs><path style="fill:#fafafa" d="M2.97 2.97h322.26v138.29H2.97z"/><path class="cls-2" d="M275.82 152.23h16.77v101.14h-16.77z"/><path class="cls-3" d="M278.4 253.63H273V152h5.42Zm-4.91-.52h4.39V152.49h-4.39Z"/><path class="cls-3" transform="rotate(-21.25 275.7 156.87)" d="M273.2 156.61h4.98v.52h-4.98z"/><path class="cls-3" transform="rotate(-21.25 275.68 164.619)" d="M273.2 164.35h4.98v.52h-4.98z"/><path class="cls-3" transform="rotate(-21.25 275.693 172.347)" d="M273.2 172.09h4.98v.52h-4.98z"/><path class="cls-3" transform="rotate(-21.25 275.701 180.101)" d="M273.2 179.84h4.98v.52h-4.98z"/><path class="cls-3" transform="rotate(-21.25 275.687 187.824)" d="M273.2 187.58h4.98v.52h-4.98z"/><path class="cls-3" transform="rotate(-21.25 275.695 195.578)" d="M273.2 195.32h4.98v.52h-4.98z"/><path class="cls-3" transform="rotate(-21.25 275.702 203.333)" d="M273.2 203.06h4.98v.52h-4.98z"/><path class="cls-3" transform="rotate(-21.25 275.688 211.056)" d="M273.2 210.8h4.98v.52h-4.98z"/><path class="cls-3" transform="rotate(-21.25 275.696 218.81)" d="M273.2 218.54h4.98v.52h-4.98z"/><path class="cls-3" transform="rotate(-21.25 275.682 226.533)" d="M273.2 226.28h4.98v.52h-4.98z"/><path class="cls-3" transform="rotate(-21.25 275.69 234.288)" d="M273.2 234.02h4.98v.52h-4.98z"/><path class="cls-3" transform="rotate(-21.25 275.702 242.015)" d="M273.2 241.76h4.98v.52h-4.98z"/><path class="cls-3" d="M323.81 3.1v136.23H3.1V3.1h320.71M326.9 0H0v142.42h326.9V0ZM14.71 142.42h296.33v12.64H14.71z"/><path class="cls-4" d="M311.55 145.61H14.19l.52-2.15h296.32l.52 2.15zM311.55 148.99H14.19l.52-2.15h296.32l.52 2.15zM311.55 152.33H14.19l.52-2.16h296.32l.52 2.16zM311.55 155.71H14.19l.52-2.15h296.32l.52 2.15z"/><path class="cls-2" d="M24 155.58h2.58v9.8H24z"/><path class="cls-4" d="M24 163.06h2.58v2.32H24zM1.03 160.48H326.9v1.55H1.03z"/><path class="cls-2" d="M96.24 155.58h.77v4.9h-.77zM67.86 155.58h2.58v9.8h-2.58z"/><path class="cls-4" d="M67.86 163.06h2.58v2.32h-2.58z"/><path class="cls-2" d="M74.82 155.58h2.58v9.8h-2.58z"/><path class="cls-4" d="M74.82 163.06h2.58v2.32h-2.58z"/><path class="cls-2" d="M118.69 155.58h2.58v9.8h-2.58z"/><path class="cls-4" d="M118.69 163.06h2.58v2.32h-2.58z"/><path class="cls-2" d="M138.55 155.58h2.58v9.8h-2.58z"/><path class="cls-4" d="M138.55 163.06h2.58v2.32h-2.58z"/><path class="cls-2" d="M182.42 155.58H185v9.8h-2.58z"/><path class="cls-4" d="M182.42 163.06H185v2.32h-2.58z"/><path class="cls-2" d="M197.9 155.58h2.58v9.8h-2.58z"/><path class="cls-4" d="M197.9 163.06h2.58v2.32h-2.58z"/><path class="cls-2" d="M241.76 155.58h2.58v9.8h-2.58z"/><path class="cls-4" d="M241.76 163.06h2.58v2.32h-2.58z"/><path class="cls-2" d="M296.97 155.58h2.58v9.8h-2.58z"/><path class="cls-4" d="M296.97 163.06h2.58v2.32h-2.58z"/><path class="cls-5" d="M267.83 146.81h1.77a6.21 6.21 0 0 1 6.21 6.21v.5h-14.19V153a6.21 6.21 0 0 1 6.21-6.19Z" transform="rotate(-180 268.72 150.165)"/><path class="cls-2" d="M267.82 162.81h.77l.52-.97v-8.58h-.78v8.61l-.51.94z"/><path class="cls-5" d="M46.18 146.81h14.19v.5a6.21 6.21 0 0 1-6.21 6.21h-1.77a6.21 6.21 0 0 1-6.21-6.21v-.5Z"/><path class="cls-2" d="M54.18 162.81h-.77l-.52-.97v-8.58h.78v8.61l.51.94z"/></svg>