<svg width="92" height="210" fill="none" xmlns="http://www.w3.org/2000/svg"><g clip-path="url('#clip0_249_913')" filter="url('#filter0_dd_249_913')"><path d="M26.592 89.465a32.766 32.766 0 0 1-14.83-3.538l-.226-.121-3.787-2.08a7.267 7.267 0 0 1-3.47-4.353 7.296 7.296 0 0 1 2.444-7.708 7.255 7.255 0 0 1 5.339-1.547 7.25 7.25 0 0 1 2.7.86l3.65 2.012a18.703 18.703 0 0 0 14.044 1.02 18.756 18.756 0 0 0 10.79-9.068l5.189-9.908a7.272 7.272 0 0 1 4.271-3.572 7.252 7.252 0 0 1 5.54.501 7.282 7.282 0 0 1 3.564 4.282 7.302 7.302 0 0 1-.5 5.554l-5.196 9.87a33.372 33.372 0 0 1-12.289 13.019 33.263 33.263 0 0 1-17.233 4.777Z" fill="#AFAFAF"/><path d="M82.334 55.505a7.898 7.898 0 0 0-2.086-6.194 7.862 7.862 0 0 0-6.033-2.484c-1.592.1-3.163.41-4.673.926a49.63 49.63 0 0 1-11.292 2.012c-4.991-.16-10.089-.562-14.496-2.012a17.942 17.942 0 0 0-4.673-.926 7.845 7.845 0 0 0-6.033 2.484 7.884 7.884 0 0 0-2.086 6.194l.303 3.037h-.356l1.802 14.144 5.37 42.562 41.39.851-.56-26.999h.053l3.37-33.595Z" fill="#AFAFAF"/><path d="m88 193.923-10.209-96.68A8.07 8.07 0 0 0 75 91.855a8.03 8.03 0 0 0-5.75-1.908 7.863 7.863 0 0 0-5.395 2.844 7.902 7.902 0 0 0-1.755 5.85l9.088 86.316-8.657.63a7.856 7.856 0 0 0-5.453 2.579 7.904 7.904 0 0 0-2.037 5.689 7.913 7.913 0 0 0 2.572 5.467 7.865 7.865 0 0 0 5.675 2.042l19.321-1.116a5.716 5.716 0 0 0 4.05-2.003 5.735 5.735 0 0 0 1.343-4.322ZM39.037 199.986a5.717 5.717 0 0 0 3.7-1.502 5.746 5.746 0 0 0 1.821-3.562l10.99-93.84a7.911 7.911 0 0 0-1.641-5.816 7.864 7.864 0 0 0-11.064-1.305 7.902 7.902 0 0 0-2.943 5.276l-9.974 85.254-8.786.242a7.882 7.882 0 0 0-5.541 2.526 7.916 7.916 0 0 0-2.1 5.727 8.066 8.066 0 0 0 2.64 5.46 8.023 8.023 0 0 0 5.69 2.064l17.208-.524ZM54.51 43.579c-12.005 0-21.737-9.756-21.737-21.79C32.773 9.755 42.505 0 54.51 0c12.004 0 21.736 9.756 21.736 21.79 0 12.034-9.732 21.79-21.736 21.79Z" fill="#AFAFAF"/><path d="M32.06 96.98a7.259 7.259 0 0 1-3.95-3.155 7.288 7.288 0 0 1 1.588-9.36 7.245 7.245 0 0 1 4.77-1.667l14.254.25a18.712 18.712 0 0 0 13.161-5.164 18.803 18.803 0 0 0 5.818-12.913l.38-11.183a7.281 7.281 0 0 1 2.295-5.07 7.246 7.246 0 0 1 10.255.344 7.284 7.284 0 0 1 1.953 5.212l-.371 11.19a33.442 33.442 0 0 1-10.349 22.948 33.28 33.28 0 0 1-23.392 9.183l-14.246-.25a6.998 6.998 0 0 1-2.166-.365Z" fill="#AFAFAF"/><path d="M49.074 98.365c18.397 0 33.749-14.592 34.385-32.806l-1.515-.053c-.583 17.402-15.26 31.341-32.847 31.341h-.583l-14.284-.258a6.5 6.5 0 0 1-5.47-3.154 6.527 6.527 0 0 1 1.429-8.386 6.488 6.488 0 0 1 4.276-1.488l14.253.25h.334a19.485 19.485 0 0 0 13.474-5.494 19.579 19.579 0 0 0 5.937-13.312l-1.515-.053a18.052 18.052 0 0 1-5.47 12.28A17.964 17.964 0 0 1 49.052 82.3h-.31l-14.255-.25a8.008 8.008 0 0 0-5.245 1.856 8.056 8.056 0 0 0-1.755 10.31 8.024 8.024 0 0 0 4.334 3.497c.772.25 1.576.386 2.386.402l14.254.25h.613Z" fill="#fff"/><path d="M42.132 47.367a7.24 7.24 0 0 0-5.527-.516 7.26 7.26 0 0 0-4.273 3.553l-5.196 9.87a18.534 18.534 0 0 1-9.3 8.503l.045 1.723c.099 4.457.205 8.921.371 13.37a33.129 33.129 0 0 0 12.688-6.054 33.225 33.225 0 0 0 9.049-10.778l5.188-9.87a7.29 7.29 0 0 0 .497-5.53 7.27 7.27 0 0 0-3.542-4.271Z" fill="#AFAFAF"/><path d="M48.528 81.942h-37.96V49.941h37.96v32.001Z" fill="#0A93FD"/><path d="M48.528 59.568h-37.96v-9.62h37.96v9.62Z" fill="#fff"/><path d="M49.391 57.267H9.705V49.94h39.686v7.327Z" fill="#0A93FD"/><path d="M34.364 64.938h-8.725V49.852h8.725v15.086ZM60.873 21.834c-1.293 0-2.34-1.258-2.34-2.81 0-1.551 1.047-2.809 2.34-2.809 1.292 0 2.34 1.258 2.34 2.81 0 1.55-1.048 2.809-2.34 2.809ZM42.261 21.834c-1.292 0-2.34-1.258-2.34-2.81 0-1.551 1.048-2.809 2.34-2.809 1.293 0 2.34 1.258 2.34 2.81 0 1.55-1.047 2.809-2.34 2.809ZM59.115 31.035a7.593 7.593 0 0 1-2.787 4.1 8.197 8.197 0 0 1-4.847 1.663 6.316 6.316 0 0 1-1.348-.107l-.644-.121a4.99 4.99 0 0 1-.629-.197l-.613-.22a13.794 13.794 0 0 1-.576-.312l-.568-.311-.507-.403a8.527 8.527 0 0 1-2.81-4.092 12.958 12.958 0 0 0 3.408 3.235 8.052 8.052 0 0 0 4.241 1.184 8.603 8.603 0 0 0 4.272-1.184 10.44 10.44 0 0 0 3.408-3.235Z" fill="#fff"/></g><defs><clipPath id="clip0_249_913"><path fill="#fff" transform="matrix(-1 0 0 1 88 0)" d="M0 0h84v201.37H0z"/></clipPath><filter id="filter0_dd_249_913" x="0" y="0" width="92" height="209.37" filterUnits="userSpaceOnUse" color-interpolation-filters="sRGB"><feFlood flood-opacity="0" result="BackgroundImageFix"/><feColorMatrix in="SourceAlpha" values="0 0 0 0 0 0 0 0 0 0 0 0 0 0 0 0 0 0 127 0" result="hardAlpha"/><feOffset dy="4"/><feGaussianBlur stdDeviation="2"/><feComposite in2="hardAlpha" operator="out"/><feColorMatrix values="0 0 0 0 0 0 0 0 0 0 0 0 0 0 0 0 0 0 0.25 0"/><feBlend in2="BackgroundImageFix" result="effect1_dropShadow_249_913"/><feColorMatrix in="SourceAlpha" values="0 0 0 0 0 0 0 0 0 0 0 0 0 0 0 0 0 0 127 0" result="hardAlpha"/><feOffset dy="4"/><feGaussianBlur stdDeviation="2"/><feComposite in2="hardAlpha" operator="out"/><feColorMatrix values="0 0 0 0 0 0 0 0 0 0 0 0 0 0 0 0 0 0 0.25 0"/><feBlend in2="effect1_dropShadow_249_913" result="effect2_dropShadow_249_913"/><feBlend in="SourceGraphic" in2="effect2_dropShadow_249_913" result="shape"/></filter></defs></svg>