<svg id="Слой_2" data-name="Слой 2" xmlns="http://www.w3.org/2000/svg" viewBox="0 0 267.18 218.74"><defs><style>.cls-2{fill:#686463}.cls-3{fill:#51616b}.cls-4{fill:#fff}.cls-5{fill:#3d3b38}.cls-6{fill:#8a9995}</style></defs><path style="fill:#a4a2a1" d="M137.46 42.59h129.72v176.16H137.46z"/><path class="cls-2" d="M199.42 42.59h21.3v176.16h-21.3zM243.95 42.59h23.23v176.16h-23.23z"/><path class="cls-3" d="M174.25 32.91h65.83v9.68h-65.83z"/><path class="cls-4" d="M137.46 56.14h58.08v158.73h-58.08z"/><path class="cls-5" d="M137.46 61.95h58.08v1.94h-58.08zM137.46 69.69h58.08v1.94h-58.08zM137.46 77.43h58.08v1.94h-58.08zM137.46 87.11h58.08v1.94h-58.08zM137.46 94.85h58.08v1.94h-58.08zM137.46 102.6h58.08v1.94h-58.08zM137.46 110.34h58.08v1.94h-58.08zM137.46 118.08h58.08v1.94h-58.08zM137.46 125.83h58.08v1.94h-58.08zM137.46 135.51h58.08v1.94h-58.08zM137.46 143.25h58.08v1.94h-58.08zM137.46 150.99h58.08v1.94h-58.08zM137.46 158.73h58.08v1.94h-58.08zM137.46 166.48h58.08v1.94h-58.08zM137.46 174.22h58.08v1.94h-58.08zM137.46 183.9h58.08v1.94h-58.08zM137.46 191.64h58.08v1.94h-58.08zM137.46 199.39h58.08v1.94h-58.08zM137.46 207.13h58.08v1.94h-58.08z"/><path class="cls-4" d="M220.71 58.07h21.3V216.8h-21.3z"/><path class="cls-5" d="M220.71 63.88h21.3v1.94h-21.3zM220.71 71.62h21.3v1.94h-21.3zM220.71 79.37h21.3v1.94h-21.3zM220.71 89.05h21.3v1.94h-21.3zM220.71 96.79h21.3v1.94h-21.3zM220.71 104.53h21.3v1.94h-21.3zM220.71 112.28h21.3v1.94h-21.3zM220.71 120.02h21.3v1.94h-21.3zM220.71 127.76h21.3v1.94h-21.3zM220.71 137.44h21.3v1.94h-21.3zM220.71 145.18h21.3v1.94h-21.3zM220.71 152.93h21.3v1.94h-21.3zM220.71 160.67h21.3v1.94h-21.3zM220.71 168.41h21.3v1.94h-21.3zM220.71 176.16h21.3v1.94h-21.3zM220.71 185.84h21.3v1.94h-21.3zM220.71 193.58h21.3v1.94h-21.3zM220.71 201.32h21.3v1.94h-21.3zM220.71 209.07h21.3v1.94h-21.3z"/><path class="cls-6" d="M0 21.29h118.1v197.45H0z"/><path class="cls-4" d="M5.81 29.04h108.42v5.81H5.81z"/><path class="cls-6" d="M17.42 29.04h1.94v5.81h-1.94zM29.04 29.04h1.94v5.81h-1.94zM42.59 29.04h9.68v5.81h-9.68zM73.57 29.04h1.94v5.81h-1.94zM94.87 29.04h1.94v5.81h-1.94z"/><path class="cls-3" d="M52.27 0h52.27v21.29H52.27z"/><path class="cls-4" d="M5.81 42.59h108.42v5.81H5.81z"/><path class="cls-6" d="M17.42 42.59h1.94v5.81h-1.94zM29.04 42.59h1.94v5.81h-1.94zM42.59 42.59h9.68v5.81h-9.68zM73.57 42.59h1.94v5.81h-1.94zM94.87 42.59h1.94v5.81h-1.94z"/><path class="cls-4" d="M5.81 56.14h108.42v5.81H5.81z"/><path class="cls-6" d="M17.42 56.14h1.94v5.81h-1.94zM29.04 56.14h1.94v5.81h-1.94zM42.59 56.14h9.68v5.81h-9.68zM73.57 56.14h1.94v5.81h-1.94zM94.87 56.14h1.94v5.81h-1.94z"/><path class="cls-4" d="M5.81 69.69h108.42v5.81H5.81z"/><path class="cls-6" d="M17.42 69.69h1.94v5.81h-1.94zM29.04 69.69h1.94v5.81h-1.94zM42.59 69.69h9.68v5.81h-9.68zM73.57 69.69h1.94v5.81h-1.94zM94.87 69.69h1.94v5.81h-1.94z"/><path class="cls-4" d="M5.81 81.3h108.42v5.81H5.81z"/><path class="cls-6" d="M17.42 81.3h1.94v5.81h-1.94zM29.04 81.3h1.94v5.81h-1.94zM42.59 81.3h9.68v5.81h-9.68zM73.57 81.3h1.94v5.81h-1.94zM94.87 81.3h1.94v5.81h-1.94z"/><path class="cls-4" d="M5.81 94.85h108.42v5.81H5.81z"/><path class="cls-6" d="M17.42 94.85h1.94v5.81h-1.94zM29.04 94.85h1.94v5.81h-1.94zM42.59 94.85h9.68v5.81h-9.68zM73.57 94.85h1.94v5.81h-1.94zM94.87 94.85h1.94v5.81h-1.94z"/><path class="cls-4" d="M5.81 108.4h108.42v5.81H5.81z"/><path class="cls-6" d="M17.42 108.4h1.94v5.81h-1.94zM29.04 108.4h1.94v5.81h-1.94zM42.59 108.4h9.68v5.81h-9.68zM73.57 108.4h1.94v5.81h-1.94zM94.87 108.4h1.94v5.81h-1.94z"/><path class="cls-4" d="M5.81 121.95h108.42v5.81H5.81z"/><path class="cls-6" d="M17.42 121.95h1.94v5.81h-1.94zM29.04 121.95h1.94v5.81h-1.94zM42.59 121.95h9.68v5.81h-9.68zM73.57 121.95h1.94v5.81h-1.94zM94.87 121.95h1.94v5.81h-1.94z"/><path class="cls-4" d="M5.81 135.51h108.42v5.81H5.81z"/><path class="cls-6" d="M17.42 135.51h1.94v5.81h-1.94zM29.04 135.51h1.94v5.81h-1.94zM42.59 135.51h9.68v5.81h-9.68zM73.57 135.51h1.94v5.81h-1.94zM94.87 135.51h1.94v5.81h-1.94z"/><path class="cls-4" d="M5.81 149.06h108.42v5.81H5.81z"/><path class="cls-6" d="M17.42 149.06h1.94v5.81h-1.94zM29.04 149.06h1.94v5.81h-1.94zM42.59 149.06h9.68v5.81h-9.68zM73.57 149.06h1.94v5.81h-1.94zM94.87 149.06h1.94v5.81h-1.94z"/><path class="cls-4" d="M5.81 162.61h108.42v5.81H5.81z"/><path class="cls-6" d="M17.42 162.61h1.94v5.81h-1.94zM29.04 162.61h1.94v5.81h-1.94zM42.59 162.61h9.68v5.81h-9.68zM73.57 162.61h1.94v5.81h-1.94zM94.87 162.61h1.94v5.81h-1.94z"/><path class="cls-4" d="M5.81 176.16h108.42v5.81H5.81z"/><path class="cls-6" d="M17.42 176.16h1.94v5.81h-1.94zM29.04 176.16h1.94v5.81h-1.94zM42.59 176.16h9.68v5.81h-9.68zM73.57 176.16h1.94v5.81h-1.94zM94.87 176.16h1.94v5.81h-1.94z"/><path class="cls-4" d="M5.81 189.71h108.42v5.81H5.81z"/><path class="cls-6" d="M17.42 189.71h1.94v5.81h-1.94zM29.04 189.71h1.94v5.81h-1.94zM42.59 189.71h9.68v5.81h-9.68zM73.57 189.71h1.94v5.81h-1.94zM94.87 189.71h1.94v5.81h-1.94z"/><path class="cls-4" d="M5.81 203.26h108.42v5.81H5.81z"/><path class="cls-6" d="M17.42 203.26h1.94v5.81h-1.94zM29.04 203.26h1.94v5.81h-1.94zM42.59 203.26h9.68v5.81h-9.68zM73.57 203.26h1.94v5.81h-1.94zM94.87 203.26h1.94v5.81h-1.94z"/><path style="fill:#768c86" d="M44.53 21.29h5.81v197.45h-5.81z"/></svg>