<svg width="876" height="195" fill="none" xmlns="http://www.w3.org/2000/svg"><path opacity=".43" d="M990.961 51.664V95.15c-43.877-.672-90.467-12.295-134.977-20.567-10.191-1.896-20.271-3.616-30.19-4.992-63.621-8.8-93.556-6.4-154.817-6.4-13.767 0-35.83 3.968-58.477 8.208-26.055 4.88-52.885 10.136-68.716 10.144-52.326.024-100.372-4.216-150.057-6.136-21.527-.832-43.358-1.232-65.973-.656-42.95 1.096-85.764 9.912-128.753 10.792-17.976.368-48.438-2.736-65.221-6.288-16.431-3.472 18.359-5.928 26.446-6.96 18.84-2.4 34.935-11.087 53.974-13.151 5.888-.64 11.799-1.232 17.727-1.776 52.973-4.888 107.403-6.256 161.8-7.552 28.566-.68 57.133-1.344 85.476-2.48 87.515-3.511 177.471-18.583 265.371-20.142 74.444-1.32 168.007 19.27 246.387 24.47Z" fill="#707D00"/><path d="M406.004 92.455c2.584 0 7.896-.184 7.896-2.848 0-1.328-.648-2.088-1.936-2.28 2.416-.952.968-3.992.16-3.424 2.904-8.935-5.32-8.175-7.736-7.223 9.504-8.552-.16-11.976-3.383-10.456 2.256-3.608-1.448-4.376-1.936-3.608-.968-9.127-11.28-7.415-12.088-3.231-10.799-8.368-14.823 4.183-13.535 6.463-6.608-.192-4.352 5.896-3.544 6.464-6.448.384-5.48 6.84-2.904 9.695-4.192 0-2.904 5.896-.648 5.896-1.608.192-4.511-.192-4.351 2.664.096 1.696.807 1.712 3.703 1.904 2.92.176 39.174-.016 40.302-.016Z" fill="#6FA000"/><path d="M384.007 66.888c-1.128 1.328.32 2.848 1.608 1.328 1.296-1.512-.48-2.656-1.608-1.328ZM378.854 72.215c.64 2.08 2.736-.952 1.936-1.52-.808-.576-2.584-.576-1.936 1.52ZM384.809 71.64c-1.128.568-.16 1.904 1.288 1.328 1.456-.568-.16-1.896-1.288-1.328ZM396.581 80.575c-1.127 1.327 1.128 2.087 1.608.951.479-1.143-.48-2.279-1.608-.951ZM403.02 80.007c-.808-1.904-2.256-.76-1.608.952.64 1.712 2.416.952 1.608-.952Z" fill="#5C1B79"/><path d="M362.213 194.784c6.176 0 18.88-.464 18.88-7.159 0-3.344-1.544-5.256-4.624-5.728 5.775-2.384 2.312-10.024.384-8.592 6.935-22.438-12.712-20.527-18.495-18.143 22.726-21.487-.384-30.078-8.088-26.262 5.392-9.072-3.464-10.984-4.624-9.072-2.312-22.919-26.966-18.623-28.894-8.12-25.815-21.007-35.447 10.504-32.359 16.232-15.791-.48-10.399 14.799-8.471 16.231-15.408.952-13.096 17.191-6.936 24.351-10.015 0-6.936 14.799-1.544 14.799-3.856.48-10.783-.48-10.399 6.688.232 4.263 1.928 4.295 8.863 4.775 6.936.48 93.612 0 96.307 0Z" fill="#6FA000"/><path d="M309.633 130.563c-2.696 3.344.768 7.159 3.856 3.344 3.088-3.816-1.16-6.688-3.856-3.344ZM297.3 143.931c1.536 5.231 6.552-2.384 4.624-3.816s-6.167-1.432-4.624 3.816ZM311.565 142.498c-2.696 1.431-.384 4.775 3.08 3.343 3.464-1.432-.384-4.775-3.08-3.343ZM339.676 164.937c-2.696 3.344 2.695 5.256 3.855 2.384 1.152-2.856-1.16-5.72-3.855-2.384ZM355.097 163.505c-1.928-4.775-5.391-1.912-3.856 2.384 1.544 4.304 5.776 2.392 3.856-2.384Z" fill="#5C1B79"/><path d="M288.139 62.246c3.448 0 10.536-.248 10.536-3.808 0-1.775-.856-2.791-2.576-3.04 3.224-1.271 1.288-5.327.216-4.567 3.872-11.92-7.096-10.904-10.319-9.64 12.687-11.415-.216-15.975-4.512-13.95 3.008-4.817-1.936-5.833-2.584-4.817-1.288-12.175-15.047-9.887-16.127-4.311-14.408-11.16-19.783 5.575-18.063 8.623-8.816-.256-5.808 7.864-4.728 8.624-8.6.504-7.312 9.127-3.872 12.935-5.592 0-3.872 7.864-.864 7.864-2.152.256-6.024-.256-5.808 3.552.128 2.263 1.072 2.28 4.944 2.535 3.88.248 52.254 0 53.757 0Z" fill="#4A7737"/><path d="M240.392 28.138c-1.504 1.776.432 3.808 2.152 1.776 1.72-2.032-.648-3.552-2.152-1.776ZM233.508 35.23c.856 2.776 3.655-1.272 2.575-2.032-1.072-.752-3.431-.752-2.575 2.032ZM241.466 34.474c-1.504.76-.216 2.536 1.72 1.776 1.928-.76-.216-2.536-1.72-1.776ZM257.158 46.39c-1.504 1.776 1.504 2.792 2.152 1.272.648-1.52-.64-3.048-2.152-1.272ZM265.759 45.63c-1.072-2.536-3.008-1.016-2.152 1.272.864 2.28 3.232 1.264 2.152-1.272Z" fill="#4A7737"/><path d="M4.898 35.776S-1.886 28.72.514 26.368c2.4-2.351 5.984 3.768 5.984 3.768s-6.384-12.231-1.2-15.055c5.183-2.824 7.975 12.703 7.975 12.703S9.682.962 19.257.026c9.576-.936 5.584 23.998 5.584 23.998s1.592-14.583 5.983-13.175c4.384 1.408 0 14.12 0 14.12s4.384-10.352 6.784-8.944c2.392 1.408-4.384 16-4.384 16s4.384-6.12 6.384-4.705c1.992 1.408-3.992 8.472-3.992 8.472H4.898v-.016Z" fill="#7D9E24"/><path d="M115.934 94.39s-13.567-14.128-8.783-18.831c4.783-4.704 11.975 7.535 11.975 7.535s-12.775-24.486-2.392-30.134c10.376-5.648 15.967 25.422 15.967 25.422s-7.183-53.677 11.976-55.557c19.159-1.88 11.175 48.022 11.175 48.022s3.192-29.19 11.976-26.367c8.783 2.824 0 28.247 0 28.247s8.783-20.72 13.567-17.895c4.792 2.824-8.784 32.014-8.784 32.014s8.784-12.24 12.776-9.415c3.992 2.823-7.984 16.95-7.984 16.95h-61.469v.009Z" fill="#5A9300"/></svg>