<svg id="Слой_1" data-name="Слой 1" xmlns="http://www.w3.org/2000/svg" viewBox="0 0 520.69 242.58"><defs><style>.cls-2{fill:#a5713d}.cls-3{fill:#dd866f}.cls-4{fill:#254b6b}.cls-5{fill:#f69576}.cls-7{fill:#6b3425}.cls-9{fill:#424b6a}.cls-10{fill:#1d7dcc}.cls-11{fill:#0c96fd}.cls-14{fill:#024168}.cls-16{fill:#606060}.cls-17{fill:#a8a9ad}</style></defs><path d="M493.29 242.58H50.16a6.76 6.76 0 0 1-4.34-1.58l-18.65-15.71a6.73 6.73 0 0 1 4.33-11.87h471.61a6.72 6.72 0 0 1 5.7 10.29L499 239.42a6.71 6.71 0 0 1-5.71 3.16Z" style="opacity:.15"/><path class="cls-2" d="M268.45 4.38A13.08 13.08 0 0 0 255.11 7c-4.29 3.74-3.28 14.6-1 18s11.45 8.84 11.45 8.84S292.69 7 268.45 4.38Z"/><path class="cls-3" d="M318.44 80.38c-.34-.84-.72-1.68-1.05-2.48.33.84.71 1.68 1.05 2.48ZM317.3 77.9c-5.76.92-16.53 2.44-16.53 2.44l-2.44-15.74L286 67.29s2.78 16.12 4.42 20.16 4.58 4.25 6.56 4c1.52-.17 15.66-4.08 23.4-6.19-1.1-2.36-2.15-4.84-3.08-7.36Z"/><path class="cls-4" d="M288.31 151.75c-1.81-16.08-8.92-45.58-8.92-45.58l20.7-4.58s3 12 4.88 32.53"/><path class="cls-4" d="m258.73 109.29 24.11-3.62s9.13 48 7.62 50.54"/><path d="M266.89 41.62c11.95-2.06 16.12-.84 19.48 4.38s17.17 53.65 19.28 63.63S306.7 125.91 293 128s-34.21-6.31-34.21-6.31-.25 3.62-.51 5.81-5.72 5.43-6.27 1.72-6.73-61.73-7.78-71.49 13.57-14.55 22.66-16.11Z"/><path d="M280.15 43c4.54-1.93 8.92-2.52 13.46 3.91s10.52 27.74 10.52 27.74L289 83.45S268.07 48.19 280.15 43Z"/><path class="cls-5" d="M270.85 40c-4.25.63-9.18 1.81-11.53 3.88-2.86 2.52-1.69 10.14 12.41 8.66s12.62-7.91 10.94-9.63c-2.48-2.51-8.58-3.35-11.82-2.91Z"/><path class="cls-5" d="m275 30.47 5.34 17.09L263.82 50s-.25-7.07 0-11.74a27.84 27.84 0 0 1 .8-6.31Z"/><path class="cls-3" d="M268.49 36.32s.34 3.24 2.69 4.33 7.07.38 7.07.38l-3.32-10.56-6.93 1.05a23.45 23.45 0 0 0 .49 4.8Z"/><path class="cls-5" d="M274.13 8.88A10.82 10.82 0 0 1 278 14c1.13 2.81 1.47 6 2.1 7.7a18.93 18.93 0 0 1 1.52 7 9.63 9.63 0 0 1-5.68 8c-3.88 1.72-7.33 1.43-10-1.06a35.54 35.54 0 0 1-7.53-10.48c-1.35-3.36-2.82-9.93.51-13.42a12.68 12.68 0 0 1 15.21-2.86Z"/><path d="M270.05 30.43s0 .92 1.22 1a8.3 8.3 0 0 0 3.53-.43 6.72 6.72 0 0 0 1.39-1Z" style="fill:#bf644b"/><path class="cls-7" d="M272.82 26.6a.64.64 0 0 1-.29 0 .79.79 0 0 1-.29-.55v-.08a.69.69 0 0 0-.17.21.56.56 0 0 1-.42.21.69.69 0 0 1-.51-.51 2.63 2.63 0 0 1 .21-1.43c0-.08.13-.12.17-.08s.13.12.08.17a3.18 3.18 0 0 0-.21 1.26.58.58 0 0 0 .3.33.25.25 0 0 0 .17-.08c.16-.25.29-.38.42-.38s.12 0 .21.09 0 .12.08.25 0 .29.17.38.08 0 .17 0 .21-.21.12-.51a.47.47 0 0 1 0-.33c.05-.05.09-.09.13-.09a.56.56 0 0 1 .3.09c.21.08.25.12.37 0s.05-.17.05-.3a1.56 1.56 0 0 0-.68-1 .12.12 0 0 1 .13-.21 2.23 2.23 0 0 1 .8 1.22c0 .25 0 .42-.09.55a.49.49 0 0 1-.71.08s0 0-.08 0c0 .25.12.68-.34.84 0-.17-.04-.17-.09-.13Zm-.54-.72Z"/><path class="cls-5" d="M251.83 23.44c.8-3.28 10.31-1.85 9.51 4.13-.89 6.14-10.65.76-9.51-4.13Z"/><path class="cls-7" d="M259.74 28.54s-.09 0-.09-.05-.08-.12 0-.21a3.59 3.59 0 0 0-.46-3 3.85 3.85 0 0 0-3.54-2.19 2.66 2.66 0 0 0-2.14.84 2.4 2.4 0 0 0 0 1.93c0 .09 0 .17-.09.17s-.17 0-.17-.08a2.53 2.53 0 0 1 0-2.19 2.57 2.57 0 0 1 2.36-1 4.14 4.14 0 0 1 3.79 2.36c.67 1.22.88 2.65.46 3.28-.08.14-.12.14-.12.14Z"/><path class="cls-7" d="M256.37 28.54s-.13 0-.13-.09a6.68 6.68 0 0 1-.37-5.47c0-.08.08-.13.16-.08s.13.08.09.17a6.66 6.66 0 0 0 .34 5.26v.16s-.05.05-.09.05Z"/><ellipse class="cls-7" cx="267.87" cy="23.58" rx=".5" ry="1.01" transform="rotate(-8.56 267.981 23.55)"/><path class="cls-7" d="M265.17 21.26a4.21 4.21 0 0 1 1.89-1.14 3.37 3.37 0 0 1 1.85.13c.38 0 .34-.47.09-.89s-1.1-.59-2.32-.38a2.91 2.91 0 0 0-2.1 1.35c-.3.46.12 1.47.59.93Z"/><ellipse class="cls-7" cx="275.54" cy="22.19" rx=".5" ry="1.01" transform="rotate(-8.56 275.609 22.172)"/><path class="cls-7" d="M273.25 19.66a4.21 4.21 0 0 1 1.89-1.14 3.37 3.37 0 0 1 1.85.13c.38 0 .34-.47.08-.89s-1.09-.59-2.31-.38a2.86 2.86 0 0 0-2.1 1.35c-.3.42.12 1.47.59.93ZM278 31.48l-.59.25s-.76 2.61-1.68 3.29a9.81 9.81 0 0 1-4.67.88 18.4 18.4 0 0 1-2.06-2.65l-.76.34s1.89 3.57 2.14 3.87a10 10 0 0 0 3.5 1.17c.84-.08 3.49-2.27 3.57-2.65.26-1.17.55-4.5.55-4.5Z"/><path class="cls-7" d="m274.51 33.67-1.47.25.46 2.57h1.13l-.12-2.82z"/><path class="cls-5" d="m267.31 77.05 2.48 15.74s18.86-2.61 20-3.11 6.53-6.23 7.11-6.57 1.23-.21 1.1.59-.72 3.24-.72 3.24 4.55-1.22 4.93-1.51 2.82-2.86 3.36-3.12 1.56 0 1.39.59-2.27 4.38-2.27 4.38 1.05 3.49-.08 5-7.41 3.58-10.48 4.25S268 103.78 266 104s-4.93 0-6.57-4S255 79.79 255 79.79Z"/><path style="opacity:.4;isolation:isolate;fill:#254b6b" d="m248.54 58.54 6.9 20.45-6.35 3.03-.55-23.48z"/><path class="cls-2" d="M257.46 7.71s4.42 5.72 14.1 4.83C291.76 10.69 280.9.85 280.9.85s1.14 2.86-2.27 3.53C274 5.31 265-8 257.46 7.71Z"/><path class="cls-9" d="m378.81 101.05-79.09-66.2 57.34 65 21.75 1.2zM241.51 92.6s-7.42-22.84-10.76-31.6-12.25-6.65-10.75 0 6.68 30.31 6.68 30.31ZM299.72 34.85v60.22l45.03 2.53-45.03-62.75z"/><path class="cls-10" d="M366.84 93.06c-3.39-.17-124.59-4.54-155-3.34S52.44 95.94 50.6 95.94s-31.86 24.9-31.86 24.9v9.55S1 141.61.21 144.08s.35 29.1 5.18 39.46 14.09 24.9 14.09 24.9l482.7-2.07s17.43-29.51 18.18-32.84 0-26.58 0-26.58l-7.77-1.26s-21.1-22-23.35-23.3c-2.3-1.09-110.61-28.7-122.4-29.33Z"/><path class="cls-11" d="M512.54 145.8s-21.11-22-23.36-23.29S378.69 93.69 366.84 93c-3.39-.17-124.59-4.54-155-3.33S52.44 95.88 50.6 95.88s-31.86 24.9-31.86 24.9v9.55S1 141.55.21 144c-.69 2.3.23 25.25 4.2 36.87 0 0 40.21-45.21 115.39-47.22s111.7 47.22 158.92 47.22 101-48.83 147.83-43.77 90.19 43.77 90.19 43.77a63 63 0 0 0 3.62-7.36c.75-3.34 0-26.58 0-26.58Z"/><path style="fill:#f1f3f2" d="M498.04 161.62v11.62l22.26.4v-12.02h-22.26z"/><path style="fill:#7d009b" d="m49.1 130.45-9.66-12.89H22.7l-4.02 3.34v9.55H49.1z"/><path d="m209.24 89.84-40-25.48s-55.63 8.39-70.47 12.71S75 87.59 75 89.49v5.58Z"/><path class="cls-11" d="M63.2 98.87s-3.34-14.55-.75-15 11.1 13.33 11.1 13.33Z"/><path class="cls-14" d="M355.34 186.76H227.93c-13.4 0-18.58-9-18.86-22.66-.35-17.66 2.58-73.86 2.58-74.38 0-.11.12-.17.23-.17s.18.12.18.23c-.06.58-1.38 57.06-1 74.72.29 13.4 5.46 19.84 18.58 19.84 7.88 0 117.57.4 123.32.52-.12-2.19-.4-17.72-2.47-40.26-2.19-23.87-17.09-52.29-17.2-52.52a.27.27 0 0 1 .05-.29.26.26 0 0 1 .29.06c.18.29 16.34 28.3 18.58 52.29s3.34 42.33 3.34 42.5a.22.22 0 0 1-.06.18c-.04-.12-.1-.06-.15-.06Z"/><path class="cls-10" d="M220.74 108.82h20a.77.77 0 0 0 .75-.75V103a.77.77 0 0 0-.75-.75h-20a.77.77 0 0 0-.75.75v5.12a.77.77 0 0 0 .75.7Z"/><path d="M493.33 126.25s8.11-3.34 13.63 2.07 2.24 14 2.24 14Z" style="fill:#fff"/><path class="cls-11" d="m299.72 34.85 43.08 65h14.26l-48.54-65h-8.8z"/><path class="cls-11" d="M322 68.27s-3.39 6-5.63 11.44a41.08 41.08 0 0 0-2.59 11.68l24.1.63Z"/><path class="cls-14" d="M371.62 208.5a53.56 53.56 0 0 1-.93-9.72 52.81 52.81 0 0 1 105.61 0 54.47 54.47 0 0 1-.92 9.72Z"/><circle cx="423.32" cy="195.33" r="44.52"/><circle class="cls-16" cx="423.32" cy="195.33" r="29.97"/><circle cx="423.32" cy="195.33" r="20.94"/><path class="cls-17" d="M448.69 211.49a30 30 0 0 1-4.14 5.24 34.86 34.86 0 0 1-4.77 3.91l-41.42-41.59a30 30 0 0 1 9.15-8.92Z"/><path class="cls-17" d="M440.12 170.42a30 30 0 0 1 5.18 4.26 32.58 32.58 0 0 1 3.79 4.83l-42.16 40.78a30 30 0 0 1-4.71-4 31.4 31.4 0 0 1-4.09-5.29Z"/><path class="cls-14" d="M74.47 208.16a54.67 54.67 0 0 1-.92-9.73 52.81 52.81 0 0 1 105.61 0 54.67 54.67 0 0 1-.92 9.73Z"/><circle cx="126.35" cy="192.91" r="44.52"/><circle class="cls-16" cx="126.35" cy="192.91" r="29.97"/><circle cx="126.35" cy="192.91" r="20.94"/><path class="cls-17" d="M151.72 209.08a29.55 29.55 0 0 1-4.14 5.23 33.65 33.65 0 0 1-4.78 3.91l-41.41-41.59a30.94 30.94 0 0 1 3.91-4.77 29.61 29.61 0 0 1 5.24-4.14Z"/><path class="cls-17" d="M143.15 168a29.93 29.93 0 0 1 5.18 4.25 34.37 34.37 0 0 1 3.79 4.83L110 217.88a31.13 31.13 0 0 1-4.72-4 31.86 31.86 0 0 1-4.08-5.29Z"/></svg>