<svg id="Слой_1" data-name="Слой 1" xmlns="http://www.w3.org/2000/svg" viewBox="0 0 322.05 263.54"><defs><clipPath id="clip-path"><path class="cls-1" d="M50.13 183.47c.74 26-2.92 48.13-8.17 49.49-.19 0-21.72.59-21.91.59-5-.14 1.06-20.73.35-45.78-.72-25.39-7.71-46.18-2.64-48.42.11 0 21.42-.42 21.53-.45 5.26-1.36 10.11 18.59 10.84 44.57Z"/></clipPath><clipPath id="clip-path-2"><path class="cls-1" d="M294.09 193.67c.81 28.4-3.2 52.63-8.94 54.12-.2.05-23.74.64-23.94.64-5.5-.15 1.15-22.67.37-50.05-.78-27.77-8.42-50.5-2.88-52.94.12-.06 23.41-.47 23.54-.5 5.76-1.49 11.05 20.33 11.85 48.73Z"/></clipPath><clipPath id="clip-path-3"><path class="cls-1" d="M105.07 196.71c.81 28.4-3.2 52.63-8.94 54.12-.2 0-23.74.64-23.94.64-5.5-.15 1.15-22.67.37-50.06-.78-27.76-8.42-50.49-2.88-52.93.12-.06 23.42-.47 23.54-.5 5.78-1.49 11.05 20.33 11.85 48.73Z"/></clipPath><clipPath id="clip-path-4"><path class="cls-1" d="M242.62 181.24c.74 26-2.93 48.14-8.18 49.5-.18 0-21.71.59-21.9.58-5-.13 1.05-20.73.34-45.77-.71-25.4-7.7-46.19-2.63-48.42.11 0 21.41-.43 21.53-.46 5.22-1.36 10.11 18.6 10.84 44.57Z"/></clipPath><clipPath id="clip-path-5"><ellipse class="cls-1" cx="70.73" cy="200.09" rx="7.63" ry="37.6" transform="rotate(-1.05 71.283 200.927)"/></clipPath><clipPath id="clip-path-6"><ellipse class="cls-1" cx="17.5" cy="188.52" rx="6.1" ry="32.83" transform="rotate(-1.15 17.54 188.517)"/></clipPath><style>.cls-1{fill:none}.cls-3{fill:#232323}.cls-27,.cls-7{fill:#0c96fd}.cls-9{fill:#024168}.cls-10{fill:#1d7dcc}.cls-13{fill:#606060}.cls-14{fill:#8a9995}.cls-15{fill:#fff}.cls-16{fill:#303030}.cls-18{fill:#a8a9ad}.cls-20{fill:#f69576}.cls-21{fill:#dd866f}.cls-22{fill:#a5713d}.cls-23{fill:#6b3425}.cls-24{fill:#72645d}.cls-27{opacity:.21}</style></defs><path d="M310.66 243.93c0 10.83-83.3 19.61-164.09 19.61S.28 254.76.28 243.93c0-5.66-4.65-68.64 23.88-72.22 26.15-3.28 83.77-3.45 122.41-3.45 40.39 0 94.78 2.2 121.25 5.75s42.84 64.5 42.84 69.92Z" style="opacity:.15"/><path class="cls-3" d="M50.13 183.47c.74 26-2.92 48.13-8.17 49.49-.19 0-21.72.59-21.91.59-5-.14 1.06-20.73.35-45.78-.72-25.39-7.71-46.18-2.64-48.42.11 0 21.42-.42 21.53-.45 5.26-1.36 10.11 18.59 10.84 44.57Z"/><g style="-webkit-clip-path:url(#clip-path);clip-path:url(#clip-path)"><path d="m42.95 150.81 4.27-6.88 7.4-.08.38-9.18-5.82-.24-5.9 8.53-.33 7.85zM33.13 146.56l3.6 6.27 4.1-5.66.34-8.29-4.08 5.19-3.6-6.17-.36 8.66z"/><path d="m42.43 163.31 4.27-6.89 7.4-.07.38-9.18-5.82-.25-5.9 8.53-.33 7.86zM36.21 165.32l4.1-5.66.34-8.28-4.08 5.19-3.6-6.17-.36 8.66 3.6 6.26zM41.87 176.94l4.26-6.89 7.4-.07.39-9.18-5.83-.24-5.9 8.52-.32 7.86z"/><path d="m35.64 178.95 4.1-5.66.35-8.28-4.08 5.19-3.61-6.17-.36 8.66 3.6 6.26zM41.35 189.43l4.27-6.88 7.39-.08.39-9.18-5.82-.24-5.91 8.53-.32 7.85z"/><path d="m35.12 191.45 4.1-5.66.35-8.28-4.08 5.18-3.61-6.17-.36 8.66 3.6 6.27zM40.83 201.93l4.26-6.89 7.4-.07.39-9.18-5.83-.24-5.9 8.52-.32 7.86z"/><path d="m34.6 203.94 4.1-5.66.35-8.28-4.08 5.19-3.61-6.17-.36 8.66 3.6 6.26zM40.31 214.42l4.27-6.88 7.39-.07.39-9.19-5.83-.24-5.9 8.53-.32 7.85z"/><path d="m34.08 216.44 4.1-5.66.35-8.28-4.08 5.18-3.61-6.17-.36 8.66 3.6 6.27zM39.74 228.05l4.27-6.88 7.4-.07.38-9.19-5.82-.24-5.91 8.53-.32 7.85z"/><path d="m33.51 230.07 4.1-5.66.35-8.28-4.08 5.18-3.61-6.17-.36 8.67 3.6 6.26zM39.22 240.55l4.27-6.89 7.4-.07.38-9.18-5.82-.24-5.9 8.52-.33 7.86zM30.39 149.87l-3.75-7.18-7.38-.61.29-9.19 5.83.18 5.26 8.94-.25 7.86z"/><path d="m30 162.37-3.76-7.18-7.37-.62.29-9.18 5.82.18 5.27 8.94-.25 7.86zM29.56 176l-3.75-7.18-7.37-.61.29-9.18 5.82.18 5.26 8.94-.25 7.85z"/><path d="m29.17 188.5-3.76-7.18-7.37-.61.29-9.18 5.83.18 5.26 8.94-.25 7.85z"/><path d="m28.77 201-3.75-7.18-7.38-.61.3-9.18 5.82.18 5.26 8.93-.25 7.86zM28.38 213.5l-3.76-7.18-7.37-.61.29-9.18 5.82.18 5.27 8.93-.25 7.86zM27.95 227.14l-3.76-7.18-7.37-.61.29-9.19 5.82.18 5.26 8.94-.24 7.86z"/><path d="m27.55 239.64-3.75-7.18-7.38-.61.29-9.19 5.83.18 5.26 8.94-.25 7.86zM32.99 242.57l4.1-5.66.35-8.29-4.08 5.19-3.61-6.17-.36 8.66 3.6 6.27z"/></g><path class="cls-3" d="M294.09 193.67c.81 28.4-3.2 52.63-8.94 54.12-.2.05-23.74.64-23.94.64-5.5-.15 1.15-22.67.37-50.05-.78-27.77-8.42-50.5-2.88-52.94.12-.06 23.41-.47 23.54-.5 5.76-1.49 11.05 20.33 11.85 48.73Z"/><g style="-webkit-clip-path:url(#clip-path-2);clip-path:url(#clip-path-2)"><path d="m286.24 157.97 4.67-7.53 8.09-.08.42-10.04-6.36-.26-6.46 9.32-.36 8.59zM275.5 153.32l3.94 6.85 4.48-6.19.38-9.05-4.46 5.67-3.95-6.75-.39 9.47z"/><path d="m285.68 171.63 4.66-7.53 8.09-.08.42-10.04-6.36-.26-6.46 9.32-.35 8.59zM278.87 173.83l4.48-6.19.38-9.05-4.46 5.67-3.95-6.75-.39 9.47 3.94 6.85zM285.06 186.53l4.66-7.53 8.09-.08.42-10.04-6.36-.26-6.46 9.32-.35 8.59z"/><path d="m278.25 188.74 4.48-6.19.38-9.06-4.46 5.67-3.95-6.74-.39 9.47 3.94 6.85zM284.49 200.19l4.66-7.53 8.09-.07.42-10.04-6.36-.27-6.46 9.32-.35 8.59z"/><path d="m277.68 202.4 4.48-6.19.38-9.06-4.46 5.67-3.94-6.74-.4 9.47 3.94 6.85zM283.92 213.85l4.66-7.53 8.1-.07.41-10.04-6.36-.27-6.46 9.32-.35 8.59z"/><path d="m277.11 216.06 4.49-6.19.37-9.06-4.46 5.68-3.94-6.75-.4 9.47 3.94 6.85zM283.35 227.52l4.67-7.53 8.09-.08.41-10.04-6.36-.27-6.45 9.33-.36 8.59z"/><path d="m276.54 229.72 4.49-6.19.37-9.05-4.46 5.67-3.94-6.75-.4 9.47 3.94 6.85zM282.73 242.42l4.67-7.53 8.09-.08.41-10.04-6.36-.26-6.45 9.32-.36 8.59z"/><path d="m275.92 244.63 4.49-6.19.37-9.06-4.46 5.67-3.94-6.75-.4 9.47 3.94 6.86zM282.16 256.08l4.67-7.53 8.09-.08.41-10.03-6.36-.27-6.45 9.32-.36 8.59zM272.51 156.94l-4.11-7.85-8.06-.68.32-10.04 6.37.2 5.75 9.77-.27 8.6z"/><path d="m272.08 170.6-4.11-7.85-8.06-.67.32-10.04 6.37.2 5.75 9.77-.27 8.59zM271.61 185.51l-4.11-7.85-8.06-.67.32-10.04 6.36.2 5.76 9.77-.27 8.59z"/><path d="m271.17 199.18-4.1-7.85-8.07-.67.32-10.05 6.37.21 5.75 9.77-.27 8.59z"/><path d="m270.74 212.84-4.11-7.85-8.06-.67.32-10.04 6.37.2 5.75 9.77-.27 8.59z"/><path d="m270.31 226.51-4.11-7.85-8.06-.67.32-10.04 6.36.2 5.76 9.77-.27 8.59zM269.83 241.42l-4.1-7.85-8.06-.67.32-10.04 6.36.2 5.76 9.77-.28 8.59z"/><path d="m269.4 255.09-4.1-7.85-8.06-.67.31-10.05 6.37.2 5.75 9.77-.27 8.6zM275.36 258.29l4.48-6.19.37-9.06-4.46 5.67-3.94-6.74-.39 9.47 3.94 6.85z"/></g><path d="M110 178.36c.7 24.79-2.79 45.95-7.8 47.25-.18 0-5.52.56-5.7.55-4.8-.13-4-19.19-4.65-43.09-.68-24.24-1.89-44.69 3-46.82.11 0 4.75-.4 4.86-.43 4.99-1.3 9.62 17.75 10.29 42.54Z"/><ellipse cx="95.93" cy="181.23" rx="8.35" ry="44.97" transform="rotate(-1.15 95.839 181.331)"/><ellipse cx="260.26" cy="196.74" rx="10.46" ry="51.5" transform="rotate(-1.05 261.218 197.756)"/><path d="M14.66 88.25S16.87 74.88 22 73.06s6-1.82 6-1.82l36.73-1.83 4.72 22.79Z"/><path d="M43.26 94.93V73.82a6 6 0 0 1 5.93-6L92.54 67l9.63 29.47Z" style="fill:#424b6a"/><path class="cls-7" d="m69.5 85.14 116-1.37s34.91 20.51 39.2 47.85 2.71 22.55 2.71 22.55 2.11 42.38-2.86 48.76c-18.16 18.2-118.29 12.82-133.5 11.4-21.9-2.05-83.85-25.07-83.85-25.07C-.64 160.1 1 121.82 1 121.82a85.77 85.77 0 0 1 4.37-12.3c2.56-5.47.3-9.57.3-9.57s4-9.12 7.63-11.85 56.2-2.96 56.2-2.96Z"/><path d="M5.68 100a59.22 59.22 0 0 0-1.13 11.5c.08 5.81 4.1.57 4.1.57l1.62-7.74Z" style="fill:#7d009b"/><path class="cls-7" d="m10.5 91.9 2.66-11.55s1.6-4.1 1.5 7.9-4.16 3.65-4.16 3.65Z"/><path class="cls-9" d="M26.77 186.13c.09 3.49.12 6.93.09 10.25l-18.57-6.71c-.65-27 2.82-49.75 7.84-51s9.87 19.9 10.64 47.46ZM82.28 197.09c.16 5.49.15 10.83 0 15.93l-23-6.08c-.06-1.27-.1-2.56-.14-3.86-.89-31.56 3.56-58.48 9.94-60.13s12.31 22.59 13.2 54.14Z"/><path class="cls-10" d="m79.77 212.35-17.47-4.62c6.23 1.82 12.22 3.43 17.47 4.62ZM82.28 213v-.12c-.81-.17-1.65-.35-2.51-.55ZM59.32 206.94l3 .79-3-.89Z"/><path class="cls-3" d="M105.07 196.71c.81 28.4-3.2 52.63-8.94 54.12-.2 0-23.74.64-23.94.64-5.5-.15 1.15-22.67.37-50.06-.78-27.76-8.42-50.49-2.88-52.93.12-.06 23.42-.47 23.54-.5 5.78-1.49 11.05 20.33 11.85 48.73Z"/><g style="-webkit-clip-path:url(#clip-path-3);clip-path:url(#clip-path-3)"><path d="m97.22 161 4.67-7.53 8.09-.07.42-10.04-6.37-.27-6.45 9.32-.36 8.59zM86.48 156.36l3.94 6.85 4.48-6.19.38-9.06-4.46 5.68-3.94-6.75-.4 9.47z"/><path d="m96.66 174.67 4.66-7.53 8.09-.08.42-10.04-6.36-.27-6.46 9.33-.35 8.59zM89.85 176.87l4.48-6.19.38-9.05-4.46 5.67-3.94-6.75-.4 9.47 3.94 6.85zM96.04 189.57l4.66-7.53 8.09-.08.42-10.04-6.36-.26-6.46 9.32-.35 8.59z"/><path d="m89.23 191.78 4.48-6.19.38-9.06-4.46 5.67-3.94-6.75-.4 9.47 3.94 6.86zM95.47 203.23l4.67-7.53 8.08-.08.42-10.03-6.36-.27-6.45 9.32-.36 8.59z"/><path d="m88.66 205.44 4.48-6.19.38-9.06-4.46 5.67-3.94-6.74-.4 9.47 3.94 6.85zM94.9 216.89l4.67-7.53 8.09-.08.41-10.03-6.36-.27-6.45 9.32-.36 8.59z"/><path d="m88.09 219.1 4.49-6.19.37-9.06-4.46 5.67-3.94-6.74-.4 9.47 3.94 6.85zM94.33 230.56l4.67-7.53 8.09-.08.41-10.04-6.36-.27-6.45 9.32-.36 8.6z"/><path d="m87.53 232.76 4.48-6.19.37-9.06-4.46 5.68-3.94-6.75-.4 9.47 3.95 6.85zM93.71 245.46l4.67-7.53 8.09-.08.42-10.04-6.37-.26-6.45 9.32-.36 8.59z"/><path d="m86.91 247.66 4.48-6.19.37-9.05-4.46 5.67-3.94-6.75-.39 9.47 3.94 6.85zM93.14 259.12l4.67-7.53 8.09-.08.42-10.04-6.37-.26-6.45 9.32-.36 8.59zM83.49 159.97l-4.1-7.85-8.07-.67.32-10.04 6.37.2 5.75 9.77-.27 8.59z"/><path d="m83.06 173.64-4.11-7.85-8.06-.67.32-10.04 6.37.2 5.75 9.77-.27 8.59zM82.59 188.55l-4.11-7.85-8.06-.67.32-10.04 6.36.2 5.76 9.77-.27 8.59z"/><path d="m82.15 202.22-4.1-7.85-8.06-.68.31-10.04 6.37.2 5.75 9.77-.27 8.6zM81.72 215.88l-4.1-7.85-8.07-.67.32-10.04 6.37.2 5.75 9.77-.27 8.59z"/><path d="m81.29 229.55-4.11-7.85-8.06-.67.32-10.04 6.37.2 5.75 9.77-.27 8.59zM80.81 244.46l-4.1-7.85-8.06-.67.32-10.04 6.36.2 5.76 9.77-.28 8.59z"/><path d="m80.38 258.13-4.1-7.86-8.06-.67.31-10.04 6.37.2 5.76 9.77-.28 8.6zM86.34 261.32l4.48-6.19.37-9.05-4.46 5.67-3.94-6.75-.39 9.47 3.94 6.85z"/></g><path class="cls-10" d="M225.59 138.22c2.46 27.8-129.36 28.59-142.69 6.84-17.31-28.25-22.28 21.8-35.82 20.28-9.64-1.08-21.76-39.19-36.13-33.27-3.53 1.46-7.36 13.08-8.68 28.52a182.74 182.74 0 0 0 4.91 28.67l1.11.41c-.65-27 2.82-49.75 7.84-51s9.87 19.9 10.64 47.46c.09 3.46.12 6.85.09 10.15 9.5 3.29 21.24 7.21 32.45 10.56-.05-1.24-.09-2.49-.13-3.76-.89-31.56 3.56-58.48 9.94-60.13s12.27 22.59 13.16 54.14c.16 5.45.15 10.75 0 15.81a80.55 80.55 0 0 0 8.72 1.43c15.21 1.42 115.34 6.8 133.5-11.4 5-6.38 4.5-51.34 1.09-64.71Z"/><ellipse cx="17.5" cy="188.52" rx="8.35" ry="44.97" transform="rotate(-1.15 17.54 188.517)"/><path class="cls-3" d="M242.62 181.24c.74 26-2.93 48.14-8.18 49.5-.18 0-21.71.59-21.9.58-5-.13 1.05-20.73.34-45.77-.71-25.4-7.7-46.19-2.63-48.42.11 0 21.41-.43 21.53-.46 5.22-1.36 10.11 18.6 10.84 44.57Z"/><g style="-webkit-clip-path:url(#clip-path-4);clip-path:url(#clip-path-4)"><path d="m235.44 148.59 4.27-6.89 7.4-.07.38-9.18-5.82-.24-5.9 8.52-.33 7.86zM225.62 144.34l3.6 6.26 4.1-5.66.34-8.28-4.08 5.19-3.61-6.17-.35 8.66z"/><path d="m234.92 161.08 4.27-6.88 7.4-.07.38-9.19-5.82-.24-5.9 8.53-.33 7.85zM228.7 163.1l4.1-5.66.34-8.28-4.08 5.18-3.6-6.17-.37 8.66 3.61 6.27zM234.35 174.71l4.27-6.88 7.4-.07.39-9.19-5.83-.24-5.9 8.53-.33 7.85z"/><path d="m228.13 176.73 4.1-5.66.34-8.28-4.07 5.18-3.61-6.17-.36 8.66 3.6 6.27zM233.83 187.21l4.27-6.89 7.4-.07.38-9.18-5.82-.24-5.9 8.52-.33 7.86z"/><path d="m227.61 189.23 4.1-5.67.35-8.28-4.09 5.19-3.6-6.17-.36 8.66 3.6 6.27zM233.31 199.7l4.27-6.88 7.4-.07.38-9.19-5.82-.24-5.9 8.53-.33 7.85z"/><path d="m227.09 201.72 4.1-5.66.34-8.28-4.07 5.19-3.61-6.18-.36 8.67 3.6 6.26zM232.79 212.2l4.27-6.89 7.4-.07.38-9.18-5.82-.24-5.9 8.52-.33 7.86z"/><path d="m226.57 214.22 4.1-5.66.34-8.29-4.08 5.19-3.6-6.17-.36 8.66 3.6 6.27zM232.23 225.83l4.27-6.89 7.4-.07.38-9.18-5.82-.24-5.91 8.52-.32 7.86z"/><path d="m226 227.85 4.1-5.66.35-8.29-4.08 5.19-3.61-6.17-.36 8.66 3.6 6.27zM231.71 238.32l4.26-6.88 7.41-.07.38-9.18-5.82-.25-5.91 8.53-.32 7.85zM222.88 147.65l-3.75-7.18-7.38-.62.29-9.18 5.83.18 5.26 8.94-.25 7.86z"/><path d="m222.48 160.15-3.75-7.19-7.37-.61.29-9.18 5.82.18 5.26 8.93-.25 7.87zM222.05 173.78l-3.75-7.18-7.38-.61.3-9.19 5.82.19 5.26 8.93-.25 7.86z"/><path d="m221.66 186.28-3.76-7.18-7.37-.61.29-9.19 5.82.19 5.27 8.93-.25 7.86z"/><path d="m221.26 198.78-3.75-7.18-7.38-.61.29-9.19 5.83.19 5.26 8.93-.25 7.86z"/><path d="m220.87 211.28-3.76-7.18-7.37-.61.29-9.19 5.82.19 5.26 8.93-.24 7.86zM220.43 224.92l-3.75-7.18-7.37-.62.29-9.18 5.82.18 5.26 8.94-.25 7.86zM220.04 237.42l-3.76-7.18-7.37-.62.29-9.18 5.82.18 5.27 8.94-.25 7.86zM225.48 240.34l4.1-5.66.35-8.28-4.08 5.19-3.61-6.18-.36 8.67 3.6 6.26z"/></g><ellipse cx="209.99" cy="186.3" rx="8.35" ry="44.97" transform="translate(-3.7 4.25)"/><ellipse class="cls-13" cx="17.5" cy="188.52" rx="6.1" ry="32.83" transform="rotate(-1.15 17.54 188.517)"/><ellipse cx="17.5" cy="188.52" rx="3.96" ry="21.34" transform="rotate(-1.15 17.54 188.517)"/><ellipse cx="70.73" cy="200.09" rx="10.46" ry="51.5" transform="rotate(-1.05 71.283 200.927)"/><ellipse class="cls-13" cx="70.73" cy="200.09" rx="7.63" ry="37.6" transform="rotate(-1.05 71.283 200.927)"/><ellipse cx="70.73" cy="200.09" rx="4.96" ry="24.44" transform="rotate(-1.05 71.283 200.927)"/><path class="cls-14" d="M225.35 163.29s-4.46-2.06-5.34.44-2.73 20.72-2.73 20.72l5.83-.48Z"/><path class="cls-15" d="M223.72 131.89c-.81-5-9.52-4.9-10.94-.82s-3.07 14.81-2.65 17.17 16.03-1.48 13.59-16.35Z"/><ellipse class="cls-15" cx="206.75" cy="141.11" rx="5.45" ry="1.47" transform="rotate(-89.03 206.754 141.104)"/><path class="cls-14" d="M102.85 163.29s4.46-2.06 5.34.44 2.74 20.72 2.74 20.72l-5.84-.48Z"/><path class="cls-15" d="M130.44 138.61c.71-5.1 9.4-6.74 10.9-2.94s3.38 14.18 3 16.62-16.02 1.64-13.9-13.68Z"/><ellipse class="cls-15" cx="147.57" cy="144.51" rx="1.49" ry="5.4" transform="rotate(-1.92 147.416 144.244)"/><path class="cls-13" d="M87 208.86c0 3.91 1.11 7 2.4 6.95 24.34 2.18 106.71 1 131.8-3.32.5 0 .9-1.31.89-2.85l-.18-19.79c-23.5 4.8-107.22 5.53-135 3.49Z"/><path class="cls-16" d="m207.83 178.14-1.33-24.58c-.24-4.32-1.28-7.4-2.46-7.24l-52.17 1.58c-1.18 0-2.18 3.17-2.36 7.51l-1 24.71c-.14 3.31.55 6.29 1.44 6.32l56.54-1.83c.87-.12 1.51-3.18 1.34-6.47Z"/><path class="cls-13" d="m154.62 156.12 46.61-1.46-.04-5.72-46.61 1.46.04 5.72zM154.69 166.28l46.61-1.45-.04-5.72-46.61 1.45.04 5.72zM154.75 173.91l46.6-1.46-.04-5.72-46.6 1.46.04 5.72zM154.82 184.08l46.61-1.46-.04-5.72-46.61 1.46.04 5.72z"/><path class="cls-14" d="m201.5 188.08 1.77-.24-2.16-44.38-11.39.25 11.78 44.37zM154.92 189.34l-1.77-.04 1.62-44.59 1.77.04-1.62 44.59z"/><path class="cls-16" d="m161.09 211.75 42.02-1.47-.06-7.12-42.03 1.47.07 7.12z"/><path class="cls-18" d="m77.49 172.08-2.36-4.12-4.57 23.95L66 167.96l-2.36 4.12 5.35 28.07-5.35 28.08 2.36 4.12 4.56-23.95 4.57 23.95 2.36-4.12-5.35-28.08 5.35-28.07z" style="-webkit-clip-path:url(#clip-path-5);clip-path:url(#clip-path-5)"/><path class="cls-18" d="m24.14 161.68-2.26-3.95-4.38 22.95-4.37-22.95-2.26 3.95 5.12 26.9-5.12 26.9 2.26 3.95 4.37-22.95 4.38 22.95 2.26-3.95-5.13-26.9 5.13-26.9z" style="-webkit-clip-path:url(#clip-path-6);clip-path:url(#clip-path-6)"/><path class="cls-9" d="m62.65 88.1-1.83 14.68c-.29 2.45-.58 4.9-.84 7.35-.12 1.23-.25 2.44-.29 3.66l-.09 3.7-.74 29.59-.94 29.56c-.05 1.26-.05 2.42-.14 3.75a12.52 12.52 0 0 1-.31 2 5 5 0 0 1-.94 2.07 1.24 1.24 0 0 1-.28.28 1.54 1.54 0 0 1-.4.26 1.65 1.65 0 0 1-.57.15 1.51 1.51 0 0 1-.3 0h-.22l-.9-.22-1.79-.43-3.6-.87L34.1 180l-.37-.09-.19-.29a3.5 3.5 0 0 1-.24-.47 3.08 3.08 0 0 1-.16-.38c-.09-.25-.19-.51-.25-.75-.15-.5-.27-1-.37-1.47-.22-1-.35-2-.48-2.93-.23-1.95-.34-3.89-.4-5.83-.13-3.89 0-7.74.14-11.57.19-7.69.46-15.37.74-23l.83-23 .24-5.75a50.66 50.66 0 0 1 .5-5.77c.28-1.92.75-3.79 1.16-5.66l1.29-5.62-1 5.67c-.32 1.9-.75 3.77-.95 5.67a49.58 49.58 0 0 0-.3 5.72v5.77l-.3 23c-.1 7.68-.21 15.36-.39 23-.08 3.85-.21 7.68-.06 11.48.08 1.9.19 3.79.43 5.66.13.93.26 1.86.47 2.76a11.44 11.44 0 0 0 .34 1.31 5.64 5.64 0 0 0 .21.62l.11.28a.89.89 0 0 0 .09.17l-.56-.38 14.38 3.47 3.59.89 1.8.45.89.22h-.18c-.01 0 0 0 0 0a3.8 3.8 0 0 0 .54-1.28 11.19 11.19 0 0 0 .27-1.67c.08-1.13.1-2.44.16-3.65L57.2 147l1.35-29.57.18-3.69c.09-1.24.26-2.48.43-3.7.33-2.45.71-4.89 1.09-7.33q1.13-7.31 2.4-14.61Z"/><path class="cls-10" d="m40.74 104.54-4.74-.45c-.24 0-.43-.62-.43-1.35v-3c0-.76.21-1.37.46-1.35l4.75.45c.24 0 .43.62.43 1.35v3c-.01.81-.21 1.37-.47 1.35Z"/><path class="cls-20" d="M164.88 76.31h72.51v25.84h-72.51z"/><path d="M169.12 54.71c1.75-9 18.52-6.56 30.47-6.17s22-4.63 28.16-.39 4.63 54 4.63 54h-56.7s-9.26-33.55-6.56-47.44Z"/><path class="cls-20" d="M212.13 52.21h-24.35l2.03-22.57h17.25l5.07 22.57z"/><path class="cls-21" d="M188.6 43.14a21.93 21.93 0 0 0 11.36 3 22.51 22.51 0 0 0 10.27-2.34l-3.17-14.11h-17.25Z"/><path class="cls-22" d="M189.56 6.11a10.62 10.62 0 0 0-7.32 7.71c-.78 3.86.77 15.43 5 18.52s22.87-.45 23.91-.77c6.18-1.93 3.86-17.36.78-20.45s-14.27-7.71-22.37-5.01Z"/><path class="cls-21" d="M180.86 19.76c.81-4 6.74-.38 5.64 7-1.11 7.62-6.84-1.06-5.64-7Z"/><path class="cls-23" d="M185.39 27.71a.23.23 0 0 1 0-.23 8.65 8.65 0 0 0 0-3.86c-.22-1.15-.78-3.16-2.06-3.47a1.13 1.13 0 0 0-1.43.7 5.65 5.65 0 0 0-.22 2.43.34.34 0 0 1-.05.23s-.1 0-.12-.12a6.38 6.38 0 0 1 .25-2.74 1.27 1.27 0 0 1 1.59-.81c1 .23 1.8 1.58 2.19 3.71a9.26 9.26 0 0 1 0 4.2Z"/><path class="cls-23" d="M183.28 27.05s-.06 0-.08-.11a16.75 16.75 0 0 1 .29-7c0-.08.08-.12.12-.08a.29.29 0 0 1 0 .23 16.15 16.15 0 0 0-.29 6.71.31.31 0 0 1 0 .24s-.04.01-.04.01Z"/><path class="cls-21" d="M210.53 26.78c-1.1-7.4 4.83-11 5.64-7 1.2 5.92-4.54 14.6-5.64 7Z"/><path class="cls-23" d="M211.58 27.71a9.26 9.26 0 0 1 0-4.2c.38-2.13 1.18-3.48 2.19-3.71a1.27 1.27 0 0 1 1.59.81 6.38 6.38 0 0 1 .25 2.74c0 .08-.08.16-.12.12a.35.35 0 0 1-.06-.23 5.58 5.58 0 0 0-.21-2.43 1.13 1.13 0 0 0-1.43-.7c-1.28.31-1.84 2.32-2.06 3.47a8.65 8.65 0 0 0 0 3.86.23.23 0 0 1 0 .23s0 0-.06 0Z"/><path class="cls-23" d="M213.71 27a.31.31 0 0 1 0-.24 16.15 16.15 0 0 0-.29-6.71.29.29 0 0 1 0-.23s.1 0 .11.08a16.84 16.84 0 0 1 .3 7c0 .08 0 .11-.08.11s-.02.04-.04-.01Z"/><path class="cls-20" d="M198.57 6.71c-8.43-2.43-14.79 2.48-14.79 15.47 0 6.36 1.34 7.68 3.63 13.12 1.12 2.68 7.08 8 10.92 9h.48c3.84-1 9.79-6.32 10.92-9 2.28-5.44 3.63-6.76 3.63-13.12 0-12.99-6.36-17.9-14.79-15.47Z"/><path class="cls-22" d="M183.78 11.51s5.37 0 8.87 1.93c4.24 2.31 11.56 5.65 18.13 5 12-1.15 3.47-14.65.38-14.65.78 1.15-.77 2.7-2.31 2.31S193-10.48 183.78 11.51Z"/><path class="cls-15" d="M194.35 32.76s.5 3.09 2.31 3.74 3.7.24 4.51-.81a8.68 8.68 0 0 0 1.28-3Z"/><path class="cls-23" d="M198.44 31.49a.46.46 0 0 1-.35-.12.93.93 0 0 1-.23-.73v-.11a.73.73 0 0 0-.27.23.65.65 0 0 1-.59.24.92.92 0 0 1-.58-.73 4.07 4.07 0 0 1 .5-1.82.19.19 0 0 1 .23-.07.18.18 0 0 1 .08.23 2.91 2.91 0 0 0-.46 1.54c.07.31.19.43.31.46s.15 0 .19-.07c.27-.27.46-.39.62-.39a.33.33 0 0 1 .23.16.68.68 0 0 1 0 .3.8.8 0 0 0 .11.51.45.45 0 0 0 .23 0c.23 0 .27-.23.27-.61 0-.2 0-.35.08-.43a.29.29 0 0 1 .19-.07c.16 0 .23.11.35.19s.31.19.46.08a.4.4 0 0 0 .08-.39 2.64 2.64 0 0 0-.62-1.43c-.07 0-.07-.15 0-.23a.19.19 0 0 1 .24 0 2.84 2.84 0 0 1 .77 1.7c0 .31 0 .54-.2.66a.65.65 0 0 1-.92 0l-.08-.08v.08c0 .31 0 .88-.58 1Zm-.54-1Z"/><ellipse class="cls-23" cx="191.23" cy="25.59" rx=".66" ry="1.31"/><path class="cls-23" d="M188.94 22.16a5.22 5.22 0 0 1 2.62-1.08 4.59 4.59 0 0 1 2.32.54c.46.11.54-.54.27-1.08s-1.24-1-2.86-.93a3.81 3.81 0 0 0-2.93 1.27c-.46.47-.11 1.85.58 1.28Z"/><ellipse class="cls-23" cx="204.26" cy="25.67" rx=".66" ry="1.31"/><path class="cls-23" d="M201.65 21.46a5.31 5.31 0 0 1 2.8-.42 4.56 4.56 0 0 1 2.12 1.08c.42.22.65-.4.52-1s-1-1.23-2.55-1.58a4 4 0 0 0-3.15.53c-.57.39-.56 1.78.26 1.39ZM203.33 37.2a26.37 26.37 0 0 1-2 3.82 10.61 10.61 0 0 1-5.48 0 26.55 26.55 0 0 1-2-3.82l-1 .23s1.54 5 1.77 5.4a13.13 13.13 0 0 0 3.75 2.23v.08h.38v-.08a13 13 0 0 0 3.74-2.23c.23-.42 1.78-5.4 1.78-5.4Z"/><path class="cls-23" d="M198.05 37.35h1.54v3.09h-1.54z"/><ellipse class="cls-20" cx="199.79" cy="51.66" rx="13.69" ry="5.37"/><path d="M173.75 50.91c7.27 1 8.1 5.8 8.87 9.11s.77 20.72.77 20.72l-23.14 2.9s.77-15.33 3.09-24c1.9-7.2 7.32-9.15 10.41-8.73ZM225.55 49c-7.27 1-8.1 5.8-8.87 9.11s-.77 20.72-.77 20.72l23.14 2.9s-.77-15.33-3.08-24c-1.91-7.22-7.33-9.17-10.42-8.73Z"/><path class="cls-20" d="M225.52 64.18c-.5-.94-2.34.26-2.61 1s.53 8.87.53 8.87-2.55 2.08-2.6 4.79 3.56 4.78 3.77 5.1-.42 2.81 3 4.25 6.11.42 6.38-1.38-5.64-15-6.59-17.54-1.46-4.27-1.88-5.09ZM175.52 66c.5-.93 2.34.27 2.6 1s-.53 8.88-.53 8.88 2.55 2.07 2.61 4.78-3.56 4.79-3.78 5.1.43 2.82-3 4.26-6.11.42-6.38-1.39 5.63-15 6.59-17.53 1.46-4.32 1.89-5.1Z"/><path class="cls-24" d="m233.73 102.54-.57-9.11s-1.28 4.1-5 4.1-8.45-3.09-15.1-5.69a34 34 0 0 0-13.21-2 28.74 28.74 0 0 0-11.23 2c-6.65 2.6-11.32 5.69-15.1 5.69s-5.05-4.1-5.05-4.1l-.57 9.11Z"/><path class="cls-24" d="M169.21 102.54c0-.59-.05-1.19-.05-1.79a32.1 32.1 0 0 1 64.19 0v1.79h6.63v-1.79a38.72 38.72 0 0 0-77.43 0v1.79Z"/><path class="cls-20" d="M168.9 68.93a48.52 48.52 0 0 1 7.92 7.82c.75 1.27.27 3.34-1.49 2.87s-8-6.17-9.08-7.6.63-4.26 2.65-3.09Z"/><path class="cls-20" d="M165 71.55c1.67.79 7.67 6 8.51 7.17s.53 3.31-1.26 3-8.43-5.52-9.65-6.86.29-4.32 2.4-3.31Z"/><path class="cls-20" d="M163.77 76.65a47.09 47.09 0 0 1 9.08 5.68c1 1 1 3.09-.8 3s-8.78-4.13-10.13-5.24-.29-4.09 1.85-3.44Z"/><path class="cls-20" d="M164.31 81.53a39.42 39.42 0 0 1 7.39 5.13c.75.9.57 2.55-.93 2.38s-7.25-3.85-8.33-4.83a1.69 1.69 0 0 1 1.87-2.68ZM232.13 67.13a48.4 48.4 0 0 0-7.91 7.81c-.75 1.28-.27 3.35 1.48 2.87s8-6.17 9.09-7.6-.64-4.21-2.66-3.08Z"/><path class="cls-20" d="M236 69.74a49.08 49.08 0 0 0-8.5 7.17c-.84 1.21-.53 3.32 1.26 3s8.43-5.53 9.65-6.87-.26-4.31-2.41-3.3Z"/><path class="cls-20" d="M237.27 74.84a46.78 46.78 0 0 0-9.08 5.68c-1 1-.95 3.1.8 3s8.78-4.12 10.13-5.24.29-4.12-1.85-3.44Z"/><path class="cls-20" d="M236.73 79.72a39.42 39.42 0 0 0-7.39 5.13c-.75.9-.58 2.55.93 2.39s7.25-3.86 8.33-4.84a1.7 1.7 0 0 0-1.87-2.68Z"/><path class="cls-7" d="M82.59 44.5c-2.16 5.08-13.82 40.86-13.82 40.86s-.87 7.91-1.23 14.16c1 2.93 2 5.9 2.89 8.88 1.35 4.45 2.57 8.95 4.16 13.32 3.29 9 7 17.88 10.08 27 .09.27.16.54.25.81l85.46 22.06V44.5Z"/><path class="cls-10" d="M310.85 147.67c-70.5 16.84-181.76 19.23-226.54 0l.36 1c2.94 8.76 4.23 18 5.11 27.13.44 4.59-4.37 10.33-4 14.91.16 1.86.39 1.87.53 3.73l233.08.69v-38.88a8.58 8.58 0 0 0-8.54-8.58Z"/><path class="cls-7" d="M51 77.58h15a3.36 3.36 0 0 1 3.36 3.36v9.31H51a2.15 2.15 0 0 1-2.15-2.15v-8.37A2.15 2.15 0 0 1 51 77.58Z"/><path class="cls-15" d="M88.28 138.82c2-4.8 26.12-6.22 30.25-2.62s9.31 13.43 8.28 15.72-44.47 1.31-38.53-13.1Z"/><circle class="cls-15" cx="138.28" cy="144.64" r="5.16"/><path class="cls-7" d="M276.91 101.62c-5.4-7.12-10.66-16.84-17.86-30.26-3.46-6.44-8.26-17.29-12.32-26.86h-92.49V165l164-12.15s.33-10-3.93-18.84-32-25.28-37.4-32.39Z"/><path class="cls-7" d="M266.33 77.58h18.37v9.31a3.36 3.36 0 0 1-3.36 3.36h-15a2.15 2.15 0 0 1-2.15-2.15v-8.37a2.15 2.15 0 0 1 2.15-2.15Z" transform="rotate(180 274.44 83.915)"/><path class="cls-16" d="M216 189.26h-76.65a5.19 5.19 0 0 1-5.14-5.92l3.36-23.34a8.32 8.32 0 0 1 8.24-7.14H216Z"/><path class="cls-14" d="M314.52 169.94s-15.61-2.29-18.78 0-10.26 19.32-10.26 19.32H306ZM93.69 169.94s15.61-2.29 18.78 0 10.26 19.32 10.26 19.32h-20.52Z"/><path class="cls-15" d="M312.53 138.82c-2.07-4.8-27.34-6.22-31.67-2.62s-9.74 13.43-8.66 15.72 46.56 1.31 40.33-13.1Z"/><circle class="cls-15" cx="265.71" cy="144.64" r="5.16"/><path class="cls-13" d="M157.14 195.16h164.91v21.29H154.24v-18.39a2.9 2.9 0 0 1 2.9-2.9Z" transform="rotate(-180 238.145 205.8)"/><path d="M87.75 44.5 73.47 89.92s-3 9.6 18.63 11.24c14.25 1.08 43.7 1.45 62.14 1.57v.07h16.14v-.07c18.43-.12 47.89-.49 62.14-1.57 21.61-1.64 26.85-15.72 26.85-15.72L243.18 44.5Z" style="fill:#3b3b3b"/><path class="cls-16" d="M180.22 189.26h84.86a5.19 5.19 0 0 0 5.13-5.92L266.85 160a8.32 8.32 0 0 0-8.24-7.14h-78.39Z"/><path class="cls-13" transform="rotate(-180 202.455 157.24)" d="M156.94 154.54h91.03v5.39h-91.03z"/><path class="cls-13" transform="rotate(-180 202.455 166.375)" d="M156.94 163.68h91.03v5.39h-91.03z"/><path class="cls-13" transform="rotate(-180 202.455 174.595)" d="M156.94 171.9h91.03v5.39h-91.03z"/><path class="cls-13" transform="rotate(-180 202.455 183.615)" d="M156.94 180.92h91.03v5.39h-91.03z"/><path class="cls-14" d="M247.48 191.88h6.22l-5.24-42.08h-6.22l5.24 42.08z"/><path class="cls-16" transform="rotate(-180 198.93 209.155)" d="M168.55 205.8h60.76v6.71h-60.76z"/><path class="cls-14" d="M156.94 191.88h-6.22l5.24-42.08h6.22l-5.24 42.08z"/><g style="opacity:.53"><path class="cls-20" d="M164.88 76.31h72.51v25.84h-72.51z"/><path d="M169.12 54.71c1.75-9 18.52-6.56 30.47-6.17s22-4.63 28.16-.39 4.63 54 4.63 54h-56.7s-9.26-33.55-6.56-47.44Z"/><path class="cls-20" d="M212.13 52.21h-24.35l2.03-22.57h17.25l5.07 22.57z"/><path class="cls-21" d="M188.6 43.14a21.93 21.93 0 0 0 11.36 3 22.51 22.51 0 0 0 10.27-2.34l-3.17-14.11h-17.25Z"/><path class="cls-22" d="M189.56 6.11a10.62 10.62 0 0 0-7.32 7.71c-.78 3.86.77 15.43 5 18.52s22.87-.45 23.91-.77c6.18-1.93 3.86-17.36.78-20.45s-14.27-7.71-22.37-5.01Z"/><path class="cls-21" d="M180.86 19.76c.81-4 6.74-.38 5.64 7-1.11 7.62-6.84-1.06-5.64-7Z"/><path class="cls-23" d="M185.39 27.71a.23.23 0 0 1 0-.23 8.65 8.65 0 0 0 0-3.86c-.22-1.15-.78-3.16-2.06-3.47a1.13 1.13 0 0 0-1.43.7 5.65 5.65 0 0 0-.22 2.43.34.34 0 0 1-.05.23s-.1 0-.12-.12a6.38 6.38 0 0 1 .25-2.74 1.27 1.27 0 0 1 1.59-.81c1 .23 1.8 1.58 2.19 3.71a9.26 9.26 0 0 1 0 4.2Z"/><path class="cls-23" d="M183.28 27.05s-.06 0-.08-.11a16.75 16.75 0 0 1 .29-7c0-.08.08-.12.12-.08a.29.29 0 0 1 0 .23 16.15 16.15 0 0 0-.29 6.71.31.31 0 0 1 0 .24s-.04.01-.04.01Z"/><path class="cls-21" d="M210.53 26.78c-1.1-7.4 4.83-11 5.64-7 1.2 5.92-4.54 14.6-5.64 7Z"/><path class="cls-23" d="M211.58 27.71a9.26 9.26 0 0 1 0-4.2c.38-2.13 1.18-3.48 2.19-3.71a1.27 1.27 0 0 1 1.59.81 6.38 6.38 0 0 1 .25 2.74c0 .08-.08.16-.12.12a.35.35 0 0 1-.06-.23 5.58 5.58 0 0 0-.21-2.43 1.13 1.13 0 0 0-1.43-.7c-1.28.31-1.84 2.32-2.06 3.47a8.65 8.65 0 0 0 0 3.86.23.23 0 0 1 0 .23s0 0-.06 0Z"/><path class="cls-23" d="M213.71 27a.31.31 0 0 1 0-.24 16.15 16.15 0 0 0-.29-6.71.29.29 0 0 1 0-.23s.1 0 .11.08a16.84 16.84 0 0 1 .3 7c0 .08 0 .11-.08.11s-.02.04-.04-.01Z"/><path class="cls-20" d="M198.57 6.71c-8.43-2.43-14.79 2.48-14.79 15.47 0 6.36 1.34 7.68 3.63 13.12 1.12 2.68 7.08 8 10.92 9h.48c3.84-1 9.79-6.32 10.92-9 2.28-5.44 3.63-6.76 3.63-13.12 0-12.99-6.36-17.9-14.79-15.47Z"/><path class="cls-22" d="M183.78 11.51s5.37 0 8.87 1.93c4.24 2.31 11.56 5.65 18.13 5 12-1.15 3.47-14.65.38-14.65.78 1.15-.77 2.7-2.31 2.31S193-10.48 183.78 11.51Z"/><path class="cls-15" d="M194.35 32.76s.5 3.09 2.31 3.74 3.7.24 4.51-.81a8.68 8.68 0 0 0 1.28-3Z"/><path class="cls-23" d="M198.44 31.49a.46.46 0 0 1-.35-.12.93.93 0 0 1-.23-.73v-.11a.73.73 0 0 0-.27.23.65.65 0 0 1-.59.24.92.92 0 0 1-.58-.73 4.07 4.07 0 0 1 .5-1.82.19.19 0 0 1 .23-.07.18.18 0 0 1 .08.23 2.91 2.91 0 0 0-.46 1.54c.07.31.19.43.31.46s.15 0 .19-.07c.27-.27.46-.39.62-.39a.33.33 0 0 1 .23.16.68.68 0 0 1 0 .3.8.8 0 0 0 .11.51.45.45 0 0 0 .23 0c.23 0 .27-.23.27-.61 0-.2 0-.35.08-.43a.29.29 0 0 1 .19-.07c.16 0 .23.11.35.19s.31.19.46.08a.4.4 0 0 0 .08-.39 2.64 2.64 0 0 0-.62-1.43c-.07 0-.07-.15 0-.23a.19.19 0 0 1 .24 0 2.84 2.84 0 0 1 .77 1.7c0 .31 0 .54-.2.66a.65.65 0 0 1-.92 0l-.08-.08v.08c0 .31 0 .88-.58 1Zm-.54-1Z"/><ellipse class="cls-23" cx="191.23" cy="25.59" rx=".66" ry="1.31"/><path class="cls-23" d="M188.94 22.16a5.22 5.22 0 0 1 2.62-1.08 4.59 4.59 0 0 1 2.32.54c.46.11.54-.54.27-1.08s-1.24-1-2.86-.93a3.81 3.81 0 0 0-2.93 1.27c-.46.47-.11 1.85.58 1.28Z"/><ellipse class="cls-23" cx="204.26" cy="25.67" rx=".66" ry="1.31"/><path class="cls-23" d="M201.65 21.46a5.31 5.31 0 0 1 2.8-.42 4.56 4.56 0 0 1 2.12 1.08c.42.22.65-.4.52-1s-1-1.23-2.55-1.58a4 4 0 0 0-3.15.53c-.57.39-.56 1.78.26 1.39ZM203.33 37.2a26.37 26.37 0 0 1-2 3.82 10.61 10.61 0 0 1-5.48 0 26.55 26.55 0 0 1-2-3.82l-1 .23s1.54 5 1.77 5.4a13.13 13.13 0 0 0 3.75 2.23v.08h.38v-.08a13 13 0 0 0 3.74-2.23c.23-.42 1.78-5.4 1.78-5.4Z"/><path class="cls-23" d="M198.05 37.35h1.54v3.09h-1.54z"/><ellipse class="cls-20" cx="199.79" cy="51.66" rx="13.69" ry="5.37"/><path d="M173.75 50.91c7.27 1 8.1 5.8 8.87 9.11s.77 20.72.77 20.72l-23.14 2.9s.77-15.33 3.09-24c1.9-7.2 7.32-9.15 10.41-8.73ZM225.55 49c-7.27 1-8.1 5.8-8.87 9.11s-.77 20.72-.77 20.72l23.14 2.9s-.77-15.33-3.08-24c-1.91-7.22-7.33-9.17-10.42-8.73Z"/><path class="cls-20" d="M225.52 64.18c-.5-.94-2.34.26-2.61 1s.53 8.87.53 8.87-2.55 2.08-2.6 4.79 3.56 4.78 3.77 5.1-.42 2.81 3 4.25 6.11.42 6.38-1.38-5.64-15-6.59-17.54-1.46-4.27-1.88-5.09ZM175.52 66c.5-.93 2.34.27 2.6 1s-.53 8.88-.53 8.88 2.55 2.07 2.61 4.78-3.56 4.79-3.78 5.1.43 2.82-3 4.26-6.11.42-6.38-1.39 5.63-15 6.59-17.53 1.46-4.32 1.89-5.1Z"/><path class="cls-24" d="m233.73 102.54-.57-9.11s-1.28 4.1-5 4.1-8.45-3.09-15.1-5.69a34 34 0 0 0-13.21-2 28.74 28.74 0 0 0-11.23 2c-6.65 2.6-11.32 5.69-15.1 5.69s-5.05-4.1-5.05-4.1l-.57 9.11Z"/><path class="cls-24" d="M169.21 102.54c0-.59-.05-1.19-.05-1.79a32.1 32.1 0 0 1 64.19 0v1.79h6.63v-1.79a38.72 38.72 0 0 0-77.43 0v1.79Z"/><path class="cls-20" d="M168.9 68.93a48.52 48.52 0 0 1 7.92 7.82c.75 1.27.27 3.34-1.49 2.87s-8-6.17-9.08-7.6.63-4.26 2.65-3.09Z"/><path class="cls-20" d="M165 71.55c1.67.79 7.67 6 8.51 7.17s.53 3.31-1.26 3-8.43-5.52-9.65-6.86.29-4.32 2.4-3.31Z"/><path class="cls-20" d="M163.77 76.65a47.09 47.09 0 0 1 9.08 5.68c1 1 1 3.09-.8 3s-8.78-4.13-10.13-5.24-.29-4.09 1.85-3.44Z"/><path class="cls-20" d="M164.31 81.53a39.42 39.42 0 0 1 7.39 5.13c.75.9.57 2.55-.93 2.38s-7.25-3.85-8.33-4.83a1.69 1.69 0 0 1 1.87-2.68ZM232.13 67.13a48.4 48.4 0 0 0-7.91 7.81c-.75 1.28-.27 3.35 1.48 2.87s8-6.17 9.09-7.6-.64-4.21-2.66-3.08Z"/><path class="cls-20" d="M236 69.74a49.08 49.08 0 0 0-8.5 7.17c-.84 1.21-.53 3.32 1.26 3s8.43-5.53 9.65-6.87-.26-4.31-2.41-3.3Z"/><path class="cls-20" d="M237.27 74.84a46.78 46.78 0 0 0-9.08 5.68c-1 1-.95 3.1.8 3s8.78-4.12 10.13-5.24.29-4.12-1.85-3.44Z"/><path class="cls-20" d="M236.73 79.72a39.42 39.42 0 0 0-7.39 5.13c-.75.9-.58 2.55.93 2.39s7.25-3.86 8.33-4.84a1.7 1.7 0 0 0-1.87-2.68Z"/></g><path class="cls-27" d="m102.21 44.5-33.71 46c3.57 4.18 10.57 9.58 23.36 10.61l43.73-56.61ZM160.63 44.5l-44.72 57.67c2.7.07 5.45.13 8.23.18L169 44.5ZM175 44.5l-45 58 8.29.12 45.08-58.12Z"/></svg>