<svg id="Слой_1" data-name="Слой 1" xmlns="http://www.w3.org/2000/svg" viewBox="0 0 515.82 263.85"><defs><clipPath id="clip-path"><ellipse class="cls-1" cx="211.5" cy="203.13" rx="23.06" ry="37.68" transform="rotate(-4.9 211.298 202.913)"/></clipPath><clipPath id="clip-path-2"><ellipse class="cls-1" cx="50.36" cy="191.56" rx="18.41" ry="32.9" transform="rotate(-4.9 50.35 191.344)"/></clipPath><style>.cls-1{fill:none}.cls-12,.cls-3{fill:#0c96fd}.cls-4{fill:#f69576}.cls-5{fill:#dd866f}.cls-6{fill:#a5713d}.cls-7{fill:#6b3425}.cls-8{fill:#fff}.cls-9{fill:#72645d}.cls-12{opacity:.21}.cls-15{fill:#024168}.cls-16{fill:#1d7dcc}.cls-17{fill:#606060}.cls-18{fill:#8a9995}.cls-19{fill:#303030}.cls-21{fill:#a8a9ad}</style></defs><path d="m12.29 214.63 160.41-11.85 337.21 21.88S526.32 252 504.44 252s-289.82 11.85-289.82 11.85L18.67 233.77Z" style="opacity:.15"/><path class="cls-3" d="M400.81 71.4h23V83a4.2 4.2 0 0 1-4.2 4.2h-18.8a2.68 2.68 0 0 1-2.68-2.68V74.08a2.68 2.68 0 0 1 2.68-2.68Z" transform="rotate(180 410.94 79.315)"/><path class="cls-4" d="m335.02 89.33-54.06 10.19V74.35l54.06-7.62v22.6zM316.19 47.48l-18.15 1.75 1.51-21.37 12.86-.7 3.78 20.32z"/><path class="cls-5" d="M298.65 40.63a12.88 12.88 0 0 0 8.46 2 15.42 15.42 0 0 0 7.66-2.78l-2.36-12.74-12.86.71Z"/><path class="cls-6" d="M299.37 5.75c-2.58 1.12-7.09 3.72-7.67 7.4s.58 14.63 3.74 17.37 19.25-1.43 20-1.77c3.14-1.37 2.65-16.14.57-18.62-2.27-2.78-10.6-6.95-16.64-4.38Z"/><path class="cls-5" d="M290.68 18.83c.6-3.84 5-.55 4.2 6.47-.82 7.23-5.1-.77-4.2-6.47Z"/><path class="cls-7" d="M294.06 26.22h-.05a.28.28 0 0 1 0-.22 10.24 10.24 0 0 0 0-3.65c-.16-1.09-.58-3-1.53-3.23-.51-.12-.87.11-1.07.7a6.7 6.7 0 0 0-.16 2.32.48.48 0 0 1 0 .22s-.08 0-.09-.1a7.62 7.62 0 0 1 .19-2.62c.23-.7.63-.94 1.18-.81.75.19 1.35 1.45 1.63 3.44a11 11 0 0 1 0 4Z"/><path class="cls-7" d="m292.48 25.68-.06-.11a20.07 20.07 0 0 1 .22-6.67c0-.07.06-.11.09-.07a.36.36 0 0 1 0 .22 19.43 19.43 0 0 0-.22 6.37.38.38 0 0 1 0 .22s-.03.04-.03.04ZM317.37 24.51a.28.28 0 0 1 0-.21 17.75 17.75 0 0 0-.22-6.08.35.35 0 0 1 0-.21s.07 0 .09.07a18.17 18.17 0 0 1 .21 6.36c0 .07 0 .1-.06.11s-.01 0-.02-.04Z"/><path class="cls-4" d="M306.08 6.24C299.79 4 292.85 8.72 292.85 21c0 6 1 7.22 2.71 12.26.83 2.47 7.48 7.12 10.34 7.82h.36c2.86-1.15 7.3-6.37 8.14-8.87 1.7-5.06 2.7-6.31 2.7-12.08 0-11.78-4.74-16.2-11.02-13.89Z"/><path class="cls-6" d="M292.85 10.92s6.21-.06 8.82 1.67c3.16 2.07 8.61 5 13.51 4.23 8.92-1.34 2.59-13.37.29-13.35a1.55 1.55 0 0 1-1.73 2.12c-1.15-.34-13.99-15.38-20.89 5.33Z"/><path class="cls-8" d="M302.93 30.6s.38 2.85 1.73 3.37A2.75 2.75 0 0 0 308 33a9.75 9.75 0 0 0 1-2.8Z"/><path class="cls-7" d="M306 29.23a.29.29 0 0 1-.26-.09 1 1 0 0 1-.17-.67v-.11a.83.83 0 0 0-.2.23.44.44 0 0 1-.43.2.75.75 0 0 1-.43-.66 4.58 4.58 0 0 1 .37-1.7c0-.08.11-.12.17-.08a.18.18 0 0 1 .06.21 3.33 3.33 0 0 0-.35 1.45c.06.29.15.39.23.42s.12 0 .15-.08c.2-.26.34-.38.46-.38s.14.06.17.13a.8.8 0 0 1 0 .28.76.76 0 0 0 .09.46s.08 0 .17 0 .2-.23.2-.58a.71.71 0 0 1 .06-.4.18.18 0 0 1 .14-.08c.12 0 .17.1.26.16s.23.17.34.06a.44.44 0 0 0 .06-.36 2.61 2.61 0 0 0-.46-1.3c-.06 0-.06-.14 0-.21a.13.13 0 0 1 .18-.05 2.83 2.83 0 0 1 .57 1.54.93.93 0 0 1-.14.62.42.42 0 0 1-.69 0l-.06-.07v.07c0 .29 0 .82-.43 1Zm-.4-.87ZM300.61 22.78c.27 0 .49.53.49 1.21s-.22 1.24-.49 1.25-.49-.53-.49-1.21.22-1.24.49-1.25ZM298.9 20.86a3.83 3.83 0 0 1 2-1.09 2.82 2.82 0 0 1 1.72.43c.35.1.41-.52.2-1s-.92-.87-2.12-.79a2.76 2.76 0 0 0-2.19 1.28c-.38.44-.12 1.74.39 1.17ZM310.32 22.41c.27 0 .49.52.49 1.19s-.22 1.21-.49 1.23-.49-.52-.49-1.19.22-1.21.49-1.23ZM308.37 19.83a3.34 3.34 0 0 1 2.1-.47 3.06 3.06 0 0 1 1.57.93c.32.19.49-.39.39-.92s-.72-1.1-1.9-1.38a2.55 2.55 0 0 0-2.35.57c-.42.37-.41 1.66.19 1.27ZM309.63 34.28a29.8 29.8 0 0 1-1.46 3.63 5.08 5.08 0 0 1-2.05.49 4.68 4.68 0 0 1-2-.18 25.79 25.79 0 0 1-1.46-3.46l-.75.27s1.09 4.56 1.28 4.97a8.57 8.57 0 0 0 2.81 1.83v.07H306.29v-.1a11 11 0 0 0 2.79-2.29c.17-.4 1.32-5.07 1.32-5.07Z"/><path class="cls-7" d="m306.84 37.47-1.15.09v-2.87l1.15-.08v2.86z"/><path class="cls-4" d="M317.19 46.88c0 2.69-4.57 5.35-10.2 5.94s-10.21-1.2-10.21-4 4.57-5.46 10.21-5.94 10.2 1.31 10.2 4Z"/><path d="M287.58 49c5.42.42 6 5 6.61 8s.58 19.59.58 19.59L277.51 82s.58-15.11 2.3-23.82c1.43-7.12 5.47-9.39 7.77-9.18ZM327.7 44.24c-5.42 1.37-6 5.78-6.61 8.83s-.58 18.79-.58 18.79h17.25s-.57-13.29-2.3-20.71C334 45 330 43.67 327.7 44.24Z"/><path class="cls-4" d="M326.17 57.17c-.37-.79-1.74.45-1.94 1.13s.39 7.89.39 7.89a8.08 8.08 0 0 0-1.94 4.55c0 2.44 2.66 3.88 2.82 4.14s-.32 2.57 2.21 3.44 4.56-.37 4.76-2-4.2-12.67-4.91-14.79-1.07-3.69-1.39-4.36ZM288.9 63.32c.37-.94 1.74 0 1.94.73s-.4 8.54-.4 8.54a6.43 6.43 0 0 1 1.94 4.29c0 2.57-2.65 5-2.81 5.3a5.23 5.23 0 0 1-2.22 4.45c-2.53 1.81-4.55 1.17-4.75-.56s4.2-15.17 4.91-17.67 1.07-4.27 1.39-5.08Z"/><path class="cls-9" d="m332.29 90.18-.43-7.93s-.95 3.77-3.76 4.28-6.3-1.64-11.25-3.14a20.26 20.26 0 0 0-9.85-.2 20 20 0 0 0-8.38 3.29c-4.95 3.32-8.44 6.87-11.25 7.38s-3.76-3.29-3.76-3.29l-.43 8.91Z"/><path class="cls-9" d="M284.19 99.29v-1.72c0-17.17 10.72-32.44 23.93-34.12S332 73.06 332 88.66v1.58l4.94-.94v-1.55c0-18.62-12.92-32.24-28.86-30.41s-28.86 20.25-28.86 41.14v1.74Z"/><path class="cls-4" d="M284 66.78a36.4 36.4 0 0 1 5.91 6.73c.55 1.14.2 3.18-1.11 2.91s-5.98-5.11-6.8-6.42.46-4.16 2-3.22Z"/><path class="cls-4" d="M281.05 69.7a33.82 33.82 0 0 1 6.34 6.06c.63 1.07.39 3.13-.94 3s-6.28-4.44-7.2-5.62.23-4.22 1.8-3.44Z"/><path class="cls-4" d="M280.14 74.79a28.93 28.93 0 0 1 6.76 4.52c.72.89.71 2.86-.59 3s-6.55-3-7.55-3.94-.22-4.01 1.38-3.58Z"/><path class="cls-4" d="M280.54 79.49a24.93 24.93 0 0 1 5.51 4.12c.56.78.43 2.4-.69 2.42s-5.41-2.87-6.21-3.7.05-3.33 1.39-2.84ZM331.1 59.19a47.63 47.63 0 0 0-5.9 7.7c-.56 1.22-.2 3 1.11 2.4s5.94-6.27 6.77-7.64-.47-3.65-1.98-2.46Z"/><path class="cls-4" d="M334 61.12a45.9 45.9 0 0 0-6.35 7.18c-.62 1.16-.39 3 .94 2.5s6.29-5.75 7.2-7-.2-3.8-1.79-2.68Z"/><path class="cls-4" d="M334.93 65.46a41.5 41.5 0 0 0-6.77 6c-.72 1-.71 2.85.6 2.57s6.54-4.61 7.55-5.73.22-3.65-1.38-2.84Z"/><path class="cls-4" d="M334.53 69.78a36.9 36.9 0 0 0-5.53 5.36c-.56.88-.43 2.33.69 2s5.41-4.24 6.21-5.22-.04-2.92-1.37-2.14Z"/><path class="cls-4" d="m335.02 89.33-54.06 10.19V74.35l54.06-7.62v22.6z"/><path d="M284.13 53c1.3-8.81 13.8-7.58 22.71-8s20.7-2.86 25.3.53-.86 44.47-.86 44.47L289 98s-6.89-31.31-4.87-45Z"/><path class="cls-4" d="m316.19 47.48-18.15 1.75 1.51-21.37 12.86-.7 3.78 20.32z"/><path class="cls-5" d="M298.65 40.63a12.88 12.88 0 0 0 8.46 2 15.42 15.42 0 0 0 7.66-2.78l-2.36-12.74-12.86.71Z"/><path class="cls-6" d="M299.37 5.75c-2.58 1.12-7.09 3.72-7.67 7.4s.58 14.63 3.74 17.37 19.25-1.43 20-1.77c3.14-1.37 2.65-16.14.57-18.62-2.27-2.78-10.6-6.95-16.64-4.38Z"/><path class="cls-5" d="M290.68 18.83c.6-3.84 5-.55 4.2 6.47-.82 7.23-5.1-.77-4.2-6.47Z"/><path class="cls-7" d="M294.06 26.22h-.05a.28.28 0 0 1 0-.22 10.24 10.24 0 0 0 0-3.65c-.16-1.09-.58-3-1.53-3.23-.51-.12-.87.11-1.07.7a6.7 6.7 0 0 0-.16 2.32.48.48 0 0 1 0 .22s-.08 0-.09-.1a7.62 7.62 0 0 1 .19-2.62c.23-.7.63-.94 1.18-.81.75.19 1.35 1.45 1.63 3.44a11 11 0 0 1 0 4Z"/><path class="cls-7" d="m292.48 25.68-.06-.11a20.07 20.07 0 0 1 .22-6.67c0-.07.06-.11.09-.07a.36.36 0 0 1 0 .22 19.43 19.43 0 0 0-.22 6.37.38.38 0 0 1 0 .22s-.03.04-.03.04Z"/><path class="cls-4" d="M307 6.24C300.17 4 292.85 8.72 292.85 21c0 6 3.28 7.22 5.12 12.26.91 2.47 5.7 7.12 8.79 7.82h.38c3.09-1.15 8.42-4.87 9.33-7.37 1.84-5.06 1.75-7.67 1.75-13.44 0-11.78-4.49-16.34-11.22-14.03Z"/><path class="cls-6" d="M292.85 10.92s6.21-.06 8.82 1.67c3.16 2.07 8.61 5 13.51 4.23 8.92-1.34 2.59-13.37.29-13.35a1.55 1.55 0 0 1-1.73 2.12c-1.15-.34-13.99-15.38-20.89 5.33Z"/><path class="cls-8" d="M306 30.35s.38 2.86 1.73 3.38a2.74 2.74 0 0 0 3.36-1A9.75 9.75 0 0 0 312 30Z"/><path class="cls-7" d="M309.68 29a.31.31 0 0 1-.26-.1 1 1 0 0 1-.17-.67v-.1a.62.62 0 0 0-.2.22.47.47 0 0 1-.43.21.77.77 0 0 1-.44-.66 4.82 4.82 0 0 1 .38-1.71.13.13 0 0 1 .17-.08.18.18 0 0 1 .06.21 3.38 3.38 0 0 0-.35 1.46c.06.28.15.38.23.41s.12 0 .15-.08c.2-.26.34-.37.46-.38a.24.24 0 0 1 .17.13.83.83 0 0 1 0 .29.86.86 0 0 0 .08.46s.09 0 .18 0 .2-.23.2-.59a.67.67 0 0 1 .06-.39.17.17 0 0 1 .14-.08c.11 0 .17.09.26.16s.23.17.34 0a.42.42 0 0 0 .06-.36 2.61 2.61 0 0 0-.46-1.3c-.06 0-.06-.14 0-.21s.12-.08.17 0a2.73 2.73 0 0 1 .58 1.54.9.9 0 0 1-.14.61.42.42 0 0 1-.69 0l-.06-.07V28c0 .28 0 .82-.43 1Zm-.4-.88ZM303.66 22.54c.27 0 .48.52.48 1.2s-.21 1.24-.48 1.26-.49-.53-.49-1.21.22-1.24.49-1.25ZM302 20.62a3.77 3.77 0 0 1 2-1.1 2.88 2.88 0 0 1 1.72.44c.35.09.4-.52.2-1s-.92-.86-2.12-.78a2.78 2.78 0 0 0-2.19 1.27c-.43.43-.18 1.73.39 1.17ZM313.37 22.17c.27 0 .49.52.49 1.18s-.22 1.22-.49 1.23-.49-.51-.49-1.18.22-1.22.49-1.23ZM311.42 19.58a3.46 3.46 0 0 1 2.09-.47 3.19 3.19 0 0 1 1.58.93c.32.19.49-.38.39-.92s-.72-1.1-1.9-1.38a2.56 2.56 0 0 0-2.35.58c-.42.36-.41 1.68.19 1.26ZM312.68 34a27.92 27.92 0 0 1-1.47 3.63 4.8 4.8 0 0 1-2 .49 4.5 4.5 0 0 1-2-.18 25.4 25.4 0 0 1-1.47-3.45l-.74.26s1.15 4.57 1.32 4.95a8.57 8.57 0 0 0 2.68 1.88v.08H309.29v-.07a11.25 11.25 0 0 0 2.79-2.29c.17-.41 1.32-5.07 1.32-5.07Z"/><path class="cls-7" d="m309.89 37.23-1.15.08v-2.86l1.15-.08v2.86z"/><path class="cls-4" d="M317.19 46.88c0 2.69-4.57 5.35-10.2 5.94s-10.21-1.2-10.21-4 4.57-5.46 10.21-5.94 10.2 1.31 10.2 4Z"/><path d="M287.58 49c5.42.42 6 5 6.61 8s.58 19.59.58 19.59L277.51 82s.58-15.11 2.3-23.82c1.43-7.12 5.47-9.39 7.77-9.18Z"/><path class="cls-4" d="M329.28 57.72c-.37-.79-1.74.44-1.94 1.13s.39 7.89.39 7.89a8.08 8.08 0 0 0-1.94 4.55c0 2.44 2.66 3.88 2.82 4.14s-.32 2.57 2.21 3.43 4.56-.36 4.76-2-4.2-12.67-4.91-14.79-1.07-3.68-1.39-4.35ZM288.9 63.32c.37-.94 1.74 0 1.94.73s-.4 8.54-.4 8.54a6.43 6.43 0 0 1 1.94 4.29c0 2.57-2.65 5-2.81 5.3a5.23 5.23 0 0 1-2.22 4.45c-2.53 1.81-4.55 1.17-4.75-.56s4.2-15.17 4.91-17.67 1.07-4.27 1.39-5.08Z"/><path class="cls-9" d="m334.77 90.18-.45-7.93s-1 3.77-3.94 4.28-6.59-1.64-11.78-3.14a22.12 22.12 0 0 0-10.3-.2 21.42 21.42 0 0 0-8.77 3.29c-5.18 3.32-8.83 6.87-11.78 7.38s-3.94-3.29-3.94-3.29l-.44 8.91Z"/><path class="cls-9" d="M284.42 99.29v-1.72c0-17.17 11.22-32.44 25.05-34.12s25.05 9.61 25.05 25.21c0 .53 0 1.06-.05 1.58l5.17-.94v-1.55c0-18.62-13.53-32.24-30.21-30.41s-30.21 20.25-30.21 41.14v1.74Z"/><path class="cls-4" d="M284 66.78a36.4 36.4 0 0 1 5.91 6.73c.55 1.14.2 3.18-1.11 2.91s-5.98-5.11-6.8-6.42.46-4.16 2-3.22Z"/><path class="cls-4" d="M281.05 69.7a33.82 33.82 0 0 1 6.34 6.06c.63 1.07.39 3.13-.94 3s-6.28-4.44-7.2-5.62.23-4.22 1.8-3.44Z"/><path class="cls-4" d="M280.14 74.79a28.93 28.93 0 0 1 6.76 4.52c.72.89.71 2.86-.59 3s-6.55-3-7.55-3.94-.22-4.01 1.38-3.58Z"/><path class="cls-4" d="M280.54 79.49a24.93 24.93 0 0 1 5.51 4.12c.56.78.43 2.4-.69 2.42s-5.41-2.87-6.21-3.7.05-3.33 1.39-2.84ZM334.21 59.74a47.63 47.63 0 0 0-5.9 7.7c-.56 1.22-.2 3 1.11 2.4s5.94-6.27 6.77-7.64-.47-3.68-1.98-2.46Z"/><path class="cls-4" d="M337.13 61.66a46.42 46.42 0 0 0-6.35 7.19c-.62 1.16-.39 3 .94 2.5s6.29-5.75 7.2-7-.22-3.77-1.79-2.69Z"/><path class="cls-4" d="M338 66a41.92 41.92 0 0 0-6.77 6c-.72 1-.71 2.86.6 2.58s6.54-4.61 7.55-5.73.26-3.65-1.38-2.85Z"/><path class="cls-4" d="M337.64 70.33a36.42 36.42 0 0 0-5.51 5.36c-.56.88-.43 2.33.69 2s5.41-4.24 6.21-5.22-.03-2.92-1.39-2.14Z"/><path d="M498.39 192.46c2.43 28.4-9.68 52.63-27.06 54.12-.62 0-19.13.64-19.75.64-16.65-.15-13.78-22-16.13-49.37-2.37-27.77-6.55-51.18 10.21-53.62.38-.06 16.47-.47 16.86-.5 17.38-1.49 33.48 20.33 35.87 48.73ZM330.48 181.4c2.12 24.79-8.46 45.95-23.63 47.25-.54 0-16.7.56-17.24.55-14.54-.13-12-19.19-14.08-43.09-2.07-24.24-5.72-44.68 8.91-46.81.34-.05 14.38-.41 14.72-.44 15.17-1.3 29.19 17.75 31.32 42.54Z"/><ellipse cx="287.78" cy="184.27" rx="25.22" ry="45.07" transform="rotate(-4.9 287.5 184.047)"/><ellipse cx="448.92" cy="195.84" rx="31.58" ry="51.61" transform="rotate(-4.9 448.448 195.616)"/><path d="M41.76 91.29s6.68-13.37 22.18-15.19 18.22-1.82 18.22-1.82l111.19-1.82 14.28 22.78Z"/><path d="M128.34 98s-6.38-26.73 0-27 149.17-1 149.17-1l29.16 29.46Z" style="fill:#424b6a"/><path style="fill:#3b3b3b" d="m207.78 88.18-22.32-45.5 140.05.31 74.58 43.14-3.65 4.55-188.2 1.83-.46-4.33z"/><path class="cls-12" d="M226.58 92.33q1.95-5.55 3.93-11.1 2.16-6 4.35-12.07c1.41-3.89 2.91-7.76 4.21-11.69 1.61-4.89 3.1-9.85 5-14.66h-17.83c-2.81 6.44-5.29 13-7.7 19.62-2.87 7.86-6 15.64-8.92 23.48-.54 1.41-1 2.82-1.58 4.23l.25 2.41ZM325.06 64.19c1.5-6.23 3-12.48 4.94-18.6L325.51 43h-4.17q-3 8.48-5.86 17-4.48 13.3-8.68 26.68l-1.53 4.89 12.78-.13c2.37-9.08 4.82-18.12 7.01-27.25ZM251.33 70.7c1.44-5.94 2.94-11.86 4.42-17.79.83-3.38 1.7-6.75 2.76-10.07h-3.63q-2.55 7.68-5 15.41-5.25 16.89-9.9 34l6.3-.06q2.49-10.79 5.05-21.49Z"/><g style="opacity:.35"><path class="cls-4" d="m335.02 89.33-54.06 10.19V74.35l54.06-7.62v22.6zM316.19 47.48l-18.15 1.75 1.51-21.37 12.86-.7 3.78 20.32z"/><path class="cls-5" d="M298.65 40.63a12.88 12.88 0 0 0 8.46 2 15.42 15.42 0 0 0 7.66-2.78l-2.36-12.74-12.86.71Z"/><path class="cls-6" d="M299.37 5.75c-2.58 1.12-7.09 3.72-7.67 7.4s.14 15 3.3 17.72 19.69-1.78 20.47-2.12c3.14-1.37 2.65-16.14.57-18.62-2.3-2.78-10.63-6.95-16.67-4.38Z"/><path class="cls-5" d="M290.68 18.83c.6-3.84 5-.55 4.2 6.47-.82 7.23-5.1-.77-4.2-6.47Z"/><path class="cls-7" d="M294.06 26.22h-.05a.28.28 0 0 1 0-.22 10.24 10.24 0 0 0 0-3.65c-.16-1.09-.58-3-1.53-3.23-.51-.12-.87.11-1.07.7a6.7 6.7 0 0 0-.16 2.32.48.48 0 0 1 0 .22s-.08 0-.09-.1a7.62 7.62 0 0 1 .19-2.62c.23-.7.63-.94 1.18-.81.75.19 1.35 1.45 1.63 3.44a11 11 0 0 1 0 4Z"/><path class="cls-7" d="m292.48 25.68-.06-.11a20.07 20.07 0 0 1 .22-6.67c0-.07.06-.11.09-.07a.36.36 0 0 1 0 .22 19.43 19.43 0 0 0-.22 6.37.38.38 0 0 1 0 .22s-.03.04-.03.04ZM317.37 24.51a.28.28 0 0 1 0-.21 17.75 17.75 0 0 0-.22-6.08.35.35 0 0 1 0-.21s.07 0 .09.07a18.17 18.17 0 0 1 .21 6.36c0 .07 0 .1-.06.11s-.01 0-.02-.04Z"/><path class="cls-4" d="M306.08 6.24C299.79 4 292.85 8.72 292.85 21c0 6 1 7.22 2.71 12.26.83 2.47 7.48 7.12 10.34 7.82h.36c2.86-1.15 7.3-6.37 8.14-8.87 1.7-5.06 2.7-6.31 2.7-12.08 0-11.78-4.74-16.2-11.02-13.89Z"/><path class="cls-6" d="M292.85 10.92s6.21-.06 8.82 1.67c3.16 2.07 8.61 5 13.51 4.23 8.92-1.34 2.59-13.37.29-13.35a1.55 1.55 0 0 1-1.73 2.12c-1.15-.34-13.99-15.38-20.89 5.33Z"/><path class="cls-8" d="M302.93 30.6s.38 2.85 1.73 3.37A2.75 2.75 0 0 0 308 33a9.75 9.75 0 0 0 1-2.8Z"/><path class="cls-7" d="M306 29.23a.29.29 0 0 1-.26-.09 1 1 0 0 1-.17-.67v-.11a.83.83 0 0 0-.2.23.44.44 0 0 1-.43.2.75.75 0 0 1-.43-.66 4.58 4.58 0 0 1 .37-1.7c0-.08.11-.12.17-.08a.18.18 0 0 1 .06.21 3.33 3.33 0 0 0-.35 1.45c.06.29.15.39.23.42s.12 0 .15-.08c.2-.26.34-.38.46-.38s.14.06.17.13a.8.8 0 0 1 0 .28.76.76 0 0 0 .09.46s.08 0 .17 0 .2-.23.2-.58a.71.71 0 0 1 .06-.4.18.18 0 0 1 .14-.08c.12 0 .17.1.26.16s.23.17.34.06a.44.44 0 0 0 .06-.36 2.61 2.61 0 0 0-.46-1.3c-.06 0-.06-.14 0-.21a.13.13 0 0 1 .18-.05 2.83 2.83 0 0 1 .57 1.54.93.93 0 0 1-.14.62.42.42 0 0 1-.69 0l-.06-.07v.07c0 .29 0 .82-.43 1Zm-.4-.87ZM300.61 22.78c.27 0 .49.53.49 1.21s-.22 1.24-.49 1.25-.49-.53-.49-1.21.22-1.24.49-1.25ZM298.9 20.86a3.83 3.83 0 0 1 2-1.09 2.82 2.82 0 0 1 1.72.43c.35.1.41-.52.2-1s-.92-.87-2.12-.79a2.76 2.76 0 0 0-2.19 1.28c-.38.44-.12 1.74.39 1.17ZM310.32 22.41c.27 0 .49.52.49 1.19s-.22 1.21-.49 1.23-.49-.52-.49-1.19.22-1.21.49-1.23ZM308.37 19.83a3.34 3.34 0 0 1 2.1-.47 3.06 3.06 0 0 1 1.57.93c.32.19.49-.39.39-.92s-.72-1.1-1.9-1.38a2.55 2.55 0 0 0-2.35.57c-.42.37-.41 1.66.19 1.27ZM309.63 34.28a29.8 29.8 0 0 1-1.46 3.63 5.08 5.08 0 0 1-2.05.49 4.68 4.68 0 0 1-2-.18 25.79 25.79 0 0 1-1.46-3.46l-.75.27s1.09 4.56 1.28 4.97a8.57 8.57 0 0 0 2.81 1.83v.07H306.29v-.1a11 11 0 0 0 2.79-2.29c.17-.4 1.32-5.07 1.32-5.07Z"/><path class="cls-7" d="m306.84 37.47-1.15.09v-2.87l1.15-.08v2.86z"/><path class="cls-4" d="M317.19 46.88c0 2.69-4.57 5.35-10.2 5.94s-10.21-1.2-10.21-4 4.57-5.46 10.21-5.94 10.2 1.31 10.2 4Z"/><path d="M287.58 49c5.42.42 6 5 6.61 8s.58 19.59.58 19.59L277.51 82s.58-15.11 2.3-23.82c1.43-7.12 5.47-9.39 7.77-9.18ZM327.7 44.24c-5.42 1.37-6 5.78-6.61 8.83s-.58 18.79-.58 18.79h17.25s-.57-13.29-2.3-20.71C334 45 330 43.67 327.7 44.24Z"/><path class="cls-4" d="M326.17 57.17c-.37-.79-1.74.45-1.94 1.13s.39 7.89.39 7.89a8.08 8.08 0 0 0-1.94 4.55c0 2.44 2.66 3.88 2.82 4.14s-.32 2.57 2.21 3.44 4.56-.37 4.76-2-4.2-12.67-4.91-14.79-1.07-3.69-1.39-4.36ZM288.9 63.32c.37-.94 1.74 0 1.94.73s-.4 8.54-.4 8.54a6.43 6.43 0 0 1 1.94 4.29c0 2.57-2.65 5-2.81 5.3a5.23 5.23 0 0 1-2.22 4.45c-2.53 1.81-4.55 1.17-4.75-.56s4.2-15.17 4.91-17.67 1.07-4.27 1.39-5.08Z"/><path class="cls-9" d="m332.29 90.18-.43-7.93s-.95 3.77-3.76 4.28-6.3-1.64-11.25-3.14a20.26 20.26 0 0 0-9.85-.2 20 20 0 0 0-8.38 3.29c-4.95 3.32-8.44 6.87-11.25 7.38s-3.76-3.29-3.76-3.29l-.43 8.91Z"/><path class="cls-9" d="M284.19 99.29v-1.72c0-17.17 10.72-32.44 23.93-34.12S332 73.06 332 88.66v1.58l4.94-.94v-1.55c0-18.62-12.92-32.24-28.86-30.41s-28.86 20.25-28.86 41.14v1.74Z"/><path class="cls-4" d="M284 66.78a36.4 36.4 0 0 1 5.91 6.73c.55 1.14.2 3.18-1.11 2.91s-5.98-5.11-6.8-6.42.46-4.16 2-3.22Z"/><path class="cls-4" d="M281.05 69.7a33.82 33.82 0 0 1 6.34 6.06c.63 1.07.39 3.13-.94 3s-6.28-4.44-7.2-5.62.23-4.22 1.8-3.44Z"/><path class="cls-4" d="M280.14 74.79a28.93 28.93 0 0 1 6.76 4.52c.72.89.71 2.86-.59 3s-6.55-3-7.55-3.94-.22-4.01 1.38-3.58Z"/><path class="cls-4" d="M280.54 79.49a24.93 24.93 0 0 1 5.51 4.12c.56.78.43 2.4-.69 2.42s-5.41-2.87-6.21-3.7.05-3.33 1.39-2.84ZM331.1 59.19a47.63 47.63 0 0 0-5.9 7.7c-.56 1.22-.2 3 1.11 2.4s5.94-6.27 6.77-7.64-.47-3.65-1.98-2.46Z"/><path class="cls-4" d="M334 61.12a45.9 45.9 0 0 0-6.35 7.18c-.62 1.16-.39 3 .94 2.5s6.29-5.75 7.2-7-.2-3.8-1.79-2.68Z"/><path class="cls-4" d="M334.93 65.46a41.5 41.5 0 0 0-6.77 6c-.72 1-.71 2.85.6 2.57s6.54-4.61 7.55-5.73.22-3.65-1.38-2.84Z"/><path class="cls-4" d="M334.53 69.78a36.9 36.9 0 0 0-5.53 5.36c-.56.88-.43 2.33.69 2s5.41-4.24 6.21-5.22-.04-2.92-1.37-2.14Z"/><path class="cls-4" d="m335.02 89.33-54.06 10.19V74.35l54.06-7.62v22.6z"/><path d="M284.13 53c1.3-8.81 13.8-7.58 22.71-8s20.7-2.86 25.3.53-.86 44.47-.86 44.47L289 98s-6.89-31.31-4.87-45Z"/><path class="cls-4" d="m316.19 47.48-18.15 1.75 1.51-21.37 12.86-.7 3.78 20.32z"/><path class="cls-5" d="M298.65 40.63a12.88 12.88 0 0 0 8.46 2 15.42 15.42 0 0 0 7.66-2.78l-2.36-12.74-12.86.71ZM290.68 18.83c.6-3.84 5-.55 4.2 6.47-.82 7.23-5.1-.77-4.2-6.47Z"/><path class="cls-7" d="M294.06 26.22h-.05a.28.28 0 0 1 0-.22 10.24 10.24 0 0 0 0-3.65c-.16-1.09-.58-3-1.53-3.23-.51-.12-.87.11-1.07.7a6.7 6.7 0 0 0-.16 2.32.48.48 0 0 1 0 .22s-.08 0-.09-.1a7.62 7.62 0 0 1 .19-2.62c.23-.7.63-.94 1.18-.81.75.19 1.35 1.45 1.63 3.44a11 11 0 0 1 0 4Z"/><path class="cls-7" d="m292.48 25.68-.06-.11a20.07 20.07 0 0 1 .22-6.67c0-.07.06-.11.09-.07a.36.36 0 0 1 0 .22 19.43 19.43 0 0 0-.22 6.37.38.38 0 0 1 0 .22s-.03.04-.03.04Z"/><path class="cls-4" d="M307 6.24C300.17 4 294.39 8.67 294.39 21c0 6 1.74 7.27 3.58 12.31.91 2.47 5.7 7.12 8.79 7.82h.38c3.09-1.15 8.42-4.87 9.33-7.37 1.84-5.06 1.75-7.67 1.75-13.44 0-11.83-4.49-16.39-11.22-14.08Z"/><path class="cls-6" d="M292.85 10.92s6.21-.06 8.82 1.67c3.16 2.07 8.61 5 13.51 4.23 8.92-1.34 2.59-13.37.29-13.35a1.55 1.55 0 0 1-1.73 2.12c-1.15-.34-13.99-15.38-20.89 5.33Z"/><path class="cls-8" d="M306 30.35s.38 2.86 1.73 3.38a2.74 2.74 0 0 0 3.36-1A9.75 9.75 0 0 0 312 30Z"/><path class="cls-7" d="M309.68 29a.31.31 0 0 1-.26-.1 1 1 0 0 1-.17-.67v-.1a.62.62 0 0 0-.2.22.47.47 0 0 1-.43.21.77.77 0 0 1-.44-.66 4.82 4.82 0 0 1 .38-1.71.13.13 0 0 1 .17-.08.18.18 0 0 1 .06.21 3.38 3.38 0 0 0-.35 1.46c.06.28.15.38.23.41s.12 0 .15-.08c.2-.26.34-.37.46-.38a.24.24 0 0 1 .17.13.83.83 0 0 1 0 .29.86.86 0 0 0 .08.46s.09 0 .18 0 .2-.23.2-.59a.67.67 0 0 1 .06-.39.17.17 0 0 1 .14-.08c.11 0 .17.09.26.16s.23.17.34 0a.42.42 0 0 0 .06-.36 2.61 2.61 0 0 0-.46-1.3c-.06 0-.06-.14 0-.21s.12-.08.17 0a2.73 2.73 0 0 1 .58 1.54.9.9 0 0 1-.14.61.42.42 0 0 1-.69 0l-.06-.07V28c0 .28 0 .82-.43 1Zm-.4-.88ZM303.66 22.54c.27 0 .48.52.48 1.2s-.21 1.24-.48 1.26-.49-.53-.49-1.21.22-1.24.49-1.25ZM302 20.62a3.77 3.77 0 0 1 2-1.1 2.88 2.88 0 0 1 1.72.44c.35.09.4-.52.2-1s-.92-.86-2.12-.78a2.78 2.78 0 0 0-2.19 1.27c-.43.43-.18 1.73.39 1.17ZM313.37 22.17c.27 0 .49.52.49 1.18s-.22 1.22-.49 1.23-.49-.51-.49-1.18.22-1.22.49-1.23ZM311.42 19.58a3.46 3.46 0 0 1 2.09-.47 3.19 3.19 0 0 1 1.58.93c.32.19.49-.38.39-.92s-.72-1.1-1.9-1.38a2.56 2.56 0 0 0-2.35.58c-.42.36-.41 1.68.19 1.26ZM312.68 34a27.92 27.92 0 0 1-1.47 3.63 4.8 4.8 0 0 1-2 .49 4.5 4.5 0 0 1-2-.18 25.4 25.4 0 0 1-1.47-3.45l-.74.26s1.15 4.57 1.32 4.95a8.57 8.57 0 0 0 2.68 1.88v.08H309.29v-.07a11.25 11.25 0 0 0 2.79-2.29c.17-.41 1.32-5.07 1.32-5.07Z"/><path class="cls-7" d="m309.89 37.23-1.15.08v-2.86l1.15-.08v2.86z"/><path class="cls-4" d="M317.19 46.88c0 2.69-4.57 5.35-10.2 5.94s-10.21-1.2-10.21-4 4.57-5.46 10.21-5.94 10.2 1.31 10.2 4Z"/><path d="M287.58 49c5.42.42 6 5 6.61 8s.58 19.59.58 19.59L277.51 82s.58-15.11 2.3-23.82c1.43-7.12 5.47-9.39 7.77-9.18Z"/><path class="cls-4" d="M329.28 57.72c-.37-.79-1.74.44-1.94 1.13s.39 7.89.39 7.89a8.08 8.08 0 0 0-1.94 4.55c0 2.44 2.66 3.88 2.82 4.14s-.32 2.57 2.21 3.43 4.56-.36 4.76-2-4.2-12.67-4.91-14.79-1.07-3.68-1.39-4.35ZM288.9 63.32c.37-.94 1.74 0 1.94.73s-.4 8.54-.4 8.54a6.43 6.43 0 0 1 1.94 4.29c0 2.57-2.65 5-2.81 5.3a5.23 5.23 0 0 1-2.22 4.45c-2.53 1.81-4.55 1.17-4.75-.56s4.2-15.17 4.91-17.67 1.07-4.27 1.39-5.08Z"/><path class="cls-9" d="m334.77 90.18-.45-7.93s-1 3.77-3.94 4.28-6.59-1.64-11.78-3.14a22.12 22.12 0 0 0-10.3-.2 21.42 21.42 0 0 0-8.77 3.29c-5.18 3.32-8.83 6.87-11.78 7.38s-3.94-3.29-3.94-3.29l-.44 8.91Z"/><path class="cls-9" d="M284.42 99.29v-1.72c0-17.17 11.22-32.44 25.05-34.12s25.05 9.61 25.05 25.21c0 .53 0 1.06-.05 1.58l5.17-.94v-1.55c0-18.62-13.53-32.24-30.21-30.41s-30.21 20.25-30.21 41.14v1.74Z"/><path class="cls-4" d="M284 66.78a36.4 36.4 0 0 1 5.91 6.73c.55 1.14.2 3.18-1.11 2.91s-5.98-5.11-6.8-6.42.46-4.16 2-3.22Z"/><path class="cls-4" d="M281.05 69.7a33.82 33.82 0 0 1 6.34 6.06c.63 1.07.39 3.13-.94 3s-6.28-4.44-7.2-5.62.23-4.22 1.8-3.44Z"/><path class="cls-4" d="M280.14 74.79a28.93 28.93 0 0 1 6.76 4.52c.72.89.71 2.86-.59 3s-6.55-3-7.55-3.94-.22-4.01 1.38-3.58Z"/><path class="cls-4" d="M280.54 79.49a24.93 24.93 0 0 1 5.51 4.12c.56.78.43 2.4-.69 2.42s-5.41-2.87-6.21-3.7.05-3.33 1.39-2.84ZM334.21 59.74a47.63 47.63 0 0 0-5.9 7.7c-.56 1.22-.2 3 1.11 2.4s5.94-6.27 6.77-7.64-.47-3.68-1.98-2.46Z"/><path class="cls-4" d="M337.13 61.66a46.42 46.42 0 0 0-6.35 7.19c-.62 1.16-.39 3 .94 2.5s6.29-5.75 7.2-7-.22-3.77-1.79-2.69Z"/><path class="cls-4" d="M338 66a41.92 41.92 0 0 0-6.77 6c-.72 1-.71 2.86.6 2.58s6.54-4.61 7.55-5.73.26-3.65-1.38-2.85Z"/><path class="cls-4" d="M337.64 70.33a36.42 36.42 0 0 0-5.51 5.36c-.56.88-.43 2.33.69 2s5.41-4.24 6.21-5.22-.03-2.92-1.39-2.14Z"/></g><path class="cls-3" d="m207.78 88.18 205.75-1.37s76.56 20.51 89.55 47.85 8.2 22.56 8.2 22.56 6.38 42.37-8.66 48.75c-55 18.2-183.61 12.82-229.67 11.4-66.3-2.05-253.82-25.07-253.82-25.07C-4.57 163.14.44 124.86.44 124.86a72.61 72.61 0 0 1 13.22-12.3c7.75-5.47.91-9.57.91-9.57s12.15-9.12 23.09-11.85 170.12-2.96 170.12-2.96Z"/><path class="cls-3" d="m175.4 45.22 25.6 48.2 14.92.34-30.46-51.08-8.71.24a1.57 1.57 0 0 0-1.35 2.3ZM325.51 43l76.25 48.9 19.44-1.22-82.46-46.86a8.15 8.15 0 0 0-4.29-1.07Z"/><path d="M14.57 103s-3.65 5.69-3.42 11.5 12.42.57 12.42.57l4.9-7.74Z" style="fill:#7d009b"/><path class="cls-3" d="m29.15 94.94 8.05-11.55s4.86-4.1 4.56 7.9-12.61 3.65-12.61 3.65Z"/><path class="cls-15" d="M78.4 189.17a88.84 88.84 0 0 1 .29 10.25l-56.23-6.71c-1.94-27 8.56-49.75 23.75-51.05 15.42-1.32 29.79 19.95 32.19 47.51ZM246.47 200.13a92.09 92.09 0 0 1 0 15.93L177 210c-.16-1.27-.3-2.56-.41-3.86-2.7-31.55 10.76-58.48 30.07-60.13s37.11 22.57 39.81 54.12Z"/><path class="cls-16" d="M238.85 215.4 186 210.77c18.83 1.82 37 3.44 52.85 4.63ZM246.47 216.06a.37.37 0 0 1 0-.11l-7.63-.55ZM177 210l9 .79-9-.88v.09Z"/><path d="M261 199.75c2.44 28.4-9.68 52.63-27.06 54.12-.62 0-19.13.64-19.75.64-16.65-.15-13.78-22-16.12-49.37-2.38-27.77-6.56-51.18 10.2-53.62.38-.06 16.47-.47 16.86-.5 17.35-1.49 33.41 20.33 35.87 48.73ZM93.06 188.69c2.12 24.8-8.46 45.95-23.63 47.25-.54 0-16.7.56-17.23.56-14.54-.13-12-19.19-14.09-43.1C36 169.16 32.4 148.72 47 146.59c.34-.05 14.38-.41 14.72-.44 15.19-1.3 29.22 17.75 31.34 42.54Z"/><path class="cls-16" d="M505.81 141.27c7.44 27.79-217.13 28.58-257.47 6.83-52.4-28.25-67.44 21.8-108.45 20.28-29.18-1.08-65.89-39.19-109.37-33.27-10.68 1.46-22.28 13.08-26.26 28.52a82.49 82.49 0 0 0 14.87 28.67l3.33.41c-1.94-27 8.56-49.75 23.75-51.05 15.42-1.32 29.83 20 32.19 47.51a87.07 87.07 0 0 1 .29 10.15c28.75 3.29 64.3 7.21 98.25 10.57-.16-1.25-.29-2.5-.4-3.77-2.7-31.55 10.76-58.48 30.07-60.13s37.16 22.59 39.86 54.14a91.84 91.84 0 0 1 0 15.82c10 .69 19 1.19 26.47 1.42 46.06 1.42 174.68 6.8 229.67-11.4 15.05-6.38 13.39-51.34 3.2-64.7Z"/><ellipse cx="50.36" cy="191.56" rx="25.22" ry="45.07" transform="rotate(-4.9 50.35 191.344)"/><ellipse class="cls-17" cx="50.36" cy="191.56" rx="18.41" ry="32.9" transform="rotate(-4.9 50.35 191.344)"/><ellipse cx="50.36" cy="191.56" rx="11.97" ry="21.39" transform="rotate(-4.9 50.35 191.344)"/><ellipse cx="211.5" cy="203.13" rx="31.58" ry="51.61" transform="rotate(-4.9 211.298 202.913)"/><ellipse class="cls-17" cx="211.5" cy="203.13" rx="23.06" ry="37.68" transform="rotate(-4.9 211.298 202.913)"/><ellipse cx="211.5" cy="203.13" rx="14.99" ry="24.49" transform="rotate(-4.9 211.298 202.913)"/><path class="cls-18" d="M505.1 166.33s-13.5-2.06-16.16.44-8.28 20.72-8.28 20.72l17.66-.47Z"/><path class="cls-8" d="M500.16 134.93c-2.47-5-28.83-4.9-33.11-.82s-9.29 14.81-8 17.17 48.48-1.48 41.11-16.35Z"/><ellipse class="cls-8" cx="448.79" cy="144.15" rx="5.47" ry="4.44" transform="rotate(-81.96 448.809 144.143)"/><path class="cls-18" d="M287 166.33s13.5-2.06 16.16.44 8.28 20.72 8.28 20.72l-17.65-.49Z"/><path class="cls-8" d="M290.92 141.65c2.13-5.1 28.45-6.74 33-2.94s10.22 14.19 9.11 16.62-48.52 1.67-42.11-13.68Z"/><ellipse class="cls-8" cx="342.77" cy="147.56" rx="4.44" ry="5.47" transform="rotate(-16.3 340.955 147.065)"/><path class="cls-17" d="M278.38 211.9a7.15 7.15 0 0 0 7.25 6.95q110.52 3.27 224.52-3.32a2.76 2.76 0 0 0 2.69-2.84l-.53-19.8c-71.14 4.8-150.1 5.53-234.35 3.5Z"/><path class="cls-19" d="m452 181.18-4-24.58c-.7-4.32-3.87-7.4-7.43-7.24l-84.8 1.58c-3.57 0-6.62 3.17-7.16 7.51l-3.11 24.71c-.41 3.31 1.65 6.3 4.37 6.32l98-1.83c2.76-.12 4.71-3.18 4.13-6.47Z"/><path class="cls-17" transform="rotate(178.77 398.026 155.57)" d="M364.04 152.71h67.98v5.72h-67.98z"/><path class="cls-17" transform="rotate(178.77 398.247 165.738)" d="M364.26 162.88h67.98v5.72h-67.98z"/><path class="cls-17" transform="rotate(178.77 398.41 173.366)" d="M364.42 170.5h67.98v5.72h-67.98z"/><path class="cls-17" transform="rotate(178.77 398.626 183.535)" d="M364.64 180.67h67.98v5.72h-67.98z"/><path class="cls-18" d="m432.9 191.12 5.36-.24-6.55-44.38-5.35.25 6.54 44.37zM365.02 192.38l-5.36-.04 4.89-44.59 5.36.05-4.89 44.58z"/><path class="cls-19" transform="rotate(178.45 410.628 210.492)" d="M383.57 206.94h54.11v7.12h-54.11z"/><path class="cls-21" d="m231.96 175.12-7.14-4.12-13.83 23.95L197.16 171l-7.13 4.12 16.2 28.08-16.2 28.07 7.13 4.12 13.83-23.95 13.83 23.95 7.14-4.12-16.21-28.07 16.21-28.08z" style="-webkit-clip-path:url(#clip-path);clip-path:url(#clip-path)"/><path class="cls-21" d="m70.45 164.72-6.84-3.95-13.25 22.95-13.25-22.95-6.84 3.95 15.53 26.9-15.53 26.9 6.84 3.95 13.25-22.95 13.25 22.95 6.84-3.95-15.53-26.9 15.53-26.9z" style="-webkit-clip-path:url(#clip-path-2);clip-path:url(#clip-path-2)"/><path class="cls-15" d="M187.05 91.14c-2.7 6.31-5.4 12.63-7.87 19-.6 1.6-1.2 3.21-1.7 4.83a24.79 24.79 0 0 0-.85 5l-1.06 10.24-4 41-1 10.25-.13 1.29a6.72 6.72 0 0 1-.36 1.47 6 6 0 0 1-4.43 3.76 6.41 6.41 0 0 1-1.51.11c-.49 0-.87-.06-1.31-.09l-20.54-1.6c-13.69-1.07-27.37-2.27-41.06-3.39h-.19l-.13-.07a6.18 6.18 0 0 1-1.41-1.06 8.41 8.41 0 0 1-1.09-1.22 14.05 14.05 0 0 1-1.61-2.74 22 22 0 0 1-1.62-6 55.42 55.42 0 0 1 .18-12.09l2-23.81c.66-7.94 1.31-15.87 2-23.81l.53-6a16.69 16.69 0 0 1 1.7-5.78c.45-.91 1-1.74 1.54-2.58l1.62-2.51 3.24-5-3 5.14-1.53 2.56a28.84 28.84 0 0 0-1.45 2.59 16.16 16.16 0 0 0-1.5 5.65l-.36 6c-.47 8-1 15.89-1.52 23.84L97 160c-.26 4-.65 7.91-.09 11.74a19.76 19.76 0 0 0 1.51 5.5 12 12 0 0 0 1.41 2.38 7.2 7.2 0 0 0 .9 1 5.07 5.07 0 0 0 1 .74l-.31-.08c13.69 1.08 27.38 2.09 41.07 3.23l20.51 1.67 1.25.1a4.1 4.1 0 0 0 1.05-.08 4.31 4.31 0 0 0 1.89-.9 4.24 4.24 0 0 0 1.22-1.71 4.1 4.1 0 0 0 .26-1l.14-1.26 1.07-10.25c1.42-13.66 3-27.3 4.58-41 .42-3.41.8-6.82 1.27-10.22a25.38 25.38 0 0 1 1-5.12c.55-1.65 1.2-3.24 1.85-4.83 2.65-6.33 5.52-12.57 8.47-18.77Z"/><path class="cls-16" d="m120.72 107.58-14.39-.45a1.34 1.34 0 0 1-1.3-1.35v-3a1.34 1.34 0 0 1 1.39-1.34l14.39.44a1.35 1.35 0 0 1 1.3 1.35v3a1.35 1.35 0 0 1-1.39 1.35Z"/><path class="cls-3" d="M176.22 75h23v11.67a4.2 4.2 0 0 1-4.2 4.2h-18.8a2.68 2.68 0 0 1-2.68-2.68V77.73a2.68 2.68 0 0 1 2.68-2.73Z" transform="rotate(180 186.36 82.96)"/></svg>