<svg id="Слой_1" data-name="Слой 1" xmlns="http://www.w3.org/2000/svg" viewBox="0 0 292.57 270.68"><defs><clipPath id="clip-path"><rect class="cls-1" x="4.86" y="179.64" width="102.71" height="35.27" rx="5.98" transform="rotate(89.11 56.21 197.287)"/></clipPath><clipPath id="clip-path-2"><rect class="cls-1" x="193.09" y="179.64" width="102.71" height="35.27" rx="5.98" transform="rotate(89.11 244.448 197.293)"/></clipPath><style>.cls-1{fill:none}.cls-2{fill:#f69576}.cls-3{fill:#dd866f}.cls-4{fill:#a5713d}.cls-5{fill:#6b3425}.cls-6{fill:#fff}.cls-7{fill:#72645d}.cls-9{fill:#232323}.cls-12,.cls-19{fill:#0c96fd}.cls-14{fill:#8a9995}.cls-15{fill:#606060}.cls-16{fill:#303030}.cls-19{opacity:.21}</style></defs><path class="cls-2" d="M151.23 76.31h72.51v25.84h-72.51z"/><path d="M155.47 54.71c1.75-9 18.52-6.56 30.47-6.17s22-4.63 28.16-.39 4.63 54 4.63 54H162s-9.23-33.55-6.53-47.44Z"/><path class="cls-2" d="M198.48 52.21h-24.35l2.03-22.57h17.25l5.07 22.57z"/><path class="cls-3" d="M175 43.14a21.93 21.93 0 0 0 11.36 3 22.51 22.51 0 0 0 10.27-2.34l-3.17-14.11h-17.3Z"/><path class="cls-4" d="M175.92 6.11a10.62 10.62 0 0 0-7.33 7.71c-.77 3.86.77 15.43 5 18.52s22.87-.45 23.92-.77c6.17-1.93 3.85-17.36.77-20.45S184 3.41 175.92 6.11Z"/><path class="cls-3" d="M167.21 19.76c.81-4 6.74-.38 5.64 7-1.1 7.62-6.85-1.06-5.64-7Z"/><path class="cls-5" d="M171.75 27.71h-.06a.23.23 0 0 1 0-.23 8.65 8.65 0 0 0 0-3.86c-.22-1.15-.78-3.16-2.06-3.47a1.13 1.13 0 0 0-1.43.7 5.58 5.58 0 0 0-.21 2.43.35.35 0 0 1-.06.23s-.1 0-.12-.12a6.38 6.38 0 0 1 .25-2.74 1.27 1.27 0 0 1 1.59-.81c1 .23 1.8 1.58 2.19 3.71a9.26 9.26 0 0 1 0 4.2Z"/><path class="cls-5" d="M169.63 27.05s-.06 0-.08-.11a16.84 16.84 0 0 1 .3-7c0-.08.07-.12.11-.08a.29.29 0 0 1 0 .23 16.15 16.15 0 0 0-.29 6.71.31.31 0 0 1 0 .24s-.04.01-.04.01Z"/><path class="cls-3" d="M196.88 26.78c-1.1-7.4 4.83-11 5.64-7 1.2 5.92-4.52 14.6-5.64 7Z"/><path class="cls-5" d="M197.93 27.71a9.26 9.26 0 0 1 0-4.2c.39-2.13 1.18-3.48 2.19-3.71a1.27 1.27 0 0 1 1.59.81 6.38 6.38 0 0 1 .25 2.74c0 .08-.08.16-.12.12a.34.34 0 0 1 0-.23 5.65 5.65 0 0 0-.22-2.43 1.13 1.13 0 0 0-1.43-.7c-1.28.31-1.84 2.32-2.06 3.47a8.65 8.65 0 0 0 0 3.86.23.23 0 0 1 0 .23Z"/><path class="cls-5" d="M200.06 27a.31.31 0 0 1 0-.24 16.15 16.15 0 0 0-.29-6.71.29.29 0 0 1 0-.23s.1 0 .12.08a16.75 16.75 0 0 1 .29 7c0 .08 0 .11-.08.11s-.02.04-.04-.01Z"/><path class="cls-2" d="M184.92 6.71c-8.43-2.43-14.79 2.48-14.79 15.47 0 6.36 1.34 7.68 3.63 13.12 1.12 2.68 7.08 8 10.92 9h.48c3.84-1 9.8-6.32 10.92-9 2.28-5.44 3.63-6.76 3.63-13.12 0-12.99-6.36-17.9-14.79-15.47Z"/><path class="cls-4" d="M170.13 11.51s5.37 0 8.87 1.93c4.24 2.31 11.56 5.65 18.13 5 12-1.15 3.47-14.65.39-14.65.77 1.15-.78 2.7-2.32 2.31s-15.81-16.58-25.07 5.41Z"/><path class="cls-6" d="M180.7 32.76s.5 3.09 2.31 3.74 3.71.24 4.52-.81a8.8 8.8 0 0 0 1.27-3Z"/><path class="cls-5" d="M184.79 31.49a.46.46 0 0 1-.35-.12.93.93 0 0 1-.23-.73v-.11a.73.73 0 0 0-.27.23.65.65 0 0 1-.58.19.92.92 0 0 1-.58-.73 4.21 4.21 0 0 1 .5-1.82.19.19 0 0 1 .23-.07.18.18 0 0 1 .08.23 2.91 2.91 0 0 0-.46 1.54c.08.31.19.43.31.46s.15 0 .19-.07c.27-.27.46-.39.62-.39a.33.33 0 0 1 .23.16.68.68 0 0 1 0 .3.8.8 0 0 0 .11.51.45.45 0 0 0 .23 0c.24 0 .27-.23.27-.61 0-.2 0-.35.08-.43a.29.29 0 0 1 .19-.07c.16 0 .24.11.35.19s.31.19.46.08a.4.4 0 0 0 .08-.39 2.57 2.57 0 0 0-.62-1.43c-.07 0-.07-.15 0-.23a.17.17 0 0 1 .23 0 2.84 2.84 0 0 1 .77 1.7.82.82 0 0 1-.19.66.66.66 0 0 1-.93 0l-.08-.08v.08c0 .31 0 .88-.58 1Zm-.54-1Z"/><ellipse class="cls-5" cx="177.58" cy="25.59" rx=".66" ry="1.31"/><path class="cls-5" d="M175.29 22.16a5.25 5.25 0 0 1 2.63-1.08 4.57 4.57 0 0 1 2.31.54c.46.11.54-.54.27-1.08s-1.23-1-2.85-.93a3.83 3.83 0 0 0-2.94 1.27c-.46.47-.11 1.85.58 1.28Z"/><ellipse class="cls-5" cx="190.61" cy="25.67" rx=".66" ry="1.31"/><path class="cls-5" d="M188 21.46a5.31 5.31 0 0 1 2.8-.42 4.56 4.56 0 0 1 2.12 1.08c.42.22.65-.4.52-1s-1-1.23-2.55-1.58a4 4 0 0 0-3.15.53c-.57.39-.55 1.78.26 1.39ZM189.69 37.2a26.55 26.55 0 0 1-2 3.82 10.61 10.61 0 0 1-5.48 0 26.55 26.55 0 0 1-2-3.82l-1 .23s1.54 5 1.78 5.4a12.9 12.9 0 0 0 3.74 2.23v.08h.38v-.08a12.9 12.9 0 0 0 3.74-2.23c.24-.42 1.78-5.4 1.78-5.4Z"/><path class="cls-5" d="M184.4 37.35h1.54v3.09h-1.54z"/><ellipse class="cls-2" cx="186.14" cy="51.66" rx="13.69" ry="5.37"/><path d="M160.1 50.91c7.27 1 8.1 5.8 8.87 9.11s.77 20.72.77 20.72l-23.14 2.9s.77-15.33 3.09-24c1.9-7.2 7.31-9.15 10.41-8.73ZM211.9 49c-7.27 1-8.1 5.8-8.87 9.11s-.77 20.72-.77 20.72l23.14 2.9s-.77-15.33-3.08-24c-1.91-7.22-7.32-9.17-10.42-8.73Z"/><path class="cls-2" d="M211.87 64.18c-.5-.94-2.34.26-2.61 1s.54 8.87.54 8.87-2.55 2.08-2.61 4.79 3.56 4.78 3.78 5.1-.43 2.81 3 4.25 6.11.42 6.38-1.38-5.63-15-6.59-17.54-1.47-4.27-1.89-5.09ZM161.87 66c.5-.93 2.34.27 2.61 1s-.54 8.88-.54 8.88 2.55 2.07 2.61 4.78-3.56 4.79-3.78 5.1.43 2.82-3 4.26-6.11.42-6.38-1.39 5.63-15 6.59-17.53 1.47-4.32 1.89-5.1Z"/><path class="cls-7" d="m220.08 102.54-.57-9.11s-1.28 4.1-5 4.1-8.45-3.09-15.1-5.69a34 34 0 0 0-13.21-2 28.77 28.77 0 0 0-11.23 2c-6.64 2.6-11.32 5.69-15.09 5.69s-5.05-4.1-5.05-4.1l-.57 9.11Z"/><path class="cls-7" d="M155.56 102.54c0-.59-.05-1.19-.05-1.79a32.1 32.1 0 0 1 64.2 0c0 .6 0 1.2-.06 1.79h6.63v-1.79a38.72 38.72 0 0 0-77.43 0v1.79Z"/><path class="cls-2" d="M155.25 68.93a48.52 48.52 0 0 1 7.92 7.82c.75 1.27.27 3.34-1.48 2.87s-8-6.17-9.09-7.6.64-4.26 2.65-3.09Z"/><path class="cls-2" d="M151.34 71.55c1.67.79 7.67 6 8.51 7.17s.53 3.31-1.26 3-8.43-5.52-9.65-6.86.3-4.32 2.4-3.31Z"/><path class="cls-2" d="M150.12 76.65a47.09 47.09 0 0 1 9.08 5.68c1 1 1 3.09-.8 3s-8.78-4.13-10.13-5.24-.27-4.09 1.85-3.44Z"/><path class="cls-2" d="M150.66 81.53a39.42 39.42 0 0 1 7.39 5.13c.75.9.58 2.55-.93 2.38s-7.25-3.85-8.33-4.83a1.7 1.7 0 0 1 1.87-2.68ZM218.49 67.13a48.08 48.08 0 0 0-7.92 7.81c-.75 1.28-.27 3.35 1.48 2.87s8-6.17 9.09-7.6-.64-4.21-2.65-3.08Z"/><path class="cls-2" d="M222.4 69.74a48.78 48.78 0 0 0-8.51 7.17c-.84 1.21-.53 3.32 1.26 3s8.43-5.53 9.65-6.87-.3-4.31-2.4-3.3Z"/><path class="cls-2" d="M223.62 74.84a47.09 47.09 0 0 0-9.08 5.68c-1 1-.95 3.1.8 3s8.78-4.12 10.13-5.24.29-4.12-1.85-3.44Z"/><path class="cls-2" d="M223.08 79.72a39.42 39.42 0 0 0-7.39 5.13c-.75.9-.58 2.55.93 2.39s7.25-3.86 8.33-4.84a1.7 1.7 0 0 0-1.87-2.68Z"/><path d="M292.57 251.07c0 10.83-65.49 19.61-146.28 19.61S0 261.9 0 251.07c0-5.66 17.83-66.8 46.35-70.38 26.15-3.28 61.3-5.29 99.94-5.29 40.39 0 77 2.2 103.44 5.75s42.84 64.5 42.84 69.92Z" style="opacity:.15"/><rect class="cls-9" x="4.86" y="179.64" width="102.71" height="35.27" rx="5.98" transform="rotate(89.11 56.21 197.287)"/><g style="-webkit-clip-path:url(#clip-path);clip-path:url(#clip-path)"><path d="m62.6 156.12 4.23-7.78 8.07-.54-.15-10.05-6.37.1-5.91 9.68.13 8.59zM51.61 152.1l4.32 6.61 4.12-6.43-.14-9.06-4.13 5.91-4.32-6.51.15 9.48zM48.79 147.74l-6.2-9.49-6.37.1.15 10.05 8.09.29 4.47 7.65-.14-8.6z"/><path d="m62.81 169.8 4.23-7.79 8.07-.54-.15-10.04-6.37.1-5.91 9.67.13 8.6zM56.14 172.38l4.12-6.43-.14-9.06-4.13 5.92-4.32-6.52.15 9.48 4.32 6.61zM49 161.41l-6.2-9.49-6.37.1.15 10.05 8.09.29 4.47 7.65-.14-8.6zM63.04 184.71l4.23-7.78 8.07-.54-.15-10.05-6.37.1-5.91 9.67.13 8.6z"/><path d="m56.37 187.3 4.12-6.43-.14-9.07-4.13 5.92-4.32-6.51.15 9.48 4.32 6.61zM49.23 176.32l-6.2-9.48-6.37.1.15 10.04 8.09.29 4.47 7.65-.14-8.6zM63.25 198.38l4.23-7.78 8.07-.54-.15-10.05-6.37.1-5.91 9.68.13 8.59z"/><path d="m56.58 200.97 4.12-6.43-.14-9.07-4.12 5.92-4.33-6.51.15 9.48 4.32 6.61zM49.45 190l-6.21-9.49-6.37.1.15 10.05 8.09.28 4.47 7.65-.13-8.59zM63.46 212.05l4.23-7.78 8.08-.54-.16-10.04-6.37.09-5.91 9.68.13 8.59z"/><path d="m56.79 214.64 4.13-6.43-.14-9.06-4.13 5.91-4.33-6.51.15 9.48 4.32 6.61zM49.66 203.67l-6.21-9.49-6.37.1.16 10.05 8.08.29 4.47 7.65-.13-8.6zM63.67 225.73l4.23-7.79 8.08-.54-.16-10.04-6.37.1-5.91 9.67.13 8.6z"/><path d="m57.01 228.32 4.12-6.44-.14-9.06-4.13 5.92-4.33-6.52.15 9.48 4.33 6.62zM49.87 217.34l-6.21-9.49-6.37.1.16 10.05 8.08.29 4.47 7.65-.13-8.6zM63.9 240.64l4.24-7.78 8.07-.54-.16-10.05-6.37.1-5.91 9.67.13 8.6z"/><path d="m57.24 243.23 4.12-6.44-.14-9.06-4.13 5.92-4.32-6.51.14 9.48 4.33 6.61zM50.1 232.25l-6.21-9.48-6.37.1.16 10.04 8.08.29 4.47 7.65-.13-8.6zM64.11 254.31l4.24-7.78 8.07-.54-.16-10.05-6.37.1-5.91 9.68.13 8.59z"/><path d="m57.45 256.9 4.12-6.43-.14-9.07-4.13 5.92-4.32-6.51.14 9.48 4.33 6.61zM44.1 236.44l-6.37.1.16 10.05 8.08.29 4.47 7.64-.13-8.59-6.21-9.49z"/></g><rect class="cls-9" x="193.09" y="179.64" width="102.71" height="35.27" rx="5.98" transform="rotate(89.11 244.448 197.293)"/><g style="-webkit-clip-path:url(#clip-path-2);clip-path:url(#clip-path-2)"><path d="m250.83 156.12 4.23-7.78 8.07-.54-.16-10.05-6.37.1-5.91 9.68.14 8.59zM239.83 152.1l4.33 6.61 4.12-6.43-.14-9.06-4.13 5.91-4.32-6.51.14 9.48zM237.02 147.74l-6.21-9.49-6.37.1.16 10.05 8.09.29 4.46 7.65-.13-8.6z"/><path d="m251.04 169.8 4.23-7.79 8.07-.54-.15-10.04-6.37.1-5.91 9.67.13 8.6zM244.37 172.38l4.12-6.43-.14-9.06-4.13 5.92-4.32-6.52.15 9.48 4.32 6.61zM237.23 161.41l-6.2-9.49-6.37.1.15 10.05 8.09.29 4.47 7.65-.14-8.6zM251.27 184.71l4.23-7.78 8.07-.54-.15-10.05-6.37.1-5.92 9.67.14 8.6z"/><path d="m244.6 187.3 4.12-6.43-.14-9.07-4.13 5.92-4.32-6.51.15 9.48 4.32 6.61zM237.46 176.32l-6.2-9.48-6.37.1.15 10.04 8.09.29 4.47 7.65-.14-8.6zM251.48 198.38l4.23-7.78 8.07-.54-.15-10.05-6.37.1-5.91 9.68.13 8.59z"/><path d="m244.81 200.97 4.12-6.43-.14-9.07-4.13 5.92-4.32-6.51.15 9.48 4.32 6.61zM237.67 190l-6.2-9.49-6.37.1.15 10.05 8.09.28 4.47 7.65-.14-8.59zM251.69 212.05l4.23-7.78 8.07-.54-.15-10.04-6.37.09-5.91 9.68.13 8.59z"/><path d="m245.02 214.64 4.12-6.43-.14-9.06-4.13 5.91-4.32-6.51.15 9.48 4.32 6.61zM237.89 203.67l-6.21-9.49-6.37.1.15 10.05 8.09.29 4.47 7.65-.13-8.6zM251.9 225.73l4.23-7.79 8.07-.54-.15-10.04-6.37.1-5.91 9.67.13 8.6z"/><path d="m245.23 228.32 4.13-6.44-.14-9.06-4.13 5.92-4.33-6.52.15 9.48 4.32 6.62zM238.1 217.34l-6.21-9.49-6.37.1.16 10.05 8.08.29 4.47 7.65-.13-8.6zM252.13 240.64l4.23-7.78 8.08-.54-.16-10.05-6.37.1-5.91 9.67.13 8.6z"/><path d="m245.46 243.23 4.13-6.44-.14-9.06-4.13 5.92-4.33-6.51.15 9.48 4.32 6.61zM238.33 232.25l-6.21-9.48-6.37.1.16 10.04 8.08.29 4.47 7.65-.13-8.6zM252.34 254.31l4.23-7.78 8.08-.54-.16-10.05-6.37.1-5.91 9.68.13 8.59z"/><path d="m245.68 256.9 4.12-6.43-.14-9.07-4.13 5.92-4.32-6.51.14 9.48 4.33 6.61zM232.33 236.44l-6.37.1.16 10.05 8.08.29 4.47 7.64-.13-8.59-6.21-9.49z"/></g><path class="cls-12" d="M64.24 44.5c-4.06 9.57-8.87 20.42-12.32 26.86-7.2 13.42-12.12 29.8-17.51 36.92S20.48 123.1 16.22 132s-3.93 18.83-3.93 18.83l144.44-3.11V44.5Z"/><path d="M156.73 147.67H17.93a8.58 8.58 0 0 0-8.58 8.58v38.91H288v-38.91a8.58 8.58 0 0 0-8.58-8.58Z" style="fill:#1d7dcc"/><path class="cls-12" d="M24.92 77.58h15a3.36 3.36 0 0 1 3.36 3.36v9.31H24.92a2.15 2.15 0 0 1-2.15-2.15v-8.37a2.15 2.15 0 0 1 2.15-2.15Z"/><path class="cls-14" d="M14.26 169.94s15.61-2.29 18.78 0 10.26 19.32 10.26 19.32H22.77Z"/><path class="cls-6" d="M20.81 138.82c2.51-4.8 33.08-6.22 38.32-2.62s11.79 13.43 10.48 15.72-56.33 1.31-48.8-13.1Z"/><circle class="cls-6" cx="80.99" cy="144.64" r="5.16"/><path class="cls-15" d="M6.73 195.16h150v21.29H9.63a2.9 2.9 0 0 1-2.9-2.9v-18.39Z"/><path class="cls-16" d="M156.73 189.26h-67a5.19 5.19 0 0 1-5.14-5.92L87.9 160a8.32 8.32 0 0 1 8.24-7.14h60.59Z"/><path class="cls-15" d="M106.78 154.54h49.95v5.39h-49.95zM106.78 164.14h49.95v5.39h-49.95zM106.78 171.33h49.95v5.39h-49.95zM106.78 180.92h49.95v5.39h-49.95z"/><path class="cls-14" d="M107.27 191.88h-6.22l5.24-42.08h6.22l-5.24 42.08z"/><path class="cls-16" d="M131.75 205.8h24.97v6.71h-24.97z"/><path class="cls-12" d="M262.91 108.28c-5.4-7.12-10.31-23.5-17.51-36.92-3.45-6.44-8.26-17.29-12.32-26.86h-92.49v103.17L285 150.78s.32-10-3.93-18.83-12.76-16.56-18.16-23.67Z"/><path class="cls-12" d="M256.17 77.58h18.37v9.31a3.36 3.36 0 0 1-3.36 3.36h-15A2.15 2.15 0 0 1 254 88.1v-8.37a2.15 2.15 0 0 1 2.17-2.15Z" transform="rotate(180 264.285 83.915)"/><path class="cls-14" d="M283.06 169.94s-15.61-2.29-18.78 0S254 189.26 254 189.26h20.53Z"/><path class="cls-6" d="M276.51 138.82c-2.51-4.8-33.08-6.22-38.32-2.62s-11.79 13.43-10.48 15.72 56.29 1.31 48.8-13.1Z"/><circle class="cls-6" cx="216.33" cy="144.64" r="5.16"/><path class="cls-15" d="M143.49 195.16h147.1v21.29h-150v-18.39a2.9 2.9 0 0 1 2.9-2.9Z" transform="rotate(-180 215.595 205.8)"/><path d="M67.79 44.5 51.6 85.44s5.24 14.08 26.85 15.72c14.25 1.08 43.7 1.45 62.14 1.57v.07h16.14v-.07c18.44-.12 47.89-.49 62.14-1.57 21.61-1.64 26.85-15.72 26.85-15.72L229.53 44.5Z" style="fill:#3b3b3b"/><path class="cls-16" d="M140.59 189.26h67a5.18 5.18 0 0 0 5.13-5.92l-3.3-23.34a8.33 8.33 0 0 0-8.25-7.14h-60.58Z"/><path class="cls-15" transform="rotate(-180 165.565 157.24)" d="M140.59 154.54h49.95v5.39h-49.95z"/><path class="cls-15" transform="rotate(-180 165.565 166.83)" d="M140.59 164.14h49.95v5.39h-49.95z"/><path class="cls-15" transform="rotate(-180 165.565 174.025)" d="M140.59 171.33h49.95v5.39h-49.95z"/><path class="cls-15" transform="rotate(-180 165.565 183.615)" d="M140.59 180.92h49.95v5.39h-49.95z"/><path class="cls-14" d="M190.05 191.88h6.22l-5.24-42.08h-6.22l5.24 42.08z"/><path class="cls-16" transform="rotate(-180 153.08 209.155)" d="M140.59 205.8h24.97v6.71h-24.97z"/><g style="opacity:.53"><path class="cls-2" d="M151.23 76.31h72.51v25.84h-72.51z"/><path d="M155.47 54.71c1.75-9 18.52-6.56 30.47-6.17s22-4.63 28.16-.39 4.63 54 4.63 54H162s-9.23-33.55-6.53-47.44Z"/><path class="cls-2" d="M198.48 52.21h-24.35l2.03-22.57h17.25l5.07 22.57z"/><path class="cls-3" d="M175 43.14a21.93 21.93 0 0 0 11.36 3 22.51 22.51 0 0 0 10.27-2.34l-3.17-14.11h-17.3Z"/><path class="cls-4" d="M175.92 6.11a10.62 10.62 0 0 0-7.33 7.71c-.77 3.86.77 15.43 5 18.52s22.87-.45 23.92-.77c6.17-1.93 3.85-17.36.77-20.45S184 3.41 175.92 6.11Z"/><path class="cls-3" d="M167.21 19.76c.81-4 6.74-.38 5.64 7-1.1 7.62-6.85-1.06-5.64-7Z"/><path class="cls-5" d="M171.75 27.71h-.06a.23.23 0 0 1 0-.23 8.65 8.65 0 0 0 0-3.86c-.22-1.15-.78-3.16-2.06-3.47a1.13 1.13 0 0 0-1.43.7 5.58 5.58 0 0 0-.21 2.43.35.35 0 0 1-.06.23s-.1 0-.12-.12a6.38 6.38 0 0 1 .25-2.74 1.27 1.27 0 0 1 1.59-.81c1 .23 1.8 1.58 2.19 3.71a9.26 9.26 0 0 1 0 4.2Z"/><path class="cls-5" d="M169.63 27.05s-.06 0-.08-.11a16.84 16.84 0 0 1 .3-7c0-.08.07-.12.11-.08a.29.29 0 0 1 0 .23 16.15 16.15 0 0 0-.29 6.71.31.31 0 0 1 0 .24s-.04.01-.04.01Z"/><path class="cls-3" d="M196.88 26.78c-1.1-7.4 4.83-11 5.64-7 1.2 5.92-4.52 14.6-5.64 7Z"/><path class="cls-5" d="M197.93 27.71a9.26 9.26 0 0 1 0-4.2c.39-2.13 1.18-3.48 2.19-3.71a1.27 1.27 0 0 1 1.59.81 6.38 6.38 0 0 1 .25 2.74c0 .08-.08.16-.12.12a.34.34 0 0 1 0-.23 5.65 5.65 0 0 0-.22-2.43 1.13 1.13 0 0 0-1.43-.7c-1.28.31-1.84 2.32-2.06 3.47a8.65 8.65 0 0 0 0 3.86.23.23 0 0 1 0 .23Z"/><path class="cls-5" d="M200.06 27a.31.31 0 0 1 0-.24 16.15 16.15 0 0 0-.29-6.71.29.29 0 0 1 0-.23s.1 0 .12.08a16.75 16.75 0 0 1 .29 7c0 .08 0 .11-.08.11s-.02.04-.04-.01Z"/><path class="cls-2" d="M184.92 6.71c-8.43-2.43-14.79 2.48-14.79 15.47 0 6.36 1.34 7.68 3.63 13.12 1.12 2.68 7.08 8 10.92 9h.48c3.84-1 9.8-6.32 10.92-9 2.28-5.44 3.63-6.76 3.63-13.12 0-12.99-6.36-17.9-14.79-15.47Z"/><path class="cls-4" d="M170.13 11.51s5.37 0 8.87 1.93c4.24 2.31 11.56 5.65 18.13 5 12-1.15 3.47-14.65.39-14.65.77 1.15-.78 2.7-2.32 2.31s-15.81-16.58-25.07 5.41Z"/><path class="cls-6" d="M180.7 32.76s.5 3.09 2.31 3.74 3.71.24 4.52-.81a8.8 8.8 0 0 0 1.27-3Z"/><path class="cls-5" d="M184.79 31.49a.46.46 0 0 1-.35-.12.93.93 0 0 1-.23-.73v-.11a.73.73 0 0 0-.27.23.65.65 0 0 1-.58.19.92.92 0 0 1-.58-.73 4.21 4.21 0 0 1 .5-1.82.19.19 0 0 1 .23-.07.18.18 0 0 1 .08.23 2.91 2.91 0 0 0-.46 1.54c.08.31.19.43.31.46s.15 0 .19-.07c.27-.27.46-.39.62-.39a.33.33 0 0 1 .23.16.68.68 0 0 1 0 .3.8.8 0 0 0 .11.51.45.45 0 0 0 .23 0c.24 0 .27-.23.27-.61 0-.2 0-.35.08-.43a.29.29 0 0 1 .19-.07c.16 0 .24.11.35.19s.31.19.46.08a.4.4 0 0 0 .08-.39 2.57 2.57 0 0 0-.62-1.43c-.07 0-.07-.15 0-.23a.17.17 0 0 1 .23 0 2.84 2.84 0 0 1 .77 1.7.82.82 0 0 1-.19.66.66.66 0 0 1-.93 0l-.08-.08v.08c0 .31 0 .88-.58 1Zm-.54-1Z"/><ellipse class="cls-5" cx="177.58" cy="25.59" rx=".66" ry="1.31"/><path class="cls-5" d="M175.29 22.16a5.25 5.25 0 0 1 2.63-1.08 4.57 4.57 0 0 1 2.31.54c.46.11.54-.54.27-1.08s-1.23-1-2.85-.93a3.83 3.83 0 0 0-2.94 1.27c-.46.47-.11 1.85.58 1.28Z"/><ellipse class="cls-5" cx="190.61" cy="25.67" rx=".66" ry="1.31"/><path class="cls-5" d="M188 21.46a5.31 5.31 0 0 1 2.8-.42 4.56 4.56 0 0 1 2.12 1.08c.42.22.65-.4.52-1s-1-1.23-2.55-1.58a4 4 0 0 0-3.15.53c-.57.39-.55 1.78.26 1.39ZM189.69 37.2a26.55 26.55 0 0 1-2 3.82 10.61 10.61 0 0 1-5.48 0 26.55 26.55 0 0 1-2-3.82l-1 .23s1.54 5 1.78 5.4a12.9 12.9 0 0 0 3.74 2.23v.08h.38v-.08a12.9 12.9 0 0 0 3.74-2.23c.24-.42 1.78-5.4 1.78-5.4Z"/><path class="cls-5" d="M184.4 37.35h1.54v3.09h-1.54z"/><ellipse class="cls-2" cx="186.14" cy="51.66" rx="13.69" ry="5.37"/><path d="M160.1 50.91c7.27 1 8.1 5.8 8.87 9.11s.77 20.72.77 20.72l-23.14 2.9s.77-15.33 3.09-24c1.9-7.2 7.31-9.15 10.41-8.73ZM211.9 49c-7.27 1-8.1 5.8-8.87 9.11s-.77 20.72-.77 20.72l23.14 2.9s-.77-15.33-3.08-24c-1.91-7.22-7.32-9.17-10.42-8.73Z"/><path class="cls-2" d="M211.87 64.18c-.5-.94-2.34.26-2.61 1s.54 8.87.54 8.87-2.55 2.08-2.61 4.79 3.56 4.78 3.78 5.1-.43 2.81 3 4.25 6.11.42 6.38-1.38-5.63-15-6.59-17.54-1.47-4.27-1.89-5.09ZM161.87 66c.5-.93 2.34.27 2.61 1s-.54 8.88-.54 8.88 2.55 2.07 2.61 4.78-3.56 4.79-3.78 5.1.43 2.82-3 4.26-6.11.42-6.38-1.39 5.63-15 6.59-17.53 1.47-4.32 1.89-5.1Z"/><path class="cls-7" d="m220.08 102.54-.57-9.11s-1.28 4.1-5 4.1-8.45-3.09-15.1-5.69a34 34 0 0 0-13.21-2 28.77 28.77 0 0 0-11.23 2c-6.64 2.6-11.32 5.69-15.09 5.69s-5.05-4.1-5.05-4.1l-.57 9.11Z"/><path class="cls-7" d="M155.56 102.54c0-.59-.05-1.19-.05-1.79a32.1 32.1 0 0 1 64.2 0c0 .6 0 1.2-.06 1.79h6.63v-1.79a38.72 38.72 0 0 0-77.43 0v1.79Z"/><path class="cls-2" d="M155.25 68.93a48.52 48.52 0 0 1 7.92 7.82c.75 1.27.27 3.34-1.48 2.87s-8-6.17-9.09-7.6.64-4.26 2.65-3.09Z"/><path class="cls-2" d="M151.34 71.55c1.67.79 7.67 6 8.51 7.17s.53 3.31-1.26 3-8.43-5.52-9.65-6.86.3-4.32 2.4-3.31Z"/><path class="cls-2" d="M150.12 76.65a47.09 47.09 0 0 1 9.08 5.68c1 1 1 3.09-.8 3s-8.78-4.13-10.13-5.24-.27-4.09 1.85-3.44Z"/><path class="cls-2" d="M150.66 81.53a39.42 39.42 0 0 1 7.39 5.13c.75.9.58 2.55-.93 2.38s-7.25-3.85-8.33-4.83a1.7 1.7 0 0 1 1.87-2.68ZM218.49 67.13a48.08 48.08 0 0 0-7.92 7.81c-.75 1.28-.27 3.35 1.48 2.87s8-6.17 9.09-7.6-.64-4.21-2.65-3.08Z"/><path class="cls-2" d="M222.4 69.74a48.78 48.78 0 0 0-8.51 7.17c-.84 1.21-.53 3.32 1.26 3s8.43-5.53 9.65-6.87-.3-4.31-2.4-3.3Z"/><path class="cls-2" d="M223.62 74.84a47.09 47.09 0 0 0-9.08 5.68c-1 1-.95 3.1.8 3s8.78-4.12 10.13-5.24.29-4.12-1.85-3.44Z"/><path class="cls-2" d="M223.08 79.72a39.42 39.42 0 0 0-7.39 5.13c-.75.9-.58 2.55.93 2.39s7.25-3.86 8.33-4.84a1.7 1.7 0 0 0-1.87-2.68Z"/></g><path class="cls-19" d="m88.56 44.5-33.71 46c3.57 4.18 10.57 9.58 23.36 10.61l43.73-56.61ZM147 44.5l-44.72 57.67c2.7.07 5.45.13 8.23.18l44.87-57.85ZM161.32 44.5l-45 58 8.28.12 45.12-58.12Z"/></svg>