<svg xmlns="http://www.w3.org/2000/svg" width="1103" height="654" style="shape-rendering:geometricprecision;text-rendering:geometricprecision;image-rendering:optimizequality;fill-rule:evenodd;clip-rule:evenodd"><path style="opacity:.935" fill="#6abcea" d="M1102.5 409.5v38c-13.51 66.022-52.18 110.189-116 132.5-55.635 14.729-106.969 5.729-154-27a172.505 172.505 0 0 1-14-12.5c-21.631 46.798-55.964 80.631-103 101.5-13.863 4.796-27.863 8.63-42 11.5h-44c-51.278-7.552-93.778-30.885-127.5-70-17.055-22.448-29.055-47.448-36-75-49.905 44.613-108.071 60.447-174.5 47.5-32.717-8.518-61.05-24.518-85-48-22.561-21.281-38.394-46.781-47.5-76.5a172.533 172.533 0 0 0-7-30l-3.5-3.5C82.357 392.19 35.524 359.357 8 299.5a469.242 469.242 0 0 1-8.5-29v-44c10.541-48.704 38.541-83.204 84-103.5 43.2-14.429 86.2-13.762 129 2a482.932 482.932 0 0 1 18.5 9.5C251.848 63.318 298.348 19.152 370.5 2 434.993-6.394 489.826 12.44 535 58.5c15.243 17.807 26.91 37.807 35 60 3.069 3.307 6.902 4.807 11.5 4.5 32.708.021 62.875 8.521 90.5 25.5 32.081-42.216 75.081-64.55 129-67 24.938.776 48.438 6.942 70.5 18.5 28.699 16.929 50.866 40.096 66.5 69.5 13.807 29.29 17.64 59.79 11.5 91.5 26.838 2.864 51.5 11.531 74 26 43.81 29.436 70.15 70.269 79 122.5Z"/><path style="opacity:1" fill="#fdfdfd" d="M414.5 20.5c73.351 8.675 122.018 48.009 146 118 40.245-1.857 77.245 7.976 111 29.5 2.803.755 5.47.422 8-1 32.012-48.339 77.012-70.505 135-66.5 3.795 1.117 7.795 1.783 12 2 45.898 9.381 78.732 35.381 98.5 78a131.6 131.6 0 0 1 6.5 21c-.09 2.652.576 4.985 2 7a96.122 96.122 0 0 1 2 22 334.538 334.538 0 0 1-3.5 41 11.532 11.532 0 0 0 3.5 4.5 573.588 573.588 0 0 1 29 3.5c3.005 1.777 6.338 2.777 10 3 60.73 20.51 97.07 62.177 109 125 .16 2.357 0 4.69-.5 7a420.62 420.62 0 0 1-31.5 37.5c-30.75 25.473-66.248 37.64-106.5 36.5-31.724-.89-62.224-7.39-91.5-19.5a509.354 509.354 0 0 1-33.5-15.5c-20.914 45.417-56.414 71.25-106.5 77.5-54.705 1.541-104.372-13.459-149-45-11.909-9.907-22.409-21.074-31.5-33.5a112.504 112.504 0 0 1-11-27 90.455 90.455 0 0 1 0-19 421.03 421.03 0 0 0 2-17c-20.783 24.331-46.283 42.164-76.5 53.5-25.113 9.945-51.113 16.112-78 18.5a699.938 699.938 0 0 1-46-1c-35.983-5.173-64.483-22.506-85.5-52-5.482-12.398-8.816-25.398-10-39-.667-15-.667-30 0-45a98.167 98.167 0 0 1 6-21l4.5-4.5c-2-.667-4-.667-6 0-74.001 23.05-142.334 12.05-205-33a193.893 193.893 0 0 0-12-11.5c-2.064-51.716 19.936-89.216 66-112.5 31.068-12.55 63.068-15.717 96-9.5 2.015 1.424 4.348 2.09 7 2a185.332 185.332 0 0 1 50 20.5c5.268 1.45 8.768-.383 10.5-5.5 10.478-57.81 42.978-97.644 97.5-119.5a185.357 185.357 0 0 1 26-6.5 225.869 225.869 0 0 1 46-3Z"/><path style="opacity:1" fill="#bfdff5" d="M414.5 20.5a225.869 225.869 0 0 0-46 3c5.064-1.757 10.397-2.924 16-3.5 10.175-.825 20.175-.658 30 .5Z"/><path style="opacity:1" fill="#a7d4f1" d="M814.5 100.5c4.317-.417 8.317.25 12 2-4.205-.217-8.205-.883-12-2Z"/><path style="opacity:1" fill="#aed7f2" d="M177.5 132.5c2.652-.09 4.985.576 7 2-2.652.09-4.985-.576-7-2Z"/><path style="opacity:1" fill="#c0dff5" d="M931.5 201.5c1.424 2.015 2.09 4.348 2 7-1.424-2.015-2.09-4.348-2-7Z"/><path style="opacity:1" fill="#c3e3f6" d="M15.5 254.5a193.893 193.893 0 0 1 12 11.5c62.666 45.05 130.999 56.05 205 33 2-.667 4-.667 6 0l-4.5 4.5a98.167 98.167 0 0 0-6 21c-.667 15-.667 30 0 45 1.184 13.602 4.518 26.602 10 39 21.017 29.494 49.517 46.827 85.5 52 8.781 1.528 17.781 2.195 27 2 6.509 0 12.842-.334 19-1 26.887-2.388 52.887-8.555 78-18.5 30.217-11.336 55.717-29.169 76.5-53.5a421.03 421.03 0 0 1-2 17 90.455 90.455 0 0 0 0 19 112.504 112.504 0 0 0 11 27c9.091 12.426 19.591 23.593 31.5 33.5 44.628 31.541 94.295 46.541 149 45 50.086-6.25 85.586-32.083 106.5-77.5a509.354 509.354 0 0 0 33.5 15.5c29.276 12.11 59.776 18.61 91.5 19.5 40.252 1.14 75.75-11.027 106.5-36.5a420.62 420.62 0 0 0 31.5-37.5c.5-2.31.66-4.643.5-7 4.03 40.885-6.14 77.885-30.5 111-30.64 35.177-69.47 52.51-116.5 52-46.091-1.385-85.091-18.552-117-51.5-3.621-2.09-7.121-1.923-10.5.5-25.467 68.009-74.3 106.842-146.5 116.5-72.029 4.469-126.196-24.365-162.5-86.5-10.192-19.909-17.192-40.909-21-63-4.167-4.44-8.667-4.94-13.5-1.5-43.108 46.006-96.108 64.006-159 54-62.39-13.403-105.557-49.57-129.5-108.5a802 802 0 0 0-7-27 164.64 164.64 0 0 0-2-18c-1.638-2.234-3.805-3.567-6.5-4a448.651 448.651 0 0 0-27-3c-40.203-7.676-72.703-27.676-97.5-60-13.462-19.219-20.629-40.553-21.5-64Z"/><path style="opacity:1" fill="#a9d4f2" d="M964.5 279.5c3.662.223 6.995 1.223 10 3-3.662-.223-6.995-1.223-10-3Z"/><path style="opacity:1" fill="#a2d3f1" d="M134.5 378.5c9.17.743 18.17 1.743 27 3-9.312.529-18.312-.471-27-3Z"/><path style="opacity:1" fill="#e6f3fb" d="M323.5 460.5a699.938 699.938 0 0 0 46 1c-6.158.666-12.491 1-19 1-9.219.195-18.219-.472-27-2Z"/></svg>