<svg id="_Шар_2" data-name="Шар 2" xmlns="http://www.w3.org/2000/svg" viewBox="0 0 516.22 146.61"><defs><style>.cls-1{fill:#fff}.cls-2{fill:#575c6c}</style></defs><g id="_Шар_1-2" data-name="Шар 1"><path class="cls-2" d="M248.16.16h13.76l82.7 68.79 171.6 3.36v74.3H.22V72.47l166-.62L248.16.16z"/><g id="Road_Line" data-name="Road Line"><path class="cls-1" d="m261.3 68.11-2.82-.16-.04-.66L253.79 0l.84.24 6.67 67.87z"/><path class="cls-2" d="m257.54 56.48 2.82.12-.61-5.15-2.64-.11M256.66 45.06l2.82.12-.6-5.15-2.65-.11M255.67 34.42l2.81.12-.6-5.15-2.65-.11M254.68 24.47l2.81.12-.6-5.15-2.65-.11M254.74 14.99l2.82.12-.61-5.15-2.64-.11M253.14 6.28l2.82.12-.65-4.15-2.65-.11"/></g><path class="cls-1" d="M306.68 48.39h10.43l5.37 18.97h-10.43l-5.37-18.97zM286.59 48.39h10.74l3.83 20.11h-8.74l-5.83-20.11zM270.44 48.9h10.53l.72 18.46h-7.06l-4.19-18.46zM235.54 48.9h8.29l.96 18.46h-9.25V48.9zM218.26 48.9h8.29l-1.43 18.46h-7.26l.4-18.46zM198.43 48.9h11.04l-4.5 18.46h-9.1l2.56-18.46zM472.32 101.06l1.14 2.37 20.39.03-1.66-2.61-19.87.21z"/><g id="Zebra"><path class="cls-1" d="m404.06 74.47 2.33 3.02 41.73.06-3.39-3.33-40.67.25zM408.91 80.61l2.32 3.02 41.74.07-3.4-3.33-40.66.24zM413.36 86.93l2.33 4.02 41.73.06-3.4-4.33-40.66.25zM418.97 94.87l2.33 3.02 41.73.07-3.39-3.33-40.67.24zM423.46 101.12l2.33 3.03 41.73.06-3.4-3.33-40.66.24zM428.3 107.26l2.33 3.03 41.73.06-3.39-3.33-40.67.24zM433.29 114.27l2.33 3.03 41.73.06-3.39-3.33-40.67.24zM438.37 120.81l2.33 3.02 41.73.07-3.39-3.33-40.67.24zM446.25 132.01l2.32 3.02 41.74.07-3.4-3.33-40.66.24zM442.42 126.41l2.32 3.02 41.73.07-3.39-3.33-40.66.24zM450.29 137.61l2.33 3.03 41.73.06-3.4-3.33-40.66.24z"/></g><path class="cls-1" d="m499.34 100.64.96 2.37 15.92.03v-2.61l-16.88.21z"/><g id="Zebra-2" data-name="Zebra"><path class="cls-1" d="m115.37 76.42-2.33 3.02H71.31l3.4-3.32 40.66.3zM110.52 82.56l-2.33 3.01H66.45l3.4-3.32 40.67.31zM106.05 88.87l-2.33 4.02H61.99l3.4-4.33 40.66.31zM100.43 96.8l-2.33 3.02H56.36l3.41-3.32 40.66.3zM95.93 103.05l-2.33 3.02H51.87l3.4-3.33 40.66.31zM91.08 109.18l-2.33 3.02H47.01l3.41-3.32 40.66.3zM86.08 116.18l-2.33 3.02H42.01l3.41-3.32 40.66.3zM80.99 122.71l-2.33 3.02H36.93l3.4-3.33 40.66.31zM73.1 133.9l-2.33 3.02H29.03l3.4-3.32 40.67.3zM76.94 128.31l-2.33 3.02H32.87l3.41-3.33 40.66.31zM69.05 139.5l-2.34 3.02H24.98l3.4-3.33 40.67.31z"/></g><path class="cls-1" d="m44.16 101.34-1.13 2.37-20.4.03 1.66-2.61 19.87.21zM16.88 100.92l-.96 2.37-15.92.03v-2.61l16.88.21zM167.85 71.85h-1.63L248.16.16l.25.02-80.56 71.67zM202.76 59.98c3.22 0 3.22-5 0-5s-3.22 5 0 5ZM343.48 69.36h1.63L261.93.1h-.3l81.85 69.26z"/><path class="cls-1" d="m167.85 71.85-.44.59-167.2.52.01-.5 166.04-.61h1.59zM342.93 68.96l.53.46 172.76 3.13v-.24l-171.27-3.39-2.02.04zM.22 146.61v-.91l516-.42v1.33H.22z"/></g></svg>