<svg width="715" height="289" fill="none" xmlns="http://www.w3.org/2000/svg"><path d="M714.892 292.586c1.656 3.302-16.301 0-19.995 0H40.9c-11.182 0-30.884 3.445-40.9-1.781 5.342-2.671 18.99-7.781 24.928-10.684 62.026-30.287 121.222-64.127 177.283-104.893a644.405 644.405 0 0 0 12.58-9.384c31.739-24.305 61.118-51.459 87.444-81.55a597.054 597.054 0 0 0 19.942-24.225 555.511 555.511 0 0 0 5.262-6.855c.89-1.193 1.798-2.395 2.68-3.58l3.24.045h.152l36.359.4 40.446-.035.801-.089c.018.036.125.16.143.196 108.143 148.936 301.852 238.873 303.632 242.435Z" fill="#3D3B38"/><path d="M408.497 50.19c2.76 7.149 7.817 13.185 12.295 19.328 4.674 6.098 9.535 12.045 14.485 17.93 29.726 35.166 62.071 68.249 97.388 97.807 32.193 26.842 67.449 51.236 101.6 75.657 3.063 2.172 6.232 4.255 9.446 6.294 12.865 8.164 26.308 15.518 39.609 23.575l-4.496 7.194c-12.856-8.156-26.264-15.857-39.208-24.448-3.241-2.145-6.464-4.353-9.624-6.695-33.742-25.275-68.41-50.435-100.22-78.176-40.473-35.647-77.25-75.532-109.684-118.604-3.392-4.683-6.739-9.41-9.57-14.45-.926-1.691-1.816-3.418-2.377-5.297l.356-.115ZM334.137 50.233c-18.794 26.095-38.362 51.78-60.068 75.541-22.052 23.513-44.968 46.313-70.306 66.318-37.694 30.118-79.743 54.842-120.331 80.705-13.595 8.627-27.154 17.289-41.345 25.293l-4.06-7.443c13.987-7.523 27.706-15.901 41.425-24.234 40.891-24.928 83.51-48.734 121.552-77.864 19.203-14.468 37.053-30.635 54.271-47.426 11.521-11.173 22.783-22.613 33.306-34.73 15.598-18.349 30.947-36.983 45.254-56.373 0-.01.302.213.302.213ZM362.297 290.32l.258-8.912 11.289.098.116 8.903-11.663-.089ZM362.957 268.31l.614-17.476 10.025.178.116 17.423-10.755-.125ZM364.086 237.747l.677-17.423 8.76.143.045 17.467-9.482-.187ZM365.219 207.255l.534-17.423 7.496.054.187 17.467-8.217-.098ZM366.051 176.754l.267-17.432h6.588l.205 17.468-7.06-.036ZM366.512 146.227l.338-17.467 5.751.053.143 17.432-6.232-.018ZM367.207 115.67l.267-17.432 4.923.018.205 17.468-5.395-.054ZM367.891 85.075c.302-5.859.819-11.752 1.789-17.593l4.042.615c-.783 5.662-1.122 11.395-1.264 17.156l-4.567-.178ZM372.758 54.481c1.816-5.68 4.318-11.164 7.567-16.176l2.76 1.736c-2.947 4.843-5.172 10.087-6.757 15.535l-3.57-1.095ZM388.715 27.88c1.095-1.023 2.101-2.065 3.258-3.08a37.336 37.336 0 0 1 3.633-2.707c2.501-1.655 5.119-3.053 7.772-4.335l1.086 2.172c-2.546 1.318-5.039 2.742-7.354 4.372a33.9 33.9 0 0 0-3.294 2.6c-1.006.925-2.003 2.011-3.009 3l-2.092-2.022ZM415.594 12.738a160.56 160.56 0 0 1 16.844-4.924l.383 1.55a157.672 157.672 0 0 0-16.506 5.323l-.721-1.95ZM445.352 5.428a564.793 564.793 0 0 1 17.289-2.492l.098.667a558.597 558.597 0 0 0-17.174 3.01l-.213-1.185ZM475.633 1.394l8.858-.953-8.823 1.22-.035-.267Z" fill="#fff"/></svg>