<svg width="209" height="85" fill="none" xmlns="http://www.w3.org/2000/svg"><path d="M0 57.043c7.252-8.82 14.622-17.142 26.243-26.035 10.67-8.167 24.466-17.005 55.132-22.889C110.13 2.6 145.926.577 200.533.713c-2.801 10.325 27.866 24.385-12.808 17.804-32.163-5.203-14.024-7.587-45.633 1.505-13.344 3.834-27.004 5.756-40.157 10.479-7.724 2.773-16.354 7.442-18.72 17.041-.788 3.2-.879 6.563-.616 9.854.58 7.143 2.9 16.045 7.75 27.458C77.823 55.402 28.773 59.318 0 57.043Z" fill="#3D3B38"/><path d="M3.723 57.507c6.463-8.73 14.25-16.353 22.29-23.596 13.724-11.866 30.92-19 48.416-23.17 28.21-6.3 57.281-7.56 86.08-8.475-28.781.979-57.861 2.302-86.035 8.657-17.468 4.206-34.592 11.349-48.261 23.215C18.217 41.38 10.44 49.022 4.022 57.734c0-.01-.3-.227-.3-.227Z" fill="#FCF9F9"/></svg>