<svg width="1920" height="1711" fill="none" xmlns="http://www.w3.org/2000/svg"><g clip-path="url('#clip0_131_3905')"><path fill="#fff" d="M0 0h1920v1711H0z"/><path d="M1921 0H0v1711h1921V0Z" fill="#96C22F"/><path d="M-191.221 260.343S70.029 164.87 306.267 227.9c236.237 63.031 447.146 51.695 882.873 26.881 227.9-12.977 747.63-66.738 894-86.204 146.37-19.465 280.71 49.127 280.71 49.127v547.811s-269.59 26.88-528.06 0c-258.48-26.881-895.852 136.257-1144.133 128.842C443.377 886.941-194 635.746-194 635.746l2.779-375.403Z" fill="#7FA024"/><path opacity=".21" d="M-191.221 331.713s255.692-96.4 491.929-33.369c236.237 63.031 356.987 81.625 791.162 126.061 443.76 45.419 922.71-140.892 1069.09-160.357 146.37-19.466 202.89 12.977 202.89 12.977v805.495H-194l2.779-750.807Z" fill="#305937"/><path opacity=".21" d="M-191.221 443.871s232.532-88.298 474.327-51.907c314.057 47.273 359.451 237.291 793.014 287.345 433.57 50.054 752.13-235.54 949.58-287.345 208.45-54.689 338.15-31.516 338.15-31.516v722.072H-194l2.779-638.649Z" fill="#305937"/><path d="M-193.398 943.623s282.882-84.489 501.518-49.266c218.635 35.223 574.38 115.863 768.93 113.083 194.55-2.78 785.6-87.129 962.55-85.275 176.94 1.854 324.25 67.86 324.25 67.86v92.495H-194l.602-138.897Z" fill="#96C22F"/><path d="M252.067 230.147s-23.278-20.516-15.066-27.355c8.211-6.838 20.505 10.952 20.505 10.952s-21.902-35.61-4.101-43.826c17.8-8.217 27.34 36.978 27.34 36.978s-12.323-78.079 20.505-80.815c32.828-2.735 19.265 69.873 19.265 69.873s5.478-42.469 20.505-38.356c15.028 4.113 0 41.091 0 41.091s15.067-30.129 23.278-26.026c8.212 4.103-15.056 46.572-15.056 46.572s15.056-17.801 21.901-13.678c6.845 4.123-13.67 24.659-13.67 24.659l-105.406-.069ZM53.431 265.042s-39.438-17.087-31.333-27.413c8.104-10.327 27.203 8.968 27.203 8.968s-35.562-30.13-24.343-41.199C40.377 190.119 65.11 232.47 65.11 232.47s-35.268-61.041-18.474-68.045c21.911-9.106 36.91 61.988 36.91 61.988s-7.324-30.501 5.917-32.601c18.816-2.98 14.363 43.836 14.363 43.836s2.724-22.353 11.229-20.291c14.559 3.526-1.289 27.247-1.289 27.247l-60.334 20.438ZM486.87 263.647s-28.854-24.17-20.691-32.894c8.163-8.725 24.021 12.202 24.021 12.202s-20.896-47.099-7.392-52.688c13.504-5.588 33.999 42.654 33.999 42.654s-15.915-46.65 1.768-49.502c17.683-2.853 18.952 48.994 18.952 48.994s10.136-73.584 35.006-67.508c24.869 6.077-16.395 84.253-16.395 84.253s17.234-27.423 28.248-18.454c11.015 8.968-15.876 42.009-15.876 42.009s19.021-17.8 24.655-8.128-25.31 28.488-25.31 28.488l-80.985-29.426ZM1849.77 204.462s-30.99-13.426-24.62-21.54c6.37-8.114 21.38 7.046 21.38 7.046s-27.95-23.65-19.14-32.371c12.12-12.006 31.55 21.271 31.55 21.271s-27.74-47.962-14.51-53.466c17.22-7.154 29 48.707 29 48.707s-5.75-23.966 4.65-25.616c14.79-2.341 11.29 34.444 11.29 34.444s2.14-17.564 8.82-15.944c11.44 2.771-1.01 21.409-1.01 21.409l-47.41 16.06ZM1950.32 211.401s-27.62-10.493-23.84-19.075c3.78-8.582 20.98 2.855 20.98 2.855s-27.62-29.569-19.07-37.2c8.56-7.63 36.23 22.892 36.23 22.892s-23.84-30.522-11.44-37.2c12.4-6.679 26.69 31.473 26.69 31.473s-11.44-57.235 8.58-59.108c20.02-1.873 9.54 66.784 9.54 66.784s5.71-24.802 16.2-20.987c10.49 3.815-.95 35.311-.95 35.311s9.54-18.123 16.2-12.397c6.67 5.727-11.44 27.635-11.44 27.635l-67.68-.983ZM1722.15 233.749s-31.9-16.251-26.66-26.476c5.24-10.225 28.28 4.353 28.28 4.353s-33.84-29.554-24.23-38.674c16.44-15.606 44.37 24.695 44.37 24.695s-29.27-48.991-11.3-58.033c17.97-9.043 30.69 47.417 30.69 47.417s-4.44-16.697 5.13-18.37c9.58-1.673 15.15 25.831 15.15 25.831s-1.77-17.732 5.48-17.487c7.25.246 5.93 28.403 5.93 28.403l-72.84 28.341ZM1581.3 233.431s18.72-28.118 8.96-31.473c-9.76-3.355-14.11 17.533-14.11 17.533s10.61-35.043-1.53-37.576c-16.7-3.493-14.93 35.005-14.93 35.005s-2.77-55.347-16.88-52.768c-18.35 3.354 2.1 56.659 2.1 56.659s-8.19-23.252-17.82-18.976c-13.68 6.072 9.21 35.051 9.21 35.051s-11.33-13.58-16.06-8.59c-8.04 8.513 12.55 17.417 12.55 17.417l48.51-12.282Z" fill="#7FA024"/><path opacity=".21" d="M1686.06 393.641s33.06-4.952 27.71-12.666c-5.36-7.715-20.06 6.755-20.06 6.755s21.59-34.237 11.73-40.117c-9.85-5.88-31.28 29.293-31.28 29.293s17.65-34.459 4.25-38.689c-13.39-4.23-20.3 35.933-20.3 35.933s.48-58.34-19.54-56.467c-20.01 1.873 3.18 67.375 3.18 67.375s-10.28-23.282-19.86-17.563c-9.59 5.719 7.57 34.482 7.57 34.482s-12.78-16.005-18.25-9.135c-5.48 6.871 24.98 14.586 24.98 14.586l49.87-13.787Z" fill="#305937"/><path d="M1728.12 774.736s-23.57-24.196-14.58-29.278c9-5.082 17.1 14.639 17.1 14.639s-16.88-32.494-5.37-37.215c15.76-6.502 21.1 31.665 21.1 31.665s-7.45-54.909 6.91-54.971c18.64-.069 8.33 56.084 8.33 56.084s3.78-24.357 14.02-21.931c14.58 3.454-2.63 36.155-2.63 36.155s8.64-15.437 14.21-11.399c9.53 6.909-9.07 19.421-9.07 19.421l-50.02-3.17Z" fill="#709936"/><path d="M1799.16 783.192s-27.62-10.493-23.84-19.075c3.79-8.582 20.98 2.855 20.98 2.855s-27.62-29.569-19.07-37.2c8.56-7.63 36.23 22.892 36.23 22.892s-23.83-30.522-11.44-37.2c12.4-6.679 26.7 31.473 26.7 31.473s-11.44-57.235 8.57-59.108c20.02-1.873 9.54 66.784 9.54 66.784s5.72-24.802 16.2-20.987c10.49 3.815-.95 35.311-.95 35.311s9.54-18.123 16.21-12.397c6.66 5.727-11.44 27.635-11.44 27.635l-67.69-.983ZM1486.67 795.79s-25.21-25.408-17.04-33.484c8.17-8.076 25.5 12.981 25.5 12.981s-22.91-38.659-10.93-44.316c20.49-9.68 34.43 37.338 34.43 37.338s-12.49-55.692 7.41-58.656c19.89-2.963 14.34 54.641 14.34 54.641s.99-17.249 10.61-15.844c9.62 1.405 6.33 29.278 6.33 29.278s3.83-17.403 10.67-14.892c6.83 2.51-3.26 28.824-3.26 28.824l-78.06 4.13Z" fill="#709936"/><path d="M1782.82 949.126s19.27-30.169 9.59-36.333c-9.69-6.164-22.2 18.078-22.2 18.078s14.23-42.627 1.33-45.628c-22.07-5.128-25.77 43.755-25.77 43.755s.45-57.081-19.62-55.769c-20.07 1.313-2.48 56.437-2.48 56.437s-4.6-16.643-13.73-13.242c-9.12 3.401 0 29.938 0 29.938s-7.44-16.19-13.58-12.282c-6.13 3.907 9.27 27.497 9.27 27.497l77.19-12.451ZM1511.04 969.778s-28.38-8.19-25.31-17.056c3.06-8.867 21.13 1.128 21.13 1.128s-29.98-27.198-22.06-35.511c7.93-8.314 37.99 19.843 37.99 19.843s-26.25-28.464-14.45-36.132c11.81-7.669 29.16 29.17 29.16 29.17s-16.11-56.099 3.7-59.638c19.82-3.539 14.98 65.764 14.98 65.764s3.67-25.186 14.43-22.262c10.76 2.925 1.94 35.25 1.94 35.25s8.02-18.845 15.14-13.687c7.12 5.159-9.14 28.51-9.14 28.51l-67.51 4.621Z" fill="#96C22F"/><path d="m25 638.023 160.139-42.946 21.529 47.149 177.821-68.863-9.187 36.407 116.264 29.371 15.275 58.671 22.143-10.491-13.286 52.651-56.932 29.103-36.285-52.658-161.862 21.06-78.681-50.266-67.953 13.214-9.383-42.286L25 638.023Z" fill="#776B67"/><path d="m25 638.021 149.874-19.919 20.703 41.577 164.521-60.308-8.275 59.269 123.61.252 19.264 56.105 29.764-9.751-13.286 52.643-52.409 11.183-36.285-52.658-161.862 21.06-78.681-50.266-67.953 13.214-9.383-42.285L25 638.021Z" fill="#847D7B"/><path d="M313.246 833.695s31.616-13.501 26.755-23.289c-4.86-9.789-24.222 4.319-24.222 4.319s30.706-35.693 20.379-44.107c-10.328-8.415-41.025 28.304-41.025 28.304s26.229-36.585 11.523-43.723c-14.706-7.139-29.511 37.824-29.511 37.824s10.568-67.012-12.771-68.279c-23.339-1.268-7.91 78.006-7.91 78.006s-7.813-28.554-19.817-23.602c-12.004 4.952 2.783 40.939 2.783 40.939s-11.933-20.594-19.416-13.634c-7.482 6.96 14.6 31.588 14.6 31.588l78.632-4.346ZM15.688 750.804s36.261-20.39 29.698-32.017c-6.564-11.626-32.641 6.398-32.641 6.398s37.902-35.933 26.309-46.07c-19.826-17.355-50.362 30.83-50.362 30.83S20.36 651.65-.936 642.004s-33.408 56.528-33.408 56.528 4.361-19.631-6.84-21.095c-11.202-1.463-16.375 30.723-16.375 30.723s1.222-20.684-7.188-20.051c-8.41.634-5.538 33.266-5.538 33.266l85.973 29.429ZM97.443 773.025s-23.08-31.766-11.906-36.121c11.175-4.354 17.221 19.693 17.221 19.693s-13.992-40.199 0-43.723c19.219-4.845 19.005 39.949 19.005 39.949s.58-64.416 17.07-62.088c21.466 3.025.241 65.907.241 65.907s8.41-27.394 19.798-22.888c16.178 6.407-9.061 41.144-9.061 41.144s12.486-16.311 18.247-10.707c9.81 9.538-13.663 20.827-13.663 20.827l-56.952-11.993ZM399.365 845.352s-29.984-16.811-24.133-26.02c5.85-9.208 23.624 6.889 23.624 6.889s-26.71-38.744-15.536-46.043c11.175-7.299 37.716 32.543 37.716 32.543s-22.162-39.182-6.76-44.733c15.402-5.55 25.283 40.771 25.283 40.771s-3.335-67.763 20.013-66.513c23.348 1.249-.499 78.398-.499 78.398s10.835-27.528 22.233-21.335c11.398 6.192-7.135 40.404-7.135 40.404s14.074-19.194 20.762-11.466c6.689 7.727-17.899 29.839-17.899 29.839l-77.669-12.734Z" fill="#709936"/><path d="M131.303 912.07s18.705-29.278 9.308-35.261c-9.397-5.982-21.541 17.545-21.541 17.545s13.812-41.37 1.295-44.283c-21.422-4.976-25.01 42.466-25.01 42.466s.431-55.399-19.048-54.125c-19.478 1.274-2.405 54.772-2.405 54.772s-4.467-16.151-13.32-12.851c-8.854 3.301 0 29.055 0 29.055s-7.223-15.712-13.18-11.92 8.995 26.686 8.995 26.686l74.906-12.084Z" fill="#96C22F"/></g><defs><clipPath id="clip0_131_3905"><path fill="#fff" d="M0 0h1920v1711H0z"/></clipPath></defs></svg>