<svg width="1920" height="608" fill="none" xmlns="http://www.w3.org/2000/svg"><g clip-path="url('#clip0_131_3356')"><path fill="#fff" d="M0 0h1920v608H0z"/><path d="M1921 0H0v2401h1921V0Z" fill="#96C22F"/><path d="M1922 94s-76 103.557-215.44 86.461c-139.44-17.095-252.39-45.43-321.41-14.655-69.03 30.775-163.15 95.253-292.13 94.277-128.988-.976-161.06-21.495-287.255-47.383-126.195-25.887-231.474 67.895-306.773 68.878-75.299.976-78.088-106.485-237.052-133.844C102.976 120.376-3 157.502-3 157.502l1.046 113.081s194.522-48.359 289.342 5.375c94.821 53.734 77.391 126.516-14.641 112.349C180.715 374.14-1.257 360.955-1.257 360.955l-1.394 104.533s165.936-55.686 264.243.976c98.306 56.663 255.925-69.017 297.709-99.157 93.775-67.651 186.852-78.646 290.737-53.246 103.884 25.399 495.482 39.232 576.942 17.827 206.37-54.222 231.72-4.734 304.33 31.995 115.39 58.371 190.34 30.287 190.34 30.287L1922 94Z" fill="#8DB0C6"/><path opacity=".62" d="M1922 151.15s-78.09 74.734-217.53 57.639c-139.44-17.096-241.93-50.311-310.96-19.536-69.02 30.775-160.35 87.437-289.34 86.461-128.983-.976-174.999-20.024-301.194-45.918-126.195-25.895-236.354 70.83-311.653 71.806-75.299.976-87.152-99.646-246.116-127.004C86.243 147.239-3 176.062-3 176.062l1.394 77.181s223.108-30.775 317.929 22.959c94.82 53.734 32.071 141.653-38.347 131.397C185.721 394.163-.908 375.848-.908 375.848l-1.395 72.293s171.514-50.31 269.821 6.352c98.307 56.662 241.284-80.249 283.068-110.396 93.775-67.651 197.31-69.854 301.195-44.448 103.884 25.407 460.269 18.958 541.729-2.44 206.38-54.222 275.3-3.026 347.91 33.703 115.39 58.371 180.58 27.84 180.58 27.84V151.15Z" fill="#7A94A5"/><path d="M1696.78 430.414c-.56 0-1.02.562-1.04 0-.02-.555-1.54-61.455 0-86.685 1.54-25.179 7.22-110.386 7.28-111.241a1.04 1.04 0 0 1 1.1-.966c.58.037 1.01.536.97 1.104-.06.86-5.74 86.055-7.28 111.228-1.54 25.13-.01 85.999 0 86.554.02.574-.44-.018-1.01 0 0 .007-.01.006-.02.006Z" fill="#EAB83D"/><path d="M1723.81 309.488c-13.51 18.711-23.39 120.927-23.39 120.927h-11.95s9.87-99.091 35.34-120.927Z" fill="#7FA024"/><path d="M1682.23 328.723c12.47 13.516 18.19 101.692 18.19 101.692h-11.95s3.63-68.946-6.24-101.692Z" fill="#7FA024"/><path d="M1742.53 361.468c-37.43 10.397-36.39 68.946-36.39 68.946h-11.18c.01 0 2.35-73.106 47.57-68.946Z" fill="#7FA024"/><path d="M1662.48 387.977c29.11 5.195 34.56 42.438 34.56 42.438h-14.81s0-27.363-19.75-42.438Z" fill="#7FA024"/><path d="M1708.22 245.03c1.39 3.705.52 32.227-1.04 37.423-1.56 5.196-8.84 7.797-11.43 1.042-2.6-6.755-.52-30.151 1.04-35.864 1.55-5.72 9.87-6.755 11.43-2.601Z" fill="#4E5E0B"/><path d="M1690.23 330.829c-12.99 23.913-11.96 92.853-11.96 92.853h-14.03c0 .006 1.04-79.855 25.99-92.853ZM1636.17 349.545c15.59 9.356 28.07 74.142 28.07 74.142h-14.03s-2.09-49.193-14.04-74.142Z" fill="#7FA024"/><path d="M1663.21 423.689c-.19-1.123-18.74-117.659-22.82-128.35-.2-.536.07-1.135.6-1.341.54-.206 1.14.062 1.34.599 2.82 7.397 12.04 59.553 17.9 93.696-2.38-24.531-5.47-57.664-6.39-73.513-1.54-26.751-1.05-102.739-1.04-103.506.01-.574.47-1.036 1.04-1.036h.01c.57.007 1.03.474 1.03 1.048 0 .761-.5 76.687 1.04 103.376 1.54 26.695 9.27 108.266 9.35 109.027h-2.06ZM1669.43 423.689c-.43 0-.83.43-.98 0-7.27-21.288 4.64-136.134 5.14-140.793.07-.568.58-.979 1.15-.923.57.062.99.574.92 1.148-.12 1.135-12.36 119.711-5.24 140.562.19.542-.11-.187-.65 0-.11.043-.22.006-.34.006Z" fill="#EAB83D"/><path d="M1660.08 224.271c2.2 4.959 1.04 33.269 0 40.024-1.04 6.755-11.96 9.356-13.52 0-1.55-9.356-.51-32.745 1.05-38.465 1.56-5.719 10.39-6.237 12.47-1.559ZM1677.23 294.447c0 6.836-2.08 24.948-2.6 31.71-.52 6.755-9.87 9.873-10.4 1.041-.52-8.838 3.12-28.591 4.68-32.745 1.56-4.154 8.32-3.649 8.32-.006ZM1647.09 305.881c2.35 2.351 7.28 22.872 7.79 31.186.46 7.279-6.75 10.915-10.39 4.16-3.65-6.755-6.76-24.949-6.24-30.151.52-5.196 6.24-7.79 8.84-5.195Z" fill="#4E5E0B"/><path d="M1677.23 321.997c-6.75 18.194-7.53 101.691-7.53 101.691h-12.22s1.04-91.3 19.75-101.691ZM1913 409.595c-57.07-11.62-76.36 50.21-76.36 50.21l18.36 2.077c0-.007 11.58-46.923 58-52.287Z" fill="#7FA024"/><path d="M1910.73 367.168c-53.28 8.128-81.59 91.787-81.59 91.787l14.39 1.628c0-.006 15.66-68.229 67.2-93.415Z" fill="#7FA024"/><path d="M1763.17 366.271c55.53-.256 69.6 93.09 69.6 93.09l-16.03-1.809s-9.2-71.572-53.57-91.281Z" fill="#7FA024"/><path d="M1770.02 412.207c47.8-15.275 53.95 46.162 53.95 46.162l-14.47-1.634s-4.84-40.617-39.48-44.528Z" fill="#7FA024"/><path d="m1826.89 458.7-1.05-.118c-.16-.767-15.3-80.679-12.9-120.36 2.41-39.563 3.64-50.684 3.65-50.79.07-.592.58-1.023 1.15-.96.58.062.98.599.91 1.191-.01.106-1.24 11.202-3.63 50.678-2.11 34.635 8.78 105.066 11.74 120.341l56.24-142.29c.22-.549.83-.811 1.36-.58.53.231.77.861.55 1.416L1826.89 458.7Z" fill="#EAB83D"/><path d="M1829.15 458.955c-.53-.062-1.04.443-1.03-.118.01-.717 1.73-75.508 6.1-100.382 4.41-25.074 19.04-108.297 19.04-108.297l2.05.368s-14.64 83.223-19.04 108.297c-4.34 24.7-6.08 99.528-6.1 100.245-.01.599-.35-.1-.92-.106-.04 0-.07-.007-.1-.007Z" fill="#EAB83D"/><path d="M1846.23 261.404c1.79-5.346 10.04-5.396 10.98.149.94 5.545-5.14 36.881-6.29 41.727-2 8.477-12.79 6.718-12.59.212.28-8.389 6.33-37.373 7.9-42.088ZM1820.48 299.294c1.82 2.882-.21 34.255-1.09 37.417-.87 3.162-8.42 5.033-9.42.025s.69-29.303 1.76-34.08c1.06-4.772 6.53-6.874 8.75-3.362ZM1884.81 327.786c-1.23 5.813-10.18 29.864-12.74 33.924-2.55 4.067-10.76 2.595-10.09-3.318.66-5.906 9.54-28.847 12.09-32.907 2.55-4.061 11.86-3.013 10.74 2.301Z" fill="#4E5E0B"/><path d="M1851.02 334.846c5.15 23.976-14.38 124.95-14.38 124.95l-12.67-1.428s14.38-99.378 27.05-123.522Z" fill="#7FA024"/><path d="M1824.84 339.505c8.22 19.972 7.69 119.83 7.69 119.83l-10.62-1.197c0-.007-10.35-89.118 2.93-118.633ZM1605.13 316.652c-15.35 22.473-21.28 91.176-21.28 91.176l-13.96-1.416c0-.006 9.1-79.35 35.24-89.76ZM1549.45 329.806c14.57 10.884 20.44 76.599 20.44 76.599l-13.97-1.415s2.9-49.15-6.47-75.184Z" fill="#7FA024"/><path d="M1568.86 406.306c-.07-1.135-6.75-118.95-9.73-130.003-.15-.555.18-1.123.74-1.272.55-.15 1.12.181 1.27.736 2.06 7.64 5.95 60.463 8.33 95.024.11-24.643.38-57.925 1.08-73.78 1.16-26.77 9.34-102.322 9.42-103.083.06-.567.57-.979 1.14-.923h.01c.57.062.98.574.92 1.148-.08.761-8.24 76.244-9.41 102.951-1.17 26.714-1.72 108.647-1.72 109.42l-2.05-.218ZM1575.06 406.93c-.43-.044-.88.343-.98-.1-5.09-21.911 18.37-134.967 19.34-139.552.12-.561.67-.917 1.24-.798.56.118.92.673.8 1.235-.24 1.116-24.4 117.852-19.42 139.314.13.562-.09-.193-.65-.062-.12.025-.23-.025-.33-.037Z" fill="#EAB83D"/><path d="M1585.9 207.596c1.69 5.158-2.33 33.2-4.04 39.818-1.72 6.618-12.84 8.102-13.45-1.366-.6-9.468 2.8-32.633 4.92-38.165 2.13-5.527 10.97-5.152 12.57-.287ZM1595.87 279.142c-.69 6.805-4.59 24.612-5.79 31.286-1.19 6.674-10.82 8.826-10.44-.019.37-8.844 5.99-28.13 7.96-32.109 1.97-3.979 8.64-2.782 8.27.842ZM1564.72 287.468c2.1 2.582 4.93 23.489 4.61 31.816-.28 7.291-7.83 10.179-10.77 3.088-2.94-7.092-4.2-25.505-3.16-30.625 1.05-5.115 7-7.123 9.32-4.279Z" fill="#4E5E0B"/><path d="M1593.09 306.547c-8.56 17.415-17.78 100.413-17.78 100.413l-12.15-1.235s10.26-90.726 29.93-99.178ZM1672 99.942c-7.98 17.107-4.33 64.793-4.33 64.793l-9.72.597s-2.67-55.333 14.05-65.39Z" fill="#7FA024"/><path d="M1635.37 115.194c11.19 5.817 22.58 50.136 22.58 50.136l-9.72.596s-3.52-33.97-12.86-50.732Z" fill="#7FA024"/><path d="M1657.25 165.378c-.18-.769-17.98-80.66-21.26-87.89a.723.723 0 0 1 .36-.958c.36-.165.79 0 .95.36 2.27 5.002 10.87 40.724 16.37 64.112-2.69-16.88-6.24-39.695-7.54-50.623-2.21-18.458-5.1-71.09-5.13-71.616a.733.733 0 0 1 .68-.762h.01c.4-.023.73.283.76.683.03.526 2.91 53.112 5.12 71.522 2.19 18.418 11.02 74.56 11.11 75.086l-1.43.086ZM1661.55 165.113c-.3.016-.56.338-.69.039-5.93-14.429-2.57-94.446-2.42-97.696.01-.4.35-.707.75-.683.4.016.71.353.69.753-.04.793-3.47 83.408 2.34 97.54.15.369-.08-.126-.44.024-.08.039-.15.015-.23.023Z" fill="#EAB83D"/><path d="M1646.59 27.447c1.74 3.336 2.14 22.987 1.71 27.713-.43 4.727-7.89 6.988-9.36.574-1.48-6.415-1.75-22.65-.92-26.678.83-4.027 6.93-4.758 8.57-1.61ZM1661.45 75.299c.29 4.734-.37 17.366-.44 22.06-.07 4.703-6.42 7.255-7.16 1.163-.73-6.093.95-19.926 1.85-22.87.89-2.944 5.6-2.874 5.75-.353ZM1641.06 84.5c1.73 1.53 6.02 15.529 6.73 21.26.63 5.024-4.21 7.843-7.02 3.321-2.8-4.522-5.73-16.99-5.59-20.609.13-3.62 3.98-5.66 5.88-3.972Z" fill="#4E5E0B"/><path d="M1662.63 94.375c-3.91 12.883-.9 70.729-.9 70.729l-8.46.518s-3.16-63.255 9.36-71.247ZM1496.03 123.604c-40.76-3.471-49.35 39.537-49.35 39.537h12.97c0-.008 4.39-32.409 36.38-39.537Z" fill="#7FA024"/><path d="M1491.09 95.269c-36.56 9.507-49.72 67.863-49.72 67.863h10.18s5.55-47.027 39.54-67.863Z" fill="#7FA024"/><path d="M1388 105.867c38.75-4.388 55.94 57.265 55.94 57.265h-11.34s-12.07-47.396-44.6-57.265Z" fill="#7FA024"/><path d="M1396.41 136.212c32.17-13.896 41.31 26.92 41.31 26.92h-10.24s-6.58-26.92-31.07-26.92Z" fill="#7FA024"/><path d="M1439.78 163.132h-.74c-.17-.502-17.05-53.048-18.5-79.89-1.44-26.764-1.46-34.332-1.46-34.403 0-.4.33-.73.73-.73.4 0 .73.33.73.73 0 .07.02 7.623 1.46 34.324 1.27 23.435 14.42 69.928 17.7 79.969l28.03-99.879a.74.74 0 0 1 .91-.494c.39.117.61.518.5.91l-29.36 99.463Z" fill="#EAB83D"/><path d="M1441.37 163.133c-.37 0-.69.377-.73 0-.05-.487-4.74-50.866-3.66-67.91l4.75-74.215 1.46.094s-3.66 57.029-4.75 74.215c-1.08 16.926 3.6 67.337 3.65 67.816.04.4-.25-.04-.66 0h-.06Z" fill="#EAB83D"/><path d="M1437.72 29.094c.82-3.729 6.58-4.388 7.68-.73 1.1 3.659-.68 25.17-1.1 28.515-.73 5.849-8.41 5.48-8.78 1.099-.47-5.653 1.47-25.594 2.2-28.884ZM1422.73 56.518c1.5 1.798 2.56 23.035 2.19 25.225-.36 2.19-5.48 4.02-6.57.73-1.1-3.29-1.83-19.745-1.46-23.035.36-3.289 4.01-5.118 5.84-2.92ZM1469.89 70.775c-.4 4.004-4.75 20.837-6.21 23.765-1.47 2.928-7.31 2.56-7.31-1.46s4.38-20.106 5.85-23.035c1.46-2.928 8.03-2.928 7.67.73Z" fill="#4E5E0B"/><path d="M1446.86 78.083c5.48 15.718-.18 85.049-.18 85.049h-8.96s2.19-67.863 9.14-85.049Z" fill="#7FA024"/><path d="M1428.94 83.204c7.31 12.797 14.83 79.93 14.83 79.93h-7.51s-14.26-59.094-7.32-79.93Z" fill="#7FA024"/><path d="M1421.61 402.923c-.55.106-.9.742-1.02.193-.12-.542-12.96-60.095-16.14-85.163-3.18-25.03-13.47-109.8-13.57-110.654a1.05 1.05 0 0 1 .9-1.161c.57-.068 1.09.337 1.17.905.1.854 10.39 85.618 13.56 110.642 3.17 24.98 16.01 84.496 16.12 85.038.13.562-.43.063-.99.187-.01.013-.02.013-.03.013Z" fill="#EAB83D"/><path d="M1425.64 279.082c-9.79 20.901-.46 123.166-.46 123.166l-11.74 2.227c0-.006-8.75-99.203 12.2-125.393Z" fill="#7FA024"/><path d="M1388.37 305.722c14.78 10.953 36.81 96.527 36.81 96.527l-11.74 2.227c0-.006-9.27-68.422-25.07-98.754Z" fill="#7FA024"/><path d="M1453.71 326.666c-34.83 17.183-22.91 74.516-22.91 74.516l-10.98 2.083c0-.006-11.32-72.265 33.89-76.599Z" fill="#7FA024"/><path d="M1380 367.62c29.56-.312 41.86 35.252 41.86 35.252l-14.55 2.757c0 .006-5.1-26.876-27.31-38.009Z" fill="#7FA024"/><path d="M1398.32 218.656c2.06 3.38 6.51 31.566 5.95 36.962-.56 5.395-7.23 9.306-11.04 3.149-3.81-6.156-6.12-29.527-5.66-35.433.47-5.901 8.44-8.471 10.75-4.678Z" fill="#4E5E0B"/><path d="M1589.23 348.009c-57.95-4.94-70.17 56.21-70.17 56.21h18.45c.01 0 6.24-46.075 51.72-56.21Z" fill="#7FA024"/><path d="M1582.22 307.721c-51.99 13.516-70.7 96.496-70.7 96.496h14.47s7.89-66.863 56.23-96.496Z" fill="#7FA024"/><path d="M1435.64 322.796c55.1-6.237 79.53 81.421 79.53 81.421h-16.11c-.01 0-17.16-67.387-63.42-81.421Z" fill="#7FA024"/><path d="M1447.59 365.94c45.74-19.753 58.74 38.278 58.74 38.278h-14.56s-9.36-38.278-44.18-38.278Z" fill="#7FA024"/><path d="M1509.26 404.22h-1.05c-.25-.717-24.24-75.427-26.3-113.592-2.06-38.054-2.09-48.813-2.09-48.919a1.045 1.045 0 0 1 2.09 0c0 .106.02 10.84 2.07 48.806 1.81 33.32 20.51 99.428 25.16 113.705L1549 262.211a1.04 1.04 0 0 1 1.29-.705c.55.162.87.742.71 1.291l-41.74 141.423Z" fill="#EAB83D"/><path d="M1511.53 404.219c-.53 0-.98.536-1.04 0-.07-.687-6.75-72.327-5.2-96.559 1.56-24.431 6.75-105.521 6.75-105.521l2.08.131s-5.19 81.09-6.75 105.521c-1.54 24.069 5.12 95.741 5.19 96.428.06.573-.36-.057-.93 0-.04.006-.07 0-.1 0Z" fill="#EAB83D"/><path d="M1506.33 213.639c1.18-5.295 9.36-6.237 10.91-1.041 1.56 5.195-.96 35.789-1.55 40.542-1.05 8.314-11.96 7.796-12.48 1.559-.67-8.04 2.08-36.382 3.12-41.06ZM1485.02 252.623c2.13 2.557 3.63 32.745 3.12 35.864-.52 3.118-7.8 5.719-9.36 1.041-1.56-4.678-2.6-28.067-2.08-32.745.52-4.678 5.72-7.279 8.32-4.16ZM1552.07 272.899c-.56 5.689-6.75 29.627-8.83 33.787-2.08 4.161-10.4 3.637-10.4-2.076 0-5.714 6.24-28.592 8.31-32.746 2.09-4.166 11.44-4.166 10.92 1.035Z" fill="#4E5E0B"/><path d="M1519.32 283.29c7.8 22.354-.26 120.927-.26 120.927h-12.74c.01 0 3.13-96.496 13-120.927Z" fill="#7FA024"/><path d="M1493.85 290.569c10.4 18.194 21.07 113.649 21.07 113.649h-10.68c.01 0-20.27-84.022-10.39-113.649ZM241 320.17c20.732 9.294 19.302 19.303 20.732 20.733 1.43 1.429 22.877 2.859 25.022 0 2.144-2.86.714-13.584 13.583-26.452-12.154 3.575-18.588 16.443-18.588 16.443s2.145-18.587 13.583-35.03c-15.013 7.864-21.447 25.736-21.447 25.736-3.574-8.579-7.149-22.162-22.876-33.6 13.583 22.877 13.583 39.319 13.583 39.319s-8.579-9.293-23.592-7.149ZM130.672 528.85c-.564-7.367-13.596-6.23-13.596 3.401-3.401-5.666-18.698-3.401-15.87 6.802-14.733.564-11.904 18.699-1.7 16.434-10.204 6.23-1.137 18.699 6.23 11.896-2.265 9.631 13.032 10.204 15.297 2.837 1.136 6.803 17.57 9.631 16.997-2.264 3.402 7.93 15.87 4.529 13.597-5.666 6.23 4.529 17.57-8.503 3.965-14.733 9.067-8.503-1.137-20.963-9.631-13.597 4.546-8.512-10.187-15.878-15.289-5.11Z" fill="#7FA024"/><path d="M115.377 553.215c.863 4.033 23.8 4.529 21.535-3.966-2.273-8.503-23.236-3.965-21.535 3.966Z" fill="#C1D375"/><path d="M1608.2 473.868c-7.1 11.04-7.89 29.965-8.68 32.331-.78 2.365-22.86 3.942-24.44 0-1.58-3.943-4.73-14.194-22.08-24.445 14.19 0 27.6 11.828 27.6 11.828s2.37-10.251-4.73-24.445c6.31 2.365 9.46 11.039 9.46 11.039s4.73-20.502 19.71-29.176c-7.88 12.617-7.88 34.696-7.88 34.696s3.94-10.251 11.04-11.828ZM1801 544.05c-22.87 7.886-40.22 37.062-40.22 37.062s-10.25-29.965-31.54-44.159c17.35 21.291 22.87 48.89 22.08 48.102-.79-.789-9.46-13.406-22.08-14.983 7.89 5.52 15.77 19.714 18.14 21.291 2.36 1.577 18.14 3.155 20.5 0 2.37-3.154 3.94-21.291 33.12-47.313Z" fill="#7FA024"/></g><defs><clipPath id="clip0_131_3356"><path fill="#fff" d="M0 0h1920v608H0z"/></clipPath></defs></svg>