<svg width="1920" height="930" fill="none" xmlns="http://www.w3.org/2000/svg"><g clip-path="url('#clip0_113_29350')"><path fill="#fff" d="M0 0h1920v930H0z"/><path d="M1921 416H0v514h1921V416Z" fill="#96C22F"/><path d="M1317 415H603v802.48h714V415Z" fill="#3D3B38"/><path d="M966.41 440.974h-12.826v82.397h12.826v-82.397ZM966.41 557.407h-12.826v82.397h12.826v-82.397ZM966.41 674.727h-12.826v82.397h12.826v-82.397ZM966 790.765h-12v99.202h12v-99.202ZM633.418 415h-8.488v802.48h8.488V415ZM1295.06 415h-8.49v802.48h8.49V415Z" fill="#fff"/><path d="M1920 0H0v416h1920V0Z" fill="#9ECBDD"/><path d="M1774.66 385.052h-34.96v30.981h34.96v-30.981Z" fill="#749DC1"/><path d="M1771.64 381.866h-24.79v9.693h24.79v-9.693Z" fill="#749DC1"/><path d="M1760.68 378.808h-11.76v6.244h11.76v-6.244ZM1767.98 361.22h-3.81v25.5h3.81v-25.5ZM1735.09 384.094h-38.77v31.933h38.77v-31.933Z" fill="#749DC1"/><path d="M1746.86 398.711h-19.87v17.316h19.87v-17.316ZM1733.35 335.479h-32.1v49.564h32.1v-49.564Z" fill="#749DC1"/><path d="M1728.26 303.229h-22.08v36.223h22.08v-36.223Z" fill="#749DC1"/><path d="M1725.88 252.553h-16.36v53.382h16.36v-53.382Z" fill="#749DC1"/><path d="M1721.9 253.667h-8.58v-29.868l4.37-4.445 4.21 4.445v29.868ZM1638.97 313.874h-16.37v-30.819l8.18-5.72 8.19 5.72v30.819Z" fill="#749DC1"/><path d="M1654.22 313.874h-16.37v-30.819l8.19-5.72 8.18 5.72v30.819Z" fill="#749DC1"/><path d="M1670.11 313.874h-16.37v-30.819l8.18-5.72 8.19 5.72v30.819Z" fill="#749DC1"/><path d="M1670.1 305.934h-56.4v110.097h56.4V305.934Z" fill="#749DC1"/><path d="M1637.85 309.746h-27.97v106.28h27.97v-106.28ZM1696.32 369.477h-34.39v46.549h34.39v-46.549ZM1605.12 337.39h-55.93v78.637h55.93V337.39Z" fill="#749DC1"/><path d="M1622.6 389.813h-32.1v26.213h32.1v-26.213ZM1599.09 224.593h-49.9v112.795h49.9V224.593Z" fill="#749DC1"/><path d="M1595.59 240.797h-25.74v-21.443l25.74 2.536v18.907ZM1565.4 197.268h-3.5v32.805h3.5v-32.805ZM1557.13 197.268h-3.49v32.805h3.49v-32.805ZM1538.38 319.277h-9.53v41.943h9.53v-41.943Z" fill="#749DC1"/><path d="M1541.56 327.223h-32.41v45.12h32.41v-45.12Z" fill="#749DC1"/><path d="M1553.64 356.45h-44.49v59.575h44.49V356.45ZM1525.36 311.965h-5.09v17.794h5.09v-17.794ZM1499.93 416.026h-38.13V261.767l8.9-6.354 29.23 9.531v151.082Z" fill="#749DC1"/><path d="M1503.74 265.578h-43.85v150.448h43.85V265.578Z" fill="#749DC1"/><path d="M1517.09 407.367h-31.46v8.658h31.46v-8.658ZM1444 343.897h-40.68v72.128H1444v-72.128Z" fill="#749DC1"/><path d="M1466.56 376.711h-34.63v39.322h34.63v-39.322ZM1398.87 396.367h-12.07v19.657h12.07v-19.657Z" fill="#749DC1"/><path d="M1416.03 409.191h-35.27v6.833h35.27v-6.833ZM1432.99 349.779h-18.33v-10.722l9.16-5.086 9.17 5.086v10.722ZM1441.73 315.62h-4.82v28.07h4.82v-28.07ZM1410.53 315.992h-4.71v27.959h4.71v-27.959Z" fill="#749DC1"/><path d="M1550.77 381.251h-60.68v34.126h60.68v-34.126Z" fill="#69879E"/><path d="M1554.4 389.094h-30v26.283h30v-26.283Z" fill="#69879E"/><path d="M1549.92 373.149h-48.96v19.477h48.96v-19.477Z" fill="#69879E"/><path d="M1524.41 369.359h-32.07v18.099h32.07v-18.099Z" fill="#69879E"/><path d="M1542.85 322.129h-43.1v53.952h43.1v-53.952Z" fill="#69879E"/><path d="M1532.33 342.124h-28.96v-23.268l14.48-4.141 14.48 4.141v23.268ZM1476.39 359.648h-32.24v56.378h32.24v-56.378Z" fill="#69879E"/><path d="M1482.78 402.883h-14.14v13.142h14.14v-13.142ZM1453.46 400.34h-119.12v15.685h119.12V400.34ZM1607.44 402.883h-9.32v13.142h9.32v-13.142Z" fill="#69879E"/><path d="M1369.46 356.631H1318v58.236h51.46v-58.236ZM1416.22 391.203h-37.92v19.134h37.92v-19.134Z" fill="#69879E"/><path d="M1446.95 339.322h-47.28v68.86h47.28v-68.86Z" fill="#69879E"/><path d="M1467.59 291.518h-58.26v80.902h58.26v-80.902Z" fill="#69879E"/><path d="M1454.66 286.23h-40.51v17.755h40.51V286.23Z" fill="#69879E"/><path d="M1451.05 281.237h-15.86v13.103h15.86v-13.103ZM1430.01 278.646h-11.38v13.615h11.38v-13.615Z" fill="#69879E"/><path d="M1432.25 283.649h-16.03v12.41h16.03v-12.41ZM1426.61 254.176h-4.18v27.06h4.18v-27.06ZM1350.24 326.467H1318v42.402h32.24v-42.402Z" fill="#69879E"/><path d="M1348 324.394h-16.72v11.375H1348v-11.375Z" fill="#69879E"/><path d="M1344.76 320.778h-10.64v10.644h10.64v-10.644ZM1328.86 313.195h-3.28v16.895h3.28v-16.895ZM1323.69 318.189h-1.72v9.997h1.72v-9.997Z" fill="#69879E"/><path d="M1921.17 210.648h-151.24v205.377h151.24V210.648Z" fill="#A59D9A"/><path d="M1866.99 210.648h-24.82v205.377h24.82V210.648ZM1921.16 210.648h-27.09v205.377h27.09V210.648Z" fill="#686463"/><path d="M1889.57 199.364h-76.75v11.284h76.75v-11.284Z" fill="#51616B"/><path d="M1837.65 226.451h-67.72v185.065h67.72V226.451Z" fill="#fff"/><path d="M1837.65 233.221h-67.72v2.258h67.72v-2.258ZM1837.65 242.246h-67.72v2.258h67.72v-2.258ZM1837.65 251.271h-67.72v2.258h67.72v-2.258ZM1837.65 262.557h-67.72v2.258h67.72v-2.258ZM1837.65 271.584h-67.72v2.258h67.72v-2.258ZM1837.65 280.617h-67.72v2.258h67.72v-2.258ZM1837.65 289.644h-67.72v2.258h67.72v-2.258ZM1837.65 298.669h-67.72v2.258h67.72v-2.258ZM1837.65 307.696h-67.72v2.258h67.72v-2.258ZM1837.65 318.98h-67.72v2.258h67.72v-2.258ZM1837.65 328.007h-67.72v2.259h67.72v-2.259ZM1837.65 337.034h-67.72v2.258h67.72v-2.258ZM1837.65 346.067h-67.72v2.258h67.72v-2.258ZM1837.65 355.094h-67.72v2.258h67.72v-2.258ZM1837.65 364.119h-67.72v2.258h67.72v-2.258ZM1837.65 375.403h-67.72v2.259h67.72v-2.259ZM1837.65 384.43h-67.72v2.258h67.72v-2.258ZM1837.65 393.458h-67.72v2.258h67.72v-2.258ZM1837.65 402.482h-67.72v2.259h67.72v-2.259Z" fill="#3D3B38"/><path d="M1891.82 228.701h-24.83v185.065h24.83V228.701Z" fill="#fff"/><path d="M1891.82 235.476h-24.83v2.258h24.83v-2.258ZM1891.82 244.501h-24.83v2.258h24.83v-2.258ZM1891.82 253.528h-24.83v2.259h24.83v-2.259ZM1891.82 264.814h-24.83v2.259h24.83v-2.259ZM1891.82 273.839h-24.83v2.259h24.83v-2.259ZM1891.82 282.867h-24.83v2.258h24.83v-2.258ZM1891.82 291.899h-24.83v2.258h24.83v-2.258ZM1891.82 300.924h-24.83v2.259h24.83v-2.259ZM1891.82 309.953h-24.83v2.258h24.83v-2.258ZM1891.82 321.237h-24.83v2.259h24.83v-2.259ZM1891.82 330.265h-24.83v2.258h24.83v-2.258ZM1891.82 339.29h-24.83v2.258h24.83v-2.258ZM1891.82 348.317h-24.83v2.258h24.83v-2.258ZM1891.82 357.349h-24.83v2.258h24.83v-2.258ZM1891.82 366.376h-24.83v2.259h24.83v-2.259ZM1891.82 377.661h-24.83v2.258h24.83v-2.258ZM1891.82 386.688h-24.83v2.258h24.83v-2.258ZM1891.82 395.713h-24.83v2.258h24.83v-2.258ZM1891.82 404.742h-24.83V407h24.83v-2.258Z" fill="#3D3B38"/><path d="M1747.36 185.82h-137.7v230.205h137.7V185.82Z" fill="#8A9995"/><path d="M1742.84 194.855h-126.41v6.768h126.41v-6.768Z" fill="#fff"/><path d="M1632.23 194.855h-2.25v6.768h2.25v-6.768ZM1645.78 194.855h-2.26v6.768h2.26v-6.768ZM1670.61 194.855h-11.29v6.768h11.29v-6.768ZM1697.7 194.855h-2.26v6.768h2.26v-6.768ZM1722.53 194.855h-2.26v6.768h2.26v-6.768Z" fill="#8A9995"/><path d="M1731.56 161h-60.95v24.828h60.95V161Z" fill="#51616B"/><path d="M1742.84 210.65h-126.41v6.769h126.41v-6.769Z" fill="#fff"/><path d="M1632.23 210.65h-2.25v6.769h2.25v-6.769ZM1645.78 210.65h-2.26v6.769h2.26v-6.769ZM1670.61 210.65h-11.29v6.769h11.29v-6.769ZM1697.7 210.65h-2.26v6.769h2.26v-6.769ZM1722.53 210.65h-2.26v6.769h2.26v-6.769Z" fill="#8A9995"/><path d="M1742.84 226.45h-126.41v6.768h126.41v-6.768Z" fill="#fff"/><path d="M1632.23 226.45h-2.25v6.768h2.25v-6.768ZM1645.78 226.45h-2.26v6.768h2.26v-6.768ZM1670.61 226.45h-11.29v6.768h11.29v-6.768ZM1697.7 226.45h-2.26v6.768h2.26v-6.768ZM1722.53 226.45h-2.26v6.768h2.26v-6.768Z" fill="#8A9995"/><path d="M1742.84 242.246h-126.41v6.768h126.41v-6.768Z" fill="#fff"/><path d="M1632.23 242.246h-2.25v6.768h2.25v-6.768ZM1645.78 242.246h-2.26v6.768h2.26v-6.768ZM1670.61 242.246h-11.29v6.768h11.29v-6.768ZM1697.7 242.246h-2.26v6.768h2.26v-6.768ZM1722.53 242.246h-2.26v6.768h2.26v-6.768Z" fill="#8A9995"/><path d="M1742.84 255.789h-126.41v6.768h126.41v-6.768Z" fill="#fff"/><path d="M1632.23 255.789h-2.25v6.768h2.25v-6.768ZM1645.78 255.789h-2.26v6.768h2.26v-6.768ZM1670.61 255.789h-11.29v6.768h11.29v-6.768ZM1697.7 255.789h-2.26v6.768h2.26v-6.768ZM1722.53 255.789h-2.26v6.768h2.26v-6.768Z" fill="#8A9995"/><path d="M1742.84 271.583h-126.41v6.768h126.41v-6.768Z" fill="#fff"/><path d="M1632.23 271.583h-2.25v6.768h2.25v-6.768ZM1645.78 271.583h-2.26v6.768h2.26v-6.768ZM1670.61 271.583h-11.29v6.768h11.29v-6.768ZM1697.7 271.583h-2.26v6.768h2.26v-6.768ZM1722.53 271.583h-2.26v6.768h2.26v-6.768Z" fill="#8A9995"/><path d="M1742.84 287.385h-126.41v6.768h126.41v-6.768Z" fill="#fff"/><path d="M1632.23 287.385h-2.25v6.768h2.25v-6.768ZM1645.78 287.385h-2.26v6.768h2.26v-6.768ZM1670.61 287.385h-11.29v6.768h11.29v-6.768ZM1697.7 287.385h-2.26v6.768h2.26v-6.768ZM1722.53 287.385h-2.26v6.768h2.26v-6.768Z" fill="#8A9995"/><path d="M1742.84 303.187h-126.41v6.768h126.41v-6.768Z" fill="#fff"/><path d="M1632.23 303.187h-2.25v6.768h2.25v-6.768ZM1645.78 303.187h-2.26v6.768h2.26v-6.768ZM1670.61 303.187h-11.29v6.768h11.29v-6.768ZM1697.7 303.187h-2.26v6.768h2.26v-6.768ZM1722.53 303.187h-2.26v6.768h2.26v-6.768Z" fill="#8A9995"/><path d="M1742.84 318.98h-126.41v6.768h126.41v-6.768Z" fill="#fff"/><path d="M1632.23 318.98h-2.25v6.768h2.25v-6.768ZM1645.78 318.98h-2.26v6.768h2.26v-6.768ZM1670.61 318.98h-11.29v6.768h11.29v-6.768ZM1697.7 318.98h-2.26v6.768h2.26v-6.768ZM1722.53 318.98h-2.26v6.768h2.26v-6.768Z" fill="#8A9995"/><path d="M1742.84 334.782h-126.41v6.768h126.41v-6.768Z" fill="#fff"/><path d="M1632.23 334.782h-2.25v6.768h2.25v-6.768ZM1645.78 334.782h-2.26v6.768h2.26v-6.768ZM1670.61 334.782h-11.29v6.768h11.29v-6.768ZM1697.7 334.782h-2.26v6.768h2.26v-6.768ZM1722.53 334.782h-2.26v6.768h2.26v-6.768Z" fill="#8A9995"/><path d="M1742.84 350.575h-126.41v6.768h126.41v-6.768Z" fill="#fff"/><path d="M1632.23 350.575h-2.25v6.768h2.25v-6.768ZM1645.78 350.575h-2.26v6.768h2.26v-6.768ZM1670.61 350.575h-11.29v6.768h11.29v-6.768ZM1697.7 350.575h-2.26v6.768h2.26v-6.768ZM1722.53 350.575h-2.26v6.768h2.26v-6.768Z" fill="#8A9995"/><path d="M1742.84 366.375h-126.41v6.769h126.41v-6.769Z" fill="#fff"/><path d="M1632.23 366.375h-2.25v6.769h2.25v-6.769ZM1645.78 366.375h-2.26v6.769h2.26v-6.769ZM1670.61 366.375h-11.29v6.769h11.29v-6.769ZM1697.7 366.375h-2.26v6.769h2.26v-6.769ZM1722.53 366.375h-2.26v6.769h2.26v-6.769Z" fill="#8A9995"/><path d="M1742.84 382.171h-126.41v6.768h126.41v-6.768Z" fill="#fff"/><path d="M1632.23 382.171h-2.25v6.768h2.25v-6.768ZM1645.78 382.171h-2.26v6.768h2.26v-6.768ZM1670.61 382.171h-11.29v6.768h11.29v-6.768ZM1697.7 382.171h-2.26v6.768h2.26v-6.768ZM1722.53 382.171h-2.26v6.768h2.26v-6.768Z" fill="#8A9995"/><path d="M1742.84 397.973h-126.41v6.768h126.41v-6.768Z" fill="#fff"/><path d="M1632.23 397.973h-2.25v6.768h2.25v-6.768ZM1645.78 397.973h-2.26v6.768h2.26v-6.768ZM1670.61 397.973h-11.29v6.768h11.29v-6.768ZM1697.7 397.973h-2.26v6.768h2.26v-6.768ZM1722.53 397.973h-2.26v6.768h2.26v-6.768Z" fill="#8A9995"/><path d="M1668.36 185.82h-6.78v230.205h6.78V185.82Z" fill="#768C86"/><path d="M485.999 396.815h-71.193v19.259h71.193v-19.259Z" fill="#fff"/><path d="M486.998 398.255h-72.211v-24.659h58.074l14.137 12.109v12.55Z" fill="#72645D"/><path d="M454.265 416.074h-39.459v-25.443l19.732-16.025 19.727 16.025v25.443Z" fill="#fff"/><path d="M460.209 360.823h-5.943v13.783h5.943v-13.783Z" fill="#5E5D5C"/><path d="M462.452 371.916h-10.201v4.484h10.201v-4.484Z" fill="#E7D0B0"/><path d="M433.528 385.925h-2.356v5.83h2.356v-5.83ZM437.23 385.925h-2.691v5.83h2.691v-5.83ZM424.673 400.498h-3.253v1.118h3.253v-1.118ZM428.374 400.498h-2.69v1.118h2.69v-1.118ZM424.673 402.399h-3.253v7.176h3.253v-7.176ZM428.374 402.399h-2.69v7.176h2.69v-7.176ZM461.666 401.617h-3.588v2.577h3.588v-2.577ZM461.666 405.988h-3.588v2.356h3.588v-2.356ZM461.666 409.575h-3.588v2.356h3.588v-2.356ZM467.045 401.617h-3.588v2.577h3.588v-2.577ZM467.045 405.988h-3.588v2.356h3.588v-2.356ZM467.045 409.575h-3.588v2.356h3.588v-2.356ZM472.424 401.617h-3.588v2.577h3.588v-2.577ZM472.424 405.988h-3.588v2.356h3.588v-2.356ZM472.424 409.575h-3.588v2.356h3.588v-2.356ZM477.807 401.617h-3.588v2.577h3.588v-2.577ZM477.807 405.988h-3.588v2.356h3.588v-2.356ZM477.807 409.575h-3.588v2.356h3.588v-2.356ZM483.188 401.617h-3.587v2.577h3.587v-2.577ZM483.188 405.988h-3.587v2.356h3.587v-2.356ZM483.188 409.575h-3.587v2.356h3.587v-2.356ZM443.509 400.498h-3.253v1.118h3.253v-1.118ZM447.205 400.498h-2.691v1.118h2.691v-1.118ZM443.509 402.399h-3.253v7.176h3.253v-7.176ZM447.205 402.399h-2.691v7.176h2.691v-7.176Z" fill="#417A8C"/><path d="M400.644 366.749h-2.287v8.388h2.287v-8.388Z" fill="#6B3425"/><path d="M447.86 395.9h-58.889v-20.763l29.447-7.036 29.442 7.036V395.9Z" fill="#8A9995"/><path d="M449.735 395.899h-62.881v20.175h62.881v-20.175Z" fill="#776B67"/><path d="M399.998 381.353h-3.284v8.091h3.284v-8.091ZM404.983 381.353h-4.339v8.091h4.339v-8.091ZM418.298 381.353h-3.284v8.091h3.284v-8.091ZM423.283 381.353h-4.34v8.091h4.34v-8.091ZM435.189 381.353h-3.285v8.091h3.285v-8.091ZM440.179 381.353h-4.339v8.091h4.339v-8.091ZM399.998 398.248h-3.284v8.091h3.284v-8.091ZM404.983 398.248h-4.339v8.091h4.339v-8.091ZM418.298 398.248h-3.284v8.091h3.284v-8.091ZM423.283 398.248h-4.34v8.091h4.34v-8.091ZM435.189 398.248h-3.285v8.091h3.285v-8.091ZM440.179 398.248h-4.339v8.091h4.339v-8.091Z" fill="#417A8C"/><path d="m448.409 375.585-30.086-7.409-30.193 7.302-.057-.215 30.25-7.314.025.006 30.111 7.416-.05.214Z" fill="#6B3425"/><path d="M395.261 380.524H263.84v35.55h131.421v-35.55Z" fill="#fff"/><path d="M397.093 383.178H263.796v-45.511H371l26.093 22.342v23.169Z" fill="#818986"/><path d="M336.676 416.073H263.84V369.11l36.415-29.587 36.421 29.587v46.963ZM347.642 314.081h-10.965v25.449h10.965v-25.449Z" fill="#fff"/><path d="M351.779 334.559h-18.83v8.275h18.83v-8.275ZM298.392 360.418h-4.346v10.758h4.346v-10.758ZM305.22 360.418h-4.965v10.758h4.965v-10.758ZM282.045 387.315h-6.001v2.072h6.001v-2.072ZM288.872 387.315h-4.965v2.072h4.965v-2.072ZM282.045 390.833h-6.001v13.24h6.001v-13.24ZM288.872 390.833h-4.965v13.24h4.965v-13.24ZM350.332 389.389h-6.62v4.756h6.62v-4.756ZM350.332 397.455h-6.62v4.345h6.62v-4.345ZM350.332 404.081h-6.62v4.345h6.62v-4.345ZM360.262 389.389h-6.619v4.756h6.619v-4.756ZM360.262 397.455h-6.619v4.345h6.619v-4.345ZM360.262 404.081h-6.619v4.345h6.619v-4.345ZM370.193 389.389h-6.62v4.756h6.62v-4.756ZM370.193 397.455h-6.62v4.345h6.62v-4.345ZM370.193 404.081h-6.62v4.345h6.62v-4.345ZM380.127 389.389h-6.62v4.756h6.62v-4.756ZM380.127 397.455h-6.62v4.345h6.62v-4.345ZM380.127 404.081h-6.62v4.345h6.62v-4.345ZM390.057 389.389h-6.619v4.756h6.619v-4.756ZM390.057 397.455h-6.619v4.345h6.619v-4.345ZM390.057 404.081h-6.619v4.345h6.619v-4.345ZM316.809 387.315h-6v2.072h6v-2.072ZM323.637 387.315h-4.965v2.072h4.965v-2.072ZM316.809 390.833h-6v13.24h6v-13.24ZM323.637 390.833h-4.965v13.24h4.965v-13.24Z" fill="#417A8C"/><path d="M220.756 311.91h-4.832v17.711h4.832V311.91Z" fill="#6B3425"/><path d="M320.482 373.47H196.109v-43.849l62.187-14.863 62.186 14.863v43.849Z" fill="#EAE7E4"/><path d="M324.448 373.471H191.649v42.605h132.799v-42.605Z" fill="#686665"/><path d="M219.393 342.754h-6.936v17.092h6.936v-17.092ZM229.923 342.754h-9.165v17.092h9.165v-17.092ZM258.044 342.755h-6.936v17.093h6.936v-17.093ZM268.573 342.755h-9.165v17.093h9.165v-17.093ZM293.716 342.755h-6.936v17.093h6.936v-17.093ZM304.247 342.755h-9.165v17.093h9.165v-17.093Z" fill="#AFD1D3"/><path d="M219.393 378.424h-6.936v17.092h6.936v-17.092ZM229.923 378.424h-9.165v17.092h9.165v-17.092ZM258.043 378.424h-6.936v17.092h6.936v-17.092ZM268.573 378.424h-9.165v17.092h9.165v-17.092ZM293.717 378.424h-6.936v17.092h6.936v-17.092ZM304.247 378.424h-9.165v17.092h9.165v-17.092Z" fill="#417A8C"/><path d="m321.631 330.568-63.538-15.652-63.765 15.419-.107-.449 63.872-15.444.057.013 63.589 15.665-.108.448Z" fill="#6B3425"/><path d="M204.965 365.739H0v-69.646h164.836l40.129 34.191v35.455Z" fill="#A09795"/><path d="M112.063 416.075H.064v-71.863l55.996-45.271 56.003 45.271v71.863ZM128.927 260h-16.865v38.941h16.865V260Z" fill="#AFABAA"/><path d="M135.287 291.342h-28.955v12.664h28.955v-12.664Z" fill="#E0DDDA"/><path d="M53.199 330.916h-6.683v16.46h6.683v-16.46ZM63.696 330.916H56.06v16.46h7.636v-16.46Z" fill="#417A8C"/><path d="M28.064 372.073h-9.228v3.164h9.228v-3.164ZM38.563 372.073h-7.636v3.164h7.636v-3.164ZM28.064 377.455h-9.228v20.263h9.228v-20.263ZM38.563 377.455h-7.636v20.263h7.636v-20.263Z" fill="#6F99A3"/><path d="M133.056 375.238h-10.182v7.283h10.182v-7.283ZM133.056 387.582h-10.182v6.651h10.182v-6.651ZM133.056 397.712h-10.182v6.652h10.182v-6.652ZM148.333 375.238H138.15v7.283h10.183v-7.283ZM148.333 387.582H138.15v6.651h10.183v-6.651ZM148.333 397.712H138.15v6.652h10.183v-6.652ZM163.606 375.238h-10.182v7.283h10.182v-7.283ZM163.606 387.582h-10.182v6.651h10.182v-6.651ZM163.606 397.712h-10.182v6.652h10.182v-6.652ZM178.872 375.238h-10.183v7.283h10.183v-7.283ZM178.872 387.582h-10.183v6.651h10.183v-6.651ZM178.872 397.712h-10.183v6.652h10.183v-6.652ZM194.144 375.238h-10.182v7.283h10.182v-7.283ZM194.144 387.582h-10.182v6.651h10.182v-6.651ZM194.144 397.712h-10.182v6.652h10.182v-6.652Z" fill="#417A8C"/><path d="M81.516 372.074h-9.229v3.164h9.228v-3.164ZM92.014 372.074h-7.637v3.164h7.637v-3.164ZM81.516 377.455h-9.229v20.263h9.228v-20.263ZM92.014 377.455h-7.637v20.263h7.637v-20.263Z" fill="#6F99A3"/><path d="M581.228 277.042c12.027 0 21.773 9.746 21.773 21.773v117.266h-43.546V298.815c0-12.027 9.746-21.773 21.773-21.773Z" fill="#8A9995"/><path d="M603.001 298.809h-43.546v2.81h43.546v-2.81ZM603.001 314.258h-43.546v2.811h43.546v-2.811ZM603.001 329.702h-43.546v2.81h43.546v-2.81ZM603.001 345.153h-43.546v2.811h43.546v-2.811ZM603.001 360.602h-43.546v2.811h43.546v-2.811ZM603.001 376.053h-43.546v2.811h43.546v-2.811ZM603.001 391.497h-43.546v2.81h43.546v-2.81Z" fill="#72645D"/><path d="M481.596 379.439v36.636h45.586v-80.428l-30.389 16.979-8.944 21.451-6.253 5.362Z" fill="#EFE6E4"/><path d="m478.589 382.806-1.137-1.384 9.658-7.895L496.086 352l30.654-17.13.878 1.56-30.124 16.827-8.899 21.369-10.006 8.18Z" fill="#3D3B38"/><path d="M517.353 364.242h-9.834v8.938h9.834v-8.938ZM506.622 388.37H487.85v15.191h18.772V388.37ZM527.182 389.267h-16.985v1.788h16.985v-1.788Z" fill="#fff"/><path d="M527.182 390.158h-15.198v25.916h15.198v-25.916Z" fill="#fff"/><path d="M525.395 391.055h-11.623v23.232h11.623v-23.232Z" fill="#897F7D"/><path d="m526.285 413.396-10.946-23.238h-1.567l12.513 25.026v-1.788Z" fill="#fff"/><path d="m525.395 390.158-12.513 25.026h1.787l11.989-25.026h-1.263Z" fill="#fff"/><path d="M496.789 390.157h-7.15v11.616h7.15v-11.616Z" fill="#897F7D"/><path d="M494.11 389.266h-1.788v13.404h1.788v-13.404Z" fill="#fff"/><path d="M497.685 392.841h-9.834v1.788h9.834v-1.788ZM497.685 397.307h-9.834v1.788h9.834v-1.788Z" fill="#fff"/><path d="M515.566 366.029h-6.259v5.363h6.259v-5.363Z" fill="#897F7D"/><path d="M512.881 365.138h-.897v7.15h.897v-7.15Z" fill="#fff"/><path d="M516.456 367.817h-8.937v.891h8.937v-.891Z" fill="#fff"/><path d="M505.731 390.157h-7.15v11.616h7.15v-11.616Z" fill="#897F7D"/><path d="M503.046 389.266h-1.787v13.404h1.787v-13.404Z" fill="#fff"/><path d="M506.628 392.841h-9.835v1.788h9.835v-1.788ZM506.628 397.307h-9.835v1.788h9.835v-1.788Z" fill="#fff"/><path d="M571.738 379.439v36.636h-45.58v-80.428l30.389 16.979 8.938 21.451 6.253 5.362Z" fill="#EFE6E4"/><path d="m574.751 382.806 1.131-1.384-9.658-7.895L557.248 352l-30.654-17.13-.871 1.56 30.117 16.827 8.906 21.369 10.005 8.18Z" fill="#3D3B38"/><path d="M535.986 373.183h9.835v-8.938h-9.835v8.938ZM545.815 403.567h18.773v-15.191h-18.773v15.191ZM526.152 391.052h16.985v-1.787h-16.985v1.787Z" fill="#fff"/><path d="M526.151 416.078h15.198v-25.917h-15.198v25.917Z" fill="#fff"/><path d="M527.939 414.288h11.623v-23.233h-11.623v23.233Z" fill="#897F7D"/><path d="m527.049 413.396 10.953-23.238h1.56l-12.513 25.026v-1.788Z" fill="#fff"/><path d="m527.946 390.158 12.513 25.026h-1.787l-11.995-25.026h1.269Z" fill="#fff"/><path d="M555.652 401.78h7.151v-11.616h-7.151v11.616Z" fill="#897F7D"/><path d="M558.331 402.67h1.787v-13.403h-1.787v13.403Z" fill="#fff"/><path d="M554.753 394.626h9.835v-1.787h-9.835v1.787ZM554.753 399.098h9.835v-1.788h-9.835v1.788Z" fill="#fff"/><path d="M537.774 371.396h6.259v-5.363h-6.259v5.363Z" fill="#897F7D"/><path d="M540.452 372.287h.897v-7.151h-.897v7.151Z" fill="#fff"/><path d="M536.879 368.713h8.938v-.89h-8.938v.89Z" fill="#fff"/><path d="M546.716 401.78h7.15v-11.616h-7.15v11.616Z" fill="#897F7D"/><path d="M549.394 402.67h1.788v-13.403h-1.788v13.403Z" fill="#fff"/><path d="M545.817 394.626h9.834v-1.787h-9.834v1.787ZM545.817 399.098h9.834v-1.788h-9.834v1.788Z" fill="#fff"/></g><defs><clipPath id="clip0_113_29350"><path fill="#fff" d="M0 0h1920v930H0z"/></clipPath></defs></svg>