<svg width="1920" height="1986" fill="none" xmlns="http://www.w3.org/2000/svg"><g clip-path="url('#clip0_131_3493')"><path fill="#fff" d="M0 0h1920v1986H0z"/><path d="M1921 0H0v1986h1921V0Z" fill="#96C22F"/><path d="M2086.98 1903.64s-201.56 32.71-417.4 32.71c-215.84 0-523.22-121.62-681.946-114.67-158.729 6.95-770.124 132.04-953.212 114.67-183.078-17.37-272.102-22.01-272.102-22.01l.842-1030.755s420.677-143.951 1049.168 31.46c260.63 72.738 375.31 111.095 594.84 54.339 346.63-89.612 679.81-76.266 679.81-76.266V1903.64Z" fill="#567A4D"/><path d="M2086.98 1822.61s-203.15 81.03-418.99 81.03-530.34-118.49-689.072-111.54c-158.73 6.95-771.008 128.91-954.095 111.54-183.087-17.37-262.503-77.22-262.503-77.22l.842-942.833s419.835-112.492 1048.327 62.919c260.631 72.734 354.281 132.064 573.801 75.314 346.64-89.613 701.69-107.727 701.69-107.727v908.517Z" fill="#3E893F"/><path d="M2086.98 1758.74s-206.52 104.86-422.36 104.86-526.97-78.45-685.702-71.5c-158.73 6.95-773.532 104.12-956.62 86.75-183.086-17.36-259.978-95.33-259.978-95.33l.842-851.313s419.835-161.111 1048.327 14.3c260.631 72.743 354.281 132.063 573.801 75.313 346.64-89.613 701.69 69.59 701.69 69.59v667.33Z" fill="#567A4D"/><path d="M-236.834 932.206s212.795-62.919 477.889-62.919c466.951 0 1383.185 449.963 1383.185 449.963s-918.758-148.71-1415.998-69.59c-264.252 42.05-445.076 98.19-445.076 98.19V932.206Z" fill="#3E893F"/><path d="M195.625 1034.21c-34.142-67.144-62.235-121.416-82.503-160.226a1932.523 1932.523 0 0 0-84.463 7.979c26.544 38.8 59.29 94.198 93.769 170.357 27.882 61.59 54.906 132.03 78.532 198.5 2.423-.39 4.846-.78 7.286-1.16 22.405-3.57 45.668-6.66 69.655-9.34-26.233-76.35-55.445-153.34-82.276-206.11ZM533.842 1034.22c-28.311-56.813-57.725-105.166-82.696-142.584-36.111-6.73-71.137-12.116-104.715-15.91 26.208 39.906 60.089 97.858 96.545 176.604 24.912 53.81 50.145 115.24 73.13 174.47 31.358-.43 63.194-.43 95.309-.06-25.081-71.06-52.618-142.45-77.573-192.52ZM367.263 1052.32c-35.076-83.908-68.52-143.042-94.333-182.366a788.167 788.167 0 0 0-31.87-.668c-14.951 0-29.734.2-44.323.582 28.909 43.995 67.561 109.746 104.9 194.852 22.515 51.31 44.794 110.48 64.852 167.81a2504.38 2504.38 0 0 1 70.009-3.67c-22.044-59.07-45.997-120.95-69.235-176.54ZM29.034 1034.21C-2.508 974.998-30.289 928.419-52.82 893.165a1940.279 1940.279 0 0 0-83.866 15.177c30.465 38.667 64.65 88.592 90.008 143.968 24.332 53.14 52.652 143.12 77.337 229.72 26.225-5.4 54.007-10.83 83.176-16.19-22.716-82.49-51.474-169.06-84.8-231.63Z" fill="#567A4D"/><path d="M2086.98 1140.56s-214.1-62.8-478.71-62.8c-186.63 0-444.37 74.98-688.123 158.37-572.558-38.22-1026.838 66.78-1157.829 131.87-.303.15 0 372.07 0 372.07 208.277 182.7 688.884 23.42 1107.743 2.85 209.339-10.29 628.239 13.65 793.639 39.96 263.78 41.98 423.28-78.98 423.28-78.98v-563.34Z" fill="#3E893F"/><path d="M40.307 1413.67c19.014-51.51 36.969-97.04 53.695-137.15-42.488 7.51-81.872 15.53-117.882 23.79-13.361 30.95-25.973 63.09-37.432 96.24-48.698 140.91-77.421 304.87-90.791 395.11 30.348 12.2 63.666 20.77 99.474 26.39 9.322-76.93 34.933-247.22 92.936-404.38ZM408.996 1405.11c24.702-66.94 47.621-123.76 68.377-171.74a3535.118 3535.118 0 0 0-109.569 7.7c-21.918 46.05-42.573 95.25-60.426 146.91-56.438 163.31-86.054 357.58-96.016 432.16 34.142-2.99 69.143-6.84 104.774-11.22 9.373-77.21 35-247.04 92.86-403.81ZM2038.74 1128.53c-20.89-4.97-48.21-11.01-80.78-17.15-62.43 91.14-140.9 223.86-194.31 378.43-34.1 98.66-58.41 208.63-74.5 296.68 35.91 4.42 69.73 5.85 101.29 5.04 14.88-82.58 38.5-186.16 74.83-284.59 81.86-221.8 144.02-332.51 173.47-378.41ZM2086.99 1201.56c-53.57 85.42-113.68 194.66-156.22 317.74-30.29 87.64-52.84 184.19-68.8 266.38 47.8-6.67 88.66-18.05 121.85-30.25 9.25-68.13 24.27-144.57 48.56-219.01 17.86-54.75 37.38-103.1 54.6-145.57v-189.29h.01ZM1284.16 1126.04c-36.41 9.01-73.5 18.99-110.96 29.72-57.01 88.19-121.81 205.36-167.93 338.79-27.848 80.58-49.16 168.69-64.809 246.26 35.884-.53 75.189-.39 116.489.28 9.12-70.69 24.4-151.16 49.94-229.4 73.55-225.36 146.6-342.56 177.27-385.65ZM119.042 1826.02c11.232-84.42 37.196-238.62 90.075-381.9 28.858-78.19 55.269-142.58 78.658-195.18-38.87 4.29-76.159 9.1-111.732 14.33-24.929 50.81-48.504 105.72-68.545 163.72-49.27 142.57-78.094 308.73-91.253 398.26 32.788 1.92 67.149 2.05 102.797.77ZM1519.26 1429.85c68.58-185.81 123.33-293.66 156.62-350.75-22.07-.87-44.64-1.34-67.6-1.34-8.35 0-16.84.15-25.47.45-56.34 87.69-119.8 203.22-165.17 334.51-39.88 115.4-66.37 246.25-81.99 339.41 34.64 2.09 68.63 4.39 101.24 6.86 13.91-87.63 39.15-212.03 82.37-329.14ZM1334.5 1429.85c65.75-178.15 118.79-284.62 152.38-343.43-33.78 4.41-68.95 10.39-105.13 17.64-51.99 84.03-107.82 189.89-148.87 308.66-38.67 111.88-64.74 238.29-80.53 330.79 33.52 1.13 67.61 2.53 101.6 4.19 14.25-86.83 39.15-205.69 80.55-317.85ZM593.755 1405.11c25.636-69.46 49.337-128.01 70.708-177.11-36.229.11-71.759.76-106.524 1.88-23.911 49.23-46.502 102.24-65.811 158.11-51.524 149.09-80.694 324-92.961 410.06 34.647-4.76 69.715-9.78 105.009-14.79 11.502-85.18 37.474-236.96 89.579-378.15ZM1696.47 1476.48c82.53-223.64 145.05-334.34 174.21-379.55-26.71-3.8-55.3-7.33-85.43-10.29-61.77 90.95-138.1 221.36-190.4 372.7-35.38 102.37-60.21 216.89-76.28 306.48 37.03 3.41 70.94 7.03 100.34 10.75 14.65-84.86 38.91-195.39 77.56-300.09ZM939.77 1482.19c50.338-136.4 93.23-230.79 125.66-293.93-40.11 12.63-80.286 25.85-120.174 39.34-38.762 69.82-76.925 150.15-107.096 237.46-32.67 94.53-56.346 199.42-72.432 285.49 34.84-3.28 69.453-5.89 103.654-7.59 14.985-78.18 37.474-171.59 70.388-260.77ZM770.965 1451.74c33.394-90.48 63.506-162.44 89.453-219.09a3619.892 3619.892 0 0 0-101.181-3.7c-32.712 62.04-64.204 131.33-89.89 205.67-39.535 114.4-65.904 243.98-81.578 336.98 34.824-4.73 69.731-9.24 104.538-13.28 14.514-85.68 39.031-199.2 78.658-306.58Z" fill="#567A4D"/><path d="M-46.77 1878.41c26.988 0 48.865-24.79 48.865-55.37s-21.877-55.37-48.865-55.37c-26.988 0-48.866 24.79-48.866 55.37s21.878 55.37 48.866 55.37ZM1838.71 1547.61c26.99 0 48.87-24.79 48.87-55.37s-21.88-55.37-48.87-55.37c-26.98 0-48.86 24.79-48.86 55.37s21.88 55.37 48.86 55.37Z" fill="#38AF38"/><path d="M1876.96 1510.29c7.44-15.64-6.38-64.99-40.37-64.99-30.81 0-40.37 33.7-37.18 51.75 3.19 18.06 17.85 37.17 40.37 36.11 25.49-1.2 34.52-28.28 30.27-45.14-4.25-16.85-14.31-31.89-32.4-31.89-13.81 0-30.27 9.02-28.15 31.89 2.12 22.87 18.05 34.91 30.27 33.1 13.26-1.96 22.3-14.44 20.71-30.69-1.31-13.38-3.72-23.47-22.84-22.27-16.22 1.02-20.78 23.39-12.22 33.1 11.16 12.64 23.38 1.2 23.38-9.63s-3.78-13.68-11.16-12.64c-8.5 1.2-5.94 17.03.53 12.64" stroke="#6C7C7F" stroke-width=".842" stroke-miterlimit="10"/><path d="M1681.12 1859.33c29.63 0 53.65-27.22 53.65-60.79s-24.02-60.78-53.65-60.78-53.64 27.21-53.64 60.78 24.01 60.79 53.64 60.79Z" fill="#59C659"/><path d="M1723.11 1818.37c8.16-17.18-7-71.35-44.32-71.35-33.83 0-44.33 37-40.83 56.82s19.61 40.82 44.33 39.65c27.99-1.32 37.9-31.06 33.24-49.55-4.66-18.5-15.71-35.02-35.57-35.02-15.17 0-33.25 9.92-30.91 35.02 2.33 25.11 19.83 38.32 33.25 36.34 14.56-2.15 24.49-15.85 22.74-33.7-1.44-14.68-4.08-25.77-25.08-24.44-17.81 1.12-22.81 25.68-13.41 36.34 12.25 13.88 25.66 1.32 25.66-10.57 0-11.9-4.14-15.03-12.25-13.88-9.33 1.32-6.52 18.7.59 13.88" stroke="#6C7C7F" stroke-width=".925" stroke-miterlimit="10"/><path d="M68.606 225.895c18.944 7.506 43.608 32.885 43.608 32.885s16.8 6.792 31.098.358c0 0 41.465-37.175 55.405-43.967-18.23.358-40.034 16.443-40.034 16.443s6.076-33.243 34.315-62.196c-26.809 6.792-50.043 57.192-50.043 57.192s1.072-30.383 12.868-47.183c-19.66 14.655-27.166 47.898-27.166 47.898s-16.085-16.085-27.881-41.464c5.362 26.808 15.37 56.119 15.37 56.119s-26.451-19.302-47.54-16.085ZM89 529.367c16.443 7.149 34.315 37.175 34.315 37.175s11.439-47.898 30.741-65.771c-9.294 18.588-14.298 62.912-14.298 62.912s13.583-30.026 30.74-41.465c-11.438 15.728-19.302 57.907-20.732 60.052-1.429 2.145-30.025 13.583-32.885 8.579-2.86-5.005-9.294-35.03-27.881-61.482ZM116.445 356.434c20.732 7.149 36.46 33.6 36.46 33.6s9.294-27.166 28.596-40.034c-15.728 19.302-20.732 44.324-20.017 43.609.715-.715 8.579-12.153 20.017-13.583-7.149 5.004-14.298 17.872-16.443 19.302-2.144 1.43-16.442 2.86-18.587 0-2.145-2.86-3.574-19.302-30.026-42.894ZM347.773 461.742c15.728 19.302 14.298 33.6 15.013 35.03.715 1.429 27.166 5.004 27.881 3.574.715-1.43 1.43-16.443 26.452-27.881-14.298 0-25.022 11.438-25.022 11.438s-2.859-9.293 5.719-20.017c-6.434 1.43-8.578 8.579-8.578 8.579 2.144-7.864 2.859-12.868 1.429-28.596-2.144 22.162-12.153 36.46-12.153 36.46s1.43-13.583-2.86-23.592c0 18.588-4.289 26.452-4.289 26.452s-10.008-15.013-23.592-21.447ZM376.01 256.276c-16.442 7.149-34.315 37.174-34.315 37.174s-11.438-47.898-30.741-65.77c9.294 18.587 14.298 62.911 14.298 62.911s-13.583-30.026-30.74-41.464c11.438 15.727 19.302 57.906 20.732 60.051 1.43 2.145 30.026 13.583 32.885 8.579 2.86-5.004 9.294-35.03 27.881-61.481ZM125.082 123.307c-20.018 5.719-39.32 20.732-42.18 22.161-2.86 1.43-27.88 2.86-30.025 0-2.145-2.859-10.009-22.161-22.877-39.319 17.158 6.434 27.166 25.736 27.166 25.736S65.03 116.872 62.886 99c11.438 11.438 6.433 27.881 6.433 27.881 11.782-8.522 15.013-19.302 34.316-21.447-19.303 14.298-18.588 24.307-18.588 24.307s25.022-10.009 40.035-6.434ZM252.333 307.749c-15.727 19.303-14.298 33.601-15.012 35.03-.715 1.43-27.167 5.005-27.881 3.575-.715-1.43-1.43-16.443-26.452-27.881 14.298 0 25.022 11.438 25.022 11.438s2.859-9.293-5.719-20.017c6.434 1.43 8.578 8.579 8.578 8.579-2.144-7.864-2.859-12.868-1.429-28.596 2.144 22.162 12.153 36.46 12.153 36.46s-1.43-13.583 2.859-23.592c0 18.588 4.29 26.451 4.29 26.451s10.008-15.012 23.591-21.447Z" fill="#7FA024"/><path d="M368.185 403.494c-.472-6.163-11.374-5.212-11.374 2.845-2.845-4.74-15.642-2.845-13.276 5.691-12.324.471-9.951 15.641-1.422 13.747-8.536 5.212-.951 15.642 5.211 9.951-1.894 8.057 10.903 8.536 12.797 2.374.951 5.69 14.698 8.057 14.219-1.895 2.846 6.635 13.276 3.796 11.375-4.739 5.211 3.789 14.698-7.114 3.317-12.325 7.585-7.114-.951-17.537-8.057-11.374 3.803-7.121-8.522-13.283-12.79-4.275Z" fill="#C1D375"/><path d="M355.389 423.873c.722 3.375 19.91 3.79 18.016-3.316-1.902-7.114-19.439-3.318-18.016 3.316ZM1662.95 481.444c20.11 7.97 46.3 34.916 46.3 34.916s17.84 7.211 33.02.38c0 0 44.02-39.471 58.82-46.682-19.35.379-42.5 17.458-42.5 17.458s6.45-35.296 36.43-66.037c-28.46 7.211-53.13 60.724-53.13 60.724s1.14-32.26 13.66-50.098c-20.87 15.561-28.84 50.857-28.84 50.857s-17.08-17.079-29.61-44.025c5.7 28.464 16.32 59.585 16.32 59.585s-28.08-20.494-50.47-17.078ZM1808.3 414.268c17.46 7.591 36.44 39.471 36.44 39.471s12.14-50.856 32.64-69.833c-9.87 19.736-15.18 66.797-15.18 66.797s14.42-31.88 32.64-44.025c-12.15 16.699-20.5 61.483-22.02 63.76-1.51 2.277-31.88 14.422-34.91 9.109-3.04-5.313-9.87-37.194-29.61-65.279ZM1831.08 644.261c22.01 7.591 38.71 35.676 38.71 35.676s9.87-28.844 30.37-42.507c-16.7 20.494-22.02 47.061-21.26 46.302.76-.759 9.11-12.904 21.26-14.422-7.59 5.313-15.19 18.976-17.46 20.494-2.28 1.518-17.46 3.037-19.74 0-2.27-3.036-3.79-20.494-31.88-45.543ZM1866 527.366c22.01 9.868 20.49 20.495 22.01 22.013 1.52 1.518 24.29 3.036 26.57 0 2.27-3.036.75-14.422 14.42-28.085-12.91 3.795-19.74 17.458-19.74 17.458s2.28-19.735 14.42-37.193c-15.94 8.349-22.77 27.325-22.77 27.325-3.79-9.108-7.59-23.53-24.29-35.675 14.42 24.29 14.42 41.748 14.42 41.748s-9.1-9.868-25.04-7.591ZM1799.2 336.845c21.25 6.072 41.75 22.012 44.78 23.531 3.04 1.518 29.61 3.036 31.88 0 2.28-3.037 10.63-23.531 24.29-41.748-18.21 6.831-28.84 27.326-28.84 27.326s-8.35-15.941-6.07-34.917c-12.15 12.145-6.83 29.603-6.83 29.603-12.51-9.048-15.94-20.494-36.44-22.771 20.5 15.181 19.74 25.807 19.74 25.807s-26.57-10.626-42.51-6.831ZM1800.72 371.761c-6.84 10.626-7.59 28.844-8.35 31.121-.76 2.277-22.02 3.795-23.53 0-1.52-3.796-4.56-13.663-21.26-23.531 13.66 0 26.57 11.386 26.57 11.386s2.28-9.868-4.56-23.531c6.08 2.277 9.11 10.627 9.11 10.627s4.56-19.735 18.98-28.085c-7.59 12.145-7.59 33.398-7.59 33.398s3.79-9.867 10.63-11.385ZM1788.57 574.429c16.7 20.495 15.19 35.676 15.94 37.194.76 1.518 28.85 5.313 29.61 3.795.76-1.518 1.52-17.458 28.08-29.603-15.18 0-26.56 12.145-26.56 12.145s-3.04-9.868 6.07-21.253c-6.83 1.518-9.11 9.108-9.11 9.108 2.28-8.349 3.04-13.663 1.52-30.362-2.28 23.531-12.91 38.712-12.91 38.712s1.52-14.422-3.03-25.049c0 19.735-4.56 28.085-4.56 28.085s-10.62-15.94-25.05-22.772ZM1782.12 188.831c-22.01 7.591-38.71 35.676-38.71 35.676s-9.87-28.844-30.36-42.507c16.7 20.494 22.01 47.061 21.25 46.302-.76-.759-9.11-12.904-21.25-14.422 7.59 5.314 15.18 18.977 17.46 20.495 2.27 1.518 17.45 3.036 19.73 0 2.28-3.037 3.8-20.495 31.88-45.544ZM1754.1 698.157c-22.01 9.868-20.49 20.495-22.01 22.013-1.52 1.518-24.29 3.036-26.57 0-2.27-3.036-.76-14.422-14.42-28.085 12.91 3.795 19.74 17.458 19.74 17.458s-2.28-19.735-14.43-37.193c15.95 8.349 22.78 27.325 22.78 27.325 3.79-9.108 7.59-23.53 24.29-35.675-14.43 24.29-14.43 41.748-14.43 41.748s9.11-9.868 25.05-7.591ZM1406.71 842.818c-10.73 5.693-24.71 24.927-24.71 24.927s-9.51 5.147-17.61.274c0 0-23.5-28.184-31.39-33.33 10.33.273 22.68 12.463 22.68 12.463s-3.45-25.2-19.44-47.152c15.19 5.146 28.35 43.357 28.35 43.357s-.61-23.037-7.29-35.766c11.14 11.112 15.39 36.312 15.39 36.312s9.11-12.19 15.8-31.432c-3.04 20.32-8.71 42.545-8.71 42.545s14.98-14.642 26.93-12.198Z" fill="#7FA024"/><path d="M1654.24 713.049c-.5-6.543-12.08-5.534-12.08 3.021-3.02-5.033-16.61-3.021-14.09 6.042-13.09.501-10.58 16.608-1.52 14.596-9.06 5.534-1 16.608 5.54 10.566-2.01 8.555 11.57 9.063 13.59 2.52 1 6.042 15.6 8.555 15.09-2.011 3.02 7.044 14.1 4.03 12.08-5.033 5.53 4.023 15.61-7.553 3.52-13.086 8.06-7.553-1.01-18.619-8.55-12.076 4.04-7.56-9.05-14.104-13.58-4.539Z" fill="#C1D375"/><path d="M1640.65 734.69c.77 3.582 21.14 4.023 19.13-3.522-2.02-7.553-20.64-3.522-19.13 3.522Z" fill="#7FA024"/><path d="m59.512 623.678 28.008-3.471c14.696-1.824 28.088 8.614 29.911 23.31l28.883 232.787-81.222 10.08-28.884-232.787c-1.83-14.704 8.607-28.095 23.304-29.919Z" fill="#8A9995"/><path d="m119.106 657.552-81.228 10.076.65 5.24 81.228-10.075-.65-5.241ZM122.687 686.368l-81.228 10.075.65 5.241 81.228-10.076-.65-5.24ZM126.26 715.194 45.032 725.27l.65 5.24 81.228-10.076-.65-5.24ZM129.834 744.012l-81.228 10.076.65 5.241 81.228-10.076-.65-5.241ZM133.404 772.838l-81.228 10.076.65 5.241 81.228-10.076-.65-5.241ZM136.981 801.664l-81.228 10.075.65 5.241 81.228-10.076-.65-5.24ZM140.558 830.479 59.33 840.555l.65 5.24 81.228-10.076-.65-5.24Z" fill="#72645D"/><path d="m154.153 799.155 5.791 73.659 91.631-7.206-12.713-161.687-58.408 38.941-14.573 44.528-11.728 11.765Z" fill="#EFE6E4"/><path d="m148.631 806.412-2.494-2.604 18.168-17.41 14.632-44.689 58.926-39.291 1.998 3.005-57.89 38.591-14.522 44.36-18.818 18.038Z" fill="#3D3B38"/><path d="m223.567 762.893-19.763 1.554 1.413 17.967 19.763-1.554-1.413-17.967ZM205.817 813.094l-37.73 2.968 2.402 30.538 37.73-2.967-2.402-30.539ZM247.287 811.639l-34.138 2.684.282 3.592 34.138-2.685-.282-3.591Z" fill="#fff"/><path d="m247.43 813.431-30.546 2.402 4.097 52.097 30.546-2.402-4.097-52.097Z" fill="#fff"/><path d="m243.977 815.514-23.354 1.837 3.673 46.709 23.355-1.837-3.674-46.709Z" fill="#897F7D"/><path d="m249.358 860.357-25.681-44.98-3.151.248 29.116 48.328-.284-3.596Z" fill="#fff"/><path d="m243.887 813.785-21.196 52.282 3.589-.277 20.152-52.201-2.545.196Z" fill="#fff"/><path d="m186.34 818.237-14.375 1.13 1.837 23.355 14.375-1.13-1.837-23.355Z" fill="#897F7D"/><path d="m180.804 816.865-3.592.282 2.12 26.947 3.591-.283-2.119-26.946Z" fill="#fff"/><path d="m188.561 823.488-19.763 1.554.282 3.592 19.763-1.554-.282-3.592ZM189.268 832.464l-19.763 1.555.283 3.592 19.763-1.554-.283-3.593Z" fill="#fff"/><path d="m220.255 766.768-12.579.989.847 10.776 12.579-.989-.847-10.776Z" fill="#897F7D"/><path d="m214.722 765.396-1.796.141 1.131 14.375 1.796-.141-1.131-14.375Z" fill="#fff"/><path d="m222.338 770.217-17.966 1.413.141 1.796 17.967-1.413-.142-1.796Z" fill="#fff"/><path d="m204.304 816.822-14.375 1.13 1.837 23.355 14.375-1.13-1.837-23.355Z" fill="#897F7D"/><path d="m198.776 815.448-3.592.282 2.119 26.947 3.592-.282-2.119-26.947Z" fill="#fff"/><path d="m206.525 822.071-19.763 1.554.282 3.592 19.763-1.554-.282-3.592ZM207.232 831.056l-19.763 1.554.283 3.592 19.763-1.554-.283-3.592Z" fill="#fff"/><path d="m335.366 784.905 5.791 73.659-91.638 7.206-12.713-161.687 63.776 29.328 21.356 41.706 13.428 9.788Z" fill="#EFE6E4"/><path d="m341.945 791.203 2.057-2.953-20.663-14.362-21.436-41.858-64.345-29.584-1.503 3.275 63.208 29.066 21.275 41.545 21.407 14.871Z" fill="#3D3B38"/><path d="m262.557 778.054 19.763-1.554-1.413-17.967-19.763 1.554 1.413 17.967ZM287.13 837.579l37.73-2.968-2.402-30.538-37.73 2.967 2.402 30.539ZM245.618 815.533l34.137-2.684-.282-3.592-34.138 2.684.283 3.592Z" fill="#fff"/><path d="m249.572 865.84 30.546-2.402-4.097-52.098-30.546 2.402 4.097 52.098Z" fill="#fff"/><path d="m252.884 861.959 23.355-1.837-3.673-46.71-23.355 1.837 3.673 46.71Z" fill="#897F7D"/><path d="m250.895 860.232 18.336-48.437 3.144-.248-21.203 52.281-.277-3.596Z" fill="#fff"/><path d="m249.012 813.386 29.117 48.321-3.596.284-28.066-48.401 2.545-.204Z" fill="#fff"/><path d="m306.604 832.43 14.375-1.13-1.837-23.355-14.375 1.13 1.837 23.355Z" fill="#897F7D"/><path d="m312.14 833.801 3.591-.282-2.119-26.947-3.592.282 2.12 26.947Z" fill="#fff"/><path d="m303.68 818.203 19.762-1.555-.282-3.591-19.763 1.554.283 3.592ZM304.383 827.181l19.763-1.554-.283-3.592-19.762 1.554.282 3.592Z" fill="#fff"/><path d="m265.862 774.173 12.579-.989-.848-10.776-12.579.989.848 10.776Z" fill="#897F7D"/><path d="m271.398 775.544 1.796-.142-1.131-14.375-1.796.142 1.131 14.375Z" fill="#fff"/><path d="m263.649 768.931 17.967-1.413-.142-1.796-17.966 1.413.141 1.796Z" fill="#fff"/><path d="m288.644 833.839 14.375-1.13-1.837-23.355-14.375 1.131 1.837 23.354Z" fill="#897F7D"/><path d="m294.173 835.212 3.592-.282-2.12-26.947-3.591.282 2.119 26.947Z" fill="#fff"/><path d="m285.713 819.614 19.763-1.554-.283-3.592-19.763 1.554.283 3.592ZM286.428 828.592l19.762-1.554-.282-3.592L286.145 825l.283 3.592Z" fill="#fff"/><path d="m204.477 1193.37-2.61-.29 20.108-191.96 2.61.28-20.108 191.97ZM254.413 1193.79l-21.931-192.32 2.61-.24 21.932 192.32-2.611.24Z" fill="#72645D"/><path d="m256.819 1148.17-57.808-.48-.011-2.54 57.802.5.017 2.52ZM253.975 1102.65l-49.92-.43-.017-2.52 49.921.42.016 2.53ZM245.888 1059.6l-34.158-.29-.011-2.53 34.158.29.011 2.53ZM237.802 1016.55l-21.023-.17-.011-2.53 21.023.17.011 2.53Z" fill="#72645D"/><path d="m227.483 952 3.098 20.241 3.004.022 7.41-18.706L227.483 952ZM248.593 959.145l-12.188 16.561 2.189 2 18.822-8.502-8.823-10.059ZM259.64 975.257l-20.401 5.359.41 2.866 20.352 4.849-.361-13.074ZM255.35 996.24l-18.827-9.655-1.746 2.328 11.495 16.937 9.078-9.61ZM235.94 1008.38l-5.393-19.811-2.982.289-5.215 19.412 13.59.11ZM214.175 1003.51l10.198-17.774-2.405-1.762-17.703 10.464 9.91 9.072ZM201.367 988.647l19.632-7.499-.737-2.81-20.751-2.666 1.856 12.975ZM203.217 967.302l19.798 7.615 1.463-2.499-13.352-15.647-7.909 10.531Z" fill="#fff"/><path d="M228.548 1003.83c-11.59-.1-21.062-9.247-21.117-20.398-.056-11.152 9.333-20.147 20.923-20.047 11.589.099 21.061 9.25 21.116 20.407.05 11.151-9.333 20.138-20.922 20.038Zm-.183-37.918c-10.143-.089-18.357 7.782-18.307 17.542.044 9.76 8.336 17.766 18.478 17.856 10.143.08 18.357-7.786 18.307-17.546-.05-9.76-8.336-17.764-18.478-17.852Z" fill="#72645D"/><path d="M233.701 981.899c.465-2.749-1.48-5.371-4.344-5.856-2.864-.485-5.563 1.351-6.028 4.101-.466 2.749 1.479 5.371 4.343 5.856 2.864.485 5.563-1.351 6.029-4.101Z" fill="#D3B9B2"/><path d="M1841.12 899.382 1815.33 1085l-17.59-2.7 40.87-183.3 2.51.382Z" fill="#D1DBD1"/><path d="m1829.17 960.74 46.83 38.798-.5 2.562-48.32-31.13 1.99-10.23ZM1819.86 1088.33l-27.65-4.25.99-5.11 27.66 4.25-1 5.11ZM1829.17 960.74l-58.78 22.56-.49 2.558 57.28-14.888 1.99-10.23Z" fill="#D1DBD1"/><path d="m1831.17 950.517-20.05 131.203-9.43-1.45 29.48-129.753ZM1713.37 928.971l6.81 143.269-13.62.45 4.86-143.659 1.95-.06Z" fill="#D1DBD1"/><path d="m1713.04 976.812 40.71 22.576-.01 1.992-40.75-16.595.05-7.973ZM1724.06 1074.11l-21.41.7.03-3.98 21.41-.71-.03 3.99Z" fill="#D1DBD1"/><path d="m1713.04 976.812-41.02 25.278-.02 1.99 40.99-19.295.05-7.973Z" fill="#D1DBD1"/><path d="m1713.1 968.84 3.44 101.53-7.3.24 3.86-101.77Z" fill="#D1DBD1"/></g><defs><clipPath id="clip0_131_3493"><path fill="#fff" d="M0 0h1920v1986H0z"/></clipPath></defs></svg>