<svg width="1920" height="972" fill="none" xmlns="http://www.w3.org/2000/svg"><g clip-path="url('#clip0_131_3737')"><path fill="#fff" d="M0 0h1920v972H0z"/><path d="M1921 0H0v972h1921V0Z" fill="#96C22F"/><path d="M340.852 237.33c24.427 10.95 22.742 22.743 24.427 24.427 1.684 1.685 26.954 3.369 29.481 0 2.527-3.369.842-16.004 16.004-31.166-14.32 4.212-21.9 19.374-21.9 19.374s2.527-21.9 16.004-41.274c-17.689 9.266-25.27 30.324-25.27 30.324-4.211-10.108-8.423-26.112-26.954-39.589 16.004 26.954 16.004 46.327 16.004 46.327s-10.108-10.95-27.796-8.423ZM54 528.32c23.585 6.739 46.327 24.428 49.697 26.112 3.369 1.685 32.85 3.369 35.377 0 2.527-3.369 11.792-26.112 26.954-46.327-20.216 7.581-32.008 30.323-32.008 30.323s-9.265-17.688-6.739-38.746c-13.477 13.477-7.58 32.85-7.58 32.85-13.882-10.04-17.689-22.743-40.431-25.27 22.742 16.847 21.9 28.639 21.9 28.639S71.689 524.109 54 528.32ZM432 817.336c-5.604 8.718-6.226 23.661-6.849 25.529-.623 1.868-18.057 3.114-19.303 0-1.245-3.113-3.735-11.207-17.434-19.302 11.208 0 21.793 9.34 21.793 9.34s1.868-8.095-3.736-19.303c4.981 1.868 7.472 8.718 7.472 8.718s3.736-16.189 15.566-23.039c-6.226 9.963-6.226 27.397-6.226 27.397s3.113-8.094 8.717-9.34ZM304.977 847.845c2.347-1.04-15.567-1.868-13.699-4.359 1.868-2.49 44.832 0 56.039 0 11.208 0 10.586-23.038-12.453-19.302 1.868-8.094-6.849-12.453-11.83-8.717 3.113-8.095-3.113-16.812-11.208-13.699 11.208-33-28.642-29.265-44.831-16.811 2.49-4.982-1.868-10.586-6.227-7.472-1.245-19.303-25.529-9.34-27.397-6.227 1.868-5.604-5.604-28.019-27.397-13.698 5.604-21.171-18.68-29.888-34.869 0-1.868-11.831-36.114-18.057-29.887 12.453-3.736-1.245-23.039-2.491-16.812 13.698-3.113-1.868-21.17 3.736-8.717 14.321-5.604 0-29.888 8.095-18.68 29.888-7.472-5.604-26.152-4.359-17.434 9.963-3.736-1.246-11.208.622-13.076 4.981-1.868 4.358 2.49 4.981 8.717 4.981s224.157 2.491 229.761 0Z" fill="#7FA024"/><path d="M192.587 790.248c3.736 3.736-5.604 10.585-7.472 6.226-1.868-4.358 3.736-9.962 7.472-6.226ZM195.701 803.327c2.248 2.248-3.113 4.359-4.358 1.868-1.246-2.491 2.49-3.736 4.358-1.868ZM205.665 793.364c1.819 1.818-3.736 8.094-5.603 4.358-1.868-3.736 3.735-6.226 5.603-4.358ZM183.25 802.702c.28.834-3.736 2.49-4.981 0-1.246-2.491 3.735-3.736 4.981 0ZM177.02 792.741c-.541 2.18-6.226 1.868-4.981-1.245 1.245-3.113 5.604-1.245 4.981 1.245ZM174.531 809.556c1.245 1.868-2.491 4.981-4.359 2.49-1.868-2.49 3.113-4.358 4.359-2.49ZM172.041 802.082c.623 1.245-4.359 3.736-5.604.622-1.245-3.113 4.359-3.113 5.604-.622ZM215.005 806.44c-.623 1.868-7.472 1.245-6.227-1.245 1.245-2.491 6.849-.623 6.227 1.245ZM156.475 807.685c.623 2.49-4.358 4.981-5.604 3.113-1.245-1.868 4.981-5.604 5.604-3.113Z" fill="#512176"/><path d="M410.551 642.906s.318-10.501-13.364-7.637c22.592-11.773 3.5-24.501-3.182-19.092 7.955-44.229-30.865-41.684-46.457-37.547 27.047-49.321-25.774-49.321-45.184-34.365-17.5-48.048-61.412-17.501-60.139-.318-4.455-15.274-17.819-3.182-15.91 3.818-11.455-14.637-23.546-2.546-22.273 3.182-35.638-29.911-38.82 3.818-33.729 10.819-8.91-5.728-12.092 3.181-7.637 7.636-14.637-4.455-21.637 7.637-15.273 17.183-22.274-10.819-28.002 7-24.82 12.728-32.456-10.819-27.365 23.546-14 24.183-11.456 7.636-5.728 17.182 2.545 19.091 6.931 1.591 300.378 5.092 299.423.319Z" fill="#7FA024"/><path d="M324.637 570.355c-4.454-1.909-5.727 7.637-2.545 8.274 3.182.636 7-6.364 2.545-8.274ZM301.091 563.993c-2.113 1.686 1.909 7 4.454 5.091 2.546-1.909-1.272-7.637-4.454-5.091ZM313.184 576.084c-2.253-1.35-3.818 3.182-1.909 3.818 1.909.636 5.091-1.909 1.909-3.818ZM315.728 560.809c-2.501-.497-2.545 5.091 0 5.727 2.546.636 3.182-5.091 0-5.727ZM310.637 569.72c-2.546 1.273 2.545 3.818 3.818 2.546 1.273-1.273-1.273-3.819-3.818-2.546ZM225.359 576.083c-2.253-2.253-4.455 1.273-2.546 2.545 1.909 1.273 3.819-1.272 2.546-2.545ZM222.179 583.721c-.636 1.273 3.819.637 3.819 0 0-.636-3.182-1.273-3.819 0ZM211.359 583.719c0 1.909 3.819 2.546 3.819.637 0-1.91-3.819-2.546-3.819-.637ZM220.27 588.175c-2.177.726.636 3.182 2.546 1.909 1.909-1.272-.637-2.545-2.546-1.909ZM219.632 579.902c-2.622.636-.636 3.182.637 2.546 1.272-.637 1.909-3.182-.637-2.546ZM151.538 605.356c-1.273 2.546 1.273 3.819 3.182 1.273 1.909-2.545-1.909-3.818-3.182-1.273ZM156.63 607.904c-1.909 1.273.636 4.455 1.909 2.546 1.273-1.909 0-3.818-1.909-2.546ZM153.45 611.086c-1.909-1.273-3.818 0-2.546 1.273 1.273 1.272 4.455 0 2.546-1.273ZM143.265 610.451c-1.082 1.438 2.545 2.545 3.182 1.272.636-1.272-1.273-3.818-3.182-1.272ZM140.72 617.451c.446 1.349 4.455-.637 2.546-1.909-1.909-1.273-3.182 0-2.546 1.909Z" fill="#512176"/><path d="M315.03 230.877c14.615 0 44.643-.842 44.643-13.67 0-6.374-3.65-10.024-10.95-10.95 13.679-4.566 5.475-19.146.918-16.409 16.408-42.848-30.087-39.201-43.8-34.644 53.782-41.012-.91-57.42-19.138-50.135 12.761-17.318-8.204-20.957-10.95-17.318-5.466-43.75-63.805-35.546-68.362-15.49-61.077-40.111-83.861 20.047-76.567 30.989-37.373-.91-24.612 28.259-20.055 30.989-36.464 1.827-30.989 32.85-16.409 46.487-23.702 0-16.408 28.26-3.647 28.26-9.114.91-25.522-.91-24.612 12.761.547 8.137 4.557 8.204 20.965 9.114 16.408.909 221.563.016 227.964.016Z" fill="#7FA024"/><path d="M190.585 108.277c-6.385 6.385 1.819 13.671 9.113 6.385 7.295-7.286-2.737-12.761-9.113-6.385ZM161.418 133.8c3.631 9.99 15.499-4.557 10.95-7.286-4.548-2.729-14.597-2.738-10.95 7.286ZM195.143 131.094c-6.385 2.729-.91 9.113 7.294 6.376 8.204-2.738-.918-9.139-7.294-6.376Z" fill="#512176"/><path d="M1521.97 669.618c21.8 8.637 50.18 37.84 50.18 37.84s19.33 7.814 35.78.411c0 0 47.71-42.775 63.75-50.59-20.97.411-46.06 18.92-46.06 18.92s6.99-38.251 39.48-71.566c-30.84 7.815-57.58 65.808-57.58 65.808s1.23-34.961 14.81-54.292c-22.62 16.863-31.26 55.114-31.26 55.114s-18.51-18.508-32.08-47.71c6.17 30.847 17.68 64.574 17.68 64.574s-30.43-22.211-54.7-18.509ZM1698.18 723.656c18.92 8.226 39.49 42.775 39.49 42.775s13.16-55.114 35.37-75.679c-10.69 21.388-16.45 72.389-16.45 72.389s15.63-34.55 35.37-47.711c-13.16 18.097-22.21 66.63-23.86 69.098-1.64 2.468-34.54 15.63-37.84 9.871-3.29-5.758-10.69-40.307-32.08-70.743ZM1465 166.858s-.37-12.138 15.45-8.827c-26.11-13.609-4.05-28.321 3.68-22.068-9.2-51.123 35.67-48.181 53.7-43.4-31.27-57.008 29.79-57.008 52.22-39.721 20.23-55.537 70.99-20.23 69.52-.368 5.14-17.654 20.59-3.678 18.39 4.413 13.24-16.918 27.21-2.942 25.74 3.678 41.19-34.572 44.87 4.414 38.99 12.505 10.3-6.62 13.97 3.678 8.82 8.827 16.92-5.149 25.01 8.827 17.66 19.861 25.74-12.505 32.36 8.092 28.69 14.712 37.51-12.505 31.63 27.217 16.18 27.952 13.24 8.827 6.62 19.861-2.94 22.068-8.01 1.839-347.2 5.884-346.1.368Z" fill="#7FA024"/><path d="M1564.3 83.002c5.15-2.207 6.63 8.827 2.95 9.563-3.68.735-8.09-7.356-2.95-9.563ZM1591.52 75.644c2.44 1.949-2.2 8.09-5.14 5.884-2.95-2.207 1.47-8.827 5.14-5.885ZM1577.55 89.622c2.6-1.559 4.41 3.678 2.2 4.414-2.2.736-5.88-2.207-2.2-4.414ZM1574.6 71.966c2.89-.574 2.95 5.884 0 6.62-2.94.736-3.67-5.885 0-6.62ZM1580.49 82.262c2.94 1.472-2.94 4.414-4.41 2.943-1.47-1.471 1.47-4.414 4.41-2.943ZM1679.06 89.621c2.6-2.604 5.15 1.472 2.94 2.943-2.2 1.47-4.41-1.471-2.94-2.943ZM1682.74 98.449c.73 1.471-4.42.736-4.42 0s3.68-1.471 4.42 0ZM1690.09 87.415c2.21 1.472-1.47 5.885-2.94 3.678-1.47-2.206.74-5.149 2.94-3.678ZM1695.24 98.448c0 2.206-4.41 2.942-4.41.735 0-2.207 4.41-2.942 4.41-.735ZM1684.94 103.598c2.52.839-.73 3.678-2.94 2.207s.74-2.943 2.94-2.207ZM1685.68 94.033c3.03.736.74 3.678-.73 2.942-1.48-.735-2.21-3.677.73-2.942ZM1764.39 123.457c1.47 2.943-1.48 4.414-3.68 1.472-2.21-2.943 2.2-4.414 3.68-1.472ZM1758.5 126.398c2.21 1.471-.73 5.149-2.2 2.943-1.48-2.207 0-4.414 2.2-2.943ZM1762.18 130.078c2.21-1.471 4.41 0 2.94 1.471-1.47 1.471-5.15 0-2.94-1.471ZM1773.95 129.343c1.25 1.662-2.94 2.942-3.68 1.471-.73-1.471 1.47-4.413 3.68-1.471ZM1776.89 137.436c-.52 1.559-5.15-.736-2.94-2.207 2.21-1.471 3.68 0 2.94 2.207Z" fill="#512176"/><path d="M1583.48 563.703c-13.17 0-40.31-.822-40.31-12.339 0-5.758 3.29-9.048 9.87-9.871-12.34-4.113-4.94-17.275-.82-14.807-14.81-38.662 27.14-35.372 39.48-31.259-48.53-37.017.82-51.823 17.28-45.243-11.52-15.629 7.4-18.919 9.87-15.629 4.93-39.485 57.58-32.081 61.69-13.984 55.12-36.194 75.68 18.097 69.1 27.968 33.73-.822 22.21 25.501 18.1 27.969 32.9 1.645 27.97 29.613 14.8 41.952 21.39 0 14.81 25.501 3.29 25.501 8.23.822 23.04-.823 22.21 11.516-.48 7.338-4.11 7.404-18.91 8.226-14.81.823-199.9 0-205.65 0Z" fill="#7FA024"/><path d="M1695.76 453.063c5.76 5.758-1.64 12.339-8.22 5.758-6.59-6.58 2.46-11.516 8.22-5.758ZM1722.08 476.095c-3.29 9.049-13.98-4.113-9.87-6.581 4.11-2.468 13.16-2.468 9.87 6.581ZM1691.65 473.623c5.76 2.468.82 8.226-6.58 5.759-7.4-2.468.82-8.226 6.58-5.759ZM1631.6 512.288c5.75 5.759-5.76 9.049-8.23 4.113-2.47-4.935 2.47-9.871 8.23-4.113ZM1598.69 509.82c4.12-8.226 11.52-3.29 8.23 4.113-3.29 7.403-12.34 4.113-8.23-4.113Z" fill="#512176"/></g><defs><clipPath id="clip0_131_3737"><path fill="#fff" d="M0 0h1920v972H0z"/></clipPath></defs></svg>