<svg width="1920" height="2115" fill="none" xmlns="http://www.w3.org/2000/svg"><g clip-path="url('#clip0_131_3046')"><path fill="#fff" d="M0 0h1920v2115H0z"/><path d="M1921 0H0v2115h1921V0Z" fill="#96C22F"/><path d="M-77.19 525.517s-4.164-117.917-3.786-118.049c144.164-48.803 310.416-92.989 592.703-60.014 114.059 13.322 292.346 85.734 423.99 64.281 151.833-24.758 301.333-53.478 415.873-84.725C1622.72 253.041 2009 236 2009 236v127.282s-739.55-72.544-1042.339 200.485C576.432 427.912-77.191 525.517-77.191 525.517ZM2009 894.172s-296.73 27.039-399.68 57.949c-102.94 30.911-361.07 97.029-634.332 71.409-180.801-16.95-371.669-28.904-457.963-32.413-194.54-7.914-585.89 34.953-585.89 34.953l-8.326 294.13c780.429 204.45 1827.311 24.78 2086.191-12.53V894.172Z" fill="#7FA024"/><path d="M2009 389.866s-179.4-31.201-417.85-18.011c-238.44 13.19-476.88 72.544-476.88 72.544s-214.981 182.818-367.888 81.117C519.293 374.493-77.194 551.375-77.194 551.375l-3.784 255.995s695.649-107.748 856.882-52.35c161.233 55.397 397.406 38.91 547.286-9.233 149.88-48.143 391.56-80.412 470.56-47.484 78.99 32.929 215.25 84.969 215.25 84.969V389.866Z" fill="#7FA024"/><path opacity=".21" d="M-77.194 578.935s162.747-62.652 312.626-67.928c149.879-5.276 601.786 73.863 733.498 67.928 131.71-5.935 380.54-167.57 644.45-174.798 263.91-7.228 395.62 33.667 395.62 33.667V1225.9s-508.68 108.81-1051.425 106.83c-542.743-1.97-1034.769-149.04-1034.769-149.04s476.13 185.32 844.014 193.89c367.88 8.57 722.14-58.7 722.14-58.7s-485.97 98.93-809.947 87.72c-323.981-11.21-759.992-131.9-759.992-131.9l3.785-695.765Z" fill="#305937"/><path opacity=".21" d="M-77.95 667.308s167.288-58.695 317.167-63.971c149.879-5.276 587.403 61.992 719.115 56.057 131.708-5.935 425.688-156.332 689.598-163.554 263.9-7.221 361.07 50.781 361.07 50.781v567.819s-508.68 220.27-1051.425 218.29c-542.743-1.97-1034.769-149.04-1034.769-149.04s476.13 185.32 844.014 193.89c367.88 8.57 722.14-58.69 722.14-58.69s-485.97 98.92-809.947 87.71c-323.981-11.21-759.992-131.9-759.992-131.9l3.028-607.392Z" fill="#305937"/><path d="M-9.316 1374.81s-3.905-98.91-3.55-99.02c135.218-40.93 291.153-78 555.922-50.34 106.982 11.18 274.205 71.92 397.68 53.92 142.414-20.76 282.634-44.86 390.064-71.07 254.31-62.04 616.62-76.34 616.62-76.34v106.77s-693.66-60.85-977.66 168.17c-366.014-113.96-979.076-32.09-979.076-32.09ZM1947.42 1684.05s-278.32 22.68-374.88 48.61c-96.56 25.92-338.66 81.39-594.97 59.9-169.581-14.22-348.605-24.25-429.544-27.19-182.468-6.64-549.533 29.32-549.533 29.32l-7.81 246.72c732 171.49 1713.917 20.78 1956.737-10.51v-346.85Z" fill="#7FA024"/><path d="M1947.41 1261.03s-168.26-26.17-391.91-15.11c-223.65 11.07-447.3 60.85-447.3 60.85s-201.632 153.35-345.05 68.05c-212.997-126.69-772.47 21.69-772.47 21.69l-3.55 214.73s652.482-90.38 803.709-43.91c151.228 46.46 372.741 32.63 513.321-7.75 140.58-40.38 367.27-67.45 441.36-39.83 74.09 27.62 201.89 71.28 201.89 71.28v-330Z" fill="#7FA024"/><path opacity=".21" d="M-9.32 1419.62s152.649-52.55 293.227-56.98c140.578-4.42 564.442 61.96 687.98 56.98 123.543-4.98 356.923-140.56 604.453-146.62 247.54-6.07 371.07 28.24 371.07 28.24v661.06s-477.11 91.28-986.173 89.62C452.174 2050.26-9.319 1926.9-9.319 1926.9s446.583 155.45 791.639 162.64c345.05 7.19 677.33-49.24 677.33-49.24s-455.81 82.98-759.689 73.58c-303.876-9.41-712.83-110.64-712.83-110.64l3.55-583.62Z" fill="#305937"/><path opacity=".21" d="M-10.03 1493.75s156.909-49.23 297.487-53.66c140.578-4.42 550.952 52 674.49 47.02 123.543-4.98 399.273-131.13 646.803-137.19 247.53-6.06 338.66 42.6 338.66 42.6v476.29s-477.11 184.77-986.173 183.11C452.174 2050.26-9.319 1926.9-9.319 1926.9s446.583 155.45 791.639 162.64c345.05 7.19 677.33-49.24 677.33-49.24s-455.81 82.98-759.689 73.58c-303.876-9.41-712.83-110.64-712.83-110.64l2.84-509.49Z" fill="#305937"/><path d="M302.351 336.01s-6.688 20.075-23.419 30.107c-16.731 10.031-23.419 13.387-20.075 16.779 3.344 3.392 8.389-5.022 11.709-1.678 3.32 3.344-3.344 6.699 0 10.043 3.344 3.344 6.688-3.344 10.032 0 3.344 3.344-13.376 20.075-20.063 23.419-6.688 3.344-13.388 6.688-13.388 10.032 0 3.344 10.032 3.344 13.388 0s6.687-10.032 10.031-6.688c3.344 3.344 0 6.688 3.344 6.688s3.344-3.344 6.688 0-6.688 13.387-13.376 16.779c-6.687 3.392-35.955 10.092-36.806 16.779-.659 4.95 7.958 4.95 11.65 4.95 3.691 0 3.679 1.199 2.397 4.926-1.283 3.728 1.198 6.148 6.148 6.148 4.95 0 13.531-8.605 17.211-8.605 3.679 0 4.926 3.679 2.469 7.371-2.457 3.691-35.668 27.062-49.199 34.433-13.532 7.371-27.051 13.532-28.285 18.457-1.235 4.926 12.296 6.149 15.988 4.914 3.691-1.234 6.148-2.457 7.383-1.198 1.234 1.258 1.198 7.383 9.84 7.383 8.641 0 14.753-8.606 15.988-8.606 1.234 0 1.198 7.371 6.148 7.371 4.95 0 7.371-6.148 9.828-6.148 2.457 0 3.691 2.469 1.198 8.617-2.493 6.149-41.816 41.804-57.804 51.644-15.988 9.84-36.89 12.297-38.113 14.766-1.222 2.469 1.199 8.605 17.211 9.827 16.012 1.223 22.137-3.679 23.371-4.913 1.234-1.235 2.397 0 2.397 3.691s0 4.914 4.914 4.914 9.84-9.84 11.074-8.605c1.235 1.234 0 6.148 3.692 9.839 3.691 3.692 8.605-1.198 11.062-1.198 2.457 0 3.691 2.469 2.457 4.926-1.235 2.457-22.137 33.199-49.139 52.878-27.003 19.68-60.154 26.835-60.154 29.304 0 2.469 7.383 8.605 17.223 8.605s14.754 0 14.754 1.199c0 1.198 2.457 9.828 9.84 8.605 7.382-1.222 24.593-11.074 27.05-11.074 2.457 0-1.199 12.296 7.383 13.531 8.581 1.234 13.531-9.84 14.754-9.84 1.222 0-2.397 12.297 7.382 11.074 9.78-1.222 20.902-17.222 23.359-17.222 2.457 0-2.457 9.84 2.469 11.074 4.926 1.235 19.668-8.617 22.137-8.617 2.469 0 1.198 14.765 8.605 13.531 7.407-1.235 11.063-11.062 17.211-11.062 6.148 0 11.074 9.827 15.988 9.827s1.199-11.062 6.148-12.296c4.95-1.235 11.075 8.617 19.68 8.617s2.457-11.074 8.605-12.309c6.149-1.234 17.223 11.075 23.371 11.075 6.149 0 2.397-9.84 7.383-11.075 4.986-1.234 13.519 13.532 19.668 13.532 6.148 0-1.199-13.532 2.469-13.532 3.667 0 14.753 8.618 22.136 8.618 7.383 0 3.692-12.297 7.371-12.297 3.68 0 7.383 7.371 17.223 6.148 9.84-1.222 12.296-4.926 9.84-7.383-2.457-2.457-39.36-25.827-66.41-51.655-27.051-25.828-30.73-35.62-28.333-39.312 2.397-3.691 8.605 6.148 13.519 4.914s-2.457-11.062 1.199-12.297c3.655-1.234 12.297 11.075 22.136 11.075 9.84 0 6.149-6.149 6.149-8.618 0-2.469 18.445 2.469 19.679-2.397 1.235-4.866-34.433-14.753-57.804-31.976-23.371-17.223-30.742-43.039-30.742-46.742 0-3.703 6.148-2.457 8.605 0 2.457 2.457 15.989 8.605 18.446 8.605 2.457 0 3.691-6.148 4.925-6.148 1.235 0 3.692 6.148 11.063 6.148s4.926-4.914 7.383-6.148c2.457-1.235 8.605 0 14.753-1.199 6.149-1.198 4.926-3.691 0-4.926-4.926-1.234-27.05-9.839-49.139-28.284-22.088-18.445-25.828-27.051-24.593-29.508 1.234-2.457 12.297 3.68 14.753 3.68 2.457 0 3.692-4.914 4.914-4.914 1.223 0 8.618 4.914 11.075 3.691 2.457-1.222-2.457-7.383-1.199-8.605 1.259-1.223 15.988 2.397 14.766-1.199-1.223-3.595-14.766-3.691-28.285-12.296-13.519-8.606-27.063-23.371-25.828-25.828 1.234-2.457 8.605 6.148 12.297 4.925 3.691-1.222 3.691-3.691 4.914-2.468 1.222 1.222 2.469 3.691 4.925 3.691 2.457 0-1.198-4.914 2.397-3.691 3.596 1.222 8.606 2.469 8.606 0s-7.371-6.149-22.137-18.446c-14.765-12.296-12.296-23.359-12.296-23.359s8.605 4.914 11.074 3.68c2.469-1.235 0-4.914 2.457-4.914s11.062 1.198 9.84-1.199c-1.223-2.397-9.84 1.199-24.594-14.753-14.754-15.952-14.646-28.009-18.361-27.602Z" fill="#305937"/><path d="M33.574 435.738s-9.828 19.668-22.137 27.051c0 2.397 13.532-4.914 14.766-2.457 1.235 2.457-20.914 25.828-29.52 30.742 2.458 3.691 17.223-4.914 18.446-2.457 1.222 2.456-20.902 24.593-31.977 31.976 4.926 4.914 24.606-7.383 25.828-4.926 1.223 2.457-34.433 44.273-45.543 49.199 1.198 3.68 27.05-7.383 28.285-4.926 1.234 2.457-33.211 49.139-44.273 56.57 2.397 4.926 25.828-11.062 28.285-6.148 2.457 4.914-41.816 52.878-52.879 59.026 2.457 3.692 40.582-8.605 41.804-4.914 1.223 3.692-38.124 54.113-55.335 62.719 1.199 4.926 39.347-12.297 41.816-7.383 2.47 4.914-47.94 52.89-63.952 61.496 0 6.148 61.483-9.84 62.718-6.149 1.234 3.692-47.94 39.347-62.718 46.742 0 4.926 134.041-17.211 142.623-17.211 8.581 0 148.795 19.668 152.486 14.754-27.05-9.84-66.409-36.89-65.175-41.816 1.235-4.926 62.719 11.074 65.175 4.926-34.433-20.914-72.558-56.57-70.101-60.261 2.457-3.692 44.274 11.062 45.544 4.914-38.125-27.051-57.804-59.027-56.57-62.719 1.235-3.691 41.816 12.297 44.273 4.914-38.125-28.285-59.027-51.643-57.804-56.569 1.222-4.926 33.211 9.839 34.433 3.691-27.05-22.137-47.94-51.644-46.742-55.335 1.199-3.692 27.063 7.37 28.285 2.457-27.05-18.446-44.273-40.582-41.816-43.039 2.457-2.457 20.914 6.148 23.37 1.199-14.753-9.84-34.432-28.286-34.432-31.977 0-3.691 17.222 4.926 18.445 1.199-14.754-12.297-25.828-25.828-25.828-28.285 0-2.457 8.617 2.397 9.84-1.199-12.237-9.827-19.62-25.804-19.62-25.804ZM492.411 357.486s-8.462 15.737-19.032 21.634c0 1.965 11.637-3.932 12.692-1.966 1.054 1.965-17.978 20.65-25.373 24.581 2.11 2.949 14.802-3.931 15.857-1.965 1.054 1.965-17.978 19.656-27.494 25.564 4.23 3.931 21.153-5.908 22.208-3.931 1.055 1.978-29.603 35.392-39.119 39.323 1.054 2.948 23.263-5.896 24.318-3.931 1.054 1.966-28.549 39.335-38.065 45.232 2.121 3.931 22.208-8.857 24.318-4.914 2.109 3.943-35.956 42.272-45.46 47.197 2.109 2.949 34.889-6.891 35.955-3.942 1.067 2.948-32.767 43.266-47.569 50.145 1.055 3.943 33.822-9.828 35.956-5.896 2.133 3.931-41.229 42.283-54.976 49.139 0 4.914 52.854-7.863 53.933-4.914 1.079 2.948-41.241 31.461-53.933 37.357 0 3.944 115.237-13.758 122.644-13.758 7.407 0 127.917 15.724 131.093 11.793-23.263-7.863-57.097-29.496-56.03-33.427 1.066-3.931 53.933 8.845 56.03 3.931-29.603-16.719-62.322-45.232-60.261-48.18 2.061-2.948 38.065 8.857 39.119 3.931-32.779-21.573-49.69-47.197-48.635-50.145 1.054-2.949 35.955 9.839 38.065 3.943-32.78-22.616-50.758-41.301-49.691-45.232 1.067-3.931 28.537 7.862 29.603 2.948-23.263-17.702-41.24-41.301-40.186-44.249 1.055-2.948 23.263 5.897 24.318 1.966-23.251-14.742-38.053-32.444-35.955-34.41 2.097-1.965 17.977 4.914 20.087.983-12.68-7.874-29.603-22.616-29.603-25.564 0-2.949 14.801 3.931 15.856.982-12.68-9.839-22.197-20.65-22.197-22.615 0-1.966 7.395 1.965 8.462-.983-10.595-7.839-16.935-20.627-16.935-20.627ZM462.269 1468.61s6.688 20.07 23.419 30.1c16.731 10.03 23.419 13.39 20.075 16.78-3.344 3.39-8.39-5.02-11.709-1.68-3.32 3.35 3.343 6.7 0 10.05-3.344 3.34-6.7-3.35-10.044 0-3.344 3.34 13.387 20.07 20.075 23.42 6.688 3.34 13.387 6.68 13.387 10.03 0 3.34-10.043 3.34-13.387 0-3.344-3.35-6.688-10.03-10.031-6.69-3.344 3.34 0 6.69-3.344 6.69s-3.356-3.35-6.7 0c-3.344 3.34 6.7 13.38 13.387 16.78 6.688 3.39 35.956 10.09 36.807 16.78.647 4.95-7.958 4.95-11.65 4.95-3.691 0-3.691 1.19-2.397 4.92 1.295 3.73-1.198 6.15-6.148 6.15-4.95 0-13.531-8.61-17.223-8.61-3.691 0-4.914 3.68-2.457 7.38 2.457 3.69 35.668 27.06 49.199 34.43 13.531 7.37 27.051 13.53 28.285 18.46 1.235 4.92-12.297 6.14-15.988 4.91-3.692-1.23-6.148-2.46-7.383-1.2-1.234 1.26-1.198 7.38-9.84 7.38-8.641 0-14.753-8.6-15.988-8.6-1.234 0-1.198 7.37-6.148 7.37-4.95 0-7.371-6.15-9.84-6.15-2.469 0-3.692 2.47-1.199 8.62 2.493 6.15 41.805 41.8 57.793 51.64 15.988 9.84 36.902 12.3 38.124 14.77 1.223 2.47-1.198 8.6-17.21 9.83-16.012 1.22-22.137-3.68-23.371-4.92-1.235-1.23-2.457 0-2.457 3.69s0 4.92-4.926 4.92-9.828-9.84-11.062-8.61c-1.235 1.24 0 6.15-3.692 9.84-3.691 3.69-8.605-1.2-11.062-1.2-2.457 0-3.691 2.47-2.469 4.93 1.223 2.46 22.137 33.2 49.139 52.88 27.003 19.68 60.261 27.05 60.261 29.52 0 2.47-7.383 8.6-17.222 8.6-9.84 0-14.754 0-14.754 1.2s-2.457 9.83-9.84 8.61c-7.383-1.23-24.593-11.08-27.05-11.08-2.457 0 1.198 12.3-7.383 13.53-8.581 1.24-13.531-9.84-14.754-9.84-1.222 0 2.397 12.3-7.383 11.08-9.78-1.22-20.902-17.22-23.371-17.22-2.469 0 2.469 9.83-2.457 11.07-4.926 1.23-19.679-8.62-22.136-8.62-2.457 0-1.199 14.77-8.605 13.53-7.407-1.23-11.075-11.06-17.223-11.06s-11.062 9.83-15.988 9.83-1.199-11.06-6.149-12.3c-4.95-1.23-11.062 8.62-19.667 8.62-8.606 0-2.469-11.07-8.618-12.31-6.148-1.23-17.21 11.07-23.359 11.07-6.148 0-2.457-9.83-7.382-11.07-4.926-1.23-13.532 13.53-19.68 13.53s1.198-13.53-2.397-13.53c-3.596 0-14.754 8.62-22.137 8.62-7.382 0-3.691-12.3-7.382-12.3-3.692 0-7.371 7.37-17.211 6.15-9.84-1.22-12.297-4.93-9.84-7.38 2.457-2.46 39.359-25.83 66.41-51.66 27.05-25.83 30.742-35.66 28.285-39.35-2.457-3.69-8.606 6.15-13.532 4.92-4.925-1.24 2.469-11.06-1.198-12.3-3.667-1.23-12.297 11.07-22.137 11.07-9.839 0-6.148-6.14-6.148-8.61 0-2.47-18.457 2.47-19.68-2.4-1.222-4.87 34.434-14.75 57.805-31.98 23.371-17.22 30.742-43.03 30.742-46.74 0-3.7-6.149-2.45-8.606 0-2.457 2.46-15.988 8.61-18.457 8.61-2.469 0-3.679-6.15-4.914-6.15-1.234 0-3.691 6.15-11.074 6.15s-4.914-4.92-7.371-6.15c-2.457-1.24-8.605 0-14.766-1.2-6.16-1.2-4.913-3.69 0-4.93 4.914-1.23 27.063-9.83 49.199-28.28 22.137-18.45 25.828-27.05 24.594-29.51-1.235-2.45-12.297 3.68-14.754 3.68-2.457 0-3.691-4.91-4.926-4.91-1.234 0-8.605 4.91-11.062 3.69-2.457-1.22 2.397-7.38 1.199-8.61-1.199-1.22-15.977 2.4-14.754-1.19 1.222-3.6 14.754-3.7 28.285-12.3 13.531-8.61 27.062-23.37 25.828-25.83-1.235-2.46-8.606 6.15-12.297 4.93-3.691-1.23-3.691-3.69-4.926-2.47-1.234 1.22-2.457 3.69-4.914 3.69s1.199-4.91-2.457-3.69c-3.655 1.22-8.617 2.47-8.617 0s7.383-6.15 22.136-18.45c14.754-12.29 12.309-23.36 12.309-23.36s-8.617 4.92-11.074 3.68c-2.457-1.23 0-4.91-2.457-4.91s-11.074 1.2-9.84-1.2c1.235-2.4 9.84 1.2 24.594-14.75 14.753-15.96 14.61-28.19 18.337-27.78Z" fill="#305937"/><path d="M147.575 607.843c8.701-.144 14.478 72.366 19.536 72.69 5.058.324 19.667-22.352 24.186-18.17 4.518 4.183-20.375 32.468-19.764 42.368.612 9.9 4.399 10.439 7.587 7.359 3.188-3.08 11.649-18.385 14.73-15.197 3.08 3.188-9.001 19.176-13.28 29.962-4.279 10.787-3.727 20.675 1.882 17.151 5.609-3.523 16.779-24.317 19.895-21.129 3.116 3.188-8.39 22.771-10.87 29.483-2.481 6.712-.204 12.536 4.961 6.592 5.166-5.945 35.956-42.811 39.995-41.061 4.039 1.749-4.926 20.902-13.831 33.786s-30.215 33.019-31.09 41.948c-.874 8.928 1.199 13.519 6.389 7.586 5.189-5.932 41.432-40.078 44.512-36.89 3.081 3.188-9.324 24.21-18.661 34.661-9.336 10.451-20.985 28.836-21.093 35.104-.108 6.269-.648 10.128 11.553 1.642 12.201-8.485 29.963-20.482 43.147-30.394 13.183-9.912 16.264-20.47 19.176-18.493 2.912 1.978 4.183 9.241-4.938 20.902-9.121 11.662-32.36 34.673-31.976 37.094.383 2.421 5.285 1.534 16.935-3.092 11.649-4.626 21.885-10.247 23.323-9.264 1.438.982-8.785 20.374-25.385 32.143-16.599 11.77-25.396 18.398-20.003 27.411 5.393 9.012 17.163-1.882 28.153-10.152 10.991-8.269 20.111-19.919 22.976-17.977 2.864 1.941-16.911 30.586-14.275 31.353 2.637.767 10.895-1.978 23.863-13.1s19.116-18.505 20.998-15.09c1.881 3.416-.755 16.384-14.718 28.945-13.963 12.56-34.757 28.848-34.074 32.467.684 3.62 6.388 7.587 21.226-.119 14.838-7.707 29.795-21.693 31.665-18.29 1.869 3.404-12.189 22.233-23.18 30.49-10.99 8.258-19.02 12.225-18.576 14.646.443 2.421 10.786 4.279 32.659-5.992 21.873-10.272 27.05-16.192 28.92-12.788 1.87 3.403-7.898 25.168-28.021 31.377-20.123 6.208-29.579 9.156-30.574 10.583-.995 1.426-4.051 11.985-18.349 15.856-14.299 3.871-39.276-2.829-52.363.815-13.088 3.643-20.004 13.651-38.593 14.551-18.589.9-15.844-4.6-26.738-2.61-10.895 1.99-72.918 4.56-73.805-.28-.887-4.84 64.228-17.977 69.837-21.501 5.61-3.524-.119-7.479-11.673-9.121-11.554-1.642-87.575-27.757-87.491-34.025.083-6.269 34.217 2.504 55.886 4.794 21.669 2.289 33.439 5.141 35.201 1.066 1.761-4.075-11.003-5.489-32.576-14.046-21.573-8.558-39.06-15.365-36.087-19.668 2.972-4.303 24.533 4.279 43.997 8.222 19.464 3.943 23.107 3.272 23.647-.575.539-3.848-32.024-17.906-30.047-20.759 1.978-2.852 23.107 3.272 33.451 5.142 10.343 1.87 15.58 3.392 15.952-1.666.371-5.058-20.579-9.996-38.844-14.154-18.265-4.159-53.478-18.985-53.37-25.253.108-6.268 26.955 3.823 43.782 6.999 16.827 3.176 24.533 4.267 23.647-.575-.887-4.842-14.97-13.519-28.609-19.776-13.64-6.256-24.87-12.955-24.33-16.779.54-3.823 36.531 8.33 39.275 2.829 2.745-5.501-5.405-9.025-20.374-22.532-14.97-13.507-18.493-19.177-16.516-21.993 1.978-2.817 66.685 36.579 71.755 36.902 5.07.324 4.722-8.389-1.007-12.321-5.728-3.931-51.608-29.327-49.63-32.179 1.978-2.853 32.36 12.836 36.746 9.588 4.387-3.248-30.933-25.601-28.956-28.465 1.978-2.864 45.232 21.741 48.42 18.661 3.188-3.081 4.279-10.787-4.314-16.708-8.594-5.92-59.638-39.179-56.462-42.199 3.176-3.02 52.267 19.176 57.996 23.167 5.729 3.991-.24-14.969-6.4-21.333-6.161-6.365-32.792-15.27-29.388-17.139 3.404-1.87 24.642-2.002 31.353.527 6.712 2.529 10.667-3.2 5.262-12.213-5.406-9.013-45.124-41.768-44.345-44.345.779-2.577 36.315 20.866 39.718 18.997 3.404-1.87-7.095-66.314.384-66.446Z" fill="#305937"/><path d="M488.19 618.378c13.567.743 5.693 62.97 25.037 100.675s19.308 46.323 38.352 60.31c-4.398 13.027-35.955-.3-35.955-.3s13.627 34.241 50.086 48.24c-2.996 11.985-40.03 10.295-40.03 10.295s16.227 33.451 46.466 39.12c-2.996 11.985-44.045 12.201-44.045 12.201s18.66 33.798 42.283 42.235c-5.789 14.071-40.03 10.295-40.03 10.295s18.864 23.887 47.185 34.254c-2.493 17.031-80.192 4.41-80.192 4.41s.467 13.736 8.102 21.067c-8.39 6.24-61.616-37.606-61.616-37.606s-25.888 40.956-39.263 38.996c.563-12.353 1.546-44.521 1.546-44.521s-47.617 36.531-57.529 27.566c12.045-14.382 18.913-35.764 18.913-35.764s-46.335 19.32-53.25 7.119c17.606-9.852 41.169-34.984 41.169-34.984s-47.941-3.308-46.023-16.684c31.844-5.285 56.09-26.595 56.09-26.595s-30.778-2.013-31.245-15.76c29.591-6.856 55.264-37.885 55.264-37.885s-38.964 2.984-39.444-10.787c26.116-8.605 50.194-28.692 50.194-28.692s-30.598-3.248-28.465-17.846c39.324-5.429 59.926-27.266 59.926-27.266s-35.5 4.794-34.421-2.553c13.052-4.303 45.639-23.143 59.158-55.971 13.52-32.827 18.17-64.312 31.737-63.569ZM-63.015 733.401c8.582 1.426 1.199 73.781 6.149 75.015 4.95 1.235 23.37-18.445 27.062-13.531S-55.62 823.17-56.818 833.01c-1.199 9.839 2.457 11.074 6.148 8.605 3.692-2.469 14.766-15.988 17.223-12.297 2.457 3.692-12.297 17.223-18.445 27.063-6.149 9.839-7.383 19.679-1.199 17.21 6.184-2.468 20.902-20.902 23.371-17.21 2.47 3.691-12.297 20.902-15.988 27.05-3.692 6.149-2.469 12.297 3.691 7.383 6.16-4.914 43.039-35.668 46.742-33.211 3.704 2.457-8.617 19.68-19.68 30.754-11.062 11.074-35.667 27.05-38.124 35.656-2.457 8.605-1.198 13.531 4.914 8.617s47.94-31.976 50.433-28.285c2.493 3.692-13.53 22.137-24.605 30.742-11.074 8.605-25.828 24.594-27.05 30.742-1.223 6.148-2.457 9.84 11.062 3.691 13.519-6.148 33.21-14.753 47.94-22.136 14.73-7.383 19.68-17.223 22.137-14.754 2.457 2.469 2.397 9.828-8.605 19.668-11.003 9.84-38.125 28.285-38.125 30.753 0 2.469 4.914 2.457 17.222 0 12.31-2.456 23.36-6.148 24.594-4.925 1.234 1.222-12.297 18.445-30.754 27.064-18.457 8.62-28.285 13.52-24.593 23.36 3.691 9.84 17.222 1.2 29.519-4.92 12.297-6.11 23.359-15.98 25.828-13.53 2.469 2.46-22.137 27.05-19.68 28.29 2.457 1.23 11.063 0 25.828-8.61 14.766-8.6 22.137-14.76 23.36-11.07 1.222 3.69-3.752 15.94-19.68 25.83-15.928 9.88-39.36 22.13-39.36 25.82 0 3.69 4.926 8.61 20.903 3.69 15.976-4.91 33.21-15.98 34.445-12.29 1.234 3.69-15.988 19.63-28.357 25.81-12.369 6.19-20.902 8.62-20.902 11.08 0 2.46 9.84 6.15 33.21 0 23.372-6.15 29.508-11.08 30.743-7.38 1.234 3.69-12.297 23.37-33.211 25.82-20.914 2.46-30.742 3.69-31.964 4.93-1.223 1.23-6.16 11.06-20.914 12.3-14.754 1.23-38.077-9.78-51.644-8.59-13.568 1.2-22.137 9.84-40.594 7.39-18.457-2.46-14.754-7.39-25.816-7.39s-72.558-8.6-72.558-13.51c0-4.92 66.41-6.15 72.558-8.62 6.148-2.47 1.198-7.37-9.84-11.06-11.038-3.7-81.175-43.04-79.941-49.2 1.235-6.16 33.199 8.61 54.113 14.76s31.977 11.06 34.433 7.37c2.457-3.69-9.839-7.37-29.519-19.66-19.68-12.3-35.656-22.14-31.976-25.83 3.679-3.69 23.371 8.6 41.816 15.99 18.445 7.38 22.136 7.37 23.371 3.69 1.234-3.68-28.285-23.37-25.828-25.83 2.457-2.46 22.137 7.38 31.976 11.06 9.84 3.68 14.754 6.15 15.988 1.2 1.235-4.95-18.445-13.53-35.667-20.9-17.223-7.373-49.139-28.287-47.941-34.447 1.199-6.161 25.828 8.617 41.816 14.766 15.988 6.148 23.371 8.605 23.371 3.691 0-4.914-12.296-15.988-24.605-24.605-12.309-8.618-22.137-17.211-20.902-20.902 1.234-3.692 34.433 14.753 38.124 9.839 3.692-4.914-3.691-9.84-15.988-25.828-12.296-15.988-14.753-22.136-12.296-24.593 2.457-2.457 59.026 47.94 63.952 49.139 4.926 1.198 6.149-7.371 1.199-12.297s-45.544-38.125-43.039-40.582c2.505-2.457 29.519 18.445 34.433 15.988 4.914-2.456-25.828-30.741-23.371-33.198 2.457-2.457 40.594 29.507 44.274 27.05 3.679-2.457 6.148-9.84-1.199-17.223-7.347-7.382-51.656-49.139-47.941-51.644 3.716-2.504 47.941 28.286 52.879 33.199 4.938 4.914 2.457-14.753-2.457-22.136-4.914-7.383-29.52-20.902-25.828-22.137 3.691-1.234 24.593 2.469 30.742 6.149 6.148 3.679 11.074-1.199 7.383-11.063-3.692-9.863-36.891-49.139-35.668-51.656 1.222-2.516 31.976 27.063 35.668 25.828 3.691-1.234 4.878-66.361 12.248-65.127Z" fill="#305937"/><path d="M267.211 1310.65s9.84 19.67 22.137 27.05c0 2.4-13.519-4.91-14.754-2.45-1.234 2.45 20.902 25.82 29.52 30.74-2.469 3.69-17.223-4.92-18.445-2.46-1.223 2.46 20.902 24.59 31.964 31.98-4.914 4.91-24.594-7.39-25.816-4.93-1.222 2.46 34.433 44.27 45.544 49.2-1.199 3.68-27.051-7.38-28.285-4.93-1.235 2.46 33.21 49.14 44.273 56.57-2.457 4.93-25.828-11.06-28.285-6.14-2.457 4.91 41.816 52.87 52.878 59.02-2.457 3.69-40.582-8.6-41.804-4.91-1.222 3.69 38.113 54.11 55.335 62.72-1.198 4.92-39.359-12.3-41.816-7.39-2.457 4.92 47.941 52.89 63.953 61.5 0 6.15-61.496-9.84-62.718-6.15-1.223 3.69 47.94 39.35 62.718 46.74 0 4.93-134.054-17.21-142.623-17.21-8.57 0-148.808 19.67-152.487 14.76 27.05-9.84 66.398-36.89 65.175-41.82-1.222-4.93-62.718 11.07-65.175 4.93 34.433-20.92 72.558-56.57 70.089-60.27-2.469-3.69-44.273 11.07-45.543 4.92 38.124-27.05 57.792-59.03 56.569-62.72-1.222-3.69-41.9 12.29-44.297 4.9 38.125-28.28 59.027-51.64 57.805-56.57-1.223-4.92-33.211 9.84-34.446 3.69 27.063-22.13 47.941-51.64 46.742-55.33-1.198-3.69-27.062 7.37-28.285 2.46 27.051-18.45 44.274-40.59 41.805-43.04-2.469-2.46-20.902 6.15-23.359 1.2 14.753-9.84 34.433-28.29 34.433-31.98 0-3.69-17.223 4.93-18.445 1.2 14.753-12.3 25.816-25.83 25.816-28.29 0-2.45-8.606 2.4-9.828-1.2 12.285-9.81 19.655-25.79 19.655-25.79Z" fill="#45684A"/><path d="M289.553 1615.51c-8.581 1.42-1.198 73.78-6.148 75.01-4.95 1.24-23.371-18.44-27.063-13.53-3.691 4.91 25.828 28.29 27.063 38.13 1.234 9.83-2.469 11.07-6.148 8.6-3.68-2.47-14.766-15.99-17.223-12.3-2.457 3.7 12.297 17.23 18.445 27.07s7.383 19.68 1.199 17.21c-6.185-2.47-20.915-20.91-23.371-17.21-2.457 3.69 12.296 20.9 15.988 27.05 3.691 6.15 2.397 12.29-3.692 7.38-6.088-4.91-43.038-35.67-46.742-33.21-3.703 2.46 8.606 19.68 19.68 30.75 11.074 11.08 35.668 27.05 38.125 35.66 2.456 8.6 1.198 13.53-4.926 8.62-6.125-4.92-47.941-31.98-50.422-28.29-2.481 3.69 13.531 22.14 24.594 30.74 11.062 8.61 25.828 24.6 27.062 30.74 1.235 6.15 2.457 9.84-11.074 3.7-13.531-6.15-33.199-14.76-47.941-22.14-14.741-7.38-19.691-17.22-22.088-14.75-2.397 2.46-2.469 9.82 8.605 19.66s38.125 28.29 38.125 30.76c0 2.47-4.926 2.45-17.223 0-12.297-2.46-23.359-6.15-24.593-4.93-1.235 1.22 12.296 18.45 30.741 27.06 18.446 8.62 28.285 13.52 24.606 23.36-3.679 9.84-17.223 1.2-29.519-4.91-12.297-6.11-23.371-15.99-25.828-13.53-2.457 2.45 22.136 27.05 19.679 28.28-2.457 1.24-11.074 0-25.828-8.6-14.753-8.61-22.136-14.77-23.371-11.08-1.234 3.69 3.692 15.99 19.68 25.83 15.988 9.84 39.359 22.14 39.359 25.83 0 3.69-4.926 8.6-20.914 3.69-15.988-4.91-33.199-15.99-34.433-12.3-1.235 3.69 15.988 19.67 28.285 25.82 12.296 6.15 20.914 8.62 20.914 11.07 0 2.46-9.84 6.15-33.211 0-23.371-6.14-29.508-11.07-30.742-7.38-1.235 3.69 12.297 23.37 33.199 25.83 20.902 2.46 30.754 3.69 31.976 4.92 1.223 1.24 6.148 11.07 20.914 12.3 14.766 1.24 38.125-9.84 51.644-8.62 13.519 1.23 22.137 9.84 40.582 7.39 18.445-2.46 14.765-7.39 25.828-7.39 11.062 0 72.558-8.6 72.558-13.52 0-4.91-66.41-6.14-72.558-8.61-6.149-2.47-1.199-7.37 9.84-11.06 11.038-3.7 81.163-43.04 79.94-49.2-1.222-6.16-33.21 8.61-54.112 14.76-20.903 6.15-31.977 11.06-34.434 7.37-2.457-3.69 9.84-7.37 29.508-19.66 19.667-12.3 35.667-22.14 31.976-25.83-3.691-3.69-23.359 8.6-41.804 15.99-18.445 7.38-22.137 7.37-23.371 3.69-1.235-3.68 28.285-23.37 25.828-25.83-2.457-2.46-22.137 7.38-31.977 11.06-9.839 3.68-14.753 6.15-15.988 1.2-1.234-4.95 18.445-13.53 35.668-20.9 17.223-7.37 49.139-28.29 47.941-34.45-1.199-6.16-25.828 8.62-41.817 14.77-15.988 6.15-23.371 8.6-23.371 3.69s12.297-15.99 24.594-24.61c12.297-8.61 22.136-17.21 20.914-20.9-1.223-3.69-34.433 14.76-38.125 9.84-3.691-4.91 3.692-9.84 15.988-25.83 12.297-15.98 14.754-22.13 12.297-24.59-2.457-2.46-59.027 47.94-63.953 49.14-4.925 1.2-6.148-7.37-1.198-12.3 4.95-4.92 45.543-38.12 43.039-40.58-2.505-2.46-29.52 18.45-34.434 15.99-4.914-2.46 25.828-30.74 23.359-33.2-2.469-2.46-40.581 29.51-44.273 27.05-3.691-2.46-6.148-9.84 1.199-17.22 7.347-7.38 51.656-49.14 47.94-51.65-3.715-2.5-47.94 28.29-52.878 33.2-4.938 4.92-2.469-14.75 2.457-22.13 4.926-7.39 29.507-20.91 25.828-22.14-3.68-1.23-24.606 2.47-30.754 6.15s-11.062-1.2-7.371-11.06c3.691-9.87 36.89-49.14 35.656-51.66-1.235-2.52-31.965 27.06-35.656 25.83-3.691-1.24-4.926-66.33-12.249-65.09ZM297.248 854.02s-9.828 19.667-22.137 27.05c0 2.397 13.531-4.914 14.766-2.457 1.234 2.457-20.914 25.828-29.52 30.742 2.457 3.691 17.223-4.914 18.446-2.457 1.222 2.457-20.903 24.593-31.977 31.976 4.926 4.914 24.606-7.383 25.828-4.926 1.223 2.457-34.433 44.273-45.543 49.199 1.198 3.68 27.05-7.383 28.285-4.926 1.234 2.457-33.211 49.139-44.273 56.569 2.397 4.93 25.827-11.06 28.284-6.15 2.457 4.92-41.816 52.88-52.878 59.03 2.397 3.69 40.582-8.61 41.804-4.91 1.223 3.69-38.125 54.11-55.335 62.71 1.198 4.93 39.347-12.29 41.816-7.38 2.469 4.92-47.941 52.89-63.953 61.5 0 6.15 61.484-9.84 62.718-6.15 1.235 3.69-47.94 39.35-62.718 46.74 0 4.93 134.042-17.21 142.623-17.21 8.582 0 148.796 19.67 152.487 14.75-27.05-9.84-66.409-36.89-65.175-41.81 1.235-4.93 62.718 11.07 65.175 4.92-34.433-20.91-72.558-56.57-70.101-60.26 2.457-3.69 44.273 11.06 45.544 4.92-38.125-27.05-57.805-59.03-56.57-62.72 1.234-3.69 41.816 12.29 44.273 4.91-38.125-28.28-59.027-51.64-57.804-56.57 1.222-4.92 33.21 9.84 34.433 3.69-27.05-22.13-47.941-51.641-46.742-55.332 1.198-3.692 27.062 7.371 28.285 2.457-27.051-18.445-44.273-40.582-41.816-43.039 2.457-2.457 20.914 6.149 23.371 1.199-14.754-9.84-34.434-28.285-34.434-31.977 0-3.691 17.223 4.926 18.446 1.199-14.754-12.297-25.828-25.828-25.828-28.285 0-2.457 8.617 2.397 9.839-1.198-12.236-9.828-19.619-25.804-19.619-25.804Z" fill="#305937"/><path d="M47.511 1530.45c-13.567.74-5.693 62.97-25.037 100.67-19.344 37.71-19.32 46.33-38.352 60.31 4.399 13.03 35.955-.3 35.955-.3s-13.615 34.3-50.098 48.35c3.009 11.99 40.043 10.3 40.043 10.3s-16.228 33.45-46.467 39.12c2.997 11.98 44.046 12.2 44.046 12.2s-18.673 33.79-42.296 42.23c5.79 14.07 40.043 10.3 40.043 10.3s-18.877 23.88-47.186 34.25c2.493 17.03 80.193 4.41 80.193 4.41s-.468 13.74-8.102 21.07c8.39 6.23 61.615-37.61 61.615-37.61s25.876 40.95 39.264 39c-.564-12.36-1.547-44.52-1.547-44.52s47.605 36.53 57.529 27.56c-12.057-14.38-18.912-35.76-18.912-35.76s46.334 19.32 53.25 7.12c-17.607-9.85-41.169-34.99-41.169-34.99s47.94-3.31 46.022-16.68c-31.844-5.29-56.09-26.6-56.09-26.6s30.778-2.01 31.245-15.76c-29.591-6.85-55.263-37.88-55.263-37.88s38.964 2.98 39.443-10.79c-26.128-8.6-50.194-28.69-50.194-28.69s30.598-3.25 28.465-17.85c-39.335-5.43-59.926-27.26-59.926-27.26s35.488 4.79 34.422-2.55c-13.052-4.31-45.652-23.15-59.16-55.98-13.506-32.82-18.169-64.42-31.736-63.67Z" fill="#305937"/><path d="M-147.259 1010.55c8.701-.15 14.478 72.36 19.536 72.69 5.057.32 19.667-22.36 24.186-18.17 4.518 4.18-20.375 32.46-19.764 42.36.612 9.9 4.399 10.44 7.587 7.36 3.188-3.08 11.649-18.38 14.73-15.2 3.08 3.19-9.001 19.18-13.28 29.97-4.279 10.78-3.727 20.67 1.882 17.15 5.609-3.53 16.779-24.32 19.895-21.13 3.116 3.19-8.39 22.77-10.87 29.48-2.481 6.71-.204 12.54 4.961 6.59 5.166-5.94 35.956-42.81 39.995-41.06 4.039 1.75-4.926 20.9-13.831 33.79-8.905 12.88-30.215 33.02-31.089 41.95-.875 8.93 1.198 13.52 6.388 7.58 5.19-5.93 41.432-40.07 44.512-36.89 3.08 3.19-9.324 24.21-18.66 34.66-9.337 10.46-20.986 28.84-21.094 35.11-.108 6.27-.648 10.13 11.553 1.64 12.201-8.48 29.963-20.48 43.147-30.39 13.184-9.92 16.264-20.47 19.176-18.5 2.912 1.98 4.183 9.24-4.938 20.91-9.12 11.66-32.36 34.67-31.976 37.09.383 2.42 5.285 1.53 16.935-3.09 11.65-4.63 21.885-10.25 23.323-9.27 1.438.99-8.785 20.38-25.385 32.15-16.599 11.77-25.396 18.39-20.003 27.41 5.394 9.01 17.163-1.88 28.153-10.15 10.99-8.27 20.111-19.92 22.976-17.98 2.864 1.94-16.911 30.58-14.274 31.35 2.636.77 10.894-1.98 23.862-13.1 12.968-11.12 19.116-18.5 20.998-15.09 1.881 3.42-.755 16.39-14.718 28.95-13.963 12.56-34.757 28.84-34.074 32.46.684 3.62 6.388 7.59 21.226-.12 14.838-7.7 29.795-21.69 31.665-18.29 1.87 3.41-12.19 22.24-23.18 30.49-10.99 8.26-19.02 12.23-18.576 14.65.443 2.42 10.786 4.28 32.66-5.99 21.872-10.27 27.05-16.19 28.92-12.79 1.869 3.4-7.899 25.17-28.022 31.38-20.123 6.21-29.58 9.15-30.574 10.58-.995 1.43-4.051 11.98-18.35 15.86-14.298 3.87-39.275-2.83-52.362.81-13.088 3.64-20.004 13.65-38.593 14.55-18.589.9-15.844-4.6-26.738-2.61-10.895 1.99-72.918 4.56-73.805-.28-.887-4.84 64.228-17.98 69.837-21.5 5.61-3.52-.119-7.48-11.673-9.12-11.554-1.64-87.575-27.76-87.491-34.03.083-6.26 34.217 2.51 55.886 4.8 21.669 2.29 33.439 5.14 35.201 1.07 1.761-4.08-11.003-5.49-32.576-14.05s-39.06-15.37-36.087-19.67c2.972-4.3 24.533 4.28 43.997 8.22 19.464 3.95 23.107 3.27 23.647-.57.539-3.85-32.025-17.91-30.047-20.76 1.978-2.85 23.107 3.27 33.451 5.14 10.343 1.87 15.58 3.39 15.952-1.66.371-5.06-20.579-10-38.844-14.16s-53.478-18.98-53.37-25.25c.108-6.27 26.955 3.82 43.782 7 16.827 3.17 24.533 4.26 23.647-.58-.887-4.84-14.97-13.52-28.609-19.77-13.639-6.26-24.869-12.96-24.33-16.78.54-3.83 36.531 8.33 39.275 2.83 2.745-5.51-5.405-9.03-20.374-22.54-14.97-13.5-18.493-19.17-16.516-21.99 1.978-2.82 66.686 36.58 71.755 36.9 5.07.33 4.722-8.39-1.007-12.32-5.728-3.93-51.608-29.32-49.63-32.18 1.978-2.85 32.36 12.84 36.746 9.59 4.387-3.25-30.933-25.6-28.956-28.46 1.978-2.87 45.232 21.74 48.42 18.66 3.188-3.08 4.279-10.79-4.314-16.71-8.594-5.92-59.638-39.18-56.462-42.2 3.176-3.02 52.267 19.18 57.996 23.17 5.729 3.99-.24-14.97-6.4-21.34-6.161-6.36-32.792-15.27-29.388-17.14 3.404-1.86 24.642-2 31.353.53 6.712 2.53 10.667-3.2 5.262-12.21-5.406-9.01-45.124-41.77-44.345-44.35.779-2.57 36.315 20.87 39.718 19 3.404-1.87-7.095-66.31.384-66.44Z" fill="#406632"/><path d="M464.593 1706.63c-13.567.74-5.693 62.97-25.037 100.67-19.344 37.71-19.32 46.33-38.352 60.31 4.398 13.03 35.955-.3 35.955-.3s-13.615 34.3-50.098 48.35c3.009 11.99 40.043 10.3 40.043 10.3s-16.228 33.45-46.467 39.12c2.997 11.98 44.046 12.2 44.046 12.2s-18.673 33.79-42.296 42.23c5.789 14.07 40.043 10.3 40.043 10.3s-18.877 23.88-47.186 34.25c2.493 17.03 80.193 4.41 80.193 4.41s-.468 13.74-8.102 21.07c8.389 6.23 61.615-37.61 61.615-37.61s25.876 40.96 39.264 39c-.564-12.36-1.546-44.52-1.546-44.52s47.604 36.53 57.528 27.56c-12.057-14.38-18.912-35.76-18.912-35.76s46.334 19.32 53.25 7.12c-17.607-9.85-41.169-34.99-41.169-34.99s47.94-3.3 46.022-16.68c-31.844-5.29-56.09-26.59-56.09-26.59s30.778-2.02 31.245-15.77c-29.591-6.85-55.263-37.88-55.263-37.88s38.964 2.98 39.443-10.79c-26.128-8.6-50.194-28.69-50.194-28.69s30.598-3.25 28.465-17.85c-39.335-5.42-59.926-27.26-59.926-27.26s35.488 4.79 34.422-2.55c-13.052-4.31-45.652-23.15-59.159-55.97-13.507-32.83-18.17-64.42-31.737-63.68ZM546.919 564.445c13.567.744 5.693 62.97 25.037 100.676 19.344 37.705 19.308 46.322 38.352 60.309-4.399 13.028-35.955-.3-35.955-.3s13.615 34.302 50.086 48.348c-2.997 11.986-40.031 10.295-40.031 10.295s16.228 33.451 46.467 39.12c-2.997 11.985-44.046 12.201-44.046 12.201s18.661 33.798 42.284 42.235c-5.789 14.071-40.031 10.296-40.031 10.296s18.865 23.886 47.186 34.253c-2.493 17.031-80.193 4.411-80.193 4.411s.468 13.735 8.102 21.069c-8.389 6.233-61.615-37.609-61.615-37.609s-25.888 40.954-39.264 39c.564-12.357 1.546-44.525 1.546-44.525s-47.617 36.531-57.528 27.566c12.045-14.382 18.912-35.764 18.912-35.764s-46.334 19.32-53.25 7.119c17.607-9.851 41.169-34.984 41.169-34.984s-47.94-3.308-46.023-16.684c31.845-5.285 56.091-26.595 56.091-26.595s-30.778-2.013-31.245-15.76c29.591-6.855 55.263-37.885 55.263-37.885s-38.964 2.984-39.443-10.787c26.116-8.605 50.194-28.692 50.194-28.692s-30.598-3.248-28.465-17.846c39.323-5.429 59.926-27.266 59.926-27.266s-35.5 4.794-34.422-2.553c13.052-4.303 45.64-23.143 59.159-55.97 13.519-32.828 18.169-64.421 31.737-63.678ZM-77.064 1264.86s6.688 20.07 23.42 30.1c16.73 10.04 23.418 13.39 20.074 16.78-3.344 3.4-8.39-5.02-11.71-1.67-3.319 3.34 3.345 6.69 0 10.04-3.343 3.34-6.699-3.35-10.043 0-3.344 3.34 13.388 20.07 20.075 23.42 6.688 3.34 13.388 6.69 13.388 10.03 0 3.34-10.044 3.34-13.388 0-3.344-3.34-6.687-10.03-10.031-6.69-3.344 3.35 0 6.69-3.344 6.69s-3.356-3.34-6.7 0c-3.344 3.34 6.7 13.39 13.388 16.78 6.687 3.39 35.955 10.09 36.806 16.78.647 4.95-7.958 4.95-11.65 4.95-3.69 0-3.691 1.2-2.456 4.92 1.234 3.73-1.199 6.15-6.149 6.15s-13.531-8.6-17.222-8.6c-3.692 0-4.914 3.68-2.457 7.37s35.667 27.06 49.199 34.43c13.53 7.37 27.05 13.53 28.284 18.46 1.235 4.92-12.296 6.15-15.988 4.91-3.691-1.23-6.148-2.46-7.383-1.2-1.234 1.26-1.198 7.39-9.84 7.39-8.64 0-14.753-8.61-15.988-8.61-1.234 0-1.198 7.37-6.148 7.37-4.95 0-7.37-6.15-9.84-6.15-2.469 0-3.691 2.47-1.198 8.62 2.493 6.15 41.804 41.8 57.792 51.64 15.988 9.84 36.902 12.3 38.125 14.77 1.222 2.47-1.199 8.61-17.21 9.83-16.013 1.22-22.137-3.68-23.372-4.92-1.234-1.23-2.457 0-2.457 3.7 0 3.69 0 4.91-4.926 4.91s-9.827-9.84-11.062-8.61c-1.234 1.24 0 6.15-3.691 9.84-3.692 3.7-8.606-1.19-11.063-1.19-2.457 0-3.691 2.46-2.469 4.92 1.223 2.46 22.137 33.2 49.2 52.88 27.062 19.68 60.26 27.05 60.26 29.52 0 2.47-7.382 8.6-17.222 8.6-9.84 0-14.754 0-14.754 1.2s-2.457 9.83-9.84 8.61c-7.382-1.22-24.593-11.08-27.05-11.08-2.457 0 1.199 12.3-7.383 13.54-8.581 1.23-13.531-9.84-14.753-9.84-1.223 0 2.397 12.29-7.383 11.07-9.78-1.22-20.902-17.22-23.371-17.22-2.47 0 2.469 9.84-2.457 11.07-4.926 1.24-19.68-8.62-22.137-8.62-2.457 0-1.198 14.77-8.605 13.54-7.407-1.24-11.074-11.07-17.223-11.07-6.148 0-11.062 9.83-15.988 9.83s-1.198-11.06-6.148-12.3c-4.95-1.23-11.063 8.62-19.668 8.62-8.605 0-2.469-11.07-8.617-12.31-6.149-1.23-17.211 11.08-23.359 11.08-6.149 0-2.457-9.84-7.383-11.08-4.926-1.23-13.531 13.53-19.68 13.53-6.148 0 1.199-13.53-2.457-13.53-3.655 0-14.753 8.62-22.136 8.62-7.383 0-3.692-12.3-7.383-12.3s-7.371 7.37-17.211 6.15c-9.839-1.22-12.296-4.92-9.839-7.38 2.456-2.46 39.359-25.83 66.409-51.66 27.051-25.83 30.742-35.65 28.285-39.34-2.457-3.7-8.605 6.14-13.531 4.91-4.926-1.24 2.469-11.06-1.199-12.3-3.667-1.23-12.296 11.08-22.136 11.08s-6.149-6.15-6.149-8.62c0-2.47-18.457 2.47-19.679-2.4-1.223-4.86 34.433-14.75 57.804-31.97 23.371-17.23 30.742-43.04 30.742-46.75 0-3.7-6.148-2.45-8.605 0-2.457 2.46-15.988 8.61-18.457 8.61-2.469 0-3.68-6.15-4.914-6.15-1.235 0-3.692 6.15-11.075 6.15-7.382 0-4.914-4.91-7.37-6.15-2.457-1.23-8.606 0-14.766-1.2s-4.914-3.69 0-4.92c4.914-1.24 27.062-9.84 49.139-28.29 22.077-18.44 25.828-27.05 24.593-29.51-1.234-2.45-12.296 3.68-14.753 3.68-2.457 0-3.692-4.91-4.926-4.91-1.235 0-8.606 4.91-11.062 3.69-2.457-1.22 2.456-7.38 1.198-8.6-1.258-1.23-15.976 2.39-14.754-1.2 1.223-3.6 14.754-3.69 28.285-12.3 13.531-8.6 27.063-23.37 25.828-25.83-1.234-2.45-8.605 6.15-12.297 4.93-3.691-1.22-3.691-3.69-4.925-2.47-1.235 1.22-2.457 3.69-4.914 3.69s1.198-4.91-2.457-3.69c-3.656 1.22-8.618 2.47-8.618 0s7.383-6.15 22.137-18.45c14.754-12.29 12.309-23.35 12.309-23.35s-8.618 4.91-11.075 3.68c-2.457-1.24 0-4.92-2.457-4.92-2.456 0-11.074 1.2-9.839-1.2 1.234-2.39 9.839 1.2 24.593-14.75s14.73-28.19 18.457-27.78ZM1687.12 498.838s6.34 19.028 22.19 28.536c15.86 9.508 22.2 12.688 19.03 15.903-3.17 3.215-7.95-4.76-11.1-1.59-3.14 3.169 3.17 6.35 0 9.519-3.17 3.169-6.35-3.169-9.52 0-3.16 3.169 12.69 19.027 19.03 22.197 6.34 3.169 12.69 6.339 12.69 9.508 0 3.169-9.52 3.169-12.69 0s-6.34-9.508-9.51-6.339c-3.17 3.169 0 6.339-3.17 6.339-3.16 0-3.18-3.169-6.35 0-3.16 3.169 6.35 12.688 12.69 15.903s34.08 9.565 34.89 15.904c.61 4.691-7.54 4.691-11.04 4.691-3.5 0-3.5 1.136-2.28 4.669 1.23 3.533-1.13 5.827-5.82 5.827s-12.83-8.156-16.33-8.156c-3.5 0-4.65 3.487-2.32 6.986 2.32 3.499 33.8 25.65 46.63 32.636 12.82 6.986 25.63 12.825 26.8 17.494 1.17 4.669-11.65 5.828-15.15 4.658s-5.83-2.329-7-1.136c-1.17 1.192-1.13 6.997-9.32 6.997-8.19 0-13.99-8.156-15.16-8.156s-1.13 6.986-5.82 6.986c-4.7 0-6.99-5.827-9.33-5.827s-3.5 2.34-1.14 8.167c2.37 5.828 39.63 39.622 54.78 48.949 15.15 9.326 34.98 11.655 36.13 13.995 1.16 2.34-1.13 8.156-16.31 9.315-15.17 1.158-20.98-3.488-22.15-4.658-1.17-1.17-2.27 0-2.27 3.499s0 4.657-4.67 4.657-9.31-9.326-10.48-8.156 0 5.828-3.5 9.326c-3.5 3.499-8.16-1.135-10.49-1.135s-3.5 2.339-2.34 4.668c1.16 2.329 20.98 31.466 46.63 50.119 25.65 18.652 57.12 25.638 57.12 27.978s-7 8.157-16.32 8.157c-9.33 0-13.99 0-13.99 1.136s-2.33 9.314-9.32 8.156c-7-1.159-23.31-10.496-25.64-10.496-2.33 0 1.13 11.655-7 12.825-8.13 1.17-12.83-9.327-13.98-9.327-1.16 0 2.27 11.655-7 10.497-9.27-1.159-19.81-16.324-22.15-16.324s2.34 9.326-2.27 10.496c-4.62 1.17-18.66-8.167-20.99-8.167-2.32 0-1.13 13.995-8.15 12.825-7.02-1.17-10.5-10.485-16.33-10.485-5.82 0-10.48 9.315-15.15 9.315s-1.14-10.485-5.83-11.655c-4.69-1.171-10.48 8.167-18.64 8.167-8.15 0-2.34-10.496-8.17-11.666-5.82-1.17-16.31 10.496-22.14 10.496-5.82 0-2.32-9.326-6.99-10.496s-12.83 12.825-18.66 12.825c-5.82 0 1.14-12.825-2.27-12.825s-13.98 8.167-20.98 8.167-3.5-11.655-7-11.655c-3.49 0-6.98 6.987-16.31 5.828-9.32-1.159-11.65-4.669-9.32-6.998 2.32-2.328 37.3-24.48 62.94-48.96 25.64-24.479 29.14-33.794 26.81-37.293-2.33-3.499-8.16 5.827-12.83 4.657s2.34-10.485-1.13-11.655c-3.48-1.17-11.66 10.497-20.98 10.497-9.33 0-5.83-5.828-5.83-8.168 0-2.34-17.5 2.34-18.65-2.272-1.16-4.612 32.63-13.984 54.78-30.307 22.15-16.324 29.14-40.793 29.14-44.303 0-3.51-5.83-2.328-8.16 0-2.32 2.329-15.15 8.157-17.49 8.157-2.34 0-3.49-5.828-4.66-5.828s-3.5 5.828-10.49 5.828c-7 0-4.66-4.658-6.99-5.828s-8.16 0-13.99-1.136c-5.84-1.136-4.66-3.498 0-4.669 4.65-1.17 25.65-9.326 46.63-26.808 20.98-17.483 24.48-25.639 23.31-27.967-1.17-2.329-11.66 3.487-13.99 3.487s-3.5-4.658-4.67-4.658-8.15 4.658-10.48 3.499c-2.33-1.159 2.33-6.997 1.13-8.156-1.19-1.159-15.14 2.272-13.98-1.136 1.16-3.408 13.98-3.499 26.81-11.655 12.82-8.156 25.65-22.151 24.48-24.48-1.17-2.329-8.16 5.828-11.66 4.669-3.49-1.159-3.49-3.499-4.66-2.34-1.17 1.158-2.33 3.499-4.66 3.499s1.13-4.658-2.27-3.499c-3.41 1.158-8.17 2.34-8.17 0s7-5.828 20.98-17.482c13.98-11.655 11.67-22.14 11.67-22.14s-8.17 4.657-10.5 3.487 0-4.657-2.33-4.657-10.49 1.136-9.32-1.136 9.32 1.136 23.31-13.984c13.98-15.12 13.62-26.718 17.15-26.332ZM1896.95 241.625c8.13 1.352 1.14 69.93 5.83 71.1 4.69 1.17 22.15-17.483 25.65-12.825 3.5 4.657-24.48 26.808-25.65 36.135-1.17 9.326 2.33 10.496 5.82 8.156 3.5-2.34 14-15.154 16.33-11.655 2.33 3.498-11.66 16.324-17.48 25.65-5.83 9.326-7 18.652-1.14 16.312s19.81-19.811 22.15-16.312c2.34 3.498-11.65 19.811-15.15 25.638-3.5 5.828-2.34 11.655 3.5 6.998 5.84-4.658 40.79-33.806 44.3-31.478 3.51 2.329-8.17 18.653-18.65 29.149-10.49 10.496-33.81 25.639-36.14 33.795-2.33 8.156-1.13 12.825 4.66 8.167 5.79-4.657 45.44-30.307 47.8-26.808 2.36 3.499-12.83 20.981-23.32 29.137-10.5 8.156-24.48 23.31-25.64 29.138-1.16 5.827-2.27 9.326 10.48 3.498 12.76-5.827 31.48-13.983 45.44-20.981 13.96-6.997 18.66-16.324 20.98-13.984 2.33 2.34 2.28 9.315-8.15 18.642-10.43 9.326-36.14 26.808-36.14 29.148s4.66 2.329 16.33 0c11.66-2.328 22.14-5.827 23.31-4.668 1.17 1.158-11.66 17.482-29.15 25.649-17.5 8.168-26.81 12.814-23.31 22.14s16.32 1.136 27.98-4.657c11.65-5.793 22.14-15.154 24.48-12.825 2.34 2.329-20.98 25.639-18.66 26.809 2.33 1.17 10.49-.001 24.48-8.157 14-8.156 20.99-13.995 22.14-10.496 1.16 3.499-3.48 15.154-18.64 24.48-15.15 9.326-37.3 20.981-37.3 24.48 0 3.499 4.67 8.156 19.81 3.499 15.14-4.658 31.48-15.154 32.65-11.655 1.17 3.499-15.16 18.641-26.82 24.468-11.67 5.828-19.81 8.168-19.81 10.496 0 2.329 9.32 5.828 31.47 0 22.15-5.827 27.97-10.496 29.14-6.997 1.17 3.499-11.65 22.151-31.48 24.48-19.82 2.329-29.13 3.499-30.29 4.669-1.16 1.17-5.84 10.485-19.83 11.655-13.98 1.17-36.11-9.27-48.97-8.134-12.86 1.136-20.98 9.326-38.47 6.998-17.5-2.329-13.99-6.998-24.47-6.998-10.48 0-68.77-8.156-68.77-12.813 0-4.658 62.94-5.828 68.77-8.168 5.83-2.34 1.14-6.986-9.33-10.485-10.46-3.499-76.93-40.792-75.76-46.631 1.17-5.839 31.46 8.168 51.28 13.995 19.83 5.828 30.31 10.485 32.64 6.986 2.33-3.499-9.33-6.986-27.98-18.641-18.65-11.655-33.79-20.981-30.31-24.48 3.49-3.499 22.16 8.156 39.64 15.154 17.48 6.998 20.98 6.986 22.15 3.499 1.17-3.488-26.81-22.152-24.48-24.48 2.33-2.329 20.98 6.997 30.31 10.485 9.32 3.487 13.98 5.827 15.15 1.136 1.17-4.692-17.48-12.825-33.81-19.812-16.32-6.986-46.57-26.808-45.43-32.647 1.13-5.839 24.48 8.168 39.63 13.995 15.15 5.827 22.15 8.156 22.15 3.499 0-4.658-11.65-15.154-23.32-23.321-11.67-8.168-20.98-16.313-19.81-19.812 1.17-3.498 32.63 13.984 36.13 9.327 3.5-4.658-3.5-9.327-15.15-24.48-11.66-15.154-13.98-20.981-11.66-23.31 2.33-2.329 55.95 45.438 60.62 46.574 4.67 1.136 5.83-6.986 1.13-11.655-4.69-4.669-43.16-36.135-40.79-38.464 2.38-2.328 27.98 17.483 32.64 15.154 4.66-2.328-24.48-29.137-22.15-31.466 2.33-2.328 38.47 27.968 41.96 25.639 3.49-2.329 5.83-9.326-1.14-16.324-6.96-6.997-48.96-46.574-45.43-48.949 3.52-2.374 45.43 26.809 50.11 31.467 4.68 4.657 2.28-13.984-2.32-20.981-4.61-6.998-27.98-19.812-24.48-20.982 3.49-1.17 23.31 2.34 29.13 5.828 5.83 3.487 10.5-1.136 7-10.485s-34.96-46.575-33.81-48.96c1.16-2.386 30.31 25.65 33.81 24.48 3.5-1.17 4.62-62.898 11.61-61.728Z" fill="#305937"/><path d="M2010.02 493.389s9.33 18.641 20.98 25.638c0 2.272-12.81-4.657-13.98-2.328-1.17 2.328 19.81 24.479 27.98 29.137-2.34 3.499-16.33-4.658-17.49-2.329-1.15 2.329 19.81 23.31 30.3 30.308-4.66 4.657-23.31-6.998-24.47-4.669-1.16 2.328 32.64 41.962 43.17 46.631-1.14 3.487-25.64-6.998-26.81-4.669-1.17 2.329 31.48 46.575 41.96 53.617-2.33 4.669-24.48-10.485-26.81-5.827-2.33 4.657 39.64 50.118 50.12 55.946-2.33 3.499-38.46-8.156-39.62-4.658-1.16 3.499 36.12 51.289 52.45 59.445-1.14 4.669-37.31-11.655-39.64-6.997-2.33 4.657 45.44 50.13 60.62 58.286 0 5.827-58.29-9.326-59.45-5.828-1.16 3.499 45.44 37.294 59.45 44.303 0 4.668-127.06-16.313-135.18-16.313-8.12 0-141.04 18.641-144.53 13.984 25.64-9.326 62.93-34.965 61.77-39.634-1.16-4.668-59.44 10.497-61.77 4.669 32.64-19.822 68.77-53.617 66.43-57.116-2.34-3.499-41.96 10.485-43.17 4.658 36.14-25.639 54.78-55.947 53.62-59.445-1.16-3.499-39.63 11.655-41.96 4.657 36.13-26.808 55.95-48.948 54.79-53.617-1.16-4.669-31.48 9.326-32.65 3.499 25.65-20.982 45.44-48.949 44.3-52.448-1.13-3.498-25.65 6.987-26.81 2.329 25.64-17.482 41.97-38.463 39.63-40.792-2.34-2.329-19.82 5.827-22.14 1.136 13.98-9.326 32.63-26.809 32.63-30.308 0-3.498-16.32 4.669-17.48 1.136 13.98-11.655 24.47-24.479 24.47-26.808 0-2.329-8.16 2.272-9.32-1.136 11.62-9.315 18.61-24.457 18.61-24.457Z" fill="#406632"/><path d="M2048.81 1387.64c7.95 1.31 1.13 68.15 5.68 69.29 4.54 1.13 21.58-17.04 24.99-12.5 3.41 4.55-23.86 26.13-24.99 35.22-1.14 9.09 2.27 10.22 5.68 7.95 3.41-2.27 13.63-14.77 15.9-11.36 2.27 3.41-11.36 15.9-17.04 24.99-5.68 9.09-6.81 18.18-1.13 15.9 5.68-2.27 19.31-19.31 21.58-15.9 2.27 3.41-11.36 19.31-14.77 24.99s-2.27 11.36 3.41 6.82c5.68-4.55 39.76-32.95 43.17-30.67 3.4 2.27-7.96 18.17-18.18 28.4-10.22 10.22-32.94 24.99-35.21 32.94-2.28 7.95-1.14 12.49 4.54 7.95s44.3-29.53 46.57-26.13c2.28 3.41-12.49 20.45-22.72 28.4-10.22 7.95-23.85 22.72-24.99 28.4-1.13 5.68-2.27 9.09 10.23 3.41 12.49-5.68 30.67-13.63 44.3-20.45 13.63-6.81 18.18-15.9 20.45-13.63 2.27 2.27 2.27 9.09-7.95 18.18-10.23 9.08-35.22 26.12-35.22 28.39 0 2.28 4.54 2.28 15.9 0 11.36-2.27 21.59-5.68 22.72-4.54 1.14 1.14-11.36 17.04-28.4 24.99-17.04 7.95-26.12 12.5-22.71 21.59 3.4 9.08 15.9 1.13 27.26-4.55 11.36-5.68 21.58-14.77 23.85-12.49 2.28 2.27-20.44 24.99-18.17 26.12 2.27 1.14 10.22 0 23.85-7.95s20.45-13.63 21.59-10.22c1.13 3.41-3.41 14.77-18.18 23.85-14.77 9.09-36.35 20.45-36.35 23.86s4.54 7.95 19.31 3.41c14.77-4.55 30.67-14.77 31.81-11.36 1.13 3.4-14.77 18.17-26.13 23.85s-19.31 7.95-19.31 10.22c0 2.28 9.09 5.68 30.67 0 21.58-5.67 27.26-10.22 28.4-6.81 1.14 3.41-11.36 21.58-30.67 23.85-19.31 2.28-28.4 3.41-29.54 4.55-1.13 1.13-5.68 10.22-19.31 11.36-13.63 1.13-35.21-9.09-47.71-7.95-12.49 1.13-20.44 9.08-37.48 6.81-17.04-2.27-13.64-6.81-23.86-6.81-10.22 0-67.02-7.96-67.02-12.5s61.34-5.68 67.02-7.95c5.68-2.27 1.14-6.82-9.09-10.22-10.22-3.41-74.97-39.76-73.83-45.44 1.13-5.68 30.67 7.95 49.98 13.63 19.31 5.68 29.53 10.22 31.8 6.81 2.28-3.4-9.08-6.81-27.26-18.17-18.17-11.36-32.94-20.45-29.53-23.86 3.4-3.4 21.58 7.96 38.62 14.77 17.04 6.82 20.45 6.82 21.58 3.41 1.14-3.41-26.12-21.58-23.85-23.86 2.27-2.27 20.44 6.82 29.53 10.23s13.63 5.68 14.77 1.13c1.14-4.54-17.04-12.49-32.94-19.31-15.91-6.81-45.44-26.13-44.31-31.8 1.14-5.68 23.86 7.95 38.63 13.63 14.76 5.68 21.58 7.95 21.58 3.4 0-4.54-11.36-14.76-22.72-22.71-11.36-7.96-20.45-15.91-19.31-19.32 1.14-3.4 31.81 13.64 35.21 9.09 3.41-4.54-3.4-9.09-14.76-23.85-11.36-14.77-13.63-20.45-11.36-22.72 2.27-2.27 54.52 44.3 59.07 45.44 4.54 1.13 5.68-6.82 1.13-11.36-4.54-4.55-42.03-35.22-39.76-37.49 2.28-2.27 27.27 17.04 31.81 14.77 4.55-2.27-23.85-28.4-21.58-30.67 2.27-2.28 37.49 27.26 40.89 24.99 3.41-2.27 5.68-9.09-1.13-15.91-6.82-6.81-47.71-45.43-44.31-47.71 3.41-2.27 44.31 26.13 48.85 30.67 4.54 4.55 2.27-13.63-2.27-20.44-4.54-6.82-27.26-19.31-23.86-20.45 3.41-1.14 22.72 2.27 28.4 5.68 5.68 3.41 10.23-1.14 6.82-10.22-3.41-9.09-34.08-45.44-32.94-47.71 1.13-2.28 29.53 24.99 32.94 23.85 3.41-1.14 4.54-61.34 11.36-60.2ZM1495.59 292.572s9.09 18.176 20.45 24.991c0 2.272-12.5-4.543-13.64-2.272-1.13 2.272 19.31 23.856 27.27 28.399-2.28 3.408-15.91-4.543-17.04-2.271-1.14 2.271 19.31 22.719 29.53 29.534-4.54 4.544-22.72-6.815-23.85-4.543-1.14 2.272 31.8 40.894 42.03 45.438-1.14 3.408-24.99-6.816-26.13-4.544-1.14 2.272 30.67 45.439 40.89 52.254-2.27 4.544-23.85-10.223-26.12-5.68-2.27 4.544 38.62 48.847 48.84 54.527-2.27 3.407-37.48-7.952-38.62-4.544-1.13 3.408 35.22 49.982 51.12 57.934-1.14 4.543-36.35-11.36-38.62-6.816-2.27 4.544 44.3 48.846 59.07 56.798 0 5.68-56.8-9.088-57.94-5.68-1.13 3.408 44.31 36.351 57.94 43.166 0 4.544-123.82-15.903-131.77-15.903-7.96 0-137.46 18.175-140.86 13.632 24.99-9.088 61.34-34.079 60.2-38.623-1.13-4.544-57.93 10.224-60.2 4.544 31.8-19.312 67.02-52.254 64.75-55.662-2.28-3.408-40.9 10.223-42.03 4.544 35.21-24.991 53.39-54.526 52.25-57.934-1.14-3.408-38.62 11.359-40.89 4.544 35.21-26.128 54.52-47.711 53.39-52.255-1.14-4.543-30.68 9.088-31.81 3.408 24.99-20.447 44.3-47.71 43.17-51.118-1.14-3.408-25 6.816-26.13 2.272 24.99-17.039 40.89-37.487 38.62-39.759-2.27-2.271-19.31 5.68-21.58 1.136 13.63-9.087 31.8-26.127 31.8-29.535 0-3.407-15.9 4.544-17.04 1.136 13.64-11.359 23.86-23.855 23.86-26.127 0-2.272-7.95 2.272-9.09-1.136 11.36-9.087 18.18-23.855 18.18-23.855ZM1844.89 659.655c-8.14 1.352-1.14 69.93-5.83 71.1-4.69 1.17-22.15-17.483-25.65-12.825-3.5 4.657 24.48 26.809 25.65 36.135 1.17 9.326-2.34 10.496-5.83 8.156s-13.99-15.154-16.32-11.655c-2.33 3.499 11.65 16.324 17.48 25.65 5.83 9.326 7 18.653 1.13 16.313-5.86-2.341-19.82-19.812-22.15-16.313-2.33 3.499 11.66 19.811 15.16 25.639 3.5 5.827 2.27 11.655-3.5 6.997-5.77-4.657-40.79-33.806-44.3-31.477-3.51 2.328 8.15 18.652 18.65 29.148 10.49 10.497 33.8 25.639 36.13 33.795 2.33 8.156 1.14 12.825-4.67 8.168-5.8-4.658-45.43-30.308-47.79-26.809-2.35 3.499 12.83 20.981 23.31 29.137 10.49 8.157 24.48 23.31 25.65 29.138 1.17 5.827 2.28 9.326-10.49 3.498-12.77-5.827-31.47-13.983-45.44-20.981-13.97-6.997-18.65-16.323-20.98-13.983-2.33 2.34-2.34 9.315 8.15 18.641 10.5 9.326 36.14 26.808 36.14 29.148 0 2.341-4.67 2.329-16.32 0-11.66-2.328-22.14-5.827-23.31-4.668-1.17 1.159 11.65 17.482 29.13 25.65 17.49 8.167 26.81 12.813 23.32 22.139-3.48 9.327-16.32 1.137-27.97-4.657-11.66-5.793-22.15-15.154-24.48-12.825-2.33 2.329 20.98 25.639 18.65 26.809-2.33 1.17-10.5 0-24.48-8.156-13.98-8.157-20.98-13.995-22.15-10.497-1.17 3.499 3.5 15.154 18.65 24.48 15.15 9.326 37.3 20.981 37.3 24.48 0 3.499-4.66 8.156-19.82 3.499-15.15-4.658-31.46-15.154-32.63-11.655-1.17 3.499 15.15 18.641 26.81 24.468 11.65 5.828 19.82 8.168 19.82 10.498s-9.33 5.83-31.48 0-27.97-10.497-29.14-6.999c-1.17 3.499 11.66 22.149 31.47 24.479 19.81 2.33 29.15 3.5 30.31 4.67 1.15 1.17 5.82 10.48 19.82 11.65 13.99 1.17 36.13-9.32 48.95-8.16 12.81 1.16 20.98 9.32 38.46 6.99 17.48-2.32 14-6.99 24.48-6.99 10.49 0 68.77-8.16 68.77-12.82 0-4.65-62.94-5.82-68.77-8.16-5.83-2.34-1.14-6.99 9.33-10.49 10.46-3.497 76.92-40.791 75.77-46.63-1.16-5.839-31.48 8.168-51.29 13.995-19.81 5.828-30.31 10.485-32.64 6.986-2.33-3.498 9.33-6.986 27.97-18.641 18.64-11.655 33.8-20.981 30.31-24.48-3.5-3.498-22.14 8.157-39.63 15.154-17.48 6.998-20.98 6.986-22.15 3.499-1.17-3.488 26.81-22.151 24.48-24.48-2.33-2.329-20.98 6.998-30.31 10.485-9.32 3.487-13.98 5.827-15.15 1.136-1.17-4.692 17.48-12.825 33.81-19.811 16.32-6.987 46.57-26.809 45.44-32.648-1.14-5.839-24.48 8.168-39.64 13.995-15.15 5.828-22.15 8.156-22.15 3.499s11.66-15.154 23.31-23.321c11.66-8.168 20.98-16.313 19.82-19.811-1.16-3.499-32.63 13.983-36.13 9.326-3.5-4.658 3.5-9.326 15.15-24.48 11.66-15.154 13.99-20.981 11.66-23.31-2.33-2.329-55.95 45.438-60.62 46.574-4.67 1.136-5.83-6.986-1.13-11.655 4.69-4.668 43.16-36.134 40.79-38.463-2.38-2.329-27.98 17.482-32.64 15.153-4.66-2.328 24.48-29.137 22.14-31.466-2.34-2.328-38.46 27.968-41.96 25.639-3.5-2.329-5.83-9.326 1.14-16.324 6.96-6.997 48.96-46.574 45.43-48.948-3.52-2.374-45.43 26.808-50.11 31.466-4.68 4.657-2.34-13.984 2.32-20.981 4.67-6.998 27.97-19.811 24.48-20.981-3.48-1.17-23.32 2.34-29.14 5.827-5.83 3.487-10.49-1.136-6.99-10.485s34.96-46.574 33.79-48.96c-1.17-2.385-30.29 25.65-33.79 24.48-3.5-1.17-4.62-62.864-11.56-61.694ZM1500.76 749.425c-12.86.705-5.4 59.684-23.73 95.421-18.34 35.737-18.32 43.905-36.35 57.161 4.16 12.348 34.07-.284 34.07-.284s-12.9 32.512-47.48 45.825c2.85 11.36 37.95 9.758 37.95 9.758s-15.38 31.705-44.04 37.078c2.84 11.356 41.75 11.566 41.75 11.566s-17.7 32.03-40.09 40.03c5.49 13.34 37.95 9.76 37.95 9.76s-17.89 22.64-44.72 32.46c2.36 16.14 76.01 4.18 76.01 4.18s-.45 13.02-7.68 19.97c7.95 5.91 58.4-35.64 58.4-35.64s24.52 38.81 37.21 36.96c-.53-11.71-1.46-42.2-1.46-42.2s45.12 34.62 54.52 26.13c-11.43-13.63-17.92-33.9-17.92-33.9s43.91 18.31 50.47 6.75c-16.69-9.34-39.02-33.16-39.02-33.16s45.44-3.14 43.62-15.81c-30.18-5.01-53.16-25.211-53.16-25.211s29.17-1.908 29.61-14.937c-28.05-6.498-52.38-35.908-52.38-35.908s36.93 2.828 37.39-10.224c-24.77-8.156-47.58-27.195-47.58-27.195s29-3.078 26.98-16.914c-37.28-5.146-56.8-25.843-56.8-25.843s33.64 4.544 32.63-2.42c-12.37-4.078-43.27-21.935-56.07-53.049-12.81-31.114-17.22-61.058-30.08-60.354Z" fill="#305937"/><path d="M1476.32 1030.25c8.25-.14 13.73 68.59 18.52 68.89 4.79.31 18.64-21.18 22.92-17.22 4.29 3.97-19.31 30.78-18.73 40.16.58 9.38 4.17 9.89 7.19 6.97 3.02-2.92 11.04-17.42 13.96-14.4 2.92 3.02-8.53 18.18-12.58 28.4-4.06 10.22-3.54 19.59 1.78 16.25s15.9-23.04 18.86-20.02c2.95 3.02-7.95 21.58-10.31 27.94-2.35 6.36-.19 11.88 4.71 6.25 4.89-5.63 34.08-40.58 37.9-38.92 3.83 1.66-4.67 19.81-13.11 32.02-8.44 12.22-28.63 31.3-29.46 39.76-.83 8.47 1.13 12.82 6.05 7.19 4.92-5.62 39.27-37.98 42.19-34.96 2.92 3.02-8.84 22.95-17.68 32.85-8.85 9.91-19.9 27.33-20 33.27-.1 5.94-.61 9.6 10.95 1.56 11.57-8.04 28.4-19.41 40.9-28.81 12.49-9.39 15.41-19.4 18.17-17.53 2.76 1.88 3.97 8.76-4.68 19.81-8.64 11.06-30.67 32.87-30.3 35.16.36 2.3 5 1.46 16.05-2.93 11.04-4.38 20.74-9.71 22.1-8.78 1.37.93-8.32 19.31-24.06 30.47-15.73 11.15-24.07 17.43-18.96 25.98 5.12 8.54 16.27-1.79 26.69-9.62 10.41-7.84 19.06-18.88 21.77-17.04 2.72 1.84-16.02 28.99-13.53 29.71 2.5.73 10.33-1.87 22.62-12.41 12.29-10.54 18.18-17.54 19.9-14.31 1.73 3.24-.71 15.53-13.95 27.44-13.23 11.9-32.94 27.34-32.29 30.77.65 3.43 6.05 7.19 20.12-.11 14.06-7.31 28.24-20.56 30.01-17.34 1.77 3.23-11.55 21.08-21.97 28.9-10.42 7.83-18.03 11.59-17.61 13.88.42 2.3 10.22 4.06 30.96-5.68 20.73-9.73 25.63-15.34 27.41-12.12 1.77 3.23-7.49 23.86-26.56 29.74-19.07 5.89-28.04 8.68-28.98 10.03-.94 1.35-3.84 11.36-17.39 15.03s-37.23-2.68-49.63.77c-12.41 3.46-18.96 12.94-36.58 13.79-17.62.86-15.02-4.36-25.34-2.47-10.33 1.88-69.11 4.33-69.96-.26-.84-4.59 60.88-17.04 66.2-20.38 5.31-3.34-.12-7.09-11.07-8.65-10.95-1.55-83-26.31-82.92-32.25.08-5.94 32.43 2.38 52.97 4.55s31.69 4.87 33.36 1.01c1.67-3.86-10.43-5.2-30.87-13.32-20.45-8.11-37.03-14.56-34.21-18.64 2.82-4.07 23.25 4.06 41.7 7.8 18.45 3.73 21.9 3.1 22.42-.55.51-3.65-30.36-16.97-28.48-19.67 1.87-2.71 21.9 3.1 31.7 4.87s14.77 3.21 15.12-1.58c.35-4.79-19.5-9.47-36.82-13.42-17.31-3.94-50.68-17.99-50.58-23.93.1-5.94 25.55 3.62 41.5 6.63s23.25 4.05 22.41-.54c-.84-4.59-14.19-12.81-27.12-18.74-12.92-5.93-23.57-12.28-23.06-15.91.51-3.62 34.63 7.9 37.23 2.68 2.6-5.21-5.12-8.55-19.31-21.35-14.19-12.81-17.53-18.18-15.66-20.85 1.88-2.67 63.21 34.67 68.01 34.98 4.81.3 4.48-7.95-.95-11.68-5.43-3.73-48.91-27.8-47.04-30.5 1.87-2.7 30.67 12.17 34.83 9.09 4.16-3.08-29.32-24.27-27.45-26.98 1.88-2.72 42.87 20.61 45.9 17.69 3.02-2.92 4.05-10.23-4.09-15.84-8.15-5.61-56.54-37.08-53.52-40 3.02-2.92 49.54 18.18 54.97 21.96 5.43 3.78-.23-14.19-6.06-20.22-5.84-6.03-31.08-14.47-27.86-16.24 3.23-1.78 23.36-1.9 29.72.5 6.36 2.39 10.11-3.04 4.98-11.58-5.12-8.54-42.76-39.59-42.03-42.03.74-2.44 34.42 19.78 37.65 18.01 3.23-1.78-6.72-62.86.36-62.98Z" fill="#305937"/><path d="M1752.15 898.938s9.32 18.641 20.98 25.638c0 2.272-12.82-4.657-13.99-2.329-1.17 2.329 19.82 24.48 27.98 29.138-2.34 3.498-16.32-4.658-17.48-2.329-1.16 2.329 19.81 23.31 30.3 30.307-4.66 4.658-23.31-6.997-24.47-4.668-1.16 2.328 32.63 41.965 43.16 46.635-1.13 3.48-25.63-7-26.8-4.67-1.17 2.33 31.47 46.57 41.96 53.61-2.33 4.67-24.48-10.48-26.81-5.82-2.33 4.65 39.63 50.12 50.12 55.94-2.33 3.5-38.47-8.15-39.62-4.65-1.16 3.49 36.12 51.28 52.44 59.44-1.13 4.67-37.3-11.65-39.63-7-2.33 4.66 45.44 50.13 60.61 58.29 0 5.83-58.28-9.33-59.44-5.83-1.16 3.5 45.44 37.29 59.44 44.3 0 4.67-127.05-16.31-135.17-16.31-8.13 0-141.05 18.64-144.53 13.98 25.64-9.32 62.93-34.96 61.77-39.63-1.16-4.67-59.44 10.5-61.77 4.67 32.63-19.82 68.77-53.62 66.43-57.12-2.34-3.49-41.96 10.49-43.17 4.66 36.14-25.64 54.78-55.94 53.62-59.44-1.16-3.5-39.63 11.65-41.96 4.65 36.13-26.8 55.94-48.94 54.78-53.61-1.15-4.67-31.47 9.32-32.64 3.5 25.65-20.99 45.43-48.95 44.3-52.45-1.14-3.5-25.65 6.98-26.81 2.33 25.64-17.49 41.96-38.466 39.62-40.795-2.34-2.329-19.81 5.827-22.14 1.136 13.99-9.326 32.64-26.809 32.64-30.308 0-3.499-16.33 4.669-17.48 1.136 13.98-11.655 24.46-24.48 24.46-26.808 0-2.329-8.15 2.272-9.31-1.136 11.62-9.315 18.61-24.457 18.61-24.457ZM1503.09 1240.61s6.34 19.03 22.2 28.54c15.86 9.51 22.2 12.69 19.03 15.9-3.17 3.22-7.95-4.76-11.1-1.59-3.15 3.17 3.17 6.35 0 9.52s-6.35-3.17-9.52 0 12.69 19.03 19.03 22.2c6.34 3.17 12.69 6.34 12.69 9.51s-9.52 3.17-12.69 0-6.34-9.51-9.51-6.34 0 6.34-3.17 6.34-3.18-3.17-6.35 0c-3.17 3.17 6.35 12.68 12.69 15.9 6.34 3.21 34.08 9.56 34.88 15.9.62 4.69-7.54 4.69-11.04 4.69-3.5 0-3.5 1.14-2.33 4.67 1.17 3.54-1.13 5.83-5.82 5.83-4.7 0-12.83-8.16-16.33-8.16-3.5 0-4.66 3.49-2.27 6.99s33.81 25.65 46.63 32.64c12.83 6.98 25.64 12.82 26.81 17.49 1.17 4.67-11.66 5.83-15.15 4.66-3.5-1.17-5.83-2.33-7-1.14-1.17 1.19-1.14 7-9.33 7s-13.98-8.16-15.15-8.16-1.14 6.99-5.83 6.99-6.99-5.83-9.33-5.83-3.49 2.34-1.13 8.17c2.36 5.83 39.62 39.62 54.77 48.95 15.16 9.32 34.98 11.65 36.14 13.99 1.16 2.34-1.14 8.16-16.31 9.32-15.18 1.16-20.98-3.49-22.15-4.66-1.17-1.17-2.28 0-2.28 3.5s0 4.66-4.66 4.66c-4.67 0-9.32-9.33-10.49-8.16s0 5.83-3.5 9.33-8.15-1.14-10.48-1.14-3.5 2.34-2.34 4.67c1.16 2.33 20.98 31.47 46.63 50.12 25.65 18.65 57.11 25.64 57.11 27.98s-6.99 8.15-16.32 8.15-13.98 0-13.98 1.14-2.33 9.31-9.33 8.16c-7-1.16-23.31-10.5-25.64-10.5-2.33 0 1.14 11.65-7 12.82-8.13 1.17-12.82-9.32-13.98-9.32-1.16 0 2.27 11.65-7 10.49-9.27-1.15-19.81-16.32-22.15-16.32s2.34 9.33-2.27 10.5c-4.61 1.17-18.65-8.17-20.98-8.17-2.33 0-1.14 13.99-8.16 12.82-7.02-1.17-10.49-10.48-16.32-10.48s-10.49 9.31-15.16 9.31c-4.66 0-1.13-10.48-5.82-11.65s-10.49 8.17-18.64 8.17c-8.16 0-2.34-10.5-8.17-11.67s-16.31 10.5-22.14 10.5c-5.83 0-2.27-9.33-7-10.5-4.72-1.17-12.82 12.83-18.65 12.83-5.83 0 1.14-12.83-2.27-12.83s-13.99 8.17-20.98 8.17c-7 0-3.5-11.66-7-11.66s-6.99 6.99-16.31 5.83c-9.33-1.16-11.66-4.67-9.33-7s37.3-24.48 62.94-48.96 29.14-33.79 26.81-37.29c-2.33-3.5-8.15 5.83-12.82 4.66s2.34-10.49-1.14-11.66c-3.47-1.17-11.65 10.5-20.98 10.5s-5.83-5.83-5.83-8.17-17.49 2.34-18.65-2.27c-1.16-4.61 32.64-13.99 54.79-30.31s29.13-40.79 29.13-44.3c0-3.51-5.82-2.33-8.15 0s-15.16 8.16-17.5 8.16-3.48-5.83-4.65-5.83c-1.17 0-3.5 5.83-10.5 5.83s-4.66-4.66-6.99-5.83c-2.32-1.17-8.15 0-13.99-1.14-5.84-1.13-4.66-3.5 0-4.67s25.65-9.32 46.57-26.81c20.93-17.48 24.48-25.63 23.31-27.96-1.17-2.33-11.65 3.48-13.98 3.48s-3.5-4.65-4.67-4.65-8.15 4.65-10.48 3.5c-2.33-1.16 2.33-7 1.13-8.16-1.19-1.16-15.14 2.27-13.98-1.14 1.16-3.4 13.98-3.5 26.81-11.65 12.82-8.16 25.65-22.15 24.48-24.48-1.17-2.33-8.16 5.83-11.66 4.67-3.5-1.16-3.5-3.5-4.67-2.34-1.17 1.16-2.27 3.5-4.65 3.5-2.39 0 1.13-4.66-2.28-3.5-3.4 1.16-8.16 2.34-8.16 0s6.99-5.83 20.98-17.49c13.98-11.65 11.66-22.13 11.66-22.13s-8.16 4.65-10.49 3.48c-2.33-1.17 0-4.65-2.27-4.65-2.28 0-10.5 1.13-9.33-1.14 1.17-2.27 9.33 1.13 23.31-13.98 13.98-15.12 13.62-26.72 17.15-26.34ZM1495.42 1696.38s9.33 18.64 20.98 25.64c0 2.27-12.81-4.66-13.98-2.33s19.81 24.48 27.98 29.14c-2.34 3.49-16.33-4.66-17.48-2.33-1.16 2.33 19.81 23.31 30.29 30.3-4.66 4.66-23.31-6.99-24.47-4.67-1.16 2.33 32.64 41.97 43.17 46.64-1.14 3.48-25.64-7-26.81-4.67-1.17 2.33 31.48 46.57 41.96 53.61-2.32 4.67-24.48-10.48-26.8-5.82-2.33 4.65 39.63 50.12 50.11 55.94-2.33 3.5-38.46-8.15-39.62-4.65-1.16 3.49 36.12 51.28 52.45 59.44-1.14 4.67-37.31-11.65-39.64-7-2.32 4.66 45.44 50.13 60.62 58.29 0 5.83-58.29-9.33-59.44-5.83-1.16 3.5 45.43 37.3 59.44 44.3 0 4.67-127.06-16.31-135.18-16.31-8.12 0-141.04 18.64-144.53 13.99 25.64-9.33 62.93-34.97 61.78-39.64-1.16-4.67-59.45 10.5-61.78 4.67 32.64-19.82 68.77-53.62 66.43-57.12-2.34-3.49-41.96 10.49-43.16 4.66 36.13-25.64 54.77-55.94 53.61-59.44-1.15-3.5-39.63 11.65-41.96 4.65 36.14-26.8 55.95-48.94 54.79-53.61-1.16-4.67-31.48 9.32-32.65 3.5 25.65-20.99 45.44-48.95 44.3-52.45-1.13-3.5-25.65 6.98-26.8 2.33 25.63-17.48 41.96-38.47 39.62-40.79-2.34-2.33-19.81 5.82-22.14 1.13 13.98-9.32 32.63-26.81 32.63-30.31s-16.32 4.67-17.48 1.14c13.99-11.66 24.47-24.48 24.47-26.81 0-2.33-8.16 2.27-9.31-1.13 11.62-9.32 18.6-24.46 18.6-24.46Z" fill="#305937"/><path d="M1688.71 265.303s9.09 18.175 20.45 24.991c0 2.272-12.5-4.544-13.64-2.272-1.13 2.272 19.32 23.855 27.27 28.399-2.27 3.408-15.91-4.544-17.04-2.272-1.14 2.272 19.31 22.719 29.53 29.535-4.54 4.544-22.72-6.816-23.85-4.544-1.14 2.272 31.8 40.895 42.03 45.438-1.14 3.408-24.99-6.815-26.13-4.543-1.13 2.272 30.67 45.438 40.9 52.254-2.28 4.544-23.86-10.224-26.13-5.68-2.27 4.544 38.62 48.846 48.85 54.526-2.28 3.408-37.49-7.952-38.63-4.544-1.13 3.408 35.22 49.982 51.12 57.934-1.14 4.544-36.35-11.36-38.62-6.816-2.27 4.544 44.3 48.847 59.07 56.798 0 5.68-56.8-9.087-57.94-5.68-1.13 3.408 44.31 36.351 57.94 43.167 0 4.544-123.82-15.903-131.77-15.903-7.95 0-137.45 18.175-140.86 13.631 24.99-9.088 61.34-34.079 60.2-38.623-1.13-4.543-57.93 10.224-60.2 4.544 31.8-19.311 67.02-52.254 64.75-55.662-2.27-3.408-40.9 10.224-42.03 4.544 35.21-24.991 53.39-54.526 52.25-57.934-1.13-3.408-38.62 11.36-40.89 4.544 35.21-26.127 54.52-47.71 53.39-52.254-1.14-4.544-30.67 9.088-31.81 3.408 24.99-20.448 44.3-47.711 43.17-51.118-1.14-3.408-24.99 6.815-26.13 2.271 24.99-17.039 40.89-37.486 38.62-39.758-2.27-2.272-19.31 5.68-21.58 1.136 13.63-9.088 31.81-26.127 31.81-29.535 0-3.408-15.91 4.544-17.04 1.136 13.63-11.36 23.85-23.855 23.85-26.127 0-2.272-7.95 2.272-9.09-1.136 11.36-9.088 18.18-23.855 18.18-23.855ZM2007.82 1665.71s-9.32 18.64-20.98 25.63c0 2.28 12.82-4.65 13.99-2.32 1.17 2.32-19.82 24.48-27.98 29.13 2.33 3.5 16.33-4.65 17.48-2.33 1.16 2.33-19.81 23.31-30.3 30.31 4.67 4.66 23.32-7 24.48-4.67 1.16 2.33-32.64 41.97-43.17 46.63 1.14 3.49 25.64-6.99 26.81-4.66 1.17 2.32-31.48 46.57-41.96 53.61 2.33 4.67 24.48-10.48 26.8-5.82 2.33 4.65-39.63 50.11-50.11 55.94 2.33 3.5 38.46-8.16 39.62-4.66 1.16 3.5-36.14 51.29-52.45 59.45 1.14 4.67 37.29-11.66 39.63-7 2.35 4.66-45.43 50.13-60.61 58.29 0 5.82 58.28-9.33 59.45-5.83 1.17 3.5-45.44 37.29-59.45 44.3 0 4.67 127.05-16.31 135.18-16.31 8.13 0 141.03 18.64 144.53 13.98-25.64-9.32-62.95-34.96-61.78-39.63 1.17-4.67 59.45 10.5 61.78 4.67-32.64-19.82-68.77-53.62-66.44-57.12 2.32-3.5 41.96 10.49 43.16 4.66-36.13-25.64-54.79-55.95-53.62-59.44 1.17-3.5 39.64 11.65 41.97 4.65-36.14-26.81-55.95-48.95-54.79-53.61 1.16-4.67 31.48 9.32 32.64 3.49-25.64-20.98-45.44-48.94-44.31-52.44 1.14-3.5 25.65 6.98 26.81 2.33-25.64-17.49-41.96-38.47-39.63-40.8 2.33-2.33 19.82 5.83 22.15 1.14-13.98-9.33-32.64-26.81-32.64-30.31s16.33 4.67 17.49 1.14c-13.99-11.66-24.48-24.48-24.48-26.81 0-2.33 8.16 2.27 9.32-1.14-11.6-9.31-18.59-24.45-18.59-24.45Z" fill="#45684A"/><path d="M1675.76 1687.05s6.34 19.03 22.2 28.54c15.86 9.51 22.2 12.69 19.03 15.9-3.17 3.22-7.96-4.76-11.1-1.59-3.15 3.17 3.17 6.35 0 9.52s-6.35-3.17-9.52 0 12.69 19.03 19.03 22.2c6.34 3.17 12.68 6.34 12.68 9.5 0 3.17-9.51 3.17-12.68 0-3.17-3.16-6.34-9.5-9.51-6.33s0 6.33-3.17 6.33-3.18-3.16-6.35 0c-3.17 3.17 6.35 12.69 12.69 15.91 6.34 3.21 34.08 9.56 34.88 15.9.62 4.69-7.54 4.69-11.04 4.69-3.5 0-3.5 1.14-2.27 4.67 1.23 3.53-1.14 5.83-5.83 5.83s-12.82-8.16-16.32-8.16-4.66 3.49-2.33 6.99 33.81 25.65 46.63 32.64c12.83 6.98 25.64 12.82 26.81 17.49 1.17 4.67-11.66 5.83-15.15 4.66-3.5-1.17-5.83-2.33-7-1.14-1.17 1.19-1.14 7-9.33 7s-13.98-8.16-15.15-8.16-1.14 6.99-5.83 6.99-6.99-5.83-9.33-5.83-3.49 2.34-1.13 8.17c2.36 5.83 39.62 39.62 54.77 48.95 15.16 9.32 34.98 11.65 36.14 13.99 1.16 2.34-1.14 8.16-16.31 9.32-15.18 1.16-20.98-3.49-22.15-4.66-1.17-1.17-2.28 0-2.28 3.5s0 4.66-4.66 4.66c-4.67 0-9.32-9.33-10.49-8.16s0 5.83-3.5 9.33c-3.5 3.49-8.15-1.14-10.48-1.14s-3.5 2.34-2.34 4.67c1.16 2.33 20.98 31.46 46.63 50.12 25.65 18.65 57.11 25.64 57.11 27.98s-6.99 8.15-16.32 8.15-13.98 0-13.98 1.14c0 1.13-2.33 9.31-9.33 8.15-7-1.16-23.31-10.49-25.64-10.49-2.33 0 1.14 11.65-7 12.82-8.13 1.17-12.82-9.32-13.98-9.32-1.16 0 2.27 11.65-7 10.49-9.27-1.16-19.81-16.32-22.15-16.32s2.34 9.32-2.27 10.49c-4.61 1.17-18.65-8.16-20.98-8.16-2.33 0-1.14 13.99-8.16 12.82-7.02-1.17-10.49-10.48-16.32-10.48s-10.49 9.31-15.16 9.31c-4.66 0-1.13-10.48-5.82-11.65s-10.49 8.16-18.64 8.16c-8.16 0-2.34-10.49-8.17-11.66s-16.31 10.49-22.14 10.49c-5.83 0-2.33-9.32-7-10.49s-12.82 12.82-18.65 12.82c-5.83 0 1.13-12.82-2.27-12.82-3.41 0-13.99 8.17-20.98 8.17-7 0-3.5-11.66-7-11.66s-6.99 6.99-16.31 5.83c-9.33-1.16-11.66-4.67-9.33-7s37.3-24.48 62.94-48.96 29.14-33.79 26.81-37.29c-2.33-3.5-8.15 5.83-12.82 4.66s2.34-10.49-1.14-11.66c-3.48-1.17-11.65 10.5-20.98 10.5s-5.83-5.83-5.83-8.17-17.49 2.34-18.65-2.27c-1.16-4.61 32.64-13.99 54.79-30.31s29.13-40.79 29.13-44.3c0-3.51-5.82-2.33-8.15 0s-15.16 8.15-17.5 8.15-3.48-5.82-4.65-5.82c-1.17 0-3.5 5.82-10.5 5.82s-4.66-4.65-6.99-5.82c-2.32-1.17-8.15 0-13.99-1.14s-4.66-3.5 0-4.67 25.65-9.33 46.63-26.81c20.98-17.48 24.48-25.64 23.31-27.96-1.17-2.33-11.65 3.48-13.98 3.48s-3.5-4.65-4.67-4.65-8.16 4.65-10.49 3.49c-2.33-1.15 2.33-6.99 1.14-8.15-1.19-1.16-15.14 2.27-13.98-1.14 1.15-3.41 13.98-3.5 26.8-11.65 12.83-8.16 25.65-22.15 24.48-24.48-1.17-2.33-8.15 5.82-11.65 4.67-3.5-1.16-3.5-3.5-4.67-2.34-1.17 1.15-2.33 3.49-4.66 3.49s1.14-4.65-2.27-3.49c-3.41 1.15-8.17 2.34-8.17 0s7-5.83 20.98-17.49c13.99-11.65 11.67-22.14 11.67-22.14s-8.17 4.66-10.5 3.49c-2.32-1.17 0-4.66-2.32-4.66-2.33 0-10.5 1.14-9.33-1.13 1.17-2.27 9.33 1.13 23.31-13.99 13.98-15.12 13.62-26.71 17.15-26.33ZM1452.46 533.84c8.25-.136 13.72 68.589 18.52 68.896 4.79.307 18.64-21.186 22.92-17.221 4.28 3.964-19.31 30.773-18.73 40.156.58 9.383 4.17 9.894 7.19 6.975 3.02-2.919 11.04-17.426 13.96-14.404 2.92 3.022-8.53 18.175-12.58 28.399-4.06 10.223-3.54 19.595 1.78 16.255 5.31-3.339 15.9-23.048 18.86-20.026 2.95 3.021-7.96 21.583-10.31 27.944-2.35 6.361-.19 11.882 4.71 6.248 4.89-5.634 34.07-40.577 37.9-38.918 3.83 1.658-4.67 19.811-13.11 32.023-8.44 12.211-28.63 31.295-29.46 39.758-.83 8.463 1.13 12.814 6.05 7.191s39.27-37.987 42.19-34.965c2.92 3.022-8.84 22.947-17.69 32.852-8.85 9.906-19.89 27.331-19.99 33.272-.1 5.941-.61 9.599 10.95 1.556 11.57-8.042 28.4-19.413 40.9-28.808 12.49-9.394 15.41-19.402 18.17-17.527 2.76 1.874 3.97 8.758-4.68 19.811-8.64 11.053-30.67 32.863-30.31 35.158.37 2.294 5.01 1.454 16.06-2.931 11.04-4.385 20.74-9.712 22.1-8.781 1.36.932-8.33 19.311-24.06 30.466-15.73 11.155-24.07 17.437-18.96 25.98 5.11 8.542 16.27-1.784 26.69-9.622 10.41-7.838 19.06-18.879 21.77-17.039 2.72 1.84-16.03 28.989-13.53 29.717 2.5.727 10.33-1.875 22.62-12.416 12.29-10.542 18.18-17.54 19.9-14.302 1.73 3.237-.71 15.528-13.95 27.433-13.23 11.905-32.94 27.343-32.29 30.773.64 3.431 6.05 7.191 20.11-.113 14.07-7.304 28.24-20.561 30.02-17.335 1.77 3.226-11.56 21.072-21.97 28.899-10.42 7.827-18.03 11.587-17.61 13.881.42 2.295 10.22 4.056 30.95-5.68 20.74-9.735 25.64-15.346 27.42-12.12 1.77 3.226-7.49 23.855-26.56 29.739-19.08 5.884-28.04 8.679-28.98 10.031-.94 1.352-3.84 11.359-17.39 15.028-13.56 3.67-37.23-2.68-49.63.773-12.41 3.453-18.96 12.939-36.58 13.791-17.62.852-15.02-4.363-25.34-2.477-10.33 1.886-69.12 4.328-69.96-.261-.84-4.59 60.88-17.04 66.2-20.379 5.31-3.34-.12-7.089-11.07-8.645-10.95-1.556-83-26.309-82.92-32.25.08-5.941 32.43 2.374 52.97 4.544 20.53 2.17 31.69 4.873 33.36 1.011 1.67-3.862-10.43-5.203-30.88-13.314-20.44-8.11-37.02-14.562-34.2-18.641 2.82-4.078 23.25 4.056 41.7 7.793 18.45 3.737 21.9 3.101 22.41-.545.51-3.647-30.35-16.971-28.47-19.675 1.87-2.703 21.9 3.101 31.7 4.873 9.8 1.773 14.77 3.215 15.12-1.579.35-4.793-19.5-9.474-36.82-13.415-17.31-3.942-50.68-17.994-50.58-23.935.1-5.941 25.55 3.624 41.5 6.634 15.94 3.01 23.25 4.044 22.41-.545-.84-4.59-14.19-12.814-27.12-18.744-12.92-5.929-23.57-12.279-23.06-15.903.51-3.624 34.63 7.895 37.23 2.681 2.6-5.214-5.13-8.554-19.31-21.356-14.19-12.802-17.53-18.176-15.66-20.845 1.88-2.67 63.21 34.669 68.01 34.976 4.81.307 4.48-7.952-.95-11.678-5.43-3.726-48.92-27.796-47.04-30.5 1.87-2.704 30.67 12.166 34.83 9.088 4.15-3.079-29.32-24.264-27.45-26.979 1.88-2.715 42.87 20.606 45.9 17.686 3.02-2.919 4.05-10.223-4.09-15.835-8.15-5.611-56.54-37.077-53.52-39.997 3.02-2.919 49.54 18.176 54.97 21.958 5.43 3.783-.23-14.188-6.07-20.22-5.84-6.032-31.08-14.472-27.85-16.244 3.23-1.772 23.36-1.897 29.72.5 6.36 2.396 10.11-3.033 4.98-11.576-5.12-8.542-42.77-39.588-42.03-42.03.74-2.443 34.42 19.777 37.65 18.005 3.22-1.772-6.73-62.853.36-62.978ZM1586.31 1313.55s9.33 18.64 20.98 25.64c0 2.27-12.81-4.66-13.98-2.33s19.81 24.48 27.98 29.14c-2.34 3.5-16.32-4.66-17.48-2.33-1.16 2.33 19.81 23.31 30.29 30.31-4.65 4.65-23.31-7-24.47-4.67-1.15 2.33 32.64 41.96 43.17 46.63-1.14 3.49-25.64-7-26.81-4.67-1.17 2.33 31.48 46.57 41.96 53.62-2.32 4.67-24.48-10.49-26.8-5.83-2.33 4.66 39.63 50.12 50.11 55.95-2.32 3.49-38.46-8.16-39.62-4.66-1.16 3.5 36.13 51.29 52.45 59.44-1.14 4.67-37.31-11.65-39.63-6.99-2.33 4.65 45.43 50.13 60.61 58.28 0 5.83-58.29-9.32-59.44-5.83-1.16 3.5 45.43 37.3 59.44 44.31 0 4.67-127.06-16.32-135.18-16.32-8.12 0-141.04 18.65-144.53 13.99 25.64-9.33 62.94-34.97 61.78-39.64-1.16-4.66-59.45 10.5-61.78 4.67 32.64-19.82 68.77-53.61 66.43-57.11-2.34-3.5-41.96 10.48-43.16 4.65 36.13-25.63 54.77-55.94 53.61-59.44-1.15-3.5-39.63 11.65-41.96 4.66 36.14-26.81 55.95-48.95 54.79-53.62-1.16-4.67-31.48 9.33-32.65 3.5 25.65-20.98 45.44-48.95 44.3-52.45-1.13-3.5-25.65 6.99-26.8 2.33 25.63-17.48 41.96-38.46 39.62-40.79-2.34-2.33-19.81 5.83-22.14 1.13 13.98-9.32 32.63-26.8 32.63-30.3s-16.32 4.67-17.48 1.13c13.99-11.65 24.47-24.48 24.47-26.81 0-2.32-8.16 2.28-9.31-1.13 11.62-9.32 18.6-24.46 18.6-24.46Z" fill="#305937"/><path d="M1990.77 839.865s-9.31 18.641-20.98 25.639c0 2.272 12.83-4.658 14-2.329s-19.83 24.48-27.98 29.137c2.33 3.499 16.32-4.657 17.48-2.328 1.16 2.328-19.81 23.31-30.31 30.307 4.67 4.658 23.32-6.997 24.48-4.669 1.16 2.329-32.63 41.963-43.16 46.631 1.13 3.488 25.64-6.997 26.81-4.668 1.17 2.328-31.48 46.575-41.97 53.615 2.33 4.67 24.48-10.48 26.81-5.83 2.33 4.66-39.63 50.12-50.12 55.95 2.33 3.5 38.47-8.16 39.63-4.66 1.15 3.5-36.14 51.29-52.45 59.45 1.13 4.67 37.29-11.66 39.63-7 2.34 4.66-45.44 50.13-60.61 58.29 0 5.82 58.27-9.33 59.44-5.83 1.17 3.5-45.44 37.29-59.44 44.3 0 4.67 127.04-16.31 135.18-16.31 8.13 0 141.03 18.64 144.52 13.98-25.63-9.32-62.94-34.96-61.77-39.63 1.17-4.67 59.45 10.5 61.77 4.67-32.63-19.82-68.77-53.62-66.44-57.12 2.33-3.5 41.96 10.49 43.17 4.66-36.14-25.64-54.79-55.95-53.62-59.45 1.17-3.49 39.64 11.66 41.96 4.66-36.13-26.81-55.94-48.95-54.78-53.62 1.16-4.66 31.47 9.33 32.63 3.5-25.64-20.978-45.44-48.945-44.3-52.444 1.14-3.499 25.65 6.986 26.81 2.329-25.64-17.483-41.96-38.464-39.63-40.792 2.32-2.329 19.82 5.827 22.15 1.136-13.99-9.327-32.64-26.809-32.64-30.308 0-3.499 16.32 4.669 17.48 1.136-13.98-11.655-24.48-24.48-24.48-26.809 0-2.328 8.17 2.272 9.33-1.136-11.6-9.314-18.6-24.457-18.6-24.457Z" fill="#45684A"/><path d="M1949.1 1145.88c12.86.7 5.39 59.68 23.73 95.42 18.33 35.74 18.3 43.9 36.35 57.16-4.17 12.35-34.08-.28-34.08-.28s12.9 32.51 47.47 45.82c-2.84 11.36-37.94 9.76-37.94 9.76s15.38 31.7 44.04 37.08c-2.84 11.36-41.75 11.56-41.75 11.56s17.69 32.04 40.08 40.03c-5.49 13.34-37.94 9.76-37.94 9.76s17.88 22.64 44.72 32.47c-2.36 16.14-76 4.18-76 4.18s.44 13.01 7.68 19.97c-7.96 5.9-58.4-35.65-58.4-35.65s-24.54 38.82-37.22 36.96c.54-11.71 1.47-42.2 1.47-42.2s-45.13 34.63-54.53 26.13c11.42-13.63 17.93-33.9 17.93-33.9s-43.92 18.32-50.47 6.75c16.68-9.34 39.02-33.16 39.02-33.16s-45.44-3.13-43.62-15.81c30.18-5.01 53.16-25.21 53.16-25.21s-29.17-1.9-29.62-14.93c28.05-6.5 52.38-35.91 52.38-35.91s-36.93 2.83-37.38-10.23c24.75-8.15 47.57-27.19 47.57-27.19s-29-3.08-26.98-16.92c37.27-5.14 56.8-25.84 56.8-25.84s-33.65 4.55-32.62-2.42c12.37-4.08 43.25-21.93 56.07-53.05 12.81-31.11 17.22-61.05 30.08-60.35Z" fill="#406632"/><path d="M1760.26 1243.37s9.09 18.17 20.45 24.99c0 2.27-12.5-4.55-13.63-2.27-1.14 2.27 19.31 23.85 27.26 28.4-2.27 3.4-15.9-4.55-17.04-2.28-1.13 2.28 19.31 22.72 29.54 29.54-4.55 4.54-22.72-6.82-23.86-4.55-1.14 2.28 31.81 40.9 42.03 45.44-1.13 3.41-24.99-6.81-26.13-4.54-1.13 2.27 30.68 45.44 40.9 52.25-2.27 4.55-23.86-10.22-26.13-5.68-2.27 4.55 38.62 48.85 48.85 54.53-2.27 3.41-37.49-7.95-38.62-4.54-1.14 3.4 35.21 49.98 51.11 57.93-1.13 4.54-36.35-11.36-38.62-6.82-2.27 4.55 44.3 48.85 59.07 56.8 0 5.68-56.8-9.09-57.93-5.68-1.14 3.41 44.3 36.35 57.93 43.17 0 4.54-123.82-15.91-131.77-15.91-7.95 0-137.45 18.18-140.86 13.64 24.99-9.09 61.34-34.08 60.21-38.63-1.14-4.54-57.94 10.23-60.21 4.55 31.81-19.31 67.02-52.26 64.75-55.66-2.27-3.41-40.89 10.22-42.03 4.54 35.21-24.99 53.39-54.53 52.25-57.93-1.13-3.41-38.62 11.36-40.89 4.54 35.21-26.13 54.53-47.71 53.39-52.25-1.14-4.55-30.67 9.08-31.81 3.4 24.99-20.44 44.3-47.71 43.17-51.11-1.14-3.41-24.99 6.81-26.13 2.27 24.99-17.04 40.9-37.49 38.62-39.76-2.27-2.27-19.31 5.68-21.58 1.13 13.63-9.08 31.81-26.12 31.81-29.53s-15.91 4.54-17.04 1.14c13.63-11.36 23.85-23.86 23.85-26.13 0-2.27-7.95 2.27-9.08-1.14 11.36-9.09 18.17-23.85 18.17-23.85Z" fill="#305937"/><path d="M1836.64 1534.38c12.86.7 5.4 59.68 23.73 95.42s18.3 43.9 36.35 57.16c-4.17 12.35-34.08-.28-34.08-.28s12.91 32.51 47.47 45.82c-2.84 11.36-37.94 9.76-37.94 9.76s15.38 31.7 44.04 37.08c-2.84 11.36-41.74 11.56-41.74 11.56s17.68 32.03 40.07 40.03c-5.48 13.34-37.94 9.76-37.94 9.76s17.88 22.64 44.73 32.46c-2.37 16.15-76.01 4.19-76.01 4.19s.44 13.01 7.68 19.97c-7.95 5.9-58.4-35.65-58.4-35.65s-24.54 38.81-37.22 36.96c.54-11.71 1.47-42.2 1.47-42.2s-45.13 34.63-54.53 26.13c11.42-13.63 17.93-33.9 17.93-33.9s-43.92 18.31-50.47 6.75c16.69-9.34 39.02-33.16 39.02-33.16s-45.44-3.13-43.62-15.81c30.18-5.01 53.16-25.21 53.16-25.21s-29.17-1.91-29.61-14.94c28.04-6.49 52.38-35.9 52.38-35.9s-36.93 2.82-37.39-10.23c24.75-8.15 47.58-27.19 47.58-27.19s-29.01-3.08-26.98-16.92c37.27-5.14 56.79-25.84 56.79-25.84s-33.64 4.54-32.62-2.42c12.37-4.08 43.26-21.93 56.07-53.05 12.81-31.11 17.22-61.06 30.08-60.35Z" fill="#406632"/><path d="m209.633 244.902 4.653 79.053h-13.951v-74.408l9.298-4.645Z" fill="#6B3425"/><path d="M172.426 133.287s-18.604-13.951-32.555 0-4.653 32.555-4.653 32.555-23.249 9.297-18.604 37.208c4.653 27.902 23.248 18.604 23.248 18.604s-13.951 32.555 23.249 46.506c37.208 13.95 51.159-9.298 51.159-9.298s23.248 23.248 41.852 0c18.604-23.249 13.951-46.506 13.951-46.506s18.604-9.298 9.298-41.853c-9.298-32.554-27.902-23.248-27.902-23.248s0-32.555-27.902-37.208c-27.884-4.662-51.141 23.24-51.141 23.24Z" fill="#7FA024"/><path d="M216.612 156.543a6.98 6.98 0 1 0 0-13.959 6.98 6.98 0 1 0 0 13.959ZM249.161 193.751a6.98 6.98 0 1 0 0-13.959 6.98 6.98 0 0 0 0 13.959ZM232.882 240.249a9.298 9.298 0 1 0 0-18.596 9.298 9.298 0 0 0 0 18.596ZM172.425 230.944a9.298 9.298 0 1 0 0-18.596 9.298 9.298 0 0 0 0 18.596ZM165.455 170.496a6.98 6.98 0 1 0 0-13.96 6.98 6.98 0 0 0 0 13.96Z" fill="#61C10C"/><path d="m374.985 272.642 3.688 62.637H363.93v-62.637h11.055Z" fill="#6B3425"/><path d="M343.672 186.067s7.368-25.791 33.159-22.103c25.79 3.689 33.158 36.847 33.158 36.847s18.423-3.688 22.102 18.423c3.688 22.102-14.735 29.478-14.735 29.478s14.735 18.424-3.688 33.159-40.526 3.688-40.526 3.688-22.102 22.102-44.213 3.688c-22.103-18.423-14.735-29.479-14.735-29.479s-22.103-11.056-18.423-29.479c3.688-18.423 18.423-18.423 18.423-18.423s-14.735-14.735 0-25.79c14.735-11.056 29.478-.009 29.478-.009Z" fill="#59843D"/><path d="M376.831 206.326a9.211 9.211 0 0 0 9.211-9.212 9.211 9.211 0 0 0-9.211-9.211 9.212 9.212 0 1 0 0 18.423ZM409.989 235.804a9.211 9.211 0 0 0 9.211-9.212 9.211 9.211 0 0 0-9.211-9.211 9.212 9.212 0 1 0 0 18.423ZM393.409 265.274a7.368 7.368 0 1 0-.002-14.736 7.368 7.368 0 0 0 .002 14.736ZM367.621 243.173c6.105 0 11.055-4.95 11.055-11.056 0-6.106-4.95-11.055-11.055-11.055-6.106 0-11.056 4.949-11.056 11.055s4.95 11.056 11.056 11.056ZM338.139 217.381a7.367 7.367 0 1 0 0-14.735 7.367 7.367 0 0 0 0 14.735ZM323.406 246.852a7.367 7.367 0 1 0 .001-14.735 7.367 7.367 0 0 0-.001 14.735ZM347.351 272.641a9.212 9.212 0 1 0 0-18.423 9.212 9.212 0 0 0 0 18.423Z" fill="#8CCE4D"/><path d="m525.811 323.976-20.508.201.14 14.356 20.508-.201-.14-14.356Z" fill="#6B3425"/><path d="m545.411 291.331 26.041-.258-8.031-39.561-18.475-8.238 16.769-.163-2.068-10.194-29.66-2.465 27.712-7.1-4.119-20.293-23.946-8.901s13.003-1.043 21.792-1.724l-12.503-61.585-19.449-1.853 18.527-2.688L512.357 0l-13.684 74.856 8.918-.087-10.124 6.696-4.335 23.74 16.588-.164-17.518 5.256-1.517 8.29 9.28-.095-10.012 4.084-9.117 49.893 23.007 5.67-25.23 6.497-7.342 40.146 23.869-.232-26.144 12.667-7.583 41.499c12.607 2.12 31.013 5.101 31.013 5.101l-33.029 5.937-6.368 34.83 124.972-1.224-3.921-19.327-28.669-12.702Z" fill="#7EA21A"/><path d="m1492.5 215.862 3.68 62.535h-14.72v-62.535h11.04Z" fill="#6B3425"/><path d="M1461.24 129.427s7.35-25.749 33.1-22.067c25.75 3.682 33.11 36.787 33.11 36.787s18.39-3.682 22.06 18.393c3.68 22.067-14.71 29.431-14.71 29.431s14.71 18.394-3.68 33.105c-18.39 14.711-40.46 3.682-40.46 3.682s-22.07 22.067-44.14 3.682c-22.07-18.393-14.71-29.431-14.71-29.431s-22.07-11.038-18.4-29.431c3.68-18.393 18.4-18.393 18.4-18.393s-14.72-14.712 0-25.749c14.71-11.038 29.43-.009 29.43-.009Z" fill="#59843D"/><path d="M1494.34 149.653c5.08 0 9.2-4.117 9.2-9.197 0-5.079-4.12-9.196-9.2-9.196-5.08 0-9.2 4.117-9.2 9.196 0 5.08 4.12 9.197 9.2 9.197ZM1527.45 179.083c5.07 0 9.19-4.117 9.19-9.196 0-5.08-4.12-9.197-9.19-9.197-5.08 0-9.2 4.117-9.2 9.197 0 5.079 4.12 9.196 9.2 9.196ZM1510.89 208.506c4.06 0 7.36-3.293 7.36-7.356 0-4.062-3.3-7.355-7.36-7.355a7.352 7.352 0 0 0-7.35 7.355 7.352 7.352 0 0 0 7.35 7.356ZM1485.15 186.44c6.09 0 11.03-4.942 11.03-11.037 0-6.096-4.94-11.038-11.03-11.038-6.1 0-11.04 4.942-11.04 11.038 0 6.095 4.94 11.037 11.04 11.037ZM1455.72 160.69c4.06 0 7.35-3.293 7.35-7.355a7.352 7.352 0 0 0-7.35-7.356 7.354 7.354 0 0 0-7.36 7.356 7.354 7.354 0 0 0 7.36 7.355ZM1441 190.114c4.07 0 7.36-3.294 7.36-7.356a7.354 7.354 0 0 0-7.36-7.356 7.352 7.352 0 0 0-7.35 7.356 7.353 7.353 0 0 0 7.35 7.356ZM1464.91 215.861c5.08 0 9.2-4.117 9.2-9.197 0-5.079-4.12-9.196-9.2-9.196-5.08 0-9.2 4.117-9.2 9.196 0 5.08 4.12 9.197 9.2 9.197Z" fill="#8CCE4D"/></g><defs><clipPath id="clip0_131_3046"><path fill="#fff" d="M0 0h1920v2115H0z"/></clipPath></defs></svg>