<svg width="424" height="136" fill="none" xmlns="http://www.w3.org/2000/svg"><path d="M179.203.004c1.485.3.215 15.4 1.069 15.655.854.253 4.047-3.847 4.693-2.824.646 1.023-4.477 5.9-4.693 7.955-.215 2.054.423 2.308 1.07 1.8.646-.508 2.554-3.339 2.984-2.57.424.77-2.13 3.593-3.2 5.647-1.069 2.054-1.277 4.108-.215 3.593 1.069-.516 3.623-4.362 4.046-3.593.423.77-2.131 4.362-2.769 5.647-.639 1.285-.423 2.57.638 1.538 1.07-1.023 7.462-7.439 8.101-6.931.639.508-1.492 4.108-3.408 6.416-1.915 2.308-6.177 5.647-6.608 7.439-.423 1.8-.216 2.823.854 1.8 1.069-1.023 8.316-6.67 8.739-5.9.423.769-2.346 4.615-4.262 6.416-1.916 1.8-4.477 5.13-4.693 6.416-.215 1.284-.423 2.053 1.916.769 2.346-1.285 5.754-3.077 8.316-4.616 2.554-1.539 3.408-3.593 3.839-3.077.423.515.423 2.054-1.493 4.108-1.915 2.054-6.608 5.9-6.608 6.416 0 .515.854.515 2.985 0 2.131-.516 4.046-1.285 4.262-1.023.215.254-2.131 3.846-5.331 5.646-3.201 1.8-4.901 2.824-4.262 4.878.638 2.054 2.985.253 5.116-1.024 2.13-1.284 4.046-3.338 4.477-2.823.431.516-3.839 5.647-3.408 5.9.423.255 1.915 0 4.477-1.8 2.554-1.8 3.839-3.077 4.047-2.307.215.769-.639 3.338-3.408 5.392-2.77 2.054-6.824 4.616-6.824 5.393 0 .77.854 1.8 3.623.77 2.77-1.031 5.755-3.34 5.97-2.57.216.77-2.769 4.108-4.9 5.393-2.131 1.284-3.624 1.8-3.624 2.307 0 .508 1.708 1.285 5.755 0 4.046-1.284 5.115-2.307 5.331-1.538.215.77-2.131 4.877-5.754 5.393-3.624.515-5.332.769-5.539 1.023-.216.254-1.07 2.308-3.624 2.57-2.554.253-6.608-2.055-8.954-1.8-2.347.253-3.839 2.053-7.032 1.538-3.192-.516-2.554-1.539-4.477-1.539-1.916 0-12.578-1.8-12.578-2.823s11.509-1.285 12.578-1.8c1.069-.516.215-1.539-1.708-2.308-1.915-.77-14.07-8.986-13.855-10.263.216-1.284 5.754 1.8 9.378 3.078 3.623 1.284 5.539 2.308 5.97 1.538.423-.77-1.708-1.538-5.116-4.108-3.408-2.57-6.178-4.616-5.539-5.393.638-.769 4.046 1.8 7.247 3.34 3.2 1.538 3.838 1.538 4.046.768.216-.769-4.9-4.877-4.477-5.392.423-.516 3.839 1.538 5.539 2.308 1.708.769 2.554 1.284 2.769.254.216-1.031-3.2-2.824-6.177-4.362-2.985-1.539-8.524-5.9-8.316-7.186.215-1.284 4.477 1.8 7.246 3.078 2.77 1.284 4.047 1.8 4.047.769 0-1.031-2.131-3.339-4.262-5.131-2.131-1.8-3.839-3.593-3.623-4.362.215-.77 5.969 3.077 6.608 2.054.638-1.023-.639-2.054-2.77-5.393-2.131-3.339-2.554-4.616-2.131-5.131.424-.516 10.232 10.008 11.086 10.262.854.254 1.069-1.538.215-2.57-.853-1.03-7.885-7.954-7.462-8.47.423-.515 5.116 3.847 5.97 3.34.854-.516-4.477-6.416-4.047-6.932.424-.515 7.032 6.162 7.67 5.647.639-.516 1.07-2.054-.215-3.593-1.285-1.538-8.955-10.262-8.316-10.778.638-.515 8.316 5.9 9.162 6.932.846 1.03.423-3.077-.423-4.616-.854-1.539-5.116-4.362-4.477-4.616.638-.254 4.262.516 5.331 1.285 1.069.77 1.916-.254 1.277-2.308-.638-2.054-6.393-10.262-6.177-10.778.215-.515 5.539 5.647 6.177 5.393.639-.27.854-13.87 2.131-13.616ZM319.052 37.866c.446.093.061 4.647.323 4.724.262.077 1.223-1.162 1.416-.854.192.308-1.354 1.777-1.416 2.4-.062.623.131.7.323.539.192-.154.769-1.008.9-.777.131.23-.646 1.084-.961 1.7-.324.623-.385 1.238-.062 1.084.323-.153 1.092-1.315 1.223-1.084.131.23-.646 1.315-.838 1.7-.193.384-.131.777.192.462.323-.316 2.254-2.247 2.446-2.093.193.154-.453 1.239-1.03 1.939s-1.862 1.7-1.993 2.246c-.131.538-.061.854.254.538.323-.307 2.508-2.015 2.639-1.777.13.231-.708 1.393-1.285 1.939-.577.538-1.354 1.546-1.416 1.939-.061.384-.13.623.577.23.708-.384 1.739-.93 2.508-1.392.769-.462 1.031-1.085 1.154-.93.131.153.131.622-.454 1.238-.577.623-1.992 1.777-1.992 1.938 0 .154.254.154.9 0s1.223-.384 1.285-.307c.061.076-.647 1.161-1.608 1.7-.962.538-1.477.854-1.285 1.47.192.622.9.076 1.546-.309.647-.384 1.224-1.007 1.354-.854.131.154-1.154 1.7-1.031 1.778.131.076.577 0 1.354-.539.77-.539 1.154-.93 1.224-.7.061.23-.193 1.008-1.031 1.623-.839.623-2.054 1.393-2.054 1.623 0 .231.254.539 1.092.231.839-.307 1.739-1.008 1.8-.777.062.231-.838 1.239-1.477 1.623-.646.385-1.092.539-1.092.7 0 .162.515.385 1.738 0 1.224-.384 1.547-.7 1.608-.461.062.238-.646 1.47-1.738 1.623-1.093.154-1.608.23-1.67.308-.061.077-.323.7-1.092.777-.769.077-1.993-.623-2.7-.539-.708.077-1.154.623-2.124.462-.961-.154-.769-.462-1.354-.462-.584 0-3.792-.538-3.792-.854 0-.307 3.469-.384 3.792-.538.324-.154.062-.462-.515-.7-.577-.231-4.247-2.708-4.177-3.1.061-.385 1.738.538 2.831.93 1.092.385 1.669.7 1.8.462.131-.23-.516-.462-1.546-1.239-1.031-.777-1.862-1.392-1.67-1.623.193-.23 1.223.539 2.185 1.008.962.462 1.154.462 1.223.23.062-.23-1.477-1.469-1.354-1.622.131-.154 1.154.461 1.67.7.515.238.769.384.838.077.062-.308-.961-.854-1.862-1.316-.9-.462-2.569-1.777-2.507-2.17.061-.384 1.354.54 2.184.931.839.385 1.223.539 1.223.231 0-.307-.646-1.008-1.284-1.546-.646-.538-1.154-1.085-1.093-1.316.062-.23 1.801.931 1.993.624.192-.308-.192-.623-.839-1.624-.646-1.007-.769-1.392-.646-1.546.131-.154 3.085 3.024 3.347 3.1.261.077.323-.461.061-.777-.261-.315-2.377-2.4-2.254-2.554.131-.154 1.546 1.162 1.8 1.008.254-.154-1.354-1.938-1.223-2.092.131-.154 2.123 1.861 2.316 1.7.192-.154.323-.623-.062-1.085-.385-.462-2.7-3.1-2.508-3.254.192-.154 2.508 1.777 2.762 2.092.254.308.131-.93-.131-1.392-.254-.462-1.546-1.316-1.354-1.392.193-.077 1.285.153 1.608.384.323.231.577-.077.385-.7-.193-.623-1.931-3.1-1.862-3.254.062-.154 1.669 1.7 1.862 1.623.192-.061.261-4.162.646-4.085ZM40.95 39.238c.755.154.108 7.77.54 7.9.43.132 2.046-1.945 2.369-1.422.323.523-2.262 2.977-2.37 4.015-.107 1.039.216 1.17.539.908.323-.261 1.292-1.685 1.508-1.292.215.392-1.077 1.815-1.616 2.846-.538 1.031-.646 2.07-.108 1.816.539-.262 1.831-2.2 2.047-1.816.215.385-1.077 2.2-1.4 2.846-.324.647-.216 1.293.323.777.538-.515 3.762-3.754 4.085-3.5.323.262-.754 2.07-1.724 3.239-.969 1.17-3.123 2.846-3.338 3.754-.216.908-.108 1.423.43.908.539-.516 4.193-3.37 4.409-2.977.215.392-1.185 2.33-2.154 3.238-.97.908-2.262 2.593-2.37 3.24-.108.645-.215 1.038.97.391 1.184-.646 2.907-1.553 4.192-2.33 1.293-.778 1.723-1.816 1.939-1.555.215.262.215 1.039-.754 2.07-.97 1.038-3.339 2.977-3.339 3.239 0 .261.43.261 1.508 0 1.077-.262 2.046-.647 2.154-.516.108.131-1.077 1.947-2.693 2.847-1.615.9-2.477 1.423-2.154 2.461.323 1.039 1.508.131 2.585-.515s2.046-1.685 2.262-1.423c.215.261-1.939 2.846-1.723 2.977.215.13.969 0 2.261-.908 1.293-.908 1.939-1.554 2.047-1.17.107.393-.324 1.686-1.724 2.724-1.4 1.039-3.438 2.331-3.438 2.723 0 .393.43.908 1.83.393 1.4-.516 2.909-1.685 3.016-1.293.108.393-1.4 2.07-2.477 2.724-1.077.646-1.83.907-1.83 1.169 0 .261.86.646 2.907 0s2.585-1.17 2.693-.777c.107.392-1.077 2.462-2.908 2.723-1.831.262-2.693.393-2.8.516-.108.123-.539 1.169-1.831 1.292-1.293.13-3.34-1.038-4.516-.908-1.185.131-1.939 1.039-3.547.777-1.615-.261-1.292-.777-2.261-.777-.97 0-6.347-.907-6.347-1.423 0-.515 5.808-.646 6.347-.908.538-.261.107-.777-.862-1.169-.97-.392-7.1-4.531-6.993-5.185.108-.646 2.908.908 4.731 1.554 1.831.646 2.8 1.17 3.016.777.215-.392-.862-.777-2.585-2.07-1.723-1.292-3.123-2.33-2.8-2.723.323-.392 2.046.908 3.654 1.685 1.616.777 1.939.777 2.046.392.108-.384-2.477-2.461-2.261-2.723.215-.261 1.938.777 2.8 1.17.861.392 1.292.646 1.4.13.108-.515-1.615-1.423-3.123-2.2-1.508-.777-4.3-2.977-4.193-3.623.108-.647 2.262.907 3.654 1.554 1.4.646 2.046.907 2.046.392 0-.516-1.076-1.685-2.154-2.593-1.077-.907-1.938-1.815-1.83-2.2.107-.392 3.015 1.554 3.338 1.039.323-.516-.323-1.039-1.4-2.724-1.077-1.684-1.292-2.33-1.077-2.592.216-.262 5.162 5.054 5.593 5.185.43.13.539-.777.108-1.292-.431-.516-3.978-4.016-3.762-4.278.215-.261 2.585 1.947 3.015 1.685.431-.262-2.261-3.239-2.046-3.5.215-.262 3.546 3.108 3.87 2.846.323-.261.538-1.038-.108-1.815-.646-.777-4.516-5.185-4.193-5.44.323-.26 4.193 2.978 4.624 3.501.43.515.215-1.554-.216-2.331-.43-.777-2.584-2.2-2.261-2.33.323-.132 2.154.26 2.692.645.539.385.97-.13.646-1.17-.323-1.038-3.23-5.184-3.123-5.438.108-.261 2.8 2.846 3.123 2.723.339-.146.447-7.016 1.093-6.885ZM266.306 25.844c.939.17.131 8.724.67 8.87.538.146 2.554-2.185 2.954-1.6.4.584-2.824 3.346-2.954 4.508-.131 1.161.269 1.307.669 1.015.4-.292 1.615-1.892 1.885-1.454.269.439-1.347 2.039-2.016 3.2-.669 1.162-.808 2.324-.131 2.04.67-.293 2.285-2.47 2.554-2.04.27.431-1.346 2.47-1.746 3.2-.4.732-.269 1.455.4.87.669-.585 4.701-4.216 5.108-3.923.4.292-.938 2.323-2.146 3.638-1.208 1.308-3.9 3.2-4.162 4.216-.269 1.016-.131 1.6.539 1.016.669-.585 5.238-3.785 5.508-3.347.269.439-1.477 2.616-2.685 3.639-1.208 1.015-2.823 2.908-2.954 3.639-.131.73-.269 1.161 1.208.438 1.477-.73 3.631-1.746 5.239-2.615 1.615-.87 2.146-2.039 2.415-1.747.269.293.269 1.162-.938 2.324-1.208 1.161-4.17 3.346-4.17 3.638 0 .293.538.293 1.885 0 1.346-.292 2.554-.73 2.685-.584.13.146-1.347 2.184-3.362 3.2-2.016 1.015-3.093 1.6-2.685 2.762.408 1.161 1.885.146 3.223-.585 1.347-.73 2.554-1.892 2.824-1.6.269.292-2.416 3.2-2.147 3.346.269.146 1.208 0 2.824-1.015 1.615-1.016 2.415-1.746 2.554-1.308.138.439-.4 1.892-2.147 3.054-1.746 1.162-4.3 2.616-4.3 3.054 0 .439.538 1.016 2.285.439 1.746-.577 3.631-1.893 3.762-1.454.13.438-1.747 2.323-3.093 3.054-1.346.73-2.285 1.015-2.285 1.308 0 .292 1.077.73 3.631 0 2.554-.731 3.224-1.308 3.362-.87.139.439-1.346 2.762-3.631 3.055-2.285.292-3.362.438-3.493.584-.13.146-.669 1.308-2.284 1.454-1.616.146-4.162-1.162-5.647-1.015-1.477.146-2.416 1.161-4.431.869-2.016-.292-1.616-.87-2.823-.87-1.208 0-7.932-1.015-7.932-1.6 0-.584 7.255-.73 7.932-1.015.669-.292.13-.87-1.077-1.308-1.208-.438-8.87-5.093-8.732-5.816.131-.73 3.631 1.016 5.916 1.747 2.285.73 3.493 1.308 3.762.869.269-.438-1.077-.87-3.224-2.323-2.146-1.454-3.9-2.616-3.492-3.054.4-.439 2.554 1.015 4.569 1.892 2.016.87 2.416.87 2.555.439.13-.439-3.093-2.762-2.824-3.055.269-.292 2.416.87 3.493 1.308 1.077.439 1.615.731 1.746.146.131-.584-2.015-1.6-3.9-2.469-1.885-.87-5.378-3.346-5.239-4.07.138-.723 2.823 1.016 4.569 1.747 1.747.73 2.555 1.015 2.555.438s-1.347-1.892-2.685-2.908c-1.347-1.015-2.416-2.038-2.285-2.47.131-.438 3.762 1.747 4.162 1.163.4-.585-.4-1.162-1.747-3.055-1.346-1.892-1.615-2.615-1.346-2.907.269-.293 6.447 5.67 6.985 5.815.539.146.67-.869.131-1.454-.538-.584-4.969-4.508-4.7-4.8.269-.292 3.223 2.185 3.762 1.892.538-.292-2.824-3.638-2.554-3.923.269-.292 4.431 3.493 4.838 3.2.4-.292.67-1.161-.13-2.038-.808-.87-5.647-5.816-5.239-6.108.4-.293 5.239 3.346 5.777 3.923.539.577.269-1.746-.269-2.616-.539-.869-3.223-2.47-2.823-2.615.4-.147 2.684.292 3.361.73.677.439 1.208-.146.808-1.307-.4-1.162-4.031-5.816-3.9-6.109.131-.292 3.492 3.2 3.9 3.055.385-.185.523-7.893 1.323-7.747ZM359.93 50.657c.292.054.038 2.723.207 2.77.169.045.8-.678.923-.5.124.176-.877 1.045-.923 1.407-.038.362.085.408.208.316.123-.093.5-.593.585-.454.084.138-.416.638-.631 1-.208.361-.254.723-.039.638.208-.092.716-.77.8-.638.085.138-.415.769-.546 1-.123.223-.084.454.123.27.208-.186 1.47-1.316 1.593-1.224.123.092-.293.723-.669 1.13-.377.409-1.216 1-1.301 1.316-.084.316-.038.5.17.316.207-.185 1.638-1.177 1.715-1.047.085.139-.461.816-.838 1.131-.377.316-.877.908-.924 1.131-.046.223-.084.362.377.139a53.714 53.714 0 0 0 1.639-.816c.5-.27.669-.638.754-.546.085.092.085.361-.292.723s-1.3 1.046-1.3 1.13c0 .093.169.093.584 0 .416-.091.8-.222.839-.184.038.047-.416.677-1.047 1-.63.324-.961.5-.838.862s.585.046 1.008-.185c.415-.223.8-.592.877-.5.084.093-.754 1-.67 1.047.085.046.377 0 .877-.316.5-.315.754-.546.8-.408.039.139-.123.593-.669.954-.546.362-1.338.816-1.338.954 0 .139.169.316.715.139.546-.185 1.131-.593 1.177-.454.039.138-.546.723-.962.954-.415.223-.715.315-.715.408 0 .092.338.223 1.131 0 .8-.224 1.008-.408 1.046-.27.039.139-.415.862-1.131.954-.715.093-1.046.139-1.092.185-.039.046-.208.408-.716.454-.5.046-1.3-.362-1.761-.316-.462.047-.754.362-1.385.27-.631-.093-.5-.27-.877-.27s-2.47-.315-2.47-.5c0-.184 2.262-.223 2.47-.315.208-.092.038-.27-.339-.408-.376-.138-2.769-1.585-2.723-1.815.039-.224 1.131.315 1.846.546.716.223 1.093.407 1.177.27.085-.14-.338-.27-1.007-.724-.67-.454-1.216-.816-1.093-.954s.8.315 1.424.592c.63.27.753.27.8.139.038-.139-.962-.862-.877-.954.084-.092.754.27 1.092.408.339.138.5.223.546.046.039-.185-.631-.5-1.215-.77-.585-.269-1.677-1.046-1.639-1.269.039-.223.877.316 1.423.546.547.231.8.316.8.139 0-.185-.415-.593-.838-.908-.416-.315-.754-.639-.716-.77.039-.138 1.177.547 1.3.362.124-.184-.123-.361-.546-.954-.423-.592-.5-.815-.415-.907.084-.093 2.015 1.769 2.177 1.815.169.046.208-.27.038-.454-.169-.184-1.554-1.407-1.469-1.5.085-.092 1.008.677 1.177.593.169-.093-.877-1.131-.8-1.224.085-.092 1.385 1.093 1.508 1 .123-.092.208-.361-.039-.638-.253-.27-1.761-1.816-1.631-1.908.124-.092 1.631 1.046 1.801 1.223.169.185.084-.546-.085-.815-.169-.27-1.008-.77-.877-.816.131-.046.839.093 1.046.223.208.139.377-.046.254-.407-.123-.362-1.254-1.816-1.215-1.908.038-.092 1.092 1 1.215.954.123-.046.162-2.454.416-2.408Z" fill="#305937"/><path d="M307.39 42.141c.293.054.039 2.723.208 2.77.169.046.8-.678.923-.5.123.184-.877 1.046-.923 1.407-.038.362.085.408.208.316.123-.093.5-.593.585-.454.084.138-.416.638-.631 1-.208.361-.254.723-.039.638.208-.092.716-.769.8-.638.085.138-.415.77-.546 1-.131.23-.084.454.123.27.208-.185 1.47-1.316 1.593-1.224.123.092-.293.723-.67 1.13-.377.409-1.215 1.001-1.3 1.316-.084.316-.038.5.169.316.208-.185 1.631-1.177 1.716-1.046.085.138-.462.815-.839 1.13-.376.316-.877.908-.923 1.131-.038.223-.084.362.377.139a45.541 45.541 0 0 0 1.631-.816c.5-.269.669-.638.754-.546.085.092.085.362-.292.723-.377.362-1.3 1.046-1.3 1.131 0 .085.169.092.584 0 .416-.092.8-.223.839-.184.038.046-.416.677-1.046 1-.631.323-.962.5-.839.861.123.362.585.046 1.008-.184.415-.224.8-.593.877-.5.084.092-.754 1-.669 1.046.084.046.376 0 .877-.316.5-.315.753-.546.8-.407.038.138-.123.592-.67.953-.546.362-1.338.816-1.338.954 0 .139.169.316.715.139.546-.177 1.131-.592 1.177-.454.039.139-.546.723-.961.954-.416.23-.716.315-.716.408 0 .092.339.223 1.131 0 .8-.223 1.008-.408 1.046-.27.039.139-.415.862-1.131.954-.715.093-1.046.139-1.092.185-.038.046-.208.408-.715.454-.501.046-1.301-.362-1.762-.316-.462.047-.754.362-1.385.27-.631-.093-.5-.27-.877-.27s-2.469-.315-2.469-.5c0-.184 2.261-.223 2.469-.315.208-.092.039-.27-.338-.408-.377-.138-2.77-1.584-2.724-1.815.039-.223 1.131.315 1.847.546.715.223 1.092.408 1.177.27.084-.14-.339-.27-1.008-.724-.669-.454-1.216-.815-1.093-.954.124-.138.801.316 1.424.593.623.276.754.269.8.138.038-.139-.962-.862-.877-.954.084-.092.754.27 1.092.408.339.138.5.223.546.046.039-.185-.63-.5-1.215-.77-.585-.269-1.677-1.046-1.639-1.269.039-.223.877.316 1.423.547.547.223.801.315.801.138s-.416-.592-.839-.908c-.415-.315-.754-.638-.715-.77.038-.137 1.177.547 1.3.363.123-.185-.123-.362-.547-.954-.415-.593-.5-.816-.415-.908.085-.093 2.016 1.77 2.177 1.815.169.047.208-.269.039-.453-.17-.185-1.554-1.408-1.47-1.5.085-.093 1.008.676 1.177.592.17-.093-.877-1.131-.8-1.224.085-.092 1.385 1.093 1.508 1 .123-.092.208-.361-.038-.638-.254-.27-1.762-1.816-1.639-1.908.123-.092 1.639 1.047 1.8 1.223.169.185.085-.546-.084-.815-.17-.27-1.008-.77-.877-.816.123-.046.838.093 1.046.224.207.138.377-.047.254-.408-.124-.362-1.254-1.816-1.216-1.908.039-.092 1.092 1 1.216.954.123-.046.177-2.446.43-2.408ZM414.239 48.178c.239.046.031 2.2.17 2.231.138.03.646-.546.746-.4.1.146-.708.838-.746 1.139-.039.3.069.33.169.253.1-.077.408-.477.477-.369.069.108-.339.516-.508.808-.169.292-.2.585-.031.515.17-.077.577-.623.647-.515.069.108-.339.623-.439.808-.1.184-.069.369.1.223s1.185-1.062 1.285-.985c.1.077-.239.585-.539.916-.307.33-.984.807-1.046 1.061-.069.254-.031.4.138.254.17-.146 1.316-.954 1.385-.838.069.107-.369.661-.677.915-.307.254-.707.73-.746.915-.031.185-.069.293.308.108.369-.184.915-.438 1.315-.661.408-.224.539-.516.608-.439.069.077.069.292-.238.585-.308.292-1.047.838-1.047.915 0 .077.139.077.477 0 .339-.077.646-.184.677-.146.031.039-.338.546-.846.808-.508.254-.777.4-.677.692.1.293.477.039.815-.146.339-.185.647-.477.708-.4.069.077-.607.808-.538.839.069.038.307 0 .707-.254.4-.254.608-.439.647-.331.031.107-.1.477-.539.77-.438.291-1.085.66-1.085.768 0 .108.139.254.577.108.439-.146.916-.477.947-.37.03.108-.439.586-.777.77-.339.185-.577.254-.577.33 0 .078.269.186.915 0 .646-.184.816-.33.846-.222.031.108-.338.692-.915.77-.577.076-.846.107-.877.145-.031.039-.169.331-.577.37-.408.038-1.046-.293-1.423-.254-.369.038-.608.292-1.116.223-.507-.077-.407-.223-.707-.223-.308 0-1.993-.254-1.993-.4 0-.146 1.823-.185 1.993-.254.169-.077.03-.223-.27-.331-.307-.108-2.231-1.285-2.2-1.462.031-.184.916.254 1.485.439.577.184.877.33.946.223.069-.108-.269-.223-.815-.585-.539-.369-.985-.661-.877-.77.107-.107.646.255 1.154.478.507.223.607.223.646.108.031-.108-.777-.693-.708-.77.069-.077.608.223.877.331.269.108.408.185.439.039.03-.147-.508-.4-.985-.624-.477-.223-1.354-.838-1.316-1.023.031-.184.708.254 1.154.439.439.184.647.254.647.108 0-.147-.339-.477-.677-.731-.339-.254-.608-.516-.577-.623.03-.108.946.438 1.046.292.1-.146-.1-.292-.439-.77-.338-.476-.407-.661-.338-.73.069-.077 1.623 1.43 1.761 1.461.139.039.17-.223.031-.369-.138-.146-1.254-1.138-1.184-1.208.069-.077.815.547.946.477.138-.077-.708-.915-.646-.984.069-.077 1.115.877 1.215.807.1-.077.169-.292-.031-.515-.2-.223-1.423-1.462-1.323-1.539.1-.077 1.323.839 1.454.985.131.146.069-.438-.069-.661-.139-.224-.816-.624-.708-.662.1-.039.677.077.846.184.17.108.308-.038.2-.33-.1-.293-1.015-1.462-.984-1.539.03-.077.877.808.984.77.085-.039.123-1.978.323-1.947ZM421.077 53.399c.192.03.031 1.777.138 1.808.108.03.523-.446.6-.323.085.115-.577.684-.6.915-.031.239.054.27.139.208.084-.062.331-.385.384-.3.054.092-.277.415-.407.654-.139.238-.162.477-.031.415.138-.061.469-.508.523-.415.054.092-.277.507-.354.654-.084.146-.054.3.085.176.138-.115.961-.861 1.038-.8.085.062-.192.477-.438.739-.246.27-.793.654-.846.862-.054.207-.031.323.107.207.139-.115 1.07-.769 1.123-.684.054.092-.3.53-.546.738-.246.208-.577.593-.6.739-.031.146-.054.238.246.092s.739-.354 1.07-.53c.331-.178.438-.416.492-.355.054.062.054.239-.192.477-.246.239-.846.685-.846.739 0 .061.107.061.384 0 .277-.062.523-.146.546-.116.031.031-.277.447-.684.654-.408.208-.631.323-.546.562.084.238.384.03.653-.115.27-.147.524-.385.577-.324.054.062-.492.654-.438.685.054.03.246 0 .577-.208.331-.207.492-.353.523-.269.031.092-.085.385-.439.623-.353.239-.877.531-.877.623 0 .093.108.208.47.093.354-.116.738-.385.769-.3.031.092-.354.477-.631.623-.277.146-.469.208-.469.269 0 .062.215.146.738 0 .524-.146.654-.27.685-.177.031.092-.277.562-.738.623-.47.062-.685.093-.716.116-.031.03-.138.269-.469.3-.331.03-.846-.239-1.154-.208-.3.03-.492.238-.908.177-.408-.062-.331-.177-.577-.177-.246 0-1.615-.208-1.615-.323 0-.116 1.477-.146 1.615-.208.139-.061.031-.177-.215-.27-.246-.091-1.808-1.038-1.777-1.184.031-.146.738.208 1.208.354.469.146.715.27.769.177.054-.092-.216-.177-.654-.477-.439-.3-.792-.53-.716-.623.077-.092.524.208.931.385.408.176.493.176.523.092.031-.085-.63-.562-.577-.623.054-.062.493.177.716.269.215.092.331.146.354.03.031-.115-.408-.322-.793-.507-.384-.177-1.092-.685-1.069-.83.023-.147.577.207.931.353.354.146.523.208.523.092 0-.115-.277-.384-.546-.592-.269-.208-.492-.415-.469-.508.03-.092.769.354.846.239.084-.116-.085-.239-.354-.623-.269-.385-.331-.531-.277-.593.054-.061 1.316 1.154 1.423 1.185.108.03.139-.177.031-.3-.108-.115-1.016-.916-.962-.977.054-.062.654.446.77.385.115-.062-.577-.739-.523-.8.053-.062.907.707.984.653.077-.053.139-.238-.031-.415-.161-.177-1.154-1.185-1.069-1.246.085-.062 1.069.684 1.177.8.108.115.054-.354-.054-.531-.107-.177-.654-.508-.577-.53.085-.032.546.06.685.145.138.093.246-.03.162-.269-.085-.238-.824-1.185-.793-1.246.031-.062.716.654.793.623.077-.038.107-1.608.269-1.577Z" fill="#305937"/><path d="M253.323 21.72s-.685 1.532-1.539 2.1c0 .193.939-.384 1.023-.191.085.192-1.446 2.007-2.046 2.384.169.285 1.192-.384 1.277-.192.085.192-1.446 1.908-2.216 2.485.339.384 1.708-.57 1.793-.385.085.192-2.385 3.439-3.154 3.824.084.284 1.877-.57 1.961-.385.085.192-2.3 3.823-3.069 4.393.169.384 1.792-.862 1.962-.477.169.384-2.901 4.108-3.67 4.585.169.284 2.816-.67 2.9-.385.085.285-2.646 4.2-3.838 4.87.084.384 2.731-.954 2.9-.57.169.385-3.323 4.108-4.431 4.778 0 .477 4.262-.762 4.346-.477.085.284-3.323 3.054-4.346 3.63 0 .386 9.293-1.338 9.893-1.338.6 0 10.316 1.531 10.578 1.147-1.877-.762-4.608-2.862-4.524-3.247.085-.385 4.347.862 4.524.385-2.385-1.623-5.032-4.393-4.862-4.678.169-.284 3.069.862 3.154.385-2.646-2.1-4.008-4.585-3.924-4.87.085-.284 2.901.954 3.07.385-2.646-2.192-4.093-4.008-4.008-4.393.085-.384 2.3.762 2.385.285-1.877-1.715-3.324-4.008-3.239-4.3.085-.285 1.877.569 1.962.192-1.877-1.43-3.07-3.154-2.901-3.339.17-.192 1.447.477 1.624.093-1.023-.762-2.385-2.193-2.385-2.485 0-.285 1.192.384 1.277.092-1.023-.954-1.793-2.008-1.793-2.192 0-.185.6.192.685-.093-.862-.769-1.369-2.015-1.369-2.015Z" fill="#123F18"/><path d="M10.178 51.684s-.685 1.53-1.539 2.108c0 .192.939-.385 1.031-.193.092.193-1.454 2.016-2.054 2.4.17.285 1.2-.384 1.285-.192.084.192-1.454 1.916-2.224 2.493.347.384 1.716-.577 1.8-.385.085.192-2.4 3.454-3.169 3.839.085.284 1.885-.577 1.97-.385.084.192-2.316 3.839-3.085 4.408.169.385 1.8-.862 1.97-.477.168.385-2.917 4.124-3.686 4.6.17.285 2.823-.669 2.916-.384.092.284-2.654 4.223-3.854 4.892.084.385 2.738-.961 2.915-.576.177.384-3.339 4.123-4.454 4.792 0 .477 4.285-.769 4.37-.477.084.285-3.34 3.07-4.37 3.647 0 .384 9.34-1.346 9.932-1.346.6 0 10.362 1.53 10.623 1.154-1.884-.77-4.623-2.878-4.538-3.262.084-.385 4.37.861 4.538.384-2.4-1.63-5.054-4.408-4.884-4.7.169-.285 3.084.861 3.169.385-2.654-2.108-4.023-4.6-3.939-4.893.085-.285 2.916.961 3.085.384-2.654-2.207-4.108-4.03-4.023-4.408.084-.377 2.315.77 2.4.285-1.885-1.723-3.339-4.031-3.254-4.316.084-.284 1.884.577 1.97.193-1.886-1.439-3.086-3.162-2.917-3.354.17-.193 1.454.477 1.631.092-1.03-.77-2.4-2.208-2.4-2.493 0-.284 1.2.385 1.285.093-1.03-.962-1.8-2.016-1.8-2.208 0-.193.6.192.684-.093-.869-.761-1.384-2.007-1.384-2.007Z" fill="#305937"/><path d="M128.248 16.16s-1.615 3.608-3.631 4.962c0 .454 2.216-.9 2.416-.454.2.454-3.423 4.74-4.839 5.64.4.676 2.823-.9 3.023-.455.2.454-3.423 4.516-5.238 5.87.807.9 4.031-1.354 4.231-.9.2.454-5.647 8.124-7.455 9.031.2.677 4.431-1.353 4.639-.9.2.454-5.439 9.032-7.254 10.386.4.9 4.231-2.031 4.638-1.131.4.9-6.854 9.708-8.669 10.832.4.677 6.654-1.577 6.854-.9.2.677-6.247 9.931-9.07 11.508.2.9 6.447-2.254 6.854-1.354.408.9-7.862 9.709-10.477 11.286 0 1.13 10.077-1.808 10.277-1.131.2.677-7.862 7.224-10.277 8.578 0 .9 21.971-3.162 23.378-3.162 1.408 0 24.387 3.608 24.995 2.708-4.431-1.808-10.886-6.77-10.686-7.67.2-.9 10.278 2.03 10.686.9-5.647-3.839-11.893-10.386-11.486-11.063.4-.677 7.255 2.031 7.455.9-6.247-4.961-9.47-10.831-9.27-11.508.2-.677 6.854 2.254 7.254.9-6.247-5.193-9.678-9.478-9.47-10.386.2-.9 5.439 1.808 5.647.677-4.431-4.061-7.862-9.477-7.662-10.154.2-.677 4.431 1.354 4.638.454-4.431-3.385-7.254-7.447-6.854-7.901.4-.454 3.423 1.13 3.831.223-2.415-1.808-5.647-5.193-5.647-5.87 0-.677 2.824.9 3.024.223-2.416-2.254-4.231-4.738-4.231-5.192 0-.454 1.407.454 1.615-.223-2.031-1.793-3.239-4.724-3.239-4.724Z" fill="#123F18"/><path d="M143.017 14.234s-1.57 3.508-3.524 4.824c0 .438 2.154-.877 2.347-.439.192.439-3.331 4.6-4.701 5.478.393.654 2.739-.877 2.939-.439.192.439-3.331 4.385-5.093 5.7.785.878 3.916-1.315 4.108-.876.193.438-5.485 7.893-7.247 8.77.193.654 4.309-1.316 4.501-.877.192.438-5.285 8.77-7.047 10.085.392.877 4.108-1.97 4.5-1.092.393.877-6.654 9.424-8.416 10.524.393.654 6.462-1.531 6.655-.877.192.654-6.07 9.647-8.809 11.177.193.878 6.262-2.192 6.655-1.315.392.877-7.632 9.424-10.178 10.963 0 1.092 9.785-1.755 9.985-1.093.193.654-7.631 7.016-9.985 8.332 0 .877 21.34-3.07 22.71-3.07 1.369 0 23.686 3.508 24.271 2.631-4.308-1.754-10.57-6.578-10.378-7.454.192-.878 9.985 1.969 10.378.876-5.485-3.723-11.547-10.085-11.163-10.739.393-.654 7.047 1.97 7.247.877-6.07-4.823-9.201-10.524-9.008-11.178.192-.654 6.654 2.193 7.046.877-6.069-5.039-9.393-9.208-9.2-10.085.192-.877 5.285 1.754 5.485.654-4.308-3.947-7.632-9.209-7.439-9.863.192-.653 4.308 1.316 4.5.439-4.308-3.285-7.047-7.231-6.654-7.67.392-.438 3.331 1.093 3.723.216-2.346-1.755-5.485-5.04-5.485-5.701 0-.662 2.739.877 2.939.215-2.347-2.192-4.108-4.6-4.108-5.038 0-.439 1.369.438 1.569-.216-1.946-1.762-3.123-4.616-3.123-4.616Z" fill="#305937"/><path d="M229.844 25.391s.293 1.162 1.016 1.747c.723.584 1.015.776.869.969-.146.192-.361-.293-.508-.1-.146.192.147.384 0 .584-.146.193-.292-.192-.438 0-.146.193.577 1.162.869 1.354.293.193.577.385.577.585 0 .192-.438.192-.577 0-.146-.192-.292-.585-.438-.385-.146.193 0 .385-.146.385-.147 0-.147-.192-.293 0s.293.777.577.97c.293.192 1.554.584 1.593.969.03.284-.347.284-.508.284-.162 0-.162.07-.108.285.054.215-.054.354-.269.354-.215 0-.585-.5-.746-.5-.162 0-.216.215-.108.43.108.216 1.546 1.57 2.131 1.993.585.43 1.177.785 1.223 1.07.046.284-.531.353-.692.284-.162-.07-.269-.146-.323-.07-.054.078-.054.432-.423.432-.37 0-.639-.5-.693-.5-.054 0-.054.43-.269.43-.215 0-.323-.353-.423-.353-.108 0-.162.146-.054.5.108.353 1.816 2.423 2.508 2.992.692.57 1.6.715 1.654.854.054.146-.054.5-.746.57-.693.069-.962-.216-1.016-.285-.054-.07-.107 0-.107.215s0 .285-.216.285c-.215 0-.423-.57-.477-.5-.054.069 0 .354-.161.569-.162.215-.377-.07-.477-.07-.1 0-.162.147-.108.285.054.139.962 1.923 2.131 3.062 1.177 1.139 2.616 1.57 2.616 1.708 0 .146-.324.5-.747.5s-.638 0-.638.07c0 .069-.108.569-.423.5-.323-.07-1.07-.64-1.177-.64-.108 0 .053.716-.323.785-.377.07-.585-.569-.639-.569-.054 0 .108.716-.323.639-.423-.07-.908-1-1.016-1-.107 0 .108.569-.107.638-.216.07-.854-.5-.962-.5-.108 0-.054.854-.377.785-.323-.07-.477-.639-.746-.639s-.477.57-.692.57c-.216 0-.054-.639-.27-.716-.215-.07-.477.5-.854.5-.376 0-.107-.638-.376-.715-.27-.07-.747.638-1.016.638s-.108-.57-.323-.638c-.215-.07-.585.784-.854.784s.054-.784-.108-.784c-.161 0-.638.5-.961.5-.323 0-.162-.716-.323-.716-.162 0-.323.431-.747.354-.423-.07-.53-.285-.423-.43.108-.147 1.708-1.5 2.877-2.993 1.17-1.493 1.331-2.07 1.224-2.285-.108-.215-.377.354-.585.285-.215-.07.108-.639-.054-.716-.161-.07-.531.639-.962.639-.43 0-.269-.354-.269-.5 0-.147-.8.146-.854-.147-.054-.292 1.493-.853 2.508-1.853 1.016-1 1.331-2.493 1.331-2.709 0-.215-.269-.146-.377 0-.108.147-.692.5-.8.5-.108 0-.162-.353-.215-.353-.054 0-.162.354-.477.354-.316 0-.216-.285-.323-.354-.108-.07-.377 0-.639-.07-.269-.069-.215-.215 0-.284.215-.07 1.177-.57 2.131-1.639.962-1.07 1.123-1.57 1.069-1.708-.054-.146-.53.216-.638.216-.108 0-.162-.285-.216-.285-.053 0-.377.285-.477.216-.107-.07.108-.431.054-.5-.054-.07-.692.146-.638-.07.054-.215.638-.215 1.223-.715.585-.5 1.177-1.354 1.123-1.5-.054-.146-.377.354-.531.284-.161-.069-.161-.215-.215-.146-.054.07-.108.216-.215.216-.108 0 .053-.285-.108-.216-.162.07-.377.146-.377 0s.323-.354.962-1.07c.638-.715.53-1.353.53-1.353s-.377.285-.477.215c-.107-.069 0-.284-.107-.284-.108 0-.477.069-.423-.07.053-.146.423.07 1.069-.854.7-.9.7-1.592.861-1.569ZM330.108 42.8s.269 1.092.953 1.638c.685.546.954.73.816.908-.139.184-.339-.27-.477-.092-.139.184.138.361 0 .546-.139.184-.269-.185-.408 0-.138.184.546 1.092.816 1.269.269.185.546.362.546.546 0 .185-.408.185-.546 0-.139-.184-.27-.546-.408-.361-.139.184 0 .361-.139.361-.138 0-.138-.184-.269 0-.138.185.269.731.546.908.27.185 1.462.546 1.493.908.023.269-.323.269-.477.269-.154 0-.146.07-.1.27.046.2-.046.33-.246.33s-.547-.47-.7-.47c-.154 0-.2.2-.1.4s1.446 1.47 2 1.87c.546.4 1.1.739 1.146 1 .054.27-.5.331-.646.27-.146-.062-.246-.131-.3-.07-.054.07-.054.4-.4.4-.346 0-.6-.469-.646-.469-.054 0-.054.4-.247.4-.192 0-.3-.33-.4-.33-.1 0-.146.13-.046.469.1.33 1.7 2.269 2.347 2.807.646.531 1.5.67 1.546.8.054.131-.046.47-.7.54-.646.068-.9-.201-.946-.27-.047-.07-.1 0-.1.2s0 .27-.201.27c-.2 0-.4-.54-.446-.47-.046.069 0 .33-.146.53s-.346-.069-.446-.069c-.1 0-.146.131-.1.27.054.13.9 1.807 2 2.877 1.1 1.07 2.446 1.47 2.446 1.6 0 .13-.3.47-.7.47-.4 0-.6 0-.6.068 0 .07-.1.539-.4.47-.3-.07-1-.6-1.1-.6-.1 0 .046.669-.3.738-.346.07-.546-.53-.6-.53-.046 0 .1.669-.3.6-.4-.07-.846-.94-.946-.94-.1 0 .1.532-.1.6-.2.07-.8-.468-.9-.468-.1 0-.046.8-.346.738-.3-.061-.446-.6-.7-.6-.254 0-.447.539-.647.539s-.046-.6-.246-.67c-.2-.069-.446.47-.8.47-.346 0-.1-.6-.346-.67-.246-.069-.7.6-.946.6s-.1-.53-.3-.6c-.2-.069-.546.739-.8.739s.046-.739-.1-.739c-.147 0-.6.47-.9.47-.301 0-.147-.67-.3-.67-.154 0-.3.4-.701.331-.4-.07-.5-.27-.4-.4.1-.13 1.601-1.4 2.701-2.808 1.1-1.4 1.246-1.939 1.146-2.139-.1-.2-.346.331-.546.27-.2-.062.1-.6-.046-.67-.147-.069-.5.6-.9.6-.401 0-.247-.33-.247-.469 0-.13-.746.131-.8-.13-.046-.27 1.4-.8 2.347-1.74.946-.938 1.246-2.338 1.246-2.538 0-.2-.246-.13-.346 0-.1.131-.647.47-.747.47-.1 0-.146-.331-.2-.331-.053 0-.146.33-.446.33-.3 0-.2-.269-.3-.33-.1-.07-.346 0-.6-.07-.246-.069-.2-.2 0-.269.2-.07 1.1-.53 2-1.538.9-1 1.047-1.47 1-1.6-.046-.131-.5.2-.6.2-.1 0-.146-.27-.2-.27-.053 0-.346.27-.446.2-.1-.069.1-.4.046-.469-.054-.07-.646.13-.6-.07.046-.2.6-.2 1.147-.669.546-.469 1.1-1.269 1.046-1.4-.054-.13-.346.331-.5.27-.146-.07-.146-.2-.2-.131-.047.069-.1.2-.2.2s.046-.27-.1-.2c-.146.069-.347.13-.347 0 0-.131.301-.331.901-1 .6-.67.5-1.27.5-1.27s-.347.27-.447.2c-.1-.069 0-.269-.1-.269s-.446.07-.4-.07c.046-.13.4.07 1-.8.6-.868.547-1.515.701-1.492ZM308.393 59.708s.447 1.6 1.554 2.4c1.108.8 1.554 1.07 1.331 1.33-.223.262-.554-.4-.777-.13-.223.27.223.53 0 .8s-.446-.27-.661 0c-.223.27.884 1.6 1.331 1.87.446.269.884.53.884.8 0 .269-.661.269-.884 0-.224-.27-.447-.8-.662-.531-.223.269 0 .53-.223.53s-.223-.269-.446 0c-.223.27.446 1.07.884 1.332.447.269 2.377.807 2.439 1.33.046.393-.523.393-.769.393s-.246.1-.162.392c.085.292-.084.492-.408.492-.323 0-.892-.684-1.138-.684-.246 0-.323.292-.162.584.162.293 2.362 2.154 3.255 2.747.892.592 1.792 1.077 1.869 1.47.084.392-.816.492-1.062.392-.246-.1-.408-.193-.492-.1-.085.1-.085.584-.654.584-.569 0-.977-.685-1.062-.685-.084 0-.084.585-.407.585-.324 0-.493-.492-.654-.492-.162 0-.246.192-.085.684.162.493 2.77 3.331 3.831 4.116 1.062.785 2.447.977 2.523 1.177.077.2-.084.685-1.138.785-1.062.1-1.469-.293-1.546-.392-.085-.1-.162 0-.162.292s0 .392-.323.392-.654-.785-.731-.684c-.084.1 0 .492-.246.784-.246.293-.569-.1-.731-.1-.161 0-.246.192-.161.392.084.193 1.469 2.647 3.254 4.216 1.792 1.57 3.992 2.154 3.992 2.354 0 .2-.492.685-1.138.685-.646 0-.977 0-.977.1s-.162.785-.654.685c-.492-.1-1.631-.885-1.793-.885-.161 0 .085.977-.492 1.077-.569.1-.892-.785-.977-.785-.085 0 .162.977-.492.885-.654-.092-1.385-1.37-1.547-1.37-.161 0 .162.785-.161.885-.323.1-1.3-.684-1.469-.684-.162 0-.085 1.177-.57 1.077-.492-.1-.731-.885-1.138-.885-.408 0-.731.785-1.062.785-.331 0-.085-.885-.408-.977-.323-.1-.731.684-1.3.684-.569 0-.161-.884-.569-.977-.408-.1-1.139.885-1.546.885-.408 0-.162-.785-.493-.885-.33-.1-.892 1.077-1.3 1.077-.407 0 .085-1.077-.161-1.077s-.977.685-1.47.685c-.492 0-.246-.977-.492-.977s-.492.585-1.139.492c-.653-.1-.815-.392-.653-.584.161-.193 2.607-2.062 4.4-4.116 1.792-2.062 2.039-2.847 1.869-3.139-.161-.292-.569.493-.892.393-.323-.1.161-.885-.085-.977-.246-.1-.815.884-1.469.884-.654 0-.408-.492-.408-.684 0-.193-1.223.192-1.3-.193-.085-.392 2.277-1.177 3.831-2.546 1.554-1.37 2.039-3.431 2.039-3.724 0-.292-.408-.192-.569 0-.162.193-1.062.685-1.224.685-.161 0-.246-.492-.323-.492-.084 0-.246.492-.731.492-.484 0-.323-.392-.492-.492-.162-.1-.569 0-.977-.1-.408-.1-.323-.293 0-.393.323-.1 1.793-.784 3.254-2.254 1.47-1.469 1.708-2.154 1.631-2.354-.077-.2-.815.293-.977.293-.161 0-.246-.393-.323-.393-.077 0-.569.393-.731.293-.161-.1.162-.585.085-.685-.085-.1-1.062.192-.977-.1.084-.292.977-.292 1.869-.977.893-.685 1.793-1.862 1.708-2.062-.085-.2-.569.493-.815.393-.247-.1-.247-.293-.324-.193-.084.1-.161.293-.323.293-.161 0 .085-.393-.161-.293-.246.1-.569.193-.569 0 0-.192.492-.492 1.469-1.469.977-.977.815-1.862.815-1.862s-.569.393-.731.293c-.161-.1 0-.393-.161-.393-.162 0-.731.1-.654-.1.085-.192.654.1 1.631-1.177.969-1.277.969-2.223 1.215-2.192Z" fill="#406632"/><path d="M314.354 51.706s.369 1.338 1.3 2.008c.931.669 1.3.892 1.116 1.115-.185.223-.462-.339-.646-.115-.185.223.184.446 0 .669-.185.223-.37-.223-.554 0-.185.223.738 1.338 1.115 1.561.369.224.739.447.739.67 0 .223-.554.223-.739 0-.184-.223-.369-.67-.554-.446-.184.223 0 .446-.184.446-.185 0-.185-.223-.37 0-.184.223.37.892.739 1.115.369.223 1.992.677 2.039 1.116.038.33-.439.33-.647.33-.207 0-.207.085-.138.331.069.246-.069.408-.339.408-.269 0-.753-.577-.953-.577-.201 0-.27.246-.139.492.138.247 1.977 1.808 2.731 2.3.754.493 1.5.9 1.569 1.232.07.33-.684.407-.884.33-.208-.084-.339-.161-.408-.084-.069.084-.069.492-.546.492-.477 0-.816-.577-.885-.577-.069 0-.069.492-.338.492-.27 0-.408-.407-.547-.407-.138 0-.207.161-.069.577.139.407 2.316 2.792 3.208 3.446.892.654 2.046.823 2.116.985.069.161-.07.577-.954.654-.885.084-1.231-.247-1.293-.331-.069-.085-.138 0-.138.246s0 .33-.269.33c-.27 0-.547-.653-.616-.576-.069.077 0 .408-.208.654-.207.246-.477-.085-.615-.085s-.208.162-.138.33c.069.162 1.23 2.216 2.731 3.532 1.5 1.316 3.338 1.808 3.338 1.97 0 .16-.407.576-.954.576-.546 0-.815 0-.815.085s-.139.654-.546.577c-.408-.085-1.362-.739-1.5-.739-.139 0 .069.824-.408.9-.477.085-.754-.653-.816-.653-.069 0 .139.823-.407.738-.547-.084-1.162-1.146-1.293-1.146-.138 0 .139.654-.138.738-.277.085-1.093-.577-1.231-.577-.139 0-.069.985-.477.9-.408-.084-.616-.738-.954-.738-.339 0-.615.654-.885.654-.269 0-.069-.739-.338-.823-.269-.085-.616.577-1.093.577s-.138-.739-.477-.823c-.338-.085-.953.738-1.292.738-.338 0-.138-.654-.408-.738-.269-.085-.754.9-1.092.9-.339 0 .069-.9-.139-.9-.207 0-.815.577-1.23.577-.408 0-.208-.824-.408-.824-.208 0-.408.493-.954.408-.546-.084-.685-.33-.546-.492.138-.162 2.185-1.723 3.685-3.447 1.5-1.723 1.708-2.385 1.569-2.63-.138-.247-.477.407-.754.33-.277-.077.139-.738-.069-.823-.208-.085-.685.739-1.231.739s-.338-.408-.338-.578c0-.161-1.024.162-1.093-.161-.069-.33 1.908-.985 3.208-2.139 1.3-1.154 1.708-2.877 1.708-3.123 0-.246-.339-.162-.477 0-.139.162-.885.577-1.023.577-.139 0-.208-.408-.27-.408-.069 0-.207.408-.615.408-.408 0-.269-.33-.408-.408-.138-.084-.477 0-.815-.084-.339-.085-.269-.247 0-.331.269-.085 1.5-.654 2.731-1.893 1.231-1.23 1.431-1.807 1.362-1.969-.07-.161-.685.246-.816.246-.138 0-.208-.33-.269-.33-.062 0-.477.33-.616.245-.138-.084.139-.492.07-.576-.07-.085-.885.161-.816-.085.069-.246.816-.246 1.57-.823.753-.577 1.5-1.562 1.43-1.723-.069-.162-.477.407-.684.33-.208-.084-.208-.246-.269-.161-.07.084-.139.246-.27.246-.138 0 .069-.33-.138-.246-.208.084-.477.161-.477 0 0-.162.408-.408 1.231-1.231.815-.823.684-1.562.684-1.562s-.477.331-.615.246c-.139-.084 0-.33-.139-.33-.138 0-.615.084-.546-.085.07-.162.546.085 1.362-.985.815-1.069.762-1.808.969-1.784Z" fill="#406632"/><path d="M368.201 57.988s-.3.716-.669.985c0 .092.408-.177.446-.092.038.092-.631.938-.892 1.115.076.13.515-.177.553-.092.039.092-.63.892-.961 1.161.146.177.738-.269.777-.176.038.092-1.039 1.607-1.369 1.784.038.131.815-.269.853-.177.039.093-1 1.785-1.33 2.054.077.177.777-.4.853-.223.077.177-1.261 1.916-1.592 2.139.077.13 1.223-.316 1.262-.177.038.138-1.147 1.962-1.67 2.277.039.177 1.185-.446 1.262-.27.077.178-1.446 1.916-1.931 2.232 0 .223 1.854-.354 1.892-.223.039.13-1.446 1.43-1.892 1.692 0 .177 4.039-.623 4.3-.623.262 0 4.485.715 4.601.538-.816-.353-2-1.338-1.962-1.515.038-.177 1.893.4 1.962.177-1.039-.762-2.185-2.054-2.116-2.185.077-.13 1.331.4 1.37.177-1.147-.985-1.739-2.139-1.708-2.277.03-.139 1.261.446 1.331.177-1.147-1.023-1.777-1.877-1.739-2.054.038-.177 1 .354 1.039.13-.816-.8-1.447-1.876-1.408-2.007.038-.13.815.27.854.092-.816-.67-1.331-1.47-1.262-1.562.077-.092.631.224.708.047-.446-.354-1.039-1.024-1.039-1.162 0-.13.516.177.554.046-.446-.446-.777-.938-.777-1.023 0-.085.262.092.3-.046-.377-.362-.6-.939-.6-.939ZM377.427 50.54s-.231.56-.523.768c0 .07.323-.138.346-.069.023.07-.493.739-.7.877.061.108.407-.138.438-.07.031.07-.492.701-.754.916.116.139.585-.207.616-.138.031.07-.816 1.262-1.077 1.4.031.108.638-.208.669-.138.031.069-.785 1.4-1.046 1.615.061.139.615-.315.669-.177.062.139-.992 1.508-1.254 1.685.062.107.962-.246.993-.139.03.108-.901 1.547-1.308 1.793.03.138.931-.354.992-.208.062.139-1.138 1.508-1.515 1.754 0 .177 1.454-.277 1.484-.177.031.108-1.138 1.123-1.484 1.331 0 .139 3.177-.492 3.377-.492.2 0 3.523.561 3.616.423-.639-.277-1.57-1.054-1.547-1.193.031-.138 1.485.316 1.547.139-.816-.6-1.716-1.616-1.662-1.716.061-.107 1.046.316 1.077.139-.9-.77-1.369-1.685-1.339-1.793.031-.107.993.354 1.047.139-.901-.808-1.401-1.47-1.37-1.616.031-.138.785.277.816.108-.639-.63-1.139-1.47-1.108-1.577.031-.108.638.208.669.07-.638-.524-1.046-1.155-.992-1.232.061-.069.492.177.554.039-.347-.277-.816-.808-.816-.916 0-.107.408.139.439.039-.346-.354-.616-.739-.616-.808 0-.07.208.07.231-.038-.292-.285-.469-.739-.469-.739ZM348.868 46.06s-.346.84-.784 1.154c0 .108.477-.207.523-.107.046.108-.739 1.1-1.046 1.315.084.154.607-.207.653-.107.047.107-.738 1.053-1.138 1.369.177.208.869-.316.915-.208.047.108-1.223 1.893-1.615 2.1.046.154.961-.315 1-.207.046.107-1.177 2.1-1.569 2.415.084.208.915-.469 1-.261.084.207-1.485 2.261-1.877 2.523.084.154 1.438-.37 1.484-.208.046.154-1.354 2.316-1.961 2.677.046.208 1.4-.523 1.484-.315.085.208-1.7 2.262-2.269 2.631 0 .262 2.185-.423 2.223-.262.046.154-1.7 1.685-2.223 2 0 .208 4.754-.738 5.062-.738.308 0 5.277.839 5.408.63-.962-.422-2.354-1.576-2.316-1.784.047-.208 2.224.47 2.316.208-1.223-.892-2.577-2.416-2.485-2.577.085-.154 1.57.469 1.616.207-1.354-1.154-2.054-2.523-2.008-2.677.046-.154 1.485.523 1.569.208-1.354-1.208-2.092-2.208-2.054-2.416.046-.207 1.177.423 1.223.154-.961-.946-1.7-2.208-1.661-2.361.046-.154.961.315 1 .107-.962-.785-1.57-1.73-1.485-1.838.085-.108.739.261.831.053-.523-.423-1.223-1.207-1.223-1.369 0-.161.607.208.654.054-.523-.523-.916-1.1-.916-1.208 0-.108.308.108.346-.054-.415-.423-.677-1.108-.677-1.108ZM301.467 36.328s-.292.716-.669.977c0 .093.407-.177.446-.092.038.092-.631.938-.885 1.115.077.131.516-.177.554-.092.039.085-.631.892-.962 1.162.147.177.739-.27.777-.177.039.092-1.038 1.6-1.369 1.784.039.131.816-.269.854-.177.039.093-1 1.785-1.331 2.047.077.177.777-.4.854-.223.077.177-1.262 1.915-1.592 2.138.077.131 1.223-.315 1.261-.177.039.139-1.146 1.962-1.661 2.27.038.177 1.184-.446 1.261-.27.077.178-1.446 1.916-1.923 2.232 0 .223 1.854-.354 1.885-.224.031.131-1.446 1.424-1.885 1.693 0 .177 4.031-.623 4.293-.623.261 0 4.477.715 4.585.53-.816-.353-2-1.338-1.962-1.515.038-.177 1.885.4 1.962.177-1.039-.754-2.185-2.046-2.108-2.185.077-.13 1.331.4 1.369.177-1.146-.977-1.738-2.139-1.7-2.27.038-.13 1.262.447 1.331.178-1.146-1.023-1.777-1.87-1.739-2.047.039-.177 1 .354 1.039.131-.816-.8-1.446-1.87-1.408-2.008.038-.13.815.27.854.093-.816-.67-1.331-1.47-1.262-1.562.077-.092.631.223.7.046-.446-.354-1.038-1.023-1.038-1.161 0-.139.515.176.554.046-.446-.447-.777-.939-.777-1.024 0-.084.261.093.292-.046-.377-.346-.6-.923-.6-.923ZM80.72 21.72s-1.462 3.524-3.292 4.847c0 .439 2.015-.877 2.192-.438.185.438-3.108 4.623-4.393 5.508.37.661 2.562-.877 2.747-.439.184.439-3.108 4.4-4.754 5.724.73.877 3.654-1.323 3.838-.877.185.438-5.123 7.924-6.77 8.808.185.662 4.024-1.323 4.209-.877.184.439-4.94 8.809-6.586 10.132.37.877 3.84-1.985 4.209-1.1.369.877-6.216 9.47-7.863 10.57.37.662 6.04-1.539 6.216-.877.185.662-5.67 9.685-8.231 11.232.184.877 5.854-2.2 6.216-1.324.369.878-7.132 9.47-9.509 11.01 0 1.1 9.147-1.763 9.324-1.101.185.662-7.131 7.047-9.324 8.37 0 .877 19.933-3.085 21.217-3.085 1.277 0 22.133 3.523 22.679 2.639-4.023-1.762-9.878-6.608-9.693-7.485.185-.877 9.324 1.984 9.693.877-5.123-3.747-10.793-10.132-10.424-10.794.37-.661 6.585 1.985 6.77.877-5.67-4.846-8.593-10.57-8.416-11.231.184-.662 6.216 2.2 6.585.877-5.67-5.062-8.778-9.247-8.593-10.132.185-.877 4.939 1.762 5.124.662-4.024-3.962-7.132-9.247-6.947-9.909.184-.661 4.023 1.323 4.208.439-4.023-3.3-6.585-7.27-6.216-7.709.37-.438 3.108 1.1 3.477.223-2.192-1.761-5.123-5.062-5.123-5.723 0-.662 2.561.877 2.746.223-2.192-2.2-3.839-4.624-3.839-5.062 0-.439 1.277.439 1.462-.223-1.839-1.762-2.939-4.631-2.939-4.631Z" fill="#45684A"/><path d="M216.571 16.928s-.862 1.93-1.939 2.646c0 .239 1.185-.485 1.293-.238.107.246-1.831 2.53-2.585 3.008.215.361 1.508-.485 1.615-.239.108.239-1.831 2.408-2.8 3.131.431.485 2.154-.723 2.262-.485.107.239-3.008 4.34-3.978 4.816.108.362 2.37-.723 2.478-.484.107.238-2.908 4.815-3.87 5.538.215.485 2.262-1.084 2.477-.6.216.485-3.654 5.178-4.623 5.785.215.362 3.546-.846 3.654-.484.108.361-3.331 5.3-4.839 6.139.108.485 3.439-1.208 3.654-.723.216.484-4.193 5.177-5.593 6.023 0 .6 5.378-.961 5.485-.6.108.362-4.192 3.854-5.485 4.578 0 .484 11.724-1.685 12.478-1.685.754 0 13.017 1.93 13.34 1.446-2.37-.962-5.808-3.616-5.701-4.093.108-.484 5.485 1.085 5.701.485-3.008-2.046-6.347-5.539-6.131-5.9.215-.362 3.869 1.084 3.977.484-3.331-2.646-5.054-5.785-4.947-6.139.108-.361 3.654 1.208 3.87.485-3.331-2.77-5.162-5.062-5.054-5.539.107-.485 2.908.962 3.008.362-2.37-2.17-4.193-5.062-4.085-5.424.107-.361 2.369.723 2.477.238-2.37-1.807-3.87-3.977-3.654-4.215.215-.239 1.83.6 2.046.123-1.293-.962-3.008-2.77-3.008-3.131 0-.362 1.508.485 1.615.123-1.292-1.208-2.261-2.531-2.261-2.77 0-.238.754.239.861-.123-1.092-.969-1.738-2.538-1.738-2.538Z" fill="#305937"/><path d="M220.39 33.852s-.946 2.123-2.131 2.923c0 .27 1.3-.53 1.423-.27.116.27-2.015 2.785-2.846 3.316.239.4 1.662-.53 1.777-.269.115.27-2.016 2.654-3.085 3.454.477.531 2.37-.8 2.493-.53.115.269-3.316 4.777-4.385 5.307.115.4 2.608-.8 2.723-.53.115.269-3.2 5.308-4.27 6.108.239.53 2.493-1.192 2.724-.662.238.531-4.031 5.709-5.101 6.37.239.4 3.908-.93 4.031-.53.124.4-3.677 5.838-5.331 6.769.116.53 3.793-1.33 4.031-.8.239.53-4.623 5.708-6.162 6.639 0 .661 5.924-1.062 6.047-.662.123.4-4.624 4.247-6.047 5.047 0 .53 12.917-1.862 13.748-1.862.83 0 14.339 2.123 14.701 1.593-2.608-1.062-6.401-3.985-6.285-4.516.115-.53 6.046 1.192 6.285.53-3.316-2.253-6.993-6.108-6.755-6.5.239-.392 4.27 1.193 4.385.531-3.677-2.923-5.569-6.37-5.454-6.77.115-.4 4.031 1.331 4.27.531-3.678-3.054-5.693-5.577-5.57-6.108.115-.531 3.2 1.061 3.316.4-2.608-2.393-4.624-5.578-4.501-5.97.123-.392 2.608.8 2.724.27-2.608-1.993-4.27-4.378-4.032-4.647.239-.27 2.016.661 2.254.13-1.423-1.061-3.315-3.053-3.315-3.453 0-.4 1.662.53 1.777.13-1.423-1.33-2.493-2.785-2.493-3.054 0-.27.831.27.947-.13-1.185-1.062-1.893-2.785-1.893-2.785Z" fill="#123F18"/><path d="M196.582 19.236s-1.793 4.316-4.031 5.94c0 .538 2.461-1.078 2.692-.54.223.54-3.808 5.67-5.377 6.748.446.807 3.139-1.078 3.362-.539.223.539-3.808 5.4-5.824 7.016.9 1.077 4.485-1.616 4.708-1.077.223.538-6.277 9.716-8.293 10.793.223.808 4.931-1.615 5.155-1.077.223.539-6.055 10.793-8.07 12.416.446 1.078 4.708-2.43 5.154-1.346.446 1.077-7.624 11.601-9.639 12.955.446.808 7.393-1.892 7.623-1.077.223.808-6.946 11.87-10.085 13.763.223 1.077 7.17-2.7 7.624-1.616.446 1.077-8.74 11.601-11.655 13.494 0 1.346 11.208-2.162 11.432-1.346.223.807-8.74 8.639-11.432 10.254 0 1.077 24.433-3.777 26.002-3.777 1.569 0 27.118 4.316 27.795 3.239-4.932-2.162-12.101-8.093-11.878-9.178.223-1.077 11.431 2.431 11.878 1.077-6.278-4.585-13.225-12.416-12.778-13.224.446-.808 8.07 2.43 8.293 1.077-6.947-5.94-10.532-12.955-10.309-13.763.223-.808 7.624 2.7 8.07 1.077-6.947-6.208-10.755-11.332-10.532-12.416.223-1.077 6.055 2.161 6.278.807-4.931-4.854-8.739-11.331-8.516-12.147.223-.807 4.931 1.616 5.154.539-4.931-4.047-8.07-8.908-7.624-9.447.446-.538 3.808 1.346 4.262.27-2.692-2.163-6.277-6.209-6.277-7.017 0-.808 3.138 1.077 3.361.27-2.692-2.7-4.708-5.67-4.708-6.209 0-.538 1.57.539 1.793-.269-2.262-2.162-3.608-5.67-3.608-5.67Z" fill="#45684A"/><path d="M237.727 33.08s-1.485 3.3-3.347 4.539c0 .415 2.047-.823 2.231-.416.185.416-3.162 4.332-4.462 5.155.37.615 2.601-.823 2.793-.416.184.416-3.162 4.124-4.831 5.362.746.823 3.715-1.238 3.908-.823.184.416-5.208 7.424-6.878 8.247.185.615 4.093-1.239 4.278-.823.184.415-5.024 8.247-6.693 9.485.369.823 3.908-1.854 4.277-1.03.369.823-6.324 8.87-7.993 9.9.369.616 6.139-1.446 6.324-.823.184.615-5.762 9.07-8.37 10.516.184.823 5.946-2.061 6.323-1.238.377.823-7.254 8.87-9.67 10.308 0 1.031 9.293-1.646 9.486-1.03.184.615-7.255 6.6-9.486 7.839 0 .823 20.271-2.885 21.571-2.885 1.3 0 22.502 3.3 23.056 2.477-4.093-1.646-10.039-6.185-9.855-7.008.185-.824 9.486 1.854 9.855.823-5.208-3.508-10.97-9.486-10.601-10.101.369-.616 6.693 1.854 6.878.823-5.762-4.539-8.74-9.9-8.555-10.516.185-.616 6.324 2.062 6.693.823-5.762-4.747-8.924-8.662-8.739-9.486.184-.823 5.023 1.647 5.208.616-4.093-3.716-7.255-8.662-7.062-9.278.184-.615 4.092 1.239 4.277.416-4.093-3.093-6.693-6.809-6.324-7.216.37-.408 3.162 1.03 3.531.207-2.231-1.646-5.208-4.746-5.208-5.362 0-.615 2.601.824 2.793.208-2.231-2.061-3.908-4.331-3.908-4.746 0-.416 1.3.415 1.485-.208-1.87-1.662-2.985-4.339-2.985-4.339ZM290.166 25.83c.577.115.085 5.985.416 6.085.33.1 1.577-1.493 1.823-1.1.246.4-1.739 2.292-1.823 3.092-.085.8.169.9.415.7.246-.2.992-1.3 1.162-1 .169.3-.831 1.4-1.247 2.193-.415.8-.5 1.592-.084 1.4.415-.2 1.408-1.693 1.577-1.4.169.3-.831 1.692-1.077 2.192-.246.5-.17 1 .246.6.415-.4 2.9-2.892 3.146-2.692.247.2-.577 1.592-1.323 2.492-.746.9-2.4 2.193-2.569 2.893-.17.7-.085 1.1.331.7.415-.4 3.231-2.593 3.4-2.293.169.3-.908 1.793-1.654 2.493-.746.7-1.739 1.992-1.823 2.492-.085.5-.17.8.746.3.915-.5 2.238-1.2 3.231-1.792.992-.6 1.323-1.4 1.492-1.2.17.2.17.8-.577 1.592-.746.8-2.569 2.293-2.569 2.493 0 .2.331.2 1.161 0 .831-.2 1.578-.5 1.654-.4.085.1-.83 1.492-2.069 2.192-1.238.7-1.908 1.1-1.654 1.893.246.8 1.162.1 1.985-.4.823-.5 1.577-1.3 1.738-1.1.17.2-1.492 2.192-1.323 2.292.17.1.747 0 1.739-.7.992-.7 1.492-1.2 1.577-.9.085.3-.246 1.3-1.323 2.092-1.077.8-2.654 1.793-2.654 2.093 0 .3.33.7 1.407.3 1.078-.4 2.239-1.3 2.324-1 .084.3-1.077 1.592-1.908 2.092s-1.408.7-1.408.9c0 .2.662.5 2.239 0s1.985-.9 2.069-.6c.085.3-.831 1.893-2.238 2.093-1.408.2-2.07.3-2.155.4-.084.1-.415.9-1.407 1-.993.1-2.57-.8-3.478-.7-.907.1-1.492.8-2.73.6-1.247-.2-.993-.6-1.739-.6-.746 0-4.885-.7-4.885-1.1 0-.4 4.477-.5 4.885-.7.408-.2.084-.6-.662-.9-.746-.3-5.469-3.493-5.385-3.993.085-.5 2.239.7 3.647 1.2s2.154.9 2.323.6c.169-.3-.662-.6-1.985-1.592-1.323-1-2.4-1.793-2.154-2.093.246-.3 1.577.7 2.816 1.3 1.246.6 1.492.6 1.577.3.084-.3-1.908-1.892-1.739-2.092.169-.2 1.493.6 2.154.9.662.3.993.5 1.077.1.085-.4-1.246-1.1-2.4-1.693-1.162-.6-3.316-2.292-3.231-2.792.085-.5 1.739.7 2.816 1.2 1.077.5 1.577.7 1.577.3 0-.4-.831-1.3-1.654-1.992-.823-.693-1.493-1.4-1.408-1.693.085-.3 2.323 1.2 2.569.8.246-.4-.246-.8-1.077-2.092-.831-1.3-.992-1.793-.831-1.993.162-.2 3.978 3.893 4.309 3.993.33.1.415-.6.084-1-.331-.4-3.062-3.093-2.9-3.293.169-.2 1.985 1.493 2.323 1.3.331-.2-1.738-2.492-1.577-2.692.169-.2 2.731 2.392 2.985 2.192.246-.2.415-.8-.085-1.4-.5-.6-3.477-3.992-3.231-4.193.246-.2 3.231 2.293 3.562 2.693.331.4.169-1.2-.169-1.792-.331-.6-1.985-1.693-1.739-1.793.246-.1 1.654.2 2.07.5.415.3.746-.1.5-.9s-2.485-3.993-2.4-4.193c.084-.2 2.154 2.193 2.4 2.093.215-.092.3-5.377.792-5.277Z" fill="#305937"/><path d="M294.18 43.014s.4 1.616 1.408 2.424c1.008.807 1.408 1.077 1.208 1.346-.2.27-.5-.408-.708-.139-.2.27.2.539 0 .808-.2.27-.4-.269-.608 0-.2.27.808 1.616 1.208 1.885.4.27.808.538.808.808 0 .269-.608.269-.808 0-.2-.27-.4-.808-.608-.539-.2.27 0 .539-.2.539s-.2-.27-.4 0c-.2.269.4 1.077.808 1.346.4.27 2.162.816 2.215 1.346.039.4-.476.4-.7.4-.223 0-.223.1-.146.393.077.3-.077.492-.369.492-.3 0-.815-.692-1.039-.692-.223 0-.3.3-.146.592.146.3 2.147 2.177 2.962 2.77.816.592 1.631 1.092 1.7 1.484.077.393-.738.493-.961.393-.224-.1-.37-.2-.447-.1-.077.1-.077.592-.592.592s-.892-.693-.962-.693c-.069 0-.077.593-.369.593s-.446-.492-.592-.492c-.146 0-.223.2-.077.692.146.492 2.515 3.37 3.485 4.162.961.792 2.223.992 2.292 1.185.069.192-.077.692-1.038.792-.962.1-1.331-.3-1.408-.392-.077-.093-.146 0-.146.3s0 .392-.3.392-.593-.792-.67-.692c-.077.1 0 .492-.223.792-.223.3-.515-.1-.669-.1-.146 0-.223.2-.146.392.077.2 1.331 2.677 2.962 4.262 1.63 1.585 3.631 2.177 3.631 2.377 0 .2-.446.693-1.039.693-.592 0-.892 0-.892.1s-.146.792-.593.692c-.446-.1-1.484-.892-1.63-.892-.147 0 .076.992-.447 1.092-.515.1-.815-.792-.892-.792-.077 0 .146.992-.446.892-.593-.1-1.262-1.385-1.408-1.385-.146 0 .146.793-.146.893-.293.1-1.185-.693-1.331-.693-.146 0-.077 1.185-.516 1.093-.446-.1-.669-.893-1.038-.893s-.669.793-.962.793c-.3 0-.077-.893-.369-.993-.3-.1-.669.693-1.185.693-.515 0-.146-.893-.515-.993-.369-.1-1.039.893-1.408.893s-.146-.793-.446-.893c-.3-.1-.816 1.093-1.185 1.093-.369 0 .077-1.093-.146-1.093-.223 0-.892.693-1.331.693-.438 0-.223-.993-.446-.993s-.446.593-1.039.493c-.592-.1-.738-.393-.592-.593.146-.2 2.369-2.077 4-4.162 1.631-2.084 1.854-2.87 1.7-3.17-.146-.3-.515.493-.815.393-.3-.1.146-.892-.077-.992-.223-.1-.738.892-1.331.892-.592 0-.369-.492-.369-.692 0-.2-1.108.2-1.185-.2-.077-.4 2.077-1.185 3.485-2.577 1.408-1.385 1.854-3.47 1.854-3.762 0-.293-.369-.2-.515 0-.146.2-.962.692-1.108.692-.146 0-.223-.492-.3-.492-.077 0-.223.492-.669.492-.447 0-.3-.392-.446-.492-.147-.1-.516 0-.893-.1s-.3-.3 0-.393c.3-.1 1.631-.792 2.962-2.277 1.331-1.484 1.554-2.177 1.485-2.377-.077-.2-.739.3-.893.3-.146 0-.223-.392-.3-.392-.077 0-.515.392-.669.3-.146-.1.146-.592.077-.692-.069-.1-.962.2-.892-.1.069-.3.892-.3 1.7-.993.815-.692 1.631-1.885 1.554-2.077-.077-.192-.516.492-.739.392-.223-.1-.223-.3-.3-.2-.077.1-.146.3-.3.3-.146 0 .077-.392-.146-.3-.223.1-.516.2-.516 0s.447-.492 1.331-1.484c.893-.993.739-1.885.739-1.885s-.516.392-.669.3c-.147-.1 0-.392-.147-.392-.146 0-.669.1-.592-.1.077-.2.592.1 1.485-1.185.931-1.27.923-2.223 1.146-2.193Z" fill="#406632"/><path d="M284.199 64.678c.292.054.039 2.724.208 2.77.169.046.8-.677.923-.5.123.184-.877 1.046-.923 1.408-.039.361.084.407.208.315.123-.092.5-.592.584-.454.085.139-.415.639-.631 1-.215.362-.253.723-.038.639.208-.093.715-.77.8-.639.085.139-.415.77-.546 1-.131.231-.085.454.123.27.208-.185 1.469-1.316 1.592-1.224.123.093-.292.724-.669 1.131-.377.408-1.215 1-1.3 1.316-.085.315-.039.5.169.315.208-.184 1.639-1.177 1.716-1.046.084.138-.462.815-.839 1.13-.377.316-.877.909-.923 1.132-.038.223-.085.361.377.138a53.714 53.714 0 0 0 1.639-.815c.5-.27.669-.639.754-.547.084.093.084.362-.293.724-.377.361-1.3 1.046-1.3 1.13 0 .085.169.093.585 0 .415-.092.8-.223.838-.184.039.046-.415.677-1.046 1-.631.323-.962.5-.839.862.124.361.585.046 1.008-.185.416-.223.8-.593.877-.5.085.092-.754 1-.669 1.046.085.046.377 0 .877-.315.5-.316.754-.546.8-.408.038.138-.123.592-.669.954-.546.361-1.339.815-1.339.954 0 .138.169.315.716.138.546-.184 1.13-.592 1.177-.454.038.139-.547.724-.962.954-.415.223-.715.316-.715.408 0 .092.338.223 1.13 0 .801-.223 1.008-.408 1.047-.27.038.14-.416.862-1.131.955-.716.092-1.046.138-1.093.184-.038.046-.207.408-.715.454-.5.046-1.3-.361-1.762-.315-.461.046-.754.361-1.384.269-.631-.092-.501-.27-.877-.27-.377 0-2.47-.315-2.47-.5 0-.184 2.262-.222 2.47-.315.207-.092.038-.269-.339-.407-.377-.139-2.769-1.585-2.723-1.816.038-.223 1.131.316 1.846.546.716.223 1.092.408 1.177.27.085-.139-.338-.27-1.008-.724-.669-.453-1.215-.815-1.092-.953.123-.139.8.315 1.423.592.623.277.754.27.8.138.039-.138-.961-.861-.877-.954.085-.092.754.27 1.093.408.338.139.5.223.546.046.038-.184-.631-.5-1.216-.769-.584-.27-1.677-1.046-1.638-1.27.038-.222.877.316 1.423.547.546.23.8.315.8.138 0-.184-.415-.592-.839-.907-.415-.316-.754-.639-.715-.77.038-.138 1.177.547 1.3.362.123-.185-.123-.362-.546-.954-.423-.592-.5-.816-.415-.908.084-.092 2.015 1.77 2.177 1.816.169.046.207-.27.038-.454-.169-.185-1.554-1.408-1.469-1.5.084-.093 1.007.677 1.177.592.169-.092-.877-1.13-.8-1.223.084-.093 1.384 1.092 1.507 1 .124-.092.208-.362-.038-.639-.254-.269-1.762-1.815-1.639-1.907.124-.093 1.639 1.046 1.801 1.223.169.184.084-.546-.085-.816-.169-.269-1.008-.769-.877-.815.123-.046.838.092 1.046.223.208.138.377-.046.254-.408-.123-.361-1.254-1.815-1.215-1.908.038-.092 1.092 1 1.215.954.123-.046.169-2.454.423-2.408Z" fill="#305937"/><path d="M275.369 38.468s.761 2.746 2.661 4.123c1.9 1.377 2.662 1.831 2.285 2.293-.377.462-.954-.685-1.331-.23-.377.46.377.915 0 1.376-.377.462-.761-.461-1.138 0-.377.462 1.523 2.747 2.284 3.208.762.462 1.524.916 1.524 1.377 0 .462-1.139.462-1.524 0-.377-.461-.761-1.377-1.138-.915-.377.461 0 .915-.377.915s-.377-.461-.762 0c-.377.462.762 1.831 1.524 2.293.761.461 4.085 1.384 4.185 2.292.076.677-.908.677-1.324.677-.423 0-.423.17-.277.677.139.508-.138.839-.7.839-.561 0-1.538-1.177-1.954-1.177-.423 0-.561.508-.277 1.008.285.5 4.055 3.708 5.593 4.715 1.539 1.008 3.077 1.854 3.216 2.524.138.677-1.4.838-1.816.677-.423-.17-.7-.339-.838-.17-.139.17-.139 1.008-1.116 1.008-.977 0-1.677-1.177-1.815-1.177-.139 0-.139 1.008-.7 1.008-.562 0-.839-.839-1.116-.839-.277 0-.423.339-.138 1.177.277.839 4.754 5.724 6.569 7.07 1.816 1.346 4.193 1.685 4.339 2.023.146.339-.138 1.177-1.954 1.347-1.815.169-2.515-.508-2.654-.677-.138-.17-.277 0-.277.507 0 .508 0 .677-.561.677-.562 0-1.116-1.346-1.262-1.177-.146.17 0 .839-.423 1.347-.423.507-.977-.17-1.262-.17-.277 0-.423.339-.277.677.139.339 2.516 4.547 5.593 7.24 3.077 2.692 6.855 3.707 6.855 4.038 0 .339-.839 1.177-1.954 1.177-1.116 0-1.678 0-1.678.17 0 .169-.277 1.346-1.115 1.177-.839-.17-2.8-1.516-3.077-1.516-.277 0 .138 1.685-.839 1.854-.977.17-1.538-1.346-1.677-1.346-.138 0 .277 1.684-.838 1.515-1.116-.169-2.377-2.354-2.654-2.354-.277 0 .277 1.346-.277 1.516-.562.169-2.239-1.177-2.516-1.177-.277 0-.138 2.023-.977 1.854-.838-.17-1.262-1.516-1.954-1.516-.7 0-1.262 1.346-1.815 1.346-.562 0-.139-1.515-.7-1.684-.562-.17-1.262 1.177-2.239 1.177-.977 0-.277-1.516-.977-1.685-.7-.17-1.954 1.515-2.654 1.515s-.277-1.346-.839-1.515c-.561-.17-1.538 1.854-2.238 1.854s.138-1.854-.277-1.854c-.424 0-1.677 1.177-2.516 1.177-.838 0-.423-1.685-.839-1.685-.423 0-.838 1.008-1.953.839-1.116-.17-1.401-.677-1.116-1.008.277-.338 4.477-3.539 7.555-7.07 3.077-3.539 3.492-4.885 3.215-5.385-.277-.508-.977.839-1.538.677-.562-.17.277-1.515-.139-1.685-.415-.169-1.4 1.516-2.515 1.516-1.116 0-.701-.839-.701-1.177 0-.339-2.1.338-2.238-.339-.139-.677 3.916-2.023 6.57-4.377 2.654-2.354 3.492-5.893 3.492-6.4 0-.508-.7-.339-.977 0-.277.338-1.815 1.177-2.1 1.177-.277 0-.423-.839-.562-.839-.138 0-.423.839-1.261.839-.839 0-.562-.677-.839-.839-.277-.162-.977 0-1.677-.17-.7-.169-.561-.507 0-.676.562-.17 3.077-1.347 5.593-3.87s2.939-3.708 2.8-4.039c-.138-.338-1.4.508-1.677.508-.277 0-.423-.677-.561-.677-.139 0-.977.677-1.262.508-.285-.17.277-1.008.138-1.177-.138-.17-1.815.338-1.677-.17.139-.507 1.677-.507 3.216-1.684 1.539-1.177 3.077-3.2 2.939-3.539-.139-.338-.977.839-1.4.677-.424-.161-.424-.508-.562-.338-.139.169-.277.507-.562.507-.284 0 .139-.677-.277-.507-.423.169-.977.338-.977 0 0-.339.839-.839 2.516-2.524 1.677-1.684 1.4-3.2 1.4-3.2s-.977.677-1.261.508c-.277-.17 0-.677-.277-.677s-1.262.169-1.116-.17c.146-.338 1.116.17 2.8-2.023 1.608-2.208 1.6-3.83 2.024-3.777Z" fill="#406632"/><path d="M344.341 47.339c.5.092.069 4.662.361 4.739.285.077 1.362-1.162 1.578-.854.215.308-1.508 1.785-1.578 2.408-.069.623.147.7.362.546.215-.154.862-1.008 1.008-.777.146.23-.716 1.085-1.077 1.708-.362.623-.431 1.246-.069 1.084.361-.153 1.223-1.323 1.361-1.084.139.238-.715 1.323-.931 1.708-.215.384-.146.777.216.469.361-.308 2.515-2.254 2.731-2.1.215.154-.5 1.246-1.147 1.938-.646.7-2.084 1.708-2.223 2.254-.146.547-.069.854.285.547.361-.308 2.8-2.024 2.946-1.785.146.238-.792 1.4-1.438 1.938-.646.547-1.508 1.554-1.577 1.94-.07.391-.146.622.646.23.792-.385 1.938-.931 2.8-1.4.862-.47 1.146-1.085 1.292-.931.147.154.147.623-.5 1.246-.646.623-2.223 1.785-2.223 1.939 0 .154.285.154 1.008 0 .715-.154 1.362-.385 1.439-.308.069.077-.716 1.162-1.793 1.708s-1.654.854-1.438 1.477c.215.623 1.007.077 1.723-.308.715-.392 1.361-1.008 1.508-.854.146.154-1.293 1.708-1.147 1.785.146.077.646 0 1.508-.546s1.293-.931 1.362-.7c.069.23-.216 1.008-1.146 1.63-.931.624-2.301 1.4-2.301 1.632 0 .23.285.546 1.224.23.93-.307 1.938-1.007 2.007-.777.07.231-.931 1.247-1.654 1.631-.715.393-1.223.547-1.223.7 0 .154.577.385 1.939 0 1.361-.392 1.723-.7 1.792-.469.069.23-.715 1.477-1.938 1.631-1.223.154-1.793.23-1.87.308-.069.077-.361.7-1.223.777-.861.077-2.223-.623-3.016-.546-.792.076-1.292.623-2.369.469-1.077-.154-.862-.47-1.508-.47s-4.239-.546-4.239-.853c0-.308 3.878-.393 4.239-.547.362-.153.069-.469-.577-.7-.646-.23-4.739-2.715-4.669-3.108.069-.392 1.938.547 3.161.931 1.224.393 1.87.7 2.008.47.139-.231-.577-.47-1.723-1.247-1.146-.777-2.085-1.4-1.869-1.63.215-.231 1.361.546 2.438 1.007 1.077.47 1.293.47 1.362.23.069-.23-1.654-1.476-1.508-1.63.146-.154 1.293.47 1.87.7.577.23.861.392.93.077.07-.308-1.077-.854-2.084-1.323-1.008-.47-2.87-1.785-2.801-2.177.07-.393 1.508.546 2.439.93.931.385 1.362.547 1.362.231 0-.315-.716-1.008-1.439-1.554-.715-.546-1.292-1.084-1.223-1.323.069-.23 2.008.931 2.223.623.216-.307-.215-.623-.931-1.63-.715-1.008-.861-1.4-.715-1.555.146-.153 3.446 3.032 3.731 3.108.285.077.362-.469.069-.777-.292-.307-2.654-2.407-2.515-2.561.146-.154 1.723 1.161 2.007 1.007.285-.153-1.507-1.938-1.361-2.1.146-.161 2.369 1.862 2.585 1.708.215-.154.361-.623-.07-1.085-.43-.469-3.015-3.108-2.8-3.261.216-.154 2.8 1.784 3.085 2.1.285.315.146-.931-.146-1.4-.292-.47-1.723-1.324-1.508-1.4.216-.077 1.439.153 1.793.392.361.23.646-.077.43-.7-.215-.623-2.154-3.108-2.084-3.262.069-.154 1.869 1.708 2.084 1.63.239-.045.308-4.161.739-4.084Z" fill="#305937"/><path d="M327.599 62.578s-.554 1.239-1.239 1.7c0 .154.762-.308.831-.154.07.154-1.177 1.624-1.654 1.931.139.231.97-.307 1.039-.154.069.154-1.177 1.547-1.793 2.008.277.308 1.377-.461 1.447-.307.069.153-1.931 2.784-2.554 3.092.069.231 1.515-.461 1.584-.308.07.154-1.861 3.093-2.484 3.555.138.307 1.446-.693 1.584-.385.139.308-2.346 3.323-2.969 3.708.138.23 2.277-.539 2.346-.308.069.231-2.139 3.4-3.108 3.939.069.308 2.208-.77 2.347-.462.138.308-2.693 3.324-3.585 3.862 0 .385 3.454-.615 3.523-.384.069.23-2.693 2.47-3.523 2.938 0 .308 7.523-1.084 8.008-1.084.485 0 8.347 1.238 8.555.93-1.516-.615-3.724-2.315-3.655-2.63.07-.316 3.524.692 3.655.307-1.931-1.315-4.07-3.554-3.932-3.785.139-.23 2.485.693 2.554.308-2.138-1.7-3.246-3.708-3.177-3.939.07-.23 2.347.77 2.485.308-2.139-1.777-3.316-3.246-3.246-3.554.069-.308 1.861.615 1.931.23-1.516-1.392-2.693-3.246-2.624-3.477.07-.23 1.516.462 1.585.154-1.515-1.161-2.485-2.546-2.346-2.708.138-.154 1.177.385 1.308.077-.831-.615-1.931-1.777-1.931-2.008 0-.23.969.308 1.038.077-.831-.769-1.446-1.623-1.446-1.777 0-.154.485.154.554-.077-.7-.615-1.108-1.623-1.108-1.623Z" fill="#123F18"/><path d="M153.868 12.626s1.37 5.385 4.778 8.077c3.415 2.693 4.777 3.593 4.1 4.493-.685.9-1.708-1.346-2.393-.446-.684.9.685 1.792 0 2.692-.684.9-1.369-.9-2.046 0-.685.9 2.731 5.385 4.1 6.285 1.37.9 2.731 1.793 2.731 2.693 0 .9-2.046.9-2.731 0-.684-.9-1.369-2.693-2.046-1.793-.685.9 0 1.793-.685 1.793-.684 0-.684-.9-1.369 0-.685.9 1.369 3.593 2.731 4.493 1.369.9 7.331 2.708 7.508 4.492.131 1.331-1.623 1.331-2.377 1.331-.754 0-.754.331-.5 1.323.254.993-.254 1.654-1.254 1.654-1.008 0-2.762-2.307-3.516-2.307-.753 0-1.007.992-.499 1.977.5.992 7.277 7.262 10.039 9.239 2.762 1.977 5.523 3.63 5.769 4.954.247 1.323-2.507 1.654-3.261 1.323-.754-.33-1.254-.661-1.508-.33-.254.33-.254 1.977-2.008 1.977s-3.016-2.308-3.262-2.308-.254 1.977-1.254 1.977-1.508-1.654-2.008-1.654-.754.661-.254 2.308c.501 1.654 8.532 11.224 11.794 13.862 3.262 2.639 7.531 3.3 7.777 3.962.247.662-.254 2.308-3.515 2.639-3.262.33-4.516-.992-4.77-1.323-.254-.331-.5 0-.5.992s0 1.323-1.008 1.323-2.008-2.638-2.261-2.308c-.254.331 0 1.654-.754 2.64-.754.991-1.754-.332-2.262-.332-.5 0-.754.662-.5 1.323.254.662 4.516 8.909 10.039 14.194 5.524 5.277 12.301 7.262 12.301 7.924 0 .661-1.508 2.308-3.516 2.308-2.007 0-3.015 0-3.015.33 0 .331-.5 2.639-2.008 2.308-1.508-.331-5.024-2.969-5.524-2.969s.254 3.3-1.507 3.631c-1.754.331-2.762-2.639-3.016-2.639s.5 3.3-1.508 2.97c-2.008-.331-4.269-4.624-4.769-4.624s.5 2.639-.5 2.97c-1.008.33-4.016-2.308-4.516-2.308s-.254 3.962-1.754 3.631c-1.508-.331-2.262-2.97-3.516-2.97s-2.262 2.639-3.262 2.639-.254-2.969-1.254-3.3c-1.007-.331-2.261 2.308-4.015 2.308-1.754 0-.5-2.97-1.754-3.301-1.254-.33-3.516 2.97-4.77 2.97-1.254 0-.5-2.639-1.508-2.97-1.008-.33-2.762 3.631-4.016 3.631-1.253 0 .254-3.631-.5-3.631-.753 0-3.015 2.308-4.515 2.308-1.5 0-.754-3.3-1.508-3.3s-1.508 1.977-3.516 1.654c-2.008-.331-2.508-1.323-2.008-1.977.5-.662 8.032-6.931 13.555-13.863 5.524-6.931 6.278-9.57 5.77-10.562-.5-.993-1.754 1.654-2.762 1.323-1.008-.33.5-2.97-.254-3.3-.754-.331-2.508 2.97-4.515 2.97-2.008 0-1.254-1.655-1.254-2.309 0-.654-3.762.662-4.016-.661s7.031-3.962 11.793-8.586c4.77-4.623 6.278-11.554 6.278-12.54 0-.992-1.254-.66-1.754 0-.5.663-3.262 2.309-3.762 2.309s-.754-1.654-1.008-1.654-.754 1.654-2.262 1.654c-1.507 0-1.007-1.323-1.508-1.654-.5-.331-1.753 0-3.015-.331-1.254-.33-1.008-.992 0-1.323 1.008-.331 5.523-2.639 10.039-7.593 4.516-4.954 5.27-7.262 5.024-7.924-.247-.662-2.508.992-3.016.992-.5 0-.754-1.323-1.008-1.323s-1.754 1.324-2.262.993c-.5-.331.501-1.977.254-2.308-.253-.33-3.261.661-3.015-.33.254-.993 3.015-.993 5.769-3.301 2.762-2.308 5.524-6.27 5.27-6.932-.254-.661-1.754 1.654-2.508 1.324-.754-.331-.754-.993-1.008-.662-.253.33-.5.992-1.007.992-.508 0 .254-1.323-.5-.992-.754.33-1.754.662-1.754 0s1.507-1.654 4.515-4.954 2.508-6.27 2.508-6.27-1.754 1.323-2.261.992c-.5-.33 0-1.323-.501-1.323-.5 0-2.261.331-2.007-.33.254-.662 2.008.33 5.023-3.962 3.016-4.293 3.054-7.478 3.808-7.37Z" fill="#406632"/><path d="M104.603 7.714c2.262.454.323 23.433 1.624 23.818 1.3.384 6.162-5.855 7.139-4.293.969 1.562-6.809 8.985-7.139 12.109-.331 3.123.646 3.516 1.623 2.73.969-.784 3.892-5.077 4.539-3.907.646 1.17-3.247 5.47-4.862 8.593-1.616 3.123-1.947 6.246-.323 5.47 1.623-.778 5.515-6.64 6.162-5.47.646 1.17-3.247 6.639-4.216 8.593-.969 1.954-.646 3.908.969 2.346 1.623-1.562 11.355-11.324 12.324-10.547.97.785-2.269 6.247-5.192 9.763-2.924 3.515-9.409 8.593-10.055 11.324-.646 2.73-.323 4.292 1.3 2.73 1.623-1.561 12.647-10.154 13.301-8.985.646 1.17-3.569 7.031-6.485 9.763-2.916 2.73-6.808 7.808-7.139 9.762-.323 1.954-.646 3.123 2.915 1.17 3.57-1.955 8.755-4.686 12.648-7.032 3.892-2.346 5.192-5.47 5.839-4.685.646.785.646 3.123-2.27 6.247-2.915 3.123-10.054 8.985-10.054 9.762 0 .785 1.3.785 4.538 0 3.247-.785 6.162-1.954 6.486-1.562.323.392-3.247 5.855-8.109 8.593-4.862 2.731-7.462 4.293-6.485 7.416.969 3.124 4.539.393 7.785-1.561 3.247-1.955 6.162-5.078 6.809-4.293.646.785-5.839 8.593-5.193 8.985.646.393 2.915 0 6.808-2.731 3.893-2.73 5.839-4.685 6.162-3.515.323 1.169-.969 5.077-5.193 8.2-4.223 3.124-10.377 7.032-10.377 8.201 0 1.169 1.3 2.731 5.515 1.169 4.216-1.561 8.755-5.077 9.078-3.908.323 1.17-4.216 6.247-7.462 8.201-3.247 1.954-5.516 2.731-5.516 3.516 0 .784 2.593 1.954 8.755 0 6.162-1.954 7.785-3.516 8.108-2.347.323 1.17-3.246 7.416-8.754 8.201-5.509.785-8.109 1.169-8.432 1.562-.323.392-1.623 3.515-5.516 3.908-3.892.392-10.055-3.124-13.624-2.731-3.57.392-5.839 3.123-10.7 2.346-4.863-.785-3.894-2.346-6.81-2.346-2.915 0-19.131-2.731-19.131-4.293 0-1.562 17.516-1.954 19.132-2.731 1.623-.785.323-2.346-2.593-3.516-2.915-1.169-21.41-13.67-21.078-15.616.33-1.947 8.754 2.731 14.27 4.685 5.516 1.954 8.431 3.515 9.078 2.346.646-1.169-2.593-2.346-7.786-6.247-5.192-3.908-9.408-7.031-8.431-8.2.977-1.17 6.162 2.731 11.024 5.077 4.862 2.346 5.839 2.346 6.162 1.169.323-1.169-7.462-7.416-6.808-8.2.646-.785 5.839 2.346 8.431 3.515 2.593 1.17 3.893 1.954 4.216.393.323-1.562-4.862-4.293-9.409-6.64-4.546-2.346-12.97-8.985-12.647-10.931.323-1.946 6.809 2.73 11.024 4.685 4.216 1.954 6.162 2.73 6.162 1.17 0-1.562-3.246-5.078-6.485-7.81-3.246-2.73-5.839-5.469-5.516-6.638.323-1.17 9.078 4.685 10.055 3.123.97-1.561-.97-3.123-4.216-8.2-3.246-5.078-3.892-7.032-3.246-7.809.646-.784 15.57 15.232 16.863 15.617 1.3.392 1.623-2.346.323-3.908-1.3-1.562-12.001-12.109-11.355-12.886.646-.784 7.785 5.855 9.078 5.078 1.3-.785-6.808-9.763-6.162-10.547.646-.785 10.7 9.37 11.678 8.592.969-.784 1.623-3.123-.324-5.47-1.946-2.346-13.624-15.616-12.647-16.4.97-.785 12.648 8.985 13.948 10.547 1.3 1.561.646-4.686-.646-7.032-1.3-2.346-7.786-6.639-6.809-7.031.97-.392 6.485.785 8.109 1.954 1.623 1.17 2.915-.392 1.946-3.516-.969-3.123-9.732-15.617-9.409-16.401.324-.785 8.432 8.593 9.409 8.2 1-.384 1.323-21.086 3.269-20.694Z" fill="#305937"/><path d="M49.593 48.922s-1.538 3.446-3.461 4.739c0 .43 2.115-.862 2.308-.431.192.43-3.27 4.523-4.616 5.385.385.646 2.692-.862 2.885-.43.192.43-3.27 4.307-5 5.6.769.861 3.846-1.293 4.038-.862.192.43-5.385 7.747-7.116 8.608.192.647 4.231-1.292 4.423-.861.193.43-5.192 8.608-6.923 9.9.385.862 4.039-1.938 4.423-1.076.385.861-6.539 9.254-8.27 10.331.385.646 6.347-1.508 6.54-.861.192.646-5.963 9.47-8.655 10.977.192.862 6.154-2.154 6.539-1.292.385.862-7.5 9.255-10.001 10.762 0 1.077 9.616-1.723 9.809-1.077.192.647-7.501 6.893-9.809 8.178 0 .862 20.956-3.016 22.302-3.016s23.263 3.447 23.84 2.585c-4.23-1.723-10.385-6.462-10.193-7.323.193-.862 9.809 1.938 10.193.861-5.385-3.662-11.347-9.9-10.962-10.547.385-.646 6.924 1.939 7.116.862-5.962-4.74-9.04-10.332-8.847-10.978.192-.646 6.539 2.154 6.924.861-5.962-4.954-9.232-9.039-9.04-9.9.193-.862 5.193 1.723 5.385.646-4.23-3.877-7.5-9.04-7.308-9.686.193-.646 4.231 1.293 4.424.431-4.231-3.23-6.924-7.108-6.54-7.539.385-.43 3.27 1.077 3.655.216-2.308-1.724-5.385-4.955-5.385-5.6 0-.647 2.692.86 2.885.215-2.308-2.154-4.04-4.524-4.04-4.955 0-.43 1.347.431 1.54-.215-1.908-1.716-3.063-4.508-3.063-4.508Z" fill="#305937"/></svg>