<svg width="198" height="703" fill="none" xmlns="http://www.w3.org/2000/svg"><path d="M107.764 116.333s2.032 6.101 7.116 9.149c5.084 3.049 7.117 4.068 6.101 5.099-1.017 1.031-2.55-1.526-3.559-.51-1.009 1.016 1.016 2.036 0 3.052s-2.036-1.016-3.052 0 4.069 6.101 6.101 7.117 4.068 2.032 4.068 3.049c0 1.016-3.052 1.016-4.068 0-1.016-1.017-2.033-3.049-3.049-2.033s0 2.033-1.016 2.033-1.02-1.017-2.036 0c-1.016 1.016 2.036 4.068 4.068 5.099 2.033 1.03 10.927 3.066 11.185 5.099.197 1.504-2.418 1.504-3.54 1.504-1.122 0-1.122.364-.728 1.497.393 1.132-.364 1.868-1.869 1.868-1.504 0-4.112-2.615-5.233-2.615-1.122 0-1.493 1.118-.747 2.24.747 1.122 10.839 8.224 14.951 10.464s8.22 4.112 8.595 5.609c.375 1.497-3.737 1.868-4.858 1.493-1.122-.375-1.869-.747-2.244-.364-.375.382-.364 2.243-2.99 2.243-2.626 0-4.483-2.615-4.859-2.615-.375 0-.364 2.24-1.868 2.24s-2.24-1.868-2.99-1.868-1.122.75-.364 2.619c.757 1.868 12.703 12.703 17.562 15.694 4.858 2.99 11.214 3.736 11.585 4.487.372.75-.364 2.615-5.23 2.986-4.866.372-6.727-1.118-7.102-1.493s-.728 0-.728 1.122 0 1.493-1.497 1.493-2.987-2.99-3.362-2.615 0 1.868-1.121 2.99c-1.122 1.122-2.616-.364-3.362-.364-.747 0-1.122.75-.75 1.497.371.747 6.726 10.089 14.95 16.069 8.224 5.981 18.313 8.22 18.313 8.971 0 .75-2.244 2.615-5.234 2.615-2.99 0-4.483 0-4.483.364s-.747 2.987-2.991 2.615c-2.243-.371-7.473-3.365-8.22-3.365-.746 0 .365 3.737-2.243 4.112-2.608.375-4.112-2.991-4.484-2.991-.371 0 .729 3.737-2.243 3.366-2.972-.372-6.352-5.234-7.102-5.234s.75 2.99-.729 3.365c-1.478.376-5.98-2.618-6.727-2.618-.746 0-.364 4.487-2.615 4.112-2.25-.375-3.365-3.362-5.233-3.362-1.869 0-3.362 2.987-4.859 2.987-1.497 0-.364-3.362-1.868-3.737s-3.362 2.618-5.977 2.618-.75-3.365-2.619-3.74c-1.868-.375-5.23 3.365-7.098 3.365-1.868 0-.747-2.99-2.243-3.365-1.497-.375-4.112 4.112-5.98 4.112-1.87 0 .364-4.112-.73-4.112-1.092 0-4.483 2.619-6.726 2.619-2.244 0-1.122-3.737-2.244-3.737-1.121 0-2.24 2.24-5.23 1.868-2.99-.371-3.736-1.497-2.99-2.243.747-.747 11.96-7.849 20.181-15.698 8.22-7.849 9.342-10.835 8.595-11.957-.746-1.122-2.615 1.868-4.112 1.493-1.497-.375.75-3.362-.364-3.737-1.114-.375-3.737 3.366-6.727 3.366s-1.868-1.869-1.868-2.619c0-.75-5.609.75-5.98-.729-.372-1.478 10.463-4.483 17.565-9.717 7.102-5.234 9.342-13.079 9.342-14.204 0-1.126-1.868-.747-2.615 0-.746.746-4.858 2.615-5.609 2.615-.75 0-1.118-1.869-1.493-1.869s-1.121 1.869-3.365 1.869c-2.243 0-1.493-1.493-2.24-1.869-.747-.375-2.615 0-4.487-.364-1.872-.364-1.493-1.122 0-1.497s8.224-2.99 14.95-8.595c6.728-5.605 7.85-8.22 7.474-8.967-.375-.747-3.737 1.118-4.483 1.118-.747 0-1.122-1.493-1.497-1.493s-2.615 1.493-3.362 1.121c-.746-.371.747-2.243.365-2.615-.383-.371-4.855.729-4.484-.364.372-1.092 4.484-1.122 8.595-3.737 4.112-2.615 8.224-7.102 7.849-7.848-.375-.747-2.615 1.868-3.737 1.497-1.121-.372-1.121-1.122-1.496-.751-.376.372-.747 1.122-1.494 1.122-.746 0 .364-1.493-.728-1.122-1.093.372-2.619.75-2.619 0s2.244-1.868 6.727-5.605c4.483-3.737 3.741-7.099 3.741-7.099s-2.62 1.494-3.366 1.119c-.746-.376 0-1.494-.746-1.494-.747 0-3.366.364-2.99-.364.375-.728 2.99.364 7.473-4.483 4.483-4.848 4.367-8.567 5.5-8.443ZM175.04 33.865c2.608.433.365 22.42 1.869 22.796 1.504.375 7.102-5.605 8.224-4.112 1.121 1.493-7.849 8.595-8.224 11.586-.375 2.99.746 3.365 1.868 2.615s4.487-4.859 5.234-3.737c.746 1.122-3.737 5.234-5.605 8.224-1.869 2.99-2.244 5.98-.365 5.23 1.88-.75 6.352-6.352 7.103-5.23.75 1.122-3.737 6.352-4.859 8.22-1.122 1.869-.75 3.737 1.122 2.244 1.872-1.494 13.078-10.84 14.204-10.093 1.125.747-2.619 5.98-5.981 9.346-3.361 3.365-10.838 8.22-11.585 10.835-.747 2.615-.364 4.112 1.493 2.62 1.858-1.494 14.569-9.718 15.326-8.596.758 1.121-4.112 6.727-7.477 9.342s-7.849 7.473-8.22 9.342c-.372 1.868-.729 2.99 3.361 1.122 4.09-1.869 10.093-4.484 14.569-6.727 4.476-2.244 5.98-5.234 6.727-4.484.746.75.728 2.987-2.615 5.977-3.344 2.99-11.586 8.595-11.586 9.346 0 .75 1.494.746 5.234 0 3.74-.747 7.098-1.869 7.473-1.497.376.371-3.736 5.605-9.345 8.224-5.609 2.618-8.595 4.108-7.474 7.098 1.122 2.99 5.234.364 8.971-1.493 3.737-1.858 7.098-4.859 7.848-4.112.751.747-6.726 8.22-5.98 8.595.747.376 3.362 0 7.849-2.615s6.727-4.487 7.098-3.365c.372 1.122-1.118 4.859-5.976 7.849-4.859 2.99-11.961 6.727-11.961 7.849 0 1.121 1.497 2.615 6.352 1.121 4.855-1.493 10.092-4.858 10.467-3.736.375 1.121-4.858 5.976-8.599 7.845-3.74 1.868-6.352 2.618-6.352 3.365 0 .747 2.991 1.869 10.093 0 7.102-1.868 8.966-3.365 9.342-2.243.375 1.121-3.737 7.102-10.093 7.848-6.355.747-9.342 1.122-9.713 1.497-.372.375-1.872 3.362-6.355 3.737-4.484.375-11.579-2.972-15.702-2.608-4.122.365-6.726 2.991-12.335 2.244-5.609-.747-4.484-2.244-7.845-2.244-3.362 0-22.049-2.615-22.049-4.108 0-1.493 20.18-1.868 22.049-2.619 1.868-.75.364-2.24-2.99-3.361-3.355-1.122-24.668-13.079-24.293-14.951.375-1.872 10.088 2.618 16.444 4.487 6.355 1.868 9.717 3.361 10.464 2.24.746-1.122-2.991-2.24-8.971-5.977s-10.835-6.727-9.717-7.849c1.118-1.122 7.102 2.615 12.707 4.859 5.605 2.243 6.727 2.24 7.102 1.121.375-1.118-8.595-7.102-7.848-7.848.746-.747 6.727 2.243 9.717 3.361 2.99 1.119 4.483 1.869 4.858.365.375-1.505-5.605-4.112-10.839-6.352-5.233-2.24-14.932-8.596-14.568-10.468.364-1.872 7.849 2.619 12.707 4.487 4.859 1.869 7.102 2.615 7.102 1.122s-3.736-4.859-7.477-7.477c-3.74-2.619-6.727-5.23-6.352-6.352.376-1.122 10.464 4.483 11.586 2.99 1.122-1.493-1.122-2.99-4.859-7.849-3.736-4.858-4.483-6.727-3.736-7.474.746-.746 17.937 14.569 19.434 14.933 1.497.365 1.868-2.24.364-3.737-1.504-1.496-13.84-11.585-13.079-12.332.761-.746 8.971 5.605 10.464 4.859 1.493-.747-7.849-9.342-7.102-10.089.746-.747 12.336 8.967 13.454 8.22 1.118-.746 1.868-2.99-.365-5.233-2.232-2.244-15.697-14.933-14.568-15.695 1.129-.76 14.568 8.596 16.069 10.09 1.501 1.493.728-4.484-.747-6.728-1.475-2.243-8.97-6.352-7.848-6.727 1.121-.375 7.473.75 9.342 1.869 1.868 1.118 3.365-.365 2.243-3.362-1.122-2.998-11.21-14.933-10.839-15.698.372-.765 9.717 8.224 10.839 7.85 1.122-.376 1.483-20.167 3.722-19.792Z" fill="#305937"/><path d="M211.293 114.586s2.99 5.977 6.726 8.22c0 .729-4.108-1.493-4.483-.746-.375.746 6.352 7.848 8.97 9.342-.75 1.121-5.233-1.494-5.605-.747-.371.747 6.352 7.474 9.714 9.717-1.494 1.494-7.474-2.243-7.845-1.497-.372.747 10.463 13.455 13.84 14.951-.365 1.119-8.221-2.243-8.596-1.497-.375.747 10.092 14.933 13.454 17.191-.747 1.497-7.849-3.361-8.595-1.868-.747 1.493 12.707 16.069 16.069 17.938-.747 1.121-12.332-2.615-12.704-1.494-.371 1.122 11.582 16.445 16.816 19.06-.365 1.497-11.961-3.737-12.708-2.244-.746 1.493 14.569 16.073 19.434 18.688 0 1.868-18.687-2.99-19.059-1.868-.371 1.121 14.569 11.957 19.059 14.204 0 1.497-40.736-5.23-43.34-5.23-2.604 0-45.22 5.977-46.338 4.483 8.22-2.99 20.177-11.21 19.805-12.707-.371-1.497-19.059 3.365-19.805 1.497 10.463-6.356 22.049-17.191 21.298-18.313-.75-1.122-13.453 3.362-13.839 1.493 11.585-8.22 17.562-17.937 17.19-19.059-.371-1.122-12.707 3.737-13.454 1.493 11.586-8.595 17.938-15.694 17.566-17.191-.371-1.497-10.092 2.99-10.467 1.122 8.224-6.727 14.568-15.694 14.204-16.816-.364-1.122-8.224 2.24-8.596.747 8.221-5.605 13.454-12.332 12.704-13.079-.75-.747-6.352 1.868-7.098.364 4.483-2.99 10.463-8.595 10.463-9.717 0-1.122-5.233 1.497-5.605.364 4.484-3.737 7.845-7.849 7.845-8.595 0-.747-2.615.728-2.986-.365 3.726-2.986 5.966-7.841 5.966-7.841Z" fill="#406632"/><path d="M223.73 401.304c2.549.422.364 21.853 1.821 22.217 1.456.364 6.92-5.463 8.012-4.006 1.093 1.457-7.648 8.377-8.012 11.29-.365 2.914.728 3.278 1.821 2.55 1.092-.729 4.37-4.735 5.099-3.642.728 1.092-3.643 5.099-5.464 8.012-1.821 2.914-2.185 5.828-.364 5.099 1.821-.728 6.192-6.191 6.92-5.099.729 1.093-3.642 6.192-4.735 8.013-1.092 1.821-.728 3.642 1.093 2.185 1.821-1.456 12.747-10.562 13.84-9.833 1.093.728-2.549 5.827-5.827 9.105-3.278 3.278-10.562 8.013-11.291 10.562-.728 2.55-.364 4.007 1.457 2.55 1.821-1.457 14.204-9.47 14.933-8.377.728 1.092-4.007 6.556-7.285 9.105-3.277 2.55-7.648 7.284-8.012 9.106-.364 1.821-.729 2.913 3.278 1.092 4.006-1.821 9.833-4.37 14.204-6.556 4.37-2.185 5.827-5.099 6.556-4.37.728.728.728 2.913-2.55 5.827-3.278 2.914-11.29 8.377-11.29 9.106 0 .728 1.457.728 5.099 0 3.642-.729 6.92-1.822 7.284-1.457.364.364-3.642 5.463-9.105 8.012-5.464 2.55-8.377 4.007-7.285 6.92 1.093 2.914 5.099.365 8.741-1.456 3.642-1.821 6.92-4.735 7.649-4.007.728.729-6.556 8.013-5.828 8.377.729.364 3.278 0 7.649-2.549 4.37-2.55 6.556-4.371 6.92-3.278.364 1.092-1.093 4.735-5.828 7.648-4.734 2.914-11.654 6.556-11.654 7.649 0 1.092 1.457 2.549 6.191 1.092 4.735-1.456 9.834-4.734 10.198-3.642.364 1.093-4.735 5.828-8.377 7.649-3.642 1.821-6.191 2.549-6.191 3.278 0 .728 2.913 1.821 9.833 0s8.741-3.278 9.106-2.186c.364 1.093-3.642 6.921-9.834 7.649-6.192.728-9.105 1.093-9.469 1.457-.365.364-1.821 3.278-6.192 3.642-4.37.364-11.29-2.914-15.297-2.55-4.006.365-6.555 2.914-12.019 2.186-5.463-.729-4.37-2.186-7.648-2.186-3.278 0-21.488-2.549-21.488-4.006 0-1.457 19.667-1.821 21.488-2.549 1.821-.729.364-2.186-2.914-3.278-3.277-1.093-24.037-12.748-23.673-14.569.364-1.821 9.834 2.55 16.025 4.371 6.192 1.821 9.469 3.278 10.198 2.185.728-1.093-2.914-2.185-8.741-5.828-5.827-3.642-10.562-6.555-9.47-7.648 1.093-1.093 6.92 2.549 12.384 4.735 5.463 2.185 6.555 2.185 6.919 1.092.365-1.092-8.376-6.92-7.648-7.648.729-.729 6.556 2.185 9.47 3.278 2.913 1.092 4.37 1.821 4.734.364.364-1.457-5.463-4.006-10.562-6.192-5.099-2.185-14.568-8.377-14.204-10.198.364-1.821 7.648 2.55 12.383 4.371 4.735 1.821 6.92 2.549 6.92 1.093 0-1.457-3.642-4.735-7.284-7.285-3.642-2.549-6.556-5.099-6.192-6.191.365-1.093 10.198 4.37 11.291 2.913 1.092-1.456-1.093-2.913-4.735-7.648-3.642-4.735-4.37-6.556-3.642-7.284.729-.729 17.482 14.204 18.939 14.568 1.457.364 1.821-2.185.364-3.642-1.457-1.457-13.476-11.291-12.747-12.019.728-.729 8.741 5.463 10.198 4.735 1.456-.729-7.649-9.106-6.92-9.834.728-.729 12.019 8.741 13.111 8.013 1.093-.729 1.821-2.914-.364-5.099-2.185-2.186-15.297-14.569-14.204-15.297 1.092-.729 14.204 8.377 15.661 9.833 1.457 1.457.728-4.37-.729-6.555-1.456-2.186-8.741-6.192-7.648-6.556 1.093-.365 7.284.728 9.105 1.821 1.821 1.092 3.278-.364 2.185-3.278-1.092-2.914-10.926-14.569-10.562-15.297.365-.729 9.47 8.013 10.562 7.648 1.093-.364 1.457-19.667 3.643-19.303ZM46.358 50.2s2.914 5.827 6.556 8.012c0 .728-4.006-1.457-4.37-.729-.365.729 6.191 7.649 8.74 9.106-.728 1.093-5.098-1.457-5.463-.728-.364.728 6.192 7.284 9.47 9.469-1.457 1.457-7.284-2.185-7.649-1.457-.364.729 10.198 13.112 13.476 14.569-.364 1.092-8.012-2.185-8.377-1.457-.364.728 9.834 14.569 13.112 16.754-.729 1.457-7.649-3.278-8.377-1.821-.728 1.457 12.383 15.661 15.661 17.482-.728 1.093-12.019-2.549-12.383-1.457-.364 1.093 11.29 16.026 16.39 18.575-.365 1.457-11.655-3.642-12.384-2.185-.728 1.457 14.204 15.661 18.939 18.211 0 1.821-18.21-2.914-18.575-1.821-.364 1.092 14.205 11.654 18.575 13.84 0 1.457-39.699-5.099-42.248-5.099-2.55 0-44.07 5.827-45.162 4.37 8.013-2.913 19.667-10.926 19.303-12.383-.364-1.457-18.575 3.278-19.303 1.457 10.198-6.192 21.488-16.754 20.76-17.847-.729-1.092-13.112 3.278-13.476 1.457 11.29-8.013 17.118-17.482 16.754-18.575-.364-1.092-12.383 3.642-13.112 1.457 11.29-8.377 17.482-15.297 17.118-16.754-.364-1.457-9.833 2.914-10.198 1.093 8.013-6.556 14.204-15.297 13.84-16.39-.364-1.093-8.012 2.185-8.377.729 8.013-5.464 13.112-12.02 12.383-12.748-.728-.728-6.191 1.821-6.92.364 4.371-2.913 10.198-8.377 10.198-9.47 0-1.092-5.099 1.457-5.463.365 4.37-3.642 7.649-7.649 7.649-8.377 0-.729-2.55.728-2.914-.364 3.642-2.914 5.827-7.649 5.827-7.649ZM158.349 167.896c-2.608.433-.364 22.421-1.869 22.796-1.504.375-7.102-5.605-8.223-4.112-1.122 1.493 7.848 8.596 8.223 11.586.376 2.99-.75 3.365-1.868 2.615s-4.487-4.859-5.234-3.737c-.746 1.122 3.737 5.234 5.605 8.224 1.869 2.99 2.244 5.98.365 5.23-1.88-.75-6.356-6.352-7.102-5.23-.747 1.122 3.736 6.352 4.858 8.22 1.122 1.869.729 3.737-1.122 2.244-1.85-1.493-13.078-10.839-14.204-10.092-1.125.746 2.615 5.98 5.981 9.345 3.365 3.366 10.838 8.221 11.585 10.836.747 2.615.364 4.112-1.497 2.618-1.861-1.493-14.568-9.717-15.322-8.595-.754 1.122 4.112 6.727 7.473 9.342 3.362 2.615 7.849 7.474 8.224 9.342.375 1.869.729 2.99-3.365 1.122-4.094-1.869-10.089-4.484-14.568-6.727-4.48-2.244-5.981-5.234-6.727-4.484-.747.751-.751 2.987 2.615 5.977 3.365 2.99 11.585 8.596 11.585 9.346s-1.497.747-5.233 0c-3.737-.747-7.099-1.868-7.474-1.497s3.737 5.605 9.342 8.224c5.605 2.619 8.595 4.108 7.477 7.098-1.118 2.991-5.233.365-8.97-1.493-3.737-1.857-7.102-4.858-7.849-4.112-.747.747 6.727 8.221 5.98 8.596-.746.375-3.365 0-7.848-2.615-4.484-2.615-6.727-4.488-7.102-3.366-.376 1.122 1.121 4.859 5.98 7.849 4.858 2.99 11.96 6.727 11.96 7.849 0 1.122-1.496 2.615-6.355 1.122-4.859-1.494-10.089-4.859-10.464-3.737-.375 1.122 4.859 5.977 8.596 7.845 3.736 1.868 6.355 2.619 6.355 3.365 0 .747-2.99 1.869-10.092 0-7.102-1.868-8.967-3.365-9.342-2.243-.375 1.122 3.737 7.102 10.088 7.849 6.352.746 9.346 1.121 9.718 1.497.371.375 1.868 3.361 6.355 3.736 4.487.376 11.585-2.99 15.694-2.618 4.108.371 6.727 2.99 12.332 2.243 5.605-.746 4.487-2.243 7.848-2.243 3.362 0 22.05-2.615 22.05-4.109 0-1.493-20.181-1.868-22.05-2.618-1.868-.751-.364-2.24 2.991-3.362 3.354-1.122 24.664-13.079 24.292-14.951-.371-1.872-10.092 2.619-16.444 4.487-6.351 1.869-9.717 3.362-10.463 2.24-.747-1.122 2.99-2.24 8.966-5.977 5.977-3.737 10.839-6.727 9.718-7.849-1.122-1.121-7.099 2.616-12.704 4.859-5.605 2.244-6.727 2.24-7.102 1.122s8.595-7.102 7.849-7.849c-.747-.747-6.727 2.244-9.717 3.362-2.991 1.118-4.484 1.868-4.859.364s5.605-4.112 10.839-6.352c5.233-2.24 14.932-8.595 14.568-10.468-.364-1.872-7.849 2.619-12.707 4.488-4.859 1.868-7.102 2.615-7.102 1.121 0-1.493 3.737-4.858 7.473-7.477 3.737-2.619 6.727-5.23 6.356-6.352-.372-1.122-10.464 4.484-11.586 2.99-1.121-1.493 1.122-2.99 4.859-7.848 3.737-4.859 4.483-6.728 3.737-7.474-.747-.747-17.938 14.568-19.434 14.933-1.497.364-1.869-2.24-.365-3.737 1.504-1.497 13.84-11.586 13.079-12.332-.761-.747-8.97 5.605-10.464 4.858-1.493-.747 7.849-9.342 7.099-10.089-.751-.746-12.332 8.967-13.454 8.221-1.122-.747-1.869-2.991.364-5.234 2.233-2.244 15.697-14.933 14.568-15.694-1.129-.761-14.568 8.595-16.068 10.089-1.501 1.493-.751-4.484.746-6.727 1.497-2.244 8.967-6.352 7.849-6.727-1.118-.376-7.477.75-9.346 1.868-1.868 1.118-3.361-.364-2.24-3.362 1.122-2.997 11.211-14.933 10.836-15.697-.376-.765-9.714 8.224-10.836 7.848-1.121-.375-1.482-20.155-3.707-19.78ZM48.015 196.68c-4.123.226-1.73 19.136-7.608 30.594-5.879 11.458-5.871 14.077-11.655 18.327 1.337 3.959 10.926-.091 10.926-.091s-4.137 10.424-15.224 14.692c.915 3.643 12.169 3.129 12.169 3.129s-4.932 10.165-14.12 11.888c.91 3.642 13.384 3.708 13.384 3.708s-5.675 10.271-12.853 12.835c1.76 4.276 12.168 3.128 12.168 3.128s-5.736 7.259-14.339 10.409c.758 5.176 24.37 1.341 24.37 1.341s-.143 4.174-2.463 6.403c2.55 1.894 18.724-11.429 18.724-11.429s7.864 12.445 11.932 11.851c-.171-3.755-.47-13.53-.47-13.53s14.466 11.101 17.482 8.377c-3.664-4.371-5.747-10.869-5.747-10.869s14.08 5.872 16.181 2.164c-5.35-2.994-12.51-10.632-12.51-10.632s14.568-1.005 13.986-5.069c-9.677-1.607-17.045-8.082-17.045-8.082s9.353-.612 9.495-4.79c-8.993-2.083-16.794-11.513-16.794-11.513s11.84.907 11.986-3.278c-7.94-2.615-15.253-8.719-15.253-8.719s9.298-.987 8.65-5.423c-11.954-1.65-18.21-8.286-18.21-8.286s10.784 1.457 10.46-.776c-3.967-1.307-13.873-7.033-17.978-17.009-4.104-9.975-5.521-19.576-9.644-19.35Z" fill="#305937"/><path d="M40.18 286.717c2.645-.044 4.4 21.991 5.938 22.09 1.536.098 5.976-6.793 7.35-5.522 1.372 1.271-6.192 9.867-6.007 12.875.186 3.008 1.337 3.172 2.306 2.236.969-.936 3.54-5.587 4.476-4.618.936.969-2.735 5.827-4.035 9.105-1.3 3.278-1.133 6.283.571 5.212 1.705-1.07 5.1-7.39 6.046-6.421.947.969-2.55 6.92-3.303 8.96-.754 2.04-.062 3.81 1.508 2.003 1.57-1.806 10.926-13.01 12.153-12.478 1.228.532-1.497 6.352-4.203 10.267-2.706 3.916-9.181 10.034-9.447 12.748-.266 2.713.364 4.108 1.941 2.305 1.577-1.803 12.59-12.179 13.527-11.21.936.969-2.834 7.357-5.671 10.533-2.837 3.176-6.377 8.763-6.41 10.668-.033 1.905-.197 3.077 3.51.499 3.708-2.579 9.106-6.225 13.112-9.237 4.007-3.012 4.943-6.221 5.828-5.62.885.601 1.27 2.808-1.5 6.352-2.773 3.544-9.835 10.537-9.718 11.273.117.735 1.606.466 5.146-.94s6.65-3.114 7.088-2.815c.437.298-2.67 6.191-7.714 9.768-5.044 3.576-7.718 5.591-6.079 8.33 1.64 2.738 5.216-.572 8.555-3.085 3.34-2.513 6.112-6.054 6.982-5.464.87.59-5.139 9.295-4.337 9.528.8.233 3.31-.601 7.251-3.981 3.94-3.38 5.827-5.623 6.38-4.585.554 1.038-.229 4.979-4.472 8.796-4.243 3.817-10.562 8.766-10.354 9.866.208 1.1 1.941 2.306 6.45-.036 4.51-2.342 9.054-6.592 9.623-5.558.568 1.034-3.704 6.756-7.044 9.266-3.34 2.509-5.78 3.715-5.645 4.45.134.736 3.277 1.301 9.924-1.821 6.647-3.121 8.22-4.92 8.788-3.886.569 1.034-2.4 7.649-8.515 9.535-6.115 1.887-8.988 2.783-9.29 3.216-.303.434-1.232 3.642-5.577 4.819-4.345 1.176-11.935-.86-15.912.247-3.977 1.108-6.078 4.149-11.727 4.422-5.65.273-4.815-1.399-8.126-.794-3.31.605-22.158 1.388-22.428-.084-.27-1.471 19.518-5.463 21.223-6.534 1.704-1.071-.037-2.272-3.548-2.771-3.51-.499-26.612-8.436-26.587-10.34.026-1.905 10.398.761 16.983 1.456 6.585.696 10.162 1.563 10.697.324.535-1.238-3.344-1.668-9.9-4.268-6.555-2.601-11.869-4.669-10.966-5.977.904-1.307 7.456 1.3 13.37 2.499 5.915 1.198 7.022.994 7.186-.175.164-1.169-9.731-5.442-9.13-6.308.6-.867 7.021.994 10.165 1.562 3.143.568 4.734 1.031 4.847-.506.113-1.537-6.253-3.038-11.804-4.302-5.55-1.263-16.25-5.769-16.218-7.673.033-1.905 8.191 1.161 13.305 2.126 5.113.966 7.455 1.297 7.185-.174-.27-1.472-4.549-4.109-8.693-6.01-4.145-1.901-7.558-3.937-7.394-5.099.164-1.162 11.101 2.531 11.935.86.835-1.672-1.642-2.743-6.191-6.848-4.55-4.104-5.62-5.827-5.019-6.683.601-.856 20.265 11.116 21.805 11.214 1.54.099 1.435-2.549-.306-3.744-1.74-1.195-15.682-8.912-15.081-9.779.6-.867 9.833 3.901 11.166 2.914 1.333-.987-9.4-7.78-8.8-8.65.602-.871 13.746 6.606 14.715 5.67.969-.936 1.3-3.278-1.311-5.077-2.612-1.799-18.127-11.888-17.158-12.824.969-.936 15.883 5.828 17.624 7.041 1.74 1.212-.073-4.55-1.945-6.484-1.872-1.933-9.965-4.64-8.93-5.208 1.034-.568 7.488-.608 9.527.16 2.04.769 3.242-.972 1.6-3.711-1.643-2.739-13.713-12.693-13.476-13.476.236-.783 11.035 6.341 12.07 5.773 1.034-.568-2.157-20.152.116-20.192Z" fill="#305937"/><path d="M128.613 244.615s2.99 5.977 6.727 8.221c0 .728-4.109-1.494-4.484-.747s6.352 7.849 8.971 9.342c-.751 1.122-5.234-1.493-5.605-.747-.372.747 6.351 7.474 9.713 9.718-1.493 1.493-7.474-2.244-7.845-1.497-.372.746 10.464 13.454 13.84 14.951-.364 1.118-8.22-2.244-8.595-1.497-.376.746 10.092 14.933 13.453 17.191-.746 1.497-7.848-3.362-8.595-1.869-.747 1.494 12.707 16.069 16.069 17.938-.747 1.122-12.332-2.615-12.704-1.493-.371 1.121 11.582 16.444 16.816 19.059-.364 1.497-11.961-3.737-12.707-2.244-.747 1.494 14.568 16.073 19.434 18.688 0 1.869-18.688-2.99-19.059-1.868-.372 1.122 14.568 11.957 19.059 14.204 0 1.497-40.737-5.23-43.341-5.23-2.604 0-45.22 5.977-46.338 4.484 8.22-2.991 20.177-11.211 19.805-12.708-.371-1.497-19.059 3.365-19.805 1.497 10.464-6.356 22.049-17.191 21.299-18.313-.751-1.121-13.454 3.362-13.84 1.494 11.585-8.221 17.562-17.938 17.19-19.06-.371-1.122-12.707 3.737-13.453 1.494 11.585-8.596 17.937-15.694 17.565-17.191-.371-1.497-10.092 2.99-10.467 1.121 8.224-6.727 14.568-15.694 14.204-16.815-.364-1.122-8.224 2.24-8.595.746 8.22-5.605 13.454-12.332 12.703-13.079-.75-.746-6.351 1.869-7.098.365 4.483-2.991 10.464-8.596 10.464-9.718 0-1.122-5.234 1.497-5.606.364 4.484-3.736 7.846-7.848 7.846-8.595 0-.747-2.615.728-2.987-.364 3.726-2.987 5.966-7.842 5.966-7.842ZM48.764 354.163s2.032 6.101 7.116 9.149c5.084 3.049 7.117 4.068 6.1 5.099-1.015 1.031-2.549-1.526-3.558-.51-1.008 1.016 1.017 2.036 0 3.052-1.016 1.017-2.036-1.016-3.052 0-1.016 1.017 4.069 6.101 6.1 7.117 2.033 1.016 4.069 2.033 4.069 3.049s-3.052 1.016-4.068 0c-1.016-1.016-2.032-3.049-3.049-2.033-1.016 1.017 0 2.033-1.016 2.033s-1.02-1.016-2.036 0 2.036 4.068 4.069 5.099c2.032 1.03 10.926 3.066 11.184 5.099.197 1.504-2.418 1.504-3.54 1.504-1.121 0-1.121.364-.746 1.497s-.365 1.868-1.869 1.868-4.112-2.615-5.234-2.615c-1.121 0-1.493 1.118-.728 2.24.765 1.122 10.839 8.224 14.95 10.464 4.113 2.24 8.221 4.112 8.596 5.609.375 1.497-3.737 1.868-4.858 1.493-1.122-.375-1.869-.746-2.244-.364-.375.382-.364 2.244-2.99 2.244-2.626 0-4.483-2.616-4.859-2.616-.375 0-.364 2.24-1.868 2.24s-2.24-1.868-2.99-1.868-1.122.75-.364 2.619c.757 1.868 12.703 12.703 17.562 15.694 4.858 2.99 11.214 3.737 11.585 4.487.372.75-.364 2.615-5.23 2.986-4.866.372-6.727-1.118-7.102-1.493s-.728 0-.728 1.122 0 1.493-1.497 1.493-2.987-2.99-3.362-2.615 0 1.869-1.121 2.99c-1.122 1.122-2.615-.364-3.362-.364-.747 0-1.122.75-.75 1.497.371.747 6.726 10.089 14.95 16.069 8.224 5.981 18.313 8.22 18.313 8.971 0 .75-2.244 2.615-5.234 2.615-2.99 0-4.483 0-4.483.364s-.747 2.987-2.99 2.615c-2.244-.371-7.474-3.365-8.22-3.365-.747 0 .364 3.737-2.244 4.112s-4.112-2.99-4.484-2.99c-.371 0 .729 3.736-2.243 3.365-2.972-.372-6.352-5.234-7.102-5.234s.75 2.99-.729 3.365c-1.478.376-5.98-2.618-6.727-2.618-.746 0-.364 4.487-2.615 4.112-2.25-.375-3.365-3.362-5.233-3.362-1.869 0-3.362 2.987-4.859 2.987-1.497 0-.364-3.362-1.868-3.737s-3.362 2.618-5.977 2.618-.75-3.365-2.618-3.74c-1.869-.375-5.23 3.365-7.099 3.365-1.868 0-.728-2.99-2.243-3.365s-4.112 4.112-5.98 4.112c-1.87 0 .363-4.112-.73-4.112-1.092 0-4.482 2.619-6.726 2.619-2.244 0-1.122-3.737-2.244-3.737-1.121 0-2.24 2.24-5.23 1.868-2.99-.371-3.736-1.497-2.99-2.243.747-.747 11.96-7.849 20.181-15.698 8.22-7.849 9.342-10.835 8.595-11.957-.746-1.122-2.615 1.868-4.112 1.493-1.496-.375.75-3.362-.364-3.737-1.114-.375-3.737 3.366-6.727 3.366s-1.868-1.869-1.868-2.619c0-.75-5.609.75-5.98-.728-.372-1.479 10.463-4.484 17.565-9.718 7.102-5.234 9.342-13.079 9.342-14.204 0-1.126-1.868-.747-2.615 0-.746.747-4.858 2.615-5.609 2.615-.75 0-1.118-1.868-1.493-1.868s-1.122 1.868-3.365 1.868c-2.244 0-1.493-1.493-2.24-1.868-.747-.376-2.615 0-4.487-.365-1.872-.364-1.493-1.121 0-1.497 1.493-.375 8.224-2.99 14.933-8.595 6.708-5.605 7.848-8.22 7.473-8.967-.375-.747-3.737 1.118-4.483 1.118-.747 0-1.122-1.493-1.497-1.493s-2.615 1.493-3.362 1.122c-.746-.372.747-2.244.364-2.615-.382-.372-4.854.728-4.483-.365.372-1.092 4.483-1.121 8.595-3.737 4.112-2.615 8.224-7.102 7.849-7.848-.375-.747-2.615 1.868-3.737 1.497-1.122-.372-1.122-1.122-1.497-.751-.375.372-.728 1.122-1.493 1.122-.765 0 .364-1.493-.728-1.122-1.093.372-2.619.751-2.619 0 0-.75 2.244-1.868 6.727-5.605 4.483-3.737 3.74-7.098 3.74-7.098s-2.618 1.493-3.365 1.118c-.747-.376 0-1.494-.728-1.494-.729 0-3.366.365-2.99-.364.375-.728 2.99.364 7.473-4.483 4.483-4.848 4.367-8.567 5.5-8.443ZM46.304 500.293s2.99 5.977 6.727 8.22c0 .729-4.108-1.493-4.483-.746-.375.746 6.352 7.848 8.97 9.342-.75 1.122-5.233-1.494-5.605-.747-.371.747 6.352 7.474 9.713 9.717-1.493 1.494-7.473-2.243-7.845-1.497-.371.747 10.464 13.455 13.84 14.951-.364 1.119-8.22-2.243-8.595-1.496-.375.746 10.092 14.932 13.454 17.191-.747 1.496-7.849-3.362-8.596-1.869-.746 1.493 12.708 16.069 16.07 17.938-.747 1.121-12.333-2.615-12.704-1.494-.372 1.122 11.582 16.445 16.815 19.06-.364 1.497-11.96-3.737-12.707-2.244-.747 1.493 14.568 16.073 19.434 18.688 0 1.868-18.687-2.99-19.059-1.868-.371 1.121 14.569 11.957 19.06 14.204 0 1.497-40.738-5.23-43.342-5.23-2.604 0-45.22 5.977-46.338 4.483 8.22-2.99 20.177-11.21 19.806-12.707-.372-1.497-19.06 3.365-19.806 1.497 10.464-6.356 22.05-17.191 21.3-18.313-.751-1.122-13.455 3.362-13.84 1.493 11.585-8.22 17.561-17.937 17.19-19.059-.372-1.122-12.707 3.737-13.454 1.493 11.586-8.595 17.937-15.694 17.566-17.191-.372-1.497-10.092 2.991-10.468 1.122 8.224-6.727 14.569-15.694 14.205-16.816-.365-1.121-8.224 2.24-8.596.747 8.22-5.605 13.454-12.332 12.704-13.079-.75-.747-6.352 1.868-7.099.364 4.484-2.99 10.464-8.595 10.464-9.717 0-1.122-5.234 1.497-5.605.364 4.483-3.737 7.845-7.849 7.845-8.595 0-.747-2.615.728-2.986-.364 3.725-2.987 5.965-7.842 5.965-7.842Z" fill="#305937"/><path d="M108.276 41.457s2.914 5.828 6.556 8.013c0 .728-4.006-1.457-4.371-.729-.364.729 6.192 7.649 8.741 9.106-.728 1.092-5.098-1.457-5.463-.729-.364.729 6.192 7.285 9.47 9.47-1.457 1.457-7.284-2.185-7.649-1.457-.364.728 10.198 13.112 13.476 14.569-.364 1.092-8.013-2.186-8.377-1.457-.364.728 9.834 14.568 13.112 16.754-.729 1.457-7.649-3.278-8.377-1.822-.728 1.457 12.383 15.662 15.661 17.483-.728 1.093-12.019-2.55-12.383-1.457-.364 1.093 11.29 16.025 16.389 18.575-.364 1.457-11.654-3.642-12.383-2.185-.728 1.457 14.204 15.661 18.939 18.21 0 1.821-18.21-2.913-18.575-1.821-.364 1.093 14.204 11.655 18.575 13.841 0 1.456-39.699-5.1-42.248-5.1-2.55 0-44.07 5.828-45.162 4.371 8.013-2.914 19.667-10.926 19.303-12.383-.364-1.457-18.575 3.278-19.303 1.457 10.198-6.192 21.488-16.754 20.76-17.847-.728-1.093-13.112 3.278-13.476 1.457 11.29-8.013 17.118-17.482 16.754-18.575-.364-1.093-12.383 3.642-13.112 1.457 11.29-8.377 17.482-15.297 17.118-16.754-.364-1.457-9.834 2.914-10.198 1.093 8.013-6.556 14.204-15.297 13.84-16.39-.364-1.093-8.012 2.185-8.377.728 8.013-5.463 13.112-12.019 12.383-12.747-.728-.729-6.191 1.82-6.92.364 4.371-2.914 10.198-8.377 10.198-9.47 0-1.092-5.099 1.457-5.463.365 4.371-3.642 7.649-7.649 7.649-8.377 0-.729-2.55.728-2.914-.364 3.642-2.914 5.827-7.649 5.827-7.649Z" fill="#45684A"/><path d="M245.643 122.524s-2.032 6.101-7.116 9.15c-5.085 3.048-7.117 4.068-6.101 5.099 1.016 1.03 2.55-1.526 3.559-.51 1.009 1.016-1.016 2.036 0 3.052s2.032-1.016 3.048 0-4.064 6.1-6.097 7.117c-2.032 1.016-4.068 2.032-4.068 3.048s3.048 1.016 4.068 0c1.02-1.016 2.033-3.048 3.049-2.032s0 2.032 1.016 2.032 1.016-1.016 2.032 0-2.032 4.068-4.064 5.099c-2.033 1.031-10.927 3.067-11.185 5.099-.201 1.504 2.418 1.504 3.54 1.504 1.122 0 1.118.364.728 1.497-.39 1.133.364 1.869 1.869 1.869 1.504 0 4.112-2.615 5.23-2.615 1.118 0 1.497 1.118.75 2.239-.747 1.122-10.839 8.224-14.951 10.464s-8.22 4.112-8.595 5.609c-.375 1.497 3.737 1.869 4.858 1.493 1.122-.375 1.869-.746 2.244-.364.375.383.364 2.244 2.99 2.244 2.626 0 4.483-2.615 4.859-2.615.375 0 .364 2.24 1.868 2.24s2.24-1.869 2.986-1.869c.747 0 1.122.751.365 2.619-.758 1.868-12.708 12.704-17.566 15.694-4.859 2.99-11.21 3.737-11.582 4.487-.371.75.364 2.615 5.23 2.987 4.866.371 6.727-1.118 7.102-1.494.375-.375.729 0 .729 1.122s0 1.494 1.493 1.494 2.99-2.991 3.365-2.616c.375.376 0 1.869 1.122 2.991 1.122 1.121 2.615-.365 3.362-.365.746 0 1.121.751.746 1.497-.375.747-6.727 10.089-14.932 16.07-8.206 5.98-18.313 8.22-18.313 8.97s2.244 2.615 5.234 2.615c2.99 0 4.483 0 4.483.364 0 .365.747 2.987 2.991 2.615 2.243-.371 7.473-3.365 8.22-3.365.746 0-.365 3.737 2.243 4.112 2.608.375 4.112-2.99 4.484-2.99.371 0-.729 3.737 2.243 3.365 2.972-.371 6.352-5.234 7.099-5.234.746 0-.729 2.991.75 3.366s5.976-2.619 6.727-2.619c.75 0 .364 4.487 2.615 4.112 2.251-.375 3.361-3.362 5.23-3.362 1.868 0 3.365 2.987 4.858 2.987 1.494 0 .365-3.362 1.869-3.737s3.365 2.619 5.98 2.619.747-3.366 2.615-3.741c1.868-.375 5.234 3.366 7.102 3.366 1.868 0 .747-2.991 2.244-3.366 1.496-.375 4.108 4.112 5.976 4.112 1.869 0-.364-4.112.751-4.112 1.114 0 4.483 2.619 6.726 2.619 2.244 0 1.122-3.737 2.24-3.737s2.244 2.24 5.234 1.869c2.99-.372 3.737-1.497 2.99-2.244-.747-.747-11.96-7.849-20.181-15.698-8.22-7.848-9.342-10.835-8.595-11.957.747-1.122 2.615 1.869 4.108 1.494 1.494-.376-.746-3.362.365-3.737 1.11-.375 3.736 3.365 6.726 3.365 2.991 0 1.869-1.868 1.869-2.619 0-.75 5.605.751 5.98-.728s-10.464-4.484-17.566-9.717c-7.102-5.234-9.342-13.079-9.342-14.205 0-1.125 1.869-.746 2.615 0 .747.747 4.859 2.615 5.606 2.615.746 0 1.121-1.868 1.497-1.868.375 0 1.121 1.868 3.361 1.868s1.497-1.493 2.244-1.868c.746-.375 2.615 0 4.483-.364 1.868-.365 1.497-1.122 0-1.497s-8.22-2.99-14.932-8.596c-6.713-5.605-7.849-8.22-7.474-8.967.375-.746 3.737 1.118 4.483 1.118.747 0 1.122-1.493 1.494-1.493.371 0 2.618 1.493 3.365 1.122.747-.372-.747-2.244-.364-2.615.382-.372 4.858.728 4.487-.364-.372-1.093-4.487-1.122-8.596-3.737-4.108-2.615-8.223-7.102-7.848-7.849.375-.747 2.615 1.868 3.737 1.497 1.121-.372 1.121-1.122 1.493-.75.371.371.75 1.121 1.497 1.121.746 0-.365-1.493.728-1.121 1.093.371 2.615.75 2.615 0 0-.751-2.24-1.869-6.727-5.606-4.487-3.736-3.737-7.098-3.737-7.098s2.615 1.493 3.366 1.118c.75-.375 0-1.493.746-1.493.747 0 3.362.364 2.99-.365-.371-.728-2.99.365-7.473-4.483s-4.433-8.566-5.562-8.443Z" fill="#305937"/><path d="M210.586 490.461s-2.987 5.977-6.727 8.22c0 .729 4.112-1.493 4.487-.746.375.746-6.355 7.848-8.97 9.342.746 1.121 5.233-1.494 5.605-.747.371.747-6.352 7.474-9.717 9.717 1.497 1.494 7.477-2.243 7.848-1.497.372.747-10.463 13.455-13.84 14.951.365 1.119 8.221-2.243 8.596-1.497.375.747-10.092 14.933-13.454 17.191.747 1.497 7.849-3.361 8.595-1.868.747 1.493-12.707 16.069-16.069 17.938.747 1.121 12.332-2.615 12.704-1.494.371 1.122-11.586 16.445-16.816 19.06.365 1.497 11.957-3.737 12.708-2.244.75 1.493-14.569 16.073-19.434 18.688 0 1.868 18.683-2.99 19.059-1.868.375 1.121-14.569 11.957-19.059 14.204 0 1.497 40.733-5.23 43.34-5.23 2.608 0 45.217 5.977 46.338 4.483-8.22-2.99-20.18-11.21-19.805-12.707.375-1.497 19.059 3.365 19.805 1.497-10.463-6.356-22.049-17.191-21.302-18.313.747-1.122 13.454 3.362 13.84 1.493-11.586-8.22-17.566-17.937-17.191-19.059.375-1.122 12.707 3.737 13.454 1.493-11.585-8.595-17.937-15.694-17.566-17.191.372-1.497 10.093 2.99 10.464 1.122-8.22-6.727-14.568-15.694-14.204-16.816.364-1.122 8.224 2.24 8.595.747-8.22-5.605-13.454-12.332-12.707-13.079.747-.747 6.355 1.868 7.102.364-4.483-2.99-10.464-8.595-10.464-9.717 0-1.122 5.234 1.497 5.605.364-4.483-3.737-7.848-7.849-7.848-8.595 0-.747 2.619.728 2.99-.365-3.719-2.986-5.962-7.841-5.962-7.841Z" fill="#45684A"/><path d="M104.127 497.304s2.032 6.1 7.116 9.149c5.085 3.048 7.117 4.068 6.101 5.099-1.016 1.031-2.55-1.526-3.558-.51-1.009 1.016 1.016 2.036 0 3.052-1.017 1.016-2.036-1.016-3.052 0-1.017 1.016 4.068 6.101 6.1 7.117s4.068 2.032 4.068 3.048-3.052 1.016-4.068 0c-1.016-1.016-2.032-3.048-3.048-2.032-1.017 1.016 0 2.032-1.016 2.032-1.017 0-1.02-1.016-2.036 0-1.017 1.016 2.035 4.069 4.068 5.099 2.032 1.031 10.926 3.067 11.185 5.099.196 1.505-2.419 1.505-3.541 1.505-1.121 0-1.121.364-.728 1.496.393 1.133-.364 1.869-1.868 1.869s-4.112-2.615-5.234-2.615c-1.122 0-1.493 1.118-.747 2.24.747 1.121 10.839 8.224 14.951 10.464s8.22 4.112 8.595 5.609c.376 1.496-3.736 1.868-4.858 1.493-1.122-.375-1.868-.747-2.244-.364-.375.382-.364 2.243-2.99 2.243-2.626 0-4.483-2.615-4.858-2.615s-.364 2.24-1.869 2.24c-1.504 0-2.24-1.868-2.99-1.868s-1.122.75-.364 2.618c.758 1.869 12.704 12.704 17.562 15.694 4.859 2.991 11.214 3.737 11.586 4.487.371.751-.365 2.615-5.23 2.987-4.866.371-6.727-1.118-7.103-1.493-.375-.375-.728 0-.728 1.121 0 1.122 0 1.494-1.497 1.494s-2.986-2.99-3.362-2.615c-.375.375.001 1.868-1.121 2.99-1.122 1.122-2.615-.364-3.362-.364-.747 0-1.122.75-.75 1.497.371.746 6.727 10.088 14.951 16.069 8.223 5.98 18.312 8.22 18.312 8.97 0 .751-2.244 2.616-5.234 2.616-2.99 0-4.483 0-4.483.364s-.747 2.986-2.99 2.615c-2.244-.372-7.474-3.366-8.22-3.366-.747 0 .364 3.737-2.244 4.112-2.608.376-4.112-2.99-4.483-2.99-.372 0 .728 3.737-2.244 3.366-2.972-.372-6.352-5.234-7.102-5.234s.75 2.99-.728 3.365c-1.479.375-5.981-2.619-6.727-2.619-.747 0-.365 4.488-2.615 4.112-2.251-.375-3.366-3.361-5.234-3.361-1.868 0-3.362 2.986-4.858 2.986-1.497 0-.365-3.361-1.869-3.737-1.504-.375-3.362 2.619-5.977 2.619s-.75-3.365-2.618-3.74c-1.869-.376-5.23 3.365-7.099 3.365-1.868 0-.746-2.99-2.243-3.365-1.497-.376-4.112 4.112-5.98 4.112-1.869 0 .364-4.112-.729-4.112-1.092 0-4.483 2.618-6.727 2.618-2.243 0-1.121-3.737-2.243-3.737-1.122 0-2.24 2.24-5.23 1.869-2.99-.372-3.737-1.497-2.99-2.244.746-.746 11.96-7.848 20.18-15.697 8.22-7.849 9.342-10.836 8.596-11.958-.747-1.121-2.615 1.869-4.112 1.494-1.497-.375.75-3.362-.364-3.737-1.115-.375-3.737 3.365-6.727 3.365s-1.869-1.868-1.869-2.618c0-.751-5.609.75-5.98-.729-.372-1.479 10.464-4.483 17.566-9.717 7.102-5.234 9.342-13.079 9.342-14.205 0-1.125-1.869-.746-2.615 0-.747.747-4.859 2.616-5.61 2.616-.75 0-1.117-1.869-1.492-1.869-.376 0-1.122 1.869-3.366 1.869-2.243 0-1.493-1.494-2.24-1.869-.746-.375-2.615 0-4.487-.364-1.872-.364-1.493-1.122 0-1.497s8.224-2.99 14.951-8.595c6.727-5.606 7.849-8.221 7.474-8.967-.376-.747-3.737 1.118-4.484 1.118-.746 0-1.121-1.494-1.497-1.494-.375 0-2.615 1.494-3.361 1.122-.747-.371.746-2.243.364-2.615-.383-.371-4.855.729-4.484-.364.372-1.093 4.484-1.122 8.596-3.737s8.224-7.102 7.848-7.849c-.375-.746-2.615 1.869-3.736 1.497-1.122-.371-1.122-1.122-1.497-.75-.375.371-.747 1.122-1.494 1.122-.746 0 .365-1.494-.728-1.122-1.093.371-2.618.75-2.618 0s2.243-1.868 6.726-5.605c4.484-3.737 3.74-7.099 3.74-7.099s-2.618 1.493-3.364 1.118c-.747-.375 0-1.493-.747-1.493s-3.365.364-2.99-.364c.375-.729 2.99.364 7.473-4.484 4.484-4.847 4.367-8.566 5.5-8.442ZM32.529 127.557c2.644-.044 4.4 21.991 5.936 22.089 1.537.099 5.977-6.792 7.35-5.521 1.373 1.271-6.192 9.866-6.006 12.875.186 3.008 1.337 3.172 2.306 2.236.968-.936 3.54-5.587 4.476-4.618.936.969-2.736 5.827-4.036 9.105-1.3 3.278-1.133 6.283.572 5.212 1.704-1.071 5.099-7.39 6.046-6.421.947.969-2.55 6.92-3.303 8.96-.754 2.039-.062 3.809 1.507 2.003 1.57-1.807 10.927-13.01 12.154-12.478 1.227.532-1.497 6.352-4.203 10.267-2.706 3.915-9.182 10.034-9.448 12.748-.266 2.713.365 4.108 1.942 2.305 1.577-1.803 12.59-12.179 13.526-11.21.936.968-2.833 7.357-5.67 10.533-2.838 3.176-6.378 8.763-6.41 10.668-.033 1.904-.197 3.077 3.51.499 3.708-2.579 9.106-6.225 13.112-9.237 4.006-3.012 4.942-6.221 5.827-5.62.885.601 1.271 2.808-1.5 6.352-2.772 3.544-9.834 10.537-9.717 11.273.116.735 1.606.466 5.146-.94s6.65-3.114 7.087-2.815c.438.298-2.67 6.191-7.714 9.768-5.044 3.576-7.717 5.59-6.078 8.329 1.639 2.739 5.215-.571 8.555-3.085 3.34-2.513 6.112-6.053 6.982-5.463.87.59-5.139 9.295-4.338 9.528.802.233 3.31-.601 7.252-3.981 3.94-3.38 5.827-5.623 6.38-4.585.554 1.038-.229 4.979-4.472 8.796-4.243 3.817-10.562 8.766-10.354 9.866.207 1.1 1.94 2.306 6.45-.036 4.509-2.342 9.054-6.593 9.622-5.558.568 1.034-3.704 6.756-7.044 9.265-3.34 2.51-5.78 3.715-5.645 4.451.135.736 3.278 1.3 9.925-1.821s8.22-4.92 8.788-3.886c.568 1.034-2.4 7.648-8.515 9.535-6.115 1.887-8.989 2.783-9.29 3.216-.303.433-1.232 3.642-5.577 4.819-4.345 1.176-11.935-.86-15.912.247-3.977 1.107-6.079 4.149-11.728 4.422-5.649.273-4.815-1.399-8.125-.794-3.31.604-22.159 1.388-22.428-.084-.27-1.471 19.518-5.463 21.222-6.534 1.705-1.071-.036-2.273-3.547-2.772-3.511-.499-26.613-8.435-26.587-10.34.025-1.904 10.398.762 16.983 1.457 6.585.696 10.161 1.563 10.697.324.535-1.238-3.344-1.668-9.9-4.268-6.555-2.601-11.87-4.669-10.966-5.977.903-1.308 7.455 1.3 13.37 2.498 5.915 1.199 7.022.995 7.186-.174.164-1.169-9.732-5.442-9.13-6.308.6-.867 7.021.994 10.164 1.562 3.143.568 4.735 1.031 4.848-.506.113-1.537-6.254-3.038-11.804-4.302-5.55-1.264-16.251-5.769-16.218-7.674.033-1.904 8.19 1.162 13.304 2.127 5.114.965 7.456 1.297 7.186-.175-.27-1.471-4.549-4.108-8.694-6.009-4.144-1.901-7.557-3.937-7.393-5.099.164-1.162 11.101 2.531 11.935.86.834-1.672-1.643-2.743-6.191-6.848-4.55-4.104-5.62-5.827-5.02-6.683.602-.856 20.265 11.116 21.806 11.214 1.54.098 1.435-2.549-.306-3.744-1.74-1.195-15.683-8.912-15.082-9.779.601-.867 9.834 3.901 11.167 2.914 1.333-.987-9.4-7.78-8.8-8.651.601-.87 13.746 6.607 14.714 5.671.97-.936 1.3-3.278-1.31-5.077-2.612-1.799-18.127-11.888-17.158-12.824.968-.936 15.883 5.828 17.623 7.04 1.741 1.213-.072-4.549-1.944-6.483-1.872-1.934-9.965-4.64-8.93-5.208 1.034-.568 7.487-.608 9.527.16 2.04.769 3.241-.972 1.599-3.711-1.643-2.739-13.713-12.693-13.476-13.476.237-.783 11.036 6.341 12.07 5.773 1.034-.568-2.156-20.152.117-20.192ZM75.445 377.551s2.99 5.977 6.727 8.22c0 .729-4.108-1.493-4.484-.747-.375.747 6.352 7.849 8.97 9.343-.75 1.121-5.233-1.494-5.604-.747-.372.747 6.351 7.474 9.713 9.717-1.493 1.493-7.474-2.243-7.845-1.497-.371.747 10.464 13.454 13.84 14.951-.364 1.118-8.22-2.243-8.595-1.497-.376.747 10.092 14.933 13.453 17.191-.746 1.497-7.848-3.361-8.595-1.868-.747 1.493 12.707 16.069 16.069 17.937-.747 1.122-12.332-2.615-12.703-1.493-.372 1.122 11.581 16.444 16.815 19.06-.364 1.496-11.961-3.737-12.707-2.244-.747 1.493 14.568 16.073 19.434 18.688 0 1.868-18.688-2.99-19.059-1.869-.372 1.122 14.568 11.958 19.059 14.205 0 1.497-40.737-5.23-43.34-5.23-2.605 0-45.221 5.976-46.34 4.483 8.221-2.99 20.178-11.21 19.806-12.707-.371-1.497-19.058 3.365-19.805 1.497 10.464-6.356 22.05-17.191 21.299-18.313-.75-1.122-13.454 3.362-13.84 1.493 11.585-8.22 17.562-17.937 17.19-19.059-.371-1.122-12.707 3.737-13.453 1.493 11.585-8.595 17.937-15.694 17.565-17.191-.371-1.497-10.092 2.99-10.467 1.122 8.224-6.727 14.568-15.694 14.204-16.816-.364-1.122-8.224 2.24-8.595.747 8.22-5.605 13.454-12.333 12.704-13.079-.75-.747-6.352 1.868-7.099.364 4.483-2.99 10.464-8.595 10.464-9.717 0-1.122-5.234 1.497-5.605.364 4.483-3.737 7.845-7.849 7.845-8.595 0-.747-2.615.728-2.987-.365 3.726-2.986 5.966-7.841 5.966-7.841Z" fill="#305937"/><path d="M205.121 225.676s-2.986 5.977-6.727 8.22c0 .729 4.112-1.493 4.487-.747.375.747-6.355 7.849-8.97 9.343.746 1.121 5.233-1.494 5.605-.747.371.747-6.352 7.474-9.717 9.717 1.497 1.493 7.477-2.243 7.848-1.497.372.747-10.463 13.454-13.839 14.951.364 1.118 8.22-2.243 8.595-1.497.375.747-10.092 14.933-13.454 17.191.747 1.497 7.849-3.361 8.595-1.868.747 1.493-12.707 16.069-16.068 17.937.746 1.122 12.332-2.615 12.703-1.493.372 1.122-11.585 16.444-16.815 19.06.364 1.496 11.957-3.737 12.707-2.244.75 1.493-14.568 16.073-19.434 18.688 0 1.868 18.684-2.99 19.059-1.869.375 1.122-14.569 11.958-19.059 14.205 0 1.497 40.733-5.23 43.34-5.23 2.608 0 45.217 5.976 46.339 4.483-8.221-2.99-20.181-11.21-19.806-12.707.375-1.497 19.059 3.365 19.806 1.497-10.464-6.356-22.05-17.191-21.303-18.313.747-1.122 13.454 3.362 13.84 1.493-11.585-8.22-17.566-17.937-17.191-19.059.376-1.122 12.708 3.737 13.454 1.493-11.585-8.595-17.937-15.694-17.565-17.191.371-1.497 10.092 2.99 10.463 1.122-8.22-6.727-14.568-15.694-14.204-16.816.364-1.122 8.224 2.24 8.595.747-8.22-5.605-13.453-12.333-12.707-13.079.747-.747 6.356 1.868 7.102.364-4.483-2.99-10.463-8.595-10.463-9.717 0-1.122 5.233 1.497 5.605.364-4.484-3.737-7.849-7.849-7.849-8.595 0-.747 2.619.728 2.99-.365-3.718-2.986-5.962-7.841-5.962-7.841Z" fill="#45684A"/><path d="M191.76 323.791c4.123.226 1.73 19.136 7.608 30.594 5.878 11.458 5.867 14.077 11.655 18.327-1.337 3.959-10.927-.091-10.927-.091s4.138 10.424 15.221 14.693c-.911 3.642-12.165 3.128-12.165 3.128s4.932 10.166 14.12 11.888c-.91 3.643-13.384 3.708-13.384 3.708s5.671 10.271 12.849 12.835c-1.759 4.276-12.164 3.129-12.164 3.129s5.732 7.258 14.338 10.409c-.757 5.175-24.369 1.34-24.369 1.34s.142 4.174 2.462 6.403c-2.549 1.894-18.724-11.429-18.724-11.429s-7.867 12.445-11.931 11.852c.171-3.755.47-13.531.47-13.531s-14.47 11.101-17.482 8.377c3.66-4.371 5.747-10.868 5.747-10.868s-14.08 5.871-16.182 2.163c5.35-2.994 12.511-10.631 12.511-10.631s-14.569-1.006-13.986-5.07c9.677-1.606 17.045-8.082 17.045-8.082s-9.353-.612-9.495-4.789c8.993-2.084 16.794-11.513 16.794-11.513s-11.841.907-11.986-3.278c7.936-2.615 15.253-8.72 15.253-8.72s-9.298-.987-8.65-5.423c11.95-1.65 18.21-8.286 18.21-8.286s-10.788 1.457-10.46-.775c3.966-1.308 13.869-7.033 17.977-17.009 4.109-9.976 5.522-19.577 9.645-19.351Z" fill="#406632"/><path d="M131.218 355.047s2.913 5.827 6.555 8.013c0 .728-4.006-1.457-4.37-.729-.364.729 6.191 7.649 8.741 9.106-.729 1.092-5.099-1.457-5.463-.729-.364.729 6.191 7.284 9.469 9.47-1.457 1.457-7.284-2.186-7.648-1.457-.364.728 10.198 13.112 13.475 14.568-.364 1.093-8.012-2.185-8.376-1.456-.365.728 9.833 14.568 13.111 16.753-.728 1.457-7.648-3.277-8.377-1.821-.728 1.457 12.383 15.662 15.661 17.483-.728 1.092-12.019-2.55-12.383-1.457-.364 1.092 11.291 16.025 16.39 18.575-.365 1.457-11.655-3.642-12.383-2.185-.729 1.456 14.204 15.661 18.938 18.21 0 1.821-18.21-2.913-18.574-1.821-.364 1.093 14.204 11.655 18.574 13.84 0 1.457-39.698-5.099-42.248-5.099-2.549 0-44.069 5.828-45.162 4.371 8.013-2.914 19.668-10.927 19.303-12.383-.364-1.457-18.574 3.278-19.303 1.456 10.198-6.191 21.489-16.753 20.76-17.846-.728-1.093-13.111 3.278-13.475 1.457 11.29-8.013 17.117-17.483 16.753-18.575-.364-1.093-12.383 3.642-13.111 1.457 11.29-8.377 17.482-15.297 17.117-16.754-.364-1.457-9.833 2.914-10.197 1.092 8.012-6.555 14.204-15.297 13.84-16.389-.365-1.093-8.013 2.185-8.377.728 8.012-5.463 13.111-12.019 12.383-12.747-.729-.729-6.192 1.821-6.92.364 4.37-2.914 10.198-8.377 10.198-9.47 0-1.092-5.099 1.457-5.463.365 4.37-3.643 7.648-7.649 7.648-8.377 0-.729-2.55.728-2.914-.365 3.642-2.913 5.828-7.648 5.828-7.648Z" fill="#305937"/><path d="M155.705 448.352c4.123.225 1.73 19.135 7.608 30.594 5.879 11.458 5.868 14.077 11.655 18.327-1.337 3.959-10.926-.091-10.926-.091s4.137 10.424 15.22 14.692c-.911 3.642-12.165 3.129-12.165 3.129s4.932 10.165 14.121 11.888c-.911 3.642-13.385 3.708-13.385 3.708s5.671 10.27 12.849 12.835c-1.759 4.275-12.164 3.128-12.164 3.128s5.733 7.259 14.339 10.409c-.758 5.176-24.369 1.341-24.369 1.341s.142 4.174 2.462 6.403c-2.55 1.893-18.724-11.429-18.724-11.429s-7.867 12.445-11.932 11.851c.171-3.755.47-13.531.47-13.531s-14.47 11.102-17.482 8.377c3.66-4.37 5.747-10.868 5.747-10.868s-14.08 5.871-16.181 2.164c5.35-2.994 12.51-10.632 12.51-10.632s-14.568-1.005-13.986-5.07c9.678-1.606 17.045-8.082 17.045-8.082s-9.352-.611-9.494-4.789c8.992-2.083 16.793-11.513 16.793-11.513s-11.84.907-11.986-3.278c7.936-2.615 15.253-8.719 15.253-8.719s-9.298-.987-8.65-5.423c11.95-1.65 18.211-8.286 18.211-8.286s-10.788 1.457-10.461-.776c3.967-1.307 13.87-7.033 17.978-17.009 4.108-9.975 5.521-19.576 9.644-19.35ZM168.617 583.015s1.981 5.947 6.92 8.919c4.939 2.972 6.92 3.963 5.944 4.954-.976.99-2.477-1.487-3.467-.496-.991.991.99 1.982 0 2.972-.991.991-1.982-.99-2.972 0-.991.991 3.962 5.944 5.944 6.92 1.981.976 3.962 1.982 3.962 2.972 0 .991-2.972.991-3.962 0-.991-.99-1.982-2.972-2.972-1.981-.991.991 0 1.981-.991 1.981s-.991-.99-1.981 0c-.991.991 1.981 3.967 3.962 4.957 1.982.991 10.639 2.99 10.901 4.954.193 1.456-2.356 1.456-3.449 1.456s-1.093.365-.728 1.457c.364 1.093-.365 1.821-1.821 1.821-1.457 0-4.007-2.549-5.099-2.549-1.093 0-1.457 1.092-.729 2.185.729 1.093 10.562 8.013 14.569 10.198 4.006 2.185 8.012 4.006 8.376 5.463.365 1.457-3.642 1.821-4.734 1.457-1.093-.364-1.821-.728-2.186-.364-.364.364-.364 2.185-2.913 2.185-2.55 0-4.371-2.549-4.735-2.549-.364 0-.364 2.185-1.821 2.185-1.457 0-2.185-1.821-2.914-1.821-.728 0-1.092.728-.364 2.549.728 1.822 12.383 12.384 17.118 15.298 4.735 2.913 10.926 3.642 11.29 4.37.365.729-.364 2.55-5.099 2.914-4.734.364-6.555-1.093-6.92-1.457-.364-.364-.728 0-.728 1.093 0 1.092 0 1.456-1.457 1.456s-2.913-2.913-3.278-2.549c-.364.364 0 1.821-1.092 2.914-1.093 1.092-2.55-.365-3.278-.365-.729 0-1.093.729-.729 1.457.365.729 6.556 9.834 14.569 15.662 8.012 5.827 17.846 8.012 17.846 8.741 0 .728-2.185 2.549-5.099 2.549s-4.37 0-4.37.364c0 .365-.729 2.914-2.914 2.55-2.185-.364-7.284-3.278-8.013-3.278-.728 0 .364 3.642-2.185 4.006-2.549.365-4.006-2.913-4.37-2.913-.365 0 .728 3.642-2.186 3.278-2.913-.365-6.191-5.099-6.92-5.099-.728 0 .729 2.913-.728 3.277-1.457.365-5.827-2.549-6.556-2.549-.728 0-.364 4.371-2.549 4.006-2.186-.364-3.278-3.278-5.099-3.278-1.821 0-3.278 2.914-4.735 2.914-1.457 0-.364-3.278-1.821-3.642-1.457-.364-3.278 2.549-5.827 2.549-2.55 0-.729-3.277-2.55-3.642-1.821-.364-5.099 3.278-6.92 3.278-1.821 0-.728-2.913-2.185-3.278-1.457-.364-4.006 4.007-5.827 4.007-1.821 0 .364-4.007-.729-4.007-1.092 0-4.37 2.55-6.555 2.55-2.186 0-1.093-3.642-2.186-3.642-1.092 0-2.185 2.185-5.099 1.821-2.913-.364-3.642-1.457-2.913-2.186.728-.728 11.654-7.648 19.667-15.297 8.013-7.648 9.105-10.562 8.377-11.654-.729-1.093-2.55 1.821-4.007 1.456-1.456-.364.729-3.277-.364-3.642-1.092-.364-3.642 3.278-6.555 3.278-2.914 0-1.822-1.821-1.822-2.549 0-.729-5.463.728-5.827-.729-.364-1.457 10.198-4.37 17.118-9.469 6.92-5.099 9.105-12.748 9.105-13.84 0-1.093-1.821-.729-2.549 0-.729.728-4.735 2.549-5.463 2.549-.729 0-1.093-1.821-1.457-1.821-.364 0-1.093 1.821-3.278 1.821s-1.457-1.457-2.185-1.821c-.729-.364-2.55 0-4.371-.364-1.821-.364-1.457-1.093 0-1.457 1.457-.364 8.013-2.914 14.568-8.377 6.556-5.463 7.649-8.013 7.285-8.741-.365-.729-3.643 1.092-4.371 1.092-.728 0-1.093-1.456-1.457-1.456-.364 0-2.549 1.456-3.278 1.092-.728-.364.729-2.185.365-2.549-.365-.364-4.735.728-4.371-.364.364-1.093 4.371-1.093 8.377-3.643 4.006-2.549 8.012-6.92 7.648-7.648-.364-.729-2.549 1.821-3.642 1.457-1.092-.364-1.092-1.093-1.457-.729-.364.365-.728 1.093-1.457 1.093-.728 0 .365-1.457-.728-1.093-1.093.365-2.549.729-2.549 0 0-.728 2.185-1.821 6.555-5.463 4.371-3.642 3.642-6.92 3.642-6.92s-2.549 1.457-3.277 1.093c-.729-.365 0-1.457-.729-1.457-.728 0-3.278.364-2.914-.364.365-.729 2.914.364 7.285-4.371 4.37-4.735 4.367-8.224 5.47-8.107Z" fill="#406632"/><path d="M69.224 609.012s-2.572 4.782-5.784 6.574c0 .597 3.536-1.195 3.857-.598.32.598-5.463 6.276-7.71 7.471.64.895 4.498-1.195 4.818-.598.32.598-5.463 5.973-8.355 7.769 1.286 1.195 6.428-1.796 6.749-1.195.32.601-8.996 10.756-11.888 11.95.32.896 7.07-1.792 7.39-1.194.32.597-8.675 11.953-11.567 13.745.644 1.195 6.749-2.692 7.39-1.493.64 1.198-10.927 12.846-13.815 14.342.641.896 10.602-2.094 10.926-1.198.325.896-9.957 13.148-14.455 15.239.32 1.198 10.278-2.987 10.926-1.792.648 1.195-12.529 12.85-16.706 14.933 0 1.493 16.062-2.389 16.39-1.493.327.896-12.533 9.56-16.39 11.352 0 1.198 35.019-4.181 37.27-4.181 2.25 0 38.871 4.778 39.836 3.584-7.069-2.389-17.35-8.963-17.026-10.158.324-1.195 16.389 2.688 17.026 1.195-8.995-5.081-18.957-13.746-18.312-14.642.645-.896 11.567 2.692 11.888 1.195-9.961-6.556-15.1-14.343-14.78-15.239.32-.896 10.927 2.99 11.567 1.198-9.96-6.872-15.424-12.551-15.1-13.745.325-1.195 8.672 2.389 8.996.896-7.069-5.38-12.532-12.551-12.212-13.447.321-.896 7.07 1.792 7.39.597-7.065-4.48-11.563-9.859-10.926-10.456.637-.598 5.463 1.493 6.104.298-3.853-2.393-8.996-6.872-8.996-7.768 0-.896 4.498 1.194 4.819.298-3.854-2.99-6.745-6.275-6.745-6.872 0-.598 2.247.597 2.57-.299-3.219-2.382-5.145-6.268-5.145-6.268Z" fill="#305937"/></svg>