<svg width="1920" height="1080" fill="none" xmlns="http://www.w3.org/2000/svg"><g clip-path="url('#clip0_131_2635')"><path fill="#fff" d="M0 0h1920v1080H0z"/><path d="M1920 0H0v718h1920V0Z" fill="#9ECBDD"/><path d="M1920 668.818V903c-35.24-.546-78.15-1.213-122.84-1.907-79.28-1.23-164.15-2.548-221.58-3.449-39.89-.615-66.54-1.023-68.87-1.066-39.25-.641-83.11-1.985-130.22-4.29-46.39-2.262-95.9-5.469-147.25-9.845a4128.604 4128.604 0 0 1-35.81-3.224c-3.28-.321-6.55-.633-9.85-.945-.94-.095-1.88-.199-2.82-.286-38.98-3.831-78.76-8.355-118.77-13.693-1.27-.165-2.53-.338-3.81-.512-31.9-4.29-63.94-9.1-95.842-14.473l-1.66-.269-6.37-1.092c-3.276-.563-6.552-1.126-9.835-1.707-.509-.087-.997-.173-1.492-.26a3053.95 3053.95 0 0 1-18.251-3.276c-28.815-5.278-57.425-11.05-85.628-17.342a1997.256 1997.256 0 0 1-53.807-12.766 229.33 229.33 0 0 1-3.262-.832 1571.168 1571.168 0 0 1-15.251-3.943c-2.417-.65-4.827-1.274-7.229-1.924-6.29-1.69-12.537-3.406-18.754-5.157-.16-.043-.327-.087-.488-.139a939.74 939.74 0 0 0-4.484-1.265c-.961-.277-1.915-.546-2.869-.823a1534.593 1534.593 0 0 1-13.57-3.943c-1.237-.373-2.482-.755-3.72-1.119-.204-.052-.393-.121-.597-.173-.349-.104-.699-.208-1.055-.312-.903-.286-1.813-.554-2.723-.832-.568-.173-1.15-.346-1.725-.52-1.427-.433-2.869-.866-4.303-1.317a543.474 543.474 0 0 1-6.828-2.123 1296.18 1296.18 0 0 1-14.117-4.481c-.196-.061-.393-.13-.589-.191-45.937-14.906-89.37-31.694-129.156-50.552-16.744-7.939-32.847-16.25-48.208-24.952a625.52 625.52 0 0 1-14.793-8.623 563.255 563.255 0 0 1-8.634-5.287c-.386-.242-.765-.468-1.151-.702-2.933 0-8.539-5.46-11.138-7.193-3.356-2.236-7.404-3.701-9.981-7.289-.284-.398-.568-.849-.641-1.369-.589-4.013 7.87-5.235 9.894-6.093.844-.355 1.689-.71 2.533-1.057 3.109-1.274 6.225-2.496 9.333-3.727.386-.164.765-.312 1.151-.459 57.796-21.103 112.047-4.437 172.515-8.849 35.709-2.608 70.689-13.303 105.095-24.388 22.939-6.69 45.573-15.088 68.192-23.114 84.907-30.125 172.028-54.79 260.098-67.088 34.98-4.879 70.51.624 104.47 13.433 39.77 15.02 77.47 36.548 116.55 53.733 44.78 19.691 89.57 39.382 134.36 59.012 38.2 16.735 81.59 33.41 122.83 30.68 4.45-.295 226.12-19.622 352.95-30.802Z" fill="#7FA024"/><path d="M931 842.043c7.252-8.821 14.622-17.142 26.243-26.035 10.669-8.167 24.466-17.005 55.137-22.889 28.75-5.52 64.55-7.542 119.15-7.406-2.8 10.325 27.87 24.385-12.81 17.804-32.16-5.203-14.02-7.587-45.63 1.505-13.34 3.834-27 5.756-40.16 10.479-7.72 2.773-16.35 7.442-18.71 17.042-.79 3.199-.88 6.563-.62 9.853.58 7.143 2.9 16.045 7.75 27.458-12.53-29.452-61.578-25.536-90.35-27.811Z" fill="#3D3B38"/><path d="M934.723 842.507c6.463-8.729 14.25-16.353 22.29-23.596 13.724-11.866 30.92-19 48.417-23.17 28.21-6.3 57.28-7.56 86.08-8.475-28.78.979-57.86 2.302-86.04 8.657-17.464 4.206-34.588 11.349-48.257 23.215-7.996 7.243-15.773 14.884-22.191 23.596 0-.009-.299-.227-.299-.227Z" fill="#FCF9F9"/><path d="M1010.48 842.721c-3.05-7.279-.99-15.773 4.49-21.33 5.29-5.674 12.89-8.203 19.95-10.896 14.38-5.049 28.97-9.545 43.69-13.524-14.4 4.206-29.43 8.874-43.57 13.851-10.51 3.762-22.44 8.575-25.19 20.641-.84 3.689-.39 7.596.97 11.113l-.34.145Z" fill="#fff"/><path d="M1919.3 817.361 1920 1098H0V659.411c64.246-33.629 174.385-54.365 303.293-32.251a77.186 77.186 0 0 1 9.239 2.18l216.476 29.778c-5.554-17.017 1.397-9.759 8.085-.906 4.678 6.191 9.238 13.176 9.294 13.176 3.427-.066 6.096 10.41 8.96 18.395 1.738 4.842 3.545 8.768 5.631 8.872h.076c.139 0 .264.019.397.028.368.01.729.038 1.091.057h.083c.132 0 .265.009.397.028.368.01.73.029 1.091.057a.28.28 0 0 1 .09.009c.125.01.265.01.39.029 1.626.085 3.253.198 4.88.311 4.052.302 8.112.699 12.179 1.18 3.955.462 7.91 1.01 11.866 1.642.222.029.438.066.66.095 1.835.283 3.657.604 5.492.906 27.166 4.757 54.437 12.855 81.492 22.822 25.345 9.334 50.496 20.33 75.201 31.75.035.01.056.019.084.028.062.029.104.048.16.076.437.198.882.425 1.32.623l.098.028.153.076 1.327.604a.484.484 0 0 0 .091.037c.041.038.104.057.146.085a1828.26 1828.26 0 0 1 16.801 7.9c.014 0 .021.01.042.01.014.009.028.019.042.019.048.028.09.047.132.066 41.827 19.811 72.699 42.01 106.205 57.894 1.404.671 2.815 1.322 4.226 1.973 10.191 4.634 20.667 8.645 31.81 11.807 7.237 2.086 14.306 5.824 22.071 7.806.758.189 1.516.368 2.294.519.118.028.25.057.375.066.348.085.689.142 1.029.198.41.076.828.132 1.245.189.584.085 1.668-2.133 2.37-2.614.104-.076.202-.114.278-.104a.26.26 0 0 1 .111.028c.049 0 .105 0 .153.009.014 0 .028.01.049.01.083 0 .167.028.257.038 3.101.387 6.25.708 9.468.934.271.028 4.463.038 10.254 0 2.759-.019 5.88-.047 9.113-.085.208 0 .424 0 .633-.009 10.031-.104 20.972-.35 25.37-.784.11-.009.19-.028.28-.037 1.05-.123 1.19-1.397 1.53-2.738.22-.84.07-.679-.99-4.171-.29-.982-.41-2.265-.5-3.257-.77-9.428 3.53-15.771 8.38-19.631 3.63-2.964 7.7-4.842 11.57-6.9 3.91-2.067 8.88-3.898 12.82-5.682 54.91-24.851 110.83-44.275 166.91-63.548a6766.26 6766.26 0 0 0 55.16-19.207c8.09-2.86 16.39-5.814 24.83-8.655 28.89-9.731 59.38-18.14 88.25-17.074 14.6.491 29.16 2.7 43.47 6.636 5.46 1.057 10.91 2.604 16.34 4.436 11.74 3.954 23.39 9.202 34.84 13.572 10.54 4.03 21.17 7.626 31.86 10.929 35.57 10.996 71.74 18.641 107.44 27.239 30.31 7.306 60.49 15.555 90.77 23.039 12.6 3.115 25.19 6.23 37.78 9.335 29.23 7.22 58.45 14.441 87.67 21.642 31.22 7.683 65.86 5.285 96.82 6.437Z" fill="#96C22F"/><path d="M952.203 686.004c1.485.3.215 15.401 1.069 15.655.854.253 4.047-3.847 4.693-2.824.646 1.023-4.477 5.901-4.693 7.955-.215 2.054.423 2.308 1.07 1.8.646-.508 2.554-3.339 2.984-2.569.424.769-2.13 3.592-3.2 5.646-1.069 2.054-1.277 4.108-.215 3.593 1.069-.516 3.623-4.362 4.046-3.593.423.769-2.131 4.362-2.769 5.647-.639 1.285-.423 2.569.638 1.538 1.07-1.023 7.462-7.439 8.101-6.931.639.508-1.492 4.108-3.408 6.416-1.915 2.308-6.177 5.647-6.608 7.439-.423 1.8-.216 2.823.854 1.8 1.069-1.023 8.316-6.67 8.739-5.9.423.769-2.346 4.615-4.262 6.416-1.916 1.8-4.477 5.131-4.693 6.415-.215 1.285-.423 2.055 1.916.77 2.346-1.285 5.754-3.077 8.316-4.616 2.554-1.539 3.408-3.593 3.839-3.077.423.515.423 2.054-1.493 4.108-1.915 2.054-6.608 5.9-6.608 6.416 0 .515.854.515 2.985 0 2.131-.516 4.046-1.285 4.262-1.023.215.254-2.131 3.846-5.331 5.646-3.201 1.8-4.901 2.824-4.262 4.878.638 2.054 2.985.253 5.116-1.024 2.13-1.284 4.046-3.338 4.477-2.823.431.516-3.839 5.647-3.408 5.901.423.253 1.915 0 4.477-1.801 2.554-1.8 3.839-3.077 4.047-2.307.215.769-.639 3.338-3.408 5.392-2.77 2.054-6.824 4.616-6.824 5.393 0 .769.854 1.8 3.623.769 2.77-1.03 5.755-3.338 5.97-2.569.216.769-2.769 4.108-4.9 5.393-2.131 1.284-3.624 1.8-3.624 2.308 0 .507 1.708 1.284 5.755 0 4.046-1.285 5.115-2.308 5.331-1.539.215.769-2.131 4.877-5.754 5.393-3.624.515-5.332.769-5.539 1.023-.216.254-1.07 2.308-3.624 2.569-2.554.254-6.608-2.054-8.954-1.8-2.347.254-3.839 2.054-7.032 1.539-3.192-.516-2.554-1.539-4.477-1.539-1.916 0-12.578-1.8-12.578-2.823s11.509-1.285 12.578-1.8c1.069-.516.215-1.539-1.708-2.308-1.915-.769-14.07-8.985-13.855-10.263.216-1.284 5.754 1.801 9.378 3.078 3.623 1.284 5.539 2.308 5.97 1.538.423-.769-1.708-1.538-5.116-4.108-3.408-2.569-6.178-4.616-5.539-5.393.638-.769 4.046 1.801 7.247 3.339 3.2 1.539 3.838 1.539 4.046.769.216-.769-4.9-4.877-4.477-5.392.423-.516 3.839 1.538 5.539 2.308 1.708.769 2.554 1.284 2.769.253.216-1.03-3.2-2.823-6.177-4.361-2.985-1.539-8.524-5.901-8.316-7.186.215-1.284 4.477 1.801 7.246 3.078 2.77 1.284 4.047 1.8 4.047.769 0-1.031-2.131-3.339-4.262-5.131-2.131-1.801-3.839-3.593-3.623-4.362.215-.77 5.969 3.077 6.608 2.054.638-1.023-.639-2.054-2.77-5.393-2.131-3.339-2.554-4.616-2.131-5.131.424-.516 10.232 10.008 11.086 10.262.854.254 1.069-1.538.215-2.569-.853-1.031-7.885-7.955-7.462-8.47.423-.516 5.116 3.846 5.97 3.339.854-.516-4.477-6.416-4.047-6.932.424-.515 7.032 6.162 7.67 5.647.639-.516 1.07-2.054-.215-3.593-1.285-1.538-8.955-10.262-8.316-10.778.638-.515 8.316 5.901 9.162 6.932.846 1.031.423-3.077-.423-4.616-.854-1.539-5.116-4.362-4.477-4.616.638-.254 4.262.516 5.331 1.285 1.069.769 1.916-.254 1.277-2.308-.638-2.054-6.393-10.262-6.177-10.778.215-.515 5.539 5.647 6.177 5.393.639-.269.854-13.87 2.131-13.616ZM1092.05 723.867c.45.093.06 4.647.32 4.724.27.077 1.23-1.162 1.42-.854.19.308-1.35 1.777-1.42 2.4-.06.623.14.7.33.539.19-.154.77-1.008.9-.777.13.23-.65 1.084-.96 1.7-.33.623-.39 1.238-.07 1.084.33-.153 1.1-1.315 1.23-1.084.13.231-.65 1.315-.84 1.7-.19.384-.13.777.19.461.33-.315 2.26-2.246 2.45-2.092.19.154-.46 1.239-1.03 1.939-.58.7-1.86 1.7-2 2.246-.13.538-.06.854.26.538.32-.307 2.51-2.015 2.64-1.777.13.231-.71 1.393-1.29 1.939-.57.538-1.35 1.546-1.41 1.939-.06.384-.13.623.57.23.71-.384 1.74-.93 2.51-1.392.77-.462 1.03-1.085 1.16-.931.13.154.13.623-.46 1.239-.57.623-1.99 1.777-1.99 1.938 0 .154.25.154.9 0s1.22-.384 1.28-.307c.07.076-.64 1.161-1.6 1.7-.96.538-1.48.854-1.29 1.469.19.623.9.077 1.55-.308.64-.384 1.22-1.007 1.35-.854.13.154-1.15 1.701-1.03 1.777.13.077.58.001 1.36-.538.76-.538 1.15-.931 1.22-.7.06.231-.19 1.008-1.03 1.623-.84.623-2.06 1.393-2.06 1.623 0 .231.26.539 1.1.231.83-.308 1.73-1.008 1.8-.777.06.231-.84 1.239-1.48 1.623-.65.385-1.09.539-1.09.7 0 .162.51.385 1.74 0 1.22-.384 1.54-.7 1.6-.461.06.238-.64 1.469-1.74 1.623-1.09.154-1.6.231-1.66.308-.07.077-.33.7-1.1.777-.77.077-1.99-.623-2.7-.539-.71.077-1.15.623-2.12.462-.96-.154-.77-.462-1.35-.462-.59 0-3.8-.538-3.8-.854 0-.307 3.47-.384 3.8-.538.32-.154.06-.462-.52-.7-.58-.231-4.25-2.708-4.18-3.1.06-.385 1.74.538 2.83.93 1.1.385 1.67.7 1.8.462.13-.231-.51-.462-1.54-1.239-1.03-.777-1.86-1.392-1.67-1.623.19-.231 1.22.539 2.18 1.008.96.462 1.16.462 1.23.231.06-.231-1.48-1.47-1.36-1.623.13-.154 1.16.461 1.67.7.52.238.77.384.84.077.06-.308-.96-.854-1.86-1.316-.9-.462-2.57-1.777-2.51-2.169.06-.385 1.35.538 2.19.93.83.385 1.22.539 1.22.231 0-.307-.65-1.008-1.29-1.546-.64-.539-1.15-1.085-1.09-1.316.06-.23 1.8.931 1.99.624.2-.308-.19-.624-.83-1.624-.65-1.007-.77-1.392-.65-1.546.13-.154 3.08 3.023 3.35 3.1.26.077.32-.461.06-.777-.26-.315-2.38-2.4-2.26-2.554.13-.154 1.55 1.162 1.8 1.008.26-.154-1.35-1.939-1.22-2.092.13-.154 2.12 1.861 2.32 1.7.19-.154.32-.623-.07-1.085-.38-.462-2.7-3.1-2.5-3.254.19-.154 2.5 1.777 2.76 2.092.25.308.13-.93-.13-1.392-.26-.462-1.55-1.316-1.36-1.392.2-.077 1.29.153 1.61.384.32.231.58-.077.39-.7-.2-.623-1.94-3.1-1.87-3.254.07-.154 1.67 1.7 1.87 1.623.19-.061.26-4.162.64-4.085ZM813.951 725.238c.754.154.107 7.77.538 7.9.431.131 2.047-1.946 2.37-1.423.323.523-2.262 2.977-2.37 4.016-.107 1.038.216 1.169.539.908.323-.262 1.292-1.685 1.508-1.293.215.393-1.077 1.816-1.616 2.847-.538 1.03-.646 2.069-.108 1.815.539-.261 1.831-2.2 2.047-1.815.215.384-1.077 2.2-1.4 2.846-.324.646-.216 1.292.323.777.538-.515 3.761-3.754 4.085-3.5.323.261-.754 2.069-1.724 3.238-.969 1.17-3.123 2.847-3.338 3.755-.216.907-.108 1.423.43.907.539-.515 4.193-3.369 4.409-2.977.215.393-1.185 2.331-2.154 3.239-.97.908-2.262 2.592-2.37 3.239-.108.646-.215 1.038.969.392 1.185-.646 2.908-1.554 4.193-2.331 1.292-.777 1.723-1.816 1.939-1.554.215.262.215 1.039-.754 2.069-.97 1.039-3.339 2.978-3.339 3.239 0 .262.431.262 1.508 0 1.077-.261 2.046-.646 2.154-.515.108.131-1.077 1.946-2.693 2.846-1.615.9-2.477 1.423-2.154 2.462.323 1.038 1.508.131 2.585-.516 1.077-.646 2.046-1.684 2.262-1.423.215.262-1.939 2.847-1.723 2.977.215.131.969 0 2.261-.907 1.293-.908 1.939-1.554 2.047-1.17.107.393-.323 1.685-1.724 2.724-1.4 1.038-3.438 2.331-3.438 2.723 0 .392.431.908 1.831.392 1.4-.515 2.908-1.685 3.015-1.292.108.392-1.4 2.069-2.477 2.723-1.077.646-1.831.908-1.831 1.169 0 .262.862.647 2.908 0 2.046-.646 2.585-1.169 2.693-.777.107.393-1.077 2.462-2.908 2.724-1.831.261-2.693.392-2.8.515-.108.123-.539 1.17-1.831 1.293-1.293.13-3.339-1.039-4.516-.908-1.185.131-1.939 1.038-3.547.777-1.615-.262-1.292-.777-2.261-.777-.97 0-6.347-.908-6.347-1.423 0-.516 5.808-.647 6.347-.908.538-.262.107-.777-.862-1.169-.969-.393-7.1-4.532-6.993-5.185.108-.647 2.908.907 4.731 1.554 1.831.646 2.801 1.169 3.016.776.215-.392-.862-.776-2.585-2.069-1.723-1.292-3.123-2.331-2.8-2.723.323-.393 2.046.908 3.654 1.685 1.616.777 1.939.777 2.046.392.108-.385-2.477-2.462-2.261-2.723.215-.262 1.938.777 2.8 1.169.861.392 1.292.646 1.4.131.108-.516-1.616-1.424-3.123-2.201-1.508-.776-4.301-2.977-4.193-3.623.108-.646 2.262.908 3.654 1.554 1.4.646 2.046.908 2.046.392 0-.515-1.077-1.684-2.154-2.592-1.077-.908-1.938-1.816-1.83-2.2.107-.393 3.015 1.554 3.338 1.038.323-.515-.323-1.038-1.4-2.723-1.077-1.685-1.292-2.331-1.077-2.593.216-.261 5.162 5.055 5.593 5.186.431.13.538-.777.108-1.293-.431-.515-3.978-4.016-3.762-4.277.215-.262 2.585 1.946 3.015 1.685.431-.262-2.261-3.239-2.046-3.501.216-.261 3.546 3.108 3.87 2.847.323-.262.538-1.039-.108-1.816-.646-.777-4.516-5.185-4.193-5.439.323-.261 4.193 2.977 4.624 3.5.431.516.215-1.553-.216-2.33-.43-.777-2.584-2.201-2.261-2.331.323-.131 2.154.261 2.692.646.539.384.969-.131.646-1.17-.323-1.038-3.231-5.185-3.123-5.438.108-.262 2.8 2.846 3.123 2.723.339-.146.447-7.016 1.093-6.885ZM1039.31 711.844c.94.169.13 8.724.67 8.87.54.146 2.55-2.185 2.95-1.6.4.584-2.82 3.346-2.95 4.508-.13 1.161.27 1.307.67 1.015.4-.292 1.61-1.892 1.88-1.454.27.439-1.35 2.039-2.01 3.2-.67 1.162-.81 2.324-.14 2.039.67-.292 2.29-2.469 2.56-2.039.27.431-1.35 2.47-1.75 3.201-.4.731-.27 1.454.4.869s4.7-4.216 5.11-3.923c.4.292-.94 2.323-2.15 3.638-1.2 1.308-3.9 3.201-4.16 4.216-.27 1.016-.13 1.6.54 1.016.67-.585 5.24-3.785 5.51-3.347.27.439-1.48 2.616-2.69 3.639-1.2 1.015-2.82 2.908-2.95 3.639-.13.731-.27 1.161 1.21.438 1.47-.731 3.63-1.746 5.24-2.615 1.61-.87 2.14-2.039 2.41-1.747.27.293.27 1.162-.94 2.324-1.2 1.161-4.17 3.346-4.17 3.638 0 .293.54.293 1.89 0 1.34-.292 2.55-.73 2.68-.584.13.146-1.34 2.184-3.36 3.2-2.01 1.015-3.09 1.6-2.68 2.762.4 1.161 1.88.146 3.22-.585 1.35-.731 2.55-1.892 2.82-1.6.27.292-2.41 3.2-2.14 3.346.27.146 1.21 0 2.82-1.015 1.62-1.016 2.42-1.746 2.55-1.308.14.439-.4 1.893-2.14 3.054-1.75 1.162-4.3 2.616-4.3 3.054 0 .439.54 1.016 2.28.439 1.75-.577 3.63-1.893 3.76-1.454.14.438-1.74 2.323-3.09 3.054-1.34.731-2.28 1.015-2.28 1.308 0 .292 1.07.731 3.63 0 2.55-.731 3.22-1.308 3.36-.87.14.439-1.35 2.762-3.63 3.055-2.29.292-3.36.438-3.49.584-.13.146-.67 1.308-2.29 1.454-1.61.146-4.16-1.162-5.65-1.015-1.47.146-2.41 1.161-4.43.869-2.01-.292-1.61-.869-2.82-.869-1.21 0-7.93-1.016-7.93-1.6 0-.585 7.25-.731 7.93-1.016.67-.292.13-.869-1.08-1.308-1.2-.438-8.87-5.092-8.73-5.816.13-.73 3.63 1.016 5.92 1.747 2.28.731 3.49 1.308 3.76.869.27-.438-1.08-.869-3.22-2.323-2.15-1.454-3.9-2.616-3.5-3.054.4-.439 2.56 1.015 4.57 1.892 2.02.869 2.42.869 2.56.439.13-.439-3.1-2.762-2.83-3.055.27-.292 2.42.87 3.5 1.308 1.07.439 1.61.731 1.74.146.13-.584-2.01-1.6-3.9-2.469-1.88-.869-5.37-3.346-5.24-4.07.14-.723 2.83 1.016 4.57 1.747 1.75.731 2.56 1.015 2.56.438s-1.35-1.892-2.69-2.908c-1.34-1.015-2.41-2.038-2.28-2.469.13-.439 3.76 1.746 4.16 1.161.4-.584-.4-1.161-1.75-3.054-1.34-1.892-1.61-2.615-1.34-2.908.27-.292 6.44 5.67 6.98 5.816.54.147.67-.869.13-1.454-.54-.584-4.97-4.508-4.7-4.8.27-.292 3.23 2.185 3.76 1.892.54-.292-2.82-3.638-2.55-3.923.27-.292 4.43 3.493 4.84 3.2.4-.292.67-1.161-.13-2.038-.81-.87-5.65-5.816-5.24-6.108.4-.293 5.24 3.346 5.78 3.923s.27-1.746-.27-2.616c-.54-.869-3.23-2.469-2.83-2.615.4-.146 2.69.292 3.37.731.67.438 1.2-.147.8-1.308-.4-1.162-4.03-5.816-3.9-6.108.13-.293 3.5 3.2 3.9 3.054.39-.185.53-7.893 1.33-7.747ZM1132.93 736.656c.29.054.04 2.723.21 2.769.17.047.8-.677.92-.5.13.177-.87 1.047-.92 1.408-.04.362.08.408.21.316.12-.093.5-.593.58-.454.09.138-.41.638-.63 1-.21.361-.25.723-.04.638.21-.092.72-.769.8-.638.09.138-.41.769-.54 1-.13.223-.09.454.12.269s1.47-1.315 1.59-1.223c.12.092-.29.723-.67 1.131-.37.408-1.21 1-1.3 1.315-.08.316-.04.5.17.316.21-.185 1.64-1.177 1.72-1.047.08.139-.46.816-.84 1.131-.38.316-.88.908-.92 1.131-.05.223-.09.362.37.139.46-.223 1.13-.547 1.64-.816.5-.269.67-.638.75-.546.09.092.09.362-.29.723-.37.362-1.3 1.046-1.3 1.131 0 .092.17.092.59 0 .41-.092.8-.223.84-.185.03.046-.42.677-1.05 1-.63.324-.96.5-.84.862s.59.046 1.01-.185c.41-.223.8-.592.88-.5.08.093-.76 1-.67 1.047.08.046.37 0 .87-.316.5-.315.76-.546.8-.408.04.139-.12.593-.67.954-.54.362-1.33.816-1.33.954 0 .139.16.316.71.139.55-.185 1.13-.593 1.18-.454.04.138-.55.723-.96.954-.42.223-.72.315-.72.408 0 .092.34.223 1.13 0 .8-.224 1.01-.408 1.05-.27.04.139-.42.862-1.13.954-.72.093-1.05.139-1.1.185-.03.046-.2.408-.71.454-.5.046-1.3-.362-1.76-.316-.46.047-.76.362-1.39.27-.63-.093-.5-.27-.87-.27-.38 0-2.47-.315-2.47-.5 0-.184 2.26-.223 2.47-.315.2-.092.03-.269-.34-.408-.38-.138-2.77-1.585-2.73-1.815.04-.223 1.13.315 1.85.546.72.223 1.09.408 1.18.269.08-.138-.34-.269-1.01-.723-.67-.454-1.22-.816-1.09-.954.12-.138.8.315 1.42.592.63.27.75.27.8.139.04-.139-.96-.862-.88-.954.09-.092.76.269 1.1.408.33.138.5.223.54.046.04-.185-.63-.5-1.21-.769-.59-.27-1.68-1.047-1.64-1.27.04-.223.88.316 1.42.546.55.231.8.316.8.139 0-.185-.41-.593-.84-.908-.41-.315-.75-.638-.71-.769.04-.139 1.17.546 1.3.361.12-.184-.13-.361-.55-.954-.42-.592-.5-.815-.41-.907.08-.093 2.01 1.769 2.17 1.815.17.046.21-.269.04-.454-.17-.184-1.55-1.408-1.47-1.5.09-.092 1.01.677 1.18.593.17-.093-.88-1.131-.8-1.224.08-.092 1.38 1.093 1.51 1 .12-.092.2-.361-.04-.638-.26-.269-1.76-1.816-1.63-1.908.12-.092 1.63 1.046 1.8 1.223.17.185.08-.546-.09-.815-.17-.269-1-.769-.87-.816.13-.046.83.093 1.04.223.21.139.38-.046.26-.407-.13-.362-1.26-1.816-1.22-1.908.04-.092 1.09 1 1.22.954.12-.046.16-2.454.41-2.408Z" fill="#305937"/><path d="M1080.39 728.142c.29.054.04 2.723.21 2.769.17.047.8-.676.92-.5.13.185-.87 1.047-.92 1.408-.04.362.08.408.21.316.12-.093.5-.593.58-.454.09.138-.41.638-.63 1-.21.361-.25.723-.04.638.21-.092.72-.769.8-.638.09.138-.41.769-.54 1-.13.231-.09.454.12.269.21-.184 1.47-1.315 1.59-1.223.12.092-.29.723-.67 1.131-.37.408-1.21 1-1.3 1.315-.08.316-.04.5.17.316.21-.185 1.63-1.177 1.72-1.046.08.138-.46.815-.84 1.13-.38.316-.88.908-.92 1.131-.04.223-.09.362.37.139.46-.223 1.13-.546 1.63-.816.5-.269.67-.638.76-.546.08.092.08.362-.3.723-.37.362-1.3 1.046-1.3 1.131 0 .085.17.092.59 0 .41-.092.8-.223.84-.185.04.047-.42.677-1.05 1.001-.63.323-.96.5-.84.861.13.362.59.046 1.01-.184.42-.224.8-.593.88-.5.08.092-.76 1-.67 1.046.08.046.38 0 .88-.316.5-.315.75-.546.8-.407.03.138-.13.592-.67.954-.55.361-1.34.815-1.34.953 0 .139.17.316.71.139.55-.177 1.13-.592 1.18-.454.04.139-.55.723-.96.954-.42.231-.72.315-.72.408 0 .092.34.223 1.13 0 .8-.223 1.01-.408 1.05-.27.04.139-.42.862-1.13.954-.72.093-1.05.139-1.09.185-.04.046-.21.408-.72.454-.5.046-1.3-.362-1.76-.316-.46.047-.75.362-1.38.27-.64-.093-.5-.27-.88-.27s-2.47-.315-2.47-.5c0-.184 2.26-.223 2.47-.315.21-.092.04-.269-.34-.408-.38-.138-2.77-1.584-2.72-1.815.03-.223 1.13.315 1.84.546.72.223 1.1.408 1.18.269.08-.138-.34-.269-1.01-.723-.67-.454-1.21-.815-1.09-.954.12-.138.8.316 1.42.592.63.277.76.27.8.139.04-.139-.96-.862-.87-.954.08-.092.75.269 1.09.408.34.138.5.223.54.046.04-.185-.63-.5-1.21-.769-.59-.27-1.68-1.047-1.64-1.27.04-.223.88.316 1.42.546.55.224.8.316.8.139s-.41-.592-.83-.908c-.42-.315-.76-.638-.72-.769.04-.139 1.18.546 1.3.361.12-.184-.12-.361-.55-.953-.41-.593-.5-.816-.41-.908.08-.093 2.01 1.769 2.18 1.815.16.046.2-.269.03-.454-.17-.184-1.55-1.407-1.47-1.5.09-.092 1.01.677 1.18.593.17-.093-.88-1.131-.8-1.224.09-.092 1.39 1.093 1.51 1.001.12-.093.21-.362-.04-.639-.25-.269-1.76-1.815-1.64-1.908.13-.092 1.64 1.046 1.8 1.223.17.185.09-.546-.08-.815-.17-.269-1.01-.769-.88-.816.12-.046.84.093 1.05.224.2.138.37-.047.25-.408-.12-.362-1.25-1.816-1.21-1.908.03-.092 1.09 1 1.21.954.12-.046.18-2.446.43-2.408ZM1187.24 734.178c.24.046.03 2.2.17 2.231.14.03.64-.547.74-.4.1.146-.7.838-.74 1.138-.04.3.07.331.17.254.1-.077.41-.477.47-.369.07.107-.33.515-.5.807-.17.293-.2.585-.03.516.17-.077.57-.623.64-.516.07.108-.34.624-.44.808-.1.185-.07.369.1.223s1.19-1.061 1.29-.984c.1.077-.24.584-.54.915-.31.331-.98.808-1.05 1.062-.07.254-.03.4.14.254.17-.147 1.32-.954 1.39-.839.07.108-.37.662-.68.915-.31.254-.71.731-.75.916-.03.185-.07.292.31.108.37-.185.92-.439 1.32-.662.41-.223.54-.515.61-.438.06.077.06.292-.24.584-.31.293-1.05.839-1.05.916 0 .077.14.077.48 0 .34-.077.64-.185.67-.146.04.038-.33.546-.84.807-.51.254-.78.4-.68.693.1.292.48.038.82-.147.33-.184.64-.476.7-.4.07.077-.6.808-.53.839.07.038.3 0 .7-.254.4-.254.61-.438.65-.331.03.108-.1.477-.54.77-.44.292-1.08.661-1.08.769 0 .108.13.254.57.108.44-.147.92-.477.95-.37.03.108-.44.585-.78.77-.34.184-.57.254-.57.33 0 .077.26.185.91 0 .65-.184.82-.33.85-.223.03.108-.34.693-.92.77-.58.077-.84.107-.88.146-.03.038-.16.331-.57.369-.41.039-1.05-.292-1.43-.254-.36.039-.6.293-1.11.223-.51-.077-.41-.223-.71-.223-.31 0-1.99-.254-1.99-.4 0-.146 1.82-.184 1.99-.254.17-.077.03-.223-.27-.33-.31-.108-2.23-1.285-2.2-1.462.03-.185.92.254 1.49.438.57.185.87.331.94.223.07-.107-.27-.223-.81-.584-.54-.37-.99-.662-.88-.77.11-.107.65.254 1.15.477.51.224.61.224.65.108.03-.108-.78-.692-.71-.769.07-.077.61.223.88.331.27.107.41.184.44.038.03-.146-.51-.4-.99-.623-.47-.223-1.35-.839-1.31-1.023.03-.185.71.254 1.15.438.44.185.65.254.65.108 0-.146-.34-.477-.68-.731s-.61-.515-.58-.623c.04-.108.95.439 1.05.292.1-.146-.1-.292-.44-.769-.34-.477-.41-.661-.34-.731.07-.077 1.63 1.431 1.77 1.462.13.038.16-.223.03-.369-.14-.147-1.26-1.139-1.19-1.208.07-.077.82.546.95.477.14-.077-.71-.916-.65-.985.07-.077 1.12.877 1.22.808.1-.077.17-.292-.03-.516-.2-.223-1.43-1.461-1.33-1.538.1-.077 1.33.838 1.46.985.13.146.07-.439-.07-.662-.14-.223-.82-.623-.71-.662.1-.038.68.077.85.185.17.108.3-.038.2-.331-.1-.292-1.02-1.461-.99-1.538.03-.077.88.807.99.769.08-.039.12-1.977.32-1.946ZM1194.07 739.399c.2.031.04 1.777.14 1.808.11.031.53-.446.6-.323.09.116-.57.685-.6.916-.03.238.06.269.14.207.09-.061.33-.384.39-.3.05.093-.28.416-.41.654-.14.239-.16.477-.03.416.14-.062.47-.508.52-.416.05.092-.28.508-.35.654-.09.146-.06.3.08.177.14-.115.96-.862 1.04-.8.08.061-.19.477-.44.738-.24.27-.79.654-.84.862-.06.208-.04.323.1.208.14-.116 1.07-.769 1.13-.685.05.092-.3.531-.55.739-.25.207-.58.592-.6.738-.03.146-.05.239.25.092.3-.146.73-.353 1.07-.53.33-.177.43-.416.49-.354.05.061.05.238-.19.477-.25.238-.85.684-.85.738 0 .062.11.062.38 0 .28-.061.53-.146.55-.115.03.031-.28.446-.68.654-.41.207-.64.323-.55.561.08.239.38.031.65-.115.27-.146.53-.385.58-.323.05.061-.49.654-.44.685.06.03.25 0 .58-.208.33-.208.49-.354.52-.269.03.092-.08.384-.44.623-.35.238-.87.531-.87.623 0 .092.1.208.47.092.35-.115.73-.384.77-.3.03.092-.36.477-.64.623-.27.146-.47.208-.47.27 0 .061.22.146.74 0 .53-.147.66-.27.69-.177.03.092-.28.561-.74.623-.47.061-.68.092-.72.115-.03.031-.13.269-.47.3-.33.031-.84-.238-1.15-.208-.3.031-.49.239-.91.177-.4-.061-.33-.177-.57-.177-.25 0-1.62-.207-1.62-.323 0-.115 1.48-.146 1.62-.207.13-.062.03-.177-.22-.27-.25-.092-1.81-1.038-1.78-1.184.03-.147.74.207 1.21.353.47.147.72.27.77.177.05-.092-.21-.176-.65-.477-.44-.3-.8-.53-.72-.623.08-.092.52.208.93.385.41.177.49.177.53.092.03-.084-.64-.561-.58-.623.05-.061.49.177.71.269.22.093.33.147.36.031.03-.115-.41-.323-.79-.508-.39-.176-1.1-.684-1.07-.83.02-.147.57.207.93.354.35.146.52.207.52.092 0-.116-.28-.385-.55-.593-.27-.207-.49-.415-.47-.507.04-.093.77.354.85.238.09-.115-.08-.238-.35-.623-.27-.385-.33-.531-.28-.592.05-.062 1.32 1.154 1.42 1.184.11.031.14-.176.03-.3-.1-.115-1.01-.915-.96-.977.06-.061.66.447.77.385.12-.061-.58-.738-.52-.8.05-.062.91.708.98.654.08-.054.14-.239-.03-.416-.16-.176-1.15-1.184-1.07-1.246.09-.061 1.07.685 1.18.8.11.116.05-.354-.05-.531-.11-.176-.66-.507-.58-.53.08-.031.55.061.68.146.14.092.25-.031.17-.269-.09-.239-.83-1.185-.8-1.247.03-.061.72.654.8.623.07-.038.1-1.607.26-1.577Z" fill="#305937"/><path d="M1026.32 707.72s-.68 1.531-1.54 2.1c0 .192.94-.385 1.03-.192.08.192-1.45 2.007-2.05 2.384.17.285 1.19-.384 1.28-.192.08.192-1.45 1.908-2.22 2.485.34.385 1.71-.569 1.79-.385.09.193-2.38 3.439-3.15 3.824.08.284 1.88-.57 1.96-.385.09.192-2.3 3.823-3.07 4.393.17.384 1.79-.862 1.96-.477.17.384-2.9 4.108-3.67 4.585.17.284 2.82-.67 2.9-.385.09.285-2.64 4.2-3.83 4.87.08.384 2.73-.954 2.9-.57.17.385-3.33 4.108-4.44 4.778 0 .477 4.27-.762 4.35-.477.09.284-3.32 3.054-4.35 3.631 0 .384 9.3-1.339 9.9-1.339.6 0 10.31 1.531 10.58 1.147-1.88-.762-4.61-2.862-4.53-3.247.09-.385 4.35.862 4.53.385-2.39-1.623-5.04-4.393-4.87-4.678.17-.284 3.07.862 3.16.385-2.65-2.1-4.01-4.585-3.93-4.87.09-.284 2.9.954 3.07.385-2.64-2.192-4.09-4.008-4-4.393.08-.384 2.3.762 2.38.285-1.88-1.715-3.32-4.008-3.24-4.3.09-.285 1.88.569 1.96.192-1.87-1.431-3.07-3.154-2.9-3.339.17-.192 1.45.477 1.63.093-1.03-.762-2.39-2.193-2.39-2.485 0-.285 1.19.384 1.28.092-1.02-.954-1.79-2.008-1.79-2.192 0-.185.6.192.68-.093-.86-.769-1.37-2.015-1.37-2.015Z" fill="#123F18"/><path d="M783.178 737.684s-.685 1.53-1.539 2.107c0 .193.939-.384 1.031-.192.092.192-1.454 2.016-2.054 2.4.169.285 1.2-.384 1.285-.192.084.192-1.454 1.916-2.224 2.493.347.384 1.716-.577 1.801-.385.084.192-2.401 3.454-3.17 3.839.085.284 1.885-.577 1.969-.385.085.192-2.315 3.839-3.084 4.408.169.385 1.8-.862 1.969-.477.169.385-2.916 4.124-3.685 4.6.169.285 2.823-.669 2.916-.384.092.284-2.654 4.223-3.854 4.893.084.384 2.738-.962 2.915-.577.177.384-3.339 4.123-4.454 4.792 0 .477 4.285-.769 4.37-.477.084.285-3.339 3.07-4.37 3.647 0 .384 9.339-1.346 9.932-1.346.6 0 10.362 1.53 10.624 1.153-1.885-.769-4.624-2.877-4.539-3.261.084-.385 4.369.861 4.539.384-2.401-1.631-5.055-4.408-4.885-4.7.169-.285 3.084.861 3.169.385-2.654-2.108-4.023-4.601-3.939-4.893.085-.285 2.916.961 3.085.384-2.654-2.207-4.108-4.031-4.023-4.408.084-.377 2.315.77 2.4.285-1.885-1.723-3.339-4.031-3.254-4.316.084-.284 1.885.577 1.969.193-1.885-1.439-3.085-3.162-2.916-3.354.17-.193 1.454.477 1.631.092-1.03-.769-2.4-2.208-2.4-2.493 0-.284 1.2.385 1.285.093-1.031-.962-1.8-2.016-1.8-2.208 0-.193.6.192.684-.093-.869-.761-1.384-2.007-1.384-2.007Z" fill="#305937"/><path d="M901.249 702.159s-1.615 3.608-3.631 4.962c0 .454 2.216-.9 2.416-.454.2.454-3.423 4.739-4.839 5.639.4.677 2.823-.9 3.023-.454.2.454-3.423 4.516-5.238 5.87.807.9 4.031-1.354 4.231-.9.2.454-5.647 8.124-7.455 9.031.2.677 4.431-1.354 4.639-.9.2.454-5.439 9.032-7.254 10.386.4.9 4.231-2.031 4.638-1.131.4.9-6.854 9.708-8.669 10.832.4.677 6.654-1.577 6.854-.9.2.677-6.247 9.931-9.07 11.508.2.9 6.447-2.254 6.854-1.354.408.9-7.862 9.709-10.477 11.286 0 1.131 10.077-1.808 10.277-1.131.2.677-7.862 7.224-10.277 8.578 0 .9 21.971-3.162 23.378-3.162 1.408 0 24.387 3.608 24.995 2.708-4.431-1.808-10.886-6.77-10.686-7.67.2-.9 10.278 2.031 10.686.9-5.647-3.839-11.894-10.386-11.486-11.063.4-.677 7.255 2.031 7.455.901-6.247-4.962-9.47-10.832-9.27-11.509.2-.677 6.854 2.254 7.254.9-6.247-5.193-9.678-9.478-9.47-10.386.2-.9 5.439 1.808 5.647.677-4.431-4.061-7.862-9.477-7.662-10.154.2-.677 4.431 1.354 4.638.454-4.431-3.385-7.254-7.447-6.854-7.901.4-.454 3.423 1.131 3.831.223-2.416-1.808-5.647-5.193-5.647-5.87 0-.677 2.824.9 3.024.223-2.416-2.254-4.231-4.738-4.231-5.192 0-.454 1.407.454 1.615-.223-2.031-1.793-3.239-4.724-3.239-4.724Z" fill="#123F18"/><path d="M916.018 700.234s-1.57 3.508-3.524 4.824c0 .438 2.154-.877 2.347-.439.192.439-3.332 4.601-4.701 5.478.392.654 2.739-.877 2.939-.439.192.439-3.331 4.385-5.093 5.701.785.877 3.916-1.316 4.108-.877.193.438-5.485 7.893-7.247 8.77.193.654 4.309-1.316 4.501-.877.192.438-5.285 8.77-7.047 10.085.392.877 4.108-1.969 4.5-1.092.393.877-6.654 9.424-8.416 10.524.393.654 6.462-1.531 6.655-.877.192.654-6.07 9.647-8.809 11.177.193.877 6.262-2.192 6.655-1.315.392.877-7.632 9.424-10.178 10.962 0 1.093 9.785-1.754 9.985-1.092.193.654-7.631 7.016-9.985 8.331 0 .877 21.34-3.069 22.71-3.069 1.369 0 23.686 3.508 24.271 2.631-4.308-1.754-10.57-6.577-10.378-7.454.192-.877 9.985 1.969 10.378.877-5.485-3.724-11.547-10.086-11.163-10.74.393-.654 7.047 1.97 7.247.877-6.07-4.823-9.201-10.524-9.008-11.178.192-.654 6.654 2.193 7.046.877-6.069-5.039-9.393-9.208-9.2-10.085.192-.877 5.285 1.754 5.485.654-4.308-3.947-7.632-9.209-7.439-9.863.192-.653 4.308 1.316 4.5.439-4.308-3.285-7.047-7.231-6.654-7.67.392-.438 3.331 1.092 3.723.216-2.346-1.754-5.485-5.039-5.485-5.701 0-.662 2.739.877 2.939.215-2.347-2.192-4.108-4.6-4.108-5.038 0-.439 1.369.438 1.569-.216-1.946-1.762-3.123-4.616-3.123-4.616Z" fill="#305937"/><path d="M1002.84 711.391s.3 1.161 1.02 1.746 1.02.777.87.969c-.15.193-.36-.292-.51-.1-.14.193.15.385 0 .585-.14.192-.29-.192-.44 0-.14.192.58 1.162.87 1.354.29.192.58.385.58.585 0 .192-.44.192-.58 0-.14-.193-.29-.585-.44-.385-.14.192 0 .385-.14.385-.15 0-.15-.193-.29 0-.15.192.29.777.57.969.29.192 1.56.585 1.59.969.04.285-.34.285-.5.285-.16 0-.16.069-.11.284.05.216-.05.354-.27.354-.22 0-.58-.5-.75-.5-.16 0-.21.216-.1.431.1.216 1.54 1.569 2.13 1.993.58.43 1.17.784 1.22 1.069.05.285-.53.354-.69.285-.16-.07-.27-.147-.33-.07-.05.077-.05.431-.42.431s-.64-.5-.69-.5c-.05 0-.05.431-.27.431-.22 0-.32-.354-.42-.354-.11 0-.16.146-.06.5.11.354 1.82 2.423 2.51 2.993.69.569 1.6.715 1.65.854.06.146-.05.5-.74.569-.69.069-.96-.216-1.02-.285-.05-.069-.1 0-.1.216 0 .215 0 .284-.22.284s-.42-.569-.48-.5c-.05.069 0 .354-.16.569-.16.216-.38-.069-.48-.069-.1 0-.16.146-.1.285.05.138.96 1.923 2.13 3.062 1.17 1.138 2.61 1.569 2.61 1.707 0 .147-.32.5-.74.5-.43 0-.64 0-.64.07 0 .069-.11.569-.42.5-.33-.069-1.07-.639-1.18-.639-.11 0 .05.716-.32.785-.38.069-.59-.569-.64-.569-.06 0 .1.715-.33.638-.42-.069-.9-1-1.01-1-.11 0 .11.569-.11.639-.21.069-.85-.5-.96-.5-.11 0-.05.853-.38.784-.32-.069-.47-.638-.74-.638s-.48.569-.7.569c-.21 0-.05-.639-.27-.715-.21-.07-.47.5-.85.5s-.11-.639-.38-.716c-.27-.069-.743.639-1.012.639s-.108-.57-.323-.639c-.215-.069-.585.785-.854.785s.054-.785-.108-.785c-.161 0-.638.5-.961.5-.323 0-.162-.715-.323-.715-.162 0-.323.431-.747.354-.423-.07-.53-.285-.423-.431.108-.146 1.708-1.5 2.877-2.993 1.17-1.492 1.334-2.069 1.224-2.285-.108-.215-.377.354-.585.285-.215-.069.108-.638-.054-.715-.161-.07-.531.638-.962.638-.43 0-.269-.354-.269-.5 0-.146-.8.146-.854-.146-.054-.292 1.493-.854 2.508-1.854 1.016-1 1.336-2.493 1.336-2.708 0-.215-.27-.146-.38 0-.11.146-.69.5-.802.5-.108 0-.162-.354-.215-.354-.054 0-.162.354-.477.354-.316 0-.216-.285-.323-.354-.108-.069-.377 0-.639-.069-.269-.069-.215-.215 0-.285.215-.069 1.177-.569 2.136-1.638.96-1.07 1.12-1.57 1.06-1.708-.05-.146-.53.215-.63.215-.11 0-.17-.284-.22-.284-.05 0-.38.284-.48.215-.1-.069.11-.431.06-.5-.06-.069-.695.146-.641-.069.054-.216.641-.216 1.221-.716.59-.5 1.18-1.354 1.13-1.5-.06-.146-.38.354-.54.285-.16-.069-.16-.216-.21-.146-.05.069-.11.215-.22.215-.1 0 .06-.285-.1-.215-.17.069-.38.146-.38 0s.32-.354.96-1.07c.64-.715.53-1.354.53-1.354s-.38.285-.48.216c-.1-.069 0-.285-.1-.285-.11 0-.48.069-.43-.069.06-.146.43.069 1.07-.854.7-.9.7-1.592.86-1.569ZM1103.11 728.799s.26 1.092.95 1.639c.68.546.95.73.81.907-.13.185-.33-.269-.47-.092-.14.185.14.362 0 .546-.14.185-.27-.184-.41 0-.14.185.55 1.093.82 1.27.26.184.54.361.54.546 0 .184-.41.184-.54 0-.14-.185-.27-.546-.41-.362-.14.185 0 .362-.14.362s-.14-.185-.27 0c-.14.184.27.731.55.907.27.185 1.46.547 1.49.908.02.27-.32.269-.48.269-.15 0-.14.07-.1.27.05.2-.04.331-.24.331-.2 0-.55-.47-.7-.47-.16 0-.2.2-.1.4s1.44 1.47 2 1.87c.54.4 1.1.738 1.14 1 .06.269-.5.331-.64.269-.15-.062-.25-.131-.3-.069-.06.069-.06.4-.4.4-.35 0-.6-.469-.65-.469-.05 0-.05.4-.25.4-.19 0-.3-.331-.4-.331-.1 0-.14.131-.04.469.1.331 1.7 2.269 2.34 2.808.65.531 1.5.669 1.55.8.05.131-.05.469-.7.539-.65.069-.9-.2-.95-.27-.04-.069-.1 0-.1.2s0 .27-.2.27-.4-.539-.44-.47c-.05.07 0 .331-.15.531s-.34-.069-.44-.069c-.11 0-.15.131-.11.269.06.131.91 1.808 2.01 2.877 1.1 1.07 2.44 1.47 2.44 1.6 0 .131-.3.47-.7.47-.4 0-.6 0-.6.069s-.1.538-.4.469c-.3-.069-1-.6-1.1-.6-.1 0 .05.669-.3.739-.34.069-.54-.531-.6-.531-.04 0 .1.669-.3.6-.4-.069-.85-.939-.95-.939-.1 0 .1.531-.1.6-.2.07-.8-.469-.9-.469-.1 0-.04.8-.34.739-.3-.062-.45-.6-.7-.6-.26 0-.45.538-.65.538s-.04-.6-.24-.669c-.2-.069-.45.469-.8.469-.35 0-.1-.6-.35-.669-.25-.069-.7.6-.95.6-.24 0-.1-.531-.3-.6-.2-.069-.54.738-.8.738-.25 0 .05-.738-.1-.738-.14 0-.6.469-.9.469-.3 0-.14-.669-.3-.669-.15 0-.3.4-.7.331-.4-.07-.5-.27-.4-.4.1-.131 1.6-1.401 2.7-2.808 1.1-1.4 1.25-1.939 1.15-2.139-.1-.2-.35.331-.55.269-.2-.061.1-.6-.04-.669-.15-.069-.5.6-.9.6s-.25-.331-.25-.469c0-.131-.74.131-.8-.131-.04-.269 1.4-.8 2.35-1.739.94-.938 1.24-2.338 1.24-2.538 0-.2-.24-.131-.34 0-.1.13-.65.469-.75.469-.1 0-.14-.331-.2-.331-.05 0-.14.331-.44.331s-.2-.269-.3-.331c-.1-.069-.35 0-.6-.069s-.2-.2 0-.269c.2-.07 1.1-.531 2-1.539.9-1 1.04-1.469 1-1.6-.05-.131-.5.2-.6.2-.1 0-.15-.269-.2-.269-.06 0-.35.269-.45.2-.1-.069.1-.4.05-.469-.06-.07-.65.13-.6-.07.04-.2.6-.2 1.14-.669.55-.469 1.1-1.269 1.05-1.4-.06-.131-.35.331-.5.269-.15-.069-.15-.2-.2-.131-.05.07-.1.2-.2.2s.04-.269-.1-.2c-.15.07-.35.131-.35 0 0-.13.3-.33.9-1 .6-.669.5-1.269.5-1.269s-.34.269-.44.2c-.1-.069 0-.269-.1-.269s-.45.069-.4-.07c.04-.13.4.07 1-.8.6-.869.54-1.515.7-1.492ZM1081.39 745.708s.45 1.6 1.56 2.4c1.11.8 1.55 1.069 1.33 1.331-.22.261-.55-.4-.78-.131-.22.269.23.531 0 .8-.22.269-.44-.269-.66 0-.22.269.89 1.6 1.33 1.87.45.269.89.53.89.8 0 .269-.67.269-.89 0-.22-.27-.44-.8-.66-.531-.22.269 0 .531-.22.531-.23 0-.23-.27-.45 0-.22.269.45 1.069.89 1.33.44.27 2.37.808 2.43 1.331.05.393-.52.393-.77.393-.24 0-.24.1-.16.392.09.292-.08.492-.4.492-.33 0-.9-.684-1.14-.684-.25 0-.33.292-.16.584.16.293 2.36 2.154 3.25 2.747.89.592 1.79 1.077 1.87 1.469.08.392-.82.492-1.06.392-.25-.1-.41-.192-.5-.1-.08.1-.08.585-.65.585-.57 0-.98-.685-1.06-.685-.09 0-.09.585-.41.585-.32 0-.49-.492-.65-.492-.16 0-.25.192-.09.684.16.493 2.77 3.331 3.83 4.116 1.07.785 2.45.977 2.53 1.177.07.2-.09.685-1.14.785-1.06.1-1.47-.293-1.55-.393-.08-.1-.16 0-.16.293 0 .292 0 .392-.32.392-.33 0-.66-.785-.73-.685-.09.1 0 .493-.25.785-.25.293-.57-.1-.73-.1-.16 0-.25.192-.16.393.08.192 1.47 2.646 3.25 4.215 1.8 1.57 4 2.154 4 2.354 0 .2-.5.685-1.14.685-.65 0-.98 0-.98.1s-.16.785-.65.685c-.5-.1-1.64-.885-1.8-.885-.16 0 .09.977-.49 1.077-.57.1-.89-.785-.98-.785-.08 0 .17.977-.49.885-.65-.092-1.38-1.369-1.54-1.369-.17 0 .16.784-.17.884-.32.1-1.3-.684-1.47-.684-.16 0-.08 1.177-.56 1.077-.5-.1-.74-.885-1.14-.885-.41 0-.73.785-1.06.785-.34 0-.09-.885-.41-.977-.33-.1-.73.684-1.3.684-.57 0-.16-.884-.57-.977-.41-.1-1.14.885-1.55.885-.41 0-.16-.785-.49-.885-.33-.1-.89 1.077-1.3 1.077-.41 0 .08-1.077-.16-1.077-.25 0-.98.685-1.47.685s-.25-.977-.49-.977c-.25 0-.5.585-1.14.492-.66-.1-.82-.392-.66-.584.17-.193 2.61-2.062 4.4-4.116 1.8-2.062 2.04-2.846 1.87-3.139-.16-.292-.57.493-.89.393-.32-.1.16-.885-.08-.977-.25-.1-.82.884-1.47.884-.66 0-.41-.492-.41-.684 0-.193-1.22.192-1.3-.193-.09-.392 2.28-1.177 3.83-2.546 1.55-1.369 2.04-3.431 2.04-3.724 0-.292-.41-.192-.57 0-.16.193-1.06.685-1.22.685-.17 0-.25-.492-.33-.492-.08 0-.24.492-.73.492-.48 0-.32-.392-.49-.492-.16-.1-.57 0-.98-.1-.4-.1-.32-.293 0-.393.33-.1 1.8-.784 3.26-2.254 1.47-1.469 1.7-2.154 1.63-2.354-.08-.2-.82.293-.98.293-.16 0-.25-.393-.32-.393-.08 0-.57.393-.73.293-.16-.1.16-.585.08-.685-.08-.1-1.06.192-.98-.1.09-.292.98-.292 1.87-.977.9-.685 1.8-1.862 1.71-2.062-.08-.2-.57.493-.81.393-.25-.1-.25-.293-.33-.193-.08.1-.16.293-.32.293s.08-.393-.16-.293c-.25.1-.57.193-.57 0 0-.192.49-.492 1.47-1.469.98-.977.81-1.862.81-1.862s-.56.393-.73.293c-.16-.1 0-.393-.16-.393s-.73.1-.65-.1c.08-.192.65.1 1.63-1.177.97-1.277.97-2.223 1.21-2.192Z" fill="#406632"/><path d="M1087.36 737.706s.36 1.338 1.3 2.007c.93.67 1.3.893 1.11 1.116-.18.223-.46-.339-.65-.115-.18.223.19.446 0 .669-.18.223-.36-.223-.55 0-.18.223.74 1.338 1.12 1.561.37.224.73.447.73.67 0 .223-.55.223-.73 0-.19-.223-.37-.67-.56-.446-.18.223 0 .446-.18.446-.19 0-.19-.223-.37 0-.19.223.37.892.74 1.115.37.223 1.99.677 2.04 1.116.03.33-.44.33-.65.33-.21 0-.21.085-.14.331.07.247-.07.408-.34.408s-.75-.577-.95-.577c-.2 0-.27.246-.14.492.14.247 1.98 1.808 2.73 2.301.75.492 1.5.9 1.57 1.23.07.331-.68.408-.88.331-.21-.084-.34-.161-.41-.084-.07.084-.07.492-.55.492-.48 0-.81-.577-.88-.577-.07 0-.07.492-.34.492s-.41-.407-.55-.407c-.14 0-.21.161-.07.577.14.407 2.32 2.792 3.21 3.446.89.654 2.05.823 2.12.985.07.161-.07.577-.96.654-.88.084-1.23-.247-1.29-.331-.07-.085-.14 0-.14.246s0 .331-.27.331-.54-.654-.61-.577c-.07.077 0 .408-.21.654-.21.246-.48-.085-.62-.085-.13 0-.2.162-.13.331.06.161 1.23 2.215 2.73 3.531 1.5 1.315 3.34 1.808 3.34 1.969 0 .162-.41.577-.96.577-.54 0-.81 0-.81.085s-.14.654-.55.577c-.41-.085-1.36-.739-1.5-.739-.14 0 .07.824-.41.9-.48.085-.75-.653-.81-.653-.07 0 .13.823-.41.738-.55-.085-1.16-1.146-1.29-1.146-.14 0 .13.654-.14.738-.28.085-1.09-.577-1.23-.577-.14 0-.07.985-.48.9-.41-.084-.62-.738-.95-.738-.34 0-.62.654-.89.654s-.07-.739-.34-.823c-.27-.085-.61.577-1.09.577-.48 0-.14-.739-.48-.823-.34-.085-.95.738-1.29.738-.34 0-.14-.654-.41-.738-.27-.085-.75.9-1.09.9-.34 0 .07-.9-.14-.9-.21 0-.81.577-1.23.577-.41 0-.21-.824-.41-.824-.2 0-.4.493-.95.408-.55-.085-.68-.331-.55-.492.14-.162 2.19-1.723 3.69-3.447 1.5-1.723 1.71-2.385 1.57-2.631-.14-.246-.48.408-.76.331-.27-.077.14-.738-.07-.823-.2-.085-.68.738-1.23.738-.54 0-.33-.407-.33-.576 0-.162-1.03.161-1.1-.162-.07-.331 1.91-.985 3.21-2.139s1.71-2.877 1.71-3.123c0-.246-.34-.162-.48 0-.14.162-.88.577-1.02.577s-.21-.408-.27-.408c-.07 0-.21.408-.62.408-.4 0-.27-.331-.4-.408-.14-.084-.48 0-.82-.084-.34-.085-.27-.247 0-.331.27-.085 1.5-.654 2.73-1.893 1.23-1.23 1.43-1.807 1.36-1.969-.07-.162-.68.246-.81.246-.14 0-.21-.331-.27-.331-.06 0-.48.331-.62.247-.14-.085.14-.493.07-.577-.07-.085-.88.161-.81-.085.07-.246.81-.246 1.57-.823.75-.577 1.5-1.562 1.43-1.723-.07-.162-.48.407-.69.33-.2-.084-.2-.246-.27-.161-.07.084-.13.246-.27.246-.13 0 .07-.331-.13-.246-.21.084-.48.161-.48 0 0-.162.41-.408 1.23-1.231.82-.823.68-1.562.68-1.562s-.47.331-.61.246c-.14-.084 0-.33-.14-.33s-.61.084-.55-.085c.07-.162.55.085 1.37-.985.81-1.069.76-1.807.97-1.784Z" fill="#406632"/><path d="M1141.2 743.987s-.3.716-.67.985c0 .092.41-.177.45-.092.04.092-.63.938-.89 1.115.07.131.51-.177.55-.092.04.092-.63.892-.96 1.161.14.177.74-.269.78-.176.03.092-1.04 1.607-1.37 1.784.03.131.81-.269.85-.177.04.093-1 1.785-1.33 2.054.08.177.78-.4.85-.223.08.177-1.26 1.916-1.59 2.139.08.131 1.22-.316 1.26-.177.04.138-1.14 1.962-1.67 2.277.04.177 1.19-.446 1.26-.269.08.177-1.44 1.915-1.93 2.231 0 .223 1.86-.354 1.9-.223.03.13-1.45 1.431-1.9 1.692 0 .177 4.04-.623 4.3-.623.27 0 4.49.715 4.6.539-.81-.354-2-1.339-1.96-1.516.04-.177 1.9.4 1.96.177-1.03-.762-2.18-2.054-2.11-2.185.08-.131 1.33.4 1.37.177-1.15-.985-1.74-2.139-1.71-2.277.03-.139 1.26.446 1.33.177-1.14-1.023-1.78-1.877-1.74-2.054.04-.177 1 .354 1.04.131-.81-.8-1.44-1.877-1.41-2.008.04-.131.82.269.86.092-.82-.669-1.33-1.469-1.26-1.562.07-.092.63.224.7.047-.44-.354-1.03-1.024-1.03-1.162 0-.131.51.177.55.046-.45-.446-.78-.938-.78-1.023 0-.085.26.092.3-.046-.37-.362-.6-.939-.6-.939ZM1150.43 736.539s-.23.561-.53.769c0 .069.33-.139.35-.069.02.069-.49.738-.7.877.06.107.41-.139.44-.07.03.07-.49.7-.75.916.11.138.58-.208.61-.139.03.07-.81 1.262-1.08 1.4.03.108.64-.207.67-.138.03.069-.78 1.4-1.04 1.616.06.138.61-.316.67-.177.06.138-1 1.507-1.26 1.684.06.108.96-.246.99-.138.04.108-.9 1.546-1.3 1.792.03.139.93-.354.99-.207.06.138-1.14 1.507-1.52 1.754 0 .177 1.46-.277 1.49-.177.03.107-1.14 1.123-1.49 1.331 0 .138 3.18-.493 3.38-.493.2 0 3.52.562 3.62.423-.64-.277-1.57-1.054-1.55-1.192.03-.139 1.48.315 1.55.138-.82-.6-1.72-1.615-1.67-1.715.07-.108 1.05.315 1.08.138-.9-.769-1.37-1.684-1.34-1.792.03-.108 1 .354 1.05.138-.9-.807-1.4-1.469-1.37-1.615.03-.139.78.277.82.108-.64-.631-1.14-1.47-1.11-1.578.03-.107.64.208.67.07-.64-.523-1.05-1.154-1-1.231.07-.069.5.177.56.038-.35-.277-.82-.807-.82-.915 0-.108.41.138.44.038-.34-.354-.61-.738-.61-.807 0-.07.2.069.23-.039-.3-.285-.47-.738-.47-.738ZM1121.87 732.06s-.35.839-.79 1.154c0 .108.48-.208.53-.108.04.108-.74 1.1-1.05 1.316.09.154.61-.208.66-.108.04.108-.74 1.054-1.14 1.369.17.208.87-.315.91-.207.05.107-1.22 1.892-1.61 2.1.04.154.96-.315 1-.208.04.108-1.18 2.1-1.57 2.416.08.207.91-.469 1-.262.08.208-1.49 2.262-1.88 2.523.09.154 1.44-.369 1.49-.207.04.154-1.36 2.315-1.97 2.677.05.208 1.4-.523 1.49-.315.08.207-1.7 2.261-2.27 2.631 0 .261 2.18-.424 2.22-.262.05.154-1.7 1.685-2.22 2 0 .208 4.75-.738 5.06-.738.31 0 5.28.838 5.41.63-.96-.423-2.36-1.577-2.32-1.784.05-.208 2.23.469 2.32.207-1.22-.892-2.58-2.415-2.49-2.577.09-.154 1.57.469 1.62.208-1.35-1.154-2.05-2.523-2.01-2.677.05-.154 1.49.523 1.57.207-1.35-1.207-2.09-2.207-2.05-2.415.04-.208 1.17.423 1.22.154-.96-.946-1.7-2.208-1.66-2.362.04-.154.96.315 1 .108-.96-.785-1.57-1.731-1.49-1.839.09-.108.74.262.83.054-.52-.423-1.22-1.208-1.22-1.369 0-.162.61.207.66.053-.53-.523-.92-1.1-.92-1.207 0-.108.31.107.35-.054-.42-.423-.68-1.108-.68-1.108ZM1074.47 722.328s-.29.716-.67.977c0 .092.41-.177.44-.092.04.092-.63.938-.88 1.115.08.131.52-.177.55-.092.04.085-.63.892-.96 1.162.15.177.74-.27.78-.177.04.092-1.04 1.6-1.37 1.784.04.131.82-.269.85-.176.04.092-1 1.784-1.33 2.046.08.177.78-.4.86-.223.07.177-1.26 1.915-1.6 2.138.08.131 1.23-.315 1.27-.177.03.139-1.15 1.962-1.67 2.27.04.177 1.19-.446 1.27-.269.07.177-1.45 1.915-1.93 2.231 0 .223 1.86-.354 1.89-.224.03.131-1.45 1.424-1.89 1.693 0 .177 4.03-.623 4.3-.623.26 0 4.47.715 4.58.531-.81-.354-2-1.339-1.96-1.516.04-.177 1.88.4 1.96.177-1.04-.754-2.18-2.046-2.11-2.185.08-.131 1.33.4 1.37.177-1.14-.977-1.74-2.138-1.7-2.269.04-.131 1.26.446 1.33.177-1.14-1.023-1.77-1.87-1.74-2.047.04-.177 1 .354 1.04.131-.81-.8-1.44-1.869-1.4-2.008.03-.131.81.27.85.093-.82-.67-1.33-1.47-1.26-1.562.07-.092.63.223.7.046-.45-.354-1.04-1.023-1.04-1.162 0-.138.51.177.55.047-.44-.447-.77-.939-.77-1.024 0-.084.26.093.29-.046-.38-.346-.6-.923-.6-.923ZM853.722 707.72s-1.462 3.523-3.292 4.846c0 .439 2.015-.877 2.192-.438.185.438-3.108 4.623-4.393 5.508.37.662 2.562-.877 2.747-.439.184.439-3.108 4.401-4.754 5.724.73.877 3.654-1.323 3.838-.877.185.438-5.123 7.924-6.769 8.808.184.662 4.023-1.323 4.208-.877.184.439-4.939 8.809-6.586 10.132.37.877 3.839-1.985 4.208-1.1.37.877-6.215 9.47-7.862 10.57.369.662 6.039-1.539 6.216-.877.185.662-5.67 9.685-8.231 11.232.184.877 5.854-2.2 6.216-1.323.369.877-7.132 9.47-9.509 11.008 0 1.1 9.147-1.762 9.324-1.1.185.662-7.131 7.047-9.324 8.37 0 .877 19.933-3.085 21.217-3.085 1.277 0 22.133 3.523 22.679 2.639-4.023-1.762-9.878-6.608-9.693-7.485.185-.877 9.324 1.984 9.693.877-5.123-3.747-10.793-10.132-10.424-10.794.369-.661 6.585 1.985 6.77.877-5.67-4.846-8.593-10.57-8.416-11.231.184-.662 6.216 2.2 6.585.877-5.67-5.062-8.778-9.247-8.593-10.132.185-.877 4.939 1.762 5.123.662-4.023-3.962-7.131-9.247-6.946-9.909.184-.661 4.023 1.323 4.208.439-4.024-3.301-6.585-7.27-6.216-7.709.369-.438 3.108 1.1 3.477.223-2.192-1.761-5.123-5.062-5.123-5.723 0-.662 2.561.877 2.746.223-2.192-2.2-3.839-4.624-3.839-5.062 0-.439 1.277.438 1.462-.223-1.839-1.762-2.939-4.631-2.939-4.631Z" fill="#45684A"/><path d="M989.573 702.928s-.862 1.931-1.939 2.647c0 .238 1.185-.485 1.292-.239.108.246-1.83 2.531-2.584 3.008.215.362 1.507-.485 1.615-.238.108.238-1.831 2.407-2.8 3.131.431.484 2.154-.724 2.262-.485.107.238-3.008 4.339-3.978 4.816.108.361 2.37-.723 2.478-.485.107.239-2.908 4.816-3.87 5.539.215.485 2.262-1.085 2.477-.6.216.485-3.654 5.177-4.623 5.785.215.362 3.546-.846 3.654-.485.108.362-3.331 5.301-4.839 6.139.108.485 3.439-1.207 3.654-.723.215.485-4.193 5.178-5.593 6.024 0 .6 5.378-.962 5.485-.6.108.361-4.192 3.854-5.485 4.577 0 .485 11.724-1.685 12.478-1.685.754 0 13.013 1.931 13.343 1.447-2.37-.962-5.811-3.616-5.704-4.093.108-.485 5.484 1.085 5.704.485-3.011-2.047-6.35-5.539-6.134-5.901.215-.362 3.874 1.085 3.974.485-3.328-2.647-5.051-5.785-4.944-6.139.108-.362 3.654 1.208 3.87.484-3.331-2.769-5.162-5.062-5.054-5.539.107-.484 2.907.962 3.008.362-2.37-2.169-4.193-5.062-4.085-5.423.107-.362 2.369.723 2.477.238-2.37-1.808-3.87-3.977-3.654-4.216.215-.238 1.83.6 2.046.123-1.293-.961-3.008-2.769-3.008-3.131 0-.361 1.508.485 1.615.123-1.292-1.207-2.261-2.531-2.261-2.769s.754.238.861-.123c-1.092-.969-1.738-2.539-1.738-2.539Z" fill="#305937"/><path d="M993.389 719.852s-.946 2.123-2.131 2.923c0 .27 1.3-.53 1.423-.269.116.269-2.015 2.785-2.846 3.316.239.4 1.662-.531 1.777-.269.115.269-2.015 2.654-3.085 3.454.477.53 2.37-.8 2.493-.531.115.269-3.316 4.777-4.385 5.308.115.4 2.608-.8 2.723-.531.115.269-3.2 5.308-4.27 6.108.239.531 2.493-1.192 2.724-.661.238.531-4.031 5.708-5.101 6.37.239.4 3.908-.931 4.031-.531.124.4-3.677 5.839-5.331 6.77.116.53 3.793-1.331 4.031-.801.239.531-4.623 5.709-6.162 6.639 0 .662 5.924-1.061 6.047-.661.123.4-4.624 4.246-6.047 5.046 0 .531 12.917-1.861 13.748-1.861.83 0 14.342 2.123 14.702 1.592-2.61-1.061-6.4-3.985-6.29-4.516.12-.53 6.05 1.193 6.29.531-3.32-2.254-6.99-6.108-6.76-6.5.24-.393 4.27 1.192 4.39.531-3.68-2.924-5.57-6.37-5.455-6.77.115-.4 4.035 1.331 4.265.531-3.67-3.055-5.688-5.578-5.565-6.109.115-.53 3.205 1.062 3.315.4-2.607-2.392-4.623-5.577-4.5-5.969.123-.393 2.61.8 2.72.269-2.604-1.993-4.266-4.377-4.028-4.647.239-.269 2.016.662 2.255.131-1.424-1.061-3.316-3.054-3.316-3.454 0-.4 1.662.531 1.777.131-1.423-1.331-2.493-2.785-2.493-3.054 0-.27.831.269.947-.131-1.185-1.062-1.893-2.785-1.893-2.785Z" fill="#123F18"/><path d="M969.583 705.235s-1.793 4.316-4.031 5.939c0 .539 2.461-1.077 2.692-.538.223.538-3.808 5.669-5.377 6.746.446.808 3.139-1.076 3.362-.538.223.539-3.808 5.4-5.824 7.016.9 1.077 4.485-1.616 4.708-1.077.223.538-6.277 9.716-8.293 10.793.223.808 4.931-1.615 5.154-1.077.224.539-6.054 10.793-8.069 12.417.446 1.077 4.708-2.431 5.154-1.347.446 1.077-7.624 11.601-9.639 12.955.446.808 7.393-1.892 7.623-1.077.223.808-6.946 11.87-10.085 13.763.223 1.077 7.17-2.7 7.624-1.616.446 1.077-8.74 11.601-11.655 13.494 0 1.346 11.208-2.162 11.432-1.347.223.808-8.74 8.64-11.432 10.255 0 1.077 24.433-3.777 26.002-3.777 1.569 0 27.118 4.316 27.795 3.239-4.932-2.162-12.101-8.093-11.878-9.178.223-1.077 11.431 2.431 11.878 1.077-6.278-4.585-13.225-12.416-12.778-13.224.446-.808 8.069 2.431 8.293 1.077-6.947-5.939-10.532-12.955-10.309-13.763.223-.808 7.624 2.7 8.07 1.077-6.947-6.208-10.755-11.331-10.532-12.416.223-1.077 6.055 2.162 6.278.808-4.931-4.855-8.739-11.332-8.516-12.148.223-.807 4.931 1.616 5.154.539-4.931-4.047-8.07-8.909-7.624-9.447.446-.539 3.808 1.346 4.262.269-2.692-2.162-6.277-6.208-6.277-7.016 0-.808 3.138 1.077 3.361.269-2.692-2.7-4.708-5.669-4.708-6.208 0-.538 1.57.539 1.793-.269-2.262-2.162-3.608-5.67-3.608-5.67Z" fill="#45684A"/><path d="M1010.73 719.081s-1.49 3.3-3.35 4.539c0 .415 2.05-.823 2.23-.416.19.416-3.16 4.332-4.46 5.155.37.615 2.6-.823 2.79-.416.19.416-3.16 4.124-4.83 5.362.75.823 3.72-1.238 3.91-.823.18.416-5.21 7.424-6.88 8.247.19.615 4.09-1.239 4.28-.823.18.415-5.025 8.247-6.694 9.485.369.823 3.904-1.854 4.274-1.031.37.824-6.321 8.87-7.99 9.901.369.616 6.14-1.446 6.32-.823.19.615-5.758 9.07-8.366 10.516.184.823 5.946-2.061 6.323-1.238.377.823-7.254 8.87-9.67 10.308 0 1.031 9.293-1.646 9.486-1.031.184.616-7.255 6.601-9.486 7.84 0 .823 20.273-2.885 21.573-2.885 1.3 0 22.5 3.3 23.05 2.477-4.09-1.646-10.04-6.185-9.85-7.008.18-.824 9.48 1.854 9.85.823-5.2-3.508-10.97-9.486-10.6-10.101.37-.616 6.7 1.854 6.88.823-5.76-4.539-8.74-9.901-8.55-10.516.18-.616 6.32 2.061 6.69.823-5.76-4.747-8.92-8.662-8.74-9.486.18-.823 5.02 1.647 5.21.616-4.09-3.716-7.26-8.662-7.06-9.278.18-.615 4.09 1.239 4.27.416-4.09-3.093-6.69-6.809-6.32-7.216.37-.408 3.16 1.031 3.53.207-2.23-1.646-5.21-4.746-5.21-5.362 0-.615 2.6.824 2.79.208-2.23-2.062-3.9-4.331-3.9-4.746 0-.416 1.3.415 1.48-.208-1.87-1.662-2.98-4.339-2.98-4.339ZM1063.17 711.83c.58.115.08 5.985.41 6.085.33.1 1.58-1.492 1.83-1.1.24.4-1.74 2.293-1.83 3.093-.08.8.17.9.42.7.25-.2.99-1.3 1.16-1 .17.3-.83 1.4-1.25 2.192-.41.8-.5 1.592-.08 1.4.42-.2 1.41-1.692 1.58-1.4.17.3-.83 1.693-1.08 2.193-.25.5-.17 1 .25.6.41-.4 2.9-2.893 3.14-2.693.25.2-.57 1.593-1.32 2.493-.75.9-2.4 2.192-2.57 2.892-.17.7-.08 1.1.33.7.42-.4 3.23-2.592 3.4-2.292.17.3-.91 1.792-1.65 2.492-.75.7-1.74 1.993-1.83 2.493-.08.5-.17.8.75.3s2.24-1.2 3.23-1.793c.99-.6 1.32-1.4 1.49-1.2.17.2.17.8-.57 1.593-.75.8-2.57 2.292-2.57 2.492 0 .2.33.2 1.16 0 .83-.2 1.58-.5 1.65-.4.09.1-.83 1.493-2.07 2.193-1.24.7-1.9 1.1-1.65 1.892.25.8 1.16.1 1.98-.4.83-.5 1.58-1.3 1.74-1.1.17.2-1.49 2.192-1.32 2.292.17.1.75 0 1.74-.7s1.49-1.2 1.57-.9c.09.3-.24 1.3-1.32 2.093-1.08.8-2.65 1.792-2.65 2.092 0 .3.33.7 1.41.3 1.07-.4 2.23-1.3 2.32-1 .08.3-1.08 1.593-1.91 2.093-.83.5-1.41.7-1.41.9 0 .2.66.5 2.24 0s1.99-.9 2.07-.6c.09.3-.83 1.892-2.24 2.092-1.41.2-2.07.3-2.15.4-.09.1-.42.9-1.41 1-.99.1-2.57-.8-3.48-.7-.9.1-1.49.8-2.73.6-1.24-.2-.99-.6-1.74-.6-.74 0-4.88-.7-4.88-1.1 0-.4 4.48-.5 4.88-.7.41-.2.09-.6-.66-.9-.74-.3-5.47-3.493-5.38-3.993.08-.5 2.24.7 3.64 1.2 1.41.501 2.16.901 2.33.601.17-.3-.66-.601-1.99-1.593-1.32-1-2.4-1.792-2.15-2.092.24-.3 1.58.7 2.81 1.3 1.25.6 1.5.6 1.58.3.09-.3-1.91-1.893-1.74-2.093.17-.2 1.49.6 2.16.9.66.3.99.5 1.07.1.09-.4-1.24-1.1-2.4-1.692-1.16-.6-3.31-2.293-3.23-2.793.09-.5 1.74.7 2.82 1.2 1.07.501 1.57.701 1.57.3 0-.4-.83-1.3-1.65-1.992s-1.49-1.4-1.41-1.692c.09-.3 2.33 1.2 2.57.8.25-.4-.24-.8-1.07-2.093-.84-1.3-1-1.792-.84-1.992.17-.2 3.98 3.892 4.31 3.992.33.1.42-.6.09-1-.33-.4-3.06-3.092-2.9-3.292.17-.2 1.98 1.492 2.32 1.3.33-.2-1.74-2.493-1.58-2.693.17-.2 2.73 2.393 2.99 2.193.24-.2.41-.8-.09-1.4-.5-.6-3.47-3.993-3.23-4.193.25-.2 3.23 2.292 3.56 2.693.33.4.17-1.201-.17-1.793-.33-.6-1.98-1.692-1.73-1.792.24-.1 1.65.2 2.07.5.41.3.74-.1.5-.9-.25-.801-2.49-3.993-2.4-4.193.08-.2 2.15 2.192 2.4 2.092.21-.092.3-5.377.79-5.277Z" fill="#305937"/><path d="M1067.18 729.015s.4 1.615 1.41 2.423c1.01.808 1.41 1.077 1.21 1.346-.2.27-.5-.407-.71-.138-.2.269.2.538 0 .808-.2.269-.4-.27-.61 0-.2.269.81 1.615 1.21 1.885.4.269.81.538.81.807 0 .27-.61.27-.81 0-.2-.269-.4-.808-.61-.538-.2.269 0 .538-.2.538s-.2-.269-.4 0c-.2.27.4 1.077.81 1.347.4.269 2.16.815 2.21 1.346.04.4-.47.4-.7.4-.22 0-.22.1-.14.392.07.3-.08.492-.37.492-.3 0-.82-.692-1.04-.692-.22 0-.3.3-.15.592.15.301 2.15 2.178 2.97 2.77.81.592 1.63 1.092 1.7 1.485.07.392-.74.492-.97.392-.22-.1-.37-.2-.44-.1-.08.1-.08.592-.59.592-.52 0-.9-.692-.97-.692-.07 0-.07.592-.37.592-.29 0-.44-.492-.59-.492-.14 0-.22.2-.08.692.15.493 2.52 3.37 3.49 4.162.96.793 2.22.993 2.29 1.185.07.192-.07.692-1.04.792-.96.1-1.33-.3-1.4-.392-.08-.092-.15 0-.15.3s0 .392-.3.392-.59-.792-.67-.692c-.08.1 0 .492-.22.792-.23.3-.52-.1-.67-.1-.15 0-.23.2-.15.393.08.2 1.33 2.677 2.96 4.262 1.63 1.584 3.63 2.177 3.63 2.377 0 .2-.44.692-1.03.692-.6 0-.9 0-.9.1s-.14.792-.59.692c-.44-.1-1.48-.892-1.63-.892-.15 0 .08.992-.45 1.092-.51.1-.81-.792-.89-.792-.07 0 .15.992-.44.892-.6-.1-1.27-1.384-1.41-1.384-.15 0 .14.792-.15.892-.29.1-1.18-.692-1.33-.692-.15 0-.08 1.184-.51 1.092-.45-.1-.67-.892-1.04-.892s-.67.792-.96.792c-.3 0-.08-.892-.37-.992-.3-.1-.67.692-1.19.692-.51 0-.14-.892-.51-.992-.37-.1-1.04.892-1.41.892-.37 0-.15-.792-.45-.892-.3-.1-.81 1.092-1.18 1.092-.37 0 .07-1.092-.15-1.092s-.89.692-1.33.692c-.44 0-.22-.992-.45-.992-.22 0-.44.592-1.03.492-.6-.1-.74-.392-.6-.592.15-.2 2.37-2.077 4-4.162s1.86-2.87 1.7-3.17c-.14-.3-.51.493-.81.393-.3-.1.14-.893-.08-.993-.22-.1-.74.893-1.33.893-.59 0-.37-.493-.37-.693 0-.2-1.11.2-1.18-.2-.08-.4 2.07-1.184 3.48-2.577 1.41-1.385 1.86-3.469 1.86-3.762 0-.292-.37-.2-.52 0-.15.2-.96.693-1.11.693-.14 0-.22-.493-.3-.493-.07 0-.22.493-.67.493-.44 0-.3-.393-.44-.493-.15-.1-.52 0-.9-.1-.37-.1-.3-.3 0-.392.3-.1 1.63-.792 2.97-2.277 1.33-1.485 1.55-2.177 1.48-2.377-.08-.2-.74.3-.89.3-.15 0-.22-.393-.3-.393-.08 0-.52.393-.67.3-.15-.1.15-.592.08-.692-.07-.1-.97.2-.9-.1.07-.3.9-.3 1.7-.992.82-.693 1.63-1.885 1.56-2.077-.08-.193-.52.492-.74.392-.22-.1-.22-.3-.3-.2-.08.1-.15.3-.3.3s.08-.392-.15-.3c-.22.1-.51.2-.51 0s.44-.492 1.33-1.485c.89-.992.74-1.885.74-1.885s-.52.393-.67.3c-.15-.1 0-.392-.15-.392-.14 0-.67.1-.59-.1.08-.2.59.1 1.48-1.185.93-1.269.93-2.223 1.15-2.192Z" fill="#406632"/><path d="M1057.2 750.678c.29.054.04 2.724.21 2.77.17.046.8-.677.92-.5.12.184-.88 1.046-.92 1.408-.04.361.08.407.2.315.13-.092.5-.592.59-.454.08.139-.42.639-.63 1-.22.362-.26.723-.04.639.21-.093.72-.77.8-.639.08.139-.42.77-.55 1-.13.231-.08.454.13.27.2-.185 1.47-1.316 1.59-1.224.12.093-.29.724-.67 1.131-.38.408-1.22 1-1.3 1.316-.08.315-.04.5.17.315.21-.184 1.64-1.177 1.71-1.046.09.138-.46.815-.83 1.131-.38.315-.88.908-.93 1.131-.04.223-.08.361.38.138.46-.223 1.13-.546 1.64-.815.5-.27.67-.639.75-.547.09.093.09.362-.29.724-.38.361-1.3 1.046-1.3 1.13 0 .085.17.093.58 0 .42-.092.8-.223.84-.184.04.046-.41.677-1.04 1-.63.323-.96.5-.84.862.12.361.58.046 1.01-.185.41-.223.8-.592.87-.5.09.092-.75 1-.67 1.046.09.046.38 0 .88-.315.5-.316.75-.547.8-.408.04.138-.12.592-.67.954-.54.361-1.34.815-1.34.954 0 .138.17.315.72.138.54-.184 1.13-.592 1.18-.454.03.139-.55.724-.97.954-.41.223-.71.316-.71.408 0 .092.34.223 1.13 0 .8-.223 1.01-.408 1.05-.269.03.138-.42.861-1.14.954-.71.092-1.04.138-1.09.184-.04.047-.21.408-.71.454-.5.046-1.3-.361-1.76-.315-.47.046-.76.361-1.39.269-.63-.092-.5-.269-.88-.269-.37 0-2.47-.316-2.47-.5 0-.185 2.27-.223 2.47-.316.21-.092.04-.269-.33-.407-.38-.139-2.77-1.585-2.73-1.816.04-.223 1.13.316 1.85.546.71.223 1.09.408 1.18.27.08-.139-.34-.27-1.01-.724-.67-.453-1.22-.815-1.1-.954.13-.138.81.316 1.43.593.62.277.75.269.8.138.04-.138-.96-.861-.88-.954.09-.092.76.27 1.09.408.34.139.5.223.55.046.04-.184-.63-.5-1.22-.769-.58-.269-1.67-1.046-1.63-1.269.03-.223.87.315 1.42.546.55.231.8.315.8.138 0-.184-.42-.592-.84-.907-.41-.316-.75-.639-.72-.77.04-.138 1.18.546 1.31.362.12-.185-.13-.362-.55-.954-.42-.592-.5-.816-.42-.908.09-.092 2.02 1.77 2.18 1.816.17.046.21-.27.04-.454-.17-.185-1.55-1.408-1.47-1.5.08-.093 1.01.677 1.18.592.17-.092-.88-1.131-.8-1.223.08-.093 1.38 1.092 1.5 1 .13-.092.21-.362-.03-.639-.26-.269-1.77-1.815-1.64-1.907.12-.093 1.64 1.046 1.8 1.223.17.184.08-.546-.09-.816-.17-.269-1-.769-.87-.815.12-.046.83.092 1.04.223.21.138.38-.046.26-.408-.13-.361-1.26-1.815-1.22-1.908.04-.092 1.09 1 1.22.954.12-.046.17-2.454.42-2.408Z" fill="#305937"/><path d="M1048.37 724.468s.76 2.746 2.66 4.124c1.9 1.377 2.66 1.83 2.29 2.292-.38.462-.96-.685-1.33-.231-.38.462.37.916 0 1.377-.38.462-.77-.461-1.14 0-.38.462 1.52 2.747 2.28 3.208.76.462 1.52.916 1.52 1.377 0 .462-1.13.462-1.52 0-.38-.461-.76-1.377-1.14-.915-.37.461 0 .915-.37.915-.38 0-.38-.461-.77 0-.37.462.77 1.831 1.53 2.293.76.461 4.08 1.384 4.18 2.292.08.677-.91.677-1.32.677-.42 0-.42.169-.28.677.14.508-.14.839-.7.839-.56 0-1.54-1.177-1.95-1.177-.42 0-.56.507-.28 1.007.29.501 4.06 3.708 5.59 4.716 1.54 1.008 3.08 1.854 3.22 2.524.14.677-1.4.838-1.82.677-.42-.17-.7-.339-.83-.17-.14.17-.14 1.008-1.12 1.008-.98 0-1.68-1.177-1.82-1.177-.13 0-.13 1.008-.7 1.008-.56 0-.83-.839-1.11-.839-.28 0-.42.339-.14 1.177.28.839 4.75 5.724 6.57 7.07 1.82 1.346 4.19 1.685 4.34 2.023.15.339-.14 1.177-1.95 1.347-1.82.169-2.52-.508-2.66-.677-.14-.17-.28 0-.28.507 0 .508 0 .677-.56.677s-1.11-1.346-1.26-1.177c-.15.17 0 .839-.42 1.347-.43.507-.98-.17-1.26-.17s-.43.339-.28.677c.14.339 2.51 4.547 5.59 7.239 3.08 2.693 6.86 3.708 6.86 4.039 0 .339-.84 1.177-1.96 1.177-1.11 0-1.67 0-1.67.169 0 .17-.28 1.347-1.12 1.177-.84-.169-2.8-1.515-3.08-1.515-.27 0 .14 1.685-.84 1.854-.97.169-1.53-1.346-1.67-1.346-.14 0 .27 1.684-.84 1.515-1.12-.169-2.38-2.354-2.66-2.354-.27 0 .28 1.346-.27 1.516-.56.169-2.24-1.177-2.52-1.177-.27 0-.14 2.023-.97 1.854-.84-.17-1.27-1.516-1.96-1.516-.7 0-1.26 1.346-1.81 1.346-.57 0-.14-1.515-.7-1.684-.57-.17-1.27 1.177-2.24 1.177-.98 0-.28-1.516-.98-1.685-.7-.169-1.95 1.515-2.65 1.515s-.28-1.346-.84-1.515c-.56-.169-1.54 1.854-2.24 1.854-.7 0 .14-1.854-.28-1.854-.42 0-1.68 1.177-2.51 1.177-.84 0-.43-1.685-.84-1.685-.43 0-.84 1.008-1.96.839-1.11-.17-1.4-.677-1.11-1.008.27-.339 4.48-3.539 7.55-7.07 3.08-3.539 3.5-4.885 3.22-5.385-.28-.508-.98.839-1.54.677-.56-.169.28-1.515-.14-1.685-.41-.169-1.4 1.516-2.51 1.516-1.12 0-.7-.839-.7-1.177 0-.339-2.1.338-2.24-.339-.14-.677 3.91-2.023 6.57-4.377 2.65-2.354 3.49-5.893 3.49-6.401 0-.507-.7-.338-.98 0-.27.339-1.81 1.177-2.1 1.177-.27 0-.42-.838-.56-.838-.14 0-.42.838-1.26.838-.84 0-.56-.676-.84-.838-.28-.162-.98 0-1.68-.169-.7-.17-.56-.508 0-.677.56-.17 3.08-1.347 5.6-3.87 2.51-2.523 2.93-3.708 2.8-4.039-.14-.338-1.4.508-1.68.508s-.42-.677-.56-.677c-.14 0-.98.677-1.26.508-.29-.169.27-1.008.13-1.177-.13-.169-1.81.338-1.67-.169.14-.508 1.67-.508 3.21-1.685s3.08-3.2 2.94-3.539c-.14-.338-.98.839-1.4.677-.42-.161-.42-.508-.56-.338-.14.169-.28.507-.56.507-.29 0 .14-.677-.28-.507-.42.169-.98.338-.98 0 0-.339.84-.839 2.52-2.524 1.68-1.684 1.4-3.2 1.4-3.2s-.98.677-1.26.508c-.28-.169 0-.677-.28-.677s-1.26.169-1.11-.169c.14-.339 1.11.169 2.8-2.024 1.6-2.208 1.6-3.831 2.02-3.777Z" fill="#406632"/><path d="M1117.34 733.338c.5.092.07 4.662.36 4.739.29.077 1.37-1.162 1.58-.854.22.308-1.51 1.785-1.58 2.408-.06.623.15.7.37.546.21-.154.86-1.008 1-.777.15.231-.71 1.085-1.07 1.708-.36.623-.43 1.246-.07 1.085.36-.154 1.22-1.324 1.36-1.085.14.238-.72 1.323-.93 1.708-.22.384-.15.777.21.469.37-.308 2.52-2.254 2.73-2.1.22.154-.5 1.246-1.14 1.938-.65.7-2.09 1.708-2.22 2.254-.15.547-.07.854.28.547.36-.308 2.8-2.024 2.95-1.785.14.238-.8 1.4-1.44 1.938-.65.547-1.51 1.554-1.58 1.939-.07.392-.15.623.65.231.79-.385 1.94-.931 2.8-1.4.86-.469 1.14-1.085 1.29-.931.15.154.15.623-.5 1.246s-2.22 1.785-2.22 1.939c0 .154.28.154 1 0s1.37-.385 1.44-.308c.07.077-.71 1.162-1.79 1.708s-1.65.854-1.44 1.477c.22.623 1.01.077 1.72-.308.72-.392 1.37-1.008 1.51-.854.15.154-1.29 1.708-1.14 1.785.14.077.64 0 1.5-.546.87-.546 1.3-.931 1.37-.7.06.231-.22 1.008-1.15 1.631-.93.623-2.3 1.4-2.3 1.631 0 .23.28.546 1.22.23.93-.307 1.94-1.007 2.01-.777.07.231-.93 1.247-1.65 1.631-.72.393-1.23.547-1.23.7 0 .154.58.385 1.94 0 1.36-.392 1.72-.7 1.79-.469.07.231-.71 1.477-1.93 1.631-1.23.154-1.8.231-1.87.308-.07.077-.37.7-1.23.777-.86.077-2.22-.623-3.01-.546-.79.076-1.29.623-2.37.469-1.08-.154-.86-.469-1.51-.469s-4.24-.547-4.24-.854c0-.308 3.88-.393 4.24-.547.36-.153.07-.469-.58-.7-.64-.23-4.74-2.715-4.67-3.108.07-.392 1.94.547 3.17.931 1.22.393 1.86.7 2 .47.14-.231-.57-.47-1.72-1.247-1.15-.777-2.08-1.4-1.87-1.631.22-.23 1.36.547 2.44 1.008 1.08.469 1.29.469 1.36.231.07-.231-1.65-1.477-1.51-1.631.15-.154 1.3.469 1.87.7.58.231.86.392.93.077.07-.308-1.07-.854-2.08-1.323s-2.87-1.785-2.8-2.177c.07-.393 1.51.546 2.44.931.93.384 1.36.546 1.36.23 0-.315-.72-1.007-1.44-1.554-.72-.546-1.29-1.084-1.22-1.323.07-.231 2 .931 2.22.623.22-.307-.22-.623-.93-1.631-.72-1.007-.86-1.4-.72-1.554.15-.153 3.45 3.031 3.73 3.108.29.077.37-.469.07-.777-.29-.307-2.65-2.407-2.51-2.561.14-.154 1.72 1.161 2.01 1.007.28-.153-1.51-1.938-1.37-2.1.15-.161 2.37 1.862 2.59 1.708.22-.154.36-.623-.07-1.085-.43-.469-3.02-3.108-2.8-3.261.22-.154 2.8 1.784 3.09 2.1.28.315.14-.931-.15-1.4-.29-.47-1.72-1.324-1.51-1.4.22-.077 1.44.153 1.79.392.37.231.65-.077.43-.7-.21-.623-2.15-3.108-2.08-3.262.07-.154 1.87 1.708 2.08 1.631.24-.046.31-4.162.74-4.085Z" fill="#305937"/><path d="M1100.6 748.578s-.55 1.239-1.24 1.7c0 .154.76-.307.83-.154.07.154-1.18 1.624-1.65 1.931.14.231.97-.307 1.04-.154.07.154-1.18 1.547-1.8 2.008.28.308 1.38-.461 1.45-.307.07.153-1.93 2.784-2.55 3.092.06.231 1.51-.461 1.58-.308.07.154-1.86 3.093-2.48 3.555.13.307 1.44-.693 1.58-.385.14.308-2.35 3.323-2.97 3.708.14.231 2.28-.539 2.35-.308.07.231-2.14 3.401-3.11 3.939.07.308 2.21-.769 2.35-.462.13.308-2.7 3.324-3.59 3.862 0 .385 3.45-.615 3.52-.384.07.23-2.69 2.469-3.52 2.938 0 .308 7.52-1.084 8.01-1.084.48 0 8.35 1.238 8.55.93-1.51-.615-3.72-2.315-3.65-2.63.07-.316 3.52.692 3.65.307-1.93-1.315-4.07-3.554-3.93-3.785.14-.231 2.49.693 2.56.308-2.14-1.7-3.25-3.708-3.18-3.939.07-.231 2.35.77 2.48.308-2.13-1.777-3.31-3.246-3.24-3.554.07-.308 1.86.615 1.93.231-1.52-1.393-2.69-3.247-2.62-3.478.06-.23 1.51.462 1.58.154-1.52-1.161-2.48-2.546-2.35-2.708.14-.154 1.18.385 1.31.077-.83-.615-1.93-1.777-1.93-2.008 0-.23.97.308 1.04.077-.83-.769-1.45-1.623-1.45-1.777 0-.154.49.154.56-.077-.7-.615-1.11-1.623-1.11-1.623Z" fill="#123F18"/><path d="M926.868 698.625s1.37 5.385 4.778 8.078c3.415 2.692 4.777 3.592 4.1 4.492-.685.901-1.708-1.346-2.393-.446-.684.9.685 1.793 0 2.693-.684.9-1.369-.9-2.046 0-.685.9 2.731 5.385 4.1 6.285 1.37.9 2.731 1.792 2.731 2.693 0 .9-2.046.9-2.731 0-.684-.901-1.369-2.693-2.046-1.793-.685.9 0 1.793-.685 1.793-.684 0-.684-.901-1.369 0-.685.9 1.369 3.592 2.731 4.492 1.369.9 7.331 2.708 7.508 4.493.131 1.331-1.623 1.331-2.377 1.331-.754 0-.754.331-.5 1.323s-.254 1.654-1.254 1.654c-1.008 0-2.762-2.308-3.516-2.308-.753 0-1.007.992-.499 1.977.5.992 7.277 7.262 10.039 9.239 2.762 1.977 5.523 3.631 5.769 4.955.247 1.323-2.507 1.654-3.261 1.323-.754-.331-1.254-.662-1.508-.331s-.254 1.977-2.008 1.977-3.016-2.308-3.262-2.308-.254 1.977-1.254 1.977-1.508-1.654-2.008-1.654-.754.662-.254 2.308c.501 1.654 8.532 11.224 11.794 13.863 3.262 2.639 7.531 3.3 7.777 3.962.247.661-.254 2.308-3.515 2.638-3.262.331-4.516-.992-4.77-1.323-.254-.331-.5 0-.5.993 0 .992 0 1.323-1.008 1.323s-2.008-2.639-2.261-2.308c-.254.331 0 1.654-.754 2.639-.754.992-1.754-.331-2.262-.331-.5 0-.754.661-.5 1.323.254.662 4.516 8.908 10.039 14.193 5.524 5.278 12.301 7.263 12.301 7.924 0 .662-1.508 2.308-3.516 2.308-2.007 0-3.015 0-3.015.331s-.5 2.639-2.008 2.308c-1.508-.331-5.024-2.97-5.524-2.97s.254 3.301-1.507 3.631c-1.754.331-2.762-2.638-3.016-2.638s.5 3.3-1.508 2.969c-2.008-.331-4.269-4.623-4.769-4.623s.5 2.638-.5 2.969c-1.008.331-4.016-2.308-4.516-2.308s-.254 3.962-1.754 3.631c-1.508-.33-2.262-2.969-3.516-2.969s-2.262 2.639-3.262 2.639-.254-2.97-1.254-3.301c-1.007-.331-2.261 2.308-4.015 2.308-1.754 0-.5-2.969-1.754-3.3-1.254-.331-3.516 2.969-4.77 2.969-1.254 0-.5-2.638-1.508-2.969-1.008-.331-2.762 3.631-4.016 3.631-1.253 0 .254-3.631-.5-3.631-.753 0-3.015 2.308-4.515 2.308-1.5 0-.754-3.301-1.508-3.301s-1.508 1.978-3.516 1.654c-2.008-.33-2.508-1.323-2.008-1.977.5-.661 8.032-6.931 13.555-13.862 5.524-6.932 6.278-9.57 5.77-10.563-.5-.992-1.754 1.654-2.762 1.323-1.008-.33.5-2.969-.254-3.3-.754-.331-2.508 2.97-4.515 2.97-2.008 0-1.254-1.654-1.254-2.308 0-.654-3.762.661-4.016-.662s7.031-3.962 11.793-8.585c4.77-4.624 6.278-11.555 6.278-12.54 0-.992-1.254-.661-1.754 0-.5.662-3.262 2.308-3.762 2.308s-.754-1.654-1.008-1.654-.754 1.654-2.262 1.654c-1.507 0-1.007-1.323-1.508-1.654-.5-.331-1.753 0-3.015-.331-1.254-.33-1.008-.992 0-1.323 1.008-.33 5.523-2.638 10.039-7.593 4.516-4.954 5.27-7.262 5.024-7.923-.247-.662-2.508.992-3.016.992-.5 0-.754-1.323-1.008-1.323s-1.754 1.323-2.262.992c-.5-.331.501-1.977.254-2.308-.253-.33-3.261.662-3.015-.33.254-.993 3.015-.993 5.769-3.301 2.762-2.308 5.524-6.269 5.27-6.931-.254-.662-1.754 1.654-2.508 1.323-.754-.331-.754-.992-1.008-.661-.253.33-.5.992-1.007.992-.508 0 .254-1.323-.5-.992-.754.33-1.754.661-1.754 0 0-.662 1.507-1.654 4.515-4.955 3.008-3.3 2.508-6.269 2.508-6.269s-1.754 1.323-2.261.992c-.5-.331 0-1.323-.501-1.323-.5 0-2.261.331-2.007-.331s2.008.331 5.023-3.962c3.016-4.293 3.054-7.477 3.808-7.37Z" fill="#406632"/><path d="M877.602 693.714c2.262.453.323 23.432 1.624 23.817 1.3.384 6.162-5.854 7.139-4.293.969 1.562-6.809 8.986-7.139 12.109-.331 3.123.646 3.516 1.623 2.731.969-.785 3.892-5.077 4.539-3.908.646 1.169-3.247 5.47-4.862 8.593-1.616 3.123-1.947 6.247-.323 5.47 1.623-.777 5.515-6.639 6.162-5.47.646 1.169-3.247 6.639-4.216 8.593-.969 1.954-.646 3.908.969 2.346 1.623-1.561 11.355-11.324 12.324-10.547.97.785-2.269 6.247-5.192 9.763-2.924 3.515-9.409 8.593-10.055 11.324-.646 2.731-.323 4.292 1.3 2.731 1.623-1.562 12.647-10.155 13.301-8.986.646 1.17-3.569 7.032-6.485 9.763-2.916 2.731-6.808 7.808-7.139 9.762-.323 1.954-.646 3.123 2.916 1.169 3.569-1.954 8.754-4.685 12.647-7.031 3.892-2.346 5.192-5.47 5.839-4.685.646.785.646 3.123-2.27 6.247-2.915 3.123-10.054 8.985-10.054 9.762 0 .785 1.3.785 4.538 0 3.247-.785 6.162-1.954 6.486-1.562.323.393-3.247 5.855-8.109 8.593-4.862 2.731-7.462 4.293-6.485 7.416.969 3.124 4.539.393 7.785-1.561 3.247-1.954 6.162-5.078 6.809-4.293.646.785-5.839 8.593-5.193 8.985.646.393 2.915 0 6.808-2.731s5.839-4.685 6.162-3.515c.323 1.169-.969 5.077-5.193 8.2-4.223 3.124-10.377 7.032-10.377 8.201 0 1.169 1.3 2.731 5.515 1.169 4.216-1.561 8.755-5.077 9.078-3.908.323 1.17-4.216 6.247-7.462 8.201-3.246 1.954-5.516 2.731-5.516 3.516 0 .784 2.593 1.954 8.755 0 6.162-1.954 7.785-3.516 8.108-2.347.323 1.17-3.246 7.416-8.754 8.201-5.509.785-8.109 1.169-8.432 1.562-.323.392-1.623 3.515-5.516 3.908-3.892.392-10.055-3.124-13.624-2.731-3.57.392-5.839 3.123-10.701 2.346-4.862-.785-3.893-2.346-6.808-2.346-2.916 0-19.133-2.731-19.133-4.293 0-1.562 17.517-1.954 19.133-2.731 1.623-.785.323-2.346-2.593-3.516-2.915-1.169-21.409-13.67-21.078-15.616.33-1.947 8.754 2.731 14.27 4.685 5.516 1.954 8.432 3.515 9.078 2.346.646-1.169-2.593-2.346-7.785-6.247-5.193-3.908-9.409-7.031-8.432-8.2.977-1.17 6.162 2.731 11.024 5.077 4.862 2.346 5.839 2.346 6.162 1.169.323-1.169-7.462-7.416-6.808-8.2.646-.785 5.839 2.346 8.431 3.515 2.593 1.17 3.893 1.954 4.216.393.323-1.562-4.862-4.293-9.408-6.639-4.547-2.347-12.971-8.986-12.648-10.932.323-1.946 6.809 2.731 11.024 4.685 4.216 1.954 6.162 2.731 6.162 1.169 0-1.561-3.246-5.077-6.485-7.808-3.246-2.731-5.839-5.47-5.516-6.639.323-1.169 9.078 4.685 10.055 3.123.969-1.561-.969-3.123-4.216-8.2-3.246-5.078-3.892-7.032-3.246-7.809.646-.784 15.57 15.232 16.863 15.617 1.3.392 1.623-2.346.323-3.908-1.3-1.562-12.001-12.109-11.355-12.886.646-.784 7.785 5.855 9.078 5.078 1.3-.785-6.808-9.763-6.162-10.547.646-.785 10.701 9.37 11.678 8.593.969-.785 1.623-3.124-.323-5.47-1.947-2.346-13.625-15.617-12.648-16.401.97-.785 12.648 8.985 13.948 10.547 1.3 1.561.646-4.685-.646-7.032-1.301-2.346-7.786-6.639-6.809-7.031.969-.392 6.485.785 8.109 1.954 1.623 1.169 2.915-.392 1.946-3.516-.969-3.123-9.732-15.616-9.409-16.401.324-.785 8.432 8.593 9.409 8.2 1-.384 1.323-21.086 3.269-20.693Z" fill="#305937"/><path d="M822.593 734.923s-1.539 3.446-3.462 4.739c0 .43 2.115-.862 2.308-.431.192.431-3.27 4.523-4.616 5.385.384.646 2.692-.862 2.885-.431.192.431-3.27 4.308-5.001 5.601.77.861 3.847-1.293 4.039-.862.192.431-5.385 7.747-7.116 8.608.192.647 4.231-1.292 4.424-.861.192.431-5.193 8.608-6.924 9.901.385.861 4.039-1.939 4.423-1.077.385.861-6.539 9.254-8.27 10.331.385.646 6.347-1.508 6.539-.861.193.646-5.962 9.47-8.654 10.977.192.862 6.154-2.154 6.539-1.292.385.862-7.501 9.255-10.001 10.762 0 1.077 9.616-1.723 9.809-1.077.192.647-7.501 6.893-9.809 8.178 0 .862 20.956-3.016 22.302-3.016s23.263 3.447 23.84 2.585c-4.231-1.723-10.385-6.462-10.193-7.323.192-.862 9.809 1.938 10.193.861-5.385-3.662-11.347-9.901-10.962-10.547.385-.646 6.924 1.939 7.116.862-5.962-4.739-9.039-10.332-8.847-10.978.192-.646 6.539 2.154 6.924.862-5.962-4.955-9.232-9.04-9.04-9.901.193-.862 5.193 1.723 5.385.646-4.231-3.877-7.5-9.039-7.308-9.686.192-.646 4.231 1.293 4.424.431-4.232-3.231-6.924-7.108-6.539-7.539.384-.431 3.269 1.077 3.654.216-2.308-1.724-5.385-4.955-5.385-5.601 0-.646 2.692.862 2.885.216-2.308-2.154-4.039-4.524-4.039-4.955 0-.431 1.346.431 1.538-.215-1.908-1.716-3.061-4.508-3.061-4.508Z" fill="#305937"/><path d="M1316.89 1083.59c1.66 3.3-16.3 0-19.99 0h-654c-11.182 0-30.884 3.44-40.9-1.79 5.342-2.67 18.99-7.78 24.928-10.68 62.026-30.29 121.222-64.13 177.283-104.892a644.405 644.405 0 0 0 12.58-9.384c31.739-24.305 61.118-51.459 87.444-81.55a597.063 597.063 0 0 0 19.942-24.225 553.226 553.226 0 0 0 5.262-6.855c.89-1.193 1.798-2.395 2.68-3.579l3.24.044h.152l36.359.401 40.45-.036.8-.089c.02.036.12.161.14.196 108.14 148.936 301.85 238.869 303.63 242.439Z" fill="#3D3B38"/><path d="M1010.5 841.189c2.76 7.149 7.81 13.186 12.29 19.329 4.68 6.098 9.54 12.045 14.49 17.93 29.72 35.166 62.07 68.249 97.39 97.807 32.19 26.845 67.44 51.235 101.6 75.655 3.06 2.17 6.23 4.26 9.44 6.3 12.87 8.16 26.31 15.51 39.61 23.57l-4.5 7.19c-12.85-8.15-26.26-15.85-39.2-24.44-3.24-2.15-6.47-4.36-9.63-6.7-33.74-25.27-68.41-50.43-100.22-78.174-40.47-35.647-77.25-75.532-109.68-118.604-3.39-4.683-6.74-9.411-9.57-14.45-.93-1.691-1.82-3.418-2.38-5.297l.36-.116ZM936.135 841.234c-18.794 26.094-38.362 51.779-60.067 75.54-22.053 23.513-44.969 46.313-70.307 66.318-37.694 30.118-79.743 54.838-120.331 80.708-13.595 8.62-27.154 17.29-41.345 25.29l-4.06-7.44c13.987-7.53 27.706-15.9 41.426-24.24 40.89-24.92 83.509-48.73 121.551-77.861 19.203-14.468 37.053-30.635 54.272-47.426 11.52-11.173 22.782-22.613 33.305-34.73 15.598-18.349 30.947-36.983 45.254-56.373 0-.009.302.214.302.214ZM964.296 1081.32l.258-8.91 11.289.1.116 8.9-11.663-.09ZM964.956 1059.31l.614-17.48 10.025.18.116 17.42-10.755-.12ZM966.086 1028.75l.677-17.42 8.76.14.045 17.47-9.482-.19ZM967.216 998.254l.534-17.423 7.496.054.187 17.467-8.217-.098ZM968.051 967.755l.267-17.432h6.588l.205 17.467-7.06-.035ZM968.511 937.226l.338-17.467 5.751.053.143 17.432-6.232-.018ZM969.206 906.67l.267-17.432 4.924.018.204 17.467-5.395-.053ZM969.892 876.073c.302-5.858.819-11.751 1.789-17.592l4.042.615c-.783 5.662-1.122 11.395-1.264 17.156l-4.567-.179ZM974.756 845.482c1.816-5.68 4.318-11.165 7.567-16.177l2.76 1.736c-2.947 4.843-5.172 10.087-6.757 15.536l-3.57-1.095ZM990.712 818.88c1.095-1.024 2.101-2.066 3.258-3.08a37.195 37.195 0 0 1 3.633-2.707c2.497-1.656 5.117-3.054 7.767-4.336l1.09 2.173c-2.55 1.317-5.04 2.742-7.353 4.371a33.874 33.874 0 0 0-3.294 2.6c-1.006.926-2.003 2.012-3.009 3l-2.092-2.021ZM1017.59 803.737a160.419 160.419 0 0 1 16.85-4.923l.38 1.549a158.068 158.068 0 0 0-16.51 5.324l-.72-1.95ZM1047.35 796.429c5.75-.926 11.51-1.745 17.29-2.492l.1.667a556.48 556.48 0 0 0-17.18 3.009l-.21-1.184ZM1077.63 792.394l8.86-.953-8.82 1.22-.04-.267Z" fill="#fff"/><path opacity=".43" d="M2034.96 874.664v43.486c-43.88-.672-90.47-12.295-134.98-20.567-10.19-1.896-20.27-3.616-30.19-4.992-63.62-8.799-93.55-6.399-154.81-6.399-13.77 0-35.83 3.968-58.48 8.207-26.05 4.88-52.89 10.136-68.72 10.144-52.32.024-100.37-4.216-150.05-6.136-21.53-.832-43.36-1.232-65.98-.656-42.95 1.096-85.76 9.912-128.75 10.792-17.97.368-48.44-2.736-65.22-6.288-16.43-3.472 18.36-5.928 26.45-6.96 18.84-2.4 34.93-11.087 53.97-13.151 5.89-.64 11.8-1.232 17.73-1.776 52.97-4.888 107.4-6.256 161.8-7.552 28.56-.68 57.13-1.344 85.47-2.479 87.52-3.512 177.47-18.584 265.37-20.143 74.45-1.32 168.01 19.271 246.39 24.47Z" fill="#707D00"/><path d="M1450 915.455c2.59 0 7.9-.184 7.9-2.848 0-1.328-.65-2.088-1.94-2.28 2.42-.952.97-3.992.16-3.424 2.91-8.935-5.32-8.175-7.73-7.223 9.5-8.552-.16-11.976-3.39-10.456 2.26-3.608-1.44-4.376-1.93-3.608-.97-9.127-11.28-7.415-12.09-3.232-10.8-8.367-14.82 4.184-13.53 6.464-6.61-.192-4.36 5.896-3.55 6.464-6.45.384-5.48 6.84-2.9 9.695-4.19 0-2.91 5.896-.65 5.896-1.61.192-4.51-.192-4.35 2.664.09 1.696.81 1.712 3.7 1.904 2.92.176 39.18-.016 40.3-.016Z" fill="#6FA000"/><path d="M1428.01 889.888c-1.13 1.328.32 2.848 1.61 1.328 1.29-1.512-.48-2.656-1.61-1.328ZM1422.85 895.215c.64 2.08 2.74-.952 1.94-1.52-.81-.576-2.58-.576-1.94 1.52ZM1428.81 894.64c-1.13.568-.16 1.904 1.29 1.328 1.45-.568-.16-1.896-1.29-1.328ZM1440.58 903.576c-1.13 1.327 1.13 2.086 1.61.951.48-1.143-.48-2.279-1.61-.951ZM1447.02 903.008c-.81-1.904-2.25-.76-1.61.952.64 1.712 2.42.952 1.61-.952Z" fill="#5C1B79"/><path d="M1406.21 1017.78c6.18 0 18.88-.46 18.88-7.16 0-3.34-1.54-5.25-4.62-5.72 5.77-2.39 2.31-10.027.38-8.595 6.94-22.438-12.71-20.527-18.49-18.143 22.72-21.487-.39-30.078-8.09-26.262 5.39-9.072-3.46-10.984-4.62-9.072-2.32-22.919-26.97-18.623-28.9-8.12-25.81-21.007-35.44 10.504-32.36 16.232-15.79-.48-10.4 14.799-8.47 16.231-15.41.952-13.09 17.191-6.93 24.351-10.02 0-6.94 14.798-1.55 14.798-3.85.48-10.78-.48-10.4 6.69.23 4.26 1.93 4.29 8.87 4.77 6.93.48 93.61 0 96.3 0Z" fill="#6FA000"/><path d="M1353.63 953.563c-2.69 3.344.77 7.159 3.86 3.344 3.09-3.816-1.16-6.688-3.86-3.344ZM1341.3 966.93c1.54 5.232 6.55-2.384 4.62-3.816-1.92-1.432-6.16-1.432-4.62 3.816ZM1355.56 965.498c-2.69 1.432-.38 4.776 3.08 3.344 3.47-1.432-.38-4.776-3.08-3.344ZM1383.67 987.937c-2.69 3.344 2.7 5.256 3.86 2.384 1.15-2.856-1.16-5.72-3.86-2.384ZM1399.1 986.506c-1.93-4.776-5.39-1.912-3.86 2.384 1.55 4.304 5.78 2.392 3.86-2.384Z" fill="#5C1B79"/><path d="M1332.14 885.246c3.45 0 10.53-.248 10.53-3.807 0-1.776-.85-2.792-2.57-3.04 3.22-1.272 1.29-5.328.22-4.568 3.87-11.92-7.1-10.904-10.32-9.64 12.68-11.415-.22-15.975-4.52-13.951 3.01-4.816-1.93-5.832-2.58-4.816-1.29-12.175-15.05-9.887-16.13-4.311-14.4-11.16-19.78 5.575-18.06 8.623-8.82-.256-5.81 7.864-4.73 8.624-8.6.504-7.31 9.127-3.87 12.935-5.59 0-3.87 7.864-.86 7.864-2.16.256-6.03-.256-5.81 3.551.13 2.264 1.07 2.28 4.94 2.536 3.88.248 52.26 0 53.76 0Z" fill="#4A7737"/><path d="M1284.39 851.138c-1.5 1.776.44 3.808 2.16 1.776 1.72-2.032-.65-3.552-2.16-1.776ZM1277.51 858.23c.85 2.776 3.65-1.272 2.57-2.032-1.07-.752-3.43-.752-2.57 2.032ZM1285.47 857.474c-1.51.76-.22 2.536 1.72 1.776 1.93-.76-.22-2.536-1.72-1.776ZM1301.16 869.391c-1.51 1.776 1.5 2.792 2.15 1.272.65-1.52-.64-3.048-2.15-1.272ZM1309.76 868.63c-1.07-2.536-3.01-1.016-2.15 1.272.86 2.28 3.23 1.264 2.15-1.272Z" fill="#4A7737"/><path d="M1048.9 858.776s-6.79-7.056-4.39-9.408c2.4-2.351 5.99 3.768 5.99 3.768s-6.39-12.231-1.2-15.055c5.18-2.824 7.97 12.703 7.97 12.703s-3.59-26.822 5.99-27.758c9.57-.936 5.58 23.999 5.58 23.999s1.59-14.584 5.98-13.176c4.39 1.408 0 14.119 0 14.119s4.39-10.351 6.79-8.943c2.39 1.408-4.39 15.999-4.39 15.999s4.39-6.12 6.39-4.704c1.99 1.408-3.99 8.472-3.99 8.472h-30.72v-.016Z" fill="#7D9E24"/><path d="M1159.93 917.39s-13.56-14.128-8.78-18.831c4.78-4.704 11.98 7.535 11.98 7.535s-12.78-24.486-2.4-30.134c10.38-5.648 15.97 25.423 15.97 25.423s-7.18-53.678 11.98-55.558c19.16-1.88 11.17 48.022 11.17 48.022s3.19-29.191 11.98-26.367c8.78 2.824 0 28.247 0 28.247s8.78-20.719 13.56-17.895c4.8 2.824-8.78 32.014-8.78 32.014s8.78-12.239 12.78-9.415c3.99 2.823-7.99 16.951-7.99 16.951h-61.47v.008Z" fill="#5A9300"/><path d="M889.5 240.138s-6.852-14.495 8.735-16.119c-1.604-11.528 13.655-28.922 40.142-21.491 4.474-12.562 29.744-34.721 47.331-7.731 33.502-15.335 38.262 6.765 33.782 10.746 25.99-5.131 21.4 14.312 17.03 16.486 34.39-8.03 29.64 18.119 29.64 18.119l-176.66-.01ZM1328.8 334.841s-5-10.582 6.38-11.78c-1.17-8.427 9.97-21.124 29.32-15.703 3.28-9.171 21.73-25.367 34.58-5.644 24.47-11.199 27.94 4.938 24.68 7.847 18.97-3.749 15.63 10.456 12.43 12.041 25.13-5.866 21.65 13.229 21.65 13.229H1328.8v.01Z" fill="#fff"/></g><defs><clipPath id="clip0_131_2635"><path fill="#fff" d="M0 0h1920v1080H0z"/></clipPath></defs></svg>