<svg width="1920" height="1879" fill="none" xmlns="http://www.w3.org/2000/svg"><path d="M-77.19 289.517s-4.164-117.917-3.786-118.049C63.188 122.665 229.44 78.48 511.727 111.454c114.059 13.322 292.346 85.734 423.99 64.281 151.833-24.758 301.333-53.478 415.873-84.725C1622.72 17.04 2009 0 2009 0v127.282S1269.45 54.738 966.661 327.767C576.432 191.912-77.191 289.517-77.191 289.517ZM2009 658.172s-296.73 27.039-399.68 57.949c-102.94 30.911-361.07 97.031-634.332 71.41-180.801-16.949-371.669-28.905-457.963-32.414-194.54-7.914-585.89 34.953-585.89 34.953l-8.326 294.13c780.429 204.45 1827.311 24.78 2086.191-12.53V658.172Z" fill="#7FA024"/><path d="M2009 153.866s-179.4-31.201-417.84-18.011c-238.45 13.19-476.89 72.544-476.89 72.544s-214.979 182.818-367.886 81.117C519.295 138.493-77.192 315.375-77.192 315.375l-3.785 255.995s695.65-107.748 856.883-52.35c161.233 55.397 397.404 38.91 547.284-9.233s391.56-80.412 470.56-47.484c79 32.929 215.25 84.969 215.25 84.969V153.866Z" fill="#7FA024"/><path opacity=".21" d="M-77.192 342.936s162.747-62.652 312.626-67.928c149.879-5.276 601.786 73.863 733.498 67.928 131.708-5.935 380.538-167.57 644.448-174.798 263.91-7.228 395.62 33.667 395.62 33.667v788.092S1500.32 1098.71 957.577 1096.73C414.834 1094.76-77.192 947.69-77.192 947.69s476.13 185.32 844.014 193.89c367.888 8.57 722.148-58.69 722.148-58.69s-485.98 98.92-809.955 87.71c-323.981-11.21-759.992-131.9-759.992-131.9l3.785-695.764Z" fill="#305937"/><path opacity=".21" d="M-77.949 431.307s167.29-58.695 317.168-63.971c149.879-5.276 587.403 61.993 719.115 56.057 131.716-5.935 425.686-156.332 689.596-163.554C1911.84 252.618 2009 310.62 2009 310.62v567.822S1500.32 1098.71 957.577 1096.73C414.834 1094.76-77.192 947.689-77.192 947.689s476.13 185.321 844.014 193.891c367.888 8.57 722.148-58.7 722.148-58.7s-485.98 98.93-809.955 87.72c-323.981-11.21-759.992-131.9-759.992-131.9l3.028-607.393Z" fill="#305937"/><path d="M-9.318 1138.81s-3.905-98.91-3.55-99.02c135.218-40.933 291.153-77.997 555.922-50.338 106.982 11.178 274.206 71.918 397.68 53.918 142.406-20.76 282.636-44.856 390.066-71.067 254.31-62.046 616.61-76.34 616.61-76.34v106.767s-693.66-60.852-977.652 168.17c-366.014-113.96-979.076-32.09-979.076-32.09ZM1947.41 1448.05s-278.31 22.68-374.87 48.61c-96.56 25.92-338.67 81.39-594.974 59.9-169.581-14.22-348.605-24.25-429.544-27.19-182.468-6.64-549.532 29.32-549.532 29.32l-7.81 246.72c731.999 171.49 1713.92 20.78 1956.73-10.51v-346.85Z" fill="#7FA024"/><path d="M1947.41 1025.03s-168.27-26.171-391.91-15.11c-223.65 11.07-447.3 60.85-447.3 60.85s-201.634 153.35-345.052 68.05c-212.997-126.68-772.47 21.69-772.47 21.69l-3.55 214.73s652.482-90.38 803.71-43.91c151.227 46.47 372.742 32.64 513.322-7.75 140.58-40.38 367.26-67.45 441.36-39.83 74.09 27.62 201.89 71.28 201.89 71.28v-330Z" fill="#7FA024"/><path opacity=".21" d="M-9.321 1183.62s152.648-52.55 293.226-56.98c140.578-4.42 564.442 61.96 687.98 56.98 123.535-4.98 356.925-140.56 604.455-146.62 247.53-6.07 371.07 28.24 371.07 28.24v661.06s-477.11 91.28-986.175 89.62C452.172 1814.26-9.321 1690.9-9.321 1690.9s446.584 155.45 791.639 162.64c345.052 7.19 677.332-49.24 677.332-49.24s-455.82 82.98-759.691 73.58c-303.876-9.41-712.83-110.64-712.83-110.64l3.55-583.62Z" fill="#305937"/><path opacity=".21" d="M-10.031 1257.75s156.908-49.23 297.486-53.66c140.578-4.42 550.952 52 674.49 47.02 123.535-4.98 399.275-131.13 646.805-137.19 247.53-6.06 338.66 42.6 338.66 42.6v476.29s-477.11 184.77-986.175 183.11C452.172 1814.26-9.321 1690.9-9.321 1690.9s446.584 155.45 791.639 162.64c345.052 7.19 677.332-49.24 677.332-49.24s-455.82 82.98-759.691 73.58c-303.876-9.41-712.83-110.64-712.83-110.64l2.84-509.49Z" fill="#305937"/></svg>