<svg width="395" height="220" fill="none" xmlns="http://www.w3.org/2000/svg"><path d="M394.657 188.051h-34.954v30.981h34.954v-30.981Z" fill="#749DC1"/><path d="M391.64 184.865h-24.788v9.693h24.788v-9.693Z" fill="#749DC1"/><path d="M380.683 181.809h-11.757v6.244h11.757v-6.244ZM387.983 164.219h-3.811v25.5h3.811v-25.5ZM355.096 187.094h-38.772v31.932h38.772v-31.932Z" fill="#749DC1"/><path d="M366.857 201.711h-19.865v17.315h19.865v-17.315ZM353.348 138.479h-32.094v49.564h32.094v-49.564Z" fill="#749DC1"/><path d="M348.264 106.229H326.18v36.222h22.084v-36.222Z" fill="#749DC1"/><path d="M345.884 55.553H329.52v53.382h16.364V55.553Z" fill="#749DC1"/><path d="M341.908 56.667h-8.58V26.799l4.368-4.445 4.212 4.445v29.868ZM258.968 116.875h-16.37v-30.82l8.185-5.72 8.185 5.72v30.82Z" fill="#749DC1"/><path d="M274.22 116.875h-16.365v-30.82l8.186-5.72 8.179 5.72v30.82Z" fill="#749DC1"/><path d="M290.109 116.875h-16.371v-30.82l8.186-5.72 8.185 5.72v30.82Z" fill="#749DC1"/><path d="M290.104 108.934h-56.405v110.097h56.405V108.934Z" fill="#749DC1"/><path d="M257.853 112.746h-27.966v106.28h27.966v-106.28ZM316.324 172.477h-34.398v46.549h34.398v-46.549ZM225.127 140.391h-55.932v78.637h55.932v-78.637Z" fill="#749DC1"/><path d="M242.598 192.814h-32.094v26.213h32.094v-26.213ZM219.09 27.592h-49.895v112.795h49.895V27.592Z" fill="#749DC1"/><path d="M215.592 43.797h-25.74V22.354l25.74 2.536v18.907ZM185.396.268h-3.494v32.806h3.494V.268ZM177.135.268h-3.494v32.806h3.494V.268ZM158.387 122.277h-9.532v41.943h9.532v-41.943Z" fill="#749DC1"/><path d="M161.56 130.223h-32.412v45.119h32.412v-45.119Z" fill="#749DC1"/><path d="M173.64 159.451h-44.492v59.575h44.492v-59.575ZM145.359 114.965h-5.086v17.794h5.086v-17.794ZM119.936 219.025H81.805V64.766l8.897-6.354 29.234 9.531v151.082Z" fill="#749DC1"/><path d="M123.742 68.578H79.891v150.448h43.851V68.578Z" fill="#749DC1"/><path d="M137.097 210.367h-31.46v8.658h31.46v-8.658ZM64.002 146.896H23.328v72.128h40.674v-72.128Z" fill="#749DC1"/><path d="M86.567 179.711H51.93v39.322h34.637v-39.322ZM18.875 199.367H6.8v19.658h12.074v-19.658Z" fill="#749DC1"/><path d="M36.037 212.191H.766v6.833h35.27v-6.833ZM52.989 152.778H34.664v-10.721l9.162-5.086 9.163 5.086v10.721ZM61.73 118.621h-4.82v28.07h4.82v-28.07ZM30.53 118.992h-4.71v27.96h4.71v-27.96Z" fill="#749DC1"/></svg>