<svg width="1920" height="462" fill="none" xmlns="http://www.w3.org/2000/svg"><path d="M1919.3 199.361 1920 480H0V41.41C64.246 7.783 174.385-12.953 303.293 9.16a77.178 77.178 0 0 1 9.239 2.18l216.476 29.778c-5.554-17.017 1.397-9.76 8.085-.906 4.678 6.191 9.238 13.176 9.294 13.176 3.427-.066 6.096 10.41 8.96 18.395 1.738 4.842 3.545 8.768 5.631 8.872h.076c.139 0 .264.019.397.028.368.01.729.038 1.091.057h.083c.132 0 .265.01.397.028.368.01.73.029 1.091.057.035 0 .063 0 .09.01.125.009.265.009.39.028 1.626.085 3.253.198 4.88.311 4.052.302 8.112.699 12.179 1.18 3.955.463 7.91 1.01 11.866 1.642.222.029.438.066.66.095 1.835.283 3.657.604 5.492.906 27.166 4.757 54.437 12.855 81.492 22.822 25.345 9.334 50.496 20.33 75.201 31.75.035.01.056.019.084.028.062.029.104.048.16.076.437.198.882.425 1.32.623l.098.028.153.076 1.327.604a.484.484 0 0 0 .091.037c.041.038.104.057.146.085a1828.26 1828.26 0 0 1 16.801 7.9c.014 0 .021.01.042.01.014.009.028.019.042.019.048.028.09.047.132.066 41.827 19.811 72.699 42.01 106.205 57.894 1.404.671 2.815 1.322 4.226 1.973 10.191 4.634 20.667 8.645 31.81 11.807 7.237 2.086 14.306 5.824 22.071 7.806.758.189 1.516.368 2.294.519.118.028.25.057.375.066.348.085.689.142 1.029.198.41.076.828.132 1.245.189.584.085 1.668-2.133 2.37-2.614.104-.076.202-.114.278-.104a.26.26 0 0 1 .111.028c.049 0 .105 0 .153.009.014 0 .028.01.049.01.083 0 .167.028.257.038 3.101.387 6.25.708 9.468.934.271.028 4.463.038 10.254 0 2.759-.019 5.88-.047 9.113-.085.208 0 .424 0 .633-.009 10.031-.104 20.972-.35 25.37-.784.11-.009.19-.028.28-.037 1.05-.123 1.19-1.397 1.53-2.738.22-.84.07-.679-.99-4.171-.29-.982-.41-2.265-.5-3.257-.77-9.428 3.53-15.771 8.38-19.631 3.63-2.964 7.7-4.842 11.57-6.9 3.91-2.067 8.88-3.898 12.82-5.682 54.91-24.851 110.83-44.275 166.91-63.548a6766.26 6766.26 0 0 0 55.16-19.207c8.09-2.86 16.39-5.814 24.83-8.655 28.89-9.73 59.38-18.14 88.25-17.074 14.6.491 29.16 2.7 43.47 6.636 5.46 1.057 10.91 2.605 16.34 4.436 11.74 3.954 23.39 9.202 34.84 13.572 10.54 4.03 21.17 7.626 31.86 10.929 35.57 10.996 71.74 18.641 107.44 27.239 30.31 7.306 60.49 15.555 90.77 23.039 12.6 3.115 25.19 6.23 37.78 9.335 29.23 7.22 58.45 14.441 87.67 21.642 31.22 7.683 65.86 5.285 96.82 6.437Z" fill="#96C22F"/></svg>