<svg width="1460" height="362" fill="none" xmlns="http://www.w3.org/2000/svg"><path d="M1460 127.818V362c-35.24-.546-78.15-1.213-122.84-1.907-79.28-1.23-164.15-2.548-221.58-3.449-39.89-.615-66.54-1.023-68.87-1.066-39.25-.641-83.115-1.985-130.224-4.29a4080.368 4080.368 0 0 1-147.246-9.845 4135.919 4135.919 0 0 1-35.811-3.224c-3.276-.321-6.552-.633-9.85-.945-.939-.095-1.878-.199-2.817-.286-38.985-3.831-78.763-8.355-118.774-13.693-1.267-.165-2.527-.338-3.808-.512-31.901-4.29-63.94-9.1-95.842-14.473l-1.66-.269-6.37-1.092c-3.276-.563-6.552-1.126-9.835-1.707-.509-.087-.997-.173-1.492-.26a3053.95 3053.95 0 0 1-18.251-3.276c-28.815-5.278-57.425-11.05-85.628-17.342a1997.256 1997.256 0 0 1-53.807-12.766 229.33 229.33 0 0 1-3.262-.832 1571.168 1571.168 0 0 1-15.251-3.943c-2.417-.65-4.827-1.274-7.229-1.924-6.29-1.69-12.537-3.406-18.754-5.157-.16-.043-.327-.087-.488-.139a939.74 939.74 0 0 0-4.484-1.265c-.961-.277-1.915-.546-2.869-.823a1534.593 1534.593 0 0 1-13.57-3.943c-1.237-.373-2.482-.755-3.72-1.119-.204-.052-.393-.121-.597-.173-.349-.104-.699-.208-1.055-.312-.903-.286-1.813-.554-2.723-.832-.568-.173-1.15-.346-1.725-.52-1.427-.433-2.869-.866-4.303-1.317a543.474 543.474 0 0 1-6.828-2.123 1296.18 1296.18 0 0 1-14.117-4.481c-.196-.061-.393-.13-.589-.191-45.937-14.906-89.37-31.694-129.156-50.552-16.744-7.939-32.847-16.25-48.208-24.952a627.137 627.137 0 0 1-23.427-13.91c-.386-.242-.765-.468-1.15-.702-2.934 0-8.54-5.46-11.139-7.193-3.356-2.236-7.404-3.701-9.981-7.289-.284-.398-.568-.849-.64-1.369-.59-4.013 7.87-5.235 9.893-6.093.845-.355 1.689-.71 2.533-1.057 3.109-1.274 6.225-2.496 9.334-3.727a32.38 32.38 0 0 1 1.15-.459c57.796-21.103 112.047-4.437 172.515-8.849 35.709-2.608 70.689-13.303 105.095-24.388 22.939-6.69 45.573-15.088 68.192-23.114C453.649 38.725 540.77 14.06 628.837 1.763c34.987-4.88 70.514.624 104.468 13.433 39.771 15.02 77.475 36.547 116.554 53.733 44.779 19.691 89.566 39.382 134.36 59.012 38.201 16.735 81.591 33.41 122.831 30.68 4.45-.295 226.12-19.622 352.95-30.802Z" fill="#7FA024"/></svg>