<svg xmlns="http://www.w3.org/2000/svg" width="1650" height="685" style="shape-rendering:geometricprecision;text-rendering:geometricprecision;image-rendering:optimizequality;fill-rule:evenodd;clip-rule:evenodd"><path style="opacity:.994" fill="#828641" d="M1166.5 325.5a307.14 307.14 0 0 1-28-5 4172.845 4172.845 0 0 0-109-17 8965.196 8965.196 0 0 1-57-7 4506.578 4506.578 0 0 0-77-7 1845.708 1845.708 0 0 0-242 0 1830.622 1830.622 0 0 0-64 7 2668.422 2668.422 0 0 0-45 7 840.783 840.783 0 0 0-78 17 267.768 267.768 0 0 0-22 6 932.52 932.52 0 0 0-26 8 168.934 168.934 0 0 0-24 8 223.8 223.8 0 0 0-16 6 658.086 658.086 0 0 0-38 15l-22 10-14 7c-1.653.16-2.986.826-4 2a444.212 444.212 0 0 0-25 13 95.466 95.466 0 0 0-14 8 88.153 88.153 0 0 0-11 6 246.492 246.492 0 0 0-22 14c-3.04 1.18-5.706 2.847-8 5a226.624 226.624 0 0 0-17 11 6562.538 6562.538 0 0 0-18 13 58.524 58.524 0 0 0-10 8l-14 9c-6.447-8.483-10.28-18.149-11.5-29-4.565-25.299.102-48.632 14-70 7.695-11.879 18.528-18.546 32.5-20 7.362-.069 13.862 2.264 19.5 7a441.864 441.864 0 0 1 5-83c8.947-34.294 30.78-48.128 65.5-41.5 20.345 7.682 32.845 22.182 37.5 43.5a169.925 169.925 0 0 1 2 19 237.679 237.679 0 0 1 25-39 587.422 587.422 0 0 1 53.5-46.5c8.021-5.291 16.687-7.791 26-7.5a167.76 167.76 0 0 0 18.5 34c-.23-18.645 4.437-35.978 14-52 20.5-32.5 47-59 79.5-79.5 31.567-18.916 57.733-13.416 78.5 16.5a170.753 170.753 0 0 1 17.5 39c5.736-21.144 15.903-39.81 30.5-56 16.792-18.464 36.626-32.63 59.5-42.5 40.528-14.321 66.361-.821 77.5 40.5a119.74 119.74 0 0 1 1.5 18 224.473 224.473 0 0 0-.5 27 103.613 103.613 0 0 1 16.5-19.5c3.677-2.31 7.511-2.81 11.5-1.5a1161.359 1161.359 0 0 1 10 58c3.817-20.825 15.317-26.659 34.5-17.5 4.833 3.5 9 7.667 12.5 12.5-3.557-24.69-2.89-49.356 2-74 7.894-40.896 32.394-64.396 73.5-70.5 14.056-.902 27.056 2.43 39 10 32.99 20.651 57.82 48.485 74.5 83.5 8.82 25.921 12.99 52.587 12.5 80 41.25-6.789 67.75 9.877 79.5 50 4.94 23.075 2.77 45.408-6.5 67Z"/><path style="opacity:1" fill="#bbd784" d="M895.5 289.5a7322.83 7322.83 0 0 1-242 0 1845.708 1845.708 0 0 1 242 0Z"/><path style="opacity:1" fill="#b9d684" d="M653.5 289.5a7322.83 7322.83 0 0 0 242 0 4506.578 4506.578 0 0 1 77 7 18341.21 18341.21 0 0 1-383 0 1830.622 1830.622 0 0 1 64-7Z"/><path style="opacity:1" fill="#b7d482" d="M589.5 296.5a18341.21 18341.21 0 0 0 383 0 8965.196 8965.196 0 0 0 57 7 29410.977 29410.977 0 0 1-485 0 2668.422 2668.422 0 0 1 45-7Z"/><path style="opacity:1" fill="#b1d07f" d="M544.5 303.5a29410.977 29410.977 0 0 0 485 0 4172.845 4172.845 0 0 1 109 17c-224 1.333-448 1.333-672 0a840.783 840.783 0 0 1 78-17Z"/><path style="opacity:.998" fill="#accd7d" d="M466.5 320.5c224 1.333 448 1.333 672 0a307.14 307.14 0 0 0 28 5c3.23.176 6.23.843 9 2-243.834.333-487.501 0-731-1a267.768 267.768 0 0 1 22-6Z"/><path style="opacity:.997" fill="#a9cb7b" d="M444.5 326.5c243.499 1 487.166 1.333 731 1a303.31 303.31 0 0 1 40 8c-265.834.333-531.501 0-797-1a932.52 932.52 0 0 1 26-8Z"/><path style="opacity:.998" fill="#a5c879" d="M418.5 334.5c265.499 1 531.166 1.333 797 1a428.336 428.336 0 0 1 36 7 91829.582 91829.582 0 0 1-857 0 168.934 168.934 0 0 1 24-8Z"/><path style="opacity:.997" fill="#a3c677" d="M394.5 342.5a91829.582 91829.582 0 0 0 857 0c8.5 1.763 16.84 3.763 25 6a100826.206 100826.206 0 0 1-898 0 223.8 223.8 0 0 1 16-6Z"/><path style="opacity:.998" fill="#9fc375" d="M378.5 348.5c299.333 1.333 598.667 1.333 898 0a980.552 980.552 0 0 1 67 16c-334.5.333-668.834 0-1003-1a658.086 658.086 0 0 1 38-15Z"/><path style="opacity:.998" fill="#9ac071" d="M340.5 363.5c334.166 1 668.5 1.333 1003 1a264.972 264.972 0 0 1 38 10c-354.5.333-708.834 0-1063-1l22-10Z"/><path style="opacity:.998" fill="#96bd6f" d="M318.5 373.5c354.166 1 708.5 1.333 1063 1 8.65 1.576 16.98 3.909 25 7-367.5.333-734.834 0-1102-1l14-7Z"/><path style="opacity:.999" fill="#94bb6e" d="M304.5 380.5c367.166 1 734.5 1.333 1102 1 1.79-.134 3.46.199 5 1-370.33 1.333-740.667 1.333-1111 0 1.014-1.174 2.347-1.84 4-2Z"/><path style="opacity:.999" fill="#91b96c" d="M300.5 382.5c370.333 1.333 740.67 1.333 1111 0a763.447 763.447 0 0 1 42 13c-392.67 1.333-785.333 1.333-1178 0a444.212 444.212 0 0 1 25-13Z"/><path style="opacity:.999" fill="#8db76a" d="M275.5 395.5c392.667 1.333 785.33 1.333 1178 0a184.741 184.741 0 0 1 25 9c-405.83.333-811.5 0-1217-1a95.466 95.466 0 0 1 14-8Z"/><path style="opacity:.999" fill="#8ab468" d="M261.5 403.5c405.5 1 811.17 1.333 1217 1 5.63 1.429 10.96 3.429 16 6-414.83.333-829.5 0-1244-1a88.153 88.153 0 0 1 11-6Z"/><path style="opacity:.999" fill="#86b166" d="M250.5 409.5c414.5 1 829.17 1.333 1244 1a212.03 212.03 0 0 1 34 14c-433.5.333-866.834 0-1300-1a246.492 246.492 0 0 1 22-14Z"/><path style="opacity:.999" fill="#82af64" d="M228.5 423.5c433.166 1 866.5 1.333 1300 1 2.98.826 5.65 2.159 8 4-438.67 1.333-877.333 1.333-1316 0 2.294-2.153 4.96-3.82 8-5Z"/><path style="opacity:.999" fill="#7fad62" d="M220.5 428.5c438.667 1.333 877.33 1.333 1316 0a125.42 125.42 0 0 1 23 12c-452.17.333-904.167 0-1356-1a226.624 226.624 0 0 1 17-11Z"/><path style="opacity:.999" fill="#7aaa60" d="M203.5 439.5c451.833 1 903.83 1.333 1356 1a78.944 78.944 0 0 1 20 13c-464.83.333-929.5 0-1394-1a6562.538 6562.538 0 0 1 18-13Z"/><path style="opacity:.999" fill="#76a75e" d="M185.5 452.5c464.5 1 929.17 1.333 1394 1a24.203 24.203 0 0 1 9 7h-1413a58.524 58.524 0 0 1 10-8Z"/><path style="opacity:.999" fill="#72a55c" d="M175.5 460.5h1413c4.67 2.667 8.33 6.333 11 11-479.9 1.333-959.902 1.333-1440 0l2-2 14-9Z"/><path style="opacity:.999" fill="#6ea35a" d="M159.5 471.5c480.098 1.333 960.1 1.333 1440 0 2.47 2.27 4.47 4.937 6 8-485.17.333-970.167 0-1455-1a46.493 46.493 0 0 1 9-7Z"/><path style="opacity:.999" fill="#6ba159" d="M150.5 478.5c484.833 1 969.83 1.333 1455 1a35.92 35.92 0 0 1 4 7c-489.5.333-978.834 0-1468-1a71.916 71.916 0 0 1 9-7Z"/><path style="opacity:.999" fill="#69a057" d="M141.5 485.5c489.166 1 978.5 1.333 1468 1 .06 1.109.39 2.109 1 3-490.83.333-981.5 0-1472-1a6.547 6.547 0 0 1 3-3Z"/><path style="opacity:.999" fill="#669e56" d="M138.5 488.5c490.5 1 981.17 1.333 1472 1 1.3 4.693 1.63 9.36 1 14h-1491a97.071 97.071 0 0 1 18-15Z"/><path style="opacity:.999" fill="#629d54" d="M120.5 503.5h1491v4h-1496c1.079-2.043 2.746-3.376 5-4Z"/><path style="opacity:.999" fill="#5f9b53" d="M115.5 507.5h1496c-.77 3.649-2.1 6.982-4 10h-1504a86.79 86.79 0 0 1 12-10Z"/><path style="opacity:.999" fill="#5c9952" d="M103.5 517.5h1504c-.49 2.319-1.49 4.319-3 6H96.5c2.308-1.971 4.642-3.971 7-6Z"/><path style="opacity:.999" fill="#599850" d="M96.5 523.5h1508a46.61 46.61 0 0 1-7 9c-503.5.333-1006.834 0-1510-1 2.974-2.638 5.974-5.305 9-8Z"/><path style="opacity:.999" fill="#55964f" d="M87.5 531.5c503.166 1 1006.5 1.333 1510 1-2.71 3.712-6.04 6.712-10 9-503.17-1-1006.5-1.333-1510-1a32.256 32.256 0 0 1 10-9Z"/><path style="opacity:.999" fill="#52944d" d="M77.5 540.5c503.5-.333 1006.83 0 1510 1a579.57 579.57 0 0 1-6 5H70.5c1.74-2.743 4.073-4.743 7-6Z"/><path style="opacity:.999" fill="#4d924c" d="M70.5 546.5h1511a143.369 143.369 0 0 1-24 15c-501.17-1-1002.5-1.333-1504-1a85.322 85.322 0 0 1 17-14Z"/><path style="opacity:.996" fill="#49904b" d="M53.5 560.5c501.5-.333 1002.83 0 1504 1-3.02 2.174-6.35 3.841-10 5h-1422a2328.738 2328.738 0 0 1-68-4.5c-2.236-.079-3.57-.579-4-1.5Z"/><path style="opacity:.994" fill="#468f4a" d="M125.5 566.5h1422c-3.02 2.174-6.35 3.841-10 5-450.67-1.333-901.333-1.333-1352 0a1575.508 1575.508 0 0 1-60-5Z"/><path style="opacity:.997" fill="#458f49" d="M185.5 571.5c450.667-1.333 901.33-1.333 1352 0-.71.904-1.71 1.237-3 1h-1329a218.12 218.12 0 0 1-20-1Z"/><path style="opacity:.995" fill="#428d49" d="M205.5 572.5h1329c-4.94 3.096-10.27 5.429-16 7h-1219a2417.063 2417.063 0 0 1-94-7Z"/><path style="opacity:.994" fill="#3b8c48" d="M299.5 579.5h1219c-8.21 4.296-16.88 7.63-26 10h-1058c-45.2-2.633-90.2-5.966-135-10Z"/><path style="opacity:.993" fill="#348a47" d="M434.5 589.5h1058c-9.3 4.103-18.97 7.436-29 10h-895a4519.522 4519.522 0 0 1-134-10Z"/><path style="opacity:.992" fill="#2e8846" d="M568.5 599.5h895c-7.34 3.09-15.01 5.424-23 7h-778a2224.166 2224.166 0 0 1-94-7Z"/><path style="opacity:.989" fill="#288645" d="M662.5 606.5h778a249.436 249.436 0 0 1-30 9c-211-1.333-422-1.333-633 0a6183.688 6183.688 0 0 1-115-9Z"/><path style="opacity:.987" fill="#238544" d="M777.5 615.5c211-1.333 422-1.333 633 0a306.435 306.435 0 0 1-29 7h-504a5458.103 5458.103 0 0 1-100-7Z"/><path style="opacity:.984" fill="#1c8342" d="M877.5 622.5h504a403.915 403.915 0 0 1-43 10h-326a4941.413 4941.413 0 0 1-135-10Z"/><path style="opacity:.969" fill="#148141" d="M1012.5 632.5h326a1019.762 1019.762 0 0 1-92 18 31986.327 31986.327 0 0 1-234-18Z"/></svg>