<svg id="_Шар_2" data-name="Шар 2" xmlns="http://www.w3.org/2000/svg" viewBox="0 0 516.22 77.77"><defs><style>.cls-1{fill:#fff}.cls-2{fill:#575c6c}</style></defs><g id="_Шар_1-2" data-name="Шар 1"><path class="cls-2" d="M516.21 3.48v74.29H.21V3.63l166.01-.61 1.74-.1L343.17 0l1.45.12 171.59 3.36z"/><path class="cls-1" d="m472.32 32.22 1.14 2.37 20.39.04-1.66-2.61-19.87.2z"/><g id="Zebra"><path class="cls-1" d="m404.06 5.63 2.33 3.03 41.73.06-3.39-3.33-40.67.24zM408.91 11.77l2.32 3.03 41.74.06-3.4-3.33-40.66.24zM413.36 18.09l2.33 4.03 41.73.06-3.4-4.33-40.66.24zM418.97 26.04l2.33 3.02 41.73.06-3.39-3.33-40.67.25zM423.46 32.29l2.33 3.02 41.73.07-3.4-3.33-40.66.24zM428.3 38.43l2.33 3.02 41.73.07-3.39-3.33-40.67.24zM433.29 45.44l2.33 3.02 41.73.07-3.39-3.33-40.67.24zM438.37 51.98 440.7 55l41.73.06-3.39-3.33-40.67.25zM446.25 63.18l2.32 3.02 41.74.07-3.4-3.33-40.66.24zM442.42 57.58l2.32 3.02 41.73.06-3.39-3.33-40.66.25zM450.29 68.78l2.33 3.02 41.73.07-3.4-3.33-40.66.24z"/></g><path class="cls-1" d="m499.34 31.81.96 2.37 15.92.02v-2.61l-16.88.22z"/><g id="Zebra-2" data-name="Zebra"><path class="cls-1" d="m115.37 7.59-2.33 3.02H71.31l3.4-3.33 40.66.31zM110.52 13.72l-2.33 3.02H66.45l3.4-3.32 40.67.3zM106.05 20.03l-2.33 4.02H61.99l3.4-4.32 40.66.3zM100.43 27.97l-2.33 3.02H56.36l3.41-3.33 40.66.31zM95.93 34.21l-2.33 3.02H51.87l3.4-3.32 40.66.3zM91.08 40.35l-2.33 3.02H47.01l3.41-3.33 40.66.31zM86.08 47.35l-2.33 3.02H42.01l3.41-3.33 40.66.31zM80.99 53.88l-2.33 3.02H36.93l3.4-3.33 40.66.31zM73.1 65.07l-2.33 3.02H29.03l3.4-3.33 40.67.31zM76.94 59.47l-2.33 3.02H32.87l3.41-3.32 40.66.3zM69.05 70.66l-2.34 3.02H24.98l3.4-3.32 40.67.3z"/></g><path class="cls-1" d="m44.16 32.5-1.13 2.37-20.4.03 1.66-2.61 19.87.21zM16.88 32.09l-.96 2.37L0 34.48v-2.61l16.88.22z"/><path class="cls-2" d="m344.62.12-178.4 2.9 1.74-.1L343.17 0l1.45.12z"/></g></svg>