<svg version="1.1" id="_Шар_2" xmlns="http://www.w3.org/2000/svg" x="0" y="0" viewBox="0 0 516.2 77.8" style="enable-background:new 0 0 516.2 77.8" xml:space="preserve"><style>.st0{fill:#575c6c}.st1{fill:#fff}</style><g id="_Шар_1-2"><path class="st0" d="M516.2 3.5v74.3H.2V3.6l166-.6 1.7-.1 174.8-1.6 1.4.1c.1 0 172.1 2.1 172.1 2.1z"/><path class="st1" d="m405.7 8.4 2.3 3 41.7.1-3.4-3.3-40.6.2zm4.8 6.1 2.3 3 41.7.1-3.4-3.3-40.6.2zm4.5 6.3 2.3 4 41.7.1-3.4-4.3-40.6.2zm5.6 8 2.3 3 41.7.1-3.4-3.3-40.6.2zm4.5 6.2 2.3 3 41.7.1-3.4-3.3-40.6.2zm4.8 6.2 2.3 3 41.7.1-3.4-3.3c.1-.1-40.6.2-40.6.2zm5 7 2.3 3 41.7.1-3.4-3.3-40.6.2zm5.1 6.5 2.3 3 41.7.1-3.4-3.3-40.6.2zm7.8 11.2 2.3 3 41.7.1-3.4-3.3-40.6.2zm-3.8-5.6 2.3 3 41.7.1-3.4-3.3-40.6.2zm7.9 11.2 2.3 3 41.7.1-3.4-3.3-40.6.2z" id="Zebra"/><path class="st1" d="m115.4 8.6-2.3 3H71.3l3.4-3.3 40.7.3zm-4.9 6.1-2.3 3H66.4l3.4-3.3 40.7.3zm-4.4 6.3-2.3 4H62l3.4-4.3 40.7.3zm-5.7 8-2.3 3H56.4l3.4-3.3 40.6.3zm-4.5 6.2-2.3 3H51.9l3.4-3.3 40.6.3zm-4.8 6.1-2.3 3H47l3.4-3.3s40.7.4 40.7.3zm-5 7-2.3 3H42l3.4-3.3s40.7.4 40.7.3zM81 54.9l-2.3 3H36.9l3.4-3.3 40.7.3zm-7.9 11.2-2.3 3H29l3.4-3.3 40.7.3zm3.8-5.6-2.3 3H32.9l3.4-3.3 40.6.3zm-7.8 11.2-2.3 3H25l3.4-3.3 40.7.3z" id="Zebra-2"/><path class="st1" d="m33 30.2-1.4 2H17.4l1.5-2.2 14.1.2z"/><path class="st0" d="M344.6.1 166.2 3l1.7-.1L343.2 0l1.4.1z"/></g><path class="st1" d="M169.2 5.7H.2v-1h170.1zM497.5 30l1.5 2.2h-14.2l-1.4-2c.1 0 14.1-.2 14.1-.2zM347.3 5.7h168.9v-1h-170z"/></svg>