<svg id="Слой_2" data-name="Слой 2" xmlns="http://www.w3.org/2000/svg" viewBox="0 0 274.4 161.48"><defs><style>.cls-1{fill:#59843d}.cls-2{fill:#606060}.cls-3{fill:#c4c4c4}.cls-6{fill:#51616b}</style></defs><path class="cls-1" d="M42.25 50.52c8.8.47 11 5.51 12.67 13.22s-1.1 13.77-15.42 14.32-14.32-10.47-14.32-15.42S31.79 50 42.25 50.52Z"/><path class="cls-1" d="M63.73 71.45C74 73.5 77 80.26 77.5 88s-20.93 15.42-28.64 9.91-8.26-20.4-1.65-23.71a29 29 0 0 1 16.52-2.75Z"/><path class="cls-1" d="M67 92.92c8.8-.73 13.22 11 9.92 17.63s-19 11.25-23.26 2.87S53.82 94 67 92.92ZM20.78 74.75c12.71-.31 14.87 9.36 12.66 14.87S25.73 96.78 18 95.68-1.8 75.3 20.78 74.75Z"/><path class="cls-1" d="M18 93.47c11 0 14.87 11.57 12.67 19.28s-11 11-20.93 8.81-11-11-8.81-18.17S7.56 93.47 18 93.47Z"/><path class="cls-2" d="M38 69.76v76.51h6.56S42.4 69.76 38 69.76Z"/><path class="cls-2" d="M27.09 89.44A22 22 0 0 0 32.34 99c2 2.31 7.87 3.57 7.87 3.57v2.19s-5.31-.9-8.74-4.37a35.68 35.68 0 0 1-6.56-8.75ZM25.83 104.68a21.85 21.85 0 0 0 6.65 8.63c2.38 2 8.32 2.32 8.32 2.32l.33 2.16s-5.38-.07-9.31-3a36 36 0 0 1-7.82-7.61ZM54.27 95.49A21.93 21.93 0 0 1 49 105c-2.05 2.31-7.87 3.57-7.87 3.57v2.18s5.31-.89 8.75-4.37a35.85 35.85 0 0 0 6.55-8.74ZM56.64 108.54a22 22 0 0 1-6.64 8.62c-2.39 2-8.33 2.33-8.33 2.33l-.33 2.16s5.38-.07 9.31-3a35.9 35.9 0 0 0 7.81-7.65ZM52.61 84.48A22 22 0 0 1 47.37 94c-2.06 2.31-7.87 3.57-7.87 3.57v2.18s5.31-.89 8.74-4.37a36.09 36.09 0 0 0 6.56-8.74Z"/><path class="cls-3" d="M63.43 105.19h208.06v56.28H63.43z"/><path style="fill:#818986" d="M274.4 109.4H63.37V79.96l52.51-42.62h117.21l41.31 35.37v36.69z"/><path style="fill:#eae7e4" d="M178.75 161.47H63.43V87.12l57.66-46.83 57.66 46.83v74.35z"/><path class="cls-3" d="M178.74 0h17.36v40.29h-17.36z"/><path class="cls-6" d="M172.85 32.43h29.81v13.1h-29.81zM111.26 73.37h6.88V90.4h-6.88zM121.09 73.37h7.86V90.4h-7.86zM82.76 115.95h9.5v3.28h-9.5zM95.21 115.95h7.86v3.28h-7.86zM82.76 121.52h9.5v20.96h-9.5zM95.21 121.52h7.86v20.96h-7.86zM189.88 119.22h10.48v7.53h-10.48zM189.88 132h10.48v6.88h-10.48zM189.88 142.48h10.48v6.88h-10.48zM205.61 119.22h10.48v7.53h-10.48zM205.61 132h10.48v6.88h-10.48zM205.61 142.48h10.48v6.88h-10.48zM221.33 119.22h10.48v7.53h-10.48zM221.33 132h10.48v6.88h-10.48zM221.33 142.48h10.48v6.88h-10.48zM237.06 119.22h10.48v7.53h-10.48zM237.06 132h10.48v6.88h-10.48zM237.06 142.48h10.48v6.88h-10.48zM252.78 119.22h10.48v7.53h-10.48zM252.78 132h10.48v6.88h-10.48zM252.78 142.48h10.48v6.88h-10.48zM137.8 115.95h9.5v3.28h-9.5zM150.24 115.95h7.86v3.28h-7.86zM137.8 121.52h9.5v20.96h-9.5zM150.24 121.52h7.86v20.96h-7.86z"/></svg>