<svg id="Слой_2" data-name="Слой 2" xmlns="http://www.w3.org/2000/svg" viewBox="0 0 131.11 69.97"><defs><style>.cls-1{fill:#406632}.cls-2{fill:#606060}.cls-3{fill:#fff}.cls-4{fill:#686665}.cls-6{fill:#dbdbdb}.cls-7{fill:#51616b}.cls-9{fill:#3d3b38}.cls-10{fill:#897f7d}.cls-12{fill:#8cce4d}</style></defs><path class="cls-1" d="M11.59 43.7c2.42.13 3 1.51 3.48 3.63s-.3 3.77-4.23 3.92S6.91 48.38 6.91 47s1.81-3.45 4.68-3.3Z"/><path class="cls-1" d="M17.49 49.44c2.82.56 3.62 2.42 3.77 4.53s-5.74 4.23-7.85 2.72-2.27-5.59-.41-6.49a8 8 0 0 1 4.49-.76Z"/><path class="cls-1" d="M18.39 55.33c2.42-.2 3.63 3 2.72 4.84s-5.2 3.09-6.38.79.04-5.32 3.66-5.63ZM5.7 50.35c3.49-.09 4.08 2.57 3.48 4.08s-2.12 2-4.23 1.66-5.44-5.59.75-5.74Z"/><path class="cls-1" d="M5 55.48c3 0 4.08 3.18 3.47 5.29s-3 3-5.74 2.42-3-3-2.42-5S2.07 55.48 5 55.48Z"/><path class="cls-2" d="M10.43 49v21h1.8s-.6-21-1.8-21Z"/><path class="cls-2" d="M7.43 54.38A6.14 6.14 0 0 0 8.87 57 5.28 5.28 0 0 0 11 58v.59a5 5 0 0 1-2.4-1.19A10 10 0 0 1 6.83 55ZM7.09 58.56a6 6 0 0 0 1.82 2.37 5.15 5.15 0 0 0 2.28.63l.1.6a5 5 0 0 1-2.56-.82 9.85 9.85 0 0 1-2.14-2.1ZM14.89 56a6 6 0 0 1-1.44 2.62 5.23 5.23 0 0 1-2.16 1v.6a5 5 0 0 0 2.4-1.2 10 10 0 0 0 1.8-2.4ZM15.54 59.62A6 6 0 0 1 13.72 62a5.24 5.24 0 0 1-2.29.64l-.09.59a4.91 4.91 0 0 0 2.56-.81A9.85 9.85 0 0 0 16 60.3ZM14.44 53A6 6 0 0 1 13 55.64a5.28 5.28 0 0 1-2.16 1v.6a5 5 0 0 0 2.4-1.2 10 10 0 0 0 1.8-2.4Z"/><path class="cls-3" d="M29.14 51.38h30.54v8.26H29.14z"/><path class="cls-4" d="M60.11 52H29.13v-4.28l8-6.3h16.91l6.07 5.19V52z"/><path class="cls-3" d="M46.07 59.64H29.14V48.73l8.46-6.88 8.47 6.88v10.91z"/><path style="fill:#5e5d5c" d="M46.07 35.94h2.55v5.91h-2.55z"/><path class="cls-6" d="M45.2 40.7h4.38v1.92H45.2z"/><path class="cls-7" d="M36.16 46.71h1.01v2.5h-1.01zM37.6 46.71h1.15v2.5H37.6zM31.98 52.96h1.39v.48h-1.39zM33.81 52.96h1.15v.48h-1.15zM31.98 53.77h1.39v3.08h-1.39zM33.81 53.77h1.15v3.08h-1.15zM47.7 53.44h1.54v1.11H47.7zM47.7 55.31h1.54v1.01H47.7zM47.7 56.85h1.54v1.01H47.7zM50.01 53.44h1.54v1.11h-1.54zM50.01 55.31h1.54v1.01h-1.54zM50.01 56.85h1.54v1.01h-1.54zM52.32 53.44h1.54v1.11h-1.54zM52.32 55.31h1.54v1.01h-1.54zM52.32 56.85h1.54v1.01h-1.54zM54.63 53.44h1.54v1.11h-1.54zM54.63 55.31h1.54v1.01h-1.54zM54.63 56.85h1.54v1.01h-1.54zM56.93 53.44h1.54v1.11h-1.54zM56.93 55.31h1.54v1.01h-1.54zM56.93 56.85h1.54v1.01h-1.54zM40.06 52.96h1.39v.48h-1.39zM41.88 52.96h1.15v.48h-1.15zM40.06 53.77h1.39v3.08h-1.39zM41.88 53.77h1.15v3.08h-1.15z"/><path d="M100.53 0a9.34 9.34 0 0 1 9.34 9.34v50.3H91.19V9.34A9.34 9.34 0 0 1 100.53 0Z" style="fill:#8a9995"/><path class="cls-4" d="M91.19 9.34h18.68v1.2H91.19zM91.19 15.96h18.68v1.2H91.19zM91.19 22.59h18.68v1.2H91.19zM91.19 29.22h18.68v1.2H91.19zM91.19 35.84h18.68v1.2H91.19zM91.19 42.47h18.68v1.2H91.19zM91.19 49.1h18.68v1.2H91.19z"/><path class="cls-6" d="M57.79 43.92v15.72h19.55v-34.5l-13.03 7.28-3.83 9.2-2.69 2.3z"/><path class="cls-9" d="m56.5 45.37-.48-.59 4.14-3.39 3.85-9.24 13.15-7.35.37.67-12.92 7.22-3.82 9.17-4.29 3.51z"/><path class="cls-3" d="M68.91 37.41h4.22v3.83h-4.22zM60.47 47.76h8.05v6.52h-8.05zM70.06 48.14h7.28v.77h-7.28z"/><path class="cls-3" d="M70.83 48.52h6.52v11.12h-6.52z"/><path class="cls-10" d="M71.59 48.91h4.98v9.97h-4.98z"/><path class="cls-3" d="m76.96 58.49-4.7-9.97h-.67l5.37 10.74v-.77z"/><path class="cls-3" d="m76.58 48.52-5.37 10.74h.77l5.14-10.74h-.54z"/><path class="cls-10" d="M61.24 48.52h3.07v4.98h-3.07z"/><path class="cls-3" d="M62.39 48.14h.77v5.75h-.77z"/><path class="cls-3" d="M60.47 49.67h4.22v.77h-4.22zM60.47 51.59h4.22v.77h-4.22z"/><path class="cls-10" d="M69.68 38.17h2.68v2.3h-2.68z"/><path class="cls-3" d="M70.83 37.79h.38v3.07h-.38z"/><path class="cls-3" d="M68.91 38.94h3.83v.38h-3.83z"/><path class="cls-10" d="M65.08 48.52h3.07v4.98h-3.07z"/><path class="cls-3" d="M66.23 48.14H67v5.75h-.77z"/><path class="cls-3" d="M64.31 49.67h4.22v.77h-4.22zM64.31 51.59h4.22v.77h-4.22z"/><path class="cls-6" d="M96.46 43.92v15.72H76.91v-34.5l13.03 7.28 3.84 9.2 2.68 2.3z"/><path class="cls-9" d="m97.75 45.37.48-.59-4.14-3.39-3.85-9.24-13.15-7.35-.37.67 12.92 7.22 3.82 9.17 4.29 3.51z"/><path class="cls-3" transform="rotate(-180 83.23 39.325)" d="M81.12 37.41h4.22v3.83h-4.22z"/><path class="cls-3" transform="rotate(-180 89.365 51.015)" d="M85.34 47.76h8.05v6.52h-8.05z"/><path class="cls-3" transform="rotate(-180 80.55 48.525)" d="M76.91 48.14h7.28v.77h-7.28z"/><path class="cls-3" transform="rotate(-180 80.165 54.08)" d="M76.91 48.52h6.52v11.12h-6.52z"/><path class="cls-10" transform="rotate(-180 80.165 53.89)" d="M77.67 48.91h4.98v9.97h-4.98z"/><path class="cls-3" d="m77.29 58.49 4.69-9.97h.68l-5.37 10.74v-.77z"/><path class="cls-3" d="m77.67 48.52 5.37 10.74h-.77l-5.14-10.74h.54z"/><path class="cls-10" transform="rotate(-180 91.09 51.015)" d="M89.56 48.52h3.07v4.98h-3.07z"/><path class="cls-3" transform="rotate(-180 91.09 51.015)" d="M90.71 48.14h.77v5.75h-.77z"/><path class="cls-3" transform="rotate(-180 91.285 50.055)" d="M89.17 49.67h4.22v.77h-4.22z"/><path class="cls-3" transform="rotate(-180 91.285 51.975)" d="M89.17 51.59h4.22v.77h-4.22z"/><path class="cls-10" transform="rotate(-180 83.23 39.325)" d="M81.89 38.17h2.68v2.3h-2.68z"/><path class="cls-3" transform="rotate(-180 83.23 39.325)" d="M83.04 37.79h.38v3.07h-.38z"/><path class="cls-3" transform="rotate(-180 83.425 39.13)" d="M81.51 38.94h3.83v.38h-3.83z"/><path class="cls-10" transform="rotate(-180 87.255 51.015)" d="M85.72 48.52h3.07v4.98h-3.07z"/><path class="cls-3" transform="rotate(-180 87.255 51.015)" d="M86.87 48.14h.77v5.75h-.77z"/><path class="cls-3" transform="rotate(-180 87.45 50.055)" d="M85.34 49.67h4.22v.77h-4.22z"/><path class="cls-3" transform="rotate(-180 87.45 51.975)" d="M85.34 51.59h4.22v.77h-4.22z"/><path class="cls-2" d="m122.71 45.19.54 9.13h-2.15v-9.13h1.61z"/><path d="M118.15 32.56s1.07-3.76 4.83-3.22 4.84 5.37 4.84 5.37 2.68-.53 3.22 2.69a3.82 3.82 0 0 1-2.15 4.3 3.36 3.36 0 0 1-.54 4.83c-2.68 2.15-5.91.54-5.91.54s-3.22 3.22-6.44.54-2.15-4.3-2.15-4.3-3.23-1.61-2.69-4.3a2.94 2.94 0 0 1 2.69-2.68s-2.15-2.15 0-3.77a3.68 3.68 0 0 1 4.3 0Z" style="fill:#59843d"/><circle class="cls-12" cx="122.98" cy="34.18" r="1.34"/><circle class="cls-12" cx="127.82" cy="38.47" r="1.34"/><circle class="cls-12" cx="125.4" cy="43.04" r="1.07"/><circle class="cls-12" cx="121.64" cy="39.28" r="1.61"/><circle class="cls-12" cx="117.34" cy="36.06" r="1.07"/><circle class="cls-12" cx="115.19" cy="40.35" r="1.07"/><circle class="cls-12" cx="118.68" cy="43.85" r="1.34"/></svg>