<svg id="Слой_2" data-name="Слой 2" xmlns="http://www.w3.org/2000/svg" viewBox="0 0 188.38 86.06"><defs><style>.cls-2{fill:#59843d}.cls-3{fill:#606060}.cls-9{fill:#51616b}</style></defs><path d="M21.15 21.05c-1.39.23-.2 12-1 12.16s-3.79-3-4.39-2.19S20 35.6 20.15 37.2s-.4 1.79-1 1.4-2.39-2.6-2.79-2 2 2.79 3 4.39 1.2 3.19.2 2.79-3.4-3.39-3.8-2.78 2 3.39 2.6 4.38.39 2-.6 1.2-7-5.78-7.58-5.38 1.4 3.19 3.19 5 5.78 4.39 6.18 5.78.2 2.2-.8 1.4-7.75-5.21-8.17-4.62 2.19 3.59 4 5 4.18 4 4.38 5 .4 1.6-1.79.6-5.38-2.39-7.78-3.59-3.2-2.77-3.6-2.42-.39 1.59 1.4 3.19 6.18 4.59 6.18 5-.8.4-2.79 0-3.79-1-4-.79 2 3 5 4.38 4.58 2.2 4 3.79-2.79.2-4.78-.8-3.8-2.61-4.21-2.21 3.59 4.39 3.19 4.59-1.78 0-4.18-1.4-3.6-2.39-3.79-1.79.6 2.59 3.19 4.18 6.38 3.59 6.38 4.19-.8 1.4-3.39.6-5.39-2.59-5.58-2S5 77.48 7 78.47s3.39 1.4 3.39 1.8-1.59 1-5.38 0-4.79-1.8-5-1.2 2 3.79 5.39 4.19 5 .6 5.18.8a4.34 4.34 0 0 0 3.39 2c2.39.2 6.18-1.6 8.37-1.4s3.59 1.6 6.58 1.2 2.4-1.2 4.19-1.2 11.76-1.39 11.76-2.19-10.76-1-11.76-1.4-.2-1.19 1.6-1.79 13.16-7 13-8-5.39 1.4-8.78 2.4-5.18 1.79-5.58 1.19 1.6-1.19 4.79-3.19 5.78-3.59 5.18-4.18-3.83 1.4-6.82 2.6-3.59 1.19-3.79.6 4.59-3.79 4.19-4.19-3.59 1.2-5.18 1.79-2.4 1-2.6.2 3-2.19 5.79-3.39 8-4.58 7.77-5.58-4.19 1.4-6.78 2.39-3.79 1.4-3.79.6 2-2.59 4-4 3.59-2.79 3.39-3.39-5.58 2.4-6.18 1.6.6-1.6 2.59-4.19 2.39-3.59 2-4-9.57 7.78-10.37 8-1-1.2-.2-2 7.38-6.18 7-6.58-4.79 3-5.59 2.59 4.19-5 3.79-5.39-6.61 4.84-7.21 4.4-1-1.59.2-2.79 8.38-8 7.78-8.37-7.78 4.6-8.57 5.38-.4-2.39.4-3.59 4.78-3.39 4.18-3.59a12.21 12.21 0 0 0-5 1c-1 .6-1.8-.2-1.2-1.8s6-8 5.78-8.37-5.18 4.39-5.78 4.19-.78-10.77-1.97-10.57Z" style="fill:#305937"/><path class="cls-2" d="M63.14 18.73c5.14.27 6.43 3.22 7.39 7.72s-.64 8-9 8.35-8.35-6.1-8.35-9 3.82-7.39 9.96-7.07Z"/><path class="cls-2" d="M75.68 31c6 1.2 7.71 5.14 8 9.64S71.5 49.59 67 46.37s-4.82-11.89-1-13.82A17 17 0 0 1 75.68 31Z"/><path class="cls-2" d="M77.6 43.48c5.14-.43 7.72 6.43 5.79 10.29s-11.07 6.57-13.57 1.68.07-11.32 7.78-11.97ZM50.61 32.88c7.41-.19 8.67 5.46 7.39 8.67s-4.5 4.18-9 3.54-11.57-11.89 1.61-12.21Z"/><path class="cls-2" d="M49 43.8c6.44 0 8.68 6.75 7.39 11.25S50 61.48 44.18 60.2 37.75 53.77 39 49.59s3.89-5.79 10-5.79Z"/><path class="cls-3" d="M60.67 30v44.62h3.83S63.22 30 60.67 30Z"/><path class="cls-3" d="M54.29 41.45A12.74 12.74 0 0 0 57.36 47c1.19 1.37 4.64 2.1 4.64 2.1v1.28a10.56 10.56 0 0 1-5.11-2.55A20.92 20.92 0 0 1 53 42.72ZM53.55 50.35a12.83 12.83 0 0 0 3.88 5c1.4 1.15 4.86 1.36 4.86 1.36l.2 1.26a10.56 10.56 0 0 1-5.44-1.74 20.85 20.85 0 0 1-4.56-4.46ZM70.15 45a12.78 12.78 0 0 1-3.06 5.57c-1.2 1.35-4.59 2.09-4.59 2.09v1.27a10.51 10.51 0 0 0 5.1-2.55 21.24 21.24 0 0 0 3.83-5.1ZM71.54 52.6a12.83 12.83 0 0 1-3.88 5c-1.4 1.18-4.86 1.4-4.86 1.4l-.2 1.26a10.56 10.56 0 0 0 5.4-1.75 20.85 20.85 0 0 0 4.56-4.46ZM69.19 38.55a12.84 12.84 0 0 1-3.06 5.58c-1.2 1.34-4.6 2.08-4.6 2.08v1.27a10.56 10.56 0 0 0 5.11-2.55 20.78 20.78 0 0 0 3.82-5.1Z"/><path style="fill:#a4a2a1" d="M110.54 38.62h76.76v20.67h-76.76z"/><path style="fill:#818986" d="M188.38 40.17h-77.86v-9.99l20.06-16.47h42.55l15.25 12.99v13.47z"/><path style="fill:#c4c4c4" d="M153.09 59.29h-42.55v-27.3l21.27-17.2 21.28 17.2v27.3z"/><path style="fill:#afabaa" d="M153.08 0h6.41v14.79h-6.41z"/><path style="fill:#e0ddda" d="M150.91 11.91h11v4.81h-11z"/><path class="cls-9" d="M128.19 26.94h2.54v6.25h-2.54zM131.81 26.94h2.9v6.25h-2.9zM117.67 42.57h3.51v1.2h-3.51zM122.26 42.57h2.9v1.2h-2.9zM117.67 44.62h3.51v7.7h-3.51zM122.26 44.62h2.9v7.7h-2.9zM157.19 43.78h3.87v2.77h-3.87zM157.19 48.47h3.87V51h-3.87zM157.19 52.32h3.87v2.53h-3.87zM163 43.78h3.87v2.77H163zM163 48.47h3.87V51H163zM163 52.32h3.87v2.53H163zM168.8 43.78h3.87v2.77h-3.87zM168.8 48.47h3.87V51h-3.87zM168.8 52.32h3.87v2.53h-3.87zM174.6 43.78h3.87v2.77h-3.87zM174.6 48.47h3.87V51h-3.87zM174.6 52.32h3.87v2.53h-3.87zM180.4 43.78h3.87v2.77h-3.87zM180.4 48.47h3.87V51h-3.87zM180.4 52.32h3.87v2.53h-3.87zM137.98 42.57h3.51v1.2h-3.51zM142.57 42.57h2.9v1.2h-2.9zM137.98 44.62h3.51v7.7h-3.51zM142.57 44.62h2.9v7.7h-2.9z"/><path d="M98.84 7.78s1.41 2.82 3.18 3.88c0 .36-2-.7-2.12-.35s3 3.71 4.23 4.41c-.35.53-2.47-.7-2.64-.35s3 3.53 4.58 4.59c-.7.7-3.52-1.06-3.7-.71s4.94 6.35 6.53 7.06c-.18.53-3.88-1.06-4.06-.71s4.76 7.06 6.35 8.12c-.35.71-3.7-1.59-4.06-.88s6 7.58 7.59 8.47c-.35.53-5.82-1.24-6-.71s5.47 7.77 7.94 9c-.17.71-5.64-1.76-6-1.06s6.88 7.59 9.18 8.82c0 .89-8.82-1.41-9-.88s6.88 5.65 9 6.71c0 .7-19.24-2.47-20.47-2.47S78 63.54 77.49 62.83c3.88-1.41 9.53-5.29 9.35-6s-9 1.58-9.35.7c4.94-3 10.41-8.12 10.06-8.65s-6.36 1.59-6.53.71c5.47-3.88 8.29-8.47 8.11-9s-6 1.77-6.35.71c5.47-4.06 8.47-7.41 8.3-8.12s-4.77 1.41-5 .53c3.92-3.17 6.92-7.4 6.76-7.93s-3.88 1.06-4.06.35c3.88-2.64 6.35-5.82 6-6.17s-3 .88-3.35.17c2.12-1.41 4.94-4.06 4.94-4.59s-2.47.71-2.65.18c2.12-1.76 3.71-3.7 3.71-4.06s-1.24.34-1.43-.17a11.82 11.82 0 0 0 2.84-3.71Z" style="fill:#406632"/></svg>