<svg width="521" height="735" fill="none" xmlns="http://www.w3.org/2000/svg"><path opacity=".12" d="M511.106 735H185.01c-5.046 0-9.131-4.096-9.131-9.131v-.558c0-5.046 4.096-9.131 9.131-9.131h326.084c5.047 0 9.131 4.097 9.131 9.131v.558c.012 5.035-4.084 9.131-9.119 9.131Z" fill="#000"/><path d="M463.739 633.193H16.588C7.421 633.193 0 625.76 0 616.605V16.588C0 7.421 7.433 0 16.588 0h447.151c9.167 0 16.588 7.433 16.588 16.588v600.006c0 9.166-7.421 16.599-16.588 16.599Z" fill="#606060"/><path d="M273.413 627.615h-61.329v84.377h61.329v-84.377Z" fill="#606060"/><path d="M309.119 707.109H176.392c-7.635 0-13.81 6.187-13.81 13.81v.261c0 7.635 6.186 13.81 13.81 13.81h132.727c7.635 0 13.81-6.187 13.81-13.81v-.261c.012-7.623-6.175-13.81-13.81-13.81Z" fill="#606060"/><path d="M441.903 37.657H38.423v557.877h403.48V37.657Z" fill="#E7E9EA"/><path d="M35.188 34.591v563.992h409.95V34.591H35.188Zm403.467 557.877H41.671V40.718h396.984v551.75Z" fill="#ACB4BB"/></svg>