<svg id="_Шар_2" data-name="Шар 2" xmlns="http://www.w3.org/2000/svg" viewBox="0 0 178.4 71.75"><defs><style>.cls-1{fill:#fff}.cls-2{fill:#575c6c}</style></defs><g id="_Шар_1-2" data-name="Шар 1"><path class="cls-2" d="M178.4 68.85 2.22 71.75H0L81.94.06H95.7l82.7 68.79z"/><g id="Road_Line" data-name="Road Line"><path class="cls-1" d="m95.08 68.01-2.82-.16-.04-.66-1.33-26.47 1.48-.25 2.71 27.54z"/><path class="cls-2" d="m91.32 56.38 2.82.12-.61-5.15-2.64-.11.43 5.14zM90.44 44.96l2.82.12-.6-5.15-2.65-.11.43 5.14z"/></g><path class="cls-1" d="m1.74 71.65-.75.05-.99.05L81.94.06l.25.02L1.74 71.65zM176.95 68.73l1.45.12L95.71 0h-.3l81.54 68.73z"/></g></svg>