<svg id="Слой_2" data-name="Слой 2" xmlns="http://www.w3.org/2000/svg" viewBox="0 0 89.31 45.83"><defs><style>.cls-1{fill:#606060}.cls-4{fill:#51616b}.cls-5{fill:#a4a2a1}.cls-7{fill:#59843d}</style></defs><path class="cls-1" d="M42.59 0h2.08v7.63h-2.08z"/><path style="fill:#eae7e4" d="M87.61 26.5H34.06V7.63l26.77-6.4 26.78 6.4V26.5z"/><path style="fill:#686665" d="M32.14 26.5h57.17v18.34H32.14z"/><path class="cls-4" d="M41.1 13.28h2.99v7.36H41.1zM44.67 13.28h3.95v7.36h-3.95zM57.74 13.28h2.99v7.36h-2.99zM61.31 13.28h3.95v7.36h-3.95zM73.1 13.28h2.99v7.36H73.1zM76.67 13.28h3.95v7.36h-3.95z"/><path class="cls-5" d="M41.1 28.64h2.99V36H41.1zM44.67 28.64h3.95V36h-3.95zM57.74 28.64h2.99V36h-2.99zM61.31 28.64h3.95V36h-3.95zM73.1 28.64h2.99V36H73.1zM76.67 28.64h3.95V36h-3.95z"/><path class="cls-1" d="M88.1 8.03 60.75 1.29 33.29 7.93l-.04-.19 27.5-6.65h.02l27.38 6.75-.05.19zM17.09 32.39l.79 13.44h-3.17V32.39h2.38z"/><path d="M10.37 13.81S12 8.28 17.48 9.07 24.59 17 24.59 17s4-.79 4.75 3.95a5.61 5.61 0 0 1-3.16 6.32s3.16 4-.8 7.12-8.69.79-8.69.79S12 39.9 7.2 36 4 29.62 4 29.62-.7 27.25.09 23.3s4-3.95 4-3.95S.88 16.19 4 13.81a5.42 5.42 0 0 1 6.37 0Z" style="fill:#96c22f"/><circle class="cls-7" cx="17.48" cy="16.19" r="1.98"/><circle class="cls-7" cx="24.59" cy="22.51" r="1.98"/><circle class="cls-7" cx="21.04" cy="29.23" r="1.58"/><circle class="cls-7" cx="15.5" cy="23.7" r="2.37"/><circle class="cls-7" cx="9.18" cy="18.95" r="1.58"/><circle class="cls-7" cx="6.02" cy="25.28" r="1.58"/><circle class="cls-7" cx="11.16" cy="30.42" r="1.98"/></svg>