<svg width="165" height="244" fill="none" xmlns="http://www.w3.org/2000/svg"><path d="M134.32 174.871c-.238 0-.434.238-.442 0-.008-.235-.653-26.058 0-36.755.653-10.677 3.063-46.806 3.086-47.168a.44.44 0 0 1 .878.058c-.023.365-2.433 36.489-3.086 47.162-.653 10.656-.005 36.465 0 36.7.008.244-.185-.007-.428 0 0 .003-.003.003-.008.003Z" fill="#EAB83D"/><path d="M145.78 123.598c-5.731 7.934-9.917 51.274-9.917 51.274h-5.07s4.186-42.015 14.987-51.274Z" fill="#7FA024"/><path d="M128.148 131.752c5.29 5.731 7.715 43.119 7.715 43.119h-5.07s1.542-29.235-2.645-43.119Z" fill="#7FA024"/><path d="M153.715 145.637c-15.868 4.409-15.429 29.234-15.429 29.234h-4.739c.003 0 .994-30.998 20.168-29.234Z" fill="#7FA024"/><path d="M119.773 156.877c12.343 2.203 14.657 17.994 14.657 17.994h-6.281s0-11.602-8.376-17.994Z" fill="#7FA024"/><path d="M139.168 96.265c.589 1.57.219 13.665-.442 15.868-.661 2.203-3.747 3.306-4.848.442-1.102-2.865-.219-12.785.442-15.207.659-2.425 4.187-2.864 4.848-1.103Z" fill="#4E5E0B"/><path d="M131.54 132.645c-5.509 10.139-5.07 39.371-5.07 39.371h-5.95c0 .002.441-33.86 11.02-39.371ZM108.617 140.582c6.612 3.967 11.901 31.437 11.901 31.437h-5.95s-.884-20.858-5.951-31.437Z" fill="#7FA024"/><path d="M120.082 172.019c-.079-.476-7.947-49.889-9.674-54.422a.44.44 0 1 1 .823-.314c1.195 3.136 5.101 25.251 7.587 39.728-1.01-10.402-2.319-24.45-2.708-31.17-.653-11.343-.444-43.563-.442-43.888a.443.443 0 0 1 .442-.44h.003c.243.003.439.202.439.445-.003.323-.212 32.516.439 43.833.653 11.319 3.932 45.906 3.964 46.228h-.873ZM122.72 172.019c-.182 0-.354.183-.418 0-3.081-9.026 1.968-57.722 2.182-59.698a.442.442 0 0 1 .878.096c-.053.481-5.244 50.759-2.224 59.6.079.23-.045-.08-.275 0-.048.018-.095.002-.143.002Z" fill="#EAB83D"/><path d="M118.753 87.464c.934 2.103.442 14.107 0 16.971-.442 2.864-5.07 3.967-5.731 0-.661-3.967-.219-13.885.442-16.31.661-2.425 4.408-2.644 5.289-.66ZM126.029 117.22c0 2.899-.881 10.579-1.103 13.446-.22 2.864-4.187 4.186-4.409.441-.219-3.747 1.323-12.123 1.984-13.884.661-1.762 3.528-1.547 3.528-.003ZM113.244 122.068c.997.997 3.086 9.698 3.306 13.224.193 3.086-2.864 4.628-4.409 1.764-1.544-2.865-2.864-10.579-2.644-12.785.219-2.203 2.644-3.303 3.747-2.203Z" fill="#4E5E0B"/><path d="M126.025 128.9c-2.864 7.715-3.194 43.119-3.194 43.119h-5.179c-.002 0 .439-38.713 8.373-43.119ZM162.469 147.672c23.545-.108 29.509 39.472 29.509 39.472l-6.797-.767s-3.898-30.348-22.712-38.705ZM95.454 126.633c-6.506 9.529-9.02 38.659-9.02 38.659l-5.922-.6c0-.003 3.858-33.645 14.942-38.059ZM71.848 132.211c6.178 4.615 8.664 32.479 8.664 32.479l-5.922-.6s1.23-20.84-2.742-31.879Z" fill="#7FA024"/><path d="M80.079 164.647c-.032-.481-2.865-50.436-4.126-55.122a.44.44 0 1 1 .851-.228c.873 3.24 2.523 25.638 3.534 40.292.045-10.449.161-24.561.455-31.284.494-11.351 3.961-43.386 3.996-43.708a.442.442 0 0 1 .484-.392h.002a.44.44 0 0 1 .392.487c-.035.323-3.497 32.328-3.991 43.653-.495 11.327-.728 46.067-.728 46.395l-.87-.093ZM82.705 164.912c-.182-.019-.37.145-.415-.043-2.156-9.29 7.788-57.227 8.204-59.171a.44.44 0 1 1 .862.185c-.1.473-10.346 49.971-8.236 59.071.056.238-.037-.082-.272-.026-.05.01-.098-.011-.143-.016Z" fill="#EAB83D"/><path d="M87.301 80.392c.717 2.187-.986 14.078-1.714 16.884-.727 2.806-5.445 3.435-5.701-.58-.257-4.014 1.184-13.836 2.086-16.182.902-2.343 4.652-2.185 5.33-.122ZM91.53 110.727c-.294 2.886-1.947 10.436-2.455 13.266s-4.588 3.742-4.43-.008c.159-3.75 2.542-11.927 3.377-13.615.836-1.687 3.663-1.179 3.507.357ZM78.321 114.259c.892 1.095 2.09 9.96 1.952 13.491-.119 3.091-3.319 4.316-4.564 1.309-1.246-3.007-1.783-10.814-1.341-12.985.447-2.169 2.97-3.021 3.953-1.815Z" fill="#4E5E0B"/><path d="M90.35 122.348c-3.632 7.384-7.538 42.576-7.538 42.576l-5.152-.524s4.35-38.469 12.69-42.052ZM123.811 34.744c-3.382 7.254-1.834 27.473-1.834 27.473l-4.121.253s-1.135-23.462 5.955-27.726ZM108.277 41.21c4.747 2.468 9.578 21.26 9.578 21.26l-4.122.252s-1.494-14.404-5.456-21.511Z" fill="#7FA024"/><path d="M117.553 62.49c-.076-.326-7.623-34.2-9.014-37.267a.308.308 0 0 1 .153-.406c.153-.07.336 0 .406.154.962 2.12 4.607 17.266 6.941 27.183-1.142-7.157-2.647-16.83-3.199-21.464-.936-7.827-2.161-30.144-2.174-30.367a.308.308 0 0 1 .286-.322h.004c.169-.01.313.12.323.29.013.222 1.235 22.519 2.17 30.325.932 7.81 4.674 31.615 4.71 31.838l-.606.036ZM119.378 62.378c-.126.007-.236.143-.289.017-2.517-6.119-1.092-40.047-1.029-41.425.007-.17.15-.3.32-.29.169.007.299.15.289.32-.016.336-1.471 35.366.996 41.358.063.156-.034-.053-.19.01-.03.017-.063.006-.097.01Z" fill="#EAB83D"/><path d="M113.039 4.006c.736 1.414.906 9.747.722 11.75-.183 2.005-3.342 2.963-3.968.244-.625-2.72-.742-9.604-.389-11.312.353-1.708 2.939-2.017 3.635-.682ZM119.339 24.294c.123 2.008-.16 7.364-.19 9.355-.03 1.994-2.72 3.076-3.033.492-.312-2.583.4-8.448.783-9.697.379-1.248 2.373-1.218 2.44-.15ZM110.694 28.196c.732.65 2.55 6.585 2.853 9.015.266 2.13-1.788 3.325-2.976 1.408-1.189-1.918-2.434-7.204-2.374-8.738.057-1.535 1.688-2.4 2.497-1.685Z" fill="#4E5E0B"/><path d="M119.835 32.385c-1.655 5.462-.38 29.99-.38 29.99l-3.585.22s-1.341-26.821 3.965-30.21ZM49.199 44.778c-17.284-1.471-20.926 16.764-20.926 16.764h5.503c0-.003 1.861-13.742 15.423-16.764Z" fill="#7FA024"/><path d="M47.105 32.764c-15.502 4.03-21.082 28.774-21.082 28.774h4.315c.003 0 2.353-19.94 16.767-28.774Z" fill="#7FA024"/><path d="M3.395 37.257c16.43-1.86 23.718 24.28 23.718 24.28h-4.807s-5.117-20.096-18.911-24.28Z" fill="#7FA024"/><path d="M6.96 50.124c13.643-5.892 17.518 11.414 17.518 11.414h-4.341S17.347 50.124 6.96 50.124Z" fill="#7FA024"/><path d="M25.35 61.539h-.314c-.073-.213-7.227-22.493-7.843-33.875-.612-11.348-.619-14.557-.619-14.587 0-.17.14-.31.31-.31.17 0 .31.14.31.31 0 .03.006 3.232.619 14.554.536 9.937 6.115 29.65 7.503 33.908l11.887-42.35a.313.313 0 0 1 .386-.21c.164.05.257.22.21.386L25.35 61.54Z" fill="#EAB83D"/><path d="M26.023 61.538c-.156 0-.293.16-.31 0-.02-.206-2.01-21.568-1.55-28.795l2.014-31.468.619.04s-1.552 24.181-2.014 31.468c-.46 7.177 1.528 28.552 1.548 28.755.016.17-.107-.016-.28 0h-.027Z" fill="#EAB83D"/><path d="M24.475 4.703c.35-1.581 2.79-1.86 3.255-.31.466 1.552-.286 10.673-.466 12.091-.31 2.48-3.565 2.324-3.721.466-.2-2.397.622-10.852.932-12.247ZM18.123 16.331c.635.762 1.085 9.767.928 10.696-.156.928-2.323 1.704-2.79.31-.465-1.395-.775-8.373-.618-9.768.153-1.394 1.704-2.17 2.48-1.238ZM38.118 22.377c-.17 1.698-2.014 8.835-2.636 10.077-.62 1.241-3.1 1.085-3.1-.62 0-1.704 1.862-8.525 2.48-9.766.62-1.242 3.41-1.242 3.256.31Z" fill="#4E5E0B"/><path d="M28.351 25.477c2.324 6.664-.076 36.061-.076 36.061h-3.798s.928-28.774 3.874-36.061Z" fill="#7FA024"/><path d="M20.757 27.646c3.1 5.427 6.285 33.892 6.285 33.892h-3.183s-6.045-25.057-3.102-33.891Z" fill="#7FA024"/><path d="M17.643 163.212c-.233.045-.381.315-.434.082-.05-.23-5.495-25.481-6.844-36.11-1.346-10.613-5.71-46.557-5.752-46.92a.446.446 0 0 1 .383-.491c.24-.03.46.143.492.383.045.363 4.406 36.304 5.752 46.914 1.344 10.592 6.786 35.827 6.836 36.057.053.238-.182.027-.42.08-.005.005-.01.005-.013.005Z" fill="#EAB83D"/><path d="M19.354 110.701c-4.152 8.862-.195 52.224-.195 52.224l-4.98.944c0-.002-3.71-42.063 5.175-53.168Z" fill="#7FA024"/><path d="M3.55 121.998c6.266 4.644 15.61 40.929 15.61 40.929l-4.98.944c0-.003-3.93-29.012-10.63-41.873Z" fill="#7FA024"/><path d="M31.256 130.879c-14.77 7.286-9.714 31.596-9.714 31.596l-4.655.883c-.002-.003-4.8-30.641 14.369-32.479Z" fill="#7FA024"/><path d="M0 148.243c12.536-.132 17.751 14.948 17.751 14.948l-6.173 1.169c0 .002-2.16-11.396-11.578-16.117Z" fill="#7FA024"/><path d="M7.77 85.08c.872 1.433 2.76 13.384 2.523 15.672-.238 2.287-3.066 3.946-4.681 1.335-1.616-2.61-2.598-12.52-2.4-15.024.197-2.502 3.58-3.592 4.558-1.984Z" fill="#4E5E0B"/><path d="M88.716 139.929c-24.574-2.095-29.755 23.834-29.755 23.834h7.823c.002 0 2.647-19.536 21.932-23.834Z" fill="#7FA024"/><path d="M85.74 122.846c-22.04 5.731-29.974 40.915-29.974 40.915H61.9s3.343-28.351 23.84-40.915Z" fill="#7FA024"/><path d="M23.59 129.238c23.363-2.644 33.722 34.524 33.722 34.524H50.48c-.003 0-7.276-28.573-26.891-34.524Z" fill="#7FA024"/><path d="M28.656 147.532c19.396-8.376 24.905 16.23 24.905 16.23h-6.17s-3.97-16.23-18.735-16.23Z" fill="#7FA024"/><path d="M54.804 163.762h-.444c-.103-.304-10.277-31.982-11.152-48.164-.873-16.135-.884-20.697-.884-20.742a.442.442 0 0 1 .884 0c0 .045.01 4.596.88 20.694.764 14.128 8.696 42.159 10.666 48.212l16.902-60.213a.442.442 0 0 1 .846.248l-17.698 59.965Z" fill="#EAB83D"/><path d="M55.767 163.763c-.225 0-.416.227-.44 0-.029-.291-2.86-30.668-2.205-40.942.661-10.36 2.864-44.743 2.864-44.743l.88.056s-2.202 34.383-2.863 44.742c-.65 10.206 2.174 40.596 2.203 40.887.023.243-.154-.024-.397 0-.013.002-.026 0-.042 0Z" fill="#EAB83D"/><path d="M53.565 82.954c.5-2.245 3.967-2.644 4.629-.441.66 2.203-.41 15.175-.662 17.19-.441 3.526-5.07 3.306-5.289.661-.283-3.409.88-15.426 1.322-17.41ZM44.529 99.483c.904 1.085 1.541 13.885 1.322 15.207-.22 1.322-3.306 2.425-3.967.442-.661-1.984-1.103-11.901-.88-13.885.219-1.983 2.422-3.086 3.525-1.764ZM72.96 108.081c-.24 2.412-2.863 12.562-3.747 14.326-.88 1.764-4.408 1.542-4.408-.881 0-2.422 2.644-12.123 3.525-13.884.883-1.767 4.85-1.767 4.63.439Z" fill="#4E5E0B"/><path d="M59.074 112.486c3.306 9.479-.111 51.275-.111 51.275h-5.4c.002 0 1.324-40.916 5.51-51.275Z" fill="#7FA024"/><path d="M48.276 115.574c4.408 7.715 8.933 48.189 8.933 48.189h-4.527c.002 0-8.596-35.627-4.406-48.189ZM96.76 193.294c-3.009 4.681-3.343 12.706-3.678 13.709-.334 1.003-9.696 1.671-10.364 0-.67-1.672-2.007-6.019-9.362-10.365 6.018 0 11.702 5.015 11.702 5.015s1.003-4.347-2.006-10.365c2.675 1.003 4.012 4.681 4.012 4.681s2.006-8.693 8.359-12.371c-3.344 5.349-3.344 14.711-3.344 14.711s1.672-4.346 4.681-5.015ZM178.508 223.052c-9.696 3.344-17.052 15.715-17.052 15.715s-4.346-12.706-13.374-18.724c7.356 9.028 9.696 20.73 9.362 20.396-.334-.335-4.012-5.684-9.362-6.353 3.344 2.34 6.687 8.359 7.69 9.028 1.003.668 7.69 1.337 8.693 0 1.004-1.338 1.672-9.028 14.043-20.062Z" fill="#7FA024"/></svg>