<svg xmlns="http://www.w3.org/2000/svg" viewBox="0 0 365.5 306.67"><defs><clipPath id="clip-path"><rect class="cls-1" x="6.07" y="192.93" width="128.31" height="44.06" rx="7.47" transform="rotate(89.11 70.223 214.974)"/></clipPath><clipPath id="clip-path-2"><rect class="cls-1" x="241.22" y="192.93" width="128.31" height="44.06" rx="7.47" transform="rotate(89.11 305.378 214.98)"/></clipPath><style>.cls-1{fill:none}.cls-3{fill:#232323}.cls-18,.cls-6{fill:#0c96fd}.cls-7{fill:#1d7dcc}.cls-8{fill:#8a9995}.cls-9{fill:#fff}.cls-10{fill:#606060}.cls-11{fill:#303030}.cls-13{fill:#f69576}.cls-14{fill:#dd866f}.cls-15{fill:#a5713d}.cls-16{fill:#6b3425}.cls-17{fill:#72645d}.cls-18{opacity:.21}.cls-19{fill:#ff6d00}.cls-20{fill:#ffdfc6}.cls-21{fill:#a84400}</style></defs><g id="Слой_7" data-name="Слой 7"><path d="M365.5 282.16c0 13.54-81.82 24.51-182.75 24.51S0 295.7 0 282.16c0-7.06 22.27-83.44 57.91-87.91 32.67-4.1 76.57-6.61 124.84-6.61 50.46 0 96.15 2.74 129.22 7.17s53.53 80.58 53.53 87.35Z" style="opacity:.15"/><rect class="cls-3" x="6.07" y="192.93" width="128.31" height="44.06" rx="7.47" transform="rotate(89.11 70.223 214.974)"/><g style="-webkit-clip-path:url(#clip-path);clip-path:url(#clip-path)"><path d="m78.2 163.55 5.29-9.72 10.08-.67-.19-12.55-7.96.12-7.39 12.08.17 10.74zM64.47 158.53l5.4 8.26 5.15-8.04-.17-11.32-5.16 7.39-5.4-8.13.18 11.84zM60.95 153.08l-7.75-11.85-7.96.12.2 12.55 10.1.36 5.58 9.56-.17-10.74z"/><path d="m78.47 180.63 5.28-9.72 10.08-.67-.19-12.55-7.96.12-7.38 12.08.17 10.74zM70.14 183.87l5.14-8.04-.17-11.32-5.16 7.39-5.4-8.14.18 11.84 5.41 8.27zM61.22 170.16l-7.75-11.85-7.96.12.19 12.55 10.1.36 5.58 9.56-.16-10.74zM78.75 199.27l5.29-9.73 10.08-.67-.19-12.55-7.96.12-7.38 12.09.16 10.74z"/><path d="m70.42 202.5 5.15-8.04-.17-11.32-5.16 7.39-5.4-8.13.18 11.84 5.4 8.26zM61.51 188.79l-7.76-11.85-7.95.12.19 12.55 10.1.36 5.58 9.56-.16-10.74zM79.02 216.35l5.28-9.73 10.09-.67-.2-12.55-7.96.12-7.38 12.09.17 10.74z"/><path d="m70.69 219.58 5.15-8.04-.18-11.32-5.16 7.39-5.4-8.13.18 11.84 5.41 8.26zM61.77 205.87l-7.75-11.85-7.96.12.19 12.55 10.1.36 5.59 9.56-.17-10.74zM79.28 233.43l5.29-9.73 10.08-.67-.19-12.55-7.96.12-7.39 12.09.17 10.74z"/><path d="m70.95 236.66 5.15-8.04-.18-11.32-5.15 7.39-5.4-8.13.18 11.84 5.4 8.26zM62.03 222.95l-7.75-11.85-7.96.12.2 12.55 10.1.36 5.58 9.56-.17-10.74zM79.54 250.5l5.29-9.72 10.08-.67-.19-12.55-7.96.12-7.38 12.08.16 10.74z"/><path d="m71.21 253.74 5.15-8.04-.17-11.32-5.16 7.39-5.4-8.13.18 11.84 5.4 8.26zM62.3 240.03l-7.75-11.85-7.96.12.19 12.55 10.1.36 5.59 9.56-.17-10.74zM79.83 269.14l5.29-9.73 10.08-.67-.19-12.55-7.96.12-7.38 12.09.16 10.74z"/><path d="m71.5 272.37 5.15-8.04-.17-11.32-5.16 7.39-5.4-8.13.18 11.84 5.4 8.26zM62.59 258.66l-7.76-11.85-7.95.12.19 12.55 10.1.37 5.58 9.55-.16-10.74zM80.1 286.22l5.28-9.73 10.09-.67-.2-12.55-7.96.12-7.38 12.09.17 10.74z"/><path d="m71.77 289.45 5.15-8.04-.18-11.32-5.16 7.39-5.4-8.13.18 11.84 5.41 8.26zM55.1 263.89l-7.96.12.19 12.55 10.1.37 5.59 9.55-.17-10.74-7.75-11.85z"/></g><rect class="cls-3" x="241.22" y="192.93" width="128.31" height="44.06" rx="7.47" transform="rotate(89.11 305.378 214.98)"/><g style="-webkit-clip-path:url(#clip-path-2);clip-path:url(#clip-path-2)"><path d="m313.35 163.55 5.28-9.72 10.09-.67-.2-12.55-7.95.12-7.39 12.08.17 10.74zM299.62 158.53l5.4 8.26 5.15-8.04-.18-11.32-5.16 7.39-5.4-8.13.19 11.84zM296.1 153.08l-7.75-11.85-7.96.12.19 12.55 10.1.36 5.59 9.56-.17-10.74z"/><path d="m313.61 180.63 5.29-9.72 10.08-.67-.19-12.55-7.96.12-7.39 12.08.17 10.74zM305.28 183.87l5.15-8.04-.17-11.32-5.16 7.39-5.4-8.14.18 11.84 5.4 8.27zM296.37 170.16l-7.76-11.85-7.96.12.2 12.55 10.1.36 5.58 9.56-.16-10.74zM313.9 199.27l5.28-9.73 10.09-.67-.2-12.55-7.95.12-7.39 12.09.17 10.74z"/><path d="m305.57 202.5 5.15-8.04-.18-11.32-5.16 7.39-5.4-8.13.19 11.84 5.4 8.26zM296.65 188.79l-7.75-11.85-7.96.12.19 12.55 10.11.36 5.58 9.56-.17-10.74zM314.16 216.35l5.29-9.73 10.08-.67-.19-12.55-7.96.12-7.38 12.09.16 10.74z"/><path d="m305.83 219.58 5.15-8.04-.17-11.32-5.16 7.39-5.4-8.13.18 11.84 5.4 8.26zM296.92 205.87l-7.76-11.85-7.96.12.2 12.55 10.1.36 5.58 9.56-.16-10.74zM314.43 233.43l5.28-9.73 10.09-.67-.2-12.55-7.96.12-7.38 12.09.17 10.74z"/><path d="m306.1 236.66 5.15-8.04-.18-11.32-5.16 7.39-5.4-8.13.18 11.84 5.41 8.26zM297.18 222.95l-7.75-11.85-7.96.12.19 12.55 10.1.36 5.59 9.56-.17-10.74zM314.69 250.5l5.29-9.72 10.08-.67-.19-12.55-7.96.12-7.39 12.08.17 10.74z"/><path d="m306.36 253.74 5.15-8.04-.18-11.32-5.15 7.39-5.4-8.13.18 11.84 5.4 8.26zM297.44 240.03l-7.75-11.85-7.96.12.2 12.55 10.1.36 5.58 9.56-.17-10.74zM314.98 269.14l5.28-9.73 10.09-.67-.2-12.55-7.95.12-7.39 12.09.17 10.74z"/><path d="m306.65 272.37 5.15-8.04-.18-11.32-5.16 7.39-5.4-8.13.19 11.84 5.4 8.26zM297.73 258.66l-7.75-11.85-7.96.12.19 12.55 10.1.37 5.59 9.55-.17-10.74zM315.24 286.22l5.29-9.73 10.08-.67-.19-12.55-7.96.12-7.38 12.09.16 10.74z"/><path d="m306.91 289.45 5.15-8.04-.17-11.32-5.16 7.39-5.4-8.13.18 11.84 5.4 8.26zM290.24 263.89l-7.95.12.19 12.55 10.1.37 5.58 9.55-.16-10.74-7.76-11.85z"/></g><path class="cls-6" d="M195.79 153H15.36s-.41-8.59 4.91-19.64 16-20.68 22.71-29.57 12.88-29.36 21.89-46.13c7.42-13.84 19.85-44.07 24-54.24A5.48 5.48 0 0 1 93.94 0h96.36a5.49 5.49 0 0 1 5.49 5.49Z"/><path class="cls-6" d="M31.14 65.43h18.75a4.2 4.2 0 0 1 4.2 4.2v11.63h-23a2.68 2.68 0 0 1-2.68-2.68V68.11a2.68 2.68 0 0 1 2.73-2.68Z"/><path class="cls-7" d="M11.68 152.99H195.8v59.33H11.68z"/><path class="cls-8" d="M17.81 180.81s19.5-2.86 23.46 0S54.09 205 54.09 205H28.45Z"/><path class="cls-9" d="M26 141.94c3.13-6 41.32-7.77 47.87-3.27S88.6 155.44 87 158.31s-70.41 1.63-61-16.37Z"/><circle class="cls-9" cx="101.18" cy="149.2" r="6.44"/><path class="cls-10" d="M8.4 212.32h187.39v26.59H12a3.63 3.63 0 0 1-3.62-3.62v-23l.02.03Z"/><path class="cls-11" d="M195.79 205H112a6.48 6.48 0 0 1-6.41-7.4l4.19-29.14a10.41 10.41 0 0 1 10.3-8.92h75.68Z"/><path class="cls-10" d="M133.4 161.58h62.4v6.74h-62.4zM133.4 173.56h62.4v6.74h-62.4zM133.4 182.55h62.4v6.74h-62.4zM133.4 194.53h62.4v6.74h-62.4z"/><path class="cls-8" d="M134.01 208.22h-7.77l6.54-52.57h7.78l-6.55 52.57z"/><path class="cls-11" d="M164.6 225.61h31.2V234h-31.2z"/><path class="cls-6" d="M175.64 153h180.43s.41-8.59-4.91-19.64-16-20.68-22.71-29.57-12.88-29.35-21.89-46.12c-7.42-13.84-19.85-44.07-24-54.24A5.48 5.48 0 0 0 277.49 0h-96.36a5.49 5.49 0 0 0-5.49 5.49Z"/><path class="cls-6" d="M320 65.43h23v11.63a4.2 4.2 0 0 1-4.2 4.2H320a2.68 2.68 0 0 1-2.68-2.68V68.11a2.68 2.68 0 0 1 2.68-2.68Z" transform="rotate(180 330.16 73.345)"/><path class="cls-7" transform="rotate(-180 267.695 182.65)" d="M175.64 152.99h184.12v59.33H175.64z"/><path class="cls-8" d="M353.62 180.81s-19.5-2.86-23.46 0S317.34 205 317.34 205H343Z"/><path class="cls-9" d="M345.43 141.94c-3.13-6-41.32-7.77-47.87-3.27s-14.73 16.77-13.09 19.64 70.37 1.63 60.96-16.37Z"/><circle class="cls-9" cx="270.25" cy="149.2" r="6.44"/><path class="cls-10" d="M179.26 212.32H363v26.59H175.64v-23a3.62 3.62 0 0 1 3.62-3.59Z" transform="rotate(-180 269.33 225.615)"/><path d="M279.56 6H91.87L64.46 75.25S71 92.84 98 94.89c17.79 1.35 54.59 1.81 77.63 2v.08h20.15v-.08c23-.15 59.84-.61 77.63-2 27-2 33.55-19.64 33.55-19.64Z" style="fill:#3b3b3b"/><path class="cls-11" d="M175.64 205h83.76a6.48 6.48 0 0 0 6.41-7.4l-4.2-29.14a10.39 10.39 0 0 0-10.29-8.92h-75.68Z"/><path class="cls-10" transform="rotate(-180 206.835 164.95)" d="M175.64 161.58h62.4v6.74h-62.4z"/><path class="cls-10" transform="rotate(-180 206.835 176.93)" d="M175.64 173.56h62.4v6.74h-62.4z"/><path class="cls-10" transform="rotate(-180 206.835 185.915)" d="M175.64 182.55h62.4v6.74h-62.4z"/><path class="cls-10" transform="rotate(-180 206.835 197.9)" d="M175.64 194.53h62.4v6.74h-62.4z"/><path class="cls-8" d="M237.42 208.22h7.77l-6.54-52.57h-7.78l6.55 52.57z"/><path class="cls-11" transform="rotate(-180 191.235 229.805)" d="M175.64 225.61h31.2V234h-31.2z"/><path class="cls-13" d="M200.67 72.59h66.42v23.67h-66.42z"/><path d="M204.55 52.8c1.6-8.22 17-6 27.92-5.65s20.13-4.24 25.79-.35 4.24 49.46 4.24 49.46h-51.94s-8.48-30.74-6.01-43.46Z"/><path class="cls-13" d="M243.95 50.52h-22.3l1.86-20.68h15.79l4.65 20.68z"/><path class="cls-14" d="M222.4 42.21a20.13 20.13 0 0 0 10.4 2.7 20.65 20.65 0 0 0 9.4-2.14l-2.9-12.93h-15.79Z"/><path class="cls-15" d="M223.28 8.29a9.71 9.71 0 0 0-6.71 7.06c-.71 3.53.7 14.13 4.59 17s21-.41 21.9-.71c5.66-1.76 3.54-15.89.71-18.72s-13.07-7.11-20.49-4.63Z"/><path class="cls-14" d="M215.3 20.79c.75-3.67 6.18-.35 5.17 6.43-1.01 6.96-6.27-.99-5.17-6.43Z"/><path class="cls-16" d="M219.46 28.07h-.05a.21.21 0 0 1 0-.22 8 8 0 0 0 0-3.53c-.2-1.06-.71-2.9-1.88-3.18a1 1 0 0 0-1.32.64A5.16 5.16 0 0 0 216 24a.28.28 0 0 1-.06.21s-.09 0-.1-.1a5.71 5.71 0 0 1 .23-2.51 1.15 1.15 0 0 1 1.45-.74c.93.21 1.66 1.45 2 3.39a8.46 8.46 0 0 1 0 3.85Z"/><path class="cls-16" d="M217.52 27.47s-.05 0-.07-.11a15.29 15.29 0 0 1 .27-6.43c0-.07.07-.1.11-.07a.31.31 0 0 1 0 .22 14.81 14.81 0 0 0-.27 6.14.28.28 0 0 1 0 .21s-.04.04-.04.04Z"/><path class="cls-14" d="M242.48 27.22c-1-6.78 4.42-10.1 5.17-6.43 1.1 5.44-4.15 13.39-5.17 6.43Z"/><path class="cls-16" d="M243.44 28.07a8.61 8.61 0 0 1 0-3.85c.36-1.94 1.09-3.18 2-3.39a1.16 1.16 0 0 1 1.46.74 5.88 5.88 0 0 1 .23 2.51c0 .07-.07.14-.11.1a.28.28 0 0 1 0-.21 5.06 5.06 0 0 0-.2-2.22 1 1 0 0 0-1.31-.64c-1.17.28-1.69 2.12-1.88 3.18a7.8 7.8 0 0 0 0 3.53.28.28 0 0 1 0 .22.05.05 0 0 1-.05 0Z"/><path class="cls-16" d="M245.4 27.43a.24.24 0 0 1 0-.21 14.81 14.81 0 0 0-.27-6.14.3.3 0 0 1 0-.22s.09 0 .11.07a15.2 15.2 0 0 1 .26 6.43c0 .07 0 .11-.07.11s-.02 0-.03-.04Z"/><path class="cls-13" d="M231.53 8.84C223.8 6.61 218 11.11 218 23c0 5.82 1.23 7 3.32 12 1 2.46 6.49 7.33 10 8.24h.43c3.52-.91 9-5.78 10-8.24 2.09-5 3.32-6.19 3.32-12 0-11.89-5.82-16.39-13.54-14.16Z"/><path class="cls-15" d="M218 13.23s4.92 0 8.13 1.77c3.88 2.12 10.58 5.17 16.6 4.59 10.95-1.06 3.18-13.42.35-13.42.71 1.06-.7 2.47-2.12 2.12s-14.5-15.2-22.96 4.94Z"/><path class="cls-9" d="M227.66 32.7s.46 2.83 2.12 3.43a3.74 3.74 0 0 0 4.13-.75 7.88 7.88 0 0 0 1.17-2.72Z"/><path class="cls-16" d="M231.41 31.53a.42.42 0 0 1-.32-.1.86.86 0 0 1-.21-.67v-.11a.88.88 0 0 0-.25.21.6.6 0 0 1-.53.18.83.83 0 0 1-.53-.67 3.6 3.6 0 0 1 .46-1.66.16.16 0 0 1 .28.14 2.63 2.63 0 0 0-.42 1.41c.07.28.17.39.28.43s.14 0 .18-.08c.24-.24.42-.35.56-.35a.28.28 0 0 1 .21.14.64.64 0 0 1 0 .29.69.69 0 0 0 .1.45s.11 0 .22 0 .24-.21.24-.57c0-.17 0-.31.07-.38a.27.27 0 0 1 .18-.07c.14 0 .21.1.32.17s.28.18.42.07a.34.34 0 0 0 .07-.35 2.35 2.35 0 0 0-.56-1.31c-.07 0-.07-.14 0-.21a.19.19 0 0 1 .22 0 2.58 2.58 0 0 1 .7 1.56c0 .28 0 .49-.18.6a.58.58 0 0 1-.84 0l-.07-.07v.07c0 .29 0 .82-.53.92Zm-.5-.88Z"/><ellipse class="cls-16" cx="224.8" cy="26.13" rx=".6" ry="1.2"/><path class="cls-16" d="M222.71 23a4.9 4.9 0 0 1 2.4-1 4.26 4.26 0 0 1 2.12.5c.43.1.5-.5.25-1s-1.13-.88-2.62-.85a3.48 3.48 0 0 0-2.68 1.17c-.42.42-.11 1.69.53 1.18Z"/><ellipse class="cls-16" cx="236.74" cy="26.2" rx=".6" ry="1.2"/><path class="cls-16" d="M234.35 22.34a4.9 4.9 0 0 1 2.57-.38 4.25 4.25 0 0 1 1.94 1c.38.2.59-.36.47-.9s-.88-1.13-2.33-1.45a3.61 3.61 0 0 0-2.89.48c-.52.34-.51 1.62.24 1.25ZM235.89 36.76a24 24 0 0 1-1.8 3.5 6.89 6.89 0 0 1-2.51.33 7 7 0 0 1-2.51-.33 24 24 0 0 1-1.8-3.5l-.92.21s1.42 4.56 1.63 5a12.14 12.14 0 0 0 3.43 2V44h.17a.62.62 0 0 0 .18 0 12.29 12.29 0 0 0 3.43-2c.21-.39 1.62-5 1.62-5Z"/><path class="cls-16" d="M231.05 36.9h1.41v2.83h-1.41z"/><ellipse class="cls-13" cx="232.64" cy="50.01" rx="12.54" ry="4.92"/><path d="M208.79 49.32c6.67.89 7.42 5.31 8.13 8.35s.71 19 .71 19l-21.2 2.66s.71-14 2.83-22c1.74-6.61 6.74-8.39 9.53-8.01ZM256.24 47.55c-6.66.9-7.42 5.31-8.12 8.35s-.71 19-.71 19l21.2 2.65s-.71-14-2.83-22c-1.78-6.55-6.71-8.38-9.54-8Z"/><path class="cls-13" d="M256.21 61.47c-.46-.85-2.14.25-2.38.93s.48 8.13.48 8.13-2.33 1.9-2.38 4.38 3.26 4.38 3.45 4.67-.39 2.58 2.73 3.9 5.6.39 5.84-1.27-5.16-13.77-6-16.06-1.35-3.95-1.74-4.68ZM210.42 63.13c.45-.86 2.14.24 2.38.92s-.49 8.13-.49 8.13 2.34 1.9 2.39 4.38-3.26 4.39-3.46 4.68.39 2.58-2.72 3.89-5.6.39-5.84-1.26 5.16-13.78 6-16.07 1.32-3.94 1.74-4.67Z"/><path class="cls-17" d="m263.73 96.61-.52-8.34S262 92 258.58 92s-7.74-2.82-13.82-5.21a31.11 31.11 0 0 0-12.1-1.79 26.5 26.5 0 0 0-10.29 1.85C216.28 89.2 212 92 208.54 92s-4.62-3.75-4.62-3.75l-.53 8.34Z"/><path class="cls-17" d="M204.63 96.61v-1.63a29.4 29.4 0 1 1 58.8 0c0 .55 0 1.09-.05 1.63h6.07v-1.63a35.46 35.46 0 1 0-70.92 0v1.63Z"/><path class="cls-13" d="M204.35 65.83a44.41 44.41 0 0 1 7.26 7.17c.68 1.17.24 3.06-1.37 2.63s-7.3-5.65-8.32-7 .58-3.87 2.43-2.8Z"/><path class="cls-13" d="M200.77 68.22a44.47 44.47 0 0 1 7.79 6.57c.78 1.11.49 3-1.15 2.73s-7.72-5.06-8.84-6.29.28-3.93 2.2-3.01Z"/><path class="cls-13" d="M199.65 72.9a43 43 0 0 1 8.35 5.2c.88 1 .87 2.83-.73 2.76s-8.05-3.78-9.28-4.8-.3-3.78 1.66-3.16Z"/><path class="cls-13" d="M200.15 77.36a36.58 36.58 0 0 1 6.76 4.7c.69.83.53 2.34-.84 2.19s-6.65-3.53-7.64-4.43a1.56 1.56 0 0 1 1.72-2.46ZM262.27 64.18a44.28 44.28 0 0 0-7.27 7.15c-.68 1.17-.24 3.07 1.36 2.63s7.3-5.65 8.33-7-.57-3.86-2.42-2.78Z"/><path class="cls-13" d="M265.85 66.57a44.41 44.41 0 0 0-7.79 6.57c-.77 1.11-.48 3 1.15 2.72s7.73-5 8.85-6.29-.28-3.92-2.21-3Z"/><path class="cls-13" d="M267 71.24a42.64 42.64 0 0 0-8.31 5.21c-.89 1-.87 2.83.73 2.75s8-3.78 9.28-4.8.24-3.78-1.7-3.16Z"/><path class="cls-13" d="M266.48 75.71a36.19 36.19 0 0 0-6.77 4.7c-.69.82-.53 2.34.85 2.18s6.65-3.52 7.63-4.42a1.55 1.55 0 0 0-1.71-2.46Z"/><path class="cls-18" d="M68.52 81.61c4.46 5.22 13.21 12 29.19 13.25l67.56-87.5H122.9ZM196.6 7.36l-68.85 88.79c3.37.09 6.81.16 10.28.23l69.08-89ZM214.53 7.36l-69.21 89.15 10.36.15L225 7.36Z"/><path class="cls-6" d="M197.71 1.28h66.34v4.83h-66.34z"/><path class="cls-19" d="M140.29 63.51c7.27 4.87 10.09 30.54 10.09 30.54l-41.22 2.29s4.78-30.15 9.45-32.83 14.27-4.96 21.68 0Z"/><path class="cls-20" d="M141.61 94.53C139.91 87 137 73 137.78 70a11.93 11.93 0 0 0-1.49-8.44c-5.53-1.85-11.52-.77-15.59.93-.74 5.17 1.87 12.06 2.58 13.24.81 1.34-1.23 13.13-2.5 20Z"/><path class="cls-19" d="M125.19 19.63c12.59.45 12.21 11.83 13.74 18.32s3.59 14.4 2.67 21.75c-1.53 12.21-23.66 13.74-25.57-.76-1.4-10.66-.76-13.36-.76-18.7s-.77-20.99 9.92-20.61Z"/><path class="cls-20" d="M141.6 59.7a36.83 36.83 0 0 0-.14-9.2 76.54 76.54 0 0 0-9.78-1.5c-.38 0-2.45-12.76-2.67-14.12a2.79 2.79 0 0 1 1.9-3.05s-2.12.39-2.67 0A6.81 6.81 0 0 1 126 28.4c.38 1.91-.76 2.68-1.14 3.44S122.9 33 122.9 33s1.91 0 2.67 3.82 1.91 10.69 1.15 12.59c-.61 1.51-7.4 1.59-11.17 5.51.13 1.21.28 2.54.48 4 1.91 14.52 24.04 12.99 25.57.78Z"/><path class="cls-21" d="M117.29 22.76c3.38-.09-.5 9.84-3.17 17.48s.76 15.26-3.05 16-20.23 0-20.61-4.19 6.11-2.68 11.45-7.26 12.45-21.95 15.38-22.03ZM132.82 22.68c2-2 8.78 5.72 10.31 11.07s7.25 9.92 9.92 11.45 9.16 5 7.63 6.87-8-.77-9.54 0-3.82 2.67-6.14 1.93-2.46-3.28-4.19-6.87c-5.35-11.06-1.91-13-5.35-19.84-.93-1.96-3.78-3.46-2.64-4.61Z"/><path class="cls-16" d="M134.73 53.21c.58 1.46-2.29 3.82-4.2 3.82S126 55.5 126 54s8-2.7 8.73-.79Z"/><path class="cls-20" d="M125.19 41.49c0 2.81-1.2 2.94-2.67 2.94s-2.67-.13-2.67-2.94 1.19-5.07 2.67-5.07 2.67 2.27 2.67 5.07Z"/><ellipse class="cls-16" cx="122.78" cy="40.69" rx=".8" ry="2.14"/><path class="cls-16" d="M123.28 60.84c.24-.48 2.29 1.91 3.82 1.91s2.67-2.67 3.43-2.67 1.15 1.92 3.05 1.92 2.29-1.91 3.06-1.53-.77 2.29-2.67 2.29-3.06-1.52-3.44-1.52-1.91 2.28-3.43 2.28-4.2-1.91-3.82-2.68Z"/><path class="cls-20" d="M136.26 41.11c0 2.81-1.2 2.94-2.68 2.94s-2.67-.13-2.67-2.94 1.2-5.07 2.67-5.07 2.68 2.27 2.68 5.07Z"/><ellipse class="cls-16" cx="133.85" cy="40.31" rx=".8" ry="2.14"/><path class="cls-19" d="M115.12 69.9c4.56 1.94-1.76 20.71-3.67 22.62s-8 4.58-8 0 6.95-24.63 11.67-22.62Z"/><path class="cls-20" d="M109.16 88.7c2.67.19 5.34 6.49 4.2 7.25a2.94 2.94 0 0 1-2.67 0s.38.39-1.53.77-1.53-1.15-1.53-1.15-1.14 1.91-2.67 1.15a2.06 2.06 0 0 1-1.14-2.29s0-6.11 5.34-5.73Z"/></g></svg>