<svg width="766" height="154" fill="none" xmlns="http://www.w3.org/2000/svg"><path d="M766 0s-30.24 41.213-85.728 34.41c-55.487-6.804-100.431-18.08-127.897-5.833-27.467 12.247-64.92 37.908-116.246 37.52-51.326-.389-64.088-8.555-114.304-18.857-50.215-10.303-92.108 27.02-122.071 27.411-29.963.389-31.073-42.378-94.328-53.266C42.17 10.497 0 25.272 0 25.272l.416 45.004s77.405-19.246 115.136 2.139c37.731 21.385 30.795 50.35-5.826 44.712C73.104 111.489.694 106.242.694 106.242l-.555 41.601s66.03-22.162 105.148.388c39.118 22.551 101.838-27.467 118.465-39.462 37.315-26.923 74.353-31.299 115.691-21.19 41.338 10.108 197.162 15.613 229.578 7.095 82.121-21.58 92.205-1.884 121.1 12.733 45.916 23.23 75.74 12.053 75.74 12.053L766 0Z" fill="#8DB0C6"/><path opacity=".62" d="M766 22.744s-31.073 29.742-86.56 22.939c-55.487-6.804-96.27-20.023-123.736-7.775-27.466 12.248-63.81 34.798-115.136 34.41-51.326-.39-69.636-7.97-119.852-18.275C270.5 43.738 226.665 82.231 196.702 82.62c-29.963.388-34.68-39.656-97.935-50.544C35.512 21.188 0 32.658 0 32.658l.555 30.716s88.78-12.247 126.511 9.138c37.731 21.385 12.762 56.374-15.259 52.292C75.097 119.457.832 112.168.832 112.168l-.555 28.771s68.25-20.022 107.368 2.528c39.118 22.55 96.012-31.937 112.639-43.935 37.315-26.923 78.514-27.8 119.852-17.689 41.338 10.111 183.152 7.544 215.568-.971 82.121-21.58 109.545-1.204 138.44 13.413C740.06 117.515 766 105.364 766 105.364v-82.62Z" fill="#7A94A5"/></svg>