<svg width="714" height="1986" fill="none" xmlns="http://www.w3.org/2000/svg"><path d="M714-1H0v800.849h714V-1Z" fill="#3D3B38"/><path d="M714 798.324H0v800.846h714V798.324Z" fill="#3D3B38"/><path d="M365.41 24.922h-12.826v82.229h12.826v-82.23Z" fill="#fff"/><path d="M714 1599.25H0v800.85h714v-800.85Z" fill="#3D3B38"/><path d="M363.41 824.246h-12.826v82.229h12.826v-82.229ZM363.41 141.117h-12.826v82.229h12.826v-82.229ZM363.41 1625.17h-12.826v82.23h12.826v-82.23ZM363.41 940.441h-12.826v82.229h12.826v-82.229ZM363.41 1741.37h-12.826v82.23h12.826v-82.23ZM363.41 258.197h-12.826v82.23h12.826v-82.23ZM363.41 1057.52h-12.826v82.23h12.826v-82.23ZM363.41 374.393h-12.826v82.229h12.826v-82.229ZM363.41 1858.45h-12.826v82.23h12.826v-82.23ZM363.41 1173.72h-12.826v82.23h12.826v-82.23ZM363.41 489.695h-12.826v82.23h12.826v-82.23ZM363.41 1974.64h-12.826v82.23h12.826v-82.23ZM363.41 1289.02h-12.826v82.23h12.826v-82.23ZM363.41 605.895h-12.826v82.229h12.826v-82.229ZM363.41 1405.22h-12.826v82.23h12.826v-82.23ZM363.41 722.977h-12.826v76.862h12.826v-76.862ZM363.41 1522.3h-12.826v76.86h12.826v-76.86ZM30.418-1H21.93v800.849h8.488V-1Z" fill="#fff"/><path d="M30.418 798.324H21.93v800.846h8.488V798.324ZM30.418 1599.25H21.93v800.85h8.488v-800.85ZM692.063-1h-8.489v800.849h8.489V-1Z" fill="#fff"/><path d="M692.063 798.324h-8.489v800.846h8.489V798.324ZM692.063 1599.25h-8.489v800.85h8.489v-800.85Z" fill="#fff"/></svg>