<svg width="722" height="2115" fill="none" xmlns="http://www.w3.org/2000/svg"><g filter="url('#filter0_dd_113_30282')"><path d="M718-1H4v800.849h714V-1Z" fill="#3D3B38"/><path d="M718 798.325H4v800.845h714V798.325Z" fill="#3D3B38"/><path d="M367.41 24.92h-12.826v82.23h12.826V24.92Z" fill="#fff"/><path d="M718 1598.25H4v800.85h714v-800.85Z" fill="#3D3B38"/><path d="M367.41 824.246h-12.826v82.229h12.826v-82.229ZM367.41 141.117h-12.826v82.229h12.826v-82.229ZM367.41 1625.17h-12.826v82.23h12.826v-82.23ZM367.41 940.441h-12.826v82.229h12.826v-82.229ZM367.41 1741.37h-12.826v82.23h12.826v-82.23ZM367.41 258.197h-12.826v82.23h12.826v-82.23ZM367.41 1057.52h-12.826v82.23h12.826v-82.23ZM367.41 374.393h-12.826v82.229h12.826v-82.229ZM367.41 1858.45h-12.826v82.23h12.826v-82.23ZM367.41 1173.72h-12.826v82.23h12.826v-82.23ZM367.41 489.696h-12.826v82.23h12.826v-82.23ZM367.41 1974.64h-12.826v82.23h12.826v-82.23ZM367.41 1289.02h-12.826v82.23h12.826v-82.23ZM367.41 605.895h-12.826v82.229h12.826v-82.229ZM367.41 1405.22h-12.826v82.23h12.826v-82.23ZM367.41 722.976h-12.826v76.862h12.826v-76.862ZM367.41 1522.3h-12.826v76.86h12.826v-76.86ZM34.418-1H25.93v800.849h8.488V-1Z" fill="#fff"/><path d="M34.418 798.325H25.93v800.845h8.488V798.325ZM34.418 1599.25H25.93v800.85h8.488v-800.85ZM696.063-1h-8.489v800.849h8.489V-1Z" fill="#fff"/><path d="M696.063 798.325h-8.489v800.845h8.489V798.325ZM696.063 1599.25h-8.489v800.85h8.489v-800.85Z" fill="#fff"/></g><defs><filter id="filter0_dd_113_30282" x="0" y="-1" width="722" height="2409.1" filterUnits="userSpaceOnUse" color-interpolation-filters="sRGB"><feFlood flood-opacity="0" result="BackgroundImageFix"/><feColorMatrix in="SourceAlpha" values="0 0 0 0 0 0 0 0 0 0 0 0 0 0 0 0 0 0 127 0" result="hardAlpha"/><feOffset dy="4"/><feGaussianBlur stdDeviation="2"/><feComposite in2="hardAlpha" operator="out"/><feColorMatrix values="0 0 0 0 0 0 0 0 0 0 0 0 0 0 0 0 0 0 0.25 0"/><feBlend in2="BackgroundImageFix" result="effect1_dropShadow_113_30282"/><feColorMatrix in="SourceAlpha" values="0 0 0 0 0 0 0 0 0 0 0 0 0 0 0 0 0 0 127 0" result="hardAlpha"/><feOffset dy="4"/><feGaussianBlur stdDeviation="2"/><feComposite in2="hardAlpha" operator="out"/><feColorMatrix values="0 0 0 0 0 0 0 0 0 0 0 0 0 0 0 0 0 0 0.25 0"/><feBlend in2="effect1_dropShadow_113_30282" result="effect2_dropShadow_113_30282"/><feBlend in="SourceGraphic" in2="effect2_dropShadow_113_30282" result="shape"/></filter></defs></svg>