<svg xmlns="http://www.w3.org/2000/svg" id="svg2" viewBox="0 0 972.49 1124.1" version="1.0"><g id="g5695" transform="translate(1193.2 642.22)"><rect id="rect5697" style="stroke-linejoin:round;stroke:#1a5221;stroke-linecap:round;stroke-width:9px;fill:#fff" rx="14.272" ry="13.35" height="1031.5" width="56.105" y="-620.01" x="-372.81"/><rect id="rect5699" style="stroke-linejoin:round;stroke:#e6e6e6;stroke-linecap:round;stroke-width:5.3639px;fill:#e6e6e6" rx="5.907" ry="12.43" height="1002.7" width="22.338" y="-606.07" x="-364.3"/></g><g id="g5691" transform="translate(462.62 642.22)"><rect id="rect1887" style="stroke-linejoin:round;stroke:#1a5221;stroke-linecap:round;stroke-width:9px;fill:#fff" rx="14.272" ry="13.35" height="1031.5" width="56.105" y="-620.01" x="-372.81"/><rect id="rect1886" style="stroke-linejoin:round;stroke:#e6e6e6;stroke-linecap:round;stroke-width:5.3639px;fill:#e6e6e6" rx="5.907" ry="12.43" height="1002.7" width="22.338" y="-606.07" x="-364.3"/></g><rect id="rect1871" style="stroke-linejoin:round;stroke:#1a5221;stroke-linecap:round;stroke-width:9px;fill:#fff" rx="30.624" ry="30.624" height="511.49" width="881.17" y="83.904" x="38.847"/><rect id="rect1875" style="stroke-linejoin:round;stroke:#1a5221;stroke-linecap:round;stroke-width:7.5263px;fill:#1a5221" rx="15.482" ry="13.35" height="460.88" width="830.99" y="108.22" x="63.167"/><rect id="rect3859" style="opacity:.95556;stroke-width:0;fill:#fff" rx="15.482" ry="13.35" height="86.619" width="606.33" y="125.99" x="187.02"/><path id="text2970" style="fill:#000" d="m226.44 173.97 7.88-.76c.47 2.64 1.43 4.58 2.88 5.82s3.41 1.86 5.87 1.86c2.61 0 4.57-.55 5.89-1.65s1.98-2.39 1.98-3.87c0-.95-.27-1.76-.83-2.42-.56-.67-1.53-1.25-2.91-1.74-.95-.33-3.11-.91-6.48-1.75-4.34-1.07-7.39-2.39-9.14-3.96-2.46-2.21-3.69-4.9-3.69-8.07 0-2.04.58-3.95 1.74-5.73 1.16-1.77 2.83-3.13 5-4.06 2.18-.93 4.81-1.39 7.89-1.39 5.03 0 8.82 1.1 11.36 3.31 2.55 2.2 3.88 5.15 4.01 8.83l-8.09.35c-.35-2.06-1.09-3.54-2.23-4.44s-2.85-1.35-5.13-1.35c-2.35 0-4.19.48-5.52 1.45-.86.62-1.29 1.45-1.29 2.48 0 .95.4 1.76 1.2 2.44 1.03.86 3.5 1.75 7.44 2.68s6.85 1.89 8.74 2.88c1.89 1 3.36 2.35 4.43 4.08 1.06 1.72 1.6 3.85 1.6 6.38 0 2.3-.64 4.45-1.92 6.45-1.27 2.01-3.08 3.5-5.41 4.48-2.33.97-5.24 1.46-8.72 1.46-5.07 0-8.96-1.17-11.68-3.52-2.71-2.34-4.34-5.75-4.87-10.24zm39.46 13.05v-40.09h29.72v6.78H274v8.89h20.12v6.75H274v10.91h22.39v6.76H265.9zm73.56 0h-8.81l-3.5-9.11h-16.02l-3.31 9.11h-8.59l15.62-40.09h8.56l16.05 40.09zm-14.91-15.86-5.52-14.88-5.41 14.88h10.93zm17.18 2.81 7.87-.76c.47 2.64 1.44 4.58 2.89 5.82 1.44 1.24 3.4 1.86 5.86 1.86 2.61 0 4.57-.55 5.89-1.65s1.99-2.39 1.99-3.87c0-.95-.28-1.76-.84-2.42-.55-.67-1.53-1.25-2.91-1.74-.95-.33-3.11-.91-6.48-1.75-4.34-1.07-7.38-2.39-9.13-3.96-2.46-2.21-3.7-4.9-3.7-8.07 0-2.04.58-3.95 1.74-5.73 1.16-1.77 2.83-3.13 5.01-4.06 2.17-.93 4.8-1.39 7.88-1.39 5.03 0 8.82 1.1 11.37 3.31 2.54 2.2 3.87 5.15 4 8.83l-8.09.35c-.35-2.06-1.09-3.54-2.23-4.44s-2.85-1.35-5.13-1.35c-2.35 0-4.19.48-5.52 1.45-.86.62-1.29 1.45-1.29 2.48 0 .95.4 1.76 1.21 2.44 1.02.86 3.5 1.75 7.43 2.68 3.94.93 6.85 1.89 8.74 2.88 1.89 1 3.36 2.35 4.43 4.08 1.07 1.72 1.6 3.85 1.6 6.38 0 2.3-.64 4.45-1.91 6.45-1.28 2.01-3.09 3.5-5.42 4.48-2.33.97-5.24 1.46-8.72 1.46-5.07 0-8.96-1.17-11.68-3.52-2.71-2.34-4.34-5.75-4.86-10.24zm39.21 13.05v-40.09h8.09v40.09h-8.09zm15.75-40.09h14.79c3.34 0 5.88.26 7.63.77 2.35.69 4.36 1.92 6.04 3.69s2.95 3.93 3.83 6.49c.87 2.56 1.31 5.72 1.31 9.48 0 3.3-.41 6.14-1.23 8.53-1 2.92-2.43 5.28-4.29 7.08-1.41 1.37-3.3 2.43-5.69 3.2-1.79.56-4.17.85-7.16.85h-15.23v-40.09zm8.09 6.78v26.55h6.04c2.26 0 3.9-.12 4.9-.38 1.31-.33 2.4-.88 3.27-1.67.86-.78 1.57-2.07 2.11-3.87.55-1.79.82-4.24.82-7.34s-.27-5.48-.82-7.13c-.54-1.66-1.31-2.96-2.29-3.89-.99-.93-2.24-1.56-3.75-1.88-1.13-.26-3.34-.39-6.64-.39h-3.64zm32.4 33.31v-40.09h29.73v6.78h-21.63v8.89h20.12v6.75h-20.12v10.91h22.39v6.76h-30.49zm52.97 0v-40.09h8.09v15.78h15.86v-15.78h8.09v40.09h-8.09v-17.53h-15.86v17.53h-8.09zm40.19 0v-40.09h8.1v40.09h-8.1zm34.43-14.74v-6.75h17.44v15.96c-1.69 1.64-4.15 3.09-7.37 4.34-3.21 1.25-6.47 1.87-9.77 1.87-4.19 0-7.85-.88-10.97-2.64-3.11-1.76-5.46-4.27-7.02-7.54-1.57-3.28-2.35-6.84-2.35-10.68 0-4.18.87-7.89 2.62-11.13 1.75-3.25 4.31-5.73 7.68-7.47 2.57-1.33 5.77-1.99 9.6-1.99 4.98 0 8.87 1.04 11.66 3.13 2.8 2.09 4.6 4.97 5.4 8.65l-8.03 1.51c-.57-1.97-1.63-3.53-3.19-4.67-1.56-1.13-3.5-1.7-5.84-1.7-3.53 0-6.35 1.12-8.43 3.36-2.09 2.24-3.13 5.57-3.13 9.98 0 4.76 1.05 8.33 3.17 10.7 2.11 2.38 4.88 3.57 8.31 3.57 1.7 0 3.39-.33 5.1-.99 1.7-.67 3.17-1.48 4.39-2.42v-5.09h-9.27zm24.91 14.74v-40.09h8.09v15.78h15.86v-15.78h8.1v40.09h-8.1v-17.53h-15.86v17.53h-8.09zm46.13 0-9.57-40.09h8.28l6.05 27.54 7.32-27.54h9.63l7.03 28 6.15-28h8.15l-9.74 40.09h-8.58l-7.99-29.97-7.96 29.97h-8.77zm83.29 0h-8.81l-3.5-9.11h-16.02l-3.31 9.11h-8.59l15.62-40.09h8.56l16.05 40.09zm-14.91-15.86-5.52-14.88-5.41 14.88h10.93zm29.75 15.86v-16.87l-14.68-23.22h9.49l9.43 15.86 9.24-15.86h9.33l-14.74 23.27v16.82h-8.07z"/><path id="rect1890" style="opacity:.45333;stroke-linejoin:round;stroke:#e6e6e6;stroke-linecap:round;stroke-width:7.136px;fill:#e6e6e6" d="M83.992 113.83h788.92c-757.72 14-795.53-52.918-804.09 443.99l.002-431.74c0-6.79 6.766-12.25 15.17-12.25z"/><path id="text4746" style="fill:#fff" d="m106.91 278.65 7.88-.76c.47 2.64 1.43 4.58 2.88 5.82s3.41 1.86 5.87 1.86c2.61 0 4.57-.55 5.89-1.65 1.32-1.11 1.98-2.4 1.98-3.87 0-.95-.27-1.76-.83-2.42-.56-.67-1.53-1.25-2.91-1.74-.95-.33-3.11-.91-6.48-1.75-4.34-1.07-7.39-2.4-9.14-3.96-2.46-2.21-3.69-4.9-3.69-8.07 0-2.04.58-3.95 1.74-5.73s2.82-3.13 5-4.06 4.81-1.39 7.89-1.39c5.03 0 8.82 1.1 11.36 3.31 2.55 2.2 3.88 5.15 4.01 8.83l-8.09.35c-.35-2.06-1.09-3.54-2.23-4.44s-2.85-1.35-5.13-1.35c-2.35 0-4.19.48-5.52 1.45-.86.62-1.29 1.44-1.29 2.48 0 .95.4 1.76 1.2 2.44 1.03.85 3.5 1.75 7.44 2.68s6.85 1.89 8.74 2.88c1.89 1 3.36 2.35 4.43 4.08 1.06 1.72 1.6 3.85 1.6 6.38 0 2.3-.64 4.45-1.92 6.45-1.27 2.01-3.08 3.5-5.41 4.47-2.33.98-5.24 1.47-8.72 1.47-5.07 0-8.96-1.17-11.68-3.52-2.72-2.34-4.34-5.75-4.87-10.24zm45.15-7.13-6.97-1.26c.78-2.81 2.13-4.89 4.04-6.24 1.92-1.34 4.76-2.02 8.53-2.02 3.43 0 5.98.41 7.66 1.22s2.86 1.84 3.54 3.09 1.03 3.54 1.03 6.87l-.09 8.97c0 2.56.13 4.44.37 5.65.25 1.21.71 2.51 1.38 3.9h-7.6c-.2-.51-.44-1.27-.74-2.27-.12-.46-.21-.76-.27-.91-1.31 1.28-2.71 2.24-4.21 2.88-1.49.63-3.09.95-4.78.95-2.99 0-5.35-.81-7.07-2.43-1.73-1.62-2.59-3.67-2.59-6.15 0-1.64.39-3.11 1.18-4.39.78-1.29 1.88-2.27 3.29-2.95 1.42-.69 3.45-1.29 6.11-1.8 3.6-.67 6.08-1.3 7.47-1.88v-.77c0-1.47-.36-2.53-1.09-3.16s-2.11-.94-4.13-.94c-1.37 0-2.44.27-3.2.81-.77.53-1.39 1.48-1.86 2.83zm10.28 6.23c-.98.33-2.54.72-4.68 1.18-2.13.45-3.52.9-4.18 1.34-1 .71-1.5 1.61-1.5 2.7 0 1.08.4 2.01 1.2 2.79.8.79 1.82 1.18 3.06 1.18 1.39 0 2.71-.46 3.97-1.37.93-.69 1.54-1.54 1.83-2.54.2-.66.3-1.91.3-3.75v-1.53zm41.56 13.95h-7.68v-14.82c0-3.14-.17-5.17-.49-6.09-.33-.92-.86-1.63-1.6-2.14s-1.63-.77-2.67-.77c-1.33 0-2.52.36-3.58 1.09s-1.78 1.7-2.18 2.9c-.39 1.21-.58 3.43-.58 6.67v13.16h-7.69v-29.04h7.14v4.26c2.53-3.28 5.72-4.92 9.57-4.92 1.7 0 3.25.31 4.65.92s2.46 1.39 3.18 2.34c.72.94 1.23 2.02 1.51 3.22.28 1.21.42 2.93.42 5.17v18.05zm34.46 0h-7.14v-4.27c-1.19 1.66-2.59 2.89-4.2 3.71-1.61.81-3.24 1.21-4.88 1.21-3.34 0-6.19-1.34-8.57-4.03s-3.57-6.44-3.57-11.25c0-4.92 1.16-8.67 3.47-11.23 2.32-2.56 5.24-3.84 8.78-3.84 3.24 0 6.05 1.35 8.42 4.05v-14.44h7.69v40.09zm-20.51-15.15c0 3.1.43 5.34 1.28 6.72 1.24 2.01 2.97 3.01 5.2 3.01 1.77 0 3.27-.75 4.51-2.25 1.24-1.51 1.86-3.75 1.86-6.74 0-3.34-.6-5.74-1.81-7.21-1.2-1.47-2.74-2.2-4.62-2.2-1.82 0-3.35.72-4.58 2.17s-1.84 3.62-1.84 6.5zm24.47-13.89h8.18l6.94 20.61 6.78-20.61h7.96l-10.25 27.94-1.84 5.06c-.67 1.7-1.31 2.99-1.92 3.88-.61.9-1.32 1.62-2.11 2.18-.79.55-1.77.99-2.93 1.3-1.15.31-2.46.46-3.92.46-1.48 0-2.93-.15-4.35-.46l-.68-6.02c1.2.24 2.29.36 3.25.36 1.79 0 3.11-.53 3.97-1.58.86-1.04 1.51-2.38 1.97-4l-11.05-29.12zm50.42-11.05h16.03c3.17 0 5.53.13 7.09.4 1.56.26 2.95.81 4.18 1.65 1.24.84 2.26 1.96 3.08 3.35.82 1.4 1.23 2.96 1.23 4.69 0 1.88-.5 3.6-1.52 5.17-1.01 1.57-2.38 2.74-4.11 3.53 2.44.71 4.32 1.92 5.63 3.63 1.31 1.72 1.97 3.73 1.97 6.05 0 1.82-.42 3.59-1.27 5.31-.85 1.73-2.01 3.1-3.47 4.13-1.47 1.03-3.28 1.67-5.43 1.9-1.35.15-4.6.24-9.76.28h-13.65v-40.09zm8.1 6.67v9.27h5.3c3.15 0 5.11-.04 5.88-.13 1.38-.17 2.47-.65 3.27-1.44.79-.79 1.19-1.84 1.19-3.13 0-1.24-.35-2.25-1.03-3.02-.68-.78-1.7-1.25-3.05-1.41-.8-.09-3.11-.14-6.92-.14h-4.64zm0 15.94v10.72h7.49c2.91 0 4.76-.08 5.55-.24 1.2-.22 2.18-.76 2.94-1.6.75-.85 1.13-1.99 1.13-3.41 0-1.2-.29-2.22-.87-3.06-.59-.84-1.43-1.45-2.53-1.83s-3.5-.58-7.18-.58h-6.53zm49.11 8.23 7.65 1.29c-.98 2.81-2.54 4.94-4.66 6.41s-4.78 2.2-7.97 2.2c-5.05 0-8.79-1.65-11.21-4.95-1.92-2.64-2.87-5.98-2.87-10 0-4.82 1.25-8.59 3.77-11.31 2.52-2.73 5.7-4.09 9.54-4.09 4.32 0 7.73 1.43 10.23 4.28s3.69 7.22 3.58 13.11h-19.25c.06 2.28.68 4.05 1.86 5.32 1.19 1.27 2.66 1.9 4.43 1.9 1.2 0 2.22-.33 3.04-.98.82-.66 1.44-1.72 1.86-3.18zm.43-7.76c-.05-2.23-.63-3.92-1.72-5.07-1.09-1.16-2.42-1.74-3.99-1.74-1.68 0-3.06.61-4.16 1.83-1.09 1.22-1.63 2.88-1.61 4.98h11.48zm19.66-3.17-6.97-1.26c.78-2.81 2.13-4.89 4.05-6.24 1.91-1.34 4.75-2.02 8.53-2.02 3.43 0 5.98.41 7.65 1.22 1.68.81 2.86 1.84 3.55 3.09.68 1.25 1.02 3.54 1.02 6.87l-.08 8.97c0 2.56.12 4.44.37 5.65.24 1.21.7 2.51 1.38 3.9h-7.6c-.2-.51-.45-1.27-.74-2.27-.13-.46-.22-.76-.27-.91-1.32 1.28-2.72 2.24-4.22 2.88-1.49.63-3.09.95-4.78.95-2.99 0-5.35-.81-7.07-2.43s-2.58-3.67-2.58-6.15c0-1.64.39-3.11 1.17-4.39.79-1.29 1.89-2.27 3.3-2.95 1.41-.69 3.45-1.29 6.11-1.8 3.59-.67 6.08-1.3 7.46-1.88v-.77c0-1.47-.36-2.53-1.09-3.16s-2.11-.94-4.13-.94c-1.37 0-2.43.27-3.2.81-.76.53-1.38 1.48-1.86 2.83zm10.28 6.23c-.98.33-2.54.72-4.67 1.18-2.13.45-3.53.9-4.19 1.34-1 .71-1.5 1.61-1.5 2.7 0 1.08.4 2.01 1.2 2.79.81.79 1.83 1.18 3.07 1.18 1.38 0 2.7-.46 3.96-1.37.93-.69 1.54-1.54 1.83-2.54.2-.66.3-1.91.3-3.75v-1.53zm40.47-6.51-7.57 1.37c-.26-1.51-.84-2.65-1.74-3.42-.9-.76-2.07-1.15-3.51-1.15-1.92 0-3.44.67-4.58 1.99s-1.71 3.53-1.71 6.63c0 3.44.58 5.88 1.74 7.3 1.15 1.42 2.71 2.13 4.66 2.13 1.46 0 2.65-.41 3.58-1.24s1.59-2.26 1.97-4.28l7.55 1.28c-.79 3.47-2.29 6.08-4.52 7.85-2.22 1.77-5.2 2.65-8.94 2.65-4.24 0-7.63-1.34-10.16-4.02-2.52-2.68-3.78-6.39-3.78-11.13 0-4.79 1.26-8.52 3.8-11.19 2.53-2.67 5.96-4.01 10.28-4.01 3.54 0 6.35.76 8.43 2.28 2.09 1.53 3.59 3.85 4.5 6.96zm13.51-19.63v14.74c2.48-2.9 5.44-4.35 8.89-4.35 1.77 0 3.36.33 4.78.99 1.42.65 2.5 1.49 3.22 2.51s1.21 2.15 1.47 3.39c.27 1.24.4 3.16.4 5.77v17.04h-7.69v-15.34c0-3.05-.14-4.98-.43-5.8s-.81-1.47-1.55-1.96c-.74-.48-1.66-.72-2.77-.72-1.28 0-2.42.31-3.42.93s-1.74 1.55-2.2 2.8c-.47 1.25-.7 3.1-.7 5.54v14.55h-7.68v-40.09h7.68z"/><path id="text5635" style="fill:#fff" d="M108.62 326.79h16.02c3.17 0 5.54.13 7.1.39 1.55.27 2.95.82 4.18 1.66s2.25 1.95 3.07 3.35c.83 1.39 1.24 2.95 1.24 4.69 0 1.87-.51 3.6-1.52 5.16-1.01 1.57-2.39 2.75-4.12 3.53 2.45.71 4.32 1.92 5.64 3.64 1.31 1.71 1.96 3.73 1.96 6.04 0 1.82-.42 3.6-1.27 5.32s-2 3.1-3.47 4.13-3.28 1.66-5.43 1.9c-1.35.14-4.6.24-9.76.27h-13.64v-40.08zm8.09 6.67v9.27h5.3c3.16 0 5.12-.05 5.88-.14 1.39-.16 2.48-.64 3.27-1.43.79-.8 1.19-1.84 1.19-3.14 0-1.23-.34-2.24-1.03-3.02-.68-.77-1.7-1.24-3.04-1.4-.81-.1-3.11-.14-6.92-.14h-4.65zm0 15.94v10.72h7.49c2.92 0 4.77-.08 5.55-.25 1.21-.22 2.19-.75 2.94-1.6.76-.84 1.14-1.98 1.14-3.4 0-1.2-.29-2.23-.88-3.06-.58-.84-1.42-1.45-2.53-1.84-1.1-.38-3.49-.57-7.18-.57h-6.53zM149 333.9v-7.11h7.69v7.11H149zm0 32.97v-29.04h7.69v29.04H149zm15.53 0v-40.08h7.69v40.08h-7.69zm15.54 0v-40.08h7.68v40.08h-7.68zm15.47-25.84-1.45-7.46v-6.78h8.37v6.78l-1.26 7.46h-5.66zm10.69 17.56 7.71-1.18c.33 1.5 1 2.63 2 3.41 1 .77 2.41 1.16 4.21 1.16 1.99 0 3.48-.37 4.49-1.1.67-.51 1.01-1.19 1.01-2.05 0-.58-.19-1.06-.55-1.45-.38-.36-1.24-.7-2.57-1.01-6.2-1.36-10.13-2.61-11.79-3.74-2.29-1.57-3.44-3.75-3.44-6.54 0-2.51.99-4.63 2.98-6.34 1.99-1.72 5.07-2.57 9.24-2.57 3.98 0 6.93.64 8.86 1.94 1.93 1.29 3.26 3.21 3.99 5.74l-7.24 1.34c-.31-1.13-.9-2-1.77-2.6-.86-.6-2.1-.9-3.7-.9-2.02 0-3.47.28-4.35.85-.58.4-.87.92-.87 1.56 0 .54.25 1.01.76 1.39.69.51 3.09 1.23 7.18 2.16s6.95 2.07 8.57 3.42c1.61 1.37 2.41 3.27 2.41 5.71 0 2.67-1.11 4.95-3.34 6.87-2.22 1.91-5.51 2.87-9.87 2.87-3.95 0-7.09-.8-9.39-2.41-2.31-1.6-3.82-3.78-4.53-6.53zm49.69 8.28v-39.76h8.09v33.01h20.13v6.75h-28.22zm39.7-20.18-6.97-1.26c.78-2.8 2.13-4.88 4.04-6.23 1.92-1.35 4.76-2.02 8.54-2.02 3.42 0 5.97.4 7.65 1.21 1.68.82 2.86 1.85 3.54 3.09.69 1.25 1.03 3.54 1.03 6.88l-.08 8.97c0 2.55.12 4.43.37 5.65.24 1.21.7 2.51 1.38 3.89h-7.61c-.2-.51-.44-1.26-.73-2.27-.13-.45-.22-.75-.28-.9-1.31 1.28-2.71 2.23-4.21 2.87-1.49.64-3.09.96-4.78.96-2.99 0-5.35-.81-7.07-2.43-1.72-1.63-2.59-3.68-2.59-6.16 0-1.64.4-3.1 1.18-4.39.78-1.28 1.88-2.27 3.29-2.95 1.42-.68 3.45-1.28 6.12-1.79 3.59-.67 6.08-1.3 7.46-1.89v-.76c0-1.48-.36-2.53-1.09-3.16s-2.11-.94-4.13-.94c-1.37 0-2.44.26-3.2.8-.77.54-1.39 1.48-1.86 2.83zm10.28 6.24c-.98.33-2.54.72-4.67 1.17-2.14.46-3.53.91-4.19 1.34-1 .71-1.5 1.62-1.5 2.71 0 1.08.4 2 1.2 2.79.8.78 1.82 1.17 3.06 1.17 1.39 0 2.71-.45 3.97-1.36.93-.7 1.54-1.54 1.83-2.55.2-.65.3-1.9.3-3.74v-1.53zm14.44 15.86 8.78 1.06c.14 1.02.48 1.73 1.01 2.11.73.55 1.88.82 3.44.82 2.01 0 3.51-.3 4.51-.9.68-.4 1.19-1.05 1.54-1.95.23-.63.35-1.81.35-3.52v-4.24c-2.3 3.13-5.19 4.7-8.69 4.7-3.9 0-6.99-1.65-9.27-4.95-1.79-2.6-2.68-5.85-2.68-9.73 0-4.87 1.17-8.59 3.51-11.16s5.26-3.85 8.74-3.85c3.59 0 6.55 1.57 8.88 4.73v-4.08h7.19v26.06c0 3.43-.28 5.99-.84 7.69-.57 1.69-1.36 3.02-2.38 3.99-1.02.96-2.39 1.72-4.09 2.27-1.7.54-3.86.82-6.47.82-4.92 0-8.41-.85-10.47-2.53-2.06-1.69-3.09-3.83-3.09-6.41 0-.26.01-.57.03-.93zm6.86-17.04c0 3.08.6 5.34 1.79 6.77 1.2 1.43 2.67 2.15 4.42 2.15 1.88 0 3.46-.74 4.76-2.21 1.29-1.46 1.94-3.64 1.94-6.52 0-3.01-.62-5.24-1.86-6.7-1.24-1.45-2.81-2.18-4.7-2.18-1.85 0-3.36.71-4.56 2.14-1.19 1.43-1.79 3.62-1.79 6.55zm26.31.19c0-2.55.63-5.02 1.88-7.41 1.26-2.39 3.04-4.21 5.35-5.47 2.3-1.25 4.88-1.88 7.72-1.88 4.4 0 8 1.42 10.8 4.28 2.81 2.85 4.22 6.45 4.22 10.81 0 4.39-1.42 8.04-4.26 10.92-2.83 2.89-6.4 4.34-10.7 4.34-2.66 0-5.2-.6-7.62-1.81-2.41-1.2-4.25-2.96-5.51-5.29-1.25-2.32-1.88-5.15-1.88-8.49zm7.87.41c0 2.88.69 5.09 2.05 6.62 1.37 1.53 3.06 2.3 5.06 2.3 2.01 0 3.69-.77 5.05-2.3 1.35-1.53 2.03-3.76 2.03-6.67 0-2.85-.68-5.03-2.03-6.56-1.36-1.54-3.04-2.3-5.05-2.3-2 0-3.69.76-5.06 2.3-1.36 1.53-2.05 3.73-2.05 6.61zm26.36-.41c0-2.55.63-5.02 1.89-7.41s3.04-4.21 5.34-5.47c2.31-1.25 4.88-1.88 7.73-1.88 4.39 0 7.99 1.42 10.8 4.28 2.81 2.85 4.21 6.45 4.21 10.81 0 4.39-1.42 8.04-4.25 10.92-2.84 2.89-6.41 4.34-10.71 4.34-2.66 0-5.2-.6-7.61-1.81-2.42-1.2-4.25-2.96-5.51-5.29-1.26-2.32-1.89-5.15-1.89-8.49zm7.88.41c0 2.88.68 5.09 2.05 6.62 1.36 1.53 3.05 2.3 5.06 2.3 2 0 3.68-.77 5.04-2.3s2.04-3.76 2.04-6.67c0-2.85-.68-5.03-2.04-6.56-1.36-1.54-3.04-2.3-5.04-2.3-2.01 0-3.7.76-5.06 2.3-1.37 1.53-2.05 3.73-2.05 6.61zm54.55 14.52h-7.69v-14.82c0-3.13-.16-5.16-.49-6.08s-.86-1.64-1.6-2.15-1.63-.76-2.66-.76c-1.34 0-2.53.36-3.59 1.09-1.05.73-1.78 1.7-2.17 2.9s-.59 3.43-.59 6.67v13.15h-7.68v-29.04h7.13v4.27c2.54-3.28 5.73-4.92 9.57-4.92 1.7 0 3.25.3 4.65.91 1.41.61 2.47 1.39 3.19 2.34s1.22 2.02 1.5 3.23c.29 1.2.43 2.92.43 5.17v18.04z"/><text id="text5643" y="433.463" x="102.764" xml:space="preserve" style="fill:#fff;font-family:sans;font-size:56px;font-weight:700">
    <tspan id="tspan5645" x="102.764" y="433.463"> </tspan>
  </text><path id="text5651" style="fill:#fff" d="m106.76 428.29 7.87-.76c.48 2.64 1.44 4.58 2.89 5.82s3.4 1.86 5.86 1.86c2.61 0 4.57-.55 5.89-1.65 1.33-1.1 1.99-2.39 1.99-3.87 0-.95-.28-1.76-.84-2.42-.55-.67-1.52-1.24-2.91-1.74-.95-.33-3.11-.91-6.48-1.75-4.34-1.07-7.38-2.39-9.13-3.96-2.46-2.21-3.69-4.9-3.69-8.07 0-2.04.57-3.95 1.73-5.73 1.16-1.77 2.83-3.13 5.01-4.06 2.17-.93 4.8-1.39 7.88-1.39 5.04 0 8.82 1.1 11.37 3.31 2.54 2.2 3.87 5.15 4 8.83l-8.09.35c-.35-2.06-1.09-3.54-2.23-4.44s-2.85-1.35-5.13-1.35c-2.35 0-4.19.48-5.52 1.45-.86.62-1.29 1.45-1.29 2.48 0 .95.41 1.76 1.21 2.44 1.02.86 3.5 1.75 7.43 2.68 3.94.93 6.85 1.89 8.74 2.88 1.89 1 3.36 2.35 4.43 4.08 1.07 1.72 1.6 3.85 1.6 6.38 0 2.3-.64 4.45-1.91 6.45-1.28 2.01-3.08 3.5-5.42 4.48-2.33.97-5.24 1.46-8.72 1.46-5.07 0-8.96-1.17-11.68-3.52-2.71-2.34-4.33-5.75-4.86-10.24zm45.14-7.13-6.97-1.26c.78-2.81 2.13-4.89 4.05-6.23 1.91-1.35 4.75-2.03 8.53-2.03 3.42 0 5.98.41 7.65 1.22 1.68.81 2.86 1.84 3.54 3.09.69 1.25 1.03 3.54 1.03 6.88l-.08 8.96c0 2.56.12 4.44.37 5.65.24 1.21.7 2.51 1.38 3.9h-7.6c-.2-.51-.45-1.27-.74-2.27-.13-.46-.22-.76-.28-.9-1.31 1.27-2.71 2.23-4.21 2.87-1.49.63-3.09.95-4.78.95-2.99 0-5.35-.81-7.07-2.43s-2.58-3.67-2.58-6.15c0-1.64.39-3.11 1.17-4.39.79-1.29 1.88-2.27 3.3-2.95 1.41-.69 3.45-1.28 6.11-1.79 3.59-.68 6.08-1.31 7.46-1.89v-.77c0-1.47-.36-2.53-1.09-3.16-.73-.62-2.11-.94-4.13-.94-1.37 0-2.43.27-3.2.81s-1.38 1.48-1.86 2.83zm10.28 6.23c-.98.33-2.54.72-4.67 1.18-2.14.45-3.53.9-4.19 1.34-1 .71-1.5 1.61-1.5 2.7 0 1.08.4 2.01 1.2 2.79.8.79 1.83 1.18 3.06 1.18 1.39 0 2.71-.46 3.97-1.37.93-.69 1.54-1.54 1.83-2.54.2-.66.3-1.91.3-3.75v-1.53zm41.56 13.95h-7.68v-14.82c0-3.14-.16-5.17-.49-6.09s-.86-1.63-1.6-2.14-1.63-.77-2.67-.77c-1.33 0-2.52.37-3.58 1.09-1.06.73-1.78 1.7-2.17 2.9-.39 1.21-.59 3.43-.59 6.68v13.15h-7.68V412.3h7.13v4.26c2.54-3.28 5.73-4.92 9.57-4.92 1.7 0 3.25.31 4.65.92 1.41.61 2.47 1.39 3.19 2.34.72.94 1.22 2.02 1.5 3.22.28 1.21.42 2.93.42 5.17v18.05zm34.46 0h-7.14v-4.27c-1.18 1.66-2.58 2.9-4.2 3.71-1.61.81-3.24 1.21-4.88 1.21-3.33 0-6.19-1.34-8.57-4.03s-3.57-6.44-3.57-11.25c0-4.92 1.16-8.66 3.48-11.23 2.31-2.56 5.24-3.84 8.77-3.84 3.25 0 6.05 1.35 8.42 4.05v-14.44h7.69v40.09zm-20.51-15.15c0 3.1.43 5.34 1.29 6.73 1.23 2 2.97 3 5.19 3 1.77 0 3.27-.75 4.51-2.25 1.24-1.51 1.86-3.75 1.86-6.74 0-3.34-.6-5.74-1.8-7.21-1.21-1.47-2.75-2.2-4.62-2.2-1.83 0-3.35.73-4.58 2.17-1.23 1.45-1.85 3.62-1.85 6.5zm25.4 6.86 7.71-1.17c.33 1.49 1 2.63 2 3.4 1 .78 2.41 1.16 4.21 1.16 1.99 0 3.48-.36 4.48-1.09.68-.51 1.02-1.19 1.02-2.05 0-.58-.19-1.07-.55-1.45-.38-.37-1.24-.7-2.57-1.01-6.2-1.37-10.13-2.62-11.79-3.75-2.29-1.57-3.44-3.74-3.44-6.53 0-2.52.99-4.63 2.98-6.35 1.99-1.71 5.07-2.57 9.24-2.57 3.98 0 6.93.65 8.86 1.94 1.93 1.3 3.26 3.21 3.99 5.75l-7.24 1.34c-.31-1.13-.9-2-1.77-2.6-.86-.6-2.1-.9-3.7-.9-2.03 0-3.47.28-4.35.84-.58.4-.87.92-.87 1.56 0 .55.25 1.01.76 1.4.69.51 3.09 1.23 7.18 2.16s6.95 2.07 8.57 3.41c1.61 1.37 2.41 3.28 2.41 5.72 0 2.66-1.11 4.95-3.34 6.86-2.22 1.92-5.51 2.87-9.87 2.87-3.96 0-7.09-.8-9.39-2.4-2.31-1.61-3.82-3.79-4.53-6.54zm47.2-20.75v6.12h-5.25v11.71c0 2.37.05 3.75.15 4.14s.33.71.68.97c.36.26.79.38 1.3.38.71 0 1.74-.24 3.09-.74l.66 5.97c-1.79.76-3.81 1.14-6.07 1.14-1.39 0-2.64-.23-3.75-.69-1.11-.47-1.93-1.07-2.45-1.81s-.88-1.73-1.08-2.99c-.16-.9-.24-2.7-.24-5.42v-12.66h-3.53v-6.12h3.53v-5.77l7.71-4.49v10.26h5.25zm3.61 14.11c0-2.55.63-5.02 1.88-7.41 1.26-2.39 3.04-4.21 5.35-5.47s4.88-1.89 7.72-1.89c4.4 0 8 1.43 10.8 4.28 2.81 2.85 4.22 6.46 4.22 10.82 0 4.39-1.42 8.03-4.26 10.92-2.83 2.89-6.4 4.33-10.7 4.33-2.66 0-5.2-.6-7.62-1.8-2.41-1.2-4.25-2.97-5.51-5.29-1.25-2.33-1.88-5.16-1.88-8.49zm7.87.41c0 2.88.69 5.08 2.05 6.62 1.37 1.53 3.06 2.29 5.06 2.29 2.01 0 3.69-.76 5.05-2.29 1.35-1.54 2.03-3.76 2.03-6.68 0-2.84-.68-5.03-2.03-6.56-1.36-1.53-3.04-2.3-5.05-2.3-2 0-3.69.77-5.06 2.3-1.36 1.53-2.05 3.74-2.05 6.62zm54.55 14.52h-7.68v-14.82c0-3.14-.16-5.17-.49-6.09s-.86-1.63-1.6-2.14-1.63-.77-2.67-.77c-1.33 0-2.52.37-3.58 1.09-1.06.73-1.78 1.7-2.17 2.9-.4 1.21-.59 3.43-.59 6.68v13.15h-7.69V412.3h7.14v4.26c2.53-3.28 5.72-4.92 9.57-4.92 1.7 0 3.25.31 4.65.92s2.47 1.39 3.19 2.34c.72.94 1.22 2.02 1.5 3.22.28 1.21.42 2.93.42 5.17v18.05zm24.64-9.24 7.66 1.28c-.99 2.81-2.54 4.95-4.67 6.41-2.12 1.47-4.78 2.2-7.97 2.2-5.05 0-8.78-1.65-11.21-4.95-1.91-2.64-2.87-5.97-2.87-10 0-4.82 1.26-8.58 3.77-11.31 2.52-2.73 5.7-4.09 9.55-4.09 4.32 0 7.73 1.43 10.22 4.28 2.5 2.85 3.7 7.22 3.59 13.11h-19.25c.05 2.28.67 4.05 1.86 5.32 1.18 1.27 2.66 1.9 4.43 1.9 1.2 0 2.21-.33 3.03-.98.82-.66 1.44-1.72 1.86-3.17zm.44-7.77c-.06-2.22-.63-3.91-1.73-5.07-1.09-1.16-2.42-1.74-3.99-1.74-1.67 0-3.06.61-4.15 1.83-1.1 1.22-1.64 2.88-1.62 4.98h11.49zm55.15 2.27 7.85 2.49c-1.21 4.37-3.21 7.62-6 9.75-2.8 2.12-6.35 3.18-10.66 3.18-5.32 0-9.69-1.82-13.12-5.45-3.43-3.64-5.14-8.61-5.14-14.92 0-6.67 1.72-11.85 5.17-15.54 3.44-3.7 7.97-5.54 13.59-5.54 4.9 0 8.88 1.45 11.95 4.35 1.82 1.71 3.19 4.17 4.1 7.38l-8.01 1.91c-.48-2.08-1.47-3.72-2.97-4.92s-3.33-1.8-5.48-1.8c-2.97 0-5.39 1.06-7.24 3.2-1.85 2.13-2.77 5.58-2.77 10.36 0 5.07.91 8.68 2.73 10.83 1.83 2.15 4.2 3.22 7.11 3.22 2.15 0 4-.68 5.55-2.05 1.55-1.36 2.66-3.52 3.34-6.45zm14.77 14.74v-40.09H459v40.09h-7.68zm15.53-32.98v-7.11h7.68v7.11h-7.68zm0 32.98V412.3h7.68v29.04h-7.68zm12.16-29.04h4.27v-2.19c0-2.44.26-4.26.78-5.47.52-1.2 1.48-2.18 2.87-2.94 1.39-.75 3.16-1.13 5.29-1.13 2.19 0 4.33.33 6.43.98l-1.04 5.36c-1.22-.29-2.4-.44-3.53-.44-1.11 0-1.91.26-2.39.78s-.73 1.52-.73 3v2.05h5.75v6.04h-5.75v23h-7.68v-23h-4.27v-6.04zm18.71 0h4.26v-2.19c0-2.44.26-4.26.78-5.47.52-1.2 1.48-2.18 2.87-2.94 1.4-.75 3.16-1.13 5.29-1.13 2.19 0 4.33.33 6.43.98l-1.04 5.36c-1.22-.29-2.4-.44-3.53-.44-1.11 0-1.91.26-2.39.78s-.72 1.52-.72 3v2.05h5.74v6.04h-5.74v23h-7.69v-23h-4.26v-6.04zm19.36 20.75 7.71-1.17c.33 1.49.99 2.63 1.99 3.4 1.01.78 2.41 1.16 4.21 1.16 1.99 0 3.49-.36 4.49-1.09.67-.51 1.01-1.19 1.01-2.05 0-.58-.18-1.07-.55-1.45-.38-.37-1.24-.7-2.57-1.01-6.19-1.37-10.12-2.62-11.78-3.75-2.3-1.57-3.45-3.74-3.45-6.53 0-2.52 1-4.63 2.98-6.35 1.99-1.71 5.07-2.57 9.25-2.57 3.97 0 6.92.65 8.86 1.94 1.93 1.3 3.26 3.21 3.99 5.75l-7.25 1.34c-.31-1.13-.9-2-1.76-2.6-.87-.6-2.1-.9-3.71-.9-2.02 0-3.47.28-4.35.84-.58.4-.87.92-.87 1.56 0 .55.26 1.01.77 1.4.69.51 3.08 1.23 7.17 2.16 4.1.93 6.95 2.07 8.58 3.41 1.6 1.37 2.4 3.28 2.4 5.72 0 2.66-1.11 4.95-3.33 6.86-2.23 1.92-5.52 2.87-9.88 2.87-3.95 0-7.08-.8-9.39-2.4-2.3-1.61-3.81-3.79-4.52-6.54z"/><path id="text5659" style="fill:#fff" d="M123.46 499.41v-6.75h17.45v15.97c-1.7 1.64-4.16 3.08-7.37 4.33-3.22 1.25-6.48 1.87-9.78 1.87-4.19 0-7.85-.88-10.96-2.64-3.12-1.76-5.46-4.27-7.03-7.54-1.57-3.28-2.35-6.83-2.35-10.68 0-4.18.87-7.88 2.62-11.13 1.75-3.24 4.31-5.73 7.69-7.46 2.57-1.34 5.77-2 9.59-2 4.98 0 8.87 1.04 11.67 3.13 2.79 2.09 4.59 4.97 5.4 8.65l-8.04 1.51c-.57-1.97-1.63-3.52-3.19-4.66s-3.5-1.71-5.84-1.71c-3.53 0-6.34 1.12-8.43 3.36s-3.13 5.57-3.13 9.98c0 4.76 1.05 8.33 3.17 10.71 2.11 2.38 4.88 3.56 8.31 3.56 1.7 0 3.4-.33 5.1-.99 1.71-.67 3.17-1.48 4.39-2.42v-5.09h-9.27zm23.05-.19c0-2.55.63-5.02 1.89-7.41s3.04-4.21 5.34-5.47c2.31-1.26 4.88-1.89 7.73-1.89 4.39 0 7.99 1.43 10.8 4.28 2.81 2.86 4.21 6.46 4.21 10.82 0 4.39-1.42 8.03-4.25 10.92-2.84 2.89-6.4 4.34-10.71 4.34-2.66 0-5.2-.61-7.61-1.81-2.42-1.2-4.25-2.97-5.51-5.29s-1.89-5.15-1.89-8.49zm7.88.41c0 2.88.68 5.09 2.05 6.62 1.36 1.53 3.05 2.29 5.06 2.29 2 0 3.68-.76 5.04-2.29s2.04-3.76 2.04-6.68c0-2.84-.68-5.03-2.04-6.56s-3.04-2.29-5.04-2.29c-2.01 0-3.7.76-5.06 2.29-1.37 1.53-2.05 3.74-2.05 6.62zm28.13 14.52v-40.09h7.69v40.09h-7.69zm42.17 0h-7.14v-4.27c-1.18 1.66-2.58 2.9-4.2 3.71-1.61.81-3.24 1.22-4.88 1.22-3.33 0-6.19-1.35-8.57-4.04s-3.57-6.44-3.57-11.25c0-4.92 1.16-8.66 3.47-11.22 2.32-2.57 5.25-3.85 8.78-3.85 3.25 0 6.05 1.35 8.42 4.05v-14.44h7.69v40.09zM204.18 499c0 3.1.43 5.34 1.28 6.73 1.24 2 2.98 3 5.2 3 1.77 0 3.27-.75 4.51-2.25s1.86-3.75 1.86-6.74c0-3.34-.6-5.74-1.8-7.21-1.21-1.46-2.75-2.2-4.62-2.2-1.83 0-3.35.73-4.59 2.18-1.23 1.45-1.84 3.61-1.84 6.49zm44.93 5.91 7.65 1.28c-.98 2.81-2.54 4.95-4.66 6.41-2.12 1.47-4.78 2.21-7.97 2.21-5.05 0-8.79-1.65-11.21-4.95-1.92-2.65-2.87-5.98-2.87-10.01 0-4.81 1.25-8.58 3.77-11.31 2.52-2.72 5.7-4.09 9.54-4.09 4.32 0 7.73 1.43 10.23 4.28 2.5 2.86 3.69 7.23 3.58 13.11h-19.25c.06 2.28.68 4.06 1.86 5.32 1.19 1.27 2.66 1.9 4.43 1.9 1.2 0 2.22-.33 3.04-.98.82-.66 1.44-1.71 1.86-3.17zm.43-7.77c-.05-2.22-.63-3.91-1.72-5.07s-2.42-1.74-3.99-1.74c-1.68 0-3.06.61-4.16 1.83-1.09 1.23-1.63 2.88-1.61 4.98h11.48zm40.33 17.01h-7.68v-14.82c0-3.14-.16-5.16-.49-6.09-.33-.92-.86-1.63-1.6-2.14s-1.63-.77-2.67-.77c-1.33 0-2.52.37-3.58 1.1s-1.78 1.69-2.17 2.89c-.39 1.21-.59 3.43-.59 6.68v13.15h-7.68v-29.04h7.13v4.27c2.54-3.29 5.73-4.93 9.57-4.93 1.7 0 3.25.31 4.65.92s2.47 1.39 3.19 2.34 1.22 2.02 1.5 3.22c.28 1.21.42 2.93.42 5.17v18.05zm23.44-40.09h16.02c3.17 0 5.54.14 7.1.4s2.95.82 4.18 1.65c1.23.84 2.26 1.96 3.08 3.35.82 1.4 1.23 2.96 1.23 4.69 0 1.88-.51 3.6-1.52 5.17s-2.38 2.74-4.12 3.53c2.45.71 4.32 1.92 5.64 3.63 1.31 1.72 1.97 3.73 1.97 6.05 0 1.82-.43 3.59-1.28 5.32-.84 1.72-2 3.1-3.47 4.13s-3.27 1.66-5.43 1.9c-1.34.14-4.6.23-9.76.27h-13.64v-40.09zm8.09 6.67V490h5.31c3.15 0 5.11-.04 5.88-.13 1.38-.17 2.47-.64 3.26-1.44.8-.79 1.19-1.83 1.19-3.13 0-1.24-.34-2.25-1.02-3.02-.69-.77-1.7-1.24-3.05-1.41-.8-.09-3.11-.14-6.92-.14h-4.65zm0 15.95v10.72h7.49c2.92 0 4.77-.09 5.55-.25 1.21-.22 2.19-.75 2.94-1.6.76-.85 1.14-1.98 1.14-3.4 0-1.21-.29-2.23-.88-3.07-.58-.84-1.42-1.45-2.53-1.83-1.1-.38-3.49-.57-7.17-.57h-6.54zm32.29 17.47v-40.09h7.69v40.09h-7.69zm34.65 0v-4.35c-1.06 1.55-2.45 2.77-4.17 3.67-1.72.89-3.54 1.34-5.46 1.34-1.95 0-3.7-.43-5.25-1.29s-2.67-2.06-3.36-3.61-1.04-3.69-1.04-6.43v-18.37h7.69v13.34c0 4.09.14 6.59.42 7.51s.8 1.65 1.54 2.19c.75.53 1.7.8 2.85.8 1.31 0 2.49-.36 3.53-1.08 1.03-.72 1.75-1.61 2.13-2.68.38-1.06.57-3.67.57-7.83v-12.25h7.69v29.04h-7.14zm31.94-9.24 7.65 1.28c-.98 2.81-2.54 4.95-4.66 6.41-2.12 1.47-4.78 2.21-7.97 2.21-5.05 0-8.79-1.65-11.21-4.95-1.91-2.65-2.87-5.98-2.87-10.01 0-4.81 1.26-8.58 3.77-11.31 2.52-2.72 5.7-4.09 9.54-4.09 4.33 0 7.73 1.43 10.23 4.28 2.5 2.86 3.69 7.23 3.58 13.11h-19.25c.06 2.28.68 4.06 1.86 5.32 1.19 1.27 2.66 1.9 4.43 1.9 1.21 0 2.22-.33 3.04-.98.82-.66 1.44-1.71 1.86-3.17zm.43-7.77c-.05-2.22-.62-3.91-1.72-5.07-1.09-1.16-2.42-1.74-3.99-1.74-1.68 0-3.06.61-4.16 1.83-1.09 1.23-1.63 2.88-1.61 4.98h11.48zm29.54-23.08h16.02c3.17 0 5.54.14 7.09.4 1.56.26 2.96.82 4.19 1.65 1.23.84 2.25 1.96 3.07 3.35.82 1.4 1.24 2.96 1.24 4.69 0 1.88-.51 3.6-1.52 5.17s-2.39 2.74-4.12 3.53c2.44.71 4.32 1.92 5.64 3.63 1.31 1.72 1.96 3.73 1.96 6.05 0 1.82-.42 3.59-1.27 5.32-.85 1.72-2 3.1-3.47 4.13s-3.28 1.66-5.43 1.9c-1.35.14-4.6.23-9.76.27h-13.64v-40.09zm8.09 6.67V490h5.3c3.16 0 5.12-.04 5.88-.13 1.39-.17 2.48-.64 3.27-1.44.79-.79 1.19-1.83 1.19-3.13 0-1.24-.34-2.25-1.03-3.02-.68-.77-1.7-1.24-3.04-1.41-.81-.09-3.11-.14-6.92-.14h-4.65zm0 15.95v10.72h7.49c2.92 0 4.77-.09 5.55-.25 1.21-.22 2.19-.75 2.94-1.6.76-.85 1.14-1.98 1.14-3.4 0-1.21-.3-2.23-.88-3.07s-1.42-1.45-2.53-1.83c-1.1-.38-3.49-.57-7.18-.57h-6.53zm49.11 8.23 7.66 1.28c-.99 2.81-2.54 4.95-4.67 6.41-2.12 1.47-4.78 2.21-7.97 2.21-5.05 0-8.78-1.65-11.21-4.95-1.91-2.65-2.87-5.98-2.87-10.01 0-4.81 1.26-8.58 3.77-11.31 2.52-2.72 5.7-4.09 9.55-4.09 4.32 0 7.73 1.43 10.22 4.28 2.5 2.86 3.69 7.23 3.59 13.11h-19.25c.05 2.28.67 4.06 1.85 5.32 1.19 1.27 2.67 1.9 4.43 1.9 1.21 0 2.22-.33 3.04-.98.82-.66 1.44-1.71 1.86-3.17zm.44-7.77c-.06-2.22-.63-3.91-1.73-5.07-1.09-1.16-2.42-1.74-3.99-1.74-1.68 0-3.06.61-4.15 1.83-1.1 1.23-1.64 2.88-1.62 4.98h11.49zm19.66-3.17-6.98-1.26c.79-2.81 2.14-4.88 4.05-6.23s4.76-2.03 8.53-2.03c3.43 0 5.98.41 7.66 1.22s2.86 1.84 3.54 3.09 1.02 3.54 1.02 6.88l-.08 8.97c0 2.55.13 4.43.37 5.64.25 1.21.71 2.51 1.38 3.9h-7.6c-.2-.51-.45-1.27-.74-2.27-.12-.46-.22-.76-.27-.9-1.31 1.27-2.72 2.23-4.21 2.87-1.5.64-3.09.96-4.79.96-2.99 0-5.34-.82-7.07-2.44-1.72-1.62-2.58-3.67-2.58-6.15 0-1.64.39-3.1 1.18-4.39.78-1.28 1.88-2.27 3.29-2.95 1.41-.69 3.45-1.28 6.11-1.79 3.59-.68 6.08-1.31 7.47-1.89v-.77c0-1.47-.37-2.53-1.1-3.15-.73-.63-2.1-.95-4.12-.95-1.37 0-2.44.27-3.2.81-.77.54-1.39 1.48-1.86 2.83zm10.28 6.23c-.99.33-2.55.72-4.68 1.18s-3.53.9-4.18 1.34c-1 .71-1.51 1.61-1.51 2.71 0 1.07.41 2 1.21 2.79.8.78 1.82 1.17 3.06 1.17 1.39 0 2.71-.45 3.96-1.37.93-.69 1.55-1.54 1.84-2.54.2-.66.3-1.9.3-3.75v-1.53zm40.47-6.5-7.58 1.36c-.25-1.51-.83-2.65-1.73-3.41-.91-.77-2.08-1.15-3.52-1.15-1.91 0-3.44.66-4.58 1.98s-1.71 3.53-1.71 6.63c0 3.45.58 5.88 1.74 7.3s2.71 2.13 4.66 2.13c1.46 0 2.65-.41 3.58-1.24s1.59-2.26 1.97-4.28l7.55 1.29c-.78 3.46-2.29 6.07-4.51 7.84-2.23 1.77-5.21 2.66-8.94 2.66-4.25 0-7.64-1.34-10.16-4.02-2.53-2.68-3.79-6.39-3.79-11.13 0-4.8 1.27-8.53 3.8-11.2 2.54-2.67 5.96-4.01 10.28-4.01 3.54 0 6.35.76 8.44 2.29 2.09 1.52 3.58 3.84 4.5 6.96zm13.5-19.64v14.74c2.48-2.9 5.45-4.35 8.89-4.35 1.77 0 3.36.33 4.79.99 1.42.65 2.49 1.49 3.21 2.51s1.21 2.15 1.48 3.39c.26 1.24.39 3.17.39 5.77v17.04h-7.68v-15.34c0-3.05-.15-4.98-.44-5.8s-.81-1.47-1.54-1.95c-.74-.49-1.67-.73-2.78-.73-1.28 0-2.41.31-3.42.93-1 .62-1.73 1.56-2.2 2.8-.46 1.25-.7 3.1-.7 5.54v14.55h-7.68v-40.09h7.68z"/><path id="text5663" style="fill:#fff" d="m801.92 283.04 7.66-.79c.21 1.73.86 3.1 1.94 4.11 1.07 1.01 2.31 1.52 3.72 1.52 1.6 0 2.96-.65 4.07-1.96 1.11-1.3 1.67-3.26 1.67-5.89 0-2.46-.55-4.3-1.66-5.53-1.1-1.24-2.53-1.85-4.3-1.85-2.21 0-4.19.97-5.94 2.93l-6.23-.91 3.94-20.86h20.31V261h-14.49l-1.2 6.81c1.71-.86 3.46-1.29 5.25-1.29 3.41 0 6.3 1.24 8.67 3.72s3.55 5.7 3.55 9.66c0 3.29-.96 6.24-2.87 8.83-2.61 3.53-6.23 5.3-10.86 5.3-3.7 0-6.71-.99-9.05-2.98-2.33-1.99-3.72-4.66-4.18-8.01z"/><path id="text5669" style="fill:#fff" d="m802.68 358.6 7.44-.82c.18 1.51.66 2.63 1.42 3.36.77.73 1.78 1.1 3.04 1.1 1.58 0 2.93-.73 4.05-2.19 1.11-1.46 1.82-4.48 2.13-9.08-1.93 2.24-4.35 3.37-7.25 3.37-3.15 0-5.87-1.22-8.16-3.65-2.29-2.44-3.43-5.61-3.43-9.51 0-4.06 1.21-7.34 3.62-9.83 2.42-2.49 5.49-3.73 9.23-3.73 4.06 0 7.4 1.57 10.01 4.72 2.6 3.14 3.91 8.31 3.91 15.52 0 7.32-1.36 12.61-4.08 15.85-2.71 3.25-6.25 4.87-10.61 4.87-3.13 0-5.67-.83-7.6-2.5s-3.17-4.16-3.72-7.48zm17.39-16.79c0-2.48-.57-4.4-1.7-5.77-1.14-1.36-2.46-2.05-3.96-2.05-1.42 0-2.6.56-3.54 1.68s-1.41 2.96-1.41 5.51c0 2.59.52 4.49 1.54 5.7 1.02 1.22 2.29 1.82 3.82 1.82 1.48 0 2.73-.58 3.74-1.75 1.01-1.16 1.51-2.88 1.51-5.14z"/><path id="text5683" style="fill:#fff" d="M814.69 435.8v7.14h-26.93c.29-2.7 1.16-5.26 2.62-7.67 1.46-2.42 4.34-5.62 8.64-9.62 3.46-3.22 5.59-5.41 6.37-6.56 1.06-1.58 1.59-3.15 1.59-4.7 0-1.71-.46-3.03-1.38-3.95s-2.2-1.38-3.82-1.38c-1.6 0-2.88.48-3.83 1.45-.94.96-1.49 2.57-1.64 4.81l-7.65-.77c.45-4.23 1.88-7.26 4.29-9.1s5.41-2.76 9.02-2.76c3.96 0 7.07 1.06 9.33 3.2 2.26 2.13 3.39 4.78 3.39 7.95 0 1.81-.32 3.53-.97 5.16s-1.67 3.34-3.08 5.12c-.93 1.19-2.61 2.89-5.03 5.12-2.42 2.22-3.96 3.7-4.61 4.43-.64.73-1.17 1.44-1.57 2.13h15.26zm31.17 0v7.14h-26.93c.29-2.7 1.16-5.26 2.62-7.67 1.46-2.42 4.34-5.62 8.64-9.62 3.47-3.22 5.59-5.41 6.37-6.56 1.06-1.58 1.59-3.15 1.59-4.7 0-1.71-.46-3.03-1.38-3.95s-2.19-1.38-3.82-1.38c-1.6 0-2.88.48-3.82 1.45-.95.96-1.5 2.57-1.64 4.81l-7.66-.77c.46-4.23 1.89-7.26 4.29-9.1 2.41-1.84 5.42-2.76 9.03-2.76 3.95 0 7.06 1.06 9.32 3.2 2.26 2.13 3.39 4.78 3.39 7.95 0 1.81-.32 3.53-.97 5.16s-1.67 3.34-3.08 5.12c-.93 1.19-2.6 2.89-5.03 5.12-2.42 2.22-3.96 3.7-4.61 4.43-.64.73-1.17 1.44-1.57 2.13h15.26z"/><path id="text5687" style="fill:#fff" d="M801.84 515.09v-8.07h-16.41v-6.72l17.39-25.46h6.45v25.43h4.98v6.75h-4.98v8.07h-7.43zm0-14.82v-13.7l-9.22 13.7h9.22zm16.21 4.51 7.66-.79c.22 1.73.86 3.1 1.94 4.11 1.08 1.02 2.31 1.52 3.72 1.52 1.6 0 2.96-.65 4.07-1.95 1.11-1.31 1.67-3.27 1.67-5.9 0-2.46-.55-4.3-1.65-5.53-1.11-1.23-2.54-1.85-4.31-1.85-2.21 0-4.18.98-5.93 2.93l-6.24-.91 3.94-20.86h20.32v7.19h-14.5l-1.2 6.81c1.71-.86 3.46-1.28 5.25-1.28 3.41 0 6.3 1.24 8.67 3.72 2.37 2.47 3.55 5.69 3.55 9.65 0 3.3-.95 6.24-2.87 8.83-2.6 3.54-6.22 5.3-10.85 5.3-3.7 0-6.72-.99-9.05-2.98-2.34-1.98-3.73-4.65-4.19-8.01z"/></svg>