<svg width="811" height="608" fill="none" xmlns="http://www.w3.org/2000/svg"><path d="M811 145.656H7.117V507.83H811V145.656Z" fill="#606060"/><path d="M32.013 134.336H0v383.678h32.013V134.336ZM810.995 135.469h-32.013v383.678h32.013V135.469Z" fill="#8A9995"/><path d="M768-51H54v817h714V-51Z" fill="#3D3B38"/><path d="M419.254-10.596h-12.805v82.723h12.805v-82.723ZM419.254 106.291h-12.805v82.723h12.805v-82.723ZM419.254 224.076h-12.805v82.723h12.805v-82.723ZM419.254 340.965h-12.805v82.722h12.805v-82.722ZM84-51h-8v817h8V-51ZM746-50h-9v816h9V-50ZM419.254 448.906h-12.805v82.723h12.805v-82.723ZM419.254 565.795h-12.805v82.723h12.805v-82.723Z" fill="#fff"/><path d="M754.081 92.457h-28.456v467.431h28.456V92.457Z" fill="#8A9995"/><path d="M749.64 120.77h-20.452v397.259h20.452V120.77Z" fill="#FAFAFA"/><path d="M87.147 92.457H58.691v467.431h28.456V92.457Z" fill="#8A9995"/><path d="M82.699 120.77H62.246v397.259H82.7V120.77Z" fill="#FAFAFA"/></svg>