<svg width="714" height="972" fill="none" xmlns="http://www.w3.org/2000/svg"><path d="M714 0H0v800.849h714V0Z" fill="#3D3B38"/><path d="M714 799.324H0v800.846h714V799.324Z" fill="#3D3B38"/><path d="M363.41 25.922h-12.826v82.229h12.826v-82.23ZM363.41 825.246h-12.826v82.229h12.826v-82.229ZM363.41 142.117h-12.826v82.229h12.826v-82.229ZM363.41 259.197h-12.826v82.23h12.826v-82.23ZM363.41 375.393h-12.826v82.229h12.826v-82.229ZM363.41 490.695h-12.826v82.23h12.826v-82.23ZM363.41 606.895h-12.826v82.229h12.826v-82.229ZM363.41 723.977h-12.826v76.862h12.826v-76.862ZM30.418 0H21.93v800.849h8.488V0Z" fill="#fff"/><path d="M30.418 799.324H21.93v800.846h8.488V799.324ZM692.063 0h-8.489v800.849h8.489V0Z" fill="#fff"/><path d="M692.063 799.324h-8.489v800.846h8.489V799.324Z" fill="#fff"/></svg>