<svg aria-hidden="true" style="width:0;height:0;position:absolute;overflow:hidden" xmlns="http://www.w3.org/2000/svg"><defs><symbol id="menu_open" viewBox="0 0 46 30" fill="none"><path d="M3 3h40M3 15h40M3 27h40" stroke="#0A93FD" stroke-width="5" stroke-linecap="round"/></symbol><symbol id="menu_close" viewBox="0 0 39 39" fill="none"><path id="Vector 24" d="M3 35.672 36 3" stroke="#0A93FD" stroke-width="4.714" stroke-linecap="round"/><path id="Vector 23" d="M3 3.33 36 36" stroke="#0A93FD" stroke-width="4.714" stroke-linecap="round"/></symbol><symbol id="copyright" viewBox="0 0 32 32"><path fill="#9da4bd" style="fill:var(--color1,#9da4bd)" d="M15.813 11.413c2.053.107 2.56 1.867 2.613 2.667h2.853c-.133-3.173-2.4-5.093-5.52-5.093-3.547 0-6.16 2.213-6.16 7.227 0 3.12 1.493 6.8 6.133 6.8 3.573 0 5.467-2.667 5.52-4.72h-2.88c-.027.933-.72 2.213-2.587 2.293-2.107-.053-2.987-1.653-2.987-4.373 0-4.613 2.053-4.747 3.013-4.8zM16 0C7.163 0 0 7.163 0 16s7.163 16 16 16 16-7.163 16-16S24.837 0 16 0zm0 28.8c-7.071-.008-12.8-5.741-12.8-12.813C3.2 8.91 8.937 3.174 16.013 3.174h.014-.001c7.071.008 12.8 5.741 12.8 12.813 0 7.077-5.737 12.813-12.813 12.813h-.014H16z"/></symbol><symbol id="facebook" viewBox="0 0 32 32"><path d="M21.328 5.312h2.928V.224C23.744.16 22.016 0 20 0c-4.224 0-7.104 2.656-7.104 7.52V12h-4.64v5.68h4.64V32h5.696V17.696h4.464L23.76 12h-5.168V8.08c0-1.648.448-2.768 2.736-2.768z"/></symbol><symbol id="instagram" viewBox="0 0 32 32"><path d="M31.968 9.408a11.64 11.64 0 0 0-.763-3.968l.027.08a7.858 7.858 0 0 0-1.854-2.83l-.002-.002c-.8-.8-1.76-1.44-2.832-1.84a11.483 11.483 0 0 0-3.875-.752h-.013c-1.458-.07-3.167-.109-4.885-.109-.6 0-1.199.005-1.797.014l.09-.001c-4.352 0-4.896.016-6.592.096C7.76.16 6.592.448 5.584.832a7.992 7.992 0 0 0-2.832 1.856c-.816.8-1.44 1.76-1.856 2.832A11.473 11.473 0 0 0 .16 9.397v.011c-.07 1.458-.109 3.167-.109 4.885 0 .6.005 1.199.014 1.797L.064 16c0 4.352 0 4.896.08 6.592.03 1.405.303 2.737.779 3.968l-.027-.08a7.782 7.782 0 0 0 1.856 2.832c.8.816 1.76 1.44 2.832 1.856 1.008.384 2.176.656 3.872.736 1.712.08 2.24.096 6.592.096s4.896-.016 6.608-.096a11.648 11.648 0 0 0 3.952-.763l-.08.027a8.242 8.242 0 0 0 4.669-4.633l.019-.055c.384-1.024.672-2.176.736-3.888.08-1.696.096-2.24.096-6.592 0-4.336 0-4.88-.08-6.592zm-2.88 13.072c-.064 1.552-.32 2.4-.544 2.96a5.34 5.34 0 0 1-3.004 3.027l-.036.013c-.56.224-1.424.48-2.976.544-1.68.08-2.192.096-6.464.096a114.015 114.015 0 0 1-6.706-.105l.242.009c-1.568-.064-2.4-.32-2.96-.544a4.96 4.96 0 0 1-1.839-1.199L4.8 27.28a4.975 4.975 0 0 1-1.189-1.79l-.011-.034a8.64 8.64 0 0 1-.544-2.972v-.004a108.653 108.653 0 0 1-.095-6.546l-.001.083c0-4.272.016-4.784.096-6.464.064-1.568.32-2.4.544-2.976a4.774 4.774 0 0 1 1.2-1.824 4.98 4.98 0 0 1 1.806-1.189l.034-.011c.56-.224 1.408-.48 2.976-.544 1.68-.08 2.192-.096 6.448-.096 4.288 0 4.8 0 6.464.096 1.568.064 2.4.32 2.976.544a4.831 4.831 0 0 1 1.84 1.2 4.966 4.966 0 0 1 1.2 1.824c.208.576.48 1.424.544 2.976.08 1.68.096 2.192.096 6.464s-.016 4.768-.096 6.464z"/><path d="M16.064 7.776a8.224 8.224 0 1 0 0 16.448 8.224 8.224 0 1 0 0-16.448zm0 13.552a5.327 5.327 0 1 1 0-10.656 5.327 5.327 0 1 1 0 10.656zM26.528 7.456a1.92 1.92 0 0 1-3.84 0 1.92 1.92 0 0 1 3.84 0z"/></symbol><symbol id="linkedin" viewBox="0 0 32 32"><path d="M32 32V20.256c0-5.728-1.232-10.16-7.952-10.16a6.957 6.957 0 0 0-6.255 3.423l-.018.032h-.096v-2.912h-6.368v21.36h6.64V21.423c0-2.784.528-5.488 3.968-5.488 3.408 0 3.456 3.184 3.456 5.664v10.4h6.624zM.528 10.64h6.64V32H.528V10.64zM3.84 0A3.84 3.84 0 0 0 0 3.84v.016a3.872 3.872 0 0 0 3.838 3.872h.002c2.128 0 3.84-1.76 3.84-3.888A3.84 3.84 0 0 0 3.84 0z"/></symbol><symbol id="twitter" viewBox="0 0 32 32"><path d="M32 6.08c-1.184.528-2.464.864-3.776 1.04 1.36-.816 2.4-2.08 2.88-3.632a13.946 13.946 0 0 1-4.16 1.6 6.56 6.56 0 0 0-11.19 6.013l-.009-.045a18.548 18.548 0 0 1-13.477-6.83l-.027-.034a6.53 6.53 0 0 0-.887 3.307 6.598 6.598 0 0 0 2.865 5.446l.022.014c-1.04 0-2.08-.32-2.96-.8v.064c0 3.2 2.272 5.84 5.264 6.448a6.6 6.6 0 0 1-3.018.105l.042.007c.878 2.623 3.284 4.493 6.136 4.56h.008a13.098 13.098 0 0 1-8.159 2.828c-.547 0-1.087-.033-1.617-.098l.064.006c2.826 1.846 6.286 2.944 10.003 2.944h.065-.003c12.08 0 18.672-10 18.672-18.672 0-.288 0-.576-.032-.848 1.312-.928 2.4-2.08 3.296-3.408z"/></symbol><symbol id="email" viewBox="0 0 32 32"><path d="M26.667 5.333H5.334A2.662 2.662 0 0 0 2.682 8l-.014 16c0 1.467 1.2 2.667 2.667 2.667h21.333c1.467 0 2.667-1.2 2.667-2.667V8c0-1.467-1.2-2.667-2.667-2.667zm-.534 5.668-9.426 5.892a1.343 1.343 0 0 1-1.421-.004l.006.003L5.866 11A1.133 1.133 0 1 1 7.07 9.083l-.004-.003 8.933 5.586 8.933-5.588a1.132 1.132 0 1 1 1.204 1.916l-.005.003z"/></symbol><symbol id="mail" viewBox="0 0 32 32"><path fill="none" stroke="#9da4bd" style="stroke:var(--color1,#9da4bd)" stroke-linejoin="round" stroke-linecap="round" stroke-width="1.333" d="M6.4 6.667h19.2C26.92 6.667 28 7.72 28 9v14c0 1.28-1.08 2.333-2.4 2.333H6.4C5.08 25.333 4 24.28 4 23V9c0-1.28 1.08-2.333 2.4-2.333z"/><path fill="none" stroke="#9da4bd" style="stroke:var(--color1,#9da4bd)" stroke-linejoin="round" stroke-linecap="round" stroke-width="1.333" d="m26.667 9.333-10.667 8-10.667-8"/></symbol><symbol id="map-pin" viewBox="0 0 32 32"><path fill="none" stroke="#9da4bd" style="stroke:var(--color1,#9da4bd)" stroke-linejoin="round" stroke-linecap="round" stroke-width="1.333" d="M26.667 13.813C26.667 21.466 16 28 16 28S5.333 21.467 5.333 13.813C5.333 8.4 10.106 4 16 4s10.667 4.4 10.667 9.813v0z"/><path fill="none" stroke="#9da4bd" style="stroke:var(--color1,#9da4bd)" stroke-linejoin="round" stroke-linecap="round" stroke-width="1.333" d="M16 18.667a4 4 0 0 0 0-8v0a4 4 0 0 0 0 8v0z"/></symbol><symbol id="phone" viewBox="0 0 32 32"><path fill="none" stroke="#9da4bd" style="stroke:var(--color1,#9da4bd)" stroke-linejoin="round" stroke-linecap="round" stroke-width="1.333" d="M26.667 21.333V24.569a2.133 2.133 0 0 1-2.342 2.123l.009.001c-3.484-.382-6.632-1.553-9.348-3.33l.081.05a21.107 21.107 0 0 1-6.377-6.357l-.05-.083a20.962 20.962 0 0 1-3.298-9.211l-.009-.095a2.133 2.133 0 0 1 2.124-2.333h3.223c1.067 0 2 .773 2.147 1.84.133 1.04.4 2.04.747 3.013a2.127 2.127 0 0 1-.48 2.267l-1.36 1.36c1.555 2.702 3.738 4.885 6.357 6.396l.083.044 1.36-1.36a2.125 2.125 0 0 1 2.281-.475l-.015-.005c.973.36 1.973.613 3.013.747a2.15 2.15 0 0 1 1.84 2.173z"/></symbol><symbol id="smartphone" viewBox="0 0 20 32"><path d="m24.882 19.774-3.268-.373a2.552 2.552 0 0 0-2.11.732l-2.368 2.368c-3.669-1.894-6.585-4.81-8.427-8.372l-.051-.108 2.382-2.377a2.552 2.552 0 0 0 .731-2.122l.001.012-.373-3.243a2.578 2.578 0 0 0-2.557-2.276H6.613c-1.454 0-2.663 1.209-2.574 2.661.683 10.987 9.47 19.762 20.444 20.444 1.452.089 2.663-1.12 2.663-2.574v-2.238a2.549 2.549 0 0 0-2.253-2.532l-.012-.001z"/></symbol><symbol id="person" viewBox="0 0 32 32"><path d="M16 16a5.333 5.333 0 1 0 0-10.666A5.333 5.333 0 1 0 16 16zm0 2.667c-3.561 0-10.667 1.787-10.667 5.333v1.333c0 .732.599 1.333 1.333 1.333h18.667c.732 0 1.333-.601 1.333-1.333V24c0-3.547-7.108-5.333-10.667-5.333z"/></symbol><symbol id="check" viewBox="0 0 34 32"><path d="M4.267 0h25.6a4.267 4.267 0 0 1 4.267 4.267v23.467a4.267 4.267 0 0 1-4.267 4.267h-25.6A4.267 4.267 0 0 1 0 27.734V4.267A4.267 4.267 0 0 1 4.267 0z"/><path fill="#fff" style="fill:var(--color2,#fff);stroke:var(--color2,#fff)" stroke="#fff" stroke-width=".427" d="m8.442 16.538-.147-.141-.147.139-2.057 1.95.162.156 7.605 7.253.147-.141 16.171-15.426-.162-.154-2.029-1.935-.147.141-13.98 13.325-5.417-5.167z"/></symbol><symbol id="send" viewBox="0 0 32 32"><path fill="#fff" style="fill:var(--color1,#fff)" d="M32 0 0 18l10.227 3.787L26 7 14.003 23.187l.009.003-.012-.003V32l5.735-6.691L27.002 28l4.999-28z"/></symbol></defs></svg>