<svg version="1.1" id="Слой_2_1_" xmlns="http://www.w3.org/2000/svg" x="0" y="0" viewBox="0 0 553.4 124" style="enable-background:new 0 0 553.4 124" xml:space="preserve"><style>.st0{fill:#749dc1}.st1{fill:#69879e}</style><path class="st0" d="M228.5 107.2h18.9V124h-18.9z"/><path class="st0" d="M232.3 105.5h13.4v5.3h-13.4z"/><path class="st0" d="M233.4 103.8h6.4v3.4h-6.4zM241.7 94.3h2.1v13.8h-2.1zM205 106.7h21V124h-21z"/><path class="st0" d="M221.6 114.6h10.8v9.4h-10.8zM207.6 80.3H225v26.8h-17.4z"/><path class="st0" d="M210.3 62.9h12v19.6h-12z"/><path class="st0" d="M212.1 35.4h8.9v28.9h-8.9z"/><path class="st0" d="M218.8 36h-4.6V19.8l2.3-2.4 2.3 2.4zM173.9 68.6H165V51.9l4.4-3.1 4.5 3.1z"/><path class="st0" d="M182.1 68.6h-8.8V51.9l4.4-3.1 4.4 3.1z"/><path class="st0" d="M190.8 68.6h-8.9V51.9l4.4-3.1 4.5 3.1z"/><path class="st0" d="M160.2 64.3h30.6v59.6h-30.6z"/><path class="st0" d="M158.1 66.4h15.1V124h-15.1zM186.3 98.8h18.6V124h-18.6zM125.3 81.4h30.3V124h-30.3z"/><path class="st0" d="M147.6 109.8H165V124h-17.4zM125.3 20.3h27v61.1h-27z"/><path class="st0" d="M150.4 29h-14V17.4l14 1.4zM132.1 5.5h1.9v17.8h-1.9zM127.7 5.5h1.9v17.8h-1.9zM114.2 71.6h5.2v22.7h-5.2z"/><path class="st0" d="M103.6 75.9h17.6v24.4h-17.6z"/><path class="st0" d="M103.6 91.7h24.1V124h-24.1zM109.6 67.6h2.8v9.6h-2.8zM98.6 124H77.9V40.4l4.8-3.4 15.9 5.1z"/><path class="st0" d="M76.9 42.5h23.8V124H76.9z"/><path class="st0" d="M90.8 119.3h17v4.7h-17zM46.2 84.9h22V124h-22z"/><path class="st0" d="M61.7 102.7h18.8V124H61.7zM37.3 113.3h6.5V124h-6.5z"/><path class="st0" d="M34 120.3h19.1v3.7H34zM62.3 88.1h-9.9v-5.8l4.9-2.8 5 2.8zM64.4 69.6H67v15.2h-2.6zM47.6 69.8h2.5V85h-2.5z"/><path class="st1" d="M93.2 105.1h32.9v18.5H93.2z"/><path class="st1" d="M111.8 109.4h16.3v14.2h-16.3z"/><path class="st1" d="M99.1 100.8h26.5v10.6H99.1z"/><path class="st1" d="M94.4 98.7h17.4v9.8H94.4z"/><path class="st1" d="M98.5 73.1h23.3v29.2H98.5z"/><path class="st1" d="M116.1 83.9h-15.7V71.3l7.9-2.2 7.8 2.2zM68.3 93.4h17.5v30.5H68.3z"/><path class="st1" d="M81.6 116.9h7.7v7.1h-7.7zM8.9 115.5h64.5v8.5H8.9zM151.8 116.9h5v7.1h-5z"/><path class="st1" d="M0 91.8h27.9v31.6H0zM32.7 110.5h20.5v10.4H32.7z"/><path class="st1" d="M44.3 82.4h25.6v37.3H44.3z"/><path class="st1" d="M49.5 56.5h31.6v43.8H49.5z"/><path class="st1" d="M52.1 53.7h22v9.6h-22z"/><path class="st1" d="M63.5 51h8.6v7.1h-8.6zM54.5 49.6h6.2V57h-6.2z"/><path class="st1" d="M53.2 52.3h8.7V59h-8.7zM56.6 36.3h2.3V51h-2.3zM0 75.5h17.5v23H0z"/><path class="st1" d="M7.2 74.3h9.1v6.2H7.2z"/><path class="st1" d="M8.7 72.4h5.8v5.8H8.7zM4.1 68.3h1.8v9.2H4.1zM2.2 71h.9v5.4h-.9z"/><path class="st0" d="M478.6 101.7h18.9v16.8h-18.9z"/><path class="st0" d="M482.5 100h13.4v5.3h-13.4z"/><path class="st0" d="M483.6 98.3h6.4v3.4h-6.4zM491.9 88.8h2.1v13.8h-2.1zM455.1 101.2h21v17.3h-21z"/><path class="st0" d="M471.8 109.1h10.8v9.4h-10.8zM457.8 74.9h17.4v26.8h-17.4z"/><path class="st0" d="M460.5 57.4h12V77h-12z"/><path class="st0" d="M462.3 30h8.9v28.9h-8.9z"/><path class="st0" d="M469 30.5h-4.6V14.4l2.3-2.4 2.3 2.4zM424.1 63.2h-8.9V46.5l4.4-3.1 4.5 3.1z"/><path class="st0" d="M432.3 63.2h-8.8V46.5l4.4-3.1 4.4 3.1z"/><path class="st0" d="M440.9 63.2h-8.8V46.5l4.4-3.1 4.4 3.1z"/><path class="st0" d="M410.4 58.9H441v59.6h-30.6z"/><path class="st0" d="M408.3 60.9h15.1v57.6h-15.1zM436.5 93.3h18.6v25.2h-18.6zM375.4 75.9h30.3v42.6h-30.3z"/><path class="st0" d="M397.8 104.3h17.4v14.2h-17.4zM375.4 14.8h27v61.1h-27z"/><path class="st0" d="M400.6 23.6h-14V12l14 1.3zM382.3 0h1.9v17.8h-1.9zM377.8 0h1.9v17.8h-1.9zM364.4 66.1h5.2v22.7h-5.2z"/><path class="st0" d="M353.7 70.4h17.6v24.4h-17.6z"/><path class="st0" d="M353.7 86.2h24.1v32.3h-24.1zM359.8 62.1h2.8v9.6h-2.8zM348.7 118.5h-20.6V34.9l4.8-3.4 15.8 5.2z"/><path class="st0" d="M327 37h23.8v81.5H327z"/><path class="st0" d="M341 113.8h17v4.7h-17zM296.4 79.4h22v39.1h-22z"/><path class="st0" d="M311.9 97.2h18.8v21.3h-18.8zM287.5 107.9h6.5v10.7h-6.5z"/><path class="st0" d="M284.2 114.8h19.1v3.7h-19.1zM312.5 82.6h-10v-5.8l5-2.7 5 2.7zM314.6 64.1h2.6v15.2h-2.6zM297.8 64.3h2.5v15.2h-2.5z"/><path class="st1" d="M343.4 99.7h32.9v18.5h-32.9z"/><path class="st1" d="M362 103.9h16.3v14.2H362z"/><path class="st1" d="M349.3 95.3h26.5v10.6h-26.5z"/><path class="st1" d="M344.6 93.2H362v9.8h-17.4z"/><path class="st1" d="M348.6 67.6H372v29.2h-23.4z"/><path class="st1" d="M366.3 78.5h-15.7V65.9l7.8-2.3 7.9 2.3zM318.5 88H336v30.5h-17.5z"/><path class="st1" d="M331.8 111.4h7.7v7.1h-7.7zM259 110h64.5v8.5H259zM401.9 111.4h5v7.1h-5z"/><path class="st1" d="M250.2 86.3h27.9v31.6h-27.9zM282.8 105.1h20.5v10.4h-20.5z"/><path class="st1" d="M294.4 77H320v37.3h-25.6z"/><path class="st1" d="M299.6 51.1h31.6v43.8h-31.6z"/><path class="st1" d="M302.3 48.2h22v9.6h-22z"/><path class="st1" d="M313.7 45.5h8.6v7.1h-8.6zM304.7 44.1h6.2v7.4h-6.2z"/><path class="st1" d="M303.4 46.8h8.7v6.7h-8.7zM306.8 30.8h2.3v14.7h-2.3zM250.2 70h17.5v23h-17.5z"/><path class="st1" d="M257.4 68.9h9.1v6.2h-9.1z"/><path class="st1" d="M258.9 66.9h5.8v5.8h-5.8zM254.3 62.8h1.8v9.1h-1.8zM252.3 65.5h.9v5.4h-.9z"/><path class="st0" d="M484.4 93.2h14.4V34.7l-3.4-2.4-11 3.6z"/><path class="st0" d="M482.9 36.2h16.6v57.1h-16.6z"/><path class="st0" d="M477.8 89.9h11.9v3.3h-11.9zM505.6 65.9H521v27.4h-15.4z"/><path class="st0" d="M497 78.3h13.1v14.9H497zM522.7 85.8h4.6v7.5h-4.6z"/><path class="st0" d="M516.2 90.6h13.4v2.6h-13.4zM509.8 68.1h6.9V64l-3.5-1.9-3.4 1.9zM506.4 55.1h1.8v10.7h-1.8zM518.3 55.3h1.8v10.6h-1.8z"/><path class="st1" d="M493.3 71.9h12.2v21.4h-12.2z"/><path class="st1" d="M490.9 88.2h5.4v5h-5.4zM502 87.3h45.2v5.9H502z"/><path class="st1" d="M533.8 70.7h19.5v22.1h-19.5zM516.1 83.8h14.4v7.3h-14.4z"/><path class="st1" d="M504.4 64.1h17.9v26.1h-17.9z"/><path class="st1" d="M496.6 46h22.1v30.7h-22.1z"/><path class="st1" d="M501.5 44h15.4v6.7h-15.4z"/><path class="st1" d="M502.9 42.1h6v5h-6zM510.9 41.1h4.3v5.2h-4.3z"/><path class="st1" d="M510 43h6.1v4.7H510zM512.2 31.8h1.6v10.3h-1.6zM541.2 59.3h12.2v16.1h-12.2z"/><path class="st1" d="M542 58.5h6.3v4.3H542z"/><path class="st1" d="M543.2 57.1h4v4h-4zM549.3 54.2h1.2v6.4h-1.2zM551.2 56.1h.7v3.8h-.7z"/></svg>