<svg xmlns="http://www.w3.org/2000/svg" width="3354" height="3907" style="shape-rendering:geometricprecision;text-rendering:geometricprecision;image-rendering:optimizequality;fill-rule:evenodd;clip-rule:evenodd"><path style="opacity:.999" fill="#44a347" d="M1298.5-.5h31c99.97 5.49 192.31 34.99 277 88.5 115.6 73.431 199.93 173.265 253 299.5 65.7-21.618 132.37-25.285 200-11 71.93 131.893 78.1 266.893 18.5 405-14.54 31.328-31.71 60.994-51.5 89 103.42 81.616 176.25 184.95 218.5 310 40.13 134.11 32.46 265.45-23 394-22.37 50.3-50.37 96.96-84 140 .48 2.04 1.32 4.04 2.5 6-66 70.37-101.67 154.04-107 251-63.52 18.7-114.35 55.03-152.5 109a307.606 307.606 0 0 0-35.5 65c-12.46 6.83-24.79 14.66-37 23.5-96.67 70.49-171.34 159.32-224 266.5a457.606 457.606 0 0 1-50-28c-31.66-183-63.5-366-95.5-549-10.33 188.97-20.17 377.97-29.5 567-37.22 19.61-75.89 35.94-116 49-50.26-50.24-106.26-92.41-168-126.5 40.99 42.86 75.99 90.02 105 141.5-.08 1.25-.74 2.08-2 2.5-159.5 28.37-308.502.7-447-83a1104.26 1104.26 0 0 1-57-38.5c-76.43 64.53-164.763 101.03-265 109.5a427.546 427.546 0 0 1-94-5.5c-22.314-42.78-37.147-88.11-44.5-136a1196.163 1196.163 0 0 1-5.5-48c-1.712-130.54 37.955-246.54 119-348-98.625-122.47-135.792-261.81-111.5-418 17.718-100.4 57.885-190.4 120.5-270-37.283-90.72-45.449-184.06-24.5-280 30.327-130.251 98.827-235.084 205.5-314.5 43.652-30.905 91.485-53.072 143.5-66.5 6.93-160.436 63.93-299.769 171-418 62.82-68.505 137.99-118.672 225.5-150.5 43.62-14.76 88.29-23.26 134-25.5Z"/><path style="opacity:1" fill="#398e3d" d="M2059.5 376.5c85.48 18.904 160.81 57.071 226 114.5 78.85 69.162 131.69 154.662 158.5 256.5 24.78 114.863 8.45 223.53-49 326a594.958 594.958 0 0 1-30.5 48c84.51 67.71 149.34 150.71 194.5 249 51.02 116.35 61.85 236.35 32.5 360-56.26-56.97-124.26-91.47-204-103.5-61.61-6.91-119.28 5.09-173 36-26.83 16.32-51.5 35.49-74 57.5-1.18-1.96-2.02-3.96-2.5-6 33.63-43.04 61.63-89.7 84-140 55.46-128.55 63.13-259.89 23-394-42.25-125.05-115.08-228.384-218.5-310 19.79-28.006 36.96-57.672 51.5-89 59.6-138.107 53.43-273.107-18.5-405Z"/><path style="opacity:1" fill="#56bb56" d="M2591.5 1730.5c34.83 34.54 61.83 74.54 81 120 38.16-12.2 76.83-14.2 116-6 45.74 84.13 46.57 168.8 2.5 254a298.755 298.755 0 0 1-21.5 34c38.19 31.34 70.03 68.01 95.5 110 54.38 95.27 61.38 193.94 21 296-13.36 31.73-30.52 61.07-51.5 88 68.42 88.98 79.26 184.65 32.5 287-40.14 77.16-101.98 128-185.5 152.5-32.2 7.98-64.7 9.48-97.5 4.5-1.68-.11-2.85-.77-3.5-2 19.8-65.54 50.97-124.88 93.5-178 13.4-14.91 27.23-28.57 41.5-41-90.96 41.96-158.96 107.63-204 197-10.07-4.2-19.73-9.2-29-15a39673.315 39673.315 0 0 1-55-318c-1.24-6.51-1.91-6.51-2 0-5.32 109.37-10.98 218.7-17 328a347.527 347.527 0 0 1-67 28c-28.49-27.56-59.83-51.23-94-71-1.17-1.92-2.83-2.75-5-2.5 1.21 1.38 2.54 2.54 4 3.5 22.77 24.22 42.1 50.89 58 80-108.41 19.31-206.74-4.02-295-70-34.81 28.24-74.14 47.74-118 58.5-29.52 6.15-59.19 6.98-89 2.5-1.23.02-2.23.35-3 1-26.33-51.34-35.17-105.67-26.5-163 8.87-55.68 31.04-105.18 66.5-148.5-25.67-30.9-44.34-65.74-56-104.5-16.95-58.24-17.29-116.58-1-175 7.04-25.42 16.88-49.76 29.5-73a650.135 650.135 0 0 1 32.5-50.5c-18.45-45.55-24.45-92.72-18-141.5 3.52-24.08 9.85-47.42 19-70 9.22-23.1 21.05-44.77 35.5-65 38.15-53.97 88.98-90.3 152.5-109 5.33-96.96 41-180.63 107-251 22.5-22.01 47.17-41.18 74-57.5 53.72-30.91 111.39-42.91 173-36 79.74 12.03 147.74 46.53 204 103.5Z"/><path style="opacity:1" fill="#44a448" d="M2788.5 1844.5c68.08 15.62 124.25 50.29 168.5 104 66.81 84.31 80.47 176.64 41 277-8.34 19.52-18.84 37.69-31.5 54.5 72.31 56.71 118.14 130.21 137.5 220.5 13.54 86.96-3.13 167.63-50 242-7.01 10.5-14.17 20.83-21.5 31 28.72 36.61 47.56 77.94 56.5 124 11.66 84-9.68 158.34-64 223-46.04 53.98-104.21 86.81-174.5 98.5-74.52 7.34-140.69-12.5-198.5-59.5-31.11 22.81-64.94 40.81-101.5 54 4.65-49.57 14.65-97.9 30-145 .65 1.23 1.82 1.89 3.5 2 32.8 4.98 65.3 3.48 97.5-4.5 83.52-24.5 145.36-75.34 185.5-152.5 46.76-102.35 35.92-198.02-32.5-287 20.98-26.93 38.14-56.27 51.5-88 40.38-102.06 33.38-200.73-21-296-25.47-41.99-57.31-78.66-95.5-110a298.755 298.755 0 0 0 21.5-34c44.07-85.2 43.24-169.87-2.5-254Z"/><path style="opacity:.999" fill="#704b2a" d="M1534.5 2407.5c5.46 35.09 11.46 70.09 18 105a555.977 555.977 0 0 1 32-77c52.66-107.18 127.33-196.01 224-266.5 12.21-8.84 24.54-16.67 37-23.5a302.082 302.082 0 0 0-19 70c-54.88 79.19-96.21 165.19-124 258a1037.262 1037.262 0 0 0-29.5 110c-8.9 44.43-16.4 89.1-22.5 134 .04.92.38 1.58 1 2a1655.687 1655.687 0 0 0-11.5 172c-.5 198.67-.67 397.33-.5 596a481.525 481.525 0 0 0-48.5 49c-14.89 19.76-27.22 41.1-37 64a174.39 174.39 0 0 1-12-22 840.777 840.777 0 0 0-30-74c-38.38-61.8-94.22-94.8-167.5-99 1.81-149.02.97-298.02-2.5-447-1.23-57.46-4.57-114.79-10-172a998.395 998.395 0 0 0-6.5-44c-16.51-90.23-48.18-174.56-95-253-29.01-51.48-64.01-98.64-105-141.5 61.74 34.09 117.74 76.26 168 126.5 45.75 44.94 80.58 97.28 104.5 157 4.17-68.64 8-137.31 11.5-206 9.33-189.03 19.17-378.03 29.5-567 32 183 63.84 366 95.5 549Z"/><path style="opacity:1" fill="#44a347" d="M1826.5 2215.5c-6.45 48.78-.45 95.95 18 141.5a650.135 650.135 0 0 0-32.5 50.5c-12.62 23.24-22.46 47.58-29.5 73-27.07.59-53.74-1.74-80-7 27.79-92.81 69.12-178.81 124-258Z"/><path style="opacity:.999" fill="#3a9239" d="M315.5 2290.5c1.493 15.89 3.327 31.89 5.5 48 7.353 47.89 22.186 93.22 44.5 136 40.628 78.81 98.628 141.97 174 189.5 105.722 64.51 219.055 82.51 340 54 68.123-18.8 128.62-50.97 181.5-96.5.75.63 1.58 1.13 2.5 1.5-1.3 1.62-1.3 3.12 0 4.5 5.11 77.5-16.23 146.67-64 207.5 59.86 78.33 67.36 161.49 22.5 249.5-27.106 46.61-64.606 81.95-112.5 106-34.339-16.52-70.339-26.19-108-29 7.105-14.21 14.272-28.54 21.5-43 19.729-36.82 44.895-68.82 75.5-96-68.236 30.9-120.902 78.9-158 144-12.091 2.92-23.758 7.26-35 13-15.784-91.65-31.618-183.32-47.5-275a32329.823 32329.823 0 0 0-14.5 278 870.289 870.289 0 0 1-36 16.5 167.04 167.04 0 0 1-21 6.5c-24.31-24.11-51.31-44.28-81-60.5 19.497 20.85 36.164 43.69 50 68.5-2.163.97-4.496 1.8-7 2.5-74.487 11.63-144.153-1.71-209-40-10.333-6.83-20.667-13.67-31-20.5-51.26 41.84-109.594 59.5-175 53-26.2-51.97-32.033-106.31-17.5-163 10.122-36.75 26.956-69.91 50.5-99.5-52.972-66.41-69.805-141.25-50.5-224.5 10.597-41.36 28.764-78.86 54.5-112.5-24.4-64.35-22.234-127.85 6.5-190.5 25.777-54.78 65.943-95.28 120.5-121.5a198.94 198.94 0 0 1 18-6.5Z"/><path style="opacity:1" fill="#398d3d" d="M1230.5 2489.5c46.82 78.44 78.49 162.77 95 253a617.912 617.912 0 0 1-104-30c-56.59-22.53-109.09-51.87-157.5-88-.48.95-.65 1.95-.5 3-1.3-1.38-1.3-2.88 0-4.5-.92-.37-1.75-.87-2.5-1.5-52.88 45.53-113.377 77.7-181.5 96.5-120.945 28.51-234.278 10.51-340-54-75.372-47.53-133.372-110.69-174-189.5a427.546 427.546 0 0 0 94 5.5c100.237-8.47 188.57-44.97 265-109.5a1104.26 1104.26 0 0 0 57 38.5c138.498 83.7 287.5 111.37 447 83 1.26-.42 1.92-1.25 2-2.5Z"/><path style="opacity:1" fill="#398d3c" d="M1534.5 2407.5a457.606 457.606 0 0 0 50 28 555.977 555.977 0 0 0-32 77c-6.54-34.91-12.54-69.91-18-105ZM1409.5 2425.5c-3.5 68.69-7.33 137.36-11.5 206-23.92-59.72-58.75-112.06-104.5-157 40.11-13.06 78.78-29.39 116-49Z"/><path style="opacity:1" fill="#398d3d" d="M1702.5 2473.5c26.26 5.26 52.93 7.59 80 7-16.29 58.42-15.95 116.76 1 175-41.58 26.12-85.58 47.45-132 64-.62-.42-.96-1.08-1-2 6.1-44.9 13.6-89.57 22.5-134 7.85-37.32 17.68-73.98 29.5-110Z"/><path style="opacity:1" fill="#317c31" d="M1221.5 2712.5c17.18 75.92 5.68 147.25-34.5 214a527.945 527.945 0 0 1-21.5 31.5c59.11 78.89 66.28 162.39 21.5 250.5-27.67 48.84-67.17 84.51-118.5 107-33.94-42.11-73.944-77.28-120-105.5a265.23 265.23 0 0 0-39-19.5c47.894-24.05 85.394-59.39 112.5-106 44.86-88.01 37.36-171.17-22.5-249.5 47.77-60.83 69.11-130 64-207.5-.15-1.05.02-2.05.5-3 48.41 36.13 100.91 65.47 157.5 88Z"/><path style="opacity:1" fill="#638842" d="M2427.5 2713.5h-2c.09-6.51.76-6.51 2 0Z"/><path style="opacity:.999" fill="#704b2a" d="M2425.5 2713.5h2c17.91 106.11 36.24 212.11 55 318 2.67 19.84 6.17 39.5 10.5 59 5.1-15.14 11.27-29.81 18.5-44 45.04-89.37 113.04-155.04 204-197-14.27 12.43-28.1 26.09-41.5 41-42.53 53.12-73.7 112.46-93.5 178-15.35 47.1-25.35 95.43-30 145a995.233 995.233 0 0 0-6.5 95c-.5 69-.67 138-.5 207v391h-178c.3-11.67.63-23.33 1-35 1.28-60.34 2.61-120.67 4-181-.01-1.87-.34-3.54-1-5 2.34-103.32 2.51-206.66.5-310-.64-32.03-1.97-64.03-4-96-1.1-17.82-3.27-35.49-6.5-53-9.12-52.55-27.45-101.55-55-147-15.9-29.11-35.23-55.78-58-80 0-.67.33-1 1-1 34.17 19.77 65.51 43.44 94 71 23.29 23.81 42.12 50.81 56.5 81a61.15 61.15 0 0 1 3.5 10c.28.79.78 1.46 1.5 2 .5-2.65.66-5.31.5-8 1.56-37.67 3.23-75.34 5-113 6.02-109.3 11.68-218.63 17-328Z"/><path style="opacity:1" fill="#704b2a" d="M705.5 3179.5c-26.522 14.85-47.855 35.19-64 61-.663-1.97-.996-4.14-1-6.5.95-17.18 1.95-34.34 3-51.5 4.434-92.69 9.268-185.35 14.5-278 15.882 91.68 31.716 183.35 47.5 275Z"/><path style="opacity:1" fill="#697339" d="M2247.5 2998.5c-.67 0-1 .33-1 1-1.46-.96-2.79-2.12-4-3.5 2.17-.25 3.83.58 5 2.5Z"/><path style="opacity:1" fill="#44a448" d="M2304.5 3079.5c27.55 45.45 45.88 94.45 55 147-40.75-8.08-79.08-22.58-115-43.5-13.14-8.3-26.14-16.8-39-25.5-90.52 72.08-187.85 82.58-292 31.5-50.06-27.56-88.06-66.73-114-117.5.77-.65 1.77-.98 3-1 29.81 4.48 59.48 3.65 89-2.5 43.86-10.76 83.19-30.26 118-58.5 88.26 65.98 186.59 89.31 295 70Z"/><path style="opacity:1" fill="#704b2a" d="M801.5 3161.5c-11.671-.17-23.338 0-35 .5-8.859.53-17.526 2.03-26 4.5 37.098-65.1 89.764-113.1 158-144-30.605 27.18-55.771 59.18-75.5 96-7.228 14.46-14.395 28.79-21.5 43Z"/><path style="opacity:1" fill="#45a247" d="M2482.5 3031.5c9.27 5.8 18.93 10.8 29 15a326.128 326.128 0 0 0-18.5 44c-4.33-19.5-7.83-39.16-10.5-59Z"/><path style="opacity:1" fill="#44a347" d="M2408.5 3041.5c-1.77 37.66-3.44 75.33-5 113-.67 2-1.33 4-2 6a61.15 61.15 0 0 0-3.5-10c-14.38-30.19-33.21-57.19-56.5-81 23.3-6.99 45.63-16.32 67-28Z"/><path style="opacity:1" fill="#704b2a" d="M586.5 3205.5c16.693 16.69 30.693 35.35 42 56a381.394 381.394 0 0 0-26 68c-9.516-37.41-23.349-73.41-41.5-108a49.056 49.056 0 0 0-5.5-8c-13.836-24.81-30.503-47.65-50-68.5 29.69 16.22 56.69 36.39 81 60.5Z"/><path style="opacity:1" fill="#317c31" d="M555.5 3213.5a49.056 49.056 0 0 1 5.5 8c18.151 34.59 31.984 70.59 41.5 108a37.448 37.448 0 0 0-3 8c-46.106-10.72-88.106-30.06-126-58-73.492 58.81-153.159 68.64-239 29.5-44.162-22.99-77.828-56.49-101-100.5 65.406 6.5 123.74-11.16 175-53 10.333 6.83 20.667 13.67 31 20.5 64.847 38.29 134.513 51.63 209 40 2.504-.7 4.837-1.53 7-2.5Z"/><path style="opacity:1" fill="#616a34" d="M2403.5 3154.5c.16 2.69 0 5.35-.5 8-.72-.54-1.22-1.21-1.5-2 .67-2 1.33-4 2-6Z"/><path style="opacity:.998" fill="#44a347" d="M801.5 3161.5c37.661 2.81 73.661 12.48 108 29a265.23 265.23 0 0 1 39 19.5c46.056 28.22 86.06 63.39 120 105.5 53.74 68.55 83.91 146.55 90.5 234 19.21-63.21 59.38-107.38 120.5-132.5 20.95-7.89 42.62-11.72 65-11.5 73.28 4.2 129.12 37.2 167.5 99a840.777 840.777 0 0 1 30 74 174.39 174.39 0 0 0 12 22c9.78-22.9 22.11-44.24 37-64a481.525 481.525 0 0 1 48.5-49c90.51-65.89 187.51-77.06 291-33.5 107.11 52.64 167.61 138.48 181.5 257.5 5.56 68.69-7.27 133.69-38.5 195h-50c-24.92-59.43-62.92-108.93-114-148.5-72.34-54.55-154.01-80.22-245-77-29.27 2.76-56.27 12.09-81 28-23.9 16.22-45.73 35.05-65.5 56.5-9.67 11-19.33 22-29 33-24.53-49.2-59.7-89.03-105.5-119.5-84.13-48.04-162.13-40.04-234 24a991.07 991.07 0 0 1-80 70c-7.53 5.03-15.2 9.86-23 14.5-7.35-56.91-27.19-108.91-59.5-156-51.46-68.81-119.96-98.31-205.5-88.5-38.654 9.4-71.154 28.9-97.5 58.5-26.752 31.8-48.752 66.8-66 105a3132.251 3132.251 0 0 0-25 58c-20.081-26.09-43.914-47.92-71.5-65.5-46.975-24.54-87.142-16.37-120.5 24.5-16.671 23.33-26.671 49.33-30 78a856.924 856.924 0 0 0-5 52c-57.939-35.44-120.439-47.61-187.5-36.5-13.733 3.4-22.567 11.9-26.5 25.5a89.973 89.973 0 0 0-1 25 235.084 235.084 0 0 0 8.5 39h-114c-19.26-35.61-33.093-73.27-41.5-113a438.693 438.693 0 0 1-4.5-35v-17c4.957-72.72 43.29-115.88 115-129.5 45.525-5.16 85.859 6.84 121 36 18.828 15.82 34.328 34.32 46.5 55.5 1.4-35.21 6.4-69.87 15-104 8.85-35.24 27.35-64.08 55.5-86.5 30.739-19.79 64.072-25.79 100-18 38.61 8.64 67.443 30.14 86.5 64.5 19.863-74.12 40.03-148.12 60.5-222a37.448 37.448 0 0 1 3-8 381.394 381.394 0 0 1 26-68 346.714 346.714 0 0 1 13-21c16.145-25.81 37.478-46.15 64-61 11.242-5.74 22.909-10.08 35-13a117.748 117.748 0 0 1 26-4.5c11.662-.5 23.329-.67 35-.5Z"/><path style="opacity:1" fill="#317b31" d="M643.5 3182.5c-1.05 17.16-2.05 34.32-3 51.5.004 2.36.337 4.53 1 6.5a346.714 346.714 0 0 0-13 21c-11.307-20.65-25.307-39.31-42-56a167.04 167.04 0 0 0 21-6.5 870.289 870.289 0 0 0 36-16.5Z"/><path style="opacity:.996" fill="#43a347" d="M3353.5 3795.5v39c-3.07 25.21-10.4 49.21-22 72h-28c-28.65-63.8-76.98-104.3-145-121.5-26.39-7.15-52.73-7.15-79 0-20.97 8.4-39.13 20.9-54.5 37.5a649.356 649.356 0 0 0-20.5 23c-14.57-27.74-34.91-50.24-61-67.5-47.08-25.17-90.41-20.17-130 15a788.468 788.468 0 0 1-35 32 235.104 235.104 0 0 1-21.5 14.5c-4.99-38.29-19.99-71.96-45-101-30.2-30.18-66.36-41.68-108.5-34.5-24.47 8.39-44.47 22.89-60 43.5v-232c18.95-17.99 41.61-26.99 68-27 40.28 2.48 76.61 15.65 109 39.5 58.95 44.37 92.12 103.54 99.5 177.5 16.42-49.24 50.59-75.91 102.5-80 46.87 2.51 80.37 24.84 100.5 67a205.767 205.767 0 0 0 18 42c21.55-48.87 58.39-79.7 110.5-92.5 67.81-10.73 123.31 10.43 166.5 63.5 19.91 26.82 31.74 56.82 35.5 90Z"/><path style="opacity:1" fill="#398e3d" d="M2023.5 3906.5h-1864a235.084 235.084 0 0 1-8.5-39 89.973 89.973 0 0 1 1-25c3.933-13.6 12.767-22.1 26.5-25.5 67.061-11.11 129.561 1.06 187.5 36.5a856.924 856.924 0 0 1 5-52c3.329-28.67 13.329-54.67 30-78 33.358-40.87 73.525-49.04 120.5-24.5 27.586 17.58 51.419 39.41 71.5 65.5a3132.251 3132.251 0 0 1 25-58c17.248-38.2 39.248-73.2 66-105 26.346-29.6 58.846-49.1 97.5-58.5 85.54-9.81 154.04 19.69 205.5 88.5 32.31 47.09 52.15 99.09 59.5 156 7.8-4.64 15.47-9.47 23-14.5a991.07 991.07 0 0 0 80-70c71.87-64.04 149.87-72.04 234-24 45.8 30.47 80.97 70.3 105.5 119.5 9.67-11 19.33-22 29-33 19.77-21.45 41.6-40.28 65.5-56.5 24.73-15.91 51.73-25.24 81-28 90.99-3.22 172.66 22.45 245 77 51.08 39.57 89.08 89.07 114 148.5Z"/><path style="opacity:.992" fill="#44a347" d="M2369.5 3685.5c.66 1.46.99 3.13 1 5-1.39 60.33-2.72 120.66-4 181-29.86-15.53-61.53-20.7-95-15.5-6.5 1.82-11.34 5.66-14.5 11.5-2.6 13.34-1.44 26.34 3.5 39h-64c-17.09-29.38-25.59-61.05-25.5-95 1.95-30.08 16.45-51.58 43.5-64.5 37.8-12.84 70.64-5.01 98.5 23.5a115.96 115.96 0 0 1 15 21c1.43-23.56 5.76-46.56 13-69 5.95-15.11 15.45-27.45 28.5-37Z"/><path style="opacity:1" fill="#398e3d" d="M3303.5 3906.5h-760v-159c15.53-20.61 35.53-35.11 60-43.5 42.14-7.18 78.3 4.32 108.5 34.5 25.01 29.04 40.01 62.71 45 101 7.44-4.44 14.61-9.28 21.5-14.5a788.468 788.468 0 0 0 35-32c39.59-35.17 82.92-40.17 130-15 26.09 17.26 46.43 39.76 61 67.5 6.62-7.79 13.45-15.46 20.5-23 15.37-16.6 33.53-29.1 54.5-37.5 26.27-7.15 52.61-7.15 79 0 68.02 17.2 116.35 57.7 145 121.5ZM2366.5 3871.5c-.37 11.67-.7 23.33-1 35h-105c-4.94-12.66-6.1-25.66-3.5-39 3.16-5.84 8-9.68 14.5-11.5 33.47-5.2 65.14-.03 95 15.5Z"/></svg>