<svg width="183" height="141" fill="none" xmlns="http://www.w3.org/2000/svg"><path d="m29.115 102.006 1.944 32.925H25.23V103.94l3.885-1.934Z" fill="#6B3425"/><path d="M13.572 55.517s-7.772-5.81-13.6 0c-5.828 5.81-1.944 13.56-1.944 13.56s-9.712 3.872-7.772 15.497c1.944 11.62 9.712 7.748 9.712 7.748s-5.828 13.56 9.713 19.37c15.543 5.811 21.371-3.872 21.371-3.872s9.712 9.683 17.484 0c7.772-9.683 5.828-19.37 5.828-19.37s7.772-3.873 3.884-17.432c-3.884-13.559-11.656-9.683-11.656-9.683s0-13.559-11.656-15.497c-11.648-1.942-21.364 9.68-21.364 9.68Z" fill="#7FA024"/><path d="M32.033 65.203a2.911 2.911 0 0 0 2.916-2.907 2.911 2.911 0 0 0-2.916-2.907 2.911 2.911 0 0 0-2.916 2.907 2.911 2.911 0 0 0 2.916 2.907ZM45.627 80.7a2.911 2.911 0 0 0 2.915-2.906 2.911 2.911 0 0 0-2.915-2.907 2.912 2.912 0 0 0-2.916 2.907 2.912 2.912 0 0 0 2.916 2.907ZM38.83 100.065a3.878 3.878 0 0 0 3.884-3.872 3.878 3.878 0 0 0-3.885-3.873 3.878 3.878 0 0 0-3.884 3.873 3.878 3.878 0 0 0 3.884 3.872ZM13.572 96.192a3.878 3.878 0 0 0 3.884-3.872 3.878 3.878 0 0 0-3.884-3.873 3.878 3.878 0 0 0-3.884 3.873 3.878 3.878 0 0 0 3.884 3.872ZM10.662 71.015a2.911 2.911 0 0 0 2.916-2.907 2.911 2.911 0 0 0-2.916-2.907 2.911 2.911 0 0 0-2.916 2.907 2.911 2.911 0 0 0 2.916 2.907Z" fill="#61C10C"/><path d="m98.189 113.559 1.54 26.088H93.57v-26.088h4.619Z" fill="#6B3425"/><path d="M85.11 77.497s3.077-10.742 13.851-9.206c10.774 1.536 13.852 15.346 13.852 15.346s7.696-1.536 9.233 7.674c1.541 9.205-6.155 12.278-6.155 12.278s6.155 7.673-1.541 13.81c-7.696 6.137-16.93 1.536-16.93 1.536s-9.233 9.206-18.47 1.536c-9.233-7.673-6.155-12.278-6.155-12.278s-9.234-4.604-7.697-12.278c1.541-7.673 7.697-7.673 7.697-7.673s-6.156-6.137 0-10.742c6.155-4.604 12.314-.003 12.314-.003Z" fill="#59843D"/><path d="M98.961 85.937a3.843 3.843 0 0 0 3.849-3.837 3.843 3.843 0 0 0-3.849-3.836 3.842 3.842 0 0 0-3.848 3.836 3.842 3.842 0 0 0 3.848 3.837ZM112.813 98.214a3.843 3.843 0 0 0 3.848-3.836 3.842 3.842 0 0 0-3.848-3.837 3.842 3.842 0 0 0-3.848 3.837 3.843 3.843 0 0 0 3.848 3.836ZM105.89 110.489c1.7 0 3.078-1.374 3.078-3.069a3.073 3.073 0 0 0-3.078-3.068 3.073 3.073 0 0 0-3.078 3.068 3.073 3.073 0 0 0 3.078 3.069ZM95.118 101.284a4.612 4.612 0 0 0 4.619-4.605 4.612 4.612 0 0 0-4.618-4.605A4.612 4.612 0 0 0 90.5 96.68a4.612 4.612 0 0 0 4.618 4.605ZM82.8 90.54c1.7 0 3.078-1.374 3.078-3.07a3.073 3.073 0 0 0-3.078-3.068 3.073 3.073 0 0 0-3.077 3.069A3.073 3.073 0 0 0 82.8 90.54ZM76.644 102.815c1.7 0 3.078-1.374 3.078-3.069a3.073 3.073 0 0 0-3.078-3.068 3.073 3.073 0 0 0-3.078 3.068 3.073 3.073 0 0 0 3.078 3.069ZM86.649 113.556a3.843 3.843 0 0 0 3.848-3.837 3.842 3.842 0 0 0-3.848-3.836 3.842 3.842 0 0 0-3.848 3.836 3.843 3.843 0 0 0 3.848 3.837Z" fill="#8CCE4D"/><path d="m161.2 134.938-8.567.083.058 5.98 8.568-.084-.059-5.979Z" fill="#6B3425"/><path d="m169.386 121.34 10.878-.108-3.355-16.477-7.718-3.431 7.006-.068-.864-4.246-12.391-1.026 11.577-2.958-1.721-8.452-10.003-3.707s5.432-.434 9.103-.718l-5.223-25.65-8.124-.772 7.739-1.12L155.577 0l-5.716 31.177 3.726-.035-4.23 2.788-1.811 9.888 6.93-.068-7.319 2.189-.633 3.453 3.877-.04-4.183 1.701-3.809 20.78 9.612 2.362-10.54 2.706-3.067 16.721 9.971-.097-10.922 5.276-3.167 17.285c5.266.882 12.955 2.124 12.955 2.124l-13.798 2.473-2.66 14.507 52.207-.51-1.638-8.05-11.976-5.29Z" fill="#7EA21A"/></svg>