<svg width="57" height="71" fill="none" xmlns="http://www.w3.org/2000/svg"><path d="M33.077 45.096 34.609 71h-6.125V45.096h4.593Z" fill="#6B3425"/><path d="M20.07 9.29S23.13-1.376 33.842.15c10.713 1.525 13.773 15.238 13.773 15.238s7.653-1.525 9.181 7.62c1.532 9.14-6.12 12.19-6.12 12.19s6.12 7.62-1.532 13.714c-7.653 6.094-16.834 1.525-16.834 1.525s-9.181 9.141-18.366 1.526c-9.181-7.62-6.12-12.192-6.12-12.192S-1.358 35.199.171 27.579c1.532-7.619 7.652-7.619 7.652-7.619s-6.12-6.094 0-10.666C13.945 4.722 20.07 9.29 20.07 9.29Z" fill="#59843D"/><path d="M33.842 17.668a3.818 3.818 0 0 0 3.826-3.81 3.818 3.818 0 0 0-3.826-3.81 3.818 3.818 0 0 0-3.826 3.81 3.818 3.818 0 0 0 3.826 3.81ZM47.62 29.86a3.818 3.818 0 0 0 3.826-3.81 3.818 3.818 0 0 0-3.827-3.81 3.818 3.818 0 0 0-3.826 3.81 3.818 3.818 0 0 0 3.826 3.81ZM40.728 42.047c1.69 0 3.06-1.364 3.06-3.047a3.054 3.054 0 0 0-3.06-3.047A3.054 3.054 0 0 0 37.668 39a3.054 3.054 0 0 0 3.06 3.047ZM30.018 32.908c2.536 0 4.593-2.047 4.593-4.572s-2.057-4.572-4.593-4.572-4.592 2.047-4.592 4.572 2.056 4.572 4.592 4.572ZM17.771 22.242c1.69 0 3.06-1.364 3.06-3.047a3.054 3.054 0 0 0-3.06-3.047 3.054 3.054 0 0 0-3.06 3.047 3.054 3.054 0 0 0 3.06 3.047ZM11.654 34.428c1.69 0 3.06-1.364 3.06-3.047a3.054 3.054 0 0 0-3.06-3.047 3.054 3.054 0 0 0-3.06 3.047 3.054 3.054 0 0 0 3.06 3.047ZM21.596 45.096a3.818 3.818 0 0 0 3.826-3.81 3.818 3.818 0 0 0-3.826-3.81 3.818 3.818 0 0 0-3.826 3.81 3.818 3.818 0 0 0 3.826 3.81Z" fill="#8CCE4D"/></svg>