<svg version="1.0" id="katman_1" xmlns="http://www.w3.org/2000/svg" x="0" y="0" viewBox="0 0 600 450" style="enable-background:new 0 0 600 450" xml:space="preserve"><g id="Page-1-Copy"><g id="current-green" transform="translate(-1368 -542)"><path id="mapquest-icon-green" d="m1714.5 628.7 91 91.8c25.5 25.8 25.5 67.9 0 93.7l-91 91.8c-25.5 25.8-67.3 25.8-92.8 0l-91-91.8c-25.5-25.8-25.5-67.9 0-93.7l91-91.8c25.5-25.8 67.3-25.8 92.8 0zm-27 70c-8.2 0-14.8 6.7-14.8 15 0 2.8 6.9 16.1 7.1 16.3h-33.4c-25.2 0-45.8 20.7-45.8 46.2v46.6c0 7.3 5.9 13.2 13.1 13.2 7.2 0 13.1-5.9 13.1-13.2v-46.6c0-10.9 8.8-19.8 19.6-19.8h33.1c-.8 1.3-6.5 13.3-6.5 15.6 0 8.3 6.6 15 14.8 15 3.1 0 5.9-1 8.3-2.6.5-.3 38.1-28.7 38.1-28.7 4.3-2.7 7-7.6 7-12.9 0-5.2-2.6-10.1-7-12.9 0 0-37.8-28.6-38.5-28.9-2.3-1.4-5.1-2.3-8.2-2.3z" style="fill-rule:evenodd;clip-rule:evenodd;fill:#a5c616"/></g></g></svg>