<svg width="603" height="157" fill="none" xmlns="http://www.w3.org/2000/svg"><path d="M486.002 136.816h-71.193v19.259h71.193v-19.259Z" fill="#fff"/><path d="M487 138.255h-72.211v-24.659h58.074L487 125.705v12.55Z" fill="#72645D"/><path d="M454.268 156.075h-39.459v-25.443l19.732-16.025 19.727 16.025v25.443Z" fill="#fff"/><path d="M460.209 100.824h-5.943v13.783h5.943v-13.783Z" fill="#5E5D5C"/><path d="M462.455 111.916h-10.201v4.485h10.201v-4.485Z" fill="#E7D0B0"/><path d="M433.528 125.926h-2.356v5.83h2.356v-5.83ZM437.23 125.926h-2.691v5.83h2.691v-5.83ZM424.675 140.498h-3.253v1.118h3.253v-1.118ZM428.374 140.498h-2.69v1.118h2.69v-1.118ZM424.675 142.398h-3.253v7.176h3.253v-7.176ZM428.374 142.398h-2.69v7.176h2.69v-7.176ZM461.666 141.617h-3.588v2.577h3.588v-2.577ZM461.666 145.988h-3.588v2.356h3.588v-2.356ZM461.666 149.576h-3.588v2.356h3.588v-2.356ZM467.049 141.617h-3.588v2.577h3.588v-2.577ZM467.049 145.988h-3.588v2.356h3.588v-2.356ZM467.049 149.576h-3.588v2.356h3.588v-2.356ZM472.428 141.617h-3.588v2.577h3.588v-2.577ZM472.428 145.988h-3.588v2.356h3.588v-2.356ZM472.428 149.576h-3.588v2.356h3.588v-2.356ZM477.807 141.617h-3.588v2.577h3.588v-2.577ZM477.807 145.988h-3.588v2.356h3.588v-2.356ZM477.807 149.576h-3.588v2.356h3.588v-2.356ZM483.189 141.617h-3.587v2.577h3.587v-2.577ZM483.189 145.988h-3.587v2.356h3.587v-2.356ZM483.189 149.576h-3.587v2.356h3.587v-2.356ZM443.511 140.498h-3.253v1.118h3.253v-1.118ZM447.206 140.498h-2.69v1.118h2.69v-1.118ZM443.511 142.398h-3.253v7.176h3.253v-7.176ZM447.206 142.398h-2.69v7.176h2.69v-7.176Z" fill="#417A8C"/><path d="M400.646 106.748h-2.287v8.388h2.287v-8.388Z" fill="#6B3425"/><path d="M447.862 135.899h-58.889v-20.763l29.447-7.036 29.442 7.036v20.763Z" fill="#8A9995"/><path d="M449.736 135.898h-62.881v20.175h62.881v-20.175Z" fill="#776B67"/><path d="M399.999 121.352h-3.284v8.091h3.284v-8.091ZM404.984 121.352h-4.339v8.091h4.339v-8.091ZM418.3 121.352h-3.284v8.091h3.284v-8.091ZM423.285 121.352h-4.34v8.091h4.34v-8.091ZM435.191 121.352h-3.285v8.091h3.285v-8.091ZM440.179 121.352h-4.339v8.091h4.339v-8.091ZM399.999 138.248h-3.284v8.091h3.284v-8.091ZM404.984 138.248h-4.339v8.091h4.339v-8.091ZM418.3 138.248h-3.284v8.091h3.284v-8.091ZM423.285 138.248h-4.34v8.091h4.34v-8.091ZM435.191 138.248h-3.285v8.091h3.285v-8.091ZM440.179 138.248h-4.339v8.091h4.339v-8.091Z" fill="#417A8C"/><path d="m448.41 115.586-30.086-7.409-30.193 7.302-.057-.215 30.25-7.315.025.007 30.111 7.415-.05.215Z" fill="#6B3425"/><path d="M395.261 120.523H263.84v35.55h131.421v-35.55Z" fill="#fff"/><path d="M397.094 123.177H263.797V77.666h107.204l26.093 22.342v23.169Z" fill="#818986"/><path d="M336.676 156.073H263.84V109.11l36.415-29.587 36.421 29.587v46.963ZM347.641 54.08h-10.965v25.45h10.965V54.08Z" fill="#fff"/><path d="M351.779 74.559h-18.83v8.274h18.83V74.56ZM298.393 100.418h-4.346v10.757h4.346v-10.757ZM305.223 100.418h-4.965v10.757h4.965v-10.757ZM282.044 127.314h-6.001v2.072h6.001v-2.072ZM288.871 127.314h-4.965v2.072h4.965v-2.072ZM282.044 130.832h-6.001v13.239h6.001v-13.239ZM288.871 130.832h-4.965v13.239h4.965v-13.239ZM350.331 129.389h-6.62v4.756h6.62v-4.756ZM350.331 137.455h-6.62v4.346h6.62v-4.346ZM350.331 144.08h-6.62v4.346h6.62v-4.346ZM360.264 129.389h-6.619v4.756h6.619v-4.756ZM360.264 137.455h-6.619v4.346h6.619v-4.346ZM360.264 144.08h-6.619v4.346h6.619v-4.346ZM370.194 129.389h-6.62v4.756h6.62v-4.756ZM370.194 137.455h-6.62v4.346h6.62v-4.346ZM370.194 144.08h-6.62v4.346h6.62v-4.346ZM380.128 129.389h-6.62v4.756h6.62v-4.756ZM380.128 137.455h-6.62v4.346h6.62v-4.346ZM380.128 144.08h-6.62v4.346h6.62v-4.346ZM390.057 129.389h-6.619v4.756h6.619v-4.756ZM390.057 137.455h-6.619v4.346h6.619v-4.346ZM390.057 144.08h-6.619v4.346h6.619v-4.346ZM316.809 127.314h-6v2.072h6v-2.072ZM323.637 127.314h-4.965v2.072h4.965v-2.072ZM316.809 130.832h-6v13.239h6v-13.239ZM323.637 130.832h-4.965v13.239h4.965v-13.239Z" fill="#417A8C"/><path d="M220.754 51.91h-4.832v17.712h4.832V51.91Z" fill="#6B3425"/><path d="M320.482 113.47H196.109V69.62l62.187-14.862 62.186 14.863v43.849Z" fill="#EAE7E4"/><path d="M324.447 113.471H191.648v42.605h132.799v-42.605Z" fill="#686665"/><path d="M219.393 82.754h-6.936v17.092h6.936V82.754ZM229.923 82.754h-9.165v17.092h9.165V82.754ZM258.041 82.756h-6.936v17.092h6.936V82.756ZM268.572 82.756h-9.166v17.092h9.166V82.756ZM293.713 82.756h-6.936v17.092h6.936V82.756ZM304.243 82.756h-9.165v17.092h9.165V82.756Z" fill="#AFD1D3"/><path d="M219.393 118.424h-6.936v17.092h6.936v-17.092ZM229.923 118.424h-9.165v17.092h9.165v-17.092ZM258.041 118.424h-6.936v17.092h6.936v-17.092ZM268.572 118.424h-9.166v17.092h9.166v-17.092ZM293.717 118.424h-6.936v17.092h6.936v-17.092ZM304.247 118.424h-9.165v17.092h9.165v-17.092Z" fill="#417A8C"/><path d="m321.629 70.57-63.538-15.653-63.765 15.419-.107-.449 63.872-15.444.057.013 63.589 15.665-.108.449Z" fill="#6B3425"/><path d="M204.965 105.74H0V36.094h164.836l40.129 34.191v35.455Z" fill="#A09795"/><path d="M112.061 156.075H.062V84.212l55.997-45.27 56.002 45.27v71.863ZM128.928 0h-16.866v38.941h16.866V0Z" fill="#AFABAA"/><path d="M135.287 31.342h-28.955v12.664h28.955V31.342Z" fill="#E0DDDA"/><path d="M53.199 70.916h-6.683v16.46h6.683v-16.46ZM63.695 70.916H56.06v16.46h7.636v-16.46Z" fill="#417A8C"/><path d="M28.064 112.072h-9.228v3.165h9.228v-3.165ZM38.563 112.072h-7.637v3.165h7.637v-3.165ZM28.064 117.453h-9.228v20.264h9.228v-20.264ZM38.563 117.455h-7.637v20.263h7.637v-20.263Z" fill="#6F99A3"/><path d="M133.057 115.238h-10.182v7.283h10.182v-7.283ZM133.057 127.582h-10.182v6.651h10.182v-6.651ZM133.057 137.713h-10.182v6.651h10.182v-6.651ZM148.335 115.238h-10.183v7.283h10.183v-7.283ZM148.335 127.582h-10.183v6.651h10.183v-6.651ZM148.335 137.713h-10.183v6.651h10.183v-6.651ZM163.604 115.238h-10.182v7.283h10.182v-7.283ZM163.604 127.582h-10.182v6.651h10.182v-6.651ZM163.604 137.713h-10.182v6.651h10.182v-6.651ZM178.874 115.238h-10.183v7.283h10.183v-7.283ZM178.874 127.582h-10.183v6.651h10.183v-6.651ZM178.874 137.713h-10.183v6.651h10.183v-6.651ZM194.143 115.238h-10.182v7.283h10.182v-7.283ZM194.143 127.582h-10.182v6.651h10.182v-6.651ZM194.143 137.713h-10.182v6.651h10.182v-6.651Z" fill="#417A8C"/><path d="M81.517 112.074H72.29v3.165h9.228v-3.165ZM92.016 112.074h-7.637v3.165h7.637v-3.165ZM81.517 117.455H72.29v20.263h9.228v-20.263ZM92.016 117.455h-7.637v20.263h7.637v-20.263Z" fill="#6F99A3"/><path d="M581.226 17.041c12.027 0 21.773 9.746 21.773 21.773V156.08h-43.546V38.814c0-12.027 9.747-21.773 21.773-21.773Z" fill="#8A9995"/><path d="M602.999 38.809h-43.546v2.81h43.546v-2.81ZM602.999 54.258h-43.546v2.81h43.546v-2.81ZM602.999 69.701h-43.546v2.811h43.546v-2.81ZM602.999 85.152h-43.546v2.811h43.546v-2.81ZM602.999 100.602h-43.546v2.81h43.546v-2.81ZM602.999 116.053h-43.546v2.811h43.546v-2.811ZM602.999 131.496h-43.546v2.811h43.546v-2.811Z" fill="#72645D"/><path d="M481.598 119.439v36.636h45.586V75.647l-30.389 16.978-8.944 21.451-6.253 5.363Z" fill="#EFE6E4"/><path d="m478.59 122.805-1.137-1.383 9.658-7.896L496.087 92l30.654-17.13.878 1.56-30.124 16.827-8.9 21.368-10.005 8.18Z" fill="#3D3B38"/><path d="M517.354 104.24h-9.834v8.938h9.834v-8.938ZM506.624 128.369h-18.772v15.191h18.772v-15.191ZM527.184 129.266h-16.985v1.787h16.985v-1.787Z" fill="#fff"/><path d="M527.182 130.156h-15.198v25.917h15.198v-25.917Z" fill="#fff"/><path d="M525.396 131.055h-11.623v23.232h11.623v-23.232Z" fill="#897F7D"/><path d="m526.286 153.395-10.946-23.239h-1.567l12.513 25.026v-1.787Z" fill="#fff"/><path d="m525.396 130.156-12.513 25.026h1.787l11.989-25.026h-1.263Z" fill="#fff"/><path d="M496.791 130.156h-7.15v11.616h7.15v-11.616Z" fill="#897F7D"/><path d="M494.112 129.266h-1.788v13.403h1.788v-13.403Z" fill="#fff"/><path d="M497.686 132.842h-9.834v1.787h9.834v-1.787ZM497.686 137.307h-9.834v1.787h9.834v-1.787Z" fill="#fff"/><path d="M515.568 106.029h-6.259v5.363h6.259v-5.363Z" fill="#897F7D"/><path d="M512.881 105.139h-.897v7.15h.897v-7.15Z" fill="#fff"/><path d="M516.457 107.816h-8.937v.891h8.937v-.891Z" fill="#fff"/><path d="M505.732 130.156h-7.15v11.616h7.15v-11.616Z" fill="#897F7D"/><path d="M503.045 129.266h-1.787v13.403h1.787v-13.403Z" fill="#fff"/><path d="M506.628 132.842h-9.835v1.787h9.835v-1.787ZM506.628 137.307h-9.835v1.787h9.835v-1.787Z" fill="#fff"/><path d="M571.74 119.439v36.636h-45.58V75.647l30.389 16.978 8.938 21.451 6.253 5.363Z" fill="#EFE6E4"/><path d="m574.751 122.805 1.131-1.383-9.658-7.896L557.248 92l-30.654-17.13-.871 1.56 30.117 16.827 8.906 21.368 10.005 8.18Z" fill="#3D3B38"/><path d="M535.985 113.184h9.835v-8.938h-9.835v8.938ZM545.817 143.566h18.773v-15.191h-18.773v15.191ZM526.152 131.051h16.985v-1.788h-16.985v1.788Z" fill="#fff"/><path d="M526.154 156.078h15.198v-25.917h-15.198v25.917Z" fill="#fff"/><path d="M527.94 154.287h11.622l.001-23.232H527.94v23.232Z" fill="#897F7D"/><path d="m527.051 153.395 10.953-23.239h1.56l-12.513 25.026v-1.787Z" fill="#fff"/><path d="m527.945 130.156 12.513 25.026h-1.787l-11.995-25.026h1.269Z" fill="#fff"/><path d="M555.654 141.779h7.151v-11.616h-7.151v11.616Z" fill="#897F7D"/><path d="M558.33 142.67h1.787v-13.404h-1.787v13.404Z" fill="#fff"/><path d="M554.755 134.625h9.835v-1.788h-9.835v1.788ZM554.755 139.096h9.835v-1.788h-9.835v1.788Z" fill="#fff"/><path d="M537.775 111.395h6.26v-5.363h-6.26v5.363Z" fill="#897F7D"/><path d="M540.455 112.285h.897v-7.15h-.897v7.15Z" fill="#fff"/><path d="M536.882 108.713h8.938v-.891h-8.938v.891Z" fill="#fff"/><path d="M546.717 141.779h7.15v-11.616h-7.15v11.616Z" fill="#897F7D"/><path d="M549.392 142.67h1.788v-13.404h-1.788v13.404Z" fill="#fff"/><path d="M545.818 134.625h9.834v-1.788h-9.834v1.788ZM545.818 139.096h9.834v-1.788h-9.834v1.788Z" fill="#fff"/></svg>