<svg width="375" height="308" viewBox="0 0 375 308" fill="none" xmlns="http://www.w3.org/2000/svg">
<path d="M169.758 54.3854C187.92 57.8203 222.139 -12.2948 260.013 3.1756C297.886 18.646 270.052 68.4923 283.562 79.6625C297.071 90.8327 334.077 56.4568 349.636 92.5633C365.195 128.67 341.541 167.346 341.199 173.35C340.857 179.355 383.856 211.633 371.923 256.078C359.991 300.523 201.534 304.823 144.974 306.527C88.4141 308.232 12.7993 308.101 1.65551 261.768C-9.48827 215.435 41.1318 175.081 45.8101 162.128C50.4884 149.175 8.14729 104.101 61.2379 48.6954C102.317 5.82393 151.597 50.9504 169.758 54.3854Z" fill="#9ECBDD"/>
<path d="M52.8799 188.534C52.8274 188.848 52.8799 189.163 53.1165 189.556C54.2992 187.747 55.4819 185.938 56.6909 184.155C60.0551 179.068 63.4455 174.007 66.7045 168.894C67.2039 168.134 67.1776 167.006 67.2565 166.01C67.2827 165.8 66.7571 165.538 66.4154 165.223C66.4154 164.935 66.4154 164.541 66.4154 164.043C66.7571 163.938 67.0988 163.86 67.493 163.755C67.493 162.601 67.493 161.5 67.493 160.267C67.2302 160.189 66.9148 160.11 66.5468 160.005C66.652 159.926 66.7045 159.795 66.7834 159.795C67.6244 159.769 68.4392 159.717 69.2539 159.795C70.3315 159.926 70.8572 159.428 71.304 158.51C74.3265 152.349 76.0348 145.793 77.4804 139.133C77.6906 138.215 78.1637 137.245 77.165 136.485C76.8496 136.249 76.5079 136.039 76.0874 135.751C76.0874 135.436 76.0874 135.016 76.0874 134.623C76.0874 134.256 76.0874 133.889 76.0874 133.443C76.7444 133.417 77.2964 133.364 77.7432 133.338C79.8983 130.48 79.6355 127.071 80.1875 123.872C80.7657 120.569 81.1073 117.238 81.4753 113.935C83.3414 96.5238 83.1311 79.0344 83.1048 61.5711C83.1048 61.2303 82.7631 60.8894 82.5529 60.5747C82.4477 60.365 82.2375 60.1814 82.2112 59.9717C82.1586 59.421 82.1849 58.8441 82.1849 58.2935C82.1849 58.0051 82.2112 57.7166 82.2375 57.3233C82.9471 57.2709 83.6305 57.2184 84.3138 57.166C82.3426 56.222 83.2362 54.4914 83.0522 53.1017C83.3939 52.9706 83.7356 52.9182 83.9721 52.7084C84.6292 52.184 85.3125 51.6333 85.8908 51.004C86.1536 50.7156 86.3376 50.2699 86.3638 49.8765C86.3901 46.3367 86.3901 42.8231 86.3901 39.2832C86.3901 38.8899 86.3901 38.4704 86.3901 38.0771C86.5478 38.0508 86.6792 38.0246 86.8369 37.9722C86.9158 38.313 87.0735 38.6277 87.0735 38.9686C87.0997 42.5871 87.0997 46.1794 87.0735 49.7979C87.0735 50.4534 87.1786 50.8992 87.8357 51.24C88.3876 51.5285 88.7818 52.0791 89.2549 52.4724C89.544 52.7084 89.8594 52.9182 90.3062 53.2591C90.0697 54.439 91.1473 56.1958 88.9921 57.166C89.6754 57.1922 90.3851 57.2447 91.0684 57.2709C91.4889 59.5783 91.3312 60.3912 90.2799 60.8107C90.2799 65.4781 90.2011 70.1717 90.3062 74.8652C90.5428 84.7506 90.753 94.6359 91.1998 104.495C91.6203 113.463 92.8293 122.378 94.4063 131.214C94.4588 131.503 94.564 131.791 94.7217 132.027C95.0108 132.394 95.3787 132.735 95.6941 133.076C95.6416 133.155 95.5627 133.26 95.5101 133.338C96.0621 133.364 96.614 133.391 97.3236 133.443C97.1922 134.466 97.9281 135.567 96.5352 136.327C95.7993 136.747 95.6153 137.507 95.8255 138.478C97.1397 144.377 98.6115 150.251 100.977 155.836C101.45 156.937 102.054 157.986 102.528 159.087C102.79 159.664 103.158 159.822 103.763 159.795C104.814 159.743 105.839 159.795 106.917 159.979C106.628 160.058 106.365 160.136 105.997 160.241C105.997 161.369 105.997 162.522 105.997 163.728C106.339 163.807 106.654 163.886 107.127 163.991C107.048 164.463 107.153 165.118 106.89 165.407C106.155 166.219 105.865 167.373 106.444 168.343C106.996 169.287 107.626 170.179 108.231 171.07C112.331 177.285 116.431 183.499 120.505 189.714C120.61 189.871 120.715 190.002 121.083 190.159C121.083 189.792 121.109 189.425 121.083 189.032C121.03 188.219 120.978 187.459 122.055 187.196C122.239 187.144 122.423 186.698 122.45 186.41C122.502 185.754 122.476 185.072 122.476 184.312C123.527 184.312 124.473 184.312 125.63 184.312C125.63 185.78 125.656 187.275 125.604 188.77C125.577 189.504 125.866 189.818 126.681 189.766C126.681 189.084 126.681 188.402 126.681 187.642C127.68 187.642 128.574 187.642 129.546 187.642C129.546 188.35 129.546 189.058 129.546 189.871C130.545 189.871 131.465 189.871 132.516 189.871C132.516 189.373 132.542 188.901 132.516 188.402C132.49 187.642 132.437 186.908 133.462 186.672C133.646 186.619 133.83 186.174 133.856 185.859C133.935 185.387 133.883 184.889 133.883 184.338C135.828 184.338 137.694 184.338 139.691 184.338C139.691 186.279 139.691 188.193 139.691 190.343C140.716 189.871 141.583 189.53 142.398 189.084C142.608 188.979 142.766 188.56 142.766 188.271C142.819 187.275 142.792 186.252 142.792 185.177C143.923 185.177 144.921 185.177 146.025 185.177C146.025 187.301 146.025 189.346 146.025 191.47C146.603 191.47 146.971 191.47 147.444 191.47C147.444 188.219 147.444 184.994 147.444 181.716C148.864 181.716 150.151 181.716 151.571 181.716C151.571 183.368 151.623 184.994 151.544 186.593C151.492 187.563 151.912 188.035 152.859 188.402C152.859 187.563 152.859 186.803 152.859 185.99C153.437 185.938 153.91 185.885 154.436 185.807C154.436 183.473 154.436 181.192 154.436 178.91C154.567 178.937 154.698 178.963 154.83 178.989C155.04 178.438 155.355 177.914 155.408 177.363C155.487 176.236 155.434 175.108 155.434 173.955C155.066 173.902 154.777 173.85 154.436 173.771C154.436 173.325 154.436 172.906 154.436 172.408C155.171 172.355 155.855 172.329 156.643 172.277C156.643 169.209 156.643 166.219 156.643 163.204C156.643 162.365 156.643 161.552 156.643 160.713C156.643 160.451 156.591 160.005 156.486 160.005C155.461 159.795 155.96 159.061 155.802 158.458C156.38 158.406 156.854 158.353 157.432 158.301C157.432 157.121 157.432 155.993 157.432 154.787C157.931 154.735 158.352 154.708 158.772 154.656C158.825 154.263 158.877 153.922 158.956 153.502C159.403 153.502 159.797 153.502 160.27 153.502C160.297 153.869 160.349 154.236 160.402 154.656C161.453 154.656 162.504 154.656 163.582 154.656C163.661 154.263 163.713 153.896 163.792 153.502C164.186 153.502 164.554 153.502 165.001 153.502C165.054 153.843 165.132 154.21 165.211 154.63C166.236 154.63 167.261 154.63 168.365 154.63C168.418 154.289 168.47 153.922 168.549 153.502C168.97 153.502 169.364 153.502 169.811 153.502C169.863 153.896 169.916 154.263 169.968 154.656C170.836 154.656 171.651 154.656 172.57 154.656C172.649 154.289 172.754 153.922 172.86 153.502C173.28 153.502 173.674 153.502 174.121 153.502C174.174 153.922 174.2 154.263 174.253 154.682C175.251 154.682 176.171 154.682 177.196 154.682C177.275 154.341 177.328 153.974 177.406 153.528C177.774 153.528 178.169 153.528 178.642 153.528C178.694 153.869 178.747 154.21 178.799 154.656C179.667 154.656 180.508 154.656 181.454 154.656C181.533 154.341 181.585 153.974 181.69 153.502C182.058 153.476 182.426 153.476 182.899 153.45C182.978 153.869 183.031 154.21 183.11 154.656C184.135 154.656 185.16 154.656 186.237 154.656C186.316 154.289 186.369 153.922 186.448 153.502C186.842 153.476 187.21 153.476 187.657 153.45C187.735 153.843 187.788 154.21 187.867 154.656C188.866 154.656 189.917 154.656 191.021 154.656C191.073 154.315 191.152 153.974 191.231 153.528C191.599 153.528 191.993 153.528 192.466 153.528C192.519 153.869 192.571 154.236 192.65 154.656C193.045 154.708 193.439 154.761 193.964 154.813C193.964 155.967 193.964 157.121 193.964 158.327C194.569 158.379 195.042 158.432 195.62 158.484C195.541 159.061 196.146 159.769 195.068 160.005C194.963 160.031 194.832 160.372 194.832 160.556C194.832 164.436 194.858 168.291 194.884 172.172C194.884 172.198 194.937 172.224 195.042 172.381C195.62 172.381 196.277 172.381 197.013 172.381C197.013 172.906 197.013 173.352 197.013 173.85C196.724 173.902 196.409 173.981 196.067 174.06C196.067 176.472 196.067 178.832 196.067 181.192C197.828 181.008 198.117 180.72 198.117 179.146C198.117 177.599 198.117 176.079 198.117 174.479C200.404 174.479 202.611 174.479 204.977 174.479C204.977 175.135 204.977 175.816 204.977 176.472C204.977 179.146 204.977 181.821 204.977 184.469C204.977 186.305 205.161 186.488 207.29 186.619C207.29 185.02 207.29 183.421 207.29 181.716C209.392 181.716 211.416 181.716 213.571 181.716C213.571 183.342 213.571 185.02 213.571 186.777C214.912 186.777 216.121 186.777 217.461 186.777C217.461 182.136 217.461 177.495 217.461 172.749C217.934 172.722 218.328 172.749 218.67 172.67C219.012 172.591 219.301 172.355 219.616 172.198C219.826 172.093 220.063 171.962 220.299 171.962C220.93 171.936 221.587 172.014 222.218 171.909C222.639 171.831 223.164 171.621 223.348 171.28C223.742 170.546 224.216 170.258 225.057 170.362C225.766 170.441 226.476 170.389 227.317 170.389C227.317 168.186 227.317 166.062 227.317 163.833C228.027 163.807 228.605 163.755 229.262 163.728C229.341 163.44 229.446 163.152 229.551 162.732C230.576 162.732 231.653 162.732 232.81 162.732C232.81 162.103 232.81 161.578 232.81 160.975C233.414 160.923 233.966 160.897 234.65 160.844C234.65 151.719 234.65 142.594 234.65 133.443C235.307 133.443 235.806 133.443 236.437 133.443C236.437 134.518 236.437 135.541 236.437 136.721C237.62 136.721 238.671 136.721 239.827 136.721C239.906 137.429 239.959 138.006 240.038 138.661C240.668 138.687 241.247 138.714 241.956 138.766C241.956 142.83 241.956 146.868 241.956 151.064C242.929 151.064 243.77 151.09 244.637 151.064C245.242 151.037 245.478 151.3 245.662 151.824C246.398 154.027 246.424 154 248.737 154.027C249.026 154.027 249.315 154.079 249.657 154.105C249.71 154.525 249.736 154.892 249.788 155.364C250.419 155.39 251.05 155.416 251.865 155.469C251.865 156.019 251.865 156.57 251.865 157.121C251.865 166.639 251.865 176.131 251.865 185.649C251.865 187.668 251.865 187.668 254.046 187.327C254.072 187.013 254.099 186.698 254.125 186.383C254.151 186.043 254.178 185.728 254.204 185.335C256.28 185.335 258.304 185.335 260.485 185.335C260.485 187.196 260.538 189.032 260.459 190.867C260.433 191.837 260.643 192.205 261.721 192.283C270.683 193.07 279.645 193.961 288.608 194.827C289.344 194.905 290.106 194.958 290.842 195.115M105.892 191.706C105.865 191.497 105.865 191.339 105.813 191.234C104.078 187.249 102.028 183.499 99.032 180.274C92.2774 173.011 81.8432 172.827 74.8784 179.854C72.0924 182.66 70.1475 186.043 68.4392 189.582C68.1238 190.238 67.8347 190.92 67.493 191.706C80.3714 191.706 93.1184 191.706 105.892 191.706ZM180.587 191.706C180.639 191.523 180.718 191.418 180.718 191.313C180.718 185.492 180.797 179.671 180.692 173.85C180.639 171.044 178.037 168.946 175.225 169.209C172.676 169.445 170.757 171.542 170.731 174.269C170.678 179.802 170.704 185.308 170.704 190.841C170.704 191.129 170.783 191.418 170.81 191.706C174.121 191.706 177.328 191.706 180.587 191.706ZM92.6716 159.743C91.5152 152.453 90.3851 145.216 89.2286 137.953C87.5466 137.953 85.8382 137.953 84.2612 137.953C83.1048 145.269 81.9747 152.48 80.8445 159.743C84.7343 159.743 88.7293 159.743 92.6716 159.743ZM86.7581 114.8C85.9959 120.569 85.2337 126.311 84.4715 132.053C86.0747 132.053 87.5465 132.053 89.0709 132.053C88.2825 126.232 87.5203 120.516 86.7581 114.8Z" fill="#749DC1"/>
<path d="M167.235 84.4613C167.235 84.4613 163.976 78.1683 171.388 77.4603C170.625 72.4521 177.879 64.9004 190.469 68.1256C192.598 62.6716 204.609 53.0485 212.967 64.7693C228.894 58.1091 231.154 67.706 229.025 69.4366C241.378 67.2078 239.196 75.651 237.12 76.595C253.468 73.1076 251.208 84.4613 251.208 84.4613H167.235Z" fill="white"/>
<path d="M297.964 123.53C297.964 123.53 296.597 120.043 299.698 119.65C299.383 116.87 302.406 112.701 307.662 114.484C308.556 111.469 313.576 106.146 317.045 112.623C323.694 108.925 324.641 114.248 323.747 115.192C328.898 113.96 328.005 118.627 327.111 119.152C333.945 117.211 332.998 123.504 332.998 123.504H297.964V123.53Z" fill="white"/>
<path d="M1.70824 261.743C12.852 308.075 88.4931 308.233 145.027 306.502C201.56 304.772 360.018 300.498 371.976 256.053C380.097 225.82 362.804 201.198 351.003 186.672H27.2286C12.1424 205.761 -5.33547 232.559 1.70824 261.743Z" fill="#72645D"/>
<path d="M12.5885 207.7C3.33707 223.564 -3.04958 242.128 1.68127 261.742C12.8251 308.074 88.4661 308.232 145 306.501C201.533 304.771 359.991 300.497 371.949 256.052C376.943 237.461 372.317 220.994 365.3 207.7H12.5885Z" fill="#7EA21A"/>
<path d="M57.7422 185.858H55.0614V187.406H57.7422V185.858Z" fill="#6B3425"/>
<path d="M60.3704 182.371H63.7872L62.7884 178.097L60.3704 177.179H62.5782L62.3153 176.078L58.4255 175.79L62.0788 175.055L61.5532 172.879L58.4255 171.883C58.4255 171.883 60.1339 171.778 61.2903 171.725L59.7397 165.091L57.1903 164.882L59.6345 164.619L56.4281 150.984L54.5357 159.034H55.7184L54.378 159.742L53.7735 162.286H55.955L53.6421 162.836L53.4319 163.728H54.6409L53.3267 164.147L52.0652 169.496L55.0877 170.126L51.7761 170.808L50.7248 175.134H53.8787L50.4357 176.471L49.3844 180.929C51.0402 181.165 53.4581 181.506 53.4581 181.506L49.1215 182.109L48.2279 185.858H64.6282L64.1288 183.761L60.3704 182.371Z" fill="#7EA21A"/>
<path d="M324.932 185.072H321.436V187.092H324.932V185.072Z" fill="#6B3425"/>
<path d="M328.348 180.536H332.79L331.476 174.977L328.348 173.797H331.213L330.871 172.355L325.825 171.962L330.556 171.018L329.899 168.16L325.825 166.875C325.825 166.875 328.059 166.744 329.557 166.665L327.533 158.038L324.222 157.75L327.376 157.409L323.197 139.684L320.726 150.146H322.25L320.516 151.064L319.727 154.394H322.566L319.57 155.102L319.307 156.255H320.884L319.175 156.806L317.546 163.781L321.462 164.594L317.152 165.459L315.838 171.07H319.911L315.417 172.801L314.05 178.596C316.206 178.91 319.333 179.356 319.333 179.356L313.682 180.143L312.526 185.02H333.867L333.237 182.319L328.348 180.536Z" fill="#7EA21A"/>
<path d="M119.218 68.4926C119.218 68.4926 113.646 64.979 107.365 68.9646C103.16 71.6392 102.634 81.105 104.211 84.3302C105.762 87.5554 112.937 93.4027 112.937 93.4027C112.937 93.4027 139.824 73.9204 119.218 68.4926Z" fill="#A5713D"/>
<path d="M137.143 124.24L137.222 138.111C137.222 138.111 153.832 138.294 154.883 138.032C155.961 137.77 161.323 133.522 161.875 133.286C162.426 133.05 162.952 133.286 162.742 133.942C162.532 134.597 161.691 136.642 161.691 136.642C161.691 136.642 165.764 136.197 166.132 135.961C166.5 135.725 168.945 133.863 169.444 133.706C169.943 133.548 170.811 133.863 170.574 134.387C170.364 134.912 168.051 137.875 168.051 137.875C168.051 137.875 168.524 141.047 167.315 142.201C166.106 143.355 160.482 144.299 157.722 144.482C154.989 144.666 134.225 147.314 132.491 147.236C130.756 147.157 128.233 146.633 127.339 142.909C126.446 139.186 126.157 124.974 126.157 124.974L137.143 124.24Z" fill="#DD866F"/>
<path d="M105.577 255.135V276.951H87.3369C87.3369 276.951 84.7349 272.598 87.3369 271.392C89.9388 270.186 98.4018 266.043 98.4018 266.043L98.0864 255.135H105.577Z" fill="#F69576"/>
<path d="M105.577 266.018V276.926H87.3369C87.3369 276.926 84.7349 272.573 87.3369 271.367C89.9388 270.161 98.4018 266.018 98.4018 266.018H105.577Z" fill="#032240"/>
<path d="M105.577 274.722V276.926H87.3368C87.3368 276.926 86.7323 275.903 86.3907 274.722H105.577Z" fill="#BFBFBF"/>
<path d="M120.584 255.136L120.426 266.044C120.426 266.044 129.967 267.827 132.516 268.614C135.565 269.558 139.113 270.397 139.612 273.36C140.033 275.929 139.612 276.926 139.612 276.926H110.018L113.225 255.11H120.584V255.136Z" fill="#F69576"/>
<path d="M120.4 266.016C120.4 266.016 129.941 267.799 132.49 268.586C135.539 269.53 139.087 270.369 139.586 273.332C140.007 275.902 139.586 276.898 139.586 276.898H110.018L111.149 265.99H120.4V266.016Z" fill="#BFBFBF"/>
<path d="M139.585 273.36C139.664 273.884 139.717 274.33 139.743 274.723H110.254L111.174 266.018H120.425C120.425 266.018 129.966 267.801 132.515 268.588C135.564 269.558 139.112 270.397 139.585 273.36Z" fill="#032240"/>
<path d="M133.884 156.282C133.884 156.282 134.909 167.033 133.884 184.916C132.859 202.825 128.496 219.947 127.997 221.992C127.471 224.037 121.084 258.308 121.084 258.308H111.097C111.097 258.308 116.748 212.028 117.247 197.974C117.773 183.919 115.46 157.567 115.46 157.567L133.884 156.282Z" fill="#254B6B"/>
<path d="M97.2192 157.567H118.482C118.482 157.567 120.138 200.071 118.482 202.064C116.826 204.057 111.806 212.028 111.044 218.164C110.282 224.3 108.205 258.308 108.205 258.308H97.1929V157.567H97.2192Z" fill="#254B6B"/>
<path d="M113.015 100.379C123.607 100.143 127.024 101.743 129.258 106.699C131.492 111.654 137.116 155.103 137.642 163.965C138.167 172.828 136.433 178.125 124.316 178.125C112.2 178.125 95.6159 168.239 95.6159 168.239C95.6159 168.239 94.9326 171.307 94.4069 173.195C93.8813 175.083 88.7562 177.128 88.7562 173.877C88.7562 170.626 90.9902 119.835 91.3319 111.313C91.6736 102.792 104.999 100.537 113.015 100.379Z" fill="black"/>
<path d="M124.316 103.264C128.494 102.162 132.358 102.241 135.433 108.377C138.508 114.512 140.9 133.601 140.9 133.601L126.707 139.213C126.707 139.239 113.198 106.174 124.316 103.264Z" fill="black"/>
<path d="M116.668 99.4883C112.936 99.4883 108.52 99.8292 106.207 101.324C103.395 103.133 103.448 109.846 115.801 110.396C128.153 110.947 127.733 105.204 126.498 103.526C124.658 101.035 119.533 99.5145 116.668 99.4883Z" fill="#F69576"/>
<path d="M121.478 91.8057L123.87 107.224H109.309C109.309 107.224 110.019 101.088 110.834 97.1285C111.648 93.1692 112.358 91.8057 112.358 91.8057H121.478Z" fill="#F69576"/>
<path d="M115.118 96.001C115.118 96.001 114.987 98.8329 116.879 100.092C118.772 101.324 122.95 101.35 122.95 101.35L121.479 91.8057H115.329C115.329 91.8057 114.908 94.1918 115.118 96.001Z" fill="#DD866F"/>
<path d="M123.554 73.1092C123.554 73.1092 125.394 74.63 126.209 77.9863C126.813 80.556 126.682 83.3354 127.024 84.9087C127.339 86.4557 127.865 88.9467 127.418 91.0968C126.971 93.247 125.053 96.21 121.478 97.2064C117.904 98.2028 114.986 97.4948 113.015 95.0038C111.044 92.5128 108.6 88.0814 107.89 85.0136C107.18 81.9457 106.76 76.0984 110.045 73.5287C114.25 70.2773 119.27 70.2249 123.554 73.1092Z" fill="#F69576"/>
<path d="M117.064 90.4667C117.064 90.4667 117.406 92.5643 118.641 93.0101C119.876 93.4559 121.164 93.1674 121.716 92.4594C122.294 91.7515 122.583 90.4404 122.583 90.4404L117.064 90.4667Z" fill="white"/>
<path d="M120.112 88.1867C120.007 88.1867 119.928 88.1605 119.876 88.108C119.718 87.9769 119.718 87.7408 119.718 87.6096C119.718 87.5834 119.718 87.5572 119.718 87.5309C119.692 87.5572 119.613 87.5834 119.534 87.6883C119.429 87.7933 119.297 87.8457 119.14 87.8195C118.956 87.767 118.798 87.5834 118.746 87.3211C118.667 86.9014 119.061 86.1669 119.087 86.0882C119.114 86.0357 119.192 86.0095 119.245 86.0357C119.297 86.062 119.324 86.1407 119.297 86.1931C119.192 86.3767 118.903 86.9538 118.982 87.2424C119.035 87.4522 119.114 87.5309 119.192 87.5572C119.245 87.5834 119.297 87.5309 119.324 87.5047C119.508 87.3211 119.639 87.2424 119.744 87.2424C119.797 87.2424 119.876 87.2948 119.902 87.3473C119.928 87.3998 119.928 87.4785 119.928 87.5572C119.928 87.6621 119.928 87.8195 120.007 87.8982C120.033 87.9244 120.086 87.9244 120.165 87.9244C120.323 87.8982 120.349 87.767 120.349 87.5047C120.349 87.3735 120.349 87.2686 120.401 87.2162C120.428 87.1899 120.48 87.1637 120.533 87.1637C120.638 87.1637 120.69 87.2424 120.769 87.2949C120.927 87.3998 120.98 87.426 121.085 87.3473C121.137 87.2948 121.164 87.2162 121.137 87.085C121.111 86.7178 120.874 86.2456 120.717 86.1144C120.664 86.0882 120.664 86.0095 120.69 85.957C120.743 85.9046 120.796 85.9046 120.848 85.9308C121.085 86.1144 121.348 86.6653 121.374 87.085C121.374 87.2948 121.348 87.4522 121.242 87.5309C120.98 87.767 120.743 87.6096 120.612 87.5047C120.585 87.4785 120.585 87.4785 120.559 87.4522C120.559 87.4785 120.559 87.4785 120.559 87.5047C120.559 87.7146 120.585 88.108 120.165 88.1867C120.191 88.1867 120.165 88.1867 120.112 88.1867Z" fill="#6B3425"/>
<path d="M102.397 82.7576C103.501 80.0306 111.544 82.4954 110.046 87.5298C108.548 92.7216 100.768 86.7957 102.397 82.7576Z" fill="#F69576"/>
<path d="M108.547 88.1874C108.521 88.1874 108.494 88.1874 108.468 88.1612C108.416 88.1088 108.416 88.0301 108.468 88.0039C108.81 87.6368 108.862 86.5093 108.442 85.3818C108.153 84.5951 107.391 83.2316 105.656 83.0219C104.736 82.917 104.079 83.0743 103.711 83.4939C103.159 84.1232 103.422 85.1458 103.422 85.1458C103.448 85.1982 103.396 85.2769 103.343 85.3031C103.291 85.3293 103.212 85.2769 103.185 85.2245C103.185 85.172 102.896 84.0707 103.527 83.3628C103.948 82.8646 104.683 82.7072 105.682 82.8121C107.049 82.9694 108.126 83.8872 108.652 85.3293C109.073 86.4568 109.046 87.7155 108.626 88.1874C108.626 88.1612 108.6 88.1874 108.547 88.1874Z" fill="#6B3425"/>
<path d="M105.657 87.7417C105.604 87.7417 105.578 87.7155 105.552 87.6631C105.525 87.5582 104.605 85.3556 105.946 82.8908C105.972 82.8384 106.051 82.8122 106.103 82.8384C106.156 82.8646 106.182 82.9433 106.156 82.9957C104.868 85.3556 105.762 87.532 105.762 87.5582C105.788 87.6106 105.762 87.6893 105.709 87.7155C105.709 87.7155 105.683 87.7417 105.657 87.7417Z" fill="#6B3425"/>
<path d="M116.222 85.8536C116.469 85.8536 116.669 85.4543 116.669 84.9617C116.669 84.4691 116.469 84.0698 116.222 84.0698C115.975 84.0698 115.775 84.4691 115.775 84.9617C115.775 85.4543 115.975 85.8536 116.222 85.8536Z" fill="#6B3425"/>
<path d="M114.199 82.6026C114.541 82.314 115.25 81.9468 115.986 81.8681C116.801 81.7894 117.248 82.1566 117.563 82.2353C117.879 82.314 117.931 81.8681 117.747 81.5008C117.589 81.1336 116.906 80.8451 115.802 80.8713C114.698 80.8975 114.094 81.3959 113.805 81.7369C113.516 82.0779 113.726 82.9961 114.199 82.6026Z" fill="#6B3425"/>
<path d="M123.03 85.6182C123.276 85.6182 123.476 85.2189 123.476 84.7263C123.476 84.2338 123.276 83.8345 123.03 83.8345C122.783 83.8345 122.583 84.2338 122.583 84.7263C122.583 85.2189 122.783 85.6182 123.03 85.6182Z" fill="#6B3425"/>
<path d="M121.401 82.2867C121.742 81.9981 122.452 81.6309 123.188 81.5522C124.003 81.4735 124.449 81.8407 124.765 81.9194C125.08 81.9981 125.133 81.5522 124.949 81.1849C124.791 80.8177 124.108 80.5291 123.004 80.5554C121.9 80.6078 121.296 81.08 121.006 81.421C120.691 81.7358 120.928 82.6801 121.401 82.2867Z" fill="#6B3425"/>
<path d="M124.264 93.0645L123.712 93.1956C123.712 93.1956 122.635 95.3195 121.741 95.7128C120.848 96.1061 117.904 95.975 117.589 95.7128C117.273 95.4506 116.248 93.1169 116.248 93.1169L115.565 93.2742C115.565 93.2742 116.616 96.6567 116.774 96.9452C116.879 97.1287 118.824 98.466 119.586 98.5184C120.348 98.5709 122.95 97.1549 123.082 96.8403C123.476 95.8701 124.264 93.0645 124.264 93.0645Z" fill="#6B3425"/>
<path d="M120.899 94.3757L119.585 94.3232L119.559 96.6316L120.558 96.8153L120.899 94.3757Z" fill="#6B3425"/>
<path opacity="0.4" d="M95.0379 112.545L98.3232 131.057L92.4359 132.841L95.0379 112.545Z" fill="#254B6B"/>
<path d="M109.309 69.9358C109.309 69.9358 112.358 75.4423 120.847 75.9405C138.535 76.9631 130.414 67.0777 130.414 67.0777C130.414 67.0777 131.045 69.6999 127.996 69.831C123.87 70.0145 117.851 57.4022 109.309 69.9358Z" fill="#A5713D"/>
<path d="M295.101 206.075C279.595 206.075 267.005 193.515 267.005 178.044V176.628H323.197V178.044C323.197 193.515 310.608 206.075 295.101 206.075Z" fill="black"/>
<path d="M288.346 201.276C288.346 201.276 269.843 248.632 268.266 252.355C266.663 256.078 261.512 256.078 263.115 250.939C264.718 245.8 285.508 201.276 285.508 201.276H288.346Z" fill="black"/>
<path d="M305.245 201.276L326.218 247.058H320.173L302.38 201.276H305.245Z" fill="black"/>
<path d="M314.286 224.167H276.597V227.183H314.286V224.167Z" fill="black"/>
<path d="M322.829 255.03C326.952 255.03 330.293 251.696 330.293 247.584C330.293 243.471 326.952 240.137 322.829 240.137C318.707 240.137 315.365 243.471 315.365 247.584C315.365 251.696 318.707 255.03 322.829 255.03Z" fill="black"/>
<path d="M286.297 158.197C286.297 158.197 291.291 157.069 292.211 161.212C293.13 165.276 291.343 165.775 292.079 168.633C292.736 171.15 296.284 172.513 296.284 172.513C296.284 172.513 290.345 175.031 288.426 169.682C286.902 165.46 290.213 163.467 289.793 161.16C289.346 158.8 286.297 158.197 286.297 158.197Z" fill="white"/>
<path d="M292.525 157.383C292.525 157.383 296.284 156.465 296.967 159.821C297.65 163.125 296.31 163.545 296.862 165.826C297.361 167.871 300.016 168.972 300.016 168.972C300.016 168.972 295.574 171.018 294.102 166.691C292.946 163.256 295.442 161.631 295.127 159.769C294.812 157.881 292.525 157.383 292.525 157.383Z" fill="white"/>
<path d="M300.278 162.154C300.278 162.154 303.589 161.42 304.22 164.147C304.825 166.847 303.642 167.188 304.141 169.076C304.588 170.754 306.927 171.646 306.927 171.646C306.927 171.646 302.985 173.324 301.697 169.758C300.672 166.952 302.88 165.615 302.617 164.094C302.302 162.547 300.278 162.154 300.278 162.154Z" fill="white"/>
<path d="M325.325 175.03H264.876V178.229H325.325V175.03Z" fill="#3D3B38"/>
<path d="M322.75 249.89C324.173 249.89 325.326 248.739 325.326 247.32C325.326 245.901 324.173 244.75 322.75 244.75C321.328 244.75 320.175 245.901 320.175 247.32C320.175 248.739 321.328 249.89 322.75 249.89Z" fill="#3D3B38"/>
<path d="M249.133 254.846L249.29 265.754C249.29 265.754 239.75 267.537 237.2 268.323C234.152 269.267 230.603 270.106 230.104 273.069C229.684 275.639 230.104 276.635 230.104 276.635H259.672L256.465 254.819H249.133V254.846Z" fill="#F69576"/>
<path d="M249.29 265.754C249.29 265.754 239.75 267.537 237.2 268.323C234.152 269.267 230.603 270.106 230.104 273.069C229.684 275.639 230.104 276.636 230.104 276.636H259.672L258.542 265.728H249.29V265.754Z" fill="#BFBFBF"/>
<path d="M230.102 273.095C230.024 273.619 229.971 274.065 229.945 274.458H259.46L258.54 265.753H249.289C249.289 265.753 239.748 267.536 237.199 268.323C234.15 269.267 230.602 270.132 230.102 273.095Z" fill="#EAEAEA"/>
<path d="M267.11 257.52L267.267 268.428C267.267 268.428 257.727 270.211 255.178 270.998C252.129 271.942 248.581 272.781 248.081 275.744C247.661 278.314 248.081 279.31 248.081 279.31H277.649L274.443 257.494H267.11V257.52Z" fill="#F69576"/>
<path d="M267.293 268.429C267.293 268.429 257.752 270.212 255.203 270.998C252.154 271.942 248.606 272.781 248.107 275.744C247.686 278.314 248.107 279.31 248.107 279.31H277.675L276.544 268.402H267.293V268.429Z" fill="#BFBFBF"/>
<path d="M248.107 275.77C248.028 276.294 247.976 276.74 247.95 277.133H277.465L276.545 268.428H267.293C267.293 268.428 257.753 270.211 255.204 270.997C252.128 271.941 248.607 272.78 248.107 275.77Z" fill="#EAEAEA"/>
<path d="M250.471 68.2299C250.471 68.2299 256.043 64.7163 262.325 68.7019C266.53 71.3765 267.056 80.8423 265.479 84.0675C263.928 87.2927 256.753 93.14 256.753 93.14C256.753 93.14 229.892 73.6577 250.471 68.2299Z" fill="black"/>
<path d="M235.386 124.16L232.469 137.821C232.469 137.821 215.858 138.004 214.807 137.742C213.729 137.48 208.368 133.232 207.816 132.996C207.264 132.76 206.738 132.996 206.948 133.652C207.159 134.307 208 136.352 208 136.352C208 136.352 203.926 135.907 203.558 135.671C203.19 135.435 200.746 133.573 200.246 133.416C199.747 133.258 198.88 133.573 199.116 134.097C199.353 134.622 201.639 137.585 201.639 137.585C201.639 137.585 201.166 140.758 202.375 141.911C203.584 143.065 209.209 144.009 211.968 144.193C214.702 144.376 235.465 147.024 237.2 146.946C238.934 146.867 241.457 146.343 242.351 142.619C243.244 138.896 243.534 124.684 243.534 124.684L235.386 124.16Z" fill="#DD866F"/>
<path d="M235.832 156.018C235.832 156.018 234.807 166.768 235.832 184.651C236.857 202.56 241.22 219.682 241.719 221.728C242.245 223.773 246.266 263.865 246.266 263.865H259.46C259.46 263.865 253.021 211.764 252.495 197.709C251.97 183.655 254.282 157.302 254.282 157.302L235.832 156.018Z" fill="#EAEAEA"/>
<path d="M272.471 157.304H251.208C251.208 157.304 249.552 199.809 251.208 201.801C252.864 203.794 257.884 211.765 258.646 217.901C259.408 224.037 261.485 264.26 261.485 264.26L277.438 265.755L272.471 157.304Z" fill="#EAEAEA"/>
<path d="M249.869 102.134C245.69 101.032 240.407 100.796 237.332 106.932C236.018 109.58 231.918 129.456 230.367 134.202C229.973 135.408 217.489 133.127 217.489 133.127L218.408 148.755C218.408 148.755 242.746 153.606 244.638 146.972C247.424 137.191 256.466 103.864 249.869 102.134Z" fill="#EAEAEA"/>
<path d="M256.676 100.115C246.084 99.8787 242.668 101.478 240.434 106.434C238.2 111.39 232.575 154.812 232.076 163.701C231.576 172.59 233.285 177.86 245.401 177.86C257.517 177.86 280.935 176.838 280.935 173.586C280.935 170.335 278.701 119.544 278.359 111.023C278.044 102.501 264.719 100.272 256.676 100.115Z" fill="white"/>
<path d="M248.237 91.5132L245.845 106.931H260.406C260.406 106.931 259.696 100.795 258.881 96.8361C258.067 92.8767 257.357 91.5132 257.357 91.5132H248.237Z" fill="#F69576"/>
<path d="M254.571 95.7086C254.571 95.7086 254.703 98.5404 252.81 99.799C250.918 101.031 246.739 101.058 246.739 101.058L248.211 91.5132H254.361C254.361 91.5132 254.808 93.9255 254.571 95.7086Z" fill="#DD866F"/>
<path d="M246.161 72.8445C246.161 72.8445 244.321 74.3654 243.506 77.7217C242.902 80.2913 243.033 83.0708 242.692 84.644C242.376 86.1911 241.851 88.6821 242.297 90.8322C242.744 92.9823 244.663 95.9453 248.237 96.9417C251.812 97.9381 254.729 97.2301 256.7 94.7391C258.671 92.2481 261.116 87.8168 261.825 84.7489C262.535 81.681 262.956 75.8337 259.67 73.2641C255.465 70.0127 250.445 69.9602 246.161 72.8445Z" fill="#F69576"/>
<path d="M252.626 90.202C252.626 90.202 252.284 92.2997 251.049 92.7454C249.814 93.1912 248.526 92.9028 247.974 92.1948C247.396 91.4868 247.107 90.1758 247.107 90.1758L252.626 90.202Z" fill="white"/>
<path d="M249.473 87.8967C249.079 87.818 249.079 87.4507 249.079 87.2147C249.079 87.1884 249.079 87.1884 249.079 87.1622C249.053 87.1884 249.053 87.1884 249.026 87.2147C248.895 87.3196 248.658 87.477 248.396 87.2409C248.29 87.136 248.238 86.9786 248.264 86.795C248.29 86.3753 248.553 85.8244 248.79 85.6408C248.842 85.6145 248.921 85.6145 248.947 85.667C248.974 85.7195 248.974 85.7982 248.921 85.8244C248.737 85.9555 248.501 86.4277 248.501 86.795C248.501 86.9261 248.527 87.031 248.553 87.0573C248.658 87.1622 248.711 87.136 248.869 87.0048C248.948 86.9524 249.026 86.8999 249.105 86.8737C249.158 86.8737 249.21 86.8737 249.237 86.9261C249.315 86.9786 249.315 87.0835 249.289 87.2147C249.289 87.477 249.315 87.6081 249.473 87.6344C249.552 87.6344 249.605 87.6344 249.631 87.6081C249.71 87.5557 249.71 87.3983 249.71 87.2671C249.71 87.1622 249.71 87.1097 249.736 87.0573C249.762 87.0048 249.815 86.9523 249.894 86.9523C249.999 86.9523 250.13 87.031 250.314 87.2147C250.34 87.2409 250.393 87.2934 250.446 87.2671C250.524 87.2409 250.603 87.1622 250.656 86.9523C250.708 86.6638 250.446 86.0867 250.34 85.9031C250.314 85.8506 250.34 85.7719 250.393 85.7457C250.446 85.7195 250.524 85.7457 250.551 85.7982C250.603 85.8769 250.998 86.5851 250.892 87.031C250.84 87.2934 250.708 87.477 250.498 87.5294C250.367 87.5557 250.209 87.5294 250.104 87.3983C249.999 87.2934 249.946 87.2409 249.92 87.2409C249.92 87.2671 249.92 87.2934 249.92 87.3196C249.92 87.477 249.894 87.7131 249.762 87.818C249.683 87.8705 249.605 87.8967 249.526 87.8967C249.552 87.8967 249.526 87.8967 249.473 87.8967Z" fill="#6B3425"/>
<path d="M267.292 82.493C266.188 79.766 258.146 82.2307 259.644 87.2652C261.168 92.4307 268.922 86.531 267.292 82.493Z" fill="#F69576"/>
<path d="M261.143 87.8954C261.169 87.8954 261.195 87.8954 261.221 87.8692C261.274 87.8168 261.274 87.7381 261.221 87.7119C260.88 87.3448 260.827 86.2173 261.248 85.0898C261.537 84.3032 262.299 82.9397 264.034 82.7299C264.954 82.625 265.611 82.7823 265.979 83.2019C266.53 83.8312 266.268 84.8538 266.268 84.8538C266.241 84.9062 266.294 84.9849 266.347 85.0111C266.399 85.0373 266.478 84.9849 266.504 84.9325C266.504 84.88 266.793 83.7787 266.163 83.0708C265.742 82.5726 265.006 82.4152 264.007 82.5201C262.641 82.6774 261.563 83.5952 261.037 85.0373C260.617 86.1649 260.643 87.4235 261.064 87.8954C261.09 87.8954 261.116 87.8954 261.143 87.8954Z" fill="#6B3425"/>
<path d="M264.033 87.4493C264.085 87.4493 264.112 87.423 264.138 87.3706C264.164 87.2657 265.084 85.0632 263.744 82.5984C263.717 82.5459 263.638 82.5197 263.586 82.5459C263.533 82.5722 263.507 82.6508 263.533 82.7033C264.821 85.0632 263.928 87.2395 263.928 87.2657C263.901 87.3182 263.928 87.3968 263.98 87.4231C264.006 87.4493 264.006 87.4493 264.033 87.4493Z" fill="#6B3425"/>
<path d="M253.467 85.5616C253.714 85.5616 253.914 85.1623 253.914 84.6697C253.914 84.1771 253.714 83.7778 253.467 83.7778C253.22 83.7778 253.02 84.1771 253.02 84.6697C253.02 85.1623 253.22 85.5616 253.467 85.5616Z" fill="#6B3425"/>
<path d="M255.517 82.3379C255.175 82.0494 254.466 81.6821 253.73 81.6034C252.915 81.5247 252.468 81.892 252.153 81.9707C251.837 82.0494 251.785 81.6034 251.969 81.2362C252.127 80.869 252.81 80.5804 253.914 80.6066C255.018 80.6591 255.622 81.1313 255.911 81.4723C256.2 81.8133 255.99 82.7314 255.517 82.3379Z" fill="black"/>
<path d="M246.687 85.3536C246.934 85.3536 247.134 84.9543 247.134 84.4617C247.134 83.9691 246.934 83.5698 246.687 83.5698C246.44 83.5698 246.24 83.9691 246.24 84.4617C246.24 84.9543 246.44 85.3536 246.687 85.3536Z" fill="#6B3425"/>
<path d="M248.316 81.9966C247.975 81.7081 247.265 81.3408 246.529 81.2621C245.714 81.1834 245.268 81.5507 244.952 81.6294C244.637 81.7081 244.584 81.2621 244.768 80.8949C244.926 80.5277 245.609 80.2391 246.713 80.2653C247.817 80.3178 248.422 80.79 248.711 81.131C249 81.472 248.789 82.4163 248.316 81.9966Z" fill="black"/>
<path d="M260.881 130.662L260.802 144.533C260.802 144.533 244.191 144.716 243.14 144.454C242.062 144.192 236.701 139.944 236.149 139.708C235.597 139.472 235.071 139.708 235.282 140.363C235.492 141.019 236.333 143.064 236.333 143.064C236.333 143.064 232.259 142.618 231.891 142.382C231.523 142.173 229.079 140.285 228.58 140.127C228.08 139.97 227.213 140.285 227.449 140.809C227.66 141.334 229.973 144.297 229.973 144.297C229.973 144.297 229.499 147.469 230.708 148.623C231.917 149.777 237.542 150.721 240.302 150.904C243.035 151.088 263.798 153.736 265.533 153.658C267.267 153.579 269.791 153.054 270.684 149.331C271.578 145.608 271.867 131.396 271.867 131.396L260.881 130.662Z" fill="#F69576"/>
<path d="M274.678 112.281L260.801 144.533L243.034 151.743L274.336 160.292L274.678 112.281Z" fill="#EAEAEA"/>
<path d="M249.632 89.2862C250.289 88.7091 255.046 90.1518 255.046 90.1518L249.816 89.9157C249.79 89.942 249.396 89.496 249.632 89.2862Z" fill="black"/>
<path d="M249.053 89.1543C249.421 89.1543 249.552 89.8888 249.552 89.8888H245.82C245.82 89.8888 248.264 89.1543 249.053 89.1543Z" fill="black"/>
<path d="M266.346 80.7382C266.346 80.7382 261.037 80.1613 255.202 76.6477C250.761 73.9469 246.24 69.8827 246.24 69.8827L253.231 64.4287C249.867 57.6637 258.646 58.5814 260.485 62.1999C264.244 58.7912 269.947 65.6086 267.292 68.8338C276.518 70.3284 272.47 77.0672 268.764 74.9171L266.346 80.7382Z" fill="white"/>
<path d="M257.962 118.339L257.568 141.781L244.637 142.541L242.692 153.659C242.692 153.659 268.58 157.539 270.157 156.622C271.734 155.704 274.31 111.259 274.31 111.259L257.962 118.339Z" fill="white"/>
<path d="M250.972 108.9C250.972 108.9 246.242 104.495 244.086 104.6C242.615 104.679 242.562 111.68 244.638 111.706C246.662 111.706 250.972 108.9 250.972 108.9Z" fill="#512176"/>
<path d="M249.054 108.9C249.054 108.9 253.785 104.495 255.94 104.6C257.412 104.679 257.464 111.68 255.388 111.706C253.364 111.706 249.054 108.9 249.054 108.9Z" fill="#512176"/>
<path d="M250.157 110.473H249.422C248.791 110.473 248.291 109.975 248.291 109.346V107.353C248.291 106.724 248.791 106.226 249.422 106.226H250.184C250.815 106.226 251.314 106.724 251.314 107.353V109.346C251.314 109.975 250.788 110.473 250.157 110.473Z" fill="#512176"/>
<path d="M169.442 118.051C172.333 118.916 172.859 126.809 172.859 126.809L163.765 124.711C163.765 124.711 166.525 117.185 169.442 118.051Z" fill="#FFA539"/>
<path d="M131.833 114.616C132.989 115.717 137.142 120.122 137.273 121.197C137.405 122.272 136.905 124.553 135.617 125.078C134.329 125.602 130.519 126.835 128.626 127.228C126.708 127.647 125.236 125.366 126.129 120.017C127.023 114.668 130.703 113.567 131.833 114.616Z" fill="#FFA539"/>
<path d="M150.598 121.564C150.598 121.564 148.995 117.237 145.368 117.185C141.767 117.158 140.768 121.537 140.768 121.537L150.598 121.564Z" fill="#FFA539"/>
<path d="M151.519 121.8C151.519 121.8 151.072 115.9 157.748 117.002C164.424 118.103 163.556 123.505 163.556 123.505L151.519 121.8Z" fill="#FFA539"/>
<path d="M147.208 131.318C147.208 131.318 143.345 134.491 140.348 132.419C137.352 130.374 139.087 125.628 139.087 125.628L147.208 131.318Z" fill="#FFA539"/>
<path d="M148.102 131.632C148.102 131.632 144.291 136.955 150.441 139.787C156.591 142.619 159.035 136.981 159.035 136.981L148.102 131.632Z" fill="#FFA539"/>
<path d="M134.75 120.647C137.351 120.489 154.304 120.07 163.66 122.666C173.017 125.262 182.373 133.784 183.451 134.675C184.529 135.567 185.002 136.825 184.634 137.271C184.266 137.717 183.661 137.953 183.661 137.953C183.661 137.953 184.108 138.372 183.609 138.582C183.136 138.792 178.825 140.47 171.808 139.919C164.79 139.369 156.643 137.874 147.681 132.735C138.718 127.595 135.117 124.79 133.803 123.741C132.516 122.718 131.806 120.83 134.75 120.647Z" fill="#A5713D"/>
<path d="M167.393 135.146C167.393 135.146 163.976 135.854 161.978 137.847C159.981 139.84 160.086 141.649 161.505 143.012C162.925 144.376 164.764 143.668 166.289 141.57C167.813 139.499 168.864 137.663 168.864 137.663C168.864 137.663 166.867 136.352 167.393 135.146Z" fill="#FFA539"/>
<path d="M181.821 138.556C181.821 138.556 182.005 139.684 181.401 140.864C180.822 142.044 178.956 142.935 178.956 142.935C178.956 142.935 180.113 141.834 180.533 140.785C180.98 139.736 180.77 138.556 180.77 138.556H181.821Z" fill="#A5713D"/>
<path d="M177.487 132.994C177.641 132.48 177.596 132.014 177.387 131.951C177.179 131.889 176.885 132.255 176.731 132.769C176.577 133.282 176.622 133.749 176.831 133.811C177.039 133.873 177.333 133.508 177.487 132.994Z" fill="#6B3425"/>
<path d="M133.987 123.454C134.171 123.061 135.17 122.51 135.853 122.432C136.537 122.379 136.957 122.169 137.562 121.697C138.166 121.225 138.876 121.356 139.375 121.252C139.901 121.121 141.819 120.465 141.925 120.544C142.03 120.622 141.872 121.304 142.187 121.278C142.503 121.252 143.764 121.252 143.975 121.566C144.185 121.855 144.316 122.196 144.579 122.196C144.842 122.222 145.42 121.933 145.604 122.143C145.788 122.379 145.788 122.641 145.788 122.641C145.788 122.641 146.261 122.536 146.498 122.825C146.734 123.113 146.445 123.297 146.55 123.48C146.655 123.664 147.444 123.9 147.418 124.241C147.391 124.582 146.813 124.608 146.997 124.923C147.181 125.237 147.418 125.473 147.26 125.735C147.102 125.998 146.761 125.814 146.866 126.103C146.971 126.391 147.155 126.601 146.734 127.151C146.314 127.728 146.209 127.65 145.578 128.803C144.947 129.957 144.579 130.77 143.502 131.504C142.45 132.238 140.637 132.789 140.006 132.789C139.375 132.789 137.378 132.186 136.616 132.133C135.853 132.081 134.697 131.897 134.382 131.583C134.066 131.242 133.935 130.796 133.593 130.901C133.251 130.98 133.146 131.111 132.989 130.717C132.831 130.324 133.067 129.983 132.699 129.931C132.331 129.878 132.016 129.983 132.069 129.537C132.121 129.065 132.515 128.803 132.331 128.646C132.148 128.489 131.858 128.489 131.937 128.069C132.016 127.676 132.2 127.178 132.437 126.968C132.673 126.758 133.12 126.706 133.067 126.181C133.015 125.631 132.883 125.657 133.173 125.316C133.462 124.975 134.303 124.293 134.224 124.031C134.224 123.69 133.856 123.743 133.987 123.454Z" fill="#6B3425"/>
<path d="M123.16 126.626C123.265 126.494 124.211 127.307 124.842 127.569C125.473 127.832 126.13 128.041 126.13 128.041L126.182 128.199C126.182 128.199 127.233 128.723 127.917 128.907C128.574 129.09 129.178 129.09 129.178 129.09C129.178 129.09 129.073 128.933 129.468 128.985C129.862 129.038 132.332 129.379 132.674 129.326C133.016 129.274 133.646 129.798 133.568 129.982C133.489 130.165 132.753 130.716 131.859 130.742C130.966 130.742 129.494 130.454 129.31 130.349C129.126 130.244 128.022 130.139 127.286 129.851C126.55 129.589 126.235 129.405 126.182 129.3C126.13 129.195 125.157 128.828 124.29 128.068C123.396 127.36 123.055 126.757 123.16 126.626Z" fill="#6B3425"/>
<path d="M134.014 130.664C134.014 130.664 130.965 131.817 130.544 131.948C130.124 132.08 127.574 133.023 127.469 133.076C127.364 133.128 126.628 133.469 126.155 133.863C125.682 134.256 125.156 134.833 125.209 134.859C125.262 134.885 125.603 135.305 125.997 135.069C126.392 134.833 127.758 133.784 127.758 133.784C127.758 133.784 128.074 133.941 128.678 133.705C129.283 133.469 130.781 132.814 130.781 132.814C130.781 132.814 131.911 132.683 132.857 132.394C133.803 132.106 135.17 131.398 135.17 131.398L134.014 130.664Z" fill="#6B3425"/>
<path d="M135.88 131.425L137.405 131.792L133.436 134.362C133.436 134.362 131.518 136.354 131.518 136.459C131.518 136.564 131.623 138.74 131.439 138.898C131.281 139.055 130.782 137.849 130.571 137.22C130.387 136.59 130.65 136.04 130.624 136.013C130.598 135.987 130.65 135.515 131.334 134.755C132.017 133.994 132.963 133.496 132.963 133.496C132.963 133.496 132.674 133.496 133.568 132.972C134.461 132.447 135.88 131.425 135.88 131.425Z" fill="#6B3425"/>
<path d="M137.669 132.185L136.933 133.155C136.933 133.155 135.803 133.758 135.461 133.968C135.119 134.178 135.093 134.414 135.093 134.414C135.093 134.414 134.777 134.493 134.488 134.833C134.199 135.174 134.12 135.804 134.173 136.066C134.226 136.328 135.224 138.059 135.224 138.059C135.224 138.059 135.908 137.298 135.934 136.616C135.96 135.961 135.776 135.489 135.776 135.489L135.908 135.332L137.537 133.732C137.537 133.732 138.142 133.575 138.562 133.286C138.956 132.998 139.351 132.421 139.351 132.421L137.669 132.185Z" fill="#6B3425"/>
<path d="M144.685 129.458L146.157 129.825C146.157 129.825 147.182 129.589 147.628 129.536C148.075 129.458 148.338 129.589 148.338 129.589C148.338 129.589 148.759 129.405 149.258 129.589C149.757 129.772 150.151 130.165 150.283 130.742C150.388 131.319 150.572 132.421 150.572 132.421C150.572 132.421 149.862 132.499 149.179 131.844C148.496 131.188 148.496 130.795 148.496 130.795L148.259 130.716L146.104 130.69C146.104 130.69 145.342 130.926 144.711 130.926C144.08 130.926 143.817 130.847 143.817 130.847L144.685 129.458Z" fill="#6B3425"/>
<path d="M145.841 127.755C145.841 127.755 149.021 127.309 149.152 127.335C149.284 127.388 149.363 127.519 149.363 127.519C149.363 127.519 150.782 127.309 151.57 127.414C152.359 127.492 152.779 127.702 152.779 127.702L152.753 127.86C152.753 127.86 153.121 128.017 153.463 128.541C153.831 129.092 154.146 130.429 154.015 130.56C153.883 130.691 153.357 129.852 153.174 129.616C152.99 129.38 152.306 128.803 152.306 128.803L149.625 128.436L144.947 129.144L145.841 127.755Z" fill="#6B3425"/>
<path d="M146.498 126.127L150.336 124.633L153.279 123.558L153.305 123.636C153.305 123.636 154.225 123.269 154.804 123.348C155.382 123.427 156.065 123.532 156.065 123.532C156.065 123.532 155.96 124.135 155.618 124.187C155.277 124.239 153.542 124.371 153.542 124.371C153.542 124.371 153.174 124.685 152.701 124.869C152.254 125.052 150.493 125.629 150.493 125.629C150.493 125.629 148.548 126.652 147.97 126.835C147.392 127.019 146.183 127.255 146.183 127.255L146.498 126.127Z" fill="#6B3425"/>
<path d="M146.603 123.899C146.603 123.899 147.734 122.877 148.128 122.431C148.522 121.985 148.89 121.251 148.969 121.251C149.048 121.251 149.153 121.303 149.153 121.303C149.153 121.303 149.784 120.674 150.099 120.071C150.414 119.494 150.73 118.603 150.73 118.603L150.651 118.393C150.651 118.393 151.177 117.685 151.387 117.029C151.597 116.348 151.755 115.482 151.886 115.482C152.018 115.482 152.307 116.348 152.096 117.134C151.886 117.921 151.439 119.389 151.439 119.389L151.544 119.547C151.544 119.547 151.098 120.543 150.809 121.094C150.519 121.644 149.968 122.195 149.968 122.195C149.968 122.195 149.494 123.401 148.653 124.057C147.786 124.712 146.63 125.079 146.63 125.079L146.603 123.899Z" fill="#6B3425"/>
<path d="M145.343 122.43C145.343 122.43 145.79 121.512 145.606 120.882C145.396 120.253 144.16 118.024 145.185 117.159C146.21 116.268 146.92 116.818 147.183 117.159C147.472 117.526 147.682 118.47 147.735 119.545C147.787 120.62 147.446 121.354 146.999 121.748C146.578 122.141 146.21 123.033 146.21 123.033L145.343 122.43Z" fill="#6B3425"/>
<path d="M139.009 113.594C139.009 113.594 140.376 113.594 141.112 113.725C141.848 113.856 142.531 114.092 142.531 114.092C142.531 114.092 143.057 113.909 144.345 114.564C145.632 115.22 146.658 116.216 146.947 116.61C147.236 117.003 147.341 117.291 146.973 117.816C146.605 118.34 144.975 118.734 144.161 118.707C143.346 118.681 142.899 118.34 142.899 118.34C142.899 118.34 141.638 117.947 140.849 117.685C140.061 117.423 138.694 116.951 138.247 116.479C137.827 116.033 138.037 115.482 138.037 115.482L138.641 116.111L138.904 115.902L139.298 116.216L139.588 116.164L139.745 116.321C139.745 116.321 140.061 116.216 140.218 116.269C140.376 116.321 140.507 116.426 140.507 116.426L140.928 116.479L140.586 116.216C140.586 116.216 140.691 116.007 140.56 115.902C140.429 115.771 140.271 115.718 140.271 115.718C140.271 115.718 140.455 115.587 140.402 115.456C140.35 115.325 140.087 115.194 140.087 115.194C140.087 115.194 140.35 115.089 140.271 114.905C140.192 114.722 139.666 114.564 139.666 114.564C139.666 114.564 139.798 114.302 139.64 114.092C139.588 113.83 139.009 113.594 139.009 113.594Z" fill="#6B3425"/>
<path d="M127.339 123.768C126.918 123.112 126.839 122.588 127.339 121.461C127.838 120.333 128.89 118.471 129.468 118.262C130.046 118.026 130.335 118.026 130.335 118.026C130.335 118.026 131.57 117.318 132.149 117.003C132.727 116.688 133.542 116.479 133.542 116.479C133.542 116.479 133.042 117.029 133.016 117.265C133.016 117.501 133.147 117.842 133.147 117.842C133.147 117.842 132.727 118.209 132.779 118.419C132.832 118.629 133.095 118.629 133.095 118.629C133.095 118.629 132.727 118.917 132.806 119.101C132.884 119.31 133.042 119.415 133.042 119.415C133.042 119.415 132.779 119.677 132.832 119.913C132.884 120.176 133.121 120.359 133.121 120.359C133.121 120.359 133.095 120.097 133.358 120.045C133.62 119.992 133.752 120.097 133.752 120.097L133.857 119.756L134.12 119.835L134.409 119.258L134.751 119.442L135.145 118.524C135.145 118.524 135.592 118.838 135.408 119.442C135.224 120.018 134.803 120.307 133.831 121.329C132.858 122.352 132.096 123.034 131.833 123.165C131.57 123.296 131.334 123.348 131.334 123.348C131.334 123.348 128.39 125.367 127.339 123.768Z" fill="#6B3425"/>
<path d="M127.706 122.693C128.573 122.588 129.362 123.296 129.704 123.872C130.072 124.449 130.229 125.184 130.676 125.734C131.123 126.285 132.673 127.176 132.673 127.176L132.358 128.12C132.358 128.12 131.202 127.307 130.781 127.281C130.361 127.255 129.651 127.386 128.889 126.914C128.127 126.442 126.707 124.685 126.786 124.004C126.891 123.322 127.207 122.745 127.706 122.693Z" fill="#6B3425"/>
<path d="M134.899 123.409C135.117 123.329 135.18 122.956 135.04 122.575C134.9 122.194 134.609 121.95 134.391 122.03C134.173 122.11 134.11 122.484 134.251 122.865C134.391 123.245 134.682 123.489 134.899 123.409Z" fill="black"/>
<path d="M141.207 121.073C141.438 120.988 141.5 120.577 141.345 120.155C141.189 119.734 140.875 119.461 140.644 119.546C140.412 119.631 140.351 120.042 140.506 120.463C140.661 120.885 140.975 121.158 141.207 121.073Z" fill="black"/>
<path d="M164.975 97.2055C167.84 96.314 172.676 102.581 172.676 102.581L163.95 105.885C163.95 105.885 162.058 98.097 164.975 97.2055Z" fill="#FFA539"/>
<path d="M131.78 115.219C133.357 115.508 139.27 116.871 139.98 117.684C140.69 118.497 141.531 120.673 140.769 121.827C139.98 122.981 137.51 126.101 136.169 127.517C134.802 128.933 132.306 127.858 130.072 122.902C127.811 117.946 130.256 114.957 131.78 115.219Z" fill="#FFA539"/>
<path d="M151.256 110.578C151.256 110.578 147.497 107.878 144.475 109.844C141.452 111.811 143.082 116.006 143.082 116.006L151.256 110.578Z" fill="#FFA539"/>
<path d="M152.148 110.264C152.148 110.264 148.495 105.597 154.645 102.817C160.795 100.038 163.082 105.02 163.082 105.02L152.148 110.264Z" fill="#FFA539"/>
<path d="M153.883 120.568C153.883 120.568 152.438 125.34 148.811 125.288C145.184 125.235 143.975 120.332 143.975 120.332L153.883 120.568Z" fill="#FFA539"/>
<path d="M154.803 120.333C154.803 120.333 154.619 126.862 161.294 125.814C167.996 124.765 166.866 118.734 166.866 118.734L154.803 120.333Z" fill="#FFA539"/>
<path d="M137.589 118.603C139.666 117.03 153.517 107.275 162.742 104.234C171.967 101.192 184.504 103.106 185.897 103.237C187.29 103.368 188.367 104.155 188.341 104.732C188.315 105.309 187.92 105.859 187.92 105.859C187.92 105.859 188.525 105.964 188.236 106.41C187.947 106.856 185.292 110.632 179.168 114.067C173.018 117.502 165.423 120.779 155.12 121.487C144.817 122.195 140.244 121.828 138.588 121.723C136.88 121.566 135.224 120.386 137.589 118.603Z" fill="#A5713D"/>
<path d="M172.781 112.545C172.781 112.545 170.337 115.036 169.785 117.79C169.233 120.543 170.337 121.985 172.282 122.326C174.227 122.667 175.357 121.041 175.462 118.471C175.567 115.902 175.436 113.778 175.436 113.778C175.436 113.778 173.018 113.83 172.781 112.545Z" fill="#FFA539"/>
<path d="M186.658 107.378C186.658 107.378 187.447 108.217 187.604 109.529C187.762 110.84 186.737 112.623 186.737 112.623C186.737 112.623 187.079 111.076 186.869 109.948C186.658 108.847 185.817 107.955 185.817 107.955L186.658 107.378Z" fill="#A5713D"/>
<path d="M179.871 106.188C180.079 106.124 180.119 105.657 179.961 105.145C179.802 104.633 179.505 104.27 179.297 104.334C179.089 104.398 179.049 104.865 179.207 105.377C179.366 105.889 179.663 106.252 179.871 106.188Z" fill="#6B3425"/>
<path d="M143.318 107.483C143.502 107.09 144.5 106.539 145.184 106.46C145.867 106.408 146.288 106.198 146.892 105.726C147.497 105.254 148.206 105.385 148.706 105.28C149.231 105.149 151.15 104.494 151.255 104.572C151.36 104.651 151.203 105.333 151.518 105.307C151.833 105.28 153.095 105.28 153.305 105.595C153.515 105.883 153.647 106.224 153.91 106.224C154.172 106.251 154.751 105.962 154.935 106.172C155.119 106.408 155.119 106.67 155.119 106.67C155.119 106.67 155.592 106.565 155.828 106.854C156.065 107.142 155.776 107.326 155.881 107.509C155.986 107.693 156.774 107.929 156.748 108.27C156.722 108.61 156.144 108.637 156.328 108.951C156.512 109.266 156.748 109.502 156.59 109.764C156.433 110.026 156.091 109.843 156.196 110.131C156.301 110.42 156.485 110.63 156.065 111.18C155.644 111.757 155.539 111.678 154.908 112.832C154.278 113.986 153.91 114.799 152.832 115.533C151.781 116.267 149.967 116.818 149.336 116.818C148.706 116.818 146.708 116.215 145.946 116.162C145.184 116.11 144.027 115.926 143.712 115.612C143.397 115.271 143.265 114.825 142.924 114.93C142.582 115.008 142.477 115.14 142.319 114.746C142.161 114.353 142.398 114.012 142.03 113.96C141.662 113.907 141.347 114.012 141.399 113.566C141.452 113.094 141.846 112.832 141.662 112.675C141.478 112.517 141.189 112.517 141.268 112.098C141.347 111.705 141.531 111.206 141.767 110.997C142.004 110.787 142.45 110.734 142.398 110.21C142.345 109.659 142.214 109.686 142.503 109.345C142.792 109.004 143.633 108.322 143.554 108.06C143.554 107.719 143.186 107.745 143.318 107.483Z" fill="#6B3425"/>
<path d="M132.49 110.656C132.595 110.525 133.541 111.338 134.172 111.6C134.803 111.862 135.46 112.072 135.46 112.072L135.513 112.23C135.513 112.23 136.564 112.754 137.247 112.938C137.904 113.121 138.509 113.121 138.509 113.121C138.509 113.121 138.404 112.964 138.798 113.016C139.192 113.069 141.663 113.41 142.004 113.357C142.346 113.305 142.977 113.829 142.898 114.013C142.819 114.196 142.083 114.747 141.19 114.773C140.296 114.799 138.824 114.485 138.64 114.38C138.483 114.275 137.352 114.17 136.617 113.881C135.881 113.619 135.565 113.436 135.513 113.331C135.46 113.226 134.488 112.859 133.62 112.098C132.727 111.364 132.385 110.787 132.49 110.656Z" fill="#6B3425"/>
<path d="M143.319 114.669C143.319 114.669 140.27 115.823 139.849 115.954C139.429 116.085 136.879 117.029 136.774 117.081C136.669 117.134 135.933 117.475 135.46 117.868C134.987 118.261 134.461 118.838 134.514 118.864C134.567 118.891 134.908 119.31 135.302 119.074C135.697 118.838 137.063 117.789 137.063 117.789C137.063 117.789 137.379 117.947 137.983 117.711C138.588 117.475 140.086 116.819 140.086 116.819C140.086 116.819 141.216 116.688 142.162 116.4C143.108 116.111 144.475 115.403 144.475 115.403L143.319 114.669Z" fill="#6B3425"/>
<path d="M145.211 115.455L146.735 115.822L142.767 118.392C142.767 118.392 140.848 120.385 140.848 120.49C140.848 120.594 140.953 122.771 140.769 122.928C140.611 123.085 140.112 121.879 139.902 121.25C139.718 120.621 139.981 120.07 139.954 120.044C139.928 120.018 139.981 119.546 140.664 118.785C141.347 118.025 142.294 117.527 142.294 117.527C142.294 117.527 142.004 117.527 142.898 117.002C143.792 116.478 145.211 115.455 145.211 115.455Z" fill="#6B3425"/>
<path d="M146.999 116.216L146.263 117.186C146.263 117.186 145.133 117.789 144.791 117.999C144.45 118.209 144.423 118.445 144.423 118.445C144.423 118.445 144.108 118.523 143.819 118.864C143.53 119.205 143.451 119.834 143.503 120.097C143.556 120.359 144.555 122.089 144.555 122.089C144.555 122.089 145.238 121.329 145.264 120.647C145.291 119.992 145.107 119.52 145.107 119.52L145.238 119.362L146.868 117.763C146.868 117.763 147.472 117.606 147.893 117.317C148.287 117.029 148.681 116.452 148.681 116.452L146.999 116.216Z" fill="#6B3425"/>
<path d="M154.015 113.488L155.487 113.855C155.487 113.855 156.512 113.619 156.959 113.567C157.406 113.488 157.668 113.619 157.668 113.619C157.668 113.619 158.089 113.436 158.588 113.619C159.088 113.803 159.482 114.196 159.613 114.773C159.718 115.35 159.902 116.451 159.902 116.451C159.902 116.451 159.193 116.53 158.51 115.874C157.826 115.219 157.826 114.826 157.826 114.826L157.59 114.747L155.434 114.721C155.434 114.721 154.672 114.957 154.041 114.957C153.411 114.957 153.148 114.878 153.148 114.878L154.015 113.488Z" fill="#6B3425"/>
<path d="M155.171 111.785C155.171 111.785 158.351 111.34 158.483 111.366C158.614 111.418 158.693 111.549 158.693 111.549C158.693 111.549 160.112 111.34 160.901 111.445C161.689 111.523 162.11 111.733 162.11 111.733L162.083 111.89C162.083 111.89 162.451 112.048 162.793 112.572C163.135 113.096 163.476 114.46 163.345 114.591C163.214 114.722 162.688 113.883 162.504 113.647C162.32 113.411 161.637 112.834 161.637 112.834L158.956 112.467L154.278 113.175L155.171 111.785Z" fill="#6B3425"/>
<path d="M155.829 110.158L159.666 108.664L162.61 107.588L162.636 107.667C162.636 107.667 163.556 107.3 164.134 107.379C164.712 107.457 165.396 107.562 165.396 107.562C165.396 107.562 165.29 108.165 164.949 108.218C164.607 108.27 162.873 108.401 162.873 108.401C162.873 108.401 162.505 108.716 162.031 108.9C161.585 109.083 159.824 109.66 159.824 109.66C159.824 109.66 157.879 110.683 157.301 110.866C156.722 111.05 155.513 111.286 155.513 111.286L155.829 110.158Z" fill="#6B3425"/>
<path d="M155.934 107.93C155.934 107.93 157.064 106.908 157.458 106.462C157.852 106.016 158.22 105.282 158.299 105.282C158.378 105.282 158.483 105.334 158.483 105.334C158.483 105.334 159.114 104.705 159.429 104.102C159.745 103.525 160.06 102.633 160.06 102.633L159.981 102.424C159.981 102.424 160.507 101.716 160.717 101.06C160.928 100.378 161.085 99.5132 161.217 99.5132C161.322 99.5132 161.637 100.378 161.427 101.165C161.243 101.952 160.77 103.42 160.77 103.42L160.875 103.577C160.875 103.577 160.428 104.574 160.139 105.124C159.85 105.675 159.298 106.226 159.298 106.226C159.298 106.226 158.825 107.432 157.984 108.087C157.117 108.743 155.96 109.11 155.96 109.11L155.934 107.93Z" fill="#6B3425"/>
<path d="M154.673 106.462C154.673 106.462 155.12 105.544 154.936 104.915C154.726 104.285 153.491 102.057 154.516 101.191C155.541 100.326 156.25 100.85 156.513 101.191C156.802 101.558 157.013 102.502 157.065 103.577C157.118 104.652 156.776 105.387 156.329 105.78C155.909 106.173 155.541 107.065 155.541 107.065L154.673 106.462Z" fill="#6B3425"/>
<path d="M148.34 97.625C148.34 97.625 149.706 97.625 150.442 97.7561C151.178 97.8872 151.862 98.1232 151.862 98.1232C151.862 98.1232 152.387 97.9397 153.675 98.5952C154.963 99.2507 155.988 100.247 156.277 100.64C156.566 101.034 156.671 101.322 156.303 101.847C155.909 102.371 154.306 102.764 153.491 102.738C152.676 102.686 152.23 102.371 152.23 102.371C152.23 102.371 150.968 101.978 150.18 101.715C149.391 101.453 148.024 100.981 147.578 100.509C147.157 100.064 147.367 99.5129 147.367 99.5129L147.972 100.142L148.235 99.9325L148.629 100.247L148.918 100.195L149.076 100.352C149.076 100.352 149.391 100.247 149.549 100.3C149.706 100.352 149.838 100.457 149.838 100.457L150.258 100.509L149.917 100.247C149.917 100.247 150.022 100.037 149.89 99.9325C149.759 99.8013 149.601 99.7489 149.601 99.7489C149.601 99.7489 149.785 99.6178 149.733 99.4867C149.68 99.3556 149.417 99.2245 149.417 99.2245C149.417 99.2245 149.68 99.1196 149.601 98.9361C149.522 98.7525 148.997 98.5952 148.997 98.5952C148.997 98.5952 149.128 98.333 148.971 98.1232C148.892 97.861 148.34 97.625 148.34 97.625Z" fill="#6B3425"/>
<path d="M136.669 107.799C136.249 107.143 136.17 106.619 136.669 105.491C137.169 104.364 138.22 102.502 138.798 102.292C139.376 102.056 139.666 102.056 139.666 102.056C139.666 102.056 140.901 101.348 141.479 101.034C142.057 100.719 142.872 100.509 142.872 100.509C142.872 100.509 142.373 101.06 142.346 101.296C142.346 101.532 142.478 101.873 142.478 101.873C142.478 101.873 142.057 102.24 142.11 102.45C142.162 102.633 142.425 102.659 142.425 102.659C142.425 102.659 142.057 102.948 142.136 103.131C142.215 103.315 142.373 103.446 142.373 103.446C142.373 103.446 142.11 103.708 142.162 103.944C142.215 104.206 142.451 104.39 142.451 104.39C142.451 104.39 142.425 104.128 142.688 104.075C142.925 104.049 143.082 104.128 143.082 104.128L143.187 103.787L143.45 103.866L143.739 103.289L144.081 103.472L144.475 102.555C144.475 102.555 144.922 102.869 144.738 103.472C144.554 104.049 144.134 104.338 143.161 105.36C142.189 106.383 141.426 107.065 141.164 107.196C140.901 107.327 140.664 107.379 140.664 107.379C140.664 107.379 137.694 109.372 136.669 107.799Z" fill="#6B3425"/>
<path d="M137.011 106.698C137.878 106.593 138.667 107.301 139.009 107.878C139.376 108.455 139.534 109.189 139.981 109.74C140.428 110.29 141.978 111.182 141.978 111.182L141.663 112.126C141.663 112.126 140.507 111.313 140.086 111.287C139.666 111.26 138.956 111.391 138.194 110.92C137.432 110.448 136.012 108.691 136.091 108.009C136.17 107.327 136.538 106.777 137.011 106.698Z" fill="#6B3425"/>
<path d="M144.232 107.436C144.45 107.356 144.513 106.982 144.373 106.602C144.232 106.221 143.942 105.977 143.724 106.057C143.506 106.137 143.443 106.511 143.583 106.891C143.724 107.272 144.014 107.516 144.232 107.436Z" fill="black"/>
<path d="M150.541 105.099C150.773 105.014 150.835 104.603 150.679 104.182C150.524 103.76 150.21 103.488 149.979 103.573C149.747 103.658 149.685 104.068 149.841 104.49C149.996 104.911 150.31 105.184 150.541 105.099Z" fill="black"/>
<path opacity="0.6" d="M141.373 138.268H130.229V144.535H141.373V138.268Z" fill="white"/>
<path opacity="0.6" d="M147.708 136.931H138.982V141.834H147.708V136.931Z" fill="white"/>
<path opacity="0.6" d="M154.541 140.025H141.242V145.4H154.541V140.025Z" fill="white"/>
<path opacity="0.6" d="M157.957 137.823H147.943V142.176H157.957V137.823Z" fill="white"/>
<path opacity="0.6" d="M165.08 138.268H151.545V144.981H165.08V138.268Z" fill="white"/>
<path opacity="0.6" d="M167.866 135.778H159.14V142.097H167.866V135.778Z" fill="white"/>
<path opacity="0.6" d="M173.28 138.189H161.926V144.561H173.28V138.189Z" fill="white"/>
<path opacity="0.6" d="M177.538 135.778H167.866V141.206H177.538V135.778Z" fill="white"/>
<path opacity="0.6" d="M177.538 139.974H169.443V144.51H177.538V139.974Z" fill="white"/>
<path d="M176.46 114.355V138.111C176.46 139.134 175.908 139.973 175.198 139.973C174.515 139.973 173.937 139.134 173.937 138.111V114.329L170.31 114.277V141.442C170.31 142.464 169.758 143.303 169.048 143.303C168.365 143.303 167.787 142.464 167.787 141.442V114.25L164.396 114.198V141.442C164.396 142.464 163.844 143.303 163.135 143.303C162.451 143.303 161.873 142.464 161.873 141.442V114.145L158.036 114.093V141.442C158.036 142.464 157.484 143.303 156.774 143.303C156.091 143.303 155.513 142.464 155.513 141.442V114.067L151.912 114.014V141.468C151.912 142.49 151.36 143.329 150.651 143.329C149.967 143.329 149.389 142.49 149.389 141.468V113.962L145.999 113.909V141.442C145.999 142.464 145.447 143.303 144.737 143.303C144.054 143.303 143.475 142.464 143.475 141.442V113.883L139.638 113.831V141.442C139.638 142.464 139.086 143.303 138.377 143.303C137.693 143.303 137.115 142.464 137.115 141.442V113.778L132.936 113.726V138.111C132.936 139.134 132.384 139.973 131.675 139.973C130.991 139.973 130.413 139.134 130.413 138.111V113.673L120.557 113.516L127.864 144.824C128.6 147.892 130.544 149.963 132.726 149.963H176.276C178.484 149.963 180.455 147.84 181.165 144.719L187.867 114.539L176.46 114.355Z" fill="#1E2E38"/>
<path d="M185.896 120.779H121.162C118.429 120.779 116.221 118.576 116.221 115.849C116.221 113.122 118.429 110.92 121.162 110.92H185.896C188.629 110.92 190.837 113.122 190.837 115.849C190.837 118.576 188.629 120.779 185.896 120.779Z" fill="#1E2E38"/>
<path d="M108.809 130.952L108.888 144.823C108.888 144.823 125.499 145.007 126.55 144.744C127.601 144.482 132.989 140.234 133.541 139.998C134.093 139.762 134.619 139.998 134.409 140.654C134.198 141.309 133.357 143.355 133.357 143.355C133.357 143.355 137.431 142.909 137.799 142.673C138.167 142.463 140.611 140.575 141.111 140.418C141.61 140.261 142.477 140.575 142.241 141.1C142.004 141.624 139.718 144.587 139.718 144.587C139.718 144.587 140.191 147.76 138.982 148.914C137.773 150.067 132.148 151.011 129.389 151.195C126.629 151.378 105.892 154.027 104.157 153.948C102.423 153.869 99.8997 153.345 99.0061 149.622C98.1125 145.898 97.8234 131.686 97.8234 131.686L108.809 130.952Z" fill="#F69576"/>
</svg>
