<svg width="377" height="306" viewBox="0 0 377 306" fill="none" xmlns="http://www.w3.org/2000/svg">
<path d="M171.037 53.471C189.262 56.903 223.629 -13.1522 261.636 2.30504C299.643 17.7622 271.711 67.5658 285.268 78.7264C298.825 89.8871 335.961 55.5407 351.575 91.6162C367.189 127.692 343.452 166.335 343.109 172.334C342.766 178.334 385.916 210.584 373.941 254.991C361.967 299.397 202.951 303.694 146.192 305.397C89.4588 307.126 13.5511 306.969 2.36797 260.676C-8.8151 214.383 41.9835 174.063 46.6783 161.121C51.3731 148.205 8.88264 103.144 62.1605 47.7859C103.359 4.9511 152.838 50.0389 171.037 53.471Z" fill="#9ECBDD"/>
<path d="M337.993 178.856H323.75V191.405H337.993V178.856Z" fill="#749DC1"/>
<path d="M336.78 177.574H326.678V181.504H336.78V177.574Z" fill="#749DC1"/>
<path d="M332.322 176.315H327.521V178.83H332.322V176.315Z" fill="#749DC1"/>
<path d="M335.276 169.215H333.72V179.537H335.276V169.215Z" fill="#749DC1"/>
<path d="M321.878 178.464H306.079V191.38H321.878V178.464Z" fill="#749DC1"/>
<path d="M326.679 184.385H318.582V191.406H326.679V184.385Z" fill="#749DC1"/>
<path d="M321.166 158.788H308.083V178.856H321.166V158.788Z" fill="#749DC1"/>
<path d="M319.082 145.741H310.088V160.412H319.082V145.741Z" fill="#749DC1"/>
<path d="M318.133 125.202H311.46V146.816H318.133V125.202Z" fill="#749DC1"/>
<path d="M316.498 125.647H313.016V113.569L314.783 111.762L316.498 113.569V125.647Z" fill="#749DC1"/>
<path d="M282.711 150.038H276.038V137.567L279.362 135.235L282.711 137.567V150.038Z" fill="#749DC1"/>
<path d="M288.909 150.038H282.262V137.567L285.585 135.235L288.909 137.567V150.038Z" fill="#749DC1"/>
<path d="M295.397 150.038H288.724V137.567L292.074 135.235L295.397 137.567V150.038Z" fill="#749DC1"/>
<path d="M295.398 146.816H272.399V191.38H295.398V146.816Z" fill="#749DC1"/>
<path d="M282.236 148.363H270.842V191.407H282.236V148.363Z" fill="#749DC1"/>
<path d="M306.106 172.542H292.075V191.379H306.106V172.542Z" fill="#749DC1"/>
<path d="M268.918 159.549H246.129V191.38H268.918V159.549Z" fill="#749DC1"/>
<path d="M276.038 180.795H262.956V191.406H276.038V180.795Z" fill="#749DC1"/>
<path d="M266.465 113.885H246.129V159.549H266.465V113.885Z" fill="#749DC1"/>
<path d="M265.013 120.46H254.542V111.762L265.013 112.783V120.46Z" fill="#749DC1"/>
<path d="M252.722 102.829H251.298V116.111H252.722V102.829Z" fill="#749DC1"/>
<path d="M249.346 102.829H247.922V116.111H249.346V102.829Z" fill="#749DC1"/>
<path d="M241.697 152.214H237.82V169.191H241.697V152.214Z" fill="#749DC1"/>
<path d="M243.016 155.435H229.802V173.696H243.016V155.435Z" fill="#749DC1"/>
<path d="M247.922 167.278H229.802V191.407H247.922V167.278Z" fill="#749DC1"/>
<path d="M236.422 149.278H234.338V156.483H236.422V149.278Z" fill="#749DC1"/>
<path d="M226.031 190.699H210.496V128.241L214.136 125.647L226.031 129.525V190.699Z" fill="#749DC1"/>
<path d="M227.614 130.495H209.731V191.406H227.614V130.495Z" fill="#749DC1"/>
<path d="M233.02 187.895H220.202V191.406H233.02V187.895Z" fill="#749DC1"/>
<path d="M203.269 161.488H186.679V190.699H203.269V161.488Z" fill="#749DC1"/>
<path d="M212.448 175.478H198.337V191.406H212.448V175.478Z" fill="#749DC1"/>
<path d="M184.859 183.442H179.927V191.407H184.859V183.442Z" fill="#749DC1"/>
<path d="M191.848 188.628H177.474V191.405H191.848V188.628Z" fill="#749DC1"/>
<path d="M198.76 164.579H191.295V160.23L195.014 158.186L198.76 160.23V164.579Z" fill="#749DC1"/>
<path d="M202.319 150.745H200.367V162.115H202.319V150.745Z" fill="#749DC1"/>
<path d="M189.607 150.904H187.681V162.222H189.607V150.904Z" fill="#749DC1"/>
<path d="M2.39539 260.651C13.5785 306.944 89.4862 307.101 146.219 305.372C202.952 303.643 361.968 299.373 373.969 254.966C382.119 224.759 364.764 200.159 352.921 185.645H28.0057C12.8927 204.717 -4.64678 231.492 2.39539 260.651Z" fill="#7EA21A"/>
<path d="M13.3415 206.656C4.05741 222.506 -2.35175 241.055 2.39578 260.651C13.5789 306.944 89.4866 307.101 146.22 305.372C202.953 303.643 361.969 299.373 373.969 254.966C378.981 236.391 374.339 219.938 367.296 206.656H13.3415Z" fill="#8A9995"/>
<path d="M214.452 101.022C214.452 101.022 211.182 94.7345 218.619 94.0272C217.855 89.0232 225.134 81.478 237.768 84.7005C239.904 79.2512 251.958 69.6363 260.345 81.347C276.328 74.6926 278.597 84.2813 276.46 86.0104C288.857 83.7835 286.667 92.2195 284.584 93.1626C300.989 89.6782 298.721 101.022 298.721 101.022H214.452Z" fill="white"/>
<path d="M271.844 127.09C271.844 127.09 270.472 123.605 273.585 123.212C273.268 120.435 276.301 116.27 281.576 118.051C282.473 115.038 287.511 109.72 290.992 116.191C297.665 112.497 298.615 117.815 297.718 118.759C302.888 117.527 301.991 122.191 301.094 122.715C307.952 120.776 307.002 127.064 307.002 127.064H271.844V127.09Z" fill="white"/>
<path d="M1.8938 235.55H197.756V34.6593C187.021 45.6889 177.895 54.7798 171.064 53.4699C152.839 50.0379 103.359 4.95003 62.1875 47.7586C8.90959 103.116 51.4 148.178 46.7052 161.094C42.8808 171.626 8.51397 200.287 1.8938 235.55Z" fill="#D1D1D1"/>
<path d="M11.4944 209.93C7.14246 217.921 3.60819 226.514 1.8938 235.552H197.756V209.93H11.4944Z" fill="#776B67"/>
<path d="M66.2239 43.856V235.551H151.811V44.9301C129.313 33.3503 95.9751 17.2906 66.2239 43.856Z" fill="#1F5D8C"/>
<path d="M70.575 40.2925V230.757H146.535V42.2574C125.462 31.7518 96.9238 20.5387 70.575 40.2925Z" fill="#9ECBDD"/>
<path d="M146.535 111.03V103.877L70.575 130.705V137.857L146.535 111.03Z" fill="#749DC1"/>
<path d="M70.575 117.606V124.758L146.535 97.9305V90.7783L70.575 117.606Z" fill="#749DC1"/>
<path d="M130.974 35.2894C112.485 28.2158 90.8838 25.0458 70.575 40.2672V56.6151L130.974 35.2894Z" fill="#749DC1"/>
<path d="M70.575 172.624V230.732H146.535V145.796L70.575 172.624Z" fill="#749DC1"/>
<path d="M90.9372 73.8027C91.2801 73.9599 91.5966 74.1171 91.9395 74.3005C92.2823 74.4839 92.5988 74.7197 92.8626 74.9817C93.1263 75.2437 93.3637 75.5842 93.5484 75.9772C93.733 76.3702 93.8385 76.8156 93.8649 77.3396C93.8912 78.0731 93.7857 78.7543 93.4956 79.3045C93.2318 79.8808 92.8362 80.3524 92.3351 80.7454C91.834 81.1384 91.2273 81.4527 90.5416 81.6623C89.8558 81.8719 89.0909 82.0029 88.2733 82.0291C87.9041 82.0291 87.5348 82.0291 87.1392 81.9767C86.7436 81.9243 86.3479 81.8719 85.9787 81.7671C85.6094 81.6623 85.2402 81.5575 84.8709 81.4265C84.5017 81.2955 84.1588 81.1646 83.8423 81.0074L85.0555 77.6277C85.2138 77.6801 85.3984 77.7587 85.6094 77.8635C85.8204 77.9683 86.0578 78.0469 86.3215 78.1517C86.5853 78.2303 86.8491 78.3089 87.1128 78.3613C87.3766 78.4137 87.6667 78.4399 87.9304 78.4399C88.3261 78.4137 88.6426 78.3613 88.9327 78.2303C89.2228 78.0993 89.3283 77.9159 89.3283 77.6539C89.3283 77.4705 89.2228 77.3395 89.0646 77.2348C88.8799 77.13 88.6953 77.0514 88.4316 76.9466C88.2733 76.8942 88.0623 76.8418 87.7986 76.7632C87.5348 76.6846 87.2711 76.5798 86.9546 76.475C86.6644 76.344 86.3479 76.1868 86.0578 76.0296C85.7677 75.8462 85.4775 75.6366 85.2402 75.3747C85.0028 75.1127 84.7918 74.8245 84.6072 74.5101C84.4489 74.1695 84.3434 73.8027 84.3434 73.3574C84.317 72.6238 84.4489 71.9688 84.739 71.3925C85.0028 70.8161 85.3984 70.3183 85.8732 69.9253C86.3479 69.5324 86.9018 69.218 87.5348 68.9822C88.1678 68.7464 88.8536 68.6416 89.5657 68.6154C90.2251 68.5892 90.8845 68.6154 91.5438 68.7202C92.2032 68.825 92.8098 68.9822 93.3901 69.218L92.4406 72.8596C92.0186 72.6762 91.623 72.519 91.2801 72.4142C90.9372 72.2832 90.5152 72.2046 90.0668 72.1522C89.9349 72.126 89.7503 72.126 89.5129 72.126C89.3019 72.126 89.0646 72.1522 88.8536 72.2046C88.6426 72.257 88.4579 72.3356 88.2997 72.4404C88.1414 72.5452 88.0623 72.7024 88.0359 72.8858C88.0359 72.9644 88.0623 73.043 88.1414 73.0954C88.2206 73.1478 88.3261 73.174 88.4316 73.2002C88.5371 73.2264 88.6689 73.2526 88.7744 73.2526C88.8799 73.2788 88.9854 73.2788 89.0646 73.2788C89.3811 73.3574 89.6976 73.4098 90.0405 73.5146C90.3833 73.5931 90.6735 73.6717 90.9372 73.8027Z" fill="black"/>
<path d="M101.857 72.3348L99.958 72.5706V81.4519L95.4478 82.0021L95.6852 72.9897L93.6016 73.1993L93.7071 69.3219L102.279 68.5884L101.857 72.3348Z" fill="black"/>
<path d="M112.037 80.4307C111.641 80.8237 111.193 81.138 110.639 81.4262C110.085 81.7144 109.505 81.924 108.872 82.0812C108.239 82.2384 107.606 82.2908 106.946 82.2908C106.287 82.2908 105.654 82.1598 105.047 81.9502C104.441 81.7406 103.887 81.4 103.386 80.9546C102.885 80.5093 102.463 79.9329 102.146 79.2255C101.777 78.4396 101.566 77.6536 101.513 76.8677C101.434 76.0817 101.487 75.3481 101.671 74.6146C101.83 73.881 102.12 73.1999 102.489 72.5711C102.858 71.9423 103.333 71.3397 103.861 70.842C104.388 70.318 104.995 69.8726 105.68 69.5058C106.34 69.1129 107.078 68.8247 107.843 68.6413C108.555 68.4579 109.241 68.4055 109.874 68.4841C110.507 68.5627 111.087 68.6937 111.588 68.9295C112.09 69.1653 112.538 69.4535 112.881 69.7678C113.224 70.0822 113.514 70.4228 113.672 70.7634C113.989 71.3921 114.252 72.0995 114.411 72.9117C114.569 73.6976 114.622 74.536 114.516 75.3743C114.437 76.2389 114.173 77.0773 113.804 77.9418C113.408 78.8064 112.828 79.6447 112.037 80.4307ZM109.927 73.6976C109.769 73.357 109.558 73.1213 109.267 72.9641C108.977 72.8069 108.661 72.7545 108.318 72.7807C107.975 72.8069 107.632 72.9117 107.289 73.0689C106.946 73.2522 106.63 73.488 106.34 73.8024C106.05 74.1168 105.812 74.4836 105.628 74.929C105.443 75.3743 105.338 75.8721 105.338 76.3961C105.338 76.8939 105.39 77.313 105.549 77.6274C105.707 77.9418 105.891 78.1776 106.129 78.3348C106.366 78.492 106.63 78.5706 106.946 78.5968C107.263 78.623 107.553 78.5706 107.87 78.4658C108.16 78.361 108.45 78.2038 108.714 77.9942C108.977 77.7846 109.215 77.5488 109.373 77.2606C109.637 76.8677 109.821 76.4747 109.953 76.1079C110.085 75.7411 110.138 75.4267 110.164 75.1385C110.191 74.8504 110.164 74.5884 110.138 74.3264C110.111 74.1168 110.032 73.881 109.927 73.6976Z" fill="black"/>
<path d="M125.013 79.4623L122.56 82.2393L118.71 79.4099L118.657 82.1083L114.806 81.7154L114.569 69.402C116.573 69.1662 118.525 68.9566 120.371 68.7994C121.373 68.6947 122.191 68.7732 122.85 69.009C123.51 69.271 124.011 69.6378 124.354 70.1094C124.697 70.581 124.881 71.1573 124.934 71.7861C124.987 72.4149 124.881 73.0698 124.644 73.751C124.407 74.4322 124.037 75.0609 123.536 75.6897C123.035 76.3185 122.402 76.8686 121.664 77.3402L125.013 79.4623ZM118.446 72.9126L118.314 75.4539C118.71 75.3753 119.026 75.2443 119.316 75.0871C119.606 74.9299 119.844 74.7465 120.028 74.5893C120.213 74.406 120.371 74.2488 120.477 74.0654C120.582 73.9082 120.635 73.7772 120.661 73.6724C120.661 73.6462 120.661 73.5938 120.688 73.489C120.688 73.3842 120.688 73.2532 120.661 73.1222C120.635 72.965 120.529 72.8602 120.398 72.7554C120.266 72.6506 120.028 72.5983 119.738 72.6245C119.369 72.6245 118.973 72.703 118.446 72.9126Z" fill="black"/>
<path d="M125.224 69.5065L133.981 68.8516L133.48 72.8338L129.497 73.0171L129.471 73.7769L132.345 73.5673L132.003 76.3444L129.339 76.554L129.312 77.4185L133.849 76.9993L133.77 81.3483L125.277 81.7937L125.224 69.5065Z" fill="black"/>
<path d="M277.779 177.103L218.435 176.029C218.435 176.029 218.435 177.548 219.199 177.915C219.964 178.282 220.861 178.439 220.782 179.042C220.703 179.644 216.984 184.124 213.661 187.975C210.337 191.853 208.201 195.547 207.911 197.145C207.621 198.743 207.621 199.031 207.014 199.503C206.407 199.948 204.429 200.865 203.216 203.59C202.003 206.314 202.082 206.786 201.924 208.672C201.765 210.559 201.475 219.597 201.475 219.597L331.927 223.239C332.006 223.003 334.802 207.258 334.564 204.9C334.327 202.542 329.026 198.167 321.324 196.254C313.623 194.342 299.828 191.329 299.38 191.172C298.905 191.067 277.779 177.103 277.779 177.103Z" fill="#0C96FD"/>
<path d="M201.765 210.612C201.607 212.498 201.475 219.624 201.475 219.624L331.927 223.266C331.98 223.082 333.404 215.616 333.905 210.586C333.905 210.586 315.363 203.276 304.972 202.726C294.58 202.15 279.862 207.861 269.233 207.154C258.604 206.446 244.968 200.42 232.941 200.42C220.887 200.394 201.765 210.612 201.765 210.612Z" fill="#1D7DCC"/>
<path d="M217.591 214.174H200.553C200.553 214.174 199.867 217.37 200.553 219.099C201.239 220.854 203.428 223.186 207.674 223.343C211.921 223.5 332.218 223.657 332.218 223.657C332.218 223.657 333.431 222.583 334.196 219.649C334.961 216.689 333.695 212.916 333.695 212.916C333.695 212.916 332.772 214.567 328.894 215.274C325.017 215.981 310.643 215.588 310.643 215.588L298.378 221.588L233.575 219.544L217.591 214.174Z" fill="#2D2D2D"/>
<path d="M220.756 179.068C220.756 179.068 218.857 180.142 217.353 181.714C215.85 183.286 214.452 187.058 214.452 187.058C214.452 187.058 221.942 180.037 220.756 179.068Z" fill="#2D2D2D"/>
<path d="M213.344 194.236C212.131 193.24 207.436 195.31 207.225 196.882C207.014 198.454 211.076 198.768 211.762 198.166C212.448 197.563 214.188 194.917 213.344 194.236Z" fill="#7D009B"/>
<path d="M232.125 197.486C232.125 199.66 238.957 199.66 238.957 197.643C238.93 195.232 232.125 195.573 232.125 197.486Z" fill="#1D7DCC"/>
<path d="M229.408 198.482H236.424C236.635 198.482 236.819 198.298 236.819 198.089V197.067C236.819 196.857 236.635 196.674 236.424 196.674H229.408C229.197 196.674 229.012 196.857 229.012 197.067V198.089C229.012 198.298 229.197 198.482 229.408 198.482Z" fill="#878FB3"/>
<path d="M291.862 189.547L278.147 179.696C278.147 179.696 237.952 179.093 233.784 179.093C227.665 179.093 223.867 181.739 223.867 184.857C223.867 187.975 232.281 187.975 238.163 187.975C244.071 187.948 291.862 189.547 291.862 189.547Z" fill="#2D2D2D"/>
<path d="M302.889 211.292H302.757V198.507L291.812 189.6L291.891 189.495L302.889 198.429V211.292Z" fill="#024168"/>
<path d="M289.806 188.71C289.779 188.029 288.671 186.143 287.115 186.143C285.559 186.143 285.559 190.675 286.614 190.989C287.669 191.304 289.885 190.308 289.806 188.71Z" fill="#F1F3F2"/>
<path d="M251.799 219.335H251.667V201.441L253.936 188.578L254.068 188.604L251.799 201.441V219.335Z" fill="#024168"/>
<path d="M225.451 216.768H225.32V201.127L227.852 187.399L228.01 187.425L225.451 201.153V216.768Z" fill="#024168"/>
<path d="M322.776 196.699C322.776 196.699 327.497 199.79 328.103 201.441C328.71 203.091 329.475 204.637 329.844 204.69C330.213 204.768 334.539 204.925 334.539 204.925C334.539 204.925 335.014 201.231 334.407 200.812C333.8 200.393 324.569 195.808 322.776 196.699Z" fill="#F1F3F2"/>
<path d="M324.147 209.013H328.262C328.526 209.013 328.763 208.804 328.763 208.515V207.232C328.763 206.97 328.552 206.734 328.262 206.734H324.147C323.884 206.734 323.646 206.943 323.646 207.232V208.515C323.646 208.804 323.884 209.013 324.147 209.013Z" fill="#878FB3"/>
<path d="M262.404 197.486C262.404 199.66 269.235 199.66 269.235 197.643C269.209 195.232 262.404 195.573 262.404 197.486Z" fill="#1D7DCC"/>
<path d="M259.686 198.482H266.702C266.913 198.482 267.098 198.298 267.098 198.089V197.067C267.098 196.857 266.913 196.674 266.702 196.674H259.686C259.475 196.674 259.291 196.857 259.291 197.067V198.089C259.291 198.298 259.475 198.482 259.686 198.482Z" fill="#878FB3"/>
<path d="M254.384 179.356H253.672V188.342H254.384V179.356Z" fill="#024168"/>
<path d="M228.01 187.426H227.509V180.274L228.01 180.064V187.426Z" fill="#024168"/>
<path d="M219.147 223.5C218.989 222.61 218.884 221.667 218.884 220.723C218.884 212.392 225.688 205.659 234.049 205.659C242.437 205.659 249.215 212.418 249.215 220.723C249.215 221.667 249.109 222.583 248.951 223.5H219.147Z" fill="#024168"/>
<path d="M234.05 231.833C241.114 231.833 246.841 226.144 246.841 219.126C246.841 212.109 241.114 206.42 234.05 206.42C226.985 206.42 221.258 212.109 221.258 219.126C221.258 226.144 226.985 231.833 234.05 231.833Z" fill="black"/>
<path d="M234.051 227.693C238.814 227.693 242.675 223.857 242.675 219.126C242.675 214.395 238.814 210.559 234.051 210.559C229.287 210.559 225.426 214.395 225.426 219.126C225.426 223.857 229.287 227.693 234.051 227.693Z" fill="#606060"/>
<path d="M234.049 225.1C237.37 225.1 240.063 222.426 240.063 219.127C240.063 215.828 237.37 213.153 234.049 213.153C230.728 213.153 228.036 215.828 228.036 219.127C228.036 222.426 230.728 225.1 234.049 225.1Z" fill="black"/>
<path d="M241.355 223.763C241.012 224.287 240.617 224.785 240.168 225.256C239.746 225.675 239.272 226.042 238.797 226.357L226.902 214.489C227.218 214.017 227.587 213.545 228.036 213.126C228.51 212.655 229.012 212.288 229.539 211.947L241.355 223.763Z" fill="#A8A9AD"/>
<path d="M238.875 212.025C239.403 212.366 239.904 212.759 240.353 213.231C240.775 213.65 241.144 214.121 241.46 214.619L229.328 226.277C228.853 225.963 228.378 225.57 227.956 225.151C227.508 224.679 227.112 224.182 226.796 223.631L238.875 212.025Z" fill="#A8A9AD"/>
<path d="M288.038 223.5C287.88 222.61 287.775 221.667 287.775 220.723C287.775 212.392 294.579 205.659 302.94 205.659C311.301 205.659 318.106 212.418 318.106 220.723C318.106 221.667 318.001 222.583 317.842 223.5H288.038Z" fill="#024168"/>
<path d="M302.941 231.833C310.005 231.833 315.733 226.144 315.733 219.126C315.733 212.109 310.005 206.42 302.941 206.42C295.876 206.42 290.149 212.109 290.149 219.126C290.149 226.144 295.876 231.833 302.941 231.833Z" fill="black"/>
<path d="M302.942 227.693C307.705 227.693 311.567 223.857 311.567 219.126C311.567 214.395 307.705 210.559 302.942 210.559C298.179 210.559 294.317 214.395 294.317 219.126C294.317 223.857 298.179 227.693 302.942 227.693Z" fill="#606060"/>
<path d="M302.94 225.1C306.261 225.1 308.954 222.426 308.954 219.127C308.954 215.828 306.261 213.153 302.94 213.153C299.619 213.153 296.927 215.828 296.927 219.127C296.927 222.426 299.619 225.1 302.94 225.1Z" fill="black"/>
<path d="M310.246 223.763C309.903 224.287 309.508 224.785 309.059 225.256C308.637 225.675 308.163 226.042 307.688 226.357L295.793 214.489C296.109 214.017 296.478 213.545 296.927 213.126C297.402 212.655 297.903 212.288 298.43 211.947L310.246 223.763Z" fill="#A8A9AD"/>
<path d="M307.767 212.025C308.294 212.366 308.795 212.759 309.244 213.231C309.666 213.65 310.035 214.121 310.351 214.619L298.219 226.277C297.744 225.963 297.269 225.57 296.847 225.151C296.399 224.679 296.003 224.182 295.687 223.631L307.767 212.025Z" fill="#A8A9AD"/>
<path d="M210.522 263.95L212.078 275.635C212.078 275.635 222.628 276.028 225.477 276.473C228.906 276.997 232.836 277.338 233.838 280.429C234.708 283.101 234.418 284.254 234.418 284.254L202.689 288.944L202.662 265.129L210.522 263.95Z" fill="#F69576"/>
<path d="M212.078 275.634C212.078 275.634 222.628 276.027 225.477 276.473C228.906 276.997 232.835 277.337 233.838 280.429C234.708 283.101 234.418 284.254 234.418 284.254L202.689 288.943L202.161 277.101L212.078 275.634Z" fill="#BFBFBF"/>
<path d="M233.839 280.429C234.023 280.979 234.129 281.45 234.234 281.87L202.558 286.533L202.136 277.101L212.053 275.634C212.053 275.634 222.603 276.027 225.451 276.473C228.907 276.97 232.836 277.311 233.839 280.429Z" fill="#032240"/>
<path d="M174.125 266.021L173.94 277.81C173.94 277.81 184.305 279.749 187.075 280.587C190.398 281.609 194.222 282.526 194.776 285.722C195.251 288.499 194.776 289.574 194.776 289.574H162.678L166.159 266.021H174.125Z" fill="#F69576"/>
<path d="M173.94 277.785C173.94 277.785 184.305 279.723 187.075 280.562C190.398 281.583 194.222 282.5 194.776 285.696C195.251 288.474 194.776 289.548 194.776 289.548H162.678L163.917 277.758H173.94V277.785Z" fill="#BFBFBF"/>
<path d="M194.776 285.721C194.882 286.272 194.934 286.769 194.961 287.188H162.941L163.917 277.783H173.94C173.94 277.783 184.305 279.722 187.074 280.56C190.371 281.582 194.222 282.499 194.776 285.721Z" fill="#032240"/>
<path d="M173.335 166.755H210.682C210.682 166.755 213.056 197.381 213.847 206.21C214.638 215.039 214.427 224.287 213.847 227.614C213.267 230.942 212.264 234.688 212.264 234.688L211.684 272.571H202.189C202.189 272.571 199.235 256.276 198.048 241.945C196.861 227.614 197.257 224.654 197.072 222.113C196.888 219.571 192.931 199.529 192.931 199.529C192.931 199.529 188.738 221.327 187.155 227.221C185.573 233.116 183.805 236.26 183.41 238.015C183.014 239.77 174.495 275.925 174.495 275.925H164.209C164.209 275.925 167.558 239.011 168.35 230.182C169.141 221.353 171.304 216.82 170.908 212.314C170.565 207.782 171.145 177.549 173.335 166.755Z" fill="#254B6B"/>
<path d="M197.573 60.3362C197.573 60.3362 191.533 56.5374 184.702 60.8601C180.139 63.7682 179.585 73.9856 181.273 77.4701C182.961 80.9545 190.742 87.2946 190.742 87.2946C190.742 87.2946 219.913 66.2047 197.573 60.3362Z" fill="#A5713D"/>
<path d="M217.038 120.565L217.117 135.525C217.117 135.525 235.131 135.734 236.292 135.446C237.452 135.158 243.255 130.573 243.861 130.338C244.468 130.102 245.048 130.338 244.811 131.045C244.573 131.752 243.677 133.953 243.677 133.953C243.677 133.953 248.081 133.455 248.503 133.219C248.899 132.984 251.537 130.94 252.09 130.783C252.644 130.626 253.567 130.966 253.33 131.543C253.093 132.119 250.587 135.315 250.587 135.315C250.587 135.315 251.088 138.721 249.796 139.979C248.477 141.236 242.384 142.258 239.404 142.441C236.424 142.625 213.899 145.48 212.026 145.402C210.154 145.323 207.384 144.747 206.435 140.738C205.485 136.73 205.143 121.351 205.143 121.351L217.038 120.565Z" fill="#DD866F"/>
<path d="M190.845 94.7877C202.345 94.552 206.037 96.2549 208.464 101.599C210.864 106.944 216.983 153.892 217.537 163.481C218.091 173.043 216.245 178.754 203.083 178.754C189.922 178.754 171.934 168.065 171.934 168.065C171.934 168.065 171.196 171.393 170.642 173.41C170.088 175.427 164.523 177.654 164.523 174.143C164.523 170.633 166.923 115.773 167.292 106.577C167.662 97.3814 182.142 94.9711 190.845 94.7877Z" fill="black"/>
<path d="M203.085 97.906C207.621 96.7271 211.788 96.8056 215.138 103.434C218.488 110.062 221.072 130.68 221.072 130.68L205.669 136.759C205.669 136.759 191.031 101.05 203.085 97.906Z" fill="black"/>
<path d="M194.801 93.8428C190.739 93.8428 185.965 94.2358 183.46 95.8077C180.427 97.7464 180.479 105.003 193.852 105.606C207.224 106.209 206.802 99.9995 205.457 98.1655C203.479 95.4933 197.913 93.8428 194.801 93.8428Z" fill="#F69576"/>
<path d="M200.024 85.5137L202.635 102.15H186.836C186.836 102.15 187.601 95.5477 188.498 91.2512C189.395 86.9546 190.159 85.5137 190.159 85.5137H200.024Z" fill="#F69576"/>
<path d="M193.14 90.046C193.14 90.046 193.008 93.1113 195.065 94.4474C197.122 95.7835 201.633 95.8097 201.633 95.8097L200.024 85.5137H193.351C193.351 85.5137 192.876 88.1073 193.14 90.046Z" fill="#DD866F"/>
<path d="M202.267 65.3397C202.267 65.3397 204.271 66.9902 205.141 70.6056C205.801 73.3827 205.669 76.3955 206.012 78.0722C206.355 79.7489 206.935 82.4474 206.434 84.7791C205.959 87.1107 203.875 90.307 199.998 91.3811C196.121 92.4553 192.956 91.6955 190.82 88.997C188.683 86.3248 186.046 81.5304 185.255 78.2032C184.463 74.876 184.041 68.5621 187.602 65.8112C192.165 62.2744 197.624 62.222 202.267 65.3397Z" fill="#F69576"/>
<path d="M195.251 84.099C195.251 84.099 195.621 86.3782 196.966 86.8498C198.311 87.3214 199.682 87.007 200.316 86.2472C200.949 85.4875 201.265 84.0728 201.265 84.0728L195.251 84.099Z" fill="white"/>
<path d="M198.546 81.6092C198.441 81.6092 198.361 81.5831 198.282 81.5307C198.124 81.3997 198.098 81.1377 198.098 80.9805C198.098 80.9543 198.098 80.9281 198.098 80.9019C198.071 80.9281 197.992 80.9805 197.887 81.0853C197.781 81.2163 197.623 81.2687 197.465 81.2163C197.254 81.1639 197.095 80.9543 197.043 80.6661C196.937 80.1945 197.386 79.4348 197.438 79.3562C197.465 79.3038 197.544 79.2776 197.623 79.3038C197.676 79.33 197.702 79.4086 197.676 79.4872C197.544 79.6967 197.254 80.3255 197.333 80.6399C197.385 80.8495 197.491 80.9543 197.57 80.9805C197.649 81.0067 197.702 80.9543 197.728 80.9281C197.913 80.7185 198.071 80.6399 198.177 80.6399C198.256 80.6399 198.309 80.6923 198.335 80.7447C198.361 80.7971 198.361 80.8757 198.388 80.9805C198.388 81.1115 198.388 81.2687 198.467 81.3473C198.493 81.3735 198.572 81.3735 198.652 81.3735C198.836 81.3473 198.863 81.2163 198.836 80.9281C198.836 80.7971 198.836 80.6661 198.915 80.6137C198.942 80.5875 198.994 80.5613 199.047 80.5613C199.153 80.5613 199.232 80.6399 199.311 80.6923C199.469 80.8233 199.548 80.8495 199.654 80.7447C199.707 80.6923 199.733 80.5875 199.733 80.4565C199.707 80.0635 199.443 79.5396 199.258 79.4086C199.205 79.3562 199.179 79.2776 199.232 79.2252C199.285 79.1728 199.364 79.1466 199.416 79.199C199.68 79.3824 199.97 80.0111 199.997 80.4303C199.997 80.6661 199.97 80.8233 199.838 80.9281C199.548 81.1901 199.311 81.0067 199.153 80.9019C199.126 80.8757 199.1 80.8757 199.1 80.8495C199.1 80.8757 199.1 80.9019 199.1 80.9019C199.1 81.1377 199.126 81.5569 198.678 81.6354C198.625 81.6092 198.572 81.6092 198.546 81.6092Z" fill="#6B3425"/>
<path d="M179.32 75.7668C180.507 72.8063 189.237 75.4786 187.628 80.9279C185.966 86.5082 177.553 80.1158 179.32 75.7668Z" fill="#F69576"/>
<path d="M185.993 81.6092C185.966 81.6092 185.94 81.6092 185.914 81.583C185.861 81.5306 185.861 81.452 185.914 81.3996C186.283 81.0066 186.336 79.7753 185.887 78.5701C185.571 77.7056 184.753 76.2384 182.88 76.0289C181.878 75.8979 181.166 76.0813 180.77 76.5266C180.19 77.2078 180.454 78.3081 180.454 78.3081C180.48 78.3867 180.428 78.4391 180.348 78.4653C180.269 78.4915 180.217 78.4391 180.19 78.3605C180.164 78.3081 179.874 77.1292 180.559 76.3432C181.008 75.8193 181.799 75.6097 182.907 75.7669C184.384 75.9503 185.544 76.9458 186.125 78.4915C186.573 79.7229 186.573 81.0852 186.098 81.583C186.072 81.583 186.045 81.6092 185.993 81.6092Z" fill="#6B3425"/>
<path d="M182.88 81.1115C182.827 81.1115 182.775 81.0853 182.748 81.0329C182.696 80.9281 181.746 78.544 183.17 75.8718C183.197 75.8194 183.276 75.7932 183.355 75.8194C183.408 75.8456 183.434 75.9242 183.408 76.0028C182.036 78.5702 182.986 80.9281 182.986 80.9281C183.012 81.0067 182.986 81.0591 182.907 81.0853C182.907 81.1115 182.88 81.1115 182.88 81.1115Z" fill="#6B3425"/>
<path d="M194.327 79.067C194.589 79.067 194.802 78.6447 194.802 78.1238C194.802 77.6029 194.589 77.1807 194.327 77.1807C194.065 77.1807 193.852 77.6029 193.852 78.1238C193.852 78.6447 194.065 79.067 194.327 79.067Z" fill="#6B3425"/>
<path d="M192.112 75.5841C192.482 75.2697 193.247 74.8768 194.038 74.772C194.908 74.6934 195.409 75.0601 195.752 75.1649C196.095 75.2435 196.148 74.772 195.963 74.379C195.779 73.986 195.04 73.6716 193.853 73.6978C192.666 73.7502 192.007 74.2742 191.69 74.641C191.348 75.0077 191.611 76.0295 192.112 75.5841Z" fill="#6B3425"/>
<path d="M201.687 78.8062C201.949 78.8062 202.162 78.384 202.162 77.8631C202.162 77.3422 201.949 76.9199 201.687 76.9199C201.425 76.9199 201.212 77.3422 201.212 77.8631C201.212 78.384 201.425 78.8062 201.687 78.8062Z" fill="#6B3425"/>
<path d="M199.919 75.2428C200.289 74.9284 201.053 74.5354 201.845 74.4307C202.715 74.3521 203.216 74.7188 203.559 74.8236C203.902 74.9022 203.955 74.4307 203.77 74.0377C203.585 73.6447 202.847 73.3303 201.66 73.3565C200.473 73.3827 199.814 73.9329 199.497 74.2997C199.181 74.6402 199.418 75.662 199.919 75.2428Z" fill="#6B3425"/>
<path d="M203.032 86.8745L202.426 87.0317C202.426 87.0317 201.265 89.311 200.289 89.7564C199.313 90.2017 196.122 90.0445 195.779 89.7564C195.436 89.4682 194.328 86.9269 194.328 86.9269L193.563 87.1103C193.563 87.1103 194.698 90.7519 194.882 91.0925C194.988 91.2759 197.098 92.7168 197.915 92.7954C198.733 92.874 201.582 91.3283 201.713 90.9877C202.188 89.9135 203.032 86.8745 203.032 86.8745Z" fill="#6B3425"/>
<path d="M199.39 88.2897L197.992 88.2373L197.94 90.7262L199.021 90.9358L199.39 88.2897Z" fill="#6B3425"/>
<path opacity="0.4" d="M171.329 107.938L174.889 127.928L168.507 129.841L171.329 107.938Z" fill="#254B6B"/>
<path d="M186.811 61.8814C186.811 61.8814 190.134 67.8285 199.339 68.3525C218.514 69.4528 209.731 58.7638 209.731 58.7638C209.731 58.7638 210.417 61.5932 207.12 61.7504C202.61 61.9862 196.069 48.3629 186.811 61.8814Z" fill="#A5713D"/>
<path d="M258.367 118.811C258.367 118.811 251.456 118.235 249.821 118.078C248.186 117.947 208.122 123.972 206.618 124.287C205.115 124.601 198.996 127.352 198.996 127.352L196.833 123.553L202.847 119.519L250.929 112.917L258.287 114.2L258.367 118.811Z" fill="#383D42"/>
<path d="M243.649 120.252L242.224 111.973C242.013 110.768 240.879 109.929 239.64 110.06L216.561 112.864C215.243 113.021 214.32 114.226 214.531 115.536L215.928 124.024C216.139 125.256 217.274 126.12 218.54 125.937L241.671 122.924C242.963 122.767 243.86 121.562 243.649 120.252Z" fill="#263644"/>
<path d="M249.611 142.755H203.639C200.5 142.755 197.942 140.214 197.942 137.097V128.844C197.942 125.726 200.5 123.185 203.639 123.185H249.611C252.75 123.185 255.308 125.726 255.308 128.844V137.097C255.308 140.24 252.776 142.755 249.611 142.755Z" fill="#3D3D3D"/>
<mask id="mask0_131_7038" style="mask-type:luminance" maskUnits="userSpaceOnUse" x="197" y="123" width="59" height="20">
<path d="M249.611 142.755H203.639C200.5 142.755 197.942 140.214 197.942 137.097V128.844C197.942 125.726 200.5 123.185 203.639 123.185H249.611C252.75 123.185 255.308 125.726 255.308 128.844V137.097C255.308 140.24 252.776 142.755 249.611 142.755Z" fill="white"/>
</mask>
<g mask="url(#mask0_131_7038)">
<path d="M203.692 129.079L199.393 126.669L199.156 122.189H193.538V125.726L198.892 129.079H203.692Z" fill="black"/>
<path d="M201.345 135.157L205.09 132.799L201.529 130.467H196.465L199.736 132.799L196.043 135.157H201.345Z" fill="black"/>
<path d="M198.892 136.677L193.538 140.031V143.567H199.156L199.393 139.088L203.692 136.677H198.892Z" fill="black"/>
<path d="M211.341 129.079L207.015 126.669L206.778 122.189H201.187V125.726L206.541 129.079H211.341Z" fill="black"/>
<path d="M212.712 132.799L209.152 130.467H204.088L207.358 132.799L203.692 135.157H208.994L212.712 132.799Z" fill="black"/>
<path d="M206.541 136.677L201.187 140.031V143.567H206.778L207.015 139.088L211.341 136.677H206.541Z" fill="black"/>
<path d="M219.675 129.079L215.35 126.669L215.113 122.189H209.521V125.726L214.875 129.079H219.675Z" fill="black"/>
<path d="M221.047 132.799L217.487 130.467H212.422L215.693 132.799L212.027 135.157H217.328L221.047 132.799Z" fill="black"/>
<path d="M214.875 136.677L209.521 140.031V143.567H215.113L215.35 139.088L219.675 136.677H214.875Z" fill="black"/>
<path d="M227.299 129.079L223 126.669L222.762 122.189H217.144V125.726L222.498 129.079H227.299Z" fill="black"/>
<path d="M228.696 132.799L225.135 130.467H220.071L223.342 132.799L219.676 135.157H224.951L228.696 132.799Z" fill="black"/>
<path d="M222.498 136.677L217.144 140.03V143.567H222.762L223 139.087L227.299 136.677H222.498Z" fill="black"/>
<path d="M234.947 129.079L230.648 126.669L230.411 122.189H224.793V125.726L230.147 129.079H234.947Z" fill="black"/>
<path d="M236.345 132.799L232.785 130.467H227.721L230.991 132.799L227.299 135.157H232.6L236.345 132.799Z" fill="black"/>
<path d="M230.147 136.677L224.793 140.03V143.567H230.411L230.648 139.087L234.947 136.677H230.147Z" fill="black"/>
<path d="M242.596 129.079L238.271 126.669L238.033 122.189H232.442V125.726L237.796 129.079H242.596Z" fill="black"/>
<path d="M243.968 132.799L240.407 130.467H235.343L238.613 132.799L234.947 135.157H240.249L243.968 132.799Z" fill="black"/>
<path d="M237.796 136.677L232.442 140.03V143.567H238.033L238.271 139.087L242.596 136.677H237.796Z" fill="black"/>
<path d="M250.931 129.079L246.605 126.669L246.368 122.189H240.776V125.726L246.13 129.079H250.931Z" fill="black"/>
<path d="M252.302 132.799L248.742 130.467H243.678L246.948 132.799L243.282 135.157H248.583L252.302 132.799Z" fill="black"/>
<path d="M246.13 136.677L240.776 140.03V143.567H246.368L246.605 139.087L250.931 136.677H246.13Z" fill="black"/>
<path d="M258.552 129.079L254.253 126.669L254.015 122.189H248.397V125.726L253.751 129.079H258.552Z" fill="black"/>
<path d="M259.951 132.799L256.39 130.467H251.326L254.597 132.799L250.931 135.157H256.206L259.951 132.799Z" fill="black"/>
<path d="M248.397 140.03V143.567H254.015L254.253 139.087L258.552 136.677H253.751L248.397 140.03Z" fill="black"/>
</g>
<path d="M186.284 127.797L186.363 142.782C186.363 142.782 204.377 142.992 205.538 142.704C206.698 142.416 212.501 137.831 213.107 137.595C213.714 137.359 214.294 137.595 214.057 138.303C213.819 139.01 212.923 141.211 212.923 141.211C212.923 141.211 217.327 140.713 217.749 140.477C218.145 140.241 220.782 138.198 221.336 138.041C221.89 137.857 222.813 138.224 222.576 138.8C222.338 139.377 219.833 142.521 219.833 142.521C219.833 142.521 220.334 145.926 219.042 147.184C217.723 148.441 211.63 149.463 208.65 149.647C205.669 149.83 183.145 152.686 181.272 152.607C179.4 152.528 176.63 151.952 175.681 147.944C174.731 143.935 174.388 128.557 174.388 128.557L186.284 127.797Z" fill="#F69576"/>
</svg>
