<svg width="375" height="306" viewBox="0 0 375 306" fill="none" xmlns="http://www.w3.org/2000/svg">
<path d="M170.574 53.5237C188.735 56.9557 222.955 -13.0994 260.855 2.35777C298.754 17.815 270.895 67.6186 284.404 78.7792C297.913 89.9398 334.919 55.5934 350.478 91.6689C366.037 127.744 342.409 166.361 342.068 172.361C341.726 178.36 384.724 210.611 372.792 255.017C360.86 299.424 202.402 303.721 145.842 305.424C89.2825 307.126 13.6677 306.995 2.52396 260.702C-8.61982 214.409 42.0003 174.09 46.6786 161.148C51.3568 148.206 9.01574 103.17 62.1064 47.8124C103.133 5.00384 152.413 50.0917 170.574 53.5237Z" fill="#9ECBDD"/>
<path d="M160.43 166.36H78.3237V188.498H160.43V166.36Z" fill="#776B67"/>
<path d="M161.56 168.012H76.3784V139.665H144.897L161.56 153.577V168.012Z" fill="#6B3425"/>
<path d="M123.819 188.499H78.3237V159.236L101.084 140.818L123.819 159.236V188.499Z" fill="#776B67"/>
<path d="M130.678 124.967H123.818V140.817H130.678V124.967Z" fill="#A5713D"/>
<path d="M133.28 137.726H121.506V142.887H133.28V137.726Z" fill="#E7D0B0"/>
<path d="M99.9019 153.837H97.1948V160.544H99.9019V153.837Z" fill="#417A8C"/>
<path d="M104.186 153.837H101.085V160.544H104.186V153.837Z" fill="#417A8C"/>
<path d="M89.7032 170.58H85.9448V171.864H89.7032V170.58Z" fill="#417A8C"/>
<path d="M93.9597 170.58H90.8584V171.864H93.9597V170.58Z" fill="#417A8C"/>
<path d="M89.7032 172.78H85.9448V181.032H89.7032V172.78Z" fill="#417A8C"/>
<path d="M93.9597 172.78H90.8584V181.032H93.9597V172.78Z" fill="#417A8C"/>
<path d="M132.334 171.862H128.208V174.823H132.334V171.862Z" fill="#417A8C"/>
<path d="M132.334 176.892H128.208V179.59H132.334V176.892Z" fill="#417A8C"/>
<path d="M132.334 181.033H128.208V183.731H132.334V181.033Z" fill="#417A8C"/>
<path d="M138.537 171.862H134.41V174.823H138.537V171.862Z" fill="#417A8C"/>
<path d="M138.537 176.892H134.41V179.59H138.537V176.892Z" fill="#417A8C"/>
<path d="M138.537 181.033H134.41V183.731H138.537V181.033Z" fill="#417A8C"/>
<path d="M144.765 171.862H140.639V174.823H144.765V171.862Z" fill="#417A8C"/>
<path d="M144.765 176.892H140.639V179.59H144.765V176.892Z" fill="#417A8C"/>
<path d="M144.765 181.033H140.639V183.731H144.765V181.033Z" fill="#417A8C"/>
<path d="M150.967 171.862H146.841V174.823H150.967V171.862Z" fill="#417A8C"/>
<path d="M150.967 176.892H146.841V179.59H150.967V176.892Z" fill="#417A8C"/>
<path d="M150.967 181.033H146.841V183.731H150.967V181.033Z" fill="#417A8C"/>
<path d="M157.17 171.862H153.043V174.823H157.17V171.862Z" fill="#417A8C"/>
<path d="M157.17 176.892H153.043V179.59H157.17V176.892Z" fill="#417A8C"/>
<path d="M157.17 181.033H153.043V183.731H157.17V181.033Z" fill="#417A8C"/>
<path d="M111.413 170.58H107.655V171.864H111.413V170.58Z" fill="#417A8C"/>
<path d="M115.67 170.58H112.568V171.864H115.67V170.58Z" fill="#417A8C"/>
<path d="M111.413 172.78H107.655V181.032H111.413V172.78Z" fill="#417A8C"/>
<path d="M115.67 172.78H112.568V181.032H115.67V172.78Z" fill="#417A8C"/>
<path d="M279.859 136.601H277.493V145.194H279.859V136.601Z" fill="#6B3425"/>
<path d="M328.428 166.494H267.821V145.194L298.125 137.963L328.428 145.194V166.494Z" fill="#E7D0B0"/>
<path d="M330.373 166.494H265.666V187.191H330.373V166.494Z" fill="#A5713D"/>
<path d="M279.202 151.559H275.812V159.864H279.202V151.559Z" fill="#417A8C"/>
<path d="M284.302 151.559H279.833V159.864H284.302V151.559Z" fill="#417A8C"/>
<path d="M298.02 151.559H294.629V159.864H298.02V151.559Z" fill="#417A8C"/>
<path d="M303.145 151.559H298.677V159.864H303.145V151.559Z" fill="#417A8C"/>
<path d="M315.392 151.559H312.001V159.864H315.392V151.559Z" fill="#417A8C"/>
<path d="M320.517 151.559H316.049V159.864H320.517V151.559Z" fill="#417A8C"/>
<path d="M279.202 168.904H275.812V177.209H279.202V168.904Z" fill="#417A8C"/>
<path d="M284.302 168.904H279.833V177.209H284.302V168.904Z" fill="#417A8C"/>
<path d="M298.02 168.904H294.629V177.209H298.02V168.904Z" fill="#417A8C"/>
<path d="M303.145 168.904H298.677V177.209H303.145V168.904Z" fill="#417A8C"/>
<path d="M315.392 168.904H312.001V177.209H315.392V168.904Z" fill="#417A8C"/>
<path d="M320.517 168.904H316.049V177.209H320.517V168.904Z" fill="#417A8C"/>
<path d="M2.52379 260.702C13.6676 306.995 89.3086 307.152 145.842 305.423C202.376 303.694 360.833 299.424 372.792 255.017C380.913 224.81 363.619 200.209 351.818 185.695H28.0441C12.9842 204.768 -4.49364 231.543 2.52379 260.702Z" fill="#776B67"/>
<path d="M13.4314 206.707C4.17996 222.557 -2.20668 241.105 2.52417 260.702C13.6679 306.995 89.309 307.152 145.843 305.423C202.376 303.694 360.833 299.423 372.792 255.017C377.786 236.442 373.16 219.989 366.143 206.707H13.4314Z" fill="#8A9995"/>
<path d="M187.605 150.537C187.605 150.537 198.486 145.953 203.585 155.62C208.684 165.287 199.958 171.444 195.595 171.732C191.232 172.02 186.712 170.553 183.584 171.837C180.456 173.095 174.464 178.963 167.604 178.675C160.745 178.387 154.332 173.042 152.912 162.143C150.547 144.381 165.659 146.424 165.659 146.424C165.659 146.424 161.244 132.067 169.786 127.273C178.328 122.479 187.816 126.775 190.654 133.823C193.466 140.844 187.605 150.537 187.605 150.537Z" fill="#96C22F"/>
<path d="M179.564 138.8C179.564 138.8 179.958 148.179 178.381 150.904C176.804 153.629 174.36 156.17 174.57 156.773C174.754 157.349 183.191 173.697 185.635 179.539C188.079 185.381 187.606 187.242 187.002 188.525C186.424 189.783 186.608 199.45 186.608 199.45H180.247C180.247 199.45 180.326 192.534 181.009 189.678C181.719 186.849 182.586 186.849 182.297 185.486C182.008 184.124 171.022 158.423 171.995 156.065C172.967 153.707 176.2 153.052 177.093 149.83C177.987 146.607 179.564 138.8 179.564 138.8Z" fill="#6B3425"/>
<path d="M191.416 159.523C191.416 159.523 185.817 164.711 184.451 166.938C183.084 169.191 180.981 173.278 180.981 173.278L182.979 176.212C182.979 176.212 185.003 168.981 186.212 167.331C187.394 165.68 191.416 159.523 191.416 159.523Z" fill="#6B3425"/>
<path d="M158.379 158.843C158.379 158.843 164.162 162.353 167.973 163.244C171.783 164.135 176.304 164.816 176.304 164.816L177.487 167.881C177.487 167.881 159.063 163.428 158.379 158.843Z" fill="#6B3425"/>
<path d="M218.015 120.959C218.015 120.959 214.756 114.671 222.168 113.964C221.406 108.96 228.66 101.415 241.249 104.637C243.378 99.1877 255.389 89.5728 263.747 101.284C279.674 94.6291 281.934 104.218 279.805 105.947C292.158 103.72 289.977 112.156 287.9 113.099C304.248 109.615 301.988 120.959 301.988 120.959H218.015Z" fill="white"/>
<path d="M114.96 64.9462C114.96 64.9462 113.593 61.4618 116.695 61.0689C116.379 58.2918 119.402 54.1262 124.658 55.9077C125.552 52.8949 130.572 47.5766 134.041 54.0476C140.691 50.3536 141.637 55.6719 140.743 56.6151C145.895 55.3838 145.001 60.0471 144.107 60.5711C150.941 58.6324 149.995 64.9201 149.995 64.9201H114.96V64.9462Z" fill="white"/>
<path d="M84.0506 198.874H72.6177V205.423H84.0506V198.874Z" fill="#6B3425"/>
<path d="M95.1432 184.097H109.651L105.393 165.994L95.1432 162.143H104.474L103.37 157.479L86.8643 156.222L102.345 153.104L100.163 143.83L86.8643 139.664C86.8643 139.664 94.1182 139.245 99.0068 138.983L92.4099 110.819L81.5815 109.876L91.9105 108.724L78.3224 50.9556L70.3063 85.0662H75.2737L69.5967 88.079L67.0473 98.8991H76.2987L66.5216 101.231L65.628 105.003H70.8056L65.2075 106.811L59.8458 129.551L72.6454 132.25L58.558 135.106L54.2477 153.392H67.5466L52.9073 159.051L48.4392 177.967C55.4567 178.988 65.6806 180.429 65.6806 180.429L47.2565 182.997L43.5244 198.873H113.147L111.07 190.044L95.1432 184.097Z" fill="#7EA21A"/>
<path d="M316.363 191.907L322.513 191.907L322.513 188.37L316.363 188.37L316.363 191.907Z" fill="#6B3425"/>
<path d="M310.371 180.404H302.565L304.852 170.658L310.371 168.588H305.351L305.929 166.073L314.813 165.392L306.481 163.715L307.664 158.711L314.813 156.458C314.813 156.458 310.897 156.222 308.268 156.091L311.843 140.922L317.678 140.425L312.106 139.796L319.439 108.672L323.775 127.037H321.094L324.143 128.661L325.51 134.478H320.542L325.825 135.735L326.298 137.779H323.486L326.509 138.748L329.4 150.983L322.514 152.424L330.109 153.969L332.422 163.82H325.273L333.158 166.859L335.55 177.05C331.765 177.6 326.272 178.386 326.272 178.386L336.207 179.775L338.231 188.316H300.673L301.803 183.548L310.371 180.404Z" fill="#7EA21A"/>
<path d="M239.987 83.3115H78.1919V207.126H239.987V83.3115Z" fill="#7A7A7A"/>
<path d="M242.589 78.439H69.0718V92.2194H242.589V78.439Z" fill="#A5713D"/>
<path d="M244.061 78.439H185.819V210.663H244.061V78.439Z" fill="#A5713D"/>
<path d="M84.9722 85.3291H74.6694V210.663H84.9722V85.3291Z" fill="#A5713D"/>
<path d="M189.945 88.9702H79.7954V108.907H189.945V88.9702Z" fill="#A5713D"/>
<path d="M182.874 93.6855H83.1841V103.641H182.874V93.6855Z" fill="#E7D0B0"/>
<path d="M236.413 92.2188H195.229V206.55H236.413V92.2188Z" fill="#E7D0B0"/>
<path d="M219.749 56.5889H112.7V82.4207H219.749V56.5889Z" fill="white"/>
<path d="M128.049 65.3397L125.605 68.3264C125.106 67.8024 124.659 67.4618 124.291 67.3046C123.923 67.1474 123.581 67.1212 123.318 67.1998C123.056 67.2784 122.819 67.4356 122.635 67.6976C122.451 67.9334 122.293 68.1954 122.188 68.4574C122.083 68.7193 121.978 69.0337 121.873 69.4529C121.873 69.4791 121.899 69.5839 121.925 69.8197C121.978 70.0293 122.057 70.2913 122.215 70.5532C122.372 70.8152 122.583 71.0248 122.872 71.1558C123.161 71.2868 123.555 71.2606 124.028 71.1034C124.501 70.9462 125.132 70.527 125.842 69.8721L128.575 72.7801C128.443 73.0421 128.207 73.3303 127.839 73.6185C127.497 73.9067 127.077 74.1425 126.604 74.3782C126.131 74.614 125.605 74.7974 125.027 74.9546C124.449 75.1118 123.87 75.1904 123.292 75.2166C122.714 75.2428 122.109 75.1904 121.557 75.0332C120.979 74.876 120.454 74.614 119.981 74.2472C119.271 73.6971 118.772 73.1207 118.43 72.4657C118.088 71.8108 117.904 71.1558 117.825 70.4746C117.747 69.7935 117.825 69.1123 117.983 68.405C118.167 67.7238 118.404 67.0688 118.719 66.4663C119.034 65.8637 119.402 65.3135 119.823 64.8419C120.243 64.3704 120.69 63.9774 121.111 63.6892C121.479 63.4796 121.82 63.3224 122.162 63.2438C122.477 63.139 122.872 63.0866 123.318 63.0342C123.765 62.9818 124.238 63.0342 124.764 63.1652C125.29 63.2962 125.815 63.532 126.393 63.8726C126.919 64.1608 127.497 64.6847 128.049 65.3397Z" fill="#512176"/>
<path d="M133.99 62.5884L141.033 73.2774L136.644 74.9279L135.461 72.9892L132.518 73.094L131.94 75.1899L127.734 73.8276L133.99 62.5884ZM133.28 70.8671L134.936 70.579L134.252 68.6927L133.28 70.8671Z" fill="#512176"/>
<path d="M149.995 72.7264L147.84 75.1629L144.449 72.674L144.397 75.0581L141.006 74.7175L140.796 63.8451C142.557 63.6355 144.265 63.4521 145.895 63.3211C146.762 63.2163 147.498 63.2949 148.076 63.5045C148.654 63.7141 149.101 64.0547 149.39 64.4739C149.679 64.893 149.863 65.3908 149.916 65.941C149.968 66.4912 149.863 67.0675 149.679 67.6701C149.495 68.2727 149.154 68.8228 148.707 69.3992C148.26 69.9494 147.708 70.4471 147.051 70.8401L149.995 72.7264ZM144.239 66.9627L144.107 69.1896C144.449 69.111 144.738 69.0062 144.975 68.8752C145.211 68.7442 145.422 68.587 145.606 68.4299C145.79 68.2727 145.895 68.1155 146 67.9845C146.079 67.8535 146.131 67.7225 146.158 67.6439C146.158 67.6177 146.158 67.5653 146.184 67.4867C146.184 67.4081 146.184 67.2771 146.158 67.1461C146.131 67.0151 146.052 66.9103 145.921 66.8055C145.79 66.7269 145.606 66.6745 145.343 66.6745C145.027 66.7007 144.686 66.7793 144.239 66.9627Z" fill="#512176"/>
<path d="M160.323 67.7505C160.612 67.8815 160.901 68.0387 161.217 68.1959C161.532 68.353 161.795 68.5626 162.032 68.7984C162.268 69.0342 162.478 69.3224 162.636 69.663C162.794 70.0036 162.899 70.3965 162.899 70.8681C162.925 71.5231 162.82 72.0995 162.584 72.6234C162.347 73.1212 162.005 73.5666 161.559 73.9072C161.112 74.2477 160.586 74.5359 159.982 74.7193C159.377 74.9027 158.694 75.0075 158.01 75.0337C157.695 75.0337 157.353 75.0337 157.012 74.9813C156.67 74.9289 156.328 74.8765 155.987 74.7979C155.645 74.7193 155.33 74.6145 155.014 74.5097C154.699 74.4049 154.41 74.2739 154.121 74.1429L155.172 71.1563C155.303 71.2087 155.461 71.2873 155.671 71.3659C155.855 71.4445 156.066 71.5231 156.302 71.6017C156.539 71.6803 156.749 71.7327 157.012 71.7851C157.248 71.8375 157.485 71.8637 157.721 71.8637C158.063 71.8375 158.352 71.7851 158.589 71.6803C158.825 71.5755 158.93 71.4183 158.93 71.1563C158.93 70.9991 158.851 70.8681 158.694 70.7895C158.536 70.7109 158.352 70.6323 158.142 70.5537C158.01 70.5013 157.826 70.4489 157.59 70.3965C157.353 70.3441 157.117 70.2393 156.854 70.1346C156.591 70.0298 156.328 69.8988 156.066 69.7416C155.803 69.5844 155.566 69.401 155.33 69.1652C155.119 68.9556 154.935 68.6936 154.778 68.4054C154.62 68.1173 154.567 67.7767 154.541 67.3837C154.515 66.7287 154.646 66.1524 154.883 65.6546C155.119 65.1568 155.461 64.7114 155.882 64.3709C156.302 64.0041 156.801 63.7421 157.353 63.5587C157.905 63.3753 158.51 63.2705 159.141 63.2443C159.719 63.2181 160.297 63.2443 160.875 63.3491C161.453 63.4277 162.005 63.5849 162.505 63.7945L161.69 67.0169C161.322 66.8597 160.98 66.7287 160.665 66.6239C160.35 66.5191 160.008 66.4405 159.587 66.3881C159.456 66.3619 159.298 66.362 159.088 66.362C158.904 66.362 158.694 66.3881 158.51 66.4143C158.326 66.4405 158.142 66.5191 158.01 66.6239C157.879 66.7287 157.8 66.8597 157.8 67.0169C157.8 67.0955 157.826 67.1479 157.905 67.2003C157.984 67.2527 158.063 67.2789 158.142 67.3051C158.247 67.3313 158.352 67.3575 158.431 67.3575C158.536 67.3837 158.615 67.3837 158.694 67.3837C158.957 67.4361 159.246 67.5147 159.561 67.5933C159.85 67.5671 160.087 67.6457 160.323 67.7505Z" fill="#512176"/>
<path d="M163.189 63.9509L170.89 63.3745L170.47 66.8851L166.974 67.0423L166.948 67.6973L169.497 67.5139L169.208 69.9504L166.869 70.1338L166.843 70.8935L170.838 70.5267L170.759 74.3779L163.295 74.7709L163.189 63.9509Z" fill="#512176"/>
<path d="M180.615 72.7264L178.46 75.1629L175.069 72.674L175.017 75.0581L171.626 74.7175L171.416 63.8451C173.177 63.6355 174.885 63.4521 176.515 63.3211C177.382 63.2163 178.118 63.2949 178.696 63.5045C179.274 63.7141 179.721 64.0547 180.01 64.4739C180.3 64.893 180.483 65.3908 180.536 65.941C180.589 66.4912 180.483 67.0675 180.3 67.6701C180.116 68.2727 179.774 68.8228 179.327 69.3992C178.88 69.9494 178.328 70.4471 177.671 70.8401L180.615 72.7264ZM174.859 66.9627L174.728 69.1896C175.069 69.111 175.358 69.0062 175.595 68.8752C175.831 68.7442 176.042 68.587 176.226 68.4299C176.41 68.2727 176.515 68.1155 176.62 67.9845C176.699 67.8535 176.751 67.7225 176.778 67.6439C176.778 67.6177 176.778 67.5653 176.804 67.4867C176.804 67.4081 176.804 67.2771 176.778 67.1461C176.751 67.0151 176.673 66.9103 176.541 66.8055C176.41 66.7269 176.226 66.6745 175.963 66.6745C175.648 66.7007 175.306 66.7793 174.859 66.9627Z" fill="#512176"/>
<path d="M183.611 63.0864L185.661 67.9856L188.052 63.1912L191.522 65.2085L185.398 75.7142L179.642 65.4181L183.611 63.0864Z" fill="#512176"/>
<path d="M195.543 63.2964L194.965 74.5618L191.285 74.981L191.417 63.7942L195.543 63.2964Z" fill="#512176"/>
<path d="M205.976 65.3397L203.532 68.3264C203.032 67.8024 202.586 67.4618 202.218 67.3046C201.85 67.1474 201.508 67.1212 201.245 67.1998C200.982 67.2784 200.746 67.4356 200.562 67.6976C200.378 67.9334 200.22 68.1954 200.115 68.4574C200.01 68.7193 199.905 69.0337 199.8 69.4529C199.8 69.4791 199.826 69.5839 199.852 69.8197C199.905 70.0293 199.984 70.2913 200.141 70.5532C200.299 70.8152 200.509 71.0248 200.798 71.1558C201.087 71.2868 201.482 71.2606 201.955 71.1034C202.428 70.9462 203.059 70.527 203.768 69.8721L206.502 72.7801C206.37 73.0421 206.134 73.3303 205.766 73.6185C205.424 73.9067 205.004 74.1425 204.53 74.3782C204.057 74.614 203.532 74.7974 202.954 74.9546C202.375 75.1118 201.797 75.1904 201.219 75.2166C200.641 75.2428 200.036 75.1904 199.484 75.0332C198.906 74.876 198.38 74.614 197.907 74.2472C197.198 73.6971 196.698 73.1207 196.357 72.4657C196.015 71.8108 195.831 71.1558 195.752 70.4746C195.673 69.7935 195.752 69.1123 195.91 68.405C196.094 67.7238 196.33 67.0688 196.646 66.4663C196.961 65.8637 197.329 65.3135 197.75 64.8419C198.17 64.3704 198.617 63.9774 199.037 63.6892C199.405 63.4796 199.747 63.3224 200.089 63.2438C200.404 63.139 200.798 63.0866 201.245 63.0342C201.692 62.9818 202.165 63.0342 202.691 63.1652C203.216 63.2962 203.742 63.532 204.32 63.8726C204.846 64.1608 205.398 64.6847 205.976 65.3397Z" fill="#512176"/>
<path d="M206.871 63.9509L214.572 63.3745L214.151 66.8851L210.656 67.0423L210.629 67.6973L213.179 67.5139L212.89 69.9504L210.551 70.1338L210.524 70.8935L214.519 70.5267L214.44 74.3779L206.976 74.7709L206.871 63.9509Z" fill="#512176"/>
<path d="M159.746 112.472V115.851H111.492V112.472H110.677V116.742H160.64V112.472H159.746Z" fill="#383D42"/>
<path d="M166.974 112.472H105.079V113.546H166.974V112.472Z" fill="#00497F"/>
<path d="M165.608 111.764H107.288V113.545H165.608V111.764Z" fill="#00497F"/>
<path d="M173.755 170.342C175.134 170.342 176.252 168.137 176.252 165.417C176.252 162.697 175.134 160.492 173.755 160.492C172.376 160.492 171.258 162.697 171.258 165.417C171.258 168.137 172.376 170.342 173.755 170.342Z" fill="#383D42"/>
<path d="M173.833 110.768H166.974V143.385H173.833V110.768Z" fill="#00497F"/>
<path d="M173.492 141.629H166.974V205.816H173.492V141.629Z" fill="#00497F"/>
<path d="M175.517 204.402H165.529V206.891H175.517V204.402Z" fill="#00497F"/>
<path d="M145.843 183.68H142.847V184.649H145.843V183.68Z" fill="#383D42"/>
<path d="M144.66 184.175H143.951V185.249H144.66V184.175Z" fill="#383D42"/>
<path d="M166.974 183.285L161.218 184.936H143.057V185.591L156.934 188.132L166.974 188.892V183.285Z" fill="#A5A5A5"/>
<path d="M99.2434 170.345C100.622 170.345 101.74 168.14 101.74 165.419C101.74 162.699 100.622 160.494 99.2434 160.494C97.8645 160.494 96.7466 162.699 96.7466 165.419C96.7466 168.14 97.8645 170.345 99.2434 170.345Z" fill="#383D42"/>
<path d="M99.1578 143.418L106.018 143.418L106.018 110.801L99.1578 110.801L99.1578 143.418Z" fill="#00497F"/>
<path d="M99.4888 205.823L106.007 205.823L106.007 141.636L99.4888 141.636L99.4888 205.823Z" fill="#00497F"/>
<path d="M97.4443 206.887L107.432 206.887L107.432 204.398L97.4443 204.398L97.4443 206.887Z" fill="#00497F"/>
<path d="M130.151 183.68H127.154V184.649H130.151V183.68Z" fill="#383D42"/>
<path d="M128.313 185.235L129.023 185.235L129.023 184.161L128.313 184.161L128.313 185.235Z" fill="#383D42"/>
<path d="M106.024 183.286L111.754 184.936H129.915V185.591L116.038 188.132L106.024 188.892V183.286Z" fill="#A5A5A5"/>
<path d="M118.244 192.664H116.142C115.248 192.664 114.539 191.957 114.539 191.066V186.271H119.821V191.092C119.848 191.957 119.138 192.664 118.244 192.664Z" fill="black"/>
<path d="M138.035 175.766H114.224C114.224 175.766 114.171 174.64 114.881 173.173C115.59 171.732 116.983 170.448 117.877 169.295C118.77 168.116 119.585 165.444 120.768 163.217C121.951 160.99 124.106 158.213 124.106 158.213H138.035V175.766Z" fill="#FFE051"/>
<path d="M119.35 166.335H117.011C116.433 166.335 115.959 165.863 115.959 165.287C115.959 164.71 116.433 164.239 117.011 164.239H117.72C118.614 164.239 119.35 164.972 119.35 165.863V166.335Z" fill="#FFE051"/>
<path d="M138.036 175.766H113.751V183.573H138.036V175.766Z" fill="#E8BB3A"/>
<path d="M114.566 179.434C114.566 179.434 117.142 179.067 117.668 179.434C118.193 179.801 119.35 182.604 119.35 182.604H115.959L114.566 179.434Z" fill="#8A9995"/>
<path d="M115.644 174.325C116.064 173.539 121.084 173.303 121.952 173.906C122.819 174.508 123.897 176.106 123.686 176.499C123.476 176.866 114.409 176.683 115.644 174.325Z" fill="white"/>
<path d="M125.551 176.107C126.015 176.107 126.392 175.732 126.392 175.269C126.392 174.806 126.015 174.431 125.551 174.431C125.087 174.431 124.71 174.806 124.71 175.269C124.71 175.732 125.087 176.107 125.551 176.107Z" fill="white"/>
<path d="M138.036 187.084H114.277C113.751 187.084 113.331 186.664 113.331 186.14V183.599H138.062V187.084H138.036Z" fill="#606060"/>
<path d="M138.036 168.405C138.036 168.405 128.706 168.405 125.131 168.143C121.557 167.881 120.716 165.55 120.716 165.55L124.343 159.209H138.062V168.405H138.036Z" fill="#749DC1"/>
<path d="M138.035 182.604H126.997C126.471 182.604 126.077 182.132 126.156 181.634L126.707 177.809C126.813 177.128 127.391 176.63 128.074 176.63H138.062V182.604H138.035Z" fill="#303030"/>
<path d="M138.035 176.919H129.809V177.81H138.035V176.919Z" fill="#606060"/>
<path d="M138.035 178.491H129.809V179.382H138.035V178.491Z" fill="#606060"/>
<path d="M138.035 179.669H129.809V180.56H138.035V179.669Z" fill="#606060"/>
<path d="M138.035 181.242H129.809V182.133H138.035V181.242Z" fill="#606060"/>
<path d="M129.889 183.049H128.864L129.731 176.132H130.756L129.889 183.049Z" fill="#8A9995"/>
<path d="M138.063 185.328H133.937V186.428H138.063V185.328Z" fill="#303030"/>
<path d="M155.171 192.664H157.274C158.167 192.664 158.877 191.957 158.877 191.066V186.271H153.594V191.092C153.568 191.957 154.277 192.664 155.171 192.664Z" fill="black"/>
<path d="M135.38 175.766H159.192C159.192 175.766 159.245 174.639 158.535 173.172C157.826 171.731 156.433 170.447 155.539 169.295C154.645 168.116 153.831 165.443 152.648 163.217C151.465 160.99 149.31 158.239 149.31 158.239H135.38V175.766Z" fill="#FFE051"/>
<path d="M154.067 166.335H156.406C156.984 166.335 157.457 165.863 157.457 165.287C157.457 164.71 156.984 164.239 156.406 164.239H155.696C154.803 164.239 154.067 164.972 154.067 165.863V166.335Z" fill="#FFE051"/>
<path d="M135.392 183.592L159.677 183.592L159.677 175.785L135.392 175.785L135.392 183.592Z" fill="#E8BB3A"/>
<path d="M158.878 179.434C158.878 179.434 156.302 179.067 155.776 179.434C155.251 179.801 154.094 182.604 154.094 182.604H157.485L158.878 179.434Z" fill="#8A9995"/>
<path d="M157.774 174.325C157.354 173.539 152.334 173.303 151.466 173.906C150.599 174.508 149.521 176.106 149.732 176.499C149.968 176.866 159.036 176.683 157.774 174.325Z" fill="white"/>
<path d="M147.866 176.107C148.331 176.107 148.707 175.732 148.707 175.269C148.707 174.806 148.331 174.431 147.866 174.431C147.402 174.431 147.025 174.806 147.025 175.269C147.025 175.732 147.402 176.107 147.866 176.107Z" fill="white"/>
<path d="M135.381 187.083H159.141C159.666 187.083 160.087 186.664 160.087 186.14V183.599H135.355V187.083H135.381Z" fill="#606060"/>
<path d="M135.381 168.403C135.381 168.403 144.712 168.403 148.286 168.141C151.86 167.879 152.701 165.547 152.701 165.547L149.074 159.207H135.355V168.403H135.381Z" fill="#749DC1"/>
<path d="M135.381 182.604H146.42C146.946 182.604 147.34 182.132 147.261 181.634L146.709 177.809C146.604 177.128 146.026 176.63 145.342 176.63H135.355V182.604H135.381Z" fill="#303030"/>
<path d="M135.391 177.786L143.617 177.786L143.617 176.895L135.391 176.895L135.391 177.786Z" fill="#606060"/>
<path d="M135.391 179.364L143.617 179.364L143.617 178.473L135.391 178.473L135.391 179.364Z" fill="#606060"/>
<path d="M135.391 180.549L143.617 180.549L143.617 179.659L135.391 179.659L135.391 180.549Z" fill="#606060"/>
<path d="M135.391 182.128L143.617 182.128L143.617 181.237L135.391 181.237L135.391 182.128Z" fill="#606060"/>
<path d="M143.529 183.049H144.554L143.687 176.132H142.662L143.529 183.049Z" fill="#8A9995"/>
<path d="M135.374 186.435L139.5 186.435L139.5 185.334L135.374 185.334L135.374 186.435Z" fill="#303030"/>
<path d="M244.534 95.0229C251.052 95.6255 248.871 119.204 248.871 119.204L234.389 116.584C234.389 116.584 234.889 94.1321 244.534 95.0229Z" fill="black"/>
<path d="M235.413 116.583L233.547 131.857C233.547 131.857 215.202 129.971 214.046 129.525C212.889 129.106 207.528 123.735 206.923 123.421C206.319 123.106 205.714 123.264 205.872 124.023C206.029 124.783 206.686 127.115 206.686 127.115C206.686 127.115 202.245 126.093 201.877 125.805C201.509 125.517 199.038 123.133 198.513 122.897C197.987 122.661 196.988 122.897 197.172 123.526C197.356 124.128 199.511 127.691 199.511 127.691C199.511 127.691 198.591 131.123 199.774 132.564C200.957 134.005 207.054 135.76 210.077 136.311C213.099 136.861 235.676 142.415 237.595 142.546C239.513 142.677 242.378 142.415 243.824 138.433C245.269 134.45 247.424 118.784 247.424 118.784L235.413 116.583Z" fill="#DD866F"/>
<mask id="mask0_131_7202" style="mask-type:luminance" maskUnits="userSpaceOnUse" x="240" y="92" width="40" height="78">
<path d="M264.35 92.8481C264.35 92.8481 271.367 91.6954 276.361 98.9786C281.355 106.262 278.516 118.732 278.858 132.198C279.226 145.665 277.99 169.61 277.99 169.61H243.429C243.429 169.61 244.296 140.189 241.983 128.295C239.67 116.401 239.486 100.498 243.981 97.2233C248.475 93.9485 257.253 91.3286 264.35 92.8481Z" fill="white"/>
</mask>
<g mask="url(#mask0_131_7202)">
<path d="M264.35 92.8481C264.35 92.8481 271.367 91.6954 276.361 98.9786C281.355 106.262 278.516 118.732 278.858 132.198C279.226 145.665 277.99 169.61 277.99 169.61H243.429C243.429 169.61 244.296 140.189 241.983 128.295C239.67 116.401 239.486 100.498 243.981 97.2233C248.475 93.9485 257.253 91.3286 264.35 92.8481Z" fill="black"/>
</g>
<path d="M252.603 57.506C252.603 57.506 258.805 53.6024 265.77 58.03C270.449 61.0166 269.923 71.1817 269.266 75.1115C267.768 84.3858 259.568 85.198 259.568 85.198C259.568 85.198 229.711 63.5579 252.603 57.506Z" fill="#6B3425"/>
<path d="M255.442 91.9561C259.594 91.9561 264.509 92.349 267.085 93.9995C255.941 100.523 248.871 105.396 248.871 105.396C248.871 105.396 243.168 98.3223 244.534 96.436C246.558 93.6852 252.261 91.9561 255.442 91.9561Z" fill="#F69576"/>
<path d="M250.105 83.3896L247.451 100.497L258.2 98.6635C258.2 98.6635 264.403 97.1439 263.483 92.7164C262.563 88.315 260.25 83.3896 260.25 83.3896H250.105Z" fill="#F69576"/>
<path d="M257.148 88.053C257.148 88.053 257.279 91.1968 255.177 92.5854C253.074 93.9739 248.448 93.9739 248.448 93.9739L250.104 83.3896H256.937C256.937 83.3896 257.411 86.0619 257.148 88.053Z" fill="#DD866F"/>
<path d="M247.792 62.6407C247.792 62.6407 245.742 64.3174 244.849 68.0638C244.165 70.9195 244.323 74.0109 243.955 75.74C243.587 77.4691 243.009 80.22 243.508 82.6303C244.008 85.0405 246.137 88.3154 250.105 89.4157C254.074 90.5161 257.333 89.7301 259.514 86.9792C261.696 84.2284 264.429 79.2768 265.218 75.871C266.032 72.4652 266.479 65.9679 262.8 63.1123C258.148 59.4969 252.576 59.4445 247.792 62.6407Z" fill="#F69576"/>
<path d="M254.993 81.9237C254.993 81.9237 254.625 84.2553 253.232 84.7531C251.839 85.2509 250.446 84.9103 249.816 84.1505C249.185 83.3908 248.843 81.8975 248.843 81.8975L254.993 81.9237Z" fill="white"/>
<path d="M251.498 79.3563C251.051 79.2777 251.078 78.8585 251.078 78.6227C251.078 78.5965 251.078 78.5965 251.078 78.5703C251.051 78.5965 251.025 78.5965 251.025 78.6227C250.867 78.7275 250.605 78.9371 250.315 78.6489C250.21 78.5441 250.158 78.3607 250.158 78.1512C250.184 77.7058 250.473 77.077 250.736 76.8674C250.788 76.815 250.867 76.8412 250.92 76.8936C250.972 76.946 250.946 77.0246 250.894 77.077C250.71 77.208 250.447 77.7582 250.421 78.1512C250.421 78.2822 250.447 78.3869 250.499 78.4393C250.605 78.5441 250.683 78.5179 250.867 78.387C250.946 78.3346 251.051 78.256 251.13 78.256C251.183 78.256 251.235 78.256 251.288 78.3084C251.367 78.3869 251.367 78.4917 251.367 78.6489C251.367 78.9371 251.393 79.0943 251.577 79.1205C251.656 79.1467 251.708 79.1205 251.761 79.0943C251.84 79.0419 251.84 78.8585 251.84 78.7275C251.84 78.6227 251.84 78.5441 251.892 78.4917C251.919 78.4393 251.997 78.387 252.076 78.387C252.208 78.387 252.339 78.4655 252.549 78.6751C252.576 78.7013 252.628 78.7537 252.707 78.7275C252.786 78.7013 252.891 78.5965 252.944 78.387C252.996 78.0726 252.707 77.4176 252.576 77.208C252.549 77.1556 252.549 77.0508 252.628 77.0246C252.681 76.9984 252.786 76.9984 252.812 77.077C252.865 77.1556 253.312 77.9678 253.206 78.4393C253.154 78.7275 252.996 78.9371 252.786 78.9895C252.628 79.0419 252.471 78.9895 252.365 78.8585C252.26 78.7537 252.181 78.7013 252.155 78.6751C252.155 78.7013 252.155 78.7275 252.155 78.7537C252.155 78.9109 252.129 79.1729 251.971 79.3301C251.892 79.3825 251.814 79.4087 251.708 79.4087C251.577 79.3825 251.551 79.3825 251.498 79.3563Z" fill="#6B3425"/>
<path d="M271.314 73.383C270.079 70.3439 261.143 73.0948 262.799 78.7013C264.481 84.4126 273.128 77.8629 271.314 73.383Z" fill="#F69576"/>
<path d="M264.483 79.3818C264.509 79.3818 264.535 79.3818 264.561 79.3556C264.614 79.3032 264.614 79.2246 264.561 79.1722C264.194 78.7792 264.115 77.4955 264.588 76.2641C264.903 75.3996 265.744 73.88 267.663 73.6443C268.688 73.5133 269.424 73.6967 269.844 74.1682C270.449 74.8494 270.16 75.9759 270.16 76.0021C270.133 76.0807 270.186 76.1331 270.265 76.1593C270.344 76.1855 270.396 76.1331 270.422 76.0545C270.449 76.0021 270.764 74.7708 270.055 73.9848C269.581 73.4347 268.767 73.2513 267.663 73.3823C266.165 73.5657 264.956 74.5874 264.351 76.1855C263.878 77.4431 263.904 78.8316 264.378 79.3818C264.404 79.3556 264.43 79.3818 264.483 79.3818Z" fill="#6B3425"/>
<path d="M267.689 78.8839C267.741 78.8839 267.794 78.8577 267.82 78.8053C267.873 78.7005 268.871 76.2379 267.373 73.487C267.347 73.4346 267.268 73.4084 267.189 73.4346C267.137 73.4608 267.11 73.5394 267.137 73.618C268.556 76.2379 267.584 78.6743 267.557 78.7005C267.531 78.7791 267.557 78.8577 267.636 78.8839C267.636 78.8839 267.662 78.8839 267.689 78.8839Z" fill="#6B3425"/>
<path d="M255.94 76.7619C256.216 76.7619 256.44 76.3279 256.44 75.7926C256.44 75.2572 256.216 74.8232 255.94 74.8232C255.664 74.8232 255.441 75.2572 255.441 75.7926C255.441 76.3279 255.664 76.7619 255.94 76.7619Z" fill="#6B3425"/>
<path d="M259.487 72.8324C258.987 72.387 257.936 71.8106 256.885 71.6796C255.702 71.5486 255.045 72.0988 254.572 72.2298C254.099 72.3608 254.046 71.6796 254.283 71.0771C254.546 70.5007 255.544 70.0553 257.148 70.1077C258.751 70.1601 259.644 70.9461 260.091 71.4438C260.538 71.994 260.196 73.4349 259.487 72.8324Z" fill="#6B3425"/>
<path d="M248.398 76.4992C248.674 76.4992 248.897 76.0652 248.897 75.5299C248.897 74.9945 248.674 74.5605 248.398 74.5605C248.122 74.5605 247.898 74.9945 247.898 75.5299C247.898 76.0652 248.122 76.4992 248.398 76.4992Z" fill="#6B3425"/>
<path d="M250.184 72.5967C249.79 72.1251 249.001 71.4963 248.213 71.3653C247.319 71.2343 246.82 71.8107 246.452 71.9679C246.084 72.0989 246.057 71.3653 246.241 70.7627C246.425 70.134 247.188 69.6886 248.423 69.741C249.658 69.8196 250.315 70.6318 250.657 71.1819C250.972 71.7059 250.709 73.2516 250.184 72.5967Z" fill="#6B3425"/>
<path d="M278.017 169.635C278.017 169.635 279.988 183.992 280.172 195.126C280.356 206.261 279.62 214.33 280.172 215.587C280.724 216.845 282.695 227.796 283.589 236.966C284.482 246.135 286.48 268.194 286.48 268.194H271.209C271.209 268.194 269.186 235.525 267.924 233.35C266.663 231.202 260.171 199.764 260.171 199.764C260.171 199.764 256.044 220.067 256.202 221.875C256.386 223.683 256.912 235.525 256.202 242.153C255.493 248.781 251.892 268.194 251.892 268.194H236.806L240.012 232.276C240.012 232.276 240.538 222.949 241.09 211.631C241.642 200.314 243.429 169.609 243.429 169.609H278.017V169.635Z" fill="#FF6D00"/>
<path d="M224.323 268.72C222.404 269.479 222.772 274.379 222.772 274.379L250.579 273.986C250.711 272.78 250.579 267.41 250.579 267.41H237.727C237.727 267.41 229.396 266.702 224.323 268.72Z" fill="#3D3B38"/>
<path d="M262.064 270.5C260.513 271.836 260.907 275.216 260.907 275.216L285.797 275.557L284.877 268.195H274.574C274.574 268.195 264.008 268.797 262.064 270.5Z" fill="#3D3B38"/>
<path d="M274.6 97.2502C274.6 97.2502 271.893 95.0757 268.345 99.5295C264.797 103.983 262.589 128.322 262.589 128.322H258.804C258.804 128.322 259.803 108.018 262.484 102.726C265.165 97.4074 269.764 93.6348 269.764 93.6348L274.6 97.2502Z" fill="#FF6D00"/>
<path d="M260.592 124.418H241.301L243.403 169.611C243.403 169.611 266.795 169.794 267.058 169.689C267.32 169.637 260.592 124.418 260.592 124.418Z" fill="#FF6D00"/>
<path d="M244.534 96.4385C244.534 96.4385 241.538 100.421 241.301 105.739C241.064 111.084 242.484 125.598 242.484 125.598H241.275C241.301 125.598 236.412 100.971 244.534 96.4385Z" fill="#FF6D00"/>
<path d="M247.896 61.5135C248.527 62.1685 253.994 63.3736 256.438 64.1072C258.883 64.8145 260.17 67.906 261.406 67.906C262.641 67.906 267.109 66.6222 267.109 66.6222L264.717 61.1991L258.436 59.208L251.182 59.994L247.896 61.5135Z" fill="#6B3425"/>
<path d="M263.273 126.724L261.407 141.998C261.407 141.998 243.062 140.112 241.905 139.666C240.749 139.247 235.387 133.876 234.783 133.562C234.205 133.248 233.574 133.405 233.732 134.165C233.889 134.924 234.546 137.256 234.546 137.256C234.546 137.256 230.105 136.234 229.737 135.946C229.369 135.658 226.898 133.274 226.372 133.038C225.847 132.802 224.848 133.038 225.032 133.667C225.216 134.269 227.371 137.832 227.371 137.832C227.371 137.832 226.451 141.264 227.634 142.705C228.817 144.146 234.914 145.902 237.937 146.452C240.933 147.002 263.536 152.556 265.455 152.687C267.373 152.818 270.238 152.556 271.684 148.574C273.129 144.592 275.284 128.925 275.284 128.925L263.273 126.724Z" fill="#F69576"/>
<path d="M119.14 55.6203C119.14 55.6203 113.121 51.8215 106.314 56.1443C101.767 59.0524 101.216 69.2698 102.898 72.7542C104.58 76.2387 112.333 82.5787 112.333 82.5787C112.333 82.5787 141.401 61.4888 119.14 55.6203Z" fill="#A5713D"/>
<path d="M138.537 115.85L138.615 130.809C138.615 130.809 156.566 131.019 157.723 130.73C158.879 130.442 164.661 125.857 165.266 125.622C165.87 125.386 166.449 125.622 166.212 126.329C165.975 127.036 165.082 129.237 165.082 129.237C165.082 129.237 169.471 128.739 169.892 128.504C170.286 128.268 172.914 126.224 173.466 126.067C174.018 125.884 174.938 126.25 174.701 126.827C174.465 127.403 171.968 130.599 171.968 130.599C171.968 130.599 172.467 134.005 171.179 135.263C169.865 136.52 163.794 137.542 160.824 137.725C157.854 137.909 135.409 140.765 133.543 140.686C131.677 140.607 128.917 140.031 127.971 136.023C127.025 132.014 126.683 116.636 126.683 116.636L138.537 115.85Z" fill="#DD866F"/>
<path d="M104.396 257.218V280.77H84.6844C84.6844 280.77 81.8722 276.054 84.6844 274.771C87.4967 273.487 96.6693 268.981 96.6693 268.981L96.3276 257.191H104.396V257.218Z" fill="#F69576"/>
<path d="M104.396 269.009V280.798H84.6844C84.6844 280.798 81.8722 276.082 84.6844 274.799C87.4967 273.515 96.6693 269.009 96.6693 269.009H104.396Z" fill="#032240"/>
<path d="M104.396 278.387V280.771H84.6842C84.6842 280.771 84.0271 279.671 83.6592 278.387H104.396Z" fill="#BFBFBF"/>
<path d="M120.611 257.219L120.427 269.008C120.427 269.008 130.756 270.947 133.516 271.785C136.828 272.807 140.638 273.724 141.19 276.92C141.663 279.697 141.19 280.771 141.19 280.771H109.205L112.674 257.219H120.611Z" fill="#F69576"/>
<path d="M120.427 269.008C120.427 269.008 130.756 270.946 133.516 271.785C136.828 272.806 140.638 273.723 141.19 276.92C141.663 279.697 141.19 280.771 141.19 280.771H109.205L110.44 268.981H120.427V269.008Z" fill="#BFBFBF"/>
<path d="M141.166 276.92C141.271 277.47 141.324 277.968 141.35 278.387H109.443L110.415 268.981H120.403C120.403 268.981 130.732 270.92 133.491 271.758C136.803 272.806 140.64 273.697 141.166 276.92Z" fill="#032240"/>
<path d="M134.989 150.459C134.989 150.459 136.093 162.065 134.989 181.4C133.886 200.734 129.181 219.23 128.629 221.457C128.077 223.658 121.139 260.677 121.139 260.677H110.336C110.336 260.677 116.434 210.69 116.986 195.494C117.538 180.299 115.041 151.848 115.041 151.848L134.989 150.459Z" fill="#254B6B"/>
<path d="M95.3555 151.847H118.353C118.353 151.847 120.14 197.773 118.353 199.895C116.565 202.044 111.151 210.663 110.31 217.291C109.469 223.92 107.235 260.65 107.235 260.65H95.3555V151.847Z" fill="#254B6B"/>
<path d="M112.438 90.0719C123.897 89.8361 127.577 91.539 129.995 96.8836C132.386 102.228 138.484 149.176 139.036 158.765C139.588 168.327 137.748 174.039 124.633 174.039C111.518 174.039 93.5934 163.349 93.5934 163.349C93.5934 163.349 92.8575 166.677 92.3055 168.694C91.7536 170.711 86.208 172.938 86.208 169.428C86.208 165.917 88.5997 111.057 88.9677 101.861C89.3356 92.6656 103.765 90.2553 112.438 90.0719Z" fill="black"/>
<path d="M124.634 93.1902C129.154 92.0112 133.307 92.0898 136.645 98.7181C139.983 105.346 142.558 125.965 142.558 125.965L127.209 132.043C127.209 132.043 112.623 96.334 124.634 93.1902Z" fill="black"/>
<path d="M116.381 89.127C112.333 89.127 107.576 89.5199 105.079 91.0919C102.057 93.0305 102.109 100.288 115.435 100.89C128.76 101.493 128.339 95.2836 126.999 93.4497C125.028 90.7775 119.482 89.127 116.381 89.127Z" fill="#F69576"/>
<path d="M121.584 80.7979L124.186 97.434H108.442C108.442 97.434 109.205 90.8319 110.098 86.5354C110.992 82.2388 111.754 80.7979 111.754 80.7979H121.584Z" fill="#F69576"/>
<path d="M114.725 85.3302C114.725 85.3302 114.593 88.3955 116.643 89.7316C118.693 91.0677 123.187 91.0939 123.187 91.0939L121.584 80.7979H114.935C114.935 80.7979 114.462 83.3915 114.725 85.3302Z" fill="#DD866F"/>
<path d="M123.817 60.6239C123.817 60.6239 125.815 62.2744 126.682 65.8898C127.339 68.6668 127.208 71.6797 127.55 73.3564C127.891 75.0331 128.469 77.7316 127.97 80.0632C127.497 82.3949 125.421 85.5911 121.557 86.6653C117.694 87.7394 114.54 86.9797 112.411 84.2812C110.282 81.609 107.654 76.8146 106.865 73.4874C106.077 70.1602 105.656 63.8463 109.204 61.0954C113.751 57.5586 119.192 57.5062 123.817 60.6239Z" fill="#F69576"/>
<path d="M116.828 79.3831C116.828 79.3831 117.196 81.6624 118.536 82.134C119.877 82.6056 121.244 82.2912 121.874 81.5314C122.505 80.7717 122.821 79.3569 122.821 79.3569L116.828 79.3831Z" fill="white"/>
<path d="M120.113 76.8934C120.008 76.8934 119.929 76.8672 119.85 76.8148C119.693 76.6838 119.666 76.4219 119.666 76.2647C119.666 76.2385 119.666 76.2123 119.666 76.1861C119.64 76.2123 119.561 76.2647 119.456 76.3695C119.351 76.5004 119.193 76.5528 119.036 76.5004C118.825 76.4481 118.668 76.2385 118.615 75.9503C118.51 75.4787 118.957 74.7189 119.009 74.6403C119.036 74.5879 119.114 74.5618 119.193 74.588C119.246 74.6141 119.272 74.6927 119.246 74.7713C119.114 74.9809 118.825 75.6097 118.904 75.9241C118.957 76.1337 119.062 76.2385 119.141 76.2647C119.22 76.2909 119.272 76.2385 119.298 76.2123C119.482 76.0027 119.64 75.9241 119.745 75.9241C119.824 75.9241 119.877 75.9765 119.903 76.0289C119.929 76.0813 119.929 76.1599 119.955 76.2647C119.955 76.3957 119.955 76.5528 120.034 76.6314C120.061 76.6576 120.139 76.6576 120.218 76.6576C120.402 76.6314 120.429 76.5004 120.402 76.2123C120.402 76.0813 120.402 75.9503 120.481 75.8979C120.507 75.8717 120.56 75.8455 120.613 75.8455C120.718 75.8455 120.797 75.9241 120.875 75.9765C121.033 76.1075 121.112 76.1337 121.217 76.0289C121.27 75.9765 121.296 75.8717 121.296 75.7407C121.27 75.3477 121.007 74.8237 120.823 74.6927C120.77 74.6403 120.744 74.5617 120.797 74.5094C120.849 74.457 120.928 74.4308 120.981 74.4832C121.243 74.6665 121.532 75.2953 121.559 75.7145C121.559 75.9503 121.532 76.1075 121.401 76.2123C121.112 76.4742 120.875 76.2909 120.718 76.1861C120.691 76.1599 120.665 76.1599 120.665 76.1337C120.665 76.1599 120.665 76.1861 120.665 76.1861C120.665 76.4218 120.691 76.841 120.245 76.9196C120.192 76.8934 120.139 76.8934 120.113 76.8934Z" fill="#6B3425"/>
<path d="M100.953 71.051C102.135 68.0905 110.835 70.7628 109.232 76.2121C107.576 81.7924 99.1917 75.3999 100.953 71.051Z" fill="#F69576"/>
<path d="M107.601 76.8933C107.575 76.8933 107.549 76.8933 107.523 76.8671C107.47 76.8148 107.47 76.7362 107.523 76.6838C107.891 76.2908 107.943 75.0594 107.496 73.8543C107.181 72.9898 106.366 71.5226 104.5 71.313C103.501 71.182 102.792 71.3654 102.398 71.8108C101.819 72.492 102.082 73.5923 102.082 73.5923C102.108 73.6709 102.056 73.7233 101.977 73.7495C101.898 73.7757 101.846 73.7233 101.819 73.6447C101.793 73.5923 101.504 72.4134 102.187 71.6274C102.634 71.1035 103.423 70.8939 104.526 71.0511C105.998 71.2344 107.155 72.23 107.733 73.7757C108.18 75.007 108.18 76.3694 107.707 76.8671C107.68 76.8671 107.654 76.8933 107.601 76.8933Z" fill="#6B3425"/>
<path d="M104.5 76.3957C104.447 76.3957 104.394 76.3695 104.368 76.3171C104.316 76.2123 103.369 73.8282 104.789 71.1559C104.815 71.1035 104.894 71.0773 104.973 71.1035C105.025 71.1297 105.052 71.2083 105.025 71.2869C103.659 73.8544 104.605 76.2123 104.605 76.2123C104.631 76.2909 104.605 76.3433 104.526 76.3695C104.526 76.3957 104.5 76.3957 104.5 76.3957Z" fill="#6B3425"/>
<path d="M115.908 74.3511C116.169 74.3511 116.381 73.9289 116.381 73.408C116.381 72.8871 116.169 72.4648 115.908 72.4648C115.647 72.4648 115.435 72.8871 115.435 73.408C115.435 73.9289 115.647 74.3511 115.908 74.3511Z" fill="#6B3425"/>
<path d="M113.699 70.8684C114.067 70.554 114.829 70.1611 115.617 70.0563C116.485 69.9777 116.984 70.3444 117.326 70.4492C117.667 70.554 117.72 70.0563 117.536 69.6633C117.352 69.2441 116.616 68.9559 115.433 68.9821C114.251 69.0083 113.593 69.5585 113.278 69.9253C112.963 70.292 113.199 71.3138 113.699 70.8684Z" fill="#6B3425"/>
<path d="M123.24 74.0904C123.501 74.0904 123.713 73.6681 123.713 73.1473C123.713 72.6264 123.501 72.2041 123.24 72.2041C122.979 72.2041 122.767 72.6264 122.767 73.1473C122.767 73.6681 122.979 74.0904 123.24 74.0904Z" fill="#6B3425"/>
<path d="M121.479 70.5271C121.847 70.2127 122.609 69.8198 123.397 69.715C124.265 69.6364 124.764 70.0031 125.106 70.1079C125.448 70.2127 125.5 69.715 125.316 69.322C125.132 68.9028 124.396 68.6146 123.214 68.6408C122.031 68.6932 121.374 69.2172 121.058 69.584C120.743 69.9507 120.979 70.9463 121.479 70.5271Z" fill="#6B3425"/>
<path d="M124.581 82.1587L123.977 82.3159C123.977 82.3159 122.82 84.5952 121.848 85.0405C120.876 85.4859 117.695 85.3287 117.354 85.0405C117.012 84.7524 115.908 82.2111 115.908 82.2111L115.146 82.3945C115.146 82.3945 116.276 86.0361 116.46 86.3767C116.565 86.5601 118.668 88.001 119.483 88.0796C120.297 88.1582 123.136 86.6125 123.267 86.2719C123.74 85.1977 124.581 82.1587 124.581 82.1587Z" fill="#6B3425"/>
<path d="M120.953 83.5739L119.56 83.5215L119.508 86.0104L120.585 86.2199L120.953 83.5739Z" fill="#6B3425"/>
<path opacity="0.4" d="M92.9909 103.223L96.5391 123.212L90.1787 125.125L92.9909 103.223Z" fill="#254B6B"/>
<path d="M108.417 57.1656C108.417 57.1656 111.729 63.1127 120.901 63.6366C140.009 64.737 131.256 54.048 131.256 54.048C131.256 54.048 131.94 56.8774 128.655 57.0346C124.16 57.2704 117.642 43.6471 108.417 57.1656Z" fill="#A5713D"/>
<path d="M177.854 114.67C177.854 114.67 170.968 114.094 169.339 113.937C167.709 113.806 127.786 119.831 126.288 120.146C124.79 120.46 118.692 123.211 118.692 123.211L116.537 119.412L122.53 115.377L170.443 108.775L177.775 110.059L177.854 114.67Z" fill="#383D42"/>
<path d="M163.189 116.085L161.77 107.806C161.56 106.601 160.43 105.763 159.194 105.894L136.171 108.723C134.857 108.88 133.937 110.086 134.147 111.396L135.54 119.884C135.75 121.115 136.881 121.98 138.142 121.796L161.192 118.784C162.506 118.6 163.4 117.395 163.189 116.085Z" fill="#263644"/>
<path d="M169.129 138.591H123.319C120.191 138.591 117.642 136.05 117.642 132.932V124.679C117.642 121.562 120.191 119.021 123.319 119.021H169.129C172.257 119.021 174.806 121.562 174.806 124.679V132.932C174.832 136.076 172.283 138.591 169.129 138.591Z" fill="#3D3D3D"/>
<mask id="mask1_131_7202" style="mask-type:luminance" maskUnits="userSpaceOnUse" x="117" y="119" width="58" height="20">
<path d="M169.129 138.591H123.319C120.191 138.591 117.642 136.05 117.642 132.932V124.679C117.642 121.562 120.191 119.021 123.319 119.021H169.129C172.257 119.021 174.806 121.562 174.806 124.679V132.932C174.832 136.076 172.283 138.591 169.129 138.591Z" fill="white"/>
</mask>
<g mask="url(#mask1_131_7202)">
<path d="M123.371 124.915L119.087 122.504L118.851 118.024H113.252V121.561L118.588 124.915H123.371Z" fill="black"/>
<path d="M121.032 130.992L124.764 128.634L121.216 126.303H116.17L119.429 128.634L115.75 130.992H121.032Z" fill="black"/>
<path d="M118.588 132.513L113.252 135.866V139.403H118.851L119.087 134.923L123.371 132.513H118.588Z" fill="black"/>
<path d="M130.992 124.915L126.682 122.504L126.445 118.024H120.874V121.561L126.209 124.915H130.992Z" fill="black"/>
<path d="M132.359 128.634L128.811 126.303H123.765L127.024 128.634L123.371 130.992H128.653L132.359 128.634Z" fill="black"/>
<path d="M126.209 132.512L120.874 135.866V139.402H126.445L126.682 134.922L130.992 132.512H126.209Z" fill="black"/>
<path d="M139.299 124.915L134.989 122.504L134.753 118.024H129.181V121.561L134.516 124.915H139.299Z" fill="black"/>
<path d="M140.664 128.634L137.116 126.303H132.07L135.329 128.634L131.676 130.992H136.959L140.664 128.634Z" fill="black"/>
<path d="M134.516 132.512L129.181 135.866V139.402H134.753L134.989 134.922L139.299 132.512H134.516Z" fill="black"/>
<path d="M146.895 124.915L142.611 122.504L142.374 118.024H136.776V121.561L142.111 124.915H146.895Z" fill="black"/>
<path d="M148.287 128.634L144.739 126.303H139.693L142.952 128.634L139.299 130.992H144.582L148.287 128.634Z" fill="black"/>
<path d="M142.111 132.512L136.776 135.866V139.402H142.374L142.611 134.922L146.895 132.512H142.111Z" fill="black"/>
<path d="M154.516 124.915L150.232 122.504L149.995 118.024H144.397V121.561L149.732 124.915H154.516Z" fill="black"/>
<path d="M155.909 128.634L152.361 126.303H147.315L150.574 128.634L146.895 130.992H152.177L155.909 128.634Z" fill="black"/>
<path d="M149.732 132.513L144.397 135.866V139.403H149.995L150.232 134.923L154.516 132.513H149.732Z" fill="black"/>
<path d="M162.137 124.915L157.827 122.504L157.59 118.024H152.018V121.561L157.353 124.915H162.137Z" fill="black"/>
<path d="M163.504 128.634L159.956 126.303H154.91L158.169 128.634L154.516 130.992H159.798L163.504 128.634Z" fill="black"/>
<path d="M157.353 132.512L152.018 135.866V139.402H157.59L157.827 134.922L162.137 132.512H157.353Z" fill="black"/>
<path d="M170.444 124.915L166.134 122.504L165.897 118.024H160.325V121.561L165.661 124.915H170.444Z" fill="black"/>
<path d="M171.809 128.634L168.261 126.303H163.215L166.474 128.634L162.82 130.992H168.103L171.809 128.634Z" fill="black"/>
<path d="M165.661 132.512L160.325 135.866V139.402H165.897L166.134 134.922L170.444 132.512H165.661Z" fill="black"/>
<path d="M178.04 124.915L173.756 122.504L173.519 118.024H167.921V121.561L173.256 124.915H178.04Z" fill="black"/>
<path d="M179.432 128.634L175.884 126.303H170.838L174.097 128.634L170.443 130.992H175.726L179.432 128.634Z" fill="black"/>
<path d="M167.921 135.866V139.402H173.519L173.756 134.922L178.04 132.512H173.256L167.921 135.866Z" fill="black"/>
</g>
<path d="M107.891 123.082L107.97 138.067C107.97 138.067 125.921 138.277 127.077 137.989C128.234 137.7 134.016 133.116 134.62 132.88C135.225 132.644 135.803 132.88 135.566 133.587C135.33 134.295 134.436 136.495 134.436 136.495C134.436 136.495 138.826 135.997 139.246 135.762C139.667 135.526 142.269 133.482 142.82 133.325C143.372 133.168 144.292 133.509 144.056 134.085C143.819 134.661 141.322 137.858 141.322 137.858C141.322 137.858 141.822 141.263 140.534 142.521C139.22 143.778 133.148 144.8 130.179 144.984C127.209 145.167 104.763 148.023 102.897 147.944C101.031 147.865 98.2716 147.289 97.3254 143.281C96.3793 139.272 96.0376 123.894 96.0376 123.894L107.891 123.082Z" fill="#F69576"/>
<path d="M288.373 206.026C286.218 206.026 284.483 204.297 284.483 202.148V191.512C284.483 189.363 286.218 187.634 288.373 187.634C290.528 187.634 292.263 189.363 292.263 191.512V202.148C292.237 204.297 290.502 206.026 288.373 206.026Z" fill="black"/>
<path d="M335.472 206.026C333.317 206.026 331.582 204.297 331.582 202.149V191.512C331.582 189.364 333.317 187.635 335.472 187.635C337.627 187.635 339.362 189.364 339.362 191.512V202.149C339.335 204.297 337.601 206.026 335.472 206.026Z" fill="black"/>
<path d="M293.997 167.253C294.391 165.995 295.679 165.445 297.204 165.131C298.728 164.816 308.374 164.502 311.948 164.449C315.523 164.397 325.615 165.131 327.245 165.262C328.874 165.393 329.557 166.336 330.004 167.253C330.451 168.17 335.471 178.492 336.023 179.199C336.575 179.88 338.02 181.819 338.152 182.448C338.283 183.077 339.413 185.461 339.334 185.697C339.282 185.959 339.334 199.451 339.334 199.451L284.535 200.263C284.535 200.263 284.404 189.129 284.535 186.456C284.667 183.758 287.032 180.588 288.241 178.963C289.424 177.339 293.577 168.641 293.997 167.253Z" fill="#1D7DCC"/>
<path d="M288.242 178.962H285.798C284.799 178.962 283.984 178.15 283.984 177.154C283.984 176.159 284.799 175.347 285.798 175.347H286.429C287.427 175.347 288.242 176.159 288.242 177.154V178.962Z" fill="#D2D3D5"/>
<path d="M295.522 168.273L293.314 176.395H330.557L328.559 168.273C328.559 168.273 309.82 163.951 295.522 168.273Z" fill="#3B3B3B"/>
<path d="M293.315 176.396L294.944 187.975C295.05 188.709 295.68 189.285 296.443 189.285H327.43C328.192 189.285 328.823 188.735 328.928 187.975L330.557 176.396H293.315Z" fill="#0C96FD"/>
<path d="M320.201 182.813H303.775V187.136H320.201V182.813Z" fill="white"/>
<path d="M293.577 178.307L294.523 184.988H288.242V181.661C288.242 181.661 289.214 178.622 293.577 178.307Z" fill="#7D009B"/>
<path d="M335.786 178.962H338.23C339.229 178.962 340.044 178.15 340.044 177.154C340.044 176.159 339.229 175.347 338.23 175.347H337.6C336.601 175.347 335.786 176.159 335.786 177.154V178.962Z" fill="#D2D3D5"/>
<path d="M330.451 178.307L329.505 184.988H335.786V181.661C335.786 181.661 334.814 178.622 330.451 178.307Z" fill="#7D009B"/>
<path d="M294.577 167.095V155.567C294.551 154.546 295.365 153.733 296.364 153.733H326.195C327.193 153.733 327.982 154.546 327.982 155.515V167.095H325.695L325.485 158.082C325.459 157.113 324.67 156.353 323.724 156.327L298.808 156.013C297.81 156.013 296.995 156.799 296.995 157.794V166.309L294.577 167.095Z" fill="#1D7DCC"/>
</svg>
