<svg width="375" height="308" viewBox="0 0 375 308" fill="none" xmlns="http://www.w3.org/2000/svg">
<path d="M169.758 54.3854C187.92 57.8203 222.139 -12.2948 260.013 3.1756C297.886 18.646 270.052 68.4923 283.562 79.6625C297.071 90.8327 334.077 56.4568 349.636 92.5633C365.195 128.67 341.541 167.346 341.199 173.35C340.857 179.355 383.856 211.633 371.923 256.078C359.991 300.523 201.534 304.823 144.974 306.527C88.4141 308.232 12.7993 308.101 1.65555 261.768C-9.48823 215.435 41.1319 175.081 45.8102 162.128C50.4884 149.175 8.14733 104.101 61.238 48.6954C102.318 5.82393 151.597 50.9504 169.758 54.3854Z" fill="#9ECBDD"/>
<path d="M357.888 195.717L20.1321 196.084C7.30622 214.124 -4.2318 237.094 1.68177 261.742C12.8255 308.075 88.4666 308.232 145 306.501C201.534 304.771 359.991 300.497 371.95 256.052C378.573 231.404 368.296 210.48 357.888 195.717Z" fill="#1C4563"/>
<path d="M37.3732 225.086C21.2094 227.446 4.80915 223.88 4.80915 223.88C0.393687 235.679 -1.49865 248.475 1.70781 261.769C12.8516 308.102 88.4926 308.259 145.026 306.529C201.56 304.798 360.017 300.524 371.976 256.079C376.969 237.488 372.344 221.022 365.326 207.728H244.742C244.742 207.728 173.149 221.441 137.194 221.966C101.24 222.49 53.5369 222.726 37.3732 225.086Z" fill="#E7D0B0"/>
<path d="M131.754 194.958C131.754 194.958 126.603 185.046 138.299 183.919C137.063 176 148.523 164.096 168.392 169.182C171.756 160.582 190.732 145.374 203.873 163.886C229 153.345 232.6 168.527 229.236 171.228C248.738 167.688 245.295 181.061 241.983 182.529C267.766 177.023 264.218 194.958 264.218 194.958H131.754Z" fill="white"/>
<path d="M219.328 41.6682C219.328 41.6682 217.961 38.1808 221.063 37.7875C220.747 35.008 223.77 30.8389 229.026 32.6219C229.92 29.6065 234.94 24.2836 238.409 30.7602C245.059 27.063 246.005 32.3859 245.111 33.3299C250.263 32.0975 249.369 36.7648 248.475 37.2893C255.309 35.3489 254.363 41.642 254.363 41.642H219.328V41.6682Z" fill="white"/>
<path d="M132.727 203.06C132.884 201.434 200.588 201.88 200.982 203.06C201.377 204.24 171.415 206.442 171.809 207.701C172.203 208.959 196.646 207.911 196.252 210.218C196.094 211.162 187.499 212.316 177.381 213.181C162.662 214.466 144.764 215.226 145.001 213.915C145.395 211.713 180.219 212.08 180.298 211.136C180.377 210.166 158.93 209.615 159.088 208.304C159.272 207.019 181.954 205.262 181.954 204.213C181.954 203.165 132.648 203.977 132.727 203.06Z" fill="#9ECBDD"/>
<path d="M288.213 199.388C288.66 200.096 212.52 201.931 212.52 200.725C212.52 199.519 252.995 197.474 252.995 198.077C252.995 198.68 223.742 199.388 223.742 199.991C223.742 200.594 287.688 198.549 288.213 199.388Z" fill="#9ECBDD"/>
<path d="M225.687 193.49L226.528 194.959H236.463L237.856 193.49H225.687Z" fill="#657377"/>
<path d="M231.077 179.96V192.966C231.077 192.966 236.149 191.471 236.044 188.56C235.913 185.65 231.077 179.96 231.077 179.96Z" fill="#657377"/>
<path d="M195.569 69.1231C195.569 69.1231 194.99 63.7215 198.433 60.6799C202.98 56.6418 206.712 57.9529 206.712 57.9529C206.712 57.9529 206.791 54.5704 211.522 51.9483C216.253 49.3262 220.3 51.555 220.3 51.555C220.3 51.555 215.28 50.4012 211.364 53.4691C207.343 56.6156 212.679 59.4475 210.077 61.8074C207.448 64.2197 204.951 58.6346 200.615 60.9945C195.937 63.538 195.569 69.1231 195.569 69.1231Z" fill="#657377"/>
<path d="M207.054 78.4568C207.054 78.4568 209.866 75.1267 213.546 75.4152C218.408 75.8085 219.722 78.6928 219.722 78.6928C219.722 78.6928 221.719 76.8573 225.872 78.1422C230.025 79.427 230.971 82.9931 230.971 82.9931C230.971 82.9931 228.842 79.4532 224.9 78.9026C220.826 78.3257 222.166 82.9668 219.354 82.7833C216.489 82.5997 218.355 78.0635 214.571 76.8836C210.497 75.5725 207.054 78.4568 207.054 78.4568Z" fill="#657377"/>
<path d="M308.846 200.045C297.491 199.337 292.051 160.215 294.522 130.717C296.992 101.218 302.906 62.3844 305.849 61.388C308.793 60.3916 312.262 96.2883 313.734 108.088C315.206 119.887 324.668 201.041 308.846 200.045Z" fill="#5F750E"/>
<path d="M308.847 195.614H305.903V213.313H308.847V195.614Z" fill="#6B3425"/>
<path d="M64.2876 103.419C64.2876 103.419 73.0397 100.456 79.4 104.992C87.8104 110.997 87.0482 117.683 87.0482 117.683C87.0482 117.683 92.699 116.556 98.8228 123.399C104.947 130.243 102.765 137.795 102.765 137.795C102.765 137.795 102.818 129.063 96.2734 123.714C89.5451 118.234 86.838 128.119 81.9232 124.684C76.9295 121.223 85.2873 115.035 79.7154 108.716C73.6967 101.95 64.2876 103.419 64.2876 103.419Z" fill="#657377"/>
<path d="M302.301 229.098C300.146 229.098 298.411 227.367 298.411 225.217V214.571C298.411 212.421 300.146 210.69 302.301 210.69C304.456 210.69 306.191 212.421 306.191 214.571V225.217C306.191 227.367 304.456 229.098 302.301 229.098Z" fill="black"/>
<path d="M349.399 229.098C347.244 229.098 345.51 227.367 345.51 225.217V214.571C345.51 212.421 347.244 210.69 349.399 210.69C351.555 210.69 353.289 212.421 353.289 214.571V225.217C353.289 227.367 351.528 229.098 349.399 229.098Z" fill="black"/>
<path d="M307.925 190.315C308.319 189.057 309.607 188.506 311.132 188.191C312.656 187.877 322.302 187.562 325.876 187.51C329.451 187.457 339.543 188.191 341.173 188.322C342.802 188.453 343.485 189.397 343.932 190.315C344.379 191.233 349.399 201.564 349.951 202.272C350.503 202.954 351.948 204.894 352.08 205.523C352.211 206.153 353.341 208.539 353.262 208.775C353.21 209.037 353.262 222.541 353.262 222.541L298.463 223.354C298.463 223.354 298.332 212.21 298.463 209.535C298.595 206.834 300.96 203.662 302.169 202.036C303.352 200.384 307.505 191.679 307.925 190.315Z" fill="#1D7DCC"/>
<path d="M302.17 202.011H299.726C298.727 202.011 297.912 201.198 297.912 200.201C297.912 199.205 298.727 198.392 299.726 198.392H300.357C301.355 198.392 302.17 199.205 302.17 200.201V202.011Z" fill="#D2D3D5"/>
<path d="M309.451 191.312L307.243 199.441H344.485L342.488 191.312C342.488 191.312 323.748 186.986 309.451 191.312Z" fill="#3B3B3B"/>
<path d="M307.243 199.441L308.872 211.031C308.977 211.765 309.608 212.342 310.37 212.342H341.357C342.12 212.342 342.75 211.791 342.855 211.031L344.485 199.441H307.243Z" fill="#0C96FD"/>
<path d="M334.155 205.893H317.728V210.219H334.155V205.893Z" fill="white"/>
<path d="M307.531 201.355L308.477 208.041H302.196V204.711C302.17 204.711 303.142 201.67 307.531 201.355Z" fill="#7D009B"/>
<path d="M349.714 202.011H352.158C353.157 202.011 353.972 201.198 353.972 200.201C353.972 199.205 353.157 198.392 352.158 198.392H351.528C350.529 198.392 349.714 199.205 349.714 200.201V202.011Z" fill="#D2D3D5"/>
<path d="M344.379 201.355L343.433 208.041H349.714V204.711C349.714 204.711 348.742 201.67 344.379 201.355Z" fill="#7D009B"/>
<path d="M308.53 190.133V178.595C308.504 177.573 309.319 176.76 310.317 176.76H340.148C341.147 176.76 341.935 177.573 341.935 178.543V190.133H339.649L339.438 181.112C339.412 180.142 338.624 179.382 337.678 179.356L312.762 179.041C311.763 179.041 310.948 179.828 310.948 180.824V189.346L308.53 190.133Z" fill="#1D7DCC"/>
<path d="M327.821 191.627H315.915V199.441H327.821V191.627Z" fill="#DBAC73"/>
<path d="M337.651 194.408H329.503V199.442H337.651V194.408Z" fill="#DBAC73"/>
<path d="M250.472 72.8437C250.472 72.8437 256.044 69.3301 262.326 73.3157C266.531 75.9902 267.056 85.4561 265.48 88.6812C263.929 91.9064 256.754 97.7537 256.754 97.7537C256.754 97.7537 229.867 78.2977 250.472 72.8437Z" fill="#A5713D"/>
<path d="M232.548 128.616L232.469 142.487C232.469 142.487 215.858 142.671 214.807 142.408C213.756 142.146 208.368 137.898 207.816 137.662C207.264 137.426 206.738 137.662 206.948 138.318C207.159 138.974 208 141.019 208 141.019C208 141.019 203.926 140.573 203.558 140.337C203.19 140.101 200.746 138.239 200.246 138.082C199.747 137.925 198.88 138.239 199.116 138.764C199.326 139.288 201.639 142.251 201.639 142.251C201.639 142.251 201.166 145.424 202.375 146.578C203.584 147.731 209.209 148.675 211.968 148.859C214.702 149.042 235.465 151.691 237.2 151.612C238.934 151.533 241.457 151.009 242.351 147.286C243.244 143.562 243.534 129.35 243.534 129.35L232.548 128.616Z" fill="#DD866F"/>
<path d="M264.113 259.486V281.302H282.353C282.353 281.302 284.955 276.95 282.353 275.743C279.751 274.563 271.288 270.394 271.288 270.394L271.604 259.486H264.113Z" fill="#F69576"/>
<path d="M264.113 270.395V281.302H282.353C282.353 281.302 284.955 276.95 282.353 275.744C279.751 274.564 271.288 270.395 271.288 270.395H264.113Z" fill="#032240"/>
<path d="M264.113 279.101V281.304H282.353C282.353 281.304 282.958 280.281 283.3 279.101H264.113Z" fill="#BFBFBF"/>
<path d="M249.133 259.487L249.29 270.395C249.29 270.395 239.75 272.178 237.2 272.965C234.152 273.909 230.603 274.748 230.104 277.711C229.684 280.28 230.104 281.277 230.104 281.277H259.672L256.465 259.461H249.133V259.487Z" fill="#F69576"/>
<path d="M249.29 270.395C249.29 270.395 239.75 272.178 237.2 272.965C234.152 273.909 230.603 274.748 230.104 277.711C229.684 280.281 230.104 281.277 230.104 281.277H259.672L258.542 270.369H249.29V270.395Z" fill="#BFBFBF"/>
<path d="M230.102 277.736C230.024 278.261 229.971 278.707 229.945 279.1H259.46L258.54 270.395H249.289C249.289 270.395 239.748 272.178 237.199 272.964C234.15 273.908 230.602 274.747 230.102 277.736Z" fill="#032240"/>
<path d="M235.832 160.659C235.832 160.659 234.807 171.409 235.832 189.292C236.857 207.175 241.22 224.323 241.719 226.369C242.245 228.414 248.632 262.685 248.632 262.685H258.619C258.619 262.685 252.968 216.405 252.469 202.35C251.943 188.296 254.256 161.944 254.256 161.944L235.832 160.659Z" fill="#254B6B"/>
<path d="M272.471 161.943H251.208C251.208 161.943 249.552 204.448 251.208 206.441C252.864 208.407 257.884 216.405 258.646 222.54C259.408 228.676 261.485 262.685 261.485 262.685H272.497V161.943H272.471Z" fill="#254B6B"/>
<path d="M256.675 104.73C246.083 104.494 242.666 106.094 240.432 111.05C238.198 116.005 232.574 159.454 232.048 168.316C231.522 177.179 233.257 182.476 245.373 182.476C257.516 182.476 274.074 172.591 274.074 172.591C274.074 172.591 274.757 175.658 275.283 177.546C275.808 179.434 280.934 181.479 280.934 178.228C280.934 174.977 278.7 124.186 278.358 115.665C278.016 107.143 264.691 104.914 256.675 104.73Z" fill="black"/>
<path d="M245.399 107.64C241.22 106.539 237.357 106.617 234.282 112.753C231.207 118.889 228.815 137.978 228.815 137.978L243.008 143.589C243.008 143.589 256.491 110.524 245.399 107.64Z" fill="black"/>
<path d="M253.023 103.865C256.755 103.865 261.17 104.206 263.483 105.7C266.295 107.509 266.243 114.222 253.89 114.773C241.537 115.323 241.958 109.581 243.193 107.903C245.033 105.412 250.158 103.865 253.023 103.865Z" fill="#F69576"/>
<path d="M248.237 96.1567L245.845 111.575H260.406C260.406 111.575 259.696 105.439 258.881 101.48C258.067 97.5202 257.357 96.1567 257.357 96.1567H248.237Z" fill="#F69576"/>
<path d="M254.571 100.352C254.571 100.352 254.703 103.184 252.81 104.443C250.918 105.675 246.739 105.701 246.739 105.701L248.211 96.1567H254.361C254.361 96.1567 254.808 98.5429 254.571 100.352Z" fill="#DD866F"/>
<path d="M246.136 77.4868C246.136 77.4868 244.296 79.0076 243.481 82.3639C242.877 84.9336 243.008 87.713 242.666 89.2863C242.351 90.8333 241.825 93.3243 242.272 95.4745C242.719 97.6246 244.637 100.588 248.212 101.584C251.786 102.58 254.704 101.872 256.675 99.3814C258.646 96.8904 261.09 92.459 261.8 89.3912C262.51 86.3233 262.93 80.476 259.645 77.9063C255.44 74.6287 250.446 74.6025 246.136 77.4868Z" fill="#F69576"/>
<path d="M252.628 94.8456C252.628 94.8456 252.286 96.9432 251.051 97.389C249.816 97.8348 248.528 97.5463 247.976 96.8384C247.424 96.1304 247.109 94.8193 247.109 94.8193L252.628 94.8456Z" fill="white"/>
<path d="M249.473 92.5378C249.079 92.4591 249.079 92.0919 249.079 91.8558C249.079 91.8295 249.079 91.8295 249.079 91.8033C249.053 91.8295 249.053 91.8295 249.026 91.8558C248.895 91.9607 248.658 92.1181 248.396 91.882C248.29 91.7771 248.238 91.6197 248.264 91.4361C248.29 91.0164 248.553 90.4655 248.79 90.2819C248.842 90.2556 248.921 90.2556 248.947 90.3081C248.974 90.3606 248.974 90.4393 248.921 90.4655C248.737 90.5967 248.501 91.0688 248.501 91.4361C248.501 91.5672 248.527 91.6722 248.553 91.6984C248.658 91.8033 248.711 91.7771 248.869 91.6459C248.948 91.5935 249.026 91.541 249.105 91.5148C249.158 91.5148 249.21 91.5148 249.237 91.5672C249.315 91.6197 249.315 91.7246 249.289 91.8558C249.289 92.1181 249.315 92.2493 249.473 92.2755C249.552 92.2755 249.605 92.2755 249.631 92.2493C249.71 92.1968 249.71 92.0394 249.71 91.9082C249.71 91.8033 249.71 91.7508 249.736 91.6984C249.762 91.6459 249.815 91.5935 249.894 91.5935C249.999 91.5935 250.13 91.6722 250.314 91.8558C250.34 91.882 250.393 91.9345 250.446 91.9082C250.524 91.882 250.603 91.8033 250.656 91.5935C250.708 91.3049 250.446 90.7278 250.34 90.5442C250.314 90.4917 250.34 90.413 250.393 90.3868C250.446 90.3606 250.524 90.3868 250.551 90.4393C250.603 90.518 250.998 91.2262 250.892 91.6722C250.84 91.9345 250.708 92.1181 250.498 92.1706C250.367 92.1968 250.209 92.1706 250.104 92.0394C249.999 91.9345 249.946 91.882 249.92 91.882C249.92 91.9082 249.92 91.9345 249.92 91.9607C249.92 92.1181 249.894 92.3542 249.762 92.4591C249.683 92.5116 249.605 92.5378 249.526 92.5378C249.552 92.5378 249.499 92.5378 249.473 92.5378Z" fill="#6B3425"/>
<path d="M267.292 87.1365C266.188 84.4095 258.146 86.8743 259.644 91.9088C261.168 97.0743 268.922 91.1746 267.292 87.1365Z" fill="#F69576"/>
<path d="M261.143 92.5385C261.169 92.5385 261.195 92.5385 261.221 92.5123C261.274 92.4598 261.274 92.3812 261.221 92.355C260.88 91.9879 260.827 90.8604 261.248 89.7328C261.537 88.9462 262.299 87.5827 264.034 87.373C264.954 87.2681 265.611 87.4254 265.979 87.8449C266.53 88.4742 266.268 89.4969 266.268 89.4969C266.241 89.5493 266.294 89.628 266.346 89.6542C266.399 89.6804 266.478 89.628 266.504 89.5755C266.504 89.5231 266.793 88.4218 266.163 87.7138C265.742 87.2156 265.006 87.0583 264.007 87.1632C262.641 87.3205 261.563 88.2383 261.037 89.6804C260.617 90.8079 260.643 92.0665 261.064 92.5385C261.09 92.5385 261.116 92.5385 261.143 92.5385Z" fill="#6B3425"/>
<path d="M264.035 92.0928C264.087 92.0928 264.114 92.0666 264.14 92.0142C264.166 91.9093 265.086 89.7067 263.746 87.2419C263.719 87.1895 263.641 87.1633 263.588 87.1895C263.535 87.2157 263.509 87.2944 263.535 87.3468C264.823 89.7067 263.93 91.8831 263.93 91.9093C263.903 91.9617 263.93 92.0404 263.982 92.0666C264.008 92.0928 264.008 92.0928 264.035 92.0928Z" fill="#6B3425"/>
<path d="M253.469 90.2047C253.716 90.2047 253.916 89.8053 253.916 89.3128C253.916 88.8202 253.716 88.4209 253.469 88.4209C253.223 88.4209 253.022 88.8202 253.022 89.3128C253.022 89.8053 253.223 90.2047 253.469 90.2047Z" fill="#6B3425"/>
<path d="M255.519 86.979C255.177 86.6905 254.468 86.3233 253.732 86.2446C252.917 86.1659 252.47 86.5331 252.155 86.6118C251.84 86.6905 251.787 86.2446 251.971 85.8773C252.129 85.5101 252.812 85.2215 253.916 85.2478C255.02 85.3002 255.624 85.7724 255.913 86.1134C256.202 86.4282 255.992 87.3725 255.519 86.979Z" fill="#6B3425"/>
<path d="M246.687 89.9698C246.934 89.9698 247.134 89.5705 247.134 89.0779C247.134 88.5853 246.934 88.186 246.687 88.186C246.44 88.186 246.24 88.5853 246.24 89.0779C246.24 89.5705 246.44 89.9698 246.687 89.9698Z" fill="#6B3425"/>
<path d="M248.291 86.6382C247.949 86.3497 247.24 85.9824 246.504 85.9037C245.689 85.825 245.242 86.1923 244.927 86.271C244.611 86.3497 244.559 85.9037 244.743 85.5365C244.9 85.1692 245.584 84.8807 246.688 84.9069C247.792 84.9594 248.396 85.4316 248.685 85.7726C249.001 86.1136 248.764 87.0317 248.291 86.6382Z" fill="#6B3425"/>
<path d="M245.425 97.4155L245.977 97.5466C245.977 97.5466 247.054 99.6705 247.948 100.064C248.841 100.457 251.785 100.326 252.101 100.064C252.416 99.8016 253.441 97.468 253.441 97.468L254.124 97.6253C254.124 97.6253 253.073 101.008 252.915 101.296C252.81 101.48 250.865 102.817 250.103 102.87C249.341 102.922 246.739 101.506 246.607 101.191C246.24 100.247 245.425 97.4155 245.425 97.4155Z" fill="#6B3425"/>
<path d="M248.79 98.7522L250.105 98.6997L250.131 100.982L249.158 101.165L248.79 98.7522Z" fill="#6B3425"/>
<path d="M260.881 135.303L260.802 149.174C260.802 149.174 244.191 149.357 243.14 149.095C242.062 148.833 236.701 144.585 236.149 144.349C235.597 144.113 235.071 144.349 235.282 145.005C235.492 145.66 236.333 147.705 236.333 147.705C236.333 147.705 232.259 147.26 231.891 147.024C231.523 146.814 229.079 144.926 228.58 144.769C228.08 144.611 227.213 144.926 227.449 145.45C227.66 145.975 229.973 148.938 229.973 148.938C229.973 148.938 229.499 152.11 230.708 153.264C231.917 154.418 237.542 155.362 240.302 155.545C243.035 155.729 263.798 158.377 265.533 158.299C267.267 158.22 269.791 157.696 270.684 153.972C271.578 150.249 271.867 136.037 271.867 136.037L260.881 135.303Z" fill="#F69576"/>
<path opacity="0.4" d="M274.679 116.922L271.367 135.434L277.281 137.191L274.679 116.922Z" fill="#254B6B"/>
<path d="M260.381 74.2869C260.381 74.2869 257.332 79.7933 248.843 80.2915C231.155 81.3142 239.276 71.4288 239.276 71.4288C239.276 71.4288 238.645 74.0509 241.694 74.182C245.82 74.3656 251.839 61.7532 260.381 74.2869Z" fill="#A5713D"/>
<path d="M137.352 132.421L137.431 147.314C137.431 147.314 155.277 147.524 156.433 147.236C157.59 146.947 163.346 142.385 163.95 142.149C164.555 141.913 165.133 142.149 164.896 142.831C164.66 143.539 163.766 145.715 163.766 145.715C163.766 145.715 168.129 145.217 168.55 144.981C168.944 144.745 171.572 142.726 172.098 142.542C172.65 142.359 173.543 142.726 173.307 143.276C173.07 143.853 170.6 147.026 170.6 147.026C170.6 147.026 171.099 150.435 169.811 151.693C168.523 152.952 162.452 153.975 159.508 154.158C156.565 154.342 134.225 157.2 132.359 157.095C130.493 156.99 127.759 156.439 126.813 152.454C125.867 148.468 125.551 133.155 125.551 133.155L137.352 132.421Z" fill="#DD866F"/>
<path d="M114.25 107.852C114.25 107.852 107.469 106.725 102.633 113.778C97.7974 120.832 100.557 132.92 100.215 145.925C99.8737 158.931 101.056 182.137 101.056 182.137H134.514C134.514 182.137 133.673 153.66 135.907 142.123C138.141 130.612 138.325 115.194 133.962 112.048C129.625 108.927 121.136 106.358 114.25 107.852Z" fill="#4E5E0A"/>
<path d="M125.629 73.6076C125.629 73.6076 119.637 69.8318 112.882 74.1321C108.362 77.0164 108.861 86.8755 109.492 90.6513C110.964 99.6189 118.875 100.432 118.875 100.432C118.875 100.432 147.759 79.4549 125.629 73.6076Z" fill="black"/>
<path d="M122.871 106.961C118.849 106.961 114.092 107.328 111.622 108.928C122.397 115.247 129.231 119.967 129.231 119.967C129.231 119.967 134.75 113.123 133.436 111.287C131.465 108.639 125.946 106.961 122.871 106.961Z" fill="#F69576"/>
<path d="M128.022 98.6743L130.598 115.246L120.19 113.463C120.19 113.463 114.197 111.968 115.091 107.721C115.985 103.473 118.219 98.6743 118.219 98.6743H128.022Z" fill="#F69576"/>
<path d="M121.214 103.184C121.214 103.184 121.083 106.226 123.107 107.563C125.13 108.901 129.625 108.927 129.625 108.927L128.021 98.6743H121.424C121.424 98.6743 120.951 101.244 121.214 103.184Z" fill="#DD866F"/>
<path d="M130.281 78.5897C130.281 78.5897 132.252 80.2154 133.12 83.8339C133.777 86.6134 133.645 89.6026 133.987 91.2807C134.329 92.9589 134.881 95.6334 134.408 97.9409C133.935 100.275 131.858 103.447 128.021 104.522C124.184 105.597 121.03 104.811 118.927 102.162C116.825 99.4879 114.196 94.7157 113.408 91.4118C112.619 88.108 112.199 81.8149 115.747 79.0617C120.268 75.5219 125.656 75.4956 130.281 78.5897Z" fill="#F69576"/>
<path d="M123.318 97.2585C123.318 97.2585 123.686 99.5135 125.026 99.9855C126.366 100.457 127.733 100.143 128.338 99.3824C128.942 98.622 129.257 97.2061 129.257 97.2061L123.318 97.2585Z" fill="white"/>
<path d="M126.577 94.7945C126.472 94.7945 126.393 94.7682 126.314 94.7158C126.157 94.5846 126.13 94.3223 126.13 94.1649C126.13 94.1387 126.13 94.1124 126.13 94.0862C126.104 94.1124 126.025 94.1649 125.92 94.2698C125.815 94.401 125.657 94.4534 125.5 94.401C125.289 94.3485 125.132 94.1387 125.079 93.8763C124.974 93.4042 125.421 92.6435 125.447 92.5648C125.473 92.5123 125.552 92.4861 125.631 92.5123C125.684 92.5385 125.71 92.6172 125.684 92.6959C125.552 92.9058 125.263 93.5091 125.342 93.8239C125.394 94.0337 125.5 94.1387 125.578 94.1649C125.657 94.1911 125.71 94.1387 125.736 94.1124C125.92 93.9026 126.052 93.8239 126.183 93.8239C126.262 93.8239 126.314 93.8763 126.341 93.9288C126.367 93.9813 126.367 94.06 126.393 94.1649C126.393 94.2698 126.393 94.4534 126.472 94.5321C126.498 94.5584 126.577 94.5584 126.63 94.5584C126.814 94.5321 126.84 94.401 126.814 94.1124C126.814 93.9813 126.814 93.8763 126.893 93.7976C126.919 93.7714 126.971 93.7452 127.024 93.7452C127.129 93.7452 127.208 93.8239 127.287 93.8763C127.445 94.0075 127.523 94.0337 127.629 93.9288C127.681 93.8763 127.707 93.7714 127.707 93.6403C127.681 93.2468 127.418 92.7221 127.234 92.591C127.182 92.5385 127.155 92.4598 127.208 92.4074C127.261 92.3549 127.339 92.3287 127.392 92.3811C127.655 92.5648 127.944 93.1681 127.97 93.614C127.97 93.8239 127.944 94.0075 127.812 94.1124C127.523 94.3747 127.287 94.1911 127.129 94.0862C127.103 94.06 127.077 94.06 127.077 94.0337C127.077 94.06 127.077 94.0862 127.077 94.0862C127.077 94.3223 127.103 94.742 126.656 94.7945C126.656 94.7945 126.603 94.7945 126.577 94.7945Z" fill="#6B3425"/>
<path d="M107.522 88.9728C108.705 86.036 117.351 88.6844 115.748 94.1121C114.119 99.671 105.787 93.2993 107.522 88.9728Z" fill="#F69576"/>
<path d="M114.146 94.7935C114.119 94.7935 114.093 94.7935 114.067 94.7672C114.014 94.7148 114.014 94.6361 114.067 94.5837C114.409 94.1904 114.487 92.958 114.041 91.7518C113.725 90.9127 112.91 89.4444 111.044 89.2084C110.046 89.0773 109.336 89.2608 108.942 89.7066C108.364 90.3883 108.626 91.4634 108.626 91.4896C108.653 91.5683 108.6 91.6207 108.548 91.6469C108.469 91.6732 108.416 91.6207 108.39 91.5683C108.364 91.5158 108.074 90.3359 108.758 89.5492C109.205 89.0248 109.993 88.8413 111.071 88.9724C112.543 89.1559 113.699 90.1523 114.277 91.6731C114.724 92.8793 114.724 94.2428 114.251 94.7672C114.225 94.7672 114.172 94.7935 114.146 94.7935Z" fill="#6B3425"/>
<path d="M111.045 94.2954C110.992 94.2954 110.939 94.2691 110.913 94.2167C110.861 94.1118 109.914 91.7257 111.334 89.0774C111.36 89.0249 111.439 88.9987 111.518 89.0249C111.57 89.0512 111.596 89.1298 111.57 89.2085C110.203 91.7519 111.15 94.1118 111.15 94.1118C111.176 94.1905 111.15 94.2429 111.071 94.2692C111.071 94.2954 111.071 94.2954 111.045 94.2954Z" fill="#6B3425"/>
<path d="M122.398 92.251C122.659 92.251 122.871 91.8282 122.871 91.3066C122.871 90.7851 122.659 90.3623 122.398 90.3623C122.136 90.3623 121.925 90.7851 121.925 91.3066C121.925 91.8282 122.136 92.251 122.398 92.251Z" fill="#6B3425"/>
<path d="M118.955 88.4491C119.454 88.0034 120.453 87.4527 121.478 87.3478C122.608 87.2167 123.265 87.7674 123.712 87.8723C124.158 87.9771 124.237 87.3478 123.975 86.771C123.738 86.1941 122.766 85.7746 121.215 85.8532C119.664 85.9319 118.797 86.6661 118.376 87.1381C117.956 87.6101 118.297 89.0522 118.955 88.4491Z" fill="black"/>
<path d="M129.705 92.0156C129.966 92.0156 130.178 91.5928 130.178 91.0713C130.178 90.5498 129.966 90.127 129.705 90.127C129.443 90.127 129.231 90.5498 129.231 91.0713C129.231 91.5928 129.443 92.0156 129.705 92.0156Z" fill="#6B3425"/>
<path d="M127.943 88.2397C128.311 87.7677 129.073 87.1908 129.862 87.0597C130.729 86.9286 131.228 87.5055 131.57 87.6366C131.912 87.7677 131.964 87.0597 131.78 86.4566C131.596 85.8536 130.86 85.4078 129.678 85.4602C128.495 85.5127 127.838 86.3255 127.523 86.85C127.207 87.3744 127.444 88.869 127.943 88.2397Z" fill="black"/>
<path d="M101.056 182.163C101.056 182.163 99.1373 196.06 98.9533 206.837C98.7693 217.614 99.4789 225.428 98.9533 226.66C98.4276 227.866 97.7706 238.591 96.9032 247.453C96.0359 256.316 96.4039 278.447 96.4039 278.447L107.627 277.581C107.627 277.581 109.598 245.959 110.807 243.861C112.016 241.763 118.297 211.347 118.297 211.347C118.297 211.347 122.292 230.987 122.134 232.717C121.95 234.448 124.447 245.67 125.131 252.095C125.814 258.519 131.806 277.555 131.806 277.555H140.9L137.799 242.786C137.799 242.786 137.273 233.766 136.774 222.806C136.248 211.845 134.514 182.137 134.514 182.137H101.056V182.163Z" fill="#6B3425"/>
<path d="M152.989 278.08C154.855 278.814 154.487 283.56 154.487 283.56L127.574 283.167C127.443 281.987 127.574 276.795 127.574 276.795H140.006C140.006 276.821 148.074 276.139 152.989 278.08Z" fill="#493835"/>
<path d="M116.484 279.81C117.982 281.095 117.588 284.373 117.588 284.373L93.5128 284.714L94.4064 277.582H104.367C104.367 277.582 114.591 278.158 116.484 279.81Z" fill="#493835"/>
<path d="M120.793 247.453H142.003L142.844 279.443L127.574 283.192L120.793 247.453Z" fill="#493835"/>
<path d="M112.357 247.453L108.94 279.653L94.0644 280.151L92.4086 247.453H112.357Z" fill="#493835"/>
<path d="M346.797 246.823C346.797 246.823 348.084 247.112 348.952 247.007C349.819 246.902 350.792 247.033 351.133 247.426C351.475 247.82 351.738 248.947 351.738 248.947C351.738 248.947 351.895 248.973 352.106 249.104C352.29 249.236 352.29 249.55 352.29 249.55C352.29 249.55 352.395 249.55 352.474 249.629C352.579 249.708 352.552 249.917 352.552 249.917C352.552 249.917 352.658 249.944 352.71 249.996C352.789 250.075 352.71 250.18 352.71 250.18C352.71 250.18 352.973 250.075 352.894 250.389C352.842 250.704 352.526 250.809 352.526 250.809C352.526 250.809 352.368 250.966 352.237 250.966C352.106 250.966 352.132 250.835 352.132 250.835C352.132 250.835 351.948 251.019 351.79 251.019C351.633 251.019 351.711 250.861 351.711 250.861C351.711 250.861 351.554 251.202 351.317 251.202C351.081 251.228 351.028 251.071 351.028 251.071C351.028 251.071 351.054 251.386 350.45 251.438C349.845 251.491 349.53 251.281 349.53 251.281C349.53 251.281 348.558 251.831 347.48 251.176C346.402 250.52 346.613 249.524 346.744 249C346.928 248.554 347.112 247.007 346.797 246.823Z" fill="#72645D"/>
<path d="M330.896 251.096C331.422 251.096 332.342 253.613 332.657 255.711C332.946 257.808 333.235 259.539 333.235 259.539C333.235 259.539 334.024 260.404 336.1 260.404C338.176 260.404 340.042 260.588 340.121 260.929C340.226 261.269 338.965 262.974 336.573 264.18C334.181 265.386 332.867 266.068 332.867 266.068C332.867 266.068 332.683 268.008 333.104 269.083C333.551 270.158 334.523 272.571 334.313 272.859C334.129 273.148 331.396 271.784 329.661 270.63C327.926 269.477 326.849 268.218 326.402 268.218C325.955 268.218 324.51 268.952 322.959 269.922C321.408 270.893 320.83 271.469 320.541 271.233C320.252 270.998 320.488 267.851 321.224 265.753C321.96 263.656 322.381 262.502 322.381 262.502C322.381 262.502 321.461 260.273 320.094 259.355C318.727 258.438 317.518 257.651 317.965 257.363C318.412 257.074 321.224 256.497 323.353 256.55C325.482 256.602 326.717 257.022 327.085 256.786C327.453 256.55 328.872 254.688 329.477 253.482C330.081 252.276 330.896 251.096 330.896 251.096Z" fill="#72645D"/>
<path d="M55.6407 284.267C55.5619 284.739 53.6432 283.402 53.6432 283.402C53.6432 283.402 53.3016 283.847 53.065 283.664C52.8285 283.48 52.8285 283.035 52.8285 283.035C52.8285 283.035 50.9361 282.93 50.9624 282.484C50.9887 282.038 51.6983 280.884 51.4092 280.517C51.1201 280.15 49.8848 279.914 49.7797 278.708C49.6746 277.502 50.2791 277.082 50.3316 276.846C50.3842 276.61 50.1477 276.453 50.3579 276.165C50.5682 275.876 50.8047 276.112 50.8573 275.955C50.9099 275.798 50.9361 275.457 51.199 275.221C51.4618 274.985 51.8297 275.273 51.9349 275.142C52.04 275.037 51.9612 274.749 52.3554 274.565C52.7496 274.382 52.881 274.67 52.9862 274.618C53.0913 274.565 53.0125 274.224 53.4067 274.146C53.7746 274.067 53.8535 274.408 53.9849 274.382C54.1163 274.382 54.1163 274.041 54.5894 273.988C55.0625 273.962 55.0362 274.382 55.1676 274.355C55.299 274.329 55.299 273.91 55.7196 273.988C56.1401 274.067 56.1138 274.46 56.3241 274.487C56.5343 274.513 56.692 274.146 57.0337 274.277C57.3754 274.408 57.3491 274.88 57.4805 274.959C57.6119 275.037 57.8484 274.827 58.1901 275.037C58.5581 275.273 58.4004 275.588 58.5318 275.693C58.6632 275.771 58.9523 275.666 59.1626 275.981C59.3728 276.296 59.1888 276.479 59.294 276.584C59.3991 276.689 59.7933 276.558 59.9248 276.846C60.0562 277.135 59.6882 277.345 59.8196 277.476C59.9248 277.607 60.1876 277.528 60.2927 277.895C60.3978 278.262 59.9773 278.603 60.0562 278.761C60.135 278.918 60.5555 278.787 60.5818 279.206C60.6081 279.6 60.1613 279.836 60.2664 279.941C60.3716 280.045 60.5818 279.993 60.503 280.334C60.4241 280.675 60.0824 280.622 60.0562 280.78C60.0299 280.911 60.0562 281.933 59.3465 282.353C58.6369 282.799 56.876 282.458 56.5606 282.615C56.2452 282.799 55.6933 283.926 55.6407 284.267Z" fill="#72645D"/>
<path d="M136.748 73.2926L103.264 95.1348L104.683 85.8525L103.71 74.4988L118.586 65.3477L127.365 71.6407L136.748 73.2926Z" fill="#DBAC73"/>
<path d="M158.275 126.757C161.166 127.622 161.692 135.515 161.692 135.515L152.598 133.417C152.572 133.443 155.331 125.892 158.275 126.757Z" fill="#FFA539"/>
<path d="M120.638 123.347C121.794 124.449 125.947 128.854 126.078 129.929C126.236 131.004 125.71 133.285 124.422 133.809C123.135 134.334 119.324 135.566 117.431 135.96C115.513 136.379 114.041 134.098 114.934 128.749C115.828 123.4 119.534 122.272 120.638 123.347Z" fill="#FFA539"/>
<path d="M139.403 130.296C139.403 130.296 137.8 125.969 134.173 125.917C130.572 125.89 129.573 130.269 129.573 130.269L139.403 130.296Z" fill="#FFA539"/>
<path d="M140.324 130.506C140.324 130.506 139.877 124.607 146.553 125.708C153.229 126.809 152.362 132.211 152.362 132.211L140.324 130.506Z" fill="#FFA539"/>
<path d="M136.039 140.024C136.039 140.024 132.175 143.197 129.179 141.126C126.183 139.08 127.917 134.334 127.917 134.334L136.039 140.024Z" fill="#FFA539"/>
<path d="M136.933 140.339C136.933 140.339 133.122 145.662 139.272 148.494C145.422 151.326 147.866 145.688 147.866 145.688L136.933 140.339Z" fill="#FFA539"/>
<path d="M123.581 129.379C126.183 129.221 143.135 128.802 152.492 131.398C161.848 133.994 171.205 142.515 172.283 143.407C173.36 144.298 173.833 145.557 173.465 146.003C173.124 146.449 172.493 146.685 172.493 146.685C172.493 146.685 172.94 147.104 172.44 147.314C171.941 147.524 167.657 149.202 160.639 148.651C153.622 148.101 145.474 146.606 136.512 141.467C127.55 136.327 123.949 133.522 122.635 132.473C121.347 131.45 120.611 129.536 123.581 129.379Z" fill="#A5713D"/>
<path d="M156.198 143.853C156.198 143.853 152.781 144.561 150.783 146.553C148.786 148.546 148.891 150.355 150.31 151.719C151.73 153.082 153.569 152.374 155.094 150.277C156.618 148.179 157.669 146.37 157.669 146.37C157.669 146.37 155.698 145.085 156.198 143.853Z" fill="#FFA539"/>
<path d="M170.626 147.26C170.626 147.26 170.81 148.388 170.206 149.568C169.601 150.748 167.761 151.639 167.761 151.639C167.761 151.639 168.918 150.538 169.338 149.489C169.759 148.44 169.575 147.26 169.575 147.26H170.626Z" fill="#A5713D"/>
<path d="M166.294 141.694C166.448 141.18 166.403 140.713 166.195 140.651C165.986 140.589 165.692 140.955 165.538 141.468C165.385 141.982 165.429 142.449 165.638 142.511C165.846 142.573 166.14 142.207 166.294 141.694Z" fill="#6B3425"/>
<path d="M122.793 132.184C122.977 131.791 123.975 131.24 124.659 131.161C125.342 131.109 125.763 130.899 126.367 130.427C126.972 129.955 127.681 130.086 128.181 129.981C128.68 129.876 130.625 129.195 130.73 129.273C130.835 129.352 130.677 130.034 130.993 130.008C131.308 129.955 132.57 129.981 132.78 130.296C132.99 130.584 133.122 130.925 133.384 130.925C133.647 130.952 134.225 130.663 134.409 130.873C134.593 131.083 134.593 131.371 134.593 131.371C134.593 131.371 135.067 131.266 135.303 131.555C135.513 131.843 135.251 132.027 135.356 132.21C135.461 132.394 136.249 132.63 136.223 132.971C136.197 133.311 135.618 133.338 135.802 133.652C135.986 133.967 136.223 134.203 136.065 134.465C135.908 134.727 135.566 134.544 135.671 134.832C135.776 135.121 135.96 135.33 135.54 135.881C135.119 136.458 135.014 136.379 134.383 137.533C133.752 138.687 133.384 139.5 132.307 140.234C131.229 140.968 129.442 141.519 128.811 141.519C128.181 141.519 126.183 140.916 125.421 140.863C124.659 140.811 123.502 140.627 123.187 140.312C122.871 139.972 122.74 139.526 122.398 139.631C122.057 139.709 121.952 139.84 121.794 139.447C121.636 139.054 121.873 138.713 121.505 138.661C121.137 138.608 120.821 138.713 120.874 138.267C120.927 137.795 121.321 137.533 121.137 137.376C120.953 137.218 120.664 137.218 120.743 136.799C120.821 136.406 121.005 135.907 121.242 135.698C121.452 135.462 121.925 135.435 121.873 134.911C121.82 134.387 121.689 134.386 121.978 134.046C122.267 133.705 123.108 133.023 123.029 132.761C122.95 132.499 122.687 132.446 122.793 132.184Z" fill="#6B3425"/>
<path d="M111.964 135.356C112.069 135.224 113.015 136.037 113.646 136.299C114.277 136.562 114.934 136.771 114.934 136.771L114.987 136.929C114.987 136.929 116.038 137.453 116.721 137.637C117.378 137.82 117.983 137.82 117.983 137.82C117.983 137.82 117.878 137.663 118.272 137.715C118.666 137.768 121.137 138.109 121.478 138.056C121.82 138.004 122.451 138.528 122.372 138.712C122.293 138.895 121.557 139.446 120.664 139.472C119.77 139.472 118.298 139.184 118.114 139.079C117.957 138.974 116.826 138.869 116.09 138.581C115.355 138.318 115.039 138.135 114.987 138.03C114.934 137.925 113.962 137.558 113.094 136.798C112.227 136.063 111.859 135.487 111.964 135.356Z" fill="#6B3425"/>
<path d="M122.819 139.368C122.819 139.368 119.77 140.522 119.35 140.653C118.929 140.784 116.38 141.728 116.275 141.781C116.17 141.833 115.434 142.174 114.961 142.567C114.487 142.96 113.962 143.537 114.014 143.564C114.041 143.616 114.409 144.009 114.803 143.773C115.197 143.511 116.564 142.488 116.564 142.488C116.564 142.488 116.879 142.646 117.484 142.41C118.088 142.174 119.586 141.518 119.586 141.518C119.586 141.518 120.716 141.387 121.663 141.099C122.609 140.837 123.975 140.102 123.975 140.102L122.819 139.368Z" fill="#6B3425"/>
<path d="M124.686 140.129L126.21 140.496L122.241 143.066C122.241 143.066 120.323 145.058 120.323 145.163C120.323 145.268 120.428 147.445 120.244 147.602C120.06 147.759 119.587 146.553 119.377 145.924C119.193 145.294 119.455 144.744 119.429 144.718C119.403 144.665 119.455 144.219 120.139 143.459C120.822 142.725 121.768 142.2 121.768 142.2C121.768 142.2 121.479 142.2 122.373 141.676C123.266 141.178 124.686 140.129 124.686 140.129Z" fill="#6B3425"/>
<path d="M126.497 140.915L125.761 141.885C125.761 141.885 124.631 142.488 124.29 142.698C123.948 142.908 123.922 143.144 123.922 143.144C123.922 143.144 123.606 143.223 123.317 143.563C123.028 143.904 122.949 144.534 123.002 144.796C123.054 145.058 124.053 146.789 124.053 146.789C124.053 146.789 124.736 146.028 124.763 145.346C124.789 144.691 124.605 144.219 124.605 144.219L124.736 144.062L126.366 142.462C126.366 142.462 126.97 142.305 127.391 142.016C127.785 141.728 128.179 141.151 128.179 141.151L126.497 140.915Z" fill="#6B3425"/>
<path d="M133.49 138.188L134.962 138.555C134.962 138.555 135.987 138.319 136.434 138.266C136.881 138.187 137.143 138.319 137.143 138.319C137.143 138.319 137.564 138.135 138.063 138.319C138.563 138.502 138.957 138.895 139.088 139.472C139.193 140.049 139.377 141.15 139.377 141.15C139.377 141.15 138.668 141.229 137.984 140.574C137.301 139.918 137.301 139.525 137.301 139.525L137.064 139.446L134.909 139.42C134.909 139.42 134.147 139.656 133.516 139.656C132.886 139.656 132.623 139.577 132.623 139.577L133.49 138.188Z" fill="#6B3425"/>
<path d="M134.671 136.485C134.671 136.485 137.852 136.039 137.983 136.065C138.115 136.091 138.193 136.249 138.193 136.249C138.193 136.249 139.613 136.039 140.401 136.144C141.19 136.222 141.61 136.432 141.61 136.432L141.584 136.589C141.584 136.589 141.952 136.747 142.293 137.271C142.661 137.822 142.977 139.159 142.845 139.29C142.714 139.421 142.188 138.582 142.004 138.346C141.82 138.11 141.137 137.533 141.137 137.533L138.456 137.166L133.778 137.874L134.671 136.485Z" fill="#6B3425"/>
<path d="M135.329 134.857L139.166 133.363L142.11 132.288L142.136 132.366C142.136 132.366 143.056 131.999 143.634 132.078C144.213 132.157 144.896 132.261 144.896 132.261C144.896 132.261 144.791 132.865 144.449 132.917C144.107 132.969 142.373 133.101 142.373 133.101C142.373 133.101 142.005 133.415 141.532 133.599C141.059 133.782 139.324 134.359 139.324 134.359C139.324 134.359 137.379 135.382 136.801 135.565C136.223 135.749 135.014 135.985 135.014 135.985L135.329 134.857Z" fill="#6B3425"/>
<path d="M135.409 132.629C135.409 132.629 136.539 131.607 136.933 131.161C137.327 130.715 137.695 129.981 137.774 129.981C137.853 129.981 137.958 130.033 137.958 130.033C137.958 130.033 138.589 129.404 138.904 128.801C139.22 128.224 139.535 127.333 139.535 127.333L139.456 127.123C139.456 127.123 139.982 126.415 140.192 125.759C140.402 125.078 140.56 124.212 140.691 124.212C140.823 124.212 141.112 125.078 140.902 125.864C140.718 126.651 140.245 128.119 140.245 128.119L140.35 128.277C140.35 128.277 139.903 129.273 139.614 129.824C139.325 130.374 138.773 130.925 138.773 130.925C138.773 130.925 138.3 132.131 137.459 132.787C136.618 133.442 135.435 133.809 135.435 133.809L135.409 132.629Z" fill="#6B3425"/>
<path d="M134.172 131.16C134.172 131.16 134.618 130.242 134.434 129.612C134.224 128.983 132.989 126.754 134.014 125.889C135.039 124.998 135.749 125.548 136.011 125.889C136.301 126.256 136.511 127.2 136.563 128.275C136.616 129.35 136.274 130.084 135.827 130.478C135.407 130.871 135.039 131.763 135.039 131.763L134.172 131.16Z" fill="#6B3425"/>
<path d="M127.84 122.324C127.84 122.324 129.206 122.324 129.942 122.455C130.678 122.586 131.361 122.822 131.361 122.822C131.361 122.822 131.887 122.639 133.175 123.294C134.463 123.95 135.488 124.946 135.777 125.34C136.066 125.733 136.171 126.021 135.803 126.546C135.409 127.07 133.806 127.464 132.991 127.437C132.176 127.411 131.729 127.07 131.729 127.07C131.729 127.07 130.468 126.677 129.679 126.415C128.891 126.152 127.524 125.681 127.077 125.209C126.631 124.737 126.867 124.212 126.867 124.212L127.472 124.841L127.734 124.632L128.129 124.946L128.418 124.894L128.575 125.051C128.575 125.051 128.891 124.946 129.049 124.999C129.206 125.051 129.338 125.156 129.338 125.156L129.758 125.209L129.416 124.946C129.416 124.946 129.522 124.737 129.39 124.632C129.259 124.501 129.101 124.448 129.101 124.448C129.101 124.448 129.285 124.317 129.232 124.186C129.18 124.055 128.917 123.924 128.917 123.924C128.917 123.924 129.18 123.819 129.101 123.635C129.022 123.452 128.497 123.294 128.497 123.294C128.497 123.294 128.628 123.032 128.47 122.822C128.391 122.56 127.84 122.324 127.84 122.324Z" fill="#6B3425"/>
<path d="M116.169 132.498C115.749 131.842 115.67 131.318 116.169 130.191C116.669 129.063 117.72 127.201 118.298 126.992C118.877 126.756 119.166 126.756 119.166 126.756C119.166 126.756 120.401 126.048 120.979 125.733C121.557 125.418 122.372 125.208 122.372 125.208C122.372 125.208 121.873 125.759 121.846 125.995C121.846 126.231 121.978 126.572 121.978 126.572C121.978 126.572 121.557 126.939 121.61 127.149C121.662 127.332 121.925 127.359 121.925 127.359C121.925 127.359 121.557 127.647 121.636 127.831C121.715 128.04 121.873 128.145 121.873 128.145C121.873 128.145 121.61 128.407 121.662 128.643C121.715 128.906 121.952 129.089 121.952 129.089C121.952 129.089 121.925 128.827 122.188 128.775C122.425 128.748 122.582 128.827 122.582 128.827L122.687 128.486L122.95 128.565L123.239 127.988L123.581 128.171L123.975 127.254C123.975 127.254 124.422 127.568 124.238 128.171C124.054 128.775 123.634 129.037 122.661 130.059C121.689 131.082 120.927 131.764 120.664 131.895C120.401 132.026 120.164 132.078 120.164 132.078C120.164 132.078 117.194 134.071 116.169 132.498Z" fill="#6B3425"/>
<path d="M116.511 131.397C117.379 131.292 118.167 132 118.509 132.577C118.877 133.153 119.034 133.888 119.481 134.438C119.928 134.989 121.479 135.88 121.479 135.88L121.163 136.824C121.163 136.824 120.007 136.012 119.586 135.985C119.166 135.959 118.456 136.09 117.694 135.618C116.932 135.146 115.513 133.389 115.591 132.708C115.67 132.026 116.038 131.475 116.511 131.397Z" fill="#6B3425"/>
<path d="M123.709 132.143C123.927 132.063 123.99 131.69 123.85 131.309C123.709 130.929 123.419 130.685 123.201 130.765C122.983 130.845 122.92 131.218 123.06 131.599C123.201 131.98 123.491 132.223 123.709 132.143Z" fill="black"/>
<path d="M130.016 129.804C130.248 129.719 130.31 129.309 130.154 128.887C129.999 128.466 129.685 128.193 129.453 128.278C129.222 128.363 129.16 128.774 129.316 129.195C129.471 129.617 129.785 129.889 130.016 129.804Z" fill="black"/>
<path d="M153.781 105.91C156.645 105.018 161.481 111.285 161.481 111.285L152.755 114.589C152.755 114.615 150.863 106.827 153.781 105.91Z" fill="#FFA539"/>
<path d="M120.585 123.951C122.162 124.239 128.075 125.602 128.785 126.415C129.495 127.228 130.336 129.405 129.573 130.558C128.785 131.712 126.314 134.832 124.974 136.248C123.607 137.664 121.11 136.589 118.876 131.633C116.616 126.678 119.087 123.688 120.585 123.951Z" fill="#FFA539"/>
<path d="M140.061 119.308C140.061 119.308 136.302 116.607 133.28 118.574C130.257 120.54 131.887 124.736 131.887 124.736L140.061 119.308Z" fill="#FFA539"/>
<path d="M140.953 118.994C140.953 118.994 137.3 114.327 143.45 111.547C149.6 108.768 151.887 113.75 151.887 113.75L140.953 118.994Z" fill="#FFA539"/>
<path d="M142.688 129.272C142.688 129.272 141.243 134.044 137.616 133.992C133.989 133.939 132.78 129.036 132.78 129.036L142.688 129.272Z" fill="#FFA539"/>
<path d="M143.608 129.037C143.608 129.037 143.424 135.567 150.1 134.518C156.802 133.469 155.671 127.438 155.671 127.438L143.608 129.037Z" fill="#FFA539"/>
<path d="M126.392 127.332C128.469 125.759 142.32 116.005 151.545 112.963C160.77 109.922 173.307 111.836 174.7 111.967C176.093 112.098 177.17 112.885 177.144 113.461C177.118 114.038 176.723 114.589 176.723 114.589C176.723 114.589 177.328 114.694 177.039 115.14C176.75 115.585 174.095 119.361 167.971 122.796C161.821 126.231 154.226 129.509 143.923 130.217C133.62 130.925 129.047 130.558 127.391 130.453C125.683 130.295 124.027 129.115 126.392 127.332Z" fill="#A5713D"/>
<path d="M161.586 121.275C161.586 121.275 159.142 123.766 158.59 126.519C158.038 129.272 159.142 130.714 161.087 131.055C163.032 131.396 164.162 129.771 164.267 127.201C164.372 124.631 164.241 122.507 164.241 122.507C164.241 122.507 161.849 122.56 161.586 121.275Z" fill="#FFA539"/>
<path d="M175.489 116.11C175.489 116.11 176.277 116.949 176.435 118.26C176.593 119.571 175.568 121.354 175.568 121.354C175.568 121.354 175.91 119.807 175.699 118.68C175.489 117.578 174.648 116.687 174.648 116.687L175.489 116.11Z" fill="#A5713D"/>
<path d="M168.678 114.922C168.886 114.858 168.926 114.391 168.768 113.878C168.609 113.366 168.312 113.003 168.104 113.067C167.896 113.131 167.856 113.598 168.015 114.11C168.173 114.623 168.47 114.986 168.678 114.922Z" fill="#6B3425"/>
<path d="M132.123 116.189C132.307 115.795 133.306 115.245 133.989 115.166C134.672 115.114 135.093 114.904 135.697 114.432C136.302 113.96 137.011 114.091 137.511 113.986C138.01 113.881 139.955 113.2 140.06 113.278C140.165 113.357 140.008 114.039 140.323 114.012C140.638 113.96 141.9 113.986 142.11 114.301C142.32 114.616 142.452 114.93 142.715 114.93C142.978 114.93 143.556 114.668 143.74 114.878C143.924 115.114 143.924 115.376 143.924 115.376C143.924 115.376 144.397 115.271 144.633 115.56C144.844 115.848 144.581 116.031 144.686 116.215C144.791 116.399 145.58 116.635 145.553 116.975C145.527 117.316 144.949 117.343 145.133 117.657C145.317 117.972 145.553 118.208 145.396 118.47C145.238 118.732 144.896 118.549 145.001 118.837C145.106 119.126 145.29 119.335 144.87 119.886C144.449 120.463 144.344 120.384 143.713 121.538C143.083 122.692 142.715 123.504 141.637 124.239C140.56 124.973 138.772 125.524 138.142 125.524C137.511 125.524 135.513 124.92 134.751 124.868C133.989 124.816 132.833 124.632 132.517 124.317C132.202 123.976 132.07 123.531 131.729 123.636C131.387 123.714 131.282 123.845 131.124 123.452C130.966 123.059 131.203 122.718 130.835 122.665C130.467 122.613 130.152 122.718 130.204 122.272C130.257 121.8 130.651 121.538 130.467 121.381C130.283 121.223 129.994 121.223 130.073 120.804C130.152 120.384 130.336 119.912 130.572 119.702C130.782 119.466 131.256 119.44 131.203 118.916C131.15 118.365 131.019 118.391 131.308 118.051C131.597 117.71 132.438 117.028 132.359 116.766C132.281 116.503 132.018 116.477 132.123 116.189Z" fill="#6B3425"/>
<path d="M121.295 119.36C121.4 119.229 122.347 120.042 122.977 120.304C123.608 120.567 124.265 120.776 124.265 120.776L124.318 120.934C124.318 120.934 125.369 121.458 126.052 121.642C126.709 121.825 127.314 121.825 127.314 121.825C127.314 121.825 127.209 121.668 127.603 121.72C127.997 121.773 130.468 122.114 130.81 122.061C131.151 122.009 131.782 122.533 131.703 122.717C131.624 122.9 130.888 123.451 129.995 123.477C129.101 123.477 127.629 123.189 127.445 123.084C127.288 122.979 126.158 122.874 125.422 122.586C124.686 122.323 124.37 122.14 124.318 122.035C124.265 121.93 123.293 121.563 122.425 120.803C121.532 120.095 121.19 119.492 121.295 119.36Z" fill="#6B3425"/>
<path d="M132.149 123.398C132.149 123.398 129.1 124.552 128.68 124.683C128.259 124.814 125.71 125.758 125.605 125.811C125.5 125.863 124.764 126.204 124.291 126.597C123.818 126.991 123.292 127.568 123.345 127.594C123.397 127.62 123.739 128.04 124.133 127.804C124.527 127.568 125.894 126.519 125.894 126.519C125.894 126.519 126.209 126.676 126.814 126.44C127.418 126.204 128.916 125.549 128.916 125.549C128.916 125.549 130.047 125.417 130.993 125.129C131.939 124.867 133.306 124.133 133.306 124.133L132.149 123.398Z" fill="#6B3425"/>
<path d="M134.016 124.159L135.54 124.526L131.572 127.096C131.572 127.096 129.653 129.089 129.653 129.194C129.653 129.299 129.758 131.475 129.574 131.632C129.417 131.79 128.917 130.583 128.707 129.954C128.523 129.325 128.786 128.774 128.76 128.748C128.733 128.722 128.786 128.25 129.469 127.489C130.152 126.729 131.099 126.231 131.099 126.231C131.099 126.231 130.81 126.231 131.703 125.706C132.597 125.182 134.016 124.159 134.016 124.159Z" fill="#6B3425"/>
<path d="M135.804 124.92L135.068 125.89C135.068 125.89 133.938 126.493 133.596 126.703C133.255 126.913 133.228 127.149 133.228 127.149C133.228 127.149 132.913 127.227 132.624 127.568C132.335 127.909 132.256 128.538 132.309 128.801C132.361 129.063 133.36 130.793 133.36 130.793C133.36 130.793 134.043 130.033 134.07 129.351C134.096 128.696 133.912 128.224 133.912 128.224L134.043 128.066L135.673 126.467C135.673 126.467 136.277 126.31 136.698 126.021C137.092 125.733 137.486 125.156 137.486 125.156L135.804 124.92Z" fill="#6B3425"/>
<path d="M142.82 122.192L144.292 122.559C144.292 122.559 145.317 122.323 145.764 122.271C146.211 122.192 146.474 122.323 146.474 122.323C146.474 122.323 146.894 122.14 147.393 122.323C147.893 122.507 148.287 122.9 148.418 123.477C148.524 124.054 148.708 125.155 148.708 125.155C148.708 125.155 147.998 125.234 147.315 124.578C146.631 123.923 146.631 123.53 146.631 123.53L146.395 123.451L144.24 123.425C144.24 123.425 143.477 123.661 142.847 123.661C142.216 123.661 141.953 123.582 141.953 123.582L142.82 122.192Z" fill="#6B3425"/>
<path d="M144.004 120.489C144.004 120.489 147.184 120.044 147.315 120.07C147.447 120.122 147.526 120.254 147.526 120.254C147.526 120.254 148.945 120.044 149.733 120.149C150.522 120.227 150.942 120.437 150.942 120.437L150.916 120.594C150.916 120.594 151.284 120.752 151.626 121.276C151.994 121.827 152.309 123.164 152.178 123.295C152.046 123.426 151.521 122.587 151.337 122.351C151.153 122.115 150.469 121.538 150.469 121.538L147.789 121.171L143.11 121.879L144.004 120.489Z" fill="#6B3425"/>
<path d="M144.659 118.89L148.497 117.395L151.44 116.32L151.467 116.399C151.467 116.399 152.386 116.032 152.965 116.11C153.543 116.189 154.226 116.294 154.226 116.294C154.226 116.294 154.121 116.897 153.779 116.949C153.438 117.002 151.703 117.133 151.703 117.133C151.703 117.133 151.335 117.447 150.862 117.631C150.415 117.815 148.654 118.391 148.654 118.391C148.654 118.391 146.709 119.414 146.131 119.598C145.553 119.781 144.344 120.017 144.344 120.017L144.659 118.89Z" fill="#6B3425"/>
<path d="M144.739 116.634C144.739 116.634 145.869 115.612 146.263 115.166C146.658 114.72 147.026 113.986 147.104 113.986C147.183 113.986 147.288 114.038 147.288 114.038C147.288 114.038 147.919 113.409 148.235 112.806C148.55 112.229 148.865 111.338 148.865 111.338L148.786 111.128C148.786 111.128 149.312 110.42 149.522 109.764C149.733 109.083 149.89 108.217 150.022 108.217C150.153 108.217 150.442 109.083 150.232 109.869C150.048 110.656 149.575 112.124 149.575 112.124L149.68 112.282C149.68 112.282 149.233 113.278 148.944 113.829C148.655 114.379 148.103 114.93 148.103 114.93C148.103 114.93 147.63 116.136 146.789 116.792C145.922 117.447 144.765 117.814 144.765 117.814L144.739 116.634Z" fill="#6B3425"/>
<path d="M143.479 115.164C143.479 115.164 143.925 114.247 143.741 113.617C143.531 112.988 142.296 110.759 143.321 109.894C144.346 109.002 145.056 109.553 145.318 109.894C145.607 110.261 145.818 111.205 145.87 112.28C145.923 113.355 145.581 114.089 145.134 114.483C144.714 114.876 144.346 115.767 144.346 115.767L143.479 115.164Z" fill="#6B3425"/>
<path d="M137.145 106.329C137.145 106.329 138.512 106.329 139.247 106.46C139.983 106.591 140.667 106.827 140.667 106.827C140.667 106.827 141.192 106.644 142.48 107.299C143.768 107.955 144.793 108.951 145.082 109.345C145.371 109.738 145.476 110.026 145.108 110.551C144.714 111.075 143.111 111.468 142.296 111.442C141.482 111.416 141.035 111.075 141.035 111.075C141.035 111.075 139.773 110.682 138.985 110.42C138.196 110.157 136.829 109.685 136.383 109.213C135.962 108.768 136.172 108.217 136.172 108.217L136.777 108.846L137.04 108.637L137.434 108.951L137.723 108.899L137.881 109.056C137.881 109.056 138.196 108.951 138.354 109.004C138.512 109.056 138.643 109.161 138.643 109.161L139.064 109.213L138.722 108.951C138.722 108.951 138.827 108.741 138.696 108.637C138.564 108.505 138.406 108.453 138.406 108.453C138.406 108.453 138.59 108.322 138.538 108.191C138.485 108.06 138.222 107.929 138.222 107.929C138.222 107.929 138.485 107.824 138.406 107.64C138.328 107.457 137.802 107.299 137.802 107.299C137.802 107.299 137.933 107.037 137.776 106.827C137.618 106.618 137.145 106.329 137.145 106.329Z" fill="#6B3425"/>
<path d="M125.474 116.528C125.054 115.873 124.975 115.348 125.474 114.221C125.974 113.093 127.025 111.232 127.603 111.022C128.182 110.812 128.471 110.786 128.471 110.786C128.471 110.786 129.706 110.078 130.284 109.763C130.862 109.449 131.677 109.239 131.677 109.239C131.677 109.239 131.178 109.789 131.151 110.025C131.125 110.261 131.283 110.602 131.283 110.602C131.283 110.602 130.862 110.969 130.915 111.179C130.967 111.363 131.23 111.389 131.23 111.389C131.23 111.389 130.862 111.677 130.941 111.861C131.02 112.071 131.178 112.176 131.178 112.176C131.178 112.176 130.915 112.438 130.967 112.674C131.02 112.936 131.257 113.119 131.257 113.119C131.257 113.119 131.23 112.857 131.493 112.805C131.73 112.779 131.887 112.857 131.887 112.857L131.993 112.516L132.255 112.595L132.544 112.018L132.886 112.202L133.28 111.284C133.28 111.284 133.727 111.599 133.543 112.202C133.359 112.779 132.939 113.067 131.966 114.09C130.994 115.112 130.232 115.794 129.969 115.925C129.706 116.056 129.469 116.109 129.469 116.109C129.469 116.109 126.526 118.101 125.474 116.528Z" fill="#6B3425"/>
<path d="M125.842 115.427C126.709 115.323 127.497 116.03 127.839 116.607C128.207 117.184 128.365 117.918 128.812 118.469C129.258 119.02 130.809 119.911 130.809 119.911L130.494 120.855C130.494 120.855 129.337 120.042 128.917 120.016C128.496 119.99 127.787 120.121 127.024 119.649C126.262 119.177 124.843 117.42 124.922 116.738C125.001 116.057 125.342 115.48 125.842 115.427Z" fill="#6B3425"/>
<path d="M133.033 116.146C133.251 116.066 133.314 115.693 133.173 115.312C133.033 114.931 132.743 114.688 132.525 114.768C132.307 114.848 132.244 115.221 132.384 115.602C132.524 115.983 132.815 116.226 133.033 116.146Z" fill="black"/>
<path d="M139.34 113.807C139.572 113.722 139.634 113.312 139.478 112.89C139.323 112.469 139.009 112.196 138.777 112.281C138.546 112.366 138.484 112.777 138.639 113.198C138.795 113.62 139.109 113.892 139.34 113.807Z" fill="black"/>
<path opacity="0.6" d="M129.758 140.47H118.614V151.588H129.758V140.47Z" fill="white"/>
<path opacity="0.6" d="M136.093 138.109H127.367V146.815H136.093V138.109Z" fill="white"/>
<path opacity="0.6" d="M142.925 143.59H129.626V153.134H142.925V143.59Z" fill="white"/>
<path opacity="0.6" d="M146.369 139.682H136.356V147.391H146.369V139.682Z" fill="white"/>
<path opacity="0.6" d="M153.49 140.47H139.955V152.427H153.49V140.47Z" fill="white"/>
<path opacity="0.6" d="M156.251 136.064H147.525V147.26H156.251V136.064Z" fill="white"/>
<path opacity="0.6" d="M161.665 140.339H150.311V151.666H161.665V140.339Z" fill="white"/>
<path opacity="0.6" d="M165.922 136.064H156.25V145.713H165.922V136.064Z" fill="white"/>
<path opacity="0.6" d="M165.923 143.537H157.828V151.613H165.923V143.537Z" fill="white"/>
<path d="M165.266 123.085V146.841C165.266 147.864 164.714 148.703 164.004 148.703C163.321 148.703 162.743 147.864 162.743 146.841V123.058L159.116 123.006V150.171C159.116 151.194 158.564 152.033 157.854 152.033C157.171 152.033 156.593 151.194 156.593 150.171V122.954L153.202 122.901V150.145C153.202 151.167 152.65 152.007 151.941 152.007C151.257 152.007 150.679 151.167 150.679 150.145V122.875L146.842 122.822V150.171C146.842 151.194 146.29 152.033 145.58 152.033C144.897 152.033 144.319 151.194 144.319 150.171V122.77L140.692 122.718V150.171C140.692 151.194 140.14 152.033 139.43 152.033C138.747 152.033 138.169 151.194 138.169 150.171V122.691L134.778 122.639V150.171C134.778 151.194 134.226 152.033 133.517 152.033C132.833 152.033 132.255 151.194 132.255 150.171V122.586L128.418 122.534V150.145C128.418 151.167 127.866 152.007 127.156 152.007C126.473 152.007 125.895 151.167 125.895 150.145V122.508L121.716 122.455V146.841C121.716 147.864 121.164 148.703 120.454 148.703C119.771 148.703 119.193 147.864 119.193 146.841V122.403L109.337 122.246L116.643 153.554C117.379 156.621 119.324 158.693 121.506 158.693H165.056C167.263 158.693 169.235 156.569 169.944 153.449L176.62 123.268L165.266 123.085Z" fill="#1E2E38"/>
<path d="M174.7 129.483H109.993C107.259 129.483 105.052 127.281 105.052 124.554C105.052 121.827 107.259 119.624 109.993 119.624H174.726C177.46 119.624 179.668 121.827 179.668 124.554C179.641 127.281 177.434 129.483 174.7 129.483Z" fill="#1E2E38"/>
<path d="M111.91 140.784L111.989 155.677C111.989 155.677 129.835 155.887 130.991 155.599C132.148 155.31 137.904 150.748 138.508 150.512C139.113 150.276 139.691 150.512 139.454 151.193C139.218 151.901 138.324 154.078 138.324 154.078C138.324 154.078 142.687 153.58 143.108 153.344C143.528 153.108 146.13 151.089 146.656 150.905C147.181 150.721 148.101 151.089 147.865 151.639C147.628 152.216 145.158 155.389 145.158 155.389C145.158 155.389 145.657 158.798 144.369 160.056C143.081 161.315 137.01 162.337 134.067 162.521C131.123 162.705 108.783 165.563 106.917 165.458C105.051 165.379 102.317 164.802 101.371 160.817C100.425 156.831 100.136 141.544 100.136 141.544L111.91 140.784Z" fill="#F69576"/>
</svg>
