<svg width="375" height="307" viewBox="0 0 375 307" fill="none" xmlns="http://www.w3.org/2000/svg">
<path d="M169.732 53.4386C187.893 56.8736 222.113 -13.2416 260.013 2.22883C297.912 17.6993 270.052 67.5455 283.562 78.7157C297.071 89.8859 334.077 55.5101 349.636 91.6165C365.195 127.723 341.541 166.399 341.199 172.404C340.857 178.408 383.856 210.686 371.923 255.131C359.991 299.576 201.534 303.876 144.974 305.58C88.4141 307.285 12.7993 307.154 1.65555 260.821C-9.48823 214.488 41.1319 174.134 45.8102 161.181C50.4884 148.228 8.14733 103.101 61.2643 47.6962C102.291 4.87715 151.571 50.0036 169.732 53.4386Z" fill="#9ECBDD"/>
<path d="M233.232 128.955C233.232 128.955 229.973 122.662 237.385 121.954C236.622 116.946 243.876 109.395 256.466 112.62C258.594 107.166 270.606 97.5426 278.963 109.263C294.891 102.603 297.151 112.2 295.022 113.931C307.375 111.702 305.193 120.145 303.117 121.089C319.465 117.602 317.204 128.955 317.204 128.955H233.232Z" fill="white"/>
<path d="M50.4623 115.295C50.4623 115.295 49.0956 111.807 52.1969 111.414C51.8815 108.634 54.904 104.465 60.1605 106.248C61.0541 103.233 66.0741 97.9101 69.5434 104.387C76.1929 100.69 77.139 106.012 76.2454 106.956C81.3968 105.724 80.5032 110.391 79.6096 110.916C86.443 108.975 85.4969 115.268 85.4969 115.268H50.4623V115.295Z" fill="white"/>
<path d="M1.68297 260.768C12.8268 307.101 88.4678 307.258 145.001 305.528C201.535 303.797 359.992 299.523 371.951 255.078C380.072 224.845 362.778 200.224 350.977 185.697H27.2033C12.1434 204.786 -5.33446 231.61 1.68297 260.768Z" fill="#3D3B38"/>
<path d="M12.5886 206.728C3.33719 222.591 -3.04946 241.156 1.68139 260.769C12.8252 307.102 88.4662 307.259 145 305.529C201.534 303.798 359.991 299.524 371.949 255.079C376.943 236.488 372.317 220.022 365.3 206.728H12.5886Z" fill="#8A9995"/>
<path d="M115.459 190.235C116.09 190.077 116.747 190.025 117.377 189.972C125.052 189.238 132.7 188.478 140.375 187.796C141.294 187.717 141.478 187.403 141.452 186.564C141.4 184.99 141.426 183.443 141.426 181.844C143.292 181.844 145 181.844 146.787 181.844C146.814 182.185 146.84 182.447 146.84 182.735C146.866 183.024 146.893 183.286 146.893 183.548C148.759 183.837 148.759 183.837 148.759 182.106C148.759 173.978 148.759 165.823 148.759 157.694C148.759 157.222 148.759 156.75 148.759 156.278C149.468 156.252 149.994 156.226 150.52 156.2C150.572 155.78 150.598 155.465 150.625 155.125C150.914 155.098 151.177 155.046 151.413 155.046C153.411 155.046 153.411 155.046 154.041 153.158C154.199 152.686 154.409 152.476 154.909 152.503C155.645 152.555 156.354 152.503 157.195 152.503C157.195 148.91 157.195 145.475 157.195 141.988C157.8 141.962 158.299 141.935 158.851 141.909C158.904 141.332 158.956 140.834 159.035 140.231C160.008 140.231 160.927 140.231 161.926 140.231C161.926 139.235 161.926 138.343 161.926 137.425C162.452 137.425 162.899 137.425 163.451 137.425C163.451 145.265 163.451 153.053 163.451 160.867C164.029 160.893 164.502 160.946 165.028 160.972C165.028 161.496 165.028 161.942 165.028 162.467C166 162.467 166.92 162.467 167.813 162.467C167.919 162.834 167.997 163.096 168.076 163.332C168.655 163.358 169.154 163.384 169.758 163.41C169.758 165.325 169.758 167.134 169.758 168.996C170.468 168.996 171.099 169.048 171.703 168.969C172.413 168.891 172.807 169.153 173.149 169.756C173.307 170.044 173.78 170.228 174.121 170.28C174.647 170.359 175.225 170.28 175.751 170.307C175.935 170.307 176.145 170.438 176.329 170.516C176.618 170.647 176.855 170.831 177.144 170.91C177.433 170.988 177.775 170.962 178.169 170.988C178.169 175.026 178.169 179.012 178.169 182.971C179.299 182.971 180.35 182.971 181.507 182.971C181.507 181.451 181.507 180.035 181.507 178.645C183.346 178.645 185.055 178.645 186.868 178.645C186.868 180.087 186.868 181.451 186.868 182.84C188.682 182.735 188.839 182.578 188.839 181.005C188.839 178.724 188.839 176.442 188.839 174.161C188.839 173.584 188.839 173.034 188.839 172.457C190.863 172.457 192.756 172.457 194.7 172.457C194.7 173.82 194.7 175.131 194.7 176.442C194.7 177.806 194.937 178.042 196.461 178.199C196.461 176.18 196.461 174.161 196.461 172.09C196.172 172.037 195.909 171.985 195.647 171.932C195.647 171.513 195.647 171.146 195.647 170.674C196.277 170.674 196.856 170.674 197.329 170.674C197.408 170.543 197.46 170.516 197.46 170.516C197.486 167.213 197.486 163.909 197.486 160.579C197.486 160.421 197.381 160.133 197.302 160.107C196.356 159.923 196.908 159.294 196.829 158.822C197.329 158.769 197.723 158.743 198.249 158.691C198.249 157.668 198.249 156.672 198.249 155.701C198.695 155.649 199.037 155.597 199.379 155.57C199.431 155.203 199.484 154.915 199.536 154.6C199.931 154.6 200.272 154.6 200.588 154.6C200.667 154.967 200.719 155.282 200.772 155.57C201.718 155.57 202.612 155.57 203.479 155.57C203.531 155.177 203.584 154.889 203.663 154.548C204.057 154.574 204.372 154.574 204.714 154.6C204.767 154.967 204.819 155.256 204.898 155.597C205.818 155.597 206.712 155.597 207.579 155.597C207.631 155.23 207.684 154.915 207.763 154.574C208.157 154.6 208.499 154.6 208.788 154.626C208.867 155.046 208.946 155.334 208.998 155.623C209.787 155.623 210.523 155.623 211.258 155.623C211.311 155.256 211.364 154.941 211.39 154.679C211.784 154.679 212.126 154.679 212.441 154.679C212.52 155.046 212.573 155.361 212.625 155.649C213.492 155.649 214.307 155.649 215.148 155.649C215.175 155.308 215.227 154.994 215.253 154.653C215.621 154.653 215.963 154.653 216.331 154.653C216.41 155.02 216.489 155.334 216.568 155.649C217.33 155.649 218.039 155.649 218.775 155.649C218.828 155.308 218.88 154.994 218.907 154.653C219.275 154.653 219.616 154.653 219.984 154.653C220.037 155.02 220.089 155.308 220.142 155.623C221.088 155.623 221.982 155.623 222.849 155.623C222.928 155.256 222.98 154.941 223.033 154.653C223.427 154.653 223.716 154.653 224.058 154.653C224.111 154.994 224.163 155.308 224.216 155.649C225.136 155.649 226.029 155.649 226.949 155.649C226.975 155.282 227.028 154.994 227.054 154.653C227.448 154.653 227.79 154.653 228.158 154.653C228.211 154.994 228.263 155.308 228.316 155.649C228.684 155.675 229.025 155.728 229.472 155.754C229.472 156.777 229.472 157.773 229.472 158.769C229.972 158.822 230.392 158.848 230.865 158.9C230.734 159.425 231.154 160.054 230.287 160.212C230.208 160.238 230.156 160.605 230.156 160.815C230.129 161.523 230.156 162.231 230.156 162.938C230.156 165.508 230.156 168.078 230.156 170.7C230.839 170.752 231.417 170.779 232.048 170.805C232.048 171.251 232.048 171.618 232.048 171.985C231.733 172.037 231.496 172.09 231.181 172.142C231.181 173.138 231.128 174.109 231.207 175.053C231.233 175.525 231.522 175.997 231.706 176.442C231.811 176.416 231.943 176.39 232.048 176.364C232.048 178.304 232.048 180.271 232.048 182.263C232.495 182.316 232.915 182.368 233.415 182.421C233.415 183.103 233.415 183.758 233.415 184.492C234.229 184.178 234.571 183.758 234.545 182.945C234.466 181.582 234.518 180.192 234.518 178.776C235.727 178.776 236.831 178.776 238.04 178.776C238.04 181.608 238.04 184.335 238.04 187.141C238.461 187.141 238.776 187.141 239.276 187.141C239.276 185.305 239.276 183.548 239.276 181.739C240.248 181.739 241.089 181.739 242.062 181.739C242.062 182.657 242.035 183.522 242.088 184.387C242.088 184.623 242.219 184.964 242.403 185.069C243.087 185.436 243.822 185.751 244.716 186.144C244.716 184.309 244.716 182.657 244.716 181.005C246.424 181.005 248.028 181.005 249.71 181.005C249.71 181.477 249.657 181.896 249.736 182.316C249.762 182.578 249.92 182.971 250.078 182.998C250.971 183.207 250.919 183.837 250.892 184.492C250.866 184.912 250.892 185.305 250.892 185.751C251.786 185.751 252.575 185.751 253.442 185.751C253.442 185.069 253.442 184.466 253.442 183.863C254.283 183.863 255.045 183.863 255.886 183.863C255.886 184.518 255.886 185.122 255.886 185.698C256.596 185.751 256.832 185.489 256.806 184.859C256.753 183.601 256.806 182.316 256.806 181.057C257.778 181.057 258.593 181.057 259.487 181.057C259.487 181.713 259.461 182.29 259.513 182.84C259.539 183.076 259.697 183.47 259.855 183.522C260.775 183.732 260.722 184.387 260.696 185.095C260.67 185.41 260.696 185.725 260.696 186.039C261.011 185.908 261.09 185.803 261.195 185.646C264.691 180.323 268.213 175.026 271.708 169.704C272.234 168.917 272.76 168.156 273.233 167.37C273.732 166.531 273.469 165.534 272.865 164.853C272.628 164.59 272.707 164.04 272.654 163.62C273.049 163.515 273.338 163.463 273.601 163.384C273.601 162.362 273.601 161.365 273.601 160.395C273.311 160.316 273.075 160.238 272.812 160.185C273.732 160.002 274.626 159.976 275.519 160.028C276.019 160.054 276.36 159.923 276.57 159.425C276.991 158.481 277.49 157.589 277.885 156.645C279.908 151.847 281.144 146.839 282.274 141.778C282.458 140.965 282.3 140.283 281.669 139.943C280.487 139.287 281.117 138.343 280.986 137.478C281.59 137.452 282.064 137.425 282.537 137.399C282.484 137.321 282.431 137.242 282.379 137.163C282.668 136.875 282.957 136.586 283.22 136.272C283.351 136.088 283.456 135.826 283.483 135.564C284.823 127.986 285.874 120.382 286.216 112.699C286.61 104.256 286.794 95.8125 286.978 87.3431C287.083 83.3313 287.005 79.3195 287.005 75.3077C286.111 74.9406 285.953 74.2588 286.321 72.266C286.9 72.2398 287.504 72.2136 288.082 72.1873C286.242 71.3745 287.162 69.8537 286.952 68.8573C287.346 68.5688 287.609 68.3853 287.846 68.1755C288.266 67.8346 288.608 67.3627 289.081 67.1005C289.633 66.812 289.738 66.4449 289.738 65.8681C289.712 62.774 289.712 59.7061 289.738 56.612C289.738 56.3236 289.869 56.0352 289.948 55.7729C290.08 55.7992 290.211 55.8254 290.343 55.8516C290.343 56.1925 290.343 56.5334 290.343 56.8742C290.343 59.8897 290.342 62.9313 290.369 65.9467C290.369 66.2614 290.526 66.6809 290.763 66.9169C291.262 67.4413 291.841 67.9133 292.393 68.3853C292.603 68.5426 292.892 68.5951 293.181 68.7262C293.023 69.9061 293.786 71.3745 292.103 72.1873C292.682 72.2398 293.26 72.266 293.891 72.3185C293.917 72.6593 293.943 72.8953 293.943 73.1575C293.943 73.6295 293.969 74.1277 293.917 74.5997C293.891 74.7832 293.733 74.9406 293.628 75.1241C293.47 75.4125 293.155 75.701 293.155 75.9894C293.128 90.9354 292.944 105.908 294.548 120.801C294.863 123.633 295.152 126.491 295.652 129.323C296.125 132.05 295.888 134.987 297.728 137.425C298.122 137.452 298.595 137.478 299.147 137.504C299.147 137.871 299.147 138.186 299.147 138.5C299.147 138.841 299.147 139.208 299.147 139.471C298.779 139.733 298.49 139.89 298.227 140.1C297.36 140.755 297.78 141.595 297.964 142.381C299.226 148.071 300.672 153.682 303.247 158.953C303.641 159.74 304.062 160.159 304.982 160.054C305.691 159.976 306.401 160.028 307.111 160.054C307.163 160.054 307.216 160.159 307.321 160.238C307.006 160.316 306.743 160.395 306.506 160.448C306.506 161.496 306.506 162.44 306.506 163.41C306.822 163.489 307.111 163.568 307.426 163.673C307.426 164.092 307.426 164.433 307.426 164.669C307.137 164.931 306.69 165.167 306.69 165.351C306.769 166.19 306.743 167.16 307.163 167.816C309.976 172.195 312.867 176.521 315.731 180.874C316.756 182.421 317.755 183.968 318.78 185.489C318.99 185.148 319.043 184.859 318.964 184.597M306.427 187.298C306.138 186.642 305.902 186.039 305.613 185.489C304.167 182.473 302.485 179.589 300.093 177.177C294.127 171.172 285.191 171.329 279.435 177.517C276.886 180.271 275.125 183.496 273.627 186.878C273.574 186.983 273.574 187.114 273.548 187.298C284.508 187.298 295.389 187.298 306.427 187.298ZM217.987 187.324C218.013 187.062 218.092 186.826 218.092 186.564C218.092 181.844 218.118 177.124 218.066 172.378C218.039 170.044 216.41 168.235 214.228 168.052C211.837 167.842 209.603 169.625 209.55 172.011C209.471 176.993 209.524 181.975 209.524 186.957C209.524 187.036 209.576 187.141 209.629 187.298C212.467 187.324 215.201 187.324 217.987 187.324ZM294.995 159.949C294.022 153.735 293.05 147.547 292.051 141.306C290.71 141.306 289.239 141.306 287.793 141.306C286.821 147.521 285.848 153.709 284.849 159.949C288.24 159.949 291.683 159.949 294.995 159.949ZM287.977 136.272C289.291 136.272 290.553 136.272 291.919 136.272C291.262 131.342 290.605 126.439 289.948 121.509C289.291 126.413 288.634 131.29 287.977 136.272Z" fill="#749DC1"/>
<path d="M120.374 66.2593H69.7534V185.539H120.374V66.2593Z" fill="#BC6A4D"/>
<path d="M120.084 66.2593H69.7534V88.5996H120.084V66.2593Z" fill="#42382C"/>
<path d="M121.819 178.563H67.8613V186.692H121.819V178.563Z" fill="#494136"/>
<path d="M72.0926 63.2178H69.7534V88.5998H72.0926V63.2178Z" fill="#494136"/>
<path d="M120.348 63.2178H118.009V88.5998H120.348V63.2178Z" fill="#494136"/>
<path d="M120.084 86.1343H69.7534V88.6001H120.084V86.1343Z" fill="#494136"/>
<path d="M106.707 58.708H102.633V74.2309H106.707V58.708Z" fill="#DD7858"/>
<path d="M112.805 58.708H108.731V74.2309H112.805V58.708Z" fill="#DD7858"/>
<path d="M81.8172 110.075H76.0088V97.7514C76.0088 96.1519 77.3229 94.8408 78.9261 94.8408C80.5294 94.8408 81.8435 96.1519 81.8435 97.7514V110.075H81.8172Z" fill="#407889"/>
<path d="M92.305 110.075H86.4966V97.7514C86.4966 96.1519 87.8107 94.8408 89.4139 94.8408C91.0172 94.8408 92.3313 96.1519 92.3313 97.7514V110.075H92.305Z" fill="#407889"/>
<path d="M102.765 110.075H96.9568V97.7514C96.9568 96.1519 98.2709 94.8408 99.8741 94.8408C101.477 94.8408 102.792 96.1519 102.792 97.7514V110.075H102.765Z" fill="#407889"/>
<path d="M113.251 110.075H107.443V97.7514C107.443 96.1519 108.757 94.8408 110.36 94.8408C111.963 94.8408 113.277 96.1519 113.277 97.7514V110.075H113.251Z" fill="#407889"/>
<path d="M81.8175 132.729H76.009V120.405C76.009 118.806 77.3232 117.495 78.9264 117.495C80.5296 117.495 81.8437 118.806 81.8437 120.405V132.729H81.8175Z" fill="#407889"/>
<path d="M92.3053 132.729H86.4968V120.405C86.4968 118.806 87.8109 117.495 89.4142 117.495C91.0174 117.495 92.3315 118.806 92.3315 120.405V132.729H92.3053Z" fill="#407889"/>
<path d="M102.765 132.729H96.957V120.405C96.957 118.806 98.2712 117.495 99.8744 117.495C101.478 117.495 102.792 118.806 102.792 120.405V132.729H102.765Z" fill="#407889"/>
<path d="M113.251 132.729H107.443V120.405C107.443 118.806 108.757 117.495 110.36 117.495C111.963 117.495 113.278 118.806 113.278 120.405V132.729H113.251Z" fill="#407889"/>
<path d="M81.8175 156.224H76.009V143.9C76.009 142.301 77.3232 140.99 78.9264 140.99C80.5296 140.99 81.8437 142.301 81.8437 143.9V156.224H81.8175Z" fill="#407889"/>
<path d="M92.3053 156.224H86.4968V143.9C86.4968 142.301 87.8109 140.99 89.4142 140.99C91.0174 140.99 92.3315 142.301 92.3315 143.9V156.224H92.3053Z" fill="#407889"/>
<path d="M102.765 156.224H96.957V143.9C96.957 142.301 98.2712 140.99 99.8744 140.99C101.478 140.99 102.792 142.301 102.792 143.9V156.224H102.765Z" fill="#407889"/>
<path d="M113.251 156.224H107.443V143.9C107.443 142.301 108.757 140.99 110.36 140.99C111.963 140.99 113.278 142.301 113.278 143.9V156.224H113.251Z" fill="#407889"/>
<path d="M81.8175 163.042H76.009V175.365H81.8175V163.042Z" fill="#407889"/>
<path d="M92.3053 163.042H86.4968V175.365H92.3053V163.042Z" fill="#407889"/>
<path d="M102.765 163.042H96.957V175.365H102.765V163.042Z" fill="#407889"/>
<path d="M113.225 163.042H107.417V175.365H113.225V163.042Z" fill="#407889"/>
<path d="M184.344 109.367H133.593V186.693H184.344V109.367Z" fill="#9B9B9B"/>
<path d="M185.66 178.563H132.149V186.692H185.66V178.563Z" fill="#63594C"/>
<path d="M177.538 164.196H139.428V175.366H177.538V164.196Z" fill="white"/>
<path d="M180.586 160.577H136.51V170.593H180.586V160.577Z" fill="#FFA539"/>
<path d="M185.659 106.3H131.412V112.672H185.659V106.3Z" fill="#63594C"/>
<path d="M185.66 135.903H132.149V137.792H185.66V135.903Z" fill="#63594C"/>
<path d="M138.718 172.796C139.938 172.796 140.926 171.81 140.926 170.593C140.926 169.377 139.938 168.391 138.718 168.391C137.499 168.391 136.51 169.377 136.51 170.593C136.51 171.81 137.499 172.796 138.718 172.796Z" fill="#FFA539"/>
<path d="M143.107 172.849C144.327 172.849 145.315 171.863 145.315 170.646C145.315 169.43 144.327 168.444 143.107 168.444C141.888 168.444 140.9 169.43 140.9 170.646C140.9 171.863 141.888 172.849 143.107 172.849Z" fill="#FFA539"/>
<path d="M147.524 172.821C148.743 172.821 149.732 171.835 149.732 170.619C149.732 169.402 148.743 168.416 147.524 168.416C146.305 168.416 145.316 169.402 145.316 170.619C145.316 171.835 146.305 172.821 147.524 172.821Z" fill="#FFA539"/>
<path d="M151.913 172.874C153.133 172.874 154.121 171.888 154.121 170.672C154.121 169.455 153.133 168.469 151.913 168.469C150.694 168.469 149.706 169.455 149.706 170.672C149.706 171.888 150.694 172.874 151.913 172.874Z" fill="#FFA539"/>
<path d="M156.328 172.849C157.547 172.849 158.536 171.863 158.536 170.646C158.536 169.43 157.547 168.444 156.328 168.444C155.109 168.444 154.12 169.43 154.12 170.646C154.12 171.863 155.109 172.849 156.328 172.849Z" fill="#FFA539"/>
<path d="M160.717 172.9C161.937 172.9 162.925 171.914 162.925 170.697C162.925 169.481 161.937 168.495 160.717 168.495C159.498 168.495 158.51 169.481 158.51 170.697C158.51 171.914 159.498 172.9 160.717 172.9Z" fill="#FFA539"/>
<path d="M165.132 172.874C166.351 172.874 167.34 171.888 167.34 170.672C167.34 169.455 166.351 168.469 165.132 168.469C163.913 168.469 162.924 169.455 162.924 170.672C162.924 171.888 163.913 172.874 165.132 172.874Z" fill="#FFA539"/>
<path d="M169.521 172.927C170.741 172.927 171.729 171.941 171.729 170.725C171.729 169.508 170.741 168.522 169.521 168.522C168.302 168.522 167.313 169.508 167.313 170.725C167.313 171.941 168.302 172.927 169.521 172.927Z" fill="#FFA539"/>
<path d="M173.938 172.9C175.157 172.9 176.146 171.914 176.146 170.697C176.146 169.481 175.157 168.495 173.938 168.495C172.719 168.495 171.73 169.481 171.73 170.697C171.73 171.914 172.719 172.9 173.938 172.9Z" fill="#FFA539"/>
<path d="M178.327 172.953C179.546 172.953 180.535 171.966 180.535 170.75C180.535 169.533 179.546 168.547 178.327 168.547C177.108 168.547 176.119 169.533 176.119 170.75C176.119 171.966 177.108 172.953 178.327 172.953Z" fill="#FFA539"/>
<path d="M145.525 132.729H139.717V120.405C139.717 118.806 141.031 117.495 142.634 117.495C144.238 117.495 145.552 118.806 145.552 120.405V132.729H145.525Z" fill="#407889"/>
<path d="M156.013 132.729H150.205V120.405C150.205 118.806 151.519 117.495 153.122 117.495C154.725 117.495 156.04 118.806 156.04 120.405V132.729H156.013Z" fill="#407889"/>
<path d="M166.473 132.729H160.665V120.405C160.665 118.806 161.979 117.495 163.582 117.495C165.186 117.495 166.5 118.806 166.5 120.405V132.729H166.473Z" fill="#407889"/>
<path d="M176.933 132.729H171.125V120.405C171.125 118.806 172.439 117.495 174.042 117.495C175.646 117.495 176.96 118.806 176.96 120.405V132.729H176.933Z" fill="#407889"/>
<path d="M145.525 157.089H139.717V144.765C139.717 143.166 141.031 141.854 142.634 141.854C144.238 141.854 145.552 143.166 145.552 144.765V157.089H145.525Z" fill="#407889"/>
<path d="M156.013 157.089H150.205V144.765C150.205 143.166 151.519 141.854 153.122 141.854C154.725 141.854 156.04 143.166 156.04 144.765V157.089H156.013Z" fill="#407889"/>
<path d="M166.473 157.089H160.665V144.765C160.665 143.166 161.979 141.854 163.582 141.854C165.186 141.854 166.5 143.166 166.5 144.765V157.089H166.473Z" fill="#407889"/>
<path d="M176.933 157.089H171.125V144.765C171.125 143.166 172.439 141.854 174.042 141.854C175.646 141.854 176.96 143.166 176.96 144.765V157.089H176.933Z" fill="#407889"/>
<path d="M352.922 188.165C352.265 187.325 351.607 186.512 350.95 185.725H27.2026C26.5718 186.538 25.941 187.351 25.2839 188.165H352.922Z" fill="white"/>
<path d="M67.9399 229.697H224.189V165.691H80.687C74.9837 165.691 70.3579 170.306 70.3579 175.996L67.9399 229.697Z" fill="#0C96FD"/>
<path d="M75.4299 177.833C75.4299 177.833 68.5439 178.042 66.415 182.788C64.2861 187.534 64.0758 194.326 65.7053 196.345C67.3349 198.364 72.3023 198.364 72.3023 198.364L75.4299 177.833Z" fill="#7D009B"/>
<path d="M74.615 199.858C75.1669 201.824 69.1482 202.585 69.1482 202.585L69.2796 199.858C69.2796 199.858 74.1156 198.049 74.615 199.858Z" fill="#F1F3F2"/>
<path d="M230.838 142.827L196.146 142.198V229.671H332.236C332.368 229.252 337.624 199.569 337.204 195.164C336.783 190.733 326.848 182.473 312.393 178.907C297.938 175.341 272.128 169.625 271.261 169.363C270.42 169.074 230.838 142.827 230.838 142.827Z" fill="#0C96FD"/>
<path d="M69.1485 208.145C68.8594 211.711 71.9081 229.672 71.9081 229.672H332.263C332.368 229.305 334.996 215.277 335.995 205.811C335.995 205.811 301.276 192.071 281.8 190.996C262.325 189.921 234.755 200.645 214.832 199.308C194.91 197.971 169.364 186.617 146.84 186.617C124.315 186.617 69.1485 208.145 69.1485 208.145Z" fill="#1D7DCC"/>
<path d="M250.971 231.48L332.814 230.378C332.814 230.378 335.075 228.386 336.494 222.827C337.913 217.268 335.548 210.136 335.548 210.136C335.548 210.136 333.787 213.256 326.559 214.541C319.331 215.826 292.392 215.118 292.392 215.118L269.421 226.393L249.735 225.921L250.971 231.48Z" fill="#2D2D2D"/>
<path d="M257.227 166.216L231.549 147.678L201.482 147.049L202.218 164.433L257.227 166.216Z" fill="#2D2D2D"/>
<path d="M277.909 207.146H277.647V183.075L257.146 166.32L257.304 166.11L277.909 182.944V207.146Z" fill="#024168"/>
<path d="M253.389 164.643C253.337 163.332 251.26 159.818 248.343 159.818C245.426 159.792 245.426 168.366 247.423 168.943C249.421 169.52 253.547 167.632 253.389 164.643Z" fill="#F1F3F2"/>
<path d="M197.959 229.671H197.696V191.702L201.954 164.406L202.216 164.459L197.959 191.729V229.671Z" fill="#024168"/>
<path d="M315.153 179.668C315.153 179.668 324.01 185.463 325.14 188.609C326.27 191.756 327.69 194.587 328.399 194.745C329.109 194.876 337.204 195.164 337.204 195.164C337.204 195.164 338.097 188.216 336.941 187.403C335.785 186.616 318.491 177.99 315.153 179.668Z" fill="#F1F3F2"/>
<path d="M317.281 202.873H325.849C326.112 202.873 326.348 202.663 326.348 202.374V199.07C326.348 198.808 326.138 198.572 325.849 198.572H317.281C317.018 198.572 316.781 198.782 316.781 199.07V202.374C316.781 202.637 317.018 202.873 317.281 202.873Z" fill="#878FB3"/>
<path d="M217.803 181.162C217.803 185.252 230.576 185.252 230.576 181.476C230.603 176.914 217.803 177.543 217.803 181.162Z" fill="#1D7DCC"/>
<path d="M212.415 183.023H226.24C226.45 183.023 226.634 182.84 226.634 182.63V180.008C226.634 179.798 226.45 179.615 226.24 179.615H212.415C212.205 179.615 212.021 179.798 212.021 180.008V182.63C212.021 182.84 212.178 183.023 212.415 183.023Z" fill="#878FB3"/>
<path d="M202.796 147.049H201.482V163.961H202.796V147.049Z" fill="#024168"/>
<path d="M250.078 230.09C249.762 228.386 249.578 226.655 249.578 224.872C249.578 209.218 262.299 196.527 277.99 196.527C293.68 196.527 306.401 209.218 306.401 224.872C306.401 226.655 306.217 228.386 305.902 230.09H250.078Z" fill="#024168"/>
<path d="M277.989 245.848C291.241 245.848 301.985 235.13 301.985 221.908C301.985 208.686 291.241 197.968 277.989 197.968C264.736 197.968 253.993 208.686 253.993 221.908C253.993 235.13 264.736 245.848 277.989 245.848Z" fill="black"/>
<path d="M277.989 238.007C286.902 238.007 294.127 230.799 294.127 221.907C294.127 213.016 286.902 205.808 277.989 205.808C269.077 205.808 261.852 213.016 261.852 221.907C261.852 230.799 269.077 238.007 277.989 238.007Z" fill="#606060"/>
<path d="M277.99 233.156C284.217 233.156 289.265 228.12 289.265 221.908C289.265 215.695 284.217 210.659 277.99 210.659C271.763 210.659 266.715 215.695 266.715 221.908C266.715 228.12 271.763 233.156 277.99 233.156Z" fill="black"/>
<path d="M291.657 230.614C291.026 231.61 290.29 232.554 289.423 233.42C288.608 234.206 287.741 234.914 286.847 235.517L264.559 213.177C265.164 212.259 265.847 211.394 266.662 210.607C267.529 209.742 268.475 209.008 269.474 208.378L291.657 230.614Z" fill="#A8A9AD"/>
<path d="M287.03 208.535C288.029 209.191 288.949 209.925 289.816 210.816C290.605 211.629 291.288 212.495 291.866 213.412L269.158 235.333C268.265 234.73 267.397 234.022 266.609 233.209C265.742 232.318 265.032 231.374 264.427 230.351L287.03 208.535Z" fill="#A8A9AD"/>
<path d="M98.3224 218.764H77.638V210.871H66.0737C66.0737 210.871 65.5744 214.096 62.1314 214.804C61.632 221.989 62.0788 229.672 67.9135 229.672C80.3189 229.672 97.0871 229.672 97.0871 229.672L98.3224 218.764Z" fill="#2D2D2D"/>
<path d="M95.0101 230.09C94.6947 228.386 94.5107 226.655 94.5107 224.872C94.5107 209.218 107.231 196.527 122.922 196.527C138.613 196.527 151.334 209.218 151.334 224.872C151.334 226.655 151.15 228.386 150.834 230.09H95.0101Z" fill="#024168"/>
<path d="M122.921 245.848C136.174 245.848 146.917 235.13 146.917 221.908C146.917 208.686 136.174 197.968 122.921 197.968C109.669 197.968 98.9253 208.686 98.9253 221.908C98.9253 235.13 109.669 245.848 122.921 245.848Z" fill="black"/>
<path d="M122.922 238.007C131.834 238.007 139.059 230.799 139.059 221.907C139.059 213.016 131.834 205.808 122.922 205.808C114.009 205.808 106.784 213.016 106.784 221.907C106.784 230.799 114.009 238.007 122.922 238.007Z" fill="#606060"/>
<path d="M122.922 233.156C129.149 233.156 134.197 228.12 134.197 221.908C134.197 215.695 129.149 210.659 122.922 210.659C116.695 210.659 111.647 215.695 111.647 221.908C111.647 228.12 116.695 233.156 122.922 233.156Z" fill="black"/>
<path d="M136.589 230.614C135.958 231.61 135.222 232.554 134.355 233.42C133.54 234.206 132.673 234.914 131.779 235.517L109.492 213.177C110.096 212.259 110.78 211.394 111.594 210.607C112.462 209.742 113.408 209.008 114.407 208.378L136.589 230.614Z" fill="#A8A9AD"/>
<path d="M131.963 208.535C132.962 209.191 133.881 209.925 134.749 210.816C135.537 211.629 136.221 212.495 136.799 213.412L114.091 235.333C113.197 234.73 112.33 234.022 111.541 233.209C110.674 232.318 109.964 231.374 109.36 230.351L131.963 208.535Z" fill="#A8A9AD"/>
<path d="M178.562 243.516C173.858 243.516 168.917 242.808 167.392 241.339C164.212 238.324 162.504 233.971 162.32 228.439C162.11 222.041 165.631 214.568 166.919 212.575C169.127 209.166 175.96 209.192 180.034 209.192H180.534C184.055 209.192 189.943 209.192 191.835 213.204C193.622 216.954 193.833 222.565 193.412 226.551C193.359 227.101 192.019 239.95 187.472 242.231C185.79 243.07 182.242 243.516 178.562 243.516ZM167.655 213.047C166.446 214.909 163.003 222.303 163.187 228.412C163.345 233.709 164.974 237.852 167.971 240.71C170.415 243.018 183.609 243.175 187.104 241.444C190.416 239.792 192.124 230.93 192.571 226.446C192.939 222.749 192.781 217.164 191.073 213.571C189.522 210.32 184.844 210.058 180.534 210.058H180.034C176.407 210.058 169.626 210.058 167.655 213.047Z" fill="#9B7A56"/>
<path d="M185.554 232.687C187.341 230.799 191.967 232.687 191.967 232.687C191.967 232.687 190.101 240.291 188.156 242.624C186.211 244.958 178.773 246.374 175.198 246.662C171.624 246.951 161.374 246.767 157.694 243.962C154.015 241.156 153.936 237.118 154.12 234.312C154.304 231.507 155.776 229.881 157.011 229.986C158.272 230.091 162.898 230.956 162.898 230.956C162.898 230.956 163.476 235.518 165.08 237.773C166.683 240.028 167.051 241.759 170.678 242.336C174.305 242.887 180.008 243.044 180.008 243.044C180.008 243.044 184.003 234.312 185.554 232.687Z" fill="#9B7A56"/>
<path d="M170.1 242.178C170.021 242.178 169.942 242.099 169.942 242.02L172.466 210.686C172.466 210.608 172.544 210.555 172.623 210.555C172.702 210.555 172.755 210.634 172.755 210.712L170.231 242.047C170.231 242.125 170.179 242.178 170.1 242.178Z" fill="#9B7A56"/>
<path d="M184.135 242.834C184.03 242.834 183.978 242.755 184.004 242.676L188.525 211.447C188.525 211.368 188.603 211.316 188.682 211.316C188.761 211.316 188.814 211.395 188.814 211.473L184.293 242.703C184.267 242.781 184.214 242.834 184.135 242.834Z" fill="#9B7A56"/>
<path d="M177.957 242.833C177.878 242.833 177.826 242.781 177.8 242.702C177.8 242.571 177.274 230.116 180.954 210.109C180.98 210.031 181.032 209.978 181.111 210.004C181.19 210.031 181.243 210.083 181.216 210.162C177.537 230.168 178.062 242.571 178.062 242.702C178.115 242.754 178.036 242.833 177.957 242.833Z" fill="#9B7A56"/>
<path d="M190.153 211.867L170.309 210.844C170.231 210.844 170.178 210.765 170.178 210.686C170.178 210.608 170.257 210.555 170.336 210.555L190.179 211.578C190.258 211.578 190.31 211.657 190.31 211.736C190.284 211.814 190.232 211.867 190.153 211.867Z" fill="#9B7A56"/>
<path d="M191.31 213.257L167.918 212.181C167.839 212.181 167.787 212.102 167.787 212.024C167.787 211.945 167.866 211.893 167.945 211.893L191.31 212.968C191.389 212.968 191.441 213.047 191.441 213.125C191.467 213.204 191.389 213.257 191.31 213.257Z" fill="#9B7A56"/>
<path d="M191.968 214.805L167.341 213.546C167.262 213.546 167.209 213.467 167.209 213.388C167.209 213.31 167.288 213.257 167.367 213.257L191.994 214.516C192.073 214.516 192.125 214.595 192.125 214.674C192.125 214.753 192.046 214.805 191.968 214.805Z" fill="#9B7A56"/>
<path d="M188.286 216.351C185.895 216.351 182.82 216.272 180.559 216.01C176.275 215.485 167.05 214.567 166.971 214.567C166.892 214.567 166.84 214.489 166.84 214.41C166.84 214.331 166.919 214.279 166.998 214.279C167.103 214.279 176.328 215.197 180.612 215.722C184.87 216.246 191.94 216.01 191.992 216.01C192.071 216.01 192.15 216.063 192.15 216.141C192.15 216.22 192.097 216.299 192.018 216.299C191.94 216.299 190.363 216.351 188.286 216.351Z" fill="#9B7A56"/>
<path d="M186.158 217.767C184.371 217.767 182.373 217.715 180.376 217.557C174.41 217.085 166.262 215.931 166.183 215.905C166.105 215.905 166.052 215.826 166.052 215.747C166.052 215.669 166.131 215.616 166.21 215.616C166.289 215.616 174.436 216.77 180.376 217.269C186.316 217.741 192.256 217.269 192.308 217.269C192.387 217.269 192.466 217.321 192.466 217.4C192.466 217.479 192.413 217.557 192.335 217.557C192.335 217.557 189.706 217.767 186.158 217.767Z" fill="#9B7A56"/>
<path d="M188.392 219.079C186.316 219.079 183.53 219.027 180.271 218.791C173.096 218.292 165.684 217.164 165.631 217.138C165.553 217.138 165.5 217.059 165.5 216.981C165.5 216.902 165.579 216.85 165.658 216.85C165.737 216.85 173.122 218.004 180.271 218.476C187.42 218.974 192.282 218.66 192.334 218.66C192.413 218.66 192.492 218.712 192.492 218.791C192.492 218.869 192.44 218.948 192.361 218.948C192.361 219.001 190.889 219.079 188.392 219.079Z" fill="#9B7A56"/>
<path d="M188.078 220.678C185.949 220.678 183.189 220.599 180.141 220.285C173.071 219.603 165.186 218.501 165.107 218.501C165.028 218.501 164.976 218.422 164.976 218.344C164.976 218.265 165.054 218.212 165.133 218.212C165.212 218.212 173.071 219.314 180.141 219.996C187.211 220.678 192.572 220.232 192.625 220.232C192.704 220.232 192.782 220.285 192.782 220.363C192.782 220.442 192.73 220.521 192.651 220.521C192.651 220.547 190.89 220.678 188.078 220.678Z" fill="#9B7A56"/>
<path d="M192.045 221.884C190.389 221.884 185.632 221.858 179.64 221.648C172.202 221.386 164.711 219.969 164.659 219.969C164.58 219.943 164.527 219.891 164.553 219.812C164.58 219.733 164.632 219.681 164.711 219.707C164.79 219.733 172.254 221.124 179.666 221.386C187.078 221.648 192.623 221.622 192.676 221.622C192.755 221.622 192.807 221.674 192.833 221.753C192.833 221.832 192.781 221.91 192.702 221.91C192.649 221.884 192.439 221.884 192.045 221.884Z" fill="#9B7A56"/>
<path d="M191.888 223.247C190.337 223.247 186.395 223.221 179.877 223.011C171.23 222.722 164.238 221.227 164.16 221.227C164.081 221.201 164.028 221.122 164.054 221.043C164.081 220.965 164.16 220.912 164.238 220.938C164.317 220.965 171.282 222.46 179.903 222.722C188.523 223.011 192.65 222.958 192.676 222.958C192.755 222.958 192.808 223.011 192.834 223.089C192.834 223.168 192.781 223.247 192.702 223.247C192.65 223.221 192.413 223.247 191.888 223.247Z" fill="#9B7A56"/>
<path d="M189.943 224.847C187.945 224.847 184.686 224.794 179.666 224.558C169.705 224.086 164.002 222.486 163.949 222.486C163.871 222.46 163.818 222.381 163.844 222.302C163.871 222.223 163.949 222.171 164.028 222.197C164.081 222.223 169.758 223.797 179.693 224.27C189.627 224.742 192.65 224.506 192.676 224.506C192.755 224.506 192.834 224.558 192.834 224.637C192.834 224.715 192.781 224.794 192.702 224.794C192.65 224.768 191.914 224.847 189.943 224.847Z" fill="#9B7A56"/>
<path d="M186.79 226.131C184.845 226.131 182.453 226.079 179.641 225.922C171.099 225.476 163.582 223.64 163.503 223.64C163.424 223.614 163.372 223.536 163.398 223.457C163.424 223.378 163.503 223.326 163.582 223.352C163.661 223.378 171.152 225.188 179.667 225.633C188.104 226.079 192.624 225.633 192.677 225.633C192.756 225.633 192.835 225.686 192.835 225.764C192.835 225.843 192.782 225.922 192.703 225.922C192.651 225.948 190.627 226.131 186.79 226.131Z" fill="#9B7A56"/>
<path d="M187.078 227.704C174.647 227.704 163.372 225.108 163.24 225.082C163.161 225.056 163.109 224.977 163.135 224.898C163.161 224.82 163.24 224.767 163.319 224.793C163.477 224.82 178.063 228.202 192.361 227.258C192.44 227.258 192.519 227.311 192.519 227.389C192.519 227.468 192.466 227.547 192.387 227.547C190.6 227.652 188.839 227.704 187.078 227.704Z" fill="#9B7A56"/>
<path d="M188.313 229.014C186.237 229.014 183.293 228.936 179.325 228.778C166.867 228.254 163.371 226.576 163.24 226.497C163.161 226.471 163.135 226.366 163.187 226.314C163.214 226.235 163.319 226.209 163.371 226.261C163.398 226.287 166.972 227.992 179.351 228.516C190.994 229.014 192.229 228.569 192.308 228.542C192.361 228.516 192.44 228.516 192.492 228.542C192.545 228.595 192.545 228.7 192.492 228.752C192.335 228.883 191.099 229.014 188.313 229.014Z" fill="#9B7A56"/>
<path d="M188.997 230.51C186.973 230.51 183.74 230.432 178.878 230.117C168.864 229.488 163.292 227.757 163.24 227.731C163.161 227.705 163.108 227.626 163.135 227.547C163.161 227.469 163.24 227.416 163.319 227.442C163.371 227.469 168.943 229.173 178.904 229.802C188.865 230.432 191.94 230.091 191.967 230.091C192.046 230.091 192.124 230.143 192.124 230.222C192.124 230.3 192.072 230.379 191.993 230.379C191.967 230.405 191.152 230.51 188.997 230.51Z" fill="#9B7A56"/>
<path d="M191.046 232.084C189.601 232.084 186.21 232.032 178.904 231.639C168.049 231.062 163.292 229.436 163.266 229.41C163.187 229.384 163.161 229.305 163.187 229.226C163.213 229.148 163.292 229.121 163.371 229.148C163.423 229.174 168.128 230.799 178.93 231.35C189.732 231.927 191.966 231.796 191.992 231.796C192.071 231.796 192.15 231.848 192.15 231.927C192.15 232.006 192.098 232.084 192.019 232.084C191.966 232.058 191.73 232.084 191.046 232.084Z" fill="#9B7A56"/>
<path d="M190.128 233.683C188.63 233.683 185.397 233.605 178.879 233.211C168.603 232.582 163.53 230.983 163.477 230.956C163.399 230.93 163.372 230.852 163.372 230.773C163.399 230.694 163.477 230.668 163.556 230.668C163.609 230.694 168.629 232.267 178.879 232.897C189.103 233.526 191.258 233.343 191.284 233.343C191.363 233.343 191.442 233.395 191.442 233.474C191.442 233.552 191.389 233.631 191.311 233.631C191.311 233.657 190.995 233.683 190.128 233.683Z" fill="#9B7A56"/>
<path d="M188.997 234.89C187.341 234.89 184.266 234.837 178.668 234.601C168.26 234.182 163.713 232.32 163.66 232.294C163.582 232.268 163.555 232.189 163.582 232.11C163.608 232.032 163.687 232.006 163.766 232.032C163.818 232.058 168.312 233.893 178.668 234.313C189.023 234.733 190.784 234.549 190.81 234.549C190.889 234.549 190.968 234.601 190.968 234.68C190.968 234.759 190.915 234.837 190.837 234.837C190.81 234.864 190.442 234.89 188.997 234.89Z" fill="#9B7A56"/>
<path d="M186.133 236.07C184.319 236.07 181.849 236.044 178.432 235.913C168.339 235.572 164.187 233.683 164.134 233.657C164.055 233.631 164.029 233.526 164.055 233.473C164.082 233.395 164.187 233.368 164.239 233.395C164.292 233.421 168.392 235.283 178.406 235.624C188.419 235.965 190.522 235.624 190.522 235.624C190.601 235.624 190.679 235.677 190.679 235.755C190.706 235.834 190.627 235.913 190.548 235.913C190.548 235.913 189.654 236.07 186.133 236.07Z" fill="#9B7A56"/>
<path d="M188.051 237.67C186.395 237.67 183.504 237.591 178.432 237.355C167.919 236.83 164.476 235.466 164.344 235.414C164.265 235.388 164.239 235.309 164.265 235.23C164.292 235.151 164.371 235.125 164.449 235.151C164.476 235.178 167.998 236.542 178.432 237.066C188.761 237.591 190.049 237.329 190.101 237.302C190.18 237.276 190.259 237.329 190.285 237.407C190.311 237.486 190.259 237.565 190.18 237.591C190.154 237.591 189.838 237.67 188.051 237.67Z" fill="#9B7A56"/>
<path d="M186.236 238.798C184.317 238.798 181.663 238.772 178.351 238.719C167.418 238.536 165.131 236.962 165.026 236.909C164.974 236.857 164.947 236.778 165 236.699C165.052 236.647 165.131 236.621 165.21 236.673C165.236 236.699 167.576 238.247 178.378 238.431C188.496 238.614 189.548 238.457 189.627 238.431C189.679 238.404 189.758 238.431 189.784 238.483C189.837 238.562 189.811 238.641 189.732 238.693C189.627 238.772 188.418 238.798 186.236 238.798Z" fill="#9B7A56"/>
<path d="M184.477 240.396C182.769 240.396 180.614 240.344 178.09 240.212C167.499 239.662 166.185 238.534 166.132 238.481C166.079 238.429 166.079 238.324 166.132 238.271C166.185 238.219 166.263 238.219 166.342 238.271C166.395 238.324 167.788 239.373 178.117 239.924C187.736 240.422 188.814 239.819 188.893 239.74C188.919 239.688 188.998 239.662 189.05 239.688C189.129 239.714 189.182 239.793 189.155 239.871C189.024 240.212 187.368 240.396 184.477 240.396Z" fill="#9B7A56"/>
<path d="M183.844 241.497C182.451 241.497 180.559 241.471 178.088 241.418C173.857 241.313 170.072 240.868 167.444 240.186C167.391 240.186 167.365 240.159 167.339 240.159C167.313 240.159 167.26 240.133 167.234 240.107C167.181 240.054 167.181 239.976 167.207 239.923C167.26 239.818 167.339 239.845 167.497 239.897C170.099 240.579 173.857 241.025 178.088 241.13C185.448 241.313 187.498 241.13 187.524 241.13C187.603 241.13 187.682 241.182 187.682 241.261C187.682 241.34 187.629 241.418 187.55 241.418C187.55 241.418 186.63 241.497 183.844 241.497Z" fill="#9B7A56"/>
<path d="M155.355 266.564C155.329 266.564 155.302 266.564 155.302 266.564C155.066 266.538 154.908 266.302 154.934 266.066L157.931 244.722C157.957 244.486 158.194 244.329 158.43 244.355C158.667 244.381 158.824 244.617 158.798 244.853L155.802 266.197C155.749 266.407 155.565 266.564 155.355 266.564Z" fill="black"/>
<path d="M167.786 260.349C167.549 260.349 167.339 260.166 167.339 259.904V247.265C167.339 247.029 167.523 246.819 167.786 246.819C168.022 246.819 168.232 247.003 168.232 247.265V259.904C168.206 260.166 168.022 260.349 167.786 260.349Z" fill="black"/>
<path d="M188.656 263.26C188.445 263.26 188.261 263.102 188.235 262.919L184.897 245.272C184.845 245.036 185.002 244.8 185.239 244.774C185.476 244.721 185.712 244.879 185.738 245.115L189.076 262.761C189.129 262.997 188.971 263.233 188.735 263.26C188.708 263.233 188.682 263.26 188.656 263.26Z" fill="black"/>
<path d="M177.827 269.816C177.591 269.816 177.407 269.632 177.381 269.396L176.829 247.03C176.829 246.794 177.013 246.584 177.249 246.584C177.486 246.584 177.67 246.768 177.696 247.004L178.248 269.37C178.274 269.606 178.09 269.79 177.827 269.816Z" fill="black"/>
<path d="M157.589 254.031C157.352 254.031 157.168 253.848 157.168 253.638C157.142 253.402 157.326 253.192 157.562 253.166L186.026 250.806C186.263 250.78 186.473 250.964 186.499 251.2C186.526 251.436 186.342 251.645 186.105 251.672L157.641 254.031C157.615 254.031 157.589 254.031 157.589 254.031Z" fill="black"/>
<path d="M177.275 256.443C177.196 256.443 177.091 256.417 177.039 256.364L167.84 249.94C167.656 249.809 167.603 249.52 167.735 249.337C167.866 249.153 168.155 249.101 168.339 249.232L177.538 255.656C177.722 255.787 177.775 256.076 177.643 256.259C177.538 256.39 177.407 256.443 177.275 256.443Z" fill="black"/>
<path d="M171.781 247.867C162.793 247.867 158.693 245.77 158.535 245.665C158.246 245.507 158.141 245.167 158.298 244.878C158.456 244.59 158.798 244.485 159.087 244.642C159.139 244.668 163.318 246.792 172.386 246.687C181.48 246.582 185.238 244.301 185.264 244.275C185.527 244.091 185.895 244.196 186.053 244.459C186.237 244.721 186.132 245.088 185.869 245.245C185.711 245.35 181.795 247.736 172.359 247.841C172.176 247.867 171.965 247.867 171.781 247.867Z" fill="black"/>
<path d="M76.1921 207.277C76.1659 207.277 76.1133 207.277 76.087 207.277C73.2748 207.172 71.9607 205.782 72.0658 202.976C72.1184 201.351 73.012 200.853 73.5376 200.695C74.5101 200.407 75.5876 200.826 75.9819 201.377C76.6127 202.268 76.3498 203.003 75.9556 203.37C75.5351 203.763 74.9043 203.763 74.4838 203.422C74.3787 203.317 74.3524 203.16 74.4575 203.055C74.5626 202.95 74.7203 202.924 74.8255 203.029C75.0883 203.239 75.4037 203.16 75.5876 203.003C75.8505 202.767 75.9556 202.321 75.5351 201.718C75.2985 201.377 74.4312 201.01 73.669 201.246C72.9857 201.456 72.6177 202.059 72.5914 203.029C72.5126 205.52 73.5902 206.674 76.087 206.778C77.0857 206.805 78.0319 206.307 78.7153 205.415C79.5826 204.288 79.8191 202.714 79.3723 201.325C78.4787 198.598 76.6652 196.343 73.2485 193.747C72.7229 193.353 72.1972 192.96 71.6716 192.567C69.9106 191.282 68.0971 189.918 66.7042 188.371C65.1272 186.588 64.365 184.779 64.4176 182.812C64.4964 179.194 66.8881 177.542 69.0696 177.542H69.0959C70.6465 177.542 71.5664 178.801 71.619 180.951C71.6453 182.445 70.9356 183.861 69.9632 184.176C69.385 184.359 68.833 184.123 68.4388 183.52C67.7029 182.419 68.1234 181.659 68.36 181.396C68.7016 180.977 69.2536 180.793 69.6215 180.951C69.8581 181.056 69.9895 181.292 69.9632 181.58C69.9369 181.737 69.8055 181.842 69.6741 181.816C69.5164 181.79 69.4113 181.659 69.4375 181.528C69.4375 181.475 69.4375 181.449 69.4375 181.449C69.4113 181.423 69.1484 181.423 68.9119 181.632C68.7016 181.816 68.3074 182.314 68.9119 183.206C69.1747 183.599 69.4901 183.756 69.8318 183.652C70.4888 183.442 71.1459 182.367 71.1196 180.951C71.0933 179.876 70.8042 178.093 69.1484 178.066H69.1222C67.1772 178.066 65.0746 179.535 65.0221 182.812C64.9432 186.877 68.5439 189.525 72.0658 192.121C72.5914 192.514 73.1434 192.908 73.669 193.301C77.1646 195.975 79.0307 198.309 79.9768 201.141C80.5025 202.714 80.2134 204.445 79.2409 205.73C78.3736 206.7 77.3223 207.277 76.1921 207.277Z" fill="black"/>
<path d="M81.6076 266.617C81.4499 266.617 81.3185 266.486 81.3448 266.328C81.3711 265.83 84.3147 216.98 84.3147 214.673C84.341 209.245 83.2897 206.833 80.6615 206.282C79.5576 206.072 78.5589 206.282 77.8229 206.885C77.087 207.488 76.6665 208.432 76.6665 209.56C76.6665 211.946 78.2172 213.388 79.7153 213.388C80.2672 213.388 80.6877 213.178 80.9243 212.759C81.2134 212.234 81.1345 211.448 80.7403 210.845C80.53 210.504 79.8467 210.477 79.505 210.687C79.2422 210.845 79.2159 211.081 79.3999 211.395C79.4787 211.526 79.4262 211.684 79.2948 211.762C79.1634 211.841 79.0057 211.789 78.9268 211.657C78.5326 210.976 78.8217 210.451 79.2159 210.215C79.7941 209.848 80.7929 209.927 81.1871 210.53C81.6865 211.29 81.7653 212.287 81.3974 212.995C81.082 213.572 80.4775 213.912 79.7153 213.912C78.7954 213.912 77.8755 213.467 77.2185 212.706C76.5088 211.893 76.1409 210.766 76.1409 209.533C76.1409 208.249 76.614 207.147 77.4813 206.439C78.3486 205.731 79.5313 205.469 80.7666 205.731C82.291 206.046 83.3686 206.938 84.0256 208.485C84.6301 209.901 84.8929 211.841 84.8667 214.647C84.8667 216.98 82.0019 264.309 81.8967 266.328C81.8705 266.512 81.739 266.617 81.6076 266.617Z" fill="black"/>
<path d="M80.1097 258.75C79.8995 258.75 79.6629 258.724 79.4001 258.671C78.5591 258.488 75.2737 256.993 72.4089 255.603C69.5967 254.24 66.3377 252.588 65.6806 252.037C64.3665 250.91 64.5505 249.284 64.7607 248.838C64.9184 248.55 65.3652 248.34 65.8383 248.366C66.3377 248.419 66.7319 248.707 66.8896 249.232C67.021 249.625 66.9685 249.94 66.7845 250.15C66.5217 250.464 66.0486 250.412 65.996 250.412C65.8383 250.385 65.7332 250.254 65.7595 250.097C65.7858 249.94 65.9172 249.835 66.0486 249.861C66.1274 249.861 66.3114 249.861 66.364 249.782C66.4165 249.704 66.4165 249.573 66.364 249.363C66.2588 248.996 65.996 248.891 65.7858 248.891C65.4967 248.865 65.2601 248.996 65.2338 249.048C65.1024 249.337 64.9184 250.674 65.996 251.592C66.5217 252.037 69.1762 253.427 72.6192 255.105C75.9834 256.731 78.8219 257.963 79.5052 258.121C80.136 258.252 80.6354 258.199 80.977 257.937C81.2924 257.701 81.4501 257.282 81.4501 256.783C81.4501 255.839 80.8193 254.843 80.2149 254.843C79.952 254.843 79.8995 255.158 79.8732 255.263C79.8469 255.525 79.952 255.787 80.0834 255.813C80.2411 255.839 80.32 255.997 80.2937 256.128C80.2674 256.285 80.1097 256.364 79.9783 256.338C79.5052 256.233 79.295 255.682 79.3475 255.21C79.4001 254.66 79.7418 254.292 80.2149 254.292C81.2136 254.292 81.9758 255.63 81.9758 256.783C81.9758 257.439 81.7392 258.016 81.2924 258.357C81.0559 258.566 80.6879 258.75 80.1097 258.75Z" fill="black"/>
<path d="M62.6567 253.559C62.6567 253.559 63.8657 252.247 64.3388 252.247C64.8119 252.247 66.31 253.559 66.31 253.559H62.6567Z" fill="black"/>
<path d="M81.0826 237.668C81.0563 237.668 81.03 237.668 81.0037 237.668C80.2152 237.642 76.4305 236.567 73.2241 235.544C70.6747 234.731 66.3118 233.289 65.6547 232.608C64.5246 231.401 64.4983 229.802 65.1816 229.12C65.5496 228.753 65.9438 228.727 66.2067 228.753C66.6009 228.805 66.9951 229.094 67.1791 229.487C67.4156 229.933 67.2054 230.588 66.9163 230.877C66.706 231.087 66.4432 231.113 66.2067 230.982C66.0752 230.903 66.0227 230.746 66.1015 230.615C66.1804 230.484 66.3381 230.431 66.4695 230.51C66.4958 230.51 66.5483 230.457 66.6272 230.352C66.7323 230.143 66.7586 229.881 66.706 229.723C66.6009 229.513 66.3643 229.33 66.1278 229.277C65.9438 229.251 65.7336 229.304 65.5759 229.487C65.0765 229.985 65.1554 231.27 66.049 232.214C66.4432 232.634 69.3343 233.735 73.3818 234.994C76.9036 236.095 80.3992 237.065 81.03 237.091C81.5294 237.118 82.0024 236.855 82.3441 236.41C82.7121 235.885 82.8172 235.203 82.5807 234.653C82.2653 233.866 81.8185 233.315 81.4242 233.263C81.2402 233.237 81.0826 233.315 80.9249 233.473C80.7934 233.63 80.7146 233.761 80.7409 233.892C80.7934 234.102 81.0563 234.259 81.1351 234.312C81.2665 234.364 81.3191 234.548 81.2665 234.679C81.214 234.81 81.03 234.863 80.8986 234.81C80.846 234.784 80.3204 234.522 80.2152 234.023C80.1627 233.814 80.1889 233.499 80.5306 233.132C80.8986 232.739 81.2665 232.712 81.5294 232.739C82.1076 232.843 82.6858 233.473 83.08 234.469C83.3691 235.203 83.264 236.069 82.7909 236.75C82.3441 237.327 81.7396 237.668 81.0826 237.668Z" fill="black"/>
<path d="M65.3907 205.861C65.0491 205.861 64.8125 205.704 64.7074 205.363C64.6548 205.232 64.7337 205.074 64.8914 205.022C65.0228 204.969 65.1805 205.048 65.233 205.205C65.2593 205.337 65.2856 205.337 65.417 205.337C65.6273 205.337 65.9952 205.232 66.5734 205.074L66.7311 205.022C67.0991 204.917 67.4408 204.602 67.7299 204.104C68.2292 203.186 68.3606 201.849 68.0453 200.905C67.7299 199.935 67.0991 199.515 66.6523 199.463C66.3632 199.437 66.1004 199.542 65.9689 199.751C65.6273 200.276 65.4959 201.01 65.6536 201.482C65.6798 201.587 65.7587 201.718 65.8638 201.744C65.9164 201.77 65.9427 201.77 65.9952 201.744C66.1792 201.666 66.3369 201.272 66.4157 201.036C66.442 200.905 66.5997 200.8 66.7574 200.853C66.8888 200.879 66.994 201.036 66.9414 201.194C66.9151 201.272 66.7048 202.006 66.258 202.242C66.0741 202.321 65.8901 202.347 65.6798 202.269C65.4433 202.164 65.2593 201.954 65.1542 201.666C64.9702 201.063 65.1279 200.145 65.5484 199.489C65.8112 199.096 66.258 198.886 66.7574 198.939C67.5459 199.043 68.2818 199.751 68.5972 200.748C68.9651 201.849 68.8074 203.291 68.2292 204.366C67.8876 204.996 67.4145 205.415 66.9151 205.573L66.7574 205.625C66.1266 205.809 65.7587 205.887 65.4696 205.913C65.3907 205.861 65.3907 205.861 65.3907 205.861Z" fill="black"/>
<path d="M64.4718 257.649C64.3141 257.649 64.209 257.518 64.209 257.386L64.4192 182.761C64.4192 182.604 64.5507 182.499 64.6821 182.499C64.8398 182.499 64.9449 182.63 64.9449 182.761L64.7346 257.386C64.7346 257.544 64.6295 257.649 64.4718 257.649Z" fill="black"/>
<path d="M78.5333 261.267C78.507 261.267 78.4808 261.267 78.4545 261.241L64.6036 253.191C64.5247 253.138 64.4985 253.033 64.5247 252.955C64.5773 252.876 64.6824 252.824 64.7613 252.876L80.7936 259.877C80.8725 259.93 80.925 260.034 80.8987 260.113C80.8725 260.192 80.7411 260.244 80.6622 260.218L67.521 254.476L78.6647 260.952C78.7436 261.005 78.7699 261.109 78.7173 261.188C78.6647 261.241 78.6122 261.267 78.5333 261.267Z" fill="black"/>
<path d="M72.6975 262.839C72.6449 262.839 72.5924 262.813 72.5661 262.76L64.5499 253.006C64.4974 252.927 64.4974 252.823 64.5499 252.77C64.6025 252.718 64.7076 252.691 64.7865 252.744L76.0091 261.712C76.0879 261.764 76.0879 261.895 76.0354 261.974C75.9828 262.052 75.8514 262.052 75.7726 262L65.8903 254.107L72.8026 262.524C72.8552 262.603 72.8552 262.708 72.7763 262.787C72.7763 262.813 72.7501 262.839 72.6975 262.839Z" fill="black"/>
<path d="M66.8373 263.547C66.7584 263.547 66.6796 263.494 66.6533 263.416L64.4982 252.954C64.4719 252.875 64.5244 252.77 64.6296 252.744C64.7084 252.718 64.8135 252.744 64.8398 252.849L69.7809 262.996C69.8335 263.075 69.7809 263.18 69.7021 263.232C69.6232 263.285 69.5181 263.232 69.4655 263.154L65.1815 254.291L67.0476 263.337C67.0738 263.442 66.995 263.521 66.9161 263.547C66.8636 263.547 66.8636 263.547 66.8373 263.547Z" fill="black"/>
<path d="M63.9706 263.549C63.8655 263.549 63.7866 263.444 63.7866 263.365L64.4962 252.903C64.4962 252.798 64.6014 252.72 64.6802 252.746C64.7854 252.746 64.8642 252.851 64.8379 252.929L64.1283 263.392C64.1283 263.47 64.0494 263.549 63.9706 263.549Z" fill="black"/>
<path d="M66.6778 234.365H62.6566C62.5252 234.365 62.4201 234.287 62.3938 234.156C62.3675 234.024 62.4201 233.893 62.5515 233.841L64.6015 232.949C64.6804 232.923 64.7592 232.923 64.8118 232.949L66.783 233.841C66.8881 233.893 66.9669 234.024 66.9406 234.156C66.9144 234.287 66.783 234.365 66.6778 234.365ZM63.9182 233.841H65.4163L64.6804 233.5L63.9182 233.841Z" fill="black"/>
<path d="M79.3194 239.373C79.2931 239.373 79.2669 239.373 79.2406 239.373L64.6012 233.552C64.5224 233.526 64.4698 233.421 64.4961 233.316C64.5224 233.238 64.6275 233.185 64.7064 233.211L81.7374 238.534C81.8425 238.561 81.8951 238.665 81.8425 238.77C81.8163 238.875 81.7111 238.928 81.606 238.875L69.1218 234.942L79.372 239.032C79.4771 239.059 79.5034 239.164 79.4771 239.268C79.4508 239.321 79.3983 239.373 79.3194 239.373Z" fill="black"/>
<path d="M73.1963 240.631C73.1437 240.631 73.1174 240.605 73.0911 240.579L64.5756 233.499C64.4968 233.447 64.4968 233.342 64.5493 233.263C64.6019 233.185 64.707 233.158 64.7859 233.211L76.4816 239.976C76.5604 240.028 76.5867 240.133 76.5342 240.212C76.4816 240.291 76.3765 240.317 76.2976 240.264L66.4154 234.548L73.3014 240.291C73.3803 240.343 73.3803 240.474 73.3277 240.553C73.3014 240.605 73.2488 240.631 73.1963 240.631Z" fill="black"/>
<path d="M66.3096 241.156C66.2307 241.156 66.1519 241.104 66.1256 241.025L64.4961 233.395C64.4698 233.316 64.5224 233.238 64.6012 233.185C64.6801 233.159 64.7589 233.185 64.8115 233.238L70.4359 240.789C70.4885 240.868 70.4885 240.973 70.4097 241.051C70.3308 241.104 70.2257 241.104 70.1468 241.025L65.0217 234.155L66.4673 240.973C66.4936 241.078 66.4147 241.156 66.3359 241.183C66.3359 241.156 66.3096 241.156 66.3096 241.156Z" fill="black"/>
<path d="M71.9346 214.568C71.9083 214.568 71.9083 214.568 71.882 214.568L64.628 212.522C64.5492 212.496 64.4703 212.417 64.4966 212.312C64.5229 212.207 64.6017 212.155 64.7069 212.181L77.1911 213.676C77.2962 213.676 77.3488 213.781 77.3488 213.886C77.3488 213.991 77.2436 214.043 77.1385 214.043L66.9672 212.837L71.9871 214.253C72.0923 214.28 72.1448 214.384 72.1185 214.463C72.0923 214.516 72.0134 214.568 71.9346 214.568Z" fill="black"/>
<path d="M69.2539 214.569C69.2276 214.569 69.2013 214.569 69.1751 214.542L65.8635 212.968L67.3878 214.254C67.4667 214.306 67.4667 214.437 67.4141 214.516C67.3616 214.595 67.2301 214.595 67.1513 214.542L64.5756 212.365C64.4968 212.313 64.4968 212.208 64.5493 212.129C64.6019 212.05 64.707 212.024 64.7859 212.077L69.3327 214.254C69.4116 214.306 69.4642 214.411 69.4116 214.49C69.3853 214.542 69.3065 214.569 69.2539 214.569Z" fill="black"/>
<path d="M81.8165 267.062C82.4262 267.062 82.9204 266.745 82.9204 266.354C82.9204 265.963 82.4262 265.646 81.8165 265.646C81.2069 265.646 80.7126 265.963 80.7126 266.354C80.7126 266.745 81.2069 267.062 81.8165 267.062Z" fill="black"/>
<path d="M64.208 257.779C64.8031 257.779 65.2855 257.556 65.2855 257.281C65.2855 257.005 64.8031 256.782 64.208 256.782C63.6128 256.782 63.1304 257.005 63.1304 257.281C63.1304 257.556 63.6128 257.779 64.208 257.779Z" fill="black"/>
<path d="M53.2217 207.278C52.0915 207.278 51.0402 206.701 50.2781 205.704C49.3056 204.419 49.0165 202.689 49.5421 201.116C50.462 198.284 52.3544 195.95 55.8499 193.275C56.3756 192.882 56.9012 192.489 57.4532 192.096C60.9487 189.526 64.5757 186.851 64.4706 182.787C64.3918 179.509 62.2892 178.041 60.3443 178.041H60.318C58.6622 178.067 58.3731 179.85 58.3468 180.925C58.3205 182.341 58.9776 183.416 59.6346 183.626C59.9763 183.731 60.2917 183.6 60.5545 183.18C61.159 182.289 60.7648 181.764 60.5545 181.607C60.318 181.397 60.0551 181.371 60.0289 181.424C60.0289 181.424 60.0289 181.45 60.0289 181.502C60.0551 181.66 59.95 181.791 59.7923 181.791C59.6346 181.817 59.5032 181.712 59.5032 181.555C59.4769 181.266 59.5821 181.03 59.8449 180.925C60.2128 180.768 60.7648 180.952 61.1064 181.371C61.343 181.633 61.7635 182.394 61.0276 183.495C60.6334 184.098 60.0814 184.334 59.5032 184.151C58.5308 183.836 57.7948 182.42 57.8474 180.925C57.9 178.775 58.8199 177.543 60.3705 177.517H60.3968C62.5783 177.517 64.97 179.169 65.0488 182.787C65.1014 184.727 64.3392 186.563 62.7622 188.346C61.3956 189.893 59.5558 191.23 57.7948 192.541C57.2692 192.935 56.7173 193.328 56.2179 193.721C52.8275 196.317 50.9877 198.598 50.0941 201.299C49.6473 202.689 49.8838 204.262 50.7511 205.39C51.4345 206.281 52.3807 206.779 53.3794 206.753C55.8762 206.674 56.9538 205.521 56.875 203.003C56.8487 202.033 56.4544 201.43 55.7974 201.22C55.0352 201.011 54.1941 201.352 53.9313 201.692C53.5108 202.296 53.6422 202.741 53.8788 202.977C54.0627 203.135 54.3781 203.239 54.6409 203.003C54.7461 202.899 54.9301 202.925 55.0089 203.03C55.114 203.135 55.0878 203.318 54.9826 203.397C54.5621 203.764 53.9313 203.738 53.5108 203.344C53.1166 202.977 52.8537 202.243 53.4845 201.352C53.8788 200.801 54.9826 200.381 55.9288 200.67C56.4544 200.827 57.348 201.325 57.4006 202.951C57.5057 205.73 56.1916 207.146 53.3794 207.251C53.3005 207.278 53.2743 207.278 53.2217 207.278Z" fill="black"/>
<path d="M47.8079 266.615C47.6765 266.615 47.5451 266.51 47.5451 266.353C47.4136 264.36 44.5751 217.005 44.5751 214.697C44.5488 211.892 44.838 209.925 45.4162 208.535C46.0732 207.015 47.1245 206.097 48.6752 205.782C49.9368 205.52 51.0932 205.782 51.9605 206.49C52.8278 207.198 53.3009 208.299 53.3009 209.584C53.3009 210.817 52.9067 211.944 52.2233 212.757C51.5663 213.517 50.6464 213.963 49.7265 213.963C48.9643 213.963 48.3598 213.649 48.0444 213.045C47.6765 212.337 47.7553 211.367 48.2547 210.581C48.6489 209.978 49.6477 209.899 50.2259 210.266C50.6201 210.502 50.9092 211.026 50.515 211.708C50.4361 211.839 50.2784 211.892 50.147 211.813C50.0156 211.734 49.963 211.577 50.0419 211.446C50.2259 211.105 50.1996 210.895 49.9368 210.738C49.5951 210.528 48.9117 210.554 48.7015 210.895C48.3072 211.498 48.2284 212.285 48.5175 212.809C48.754 213.229 49.1483 213.439 49.7265 213.439C51.2246 213.439 52.7753 211.997 52.7753 209.61C52.7753 208.483 52.3548 207.539 51.6188 206.936C50.8829 206.333 49.8579 206.123 48.7803 206.333C46.1521 206.857 45.1008 209.296 45.1271 214.724C45.1271 217.031 48.0707 265.881 48.097 266.379C48.097 266.484 47.9919 266.615 47.8079 266.615Z" fill="black"/>
<path d="M49.3325 258.75C48.7543 258.75 48.3601 258.567 48.1235 258.357C47.6767 258.016 47.4402 257.439 47.4402 256.784C47.4402 255.63 48.2024 254.293 49.2011 254.293C49.6742 254.293 50.0159 254.66 50.0684 255.21C50.121 255.682 49.9107 256.233 49.4377 256.338C49.28 256.364 49.1485 256.285 49.1223 256.128C49.096 255.971 49.1748 255.84 49.3325 255.814C49.4639 255.787 49.5691 255.525 49.5428 255.263C49.5428 255.158 49.4902 254.843 49.2011 254.843C48.5966 254.843 47.9658 255.84 47.9658 256.784C47.9658 257.282 48.1498 257.701 48.4389 257.937C48.7806 258.2 49.28 258.278 49.9107 258.121C50.5941 257.964 53.4326 256.731 56.7968 255.106C60.2398 253.454 62.8943 252.038 63.4199 251.592C64.4975 250.674 64.3398 249.337 64.1821 249.048C64.1559 248.996 63.9193 248.865 63.6302 248.891C63.4199 248.917 63.1834 248.996 63.052 249.363C62.9994 249.573 62.9994 249.704 63.052 249.783C63.1308 249.861 63.3148 249.861 63.3674 249.861C63.5251 249.835 63.6565 249.94 63.6828 250.097C63.7091 250.255 63.6039 250.386 63.4462 250.412C63.3937 250.412 62.9206 250.464 62.6578 250.15C62.4738 249.94 62.4475 249.625 62.5526 249.232C62.7103 248.734 63.1046 248.419 63.6039 248.367C64.0507 248.341 64.5238 248.524 64.6815 248.839C64.8918 249.284 65.102 250.91 63.7616 252.038C63.0783 252.615 59.8455 254.266 57.0333 255.604C54.1685 256.993 50.8832 258.462 50.0422 258.672C49.7793 258.724 49.5428 258.75 49.3325 258.75Z" fill="black"/>
<path d="M48.3337 237.668C47.6766 237.668 47.0721 237.327 46.6516 236.751C46.1785 236.069 46.0734 235.203 46.3625 234.469C46.7567 233.473 47.3349 232.844 47.9131 232.739C48.176 232.686 48.5439 232.712 48.9119 233.132C49.2273 233.499 49.2536 233.814 49.2273 234.024C49.1221 234.522 48.5965 234.784 48.5439 234.81C48.4125 234.863 48.2548 234.81 48.176 234.679C48.1234 234.548 48.176 234.391 48.3074 234.312C48.4125 234.26 48.6491 234.102 48.7016 233.892C48.7279 233.761 48.6753 233.63 48.5176 233.473C48.3599 233.289 48.2023 233.237 48.0183 233.263C47.6503 233.342 47.1772 233.866 46.8618 234.653C46.6253 235.203 46.7304 235.885 47.0984 236.41C47.4138 236.855 47.8869 237.118 48.4125 237.091C49.0433 237.065 52.5651 236.095 56.0607 234.994C60.1345 233.709 62.9993 232.608 63.3935 232.214C64.2871 231.27 64.3923 229.985 63.8666 229.487C63.6826 229.304 63.4987 229.251 63.3147 229.278C63.0781 229.304 62.8416 229.487 62.7365 229.723C62.6576 229.881 62.6839 230.143 62.8153 230.353C62.8679 230.484 62.9467 230.51 62.973 230.51C63.1044 230.431 63.2621 230.484 63.341 230.615C63.4198 230.746 63.3673 230.903 63.2358 230.982C62.9993 231.113 62.7365 231.061 62.5262 230.877C62.2108 230.589 62.0268 229.933 62.2634 229.487C62.4474 229.12 62.8416 228.832 63.2358 228.753C63.4987 228.701 63.8929 228.727 64.2609 229.12C64.9442 229.802 64.9179 231.401 63.7878 232.608C63.1307 233.289 58.7678 234.732 56.2184 235.544C53.012 236.567 49.201 237.616 48.4388 237.668C48.4125 237.668 48.3599 237.668 48.3337 237.668Z" fill="black"/>
<path d="M64.0254 205.861H63.9991C63.71 205.861 63.3421 205.756 62.7113 205.573L62.5536 205.52C62.028 205.389 61.5812 204.969 61.2395 204.314C60.6613 203.239 60.5036 201.797 60.8715 200.695C61.1869 199.699 61.9228 198.991 62.7113 198.886C63.2107 198.834 63.6837 199.017 63.9203 199.437C64.3408 200.092 64.4985 201.01 64.3145 201.613C64.2094 201.902 64.0517 202.111 63.7889 202.216C63.6049 202.295 63.3946 202.295 63.2107 202.19C62.7376 201.954 62.5273 201.22 62.5273 201.141C62.501 201.01 62.5799 200.853 62.7113 200.8C62.8427 200.774 63.0004 200.853 63.053 200.984C63.1055 201.22 63.2895 201.613 63.4735 201.692C63.4998 201.718 63.5523 201.718 63.6049 201.692C63.71 201.639 63.7626 201.508 63.8152 201.43C63.9729 200.984 63.8152 200.223 63.4998 199.699C63.3421 199.463 63.1055 199.358 62.8164 199.411C62.3696 199.463 61.7388 199.883 61.4235 200.853C61.1081 201.797 61.2395 203.134 61.7388 204.052C62.0017 204.55 62.3696 204.891 62.7376 204.969L62.8953 205.022C63.4735 205.179 63.8414 205.284 64.0517 205.284C64.1831 205.284 64.1831 205.284 64.2357 205.153C64.2882 205.022 64.4197 204.943 64.5774 204.969C64.7088 205.022 64.7876 205.153 64.7613 205.31C64.6036 205.677 64.3934 205.861 64.0254 205.861Z" fill="black"/>
<path d="M50.883 261.266C50.8304 261.266 50.7515 261.24 50.7253 261.188C50.6727 261.109 50.699 261.004 50.7778 260.952L61.9216 254.475L48.7804 260.217C48.7015 260.27 48.5964 260.217 48.5438 260.113C48.4912 260.034 48.5438 259.903 48.6489 259.877L64.6813 252.876C64.7601 252.849 64.8652 252.876 64.9178 252.954C64.9704 253.033 64.9178 253.138 64.839 253.19L50.9881 261.24C50.9355 261.266 50.9092 261.266 50.883 261.266Z" fill="black"/>
<path d="M56.7187 262.841C56.6661 262.841 56.6398 262.814 56.6135 262.788C56.5347 262.736 56.5347 262.605 56.5873 262.526L63.4996 254.109L53.6173 262.002C53.5385 262.054 53.4334 262.054 53.3545 261.975C53.3019 261.897 53.3019 261.792 53.3808 261.713L64.6034 252.746C64.6823 252.693 64.7874 252.693 64.84 252.772C64.8925 252.824 64.9188 252.929 64.84 253.008L56.8238 262.762C56.8238 262.814 56.7712 262.841 56.7187 262.841Z" fill="black"/>
<path d="M62.5792 263.547H62.5529C62.4478 263.521 62.3952 263.442 62.4215 263.337L64.2876 254.291L60.0035 263.154C59.951 263.232 59.8458 263.285 59.767 263.232C59.6882 263.18 59.6356 263.075 59.6882 262.996L64.603 252.823C64.6555 252.744 64.7344 252.692 64.8132 252.718C64.8921 252.744 64.9447 252.823 64.9447 252.928L62.7895 263.39C62.7369 263.495 62.6581 263.547 62.5792 263.547Z" fill="black"/>
<path d="M50.095 239.372C50.0161 239.372 49.9636 239.32 49.9373 239.267C49.911 239.162 49.9373 239.084 50.0424 239.031L60.2926 234.941L47.7558 238.848C47.6507 238.874 47.5719 238.822 47.5193 238.743C47.493 238.638 47.5456 238.559 47.6244 238.507L64.6555 233.184C64.7606 233.158 64.8395 233.21 64.8657 233.289C64.892 233.368 64.8657 233.472 64.7606 233.525L50.1213 239.346C50.1475 239.372 50.1213 239.372 50.095 239.372Z" fill="black"/>
<path d="M56.218 240.631C56.1654 240.631 56.1129 240.604 56.0866 240.578C56.034 240.5 56.034 240.395 56.1129 240.316L62.9989 234.574L53.1167 240.29C53.0378 240.342 52.9327 240.316 52.8801 240.237C52.8276 240.159 52.8538 240.054 52.9327 240.001L64.6284 233.236C64.7073 233.184 64.8124 233.21 64.865 233.289C64.9175 233.367 64.9175 233.472 64.8387 233.525L56.3231 240.604C56.2969 240.604 56.2443 240.631 56.218 240.631Z" fill="black"/>
<path d="M63.1041 241.155H63.0779C62.9727 241.129 62.9202 241.05 62.9464 240.946L64.392 234.128L59.2669 240.998C59.2143 241.077 59.0829 241.103 59.0041 241.024C58.9252 240.972 58.8989 240.841 58.9778 240.762L64.576 233.237C64.6285 233.158 64.7074 233.158 64.7862 233.184C64.8651 233.21 64.9176 233.315 64.8913 233.394L63.2618 241.024C63.2618 241.103 63.183 241.155 63.1041 241.155Z" fill="black"/>
<path d="M57.4791 214.569C57.4003 214.569 57.3214 214.516 57.2952 214.437C57.2689 214.333 57.3214 214.254 57.4266 214.228L62.4465 212.811L52.2752 214.018C52.1701 214.018 52.0912 213.965 52.0649 213.86C52.0649 213.755 52.1175 213.677 52.2226 213.65L64.7068 212.155C64.812 212.155 64.8908 212.208 64.9171 212.286C64.9434 212.391 64.8908 212.47 64.7857 212.496L57.5317 214.542C57.5054 214.569 57.4791 214.569 57.4791 214.569Z" fill="black"/>
<path d="M60.1601 214.567C60.0812 214.567 60.0286 214.541 60.0024 214.462C59.9498 214.383 60.0024 214.279 60.0812 214.226L64.6281 212.049C64.7069 212.023 64.8121 212.049 64.8646 212.101C64.9172 212.18 64.8909 212.285 64.8383 212.337L62.2627 214.515C62.1838 214.567 62.0787 214.567 61.9998 214.488C61.9473 214.41 61.9473 214.305 62.0261 214.226L63.5505 212.941L60.2389 214.515C60.2126 214.567 60.1863 214.567 60.1601 214.567Z" fill="black"/>
<path d="M47.597 267.062C48.2067 267.062 48.7009 266.745 48.7009 266.354C48.7009 265.963 48.2067 265.646 47.597 265.646C46.9874 265.646 46.4932 265.963 46.4932 266.354C46.4932 266.745 46.9874 267.062 47.597 267.062Z" fill="black"/>
<path d="M67.5455 214.831C64.9435 214.831 62.5255 214.726 60.4755 214.621C54.9562 214.28 50.9612 213.677 50.9087 213.677C50.751 213.651 50.6721 213.519 50.6721 213.362C50.6984 213.205 50.8298 213.126 50.9875 213.126C51.0401 213.126 55.0087 213.729 60.5018 214.07C65.5743 214.385 73.0122 214.516 79.6354 213.415C79.7931 213.388 79.9245 213.493 79.9508 213.624C79.9771 213.782 79.872 213.913 79.7406 213.939C75.7456 214.595 71.4353 214.831 67.5455 214.831Z" fill="black"/>
<path d="M65.838 241.287C65.3912 241.287 64.9181 241.287 64.445 241.26C53.9583 240.946 46.4678 238.717 46.389 238.691C46.2576 238.638 46.1787 238.507 46.205 238.35C46.2576 238.219 46.389 238.14 46.5467 238.166C46.6255 238.192 54.0635 240.395 64.445 240.71C74.8266 241.024 83.0793 237.773 83.1582 237.747C83.2896 237.694 83.4473 237.747 83.4999 237.904C83.5524 238.035 83.4999 238.192 83.3422 238.245C83.3159 238.245 81.2133 239.084 77.8491 239.871C75.0632 240.526 70.7528 241.287 65.838 241.287Z" fill="black"/>
<path d="M64.8652 263.627C58.1106 263.627 53.774 262.656 51.3034 261.817C48.6226 260.926 47.545 260.008 47.5187 259.982C47.4136 259.877 47.3873 259.72 47.4925 259.615C47.5976 259.51 47.7553 259.484 47.8604 259.589C47.8604 259.589 48.9117 260.48 51.5137 261.345C53.9317 262.158 58.1894 263.102 64.8389 263.102C71.4884 263.102 75.7462 262.027 78.1641 261.136C80.7661 260.165 81.8174 259.169 81.8174 259.169C81.9225 259.064 82.1065 259.064 82.2116 259.169C82.3168 259.274 82.3168 259.457 82.2116 259.536C82.1591 259.589 81.1078 260.585 78.427 261.608C75.9564 262.525 71.6198 263.627 64.8652 263.627Z" fill="black"/>
<path d="M243.427 50.3978C243.427 50.3978 249.524 46.5433 256.384 50.9222C260.983 53.859 261.535 64.1901 259.827 67.7299C258.118 71.2435 250.286 77.6677 250.286 77.6677C250.286 77.6677 220.929 56.35 243.427 50.3978Z" fill="#A5713D"/>
<path d="M223.846 111.334L223.768 126.464C223.768 126.464 227.027 136.532 228.919 136.428C230.811 136.349 233.571 135.746 234.543 131.708C235.516 127.67 235.831 112.094 235.831 112.094L223.846 111.334Z" fill="#DD866F"/>
<path d="M262.219 254.397L263.218 278.206L285.742 277.472C285.742 277.472 288.765 272.595 285.479 271.415C282.194 270.208 271.55 266.013 271.55 266.013L271.471 254.083L262.219 254.397Z" fill="#F69576"/>
<path d="M262.718 266.301L263.218 278.205L285.742 277.471C285.742 277.471 288.764 272.594 285.479 271.414C282.194 270.208 271.549 266.012 271.549 266.012L262.718 266.301Z" fill="#032240"/>
<path d="M263.113 275.82L263.218 278.232L285.743 277.498C285.743 277.498 286.452 276.371 286.794 275.06L263.113 275.82Z" fill="#BFBFBF"/>
<path d="M241.956 254.318L242.14 266.223C242.14 266.223 231.706 268.189 228.92 269.028C225.582 270.051 221.718 270.969 221.166 274.22C220.693 277.026 221.166 278.127 221.166 278.127H253.468L249.946 254.292H241.956V254.318Z" fill="#F69576"/>
<path d="M242.14 266.222C242.14 266.222 231.706 268.189 228.92 269.028C225.582 270.05 221.718 270.968 221.167 274.22C220.693 277.025 221.167 278.127 221.167 278.127H253.468L252.232 266.222H242.14Z" fill="#BFBFBF"/>
<path d="M221.193 274.246C221.088 274.823 221.036 275.321 221.009 275.74H253.258L252.259 266.222H242.167C242.167 266.222 231.733 268.189 228.947 269.028C225.582 270.077 221.719 270.994 221.193 274.246Z" fill="#032240"/>
<path d="M227.449 146.339C227.449 146.339 226.319 158.086 227.449 177.621C228.579 197.155 233.336 215.903 233.888 218.132C234.44 220.361 241.457 257.805 241.457 257.805H252.391C252.391 257.805 246.241 207.224 245.663 191.859C245.111 176.493 247.634 147.729 247.634 147.729L227.449 146.339Z" fill="#254B6B"/>
<path d="M268.132 147.545L241.85 148.384C241.85 148.384 241.745 194.874 243.873 196.972C246.002 199.069 252.547 207.591 253.782 214.278C255.017 220.938 259.091 257.988 259.091 257.988L272.679 257.542L268.132 147.545Z" fill="#254B6B"/>
<path d="M250.208 85.2445C238.617 85.0085 234.912 86.7391 232.467 92.1407C230.023 97.5422 223.899 145.029 223.321 154.704C222.769 164.38 224.635 170.175 237.881 170.175C251.128 170.175 269.237 159.372 269.237 159.372C269.237 159.372 269.972 162.728 270.551 164.773C271.103 166.818 276.701 169.047 276.701 165.507C276.701 161.967 274.283 106.457 273.889 97.1489C273.494 87.8404 258.986 85.4281 250.208 85.2445Z" fill="black"/>
<path d="M237.882 88.4177C233.309 87.2378 229.104 87.2902 225.74 94.0028C222.375 100.715 219.773 121.561 219.773 121.561L235.28 127.697C235.28 127.697 250.025 91.5643 237.882 88.4177Z" fill="black"/>
<path d="M246.213 84.2998C250.286 84.2998 255.122 84.6931 257.645 86.2926C260.72 88.2592 260.668 95.6011 247.185 96.2042C233.702 96.8073 234.149 90.5404 235.516 88.6787C237.487 85.978 243.111 84.2998 246.213 84.2998Z" fill="#F69576"/>
<path d="M240.982 75.8813L238.354 92.7153H254.254C254.254 92.7153 253.492 86.0289 252.599 81.6762C251.705 77.3497 250.943 75.8813 250.943 75.8813H240.982Z" fill="#F69576"/>
<path d="M247.921 80.4438C247.921 80.4438 248.052 83.5379 246.002 84.9014C243.952 86.2649 239.379 86.2911 239.379 86.2911L241.009 75.8813H247.711C247.684 75.8813 248.158 78.4772 247.921 80.4438Z" fill="#DD866F"/>
<path d="M238.722 55.4565C238.722 55.4565 236.698 57.1084 235.831 60.7793C235.148 63.6112 235.305 66.6266 234.964 68.331C234.622 70.0354 234.044 72.7361 234.517 75.096C234.99 77.4559 237.092 80.6811 241.009 81.7824C244.898 82.8837 248.105 82.0971 250.26 79.3701C252.415 76.6431 255.07 71.8184 255.858 68.4359C256.647 65.0534 257.093 58.7079 253.493 55.9022C248.867 52.3624 243.4 52.3099 238.722 55.4565Z" fill="#F69576"/>
<path d="M244.977 75.2526C244.977 75.2526 244.399 77.5077 243.006 77.8485C241.613 78.1894 240.247 77.7699 239.695 76.957C239.143 76.1442 238.959 74.6758 238.959 74.6758L244.977 75.2526Z" fill="white"/>
<path d="M242.35 71.8972C241.903 71.8185 241.929 71.3988 241.929 71.1627C241.929 71.1365 241.929 71.1365 241.929 71.1103C241.903 71.1365 241.876 71.1365 241.876 71.1627C241.719 71.2676 241.482 71.4513 241.193 71.189C241.088 71.084 241.035 70.9266 241.035 70.6906C241.062 70.2446 241.351 69.6413 241.614 69.4314C241.666 69.379 241.745 69.4052 241.798 69.4577C241.85 69.5101 241.824 69.5888 241.771 69.6413C241.587 69.7724 241.325 70.2971 241.298 70.6906C241.298 70.8217 241.325 70.9266 241.377 70.9791C241.482 71.084 241.561 71.0578 241.719 70.9266C241.798 70.8742 241.876 70.7955 241.982 70.7955C242.034 70.7955 242.087 70.7955 242.113 70.8479C242.192 70.9266 242.192 71.0316 242.192 71.1627C242.192 71.4513 242.218 71.5824 242.376 71.6349C242.455 71.6349 242.507 71.6349 242.56 71.6087C242.639 71.5562 242.639 71.3726 242.639 71.2414C242.639 71.1365 242.639 71.0578 242.691 71.0053C242.717 70.9529 242.796 70.9004 242.849 70.9004C242.98 70.9004 243.112 70.9791 243.296 71.189C243.322 71.2152 243.375 71.2676 243.453 71.2414C243.532 71.2152 243.637 71.1103 243.69 70.9004C243.743 70.5856 243.453 69.9561 243.322 69.7462C243.296 69.6937 243.296 69.6151 243.375 69.5626C243.427 69.5364 243.506 69.5364 243.559 69.6151C243.611 69.6937 244.032 70.4807 243.953 70.9529C243.9 71.2414 243.742 71.4513 243.532 71.5037C243.375 71.5562 243.217 71.5037 243.112 71.3726C243.007 71.2676 242.954 71.2152 242.901 71.189C242.901 71.2152 242.901 71.2414 242.901 71.2676C242.901 71.425 242.875 71.6874 242.717 71.8185C242.639 71.871 242.56 71.8972 242.455 71.8972C242.428 71.9234 242.376 71.9234 242.35 71.8972Z" fill="#6B3425"/>
<path d="M261.825 66.0227C260.616 63.0335 251.838 65.7343 253.468 71.2407C255.123 76.8782 263.586 70.4279 261.825 66.0227Z" fill="#F69576"/>
<path d="M255.096 71.9225C255.122 71.9225 255.149 71.9225 255.175 71.8962C255.227 71.8438 255.227 71.7651 255.175 71.7127C254.807 71.3194 254.728 70.0608 255.201 68.8546C255.517 67.9893 256.331 66.5209 258.224 66.2849C259.249 66.1538 259.958 66.3374 260.353 66.7831C260.957 67.4649 260.668 68.5662 260.668 68.5924C260.642 68.6711 260.694 68.7235 260.773 68.7497C260.852 68.7759 260.904 68.7235 260.931 68.6448C260.957 68.5924 261.246 67.3862 260.563 66.5996C260.09 66.0752 259.301 65.8654 258.197 65.9965C256.699 66.1801 255.517 67.1765 254.938 68.7497C254.492 69.9821 254.492 71.3718 254.965 71.8962C255.017 71.8962 255.07 71.9225 255.096 71.9225Z" fill="#6B3425"/>
<path d="M258.249 71.4263C258.302 71.4263 258.354 71.4001 258.381 71.3476C258.433 71.2427 259.406 68.8304 257.96 66.1296C257.934 66.0772 257.855 66.051 257.776 66.0772C257.723 66.1034 257.697 66.1821 257.723 66.2607C259.116 68.8566 258.144 71.2427 258.144 71.2427C258.118 71.3214 258.144 71.3738 258.223 71.4263C258.223 71.4263 258.223 71.4263 258.249 71.4263Z" fill="#6B3425"/>
<path d="M246.711 69.3537C246.972 69.3537 247.184 68.9192 247.184 68.3832C247.184 67.8471 246.972 67.4126 246.711 67.4126C246.45 67.4126 246.238 67.8471 246.238 68.3832C246.238 68.9192 246.45 69.3537 246.711 69.3537Z" fill="#6B3425"/>
<path d="M248.945 65.8406C248.577 65.5258 247.789 65.1061 247 65.0274C246.133 64.9487 245.608 65.3422 245.266 65.4208C244.924 65.4995 244.872 65.0274 245.056 64.6077C245.24 64.188 245.975 63.8732 247.184 63.9256C248.393 63.9781 249.051 64.5027 249.366 64.87C249.708 65.2372 249.445 66.2603 248.945 65.8406Z" fill="#6B3425"/>
<path d="M239.3 69.1184C239.562 69.1184 239.773 68.6838 239.773 68.1478C239.773 67.6118 239.562 67.1772 239.3 67.1772C239.039 67.1772 238.827 67.6118 238.827 68.1478C238.827 68.6838 239.039 69.1184 239.3 69.1184Z" fill="#6B3425"/>
<path d="M241.061 65.4739C240.693 65.1591 239.905 64.7394 239.116 64.6607C238.249 64.582 237.723 64.9755 237.382 65.0542C237.04 65.1328 236.987 64.6607 237.171 64.241C237.355 63.8213 238.091 63.5065 239.3 63.5589C240.509 63.6114 241.166 64.136 241.482 64.5033C241.823 64.8705 241.587 65.9198 241.061 65.4739Z" fill="#6B3425"/>
<path d="M236.907 77.3779L237.486 77.5877C237.486 77.5877 238.432 80 239.378 80.5245C240.298 81.0489 243.531 81.18 243.899 80.9178C244.267 80.6556 245.607 78.217 245.607 78.217L246.343 78.4792C246.343 78.4792 244.871 82.0453 244.661 82.3599C244.529 82.5435 242.295 83.8021 241.454 83.8021C240.613 83.8021 237.906 81.9928 237.801 81.6257C237.486 80.4982 236.907 77.3779 236.907 77.3779Z" fill="#6B3425"/>
<path d="M240.43 79.1348L241.85 79.2135L241.666 81.7055L240.562 81.8104L240.43 79.1348Z" fill="#6B3425"/>
<path opacity="0.4" d="M269.867 98.5391L266.267 118.782L272.706 120.722L269.867 98.5391Z" fill="#254B6B"/>
<path d="M254.256 51.9701C254.256 51.9701 250.918 58.001 241.64 58.5254C222.322 59.6529 231.18 48.8236 231.18 48.8236C231.18 48.8236 230.496 51.6817 233.808 51.839C238.355 52.075 244.952 38.2827 254.256 51.9701Z" fill="#A5713D"/>
<path d="M269.764 116.867C269.764 116.867 270.526 134.54 270.868 136.061C271.209 137.582 266.137 155.569 265.795 157.615C265.453 159.66 265.716 164.852 265.427 166.53C265.138 168.208 264.323 171.04 263.167 171.328C262.01 171.617 255.44 171.931 254.783 171.8C254.126 171.669 255.729 169.519 255.887 169.047C256.018 168.575 253.626 171.119 252.076 171.355C250.525 171.591 249.894 169.939 251.497 169.309C253.101 168.68 255.308 163.986 256.412 163.331C257.516 162.649 258.541 161.731 258.673 161.259C258.804 160.787 260.854 137.346 261.248 136.533C261.669 135.694 260.88 119.122 260.88 119.122L269.764 116.867Z" fill="#F69576"/>
<path d="M117.351 110.521L127.443 108.292V111.177L117.351 110.521Z" fill="#EAEAEA"/>
<path d="M111.753 255.209L111.569 266.93C111.569 266.93 121.846 268.844 124.579 269.71C127.864 270.732 131.675 271.624 132.201 274.823C132.674 277.576 132.201 278.651 132.201 278.651H100.399L103.842 255.209H111.753Z" fill="white"/>
<path d="M111.569 266.932C111.569 266.932 121.846 268.846 124.579 269.711C127.864 270.734 131.675 271.625 132.201 274.824C132.674 277.577 132.201 278.652 132.201 278.652H100.399L101.634 266.932H111.569Z" fill="white"/>
<path d="M132.199 274.824C132.305 275.375 132.357 275.873 132.383 276.293H100.66L101.633 266.932H111.568C111.568 266.932 121.844 268.846 124.577 269.711C127.863 270.707 131.674 271.625 132.199 274.824Z" fill="#5F750E"/>
<path d="M96.8506 256.286L96.6666 268.007C96.6666 268.007 106.943 269.921 109.676 270.786C112.962 271.809 116.773 272.701 117.298 275.899C117.771 278.653 117.298 279.728 117.298 279.728H85.4966L88.9396 256.286H96.8506Z" fill="white"/>
<path d="M96.6666 268.006C96.6666 268.006 106.943 269.92 109.676 270.786C112.962 271.808 116.773 272.7 117.298 275.899C117.771 278.652 117.298 279.727 117.298 279.727H85.4966L86.7319 268.006H96.6666Z" fill="white"/>
<path d="M117.298 275.899C117.403 276.45 117.455 276.948 117.482 277.367H85.7324L86.7049 268.006H96.6397C96.6397 268.006 106.916 269.92 109.649 270.786C112.935 271.782 116.746 272.7 117.298 275.899Z" fill="#5F750E"/>
<path d="M110.307 54.5144C110.307 54.5144 104.315 50.7385 97.56 55.0388C93.0394 57.9231 92.4875 68.0969 94.1696 71.5581C95.8516 75.0193 103.552 81.3385 103.552 81.3385C103.552 81.3385 132.437 60.3617 110.307 54.5144Z" fill="#CC6100"/>
<path d="M129.572 114.483L129.651 129.376C129.651 129.376 147.497 129.586 148.653 129.298C149.809 129.009 155.565 124.447 156.17 124.211C156.774 123.975 157.352 124.211 157.116 124.893C156.879 125.574 155.986 127.777 155.986 127.777C155.986 127.777 160.349 127.279 160.769 127.043C161.163 126.807 163.792 124.788 164.317 124.604C164.869 124.421 165.763 124.788 165.526 125.338C165.29 125.915 162.819 129.088 162.819 129.088C162.819 129.088 163.319 132.497 162.031 133.755C160.743 135.014 154.672 136.037 151.728 136.22C148.784 136.404 126.444 139.262 124.578 139.157C122.712 139.078 119.979 138.501 119.033 134.516C118.086 130.53 117.771 115.217 117.771 115.217L129.572 114.483Z" fill="#DD866F"/>
<path d="M126.05 148.937C126.05 148.937 127.154 160.474 126.05 179.721C124.947 198.967 120.268 217.4 119.716 219.577C119.164 221.779 112.278 258.62 112.278 258.62H101.529C101.529 258.62 107.6 208.852 108.152 193.723C108.704 178.593 106.233 150.274 106.233 150.274L126.05 148.937Z" fill="white"/>
<path d="M86.6519 150.3H109.518C109.518 150.3 111.305 196.003 109.518 198.153C107.73 200.277 102.343 208.878 101.528 215.485C100.713 222.093 98.479 258.645 98.479 258.645H86.6519V150.3Z" fill="white"/>
<path d="M114.302 89.8335C118.796 88.6536 121.819 90.3579 125.051 96.9918C128.021 103.075 130.229 113.59 131.28 120.329L114.197 136.612C110.912 125.887 106.601 91.8525 114.302 89.8335Z" fill="#7EA21A"/>
<path d="M103.631 88.8112C115.038 88.5752 118.691 90.2796 121.083 95.6025C123.474 100.925 130.15 157.904 130.702 167.422C130.702 167.422 126.944 170.516 113.907 170.516C100.871 170.516 82.8678 168.733 82.8678 168.733C82.8678 165.246 79.9241 109.709 80.2921 100.558C80.66 91.3809 95.0103 88.9947 103.631 88.8112Z" fill="#7EA21A"/>
<path d="M107.547 87.8682C103.526 87.8682 98.769 88.2353 96.2984 89.8347C93.2759 91.7751 102.606 103.391 112.042 101.896C121.477 100.402 119.427 94.0301 118.087 92.1946C116.168 89.5201 110.622 87.8682 107.547 87.8682Z" fill="#F69576"/>
<path d="M112.725 79.5815L115.301 96.1533L99.6367 92.6921C99.6367 92.6921 100.399 89.5718 101.266 85.2977C102.16 81.0237 102.896 79.5815 102.896 79.5815H112.725Z" fill="#F69576"/>
<path d="M105.891 84.0916C105.891 84.0916 105.759 87.1332 107.783 88.4705C109.807 89.8078 114.301 89.834 114.301 89.834L112.698 79.5815H106.101C106.127 79.5815 105.654 82.1512 105.891 84.0916Z" fill="#DD866F"/>
<path d="M114.958 59.4967C114.958 59.4967 116.929 61.1224 117.797 64.7409C118.454 67.5204 118.322 70.5096 118.664 72.1877C119.006 73.8659 119.558 76.5404 119.085 78.8479C118.612 81.1816 116.535 84.3543 112.698 85.4294C108.861 86.5044 105.707 85.7178 103.604 83.0695C101.502 80.4211 98.8734 75.6227 98.0849 72.3188C97.2964 69.015 96.797 62.617 100.424 59.9687C103.315 57.871 105.838 61.9615 109.781 60.7553C111.909 60.0736 112.882 58.107 114.958 59.4967Z" fill="#F69576"/>
<path d="M107.995 78.1652C107.995 78.1652 108.363 80.4202 109.703 80.8922C111.043 81.3642 112.41 81.0496 113.015 80.2891C113.619 79.5287 113.934 78.1128 113.934 78.1128L107.995 78.1652Z" fill="white"/>
<path d="M111.254 75.7017C111.149 75.7017 111.07 75.6754 110.991 75.623C110.834 75.4918 110.808 75.2295 110.808 75.0721C110.808 75.0459 110.808 75.0197 110.808 74.9934C110.781 75.0197 110.702 75.0721 110.597 75.177C110.492 75.3082 110.334 75.3607 110.177 75.3082C109.966 75.2557 109.809 75.0459 109.756 74.7836C109.651 74.3114 110.098 73.5507 110.124 73.472C110.15 73.4195 110.229 73.3933 110.308 73.4195C110.361 73.4458 110.387 73.5245 110.361 73.6031C110.229 73.813 109.94 74.4163 110.019 74.7311C110.072 74.941 110.177 75.0459 110.256 75.0721C110.334 75.0983 110.387 75.0459 110.413 75.0197C110.597 74.8098 110.729 74.7311 110.86 74.7311C110.939 74.7311 110.991 74.7836 111.018 74.836C111.044 74.8885 111.044 74.9672 111.07 75.0721C111.07 75.177 111.07 75.3607 111.149 75.4394C111.175 75.4656 111.254 75.4656 111.307 75.4656C111.491 75.4394 111.517 75.3082 111.491 75.0197C111.491 74.8885 111.491 74.7836 111.57 74.7049C111.596 74.6786 111.649 74.6524 111.701 74.6524C111.806 74.6524 111.885 74.7311 111.964 74.7836C112.122 74.9147 112.2 74.941 112.306 74.836C112.358 74.7836 112.384 74.6786 112.384 74.5475C112.358 74.154 112.095 73.6294 111.911 73.4982C111.859 73.4457 111.833 73.3671 111.885 73.3146C111.938 73.2621 112.017 73.2359 112.069 73.2884C112.332 73.472 112.621 74.0753 112.647 74.5213C112.647 74.7311 112.621 74.9147 112.49 75.0197C112.2 75.282 111.964 75.0983 111.806 74.9934C111.78 74.9672 111.754 74.9672 111.754 74.941C111.754 74.9672 111.754 74.9934 111.754 74.9934C111.754 75.2295 111.78 75.6492 111.333 75.7017C111.333 75.7017 111.307 75.7017 111.254 75.7017Z" fill="#6B3425"/>
<path d="M92.2247 69.88C93.4074 66.9433 102.054 69.5916 100.451 75.0194C98.7953 80.5782 90.4638 74.2065 92.2247 69.88Z" fill="#F69576"/>
<path d="M98.8208 75.7007C98.7945 75.7007 98.7682 75.7007 98.7419 75.6745C98.6894 75.622 98.6894 75.5434 98.7419 75.4909C99.0836 75.0976 99.1625 73.8652 98.7157 72.659C98.4003 71.82 97.5855 70.3516 95.7194 70.1156C94.7207 69.9845 94.0111 70.168 93.6168 70.6138C93.0386 71.2955 93.3015 72.3706 93.3015 72.3968C93.3277 72.4755 93.2752 72.5279 93.2226 72.5542C93.1438 72.5804 93.0912 72.5279 93.0649 72.4755C93.0386 72.423 92.7495 71.2431 93.4329 70.4565C93.8797 69.932 94.6681 69.7485 95.7457 69.8796C97.2176 70.0632 98.374 71.0596 98.9522 72.5804C99.399 73.7865 99.399 75.15 98.9259 75.6745C98.8996 75.6745 98.8733 75.7007 98.8208 75.7007Z" fill="#6B3425"/>
<path d="M95.7193 75.2026C95.6668 75.2026 95.6142 75.1764 95.5879 75.1239C95.5354 75.0191 94.5892 72.6329 96.0084 69.9846C96.0347 69.9322 96.1136 69.9059 96.1924 69.9322C96.245 69.9584 96.2713 70.037 96.245 70.1157C94.8783 72.6592 95.8245 75.0191 95.8245 75.0191C95.8507 75.0977 95.8245 75.1502 95.7456 75.1764C95.7456 75.2026 95.7456 75.2026 95.7193 75.2026Z" fill="#6B3425"/>
<path d="M107.075 73.1582C107.336 73.1582 107.548 72.7354 107.548 72.2139C107.548 71.6923 107.336 71.2695 107.075 71.2695C106.813 71.2695 106.602 71.6923 106.602 72.2139C106.602 72.7354 106.813 73.1582 107.075 73.1582Z" fill="#6B3425"/>
<path d="M104.894 69.6974C105.262 69.3826 106.024 68.9892 106.812 68.9105C107.68 68.8318 108.179 69.199 108.521 69.3039C108.862 69.3826 108.915 68.9105 108.731 68.517C108.547 68.1235 107.811 67.8087 106.628 67.8612C105.446 67.9137 104.789 68.4383 104.473 68.8055C104.132 69.1203 104.394 70.1434 104.894 69.6974Z" fill="#A5713D"/>
<path d="M114.382 72.9229C114.643 72.9229 114.855 72.5001 114.855 71.9785C114.855 71.457 114.643 71.0342 114.382 71.0342C114.12 71.0342 113.908 71.457 113.908 71.9785C113.908 72.5001 114.12 72.9229 114.382 72.9229Z" fill="#6B3425"/>
<path d="M112.647 69.3561C113.015 69.0413 113.777 68.6479 114.565 68.5692C115.433 68.4905 115.932 68.8577 116.274 68.9626C116.615 69.0413 116.668 68.5692 116.484 68.1757C116.3 67.7822 115.564 67.4674 114.381 67.5199C113.199 67.5724 112.542 68.097 112.226 68.4642C111.911 68.8315 112.121 69.7758 112.647 69.3561Z" fill="#A5713D"/>
<g opacity="0.6">
<path d="M146.052 149.986C153.731 149.986 159.956 147.896 159.956 145.318C159.956 142.741 153.731 140.651 146.052 140.651C138.374 140.651 132.149 142.741 132.149 145.318C132.149 147.896 138.374 149.986 146.052 149.986Z" fill="#8CA9D0"/>
<path d="M167.026 100.218H125.079C125.079 100.218 117.615 109.631 118.877 124.079C120.27 140.021 131.755 143.273 132.754 144.977C133.148 145.659 141.795 146.996 145.974 146.996C146 146.996 146.026 146.996 146.053 146.996C146.079 146.996 146.105 146.996 146.131 146.996C150.31 146.996 158.957 145.659 159.352 144.977C160.35 143.273 171.836 140.048 173.229 124.079C174.49 109.631 167.026 100.218 167.026 100.218ZM171.336 123.712C170.154 137.924 157.38 144.636 146.21 144.846C135.04 145.03 122.162 138.973 120.979 124.761C120.611 120.251 121.925 112.647 121.925 112.647L170.469 112.358C170.469 112.358 171.704 119.149 171.336 123.712Z" fill="white"/>
</g>
<path opacity="0.5" d="M121.925 112.62C121.925 112.62 120.611 120.198 120.979 124.735C122.162 138.946 135.014 145.003 146.21 144.82C157.38 144.636 170.153 137.924 171.336 123.686C171.704 119.123 170.495 112.332 170.495 112.332L121.925 112.62Z" fill="#4A90A8"/>
<path d="M123.607 131.604C123.344 130.32 126.446 128.379 129.127 128.379C131.965 128.379 131.361 130.949 133.936 130.949C136.643 130.949 137.931 129.795 140.586 129.743C143.608 129.69 143.319 132.837 145.553 132.837C148.024 132.837 148.365 128.93 152.571 128.956C156.355 128.982 155.54 133.519 158.064 133.519C160.666 133.519 159.246 125.888 162.663 125.941C166.185 125.993 168.471 130.215 168.025 132.05C167.394 134.646 160.376 143.981 146.105 144.164C132.727 144.348 124.369 135.249 123.607 131.604Z" fill="#DBAC73"/>
<path d="M134.882 120.984C134.882 121.588 134.409 122.06 133.804 122.06C133.2 122.06 132.727 121.588 132.727 120.984C132.727 120.381 133.2 119.909 133.804 119.909C134.409 119.909 134.882 120.381 134.882 120.984Z" fill="white"/>
<path d="M135.514 124.604C135.848 124.604 136.118 124.334 136.118 124C136.118 123.667 135.848 123.397 135.514 123.397C135.18 123.397 134.909 123.667 134.909 124C134.909 124.334 135.18 124.604 135.514 124.604Z" fill="white"/>
<path d="M126.104 115.401C126.104 115.873 125.736 116.24 125.263 116.24C124.79 116.24 124.422 115.873 124.422 115.401C124.422 114.929 124.79 114.562 125.263 114.562C125.736 114.562 126.104 114.929 126.104 115.401Z" fill="white"/>
<path d="M157.538 120.329C157.538 120.88 157.091 121.326 156.54 121.326C155.988 121.326 155.541 120.88 155.541 120.329C155.541 119.778 155.988 119.332 156.54 119.332C157.091 119.332 157.538 119.778 157.538 120.329Z" fill="white"/>
<path d="M158.142 119.096C158.447 119.096 158.694 118.85 158.694 118.545C158.694 118.241 158.447 117.995 158.142 117.995C157.837 117.995 157.59 118.241 157.59 118.545C157.59 118.85 157.837 119.096 158.142 119.096Z" fill="white"/>
<path d="M169.076 117.551C169.468 117.551 169.786 117.234 169.786 116.843C169.786 116.451 169.468 116.134 169.076 116.134C168.684 116.134 168.366 116.451 168.366 116.843C168.366 117.234 168.684 117.551 169.076 117.551Z" fill="white"/>
<path d="M160.534 115.845C160.692 115.426 161.611 116.685 162.032 117.183C162.453 117.681 163.977 116.842 163.924 117.314C163.898 117.786 162.584 118.468 162.689 119.018C162.82 119.569 164.608 118.677 164.634 119.176C164.66 119.674 162.82 120.88 163.004 121.063C163.162 121.273 164.765 120.591 164.713 120.906C164.66 121.221 163.399 121.64 163.583 122.191C163.767 122.768 165.054 121.771 165.133 122.479C165.238 123.187 164.213 123.161 164.45 123.528C164.687 123.895 165.422 123.187 165.475 123.528C165.528 123.869 164.66 124.158 165.081 124.551C165.501 124.918 166.763 123.528 166.789 124.394C166.815 125.259 166.263 125.18 165.896 125.626C165.528 126.072 165.449 126.386 166.001 126.57C166.553 126.753 167.183 127.121 166.842 127.252C166.5 127.409 165.685 127.566 165.554 128.117C165.396 128.641 166.815 129.087 166.553 129.428C166.29 129.769 165.475 129.349 165.37 129.821C165.291 130.267 166.316 130.555 166.079 130.844C165.843 131.132 164.765 130.634 164.713 131.027C164.66 131.421 165.712 131.971 165.501 132.26C165.291 132.522 164.292 131.762 164.056 132.286C163.819 132.81 165.054 133.02 164.923 133.151C164.792 133.309 163.898 132.81 163.793 133.178C163.688 133.545 164.634 133.728 164.529 133.964C164.45 134.2 163.53 133.754 163.372 134.017C163.215 134.279 163.951 134.934 163.714 135.328C163.478 135.721 162.085 135.302 162.111 135.747C162.163 136.193 163.188 136.377 163.004 136.56C162.82 136.744 161.427 136.665 161.48 137.058C161.533 137.452 162.19 137.635 162.085 137.845C162.006 138.081 160.954 137.661 160.928 138.028C160.902 138.422 160.56 139.785 160.56 139.785C160.56 139.785 160.56 138.107 160.665 137.793C160.77 137.478 160.061 136.665 160.166 136.429C160.271 136.193 161.086 137.006 161.165 136.717C161.244 136.455 160.586 136.245 160.77 135.826C160.954 135.406 161.611 135.642 161.664 135.433C161.717 135.223 160.981 134.62 161.138 134.305C161.296 134.017 162.347 134.83 162.426 134.672C162.505 134.489 161.822 133.807 161.979 133.571C162.137 133.309 162.558 133.728 162.663 133.65C162.768 133.571 161.454 132.784 161.795 132.207C162.137 131.631 163.004 133.073 163.162 132.81C163.32 132.548 162.663 131.971 162.82 131.709C162.978 131.447 163.53 132.181 163.635 131.893C163.74 131.604 163.372 130.293 163.556 130.11C163.74 129.926 164.45 130.739 164.66 130.031C164.871 129.323 163.32 128.72 163.478 128.222C163.635 127.724 164.739 128.3 164.87 127.881C165.002 127.435 163.793 126.78 163.845 126.622C163.924 126.465 165.238 127.121 165.107 126.465C164.976 125.809 164.082 125.862 164.029 125.626C163.977 125.416 164.818 125.285 164.739 125.075C164.66 124.866 163.635 124.97 163.478 124.525C163.32 124.079 163.767 124.026 163.609 123.764C163.451 123.502 162.058 124.315 161.979 123.843C161.874 123.371 163.267 122.846 163.057 122.322C162.847 121.798 160.981 122.846 161.007 122.348C161.033 121.876 162.61 121.483 162.374 120.906C162.137 120.303 160.823 121.221 160.718 120.854C160.613 120.487 161.874 120.303 161.69 119.857C161.506 119.412 160.324 120.198 160.429 119.543C160.534 118.887 162.032 118.913 161.927 118.546C161.822 118.179 161.401 118.363 161.401 118.074C161.375 117.812 161.769 117.917 161.822 117.655C161.927 117.524 160.245 116.58 160.534 115.845Z" fill="#7EA21A"/>
<path d="M143.24 140.52C143.661 140.048 144.686 139.497 146.157 139.995C147.603 140.52 149.022 141.018 148.838 141.49C148.654 141.962 145.973 142.565 144.975 142.486C144.002 142.381 142.294 141.595 143.24 140.52Z" fill="#A5713D"/>
<path d="M148.181 139.445C148.181 138.789 150.152 139.34 150.205 139.76C150.257 140.179 148.181 140.468 148.181 139.445Z" fill="#A5713D"/>
<path d="M151.178 142.488C151.046 142.225 152.886 141.15 153.333 141.832C153.806 142.488 151.861 143.694 151.178 142.488Z" fill="#A5713D"/>
<path d="M135.619 140.18C135.619 139.786 138.589 141.072 138.063 141.544C137.537 142.016 135.671 141.544 135.619 140.18Z" fill="#A5713D"/>
<path d="M144.002 143.377C143.87 143.089 145.92 142.827 146.025 143.194C146.104 143.561 144.422 144.269 144.002 143.377Z" fill="#A5713D"/>
<path d="M142.951 138.868C142.662 138.448 144.028 137.923 144.186 138.395C144.317 138.868 143.24 139.287 142.951 138.868Z" fill="#A5713D"/>
<path d="M157.301 140.651C156.933 140.232 159.194 138.684 159.43 139.156C159.667 139.628 158.064 141.491 157.301 140.651Z" fill="#A5713D"/>
<path d="M158.116 138.631C158.063 138.972 159.614 138.631 159.666 138.264C159.719 137.87 158.247 137.739 158.116 138.631Z" fill="#A5713D"/>
<path d="M140.979 126.098C140.769 124.157 137.247 123.082 137.247 121.902C137.247 120.329 138.956 120.512 139.613 118.441C140.27 116.396 137.668 115.032 137.668 115.032C138.798 116.317 138.614 116.789 137.747 117.759C138.193 117.995 138.719 118.415 138.377 118.887C138.036 119.359 137.247 119.175 136.695 118.965C136.669 118.965 136.643 118.939 136.616 118.939C136.38 119.201 136.143 119.464 135.881 119.778C134.409 121.561 138.088 123.187 138.088 125.862C138.088 129.349 135.092 133.964 135.092 133.964H140.638C140.638 133.964 139.402 132.417 139.402 130.922C139.376 129.375 141.321 129.008 140.979 126.098ZM138.772 127.671C138.798 127.094 139.245 126.281 139.928 126.281C140.165 126.281 140.296 126.412 140.322 126.622C140.243 127.304 139.718 128.221 139.192 128.274C138.903 128.274 138.772 128.012 138.772 127.671Z" fill="#4E5E0A"/>
<path d="M146.211 125.443C146.106 124.42 147.315 123.738 147.052 122.768C146.763 121.798 143.767 121.405 143.636 120.434C143.452 119.123 144.109 118.389 144.109 118.389C144.109 118.389 141.06 120.094 141.06 121.326C141.06 122.899 142.453 123.24 142.532 125.076C142.637 126.911 139.956 129.376 140.14 130.608C140.324 131.841 141.717 134.096 141.717 134.096H146.343H147.184C147.184 134.096 145.423 131.972 145.712 131.028C146.001 130.058 148.472 128.851 148.577 127.671C148.603 126.544 146.29 126.465 146.211 125.443ZM146.211 127.278C146.448 127.435 146.553 127.619 146.579 127.829C146.553 128.484 145.344 129.245 144.293 129.612C143.215 129.979 142.979 130.031 142.979 129.664C142.979 129.533 143.005 129.402 143.005 129.271C143.058 128.51 144.845 126.439 146.211 127.278ZM142.952 122.375C142.9 122.086 143.268 121.981 143.715 122.034C144.214 122.139 144.792 122.453 144.897 122.925C145.081 123.817 144.24 124.708 143.688 124.63C143.136 124.551 143.32 123.528 142.952 122.453C142.979 122.427 142.952 122.401 142.952 122.375Z" fill="#4E5E0A"/>
<path d="M129.521 128.065C129.521 128.012 129.495 127.96 129.495 127.908C129.39 126.597 130.599 126.072 131.256 125.233C131.808 124.525 131.413 124.027 130.599 123.214C130.257 123.293 129.915 123.293 129.679 123.109C129.416 122.873 129.547 122.558 129.784 122.322C129.206 121.352 129.758 120.435 129.758 120.435C126.814 122.821 129.942 123.791 130.31 124.735C130.678 125.705 129.022 126.046 127.918 127.672C126.814 129.324 128.023 129.927 128.759 130.949C129.495 131.972 129.127 134.096 129.127 134.096H132.071H132.439C132.465 131.657 129.81 130.11 129.521 128.065ZM128.049 128.642C127.97 128.432 128.023 128.275 128.207 128.17C128.654 127.96 129.048 128.327 129.258 128.747C129.39 129.035 129.416 129.324 129.311 129.481C129.101 129.795 128.338 129.192 128.049 128.642Z" fill="#4E5E0A"/>
<path d="M147.498 133.519C147.13 133.047 145.842 132.155 144.817 132.496C142.61 133.256 142.137 132.916 140.717 133.335C140.665 133.256 140.612 133.204 140.56 133.125C140.192 132.365 138.799 130.792 138.168 129.979C137.511 129.166 136.302 128.668 135.855 129.166C135.04 130.11 134.567 131.264 134.331 132.26C134.199 132.181 134.068 132.103 133.91 132.05C132.99 131.631 131.597 131.447 130.493 131.5C129.39 131.578 128.549 132.522 128.365 133.073C128.181 133.624 128.365 134.567 129.574 134.515C130.546 134.463 132.938 134.515 134.331 134.331C134.778 134.62 136.854 134.515 139.456 134.436C139.482 134.541 139.535 134.62 139.64 134.62C140.008 134.62 147.104 134.541 147.498 134.489C147.893 134.436 147.866 133.991 147.498 133.519Z" fill="#DBAC73"/>
<path d="M147.499 114.009C147.499 114.009 149.313 113.852 150.049 115.006C150.784 116.159 151.468 118.047 151.468 118.047L146.527 120.171C146.527 120.171 146.448 119.699 146.185 119.778C145.922 119.856 144.529 120.302 144.529 120.302C144.529 120.302 144.424 119.096 145.607 117.628C146.816 116.133 147.079 116.264 147.499 115.818C147.92 115.399 147.499 114.009 147.499 114.009Z" fill="#FFA300"/>
<path d="M145.528 120.563L146.316 122.347C146.316 122.347 145.975 122.53 145.738 123.212C145.502 123.894 145.291 126.017 144.004 127.302C142.716 128.587 140.955 128.823 139.72 128.508C138.484 128.194 138.169 127.748 138.169 127.748C138.169 127.748 141.533 126.017 141.349 125.178C141.165 124.339 140.797 123.448 139.194 122.976C137.591 122.504 136.014 121.271 136.014 121.271C136.014 121.271 137.065 121.035 139.825 121.114C142.584 121.167 144.871 121.324 145.528 120.563Z" fill="#FFA300"/>
<path d="M147.498 122.583C147.498 122.583 147.577 123.239 147.235 124.445C146.894 125.651 146.237 127.041 145.79 126.936C145.369 126.831 146.053 124.786 145.974 124.34C145.895 123.894 145.659 123.658 145.921 123.37C146.184 123.082 147.025 122.295 147.025 122.295L147.498 122.583Z" fill="#FFA300"/>
<path d="M151.441 123.003C151.441 123.003 151.651 123.947 151.151 125.153C150.652 126.359 148.733 127.88 148.471 127.801C148.208 127.723 149.128 126.228 148.996 125.782C148.865 125.337 148.155 124.393 148.681 123.816C149.206 123.239 151.441 123.003 151.441 123.003Z" fill="#FFA300"/>
<path d="M153.675 122.845C153.675 122.845 153.333 123.526 153.438 123.893C153.543 124.261 154.253 125.047 153.727 125.545C153.727 125.545 153.307 124.654 153.018 124.575C152.729 124.497 152.571 124.47 152.65 123.92C152.729 123.369 153.176 122.818 153.176 122.818H153.675V122.845Z" fill="#FFA300"/>
<path d="M145.659 121.693C145.58 121.3 144.975 121.221 145.08 120.932C145.185 120.644 147.525 118.546 149.627 117.943C151.73 117.366 154.779 118.205 156.04 118.756C157.302 119.307 157.985 119.91 157.932 120.303C157.88 120.696 157.932 121.037 157.013 121.693C156.093 122.322 152.439 123.738 150.784 123.633C149.154 123.528 145.816 122.611 145.685 122.401C145.553 122.191 145.737 122.191 145.659 121.693Z" fill="#FF6D00"/>
<path d="M155.699 120.041C155.801 120.041 155.883 119.877 155.883 119.674C155.883 119.471 155.801 119.307 155.699 119.307C155.598 119.307 155.515 119.471 155.515 119.674C155.515 119.877 155.598 120.041 155.699 120.041Z" fill="black"/>
<path d="M99.1109 121.693L99.1897 136.586C99.1897 136.586 117.036 136.796 118.192 136.508C119.348 136.219 125.104 131.657 125.709 131.421C126.313 131.185 126.892 131.421 126.655 132.103C126.418 132.784 125.525 134.987 125.525 134.987C125.525 134.987 129.888 134.489 130.308 134.253C130.702 134.017 133.331 131.998 133.856 131.814C134.408 131.631 135.302 131.998 135.065 132.548C134.829 133.125 132.358 136.298 132.358 136.298C132.358 136.298 132.858 139.707 131.57 140.965C130.282 142.224 124.211 143.247 121.267 143.43C118.323 143.614 95.9833 146.472 94.1172 146.367C92.2512 146.288 89.5178 145.711 88.5716 141.726C87.6254 137.74 87.3101 122.427 87.3101 122.427L99.1109 121.693Z" fill="#F69576"/>
</svg>
