<svg width="375" height="308" viewBox="0 0 375 308" fill="none" xmlns="http://www.w3.org/2000/svg">
<path d="M169.758 54.3854C187.92 57.8203 222.139 -12.2948 260.013 3.1756C297.886 18.646 270.052 68.4923 283.562 79.6625C297.071 90.8327 334.077 56.4568 349.636 92.5633C365.195 128.67 341.541 167.346 341.199 173.35C340.857 179.355 383.856 211.633 371.923 256.078C359.991 300.523 201.534 304.823 144.974 306.527C88.4141 308.232 12.7993 308.101 1.65555 261.768C-9.48823 215.435 41.1319 175.081 45.8102 162.128C50.4884 149.175 8.14733 104.101 61.238 48.6954C102.318 5.82393 151.597 50.9504 169.758 54.3854Z" fill="#9ECBDD"/>
<path d="M1.7083 261.743C12.8521 308.075 88.4931 308.233 145.027 306.502C201.56 304.772 360.018 300.498 371.976 256.053C380.098 225.82 362.804 201.198 351.003 186.672L326.718 157.96L294.39 172.067L244.716 141.703L205.529 170.231L163.109 112.702L135.749 147.026L108.31 137.901L27.2286 186.672C12.1424 205.761 -5.33541 232.559 1.7083 261.743Z" fill="#749DC1"/>
<path d="M161.481 153.843L157.17 184.732L154.227 184.286L161.06 153.765L161.481 153.843Z" fill="white"/>
<path d="M159.482 164.043L167.288 170.494L167.209 170.94L159.14 165.748L159.482 164.043Z" fill="white"/>
<path d="M157.931 185.284L153.305 184.576L153.489 183.736L158.088 184.445L157.931 185.284Z" fill="#DFFAF5"/>
<path d="M159.482 164.043L149.678 167.793L149.6 168.239L159.14 165.748L159.482 164.043Z" fill="white"/>
<path d="M159.824 162.339L156.46 184.182L154.883 183.946L159.824 162.339Z" fill="white"/>
<path d="M132.096 160.714L133.227 184.575L130.966 184.627L131.781 160.74L132.096 160.714Z" fill="white"/>
<path d="M132.043 168.685L138.85 172.434L138.824 172.775L132.043 169.996V168.685Z" fill="white"/>
<path d="M133.882 184.863L130.308 184.994V184.338L133.882 184.207V184.863Z" fill="#DFFAF5"/>
<path d="M132.043 168.685L125.21 172.88V173.221L132.043 169.996V168.685Z" fill="white"/>
<path d="M132.069 167.348L132.621 184.26L131.412 184.286L132.069 167.348Z" fill="white"/>
<path d="M357.888 195.717C346.114 191.023 325.64 179.748 305.429 179.145C271.13 178.149 235.254 204.999 235.254 204.999C235.254 204.999 164.292 172.066 72.4343 179.145C50.4884 180.85 32.9579 188.218 20.1321 196.084C7.30622 214.124 -4.2318 237.094 1.68177 261.742C12.8255 308.074 88.4666 308.232 145 306.501C201.534 304.77 359.991 300.496 371.95 256.052C378.573 231.404 368.296 210.479 357.888 195.717Z" fill="#99CC66"/>
<mask id="mask0_131_9604" style="mask-type:luminance" maskUnits="userSpaceOnUse" x="0" y="178" width="375" height="130">
<path d="M357.888 195.717C346.114 191.023 325.64 179.748 305.429 179.145C271.13 178.149 235.254 204.999 235.254 204.999C235.254 204.999 164.292 172.066 72.4343 179.145C50.4884 180.85 32.9579 188.218 20.1321 196.084C7.30622 214.124 -4.2318 237.094 1.68177 261.742C12.8255 308.074 88.4666 308.232 145 306.501C201.534 304.77 359.991 300.496 371.95 256.052C378.573 231.404 368.296 210.479 357.888 195.717Z" fill="white"/>
</mask>
<g mask="url(#mask0_131_9604)">
<path d="M42.0786 152.453H30.6458V324.726H42.0786V152.453Z" fill="#7EA21A"/>
</g>
<mask id="mask1_131_9604" style="mask-type:luminance" maskUnits="userSpaceOnUse" x="0" y="178" width="375" height="130">
<path d="M357.888 195.717C346.114 191.023 325.64 179.748 305.429 179.145C271.13 178.149 235.254 204.999 235.254 204.999C235.254 204.999 164.292 172.066 72.4343 179.145C50.4884 180.85 32.9579 188.218 20.1321 196.084C7.30622 214.124 -4.2318 237.094 1.68177 261.742C12.8255 308.074 88.4666 308.232 145 306.501C201.534 304.77 359.991 300.496 371.95 256.052C378.573 231.404 368.296 210.479 357.888 195.717Z" fill="white"/>
</mask>
<g mask="url(#mask1_131_9604)">
<path d="M65.443 152.453H54.0101V324.726H65.443V152.453Z" fill="#7EA21A"/>
</g>
<mask id="mask2_131_9604" style="mask-type:luminance" maskUnits="userSpaceOnUse" x="0" y="178" width="375" height="130">
<path d="M357.888 195.717C346.114 191.023 325.64 179.748 305.429 179.145C271.13 178.149 235.254 204.999 235.254 204.999C235.254 204.999 164.292 172.066 72.4343 179.145C50.4884 180.85 32.9579 188.218 20.1321 196.084C7.30622 214.124 -4.2318 237.094 1.68177 261.742C12.8255 308.074 88.4666 308.232 145 306.501C201.534 304.77 359.991 300.496 371.95 256.052C378.573 231.404 368.296 210.479 357.888 195.717Z" fill="white"/>
</mask>
<g mask="url(#mask2_131_9604)">
<path d="M87.5461 152.453H76.1132V324.726H87.5461V152.453Z" fill="#7EA21A"/>
</g>
<mask id="mask3_131_9604" style="mask-type:luminance" maskUnits="userSpaceOnUse" x="0" y="178" width="375" height="130">
<path d="M357.888 195.717C346.114 191.023 325.64 179.748 305.429 179.145C271.13 178.149 235.254 204.999 235.254 204.999C235.254 204.999 164.292 172.066 72.4343 179.145C50.4884 180.85 32.9579 188.218 20.1321 196.084C7.30622 214.124 -4.2318 237.094 1.68177 261.742C12.8255 308.074 88.4666 308.232 145 306.501C201.534 304.77 359.991 300.496 371.95 256.052C378.573 231.404 368.296 210.479 357.888 195.717Z" fill="white"/>
</mask>
<g mask="url(#mask3_131_9604)">
<path d="M110.913 152.453H99.4797V324.726H110.913V152.453Z" fill="#7EA21A"/>
</g>
<mask id="mask4_131_9604" style="mask-type:luminance" maskUnits="userSpaceOnUse" x="0" y="178" width="375" height="130">
<path d="M357.888 195.717C346.114 191.023 325.64 179.748 305.429 179.145C271.13 178.149 235.254 204.999 235.254 204.999C235.254 204.999 164.292 172.066 72.4343 179.145C50.4884 180.85 32.9579 188.218 20.1321 196.084C7.30622 214.124 -4.2318 237.094 1.68177 261.742C12.8255 308.074 88.4666 308.232 145 306.501C201.534 304.77 359.991 300.496 371.95 256.052C378.573 231.404 368.296 210.479 357.888 195.717Z" fill="white"/>
</mask>
<g mask="url(#mask4_131_9604)">
<path d="M134.067 152.453H122.634V324.726H134.067V152.453Z" fill="#7EA21A"/>
</g>
<mask id="mask5_131_9604" style="mask-type:luminance" maskUnits="userSpaceOnUse" x="0" y="178" width="375" height="130">
<path d="M357.888 195.717C346.114 191.023 325.64 179.748 305.429 179.145C271.13 178.149 235.254 204.999 235.254 204.999C235.254 204.999 164.292 172.066 72.4343 179.145C50.4884 180.85 32.9579 188.218 20.1321 196.084C7.30622 214.124 -4.2318 237.094 1.68177 261.742C12.8255 308.074 88.4666 308.232 145 306.501C201.534 304.77 359.991 300.496 371.95 256.052C378.573 231.404 368.296 210.479 357.888 195.717Z" fill="white"/>
</mask>
<g mask="url(#mask5_131_9604)">
<path d="M157.431 152.453H145.998V324.726H157.431V152.453Z" fill="#7EA21A"/>
</g>
<mask id="mask6_131_9604" style="mask-type:luminance" maskUnits="userSpaceOnUse" x="0" y="178" width="375" height="130">
<path d="M357.888 195.717C346.114 191.023 325.64 179.748 305.429 179.145C271.13 178.149 235.254 204.999 235.254 204.999C235.254 204.999 164.292 172.066 72.4343 179.145C50.4884 180.85 32.9579 188.218 20.1321 196.084C7.30622 214.124 -4.2318 237.094 1.68177 261.742C12.8255 308.074 88.4666 308.232 145 306.501C201.534 304.77 359.991 300.496 371.95 256.052C378.573 231.404 368.296 210.479 357.888 195.717Z" fill="white"/>
</mask>
<g mask="url(#mask6_131_9604)">
<path d="M179.536 152.453H168.103V324.726H179.536V152.453Z" fill="#7EA21A"/>
</g>
<mask id="mask7_131_9604" style="mask-type:luminance" maskUnits="userSpaceOnUse" x="0" y="178" width="375" height="130">
<path d="M357.888 195.717C346.114 191.023 325.64 179.748 305.429 179.145C271.13 178.149 235.254 204.999 235.254 204.999C235.254 204.999 164.292 172.066 72.4343 179.145C50.4884 180.85 32.9579 188.218 20.1321 196.084C7.30622 214.124 -4.2318 237.094 1.68177 261.742C12.8255 308.074 88.4666 308.232 145 306.501C201.534 304.77 359.991 300.496 371.95 256.052C378.573 231.404 368.296 210.479 357.888 195.717Z" fill="white"/>
</mask>
<g mask="url(#mask7_131_9604)">
<path d="M202.901 152.453H191.468V324.726H202.901V152.453Z" fill="#7EA21A"/>
</g>
<mask id="mask8_131_9604" style="mask-type:luminance" maskUnits="userSpaceOnUse" x="0" y="178" width="375" height="130">
<path d="M357.888 195.717C346.114 191.023 325.64 179.748 305.429 179.145C271.13 178.149 235.254 204.999 235.254 204.999C235.254 204.999 164.292 172.066 72.4343 179.145C50.4884 180.85 32.9579 188.218 20.1321 196.084C7.30622 214.124 -4.2318 237.094 1.68177 261.742C12.8255 308.074 88.4666 308.232 145 306.501C201.534 304.77 359.991 300.496 371.95 256.052C378.573 231.404 368.296 210.479 357.888 195.717Z" fill="white"/>
</mask>
<g mask="url(#mask8_131_9604)">
<path d="M226.055 152.453H214.622V324.726H226.055V152.453Z" fill="#7EA21A"/>
</g>
<mask id="mask9_131_9604" style="mask-type:luminance" maskUnits="userSpaceOnUse" x="0" y="178" width="375" height="130">
<path d="M357.888 195.717C346.114 191.023 325.64 179.748 305.429 179.145C271.13 178.149 235.254 204.999 235.254 204.999C235.254 204.999 164.292 172.066 72.4343 179.145C50.4884 180.85 32.9579 188.218 20.1321 196.084C7.30622 214.124 -4.2318 237.094 1.68177 261.742C12.8255 308.074 88.4666 308.232 145 306.501C201.534 304.77 359.991 300.496 371.95 256.052C378.573 231.404 368.296 210.479 357.888 195.717Z" fill="white"/>
</mask>
<g mask="url(#mask9_131_9604)">
<path d="M249.421 152.453H237.988V324.726H249.421V152.453Z" fill="#7EA21A"/>
</g>
<mask id="mask10_131_9604" style="mask-type:luminance" maskUnits="userSpaceOnUse" x="0" y="178" width="375" height="130">
<path d="M357.888 195.717C346.114 191.023 325.64 179.748 305.429 179.145C271.13 178.149 235.254 204.999 235.254 204.999C235.254 204.999 164.292 172.066 72.4343 179.145C50.4884 180.85 32.9579 188.218 20.1321 196.084C7.30622 214.124 -4.2318 237.094 1.68177 261.742C12.8255 308.074 88.4666 308.232 145 306.501C201.534 304.77 359.991 300.496 371.95 256.052C378.573 231.404 368.296 210.479 357.888 195.717Z" fill="white"/>
</mask>
<g mask="url(#mask10_131_9604)">
<path d="M271.524 152.453H260.092V324.726H271.524V152.453Z" fill="#7EA21A"/>
</g>
<mask id="mask11_131_9604" style="mask-type:luminance" maskUnits="userSpaceOnUse" x="0" y="178" width="375" height="130">
<path d="M357.888 195.717C346.114 191.023 325.64 179.748 305.429 179.145C271.13 178.149 235.254 204.999 235.254 204.999C235.254 204.999 164.292 172.066 72.4343 179.145C50.4884 180.85 32.9579 188.218 20.1321 196.084C7.30622 214.124 -4.2318 237.094 1.68177 261.742C12.8255 308.074 88.4666 308.232 145 306.501C201.534 304.77 359.991 300.496 371.95 256.052C378.573 231.404 368.296 210.479 357.888 195.717Z" fill="white"/>
</mask>
<g mask="url(#mask11_131_9604)">
<path d="M294.889 152.453H283.456V324.726H294.889V152.453Z" fill="#7EA21A"/>
</g>
<mask id="mask12_131_9604" style="mask-type:luminance" maskUnits="userSpaceOnUse" x="0" y="178" width="375" height="130">
<path d="M357.888 195.717C346.114 191.023 325.64 179.748 305.429 179.145C271.13 178.149 235.254 204.999 235.254 204.999C235.254 204.999 164.292 172.066 72.4343 179.145C50.4884 180.85 32.9579 188.218 20.1321 196.084C7.30622 214.124 -4.2318 237.094 1.68177 261.742C12.8255 308.074 88.4666 308.232 145 306.501C201.534 304.77 359.991 300.496 371.95 256.052C378.573 231.404 368.296 210.479 357.888 195.717Z" fill="white"/>
</mask>
<g mask="url(#mask12_131_9604)">
<path d="M318.045 152.453H306.612V324.726H318.045V152.453Z" fill="#7EA21A"/>
</g>
<mask id="mask13_131_9604" style="mask-type:luminance" maskUnits="userSpaceOnUse" x="0" y="178" width="375" height="130">
<path d="M357.888 195.717C346.114 191.023 325.64 179.748 305.429 179.145C271.13 178.149 235.254 204.999 235.254 204.999C235.254 204.999 164.292 172.066 72.4343 179.145C50.4884 180.85 32.9579 188.218 20.1321 196.084C7.30622 214.124 -4.2318 237.094 1.68177 261.742C12.8255 308.074 88.4666 308.232 145 306.501C201.534 304.77 359.991 300.496 371.95 256.052C378.573 231.404 368.296 210.479 357.888 195.717Z" fill="white"/>
</mask>
<g mask="url(#mask13_131_9604)">
<path d="M341.409 152.453H329.977V324.726H341.409V152.453Z" fill="#7EA21A"/>
</g>
<mask id="mask14_131_9604" style="mask-type:luminance" maskUnits="userSpaceOnUse" x="0" y="178" width="375" height="130">
<path d="M357.888 195.717C346.114 191.023 325.64 179.748 305.429 179.145C271.13 178.149 235.254 204.999 235.254 204.999C235.254 204.999 164.292 172.066 72.4343 179.145C50.4884 180.85 32.9579 188.218 20.1321 196.084C7.30622 214.124 -4.2318 237.094 1.68177 261.742C12.8255 308.074 88.4666 308.232 145 306.501C201.534 304.77 359.991 300.496 371.95 256.052C378.573 231.404 368.296 210.479 357.888 195.717Z" fill="white"/>
</mask>
<g mask="url(#mask14_131_9604)">
<path d="M363.512 152.453H352.08V324.726H363.512V152.453Z" fill="#7EA21A"/>
</g>
<path d="M12.5885 207.7C3.33707 223.564 -3.04958 242.128 1.68127 261.742C12.8251 308.074 88.4661 308.232 145 306.501C201.533 304.771 359.991 300.497 371.949 256.052C376.943 237.461 372.317 220.994 365.3 207.7H12.5885Z" fill="#96C22F"/>
<path d="M318.623 161.211C318.623 161.211 329.504 156.622 334.603 166.297C339.702 175.973 330.976 182.135 326.613 182.423C322.25 182.712 317.729 181.243 314.602 182.528C311.474 183.787 305.482 189.66 298.622 189.372C291.762 189.084 285.349 183.734 283.93 172.826C281.565 155.049 296.677 157.094 296.677 157.094C296.677 157.094 292.262 142.725 300.803 137.926C309.319 133.128 318.833 137.428 321.672 144.481C324.51 151.535 318.623 161.211 318.623 161.211Z" fill="#96C22F"/>
<path d="M310.582 149.49C310.582 149.49 310.976 158.877 309.399 161.604C307.822 164.331 305.378 166.874 305.588 167.477C305.772 168.054 314.209 184.416 316.653 190.264C319.097 196.111 318.624 197.973 318.02 199.257C317.441 200.516 317.625 210.192 317.625 210.192H311.265C311.265 210.192 311.344 203.269 312.027 200.411C312.737 197.579 313.604 197.579 313.315 196.216C313.026 194.852 302.04 169.129 303.012 166.769C303.985 164.41 307.217 163.754 308.111 160.529C309.031 157.304 310.582 149.49 310.582 149.49Z" fill="#6B3425"/>
<path d="M322.461 170.204C322.461 170.204 316.863 175.396 315.496 177.625C314.13 179.88 312.027 183.97 312.027 183.97L314.024 186.907C314.024 186.907 316.048 179.67 317.257 178.018C318.466 176.366 322.461 170.204 322.461 170.204Z" fill="#6B3425"/>
<path d="M289.423 169.522C289.423 169.522 295.205 173.036 299.016 173.927C302.827 174.819 307.347 175.5 307.347 175.5L308.53 178.568C308.53 178.568 290.106 174.111 289.423 169.522Z" fill="#6B3425"/>
<path d="M233.257 112.912C233.257 112.912 229.998 106.618 237.41 105.91C236.648 100.902 243.902 93.3506 256.491 96.5758C258.62 91.1218 270.631 81.4987 278.989 93.2195C294.916 86.5593 297.176 96.1562 295.047 97.8868C307.4 95.658 305.219 104.101 303.142 105.045C319.49 101.558 317.23 112.912 317.23 112.912H233.257Z" fill="white"/>
<path d="M86.8648 58.5808C86.8648 58.5808 85.4981 55.0934 88.5994 54.7001C88.284 51.9206 91.3065 47.7515 96.563 49.5345C97.4566 46.5191 102.477 41.1962 105.946 47.6728C112.595 43.9756 113.541 49.2985 112.648 50.2425C117.799 49.0101 116.906 53.6774 116.012 54.2019C122.846 52.2615 121.899 58.5546 121.899 58.5546H86.8648V58.5808Z" fill="white"/>
<path d="M250.419 66.9985H61.3169V71.6134H250.419V66.9985Z" fill="#6D2F00"/>
<path d="M55.7449 68.6763C55.0353 62.9601 68.2817 64.4023 69.99 68.6763C71.6984 72.9503 73.4067 89.994 71.9875 112.728C70.5682 135.461 71.4093 156.779 68.5708 168.421C65.7323 180.063 67.9925 194.564 68.5708 207.648C69.149 220.732 70.5682 224.141 69.99 233.502C69.4118 242.889 72.5131 254.243 72.5131 254.243L59.4507 253.115C59.4507 253.115 58.3206 226.685 57.1642 200.542C56.0077 174.4 58.2943 149.962 59.4507 130.637C60.6072 111.312 56.5859 75.4938 55.7449 68.6763Z" fill="#6D2F00"/>
<path d="M111.017 98.6476C110.859 98.6476 110.728 98.6738 110.596 98.7C110.623 98.5689 110.649 98.4116 110.649 98.2542C110.649 98.228 110.649 98.2018 110.649 98.1494C110.78 98.1756 110.938 98.2018 111.096 98.2018C112.226 98.2018 113.146 97.2841 113.146 96.1566C113.146 95.737 113.014 95.3437 112.778 95.0028C113.225 94.6095 113.514 94.0589 113.514 93.4296C113.514 92.4069 112.804 91.5679 111.832 91.3843C111.858 91.2008 111.884 91.0172 111.884 90.8337C111.884 89.4702 110.807 88.3427 109.44 88.2902C109.177 87.2938 108.494 86.481 107.6 86.0614C107.837 85.1699 107.495 84.1997 106.706 83.6753C105.892 83.1509 104.867 83.2558 104.131 83.8326C103.684 82.5216 102.422 81.5776 100.951 81.5776C99.0845 81.5776 97.5864 83.0722 97.5864 84.9339C97.5864 85.3273 97.6653 85.6943 97.7704 86.0352C97.3236 85.8254 96.8242 85.6943 96.2986 85.6943C94.9319 85.6943 93.7492 86.5072 93.2498 87.6609C92.1985 87.7134 91.3575 88.5787 91.3575 89.6275C91.3575 90.3093 91.7254 90.9386 92.2511 91.2794C92.0145 91.699 91.8568 92.171 91.8568 92.6954C91.8568 93.3509 92.0934 93.9802 92.4876 94.4522C91.8043 94.8717 91.3575 95.6059 91.3575 96.4712C91.3575 97.7823 92.4351 98.8573 93.7492 98.8573C93.7755 98.8573 93.8018 98.8573 93.8543 98.8573C93.8018 99.0409 93.7492 99.2244 93.7492 99.4342C93.7492 100.221 94.2223 100.903 94.9056 101.191C94.5902 101.584 94.38 102.109 94.38 102.659C94.38 103.944 95.4313 104.993 96.7191 104.993C96.798 104.993 96.8505 104.993 96.9294 104.993C96.798 105.281 96.7191 105.622 96.7191 105.963C96.7191 106.907 97.271 107.694 98.0595 108.087C98.007 108.244 97.9807 108.402 97.9807 108.585C97.9807 109.66 98.848 110.552 99.9519 110.552C100.372 110.552 100.74 110.421 101.056 110.211C101.24 110.263 101.45 110.316 101.66 110.316C101.739 110.316 101.818 110.29 101.897 110.29C101.949 111.391 102.869 112.256 103.973 112.256C103.999 112.256 104.052 112.256 104.078 112.256C104.341 113.095 105.13 113.698 106.049 113.698C106.864 113.698 107.548 113.226 107.915 112.545C108.152 112.65 108.415 112.702 108.678 112.702C109.755 112.702 110.623 111.837 110.623 110.762C110.623 110.421 110.517 110.106 110.386 109.844C110.991 109.451 111.385 108.795 111.385 108.035C111.385 107.012 110.675 106.173 109.755 105.937C110.701 105.701 111.385 104.862 111.385 103.839C111.385 103.761 111.358 103.682 111.358 103.603C112.541 103.42 113.461 102.397 113.461 101.165C113.487 99.7488 112.357 98.6476 111.017 98.6476Z" fill="#512176"/>
<path d="M104.263 91.6724C105.279 91.6724 106.102 90.8506 106.102 89.8369C106.102 88.8232 105.279 88.0015 104.263 88.0015C103.246 88.0015 102.423 88.8232 102.423 89.8369C102.423 90.8506 103.246 91.6724 104.263 91.6724Z" fill="#9C6CC0"/>
<path d="M98.4809 97.4147C99.468 97.4147 100.268 96.6164 100.268 95.6317C100.268 94.6469 99.468 93.8486 98.4809 93.8486C97.4939 93.8486 96.6937 94.6469 96.6937 95.6317C96.6937 96.6164 97.4939 97.4147 98.4809 97.4147Z" fill="#9C6CC0"/>
<path d="M105.076 102.056C106.063 102.056 106.864 101.258 106.864 100.273C106.864 99.2885 106.063 98.4902 105.076 98.4902C104.089 98.4902 103.289 99.2885 103.289 100.273C103.289 101.258 104.089 102.056 105.076 102.056Z" fill="#9C6CC0"/>
<path d="M54.221 127.07C54.3524 127.07 54.4838 127.07 54.589 127.096C54.5627 126.965 54.5364 126.86 54.5364 126.729C54.5364 126.703 54.5364 126.677 54.5364 126.651C54.405 126.677 54.2736 126.703 54.1422 126.703C53.1434 126.703 52.3549 125.916 52.3549 124.973C52.3549 124.605 52.4601 124.265 52.6703 124.002C52.2761 123.688 52.0396 123.216 52.0396 122.665C52.0396 121.8 52.6703 121.092 53.5114 120.934C53.4851 120.777 53.4588 120.62 53.4588 120.463C53.4588 119.309 54.405 118.339 55.614 118.286C55.8242 117.447 56.4287 116.765 57.2172 116.398C57.0069 115.664 57.2961 114.825 58.0057 114.379C58.7153 113.933 59.6352 114.012 60.2397 114.51C60.6339 113.409 61.7378 112.596 62.9994 112.596C64.6289 112.596 65.943 113.855 65.943 115.428C65.943 115.769 65.8904 116.084 65.7853 116.372C66.1795 116.188 66.6001 116.084 67.0731 116.084C68.2821 116.084 69.3072 116.765 69.754 117.736C70.6738 117.788 71.4098 118.522 71.4098 119.414C71.4098 119.991 71.0944 120.515 70.6213 120.83C70.8315 121.17 70.9629 121.59 70.9629 122.036C70.9629 122.613 70.7527 123.111 70.411 123.53C70.9892 123.897 71.3835 124.527 71.3835 125.235C71.3835 126.336 70.4373 127.254 69.3072 127.254C69.2809 127.254 69.2546 127.254 69.2283 127.254C69.2809 127.411 69.3072 127.568 69.3072 127.752C69.3072 128.407 68.8866 128.984 68.2821 129.247C68.5712 129.587 68.7289 130.007 68.7289 130.479C68.7289 131.554 67.809 132.446 66.6789 132.446C66.6263 132.446 66.5475 132.446 66.4949 132.446C66.6263 132.708 66.6789 132.97 66.6789 133.285C66.6789 134.071 66.2058 134.753 65.5225 135.094C65.5488 135.225 65.575 135.356 65.575 135.513C65.575 136.431 64.8128 137.165 63.8667 137.165C63.4987 137.165 63.157 137.06 62.8942 136.877C62.7365 136.929 62.5526 136.956 62.3686 136.956C62.2897 136.956 62.2372 136.956 62.1583 136.929C62.1057 137.873 61.3173 138.607 60.3448 138.607C60.3185 138.607 60.266 138.607 60.2397 138.607C60.0031 139.315 59.3198 139.814 58.505 139.814C57.7954 139.814 57.1909 139.42 56.8755 138.843C56.6653 138.922 56.455 138.975 56.2185 138.975C55.2723 138.975 54.5101 138.24 54.5101 137.323C54.5101 137.034 54.589 136.772 54.7204 136.536C54.1947 136.221 53.853 135.645 53.853 134.989C53.853 134.124 54.4575 133.416 55.2986 133.206C54.4838 132.996 53.853 132.288 53.853 131.423C53.853 131.344 53.8793 131.292 53.8793 131.239C52.828 131.082 52.0396 130.217 52.0396 129.168C52.0658 127.988 53.0383 127.07 54.221 127.07Z" fill="#512176"/>
<path d="M60.1342 121.145C61.0197 121.145 61.7375 120.453 61.7375 119.598C61.7375 118.744 61.0197 118.051 60.1342 118.051C59.2488 118.051 58.531 118.744 58.531 119.598C58.531 120.453 59.2488 121.145 60.1342 121.145Z" fill="#9C6CC0"/>
<path d="M65.1808 126.021C66.0518 126.021 66.7578 125.34 66.7578 124.5C66.7578 123.66 66.0518 122.979 65.1808 122.979C64.3099 122.979 63.6039 123.66 63.6039 124.5C63.6039 125.34 64.3099 126.021 65.1808 126.021Z" fill="#9C6CC0"/>
<path d="M59.4241 129.954C60.295 129.954 61.0011 129.273 61.0011 128.433C61.0011 127.593 60.295 126.913 59.4241 126.913C58.5532 126.913 57.8472 127.593 57.8472 128.433C57.8472 129.273 58.5532 129.954 59.4241 129.954Z" fill="#9C6CC0"/>
<path d="M83.4463 180.01C83.2886 180.01 83.1309 180.037 82.9732 180.063C82.9995 179.905 83.0258 179.748 83.0258 179.565C83.0258 179.538 83.0258 179.486 83.0258 179.46C83.1835 179.486 83.3412 179.512 83.5251 179.512C84.7867 179.512 85.8117 178.489 85.8117 177.231C85.8117 176.759 85.654 176.313 85.4175 175.946C85.9168 175.527 86.2322 174.897 86.2322 174.189C86.2322 173.062 85.4175 172.118 84.3662 171.908C84.4187 171.698 84.445 171.515 84.445 171.279C84.445 169.732 83.236 168.473 81.7116 168.421C81.4225 167.319 80.6604 166.402 79.6616 165.903C79.9244 164.907 79.5565 163.832 78.6366 163.255C77.7167 162.652 76.5603 162.783 75.7718 163.439C75.2724 161.97 73.8795 160.921 72.2237 160.921C70.1473 160.921 68.4653 162.6 68.4653 164.671C68.4653 165.117 68.5441 165.536 68.6755 165.903C68.1762 165.667 67.6242 165.536 67.0197 165.536C65.4691 165.536 64.1549 166.454 63.603 167.739C62.4203 167.791 61.4741 168.761 61.4741 169.968C61.4741 170.754 61.8684 171.436 62.4729 171.829C62.1837 172.301 62.0261 172.852 62.0261 173.429C62.0261 174.163 62.2889 174.871 62.7357 175.395C61.9735 175.867 61.4741 176.706 61.4741 177.65C61.4741 179.119 62.6568 180.325 64.1549 180.325C64.1812 180.325 64.2338 180.325 64.2601 180.325C64.2075 180.535 64.1549 180.745 64.1549 180.954C64.1549 181.846 64.6806 182.58 65.4428 182.921C65.0748 183.367 64.8646 183.943 64.8646 184.547C64.8646 185.989 66.021 187.142 67.4665 187.142C67.5454 187.142 67.6242 187.142 67.7031 187.142C67.5454 187.483 67.4665 187.85 67.4665 188.244C67.4665 189.293 68.071 190.184 68.9646 190.63C68.9121 190.813 68.8858 190.997 68.8858 191.181C68.8858 192.387 69.8582 193.357 71.0672 193.357C71.5403 193.357 71.9608 193.2 72.3288 192.964C72.5391 193.042 72.7756 193.068 73.0121 193.068C73.1173 193.068 73.1961 193.042 73.275 193.042C73.3538 194.275 74.3525 195.245 75.6141 195.245C75.6667 195.245 75.693 195.245 75.7455 195.245C76.0609 196.163 76.9282 196.844 77.9533 196.844C78.8731 196.844 79.6353 196.32 80.0296 195.559C80.2924 195.664 80.5815 195.717 80.8706 195.717C82.0796 195.717 83.0521 194.747 83.0521 193.54C83.0521 193.173 82.9469 192.806 82.7892 192.518C83.4726 192.098 83.9194 191.338 83.9194 190.473C83.9194 189.345 83.1309 188.401 82.0796 188.139C83.1309 187.877 83.9194 186.933 83.9194 185.805C83.9194 185.727 83.8931 185.622 83.8931 185.543C85.2335 185.359 86.2585 184.206 86.2585 182.816C86.206 181.243 84.9707 180.01 83.4463 180.01Z" fill="#512176"/>
<path d="M75.8771 172.223C77.0238 172.223 77.9534 171.296 77.9534 170.152C77.9534 169.008 77.0238 168.081 75.8771 168.081C74.7304 168.081 73.8008 169.008 73.8008 170.152C73.8008 171.296 74.7304 172.223 75.8771 172.223Z" fill="#9C6CC0"/>
<path d="M69.4372 178.646C70.5549 178.646 71.461 177.742 71.461 176.627C71.461 175.512 70.5549 174.608 69.4372 174.608C68.3195 174.608 67.4135 175.512 67.4135 176.627C67.4135 177.742 68.3195 178.646 69.4372 178.646Z" fill="#9C6CC0"/>
<path d="M76.7971 183.839C77.9148 183.839 78.8208 182.935 78.8208 181.82C78.8208 180.705 77.9148 179.801 76.7971 179.801C75.6794 179.801 74.7733 180.705 74.7733 181.82C74.7733 182.935 75.6794 183.839 76.7971 183.839Z" fill="#9C6CC0"/>
<path d="M154.909 90.9913C155.067 90.9913 155.224 91.0175 155.382 91.0437C155.356 90.8864 155.33 90.7291 155.33 90.5455C155.33 90.5193 155.33 90.4669 155.33 90.4406C155.172 90.4669 155.014 90.4931 154.83 90.4931C153.569 90.4931 152.544 89.4705 152.544 88.2119C152.544 87.7399 152.701 87.2941 152.938 86.927C152.438 86.5075 152.123 85.8782 152.123 85.1702C152.123 84.0427 152.938 83.0987 153.989 82.889C153.937 82.6792 153.91 82.4957 153.91 82.2597C153.91 80.7126 155.119 79.454 156.644 79.4016C156.933 78.3003 157.695 77.3825 158.694 76.8843C158.431 75.8879 158.799 74.8129 159.719 74.236C160.639 73.6329 161.795 73.764 162.584 74.4196C163.083 72.9512 164.476 71.9023 166.132 71.9023C168.208 71.9023 169.89 73.5805 169.89 75.652C169.89 76.0977 169.811 76.5173 169.68 76.8843C170.179 76.6484 170.731 76.5173 171.336 76.5173C172.886 76.5173 174.2 77.435 174.752 78.7198C175.935 78.7723 176.881 79.7424 176.881 80.9486C176.881 81.7352 176.487 82.417 175.882 82.8103C176.172 83.2823 176.329 83.8329 176.329 84.4098C176.329 85.144 176.066 85.852 175.62 86.3764C176.382 86.8484 176.881 87.6874 176.881 88.6314C176.881 90.0998 175.698 91.3059 174.2 91.3059C174.174 91.3059 174.122 91.3059 174.095 91.3059C174.148 91.5157 174.2 91.7255 174.2 91.9352C174.2 92.8268 173.675 93.561 172.913 93.9018C173.28 94.3476 173.491 94.9245 173.491 95.5275C173.491 96.9697 172.334 98.1234 170.889 98.1234C170.81 98.1234 170.731 98.1234 170.652 98.1234C170.81 98.4643 170.889 98.8314 170.889 99.2247C170.889 100.274 170.284 101.165 169.391 101.611C169.443 101.794 169.47 101.978 169.47 102.161C169.47 103.368 168.497 104.338 167.288 104.338C166.815 104.338 166.394 104.18 166.027 103.945C165.816 104.023 165.58 104.049 165.343 104.049C165.238 104.049 165.159 104.023 165.08 104.023C165.002 105.256 164.003 106.226 162.741 106.226C162.689 106.226 162.662 106.226 162.61 106.226C162.294 107.143 161.427 107.825 160.402 107.825C159.482 107.825 158.72 107.301 158.326 106.54C158.063 106.645 157.774 106.698 157.485 106.698C156.276 106.698 155.303 105.728 155.303 104.521C155.303 104.154 155.408 103.787 155.566 103.499C154.883 103.079 154.436 102.319 154.436 101.454C154.436 100.326 155.224 99.382 156.276 99.1198C155.224 98.8576 154.436 97.9137 154.436 96.7861C154.436 96.7075 154.462 96.6026 154.462 96.5239C153.122 96.3404 152.097 95.1867 152.097 93.7969C152.123 92.2237 153.358 90.9913 154.909 90.9913Z" fill="#512176"/>
<path d="M162.452 83.2045C163.599 83.2045 164.529 82.277 164.529 81.133C164.529 79.989 163.599 79.0615 162.452 79.0615C161.306 79.0615 160.376 79.989 160.376 81.133C160.376 82.277 161.306 83.2045 162.452 83.2045Z" fill="#9C6CC0"/>
<path d="M168.917 89.6269C170.035 89.6269 170.941 88.723 170.941 87.6079C170.941 86.4928 170.035 85.5889 168.917 85.5889C167.799 85.5889 166.893 86.4928 166.893 87.6079C166.893 88.723 167.799 89.6269 168.917 89.6269Z" fill="#9C6CC0"/>
<path d="M161.531 94.8452C162.649 94.8452 163.555 93.9412 163.555 92.8262C163.555 91.7111 162.649 90.8071 161.531 90.8071C160.414 90.8071 159.508 91.7111 159.508 92.8262C159.508 93.9412 160.414 94.8452 161.531 94.8452Z" fill="#9C6CC0"/>
<path d="M211.969 93.7183C211.864 93.6921 211.759 93.6659 211.654 93.6396C211.707 93.5348 211.759 93.4561 211.812 93.325C211.812 93.2988 211.812 93.2726 211.838 93.2463C211.943 93.2988 212.022 93.3512 212.127 93.4037C212.916 93.6921 213.809 93.2726 214.098 92.4859C214.203 92.1713 214.203 91.8828 214.125 91.5944C214.545 91.4371 214.887 91.1224 215.044 90.6767C215.307 89.9687 214.992 89.1821 214.387 88.815C214.466 88.7101 214.519 88.579 214.571 88.4479C214.913 87.4777 214.44 86.4026 213.494 86.0093C213.573 85.2489 213.283 84.4885 212.758 83.9641C213.152 83.3872 213.152 82.6268 212.705 82.0499C212.258 81.4731 211.496 81.2895 210.839 81.5255C210.839 80.4767 210.208 79.5065 209.157 79.1394C207.843 78.6674 206.397 79.3492 205.924 80.6602C205.819 80.9486 205.793 81.2109 205.767 81.4993C205.504 81.2371 205.188 81.0273 204.821 80.8962C203.848 80.5553 202.797 80.8175 202.166 81.5255C201.404 81.2895 200.589 81.6828 200.326 82.4432C200.142 82.9414 200.247 83.4659 200.536 83.833C200.247 84.069 200.037 84.3836 199.906 84.7507C199.748 85.2227 199.748 85.7209 199.906 86.1404C199.327 86.2715 198.828 86.6911 198.592 87.2941C198.25 88.2119 198.749 89.2607 199.669 89.5754C199.695 89.5754 199.722 89.6016 199.748 89.6016C199.669 89.7065 199.59 89.8376 199.538 89.9949C199.327 90.5456 199.511 91.1486 199.906 91.542C199.564 91.7517 199.301 92.0402 199.17 92.4335C198.854 93.3512 199.327 94.3476 200.221 94.6623C200.274 94.6885 200.326 94.6885 200.379 94.7147C200.195 94.8983 200.063 95.108 199.985 95.344C199.748 95.9995 199.932 96.7075 200.379 97.1795C200.3 97.2844 200.247 97.3893 200.195 97.5204C199.932 98.2808 200.326 99.1199 201.088 99.4083C201.378 99.5132 201.693 99.5132 201.956 99.4345C202.087 99.5394 202.219 99.6181 202.35 99.6705C202.403 99.6967 202.481 99.6967 202.534 99.7229C202.297 100.51 202.718 101.375 203.506 101.637C203.533 101.637 203.559 101.637 203.585 101.663C203.559 102.319 203.953 102.948 204.61 103.184C205.188 103.394 205.793 103.237 206.213 102.843C206.345 102.974 206.529 103.079 206.713 103.132C207.475 103.394 208.316 103.001 208.579 102.24C208.658 102.004 208.684 101.768 208.631 101.532C209.157 101.401 209.604 101.034 209.814 100.483C210.077 99.7754 209.788 98.9888 209.183 98.5954C209.919 98.6741 210.629 98.2546 210.865 97.5204C210.892 97.4679 210.892 97.4155 210.918 97.363C211.812 97.5466 212.732 97.0484 213.047 96.1831C213.441 95.1343 212.916 94.0592 211.969 93.7183Z" fill="#512176"/>
<path d="M210.724 86.2394C210.983 85.5164 210.606 84.7209 209.881 84.4626C209.157 84.2043 208.359 84.5811 208.1 85.3041C207.841 86.0272 208.219 86.8227 208.943 87.0809C209.668 87.3392 210.465 86.9625 210.724 86.2394Z" fill="#9C6CC0"/>
<path d="M205.135 88.8536C205.384 88.1579 205.021 87.3924 204.324 87.1439C203.627 86.8953 202.86 87.2579 202.611 87.9536C202.361 88.6494 202.725 89.4149 203.422 89.6634C204.119 89.9119 204.886 89.5494 205.135 88.8536Z" fill="#9C6CC0"/>
<path d="M208.613 93.8258C208.863 93.1301 208.499 92.3646 207.802 92.116C207.105 91.8675 206.338 92.23 206.089 92.9258C205.84 93.6215 206.203 94.387 206.9 94.6356C207.597 94.8841 208.364 94.5215 208.613 93.8258Z" fill="#9C6CC0"/>
<path d="M247.792 74.7076C247.792 74.7076 244.585 80.2402 241.799 74.7076C239.013 69.1749 245.426 65.7662 249.053 67.6803C252.68 69.5945 253.758 76.3333 251.182 78.9292C248.606 81.5251 245.847 84.0161 239.224 83.3081C232.6 82.6001 221.062 78.7981 215.096 78.9292C209.13 79.0865 193.886 82.233 183.216 77.723C172.545 73.213 173.36 63.1965 160.376 62.3575C147.366 61.4922 138.824 72.1641 120.873 74.4978C102.923 76.8315 63.6039 72.8721 63.6039 72.8721V70.25C63.6039 70.25 86.4959 72.3215 100.268 72.8721C114.04 73.449 126.445 70.6695 140.743 64.9271C155.041 59.1847 158.563 58.4767 164.502 59.9451C172.834 61.9904 180.903 75.8089 189.655 77.0675C198.407 78.3523 206.975 75.7826 217.225 76.8577C227.475 77.9328 233.573 82.705 241.589 81.5775C249.605 80.4762 250.814 77.6181 250.998 73.6587C251.182 69.6994 243.954 67.3132 242.877 71.0104C241.826 74.7076 244.795 76.9888 247.792 74.7076Z" fill="#351B0A"/>
<path d="M80.4507 72.715C80.0827 72.1906 79.4782 70.1978 76.5083 69.3062C73.5121 68.4147 71.7249 69.3062 71.7249 69.3062V69.3587C71.7512 69.044 71.8563 68.7294 71.9877 68.572C72.3557 68.1001 75.0628 67.9952 76.4295 67.3397C77.8225 66.6579 77.9276 64.9273 77.9276 64.9273C77.9276 64.9273 77.5333 65.1371 76.9551 64.77C76.3769 64.4029 76.8237 63.5638 76.8237 63.5638C76.8237 63.5638 75.5096 64.1407 74.7474 63.7474C73.9852 63.3541 74.2217 62.2528 74.2217 62.2528C74.2217 62.2528 73.8012 63.0656 73.1967 62.7247C72.5922 62.3576 72.8288 61.6497 72.8288 61.6497C72.8288 61.6497 72.4345 62.1479 71.9089 61.9381C71.3832 61.7283 71.7249 61.1253 71.7249 61.1253C71.7249 61.1253 71.4095 61.4399 70.621 61.4399C69.8326 61.4399 69.5172 60.5484 69.5172 60.5484C69.5172 60.5484 69.5435 62.3577 68.7287 62.279C67.9139 62.2003 68.2556 61.2564 68.2556 61.2564C68.2556 61.2564 67.7825 61.8595 67.1255 61.571C66.4421 61.2826 65.4171 59.9453 65.4171 59.9453C65.4171 59.9453 64.944 60.7319 64.103 60.9155C63.2619 61.099 62.1055 60.2075 62.1055 60.2075C62.1055 60.2075 62.1318 61.0728 60.8965 61.1777C59.6612 61.2826 58.5837 60.6008 58.5837 60.6008C58.5837 60.6008 59.9241 62.0954 59.9766 62.8034C60.0029 63.5114 59.2933 63.6687 59.2933 63.6687C59.2933 63.6687 62.0792 66.1859 61.317 67.0512C60.5811 67.9165 59.4773 66.1859 59.4773 66.1859C59.4773 66.1859 59.4773 66.6841 59.1619 67.1561C58.8465 67.6281 57.6375 67.4445 57.6375 67.4445C57.6375 67.4445 58.0317 68.6507 57.7426 68.9654C57.4535 69.28 56.6125 69.1489 56.6125 69.1489C56.6125 69.1489 56.9016 70.1453 56.5073 70.7222C56.1131 71.299 54.5887 71.4301 54.5887 71.4301C54.5887 71.4301 55.0092 71.6661 54.9041 72.0595C54.799 72.4528 53.8265 72.5576 53.8265 72.5576C53.8265 72.5576 54.4573 73.187 54.4047 73.6852C54.3259 74.1834 53.0643 74.4193 53.0643 74.4193C53.0643 74.4193 53.4849 74.8127 53.4586 75.2322C53.4323 75.6517 52.1182 76.9366 52.1182 76.9366C52.1182 76.9366 53.5111 76.4384 54.1419 76.3335C54.7727 76.2286 54.8253 76.9366 54.8253 76.9366C54.8253 76.9366 55.4298 75.9664 56.0605 75.9139C56.6913 75.8353 56.3496 77.6183 56.3496 77.6183C56.3496 77.6183 58.0317 76.989 58.7939 77.1463C59.5824 77.3299 59.1093 78.5361 59.1093 78.5361C59.1093 78.5361 60.292 77.7494 60.6074 77.6708C60.9228 77.5921 61.2119 78.9556 61.2119 78.9556C61.2119 78.9556 62.0267 77.6708 62.2895 77.7494C62.526 77.8281 63.2882 79.4276 63.2882 79.4276C63.2882 79.4276 63.7613 77.9592 64.4184 78.3001C65.1017 78.6147 64.8389 80.1355 64.8389 81.4204C64.8389 82.7052 66.0216 83.3345 66.0216 83.3345C66.0216 83.3345 67.2043 82.1546 68.6499 81.2631C70.1217 80.3715 70.7525 78.1952 71.4621 78.3263C72.1717 78.4312 71.4621 79.5587 71.4621 79.5587C71.4621 79.5587 72.6711 78.8769 73.8012 77.7494C74.9314 76.6219 75.1416 75.3109 75.3256 74.8127C75.5096 74.3145 76.4295 74.8127 76.4295 74.8127C76.4295 74.8127 76.3506 73.7114 76.4295 73.4229C76.5083 73.1345 77.0603 73.0296 77.0603 73.0296C77.0603 73.0296 76.666 71.535 75.9564 70.8271C75.2468 70.1191 73.1704 71.0631 72.3031 70.8271C71.9877 70.7484 71.83 70.4862 71.7249 70.1715C72.4608 69.988 74.3532 69.6471 76.2718 70.0142C78.7161 70.4862 79.3994 72.7936 79.6097 73.2394C79.8199 73.6852 80.7398 73.1607 80.4507 72.715Z" fill="#7EA21A"/>
<path d="M96.7455 75.3633C96.7455 75.914 96.2725 77.6708 98.0334 79.716C99.8206 81.7613 101.529 81.9448 101.529 81.9448L101.555 81.9186C101.371 82.1284 101.161 82.3119 101.003 82.3644C100.53 82.5479 98.4802 81.3418 97.1398 81.1844C95.7994 81.0271 94.9058 82.2595 94.9058 82.2595C94.9058 82.2595 95.3 82.2857 95.5365 82.8101C95.7994 83.3346 95.0635 83.7541 95.0635 83.7541C95.0635 83.7541 96.2987 83.9639 96.6667 84.5932C97.0346 85.2225 96.3513 85.9304 96.3513 85.9304C96.3513 85.9304 97.0609 85.5371 97.3238 86.0878C97.6129 86.6384 97.0872 87.0317 97.0872 87.0317C97.0872 87.0317 97.6129 86.8482 97.902 87.2677C98.1911 87.6873 97.6391 87.9495 97.6391 87.9495C97.6391 87.9495 98.0334 87.8708 98.6116 88.2379C99.1898 88.605 99.0058 89.4178 99.0058 89.4178C99.0058 89.4178 99.8206 88.0806 100.399 88.5001C100.977 88.9459 100.241 89.4703 100.241 89.4703C100.241 89.4703 100.872 89.2343 101.24 89.7587C101.608 90.2831 101.713 91.7515 101.713 91.7515C101.713 91.7515 102.423 91.3844 103.132 91.6729C103.842 91.9351 104.262 93.1412 104.262 93.1412C104.262 93.1412 104.63 92.4857 105.603 93.0101C106.575 93.5083 107.022 94.5047 107.022 94.5047C107.022 94.5047 106.733 92.7741 107.048 92.2497C107.364 91.6991 107.942 91.9351 107.942 91.9351C107.942 91.9351 107.101 88.7885 108.047 88.5001C108.993 88.2117 108.993 89.9947 108.993 89.9947C108.993 89.9947 109.23 89.6276 109.677 89.4441C110.123 89.2605 110.938 89.9423 110.938 89.9423C110.938 89.9423 111.227 88.8672 111.569 88.7623C111.937 88.6574 112.489 89.1556 112.489 89.1556C112.489 89.1556 112.752 88.2903 113.304 88.0543C113.855 87.8184 115.038 88.4214 115.038 88.4214C115.038 88.4214 114.854 88.0281 115.091 87.7921C115.354 87.5561 116.116 87.9232 116.116 87.9232C116.116 87.9232 115.958 87.1628 116.221 86.822C116.51 86.4811 117.561 86.9006 117.561 86.9006C117.561 86.9006 117.43 86.4024 117.666 86.114C117.903 85.8256 119.454 85.4847 119.454 85.4847C119.454 85.4847 118.192 85.1962 117.666 84.9865C117.141 84.7767 117.456 84.2261 117.456 84.2261C117.456 84.2261 116.563 84.6456 116.063 84.4096C115.564 84.1736 116.668 83.0199 116.668 83.0199C116.668 83.0199 115.143 82.7053 114.644 82.2071C114.145 81.7089 115.064 81.0271 115.064 81.0271C115.064 81.0271 113.829 81.0533 113.566 80.9484C113.304 80.8436 113.724 79.716 113.724 79.716C113.724 79.716 112.515 80.2667 112.384 80.1094C112.226 79.952 112.436 78.405 112.436 78.405C112.436 78.405 111.411 79.2703 111.069 78.6934C110.728 78.1428 111.621 77.1464 112.226 76.2024C112.83 75.2585 112.278 74.2358 112.278 74.2358C112.278 74.2358 110.859 74.5505 109.361 74.5243C107.863 74.498 106.391 75.7829 105.918 75.3633C105.445 74.9438 106.496 74.4456 106.496 74.4456C106.496 74.4456 105.287 74.3669 103.921 74.6816C102.554 74.97 101.765 75.8353 101.398 76.1238C101.03 76.4122 100.583 75.5993 100.583 75.5993C100.583 75.5993 100.11 76.4384 99.9257 76.622C99.7417 76.8055 99.2687 76.622 99.2687 76.622C99.2687 76.622 98.8481 77.9068 99.0321 78.7459C99.2161 79.5849 101.187 79.8734 101.713 80.4502C101.897 80.66 101.897 80.9222 101.818 81.1844C101.187 80.9747 99.6366 80.3454 98.4013 79.1654C96.8244 77.6708 97.4026 75.6518 97.4552 75.2322C97.6129 74.9176 96.7455 74.9176 96.7455 75.3633Z" fill="#7EA21A"/>
<path d="M125.736 71.6653C125.867 72.2947 125.709 74.3661 128.18 76.2803C130.651 78.1944 132.622 78.0108 132.622 78.0108L132.648 77.9846C132.49 78.2731 132.306 78.5091 132.122 78.6139C131.623 78.9286 129.074 78.0371 127.523 78.1682C125.972 78.2993 125.263 79.8725 125.263 79.8725C125.263 79.8725 125.709 79.8201 126.104 80.3445C126.498 80.8689 125.788 81.5245 125.788 81.5245C125.788 81.5245 127.234 81.472 127.786 82.1013C128.338 82.7306 127.733 83.6746 127.733 83.6746C127.733 83.6746 128.417 83.0715 128.863 83.6222C129.31 84.1728 128.811 84.7497 128.811 84.7497C128.811 84.7497 129.363 84.435 129.783 84.8283C130.204 85.2216 129.652 85.6412 129.652 85.6412C129.652 85.6412 130.072 85.4576 130.808 85.7461C131.544 86.0345 131.518 86.9785 131.518 86.9785C131.518 86.9785 132.149 85.2741 132.885 85.6412C133.621 86.0083 132.937 86.7687 132.937 86.7687C132.937 86.7687 133.594 86.3754 134.12 86.8736C134.646 87.3718 135.119 89.0237 135.119 89.0237C135.119 89.0237 135.828 88.4731 136.696 88.6042C137.563 88.7353 138.299 89.9939 138.299 89.9939C138.299 89.9939 138.562 89.181 139.771 89.5481C140.98 89.889 141.716 90.9116 141.716 90.9116C141.716 90.9116 141.006 89.0237 141.216 88.3682C141.453 87.6864 142.162 87.8175 142.162 87.8175C142.162 87.8175 140.48 84.4612 141.479 83.9368C142.478 83.4124 142.898 85.4052 142.898 85.4052C142.898 85.4052 143.082 84.9332 143.555 84.6186C144.028 84.3039 145.08 84.907 145.08 84.907C145.08 84.907 145.159 83.6484 145.527 83.4386C145.894 83.2551 146.657 83.6746 146.657 83.6746C146.657 83.6746 146.762 82.652 147.314 82.2587C147.892 81.8653 149.364 82.2849 149.364 82.2849C149.364 82.2849 149.048 81.8916 149.285 81.5769C149.521 81.2623 150.468 81.4983 150.468 81.4983C150.468 81.4983 150.1 80.6592 150.336 80.2396C150.573 79.7939 151.861 80.0299 151.861 80.0299C151.861 80.0299 151.598 79.5055 151.782 79.1384C151.966 78.745 153.648 78.0371 153.648 78.0371C153.648 78.0371 152.176 78.0108 151.545 77.8797C150.914 77.7486 151.125 77.0669 151.125 77.0669C151.125 77.0669 150.205 77.7486 149.6 77.5913C148.97 77.434 149.942 75.8869 149.942 75.8869C149.942 75.8869 148.155 75.8869 147.471 75.4412C146.814 74.9954 147.682 74.0252 147.682 74.0252C147.682 74.0252 146.315 74.3399 145.973 74.2875C145.658 74.235 145.868 72.8715 145.868 72.8715C145.868 72.8715 144.633 73.763 144.423 73.6057C144.212 73.4484 144.107 71.6916 144.107 71.6916C144.107 71.6916 143.161 72.8715 142.635 72.3471C142.11 71.8227 142.898 70.4592 143.371 69.2792C143.844 68.0993 142.977 67.0767 142.977 67.0767C142.977 67.0767 141.453 67.7584 139.771 68.0468C138.089 68.3615 136.696 70.1445 136.091 69.7774C135.46 69.4103 136.538 68.6237 136.538 68.6237C136.538 68.6237 135.171 68.8073 133.699 69.4628C132.228 70.1183 131.544 71.272 131.203 71.6653C130.861 72.0587 130.178 71.272 130.178 71.272C130.178 71.272 129.836 72.3209 129.678 72.5569C129.52 72.7929 128.942 72.688 128.942 72.688C128.942 72.688 128.758 74.2088 129.153 75.1265C129.547 76.0443 131.833 75.8869 132.543 76.4376C132.806 76.6211 132.858 76.9358 132.832 77.2504C132.096 77.1456 130.178 76.8047 128.522 75.7558C126.393 74.4448 126.603 72.0324 126.577 71.5342C126.603 70.9836 125.631 71.1671 125.736 71.6653Z" fill="#7EA21A"/>
<path d="M175.698 71.3776C175.331 70.8532 174.726 68.8604 171.756 67.9688C168.76 67.0773 166.973 67.9688 166.973 67.9688V68.0213C166.999 67.7066 167.104 67.392 167.236 67.2346C167.603 66.7627 170.311 66.6578 171.677 66.0023C173.07 65.3205 173.175 63.5899 173.175 63.5899C173.175 63.5899 172.781 63.7997 172.203 63.4326C171.625 63.0655 172.072 62.2264 172.072 62.2264C172.072 62.2264 170.757 62.8033 169.995 62.41C169.233 62.0167 169.47 60.9154 169.47 60.9154C169.47 60.9154 169.049 61.7282 168.445 61.3873C167.84 61.0203 168.077 60.3123 168.077 60.3123C168.077 60.3123 167.682 60.8105 167.157 60.6007C166.631 60.3909 166.973 59.7879 166.973 59.7879C166.973 59.7879 166.657 60.1025 165.869 60.1025C165.08 60.1025 164.765 59.211 164.765 59.211C164.765 59.211 164.791 61.0203 163.977 60.9416C163.162 60.8629 163.503 59.919 163.503 59.919C163.503 59.919 163.03 60.522 162.373 60.2336C161.69 59.9452 160.665 58.6079 160.665 58.6079C160.665 58.6079 160.192 59.3945 159.351 59.5781C158.51 59.7616 157.353 58.8701 157.353 58.8701C157.353 58.8701 157.38 59.7354 156.144 59.8403C154.909 59.9452 153.831 59.2634 153.831 59.2634C153.831 59.2634 155.172 60.758 155.224 61.466C155.251 62.174 154.541 62.3313 154.541 62.3313C154.541 62.3313 157.327 64.8485 156.565 65.7138C155.803 66.5791 154.725 64.8485 154.725 64.8485C154.725 64.8485 154.725 65.3467 154.41 65.8187C154.094 66.2907 152.885 66.1071 152.885 66.1071C152.885 66.1071 153.28 67.3133 152.99 67.628C152.701 67.9426 151.86 67.8115 151.86 67.8115C151.86 67.8115 152.149 68.8079 151.755 69.3848C151.361 69.9616 149.837 70.0927 149.837 70.0927C149.837 70.0927 150.257 70.3287 150.152 70.722C150.047 71.1154 149.074 71.2203 149.074 71.2203C149.074 71.2203 149.705 71.8496 149.653 72.3478C149.574 72.846 148.312 73.0819 148.312 73.0819C148.312 73.0819 148.733 73.4753 148.706 73.8948C148.68 74.3143 147.366 75.5992 147.366 75.5992C147.366 75.5992 148.759 75.101 149.39 74.9961C150.02 74.8912 150.073 75.5992 150.073 75.5992C150.073 75.5992 150.678 74.629 151.308 74.5765C151.939 74.4979 151.597 76.2809 151.597 76.2809C151.597 76.2809 153.28 75.6516 154.042 75.8089C154.83 75.9925 154.357 77.1987 154.357 77.1987C154.357 77.1987 155.54 76.412 155.855 76.3334C156.171 76.2547 156.46 77.6182 156.46 77.6182C156.46 77.6182 157.274 76.3334 157.537 76.412C157.774 76.4907 158.536 78.0902 158.536 78.0902C158.536 78.0902 159.009 76.6218 159.666 76.9627C160.35 77.2773 160.087 78.7981 160.087 80.083C160.087 81.3678 161.269 81.9971 161.269 81.9971C161.269 81.9971 162.452 80.8172 163.898 79.9256C165.369 79.0341 166 76.8578 166.71 76.9889C167.42 77.0938 166.71 78.2213 166.71 78.2213C166.71 78.2213 167.919 77.5395 169.049 76.412C170.179 75.2845 170.389 73.9735 170.573 73.4753C170.757 72.9771 171.677 73.4753 171.677 73.4753C171.677 73.4753 171.598 72.374 171.677 72.0855C171.756 71.7971 172.308 71.6922 172.308 71.6922C172.308 71.6922 171.914 70.1976 171.204 69.4897C170.495 68.7817 168.418 69.7256 167.551 69.4897C167.236 69.411 167.078 69.1488 166.973 68.8341C167.709 68.6506 169.601 68.3097 171.52 68.6768C173.964 69.1488 174.647 71.4562 174.857 71.902C175.147 72.3215 175.988 71.7971 175.698 71.3776Z" fill="#7EA21A"/>
<path d="M205.267 78.4048C205.556 78.8243 206.081 80.45 208.552 81.1318C211.022 81.8135 212.468 81.0531 212.468 81.0531V81.0269C212.442 81.2891 212.363 81.5513 212.258 81.6824C211.969 82.0757 209.761 82.1806 208.631 82.7575C207.501 83.3343 207.448 84.7503 207.448 84.7503C207.448 84.7503 207.763 84.5667 208.236 84.8551C208.71 85.1436 208.368 85.8516 208.368 85.8516C208.368 85.8516 209.445 85.3796 210.05 85.668C210.681 85.9827 210.497 86.8742 210.497 86.8742C210.497 86.8742 210.838 86.1924 211.338 86.4809C211.837 86.7693 211.653 87.3461 211.653 87.3461C211.653 87.3461 211.969 86.9266 212.415 87.1102C212.862 87.2937 212.573 87.7657 212.573 87.7657C212.573 87.7657 212.836 87.5035 213.467 87.4773C214.097 87.4773 214.387 88.1852 214.387 88.1852C214.387 88.1852 214.334 86.6906 214.991 86.7431C215.674 86.7955 215.385 87.5821 215.385 87.5821C215.385 87.5821 215.753 87.0839 216.305 87.2937C216.857 87.5035 217.724 88.6048 217.724 88.6048C217.724 88.6048 218.092 87.9492 218.776 87.7919C219.459 87.6346 220.432 88.3426 220.432 88.3426C220.432 88.3426 220.379 87.6346 221.404 87.5297C222.429 87.4248 223.296 87.9492 223.296 87.9492C223.296 87.9492 222.166 86.7431 222.114 86.1662C222.061 85.5893 222.666 85.4582 222.666 85.4582C222.666 85.4582 220.353 83.4392 220.957 82.7312C221.562 82.0233 222.482 83.413 222.482 83.413C222.482 83.413 222.482 82.9935 222.718 82.6264C222.981 82.233 223.98 82.3641 223.98 82.3641C223.98 82.3641 223.638 81.3677 223.875 81.1055C224.111 80.8433 224.794 80.9482 224.794 80.9482C224.794 80.9482 224.558 80.1354 224.847 79.6634C225.162 79.1914 226.424 79.0603 226.424 79.0603C226.424 79.0603 226.082 78.8505 226.161 78.5359C226.24 78.2212 227.028 78.1163 227.028 78.1163C227.028 78.1163 226.503 77.5919 226.555 77.1986C226.608 76.7791 227.659 76.5693 227.659 76.5693C227.659 76.5693 227.291 76.2546 227.318 75.9138C227.344 75.5729 228.395 74.4978 228.395 74.4978C228.395 74.4978 227.265 74.9174 226.739 75.0222C226.214 75.1271 226.187 74.5503 226.187 74.5503C226.187 74.5503 225.714 75.3369 225.189 75.4156C224.663 75.4942 224.926 74.0258 224.926 74.0258C224.926 74.0258 223.559 74.5765 222.928 74.4454C222.271 74.3143 222.639 73.3179 222.639 73.3179C222.639 73.3179 221.693 73.9734 221.43 74.0258C221.167 74.0783 220.905 72.977 220.905 72.977C220.905 72.977 220.248 74.0258 220.037 73.9734C219.827 73.921 219.196 72.6099 219.196 72.6099C219.196 72.6099 218.828 73.8161 218.276 73.5539C217.724 73.2917 217.908 72.0593 217.882 71.0104C217.856 69.9616 216.883 69.4634 216.883 69.4634C216.883 69.4634 215.937 70.4336 214.755 71.194C213.572 71.9544 213.072 73.7374 212.494 73.6588C211.916 73.5801 212.468 72.6361 212.468 72.6361C212.468 72.6361 211.495 73.213 210.576 74.157C209.656 75.1009 209.498 76.176 209.367 76.5955C209.235 77.015 208.473 76.6217 208.473 76.6217C208.473 76.6217 208.552 77.5132 208.499 77.7492C208.447 77.9852 207.974 78.0901 207.974 78.0901C207.974 78.0901 208.315 79.2963 208.894 79.8731C209.472 80.45 211.18 79.6372 211.89 79.8207C212.153 79.8994 212.284 80.0829 212.363 80.3451C211.758 80.5025 210.208 80.8171 208.631 80.5549C206.607 80.214 206.029 78.3261 205.845 77.959C205.713 77.5919 205.03 78.0377 205.267 78.4048Z" fill="#7EA21A"/>
<path d="M72.3042 107.483C71.9362 107.798 70.4644 108.401 69.9913 110.709C69.5182 113.042 70.333 114.327 70.333 114.327H70.3593C70.0964 114.327 69.8862 114.275 69.7548 114.196C69.3868 113.96 69.0977 111.915 68.4932 110.918C67.8887 109.922 66.5483 109.948 66.5483 109.948C66.5483 109.948 66.7323 110.237 66.4957 110.682C66.2592 111.128 65.5758 110.866 65.5758 110.866C65.5758 110.866 66.1015 111.81 65.8649 112.413C65.6284 113.016 64.7611 112.911 64.7611 112.911C64.7611 112.911 65.4181 113.173 65.1816 113.672C64.9451 114.144 64.3931 114.012 64.3931 114.012C64.3931 114.012 64.7874 114.275 64.6822 114.694C64.5508 115.114 64.0777 114.878 64.0777 114.878C64.0777 114.878 64.3406 115.088 64.3931 115.691C64.4457 116.294 63.7886 116.582 63.7886 116.582C63.7886 116.582 65.1553 116.425 65.1553 117.054C65.1553 117.683 64.3931 117.474 64.3931 117.474C64.3931 117.474 64.8925 117.788 64.7085 118.313C64.5508 118.837 63.5784 119.729 63.5784 119.729C63.5784 119.729 64.2091 120.017 64.3931 120.646C64.5771 121.276 63.9989 122.193 63.9989 122.193C63.9989 122.193 64.656 122.115 64.8136 123.033C64.9713 123.976 64.5508 124.816 64.5508 124.816C64.5508 124.816 65.6021 123.688 66.1278 123.609C66.6534 123.531 66.8111 124.055 66.8111 124.055C66.8111 124.055 68.5195 121.774 69.2291 122.272C69.9387 122.77 68.7035 123.74 68.7035 123.74C68.7035 123.74 69.0714 123.714 69.4656 123.924C69.8336 124.134 69.781 125.052 69.781 125.052C69.781 125.052 70.6746 124.658 70.9375 124.868C71.2003 125.052 71.1477 125.707 71.1477 125.707C71.1477 125.707 71.8836 125.419 72.3304 125.681C72.7772 125.943 73.0138 127.097 73.0138 127.097C73.0138 127.097 73.1715 126.756 73.4869 126.808C73.8023 126.861 73.9337 127.569 73.9337 127.569C73.9337 127.569 74.3805 127.044 74.7484 127.071C75.1427 127.097 75.4055 128.041 75.4055 128.041C75.4055 128.041 75.6683 127.7 76.01 127.7C76.3254 127.7 77.403 128.591 77.403 128.591C77.403 128.591 76.9299 127.569 76.7985 127.097C76.6671 126.625 77.219 126.546 77.219 126.546C77.219 126.546 76.4568 126.153 76.3517 125.681C76.2465 125.209 77.6395 125.34 77.6395 125.34C77.6395 125.34 77.035 124.108 77.1139 123.504C77.1927 122.901 78.1389 123.164 78.1389 123.164C78.1389 123.164 77.4555 122.325 77.3767 122.089C77.2978 121.853 78.2966 121.538 78.2966 121.538C78.2966 121.538 77.2716 121.013 77.2978 120.804C77.3241 120.62 78.5068 119.938 78.5068 119.938C78.5068 119.938 77.3767 119.702 77.5607 119.152C77.7446 118.627 78.9273 118.706 79.8998 118.601C80.8723 118.522 81.2665 117.579 81.2665 117.579C81.2665 117.579 80.294 116.766 79.5056 115.743C78.7171 114.694 77.035 114.38 77.0613 113.829C77.0876 113.278 78.0075 113.75 78.0075 113.75C78.0075 113.75 77.403 112.885 76.4568 112.098C75.5106 111.312 74.4856 111.259 74.1177 111.154C73.7234 111.049 74.0388 110.315 74.0388 110.315C74.0388 110.315 73.1978 110.446 72.9875 110.42C72.7772 110.394 72.6458 109.974 72.6458 109.974C72.6458 109.974 71.542 110.368 71.0426 110.945C70.5432 111.521 71.4368 113.042 71.3054 113.698C71.2529 113.934 71.0689 114.091 70.8586 114.17C70.6746 113.619 70.2804 112.229 70.4118 110.735C70.5958 108.847 72.3042 108.165 72.6195 107.982C73.0664 107.85 72.6195 107.247 72.3042 107.483Z" fill="#7EA21A"/>
<path d="M57.2705 168.028C57.6385 167.504 58.243 165.511 61.2129 164.62C64.2091 163.728 65.9963 164.62 65.9963 164.62V164.672C65.97 164.358 65.8649 164.043 65.7335 163.886C65.3655 163.414 62.6585 163.309 61.2918 162.653C59.8988 161.971 59.7937 160.241 59.7937 160.241C59.7937 160.241 60.1879 160.451 60.7661 160.083C61.3443 159.716 60.8975 158.877 60.8975 158.877C60.8975 158.877 62.2116 159.454 62.9738 159.061C63.7098 158.668 63.4995 157.566 63.4995 157.566C63.4995 157.566 63.92 158.379 64.5245 158.038C65.129 157.671 64.8925 156.963 64.8925 156.963C64.8925 156.963 65.2867 157.461 65.8124 157.252C66.338 157.042 65.9963 156.439 65.9963 156.439C65.9963 156.439 66.3117 156.753 67.1002 156.753C67.8887 156.753 68.2041 155.862 68.2041 155.862C68.2041 155.862 68.1778 157.671 68.9925 157.592C69.8073 157.514 69.4656 156.57 69.4656 156.57C69.4656 156.57 69.9387 157.173 70.5958 156.884C71.2791 156.596 72.3041 155.259 72.3041 155.259C72.3041 155.259 72.7772 156.045 73.6183 156.229C74.4593 156.413 75.6157 155.521 75.6157 155.521C75.6157 155.521 75.5894 156.386 76.8247 156.491C78.06 156.596 79.1376 155.914 79.1376 155.914C79.1376 155.914 77.7972 157.409 77.7446 158.117C77.7183 158.825 78.428 158.982 78.428 158.982C78.428 158.982 75.642 161.499 76.4042 162.365C77.1401 163.23 78.244 161.499 78.244 161.499C78.244 161.499 78.244 161.998 78.5594 162.47C78.8748 162.942 80.0837 162.758 80.0837 162.758C80.0837 162.758 79.6895 163.964 79.9786 164.279C80.2677 164.593 81.1088 164.462 81.1088 164.462C81.1088 164.462 80.8197 165.459 81.2139 166.036C81.6081 166.613 83.1325 166.744 83.1325 166.744C83.1325 166.744 82.712 166.98 82.8171 167.373C82.9223 167.766 83.8947 167.871 83.8947 167.871C83.8947 167.871 83.2639 168.5 83.3165 168.999C83.3953 169.497 84.6569 169.733 84.6569 169.733C84.6569 169.733 84.2364 170.126 84.2627 170.546C84.289 170.965 85.6031 172.25 85.6031 172.25C85.6031 172.25 84.2101 171.752 83.5793 171.647C82.9485 171.542 82.896 172.25 82.896 172.25C82.896 172.25 82.2915 171.28 81.6607 171.227C81.0299 171.149 81.3716 172.932 81.3716 172.932C81.3716 172.932 79.6895 172.302 78.9273 172.46C78.1388 172.643 78.6119 173.85 78.6119 173.85C78.6119 173.85 77.4292 173.063 77.1138 172.984C76.7984 172.906 76.5093 174.269 76.5093 174.269C76.5093 174.269 75.6946 172.984 75.4317 173.063C75.1952 173.142 74.433 174.741 74.433 174.741C74.433 174.741 73.9599 173.273 73.3029 173.614C72.6458 173.954 72.8823 175.449 72.8823 176.734C72.8823 178.019 71.6996 178.648 71.6996 178.648C71.6996 178.648 70.5169 177.468 69.0714 176.577C67.5996 175.685 66.9688 173.509 66.2592 173.64C65.5495 173.745 66.2592 174.872 66.2592 174.872C66.2592 174.872 65.0502 174.19 63.92 173.063C62.7899 171.935 62.5796 170.624 62.3956 170.126C62.2116 169.628 61.2918 170.126 61.2918 170.126C61.2918 170.126 61.3706 169.025 61.2918 168.736C61.2129 168.448 60.661 168.343 60.661 168.343C60.661 168.343 61.0552 166.849 61.7648 166.141C62.4745 165.433 64.5508 166.377 65.4181 166.141C65.7335 166.062 65.8912 165.8 65.9963 165.485C65.2604 165.301 63.3681 164.961 61.4495 165.328C59.0052 165.8 58.3218 168.107 58.1116 168.553C57.8488 168.999 56.9814 168.474 57.2705 168.028Z" fill="#7EA21A"/>
<path d="M66.8364 201.801C67.4672 201.959 69.5435 201.828 71.4096 204.319C73.2756 206.81 73.0391 208.776 73.0391 208.776L73.0128 208.802C73.3019 208.645 73.5647 208.461 73.6699 208.278C73.9853 207.78 73.1442 205.21 73.3019 203.689C73.4596 202.168 75.0628 201.46 75.0628 201.46C75.0628 201.46 75.0103 201.906 75.5359 202.3C76.0616 202.719 76.7186 202.011 76.7186 202.011C76.7186 202.011 76.6398 203.453 77.2706 204.004C77.9013 204.581 78.8475 204.004 78.8475 204.004C78.8475 204.004 78.2167 204.686 78.7687 205.131C79.3206 205.577 79.8988 205.105 79.8988 205.105C79.8988 205.105 79.5571 205.656 79.9514 206.075C80.3456 206.495 80.7924 205.97 80.7924 205.97C80.7924 205.97 80.6084 206.39 80.8713 207.124C81.1341 207.858 82.0803 207.858 82.0803 207.858C82.0803 207.858 80.3719 208.435 80.7136 209.196C81.0552 209.93 81.8437 209.274 81.8437 209.274C81.8437 209.274 81.4232 209.904 81.9226 210.454C82.4219 210.979 84.0515 211.503 84.0515 211.503C84.0515 211.503 83.4732 212.211 83.6046 213.076C83.7361 213.942 84.9713 214.702 84.9713 214.702C84.9713 214.702 84.1566 214.964 84.472 216.17C84.7874 217.377 85.8124 218.137 85.8124 218.137C85.8124 218.137 83.9463 217.377 83.263 217.586C82.5796 217.796 82.6848 218.504 82.6848 218.504C82.6848 218.504 79.3469 216.774 78.8212 217.77C78.2693 218.766 80.2668 219.212 80.2668 219.212C80.2668 219.212 79.7937 219.396 79.4783 219.841C79.1629 220.313 79.7411 221.362 79.7411 221.362C79.7411 221.362 78.4796 221.415 78.2693 221.782C78.059 222.149 78.4796 222.909 78.4796 222.909C78.4796 222.909 77.4545 222.988 77.034 223.539C76.6398 224.089 77.034 225.584 77.034 225.584C77.034 225.584 76.6661 225.269 76.3244 225.505C75.9827 225.741 76.2193 226.685 76.2193 226.685C76.2193 226.685 75.4045 226.292 74.9577 226.554C74.5109 226.79 74.7212 228.075 74.7212 228.075C74.7212 228.075 74.1955 227.813 73.8276 227.996C73.4333 228.18 72.6974 229.858 72.6974 229.858C72.6974 229.858 72.6974 228.389 72.566 227.76C72.4346 227.131 71.7775 227.341 71.7775 227.341C71.7775 227.341 72.4609 226.449 72.3295 225.82C72.198 225.191 70.6211 226.134 70.6211 226.134C70.6211 226.134 70.6474 224.351 70.2006 223.67C69.7538 222.988 68.7813 223.853 68.7813 223.853C68.7813 223.853 69.123 222.49 69.0704 222.149C69.0179 221.834 67.6512 222.018 67.6512 222.018C67.6512 222.018 68.5711 220.812 68.4134 220.602C68.2557 220.392 66.4947 220.235 66.4947 220.235C66.4947 220.235 67.7037 219.291 67.1781 218.766C66.6524 218.242 65.2857 219.002 64.0767 219.448C62.8678 219.894 61.869 219.002 61.869 219.002C61.869 219.002 62.5786 217.508 62.894 215.83C63.2357 214.151 65.0492 212.814 64.7075 212.185C64.3659 211.556 63.5248 212.604 63.5248 212.604C63.5248 212.604 63.7351 211.241 64.4184 209.773C65.1018 208.304 66.2582 207.675 66.6787 207.334C67.073 206.993 66.3108 206.311 66.3108 206.311C66.3108 206.311 67.3621 205.997 67.6249 205.839C67.8614 205.682 67.7826 205.105 67.7826 205.105C67.7826 205.105 69.3332 204.948 70.2269 205.367C71.1467 205.787 70.9628 208.068 71.4884 208.776C71.6724 209.038 71.9878 209.117 72.3032 209.091C72.2243 208.357 71.8827 206.442 70.8839 204.764C69.5961 202.614 67.2044 202.772 66.6787 202.745C66.1531 202.719 66.337 201.67 66.8364 201.801Z" fill="#7EA21A"/>
<path d="M254.574 56.483C254.574 56.483 260.435 52.7858 267.005 56.9812C271.421 59.7868 271.946 69.7246 270.317 73.1071C268.687 76.4897 261.17 82.6516 261.17 82.6516C261.17 82.6516 232.969 62.1992 254.574 56.483Z" fill="#A5713D"/>
<path d="M235.755 114.983L235.676 129.536C235.676 129.536 218.25 129.745 217.147 129.457C216.043 129.169 210.392 124.737 209.814 124.475C209.236 124.239 208.684 124.475 208.894 125.157C209.104 125.838 209.971 127.989 209.971 127.989C209.971 127.989 205.714 127.517 205.319 127.281C204.925 127.045 202.376 125.078 201.85 124.921C201.324 124.763 200.431 125.104 200.667 125.655C200.904 126.206 203.322 129.326 203.322 129.326C203.322 129.326 202.823 132.656 204.084 133.862C205.346 135.068 211.259 136.065 214.124 136.274C216.989 136.458 238.777 139.237 240.617 139.159C242.43 139.08 245.085 138.503 246.031 134.622C246.951 130.716 247.266 115.796 247.266 115.796L235.755 114.983Z" fill="#DD866F"/>
<path d="M268.897 252.276V275.167H288.031C288.031 275.167 290.765 270.579 288.031 269.346C285.298 268.088 276.414 263.735 276.414 263.735L276.756 252.303H268.897V252.276Z" fill="#F69576"/>
<path d="M268.897 263.736V275.168H288.031C288.031 275.168 290.765 270.58 288.031 269.347C285.298 268.089 276.414 263.736 276.414 263.736H268.897Z" fill="#032240"/>
<path d="M268.897 272.86V275.168H288.031C288.031 275.168 288.662 274.093 289.03 272.86H268.897Z" fill="#BFBFBF"/>
<path d="M253.154 252.277L253.338 263.71C253.338 263.71 243.324 265.598 240.643 266.41C237.437 267.407 233.731 268.272 233.205 271.392C232.759 274.093 233.205 275.142 233.205 275.142H264.219L260.855 252.251H253.154V252.277Z" fill="#F69576"/>
<path d="M253.338 263.736C253.338 263.736 243.324 265.624 240.643 266.437C237.437 267.433 233.731 268.298 233.205 271.419C232.759 274.119 233.205 275.168 233.205 275.168H264.219L263.01 263.736H253.338Z" fill="#BFBFBF"/>
<path d="M233.206 271.419C233.127 271.969 233.074 272.441 233.022 272.861H263.982L263.036 263.736H253.338C253.338 263.736 243.324 265.624 240.644 266.437C237.437 267.407 233.705 268.298 233.206 271.419Z" fill="#032240"/>
<path d="M239.198 148.598C239.198 148.598 238.12 159.873 239.198 178.648C240.275 197.422 244.849 215.409 245.374 217.56C245.9 219.71 252.628 255.659 252.628 255.659H263.115C263.115 255.659 257.201 207.097 256.649 192.335C256.124 177.572 258.542 149.935 258.542 149.935L239.198 148.598Z" fill="#254B6B"/>
<path d="M277.649 149.936H255.335C255.335 149.936 253.6 194.538 255.335 196.609C257.07 198.681 262.326 207.071 263.141 213.522C263.956 219.972 266.111 255.633 266.111 255.633H277.649V149.936Z" fill="#254B6B"/>
<path d="M261.064 89.9409C249.947 89.7049 246.372 91.3831 244.033 96.5486C241.694 101.714 235.78 147.339 235.255 156.647C234.729 165.956 236.516 171.488 249.237 171.488C261.958 171.488 279.357 161.105 279.357 161.105C279.357 161.105 280.066 164.33 280.618 166.297C281.144 168.263 286.532 170.413 286.532 167.005C286.532 163.596 284.193 110.315 283.851 101.373C283.483 92.4319 269.501 90.0982 261.064 89.9409Z" fill="black"/>
<path d="M249.237 92.9835C244.848 91.8298 240.8 91.9084 237.594 98.3588C234.361 104.809 231.864 124.816 231.864 124.816L246.74 130.716C246.74 130.689 260.88 96.0251 249.237 92.9835Z" fill="black"/>
<path d="M257.253 89.0229C261.169 89.0229 265.821 89.39 268.239 90.9371C271.183 92.825 271.13 99.8785 258.199 100.455C245.268 101.032 245.689 95.0276 246.977 93.2445C248.869 90.6486 254.257 89.0229 257.253 89.0229Z" fill="#F69576"/>
<path d="M252.208 80.9217L249.684 97.0739H264.955C264.955 97.0739 264.219 90.6498 263.351 86.4806C262.484 82.3114 261.748 80.8955 261.748 80.8955H252.208V80.9217Z" fill="#F69576"/>
<path d="M258.857 85.326C258.857 85.326 258.989 88.3152 257.017 89.6001C255.046 90.9111 250.657 90.9111 250.657 90.9111L252.208 80.9209H258.647C258.647 80.9209 259.12 83.4381 258.857 85.326Z" fill="#DD866F"/>
<path d="M250.025 61.3345C250.025 61.3345 248.08 62.934 247.239 66.4476C246.582 69.1484 246.74 72.0589 246.398 73.7109C246.057 75.3366 245.505 77.9587 245.978 80.2137C246.451 82.4687 248.448 85.589 252.207 86.6379C255.939 87.6867 259.014 86.9263 261.09 84.3304C263.166 81.7345 265.716 77.0672 266.478 73.842C267.24 70.6168 267.661 64.481 264.218 61.8065C259.802 58.3453 254.519 58.3191 250.025 61.3345Z" fill="#F69576"/>
<path d="M256.832 79.5573C256.832 79.5573 256.464 81.7599 255.176 82.2057C253.862 82.6514 252.548 82.363 251.943 81.6288C251.339 80.8946 251.05 79.5049 251.05 79.5049L256.832 79.5573Z" fill="white"/>
<path d="M253.522 77.1199C253.101 77.0412 253.101 76.6477 253.128 76.4117C253.128 76.3854 253.128 76.3854 253.128 76.3592C253.101 76.3854 253.075 76.3854 253.075 76.4117C252.944 76.5166 252.681 76.7002 252.418 76.4379C252.313 76.333 252.26 76.1756 252.26 75.9657C252.286 75.546 252.549 74.9427 252.812 74.7591C252.865 74.7066 252.944 74.7328 252.996 74.7853C253.049 74.8378 253.022 74.9165 252.97 74.9689C252.786 75.1001 252.549 75.5985 252.523 75.992C252.523 76.1231 252.549 76.228 252.576 76.2805C252.681 76.3854 252.76 76.3592 252.917 76.228C252.996 76.1756 253.075 76.0969 253.18 76.0969C253.233 76.0969 253.285 76.0969 253.311 76.1493C253.39 76.228 253.39 76.333 253.364 76.4641C253.364 76.7527 253.39 76.8838 253.548 76.9101C253.627 76.9101 253.679 76.9101 253.706 76.8838C253.785 76.8314 253.785 76.6477 253.785 76.5428C253.785 76.4379 253.785 76.3854 253.837 76.333C253.863 76.2805 253.942 76.228 253.995 76.228C254.126 76.228 254.258 76.3067 254.442 76.4904C254.468 76.5166 254.52 76.5691 254.599 76.5428C254.678 76.5166 254.783 76.4117 254.81 76.2018C254.862 75.887 254.573 75.3099 254.468 75.1001C254.442 75.0476 254.468 74.9689 254.52 74.9165C254.573 74.8902 254.652 74.8902 254.704 74.9689C254.757 75.0476 255.178 75.8083 255.072 76.2543C255.02 76.5166 254.862 76.7264 254.678 76.7789C254.52 76.8314 254.389 76.7789 254.284 76.6477C254.179 76.5428 254.126 76.4904 254.074 76.4641C254.074 76.4904 254.074 76.5166 254.074 76.5428C254.074 76.7002 254.047 76.9363 253.89 77.0675C253.811 77.1199 253.732 77.1461 253.627 77.1461C253.601 77.1461 253.574 77.1461 253.522 77.1199Z" fill="#6B3425"/>
<path d="M272.207 71.4552C271.051 68.5709 262.614 71.193 264.165 76.4634C265.794 81.8912 273.916 75.703 272.207 71.4552Z" fill="#F69576"/>
<path d="M265.769 77.1465C265.795 77.1465 265.821 77.1465 265.848 77.1203C265.9 77.0678 265.9 76.9892 265.848 76.9367C265.506 76.5696 265.427 75.3635 265.874 74.1835C266.189 73.3444 266.978 71.9285 268.791 71.6925C269.764 71.5614 270.447 71.7449 270.841 72.1645C271.42 72.82 271.13 73.8951 271.13 73.8951C271.104 73.9737 271.157 74.0262 271.209 74.0524C271.288 74.0786 271.341 74.0262 271.367 73.9737C271.367 73.9213 271.682 72.7676 271.025 72.0072C270.579 71.509 269.816 71.2992 268.765 71.4303C267.346 71.6138 266.189 72.5578 265.637 74.0786C265.191 75.2586 265.217 76.5958 265.664 77.094C265.69 77.1203 265.716 77.1465 265.769 77.1465Z" fill="#6B3425"/>
<path d="M268.79 76.6731C268.843 76.6731 268.895 76.6468 268.895 76.5944C268.948 76.4895 269.868 74.1821 268.475 71.5862C268.448 71.5337 268.369 71.5075 268.317 71.5337C268.264 71.5599 268.238 71.6386 268.264 71.7173C269.605 74.2083 268.685 76.4895 268.659 76.5157C268.632 76.5682 268.659 76.6468 268.737 76.6731C268.764 76.6731 268.764 76.6731 268.79 76.6731Z" fill="#6B3425"/>
<path d="M257.7 74.6824C257.961 74.6824 258.173 74.2714 258.173 73.7643C258.173 73.2572 257.961 72.8462 257.7 72.8462C257.439 72.8462 257.227 73.2572 257.227 73.7643C257.227 74.2714 257.439 74.6824 257.7 74.6824Z" fill="#6B3425"/>
<path d="M259.854 71.3001C259.486 70.9854 258.75 70.5919 257.988 70.5132C257.147 70.4345 256.674 70.8017 256.332 70.8804C255.991 70.9591 255.964 70.5132 256.122 70.0935C256.306 69.7 257.016 69.4115 258.172 69.4377C259.329 69.4902 259.959 69.9886 260.275 70.3558C260.59 70.723 260.354 71.7198 259.854 71.3001Z" fill="#6B3425"/>
<path d="M250.578 74.4197C250.839 74.4197 251.051 74.0087 251.051 73.5016C251.051 72.9945 250.839 72.5835 250.578 72.5835C250.317 72.5835 250.105 72.9945 250.105 73.5016C250.105 74.0087 250.317 74.4197 250.578 74.4197Z" fill="#6B3425"/>
<path d="M252.286 70.959C251.918 70.6442 251.182 70.2507 250.42 70.172C249.579 70.0933 249.106 70.4606 248.764 70.5393C248.423 70.618 248.396 70.172 248.554 69.7523C248.712 69.3326 249.448 69.0703 250.604 69.0965C251.761 69.149 252.391 69.6474 252.707 70.0146C253.022 70.3819 252.786 71.3525 252.286 70.959Z" fill="#6B3425"/>
<path d="M249.289 82.2583L249.868 82.3894C249.868 82.3894 250.998 84.6182 251.918 85.0377C252.864 85.4573 255.939 85.2999 256.281 85.0377C256.596 84.7493 257.674 82.3107 257.674 82.3107L258.41 82.4943C258.41 82.4943 257.306 86.0341 257.148 86.3488C257.043 86.5323 254.993 87.9221 254.204 88.0007C253.416 88.0794 250.656 86.5586 250.525 86.2439C250.104 85.2213 249.289 82.2583 249.289 82.2583Z" fill="#6B3425"/>
<path d="M252.81 83.6482L254.177 83.5957L254.229 85.9828L253.178 86.1926L252.81 83.6482Z" fill="#6B3425"/>
<path d="M265.481 122.011L265.402 136.563C265.402 136.563 247.977 136.773 246.873 136.485C245.743 136.223 240.118 131.765 239.54 131.503C238.962 131.267 238.41 131.503 238.62 132.185C238.857 132.866 239.698 135.016 239.698 135.016C239.698 135.016 235.44 134.544 235.046 134.308C234.651 134.072 232.102 132.106 231.576 131.949C231.051 131.791 230.157 132.132 230.394 132.683C230.63 133.233 233.048 136.354 233.048 136.354C233.048 136.354 232.549 139.684 233.837 140.89C235.098 142.122 241.012 143.092 243.877 143.302C246.741 143.486 268.53 146.265 270.369 146.187C272.209 146.108 274.837 145.531 275.784 141.65C276.703 137.743 277.019 122.824 277.019 122.824L265.481 122.011Z" fill="#F69576"/>
<path opacity="0.4" d="M279.962 102.712L276.493 122.116L282.669 124.003L279.962 102.712Z" fill="#254B6B"/>
<path d="M264.955 57.9783C264.955 57.9783 261.749 63.7732 252.839 64.2714C234.284 65.3465 242.799 54.9629 242.799 54.9629C242.799 54.9629 242.142 57.7161 245.322 57.8735C249.685 58.0832 256.019 44.8416 264.955 57.9783Z" fill="#A5713D"/>
<path d="M142.899 118.628L143.004 134.256C143.004 134.256 161.717 134.466 162.926 134.178C164.135 133.889 170.18 129.091 170.811 128.828C171.441 128.566 172.046 128.828 171.809 129.563C171.573 130.297 170.627 132.604 170.627 132.604C170.627 132.604 175.226 132.08 175.62 131.844C176.041 131.608 178.774 129.484 179.352 129.3C179.931 129.117 180.877 129.484 180.64 130.087C180.404 130.69 177.802 134.02 177.802 134.02C177.802 134.02 178.327 137.586 176.961 138.897C175.594 140.208 169.234 141.283 166.159 141.493C163.057 141.703 139.64 144.666 137.695 144.587C135.75 144.509 132.885 143.906 131.886 139.71C130.888 135.515 130.546 119.467 130.546 119.467L142.899 118.628Z" fill="#DD866F"/>
<mask id="mask15_131_9604" style="mask-type:luminance" maskUnits="userSpaceOnUse" x="103" y="92" width="40" height="79">
<path d="M118.666 92.8275C118.666 92.8275 111.543 91.6476 106.47 99.0419C101.398 106.436 104.289 119.101 103.921 132.788C103.553 146.476 104.815 170.783 104.815 170.783H139.902C139.902 170.783 139.034 140.891 141.374 128.829C143.713 116.767 143.897 100.589 139.35 97.2851C134.777 93.9813 125.867 91.2805 118.666 92.8275Z" fill="white"/>
</mask>
<g mask="url(#mask15_131_9604)">
<path d="M118.666 92.8275C118.666 92.8275 111.543 91.6476 106.47 99.0419C101.398 106.436 104.289 119.101 103.921 132.788C103.553 146.476 104.815 170.783 104.815 170.783H139.902C139.902 170.783 139.034 140.891 141.374 128.829C143.713 116.767 143.897 100.589 139.35 97.2851C134.777 93.9813 125.867 91.2805 118.666 92.8275Z" fill="#FF6D00"/>
</g>
<mask id="mask16_131_9604" style="mask-type:luminance" maskUnits="userSpaceOnUse" x="103" y="92" width="40" height="79">
<path d="M118.666 92.8275C118.666 92.8275 111.543 91.6476 106.47 99.0419C101.398 106.436 104.289 119.101 103.921 132.788C103.553 146.476 104.815 170.783 104.815 170.783H139.902C139.902 170.783 139.034 140.891 141.374 128.829C143.713 116.767 143.897 100.589 139.35 97.2851C134.777 93.9813 125.867 91.2805 118.666 92.8275Z" fill="white"/>
</mask>
<g mask="url(#mask16_131_9604)">
<path d="M144.79 111.314H99.9255V112.599H144.79V111.314Z" fill="#512176"/>
</g>
<mask id="mask17_131_9604" style="mask-type:luminance" maskUnits="userSpaceOnUse" x="103" y="92" width="40" height="79">
<path d="M118.666 92.8275C118.666 92.8275 111.543 91.6476 106.47 99.0419C101.398 106.436 104.289 119.101 103.921 132.788C103.553 146.476 104.815 170.783 104.815 170.783H139.902C139.902 170.783 139.034 140.891 141.374 128.829C143.713 116.767 143.897 100.589 139.35 97.2851C134.777 93.9813 125.867 91.2805 118.666 92.8275Z" fill="white"/>
</mask>
<g mask="url(#mask17_131_9604)">
<path d="M109.704 90.835H108.258V173.458H109.704V90.835Z" fill="#512176"/>
</g>
<mask id="mask18_131_9604" style="mask-type:luminance" maskUnits="userSpaceOnUse" x="103" y="92" width="40" height="79">
<path d="M118.666 92.8275C118.666 92.8275 111.543 91.6476 106.47 99.0419C101.398 106.436 104.289 119.101 103.921 132.788C103.553 146.476 104.815 170.783 104.815 170.783H139.902C139.902 170.783 139.034 140.891 141.374 128.829C143.713 116.767 143.897 100.589 139.35 97.2851C134.777 93.9813 125.867 91.2805 118.666 92.8275Z" fill="white"/>
</mask>
<g mask="url(#mask18_131_9604)">
<path d="M144.79 116.742H99.9255V118.027H144.79V116.742Z" fill="#512176"/>
</g>
<mask id="mask19_131_9604" style="mask-type:luminance" maskUnits="userSpaceOnUse" x="103" y="92" width="40" height="79">
<path d="M118.666 92.8275C118.666 92.8275 111.543 91.6476 106.47 99.0419C101.398 106.436 104.289 119.101 103.921 132.788C103.553 146.476 104.815 170.783 104.815 170.783H139.902C139.902 170.783 139.034 140.891 141.374 128.829C143.713 116.767 143.897 100.589 139.35 97.2851C134.777 93.9813 125.867 91.2805 118.666 92.8275Z" fill="white"/>
</mask>
<g mask="url(#mask19_131_9604)">
<path d="M144.79 122.142H99.9255V123.427H144.79V122.142Z" fill="#512176"/>
</g>
<mask id="mask20_131_9604" style="mask-type:luminance" maskUnits="userSpaceOnUse" x="103" y="92" width="40" height="79">
<path d="M118.666 92.8275C118.666 92.8275 111.543 91.6476 106.47 99.0419C101.398 106.436 104.289 119.101 103.921 132.788C103.553 146.476 104.815 170.783 104.815 170.783H139.902C139.902 170.783 139.034 140.891 141.374 128.829C143.713 116.767 143.897 100.589 139.35 97.2851C134.777 93.9813 125.867 91.2805 118.666 92.8275Z" fill="white"/>
</mask>
<g mask="url(#mask20_131_9604)">
<path d="M144.79 95.082H99.9255V96.3674H144.79V95.082Z" fill="#512176"/>
</g>
<mask id="mask21_131_9604" style="mask-type:luminance" maskUnits="userSpaceOnUse" x="103" y="92" width="40" height="79">
<path d="M118.666 92.8275C118.666 92.8275 111.543 91.6476 106.47 99.0419C101.398 106.436 104.289 119.101 103.921 132.788C103.553 146.476 104.815 170.783 104.815 170.783H139.902C139.902 170.783 139.034 140.891 141.374 128.829C143.713 116.767 143.897 100.589 139.35 97.2851C134.777 93.9813 125.867 91.2805 118.666 92.8275Z" fill="white"/>
</mask>
<g mask="url(#mask21_131_9604)">
<path d="M144.79 100.484H99.9255V101.77H144.79V100.484Z" fill="#512176"/>
</g>
<mask id="mask22_131_9604" style="mask-type:luminance" maskUnits="userSpaceOnUse" x="103" y="92" width="40" height="79">
<path d="M118.666 92.8275C118.666 92.8275 111.543 91.6476 106.47 99.0419C101.398 106.436 104.289 119.101 103.921 132.788C103.553 146.476 104.815 170.783 104.815 170.783H139.902C139.902 170.783 139.034 140.891 141.374 128.829C143.713 116.767 143.897 100.589 139.35 97.2851C134.777 93.9813 125.867 91.2805 118.666 92.8275Z" fill="white"/>
</mask>
<g mask="url(#mask22_131_9604)">
<path d="M144.79 105.912H99.9255V107.197H144.79V105.912Z" fill="#512176"/>
</g>
<mask id="mask23_131_9604" style="mask-type:luminance" maskUnits="userSpaceOnUse" x="103" y="92" width="40" height="79">
<path d="M118.666 92.8275C118.666 92.8275 111.543 91.6476 106.47 99.0419C101.398 106.436 104.289 119.101 103.921 132.788C103.553 146.476 104.815 170.783 104.815 170.783H139.902C139.902 170.783 139.034 140.891 141.374 128.829C143.713 116.767 143.897 100.589 139.35 97.2851C134.777 93.9813 125.867 91.2805 118.666 92.8275Z" fill="white"/>
</mask>
<g mask="url(#mask23_131_9604)">
<path d="M144.79 143.827H99.9255V145.112H144.79V143.827Z" fill="#512176"/>
</g>
<mask id="mask24_131_9604" style="mask-type:luminance" maskUnits="userSpaceOnUse" x="103" y="92" width="40" height="79">
<path d="M118.666 92.8275C118.666 92.8275 111.543 91.6476 106.47 99.0419C101.398 106.436 104.289 119.101 103.921 132.788C103.553 146.476 104.815 170.783 104.815 170.783H139.902C139.902 170.783 139.034 140.891 141.374 128.829C143.713 116.767 143.897 100.589 139.35 97.2851C134.777 93.9813 125.867 91.2805 118.666 92.8275Z" fill="white"/>
</mask>
<g mask="url(#mask24_131_9604)">
<path d="M144.79 149.229H99.9255V150.515H144.79V149.229Z" fill="#512176"/>
</g>
<mask id="mask25_131_9604" style="mask-type:luminance" maskUnits="userSpaceOnUse" x="103" y="92" width="40" height="79">
<path d="M118.666 92.8275C118.666 92.8275 111.543 91.6476 106.47 99.0419C101.398 106.436 104.289 119.101 103.921 132.788C103.553 146.476 104.815 170.783 104.815 170.783H139.902C139.902 170.783 139.034 140.891 141.374 128.829C143.713 116.767 143.897 100.589 139.35 97.2851C134.777 93.9813 125.867 91.2805 118.666 92.8275Z" fill="white"/>
</mask>
<g mask="url(#mask25_131_9604)">
<path d="M144.79 154.657H99.9255V155.942H144.79V154.657Z" fill="#512176"/>
</g>
<mask id="mask26_131_9604" style="mask-type:luminance" maskUnits="userSpaceOnUse" x="103" y="92" width="40" height="79">
<path d="M118.666 92.8275C118.666 92.8275 111.543 91.6476 106.47 99.0419C101.398 106.436 104.289 119.101 103.921 132.788C103.553 146.476 104.815 170.783 104.815 170.783H139.902C139.902 170.783 139.034 140.891 141.374 128.829C143.713 116.767 143.897 100.589 139.35 97.2851C134.777 93.9813 125.867 91.2805 118.666 92.8275Z" fill="white"/>
</mask>
<g mask="url(#mask26_131_9604)">
<path d="M144.79 127.569H99.9255V128.855H144.79V127.569Z" fill="#512176"/>
</g>
<mask id="mask27_131_9604" style="mask-type:luminance" maskUnits="userSpaceOnUse" x="103" y="92" width="40" height="79">
<path d="M118.666 92.8275C118.666 92.8275 111.543 91.6476 106.47 99.0419C101.398 106.436 104.289 119.101 103.921 132.788C103.553 146.476 104.815 170.783 104.815 170.783H139.902C139.902 170.783 139.034 140.891 141.374 128.829C143.713 116.767 143.897 100.589 139.35 97.2851C134.777 93.9813 125.867 91.2805 118.666 92.8275Z" fill="white"/>
</mask>
<g mask="url(#mask27_131_9604)">
<path d="M144.79 132.972H99.9255V134.257H144.79V132.972Z" fill="#512176"/>
</g>
<mask id="mask28_131_9604" style="mask-type:luminance" maskUnits="userSpaceOnUse" x="103" y="92" width="40" height="79">
<path d="M118.666 92.8275C118.666 92.8275 111.543 91.6476 106.47 99.0419C101.398 106.436 104.289 119.101 103.921 132.788C103.553 146.476 104.815 170.783 104.815 170.783H139.902C139.902 170.783 139.034 140.891 141.374 128.829C143.713 116.767 143.897 100.589 139.35 97.2851C134.777 93.9813 125.867 91.2805 118.666 92.8275Z" fill="white"/>
</mask>
<g mask="url(#mask28_131_9604)">
<path d="M144.79 138.399H99.9255V139.685H144.79V138.399Z" fill="#512176"/>
</g>
<mask id="mask29_131_9604" style="mask-type:luminance" maskUnits="userSpaceOnUse" x="103" y="92" width="40" height="79">
<path d="M118.666 92.8275C118.666 92.8275 111.543 91.6476 106.47 99.0419C101.398 106.436 104.289 119.101 103.921 132.788C103.553 146.476 104.815 170.783 104.815 170.783H139.902C139.902 170.783 139.034 140.891 141.374 128.829C143.713 116.767 143.897 100.589 139.35 97.2851C134.777 93.9813 125.867 91.2805 118.666 92.8275Z" fill="white"/>
</mask>
<g mask="url(#mask29_131_9604)">
<path d="M144.79 165.487H99.9255V166.772H144.79V165.487Z" fill="#512176"/>
</g>
<mask id="mask30_131_9604" style="mask-type:luminance" maskUnits="userSpaceOnUse" x="103" y="92" width="40" height="79">
<path d="M118.666 92.8275C118.666 92.8275 111.543 91.6476 106.47 99.0419C101.398 106.436 104.289 119.101 103.921 132.788C103.553 146.476 104.815 170.783 104.815 170.783H139.902C139.902 170.783 139.034 140.891 141.374 128.829C143.713 116.767 143.897 100.589 139.35 97.2851C134.777 93.9813 125.867 91.2805 118.666 92.8275Z" fill="white"/>
</mask>
<g mask="url(#mask30_131_9604)">
<path d="M144.79 160.059H99.9255V161.344H144.79V160.059Z" fill="#512176"/>
</g>
<mask id="mask31_131_9604" style="mask-type:luminance" maskUnits="userSpaceOnUse" x="103" y="92" width="40" height="79">
<path d="M118.666 92.8275C118.666 92.8275 111.543 91.6476 106.47 99.0419C101.398 106.436 104.289 119.101 103.921 132.788C103.553 146.476 104.815 170.783 104.815 170.783H139.902C139.902 170.783 139.034 140.891 141.374 128.829C143.713 116.767 143.897 100.589 139.35 97.2851C134.777 93.9813 125.867 91.2805 118.666 92.8275Z" fill="white"/>
</mask>
<g mask="url(#mask31_131_9604)">
<path d="M115.116 90.835H113.671V173.458H115.116V90.835Z" fill="#512176"/>
</g>
<mask id="mask32_131_9604" style="mask-type:luminance" maskUnits="userSpaceOnUse" x="103" y="92" width="40" height="79">
<path d="M118.666 92.8275C118.666 92.8275 111.543 91.6476 106.47 99.0419C101.398 106.436 104.289 119.101 103.921 132.788C103.553 146.476 104.815 170.783 104.815 170.783H139.902C139.902 170.783 139.034 140.891 141.374 128.829C143.713 116.767 143.897 100.589 139.35 97.2851C134.777 93.9813 125.867 91.2805 118.666 92.8275Z" fill="white"/>
</mask>
<g mask="url(#mask32_131_9604)">
<path d="M120.559 90.835H119.113V173.458H120.559V90.835Z" fill="#512176"/>
</g>
<mask id="mask33_131_9604" style="mask-type:luminance" maskUnits="userSpaceOnUse" x="103" y="92" width="40" height="79">
<path d="M118.666 92.8275C118.666 92.8275 111.543 91.6476 106.47 99.0419C101.398 106.436 104.289 119.101 103.921 132.788C103.553 146.476 104.815 170.783 104.815 170.783H139.902C139.902 170.783 139.034 140.891 141.374 128.829C143.713 116.767 143.897 100.589 139.35 97.2851C134.777 93.9813 125.867 91.2805 118.666 92.8275Z" fill="white"/>
</mask>
<g mask="url(#mask33_131_9604)">
<path d="M125.971 90.835H124.526V173.458H125.971V90.835Z" fill="#512176"/>
</g>
<mask id="mask34_131_9604" style="mask-type:luminance" maskUnits="userSpaceOnUse" x="103" y="92" width="40" height="79">
<path d="M118.666 92.8275C118.666 92.8275 111.543 91.6476 106.47 99.0419C101.398 106.436 104.289 119.101 103.921 132.788C103.553 146.476 104.815 170.783 104.815 170.783H139.902C139.902 170.783 139.034 140.891 141.374 128.829C143.713 116.767 143.897 100.589 139.35 97.2851C134.777 93.9813 125.867 91.2805 118.666 92.8275Z" fill="white"/>
</mask>
<g mask="url(#mask34_131_9604)">
<path d="M131.412 90.835H129.966V173.458H131.412V90.835Z" fill="#512176"/>
</g>
<mask id="mask35_131_9604" style="mask-type:luminance" maskUnits="userSpaceOnUse" x="103" y="92" width="40" height="79">
<path d="M118.666 92.8275C118.666 92.8275 111.543 91.6476 106.47 99.0419C101.398 106.436 104.289 119.101 103.921 132.788C103.553 146.476 104.815 170.783 104.815 170.783H139.902C139.902 170.783 139.034 140.891 141.374 128.829C143.713 116.767 143.897 100.589 139.35 97.2851C134.777 93.9813 125.867 91.2805 118.666 92.8275Z" fill="white"/>
</mask>
<g mask="url(#mask35_131_9604)">
<path d="M136.827 90.835H135.381V173.458H136.827V90.835Z" fill="#512176"/>
</g>
<mask id="mask36_131_9604" style="mask-type:luminance" maskUnits="userSpaceOnUse" x="103" y="92" width="40" height="79">
<path d="M118.666 92.8275C118.666 92.8275 111.543 91.6476 106.47 99.0419C101.398 106.436 104.289 119.101 103.921 132.788C103.553 146.476 104.815 170.783 104.815 170.783H139.902C139.902 170.783 139.034 140.891 141.374 128.829C143.713 116.767 143.897 100.589 139.35 97.2851C134.777 93.9813 125.867 91.2805 118.666 92.8275Z" fill="white"/>
</mask>
<g mask="url(#mask36_131_9604)">
<path d="M142.267 90.835H140.821V173.458H142.267V90.835Z" fill="#512176"/>
</g>
<path d="M130.572 56.9305C130.572 56.9305 124.29 52.9711 117.194 57.4811C112.437 60.4966 112.989 70.8277 113.646 74.8133C115.17 84.2266 123.475 85.0657 123.475 85.0657C123.475 85.0657 153.805 63.0662 130.572 56.9305Z" fill="black"/>
<path d="M127.708 91.9092C123.502 91.9092 118.509 92.3025 115.907 93.9806C127.208 100.615 134.383 105.544 134.383 105.544C134.383 105.544 140.192 98.3596 138.772 96.4454C136.722 93.666 130.914 91.9354 127.708 91.9092Z" fill="#F69576"/>
<path d="M133.122 83.231L135.829 100.616L124.921 98.7538C124.921 98.7538 118.64 97.2068 119.56 92.723C120.48 88.2392 122.845 83.2572 122.845 83.2572H133.122V83.231Z" fill="#F69576"/>
<path d="M125.947 87.9503C125.947 87.9503 125.815 91.1492 127.944 92.5652C130.073 93.9549 134.778 93.9811 134.778 93.9811L133.095 83.2305H126.157C126.183 83.2305 125.684 85.9312 125.947 87.9503Z" fill="#DD866F"/>
<path d="M135.461 62.1493C135.461 62.1493 137.537 63.8537 138.457 67.6557C139.14 70.5663 139.009 73.7128 139.351 75.4696C139.718 77.2264 140.297 80.0321 139.797 82.4706C139.298 84.9092 137.116 88.2393 133.095 89.3668C129.074 90.4943 125.762 89.6814 123.555 86.8758C121.347 84.0701 118.587 79.0619 117.773 75.6007C116.958 72.1395 116.511 65.5318 120.217 62.6475C124.948 58.9503 130.625 58.8979 135.461 62.1493Z" fill="#F69576"/>
<path d="M128.155 81.736C128.155 81.736 128.549 84.0959 129.942 84.5941C131.335 85.0923 132.781 84.7515 133.411 83.9648C134.042 83.1782 134.384 81.6836 134.384 81.6836L128.155 81.736Z" fill="white"/>
<path d="M131.596 79.1413C131.491 79.1413 131.386 79.1151 131.307 79.0626C131.123 78.9314 131.123 78.6691 131.123 78.4855C131.123 78.4593 131.123 78.433 131.123 78.4068C131.097 78.433 131.018 78.4855 130.913 78.5904C130.808 78.7216 130.624 78.774 130.466 78.7216C130.256 78.6691 130.098 78.4593 130.046 78.1707C129.941 77.6723 130.387 76.8854 130.44 76.7804C130.466 76.728 130.571 76.7017 130.624 76.728C130.677 76.7542 130.703 76.8591 130.677 76.9116C130.545 77.1215 130.23 77.7772 130.309 78.092C130.361 78.3281 130.466 78.433 130.545 78.4593C130.624 78.4855 130.677 78.433 130.703 78.4068C130.887 78.197 131.044 78.092 131.176 78.1183C131.255 78.1183 131.307 78.1707 131.36 78.2232C131.386 78.2756 131.386 78.3543 131.412 78.4593C131.412 78.5904 131.412 78.7741 131.518 78.8265C131.544 78.8527 131.623 78.8527 131.702 78.8527C131.886 78.8265 131.912 78.6691 131.912 78.3806C131.912 78.2232 131.912 78.1183 131.991 78.0396C132.017 78.0133 132.096 77.9871 132.148 77.9871C132.253 77.9871 132.332 78.0658 132.437 78.1183C132.621 78.2494 132.674 78.2756 132.805 78.1707C132.858 78.1183 132.884 78.0133 132.884 77.8822C132.858 77.4625 132.595 76.9378 132.385 76.7804C132.332 76.728 132.306 76.6493 132.359 76.5968C132.411 76.5444 132.49 76.5181 132.543 76.5706C132.832 76.7804 133.121 77.41 133.147 77.8559C133.173 78.092 133.121 78.2494 132.989 78.3806C132.7 78.6429 132.437 78.4593 132.28 78.3543C132.253 78.3281 132.227 78.3281 132.227 78.3019C132.227 78.3281 132.227 78.3543 132.227 78.3543C132.227 78.5904 132.253 79.0364 131.807 79.1151C131.649 79.1413 131.623 79.1413 131.596 79.1413Z" fill="#6B3425"/>
<path d="M111.596 73.0575C112.831 69.9634 121.925 72.7691 120.243 78.459C118.508 84.2539 109.756 77.5937 111.596 73.0575Z" fill="#F69576"/>
<path d="M118.535 79.1398C118.509 79.1398 118.483 79.1398 118.456 79.1136C118.404 79.0612 118.404 78.9825 118.456 78.9301C118.824 78.5367 118.903 77.2257 118.43 75.9671C118.088 75.0756 117.247 73.5547 115.302 73.2925C114.251 73.1614 113.515 73.345 113.095 73.817C112.49 74.5249 112.779 75.6787 112.779 75.6787C112.806 75.7573 112.753 75.836 112.674 75.836C112.595 75.8622 112.517 75.8098 112.517 75.7311C112.49 75.6787 112.175 74.4463 112.884 73.6334C113.358 73.0828 114.172 72.873 115.329 73.0303C116.853 73.2139 118.088 74.2627 118.693 75.8622C119.166 77.147 119.14 78.563 118.667 79.0874C118.614 79.1398 118.588 79.1398 118.535 79.1398Z" fill="#6B3425"/>
<path d="M115.275 78.6421C115.222 78.6421 115.169 78.6159 115.143 78.5634C115.091 78.4585 114.092 75.9675 115.59 73.1619C115.616 73.0832 115.695 73.0832 115.774 73.1094C115.853 73.1357 115.853 73.2143 115.826 73.293C114.381 75.9675 115.38 78.4323 115.406 78.4585C115.432 78.5372 115.406 78.6159 115.327 78.6421C115.327 78.6421 115.301 78.6421 115.275 78.6421Z" fill="#6B3425"/>
<path d="M127.208 76.4926C127.484 76.4926 127.707 76.0463 127.707 75.4958C127.707 74.9453 127.484 74.499 127.208 74.499C126.932 74.499 126.709 74.9453 126.709 75.4958C126.709 76.0463 126.932 76.4926 127.208 76.4926Z" fill="#6B3425"/>
<path d="M123.581 72.4809C124.107 72.0089 125.158 71.4321 126.236 71.3272C127.419 71.1961 128.102 71.773 128.601 71.8778C129.101 71.9827 129.127 71.3272 128.89 70.7241C128.628 70.121 127.629 69.7015 125.973 69.7539C124.317 69.8064 123.45 70.593 123.003 71.1174C122.53 71.6418 122.872 73.1102 123.581 72.4809Z" fill="black"/>
<path d="M134.857 76.2573C135.133 76.2573 135.356 75.811 135.356 75.2605C135.356 74.71 135.133 74.2637 134.857 74.2637C134.581 74.2637 134.357 74.71 134.357 75.2605C134.357 75.811 134.581 76.2573 134.857 76.2573Z" fill="#6B3425"/>
<path d="M133.017 72.27C133.411 71.7718 134.2 71.1687 135.041 71.0376C135.934 70.9065 136.46 71.5096 136.828 71.6407C137.196 71.7718 137.249 71.0376 137.038 70.4083C136.854 69.779 136.066 69.307 134.831 69.3594C133.595 69.4381 132.912 70.251 132.57 70.8016C132.229 71.3523 132.491 72.9255 133.017 72.27Z" fill="black"/>
<path d="M104.788 170.809C104.788 170.809 102.791 185.388 102.607 196.689C102.423 207.99 103.159 216.197 102.607 217.482C102.055 218.767 100.057 229.885 99.1375 239.193C98.2176 248.502 96.2202 270.921 96.2202 270.921H111.701C111.701 270.921 113.751 237.725 115.038 235.548C116.326 233.372 122.897 201.461 122.897 201.461C122.897 201.461 127.102 222.071 126.918 223.88C126.734 225.716 126.208 237.751 126.918 244.49C127.654 251.229 131.307 270.921 131.307 270.921H146.63L143.371 234.447C143.371 234.447 142.845 224.981 142.293 213.47C141.741 201.985 139.928 170.809 139.928 170.809H104.788Z" fill="#2F535E"/>
<path d="M159.297 271.445C161.242 272.231 160.874 277.187 160.874 277.187L132.647 276.768C132.516 275.535 132.647 270.081 132.647 270.081H145.683C145.683 270.107 154.12 269.399 159.297 271.445Z" fill="#493835"/>
<path d="M120.977 273.254C122.528 274.618 122.134 278.053 122.134 278.053L96.8763 278.42L97.8224 270.947H108.283C108.283 270.92 118.98 271.523 120.977 273.254Z" fill="#493835"/>
<path d="M108.258 97.2839C108.258 97.2839 110.991 95.0814 114.592 99.5914C118.193 104.101 120.427 128.828 120.427 128.828H124.264C124.264 128.828 123.239 108.218 120.532 102.817C117.825 97.415 113.147 93.5605 113.147 93.5605L108.258 97.2839Z" fill="#2F535E"/>
<path d="M122.449 124.895H142.004L139.875 170.808C139.875 170.808 116.142 170.992 115.879 170.887C115.642 170.808 122.449 124.895 122.449 124.895Z" fill="#2F535E"/>
<path d="M138.772 96.4727C138.772 96.4727 141.795 100.511 142.031 105.912C142.268 111.34 140.822 126.076 140.822 126.076H142.057C142.057 126.076 147.025 101.088 138.772 96.4727Z" fill="#2F535E"/>
<path d="M132.517 60.1816C132.517 60.1816 130.677 63.9574 125.499 65.7667C120.322 67.5759 116.116 69.6212 116.116 69.6212C116.116 69.6212 115.197 62.5677 120.9 60.1816C126.629 57.7955 132.517 60.1816 132.517 60.1816Z" fill="black"/>
<path d="M157.092 124.37C155.699 123.032 154.805 122.272 154.358 121.223C153.911 120.174 154.069 118.312 154.069 118.312H152.676H151.625H150.232C150.232 118.312 150.39 120.148 149.943 121.223C149.496 122.272 148.602 123.032 147.209 124.37C145.816 125.707 146.132 127.175 146.079 127.909C146.053 128.644 146.237 157.67 146.237 157.67H151.625H152.676H158.064C158.064 157.67 158.248 128.617 158.222 127.909C158.169 127.175 158.485 125.707 157.092 124.37Z" fill="black"/>
<path d="M154.438 109.057H149.812V112.282H154.438V109.057Z" fill="#512176"/>
<path d="M154.095 111.103H150.179V119.467H154.095V111.103Z" fill="#512176"/>
<path d="M156.145 132.08H148.102V143.066H156.145V132.08Z" fill="white"/>
<path d="M169.864 124.37C168.471 123.032 167.578 122.272 167.131 121.223C166.684 120.174 166.842 118.312 166.842 118.312H165.449H164.398H163.005C163.005 118.312 163.162 120.148 162.715 121.223C162.269 122.272 161.375 123.032 159.982 124.37C158.589 125.707 158.905 127.175 158.852 127.909C158.826 128.644 159.01 157.67 159.01 157.67H164.398H165.449H170.837C170.837 157.67 171.021 128.617 170.994 127.909C170.968 127.175 171.284 125.707 169.864 124.37Z" fill="black"/>
<path d="M167.236 109.057H162.61V112.282H167.236V109.057Z" fill="#512176"/>
<path d="M166.868 111.103H162.952V119.467H166.868V111.103Z" fill="#512176"/>
<path d="M168.945 132.08H160.903V143.066H168.945V132.08Z" fill="white"/>
<path d="M182.9 124.37C181.507 123.032 180.614 122.272 180.167 121.223C179.72 120.174 179.878 118.312 179.878 118.312H178.485H177.433H176.04C176.04 118.312 176.198 120.148 175.751 121.223C175.305 122.272 174.411 123.032 173.018 124.37C171.625 125.707 171.94 127.175 171.888 127.909C171.862 128.644 172.046 157.67 172.046 157.67H177.407H178.458H183.846C183.846 157.67 184.03 128.617 184.004 127.909C183.978 127.175 184.293 125.707 182.9 124.37Z" fill="black"/>
<path d="M180.246 109.057H175.62V112.282H180.246V109.057Z" fill="#512176"/>
<path d="M179.904 111.103H175.988V119.467H179.904V111.103Z" fill="#512176"/>
<path d="M181.953 132.08H173.911V143.066H181.953V132.08Z" fill="white"/>
<path d="M195.675 124.37C194.282 123.032 193.388 122.272 192.942 121.223C192.495 120.174 192.652 118.312 192.652 118.312H191.259H190.208H188.815C188.815 118.312 188.973 120.148 188.526 121.223C188.079 122.272 187.186 123.032 185.793 124.37C184.4 125.707 184.715 127.175 184.663 127.909C184.636 128.644 184.82 157.67 184.82 157.67H190.208H191.259H196.647C196.647 157.67 196.831 128.617 196.805 127.909C196.779 127.175 197.094 125.707 195.675 124.37Z" fill="black"/>
<path d="M193.046 109.057H188.421V112.282H193.046V109.057Z" fill="#512176"/>
<path d="M192.679 111.103H188.763V119.467H192.679V111.103Z" fill="#512176"/>
<path d="M194.756 132.08H186.713V143.066H194.756V132.08Z" fill="white"/>
<path d="M208.974 124.37C207.581 123.032 206.688 122.272 206.241 121.223C205.794 120.174 205.952 118.312 205.952 118.312H204.559H203.507H202.114C202.114 118.312 202.272 120.148 201.825 121.223C201.378 122.272 200.485 123.032 199.092 124.37C197.699 125.707 198.014 127.175 197.962 127.909C197.935 128.644 198.119 157.67 198.119 157.67H203.507H204.559H209.947C209.947 157.67 210.131 128.617 210.104 127.909C210.052 127.175 210.367 125.707 208.974 124.37Z" fill="black"/>
<path d="M206.32 109.057H201.694V112.282H206.32V109.057Z" fill="#512176"/>
<path d="M205.952 111.103H202.036V119.467H205.952V111.103Z" fill="#512176"/>
<path d="M208.027 132.08H199.985V143.066H208.027V132.08Z" fill="white"/>
<path d="M211.759 148.704H144.344V158.825H211.759V148.704Z" fill="#DBAC73"/>
<path d="M212.784 128.225H143.214V132.079H212.784V128.225Z" fill="#DBAC73"/>
<path d="M190.733 130.166L160.903 153.765H167.237L197.935 130.166H190.733Z" fill="#DBAC73"/>
<path d="M147.052 130.166H145.081V154.447H147.052V130.166Z" fill="#DBAC73"/>
<path d="M210.235 130.166H208.264V154.447H210.235V130.166Z" fill="#DBAC73"/>
<path d="M118.823 127.385L118.928 143.013C118.928 143.013 137.641 143.223 138.85 142.934C140.059 142.646 146.104 137.847 146.735 137.585C147.366 137.323 147.97 137.585 147.734 138.319C147.497 139.054 146.551 141.361 146.551 141.361C146.551 141.361 151.15 140.837 151.545 140.601C151.965 140.365 154.698 138.241 155.277 138.057C155.855 137.874 156.801 138.241 156.565 138.844C156.302 139.447 153.726 142.777 153.726 142.777C153.726 142.777 154.252 146.343 152.885 147.654C151.518 148.965 145.158 150.04 142.083 150.25C138.982 150.46 115.564 153.423 113.619 153.344C111.674 153.265 108.809 152.662 107.81 148.467C106.812 144.272 106.47 128.224 106.47 128.224L118.823 127.385Z" fill="#F69576"/>
</svg>
