<svg width="375" height="307" viewBox="0 0 375 307" fill="none" xmlns="http://www.w3.org/2000/svg">
<path d="M170.118 54.1828C188.256 57.62 222.432 -12.541 260.256 2.93951C298.081 18.4201 270.283 68.2989 283.775 79.4764C297.267 90.6539 334.225 56.2556 349.765 92.3856C365.304 128.516 341.68 167.217 341.339 173.226C340.998 179.234 383.941 211.533 372.024 256.007C360.107 300.481 201.853 304.784 145.365 306.49C88.8778 308.195 13.3599 308.064 2.23041 261.701C-8.89909 215.338 41.6561 174.957 46.3284 161.996C51.0007 149.034 8.71387 103.93 61.7365 48.4891C102.763 5.58957 151.98 50.7456 170.118 54.1828Z" fill="#C6AEA3"/>
<mask id="mask0_131_1880" style="mask-type:luminance" maskUnits="userSpaceOnUse" x="0" y="0" width="375" height="307">
<path d="M170.319 54.2291C188.484 57.6654 222.712 -12.4773 260.594 2.99923C298.476 18.4757 270.636 68.3416 284.149 79.5162C297.661 90.6908 334.675 56.3014 350.238 92.422C365.801 128.543 342.141 167.234 341.8 173.241C341.458 179.248 384.466 211.539 372.531 256.001C360.596 300.463 202.102 304.765 145.529 306.47C88.9558 308.175 13.3235 308.044 2.17716 261.693C-8.9692 215.342 41.6626 174.972 46.342 162.014C51.0214 149.056 8.67045 103.964 61.7734 48.5369C102.862 5.6486 152.154 50.7928 170.319 54.2291Z" fill="white"/>
</mask>
<g mask="url(#mask0_131_1880)">
<path d="M68.8956 -11.771H55.8564V225.99H68.8956V-11.771Z" fill="#BF977C"/>
</g>
<mask id="mask1_131_1880" style="mask-type:luminance" maskUnits="userSpaceOnUse" x="0" y="0" width="375" height="307">
<path d="M170.319 54.2291C188.484 57.6654 222.712 -12.4773 260.594 2.99923C298.476 18.4757 270.636 68.3416 284.149 79.5162C297.661 90.6908 334.675 56.3014 350.238 92.422C365.801 128.543 342.141 167.234 341.8 173.241C341.458 179.248 384.466 211.539 372.531 256.001C360.596 300.463 202.102 304.765 145.529 306.47C88.9558 308.175 13.3235 308.044 2.17716 261.693C-8.9692 215.342 41.6626 174.972 46.342 162.014C51.0214 149.056 8.67045 103.964 61.7734 48.5369C102.862 5.6486 152.154 50.7928 170.319 54.2291Z" fill="white"/>
</mask>
<g mask="url(#mask1_131_1880)">
<path d="M88.0078 -11.771H83.5913V225.99H88.0078V-11.771Z" fill="#BF977C"/>
</g>
<mask id="mask2_131_1880" style="mask-type:luminance" maskUnits="userSpaceOnUse" x="0" y="0" width="375" height="307">
<path d="M170.319 54.2291C188.484 57.6654 222.712 -12.4773 260.594 2.99923C298.476 18.4757 270.636 68.3416 284.149 79.5162C297.661 90.6908 334.675 56.3014 350.238 92.422C365.801 128.543 342.141 167.234 341.8 173.241C341.458 179.248 384.466 211.539 372.531 256.001C360.596 300.463 202.102 304.765 145.529 306.47C88.9558 308.175 13.3235 308.044 2.17716 261.693C-8.9692 215.342 41.6626 174.972 46.342 162.014C51.0214 149.056 8.67045 103.964 61.7734 48.5369C102.862 5.6486 152.154 50.7928 170.319 54.2291Z" fill="white"/>
</mask>
<g mask="url(#mask2_131_1880)">
<path d="M120.37 -11.771H107.331V225.99H120.37V-11.771Z" fill="#BF977C"/>
</g>
<mask id="mask3_131_1880" style="mask-type:luminance" maskUnits="userSpaceOnUse" x="0" y="0" width="375" height="307">
<path d="M170.319 54.2291C188.484 57.6654 222.712 -12.4773 260.594 2.99923C298.476 18.4757 270.636 68.3416 284.149 79.5162C297.661 90.6908 334.675 56.3014 350.238 92.422C365.801 128.543 342.141 167.234 341.8 173.241C341.458 179.248 384.466 211.539 372.531 256.001C360.596 300.463 202.102 304.765 145.529 306.47C88.9558 308.175 13.3235 308.044 2.17716 261.693C-8.9692 215.342 41.6626 174.972 46.342 162.014C51.0214 149.056 8.67045 103.964 61.7734 48.5369C102.862 5.6486 152.154 50.7928 170.319 54.2291Z" fill="white"/>
</mask>
<g mask="url(#mask3_131_1880)">
<path d="M139.482 -11.771H135.066V225.99H139.482V-11.771Z" fill="#BF977C"/>
</g>
<mask id="mask4_131_1880" style="mask-type:luminance" maskUnits="userSpaceOnUse" x="0" y="0" width="375" height="307">
<path d="M170.319 54.2291C188.484 57.6654 222.712 -12.4773 260.594 2.99923C298.476 18.4757 270.636 68.3416 284.149 79.5162C297.661 90.6908 334.675 56.3014 350.238 92.422C365.801 128.543 342.141 167.234 341.8 173.241C341.458 179.248 384.466 211.539 372.531 256.001C360.596 300.463 202.102 304.765 145.529 306.47C88.9558 308.175 13.3235 308.044 2.17716 261.693C-8.9692 215.342 41.6626 174.972 46.342 162.014C51.0214 149.056 8.67045 103.964 61.7734 48.5369C102.862 5.6486 152.154 50.7928 170.319 54.2291Z" fill="white"/>
</mask>
<g mask="url(#mask4_131_1880)">
<path d="M171.87 -11.771H158.831V225.99H171.87V-11.771Z" fill="#BF977C"/>
</g>
<mask id="mask5_131_1880" style="mask-type:luminance" maskUnits="userSpaceOnUse" x="0" y="0" width="375" height="307">
<path d="M170.319 54.2291C188.484 57.6654 222.712 -12.4773 260.594 2.99923C298.476 18.4757 270.636 68.3416 284.149 79.5162C297.661 90.6908 334.675 56.3014 350.238 92.422C365.801 128.543 342.141 167.234 341.8 173.241C341.458 179.248 384.466 211.539 372.531 256.001C360.596 300.463 202.102 304.765 145.529 306.47C88.9558 308.175 13.3235 308.044 2.17716 261.693C-8.9692 215.342 41.6626 174.972 46.342 162.014C51.0214 149.056 8.67045 103.964 61.7734 48.5369C102.862 5.6486 152.154 50.7928 170.319 54.2291Z" fill="white"/>
</mask>
<g mask="url(#mask5_131_1880)">
<path d="M190.982 -11.771H186.565V225.99H190.982V-11.771Z" fill="#BF977C"/>
</g>
<mask id="mask6_131_1880" style="mask-type:luminance" maskUnits="userSpaceOnUse" x="0" y="0" width="375" height="307">
<path d="M170.319 54.2291C188.484 57.6654 222.712 -12.4773 260.594 2.99923C298.476 18.4757 270.636 68.3416 284.149 79.5162C297.661 90.6908 334.675 56.3014 350.238 92.422C365.801 128.543 342.141 167.234 341.8 173.241C341.458 179.248 384.466 211.539 372.531 256.001C360.596 300.463 202.102 304.765 145.529 306.47C88.9558 308.175 13.3235 308.044 2.17716 261.693C-8.9692 215.342 41.6626 174.972 46.342 162.014C51.0214 149.056 8.67045 103.964 61.7734 48.5369C102.862 5.6486 152.154 50.7928 170.319 54.2291Z" fill="white"/>
</mask>
<g mask="url(#mask6_131_1880)">
<path d="M223.34 -11.771H210.301V225.99H223.34V-11.771Z" fill="#BF977C"/>
</g>
<mask id="mask7_131_1880" style="mask-type:luminance" maskUnits="userSpaceOnUse" x="0" y="0" width="375" height="307">
<path d="M170.319 54.2291C188.484 57.6654 222.712 -12.4773 260.594 2.99923C298.476 18.4757 270.636 68.3416 284.149 79.5162C297.661 90.6908 334.675 56.3014 350.238 92.422C365.801 128.543 342.141 167.234 341.8 173.241C341.458 179.248 384.466 211.539 372.531 256.001C360.596 300.463 202.102 304.765 145.529 306.47C88.9558 308.175 13.3235 308.044 2.17716 261.693C-8.9692 215.342 41.6626 174.972 46.342 162.014C51.0214 149.056 8.67045 103.964 61.7734 48.5369C102.862 5.6486 152.154 50.7928 170.319 54.2291Z" fill="white"/>
</mask>
<g mask="url(#mask7_131_1880)">
<path d="M242.453 -11.771H238.036V225.99H242.453V-11.771Z" fill="#BF977C"/>
</g>
<mask id="mask8_131_1880" style="mask-type:luminance" maskUnits="userSpaceOnUse" x="0" y="0" width="375" height="307">
<path d="M170.319 54.2291C188.484 57.6654 222.712 -12.4773 260.594 2.99923C298.476 18.4757 270.636 68.3416 284.149 79.5162C297.661 90.6908 334.675 56.3014 350.238 92.422C365.801 128.543 342.141 167.234 341.8 173.241C341.458 179.248 384.466 211.539 372.531 256.001C360.596 300.463 202.102 304.765 145.529 306.47C88.9558 308.175 13.3235 308.044 2.17716 261.693C-8.9692 215.342 41.6626 174.972 46.342 162.014C51.0214 149.056 8.67045 103.964 61.7734 48.5369C102.862 5.6486 152.154 50.7928 170.319 54.2291Z" fill="white"/>
</mask>
<g mask="url(#mask8_131_1880)">
<path d="M271.685 -11.771H258.646V225.99H271.685V-11.771Z" fill="#BF977C"/>
</g>
<mask id="mask9_131_1880" style="mask-type:luminance" maskUnits="userSpaceOnUse" x="0" y="0" width="375" height="307">
<path d="M170.319 54.2291C188.484 57.6654 222.712 -12.4773 260.594 2.99923C298.476 18.4757 270.636 68.3416 284.149 79.5162C297.661 90.6908 334.675 56.3014 350.238 92.422C365.801 128.543 342.141 167.234 341.8 173.241C341.458 179.248 384.466 211.539 372.531 256.001C360.596 300.463 202.102 304.765 145.529 306.47C88.9558 308.175 13.3235 308.044 2.17716 261.693C-8.9692 215.342 41.6626 174.972 46.342 162.014C51.0214 149.056 8.67045 103.964 61.7734 48.5369C102.862 5.6486 152.154 50.7928 170.319 54.2291Z" fill="white"/>
</mask>
<g mask="url(#mask9_131_1880)">
<path d="M290.796 -11.771H286.38V225.99H290.796V-11.771Z" fill="#BF977C"/>
</g>
<mask id="mask10_131_1880" style="mask-type:luminance" maskUnits="userSpaceOnUse" x="0" y="0" width="375" height="307">
<path d="M170.319 54.2291C188.484 57.6654 222.712 -12.4773 260.594 2.99923C298.476 18.4757 270.636 68.3416 284.149 79.5162C297.661 90.6908 334.675 56.3014 350.238 92.422C365.801 128.543 342.141 167.234 341.8 173.241C341.458 179.248 384.466 211.539 372.531 256.001C360.596 300.463 202.102 304.765 145.529 306.47C88.9558 308.175 13.3235 308.044 2.17716 261.693C-8.9692 215.342 41.6626 174.972 46.342 162.014C51.0214 149.056 8.67045 103.964 61.7734 48.5369C102.862 5.6486 152.154 50.7928 170.319 54.2291Z" fill="white"/>
</mask>
<g mask="url(#mask10_131_1880)">
<path d="M323.158 -11.771H310.119V225.99H323.158V-11.771Z" fill="#BF977C"/>
</g>
<mask id="mask11_131_1880" style="mask-type:luminance" maskUnits="userSpaceOnUse" x="0" y="0" width="375" height="307">
<path d="M170.319 54.2291C188.484 57.6654 222.712 -12.4773 260.594 2.99923C298.476 18.4757 270.636 68.3416 284.149 79.5162C297.661 90.6908 334.675 56.3014 350.238 92.422C365.801 128.543 342.141 167.234 341.8 173.241C341.458 179.248 384.466 211.539 372.531 256.001C360.596 300.463 202.102 304.765 145.529 306.47C88.9558 308.175 13.3235 308.044 2.17716 261.693C-8.9692 215.342 41.6626 174.972 46.342 162.014C51.0214 149.056 8.67045 103.964 61.7734 48.5369C102.862 5.6486 152.154 50.7928 170.319 54.2291Z" fill="white"/>
</mask>
<g mask="url(#mask11_131_1880)">
<path d="M342.271 -11.771H337.854V225.99H342.271V-11.771Z" fill="#BF977C"/>
</g>
<path d="M2.28265 261.676C13.4122 308.039 88.9562 308.196 145.417 306.465C201.879 304.733 360.133 300.456 372.076 255.982C380.187 225.73 362.915 201.092 351.129 186.556H27.7703C12.7034 205.657 -4.75203 232.473 2.28265 261.676Z" fill="#72645D"/>
<path d="M353.072 188.997C352.416 188.157 351.759 187.343 351.103 186.556H27.7702C27.1402 187.37 26.5102 188.183 25.854 188.997H353.072Z" fill="white"/>
<path d="M291.886 203.795H273.433L277.659 146.15H287.03L291.886 203.795Z" fill="white"/>
<path d="M300.442 204.895H264.14L266.266 195.056H298.316L300.442 204.895Z" fill="white"/>
<path d="M271.385 95.3253C271.385 95.3253 278.734 106.975 279.889 107.893C278.314 107.815 275.663 106.923 275.663 106.923L283.669 116.998H278.997L287.659 129.173H281.569C281.569 129.173 287.501 140.009 289.654 142.003L251.882 142.58C253.063 141.478 259.127 133.817 259.127 133.817H252.459L260.938 118.205C260.938 118.205 256.869 118.074 256.397 117.628C258.654 116.552 263.589 107.264 263.589 107.264L259.783 108.156L269.311 95.2728H271.385V95.3253Z" fill="#4E5E0A"/>
<path d="M281.177 120.068L257.579 124.424L252.461 133.844H255.9C257.789 132.479 259.417 131.403 259.784 131.456C260.729 131.64 261.491 133.555 262.252 133.555C263.013 133.555 264.535 130.8 265.769 130.879C267.003 130.984 268.525 133.056 269.286 133.161C270.048 133.266 271.754 130.118 272.909 130.118C274.064 130.118 276.82 133.056 277.765 132.978C278.71 132.873 279.208 130.59 280.521 130.118C280.888 129.987 281.545 130.17 282.306 130.485C281.86 129.672 281.571 129.173 281.571 129.173H287.661L281.177 120.068Z" fill="#5F750E"/>
<path d="M263.066 108.288C263.88 107.868 264.563 107.605 264.93 107.605C266.269 107.605 267.975 109.127 268.605 108.996C269.235 108.839 270.049 107.605 271.125 107.605C272.201 107.605 273.855 108.655 274.301 108.55C274.59 108.498 275.088 107.632 276.375 107.763L275.718 106.923C275.718 106.923 278.369 107.815 279.944 107.894C278.789 106.976 271.44 95.3259 271.44 95.3259H269.34L259.812 108.209L263.618 107.317C263.591 107.317 263.408 107.684 263.066 108.288Z" fill="#5F750E"/>
<path d="M284.09 133.607L255.899 137.884C254.272 139.904 252.487 142.056 251.909 142.581L289.681 142.004C288.448 140.875 285.98 136.861 284.09 133.607Z" fill="#5F750E"/>
<path d="M260.544 118.967C262.355 118.915 262.46 120.541 263.221 120.62C263.982 120.725 265.4 118.915 267.132 118.967C268.838 119.019 269.81 120.62 270.807 120.725C271.805 120.83 272.907 118.337 274.298 118.337C275.689 118.337 276.739 119.675 277.317 119.57C277.894 119.466 278.55 117.917 279.6 117.786L279.023 116.999H283.695L277.448 109.128L261.594 110.833C259.966 113.588 257.735 117.025 256.396 117.629C256.869 118.075 260.938 118.206 260.938 118.206L260.544 118.967Z" fill="#5F750E"/>
<path d="M273.275 94.643L270.309 92.4127L267.186 94.1969L268.761 90.7597L266.346 89.2641L269.469 89.1067L270.309 86.3254L271.412 89.1592L274.273 88.923L271.91 91.0221L273.275 94.643Z" fill="#FFE051"/>
<path d="M270.78 91.9136L271.094 95.3245H269.31L269.677 91.9136H270.78Z" fill="#FFE051"/>
<path d="M272.881 142.292L273.564 148.563H269.679L270.204 142.292H272.881Z" fill="#6B3425"/>
<path d="M267.816 104.063C268.627 104.063 269.286 103.405 269.286 102.593C269.286 101.782 268.627 101.124 267.816 101.124C267.004 101.124 266.346 101.782 266.346 102.593C266.346 103.405 267.004 104.063 267.816 104.063Z" fill="#FFE051"/>
<path d="M275.454 105.953C276.106 105.953 276.635 105.424 276.635 104.772C276.635 104.119 276.106 103.59 275.454 103.59C274.801 103.59 274.272 104.119 274.272 104.772C274.272 105.424 274.801 105.953 275.454 105.953Z" fill="white"/>
<path d="M263.774 117.393C264.615 117.393 265.297 116.711 265.297 115.871C265.297 115.03 264.615 114.349 263.774 114.349C262.934 114.349 262.252 115.03 262.252 115.871C262.252 116.711 262.934 117.393 263.774 117.393Z" fill="white"/>
<path d="M269.076 113.667C269.758 113.667 270.31 113.115 270.31 112.433C270.31 111.752 269.758 111.2 269.076 111.2C268.395 111.2 267.843 111.752 267.843 112.433C267.843 113.115 268.395 113.667 269.076 113.667Z" fill="#512176"/>
<path d="M276.61 116.367C277.537 116.367 278.29 115.615 278.29 114.688C278.29 113.76 277.537 113.009 276.61 113.009C275.682 113.009 274.93 113.76 274.93 114.688C274.93 115.615 275.682 116.367 276.61 116.367Z" fill="#FFE051"/>
<path d="M261.307 127.572C262.147 127.572 262.829 126.891 262.829 126.05C262.829 125.21 262.147 124.528 261.307 124.528C260.466 124.528 259.784 125.21 259.784 126.05C259.784 126.891 260.466 127.572 261.307 127.572Z" fill="#512176"/>
<path d="M271.885 126.47C272.813 126.47 273.565 125.718 273.565 124.791C273.565 123.864 272.813 123.112 271.885 123.112C270.957 123.112 270.205 123.864 270.205 124.791C270.205 125.718 270.957 126.47 271.885 126.47Z" fill="white"/>
<path d="M269.418 131.115C270.288 131.115 270.993 130.41 270.993 129.54C270.993 128.671 270.288 127.966 269.418 127.966C268.548 127.966 267.843 128.671 267.843 129.54C267.843 130.41 268.548 131.115 269.418 131.115Z" fill="#FFE051"/>
<path d="M278.631 126.444C279.37 126.444 279.969 125.845 279.969 125.106C279.969 124.366 279.37 123.767 278.631 123.767C277.891 123.767 277.292 124.366 277.292 125.106C277.292 125.845 277.891 126.444 278.631 126.444Z" fill="#512176"/>
<path d="M261.018 138.41C261.699 138.41 262.252 137.857 262.252 137.176C262.252 136.494 261.699 135.942 261.018 135.942C260.337 135.942 259.784 136.494 259.784 137.176C259.784 137.857 260.337 138.41 261.018 138.41Z" fill="#FFE051"/>
<path d="M271.885 140.927C272.813 140.927 273.565 140.175 273.565 139.248C273.565 138.321 272.813 137.569 271.885 137.569C270.957 137.569 270.205 138.321 270.205 139.248C270.205 140.175 270.957 140.927 271.885 140.927Z" fill="#512176"/>
<path d="M281.699 138.671C282.453 138.671 283.064 138.06 283.064 137.307C283.064 136.553 282.453 135.942 281.699 135.942C280.945 135.942 280.334 136.553 280.334 137.307C280.334 138.06 280.945 138.671 281.699 138.671Z" fill="white"/>
<path d="M321.36 142.345H244.739V152.394H321.36V142.345Z" fill="white"/>
<path d="M238.626 24.3242C238.626 24.3242 238.075 23.3534 239.125 22.9073C240.175 22.4613 244.427 25.7935 244.427 25.7935C244.427 25.7935 239.493 30.3065 238.469 29.8604C237.445 29.4144 237.839 28.3911 237.839 28.3911C237.839 28.3911 236.028 28.8896 234.216 28.6272C232.405 28.3386 231.119 27.0529 231.119 27.0529C231.119 27.0529 233.928 26.6594 234.007 26.397C234.085 26.1346 233.219 25.0326 234.505 24.3504C235.791 23.642 238.626 24.3242 238.626 24.3242Z" fill="#4E5E0A"/>
<path d="M244.819 27.4194C244.819 27.4194 249.282 32.0898 248.022 33.0082C246.762 33.9265 245.869 33.4018 245.869 33.4018C245.869 33.4018 246.368 35.7107 245.712 37.0226C245.029 38.3083 243.691 39.7252 243.691 39.7252C243.691 39.7252 244.426 36.734 243.691 36.6291C242.956 36.5241 242.457 37.2588 241.774 35.9993C241.092 34.7661 243.244 32.5621 242.667 32.221C242.116 31.8799 241.486 32.9557 241.092 31.5913C240.698 30.2532 244.819 27.4194 244.819 27.4194Z" fill="#4E5E0A"/>
<path d="M245.74 26.3967C247.059 26.3967 248.129 25.3277 248.129 24.009C248.129 22.6903 247.059 21.6213 245.74 21.6213C244.421 21.6213 243.352 22.6903 243.352 24.009C243.352 25.3277 244.421 26.3967 245.74 26.3967Z" fill="#512176"/>
<path d="M247.737 29.8874C249.114 29.8874 250.23 28.7714 250.23 27.3947C250.23 26.0181 249.114 24.9021 247.737 24.9021C246.36 24.9021 245.243 26.0181 245.243 27.3947C245.243 28.7714 246.36 29.8874 247.737 29.8874Z" fill="#512176"/>
<path d="M243.667 30.0702C245.088 30.0702 246.24 28.919 246.24 27.4988C246.24 26.0787 245.088 24.9275 243.667 24.9275C242.246 24.9275 241.095 26.0787 241.095 27.4988C241.095 28.919 242.246 30.0702 243.667 30.0702Z" fill="#512176"/>
<path d="M128.827 50.4578H65.147V188.628H128.827V50.4578Z" fill="white"/>
<path d="M126.068 54.7078H69.1084V189.152H126.068V54.7078Z" fill="#382822"/>
<path d="M105.674 69.4013L125.649 56.6758V188.628L106.776 177.529L105.674 69.4013Z" fill="#4C3129"/>
<path d="M301.468 142.503C301.468 142.477 301.442 142.477 301.416 142.45C300.917 142.057 300.628 141.506 300.523 138.567C300.418 135.628 300.681 132.742 301.547 130.276C302.413 127.809 303.358 128.046 303.699 123.48C303.909 120.725 303.069 115.425 303.069 115.425H301.757H300.471H299.762H298.266H297.163C297.163 115.425 296.323 120.725 296.533 123.48C296.875 128.046 297.82 127.809 298.686 130.276C299.552 132.742 299.814 135.628 299.709 138.567C299.604 141.506 299.316 142.057 298.817 142.45C298.791 142.477 298.791 142.477 298.764 142.503C296.98 142.555 295.693 142.739 295.693 142.975C295.693 143.238 297.662 143.474 300.129 143.474C302.597 143.474 304.539 143.238 304.539 142.975C304.539 142.739 303.253 142.555 301.468 142.503Z" fill="white"/>
<path d="M296.979 119.518H303.199C303.199 119.518 303.278 129.856 300.286 129.698C297.293 129.541 296.979 119.518 296.979 119.518Z" fill="#FFE051"/>
<path d="M150.432 105.743L134.42 141.559L137.386 144.497L171.615 119.728C171.615 119.728 177.232 112.513 176.549 108.735C175.867 104.956 173.688 103.487 171.431 103.461C169.173 103.434 168.202 97.6882 166.102 96.4813C164.029 95.2743 160.852 99.5512 159.251 98.3967C157.65 97.2422 155.944 93.4377 150.432 105.743Z" fill="#6C868C"/>
<path d="M171.191 109.733C171.191 109.733 174.473 109.103 175.496 108.447C176.021 109.628 177.859 110.861 177.859 110.861C177.859 110.861 176.152 110.861 175.181 111.779C174.394 111.202 171.191 109.733 171.191 109.733Z" fill="#5B725B"/>
<path d="M168.569 111.594C168.569 111.594 167.02 113.457 165.76 113.877C165.786 114.638 165.629 115.162 165.445 115.477C165.813 116.133 165.419 117.183 165.419 117.183C165.419 117.183 166.259 116.737 166.915 116.605C167.256 115.897 167.624 115.399 168.044 115.215C168.018 114.087 168.569 111.594 168.569 111.594Z" fill="#9AA69A"/>
<path d="M164.866 105.612C165.312 106.792 168.12 108.55 168.12 108.55C168.12 108.55 164.026 108.314 163.133 108.524C163.212 106.976 162.004 105.323 162.004 105.323C162.004 105.323 163.711 106.136 164.866 105.612Z" fill="#9AA69A"/>
<path d="M165.075 103.906C165.075 103.906 167.228 104.116 168.173 105.454C169.118 106.793 169.511 109.443 169.511 109.443C169.511 109.443 167.07 108.629 166.178 107.317C165.285 106.005 165.075 103.906 165.075 103.906Z" fill="#512176"/>
<path d="M170.824 102.333C170.824 102.333 170.719 103.461 171.034 104.511C171.927 107.528 169.512 109.443 169.512 109.443C169.512 109.443 168.724 107.187 169.092 105.665C169.433 104.117 170.824 102.333 170.824 102.333Z" fill="#642E93"/>
<path d="M175.049 104.589C175.049 104.589 172.161 109.968 169.51 109.443C168.907 106.557 174.025 105.166 175.049 104.589Z" fill="#512176"/>
<path d="M175.209 113.3C175.209 113.3 174.185 111.017 172.689 110.151C171.193 109.286 169.486 109.417 169.486 109.417C169.486 109.417 170.326 110.965 171.875 111.988C173.424 113.011 174.762 112.854 175.209 113.3Z" fill="#642E93"/>
<path d="M168.512 116.948C168.512 116.948 170.376 115.584 170.533 112.934C170.717 110.31 169.51 109.418 169.51 109.418C169.51 109.418 168.539 110.756 168.145 112.54C167.751 114.351 168.512 116.948 168.512 116.948Z" fill="#642E93"/>
<path d="M164.579 114.113C164.579 114.113 168.018 112.828 168.726 111.332C169.461 109.837 169.488 109.443 169.488 109.443C169.488 109.443 167.676 109.181 166.522 110.361C165.419 111.516 164.579 114.113 164.579 114.113Z" fill="#512176"/>
<path d="M162.581 110.126C162.581 110.126 165.285 108.394 166.86 108.315C168.435 108.236 169.511 109.417 169.511 109.417C169.511 109.417 167.096 110.52 165.941 110.73C164.786 110.94 163.526 109.942 162.581 110.126Z" fill="#642E93"/>
<path d="M169.825 105.062C169.825 105.062 170.56 106.663 170.35 107.712C170.14 108.762 169.51 109.418 169.51 109.418C169.51 109.418 168.67 108.499 168.827 107.555C168.985 106.663 169.825 105.062 169.825 105.062Z" fill="#512176"/>
<path d="M174.893 108.604C174.893 108.604 173.554 109.943 172.189 110.1C170.824 110.231 169.512 109.444 169.512 109.444C169.512 109.444 170.562 108.263 172.032 108.184C173.475 108.105 174.893 108.604 174.893 108.604Z" fill="#512176"/>
<path d="M172.005 114.036C172.005 114.036 172.163 112.278 171.533 111.045C170.903 109.812 169.512 109.418 169.512 109.418C169.512 109.418 169.669 110.94 170.273 112.068C170.877 113.196 172.005 114.036 172.005 114.036Z" fill="#512176"/>
<path d="M167.23 114.298C167.23 114.298 168.989 112.881 169.356 111.648C169.697 110.414 169.54 109.444 169.54 109.444C169.54 109.444 168.595 109.549 167.991 110.624C167.361 111.7 167.23 114.298 167.23 114.298Z" fill="#512176"/>
<path d="M164.341 107.422C164.341 107.422 166.389 107.16 167.596 107.527C168.804 107.895 169.512 109.417 169.512 109.417C169.512 109.417 168.305 109.732 167.124 109.391C165.916 109.076 164.341 107.422 164.341 107.422Z" fill="#512176"/>
<path d="M170.567 108.782C170.627 108.603 170.53 108.41 170.351 108.351C170.173 108.291 169.98 108.388 169.921 108.567C169.861 108.745 169.958 108.938 170.136 108.997C170.315 109.057 170.508 108.96 170.567 108.782Z" fill="#FFE051"/>
<path d="M169.927 108.824C169.986 108.646 169.889 108.453 169.711 108.393C169.532 108.334 169.339 108.431 169.28 108.609C169.221 108.788 169.317 108.981 169.496 109.04C169.674 109.099 169.867 109.003 169.927 108.824Z" fill="#FFE051"/>
<path d="M169.794 109.49C169.858 109.298 169.754 109.09 169.561 109.026C169.369 108.962 169.161 109.066 169.097 109.259C169.033 109.451 169.137 109.659 169.33 109.723C169.522 109.787 169.73 109.683 169.794 109.49Z" fill="#FFE051"/>
<path d="M170.439 109.692C170.503 109.499 170.399 109.292 170.206 109.228C170.014 109.164 169.806 109.268 169.742 109.46C169.678 109.652 169.782 109.86 169.975 109.924C170.167 109.988 170.375 109.884 170.439 109.692Z" fill="#FFE051"/>
<path d="M170.662 109.235C170.717 109.071 170.628 108.892 170.463 108.838C170.298 108.783 170.12 108.872 170.065 109.037C170.01 109.202 170.099 109.38 170.264 109.435C170.429 109.489 170.607 109.4 170.662 109.235Z" fill="#FFE051"/>
<path d="M170.877 109.466C170.922 109.329 170.848 109.181 170.711 109.135C170.573 109.089 170.425 109.164 170.379 109.301C170.333 109.438 170.408 109.587 170.545 109.632C170.683 109.678 170.831 109.604 170.877 109.466Z" fill="#CEAA22"/>
<path d="M170.291 109.195C170.351 109.017 170.254 108.824 170.076 108.764C169.897 108.705 169.704 108.802 169.645 108.98C169.585 109.159 169.682 109.352 169.86 109.411C170.039 109.47 170.232 109.374 170.291 109.195Z" fill="#CEAA22"/>
<path d="M166.073 99.2353C166.073 99.2353 168.015 96.9526 168.383 95.9031C169.433 96.4541 171.401 96.2704 171.401 96.2704C171.401 96.2704 170.22 97.2412 170.063 98.4219C169.144 98.4744 166.073 99.2353 166.073 99.2353Z" fill="#5B725B"/>
<path d="M165.284 102.043C165.284 102.043 165.257 104.247 164.601 105.217C165.047 105.742 165.231 106.214 165.284 106.529C165.914 106.792 166.229 107.763 166.229 107.763C166.229 107.763 166.57 106.949 166.937 106.529C166.78 105.847 166.753 105.27 166.937 104.903C166.307 104.089 165.284 102.043 165.284 102.043Z" fill="#9AA69A"/>
<path d="M159.353 99.8922C160.324 100.469 163.264 100.128 163.264 100.128C163.264 100.128 160.272 102.254 159.773 102.91C158.959 101.755 157.174 101.283 157.174 101.283C157.174 101.283 158.828 100.916 159.353 99.8922Z" fill="#9AA69A"/>
<path d="M158.54 98.5524C158.54 98.5524 160.167 97.4762 161.559 97.8962C162.976 98.3162 164.735 99.9699 164.735 99.9699C164.735 99.9699 162.556 100.757 161.217 100.337C159.879 99.9174 158.54 98.5524 158.54 98.5524Z" fill="#512176"/>
<path d="M161.662 94.2234C161.662 94.2234 162.239 95.0892 163.027 95.6403C165.336 97.2933 164.733 99.9958 164.733 99.9958C164.733 99.9958 162.922 98.8413 162.318 97.5556C161.714 96.27 161.662 94.2234 161.662 94.2234Z" fill="#642E93"/>
<path d="M165.89 93.4366C165.89 93.4366 166.887 98.868 164.735 99.97C162.687 98.2907 165.496 94.4075 165.89 93.4366Z" fill="#512176"/>
<path d="M170.901 99.5234C170.901 99.5234 168.906 98.4997 167.384 98.7097C165.861 98.9197 164.732 99.9959 164.732 99.9959C164.732 99.9959 166.176 100.6 167.856 100.468C169.51 100.311 170.35 99.4446 170.901 99.5234Z" fill="#642E93"/>
<path d="M168.276 105.846C168.276 105.846 168.801 103.826 167.436 101.858C166.071 99.8902 164.732 99.9689 164.732 99.9689C164.732 99.9689 164.811 101.465 165.546 102.934C166.255 104.429 168.276 105.846 168.276 105.846Z" fill="#642E93"/>
<path d="M163.921 106.057C163.921 106.057 165.601 103.223 165.26 101.754C164.919 100.285 164.735 99.9961 164.735 99.9961C164.735 99.9961 163.317 100.836 163.186 102.305C163.029 103.748 163.921 106.057 163.921 106.057Z" fill="#512176"/>
<path d="M160.271 104.377C160.271 104.377 161.189 101.622 162.239 100.704C163.289 99.7856 164.733 99.9955 164.733 99.9955C164.733 99.9955 163.657 102.147 162.974 102.908C162.292 103.695 160.848 103.695 160.271 104.377Z" fill="#642E93"/>
<path d="M162.501 96.7174C162.501 96.7174 163.919 97.4521 164.365 98.3179C164.811 99.1838 164.733 99.9972 164.733 99.9972C164.733 99.9972 163.63 99.8135 163.21 99.0788C162.816 98.3179 162.501 96.7174 162.501 96.7174Z" fill="#512176"/>
<path d="M168.043 96.3484C168.043 96.3484 167.86 98.0539 166.993 98.9197C166.127 99.7856 164.762 99.9693 164.762 99.9693C164.762 99.9693 164.841 98.5524 165.812 97.6603C166.783 96.7682 168.043 96.3484 168.043 96.3484Z" fill="#512176"/>
<path d="M169.093 101.834C169.093 101.834 168.201 100.495 167.072 99.9961C165.917 99.4712 164.762 99.9961 164.762 99.9961C164.762 99.9961 165.733 100.994 166.783 101.44C167.833 101.886 169.093 101.834 169.093 101.834Z" fill="#512176"/>
<path d="M165.861 104.693C165.861 104.693 166.308 102.699 165.861 101.624C165.415 100.548 164.759 99.9706 164.759 99.9706C164.759 99.9706 164.155 100.574 164.339 101.676C164.496 102.804 165.861 104.693 165.861 104.693Z" fill="#512176"/>
<path d="M159.982 101.465C159.982 101.465 161.268 100.126 162.318 99.7064C163.368 99.2864 164.733 99.9689 164.733 99.9689C164.733 99.9689 164.051 100.888 163.053 101.308C162.029 101.728 159.982 101.465 159.982 101.465Z" fill="#512176"/>
<path d="M164.919 99.3282C165.082 99.2682 165.166 99.0874 165.105 98.9243C165.045 98.7613 164.864 98.6779 164.701 98.7379C164.538 98.798 164.455 98.9788 164.515 99.1418C164.575 99.3048 164.756 99.3883 164.919 99.3282Z" fill="#FFE051"/>
<path d="M164.503 99.7163C164.666 99.6562 164.749 99.4754 164.689 99.3124C164.629 99.1494 164.448 99.0659 164.285 99.126C164.122 99.1861 164.039 99.3669 164.099 99.5299C164.159 99.6929 164.34 99.7763 164.503 99.7163Z" fill="#FFE051"/>
<path d="M164.775 100.291C164.951 100.226 165.042 100.03 164.977 99.8533C164.912 99.6767 164.716 99.5863 164.539 99.6514C164.362 99.7164 164.272 99.9123 164.337 100.089C164.402 100.265 164.598 100.356 164.775 100.291Z" fill="#FFE051"/>
<path d="M165.352 100.079C165.529 100.014 165.619 99.8178 165.554 99.6413C165.489 99.4647 165.293 99.3743 165.116 99.4393C164.94 99.5044 164.849 99.7003 164.914 99.8769C164.979 100.053 165.175 100.144 165.352 100.079Z" fill="#FFE051"/>
<path d="M165.279 99.5617C165.429 99.5066 165.505 99.3409 165.45 99.1914C165.395 99.042 165.229 98.9655 165.08 99.0206C164.93 99.0756 164.854 99.2414 164.909 99.3908C164.964 99.5402 165.13 99.6167 165.279 99.5617Z" fill="#FFE051"/>
<path d="M165.571 99.5407C165.693 99.4957 165.756 99.3601 165.711 99.2378C165.666 99.1156 165.53 99.053 165.408 99.098C165.286 99.1431 165.223 99.2787 165.268 99.4009C165.313 99.5232 165.449 99.5858 165.571 99.5407Z" fill="#CEAA22"/>
<path d="M164.974 99.7735C165.137 99.7135 165.22 99.5327 165.16 99.3697C165.1 99.2067 164.919 99.1232 164.756 99.1833C164.593 99.2433 164.51 99.4241 164.57 99.5871C164.63 99.7501 164.811 99.8336 164.974 99.7735Z" fill="#CEAA22"/>
<path d="M158.86 111.962C158.86 111.962 160.855 113.982 161.748 114.402C161.249 115.346 161.328 117.236 161.328 117.236C161.328 117.236 160.514 116.029 159.438 115.766C159.464 114.953 158.86 111.962 158.86 111.962Z" fill="#5B725B"/>
<path d="M156.391 111.016C156.391 111.016 154.449 110.806 153.582 110.098C153.11 110.491 152.69 110.623 152.401 110.649C152.165 111.226 151.272 111.462 151.272 111.462C151.272 111.462 151.981 111.856 152.349 112.25C152.979 112.145 153.477 112.171 153.792 112.381C154.527 111.83 156.391 111.016 156.391 111.016Z" fill="#9AA69A"/>
<path d="M158.49 105.507C157.965 106.399 158.148 109.233 158.148 109.233C158.148 109.233 156.337 106.215 155.76 105.664C156.81 104.982 157.282 103.303 157.282 103.303C157.282 103.303 157.571 104.93 158.49 105.507Z" fill="#9AA69A"/>
<path d="M159.672 104.825C159.672 104.825 160.565 106.452 160.171 107.764C159.751 109.076 158.255 110.65 158.255 110.65C158.255 110.65 157.598 108.525 158.045 107.266C158.465 105.98 159.672 104.825 159.672 104.825Z" fill="#512176"/>
<path d="M163.477 108.158C163.477 108.158 162.689 108.63 162.19 109.339C160.668 111.439 158.279 110.651 158.279 110.651C158.279 110.651 159.355 108.998 160.51 108.525C161.639 108.027 163.477 108.158 163.477 108.158Z" fill="#642E93"/>
<path d="M164.029 112.252C164.029 112.252 159.173 112.777 158.254 110.651C159.803 108.813 163.189 111.805 164.029 112.252Z" fill="#512176"/>
<path d="M158.491 116.553C158.491 116.553 159.463 114.743 159.305 113.247C159.148 111.752 158.255 110.624 158.255 110.624C158.255 110.624 157.678 111.962 157.756 113.562C157.835 115.163 158.57 116.029 158.491 116.553Z" fill="#642E93"/>
<path d="M152.927 113.562C152.927 113.562 154.712 114.218 156.497 113.064C158.282 111.909 158.255 110.624 158.255 110.624C158.255 110.624 156.917 110.597 155.578 111.175C154.239 111.752 152.927 113.562 152.927 113.562Z" fill="#642E93"/>
<path d="M152.872 109.39C152.872 109.39 155.339 111.201 156.678 110.991C158.016 110.781 158.253 110.624 158.253 110.624C158.253 110.624 157.544 109.206 156.258 108.97C154.945 108.708 152.872 109.39 152.872 109.39Z" fill="#512176"/>
<path d="M154.475 106.032C154.475 106.032 156.89 107.134 157.703 108.21C158.517 109.286 158.254 110.624 158.254 110.624C158.254 110.624 156.365 109.443 155.708 108.708C155.026 108 155.052 106.636 154.475 106.032Z" fill="#642E93"/>
<path d="M161.221 108.761C161.221 108.761 160.538 110.048 159.751 110.415C158.963 110.783 158.229 110.651 158.229 110.651C158.229 110.651 158.439 109.601 159.095 109.286C159.751 108.971 161.221 108.761 161.221 108.761Z" fill="#512176"/>
<path d="M161.378 114.061C161.378 114.061 159.881 113.772 159.12 112.854C158.385 111.962 158.254 110.624 158.254 110.624C158.254 110.624 159.514 110.807 160.275 111.804C161.01 112.828 161.378 114.061 161.378 114.061Z" fill="#512176"/>
<path d="M156.468 114.637C156.468 114.637 157.676 113.902 158.174 112.853C158.673 111.803 158.253 110.649 158.253 110.649C158.253 110.649 157.334 111.489 156.914 112.459C156.495 113.43 156.468 114.637 156.468 114.637Z" fill="#512176"/>
<path d="M154.029 111.332C154.029 111.332 155.788 111.909 156.759 111.568C157.704 111.227 158.255 110.623 158.255 110.623C158.255 110.623 157.73 110.02 156.733 110.098C155.762 110.203 154.029 111.332 154.029 111.332Z" fill="#512176"/>
<path d="M157.049 105.979C157.049 105.979 158.204 107.291 158.545 108.341C158.887 109.39 158.23 110.623 158.23 110.623C158.23 110.623 157.443 109.915 157.102 108.918C156.76 107.921 157.049 105.979 157.049 105.979Z" fill="#512176"/>
<path d="M159.178 111.048C159.316 111.005 159.391 110.848 159.344 110.695C159.298 110.543 159.148 110.454 159.01 110.496C158.871 110.538 158.796 110.696 158.843 110.848C158.89 111.001 159.039 111.09 159.178 111.048Z" fill="#FFE051"/>
<path d="M158.859 110.599C159.012 110.552 159.097 110.391 159.051 110.239C159.004 110.087 158.843 110.001 158.691 110.047C158.539 110.094 158.453 110.255 158.499 110.407C158.546 110.56 158.707 110.645 158.859 110.599Z" fill="#FFE051"/>
<path d="M158.37 110.834C158.522 110.787 158.604 110.615 158.554 110.449C158.503 110.282 158.338 110.185 158.186 110.232C158.034 110.278 157.951 110.451 158.002 110.617C158.053 110.783 158.217 110.88 158.37 110.834Z" fill="#FFE051"/>
<path d="M158.531 111.415C158.684 111.368 158.766 111.196 158.715 111.03C158.664 110.863 158.5 110.766 158.348 110.813C158.195 110.859 158.113 111.032 158.164 111.198C158.214 111.364 158.379 111.461 158.531 111.415Z" fill="#FFE051"/>
<path d="M158.945 111.389C159.083 111.347 159.158 111.189 159.111 111.037C159.065 110.884 158.915 110.795 158.776 110.838C158.638 110.88 158.563 111.038 158.61 111.19C158.656 111.342 158.806 111.431 158.945 111.389Z" fill="#FFE051"/>
<path d="M158.876 111.631C158.987 111.597 159.046 111.468 159.008 111.344C158.97 111.219 158.849 111.146 158.739 111.179C158.628 111.213 158.569 111.342 158.607 111.466C158.645 111.591 158.766 111.664 158.876 111.631Z" fill="#CEAA22"/>
<path d="M158.783 111.075C158.922 111.033 158.996 110.875 158.95 110.723C158.903 110.571 158.753 110.481 158.615 110.524C158.477 110.566 158.402 110.724 158.448 110.876C158.495 111.028 158.645 111.118 158.783 111.075Z" fill="#CEAA22"/>
<path d="M156.282 102.043C156.282 102.043 153.263 103.46 152.397 104.326C151.583 103.303 149.51 102.568 149.51 102.568C149.51 102.568 151.163 102.148 151.872 101.02C152.791 101.387 156.282 102.043 156.282 102.043Z" fill="#5B725B"/>
<path d="M158.355 99.5775C158.355 99.5775 159.405 97.3997 160.534 96.6913C160.324 95.9566 160.35 95.4056 160.455 95.0645C159.956 94.5135 160.087 93.3853 160.087 93.3853C160.087 93.3853 159.379 94.0412 158.775 94.3036C158.617 95.0645 158.381 95.6417 158.014 95.9304C158.276 97.0586 158.355 99.5775 158.355 99.5775Z" fill="#9AA69A"/>
<path d="M163.37 104.511C162.635 103.488 159.511 102.438 159.511 102.438C159.511 102.438 163.554 101.677 164.367 101.257C164.656 102.779 166.231 104.091 166.231 104.091C166.231 104.091 164.394 103.724 163.37 104.511Z" fill="#9AA69A"/>
<path d="M163.606 106.216C163.606 106.216 161.453 106.531 160.246 105.455C159.012 104.379 157.988 101.913 157.988 101.913C157.988 101.913 160.561 102.123 161.716 103.172C162.871 104.274 163.606 106.216 163.606 106.216Z" fill="#512176"/>
<path d="M158.408 109.154C158.408 109.154 158.224 108.025 157.699 107.107C156.098 104.378 157.988 101.938 157.988 101.938C157.988 101.938 159.3 103.932 159.326 105.507C159.3 107.055 158.408 109.154 158.408 109.154Z" fill="#642E93"/>
<path d="M153.764 107.948C153.764 107.948 155.287 102.044 157.964 101.913C159.25 104.563 154.604 107.16 153.764 107.948Z" fill="#512176"/>
<path d="M151.503 99.5502C151.503 99.5502 153.026 101.519 154.706 101.991C156.359 102.464 157.987 101.939 157.987 101.939C157.987 101.939 156.806 100.653 155.047 100.023C153.262 99.3927 152.028 99.8652 151.503 99.5502Z" fill="#642E93"/>
<path d="M157.12 94.382C157.12 94.382 155.65 96.1662 156.122 98.7637C156.595 101.361 157.96 101.912 157.96 101.912C157.96 101.912 158.564 100.364 158.537 98.5538C158.511 96.7434 157.12 94.382 157.12 94.382Z" fill="#642E93"/>
<path d="M161.61 96.1931C161.61 96.1931 158.592 98.2659 158.251 99.8927C157.909 101.519 157.962 101.913 157.962 101.913C157.962 101.913 159.773 101.729 160.613 100.313C161.453 98.9219 161.61 96.1931 161.61 96.1931Z" fill="#512176"/>
<path d="M164.525 99.5778C164.525 99.5778 162.32 101.913 160.798 102.359C159.275 102.805 157.963 101.913 157.963 101.913C157.963 101.913 160.063 100.26 161.113 99.7877C162.189 99.3416 163.633 99.9976 164.525 99.5778Z" fill="#642E93"/>
<path d="M158.697 106.242C158.697 106.242 157.621 104.878 157.569 103.776C157.516 102.7 157.962 101.913 157.962 101.913C157.962 101.913 159.012 102.621 159.065 103.539C159.117 104.458 158.697 106.242 158.697 106.242Z" fill="#512176"/>
<path d="M152.95 104.039C152.95 104.039 153.921 102.411 155.207 101.939C156.493 101.466 157.963 101.913 157.963 101.913C157.963 101.913 157.228 103.304 155.837 103.724C154.42 104.17 152.95 104.039 152.95 104.039Z" fill="#512176"/>
<path d="M154.417 98.0551C154.417 98.0551 154.679 99.7868 155.598 100.836C156.517 101.886 157.934 101.912 157.934 101.912C157.934 101.912 157.409 100.469 156.543 99.5244C155.677 98.5798 154.417 98.0551 154.417 98.0551Z" fill="#512176"/>
<path d="M159.012 96.666C159.012 96.666 157.647 98.4765 157.594 99.7359C157.542 100.995 157.962 101.914 157.962 101.914C157.962 101.914 158.854 101.573 159.169 100.392C159.511 99.2111 159.012 96.666 159.012 96.666Z" fill="#512176"/>
<path d="M163.474 102.622C163.474 102.622 161.558 103.384 160.298 103.305C159.012 103.226 157.988 101.914 157.988 101.914C157.988 101.914 159.091 101.31 160.324 101.362C161.532 101.415 163.474 102.622 163.474 102.622Z" fill="#512176"/>
<path d="M157.77 102.864C157.785 102.677 157.644 102.513 157.457 102.498C157.269 102.484 157.105 102.624 157.09 102.811C157.076 102.999 157.216 103.163 157.404 103.178C157.591 103.192 157.755 103.052 157.77 102.864Z" fill="#FFE051"/>
<path d="M158.406 102.697C158.421 102.509 158.281 102.345 158.093 102.331C157.905 102.316 157.741 102.456 157.727 102.644C157.712 102.832 157.852 102.995 158.04 103.01C158.228 103.025 158.392 102.884 158.406 102.697Z" fill="#FFE051"/>
<path d="M158.418 102.017C158.434 101.815 158.283 101.639 158.081 101.623C157.879 101.607 157.702 101.758 157.686 101.96C157.67 102.162 157.822 102.339 158.024 102.355C158.226 102.371 158.402 102.22 158.418 102.017Z" fill="#FFE051"/>
<path d="M157.735 101.971C157.751 101.769 157.6 101.592 157.398 101.576C157.195 101.561 157.019 101.712 157.003 101.914C156.987 102.116 157.138 102.292 157.34 102.308C157.543 102.324 157.719 102.173 157.735 101.971Z" fill="#FFE051"/>
<path d="M157.52 102.441C157.534 102.268 157.404 102.117 157.231 102.103C157.058 102.09 156.907 102.219 156.893 102.392C156.88 102.566 157.009 102.717 157.182 102.73C157.355 102.744 157.507 102.614 157.52 102.441Z" fill="#FFE051"/>
<path d="M157.136 102.258C157.148 102.114 157.04 101.988 156.895 101.977C156.751 101.965 156.625 102.073 156.614 102.218C156.602 102.362 156.71 102.488 156.855 102.499C156.999 102.511 157.125 102.403 157.136 102.258Z" fill="#CEAA22"/>
<path d="M157.935 102.394C157.95 102.206 157.809 102.042 157.622 102.027C157.434 102.013 157.27 102.153 157.256 102.341C157.241 102.528 157.381 102.692 157.569 102.707C157.756 102.722 157.92 102.581 157.935 102.394Z" fill="#CEAA22"/>
<path d="M163.608 118.443C163.608 118.443 162.296 121.146 162.191 122.221C161.062 121.959 159.172 122.589 159.172 122.589C159.172 122.589 160.091 121.355 159.96 120.175C160.8 119.912 163.608 118.443 163.608 118.443Z" fill="#5B725B"/>
<path d="M163.686 115.53C163.686 115.53 163.187 113.405 163.581 112.277C163.004 111.883 162.741 111.463 162.61 111.175C161.954 111.07 161.403 110.204 161.403 110.204C161.403 110.204 161.271 111.07 161.009 111.595C161.324 112.224 161.481 112.775 161.403 113.169C162.216 113.799 163.686 115.53 163.686 115.53Z" fill="#9AA69A"/>
<path d="M169.987 116.212C168.911 115.898 166.128 116.921 166.128 116.921C166.128 116.921 168.517 114.113 168.858 113.379C169.934 114.297 171.772 114.323 171.772 114.323C171.772 114.323 170.249 115.084 169.987 116.212Z" fill="#9AA69A"/>
<path d="M171.09 117.29C171.09 117.29 169.777 118.707 168.308 118.654C166.838 118.576 164.711 117.421 164.711 117.421C164.711 117.421 166.628 116.135 168.045 116.213C169.489 116.318 171.09 117.29 171.09 117.29Z" fill="#512176"/>
<path d="M169.095 122.273C169.095 122.273 168.333 121.591 167.441 121.223C164.79 120.174 164.737 117.419 164.737 117.419C164.737 117.419 166.785 118.101 167.677 119.203C168.57 120.305 169.095 122.273 169.095 122.273Z" fill="#642E93"/>
<path d="M165.183 124.031C165.183 124.031 162.926 118.993 164.737 117.419C167.125 118.547 165.341 122.981 165.183 124.031Z" fill="#512176"/>
<path d="M158.858 119.362C158.858 119.362 161.037 119.887 162.481 119.31C163.924 118.706 164.738 117.446 164.738 117.446C164.738 117.446 163.189 117.21 161.588 117.735C159.987 118.26 159.41 119.257 158.858 119.362Z" fill="#642E93"/>
<path d="M159.88 112.539C159.88 112.539 159.854 114.612 161.639 116.212C163.424 117.787 164.71 117.419 164.71 117.419C164.71 117.419 164.264 116.002 163.214 114.717C162.164 113.457 159.88 112.539 159.88 112.539Z" fill="#642E93"/>
<path d="M164.055 111.307C164.055 111.307 163.111 114.455 163.793 115.82C164.475 117.158 164.712 117.394 164.712 117.394C164.712 117.394 165.867 116.24 165.657 114.796C165.473 113.353 164.055 111.307 164.055 111.307Z" fill="#512176"/>
<path d="M168.018 112.066C168.018 112.066 167.781 114.952 166.994 116.107C166.206 117.261 164.763 117.392 164.763 117.392C164.763 117.392 165.288 115.057 165.76 114.139C166.233 113.221 167.624 112.879 168.018 112.066Z" fill="#642E93"/>
<path d="M167.677 120.044C167.677 120.044 166.128 119.676 165.499 118.941C164.869 118.206 164.737 117.392 164.737 117.392C164.737 117.392 165.866 117.314 166.443 117.917C166.995 118.574 167.677 120.044 167.677 120.044Z" fill="#512176"/>
<path d="M162.401 121.722C162.401 121.722 162.165 120.043 162.795 118.967C163.425 117.917 164.711 117.419 164.711 117.419C164.711 117.419 164.973 118.809 164.238 119.911C163.503 121.013 162.401 121.722 162.401 121.722Z" fill="#512176"/>
<path d="M160.067 116.66C160.067 116.66 161.249 117.736 162.482 117.972C163.716 118.208 164.74 117.421 164.74 117.421C164.74 117.421 163.558 116.686 162.43 116.502C161.301 116.345 160.067 116.66 160.067 116.66Z" fill="#512176"/>
<path d="M162.506 113.09C162.506 113.09 162.558 115.137 163.241 116.055C163.923 116.974 164.711 117.393 164.711 117.393C164.711 117.393 165.131 116.659 164.711 115.635C164.291 114.612 162.506 113.09 162.506 113.09Z" fill="#512176"/>
<path d="M168.99 114.821C168.99 114.821 168.071 116.422 167.152 117.078C166.233 117.734 164.737 117.393 164.737 117.393C164.737 117.393 165.157 116.343 166.05 115.687C166.942 115.057 168.99 114.821 168.99 114.821Z" fill="#512176"/>
<path d="M165.041 118.6C165.185 118.503 165.222 118.307 165.125 118.163C165.027 118.02 164.831 117.982 164.688 118.08C164.544 118.177 164.506 118.373 164.604 118.517C164.702 118.66 164.897 118.698 165.041 118.6Z" fill="#FFE051"/>
<path d="M165.38 118.123C165.524 118.026 165.562 117.83 165.464 117.686C165.366 117.543 165.171 117.505 165.027 117.603C164.883 117.7 164.846 117.896 164.943 118.04C165.041 118.183 165.237 118.221 165.38 118.123Z" fill="#FFE051"/>
<path d="M165.003 117.677C165.159 117.571 165.2 117.359 165.094 117.203C164.988 117.048 164.776 117.007 164.62 117.113C164.465 117.219 164.424 117.43 164.53 117.586C164.636 117.742 164.847 117.782 165.003 117.677Z" fill="#FFE051"/>
<path d="M164.515 118.037C164.671 117.932 164.712 117.72 164.606 117.564C164.5 117.408 164.288 117.368 164.133 117.473C163.977 117.579 163.936 117.791 164.042 117.947C164.148 118.102 164.36 118.143 164.515 118.037Z" fill="#FFE051"/>
<path d="M164.629 118.417C164.761 118.327 164.796 118.148 164.706 118.016C164.617 117.885 164.437 117.85 164.306 117.94C164.174 118.029 164.139 118.208 164.229 118.34C164.318 118.472 164.498 118.506 164.629 118.417Z" fill="#FFE051"/>
<path d="M164.29 118.421C164.398 118.348 164.426 118.201 164.353 118.093C164.279 117.986 164.133 117.957 164.025 118.031C163.917 118.104 163.889 118.25 163.962 118.358C164.035 118.466 164.182 118.494 164.29 118.421Z" fill="#CEAA22"/>
<path d="M164.893 118.204C165.036 118.106 165.074 117.911 164.976 117.767C164.879 117.623 164.683 117.586 164.539 117.683C164.395 117.781 164.358 117.976 164.456 118.12C164.553 118.264 164.749 118.301 164.893 118.204Z" fill="#CEAA22"/>
<path d="M105.911 69.0103C105.911 69.0103 100.635 65.678 94.7028 69.4563C90.713 72.0014 90.2405 80.9749 91.7104 84.0448C93.1804 87.1146 99.9526 92.6509 99.9526 92.6509C99.9526 92.6509 125.388 74.153 105.911 69.0103Z" fill="#A5713D"/>
<path d="M122.871 121.88L122.949 135.026C122.949 135.026 138.646 135.209 139.67 134.947C140.694 134.711 145.76 130.67 146.285 130.46C146.81 130.25 147.308 130.46 147.125 131.064C146.915 131.693 146.153 133.609 146.153 133.609C146.153 133.609 150.012 133.163 150.353 132.979C150.694 132.769 153.004 130.985 153.477 130.827C153.949 130.67 154.763 130.985 154.553 131.483C154.343 131.982 152.164 134.789 152.164 134.789C152.164 134.789 152.611 137.781 151.456 138.883C150.301 139.985 144.972 140.877 142.373 141.06C139.775 141.244 120.114 143.737 118.487 143.658C116.833 143.579 114.445 143.081 113.605 139.565C112.765 136.049 112.476 122.562 112.476 122.562L122.871 121.88Z" fill="#DD866F"/>
<path d="M92.9977 245.986V266.661H75.726C75.726 266.661 73.2586 262.516 75.726 261.387C78.1934 260.259 86.1993 256.323 86.1993 256.323L85.8843 245.986H92.9977Z" fill="#F69576"/>
<path d="M92.9977 256.324V266.662H75.726C75.726 266.662 73.2586 262.516 75.726 261.388C78.1934 260.26 86.1993 256.324 86.1993 256.324H92.9977Z" fill="#032240"/>
<path d="M125.178 263.304C125.256 263.802 125.309 264.222 125.335 264.589H97.4062L98.2725 256.324H107.013C107.013 256.324 116.043 258.03 118.458 258.764C121.371 259.683 124.705 260.47 125.178 263.304Z" fill="#032240"/>
<path d="M119.773 152.264C119.773 152.264 120.744 162.444 119.773 179.421C118.802 196.397 114.681 212.638 114.182 214.58C113.71 216.521 112.476 257.401 112.476 257.401L97.1729 258.975C97.1729 258.975 103.499 205.108 103.971 191.779C104.444 178.45 102.265 153.471 102.265 153.471L119.773 152.264Z" fill="#254B6B"/>
<path d="M85.0719 153.471H105.205C105.205 153.471 106.78 193.799 105.205 195.662C103.63 197.525 98.9051 205.108 98.1701 210.932C97.4351 216.757 94.679 260.444 94.679 260.444L82.2896 258.24L85.0719 153.471Z" fill="#254B6B"/>
<path d="M100.034 99.2358C110.061 99.0259 113.29 100.522 115.39 105.218C117.489 109.915 122.818 151.135 123.317 159.531C123.789 167.928 122.188 172.939 110.691 172.939C99.194 172.939 77.04 171.968 77.04 168.898C77.04 165.828 79.1399 117.655 79.4549 109.574C79.8224 101.492 92.4481 99.3933 100.034 99.2358Z" fill="#005893"/>
<path d="M110.715 101.99C114.679 100.967 118.327 101.019 121.215 106.844C122.711 109.835 123.393 117.759 124.076 123.768C124.653 128.884 138.644 130.485 138.644 130.485V147.225C138.644 147.225 112.106 150.295 109.902 132.322C109.088 125.473 103.602 103.853 110.715 101.99Z" fill="#005893"/>
<path d="M103.499 98.4225C99.955 98.4225 95.7814 98.7636 93.6028 100.154C90.9516 101.86 91.0041 108.236 102.685 108.76C114.366 109.285 113.972 103.854 112.817 102.227C111.058 99.8656 106.202 98.4225 103.499 98.4225Z" fill="#F69576"/>
<path d="M108.038 91.1018L110.296 105.717H96.5151C96.5151 105.717 97.1714 99.9179 97.9588 96.1395C98.7463 92.3875 99.4025 91.1018 99.4025 91.1018H108.038Z" fill="#F69576"/>
<path d="M102.027 95.09C102.027 95.09 101.922 97.7926 103.707 98.947C105.492 100.128 109.455 100.154 109.455 100.154L108.038 91.1018H102.237C102.21 91.1018 101.817 93.3845 102.027 95.09Z" fill="#DD866F"/>
<path d="M110.007 73.3905C110.007 73.3905 111.766 74.8336 112.501 78.0085C113.078 80.4486 112.947 83.0987 113.262 84.568C113.577 86.0374 114.049 88.3988 113.629 90.4454C113.209 92.492 111.398 95.2994 108.012 96.244C104.626 97.1886 101.87 96.5064 100.006 94.145C98.1425 91.7835 95.8326 87.5854 95.1501 84.673C94.4676 81.7605 94.0739 76.2243 97.1975 73.7841C101.187 70.688 105.938 70.6618 110.007 73.3905Z" fill="#F69576"/>
<path d="M103.866 89.8429C103.866 89.8429 104.181 91.8378 105.362 92.2578C106.543 92.6778 107.751 92.389 108.276 91.7328C108.827 91.0766 109.089 89.8167 109.089 89.8167L103.866 89.8429Z" fill="white"/>
<path d="M106.754 87.6656C106.649 87.6656 106.57 87.6394 106.518 87.5869C106.36 87.4556 106.36 87.2456 106.36 87.1144C106.36 87.0881 106.36 87.0619 106.36 87.0619C106.334 87.0881 106.282 87.1144 106.177 87.2194C106.072 87.3244 105.94 87.3769 105.809 87.3244C105.625 87.2719 105.494 87.0881 105.442 86.8519C105.363 86.4319 105.73 85.7757 105.783 85.697C105.809 85.6445 105.888 85.6182 105.94 85.6445C105.993 85.6707 106.019 85.7494 105.993 85.8019C105.888 85.9857 105.625 86.5369 105.678 86.7994C105.704 86.9831 105.809 87.0881 105.888 87.0881C105.94 87.1144 105.993 87.0619 106.019 87.0356C106.177 86.8519 106.308 86.7731 106.413 86.7994C106.465 86.7994 106.518 86.8519 106.57 86.9044C106.597 86.9569 106.597 87.0094 106.597 87.1144C106.597 87.2194 106.597 87.3769 106.675 87.4294C106.702 87.4556 106.754 87.4556 106.833 87.4556C106.99 87.4294 107.017 87.2981 106.99 87.0619C106.99 86.9306 106.99 86.8519 107.043 86.7731C107.069 86.7469 107.122 86.7207 107.174 86.7207C107.253 86.7207 107.332 86.7732 107.41 86.8519C107.568 86.9569 107.62 86.9831 107.725 86.9044C107.778 86.8519 107.778 86.7731 107.778 86.6419C107.752 86.3007 107.542 85.8544 107.358 85.7232C107.305 85.6969 107.305 85.6182 107.332 85.5657C107.358 85.5132 107.437 85.5132 107.489 85.5395C107.725 85.7232 107.962 86.2482 107.988 86.6419C107.988 86.8256 107.962 86.9831 107.857 87.0619C107.62 87.2981 107.384 87.1406 107.253 87.0356C107.227 87.0356 107.227 87.0094 107.2 87.0094C107.2 87.0356 107.2 87.0356 107.2 87.0619C107.2 87.2719 107.227 87.6394 106.833 87.6919C106.807 87.6656 106.78 87.6656 106.754 87.6656Z" fill="#6B3425"/>
<path d="M89.9802 82.5474C91.0302 79.9498 98.6423 82.3112 97.2249 87.0866C95.7812 91.9669 88.4316 86.3782 89.9802 82.5474Z" fill="#F69576"/>
<path d="M95.809 87.6646C95.7827 87.6646 95.7565 87.6646 95.7302 87.6384C95.6777 87.5859 95.6777 87.5334 95.7302 87.481C96.0452 87.1399 96.0977 86.0641 95.704 84.9883C95.4152 84.2274 94.7065 82.9417 93.0791 82.7581C92.2129 82.6531 91.5829 82.7843 91.2417 83.2041C90.7167 83.7814 90.9792 84.7522 90.9792 84.7784C91.0054 84.8309 90.9529 84.9096 90.9005 84.9096C90.848 84.9358 90.7692 84.8834 90.7692 84.8309C90.7692 84.7784 90.4805 83.7289 91.0842 83.0729C91.4779 82.6006 92.1866 82.4432 93.1316 82.5482C94.4178 82.7056 95.4415 83.5715 95.9402 84.9358C96.334 86.0116 96.334 87.1923 95.914 87.6646C95.8615 87.6646 95.8352 87.6646 95.809 87.6646Z" fill="#6B3425"/>
<path d="M93.0793 87.2444C93.0268 87.2444 93.0006 87.2182 92.9743 87.1657C92.9481 87.087 92.0819 84.9879 93.3418 82.6265C93.368 82.574 93.4468 82.5478 93.4993 82.574C93.5518 82.6003 93.578 82.679 93.5518 82.7314C92.3443 84.9879 93.1843 87.0345 93.1843 87.0608C93.2106 87.1132 93.1843 87.1919 93.1318 87.2182C93.1056 87.2444 93.0793 87.2444 93.0793 87.2444Z" fill="#6B3425"/>
<path d="M103.077 85.4609C103.309 85.4609 103.497 85.0849 103.497 84.621C103.497 84.1571 103.309 83.781 103.077 83.781C102.845 83.781 102.657 84.1571 102.657 84.621C102.657 85.0849 102.845 85.4609 103.077 85.4609Z" fill="#6B3425"/>
<path d="M101.134 82.3918C101.475 82.1031 102.131 81.7618 102.814 81.6831C103.575 81.6043 104.021 81.9456 104.31 82.0243C104.625 82.1031 104.651 81.6831 104.494 81.3156C104.336 80.9481 103.68 80.6856 102.656 80.7381C101.606 80.7644 101.055 81.2369 100.766 81.5518C100.478 81.8931 100.688 82.7593 101.134 82.3918Z" fill="#6B3425"/>
<path d="M109.511 85.2256C109.743 85.2256 109.931 84.8495 109.931 84.3856C109.931 83.9217 109.743 83.5457 109.511 83.5457C109.279 83.5457 109.091 83.9217 109.091 84.3856C109.091 84.8495 109.279 85.2256 109.511 85.2256Z" fill="#6B3425"/>
<path d="M107.962 82.0756C108.304 81.7869 108.96 81.4457 109.642 81.3669C110.404 81.2882 110.85 81.6294 111.139 81.7082C111.454 81.7869 111.48 81.3669 111.322 80.9994C111.165 80.632 110.509 80.3695 109.485 80.422C108.435 80.4482 107.884 80.9207 107.595 81.2357C107.306 81.5769 107.516 82.4431 107.962 82.0756Z" fill="#6B3425"/>
<path d="M110.666 92.3085L110.141 92.4397C110.141 92.4397 109.117 94.4338 108.277 94.8273C107.437 95.2209 104.655 95.0635 104.34 94.8273C104.051 94.565 103.08 92.361 103.08 92.361L102.424 92.5184C102.424 92.5184 103.421 95.7194 103.579 96.0081C103.684 96.1917 105.521 97.4512 106.23 97.5036C106.939 97.5561 109.432 96.218 109.537 95.9031C109.931 94.9585 110.666 92.3085 110.666 92.3085Z" fill="#6B3425"/>
<path d="M107.488 93.5414L106.254 93.5151L106.228 95.6675L107.173 95.8513L107.488 93.5414Z" fill="#6B3425"/>
<path d="M96.5151 70.375C96.5151 70.375 99.4025 75.5964 107.435 76.0687C124.181 77.0395 116.49 67.6462 116.49 67.6462C116.49 67.6462 117.094 70.1388 114.207 70.27C110.296 70.4537 104.6 58.4891 96.5151 70.375Z" fill="#A5713D"/>
<path d="M110.452 66.7269C110.452 66.7269 108.011 60.0886 101.082 58.9079C94.1519 57.7272 86.1723 63.6833 83.4161 68.8784C80.66 74.0736 82.5237 85.3298 82.5237 85.3298C82.5237 85.3298 83.5999 73.5226 86.1723 72.8929C88.7709 72.2632 91.632 76.4613 91.632 76.4613L110.452 66.7269Z" fill="#254B6B"/>
<path d="M111.188 65.4929C112.37 65.9652 114.863 69.0875 114.312 70.1633C113.761 71.239 92.9979 80.9209 92.0792 81.2096C91.1605 81.4982 89.1918 77.7199 90.5568 75.1748C91.9217 72.6559 108.038 64.2072 111.188 65.4929Z" fill="white"/>
<path d="M83.1725 87.7323C84.7187 87.6091 85.8694 86.2212 85.7427 84.6323C85.616 83.0434 84.2599 81.8552 82.7137 81.9784C81.1675 82.1016 80.0168 83.4895 80.1435 85.0784C80.2702 86.6673 81.6263 87.8555 83.1725 87.7323Z" fill="white"/>
<path d="M139.223 130.486C139.328 127.941 135.443 128.387 135.049 129.883C134.655 131.378 134.314 146.754 135.049 147.882C135.784 149.01 137.963 149.588 138.645 147.882C139.354 146.177 139.118 132.979 139.223 130.486Z" fill="white"/>
<path d="M114.181 101.465C113.263 99.9172 110.218 99.4449 110.664 100.442C111.11 101.439 111.058 105.873 109.378 106.45C107.698 107.028 105.756 106.792 105.703 108.733C105.651 110.675 110.927 109.756 112.501 108.287C114.076 106.818 115.205 103.197 114.181 101.465Z" fill="white"/>
<path d="M97.3547 98.8684C97.7485 97.3991 92.8924 97.7139 92.1575 99.2357C91.055 101.492 91.3175 102.883 92.1575 104.903C93.4699 108.13 98.7197 110.702 102.736 110.702C105.072 110.702 106.752 109.783 105.702 108.209C104.626 106.609 99.5334 108.183 97.3547 105.743C95.1761 103.276 97.0398 100.075 97.3547 98.8684Z" fill="white"/>
<path d="M106.647 120.462C107.778 120.462 108.694 119.545 108.694 118.415C108.694 117.285 107.778 116.368 106.647 116.368C105.516 116.368 104.6 117.285 104.6 118.415C104.6 119.545 105.516 120.462 106.647 120.462Z" fill="white"/>
<path d="M106.124 164.411C107.153 164.411 107.988 163.577 107.988 162.548C107.988 161.519 107.153 160.685 106.124 160.685C105.095 160.685 104.26 161.519 104.26 162.548C104.26 163.577 105.095 164.411 106.124 164.411Z" fill="white"/>
<path d="M107.409 131.641C108.351 131.641 109.115 130.877 109.115 129.935C109.115 128.993 108.351 128.23 107.409 128.23C106.467 128.23 105.703 128.993 105.703 129.935C105.703 130.877 106.467 131.641 107.409 131.641Z" fill="white"/>
<path d="M211.563 218.698C211.563 218.698 221.827 241.762 222.483 243.756C223.139 245.75 219.517 255.983 221.144 256.901C222.772 257.82 226.814 257.977 227.89 256.901C228.966 255.826 230.988 251.549 228.966 239.951C226.945 228.354 223.612 218.725 223.612 218.725H211.563V218.698Z" fill="#DD866F"/>
<path d="M229.622 244.726C231.643 245.041 231.932 247.744 231.67 250.472C231.407 253.201 230.331 263.146 230.331 263.146H228.966V256.324L224.793 264.195C216.025 268.314 216.025 263.119 216.025 263.119L221.196 252.073C221.196 252.073 219.464 256.612 222.798 256.665C226.131 256.717 229.622 244.726 229.622 244.726Z" fill="#512176"/>
<path d="M219.307 219.172C219.307 219.172 229.57 242.235 230.227 244.229C230.909 246.223 227.261 256.456 228.888 257.374C230.515 258.293 234.558 258.45 235.634 257.374C236.71 256.299 238.731 252.022 236.71 240.425C234.689 228.827 231.355 219.198 231.355 219.198H219.307V219.172Z" fill="#F69576"/>
<path d="M237.42 245.515C239.441 245.83 239.704 248.192 239.441 250.947C239.179 253.702 238.103 263.62 238.103 263.62H236.738L237.105 255.25L232.564 264.669C222.143 269.156 223.797 263.594 223.797 263.594L228.469 252.6C228.469 252.6 227.341 256.877 230.674 256.929C234.008 256.981 237.42 245.515 237.42 245.515Z" fill="#512176"/>
<path d="M226.996 101.728C234.32 101.807 238.651 101.728 240.305 105.061C241.958 108.393 235.973 133.346 233.637 139.669C231.301 145.992 236.63 151.634 238.31 158.954C239.963 166.275 236.971 175.93 235.658 182.254C234.346 188.577 235.002 198.233 238.651 203.218C242.299 208.203 248.967 216.18 248.967 216.18C248.967 216.18 233.664 224.156 224.345 224.156C215.027 224.156 203.057 221.821 203.057 221.821C203.057 221.821 206.391 212.506 203.057 204.53C199.698 196.527 206.365 157.957 207.677 150.637C209.016 143.316 204.685 112.722 207.336 107.055C210.013 101.387 219.568 101.65 226.996 101.728Z" fill="#512176"/>
<path d="M224.083 100.757C226.629 101.15 232.01 101.701 232.824 101.78C233.611 101.859 235.134 105.217 233.69 108.681C232.273 112.118 227.312 113.613 221.17 113.272C215.027 112.931 214.502 109.468 213.295 106.372C212.087 103.275 214.345 102.515 216.392 101.911C219.385 101.071 222.141 100.468 224.083 100.757Z" fill="#DD866F"/>
<path d="M249.623 85.0139C250.463 88.5299 244.268 97.3721 227.469 98.238C210.67 99.1039 198.228 92.4918 198.333 86.2209C198.438 79.9237 205.21 82.9149 207.231 81.2619C209.252 79.6088 208.963 76.9588 211.483 74.6498C214.003 72.3409 215.631 73.8889 216.838 72.5508C218.046 71.2126 217.337 67.4868 222.508 67.1457C227.679 66.8046 229.805 72.6557 231.406 72.8919C233.034 73.1018 234.845 72.4458 236.971 74.9909C239.097 77.536 238.283 80.842 240.83 81.8391C243.349 82.8099 247.995 78.1658 249.623 85.0139Z" fill="black"/>
<path d="M219.885 93.1492L217.68 107.318H231.041C231.041 107.318 230.385 101.703 229.65 98.0557C228.915 94.4086 228.258 93.1754 228.258 93.1754H219.885V93.1492Z" fill="#DD866F"/>
<path d="M225.682 97.0062C225.682 97.0062 225.787 99.6038 224.055 100.758C222.323 101.886 218.49 101.913 218.49 101.913L219.855 93.1492H225.499C225.499 93.1492 225.919 95.3532 225.682 97.0062Z" fill="#DD866F"/>
<path d="M217.967 75.9898C217.967 75.9898 216.287 77.3804 215.552 80.4765C214.975 82.8379 215.106 85.4093 214.817 86.8262C214.529 88.2693 214.056 90.5258 214.45 92.5199C214.844 94.514 216.629 97.2165 219.883 98.1348C223.165 99.0532 225.842 98.3972 227.653 96.1145C229.464 93.8318 231.695 89.7648 232.352 86.9311C233.008 84.0974 233.375 78.7448 230.357 76.3834C226.498 73.366 221.905 73.3397 217.967 75.9898Z" fill="#F69576"/>
<path d="M219.463 91.3643C220.146 91.1806 220.854 91.6005 220.854 91.6005C220.854 91.6005 221.799 91.1282 222.114 91.1282C223.112 91.1282 223.978 91.9416 223.978 91.9416C223.978 91.9416 223.4 95.405 221.484 95.2213C218.282 94.9065 218.308 91.8628 218.308 91.8628C218.308 91.8628 218.833 91.5217 219.463 91.3643Z" fill="#512176"/>
<path d="M224.003 91.9428C224.003 91.9428 223.741 93.8852 222.481 94.2789C221.221 94.6726 219.908 94.4101 219.305 93.7539C218.701 93.0977 218.333 91.864 218.333 91.864L224.003 91.9428Z" fill="white"/>
<path d="M221.039 89.8173C220.671 89.7648 220.671 89.3974 220.698 89.2136C220.698 89.1874 220.698 89.1874 220.698 89.1611C220.671 89.1611 220.671 89.1874 220.645 89.1874C220.514 89.2924 220.304 89.4499 220.068 89.2136C219.963 89.1349 219.937 88.9774 219.937 88.7936C219.963 88.4262 220.199 87.9012 220.409 87.7437C220.461 87.7174 220.514 87.7174 220.566 87.7699C220.593 87.8224 220.593 87.8749 220.54 87.9274C220.383 88.0324 220.173 88.4786 220.147 88.8199C220.147 88.9249 220.173 89.0299 220.199 89.0561C220.304 89.1349 220.356 89.1086 220.488 89.0036C220.566 88.9511 220.619 88.8986 220.724 88.8986C220.776 88.8986 220.803 88.8986 220.855 88.9249C220.908 88.9774 220.908 89.0824 220.908 89.1874C220.908 89.4236 220.908 89.5548 221.065 89.5811C221.144 89.5811 221.17 89.5811 221.223 89.5548C221.275 89.5024 221.301 89.3449 221.301 89.2399C221.301 89.1611 221.301 89.0824 221.328 89.0561C221.354 89.0036 221.406 88.9774 221.459 88.9511C221.564 88.9511 221.695 89.0036 221.853 89.1874C221.879 89.2136 221.931 89.2399 221.984 89.2399C222.063 89.2136 222.141 89.1349 222.168 88.9511C222.22 88.6886 221.958 88.1637 221.879 87.9799C221.853 87.9274 221.879 87.8487 221.931 87.8224C221.984 87.7962 222.063 87.8224 222.089 87.8749C222.141 87.9537 222.483 88.6099 222.404 89.0036C222.351 89.2399 222.22 89.4236 222.063 89.4499C221.931 89.4761 221.8 89.4499 221.721 89.3449C221.643 89.2399 221.59 89.2136 221.538 89.1874C221.538 89.2136 221.538 89.2399 221.538 89.2399C221.538 89.3711 221.511 89.5811 221.38 89.7123C221.328 89.7648 221.249 89.7911 221.144 89.7911C221.091 89.8436 221.065 89.8436 221.039 89.8173Z" fill="#6B3425"/>
<path d="M237.366 84.8586C236.342 82.3398 228.966 84.6225 230.331 89.2404C231.748 93.9895 238.862 88.5845 237.366 84.8586Z" fill="#F69576"/>
<path d="M231.721 89.8439C231.748 89.8439 231.774 89.8439 231.8 89.8177C231.853 89.7652 231.853 89.7127 231.8 89.6603C231.511 89.3192 231.433 88.2696 231.826 87.2464C232.089 86.5117 232.771 85.2785 234.372 85.0686C235.212 84.9636 235.816 85.0948 236.157 85.4884C236.656 86.0656 236.42 86.984 236.42 87.0102C236.394 87.0627 236.446 87.1414 236.499 87.1414C236.551 87.1676 236.63 87.1152 236.63 87.0627C236.63 87.0102 236.892 86.0132 236.315 85.3572C235.921 84.9111 235.265 84.7537 234.32 84.8587C233.086 85.0161 232.089 85.8557 231.59 87.1676C231.196 88.2172 231.223 89.3716 231.616 89.8177C231.669 89.8177 231.695 89.8439 231.721 89.8439Z" fill="#6B3425"/>
<path d="M234.374 89.4229C234.427 89.4229 234.453 89.3967 234.479 89.3442C234.506 89.2655 235.346 87.2189 234.112 84.9624C234.086 84.9099 234.007 84.8837 233.954 84.91C233.902 84.9362 233.876 85.0149 233.902 85.0674C235.083 87.2451 234.269 89.2393 234.243 89.2655C234.217 89.318 234.243 89.3967 234.296 89.3967C234.348 89.4229 234.374 89.4229 234.374 89.4229Z" fill="#6B3425"/>
<path d="M219.832 83.8889C219.439 83.7577 218.599 83.3639 217.943 83.5214C217.234 83.7052 216.945 84.0726 216.683 84.2301C216.42 84.4139 216.394 84.4139 216.42 84.0464C216.446 83.6527 216.945 83.2064 217.916 82.8914C218.888 82.5765 219.544 82.8127 219.911 83.0227C220.252 83.1802 220.357 84.0726 219.832 83.8889Z" fill="#6B3425"/>
<path d="M217.205 85.724C217.362 85.5403 217.493 86.1702 218.15 86.3015C218.806 86.4327 219.278 85.8027 219.436 86.0652C219.593 86.3277 219.252 87.0627 218.307 86.879C217.362 86.6952 216.89 86.0915 217.205 85.724Z" fill="black"/>
<path d="M224.397 84.4382C224.817 84.307 225.709 83.9132 226.418 84.0707C227.179 84.2545 227.494 84.622 227.756 84.7795C228.019 84.9369 228.071 84.9632 228.045 84.5957C228.019 84.2282 227.494 83.7557 226.47 83.4408C225.447 83.1258 224.738 83.362 224.344 83.572C223.924 83.7557 223.819 84.6482 224.397 84.4382Z" fill="#6B3425"/>
<path d="M227.18 86.3007C227.023 86.1169 226.865 86.7469 226.157 86.8781C225.448 87.0094 224.949 86.3794 224.792 86.6419C224.634 86.9044 224.975 87.6393 225.973 87.4556C226.97 87.2456 227.495 86.6681 227.18 86.3007Z" fill="black"/>
<path d="M218.806 74.4927C218.806 74.4927 220.617 78.3759 224.738 80.7374C228.859 83.0988 231.956 84.0959 231.956 84.0959C231.956 84.0959 233.269 89.4485 236.156 89.8158C239.017 90.2094 241.091 84.883 241.091 84.883L231.983 75.2798L225.762 70.8193L218.806 74.4927Z" fill="black"/>
<path d="M232.796 90.1307C232.796 90.1307 234.764 94.46 232.796 94.4338C231.273 94.4338 232.796 90.1307 232.796 90.1307Z" fill="#FFE051"/>
<path d="M239.701 104.141C245.292 103.826 246.473 108.208 246.131 113.534C245.79 118.861 243.402 128.359 238.309 134.814C233.217 141.268 225.5 146.778 223.505 147.119C221.51 147.46 218.675 145.965 218.019 143.787C217.363 141.609 219.673 121.826 220.854 118.677C222.035 115.528 224.686 106.712 227.022 105.532C229.358 104.351 231.511 102.882 231.17 104.115C230.828 105.348 226.497 112.354 226.34 113.849C226.182 115.345 226.182 130.143 226.681 129.986C227.18 129.828 233.847 120.173 234.162 118.677C234.477 117.181 235.107 104.377 239.701 104.141Z" fill="#F69576"/>
<path d="M210.801 103.669C210.801 103.669 210.224 105.715 210.04 107.867C209.673 112.144 207.494 118.572 207.494 118.572C205.814 121.406 203.347 127.493 203.347 127.493C203.347 127.493 209.725 123.662 212.429 121.668C215.132 119.674 219.49 114.19 221.484 110.359C223.479 106.529 230.015 102.75 230.724 103.826C231.433 104.902 227.18 108.339 225.527 111.042C224.503 112.721 224.162 116.237 222.167 118.861C220.172 121.484 215.342 130.169 212.009 133.344C208.675 136.493 202.69 139.536 200.853 140.166C197.021 141.504 194.343 140.533 194.002 138.015C193.661 135.496 193.529 130.091 196.181 124.03C198.858 117.942 207.914 102.436 210.801 103.669Z" fill="#F69576"/>
<path d="M152.293 131.272H118.59V162.312H152.293V131.272Z" fill="#FFE051"/>
<path d="M152.293 139.248H118.59V139.747H152.293V139.248Z" fill="#493127"/>
<path d="M134.235 131.272H133.736V162.312H134.235V131.272Z" fill="#493127"/>
<path d="M133.63 139.905L133.735 139.171C133.814 138.698 134.47 134.474 135.914 133.661C136.202 133.503 136.544 133.477 136.832 133.608C137.147 133.739 137.331 133.975 137.41 134.29C137.698 135.812 134.522 139.039 134.155 139.407L133.63 139.905ZM136.439 134.002C136.334 134.002 136.255 134.028 136.176 134.08C135.31 134.553 134.68 136.94 134.391 138.436C135.625 137.098 137.121 135.156 136.937 134.343C136.911 134.185 136.832 134.107 136.675 134.028C136.596 134.028 136.517 134.002 136.439 134.002Z" fill="#493127"/>
<path d="M133.159 139.511L133.842 139.012C133.999 138.881 137.989 135.969 140.01 136.441C140.456 136.546 140.771 136.782 140.981 137.176C141.086 137.385 141.086 137.595 140.981 137.779C140.325 138.96 135.049 139.38 134.025 139.458L133.159 139.511ZM139.511 136.861C138.146 136.861 136.02 138.12 134.892 138.881C137.175 138.671 140.168 138.173 140.535 137.543C140.561 137.49 140.561 137.464 140.535 137.412C140.404 137.149 140.194 136.992 139.905 136.939C139.774 136.887 139.643 136.861 139.511 136.861Z" fill="#493127"/>
<path d="M140.008 143.237H139.982C138.092 143.21 134.181 140.613 133.735 139.59C133.603 139.301 133.708 139.117 133.787 139.039C134.443 138.356 138.144 139.721 139.851 140.849C140.874 141.531 141.268 142.161 141.006 142.686C140.927 142.948 140.664 143.237 140.008 143.237ZM134.181 139.353C134.312 139.931 137.462 142.24 139.509 142.659C139.903 142.738 140.428 142.764 140.559 142.476C140.664 142.266 140.402 141.898 139.877 141.479C138.144 140.114 134.68 139.117 134.181 139.353Z" fill="#493127"/>
<path d="M137.017 146.622C136.833 146.622 136.649 146.57 136.492 146.491C134.759 145.546 133.841 139.905 133.736 139.249L133.604 138.436L134.156 139.039C134.602 139.511 138.487 143.815 138.119 145.73C138.041 146.097 137.831 146.36 137.489 146.517C137.332 146.57 137.174 146.622 137.017 146.622ZM134.392 140.01C134.786 142.03 135.626 145.415 136.728 146.019C136.912 146.123 137.096 146.123 137.306 146.045C137.489 145.966 137.594 145.809 137.647 145.625C137.883 144.418 135.731 141.584 134.392 140.01Z" fill="#493127"/>
<path d="M131.293 145.966C131.109 145.966 130.926 145.913 130.768 145.808C130.479 145.625 130.322 145.336 130.269 144.995C130.086 143.211 133.472 139.852 133.865 139.485L134.443 138.934L134.285 139.721C134.18 140.298 133.157 145.284 131.634 145.94C131.529 145.94 131.424 145.966 131.293 145.966ZM131.057 145.389C131.214 145.494 131.346 145.494 131.477 145.441C132.396 145.048 133.236 142.188 133.656 140.43C132.474 141.689 130.689 143.841 130.794 144.943C130.794 145.126 130.873 145.257 131.057 145.389Z" fill="#493127"/>
<path d="M128.275 142.921C128.144 142.921 128.013 142.921 127.908 142.895C127.068 142.79 126.726 142.318 126.595 141.95C126.254 140.98 126.726 140.14 127.96 139.589C129.955 138.671 133.787 138.618 134.286 139.484C134.365 139.615 134.417 139.851 134.181 140.166C133.472 141.242 130.27 142.921 128.275 142.921ZM131.792 139.379C130.637 139.379 129.22 139.563 128.144 140.035C127.173 140.481 126.805 141.085 127.041 141.793C127.33 142.633 128.643 142.449 129.404 142.265C131.714 141.688 133.866 140.114 133.814 139.746C133.735 139.537 132.869 139.379 131.792 139.379Z" fill="#493127"/>
<path d="M133.812 139.957C133.628 139.957 133.471 139.904 133.392 139.878C132.001 139.458 128.694 137.044 128.431 135.522C128.352 135.155 128.484 134.84 128.772 134.63C129.744 133.896 131.45 135.181 132.736 136.598C132.972 136.861 134.915 139.091 134.258 139.799C134.127 139.93 133.97 139.957 133.812 139.957ZM129.429 134.893C129.271 134.893 129.14 134.919 129.061 134.998C128.825 135.181 128.877 135.522 129.166 135.995C130.242 137.674 133.445 139.642 133.865 139.432C134.022 139.143 132.972 137.359 131.371 135.942C130.61 135.286 129.901 134.893 129.429 134.893Z" fill="#493127"/>
<path d="M96.0405 128.227L96.1193 141.373C96.1193 141.373 111.816 141.556 112.84 141.294C113.863 141.058 118.929 137.017 119.454 136.807C119.979 136.597 120.478 136.807 120.294 137.411C120.084 138.04 119.323 139.956 119.323 139.956C119.323 139.956 123.182 139.51 123.523 139.326C123.864 139.116 126.174 137.332 126.647 137.175C127.119 137.017 127.933 137.332 127.723 137.83C127.513 138.329 125.334 141.137 125.334 141.137C125.334 141.137 125.78 144.128 124.625 145.23C123.497 146.332 118.142 147.224 115.543 147.407C112.945 147.591 93.2844 150.084 91.657 150.005C90.0295 149.926 87.6147 149.428 86.7747 145.912C85.9347 142.396 85.646 128.909 85.646 128.909L96.0405 128.227Z" fill="#F69576"/>
<path d="M92.6574 106.476C83.6803 106.187 82.7616 118.886 82.3153 126.836C81.8691 134.813 83.234 147.381 85.6752 150.031C88.1163 152.681 112.501 151.763 112.501 151.763V135.259C112.501 135.259 96.8047 136.623 96.2272 135.364C95.6235 134.131 107.199 106.922 92.6574 106.476Z" fill="#046AA3"/>
<path d="M112.498 135.259C112.603 133.108 110.083 133.108 109.873 135.259C109.637 137.411 109.243 150.819 109.453 152.262C109.663 153.705 112.524 155.935 112.524 152.76C112.498 149.612 112.393 137.437 112.498 135.259Z" fill="white"/>
</svg>
