<svg width="375" height="307" viewBox="0 0 375 307" fill="none" xmlns="http://www.w3.org/2000/svg">
<path d="M170.601 53.4659C188.762 56.9009 222.982 -13.2143 260.881 2.25617C298.78 17.7266 270.921 67.5729 284.43 78.7431C297.966 89.9132 334.945 55.5374 350.504 91.6438C366.064 127.75 342.409 166.426 342.068 172.431C341.726 178.436 384.724 210.714 372.792 255.158C360.86 299.603 202.402 303.904 145.842 305.608C89.3088 307.338 13.6677 307.181 2.52396 260.848C-8.61982 214.516 42.0003 174.162 46.6786 161.208C51.3568 148.255 9.01574 103.181 62.1064 47.776C103.16 4.9045 152.466 50.031 170.601 53.4659Z" fill="#9ECBDD"/>
<path d="M160.456 166.399H78.3491V188.556H160.456V166.399Z" fill="#776B67"/>
<path d="M161.585 168.051H76.4038V139.68H144.922L161.585 153.604V168.051Z" fill="#6B3425"/>
<path d="M123.844 188.555H78.3491V159.293L101.11 140.833L123.844 159.293V188.555Z" fill="#776B67"/>
<path d="M130.703 124.97H123.844V140.833H130.703V124.97Z" fill="#A5713D"/>
<path d="M133.306 137.739H121.531V142.904H133.306V137.739Z" fill="#E7D0B0"/>
<path d="M99.9273 153.865H97.2202V160.577H99.9273V153.865Z" fill="#417A8C"/>
<path d="M104.212 153.865H101.11V160.577H104.212V153.865Z" fill="#417A8C"/>
<path d="M89.7286 170.621H85.9702V171.906H89.7286V170.621Z" fill="#417A8C"/>
<path d="M93.9851 170.621H90.8838V171.906H93.9851V170.621Z" fill="#417A8C"/>
<path d="M89.7286 172.823H85.9702V181.082H89.7286V172.823Z" fill="#417A8C"/>
<path d="M93.9851 172.823H90.8838V181.082H93.9851V172.823Z" fill="#417A8C"/>
<path d="M132.359 171.932H128.233V174.895H132.359V171.932Z" fill="#417A8C"/>
<path d="M132.359 176.94H128.233V179.641H132.359V176.94Z" fill="#417A8C"/>
<path d="M132.359 181.083H128.233V183.784H132.359V181.083Z" fill="#417A8C"/>
<path d="M138.562 171.932H134.436V174.895H138.562V171.932Z" fill="#417A8C"/>
<path d="M138.562 176.94H134.436V179.641H138.562V176.94Z" fill="#417A8C"/>
<path d="M138.562 181.083H134.436V183.784H138.562V181.083Z" fill="#417A8C"/>
<path d="M144.79 171.932H140.664V174.895H144.79V171.932Z" fill="#417A8C"/>
<path d="M144.79 176.94H140.664V179.641H144.79V176.94Z" fill="#417A8C"/>
<path d="M144.79 181.083H140.664V183.784H144.79V181.083Z" fill="#417A8C"/>
<path d="M150.993 171.932H146.866V174.895H150.993V171.932Z" fill="#417A8C"/>
<path d="M150.993 176.94H146.866V179.641H150.993V176.94Z" fill="#417A8C"/>
<path d="M150.993 181.083H146.866V183.784H150.993V181.083Z" fill="#417A8C"/>
<path d="M157.195 171.932H153.069V174.895H157.195V171.932Z" fill="#417A8C"/>
<path d="M157.195 176.94H153.069V179.641H157.195V176.94Z" fill="#417A8C"/>
<path d="M157.195 181.083H153.069V183.784H157.195V181.083Z" fill="#417A8C"/>
<path d="M111.439 170.621H107.68V171.906H111.439V170.621Z" fill="#417A8C"/>
<path d="M115.695 170.621H112.594V171.906H115.695V170.621Z" fill="#417A8C"/>
<path d="M111.439 172.823H107.68V181.082H111.439V172.823Z" fill="#417A8C"/>
<path d="M115.695 172.823H112.594V181.082H115.695V172.823Z" fill="#417A8C"/>
<path d="M279.884 136.611H277.519V145.212H279.884V136.611Z" fill="#6B3425"/>
<path d="M328.454 166.53H267.846V145.212L298.15 138.001L328.454 145.212V166.53Z" fill="#E7D0B0"/>
<path d="M330.398 166.53H265.691V187.245H330.398V166.53Z" fill="#A5713D"/>
<path d="M279.227 151.61H275.837V159.922H279.227V151.61Z" fill="#417A8C"/>
<path d="M284.327 151.61H279.859V159.922H284.327V151.61Z" fill="#417A8C"/>
<path d="M298.045 151.61H294.655V159.922H298.045V151.61Z" fill="#417A8C"/>
<path d="M303.17 151.61H298.702V159.922H303.17V151.61Z" fill="#417A8C"/>
<path d="M315.417 151.61H312.027V159.922H315.417V151.61Z" fill="#417A8C"/>
<path d="M320.542 151.61H316.074V159.922H320.542V151.61Z" fill="#417A8C"/>
<path d="M279.227 168.942H275.837V177.254H279.227V168.942Z" fill="#417A8C"/>
<path d="M284.327 168.942H279.859V177.254H284.327V168.942Z" fill="#417A8C"/>
<path d="M298.045 168.942H294.655V177.254H298.045V168.942Z" fill="#417A8C"/>
<path d="M303.17 168.942H298.702V177.254H303.17V168.942Z" fill="#417A8C"/>
<path d="M315.417 168.942H312.027V177.254H315.417V168.942Z" fill="#417A8C"/>
<path d="M320.542 168.942H316.074V177.254H320.542V168.942Z" fill="#417A8C"/>
<path d="M2.55138 260.821C13.6952 307.154 89.3362 307.311 145.87 305.581C202.404 303.85 360.861 299.576 372.819 255.131C380.941 224.899 363.647 200.277 351.846 185.75H28.0717C13.0118 204.839 -4.46605 231.637 2.55138 260.821Z" fill="#776B67"/>
<path d="M13.459 206.778C4.20755 222.642 -2.1791 241.207 2.55175 260.82C13.6955 307.153 89.3366 307.31 145.87 305.579C202.404 303.849 360.861 299.575 372.82 255.13C377.813 236.539 373.188 220.072 366.17 206.778H13.459Z" fill="#8A9995"/>
<path d="M187.633 150.561C187.633 150.561 198.514 145.972 203.613 155.648C208.712 165.324 199.986 171.486 195.623 171.774C191.26 172.062 186.74 170.594 183.612 171.879C180.484 173.137 174.492 179.011 167.632 178.723C160.772 178.434 154.36 173.085 152.94 162.177C150.575 144.399 165.687 146.444 165.687 146.444C165.687 146.444 161.272 132.075 169.814 127.277C178.329 122.478 187.843 126.779 190.682 133.832C193.494 140.886 187.633 150.561 187.633 150.561Z" fill="#96C22F"/>
<path d="M179.592 138.815C179.592 138.815 179.986 148.202 178.409 150.929C176.832 153.656 174.388 156.2 174.598 156.803C174.782 157.379 183.219 173.741 185.663 179.589C188.107 185.436 187.634 187.298 187.03 188.583C186.451 189.841 186.635 199.517 186.635 199.517H180.275C180.275 199.517 180.354 192.594 181.037 189.736C181.747 186.904 182.614 186.904 182.325 185.541C182.036 184.177 171.05 158.455 172.022 156.095C172.995 153.735 176.228 153.079 177.121 149.854C178.015 146.629 179.592 138.815 179.592 138.815Z" fill="#6B3425"/>
<path d="M191.443 159.555C191.443 159.555 185.845 164.746 184.479 166.975C183.112 169.23 181.009 173.321 181.009 173.321L183.007 176.258C183.007 176.258 185.03 169.02 186.239 167.369C187.422 165.717 191.443 159.555 191.443 159.555Z" fill="#6B3425"/>
<path d="M158.407 158.873C158.407 158.873 164.189 162.386 168 163.278C171.811 164.169 176.332 164.851 176.332 164.851L177.515 167.919C177.515 167.919 159.091 163.461 158.407 158.873Z" fill="#6B3425"/>
<path d="M177.776 77.7987C177.776 77.7987 174.517 71.5057 181.928 70.7977C181.166 65.7895 188.42 58.2378 201.009 61.463C203.138 56.009 215.149 46.3859 223.507 58.1067C239.434 51.4465 241.695 61.0434 239.566 62.774C251.919 60.5452 249.737 68.9884 247.661 69.9324C264.008 66.445 261.748 77.7987 261.748 77.7987H177.776Z" fill="white"/>
<path d="M51.3307 115.32C51.3307 115.32 49.964 111.833 53.0653 111.439C52.75 108.66 55.7724 104.491 61.0289 106.274C61.9225 103.258 66.9425 97.9355 70.4118 104.412C77.0613 100.715 78.0074 106.038 77.1138 106.982C82.2652 105.749 81.3716 110.417 80.478 110.941C87.3114 109.001 86.3653 115.294 86.3653 115.294H51.3307V115.32Z" fill="white"/>
<path d="M243.378 192.988H231.945V199.543H243.378V192.988Z" fill="#6B3425"/>
<path d="M254.494 178.199H269.002L264.744 160.08L254.494 156.226H263.825L262.721 151.559L246.215 150.3L261.696 147.18L259.514 137.897L246.215 133.728C246.215 133.728 253.469 133.309 258.358 133.047L251.735 104.833L240.906 103.889L251.235 102.735L237.647 44.9175L229.631 79.0573H234.598L228.921 82.0728L226.372 92.9021H235.623L225.846 95.2357L224.953 99.0116H230.13L224.532 100.821L219.144 123.607L231.944 126.308L217.856 129.166L213.546 147.468H226.845L212.206 153.132L207.764 172.064C214.781 173.086 225.005 174.528 225.005 174.528L206.581 177.098L202.849 192.988H272.471L270.395 184.151L254.494 178.199Z" fill="#7EA21A"/>
<path d="M316.39 191.975L322.54 191.975L322.54 188.435L316.39 188.435L316.39 191.975Z" fill="#6B3425"/>
<path d="M310.398 180.48H302.593L304.879 170.726L310.398 168.654H305.352L305.93 166.137L314.814 165.455L306.482 163.777L307.665 158.769L314.814 156.514C314.814 156.514 310.898 156.278 308.27 156.147L311.844 140.965L317.679 140.466L312.107 139.837L319.44 108.687L323.776 127.068H321.095L324.144 128.693L325.511 134.514H320.543L325.826 135.773L326.299 137.818H323.513L326.536 138.788L329.427 151.034L322.541 152.476L330.137 154.023L332.449 163.882H325.301L333.185 166.924L335.577 177.124C331.792 177.674 326.299 178.461 326.299 178.461L336.234 179.851L338.258 188.399H300.7L301.83 183.626L310.398 180.48Z" fill="#7EA21A"/>
<path d="M120.69 79.712C120.69 79.712 115.329 76.3295 109.31 80.184C105.263 82.7537 104.789 91.8524 106.288 94.9465C107.786 98.0406 114.672 103.678 114.672 103.678C114.672 103.678 140.455 84.93 120.69 79.712Z" fill="#A5713D"/>
<path d="M137.906 133.282L137.985 146.602C137.985 146.602 153.938 146.786 154.963 146.523C155.988 146.261 161.14 142.197 161.665 141.961C162.217 141.751 162.717 141.961 162.506 142.59C162.296 143.22 161.508 145.16 161.508 145.16C161.508 145.16 165.424 144.714 165.765 144.504C166.133 144.295 168.473 142.485 168.946 142.328C169.419 142.171 170.26 142.485 170.023 142.984C169.813 143.482 167.605 146.34 167.605 146.34C167.605 146.34 168.052 149.381 166.896 150.509C165.739 151.636 160.325 152.528 157.697 152.712C155.068 152.895 135.12 155.412 133.438 155.36C131.782 155.281 129.338 154.757 128.497 151.191C127.656 147.625 127.367 133.963 127.367 133.963L137.906 133.282Z" fill="#DD866F"/>
<path d="M107.577 259.037V279.988H90.0462C90.0462 279.988 87.5494 275.792 90.0462 274.665C92.5431 273.511 100.691 269.526 100.691 269.526L100.375 259.037H107.577Z" fill="#F69576"/>
<path d="M107.577 269.5V279.989H90.0462C90.0462 279.989 87.5494 275.794 90.0462 274.666C92.5431 273.512 100.691 269.527 100.691 269.527H107.577V269.5Z" fill="#032240"/>
<path d="M107.575 277.863V279.988H90.0445C90.0445 279.988 89.4663 279.017 89.1509 277.863H107.575Z" fill="#BFBFBF"/>
<path d="M121.979 259.037L121.821 269.526C121.821 269.526 130.994 271.256 133.438 271.99C136.382 272.908 139.772 273.695 140.245 276.553C140.666 279.018 140.245 279.988 140.245 279.988H111.834L114.909 259.037H121.979Z" fill="#F69576"/>
<path d="M121.821 269.499C121.821 269.499 130.994 271.23 133.438 271.964C136.382 272.882 139.772 273.669 140.245 276.527C140.666 278.991 140.245 279.962 140.245 279.962H111.834L112.938 269.473H121.821V269.499Z" fill="#BFBFBF"/>
<path d="M140.244 276.554C140.323 277.052 140.376 277.498 140.402 277.865H112.069L112.937 269.5H121.82C121.82 269.5 130.993 271.231 133.437 271.965C136.381 272.883 139.771 273.696 140.244 276.554Z" fill="#032240"/>
<path d="M250.578 131L233.968 139.679C233.968 139.679 217.226 136.113 216.306 135.694C215.386 135.274 211.181 130.554 210.708 130.24C210.235 129.951 209.709 130.056 209.814 130.686C209.893 131.315 210.314 133.308 210.314 133.308C210.314 133.308 206.687 132.233 206.398 131.97C206.109 131.708 204.19 129.61 203.743 129.374C203.323 129.139 202.482 129.296 202.587 129.82C202.692 130.345 204.321 133.413 204.321 133.413C204.321 133.413 203.375 136.218 204.295 137.477C205.189 138.735 210.182 140.492 212.653 141.122C215.123 141.725 233.574 147.493 235.177 147.703C236.78 147.913 238.121 147.021 241.327 145.553C246.689 143.062 256.413 137.005 256.413 137.005L250.578 131Z" fill="#DD866F"/>
<path d="M268.53 120.094C265.14 119.281 257.308 118.258 254.338 122.113C251.368 125.967 250.816 129.717 250.816 129.717C250.816 129.717 247.583 130.556 247.215 131.736C246.847 132.916 252.367 139.287 254.022 138.868C255.678 138.448 270.186 129.297 270.186 129.297L268.53 120.094Z" fill="#FFE051"/>
<path d="M262.275 91.9571C258.254 94.6054 260.225 105.618 257.097 109.263C262.143 109.919 291.527 115.005 291.527 115.005C291.527 115.005 295.916 102.183 293.157 97.3324C290.423 92.5077 269.029 87.5257 262.275 91.9571Z" fill="#DBAC73"/>
<path d="M257.911 131.131C256.334 132.521 255.677 138.001 256.833 139.574C260.25 144.163 249.396 158.506 249.396 158.506L276.624 159.765C276.072 150.299 278.543 140.387 282.643 138.499C287.847 136.087 278.149 124.576 278.149 124.576L267.452 123.212C267.452 123.212 261.407 128.063 257.911 131.131Z" fill="#FFE051"/>
<path d="M274.653 137.503C276.177 137.503 277.413 136.271 277.413 134.75C277.413 133.23 276.177 131.997 274.653 131.997C273.129 131.997 271.894 133.23 271.894 134.75C271.894 136.271 273.129 137.503 274.653 137.503Z" fill="white"/>
<path d="M267.032 144.241C268.556 144.241 269.792 143.009 269.792 141.488C269.792 139.968 268.556 138.735 267.032 138.735C265.508 138.735 264.272 139.968 264.272 141.488C264.272 143.009 265.508 144.241 267.032 144.241Z" fill="white"/>
<path d="M259.857 150.692C261.381 150.692 262.616 149.46 262.616 147.939C262.616 146.419 261.381 145.186 259.857 145.186C258.333 145.186 257.097 146.419 257.097 147.939C257.097 149.46 258.333 150.692 259.857 150.692Z" fill="white"/>
<path d="M274.653 146.918C276.177 146.918 277.413 145.685 277.413 144.165C277.413 142.644 276.177 141.412 274.653 141.412C273.129 141.412 271.894 142.644 271.894 144.165C271.894 145.685 273.129 146.918 274.653 146.918Z" fill="white"/>
<path d="M268.635 156.198C270.159 156.198 271.395 154.966 271.395 153.445C271.395 151.925 270.159 150.692 268.635 150.692C267.111 150.692 265.875 151.925 265.875 153.445C265.875 154.966 267.111 156.198 268.635 156.198Z" fill="white"/>
<path d="M265.034 134.278C266.558 134.278 267.794 133.045 267.794 131.525C267.794 130.004 266.558 128.771 265.034 128.771C263.51 128.771 262.274 130.004 262.274 131.525C262.274 133.045 263.51 134.278 265.034 134.278Z" fill="white"/>
<path d="M251.631 158.114C251.631 158.114 248.004 163.437 245.77 175.629C243.536 187.822 244.929 207.121 245.77 210.897C246.611 214.673 255.547 263.26 254.995 264.807C254.443 266.354 245.77 271.913 245.77 271.913H262.512C262.512 271.913 265.534 238.639 265.14 232.87C264.746 227.101 260.278 218.894 260.278 218.894L275.942 162.335L251.631 158.114Z" fill="#F69576"/>
<path d="M253.022 160.341C253.022 160.341 259.961 191.623 265.165 204.707C270.369 217.792 272.892 220.676 272.892 220.676C272.892 220.676 280.435 239.529 282.669 246.845C284.903 254.16 285.455 262.367 286.585 265.933C287.715 269.473 296.625 280.67 298.807 278.048C301.776 274.508 299.437 269.919 298.044 268.372C296.651 266.825 292.446 263.705 292.446 263.705C292.446 263.705 293.287 235.989 291.894 229.984C290.501 224.006 283.799 218.001 283.51 216.218C283.221 214.435 281.907 169.623 280.041 165.874C278.175 162.124 271.473 155.228 253.022 160.341Z" fill="#F69576"/>
<path d="M249.973 157.012C249.973 157.012 246.004 166.714 243.218 175.655C240.432 184.596 241.274 214.724 241.274 214.724L275.94 216.009V196.081L280.04 216.009H287.426C287.426 216.009 286.874 174.632 283.509 166.976C280.145 159.319 275.914 158.297 275.914 158.297L249.973 157.012Z" fill="black"/>
<path d="M262.615 125.966C264.139 125.966 265.375 124.733 265.375 123.213C265.375 121.692 264.139 120.459 262.615 120.459C261.091 120.459 259.855 121.692 259.855 123.213C259.855 124.733 261.091 125.966 262.615 125.966Z" fill="white"/>
<path d="M255.572 135.719C257.096 135.719 258.331 134.487 258.331 132.966C258.331 131.446 257.096 130.213 255.572 130.213C254.048 130.213 252.812 131.446 252.812 132.966C252.812 134.487 254.048 135.719 255.572 135.719Z" fill="white"/>
<path d="M286.218 264.569C286.218 264.569 286.56 268.214 286.77 268.87C286.954 269.525 293.393 277.811 294.865 278.624C295.627 279.043 299.281 280.066 299.622 279.961C300.936 279.515 301.62 273.721 300.752 271.833C298.229 266.431 292.447 263.704 292.447 263.704C292.447 263.704 297.756 268.739 297.94 270.286C298.124 271.833 298.44 275.163 296.179 275.399C293.893 275.635 286.218 264.569 286.218 264.569Z" fill="#512176"/>
<path d="M262.957 266.879C262.957 266.879 263.903 268.452 263.903 270.524C263.903 272.595 262.878 273.565 261.012 273.775C259.146 273.985 255.703 273.487 254.678 273.775C253.653 274.063 254.205 275.322 251.708 275.401C249.185 275.479 240.538 275.558 240.144 275.401C239.776 275.243 240.433 273.172 241.274 272.595C242.115 271.992 247.214 270.969 247.214 270.969C247.214 270.969 251.892 271.861 255.73 270.078C259.541 268.295 262.957 266.879 262.957 266.879Z" fill="#512176"/>
<path d="M258.883 272.804L259.435 275.479H261.958L263.167 271.913L258.883 272.804Z" fill="#7D009B"/>
<path d="M268.477 112.175L266.165 126.99H280.147C280.147 126.99 279.463 121.116 278.675 117.288C277.887 113.486 277.203 112.175 277.203 112.175H268.477Z" fill="#F69576"/>
<path d="M279.335 122.145C279.768 122.101 280.084 121.715 280.04 121.283C279.996 120.85 279.609 120.535 279.176 120.579C278.742 120.623 278.427 121.009 278.471 121.442C278.515 121.874 278.902 122.189 279.335 122.145Z" fill="#512176"/>
<path d="M277.968 122.904C278.401 122.86 278.717 122.474 278.673 122.041C278.629 121.609 278.242 121.294 277.808 121.338C277.375 121.382 277.06 121.768 277.104 122.2C277.148 122.633 277.535 122.948 277.968 122.904Z" fill="#512176"/>
<path d="M276.653 123.69C277.087 123.646 277.402 123.26 277.358 122.827C277.314 122.395 276.927 122.08 276.494 122.124C276.061 122.168 275.745 122.554 275.789 122.987C275.833 123.419 276.22 123.734 276.653 123.69Z" fill="#512176"/>
<path d="M275.818 123.481C275.893 123.053 275.607 122.645 275.178 122.569C274.75 122.493 274.34 122.779 274.265 123.207C274.189 123.635 274.475 124.043 274.904 124.119C275.333 124.194 275.742 123.909 275.818 123.481Z" fill="#512176"/>
<path d="M273.606 124.477C274.039 124.433 274.355 124.047 274.311 123.614C274.267 123.182 273.88 122.867 273.447 122.911C273.013 122.955 272.698 123.341 272.742 123.773C272.786 124.206 273.173 124.52 273.606 124.477Z" fill="#512176"/>
<path d="M271.978 124.479C272.411 124.435 272.726 124.048 272.682 123.616C272.638 123.184 272.251 122.869 271.818 122.913C271.385 122.957 271.069 123.343 271.113 123.775C271.157 124.208 271.544 124.522 271.978 124.479Z" fill="#512176"/>
<path d="M271.081 123.905C271.198 123.486 270.952 123.052 270.533 122.936C270.114 122.819 269.679 123.064 269.562 123.482C269.444 123.901 269.69 124.335 270.109 124.452C270.529 124.568 270.963 124.324 271.081 123.905Z" fill="#512176"/>
<path d="M268.822 124.137C269.255 124.093 269.571 123.707 269.527 123.275C269.483 122.842 269.096 122.527 268.662 122.571C268.229 122.615 267.914 123.001 267.958 123.434C268.002 123.866 268.389 124.181 268.822 124.137Z" fill="#512176"/>
<path d="M267.378 123.533C267.811 123.489 268.127 123.103 268.083 122.671C268.039 122.238 267.652 121.923 267.219 121.967C266.785 122.011 266.47 122.397 266.514 122.83C266.558 123.262 266.945 123.577 267.378 123.533Z" fill="#512176"/>
<path d="M274.575 116.213C274.575 116.213 274.681 118.94 272.893 120.12C271.08 121.3 267.059 121.326 267.059 121.326L268.478 112.175H274.365C274.365 112.175 274.786 114.482 274.575 116.213Z" fill="#DD866F"/>
<path d="M266.479 94.2396C266.479 94.2396 264.718 95.708 263.929 98.9332C263.325 101.424 263.456 104.073 263.167 105.593C262.852 107.088 262.352 109.474 262.773 111.546C263.194 113.617 265.033 116.475 268.476 117.419C271.893 118.389 274.705 117.681 276.598 115.295C278.49 112.909 280.829 108.635 281.539 105.698C282.222 102.735 282.616 97.1239 279.462 94.6592C275.415 91.5126 270.605 91.4602 266.479 94.2396Z" fill="#F69576"/>
<path d="M269.686 108.713C269.292 108.661 269.318 108.267 269.318 108.057C269.318 108.031 269.318 108.031 269.318 108.005C269.292 108.005 269.292 108.031 269.266 108.057C269.134 108.162 268.924 108.32 268.661 108.083C268.556 107.979 268.53 107.847 268.53 107.638C268.556 107.244 268.793 106.719 269.029 106.536C269.082 106.51 269.161 106.51 269.187 106.562C269.213 106.614 269.213 106.693 269.161 106.719C269.003 106.851 268.766 107.297 268.74 107.638C268.74 107.769 268.766 107.847 268.793 107.9C268.898 108.005 268.95 107.952 269.108 107.847C269.187 107.795 269.266 107.742 269.345 107.716C269.397 107.716 269.45 107.716 269.476 107.769C269.555 107.821 269.529 107.926 269.529 108.057C269.529 108.32 269.529 108.424 269.712 108.477C269.791 108.477 269.844 108.477 269.87 108.451C269.949 108.398 269.949 108.241 269.949 108.136C269.949 108.057 269.949 107.979 269.975 107.926C270.002 107.874 270.054 107.847 270.133 107.821C270.238 107.821 270.37 107.9 270.527 108.083C270.554 108.11 270.606 108.162 270.659 108.136C270.738 108.11 270.816 108.031 270.869 107.847C270.921 107.559 270.659 107.008 270.554 106.824C270.527 106.772 270.554 106.693 270.606 106.667C270.659 106.641 270.738 106.667 270.764 106.719C270.816 106.798 271.184 107.48 271.105 107.9C271.053 108.162 270.921 108.32 270.738 108.372C270.606 108.398 270.475 108.372 270.37 108.267C270.291 108.162 270.212 108.136 270.186 108.11C270.186 108.136 270.186 108.162 270.186 108.162C270.186 108.32 270.159 108.529 270.028 108.661C269.975 108.713 269.896 108.739 269.791 108.739C269.739 108.713 269.712 108.713 269.686 108.713Z" fill="#6B3425"/>
<path d="M286.797 103.52C285.745 100.898 278.018 103.258 279.438 108.109C280.909 113.065 288.347 107.375 286.797 103.52Z" fill="#F69576"/>
<path d="M280.883 108.713C280.91 108.713 280.936 108.713 280.962 108.687C281.015 108.635 281.015 108.582 280.962 108.53C280.647 108.189 280.568 107.088 280.988 106.013C281.278 105.252 281.987 103.941 283.669 103.731C284.563 103.627 285.194 103.758 285.535 104.177C286.061 104.78 285.798 105.75 285.798 105.75C285.772 105.803 285.824 105.882 285.877 105.882C285.93 105.908 286.008 105.855 286.008 105.803C286.008 105.75 286.298 104.702 285.693 104.02C285.273 103.548 284.589 103.391 283.617 103.495C282.303 103.653 281.278 104.544 280.752 105.908C280.358 106.983 280.358 108.215 280.778 108.661C280.831 108.687 280.857 108.713 280.883 108.713Z" fill="#6B3425"/>
<path d="M283.667 108.267C283.72 108.267 283.746 108.24 283.773 108.188C283.799 108.109 284.666 105.959 283.405 103.599C283.378 103.547 283.3 103.521 283.247 103.547C283.194 103.573 283.168 103.652 283.194 103.704C284.43 105.985 283.562 108.083 283.562 108.083C283.536 108.136 283.562 108.214 283.615 108.24C283.615 108.267 283.641 108.267 283.667 108.267Z" fill="#6B3425"/>
<path d="M273.497 106.457C273.729 106.457 273.917 106.081 273.917 105.618C273.917 105.154 273.729 104.778 273.497 104.778C273.264 104.778 273.076 105.154 273.076 105.618C273.076 106.081 273.264 106.457 273.497 106.457Z" fill="#6B3425"/>
<path d="M276.178 102.578C275.836 102.421 275.179 102.237 274.469 102.185C273.707 102.132 273.26 102.342 272.945 102.368C272.629 102.421 272.603 102.185 272.761 101.975C272.919 101.765 273.576 101.634 274.627 101.66C275.678 101.686 276.256 101.949 276.546 102.106C276.835 102.263 276.624 102.788 276.178 102.578Z" fill="#6B3425"/>
<path d="M266.98 106.222C267.212 106.222 267.401 105.846 267.401 105.383C267.401 104.919 267.212 104.543 266.98 104.543C266.748 104.543 266.56 104.919 266.56 105.383C266.56 105.846 266.748 106.222 266.98 106.222Z" fill="#6B3425"/>
<path d="M268.556 102.29C268.215 102.133 267.558 101.949 266.848 101.897C266.086 101.844 265.639 102.054 265.324 102.08C265.008 102.133 264.982 101.897 265.14 101.687C265.297 101.477 265.954 101.346 267.006 101.372C268.057 101.398 268.635 101.661 268.924 101.818C269.214 102.002 269.003 102.5 268.556 102.29Z" fill="#6B3425"/>
<path d="M303.488 103.07C304.395 99.8795 293.673 94.0532 279.54 90.0567C265.407 86.0602 253.215 85.4069 252.309 88.5975C251.402 91.788 262.124 97.6143 276.257 101.611C290.39 105.607 302.582 106.261 303.488 103.07Z" fill="#E7D0B0"/>
<path d="M294.156 97.202C294.156 97.202 292.552 88.6539 290.897 86.7135C289.241 84.7732 272 81.1022 270.869 81.4431C269.739 81.784 260.646 88.7063 260.646 88.7063L294.156 97.202Z" fill="#E7D0B0"/>
<path d="M295.1 90.2536C295.1 90.2536 294.496 89.6767 294.18 89.5456C293.865 89.4145 293.339 88.4443 293.339 88.4443C293.339 88.4443 293.208 89.0474 292.945 89.0999C292.709 89.1785 292.13 89.231 292.052 89.3359C291.973 89.4407 291.894 89.5718 291.894 89.5718C291.894 89.5718 291.631 89.3883 291.473 89.2834C291.316 89.1785 291.263 89.0212 291.263 89.0212C291.263 89.0212 291.158 89.5194 290.895 89.6767C290.632 89.8341 290.186 90.1487 290.186 90.2536C290.186 90.3585 289.66 90.5158 289.187 90.6207C288.714 90.7518 288.477 90.5158 288.162 90.4109C287.846 90.306 287.741 90.3847 287.741 90.3847C287.741 90.3847 287.899 90.5682 287.794 90.778C287.662 90.9878 287.294 91.6695 287.4 92.4299C287.505 93.1904 288.214 93.6886 288.214 93.6886C288.214 93.6886 287.242 93.9245 286.979 94.1605C286.69 94.4227 286.585 94.5538 286.348 95.0258C286.112 95.4978 286.085 95.8125 286.112 96.2058C286.164 96.5991 286.138 96.7302 286.348 96.8351C286.559 96.94 287.242 97.2284 287.584 97.5955C287.925 97.9626 288.135 98.0675 288.135 98.0675L288.425 98.0413C288.425 98.0413 288.687 98.4083 288.609 98.8279C288.53 99.2474 288.503 99.667 288.582 99.9292C288.661 100.191 288.898 100.349 289.187 100.349C289.476 100.349 289.87 100.27 289.87 100.27C289.87 100.27 290.212 100.69 290.527 100.794C290.843 100.899 291.079 101.188 291.079 101.188C291.079 101.188 291.237 101.004 291.657 101.135C292.078 101.266 292.42 101.266 292.656 101.03C292.893 100.794 293.497 99.9292 293.707 99.8505C293.918 99.7456 293.918 99.4572 293.918 99.195C293.918 98.9328 294.233 98.1986 294.233 98.1986C294.233 98.1986 294.47 98.4083 294.785 98.2772C295.1 98.1461 295.153 97.9888 295.389 98.015C295.626 98.0413 295.836 97.9626 296.388 97.8577C296.94 97.7528 297.597 97.5955 297.781 97.2808C297.965 96.9924 297.834 95.7338 298.018 95.76C298.228 95.7862 298.386 95.8649 298.543 95.7862C298.701 95.6814 298.701 94.9734 298.57 94.8947C298.438 94.8423 298.123 94.8423 298.123 94.8423C298.123 94.8423 298.543 94.7112 298.57 94.4752C298.622 94.2392 298.596 93.9508 298.517 93.8721C298.412 93.7934 297.781 93.2166 297.781 93.2166C297.781 93.2166 298.202 92.9544 298.333 92.9281C298.465 92.9281 298.727 92.9806 298.727 92.9806C298.727 92.9806 297.571 92.1153 297.334 92.0891C297.072 92.0629 296.73 92.0891 296.73 92.0891C296.73 92.0891 296.993 91.8006 296.861 91.4335C296.73 91.0665 296.677 90.6994 296.677 90.6994C296.677 90.6994 295.863 90.6469 295.757 90.6469C295.652 90.6207 295.547 90.4896 295.547 90.4896L295.679 89.9127L295.1 90.2536Z" fill="#512176"/>
<path d="M293.051 90.6464C293.051 90.6464 293.393 90.3842 293.735 90.3842C294.05 90.3842 294.733 90.4891 294.733 90.4891L295.706 90.0171C295.706 90.0171 295.522 90.6988 295.574 90.8299C295.627 90.9873 295.758 91.3806 295.653 91.5641C295.548 91.7477 295.574 92.1672 295.522 92.4032C295.469 92.6392 295.496 92.8752 295.233 93.085C294.97 93.2947 294.891 93.6356 294.733 93.8454C294.576 94.0551 294.733 94.16 294.26 94.3698C293.787 94.5796 293.472 94.7893 293.472 94.7893C293.472 94.7893 294.26 94.16 294.392 93.7929C294.523 93.3996 294.865 93.0325 295.101 92.7965C295.338 92.5605 295.18 92.2459 295.285 91.8526C295.39 91.4592 295.233 90.7251 295.233 90.7251C295.233 90.7251 294.891 90.8299 294.444 90.8299C293.971 90.8037 293.051 90.6464 293.051 90.6464Z" fill="#7D009B"/>
<path d="M293.286 95.3146C293.286 95.3146 292.813 96.5994 292.471 96.8617C292.13 97.1239 291.867 97.2287 291.446 97.3074C291.026 97.4123 290.316 97.3336 290.264 97.2025C290.237 97.0714 290.421 96.7043 290.421 96.7043C290.421 96.7043 289.869 96.9928 289.948 97.2025C290.027 97.4123 290.08 97.6483 290.5 97.6221C290.921 97.5958 291.262 97.6221 291.919 97.4647C292.576 97.3336 292.603 97.3336 292.813 97.019C293.023 96.7043 293.417 95.603 293.417 95.603C293.417 95.603 293.969 96.0488 294.311 95.9964C294.653 95.9439 294.521 95.8128 294.889 95.603C295.283 95.3933 295.651 95.4719 295.757 95.2097C295.862 94.9475 295.336 94.5542 295.336 94.5542C295.336 94.5542 295.546 94.9213 295.362 95C295.178 95.0786 295.021 95.0524 294.863 95.2359C294.705 95.3933 294.705 95.6293 294.337 95.5768C293.969 95.5244 293.286 95.3146 293.286 95.3146Z" fill="#7D009B"/>
<path d="M290.58 92.1419C290.58 92.1419 290.448 92.719 290.737 92.7714C291.053 92.8239 291.762 93.2436 291.762 93.2436C291.762 93.2436 292.262 93.06 291.999 92.6403C291.736 92.2205 291.499 92.1156 291.184 92.0894C290.895 92.0369 290.58 92.1419 290.58 92.1419Z" fill="#7D009B"/>
<path d="M290.134 91.6704C290.134 91.6704 289.608 91.2507 289.372 91.3818C289.135 91.513 288.951 91.9065 288.662 91.9589C288.373 92.0114 288.373 91.9589 288.215 92.195C288.058 92.4311 287.9 93.0607 287.9 93.0607L289.004 93.9001C289.004 93.9001 288.136 93.2443 288.163 93.0082C288.189 92.7721 288.294 92.5098 288.61 92.3262C288.925 92.1426 289.424 91.9327 289.451 91.7753C289.477 91.6179 290.213 92.0114 290.213 92.0114L290.134 91.6704Z" fill="#7D009B"/>
<path d="M290.947 97.4644C290.947 97.4644 290.816 97.753 290.474 97.8841C290.133 98.0153 289.975 98.1465 289.581 98.2514C289.213 98.3563 288.083 98.094 288.083 98.094L288.556 98.5137C288.556 98.5137 289.029 98.6711 289.581 98.6186C290.106 98.5662 290.106 98.4088 290.501 98.2514C290.921 98.094 290.947 98.1989 291.236 97.9366C291.526 97.6743 291.578 97.3857 291.578 97.3857L290.947 97.4644Z" fill="#7D009B"/>
<path d="M294.206 98.2527C294.206 98.2527 293.917 97.9641 293.601 98.0428C293.286 98.1215 293.023 98.2527 292.787 98.2527C292.55 98.2789 292.34 98.174 292.366 97.9641C292.392 97.7543 292.524 97.0723 292.524 97.0723L292.261 97.2296C292.261 97.2296 291.919 97.833 292.024 98.1215C292.13 98.3838 292.208 98.6724 292.498 98.6724C292.787 98.6724 294.075 98.515 294.075 98.515L294.206 98.2527Z" fill="#7D009B"/>
<path d="M296.73 92.1668C296.73 92.1668 295.784 91.8783 295.678 91.957C295.573 92.0357 295.1 92.7701 295.1 92.7701L294.837 93.2948C294.837 93.2948 295.31 93.321 295.836 93.2948C296.362 93.2685 297.439 93.4522 297.439 93.4522H297.991L297.781 93.2685C297.781 93.2685 296.703 93.1374 296.362 93.1374C296.02 93.1112 295.205 93.0849 295.205 93.0849L295.757 92.2717L296.756 92.298L296.73 92.1668Z" fill="#7D009B"/>
<path d="M291.236 93.7153C291.236 93.7153 289.922 93.7153 289.475 94.0038C289.028 94.266 287.53 95.9441 287.53 95.9441L287.399 96.9667C287.399 96.9667 287.767 95.9966 288.109 95.7344C288.45 95.4721 289.318 94.738 289.607 94.502C289.896 94.2922 291.131 94.4757 291.131 94.4757L291.236 93.7153Z" fill="#7D009B"/>
<path d="M292.656 93.5831C292.656 93.5831 293.418 92.036 293.129 91.4591C292.84 90.8823 291.263 90.4365 291.263 90.4365C291.263 90.4365 290.159 91.9049 290.343 92.1671C290.554 92.4293 291.132 92.6915 291.132 92.6915C291.132 92.6915 290.738 92.0098 290.869 91.6951C291.027 91.3805 291.29 90.8561 291.29 90.8561C291.29 90.8561 292.551 91.3543 292.683 91.6689C292.814 91.9836 292.236 93.1635 292.236 93.1635L292.656 93.5831Z" fill="#7D009B"/>
<path d="M290.737 93.2174C290.737 93.2174 290.868 94.9487 291.131 95.0274C291.42 95.1061 293.181 95.2111 293.181 95.2111C293.181 95.2111 293.943 93.5585 293.812 93.4535C293.68 93.3486 292.629 92.5879 292.629 92.5879L292.55 92.8764C292.55 92.8764 293.523 93.4273 293.47 93.6372C293.418 93.847 293.023 94.8176 293.023 94.8176L291.289 94.529V92.6666L290.737 93.2174Z" fill="#7D009B"/>
<path d="M261.328 101.765L261.223 103.049C261.223 103.049 261.46 103.574 261.539 104.02C261.617 104.465 261.486 105.96 262.853 107.481C264.193 109.002 265.323 108.949 266.848 108.556C268.398 108.136 269.187 105.96 269.318 104.911C269.318 104.859 269.318 104.833 269.318 104.78C269.187 104.675 269.108 104.492 269.134 104.308C269.134 104.151 269.213 103.993 269.344 103.915C269.344 103.889 269.344 103.889 269.344 103.862H269.397C269.502 103.81 269.607 103.757 269.712 103.784L270.921 103.889C271.211 103.915 271.421 104.177 271.421 104.492C271.394 104.701 271.263 104.885 271.079 104.964C271.079 104.99 271.079 105.016 271.079 105.042C271.053 106.091 271.5 108.372 272.945 109.002C274.391 109.657 276.704 109.946 278.254 108.661C279.831 107.35 279.91 105.855 280.068 105.436C280.225 105.016 280.541 104.544 280.541 104.544L280.646 103.259C280.646 103.259 278.675 102.21 276.546 102.342C274.417 102.473 271.447 103.312 271.447 103.312C271.447 103.312 271.447 103.312 271.447 103.338C271.342 103.207 271.211 103.049 271.053 103.023C270.816 102.997 270.475 102.971 270.343 102.971C270.212 102.945 269.87 102.918 269.634 102.918C269.476 102.918 269.318 103.049 269.213 103.154C269.213 103.128 269.213 103.128 269.213 103.128C269.213 103.128 267.61 101.948 265.533 101.476C263.457 101.004 261.328 101.765 261.328 101.765ZM271.999 104.57C272.314 103.548 274.47 103.023 275.626 102.813C276.782 102.604 278.491 102.709 279.069 103.889C280.094 105.908 278.622 107.822 277.466 108.582C276.309 109.343 273.655 109.054 272.603 108.005C271.552 106.983 271.684 105.593 271.999 104.57ZM262.774 102.63C263.536 101.581 265.218 101.738 266.348 102.106C267.478 102.473 268.319 103.233 268.451 104.282C268.609 105.331 268.503 106.72 267.321 107.586C266.112 108.451 264.64 108.451 263.615 107.507C262.59 106.563 261.46 104.465 262.774 102.63Z" fill="black"/>
<path d="M273.234 111.702C273.234 111.702 271.552 110.732 271.053 110.837C270.553 110.942 270.396 111.44 270.396 111.44C270.396 111.44 269.739 110.68 269.318 110.994C268.898 111.309 268.477 112.384 268.477 112.384C268.477 112.384 269.344 114.403 270.764 114.246C272.13 114.141 273.234 111.702 273.234 111.702Z" fill="#7D009B"/>
<path d="M281.754 110.843C282.187 110.799 282.503 110.413 282.459 109.98C282.415 109.548 282.028 109.233 281.595 109.277C281.161 109.321 280.846 109.707 280.89 110.139C280.934 110.572 281.321 110.887 281.754 110.843Z" fill="#512176"/>
<path d="M271.315 134.75L254.047 143.77C254.047 143.77 236.648 140.047 235.676 139.627C234.703 139.208 230.366 134.278 229.867 133.964C229.368 133.649 228.842 133.78 228.921 134.436C229 135.091 229.447 137.163 229.447 137.163C229.447 137.163 225.688 136.035 225.373 135.773C225.057 135.511 223.06 133.308 222.613 133.072C222.166 132.836 221.299 132.993 221.43 133.544C221.562 134.068 223.218 137.267 223.218 137.267C223.218 137.267 222.245 140.178 223.191 141.489C224.137 142.8 229.315 144.636 231.865 145.265C234.44 145.894 253.626 151.873 255.282 152.109C256.938 152.318 258.331 151.401 261.669 149.854C267.241 147.284 277.36 140.965 277.36 140.965L271.315 134.75Z" fill="#F69576"/>
<path d="M289.791 123.213C293.392 126.989 291.894 133.466 288.241 136.901C284.587 140.309 278.28 141.516 278.28 141.516C278.28 141.516 275.888 145.318 274.942 144.085C273.995 142.853 268.371 134.121 269.159 133.518C269.974 132.915 272.524 132.941 272.524 132.941C272.524 132.941 271.078 125.573 275.914 122.296C279.068 120.145 284.141 117.287 289.791 123.213Z" fill="#FFE051"/>
<path d="M280.645 126.884C282.17 126.884 283.405 125.651 283.405 124.131C283.405 122.61 282.17 121.377 280.645 121.377C279.121 121.377 277.886 122.61 277.886 124.131C277.886 125.651 279.121 126.884 280.645 126.884Z" fill="white"/>
<path d="M286.06 136.27C287.585 136.27 288.82 135.037 288.82 133.517C288.82 131.996 287.585 130.764 286.06 130.764C284.536 130.764 283.301 131.996 283.301 133.517C283.301 135.037 284.536 136.27 286.06 136.27Z" fill="white"/>
<path d="M276.73 138.763C278.254 138.763 279.49 137.53 279.49 136.01C279.49 134.489 278.254 133.256 276.73 133.256C275.206 133.256 273.97 134.489 273.97 136.01C273.97 137.53 275.206 138.763 276.73 138.763Z" fill="white"/>
<path d="M257.122 142.17C256.465 142.458 255.546 142.983 255.125 143.219C255.388 142.118 255.703 141.331 256.045 140.728C256.991 139.128 259.435 137.87 262.747 140.964C266.059 144.058 269.475 152.606 269.475 152.606L267.872 153.681C267.872 153.681 266.61 150.377 265.06 147.257C263.509 144.163 261.091 141.462 259.935 141.121C259.173 140.911 257.937 140.518 257.122 142.17Z" fill="#512176"/>
<path d="M256.072 152.16C256.177 154.572 256.44 156.513 256.44 156.513L254.889 156.251C254.889 156.251 254.679 154.153 254.547 151.898C254.968 152.055 256.072 152.16 256.072 152.16Z" fill="#512176"/>
<path d="M272.051 151.609C271.288 149.669 267.977 150.927 267.162 151.845C266.347 152.763 265.664 153.025 264.008 152.632C262.352 152.238 260.644 152.107 259.409 153.313C258.173 154.52 257.805 155.49 256.307 155.306C254.809 155.123 254.599 153.261 253.075 154.756C251.576 156.25 251.524 157.587 251.025 164.929C250.525 172.271 250.341 175.47 250.998 176.362C251.655 177.253 252.785 177.673 252.785 177.673L278.516 171.589C278.516 171.589 280.198 170.567 279.725 168.469C279.252 166.371 272.944 153.89 272.051 151.609Z" fill="#512176"/>
<path d="M254.492 156.46C254.492 156.46 257.042 156.906 258.461 156.434C259.88 155.988 261.799 155.096 261.799 155.096C261.799 155.096 262.246 156.198 262.062 156.329C261.878 156.46 260.537 157.247 258.435 157.51C256.332 157.772 254.86 157.457 254.703 157.378C254.545 157.326 254.177 156.434 254.492 156.46Z" fill="#E7D0B0"/>
<path d="M262.562 154.703C262.352 154.808 262.431 155.988 262.825 155.936C263.219 155.883 265.164 155.752 266.767 155.542C268.371 155.332 269.948 154.677 269.948 154.677L269.711 153.627C269.711 153.627 268.423 154.126 266.794 154.257C265.164 154.388 263.088 154.493 262.562 154.703Z" fill="#E7D0B0"/>
<path d="M271.578 152.291C271.578 152.291 271.052 151.137 269.475 150.455C267.898 149.774 265.822 149.564 265.243 150.01C264.639 150.429 265.059 151.268 265.401 151.635C265.743 152.002 266.19 152.92 266.584 153.943C266.978 154.965 266.873 157.011 267.477 157.745C268.082 158.479 269.028 159.108 270.158 158.479C271.288 157.85 271.788 156.145 271.84 155.595C271.919 155.044 272.077 154.52 272.077 154.52L272.629 154.467C272.629 154.467 273.049 155.359 274.705 156.329C276.361 157.325 278.963 157.719 279.567 157.299C280.172 156.906 280.198 155.857 279.489 155.149C278.753 154.441 277.728 153.287 277.728 153.287C277.728 153.287 277.701 151.426 278.017 150.927C278.332 150.403 278.726 149.459 278.174 149.039C277.622 148.62 277.071 148.646 275.914 149.197C274.784 149.747 273.812 149.669 273.181 150.246C272.55 150.796 272.024 152.133 272.024 152.133L271.578 152.291Z" fill="#E7D0B0"/>
<path d="M134.752 164.065C134.752 164.065 135.724 174.396 134.752 191.571C133.779 208.746 129.574 225.239 129.075 227.205C128.575 229.172 122.425 262.079 122.425 262.079H112.832C112.832 262.079 118.246 217.608 118.746 204.105C119.245 190.601 117.011 165.297 117.011 165.297L134.752 164.065Z" fill="#254B6B"/>
<path d="M99.5327 165.299H119.981C119.981 165.299 121.557 206.151 119.981 208.039C118.404 209.953 113.568 217.61 112.832 223.51C112.096 229.409 110.098 262.081 110.098 262.081H99.5327V165.299Z" fill="#254B6B"/>
<path d="M114.725 110.34C124.897 110.13 128.182 111.651 130.311 116.397C132.44 121.143 137.854 162.913 138.353 171.435C138.853 179.957 137.197 185.017 125.554 185.017C113.91 185.017 97.9832 175.525 97.9832 175.525C97.9832 175.525 97.3262 178.462 96.8268 180.271C96.3274 182.08 91.4126 184.047 91.4126 180.927C91.4126 177.806 93.5415 129.009 93.8832 120.828C94.1985 112.647 106.998 110.523 114.725 110.34Z" fill="black"/>
<path d="M125.554 113.145C129.575 112.096 133.281 112.175 136.225 118.048C139.168 123.948 141.481 142.277 141.481 142.277L127.867 147.678C127.867 147.678 114.883 115.924 125.554 113.145Z" fill="black"/>
<path d="M93.8832 120.827C94.1985 112.646 107.024 110.496 114.725 110.339C121.559 110.182 125.264 110.837 127.63 112.699C130.836 112.279 133.78 113.171 136.224 118.022C139.168 123.921 141.481 142.25 141.481 142.25L135.252 144.715C136.802 156.095 138.117 167.422 138.353 171.408C138.853 179.93 137.197 184.99 125.554 184.99C113.91 184.99 97.9832 175.525 97.9832 175.525C97.9832 175.525 97.3262 178.461 96.8268 180.271C96.3274 182.08 91.4126 184.046 91.4126 180.926C91.4126 177.832 93.5415 129.008 93.8832 120.827Z" fill="black"/>
<path d="M118.218 109.499C114.618 109.499 110.386 109.839 108.152 111.255C105.445 112.986 105.498 119.436 117.351 119.987C129.204 120.538 128.81 115.005 127.627 113.379C125.919 110.993 120.978 109.525 118.218 109.499Z" fill="#F69576"/>
<path d="M122.845 102.106L125.158 116.921H111.175C111.175 116.921 111.859 111.047 112.647 107.219C113.436 103.417 114.119 102.106 114.119 102.106H122.845Z" fill="#F69576"/>
<path d="M116.747 106.144C116.747 106.144 116.642 108.871 118.429 110.051C120.243 111.231 124.264 111.257 124.264 111.257L122.845 102.106H116.957C116.931 102.106 116.511 104.413 116.747 106.144Z" fill="#DD866F"/>
<path d="M124.844 84.1435C124.844 84.1435 126.605 85.6119 127.393 88.8371C127.998 91.3281 127.866 93.9764 128.156 95.4972C128.471 96.9918 128.97 99.3779 128.55 101.449C128.129 103.521 126.289 106.379 122.846 107.323C119.43 108.293 116.618 107.585 114.725 105.199C112.833 102.813 110.494 98.5389 109.784 95.6021C109.101 92.6391 108.706 87.0278 111.86 84.563C115.908 81.4165 120.718 81.3903 124.844 84.1435Z" fill="#F69576"/>
<path d="M118.614 100.846C118.614 100.846 118.929 102.866 120.138 103.286C121.347 103.705 122.556 103.417 123.108 102.761C123.66 102.079 123.949 100.82 123.949 100.82L118.614 100.846Z" fill="white"/>
<path d="M121.532 98.6196C121.427 98.6196 121.348 98.5934 121.295 98.5409C121.137 98.4098 121.137 98.1999 121.137 98.0425C121.137 98.0163 121.137 97.9901 121.137 97.9901C121.111 98.0163 121.059 98.0425 120.953 98.1474C120.848 98.2524 120.717 98.3048 120.586 98.2524C120.402 98.1999 120.27 98.0163 120.218 97.7802C120.139 97.3605 120.507 96.6785 120.559 96.5998C120.586 96.5473 120.664 96.5211 120.717 96.5473C120.77 96.5735 120.796 96.6522 120.77 96.7047C120.664 96.8883 120.402 97.4392 120.454 97.7277C120.48 97.9114 120.586 98.0163 120.664 98.0163C120.717 98.0425 120.77 97.9901 120.796 97.9638C120.953 97.7802 121.085 97.7015 121.19 97.7015C121.243 97.7015 121.295 97.754 121.348 97.8064C121.374 97.8589 121.374 97.9114 121.374 98.0163C121.374 98.1212 121.374 98.2786 121.453 98.3311C121.479 98.3573 121.532 98.3573 121.611 98.3573C121.768 98.3311 121.795 98.1999 121.795 97.9376C121.795 97.8064 121.795 97.7277 121.847 97.649C121.873 97.6228 121.926 97.5966 121.978 97.5966C122.057 97.5966 122.136 97.6753 122.215 97.7277C122.373 97.8327 122.425 97.8589 122.53 97.7802C122.583 97.7277 122.609 97.649 122.583 97.5179C122.557 97.1769 122.346 96.7047 122.162 96.5998C122.11 96.5735 122.11 96.4948 122.136 96.4424C122.162 96.3899 122.241 96.3899 122.294 96.4162C122.53 96.5998 122.767 97.1244 122.793 97.5179C122.793 97.7277 122.767 97.8589 122.662 97.9638C122.399 98.1999 122.189 98.0425 122.057 97.9376C122.031 97.9376 122.031 97.9114 122.005 97.8851C122.005 97.9114 122.005 97.9114 122.005 97.9376C122.005 98.1474 122.031 98.5147 121.637 98.5934C121.611 98.6196 121.558 98.6196 121.532 98.6196Z" fill="#6B3425"/>
<path d="M104.5 93.4259C105.551 90.8038 113.278 93.1637 111.859 98.0146C110.413 102.997 102.949 97.3067 104.5 93.4259Z" fill="#F69576"/>
<path d="M110.413 98.6172C110.387 98.6172 110.361 98.6172 110.335 98.591C110.282 98.5386 110.282 98.4861 110.335 98.4337C110.65 98.0928 110.729 96.9915 110.308 95.9164C110.019 95.156 109.31 93.845 107.627 93.6352C106.734 93.5303 106.103 93.6614 105.761 94.081C105.236 94.684 105.499 95.6542 105.499 95.6542C105.525 95.7067 105.472 95.7853 105.42 95.7853C105.367 95.8116 105.288 95.7591 105.288 95.7067C105.288 95.6542 104.999 94.6054 105.604 93.9236C106.024 93.4517 106.708 93.2943 107.68 93.3992C108.994 93.5565 110.019 94.4481 110.545 95.8116C110.939 96.8866 110.939 98.119 110.519 98.5648C110.492 98.6172 110.466 98.6172 110.413 98.6172Z" fill="#6B3425"/>
<path d="M107.655 98.1979C107.602 98.1979 107.576 98.1716 107.549 98.1192C107.523 98.0405 106.656 95.8904 107.917 93.5305C107.944 93.4781 108.023 93.4518 108.075 93.4781C108.128 93.5043 108.154 93.5829 108.128 93.6354C106.892 95.9166 107.76 98.0143 107.76 98.0143C107.786 98.0667 107.76 98.1454 107.707 98.1716C107.681 98.1979 107.655 98.1979 107.655 98.1979Z" fill="#6B3425"/>
<path d="M117.798 96.3629C118.031 96.3629 118.219 95.9871 118.219 95.5235C118.219 95.0599 118.031 94.6841 117.798 94.6841C117.566 94.6841 117.378 95.0599 117.378 95.5235C117.378 95.9871 117.566 96.3629 117.798 96.3629Z" fill="#6B3425"/>
<path d="M115.827 93.2959C116.169 93.0073 116.826 92.6663 117.536 92.5876C118.298 92.5089 118.745 92.8499 119.06 92.9286C119.376 93.0073 119.402 92.5876 119.244 92.2204C119.086 91.8531 118.429 91.5908 117.378 91.617C116.327 91.6433 115.749 92.1417 115.459 92.4565C115.17 92.7712 115.381 93.6631 115.827 93.2959Z" fill="#6B3425"/>
<path d="M124.317 96.1534C124.55 96.1534 124.738 95.7776 124.738 95.314C124.738 94.8504 124.55 94.4746 124.317 94.4746C124.085 94.4746 123.897 94.8504 123.897 95.314C123.897 95.7776 124.085 96.1534 124.317 96.1534Z" fill="#6B3425"/>
<path d="M122.767 92.955C123.109 92.6665 123.766 92.3255 124.475 92.2468C125.237 92.1681 125.684 92.5091 126 92.5878C126.315 92.6665 126.341 92.2468 126.184 91.8795C126.026 91.5123 125.369 91.25 124.318 91.2762C123.266 91.3025 122.688 91.8008 122.399 92.1156C122.11 92.4304 122.32 93.3485 122.767 92.955Z" fill="#6B3425"/>
<path d="M125.526 103.312L125 103.443C125 103.443 123.975 105.488 123.108 105.855C122.24 106.249 119.428 106.118 119.113 105.855C118.824 105.593 117.825 103.338 117.825 103.338L117.168 103.496C117.168 103.496 118.167 106.747 118.324 107.035C118.43 107.219 120.296 108.478 121.032 108.556C121.767 108.635 124.264 107.245 124.396 106.931C124.764 106.013 125.526 103.312 125.526 103.312Z" fill="#6B3425"/>
<path d="M122.293 104.596L121.032 104.543L121.005 106.747L121.952 106.931L122.293 104.596Z" fill="#6B3425"/>
<path opacity="0.4" d="M97.4299 122.06L100.584 139.837L94.9331 141.542L97.4299 122.06Z" fill="#254B6B"/>
<path d="M111.15 81.1021C111.15 81.1021 114.094 86.3988 122.241 86.8708C139.22 87.8409 131.44 78.3489 131.44 78.3489C131.44 78.3489 132.044 80.8661 129.127 80.9972C125.132 81.1808 119.35 69.0666 111.15 81.1021Z" fill="#A5713D"/>
<path d="M221.589 182.945C221.562 182.945 221.51 182.945 221.484 182.945C218.671 182.919 217.331 181.555 217.331 178.776C217.331 177.15 218.225 176.626 218.724 176.468C219.67 176.154 220.8 176.547 221.194 177.071C221.852 177.937 221.615 178.697 221.221 179.064C220.8 179.457 220.196 179.51 219.749 179.143C219.644 179.038 219.618 178.881 219.696 178.776C219.802 178.671 219.959 178.645 220.064 178.723C220.327 178.933 220.643 178.854 220.827 178.671C221.063 178.435 221.194 177.963 220.748 177.386C220.511 177.045 219.618 176.704 218.882 176.966C218.225 177.176 217.857 177.805 217.857 178.776C217.83 181.267 218.96 182.394 221.457 182.42C222.456 182.42 223.376 181.896 224.033 180.978C224.848 179.824 225.058 178.225 224.559 176.862C223.586 174.161 221.694 171.958 218.225 169.467C217.699 169.1 217.147 168.707 216.595 168.34C214.782 167.107 212.942 165.796 211.496 164.302C209.867 162.571 209.052 160.762 209.052 158.821C209.026 155.203 211.365 153.499 213.546 153.42H213.573C215.123 153.394 216.069 154.6 216.201 156.75C216.28 158.245 215.596 159.687 214.624 160.028C214.046 160.237 213.494 160.001 213.073 159.424C212.285 158.349 212.705 157.589 212.942 157.301C213.283 156.881 213.809 156.671 214.177 156.829C214.414 156.933 214.545 157.169 214.519 157.458C214.492 157.615 214.361 157.72 214.23 157.694C214.072 157.668 213.967 157.537 213.993 157.405C213.993 157.353 213.993 157.327 213.993 157.327C213.941 157.301 213.704 157.327 213.467 157.537C213.283 157.72 212.889 158.245 213.52 159.11C213.809 159.503 214.098 159.634 214.44 159.529C215.071 159.293 215.728 158.192 215.649 156.802C215.596 155.727 215.255 153.944 213.573 153.971H213.546C211.601 154.023 209.551 155.57 209.578 158.821C209.604 162.886 213.31 165.429 216.884 167.92C217.436 168.287 217.988 168.681 218.514 169.048C222.088 171.617 224.033 173.899 225.032 176.704C225.584 178.277 225.373 179.982 224.427 181.319C223.77 182.315 222.719 182.919 221.589 182.945Z" fill="black"/>
<path d="M228.764 242.099C228.606 242.099 228.474 241.968 228.474 241.811C228.501 241.313 229.973 192.41 229.92 190.103C229.789 184.675 228.658 182.289 226.004 181.843C224.9 181.66 223.901 181.896 223.165 182.525C222.429 183.154 222.061 184.125 222.088 185.226C222.167 187.612 223.744 189.002 225.242 188.949C225.794 188.923 226.214 188.713 226.424 188.294C226.687 187.743 226.608 186.983 226.188 186.38C225.951 186.039 225.294 186.039 224.953 186.248C224.69 186.406 224.663 186.642 224.874 186.983C224.953 187.114 224.9 187.271 224.795 187.35C224.663 187.428 224.506 187.376 224.427 187.271C224.006 186.589 224.269 186.065 224.663 185.829C225.242 185.462 226.214 185.488 226.635 186.091C227.16 186.851 227.265 187.822 226.924 188.556C226.608 189.159 226.03 189.5 225.268 189.526C224.348 189.552 223.428 189.133 222.745 188.399C222.009 187.612 221.588 186.511 221.562 185.278C221.536 183.993 221.983 182.892 222.824 182.158C223.665 181.424 224.847 181.135 226.109 181.345C227.66 181.607 228.737 182.473 229.447 183.993C230.078 185.383 230.419 187.323 230.472 190.129C230.524 192.437 229.079 239.844 229.026 241.863C229.026 241.994 228.895 242.099 228.764 242.099Z" fill="black"/>
<path d="M227.03 234.285C226.82 234.285 226.584 234.285 226.321 234.206C225.48 234.049 222.142 232.659 219.225 231.348C216.36 230.09 213.074 228.516 212.391 227.966C211.024 226.891 211.182 225.239 211.392 224.793C211.524 224.478 211.997 224.268 212.444 224.295C212.943 224.321 213.337 224.609 213.521 225.134C213.653 225.527 213.626 225.842 213.469 226.051C213.206 226.392 212.733 226.34 212.68 226.34C212.522 226.314 212.417 226.183 212.444 226.051C212.47 225.894 212.601 225.789 212.733 225.816C212.812 225.816 212.996 225.816 213.048 225.737C213.101 225.658 213.101 225.527 213.022 225.317C212.89 224.95 212.628 224.872 212.444 224.845C212.155 224.819 211.918 224.976 211.892 225.029C211.76 225.317 211.629 226.681 212.733 227.546C213.258 227.966 215.965 229.303 219.461 230.85C222.878 232.371 225.743 233.525 226.426 233.682C227.057 233.813 227.556 233.734 227.898 233.446C228.213 233.184 228.371 232.764 228.345 232.266C228.318 231.322 227.661 230.352 227.057 230.352C226.794 230.352 226.741 230.693 226.741 230.771C226.715 231.033 226.82 231.296 226.978 231.296C227.136 231.322 227.214 231.453 227.188 231.61C227.162 231.768 227.03 231.846 226.873 231.82C226.4 231.741 226.163 231.191 226.189 230.719C226.216 230.168 226.557 229.801 227.03 229.775C228.029 229.749 228.844 231.06 228.87 232.213C228.896 232.869 228.66 233.446 228.239 233.813C227.977 234.049 227.609 234.259 227.03 234.285Z" fill="black"/>
<path d="M209.419 229.592C209.419 229.592 210.576 228.228 211.049 228.228C211.522 228.202 213.073 229.488 213.073 229.488L209.419 229.592Z" fill="black"/>
<path d="M227.372 213.177C227.345 213.177 227.319 213.177 227.293 213.177C226.504 213.177 222.693 212.207 219.434 211.289C216.859 210.555 212.443 209.244 211.786 208.588C210.603 207.408 210.551 205.809 211.208 205.127C211.576 204.734 211.97 204.708 212.207 204.734C212.601 204.786 212.995 205.049 213.205 205.442C213.442 205.888 213.284 206.543 212.969 206.832C212.759 207.041 212.496 207.094 212.259 206.963C212.128 206.884 212.075 206.727 212.154 206.596C212.233 206.464 212.391 206.412 212.522 206.491C212.548 206.491 212.601 206.438 212.654 206.333C212.759 206.124 212.785 205.861 212.706 205.704C212.601 205.494 212.338 205.311 212.128 205.284C211.918 205.258 211.734 205.337 211.576 205.52C211.077 206.045 211.208 207.33 212.154 208.247C212.575 208.667 215.466 209.663 219.566 210.817C223.114 211.814 226.636 212.679 227.267 212.679C227.766 212.679 228.239 212.417 228.554 211.945C228.922 211.42 228.975 210.738 228.738 210.188C228.397 209.427 227.924 208.877 227.556 208.824C227.372 208.798 227.214 208.877 227.056 209.06C226.925 209.218 226.872 209.375 226.899 209.48C226.951 209.69 227.214 209.847 227.293 209.873C227.424 209.926 227.503 210.083 227.424 210.24C227.372 210.371 227.214 210.45 227.056 210.371C227.004 210.345 226.452 210.083 226.347 209.585C226.294 209.375 226.32 209.06 226.636 208.693C226.977 208.274 227.372 208.247 227.608 208.274C228.186 208.352 228.765 208.982 229.211 209.952C229.527 210.66 229.448 211.551 228.975 212.233C228.633 212.81 228.029 213.151 227.372 213.177Z" fill="black"/>
<path d="M210.735 181.844C210.393 181.844 210.157 181.686 210.052 181.372C209.999 181.241 210.078 181.083 210.209 181.031C210.341 180.978 210.498 181.057 210.551 181.188C210.604 181.319 210.604 181.319 210.735 181.319C210.945 181.319 211.313 181.188 211.891 181.031L212.049 180.978C212.417 180.873 212.759 180.533 213.022 180.008C213.495 179.064 213.6 177.753 213.258 176.809C212.916 175.839 212.259 175.446 211.813 175.393C211.523 175.367 211.261 175.472 211.129 175.708C210.814 176.232 210.682 176.993 210.84 177.438C210.866 177.543 210.945 177.674 211.05 177.701C211.103 177.727 211.129 177.701 211.182 177.701C211.366 177.596 211.523 177.229 211.576 176.967C211.602 176.809 211.76 176.731 211.891 176.757C212.049 176.783 212.128 176.94 212.102 177.071C212.075 177.15 211.891 177.91 211.445 178.146C211.261 178.251 211.077 178.251 210.866 178.173C210.63 178.094 210.446 177.884 210.341 177.57C210.13 176.967 210.262 176.049 210.656 175.367C210.893 174.947 211.366 174.738 211.865 174.79C212.654 174.869 213.416 175.551 213.757 176.547C214.152 177.648 214.047 179.09 213.495 180.165C213.179 180.821 212.732 181.241 212.207 181.398L212.049 181.45C211.418 181.634 211.05 181.765 210.761 181.765C210.761 181.844 210.761 181.844 210.735 181.844Z" fill="black"/>
<path d="M211.392 233.657C211.235 233.657 211.13 233.553 211.103 233.395L209.08 158.796C209.08 158.639 209.185 158.534 209.342 158.508C209.5 158.508 209.605 158.613 209.632 158.77L211.655 233.369C211.655 233.526 211.524 233.631 211.392 233.657Z" fill="black"/>
<path d="M225.558 236.854C225.531 236.854 225.505 236.854 225.479 236.828L211.391 229.198C211.313 229.145 211.286 229.04 211.313 228.962C211.365 228.883 211.444 228.83 211.549 228.883L227.765 235.412C227.871 235.438 227.897 235.543 227.871 235.648C227.844 235.753 227.739 235.779 227.634 235.753L214.335 230.404L225.663 236.539C225.742 236.592 225.794 236.697 225.742 236.775C225.663 236.802 225.61 236.854 225.558 236.854Z" fill="black"/>
<path d="M219.749 238.585C219.696 238.585 219.644 238.559 219.618 238.533L211.312 229.015C211.26 228.936 211.26 228.831 211.312 228.779C211.365 228.7 211.47 228.7 211.549 228.752L223.034 237.379C223.113 237.432 223.14 237.563 223.061 237.641C223.008 237.72 222.877 237.746 222.798 237.668L212.705 230.063L219.88 238.271C219.933 238.349 219.933 238.454 219.854 238.533C219.828 238.559 219.802 238.585 219.749 238.585Z" fill="black"/>
<path d="M213.915 239.478C213.836 239.478 213.758 239.426 213.731 239.347L211.261 228.937C211.234 228.859 211.287 228.754 211.366 228.728C211.445 228.701 211.55 228.728 211.576 228.806L216.806 238.823C216.859 238.901 216.806 239.006 216.727 239.059C216.649 239.111 216.544 239.059 216.491 238.98L211.944 230.248L214.073 239.242C214.099 239.347 214.047 239.426 213.942 239.452C213.942 239.452 213.942 239.478 213.915 239.478Z" fill="black"/>
<path d="M211.05 239.556C210.945 239.556 210.866 239.478 210.866 239.373L211.286 228.884C211.286 228.779 211.365 228.701 211.47 228.701C211.575 228.701 211.654 228.779 211.654 228.884L211.234 239.373C211.207 239.478 211.129 239.556 211.05 239.556Z" fill="black"/>
<path d="M212.862 210.321L208.841 210.452C208.71 210.452 208.605 210.373 208.578 210.242C208.552 210.111 208.605 209.98 208.736 209.927L210.76 208.983C210.839 208.957 210.917 208.957 210.97 208.983L212.968 209.822C213.073 209.875 213.151 210.006 213.125 210.111C213.099 210.216 212.994 210.321 212.862 210.321ZM210.129 209.849L211.601 209.796L210.865 209.481L210.129 209.849Z" fill="black"/>
<path d="M225.662 214.935C225.636 214.935 225.61 214.935 225.583 214.935L210.786 209.534C210.707 209.508 210.655 209.403 210.681 209.298C210.707 209.193 210.813 209.167 210.891 209.193L228.08 214.018C228.185 214.044 228.238 214.149 228.212 214.228C228.185 214.332 228.08 214.385 228.001 214.359L215.359 210.819L225.741 214.595C225.846 214.621 225.872 214.726 225.846 214.831C225.82 214.883 225.741 214.935 225.662 214.935Z" fill="black"/>
<path d="M219.592 216.376C219.539 216.376 219.513 216.376 219.486 216.349L210.761 209.506C210.682 209.453 210.682 209.348 210.734 209.27C210.787 209.191 210.892 209.165 210.971 209.217L222.851 215.615C222.929 215.668 222.982 215.772 222.929 215.851C222.877 215.93 222.772 215.982 222.693 215.93L212.653 210.528L219.723 216.061C219.802 216.113 219.802 216.244 219.749 216.323C219.697 216.349 219.644 216.376 219.592 216.376Z" fill="black"/>
<path d="M212.705 217.112C212.626 217.112 212.547 217.059 212.521 216.981L210.681 209.403C210.655 209.324 210.707 209.245 210.786 209.193C210.865 209.167 210.944 209.167 210.997 209.245L216.831 216.613C216.884 216.692 216.884 216.797 216.805 216.876C216.726 216.928 216.621 216.928 216.542 216.849L211.233 210.137L212.889 216.902C212.915 217.007 212.863 217.085 212.757 217.112C212.731 217.112 212.731 217.112 212.705 217.112Z" fill="black"/>
<path d="M217.567 190.366C217.541 190.366 217.541 190.366 217.514 190.366L210.208 188.529C210.129 188.503 210.05 188.424 210.076 188.32C210.103 188.215 210.182 188.162 210.26 188.162L222.771 189.29C222.876 189.29 222.955 189.395 222.929 189.474C222.929 189.579 222.823 189.657 222.745 189.631L212.547 188.713L217.593 189.972C217.698 189.998 217.751 190.103 217.725 190.182C217.698 190.313 217.646 190.366 217.567 190.366Z" fill="black"/>
<path d="M214.861 190.445C214.834 190.445 214.808 190.445 214.782 190.419L211.444 188.924L212.995 190.157C213.073 190.209 213.073 190.34 213.021 190.419C212.968 190.498 212.837 190.498 212.758 190.445L210.103 188.347C210.025 188.294 210.025 188.189 210.051 188.111C210.103 188.032 210.182 188.006 210.287 188.032L214.939 190.104C215.018 190.157 215.071 190.262 215.018 190.34C214.992 190.393 214.939 190.445 214.861 190.445Z" fill="black"/>
<path d="M229.003 242.557C229.612 242.539 230.097 242.207 230.085 241.816C230.074 241.425 229.57 241.123 228.961 241.141C228.351 241.159 227.867 241.49 227.879 241.881C227.89 242.272 228.394 242.575 229.003 242.557Z" fill="black"/>
<path d="M211.125 233.796C211.72 233.778 212.195 233.541 212.187 233.266C212.179 232.991 211.69 232.782 211.095 232.8C210.5 232.817 210.025 233.055 210.033 233.33C210.041 233.605 210.53 233.814 211.125 233.796Z" fill="black"/>
<path d="M198.645 183.627C197.514 183.653 196.437 183.129 195.648 182.132C194.623 180.874 194.308 179.169 194.781 177.57C195.622 174.712 197.436 172.299 200.852 169.546C201.352 169.127 201.904 168.707 202.403 168.314C205.82 165.639 209.368 162.86 209.158 158.822C209 155.57 206.845 154.154 204.9 154.207H204.873C203.218 154.259 202.981 156.068 202.981 157.143C202.981 158.559 203.691 159.608 204.348 159.818C204.689 159.923 205.005 159.766 205.241 159.346C205.82 158.428 205.399 157.93 205.215 157.773C204.979 157.563 204.716 157.563 204.663 157.589C204.663 157.589 204.663 157.615 204.663 157.668C204.689 157.825 204.584 157.956 204.427 157.983C204.269 158.009 204.138 157.904 204.111 157.747C204.059 157.458 204.19 157.222 204.427 157.091C204.795 156.934 205.347 157.091 205.688 157.511C205.925 157.773 206.398 158.507 205.662 159.634C205.268 160.238 204.742 160.5 204.164 160.316C203.191 160.028 202.403 158.638 202.403 157.143C202.403 154.993 203.27 153.735 204.821 153.656H204.847C207.029 153.604 209.473 155.151 209.657 158.769C209.762 160.71 209.052 162.545 207.528 164.38C206.188 165.98 204.427 167.37 202.692 168.707C202.166 169.1 201.641 169.52 201.141 169.939C197.83 172.64 196.069 174.974 195.254 177.701C194.834 179.091 195.149 180.664 196.043 181.765C196.752 182.657 197.725 183.102 198.697 183.05C201.194 182.893 202.245 181.713 202.088 179.222C202.035 178.251 201.641 177.675 200.957 177.491C200.195 177.281 199.354 177.675 199.118 178.015C198.723 178.619 198.855 179.091 199.118 179.3C199.302 179.458 199.617 179.536 199.88 179.3C199.985 179.195 200.169 179.222 200.274 179.327C200.379 179.431 200.353 179.615 200.248 179.72C199.827 180.087 199.223 180.087 198.776 179.72C198.355 179.353 198.093 178.619 198.671 177.727C199.039 177.15 200.143 176.704 201.089 176.967C201.614 177.098 202.508 177.57 202.613 179.195C202.797 181.975 201.536 183.417 198.723 183.601C198.723 183.627 198.671 183.627 198.645 183.627Z" fill="black"/>
<path d="M194.991 243.097C194.86 243.097 194.728 242.992 194.702 242.861C194.518 240.842 190.26 193.617 190.181 191.31C190.076 188.504 190.287 186.538 190.838 185.122C191.443 183.575 192.468 182.631 193.992 182.29C195.228 182.002 196.41 182.211 197.304 182.893C198.198 183.575 198.697 184.65 198.75 185.935C198.776 187.167 198.434 188.295 197.751 189.134C197.12 189.92 196.226 190.366 195.28 190.392C194.518 190.418 193.914 190.104 193.572 189.527C193.178 188.845 193.23 187.849 193.703 187.062C194.098 186.433 195.07 186.328 195.674 186.669C196.069 186.905 196.384 187.403 196.016 188.111C195.937 188.242 195.78 188.295 195.648 188.216C195.517 188.137 195.464 187.98 195.543 187.849C195.727 187.508 195.674 187.272 195.412 187.141C195.044 186.931 194.387 186.984 194.176 187.351C193.808 187.98 193.756 188.74 194.045 189.265C194.282 189.658 194.702 189.868 195.254 189.868C196.752 189.815 198.25 188.347 198.171 185.961C198.145 184.833 197.698 183.916 196.936 183.313C196.174 182.736 195.149 182.552 194.071 182.814C191.469 183.417 190.471 185.882 190.655 191.31C190.733 193.617 195.123 242.362 195.175 242.834C195.254 242.966 195.149 243.097 194.991 243.097Z" fill="black"/>
<path d="M196.252 235.202C195.674 235.229 195.28 235.045 195.043 234.862C194.596 234.521 194.334 233.97 194.307 233.315C194.281 232.161 195.017 230.797 195.989 230.771C196.462 230.745 196.83 231.112 196.883 231.663C196.936 232.135 196.752 232.685 196.279 232.816C196.121 232.843 195.989 232.764 195.963 232.607C195.937 232.449 196.016 232.318 196.173 232.292C196.305 232.266 196.41 232.003 196.357 231.741C196.357 231.636 196.279 231.322 196.016 231.322C195.411 231.348 194.807 232.344 194.833 233.315C194.859 233.813 195.043 234.232 195.359 234.468C195.7 234.73 196.226 234.783 196.83 234.626C197.514 234.442 200.3 233.131 203.611 231.4C207.002 229.644 209.63 228.149 210.129 227.703C211.181 226.759 210.97 225.422 210.839 225.134C210.813 225.081 210.576 224.95 210.287 224.976C210.077 225.002 209.84 225.107 209.735 225.474C209.683 225.684 209.683 225.815 209.735 225.894C209.814 225.973 209.998 225.973 210.051 225.973C210.208 225.946 210.34 226.051 210.366 226.182C210.392 226.34 210.287 226.471 210.156 226.497C210.103 226.497 209.63 226.576 209.341 226.261C209.157 226.051 209.104 225.737 209.21 225.343C209.341 224.845 209.735 224.504 210.235 224.452C210.681 224.399 211.154 224.583 211.312 224.871C211.549 225.291 211.785 226.943 210.497 228.097C209.84 228.673 206.66 230.43 203.874 231.872C201.036 233.341 197.803 234.914 196.962 235.15C196.699 235.15 196.462 235.176 196.252 235.202Z" fill="black"/>
<path d="M194.649 214.147C193.992 214.173 193.361 213.858 192.94 213.282C192.441 212.626 192.31 211.761 192.572 211.027C192.94 210.03 193.492 209.375 194.07 209.27C194.307 209.217 194.701 209.244 195.069 209.637C195.411 209.978 195.437 210.319 195.411 210.502C195.332 211 194.806 211.289 194.754 211.315C194.622 211.394 194.465 211.341 194.386 211.21C194.307 211.079 194.36 210.922 194.491 210.843C194.596 210.791 194.833 210.633 194.859 210.424C194.885 210.292 194.806 210.161 194.675 210.004C194.517 209.82 194.333 209.768 194.176 209.794C193.808 209.873 193.361 210.424 193.072 211.21C192.861 211.787 192.967 212.443 193.361 212.967C193.702 213.413 194.176 213.649 194.675 213.622C195.306 213.57 198.775 212.521 202.271 211.315C206.292 209.925 209.13 208.745 209.525 208.3C210.392 207.329 210.444 206.045 209.919 205.546C209.735 205.389 209.551 205.31 209.367 205.363C209.13 205.415 208.92 205.599 208.815 205.809C208.736 205.966 208.789 206.228 208.894 206.438C208.973 206.543 209.025 206.595 209.051 206.595C209.183 206.517 209.341 206.569 209.419 206.674C209.498 206.805 209.446 206.962 209.341 207.041C209.104 207.172 208.841 207.146 208.631 206.962C208.316 206.674 208.105 206.045 208.316 205.599C208.5 205.205 208.867 204.917 209.262 204.838C209.525 204.786 209.919 204.812 210.287 205.179C210.996 205.835 211.023 207.434 209.919 208.693C209.288 209.401 204.951 210.974 202.455 211.839C199.274 212.941 195.516 214.121 194.727 214.173C194.701 214.147 194.675 214.147 194.649 214.147Z" fill="black"/>
<path d="M209.394 181.87H209.368C209.079 181.87 208.711 181.791 208.08 181.634L207.922 181.608C207.397 181.477 206.924 181.083 206.556 180.454C205.951 179.405 205.767 177.963 206.083 176.836C206.372 175.839 207.081 175.105 207.87 174.974C208.369 174.895 208.842 175.079 209.105 175.472C209.552 176.101 209.736 177.019 209.552 177.648C209.473 177.963 209.289 178.173 209.053 178.278C208.869 178.356 208.658 178.356 208.474 178.278C208.001 178.068 207.765 177.334 207.738 177.229C207.686 177.098 207.791 176.941 207.922 176.888C208.054 176.836 208.212 176.914 208.264 177.072C208.343 177.308 208.527 177.701 208.711 177.78C208.737 177.806 208.79 177.806 208.842 177.78C208.947 177.727 209 177.596 209.026 177.491C209.158 177.019 209 176.285 208.658 175.787C208.501 175.551 208.264 175.472 207.949 175.525C207.502 175.603 206.871 176.023 206.582 177.019C206.293 177.989 206.477 179.3 207.003 180.218C207.292 180.716 207.66 181.031 208.028 181.11L208.185 181.136C208.763 181.267 209.131 181.372 209.342 181.372C209.473 181.372 209.473 181.372 209.526 181.241C209.578 181.11 209.71 181.005 209.867 181.057C209.999 181.11 210.104 181.241 210.051 181.398C209.972 181.687 209.736 181.87 209.394 181.87Z" fill="black"/>
<path d="M197.882 237.667C197.83 237.667 197.751 237.641 197.724 237.588C197.672 237.51 197.698 237.405 197.777 237.352L208.711 230.561L195.753 236.671C195.674 236.723 195.569 236.671 195.517 236.592C195.464 236.513 195.517 236.408 195.596 236.356L211.391 228.883C211.47 228.83 211.575 228.883 211.628 228.962C211.681 229.04 211.654 229.145 211.575 229.198L197.961 237.641C197.961 237.667 197.935 237.667 197.882 237.667Z" fill="black"/>
<path d="M203.77 239.058C203.717 239.058 203.691 239.058 203.665 239.032C203.586 238.98 203.56 238.849 203.639 238.77L210.314 230.143L200.669 238.324C200.59 238.377 200.485 238.377 200.406 238.298C200.353 238.219 200.353 238.114 200.432 238.036L211.366 228.727C211.444 228.675 211.55 228.675 211.602 228.727C211.681 228.78 211.681 228.885 211.628 228.963L203.901 238.954C203.875 239.032 203.822 239.058 203.77 239.058Z" fill="black"/>
<path d="M209.657 239.583H209.63C209.525 239.557 209.473 239.478 209.473 239.373L211.076 230.274L207.055 239.268C207.002 239.347 206.897 239.399 206.818 239.347C206.739 239.294 206.687 239.19 206.739 239.111L211.365 228.806C211.391 228.727 211.497 228.675 211.575 228.701C211.654 228.727 211.707 228.806 211.707 228.911L209.867 239.452C209.814 239.53 209.736 239.583 209.657 239.583Z" fill="black"/>
<path d="M196.463 215.8C196.385 215.8 196.332 215.774 196.306 215.695C196.253 215.616 196.306 215.485 196.411 215.459L206.556 211.08L194.151 215.38C194.045 215.406 193.967 215.354 193.914 215.275C193.888 215.17 193.94 215.092 194.019 215.039L210.893 209.218C210.971 209.192 211.077 209.244 211.129 209.323C211.155 209.402 211.129 209.507 211.024 209.559L196.569 215.826C196.516 215.8 196.49 215.8 196.463 215.8Z" fill="black"/>
<path d="M202.612 216.874C202.56 216.874 202.507 216.848 202.481 216.821C202.402 216.743 202.428 216.638 202.507 216.559L209.236 210.607L199.537 216.612C199.458 216.664 199.353 216.638 199.301 216.559C199.248 216.48 199.275 216.376 199.353 216.323L210.839 209.217C210.918 209.165 211.023 209.191 211.075 209.27C211.128 209.348 211.128 209.453 211.049 209.506L202.744 216.848C202.691 216.848 202.665 216.874 202.612 216.874Z" fill="black"/>
<path d="M209.526 217.216H209.499C209.394 217.19 209.342 217.111 209.342 217.006L210.577 210.136L205.662 217.164C205.61 217.242 205.504 217.268 205.399 217.216C205.32 217.164 205.294 217.059 205.347 216.954L210.735 209.245C210.787 209.166 210.866 209.14 210.945 209.192C211.024 209.219 211.076 209.297 211.05 209.402L209.657 217.085C209.683 217.137 209.604 217.216 209.526 217.216Z" fill="black"/>
<path d="M203.086 190.786C203.007 190.786 202.929 190.734 202.902 190.655C202.876 190.55 202.928 190.471 203.007 190.419L207.975 188.871L197.856 190.393C197.751 190.419 197.672 190.34 197.646 190.235C197.619 190.13 197.698 190.052 197.803 190.025L210.235 188.163C210.34 188.137 210.419 188.215 210.445 188.294C210.472 188.373 210.419 188.478 210.314 188.504L203.112 190.76C203.139 190.786 203.112 190.786 203.086 190.786Z" fill="black"/>
<path d="M205.793 190.707C205.714 190.707 205.662 190.681 205.635 190.603C205.583 190.524 205.635 190.419 205.714 190.366L210.209 188.058C210.287 188.006 210.393 188.032 210.445 188.111C210.498 188.189 210.498 188.294 210.419 188.347L207.896 190.603C207.817 190.681 207.712 190.655 207.633 190.603C207.554 190.524 207.58 190.419 207.633 190.34L209.105 189.002L205.846 190.681C205.846 190.707 205.819 190.707 205.793 190.707Z" fill="black"/>
<path d="M194.781 243.578C195.391 243.56 195.875 243.228 195.864 242.837C195.852 242.446 195.349 242.144 194.739 242.162C194.13 242.18 193.645 242.512 193.657 242.903C193.668 243.294 194.172 243.596 194.781 243.578Z" fill="black"/>
<path d="M213.179 190.732C210.577 190.811 208.159 190.785 206.109 190.706C200.589 190.523 196.568 190.05 196.515 190.024C196.358 189.998 196.253 189.867 196.279 189.736C196.305 189.578 196.437 189.473 196.568 189.5C196.621 189.5 200.616 189.998 206.109 190.155C211.181 190.313 218.619 190.234 225.216 188.923C225.374 188.896 225.505 189.001 225.531 189.132C225.558 189.29 225.453 189.421 225.321 189.447C221.352 190.287 217.068 190.628 213.179 190.732Z" fill="black"/>
<path d="M212.233 217.242C211.786 217.269 211.313 217.269 210.84 217.269C200.353 217.269 192.784 215.25 192.731 215.25C192.6 215.223 192.495 215.066 192.548 214.909C192.574 214.778 192.731 214.673 192.889 214.725C192.968 214.751 200.459 216.744 210.866 216.744C221.248 216.744 229.422 213.257 229.501 213.231C229.632 213.178 229.79 213.231 229.869 213.362C229.921 213.493 229.869 213.65 229.737 213.729C229.711 213.729 227.635 214.62 224.297 215.512C221.432 216.22 217.148 217.085 212.233 217.242Z" fill="black"/>
<path d="M211.944 239.608C205.19 239.818 200.827 238.953 198.356 238.218C195.649 237.406 194.572 236.54 194.519 236.488C194.414 236.383 194.388 236.226 194.493 236.121C194.598 236.016 194.756 235.99 194.861 236.068C194.861 236.068 195.938 236.934 198.566 237.72C200.984 238.454 205.295 239.267 211.944 239.084C218.594 238.874 222.825 237.694 225.191 236.724C227.766 235.675 228.765 234.652 228.791 234.652C228.897 234.548 229.054 234.548 229.186 234.652C229.291 234.757 229.291 234.915 229.186 235.019C229.133 235.072 228.108 236.121 225.453 237.196C223.009 238.192 218.699 239.425 211.944 239.608Z" fill="black"/>
<path d="M167.711 227.52C163.059 225.475 161.114 212.679 161.035 212.154C160.457 208.195 160.378 202.584 161.981 198.755C163.689 194.665 169.577 194.376 173.098 194.219L173.598 194.193C177.672 193.983 184.479 193.668 186.844 196.946C188.237 198.886 192.101 206.176 192.206 212.574C192.311 218.106 190.813 222.538 187.764 225.711C186.292 227.231 181.43 228.175 176.699 228.411C173.046 228.542 169.471 228.28 167.711 227.52ZM186.135 197.418C184.032 194.508 177.277 194.848 173.624 195.032L173.125 195.058C168.841 195.268 164.162 195.766 162.769 199.07C161.245 202.741 161.324 208.326 161.876 212.023C162.533 216.455 164.662 225.239 168.052 226.733C171.627 228.306 184.794 227.52 187.133 225.107C190.024 222.118 191.417 217.897 191.339 212.6C191.233 206.438 187.449 199.227 186.135 197.418Z" fill="#9B7A56"/>
<path d="M169.21 217.87C167.344 216.06 162.797 218.184 162.797 218.184C162.797 218.184 165.031 225.71 167.055 227.912C169.105 230.141 176.595 231.216 180.196 231.347C183.77 231.478 193.994 230.797 197.542 227.834C201.09 224.871 200.985 220.806 200.644 218.027C200.302 215.248 198.804 213.674 197.542 213.832C196.281 213.989 191.708 215.09 191.708 215.09C191.708 215.09 191.34 219.679 189.868 222.013C188.37 224.346 188.081 226.103 184.48 226.837C180.879 227.571 175.202 227.991 175.202 227.991C175.202 227.991 170.813 219.443 169.21 217.87Z" fill="#9B7A56"/>
<path d="M185.109 226.627C185.188 226.627 185.267 226.549 185.241 226.47L181.246 195.293C181.246 195.215 181.167 195.162 181.088 195.162C181.009 195.162 180.957 195.241 180.957 195.319L184.951 226.496C184.951 226.575 185.03 226.627 185.109 226.627Z" fill="#9B7A56"/>
<path d="M171.102 227.965C171.207 227.939 171.26 227.86 171.233 227.781L165.241 196.814C165.215 196.736 165.136 196.683 165.083 196.709C165.004 196.736 164.952 196.788 164.978 196.867L170.97 227.834C170.97 227.913 171.023 227.965 171.102 227.965Z" fill="#9B7A56"/>
<path d="M177.276 227.652C177.355 227.652 177.408 227.573 177.408 227.495C177.408 227.363 177.329 214.908 172.703 195.085C172.677 195.007 172.598 194.954 172.519 194.98C172.44 195.007 172.388 195.085 172.414 195.164C177.04 214.961 177.119 227.39 177.119 227.521C177.119 227.599 177.197 227.652 177.276 227.652Z" fill="#9B7A56"/>
<path d="M163.636 197.288L183.401 195.347C183.479 195.347 183.532 195.268 183.532 195.189C183.532 195.111 183.453 195.058 183.374 195.058L163.61 197.025C163.531 197.025 163.479 197.104 163.479 197.183C163.479 197.235 163.557 197.314 163.636 197.288Z" fill="#9B7A56"/>
<path d="M162.534 198.757L185.847 196.58C185.925 196.58 185.978 196.501 185.978 196.423C185.978 196.344 185.899 196.292 185.82 196.292L162.534 198.469C162.455 198.469 162.403 198.547 162.403 198.626C162.376 198.705 162.455 198.757 162.534 198.757Z" fill="#9B7A56"/>
<path d="M161.954 200.329L186.502 197.89C186.581 197.89 186.633 197.811 186.633 197.733C186.633 197.654 186.555 197.602 186.476 197.602L161.928 200.04C161.849 200.04 161.796 200.119 161.796 200.197C161.796 200.276 161.875 200.329 161.954 200.329Z" fill="#9B7A56"/>
<path d="M165.712 201.691C168.104 201.586 171.153 201.376 173.413 200.983C177.644 200.249 186.843 198.911 186.922 198.911C187.001 198.911 187.054 198.833 187.054 198.754C187.054 198.675 186.975 198.623 186.896 198.623C186.791 198.649 177.618 199.96 173.36 200.695C169.129 201.429 162.059 201.534 162.006 201.534C161.928 201.534 161.875 201.612 161.875 201.691C161.875 201.77 161.954 201.822 162.033 201.822C162.033 201.796 163.61 201.796 165.712 201.691Z" fill="#9B7A56"/>
<path d="M167.894 203.003C169.682 202.924 171.653 202.767 173.65 202.505C179.59 201.744 187.659 200.197 187.738 200.197C187.817 200.171 187.869 200.119 187.843 200.04C187.817 199.961 187.764 199.909 187.685 199.935C187.606 199.961 179.538 201.482 173.598 202.242C167.684 203.003 161.718 202.819 161.666 202.819C161.587 202.819 161.508 202.872 161.508 202.95C161.508 203.029 161.56 203.108 161.639 203.108C161.692 203.082 164.373 203.16 167.894 203.003Z" fill="#9B7A56"/>
<path d="M165.739 204.419C167.815 204.314 170.575 204.13 173.834 203.763C180.983 202.924 188.316 201.456 188.395 201.43C188.473 201.403 188.526 201.325 188.5 201.246C188.473 201.167 188.395 201.115 188.316 201.141C188.237 201.167 180.93 202.636 173.782 203.475C166.659 204.314 161.797 204.235 161.744 204.235C161.665 204.235 161.586 204.288 161.586 204.366C161.586 204.445 161.639 204.524 161.718 204.524C161.77 204.524 163.242 204.55 165.739 204.419Z" fill="#9B7A56"/>
<path d="M166.107 206.02C168.236 205.915 170.995 205.705 174.018 205.26C181.062 204.237 188.867 202.769 188.946 202.769C189.025 202.742 189.078 202.69 189.051 202.611C189.025 202.533 188.973 202.48 188.894 202.506C188.815 202.533 181.009 204.001 173.992 204.997C166.974 206.02 161.586 205.81 161.534 205.81C161.455 205.81 161.376 205.863 161.376 205.941C161.376 206.02 161.429 206.099 161.507 206.099C161.534 206.072 163.295 206.151 166.107 206.02Z" fill="#9B7A56"/>
<path d="M162.217 207.408C163.846 207.329 168.603 207.093 174.596 206.569C182.008 205.94 189.419 204.183 189.498 204.183C189.577 204.157 189.629 204.078 189.603 203.999C189.577 203.921 189.498 203.868 189.419 203.895C189.34 203.921 181.955 205.651 174.57 206.281C167.184 206.91 161.639 207.146 161.586 207.146C161.507 207.146 161.455 207.225 161.455 207.303C161.455 207.382 161.533 207.434 161.612 207.434C161.612 207.434 161.823 207.408 162.217 207.408Z" fill="#9B7A56"/>
<path d="M162.428 208.745C163.978 208.666 167.921 208.456 174.413 207.932C183.033 207.25 189.945 205.415 190.024 205.389C190.103 205.362 190.156 205.284 190.129 205.205C190.103 205.126 190.024 205.074 189.945 205.1C189.867 205.126 182.981 206.936 174.386 207.617C165.792 208.299 161.666 208.456 161.639 208.456C161.56 208.456 161.508 208.535 161.508 208.614C161.508 208.692 161.587 208.745 161.666 208.745C161.666 208.771 161.928 208.771 162.428 208.745Z" fill="#9B7A56"/>
<path d="M164.451 210.241C166.448 210.136 169.707 209.926 174.701 209.454C184.636 208.51 190.26 206.648 190.313 206.622C190.391 206.596 190.418 206.517 190.391 206.439C190.365 206.36 190.286 206.334 190.207 206.36C190.155 206.386 184.557 208.222 174.648 209.166C164.766 210.11 161.717 210.031 161.691 210.031C161.612 210.031 161.533 210.083 161.533 210.162C161.533 210.241 161.586 210.319 161.665 210.319C161.743 210.319 162.479 210.346 164.451 210.241Z" fill="#9B7A56"/>
<path d="M167.684 211.394C169.629 211.315 171.994 211.132 174.833 210.87C183.349 210.031 190.76 207.854 190.839 207.828C190.918 207.802 190.97 207.723 190.944 207.644C190.918 207.566 190.839 207.513 190.76 207.54C190.681 207.566 183.296 209.742 174.807 210.581C166.396 211.42 161.849 211.21 161.797 211.21C161.718 211.21 161.639 211.263 161.639 211.342C161.639 211.42 161.692 211.499 161.771 211.499C161.797 211.473 163.821 211.578 167.684 211.394Z" fill="#9B7A56"/>
<path d="M167.447 212.968C179.879 212.391 190.996 209.244 191.128 209.218C191.207 209.192 191.259 209.113 191.233 209.035C191.207 208.956 191.128 208.903 191.049 208.93C190.918 208.982 176.488 213.02 162.165 212.758C162.086 212.758 162.007 212.81 162.007 212.889C162.007 212.968 162.059 213.046 162.138 213.046C163.925 213.073 165.686 213.046 167.447 212.968Z" fill="#9B7A56"/>
<path d="M162.086 214.252C162.034 214.199 162.034 214.095 162.086 214.042C162.139 213.99 162.218 213.99 162.27 214.016C162.349 214.042 163.611 214.435 175.228 213.387C187.554 212.285 191.05 210.397 191.076 210.371C191.155 210.345 191.234 210.345 191.286 210.424C191.312 210.502 191.312 210.581 191.234 210.633C191.102 210.712 187.685 212.548 175.254 213.675C171.285 214.042 168.368 214.252 166.291 214.331C163.506 214.462 162.244 214.409 162.086 214.252Z" fill="#9B7A56"/>
<path d="M165.66 215.876C167.684 215.771 170.916 215.562 175.752 215.011C185.713 213.91 191.206 211.917 191.259 211.891C191.338 211.864 191.364 211.786 191.338 211.707C191.311 211.628 191.233 211.602 191.154 211.628C191.101 211.655 185.634 213.621 175.7 214.723C165.765 215.824 162.716 215.64 162.664 215.64C162.585 215.64 162.506 215.693 162.506 215.771C162.506 215.85 162.558 215.929 162.637 215.929C162.69 215.929 163.505 215.955 165.66 215.876Z" fill="#9B7A56"/>
<path d="M163.716 217.53C165.161 217.451 168.552 217.241 175.832 216.507C186.66 215.432 191.312 213.57 191.365 213.544C191.444 213.518 191.47 213.439 191.444 213.36C191.417 213.282 191.339 213.256 191.26 213.282C191.207 213.308 186.581 215.143 175.806 216.219C165.03 217.294 162.796 217.267 162.77 217.267C162.691 217.267 162.612 217.32 162.612 217.399C162.612 217.477 162.664 217.556 162.743 217.556C162.77 217.556 163.006 217.556 163.716 217.53Z" fill="#9B7A56"/>
<path d="M164.688 219.077C166.186 218.999 169.419 218.789 175.884 218.055C186.134 216.927 191.102 215.092 191.154 215.066C191.233 215.039 191.26 214.961 191.233 214.882C191.207 214.803 191.128 214.777 191.049 214.803C190.997 214.83 186.056 216.639 175.832 217.766C165.634 218.894 163.479 218.815 163.479 218.815C163.4 218.815 163.321 218.868 163.321 218.946C163.321 219.025 163.374 219.104 163.453 219.104C163.505 219.13 163.821 219.13 164.688 219.077Z" fill="#9B7A56"/>
<path d="M165.897 220.257C167.553 220.179 170.628 219.969 176.2 219.497C186.582 218.579 191.024 216.508 191.076 216.482C191.155 216.455 191.181 216.35 191.155 216.298C191.129 216.219 191.024 216.193 190.971 216.219C190.918 216.246 186.503 218.291 176.2 219.209C165.897 220.126 164.11 220.021 164.084 220.021C164.005 220.021 163.926 220.074 163.926 220.152C163.926 220.231 163.979 220.31 164.058 220.31C164.058 220.31 164.452 220.31 165.897 220.257Z" fill="#9B7A56"/>
<path d="M168.787 221.28C170.6 221.201 173.071 221.044 176.488 220.755C186.554 219.942 190.601 217.845 190.654 217.818C190.733 217.792 190.759 217.687 190.707 217.635C190.68 217.556 190.575 217.53 190.523 217.582C190.496 217.609 186.449 219.68 176.461 220.467C166.474 221.28 164.371 221.044 164.345 221.044C164.266 221.044 164.188 221.096 164.188 221.175C164.188 221.253 164.24 221.332 164.319 221.332C164.371 221.358 165.265 221.463 168.787 221.28Z" fill="#9B7A56"/>
<path d="M166.948 222.984C168.604 222.905 171.495 222.695 176.541 222.197C187.028 221.174 190.392 219.654 190.523 219.601C190.602 219.575 190.629 219.47 190.602 219.418C190.576 219.339 190.471 219.313 190.418 219.339C190.392 219.365 186.949 220.912 176.541 221.909C166.238 222.905 164.95 222.721 164.898 222.695C164.819 222.695 164.74 222.721 164.74 222.8C164.714 222.879 164.767 222.957 164.845 222.957C164.845 223.01 165.187 223.062 166.948 222.984Z" fill="#9B7A56"/>
<path d="M168.815 224.007C170.734 223.928 173.388 223.771 176.674 223.535C187.581 222.827 189.815 221.175 189.894 221.096C189.946 221.044 189.973 220.965 189.92 220.886C189.867 220.834 189.789 220.808 189.71 220.86C189.683 220.886 187.423 222.538 176.647 223.246C166.555 223.902 165.504 223.797 165.398 223.797C165.346 223.771 165.267 223.797 165.241 223.849C165.188 223.928 165.214 224.007 165.293 224.059C165.425 224.138 166.634 224.112 168.815 224.007Z" fill="#9B7A56"/>
<path d="M165.976 225.213C165.95 225.135 166.003 225.056 166.055 225.03C166.108 225.004 166.186 225.03 166.213 225.082C166.292 225.135 167.395 225.712 176.989 224.741C187.265 223.719 188.605 222.591 188.658 222.539C188.711 222.486 188.816 222.486 188.868 222.539C188.921 222.591 188.921 222.696 188.868 222.749C188.816 222.801 187.554 223.981 177.015 225.03C174.518 225.292 172.363 225.449 170.655 225.528C167.763 225.685 166.108 225.58 165.976 225.213Z" fill="#9B7A56"/>
<path d="M171.338 226.604C172.731 226.525 174.597 226.42 177.068 226.263C181.299 225.948 185.031 225.345 187.633 224.532C187.686 224.505 187.712 224.505 187.738 224.505C187.765 224.505 187.817 224.479 187.844 224.453C187.896 224.401 187.896 224.322 187.87 224.269C187.817 224.164 187.738 224.191 187.554 224.243C184.979 225.056 181.247 225.66 177.041 225.974C169.709 226.499 167.632 226.42 167.632 226.42C167.553 226.42 167.475 226.473 167.475 226.552C167.475 226.63 167.527 226.709 167.606 226.709C167.632 226.709 168.552 226.735 171.338 226.604Z" fill="#9B7A56"/>
<path d="M200.985 250.306C201.011 250.306 201.037 250.306 201.037 250.306C201.274 250.254 201.431 250.044 201.379 249.808L197.358 228.621C197.305 228.386 197.095 228.228 196.858 228.281C196.622 228.333 196.464 228.543 196.516 228.779L200.538 249.965C200.564 250.175 200.774 250.306 200.985 250.306Z" fill="black"/>
<path d="M188.289 244.669C188.526 244.669 188.71 244.459 188.71 244.223L188.105 231.61C188.105 231.374 187.895 231.191 187.658 231.191C187.422 231.191 187.238 231.401 187.238 231.637L187.842 244.249C187.842 244.511 188.026 244.695 188.289 244.669Z" fill="black"/>
<path d="M167.553 248.548C167.763 248.548 167.921 248.391 167.973 248.181L170.47 230.403C170.496 230.167 170.339 229.958 170.102 229.905C169.866 229.879 169.655 230.036 169.603 230.272L167.106 248.05C167.08 248.286 167.237 248.496 167.474 248.548C167.5 248.548 167.526 248.548 167.553 248.548Z" fill="black"/>
<path d="M178.696 254.58C178.933 254.58 179.117 254.37 179.117 254.134L178.617 231.767C178.617 231.531 178.407 231.348 178.171 231.348C177.934 231.348 177.75 231.557 177.75 231.793L178.249 254.16C178.249 254.396 178.433 254.606 178.696 254.58Z" fill="black"/>
<path d="M198.172 237.878C198.408 237.878 198.566 237.694 198.592 237.458C198.592 237.222 198.408 237.012 198.172 237.012L169.629 235.989C169.392 235.989 169.182 236.173 169.182 236.409C169.182 236.645 169.366 236.855 169.603 236.855L198.145 237.878C198.145 237.878 198.145 237.878 198.172 237.878Z" fill="black"/>
<path d="M178.617 241.232C178.696 241.232 178.801 241.206 178.854 241.154L187.737 234.31C187.921 234.153 187.974 233.891 187.816 233.707C187.658 233.523 187.395 233.471 187.211 233.628L178.328 240.446C178.144 240.603 178.091 240.865 178.249 241.049C178.328 241.18 178.486 241.232 178.617 241.232Z" fill="black"/>
<path d="M183.691 232.396C192.679 231.977 196.648 229.669 196.832 229.591C197.095 229.433 197.2 229.066 197.042 228.804C196.885 228.542 196.517 228.437 196.254 228.594C196.201 228.621 192.127 230.954 183.06 231.269C173.966 231.61 170.103 229.486 170.076 229.46C169.787 229.302 169.446 229.407 169.288 229.67C169.13 229.958 169.235 230.299 169.498 230.456C169.656 230.561 173.677 232.764 183.113 232.423C183.297 232.423 183.507 232.396 183.691 232.396Z" fill="black"/>
<g opacity="0.6">
<path d="M148.734 169.049C156.413 169.049 162.638 166.959 162.638 164.382C162.638 161.804 156.413 159.714 148.734 159.714C141.056 159.714 134.831 161.804 134.831 164.382C134.831 166.959 141.056 169.049 148.734 169.049Z" fill="#8CA9D0"/>
<path d="M169.682 119.307H127.761C127.761 119.307 120.297 128.72 121.559 143.168C122.952 159.11 134.437 162.362 135.436 164.066C135.83 164.748 144.477 166.085 148.656 166.085C148.682 166.085 148.708 166.085 148.735 166.085C148.761 166.085 148.787 166.085 148.814 166.085C152.993 166.085 161.639 164.748 162.034 164.066C163.032 162.362 174.518 159.136 175.911 143.168C177.146 128.694 169.682 119.307 169.682 119.307ZM173.992 142.775C172.81 156.986 160.036 163.699 148.866 163.909C137.696 164.092 124.818 158.035 123.635 143.823C123.267 139.313 124.581 131.709 124.581 131.709L173.125 131.421C173.151 131.421 174.36 138.212 173.992 142.775Z" fill="white"/>
</g>
<path opacity="0.5" d="M124.581 131.709C124.581 131.709 123.267 139.287 123.635 143.823C124.818 158.035 137.67 164.092 148.867 163.909C160.037 163.725 172.81 157.013 173.993 142.775C174.361 138.212 173.152 131.421 173.152 131.421L124.581 131.709Z" fill="#4A90A8"/>
<path d="M126.289 150.668C126.026 149.383 129.128 147.443 131.808 147.443C134.647 147.443 134.042 150.012 136.618 150.012C139.325 150.012 140.613 148.859 143.268 148.806C146.29 148.754 146.001 151.9 148.235 151.9C150.706 151.9 151.047 147.993 155.252 148.02C159.037 148.046 158.222 152.582 160.745 152.582C163.347 152.582 161.928 144.952 165.345 145.004C168.867 145.057 171.153 149.278 170.706 151.114C170.076 153.71 163.058 163.044 148.787 163.228C135.383 163.411 127.051 154.313 126.289 150.668Z" fill="#DBAC73"/>
<path d="M137.564 140.048C137.564 140.651 137.091 141.123 136.486 141.123C135.882 141.123 135.409 140.651 135.409 140.048C135.409 139.444 135.882 138.972 136.486 138.972C137.064 138.972 137.564 139.471 137.564 140.048Z" fill="white"/>
<path d="M138.168 143.667C138.502 143.667 138.773 143.397 138.773 143.064C138.773 142.731 138.502 142.46 138.168 142.46C137.835 142.46 137.564 142.731 137.564 143.064C137.564 143.397 137.835 143.667 138.168 143.667Z" fill="white"/>
<path d="M128.786 134.462C128.786 134.935 128.418 135.302 127.945 135.302C127.472 135.302 127.104 134.935 127.104 134.462C127.104 133.99 127.472 133.623 127.945 133.623C128.392 133.623 128.786 134.017 128.786 134.462Z" fill="white"/>
<path d="M160.195 139.392C160.195 139.943 159.748 140.389 159.196 140.389C158.645 140.389 158.198 139.943 158.198 139.392C158.198 138.841 158.645 138.396 159.196 138.396C159.775 138.422 160.195 138.868 160.195 139.392Z" fill="white"/>
<path d="M160.824 138.16C161.129 138.16 161.376 137.913 161.376 137.609C161.376 137.305 161.129 137.058 160.824 137.058C160.519 137.058 160.272 137.305 160.272 137.609C160.272 137.913 160.519 138.16 160.824 138.16Z" fill="white"/>
<path d="M171.733 136.64C172.125 136.64 172.443 136.323 172.443 135.931C172.443 135.54 172.125 135.223 171.733 135.223C171.341 135.223 171.023 135.54 171.023 135.931C171.023 136.323 171.341 136.64 171.733 136.64Z" fill="white"/>
<path d="M163.191 134.934C163.348 134.515 164.268 135.773 164.689 136.272C165.109 136.77 166.634 135.931 166.581 136.403C166.555 136.875 165.241 137.556 165.346 138.107C165.477 138.658 167.264 137.766 167.291 138.264C167.317 138.763 165.477 139.969 165.661 140.152C165.819 140.362 167.422 139.68 167.37 139.995C167.317 140.31 166.055 140.729 166.239 141.28C166.423 141.857 167.711 140.86 167.79 141.568C167.895 142.276 166.87 142.25 167.107 142.617C167.343 142.984 168.079 142.276 168.132 142.617C168.184 142.958 167.317 143.246 167.737 143.64C168.158 144.007 169.42 142.617 169.446 143.482C169.472 144.348 168.92 144.269 168.552 144.715C168.184 145.161 168.105 145.475 168.657 145.659C169.209 145.842 169.84 146.209 169.498 146.34C169.157 146.498 168.342 146.655 168.211 147.206C168.053 147.73 169.472 148.176 169.209 148.517C168.946 148.858 168.132 148.438 168.027 148.91C167.948 149.356 168.973 149.644 168.736 149.933C168.5 150.221 167.422 149.723 167.37 150.116C167.317 150.51 168.368 151.06 168.158 151.349C167.948 151.611 166.949 150.851 166.712 151.375C166.476 151.899 167.711 152.109 167.58 152.24C167.448 152.398 166.555 151.899 166.45 152.266C166.345 152.634 167.291 152.817 167.186 153.053C167.107 153.289 166.187 152.843 166.029 153.106C165.871 153.368 166.607 154.023 166.371 154.417C166.134 154.81 164.741 154.39 164.768 154.836C164.82 155.282 165.845 155.465 165.661 155.649C165.477 155.833 164.084 155.754 164.137 156.147C164.189 156.54 164.846 156.724 164.741 156.934C164.662 157.17 163.611 156.75 163.585 157.117C163.559 157.511 163.217 158.874 163.217 158.874C163.217 158.874 163.217 157.196 163.322 156.881C163.427 156.567 162.718 155.754 162.823 155.518C162.954 155.282 163.743 156.095 163.821 155.806C163.9 155.544 163.243 155.334 163.427 154.915C163.611 154.495 164.268 154.731 164.321 154.521C164.373 154.312 163.637 153.709 163.795 153.394C163.953 153.106 165.004 153.918 165.083 153.761C165.162 153.578 164.478 152.896 164.636 152.66C164.794 152.398 165.214 152.817 165.32 152.738C165.425 152.66 164.111 151.873 164.452 151.296C164.794 150.719 165.661 152.162 165.819 151.899C165.977 151.637 165.32 151.06 165.477 150.798C165.635 150.536 166.187 151.27 166.292 150.982C166.397 150.693 166.029 149.382 166.213 149.199C166.397 149.015 167.107 149.828 167.317 149.12C167.527 148.412 165.977 147.809 166.134 147.311C166.292 146.812 167.396 147.389 167.527 146.97C167.659 146.524 166.45 145.869 166.502 145.711C166.581 145.554 167.895 146.209 167.764 145.554C167.632 144.898 166.739 144.951 166.686 144.715C166.634 144.505 167.475 144.374 167.396 144.164C167.317 143.954 166.292 144.059 166.134 143.614C165.977 143.168 166.423 143.115 166.266 142.853C166.108 142.591 164.715 143.404 164.636 142.932C164.531 142.46 165.924 141.935 165.714 141.411C165.503 140.887 163.637 141.935 163.664 141.437C163.69 140.965 165.267 140.572 165.03 139.995C164.794 139.392 163.48 140.31 163.375 139.943C163.269 139.575 164.531 139.392 164.347 138.946C164.163 138.5 162.98 139.287 163.085 138.631C163.191 137.976 164.689 138.002 164.584 137.635C164.478 137.268 164.058 137.452 164.058 137.163C164.032 136.901 164.426 137.006 164.478 136.744C164.584 136.586 162.902 135.669 163.191 134.934Z" fill="#7EA21A"/>
<path d="M145.897 159.581C146.317 159.109 147.342 158.558 148.814 159.056C150.259 159.581 151.679 160.079 151.495 160.551C151.311 161.023 148.63 161.626 147.631 161.547C146.659 161.469 144.95 160.656 145.897 159.581Z" fill="#A5713D"/>
<path d="M150.837 158.506C150.837 157.85 152.809 158.401 152.861 158.821C152.914 159.267 150.837 159.529 150.837 158.506Z" fill="#A5713D"/>
<path d="M153.86 161.549C153.728 161.286 155.568 160.211 156.015 160.893C156.462 161.575 154.517 162.782 153.86 161.549Z" fill="#A5713D"/>
<path d="M138.275 159.269C138.275 158.875 141.245 160.161 140.72 160.633C140.22 161.079 138.328 160.606 138.275 159.269Z" fill="#A5713D"/>
<path d="M146.658 162.441C146.527 162.152 148.577 161.89 148.682 162.257C148.761 162.625 147.079 163.333 146.658 162.441Z" fill="#A5713D"/>
<path d="M145.633 157.931C145.344 157.511 146.71 156.987 146.868 157.459C146.973 157.931 145.896 158.377 145.633 157.931Z" fill="#A5713D"/>
<path d="M159.958 159.715C159.59 159.295 161.85 157.747 162.087 158.22C162.323 158.692 160.72 160.58 159.958 159.715Z" fill="#A5713D"/>
<path d="M160.772 157.694C160.72 158.035 162.27 157.694 162.323 157.327C162.376 156.96 160.904 156.802 160.772 157.694Z" fill="#A5713D"/>
<path d="M143.664 145.161C143.453 143.22 139.932 142.145 139.932 140.965C139.932 139.392 141.64 139.575 142.297 137.504C142.954 135.459 140.352 134.095 140.352 134.095C141.482 135.38 141.298 135.852 140.431 136.822C140.878 137.058 141.403 137.478 141.062 137.95C140.72 138.422 139.932 138.238 139.38 138.028C139.353 138.028 139.327 138.002 139.301 138.002C139.064 138.264 138.828 138.527 138.565 138.841C137.093 140.624 140.773 142.25 140.773 144.925C140.773 148.412 137.776 153.027 137.776 153.027H143.322C143.322 153.027 142.087 151.48 142.087 149.985C142.034 148.438 143.979 148.071 143.664 145.161ZM141.43 146.734C141.456 146.157 141.903 145.344 142.586 145.344C142.823 145.344 142.954 145.475 142.98 145.685C142.901 146.367 142.376 147.284 141.85 147.337C141.587 147.337 141.456 147.075 141.43 146.734Z" fill="#4E5E0A"/>
<path d="M148.868 144.506C148.763 143.483 149.972 142.801 149.709 141.831C149.42 140.861 146.424 140.468 146.292 139.497C146.108 138.186 146.765 137.452 146.765 137.452C146.765 137.452 143.717 139.157 143.717 140.389C143.717 141.962 145.11 142.303 145.188 144.139C145.293 145.974 142.613 148.439 142.797 149.671C142.981 150.904 144.374 153.159 144.374 153.159H148.999H149.84C149.84 153.159 148.079 151.035 148.369 150.091C148.658 149.147 151.128 147.914 151.233 146.734C151.26 145.607 148.973 145.554 148.868 144.506ZM148.868 146.367C149.104 146.525 149.21 146.708 149.236 146.918C149.21 147.573 148.001 148.334 146.949 148.701C145.872 149.068 145.635 149.121 145.635 148.753C145.635 148.622 145.661 148.491 145.661 148.36C145.74 147.6 147.501 145.528 148.868 146.367ZM145.635 141.464C145.583 141.176 145.951 141.071 146.397 141.123C146.897 141.228 147.475 141.543 147.58 142.015C147.764 142.906 146.923 143.798 146.371 143.719C145.819 143.64 146.003 142.618 145.635 141.543C145.635 141.49 145.635 141.464 145.635 141.464Z" fill="#4E5E0A"/>
<path d="M132.178 147.128C132.178 147.075 132.152 147.023 132.152 146.971C132.046 145.66 133.255 145.135 133.913 144.296C134.464 143.588 134.07 143.09 133.255 142.277C132.914 142.356 132.572 142.356 132.336 142.172C132.073 141.936 132.204 141.621 132.441 141.385C131.863 140.415 132.414 139.498 132.414 139.498C129.471 141.884 132.598 142.854 132.966 143.798C133.334 144.768 131.679 145.109 130.575 146.735C129.471 148.386 130.68 148.99 131.416 150.012C132.152 151.035 131.784 153.159 131.784 153.159H134.727H135.095C135.122 150.746 132.493 149.173 132.178 147.128ZM130.706 147.731C130.627 147.521 130.68 147.364 130.864 147.259C131.311 147.049 131.705 147.416 131.915 147.836C132.046 148.124 132.073 148.413 131.968 148.57C131.757 148.858 130.995 148.282 130.706 147.731Z" fill="#4E5E0A"/>
<path d="M150.155 152.582C149.787 152.11 148.499 151.218 147.474 151.559C145.266 152.319 144.793 151.979 143.374 152.398C143.321 152.319 143.269 152.267 143.216 152.188C142.848 151.428 141.455 149.855 140.824 149.042C140.167 148.229 138.958 147.731 138.512 148.229C137.697 149.173 137.224 150.327 136.987 151.323C136.856 151.244 136.724 151.166 136.567 151.113C135.647 150.694 134.254 150.51 133.15 150.563C132.046 150.615 131.205 151.585 131.021 152.136C130.837 152.687 131.021 153.63 132.23 153.578C133.203 153.526 135.594 153.578 136.987 153.394C137.434 153.683 139.51 153.578 142.112 153.499C142.139 153.604 142.191 153.683 142.296 153.683C142.664 153.683 149.761 153.604 150.155 153.552C150.523 153.473 150.523 153.054 150.155 152.582Z" fill="#DBAC73"/>
<path d="M150.153 133.098C150.153 133.098 151.967 132.941 152.703 134.094C153.439 135.248 154.122 137.136 154.122 137.136L149.181 139.26C149.181 139.26 149.102 138.788 148.839 138.867C148.577 138.945 147.184 139.391 147.184 139.391C147.184 139.391 147.078 138.185 148.261 136.717C149.47 135.222 149.733 135.353 150.153 134.907C150.574 134.462 150.153 133.098 150.153 133.098Z" fill="#FFA300"/>
<path d="M148.182 139.627L148.971 141.41C148.971 141.41 148.629 141.594 148.392 142.275C148.156 142.957 147.946 145.081 146.658 146.366C145.37 147.651 143.609 147.887 142.374 147.572C141.139 147.257 140.823 146.812 140.823 146.812C140.823 146.812 144.187 145.081 144.003 144.242C143.819 143.403 143.451 142.511 141.848 142.039C140.245 141.567 138.668 140.335 138.668 140.335C138.668 140.335 139.719 140.099 142.479 140.178C145.239 140.256 147.551 140.414 148.182 139.627Z" fill="#FFA300"/>
<path d="M150.153 141.647C150.153 141.647 150.232 142.302 149.89 143.509C149.549 144.715 148.891 146.104 148.445 146C147.998 145.895 148.707 143.849 148.629 143.404C148.55 142.958 148.313 142.722 148.576 142.433C148.839 142.145 149.68 141.358 149.68 141.358L150.153 141.647Z" fill="#FFA300"/>
<path d="M154.122 142.066C154.122 142.066 154.333 143.01 153.833 144.217C153.334 145.423 151.415 146.944 151.152 146.865C150.89 146.786 151.81 145.292 151.678 144.846C151.547 144.4 150.837 143.456 151.363 142.879C151.888 142.302 154.122 142.066 154.122 142.066Z" fill="#FFA300"/>
<path d="M156.357 141.908C156.357 141.908 156.015 142.59 156.12 142.957C156.225 143.324 156.935 144.111 156.409 144.609C156.409 144.609 155.989 143.717 155.7 143.639C155.411 143.56 155.253 143.534 155.332 142.983C155.411 142.432 155.857 141.882 155.857 141.882H156.357V141.908Z" fill="#FFA300"/>
<path d="M148.313 140.782C148.234 140.388 147.629 140.31 147.734 140.021C147.84 139.733 150.179 137.635 152.281 137.032C154.384 136.455 157.433 137.294 158.694 137.845C159.956 138.396 160.639 138.999 160.587 139.392C160.534 139.785 160.587 140.126 159.667 140.782C158.747 141.411 155.094 142.827 153.438 142.722C151.808 142.617 148.47 141.699 148.339 141.49C148.155 141.306 148.418 141.254 148.313 140.782Z" fill="#FF6D00"/>
<path d="M158.354 139.13C158.456 139.13 158.538 138.966 158.538 138.763C158.538 138.56 158.456 138.396 158.354 138.396C158.252 138.396 158.17 138.56 158.17 138.763C158.17 138.966 158.252 139.13 158.354 139.13Z" fill="black"/>
<path d="M110.677 139.733L110.756 153.053C110.756 153.053 126.709 153.237 127.734 152.975C128.759 152.712 133.911 148.648 134.436 148.412C134.988 148.202 135.488 148.412 135.277 149.041C135.067 149.671 134.279 151.611 134.279 151.611C134.279 151.611 138.195 151.165 138.536 150.956C138.904 150.746 141.244 148.937 141.717 148.779C142.19 148.622 143.031 148.937 142.794 149.435C142.558 149.933 140.376 152.791 140.376 152.791C140.376 152.791 140.823 155.833 139.667 156.96C138.51 158.088 133.096 158.979 130.468 159.163C127.839 159.346 107.891 161.863 106.209 161.811C104.553 161.732 102.109 161.208 101.268 157.642C100.427 154.076 100.138 140.415 100.138 140.415L110.677 139.733Z" fill="#F69576"/>
</svg>
