<svg width="375" height="308" viewBox="0 0 375 308" fill="none" xmlns="http://www.w3.org/2000/svg">
<path d="M169.758 54.3396C187.92 57.7716 222.139 -12.2835 260.012 3.17369C297.886 18.6309 270.052 68.4345 283.562 79.5951C297.071 90.7557 334.077 56.4093 349.636 92.4848C365.195 128.56 341.541 167.203 341.199 173.203C340.857 179.202 383.856 211.453 371.923 255.859C359.991 300.266 201.534 304.563 144.974 306.266C88.414 307.969 12.7993 307.838 1.65549 261.545C-9.48829 215.252 41.1318 174.932 45.8101 161.99C50.4884 149.048 8.14727 104.012 61.2379 48.6545C102.317 5.81975 151.597 50.9076 169.758 54.3396Z" fill="#9ECBDD"/>
<path d="M1.70816 261.86C12.8519 308.153 88.493 308.31 145.027 306.581C201.56 304.852 360.018 300.581 371.976 256.175C380.097 225.968 362.803 201.367 351.003 186.853L319.464 171.344L294.39 172.234L244.742 138.307L202.349 148.525L158.01 110.641L136.669 149.363L103.159 83.3687L68.3343 177.998L54.0366 165.135L27.2022 186.853C12.1423 205.926 -5.33555 232.727 1.70816 261.86Z" fill="#749DC1"/>
<path d="M108.652 113.76C108.652 113.76 104.316 105.428 114.145 104.485C113.12 97.8309 122.74 87.8492 139.456 92.0934C142.268 84.8626 158.248 72.1038 169.312 87.6396C190.444 78.7845 193.466 91.5432 190.628 93.8225C207.028 90.8621 204.137 102.075 201.351 103.306C223.034 98.6692 220.064 113.76 220.064 113.76H108.652Z" fill="white"/>
<path d="M212.572 68.0937C212.572 68.0937 210.654 63.1684 215.017 62.6182C214.57 58.6884 218.854 52.7937 226.292 55.3088C227.554 51.0384 234.65 43.4932 239.591 52.6889C249 47.4754 250.34 54.9944 249.079 56.3305C256.385 54.5752 255.098 61.2035 253.862 61.937C263.534 59.2124 262.194 68.0937 262.194 68.0937H212.572Z" fill="white"/>
<path d="M323.958 130.212L315.785 188.74L310.239 187.875L323.144 130.081L323.958 130.212Z" fill="white"/>
<path d="M320.175 149.547L334.972 161.782L334.814 162.594L319.544 152.77L320.175 149.547Z" fill="white"/>
<path d="M317.231 189.787L308.479 188.425L308.794 186.827L317.546 188.163L317.231 189.787Z" fill="#DFFAF5"/>
<path d="M320.175 149.547L301.593 156.673L301.435 157.486L319.544 152.77L320.175 149.547Z" fill="white"/>
<path d="M320.805 146.324L314.471 187.691L311.475 187.246L320.805 146.324Z" fill="white"/>
<path d="M268.267 143.231L270.422 188.398L266.111 188.555L267.662 143.258L268.267 143.231Z" fill="white"/>
<path d="M268.161 158.321L281.039 165.447V166.076L268.161 160.836V158.321Z" fill="white"/>
<path d="M271.656 189L264.876 189.209L264.902 187.952L271.656 187.742V189Z" fill="#DFFAF5"/>
<path d="M268.161 158.321L255.203 166.286V166.914L268.161 160.836V158.321Z" fill="white"/>
<path d="M268.187 155.808L269.291 187.822L266.978 187.901L268.187 155.808Z" fill="white"/>
<path d="M1.70824 261.519C12.852 307.812 88.493 307.97 145.027 306.24C201.56 304.511 360.018 300.241 371.976 255.834C380.097 225.627 362.804 201.027 351.003 186.513H27.2285C12.1424 205.585 -5.33547 232.36 1.70824 261.519Z" fill="#96C22F"/>
<path d="M12.5885 207.524C3.33707 223.374 -3.04958 241.923 1.68127 261.519C12.8251 307.812 88.4661 307.969 145 306.24C201.533 304.511 359.991 300.241 371.949 255.834C376.943 237.259 372.317 220.807 365.3 207.524H12.5885Z" fill="#3D3B38"/>
<path d="M146.525 230.657H126.813V234.613H146.525V230.657Z" fill="white"/>
<path d="M217.225 230.657H197.513V234.613H217.225V230.657Z" fill="white"/>
<path d="M193.57 230.657H173.858V234.613H193.57V230.657Z" fill="white"/>
<path d="M122.871 230.657H103.16V234.613H122.871V230.657Z" fill="white"/>
<path d="M99.2167 230.657H82.1331V234.613H99.2167V230.657Z" fill="white"/>
<path d="M78.1897 230.657H58.4778V234.613H78.1897V230.657Z" fill="white"/>
<path d="M54.5365 230.657H34.8246V234.613H54.5365V230.657Z" fill="white"/>
<path d="M169.917 230.657H150.468V234.613H169.917V230.657Z" fill="white"/>
<path d="M354.683 230.657H334.971V234.613H354.683V230.657Z" fill="white"/>
<path d="M30.8817 230.657H6.83325V234.613H30.8817V230.657Z" fill="white"/>
<path d="M331.027 230.657H311.316V234.613H331.027V230.657Z" fill="white"/>
<path d="M363.197 230.657H358.624V234.613H363.197V230.657Z" fill="white"/>
<path d="M285.56 230.657H265.848V234.613H285.56V230.657Z" fill="white"/>
<path d="M261.905 230.657H242.193V234.613H261.905V230.657Z" fill="white"/>
<path d="M238.25 230.657H221.166V234.613H238.25V230.657Z" fill="white"/>
<path d="M307.373 230.657H289.501V234.613H307.373V230.657Z" fill="white"/>
<path d="M134.96 183.866L64.3918 187.01L50.5934 172.076L60.8436 155.178L134.96 160.287V183.866Z" fill="#6B3425"/>
<path d="M131.018 155.178H127.076V213.732H131.018V155.178Z" fill="#6B3425"/>
<path d="M249.289 183.292L319.858 186.435L333.656 171.502L323.406 154.604L249.289 159.713V183.292Z" fill="#6B3425"/>
<path d="M253.244 213.132L257.187 213.132L257.187 154.578L253.244 154.578L253.244 213.132Z" fill="#6B3425"/>
<path d="M80.7408 164.663C80.2677 165.868 79.7421 167.675 79.1376 170.164C78.5856 172.391 78.3228 173.649 78.3228 173.937C78.3228 173.963 78.3228 174.173 78.3491 174.566C78.3754 174.775 78.3228 174.959 78.244 175.116C78.1388 175.325 78.0337 175.456 77.876 175.483C77.6132 175.535 77.0875 175.43 76.2728 175.195C75.4843 174.933 75.0112 174.723 74.9061 174.54C74.8535 174.461 74.8272 174.33 74.8009 174.199L74.7484 173.832C74.2227 172.182 73.8022 170.636 73.5131 169.169C73.1977 167.728 72.9875 166.339 72.8823 165.029C72.8823 165.003 72.856 164.898 72.8035 164.741C72.7772 164.636 72.7772 164.532 72.7772 164.453C72.8298 164.139 72.9612 163.929 73.1714 163.877C73.2766 163.85 73.6445 163.929 74.3279 164.139C75.0112 164.348 75.4054 164.532 75.4843 164.689C75.5106 164.794 75.5106 164.977 75.4843 165.265C75.4843 165.318 75.4317 165.396 75.3792 165.501C75.3266 165.606 75.3003 165.684 75.3003 165.763C75.3792 166.235 75.4317 166.68 75.5106 167.099C75.5631 167.518 75.642 167.911 75.6945 168.278C75.9837 170.007 76.1939 171.029 76.3779 171.369C76.5356 170.531 76.7984 169.457 77.1927 168.147C77.5869 166.811 77.876 165.711 78.0074 164.846C78.0074 164.663 78.06 164.453 78.1388 164.165C78.2177 163.955 78.3754 163.824 78.5856 163.746C78.7433 163.693 79.085 163.772 79.6106 163.981C80.2151 164.191 80.5831 164.427 80.7408 164.663Z" fill="white"/>
<path d="M84.2111 174.697C84.2637 175.012 84.1323 175.221 83.8694 175.3C83.8432 175.3 83.7906 175.326 83.6855 175.326C83.3438 175.326 82.9496 175.248 82.4765 175.117C81.9508 174.959 81.6617 174.802 81.5566 174.671C81.504 174.593 81.5566 174.462 81.688 174.252C81.7668 174.121 81.8194 173.859 81.8194 173.492V167.781C81.7143 167.44 81.6617 167.205 81.6617 167.1C81.6617 166.995 81.8194 166.916 82.1611 166.916C82.4239 166.916 82.7919 166.995 83.2912 167.178C83.7906 167.362 84.106 167.493 84.1848 167.624C84.2111 167.676 84.2374 167.702 84.2374 167.755C84.2374 167.833 84.1848 167.964 84.0797 168.174C83.9746 168.383 83.922 168.541 83.922 168.619V174.095C83.922 174.147 83.9483 174.2 83.9746 174.252C84.0009 174.304 84.0534 174.383 84.0797 174.435C84.1323 174.488 84.1585 174.566 84.1848 174.619C84.2111 174.619 84.2111 174.671 84.2111 174.697ZM84.2637 165.292C84.2637 165.292 84.29 165.344 84.29 165.397C84.29 165.606 84.2374 165.868 84.1585 166.183C84.0534 166.523 83.9746 166.707 83.8957 166.759C83.8169 166.785 83.4226 166.707 82.713 166.471C82.0297 166.235 81.6617 166.078 81.6091 165.973C81.5829 165.947 81.5566 165.868 81.5566 165.764C81.5566 165.528 81.6091 165.266 81.7406 164.978C81.8983 164.689 82.0559 164.506 82.2399 164.454C82.4502 164.401 82.8181 164.48 83.3175 164.689C83.8694 164.899 84.1848 165.109 84.2637 165.292Z" fill="white"/>
<path d="M88.0211 164.401C88.0211 164.454 87.9948 164.558 87.9686 164.663C87.916 164.768 87.8897 164.847 87.8897 164.873C87.8372 165.056 87.7846 165.318 87.732 165.711V174.042C87.732 174.147 87.7583 174.252 87.8109 174.331C87.8634 174.409 87.8897 174.488 87.8897 174.54C87.8897 175.116 87.7846 175.431 87.5743 175.457C87.4692 175.483 87.1801 175.405 86.707 175.274C86.2076 175.143 85.9185 175.038 85.8134 174.959C85.6031 174.802 85.5243 174.645 85.5243 174.488C85.5243 174.462 85.5506 174.409 85.5769 174.357C85.6031 174.304 85.6294 174.226 85.6294 174.121V164.532C85.6294 164.48 85.6031 164.427 85.5769 164.375C85.5506 164.323 85.5243 164.27 85.5243 164.218C85.5506 164.008 85.7083 163.851 86.0237 163.772C86.1025 163.772 86.3128 163.772 86.6019 163.772C86.7859 163.799 86.9435 163.799 87.075 163.825C87.2064 163.851 87.3378 163.877 87.4692 163.903C87.8372 164.034 88.0211 164.192 88.0211 164.401Z" fill="white"/>
<path d="M91.8051 164.401C91.8051 164.454 91.7788 164.558 91.7526 164.663C91.7 164.768 91.6737 164.847 91.6737 164.873C91.6211 165.056 91.5686 165.318 91.516 165.711V174.042C91.516 174.147 91.5423 174.252 91.5949 174.331C91.6474 174.409 91.6737 174.488 91.6737 174.54C91.6737 175.116 91.5686 175.431 91.3583 175.457C91.2532 175.483 90.9641 175.405 90.491 175.274C89.9916 175.143 89.7025 175.038 89.5974 174.959C89.3871 174.802 89.3083 174.645 89.3083 174.488C89.3083 174.462 89.3346 174.409 89.3609 174.357C89.3871 174.304 89.4134 174.226 89.4134 174.121V164.532C89.4134 164.48 89.3871 164.427 89.3609 164.375C89.3346 164.323 89.3083 164.27 89.3083 164.218C89.3346 164.008 89.4923 163.851 89.8077 163.772C89.8865 163.772 90.0968 163.772 90.3859 163.772C90.5698 163.799 90.7275 163.799 90.859 163.825C90.9904 163.851 91.1218 163.877 91.2532 163.903C91.6211 164.034 91.8051 164.192 91.8051 164.401Z" fill="white"/>
<path d="M99.1387 174.67C99.1387 174.801 99.0861 174.906 98.981 174.985C98.8759 175.063 98.7707 175.116 98.6393 175.089C97.5092 174.932 96.8784 174.723 96.747 174.461C96.7207 174.408 96.7207 174.382 96.7207 174.356C96.747 174.277 96.7732 174.199 96.8258 174.12C96.8784 174.042 96.9047 173.989 96.9309 173.937C96.9309 173.911 96.9572 173.832 96.9572 173.78C96.9572 173.701 96.9572 173.596 96.9572 173.465C96.8521 173.544 96.6944 173.753 96.4579 174.12C96.3527 174.33 96.2213 174.487 96.1425 174.618C96.0373 174.749 95.9585 174.854 95.8534 174.932C95.5643 175.194 95.2226 175.351 94.8546 175.351C94.6181 175.351 94.4078 175.273 94.2238 175.089C94.1713 175.037 94.1187 174.985 94.0136 174.906C93.9085 174.827 93.8033 174.723 93.6982 174.566L92.9886 173.753C92.8046 173.491 92.6995 173.256 92.6995 173.046C92.6995 172.994 92.6995 172.915 92.7257 172.836C92.9097 172.05 93.4354 171.291 94.329 170.557C94.9598 170.059 95.8796 169.509 97.1149 168.907C97.1149 168.618 97.0361 168.435 96.9047 168.356C96.8258 168.304 96.4841 168.409 95.9585 168.671C95.4328 168.933 95.0386 169.142 94.8021 169.326C94.7758 169.352 94.7232 169.404 94.6707 169.457C94.6181 169.509 94.5392 169.562 94.4604 169.614C94.3027 169.719 94.1713 169.745 94.0399 169.693C93.9347 169.666 93.7245 169.509 93.4091 169.195C93.0937 168.88 92.9097 168.697 92.8834 168.592C92.8046 168.33 92.8834 168.147 93.12 168.016C93.1463 167.99 93.3302 167.937 93.6719 167.859L94.6707 167.308C95.0123 167.125 95.3277 166.994 95.6431 166.916C95.9585 166.837 96.2213 166.785 96.4579 166.758C96.6681 166.732 96.9047 166.837 97.1675 167.073C97.404 167.282 97.6406 167.492 97.8771 167.701C98.1137 167.911 98.3765 168.094 98.613 168.304C98.9021 168.566 99.0598 168.802 99.0598 169.038V174.173C99.1124 174.435 99.165 174.592 99.1387 174.67ZM96.9572 170.688C96.7207 170.767 96.5104 170.898 96.3264 171.003C96.1425 171.133 95.9585 171.291 95.8008 171.474L95.0912 172.339C94.9072 172.522 94.7232 172.784 94.5392 173.098C94.3815 173.387 94.3027 173.622 94.3027 173.753C94.3027 173.832 94.329 173.858 94.3815 173.858C94.5655 173.858 94.986 173.439 95.6694 172.627C96.3264 171.815 96.7732 171.16 96.9572 170.688Z" fill="white"/>
<path d="M106.05 167.78L105.893 168.042C105.84 168.147 105.787 168.251 105.787 168.33V174.277C105.787 175.77 105.236 176.74 104.105 177.159C103.606 177.368 103.133 177.447 102.686 177.447C102.055 177.447 101.53 177.237 101.083 176.818C101.03 176.766 100.925 176.687 100.846 176.556C100.741 176.425 100.61 176.294 100.426 176.111L100.163 175.849C100.084 175.77 100.032 175.666 100.005 175.535C99.979 175.404 100.11 175.299 100.426 175.22C100.452 175.22 100.505 175.194 100.583 175.194C100.689 175.194 100.794 175.194 100.925 175.22C101.057 175.246 101.188 175.273 101.293 175.299C101.425 175.325 101.53 175.377 101.635 175.43C101.74 175.482 101.819 175.535 101.871 175.587C101.95 175.666 102.029 175.77 102.082 175.875C102.16 175.98 102.239 176.059 102.318 176.137C102.397 176.216 102.476 176.294 102.581 176.347C102.66 176.399 102.765 176.452 102.87 176.452C103.238 176.504 103.475 176.242 103.58 175.692C103.632 175.43 103.659 174.984 103.659 174.303L103.396 174.644C103.291 174.775 103.212 174.88 103.107 174.932C103.028 175.011 102.923 175.063 102.791 175.063C102.292 175.063 101.898 174.932 101.582 174.67C100.61 173.858 100.137 172.653 100.137 171.081C100.137 170.085 100.347 169.195 100.767 168.382C101.214 167.518 101.792 166.994 102.502 166.784C102.581 166.758 102.634 166.758 102.66 166.758C102.818 166.758 102.975 166.837 103.159 166.968L103.632 167.334C103.685 167.177 103.737 167.02 103.79 166.889C103.843 166.732 103.948 166.653 104.079 166.627C104.263 166.601 104.605 166.653 105.078 166.81C105.577 166.968 105.84 167.072 105.919 167.203C106.077 167.465 106.103 167.623 106.05 167.78ZM103.632 171.107C103.659 170.793 103.685 170.504 103.711 170.242C103.737 169.98 103.737 169.771 103.737 169.561C103.737 168.828 103.606 168.435 103.369 168.33C103.185 168.251 102.949 168.592 102.66 169.299C102.397 170.033 102.239 170.688 102.239 171.264C102.239 172.338 102.371 173.177 102.634 173.805C103.185 172.967 103.527 172.076 103.632 171.107Z" fill="white"/>
<path d="M112.57 172.574C112.649 172.705 112.465 173.124 112.044 173.779C111.808 174.146 111.571 174.434 111.335 174.67C111.098 174.906 110.862 175.089 110.651 175.22C110.599 175.246 110.52 175.272 110.415 175.272C110.073 175.272 109.6 175.168 109.022 174.958C108.417 174.748 108.023 174.539 107.813 174.277C107.287 173.596 107.024 172.653 107.024 171.447C107.024 170.295 107.261 169.299 107.708 168.435C108.207 167.465 108.864 166.994 109.626 166.994C109.889 166.994 110.231 167.046 110.651 167.203C111.151 167.387 111.545 167.649 111.86 167.989C111.939 168.068 112.018 168.304 112.097 168.723C112.149 168.932 112.176 169.168 112.202 169.378C112.228 169.587 112.228 169.797 112.228 170.006C112.228 170.635 112.123 171.054 111.939 171.29C111.019 171.578 110.047 171.736 109.074 171.788C109.074 172.233 109.127 172.705 109.232 173.177C109.337 173.648 109.495 173.91 109.626 173.936C109.81 173.962 110.02 173.805 110.283 173.491C110.494 173.255 110.651 173.019 110.704 172.836C110.73 172.705 110.783 172.574 110.809 172.417C110.862 172.286 110.888 172.129 110.94 171.998C111.098 171.971 111.387 172.05 111.808 172.207C112.255 172.312 112.491 172.469 112.57 172.574ZM110.152 168.435C109.994 168.435 109.784 168.67 109.495 169.168C109.206 169.692 109.048 170.164 109.022 170.609C109.416 170.609 109.758 170.504 109.994 170.321C110.152 170.216 110.204 169.771 110.204 168.959C110.204 168.618 110.204 168.435 110.152 168.435Z" fill="white"/>
<path d="M276.835 165.187C277.702 165.658 278.149 166.444 278.149 167.571C278.149 168.383 277.833 169.405 277.176 170.662C276.467 172.051 275.731 172.758 274.969 172.758C274.811 172.758 274.653 172.679 274.496 172.548C274.312 172.417 274.154 172.26 273.97 172.129V174.435C273.97 174.54 273.996 174.671 274.049 174.854C274.101 175.064 274.154 175.221 274.18 175.299C274.18 175.378 274.154 175.509 274.075 175.718C273.97 175.954 273.865 176.059 273.707 176.059C273.523 176.085 273.181 175.954 272.656 175.718C272.367 175.587 272.13 175.483 271.972 175.378C271.788 175.273 271.683 175.168 271.605 175.064C271.526 174.959 271.526 174.749 271.605 174.487C271.657 174.304 271.71 174.147 271.71 174.042V165.632C271.71 165.606 271.71 165.553 271.683 165.501C271.657 165.449 271.657 165.396 271.631 165.318C271.605 165.265 271.578 165.187 271.578 165.134C271.578 165.082 271.552 165.029 271.552 165.003C271.605 164.558 271.762 164.348 272.051 164.348C272.078 164.348 272.13 164.374 272.209 164.401C272.288 164.427 272.419 164.479 272.577 164.505C272.735 164.558 272.892 164.61 273.024 164.61C273.155 164.636 273.26 164.636 273.365 164.663C273.497 164.663 273.655 164.663 273.839 164.61C274.023 164.558 274.206 164.505 274.417 164.453C274.864 164.296 275.153 164.217 275.337 164.217C275.442 164.217 275.547 164.243 275.652 164.27C275.862 164.322 276.073 164.453 276.309 164.689C276.44 164.82 276.572 164.925 276.651 165.003C276.703 165.082 276.782 165.134 276.835 165.187ZM275.705 166.235C275.494 166.235 275.205 166.339 274.837 166.575C274.469 166.811 274.18 167.073 273.97 167.335V170.61C274.469 170.453 274.916 169.902 275.363 168.933C275.757 168.042 275.967 167.309 275.967 166.706C275.967 166.392 275.889 166.235 275.705 166.235Z" fill="white"/>
<path d="M284.93 175.272C284.93 175.403 284.878 175.508 284.773 175.586C284.668 175.665 284.562 175.717 284.431 175.691C283.301 175.534 282.67 175.324 282.539 175.062C282.512 175.01 282.512 174.984 282.512 174.957C282.539 174.879 282.565 174.8 282.618 174.722C282.67 174.643 282.696 174.591 282.723 174.538C282.723 174.512 282.749 174.434 282.749 174.381C282.749 174.303 282.749 174.198 282.749 174.067C282.644 174.145 282.486 174.355 282.25 174.722C282.118 174.931 282.013 175.088 281.934 175.219C281.829 175.35 281.75 175.455 281.645 175.534C281.356 175.796 281.014 175.953 280.646 175.953C280.41 175.953 280.2 175.874 280.016 175.691C279.963 175.639 279.91 175.586 279.805 175.508C279.726 175.429 279.595 175.324 279.49 175.167L278.78 174.355C278.596 174.093 278.491 173.857 278.491 173.648C278.491 173.595 278.491 173.517 278.518 173.438C278.701 172.652 279.227 171.892 280.121 171.159C280.752 170.661 281.671 170.111 282.907 169.508C282.907 169.22 282.828 169.037 282.696 168.958C282.618 168.906 282.276 169.01 281.75 169.272C281.198 169.534 280.83 169.744 280.594 169.927C280.568 169.954 280.515 170.006 280.462 170.058C280.41 170.111 280.331 170.163 280.252 170.216C280.094 170.32 279.963 170.347 279.832 170.294C279.726 170.268 279.516 170.111 279.201 169.796C278.885 169.508 278.701 169.299 278.675 169.194C278.596 168.932 278.675 168.748 278.912 168.617C278.938 168.591 279.122 168.539 279.464 168.46L280.462 167.91C280.804 167.727 281.119 167.596 281.435 167.517C281.75 167.438 282.013 167.386 282.25 167.36C282.46 167.334 282.696 167.438 282.959 167.674C283.196 167.884 283.432 168.093 283.669 168.303C283.905 168.513 284.168 168.696 284.405 168.906C284.694 169.168 284.852 169.403 284.852 169.639V174.774C284.904 175.01 284.957 175.167 284.93 175.272ZM282.749 171.29C282.512 171.368 282.302 171.499 282.118 171.604C281.934 171.735 281.75 171.892 281.593 172.076L280.883 172.94C280.699 173.124 280.515 173.386 280.331 173.7C280.173 173.988 280.094 174.224 280.094 174.355C280.094 174.434 280.121 174.46 280.173 174.46C280.357 174.46 280.778 174.041 281.461 173.228C282.118 172.416 282.565 171.761 282.749 171.29Z" fill="white"/>
<path d="M291.318 168.357C291.344 168.488 291.291 168.619 291.16 168.698C291.107 168.724 291.055 168.75 291.002 168.776C290.95 168.802 290.897 168.829 290.844 168.881L288.505 172.392C288.505 173.859 288.505 174.592 288.532 174.619L288.637 174.959C288.689 175.116 288.742 175.273 288.742 175.404C288.742 175.562 288.663 175.666 288.505 175.745C288.4 175.797 288.269 175.824 288.085 175.824C287.769 175.824 287.375 175.745 286.928 175.588C286.403 175.431 286.14 175.195 286.14 174.907C286.14 174.88 286.14 174.828 286.166 174.749C286.192 174.671 286.219 174.592 286.245 174.514C286.271 174.435 286.298 174.357 286.324 174.278C286.35 174.199 286.35 174.121 286.35 174.068V168.698L286.192 167.912C286.192 167.623 286.324 167.44 286.587 167.388C286.692 167.361 286.823 167.335 286.981 167.335C287.139 167.335 287.296 167.361 287.454 167.388C287.612 167.414 287.796 167.466 287.953 167.492C288.295 167.597 288.505 167.702 288.584 167.807C288.61 167.859 288.61 167.912 288.61 167.938C288.61 167.964 288.558 168.174 288.426 168.593V169.248C288.532 169.038 288.637 168.855 288.742 168.671C288.847 168.488 288.952 168.278 289.057 168.095C289.32 167.597 289.53 167.335 289.688 167.309C289.898 167.283 290.187 167.388 290.608 167.65C291.055 167.964 291.265 168.174 291.318 168.357Z" fill="white"/>
<path d="M294.786 175.299C294.838 175.613 294.707 175.823 294.444 175.901C294.418 175.901 294.365 175.928 294.26 175.928C293.918 175.928 293.524 175.849 293.051 175.718C292.525 175.561 292.236 175.404 292.131 175.273C292.079 175.194 292.131 175.063 292.263 174.854C292.341 174.723 292.394 174.461 292.394 174.094V168.383C292.289 168.042 292.236 167.806 292.236 167.701C292.236 167.597 292.394 167.518 292.736 167.518C292.999 167.518 293.366 167.597 293.866 167.78C294.365 167.963 294.681 168.094 294.759 168.225C294.786 168.278 294.812 168.304 294.812 168.356C294.812 168.435 294.759 168.566 294.654 168.775C294.549 168.985 294.497 169.142 294.497 169.221V174.696C294.497 174.749 294.523 174.801 294.549 174.854C294.575 174.906 294.628 174.985 294.654 175.037C294.707 175.089 294.733 175.168 294.759 175.22C294.786 175.22 294.786 175.273 294.786 175.299ZM294.838 165.894C294.838 165.894 294.865 165.946 294.865 165.998C294.865 166.208 294.812 166.47 294.733 166.784C294.628 167.125 294.549 167.308 294.47 167.361C294.391 167.387 293.997 167.308 293.288 167.073C292.604 166.837 292.236 166.68 292.184 166.575C292.157 166.549 292.131 166.47 292.131 166.365C292.131 166.129 292.184 165.867 292.315 165.579C292.473 165.291 292.631 165.108 292.815 165.055C293.025 165.003 293.393 165.081 293.892 165.291C294.444 165.501 294.759 165.71 294.838 165.894Z" fill="white"/>
<path d="M300.725 174.226C300.725 174.724 300.567 175.117 300.225 175.405C299.884 175.694 299.437 175.851 298.832 175.851C298.754 175.851 298.675 175.851 298.596 175.824C298.517 175.798 298.438 175.798 298.333 175.772C298.018 175.693 297.86 175.641 297.834 175.641C297.676 175.615 297.492 175.563 297.334 175.536C297.177 175.51 297.019 175.432 296.914 175.327C296.703 175.143 296.52 174.908 296.336 174.567L295.889 173.781C295.731 173.519 295.678 173.362 295.678 173.309C295.678 173.205 295.757 173.1 295.941 173.021C295.994 172.995 296.073 172.995 296.178 172.995C296.309 172.995 296.467 172.995 296.625 173.021C296.782 173.047 296.993 173.074 297.203 173.1C297.623 173.178 297.86 173.231 297.886 173.257C297.912 173.283 297.965 173.545 298.044 174.043C298.096 174.462 298.202 174.672 298.333 174.672C298.543 174.672 298.648 174.384 298.648 173.833C298.648 173.126 298.464 172.681 298.07 172.497C297.203 172.078 296.625 171.738 296.362 171.423C296.02 171.03 295.862 170.454 295.862 169.668C295.862 169.144 295.994 168.672 296.283 168.227C296.572 167.782 296.887 167.493 297.255 167.389C297.413 167.362 297.939 167.52 298.832 167.913C298.885 167.939 298.964 167.939 299.069 167.965C299.174 167.991 299.358 168.017 299.542 168.043C299.805 168.096 300.015 168.201 300.146 168.332C300.33 168.541 300.409 168.856 300.436 169.327C300.436 169.511 300.462 169.668 300.462 169.825C300.462 169.982 300.462 170.166 300.462 170.323C300.514 170.611 300.567 170.794 300.567 170.873C300.567 171.135 300.436 171.266 300.199 171.318C300.146 171.318 300.041 171.318 299.91 171.292C299.779 171.266 299.621 171.214 299.437 171.161C299.016 171.03 298.78 170.873 298.648 170.742C298.622 170.716 298.596 170.375 298.57 169.72C298.543 169.118 298.491 168.803 298.386 168.803C298.254 168.803 298.123 168.987 297.991 169.327C297.886 169.668 297.807 170.035 297.807 170.428C297.807 170.899 297.912 171.214 298.123 171.345C298.359 171.476 298.57 171.607 298.78 171.711C298.99 171.816 299.227 171.947 299.437 172.078C299.884 172.34 300.199 172.576 300.357 172.838C300.62 173.178 300.725 173.624 300.725 174.226Z" fill="white"/>
<path d="M212.1 185.936L113.146 184.154C113.146 184.154 113.146 186.696 114.408 187.324C115.669 187.953 117.194 188.215 117.062 189.237C116.931 190.259 110.754 197.725 105.209 204.196C99.6631 210.667 96.115 216.876 95.6156 219.549C95.1162 222.221 95.1162 222.719 94.0912 223.478C93.0662 224.238 89.8072 225.758 87.7834 230.316C85.7597 234.875 85.8911 235.635 85.6283 238.805C85.3654 241.975 84.8661 257.065 84.8661 257.065L302.354 263.143C302.485 262.75 307.163 236.394 306.769 232.465C306.375 228.535 297.544 221.173 284.692 218.003C271.814 214.833 248.843 209.75 248.08 209.515C247.292 209.279 212.1 185.936 212.1 185.936Z" fill="#0C96FD"/>
<path d="M85.3399 241.977C85.0771 245.147 84.8406 257.067 84.8406 257.067L302.328 263.145C302.433 262.831 304.773 250.334 305.64 241.924C305.64 241.924 274.732 229.716 257.412 228.747C240.065 227.777 215.517 237.313 197.803 236.135C180.088 234.956 157.328 224.869 137.274 224.869C117.221 224.869 85.3399 241.977 85.3399 241.977Z" fill="#1D7DCC"/>
<path d="M111.728 247.948H83.3426C83.3426 247.948 82.2124 253.267 83.3426 256.201C84.4727 259.109 88.1523 263.039 95.196 263.301C102.24 263.563 302.854 263.799 302.854 263.799C302.854 263.799 304.878 262.017 306.139 257.066C307.401 252.114 305.298 245.774 305.298 245.774C305.298 245.774 303.748 248.551 297.308 249.704C290.869 250.856 266.9 250.202 266.9 250.202L246.452 260.209L138.404 256.777L111.728 247.948Z" fill="#2D2D2D"/>
<path d="M117.036 189.238C117.036 189.238 113.882 191.02 111.359 193.666C108.836 196.338 106.523 202.626 106.523 202.626C106.523 202.626 119.007 190.81 117.036 189.238Z" fill="#2D2D2D"/>
<path d="M104.658 214.597C102.634 212.92 94.8018 216.378 94.4338 219.024C94.0659 221.67 100.873 222.194 102.003 221.173C103.16 220.177 106.051 215.723 104.658 214.597Z" fill="#7D009B"/>
<path d="M135.958 220.02C135.958 223.662 147.339 223.662 147.339 220.308C147.339 216.248 135.958 216.798 135.958 220.02Z" fill="#1D7DCC"/>
<path d="M131.176 221.67H143.397C143.607 221.67 143.791 221.487 143.791 221.277V219.024C143.791 218.815 143.607 218.631 143.397 218.631H131.176C130.966 218.631 130.782 218.815 130.782 219.024V221.277C130.782 221.487 130.966 221.67 131.176 221.67Z" fill="#878FB3"/>
<path d="M235.571 206.739L212.732 190.26C212.732 190.26 145.711 189.238 138.773 189.238C128.549 189.238 122.241 193.666 122.241 198.879C122.241 204.067 136.25 204.067 146.106 204.067C155.961 204.067 235.571 206.739 235.571 206.739Z" fill="#2D2D2D"/>
<path d="M253.994 243.129H253.758V221.725L235.491 206.818L235.649 206.634L253.994 221.62V243.129Z" fill="#024168"/>
<path d="M232.153 205.323C232.101 204.17 230.261 201.026 227.659 201.026C225.083 201.026 225.083 208.624 226.844 209.122C228.631 209.646 232.285 207.995 232.153 205.323Z" fill="#F1F3F2"/>
<path d="M168.788 256.568H168.551V226.65L172.336 205.114L172.573 205.167L168.788 226.65V256.568Z" fill="#024168"/>
<path d="M124.842 252.272H124.632V226.125L128.863 203.175L129.1 203.201L124.842 226.151V252.272Z" fill="#024168"/>
<path d="M287.138 218.686C287.138 218.686 295.023 223.847 296.048 226.65C297.073 229.453 298.308 231.968 298.939 232.099C299.57 232.23 306.771 232.492 306.771 232.492C306.771 232.492 307.586 226.31 306.534 225.602C305.483 224.895 290.108 217.192 287.138 218.686Z" fill="#F1F3F2"/>
<path d="M289.081 239.329H296.598C296.861 239.329 297.097 239.119 297.097 238.831V236.002C297.097 235.74 296.887 235.504 296.598 235.504H289.081C288.818 235.504 288.582 235.714 288.582 236.002V238.831C288.582 239.093 288.792 239.329 289.081 239.329Z" fill="#878FB3"/>
<path d="M186.45 220.02C186.45 223.662 197.83 223.662 197.83 220.308C197.83 216.248 186.45 216.798 186.45 220.02Z" fill="#1D7DCC"/>
<path d="M181.693 221.67H193.914C194.124 221.67 194.308 221.487 194.308 221.277V219.024C194.308 218.815 194.124 218.631 193.914 218.631H181.693C181.483 218.631 181.299 218.815 181.299 219.024V221.277C181.299 221.487 181.456 221.67 181.693 221.67Z" fill="#878FB3"/>
<path d="M173.098 189.684H171.915V204.722H173.098V189.684Z" fill="#024168"/>
<path d="M129.099 203.201H128.284V191.228L129.099 190.887V203.201Z" fill="#024168"/>
<path d="M114.355 263.536C114.066 262.043 113.909 260.497 113.909 258.899C113.909 244.961 125.236 233.696 139.192 233.696C153.148 233.696 164.476 244.987 164.476 258.899C164.476 260.497 164.318 262.043 164.029 263.536H114.355Z" fill="#024168"/>
<path d="M139.193 277.527C150.98 277.527 160.535 268.002 160.535 256.253C160.535 244.504 150.98 234.98 139.193 234.98C127.407 234.98 117.852 244.504 117.852 256.253C117.852 268.002 127.407 277.527 139.193 277.527Z" fill="black"/>
<path d="M139.193 270.584C147.133 270.584 153.57 264.168 153.57 256.254C153.57 248.339 147.133 241.923 139.193 241.923C131.253 241.923 124.817 248.339 124.817 256.254C124.817 264.168 131.253 270.584 139.193 270.584Z" fill="#606060"/>
<path d="M139.194 266.235C144.724 266.235 149.208 261.766 149.208 256.254C149.208 250.741 144.724 246.272 139.194 246.272C133.664 246.272 129.18 250.741 129.18 256.254C129.18 261.766 133.664 266.235 139.194 266.235Z" fill="black"/>
<path d="M151.361 263.981C150.809 264.872 150.152 265.71 149.364 266.47C148.654 267.177 147.866 267.806 147.051 268.33L127.208 248.472C127.733 247.659 128.364 246.9 129.074 246.192C129.862 245.433 130.703 244.778 131.597 244.201L151.361 263.981Z" fill="#A8A9AD"/>
<path d="M147.235 244.36C148.103 244.937 148.944 245.592 149.706 246.378C150.415 247.111 151.02 247.871 151.546 248.709L131.334 268.201C130.52 267.651 129.784 267.022 129.074 266.315C128.312 265.529 127.681 264.664 127.129 263.774L147.235 244.36Z" fill="#A8A9AD"/>
<path d="M229.211 263.536C228.922 262.043 228.764 260.497 228.764 258.899C228.764 244.961 240.092 233.696 254.048 233.696C268.03 233.696 279.332 244.987 279.332 258.899C279.332 260.497 279.174 262.043 278.885 263.536H229.211Z" fill="#024168"/>
<path d="M254.049 277.527C265.835 277.527 275.39 268.002 275.39 256.253C275.39 244.504 265.835 234.98 254.049 234.98C242.262 234.98 232.707 244.504 232.707 256.253C232.707 268.002 242.262 277.527 254.049 277.527Z" fill="black"/>
<path d="M254.049 270.584C261.989 270.584 268.425 264.168 268.425 256.254C268.425 248.339 261.989 241.923 254.049 241.923C246.109 241.923 239.672 248.339 239.672 256.254C239.672 264.168 246.109 270.584 254.049 270.584Z" fill="#606060"/>
<path d="M254.05 266.235C259.58 266.235 264.063 261.766 264.063 256.254C264.063 250.741 259.58 246.272 254.05 246.272C248.519 246.272 244.036 250.741 244.036 256.254C244.036 261.766 248.519 266.235 254.05 266.235Z" fill="black"/>
<path d="M266.217 263.981C265.665 264.872 265.008 265.71 264.22 266.47C263.51 267.177 262.721 267.806 261.907 268.33L242.063 248.472C242.589 247.659 243.22 246.9 243.929 246.192C244.718 245.433 245.559 244.778 246.453 244.201L266.217 263.981Z" fill="#A8A9AD"/>
<path d="M262.091 244.36C262.958 244.937 263.799 245.592 264.561 246.378C265.271 247.111 265.876 247.871 266.401 248.709L246.19 268.201C245.375 267.651 244.639 267.022 243.93 266.315C243.168 265.529 242.537 264.664 241.985 263.774L262.091 244.36Z" fill="#A8A9AD"/>
<path d="M203.927 182.217C203.927 182.217 200.589 180.881 197.593 183.632C195.595 185.492 196.252 190.601 197.409 192.199C198.565 193.797 202.981 196.233 202.981 196.233C202.981 196.233 215.517 183.16 203.927 182.217Z" fill="#A5713D"/>
<path d="M205.583 199.115C203.585 199.481 201.246 200.084 200.142 201.106C198.802 202.337 199.485 205.952 206.187 205.035C212.863 204.145 212.101 201.106 211.26 200.293C210.024 199.167 207.107 198.853 205.583 199.115Z" fill="#F69576"/>
<path d="M207.395 194.53L210.181 202.573L202.349 203.988C202.349 203.988 202.139 200.635 202.191 198.434C202.244 196.233 202.48 195.421 202.48 195.421L207.395 194.53Z" fill="#F69576"/>
<path d="M204.401 197.387C204.401 197.387 204.611 198.932 205.741 199.404C206.871 199.876 209.132 199.483 209.132 199.483L207.397 194.505L204.085 195.107C204.112 195.107 204.112 196.444 204.401 197.387Z" fill="#DD866F"/>
<path d="M206.687 184.286C206.687 184.286 207.817 184.915 208.579 186.644C209.157 187.98 209.368 189.474 209.683 190.286C209.998 191.098 210.524 192.382 210.498 193.587C210.472 194.792 209.736 196.574 207.896 197.438C206.082 198.329 204.427 198.224 203.139 197.071C201.851 195.919 200.09 193.77 199.407 192.198C198.723 190.627 197.935 187.535 199.459 185.832C201.43 183.658 204.111 183.16 206.687 184.286Z" fill="#F69576"/>
<path d="M204.926 194.242C204.926 194.242 205.32 195.342 206.03 195.447C206.74 195.552 207.397 195.29 207.633 194.844C207.87 194.425 207.896 193.666 207.896 193.666L204.926 194.242Z" fill="white"/>
<path d="M206.319 192.722C206.267 192.722 206.214 192.722 206.188 192.696C206.083 192.644 206.056 192.513 206.056 192.434V192.408C206.03 192.434 206.004 192.46 205.978 192.513C205.925 192.591 205.872 192.618 205.794 192.618C205.688 192.618 205.583 192.513 205.531 192.382C205.452 192.146 205.583 191.727 205.61 191.701C205.61 191.674 205.662 191.648 205.688 191.648C205.715 191.648 205.741 191.701 205.741 191.727C205.688 191.832 205.61 192.172 205.662 192.329C205.715 192.434 205.767 192.487 205.794 192.487C205.82 192.487 205.846 192.46 205.872 192.434C205.951 192.303 206.004 192.251 206.083 192.251C206.109 192.251 206.162 192.251 206.188 192.277C206.214 192.303 206.214 192.329 206.24 192.382C206.24 192.434 206.267 192.539 206.319 192.539C206.346 192.539 206.372 192.539 206.398 192.539C206.477 192.513 206.477 192.434 206.451 192.303C206.424 192.225 206.424 192.172 206.451 192.146C206.477 192.12 206.477 192.12 206.53 192.12C206.582 192.12 206.635 192.146 206.661 192.172C206.766 192.225 206.792 192.225 206.845 192.172C206.871 192.146 206.871 192.094 206.845 192.015C206.792 191.832 206.635 191.596 206.53 191.543C206.503 191.517 206.477 191.491 206.503 191.465C206.53 191.439 206.556 191.412 206.582 191.439C206.74 191.517 206.924 191.779 206.976 192.015C207.003 192.12 207.003 192.225 206.95 192.277C206.845 192.434 206.687 192.356 206.608 192.329C206.608 192.329 206.582 192.329 206.582 192.303V192.329C206.608 192.434 206.661 192.644 206.451 192.722C206.372 192.696 206.346 192.696 206.319 192.722Z" fill="#6B3425"/>
<path d="M196.279 191.516C196.594 189.944 201.167 190.494 200.852 193.35C200.537 196.258 195.806 193.848 196.279 191.516Z" fill="#F69576"/>
<path d="M200.116 193.822C200.09 193.822 200.09 193.822 200.063 193.822C200.037 193.796 200.011 193.77 200.037 193.744C200.168 193.508 200.116 192.905 199.774 192.329C199.538 191.936 199.012 191.281 198.04 191.334C197.54 191.36 197.199 191.517 197.041 191.779C196.804 192.172 197.041 192.696 197.041 192.696C197.067 192.722 197.041 192.774 197.015 192.774C196.988 192.801 196.936 192.774 196.936 192.748C196.936 192.722 196.673 192.172 196.936 191.727C197.12 191.412 197.488 191.255 198.04 191.229C198.775 191.176 199.459 191.569 199.879 192.303C200.221 192.879 200.326 193.56 200.142 193.849C200.142 193.822 200.116 193.822 200.116 193.822Z" fill="#6B3425"/>
<path d="M198.512 193.875C198.486 193.875 198.459 193.875 198.433 193.849C198.407 193.797 197.697 192.696 198.17 191.256C198.17 191.229 198.223 191.203 198.249 191.203C198.275 191.203 198.302 191.256 198.302 191.282C197.855 192.67 198.538 193.771 198.538 193.771C198.591 193.797 198.564 193.849 198.512 193.875Z" fill="#6B3425"/>
<path d="M204.013 191.828C204.142 191.805 204.208 191.579 204.162 191.322C204.115 191.066 203.973 190.877 203.845 190.9C203.716 190.924 203.65 191.15 203.696 191.406C203.743 191.663 203.885 191.852 204.013 191.828Z" fill="#6B3425"/>
<path d="M202.587 190.285C202.745 190.102 203.086 189.84 203.481 189.709C203.901 189.578 204.19 189.735 204.374 189.735C204.558 189.735 204.532 189.499 204.4 189.316C204.269 189.132 203.875 189.054 203.297 189.185C202.718 189.316 202.429 189.63 202.298 189.84C202.166 190.049 202.377 190.547 202.587 190.285Z" fill="#6B3425"/>
<path d="M207.64 191.042C207.769 191.019 207.835 190.792 207.789 190.536C207.742 190.28 207.6 190.091 207.471 190.114C207.343 190.137 207.276 190.364 207.323 190.62C207.37 190.877 207.512 191.065 207.64 191.042Z" fill="#6B3425"/>
<path d="M206.424 189.423C206.582 189.239 206.923 188.977 207.318 188.846C207.738 188.715 208.027 188.873 208.211 188.873C208.395 188.873 208.369 188.637 208.237 188.453C208.106 188.27 207.712 188.191 207.134 188.322C206.555 188.453 206.266 188.768 206.135 188.977C206.003 189.187 206.214 189.685 206.424 189.423Z" fill="#6B3425"/>
<path d="M209.025 194.922L208.736 195.053C208.736 195.053 208.368 196.285 207.921 196.599C207.474 196.913 205.897 197.123 205.687 196.992C205.503 196.887 204.714 195.708 204.714 195.708L204.347 195.866C204.347 195.866 205.24 197.568 205.372 197.726C205.45 197.804 206.607 198.328 207.027 198.302C207.448 198.25 208.709 197.228 208.736 197.071C208.867 196.52 209.025 194.922 209.025 194.922Z" fill="#6B3425"/>
<path d="M207.343 195.972L206.633 196.076L206.844 197.308H207.396L207.343 195.972Z" fill="#6B3425"/>
<path d="M198.749 183.972C198.749 183.972 200.931 186.644 205.53 186.068C215.123 184.889 209.814 180.382 209.814 180.382C209.814 180.382 210.419 181.719 208.789 182.112C206.555 182.583 202.087 176.4 198.749 183.972Z" fill="#A5713D"/>
</svg>
