<svg width="375" height="306" viewBox="0 0 375 306" fill="none" xmlns="http://www.w3.org/2000/svg">
<path d="M170.574 53.5237C188.735 56.9557 222.955 -13.0994 260.855 2.35777C298.754 17.815 270.895 67.6186 284.404 78.7792C297.913 89.9398 334.919 55.5934 350.478 91.6689C366.037 127.744 342.409 166.361 342.068 172.361C341.726 178.36 384.724 210.611 372.792 255.017C360.86 299.424 202.402 303.721 145.842 305.424C89.2825 307.126 13.6677 306.995 2.52396 260.702C-8.61982 214.409 42.0003 174.09 46.6786 161.148C51.3568 148.206 9.01574 103.17 62.1064 47.8124C103.133 5.00384 152.413 50.0917 170.574 53.5237Z" fill="#9ECBDD"/>
<path d="M160.43 166.36H78.3235V188.498H160.43V166.36Z" fill="#776B67"/>
<path d="M161.56 168.012H76.3784V139.665H144.897L161.56 153.577V168.012Z" fill="#6B3425"/>
<path d="M123.819 188.499H78.3235V159.236L101.084 140.818L123.819 159.236V188.499Z" fill="#776B67"/>
<path d="M130.678 124.967H123.818V140.817H130.678V124.967Z" fill="#A5713D"/>
<path d="M133.281 137.726H121.506V142.887H133.281V137.726Z" fill="#E7D0B0"/>
<path d="M99.9017 153.837H97.1946V160.544H99.9017V153.837Z" fill="#417A8C"/>
<path d="M104.186 153.837H101.085V160.544H104.186V153.837Z" fill="#417A8C"/>
<path d="M89.703 170.58H85.9446V171.864H89.703V170.58Z" fill="#417A8C"/>
<path d="M93.9595 170.58H90.8582V171.864H93.9595V170.58Z" fill="#417A8C"/>
<path d="M89.703 172.78H85.9446V181.032H89.703V172.78Z" fill="#417A8C"/>
<path d="M93.9595 172.78H90.8582V181.032H93.9595V172.78Z" fill="#417A8C"/>
<path d="M132.334 171.862H128.208V174.823H132.334V171.862Z" fill="#417A8C"/>
<path d="M132.334 176.892H128.208V179.59H132.334V176.892Z" fill="#417A8C"/>
<path d="M132.334 181.033H128.208V183.731H132.334V181.033Z" fill="#417A8C"/>
<path d="M138.537 171.862H134.41V174.823H138.537V171.862Z" fill="#417A8C"/>
<path d="M138.537 176.892H134.41V179.59H138.537V176.892Z" fill="#417A8C"/>
<path d="M138.537 181.033H134.41V183.731H138.537V181.033Z" fill="#417A8C"/>
<path d="M144.765 171.862H140.638V174.823H144.765V171.862Z" fill="#417A8C"/>
<path d="M144.765 176.892H140.638V179.59H144.765V176.892Z" fill="#417A8C"/>
<path d="M144.765 181.033H140.638V183.731H144.765V181.033Z" fill="#417A8C"/>
<path d="M150.967 171.862H146.841V174.823H150.967V171.862Z" fill="#417A8C"/>
<path d="M150.967 176.892H146.841V179.59H150.967V176.892Z" fill="#417A8C"/>
<path d="M150.967 181.033H146.841V183.731H150.967V181.033Z" fill="#417A8C"/>
<path d="M157.17 171.862H153.044V174.823H157.17V171.862Z" fill="#417A8C"/>
<path d="M157.17 176.892H153.044V179.59H157.17V176.892Z" fill="#417A8C"/>
<path d="M157.17 181.033H153.044V183.731H157.17V181.033Z" fill="#417A8C"/>
<path d="M111.413 170.58H107.655V171.864H111.413V170.58Z" fill="#417A8C"/>
<path d="M115.67 170.58H112.568V171.864H115.67V170.58Z" fill="#417A8C"/>
<path d="M111.413 172.78H107.655V181.032H111.413V172.78Z" fill="#417A8C"/>
<path d="M115.67 172.78H112.568V181.032H115.67V172.78Z" fill="#417A8C"/>
<path d="M279.859 136.601H277.493V145.194H279.859V136.601Z" fill="#6B3425"/>
<path d="M328.428 166.494H267.821V145.194L298.125 137.963L328.428 145.194V166.494Z" fill="#E7D0B0"/>
<path d="M330.373 166.494H265.666V187.191H330.373V166.494Z" fill="#A5713D"/>
<path d="M279.202 151.559H275.811V159.864H279.202V151.559Z" fill="#417A8C"/>
<path d="M284.301 151.559H279.833V159.864H284.301V151.559Z" fill="#417A8C"/>
<path d="M298.02 151.559H294.629V159.864H298.02V151.559Z" fill="#417A8C"/>
<path d="M303.145 151.559H298.677V159.864H303.145V151.559Z" fill="#417A8C"/>
<path d="M315.392 151.559H312.001V159.864H315.392V151.559Z" fill="#417A8C"/>
<path d="M320.517 151.559H316.049V159.864H320.517V151.559Z" fill="#417A8C"/>
<path d="M279.202 168.904H275.811V177.209H279.202V168.904Z" fill="#417A8C"/>
<path d="M284.301 168.904H279.833V177.209H284.301V168.904Z" fill="#417A8C"/>
<path d="M298.02 168.904H294.629V177.209H298.02V168.904Z" fill="#417A8C"/>
<path d="M303.145 168.904H298.677V177.209H303.145V168.904Z" fill="#417A8C"/>
<path d="M315.392 168.904H312.001V177.209H315.392V168.904Z" fill="#417A8C"/>
<path d="M320.517 168.904H316.049V177.209H320.517V168.904Z" fill="#417A8C"/>
<path d="M2.52379 260.702C13.6676 306.995 89.3086 307.152 145.842 305.423C202.376 303.694 360.833 299.424 372.792 255.017C380.913 224.81 363.619 200.209 351.818 185.695H28.0441C12.9842 204.768 -4.49364 231.543 2.52379 260.702Z" fill="#776B67"/>
<path d="M13.4314 206.707C4.17996 222.557 -2.20668 241.105 2.52417 260.702C13.6679 306.995 89.309 307.152 145.843 305.423C202.376 303.694 360.833 299.423 372.792 255.017C377.786 236.442 373.16 219.989 366.143 206.707H13.4314Z" fill="#8A9995"/>
<path d="M187.606 150.537C187.606 150.537 198.487 145.953 203.585 155.62C208.684 165.287 199.958 171.444 195.595 171.732C191.233 172.02 186.712 170.553 183.584 171.837C180.457 173.095 174.464 178.963 167.605 178.675C160.745 178.387 154.332 173.042 152.913 162.143C150.547 144.381 165.66 146.424 165.66 146.424C165.66 146.424 161.244 132.067 169.786 127.273C178.328 122.479 187.816 126.775 190.654 133.823C193.467 140.844 187.606 150.537 187.606 150.537Z" fill="#96C22F"/>
<path d="M179.564 138.8C179.564 138.8 179.958 148.179 178.381 150.904C176.804 153.629 174.36 156.17 174.57 156.773C174.754 157.349 183.191 173.697 185.635 179.539C188.08 185.381 187.607 187.242 187.002 188.525C186.424 189.783 186.608 199.45 186.608 199.45H180.247C180.247 199.45 180.326 192.534 181.01 189.678C181.719 186.849 182.587 186.849 182.298 185.486C182.008 184.124 171.022 158.423 171.995 156.065C172.967 153.707 176.2 153.052 177.094 149.83C177.987 146.607 179.564 138.8 179.564 138.8Z" fill="#6B3425"/>
<path d="M191.416 159.523C191.416 159.523 185.818 164.711 184.451 166.938C183.085 169.191 180.982 173.278 180.982 173.278L182.979 176.212C182.979 176.212 185.003 168.981 186.212 167.331C187.395 165.68 191.416 159.523 191.416 159.523Z" fill="#6B3425"/>
<path d="M158.38 158.843C158.38 158.843 164.162 162.353 167.973 163.244C171.784 164.135 176.305 164.816 176.305 164.816L177.487 167.881C177.487 167.881 159.063 163.428 158.38 158.843Z" fill="#6B3425"/>
<path d="M220.801 42.0495C220.801 42.0495 218.857 38.3293 223.246 37.9101C222.799 34.9497 227.083 30.4697 234.547 32.3822C235.809 29.1598 242.931 23.4485 247.872 30.3911C257.308 26.4351 258.648 32.1202 257.387 33.142C264.693 31.8058 263.405 36.836 262.17 37.3861C271.842 35.3165 270.528 42.0495 270.528 42.0495H220.801Z" fill="white"/>
<path d="M51.3053 115.328C51.3053 115.328 49.9386 111.843 53.04 111.45C52.7246 108.673 55.7471 104.508 61.0036 106.289C61.8972 103.276 66.9171 97.9579 70.3864 104.429C77.0359 100.735 77.982 106.053 77.0884 106.996C82.2398 105.765 81.3462 110.428 80.4526 110.952C87.286 109.014 86.3399 115.301 86.3399 115.301H51.3053V115.328Z" fill="white"/>
<path d="M84.0508 198.874H72.6179V205.423H84.0508V198.874Z" fill="#6B3425"/>
<path d="M95.1432 184.097H109.651L105.393 165.994L95.1432 162.143H104.474L103.37 157.479L86.8643 156.222L102.345 153.104L100.163 143.83L86.8643 139.664C86.8643 139.664 94.1182 139.245 99.0068 138.983L92.4099 110.819L81.5815 109.876L91.9105 108.724L78.3224 50.9556L70.3063 85.0662H75.2737L69.5967 88.079L67.0473 98.8991H76.2987L66.5216 101.231L65.628 105.003H70.8056L65.2075 106.811L59.8458 129.551L72.6454 132.25L58.558 135.106L54.2477 153.392H67.5466L52.9073 159.051L48.4392 177.967C55.4567 178.988 65.6806 180.429 65.6806 180.429L47.2565 182.997L43.5244 198.873H113.147L111.07 190.044L95.1432 184.097Z" fill="#7EA21A"/>
<path d="M316.362 191.907L322.512 191.907L322.512 188.37L316.362 188.37L316.362 191.907Z" fill="#6B3425"/>
<path d="M310.371 180.404H302.565L304.852 170.658L310.371 168.588H305.351L305.929 166.073L314.813 165.392L306.481 163.715L307.664 158.711L314.813 156.458C314.813 156.458 310.896 156.222 308.268 156.091L311.843 140.922L317.677 140.425L312.105 139.796L319.438 108.672L323.775 127.037H321.094L324.143 128.661L325.51 134.478H320.542L325.825 135.735L326.298 137.779H323.486L326.508 138.748L329.399 150.983L322.513 152.424L330.109 153.969L332.422 163.82H325.273L333.158 166.859L335.549 177.05C331.765 177.6 326.272 178.386 326.272 178.386L336.207 179.775L338.23 188.316H300.673L301.803 183.548L310.371 180.404Z" fill="#7EA21A"/>
<path d="M239.987 83.3115H78.1919V207.126H239.987V83.3115Z" fill="#7A7A7A"/>
<path d="M242.589 78.439H69.0715V92.2194H242.589V78.439Z" fill="#A5713D"/>
<path d="M244.061 78.439H185.819V210.663H244.061V78.439Z" fill="#A5713D"/>
<path d="M84.9717 85.3291H74.6689V210.663H84.9717V85.3291Z" fill="#A5713D"/>
<path d="M189.945 88.9702H79.7949V108.907H189.945V88.9702Z" fill="#A5713D"/>
<path d="M182.874 93.6855H83.1841V103.641H182.874V93.6855Z" fill="#E7D0B0"/>
<path d="M236.413 92.2188H195.228V206.55H236.413V92.2188Z" fill="#E7D0B0"/>
<path d="M293.209 183.574H273.234C273.234 183.574 271.395 183.757 269.896 184.779C268.425 185.801 267.873 186.796 267.294 191.774C266.743 196.752 269.607 215.274 269.607 215.274H293.183V183.574H293.209Z" fill="#FF6D00"/>
<path d="M292.472 186.245C292.472 186.245 271.026 186.35 269.344 186.245C267.688 186.14 266.952 187.162 266.558 187.896C266.19 188.629 265.139 192.585 265.139 192.585H292.472V186.245Z" fill="#FF6D00"/>
<path d="M265.665 193.242H293.209V197.041L266.401 196.674L265.665 193.242Z" fill="#8A9995"/>
<path d="M269.318 213.178L293.208 212.707V215.274H269.633L269.318 213.178Z" fill="#8A9995"/>
<path d="M277.596 191.723H275.414V197.434H277.596V191.723Z" fill="#ADB2B1"/>
<path d="M282.434 191.513H280.226V197.46H282.434V191.513Z" fill="#ADB2B1"/>
<path d="M281.066 192.926H276.756V198.742H281.066V192.926Z" fill="#8A9995"/>
<path d="M286.744 178.78H284.904V183.574H286.744V178.78Z" fill="#8A9995"/>
<path d="M286.69 179.382H298.885V181.19C298.885 181.19 297.045 180.508 293.103 180.508C289.16 180.508 286.69 181.373 286.69 181.373V179.382Z" fill="#FF6D00"/>
<path d="M291.499 183.574H311.474C311.474 183.574 313.314 183.757 314.812 184.779C316.284 185.801 316.836 186.796 317.414 191.774C317.966 196.752 315.101 215.274 315.101 215.274H291.526V183.574H291.499Z" fill="#FF6D00"/>
<path d="M292.261 186.245C292.261 186.245 313.708 186.35 315.39 186.245C317.046 186.14 317.782 187.162 318.176 187.896C318.544 188.629 319.595 192.585 319.595 192.585H292.261V186.245Z" fill="#FF6D00"/>
<path d="M319.07 193.242H291.499V197.041L318.334 196.674L319.07 193.242Z" fill="#8A9995"/>
<path d="M315.416 213.178L291.499 212.707V215.274H315.101L315.416 213.178Z" fill="#8A9995"/>
<path d="M307.132 197.458L309.313 197.458L309.313 191.746L307.132 191.746L307.132 197.458Z" fill="#ADB2B1"/>
<path d="M300.62 178.78H298.781V183.574H300.62V178.78Z" fill="#8A9995"/>
<path d="M303.129 197.333L305.31 197.333L305.31 191.621L303.129 191.621L303.129 197.333Z" fill="#ADB2B1"/>
<path d="M303.663 198.742L307.973 198.742L307.973 192.926L303.663 192.926L303.663 198.742Z" fill="#8A9995"/>
<path d="M153.702 112.262V115.642H105.447V112.262H104.659V116.533H154.595V112.262H153.702Z" fill="#383D42"/>
<path d="M160.929 112.262H99.0337V113.336H160.929V112.262Z" fill="#00497F"/>
<path d="M159.588 111.554H101.268V113.336H159.588V111.554Z" fill="#00497F"/>
<path d="M167.71 170.133C169.089 170.133 170.207 167.928 170.207 165.208C170.207 162.487 169.089 160.282 167.71 160.282C166.331 160.282 165.213 162.487 165.213 165.208C165.213 167.928 166.331 170.133 167.71 170.133Z" fill="#383D42"/>
<path d="M167.788 110.583H160.928V143.201H167.788V110.583Z" fill="#00497F"/>
<path d="M167.446 141.445H160.928V205.632H167.446V141.445Z" fill="#00497F"/>
<path d="M169.497 204.218H159.51V206.707H169.497V204.218Z" fill="#00497F"/>
<path d="M160.929 164.763L155.173 166.387H137.011V167.068L150.889 169.583L160.929 170.343V164.763Z" fill="#A5A5A5"/>
<path d="M93.2002 170.135C94.5792 170.135 95.697 167.93 95.697 165.21C95.697 162.489 94.5792 160.284 93.2002 160.284C91.8212 160.284 90.7034 162.489 90.7034 165.21C90.7034 167.93 91.8212 170.135 93.2002 170.135Z" fill="#383D42"/>
<path d="M93.1254 143.215L99.9851 143.215L99.9851 110.598L93.1254 110.598L93.1254 143.215Z" fill="#00497F"/>
<path d="M93.4541 205.619L99.9722 205.619L99.9722 141.432L93.4541 141.432L93.4541 205.619Z" fill="#00497F"/>
<path d="M91.4118 206.683L101.399 206.683L101.399 204.194L91.4118 204.194L91.4118 206.683Z" fill="#00497F"/>
<path d="M99.9807 164.765L105.737 166.389H123.872V167.07L110.021 169.585L99.9807 170.345V164.765Z" fill="#A5A5A5"/>
<path d="M112.201 172.57H110.099C109.205 172.57 108.496 171.862 108.496 170.971V166.151H113.778V170.971C113.805 171.862 113.095 172.57 112.201 172.57Z" fill="black"/>
<path d="M131.992 155.671H108.18C108.18 155.671 108.128 154.545 108.837 153.078C109.547 151.637 110.94 150.353 111.833 149.2C112.727 148.021 113.542 145.349 114.724 143.122C115.907 140.921 118.062 138.118 118.062 138.118H131.992V155.671Z" fill="#FFE051"/>
<path d="M113.307 146.239H110.968C110.389 146.239 109.916 145.768 109.916 145.191C109.916 144.615 110.389 144.144 110.968 144.144H111.677C112.571 144.144 113.307 144.877 113.307 145.768V146.239Z" fill="#FFE051"/>
<path d="M131.993 155.67H107.708V163.478H131.993V155.67Z" fill="#E8BB3A"/>
<path d="M108.523 159.339C108.523 159.339 111.099 158.972 111.625 159.339C112.15 159.706 113.307 162.509 113.307 162.509H109.916L108.523 159.339Z" fill="#8A9995"/>
<path d="M109.601 154.23C110.021 153.444 115.041 153.208 115.909 153.81C116.776 154.413 117.853 156.011 117.643 156.404C117.433 156.745 108.365 156.587 109.601 154.23Z" fill="white"/>
<path d="M119.508 156.012C119.973 156.012 120.349 155.637 120.349 155.174C120.349 154.711 119.973 154.335 119.508 154.335C119.044 154.335 118.667 154.711 118.667 155.174C118.667 155.637 119.044 156.012 119.508 156.012Z" fill="white"/>
<path d="M131.993 166.963H108.234C107.708 166.963 107.287 166.544 107.287 166.02V163.479H132.019V166.963H131.993Z" fill="#606060"/>
<path d="M131.993 148.31C131.993 148.31 122.663 148.31 119.088 148.048C115.514 147.786 114.673 145.454 114.673 145.454L118.3 139.114H132.019V148.31H131.993Z" fill="#749DC1"/>
<path d="M131.992 162.508H120.953C120.428 162.508 120.034 162.037 120.112 161.539L120.664 157.714C120.769 157.033 121.348 156.535 122.031 156.535H132.018V162.508H131.992Z" fill="#303030"/>
<path d="M131.992 156.798H123.765V157.689H131.992V156.798Z" fill="#606060"/>
<path d="M131.992 158.371H123.765V159.261H131.992V158.371Z" fill="#606060"/>
<path d="M131.992 159.549H123.765V160.44H131.992V159.549Z" fill="#606060"/>
<path d="M131.992 161.147H123.765V162.038H131.992V161.147Z" fill="#606060"/>
<path d="M123.845 162.929H122.82L123.688 156.012H124.713L123.845 162.929Z" fill="#8A9995"/>
<path d="M132.02 165.233H127.893V166.333H132.02V165.233Z" fill="#303030"/>
<path d="M149.128 172.57H151.23C152.124 172.57 152.834 171.862 152.834 170.971V166.151H147.551V170.971C147.524 171.862 148.26 172.57 149.128 172.57Z" fill="black"/>
<path d="M129.337 155.671H153.149C153.149 155.671 153.202 154.545 152.492 153.078C151.782 151.637 150.389 150.353 149.496 149.2C148.602 148.021 147.787 145.349 146.605 143.122C145.422 140.921 143.267 138.118 143.267 138.118H129.337V155.671Z" fill="#FFE051"/>
<path d="M148.051 146.239H150.39C150.969 146.239 151.442 145.768 151.442 145.191C151.442 144.615 150.969 144.144 150.39 144.144H149.681C148.787 144.144 148.051 144.877 148.051 145.768V146.239Z" fill="#FFE051"/>
<path d="M129.359 163.48L153.645 163.48L153.645 155.673L129.359 155.673L129.359 163.48Z" fill="#E8BB3A"/>
<path d="M152.835 159.339C152.835 159.339 150.259 158.972 149.734 159.339C149.208 159.706 148.052 162.509 148.052 162.509H151.442L152.835 159.339Z" fill="#8A9995"/>
<path d="M151.757 154.23C151.336 153.444 146.316 153.208 145.449 153.81C144.581 154.413 143.504 156.011 143.714 156.404C143.924 156.745 152.992 156.587 151.757 154.23Z" fill="white"/>
<path d="M141.823 156.012C142.288 156.012 142.664 155.637 142.664 155.174C142.664 154.711 142.288 154.335 141.823 154.335C141.359 154.335 140.982 154.711 140.982 155.174C140.982 155.637 141.359 156.012 141.823 156.012Z" fill="white"/>
<path d="M129.338 166.963H153.097C153.623 166.963 154.044 166.544 154.044 166.02V163.479H129.312V166.963H129.338Z" fill="#606060"/>
<path d="M129.338 148.31C129.338 148.31 138.668 148.31 142.243 148.048C145.817 147.786 146.658 145.454 146.658 145.454L143.031 139.114H129.312V148.31H129.338Z" fill="#749DC1"/>
<path d="M129.338 162.508H140.377C140.902 162.508 141.297 162.037 141.218 161.539L140.666 157.714C140.561 157.033 139.982 156.535 139.299 156.535H129.312V162.508H129.338Z" fill="#303030"/>
<path d="M129.356 157.697L137.583 157.697L137.583 156.806L129.356 156.806L129.356 157.697Z" fill="#606060"/>
<path d="M129.356 159.275L137.583 159.275L137.583 158.385L129.356 158.385L129.356 159.275Z" fill="#606060"/>
<path d="M129.356 160.46L137.583 160.46L137.583 159.57L129.356 159.57L129.356 160.46Z" fill="#606060"/>
<path d="M129.356 162.014L137.583 162.014L137.583 161.123L129.356 161.123L129.356 162.014Z" fill="#606060"/>
<path d="M137.485 162.928H138.51L137.669 156.012H136.644L137.485 162.928Z" fill="#8A9995"/>
<path d="M129.341 166.321L133.467 166.321L133.467 165.22L129.341 165.22L129.341 166.321Z" fill="#303030"/>
<path d="M209.367 55.5928H102.319V81.4246H209.367V55.5928Z" fill="white"/>
<path d="M117.642 64.3436L115.198 67.3303C114.698 66.8063 114.252 66.4657 113.884 66.3085C113.516 66.1513 113.174 66.1251 112.911 66.2037C112.648 66.2823 112.412 66.4395 112.228 66.7015C112.044 66.9373 111.886 67.1993 111.781 67.4613C111.676 67.7232 111.571 68.0376 111.466 68.4568C111.466 68.483 111.492 68.5878 111.518 68.8236C111.571 69.0332 111.65 69.2952 111.807 69.5572C111.965 69.8191 112.175 70.0287 112.464 70.1597C112.753 70.2907 113.148 70.2645 113.621 70.1073C114.094 69.9501 114.725 69.531 115.434 68.876L118.168 71.784C118.036 72.046 117.8 72.3342 117.432 72.6224C117.09 72.9106 116.67 73.1464 116.196 73.3822C115.723 73.6179 115.198 73.8013 114.62 73.9585C114.041 74.1157 113.463 74.1943 112.885 74.2205C112.307 74.2467 111.702 74.1943 111.15 74.0371C110.598 73.8799 110.046 73.6179 109.573 73.2512C108.864 72.701 108.364 72.1246 108.023 71.4697C107.681 70.8147 107.497 70.1597 107.418 69.4786C107.339 68.7974 107.418 68.1162 107.576 67.4089C107.76 66.7277 107.996 66.0727 108.312 65.4702C108.627 64.8676 108.995 64.3174 109.416 63.8458C109.836 63.3743 110.283 62.9813 110.703 62.6931C111.071 62.4835 111.413 62.3263 111.755 62.2477C112.096 62.1691 112.464 62.0905 112.911 62.0381C113.358 61.9857 113.831 62.0381 114.357 62.1691C114.882 62.3001 115.408 62.5359 115.986 62.8765C116.538 63.1647 117.09 63.6887 117.642 64.3436Z" fill="#512176"/>
<path d="M123.582 61.5923L130.626 72.2813L126.237 73.9318L125.054 71.9931L122.111 72.0979L121.532 74.1938L117.327 72.8315L123.582 61.5923ZM122.873 69.871L124.529 69.5829L123.845 67.6966L122.873 69.871Z" fill="#512176"/>
<path d="M139.615 71.7303L137.46 74.1668L134.069 71.6779L134.017 74.062L130.626 73.7214L130.416 62.849C132.177 62.6394 133.885 62.456 135.515 62.325C136.382 62.2202 137.118 62.2988 137.696 62.5084C138.274 62.718 138.721 63.0586 139.01 63.4778C139.3 63.8969 139.483 64.3947 139.536 64.9449C139.589 65.4951 139.483 66.0714 139.3 66.674C139.116 67.2766 138.774 67.8267 138.327 68.4031C137.88 68.9533 137.328 69.4511 136.671 69.844L139.615 71.7303ZM133.833 65.9666L133.701 68.1935C134.043 68.1149 134.332 68.0101 134.569 67.8791C134.805 67.7481 135.015 67.5909 135.199 67.4338C135.357 67.2766 135.489 67.1194 135.594 66.9884C135.699 66.8574 135.725 66.7264 135.751 66.6478C135.751 66.6216 135.751 66.5692 135.778 66.4906C135.778 66.412 135.778 66.281 135.751 66.15C135.725 66.019 135.646 65.9142 135.515 65.8094C135.383 65.7308 135.199 65.6784 134.937 65.6784C134.648 65.7046 134.28 65.7832 133.833 65.9666Z" fill="#512176"/>
<path d="M149.943 66.7544C150.233 66.8854 150.522 67.0426 150.837 67.1998C151.126 67.357 151.415 67.5665 151.652 67.8023C151.888 68.0381 152.099 68.3263 152.256 68.6669C152.414 69.0075 152.519 69.4004 152.519 69.872C152.545 70.527 152.44 71.1034 152.204 71.6273C151.967 72.1251 151.625 72.5705 151.179 72.9111C150.732 73.2516 150.206 73.5398 149.602 73.7232C148.997 73.9066 148.314 74.0114 147.631 74.0376C147.315 74.0376 146.973 74.0376 146.632 73.9852C146.29 73.9328 145.948 73.8804 145.607 73.8018C145.265 73.7232 144.95 73.6184 144.634 73.5136C144.319 73.4088 144.03 73.2778 143.741 73.1469L144.792 70.1602C144.923 70.2126 145.081 70.2912 145.291 70.3698C145.475 70.4484 145.686 70.527 145.922 70.6056C146.159 70.6842 146.369 70.7366 146.632 70.789C146.868 70.8414 147.105 70.8676 147.341 70.8676C147.683 70.8414 147.972 70.789 148.209 70.6842C148.445 70.5794 148.55 70.4222 148.55 70.1602C148.55 70.003 148.472 69.872 148.314 69.7934C148.156 69.7148 147.972 69.6362 147.762 69.5576C147.631 69.5052 147.447 69.4528 147.21 69.4004C146.973 69.348 146.737 69.2433 146.474 69.1385C146.211 69.0337 145.948 68.9027 145.686 68.7455C145.423 68.5883 145.186 68.4049 144.95 68.1691C144.739 67.9595 144.555 67.6975 144.398 67.4093C144.24 67.1212 144.188 66.7806 144.161 66.3876C144.135 65.7326 144.266 65.1563 144.503 64.6585C144.739 64.1607 145.081 63.7153 145.502 63.3748C145.922 63.008 146.422 62.746 146.973 62.5626C147.525 62.3792 148.13 62.2744 148.761 62.2482C149.339 62.222 149.917 62.2482 150.495 62.353C151.074 62.4316 151.625 62.5888 152.125 62.7984L151.31 66.0208C150.942 65.8636 150.6 65.7326 150.285 65.6278C149.97 65.523 149.628 65.4445 149.207 65.3921C149.076 65.3659 148.918 65.3659 148.708 65.3659C148.524 65.3659 148.314 65.3921 148.13 65.4183C147.946 65.4444 147.762 65.523 147.631 65.6278C147.499 65.7326 147.42 65.8636 147.42 66.0208C147.42 66.0994 147.447 66.1518 147.525 66.2042C147.604 66.2566 147.683 66.2828 147.762 66.309C147.867 66.3352 147.972 66.3614 148.051 66.3614C148.13 66.3614 148.235 66.3876 148.314 66.3876C148.577 66.44 148.866 66.5186 149.181 66.5972C149.444 66.571 149.707 66.6496 149.943 66.7544Z" fill="#512176"/>
<path d="M152.782 62.9548L160.483 62.3784L160.063 65.889L156.567 66.0462L156.541 66.7012L159.09 66.5178L158.801 68.9543L156.462 69.1377L156.436 69.8974L160.431 69.5306L160.352 73.3818L152.888 73.7748L152.782 62.9548Z" fill="#512176"/>
<path d="M170.233 71.7303L168.078 74.1668L164.687 71.6779L164.635 74.062L161.244 73.7214L161.034 62.849C162.795 62.6394 164.503 62.456 166.133 62.325C167 62.2202 167.736 62.2988 168.314 62.5084C168.893 62.718 169.339 63.0586 169.629 63.4778C169.918 63.8969 170.102 64.3947 170.154 64.9449C170.207 65.4951 170.102 66.0714 169.918 66.674C169.734 67.2766 169.392 67.8267 168.945 68.4031C168.498 68.9533 167.946 69.4511 167.289 69.844L170.233 71.7303ZM164.451 65.9666L164.319 68.1935C164.661 68.1149 164.95 68.0101 165.187 67.8791C165.423 67.7481 165.634 67.5909 165.818 67.4338C165.975 67.2766 166.107 67.1194 166.212 66.9884C166.317 66.8574 166.343 66.7264 166.37 66.6478C166.37 66.6216 166.37 66.5692 166.396 66.4906C166.396 66.412 166.396 66.281 166.37 66.15C166.343 66.019 166.264 65.9142 166.133 65.8094C166.002 65.7308 165.818 65.6784 165.555 65.6784C165.266 65.7046 164.898 65.7832 164.451 65.9666Z" fill="#512176"/>
<path d="M173.23 62.0903L175.28 66.9895L177.672 62.1951L181.141 64.2124L174.991 74.7181L169.235 64.422L173.23 62.0903Z" fill="#512176"/>
<path d="M185.136 62.3003L184.557 73.5657L180.878 73.9849L181.009 62.7981L185.136 62.3003Z" fill="#512176"/>
<path d="M195.569 64.3436L193.124 67.3303C192.625 66.8063 192.178 66.4657 191.81 66.3085C191.442 66.1513 191.101 66.1251 190.838 66.2037C190.575 66.2823 190.338 66.4395 190.154 66.7015C189.97 66.9373 189.813 67.1993 189.708 67.4613C189.602 67.7232 189.497 68.0376 189.392 68.4568C189.392 68.483 189.418 68.5878 189.445 68.8236C189.497 69.0332 189.576 69.2952 189.734 69.5572C189.892 69.8191 190.102 70.0287 190.391 70.1597C190.68 70.2907 191.074 70.2645 191.547 70.1073C192.02 69.9501 192.651 69.531 193.361 68.876L196.094 71.784C195.963 72.046 195.726 72.3342 195.358 72.6224C195.017 72.9106 194.596 73.1464 194.123 73.3822C193.65 73.6179 193.124 73.8013 192.546 73.9585C191.968 74.1157 191.39 74.1943 190.811 74.2205C190.233 74.2467 189.629 74.1943 189.077 74.0371C188.525 73.8799 187.973 73.6179 187.5 73.2512C186.79 72.701 186.291 72.1246 185.949 71.4697C185.607 70.8147 185.424 70.1597 185.345 69.4786C185.266 68.7974 185.345 68.1162 185.502 67.4089C185.686 66.7277 185.923 66.0727 186.238 65.4702C186.554 64.8676 186.922 64.3174 187.342 63.8458C187.763 63.3743 188.209 62.9813 188.63 62.6931C188.998 62.4835 189.34 62.3263 189.681 62.2477C190.023 62.1691 190.391 62.0905 190.838 62.0381C191.284 61.9857 191.758 62.0381 192.283 62.1691C192.809 62.3001 193.335 62.5359 193.913 62.8765C194.465 63.1647 195.017 63.6887 195.569 64.3436Z" fill="#512176"/>
<path d="M196.49 62.9548L204.19 62.3784L203.77 65.889L200.274 66.0462L200.248 66.7012L202.797 66.5178L202.508 68.9543L200.169 69.1377L200.143 69.8974L204.138 69.5306L204.059 73.3818L196.595 73.7748L196.49 62.9548Z" fill="#512176"/>
<path d="M221.273 87.5282L200.116 85.6681C200.116 85.6681 209.604 71.7828 210.445 71.0493C211.286 70.3157 217.804 68.2198 218.33 67.8792C218.829 67.5387 218.961 66.9885 218.33 66.8051C217.673 66.6217 215.57 66.1763 215.57 66.1763C215.57 66.1763 218.303 63.0587 218.698 62.8753C219.092 62.6919 222.009 61.7226 222.43 61.382C222.85 61.0676 223.087 60.1768 222.535 60.0458C221.983 59.9411 218.251 60.203 218.251 60.203C218.251 60.203 215.964 58.0548 214.335 58.4215C212.705 58.7621 208.658 62.9277 206.923 65.1022C205.188 67.2767 190.996 83.0482 190.05 84.5154C189.104 86.0087 188.052 88.3928 190.549 91.196C193.02 93.9993 214.072 102.173 214.072 102.173L221.273 87.5282Z" fill="#DD866F"/>
<path d="M222.008 55.9328L214.334 54.1513C214.018 54.0727 213.677 54.2823 213.598 54.5967L210.05 69.7919C209.971 70.1063 210.181 70.4469 210.496 70.5255L218.171 72.307C218.486 72.3856 218.828 72.176 218.907 71.8616L222.455 56.6664C222.534 56.3258 222.35 56.0114 222.008 55.9328Z" fill="black"/>
<mask id="mask0_131_6799" style="mask-type:luminance" maskUnits="userSpaceOnUse" x="213" y="82" width="40" height="79">
<path d="M237.489 83.3381C237.489 83.3381 244.506 82.1854 249.5 89.4686C254.494 96.7518 251.655 109.222 251.997 122.688C252.339 136.155 251.13 160.1 251.13 160.1H216.542C216.542 160.1 217.409 130.679 215.096 118.785C212.784 106.891 212.6 90.9881 217.094 87.7133C221.588 84.4646 230.367 81.7924 237.489 83.3381Z" fill="white"/>
</mask>
<g mask="url(#mask0_131_6799)">
<path d="M237.489 83.3381C237.489 83.3381 244.506 82.1854 249.5 89.4686C254.494 96.7518 251.655 109.222 251.997 122.688C252.339 136.155 251.13 160.1 251.13 160.1H216.542C216.542 160.1 217.409 130.679 215.096 118.785C212.784 106.891 212.6 90.9881 217.094 87.7133C221.588 84.4646 230.367 81.7924 237.489 83.3381Z" fill="black"/>
</g>
<path d="M225.741 47.9694C225.741 47.9694 231.944 44.0658 238.909 48.4934C243.587 51.48 243.061 61.6451 242.404 65.5749C240.906 74.8492 232.706 75.6613 232.706 75.6613C232.706 75.6613 202.849 54.0213 225.741 47.9694Z" fill="#6B3425"/>
<path d="M228.58 82.4194C232.732 82.4194 237.647 82.8124 240.223 84.4629C229.079 90.9864 222.009 95.8593 222.009 95.8593C222.009 95.8593 216.306 88.7857 217.672 86.8994C219.67 84.1485 225.4 82.4194 228.58 82.4194Z" fill="#F69576"/>
<path d="M223.243 73.853L220.589 90.9607L231.338 89.1268C231.338 89.1268 237.541 87.6073 236.621 83.1797C235.701 78.7522 233.388 73.853 233.388 73.853H223.243Z" fill="#F69576"/>
<path d="M230.286 78.5164C230.286 78.5164 230.418 81.6602 228.315 83.0487C226.213 84.4373 221.587 84.4373 221.587 84.4373L223.243 73.853H230.076C230.05 73.853 230.549 76.5253 230.286 78.5164Z" fill="#DD866F"/>
<path d="M220.931 53.1041C220.931 53.1041 218.881 54.7808 217.987 58.5272C217.304 61.3829 217.461 64.4743 217.093 66.2034C216.726 67.9325 216.147 70.6834 216.647 73.0937C217.146 75.5039 219.275 78.7788 223.244 79.8791C227.212 80.9794 230.471 80.1935 232.653 77.4426C234.834 74.6918 237.568 69.7402 238.356 66.3344C239.145 62.9286 239.618 56.4313 235.938 53.5757C231.26 49.9603 225.688 49.9079 220.931 53.1041Z" fill="#F69576"/>
<path d="M228.132 72.387C228.132 72.387 227.764 74.7187 226.371 75.2165C224.978 75.7143 223.585 75.3737 222.954 74.6139C222.324 73.8542 221.982 72.3608 221.982 72.3608L228.132 72.387Z" fill="white"/>
<path d="M224.637 69.8451C224.19 69.7665 224.216 69.3473 224.216 69.1115C224.216 69.0853 224.216 69.0853 224.216 69.0591C224.19 69.0853 224.164 69.0853 224.164 69.1115C224.006 69.2163 223.743 69.4259 223.454 69.1377C223.349 69.0329 223.296 68.8495 223.296 68.6399C223.323 68.1946 223.612 67.5658 223.875 67.3562C223.927 67.3038 224.006 67.33 224.059 67.3824C224.111 67.4348 224.085 67.5134 224.032 67.5658C223.848 67.6968 223.585 68.247 223.559 68.6399C223.559 68.7709 223.585 68.8757 223.638 68.9281C223.743 69.0329 223.822 69.0067 224.006 68.8757C224.085 68.8233 224.19 68.7447 224.269 68.7447C224.321 68.7447 224.374 68.7447 224.427 68.7971C224.505 68.8757 224.505 68.9805 224.505 69.1377C224.505 69.4259 224.532 69.5831 224.716 69.6093C224.794 69.6355 224.847 69.6093 224.9 69.5831C224.978 69.5307 224.978 69.3473 224.978 69.2163C224.978 69.1115 224.978 69.0329 225.031 68.9805C225.057 68.9281 225.136 68.8757 225.215 68.8757C225.346 68.8757 225.478 68.9543 225.688 69.1639C225.714 69.1901 225.767 69.2425 225.846 69.2163C225.925 69.1901 226.03 69.0853 226.082 68.8757C226.135 68.5613 225.846 67.9064 225.714 67.6968C225.688 67.6444 225.688 67.5396 225.767 67.5134C225.82 67.4872 225.925 67.4872 225.951 67.5658C226.003 67.6444 226.45 68.4565 226.345 68.9281C226.293 69.2163 226.135 69.4259 225.925 69.4783C225.767 69.5307 225.609 69.4783 225.504 69.3473C225.399 69.2425 225.32 69.1901 225.294 69.1639C225.294 69.1901 225.294 69.2163 225.294 69.2425C225.294 69.3997 225.268 69.6617 225.11 69.8189C225.031 69.8713 224.952 69.8975 224.847 69.8975C224.689 69.8451 224.663 69.8451 224.637 69.8451Z" fill="#6B3425"/>
<path d="M244.427 63.8464C243.192 60.8073 234.256 63.5582 235.912 69.1647C237.62 74.876 246.241 68.3263 244.427 63.8464Z" fill="#F69576"/>
<path d="M237.593 69.8451C237.62 69.8451 237.646 69.8451 237.672 69.8189C237.725 69.7665 237.725 69.6879 237.672 69.6355C237.304 69.2426 237.225 67.9588 237.698 66.7275C238.014 65.8629 238.855 64.3434 240.773 64.1076C241.798 63.9766 242.534 64.16 242.955 64.6316C243.559 65.3128 243.27 66.4393 243.27 66.4655C243.244 66.5441 243.297 66.5965 243.375 66.6227C243.454 66.6489 243.507 66.5965 243.533 66.5179C243.559 66.4655 243.875 65.2342 243.165 64.4482C242.692 63.898 241.877 63.7147 240.773 63.8456C239.275 64.029 238.066 65.0508 237.462 66.6489C236.989 67.9064 237.015 69.295 237.488 69.8451C237.514 69.8189 237.567 69.8451 237.593 69.8451Z" fill="#6B3425"/>
<path d="M240.8 69.3473C240.852 69.3473 240.905 69.3211 240.931 69.2687C240.984 69.1639 241.982 66.7012 240.484 63.9504C240.458 63.898 240.379 63.8718 240.3 63.898C240.248 63.9242 240.221 64.0028 240.248 64.0814C241.667 66.7012 240.694 69.1377 240.668 69.1639C240.642 69.2425 240.668 69.3211 240.747 69.3473C240.773 69.3473 240.773 69.3473 240.8 69.3473Z" fill="#6B3425"/>
<path d="M229.051 67.2253C229.327 67.2253 229.55 66.7913 229.55 66.256C229.55 65.7206 229.327 65.2866 229.051 65.2866C228.775 65.2866 228.552 65.7206 228.552 66.256C228.552 66.7913 228.775 67.2253 229.051 67.2253Z" fill="#6B3425"/>
<path d="M232.625 63.2957C232.126 62.8504 231.075 62.274 230.023 62.143C228.841 62.012 228.184 62.5622 227.71 62.6932C227.237 62.8242 227.185 62.143 227.421 61.5404C227.684 60.9641 228.683 60.5187 230.286 60.5711C231.889 60.6235 232.783 61.4094 233.23 61.9072C233.65 62.4574 233.309 63.8983 232.625 63.2957Z" fill="#6B3425"/>
<path d="M221.509 66.9626C221.784 66.9626 222.008 66.5286 222.008 65.9933C222.008 65.4579 221.784 65.0239 221.509 65.0239C221.233 65.0239 221.009 65.4579 221.009 65.9933C221.009 66.5286 221.233 66.9626 221.509 66.9626Z" fill="#6B3425"/>
<path d="M223.322 63.06C222.928 62.5885 222.139 61.9597 221.351 61.8287C220.457 61.6977 219.958 62.2741 219.59 62.4313C219.222 62.5623 219.196 61.8287 219.38 61.2261C219.564 60.5974 220.326 60.152 221.561 60.2044C222.796 60.283 223.453 61.0951 223.795 61.6453C224.11 62.1693 223.848 63.715 223.322 63.06Z" fill="#6B3425"/>
<path d="M251.131 160.099C251.131 160.099 253.103 174.456 253.287 185.591C253.471 196.725 252.735 204.794 253.287 206.052C253.838 207.309 255.81 218.26 256.703 227.43C257.597 236.599 259.594 258.659 259.594 258.659H244.324C244.324 258.659 242.3 225.989 241.039 223.814C239.777 221.64 233.286 190.228 233.286 190.228C233.286 190.228 229.133 210.505 229.317 212.313C229.501 214.121 230.027 225.963 229.317 232.591C228.607 239.219 225.007 258.632 225.007 258.632H209.92L213.127 222.714C213.127 222.714 213.653 213.387 214.204 202.069C214.756 190.752 216.544 160.047 216.544 160.047H251.131V160.099Z" fill="#FF6D00"/>
<path d="M197.436 259.183C195.517 259.943 195.885 264.842 195.885 264.842L223.692 264.449C223.824 263.244 223.692 257.873 223.692 257.873H210.84C210.84 257.873 202.535 257.166 197.436 259.183Z" fill="#3D3B38"/>
<path d="M235.176 260.964C233.626 262.3 234.02 265.679 234.02 265.679L258.909 266.02L257.99 258.658H247.687C247.713 258.658 237.148 259.261 235.176 260.964Z" fill="#3D3B38"/>
<path d="M247.739 87.7136C247.739 87.7136 245.032 85.5391 241.483 89.9928C237.935 94.4466 235.728 118.785 235.728 118.785H231.943C231.943 118.785 232.942 98.4812 235.622 93.1891C238.303 87.8969 242.903 84.0981 242.903 84.0981L247.739 87.7136Z" fill="#FF6D00"/>
<path d="M233.731 114.881H214.439L216.542 160.074C216.542 160.074 239.933 160.257 240.196 160.153C240.459 160.1 233.731 114.881 233.731 114.881Z" fill="#FF6D00"/>
<path d="M217.673 86.9019C217.673 86.9019 214.676 90.884 214.44 96.2024C214.203 101.547 215.623 116.061 215.623 116.061H214.414C214.414 116.061 209.525 91.4342 217.673 86.9019Z" fill="#FF6D00"/>
<path d="M210.996 63.2183C210.996 63.2183 214.886 64.371 214.623 65.026C214.36 65.6809 209.708 66.2573 209.708 66.2573L210.996 63.2183Z" fill="#DD866F"/>
<path d="M221.011 52.0042C221.642 52.6592 227.109 53.8643 229.553 54.5979C231.997 55.3314 233.285 58.3967 234.52 58.3967C235.756 58.3967 240.224 57.1129 240.224 57.1129L237.832 51.6898L231.551 49.6987L224.297 50.4847L221.011 52.0042Z" fill="#6B3425"/>
<path d="M189.209 87.7134C189.209 87.7134 190.917 94.394 191.312 95.9659C191.706 97.5379 210.498 133.168 211.286 134.478C212.075 135.788 216.674 140.635 216.674 140.635L213.783 143.909L208.001 139.587L186.055 96.6209L184.872 89.2853L189.209 87.7134Z" fill="#383D42"/>
<path d="M195.386 101.047L188.001 105.108C186.923 105.711 186.502 107.047 187.028 108.147L197.226 128.897C197.804 130.076 199.25 130.547 200.406 129.918L208.002 125.831C209.105 125.229 209.526 123.866 208.974 122.766L198.566 102.043C197.988 100.864 196.542 100.419 195.386 101.047Z" fill="#263644"/>
<path d="M286.086 212.393L293.418 194.394C294.549 194.237 295.574 193.503 296.047 192.377C296.572 191.093 296.204 189.652 295.258 188.762L293.944 191.984L292.551 191.827L291.237 190.884L292.446 187.897C291.368 188.08 290.396 188.814 289.949 189.888C289.502 190.988 289.686 192.22 290.37 193.11L282.905 211.371C282.275 211.633 281.723 212.131 281.46 212.812C281.092 213.729 281.276 214.751 281.88 215.484L282.958 212.864L284.193 213.126L285.271 213.807L284.22 216.375C285.113 216.244 285.902 215.668 286.27 214.777C286.664 213.991 286.532 213.1 286.086 212.393Z" fill="#3D3B38"/>
<path d="M237.305 117.344L237.226 132.749C237.226 132.749 218.776 132.959 217.593 132.67C216.411 132.382 210.444 127.666 209.814 127.405C209.183 127.143 208.605 127.405 208.841 128.112C209.078 128.845 209.998 131.099 209.998 131.099C209.998 131.099 205.477 130.601 205.056 130.339C204.636 130.077 201.929 128.007 201.377 127.824C200.825 127.64 199.879 128.007 200.115 128.583C200.352 129.16 202.928 132.461 202.928 132.461C202.928 132.461 202.402 135.971 203.742 137.281C205.083 138.565 211.338 139.613 214.387 139.823C217.436 140.032 240.512 142.966 242.456 142.862C244.401 142.757 247.187 142.181 248.186 138.067C249.159 133.954 249.5 118.13 249.5 118.13L237.305 117.344Z" fill="#F69576"/>
<path d="M188.578 252.949H142.767C139.639 252.949 137.09 250.408 137.09 247.29V239.037C137.09 235.92 139.639 233.378 142.767 233.378H188.578C191.705 233.378 194.255 235.92 194.255 239.037V247.29C194.255 250.408 191.731 252.949 188.578 252.949Z" fill="#3D3D3D"/>
<mask id="mask1_131_6799" style="mask-type:luminance" maskUnits="userSpaceOnUse" x="137" y="233" width="58" height="20">
<path d="M188.578 252.949H142.767C139.639 252.949 137.09 250.408 137.09 247.29V239.037C137.09 235.92 139.639 233.378 142.767 233.378H188.578C191.705 233.378 194.255 235.92 194.255 239.037V247.29C194.255 250.408 191.731 252.949 188.578 252.949Z" fill="white"/>
</mask>
<g mask="url(#mask1_131_6799)">
<path d="M142.82 239.273L138.509 236.837L138.299 232.357H132.701V235.894L138.036 239.273H142.82Z" fill="black"/>
<path d="M140.481 245.325L144.213 242.993L140.665 240.635H135.619L138.878 242.993L135.198 245.325H140.481Z" fill="black"/>
<path d="M138.036 246.845L132.701 250.225V253.762H138.299L138.509 249.255L142.82 246.845H138.036Z" fill="black"/>
<path d="M150.442 239.273L146.131 236.837L145.895 232.357H140.297V235.894L145.632 239.273H150.442Z" fill="black"/>
<path d="M151.808 242.993L148.26 240.635H143.213L146.472 242.993L142.819 245.325H148.102L151.808 242.993Z" fill="black"/>
<path d="M145.632 246.845L140.297 250.225V253.762H145.895L146.131 249.255L150.442 246.845H145.632Z" fill="black"/>
<path d="M158.746 239.273L154.436 236.837L154.199 232.357H148.601V235.894L153.937 239.273H158.746Z" fill="black"/>
<path d="M160.113 242.993L156.564 240.635H151.518L154.777 242.993L151.124 245.325H156.407L160.113 242.993Z" fill="black"/>
<path d="M153.937 246.845L148.601 250.224V253.761H154.199L154.436 249.255L158.746 246.845H153.937Z" fill="black"/>
<path d="M166.343 239.273L162.059 236.837L161.823 232.357H156.225V235.894L161.56 239.273H166.343Z" fill="black"/>
<path d="M167.736 242.993L164.188 240.635H159.142L162.401 242.993L158.747 245.325H164.004L167.736 242.993Z" fill="black"/>
<path d="M161.56 246.845L156.225 250.224V253.761H161.823L162.059 249.255L166.343 246.845H161.56Z" fill="black"/>
<path d="M173.964 239.273L169.654 236.837L169.444 232.357H163.846V235.894L169.181 239.273H173.964Z" fill="black"/>
<path d="M175.358 242.993L171.81 240.635H166.763L170.022 242.993L166.343 245.325H171.626L175.358 242.993Z" fill="black"/>
<path d="M169.181 246.845L163.846 250.225V253.762H169.444L169.654 249.255L173.964 246.845H169.181Z" fill="black"/>
<path d="M181.586 239.273L177.276 236.837L177.04 232.357H171.441V235.894L176.777 239.273H181.586Z" fill="black"/>
<path d="M182.952 242.993L179.404 240.635H174.358L177.617 242.993L173.964 245.325H179.247L182.952 242.993Z" fill="black"/>
<path d="M176.777 246.845L171.441 250.225V253.762H177.04L177.276 249.255L181.586 246.845H176.777Z" fill="black"/>
<path d="M189.891 239.273L185.581 236.837L185.344 232.357H179.746V235.894L185.081 239.273H189.891Z" fill="black"/>
<path d="M191.257 242.993L187.709 240.635H182.663L185.922 242.993L182.269 245.325H187.552L191.257 242.993Z" fill="black"/>
<path d="M185.081 246.845L179.746 250.224V253.761H185.344L185.581 249.255L189.891 246.845H185.081Z" fill="black"/>
<path d="M197.488 239.273L193.204 236.837L192.968 232.357H187.369V235.894L192.705 239.273H197.488Z" fill="black"/>
<path d="M198.88 242.993L195.332 240.635H190.286L193.545 242.993L189.892 245.325H195.148L198.88 242.993Z" fill="black"/>
<path d="M187.369 250.224V253.761H192.968L193.204 249.255L197.488 246.845H192.705L187.369 250.224Z" fill="black"/>
</g>
</svg>
