<svg width="375" height="307" viewBox="0 0 375 307" fill="none" xmlns="http://www.w3.org/2000/svg">
<path d="M170.447 54.185C188.585 57.6222 222.761 -12.5388 260.586 2.94171C298.41 18.4223 270.613 68.3011 284.105 79.4786C297.597 90.6561 334.555 56.2578 350.094 92.3878C365.634 128.518 342.01 167.219 341.668 173.228C341.327 179.236 384.27 211.536 372.353 256.009C360.436 300.483 202.182 304.786 145.695 306.492C89.2074 308.197 13.6895 308.066 2.56 261.703C-8.5695 215.34 41.9857 174.96 46.658 161.998C51.3303 149.036 9.04346 103.933 62.0661 48.4913C103.093 5.59177 152.31 50.7478 170.447 54.185Z" fill="#417A8C"/>
<path d="M2.61273 261.674C13.7422 308.037 89.2863 308.194 145.748 306.463C202.209 304.731 360.463 300.454 372.406 255.98C380.517 225.728 363.245 201.09 351.46 186.554H28.1003C13.0335 205.655 -4.42195 232.471 2.61273 261.674Z" fill="#939393"/>
<path d="M13.4771 207.598C4.23756 223.472 -2.14091 242.049 2.58388 261.675C13.7134 308.038 89.2575 308.195 145.719 306.464C202.18 304.732 360.434 300.455 372.377 255.981C377.365 237.378 372.745 220.901 365.736 207.598H13.4771Z" fill="#B7B7B7"/>
<path d="M301.036 151.162C301.036 151.162 311.903 146.57 316.995 156.252C322.087 165.934 313.373 172.1 309.015 172.389C304.658 172.677 300.143 171.208 297.02 172.494C293.896 173.753 287.911 179.63 281.06 179.342C274.209 179.053 267.805 173.701 266.387 162.786C264.025 144.996 279.118 147.043 279.118 147.043C279.118 147.043 274.708 132.664 283.239 127.862C291.744 123.061 301.246 127.364 304.081 134.422C306.889 141.454 301.036 151.162 301.036 151.162Z" fill="white"/>
<path d="M293.004 139.408C293.004 139.408 293.398 148.801 291.823 151.53C290.248 154.259 287.807 156.804 288.017 157.408C288.201 157.985 296.627 174.358 299.068 180.209C301.509 186.06 301.036 187.923 300.433 189.208C299.855 190.468 300.039 200.15 300.039 200.15H293.687C293.687 200.15 293.766 193.223 294.448 190.363C295.157 187.529 296.023 187.529 295.734 186.165C295.445 184.8 284.473 159.061 285.445 156.699C286.416 154.338 289.644 153.682 290.537 150.454C291.429 147.227 293.004 139.408 293.004 139.408Z" fill="#6B3425"/>
<path d="M304.839 160.164C304.839 160.164 299.248 165.359 297.883 167.589C296.518 169.846 294.418 173.939 294.418 173.939L296.413 176.878C296.413 176.878 298.435 169.636 299.642 167.983C300.849 166.33 304.839 160.164 304.839 160.164Z" fill="#6B3425"/>
<path d="M271.845 159.481C271.845 159.481 277.62 162.997 281.426 163.889C285.232 164.781 289.747 165.463 289.747 165.463L290.928 168.533C290.954 168.533 272.528 164.073 271.845 159.481Z" fill="#6B3425"/>
<path d="M70.7235 195.605H66.2612V198.178H70.7235V195.605Z" fill="#6B3425"/>
<path d="M75.0811 189.807H80.7508L79.0709 182.697L75.0549 181.175H78.7034L78.2835 179.338L71.8262 178.839L77.8897 177.606L77.0235 173.959L71.8525 172.359C71.8525 172.359 74.6874 172.201 76.6035 172.096L74.0049 161.024L69.7788 160.656L73.8212 160.21L68.4926 137.514L65.3428 150.922H67.2852L65.0541 152.103L64.0566 156.353H67.6789L63.8466 157.272L63.5054 158.767H65.5265L63.3216 159.476L61.2217 168.397L66.2352 169.446L60.723 170.574L59.0431 177.764H64.2403L58.5181 179.968L56.7857 187.393C59.5418 187.787 63.5316 188.364 63.5316 188.364L56.3132 189.361L54.8433 195.606H82.1158L81.3021 192.142L75.0811 189.807Z" fill="white"/>
<path d="M207.008 68.0123C207.008 68.0123 225.277 96.9006 228.139 99.1833C224.201 98.9997 217.639 96.7957 217.639 96.7957L237.483 121.801H225.907L247.379 152.027H232.26C232.26 152.027 246.985 178.921 252.34 183.88L158.605 185.297C161.545 182.542 176.56 163.572 176.56 163.572H160.023L181.048 124.871C181.048 124.871 170.942 124.529 169.814 123.427C175.378 120.777 187.663 97.7402 187.663 97.7402L178.213 99.9705L201.811 67.9861H207.008V68.0123Z" fill="#4E5E0A"/>
<path d="M231.282 129.383L172.695 140.193L160.017 163.571H168.547C173.22 160.187 177.288 157.484 178.181 157.668C180.543 158.14 182.433 162.863 184.323 162.863C186.213 162.863 189.993 156.015 193.064 156.251C196.135 156.487 199.915 161.682 201.805 161.918C203.695 162.154 207.947 154.362 210.782 154.362C213.617 154.362 220.468 161.682 222.83 161.446C225.192 161.21 226.426 155.542 229.681 154.362C230.6 154.047 232.227 154.467 234.091 155.28C232.962 153.26 232.253 152 232.253 152H247.373L231.282 129.383Z" fill="#5F750E"/>
<path d="M186.321 100.153C188.316 99.1295 190.022 98.4473 190.941 98.4473C194.248 98.4473 198.501 102.252 200.023 101.885C201.545 101.517 203.619 98.4473 206.244 98.4473C208.869 98.4473 212.99 101.045 214.119 100.809C214.854 100.651 216.061 98.526 219.237 98.8671L217.583 96.7943C217.583 96.7943 224.172 98.9983 228.083 99.182C225.222 96.873 206.953 68.011 206.953 68.011H201.755L178.158 99.9954L187.607 97.7651C187.66 97.7389 187.161 98.6572 186.321 100.153Z" fill="#5F750E"/>
<path d="M238.476 162.992L168.497 173.619C164.428 178.63 160.045 183.93 158.575 185.295L252.309 183.878C249.291 181.044 243.175 171.047 238.476 162.992Z" fill="#5F750E"/>
<path d="M180.074 126.654C184.589 126.55 184.825 130.538 186.689 130.774C188.579 131.01 192.122 126.523 196.375 126.628C200.627 126.759 202.989 130.774 205.457 130.984C207.924 131.22 210.654 125.08 214.145 125.08C217.636 125.08 220.235 128.386 221.652 128.15C223.07 127.914 224.697 124.083 227.296 123.742L225.878 121.774H237.454L221.994 102.305L182.647 106.556C178.604 113.378 173.04 121.879 169.785 123.453C170.94 124.555 181.019 124.897 181.019 124.897L180.074 126.654Z" fill="#5F750E"/>
<path d="M211.703 66.2808L204.327 60.7708L196.531 65.2051L200.495 56.7039L194.484 52.9781L202.201 52.5582L204.327 45.6313L207.031 52.6894L214.144 52.1122L208.317 57.3336L211.703 66.2808Z" fill="#FFE051"/>
<path d="M205.484 59.5371L206.271 68.0121H201.809L202.728 59.5371H205.484Z" fill="#FFE051"/>
<path d="M210.705 184.51L212.385 200.069H202.725L204.064 184.51H210.705Z" fill="#6B3425"/>
<path d="M198.162 89.7119C200.177 89.7119 201.811 88.0791 201.811 86.0648C201.811 84.0506 200.177 82.4177 198.162 82.4177C196.147 82.4177 194.514 84.0506 194.514 86.0648C194.514 88.0791 196.147 89.7119 198.162 89.7119Z" fill="#FFE051"/>
<path d="M217.083 94.4091C218.707 94.4091 220.023 93.0934 220.023 91.4704C220.023 89.8474 218.707 88.5317 217.083 88.5317C215.459 88.5317 214.143 89.8474 214.143 91.4704C214.143 93.0934 215.459 94.4091 217.083 94.4091Z" fill="white"/>
<path d="M188.135 122.771C190.223 122.771 191.915 121.08 191.915 118.993C191.915 116.906 190.223 115.215 188.135 115.215C186.048 115.215 184.355 116.906 184.355 118.993C184.355 121.08 186.048 122.771 188.135 122.771Z" fill="white"/>
<path d="M201.233 113.535C202.929 113.535 204.304 112.161 204.304 110.466C204.304 108.77 202.929 107.396 201.233 107.396C199.537 107.396 198.162 108.77 198.162 110.466C198.162 112.161 199.537 113.535 201.233 113.535Z" fill="#512176"/>
<path d="M219.946 120.279C222.266 120.279 224.146 118.4 224.146 116.081C224.146 113.763 222.266 111.883 219.946 111.883C217.627 111.883 215.747 113.763 215.747 116.081C215.747 118.4 217.627 120.279 219.946 120.279Z" fill="#FFE051"/>
<path d="M181.994 148.014C184.081 148.014 185.774 146.323 185.774 144.236C185.774 142.149 184.081 140.458 181.994 140.458C179.906 140.458 178.214 142.149 178.214 144.236C178.214 146.323 179.906 148.014 181.994 148.014Z" fill="#512176"/>
<path d="M208.214 145.258C210.519 145.258 212.387 143.39 212.387 141.086C212.387 138.782 210.519 136.914 208.214 136.914C205.909 136.914 204.04 138.782 204.04 141.086C204.04 143.39 205.909 145.258 208.214 145.258Z" fill="white"/>
<path d="M202.069 156.802C204.244 156.802 206.006 155.04 206.006 152.866C206.006 150.692 204.244 148.93 202.069 148.93C199.895 148.93 198.132 150.692 198.132 152.866C198.132 155.04 199.895 156.802 202.069 156.802Z" fill="#FFE051"/>
<path d="M224.984 145.231C226.826 145.231 228.318 143.739 228.318 141.898C228.318 140.058 226.826 138.566 224.984 138.566C223.143 138.566 221.651 140.058 221.651 141.898C221.651 143.739 223.143 145.231 224.984 145.231Z" fill="#512176"/>
<path d="M181.285 174.907C182.981 174.907 184.356 173.533 184.356 171.837C184.356 170.142 182.981 168.768 181.285 168.768C179.589 168.768 178.214 170.142 178.214 171.837C178.214 173.533 179.589 174.907 181.285 174.907Z" fill="#FFE051"/>
<path d="M208.214 181.126C210.519 181.126 212.387 179.258 212.387 176.954C212.387 174.65 210.519 172.782 208.214 172.782C205.909 172.782 204.04 174.65 204.04 176.954C204.04 179.258 205.909 181.126 208.214 181.126Z" fill="#512176"/>
<path d="M232.573 175.51C234.429 175.51 235.933 174.006 235.933 172.151C235.933 170.297 234.429 168.793 232.573 168.793C230.718 168.793 229.213 170.297 229.213 172.151C229.213 174.006 230.718 175.51 232.573 175.51Z" fill="white"/>
<path d="M143.151 79.9495C159.808 79.9495 173.311 66.4519 173.311 49.8018C173.311 33.1516 159.808 19.6541 143.151 19.6541C126.494 19.6541 112.991 33.1516 112.991 49.8018C112.991 66.4519 126.494 79.9495 143.151 79.9495Z" fill="black"/>
<path d="M143.156 75.5134C157.363 75.5134 168.88 64.001 168.88 49.7999C168.88 35.5987 157.363 24.0864 143.156 24.0864C128.949 24.0864 117.432 35.5987 117.432 49.7999C117.432 64.001 128.949 75.5134 143.156 75.5134Z" fill="white"/>
<path d="M182.157 27.946H178.823V207.311H182.157V27.946Z" fill="black"/>
<path d="M180.476 48.3582H171.341V52.6612H180.476V48.3582Z" fill="black"/>
<path d="M145.25 50.2723C145.591 51.1906 144.961 52.2139 143.911 52.5288L123.752 58.2487L142.756 49.4327C143.754 48.9604 144.935 49.354 145.25 50.2723Z" fill="black"/>
<path d="M143.834 52.6084C142.863 52.7133 142.023 52.1098 141.997 51.2702L141.655 35.2649L145.278 50.8504C145.514 51.69 144.831 52.5034 143.834 52.6084Z" fill="black"/>
<path d="M140.765 32.1956C140.765 32.3005 140.738 32.3792 140.66 32.4579C140.581 32.5367 140.528 32.5891 140.423 32.5629C140.345 32.5629 140.187 32.4842 139.925 32.3005C139.662 32.1168 139.531 32.0119 139.531 31.9332C139.531 31.9069 139.531 31.8545 139.557 31.8282C139.583 31.802 139.583 31.7495 139.583 31.7233V29.0732C139.583 28.9683 139.478 28.9158 139.295 28.8633C139.085 28.8108 138.953 28.7321 138.927 28.6534C138.901 28.6272 138.901 28.5747 138.901 28.5222C138.901 28.4173 138.953 28.3123 139.032 28.2073C139.163 28.0499 139.242 27.945 139.268 27.8662L139.426 27.3677C139.452 27.2628 139.505 27.2103 139.557 27.1578C139.61 27.1053 139.688 27.0791 139.793 27.0791C139.977 27.0791 140.161 27.1316 140.345 27.2365C140.555 27.3677 140.66 27.4989 140.66 27.6563V31.8282C140.66 31.8545 140.66 31.8807 140.686 31.9069C140.712 31.9332 140.712 31.9594 140.738 31.9856C140.765 32.0119 140.765 32.0381 140.791 32.0644C140.765 32.1431 140.765 32.1693 140.765 32.1956Z" fill="black"/>
<path d="M145.802 31.6965C145.802 31.8277 145.75 31.9064 145.566 31.9589C145.513 31.9589 145.435 31.9589 145.33 31.9589C145.304 31.9589 145.225 31.9851 145.094 32.0114C144.962 32.0376 144.805 32.0901 144.621 32.1426C144.385 32.2213 144.201 32.2738 144.044 32.3262C143.886 32.3787 143.729 32.4312 143.624 32.4837C143.571 32.5099 143.519 32.5624 143.466 32.5886C143.414 32.6411 143.387 32.6673 143.387 32.6673C143.309 32.6673 143.125 32.5624 142.836 32.3525C142.784 32.3262 142.757 32.3 142.705 32.2738C142.652 32.2475 142.626 32.2213 142.574 32.1951C142.521 32.1688 142.495 32.1426 142.469 32.0901C142.442 32.0639 142.442 32.0114 142.442 31.9851C142.442 31.9589 142.626 31.6965 142.994 31.1718C143.23 30.8569 143.414 30.5683 143.597 30.3059C143.781 30.0435 143.912 29.8074 144.044 29.5975C144.227 29.2564 144.385 28.9678 144.49 28.6791C144.595 28.4167 144.647 28.1806 144.674 27.9707C144.359 28.1019 144.017 28.4167 143.702 28.889C143.676 28.9153 143.65 28.9415 143.65 28.994C143.65 29.0465 143.624 29.0989 143.624 29.0989C143.571 29.1514 143.519 29.1777 143.44 29.1777C143.309 29.1777 143.125 29.0989 142.941 28.9678L142.679 28.8366C142.574 28.7841 142.521 28.7316 142.521 28.6791C142.521 28.5742 142.626 28.3905 142.836 28.1281C142.941 27.9707 143.072 27.8395 143.204 27.7346C143.335 27.6034 143.466 27.4984 143.624 27.3935C143.965 27.1311 144.254 27.0261 144.542 27.0261C144.647 27.0261 144.726 27.0524 144.831 27.1311C144.91 27.2098 145.015 27.2623 145.094 27.3147C145.435 27.5509 145.645 27.787 145.75 27.9707C145.776 27.9969 145.776 28.0757 145.776 28.1281C145.776 28.4168 145.618 28.889 145.304 29.5712C145.146 29.8861 145.015 30.1747 144.857 30.4371C144.7 30.6995 144.542 30.9619 144.359 31.198L144.91 31.0143C144.91 31.0143 144.936 30.9881 144.962 30.9881C144.989 30.9881 145.015 30.9619 145.041 30.9356C145.094 30.9094 145.12 30.8831 145.172 30.9094C145.277 30.9094 145.408 31.0406 145.592 31.2767C145.697 31.4866 145.802 31.6178 145.802 31.6965Z" fill="black"/>
<path d="M154.154 35.1353C154.154 35.2402 154.127 35.3189 154.049 35.3976C153.97 35.4763 153.917 35.5288 153.812 35.5026C153.734 35.5026 153.576 35.4239 153.314 35.2402C153.051 35.0565 152.92 34.9516 152.92 34.8729C152.92 34.8466 152.92 34.7942 152.946 34.7679C152.973 34.7417 152.973 34.6892 152.973 34.663V32.0129C152.973 31.908 152.868 31.8555 152.684 31.803C152.474 31.7505 152.343 31.6718 152.316 31.5931C152.29 31.5669 152.29 31.5144 152.29 31.4619C152.29 31.3569 152.343 31.252 152.421 31.147C152.553 30.9896 152.631 30.8847 152.658 30.8059L152.815 30.3074C152.841 30.2025 152.894 30.15 152.946 30.0975C152.999 30.045 153.078 30.0188 153.182 30.0188C153.366 30.0188 153.55 30.0713 153.734 30.1762C153.944 30.3074 154.049 30.4386 154.049 30.596V34.7679C154.049 34.7942 154.049 34.8204 154.075 34.8466C154.101 34.8729 154.101 34.8991 154.127 34.9253C154.154 34.9516 154.154 34.9778 154.18 35.0041C154.154 35.0828 154.154 35.109 154.154 35.1353Z" fill="black"/>
<path d="M162.392 41.5117C162.392 41.6429 162.34 41.7216 162.156 41.7741C162.103 41.7741 162.025 41.7741 161.92 41.7741C161.893 41.7741 161.815 41.8003 161.683 41.8266C161.552 41.8528 161.395 41.9053 161.211 41.9578C160.975 42.0365 160.791 42.089 160.633 42.1414C160.476 42.1939 160.318 42.2464 160.213 42.2989C160.161 42.3251 160.108 42.3776 160.056 42.4038C160.003 42.4563 159.977 42.4825 159.977 42.4825C159.898 42.4825 159.715 42.3776 159.426 42.1677C159.373 42.1414 159.347 42.1152 159.295 42.089C159.242 42.0627 159.216 42.0365 159.163 42.0102C159.111 41.984 159.085 41.9578 159.058 41.9053C159.032 41.879 159.032 41.8266 159.032 41.8003C159.032 41.7741 159.216 41.5117 159.583 40.9869C159.82 40.6721 160.003 40.3835 160.187 40.1211C160.371 39.8587 160.502 39.6226 160.633 39.4127C160.817 39.0716 160.975 38.7829 161.08 38.4943C161.185 38.2319 161.237 37.9958 161.263 37.7859C160.948 37.9171 160.607 38.2319 160.292 38.7042C160.266 38.7305 160.24 38.7567 160.24 38.8092C160.24 38.8617 160.213 38.9141 160.213 38.9141C160.161 38.9666 160.108 38.9928 160.03 38.9928C159.898 38.9928 159.715 38.9141 159.531 38.7829L159.268 38.6517C159.163 38.5993 159.111 38.5468 159.111 38.4943C159.111 38.3894 159.216 38.2057 159.426 37.9433C159.531 37.7859 159.662 37.6547 159.793 37.5497C159.925 37.4185 160.056 37.3136 160.213 37.2086C160.555 36.9463 160.843 36.8413 161.132 36.8413C161.237 36.8413 161.316 36.8675 161.421 36.9463C161.5 37.025 161.605 37.0775 161.683 37.1299C162.025 37.3661 162.235 37.6022 162.34 37.7859C162.366 37.8121 162.366 37.8908 162.366 37.9433C162.366 38.2319 162.208 38.7042 161.893 39.3864C161.736 39.7013 161.605 39.9899 161.447 40.2523C161.29 40.5147 161.132 40.777 160.948 41.0132L161.5 40.8295C161.5 40.8295 161.526 40.8033 161.552 40.8033C161.578 40.8033 161.605 40.777 161.631 40.7508C161.683 40.7246 161.71 40.6983 161.762 40.7246C161.867 40.7246 161.998 40.8558 162.182 41.0919C162.287 41.2756 162.392 41.433 162.392 41.5117Z" fill="black"/>
<path d="M165.04 48.3078C165.014 48.5964 164.804 48.9637 164.462 49.3573C164.882 49.7246 165.092 50.1182 165.092 50.5905C165.092 51.0628 164.882 51.5088 164.462 51.9549C164.279 52.1386 164.095 52.296 163.911 52.4009C163.727 52.5059 163.57 52.5584 163.386 52.5584C163.255 52.5584 162.992 52.4009 162.572 52.0861C162.179 51.7712 161.969 51.5613 161.969 51.4564C161.969 51.3514 162.021 51.2727 162.1 51.194C162.205 51.1153 162.284 51.0628 162.389 51.089C162.441 51.089 162.546 51.1677 162.677 51.3252C162.809 51.4826 162.94 51.5613 163.045 51.5876C163.202 51.6138 163.439 51.4564 163.754 51.0628C164.042 50.6955 164.174 50.4331 164.174 50.2494C164.174 50.1707 164.121 50.1445 164.016 50.1445C163.937 50.1445 163.859 50.1707 163.78 50.2494C163.701 50.3019 163.649 50.3544 163.57 50.3806C163.517 50.4331 163.439 50.4593 163.386 50.4331C163.307 50.4331 163.202 50.3544 163.045 50.2232C162.966 50.1707 162.887 50.092 162.835 50.0395C162.782 49.987 162.704 49.9083 162.677 49.8296C162.651 49.8034 162.651 49.7509 162.651 49.7246C162.651 49.6197 162.704 49.5147 162.809 49.4623C162.966 49.3835 163.15 49.2524 163.386 49.0162C163.701 48.6751 163.911 48.3078 163.99 47.9404C163.832 47.9667 163.649 48.1241 163.439 48.4127C163.229 48.6751 163.097 48.8325 163.045 48.8588C162.966 48.885 162.809 48.8325 162.572 48.7013C162.362 48.5702 162.205 48.439 162.126 48.3603C162.126 48.334 162.1 48.334 162.1 48.3078C162.1 48.2291 162.152 48.1503 162.257 48.0192C162.599 47.6256 162.861 47.3632 162.966 47.2582C163.229 47.0221 163.491 46.9172 163.754 46.9434C164.042 46.9696 164.305 47.1271 164.594 47.4419C164.961 47.7305 165.092 48.0192 165.04 48.3078Z" fill="black"/>
<path d="M163.257 59.4038C163.257 59.5087 163.179 59.5874 162.995 59.6399C162.89 59.6662 162.811 59.6662 162.706 59.6924C162.601 59.7186 162.496 59.7186 162.391 59.7449V61.2142C162.391 61.2404 162.391 61.2667 162.391 61.2929C162.391 61.3192 162.391 61.3454 162.391 61.3716C162.391 61.4241 162.365 61.4504 162.339 61.5028C162.312 61.5553 162.286 61.5815 162.26 61.6078C162.234 61.634 162.181 61.6603 162.155 61.6865C162.129 61.7127 162.076 61.7127 162.05 61.7127C161.788 61.6865 161.525 61.4766 161.184 61.1093C161.158 61.0568 161.131 61.0043 161.158 60.8994C161.158 60.8731 161.184 60.8469 161.21 60.8206C161.236 60.7944 161.263 60.7682 161.263 60.7419V59.9285C161.079 59.981 160.921 60.0335 160.79 60.086C160.659 60.1384 160.554 60.1647 160.475 60.1909C160.16 60.2959 159.924 60.3221 159.819 60.3484C159.714 60.3484 159.556 60.2959 159.346 60.1384C159.163 60.0073 159.031 59.9023 158.979 59.8236C158.953 59.7973 158.953 59.7711 158.953 59.7186C158.953 59.6662 159.005 59.5874 159.084 59.4562C159.11 59.43 159.136 59.4038 159.163 59.3775C159.189 59.3513 159.241 59.2988 159.268 59.2463C159.268 59.2463 159.609 58.7216 160.239 57.6983C160.869 56.7012 161.21 56.1765 161.263 56.1502C161.394 56.0715 161.499 56.019 161.578 56.019C161.683 56.019 161.84 56.124 162.102 56.2814C162.339 56.4389 162.47 56.57 162.496 56.675C162.496 56.7275 162.47 56.8062 162.365 56.9374V58.6429C162.496 58.6166 162.575 58.6166 162.601 58.6166C162.654 58.6166 162.706 58.6429 162.732 58.6691C162.811 58.7478 162.916 58.879 163.047 59.0889C163.179 59.2463 163.257 59.3775 163.257 59.4038ZM161.263 58.879V58.0131L160.58 59.1152L161.263 58.879Z" fill="black"/>
<path d="M156.434 65.0188C156.434 65.045 156.434 65.0713 156.408 65.0975C156.382 65.1238 156.382 65.15 156.355 65.1762C156.329 65.2025 156.303 65.2287 156.277 65.255C156.25 65.2812 156.198 65.2812 156.172 65.3074C156.119 65.3074 156.04 65.3074 155.935 65.255C155.83 65.2025 155.725 65.1762 155.673 65.1762C155.515 65.15 155.332 65.1762 155.122 65.255C154.833 65.3337 154.597 65.4649 154.387 65.6223V66.3045C154.57 66.2258 154.728 66.1733 154.885 66.1733C155.122 66.1733 155.41 66.3045 155.778 66.5669C156.119 66.8292 156.303 67.0916 156.303 67.2753C156.303 67.9313 156.145 68.5347 155.804 69.0857C155.463 69.6367 155.095 69.8991 154.702 69.8991C154.492 69.8991 154.177 69.7417 153.757 69.4531C153.337 69.1644 153.1 68.9283 153.074 68.7446C153.074 68.6659 153.1 68.561 153.153 68.4823C153.205 68.4035 153.284 68.3511 153.363 68.3511C153.494 68.3511 153.678 68.456 153.914 68.6659C154.045 68.7709 154.15 68.8758 154.203 68.9283C154.255 68.9808 154.308 69.0333 154.308 69.0333C154.518 68.9283 154.754 68.6397 154.964 68.2199C155.174 67.8263 155.279 67.5114 155.279 67.2753C155.279 67.1441 155.2 67.0654 155.069 67.0654C154.938 67.0654 154.78 67.1441 154.544 67.3278C154.334 67.5114 154.203 67.5902 154.203 67.5902C154.124 67.5902 153.967 67.5377 153.73 67.4327C153.494 67.3278 153.337 67.2228 153.258 67.1179C153.232 67.0916 153.205 67.0392 153.205 66.9867C153.205 66.9604 153.205 66.9342 153.232 66.8817C153.232 66.8292 153.258 66.7768 153.258 66.7505V64.8614C153.258 64.8089 153.284 64.7302 153.363 64.6777C153.442 64.6252 153.52 64.5728 153.625 64.5465C153.652 64.5465 153.678 64.5465 153.73 64.5728C153.783 64.599 153.809 64.599 153.835 64.599C153.862 64.599 153.888 64.599 153.914 64.5728C154.229 64.4416 154.57 64.3366 154.964 64.2579C155.122 64.2317 155.227 64.2054 155.332 64.1792C155.437 64.1529 155.489 64.1529 155.542 64.1529L155.673 64.1267C155.725 64.1267 155.752 64.1267 155.804 64.1529C155.909 64.2317 156.04 64.3629 156.172 64.5465C156.355 64.7827 156.434 64.9139 156.434 65.0188Z" fill="black"/>
<path d="M146.403 69.324C145.983 69.2453 145.668 69.0878 145.51 68.9042C145.51 68.5106 145.432 68.3007 145.248 68.2744C145.064 68.2482 144.933 68.4319 144.828 68.8254C144.802 68.9566 144.775 69.0878 144.749 69.219C144.723 69.3502 144.723 69.5076 144.697 69.6651L144.985 69.4552C145.09 69.3764 145.195 69.324 145.3 69.324C145.432 69.324 145.589 69.324 145.72 69.3764C145.773 69.4027 145.852 69.4552 145.904 69.4814C145.957 69.5076 146.035 69.5339 146.088 69.5863C146.14 69.6126 146.193 69.6388 146.245 69.6651C146.298 69.6913 146.35 69.7175 146.403 69.7438C146.455 69.77 146.508 69.8225 146.56 69.8487C146.613 69.9012 146.639 69.9274 146.665 69.9799C146.77 70.1374 146.823 70.3735 146.823 70.6621C146.823 71.1869 146.665 71.7116 146.376 72.2102C146.062 72.7349 145.72 72.9973 145.3 72.9973C145.038 72.9973 144.775 72.8924 144.46 72.6825C144.145 72.4726 143.935 72.2626 143.857 72.0265C143.673 71.528 143.568 70.8983 143.568 70.1636C143.568 69.5339 143.647 69.0091 143.778 68.5106C143.935 67.9858 144.172 67.6447 144.46 67.4873C144.539 67.4611 144.618 67.4348 144.697 67.4348C144.88 67.4348 145.143 67.5135 145.484 67.671C145.852 67.8546 146.114 67.9858 146.245 68.0908C146.481 68.2744 146.613 68.4581 146.639 68.668C146.665 68.773 146.691 68.8779 146.691 68.9304C146.691 68.9829 146.691 69.0091 146.665 69.0616C146.639 69.1141 146.613 69.1403 146.586 69.1665C146.56 69.1928 146.534 69.219 146.481 69.2453C146.481 69.324 146.455 69.324 146.403 69.324ZM145.72 70.1636C145.09 70.4784 144.775 70.9507 144.775 71.5542C144.775 71.7379 144.802 71.9215 144.88 72.1315C145.195 72.079 145.432 71.8166 145.615 71.3443C145.72 71.0819 145.773 70.8458 145.773 70.5834C145.747 70.426 145.747 70.2948 145.72 70.1636Z" fill="black"/>
<path d="M137.217 66.5951C137.217 66.6476 137.164 66.7 137.112 66.7263C137.033 66.7788 136.98 66.8312 136.954 66.8837C136.928 66.9624 136.744 67.6446 136.377 68.9041C136.193 69.5338 136.062 70.0061 135.983 70.3209C135.904 70.6358 135.852 70.8194 135.852 70.8457C135.852 70.8719 135.852 70.9244 135.852 71.0031C135.852 71.0556 135.825 71.1343 135.825 71.213C135.799 71.318 135.747 71.3967 135.615 71.4492C135.615 71.4492 135.589 71.4492 135.563 71.4492C135.51 71.4492 135.432 71.4492 135.379 71.4229C135.327 71.3967 135.222 71.3705 135.117 71.3442C134.907 71.2655 134.749 71.1868 134.644 71.0818C134.592 71.0556 134.565 70.9769 134.565 70.8982C134.565 70.8719 134.592 70.8194 134.618 70.767C134.644 70.7145 134.67 70.6883 134.697 70.662C134.775 70.3472 134.854 70.0848 134.933 69.7962C135.012 69.5338 135.064 69.2714 135.143 69.0352C135.3 68.458 135.432 67.9857 135.537 67.6184C135.642 67.251 135.72 66.9887 135.773 66.805L134.828 67.0411C134.723 67.1199 134.644 67.1461 134.592 67.1461C134.487 67.1199 134.355 67.0411 134.119 66.91C133.883 66.7788 133.752 66.6476 133.725 66.5951C133.699 66.5426 133.699 66.5164 133.699 66.4639C133.699 66.3065 133.778 66.2015 133.909 66.149C133.962 66.1228 134.04 66.0966 134.145 66.0966L134.408 66.0703L136.193 65.7555C136.219 65.7555 136.219 65.7555 136.245 65.7292C136.272 65.7292 136.298 65.703 136.324 65.6768C136.377 65.6505 136.429 65.6243 136.482 65.6505C136.56 65.6768 136.692 65.8079 136.902 66.0703C137.138 66.3589 137.243 66.5164 137.217 66.5951Z" fill="black"/>
<path d="M129.425 63.6836C129.425 64.1297 129.11 64.5757 128.506 65.048C127.902 65.5203 127.325 65.7564 126.773 65.7564C126.564 65.7564 126.301 65.6252 125.986 65.3629C125.645 65.0742 125.487 64.7856 125.487 64.5495C125.487 63.9722 125.776 63.4475 126.354 63.0014C125.881 62.844 125.645 62.5816 125.645 62.2143C125.645 61.8732 125.881 61.4271 126.38 60.8761C126.878 60.3251 127.325 60.0627 127.718 60.0627C128.007 60.0627 128.217 60.1152 128.375 60.2464L128.742 60.7187C128.873 60.8761 128.978 61.0336 129.057 61.1647C129.136 61.2959 129.162 61.4271 129.162 61.5583C129.162 61.637 129.162 61.7158 129.136 61.7945C129.057 62.0831 128.847 62.3192 128.558 62.5029C129.136 62.8965 129.425 63.29 129.425 63.6836ZM128.375 63.3425C127.955 63.3425 127.587 63.4475 127.298 63.6574C126.931 63.9198 126.695 64.2871 126.616 64.7594C126.642 64.7594 126.669 64.7594 126.669 64.7594C126.669 64.7594 126.695 64.7594 126.721 64.7594C127.062 64.7594 127.43 64.5757 127.823 64.2346C128.191 63.8935 128.375 63.6049 128.375 63.3425ZM128.112 61.1123C127.771 61.191 127.482 61.3484 127.246 61.5583C127.01 61.7682 126.826 62.0306 126.721 62.3455C127.115 62.3455 127.43 62.2143 127.718 61.9257C127.981 61.6895 128.112 61.4009 128.112 61.1123Z" fill="black"/>
<path d="M123.074 49.8259C123.258 50.3245 123.363 50.9542 123.363 51.6888C123.363 52.3186 123.284 52.8433 123.153 53.3418C122.996 53.8666 122.759 54.1815 122.471 54.3389C122.392 54.3651 122.313 54.3914 122.234 54.3914C122.051 54.3914 121.788 54.3127 121.447 54.1552C121.263 54.0765 121.106 53.9978 120.974 53.9191C120.843 53.8404 120.738 53.7879 120.686 53.7354C120.449 53.5518 120.318 53.3681 120.292 53.1582C120.266 53.0532 120.239 52.9483 120.239 52.8958C120.239 52.8433 120.239 52.8171 120.266 52.7646C120.292 52.7121 120.318 52.6859 120.344 52.6597C120.371 52.6334 120.397 52.6072 120.449 52.5809C120.502 52.5547 120.528 52.5547 120.554 52.5547C120.974 52.6334 121.289 52.7908 121.447 52.9745C121.447 53.3681 121.526 53.578 121.709 53.6042C121.893 53.6305 122.024 53.4206 122.156 52.9745C122.234 52.6859 122.287 52.3448 122.313 52.0037C122.077 52.371 121.867 52.5547 121.683 52.5809C121.552 52.5809 121.421 52.5809 121.289 52.5022C121.158 52.4497 121.027 52.371 120.922 52.3186C120.817 52.2661 120.686 52.1874 120.581 52.1349C120.476 52.0824 120.397 52.0037 120.318 51.8987C120.213 51.7413 120.161 51.5052 120.161 51.2166C120.161 50.6918 120.318 50.167 120.607 49.6685C120.922 49.1437 121.263 48.8813 121.657 48.8813C121.893 48.8813 122.182 48.9863 122.497 49.1962C122.786 49.3536 122.969 49.5898 123.074 49.8259ZM122.077 49.7472C121.762 49.7997 121.526 50.0621 121.342 50.5344C121.237 50.7967 121.184 51.0329 121.184 51.2953C121.184 51.4265 121.184 51.5576 121.211 51.7151C121.841 51.4002 122.156 50.9542 122.156 50.3245C122.182 50.1145 122.156 49.9309 122.077 49.7472Z" fill="black"/>
<path d="M123.7 43.7952C123.7 43.9001 123.673 43.9788 123.595 44.0575C123.516 44.1363 123.463 44.1887 123.358 44.1625C123.28 44.1625 123.122 44.0838 122.86 43.9001C122.597 43.7164 122.466 43.6115 122.466 43.5328C122.466 43.5065 122.466 43.4541 122.492 43.4278C122.518 43.4016 122.518 43.3491 122.518 43.3229V40.6728C122.518 40.5679 122.413 40.5154 122.23 40.4629C122.02 40.4104 121.888 40.3317 121.862 40.253C121.836 40.2268 121.836 40.1743 121.836 40.1218C121.836 40.0169 121.888 39.9119 121.967 39.807C122.098 39.6495 122.177 39.5446 122.203 39.4659L122.361 38.9673C122.387 38.8624 122.44 38.8099 122.492 38.7574C122.545 38.7049 122.623 38.6787 122.728 38.6787C122.912 38.6787 123.096 38.7312 123.28 38.8361C123.49 38.9673 123.595 39.0985 123.595 39.256V43.4278C123.595 43.4541 123.595 43.4803 123.621 43.5065C123.647 43.5328 123.647 43.559 123.673 43.5853C123.7 43.6115 123.7 43.6377 123.726 43.664C123.7 43.7427 123.7 43.7689 123.7 43.7952Z" fill="black"/>
<path d="M127.953 39.0189C128.162 39.0713 128.32 39.2812 128.451 39.6748C128.556 40.0422 128.609 40.5144 128.609 41.0392C128.609 41.6689 128.53 42.2986 128.346 42.9021C128.11 43.768 127.743 44.214 127.27 44.214C127.191 44.214 127.086 44.1878 126.981 44.1615C126.903 44.1353 126.824 44.1091 126.771 44.0828C126.719 44.0566 126.693 44.0566 126.693 44.0566L126.141 43.8467C125.931 43.768 125.748 43.4794 125.616 42.9546C125.485 42.4561 125.433 41.9051 125.433 41.2753C125.433 40.6456 125.485 40.1209 125.616 39.6748C125.748 39.1763 125.958 38.8877 126.246 38.7827C126.246 38.7827 126.273 38.7827 126.299 38.7827C126.325 38.7827 126.351 38.7827 126.404 38.809C126.456 38.8352 126.483 38.8352 126.509 38.8352C126.614 38.7827 126.745 38.7827 126.876 38.7827C127.034 38.7827 127.191 38.809 127.428 38.8877C127.743 38.9401 127.926 38.9926 127.953 39.0189ZM127.165 39.4124C126.955 39.4124 126.798 39.6486 126.693 40.0946C126.614 40.462 126.561 40.8818 126.561 41.3803C126.561 41.7739 126.614 42.1937 126.693 42.6397C126.771 43.0858 126.876 43.2957 126.955 43.2957C127.113 43.2957 127.27 43.0333 127.349 42.5348C127.401 42.2986 127.428 42.0625 127.454 41.8001C127.48 41.5377 127.48 41.2491 127.48 40.9605C127.48 40.5144 127.454 40.1733 127.401 39.8847C127.349 39.5699 127.27 39.4124 127.165 39.4124Z" fill="black"/>
<path d="M130.154 35.5011C130.154 35.6061 130.127 35.6848 130.049 35.7635C129.97 35.8422 129.917 35.8947 129.812 35.8684C129.734 35.8684 129.576 35.7897 129.314 35.6061C129.051 35.4224 128.92 35.3174 128.92 35.2387C128.92 35.2125 128.92 35.16 128.946 35.1338C128.973 35.1075 128.973 35.0551 128.973 35.0288V32.405C128.973 32.3 128.868 32.2476 128.684 32.1951C128.474 32.1426 128.343 32.0639 128.316 31.9852C128.29 31.9589 128.29 31.9065 128.29 31.854C128.29 31.749 128.343 31.6441 128.421 31.5391C128.553 31.3817 128.631 31.2768 128.658 31.198L128.815 30.6995C128.841 30.5946 128.894 30.5421 128.946 30.4896C128.999 30.4371 129.078 30.4109 129.183 30.4109C129.366 30.4109 129.55 30.4634 129.734 30.5683C129.944 30.6995 130.049 30.8307 130.049 30.9881V35.16C130.049 35.1862 130.049 35.2125 130.075 35.2387C130.101 35.265 130.101 35.2912 130.127 35.3174C130.154 35.3437 130.154 35.3699 130.18 35.3962C130.154 35.4486 130.154 35.5011 130.154 35.5011Z" fill="black"/>
<path d="M134.251 35.5011C134.251 35.6061 134.225 35.6848 134.146 35.7635C134.067 35.8422 134.015 35.8947 133.91 35.8684C133.831 35.8684 133.673 35.7897 133.411 35.6061C133.148 35.4224 133.017 35.3174 133.017 35.2387C133.017 35.2125 133.017 35.16 133.043 35.1338C133.07 35.1075 133.07 35.0551 133.07 35.0288V32.405C133.07 32.3 132.965 32.2476 132.781 32.1951C132.571 32.1426 132.44 32.0639 132.413 31.9852C132.387 31.9589 132.387 31.9065 132.387 31.854C132.387 31.749 132.44 31.6441 132.518 31.5391C132.65 31.3817 132.728 31.2768 132.755 31.198L132.912 30.6995C132.938 30.5946 132.991 30.5421 133.043 30.4896C133.096 30.4371 133.175 30.4109 133.28 30.4109C133.463 30.4109 133.647 30.4634 133.831 30.5683C134.041 30.6995 134.146 30.8307 134.146 30.9881V35.16C134.146 35.1862 134.146 35.2125 134.172 35.2387C134.198 35.265 134.198 35.2912 134.225 35.3174C134.251 35.3437 134.251 35.3699 134.277 35.3962C134.251 35.4486 134.251 35.5011 134.251 35.5011Z" fill="black"/>
<path d="M180.427 31.643C182.514 31.643 184.207 29.9514 184.207 27.8647C184.207 25.778 182.514 24.0864 180.427 24.0864C178.339 24.0864 176.647 25.778 176.647 27.8647C176.647 29.9514 178.339 31.643 180.427 31.643Z" fill="black"/>
<path d="M248.667 43.5023C248.667 43.5023 254.757 39.6453 261.608 44.0271C266.202 46.9658 266.753 57.3036 265.047 60.8458C263.34 64.3617 255.518 70.7901 255.518 70.7901C255.518 70.7901 226.198 49.4321 248.667 43.5023Z" fill="#A5713D"/>
<path d="M229.114 104.455L229.035 119.594C229.035 119.594 210.923 119.804 209.769 119.516C208.614 119.227 202.76 114.583 202.156 114.347C201.553 114.084 200.975 114.347 201.211 115.055C201.448 115.764 202.34 117.994 202.34 117.994C202.34 117.994 197.904 117.495 197.51 117.259C197.117 117.023 194.439 114.95 193.888 114.793C193.337 114.609 192.418 114.976 192.654 115.554C192.891 116.131 195.41 119.358 195.41 119.358C195.41 119.358 194.912 122.822 196.224 124.081C197.537 125.367 203.679 126.39 206.671 126.574C209.664 126.757 232.316 129.67 234.206 129.565C236.096 129.486 238.852 128.883 239.823 124.842C240.795 120.801 241.11 105.216 241.11 105.216L229.114 104.455Z" fill="#DD866F"/>
<path d="M263.55 247.532V271.383H283.447C283.447 271.383 286.282 266.608 283.447 265.322C280.612 264.01 271.372 259.471 271.372 259.471L271.74 247.559H263.55V247.532Z" fill="#F69576"/>
<path d="M263.55 259.47V271.382H283.447C283.447 271.382 286.282 266.607 283.447 265.321C280.612 264.009 271.372 259.47 271.372 259.47H263.55Z" fill="#032240"/>
<path d="M247.198 247.532L247.382 259.471C247.382 259.471 236.961 261.439 234.179 262.278C230.845 263.302 226.987 264.22 226.436 267.474C225.963 270.281 226.436 271.383 226.436 271.383H258.695L255.178 247.532H247.198Z" fill="#F69576"/>
<path d="M247.382 259.47C247.382 259.47 236.961 261.438 234.179 262.278C230.845 263.301 226.987 264.219 226.436 267.473C225.963 270.28 226.436 271.382 226.436 271.382H258.695L257.462 259.47H247.382Z" fill="#BFBFBF"/>
<path d="M226.435 267.471C226.33 268.049 226.277 268.547 226.251 268.967H258.458L257.461 259.443H247.381C247.381 259.443 236.96 261.41 234.178 262.25C230.845 263.3 226.986 264.218 226.435 267.471Z" fill="#032240"/>
<path d="M232.682 139.483C232.682 139.483 231.554 151.238 232.682 170.785C233.811 190.333 238.562 209.093 239.113 211.323C239.664 213.554 241.082 260.704 241.082 260.704L258.721 262.514C258.721 262.514 251.45 200.408 250.873 185.033C250.322 169.657 252.841 140.874 252.841 140.874L232.682 139.483Z" fill="#254B6B"/>
<path d="M272.689 140.874H249.485C249.485 140.874 247.674 187.342 249.485 189.52C251.296 191.698 256.756 200.435 257.596 207.126C258.436 213.817 261.612 264.194 261.612 264.194L275.918 261.649L272.689 140.874Z" fill="#254B6B"/>
<path d="M255.445 78.3466C243.869 78.1104 240.168 79.8422 237.727 85.2472C235.286 90.6523 229.144 138.17 228.592 147.878C228.041 157.56 229.905 163.358 243.134 163.358C256.364 163.358 281.904 162.23 281.904 158.688C281.904 155.146 279.489 99.5995 279.095 90.285C278.754 80.9704 264.212 78.5302 255.445 78.3466Z" fill="#005893"/>
<path d="M243.131 81.5221C238.564 80.3414 234.364 80.3939 231.005 87.1109C229.272 90.5481 228.485 99.679 227.697 106.632C227.015 112.536 210.898 114.372 210.898 114.372V133.657C210.898 133.657 241.504 137.2 244.05 116.471C245.021 108.6 251.321 83.6474 243.131 81.5221Z" fill="#005893"/>
<path d="M251.451 77.4033C255.519 77.4033 260.349 77.7969 262.869 79.3974C265.94 81.3653 265.888 88.712 252.422 89.3155C238.956 89.919 239.403 83.648 240.768 81.7851C242.736 79.0826 248.327 77.4033 251.451 77.4033Z" fill="#F69576"/>
<path d="M246.229 68.98L243.604 85.8249H259.485C259.485 85.8249 258.724 79.1342 257.831 74.7786C256.939 70.4493 256.178 68.98 256.178 68.98H246.229Z" fill="#F69576"/>
<path d="M253.136 73.573C253.136 73.573 253.268 76.6691 251.22 78.0335C249.173 79.3979 244.605 79.4241 244.605 79.4241L246.233 69.0075H252.926C252.926 68.9813 253.399 71.5789 253.136 73.573Z" fill="#DD866F"/>
<path d="M243.945 48.5414C243.945 48.5414 241.923 50.1944 241.057 53.8678C240.375 56.7015 240.532 59.7189 240.191 61.4244C239.85 63.1299 239.272 65.8324 239.745 68.1939C240.217 70.5553 242.317 73.7826 246.228 74.8846C250.113 75.9866 253.315 75.1995 255.468 72.4707C257.62 69.7682 260.271 64.9141 261.059 61.5294C261.846 58.1446 262.293 51.795 258.696 48.9875C254.103 45.4453 248.643 45.3929 243.945 48.5414Z" fill="#F69576"/>
<path d="M251.003 67.5384C251.003 67.5384 250.636 69.8212 249.271 70.3197C247.906 70.792 246.541 70.4771 245.911 69.7162C245.281 68.9553 244.966 67.5122 244.966 67.5122L251.003 67.5384Z" fill="white"/>
<path d="M247.593 65.0204C247.147 64.9417 247.173 64.5217 247.173 64.2855C247.173 64.2592 247.173 64.2592 247.173 64.233C247.147 64.2592 247.121 64.2592 247.121 64.2855C246.963 64.3904 246.727 64.5742 246.438 64.3117C246.333 64.2067 246.281 64.0492 246.281 63.813C246.307 63.3667 246.596 62.763 246.858 62.553C246.911 62.5005 246.989 62.5268 247.042 62.5793C247.094 62.6318 247.068 62.7105 247.016 62.763C246.832 62.8943 246.569 63.4192 246.543 63.813C246.543 63.9442 246.569 64.0492 246.622 64.1017C246.727 64.2067 246.806 64.1805 246.963 64.0492C247.042 63.9967 247.121 63.918 247.226 63.918C247.278 63.918 247.331 63.918 247.357 63.9705C247.436 64.0492 247.436 64.1542 247.436 64.2855C247.436 64.5742 247.462 64.7054 247.619 64.7579C247.698 64.7579 247.751 64.7579 247.803 64.7317C247.882 64.6792 247.882 64.4954 247.882 64.3642C247.882 64.2592 247.882 64.1805 247.934 64.128C247.961 64.0755 248.039 64.023 248.092 64.023C248.223 64.023 248.354 64.1017 248.538 64.3117C248.564 64.3379 248.617 64.3904 248.696 64.3642C248.774 64.3379 248.879 64.233 248.932 64.023C248.984 63.708 248.696 63.078 248.564 62.868C248.538 62.8155 248.538 62.7368 248.617 62.6843C248.669 62.658 248.748 62.658 248.801 62.7368C248.853 62.8155 249.273 63.603 249.194 64.0755C249.142 64.3642 248.984 64.5742 248.774 64.6267C248.617 64.6792 248.459 64.6267 248.354 64.4954C248.249 64.3904 248.197 64.3379 248.144 64.3117C248.144 64.3379 248.144 64.3642 248.144 64.3904C248.144 64.5479 248.118 64.8104 247.961 64.9417C247.882 64.9942 247.803 65.0204 247.698 65.0204C247.672 65.0204 247.619 65.0204 247.593 65.0204Z" fill="#6B3425"/>
<path d="M267.019 59.1168C265.811 56.1256 257.044 58.8282 258.671 64.3382C260.325 69.9794 268.803 63.5248 267.019 59.1168Z" fill="#F69576"/>
<path d="M260.325 65.0206C260.352 65.0206 260.378 65.0206 260.404 64.9944C260.457 64.9419 260.457 64.8632 260.404 64.8107C260.037 64.4171 259.958 63.1577 260.43 61.9507C260.745 61.0849 261.559 59.6155 263.449 59.3794C264.473 59.2482 265.181 59.4319 265.575 59.8779C266.179 60.5601 265.89 61.6621 265.89 61.6883C265.864 61.7671 265.916 61.8195 265.995 61.8458C266.074 61.872 266.126 61.8195 266.153 61.7408C266.179 61.6883 266.468 60.4814 265.785 59.6942C265.313 59.1695 264.525 58.9596 263.423 59.0908C261.927 59.2744 260.745 60.2715 260.168 61.8458C259.722 63.079 259.722 64.4696 260.194 64.9944C260.247 64.9944 260.273 65.0206 260.325 65.0206Z" fill="#6B3425"/>
<path d="M263.472 64.5216C263.525 64.5216 263.577 64.4953 263.604 64.4429C263.656 64.3379 264.627 61.924 263.184 59.2215C263.157 59.169 263.079 59.1427 263 59.169C262.947 59.1952 262.921 59.2739 262.947 59.3527C264.338 61.9502 263.367 64.3379 263.367 64.3379C263.341 64.4166 263.367 64.4691 263.446 64.5216C263.42 64.5216 263.446 64.5216 263.472 64.5216Z" fill="#6B3425"/>
<path d="M251.924 62.4732C252.185 62.4732 252.396 62.0383 252.396 61.502C252.396 60.9656 252.185 60.5308 251.924 60.5308C251.663 60.5308 251.451 60.9656 251.451 61.502C251.451 62.0383 251.663 62.4732 251.924 62.4732Z" fill="#6B3425"/>
<path d="M254.155 58.9324C253.788 58.6174 253 58.1974 252.213 58.1187C251.347 58.0399 250.822 58.4337 250.48 58.5124C250.139 58.5912 250.087 58.1187 250.27 57.6987C250.454 57.2787 251.189 56.9637 252.396 57.0162C253.604 57.0687 254.26 57.5937 254.575 57.9612C254.89 58.3287 254.68 59.3786 254.155 58.9324Z" fill="#6B3425"/>
<path d="M244.522 62.2124C244.783 62.2124 244.995 61.7776 244.995 61.2412C244.995 60.7048 244.783 60.27 244.522 60.27C244.261 60.27 244.05 60.7048 244.05 61.2412C244.05 61.7776 244.261 62.2124 244.522 62.2124Z" fill="#6B3425"/>
<path d="M246.308 58.5654C245.941 58.2505 245.153 57.8305 244.366 57.7517C243.5 57.673 242.975 58.0667 242.634 58.1455C242.292 58.2242 242.24 57.7517 242.424 57.3317C242.607 56.9118 243.342 56.5968 244.55 56.6493C245.757 56.7018 246.413 57.2268 246.728 57.5942C247.07 57.988 246.807 59.0117 246.308 58.5654Z" fill="#6B3425"/>
<path d="M243.185 70.3457L243.788 70.5031C243.788 70.5031 244.969 72.8121 245.941 73.2581C246.912 73.7042 250.141 73.5468 250.482 73.2581C250.823 72.9695 251.925 70.3982 251.925 70.3982L252.687 70.5818C252.687 70.5818 251.532 74.2814 251.374 74.5963C251.269 74.8062 249.143 76.2493 248.303 76.328C247.489 76.4067 244.628 74.8324 244.497 74.4913C244.051 73.4418 243.185 70.3457 243.185 70.3457Z" fill="#6B3425"/>
<path d="M246.832 71.7893L248.276 71.7368L248.302 74.2557L247.226 74.4656L246.832 71.7893Z" fill="#6B3425"/>
<path d="M260.034 111.776L259.956 126.915C259.956 126.915 241.844 127.125 240.689 126.836C239.508 126.548 233.68 121.904 233.077 121.668C232.473 121.405 231.896 121.668 232.132 122.376C232.368 123.084 233.261 125.315 233.261 125.315C233.261 125.315 228.824 124.816 228.431 124.58C228.037 124.344 225.36 122.271 224.808 122.114C224.257 121.956 223.338 122.297 223.575 122.875C223.811 123.452 226.331 126.679 226.331 126.679C226.331 126.679 225.832 130.143 227.145 131.402C228.457 132.688 234.599 133.711 237.592 133.895C240.584 134.078 263.237 136.991 265.127 136.886C267.016 136.807 269.773 136.204 270.744 132.163C271.715 128.122 272.03 112.537 272.03 112.537L260.034 111.776Z" fill="#F69576"/>
<path d="M259.482 45.0773C259.482 45.0773 256.149 51.1121 246.883 51.6369C227.59 52.7651 236.436 41.9287 236.436 41.9287C236.436 41.9287 235.753 44.7887 239.061 44.9461C243.602 45.156 250.164 31.381 259.482 45.0773Z" fill="#A5713D"/>
<path d="M243.417 40.8793C243.417 40.8793 246.225 33.2177 254.231 31.8533C262.237 30.4889 271.424 37.3371 274.6 43.3457C277.776 49.3542 275.65 62.3159 275.65 62.3159C275.65 62.3159 274.416 48.7245 271.45 47.9898C268.484 47.2552 265.151 52.1092 265.151 52.1092L243.417 40.8793Z" fill="#254B6B"/>
<path d="M242.555 39.4369C241.19 39.9879 238.329 43.5826 238.959 44.842C239.589 46.1014 263.528 57.2527 264.578 57.5675C265.654 57.9086 267.911 53.5268 266.336 50.6144C264.762 47.702 246.204 37.9676 242.555 39.4369Z" fill="white"/>
<path d="M278.344 62.0181C278.491 60.1837 277.168 58.5817 275.391 58.4401C273.614 58.2985 272.054 59.6708 271.908 61.5053C271.762 63.3398 273.084 64.9417 274.861 65.0833C276.639 65.2249 278.198 63.8526 278.344 62.0181Z" fill="white"/>
<path d="M263.946 86.6903C274.314 86.3754 275.338 100.99 275.863 110.174C276.388 119.357 274.813 133.867 271.978 136.91C269.143 139.954 241.083 138.904 241.083 138.904V119.882C241.083 119.882 259.195 121.456 259.851 120.013C260.508 118.57 247.173 87.2151 263.946 86.6903Z" fill="#046AA3"/>
<path d="M210.238 114.374C210.107 111.435 214.569 111.96 215.042 113.691C215.488 115.423 215.908 133.134 215.042 134.446C214.176 135.758 211.682 136.414 210.894 134.446C210.107 132.478 210.369 117.26 210.238 114.374Z" fill="white"/>
<path d="M241.083 119.882C240.952 117.39 243.84 117.39 244.102 119.882C244.365 122.375 244.811 137.829 244.601 139.482C244.365 141.135 241.083 143.707 241.083 140.059C241.083 136.412 241.188 122.375 241.083 119.882Z" fill="white"/>
<path d="M239.116 80.9455C240.193 79.1613 243.684 78.6103 243.159 79.7648C242.66 80.9193 242.712 86.0357 244.655 86.6917C246.597 87.3476 248.855 87.0853 248.907 89.3155C248.96 91.5458 242.896 90.4962 241.085 88.7907C239.248 87.0853 237.935 82.9134 239.116 80.9455Z" fill="white"/>
<path d="M258.515 77.8997C258.068 76.2204 263.659 76.5615 264.499 78.3195C265.786 80.9433 265.471 82.5176 264.499 84.8528C262.977 88.5786 256.913 91.5435 252.294 91.5435C249.59 91.5435 247.648 90.494 248.881 88.6573C250.115 86.8207 255.969 88.6049 258.488 85.8236C261.035 83.0161 258.908 79.3165 258.515 77.8997Z" fill="white"/>
<path d="M247.802 102.828C249.107 102.828 250.164 101.771 250.164 100.467C250.164 99.1627 249.107 98.1055 247.802 98.1055C246.497 98.1055 245.439 99.1627 245.439 100.467C245.439 101.771 246.497 102.828 247.802 102.828Z" fill="white"/>
<path d="M248.432 153.495C249.62 153.495 250.584 152.532 250.584 151.343C250.584 150.155 249.62 149.192 248.432 149.192C247.243 149.192 246.279 150.155 246.279 151.343C246.279 152.532 247.243 153.495 248.432 153.495Z" fill="white"/>
<path d="M246.937 115.711C248.025 115.711 248.906 114.83 248.906 113.744C248.906 112.657 248.025 111.776 246.937 111.776C245.85 111.776 244.969 112.657 244.969 113.744C244.969 114.83 245.85 115.711 246.937 115.711Z" fill="white"/>
<path d="M121.417 125.839L140.684 162.52L145.068 161.969L146.879 117.39C146.879 117.39 144.569 107.997 140.973 106.108C137.403 104.192 134.752 105.058 133.256 106.895C131.76 108.732 126.352 105.819 123.99 106.764C121.627 107.708 123.124 113.14 121.102 113.691C119.055 114.215 114.803 113.245 121.417 125.839Z" fill="#6C868C"/>
<path d="M138.271 111.227C138.271 111.227 139.872 108.105 140.03 106.819C141.368 107.161 143.573 106.426 143.573 106.426C143.573 106.426 142.471 107.843 142.602 109.233C141.605 109.548 138.271 111.227 138.271 111.227Z" fill="#5B725B"/>
<path d="M138.14 114.637C138.14 114.637 138.691 117.156 138.192 118.468C138.848 118.941 139.163 119.439 139.321 119.78C140.108 119.911 140.712 120.935 140.712 120.935C140.712 120.935 140.896 119.938 141.211 119.334C140.843 118.599 140.686 117.97 140.791 117.497C139.846 116.71 138.14 114.637 138.14 114.637Z" fill="#9AA69A"/>
<path d="M130.739 113.772C131.999 114.166 135.28 112.985 135.28 112.985C135.28 112.985 132.419 116.239 131.999 117.105C130.766 116.029 128.613 115.95 128.613 115.95C128.613 115.95 130.424 115.111 130.739 113.772Z" fill="#9AA69A"/>
<path d="M129.453 112.513C129.453 112.513 131.028 110.86 132.76 110.965C134.493 111.07 136.96 112.46 136.96 112.46C136.96 112.46 134.677 113.956 133.023 113.825C131.343 113.667 129.453 112.513 129.453 112.513Z" fill="#512176"/>
<path d="M131.896 106.687C131.896 106.687 132.788 107.5 133.838 107.92C136.936 109.153 136.936 112.407 136.936 112.407C136.936 112.407 134.547 111.593 133.523 110.281C132.5 109.022 131.896 106.687 131.896 106.687Z" fill="#642E93"/>
<path d="M136.539 104.668C136.539 104.668 139.111 110.571 136.932 112.434C134.176 111.07 136.355 105.901 136.539 104.668Z" fill="#512176"/>
<path d="M143.891 110.229C143.891 110.229 141.345 109.599 139.639 110.256C137.933 110.938 136.935 112.434 136.935 112.434C136.935 112.434 138.772 112.723 140.636 112.119C142.5 111.515 143.235 110.334 143.891 110.229Z" fill="#642E93"/>
<path d="M142.551 118.18C142.551 118.18 142.63 115.74 140.557 113.877C138.483 112.014 136.96 112.434 136.96 112.434C136.96 112.434 137.459 114.113 138.667 115.609C139.874 117.105 142.551 118.18 142.551 118.18Z" fill="#642E93"/>
<path d="M137.619 119.571C137.619 119.571 138.8 115.897 138.013 114.297C137.226 112.723 136.963 112.434 136.963 112.434C136.963 112.434 135.572 113.772 135.782 115.478C135.992 117.183 137.619 119.571 137.619 119.571Z" fill="#512176"/>
<path d="M132.999 118.652C132.999 118.652 133.34 115.267 134.311 113.929C135.283 112.591 136.963 112.459 136.963 112.459C136.963 112.459 136.306 115.188 135.703 116.264C135.099 117.314 133.472 117.707 132.999 118.652Z" fill="#642E93"/>
<path d="M133.525 109.312C133.525 109.312 135.336 109.758 136.071 110.624C136.806 111.49 136.937 112.435 136.937 112.435C136.937 112.435 135.625 112.513 134.969 111.779C134.312 111.044 133.525 109.312 133.525 109.312Z" fill="#512176"/>
<path d="M139.771 107.423C139.771 107.423 140.007 109.417 139.246 110.624C138.485 111.857 136.963 112.434 136.963 112.434C136.963 112.434 136.674 110.781 137.566 109.522C138.459 108.262 139.771 107.423 139.771 107.423Z" fill="#512176"/>
<path d="M142.42 113.381C142.42 113.381 141.055 112.095 139.612 111.832C138.168 111.57 136.96 112.436 136.96 112.436C136.96 112.436 138.325 113.302 139.664 113.512C141.003 113.722 142.42 113.381 142.42 113.381Z" fill="#512176"/>
<path d="M139.48 117.498C139.48 117.498 139.454 115.11 138.666 114.008C137.879 112.932 136.96 112.434 136.96 112.434C136.96 112.434 136.435 113.3 136.934 114.507C137.433 115.714 139.48 117.498 139.48 117.498Z" fill="#512176"/>
<path d="M131.896 115.427C131.896 115.427 132.998 113.565 134.101 112.804C135.203 112.043 136.936 112.463 136.936 112.463C136.936 112.463 136.411 113.696 135.361 114.43C134.311 115.165 131.896 115.427 131.896 115.427Z" fill="#512176"/>
<path d="M137.005 111.634C137.174 111.522 137.221 111.295 137.109 111.126C136.998 110.956 136.77 110.91 136.601 111.021C136.432 111.133 136.385 111.36 136.496 111.529C136.608 111.699 136.836 111.745 137.005 111.634Z" fill="#FFE051"/>
<path d="M136.615 112.183C136.784 112.072 136.831 111.844 136.719 111.675C136.608 111.506 136.38 111.459 136.211 111.57C136.042 111.682 135.995 111.91 136.106 112.079C136.218 112.248 136.446 112.295 136.615 112.183Z" fill="#FFE051"/>
<path d="M137.048 112.769C137.23 112.649 137.28 112.405 137.16 112.223C137.041 112.042 136.797 111.992 136.615 112.111C136.433 112.231 136.383 112.475 136.503 112.657C136.623 112.838 136.867 112.888 137.048 112.769Z" fill="#FFE051"/>
<path d="M137.655 112.374C137.836 112.255 137.887 112.011 137.767 111.829C137.647 111.647 137.403 111.597 137.221 111.717C137.04 111.836 136.99 112.081 137.109 112.262C137.229 112.444 137.473 112.494 137.655 112.374Z" fill="#FFE051"/>
<path d="M137.459 111.795C137.616 111.692 137.66 111.481 137.556 111.324C137.452 111.166 137.241 111.123 137.084 111.226C136.927 111.33 136.883 111.541 136.987 111.698C137.091 111.856 137.302 111.899 137.459 111.795Z" fill="#FFE051"/>
<path d="M137.799 111.707C137.92 111.628 137.953 111.465 137.874 111.344C137.794 111.223 137.631 111.19 137.51 111.27C137.39 111.349 137.356 111.512 137.436 111.633C137.515 111.754 137.678 111.787 137.799 111.707Z" fill="#CEAA22"/>
<path d="M137.175 112.141C137.344 112.029 137.391 111.802 137.279 111.632C137.168 111.463 136.94 111.416 136.771 111.528C136.602 111.639 136.555 111.867 136.666 112.036C136.778 112.205 137.006 112.252 137.175 112.141Z" fill="#CEAA22"/>
<path d="M126.248 108.628C126.248 108.628 125.618 105.532 124.988 104.535C126.117 104.036 127.272 102.278 127.272 102.278C127.272 102.278 127.298 103.905 128.164 104.797C127.613 105.584 126.248 108.628 126.248 108.628Z" fill="#5B725B"/>
<path d="M128.055 111.094C128.055 111.094 129.866 112.564 130.26 113.744C130.995 113.718 131.494 113.875 131.783 114.033C132.412 113.692 133.41 114.059 133.41 114.059C133.41 114.059 132.964 113.246 132.859 112.642C132.176 112.327 131.704 111.986 131.52 111.593C130.418 111.593 128.055 111.094 128.055 111.094Z" fill="#9AA69A"/>
<path d="M122.363 114.61C123.465 114.164 125.119 111.514 125.119 111.514C125.119 111.514 124.935 115.397 125.145 116.237C123.649 116.158 122.1 117.339 122.1 117.339C122.1 117.339 122.888 115.712 122.363 114.61Z" fill="#9AA69A"/>
<path d="M120.734 114.453C120.734 114.453 120.918 112.407 122.178 111.515C123.438 110.623 125.958 110.229 125.958 110.229C125.958 110.229 125.197 112.538 123.963 113.378C122.729 114.217 120.734 114.453 120.734 114.453Z" fill="#512176"/>
<path d="M119.186 108.995C119.186 108.995 120.262 109.074 121.26 108.785C124.147 107.945 125.984 110.203 125.984 110.203C125.984 110.203 123.832 110.964 122.388 110.623C120.945 110.282 119.186 108.995 119.186 108.995Z" fill="#642E93"/>
<path d="M121.311 104.98C121.311 104.98 126.456 107.709 125.983 110.202C123.253 110.805 121.862 105.951 121.311 104.98Z" fill="#512176"/>
<path d="M129.633 104.798C129.633 104.798 127.481 105.769 126.667 107.185C125.853 108.602 125.984 110.203 125.984 110.203C125.984 110.203 127.454 109.389 128.399 107.92C129.344 106.451 129.213 105.218 129.633 104.798Z" fill="#642E93"/>
<path d="M133.178 111.121C133.178 111.121 131.839 109.362 129.319 109.205C126.799 109.047 125.985 110.202 125.985 110.202C125.985 110.202 127.272 111.094 128.978 111.488C130.684 111.882 133.178 111.121 133.178 111.121Z" fill="#642E93"/>
<path d="M130.474 114.873C130.474 114.873 129.214 111.62 127.77 110.937C126.327 110.255 125.959 110.229 125.959 110.229C125.959 110.229 125.723 111.934 126.852 113.036C128.006 114.086 130.474 114.873 130.474 114.873Z" fill="#512176"/>
<path d="M126.721 116.789C126.721 116.789 125.041 114.217 124.963 112.748C124.884 111.252 125.986 110.229 125.986 110.229C125.986 110.229 127.062 112.512 127.272 113.614C127.456 114.663 126.511 115.87 126.721 116.789Z" fill="#642E93"/>
<path d="M121.812 109.913C121.812 109.913 123.334 109.23 124.331 109.414C125.355 109.598 125.985 110.202 125.985 110.202C125.985 110.202 125.093 110.989 124.226 110.858C123.36 110.727 121.812 109.913 121.812 109.913Z" fill="#512176"/>
<path d="M125.119 105.112C125.119 105.112 126.405 106.371 126.563 107.657C126.72 108.942 125.959 110.202 125.959 110.202C125.959 110.202 124.83 109.205 124.752 107.814C124.673 106.45 125.119 105.112 125.119 105.112Z" fill="#512176"/>
<path d="M130.369 107.815C130.369 107.815 128.689 107.684 127.508 108.287C126.327 108.891 125.985 110.204 125.985 110.204C125.985 110.204 127.455 110.046 128.505 109.469C129.555 108.891 130.369 107.815 130.369 107.815Z" fill="#512176"/>
<path d="M130.631 112.355C130.631 112.355 129.266 110.675 128.085 110.36C126.904 110.045 125.985 110.203 125.985 110.203C125.985 110.203 126.117 111.095 127.14 111.673C128.164 112.25 130.631 112.355 130.631 112.355Z" fill="#512176"/>
<path d="M124.118 115.134C124.118 115.134 123.855 113.219 124.197 112.038C124.538 110.857 126.008 110.201 126.008 110.201C126.008 110.201 126.323 111.356 126.008 112.484C125.667 113.612 124.118 115.134 124.118 115.134Z" fill="#512176"/>
<path d="M125.544 109.624C125.598 109.458 125.507 109.281 125.342 109.227C125.177 109.174 125 109.264 124.946 109.429C124.892 109.595 124.983 109.772 125.148 109.826C125.313 109.879 125.491 109.789 125.544 109.624Z" fill="#FFE051"/>
<path d="M125.598 110.24C125.656 110.061 125.558 109.869 125.379 109.811C125.2 109.753 125.008 109.851 124.95 110.03C124.891 110.209 124.989 110.401 125.168 110.459C125.347 110.517 125.54 110.419 125.598 110.24Z" fill="#FFE051"/>
<path d="M126.238 110.387C126.296 110.208 126.198 110.016 126.019 109.957C125.84 109.899 125.648 109.997 125.59 110.176C125.532 110.355 125.629 110.547 125.808 110.606C125.988 110.664 126.18 110.566 126.238 110.387Z" fill="#FFE051"/>
<path d="M126.425 109.757C126.483 109.578 126.385 109.386 126.206 109.328C126.027 109.27 125.835 109.368 125.777 109.547C125.719 109.726 125.816 109.918 125.996 109.976C126.175 110.034 126.367 109.936 126.425 109.757Z" fill="#FFE051"/>
<path d="M125.99 109.486C126.043 109.32 125.953 109.143 125.788 109.089C125.622 109.036 125.445 109.126 125.391 109.291C125.337 109.457 125.428 109.634 125.593 109.688C125.758 109.741 125.936 109.651 125.99 109.486Z" fill="#FFE051"/>
<path d="M126.159 109.226C126.199 109.102 126.131 108.969 126.007 108.928C125.883 108.888 125.75 108.956 125.71 109.08C125.67 109.204 125.738 109.337 125.862 109.377C125.986 109.417 126.119 109.35 126.159 109.226Z" fill="#CEAA22"/>
<path d="M125.938 109.865C125.992 109.7 125.902 109.523 125.736 109.469C125.571 109.415 125.394 109.506 125.34 109.671C125.286 109.836 125.377 110.014 125.542 110.067C125.707 110.121 125.885 110.031 125.938 109.865Z" fill="#CEAA22"/>
<path d="M132.099 122.926C132.099 122.926 135.065 122.611 136.036 122.113C136.482 123.162 138.136 124.317 138.136 124.317C138.136 124.317 136.587 124.212 135.695 124.92C134.96 124.396 132.099 122.926 132.099 122.926Z" fill="#5B725B"/>
<path d="M129.687 124.344C129.687 124.344 128.244 125.84 127.089 126.102C127.089 126.758 126.931 127.178 126.774 127.44C127.089 128.017 126.695 128.883 126.695 128.883C126.695 128.883 127.482 128.542 128.06 128.49C128.375 127.912 128.716 127.519 129.11 127.388C129.136 126.417 129.687 124.344 129.687 124.344Z" fill="#9AA69A"/>
<path d="M126.482 119.019C126.876 120.042 129.343 121.721 129.343 121.721C129.343 121.721 125.642 121.249 124.829 121.38C124.934 120.068 123.857 118.599 123.857 118.599C123.857 118.599 125.406 119.386 126.482 119.019Z" fill="#9AA69A"/>
<path d="M126.695 117.575C126.695 117.575 128.637 117.889 129.451 119.096C130.265 120.303 130.58 122.586 130.58 122.586C130.58 122.586 128.375 121.72 127.614 120.566C126.852 119.359 126.695 117.575 126.695 117.575Z" fill="#512176"/>
<path d="M131.917 116.603C131.917 116.603 131.812 117.574 132.048 118.466C132.783 121.09 130.578 122.559 130.578 122.559C130.578 122.559 129.922 120.591 130.263 119.306C130.604 118.02 131.917 116.603 131.917 116.603Z" fill="#642E93"/>
<path d="M135.694 118.807C135.694 118.807 132.964 123.189 130.575 122.559C130.103 120.066 134.775 119.227 135.694 118.807Z" fill="#512176"/>
<path d="M135.671 126.232C135.671 126.232 134.805 124.238 133.467 123.398C132.128 122.558 130.605 122.558 130.605 122.558C130.605 122.558 131.34 123.923 132.732 124.894C134.07 125.891 135.278 125.838 135.671 126.232Z" fill="#642E93"/>
<path d="M129.525 128.882C129.525 128.882 131.231 127.832 131.441 125.602C131.651 123.372 130.575 122.558 130.575 122.558C130.575 122.558 129.682 123.634 129.289 125.13C128.895 126.625 129.525 128.882 129.525 128.882Z" fill="#642E93"/>
<path d="M126.038 126.206C126.038 126.206 129.161 125.34 129.87 124.107C130.552 122.874 130.605 122.559 130.605 122.559C130.605 122.559 128.977 122.218 127.901 123.136C126.825 124.054 126.038 126.206 126.038 126.206Z" fill="#512176"/>
<path d="M124.307 122.69C124.307 122.69 126.801 121.404 128.218 121.43C129.636 121.457 130.607 122.559 130.607 122.559C130.607 122.559 128.402 123.347 127.352 123.425C126.276 123.53 125.173 122.585 124.307 122.69Z" fill="#642E93"/>
<path d="M130.971 118.86C130.971 118.86 131.6 120.277 131.39 121.142C131.18 122.035 130.603 122.533 130.603 122.533C130.603 122.533 129.868 121.693 130.026 120.906C130.157 120.172 130.971 118.86 130.971 118.86Z" fill="#512176"/>
<path d="M135.458 122.192C135.458 122.192 134.224 123.242 132.991 123.268C131.757 123.294 130.576 122.533 130.576 122.533C130.576 122.533 131.547 121.614 132.886 121.641C134.224 121.667 135.458 122.192 135.458 122.192Z" fill="#512176"/>
<path d="M132.758 126.653C132.758 126.653 132.942 125.157 132.39 124.081C131.839 122.979 130.605 122.586 130.605 122.586C130.605 122.586 130.71 123.898 131.235 124.869C131.76 125.839 132.758 126.653 132.758 126.653Z" fill="#512176"/>
<path d="M128.396 126.52C128.396 126.52 130.023 125.418 130.365 124.421C130.706 123.398 130.575 122.558 130.575 122.558C130.575 122.558 129.708 122.585 129.157 123.477C128.606 124.369 128.396 126.52 128.396 126.52Z" fill="#512176"/>
<path d="M125.932 120.512C125.932 120.512 127.769 120.433 128.872 120.827C129.974 121.221 130.578 122.559 130.578 122.559C130.578 122.559 129.475 122.743 128.399 122.375C127.349 122.008 125.932 120.512 125.932 120.512Z" fill="#512176"/>
<path d="M131.538 122.076C131.596 121.928 131.511 121.757 131.349 121.694C131.187 121.631 131.009 121.7 130.952 121.848C130.894 121.997 130.978 122.168 131.14 122.231C131.302 122.294 131.48 122.225 131.538 122.076Z" fill="#FFE051"/>
<path d="M130.979 122.064C131.036 121.915 130.952 121.744 130.79 121.681C130.628 121.618 130.45 121.687 130.392 121.836C130.334 121.984 130.419 122.156 130.581 122.218C130.743 122.281 130.921 122.212 130.979 122.064Z" fill="#FFE051"/>
<path d="M130.829 122.614C130.892 122.452 130.801 122.265 130.625 122.197C130.45 122.129 130.257 122.205 130.194 122.367C130.131 122.529 130.222 122.715 130.397 122.783C130.573 122.852 130.766 122.776 130.829 122.614Z" fill="#FFE051"/>
<path d="M131.419 122.845C131.482 122.683 131.391 122.497 131.215 122.428C131.04 122.36 130.846 122.436 130.783 122.598C130.72 122.76 130.812 122.947 130.987 123.015C131.162 123.083 131.356 123.007 131.419 122.845Z" fill="#FFE051"/>
<path d="M131.645 122.483C131.698 122.348 131.62 122.192 131.472 122.134C131.323 122.076 131.16 122.139 131.108 122.274C131.055 122.409 131.133 122.565 131.281 122.622C131.43 122.68 131.593 122.617 131.645 122.483Z" fill="#FFE051"/>
<path d="M131.825 122.684C131.867 122.576 131.803 122.451 131.682 122.403C131.56 122.356 131.428 122.405 131.386 122.513C131.344 122.621 131.408 122.747 131.529 122.794C131.651 122.842 131.783 122.792 131.825 122.684Z" fill="#CEAA22"/>
<path d="M131.309 122.409C131.367 122.261 131.282 122.09 131.12 122.027C130.959 121.964 130.78 122.033 130.723 122.181C130.665 122.33 130.749 122.501 130.911 122.564C131.073 122.627 131.251 122.558 131.309 122.409Z" fill="#CEAA22"/>
<path d="M122.151 118.597C122.151 118.597 121.338 122.034 121.521 123.293C120.157 123.293 118.162 124.526 118.162 124.526C118.162 124.526 118.897 122.873 118.424 121.561C119.343 121.037 122.151 118.597 122.151 118.597Z" fill="#5B725B"/>
<path d="M121.494 115.239C121.494 115.239 120.365 112.93 120.522 111.539C119.761 111.225 119.341 110.831 119.105 110.542C118.318 110.595 117.478 109.755 117.478 109.755C117.478 109.755 117.556 110.779 117.373 111.434C117.898 112.064 118.213 112.641 118.239 113.114C119.341 113.665 121.494 115.239 121.494 115.239Z" fill="#9AA69A"/>
<path d="M128.873 114.294C127.561 114.215 124.647 116.13 124.647 116.13C124.647 116.13 126.642 112.3 126.826 111.329C128.296 112.09 130.395 111.617 130.395 111.617C130.395 111.617 128.847 112.956 128.873 114.294Z" fill="#9AA69A"/>
<path d="M130.421 115.239C130.421 115.239 129.292 117.233 127.586 117.548C125.88 117.862 123.15 117.101 123.15 117.101C123.15 117.101 124.987 115.107 126.641 114.819C128.295 114.53 130.421 115.239 130.421 115.239Z" fill="#512176"/>
<path d="M129.449 121.457C129.449 121.457 128.399 120.88 127.27 120.722C123.963 120.25 123.175 117.101 123.175 117.101C123.175 117.101 125.695 117.311 127.008 118.335C128.32 119.358 129.449 121.457 129.449 121.457Z" fill="#642E93"/>
<path d="M125.433 124.527C125.433 124.527 121.522 119.41 123.176 117.101C126.194 117.757 125.328 123.32 125.433 124.527Z" fill="#512176"/>
<path d="M116.953 120.906C116.953 120.906 119.578 120.906 121.074 119.856C122.57 118.781 123.174 117.101 123.174 117.101C123.174 117.101 121.336 117.259 119.656 118.282C118.003 119.332 117.583 120.67 116.953 120.906Z" fill="#642E93"/>
<path d="M116.351 112.879C116.351 112.879 116.876 115.267 119.343 116.579C121.81 117.891 123.175 117.104 123.175 117.104C123.175 117.104 122.283 115.582 120.76 114.427C119.212 113.273 116.351 112.879 116.351 112.879Z" fill="#642E93"/>
<path d="M120.817 110.332C120.817 110.332 120.555 114.189 121.71 115.553C122.838 116.918 123.18 117.101 123.18 117.101C123.18 117.101 124.203 115.475 123.6 113.874C122.996 112.274 120.817 110.332 120.817 110.332Z" fill="#512176"/>
<path d="M125.512 110.122C125.512 110.122 126.011 113.481 125.381 115.029C124.777 116.577 123.15 117.102 123.15 117.102C123.15 117.102 123.15 114.294 123.439 113.113C123.78 111.906 125.276 111.145 125.512 110.122Z" fill="#642E93"/>
<path d="M127.244 119.307C127.244 119.307 125.38 119.307 124.461 118.651C123.543 117.994 123.175 117.102 123.175 117.102C123.175 117.102 124.435 116.708 125.249 117.259C126.063 117.811 127.244 119.307 127.244 119.307Z" fill="#512176"/>
<path d="M121.655 122.639C121.655 122.639 120.946 120.776 121.393 119.385C121.839 117.994 123.178 117.076 123.178 117.076C123.178 117.076 123.86 118.598 123.283 120.041C122.731 121.51 121.655 122.639 121.655 122.639Z" fill="#512176"/>
<path d="M117.636 117.494C117.636 117.494 119.263 118.413 120.733 118.334C122.203 118.256 123.174 117.101 123.174 117.101C123.174 117.101 121.626 116.576 120.287 116.681C118.948 116.786 117.636 117.494 117.636 117.494Z" fill="#512176"/>
<path d="M119.502 112.798C119.502 112.798 120.106 115.107 121.129 115.973C122.153 116.839 123.177 117.102 123.177 117.102C123.177 117.102 123.466 116.131 122.704 115.081C121.917 114.058 119.502 112.798 119.502 112.798Z" fill="#512176"/>
<path d="M127.35 113.011C127.35 113.011 126.72 115.083 125.827 116.107C124.935 117.13 123.15 117.13 123.15 117.13C123.15 117.13 123.36 115.818 124.226 114.821C125.066 113.824 127.35 113.011 127.35 113.011Z" fill="#512176"/>
<path d="M123.828 118.39C123.965 118.241 123.956 118.009 123.807 117.871C123.658 117.734 123.426 117.743 123.288 117.892C123.151 118.041 123.16 118.273 123.309 118.411C123.458 118.548 123.691 118.539 123.828 118.39Z" fill="#FFE051"/>
<path d="M124.103 117.768C124.241 117.619 124.231 117.387 124.082 117.25C123.933 117.112 123.701 117.122 123.564 117.271C123.426 117.42 123.436 117.652 123.585 117.789C123.734 117.927 123.966 117.917 124.103 117.768Z" fill="#FFE051"/>
<path d="M123.563 117.337C123.71 117.178 123.7 116.928 123.54 116.781C123.38 116.634 123.131 116.644 122.984 116.804C122.836 116.963 122.846 117.212 123.006 117.36C123.166 117.507 123.415 117.497 123.563 117.337Z" fill="#FFE051"/>
<path d="M123.062 117.872C123.21 117.712 123.2 117.463 123.04 117.316C122.88 117.168 122.631 117.178 122.483 117.338C122.336 117.498 122.346 117.747 122.506 117.894C122.666 118.042 122.915 118.032 123.062 117.872Z" fill="#FFE051"/>
<path d="M123.322 118.308C123.45 118.169 123.441 117.954 123.303 117.826C123.164 117.699 122.949 117.707 122.821 117.846C122.693 117.984 122.702 118.199 122.84 118.327C122.979 118.455 123.194 118.446 123.322 118.308Z" fill="#FFE051"/>
<path d="M122.915 118.378C123.013 118.271 123.007 118.105 122.9 118.007C122.794 117.909 122.628 117.916 122.53 118.022C122.432 118.129 122.438 118.294 122.545 118.393C122.651 118.491 122.817 118.484 122.915 118.378Z" fill="#CEAA22"/>
<path d="M123.56 117.948C123.698 117.799 123.689 117.567 123.539 117.43C123.39 117.293 123.158 117.302 123.021 117.451C122.883 117.6 122.893 117.832 123.042 117.969C123.191 118.107 123.423 118.097 123.56 117.948Z" fill="#CEAA22"/>
<path d="M140.577 123.216C140.577 123.216 141.942 126.076 142.782 126.863C141.811 127.624 141.102 129.592 141.102 129.592C141.102 129.592 140.682 128.018 139.606 127.362C139.973 126.496 140.577 123.216 140.577 123.216Z" fill="#5B725B"/>
<path d="M138.212 121.249C138.212 121.249 136.112 120.278 135.456 119.202C134.747 119.412 134.222 119.385 133.907 119.307C133.382 119.779 132.306 119.674 132.306 119.674C132.306 119.674 132.936 120.356 133.199 120.908C133.934 121.065 134.485 121.275 134.747 121.616C135.797 121.328 138.212 121.249 138.212 121.249Z" fill="#9AA69A"/>
<path d="M142.882 116.472C141.911 117.154 140.939 120.119 140.939 120.119C140.939 120.119 140.178 116.314 139.758 115.527C141.228 115.238 142.436 113.743 142.436 113.743C142.436 113.743 142.094 115.527 142.882 116.472Z" fill="#9AA69A"/>
<path d="M144.484 116.262C144.484 116.262 144.799 118.283 143.801 119.463C142.778 120.644 140.441 121.641 140.441 121.641C140.441 121.641 140.625 119.201 141.623 118.099C142.646 116.944 144.484 116.262 144.484 116.262Z" fill="#512176"/>
<path d="M147.319 121.142C147.319 121.142 146.242 121.326 145.376 121.825C142.778 123.347 140.441 121.588 140.441 121.588C140.441 121.588 142.331 120.328 143.828 120.302C145.324 120.302 147.319 121.142 147.319 121.142Z" fill="#642E93"/>
<path d="M146.217 125.55C146.217 125.55 140.574 124.16 140.416 121.588C142.962 120.381 145.456 124.763 146.217 125.55Z" fill="#512176"/>
<path d="M138.21 127.755C138.21 127.755 140.074 126.285 140.52 124.711C140.967 123.137 140.442 121.615 140.442 121.615C140.442 121.615 139.234 122.743 138.63 124.422C138.027 126.102 138.499 127.23 138.21 127.755Z" fill="#642E93"/>
<path d="M133.252 122.453C133.252 122.453 134.958 123.844 137.452 123.372C139.945 122.899 140.444 121.613 140.444 121.613C140.444 121.613 138.974 121.036 137.242 121.088C135.509 121.141 133.252 122.453 133.252 122.453Z" fill="#642E93"/>
<path d="M134.957 118.175C134.957 118.175 136.952 121.009 138.527 121.324C140.102 121.639 140.443 121.586 140.443 121.586C140.443 121.586 140.259 119.881 138.894 119.094C137.556 118.333 134.957 118.175 134.957 118.175Z" fill="#512176"/>
<path d="M138.164 115.42C138.164 115.42 140.395 117.493 140.841 118.936C141.287 120.353 140.447 121.639 140.447 121.639C140.447 121.639 138.846 119.671 138.4 118.674C137.954 117.677 138.557 116.26 138.164 115.42Z" fill="#642E93"/>
<path d="M144.562 120.88C144.562 120.88 143.25 121.93 142.226 121.982C141.203 122.035 140.441 121.615 140.441 121.615C140.441 121.615 141.098 120.617 141.99 120.565C142.883 120.486 144.562 120.88 144.562 120.88Z" fill="#512176"/>
<path d="M142.493 126.364C142.493 126.364 140.944 125.446 140.472 124.239C139.999 123.032 140.446 121.615 140.446 121.615C140.446 121.615 141.784 122.297 142.204 123.635C142.624 124.947 142.493 126.364 142.493 126.364Z" fill="#512176"/>
<path d="M136.768 124.974C136.768 124.974 138.422 124.712 139.419 123.82C140.417 122.954 140.443 121.589 140.443 121.589C140.443 121.589 139.052 122.088 138.186 122.901C137.293 123.767 136.768 124.974 136.768 124.974Z" fill="#512176"/>
<path d="M135.407 120.645C135.407 120.645 137.139 121.931 138.347 121.958C139.554 121.984 140.42 121.616 140.42 121.616C140.42 121.616 140.079 120.776 138.95 120.461C137.822 120.173 135.407 120.645 135.407 120.645Z" fill="#512176"/>
<path d="M141.072 116.394C141.072 116.394 141.807 118.204 141.755 119.411C141.702 120.618 140.442 121.615 140.442 121.615C140.442 121.615 139.865 120.566 139.891 119.411C139.917 118.23 141.072 116.394 141.072 116.394Z" fill="#512176"/>
<path d="M141.638 122.13C141.65 121.957 141.52 121.807 141.347 121.794C141.173 121.782 141.023 121.913 141.011 122.086C140.998 122.259 141.129 122.41 141.302 122.422C141.475 122.434 141.626 122.304 141.638 122.13Z" fill="#FFE051"/>
<path d="M141.485 121.559C141.498 121.371 141.357 121.208 141.169 121.195C140.981 121.181 140.818 121.323 140.805 121.51C140.792 121.698 140.933 121.861 141.121 121.874C141.308 121.888 141.471 121.746 141.485 121.559Z" fill="#FFE051"/>
<path d="M140.836 121.557C140.849 121.369 140.708 121.206 140.52 121.193C140.332 121.179 140.169 121.321 140.156 121.508C140.143 121.696 140.284 121.859 140.472 121.872C140.659 121.886 140.822 121.744 140.836 121.557Z" fill="#FFE051"/>
<path d="M140.776 122.205C140.79 122.018 140.648 121.855 140.46 121.841C140.273 121.828 140.11 121.97 140.096 122.157C140.083 122.345 140.224 122.508 140.412 122.521C140.6 122.535 140.763 122.393 140.776 122.205Z" fill="#FFE051"/>
<path d="M141.244 122.361C141.256 122.188 141.125 122.038 140.952 122.025C140.779 122.013 140.628 122.144 140.616 122.317C140.604 122.49 140.734 122.641 140.908 122.653C141.081 122.665 141.231 122.535 141.244 122.361Z" fill="#FFE051"/>
<path d="M140.988 122.656C140.997 122.526 140.899 122.413 140.769 122.404C140.639 122.394 140.526 122.492 140.517 122.622C140.508 122.752 140.606 122.865 140.736 122.874C140.866 122.884 140.979 122.786 140.988 122.656Z" fill="#CEAA22"/>
<path d="M141.176 121.993C141.188 121.819 141.057 121.669 140.884 121.657C140.711 121.644 140.56 121.775 140.548 121.948C140.536 122.121 140.666 122.272 140.84 122.284C141.013 122.296 141.163 122.166 141.176 121.993Z" fill="#CEAA22"/>
<path d="M90.7033 115.606C93.512 112.3 105.481 119.279 107.713 122.638C109.944 125.97 123.829 137.724 123.829 137.724L126.953 146.462C126.953 146.462 115.745 146.96 106.689 143.864C97.6593 140.742 87.3172 119.594 90.7033 115.606Z" fill="#72645D"/>
<path d="M157.425 131.689H121.832V164.46H157.425V131.689Z" fill="#FFE051"/>
<path d="M157.425 140.11H121.832V140.635H157.425V140.11Z" fill="#493127"/>
<path d="M138.369 131.689H137.844V164.46H138.369V131.689Z" fill="#493127"/>
<path d="M137.712 140.796L137.843 140.009C137.922 139.51 138.631 135.023 140.153 134.184C140.468 134 140.809 133.974 141.124 134.131C141.439 134.263 141.649 134.525 141.728 134.84C142.043 136.44 138.683 139.851 138.289 140.245L137.712 140.796ZM140.678 134.551C140.573 134.551 140.494 134.577 140.389 134.63C139.471 135.128 138.814 137.647 138.499 139.248C139.812 137.831 141.36 135.784 141.203 134.945C141.177 134.787 141.072 134.682 140.914 134.63C140.836 134.577 140.757 134.551 140.678 134.551Z" fill="#493127"/>
<path d="M137.216 140.373L137.951 139.848C138.135 139.717 142.334 136.621 144.46 137.119C144.933 137.224 145.274 137.487 145.484 137.906C145.589 138.116 145.589 138.352 145.484 138.562C144.775 139.796 139.237 140.242 138.135 140.32L137.216 140.373ZM143.936 137.592C142.492 137.592 140.261 138.93 139.053 139.717C141.468 139.481 144.644 138.982 145.012 138.3C145.038 138.247 145.038 138.221 145.012 138.143C144.88 137.88 144.644 137.696 144.329 137.644C144.198 137.592 144.067 137.592 143.936 137.592Z" fill="#493127"/>
<path d="M144.457 144.309H144.43C142.436 144.283 138.288 141.554 137.842 140.452C137.711 140.137 137.816 139.954 137.895 139.875C138.577 139.14 142.488 140.583 144.299 141.79C145.375 142.499 145.795 143.155 145.533 143.732C145.402 143.994 145.139 144.309 144.457 144.309ZM138.315 140.216C138.446 140.82 141.779 143.26 143.958 143.732C144.378 143.811 144.929 143.863 145.06 143.522C145.165 143.286 144.903 142.892 144.352 142.473C142.462 141.029 138.84 139.954 138.315 140.216Z" fill="#493127"/>
<path d="M141.309 147.877C141.125 147.877 140.915 147.825 140.731 147.72C138.894 146.723 137.923 140.767 137.818 140.085L137.687 139.245L138.264 139.875C138.736 140.373 142.831 144.912 142.438 146.933C142.359 147.3 142.123 147.589 141.781 147.746C141.65 147.825 141.466 147.877 141.309 147.877ZM138.5 140.924C138.894 143.05 139.813 146.644 140.968 147.274C141.178 147.379 141.361 147.379 141.571 147.3C141.781 147.195 141.886 147.064 141.939 146.854C142.201 145.542 139.918 142.577 138.5 140.924Z" fill="#493127"/>
<path d="M135.249 147.195C135.065 147.195 134.882 147.143 134.698 147.011C134.383 146.801 134.225 146.513 134.173 146.146C133.989 144.256 137.559 140.714 137.979 140.321L138.583 139.743L138.425 140.557C138.32 141.16 137.244 146.434 135.643 147.116C135.512 147.169 135.38 147.195 135.249 147.195ZM134.987 146.565C135.144 146.67 135.275 146.67 135.433 146.618C136.404 146.198 137.296 143.181 137.716 141.318C136.483 142.63 134.593 144.912 134.698 146.067C134.724 146.303 134.829 146.46 134.987 146.565Z" fill="#493127"/>
<path d="M132.043 143.995C131.912 143.995 131.78 143.995 131.649 143.968C130.757 143.864 130.415 143.365 130.284 142.971C129.917 141.948 130.415 141.056 131.702 140.453C133.802 139.482 137.87 139.429 138.369 140.348C138.448 140.479 138.5 140.715 138.264 141.056C137.555 142.211 134.169 143.995 132.043 143.995ZM135.77 140.243C134.563 140.243 133.067 140.426 131.938 140.951C130.914 141.423 130.52 142.053 130.783 142.814C131.098 143.706 132.489 143.496 133.277 143.313C135.718 142.709 137.975 141.03 137.923 140.636C137.818 140.4 136.925 140.243 135.77 140.243Z" fill="#493127"/>
<path d="M137.921 140.846C137.737 140.846 137.554 140.793 137.475 140.767C136.005 140.321 132.514 137.75 132.225 136.149C132.146 135.756 132.278 135.415 132.566 135.205C133.59 134.444 135.401 135.782 136.74 137.278C136.976 137.54 139.05 139.928 138.341 140.662C138.236 140.82 138.079 140.846 137.921 140.846ZM133.275 135.52C133.118 135.52 132.986 135.572 132.881 135.651C132.645 135.834 132.671 136.202 133.013 136.7C134.141 138.484 137.527 140.557 138 140.321C138.157 140.033 137.055 138.117 135.375 136.648C134.509 135.913 133.8 135.52 133.275 135.52Z" fill="#493127"/>
<path d="M108.501 171.545C108.501 171.545 117.924 192.667 121.494 202.742C125.064 212.818 126.691 222.893 125.72 225.805C124.749 228.718 107.582 263.903 107.582 263.903L90.4679 264.638C90.4679 264.638 102.989 232.968 103.304 227.773C103.619 222.578 84.1157 171.571 84.1157 171.571H108.501V171.545Z" fill="#032240"/>
<path d="M108.498 171.545C108.498 171.545 88.3388 225.149 86.0814 227.747C83.7977 230.345 51.3017 244.644 51.3017 244.644L43.1646 232.286C43.1646 232.286 71.7758 217.986 72.0907 215.074C72.4057 212.162 72.0907 171.545 72.0907 171.545H108.498Z" fill="#032240"/>
<path d="M38.9653 235.698L44.3988 234.123L49.3861 241.68C49.3861 241.68 51.3285 251.126 51.801 252.097C52.2997 253.067 50.4886 255.009 50.4886 255.009L38.9653 235.698Z" fill="#6B3425"/>
<path d="M93.8286 269.649L95.3248 264.191L104.381 263.903C104.381 263.903 113.436 267.183 114.513 267.288C115.589 267.393 116.324 269.911 116.324 269.911L93.8286 269.649Z" fill="#6B3425"/>
<path d="M75.8478 111.748C81.465 108.364 97.4505 111.748 100.39 118.885C103.33 126.022 103.278 150.082 105.089 157.219C106.9 164.356 116.612 182.644 116.35 185.819C116.087 188.994 71.8054 188.731 70.178 183.221C68.5243 177.711 63.9833 118.911 75.8478 111.748Z" fill="#84766E"/>
<path d="M79.625 119.016C83.8773 122.033 92.3032 151.184 95.2168 151.84C98.1305 152.496 128.054 156.379 130.968 155.408C133.881 154.438 140.181 151.84 139.63 153.126C139.079 154.411 134.538 156.694 135.824 157.035C137.136 157.35 142.386 156.379 142.517 158.662C142.648 160.945 143.567 164.198 141.467 164.198C139.367 164.198 130.941 162.257 128.999 162.571C127.057 162.886 95.1906 167.111 92.277 164.198C89.3633 161.286 73.0891 136.91 72.1179 129.433C71.1467 121.955 77.2889 117.389 79.625 119.016Z" fill="#F69576"/>
<path d="M72.0374 118.676C78.9146 115.265 84.1644 119.017 89.0467 130.693C93.9289 142.369 96.5276 148.85 99.1262 149.191C101.725 149.532 114.718 150.503 115.715 151.474C116.713 152.445 118.97 164.724 117.343 165.564C115.715 166.43 96.5538 167.952 90.7003 165.564C84.8468 163.176 69.9113 131.664 68.5988 128.07C67.2601 124.554 68.5988 120.408 72.0374 118.676Z" fill="#8E7C73"/>
<path d="M93.0911 105.215L95.716 122.06H79.8354C79.8354 122.06 80.5967 115.369 81.4891 111.013C82.3816 106.684 83.1428 105.215 83.1428 105.215H93.0911Z" fill="#F69576"/>
<path d="M86.1624 109.806C86.1624 109.806 86.0312 112.902 88.0786 114.266C90.126 115.631 94.6933 115.657 94.6933 115.657L93.0658 105.24H86.3724C86.3724 105.214 85.8999 107.838 86.1624 109.806Z" fill="#DD866F"/>
<path d="M95.3456 84.8007C95.3456 84.8007 97.3668 86.4537 98.233 90.127C98.9155 92.9608 98.758 95.9782 99.0992 97.6836C99.4404 99.3891 100.018 102.092 99.5454 104.453C99.073 106.815 96.973 110.042 93.062 111.144C89.1771 112.246 85.9748 111.459 83.8224 108.73C81.67 106.027 79.0189 101.173 78.2314 97.7886C77.4439 94.4039 76.9977 88.0542 80.5938 85.2467C85.1873 81.6783 90.6733 81.6521 95.3456 84.8007Z" fill="#F69576"/>
<path d="M88.8906 106.474C88.8906 106.474 89.0744 107.576 90.2293 107.603C91.4105 107.629 92.6442 107.235 93.2742 106.736C93.8779 106.238 94.2716 105.45 94.2716 105.45L88.8906 106.474Z" fill="white"/>
<path d="M91.62 101.253C91.515 101.253 91.41 101.227 91.3575 101.174C91.2001 101.043 91.1738 100.781 91.1738 100.623C91.1738 100.597 91.1738 100.571 91.1738 100.544C91.1475 100.571 91.0688 100.623 90.9638 100.728C90.8588 100.859 90.7013 100.912 90.5438 100.859C90.3338 100.807 90.1763 100.597 90.1238 100.308C90.0189 99.8356 90.4651 99.0482 90.5176 98.9694C90.5438 98.9169 90.6226 98.8907 90.7013 98.9169C90.7538 98.9432 90.7801 99.0219 90.7538 99.1007C90.6226 99.3107 90.3338 99.9406 90.3863 100.256C90.4388 100.466 90.5438 100.571 90.6226 100.597C90.7013 100.623 90.7538 100.571 90.7801 100.544C90.9638 100.334 91.1213 100.256 91.2263 100.256C91.305 100.256 91.3575 100.308 91.3838 100.361C91.41 100.413 91.41 100.492 91.4363 100.597C91.4363 100.728 91.4363 100.886 91.515 100.964C91.5413 100.991 91.62 100.991 91.6988 100.991C91.8825 100.964 91.9088 100.833 91.8825 100.518C91.8825 100.387 91.8825 100.256 91.9613 100.203C91.9875 100.177 92.04 100.151 92.0925 100.151C92.1975 100.151 92.2762 100.229 92.355 100.282C92.5125 100.413 92.5912 100.439 92.6962 100.334C92.7487 100.282 92.775 100.177 92.775 100.046C92.7487 99.6519 92.4862 99.1269 92.3025 98.9957C92.25 98.9432 92.2238 98.8644 92.2763 98.8119C92.3288 98.7594 92.4075 98.7332 92.46 98.7857C92.7225 98.9957 93.0112 99.5994 93.0375 100.046C93.0375 100.282 93.0112 100.439 92.88 100.544C92.5912 100.807 92.355 100.623 92.1975 100.518C92.1713 100.492 92.145 100.492 92.145 100.466C92.145 100.492 92.145 100.518 92.145 100.518C92.145 100.754 92.1713 101.174 91.725 101.253C91.6725 101.253 91.6463 101.253 91.62 101.253Z" fill="#6B3425"/>
<path d="M72.2746 95.3475C73.482 92.3563 82.2491 95.0589 80.6217 100.569C78.968 106.21 70.5159 99.7555 72.2746 95.3475Z" fill="#F69576"/>
<path d="M78.997 101.253C78.9708 101.253 78.9445 101.253 78.9183 101.227C78.8658 101.175 78.8658 101.096 78.9183 101.043C79.2858 100.65 79.3645 99.3905 78.892 98.1835C78.577 97.3177 77.7633 95.8483 75.8734 95.6122C74.8497 95.481 74.141 95.6647 73.7473 96.1107C73.1435 96.7929 73.4323 97.8949 73.4323 97.9211C73.4585 97.9999 73.406 98.0523 73.3273 98.0786C73.2485 98.1048 73.196 98.0523 73.1698 97.9736C73.1435 97.9211 72.8548 96.7142 73.5373 95.927C74.0098 95.4023 74.7972 95.1924 75.8997 95.3236C77.3958 95.5072 78.577 96.5043 79.1545 98.0786C79.6008 99.3118 79.6008 100.702 79.1283 101.227C79.0758 101.253 79.0233 101.253 78.997 101.253Z" fill="#6B3425"/>
<path d="M75.8426 100.778C75.7901 100.778 75.7376 100.752 75.7114 100.699C75.6589 100.594 74.6876 98.1802 76.1313 95.4777C76.1576 95.4252 76.2363 95.399 76.3151 95.4252C76.3676 95.4514 76.3938 95.5302 76.3676 95.6089C74.9764 98.2065 75.9476 100.594 75.9476 100.594C75.9738 100.673 75.9476 100.725 75.8688 100.778H75.8426Z" fill="#6B3425"/>
<path d="M87.3699 98.7082C87.6309 98.7082 87.8424 98.2733 87.8424 97.737C87.8424 97.2006 87.6309 96.7657 87.3699 96.7657C87.109 96.7657 86.8975 97.2006 86.8975 97.737C86.8975 98.2733 87.109 98.7082 87.3699 98.7082Z" fill="#6B3425"/>
<path d="M85.1368 95.1652C85.5043 94.8502 86.2918 94.4302 87.0792 94.3515C87.9454 94.2727 88.4704 94.6664 88.8117 94.7452C89.1529 94.8239 89.2054 94.3515 89.0216 93.9315C88.8379 93.5115 88.1029 93.1965 86.8955 93.249C85.6881 93.3015 85.0318 93.8265 84.7168 94.194C84.4019 94.5615 84.6118 95.6114 85.1368 95.1652Z" fill="#A5713D"/>
<path d="M94.7713 98.4452C95.0323 98.4452 95.2438 98.0104 95.2438 97.474C95.2438 96.9376 95.0323 96.5028 94.7713 96.5028C94.5104 96.5028 94.2988 96.9376 94.2988 97.474C94.2988 98.0104 94.5104 98.4452 94.7713 98.4452Z" fill="#6B3425"/>
<path d="M93.0089 94.8258C93.3764 94.5108 94.1638 94.0908 94.9513 94.0121C95.8175 93.9334 96.3425 94.3271 96.6837 94.4058C97.025 94.4846 97.0775 94.0121 96.8937 93.5921C96.71 93.1721 95.975 92.8572 94.7676 92.9097C93.5601 92.9622 92.9039 93.4871 92.5889 93.8546C92.2739 94.2221 92.4839 95.2458 93.0089 94.8258Z" fill="#A5713D"/>
<path d="M103.827 116.654C103.302 115.342 99.4692 112.089 98.2355 111.643C96.0044 110.829 97.0018 116.077 87.3947 116.654C81.62 116.995 79.4938 109.386 76.2915 109.386C76.0028 109.386 75.084 110.252 74.0341 111.433C72.1179 110.068 68.3381 108.074 63.7708 109.386C57.1299 111.301 54.925 120.826 50.8564 120.275C46.7878 119.724 45.2129 115.657 45.2129 115.657V127.412C45.2129 127.412 48.0215 130.35 53.0875 129.406C58.1536 128.461 59.571 120.118 63.2458 118.071C65.267 116.943 68.2069 117.074 70.4118 117.389C70.4118 117.415 70.4118 117.467 70.4118 117.494C70.648 119.435 79.8088 125.628 89.1534 125.391C98.498 125.155 104.351 117.94 103.827 116.654Z" fill="white"/>
<mask id="mask0_131_1442" style="mask-type:luminance" maskUnits="userSpaceOnUse" x="45" y="108" width="59" height="22">
<path d="M103.833 116.649C103.308 115.338 99.476 112.084 98.2423 111.638C96.0112 110.825 97.0086 116.072 87.4016 116.649C81.6268 116.991 79.5007 109.381 76.2983 109.381C76.0096 109.381 75.0909 110.247 74.0409 111.428C72.1248 110.064 68.3449 108.07 63.7776 109.381C57.1367 111.297 54.9318 120.821 50.8632 120.27C46.7947 119.719 45.2197 115.652 45.2197 115.652V127.407C45.2197 127.407 48.0284 130.346 53.0944 129.401C58.1604 128.457 59.5778 120.113 63.2527 118.066C65.2738 116.938 68.2137 117.069 70.4186 117.384C70.4186 117.41 70.4186 117.463 70.4186 117.489C70.6548 119.431 79.8157 125.623 89.1602 125.387C98.5048 125.151 104.358 117.935 103.833 116.649Z" fill="white"/>
</mask>
<g mask="url(#mask0_131_1442)">
<path d="M53.0658 111.876H48.6035V134.31H53.0658V111.876Z" fill="#512176"/>
</g>
<mask id="mask1_131_1442" style="mask-type:luminance" maskUnits="userSpaceOnUse" x="45" y="108" width="59" height="22">
<path d="M103.833 116.649C103.308 115.338 99.476 112.084 98.2423 111.638C96.0112 110.825 97.0086 116.072 87.4016 116.649C81.6268 116.991 79.5007 109.381 76.2983 109.381C76.0096 109.381 75.0909 110.247 74.0409 111.428C72.1248 110.064 68.3449 108.07 63.7776 109.381C57.1367 111.297 54.9318 120.821 50.8632 120.27C46.7947 119.719 45.2197 115.652 45.2197 115.652V127.407C45.2197 127.407 48.0284 130.346 53.0944 129.401C58.1604 128.457 59.5778 120.113 63.2527 118.066C65.2738 116.938 68.2137 117.069 70.4186 117.384C70.4186 117.41 70.4186 117.463 70.4186 117.489C70.6548 119.431 79.8157 125.623 89.1602 125.387C98.5048 125.151 104.358 117.935 103.833 116.649Z" fill="white"/>
</mask>
<g mask="url(#mask1_131_1442)">
<path d="M58.684 108.937H56.9253V130.61H58.684V108.937Z" fill="#512176"/>
</g>
<mask id="mask2_131_1442" style="mask-type:luminance" maskUnits="userSpaceOnUse" x="45" y="108" width="59" height="22">
<path d="M103.833 116.649C103.308 115.338 99.476 112.084 98.2423 111.638C96.0112 110.825 97.0086 116.072 87.4016 116.649C81.6268 116.991 79.5007 109.381 76.2983 109.381C76.0096 109.381 75.0909 110.247 74.0409 111.428C72.1248 110.064 68.3449 108.07 63.7776 109.381C57.1367 111.297 54.9318 120.821 50.8632 120.27C46.7947 119.719 45.2197 115.652 45.2197 115.652V127.407C45.2197 127.407 48.0284 130.346 53.0944 129.401C58.1604 128.457 59.5778 120.113 63.2527 118.066C65.2738 116.938 68.2137 117.069 70.4186 117.384C70.4186 117.41 70.4186 117.463 70.4186 117.489C70.6548 119.431 79.8157 125.623 89.1602 125.387C98.5048 125.151 104.358 117.935 103.833 116.649Z" fill="white"/>
</mask>
<g mask="url(#mask2_131_1442)">
<path d="M66.3717 106.996H62.1719V124.235H66.3717V106.996Z" fill="#512176"/>
</g>
<mask id="mask3_131_1442" style="mask-type:luminance" maskUnits="userSpaceOnUse" x="45" y="108" width="59" height="22">
<path d="M103.833 116.649C103.308 115.338 99.476 112.084 98.2423 111.638C96.0112 110.825 97.0086 116.072 87.4016 116.649C81.6268 116.991 79.5007 109.381 76.2983 109.381C76.0096 109.381 75.0909 110.247 74.0409 111.428C72.1248 110.064 68.3449 108.07 63.7776 109.381C57.1367 111.297 54.9318 120.821 50.8632 120.27C46.7947 119.719 45.2197 115.652 45.2197 115.652V127.407C45.2197 127.407 48.0284 130.346 53.0944 129.401C58.1604 128.457 59.5778 120.113 63.2527 118.066C65.2738 116.938 68.2137 117.069 70.4186 117.384C70.4186 117.41 70.4186 117.463 70.4186 117.489C70.6548 119.431 79.8157 125.623 89.1602 125.387C98.5048 125.151 104.358 117.935 103.833 116.649Z" fill="white"/>
</mask>
<g mask="url(#mask3_131_1442)">
<path d="M72.0465 105.472H70.2354V123.077H72.0465V105.472Z" fill="#512176"/>
</g>
<mask id="mask4_131_1442" style="mask-type:luminance" maskUnits="userSpaceOnUse" x="45" y="108" width="59" height="22">
<path d="M103.833 116.649C103.308 115.338 99.476 112.084 98.2423 111.638C96.0112 110.825 97.0086 116.072 87.4016 116.649C81.6268 116.991 79.5007 109.381 76.2983 109.381C76.0096 109.381 75.0909 110.247 74.0409 111.428C72.1248 110.064 68.3449 108.07 63.7776 109.381C57.1367 111.297 54.9318 120.821 50.8632 120.27C46.7947 119.719 45.2197 115.652 45.2197 115.652V127.407C45.2197 127.407 48.0284 130.346 53.0944 129.401C58.1604 128.457 59.5778 120.113 63.2527 118.066C65.2738 116.938 68.2137 117.069 70.4186 117.384C70.4186 117.41 70.4186 117.463 70.4186 117.489C70.6548 119.431 79.8157 125.623 89.1602 125.387C98.5048 125.151 104.358 117.935 103.833 116.649Z" fill="white"/>
</mask>
<g mask="url(#mask4_131_1442)">
<path d="M83.0152 107.363H77.7129V126.648H83.0152V107.363Z" fill="#512176"/>
</g>
<mask id="mask5_131_1442" style="mask-type:luminance" maskUnits="userSpaceOnUse" x="45" y="108" width="59" height="22">
<path d="M103.833 116.649C103.308 115.338 99.476 112.084 98.2423 111.638C96.0112 110.825 97.0086 116.072 87.4016 116.649C81.6268 116.991 79.5007 109.381 76.2983 109.381C76.0096 109.381 75.0909 110.247 74.0409 111.428C72.1248 110.064 68.3449 108.07 63.7776 109.381C57.1367 111.297 54.9318 120.821 50.8632 120.27C46.7947 119.719 45.2197 115.652 45.2197 115.652V127.407C45.2197 127.407 48.0284 130.346 53.0944 129.401C58.1604 128.457 59.5778 120.113 63.2527 118.066C65.2738 116.938 68.2137 117.069 70.4186 117.384C70.4186 117.41 70.4186 117.463 70.4186 117.489C70.6548 119.431 79.8157 125.623 89.1602 125.387C98.5048 125.151 104.358 117.935 103.833 116.649Z" fill="white"/>
</mask>
<g mask="url(#mask5_131_1442)">
<path d="M90.0517 114.262H88.083V128.273H90.0517V114.262Z" fill="#512176"/>
</g>
<mask id="mask6_131_1442" style="mask-type:luminance" maskUnits="userSpaceOnUse" x="45" y="108" width="59" height="22">
<path d="M103.833 116.649C103.308 115.338 99.476 112.084 98.2423 111.638C96.0112 110.825 97.0086 116.072 87.4016 116.649C81.6268 116.991 79.5007 109.381 76.2983 109.381C76.0096 109.381 75.0909 110.247 74.0409 111.428C72.1248 110.064 68.3449 108.07 63.7776 109.381C57.1367 111.297 54.9318 120.821 50.8632 120.27C46.7947 119.719 45.2197 115.652 45.2197 115.652V127.407C45.2197 127.407 48.0284 130.346 53.0944 129.401C58.1604 128.457 59.5778 120.113 63.2527 118.066C65.2738 116.938 68.2137 117.069 70.4186 117.384C70.4186 117.41 70.4186 117.463 70.4186 117.489C70.6548 119.431 79.8157 125.623 89.1602 125.387C98.5048 125.151 104.358 117.935 103.833 116.649Z" fill="white"/>
</mask>
<g mask="url(#mask6_131_1442)">
<path d="M99.7356 110.432H94.6958V124.233H99.7356V110.432Z" fill="#512176"/>
</g>
<path d="M91.9614 76.4325C101.883 80.447 101.201 87.7412 99.7311 88.5283C98.6286 89.1318 92.4077 85.9045 86.0817 88.5283C77.9446 91.8868 76.6059 101.936 74.0597 101.28C71.5136 100.624 70.9624 90.4962 71.2774 84.9599C72.0386 71.5784 70.9099 67.9313 91.9614 76.4325Z" fill="white"/>
<path d="M71.4097 93.2755C71.4884 94.0626 71.5672 94.8498 71.6722 95.5845C73.6671 92.4883 77.3681 87.5293 82.4604 84.302C88.1302 80.7074 95.0074 80.5762 98.4197 80.8123C97.8422 80.1301 97.1335 79.4479 96.2673 78.792C92.6712 79.2643 85.899 80.445 81.5417 83.1213C77.2894 85.7714 73.4046 90.5467 71.4097 93.2755Z" fill="#512176"/>
<path d="M73.0619 76.4582C75.6424 76.4582 77.7342 74.3672 77.7342 71.7878C77.7342 69.2084 75.6424 67.1174 73.0619 67.1174C70.4815 67.1174 68.3896 69.2084 68.3896 71.7878C68.3896 74.3672 70.4815 76.4582 73.0619 76.4582Z" fill="#512176"/>
</svg>
