<svg width="375" height="308" viewBox="0 0 375 308" fill="none" xmlns="http://www.w3.org/2000/svg">
<path d="M169.758 54.3854C187.92 57.8203 222.139 -12.2948 260.012 3.1756C297.886 18.646 270.052 68.4923 283.562 79.6625C297.071 90.8327 334.077 56.4568 349.636 92.5633C365.195 128.67 341.541 167.346 341.199 173.35C340.857 179.355 383.856 211.633 371.923 256.078C359.991 300.523 201.534 304.823 144.974 306.527C88.414 308.232 12.7993 308.101 1.65549 261.768C-9.48829 215.435 41.1318 175.081 45.8101 162.128C50.4884 149.175 8.14727 104.101 61.2379 48.6954C102.317 5.82393 151.597 50.9504 169.758 54.3854Z" fill="#9ECBDD"/>
<path d="M27.2822 186.592H350.899C345.406 179.801 341.121 175.238 341.227 173.324L36.8753 174.819C34.0368 178.28 30.7252 182.239 27.2822 186.592Z" fill="#1C4563"/>
<path d="M84.3676 172.8C84.3676 172.8 79.5053 163.439 90.544 162.364C89.3875 154.891 100.216 143.642 119.008 148.441C122.188 140.312 140.113 125.943 152.571 143.432C176.304 133.468 179.721 147.811 176.54 150.381C194.964 147.051 191.732 159.663 188.604 161.053C212.994 155.835 209.63 172.8 209.63 172.8H84.3676Z" fill="white"/>
<path d="M212.572 68.1531C212.572 68.1531 210.654 63.2236 215.017 62.6729C214.57 58.7398 218.854 52.84 226.292 55.3573C227.554 51.0832 234.65 43.5315 239.591 52.7351C249 47.5171 250.34 55.0426 249.079 56.3799C256.385 54.6231 255.098 61.257 253.862 61.9912C263.534 59.2642 262.194 68.1531 262.194 68.1531H212.572Z" fill="white"/>
<path d="M1.70824 261.741C12.852 308.074 88.493 308.231 145.027 306.5C201.56 304.77 360.018 300.496 371.976 256.051C380.097 225.818 362.804 201.196 351.003 186.67H27.2285C12.1424 205.759 -5.33547 232.557 1.70824 261.741Z" fill="#E7D0B0"/>
<path d="M12.5906 207.7C3.33921 223.564 -3.04744 242.128 1.68341 261.742C12.8272 308.075 88.4682 308.232 145.002 306.501C201.536 304.771 359.993 300.497 371.951 256.052C376.945 237.461 372.319 220.994 365.302 207.7H12.5906Z" fill="#3D3B38"/>
<path d="M146.525 230.856H126.813V234.815H146.525V230.856Z" fill="white"/>
<path d="M217.225 230.856H197.513V234.815H217.225V230.856Z" fill="white"/>
<path d="M193.57 230.856H173.858V234.815H193.57V230.856Z" fill="white"/>
<path d="M122.871 230.856H103.16V234.815H122.871V230.856Z" fill="white"/>
<path d="M99.2167 230.856H82.1331V234.815H99.2167V230.856Z" fill="white"/>
<path d="M78.1897 230.856H58.4778V234.815H78.1897V230.856Z" fill="white"/>
<path d="M54.5365 230.856H34.8246V234.815H54.5365V230.856Z" fill="white"/>
<path d="M169.915 230.856H150.466V234.815H169.915V230.856Z" fill="white"/>
<path d="M354.683 230.856H334.971V234.815H354.683V230.856Z" fill="white"/>
<path d="M30.8817 230.856H6.83325V234.815H30.8817V230.856Z" fill="white"/>
<path d="M331.03 230.856H311.318V234.815H331.03V230.856Z" fill="white"/>
<path d="M363.199 230.856H358.626V234.815H363.199V230.856Z" fill="white"/>
<path d="M285.56 230.856H265.848V234.815H285.56V230.856Z" fill="white"/>
<path d="M261.905 230.856H242.193V234.815H261.905V230.856Z" fill="white"/>
<path d="M238.25 230.856H221.166V234.815H238.25V230.856Z" fill="white"/>
<path d="M307.373 230.856H289.501V234.815H307.373V230.856Z" fill="white"/>
<path d="M134.96 184.022L64.3918 187.168L50.5934 172.222L60.8436 155.31L134.96 160.423V184.022Z" fill="#6B3425"/>
<path d="M131.018 155.31H127.076V213.914H131.018V155.31Z" fill="#6B3425"/>
<path d="M249.289 183.445L319.858 186.592L333.656 171.646L323.406 154.733L249.289 159.847V183.445Z" fill="#6B3425"/>
<path d="M253.244 213.312L257.187 213.312L257.187 154.708L253.244 154.708L253.244 213.312Z" fill="#6B3425"/>
<path d="M74.2066 164.301L76.9138 171.977H77.0207L79.7279 164.301H80.8855L77.5372 173.42H76.3973L73.049 164.301H74.2066ZM82.1634 173.42V166.581H83.2142V173.42H82.1634ZM82.6977 165.441C82.4929 165.441 82.3163 165.371 82.1679 165.232C82.0224 165.092 81.9497 164.924 81.9497 164.728C81.9497 164.533 82.0224 164.365 82.1679 164.225C82.3163 164.086 82.4929 164.016 82.6977 164.016C82.9026 164.016 83.0777 164.086 83.2231 164.225C83.3716 164.365 83.4458 164.533 83.4458 164.728C83.4458 164.924 83.3716 165.092 83.2231 165.232C83.0777 165.371 82.9026 165.441 82.6977 165.441ZM86.1897 164.301V173.42H85.1389V164.301H86.1897ZM89.1651 164.301V173.42H88.1143V164.301H89.1651ZM93.1023 173.58C92.669 173.58 92.2756 173.499 91.9224 173.335C91.5692 173.169 91.2887 172.93 91.0809 172.618C90.8731 172.304 90.7692 171.924 90.7692 171.479C90.7692 171.087 90.8464 170.769 91.0007 170.526C91.1551 170.279 91.3614 170.086 91.6196 169.947C91.8779 169.807 92.1628 169.703 92.4745 169.635C92.7892 169.564 93.1053 169.508 93.4229 169.466C93.8385 169.413 94.1754 169.373 94.4337 169.346C94.6949 169.316 94.8849 169.267 95.0036 169.199C95.1253 169.131 95.1862 169.012 95.1862 168.843V168.807C95.1862 168.368 95.0659 168.026 94.8255 167.783C94.588 167.54 94.2274 167.418 93.7435 167.418C93.2419 167.418 92.8486 167.528 92.5636 167.747C92.2786 167.967 92.0783 168.201 91.9625 168.451L90.9651 168.095C91.1432 167.679 91.3807 167.355 91.6775 167.124C91.9773 166.889 92.3038 166.726 92.6571 166.634C93.0133 166.539 93.3636 166.492 93.7079 166.492C93.9276 166.492 94.1799 166.518 94.4648 166.572C94.7528 166.622 95.0303 166.728 95.2975 166.888C95.5676 167.048 95.7917 167.29 95.9698 167.614C96.1479 167.937 96.237 168.371 96.237 168.914V173.42H95.1862V172.494H95.1327C95.0615 172.642 94.9428 172.801 94.7765 172.97C94.6103 173.139 94.3892 173.283 94.1131 173.402C93.837 173.521 93.5001 173.58 93.1023 173.58ZM93.2626 172.636C93.6782 172.636 94.0285 172.555 94.3135 172.391C94.6014 172.228 94.8181 172.017 94.9635 171.759C95.112 171.501 95.1862 171.229 95.1862 170.944V169.983C95.1416 170.036 95.0437 170.085 94.8923 170.129C94.7439 170.171 94.5717 170.208 94.3758 170.241C94.1828 170.27 93.9944 170.297 93.8103 170.321C93.6292 170.342 93.4823 170.36 93.3695 170.374C93.0964 170.41 92.8411 170.468 92.6037 170.548C92.3692 170.625 92.1792 170.742 92.0337 170.9C91.8912 171.054 91.82 171.265 91.82 171.532C91.82 171.897 91.9551 172.173 92.2252 172.36C92.4983 172.544 92.8441 172.636 93.2626 172.636ZM100.916 176.127C100.408 176.127 99.9716 176.062 99.6065 175.931C99.2414 175.804 98.9371 175.634 98.6937 175.424C98.4533 175.216 98.2618 174.993 98.1193 174.756L98.9564 174.168C99.0514 174.293 99.1716 174.435 99.3171 174.595C99.4625 174.759 99.6614 174.9 99.9137 175.018C100.169 175.14 100.503 175.201 100.916 175.201C101.468 175.201 101.923 175.067 102.282 174.8C102.642 174.533 102.821 174.115 102.821 173.545V172.155H102.732C102.655 172.28 102.545 172.434 102.403 172.618C102.263 172.8 102.061 172.961 101.797 173.104C101.536 173.243 101.183 173.313 100.737 173.313C100.185 173.313 99.6896 173.182 99.2503 172.921C98.8139 172.66 98.4681 172.28 98.2128 171.781C97.9605 171.283 97.8343 170.677 97.8343 169.965C97.8343 169.264 97.9575 168.654 98.2039 168.135C98.4503 167.612 98.7931 167.209 99.2325 166.924C99.6718 166.636 100.179 166.492 100.755 166.492C101.201 166.492 101.554 166.566 101.815 166.714C102.079 166.86 102.281 167.026 102.421 167.213C102.563 167.397 102.673 167.548 102.75 167.667H102.857V166.581H103.872V173.616C103.872 174.204 103.738 174.681 103.471 175.05C103.207 175.421 102.851 175.692 102.403 175.864C101.957 176.04 101.462 176.127 100.916 176.127ZM100.88 172.369C101.301 172.369 101.658 172.273 101.949 172.08C102.239 171.887 102.461 171.609 102.612 171.247C102.763 170.885 102.839 170.452 102.839 169.947C102.839 169.454 102.765 169.019 102.616 168.642C102.468 168.265 102.248 167.97 101.957 167.756C101.667 167.542 101.307 167.436 100.88 167.436C100.435 167.436 100.064 167.548 99.7668 167.774C99.4729 168 99.2518 168.302 99.1033 168.682C98.9579 169.062 98.8852 169.484 98.8852 169.947C98.8852 170.422 98.9594 170.842 99.1078 171.207C99.2592 171.569 99.4818 171.854 99.7757 172.062C100.073 172.267 100.441 172.369 100.88 172.369ZM108.663 173.562C108.004 173.562 107.436 173.417 106.958 173.126C106.483 172.832 106.116 172.423 105.858 171.897C105.603 171.369 105.475 170.754 105.475 170.054C105.475 169.353 105.603 168.736 105.858 168.201C106.116 167.664 106.475 167.246 106.935 166.946C107.399 166.643 107.939 166.492 108.556 166.492C108.912 166.492 109.264 166.551 109.611 166.67C109.959 166.789 110.275 166.981 110.56 167.249C110.845 167.513 111.072 167.863 111.241 168.299C111.41 168.736 111.495 169.273 111.495 169.911V170.357H106.223V169.448H110.426C110.426 169.062 110.349 168.718 110.195 168.415C110.043 168.112 109.827 167.873 109.545 167.698C109.266 167.523 108.936 167.436 108.556 167.436C108.138 167.436 107.776 167.54 107.47 167.747C107.167 167.952 106.934 168.219 106.771 168.549C106.607 168.878 106.526 169.232 106.526 169.608V170.214C106.526 170.731 106.615 171.168 106.793 171.528C106.974 171.884 107.225 172.155 107.545 172.342C107.866 172.526 108.239 172.618 108.663 172.618C108.939 172.618 109.188 172.58 109.411 172.503C109.637 172.423 109.831 172.304 109.994 172.146C110.158 171.986 110.284 171.787 110.373 171.55L111.388 171.835C111.281 172.179 111.102 172.482 110.849 172.743C110.597 173.001 110.285 173.203 109.914 173.349C109.543 173.491 109.126 173.562 108.663 173.562Z" fill="white"/>
<path d="M272.318 174.016V164.897H275.4C276.115 164.897 276.7 165.026 277.154 165.284C277.611 165.539 277.949 165.885 278.169 166.322C278.389 166.758 278.499 167.245 278.499 167.782C278.499 168.319 278.389 168.808 278.169 169.247C277.952 169.686 277.617 170.036 277.163 170.298C276.709 170.556 276.127 170.685 275.417 170.685H273.209V169.706H275.382C275.872 169.706 276.265 169.621 276.562 169.452C276.859 169.283 277.074 169.054 277.207 168.766C277.344 168.475 277.412 168.147 277.412 167.782C277.412 167.417 277.344 167.09 277.207 166.802C277.074 166.514 276.857 166.289 276.557 166.126C276.257 165.959 275.86 165.876 275.364 165.876H273.423V174.016H272.318ZM282.148 174.176C281.714 174.176 281.321 174.094 280.968 173.931C280.614 173.765 280.334 173.526 280.126 173.214C279.918 172.9 279.814 172.52 279.814 172.074C279.814 171.682 279.892 171.365 280.046 171.121C280.2 170.875 280.407 170.682 280.665 170.543C280.923 170.403 281.208 170.299 281.52 170.231C281.834 170.16 282.15 170.103 282.468 170.062C282.884 170.008 283.221 169.968 283.479 169.941C283.74 169.912 283.93 169.863 284.049 169.795C284.17 169.726 284.231 169.608 284.231 169.438V169.403C284.231 168.963 284.111 168.622 283.871 168.379C283.633 168.135 283.273 168.014 282.789 168.014C282.287 168.014 281.894 168.123 281.609 168.343C281.324 168.563 281.123 168.797 281.008 169.047L280.01 168.69C280.188 168.275 280.426 167.951 280.723 167.72C281.022 167.485 281.349 167.322 281.702 167.23C282.058 167.135 282.409 167.087 282.753 167.087C282.973 167.087 283.225 167.114 283.51 167.168C283.798 167.218 284.075 167.323 284.343 167.484C284.613 167.644 284.837 167.886 285.015 168.209C285.193 168.533 285.282 168.966 285.282 169.51V174.016H284.231V173.089H284.178C284.107 173.238 283.988 173.397 283.822 173.566C283.655 173.735 283.434 173.879 283.158 173.998C282.882 174.117 282.545 174.176 282.148 174.176ZM282.308 173.232C282.723 173.232 283.074 173.15 283.359 172.987C283.647 172.824 283.863 172.613 284.009 172.355C284.157 172.097 284.231 171.825 284.231 171.54V170.578C284.187 170.632 284.089 170.681 283.937 170.725C283.789 170.767 283.617 170.804 283.421 170.836C283.228 170.866 283.04 170.893 282.855 170.917C282.674 170.937 282.527 170.955 282.415 170.97C282.142 171.006 281.886 171.064 281.649 171.144C281.414 171.221 281.224 171.338 281.079 171.495C280.936 171.65 280.865 171.861 280.865 172.128C280.865 172.493 281 172.769 281.27 172.956C281.543 173.14 281.889 173.232 282.308 173.232ZM287.2 174.016V167.176H288.215V168.209H288.287C288.411 167.871 288.637 167.596 288.963 167.386C289.29 167.175 289.658 167.07 290.068 167.07C290.145 167.07 290.241 167.071 290.357 167.074C290.473 167.077 290.56 167.081 290.62 167.087V168.156C290.584 168.147 290.502 168.134 290.375 168.116C290.25 168.095 290.118 168.085 289.979 168.085C289.646 168.085 289.349 168.155 289.088 168.294C288.83 168.431 288.625 168.621 288.474 168.864C288.325 169.104 288.251 169.379 288.251 169.688V174.016H287.2ZM291.865 174.016V167.176H292.916V174.016H291.865ZM292.4 166.037C292.195 166.037 292.018 165.967 291.87 165.827C291.724 165.688 291.652 165.52 291.652 165.324C291.652 165.128 291.724 164.961 291.87 164.821C292.018 164.681 292.195 164.612 292.4 164.612C292.604 164.612 292.78 164.681 292.925 164.821C293.073 164.961 293.148 165.128 293.148 165.324C293.148 165.52 293.073 165.688 292.925 165.827C292.78 165.967 292.604 166.037 292.4 166.037ZM299.685 168.708L298.741 168.975C298.682 168.818 298.594 168.665 298.479 168.517C298.366 168.365 298.211 168.241 298.015 168.143C297.82 168.045 297.569 167.996 297.263 167.996C296.844 167.996 296.496 168.092 296.217 168.285C295.941 168.475 295.803 168.717 295.803 169.011C295.803 169.272 295.898 169.478 296.087 169.63C296.277 169.781 296.574 169.907 296.978 170.008L297.993 170.258C298.605 170.406 299.06 170.633 299.36 170.939C299.66 171.242 299.81 171.632 299.81 172.11C299.81 172.502 299.697 172.852 299.471 173.161C299.249 173.469 298.937 173.713 298.536 173.891C298.136 174.069 297.67 174.158 297.138 174.158C296.441 174.158 295.863 174.007 295.406 173.704C294.949 173.401 294.66 172.959 294.538 172.377L295.535 172.128C295.63 172.496 295.81 172.772 296.074 172.956C296.341 173.14 296.69 173.232 297.12 173.232C297.61 173.232 297.999 173.128 298.287 172.92C298.578 172.71 298.723 172.457 298.723 172.163C298.723 171.926 298.64 171.727 298.474 171.567C298.308 171.403 298.053 171.282 297.708 171.202L296.568 170.934C295.942 170.786 295.482 170.556 295.188 170.244C294.897 169.93 294.752 169.536 294.752 169.064C294.752 168.678 294.86 168.337 295.077 168.04C295.296 167.743 295.595 167.51 295.972 167.341C296.352 167.172 296.782 167.087 297.263 167.087C297.94 167.087 298.471 167.236 298.857 167.533C299.246 167.829 299.522 168.221 299.685 168.708Z" fill="white"/>
<path d="M99.8984 75.3369C99.8984 75.3369 99.3202 69.9354 102.763 66.8938C107.31 62.8557 111.042 64.1668 111.042 64.1668C111.042 64.1668 111.121 60.7842 115.852 58.1621C120.583 55.54 124.63 57.7688 124.63 57.7688C124.63 57.7688 119.61 56.6151 115.694 59.683C111.673 62.8295 117.008 65.6614 114.406 68.0213C111.778 70.4336 109.281 64.8485 104.945 67.2084C100.293 69.7781 99.8984 75.3369 99.8984 75.3369Z" fill="#657377"/>
<path d="M198.409 191.156C184.899 190.317 178.408 143.749 181.351 108.612C184.295 73.5023 191.312 27.2483 194.834 26.0684C198.356 24.8884 202.456 67.6288 204.217 81.6833C205.978 95.7378 217.227 192.336 198.409 191.156Z" fill="#5F750E"/>
<path d="M198.408 185.886H194.912V206.967H198.408V185.886Z" fill="#6B3425"/>
<path d="M230.917 192.412C219.142 191.677 213.518 151.113 216.067 120.54C218.616 89.9658 224.74 49.6903 227.815 48.6676C230.89 47.645 234.465 84.8527 235.989 97.098C237.514 109.343 247.317 193.434 230.917 192.412Z" fill="#5F750E"/>
<path d="M230.917 187.825H227.868V206.179H230.917V187.825Z" fill="#6B3425"/>
<path d="M163.557 190.997C150.626 190.184 144.45 145.661 147.236 112.098C150.048 78.5087 156.776 34.2999 160.141 33.1987C163.505 32.0712 167.421 72.9236 169.103 86.375C170.811 99.774 181.535 192.125 163.557 190.997Z" fill="#5F750E"/>
<path d="M163.531 185.962H160.193V206.1H163.531V185.962Z" fill="#6B3425"/>
<path d="M198.409 191.156C184.899 190.317 178.408 143.749 181.351 108.612C184.295 73.5023 191.312 27.2483 194.834 26.0684C198.356 24.8884 202.456 67.6288 204.217 81.6833C205.978 95.7378 217.227 192.336 198.409 191.156Z" fill="#5F750E"/>
<path d="M198.408 185.886H194.912V206.967H198.408V185.886Z" fill="#6B3425"/>
<path d="M211.492 184.231L112.539 182.448C112.539 182.448 112.539 184.992 113.8 185.621C115.062 186.25 116.586 186.513 116.455 187.535C116.323 188.558 110.147 196.031 104.601 202.507C99.0558 208.984 95.5076 215.198 95.0083 217.873C94.5089 220.547 94.5089 221.046 93.4839 221.806C92.4851 222.566 89.1998 224.087 87.1761 228.65C85.1523 233.212 85.2837 233.973 85.0209 237.145C84.7581 240.318 84.2587 255.422 84.2587 255.422L301.746 261.505C301.878 261.111 306.556 234.733 306.162 230.8C305.794 226.867 296.937 219.499 284.085 216.326C271.206 213.153 248.235 208.066 247.473 207.83C246.711 207.594 211.492 184.231 211.492 184.231Z" fill="#0C96FD"/>
<path d="M84.7581 240.317C84.4953 243.49 84.2587 255.421 84.2587 255.421L301.746 261.504C301.852 261.189 304.191 248.682 305.058 240.265C305.058 240.265 274.15 228.046 256.83 227.076C239.483 226.105 214.935 235.65 197.221 234.47C179.507 233.29 156.746 223.195 136.692 223.195C116.639 223.195 84.7581 240.317 84.7581 240.317Z" fill="#1D7DCC"/>
<path d="M111.146 246.295H82.7607C82.7607 246.295 81.6306 251.618 82.7607 254.555C83.8909 257.466 87.5704 261.399 94.6141 261.661C101.684 261.923 302.272 262.159 302.272 262.159C302.272 262.159 304.296 260.376 305.557 255.42C306.819 250.465 304.716 244.119 304.716 244.119C304.716 244.119 303.166 246.899 296.727 248.052C290.287 249.206 266.318 248.55 266.318 248.55L245.87 258.567L137.823 255.132L111.146 246.295Z" fill="#2D2D2D"/>
<path d="M116.454 187.509C116.454 187.509 113.3 189.292 110.777 191.941C108.254 194.589 105.941 200.908 105.941 200.908C105.941 200.908 118.426 189.109 116.454 187.509Z" fill="#2D2D2D"/>
<path d="M104.076 212.917C102.052 211.238 94.2199 214.7 93.852 217.348C93.484 220.022 100.291 220.521 101.421 219.498C102.551 218.475 105.469 214.044 104.076 212.917Z" fill="#7D009B"/>
<path d="M135.377 218.345C135.377 221.99 146.757 221.99 146.757 218.634C146.757 214.543 135.377 215.12 135.377 218.345Z" fill="#1D7DCC"/>
<path d="M130.592 219.997H142.813C143.023 219.997 143.207 219.813 143.207 219.603V217.348C143.207 217.139 143.023 216.955 142.813 216.955H130.592C130.382 216.955 130.198 217.139 130.198 217.348V219.603C130.198 219.813 130.382 219.997 130.592 219.997Z" fill="#878FB3"/>
<path d="M234.987 205.025L212.148 188.532C212.148 188.532 145.127 187.509 138.189 187.509C127.965 187.509 121.657 191.941 121.657 197.159C121.657 202.35 135.666 202.35 145.522 202.35C155.377 202.35 234.987 205.025 234.987 205.025Z" fill="#2D2D2D"/>
<path d="M253.412 241.471H253.176V220.048L234.909 205.128L235.067 204.945L253.412 219.943V241.471Z" fill="#024168"/>
<path d="M231.572 203.635C231.519 202.481 229.679 199.335 227.077 199.335C224.475 199.335 224.502 206.939 226.263 207.437C228.05 207.962 231.703 206.31 231.572 203.635Z" fill="#F1F3F2"/>
<path d="M168.206 254.922H167.97V224.951L171.754 203.423L171.991 203.45L168.206 224.977V254.922Z" fill="#024168"/>
<path d="M124.259 250.623H124.023V224.454L128.28 201.458L128.517 201.511L124.259 224.481V250.623Z" fill="#024168"/>
<path d="M286.554 217.005C286.554 217.005 294.439 222.171 295.464 224.976C296.462 227.756 297.724 230.299 298.355 230.43C298.986 230.562 306.187 230.824 306.187 230.824C306.187 230.824 307.002 224.636 305.95 223.928C304.899 223.22 289.524 215.511 286.554 217.005Z" fill="#F1F3F2"/>
<path d="M288.499 237.643H296.016C296.279 237.643 296.516 237.433 296.516 237.145V234.313C296.516 234.051 296.305 233.815 296.016 233.815H288.499C288.237 233.815 288 234.025 288 234.313V237.145C288 237.433 288.21 237.643 288.499 237.643Z" fill="#878FB3"/>
<path d="M185.866 218.345C185.866 221.99 197.246 221.99 197.246 218.634C197.246 214.543 185.866 215.12 185.866 218.345Z" fill="#1D7DCC"/>
<path d="M181.083 219.997H193.305C193.515 219.997 193.699 219.813 193.699 219.603V217.348C193.699 217.139 193.515 216.955 193.305 216.955H181.083C180.873 216.955 180.689 217.139 180.689 217.348V219.603C180.715 219.813 180.873 219.997 181.083 219.997Z" fill="#878FB3"/>
<path d="M172.514 187.979H171.331V203.03H172.514V187.979Z" fill="#024168"/>
<path d="M128.517 201.51H127.703V189.527L128.517 189.16V201.51Z" fill="#024168"/>
<path d="M113.774 261.898C113.484 260.403 113.327 258.856 113.327 257.257C113.327 243.307 124.654 232.032 138.61 232.032C152.566 232.032 163.894 243.334 163.894 257.257C163.894 258.856 163.737 260.403 163.447 261.898H113.774Z" fill="#024168"/>
<path d="M138.611 275.899C150.398 275.899 159.953 266.367 159.953 254.608C159.953 242.849 150.398 233.316 138.611 233.316C126.825 233.316 117.27 242.849 117.27 254.608C117.27 266.367 126.825 275.899 138.611 275.899Z" fill="black"/>
<path d="M138.611 268.951C146.551 268.951 152.988 262.53 152.988 254.609C152.988 246.687 146.551 240.266 138.611 240.266C130.672 240.266 124.235 246.687 124.235 254.609C124.235 262.53 130.672 268.951 138.611 268.951Z" fill="#606060"/>
<path d="M138.612 264.599C144.143 264.599 148.626 260.126 148.626 254.609C148.626 249.091 144.143 244.619 138.612 244.619C133.082 244.619 128.599 249.091 128.599 254.609C128.599 260.126 133.082 264.599 138.612 264.599Z" fill="black"/>
<path d="M150.78 262.343C150.228 263.235 149.571 264.074 148.782 264.834C148.072 265.542 147.284 266.172 146.469 266.696L126.626 246.82C127.152 246.008 127.782 245.247 128.492 244.539C129.28 243.779 130.122 243.123 131.015 242.546L150.78 262.343Z" fill="#A8A9AD"/>
<path d="M146.653 242.705C147.521 243.282 148.362 243.937 149.124 244.724C149.834 245.458 150.438 246.219 150.964 247.058L130.753 266.566C129.938 266.016 129.202 265.386 128.492 264.678C127.73 263.892 127.099 263.026 126.547 262.135L146.653 242.705Z" fill="#A8A9AD"/>
<path d="M228.627 261.898C228.338 260.403 228.18 258.856 228.18 257.257C228.18 243.307 239.508 232.032 253.464 232.032C267.42 232.032 278.748 243.334 278.748 257.257C278.748 258.856 278.59 260.403 278.301 261.898H228.627Z" fill="#024168"/>
<path d="M253.463 275.899C265.249 275.899 274.804 266.367 274.804 254.608C274.804 242.849 265.249 233.316 253.463 233.316C241.676 233.316 232.121 242.849 232.121 254.608C232.121 266.367 241.676 275.899 253.463 275.899Z" fill="black"/>
<path d="M253.463 268.951C261.403 268.951 267.839 262.53 267.839 254.609C267.839 246.687 261.403 240.266 253.463 240.266C245.523 240.266 239.086 246.687 239.086 254.609C239.086 262.53 245.523 268.951 253.463 268.951Z" fill="#606060"/>
<path d="M253.464 264.599C258.994 264.599 263.477 260.126 263.477 254.609C263.477 249.091 258.994 244.619 253.464 244.619C247.933 244.619 243.45 249.091 243.45 254.609C243.45 260.126 247.933 264.599 253.464 264.599Z" fill="black"/>
<path d="M265.631 262.343C265.079 263.235 264.422 264.074 263.633 264.834C262.924 265.542 262.135 266.172 261.321 266.696L241.477 246.82C242.003 246.008 242.634 245.247 243.343 244.539C244.132 243.779 244.973 243.123 245.866 242.546L265.631 262.343Z" fill="#A8A9AD"/>
<path d="M261.505 242.705C262.372 243.282 263.213 243.937 263.975 244.724C264.685 245.458 265.289 246.219 265.815 247.058L245.604 266.566C244.789 266.016 244.053 265.386 243.344 264.678C242.581 263.892 241.951 263.026 241.399 262.135L261.505 242.705Z" fill="#A8A9AD"/>
<path d="M203.343 180.507C203.343 180.507 200.005 179.17 197.009 181.923C195.011 183.785 195.668 188.898 196.825 190.498C197.981 192.071 202.397 194.536 202.397 194.536C202.397 194.536 214.933 181.425 203.343 180.507Z" fill="#A5713D"/>
<path d="M204.997 197.421C202.999 197.788 200.66 198.391 199.556 199.414C198.216 200.646 198.899 204.265 205.601 203.347C212.277 202.456 211.515 199.414 210.674 198.601C209.438 197.474 206.521 197.159 204.997 197.421Z" fill="#F69576"/>
<path d="M206.809 192.806L209.595 200.856L201.763 202.271C201.763 202.271 201.553 198.915 201.605 196.713C201.658 194.51 201.894 193.697 201.894 193.697L206.809 192.806Z" fill="#F69576"/>
<path d="M203.815 195.69C203.815 195.69 204.025 197.237 205.155 197.709C206.285 198.181 208.546 197.788 208.546 197.788L206.811 192.806L203.499 193.409C203.526 193.409 203.526 194.746 203.815 195.69Z" fill="#DD866F"/>
<path d="M206.101 182.579C206.101 182.579 207.231 183.208 207.993 184.939C208.572 186.276 208.782 187.771 209.097 188.584C209.413 189.396 209.938 190.681 209.912 191.887C209.886 193.094 209.15 194.877 207.31 195.742C205.497 196.633 203.841 196.529 202.553 195.375C201.265 194.221 199.504 192.071 198.821 190.498C198.137 188.924 197.349 185.83 198.873 184.126C200.845 181.95 203.525 181.451 206.101 182.579Z" fill="#F69576"/>
<path d="M204.315 192.543C204.315 192.543 204.709 193.645 205.419 193.75C206.128 193.855 206.785 193.593 207.022 193.147C207.258 192.701 207.285 191.966 207.285 191.966L204.315 192.543Z" fill="white"/>
<path d="M205.733 190.997C205.681 190.997 205.628 190.997 205.602 190.971C205.497 190.918 205.47 190.787 205.47 190.708V190.682C205.444 190.708 205.418 190.735 205.392 190.787C205.339 190.866 205.286 190.892 205.208 190.892C205.102 190.892 204.997 190.787 204.945 190.656C204.866 190.42 204.997 190 205.024 189.974C205.024 189.948 205.076 189.921 205.102 189.921C205.129 189.921 205.155 189.974 205.155 190C205.102 190.105 205.024 190.446 205.076 190.603C205.129 190.708 205.181 190.761 205.208 190.761C205.234 190.761 205.26 190.735 205.286 190.708C205.365 190.577 205.418 190.525 205.497 190.525C205.523 190.525 205.575 190.525 205.602 190.551C205.628 190.577 205.628 190.603 205.654 190.656C205.654 190.708 205.681 190.813 205.733 190.813C205.759 190.813 205.786 190.813 205.812 190.813C205.891 190.787 205.891 190.708 205.865 190.577C205.838 190.498 205.838 190.446 205.865 190.42C205.891 190.394 205.891 190.394 205.943 190.394C205.996 190.394 206.049 190.42 206.075 190.446C206.18 190.498 206.206 190.498 206.259 190.446C206.285 190.42 206.285 190.367 206.259 190.289C206.206 190.105 206.049 189.869 205.943 189.816C205.917 189.79 205.891 189.764 205.917 189.738C205.943 189.712 205.97 189.685 205.996 189.712C206.154 189.79 206.338 190.053 206.39 190.289C206.417 190.394 206.417 190.499 206.364 190.551C206.259 190.708 206.101 190.63 206.022 190.603C206.022 190.603 205.996 190.603 205.996 190.577V190.603C206.022 190.708 206.075 190.918 205.865 190.997C205.786 190.997 205.759 190.997 205.733 190.997Z" fill="#6B3425"/>
<path d="M195.693 189.815C196.008 188.242 200.581 188.793 200.266 191.651C199.95 194.561 195.22 192.149 195.693 189.815Z" fill="#F69576"/>
<path d="M199.53 192.124C199.504 192.124 199.504 192.124 199.477 192.124C199.451 192.098 199.425 192.072 199.451 192.045C199.582 191.809 199.53 191.206 199.188 190.629C198.952 190.235 198.426 189.58 197.453 189.632C196.954 189.658 196.612 189.816 196.455 190.078C196.218 190.471 196.455 190.996 196.455 190.996C196.481 191.022 196.455 191.075 196.428 191.075C196.402 191.101 196.35 191.075 196.35 191.049C196.35 191.022 196.087 190.471 196.35 190.026C196.534 189.711 196.902 189.553 197.453 189.527C198.189 189.475 198.873 189.868 199.293 190.603C199.635 191.18 199.74 191.862 199.556 192.15C199.556 192.124 199.53 192.124 199.53 192.124Z" fill="#6B3425"/>
<path d="M197.926 192.177C197.9 192.177 197.873 192.177 197.847 192.151C197.821 192.098 197.111 190.997 197.584 189.554C197.584 189.528 197.637 189.501 197.663 189.501C197.689 189.501 197.716 189.554 197.716 189.58C197.269 190.97 197.952 192.072 197.952 192.072C197.978 192.098 197.978 192.151 197.926 192.177Z" fill="#6B3425"/>
<path d="M203.432 190.128C203.56 190.105 203.626 189.878 203.58 189.621C203.533 189.365 203.391 189.175 203.263 189.199C203.134 189.222 203.068 189.449 203.114 189.705C203.161 189.962 203.303 190.151 203.432 190.128Z" fill="#6B3425"/>
<path d="M202.001 188.583C202.159 188.399 202.5 188.137 202.894 188.006C203.315 187.875 203.604 188.032 203.788 188.032C203.972 188.032 203.946 187.796 203.814 187.612C203.683 187.429 203.289 187.35 202.71 187.481C202.132 187.612 201.843 187.927 201.712 188.137C201.58 188.373 201.791 188.845 202.001 188.583Z" fill="#6B3425"/>
<path d="M207.056 189.339C207.185 189.316 207.251 189.089 207.205 188.833C207.158 188.576 207.016 188.387 206.887 188.41C206.759 188.433 206.692 188.66 206.739 188.917C206.786 189.173 206.928 189.363 207.056 189.339Z" fill="#6B3425"/>
<path d="M205.838 187.718C205.996 187.534 206.337 187.272 206.732 187.141C207.152 187.01 207.441 187.167 207.625 187.167C207.809 187.167 207.783 186.931 207.652 186.748C207.52 186.564 207.126 186.485 206.548 186.616C205.969 186.748 205.68 187.062 205.549 187.272C205.418 187.482 205.628 187.98 205.838 187.718Z" fill="#6B3425"/>
<path d="M208.441 193.225L208.152 193.356C208.152 193.356 207.784 194.589 207.337 194.903C206.89 195.218 205.313 195.428 205.103 195.297C204.893 195.165 204.131 194.012 204.131 194.012L203.763 194.169C203.763 194.169 204.656 195.873 204.788 196.031C204.866 196.109 206.023 196.634 206.443 196.608C206.864 196.555 208.125 195.533 208.152 195.375C208.283 194.825 208.441 193.225 208.441 193.225Z" fill="#6B3425"/>
<path d="M206.757 194.247L206.047 194.352L206.258 195.584L206.81 195.611L206.757 194.247Z" fill="#6B3425"/>
<path d="M198.165 182.238C198.165 182.238 200.347 184.912 204.946 184.335C214.539 183.155 209.23 178.645 209.23 178.645C209.23 178.645 209.835 179.983 208.205 180.376C205.971 180.874 201.503 174.686 198.165 182.238Z" fill="#A5713D"/>
</svg>
