<svg width="375" height="308" viewBox="0 0 375 308" fill="none" xmlns="http://www.w3.org/2000/svg">
<path d="M169.758 54.4069C187.92 57.8433 222.139 -12.3002 260.013 3.1765C297.886 18.6532 270.052 68.5196 283.562 79.6943C297.071 90.869 334.077 56.4793 349.636 92.6003C365.195 128.721 341.541 167.413 341.199 173.42C340.857 179.427 383.856 211.718 371.923 256.181C359.991 300.644 201.534 304.946 144.974 306.651C88.4141 308.356 12.7993 308.225 1.65551 261.873C-9.48827 215.522 41.1318 175.151 45.8101 162.193C50.4884 149.234 8.14729 104.142 61.2379 48.7147C102.317 5.8259 151.597 50.9706 169.758 54.4069Z" fill="#9ECBDD"/>
<path d="M123.502 190.943C124.133 190.786 124.79 190.733 125.421 190.681C133.095 189.946 140.744 189.186 148.418 188.504C149.338 188.425 149.522 188.11 149.496 187.271C149.443 185.697 149.469 184.149 149.469 182.549C151.335 182.549 153.044 182.549 154.831 182.549C154.857 182.89 154.884 183.152 154.884 183.441C154.91 183.73 154.936 183.992 154.936 184.254C156.802 184.543 156.802 184.543 156.802 182.811C156.802 174.68 156.802 166.522 156.802 158.39C156.802 157.918 156.802 157.445 156.802 156.973C157.512 156.947 158.038 156.921 158.563 156.895C158.616 156.475 158.642 156.16 158.668 155.819C158.957 155.793 159.22 155.74 159.457 155.74C161.454 155.74 161.454 155.74 162.085 153.852C162.243 153.379 162.453 153.17 162.952 153.196C163.688 153.248 164.398 153.196 165.239 153.196C165.239 149.602 165.239 146.166 165.239 142.677C165.843 142.651 166.343 142.624 166.895 142.598C166.947 142.021 167 141.523 167.079 140.919C168.051 140.919 168.971 140.919 169.97 140.919C169.97 139.923 169.97 139.031 169.97 138.113C170.495 138.113 170.942 138.113 171.494 138.113C171.494 145.956 171.494 153.747 171.494 161.564C172.072 161.59 172.545 161.642 173.071 161.669C173.071 162.193 173.071 162.639 173.071 163.164C174.044 163.164 174.963 163.164 175.857 163.164C175.962 163.531 176.041 163.793 176.12 164.03C176.698 164.056 177.197 164.082 177.802 164.108C177.802 166.023 177.802 167.833 177.802 169.696C178.512 169.696 179.142 169.748 179.747 169.669C180.456 169.591 180.851 169.853 181.192 170.456C181.35 170.745 181.823 170.928 182.165 170.981C182.69 171.06 183.269 170.981 183.794 171.007C183.978 171.007 184.189 171.138 184.373 171.217C184.662 171.348 184.898 171.532 185.187 171.61C185.476 171.689 185.818 171.663 186.212 171.689C186.212 175.729 186.212 179.716 186.212 183.677C187.343 183.677 188.394 183.677 189.55 183.677C189.55 182.156 189.55 180.739 189.55 179.349C191.39 179.349 193.098 179.349 194.912 179.349C194.912 180.792 194.912 182.156 194.912 183.546C196.725 183.441 196.883 183.284 196.883 181.71C196.883 179.428 196.883 177.145 196.883 174.863C196.883 174.286 196.883 173.735 196.883 173.158C198.907 173.158 200.799 173.158 202.744 173.158C202.744 174.522 202.744 175.834 202.744 177.145C202.744 178.509 202.981 178.746 204.505 178.903C204.505 176.883 204.505 174.863 204.505 172.791C204.216 172.738 203.953 172.686 203.69 172.634C203.69 172.214 203.69 171.847 203.69 171.374C204.321 171.374 204.899 171.374 205.372 171.374C205.451 171.243 205.504 171.217 205.504 171.217C205.53 167.912 205.53 164.607 205.53 161.275C205.53 161.118 205.425 160.829 205.346 160.803C204.4 160.619 204.952 159.99 204.873 159.518C205.372 159.465 205.767 159.439 206.292 159.387C206.292 158.363 206.292 157.367 206.292 156.396C206.739 156.344 207.081 156.291 207.422 156.265C207.475 155.898 207.527 155.609 207.58 155.294C207.974 155.294 208.316 155.294 208.631 155.294C208.71 155.662 208.763 155.976 208.815 156.265C209.761 156.265 210.655 156.265 211.522 156.265C211.575 155.871 211.628 155.583 211.706 155.242C212.101 155.268 212.416 155.268 212.758 155.294C212.81 155.662 212.863 155.95 212.942 156.291C213.862 156.291 214.755 156.291 215.622 156.291C215.675 155.924 215.728 155.609 215.806 155.268C216.201 155.294 216.542 155.294 216.831 155.321C216.91 155.74 216.989 156.029 217.042 156.317C217.83 156.317 218.566 156.317 219.302 156.317C219.355 155.95 219.407 155.635 219.433 155.373C219.828 155.373 220.169 155.373 220.485 155.373C220.564 155.74 220.616 156.055 220.669 156.344C221.536 156.344 222.351 156.344 223.192 156.344C223.218 156.003 223.271 155.688 223.297 155.347C223.665 155.347 224.007 155.347 224.375 155.347C224.453 155.714 224.532 156.029 224.611 156.344C225.373 156.344 226.083 156.344 226.819 156.344C226.871 156.003 226.924 155.688 226.95 155.347C227.318 155.347 227.66 155.347 228.028 155.347C228.08 155.714 228.133 156.003 228.186 156.317C229.132 156.317 230.025 156.317 230.893 156.317C230.971 155.95 231.024 155.635 231.077 155.347C231.471 155.347 231.76 155.347 232.102 155.347C232.154 155.688 232.207 156.003 232.259 156.344C233.179 156.344 234.073 156.344 234.993 156.344C235.019 155.976 235.072 155.688 235.098 155.347C235.492 155.347 235.834 155.347 236.202 155.347C236.254 155.688 236.307 156.003 236.359 156.344C236.727 156.37 237.069 156.422 237.516 156.449C237.516 157.472 237.516 158.468 237.516 159.465C238.015 159.518 238.436 159.544 238.909 159.596C238.777 160.121 239.198 160.751 238.331 160.908C238.252 160.934 238.199 161.301 238.199 161.511C238.173 162.22 238.199 162.928 238.199 163.636C238.199 166.207 238.199 168.777 238.199 171.401C238.882 171.453 239.461 171.479 240.091 171.506C240.091 171.951 240.091 172.319 240.091 172.686C239.776 172.738 239.54 172.791 239.224 172.843C239.224 173.84 239.172 174.811 239.25 175.755C239.277 176.227 239.566 176.699 239.75 177.145C239.855 177.119 239.986 177.093 240.091 177.067C240.091 179.008 240.091 180.975 240.091 182.969C240.538 183.021 240.959 183.074 241.458 183.126C241.458 183.808 241.458 184.464 241.458 185.198C242.273 184.884 242.615 184.464 242.588 183.651C242.509 182.287 242.562 180.896 242.562 179.48C243.771 179.48 244.875 179.48 246.084 179.48C246.084 182.313 246.084 185.041 246.084 187.848C246.504 187.848 246.82 187.848 247.319 187.848C247.319 186.012 247.319 184.254 247.319 182.444C248.292 182.444 249.133 182.444 250.105 182.444C250.105 183.362 250.079 184.228 250.131 185.094C250.131 185.33 250.263 185.671 250.447 185.776C251.13 186.143 251.866 186.458 252.76 186.851C252.76 185.015 252.76 183.362 252.76 181.71C254.468 181.71 256.071 181.71 257.753 181.71C257.753 182.182 257.701 182.602 257.78 183.021C257.806 183.284 257.964 183.677 258.121 183.703C259.015 183.913 258.962 184.543 258.936 185.198C258.91 185.618 258.936 186.012 258.936 186.458C259.83 186.458 260.618 186.458 261.485 186.458C261.485 185.776 261.485 185.172 261.485 184.569C262.326 184.569 263.089 184.569 263.93 184.569C263.93 185.225 263.93 185.828 263.93 186.405C264.639 186.458 264.876 186.195 264.85 185.566C264.797 184.307 264.85 183.021 264.85 181.762C265.822 181.762 266.637 181.762 267.53 181.762C267.53 182.418 267.504 182.995 267.557 183.546C267.583 183.782 267.741 184.175 267.898 184.228C268.818 184.438 268.766 185.094 268.739 185.802C268.713 186.117 268.739 186.431 268.739 186.746C269.055 186.615 269.134 186.51 269.239 186.353C272.734 181.028 276.256 175.729 279.752 170.404C280.277 169.617 280.803 168.856 281.276 168.069C281.776 167.23 281.513 166.233 280.908 165.551C280.672 165.289 280.751 164.738 280.698 164.318C281.092 164.213 281.381 164.161 281.644 164.082C281.644 163.059 281.644 162.062 281.644 161.092C281.355 161.013 281.118 160.934 280.856 160.882C281.776 160.698 282.669 160.672 283.563 160.724C284.062 160.751 284.404 160.619 284.614 160.121C285.035 159.177 285.534 158.285 285.928 157.34C287.952 152.54 289.187 147.53 290.317 142.467C290.501 141.654 290.344 140.972 289.713 140.631C288.53 139.975 289.161 139.031 289.03 138.165C289.634 138.139 290.107 138.113 290.58 138.086C290.528 138.008 290.475 137.929 290.422 137.85C290.712 137.562 291.001 137.273 291.264 136.958C291.395 136.775 291.5 136.513 291.526 136.25C292.867 128.669 293.918 121.062 294.26 113.376C294.654 104.93 294.838 96.483 295.022 88.0102C295.127 83.9967 295.048 79.9833 295.048 75.9698C294.155 75.6026 293.997 74.9206 294.365 72.927C294.943 72.9007 295.548 72.8745 296.126 72.8483C294.286 72.0351 295.206 70.5136 294.996 69.5168C295.39 69.2283 295.653 69.0447 295.889 68.8348C296.31 68.4938 296.651 68.0216 297.124 67.7593C297.676 67.4708 297.782 67.1035 297.782 66.5264C297.755 63.4311 297.755 60.362 297.782 57.2667C297.782 56.9781 297.913 56.6896 297.992 56.4272C298.123 56.4535 298.255 56.4797 298.386 56.5059C298.386 56.847 298.386 57.188 298.386 57.529C298.386 60.5456 298.386 63.5885 298.412 66.6051C298.412 66.9199 298.57 67.3396 298.807 67.5757C299.306 68.1003 299.884 68.5725 300.436 69.0447C300.646 69.2021 300.935 69.2545 301.225 69.3857C301.067 70.5661 301.829 72.0351 300.147 72.8483C300.725 72.9007 301.303 72.927 301.934 72.9794C301.96 73.3204 301.987 73.5565 301.987 73.8188C301.987 74.291 302.013 74.7894 301.96 75.2616C301.934 75.4452 301.777 75.6026 301.671 75.7862C301.514 76.0748 301.198 76.3633 301.198 76.6519C301.172 91.6039 300.988 106.582 302.591 121.482C302.907 124.315 303.196 127.174 303.695 130.007C304.168 132.735 303.932 135.673 305.771 138.113C306.166 138.139 306.639 138.165 307.191 138.191C307.191 138.559 307.191 138.873 307.191 139.188C307.191 139.529 307.191 139.896 307.191 140.159C306.823 140.421 306.534 140.578 306.271 140.788C305.404 141.444 305.824 142.283 306.008 143.07C307.27 148.763 308.715 154.376 311.291 159.649C311.685 160.436 312.106 160.856 313.025 160.751C313.735 160.672 314.445 160.724 315.154 160.751C315.207 160.751 315.259 160.856 315.365 160.934C315.049 161.013 314.786 161.092 314.55 161.144C314.55 162.193 314.55 163.138 314.55 164.108C314.865 164.187 315.154 164.266 315.47 164.371C315.47 164.79 315.47 165.131 315.47 165.367C315.181 165.63 314.734 165.866 314.734 166.049C314.813 166.889 314.786 167.859 315.207 168.515C318.019 172.896 320.91 177.224 323.775 181.579C324.8 183.126 325.799 184.674 326.824 186.195C327.034 185.854 327.087 185.566 327.008 185.303M314.471 188.032C314.182 187.376 313.945 186.772 313.656 186.222C312.211 183.205 310.529 180.319 308.137 177.906C302.171 171.899 293.235 172.056 287.479 178.247C284.929 181.001 283.169 184.228 281.67 187.612C281.618 187.717 281.618 187.848 281.592 188.032C292.551 188.032 303.459 188.032 314.471 188.032ZM226.057 188.032C226.083 187.769 226.162 187.533 226.162 187.271C226.162 182.549 226.188 177.827 226.135 173.079C226.109 170.745 224.48 168.935 222.298 168.751C219.907 168.541 217.673 170.325 217.62 172.712C217.541 177.696 217.594 182.68 217.594 187.664C217.594 187.743 217.646 187.848 217.699 188.005C220.511 188.032 223.244 188.032 226.057 188.032ZM303.064 160.672C302.092 154.455 301.119 148.264 300.121 142.021C298.78 142.021 297.309 142.021 295.863 142.021C294.891 148.238 293.918 154.429 292.919 160.672C296.31 160.672 299.726 160.672 303.064 160.672ZM296.021 136.958C297.335 136.958 298.596 136.958 299.963 136.958C299.306 132.027 298.649 127.122 297.992 122.19C297.361 127.095 296.704 132.001 296.021 136.958Z" fill="#749DC1"/>
<path d="M167.235 84.4949C167.235 84.4949 163.976 78.1994 171.388 77.4911C170.625 72.4808 177.879 64.9261 190.469 68.1526C192.598 62.6964 204.609 53.0694 212.967 64.795C228.894 58.1321 231.154 67.7329 229.025 69.4642C241.378 67.2345 239.196 75.6811 237.12 76.6254C253.468 73.1366 251.208 84.4949 251.208 84.4949H167.235Z" fill="white"/>
<path d="M50.4878 116.288C50.4878 116.288 49.1211 112.799 52.2225 112.405C51.9071 109.651 54.9296 105.454 60.1861 107.238C61.0797 104.221 66.0996 98.896 69.5689 105.375C76.2184 101.677 77.1645 107.002 76.2709 107.946C81.4223 106.713 80.5287 111.382 79.6351 111.907C86.4686 109.966 85.5224 116.261 85.5224 116.261H50.4878V116.288Z" fill="white"/>
<path d="M1.70824 261.847C12.852 308.199 88.4931 308.356 145.027 306.625C201.56 304.894 360.018 300.618 371.976 256.155C380.097 225.91 362.804 201.278 351.003 186.746H27.2286C12.1424 205.843 -5.33547 232.652 1.70824 261.847Z" fill="#3D3B38"/>
<path d="M352.947 190.76C352.29 189.921 351.633 189.108 350.976 188.321H27.2281C26.5973 189.134 25.9665 189.947 25.3095 190.76H352.947Z" fill="white"/>
<path d="M12.5885 207.785C3.33707 223.655 -3.04958 242.227 1.68127 261.848C12.8251 308.199 88.4661 308.357 145 306.626C201.533 304.894 359.991 300.619 371.949 256.156C376.943 237.558 372.317 221.084 365.3 207.785H12.5885Z" fill="#8A9995"/>
<path d="M128.443 66.9199H77.8225V186.248H128.443V66.9199Z" fill="#BC6A4D"/>
<path d="M128.154 66.9199H77.8225V89.2693H128.154V66.9199Z" fill="#42382C"/>
<path d="M129.889 179.271H75.9305V187.403H129.889V179.271Z" fill="#494136"/>
<path d="M80.1617 63.8765H77.8225V89.2687H80.1617V63.8765Z" fill="#494136"/>
<path d="M128.417 63.8765H126.078V89.2687H128.417V63.8765Z" fill="#494136"/>
<path d="M128.154 86.8311H77.8225V89.2968H128.154V86.8311Z" fill="#494136"/>
<path d="M114.75 59.3921H110.677V74.9212H114.75V59.3921Z" fill="#DD7858"/>
<path d="M120.874 59.3921H116.801V74.9212H120.874V59.3921Z" fill="#DD7858"/>
<path d="M89.8865 110.78H84.0781V98.4513C84.0781 96.8511 85.3922 95.5396 86.9955 95.5396C88.5987 95.5396 89.9128 96.8511 89.9128 98.4513V110.78H89.8865Z" fill="#407889"/>
<path d="M100.347 110.78H94.5382V98.4513C94.5382 96.8511 95.8524 95.5396 97.4556 95.5396C99.0588 95.5396 100.373 96.8511 100.373 98.4513V110.78H100.347Z" fill="#407889"/>
<path d="M110.834 110.78H105.026V98.4513C105.026 96.8511 106.34 95.5396 107.943 95.5396C109.547 95.5396 110.861 96.8511 110.861 98.4513V110.78H110.834Z" fill="#407889"/>
<path d="M121.295 110.78H115.486V98.4513C115.486 96.8511 116.8 95.5396 118.403 95.5396C120.007 95.5396 121.321 96.8511 121.321 98.4513V110.78H121.295Z" fill="#407889"/>
<path d="M89.8867 133.417H84.0782V121.088C84.0782 119.488 85.3924 118.176 86.9956 118.176C88.5988 118.176 89.9129 119.488 89.9129 121.088V133.417H89.8867Z" fill="#407889"/>
<path d="M100.347 133.417H94.5384V121.088C94.5384 119.488 95.8525 118.176 97.4557 118.176C99.059 118.176 100.373 119.488 100.373 121.088V133.417H100.347Z" fill="#407889"/>
<path d="M110.835 133.417H105.026V121.088C105.026 119.488 106.34 118.176 107.943 118.176C109.547 118.176 110.861 119.488 110.861 121.088V133.417H110.835Z" fill="#407889"/>
<path d="M121.295 133.417H115.486V121.088C115.486 119.488 116.8 118.176 118.404 118.176C120.007 118.176 121.321 119.488 121.321 121.088V133.417H121.295Z" fill="#407889"/>
<path d="M89.8867 156.921H84.0782V144.592C84.0782 142.992 85.3924 141.68 86.9956 141.68C88.5988 141.68 89.9129 142.992 89.9129 144.592V156.921H89.8867Z" fill="#407889"/>
<path d="M100.347 156.921H94.5384V144.592C94.5384 142.992 95.8525 141.68 97.4557 141.68C99.059 141.68 100.373 142.992 100.373 144.592V156.921H100.347Z" fill="#407889"/>
<path d="M110.835 156.921H105.026V144.592C105.026 142.992 106.34 141.68 107.943 141.68C109.547 141.68 110.861 142.992 110.861 144.592V156.921H110.835Z" fill="#407889"/>
<path d="M121.295 156.921H115.486V144.592C115.486 142.992 116.8 141.68 118.404 141.68C120.007 141.68 121.321 142.992 121.321 144.592V156.921H121.295Z" fill="#407889"/>
<path d="M89.8612 163.743H84.0527V176.072H89.8612V163.743Z" fill="#407889"/>
<path d="M100.349 163.743H94.5405V176.072H100.349V163.743Z" fill="#407889"/>
<path d="M110.809 163.743H105.001V176.072H110.809V163.743Z" fill="#407889"/>
<path d="M121.295 163.743H115.487V176.072H121.295V163.743Z" fill="#407889"/>
<path d="M192.414 110.044H141.662V187.402H192.414V110.044Z" fill="#9B9B9B"/>
<path d="M193.702 179.271H140.191V187.403H193.702V179.271Z" fill="#63594C"/>
<path d="M185.581 164.923H147.472V176.098H185.581V164.923Z" fill="white"/>
<path d="M188.63 161.275H144.554V171.296H188.63V161.275Z" fill="#FFA539"/>
<path d="M193.728 107.003H139.481V113.378H193.728V107.003Z" fill="#63594C"/>
<path d="M193.702 136.619H140.191V138.508H193.702V136.619Z" fill="#63594C"/>
<path d="M146.762 173.526C147.981 173.526 148.969 172.54 148.969 171.323C148.969 170.106 147.981 169.119 146.762 169.119C145.542 169.119 144.554 170.106 144.554 171.323C144.554 172.54 145.542 173.526 146.762 173.526Z" fill="#FFA539"/>
<path d="M151.177 173.579C152.396 173.579 153.384 172.593 153.384 171.376C153.384 170.159 152.396 169.172 151.177 169.172C149.957 169.172 148.969 170.159 148.969 171.376C148.969 172.593 149.957 173.579 151.177 173.579Z" fill="#FFA539"/>
<path d="M155.566 173.551C156.785 173.551 157.774 172.565 157.774 171.348C157.774 170.131 156.785 169.145 155.566 169.145C154.347 169.145 153.358 170.131 153.358 171.348C153.358 172.565 154.347 173.551 155.566 173.551Z" fill="#FFA539"/>
<path d="M159.983 173.605C161.202 173.605 162.19 172.618 162.19 171.401C162.19 170.184 161.202 169.198 159.983 169.198C158.763 169.198 157.775 170.184 157.775 171.401C157.775 172.618 158.763 173.605 159.983 173.605Z" fill="#FFA539"/>
<path d="M164.372 173.551C165.591 173.551 166.58 172.565 166.58 171.348C166.58 170.131 165.591 169.145 164.372 169.145C163.152 169.145 162.164 170.131 162.164 171.348C162.164 172.565 163.152 173.551 164.372 173.551Z" fill="#FFA539"/>
<path d="M168.787 173.605C170.006 173.605 170.994 172.618 170.994 171.401C170.994 170.184 170.006 169.198 168.787 169.198C167.567 169.198 166.579 170.184 166.579 171.401C166.579 172.618 167.567 173.605 168.787 173.605Z" fill="#FFA539"/>
<path d="M173.176 173.579C174.395 173.579 175.383 172.593 175.383 171.376C175.383 170.159 174.395 169.172 173.176 169.172C171.956 169.172 170.968 170.159 170.968 171.376C170.968 172.593 171.956 173.579 173.176 173.579Z" fill="#FFA539"/>
<path d="M177.59 173.63C178.81 173.63 179.798 172.644 179.798 171.427C179.798 170.21 178.81 169.223 177.59 169.223C176.371 169.223 175.383 170.21 175.383 171.427C175.383 172.644 176.371 173.63 177.59 173.63Z" fill="#FFA539"/>
<path d="M181.979 173.605C183.199 173.605 184.187 172.618 184.187 171.401C184.187 170.184 183.199 169.198 181.979 169.198C180.76 169.198 179.772 170.184 179.772 171.401C179.772 172.618 180.76 173.605 181.979 173.605Z" fill="#FFA539"/>
<path d="M186.396 173.657C187.616 173.657 188.604 172.671 188.604 171.454C188.604 170.237 187.616 169.25 186.396 169.25C185.177 169.25 184.189 170.237 184.189 171.454C184.189 172.671 185.177 173.657 186.396 173.657Z" fill="#FFA539"/>
<path d="M153.595 133.417H147.786V121.088C147.786 119.488 149.1 118.176 150.703 118.176C152.307 118.176 153.621 119.488 153.621 121.088V133.417H153.595Z" fill="#407889"/>
<path d="M164.055 133.417H158.246V121.088C158.246 119.488 159.56 118.176 161.164 118.176C162.767 118.176 164.081 119.488 164.081 121.088V133.417H164.055Z" fill="#407889"/>
<path d="M174.515 133.417H168.706V121.088C168.706 119.488 170.021 118.176 171.624 118.176C173.227 118.176 174.541 119.488 174.541 121.088V133.417H174.515Z" fill="#407889"/>
<path d="M185.003 133.417H179.194V121.088C179.194 119.488 180.508 118.176 182.112 118.176C183.715 118.176 185.029 119.488 185.029 121.088V133.417H185.003Z" fill="#407889"/>
<path d="M153.595 157.787H147.786V145.459C147.786 143.858 149.1 142.547 150.703 142.547C152.307 142.547 153.621 143.858 153.621 145.459V157.787H153.595Z" fill="#407889"/>
<path d="M164.055 157.787H158.246V145.459C158.246 143.858 159.56 142.547 161.164 142.547C162.767 142.547 164.081 143.858 164.081 145.459V157.787H164.055Z" fill="#407889"/>
<path d="M174.515 157.787H168.706V145.459C168.706 143.858 170.021 142.547 171.624 142.547C173.227 142.547 174.541 143.858 174.541 145.459V157.787H174.515Z" fill="#407889"/>
<path d="M185.003 157.787H179.194V145.459C179.194 143.858 180.508 142.547 182.112 142.547C183.715 142.547 185.029 143.858 185.029 145.459V157.787H185.003Z" fill="#407889"/>
<path d="M282.011 204.872H262.142V226.907H245.269V248.941H225.399V270.976H204.005V293.011H184.135V305.182C253.994 302.008 362.147 292.538 371.95 256.103C380.86 222.946 359.203 196.557 347.77 182.785H282.011V204.872Z" fill="#606060"/>
<path d="M293.839 148.735H291.342V182.837H293.839V148.735Z" fill="#6B3425"/>
<path d="M289.37 146.428H350.897L349.583 149.917H289.37V146.428Z" fill="#6B3425"/>
<path d="M311.447 148.159H308.031V183.336H311.447V148.159Z" fill="#6B3425"/>
<path d="M332.211 148.789H329.32V182.837H332.211V148.789Z" fill="#6B3425"/>
<path d="M57.742 185.934H55.0612V187.482H57.742V185.934Z" fill="#6B3425"/>
<path d="M60.3704 182.445H63.7872L62.7884 178.169L60.3704 177.251H62.5782L62.3153 176.149L58.4255 175.861L62.0788 175.126L61.5532 172.949L58.4255 171.952C58.4255 171.952 60.1339 171.847 61.2903 171.795L59.7397 165.158L57.1903 164.948L59.6345 164.686L56.4281 151.045L54.5357 159.099H55.7184L54.378 159.807L53.7735 162.351H55.955L53.6421 162.902L53.4319 163.794H54.6409L53.3267 164.214L52.0652 169.565L55.0877 170.195L51.7761 170.877L50.7248 175.205H53.8787L50.4357 176.543L49.3844 181.002C51.0402 181.238 53.4581 181.579 53.4581 181.579L49.1215 182.182L48.2279 185.934H64.6282L64.1288 183.835L60.3704 182.445Z" fill="#7EA21A"/>
<path d="M125.183 208.073H122.502C119.848 208.073 117.693 205.922 117.693 203.273V183.73C117.693 181.081 119.848 178.93 122.502 178.93H125.183C127.838 178.93 129.993 181.081 129.993 183.73V203.246C129.993 205.922 127.838 208.073 125.183 208.073Z" fill="black"/>
<path d="M199.852 208.073H197.171C194.517 208.073 192.362 205.922 192.362 203.273V183.73C192.362 181.081 194.517 178.93 197.171 178.93H199.852C202.507 178.93 204.662 181.081 204.662 183.73V203.246C204.662 205.922 202.507 208.073 199.852 208.073Z" fill="black"/>
<path d="M132.778 146.56C133.409 144.566 135.459 143.674 137.851 143.176C140.243 142.678 155.539 142.179 161.216 142.074C166.893 141.969 182.899 143.176 185.475 143.36C188.051 143.57 189.154 145.039 189.838 146.534C190.521 148.029 198.485 164.397 199.378 165.473C200.272 166.575 202.558 169.644 202.769 170.641C202.979 171.637 204.766 175.415 204.661 175.808C204.556 176.202 204.661 197.633 204.661 197.633L117.771 198.918C117.771 198.918 117.561 181.264 117.771 176.989C117.981 172.713 121.74 167.65 123.632 165.079C125.524 162.509 132.095 148.737 132.778 146.56Z" fill="#1D7DCC"/>
<path d="M123.633 165.105H119.743C118.139 165.105 116.852 163.82 116.852 162.219C116.852 160.619 118.139 159.334 119.743 159.334H120.741C122.345 159.334 123.633 160.619 123.633 162.219V165.105Z" fill="#D2D3D5"/>
<path d="M135.17 148.135L131.701 161.041H190.758L187.578 148.135C187.551 148.135 157.826 141.289 135.17 148.135Z" fill="#3B3B3B"/>
<path d="M131.701 161.04L134.303 179.428C134.461 180.609 135.486 181.501 136.668 181.501H185.79C186.999 181.501 187.998 180.609 188.156 179.428L190.758 161.04H131.701Z" fill="#0C96FD"/>
<path d="M174.331 171.245H148.285V178.092H174.331V171.245Z" fill="white"/>
<path d="M132.121 164.082L133.619 174.679H123.632V169.38C123.632 169.38 125.209 164.58 132.121 164.082Z" fill="#7D009B"/>
<path d="M199.037 165.105H202.9C204.503 165.105 205.791 163.82 205.791 162.219C205.791 160.619 204.503 159.334 202.9 159.334H201.901C200.298 159.334 199.01 160.619 199.01 162.219V165.105H199.037Z" fill="#D2D3D5"/>
<path d="M190.547 164.082L189.049 174.679H199.036V169.38C199.036 169.38 197.46 164.58 190.547 164.082Z" fill="#7D009B"/>
<path d="M88.1778 90.1077C88.1778 90.1077 83.0527 86.855 77.2706 90.5536C73.4071 93.0194 72.934 101.755 74.3532 104.719C75.7988 107.683 82.3694 113.087 82.3694 113.087C82.3694 113.087 107.154 95.118 88.1778 90.1077Z" fill="#A5713D"/>
<path d="M104.684 141.443L104.763 154.218C104.763 154.218 120.033 154.401 121.032 154.139C122.031 153.903 126.946 149.994 127.471 149.785C127.997 149.575 128.47 149.785 128.286 150.388C128.102 150.991 127.34 152.854 127.34 152.854C127.34 152.854 131.072 152.434 131.414 152.224C131.755 152.014 133.989 150.283 134.463 150.152C134.936 149.994 135.698 150.309 135.514 150.781C135.304 151.254 133.201 153.982 133.201 153.982C133.201 153.982 133.621 156.893 132.518 157.969C131.414 159.044 126.21 159.91 123.687 160.067C121.164 160.225 102.056 162.664 100.453 162.586C98.8497 162.507 96.5369 162.008 95.7221 158.598C94.9074 155.188 94.6445 142.072 94.6445 142.072L104.684 141.443Z" fill="#DD866F"/>
<path d="M75.6155 261.951V282.045H58.821C58.821 282.045 56.4293 278.031 58.821 276.929C61.2127 275.828 69.0186 271.998 69.0186 271.998L68.7295 261.951H75.6155Z" fill="#F69576"/>
<path d="M75.6155 271.999V282.046H58.821C58.821 282.046 56.4293 278.032 58.821 276.931C61.2127 275.829 69.0186 271.999 69.0186 271.999H75.6155Z" fill="#032240"/>
<path d="M75.6152 280.025V282.045H58.8207C58.8207 282.045 58.2687 281.1 57.9534 280.025H75.6152Z" fill="#BFBFBF"/>
<path d="M89.4412 261.952L89.2835 271.999C89.2835 271.999 98.0881 273.651 100.427 274.36C103.239 275.225 106.499 276.012 106.945 278.74C107.34 281.101 106.945 282.019 106.945 282.019H79.7167L82.6866 261.926H89.4412V261.952Z" fill="#F69576"/>
<path d="M89.2835 272C89.2835 272 98.0881 273.652 100.427 274.361C103.239 275.226 106.499 276.013 106.945 278.741C107.34 281.102 106.945 282.02 106.945 282.02H79.7167L80.768 271.974H89.2835V272Z" fill="#BFBFBF"/>
<path d="M106.943 278.767C107.022 279.239 107.075 279.659 107.101 280.026H79.9247L80.7658 271.999H89.2813C89.2813 271.999 98.086 273.652 100.425 274.36C103.211 275.252 106.47 276.012 106.943 278.767Z" fill="#032240"/>
<path d="M101.661 170.955C101.661 170.955 102.607 180.844 101.661 197.317C100.714 213.791 96.6931 229.582 96.2463 231.471C95.7732 233.36 89.8859 264.916 89.8859 264.916H80.6871C80.6871 264.916 85.8647 222.29 86.3378 209.358C86.8109 196.399 84.682 172.161 84.682 172.161L101.661 170.955Z" fill="#254B6B"/>
<path d="M67.94 172.135H87.5204C87.5204 172.135 89.0448 211.273 87.5204 213.109C85.996 214.919 81.3966 222.29 80.687 227.956C79.9774 233.622 78.0587 264.89 78.0587 264.89H67.94V172.135Z" fill="#254B6B"/>
<path d="M82.4756 119.461C92.2264 119.251 95.3803 120.72 97.4303 125.258C99.4804 129.823 104.658 169.852 105.131 178.01C105.604 186.168 104.027 191.047 92.8572 191.047C81.6871 191.047 66.4433 181.945 66.4433 181.945C66.4433 181.945 65.8125 184.778 65.3394 186.509C64.8663 188.241 60.1617 190.129 60.1617 187.139C60.1617 184.149 62.2118 137.377 62.5272 129.534C62.8163 121.665 75.0902 119.619 82.4756 119.461Z" fill="black"/>
<path d="M92.8566 122.137C96.6939 121.14 100.242 121.193 103.081 126.859C105.919 132.499 108.1 150.1 108.1 150.1L95.0644 155.242C95.0644 155.242 82.6327 124.787 92.8566 122.137Z" fill="black"/>
<path d="M85.8389 118.649C82.3959 118.649 78.3221 118.964 76.2195 120.328C73.6438 121.98 73.6701 128.171 85.0504 128.696C96.4045 129.22 96.0365 123.921 94.8801 122.348C93.198 120.092 88.4671 118.675 85.8389 118.649Z" fill="#F69576"/>
<path d="M90.2545 111.566L92.4622 125.758H79.0581C79.0581 125.758 79.7152 120.118 80.4511 116.472C81.2133 112.826 81.8441 111.566 81.8441 111.566H90.2545Z" fill="#F69576"/>
<path d="M84.4203 115.423C84.4203 115.423 84.3151 118.046 86.0498 119.174C87.7844 120.329 91.6217 120.329 91.6217 120.329L90.255 111.541H84.6042C84.6042 111.567 84.21 113.771 84.4203 115.423Z" fill="#DD866F"/>
<path d="M92.1723 94.3587C92.1723 94.3587 93.8807 95.749 94.6166 98.8443C95.1948 101.231 95.0634 103.776 95.3525 105.219C95.6416 106.661 96.1147 108.943 95.7205 110.937C95.3262 112.931 93.539 115.659 90.2537 116.577C86.9684 117.495 84.2876 116.839 82.4741 114.557C80.6606 112.275 78.4266 108.183 77.7432 105.35C77.0862 102.517 76.7182 97.1392 79.7407 94.7784C83.6042 91.7355 88.2299 91.7093 92.1723 94.3587Z" fill="#F69576"/>
<path d="M86.2081 110.359C86.2081 110.359 86.5234 112.3 87.6536 112.694C88.81 113.087 89.9665 112.825 90.4921 112.195C91.0178 111.566 91.2806 110.333 91.2806 110.333L86.2081 110.359Z" fill="white"/>
<path d="M89.0188 108.236C88.94 108.236 88.8612 108.209 88.7823 108.157C88.6509 108.052 88.6246 107.842 88.6246 107.685C88.6246 107.659 88.6246 107.632 88.6246 107.632C88.5983 107.659 88.5458 107.685 88.4406 107.79C88.3355 107.895 88.2041 107.947 88.0727 107.895C87.8887 107.842 87.7573 107.685 87.731 107.449C87.6522 107.055 88.0201 106.399 88.0464 106.321C88.0727 106.268 88.1515 106.242 88.2041 106.268C88.2567 106.295 88.2829 106.373 88.2567 106.426C88.1515 106.609 87.8887 107.134 87.9675 107.396C87.9938 107.58 88.099 107.659 88.1515 107.685C88.2041 107.711 88.2567 107.659 88.2829 107.632C88.4406 107.449 88.572 107.37 88.6772 107.396C88.7297 107.396 88.7823 107.422 88.8086 107.501C88.8349 107.554 88.8349 107.606 88.8349 107.685C88.8349 107.79 88.8349 107.947 88.9137 108C88.94 108.026 88.9926 108.026 89.0714 108.026C89.2291 108 89.2554 107.895 89.2291 107.632C89.2291 107.501 89.2291 107.422 89.2817 107.37C89.308 107.344 89.3605 107.318 89.4131 107.344C89.4919 107.344 89.5708 107.396 89.6496 107.449C89.781 107.554 89.8599 107.58 89.9387 107.501C89.9913 107.449 89.9913 107.37 89.9913 107.265C89.965 106.924 89.7548 106.478 89.5971 106.373C89.5445 106.347 89.5445 106.268 89.5708 106.216C89.5971 106.163 89.6759 106.163 89.7285 106.19C89.965 106.347 90.2016 106.872 90.2278 107.239C90.2278 107.422 90.2016 107.58 90.0964 107.659C89.8599 107.895 89.6496 107.737 89.5182 107.632C89.4919 107.632 89.4919 107.606 89.4656 107.606C89.4656 107.632 89.4656 107.632 89.4656 107.659C89.4656 107.842 89.4919 108.209 89.124 108.262C89.0714 108.236 89.0451 108.236 89.0188 108.236Z" fill="#6B3425"/>
<path d="M72.6979 103.251C73.7229 100.733 81.1083 103.015 79.7416 107.658C78.3486 112.406 71.1998 106.976 72.6979 103.251Z" fill="#F69576"/>
<path d="M78.3738 108.236C78.3475 108.236 78.3212 108.236 78.2949 108.21C78.2424 108.158 78.2424 108.105 78.2949 108.053C78.6103 107.712 78.6629 106.662 78.2687 105.639C78.0058 104.905 77.3225 103.672 75.7193 103.462C74.8782 103.357 74.2737 103.488 73.9321 103.882C73.4327 104.459 73.6692 105.403 73.6692 105.403C73.6955 105.456 73.6429 105.534 73.5904 105.534C73.5378 105.561 73.459 105.508 73.459 105.456C73.459 105.403 73.1961 104.407 73.7744 103.724C74.1686 103.279 74.8257 103.121 75.7718 103.226C77.0334 103.383 78.0321 104.223 78.5052 105.534C78.8994 106.584 78.8732 107.738 78.4789 108.184C78.4264 108.21 78.4001 108.236 78.3738 108.236Z" fill="#6B3425"/>
<path d="M75.7195 107.815C75.6669 107.815 75.6407 107.789 75.6144 107.737C75.5881 107.658 74.7471 105.612 75.9823 103.33C76.0086 103.277 76.0875 103.251 76.14 103.277C76.1926 103.304 76.2189 103.382 76.1926 103.435C75.0099 105.612 75.8246 107.632 75.8509 107.632C75.8772 107.684 75.8509 107.763 75.7984 107.789C75.7458 107.815 75.7195 107.815 75.7195 107.815Z" fill="#6B3425"/>
<path d="M85.4195 106.084C85.6373 106.084 85.8138 105.72 85.8138 105.271C85.8138 104.822 85.6373 104.458 85.4195 104.458C85.2018 104.458 85.0253 104.822 85.0253 105.271C85.0253 105.72 85.2018 106.084 85.4195 106.084Z" fill="#6B3425"/>
<path d="M83.5533 103.093C83.8687 102.83 84.5258 102.489 85.1828 102.411C85.9188 102.332 86.3393 102.673 86.6284 102.752C86.9175 102.83 86.9701 102.411 86.8124 102.07C86.6547 101.729 86.0239 101.466 85.0251 101.493C84.0264 101.519 83.4482 101.991 83.1854 102.279C82.8963 102.62 83.1065 103.46 83.5533 103.093Z" fill="#6B3425"/>
<path d="M91.6731 105.874C91.8908 105.874 92.0673 105.51 92.0673 105.061C92.0673 104.612 91.8908 104.248 91.6731 104.248C91.4554 104.248 91.2789 104.612 91.2789 105.061C91.2789 105.51 91.4554 105.874 91.6731 105.874Z" fill="#6B3425"/>
<path d="M90.1765 102.805C90.4919 102.542 91.149 102.201 91.806 102.123C92.5419 102.044 92.9625 102.385 93.2516 102.464C93.5407 102.542 93.5932 102.123 93.4355 101.782C93.2779 101.441 92.6471 101.178 91.6483 101.204C90.6233 101.231 90.0714 101.703 89.8086 101.991C89.5457 102.306 89.756 103.172 90.1765 102.805Z" fill="#6B3425"/>
<path d="M92.8304 112.721L92.3311 112.852C92.3311 112.852 91.3323 114.793 90.5176 115.161C89.7028 115.528 86.9957 115.397 86.7066 115.161C86.4175 114.925 85.4713 112.747 85.4713 112.747L84.8405 112.905C84.8405 112.905 85.813 116 85.9707 116.289C86.0495 116.446 87.863 117.679 88.5464 117.731C89.256 117.784 91.6477 116.472 91.7791 116.184C92.0945 115.318 92.8304 112.721 92.8304 112.721Z" fill="#6B3425"/>
<path d="M89.7282 113.954L88.5192 113.902L88.4929 116L89.4128 116.184L89.7282 113.954Z" fill="#6B3425"/>
<path opacity="0.4" d="M65.917 130.689L68.9395 147.714L63.5253 149.366L65.917 130.689Z" fill="#254B6B"/>
<path d="M79.0586 91.4199C79.0586 91.4199 81.8709 96.5088 89.6768 96.9547C105.946 97.8991 98.4814 88.7705 98.4814 88.7705C98.4814 88.7705 99.0596 91.1838 96.2474 91.3149C92.4627 91.4986 86.9171 79.8779 79.0586 91.4199Z" fill="#A5713D"/>
<path d="M108.888 149.262C107.653 148.081 106.864 147.425 106.47 146.507C106.076 145.589 106.207 143.963 106.207 143.963H104.972H104.078H102.843C102.843 143.963 102.975 145.589 102.58 146.507C102.186 147.425 101.398 148.107 100.162 149.262C98.927 150.416 99.2161 151.727 99.1899 152.357C99.1636 153.013 99.3213 178.484 99.3213 178.484H104.052H104.998H109.729C109.729 178.484 109.887 152.987 109.861 152.357C109.834 151.727 110.123 150.442 108.888 149.262Z" fill="black"/>
<path d="M106.549 135.831H102.501V138.664H106.549V135.831Z" fill="#512176"/>
<path d="M106.261 137.616H102.818V144.961H106.261V137.616Z" fill="#512176"/>
<path d="M108.074 156.028H101.004V165.682H108.074V156.028Z" fill="white"/>
<path d="M120.111 149.262C118.875 148.081 118.087 147.425 117.693 146.507C117.298 145.589 117.43 143.963 117.43 143.963H116.194H115.248H114.066C114.066 143.963 114.197 145.589 113.803 146.507C113.409 147.425 112.62 148.107 111.385 149.262C110.15 150.416 110.439 151.727 110.412 152.357C110.386 153.013 110.544 178.484 110.544 178.484H115.275H116.221H120.952C120.952 178.484 121.109 152.987 121.083 152.357C121.057 151.727 121.346 150.442 120.111 149.262Z" fill="black"/>
<path d="M117.771 135.831H113.724V138.664H117.771V135.831Z" fill="#512176"/>
<path d="M117.483 137.616H114.04V144.961H117.483V137.616Z" fill="#512176"/>
<path d="M119.297 156.028H112.227V165.682H119.297V156.028Z" fill="white"/>
<path d="M131.543 149.262C130.308 148.081 129.519 147.425 129.125 146.507C128.731 145.589 128.862 143.963 128.862 143.963H127.627H126.681H125.445C125.445 143.963 125.577 145.589 125.182 146.507C124.788 147.425 124 148.107 122.764 149.262C121.529 150.416 121.818 151.727 121.792 152.357C121.766 153.013 121.923 178.484 121.923 178.484H126.654H127.6H132.331C132.331 178.484 132.489 152.987 132.463 152.357C132.489 151.727 132.778 150.442 131.543 149.262Z" fill="black"/>
<path d="M129.204 135.831H125.156V138.664H129.204V135.831Z" fill="#512176"/>
<path d="M128.914 137.616H125.471V144.961H128.914V137.616Z" fill="#512176"/>
<path d="M130.727 156.028H123.657V165.682H130.727V156.028Z" fill="white"/>
<path d="M142.74 149.262C141.505 148.081 140.716 147.425 140.322 146.507C139.928 145.589 140.059 143.963 140.059 143.963H138.824H137.878H136.642C136.642 143.963 136.774 145.589 136.379 146.507C135.985 147.425 135.197 148.107 133.961 149.262C132.726 150.416 133.015 151.727 132.989 152.357C132.963 152.987 133.12 178.484 133.12 178.484H137.851H138.797H143.528C143.528 178.484 143.686 152.987 143.66 152.357C143.633 151.727 143.975 150.442 142.74 149.262Z" fill="black"/>
<path d="M140.426 135.831H136.379V138.664H140.426V135.831Z" fill="#512176"/>
<path d="M140.111 137.616H136.668V144.961H140.111V137.616Z" fill="#512176"/>
<path d="M141.952 156.028H134.882V165.682H141.952V156.028Z" fill="white"/>
<path d="M154.41 149.262C153.175 148.081 152.387 147.425 151.992 146.507C151.598 145.589 151.73 143.963 151.73 143.963H150.494H149.548H148.313C148.313 143.963 148.444 145.589 148.05 146.507C147.656 147.425 146.867 148.107 145.632 149.262C144.397 150.442 144.686 151.727 144.66 152.357C144.633 153.013 144.791 178.484 144.791 178.484H149.522H150.468H155.199C155.199 178.484 155.357 152.987 155.33 152.357C155.304 151.727 155.646 150.442 154.41 149.262Z" fill="black"/>
<path d="M152.071 135.831H148.024V138.664H152.071V135.831Z" fill="#512176"/>
<path d="M151.781 137.616H148.338V144.961H151.781V137.616Z" fill="#512176"/>
<path d="M153.595 156.028H146.525V165.682H153.595V156.028Z" fill="white"/>
<path d="M156.853 170.639H97.7172V179.532H156.853V170.639Z" fill="#DBAC73"/>
<path d="M157.773 152.646H96.7192V156.03H157.773V152.646Z" fill="#DBAC73"/>
<path d="M138.404 154.35L112.227 175.073H117.799L144.712 154.35H138.404Z" fill="#DBAC73"/>
<path d="M100.082 154.35H98.3478V175.65H100.082V154.35Z" fill="#DBAC73"/>
<path d="M155.513 154.35H153.779V175.65H155.513V154.35Z" fill="#DBAC73"/>
<path d="M78.6105 147.608L78.6894 160.383C78.6894 160.383 93.9595 160.566 94.9583 160.304C95.957 160.042 100.872 156.159 101.397 155.95C101.923 155.74 102.396 155.95 102.212 156.553C102.028 157.156 101.266 159.019 101.266 159.019C101.266 159.019 104.998 158.599 105.34 158.389C105.682 158.179 107.916 156.448 108.389 156.317C108.862 156.159 109.624 156.474 109.44 156.946C109.23 157.419 107.127 160.147 107.127 160.147C107.127 160.147 107.548 163.058 106.444 164.134C105.34 165.209 100.136 166.075 97.6128 166.232C95.0897 166.39 75.9823 168.829 74.3791 168.751C72.7758 168.672 70.463 168.174 69.6482 164.763C68.8335 161.353 68.5706 148.237 68.5706 148.237L78.6105 147.608Z" fill="#F69576"/>
<path d="M246.266 146.822L233.519 188.819C233.519 188.819 245.32 242.777 244.374 243.144C243.427 243.512 231.048 245.033 229.708 246.004C228.368 246.948 227.237 250.752 227.237 250.752L252.942 249.414L250.287 191.652L266.083 146.822H246.266Z" fill="#F69576"/>
<path d="M280.408 146.822L282.615 192.99L290.027 251.696H264.533C264.533 251.696 265.873 247.709 267.582 246.764C269.29 245.82 279.199 244.115 279.199 244.115C279.199 244.115 266.215 193.776 266.057 191.311C265.9 188.845 260.17 146.848 260.17 146.848H280.408V146.822Z" fill="#F69576"/>
<path d="M260.17 86.412L234.676 91.9206L225.162 72.5354C225.162 72.5354 228.631 65.9775 228.394 65.3217C228.158 64.6659 225.53 66.1349 225.162 66.6071C224.794 67.0792 224.4 67.4203 224.4 67.4203C224.4 67.4203 222.35 57.7408 221.167 57.8719C219.984 58.0031 221.167 62.9609 221.167 62.9609C221.167 62.9609 218.539 57.7932 217.277 58.2129C215.989 58.6326 218.749 64.1413 218.749 64.1413C218.749 64.1413 215.647 60.2065 214.649 60.8099C213.65 61.4394 216.646 65.9775 216.646 65.9775C216.646 65.9775 214.176 63.8003 213.256 64.5085C212.336 65.2168 216.646 69.6499 216.646 69.6499C216.646 69.6499 216.935 72.3518 217.645 73.0601C218.355 73.7683 219.169 74.6864 219.169 74.6864C219.169 74.6864 228.552 99.7639 229.025 100.656C229.498 101.548 231.89 102.072 233.125 102.361C234.361 102.649 261.011 101.994 261.011 101.994L260.17 86.412Z" fill="#F69576"/>
<path d="M262.562 85.7824C269.421 85.7037 274.625 86.753 277.122 88.8778C279.619 91.0025 280.591 150.076 280.591 150.076L244.847 151.598C244.847 151.598 245.793 89.5073 246.661 89.3237C247.528 89.1401 251.549 85.9398 262.562 85.7824Z" fill="white"/>
<path d="M268.291 83.9453C268.291 83.9453 263.403 128.119 262.693 132.815C261.984 137.51 259.408 189.528 259.408 189.528L295.231 188.662C295.231 188.662 281.722 139.032 281.958 136.094C282.195 133.156 278.357 87.5915 278.357 87.5915C278.357 87.5915 275.046 84.7847 268.291 83.9453Z" fill="#5F750E"/>
<path d="M255.806 84.2329C255.806 84.2329 264.269 127.253 264.269 128.118C264.269 128.984 261.063 187.114 261.063 187.114H231.285C231.285 187.114 241.85 150.31 241.85 146.848C241.85 143.385 244.82 99.9194 244.82 99.9194L245.556 88.7972C245.556 88.771 248.605 84.9412 255.806 84.2329Z" fill="#5F750E"/>
<path d="M243.113 125.628C243.113 125.628 250.656 128.566 263.245 128.566C275.834 128.566 281.38 125.628 281.38 125.628L281.59 128.566C281.59 128.566 268.396 132.973 260.985 132.554C253.573 132.134 242.824 129.852 242.824 129.852L243.113 125.628Z" fill="#7EA21A"/>
<path d="M249.131 129.089L250.55 165.578H247.764L246.661 127.961L249.131 129.089Z" fill="#7EA21A"/>
<path d="M247.765 129.667L254.703 164.005L256.832 163.165L250.551 129.667H247.765Z" fill="#7EA21A"/>
<path d="M219.852 81.2164L228.551 76.2324L235.122 90.6336L257.83 85.7808L255.412 103.303C255.412 103.303 232.704 103.723 230.575 103.303C228.42 102.884 219.852 81.2164 219.852 81.2164Z" fill="#5F750E"/>
<path d="M273.389 244.089L278.094 250.726L290.946 249.493V252.195L263.533 253.061C263.533 253.061 263.113 248.077 266.03 246.503C268.974 244.955 273.389 244.089 273.389 244.089Z" fill="#5F750E"/>
<path d="M238.698 242.673L241.274 247.657L253.968 246.949V250.753L226.135 251.697C226.135 251.697 226.267 246.949 228.133 245.533C229.999 244.09 238.698 242.673 238.698 242.673Z" fill="#5F750E"/>
<path d="M257.595 53.6738C257.595 53.6738 263.219 50.1325 269.527 54.1459C273.759 56.8478 274.284 66.3961 272.707 69.6226C271.13 72.8753 263.929 78.7775 263.929 78.7775C263.929 78.7775 242.246 57.6872 257.595 53.6738Z" fill="#CC6100"/>
<path d="M257.279 74.6348L254.861 90.1639C254.861 90.1639 256.911 92.7346 263.219 93.3379C269.527 93.9413 269.527 90.1639 269.527 90.1639C269.527 90.1639 268.817 83.9995 268.003 79.986C267.188 75.9988 266.478 74.6348 266.478 74.6348H257.279Z" fill="#F69576"/>
<path d="M263.665 78.8581C263.665 78.8581 263.797 81.7173 261.878 82.9764C259.986 84.2356 255.781 84.2355 255.781 84.2355L257.279 74.6348H263.455C263.481 74.6348 263.902 77.0481 263.665 78.8581Z" fill="#DD866F"/>
<path d="M255.203 55.7997C255.203 55.7997 253.337 57.3211 252.548 60.705C251.917 63.3019 252.075 66.1087 251.733 67.6826C251.392 69.2565 250.892 71.7485 251.339 73.9257C251.786 76.103 253.731 79.0934 257.305 80.0902C260.906 81.087 263.85 80.3787 265.821 77.8867C267.792 75.3947 270.263 70.9091 270.999 67.8138C271.734 64.7184 272.129 58.8425 268.817 56.2456C264.559 52.9404 259.513 52.9142 255.203 55.7997Z" fill="#F69576"/>
<path d="M262.379 73.3746C262.379 73.3746 262.195 75.2109 260.697 75.4994C259.199 75.8142 257.569 75.4469 256.781 74.7912C255.992 74.1354 255.466 72.9287 255.466 72.9287L262.379 73.3746Z" fill="white"/>
<path d="M258.54 70.9874C258.146 70.9087 258.146 70.5152 258.146 70.3053C258.146 70.2791 258.146 70.2791 258.146 70.2529C258.12 70.2791 258.093 70.2791 258.093 70.3053C257.962 70.4103 257.725 70.5677 257.463 70.3316C257.357 70.2267 257.305 70.0693 257.331 69.8594C257.357 69.4397 257.62 68.8888 257.857 68.7052C257.909 68.679 257.988 68.679 258.014 68.7314C258.067 68.7839 258.041 68.8626 257.988 68.8888C257.804 69.02 257.568 69.4922 257.541 69.8594C257.541 69.9906 257.568 70.0955 257.594 70.1217C257.699 70.2267 257.752 70.2004 257.909 70.0693C257.988 70.0168 258.067 69.9643 258.146 69.9381C258.198 69.9381 258.251 69.9381 258.277 69.9906C258.356 70.0693 258.356 70.148 258.33 70.2791C258.33 70.5414 258.356 70.6726 258.514 70.6988C258.593 70.6988 258.645 70.6988 258.672 70.6726C258.75 70.6201 258.75 70.4365 258.75 70.3316C258.75 70.2267 258.75 70.1742 258.777 70.1217C258.803 70.0693 258.856 70.0168 258.934 70.0168C259.04 70.0168 259.171 70.0955 259.355 70.2791C259.381 70.3054 259.434 70.3578 259.486 70.3316C259.565 70.3054 259.67 70.2267 259.697 70.0168C259.749 69.7283 259.486 69.1512 259.355 68.9413C259.329 68.8888 259.355 68.8101 259.407 68.7839C259.46 68.7577 259.539 68.7839 259.565 68.8364C259.618 68.9151 260.012 69.6233 259.933 70.0693C259.881 70.3316 259.749 70.5152 259.539 70.5677C259.407 70.5939 259.25 70.5677 259.145 70.4365C259.04 70.3316 258.987 70.2791 258.961 70.2791C258.961 70.3054 258.961 70.3316 258.961 70.3578C258.961 70.5152 258.934 70.7513 258.777 70.8824C258.698 70.9349 258.619 70.9611 258.54 70.9611C258.619 70.9874 258.593 70.9874 258.54 70.9874Z" fill="#6B3425"/>
<path d="M276.491 65.532C275.388 62.7777 267.293 65.2697 268.791 70.3586C270.315 75.5525 278.121 69.5979 276.491 65.532Z" fill="#F69576"/>
<path d="M270.288 70.9878C270.314 70.9878 270.341 70.9878 270.367 70.9615C270.419 70.9091 270.419 70.8304 270.367 70.7779C270.025 70.4107 269.973 69.2565 270.393 68.1285C270.682 67.3416 271.444 65.9775 273.179 65.7414C274.125 65.6365 274.782 65.7939 275.15 66.2136C275.702 66.8432 275.439 67.8662 275.439 67.8662C275.413 67.9187 275.466 67.9974 275.518 68.0236C275.571 68.0498 275.65 67.9974 275.676 67.9449C275.676 67.8924 275.965 66.7907 275.334 66.0562C274.914 65.5578 274.178 65.3742 273.153 65.5053C271.786 65.6627 270.682 66.6071 270.157 68.0498C269.736 69.1778 269.736 70.4631 270.183 70.9353C270.235 70.9615 270.262 70.9878 270.288 70.9878Z" fill="#6B3425"/>
<path d="M273.416 70.6987C273.469 70.6987 273.521 70.6724 273.521 70.62C273.547 70.5151 274.467 68.2854 273.127 65.8196C273.101 65.7671 273.022 65.7409 272.969 65.7671C272.917 65.7934 272.89 65.8721 272.917 65.9245C274.205 68.3116 273.311 70.5151 273.311 70.5413C273.285 70.5938 273.311 70.6724 273.363 70.6987C273.39 70.6987 273.39 70.6987 273.416 70.6987Z" fill="#6B3425"/>
<path d="M262.562 68.628C262.809 68.628 263.009 68.2287 263.009 67.7361C263.009 67.2435 262.809 66.8442 262.562 66.8442C262.315 66.8442 262.115 67.2435 262.115 67.7361C262.115 68.2287 262.315 68.628 262.562 68.628Z" fill="#6B3425"/>
<path d="M264.638 65.3747C264.296 65.0861 263.587 64.7189 262.851 64.6402C262.036 64.5615 261.589 64.9288 261.247 65.0075C260.932 65.0861 260.88 64.6402 261.064 64.273C261.247 63.8795 261.931 63.6172 263.035 63.6434C264.139 63.6959 264.743 64.1943 265.058 64.5091C265.321 64.8238 265.111 65.7682 264.638 65.3747Z" fill="#A5713D"/>
<path d="M255.728 68.3907C255.975 68.3907 256.175 67.9914 256.175 67.4988C256.175 67.0062 255.975 66.6069 255.728 66.6069C255.482 66.6069 255.282 67.0062 255.282 67.4988C255.282 67.9914 255.482 68.3907 255.728 68.3907Z" fill="#6B3425"/>
<path d="M257.359 65.0332C257.017 64.7447 256.307 64.3774 255.572 64.2988C254.757 64.2201 254.31 64.5873 253.968 64.666C253.653 64.7447 253.6 64.2988 253.784 63.9315C253.968 63.5643 254.652 63.2757 255.755 63.3019C256.859 63.3544 257.464 63.8528 257.779 64.1676C258.068 64.5086 257.832 65.4529 257.359 65.0332Z" fill="#A5713D"/>
<path d="M277.121 88.8766C279.329 89.1126 300.355 116.42 300.355 117.941C300.355 119.463 286.451 136.749 284.165 138.638C281.878 140.527 278.251 142.442 277.121 141.865C275.991 141.287 273.468 146.534 272.338 146.193C271.208 145.826 273.547 141.786 273.547 141.786C273.547 141.786 270.472 145.93 269.683 145.642C268.895 145.353 271.549 140.868 271.549 140.868C271.549 140.868 267.975 145.721 266.976 144.855C265.977 143.989 270.34 139.714 270.34 139.714C270.34 139.714 266.424 143.622 265.478 142.573C264.558 141.497 270.761 136.723 271.628 136.435C272.495 136.146 278.619 135.359 278.619 135.359L288.344 118.308L271.392 101.022C271.392 101.022 264.164 87.5387 277.121 88.8766Z" fill="#F69576"/>
<path d="M278.962 129.535L286.952 138.507C286.952 138.507 301.512 118.859 301.381 117.495C301.249 116.131 281.406 89.6369 278.962 87.9319C276.544 86.2268 270.262 87.5122 268.975 89.5058C267.687 91.4994 268.265 101.336 270.394 103.33C272.523 105.323 286.374 117.521 286.374 117.521L278.962 129.535Z" fill="#5F750E"/>
<path d="M268.292 83.9448L265.375 109.993L273.548 84.9154L268.292 83.9448Z" fill="#7EA21A"/>
<path d="M255.808 84.2329L260.933 110.727L251.156 84.7313L255.808 84.2329Z" fill="#7EA21A"/>
<path d="M252.653 56.4272C253.993 55.9812 254.072 57.3453 258.067 57.5289C262.062 57.7125 263.902 54.7221 266.294 55.6402C268.685 56.5583 268.449 65.687 269.342 65.923C270.236 66.1329 272.891 64.2967 273.364 64.1655C273.837 64.0344 272.444 56.6108 269.474 54.8795C266.504 53.1482 261.484 52.8072 259.539 53.0171C257.594 53.2269 252.653 56.4272 252.653 56.4272Z" fill="#CC6100"/>
</svg>
