<svg width="374" height="308" viewBox="0 0 374 308" fill="none" xmlns="http://www.w3.org/2000/svg">
<path d="M169.782 54.1218C187.92 57.5604 222.096 -12.6289 259.921 2.8579C297.745 18.3447 269.948 68.2437 283.44 79.4257C296.932 90.6077 333.89 56.1955 349.429 92.3401C364.969 128.485 341.345 167.202 341.003 173.213C340.662 179.224 383.605 211.536 371.688 256.028C359.771 300.52 201.517 304.824 145.03 306.53C88.5423 308.237 13.0245 308.105 1.89496 261.724C-9.23454 215.342 41.3207 174.945 45.993 161.978C50.6653 149.011 8.37842 103.89 61.401 48.4258C102.428 5.50903 151.644 50.6832 169.782 54.1218Z" fill="#417A8C"/>
<path d="M1.94769 261.698C13.0772 308.08 88.6213 308.237 145.082 306.505C201.544 304.772 359.798 300.494 371.741 256.002C379.852 225.737 362.58 201.089 350.794 186.547H27.4353C12.3685 205.657 -5.08699 232.483 1.94769 261.698Z" fill="#939393"/>
<path d="M12.8121 207.6C3.57252 223.481 -2.80594 242.065 1.91884 261.699C13.0483 308.08 88.5925 308.238 145.054 306.506C201.515 304.773 359.769 300.495 371.712 256.003C376.7 237.392 372.08 220.908 365.071 207.6H12.8121Z" fill="#3D3B38"/>
<path d="M146.577 230.778H126.89V234.741H146.577V230.778Z" fill="white"/>
<path d="M217.184 230.778H197.498V234.741H217.184V230.778Z" fill="white"/>
<path d="M193.564 230.778H173.877V234.741H193.564V230.778Z" fill="white"/>
<path d="M122.952 230.778H103.265V234.741H122.952V230.778Z" fill="white"/>
<path d="M99.3313 230.778H82.2695V234.741H99.3313V230.778Z" fill="white"/>
<path d="M78.3311 230.778H58.6445V234.741H78.3311V230.778Z" fill="white"/>
<path d="M54.7061 230.778H35.0195V234.741H54.7061V230.778Z" fill="white"/>
<path d="M169.939 230.778H150.515V234.741H169.939V230.778Z" fill="white"/>
<path d="M354.468 230.778H334.781V234.741H354.468V230.778Z" fill="white"/>
<path d="M31.0816 230.777H7.06396V234.741H31.0816V230.777Z" fill="white"/>
<path d="M330.843 230.778H311.156V234.741H330.843V230.778Z" fill="white"/>
<path d="M362.974 230.778H358.406V234.741H362.974V230.778Z" fill="white"/>
<path d="M285.434 230.778H265.747V234.741H285.434V230.778Z" fill="white"/>
<path d="M261.809 230.778H242.122V234.741H261.809V230.778Z" fill="white"/>
<path d="M238.184 230.778H221.123V234.741H238.184V230.778Z" fill="white"/>
<path d="M307.221 230.778H289.372V234.741H307.221V230.778Z" fill="white"/>
<path d="M92.1876 169.485C93.8938 169.958 95.075 171.716 99.1436 171.27C103.212 170.824 111.034 166.283 111.822 164.577C112.609 162.871 112.557 161.033 111.822 160.508C111.087 159.983 109.249 158.986 108.987 158.146C108.724 157.306 105.89 150.14 104.393 147.042C102.897 143.945 99.3273 141.661 97.2274 141.793C95.1275 141.924 92.7651 143.761 91.1902 144.68C89.6153 145.599 85.5467 146.99 83.368 147.515C81.1894 148.04 76.9896 151.059 75.5459 152.581C74.1022 154.103 72.2648 156.912 73.0523 159.143C73.8397 161.374 74.7584 164.603 77.3833 165.443C80.0082 166.283 81.3994 166.178 82.0556 166.703C82.7118 167.228 84.628 169.459 87.5678 169.538C90.5077 169.616 91.3214 169.249 92.1876 169.485Z" fill="white"/>
<path d="M98.4085 155.494C98.4085 155.494 97.2273 158.854 97.7522 160.612C98.2772 162.371 99.0122 165.022 98.4085 166.859C97.8047 168.697 93.6837 172.24 93.6837 172.24L93.1587 170.928C93.1587 170.928 97.4372 168.041 97.7522 166.649C98.0672 165.258 97.7522 163.237 97.2798 160.796C96.8073 158.355 98.4085 155.494 98.4085 155.494Z" fill="#6B3425"/>
<path d="M93.1589 155.888L94.6026 191.271C94.6026 191.271 91.8989 191.403 91.8989 191.271C91.8989 191.14 93.1589 155.888 93.1589 155.888Z" fill="#6B3425"/>
<path d="M90.1425 153.133C90.1425 153.133 90.6674 160.693 91.1399 161.533C91.6124 162.373 93.1873 164.893 93.1873 164.893L92.8198 166.258C92.8198 166.258 91.1399 163.974 90.4837 161.743C89.8275 159.512 90.1425 153.133 90.1425 153.133Z" fill="#6B3425"/>
<path d="M86.2024 160.168C86.2024 160.168 86.8586 163.396 88.381 165.811C89.9034 168.226 93.2633 173.948 93.2633 173.948L93.1583 176.048C93.1583 176.048 89.4835 168.961 88.486 167.255C87.4885 165.549 85.9399 163.108 86.2024 160.168Z" fill="#6B3425"/>
<path d="M283.173 150.77L292.754 149.694C295.641 141.871 297.636 135.047 297.426 133.314C296.848 128.747 282.464 107.827 277.267 103.653C272.043 99.4796 268.92 99.9783 264.274 105.438C262.62 107.407 260.074 110.95 257.501 114.73L266.006 122.815L255.926 117.04C251.963 123.025 248.288 128.773 248.288 128.773C248.288 128.773 251.018 139.168 255.69 149.011C260.284 148.827 266.61 148.565 266.61 148.565L257.606 152.817C257.974 153.473 258.341 154.156 258.709 154.786C265.192 165.81 272.148 177.097 277.241 177.99C280.207 178.515 285.981 166.887 290.601 155.337L283.173 150.77Z" fill="white"/>
<path d="M291.652 128.274C291.652 128.274 285.168 131.686 281.336 135.361C277.504 139.036 276.244 142.711 276.244 142.711V144.627C276.244 144.627 280.522 136.253 291.652 128.274Z" fill="#6B3425"/>
<path d="M256.398 136.464C256.398 136.464 265.323 140.191 270.546 144.654C275.77 149.09 277.397 152.397 277.397 152.397V155.416C277.397 155.389 269.627 142.974 256.398 136.464Z" fill="#6B3425"/>
<path d="M273.669 118.641C273.669 118.641 276.556 132.212 278.079 147.541C279.575 162.871 279.234 203.819 279.234 203.819H275.296C275.296 203.819 274.771 125.86 273.669 118.641Z" fill="#6B3425"/>
<path d="M168.626 80.45C170.554 80.45 172.117 78.8869 172.117 76.9589C172.117 75.0308 170.554 73.4678 168.626 73.4678C166.698 73.4678 165.135 75.0308 165.135 76.9589C165.135 78.8869 166.698 80.45 168.626 80.45Z" fill="white"/>
<path d="M236.716 94.2824C237.673 94.2824 238.449 93.5067 238.449 92.5499C238.449 91.5931 237.673 90.8175 236.716 90.8175C235.76 90.8175 234.984 91.5931 234.984 92.5499C234.984 93.5067 235.76 94.2824 236.716 94.2824Z" fill="white"/>
<path d="M214.167 40.6834C215.703 40.6834 216.949 39.4377 216.949 37.901C216.949 36.3644 215.703 35.1187 214.167 35.1187C212.63 35.1187 211.384 36.3644 211.384 37.901C211.384 39.4377 212.63 40.6834 214.167 40.6834Z" fill="white"/>
<path d="M204.534 61.5768C205.303 61.5768 205.925 60.954 205.925 60.1856C205.925 59.4173 205.303 58.7944 204.534 58.7944C203.766 58.7944 203.143 59.4173 203.143 60.1856C203.143 60.954 203.766 61.5768 204.534 61.5768Z" fill="white"/>
<path d="M280.419 111.922C282.347 111.922 283.91 110.359 283.91 108.431C283.91 106.502 282.347 104.939 280.419 104.939C278.491 104.939 276.928 106.502 276.928 108.431C276.928 110.359 278.491 111.922 280.419 111.922Z" fill="white"/>
<path d="M250.654 25.0129C251.611 25.0129 252.386 24.2373 252.386 23.2805C252.386 22.3237 251.611 21.5481 250.654 21.5481C249.697 21.5481 248.921 22.3237 248.921 23.2805C248.921 24.2373 249.697 25.0129 250.654 25.0129Z" fill="white"/>
<path d="M131.25 119.509C132.787 119.509 134.033 118.263 134.033 116.726C134.033 115.19 132.787 113.944 131.25 113.944C129.713 113.944 128.468 115.19 128.468 116.726C128.468 118.263 129.713 119.509 131.25 119.509Z" fill="white"/>
<path d="M226.844 48.7145C227.613 48.7145 228.235 48.0916 228.235 47.3233C228.235 46.555 227.613 45.9321 226.844 45.9321C226.076 45.9321 225.453 46.555 225.453 47.3233C225.453 48.0916 226.076 48.7145 226.844 48.7145Z" fill="white"/>
<path d="M48.3789 182.847H47.7227V197.651H48.3789V182.847Z" fill="white"/>
<path d="M61.4549 178.097H36.6235V184.371H61.4549V178.097Z" fill="#512176"/>
<path d="M60.7967 178.752H37.2515V183.503H60.7967V178.752Z" fill="white"/>
<path d="M56.2845 178.385L40.7715 184.344H42.6352L58.3582 178.385H56.2845Z" fill="#512176"/>
<path d="M320.186 176.546H319.372V195.34H320.186V176.546Z" fill="white"/>
<path d="M336.772 170.509H305.221V178.462H336.772V170.509Z" fill="#512176"/>
<path d="M335.959 171.349H306.035V177.36H335.959V171.349Z" fill="white"/>
<path d="M133.819 182.53L63.3671 185.68L49.5864 170.718L59.8235 153.788L133.819 158.906V182.53Z" fill="#6B3425"/>
<path d="M129.879 153.788H125.941V212.454H129.879V153.788Z" fill="#6B3425"/>
<path d="M248.032 181.955L318.51 185.105L332.291 170.143L322.054 153.212L248.032 158.331V181.955Z" fill="#6B3425"/>
<path d="M251.967 211.891L255.904 211.891L255.904 153.225L251.967 153.225L251.967 211.891Z" fill="#6B3425"/>
<path d="M73.3433 163.421C72.6346 164.707 72.0046 166.676 71.4271 169.274C70.9546 171.427 70.7184 172.713 70.7709 173.159C70.7446 173.238 70.7446 173.317 70.7971 173.422C70.8234 173.527 70.8234 173.605 70.8234 173.658C70.7446 174.078 70.6397 174.314 70.4559 174.34C70.3247 174.367 69.8784 174.209 69.091 173.868C68.3035 173.553 67.8835 173.29 67.831 173.133C67.831 173.133 67.8048 172.844 67.7785 172.293C67.3848 171.086 67.1223 169.878 66.9911 168.644C66.8598 168.959 66.7286 169.301 66.5973 169.616C66.4661 169.931 66.3348 170.272 66.2299 170.587C66.0986 170.928 66.0199 171.296 65.9674 171.637C65.9149 171.978 65.8886 172.346 65.8886 172.687C65.8624 172.766 65.8624 172.871 65.8886 173.002C65.9149 173.133 65.9149 173.264 65.9149 173.343C65.8361 173.737 65.7049 173.947 65.5211 173.999C65.4424 174.025 65.3636 174.025 65.3111 174.025C64.8912 174.025 64.4187 173.92 63.8937 173.737C63.2375 173.5 62.87 173.238 62.7913 172.923C62.7913 172.871 62.7913 172.634 62.765 172.214C62.345 170.666 62.0563 169.248 61.8988 167.988C61.82 167.385 61.7676 166.702 61.7413 165.993C61.7151 165.258 61.7151 164.471 61.7151 163.605C61.6363 163.158 61.6101 162.896 61.6363 162.791C61.7413 162.397 61.925 162.214 62.135 162.214C62.3713 162.24 62.765 162.371 63.2637 162.633C63.7625 162.896 64.0512 163.132 64.1037 163.29C64.1037 163.342 64.1037 163.605 64.0512 164.077C64.025 164.287 64.025 164.497 63.9987 164.681C63.9987 164.865 63.9725 165.048 63.9725 165.232C63.9725 165.626 63.9987 166.125 64.0774 166.755C64.1562 167.385 64.2349 168.146 64.3662 169.012L66.2823 163.027C66.2823 162.922 66.3348 162.738 66.4398 162.528C66.5448 162.397 66.6761 162.318 66.8598 162.292C66.9648 162.266 67.3323 162.423 67.936 162.738C68.566 163.027 68.881 163.237 68.881 163.368C68.881 163.395 68.881 163.5 68.881 163.657C68.881 163.815 68.881 164.025 68.8547 164.287C68.8285 164.943 68.8022 165.495 68.8022 165.967C68.8022 166.571 68.8285 167.122 68.8547 167.621C68.881 168.119 68.9335 168.592 69.0122 169.012C69.1435 168.382 69.2747 167.752 69.4322 167.096C69.5897 166.44 69.7734 165.783 69.9572 165.127C70.1147 164.602 70.2459 164.156 70.3509 163.788C70.4559 163.421 70.5609 163.158 70.6397 162.975C70.7446 162.528 70.9809 162.318 71.3484 162.371C71.5059 162.397 71.6634 162.423 71.8208 162.476C71.9783 162.528 72.1621 162.607 72.3458 162.686C72.9758 162.922 73.2645 163.158 73.3433 163.421Z" fill="white"/>
<path d="M79.4583 173.343C79.4583 173.474 79.4058 173.579 79.3008 173.658C79.1958 173.736 79.0908 173.789 78.9596 173.763C77.8309 173.605 77.2009 173.395 77.0697 173.133C77.0434 173.08 77.0434 173.054 77.0434 173.028C77.0697 172.949 77.0959 172.87 77.1484 172.791C77.2009 172.713 77.2272 172.66 77.2534 172.608C77.2534 172.581 77.2797 172.503 77.2797 172.45C77.2797 172.372 77.2797 172.267 77.2797 172.135C77.1747 172.214 77.0172 172.424 76.7809 172.791C76.6759 173.001 76.5447 173.159 76.4659 173.29C76.3609 173.421 76.2822 173.526 76.1772 173.605C75.8885 173.868 75.5472 174.025 75.1797 174.025C74.9435 174.025 74.7335 173.946 74.5498 173.763C74.4973 173.71 74.4448 173.658 74.3398 173.579C74.261 173.5 74.1298 173.395 74.0248 173.238L73.3161 172.424C73.1323 172.162 73.0273 171.925 73.0273 171.715C73.0273 171.663 73.0273 171.584 73.0536 171.505C73.2373 170.718 73.7623 169.957 74.6548 169.222C75.2847 168.723 76.2034 168.172 77.4371 167.568C77.4371 167.279 77.3584 167.095 77.2272 167.017C77.1484 166.964 76.8072 167.069 76.2822 167.332C75.7572 167.594 75.3635 167.804 75.1272 167.988C75.101 168.014 75.0485 168.067 74.996 168.119C74.9435 168.172 74.8648 168.224 74.786 168.277C74.6285 168.382 74.4973 168.408 74.366 168.355C74.261 168.329 74.051 168.172 73.7361 167.857C73.4211 167.568 73.2373 167.358 73.2111 167.253C73.1323 166.99 73.2111 166.807 73.4473 166.676C73.4736 166.649 73.6573 166.597 73.9985 166.518L74.996 165.967C75.3372 165.783 75.6522 165.652 75.9672 165.573C76.2822 165.494 76.5447 165.442 76.7809 165.416C76.9909 165.389 77.2272 165.494 77.4896 165.731C77.7259 165.941 77.9621 166.151 78.1984 166.361C78.4346 166.571 78.6971 166.754 78.9333 166.964C79.2221 167.227 79.3796 167.463 79.3796 167.699V172.844C79.4321 173.08 79.4583 173.238 79.4583 173.343ZM77.2797 169.353C77.0434 169.432 76.8334 169.563 76.6497 169.668C76.4659 169.799 76.2822 169.957 76.1247 170.14L75.416 171.007C75.2322 171.19 75.0485 171.453 74.8648 171.768C74.7073 172.057 74.6285 172.293 74.6285 172.424C74.6285 172.503 74.6548 172.529 74.7073 172.529C74.891 172.529 75.311 172.109 75.9935 171.295C76.6497 170.482 77.0697 169.825 77.2797 169.353Z" fill="white"/>
<path d="M85.8375 166.412C85.8638 166.544 85.8113 166.675 85.68 166.754C85.6275 166.78 85.575 166.806 85.5225 166.832C85.47 166.859 85.4175 166.885 85.365 166.937L83.0289 170.455C83.0289 171.925 83.0289 172.66 83.0551 172.686L83.1601 173.027C83.2126 173.185 83.2651 173.342 83.2651 173.473C83.2651 173.631 83.1864 173.736 83.0289 173.815C82.9239 173.867 82.7927 173.893 82.6089 173.893C82.2939 173.893 81.9002 173.815 81.454 173.657C80.929 173.5 80.6665 173.263 80.6665 172.975C80.6665 172.948 80.6665 172.896 80.6928 172.817C80.719 172.738 80.7453 172.66 80.7715 172.581C80.7978 172.502 80.824 172.423 80.8502 172.345C80.8765 172.266 80.8765 172.187 80.8765 172.135V166.754L80.719 165.966C80.719 165.677 80.8502 165.494 81.1127 165.441C81.2177 165.415 81.349 165.389 81.5065 165.389C81.664 165.389 81.8215 165.415 81.9789 165.441C82.1364 165.467 82.3202 165.52 82.4777 165.546C82.8189 165.651 83.0289 165.756 83.1076 165.861C83.1339 165.914 83.1339 165.966 83.1339 165.992C83.1339 166.019 83.0814 166.229 82.9502 166.649V167.305C83.0551 167.095 83.1601 166.911 83.2651 166.727C83.3701 166.544 83.4751 166.334 83.5801 166.15C83.8426 165.651 84.0526 165.389 84.2101 165.362C84.4201 165.336 84.7088 165.441 85.1288 165.704C85.5488 165.992 85.785 166.229 85.8375 166.412Z" fill="white"/>
<path d="M91.1907 172.293C91.1907 172.792 91.0332 173.185 90.6919 173.474C90.3507 173.763 89.9045 173.92 89.3007 173.92C89.222 173.92 89.1432 173.92 89.0645 173.894C88.9857 173.868 88.907 173.868 88.802 173.842C88.487 173.763 88.3295 173.71 88.3033 173.71C88.1458 173.684 87.962 173.632 87.8046 173.605C87.6471 173.579 87.4896 173.5 87.3846 173.395C87.1746 173.212 86.9908 172.975 86.8071 172.634L86.3609 171.847C86.2034 171.584 86.1509 171.427 86.1509 171.374C86.1509 171.269 86.2296 171.164 86.4134 171.085C86.4659 171.059 86.5446 171.059 86.6496 171.059C86.7808 171.059 86.9383 171.059 87.0958 171.085C87.2533 171.112 87.4633 171.138 87.6733 171.164C88.0933 171.243 88.3295 171.295 88.3558 171.322C88.382 171.348 88.4345 171.61 88.5133 172.109C88.5658 172.529 88.6708 172.739 88.802 172.739C89.012 172.739 89.117 172.45 89.117 171.899C89.117 171.19 88.9333 170.744 88.5395 170.56C87.6733 170.14 87.0958 169.799 86.8333 169.484C86.4921 169.09 86.3346 168.513 86.3346 167.726C86.3346 167.201 86.4659 166.728 86.7546 166.282C87.0171 165.836 87.3583 165.547 87.7258 165.442C87.8833 165.416 88.4083 165.573 89.3007 165.967C89.3532 165.993 89.432 165.993 89.537 166.019C89.642 166.046 89.8257 166.072 90.0095 166.098C90.2719 166.151 90.4819 166.256 90.6132 166.387C90.7969 166.597 90.8757 166.912 90.9019 167.384C90.9019 167.568 90.9282 167.726 90.9282 167.883C90.9282 168.041 90.9282 168.224 90.9282 168.382C90.9807 168.67 91.0332 168.854 91.0332 168.933C91.0332 169.195 90.9019 169.327 90.6657 169.379C90.6132 169.379 90.5082 169.379 90.3769 169.353C90.2457 169.327 90.0882 169.274 89.9045 169.222C89.4845 169.09 89.2482 168.933 89.117 168.802C89.0907 168.775 89.0645 168.434 89.0382 167.778C89.012 167.174 88.9595 166.859 88.8545 166.859C88.7233 166.859 88.592 167.043 88.4608 167.384C88.3558 167.726 88.277 168.093 88.277 168.487C88.277 168.959 88.382 169.274 88.592 169.405C88.8283 169.537 89.0382 169.668 89.2482 169.773C89.4582 169.878 89.6945 170.009 89.9045 170.14C90.3507 170.403 90.6657 170.639 90.8232 170.902C91.0594 171.217 91.1907 171.689 91.1907 172.293Z" fill="white"/>
<path d="M98.8278 166.991C98.7753 167.043 98.7228 167.096 98.6441 167.148C98.5654 167.201 98.4604 167.253 98.3554 167.332L95.0218 171.978L96.8067 171.821C97.0954 171.689 97.2529 171.611 97.2792 171.611C97.3317 171.611 97.4104 171.637 97.4892 171.689C97.6991 171.847 97.8829 172.109 98.0141 172.477C98.0666 172.66 98.1191 172.792 98.1454 172.923C98.1716 173.054 98.1716 173.159 98.1716 173.238C98.1191 173.5 97.8829 173.632 97.4892 173.632C97.4104 173.632 97.3317 173.632 97.2267 173.605C97.1217 173.579 97.0167 173.579 96.8854 173.553L94.1818 173.842C94.1293 173.842 94.0506 173.868 93.9981 173.894C93.9193 173.92 93.8406 173.947 93.7618 173.999C93.5781 174.078 93.4731 174.13 93.4206 174.13C93.3943 174.13 93.3681 174.13 93.3418 174.104C93.2631 174.078 93.1843 173.999 93.0794 173.894C92.9744 173.789 92.8431 173.658 92.6856 173.5C92.3444 173.08 92.1606 172.765 92.1606 172.529C92.1606 172.503 92.1606 172.45 92.1869 172.424C92.2131 172.398 92.2656 172.319 92.3444 172.24C92.4231 172.188 92.4756 172.136 92.5281 172.083C92.5806 172.031 92.6331 172.004 92.6594 171.978L95.993 167.201L94.4968 167.516C94.4443 167.542 94.3393 167.568 94.1818 167.647C94.0506 167.699 93.9456 167.726 93.8668 167.726C93.7356 167.726 93.5518 167.516 93.2893 167.096C93.0269 166.676 92.8956 166.387 92.9219 166.203C92.9219 166.02 93.0794 165.888 93.3418 165.862C93.3681 165.862 93.5518 165.836 93.9193 165.836L97.2792 165.337C97.6204 165.258 97.8304 165.206 97.8566 165.206C97.9091 165.206 97.9879 165.206 98.0404 165.232C98.0929 165.258 98.1454 165.285 98.1979 165.337C98.2504 165.39 98.3029 165.468 98.3554 165.573C98.4079 165.678 98.4866 165.81 98.5654 165.967C98.7753 166.361 98.8803 166.65 98.8803 166.807C98.8803 166.912 98.8541 166.964 98.8278 166.991Z" fill="white"/>
<path d="M106.099 173.343C106.099 173.474 106.046 173.579 105.941 173.658C105.836 173.736 105.731 173.789 105.6 173.763C104.471 173.605 103.842 173.395 103.71 173.133C103.684 173.08 103.684 173.054 103.684 173.028C103.71 172.949 103.737 172.87 103.789 172.791C103.842 172.713 103.868 172.66 103.894 172.608C103.894 172.581 103.92 172.503 103.92 172.45C103.92 172.372 103.92 172.267 103.92 172.135C103.815 172.214 103.658 172.424 103.422 172.791C103.317 173.001 103.185 173.159 103.107 173.29C103.002 173.421 102.923 173.526 102.818 173.605C102.529 173.868 102.188 174.025 101.82 174.025C101.584 174.025 101.374 173.946 101.19 173.763C101.138 173.71 101.085 173.658 100.98 173.579C100.902 173.5 100.77 173.395 100.665 173.238L99.9567 172.424C99.773 172.162 99.668 171.925 99.668 171.715C99.668 171.663 99.668 171.584 99.6942 171.505C99.878 170.718 100.403 169.957 101.295 169.222C101.925 168.723 102.844 168.172 104.078 167.568C104.078 167.279 103.999 167.095 103.868 167.017C103.789 166.964 103.448 167.069 102.923 167.332C102.398 167.594 102.004 167.804 101.768 167.988C101.742 168.014 101.689 168.067 101.637 168.119C101.584 168.172 101.505 168.224 101.427 168.277C101.269 168.382 101.138 168.408 101.007 168.355C100.902 168.329 100.692 168.172 100.377 167.857C100.062 167.568 99.878 167.358 99.8517 167.253C99.773 166.99 99.8517 166.807 100.088 166.676C100.114 166.649 100.298 166.597 100.639 166.518L101.637 165.967C101.978 165.783 102.293 165.652 102.608 165.573C102.923 165.494 103.185 165.442 103.422 165.416C103.632 165.389 103.868 165.494 104.13 165.731C104.367 165.941 104.603 166.151 104.839 166.361C105.075 166.571 105.338 166.754 105.574 166.964C105.863 167.227 106.02 167.463 106.02 167.699V172.844C106.073 173.08 106.125 173.238 106.099 173.343ZM103.92 169.353C103.684 169.432 103.474 169.563 103.29 169.668C103.107 169.799 102.923 169.957 102.765 170.14L102.057 171.007C101.873 171.19 101.689 171.453 101.505 171.768C101.348 172.057 101.269 172.293 101.269 172.424C101.269 172.503 101.295 172.529 101.348 172.529C101.532 172.529 101.952 172.109 102.634 171.295C103.317 170.482 103.737 169.825 103.92 169.353Z" fill="white"/>
<path d="M116.236 166.439C116.026 167.017 115.816 167.647 115.606 168.355C115.396 169.064 115.186 169.825 114.95 170.665C114.766 171.4 114.609 172.004 114.53 172.424C114.451 172.844 114.399 173.106 114.399 173.211V173.71C114.399 173.946 114.32 174.078 114.163 174.104C114.031 174.13 113.638 174.051 112.981 173.894C112.299 173.71 111.931 173.579 111.905 173.474C111.879 173.421 111.879 173.211 111.879 172.844C111.643 172.109 111.459 170.98 111.302 169.458C111.275 169.589 111.223 169.799 111.144 170.14C111.065 170.455 110.96 170.902 110.829 171.453C110.724 171.873 110.645 172.188 110.619 172.45C110.567 172.713 110.54 172.896 110.54 173.001L110.514 173.553C110.514 173.815 110.409 173.946 110.252 173.999C110.225 173.999 110.173 174.025 110.068 174.025C109.753 174.025 109.385 173.973 108.992 173.841C108.519 173.684 108.23 173.526 108.152 173.316C108.125 173.264 108.125 173.185 108.125 173.08C108.152 172.975 108.125 172.87 108.099 172.713L107.522 169.694C107.417 169.169 107.338 168.644 107.259 168.119C107.18 167.594 107.128 167.069 107.075 166.544C107.049 166.255 107.023 166.098 107.023 166.045C107.023 165.652 107.128 165.494 107.364 165.494C107.574 165.521 107.889 165.599 108.335 165.783C108.834 165.993 109.097 166.15 109.123 166.255C109.123 166.282 109.123 166.36 109.123 166.465C109.123 166.57 109.097 166.702 109.097 166.859C109.123 167.2 109.175 167.673 109.228 168.303C109.307 168.933 109.385 169.668 109.517 170.56L110.462 166.072C110.54 165.757 110.672 165.547 110.882 165.521C110.934 165.521 111.197 165.625 111.695 165.862C112.168 166.098 112.404 166.255 112.404 166.334C112.43 166.78 112.483 167.332 112.588 168.04C112.693 168.749 112.824 169.589 113.008 170.56C113.27 169.248 113.48 168.198 113.664 167.463C113.848 166.728 113.979 166.229 114.084 166.019C114.163 165.678 114.346 165.521 114.635 165.573C114.871 165.599 115.16 165.704 115.501 165.862C115.948 166.045 116.184 166.255 116.236 166.439Z" fill="white"/>
<path d="M123.455 173.343C123.455 173.474 123.403 173.579 123.298 173.658C123.193 173.736 123.088 173.789 122.957 173.763C121.828 173.605 121.198 173.395 121.067 173.133C121.04 173.08 121.04 173.054 121.04 173.028C121.067 172.949 121.093 172.87 121.145 172.791C121.198 172.713 121.224 172.66 121.25 172.608C121.25 172.581 121.277 172.503 121.277 172.45C121.277 172.372 121.277 172.267 121.277 172.135C121.172 172.214 121.014 172.424 120.778 172.791C120.673 173.001 120.542 173.159 120.463 173.29C120.358 173.421 120.279 173.526 120.174 173.605C119.886 173.868 119.544 174.025 119.177 174.025C118.941 174.025 118.731 173.946 118.547 173.763C118.494 173.71 118.442 173.658 118.337 173.579C118.258 173.5 118.127 173.395 118.022 173.238L117.313 172.424C117.129 172.162 117.024 171.925 117.024 171.715C117.024 171.663 117.024 171.584 117.051 171.505C117.234 170.718 117.759 169.957 118.652 169.222C119.282 168.723 120.201 168.172 121.434 167.568C121.434 167.279 121.355 167.095 121.224 167.017C121.145 166.964 120.804 167.069 120.279 167.332C119.754 167.594 119.361 167.804 119.124 167.988C119.098 168.014 119.046 168.067 118.993 168.119C118.941 168.172 118.862 168.224 118.783 168.277C118.626 168.382 118.494 168.408 118.363 168.355C118.258 168.329 118.048 168.172 117.733 167.857C117.418 167.568 117.234 167.358 117.208 167.253C117.129 166.99 117.208 166.807 117.444 166.676C117.471 166.649 117.654 166.597 117.996 166.518L118.993 165.967C119.334 165.783 119.649 165.652 119.964 165.573C120.279 165.494 120.542 165.442 120.778 165.416C120.988 165.389 121.224 165.494 121.487 165.731C121.723 165.941 121.959 166.151 122.195 166.361C122.432 166.571 122.694 166.754 122.93 166.964C123.219 167.227 123.377 167.463 123.377 167.699V172.844C123.455 173.08 123.482 173.238 123.455 173.343ZM121.277 169.353C121.04 169.432 120.83 169.563 120.647 169.668C120.463 169.799 120.279 169.957 120.122 170.14L119.413 171.007C119.229 171.19 119.046 171.453 118.862 171.768C118.704 172.057 118.626 172.293 118.626 172.424C118.626 172.503 118.652 172.529 118.704 172.529C118.888 172.529 119.308 172.109 119.991 171.295C120.673 170.482 121.093 169.825 121.277 169.353Z" fill="white"/>
<path d="M277.084 169.223C277.084 169.301 277.111 169.354 277.111 169.433C277.111 169.485 277.111 169.564 277.111 169.643C277.111 170.378 276.796 171.191 276.139 172.084C275.641 172.766 274.984 173.396 274.223 173.974C273.515 174.472 273.068 174.682 272.832 174.656C272.543 174.604 272.071 174.42 271.388 174.079C270.706 173.711 270.338 173.449 270.26 173.318C270.233 173.265 270.233 173.213 270.233 173.186C270.233 173.134 270.26 173.055 270.286 172.976C270.312 172.898 270.338 172.819 270.338 172.766V163.947C270.338 163.789 270.548 163.737 270.942 163.737C271.152 163.737 271.31 163.763 271.415 163.789C271.835 163.527 272.386 163.264 273.016 163.08C273.672 162.871 274.223 162.766 274.696 162.766C274.958 162.766 275.168 162.792 275.326 162.871C275.483 162.949 275.614 163.08 275.746 163.264C275.929 163.527 276.034 163.71 276.087 163.763L276.533 164.13C276.691 164.262 276.796 164.419 276.848 164.577C276.874 164.682 276.901 164.787 276.901 164.918C276.901 165.627 276.428 166.414 275.483 167.254C276.454 167.963 277.006 168.645 277.084 169.223ZM274.696 164.813C274.696 164.787 274.643 164.76 274.538 164.76C274.328 164.76 274.013 164.865 273.567 165.075C273.121 165.285 272.806 165.495 272.675 165.705L272.701 167.123C272.99 166.887 273.252 166.65 273.488 166.414C273.751 166.178 273.961 165.942 274.171 165.705C274.591 165.233 274.748 164.944 274.696 164.813ZM275.194 168.829C274.932 168.855 274.538 168.96 273.987 169.17C273.383 169.406 272.963 169.643 272.648 169.879V172.399C273.252 172.241 273.829 171.743 274.407 170.903C274.984 170.089 275.247 169.406 275.194 168.829Z" fill="white"/>
<path d="M283.648 171.847C283.727 171.978 283.543 172.398 283.123 173.055C282.887 173.422 282.651 173.711 282.415 173.947C282.178 174.183 281.942 174.367 281.732 174.498C281.68 174.525 281.601 174.551 281.496 174.551C281.155 174.551 280.682 174.446 280.105 174.236C279.501 174.026 279.107 173.816 278.897 173.553C278.372 172.871 278.11 171.926 278.11 170.719C278.11 169.564 278.346 168.566 278.792 167.7C279.291 166.729 279.947 166.256 280.709 166.256C280.971 166.256 281.312 166.309 281.732 166.466C282.231 166.65 282.625 166.912 282.94 167.254C283.018 167.332 283.097 167.569 283.176 167.989C283.228 168.199 283.255 168.435 283.281 168.645C283.307 168.855 283.307 169.065 283.307 169.275C283.307 169.905 283.202 170.325 283.018 170.561C282.1 170.85 281.128 171.007 280.157 171.06C280.157 171.506 280.21 171.978 280.315 172.451C280.42 172.923 280.577 173.186 280.709 173.212C280.892 173.238 281.102 173.081 281.365 172.766C281.575 172.53 281.732 172.293 281.785 172.11C281.811 171.978 281.863 171.847 281.89 171.69C281.942 171.558 281.968 171.401 282.021 171.27C282.178 171.244 282.467 171.322 282.887 171.48C283.333 171.585 283.57 171.716 283.648 171.847ZM281.233 167.674C281.076 167.674 280.866 167.91 280.577 168.409C280.289 168.934 280.131 169.406 280.105 169.852C280.499 169.852 280.84 169.747 281.076 169.564C281.233 169.459 281.286 169.012 281.286 168.199C281.286 167.884 281.286 167.7 281.233 167.674Z" fill="white"/>
<path d="M289.817 167.017C289.843 167.149 289.791 167.28 289.66 167.359C289.607 167.385 289.555 167.411 289.502 167.437C289.45 167.464 289.397 167.49 289.345 167.542L287.008 171.06C287.008 172.53 287.008 173.265 287.035 173.291L287.14 173.632C287.192 173.79 287.245 173.947 287.245 174.078C287.245 174.236 287.166 174.341 287.008 174.42C286.903 174.472 286.772 174.498 286.588 174.498C286.273 174.498 285.88 174.42 285.433 174.262C284.908 174.105 284.646 173.868 284.646 173.58C284.646 173.553 284.646 173.501 284.672 173.422C284.698 173.343 284.725 173.265 284.751 173.186C284.777 173.107 284.803 173.028 284.83 172.95C284.856 172.871 284.856 172.792 284.856 172.74V167.359L284.698 166.571C284.698 166.283 284.83 166.099 285.092 166.046C285.197 166.02 285.328 165.994 285.486 165.994C285.643 165.994 285.801 166.02 285.958 166.046C286.116 166.073 286.3 166.125 286.457 166.151C286.798 166.256 287.008 166.361 287.087 166.466C287.113 166.519 287.113 166.571 287.113 166.597C287.113 166.624 287.061 166.834 286.93 167.254V167.91C287.035 167.7 287.14 167.516 287.245 167.332C287.35 167.149 287.455 166.939 287.56 166.755C287.822 166.256 288.032 165.994 288.19 165.968C288.4 165.941 288.688 166.046 289.108 166.309C289.528 166.598 289.765 166.834 289.817 167.017Z" fill="white"/>
<path d="M293.226 163.631C293.226 163.683 293.2 163.788 293.174 163.893C293.121 163.998 293.095 164.077 293.095 164.103C293.042 164.287 292.99 164.55 292.937 164.943V173.29C292.937 173.395 292.964 173.5 293.016 173.579C293.069 173.658 293.095 173.737 293.095 173.789C293.095 174.367 292.99 174.682 292.78 174.708C292.675 174.734 292.386 174.655 291.914 174.524C291.415 174.393 291.126 174.288 291.021 174.209C290.811 174.052 290.732 173.894 290.732 173.737C290.732 173.71 290.759 173.658 290.785 173.605C290.811 173.553 290.837 173.474 290.837 173.369V163.762C290.837 163.71 290.811 163.657 290.785 163.605C290.759 163.552 290.732 163.5 290.732 163.447C290.759 163.237 290.916 163.08 291.231 163.001C291.31 163.001 291.52 163.001 291.809 163.001C291.992 163.027 292.15 163.027 292.281 163.053C292.412 163.08 292.544 163.106 292.675 163.132C293.042 163.29 293.226 163.447 293.226 163.631Z" fill="white"/>
<path d="M297.035 173.947C297.087 174.262 296.956 174.472 296.693 174.551C296.667 174.551 296.615 174.577 296.51 174.577C296.168 174.577 295.775 174.498 295.302 174.367C294.777 174.21 294.488 174.052 294.383 173.921C294.331 173.842 294.383 173.711 294.515 173.501C294.593 173.37 294.646 173.107 294.646 172.74V167.017C294.541 166.676 294.488 166.44 294.488 166.335C294.488 166.23 294.646 166.151 294.987 166.151C295.25 166.151 295.617 166.23 296.116 166.414C296.615 166.597 296.93 166.729 297.008 166.86C297.035 166.912 297.061 166.939 297.061 166.991C297.061 167.07 297.008 167.201 296.903 167.411C296.798 167.621 296.746 167.779 296.746 167.857V173.343C296.746 173.396 296.772 173.448 296.798 173.501C296.825 173.553 296.877 173.632 296.903 173.685C296.956 173.737 296.982 173.816 297.008 173.868C297.008 173.895 297.035 173.921 297.035 173.947ZM297.087 164.55C297.087 164.55 297.113 164.603 297.113 164.655C297.113 164.865 297.061 165.128 296.982 165.443C296.877 165.784 296.798 165.967 296.72 166.02C296.641 166.046 296.247 165.967 295.538 165.731C294.856 165.495 294.488 165.338 294.436 165.233C294.41 165.206 294.383 165.128 294.383 165.023C294.383 164.786 294.436 164.524 294.567 164.235C294.725 163.946 294.882 163.763 295.066 163.71C295.276 163.658 295.643 163.736 296.142 163.946C296.693 164.156 296.982 164.34 297.087 164.55Z" fill="white"/>
<path d="M304.539 173.37C304.618 173.554 304.644 173.738 304.644 173.895C304.644 174.158 304.539 174.341 304.329 174.446C304.251 174.473 304.146 174.499 303.988 174.499C303.7 174.499 303.332 174.446 302.886 174.341C302.466 174.236 302.203 174.158 302.098 174.079C302.046 174.026 302.02 173.948 302.02 173.895C302.02 173.79 302.098 173.633 302.23 173.423C302.361 173.186 302.44 173.029 302.44 172.924C302.44 169.354 302.413 167.543 302.361 167.517C302.23 167.49 301.915 167.884 301.416 168.75C300.891 169.669 300.628 170.352 300.628 170.798V173.344C300.733 173.449 300.812 173.606 300.812 173.79C300.812 174.131 300.655 174.368 300.34 174.473C300.287 174.499 300.235 174.499 300.182 174.499C299.92 174.499 299.578 174.446 299.106 174.315C298.633 174.21 298.371 174.131 298.318 174.053C298.266 174 298.24 173.895 298.24 173.816C298.24 173.764 298.266 173.711 298.292 173.659C298.318 173.606 298.371 173.554 298.397 173.501C298.423 173.449 298.476 173.396 298.502 173.344C298.528 173.291 298.555 173.265 298.555 173.239V166.913C298.555 166.834 298.528 166.755 298.45 166.624C298.371 166.519 298.345 166.414 298.371 166.335C298.423 166.152 298.555 166.02 298.791 165.968C298.948 165.942 299.263 165.994 299.815 166.125C300.392 166.283 300.707 166.414 300.76 166.572C300.786 166.677 300.786 166.834 300.707 167.018C300.602 167.333 300.55 167.517 300.55 167.569C300.55 167.674 300.576 167.779 300.602 167.884C300.733 167.438 300.917 167.018 301.18 166.677C301.468 166.257 301.783 166.047 302.072 166.047C302.387 166.047 302.781 166.152 303.28 166.362C303.778 166.572 304.067 166.755 304.119 166.939C304.408 167.49 304.539 169.643 304.539 173.37Z" fill="white"/>
<path d="M208.313 189.486L109.486 187.701C109.486 187.701 109.486 190.247 110.746 190.877C112.006 191.507 113.529 191.769 113.397 192.793C113.266 193.817 107.098 201.298 101.559 207.781C96.0208 214.265 92.4772 220.486 91.9784 223.163C91.4797 225.84 91.4797 226.339 90.456 227.1C89.4586 227.861 86.1775 229.384 84.1563 233.951C82.1351 238.519 82.2664 239.28 82.0039 242.456C81.7414 245.632 81.2427 260.751 81.2427 260.751L298.452 266.841C298.583 266.447 303.255 240.041 302.861 236.104C302.494 232.166 293.648 224.79 280.812 221.614C267.951 218.438 245.009 213.346 244.248 213.11C243.487 212.847 208.313 189.486 208.313 189.486Z" fill="#0C96FD"/>
<path d="M81.7414 245.634C81.4789 248.81 81.2427 260.753 81.2427 260.753L298.452 266.843C298.557 266.528 300.893 254.007 301.759 245.581C301.759 245.581 270.89 233.349 253.592 232.378C236.268 231.407 211.752 240.961 194.06 239.78C176.368 238.599 153.637 228.493 133.609 228.493C113.581 228.493 81.7414 245.634 81.7414 245.634Z" fill="#1D7DCC"/>
<path d="M108.096 251.618H79.7214C79.7214 251.618 78.5927 256.947 79.7214 259.887C80.8501 262.8 84.5249 266.738 91.5596 267C98.6205 267.263 298.951 267.499 298.951 267.499C298.951 267.499 300.973 265.714 302.233 260.753C303.493 255.792 301.393 249.44 301.393 249.44C301.393 249.44 299.844 252.222 293.413 253.377C286.982 254.532 263.043 253.876 263.043 253.876L242.622 263.903L134.713 260.464L108.096 251.618Z" fill="#2D2D2D"/>
<path d="M113.374 192.767C113.374 192.767 110.224 194.552 107.704 197.203C105.184 199.854 102.875 206.207 102.875 206.207C102.875 206.207 115.343 194.368 113.374 192.767Z" fill="#2D2D2D"/>
<path d="M101.037 218.202C99.0155 216.522 91.1934 219.987 90.8259 222.638C90.4584 225.289 97.2568 225.814 98.3855 224.79C99.5142 223.793 102.428 219.331 101.037 218.202Z" fill="#7D009B"/>
<path d="M132.273 223.635C132.273 227.283 143.639 227.283 143.639 223.924C143.639 219.829 132.273 220.406 132.273 223.635Z" fill="#1D7DCC"/>
<path d="M127.522 225.288H139.727C139.937 225.288 140.121 225.104 140.121 224.894V222.637C140.121 222.427 139.937 222.243 139.727 222.243H127.522C127.312 222.243 127.128 222.427 127.128 222.637V224.894C127.128 225.104 127.312 225.288 127.522 225.288Z" fill="#878FB3"/>
<path d="M231.753 210.329L208.943 193.818C208.943 193.818 142.008 192.795 135.078 192.795C124.868 192.795 118.568 197.231 118.568 202.454C118.568 207.652 132.558 207.652 142.402 207.652C152.245 207.652 231.753 210.329 231.753 210.329Z" fill="#2D2D2D"/>
<path d="M250.154 246.788H249.917V225.342L231.701 210.407L231.832 210.223L250.154 225.237V246.788Z" fill="#024168"/>
<path d="M228.369 208.91C228.316 207.755 226.479 204.605 223.88 204.605C221.282 204.605 221.308 212.217 223.067 212.716C224.825 213.241 228.474 211.587 228.369 208.91Z" fill="#F1F3F2"/>
<path d="M165.058 260.253H164.821V230.277L168.627 208.7L168.837 208.727L165.058 230.277V260.253Z" fill="#024168"/>
<path d="M121.196 255.949H120.96V229.753L125.212 206.732L125.449 206.785L121.196 229.779V255.949Z" fill="#024168"/>
<path d="M283.255 222.297C283.255 222.297 291.13 227.468 292.154 230.277C293.151 233.059 294.411 235.606 295.041 235.737C295.671 235.868 302.863 236.131 302.863 236.131C302.863 236.131 303.677 229.936 302.627 229.227C301.577 228.518 286.221 220.801 283.255 222.297Z" fill="#F1F3F2"/>
<path d="M285.196 242.982H292.704C292.966 242.982 293.202 242.772 293.202 242.483V239.649C293.202 239.386 292.992 239.15 292.704 239.15H285.196C284.934 239.15 284.698 239.36 284.698 239.649V242.483C284.724 242.746 284.934 242.982 285.196 242.982Z" fill="#878FB3"/>
<path d="M182.722 223.635C182.722 227.283 194.087 227.283 194.087 223.924C194.061 219.829 182.722 220.406 182.722 223.635Z" fill="#1D7DCC"/>
<path d="M177.945 225.288H190.151C190.361 225.288 190.544 225.104 190.544 224.894V222.637C190.544 222.427 190.361 222.243 190.151 222.243H177.945C177.735 222.243 177.551 222.427 177.551 222.637V224.894C177.551 225.104 177.735 225.288 177.945 225.288Z" fill="#878FB3"/>
<path d="M169.387 193.24H168.206V208.307H169.387V193.24Z" fill="#024168"/>
<path d="M125.447 206.785H124.633V194.789L125.447 194.421V206.785Z" fill="#024168"/>
<path d="M110.691 267.235C110.403 265.739 110.245 264.19 110.245 262.589C110.245 248.625 121.558 237.338 135.496 237.338C149.435 237.338 160.748 248.651 160.748 262.589C160.748 264.19 160.59 265.739 160.302 267.235H110.691Z" fill="#024168"/>
<path d="M135.497 281.253C147.268 281.253 156.811 271.71 156.811 259.939C156.811 248.167 147.268 238.625 135.497 238.625C123.725 238.625 114.183 248.167 114.183 259.939C114.183 271.71 123.725 281.253 135.497 281.253Z" fill="black"/>
<path d="M135.497 274.297C143.427 274.297 149.855 267.869 149.855 259.939C149.855 252.009 143.427 245.581 135.497 245.581C127.567 245.581 121.139 252.009 121.139 259.939C121.139 267.869 127.567 274.297 135.497 274.297Z" fill="#606060"/>
<path d="M135.5 269.94C141.023 269.94 145.501 265.463 145.501 259.94C145.501 254.416 141.023 249.939 135.5 249.939C129.977 249.939 125.499 254.416 125.499 259.94C125.499 265.463 129.977 269.94 135.5 269.94Z" fill="black"/>
<path d="M147.653 267.682C147.101 268.575 146.445 269.415 145.658 270.176C144.949 270.885 144.161 271.515 143.348 272.04L123.556 252.143C124.081 251.329 124.711 250.568 125.42 249.86C126.207 249.098 127.047 248.442 127.94 247.865L147.653 267.682Z" fill="#A8A9AD"/>
<path d="M143.556 248.022C144.422 248.599 145.262 249.255 146.023 250.043C146.732 250.778 147.336 251.539 147.861 252.379L127.675 271.908C126.862 271.357 126.127 270.727 125.418 270.018C124.657 269.231 124.027 268.364 123.476 267.472L143.556 248.022Z" fill="#A8A9AD"/>
<path d="M225.401 267.235C225.113 265.739 224.955 264.19 224.955 262.589C224.955 248.625 236.268 237.338 250.206 237.338C264.171 237.338 275.458 248.651 275.458 262.589C275.458 264.19 275.3 265.739 275.012 267.235H225.401Z" fill="#024168"/>
<path d="M250.23 281.253C262.001 281.253 271.544 271.71 271.544 259.939C271.544 248.167 262.001 238.625 250.23 238.625C238.458 238.625 228.916 248.167 228.916 259.939C228.916 271.71 238.458 281.253 250.23 281.253Z" fill="black"/>
<path d="M250.23 274.297C258.159 274.297 264.588 267.869 264.588 259.939C264.588 252.009 258.159 245.581 250.23 245.581C242.3 245.581 235.872 252.009 235.872 259.939C235.872 267.869 242.3 274.297 250.23 274.297Z" fill="#606060"/>
<path d="M250.228 269.94C255.752 269.94 260.229 265.463 260.229 259.94C260.229 254.416 255.752 249.939 250.228 249.939C244.705 249.939 240.228 254.416 240.228 259.94C240.228 265.463 244.705 269.94 250.228 269.94Z" fill="black"/>
<path d="M262.382 267.682C261.831 268.575 261.174 269.415 260.387 270.176C259.678 270.885 258.891 271.515 258.077 272.04L238.259 252.143C238.784 251.329 239.414 250.568 240.123 249.86C240.91 249.098 241.75 248.442 242.643 247.865L262.382 267.682Z" fill="#A8A9AD"/>
<path d="M258.263 248.022C259.13 248.599 259.97 249.255 260.731 250.043C261.44 250.778 262.043 251.539 262.568 252.379L242.383 271.908C241.569 271.357 240.834 270.727 240.126 270.018C239.364 269.231 238.734 268.364 238.183 267.472L258.263 248.022Z" fill="#A8A9AD"/>
<path d="M199.627 185.287C199.627 185.287 195.664 183.817 192.278 187.177C190.02 189.408 190.965 195.419 192.356 197.23C193.774 199.042 199.024 201.745 199.024 201.745C199.024 201.745 213.224 185.944 199.627 185.287Z" fill="#A5713D"/>
<path d="M202.198 205.025C199.862 205.524 197.158 206.338 195.898 207.571C194.376 209.067 195.321 213.267 203.09 211.981C210.86 210.695 209.836 207.151 208.839 206.259C207.395 204.92 203.983 204.658 202.198 205.025Z" fill="#F69576"/>
<path d="M204.143 199.566L207.713 208.884L198.63 210.827C198.63 210.827 198.263 206.889 198.237 204.317C198.21 201.718 198.473 200.799 198.473 200.799L204.143 199.566Z" fill="#F69576"/>
<path d="M200.756 203.031C200.756 203.031 201.071 204.816 202.41 205.341C203.749 205.866 206.373 205.315 206.373 205.315L204.169 199.54L200.336 200.354C200.31 200.38 200.363 201.929 200.756 203.031Z" fill="#DD866F"/>
<path d="M202.962 187.597C202.962 187.597 204.327 188.305 205.272 190.3C206.007 191.823 206.296 193.581 206.69 194.526C207.11 195.471 207.766 196.941 207.766 198.359C207.792 199.776 206.978 201.876 204.878 202.978C202.779 204.081 200.862 204.028 199.314 202.742C197.765 201.456 195.639 198.989 194.773 197.177C193.906 195.366 192.883 191.744 194.589 189.696C196.768 187.045 199.891 186.363 202.962 187.597Z" fill="#F69576"/>
<path d="M201.229 199.329C201.229 199.329 201.728 200.589 202.568 200.694C203.408 200.799 204.169 200.458 204.432 199.933C204.694 199.408 204.694 198.542 204.694 198.542L201.229 199.329Z" fill="white"/>
<path d="M202.831 197.492C202.779 197.492 202.726 197.492 202.674 197.465C202.569 197.413 202.516 197.255 202.49 197.177C202.49 197.177 202.49 197.15 202.49 197.124C202.464 197.15 202.438 197.177 202.385 197.255C202.333 197.334 202.254 197.387 202.149 197.387C202.018 197.387 201.913 197.282 201.834 197.124C201.729 196.862 201.886 196.363 201.886 196.31C201.886 196.258 201.939 196.258 201.991 196.258C202.044 196.258 202.044 196.31 202.044 196.363C201.991 196.494 201.913 196.888 201.991 197.072C202.044 197.203 202.123 197.229 202.175 197.229C202.228 197.229 202.254 197.203 202.254 197.177C202.333 197.045 202.411 196.967 202.49 196.967C202.543 196.967 202.569 196.967 202.595 197.019C202.621 197.045 202.621 197.098 202.648 197.15C202.674 197.229 202.7 197.308 202.753 197.334C202.779 197.334 202.805 197.334 202.858 197.334C202.963 197.282 202.963 197.203 202.91 197.045C202.884 196.967 202.884 196.914 202.91 196.862C202.936 196.835 202.963 196.809 202.989 196.809C203.041 196.809 203.094 196.835 203.146 196.862C203.251 196.914 203.304 196.914 203.356 196.835C203.383 196.809 203.383 196.73 203.356 196.652C203.304 196.442 203.094 196.153 202.963 196.1C202.936 196.074 202.91 196.048 202.936 195.995C202.963 195.969 202.989 195.943 203.041 195.969C203.225 196.048 203.461 196.363 203.514 196.625C203.54 196.757 203.54 196.862 203.488 196.94C203.356 197.124 203.199 197.045 203.094 196.993C203.094 196.993 203.068 196.993 203.041 196.967V196.993C203.068 197.124 203.146 197.36 202.884 197.465C202.858 197.465 202.858 197.465 202.831 197.492Z" fill="#6B3425"/>
<path d="M191.044 196.468C191.359 194.605 196.714 195.077 196.478 198.437C196.189 201.875 190.572 199.198 191.044 196.468Z" fill="#F69576"/>
<path d="M195.613 199.015C195.587 199.015 195.587 199.015 195.56 199.015C195.534 198.989 195.508 198.937 195.534 198.91C195.692 198.648 195.587 197.913 195.167 197.257C194.878 196.81 194.222 196.049 193.119 196.154C192.515 196.207 192.148 196.39 191.964 196.705C191.702 197.178 192.017 197.782 192.017 197.782C192.043 197.808 192.017 197.86 191.99 197.887C191.964 197.913 191.912 197.887 191.885 197.86C191.859 197.834 191.544 197.178 191.833 196.653C192.043 196.285 192.463 196.075 193.119 196.023C193.985 195.944 194.799 196.364 195.324 197.204C195.744 197.86 195.902 198.648 195.692 199.015C195.639 199.015 195.639 199.015 195.613 199.015Z" fill="#6B3425"/>
<path d="M193.747 199.12C193.721 199.12 193.695 199.12 193.668 199.094C193.642 199.041 192.776 197.782 193.275 196.049C193.275 195.997 193.327 195.997 193.38 195.997C193.432 195.997 193.432 196.049 193.432 196.102C192.96 197.755 193.8 198.989 193.8 199.015C193.826 199.041 193.826 199.094 193.773 199.12H193.747Z" fill="#6B3425"/>
<path d="M200.088 196.503C200.244 196.47 200.319 196.201 200.255 195.904C200.192 195.606 200.014 195.392 199.858 195.425C199.702 195.458 199.627 195.727 199.69 196.025C199.754 196.322 199.932 196.537 200.088 196.503Z" fill="#6B3425"/>
<path d="M198.366 194.789C198.55 194.553 198.944 194.238 199.39 194.08C199.889 193.923 200.204 194.08 200.414 194.08C200.624 194.08 200.598 193.818 200.44 193.581C200.283 193.371 199.81 193.293 199.128 193.45C198.445 193.634 198.13 194.001 197.999 194.264C197.868 194.526 198.13 195.104 198.366 194.789Z" fill="#6B3425"/>
<path d="M204.287 195.453C204.443 195.42 204.518 195.152 204.454 194.854C204.391 194.556 204.213 194.342 204.057 194.375C203.901 194.409 203.826 194.677 203.89 194.975C203.953 195.273 204.131 195.487 204.287 195.453Z" fill="#6B3425"/>
<path d="M202.828 193.608C203.012 193.372 203.406 193.057 203.852 192.899C204.351 192.742 204.666 192.899 204.876 192.899C205.086 192.899 205.059 192.637 204.902 192.401C204.744 192.164 204.272 192.112 203.59 192.269C202.907 192.453 202.592 192.821 202.461 193.083C202.33 193.346 202.592 193.923 202.828 193.608Z" fill="#6B3425"/>
<path d="M206.06 199.986L205.745 200.143C205.745 200.143 205.351 201.613 204.853 201.981C204.354 202.348 202.49 202.663 202.254 202.532C202.018 202.401 201.073 201.088 201.073 201.088L200.653 201.298C200.653 201.298 201.755 203.267 201.913 203.451C201.992 203.556 203.383 204.133 203.881 204.054C204.38 203.976 205.798 202.742 205.85 202.532C205.955 201.849 206.06 199.986 206.06 199.986Z" fill="#6B3425"/>
<path d="M204.143 201.245L203.329 201.403L203.618 202.847L204.248 202.82L204.143 201.245Z" fill="#6B3425"/>
<path d="M193.642 187.492C193.642 187.492 196.293 190.536 201.647 189.697C212.829 187.964 206.451 182.872 206.451 182.872C206.451 182.872 207.186 184.421 205.322 184.919C202.75 185.602 197.29 178.515 193.642 187.492Z" fill="#A5713D"/>
<path d="M202.302 183.134C202.302 183.134 199.756 179.092 195.005 179.302C190.254 179.512 185.844 184.552 184.768 188.384C183.692 192.217 186.501 199.356 186.501 199.356C186.501 199.356 185.529 191.429 187.157 190.642C188.784 189.854 191.252 192.243 191.252 192.243L202.302 183.134Z" fill="#254B6B"/>
<path d="M202.618 182.216C203.458 182.373 205.532 184.08 205.322 184.867C205.112 185.655 192.801 194.973 192.224 195.288C191.646 195.603 189.835 193.398 190.36 191.534C190.885 189.671 200.361 181.822 202.618 182.216Z" fill="white"/>
<path d="M187.292 200.822C188.293 200.524 188.855 199.448 188.548 198.42C188.241 197.393 187.181 196.801 186.181 197.1C185.181 197.399 184.619 198.474 184.926 199.502C185.233 200.53 186.292 201.121 187.292 200.822Z" fill="white"/>
<path d="M209.681 205.551C208.841 204.659 206.793 204.764 207.213 205.367C207.633 205.971 208.237 208.911 207.213 209.515C206.19 210.118 204.877 210.25 205.113 211.536C205.35 212.822 208.709 211.483 209.523 210.276C210.363 209.068 210.599 206.522 209.681 205.551Z" fill="white"/>
<path d="M198.208 206.182C198.26 205.158 195.11 206.051 194.821 207.153C194.401 208.807 194.795 209.673 195.609 210.907C196.948 212.849 200.754 213.82 203.405 213.243C204.953 212.901 205.925 212.062 205.006 211.169C204.061 210.277 200.937 212.009 199.152 210.723C197.394 209.41 198.155 207.022 198.208 206.182Z" fill="white"/>
<path d="M212.591 217.757H192.064V209.016L213.982 209.725L212.591 217.757Z" fill="#0C96FD"/>
<path d="M182.668 159.72H150.985V188.908H182.668V159.72Z" fill="#FFE051"/>
<path d="M182.668 167.227H150.985V167.7H182.668V167.227Z" fill="#493127"/>
<path d="M165.709 159.72H165.237V188.908H165.709V159.72Z" fill="#493127"/>
<path d="M165.135 167.858L165.24 167.149C165.319 166.703 165.948 162.713 167.287 161.952C167.576 161.794 167.865 161.768 168.153 161.899C168.442 162.03 168.626 162.24 168.678 162.529C168.967 163.946 165.948 166.991 165.607 167.333L165.135 167.858ZM167.76 162.293C167.681 162.293 167.576 162.319 167.497 162.372C166.683 162.818 166.106 165.049 165.817 166.466C166.998 165.206 168.363 163.395 168.232 162.634C168.206 162.503 168.127 162.398 167.97 162.345C167.917 162.293 167.838 162.293 167.76 162.293Z" fill="#493127"/>
<path d="M164.685 167.464L165.341 166.991C165.499 166.886 169.252 164.13 171.142 164.576C171.562 164.681 171.851 164.918 172.061 165.285C172.166 165.469 172.166 165.679 172.061 165.862C171.431 166.965 166.496 167.359 165.499 167.437L164.685 167.464ZM170.644 164.996C169.357 164.996 167.362 166.177 166.312 166.886C168.465 166.676 171.274 166.23 171.615 165.626C171.641 165.574 171.641 165.548 171.615 165.495C171.484 165.259 171.3 165.101 171.011 165.049C170.906 164.996 170.775 164.996 170.644 164.996Z" fill="#493127"/>
<path d="M171.142 170.954H171.116C169.357 170.927 165.656 168.486 165.236 167.515C165.131 167.252 165.21 167.069 165.289 167.016C165.892 166.386 169.383 167.646 170.985 168.722C171.93 169.352 172.297 169.956 172.087 170.455C171.982 170.691 171.72 170.954 171.142 170.954ZM165.656 167.331C165.761 167.882 168.753 170.061 170.67 170.455C171.037 170.534 171.536 170.56 171.667 170.271C171.772 170.061 171.536 169.72 171.037 169.326C169.357 168.04 166.102 167.095 165.656 167.331Z" fill="#493127"/>
<path d="M168.311 174.157C168.127 174.157 167.97 174.104 167.812 174.025C166.185 173.133 165.319 167.831 165.24 167.227L165.135 166.466L165.66 167.017C166.08 167.463 169.728 171.506 169.387 173.317C169.308 173.658 169.125 173.894 168.81 174.052C168.626 174.104 168.468 174.157 168.311 174.157ZM165.843 167.962C166.211 169.852 166.998 173.054 168.048 173.606C168.232 173.71 168.39 173.711 168.573 173.632C168.757 173.553 168.862 173.422 168.888 173.238C169.125 172.083 167.103 169.432 165.843 167.962Z" fill="#493127"/>
<path d="M162.93 173.527C162.773 173.527 162.589 173.474 162.432 173.369C162.169 173.185 162.012 172.923 161.959 172.608C161.802 170.928 164.978 167.778 165.345 167.411L165.87 166.886L165.739 167.621C165.634 168.146 164.689 172.844 163.245 173.448C163.167 173.5 163.062 173.527 162.93 173.527ZM162.694 172.975C162.825 173.054 162.957 173.08 163.088 173.028C163.954 172.66 164.742 169.983 165.135 168.329C164.033 169.511 162.353 171.532 162.458 172.555C162.458 172.765 162.537 172.897 162.694 172.975Z" fill="#493127"/>
<path d="M160.094 170.692C159.963 170.692 159.858 170.692 159.753 170.665C158.965 170.56 158.65 170.14 158.519 169.799C158.204 168.88 158.65 168.093 159.779 167.568C161.642 166.702 165.265 166.649 165.711 167.489C165.79 167.62 165.816 167.83 165.632 168.119C164.976 169.09 161.957 170.692 160.094 170.692ZM163.401 167.358C162.325 167.358 160.986 167.515 159.989 167.988C159.07 168.408 158.729 168.959 158.965 169.642C159.254 170.429 160.488 170.245 161.196 170.088C163.375 169.537 165.396 168.067 165.344 167.725C165.212 167.489 164.425 167.358 163.401 167.358Z" fill="#493127"/>
<path d="M165.29 167.882C165.132 167.882 164.975 167.83 164.896 167.804C163.583 167.41 160.486 165.126 160.224 163.709C160.171 163.341 160.276 163.053 160.539 162.869C161.457 162.186 163.058 163.368 164.266 164.733C164.476 164.969 166.313 167.069 165.683 167.751C165.578 167.856 165.447 167.882 165.29 167.882ZM161.195 163.131C161.064 163.131 160.932 163.158 160.827 163.236C160.617 163.394 160.644 163.709 160.932 164.181C161.93 165.756 164.948 167.62 165.368 167.41C165.526 167.148 164.528 165.441 163.032 164.129C162.271 163.499 161.641 163.131 161.195 163.131Z" fill="#493127"/>
</svg>
