<svg width="375" height="308" viewBox="0 0 375 308" fill="none" xmlns="http://www.w3.org/2000/svg">
<path d="M169.758 54.3854C187.92 57.8203 222.139 -12.2948 260.013 3.1756C297.886 18.646 270.052 68.4923 283.562 79.6625C297.071 90.8327 334.077 56.4568 349.636 92.5633C365.195 128.67 341.541 167.346 341.199 173.35C340.857 179.355 383.856 211.633 371.923 256.078C359.991 300.523 201.534 304.823 144.974 306.527C88.4141 308.232 12.7993 308.101 1.65555 261.768C-9.48823 215.435 41.1319 175.081 45.8102 162.128C50.4884 149.175 8.14733 104.101 61.238 48.6954C102.318 5.82393 151.597 50.9504 169.758 54.3854Z" fill="#9ECBDD"/>
<path d="M1.7083 261.743C12.8521 308.075 88.4931 308.233 145.027 306.502C201.56 304.772 360.018 300.498 371.976 256.053C380.098 225.82 362.804 201.198 351.003 186.672H27.2286C12.1424 205.761 -5.33541 232.559 1.7083 261.743Z" fill="#776B67"/>
<path d="M12.5885 207.7C3.33707 223.564 -3.04958 242.128 1.68127 261.742C12.8251 308.074 88.4661 308.232 145 306.501C201.533 304.771 359.991 300.497 371.949 256.052C376.943 237.461 372.317 220.994 365.3 207.7H12.5885Z" fill="#3D3B38"/>
<path d="M160.665 91.1225C160.665 91.1225 157.406 84.8294 164.818 84.1214C164.055 79.1132 171.309 71.5615 183.899 74.7867C186.028 69.3327 198.039 59.7096 206.397 71.4304C222.324 64.7703 224.584 74.3672 222.455 76.0978C234.808 73.869 232.626 82.3122 230.55 83.2561C246.898 79.7687 244.638 91.1225 244.638 91.1225H160.665Z" fill="white"/>
<path d="M270.21 128.068C270.21 128.068 268.844 124.58 271.945 124.187C271.63 121.407 274.652 117.238 279.909 119.021C280.802 116.006 285.822 110.683 289.291 117.16C295.941 113.462 296.887 118.785 295.993 119.729C301.145 118.497 300.251 123.164 299.358 123.689C306.191 121.748 305.245 128.041 305.245 128.041H270.21V128.068Z" fill="white"/>
<path d="M92.7231 193.909H81.2902V200.464H92.7231V193.909Z" fill="#6B3425"/>
<path d="M103.815 179.12H118.323L114.065 161.001L103.815 157.147H113.145L112.041 152.479L95.5357 151.221L111.016 148.1L108.835 138.818L95.5357 134.649C95.5357 134.649 102.79 134.229 107.678 133.967L101.055 105.779L90.2267 104.835L100.556 103.682L86.9939 45.8643L78.9778 80.0041H83.9451L78.2681 83.0195L75.7187 93.8488H84.9702L75.1931 96.1825L74.2995 99.9583H79.4771L73.8789 101.768L68.5173 124.527L81.3169 127.228L67.2295 130.086L62.9191 148.389H76.2181L61.5787 154.052L57.137 172.984C64.1544 174.007 74.3783 175.449 74.3783 175.449L55.9543 178.018L52.2222 193.908H121.845L119.768 185.072L103.815 179.12Z" fill="#7EA21A"/>
<path d="M155.492 198.68L161.642 198.68L161.642 195.14L155.492 195.14L155.492 198.68Z" fill="#6B3425"/>
<path d="M149.521 187.196H141.716L144.002 177.441L149.521 175.37H144.502L145.08 172.853L153.963 172.171L145.632 170.493L146.814 165.485L153.963 163.23C153.963 163.23 150.047 162.994 147.419 162.862L150.993 147.681L156.828 147.182L151.256 146.553L158.589 115.402L162.926 133.783H160.245L163.294 135.409L164.66 141.23H159.693L164.976 142.489L165.449 144.534H162.663L165.685 145.504L168.576 157.749L161.69 159.192L169.286 160.739L171.599 170.598H164.45L172.335 173.639L174.726 183.839C170.942 184.39 165.449 185.177 165.449 185.177L175.383 186.566L177.407 195.114H139.823L140.953 190.342L149.521 187.196Z" fill="#7EA21A"/>
<path d="M146.525 230.854H126.813V234.813H146.525V230.854Z" fill="white"/>
<path d="M217.225 230.854H197.513V234.813H217.225V230.854Z" fill="white"/>
<path d="M193.57 230.854H173.858V234.813H193.57V230.854Z" fill="white"/>
<path d="M122.872 230.854H103.16V234.813H122.872V230.854Z" fill="white"/>
<path d="M99.2169 230.854H82.1333V234.813H99.2169V230.854Z" fill="white"/>
<path d="M78.1899 230.854H58.478V234.813H78.1899V230.854Z" fill="white"/>
<path d="M54.5367 230.854H34.8248V234.813H54.5367V230.854Z" fill="white"/>
<path d="M169.917 230.854H150.468V234.813H169.917V230.854Z" fill="white"/>
<path d="M354.683 230.854H334.971V234.813H354.683V230.854Z" fill="white"/>
<path d="M30.882 230.854H6.8335V234.813H30.882V230.854Z" fill="white"/>
<path d="M331.028 230.854H311.316V234.813H331.028V230.854Z" fill="white"/>
<path d="M363.197 230.854H358.624V234.813H363.197V230.854Z" fill="white"/>
<path d="M285.56 230.854H265.848V234.813H285.56V230.854Z" fill="white"/>
<path d="M261.905 230.854H242.193V234.813H261.905V230.854Z" fill="white"/>
<path d="M238.25 230.854H221.167V234.813H238.25V230.854Z" fill="white"/>
<path d="M307.374 230.854H289.502V234.813H307.374V230.854Z" fill="white"/>
<path d="M136.537 177.232L65.9687 180.378L52.1967 165.432L62.4205 148.52L136.537 153.633V177.232Z" fill="#6B3425"/>
<path d="M132.594 148.52H128.652V207.124H132.594V148.52Z" fill="#6B3425"/>
<path d="M82.894 158.091C82.4209 159.297 81.8953 161.107 81.2908 163.598C80.7389 165.826 80.476 167.085 80.476 167.373C80.476 167.4 80.476 167.609 80.5023 168.003C80.5286 168.213 80.476 168.396 80.3972 168.553C80.292 168.763 80.1869 168.894 80.0292 168.921C79.7664 168.973 79.2408 168.868 78.426 168.632C77.6375 168.37 77.1644 168.16 77.0593 167.977C77.0067 167.898 76.9805 167.767 76.9542 167.636L76.9016 167.269C76.376 165.617 75.9554 164.07 75.6663 162.601C75.3772 161.133 75.1407 159.769 75.0356 158.458C75.0356 158.432 75.0093 158.327 74.9567 158.17C74.9304 158.065 74.9304 157.96 74.9304 157.881C74.983 157.567 75.1144 157.357 75.3247 157.305C75.4298 157.278 75.7977 157.357 76.4811 157.567C77.1644 157.777 77.5587 157.96 77.6375 158.117C77.6638 158.222 77.6638 158.406 77.6375 158.694C77.6375 158.747 77.585 158.825 77.5324 158.93C77.4798 159.035 77.4535 159.114 77.4535 159.192C77.5324 159.664 77.585 160.11 77.6638 160.53C77.7164 160.949 77.7952 161.343 77.8478 161.71C78.1369 163.44 78.3471 164.463 78.5311 164.804C78.6888 163.965 78.9516 162.89 79.3459 161.579C79.7401 160.241 80.0292 159.14 80.1606 158.275C80.1606 158.091 80.2132 157.881 80.2921 157.593C80.3709 157.383 80.5286 157.252 80.7389 157.173C80.8965 157.121 81.2382 157.2 81.7639 157.409C82.3684 157.619 82.7363 157.855 82.894 158.091Z" fill="white"/>
<path d="M86.3897 168.133C86.4422 168.448 86.3108 168.658 86.048 168.736C86.0217 168.736 85.9692 168.763 85.864 168.763C85.5224 168.763 85.1281 168.684 84.655 168.553C84.1294 168.396 83.8403 168.238 83.7351 168.107C83.6826 168.029 83.7351 167.897 83.8666 167.688C83.9454 167.557 83.998 167.294 83.998 166.927V161.211C83.8928 160.87 83.8403 160.634 83.8403 160.529C83.8403 160.424 83.998 160.346 84.3396 160.346C84.6025 160.346 84.9704 160.424 85.4698 160.608C85.9692 160.792 86.2845 160.923 86.3634 161.054C86.3897 161.106 86.416 161.132 86.416 161.185C86.416 161.263 86.3634 161.395 86.2583 161.604C86.1531 161.814 86.1006 161.971 86.1006 162.05V167.53C86.1006 167.583 86.1269 167.635 86.1531 167.688C86.1794 167.74 86.232 167.819 86.2583 167.871C86.3108 167.924 86.3371 168.002 86.3634 168.055C86.3634 168.055 86.3897 168.107 86.3897 168.133ZM86.416 158.72C86.416 158.72 86.4422 158.772 86.4422 158.825C86.4422 159.035 86.3897 159.297 86.3108 159.612C86.2057 159.952 86.1269 160.136 86.048 160.188C85.9692 160.215 85.5749 160.136 84.8653 159.9C84.1819 159.664 83.814 159.507 83.7614 159.402C83.7351 159.376 83.7089 159.297 83.7089 159.192C83.7089 158.956 83.7614 158.694 83.8928 158.405C84.0505 158.117 84.2082 157.933 84.3922 157.881C84.6025 157.829 84.9704 157.907 85.4698 158.117C86.0217 158.327 86.3371 158.536 86.416 158.72Z" fill="white"/>
<path d="M90.1743 157.829C90.1743 157.882 90.148 157.987 90.1218 158.092C90.0692 158.197 90.0429 158.275 90.0429 158.301C89.9904 158.485 89.9378 158.747 89.8852 159.141V167.479C89.8852 167.584 89.9115 167.689 89.9641 167.767C90.0166 167.846 90.0429 167.925 90.0429 167.977C90.0429 168.554 89.9378 168.869 89.7275 168.895C89.6224 168.921 89.3333 168.842 88.8602 168.711C88.3608 168.58 88.0717 168.475 87.9666 168.397C87.7563 168.239 87.6775 168.082 87.6775 167.925C87.6775 167.898 87.7038 167.846 87.7301 167.794C87.7563 167.741 87.7826 167.662 87.7826 167.558V157.961C87.7826 157.908 87.7563 157.856 87.7301 157.803C87.7038 157.751 87.6775 157.698 87.6775 157.646C87.7038 157.436 87.8615 157.279 88.1769 157.2C88.2557 157.2 88.466 157.2 88.7551 157.2C88.939 157.226 89.0967 157.226 89.2282 157.253C89.3596 157.279 89.491 157.305 89.6224 157.331C89.9903 157.462 90.1743 157.62 90.1743 157.829Z" fill="white"/>
<path d="M93.9584 157.829C93.9584 157.882 93.9321 157.987 93.9058 158.092C93.8533 158.197 93.827 158.275 93.827 158.301C93.7744 158.485 93.7218 158.747 93.6693 159.141V167.479C93.6693 167.584 93.6956 167.689 93.7481 167.767C93.8007 167.846 93.827 167.925 93.827 167.977C93.827 168.554 93.7218 168.869 93.5116 168.895C93.4065 168.921 93.1173 168.842 92.6443 168.711C92.1449 168.58 91.8558 168.475 91.7507 168.397C91.5404 168.239 91.4615 168.082 91.4615 167.925C91.4615 167.898 91.4878 167.846 91.5141 167.794C91.5404 167.741 91.5667 167.662 91.5667 167.558V157.961C91.5667 157.908 91.5404 157.856 91.5141 157.803C91.4878 157.751 91.4615 157.698 91.4615 157.646C91.4878 157.436 91.6455 157.279 91.9609 157.2C92.0398 157.2 92.25 157.2 92.5391 157.2C92.7231 157.226 92.8808 157.226 93.0122 157.253C93.1436 157.279 93.275 157.305 93.4065 157.331C93.7744 157.462 93.9584 157.62 93.9584 157.829Z" fill="white"/>
<path d="M101.292 168.107C101.292 168.238 101.239 168.343 101.134 168.421C101.029 168.5 100.924 168.553 100.793 168.526C99.6624 168.369 99.0316 168.159 98.9002 167.897C98.8739 167.845 98.8739 167.818 98.8739 167.792C98.9002 167.713 98.9265 167.635 98.979 167.556C99.0316 167.477 99.0579 167.425 99.0841 167.373C99.0841 167.346 99.1104 167.268 99.1104 167.215C99.1104 167.137 99.1104 167.032 99.1104 166.901C99.0053 166.979 98.8476 167.189 98.6111 167.556C98.4796 167.766 98.3745 167.923 98.2957 168.054C98.1905 168.185 98.1117 168.29 98.0066 168.369C97.7175 168.631 97.3758 168.789 97.0078 168.789C96.7713 168.789 96.561 168.71 96.377 168.526C96.3245 168.474 96.2719 168.421 96.1668 168.343C96.0879 168.264 95.9565 168.159 95.8514 168.002L95.1418 167.189C94.9578 166.927 94.8527 166.691 94.8527 166.481C94.8527 166.429 94.8527 166.35 94.8789 166.271C95.0629 165.485 95.5886 164.724 96.4822 163.99C97.113 163.492 98.0328 162.941 99.2681 162.338C99.2681 162.05 99.1893 161.866 99.0579 161.788C98.979 161.735 98.6373 161.84 98.1117 162.102C97.586 162.364 97.1918 162.574 96.9553 162.758C96.929 162.784 96.8764 162.836 96.8238 162.889C96.7713 162.941 96.6924 162.994 96.6136 163.046C96.4559 163.151 96.3245 163.177 96.1931 163.125C96.0879 163.099 95.8777 162.941 95.5623 162.627C95.2469 162.338 95.0629 162.128 95.0366 162.023C94.9578 161.761 95.0366 161.578 95.2732 161.447C95.2995 161.42 95.4834 161.368 95.8251 161.289L96.8238 160.739C97.1655 160.555 97.4809 160.424 97.7963 160.345C98.1117 160.267 98.3745 160.214 98.6111 160.188C98.8213 160.162 99.0579 160.267 99.3207 160.503C99.5572 160.712 99.7938 160.922 100.03 161.132C100.267 161.342 100.53 161.525 100.766 161.735C101.055 161.997 101.213 162.233 101.213 162.469V167.609C101.266 167.871 101.318 168.028 101.292 168.107ZM99.1104 164.121C98.8739 164.2 98.6636 164.331 98.4796 164.436C98.2957 164.567 98.1117 164.724 97.954 164.908L97.2444 165.773C97.0604 165.957 96.8764 166.219 96.6924 166.534C96.5347 166.822 96.4559 167.058 96.4559 167.189C96.4559 167.268 96.4822 167.294 96.5347 167.294C96.7187 167.294 97.1392 166.874 97.8226 166.062C98.4796 165.249 98.9265 164.593 99.1104 164.121Z" fill="white"/>
<path d="M108.204 161.211L108.046 161.473C107.993 161.578 107.941 161.683 107.941 161.762V167.714C107.941 169.208 107.389 170.179 106.259 170.598C105.759 170.808 105.286 170.887 104.839 170.887C104.209 170.887 103.683 170.677 103.236 170.257C103.184 170.205 103.078 170.126 103 169.995C102.894 169.864 102.763 169.733 102.579 169.549L102.316 169.287C102.237 169.208 102.185 169.103 102.159 168.972C102.132 168.841 102.264 168.736 102.579 168.658C102.605 168.658 102.658 168.632 102.737 168.632C102.842 168.632 102.947 168.632 103.078 168.658C103.21 168.684 103.341 168.71 103.446 168.736C103.578 168.763 103.683 168.815 103.788 168.868C103.893 168.92 103.972 168.972 104.025 169.025C104.103 169.103 104.182 169.208 104.235 169.313C104.314 169.418 104.393 169.497 104.471 169.575C104.55 169.654 104.629 169.733 104.734 169.785C104.813 169.838 104.918 169.89 105.023 169.89C105.391 169.943 105.628 169.68 105.733 169.13C105.786 168.868 105.812 168.422 105.812 167.74L105.549 168.081C105.444 168.212 105.365 168.317 105.26 168.369C105.181 168.448 105.076 168.5 104.944 168.5C104.445 168.5 104.051 168.369 103.735 168.107C102.763 167.294 102.29 166.088 102.29 164.515C102.29 163.518 102.5 162.627 102.921 161.814C103.368 160.949 103.946 160.424 104.655 160.215C104.734 160.188 104.787 160.188 104.813 160.188C104.971 160.188 105.128 160.267 105.312 160.398L105.786 160.765C105.838 160.608 105.891 160.451 105.943 160.319C105.996 160.162 106.101 160.083 106.232 160.057C106.416 160.031 106.758 160.083 107.231 160.241C107.73 160.398 107.993 160.503 108.072 160.634C108.23 160.896 108.256 161.054 108.204 161.211ZM105.786 164.541C105.812 164.226 105.838 163.938 105.864 163.676C105.891 163.414 105.891 163.204 105.891 162.994C105.891 162.26 105.759 161.866 105.523 161.762C105.339 161.683 105.102 162.024 104.813 162.732C104.55 163.466 104.393 164.121 104.393 164.698C104.393 165.773 104.524 166.612 104.787 167.242C105.365 166.403 105.68 165.511 105.786 164.541Z" fill="white"/>
<path d="M114.723 166.011C114.802 166.142 114.618 166.562 114.197 167.217C113.961 167.584 113.724 167.873 113.488 168.109C113.251 168.345 113.015 168.528 112.804 168.659C112.752 168.685 112.673 168.712 112.568 168.712C112.226 168.712 111.753 168.607 111.175 168.397C110.57 168.187 110.176 167.977 109.966 167.715C109.44 167.033 109.177 166.09 109.177 164.883C109.177 163.73 109.414 162.733 109.861 161.868C110.36 160.898 111.017 160.426 111.779 160.426C112.042 160.426 112.384 160.478 112.804 160.636C113.304 160.819 113.698 161.081 114.013 161.422C114.092 161.501 114.171 161.737 114.25 162.156C114.303 162.366 114.329 162.602 114.355 162.812C114.381 163.022 114.381 163.231 114.381 163.441C114.381 164.071 114.276 164.49 114.092 164.726C113.172 165.014 112.2 165.172 111.228 165.224C111.228 165.67 111.28 166.142 111.385 166.614C111.49 167.086 111.648 167.348 111.779 167.374C111.963 167.401 112.174 167.243 112.437 166.929C112.647 166.693 112.804 166.457 112.857 166.273C112.883 166.142 112.936 166.011 112.962 165.854C113.015 165.722 113.041 165.565 113.094 165.434C113.251 165.408 113.54 165.486 113.961 165.644C114.408 165.749 114.671 165.906 114.723 166.011ZM112.305 161.868C112.147 161.868 111.937 162.104 111.648 162.602C111.359 163.127 111.201 163.599 111.175 164.044C111.569 164.044 111.911 163.939 112.147 163.756C112.305 163.651 112.358 163.205 112.358 162.392C112.384 162.051 112.358 161.868 112.305 161.868Z" fill="white"/>
<path d="M250.893 176.653L321.461 179.799L335.26 164.853L325.009 147.94L250.893 153.054V176.653Z" fill="#6B3425"/>
<path d="M254.826 206.523L258.769 206.523L258.769 147.919L254.826 147.919L254.826 206.523Z" fill="#6B3425"/>
<path d="M268.712 157.618C268.003 158.903 267.372 160.869 266.794 163.465C266.321 165.615 266.084 166.9 266.137 167.346C266.11 167.424 266.11 167.503 266.163 167.608C266.189 167.713 266.189 167.792 266.189 167.844C266.11 168.264 266.005 168.5 265.821 168.526C265.69 168.552 265.243 168.395 264.455 168.054C263.666 167.739 263.246 167.477 263.193 167.32C263.193 167.32 263.167 167.031 263.141 166.481C262.746 165.274 262.483 164.068 262.352 162.836C262.221 163.15 262.089 163.491 261.958 163.806C261.826 164.121 261.695 164.461 261.59 164.776C261.458 165.117 261.38 165.484 261.327 165.825C261.274 166.166 261.248 166.533 261.248 166.874C261.222 166.952 261.222 167.057 261.248 167.188C261.274 167.32 261.274 167.451 261.274 167.529C261.196 167.923 261.064 168.132 260.88 168.185C260.801 168.211 260.723 168.211 260.67 168.211C260.249 168.211 259.776 168.106 259.251 167.923C258.594 167.687 258.226 167.424 258.147 167.11C258.147 167.057 258.147 166.821 258.121 166.402C257.7 164.855 257.411 163.439 257.253 162.18C257.174 161.577 257.122 160.895 257.096 160.187C257.069 159.453 257.069 158.667 257.069 157.801C256.99 157.356 256.964 157.093 256.99 156.988C257.096 156.595 257.28 156.412 257.49 156.412C257.726 156.438 258.121 156.569 258.62 156.831C259.119 157.093 259.408 157.329 259.461 157.487C259.461 157.539 259.461 157.801 259.408 158.273C259.382 158.483 259.382 158.693 259.356 158.876C259.356 159.06 259.33 159.243 259.33 159.427C259.33 159.82 259.356 160.319 259.435 160.948C259.514 161.577 259.592 162.338 259.724 163.203L261.642 157.224C261.642 157.12 261.695 156.936 261.8 156.726C261.905 156.595 262.037 156.517 262.221 156.49C262.326 156.464 262.694 156.621 263.298 156.936C263.929 157.224 264.244 157.434 264.244 157.565C264.244 157.592 264.244 157.696 264.244 157.854C264.244 158.011 264.244 158.221 264.218 158.483C264.192 159.139 264.166 159.689 264.166 160.161C264.166 160.764 264.192 161.315 264.218 161.813C264.244 162.311 264.297 162.783 264.376 163.203C264.507 162.574 264.639 161.944 264.796 161.289C264.954 160.633 265.138 159.978 265.322 159.322C265.48 158.798 265.611 158.352 265.716 157.985C265.821 157.618 265.926 157.356 266.005 157.172C266.11 156.726 266.347 156.516 266.715 156.569C266.873 156.595 267.03 156.621 267.188 156.674C267.346 156.726 267.53 156.805 267.714 156.884C268.344 157.146 268.634 157.382 268.712 157.618Z" fill="white"/>
<path d="M274.836 167.53C274.836 167.661 274.783 167.766 274.678 167.845C274.573 167.923 274.468 167.976 274.336 167.95C273.206 167.792 272.575 167.583 272.444 167.32C272.418 167.268 272.418 167.242 272.418 167.215C272.444 167.137 272.47 167.058 272.523 166.979C272.575 166.901 272.602 166.848 272.628 166.796C272.628 166.77 272.654 166.691 272.654 166.639C272.654 166.56 272.654 166.455 272.654 166.324C272.549 166.403 272.391 166.612 272.155 166.979C272.05 167.189 271.918 167.347 271.839 167.478C271.734 167.609 271.655 167.714 271.55 167.792C271.261 168.055 270.919 168.212 270.552 168.212C270.315 168.212 270.105 168.133 269.921 167.95C269.868 167.897 269.816 167.845 269.71 167.766C269.632 167.687 269.5 167.583 269.395 167.425L268.685 166.612C268.501 166.35 268.396 166.114 268.396 165.904C268.396 165.852 268.396 165.773 268.423 165.695C268.607 164.908 269.132 164.148 270.026 163.413C270.657 162.915 271.577 162.365 272.812 161.761C272.812 161.473 272.733 161.289 272.602 161.211C272.523 161.158 272.181 161.263 271.655 161.525C271.13 161.788 270.736 161.997 270.499 162.181C270.473 162.207 270.42 162.26 270.368 162.312C270.315 162.365 270.236 162.417 270.157 162.469C270 162.574 269.868 162.601 269.737 162.548C269.632 162.522 269.421 162.365 269.106 162.05C268.791 161.761 268.607 161.552 268.58 161.447C268.501 161.185 268.58 161.001 268.817 160.87C268.843 160.844 269.027 160.791 269.369 160.713L270.368 160.162C270.709 159.978 271.025 159.847 271.34 159.769C271.655 159.69 271.918 159.638 272.155 159.611C272.365 159.585 272.602 159.69 272.864 159.926C273.101 160.136 273.337 160.346 273.574 160.555C273.811 160.765 274.073 160.949 274.31 161.158C274.599 161.421 274.757 161.657 274.757 161.893V167.032C274.809 167.294 274.836 167.451 274.836 167.53ZM272.654 163.545C272.418 163.623 272.207 163.754 272.023 163.859C271.839 163.99 271.655 164.148 271.498 164.331L270.788 165.196C270.604 165.38 270.42 165.642 270.236 165.957C270.078 166.245 270 166.481 270 166.612C270 166.691 270.026 166.717 270.078 166.717C270.262 166.717 270.683 166.298 271.366 165.485C272.023 164.672 272.444 164.016 272.654 163.545Z" fill="white"/>
<path d="M281.223 160.607C281.249 160.739 281.196 160.87 281.065 160.948C281.012 160.975 280.96 161.001 280.907 161.027C280.855 161.053 280.802 161.079 280.75 161.132L278.41 164.645C278.41 166.114 278.41 166.848 278.437 166.874L278.542 167.215C278.594 167.372 278.647 167.53 278.647 167.661C278.647 167.818 278.568 167.923 278.41 168.002C278.305 168.054 278.174 168.08 277.99 168.08C277.675 168.08 277.28 168.002 276.834 167.844C276.308 167.687 276.045 167.451 276.045 167.163C276.045 167.136 276.045 167.084 276.071 167.005C276.098 166.927 276.124 166.848 276.15 166.769C276.176 166.691 276.203 166.612 276.229 166.533C276.255 166.455 276.255 166.376 276.255 166.324V160.948L276.098 160.162C276.098 159.873 276.229 159.69 276.492 159.637C276.597 159.611 276.728 159.585 276.886 159.585C277.044 159.585 277.201 159.611 277.359 159.637C277.517 159.663 277.701 159.716 277.859 159.742C278.2 159.847 278.41 159.952 278.489 160.057C278.516 160.109 278.516 160.162 278.516 160.188C278.516 160.214 278.463 160.424 278.332 160.843V161.499C278.437 161.289 278.542 161.106 278.647 160.922C278.752 160.739 278.857 160.529 278.962 160.345C279.225 159.847 279.435 159.585 279.593 159.559C279.803 159.532 280.093 159.637 280.513 159.899C280.934 160.214 281.17 160.424 281.223 160.607Z" fill="white"/>
<path d="M286.585 166.479C286.585 166.977 286.427 167.371 286.085 167.659C285.744 167.948 285.297 168.105 284.692 168.105C284.613 168.105 284.535 168.105 284.456 168.079C284.377 168.053 284.298 168.053 284.193 168.026C283.877 167.948 283.72 167.895 283.693 167.895C283.536 167.869 283.352 167.817 283.194 167.79C283.036 167.764 282.879 167.685 282.774 167.581C282.563 167.397 282.379 167.161 282.195 166.82L281.749 166.034C281.591 165.771 281.538 165.614 281.538 165.562C281.538 165.457 281.617 165.352 281.801 165.273C281.854 165.247 281.933 165.247 282.038 165.247C282.169 165.247 282.327 165.247 282.484 165.273C282.642 165.299 282.852 165.326 283.063 165.352C283.483 165.43 283.72 165.483 283.746 165.509C283.772 165.535 283.825 165.798 283.904 166.296C283.956 166.715 284.061 166.925 284.193 166.925C284.403 166.925 284.508 166.637 284.508 166.086C284.508 165.378 284.324 164.932 283.93 164.749C283.063 164.329 282.484 163.988 282.222 163.674C281.88 163.28 281.722 162.703 281.722 161.917C281.722 161.392 281.854 160.92 282.143 160.475C282.406 160.029 282.747 159.74 283.115 159.636C283.273 159.609 283.799 159.767 284.692 160.16C284.745 160.186 284.824 160.186 284.929 160.212C285.034 160.239 285.218 160.265 285.402 160.291C285.665 160.344 285.875 160.448 286.006 160.58C286.19 160.789 286.269 161.104 286.295 161.576C286.295 161.76 286.322 161.917 286.322 162.074C286.322 162.231 286.322 162.415 286.322 162.572C286.374 162.861 286.427 163.044 286.427 163.123C286.427 163.385 286.295 163.516 286.059 163.569C286.006 163.569 285.901 163.569 285.77 163.543C285.638 163.516 285.481 163.464 285.297 163.411C284.876 163.28 284.64 163.123 284.508 162.992C284.482 162.966 284.456 162.625 284.429 161.969C284.403 161.366 284.351 161.052 284.245 161.052C284.114 161.052 283.983 161.235 283.851 161.576C283.746 161.917 283.667 162.284 283.667 162.677C283.667 163.149 283.772 163.464 283.983 163.595C284.219 163.726 284.429 163.857 284.64 163.962C284.85 164.067 285.086 164.198 285.297 164.329C285.744 164.591 286.059 164.827 286.217 165.09C286.453 165.43 286.585 165.876 286.585 166.479Z" fill="white"/>
<path d="M294.232 161.183C294.179 161.235 294.127 161.288 294.048 161.34C293.969 161.393 293.864 161.445 293.759 161.524L290.421 166.165L292.208 166.008C292.497 165.877 292.655 165.798 292.681 165.798C292.734 165.798 292.813 165.824 292.892 165.877C293.102 166.034 293.286 166.296 293.417 166.663C293.47 166.847 293.522 166.978 293.549 167.109C293.575 167.24 293.575 167.345 293.575 167.424C293.522 167.686 293.286 167.817 292.892 167.817C292.813 167.817 292.734 167.817 292.629 167.791C292.524 167.764 292.419 167.764 292.287 167.738L289.58 168.027C289.527 168.027 289.449 168.053 289.396 168.079C289.317 168.105 289.238 168.132 289.16 168.184C288.976 168.263 288.87 168.315 288.818 168.315C288.792 168.315 288.765 168.315 288.739 168.289C288.66 168.263 288.581 168.184 288.476 168.079C288.371 167.974 288.24 167.843 288.082 167.686C287.74 167.266 287.556 166.952 287.556 166.716C287.556 166.689 287.556 166.637 287.583 166.611C287.609 166.584 287.661 166.506 287.74 166.427C287.819 166.375 287.872 166.322 287.924 166.27C287.977 166.217 288.029 166.191 288.056 166.165L291.394 161.393L289.895 161.707C289.843 161.734 289.738 161.76 289.58 161.838C289.449 161.891 289.343 161.917 289.265 161.917C289.133 161.917 288.949 161.707 288.686 161.288C288.424 160.868 288.292 160.58 288.318 160.396C288.318 160.213 288.476 160.082 288.739 160.055C288.765 160.055 288.949 160.029 289.317 160.029L292.681 159.531C293.023 159.452 293.233 159.4 293.26 159.4C293.312 159.4 293.391 159.4 293.444 159.426C293.496 159.452 293.549 159.479 293.601 159.531C293.654 159.583 293.706 159.662 293.759 159.767C293.812 159.872 293.89 160.003 293.969 160.16C294.179 160.554 294.285 160.842 294.285 160.999C294.285 161.104 294.258 161.157 294.232 161.183Z" fill="white"/>
<path d="M301.512 167.53C301.512 167.661 301.46 167.766 301.355 167.845C301.25 167.923 301.144 167.976 301.013 167.95C299.883 167.792 299.252 167.583 299.121 167.32C299.094 167.268 299.094 167.242 299.094 167.215C299.121 167.137 299.147 167.058 299.2 166.979C299.252 166.901 299.278 166.848 299.305 166.796C299.305 166.77 299.331 166.691 299.331 166.639C299.331 166.56 299.331 166.455 299.331 166.324C299.226 166.403 299.068 166.612 298.832 166.979C298.727 167.189 298.595 167.347 298.516 167.478C298.411 167.609 298.332 167.714 298.227 167.792C297.938 168.055 297.596 168.212 297.228 168.212C296.992 168.212 296.782 168.133 296.598 167.95C296.545 167.897 296.492 167.845 296.387 167.766C296.309 167.687 296.177 167.583 296.072 167.425L295.362 166.612C295.178 166.35 295.073 166.114 295.073 165.904C295.073 165.852 295.073 165.773 295.1 165.695C295.283 164.908 295.809 164.148 296.703 163.413C297.334 162.915 298.253 162.365 299.489 161.761C299.489 161.473 299.41 161.289 299.278 161.211C299.2 161.158 298.858 161.263 298.332 161.525C297.807 161.788 297.412 161.997 297.176 162.181C297.15 162.207 297.097 162.26 297.044 162.312C296.992 162.365 296.913 162.417 296.834 162.469C296.676 162.574 296.545 162.601 296.414 162.548C296.309 162.522 296.098 162.365 295.783 162.05C295.467 161.761 295.284 161.552 295.257 161.447C295.178 161.185 295.257 161.001 295.494 160.87C295.52 160.844 295.704 160.791 296.046 160.713L297.044 160.162C297.386 159.978 297.701 159.847 298.017 159.769C298.332 159.69 298.595 159.638 298.832 159.611C299.042 159.585 299.278 159.69 299.541 159.926C299.778 160.136 300.014 160.346 300.251 160.555C300.487 160.765 300.75 160.949 300.987 161.158C301.276 161.421 301.434 161.657 301.434 161.893V167.032C301.486 167.294 301.539 167.451 301.512 167.53ZM299.331 163.545C299.094 163.623 298.884 163.754 298.7 163.859C298.516 163.99 298.332 164.148 298.175 164.331L297.465 165.196C297.281 165.38 297.097 165.642 296.913 165.957C296.755 166.245 296.676 166.481 296.676 166.612C296.676 166.691 296.703 166.717 296.755 166.717C296.939 166.717 297.36 166.298 298.043 165.485C298.727 164.672 299.147 164.016 299.331 163.545Z" fill="white"/>
<path d="M311.658 160.634C311.448 161.211 311.238 161.841 311.028 162.549C310.817 163.256 310.607 164.017 310.371 164.856C310.187 165.59 310.029 166.193 309.95 166.613C309.871 167.032 309.819 167.295 309.819 167.399V167.898C309.819 168.134 309.74 168.265 309.582 168.291C309.451 168.317 309.056 168.239 308.399 168.081C307.716 167.898 307.348 167.767 307.322 167.662C307.295 167.609 307.295 167.399 307.295 167.032C307.059 166.298 306.875 165.171 306.717 163.65C306.691 163.781 306.638 163.991 306.56 164.332C306.481 164.646 306.376 165.092 306.244 165.643C306.139 166.062 306.06 166.377 306.034 166.639C305.981 166.901 305.955 167.085 305.955 167.19L305.929 167.74C305.929 168.003 305.824 168.134 305.666 168.186C305.64 168.186 305.587 168.212 305.482 168.212C305.167 168.212 304.799 168.16 304.404 168.029C303.931 167.871 303.642 167.714 303.563 167.504C303.537 167.452 303.537 167.373 303.537 167.268C303.563 167.163 303.537 167.059 303.511 166.901L302.933 163.886C302.827 163.361 302.749 162.837 302.67 162.313C302.591 161.788 302.538 161.264 302.486 160.739C302.46 160.451 302.433 160.294 302.433 160.241C302.433 159.848 302.538 159.69 302.775 159.69C302.985 159.717 303.301 159.795 303.747 159.979C304.247 160.189 304.51 160.346 304.536 160.451C304.536 160.477 304.536 160.556 304.536 160.661C304.536 160.765 304.51 160.897 304.51 161.054C304.536 161.395 304.588 161.867 304.641 162.496C304.72 163.125 304.799 163.86 304.93 164.751L305.876 160.267C305.955 159.953 306.086 159.743 306.297 159.717C306.349 159.717 306.612 159.822 307.112 160.058C307.585 160.294 307.821 160.451 307.821 160.53C307.847 160.975 307.9 161.526 308.005 162.234C308.11 162.942 308.242 163.781 308.426 164.751C308.688 163.44 308.899 162.391 309.083 161.657C309.267 160.923 309.398 160.425 309.503 160.215C309.582 159.874 309.766 159.717 310.055 159.769C310.292 159.795 310.581 159.9 310.922 160.058C311.369 160.241 311.606 160.451 311.658 160.634Z" fill="white"/>
<path d="M318.887 167.53C318.887 167.661 318.834 167.766 318.729 167.845C318.624 167.923 318.519 167.976 318.387 167.95C317.257 167.792 316.626 167.583 316.495 167.32C316.469 167.268 316.469 167.242 316.469 167.215C316.495 167.137 316.521 167.058 316.574 166.979C316.626 166.901 316.653 166.848 316.679 166.796C316.679 166.77 316.705 166.691 316.705 166.639C316.705 166.56 316.705 166.455 316.705 166.324C316.6 166.403 316.442 166.612 316.206 166.979C316.101 167.189 315.969 167.347 315.89 167.478C315.785 167.609 315.706 167.714 315.601 167.792C315.312 168.055 314.971 168.212 314.603 168.212C314.366 168.212 314.156 168.133 313.972 167.95C313.919 167.897 313.867 167.845 313.762 167.766C313.683 167.687 313.551 167.583 313.446 167.425L312.737 166.612C312.553 166.35 312.447 166.114 312.447 165.904C312.447 165.852 312.447 165.773 312.474 165.695C312.658 164.908 313.183 164.148 314.077 163.413C314.708 162.915 315.628 162.365 316.863 161.761C316.863 161.473 316.784 161.289 316.653 161.211C316.574 161.158 316.232 161.263 315.706 161.525C315.181 161.788 314.787 161.997 314.55 162.181C314.524 162.207 314.471 162.26 314.419 162.312C314.366 162.365 314.287 162.417 314.208 162.469C314.051 162.574 313.919 162.601 313.788 162.548C313.683 162.522 313.472 162.365 313.157 162.05C312.842 161.761 312.658 161.552 312.631 161.447C312.553 161.185 312.631 161.001 312.868 160.87C312.894 160.844 313.078 160.791 313.42 160.713L314.419 160.162C314.76 159.978 315.076 159.847 315.391 159.769C315.706 159.69 315.969 159.638 316.206 159.611C316.416 159.585 316.653 159.69 316.915 159.926C317.152 160.136 317.389 160.346 317.625 160.555C317.862 160.765 318.124 160.949 318.361 161.158C318.65 161.421 318.808 161.657 318.808 161.893V167.032C318.86 167.294 318.913 167.451 318.887 167.53ZM316.705 163.545C316.469 163.623 316.258 163.754 316.074 163.859C315.89 163.99 315.706 164.148 315.549 164.331L314.839 165.196C314.655 165.38 314.471 165.642 314.287 165.957C314.129 166.245 314.051 166.481 314.051 166.612C314.051 166.691 314.077 166.717 314.129 166.717C314.313 166.717 314.734 166.298 315.417 165.485C316.101 164.672 316.521 164.016 316.705 163.545Z" fill="white"/>
<path d="M198.617 162.18C198.617 162.18 194.306 160.292 190.285 163.78C187.604 166.113 188.235 172.878 189.681 175.002C191.126 177.126 196.829 180.509 196.829 180.509C196.829 180.509 213.755 163.832 198.617 162.18Z" fill="#A5713D"/>
<path d="M229.84 209.536C229.63 209.011 229.394 208.487 229.183 207.988C229.183 207.988 229.183 207.988 229.157 207.988C229.394 208.513 229.63 209.038 229.84 209.536Z" fill="#DD866F"/>
<path d="M229.13 207.99C225.529 208.567 218.801 209.511 218.801 209.511L217.277 199.704L209.602 201.382C209.602 201.382 211.337 211.425 212.362 213.942C213.387 216.486 215.226 216.59 216.462 216.459C217.408 216.354 226.239 213.916 231.075 212.605C230.365 211.11 229.708 209.563 229.13 207.99Z" fill="#DD866F"/>
<path d="M211.023 254.007C209.892 243.991 205.451 225.61 205.451 225.61L218.382 222.752C218.382 222.752 220.248 230.251 221.43 243.021" fill="#254B6B"/>
<path d="M192.547 227.55L207.606 225.295C207.606 225.295 213.31 255.187 212.364 256.786" fill="#254B6B"/>
<path d="M197.644 185.387C205.108 184.102 207.71 184.862 209.813 188.114C211.915 191.365 220.536 221.546 221.85 227.76C223.164 233.974 222.507 237.907 213.939 239.192C205.345 240.477 192.571 235.259 192.571 235.259C192.571 235.259 192.414 237.514 192.256 238.878C192.098 240.267 188.682 242.26 188.34 239.953C187.998 237.671 184.135 201.486 183.478 195.403C182.768 189.346 191.967 186.357 197.644 185.387Z" fill="black"/>
<path d="M205.923 186.253C208.762 185.047 211.495 184.68 214.334 188.692C217.172 192.703 220.904 205.971 220.904 205.971L211.469 211.451C211.442 211.425 198.38 189.478 205.923 186.253Z" fill="black"/>
<path d="M200.116 184.388C197.462 184.782 194.387 185.516 192.915 186.801C191.128 188.374 191.864 193.12 200.668 192.202C209.447 191.285 208.553 187.273 207.502 186.198C205.951 184.624 202.14 184.1 200.116 184.388Z" fill="#F69576"/>
<path d="M202.69 178.438L206.028 189.084L195.725 190.631C195.725 190.631 195.568 186.226 195.725 183.316C195.883 180.405 196.225 179.382 196.225 179.382L202.69 178.438Z" fill="#F69576"/>
<path d="M198.644 182.083C198.644 182.083 198.854 184.102 200.326 184.784C201.798 185.466 204.742 185.02 204.742 185.02L202.665 178.438L198.329 179.094C198.355 179.094 198.302 180.825 198.644 182.083Z" fill="#DD866F"/>
<path d="M202.166 164.986C202.166 164.986 203.638 165.877 204.558 168.159C205.268 169.915 205.478 171.908 205.872 172.957C206.267 174.032 206.897 175.736 206.818 177.31C206.74 178.883 205.688 181.19 203.27 182.265C200.852 183.341 198.697 183.157 197.041 181.61C195.386 180.063 193.178 177.179 192.337 175.081C191.496 172.983 190.576 168.893 192.652 166.716C195.28 163.963 198.829 163.413 202.166 164.986Z" fill="#F69576"/>
<path d="M199.615 178.41C199.615 178.41 199.589 178.987 200.378 179.04C201.166 179.092 202.112 178.987 202.585 178.751C203.058 178.515 203.453 178.148 203.453 178.148L199.615 178.41Z" fill="#BF644B"/>
<path d="M201.35 176.025C201.271 176.025 201.219 176.025 201.166 175.999C201.035 175.921 201.008 175.763 200.982 175.658C200.982 175.632 200.982 175.632 200.982 175.606C200.956 175.632 200.929 175.658 200.877 175.737C200.824 175.816 200.719 175.868 200.614 175.868C200.483 175.842 200.351 175.737 200.299 175.553C200.194 175.265 200.404 174.714 200.43 174.661C200.456 174.609 200.509 174.583 200.535 174.609C200.588 174.635 200.614 174.688 200.588 174.714C200.535 174.871 200.404 175.291 200.456 175.501C200.509 175.632 200.588 175.684 200.64 175.711C200.693 175.711 200.719 175.684 200.745 175.658C200.851 175.501 200.929 175.422 201.008 175.422C201.061 175.422 201.087 175.448 201.14 175.475C201.166 175.501 201.166 175.553 201.192 175.632C201.219 175.711 201.219 175.816 201.297 175.868C201.324 175.894 201.35 175.894 201.403 175.868C201.508 175.842 201.534 175.737 201.481 175.553C201.455 175.475 201.455 175.396 201.481 175.343C201.508 175.317 201.534 175.291 201.56 175.291C201.639 175.291 201.692 175.317 201.744 175.343C201.876 175.396 201.902 175.422 201.981 175.343C202.007 175.317 202.007 175.238 202.007 175.16C201.954 174.897 201.744 174.583 201.586 174.53C201.534 174.504 201.534 174.452 201.56 174.425C201.586 174.373 201.639 174.373 201.665 174.399C201.849 174.504 202.112 174.871 202.165 175.16C202.191 175.317 202.191 175.422 202.112 175.501C201.954 175.711 201.77 175.606 201.665 175.553C201.639 175.553 201.639 175.527 201.613 175.527V175.553C201.639 175.711 201.692 175.973 201.403 176.078C201.403 175.999 201.376 175.999 201.35 176.025Z" fill="#6B3425"/>
<path d="M188.236 174.058C188.735 172.013 194.675 172.904 194.176 176.628C193.624 180.456 187.526 177.1 188.236 174.058Z" fill="#F69576"/>
<path d="M193.177 177.231C193.15 177.231 193.124 177.231 193.124 177.204C193.072 177.178 193.072 177.126 193.098 177.073C193.282 176.785 193.229 175.972 192.809 175.212C192.52 174.687 191.836 173.796 190.601 173.848C189.944 173.874 189.497 174.058 189.261 174.372C188.945 174.871 189.234 175.552 189.234 175.579C189.261 175.631 189.234 175.684 189.182 175.684C189.129 175.71 189.077 175.684 189.077 175.631C189.05 175.605 188.735 174.844 189.103 174.268C189.34 173.874 189.839 173.665 190.575 173.665C191.547 173.638 192.415 174.163 192.94 175.133C193.361 175.893 193.492 176.785 193.229 177.178C193.203 177.231 193.177 177.231 193.177 177.231Z" fill="#6B3425"/>
<path d="M191.074 177.232C191.048 177.232 190.995 177.232 190.995 177.179C190.969 177.127 190.075 175.659 190.758 173.771C190.785 173.718 190.811 173.692 190.864 173.718C190.916 173.745 190.942 173.771 190.916 173.823C190.259 175.632 191.126 177.075 191.126 177.101C191.153 177.153 191.126 177.206 191.1 177.206C191.1 177.232 191.1 177.232 191.074 177.232Z" fill="#6B3425"/>
<path d="M198.353 174.764C198.525 174.738 198.623 174.439 198.571 174.095C198.519 173.751 198.337 173.493 198.165 173.519C197.993 173.545 197.895 173.845 197.947 174.188C197.999 174.532 198.18 174.79 198.353 174.764Z" fill="#6B3425"/>
<path d="M196.566 172.695C196.777 172.459 197.25 172.118 197.749 171.986C198.301 171.829 198.669 172.039 198.905 172.065C199.142 172.091 199.116 171.777 198.958 171.514C198.8 171.252 198.275 171.147 197.512 171.278C196.724 171.436 196.356 171.829 196.198 172.118C196.014 172.406 196.277 173.036 196.566 172.695Z" fill="#6B3425"/>
<path d="M203.139 173.898C203.311 173.872 203.409 173.572 203.357 173.228C203.305 172.884 203.123 172.626 202.951 172.652C202.779 172.678 202.681 172.978 202.733 173.322C202.785 173.666 202.967 173.923 203.139 173.898Z" fill="#6B3425"/>
<path d="M201.614 171.699C201.824 171.463 202.297 171.122 202.797 170.991C203.348 170.833 203.716 171.043 203.953 171.069C204.189 171.096 204.163 170.781 204.006 170.519C203.848 170.256 203.322 170.151 202.56 170.283C201.798 170.414 201.404 170.833 201.246 171.122C201.062 171.384 201.325 172.04 201.614 171.699Z" fill="#6B3425"/>
<path d="M204.583 179.065L204.215 179.223C204.215 179.223 203.742 180.848 203.164 181.268C202.586 181.661 200.509 181.976 200.247 181.819C199.984 181.688 198.959 180.167 198.959 180.167L198.486 180.376C198.486 180.376 199.668 182.605 199.826 182.789C199.931 182.894 201.482 183.575 202.008 183.523C202.533 183.471 204.189 182.107 204.242 181.871C204.399 181.137 204.583 179.065 204.583 179.065Z" fill="#6B3425"/>
<path d="M202.402 180.431L201.482 180.588L201.771 182.188H202.481L202.402 180.431Z" fill="#6B3425"/>
<path d="M197.906 207.465L199.457 217.272C199.457 217.272 211.232 215.646 211.941 215.331C212.677 215.043 216.015 211.45 216.383 211.241C216.751 211.031 217.145 211.11 217.066 211.608C216.988 212.106 216.62 213.627 216.62 213.627C216.62 213.627 219.458 212.866 219.695 212.683C219.931 212.499 221.456 210.9 221.797 210.742C222.139 210.585 222.77 210.716 222.665 211.11C222.559 211.503 221.245 213.837 221.245 213.837C221.245 213.837 221.902 216.013 221.193 216.983C220.457 217.927 216.567 219.212 214.648 219.631C212.73 220.051 198.327 224.115 197.092 224.246C195.856 224.377 194.017 224.273 192.992 221.729C191.967 219.186 190.232 209.169 190.232 209.169L197.906 207.465Z" fill="#F69576"/>
<path opacity="0.4" d="M186.185 195.927L190.495 208.671L186.526 210.559L186.185 195.927Z" fill="#254B6B"/>
<path d="M191.757 164.253C191.757 164.253 194.516 167.819 200.561 167.268C213.177 166.114 206.396 159.979 206.396 159.979C206.396 159.979 207.106 161.762 204.977 162.181C202.059 162.758 196.461 154.472 191.757 164.253Z" fill="#A5713D"/>
<path d="M254.597 223.643L218.459 193.462L244.663 223.092L254.597 223.643Z" fill="#424B6A"/>
<path d="M191.861 219.787C191.861 219.787 188.47 209.378 186.946 205.392C185.422 201.407 181.348 202.35 182.031 205.392C182.715 208.434 185.08 219.211 185.08 219.211L191.861 219.787Z" fill="#424B6A"/>
<path d="M218.459 193.462V220.916L239.038 222.07L218.459 193.462Z" fill="#424B6A"/>
<path d="M249.131 219.999C247.581 219.92 192.203 217.927 178.326 218.478C164.423 219.055 105.471 221.31 104.63 221.31C103.789 221.31 90.0695 232.663 90.0695 232.663V237.016C90.0695 237.016 81.9482 242.129 81.6066 243.257C81.2649 244.384 81.7643 256.525 83.972 261.244C86.1797 265.964 90.4112 272.598 90.4112 272.598L310.974 271.654C310.974 271.654 318.938 258.203 319.279 256.682C319.621 255.161 319.279 244.568 319.279 244.568L315.731 243.991C315.731 243.991 306.085 233.948 305.06 233.371C304.009 232.873 254.519 220.287 249.131 219.999Z" fill="#1D7DCC"/>
<path d="M315.705 244.042C315.705 244.042 306.059 233.999 305.034 233.422C304.009 232.845 254.545 220.286 249.131 219.971C247.581 219.892 192.203 217.899 178.326 218.45C164.423 219.027 105.471 221.282 104.63 221.282C103.789 221.282 90.0695 232.636 90.0695 232.636V236.988C90.0695 236.988 81.9482 242.101 81.6066 243.229C81.2912 244.278 81.7117 254.74 83.5252 260.037C83.5252 260.037 101.897 239.427 136.248 238.509C170.599 237.591 187.288 260.037 208.866 260.037C230.444 260.037 255.018 237.775 276.412 240.082C297.806 242.39 317.623 260.037 317.623 260.037C318.517 258.385 319.174 257.074 319.279 256.68C319.621 255.16 319.279 244.566 319.279 244.566L315.705 244.042Z" fill="#0C96FD"/>
<path d="M309.082 251.253V256.55L319.253 256.733V251.253H309.082Z" fill="#F1F3F2"/>
<path d="M103.946 237.041L99.531 231.168H91.8827L90.043 232.689V237.041H103.946Z" fill="#7D009B"/>
<path d="M177.116 218.53L158.824 206.914C158.824 206.914 133.408 210.742 126.627 212.709C119.847 214.676 115.773 217.507 115.773 218.373C115.773 219.238 115.773 220.916 115.773 220.916L177.116 218.53Z" fill="black"/>
<path d="M110.385 222.647C110.385 222.647 108.861 216.013 110.043 215.83C111.226 215.646 115.116 221.887 115.116 221.887L110.385 222.647Z" fill="#0C96FD"/>
<path d="M243.875 262.712C243.35 262.712 189.339 262.712 185.66 262.712C179.536 262.712 177.17 258.622 177.039 252.381C176.881 244.331 178.222 218.713 178.222 218.477C178.222 218.425 178.274 218.398 178.327 218.398C178.379 218.398 178.406 218.451 178.406 218.503C178.379 218.766 177.775 244.515 177.959 252.565C178.09 258.674 180.456 261.611 186.448 261.611C190.049 261.611 240.17 261.794 242.798 261.847C242.745 260.85 242.614 253.771 241.668 243.492C240.669 232.61 233.862 219.657 233.809 219.552C233.783 219.5 233.809 219.447 233.836 219.421C233.888 219.395 233.941 219.421 233.967 219.447C234.046 219.578 241.431 232.348 242.456 243.282C243.455 254.19 243.981 262.581 243.981 262.66C243.981 262.686 243.981 262.712 243.954 262.738C243.928 262.686 243.902 262.712 243.875 262.712Z" fill="#024168"/>
<path d="M182.375 227.183H191.495C191.679 227.183 191.837 227.026 191.837 226.842V224.508C191.837 224.325 191.679 224.167 191.495 224.167H182.375C182.191 224.167 182.033 224.325 182.033 224.508V226.842C182.033 227.026 182.191 227.183 182.375 227.183Z" fill="#878FB3"/>
<path d="M306.926 235.129C306.926 235.129 310.632 233.608 313.155 236.073C315.705 238.537 314.18 242.444 314.18 242.444L306.926 235.129Z" fill="#FFE051"/>
<path d="M218.459 193.462L238.145 223.092H244.663L222.48 193.462H218.459Z" fill="#0C96FD"/>
<path d="M228.658 208.696C228.658 208.696 227.107 211.45 226.082 213.914C225.057 216.405 224.899 219.237 224.899 219.237L235.912 219.526L228.658 208.696Z" fill="#0C96FD"/>
<path d="M251.313 272.623C251.05 271.181 250.893 269.713 250.893 268.192C250.893 254.898 261.695 244.121 275.02 244.121C288.345 244.121 299.147 254.898 299.147 268.192C299.147 269.713 298.99 271.181 298.727 272.623H251.313Z" fill="#024168"/>
<path d="M274.941 286.913C286.176 286.913 295.283 277.827 295.283 266.618C295.283 255.41 286.176 246.323 274.941 246.323C263.706 246.323 254.598 255.41 254.598 266.618C254.598 277.827 263.706 286.913 274.941 286.913Z" fill="black"/>
<path d="M274.942 280.279C282.504 280.279 288.635 274.163 288.635 266.618C288.635 259.073 282.504 252.957 274.942 252.957C267.379 252.957 261.249 259.073 261.249 266.618C261.249 274.163 267.379 280.279 274.942 280.279Z" fill="#606060"/>
<path d="M274.941 276.164C280.225 276.164 284.508 271.89 284.508 266.619C284.508 261.348 280.225 257.075 274.941 257.075C269.658 257.075 265.375 261.348 265.375 266.619C265.375 271.89 269.658 276.164 274.941 276.164Z" fill="black"/>
<path d="M286.531 273.986C286.005 274.825 285.374 275.638 284.638 276.372C283.955 277.054 283.219 277.631 282.457 278.155L263.534 259.198C264.033 258.437 264.637 257.703 265.321 257.021C266.057 256.287 266.871 255.658 267.712 255.133L286.531 273.986Z" fill="#A8A9AD"/>
<path d="M282.616 255.265C283.457 255.815 284.245 256.445 284.981 257.205C285.638 257.887 286.216 258.647 286.716 259.408L267.451 277.998C266.688 277.474 265.953 276.871 265.296 276.189C264.56 275.429 263.955 274.616 263.429 273.777L282.616 255.265Z" fill="#A8A9AD"/>
<path d="M115.537 272.466C115.274 271.024 115.116 269.556 115.116 268.035C115.116 254.741 125.919 243.964 139.244 243.964C152.569 243.964 163.371 254.741 163.371 268.035C163.371 269.556 163.213 271.024 162.951 272.466H115.537Z" fill="#024168"/>
<path d="M139.243 285.813C150.478 285.813 159.586 276.726 159.586 265.518C159.586 254.309 150.478 245.223 139.243 245.223C128.008 245.223 118.901 254.309 118.901 265.518C118.901 276.726 128.008 285.813 139.243 285.813Z" fill="black"/>
<path d="M139.244 279.179C146.807 279.179 152.938 273.062 152.938 265.518C152.938 257.973 146.807 251.856 139.244 251.856C131.682 251.856 125.551 257.973 125.551 265.518C125.551 273.062 131.682 279.179 139.244 279.179Z" fill="#606060"/>
<path d="M139.244 275.063C144.527 275.063 148.811 270.79 148.811 265.519C148.811 260.247 144.527 255.974 139.244 255.974C133.96 255.974 129.677 260.247 129.677 265.519C129.677 270.79 133.96 275.063 139.244 275.063Z" fill="black"/>
<path d="M150.833 272.886C150.308 273.725 149.677 274.538 148.941 275.272C148.258 275.954 147.522 276.53 146.759 277.055L127.836 258.097C128.335 257.337 128.94 256.602 129.623 255.921C130.359 255.186 131.174 254.557 132.015 254.033L150.833 272.886Z" fill="#A8A9AD"/>
<path d="M146.918 254.164C147.759 254.715 148.548 255.344 149.284 256.104C149.941 256.786 150.519 257.547 151.018 258.307L131.753 276.898C130.991 276.373 130.255 275.77 129.598 275.088C128.862 274.328 128.258 273.515 127.732 272.676L146.918 254.164Z" fill="#A8A9AD"/>
<path d="M188.971 210.637C188.971 210.637 193.885 210.585 195.436 209.903C196.987 209.221 197.276 208.749 198.117 209.012C198.958 209.274 199.352 210.532 198.117 212.001C196.908 213.469 189.68 215.305 189.68 215.305L188.971 210.637Z" fill="#DBB5A2"/>
<path d="M173.07 218.896C172.781 218.87 172.492 218.844 172.203 218.791H172.176C172.492 218.844 172.781 218.87 173.07 218.896Z" fill="#FFDFC6"/>
<path d="M173.779 218.765C174.094 218.765 174.409 218.765 174.725 218.792C174.83 218.792 174.909 218.792 175.014 218.792C174.725 218.792 174.436 218.792 174.147 218.792C174.147 218.792 174.147 218.792 174.173 218.792C179.114 218.792 184.055 218.792 188.97 218.739C189.732 218.713 190.521 218.687 191.283 218.66C190.862 218.687 190.468 218.713 190.048 218.739C190.126 218.739 190.179 218.739 190.258 218.739H190.021C189.969 218.739 189.89 218.739 189.837 218.739C189.89 218.739 189.942 218.739 189.995 218.739C190.468 218.713 190.941 218.687 191.414 218.687C191.441 218.634 191.493 218.556 191.519 218.503C193.753 214.806 193.28 211.24 192.36 208.906C191.441 206.573 189.837 204.973 188.891 204.186C187.945 203.4 187.84 202.036 187.84 202.036L177.616 201.722C177.616 201.722 177.511 206.363 177.432 207.989C177.353 209.588 177.064 212.158 175.093 215.016C174.12 216.405 172.938 217.612 171.781 218.66C172.438 218.687 173.095 218.739 173.779 218.765Z" fill="#FFDFC6"/>
<path d="M187.92 218.845C188.603 218.819 189.286 218.767 189.97 218.74C189.891 218.74 189.812 218.74 189.733 218.74L187.92 218.845Z" fill="#FFDFC6"/>
<path d="M188.156 211.712C188.156 211.712 190.048 212.84 192.309 212.971C194.569 213.102 197.591 213.443 198.406 213.102C199.221 212.761 199.983 212.184 200.982 212.368C201.981 212.551 202.927 212.892 202.48 213.469C202.033 214.046 200.377 216.904 199.852 217.009C199.326 217.114 196.961 217.402 194.648 217.612C192.335 217.822 187.157 217.586 187.157 217.586L188.156 211.712Z" fill="#FFDFC6"/>
<path d="M194.488 213.128C193.752 213.076 192.99 213.023 192.333 212.971C190.073 212.84 188.181 211.712 188.181 211.712L187.208 217.481C188.943 217.429 191.177 217.297 192.228 216.93C194.068 216.275 194.62 215.41 194.646 214.597C194.646 214.256 194.567 213.679 194.488 213.128Z" fill="#FF6D00"/>
<path d="M173.07 218.896C172.781 218.87 172.492 218.844 172.203 218.791H172.176C172.492 218.844 172.781 218.87 173.07 218.896Z" fill="#FF6D00"/>
<path d="M173.779 218.765C174.094 218.765 174.409 218.765 174.725 218.792C174.83 218.792 174.909 218.792 175.014 218.792C174.725 218.792 174.436 218.792 174.147 218.792C174.147 218.792 174.147 218.792 174.173 218.792C178.904 218.792 183.635 218.792 188.366 218.739C188.996 217.926 189.469 217.192 189.653 216.615C190.442 214.124 189.995 211.922 188.471 210.112C186.946 208.303 185.106 208.093 185.816 206.73C186.552 205.366 187.892 203.61 187.235 202.508C187.13 202.351 186.736 202.167 186.131 201.984L177.616 201.722C177.616 201.722 177.511 206.363 177.432 207.989C177.353 209.588 177.064 212.158 175.093 215.016C174.12 216.405 172.938 217.612 171.781 218.66C172.438 218.687 173.095 218.739 173.779 218.765Z" fill="#FF6D00"/>
<path d="M173.07 218.896C172.781 218.87 172.492 218.844 172.203 218.791H172.176C172.492 218.844 172.781 218.87 173.07 218.896Z" fill="#6B3425"/>
<path d="M173.779 218.764C174.094 218.764 174.409 218.764 174.725 218.79C174.83 218.79 174.909 218.79 175.014 218.79C174.725 218.79 174.436 218.79 174.147 218.79C174.147 218.79 174.147 218.79 174.173 218.79C178.036 218.79 181.9 218.79 185.764 218.764C186.342 217.584 186.368 216.194 185.921 214.779C185.317 212.812 180.244 208.145 177.511 205.706C177.485 206.598 177.458 207.437 177.432 207.961C177.353 209.561 177.064 212.13 175.093 214.988C174.12 216.378 172.938 217.584 171.781 218.633C172.438 218.685 173.095 218.738 173.779 218.764Z" fill="#6B3425"/>
<path d="M164.265 192.152C164.002 191.758 164.344 190.395 166.026 188.795C167.708 187.196 168.707 186.226 171.519 186.776C174.331 187.327 175.514 189.005 179.746 188.795C183.977 188.586 185.922 189.189 186.053 189.398C186.185 189.608 179.115 192.152 175.383 192.912C171.651 193.673 170.336 194.223 167.656 193.673C164.975 193.122 164.738 192.807 164.265 192.152Z" fill="#A84400"/>
<path d="M186.133 189.136C188.498 190.42 190.259 192.649 191.1 193.75C191.941 194.852 193.045 196.268 192.625 199.126C192.204 201.984 191.284 204.239 188.419 204.501C185.555 204.763 178.826 204.58 178.09 203.505C177.328 202.403 175.409 196.976 176.487 193.436C177.565 189.896 183.978 187.982 186.133 189.136Z" fill="#FF6D00"/>
<path d="M185.738 190.133C186.158 190.369 185.685 190.92 185.738 191.104C185.79 191.261 188.681 193.883 189.049 193.909C189.417 193.962 192.86 192.782 193.386 192.913C193.885 193.044 194.568 193.831 194.726 195.509C194.884 197.187 194.595 198.105 194.043 198.603C193.491 199.101 193.123 199.494 193.123 199.494C193.123 199.494 194.516 202.352 194.227 203.192C193.938 204.031 191.572 204.817 190.258 204.817C188.944 204.817 186.657 202.72 186.657 202.72C185.264 200.779 185.475 199.416 185.738 198.603C186 197.79 187.288 196.767 186.973 195.719C186.631 194.67 184.87 192.1 184.607 192.1C184.345 192.1 182.216 192.572 182.137 192.021C182.058 191.471 182.347 190.291 183.451 190.133C184.529 189.976 185.37 189.924 185.738 190.133Z" fill="#FFDFC6"/>
<path d="M177.354 191.863C178.116 191.916 178.405 193.463 177.695 193.882C176.986 194.302 175.435 194.879 174.594 196.478C173.753 198.078 172.991 201.434 169.6 203.742C166.184 206.049 163.844 205.472 162.425 204.423C161.006 203.374 161.321 202.614 161.532 202.378C161.742 202.116 161.111 200.149 162.714 198.864C164.318 197.58 166.998 197.055 169.022 195.561C170.993 193.987 175.75 191.732 177.354 191.863Z" fill="#A84400"/>
<path d="M193.597 193.279C194.175 193.489 194.28 194.88 193.597 195.325C192.913 195.771 191.284 195.614 190.995 194.958C190.706 194.302 193.124 193.122 193.597 193.279Z" fill="#6B3425"/>
<path d="M186.894 200.228C186.894 200.228 190.1 203.767 191.809 203.505C193.491 203.243 193.622 201.853 193.465 201.224C193.333 200.595 192.913 199.598 192.913 199.598C192.913 199.598 192.755 199.756 192.518 199.729C192.256 199.677 192.177 199.52 192.177 199.52C192.177 199.52 191.467 200.831 190.022 200.962C188.55 201.067 186.894 200.228 186.894 200.228Z" fill="#722D21"/>
<path d="M190.021 202.719C190.021 202.063 190.836 201.539 191.388 201.512C191.913 201.46 192.203 201.617 192.308 201.565C192.387 201.512 192.255 201.224 192.86 201.172C193.438 201.119 194.594 201.748 194.962 202.692C195.33 203.636 194.41 205.157 192.702 205.996C191.677 206.494 189.785 207.071 188.996 205.996C188.208 204.921 191.151 204.633 191.388 203.872C191.572 203.269 190.021 203.059 190.021 202.719Z" fill="#C96659"/>
<path d="M192.518 201.749C192.518 201.749 193.464 202.247 193.516 203.008C193.569 203.768 192.334 204.791 191.861 205C191.361 205.21 192.886 204.161 193.148 203.244C193.411 202.326 192.518 201.749 192.518 201.749Z" fill="#AF4941"/>
<path d="M184.635 193.857C185.949 193.752 186.816 196.689 185.266 196.742C183.689 196.846 183.058 193.988 184.635 193.857Z" fill="white"/>
<path d="M185.397 194.592C185.739 194.356 186.081 195.825 185.713 196.061C185.345 196.271 185.082 194.802 185.397 194.592Z" fill="#6B3425"/>
<path d="M188.603 191.496C189.523 191.417 190.102 193.437 189.024 193.489C187.973 193.542 187.526 191.575 188.603 191.496Z" fill="white"/>
<path d="M189.128 191.993C189.365 191.836 189.602 192.859 189.339 193.016C189.102 193.148 188.918 192.151 189.128 191.993Z" fill="#6B3425"/>
</svg>
