<svg width="375" height="308" viewBox="0 0 375 308" fill="none" xmlns="http://www.w3.org/2000/svg">
<path d="M169.758 54.3854C187.92 57.8203 222.139 -12.2948 260.013 3.1756C297.886 18.646 270.052 68.4923 283.562 79.6625C297.071 90.8327 334.077 56.4568 349.636 92.5633C365.195 128.67 341.541 167.346 341.199 173.35C340.857 179.355 383.856 211.633 371.923 256.078C359.991 300.523 201.534 304.823 144.974 306.527C88.4141 308.232 12.7993 308.101 1.65555 261.768C-9.48823 215.435 41.1319 175.081 45.8102 162.128C50.4884 149.175 8.14733 104.101 61.238 48.6954C102.318 5.82393 151.597 50.9504 169.758 54.3854Z" fill="#9ECBDD"/>
<path d="M233.258 129.93C233.258 129.93 229.998 123.637 237.41 122.929C236.648 117.921 243.902 110.369 256.491 113.594C258.62 108.14 270.631 98.5172 278.989 110.238C294.916 103.578 297.177 113.175 295.048 114.905C307.4 112.677 305.219 121.12 303.143 122.064C319.49 118.576 317.23 129.93 317.23 129.93H233.258Z" fill="white"/>
<path d="M50.4878 116.242C50.4878 116.242 49.1211 112.755 52.2224 112.361C51.9071 109.608 54.9295 105.413 60.186 107.196C61.0797 104.18 66.0996 98.8573 69.5689 105.334C76.2184 101.637 77.1645 106.96 76.2709 107.904C81.4223 106.671 80.5287 111.339 79.6351 111.863C86.4685 109.923 85.5224 116.216 85.5224 116.216H50.4878V116.242Z" fill="white"/>
<path d="M258.672 174.742H242.114V189.374H258.672V174.742Z" fill="#749DC1"/>
<path d="M257.254 173.221H245.505V177.809H257.254V173.221Z" fill="#749DC1"/>
<path d="M252.05 171.779H246.478V174.716H252.05V171.779Z" fill="#749DC1"/>
<path d="M255.52 163.467H253.706V175.503H255.52V163.467Z" fill="#749DC1"/>
<path d="M239.96 174.295H221.589V189.372H239.96V174.295Z" fill="#749DC1"/>
<path d="M245.506 181.191H236.096V189.372H245.506V181.191Z" fill="#749DC1"/>
<path d="M239.093 151.326H223.901V174.741H239.093V151.326Z" fill="#749DC1"/>
<path d="M236.702 136.066H226.241V153.189H236.702V136.066Z" fill="#749DC1"/>
<path d="M235.57 112.126H227.817V137.351H235.57V112.126Z" fill="#749DC1"/>
<path d="M233.678 112.649H229.63V98.5425L231.707 96.4448L233.678 98.5425V112.649Z" fill="#749DC1"/>
<path d="M194.413 141.1H186.66V126.547L190.55 123.846L194.413 126.547V141.1Z" fill="#749DC1"/>
<path d="M201.64 141.1H193.886V126.547L197.776 123.846L201.64 126.547V141.1Z" fill="#749DC1"/>
<path d="M209.157 141.1H201.403V126.547L205.293 123.846L209.157 126.547V141.1Z" fill="#749DC1"/>
<path d="M209.157 137.351H182.454V189.373H209.157V137.351Z" fill="#749DC1"/>
<path d="M193.887 139.158H180.64V189.372H193.887V139.158Z" fill="#749DC1"/>
<path d="M221.589 167.373H205.293V189.373H221.589V167.373Z" fill="#749DC1"/>
<path d="M178.407 152.217H151.914V189.373H178.407V152.217Z" fill="#749DC1"/>
<path d="M186.66 176.997H171.469V189.373H186.66V176.997Z" fill="#749DC1"/>
<path d="M175.542 98.9097H151.914V152.217H175.542V98.9097Z" fill="#749DC1"/>
<path d="M173.886 106.566H161.69V96.4448L173.886 97.651V106.566Z" fill="#749DC1"/>
<path d="M159.588 86.0093H157.932V101.506H159.588V86.0093Z" fill="#749DC1"/>
<path d="M155.672 86.0093H154.016V101.506H155.672V86.0093Z" fill="#749DC1"/>
<path d="M146.79 143.67H142.269V163.494H146.79V143.67Z" fill="#749DC1"/>
<path d="M148.288 147.419H132.939V168.737H148.288V147.419Z" fill="#749DC1"/>
<path d="M154.018 161.212H132.939V189.374H154.018V161.212Z" fill="#749DC1"/>
<path d="M140.638 140.208H138.22V148.624H140.638V140.208Z" fill="#749DC1"/>
<path d="M128.576 188.533H110.52V115.665L114.725 112.649L128.576 117.159V188.533Z" fill="#749DC1"/>
<path d="M130.389 118.287H109.625V189.372H130.389V118.287Z" fill="#749DC1"/>
<path d="M136.723 185.282H121.821V189.372H136.723V185.282Z" fill="#749DC1"/>
<path d="M102.107 154.473H82.8423V188.56H102.107V154.473Z" fill="#749DC1"/>
<path d="M112.78 170.783H96.3794V189.374H112.78V170.783Z" fill="#749DC1"/>
<path d="M80.7406 180.091H75.011V189.374H80.7406V180.091Z" fill="#749DC1"/>
<path d="M88.8622 186.148H72.1465V189.374H88.8622V186.148Z" fill="#749DC1"/>
<path d="M96.8773 158.065H88.2041V153.005L92.5407 150.592L96.8773 153.005V158.065Z" fill="#749DC1"/>
<path d="M101.031 141.939H98.7449V155.207H101.031V141.939Z" fill="#749DC1"/>
<path d="M86.2335 142.096H83.9995V155.311H86.2335V142.096Z" fill="#749DC1"/>
<path d="M1.7083 261.743C12.8521 308.075 88.4931 308.233 145.027 306.502C201.56 304.772 360.018 300.498 371.976 256.053C380.098 225.82 362.804 201.198 351.003 186.672H27.2286C12.1424 205.761 -5.33541 232.559 1.7083 261.743Z" fill="#3D3B38"/>
<path d="M352.947 189.111C352.29 188.272 351.633 187.459 350.976 186.672H27.2281C26.5973 187.485 25.9665 188.298 25.3094 189.111H352.947Z" fill="white"/>
<path d="M12.5885 207.7C3.33707 223.564 -3.04958 242.128 1.68127 261.742C12.8251 308.074 88.4661 308.232 145 306.501C201.533 304.771 359.991 300.497 371.949 256.052C376.943 237.461 372.317 220.994 365.3 207.7H12.5885Z" fill="#8A9995"/>
<path d="M292.971 205.943C295.52 204.711 297.176 212.341 296.729 214.334C296.283 216.327 284.561 221.388 280.355 221.178C276.15 220.968 266.636 218.897 266.636 218.897V211.45C266.636 211.45 287.872 208.408 292.971 205.943Z" fill="#FFE051"/>
<path d="M75.6946 170.073L95.5904 153.449L81.1613 169.785L75.6946 170.073Z" fill="#424B6A"/>
<path d="M110.256 167.95C110.256 167.95 112.122 162.208 112.963 160.031C113.804 157.829 116.038 158.353 115.67 160.031C115.302 161.709 113.988 167.635 113.988 167.635L110.256 167.95Z" fill="#424B6A"/>
<path d="M95.5909 153.449V168.579L84.2632 169.208L95.5909 153.449Z" fill="#424B6A"/>
<path d="M78.7173 168.055C79.5847 168.002 110.072 166.901 117.721 167.216C125.369 167.53 157.854 168.789 158.301 168.789C158.748 168.789 166.317 175.056 166.317 175.056V177.468C166.317 177.468 170.785 180.274 170.995 180.903C171.179 181.532 170.89 188.219 169.681 190.815C168.472 193.41 166.133 197.081 166.133 197.081L44.6289 196.557C44.6289 196.557 40.2397 189.136 40.0558 188.324C39.8718 187.511 40.0558 181.637 40.0558 181.637L42.027 181.323C42.027 181.323 47.336 175.79 47.9142 175.475C48.4662 175.161 75.7211 168.238 78.7173 168.055Z" fill="#1D7DCC"/>
<path d="M42.0525 181.323C42.0525 181.323 47.3615 175.79 47.9397 175.475C48.4917 175.161 75.7466 168.238 78.7428 168.055C79.6102 168.002 110.098 166.901 117.746 167.216C125.394 167.53 157.879 168.789 158.326 168.789C158.773 168.789 166.342 175.056 166.342 175.056V177.468C166.342 177.468 170.81 180.274 171.021 180.903C171.205 181.48 170.968 187.249 169.969 190.159C169.969 190.159 159.851 178.805 140.927 178.307C122.004 177.809 112.805 190.159 100.925 190.159C89.0456 190.159 75.5101 177.914 63.7092 179.172C51.9084 180.431 41.0012 190.159 41.0012 190.159C40.5018 189.241 40.1338 188.533 40.0813 188.297C39.8973 187.458 40.0813 181.611 40.0813 181.611L42.0525 181.323Z" fill="#0C96FD"/>
<path d="M45.6804 185.282V188.192L40.0823 188.297V185.282H45.6804Z" fill="#F1F3F2"/>
<path d="M158.669 177.442L161.113 174.217H165.318L166.343 175.056V177.442H158.669Z" fill="#7D009B"/>
<path d="M118.378 167.242L128.445 160.844C128.445 160.844 142.453 162.968 146.185 164.043C149.917 165.118 152.151 166.691 152.151 167.163C152.151 167.635 152.151 168.553 152.151 168.553L118.378 167.242Z" fill="black"/>
<path d="M155.148 169.523C155.148 169.523 155.989 165.878 155.332 165.773C154.674 165.668 152.519 169.103 152.519 169.103L155.148 169.523Z" fill="#0C96FD"/>
<path d="M81.6076 191.601C81.8967 191.601 111.648 191.601 113.672 191.601C117.036 191.601 118.351 189.346 118.429 185.911C118.534 181.479 117.772 167.373 117.772 167.241C117.772 167.215 117.746 167.189 117.72 167.189C117.693 167.189 117.667 167.215 117.667 167.241C117.667 167.373 118.009 181.558 117.904 185.989C117.825 189.346 116.537 190.971 113.225 190.971C111.228 190.971 83.6313 191.076 82.1858 191.103C82.2121 190.552 82.2909 186.645 82.7903 181.007C83.3422 175.003 87.0743 167.897 87.1269 167.818C87.1532 167.792 87.1269 167.766 87.1006 167.74C87.0743 167.713 87.048 167.74 87.0218 167.766C86.9692 167.844 82.8954 174.872 82.3435 180.903C81.7915 186.907 81.5024 191.522 81.5024 191.575C81.5024 191.601 81.5024 191.601 81.5287 191.601C81.5813 191.575 81.5813 191.601 81.6076 191.601Z" fill="#024168"/>
<path d="M115.302 172.014H110.598C110.414 172.014 110.256 171.857 110.256 171.673V170.703C110.256 170.519 110.414 170.362 110.598 170.362H115.302C115.486 170.362 115.644 170.519 115.644 170.703V171.673C115.67 171.857 115.513 172.014 115.302 172.014Z" fill="#878FB3"/>
<path d="M46.8898 176.392C46.8898 176.392 44.8397 175.553 43.4468 176.917C42.0538 178.28 42.8948 180.43 42.8948 180.43L46.8898 176.392Z" fill="#FFE051"/>
<path d="M95.5897 153.449L84.7613 169.785H81.1606L93.382 153.449H95.5897Z" fill="#0C96FD"/>
<path d="M89.9925 161.84C89.9925 161.84 90.8598 163.361 91.4118 164.724C91.9637 166.088 92.0688 167.661 92.0688 167.661L85.9976 167.818L89.9925 161.84Z" fill="#0C96FD"/>
<path d="M77.5074 197.054C77.6651 196.267 77.7439 195.454 77.7439 194.615C77.7439 187.299 71.8041 181.374 64.4713 181.374C57.1385 181.374 51.1986 187.299 51.1986 194.615C51.1986 195.454 51.2775 196.267 51.4352 197.054H77.5074Z" fill="#024168"/>
<path d="M64.498 204.947C70.6961 204.947 75.7206 199.934 75.7206 193.751C75.7206 187.567 70.6961 182.554 64.498 182.554C58.2999 182.554 53.2754 187.567 53.2754 193.751C53.2754 199.934 58.2999 204.947 64.498 204.947Z" fill="black"/>
<path d="M64.4984 201.276C68.6643 201.276 72.0415 197.907 72.0415 193.751C72.0415 189.594 68.6643 186.225 64.4984 186.225C60.3325 186.225 56.9553 189.594 56.9553 193.751C56.9553 197.907 60.3325 201.276 64.4984 201.276Z" fill="#606060"/>
<path d="M64.4988 198.994C67.4019 198.994 69.7553 196.646 69.7553 193.75C69.7553 190.853 67.4019 188.505 64.4988 188.505C61.5957 188.505 59.2423 190.853 59.2423 193.75C59.2423 196.646 61.5957 198.994 64.4988 198.994Z" fill="black"/>
<path d="M58.1105 197.815C58.3996 198.287 58.7413 198.733 59.1618 199.126C59.5297 199.493 59.9502 199.834 60.3708 200.096L70.7786 189.66C70.4895 189.241 70.1741 188.821 69.8062 188.454C69.4119 188.061 68.9651 187.694 68.4921 187.405L58.1105 197.815Z" fill="#A8A9AD"/>
<path d="M60.2665 187.484C59.7934 187.772 59.3729 188.139 58.9787 188.559C58.6107 188.926 58.2953 189.346 58.0062 189.765L68.6244 200.018C69.0449 199.729 69.4391 199.388 69.8071 199.021C70.2013 198.602 70.543 198.156 70.8321 197.684L60.2665 187.484Z" fill="#A8A9AD"/>
<path d="M152.283 196.95C152.44 196.164 152.519 195.351 152.519 194.512C152.519 187.196 146.579 181.27 139.247 181.27C131.914 181.27 125.974 187.196 125.974 194.512C125.974 195.351 126.053 196.164 126.21 196.95H152.283Z" fill="#024168"/>
<path d="M139.248 204.345C145.446 204.345 150.47 199.333 150.47 193.149C150.47 186.965 145.446 181.953 139.248 181.953C133.05 181.953 128.025 186.965 128.025 193.149C128.025 199.333 133.05 204.345 139.248 204.345Z" fill="black"/>
<path d="M139.248 200.674C143.414 200.674 146.791 197.305 146.791 193.149C146.791 188.993 143.414 185.624 139.248 185.624C135.082 185.624 131.705 188.993 131.705 193.149C131.705 197.305 135.082 200.674 139.248 200.674Z" fill="#606060"/>
<path d="M139.248 198.392C142.152 198.392 144.505 196.044 144.505 193.148C144.505 190.252 142.152 187.904 139.248 187.904C136.345 187.904 133.992 190.252 133.992 193.148C133.992 196.044 136.345 198.392 139.248 198.392Z" fill="black"/>
<path d="M132.86 197.213C133.149 197.685 133.491 198.131 133.912 198.525C134.28 198.892 134.7 199.233 135.121 199.495L145.529 189.059C145.239 188.639 144.924 188.22 144.556 187.853C144.162 187.459 143.715 187.092 143.242 186.804L132.86 197.213Z" fill="#A8A9AD"/>
<path d="M135.016 186.882C134.543 187.171 134.123 187.538 133.729 187.957C133.361 188.324 133.045 188.744 132.756 189.164L143.374 199.416C143.795 199.128 144.189 198.787 144.557 198.42C144.951 198 145.293 197.554 145.582 197.082L135.016 186.882Z" fill="#A8A9AD"/>
<path d="M126.05 57.743C126.05 57.743 119.953 53.8885 113.093 58.2674C108.494 61.2042 107.942 71.5353 109.65 75.0751C111.358 78.5887 119.191 85.0129 119.191 85.0129C119.191 85.0129 148.548 63.6952 126.05 57.743Z" fill="#A5713D"/>
<path d="M145.631 118.679L145.71 133.809C145.71 133.809 142.451 143.878 140.558 143.773C138.666 143.694 135.906 143.091 134.934 139.053C133.961 134.989 133.646 119.44 133.646 119.44L145.631 118.679Z" fill="#DD866F"/>
<path d="M107.258 261.742L106.259 285.551L83.7353 284.817C83.7353 284.817 80.7128 279.94 83.9981 278.76C87.2834 277.58 97.9278 273.358 97.9278 273.358L98.0067 261.428L107.258 261.742Z" fill="#F69576"/>
<path d="M106.759 273.646L106.259 285.55L83.7353 284.816C83.7353 284.816 80.7128 279.939 83.9981 278.759C87.2834 277.579 97.9278 273.357 97.9278 273.357L106.759 273.646Z" fill="#032240"/>
<path d="M106.364 283.166L106.259 285.578L83.7344 284.844C83.7344 284.844 83.0248 283.716 82.6831 282.405L106.364 283.166Z" fill="#BFBFBF"/>
<path d="M127.522 261.664L127.339 273.568C127.339 273.568 137.773 275.535 140.559 276.374C143.896 277.397 147.76 278.314 148.312 281.566C148.785 284.371 148.312 285.473 148.312 285.473H116.011L119.533 261.638H127.522V261.664Z" fill="#F69576"/>
<path d="M127.339 273.567C127.339 273.567 137.773 275.534 140.559 276.373C143.896 277.396 147.76 278.313 148.312 281.565C148.785 284.37 148.312 285.472 148.312 285.472H116.011L117.246 273.567H127.339Z" fill="#BFBFBF"/>
<path d="M148.311 281.591C148.416 282.168 148.469 282.666 148.495 283.086H116.247L117.245 273.567H127.338C127.338 273.567 137.772 275.534 140.558 276.373C143.896 277.422 147.759 278.34 148.311 281.591Z" fill="#032240"/>
<path d="M142.057 153.684C142.057 153.684 143.187 165.431 142.057 184.966C140.927 204.501 136.17 223.249 135.618 225.477C135.066 227.706 128.049 265.15 128.049 265.15H117.115C117.115 265.15 123.265 214.569 123.843 199.204C124.422 183.838 121.872 155.074 121.872 155.074L142.057 153.684Z" fill="#254B6B"/>
<path d="M101.37 154.89L127.653 155.729C127.653 155.729 127.758 202.219 125.629 204.317C123.5 206.415 116.956 214.936 115.72 221.623C114.485 228.283 110.411 265.333 110.411 265.333L96.8232 264.888L101.37 154.89Z" fill="#254B6B"/>
<path d="M119.295 92.5897C130.886 92.3537 134.591 94.0843 137.036 99.4859C139.48 104.887 145.63 152.374 146.182 162.076C146.734 171.751 144.868 177.546 131.621 177.546C118.375 177.546 100.24 166.717 100.24 166.717C100.24 166.717 99.5042 170.073 98.926 172.118C98.3478 174.164 92.7759 176.392 92.7759 172.852C92.7759 169.313 95.1939 113.803 95.5881 104.494C95.9561 95.1856 110.517 92.7733 119.295 92.5897Z" fill="black"/>
<path d="M131.595 95.763C136.168 94.583 140.373 94.6355 143.737 101.348C147.101 108.061 149.703 128.906 149.703 128.906L134.196 135.042C134.223 135.042 119.478 98.9095 131.595 95.763Z" fill="black"/>
<path d="M123.264 91.645C119.191 91.645 114.355 92.0383 111.831 93.6378C108.756 95.6044 108.809 102.946 122.292 103.549C135.775 104.152 135.328 97.8856 133.961 96.0239C132.016 93.3232 126.392 91.645 123.264 91.645Z" fill="#F69576"/>
<path d="M128.519 83.2266L131.147 100.06H115.246C115.246 100.06 116.009 93.3741 116.902 89.0214C117.796 84.6949 118.558 83.2266 118.558 83.2266H128.519Z" fill="#F69576"/>
<path d="M121.582 87.789C121.582 87.789 121.45 90.8831 123.5 92.2466C125.55 93.6101 130.124 93.6363 130.124 93.6363L128.494 83.2266H121.792C121.792 83.2266 121.319 85.8224 121.582 87.789Z" fill="#DD866F"/>
<path d="M130.781 62.8017C130.781 62.8017 132.805 64.4536 133.672 68.1245C134.356 70.9564 134.198 73.9718 134.54 75.6762C134.881 77.3806 135.459 80.0814 134.986 82.4413C134.513 84.8012 132.411 88.0264 128.495 89.1276C124.605 90.2289 121.398 89.4423 119.243 86.7153C117.088 84.0145 114.433 79.1636 113.645 75.7811C112.856 72.3986 112.41 66.0531 116.01 63.2474C120.61 59.7076 126.103 59.6551 130.781 62.8017Z" fill="#F69576"/>
<path d="M124.498 82.5979C124.498 82.5979 125.077 84.8529 126.469 85.1937C127.862 85.5346 129.229 85.1151 129.781 84.3022C130.333 83.4894 130.517 82.021 130.517 82.021L124.498 82.5979Z" fill="white"/>
<path d="M127.021 79.2698C126.916 79.2698 126.811 79.2435 126.758 79.1911C126.601 79.0599 126.574 78.7976 126.574 78.6402C126.574 78.614 126.574 78.5877 126.574 78.5615C126.548 78.5877 126.469 78.6402 126.364 78.7451C126.259 78.8763 126.101 78.9288 125.944 78.8763C125.733 78.8238 125.576 78.614 125.523 78.3254C125.418 77.8533 125.865 77.0663 125.917 76.9876C125.944 76.9351 126.022 76.9089 126.101 76.9351C126.154 76.9614 126.18 77.0401 126.154 77.1188C126.022 77.3286 125.733 77.9582 125.786 78.273C125.838 78.4828 125.944 78.5877 126.022 78.614C126.101 78.6402 126.154 78.5877 126.18 78.5615C126.364 78.3517 126.522 78.273 126.627 78.273C126.706 78.273 126.758 78.3254 126.785 78.3779C126.811 78.4304 126.811 78.509 126.837 78.614C126.837 78.7451 126.837 78.9025 126.916 78.9812C126.942 79.0074 127.021 79.0074 127.1 79.0074C127.284 78.9812 127.31 78.8501 127.284 78.5353C127.284 78.4041 127.284 78.273 127.363 78.2205C127.389 78.1943 127.442 78.168 127.494 78.168C127.599 78.168 127.678 78.2467 127.757 78.2992C127.915 78.4303 127.994 78.4566 128.099 78.3517C128.151 78.2992 128.178 78.1943 128.178 78.0631C128.151 77.6696 127.888 77.145 127.704 77.0138C127.652 76.9614 127.626 76.8827 127.678 76.8302C127.731 76.7778 127.81 76.7515 127.862 76.804C128.125 77.0138 128.414 77.6172 128.44 78.0631C128.44 78.2992 128.414 78.4566 128.283 78.5615C127.994 78.8238 127.757 78.6402 127.599 78.5353C127.573 78.509 127.547 78.509 127.547 78.4828C127.547 78.509 127.547 78.5353 127.547 78.5353C127.547 78.7714 127.573 79.1911 127.126 79.2698C127.1 79.2698 127.074 79.2698 127.021 79.2698Z" fill="#6B3425"/>
<path d="M107.678 73.3679C108.887 70.3787 117.665 73.0795 116.036 78.5859C114.38 84.2235 105.891 77.7731 107.678 73.3679Z" fill="#F69576"/>
<path d="M114.407 79.2677C114.381 79.2677 114.355 79.2677 114.328 79.2415C114.276 79.189 114.276 79.1104 114.328 79.0579C114.696 78.6646 114.775 77.406 114.302 76.1998C113.987 75.3345 113.172 73.8661 111.28 73.6302C110.255 73.499 109.545 73.6826 109.151 74.1284C108.546 74.8101 108.835 75.9114 108.835 75.9376C108.862 76.0163 108.809 76.0687 108.73 76.0949C108.651 76.1212 108.599 76.0687 108.572 75.99C108.546 75.9376 108.257 74.7314 108.94 73.9448C109.414 73.4204 110.202 73.2106 111.306 73.3417C112.804 73.5253 113.987 74.5217 114.565 76.0949C115.012 77.3273 115.012 78.717 114.539 79.2415C114.46 79.2415 114.433 79.2677 114.407 79.2677Z" fill="#6B3425"/>
<path d="M111.253 78.7715C111.201 78.7715 111.148 78.7453 111.122 78.6928C111.069 78.5879 110.097 76.1756 111.542 73.4748C111.569 73.4224 111.647 73.3962 111.726 73.4224C111.779 73.4486 111.805 73.5273 111.779 73.6059C110.386 76.2018 111.358 78.5879 111.358 78.5879C111.385 78.6666 111.358 78.7191 111.279 78.7715H111.253Z" fill="#6B3425"/>
<path d="M122.791 76.699C123.052 76.699 123.264 76.2644 123.264 75.7284C123.264 75.1924 123.052 74.7578 122.791 74.7578C122.529 74.7578 122.318 75.1924 122.318 75.7284C122.318 76.2644 122.529 76.699 122.791 76.699Z" fill="#6B3425"/>
<path d="M120.556 73.1858C120.924 72.871 121.712 72.4513 122.501 72.3726C123.368 72.2939 123.894 72.6874 124.235 72.7661C124.577 72.8448 124.63 72.3726 124.446 71.9529C124.262 71.5332 123.526 71.2184 122.317 71.2709C121.108 71.3233 120.451 71.848 120.135 72.2152C119.794 72.5824 120.03 73.6055 120.556 73.1858Z" fill="#6B3425"/>
<path d="M130.202 76.4636C130.463 76.4636 130.675 76.0291 130.675 75.493C130.675 74.957 130.463 74.5225 130.202 74.5225C129.94 74.5225 129.729 74.957 129.729 75.493C129.729 76.0291 129.94 76.4636 130.202 76.4636Z" fill="#6B3425"/>
<path d="M128.416 72.8191C128.784 72.5043 129.572 72.0846 130.36 72.0059C131.228 71.9272 131.753 72.3207 132.095 72.3994C132.437 72.4781 132.489 72.0059 132.305 71.5862C132.121 71.1665 131.385 70.8517 130.176 70.9042C128.967 70.9566 128.31 71.4813 127.995 71.8485C127.653 72.242 127.916 73.265 128.416 72.8191Z" fill="#6B3425"/>
<path d="M132.594 84.7231L132.016 84.9329C132.016 84.9329 131.069 87.3453 130.123 87.8697C129.203 88.3941 125.971 88.5252 125.603 88.263C125.235 88.0008 123.894 85.5622 123.894 85.5622L123.158 85.8244C123.158 85.8244 124.63 89.3905 124.841 89.7051C124.972 89.8887 127.206 91.1473 128.047 91.1473C128.888 91.1473 131.595 89.3381 131.7 88.971C131.989 87.8435 132.594 84.7231 132.594 84.7231Z" fill="#6B3425"/>
<path d="M129.045 86.48L127.626 86.5587L127.81 89.0507L128.914 89.1556L129.045 86.48Z" fill="#6B3425"/>
<path opacity="0.4" d="M99.6107 105.884L103.211 126.127L96.7722 128.067L99.6107 105.884Z" fill="#254B6B"/>
<path d="M115.221 59.3153C115.221 59.3153 118.559 65.3462 127.837 65.8706C147.154 66.9981 138.297 56.1688 138.297 56.1688C138.297 56.1688 138.98 59.0269 135.669 59.1842C131.122 59.4202 124.551 45.6279 115.221 59.3153Z" fill="#A5713D"/>
<path d="M99.7422 124.212C99.7422 124.212 98.98 141.885 98.6383 143.406C98.2967 144.927 103.369 162.915 103.711 164.96C104.053 167.005 103.79 172.197 104.079 173.875C104.368 175.553 105.183 178.385 106.339 178.674C107.496 178.962 114.066 179.277 114.723 179.146C115.38 179.041 113.777 176.864 113.619 176.392C113.488 175.92 115.88 178.464 117.43 178.7C118.955 178.936 119.612 177.284 118.009 176.655C116.405 176.025 114.198 171.332 113.094 170.676C111.99 169.994 110.965 169.077 110.833 168.605C110.702 168.133 108.652 144.691 108.258 143.878C107.837 143.039 108.626 126.467 108.626 126.467L99.7422 124.212Z" fill="#F69576"/>
<path d="M192.782 246.325C190.705 248.396 187.683 252.12 187.446 253.667C187.21 255.214 186.921 255.397 188.34 256.42C189.786 257.416 193.754 259.173 193.728 259.907C193.702 260.642 188.55 262.975 187.92 262.713C187.289 262.451 185.975 260.956 184.187 260.327C182.427 259.698 180.771 259.488 180.744 257.705C180.718 255.922 182.479 244.148 182.479 244.148L192.782 246.325Z" fill="#DBB5A2"/>
<path d="M219.381 232.717C219.381 232.717 225.689 237.096 228.264 237.646C230.84 238.197 231.655 237.83 232.47 238.957C233.284 240.085 232.654 242.025 229.763 242.786C226.872 243.546 216.017 239.351 216.017 239.351L219.381 232.717Z" fill="#DBB5A2"/>
<path d="M223.771 204.764C226.241 203.794 235.676 219.186 237.727 221.677C241.038 225.715 241.012 227.891 237.779 229.071C234.546 230.251 230.236 230.251 228.37 226.711C225.453 221.205 220.144 206.18 223.771 204.764Z" fill="#A84400"/>
<path d="M174.017 232.034C176.803 230.119 179.931 228.992 183.453 228.231C186.974 227.445 192.625 227.55 197.724 225.688C202.823 223.853 205.53 220.837 207.107 218.871C208.684 216.878 213.02 211.057 213.02 211.057L225.767 220.706C225.767 220.706 224.611 222.541 225.137 224.403C225.662 226.265 226.24 229.752 225.268 233.554C224.296 237.356 221.694 242.338 215.465 245.013C209.236 247.687 203.348 249.418 196.725 249.182C190.102 248.946 175.936 244.829 175.936 244.829L174.017 232.034Z" fill="#FFDFC6"/>
<path d="M185.975 238.8C189.444 241.946 188.445 246.64 186.132 248.868C183.82 251.097 180.377 252.671 178.248 254.637C176.119 256.604 173.175 260.248 172.466 262.32C171.756 264.391 172.019 265.493 172.807 266.174C173.569 266.83 174.148 266.594 173.964 267.433C173.78 268.272 168.392 270.108 168.024 269.845C167.656 269.583 166.92 268.744 166.683 267.433C166.447 266.122 165.343 261.612 165.527 260.825C165.737 260.012 170.179 251.412 170.179 251.412C170.179 251.412 167.156 241.369 170.205 237.436C173.254 233.503 178.905 232.349 185.975 238.8Z" fill="#FFDFC6"/>
<path d="M188.105 245.171C188.525 243.047 188.052 240.661 185.976 238.773C178.906 232.349 173.255 233.451 170.233 237.384C167.184 241.317 170.207 251.36 170.207 251.36C170.207 251.36 168.63 254.401 167.315 257.023C170.259 257.207 174.491 255.581 176.725 254.113C179.984 251.963 181.929 248.134 182.375 247.4C182.691 246.902 185.608 245.801 188.105 245.171Z" fill="#FF6D00"/>
<path d="M217.384 233.346C217.384 233.346 218.777 236.493 221.536 238.722C224.296 240.95 227.818 244.123 229.211 244.411C230.604 244.7 232.076 244.674 233.153 245.801C234.231 246.929 235.151 248.24 234.047 248.554C232.969 248.895 228.212 251.019 227.476 250.705C226.714 250.364 223.455 248.581 220.301 246.771C217.121 244.962 210.787 239.928 210.787 239.928L217.384 233.346Z" fill="#FFDFC6"/>
<path d="M224.164 240.897C223.27 240.163 222.376 239.402 221.535 238.747C218.776 236.518 217.383 233.372 217.383 233.372L210.891 239.822C213.151 241.343 216.121 243.204 217.803 243.676C220.747 244.516 222.219 243.912 222.981 242.916C223.322 242.444 223.769 241.631 224.164 240.897Z" fill="#FF6D00"/>
<path d="M177.25 230.199C177.25 230.199 169.891 233.005 167.289 232.375C164.687 231.746 160.876 230.514 158.904 226.449C156.933 222.385 156.46 215.305 154.804 215.568C153.149 215.83 152.544 218.504 153.595 223.696C154.647 228.862 158.431 234.263 162.505 236.335C166.579 238.406 176.198 238.773 176.198 238.773L177.25 230.199Z" fill="#FF6D00"/>
<path d="M157.538 222.542C156.565 219.002 155.987 215.384 154.804 215.567C153.149 215.829 152.544 218.504 153.595 223.696C153.622 223.827 153.648 223.958 153.674 224.089C154.673 223.984 155.934 223.538 157.538 222.542Z" fill="#FFDFC6"/>
<path d="M167.288 232.376C164.686 231.746 160.875 230.514 158.904 226.45C158.904 226.424 158.878 226.397 158.878 226.371C158.799 227.866 159.219 229.701 160.113 231.248C161.979 234.447 166.368 237.987 170.889 237.436C172.939 237.2 175.015 235.863 176.724 234.5L177.249 230.173C177.249 230.199 169.89 233.005 167.288 232.376Z" fill="#6B3425"/>
<path d="M207.107 218.871C205.53 220.863 202.823 223.853 197.724 225.688C192.625 227.523 186.974 227.445 183.453 228.231C179.931 229.018 176.803 230.119 174.017 232.034L175.988 244.803C175.988 244.803 179.195 245.747 183.269 246.744C185.029 245.642 188.21 245.144 193.23 245.092C198.749 245.039 211.549 243.361 214.808 240.922C218.067 238.484 219.486 235.259 219.223 231.588C218.934 227.917 216.779 225.95 218.934 224.875C221.089 223.8 224.427 222.804 224.611 220.785C224.637 220.496 224.296 219.893 223.691 219.107L213.073 211.057C213.047 211.057 208.684 216.878 207.107 218.871Z" fill="#FF6D00"/>
<path d="M207.107 218.872C205.53 220.865 202.823 223.854 197.724 225.689C192.625 227.525 186.975 227.446 183.453 228.233C179.931 229.019 176.514 229.491 173.728 231.405L174.123 236.335C175.515 235.811 177.671 234.473 178.591 235.443C180.22 237.2 181.114 239.953 182.98 240.53C184.846 241.107 185.95 240.478 186.633 237.698C187.316 234.893 187.316 230.96 189.445 230.724C191.574 230.488 196.121 239.298 201.535 240.661C206.949 242.025 210.366 239.455 211.733 235.234C212.732 232.166 210.55 221.651 209.288 216.092C208.421 217.167 207.633 218.216 207.107 218.872Z" fill="#6B3425"/>
<path d="M211.023 204.607C212.521 201.723 217.252 199.73 220.853 199.442C224.454 199.127 226.635 199.678 228.081 201.068C229.526 202.457 232.969 207.282 233.495 208.147C234.047 209.013 236.07 213.156 234.94 214.991C233.81 216.827 227.082 221.546 225.19 222.307C223.297 223.067 216.911 222.071 212.495 221.127C208.08 220.13 208.71 209.013 211.023 204.607Z" fill="#FF6D00"/>
<path d="M236.674 207.046C238.329 207.308 238.934 211.031 238.093 213.811C237.252 216.59 237.199 218.452 234.597 219.711C231.995 220.969 224.794 224.902 224.794 224.902C224.794 224.902 224.952 220.209 224.084 219.37C223.217 218.531 221.404 215.646 223.611 213.313C225.819 210.979 226.371 210.297 225.95 208.619C225.504 206.941 224.347 204.765 223.401 204.161C222.455 203.558 220.011 203.716 219.695 203.113C219.38 202.509 219.827 200.884 221.85 200.648C223.874 200.438 225.136 200.7 225.162 201.172C225.188 201.644 224.847 202.169 225.109 202.536C225.372 202.877 228.447 207.911 230.05 207.78C231.601 207.675 235.465 206.862 236.674 207.046Z" fill="#FFDFC6"/>
<path d="M237.278 207.833C237.646 208.856 237.304 210.167 236.858 210.665C236.411 211.163 235.044 211.583 234.361 211.189C233.677 210.796 232.573 210.298 232.757 209.249C232.915 208.2 237.068 207.282 237.278 207.833Z" fill="#6B3425"/>
<path d="M225.688 218.322C225.688 218.322 229.814 219.475 231.129 219.397C232.416 219.318 233.336 219.03 233.888 218.322C234.44 217.614 234.992 216.224 235.281 216.329C235.57 216.434 236.385 217.43 236.464 217.614C236.543 217.797 236.28 218.164 236.096 217.955C235.912 217.745 235.465 216.88 235.386 216.984C235.307 217.089 234.282 219.187 232.995 219.659C231.707 220.131 229.814 219.685 228.237 219.37C226.661 219.082 225.478 218.558 225.688 218.322Z" fill="#6B3425"/>
<path d="M222.141 207.099C224.165 206.679 226.11 211.006 223.718 211.452C221.326 211.897 219.723 207.623 222.141 207.099Z" fill="white"/>
<path d="M223.506 208.043C223.979 207.623 224.847 209.827 224.295 210.247C223.743 210.693 223.033 208.463 223.506 208.043Z" fill="#6B3425"/>
<path d="M213.468 204.373C214.756 204.818 213.31 209.564 214.151 212.291C214.993 215.045 217.358 219.266 217.857 223.855C218.357 228.444 219.171 231.852 215.36 233.347C211.55 234.868 209.841 234.763 209.368 234.606C208.895 234.448 209.237 232.744 208.08 232.298C206.924 231.852 204.69 230.227 205.242 226.503C205.794 222.78 208.001 216.67 208.107 212.475C208.212 208.28 211.234 203.586 213.468 204.373Z" fill="#A84400"/>
<path d="M229.605 203.951C231.129 203.61 232.733 207.439 230.919 207.753C229.106 208.068 227.792 204.344 229.605 203.951Z" fill="white"/>
<path d="M230.655 204.79C230.997 204.449 231.706 206.364 231.312 206.732C230.918 207.099 230.313 205.131 230.655 204.79Z" fill="#6B3425"/>
<path d="M293.182 198C293.182 198 304.036 205.499 310.213 207.728C316.415 209.931 322.382 214.231 323.275 218.924C324.169 223.618 319.07 233.346 315.969 236.65C312.867 239.954 311.317 243.048 312.42 245.696C313.524 248.344 317.73 263.133 317.73 263.133L316.389 264.47C316.389 264.47 317.283 267.119 315.732 267.119C314.181 267.119 295.81 262.268 295.81 262.268C295.81 262.268 289.634 252.514 289.634 247.217C289.634 241.92 296.493 226.686 296.493 226.686C296.493 226.686 286.979 221.389 284.324 216.302C281.67 211.215 281.46 203.716 281.46 203.716L293.182 198Z" fill="#002D4C"/>
<path d="M292.523 201.958C295.519 202.063 300.382 203.715 302.432 207.491C304.482 211.24 307.136 216.773 306.032 217.219C304.929 217.665 299.383 217.769 297.412 218.923C295.441 220.077 290.762 224.718 286.794 226.055C282.799 227.393 278.173 228.913 278.173 228.913L273.074 221.178C273.074 221.178 285.243 211.45 286.347 209.248C287.424 207.045 289.501 201.853 292.523 201.958Z" fill="#FFE051"/>
<path d="M295.835 262.241C295.835 262.241 289.895 261.585 289.659 264.443C289.422 267.301 290.894 267.537 296.781 268.429C302.669 269.32 313.313 267.092 313.313 267.092L295.835 262.241Z" fill="#6B3425"/>
<path d="M264.192 222.123C264.797 221.179 268.398 222.779 269.212 222.779C270.027 222.779 273.47 221.809 273.47 221.809L277.097 227.315C277.097 227.315 275.1 236.65 273.05 236.178C272.235 235.994 273.996 232.192 273.575 232.061C273.128 231.904 270.842 237.095 269.659 236.65C268.476 236.204 271.499 231.773 271 231.327C270.474 230.881 266.058 236.335 264.797 234.945C263.535 233.556 268.345 230.304 268.187 229.806C268.03 229.282 262.431 232.087 261.985 230.383C261.538 228.679 267.898 226.188 267.741 225.453C267.583 224.719 263.167 223.749 264.192 222.123Z" fill="#F69576"/>
<path d="M261.089 207.177C261.773 207.256 262.246 209.983 262.719 210.534C263.192 211.084 266.635 212.631 266.635 212.631V218.348C266.635 218.348 263.113 220.524 259.828 221.258C256.516 221.992 254.703 222.543 254.492 221.258C254.414 220.76 258.146 219.973 258.014 219.187C257.883 218.374 252.337 219.79 252.416 218.374C252.495 216.958 257.62 217.64 257.541 216.958C257.462 216.276 252.416 216.355 252.416 215.28C252.416 214.205 257.331 215.227 257.41 214.624C257.489 214.021 253.704 213.785 254.23 212.658C254.782 211.504 259.434 212.317 259.907 212.107C260.38 211.897 259.276 206.994 261.089 207.177Z" fill="#F69576"/>
<path d="M272.916 180.798C272.916 180.798 271.26 183.105 271.471 186.907C271.628 189.818 272.758 192.65 272.916 194.407C273.074 196.137 273.31 198.917 274.598 200.988C275.86 203.06 279.171 205.367 283.771 204.974C288.344 204.607 291.577 202.692 293.049 199.336C294.52 195.98 295.887 190.421 295.677 186.934C295.467 183.446 293.916 177.258 289.132 175.894C282.956 174.164 276.99 176.104 272.916 180.798Z" fill="#F69576"/>
<path d="M288.161 195.167C288.161 195.167 289.133 197.29 287.898 198.523C286.689 199.755 284.954 200.358 283.798 200.122C282.641 199.886 281.432 198.89 281.432 198.89L288.161 195.167Z" fill="white"/>
<path d="M282.167 195.063C281.72 195.142 281.615 194.722 281.536 194.512C281.536 194.486 281.536 194.486 281.51 194.46C281.484 194.486 281.484 194.512 281.458 194.512C281.352 194.67 281.168 194.932 280.827 194.748C280.695 194.696 280.59 194.538 280.538 194.329C280.433 193.909 280.485 193.227 280.695 192.965C280.748 192.912 280.827 192.886 280.879 192.938C280.932 192.991 280.958 193.069 280.906 193.122C280.774 193.306 280.695 193.883 280.8 194.276C280.827 194.407 280.906 194.512 280.958 194.538C281.09 194.591 281.142 194.538 281.274 194.381C281.326 194.302 281.405 194.197 281.484 194.171C281.536 194.145 281.589 194.145 281.642 194.171C281.747 194.224 281.773 194.329 281.799 194.46C281.878 194.748 281.957 194.853 282.141 194.827C282.22 194.827 282.272 194.801 282.299 194.748C282.351 194.67 282.299 194.486 282.272 194.381C282.246 194.276 282.22 194.224 282.246 194.145C282.272 194.066 282.299 194.014 282.377 193.988C282.483 193.935 282.667 193.988 282.903 194.119C282.956 194.145 283.008 194.171 283.061 194.119C283.14 194.066 283.192 193.935 283.166 193.725C283.113 193.411 282.64 192.912 282.456 192.755C282.404 192.702 282.404 192.624 282.456 192.571C282.509 192.519 282.588 192.519 282.64 192.571C282.719 192.65 283.376 193.227 283.429 193.725C283.455 194.014 283.376 194.25 283.192 194.381C283.061 194.46 282.903 194.46 282.745 194.381C282.614 194.302 282.535 194.276 282.483 194.276C282.483 194.302 282.509 194.329 282.509 194.355C282.561 194.512 282.614 194.748 282.509 194.932C282.456 195.011 282.377 195.063 282.272 195.089C282.246 195.037 282.22 195.037 282.167 195.063Z" fill="#6B3425"/>
<path d="M286.307 191.524C286.734 191.382 286.848 190.576 286.563 189.725C286.278 188.873 285.7 188.298 285.273 188.44C284.847 188.583 284.732 189.389 285.017 190.24C285.303 191.092 285.88 191.666 286.307 191.524Z" fill="#6B3425"/>
<path d="M287.266 185.755C287.029 185.493 286.53 185.152 285.978 185.02C285.374 184.889 285.006 185.125 284.743 185.152C284.48 185.178 284.506 184.837 284.664 184.574C284.822 184.312 285.374 184.155 286.215 184.286C287.056 184.417 287.45 184.863 287.66 185.125C287.844 185.414 287.581 186.122 287.266 185.755Z" fill="#6B3425"/>
<path d="M278.24 193.781C278.667 193.639 278.781 192.833 278.496 191.981C278.21 191.13 277.633 190.555 277.206 190.697C276.78 190.84 276.665 191.645 276.95 192.497C277.236 193.348 277.813 193.923 278.24 193.781Z" fill="#6B3425"/>
<path d="M277.358 187.904C277.017 187.826 276.386 187.826 275.834 188.062C275.256 188.298 275.046 188.717 274.862 188.901C274.678 189.085 274.467 188.796 274.441 188.455C274.415 188.114 274.783 187.668 275.571 187.301C276.36 186.907 276.964 187.039 277.306 187.17C277.647 187.248 277.831 188.009 277.358 187.904Z" fill="#6B3425"/>
<path d="M270.025 182.529C270.025 182.529 268.159 180.85 268.895 179.12C269.605 177.415 272.049 178.071 272.049 178.071C272.049 178.071 271.786 175.029 274.388 173.98C276.99 172.932 277.516 174.216 277.516 174.216C277.516 174.216 279.251 170.572 282.694 171.175C286.137 171.778 286.084 173.325 286.084 173.325C286.084 173.325 289.185 170.834 291.235 172.643C293.285 174.479 293.574 175.947 293.574 175.947C293.574 175.947 295.257 176.209 296.413 178.228C297.569 180.247 295.809 181.191 295.809 181.191C295.809 181.191 297.99 180.405 298.726 183.42C299.462 186.435 293.443 191.522 293.443 191.522C293.443 191.522 293.18 183.472 291.524 181.794C289.869 180.142 289.448 181.663 287.687 180.221C285.9 178.779 286.189 177.415 286.189 177.415C286.189 177.415 284.218 179.172 282.615 178.884C281.038 178.595 280.749 177.206 280.749 177.206C280.749 177.206 279.172 179.854 277.227 180.693C275.282 181.532 274.809 180.038 274.809 180.038C274.809 180.038 273.521 184.39 270.025 182.529Z" fill="#A84400"/>
<path d="M297.99 184.625C296.177 182.501 289.711 187.116 292.576 191.207C295.467 195.35 300.645 187.746 297.99 184.625Z" fill="#F69576"/>
<path d="M294.101 191.313C294.127 191.313 294.153 191.287 294.153 191.261C294.179 191.208 294.153 191.13 294.101 191.103C293.706 190.867 293.286 189.871 293.338 188.743C293.365 187.957 293.627 186.515 295.126 185.807C295.914 185.44 296.545 185.361 297.018 185.649C297.701 186.043 297.754 187.039 297.754 187.039C297.754 187.092 297.806 187.144 297.885 187.144C297.938 187.144 297.99 187.092 297.99 187.013C297.99 186.96 297.912 185.885 297.123 185.44C296.597 185.125 295.888 185.177 295.02 185.597C293.864 186.148 293.154 187.301 293.102 188.743C293.076 189.871 293.47 190.998 293.995 191.313C294.022 191.313 294.074 191.313 294.101 191.313Z" fill="#6B3425"/>
<path d="M296.543 190.027C296.596 190.001 296.622 189.975 296.622 189.922C296.622 189.817 296.78 187.562 294.835 185.753C294.782 185.701 294.73 185.701 294.677 185.753C294.625 185.806 294.625 185.858 294.677 185.911C296.543 187.641 296.386 189.87 296.386 189.896C296.386 189.949 296.438 190.001 296.491 190.027C296.517 190.053 296.517 190.053 296.543 190.027Z" fill="#6B3425"/>
</svg>
