<svg width="375" height="308" viewBox="0 0 375 308" fill="none" xmlns="http://www.w3.org/2000/svg">
<path d="M169.758 54.3854C187.92 57.8203 222.139 -12.2948 260.012 3.1756C297.886 18.646 270.052 68.4923 283.562 79.6625C297.071 90.8327 334.077 56.4568 349.636 92.5633C365.195 128.67 341.541 167.346 341.199 173.35C340.857 179.355 383.856 211.633 371.923 256.078C359.991 300.523 201.534 304.823 144.974 306.527C88.414 308.232 12.7993 308.101 1.65549 261.768C-9.48829 215.435 41.1318 175.081 45.8101 162.128C50.4884 149.175 8.14727 104.101 61.2379 48.6954C102.317 5.82393 151.597 50.9504 169.758 54.3854Z" fill="#9ECBDD"/>
<path d="M340.648 168.789H263.982V189.477H340.648V168.789Z" fill="#776B67"/>
<path d="M341.725 170.337H262.168V143.827H326.14L341.725 156.833V170.337Z" fill="#6B3425"/>
<path d="M306.48 189.477H263.981V162.128L285.218 144.927L306.48 162.128V189.477Z" fill="#776B67"/>
<path d="M312.867 130.113H306.48V144.928H312.867V130.113Z" fill="#A5713D"/>
<path d="M315.286 142.017H304.299V146.842H315.286V142.017Z" fill="#E7D0B0"/>
<path d="M284.114 157.094H281.591V163.361H284.114V157.094Z" fill="#417A8C"/>
<path d="M288.109 157.094H285.218V163.361H288.109V157.094Z" fill="#417A8C"/>
<path d="M274.599 172.748H271.104V173.954H274.599V172.748Z" fill="#417A8C"/>
<path d="M278.569 172.748H275.677V173.954H278.569V172.748Z" fill="#417A8C"/>
<path d="M274.599 174.793H271.104V182.502H274.599V174.793Z" fill="#417A8C"/>
<path d="M278.569 174.793H275.677V182.502H278.569V174.793Z" fill="#417A8C"/>
<path d="M314.444 173.954H310.581V176.733H314.444V173.954Z" fill="#417A8C"/>
<path d="M314.444 178.648H310.581V181.166H314.444V178.648Z" fill="#417A8C"/>
<path d="M314.444 182.501H310.581V185.019H314.444V182.501Z" fill="#417A8C"/>
<path d="M320.226 173.954H316.363V176.733H320.226V173.954Z" fill="#417A8C"/>
<path d="M320.226 178.648H316.363V181.166H320.226V178.648Z" fill="#417A8C"/>
<path d="M320.226 182.501H316.363V185.019H320.226V182.501Z" fill="#417A8C"/>
<path d="M326.034 173.954H322.17V176.733H326.034V173.954Z" fill="#417A8C"/>
<path d="M326.034 178.648H322.17V181.166H326.034V178.648Z" fill="#417A8C"/>
<path d="M326.034 182.501H322.17V185.019H326.034V182.501Z" fill="#417A8C"/>
<path d="M331.816 173.954H327.953V176.733H331.816V173.954Z" fill="#417A8C"/>
<path d="M331.816 178.648H327.953V181.166H331.816V178.648Z" fill="#417A8C"/>
<path d="M331.816 182.501H327.953V185.019H331.816V182.501Z" fill="#417A8C"/>
<path d="M337.626 173.954H333.762V176.733H337.626V173.954Z" fill="#417A8C"/>
<path d="M337.626 178.648H333.762V181.166H337.626V178.648Z" fill="#417A8C"/>
<path d="M337.626 182.501H333.762V185.019H337.626V182.501Z" fill="#417A8C"/>
<path d="M294.863 172.748H291.368V173.954H294.863V172.748Z" fill="#417A8C"/>
<path d="M298.858 172.748H295.967V173.954H298.858V172.748Z" fill="#417A8C"/>
<path d="M294.863 174.793H291.368V182.502H294.863V174.793Z" fill="#417A8C"/>
<path d="M298.858 174.793H295.967V182.502H298.858V174.793Z" fill="#417A8C"/>
<path d="M152.885 137.533H150.519V146.133H152.885V137.533Z" fill="#6B3425"/>
<path d="M201.454 167.451H140.847V146.134L171.15 138.923L201.454 146.134V167.451Z" fill="#E7D0B0"/>
<path d="M203.373 167.452H138.666V188.166H203.373V167.452Z" fill="#A5713D"/>
<path d="M152.202 152.531H148.812V160.843H152.202V152.531Z" fill="#417A8C"/>
<path d="M157.327 152.531H152.859V160.843H157.327V152.531Z" fill="#417A8C"/>
<path d="M171.046 152.531H167.655V160.843H171.046V152.531Z" fill="#417A8C"/>
<path d="M176.171 152.531H171.703V160.843H176.171V152.531Z" fill="#417A8C"/>
<path d="M188.418 152.531H185.027V160.843H188.418V152.531Z" fill="#417A8C"/>
<path d="M193.543 152.531H189.075V160.843H193.543V152.531Z" fill="#417A8C"/>
<path d="M152.202 169.863H148.812V178.175H152.202V169.863Z" fill="#417A8C"/>
<path d="M157.327 169.863H152.859V178.175H157.327V169.863Z" fill="#417A8C"/>
<path d="M171.046 169.863H167.655V178.175H171.046V169.863Z" fill="#417A8C"/>
<path d="M176.171 169.863H171.703V178.175H176.171V169.863Z" fill="#417A8C"/>
<path d="M188.418 169.863H185.027V178.175H188.418V169.863Z" fill="#417A8C"/>
<path d="M193.543 169.863H189.075V178.175H193.543V169.863Z" fill="#417A8C"/>
<path d="M1.70824 261.743C12.852 308.075 88.493 308.233 145.027 306.502C201.56 304.772 360.018 300.498 371.976 256.053C380.097 225.82 362.804 201.198 351.003 186.672H27.2285C12.1424 205.761 -5.33547 232.559 1.70824 261.743Z" fill="#776B67"/>
<path d="M12.5885 207.7C3.33707 223.564 -3.04958 242.128 1.68127 261.742C12.8251 308.074 88.4661 308.232 145 306.501C201.533 304.771 359.991 300.497 371.949 256.052C376.943 237.461 372.317 220.994 365.3 207.7H12.5885Z" fill="#8A9995"/>
<path d="M186.763 151.483C186.763 151.483 197.644 146.894 202.743 156.57C207.841 166.245 199.116 172.407 194.753 172.696C190.39 172.984 185.869 171.516 182.742 172.801C179.614 174.059 173.622 179.933 166.762 179.644C159.902 179.356 153.489 174.007 152.07 163.099C149.704 145.321 164.817 147.366 164.817 147.366C164.817 147.366 160.401 132.997 168.943 128.199C177.485 123.4 186.973 127.7 189.812 134.754C192.65 141.807 186.763 151.483 186.763 151.483Z" fill="#96C22F"/>
<path d="M178.747 139.737C178.747 139.737 179.141 149.124 177.564 151.851C175.987 154.578 173.543 157.121 173.753 157.724C173.937 158.301 182.374 174.663 184.818 180.511C187.262 186.358 186.789 188.22 186.185 189.504C185.607 190.763 185.791 200.439 185.791 200.439H179.43C179.43 200.439 179.509 193.516 180.192 190.658C180.902 187.826 181.769 187.826 181.48 186.463C181.191 185.099 170.205 159.376 171.178 157.017C172.15 154.657 175.383 154.001 176.276 150.776C177.17 147.577 178.747 139.737 178.747 139.737Z" fill="#6B3425"/>
<path d="M190.601 160.477C190.601 160.477 185.003 165.668 183.636 167.897C182.269 170.126 180.167 174.243 180.167 174.243L182.164 177.179C182.164 177.179 184.188 169.942 185.397 168.29C186.606 166.639 190.601 160.477 190.601 160.477Z" fill="#6B3425"/>
<path d="M157.562 159.794C157.562 159.794 163.345 163.308 167.156 164.2C170.967 165.091 175.487 165.773 175.487 165.773L176.67 168.841C176.67 168.841 158.246 164.383 157.562 159.794Z" fill="#6B3425"/>
<path d="M233.258 120.829C233.258 120.829 229.998 114.536 237.41 113.828C236.648 108.82 243.902 101.269 256.491 104.494C258.62 99.0398 270.631 89.4166 278.989 101.137C294.916 94.4773 297.177 104.074 295.048 105.805C307.4 103.576 305.219 112.019 303.143 112.963C319.49 109.476 317.23 120.829 317.23 120.829H233.258Z" fill="white"/>
<path d="M50.4878 116.242C50.4878 116.242 49.1211 112.755 52.2224 112.361C51.9071 109.608 54.9295 105.413 60.186 107.196C61.0797 104.18 66.0996 98.8573 69.5689 105.334C76.2184 101.637 77.1645 106.96 76.2709 107.904C81.4223 106.671 80.5287 111.339 79.6351 111.863C86.4685 109.923 85.5224 116.216 85.5224 116.216H50.4878V116.242Z" fill="white"/>
<path d="M242.535 193.909H231.102V200.464H242.535V193.909Z" fill="#6B3425"/>
<path d="M253.627 179.12H268.135L263.877 161.001L253.627 157.147H262.957L261.853 152.479L245.348 151.221L260.828 148.1L258.647 138.818L245.348 134.649C245.348 134.649 252.602 134.229 257.49 133.967L250.867 105.779L240.039 104.835L250.368 103.682L236.806 45.8643L228.79 80.0041H233.757L228.08 83.0195L225.531 93.8488H234.782L225.005 96.1825L224.111 99.9583H229.289L223.691 101.768L218.329 124.527L231.129 127.228L217.041 130.086L212.731 148.389H226.03L211.391 154.052L206.949 172.984C213.966 174.007 224.19 175.449 224.19 175.449L205.766 178.018L202.034 193.908H271.656L269.58 185.072L253.627 179.12Z" fill="#7EA21A"/>
<path d="M68.4766 192.898L74.6267 192.898L74.6267 189.359L68.4766 189.359L68.4766 192.898Z" fill="#6B3425"/>
<path d="M62.4738 181.401H54.6679L56.9545 171.647L62.4738 169.576H57.4539L58.0321 167.058L66.9156 166.377L58.584 164.698L59.7667 159.69L66.9156 157.435C66.9156 157.435 62.9995 157.199 60.3712 157.068L63.9457 141.886L69.7804 141.388L64.2348 140.759L71.5676 109.608L75.9042 127.989H73.2234L76.2722 129.615L77.6388 135.436H72.6715L77.9542 136.694L78.4273 138.74H75.6414L78.6639 139.71L81.5549 151.955L74.6689 153.397L82.2646 154.944L84.5774 164.803H77.4286L85.3133 167.845L87.705 178.045C83.9204 178.596 78.4273 179.382 78.4273 179.382L88.3621 180.772L90.3859 189.32H52.8019L53.932 184.548L62.4738 181.401Z" fill="#7EA21A"/>
<path d="M250.893 55.3309C250.893 55.3309 256.99 51.4764 263.85 55.8553C268.449 58.7921 269.001 69.1232 267.293 72.663C265.585 76.1766 257.752 82.6008 257.752 82.6008C257.752 82.6008 228.395 61.2831 250.893 55.3309Z" fill="#A5713D"/>
<path d="M231.312 116.242L231.233 131.371C231.233 131.371 213.098 131.581 211.942 131.293C210.786 131.004 204.925 126.363 204.32 126.127C203.716 125.865 203.137 126.127 203.374 126.835C203.61 127.543 204.504 129.772 204.504 129.772C204.504 129.772 200.062 129.274 199.668 129.038C199.274 128.802 196.593 126.73 196.041 126.573C195.489 126.389 194.569 126.756 194.806 127.333C195.042 127.91 197.565 131.135 197.565 131.135C197.565 131.135 197.066 134.596 198.38 135.855C199.694 137.14 205.844 138.163 208.841 138.346C211.837 138.53 234.519 141.44 236.411 141.335C238.303 141.23 241.063 140.654 242.035 136.615C243.008 132.551 243.323 117.002 243.323 117.002L231.312 116.242Z" fill="#DD866F"/>
<path d="M265.795 259.251V283.086H285.717C285.717 283.086 288.556 278.314 285.717 277.029C282.879 275.718 273.627 271.182 273.627 271.182L273.995 259.277H265.795V259.251Z" fill="#F69576"/>
<path d="M265.795 271.155V283.06H285.717C285.717 283.06 288.556 278.287 285.717 277.003C282.879 275.692 273.627 271.155 273.627 271.155H265.795Z" fill="#032240"/>
<path d="M265.795 280.673V283.087H285.717C285.717 283.087 286.374 281.985 286.742 280.673H265.795Z" fill="#BFBFBF"/>
<path d="M249.42 259.252L249.604 271.156C249.604 271.156 239.17 273.123 236.384 273.962C233.046 274.984 229.182 275.902 228.63 279.154C228.157 281.959 228.63 283.061 228.63 283.061H260.932L257.41 259.226H249.42V259.252Z" fill="#F69576"/>
<path d="M249.604 271.155C249.604 271.155 239.17 273.122 236.384 273.961C233.046 274.984 229.182 275.901 228.63 279.153C228.157 281.958 228.63 283.06 228.63 283.06H260.932L259.696 271.155H249.604Z" fill="#BFBFBF"/>
<path d="M228.632 279.179C228.527 279.756 228.474 280.254 228.448 280.674H260.696L259.698 271.155H249.605C249.605 271.155 239.171 273.122 236.385 273.961C233.047 275.01 229.184 275.928 228.632 279.179Z" fill="#032240"/>
<path d="M130.152 105.963L149.049 115.849C149.049 115.849 168.077 111.784 169.129 111.312C170.18 110.84 174.937 105.465 175.489 105.124C176.015 104.783 176.619 104.914 176.514 105.622C176.409 106.33 175.936 108.585 175.936 108.585C175.936 108.585 180.062 107.353 180.404 107.065C180.746 106.776 182.927 104.364 183.4 104.128C183.9 103.866 184.846 104.049 184.714 104.626C184.583 105.203 182.743 108.69 182.743 108.69C182.743 108.69 183.821 111.889 182.769 113.305C181.744 114.721 176.094 116.74 173.281 117.448C170.469 118.13 149.469 124.685 147.656 124.921C145.842 125.157 144.318 124.161 140.665 122.456C134.567 119.624 123.502 112.728 123.502 112.728L130.152 105.963Z" fill="#DD866F"/>
<path d="M109.757 93.534C113.594 92.6163 122.504 91.4363 125.894 95.8152C129.285 100.194 129.915 104.442 129.915 104.442C129.915 104.442 133.595 105.412 134.015 106.749C134.41 108.087 128.154 115.35 126.262 114.878C124.37 114.406 107.891 103.97 107.891 103.97L109.757 93.534Z" fill="#FFE051"/>
<path d="M116.852 61.5434C121.426 64.5326 119.165 77.0663 122.74 81.2354C117.01 81.9696 83.5788 87.7645 83.5788 87.7645C83.5788 87.7645 78.5851 73.1856 81.7127 67.6791C84.8666 62.1727 109.204 56.509 116.852 61.5434Z" fill="#DBAC73"/>
<path d="M121.818 106.093C123.606 107.667 124.368 113.907 123.054 115.69C119.164 120.908 131.517 137.218 131.517 137.218L100.556 138.66C101.187 127.883 98.3744 116.634 93.7224 114.484C87.7825 111.731 98.8212 98.6467 98.8212 98.6467L110.99 97.0996C110.99 97.0996 117.85 102.606 121.818 106.093Z" fill="#FFE051"/>
<path d="M102.79 113.331C104.517 113.331 105.917 111.934 105.917 110.211C105.917 108.487 104.517 107.09 102.79 107.09C101.063 107.09 99.6622 108.487 99.6622 110.211C99.6622 111.934 101.063 113.331 102.79 113.331Z" fill="white"/>
<path d="M111.464 121.014C113.192 121.014 114.592 119.617 114.592 117.893C114.592 116.17 113.192 114.773 111.464 114.773C109.737 114.773 108.337 116.17 108.337 117.893C108.337 119.617 109.737 121.014 111.464 121.014Z" fill="white"/>
<path d="M119.612 128.329C121.339 128.329 122.739 126.932 122.739 125.209C122.739 123.486 121.339 122.089 119.612 122.089C117.885 122.089 116.484 123.486 116.484 125.209C116.484 126.932 117.885 128.329 119.612 128.329Z" fill="white"/>
<path d="M102.79 124.055C104.517 124.055 105.917 122.658 105.917 120.935C105.917 119.211 104.517 117.814 102.79 117.814C101.063 117.814 99.6622 119.211 99.6622 120.935C99.6622 122.658 101.063 124.055 102.79 124.055Z" fill="white"/>
<path d="M109.623 134.571C111.351 134.571 112.751 133.174 112.751 131.451C112.751 129.728 111.351 128.331 109.623 128.331C107.896 128.331 106.496 129.728 106.496 131.451C106.496 133.174 107.896 134.571 109.623 134.571Z" fill="white"/>
<path d="M113.724 109.635C115.451 109.635 116.851 108.238 116.851 106.514C116.851 104.791 115.451 103.394 113.724 103.394C111.996 103.394 110.596 104.791 110.596 106.514C110.596 108.238 111.996 109.635 113.724 109.635Z" fill="white"/>
<path d="M128.968 136.774C128.968 136.774 133.094 142.831 135.644 156.702C138.193 170.573 136.59 192.52 135.644 196.82C134.697 201.12 124.526 256.342 125.157 258.125C125.788 259.882 135.644 266.201 135.644 266.201H116.562C116.562 266.201 113.119 228.364 113.566 221.809C114.013 215.254 119.112 205.919 119.112 205.919L101.319 141.599L128.968 136.774Z" fill="#F69576"/>
<path d="M127.392 139.316C127.392 139.316 119.507 174.871 113.593 189.765C107.68 204.659 104.815 207.936 104.815 207.936C104.815 207.936 96.2206 229.385 93.6975 237.697C91.1744 246.009 90.5173 255.344 89.2558 259.382C87.9942 263.42 77.8491 276.137 75.3523 273.174C71.9619 269.136 74.6427 263.918 76.2196 262.161C77.7966 260.405 82.58 256.865 82.58 256.865C82.58 256.865 81.6338 225.321 83.2108 218.53C84.7877 211.712 92.4359 204.921 92.7513 202.902C93.0667 200.883 94.5911 149.935 96.6937 145.635C98.77 141.335 106.418 133.495 127.392 139.316Z" fill="#F69576"/>
<path d="M130.834 135.515C130.834 135.515 135.328 146.554 138.509 156.728C141.689 166.902 140.743 201.173 140.743 201.173L101.319 202.615V179.96L96.6668 202.615H88.2827C88.2827 202.615 88.9135 155.548 92.7245 146.843C96.5354 138.137 101.345 136.957 101.345 136.957L130.834 135.515Z" fill="black"/>
<path d="M116.484 100.221C118.212 100.221 119.612 98.8236 119.612 97.1003C119.612 95.377 118.212 93.98 116.484 93.98C114.757 93.98 113.357 95.377 113.357 97.1003C113.357 98.8236 114.757 100.221 116.484 100.221Z" fill="white"/>
<path d="M124.475 111.311C126.202 111.311 127.602 109.914 127.602 108.191C127.602 106.468 126.202 105.071 124.475 105.071C122.747 105.071 121.347 106.468 121.347 108.191C121.347 109.914 122.747 111.311 124.475 111.311Z" fill="white"/>
<path d="M89.6494 257.836C89.6494 257.836 89.2551 261.979 89.0449 262.739C88.8346 263.5 81.5281 272.913 79.8197 273.831C78.9524 274.303 74.7998 275.483 74.4055 275.351C72.9074 274.853 72.1452 268.246 73.144 266.095C76.0088 259.96 82.5794 256.839 82.5794 256.839C82.5794 256.839 76.5344 262.556 76.3241 264.312C76.1139 266.069 75.7722 269.845 78.3479 270.107C80.8973 270.396 89.6494 257.836 89.6494 257.836Z" fill="#512176"/>
<path d="M116.063 260.457C116.063 260.457 114.985 262.24 114.985 264.6C114.985 266.96 116.142 268.035 118.27 268.297C120.399 268.559 124.315 267.956 125.472 268.297C126.628 268.638 125.997 270.054 128.862 270.159C131.727 270.237 141.583 270.316 142.004 270.159C142.424 270.002 141.688 267.642 140.742 266.96C139.796 266.278 133.987 265.124 133.987 265.124C133.987 265.124 128.652 266.121 124.315 264.102C119.979 262.083 116.063 260.457 116.063 260.457Z" fill="#512176"/>
<path d="M120.715 267.197L120.084 270.238H117.219L115.826 266.2L120.715 267.197Z" fill="#7D009B"/>
<path d="M109.809 84.5405L112.437 101.374H96.5365C96.5365 101.374 97.2987 94.6881 98.1923 90.3354C99.0859 86.0089 99.8481 84.5405 99.8481 84.5405H109.809Z" fill="#F69576"/>
<path d="M98.4454 95.0615C98.4953 94.5714 98.1377 94.1338 97.6467 94.084C97.1557 94.0343 96.7172 94.3912 96.6673 94.8812C96.6174 95.3713 96.9749 95.8089 97.466 95.8587C97.957 95.9085 98.3955 95.5515 98.4454 95.0615Z" fill="#512176"/>
<path d="M99.9891 95.9326C100.039 95.4425 99.6814 95.0049 99.1904 94.9551C98.6994 94.9054 98.2609 95.2623 98.211 95.7523C98.1611 96.2424 98.5187 96.68 99.0097 96.7298C99.5007 96.7796 99.9392 96.4226 99.9891 95.9326Z" fill="#512176"/>
<path d="M101.495 96.8208C101.545 96.3307 101.187 95.8931 100.696 95.8433C100.205 95.7935 99.7665 96.1504 99.7166 96.6405C99.6667 97.1306 100.024 97.5682 100.515 97.618C101.006 97.6677 101.445 97.3108 101.495 96.8208Z" fill="#512176"/>
<path d="M102.497 98.1057C102.983 98.02 103.307 97.5574 103.221 97.0724C103.135 96.5873 102.672 96.2636 102.186 96.3493C101.7 96.4349 101.375 96.8976 101.461 97.3826C101.547 97.8676 102.011 98.1914 102.497 98.1057Z" fill="#512176"/>
<path d="M104.973 97.7065C105.023 97.2165 104.665 96.7788 104.174 96.7291C103.683 96.6793 103.245 97.0362 103.195 97.5263C103.145 98.0163 103.502 98.4539 103.993 98.5037C104.484 98.5535 104.923 98.1966 104.973 97.7065Z" fill="#512176"/>
<path d="M106.812 97.709C106.862 97.2189 106.504 96.7813 106.013 96.7315C105.522 96.6817 105.084 97.0386 105.034 97.5287C104.984 98.0187 105.341 98.4564 105.832 98.5061C106.323 98.5559 106.762 98.199 106.812 97.709Z" fill="#512176"/>
<path d="M107.943 98.4848C108.418 98.3525 108.696 97.8607 108.563 97.3863C108.431 96.9118 107.938 96.6345 107.462 96.7668C106.987 96.8991 106.709 97.3909 106.842 97.8654C106.975 98.3398 107.467 98.6172 107.943 98.4848Z" fill="#512176"/>
<path d="M110.4 97.3081C110.45 96.818 110.093 96.3804 109.602 96.3306C109.111 96.2808 108.672 96.6378 108.622 97.1278C108.572 97.6179 108.93 98.0555 109.421 98.1053C109.912 98.155 110.351 97.7981 110.4 97.3081Z" fill="#512176"/>
<path d="M112.05 96.6235C112.1 96.1335 111.743 95.6958 111.252 95.646C110.761 95.5963 110.322 95.9532 110.272 96.4432C110.222 96.9333 110.58 97.3709 111.071 97.4207C111.562 97.4705 112 97.1136 112.05 96.6235Z" fill="#512176"/>
<path d="M102.895 89.1286C102.895 89.1286 102.764 92.2227 104.814 93.5862C106.864 94.9497 111.437 94.9759 111.437 94.9759L109.807 84.5661H103.105C103.105 84.5399 102.632 87.162 102.895 89.1286Z" fill="#DD866F"/>
<path d="M112.095 64.1397C112.095 64.1397 114.118 65.7917 114.986 69.4626C115.669 72.2945 115.511 75.3099 115.853 77.0143C116.195 78.7187 116.773 81.4194 116.3 83.7793C115.827 86.1392 113.724 89.3644 109.808 90.4657C105.892 91.567 102.712 90.7804 100.557 88.0534C98.4015 85.3526 95.747 80.5017 94.9585 77.1192C94.1701 73.7629 93.7233 67.3912 97.324 64.5855C101.923 61.0194 107.39 60.9932 112.095 64.1397Z" fill="#F69576"/>
<path d="M108.337 80.6091C108.231 80.6091 108.126 80.5829 108.074 80.5304C107.916 80.3993 107.89 80.137 107.89 79.9796C107.89 79.9533 107.89 79.9271 107.89 79.9009C107.863 79.9271 107.785 79.9796 107.68 80.0845C107.574 80.2156 107.417 80.2681 107.259 80.2156C107.049 80.1632 106.891 79.9533 106.838 79.6648C106.733 79.1926 107.18 78.4057 107.233 78.327C107.259 78.2745 107.338 78.2483 107.417 78.2745C107.469 78.3007 107.496 78.3794 107.469 78.4581C107.338 78.668 107.049 79.2975 107.101 79.6123C107.154 79.8222 107.259 79.9271 107.338 79.9533C107.417 79.9796 107.469 79.9271 107.496 79.9009C107.68 79.691 107.837 79.6123 107.942 79.6123C108.021 79.6123 108.074 79.6648 108.1 79.7172C108.126 79.7697 108.126 79.8484 108.153 79.9533C108.153 80.0845 108.153 80.2419 108.231 80.3206C108.258 80.3468 108.337 80.3468 108.415 80.3468C108.599 80.3206 108.626 80.1894 108.599 79.8746C108.599 79.7435 108.599 79.6123 108.678 79.5599C108.705 79.5336 108.757 79.5074 108.81 79.5074C108.915 79.5074 108.994 79.5861 109.072 79.6385C109.23 79.7697 109.309 79.7959 109.414 79.691C109.467 79.6385 109.493 79.5336 109.493 79.4025C109.467 79.009 109.204 78.4844 109.02 78.3532C108.967 78.3007 108.941 78.222 108.994 78.1696C109.046 78.1171 109.125 78.0909 109.178 78.1433C109.44 78.3532 109.73 78.9565 109.756 79.4025C109.756 79.6385 109.73 79.7959 109.598 79.9009C109.309 80.1632 109.072 79.9796 108.915 79.8746C108.888 79.8484 108.862 79.8484 108.862 79.8222C108.862 79.8484 108.862 79.8746 108.862 79.8746C108.862 80.1107 108.889 80.5304 108.442 80.6091C108.415 80.5829 108.363 80.6091 108.337 80.6091Z" fill="#6B3425"/>
<path d="M88.9662 74.6819C90.1752 71.6927 98.9535 74.3935 97.324 79.8999C95.6682 85.5374 87.2052 79.087 88.9662 74.6819Z" fill="#F69576"/>
<path d="M95.6953 80.607C95.669 80.607 95.6427 80.607 95.6164 80.5808C95.5639 80.5284 95.5639 80.4497 95.6164 80.3973C95.9844 80.0039 96.0632 78.7453 95.5902 77.5392C95.2748 76.6739 94.46 75.2055 92.5677 74.9695C91.5427 74.8384 90.833 75.0219 90.4388 75.4677C89.8343 76.1495 90.1234 77.2507 90.1234 77.277C90.1497 77.3556 90.0971 77.4081 90.0183 77.4343C89.9394 77.4605 89.8869 77.4081 89.8606 77.3294C89.8343 77.277 89.5452 76.0708 90.2285 75.2842C90.7016 74.7597 91.4901 74.55 92.594 74.6811C94.0921 74.8646 95.2748 75.861 95.853 77.4343C96.2998 78.6667 96.2998 80.0564 95.8267 80.5808C95.7741 80.5808 95.7479 80.607 95.6953 80.607Z" fill="#6B3425"/>
<path d="M92.5411 80.1084C92.4885 80.1084 92.436 80.0822 92.4097 80.0297C92.3571 79.9249 91.3847 77.5125 92.8302 74.8118C92.8565 74.7593 92.9353 74.7331 93.0142 74.7593C93.0668 74.7855 93.093 74.8642 93.0668 74.9429C91.6738 77.5387 92.6462 79.9249 92.6462 79.9249C92.6725 80.0035 92.6462 80.056 92.5674 80.1084C92.5937 80.1084 92.5674 80.1084 92.5411 80.1084Z" fill="#6B3425"/>
<path d="M104.079 78.0383C104.34 78.0383 104.552 77.6038 104.552 77.0677C104.552 76.5317 104.34 76.0972 104.079 76.0972C103.817 76.0972 103.605 76.5317 103.605 77.0677C103.605 77.6038 103.817 78.0383 104.079 78.0383Z" fill="#6B3425"/>
<path d="M101.057 73.6332C101.425 73.4495 102.213 73.2397 103.002 73.1872C103.869 73.1348 104.395 73.3446 104.737 73.3971C105.078 73.4496 105.131 73.1872 104.947 72.9511C104.763 72.7151 104.027 72.5577 102.818 72.5839C101.609 72.6101 100.952 72.8987 100.636 73.1085C100.321 73.3184 100.531 73.8693 101.057 73.6332Z" fill="#6B3425"/>
<path d="M111.517 77.803C111.778 77.803 111.99 77.3684 111.99 76.8324C111.99 76.2964 111.778 75.8618 111.517 75.8618C111.256 75.8618 111.044 76.2964 111.044 76.8324C111.044 77.3684 111.256 77.803 111.517 77.803Z" fill="#6B3425"/>
<path d="M109.73 73.2919C110.098 73.1082 110.887 72.8984 111.675 72.8459C112.542 72.7935 113.042 73.0033 113.41 73.0558C113.751 73.1082 113.804 72.8459 113.62 72.6098C113.436 72.3738 112.7 72.2164 111.491 72.2426C110.282 72.2688 109.625 72.5574 109.31 72.7672C108.994 72.9771 109.231 73.5279 109.73 73.2919Z" fill="#6B3425"/>
<path d="M100.976 72.5084C117.036 67.9669 129.221 61.3487 128.192 57.7263C127.162 54.1038 113.309 54.8487 97.2487 59.3902C81.1886 63.9317 69.0036 70.5499 70.0328 74.1724C71.062 77.7949 84.9155 77.0499 100.976 72.5084Z" fill="#E7D0B0"/>
<path d="M80.6085 67.5235C80.6085 67.5235 82.422 57.8217 84.3144 55.5929C86.2067 53.3641 105.813 49.2212 107.101 49.6145C108.389 50.0078 118.718 57.8741 118.718 57.8741L80.6085 67.5235Z" fill="#E7D0B0"/>
<path d="M79.5316 59.6052C79.5316 59.6052 80.2149 58.9496 80.5829 58.7923C80.9508 58.635 81.5291 57.5337 81.5291 57.5337C81.5291 57.5337 81.6868 58.2154 81.9759 58.2941C82.265 58.3728 82.8957 58.4514 82.9746 58.5563C83.0534 58.6612 83.1586 58.8185 83.1586 58.8185C83.1586 58.8185 83.474 58.6088 83.6579 58.4776C83.8419 58.3465 83.8945 58.1892 83.8945 58.1892C83.8945 58.1892 83.9996 58.7399 84.315 58.9234C84.6041 59.107 85.1298 59.4478 85.1298 59.6052C85.1298 59.7625 85.7343 59.8936 86.2599 60.0247C86.7856 60.1558 87.0747 59.9198 87.4163 59.7887C87.7843 59.6838 87.9157 59.7625 87.9157 59.7625C87.9157 59.7625 87.7317 59.9723 87.8631 60.2082C88.0208 60.4442 88.4151 61.2046 88.3099 62.0962C88.2048 62.9615 87.3901 63.5121 87.3901 63.5121C87.3901 63.5121 88.4939 63.7743 88.8093 64.0627C89.1247 64.3512 89.2561 64.5085 89.5452 65.0591C89.8343 65.6098 89.8606 65.9507 89.808 66.3964C89.7555 66.8422 89.7818 66.9995 89.5452 67.1044C89.3087 67.2355 88.5202 67.5501 88.1522 67.9697C87.758 68.3892 87.5215 68.4941 87.5215 68.4941L87.1798 68.4679C87.1798 68.4679 86.8907 68.8874 86.9695 69.3594C87.0747 69.8314 87.101 70.3296 87.0221 70.618C86.9433 70.9327 86.6541 71.09 86.3388 71.09C86.0234 71.09 85.5766 71.0113 85.5766 71.0113C85.5766 71.0113 85.1823 71.4833 84.8407 71.5882C84.4727 71.6931 84.2099 72.0339 84.2099 72.0339C84.2099 72.0339 84.0259 71.8242 83.5528 71.9553C83.0797 72.0864 82.6855 72.0864 82.4227 71.8504C82.1598 71.6144 81.4502 70.618 81.2137 70.4869C80.9771 70.382 80.9771 70.0411 80.9771 69.7527C80.9771 69.4643 80.6092 68.6252 80.6092 68.6252C80.6092 68.6252 80.3201 68.8612 79.9784 68.7039C79.6104 68.5465 79.5579 68.363 79.295 68.4154C79.0322 68.4417 78.7957 68.363 78.1649 68.2319C77.5341 68.1008 76.7982 67.9172 76.5617 67.5764C76.3251 67.2355 76.5091 65.8195 76.2726 65.872C76.036 65.8982 75.852 66.0031 75.6681 65.8982C75.4841 65.7933 75.4841 64.9543 75.6155 64.9018C75.7732 64.8231 76.1149 64.8494 76.1149 64.8494C76.1149 64.8494 75.6418 64.692 75.5892 64.4298C75.5366 64.1676 75.5629 63.8268 75.6681 63.7481C75.7732 63.6694 76.5091 63.0139 76.5091 63.0139C76.5091 63.0139 76.036 62.6992 75.8783 62.6992C75.7206 62.6992 75.4315 62.7779 75.4315 62.7779C75.4315 62.7779 76.7456 61.8077 77.0348 61.7553C77.3239 61.7291 77.7181 61.7553 77.7181 61.7553C77.7181 61.7553 77.4027 61.4406 77.5604 60.9949C77.7181 60.5491 77.7707 60.1558 77.7707 60.1558C77.7707 60.1558 78.6905 60.1034 78.822 60.0771C78.9271 60.0509 79.0585 59.8936 79.0585 59.8936L78.9008 59.2381L79.5316 59.6052Z" fill="#512176"/>
<path d="M81.8718 60.0509C81.8718 60.0509 81.4776 59.7625 81.1096 59.7363C80.7417 59.7101 79.9795 59.8412 79.9795 59.8412L78.8493 59.2905C78.8493 59.2905 79.0596 60.0509 78.9808 60.2083C78.9019 60.3656 78.7705 60.8376 78.9019 61.0473C79.0333 61.2571 79.007 61.7553 79.0596 62.0175C79.1122 62.2797 79.0859 62.5682 79.375 62.8042C79.6641 63.0401 79.7692 63.4335 79.9532 63.6694C80.1372 63.8792 79.9532 64.0365 80.5051 64.2725C81.0571 64.5085 81.3988 64.7445 81.3988 64.7445C81.3988 64.7445 80.5051 64.0365 80.3475 63.5908C80.1898 63.145 79.7955 62.7255 79.559 62.4633C79.2962 62.1748 79.4801 61.834 79.3487 61.3882C79.2173 60.9425 79.4276 60.1034 79.4276 60.1034C79.4276 60.1034 79.8218 60.2345 80.3212 60.2345C80.8205 60.2345 81.8718 60.0509 81.8718 60.0509Z" fill="#7D009B"/>
<path d="M81.5822 65.3744C81.5822 65.3744 82.1341 66.8428 82.5284 67.1312C82.9226 67.4196 83.2117 67.5507 83.6848 67.6556C84.1579 67.7605 84.9726 67.6818 85.0252 67.5245C85.0778 67.3934 84.8412 66.9739 84.8412 66.9739C84.8412 66.9739 85.472 67.2885 85.3931 67.5507C85.3143 67.7867 85.2617 68.0489 84.7624 68.0227C84.2893 67.9965 83.895 68.0227 83.1328 67.8654C82.3707 67.7081 82.3444 67.7343 82.1341 67.3672C81.9239 67.0001 81.4508 65.7415 81.4508 65.7415C81.4508 65.7415 80.82 66.2397 80.4257 66.1872C80.0315 66.1086 80.1892 66.0037 79.7424 65.7415C79.2956 65.5055 78.8751 65.5841 78.7437 65.2957C78.6123 65.0073 79.2168 64.5615 79.2168 64.5615C79.2168 64.5615 78.9802 64.9811 79.1905 65.0597C79.4007 65.1384 79.5847 65.1384 79.7687 65.3219C79.9527 65.5055 79.9527 65.7677 80.3732 65.689C80.7937 65.6104 81.5822 65.3744 81.5822 65.3744Z" fill="#7D009B"/>
<path d="M84.6829 61.7558C84.6829 61.7558 84.8406 62.4115 84.4989 62.464C84.1572 62.5165 83.3162 63.0149 83.3162 63.0149C83.3162 63.0149 82.738 62.805 83.0534 62.3066C83.3688 61.8082 83.6316 61.7295 83.9733 61.6771C84.3149 61.6508 84.6829 61.7558 84.6829 61.7558Z" fill="#7D009B"/>
<path d="M85.1833 61.2037C85.1833 61.2037 85.7878 60.7317 86.0506 60.8629C86.3134 60.994 86.5237 61.4659 86.8653 61.5184C87.207 61.5708 87.1807 61.5184 87.391 61.8068C87.6013 62.0952 87.7589 62.8032 87.7589 62.8032L86.5237 63.7472C86.5237 63.7472 87.5224 63.013 87.4961 62.7245C87.4698 62.4361 87.3647 62.1477 86.9968 61.9641C86.6551 61.7544 86.0769 61.5184 86.0243 61.3348C85.9717 61.1513 85.157 61.597 85.157 61.597L85.1833 61.2037Z" fill="#7D009B"/>
<path d="M84.2628 67.8134C84.2628 67.8134 84.3942 68.1544 84.7885 68.2856C85.1827 68.4168 85.3667 68.5741 85.7872 68.7053C86.2077 68.8365 87.4693 68.5217 87.4693 68.5217L86.9173 69.0201C86.9173 69.0201 86.3654 69.2037 85.7609 69.125C85.1564 69.0463 85.1564 68.8889 84.7096 68.7053C84.2628 68.5217 84.2102 68.6528 83.8948 68.3381C83.5795 68.0233 83.5006 67.7085 83.5006 67.7085L84.2628 67.8134Z" fill="#7D009B"/>
<path d="M80.5575 68.7055C80.5575 68.7055 80.8729 68.3645 81.2408 68.4694C81.6088 68.5743 81.8979 68.7055 82.187 68.7317C82.4498 68.758 82.6864 68.6268 82.6601 68.3907C82.6338 68.1546 82.4761 67.3677 82.4761 67.3677L82.7652 67.5513C82.7652 67.5513 83.1332 68.2596 83.028 68.5481C82.9229 68.8629 82.8178 69.1777 82.4761 69.1777C82.1344 69.1777 80.6889 68.994 80.6889 68.994L80.5575 68.7055Z" fill="#7D009B"/>
<path d="M77.6662 61.8068C77.6662 61.8068 78.7438 61.492 78.8752 61.5707C79.0066 61.6494 79.5323 62.4888 79.5323 62.4888L79.8477 63.0922C79.8477 63.0922 79.2957 63.1184 78.6912 63.0922C78.0867 63.0659 76.8777 63.2758 76.8777 63.2758H76.2469L76.4835 63.0659C76.4835 63.0659 77.6925 62.9348 78.0867 62.9086C78.481 62.8823 79.4009 62.8299 79.4009 62.8299L78.7701 61.9117L77.6399 61.938L77.6662 61.8068Z" fill="#7D009B"/>
<path d="M83.9211 63.5376C83.9211 63.5376 85.4192 63.5376 85.9186 63.8522C86.418 64.1669 88.1263 66.0548 88.1263 66.0548L88.2578 67.2085C88.2578 67.2085 87.8372 66.1073 87.443 65.8188C87.0488 65.5304 86.0763 64.6651 85.7346 64.4291C85.393 64.1931 84 64.4029 84 64.4029L83.9211 63.5376Z" fill="#7D009B"/>
<path d="M82.3167 63.38C82.3167 63.38 81.4493 61.6232 81.7647 60.9677C82.1064 60.3122 83.8936 59.814 83.8936 59.814C83.8936 59.814 85.1552 61.4921 84.9186 61.7805C84.6821 62.069 84.025 62.3574 84.025 62.3574C84.025 62.3574 84.4718 61.597 84.3141 61.2299C84.1302 60.8628 83.841 60.2859 83.841 60.2859C83.841 60.2859 82.3955 60.8628 82.2378 61.2037C82.0801 61.5708 82.7372 62.9081 82.7372 62.9081L82.3167 63.38Z" fill="#7D009B"/>
<path d="M84.4736 62.9876C84.4736 62.9876 84.3422 64.9542 84.0005 65.0329C83.6851 65.1115 81.6877 65.2426 81.6877 65.2426C81.6877 65.2426 80.8203 63.3547 80.978 63.2498C81.1357 63.1449 82.3184 62.2534 82.3184 62.2534L82.3973 62.5943C82.3973 62.5943 81.2934 63.1974 81.346 63.4596C81.3985 63.7218 81.8453 64.7969 81.8453 64.7969L83.8165 64.4822V62.3583L84.4736 62.9876Z" fill="#7D009B"/>
<path d="M113.173 72.3741C110.808 72.8723 108.994 74.2358 108.994 74.2358C108.994 74.2358 108.994 74.2358 108.994 74.262C108.863 74.1309 108.679 73.9998 108.521 73.9998C108.232 73.9998 107.864 74.0522 107.706 74.0522C107.549 74.0522 107.181 74.0785 106.892 74.1047C106.708 74.1309 106.576 74.2882 106.445 74.4456C106.445 74.4193 106.419 74.4193 106.419 74.4193C106.419 74.4193 103.028 73.4754 100.636 73.318C98.2185 73.1869 95.9845 74.3669 95.9845 74.3669L96.0896 75.8353C96.0896 75.8353 96.4313 76.3859 96.6153 76.8579C96.7993 77.3299 96.9044 79.0342 98.6916 80.5288C100.479 82.0234 103.081 81.6563 104.737 80.9222C106.392 80.188 106.918 77.5921 106.865 76.4121C106.865 76.3859 106.865 76.3597 106.865 76.3073C106.655 76.2286 106.497 76.0188 106.497 75.7566C106.471 75.4157 106.708 75.1011 107.049 75.0749L108.416 74.97C108.548 74.97 108.679 74.9962 108.784 75.0749H108.837C108.837 75.1011 108.837 75.1011 108.837 75.1273C108.968 75.2322 109.047 75.3895 109.073 75.5731C109.099 75.7828 108.994 75.9926 108.863 76.1237C108.863 76.1761 108.863 76.2024 108.889 76.2548C109.021 77.4348 109.941 79.9258 111.675 80.3977C113.41 80.8697 114.698 80.9222 116.222 79.1916C117.746 77.461 117.589 75.7566 117.694 75.2584C117.799 74.7602 118.062 74.1571 118.062 74.1571L117.957 72.6887C117.93 72.6887 115.539 71.8497 113.173 72.3741ZM105.105 79.8209C103.922 81.0008 100.873 81.3679 99.5589 80.4764C98.2448 79.5849 96.589 77.4085 97.7454 75.1273C98.4025 73.8163 100.347 73.6851 101.688 73.9211C103.002 74.1571 105.472 74.734 105.814 75.9139C106.156 77.0677 106.314 78.6409 105.105 79.8209ZM115.328 79.2702C114.172 80.3453 112.49 80.3453 111.123 79.3751C109.757 78.4049 109.651 76.8055 109.835 75.5993C109.993 74.3931 110.966 73.5278 112.227 73.1083C113.489 72.6887 115.434 72.5052 116.301 73.7114C117.799 75.7828 116.485 78.1952 115.328 79.2702Z" fill="black"/>
<path d="M104.421 84.0157C104.421 84.0157 106.34 82.9144 106.918 83.0192C107.496 83.1241 107.654 83.701 107.654 83.701C107.654 83.701 108.39 82.8357 108.889 83.2028C109.388 83.5699 109.861 84.7761 109.861 84.7761C109.861 84.7761 108.863 87.0573 107.259 86.9C105.656 86.7426 104.421 84.0157 104.421 84.0157Z" fill="#7D009B"/>
<path d="M95.6998 82.1865C95.7497 81.6964 95.3921 81.2588 94.9011 81.209C94.4101 81.1593 93.9716 81.5162 93.9217 82.0062C93.8718 82.4963 94.2293 82.9339 94.7203 82.9837C95.2114 83.0335 95.6499 82.6765 95.6998 82.1865Z" fill="#512176"/>
<path d="M166 120.489C165.501 123.374 165.211 128.172 165.921 129.562C166.631 130.951 166.499 131.292 168.234 131.266C169.995 131.24 174.226 130.375 174.647 130.978C175.067 131.607 172.229 136.458 171.546 136.641C170.888 136.799 168.944 136.353 167.13 136.877C165.317 137.402 163.871 138.162 162.82 136.746C161.768 135.33 156.354 124.711 156.354 124.711L166 120.489Z" fill="#DBB5A2"/>
<path d="M179.719 94.0066C179.719 94.0066 187.42 93.9017 189.811 92.8529C192.229 91.804 192.676 91.0436 193.99 91.4632C195.304 91.8827 195.909 93.8493 194.016 96.1567C192.098 98.438 180.823 101.322 180.823 101.322L179.719 94.0066Z" fill="#DBB5A2"/>
<path d="M176.25 67.7328C178.852 67.1035 186.08 83.6228 187.762 86.376C190.495 90.8336 190.18 92.9575 186.79 93.6917C183.399 94.4259 179.168 93.849 177.801 90.0994C175.672 84.2521 172.466 68.6506 176.25 67.7328Z" fill="#A84400"/>
<path d="M142.371 119.731C143.528 116.558 145.42 113.831 147.838 111.156C150.256 108.482 154.908 105.283 157.983 100.825C161.058 96.3676 161.531 92.3558 161.636 89.8386C161.768 87.3213 161.926 80.0581 161.926 80.0581L177.905 80.5301C177.905 80.5301 178.037 82.7064 179.535 83.9126C181.033 85.1188 183.53 87.636 184.975 91.2807C186.395 94.9517 187.183 100.511 183.661 106.279C180.139 112.048 176.355 116.872 170.835 120.517C165.316 124.162 151.386 129.013 151.386 129.013L142.371 119.731Z" fill="#FFDFC6"/>
<path d="M156.065 118.288C160.743 118.839 162.636 123.244 162.058 126.391C161.479 129.537 159.587 132.815 159.009 135.673C158.431 138.505 158.141 143.172 158.772 145.27C159.403 147.368 160.27 148.102 161.295 148.207C162.32 148.312 162.636 147.787 162.951 148.574C163.267 149.36 159.955 153.975 159.534 153.975C159.114 153.975 157.984 153.713 157.038 152.795C156.091 151.878 152.57 148.836 152.254 148.076C151.939 147.315 150.572 137.692 150.572 137.692C150.572 137.692 142.267 131.242 142.451 126.286C142.635 121.33 146.577 117.161 156.065 118.288Z" fill="#FFDFC6"/>
<path d="M161.532 122.273C160.638 120.306 158.851 118.628 156.091 118.287C146.577 117.16 142.635 121.303 142.451 126.285C142.267 131.241 150.572 137.691 150.572 137.691C150.572 137.691 151.071 141.073 151.518 143.984C154.015 142.411 156.538 138.661 157.484 136.144C158.877 132.499 158.22 128.251 158.168 127.412C158.115 126.809 159.85 124.24 161.532 122.273Z" fill="#FF6D00"/>
<path d="M178.484 95.6841C178.484 95.6841 181.454 97.4409 184.976 97.6507C188.498 97.8604 193.229 98.4111 194.516 97.8342C195.804 97.2573 196.987 96.392 198.538 96.6805C200.088 96.9427 201.586 97.5196 200.877 98.4111C200.167 99.3026 197.565 103.813 196.777 103.97C195.962 104.127 192.282 104.573 188.629 104.914C184.976 105.281 176.907 104.861 176.907 104.861L178.484 95.6841Z" fill="#FFDFC6"/>
<path d="M188.367 97.8867C187.211 97.808 186.054 97.7031 184.976 97.6507C181.428 97.4409 178.485 95.6841 178.485 95.6841L176.96 104.704C179.667 104.625 183.189 104.416 184.819 103.839C187.71 102.816 188.551 101.453 188.603 100.22C188.603 99.6435 188.498 98.7257 188.367 97.8867Z" fill="#FF6D00"/>
<path d="M143.975 116.374C143.975 116.374 139.612 122.903 137.142 123.899C134.671 124.895 130.834 126.102 126.865 123.951C122.897 121.801 118.376 116.295 117.167 117.475C115.958 118.655 117.036 121.172 120.899 124.791C124.763 128.409 130.992 130.585 135.512 129.904C140.033 129.222 148.075 123.951 148.075 123.951L143.975 116.374Z" fill="#FF6D00"/>
<path d="M123.474 121.538C120.609 119.205 118.034 116.609 117.193 117.448C115.984 118.628 117.061 121.145 120.925 124.764C121.03 124.842 121.135 124.947 121.214 125.026C121.95 124.37 122.738 123.295 123.474 121.538Z" fill="#FFDFC6"/>
<path d="M137.115 123.899C134.645 124.896 130.807 126.102 126.839 123.952C126.812 123.926 126.786 123.926 126.76 123.899C127.575 125.158 128.994 126.417 130.597 127.151C133.987 128.672 139.612 129.012 142.976 125.945C144.5 124.555 145.42 122.274 146.025 120.176L143.949 116.348C143.975 116.374 139.612 122.903 137.115 123.899Z" fill="#6B3425"/>
<path d="M161.69 89.8383C161.558 92.3555 161.111 96.3673 158.036 100.825C154.961 105.282 150.309 108.481 147.891 111.156C145.473 113.831 143.581 116.558 142.424 119.73L151.466 128.986C151.466 128.986 154.62 127.885 158.509 126.338C159.298 124.424 161.611 122.169 165.658 119.232C170.1 115.981 179.562 107.197 180.797 103.316C182.032 99.4352 181.323 95.974 178.957 93.1421C176.592 90.3103 173.674 89.9694 174.831 87.8455C175.961 85.7216 178.09 82.9946 177.065 81.2115C176.907 80.9493 176.276 80.6871 175.33 80.3987L162.005 80.0054C161.952 80.0316 161.795 87.3211 161.69 89.8383Z" fill="#FF6D00"/>
<path d="M161.689 89.8377C161.557 92.3549 161.111 96.3668 158.036 100.824C154.96 105.282 150.308 108.481 147.89 111.155C145.472 113.83 142.976 116.19 141.819 119.363L144.999 123.165C145.814 121.932 146.813 119.599 148.101 119.861C150.44 120.359 152.779 122.063 154.619 121.46C156.485 120.857 157.01 119.704 155.933 117.029C154.855 114.354 152.569 111.155 154.172 109.713C155.775 108.271 164.606 112.834 169.81 110.788C175.014 108.743 176.276 104.679 174.961 100.457C173.989 97.3894 166.104 90.0737 161.82 86.2979C161.768 87.6876 161.715 89.0248 161.689 89.8377Z" fill="#6B3425"/>
<path d="M163.608 65.8456C165.501 63.1972 170.442 61.86 174.043 62.0435C177.67 62.2271 179.746 63.0399 180.981 64.6132C182.216 66.1864 184.976 71.4307 185.397 72.3746C185.817 73.3186 187.263 77.6713 185.896 79.3494C184.529 81.0276 177.223 84.7772 175.252 85.2754C173.254 85.7736 167.078 83.9119 162.846 82.3911C158.615 80.844 160.744 69.9098 163.608 65.8456Z" fill="#FF6D00"/>
<path d="M188.971 71.7709C190.574 72.2691 190.68 76.0449 189.471 78.667C188.262 81.2891 187.946 83.1508 185.186 84.0424C182.427 84.9339 174.752 87.8706 174.752 87.8706C174.752 87.8706 175.541 83.2295 174.779 82.3118C174.016 81.3678 172.623 78.2737 175.12 76.2547C177.617 74.2357 178.274 73.6588 178.064 71.9282C177.854 70.1976 176.986 67.8902 176.145 67.156C175.304 66.4218 172.834 66.2382 172.623 65.6089C172.413 64.9796 173.07 63.4064 175.094 63.4588C177.118 63.5112 178.327 63.957 178.3 64.429C178.274 64.901 177.854 65.3729 178.064 65.7663C178.3 66.1334 180.64 71.5349 182.243 71.6398C183.846 71.7447 187.815 71.43 188.971 71.7709Z" fill="#FFDFC6"/>
<path d="M189.208 72.6098C189.418 73.6849 188.919 74.9172 188.42 75.3368C187.92 75.7563 186.501 75.9923 185.87 75.5203C185.239 75.0484 184.214 74.3928 184.53 73.3702C184.819 72.3738 189.077 72.0329 189.208 72.6098Z" fill="#6B3425"/>
<path d="M176.302 81.4211C176.302 81.4211 180.245 83.1254 181.532 83.2303C182.82 83.3352 183.766 83.1779 184.424 82.5223C185.081 81.8668 185.79 80.582 186.079 80.7393C186.342 80.8966 187.026 81.9979 187.078 82.1815C187.131 82.365 186.815 82.6797 186.658 82.4699C186.5 82.2601 186.184 81.3162 186.079 81.4211C186 81.5259 184.686 83.4663 183.346 83.7547C182.006 84.0432 180.192 83.3614 178.668 82.837C177.17 82.3126 176.066 81.6308 176.302 81.4211Z" fill="#6B3425"/>
<path d="M174.306 69.8301C176.382 69.6728 177.723 74.2353 175.279 74.3664C172.861 74.4713 171.862 70.0137 174.306 69.8301Z" fill="white"/>
<path d="M175.514 70.9584C176.04 70.6174 176.592 72.8996 176.014 73.2668C175.409 73.6078 175.015 71.2995 175.514 70.9584Z" fill="#6B3425"/>
<path d="M166.078 65.9509C167.287 66.5802 165.211 71.064 165.684 73.8959C166.157 76.7277 167.892 81.2378 167.787 85.8527C167.681 90.4676 167.997 93.955 164.028 94.9252C160.059 95.8954 158.377 95.5807 157.904 95.3447C157.457 95.1087 158.036 93.483 156.932 92.8799C155.828 92.2768 153.857 90.3627 154.908 86.7442C155.959 83.1257 158.982 77.3833 159.665 73.2141C160.322 69.0712 164.002 64.8758 166.078 65.9509Z" fill="#A84400"/>
<path d="M182.138 67.7077C183.715 67.5766 184.767 71.5885 182.927 71.6671C181.087 71.7458 180.272 67.8388 182.138 67.7077Z" fill="white"/>
<path d="M183.084 68.7041C183.479 68.3893 183.925 70.4091 183.479 70.7239C183.005 71.0125 182.69 68.9926 183.084 68.7041Z" fill="#6B3425"/>
<path d="M106.603 110.211L126.236 120.49C126.236 120.49 146.026 116.268 147.13 115.77C148.234 115.272 153.175 109.687 153.727 109.346C154.279 109.005 154.884 109.136 154.805 109.87C154.726 110.605 154.2 112.965 154.2 112.965C154.2 112.965 158.484 111.706 158.852 111.391C159.22 111.077 161.481 108.586 161.98 108.323C162.479 108.061 163.478 108.245 163.32 108.848C163.163 109.451 161.27 113.069 161.27 113.069C161.27 113.069 162.374 116.373 161.297 117.868C160.219 119.362 154.332 121.434 151.441 122.168C148.523 122.876 126.709 129.694 124.816 129.956C122.924 130.192 121.347 129.143 117.562 127.412C111.228 124.476 99.7429 117.317 99.7429 117.317L106.603 110.211Z" fill="#F69576"/>
<path d="M85.5751 97.0735C81.475 101.374 83.2096 108.742 87.336 112.623C91.4623 116.503 98.6637 117.867 98.6637 117.867C98.6637 117.867 101.397 122.193 102.448 120.777C103.5 119.361 109.939 109.45 109.019 108.768C108.099 108.086 105.182 108.113 105.182 108.113C105.182 108.113 106.838 99.748 101.345 95.9984C97.7701 93.6123 91.988 90.3346 85.5751 97.0735Z" fill="#FFE051"/>
<path d="M95.9842 101.242C97.7115 101.242 99.1118 99.8451 99.1118 98.1218C99.1118 96.3985 97.7115 95.0015 95.9842 95.0015C94.2568 95.0015 92.8566 96.3985 92.8566 98.1218C92.8566 99.8451 94.2568 101.242 95.9842 101.242Z" fill="white"/>
<path d="M89.8071 111.941C91.5344 111.941 92.9347 110.544 92.9347 108.821C92.9347 107.097 91.5344 105.7 89.8071 105.7C88.0797 105.7 86.6794 107.097 86.6794 108.821C86.6794 110.544 88.0797 111.941 89.8071 111.941Z" fill="white"/>
<path d="M100.424 114.746C102.152 114.746 103.552 113.349 103.552 111.626C103.552 109.903 102.152 108.506 100.424 108.506C98.697 108.506 97.2968 109.903 97.2968 111.626C97.2968 113.349 98.697 114.746 100.424 114.746Z" fill="white"/>
<path d="M122.737 118.655C123.473 118.97 124.525 119.599 124.998 119.835C124.709 118.576 124.341 117.685 123.946 117.003C122.869 115.194 120.109 113.752 116.324 117.265C112.566 120.779 108.676 130.507 108.676 130.507L110.49 131.739C110.49 131.739 111.935 127.963 113.696 124.45C115.457 120.91 118.217 117.868 119.531 117.475C120.398 117.213 121.791 116.767 122.737 118.655Z" fill="#512176"/>
<path d="M123.921 130.009C123.816 132.762 123.5 134.965 123.5 134.965L125.261 134.676C125.261 134.676 125.498 132.29 125.655 129.721C125.156 129.878 123.921 130.009 123.921 130.009Z" fill="#512176"/>
<path d="M105.76 129.379C106.627 127.176 110.412 128.592 111.332 129.641C112.252 130.69 113.04 130.978 114.906 130.532C116.772 130.087 118.743 129.929 120.136 131.319C121.529 132.709 121.95 133.81 123.658 133.574C125.367 133.338 125.603 131.24 127.312 132.945C129.02 134.649 129.072 136.17 129.651 144.508C130.229 152.847 130.439 156.491 129.677 157.488C128.915 158.484 127.653 158.956 127.653 158.956L98.4008 152.034C98.4008 152.034 96.4822 150.88 97.0078 148.494C97.5335 146.108 104.709 131.975 105.76 129.379Z" fill="#512176"/>
<path d="M125.707 134.913C125.707 134.913 122.816 135.411 121.213 134.887C119.584 134.363 117.428 133.366 117.428 133.366C117.428 133.366 116.929 134.625 117.113 134.756C117.297 134.887 118.848 135.805 121.239 136.119C123.631 136.434 125.313 136.041 125.471 135.988C125.655 135.883 126.075 134.861 125.707 134.913Z" fill="#E7D0B0"/>
<path d="M116.537 132.92C116.8 133.024 116.694 134.389 116.221 134.31C115.775 134.257 113.567 134.1 111.727 133.89C109.887 133.654 108.126 132.893 108.126 132.893L108.389 131.713C108.389 131.713 109.835 132.29 111.701 132.421C113.567 132.579 115.959 132.657 116.537 132.92Z" fill="#E7D0B0"/>
<path d="M106.286 130.167C106.286 130.167 106.864 128.856 108.677 128.069C110.491 127.282 112.83 127.073 113.513 127.545C114.197 128.043 113.724 128.987 113.329 129.406C112.935 129.826 112.436 130.875 111.989 132.029C111.542 133.182 111.673 135.516 110.964 136.355C110.254 137.194 109.203 137.902 107.915 137.194C106.654 136.486 106.075 134.546 105.996 133.916C105.918 133.287 105.734 132.71 105.734 132.71L105.103 132.658C105.103 132.658 104.63 133.654 102.737 134.782C100.845 135.909 97.9015 136.355 97.2181 135.909C96.5348 135.463 96.5085 134.257 97.3232 133.444C98.138 132.632 99.347 131.347 99.347 131.347C99.347 131.347 99.3733 129.249 99.0316 128.646C98.6899 128.069 98.2168 126.968 98.8476 126.496C99.4784 126.024 100.109 126.05 101.397 126.679C102.685 127.309 103.789 127.23 104.525 127.859C105.261 128.489 105.839 130.009 105.839 130.009L106.286 130.167Z" fill="#E7D0B0"/>
<path d="M234.887 151.247C234.887 151.247 233.757 162.994 234.887 182.529C236.017 202.09 240.774 220.812 241.326 223.04C241.878 225.269 248.896 262.739 248.896 262.739H259.829C259.829 262.739 253.679 212.159 253.101 196.793C252.549 181.428 255.072 152.663 255.072 152.663L234.887 151.247Z" fill="#254B6B"/>
<path d="M274.915 152.663H251.682C251.682 152.663 249.868 199.1 251.682 201.276C253.495 203.427 258.962 212.184 259.803 218.871C260.644 225.583 262.904 262.739 262.904 262.739H274.915V152.663Z" fill="#254B6B"/>
<path d="M257.646 90.1776C246.056 89.9416 242.35 91.6722 239.906 97.0738C237.488 102.475 231.311 149.962 230.759 159.663C230.207 169.339 232.073 175.134 245.32 175.134C258.566 175.134 276.675 164.331 276.675 164.331C276.675 164.331 277.411 167.687 277.989 169.732C278.541 171.778 284.139 174.006 284.139 170.467C284.139 166.927 281.747 111.39 281.379 102.082C280.985 92.7735 266.425 90.3612 257.646 90.1776Z" fill="black"/>
<path d="M245.346 93.3255C240.773 92.1455 236.568 92.1979 233.203 98.9105C229.839 105.623 227.237 126.469 227.237 126.469L242.744 132.605C242.718 132.631 257.462 96.4982 245.346 93.3255Z" fill="black"/>
<path d="M281.378 102.083C281.011 92.7745 266.45 90.3359 257.672 90.1524C249.918 89.9951 245.687 90.703 243.006 92.8532C239.353 92.3812 235.989 93.3776 233.229 98.9102C229.865 105.623 227.263 126.469 227.263 126.469L234.333 129.274C232.572 142.201 231.074 155.076 230.811 159.638C230.259 169.314 232.125 175.109 245.371 175.109C258.618 175.109 276.726 164.306 276.726 164.306C276.726 164.306 277.462 167.662 278.041 169.707C278.593 171.752 284.191 173.981 284.191 170.441C284.191 166.901 281.746 111.391 281.378 102.083Z" fill="black"/>
<path d="M253.679 89.2075C257.753 89.2075 262.588 89.6008 265.112 91.2003C268.187 93.1669 268.134 100.509 254.651 101.112C241.168 101.715 241.615 95.4481 242.982 93.5864C244.927 90.9119 250.551 89.2337 253.679 89.2075Z" fill="#F69576"/>
<path d="M248.423 80.7915L245.794 97.6254H261.695C261.695 97.6254 260.933 90.9391 260.039 86.5864C259.146 82.2599 258.384 80.7915 258.384 80.7915H248.423Z" fill="#F69576"/>
<path d="M255.362 85.3796C255.362 85.3796 255.493 88.4736 253.443 89.8371C251.393 91.2006 246.82 91.2269 246.82 91.2269L248.449 80.8171H255.151C255.151 80.7909 255.624 83.413 255.362 85.3796Z" fill="#DD866F"/>
<path d="M246.163 60.3907C246.163 60.3907 244.139 62.0426 243.272 65.7136C242.588 68.5455 242.746 71.5609 242.404 73.2653C242.063 74.9696 241.484 77.6704 241.957 80.0303C242.431 82.3902 244.533 85.6154 248.449 86.7167C252.365 87.818 255.545 87.0313 257.701 84.3043C259.856 81.6036 262.51 76.7527 263.299 73.3702C264.087 70.0139 264.534 63.6421 260.933 60.8365C256.334 57.2704 250.841 57.2442 246.163 60.3907Z" fill="#F69576"/>
<path d="M253.232 79.349C253.232 79.349 252.864 81.6302 251.498 82.1284C250.131 82.6266 248.764 82.2857 248.133 81.5253C247.503 80.7649 247.187 79.3228 247.187 79.3228L253.232 79.349Z" fill="white"/>
<path d="M249.79 76.8323C249.344 76.7536 249.37 76.3339 249.37 76.0978C249.37 76.0715 249.37 76.0716 249.37 76.0453C249.344 76.0716 249.317 76.0715 249.317 76.0978C249.16 76.2027 248.923 76.3863 248.634 76.124C248.529 76.0191 248.476 75.8617 248.476 75.6256C248.502 75.1797 248.792 74.5763 249.054 74.3665C249.107 74.314 249.186 74.3403 249.238 74.3927C249.291 74.4452 249.265 74.5239 249.212 74.5763C249.028 74.7075 248.765 75.2321 248.739 75.6256C248.739 75.7568 248.765 75.8617 248.818 75.9142C248.923 76.0191 249.002 75.9929 249.16 75.8617C249.238 75.8092 249.317 75.7305 249.422 75.7305C249.475 75.7305 249.527 75.7305 249.554 75.783C249.633 75.8617 249.633 75.9666 249.633 76.0978C249.633 76.3863 249.659 76.5175 249.817 76.57C249.895 76.57 249.948 76.57 250.001 76.5437C250.079 76.4913 250.079 76.3076 250.079 76.1765C250.079 76.0716 250.079 75.9929 250.132 75.9404C250.158 75.8879 250.237 75.8355 250.29 75.8355C250.421 75.8355 250.553 75.9142 250.736 76.124C250.763 76.1502 250.815 76.2027 250.894 76.1765C250.973 76.1502 251.078 76.0453 251.131 75.8355C251.183 75.5207 250.894 74.8911 250.763 74.6813C250.736 74.6288 250.736 74.5501 250.815 74.4976C250.868 74.4714 250.947 74.4714 250.999 74.5501C251.052 74.6288 251.472 75.4158 251.394 75.8879C251.341 76.1765 251.183 76.3863 250.973 76.4388C250.815 76.4913 250.658 76.4388 250.553 76.3076C250.447 76.2027 250.395 76.1502 250.342 76.124C250.342 76.1502 250.342 76.1765 250.342 76.2027C250.342 76.3601 250.316 76.6224 250.158 76.7536C250.079 76.806 250.001 76.8323 249.895 76.8323C249.869 76.8323 249.843 76.8323 249.79 76.8323Z" fill="#6B3425"/>
<path d="M269.266 70.9304C268.057 67.9412 259.279 70.642 260.908 76.1484C262.564 81.786 271.053 75.3356 269.266 70.9304Z" fill="#F69576"/>
<path d="M262.537 76.8307C262.563 76.8307 262.589 76.8307 262.616 76.8044C262.668 76.752 262.668 76.6733 262.616 76.6209C262.248 76.2276 262.169 74.969 262.642 73.7628C262.957 72.8975 263.772 71.4291 265.664 71.1931C266.689 71.062 267.399 71.2456 267.793 71.6913C268.398 72.3731 268.109 73.4744 268.109 73.5006C268.082 73.5793 268.135 73.6317 268.214 73.6579C268.293 73.6841 268.345 73.6317 268.372 73.553C268.398 73.5006 268.687 72.2944 268.004 71.5078C267.531 70.9834 266.742 70.7736 265.638 70.9047C264.14 71.0883 262.957 72.0847 262.379 73.6579C261.932 74.8903 261.932 76.28 262.405 76.8044C262.484 76.8307 262.511 76.8307 262.537 76.8307Z" fill="#6B3425"/>
<path d="M265.69 76.3594C265.742 76.3594 265.795 76.3332 265.821 76.2807C265.874 76.1758 266.846 73.7635 265.401 71.0627C265.374 71.0103 265.296 70.9841 265.217 71.0103C265.164 71.0365 265.138 71.1152 265.164 71.1938C266.557 73.7897 265.585 76.1758 265.585 76.1758C265.558 76.2545 265.585 76.3069 265.663 76.3594H265.69Z" fill="#6B3425"/>
<path d="M254.152 74.2893C254.413 74.2893 254.625 73.8547 254.625 73.3187C254.625 72.7827 254.413 72.3481 254.152 72.3481C253.89 72.3481 253.679 72.7827 253.679 73.3187C253.679 73.8547 253.89 74.2893 254.152 74.2893Z" fill="#6B3425"/>
<path d="M256.386 70.7761C256.018 70.4613 255.23 70.0416 254.441 69.9629C253.574 69.8842 253.048 70.2777 252.707 70.3564C252.365 70.4351 252.312 69.9629 252.496 69.5432C252.68 69.1235 253.416 68.8087 254.625 68.8612C255.834 68.9137 256.491 69.4383 256.807 69.8055C257.122 70.1728 256.912 71.1958 256.386 70.7761Z" fill="#6B3425"/>
<path d="M246.741 74.0261C247.002 74.0261 247.214 73.5916 247.214 73.0555C247.214 72.5195 247.002 72.085 246.741 72.085C246.48 72.085 246.268 72.5195 246.268 73.0555C246.268 73.5916 246.48 74.0261 246.741 74.0261Z" fill="#6B3425"/>
<path d="M248.527 70.407C248.159 70.0922 247.371 69.6725 246.582 69.5938C245.715 69.5151 245.189 69.9086 244.848 69.9873C244.506 70.066 244.453 69.5938 244.637 69.1741C244.821 68.7544 245.557 68.4396 246.766 68.492C247.975 68.5445 248.632 69.0691 248.948 69.4364C249.289 69.8036 249.027 70.8267 248.527 70.407Z" fill="#6B3425"/>
<path d="M245.374 82.1797L245.978 82.337C245.978 82.337 247.161 84.6445 248.133 85.0902C249.106 85.536 252.339 85.3787 252.68 85.0902C253.022 84.8018 254.126 82.2321 254.126 82.2321L254.888 82.4157C254.888 82.4157 253.732 86.1128 253.574 86.4275C253.469 86.6373 251.34 88.0794 250.499 88.1581C249.658 88.2368 246.819 86.6635 246.688 86.3226C246.241 85.2476 245.374 82.1797 245.374 82.1797Z" fill="#6B3425"/>
<path d="M249.054 83.6223L250.473 83.5698L250.526 86.0608L249.448 86.2706L249.054 83.6223Z" fill="#6B3425"/>
<path d="M262.247 123.583L262.168 138.713C262.168 138.713 244.033 138.922 242.876 138.634C241.694 138.345 235.859 133.704 235.255 133.468C234.65 133.206 234.072 133.468 234.308 134.176C234.545 134.884 235.438 137.113 235.438 137.113C235.438 137.113 230.997 136.615 230.603 136.379C230.208 136.143 227.527 134.071 226.976 133.914C226.424 133.731 225.504 134.098 225.74 134.675C225.977 135.251 228.5 138.477 228.5 138.477C228.5 138.477 228.001 141.938 229.315 143.196C230.629 144.481 236.779 145.504 239.775 145.687C242.771 145.871 265.453 148.781 267.345 148.677C269.238 148.598 271.997 147.995 272.97 143.957C273.942 139.893 274.258 124.343 274.258 124.343L262.247 123.583Z" fill="#F69576"/>
<path opacity="0.4" d="M277.333 103.473L273.733 123.689L280.172 125.629L277.333 103.473Z" fill="#254B6B"/>
<path d="M261.722 56.9027C261.722 56.9027 258.384 62.9336 249.106 63.458C229.788 64.5855 238.645 53.7562 238.645 53.7562C238.645 53.7562 237.962 56.6143 241.274 56.7716C245.821 56.9814 252.391 43.2153 261.722 56.9027Z" fill="#A5713D"/>
</svg>
