<svg width="375" height="306" viewBox="0 0 375 306" fill="none" xmlns="http://www.w3.org/2000/svg">
<path d="M169.758 53.4734C187.919 56.9054 222.165 -13.1497 260.038 2.30748C297.911 17.7647 270.078 67.5683 283.587 78.7289C297.096 89.8895 334.102 55.5431 349.661 91.6186C365.221 127.694 341.566 166.337 341.225 172.337C340.883 178.336 383.881 210.587 371.949 254.993C360.017 299.4 201.559 303.696 144.999 305.399C88.4658 307.129 12.8247 306.971 1.68094 260.678C-9.46284 214.385 41.1573 174.066 45.8355 161.124C50.5138 148.208 8.17272 103.146 61.2634 47.7883C102.317 4.95354 151.623 50.0414 169.758 53.4734Z" fill="#9ECBDD"/>
<path d="M1.70836 260.649C12.8521 306.942 88.4932 307.099 145.027 305.37C201.56 303.641 360.018 299.37 371.976 254.964C380.097 224.757 362.804 200.156 351.003 185.642H27.2287C12.1688 204.715 -5.30906 231.49 1.70836 260.649Z" fill="#776B67"/>
<path d="M12.6162 206.656C3.36478 222.506 -3.02187 241.055 1.70898 260.651C12.8528 306.944 88.4938 307.101 145.027 305.372C201.561 303.643 360.018 299.373 371.977 254.966C376.971 236.391 372.345 219.938 365.327 206.656H12.6162Z" fill="#3D3B38"/>
<path d="M85.155 97.8259C85.155 97.8259 81.896 91.5383 89.3076 90.8309C88.5454 85.827 95.7994 78.2818 108.389 81.5042C110.518 76.0549 122.529 66.44 130.887 78.1508C146.814 71.4963 149.074 81.085 146.945 82.8141C159.298 80.5872 157.116 89.0232 155.04 89.9663C171.388 86.4819 169.128 97.8259 169.128 97.8259H85.155Z" fill="white"/>
<path d="M270.21 127.09C270.21 127.09 268.843 123.605 271.945 123.212C271.629 120.435 274.652 116.27 279.908 118.051C280.802 115.038 285.822 109.72 289.291 116.191C295.941 112.497 296.887 117.815 295.993 118.759C301.145 117.527 300.251 122.191 299.357 122.715C306.191 120.776 305.245 127.064 305.245 127.064H270.21V127.09Z" fill="white"/>
<path d="M226.921 192.874H215.488V199.423H226.921V192.874Z" fill="#6B3425"/>
<path d="M238.014 178.098H252.522L248.264 159.995L238.014 156.143H247.344L246.24 151.48L229.735 150.222L245.215 147.105L243.034 137.831L229.735 133.665C229.735 133.665 236.989 133.246 241.877 132.984L235.28 104.794L224.452 103.851L234.781 102.698L221.193 44.9302L213.15 79.067H218.118L212.441 82.0798L209.891 92.8999H219.143L209.366 95.2315L208.472 99.0041H213.65L208.052 100.812L202.69 123.552L215.49 126.251L201.402 129.106L197.092 147.393H210.391L195.751 153.052L191.31 171.967C198.327 172.989 208.551 174.43 208.551 174.43L190.127 176.997L186.395 192.874H255.991L253.915 184.045L238.014 178.098Z" fill="#7EA21A"/>
<path d="M155.517 197.646L161.667 197.646L161.667 194.11L155.517 194.11L155.517 197.646Z" fill="#6B3425"/>
<path d="M149.523 186.168H141.717L144.003 176.422L149.523 174.353H144.503L145.081 171.838L153.965 171.157L145.633 169.48L146.816 164.476L153.965 162.223C153.965 162.223 150.048 161.987 147.42 161.856L150.995 146.687L156.829 146.189L151.257 145.56L158.59 114.437L162.927 132.802H160.246L163.295 134.426L164.662 140.242H159.694L164.977 141.5L165.45 143.543H162.664L165.687 144.513L168.578 156.747L161.692 158.188L169.287 159.734L171.6 169.585H164.451L172.336 172.624L174.728 182.815C170.943 183.365 165.45 184.151 165.45 184.151L175.385 185.54L177.409 194.08H139.851L140.981 189.312L149.523 186.168Z" fill="#7EA21A"/>
<path d="M146.552 229.788H126.84V233.744H146.552V229.788Z" fill="white"/>
<path d="M217.253 229.788H197.541V233.744H217.253V229.788Z" fill="white"/>
<path d="M193.6 229.788H173.888V233.744H193.6V229.788Z" fill="white"/>
<path d="M122.899 229.788H103.187V233.744H122.899V229.788Z" fill="white"/>
<path d="M99.2443 229.788H82.1606V233.744H99.2443V229.788Z" fill="white"/>
<path d="M78.2172 229.788H58.5054V233.744H78.2172V229.788Z" fill="white"/>
<path d="M54.5642 229.788H34.8523V233.744H54.5642V229.788Z" fill="white"/>
<path d="M169.942 229.788H150.493V233.744H169.942V229.788Z" fill="white"/>
<path d="M354.71 229.788H334.998V233.744H354.71V229.788Z" fill="white"/>
<path d="M30.9093 229.788H6.86084V233.744H30.9093V229.788Z" fill="white"/>
<path d="M331.057 229.788H311.345V233.744H331.057V229.788Z" fill="white"/>
<path d="M363.225 229.788H358.652V233.744H363.225V229.788Z" fill="white"/>
<path d="M285.588 229.788H265.876V233.744H285.588V229.788Z" fill="white"/>
<path d="M261.932 229.788H242.22V233.744H261.932V229.788Z" fill="white"/>
<path d="M238.277 229.788H221.194V233.744H238.277V229.788Z" fill="white"/>
<path d="M307.401 229.788H289.529V233.744H307.401V229.788Z" fill="white"/>
<path d="M136.564 176.213L65.9951 179.357L52.1968 164.424L62.447 147.526L136.564 152.635V176.213Z" fill="#6B3425"/>
<path d="M132.62 147.526H128.677V206.08H132.62V147.526Z" fill="#6B3425"/>
<path d="M250.893 175.637L321.461 178.781L335.259 163.847L325.009 146.949L250.893 152.058V175.637Z" fill="#6B3425"/>
<path d="M254.849 205.483L258.792 205.483L258.792 146.929L254.849 146.929L254.849 205.483Z" fill="#6B3425"/>
<path d="M82.1821 166.882V157.763H85.2633C85.9787 157.763 86.5635 157.892 87.0176 158.15C87.4748 158.406 87.8132 158.751 88.0328 159.188C88.2525 159.624 88.3623 160.111 88.3623 160.648C88.3623 161.185 88.2525 161.674 88.0328 162.113C87.8161 162.552 87.4807 162.903 87.0266 163.164C86.5724 163.422 85.9906 163.551 85.2811 163.551H83.0726V162.572H85.2455C85.7353 162.572 86.1286 162.487 86.4255 162.318C86.7223 162.149 86.9375 161.92 87.0711 161.632C87.2076 161.341 87.2759 161.013 87.2759 160.648C87.2759 160.283 87.2076 159.957 87.0711 159.669C86.9375 159.381 86.7208 159.155 86.421 158.992C86.1212 158.826 85.7234 158.742 85.2277 158.742H83.2864V166.882H82.1821ZM92.0112 167.042C91.5779 167.042 91.1845 166.96 90.8313 166.797C90.4781 166.631 90.1975 166.392 89.9898 166.08C89.782 165.766 89.6781 165.386 89.6781 164.941C89.6781 164.549 89.7553 164.231 89.9096 163.988C90.064 163.741 90.2703 163.548 90.5285 163.409C90.7868 163.269 91.0717 163.165 91.3834 163.097C91.6981 163.026 92.0142 162.969 92.3318 162.928C92.7474 162.874 93.0843 162.834 93.3426 162.808C93.6038 162.778 93.7938 162.729 93.9125 162.661C94.0342 162.592 94.0951 162.474 94.0951 162.305V162.269C94.0951 161.83 93.9748 161.488 93.7344 161.245C93.4969 161.001 93.1363 160.88 92.6524 160.88C92.1508 160.88 91.7574 160.99 91.4725 161.209C91.1875 161.429 90.9871 161.663 90.8714 161.913L89.874 161.557C90.0521 161.141 90.2896 160.817 90.5864 160.586C90.8862 160.351 91.2127 160.188 91.566 160.096C91.9222 160.001 92.2725 159.954 92.6168 159.954C92.8365 159.954 93.0888 159.98 93.3737 160.034C93.6617 160.084 93.9392 160.19 94.2064 160.35C94.4765 160.51 94.7006 160.752 94.8787 161.076C95.0568 161.399 95.1459 161.833 95.1459 162.376V166.882H94.0951V165.956H94.0416C93.9704 166.104 93.8516 166.263 93.6854 166.432C93.5192 166.601 93.298 166.745 93.022 166.864C92.7459 166.983 92.409 167.042 92.0112 167.042ZM92.1715 166.098C92.5871 166.098 92.9374 166.017 93.2223 165.853C93.5103 165.69 93.727 165.479 93.8724 165.221C94.0208 164.963 94.0951 164.691 94.0951 164.406V163.444C94.0505 163.498 93.9526 163.547 93.8012 163.591C93.6528 163.633 93.4806 163.67 93.2847 163.703C93.0917 163.732 92.9032 163.759 92.7192 163.783C92.5381 163.804 92.3912 163.821 92.2784 163.836C92.0053 163.872 91.75 163.93 91.5125 164.01C91.278 164.087 91.0881 164.204 90.9426 164.362C90.8001 164.516 90.7289 164.727 90.7289 164.994C90.7289 165.359 90.864 165.635 91.1341 165.822C91.4072 166.006 91.753 166.098 92.1715 166.098ZM97.0638 166.882V160.043H98.079V161.076H98.1503C98.2749 160.737 98.5005 160.463 98.8271 160.252C99.1536 160.041 99.5217 159.936 99.9313 159.936C100.008 159.936 100.105 159.937 100.221 159.94C100.336 159.943 100.424 159.948 100.483 159.954V161.022C100.448 161.013 100.366 161 100.239 160.982C100.114 160.961 99.9818 160.951 99.8423 160.951C99.5098 160.951 99.2129 161.021 98.9517 161.16C98.6935 161.297 98.4887 161.487 98.3373 161.73C98.1889 161.971 98.1146 162.245 98.1146 162.554V166.882H97.0638ZM101.729 166.882V160.043H102.78V166.882H101.729ZM102.263 158.903C102.059 158.903 101.882 158.833 101.733 158.694C101.588 158.554 101.515 158.386 101.515 158.19C101.515 157.994 101.588 157.827 101.733 157.687C101.882 157.548 102.059 157.478 102.263 157.478C102.468 157.478 102.643 157.548 102.789 157.687C102.937 157.827 103.011 157.994 103.011 158.19C103.011 158.386 102.937 158.554 102.789 158.694C102.643 158.833 102.468 158.903 102.263 158.903ZM109.549 161.574L108.605 161.841C108.546 161.684 108.458 161.531 108.342 161.383C108.229 161.231 108.075 161.107 107.879 161.009C107.683 160.911 107.432 160.862 107.127 160.862C106.708 160.862 106.359 160.958 106.08 161.151C105.804 161.341 105.666 161.583 105.666 161.877C105.666 162.138 105.761 162.345 105.951 162.496C106.141 162.647 106.438 162.774 106.842 162.874L107.857 163.124C108.468 163.272 108.924 163.499 109.224 163.805C109.524 164.108 109.674 164.498 109.674 164.976C109.674 165.368 109.561 165.718 109.335 166.027C109.113 166.336 108.801 166.579 108.4 166.757C107.999 166.935 107.533 167.024 107.002 167.024C106.304 167.024 105.727 166.873 105.27 166.57C104.813 166.267 104.523 165.825 104.402 165.243L105.399 164.994C105.494 165.362 105.674 165.638 105.938 165.822C106.205 166.006 106.554 166.098 106.984 166.098C107.474 166.098 107.863 165.994 108.151 165.786C108.442 165.576 108.587 165.323 108.587 165.03C108.587 164.792 108.504 164.593 108.338 164.433C108.172 164.27 107.916 164.148 107.572 164.068L106.432 163.801C105.806 163.652 105.346 163.422 105.052 163.11C104.761 162.796 104.615 162.403 104.615 161.931C104.615 161.545 104.724 161.203 104.94 160.906C105.16 160.61 105.458 160.377 105.835 160.207C106.215 160.038 106.646 159.954 107.127 159.954C107.804 159.954 108.335 160.102 108.721 160.399C109.11 160.696 109.386 161.088 109.549 161.574Z" fill="white"/>
<path d="M271.399 156.915L274.106 164.592H274.213L276.92 156.915H278.078L274.73 166.034H273.59L270.241 156.915H271.399ZM279.356 166.034V159.195H280.407V166.034H279.356ZM279.89 158.055C279.685 158.055 279.509 157.985 279.36 157.846C279.215 157.706 279.142 157.539 279.142 157.343C279.142 157.147 279.215 156.979 279.36 156.84C279.509 156.7 279.685 156.63 279.89 156.63C280.095 156.63 280.27 156.7 280.416 156.84C280.564 156.979 280.638 157.147 280.638 157.343C280.638 157.539 280.564 157.706 280.416 157.846C280.27 157.985 280.095 158.055 279.89 158.055ZM283.382 156.915V166.034H282.331V156.915H283.382ZM286.358 156.915V166.034H285.307V156.915H286.358ZM290.295 166.194C289.861 166.194 289.468 166.113 289.115 165.95C288.762 165.783 288.481 165.544 288.273 165.233C288.066 164.918 287.962 164.538 287.962 164.093C287.962 163.701 288.039 163.383 288.193 163.14C288.348 162.894 288.554 162.701 288.812 162.561C289.07 162.422 289.355 162.318 289.667 162.249C289.982 162.178 290.298 162.122 290.615 162.08C291.031 162.027 291.368 161.987 291.626 161.96C291.887 161.93 292.077 161.881 292.196 161.813C292.318 161.745 292.379 161.626 292.379 161.457V161.421C292.379 160.982 292.258 160.641 292.018 160.397C291.781 160.154 291.42 160.032 290.936 160.032C290.434 160.032 290.041 160.142 289.756 160.362C289.471 160.581 289.271 160.816 289.155 161.065L288.158 160.709C288.336 160.293 288.573 159.97 288.87 159.738C289.17 159.504 289.496 159.34 289.85 159.248C290.206 159.153 290.556 159.106 290.9 159.106C291.12 159.106 291.372 159.133 291.657 159.186C291.945 159.237 292.223 159.342 292.49 159.502C292.76 159.663 292.984 159.904 293.162 160.228C293.34 160.552 293.43 160.985 293.43 161.528V166.034H292.379V165.108H292.325C292.254 165.256 292.135 165.415 291.969 165.584C291.803 165.754 291.582 165.898 291.306 166.016C291.03 166.135 290.693 166.194 290.295 166.194ZM290.455 165.251C290.871 165.251 291.221 165.169 291.506 165.006C291.794 164.842 292.011 164.632 292.156 164.373C292.304 164.115 292.379 163.844 292.379 163.559V162.597C292.334 162.65 292.236 162.699 292.085 162.744C291.936 162.785 291.764 162.822 291.568 162.855C291.375 162.885 291.187 162.911 291.003 162.935C290.822 162.956 290.675 162.974 290.562 162.989C290.289 163.024 290.034 163.082 289.796 163.162C289.562 163.239 289.372 163.357 289.226 163.514C289.084 163.668 289.013 163.879 289.013 164.146C289.013 164.511 289.148 164.787 289.418 164.974C289.691 165.159 290.037 165.251 290.455 165.251ZM298.108 168.741C297.6 168.741 297.164 168.676 296.799 168.545C296.434 168.418 296.13 168.249 295.886 168.038C295.646 167.83 295.454 167.607 295.312 167.37L296.149 166.782C296.244 166.907 296.364 167.049 296.51 167.21C296.655 167.373 296.854 167.514 297.106 167.633C297.362 167.754 297.695 167.815 298.108 167.815C298.66 167.815 299.116 167.682 299.475 167.414C299.834 167.147 300.014 166.729 300.014 166.159V164.77H299.925C299.848 164.894 299.738 165.049 299.595 165.233C299.456 165.414 299.254 165.576 298.99 165.718C298.728 165.858 298.375 165.927 297.93 165.927C297.378 165.927 296.882 165.797 296.443 165.535C296.006 165.274 295.661 164.894 295.405 164.396C295.153 163.897 295.027 163.291 295.027 162.579C295.027 161.878 295.15 161.268 295.396 160.749C295.643 160.227 295.986 159.823 296.425 159.538C296.864 159.25 297.372 159.106 297.948 159.106C298.393 159.106 298.746 159.18 299.008 159.329C299.272 159.474 299.474 159.64 299.613 159.827C299.756 160.011 299.865 160.163 299.943 160.281H300.049V159.195H301.065V166.23C301.065 166.818 300.931 167.296 300.664 167.664C300.4 168.035 300.043 168.306 299.595 168.479C299.15 168.654 298.654 168.741 298.108 168.741ZM298.072 164.983C298.494 164.983 298.85 164.887 299.141 164.694C299.432 164.501 299.653 164.223 299.805 163.861C299.956 163.499 300.032 163.066 300.032 162.561C300.032 162.068 299.957 161.634 299.809 161.257C299.661 160.88 299.441 160.584 299.15 160.37C298.859 160.157 298.5 160.05 298.072 160.05C297.627 160.05 297.256 160.163 296.959 160.388C296.665 160.614 296.444 160.917 296.296 161.297C296.15 161.677 296.078 162.098 296.078 162.561C296.078 163.036 296.152 163.456 296.3 163.821C296.452 164.183 296.674 164.468 296.968 164.676C297.265 164.881 297.633 164.983 298.072 164.983ZM305.856 166.177C305.197 166.177 304.628 166.031 304.15 165.74C303.675 165.446 303.309 165.037 303.05 164.511C302.795 163.983 302.668 163.369 302.668 162.668C302.668 161.967 302.795 161.35 303.05 160.816C303.309 160.278 303.668 159.86 304.128 159.56C304.591 159.257 305.131 159.106 305.749 159.106C306.105 159.106 306.457 159.165 306.804 159.284C307.151 159.403 307.467 159.596 307.752 159.863C308.037 160.127 308.264 160.477 308.434 160.914C308.603 161.35 308.687 161.887 308.687 162.526V162.971H303.416V162.062H307.619C307.619 161.677 307.542 161.332 307.387 161.029C307.236 160.727 307.019 160.488 306.737 160.313C306.458 160.137 306.129 160.05 305.749 160.05C305.33 160.05 304.968 160.154 304.662 160.362C304.36 160.566 304.127 160.834 303.963 161.163C303.8 161.493 303.718 161.846 303.718 162.223V162.828C303.718 163.345 303.807 163.783 303.986 164.142C304.167 164.498 304.417 164.77 304.738 164.957C305.059 165.141 305.431 165.233 305.856 165.233C306.132 165.233 306.381 165.194 306.604 165.117C306.829 165.037 307.024 164.918 307.187 164.761C307.35 164.6 307.476 164.402 307.565 164.164L308.581 164.449C308.474 164.793 308.294 165.096 308.042 165.357C307.79 165.616 307.478 165.817 307.107 165.963C306.736 166.105 306.319 166.177 305.856 166.177Z" fill="white"/>
<path d="M175.119 184.253C170.441 183.702 165.631 182.419 164.291 180.794C161.479 177.415 160.296 172.909 160.795 167.407C161.347 161.041 165.737 154.019 167.261 152.212C169.863 149.094 176.644 149.906 180.691 150.404L181.191 150.456C184.686 150.876 190.547 151.557 191.94 155.775C193.254 159.705 192.808 165.285 191.94 169.188C191.809 169.712 188.97 182.314 184.187 184.043C182.373 184.672 178.773 184.672 175.119 184.253ZM167.918 152.736C166.499 154.439 162.188 161.355 161.663 167.459C161.19 172.725 162.32 177.022 164.974 180.218C167.13 182.812 180.192 184.515 183.871 183.205C187.341 181.973 190.1 173.354 191.073 168.979C191.888 165.363 192.361 159.783 191.099 156.011C189.943 152.605 185.317 151.793 181.059 151.295L180.56 151.242C176.933 150.797 170.205 149.985 167.918 152.736Z" fill="#9B7A56"/>
<path d="M183.372 174.323C185.369 172.673 189.732 175.083 189.732 175.083C189.732 175.083 186.972 182.419 184.791 184.488C182.61 186.558 175.04 187.108 171.44 186.977C167.865 186.846 157.694 185.458 154.382 182.235C151.071 179.039 151.439 175.004 151.964 172.254C152.49 169.503 154.119 168.036 155.355 168.298C156.59 168.533 161.084 169.948 161.084 169.948C161.084 169.948 161.111 174.559 162.425 176.969C163.739 179.38 163.923 181.161 167.445 182.157C170.993 183.126 176.617 183.964 176.617 183.964C176.617 183.964 181.637 175.764 183.372 174.323Z" fill="#9B7A56"/>
<path d="M166.895 181.921C166.816 181.894 166.764 181.816 166.764 181.737L172.966 150.954C172.993 150.875 173.045 150.823 173.124 150.849C173.203 150.875 173.255 150.954 173.229 151.006L167.053 181.816C167.026 181.868 166.974 181.921 166.895 181.921Z" fill="#9B7A56"/>
<path d="M180.746 184.228C180.641 184.201 180.615 184.123 180.615 184.044L188.789 153.601C188.815 153.523 188.894 153.47 188.973 153.497C189.052 153.523 189.104 153.601 189.078 153.68L180.904 184.123C180.904 184.201 180.825 184.228 180.746 184.228Z" fill="#9B7A56"/>
<path d="M174.62 183.494C174.541 183.494 174.489 183.416 174.489 183.337C174.489 183.206 175.461 170.788 181.48 151.348C181.506 151.27 181.585 151.217 181.664 151.244C181.743 151.27 181.795 151.348 181.769 151.427C175.75 170.866 174.778 183.232 174.778 183.363C174.778 183.442 174.699 183.494 174.62 183.494Z" fill="#9B7A56"/>
<path d="M190.389 154.202L170.808 150.849C170.73 150.823 170.677 150.77 170.677 150.692C170.703 150.613 170.756 150.561 170.835 150.561L190.415 153.914C190.494 153.94 190.547 153.993 190.547 154.071C190.52 154.15 190.468 154.202 190.389 154.202Z" fill="#9B7A56"/>
<path d="M191.388 155.722L168.286 151.923C168.207 151.923 168.155 151.845 168.155 151.766C168.155 151.688 168.233 151.635 168.312 151.635L191.388 155.434C191.467 155.434 191.52 155.513 191.52 155.591C191.52 155.696 191.467 155.748 191.388 155.722Z" fill="#9B7A56"/>
<path d="M191.862 157.346C191.836 157.346 191.836 157.346 191.862 157.346L167.551 153.18C167.472 153.154 167.42 153.102 167.42 153.023C167.446 152.944 167.499 152.892 167.577 152.892L191.889 157.031C191.968 157.058 192.02 157.11 192.02 157.189C191.994 157.293 191.915 157.346 191.862 157.346Z" fill="#9B7A56"/>
<path d="M188 158.422C185.634 158.134 182.586 157.715 180.352 157.165C176.173 156.143 167.105 154.152 167.026 154.126C166.947 154.099 166.895 154.021 166.921 153.942C166.947 153.864 167.026 153.811 167.105 153.837C167.184 153.864 176.251 155.828 180.457 156.876C184.636 157.898 191.653 158.501 191.732 158.501C191.811 158.501 191.863 158.579 191.863 158.658C191.863 158.737 191.784 158.789 191.706 158.789C191.653 158.815 190.076 158.684 188 158.422Z" fill="#9B7A56"/>
<path d="M185.739 159.572C183.978 159.363 182.007 159.074 180.036 158.681C174.175 157.503 166.211 155.407 166.132 155.38C166.053 155.354 166.001 155.276 166.027 155.197C166.053 155.118 166.132 155.066 166.211 155.092C166.29 155.118 174.227 157.214 180.088 158.393C185.923 159.572 191.889 159.808 191.942 159.808C192.02 159.808 192.073 159.887 192.073 159.965C192.073 160.044 191.994 160.096 191.915 160.096C191.889 160.096 189.235 159.991 185.739 159.572Z" fill="#9B7A56"/>
<path d="M187.787 161.146C185.737 160.91 182.978 160.517 179.771 159.915C172.701 158.578 165.5 156.587 165.421 156.561C165.342 156.535 165.29 156.456 165.316 156.378C165.342 156.299 165.421 156.247 165.5 156.273C165.579 156.299 172.78 158.29 179.824 159.626C186.868 160.962 191.73 161.224 191.782 161.251C191.861 161.251 191.914 161.329 191.914 161.408C191.914 161.486 191.835 161.539 191.756 161.539C191.73 161.539 190.258 161.46 187.787 161.146Z" fill="#9B7A56"/>
<path d="M187.288 162.717C185.16 162.455 182.453 162.062 179.43 161.407C172.491 159.888 164.791 157.871 164.712 157.871C164.633 157.844 164.58 157.766 164.607 157.687C164.633 157.609 164.712 157.556 164.791 157.582C164.87 157.609 172.544 159.626 179.483 161.119C186.421 162.639 191.809 162.822 191.862 162.822C191.94 162.822 191.993 162.901 191.993 162.979C191.993 163.058 191.914 163.11 191.835 163.11C191.835 163.11 190.074 163.032 187.288 162.717Z" fill="#9B7A56"/>
<path d="M191.1 164.368C189.471 164.185 184.74 163.582 178.826 162.666C171.467 161.513 164.213 159.26 164.134 159.233C164.055 159.207 164.003 159.129 164.029 159.05C164.055 158.971 164.134 158.919 164.213 158.945C164.292 158.971 171.546 161.225 178.852 162.377C186.185 163.53 191.678 164.133 191.731 164.159C191.81 164.159 191.862 164.237 191.862 164.316C191.862 164.395 191.783 164.447 191.705 164.447C191.678 164.447 191.468 164.421 191.1 164.368Z" fill="#9B7A56"/>
<path d="M190.785 165.703C189.234 165.52 185.318 165.022 178.879 164.053C170.337 162.769 163.556 160.437 163.504 160.437C163.425 160.411 163.398 160.333 163.425 160.254C163.451 160.175 163.53 160.149 163.609 160.175C163.687 160.202 170.416 162.507 178.931 163.791C187.447 165.074 191.547 165.52 191.599 165.52C191.678 165.52 191.731 165.598 191.731 165.677C191.731 165.756 191.652 165.808 191.573 165.808C191.521 165.782 191.284 165.756 190.785 165.703Z" fill="#9B7A56"/>
<path d="M188.63 167.041C186.632 166.805 183.399 166.36 178.458 165.522C168.629 163.871 163.136 161.644 163.083 161.618C163.004 161.592 162.978 161.513 163.004 161.435C163.031 161.356 163.109 161.33 163.188 161.356C163.241 161.382 168.708 163.609 178.511 165.26C188.314 166.91 191.363 167.015 191.389 167.015C191.468 167.015 191.521 167.094 191.521 167.172C191.521 167.251 191.442 167.303 191.363 167.303C191.363 167.303 190.601 167.277 188.63 167.041Z" fill="#9B7A56"/>
<path d="M185.345 167.957C183.427 167.721 181.061 167.407 178.249 166.909C169.812 165.468 162.585 162.77 162.506 162.743C162.427 162.717 162.401 162.639 162.427 162.56C162.453 162.482 162.532 162.455 162.611 162.482C162.69 162.508 169.891 165.18 178.301 166.647C186.633 168.088 191.18 168.167 191.232 168.167C191.311 168.167 191.364 168.245 191.364 168.324C191.364 168.402 191.285 168.455 191.206 168.455C191.206 168.455 189.182 168.402 185.345 167.957Z" fill="#9B7A56"/>
<path d="M185.475 169.554C173.122 168.087 162.241 164.184 162.136 164.131C162.057 164.105 162.031 164.026 162.057 163.948C162.084 163.869 162.162 163.843 162.241 163.869C162.373 163.922 176.486 168.978 190.784 169.711C190.863 169.711 190.915 169.79 190.915 169.869C190.915 169.947 190.837 170 190.758 170C188.97 169.921 187.21 169.764 185.475 169.554Z" fill="#9B7A56"/>
<path d="M186.527 170.996C184.477 170.76 181.56 170.341 177.644 169.712C165.343 167.721 162.058 165.625 161.927 165.547C161.848 165.494 161.848 165.416 161.874 165.337C161.927 165.259 162.006 165.259 162.084 165.285C162.111 165.311 165.475 167.433 177.696 169.398C189.208 171.258 190.469 170.97 190.575 170.944C190.627 170.917 190.706 170.917 190.759 170.97C190.811 171.022 190.811 171.127 190.732 171.179C190.548 171.337 189.287 171.337 186.527 170.996Z" fill="#9B7A56"/>
<path d="M187.052 172.568C185.028 172.332 181.848 171.86 177.038 170.996C167.182 169.188 161.847 166.83 161.794 166.804C161.715 166.778 161.689 166.673 161.715 166.621C161.742 166.542 161.847 166.516 161.899 166.542C161.952 166.568 167.261 168.926 177.091 170.708C186.92 172.489 189.995 172.542 190.022 172.542C190.101 172.542 190.153 172.594 190.153 172.699C190.153 172.777 190.101 172.856 189.995 172.83C189.995 172.83 189.181 172.804 187.052 172.568Z" fill="#9B7A56"/>
<path d="M188.865 174.349C187.42 174.192 184.056 173.72 176.854 172.462C166.131 170.629 161.61 168.428 161.584 168.402C161.505 168.375 161.479 168.271 161.505 168.218C161.532 168.14 161.637 168.114 161.689 168.14C161.742 168.166 166.21 170.314 176.88 172.174C187.551 174.008 189.785 174.139 189.811 174.139C189.89 174.139 189.943 174.218 189.943 174.296C189.943 174.375 189.864 174.427 189.785 174.427C189.811 174.454 189.575 174.427 188.865 174.349Z" fill="#9B7A56"/>
<path d="M187.787 175.843C186.289 175.66 183.109 175.214 176.696 174.035C166.551 172.201 161.715 170.001 161.662 169.974C161.584 169.948 161.557 169.843 161.584 169.791C161.61 169.712 161.715 169.686 161.768 169.712C161.82 169.739 166.63 171.913 176.722 173.747C186.815 175.581 188.97 175.66 188.97 175.66C189.049 175.66 189.101 175.738 189.101 175.817C189.101 175.895 189.023 175.948 188.944 175.948C188.944 175.948 188.655 175.948 187.787 175.843Z" fill="#9B7A56"/>
<path d="M186.5 176.917C184.844 176.734 181.795 176.315 176.276 175.424C165.973 173.773 161.689 171.389 161.637 171.363C161.558 171.311 161.532 171.232 161.584 171.153C161.637 171.075 161.716 171.049 161.794 171.101C161.847 171.127 166.105 173.485 176.329 175.136C186.553 176.786 188.34 176.812 188.34 176.812C188.419 176.812 188.498 176.865 188.471 176.969C188.471 177.048 188.419 177.127 188.314 177.127C188.34 177.1 187.946 177.074 186.5 176.917Z" fill="#9B7A56"/>
<path d="M183.531 177.729C181.744 177.52 179.274 177.179 175.909 176.681C165.922 175.162 162.032 172.778 161.98 172.778C161.901 172.725 161.901 172.647 161.927 172.568C161.98 172.489 162.059 172.489 162.137 172.516C162.164 172.542 166.053 174.874 175.962 176.393C185.87 177.913 187.973 177.834 187.999 177.834C188.078 177.834 188.157 177.886 188.157 177.965C188.157 178.044 188.104 178.122 188.026 178.122C187.947 178.122 187.027 178.148 183.531 177.729Z" fill="#9B7A56"/>
<path d="M185.239 179.564C183.609 179.381 180.718 178.961 175.724 178.123C165.343 176.368 162.11 174.612 161.979 174.534C161.9 174.508 161.873 174.403 161.926 174.35C161.979 174.298 162.057 174.246 162.11 174.298C162.136 174.324 165.474 176.106 175.777 177.835C185.975 179.564 187.289 179.459 187.341 179.459C187.42 179.459 187.499 179.512 187.499 179.59C187.499 179.669 187.446 179.747 187.367 179.747C187.341 179.747 187 179.774 185.239 179.564Z" fill="#9B7A56"/>
<path d="M183.319 180.454C181.4 180.218 178.772 179.877 175.513 179.432C164.684 177.965 162.582 176.157 162.503 176.078C162.45 176.026 162.45 175.921 162.503 175.869C162.556 175.816 162.661 175.816 162.713 175.869C162.74 175.895 164.868 177.703 175.565 179.17C185.579 180.532 186.657 180.506 186.736 180.506C186.788 180.48 186.867 180.532 186.893 180.585C186.919 180.663 186.893 180.742 186.841 180.768C186.709 180.82 185.474 180.716 183.319 180.454Z" fill="#9B7A56"/>
<path d="M181.376 181.843C179.667 181.633 177.538 181.319 175.068 180.899C164.607 179.118 163.451 177.834 163.398 177.782C163.346 177.729 163.346 177.625 163.425 177.572C163.477 177.52 163.582 177.52 163.635 177.598C163.688 177.651 164.949 178.882 175.12 180.611C184.608 182.236 185.739 181.764 185.844 181.712C185.896 181.659 185.949 181.659 186.001 181.685C186.08 181.712 186.107 181.79 186.08 181.869C185.923 182.209 184.24 182.183 181.376 181.843Z" fill="#9B7A56"/>
<path d="M180.613 182.864C179.22 182.707 177.354 182.471 174.91 182.104C170.731 181.502 167.025 180.611 164.476 179.616C164.423 179.589 164.397 179.589 164.371 179.563C164.344 179.563 164.292 179.537 164.265 179.511C164.213 179.458 164.213 179.38 164.265 179.327C164.344 179.249 164.397 179.275 164.581 179.327C167.104 180.323 170.784 181.188 174.936 181.79C182.216 182.838 184.293 182.89 184.293 182.89C184.372 182.89 184.424 182.969 184.424 183.048C184.424 183.126 184.345 183.179 184.266 183.179C184.293 183.231 183.373 183.179 180.613 182.864Z" fill="#9B7A56"/>
<path d="M149.363 204.399C149.337 204.399 149.311 204.399 149.311 204.399C149.074 204.347 148.943 204.111 148.995 203.875L154.488 183.048C154.541 182.812 154.778 182.681 155.014 182.733C155.251 182.786 155.382 183.021 155.329 183.257L149.836 204.085C149.784 204.268 149.574 204.426 149.363 204.399Z" fill="black"/>
<path d="M162.427 199.682C162.19 199.656 162.006 199.447 162.059 199.211L163.557 186.688C163.583 186.452 163.793 186.269 164.03 186.321C164.266 186.347 164.45 186.557 164.398 186.793L162.9 199.316C162.9 199.525 162.663 199.709 162.427 199.682Z" fill="black"/>
<path d="M182.822 205.003C182.612 204.977 182.454 204.82 182.428 204.61L181.193 186.716C181.167 186.48 181.351 186.271 181.587 186.245C181.824 186.218 182.034 186.402 182.06 186.638L183.296 204.531C183.322 204.767 183.138 204.977 182.901 205.003C182.875 205.003 182.849 205.003 182.822 205.003Z" fill="black"/>
<path d="M171.307 210.242C171.071 210.216 170.913 210.007 170.913 209.771L173.015 187.502C173.042 187.266 173.252 187.083 173.489 187.109C173.725 187.135 173.883 187.345 173.883 187.581L171.78 209.849C171.754 210.085 171.544 210.269 171.307 210.242Z" fill="black"/>
<path d="M153.069 192.216C152.859 192.19 152.675 192.007 152.675 191.771C152.675 191.535 152.885 191.352 153.121 191.352L181.664 192.347C181.901 192.347 182.085 192.557 182.085 192.792C182.085 193.028 181.874 193.212 181.638 193.212L153.095 192.216H153.069Z" fill="black"/>
<path d="M172.334 196.932C172.255 196.932 172.176 196.879 172.098 196.827L163.713 189.387C163.53 189.229 163.53 188.941 163.687 188.784C163.845 188.601 164.134 188.601 164.292 188.758L172.676 196.198C172.86 196.355 172.86 196.644 172.702 196.801C172.597 196.879 172.466 196.932 172.334 196.932Z" fill="black"/>
<path d="M167.865 187.762C158.929 186.714 155.118 184.147 154.96 184.016C154.698 183.832 154.619 183.465 154.803 183.203C154.987 182.941 155.355 182.863 155.617 183.046C155.644 183.072 159.56 185.666 168.575 186.662C177.616 187.631 181.611 185.797 181.663 185.771C181.952 185.64 182.294 185.745 182.426 186.033C182.557 186.321 182.452 186.662 182.163 186.793C181.979 186.871 177.826 188.784 168.443 187.788C168.286 187.814 168.075 187.788 167.865 187.762Z" fill="black"/>
<path d="M125.026 147.494C125 147.494 124.947 147.494 124.921 147.494C122.135 147.73 120.663 146.498 120.4 143.721C120.269 142.123 121.084 141.521 121.583 141.285C122.503 140.892 123.633 141.18 124.106 141.678C124.842 142.49 124.684 143.25 124.316 143.669C123.948 144.114 123.318 144.193 122.871 143.905C122.74 143.826 122.713 143.669 122.792 143.538C122.871 143.407 123.029 143.381 123.16 143.459C123.449 143.643 123.738 143.512 123.922 143.328C124.159 143.066 124.211 142.595 123.712 142.045C123.423 141.73 122.529 141.494 121.82 141.783C121.163 142.071 120.873 142.726 120.952 143.669C121.163 146.158 122.372 147.18 124.868 146.944C125.867 146.865 126.734 146.263 127.313 145.267C128.022 144.036 128.075 142.438 127.47 141.128C126.261 138.534 124.159 136.517 120.479 134.342C119.927 134.028 119.323 133.687 118.771 133.373C116.852 132.299 114.881 131.198 113.33 129.81C111.543 128.238 110.571 126.535 110.387 124.596C110.019 121.007 112.174 119.068 114.355 118.806H114.382C115.906 118.623 116.984 119.75 117.299 121.872C117.509 123.365 116.957 124.858 116.037 125.278C115.486 125.54 114.907 125.356 114.434 124.832C113.567 123.81 113.909 123.024 114.093 122.736C114.382 122.291 114.907 122.029 115.275 122.134C115.538 122.212 115.67 122.422 115.67 122.71C115.67 122.867 115.538 122.972 115.407 122.972C115.249 122.972 115.144 122.841 115.144 122.71C115.144 122.658 115.144 122.631 115.144 122.631C115.091 122.605 114.855 122.658 114.644 122.893C114.461 123.103 114.145 123.627 114.855 124.465C115.17 124.832 115.486 124.937 115.827 124.78C116.432 124.492 116.984 123.339 116.773 121.95C116.616 120.902 116.116 119.147 114.461 119.33H114.434C112.516 119.566 110.597 121.295 110.939 124.518C111.359 128.552 115.275 130.753 119.06 132.875C119.638 133.19 120.216 133.53 120.795 133.871C124.579 136.098 126.734 138.193 128.022 140.892C128.732 142.385 128.679 144.141 127.865 145.529C127.129 146.656 126.13 147.363 125.026 147.494Z" fill="black"/>
<path d="M137.668 205.681C137.51 205.681 137.379 205.576 137.352 205.419C137.326 204.921 134.251 156.139 133.962 153.834C133.331 148.463 131.964 146.184 129.284 145.974C128.18 145.896 127.207 146.21 126.524 146.917C125.867 147.599 125.578 148.594 125.709 149.694C125.998 152.078 127.707 153.284 129.205 153.126C129.757 153.048 130.151 152.786 130.309 152.367C130.519 151.816 130.361 151.057 129.888 150.507C129.625 150.192 128.968 150.245 128.653 150.507C128.416 150.69 128.416 150.926 128.653 151.24C128.732 151.371 128.705 151.528 128.6 151.607C128.469 151.686 128.311 151.659 128.232 151.555C127.759 150.926 127.969 150.376 128.337 150.087C128.863 149.668 129.862 149.616 130.335 150.166C130.939 150.873 131.123 151.843 130.834 152.576C130.598 153.205 130.046 153.598 129.284 153.677C128.364 153.781 127.418 153.467 126.655 152.786C125.867 152.078 125.341 151.004 125.184 149.773C125.026 148.489 125.368 147.363 126.156 146.551C126.944 145.738 128.075 145.345 129.336 145.45C130.887 145.581 132.07 146.341 132.884 147.782C133.647 149.092 134.146 151.004 134.488 153.808C134.75 156.113 137.747 203.402 137.878 205.419C137.904 205.55 137.799 205.655 137.668 205.681Z" fill="black"/>
<path d="M135.199 198.057C134.989 198.083 134.753 198.083 134.49 198.057C133.622 197.978 130.179 196.904 127.157 195.882C124.187 194.887 120.77 193.629 120.034 193.158C118.589 192.214 118.589 190.564 118.747 190.092C118.852 189.778 119.299 189.516 119.745 189.516C120.245 189.49 120.665 189.752 120.902 190.25C121.059 190.616 121.086 190.931 120.928 191.166C120.691 191.533 120.218 191.533 120.166 191.533C120.008 191.533 119.903 191.402 119.903 191.271C119.903 191.114 120.034 191.009 120.166 191.009C120.245 191.009 120.429 190.983 120.481 190.904C120.534 190.826 120.507 190.695 120.429 190.485C120.271 190.145 120.008 190.066 119.798 190.066C119.509 190.066 119.298 190.223 119.272 190.302C119.167 190.59 119.167 191.952 120.35 192.738C120.902 193.105 123.714 194.179 127.341 195.411C130.889 196.616 133.859 197.507 134.542 197.559C135.173 197.638 135.672 197.507 135.988 197.192C136.277 196.904 136.382 196.485 136.33 195.987C136.224 195.044 135.462 194.127 134.858 194.205C134.595 194.232 134.569 194.572 134.569 194.651C134.569 194.913 134.7 195.149 134.831 195.175C134.989 195.175 135.094 195.306 135.068 195.463C135.068 195.62 134.937 195.725 134.779 195.699C134.28 195.673 134.017 195.149 134.017 194.651C134.017 194.101 134.306 193.708 134.779 193.655C135.778 193.524 136.698 194.756 136.829 195.908C136.908 196.563 136.75 197.166 136.356 197.559C136.146 197.742 135.778 198.004 135.199 198.057Z" fill="black"/>
<path d="M117.249 195.045C117.249 195.045 118.274 193.578 118.747 193.526C119.22 193.473 120.876 194.6 120.876 194.6L117.249 195.045Z" fill="black"/>
<path d="M133.595 177.046C133.569 177.046 133.543 177.046 133.517 177.046C132.728 177.098 128.838 176.522 125.527 175.893C122.898 175.421 118.378 174.505 117.668 173.902C116.407 172.854 116.17 171.256 116.775 170.496C117.09 170.077 117.484 169.998 117.747 170.025C118.141 170.051 118.562 170.287 118.798 170.627C119.087 171.046 118.982 171.701 118.693 172.042C118.509 172.278 118.246 172.33 118.01 172.225C117.878 172.173 117.8 172.016 117.852 171.885C117.905 171.754 118.062 171.675 118.194 171.727C118.22 171.727 118.273 171.675 118.325 171.544C118.404 171.334 118.404 171.046 118.325 170.915C118.194 170.706 117.931 170.549 117.694 170.549C117.484 170.549 117.327 170.627 117.169 170.811C116.722 171.387 116.985 172.644 117.984 173.457C118.43 173.823 121.427 174.557 125.605 175.343C129.232 175.998 132.833 176.522 133.464 176.469C133.963 176.443 134.41 176.129 134.673 175.631C134.988 175.055 134.988 174.374 134.699 173.85C134.279 173.116 133.779 172.618 133.385 172.618C133.201 172.618 133.07 172.697 132.912 172.906C132.781 173.09 132.754 173.221 132.781 173.352C132.859 173.561 133.149 173.692 133.227 173.719C133.359 173.771 133.438 173.928 133.385 174.059C133.333 174.19 133.175 174.269 133.043 174.216C132.991 174.19 132.439 174.007 132.281 173.509C132.229 173.299 132.202 172.985 132.492 172.592C132.807 172.147 133.175 172.068 133.438 172.094C134.016 172.12 134.673 172.671 135.199 173.614C135.593 174.295 135.567 175.186 135.199 175.893C134.804 176.548 134.252 176.967 133.595 177.046Z" fill="black"/>
<path d="M114.12 147.388C113.778 147.44 113.542 147.283 113.384 146.969C113.332 146.838 113.384 146.681 113.516 146.602C113.647 146.55 113.805 146.602 113.884 146.733C113.936 146.838 113.962 146.864 114.068 146.838C114.278 146.812 114.646 146.654 115.171 146.445L115.329 146.392C115.671 146.235 115.986 145.868 116.196 145.344C116.591 144.349 116.564 143.039 116.118 142.122C115.671 141.205 115.014 140.864 114.541 140.864C114.225 140.864 114.015 140.995 113.884 141.231C113.621 141.781 113.568 142.541 113.778 142.987C113.831 143.091 113.91 143.196 114.015 143.222C114.068 143.249 114.094 143.222 114.146 143.196C114.304 143.091 114.435 142.698 114.462 142.436C114.488 142.279 114.619 142.174 114.777 142.201C114.935 142.227 115.04 142.358 115.014 142.515C115.014 142.594 114.882 143.353 114.462 143.642C114.304 143.746 114.094 143.772 113.91 143.72C113.647 143.642 113.463 143.458 113.332 143.17C113.069 142.594 113.121 141.65 113.437 140.969C113.647 140.55 114.068 140.288 114.593 140.288C115.382 140.288 116.196 140.917 116.643 141.86C117.143 142.908 117.169 144.375 116.722 145.502C116.459 146.183 116.065 146.654 115.566 146.838L115.382 146.969C114.777 147.205 114.409 147.362 114.12 147.388Z" fill="black"/>
<path d="M119.56 198.871C119.402 198.897 119.271 198.792 119.271 198.635L110.335 124.624C110.308 124.467 110.413 124.336 110.571 124.336C110.729 124.309 110.86 124.414 110.86 124.571L119.796 198.582C119.823 198.74 119.717 198.871 119.56 198.871Z" fill="black"/>
<path d="M133.962 200.755C133.936 200.755 133.91 200.755 133.857 200.729L119.113 194.441C119.034 194.415 118.981 194.31 119.008 194.205C119.034 194.127 119.139 194.074 119.218 194.101L135.986 199.078C136.091 199.105 136.144 199.209 136.117 199.314C136.091 199.419 135.986 199.471 135.881 199.445L122.135 195.358L133.989 200.414C134.067 200.441 134.12 200.572 134.094 200.65C134.094 200.703 134.041 200.755 133.962 200.755Z" fill="black"/>
<path d="M128.365 203.008C128.313 203.008 128.26 203.008 128.208 202.956L119.061 194.258C118.983 194.206 118.983 194.101 119.035 194.022C119.088 193.944 119.193 193.944 119.272 193.97L131.493 201.489C131.572 201.541 131.598 201.646 131.546 201.725C131.493 201.803 131.388 201.829 131.309 201.777L120.533 195.149L128.444 202.668C128.523 202.746 128.523 202.851 128.444 202.93C128.444 202.982 128.418 203.008 128.365 203.008Z" fill="black"/>
<path d="M122.636 204.45C122.557 204.45 122.479 204.424 122.452 204.319L119.036 194.206C119.009 194.128 119.036 194.023 119.141 193.997C119.22 193.944 119.325 193.997 119.377 194.049L125.501 203.533C125.554 203.612 125.527 203.716 125.449 203.769C125.37 203.821 125.265 203.795 125.212 203.716L119.877 195.438L122.847 204.188C122.873 204.293 122.82 204.371 122.741 204.424C122.663 204.424 122.663 204.424 122.636 204.45Z" fill="black"/>
<path d="M119.796 204.789C119.69 204.789 119.612 204.71 119.585 204.632L119.007 194.152C119.007 194.047 119.086 193.969 119.165 193.969C119.27 193.969 119.349 194.047 119.349 194.126L119.927 204.605C119.953 204.684 119.874 204.763 119.796 204.789Z" fill="black"/>
<path d="M118.876 175.528L114.881 176.026C114.749 176.052 114.644 175.974 114.592 175.843C114.539 175.712 114.592 175.581 114.697 175.528L116.615 174.402C116.694 174.376 116.773 174.349 116.826 174.376L118.902 175.031C119.033 175.057 119.112 175.188 119.086 175.319C119.112 175.424 119.007 175.528 118.876 175.528ZM116.116 175.345L117.588 175.162L116.826 174.926L116.116 175.345Z" fill="black"/>
<path d="M132.07 178.93C132.044 178.93 132.018 178.93 131.992 178.93L116.748 174.922C116.643 174.896 116.59 174.791 116.616 174.712C116.643 174.608 116.721 174.555 116.827 174.581L134.383 177.778C134.488 177.804 134.541 177.882 134.541 177.987C134.515 178.092 134.436 178.144 134.331 178.144L121.4 175.787L132.097 178.59C132.202 178.616 132.254 178.721 132.228 178.799C132.202 178.878 132.123 178.93 132.07 178.93Z" fill="black"/>
<path d="M126.158 180.924C126.105 180.924 126.079 180.924 126.026 180.898L116.696 174.924C116.617 174.872 116.591 174.767 116.643 174.689C116.696 174.61 116.775 174.584 116.88 174.61L129.311 179.876C129.39 179.902 129.443 180.033 129.417 180.112C129.39 180.19 129.259 180.243 129.18 180.216L118.693 175.763L126.236 180.609C126.315 180.662 126.342 180.767 126.289 180.845C126.236 180.898 126.21 180.924 126.158 180.924Z" fill="black"/>
<path d="M119.376 182.312C119.297 182.312 119.219 182.286 119.192 182.181L116.643 174.819C116.617 174.741 116.643 174.662 116.722 174.61C116.801 174.557 116.879 174.583 116.958 174.636L123.45 181.421C123.529 181.5 123.529 181.605 123.45 181.683C123.371 181.762 123.266 181.762 123.187 181.683L117.274 175.5L119.56 182.076C119.587 182.181 119.534 182.26 119.455 182.312C119.403 182.312 119.376 182.312 119.376 182.312Z" fill="black"/>
<path d="M121.689 155.25C121.663 155.25 121.663 155.25 121.637 155.25L114.172 154.123C114.067 154.097 114.015 154.018 114.015 153.94C114.015 153.835 114.093 153.783 114.199 153.783L126.762 153.756C126.867 153.756 126.946 153.835 126.946 153.94C126.946 154.045 126.867 154.123 126.762 154.123L116.511 154.149L121.663 154.935C121.768 154.961 121.821 155.04 121.821 155.145C121.847 155.171 121.768 155.25 121.689 155.25Z" fill="black"/>
<path d="M119.009 155.588C118.983 155.588 118.957 155.588 118.931 155.588L115.461 154.409L117.117 155.509C117.196 155.561 117.222 155.666 117.17 155.745C117.117 155.823 117.012 155.85 116.933 155.797L114.095 153.937C114.016 153.885 113.989 153.78 114.042 153.701C114.095 153.623 114.173 153.57 114.252 153.623L119.036 155.221C119.141 155.247 119.193 155.352 119.141 155.457C119.141 155.535 119.088 155.561 119.009 155.588Z" fill="black"/>
<path d="M137.939 206.102C138.544 206.028 138.996 205.653 138.948 205.265C138.9 204.877 138.371 204.623 137.766 204.698C137.16 204.772 136.709 205.147 136.757 205.535C136.805 205.922 137.334 206.176 137.939 206.102Z" fill="black"/>
<path d="M119.332 199.051C119.923 198.979 120.375 198.699 120.341 198.426C120.307 198.153 119.801 197.991 119.21 198.063C118.619 198.136 118.168 198.416 118.202 198.689C118.236 198.962 118.742 199.124 119.332 199.051Z" fill="black"/>
<path d="M102.214 150.299C101.11 150.43 99.9795 150.011 99.0859 149.094C97.9558 147.915 97.4827 146.264 97.7981 144.64C98.3763 141.732 99.9533 139.164 103.081 136.099C103.554 135.654 104.027 135.182 104.526 134.737C107.68 131.75 110.939 128.685 110.361 124.65C109.888 121.428 107.628 120.223 105.709 120.458H105.683C104.027 120.668 103.974 122.502 104.08 123.55C104.211 124.938 105.026 125.96 105.683 126.065C106.025 126.144 106.314 125.96 106.55 125.515C107.05 124.545 106.576 124.1 106.366 123.943C106.103 123.76 105.841 123.786 105.814 123.812C105.814 123.812 105.814 123.838 105.814 123.891C105.841 124.048 105.762 124.179 105.63 124.205C105.499 124.231 105.341 124.152 105.315 124.022C105.236 123.733 105.341 123.498 105.551 123.34C105.893 123.131 106.471 123.262 106.866 123.629C107.128 123.864 107.654 124.545 107.05 125.751C106.734 126.379 106.208 126.694 105.604 126.589C104.605 126.406 103.712 125.096 103.554 123.602C103.344 121.454 104.106 120.118 105.63 119.908H105.657C107.838 119.646 110.387 120.982 110.913 124.572C111.202 126.51 110.677 128.397 109.336 130.362C108.153 132.064 106.524 133.61 104.921 135.13C104.448 135.575 103.948 136.047 103.501 136.492C100.453 139.479 98.902 141.968 98.3763 144.771C98.0872 146.212 98.534 147.731 99.5327 148.753C100.321 149.565 101.32 149.932 102.292 149.775C104.763 149.382 105.709 148.098 105.315 145.635C105.157 144.692 104.71 144.116 104.027 144.011C103.239 143.88 102.45 144.352 102.24 144.718C101.898 145.373 102.082 145.793 102.345 146.002C102.555 146.159 102.871 146.186 103.107 145.95C103.212 145.845 103.37 145.845 103.501 145.924C103.607 146.028 103.607 146.186 103.528 146.317C103.16 146.736 102.529 146.788 102.056 146.448C101.609 146.133 101.267 145.426 101.767 144.483C102.082 143.88 103.133 143.33 104.106 143.513C104.658 143.592 105.578 143.985 105.841 145.583C106.287 148.334 105.157 149.88 102.371 150.325C102.292 150.299 102.266 150.299 102.214 150.299Z" fill="black"/>
<path d="M104.132 209.794C104.001 209.82 103.869 209.716 103.843 209.585C103.475 207.594 94.8282 161.012 94.5391 158.707C94.1711 155.93 94.1974 153.939 94.6179 152.472C95.0647 150.874 96.0109 149.852 97.509 149.354C98.718 148.935 99.927 149.066 100.873 149.642C101.819 150.245 102.424 151.267 102.582 152.55C102.739 153.782 102.476 154.934 101.898 155.825C101.346 156.663 100.479 157.214 99.559 157.318C98.7968 157.423 98.166 157.161 97.7981 156.611C97.325 155.956 97.2987 154.961 97.693 154.148C98.0084 153.493 98.9808 153.31 99.6116 153.572C100.032 153.755 100.374 154.227 100.085 154.961C100.032 155.092 99.8744 155.17 99.743 155.118C99.6116 155.065 99.5327 154.908 99.5853 154.777C99.743 154.437 99.6642 154.201 99.4013 154.07C99.0334 153.886 98.3763 154.017 98.1923 154.384C97.8769 155.039 97.9032 155.799 98.2449 156.297C98.5077 156.69 98.9545 156.847 99.5065 156.768C100.978 156.585 102.345 154.987 102.056 152.603C101.924 151.502 101.399 150.612 100.584 150.088C99.7693 149.59 98.7443 149.485 97.693 149.852C95.1436 150.716 94.3814 153.231 95.091 158.602C95.3801 160.881 104.29 208.956 104.395 209.454C104.395 209.637 104.29 209.768 104.132 209.794Z" fill="black"/>
<path d="M104.658 201.829C104.08 201.907 103.686 201.75 103.423 201.593C102.95 201.305 102.634 200.781 102.555 200.099C102.424 198.973 103.029 197.532 104.001 197.427C104.474 197.375 104.868 197.689 104.973 198.213C105.079 198.685 104.947 199.261 104.474 199.418C104.343 199.471 104.185 199.392 104.132 199.235C104.08 199.104 104.159 198.947 104.316 198.894C104.448 198.842 104.527 198.58 104.448 198.318C104.422 198.213 104.343 197.899 104.054 197.951C103.449 198.03 102.95 199.104 103.081 200.021C103.134 200.519 103.37 200.912 103.712 201.121C104.08 201.357 104.606 201.357 105.184 201.147C105.841 200.912 108.495 199.34 111.649 197.296C114.856 195.226 117.326 193.524 117.773 193.026C118.719 191.978 118.404 190.668 118.22 190.406C118.194 190.354 117.931 190.249 117.668 190.301C117.484 190.354 117.221 190.458 117.169 190.851C117.142 191.061 117.142 191.192 117.221 191.27C117.3 191.349 117.484 191.323 117.536 191.297C117.694 191.27 117.826 191.349 117.878 191.48C117.904 191.611 117.826 191.768 117.694 191.821C117.642 191.847 117.169 191.952 116.879 191.663C116.669 191.48 116.59 191.166 116.669 190.773C116.774 190.249 117.116 189.882 117.615 189.803C118.062 189.699 118.535 189.856 118.719 190.118C118.982 190.537 119.376 192.135 118.22 193.393C117.615 194.048 114.593 196.065 111.991 197.768C109.31 199.497 106.235 201.357 105.42 201.671C105.105 201.75 104.868 201.802 104.658 201.829Z" fill="black"/>
<path d="M101.11 181.03C100.453 181.108 99.8219 180.846 99.3225 180.322C98.7706 179.72 98.5603 178.855 98.7443 178.095C99.0334 177.074 99.5065 176.366 100.058 176.209C100.295 176.13 100.689 176.13 101.083 176.471C101.451 176.785 101.504 177.1 101.504 177.309C101.478 177.807 100.978 178.148 100.926 178.174C100.794 178.253 100.637 178.226 100.558 178.095C100.479 177.964 100.505 177.807 100.637 177.729C100.715 177.676 100.952 177.467 100.978 177.283C100.978 177.152 100.899 177.021 100.742 176.89C100.558 176.733 100.4 176.681 100.216 176.733C99.8481 176.838 99.4802 177.44 99.2436 178.253C99.086 178.829 99.2699 179.484 99.6904 179.982C100.058 180.401 100.558 180.584 101.057 180.506C101.688 180.401 105.052 179.012 108.39 177.493C112.253 175.737 114.987 174.297 115.329 173.825C116.091 172.777 116.038 171.493 115.486 171.048C115.302 170.891 115.092 170.865 114.908 170.917C114.698 170.969 114.487 171.179 114.382 171.415C114.33 171.572 114.382 171.834 114.514 172.017C114.593 172.122 114.671 172.148 114.671 172.148C114.803 172.07 114.961 172.096 115.039 172.201C115.118 172.332 115.092 172.489 114.987 172.567C114.777 172.725 114.514 172.725 114.277 172.541C113.936 172.279 113.673 171.677 113.83 171.205C113.962 170.812 114.304 170.472 114.698 170.367C114.961 170.288 115.329 170.262 115.749 170.603C116.511 171.205 116.695 172.777 115.696 174.113C115.145 174.873 110.966 176.838 108.548 177.938C105.473 179.327 101.846 180.846 101.083 180.977C101.162 181.03 101.136 181.03 101.11 181.03Z" fill="black"/>
<path d="M112.778 147.573H112.752C112.463 147.599 112.095 147.547 111.438 147.442L111.28 147.416C110.754 147.337 110.229 146.997 109.808 146.394C109.099 145.399 108.783 143.984 108.993 142.857C109.204 141.836 109.834 141.023 110.597 140.84C111.096 140.709 111.569 140.866 111.884 141.233C112.384 141.836 112.647 142.726 112.542 143.355C112.489 143.67 112.331 143.905 112.095 144.01C111.911 144.115 111.727 144.115 111.516 144.063C111.017 143.879 110.728 143.172 110.702 143.093C110.649 142.962 110.702 142.805 110.859 142.753C110.991 142.7 111.149 142.753 111.201 142.91C111.306 143.146 111.516 143.512 111.7 143.565C111.727 143.565 111.779 143.591 111.832 143.539C111.937 143.486 111.99 143.355 111.99 143.25C112.068 142.779 111.832 142.045 111.464 141.574C111.28 141.364 111.043 141.285 110.728 141.364C110.281 141.469 109.703 141.967 109.519 142.962C109.335 143.958 109.624 145.241 110.229 146.106C110.57 146.578 110.938 146.84 111.333 146.918L111.49 146.944C112.068 147.023 112.463 147.075 112.673 147.075C112.804 147.075 112.804 147.049 112.831 146.918C112.857 146.761 112.988 146.682 113.146 146.709C113.304 146.735 113.383 146.866 113.356 147.023C113.33 147.337 113.12 147.521 112.778 147.573Z" fill="black"/>
<path d="M106.524 204.135C106.471 204.135 106.393 204.109 106.366 204.057C106.314 203.978 106.314 203.873 106.393 203.795L116.643 196.014L104.29 203.323C104.211 203.375 104.106 203.349 104.053 203.271C104.001 203.192 104.027 203.087 104.106 203.035L119.14 194.127C119.218 194.075 119.324 194.101 119.376 194.18C119.429 194.258 119.402 194.363 119.324 194.416L106.603 204.083C106.577 204.109 106.55 204.135 106.524 204.135Z" fill="black"/>
<path d="M112.516 204.949C112.463 204.949 112.437 204.949 112.411 204.923C112.332 204.87 112.306 204.765 112.358 204.687L118.193 195.491L109.336 204.53C109.257 204.608 109.152 204.608 109.073 204.53C108.994 204.451 108.994 204.346 109.073 204.268L119.113 193.998C119.166 193.919 119.271 193.919 119.35 193.972C119.428 194.024 119.428 194.129 119.402 194.207L112.647 204.87C112.621 204.923 112.569 204.949 112.516 204.949Z" fill="black"/>
<path d="M118.404 204.948H118.378C118.273 204.948 118.194 204.843 118.22 204.764L118.956 195.568L115.776 204.869C115.75 204.974 115.645 205 115.539 204.974C115.434 204.948 115.408 204.843 115.434 204.738L119.061 194.049C119.088 193.97 119.166 193.918 119.272 193.918C119.35 193.944 119.429 194.023 119.403 194.101L118.536 204.738C118.562 204.869 118.483 204.948 118.404 204.948Z" fill="black"/>
<path d="M103.055 182.522C102.976 182.522 102.924 182.496 102.871 182.444C102.818 182.365 102.845 182.26 102.95 182.208L112.622 176.89L100.663 182.287C100.584 182.339 100.453 182.287 100.427 182.208C100.374 182.129 100.427 181.998 100.506 181.972L116.748 174.61C116.827 174.558 116.932 174.61 116.985 174.689C117.037 174.768 116.985 174.872 116.906 174.925L103.107 182.496C103.107 182.496 103.081 182.496 103.055 182.522Z" fill="black"/>
<path d="M109.283 183.02C109.23 183.02 109.177 183.02 109.125 182.968C109.046 182.889 109.046 182.784 109.125 182.706L115.275 176.182L106.181 183.046C106.102 183.099 105.997 183.099 105.918 183.02C105.866 182.942 105.866 182.837 105.945 182.758L116.721 174.637C116.799 174.584 116.905 174.584 116.957 174.663C117.01 174.741 117.01 174.846 116.957 174.899L109.361 182.968C109.361 182.994 109.335 182.994 109.283 183.02Z" fill="black"/>
<path d="M116.197 182.707H116.171C116.066 182.707 115.987 182.602 116.014 182.524L116.618 175.581L112.387 183.021C112.334 183.1 112.229 183.126 112.15 183.1C112.071 183.048 112.045 182.943 112.071 182.864L116.723 174.716C116.776 174.638 116.855 174.612 116.933 174.638C117.012 174.664 117.065 174.743 117.065 174.821L116.381 182.576C116.355 182.628 116.276 182.681 116.197 182.707Z" fill="black"/>
<path d="M107.338 157.004C107.26 157.004 107.181 156.978 107.154 156.9C107.128 156.821 107.154 156.716 107.26 156.664L112.069 154.646L102.134 157.083C102.029 157.109 101.95 157.057 101.924 156.952C101.898 156.847 101.95 156.769 102.056 156.742L114.251 153.729C114.33 153.703 114.435 153.756 114.461 153.834C114.487 153.913 114.435 154.018 114.356 154.044L107.391 156.952C107.365 157.004 107.365 157.004 107.338 157.004Z" fill="black"/>
<path d="M110.019 156.691C109.941 156.691 109.888 156.664 109.835 156.612C109.783 156.533 109.809 156.429 109.888 156.376L114.146 153.652C114.225 153.599 114.33 153.625 114.382 153.678C114.435 153.756 114.435 153.861 114.382 153.914L112.096 156.402C112.017 156.481 111.912 156.481 111.833 156.402C111.754 156.324 111.754 156.219 111.833 156.14L113.173 154.673L110.098 156.638C110.072 156.664 110.046 156.691 110.019 156.691Z" fill="black"/>
<path d="M103.958 210.292C104.563 210.218 105.014 209.843 104.966 209.455C104.918 209.067 104.389 208.813 103.784 208.888C103.179 208.962 102.727 209.337 102.775 209.725C102.823 210.112 103.352 210.366 103.958 210.292Z" fill="black"/>
<path d="M117.352 156.034C114.776 156.348 112.358 156.558 110.308 156.663C104.789 157.003 100.741 156.872 100.715 156.872C100.557 156.872 100.452 156.741 100.452 156.584C100.452 156.427 100.584 156.322 100.741 156.322C100.794 156.322 104.815 156.453 110.308 156.113C115.381 155.798 122.766 155.039 129.205 153.126C129.337 153.074 129.494 153.152 129.547 153.309C129.599 153.44 129.521 153.598 129.363 153.65C125.473 154.803 121.242 155.562 117.352 156.034Z" fill="black"/>
<path d="M118.903 182.471C118.456 182.523 117.983 182.576 117.536 182.628C107.102 183.598 99.3747 182.314 99.2958 182.288C99.1381 182.261 99.0593 182.13 99.0855 181.973C99.1118 181.816 99.2432 181.738 99.4009 181.764C99.4798 181.79 107.128 183.074 117.483 182.104C127.839 181.135 135.618 176.917 135.697 176.865C135.828 176.786 135.986 176.838 136.065 176.969C136.144 177.1 136.091 177.258 135.96 177.336C135.934 177.336 133.962 178.436 130.703 179.615C127.97 180.611 123.791 181.869 118.903 182.471Z" fill="black"/>
<path d="M120.688 204.764C113.986 205.576 109.544 205.157 107.021 204.633C104.235 204.057 103.079 203.297 103.026 203.271C102.895 203.192 102.868 203.009 102.947 202.904C103.026 202.773 103.21 202.747 103.315 202.825C103.315 202.825 104.472 203.585 107.152 204.109C109.649 204.607 113.986 205.026 120.583 204.214C127.18 203.402 131.28 201.804 133.566 200.625C136.037 199.341 136.957 198.24 136.957 198.214C137.062 198.11 137.22 198.083 137.325 198.162C137.43 198.267 137.456 198.424 137.377 198.529C137.351 198.581 136.405 199.708 133.855 201.044C131.569 202.327 127.39 203.952 120.688 204.764Z" fill="black"/>
<g opacity="0.6">
<path d="M148.208 207.338C153.578 207.338 157.932 205.883 157.932 204.089C157.932 202.295 153.578 200.84 148.208 200.84C142.837 200.84 138.483 202.295 138.483 204.089C138.483 205.883 142.837 207.338 148.208 207.338Z" fill="#8CA9D0"/>
<path d="M162.874 172.598H133.569C133.569 172.598 128.339 179.174 129.232 189.26C130.205 200.394 138.221 202.647 138.93 203.853C139.193 204.324 145.238 205.267 148.182 205.267C148.208 205.267 148.208 205.267 148.234 205.267C148.261 205.267 148.261 205.267 148.287 205.267C151.204 205.267 157.249 204.324 157.538 203.853C158.248 202.647 166.264 200.394 167.237 189.26C168.078 179.174 162.874 172.598 162.874 172.598ZM165.87 188.998C165.055 198.927 156.119 203.617 148.313 203.748C140.507 203.879 131.519 199.635 130.678 189.705C130.415 186.562 131.335 181.243 131.335 181.243L165.265 181.06C165.292 181.06 166.133 185.802 165.87 188.998Z" fill="white"/>
</g>
<path opacity="0.5" d="M131.361 181.269C131.361 181.269 130.441 186.561 130.703 189.731C131.518 199.66 140.507 203.904 148.339 203.773C156.145 203.642 165.081 198.953 165.896 189.024C166.159 185.827 165.291 181.085 165.291 181.085L131.361 181.269Z" fill="#4A90A8"/>
<path d="M132.542 194.499C132.358 193.608 134.513 192.246 136.406 192.246C138.377 192.246 137.956 194.054 139.77 194.054C141.662 194.054 142.556 193.241 144.422 193.215C146.551 193.163 146.341 195.39 147.891 195.39C149.626 195.39 149.862 192.665 152.806 192.691C155.461 192.717 154.882 195.887 156.643 195.887C158.457 195.887 157.458 190.569 159.85 190.595C162.32 190.648 163.924 193.582 163.608 194.866C163.161 196.673 158.247 203.197 148.285 203.328C138.903 203.406 133.068 197.066 132.542 194.499Z" fill="#DBAC73"/>
<path d="M139.666 187.872C140.087 187.872 140.428 187.531 140.428 187.112C140.428 186.692 140.087 186.352 139.666 186.352C139.245 186.352 138.904 186.692 138.904 187.112C138.904 187.531 139.245 187.872 139.666 187.872Z" fill="white"/>
<path d="M140.851 189.627C141.083 189.627 141.271 189.439 141.271 189.207C141.271 188.976 141.083 188.788 140.851 188.788C140.619 188.788 140.43 188.976 140.43 189.207C140.43 189.439 140.619 189.627 140.851 189.627Z" fill="white"/>
<path d="M133.675 183.81C134.009 183.81 134.28 183.54 134.28 183.208C134.28 182.875 134.009 182.605 133.675 182.605C133.341 182.605 133.071 182.875 133.071 183.208C133.071 183.54 133.341 183.81 133.675 183.81Z" fill="white"/>
<path d="M155.541 187.32C155.918 187.32 156.224 187.015 156.224 186.639C156.224 186.263 155.918 185.958 155.541 185.958C155.163 185.958 154.857 186.263 154.857 186.639C154.857 187.015 155.163 187.32 155.541 187.32Z" fill="white"/>
<path d="M156.672 185.776C156.89 185.776 157.066 185.6 157.066 185.383C157.066 185.165 156.89 184.989 156.672 184.989C156.454 184.989 156.278 185.165 156.278 185.383C156.278 185.6 156.454 185.776 156.672 185.776Z" fill="white"/>
<path d="M164.292 184.701C164.568 184.701 164.791 184.478 164.791 184.203C164.791 183.928 164.568 183.705 164.292 183.705C164.016 183.705 163.793 183.928 163.793 184.203C163.793 184.478 164.016 184.701 164.292 184.701Z" fill="white"/>
<path d="M158.326 183.521C158.431 183.233 159.062 184.098 159.377 184.464C159.666 184.831 160.718 184.229 160.718 184.543C160.691 184.884 159.772 185.355 159.85 185.748C159.929 186.141 161.191 185.512 161.217 185.853C161.243 186.193 159.956 187.032 160.061 187.189C160.166 187.32 161.296 186.875 161.243 187.084C161.191 187.294 160.323 187.582 160.455 188.001C160.586 188.394 161.48 187.713 161.559 188.185C161.638 188.682 160.928 188.656 161.086 188.918C161.243 189.18 161.769 188.682 161.795 188.918C161.822 189.154 161.243 189.363 161.506 189.625C161.795 189.887 162.663 188.918 162.689 189.521C162.715 190.123 162.321 190.071 162.058 190.385C161.822 190.7 161.743 190.909 162.137 191.04C162.531 191.171 162.952 191.433 162.715 191.538C162.479 191.643 161.9 191.774 161.822 192.141C161.716 192.507 162.715 192.822 162.531 193.057C162.347 193.293 161.769 193.005 161.716 193.319C161.664 193.634 162.374 193.843 162.216 194.053C162.058 194.263 161.296 193.922 161.243 194.184C161.191 194.472 161.927 194.839 161.795 195.049C161.664 195.232 160.954 194.708 160.797 195.075C160.639 195.442 161.48 195.573 161.401 195.677C161.322 195.782 160.691 195.442 160.613 195.704C160.534 195.966 161.191 196.097 161.138 196.254C161.086 196.411 160.429 196.123 160.323 196.28C160.218 196.463 160.718 196.909 160.56 197.197C160.376 197.459 159.43 197.197 159.456 197.485C159.482 197.799 160.218 197.93 160.087 198.061C159.956 198.192 158.983 198.14 159.009 198.402C159.062 198.664 159.509 198.795 159.43 198.952C159.377 199.109 158.641 198.821 158.615 199.083C158.589 199.345 158.352 200.314 158.352 200.314C158.352 200.314 158.352 199.136 158.431 198.926C158.484 198.69 158.011 198.14 158.089 197.983C158.168 197.826 158.747 198.376 158.799 198.192C158.852 198.009 158.379 197.852 158.536 197.564C158.668 197.275 159.141 197.433 159.167 197.275C159.193 197.118 158.694 196.699 158.799 196.489C158.904 196.28 159.64 196.856 159.693 196.751C159.745 196.62 159.272 196.149 159.377 195.966C159.482 195.782 159.798 196.07 159.85 196.018C159.929 195.966 159.009 195.415 159.246 195.022C159.482 194.629 160.087 195.625 160.218 195.442C160.323 195.258 159.877 194.839 159.982 194.682C160.087 194.498 160.481 195.022 160.56 194.813C160.639 194.629 160.376 193.686 160.507 193.555C160.639 193.424 161.138 194.001 161.296 193.503C161.454 193.005 160.35 192.586 160.455 192.245C160.56 191.905 161.348 192.298 161.427 192.01C161.532 191.695 160.665 191.25 160.718 191.119C160.77 191.014 161.69 191.459 161.611 191.014C161.532 190.569 160.902 190.595 160.875 190.438C160.849 190.28 161.427 190.202 161.375 190.045C161.322 189.914 160.613 189.966 160.481 189.652C160.35 189.337 160.691 189.311 160.586 189.128C160.481 188.944 159.509 189.521 159.43 189.18C159.351 188.839 160.323 188.499 160.192 188.132C160.061 187.765 158.72 188.499 158.747 188.158C158.773 187.818 159.877 187.556 159.719 187.137C159.561 186.717 158.641 187.346 158.563 187.11C158.484 186.848 159.377 186.717 159.246 186.403C159.114 186.089 158.3 186.639 158.352 186.193C158.431 185.748 159.482 185.748 159.404 185.486C159.325 185.224 159.036 185.355 159.036 185.172C159.036 184.988 159.298 185.067 159.325 184.884C159.298 184.674 158.142 184.019 158.326 183.521Z" fill="#7EA21A"/>
<path d="M146.237 200.733C146.526 200.393 147.262 200 148.287 200.367C149.312 200.733 150.285 201.1 150.153 201.414C150.022 201.755 148.156 202.174 147.446 202.096C146.763 202.043 145.58 201.493 146.237 200.733Z" fill="#A5713D"/>
<path d="M149.706 199.975C149.706 199.529 151.099 199.896 151.125 200.211C151.151 200.499 149.706 200.709 149.706 199.975Z" fill="#A5713D"/>
<path d="M151.81 202.123C151.705 201.94 153.019 201.206 153.334 201.678C153.623 202.123 152.256 202.962 151.81 202.123Z" fill="#A5713D"/>
<path d="M140.927 200.498C140.927 200.236 143.004 201.127 142.636 201.441C142.268 201.782 140.954 201.467 140.927 200.498Z" fill="#A5713D"/>
<path d="M146.762 202.724C146.656 202.514 148.102 202.331 148.181 202.593C148.26 202.855 147.077 203.354 146.762 202.724Z" fill="#A5713D"/>
<path d="M146.054 199.583C145.87 199.294 146.816 198.927 146.921 199.242C147 199.583 146.238 199.871 146.054 199.583Z" fill="#A5713D"/>
<path d="M156.065 200.838C155.802 200.55 157.379 199.449 157.537 199.79C157.721 200.104 156.591 201.414 156.065 200.838Z" fill="#A5713D"/>
<path d="M156.644 199.424C156.617 199.66 157.695 199.424 157.721 199.162C157.747 198.9 156.722 198.795 156.644 199.424Z" fill="#A5713D"/>
<path d="M144.689 190.677C144.531 189.315 142.087 188.581 142.087 187.743C142.087 186.643 143.269 186.774 143.742 185.333C144.216 183.892 142.376 182.949 142.376 182.949C143.164 183.839 143.033 184.18 142.428 184.861C142.744 185.045 143.112 185.333 142.875 185.647C142.639 185.962 142.087 185.857 141.692 185.7C141.666 185.7 141.666 185.7 141.64 185.673C141.482 185.857 141.298 186.04 141.114 186.25C140.089 187.481 142.665 188.634 142.665 190.494C142.665 192.93 140.562 196.153 140.562 196.153H144.426C144.426 196.153 143.558 195.079 143.558 194.031C143.558 192.957 144.899 192.695 144.689 190.677ZM143.112 191.778C143.138 191.358 143.427 190.808 143.926 190.808C144.11 190.808 144.189 190.913 144.216 191.044C144.163 191.516 143.795 192.171 143.427 192.197C143.217 192.197 143.138 192.013 143.112 191.778Z" fill="#4E5E0A"/>
<path d="M148.316 190.205C148.264 189.498 149.078 189 148.894 188.345C148.71 187.664 146.608 187.376 146.503 186.721C146.371 185.804 146.818 185.28 146.818 185.28C146.818 185.28 144.689 186.459 144.689 187.323C144.689 188.424 145.662 188.659 145.714 189.943C145.767 191.227 143.901 192.956 144.032 193.821C144.163 194.685 145.136 196.257 145.136 196.257H148.369H148.947C148.947 196.257 147.712 194.79 147.922 194.109C148.106 193.428 149.867 192.589 149.919 191.777C149.998 190.991 148.395 190.939 148.316 190.205ZM148.316 191.515C148.474 191.62 148.553 191.751 148.579 191.908C148.553 192.353 147.712 192.877 146.976 193.139C146.213 193.401 146.056 193.428 146.056 193.192C146.056 193.113 146.056 193.008 146.082 192.904C146.135 192.353 147.37 190.912 148.316 191.515ZM146.056 188.083C146.003 187.873 146.266 187.795 146.581 187.847C146.923 187.926 147.344 188.135 147.396 188.45C147.528 189.079 146.949 189.681 146.555 189.655C146.161 189.603 146.292 188.895 146.029 188.135C146.056 188.109 146.056 188.083 146.056 188.083Z" fill="#4E5E0A"/>
<path d="M136.646 192.041C136.646 192.015 136.646 191.963 136.646 191.937C136.567 191.02 137.408 190.653 137.881 190.077C138.276 189.579 137.987 189.238 137.408 188.662C137.172 188.714 136.935 188.714 136.778 188.583C136.594 188.426 136.699 188.216 136.856 188.033C136.462 187.352 136.856 186.723 136.856 186.723C134.78 188.4 136.988 189.055 137.251 189.736C137.513 190.417 136.357 190.653 135.569 191.779C134.806 192.932 135.621 193.351 136.147 194.059C136.672 194.766 136.41 196.259 136.41 196.259H138.486H138.749C138.696 194.557 136.856 193.482 136.646 192.041ZM135.621 192.461C135.569 192.33 135.595 192.199 135.726 192.12C136.042 191.989 136.331 192.225 136.462 192.513C136.541 192.723 136.567 192.906 136.515 193.011C136.357 193.247 135.831 192.827 135.621 192.461Z" fill="#4E5E0A"/>
<path d="M149.235 195.837C148.973 195.497 148.079 194.894 147.369 195.13C145.819 195.654 145.503 195.418 144.505 195.706C144.452 195.654 144.426 195.601 144.4 195.549C144.137 195.025 143.164 193.925 142.717 193.348C142.271 192.772 141.403 192.431 141.114 192.772C140.536 193.427 140.221 194.239 140.037 194.92C139.958 194.868 139.853 194.815 139.748 194.763C139.09 194.475 138.144 194.344 137.356 194.37C136.594 194.422 135.989 195.077 135.884 195.47C135.779 195.863 135.884 196.518 136.725 196.466C137.408 196.44 139.064 196.466 140.037 196.335C140.352 196.518 141.798 196.466 143.611 196.414C143.611 196.492 143.664 196.545 143.742 196.545C144.005 196.545 148.973 196.492 149.235 196.44C149.472 196.466 149.472 196.178 149.235 195.837Z" fill="#DBAC73"/>
<path d="M149.206 182.237C149.206 182.237 150.468 182.132 150.993 182.944C151.519 183.756 151.966 185.066 151.966 185.066L148.523 186.56C148.523 186.56 148.47 186.219 148.286 186.271C148.102 186.324 147.13 186.638 147.13 186.638C147.13 186.638 147.051 185.8 147.892 184.778C148.733 183.756 148.917 183.835 149.206 183.521C149.522 183.18 149.206 182.237 149.206 182.237Z" fill="#FFA300"/>
<path d="M147.84 186.795L148.392 188.027C148.392 188.027 148.156 188.158 147.972 188.629C147.814 189.101 147.656 190.594 146.763 191.485C145.869 192.376 144.634 192.533 143.766 192.323C142.899 192.114 142.689 191.799 142.689 191.799C142.689 191.799 145.054 190.594 144.923 189.992C144.791 189.389 144.529 188.787 143.425 188.446C142.321 188.105 141.191 187.267 141.191 187.267C141.191 187.267 141.927 187.11 143.845 187.162C145.764 187.215 147.393 187.346 147.84 186.795Z" fill="#FFA300"/>
<path d="M149.207 188.212C149.207 188.212 149.26 188.683 149.023 189.496C148.787 190.334 148.314 191.303 148.025 191.225C147.736 191.146 148.209 189.731 148.156 189.417C148.104 189.103 147.946 188.945 148.13 188.736C148.314 188.526 148.918 187.976 148.918 187.976L149.207 188.212Z" fill="#FFA300"/>
<path d="M151.993 188.497C151.993 188.497 152.151 189.152 151.783 189.99C151.441 190.829 150.101 191.903 149.917 191.85C149.733 191.798 150.39 190.75 150.285 190.436C150.18 190.121 149.68 189.466 150.074 189.073C150.416 188.68 151.993 188.497 151.993 188.497Z" fill="#FFA300"/>
<path d="M153.543 188.394C153.543 188.394 153.306 188.865 153.385 189.127C153.464 189.389 153.963 189.939 153.569 190.28C153.569 190.28 153.28 189.677 153.069 189.599C152.859 189.546 152.754 189.52 152.807 189.153C152.859 188.787 153.175 188.394 153.175 188.394H153.543Z" fill="#FFA300"/>
<path d="M147.92 187.609C147.868 187.347 147.447 187.294 147.526 187.085C147.605 186.875 149.235 185.408 150.706 185.015C152.178 184.622 154.307 185.199 155.174 185.592C156.042 185.985 156.541 186.404 156.489 186.666C156.462 186.928 156.489 187.19 155.831 187.635C155.174 188.08 152.625 189.05 151.495 188.997C150.338 188.919 148.026 188.264 147.92 188.133C147.815 187.976 147.999 187.923 147.92 187.609Z" fill="#FF6D00"/>
<path d="M154.936 186.457C155.008 186.457 155.067 186.34 155.067 186.195C155.067 186.05 155.008 185.933 154.936 185.933C154.863 185.933 154.804 186.05 154.804 186.195C154.804 186.34 154.863 186.457 154.936 186.457Z" fill="black"/>
<path d="M67.9399 267.251H224.189V203.3H80.7132C75.0099 203.3 70.3842 207.911 70.3842 213.596L67.9399 267.251Z" fill="#0C96FD"/>
<path d="M75.4277 215.432C75.4277 215.432 68.5417 215.641 66.4128 220.383C64.2839 225.125 64.0736 231.911 65.7032 233.928C67.3327 235.945 72.3001 235.945 72.3001 235.945L75.4277 215.432Z" fill="#7D009B"/>
<path d="M74.615 237.439C75.1669 239.404 69.1482 240.164 69.1482 240.164L69.2796 237.439C69.2796 237.439 74.1156 235.631 74.615 237.439Z" fill="#F1F3F2"/>
<path d="M230.864 180.457L196.171 179.829V267.227H332.262C332.393 266.808 337.65 237.151 337.229 232.75C336.809 228.322 326.874 220.07 312.419 216.507C297.963 212.944 272.154 207.232 271.287 206.97C270.419 206.682 230.864 180.457 230.864 180.457Z" fill="#0C96FD"/>
<path d="M69.1761 245.719C68.887 249.282 71.9357 267.228 71.9357 267.228H332.29C332.395 266.861 335.024 252.845 336.022 243.387C336.022 243.387 301.303 229.659 281.828 228.585C262.352 227.511 234.782 238.226 214.86 236.89C194.938 235.554 169.391 224.21 146.867 224.21C124.343 224.21 69.1761 245.719 69.1761 245.719Z" fill="#1D7DCC"/>
<path d="M250.998 269.033L332.842 267.932C332.842 267.932 335.102 265.941 336.521 260.387C337.941 254.833 335.575 247.707 335.575 247.707C335.575 247.707 333.814 250.825 326.587 252.108C319.359 253.392 292.419 252.685 292.419 252.685L269.449 263.95L249.763 263.479L250.998 269.033Z" fill="#2D2D2D"/>
<path d="M257.227 203.828L231.575 185.306L201.482 184.703L202.218 202.047L257.227 203.828Z" fill="#2D2D2D"/>
<path d="M277.938 244.721H277.675V220.671L257.148 203.93L257.306 203.72L277.938 220.566V244.721Z" fill="#024168"/>
<path d="M253.417 202.255C253.364 200.945 251.288 197.434 248.371 197.434C245.453 197.408 245.453 205.975 247.451 206.551C249.448 207.128 253.548 205.241 253.417 202.255Z" fill="#F1F3F2"/>
<path d="M197.961 267.226H197.698V229.291L201.956 202.018L202.219 202.07L197.961 229.317V267.226Z" fill="#024168"/>
<path d="M315.18 217.267C315.18 217.267 324.038 223.056 325.168 226.2C326.298 229.344 327.717 232.174 328.427 232.331C329.136 232.488 337.231 232.75 337.231 232.75C337.231 232.75 338.125 225.807 336.969 224.995C335.812 224.209 318.518 215.59 315.18 217.267Z" fill="#F1F3F2"/>
<path d="M317.283 240.451H325.851C326.114 240.451 326.35 240.241 326.35 239.953V236.652C326.35 236.39 326.14 236.154 325.851 236.154H317.283C317.02 236.154 316.783 236.364 316.783 236.652V239.953C316.81 240.215 317.02 240.451 317.283 240.451Z" fill="#878FB3"/>
<path d="M217.831 218.76C217.831 222.847 230.604 222.847 230.604 219.075C230.604 214.516 217.831 215.145 217.831 218.76Z" fill="#1D7DCC"/>
<path d="M212.417 220.622H226.242C226.452 220.622 226.636 220.438 226.636 220.229V217.609C226.636 217.399 226.452 217.216 226.242 217.216H212.417C212.207 217.216 212.023 217.399 212.023 217.609V220.229C212.023 220.438 212.207 220.622 212.417 220.622Z" fill="#878FB3"/>
<path d="M202.796 184.703H201.482V201.601H202.796V184.703Z" fill="#024168"/>
<path d="M250.078 267.646C249.762 265.943 249.578 264.214 249.578 262.432C249.578 246.791 262.299 234.111 277.99 234.111C293.68 234.111 306.427 246.791 306.427 262.432C306.427 264.214 306.243 265.943 305.928 267.646H250.078Z" fill="#024168"/>
<path d="M278.017 283.389C291.269 283.389 302.013 272.68 302.013 259.47C302.013 246.259 291.269 235.55 278.017 235.55C264.764 235.55 254.021 246.259 254.021 259.47C254.021 272.68 264.764 283.389 278.017 283.389Z" fill="black"/>
<path d="M278.017 275.555C286.93 275.555 294.155 268.353 294.155 259.469C294.155 250.585 286.93 243.383 278.017 243.383C269.105 243.383 261.88 250.585 261.88 259.469C261.88 268.353 269.105 275.555 278.017 275.555Z" fill="#606060"/>
<path d="M278.015 270.709C284.243 270.709 289.291 265.677 289.291 259.47C289.291 253.262 284.243 248.23 278.015 248.23C271.788 248.23 266.74 253.262 266.74 259.47C266.74 265.677 271.788 270.709 278.015 270.709Z" fill="black"/>
<path d="M291.683 268.169C291.052 269.165 290.316 270.108 289.449 270.973C288.634 271.759 287.767 272.466 286.873 273.069L264.56 250.721C265.164 249.804 265.847 248.94 266.662 248.154C267.529 247.289 268.476 246.556 269.474 245.927L291.683 268.169Z" fill="#A8A9AD"/>
<path d="M287.058 246.109C288.057 246.764 288.977 247.497 289.844 248.388C290.633 249.2 291.316 250.065 291.894 250.982L269.186 272.884C268.293 272.281 267.425 271.574 266.637 270.762C265.769 269.871 265.06 268.928 264.455 267.906L287.058 246.109Z" fill="#A8A9AD"/>
<path d="M98.3478 256.328H77.6634V248.442H66.0991C66.0991 248.442 65.5998 251.665 62.1568 252.372C61.6574 259.551 62.1042 267.227 67.9389 267.227C80.3443 267.227 97.1125 267.227 97.1125 267.227L98.3478 256.328Z" fill="#2D2D2D"/>
<path d="M95.0079 267.646C94.6925 265.943 94.5085 264.214 94.5085 262.432C94.5085 246.791 107.229 234.111 122.92 234.111C138.611 234.111 151.358 246.791 151.358 262.432C151.358 264.214 151.174 265.943 150.858 267.646H95.0079Z" fill="#024168"/>
<path d="M122.947 283.389C136.199 283.389 146.943 272.68 146.943 259.47C146.943 246.259 136.199 235.55 122.947 235.55C109.694 235.55 98.9509 246.259 98.9509 259.47C98.9509 272.68 109.694 283.389 122.947 283.389Z" fill="black"/>
<path d="M122.947 275.555C131.86 275.555 139.085 268.353 139.085 259.469C139.085 250.585 131.86 243.383 122.947 243.383C114.035 243.383 106.81 250.585 106.81 259.469C106.81 268.353 114.035 275.555 122.947 275.555Z" fill="#606060"/>
<path d="M122.946 270.709C129.173 270.709 134.221 265.677 134.221 259.47C134.221 253.262 129.173 248.23 122.946 248.23C116.718 248.23 111.67 253.262 111.67 259.47C111.67 265.677 116.718 270.709 122.946 270.709Z" fill="black"/>
<path d="M136.613 268.169C135.983 269.165 135.247 270.108 134.379 270.973C133.565 271.759 132.697 272.466 131.804 273.069L109.49 250.721C110.094 249.804 110.778 248.94 111.592 248.154C112.46 247.289 113.406 246.556 114.405 245.927L136.613 268.169Z" fill="#A8A9AD"/>
<path d="M131.988 246.109C132.987 246.764 133.907 247.497 134.774 248.388C135.563 249.2 136.246 250.065 136.824 250.982L114.116 272.884C113.223 272.281 112.355 271.574 111.567 270.762C110.7 269.871 109.99 268.928 109.385 267.906L131.988 246.109Z" fill="#A8A9AD"/>
<path d="M220.986 176.472C220.986 176.472 217.306 174.979 214.021 178.018C211.813 180.061 212.523 185.72 213.811 187.449C215.072 189.178 219.961 191.903 219.961 191.903C219.961 191.903 233.759 177.494 220.986 176.472Z" fill="#A5713D"/>
<path d="M222.798 195.1C220.59 195.493 218.015 196.174 216.806 197.301C215.334 198.663 216.096 202.645 223.455 201.65C230.814 200.654 229.973 197.301 229.053 196.436C227.713 195.179 224.506 194.812 222.798 195.1Z" fill="#F69576"/>
<path d="M224.823 190.044L227.898 198.899L219.277 200.445C219.277 200.445 219.041 196.751 219.093 194.314C219.146 191.878 219.435 191.013 219.435 191.013L224.823 190.044Z" fill="#F69576"/>
<path d="M221.51 193.188C221.51 193.188 221.747 194.891 222.982 195.415C224.244 195.939 226.714 195.519 226.714 195.519L224.795 190.044L221.168 190.699C221.168 190.699 221.168 192.166 221.51 193.188Z" fill="#DD866F"/>
<path d="M224.035 178.751C224.035 178.751 225.297 179.459 226.138 181.345C226.769 182.812 227.005 184.463 227.347 185.353C227.715 186.244 228.293 187.659 228.24 188.969C228.188 190.279 227.399 192.244 225.376 193.239C223.378 194.208 221.565 194.104 220.119 192.846C218.7 191.589 216.755 189.231 215.993 187.475C215.231 185.72 214.363 182.314 216.045 180.454C218.227 178.07 221.197 177.494 224.035 178.751Z" fill="#F69576"/>
<path d="M222.062 189.729C222.062 189.729 222.483 190.934 223.271 191.065C224.06 191.196 224.77 190.882 225.032 190.41C225.295 189.939 225.322 189.126 225.322 189.126L222.062 189.729Z" fill="white"/>
<path d="M223.613 188.026C223.56 188.026 223.507 188.026 223.455 187.999C223.35 187.947 223.323 187.816 223.297 187.711C223.297 187.711 223.297 187.685 223.297 187.659C223.271 187.685 223.245 187.711 223.192 187.79C223.14 187.868 223.061 187.921 222.982 187.895C222.877 187.895 222.772 187.79 222.693 187.633C222.588 187.397 222.745 186.925 222.772 186.873C222.772 186.847 222.824 186.821 222.877 186.821C222.903 186.847 222.929 186.873 222.929 186.925C222.877 187.056 222.772 187.423 222.85 187.58C222.903 187.685 222.956 187.737 223.008 187.737C223.061 187.737 223.061 187.711 223.087 187.685C223.166 187.554 223.245 187.502 223.297 187.475C223.323 187.475 223.376 187.476 223.402 187.528C223.429 187.554 223.429 187.606 223.455 187.659C223.481 187.711 223.481 187.816 223.534 187.842C223.56 187.842 223.586 187.842 223.639 187.842C223.744 187.816 223.744 187.737 223.691 187.58C223.665 187.502 223.665 187.449 223.691 187.397C223.718 187.371 223.744 187.371 223.77 187.371C223.823 187.371 223.875 187.397 223.928 187.423C224.033 187.476 224.059 187.476 224.112 187.423C224.138 187.397 224.138 187.345 224.112 187.266C224.059 187.056 223.875 186.794 223.744 186.742C223.718 186.716 223.691 186.69 223.718 186.637C223.744 186.611 223.77 186.585 223.823 186.611C223.981 186.69 224.191 187.004 224.27 187.24C224.296 187.371 224.296 187.449 224.243 187.528C224.112 187.711 223.954 187.633 223.875 187.58C223.875 187.58 223.849 187.58 223.849 187.554V187.58C223.875 187.711 223.928 187.947 223.691 188.026C223.665 188.026 223.639 188.026 223.613 188.026Z" fill="#6B3425"/>
<path d="M212.548 186.742C212.916 185.013 217.936 185.615 217.595 188.759C217.253 191.955 212.023 189.283 212.548 186.742Z" fill="#F69576"/>
<path d="M216.779 189.283C216.752 189.283 216.752 189.283 216.726 189.283C216.7 189.257 216.673 189.205 216.7 189.178C216.857 188.943 216.779 188.235 216.411 187.633C216.148 187.187 215.57 186.48 214.518 186.532C213.966 186.559 213.572 186.716 213.414 187.004C213.152 187.423 213.414 188 213.414 188C213.441 188.026 213.414 188.078 213.388 188.104C213.362 188.131 213.309 188.104 213.283 188.078C213.283 188.052 212.994 187.423 213.283 186.925C213.493 186.585 213.888 186.401 214.518 186.375C215.333 186.323 216.095 186.768 216.542 187.554C216.91 188.183 217.041 188.917 216.831 189.257C216.805 189.257 216.779 189.283 216.779 189.283Z" fill="#6B3425"/>
<path d="M215.019 189.309C214.993 189.309 214.967 189.309 214.94 189.282C214.914 189.23 214.126 188.025 214.651 186.401C214.651 186.374 214.704 186.348 214.73 186.348C214.756 186.348 214.783 186.401 214.783 186.427C214.283 187.972 215.045 189.151 215.045 189.178C215.072 189.204 215.045 189.256 215.019 189.282C215.019 189.309 215.019 189.309 215.019 189.309Z" fill="#6B3425"/>
<path d="M221.082 187.052C221.224 187.027 221.298 186.775 221.246 186.49C221.195 186.205 221.037 185.995 220.894 186.021C220.751 186.047 220.677 186.299 220.729 186.583C220.781 186.868 220.939 187.078 221.082 187.052Z" fill="#6B3425"/>
<path d="M219.515 185.378C219.699 185.169 220.067 184.88 220.488 184.749C220.961 184.618 221.276 184.776 221.46 184.802C221.644 184.828 221.644 184.54 221.486 184.356C221.355 184.147 220.908 184.068 220.251 184.199C219.594 184.33 219.305 184.697 219.147 184.933C219.042 185.116 219.279 185.666 219.515 185.378Z" fill="#6B3425"/>
<path d="M225.076 186.188C225.219 186.162 225.293 185.91 225.241 185.625C225.189 185.341 225.031 185.131 224.889 185.156C224.746 185.182 224.672 185.434 224.724 185.719C224.775 186.003 224.933 186.213 225.076 186.188Z" fill="#6B3425"/>
<path d="M223.743 184.409C223.927 184.2 224.295 183.912 224.716 183.781C225.189 183.65 225.504 183.807 225.688 183.833C225.898 183.859 225.872 183.571 225.714 183.388C225.583 183.178 225.136 183.1 224.479 183.231C223.822 183.362 223.533 183.728 223.375 183.964C223.218 184.2 223.507 184.698 223.743 184.409Z" fill="#6B3425"/>
<path d="M226.611 190.489L226.295 190.62C226.295 190.62 225.875 191.982 225.402 192.323C224.929 192.663 223.168 192.899 222.931 192.768C222.721 192.637 221.854 191.353 221.854 191.353L221.459 191.537C221.459 191.537 222.432 193.423 222.563 193.58C222.642 193.685 223.93 194.261 224.403 194.209C224.85 194.157 226.269 193.03 226.295 192.847C226.427 192.244 226.611 190.489 226.611 190.489Z" fill="#6B3425"/>
<path d="M224.742 191.614L223.98 191.719L224.19 193.081L224.821 193.108L224.742 191.614Z" fill="#6B3425"/>
<path d="M215.255 178.384C215.255 178.384 217.673 181.319 222.745 180.69C233.337 179.406 227.476 174.402 227.476 174.402C227.476 174.402 228.133 175.895 226.346 176.288C223.902 176.891 218.96 170.053 215.255 178.384Z" fill="#A5713D"/>
</svg>
