<svg width="1585" height="627" viewBox="0 0 1585 627" fill="none" xmlns="http://www.w3.org/2000/svg">
<path d="M235.044 182.644H65.8335L45.8086 121.541H255.069L235.044 182.644Z" fill="#232323"/>
<path d="M235.044 252.765H65.8335L45.8086 191.662H255.069L235.044 252.765Z" fill="#232323"/>
<path d="M235.044 322.88H65.8335L45.8086 261.777H255.069L235.044 322.88Z" fill="#232323"/>
<path d="M173.969 99.5098H126.91C108.662 99.5098 93.8691 114.309 93.8691 132.565V332.902C93.8691 351.159 108.662 365.958 126.91 365.958H173.969C192.217 365.958 207.01 351.159 207.01 332.902V132.565C207.01 114.309 192.217 99.5098 173.969 99.5098Z" fill="#232323"/>
<path d="M1563.95 0.337891H21.0262C9.41374 0.337891 0 9.75576 0 21.3733C0 32.9908 9.41374 42.4087 21.0262 42.4087H1563.95C1575.56 42.4087 1584.97 32.9908 1584.97 21.3733C1584.97 9.75576 1575.56 0.337891 1563.95 0.337891Z" fill="#232323"/>
<path d="M159.198 27.3867H146.182V108.523H159.198V27.3867Z" fill="#232323"/>
<path d="M458.573 27.3867H442.553V108.523H458.573V27.3867Z" fill="#232323"/>
<path d="M1361.69 21.3711H1346.68V108.518H1361.69V21.3711Z" fill="#232323"/>
<path d="M1431.78 93.4941H321.398V626.391H1431.78V93.4941Z" fill="white"/>
<path d="M1421.77 103.511V616.374H331.411V103.511H1421.77ZM1431.78 93.4941H321.398V626.391H1431.78V93.4941Z" fill="#232323"/>
<path d="M152.689 185.651C170.661 185.651 185.23 171.075 185.23 153.096C185.23 135.116 170.661 120.541 152.689 120.541C134.717 120.541 120.148 135.116 120.148 153.096C120.148 171.075 134.717 185.651 152.689 185.651Z" fill="#6B3425"/>
<path d="M152.689 255.768C170.661 255.768 185.23 241.192 185.23 223.213C185.23 205.233 170.661 190.658 152.689 190.658C134.717 190.658 120.148 205.233 120.148 223.213C120.148 241.192 134.717 255.768 152.689 255.768Z" fill="#FFE051"/>
<path d="M152.689 325.889C170.661 325.889 185.23 311.314 185.23 293.334C185.23 275.355 170.661 260.779 152.689 260.779C134.717 260.779 120.148 275.355 120.148 293.334C120.148 311.314 134.717 325.889 152.689 325.889Z" fill="#7FA024"/>
</svg>
