<svg width="1534" height="776" viewBox="0 0 1534 776" fill="none" xmlns="http://www.w3.org/2000/svg">
<path d="M1526.13 13.9219H13.9219V662.791H1526.13V13.9219Z" fill="#FAFAFA"/>
<path d="M1519.47 14.5269V653.711H14.5288V14.5269H1519.47ZM1534 0H0V668.238H1534V0Z" fill="#232323"/>
<path d="M1459.54 668.236H69.0117V727.555H1459.54V668.236Z" fill="#232323"/>
<path d="M1461.96 683.187H66.5938L69.0152 673.078H1459.54L1461.96 683.187Z" fill="#606060"/>
<path d="M1461.96 699.056H66.5938L69.0152 688.947H1459.54L1461.96 699.056Z" fill="#606060"/>
<path d="M1461.96 714.714H66.5938L69.0152 704.605H1459.54L1461.96 714.714Z" fill="#606060"/>
<path d="M1461.96 730.587H66.5938L69.0152 720.479H1459.54L1461.96 730.587Z" fill="#606060"/>
<path d="M124.705 729.979H112.598V775.98H124.705V729.979Z" fill="#303030"/>
<path d="M1534 752.977H4.84375V760.24H1534V752.977Z" fill="#606060"/>
<path d="M330.529 729.979H318.422V775.98H330.529V729.979Z" fill="#303030"/>
<path d="M330.529 765.084H318.422V775.979H330.529V765.084Z" fill="#606060"/>
<path d="M363.213 729.979H351.105V775.98H363.213V729.979Z" fill="#303030"/>
<path d="M363.213 765.084H351.105V775.979H363.213V765.084Z" fill="#606060"/>
<path d="M569.049 729.979H556.941V775.98H569.049V729.979Z" fill="#303030"/>
<path d="M662.271 729.979H650.164V775.98H662.271V729.979Z" fill="#303030"/>
<path d="M662.271 765.084H650.164V775.979H662.271V765.084Z" fill="#606060"/>
<path d="M868.096 729.979H855.988V775.98H868.096V729.979Z" fill="#303030"/>
<path d="M868.096 765.084H855.988V775.979H868.096V765.084Z" fill="#606060"/>
<path d="M940.744 729.979H928.637V775.98H940.744V729.979Z" fill="#303030"/>
<path d="M940.744 765.084H928.637V775.979H940.744V765.084Z" fill="#606060"/>
<path d="M1146.56 729.979H1134.46V775.98H1146.56V729.979Z" fill="#303030"/>
<path d="M1146.56 765.084H1134.46V775.979H1146.56V765.084Z" fill="#606060"/>
<path d="M1405.66 729.979H1393.55V775.98H1405.66V729.979Z" fill="#303030"/>
<path d="M1405.66 765.084H1393.55V775.979H1405.66V765.084Z" fill="#606060"/>
<path d="M1265.14 720.297H1256.81C1249.09 720.297 1241.68 717.228 1236.22 711.766C1230.75 706.304 1227.68 698.895 1227.68 691.17V688.822H1294.27V691.17C1294.27 698.895 1291.2 706.304 1285.74 711.766C1280.28 717.228 1272.87 720.297 1265.14 720.297Z" fill="#8A9995"/>
<path d="M1256.74 763.869H1260.37L1262.8 759.33V719.078H1259.16V759.487L1256.74 763.869Z" fill="#303030"/>
<path d="M216.723 688.816H283.313V691.165C283.313 694.99 282.559 698.777 281.095 702.311C279.631 705.845 277.486 709.056 274.781 711.761C272.076 714.465 268.865 716.61 265.33 718.074C261.796 719.538 258.008 720.291 254.183 720.291H245.853C242.027 720.291 238.239 719.538 234.705 718.074C231.171 716.61 227.96 714.465 225.255 711.761C222.55 709.056 220.404 705.845 218.94 702.311C217.476 698.777 216.723 694.99 216.723 691.165V688.816Z" fill="#8A9995"/>
<path d="M254.245 763.869H250.613L248.191 759.33V719.078H251.824V759.487L254.245 763.869Z" fill="#303030"/>
</svg>
