<svg width="720" height="430" viewBox="0 0 720 430" fill="none" xmlns="http://www.w3.org/2000/svg">
<path d="M711.442 10.6797H10.6992V383.517H711.442V10.6797Z" fill="#FFFFFE"/>
<path d="M709.302 10.683V380.85H10.6984V10.683H709.302ZM720 0H0V391.533H720V0Z" fill="#232323"/>
<path d="M151.831 428.396H124.016V421.986H151.831V428.396ZM125.085 427.328H150.762V423.055H125.085V427.328Z" fill="black"/>
<path d="M141.669 391.535H134.18V405.423H141.669V391.535Z" fill="black"/>
<path d="M154.505 404.346H121.34V407.551H154.505V404.346Z" fill="black"/>
<path d="M151.297 407.557H124.551V417.171H151.297V407.557Z" fill="#606060"/>
<path d="M152.897 417.17H122.941V422.511H152.897V417.17Z" fill="#232323"/>
<path d="M140.599 422.512H135.25V429.99H140.599V422.512Z" fill="black"/>
<path d="M269.511 428.396H241.695V421.986H269.511V428.396ZM242.765 427.328H268.441V423.055H242.765V427.328Z" fill="black"/>
<path d="M259.348 391.535H251.859V405.423H259.348V391.535Z" fill="black"/>
<path d="M272.188 404.346H239.023V407.551H272.188V404.346Z" fill="black"/>
<path d="M268.98 407.557H242.234V417.171H268.98V407.557Z" fill="#606060"/>
<path d="M270.58 417.17H240.625V422.511H270.58V417.17Z" fill="#232323"/>
<path d="M258.283 422.512H252.934V429.99H258.283V422.512Z" fill="black"/>
<path d="M474.925 428.396H447.109V421.986H474.925V428.396ZM448.179 427.328H473.855V423.055H448.179V427.328Z" fill="black"/>
<path d="M464.758 391.537H457.27V405.425H464.758V391.537Z" fill="black"/>
<path d="M477.595 404.346H444.43V407.551H477.595V404.346Z" fill="black"/>
<path d="M474.387 407.555H447.641V417.169H474.387V407.555Z" fill="#606060"/>
<path d="M475.991 417.17H446.035V422.511H475.991V417.17Z" fill="#232323"/>
<path d="M463.689 422.512H458.34V429.99H463.689V422.512Z" fill="black"/>
<path d="M592.605 428.396H564.789V421.986H592.605V428.396ZM565.859 427.328H591.535V423.055H565.859V427.328Z" fill="black"/>
<path d="M582.434 391.535H574.945V405.423H582.434V391.535Z" fill="black"/>
<path d="M595.282 404.346H562.117V407.551H595.282V404.346Z" fill="black"/>
<path d="M592.07 407.555H565.324V417.169H592.07V407.555Z" fill="#606060"/>
<path d="M593.674 417.17H563.719V422.511H593.674V417.17Z" fill="#232323"/>
</svg>
