<?xml version="1.0" encoding="UTF-8"?>
<svg id="_Шар_2" data-name="Шар 2" xmlns="http://www.w3.org/2000/svg" viewBox="0 0 516.22 77.77">
  <defs>
    <style>
      .cls-1 {
        fill: #fff;
      }

      .cls-2 {
        fill: #575c6c;
      }
    </style>
  </defs>
  <g id="_Шар_1-2" data-name="Шар 1">
    <polygon class="cls-2" points="516.21 3.48 516.21 77.77 .21 77.77 .21 3.63 166.22 3.02 167.96 2.92 343.17 0 344.62 .12 516.21 3.48"/>
    <polygon class="cls-1" points="472.32 32.22 473.46 34.59 493.85 34.63 492.19 32.02 472.32 32.22"/>
    <g id="Zebra">
      <polygon class="cls-1" points="404.06 5.63 406.39 8.66 448.12 8.72 444.73 5.39 404.06 5.63"/>
      <polygon class="cls-1" points="408.91 11.77 411.23 14.8 452.97 14.86 449.57 11.53 408.91 11.77"/>
      <polygon class="cls-1" points="413.36 18.09 415.69 22.12 457.42 22.18 454.02 17.85 413.36 18.09"/>
      <polygon class="cls-1" points="418.97 26.04 421.3 29.06 463.03 29.12 459.64 25.79 418.97 26.04"/>
      <polygon class="cls-1" points="423.46 32.29 425.79 35.31 467.52 35.38 464.12 32.05 423.46 32.29"/>
      <polygon class="cls-1" points="428.3 38.43 430.63 41.45 472.36 41.52 468.97 38.19 428.3 38.43"/>
      <polygon class="cls-1" points="433.29 45.44 435.62 48.46 477.35 48.53 473.96 45.2 433.29 45.44"/>
      <polygon class="cls-1" points="438.37 51.98 440.7 55 482.43 55.06 479.04 51.73 438.37 51.98"/>
      <polygon class="cls-1" points="446.25 63.18 448.57 66.2 490.31 66.27 486.91 62.94 446.25 63.18"/>
      <polygon class="cls-1" points="442.42 57.58 444.74 60.6 486.47 60.66 483.08 57.33 442.42 57.58"/>
      <polygon class="cls-1" points="450.29 68.78 452.62 71.8 494.35 71.87 490.95 68.54 450.29 68.78"/>
    </g>
    <polygon class="cls-1" points="499.34 31.81 500.3 34.18 516.22 34.2 516.22 31.59 499.34 31.81"/>
    <g id="Zebra-2" data-name="Zebra">
      <polygon class="cls-1" points="115.37 7.59 113.04 10.61 71.31 10.61 74.71 7.28 115.37 7.59"/>
      <polygon class="cls-1" points="110.52 13.72 108.19 16.74 66.45 16.74 69.85 13.42 110.52 13.72"/>
      <polygon class="cls-1" points="106.05 20.03 103.72 24.05 61.99 24.05 65.39 19.73 106.05 20.03"/>
      <polygon class="cls-1" points="100.43 27.97 98.1 30.99 56.36 30.99 59.77 27.66 100.43 27.97"/>
      <polygon class="cls-1" points="95.93 34.21 93.6 37.23 51.87 37.23 55.27 33.91 95.93 34.21"/>
      <polygon class="cls-1" points="91.08 40.35 88.75 43.37 47.01 43.37 50.42 40.04 91.08 40.35"/>
      <polygon class="cls-1" points="86.08 47.35 83.75 50.37 42.01 50.37 45.42 47.04 86.08 47.35"/>
      <polygon class="cls-1" points="80.99 53.88 78.66 56.9 36.93 56.9 40.33 53.57 80.99 53.88"/>
      <polygon class="cls-1" points="73.1 65.07 70.77 68.09 29.03 68.09 32.43 64.76 73.1 65.07"/>
      <polygon class="cls-1" points="76.94 59.47 74.61 62.49 32.87 62.49 36.28 59.17 76.94 59.47"/>
      <polygon class="cls-1" points="69.05 70.66 66.71 73.68 24.98 73.68 28.38 70.36 69.05 70.66"/>
    </g>
    <polygon class="cls-1" points="44.16 32.5 43.03 34.87 22.63 34.9 24.29 32.29 44.16 32.5"/>
    <polygon class="cls-1" points="16.88 32.09 15.92 34.46 0 34.48 0 31.87 16.88 32.09"/>
    <polygon class="cls-2" points="344.62 .12 166.22 3.02 167.96 2.92 343.17 0 344.62 .12"/>
  </g>
</svg>