<?xml version="1.0" encoding="utf-8"?>
<!-- Generator: Adobe Illustrator 24.0.1, SVG Export Plug-In . SVG Version: 6.00 Build 0)  -->
<svg version="1.1" id="_Шар_2" xmlns="http://www.w3.org/2000/svg" xmlns:xlink="http://www.w3.org/1999/xlink" x="0px" y="0px"
	 viewBox="0 0 516.2 77.8" style="enable-background:new 0 0 516.2 77.8;" xml:space="preserve">
<style type="text/css">
	.st0{fill:#575C6C;}
	.st1{fill:#FFFFFF;}
</style>
<g id="_Шар_1-2">
	<path class="st0" d="M516.2,3.5v74.3H0.2V3.6l166-0.6l1.7-0.1l174.8-1.6l1.4,0.1C344.2,1.4,516.2,3.5,516.2,3.5z"/>
	<g id="Zebra">
		<path class="st1" d="M405.7,8.4l2.3,3l41.7,0.1l-3.4-3.3L405.7,8.4z M410.5,14.5l2.3,3l41.7,0.1l-3.4-3.3L410.5,14.5z M415,20.8
			l2.3,4l41.7,0.1l-3.4-4.3L415,20.8z M420.6,28.8l2.3,3l41.7,0.1l-3.4-3.3L420.6,28.8L420.6,28.8z M425.1,35l2.3,3l41.7,0.1
			l-3.4-3.3C465.7,34.8,425.1,35,425.1,35z M429.9,41.2l2.3,3l41.7,0.1l-3.4-3.3C470.6,40.9,429.9,41.2,429.9,41.2z M434.9,48.2
			l2.3,3l41.7,0.1l-3.4-3.3L434.9,48.2L434.9,48.2z M440,54.7l2.3,3l41.7,0.1l-3.4-3.3C480.6,54.5,440,54.7,440,54.7z M447.8,65.9
			l2.3,3l41.7,0.1l-3.4-3.3C488.5,65.7,447.8,65.9,447.8,65.9z M444,60.3l2.3,3l41.7,0.1l-3.4-3.3L444,60.3z M451.9,71.5l2.3,3
			l41.7,0.1l-3.4-3.3C492.5,71.3,451.9,71.5,451.9,71.5z"/>
	</g>
	<g id="Zebra-2">
		<path class="st1" d="M115.4,8.6l-2.3,3H71.3l3.4-3.3C74.7,8.3,115.4,8.6,115.4,8.6z M110.5,14.7l-2.3,3H66.4l3.4-3.3L110.5,14.7z
			 M106.1,21l-2.3,4H62l3.4-4.3L106.1,21z M100.4,29l-2.3,3H56.4l3.4-3.3L100.4,29z M95.9,35.2l-2.3,3H51.9l3.4-3.3L95.9,35.2z
			 M91.1,41.3l-2.3,3H47l3.4-3.3C50.4,41,91.1,41.4,91.1,41.3z M86.1,48.3l-2.3,3H42l3.4-3.3C45.4,48,86.1,48.4,86.1,48.3z M81,54.9
			l-2.3,3H36.9l3.4-3.3C40.3,54.6,81,54.9,81,54.9z M73.1,66.1l-2.3,3H29l3.4-3.3C32.4,65.8,73.1,66.1,73.1,66.1z M76.9,60.5l-2.3,3
			H32.9l3.4-3.3L76.9,60.5z M69.1,71.7l-2.3,3H25l3.4-3.3C28.4,71.4,69,71.7,69.1,71.7z"/>
	</g>
	<path class="st1" d="M33,30.2l-1.4,2l-14.2,0l1.5-2.2C18.9,30,33,30.2,33,30.2z"/>
	<path class="st0" d="M344.6,0.1L166.2,3l1.7-0.1L343.2,0L344.6,0.1L344.6,0.1z"/>
</g>
<polygon class="st1" points="169.2,5.7 0.2,5.7 0.2,4.7 170.3,4.7 "/>
<path class="st1" d="M497.5,30l1.5,2.2l-14.2,0l-1.4-2C483.5,30.2,497.5,30,497.5,30z"/>
<polygon class="st1" points="347.3,5.7 516.2,5.7 516.2,4.7 346.2,4.7 "/>
</svg>
