<?xml version="1.0" encoding="UTF-8"?>
<svg id="_Шар_2" data-name="Шар 2" xmlns="http://www.w3.org/2000/svg" viewBox="0 0 516.22 146.61">
  <defs>
    <style>
      .cls-1 {
        fill: #fff;
      }

      .cls-2 {
        fill: #575c6c;
      }
    </style>
  </defs>
  <g id="_Шар_1-2" data-name="Шар 1">
    <polygon class="cls-2" points="248.16 .16 261.92 .16 344.62 68.95 516.22 72.31 516.22 146.61 383.75 146.61 133.66 146.61 .22 146.61 .22 72.47 166.22 71.85 248.16 .16"/>
    <g id="Road_Line" data-name="Road Line">
      <polygon class="cls-1" points="261.3 68.11 258.48 67.95 258.44 67.29 253.79 0 254.63 .24 261.3 68.11"/>
      <polyline class="cls-2" points="257.54 56.48 260.36 56.6 259.75 51.45 257.11 51.34"/>
      <polyline class="cls-2" points="256.66 45.06 259.48 45.18 258.88 40.03 256.23 39.92"/>
      <polyline class="cls-2" points="255.67 34.42 258.48 34.54 257.88 29.39 255.23 29.28"/>
      <polyline class="cls-2" points="254.68 24.47 257.49 24.59 256.89 19.44 254.24 19.33"/>
      <polyline class="cls-2" points="254.74 14.99 257.56 15.11 256.95 9.96 254.31 9.85"/>
      <polyline class="cls-2" points="253.14 6.28 255.96 6.4 255.31 2.25 252.66 2.14"/>
    </g>
    <polygon class="cls-1" points="306.68 48.39 317.11 48.39 322.48 67.36 312.05 67.36 306.68 48.39"/>
    <polygon class="cls-1" points="286.59 48.39 297.33 48.39 301.16 68.5 292.42 68.5 286.59 48.39"/>
    <polygon class="cls-1" points="270.44 48.9 280.97 48.9 281.69 67.36 274.63 67.36 270.44 48.9"/>
    <polygon class="cls-1" points="235.54 48.9 243.83 48.9 244.79 67.36 235.54 67.36 235.54 48.9"/>
    <polygon class="cls-1" points="218.26 48.9 226.55 48.9 225.12 67.36 217.86 67.36 218.26 48.9"/>
    <polygon class="cls-1" points="198.43 48.9 209.47 48.9 204.97 67.36 195.87 67.36 198.43 48.9"/>
    <polygon class="cls-1" points="472.32 101.06 473.46 103.43 493.85 103.46 492.19 100.85 472.32 101.06"/>
    <g id="Zebra">
      <polygon class="cls-1" points="404.06 74.47 406.39 77.49 448.12 77.55 444.73 74.22 404.06 74.47"/>
      <polygon class="cls-1" points="408.91 80.61 411.23 83.63 452.97 83.7 449.57 80.37 408.91 80.61"/>
      <polygon class="cls-1" points="413.36 86.93 415.69 90.95 457.42 91.01 454.02 86.68 413.36 86.93"/>
      <polygon class="cls-1" points="418.97 94.87 421.3 97.89 463.03 97.96 459.64 94.63 418.97 94.87"/>
      <polygon class="cls-1" points="423.46 101.12 425.79 104.15 467.52 104.21 464.12 100.88 423.46 101.12"/>
      <polygon class="cls-1" points="428.3 107.26 430.63 110.29 472.36 110.35 468.97 107.02 428.3 107.26"/>
      <polygon class="cls-1" points="433.29 114.27 435.62 117.3 477.35 117.36 473.96 114.03 433.29 114.27"/>
      <polygon class="cls-1" points="438.37 120.81 440.7 123.83 482.43 123.9 479.04 120.57 438.37 120.81"/>
      <polygon class="cls-1" points="446.25 132.01 448.57 135.03 490.31 135.1 486.91 131.77 446.25 132.01"/>
      <polygon class="cls-1" points="442.42 126.41 444.74 129.43 486.47 129.5 483.08 126.17 442.42 126.41"/>
      <polygon class="cls-1" points="450.29 137.61 452.62 140.64 494.35 140.7 490.95 137.37 450.29 137.61"/>
    </g>
    <polygon class="cls-1" points="499.34 100.64 500.3 103.01 516.22 103.04 516.22 100.43 499.34 100.64"/>
    <g id="Zebra-2" data-name="Zebra">
      <polygon class="cls-1" points="115.37 76.42 113.04 79.44 71.31 79.44 74.71 76.12 115.37 76.42"/>
      <polygon class="cls-1" points="110.52 82.56 108.19 85.57 66.45 85.57 69.85 82.25 110.52 82.56"/>
      <polygon class="cls-1" points="106.05 88.87 103.72 92.89 61.99 92.89 65.39 88.56 106.05 88.87"/>
      <polygon class="cls-1" points="100.43 96.8 98.1 99.82 56.36 99.82 59.77 96.5 100.43 96.8"/>
      <polygon class="cls-1" points="95.93 103.05 93.6 106.07 51.87 106.07 55.27 102.74 95.93 103.05"/>
      <polygon class="cls-1" points="91.08 109.18 88.75 112.2 47.01 112.2 50.42 108.88 91.08 109.18"/>
      <polygon class="cls-1" points="86.08 116.18 83.75 119.2 42.01 119.2 45.42 115.88 86.08 116.18"/>
      <polygon class="cls-1" points="80.99 122.71 78.66 125.73 36.93 125.73 40.33 122.4 80.99 122.71"/>
      <polygon class="cls-1" points="73.1 133.9 70.77 136.92 29.03 136.92 32.43 133.6 73.1 133.9"/>
      <polygon class="cls-1" points="76.94 128.31 74.61 131.33 32.87 131.33 36.28 128 76.94 128.31"/>
      <polygon class="cls-1" points="69.05 139.5 66.71 142.52 24.98 142.52 28.38 139.19 69.05 139.5"/>
    </g>
    <polygon class="cls-1" points="44.16 101.34 43.03 103.71 22.63 103.74 24.29 101.13 44.16 101.34"/>
    <polygon class="cls-1" points="16.88 100.92 15.92 103.29 0 103.32 0 100.71 16.88 100.92"/>
    <polygon class="cls-1" points="167.85 71.85 166.22 71.85 248.16 .16 248.41 .18 167.85 71.85"/>
    <path class="cls-1" d="m202.76,59.98c3.22,0,3.22-5,0-5s-3.22,5,0,5h0Z"/>
    <polygon class="cls-1" points="343.48 69.36 345.11 69.36 261.93 .1 261.63 .1 343.48 69.36"/>
    <polygon class="cls-1" points="167.85 71.85 167.41 72.44 .21 72.96 .22 72.46 166.26 71.85 167.85 71.85"/>
    <polygon class="cls-1" points="342.93 68.96 343.46 69.42 516.22 72.55 516.22 72.31 344.95 68.92 342.93 68.96"/>
    <polygon class="cls-1" points=".22 146.61 .22 145.7 516.22 145.28 516.22 146.61 .22 146.61"/>
  </g>
</svg>