<svg id="Слой_2" data-name="Слой 2" xmlns="http://www.w3.org/2000/svg" xmlns:xlink="http://www.w3.org/1999/xlink" viewBox="0 0 2800 760"><defs><style>.cls-1{fill:url(#Безымянный_градиент_5);}.cls-2{fill:#9ecbdd;}.cls-3{fill:#6ca200;}.cls-4{fill:#96c22f;}.cls-5{fill:#7fa024;}.cls-6{fill:#fff;}.cls-7{fill:#638e0e;}.cls-8{fill:#575c6c;}.cls-9{fill:#707d00;opacity:0.43;isolation:isolate;}.cls-10{fill:#6fa000;}.cls-11{fill:#5c1b79;}.cls-12{fill:#4a7737;}.cls-13{fill:#7d9e24;}.cls-14{fill:#5a9300;}.cls-15{fill:#45684a;}.cls-16{fill:#305937;}.cls-17{fill:#123f18;}.cls-18{fill:#406632;}.cls-19{fill:#fcf9f9;}.cls-20{fill:#606060;}.cls-21{fill:#59843d;}.cls-22{fill:#8cce4d;}</style><linearGradient id="Безымянный_градиент_5" x1="1399.99" y1="760.65" x2="1399.99" y2="-0.37" gradientUnits="userSpaceOnUse"><stop offset="0" stop-color="#c7e995"/><stop offset="1" stop-color="#8bcedc"/></linearGradient></defs><title>road right</title><path class="cls-1" d="M2800.37-.37H-.39v761H2800.37ZM2251.91,534.21a.5.5,0,0,1,0-1A.5.5,0,0,1,2251.91,534.21Z"/><g id="Слой_6" data-name="Слой 6"><rect class="cls-2" x="359.43" y="703.91" width="82.12" height="27.73"/></g><path class="cls-3" d="M1479.63,394.57c-65.37,2.11-126.83,4.07-185.28,5.88-64.8,2-125.91,3.84-184.56,5.51C847.42,413.4,634,417.52,358.26,419.41q-40,.27-81.84.48c-62.73.32-128.91.54-199.68.67-26.35.05-51.56-1.49-77.13-3.75V733.16h1902v-368C1814.33,374.55,1665.21,388.57,1479.63,394.57Z"/><path class="cls-4" d="M1254.15,484.48s-98.77-22.07-211.64-14.72c-63.37,4.14-263,57.38-263,57.38H742.23S457,425.61,308.83,403.53C201.83,387.59,66.51,430.4-.39,455.41V750l1473.24,6.74L1641.16,479.7C1447.12,432.75,1254.15,484.48,1254.15,484.48Z"/><rect class="cls-4" x="1254.7" y="477.67" width="646.92" height="279.1"/><rect class="cls-4" x="-0.39" y="465.34" width="443.26" height="287"/><path class="cls-5" d="M2800.37,412c-213.92-42.32-422.18-169.21-558.48-161.75C1857,271.33,1683.08,382,1481.52,386.57c-59.37-3.6-100.73-13.94-146.2-30.68q-80-29.43-159.92-59c-46.51-17.18-91.39-38.71-138.73-53.72-40.41-12.81-82.7-18.31-124.34-13.43C807.5,242,703.81,266.69,602.75,296.81c-26.93,8-53.87,16.42-81.17,23.11C480.63,331,439,341.7,396.49,344.31c-72,4.41-136.55-12.25-205.34,8.84l-1.37.46c-3.7,1.23-7.41,2.46-11.11,3.73l-3,1.06c-2.41.86-12.48,2.08-11.78,6.09a3.1,3.1,0,0,0,.76,1.37c3.07,3.59,7.89,5.05,11.88,7.29,3.1,1.73,9.77,7.19,13.26,7.19l1.37.7q5.08,2.67,10.28,5.28c5.77,2.93,11.64,5.79,17.61,8.63q27.42,13.05,57.38,24.94c47.35,18.86,99.05,35.64,153.72,50.55l.71.19q8.36,2.26,16.8,4.48c2.7.72,5.4,1.43,8.13,2.12,1.7.45,3.42.89,5.12,1.32.68.17,1.38.34,2.05.52,1.08.28,2.17.54,3.24.83l1.26.31c.24.05.47.12.71.18l4.43,1.11q8,2,16.15,3.95l3.41.82,5.34,1.26c.19.06.39.1.58.14q11.1,2.63,22.32,5.16c2.86.65,5.73,1.27,8.61,1.92q9,2,18.15,3.94c1.29.29,2.59.57,3.88.84q31.66,6.71,64.05,12.76c33.57,6.29,67.62,12.06,101.92,17.34q10.83,1.67,21.72,3.27l1.78.26c3.9.59,7.8,1.15,11.7,1.71l7.58,1.09,2,.27c38,5.37,76.11,10.18,114.08,14.47l4.53.51c47.62,5.34,95,9.87,141.37,13.7,1.12.08,2.24.19,3.35.28,3.93.31,7.83.62,11.73.95q21.47,1.7,42.62,3.22c61.12,4.37,120.06,7.58,175.26,9.84,56.08,2.31,108.28,3.65,155,4.29,2.77,0,34.48.45,82,1.07L1755.42,588c37.58.49,665.1-22.09,1044.95-35.19ZM2251.91,534.21a.5.5,0,0,1,0-1A.5.5,0,0,1,2251.91,534.21Z"/><path class="cls-6" d="M745.56,98.22s-6.15-13,7.83-14.46c-1.44-10.33,12.24-25.93,36-19.27,4-11.26,26.68-31.13,42.45-6.93,30-13.75,34.3,6.07,30.29,9.64C885.42,62.59,881.3,80,877.39,82,908.23,74.78,904,98.23,904,98.23Z"/><path class="cls-6" d="M1139.47,183.14s-4.48-9.49,5.72-10.57c-1-7.55,9-18.94,26.29-14.08,2.94-8.22,19.49-22.74,31-5.06,22-10,25.06,4.43,22.13,7,17-3.36,14,9.37,11.15,10.79,22.53-5.26,19.41,11.87,19.41,11.87H1139.47Z"/><path class="cls-7" d="M653.19,536.34c1.2.24,2.34.53,3.44.85.72-.05,1.43-.08,2.14-.11.5,0,1,0,1.46,0,2.2-.83,4.33-1.72,6.58-2.5s4.3-1.4,6.5-2a109.79,109.79,0,0,1,13-2.55c4.73-.67,9.48-1.25,14.18-1.79,9.67-1.11,19.28-2,29-3.27a168.83,168.83,0,0,0,27.67-5.91c8.19-2.58,16.44-5.84,23.07-9.9a29.44,29.44,0,0,0,7.37-6.74,29.85,29.85,0,0,1,6.77-6.09c5.76-3.69,13.47-5.85,20.46-8.39a60.6,60.6,0,0,0,10.21-4.56,27.15,27.15,0,0,0,3.91-2.79l.29-.31c1.86-2.1,3.05-4.15,3-6.19a5.24,5.24,0,0,0-2.39-4.13c-8.56.62-17,.89-25.34.76-32.24-.48-61.46-7.07-95.59-2.51-56.23,7.51-191.48-30.39-242.93-8.8-9.55,4,70.52,79.11,60.48,82.56,2,.17,4.12.32,6.21.43,23.46,1.26,49-1.19,74.12-4,11.11-1.22,22.65-3,33.41-3.13A64.1,64.1,0,0,1,653.19,536.34Z"/><path class="cls-7" d="M875.11,496.69c1.2.24,2.34.53,3.44.85.72-.05,1.43-.08,2.14-.11l1.46,0c2.2-.82,4.33-1.71,6.57-2.49s4.3-1.4,6.5-2a112.2,112.2,0,0,1,13-2.54c4.73-.67,9.48-1.25,14.19-1.79,9.67-1.11,19.28-1.95,29-3.27a169.16,169.16,0,0,0,27.68-5.91c8.19-2.58,16.44-5.84,23.07-9.9a29.8,29.8,0,0,0,7.37-6.74,29.85,29.85,0,0,1,6.77-6.09c5.75-3.69,13.46-5.85,20.46-8.39a61.67,61.67,0,0,0,10.2-4.56,26.72,26.72,0,0,0,3.92-2.79l.29-.31c1.86-2.1,3-4.15,3-6.2a5.19,5.19,0,0,0-2.39-4.12c-8.56.61-17,.89-25.34.76-32.24-.48-61.46-7.07-95.58-2.51-56.24,7.51-191.48-30.39-242.94-8.8-9.55,4,70.52,79.11,60.49,82.56,2,.17,4.11.32,6.21.43,23.46,1.26,49-1.19,74.11-4,11.11-1.22,22.65-3,33.42-3.13A64.22,64.22,0,0,1,875.11,496.69Z"/><path class="cls-8" d="M684,524.67c6.93-8.43,14-16.38,25.09-24.88,10.2-7.81,23.38-16.26,52.7-21.88,27.48-5.28,61.7-7.21,113.9-7.08-2.68,9.87,26.64,23.31-12.24,17-30.75-5-13.41-7.26-43.62,1.43-12.76,3.67-25.82,5.51-38.39,10-7.38,2.65-15.63,7.12-17.89,16.29a29.5,29.5,0,0,0-.59,9.42c.55,6.83,2.77,15.34,7.41,26.25C758.37,523.1,711.49,526.85,684,524.67Z"/><path class="cls-4" d="M2800.37,468.06c-237.67-66.94-619,55.09-997,5.5-36.43-6.61-87.52,3.89-124-2.74-15.69-2.85-39.17,1.14-54.87-1.72-37.75-6.87-75.37-14.44-113.15-21.15-44.5-7.89-89.58-14.91-133.93-25-13.32-3-26.57-6.33-39.71-10-14.27-4-28.8-8.83-43.42-12.46a204.42,204.42,0,0,0-20.37-4.07,311.29,311.29,0,0,0-54.19-6.09c-36-1-74,6.74-110,15.67-10.53,2.61-20.88,5.32-31,8q-34.35,8.94-68.76,17.63c-69.9,17.69-139.6,35.53-208.05,58.34-4.91,1.64-11.11,3.32-16,5.22s-9.9,3.61-14.43,6.33c-6.05,3.55-11.4,9.37-10.44,18a12.28,12.28,0,0,0,.63,3c1.31,3.2,1.49,3,1.23,3.83-.43,1.23-.6,2.4-1.91,2.51l-.35,0c-5.48.4-19.12.63-31.62.72h-.79c-4,0-7.92.06-11.36.08-7.22,0-12.45,0-12.78,0-4-.21-7.94-.5-11.81-.86-.11,0-.21,0-.32,0h-.25a.35.35,0,0,0-.14,0,.75.75,0,0,0-.34.1c-.88.44-2.23,2.48-3,2.4-.52-.05-1-.1-1.55-.17s-.85-.11-1.28-.19a2.42,2.42,0,0,1-.47-.06c-1-.14-1.92-.3-2.86-.47-9.68-1.82-18.49-5.25-27.51-7.17a346.68,346.68,0,0,1-39.65-10.84l-5.27-1.81c-41.77-14.58-80.25-35-132.39-53.15l-.16-.06-.05,0h-.06q-10.41-3.64-20.94-7.25l-.18-.08s-66.18-21.93-97.77-30.5c-33.73-9.15-164-47.93-189.66-61.24,0,0-90.61-9.42-169-17.59V761.1H2800.37Zm-548.46,66.15a.5.5,0,0,1,0-1A.5.5,0,0,1,2251.91,534.21Z"/><path class="cls-8" d="M1057.51,760.34c-15-9.44-193.27-95.75-294.53-235.2a2.31,2.31,0,0,0-.14-.19l-.78.09-39.36,0-35.39-.39h-.15l-3.15,0-2.61,3.48q-2.53,3.36-5.12,6.67-9.4,12.06-19.41,23.58a586.3,586.3,0,0,1-85.11,79.37q-6.07,4.65-12.24,9.14C505,686.56,447.34,719.49,387,749c-5.78,2.83-19.07,7.8-24.27,10.4a17.63,17.63,0,0,0,2.3,1Z"/><path class="cls-6" d="M771.57,544.51A775.69,775.69,0,0,0,878.32,659.94c31,27,64.71,51.49,97.55,76.09,3.07,2.28,6.21,4.43,9.36,6.52,9.39,6.23,19,12,28.51,17.79h14.89l.27-.3c-13-7.84-27.16-15.7-39.68-23.64-3.13-2-6.21-4-9.19-6.13-33.24-23.77-67.56-47.51-98.89-73.64-34.37-28.76-65.85-61-94.79-95.19-4.82-5.73-9.55-11.52-14.1-17.45-4.35-6-9.28-11.86-12-18.81l-.35.11a26.82,26.82,0,0,0,2.31,5.15A147.67,147.67,0,0,0,771.57,544.51Z"/><path class="cls-6" d="M414.19,760.34c10.06-6,19.88-12.26,29.72-18.5,39.5-25.17,80.43-49.24,117.11-78.55,24.66-19.47,47-41.66,68.43-64.55,21.13-23.12,40.17-48.12,58.47-73.52l-.3-.21c-13.92,18.87-28.86,37-44,54.87-10.25,11.79-21.21,22.93-32.42,33.8C594.4,630,577,645.76,558.34,659.84c-37,28.35-78.51,51.52-118.31,75.79-13.35,8.11-28.16,17.18-41.78,24.5l.18.21Z"/><polygon class="cls-6" points="715.32 758.89 715.58 750.22 726.56 750.31 726.67 758.98 715.32 758.89"/><polygon class="cls-6" points="715.97 737.47 716.56 720.46 726.32 720.63 726.43 737.59 715.97 737.47"/><polygon class="cls-6" points="717.07 707.72 717.72 690.77 726.25 690.9 726.29 707.91 717.07 707.72"/><polygon class="cls-6" points="718.17 678.05 718.69 661.09 725.98 661.14 726.16 678.14 718.17 678.05"/><polygon class="cls-6" points="718.98 648.36 719.24 631.39 725.65 631.39 725.85 648.39 718.98 648.36"/><polygon class="cls-6" points="719.43 618.65 719.76 601.64 725.36 601.7 725.5 618.66 719.43 618.65"/><polygon class="cls-6" points="720.1 588.91 720.36 571.94 725.15 571.96 725.35 588.96 720.1 588.91"/><path class="cls-6" d="M720.77,559.13A150.16,150.16,0,0,1,722.51,542l3.93.6a149.5,149.5,0,0,0-1.23,16.7Z"/><path class="cls-6" d="M725.51,529.35a65.49,65.49,0,0,1,7.36-15.74l2.69,1.69A62.4,62.4,0,0,0,729,530.42Z"/><path class="cls-6" d="M741,503.46c1.07-1,2.05-2,3.17-3a38.12,38.12,0,0,1,3.54-2.63,65.38,65.38,0,0,1,7.56-4.22l1.06,2.11A62.55,62.55,0,0,0,749.2,500a33.26,33.26,0,0,0-3.2,2.53c-1,.9-2,2-2.93,2.92Z"/><path class="cls-6" d="M767.19,488.72a155.45,155.45,0,0,1,16.4-4.79l.37,1.51a153.25,153.25,0,0,0-16.06,5.18Z"/><path class="cls-6" d="M796.16,481.61q8.4-1.35,16.83-2.43l.09.65q-8.37,1.34-16.71,2.93Z"/><polygon class="cls-6" points="825.63 477.68 834.25 476.75 825.67 477.94 825.63 477.68"/><path class="cls-9" d="M2800.37,667.05l-557.7-96.89c-84.9-5.63-527.29-34.92-607.93-33.49-95.21,1.69-192.65,18-287.45,21.82-30.7,1.23-61.64,2-92.59,2.69-58.92,1.4-117.88,2.88-175.26,8.18q-9.63.89-19.2,1.92c-20.62,2.24-38.06,11.65-58.46,14.25-8.76,1.12-46.45,3.78-28.65,7.54,18.18,3.84,51.18,7.21,70.65,6.81,46.56-1,92.94-10.5,139.46-11.69,24.5-.63,48.15-.19,71.46.71,53.82,2.08,105.87,6.67,162.54,6.65,17.15,0,46.22-5.71,74.44-11,24.53-4.59,48.43-8.89,63.34-8.89,66.36,0,98.78-2.6,167.7,6.93,10.74,1.49,21.66,3.35,32.7,5.41,34.76,6.46,673.46,67.86,1044.95,101.89Z"/><path class="cls-10" d="M1268,607.36c2.8,0,8.56-.19,8.56-3.08a2.23,2.23,0,0,0-2.1-2.47c2.62-1,1-4.32.17-3.71,3.15-9.68-5.76-8.85-8.38-7.82,10.3-9.27-.17-13-3.66-11.33,2.44-3.91-1.57-4.74-2.1-3.91-1-9.88-12.22-8-13.09-3.5-11.7-9.06-16.06,4.53-14.66,7-7.16-.2-4.72,6.39-3.84,7-7,.41-5.94,7.4-3.15,10.5-4.54,0-3.14,6.38-.7,6.38-1.74.21-4.89-.2-4.71,2.89.1,1.84.87,1.85,4,2.06S1266.78,607.36,1268,607.36Z"/><path class="cls-11" d="M1244.18,579.67c-1.23,1.44.34,3.09,1.74,1.44S1245.4,578.23,1244.18,579.67Z"/><path class="cls-11" d="M1238.6,585.44c.69,2.25,3-1,2.09-1.64S1237.89,583.17,1238.6,585.44Z"/><path class="cls-11" d="M1245.05,584.82c-1.22.61-.17,2.06,1.4,1.44S1246.27,584.2,1245.05,584.82Z"/><path class="cls-11" d="M1257.8,594.5c-1.22,1.44,1.22,2.26,1.74,1S1259,593.06,1257.8,594.5Z"/><path class="cls-11" d="M1264.77,593.88c-.87-2.06-2.44-.82-1.74,1S1265.65,595.94,1264.77,593.88Z"/><path class="cls-10" d="M1220.56,718.21c6.69,0,20.45-.5,20.45-7.76q0-5.43-5-6.2c6.26-2.58,2.51-10.86.42-9.31,7.51-24.3-13.77-22.23-20-19.65,24.61-23.27-.42-32.58-8.76-28.45,5.84-9.82-3.76-11.89-5-9.82-2.51-24.83-29.21-20.18-31.3-8.8-28-22.75-38.4,11.38-35,17.58-17.11-.52-11.27,16-9.18,17.58-16.69,1-14.18,18.63-7.51,26.38-10.85,0-7.51,16-1.67,16-4.18.52-11.68-.52-11.27,7.25.25,4.61,2.09,4.65,9.6,5.17S1217.64,718.21,1220.56,718.21Z"/><path class="cls-11" d="M1163.61,648.65c-2.92,3.62.83,7.75,4.17,3.62S1166.53,645,1163.61,648.65Z"/><path class="cls-11" d="M1150.25,663.12c1.67,5.67,7.1-2.58,5-4.13S1148.58,657.44,1150.25,663.12Z"/><path class="cls-11" d="M1165.7,661.57c-2.92,1.55-.42,5.18,3.33,3.63S1168.62,660,1165.7,661.57Z"/><path class="cls-11" d="M1196.15,685.88c-2.92,3.62,2.92,5.69,4.18,2.58S1199.07,682.27,1196.15,685.88Z"/><path class="cls-11" d="M1212.85,684.33c-2.09-5.17-5.84-2.07-4.18,2.58S1214.93,689.5,1212.85,684.33Z"/><path class="cls-12" d="M1140.33,574.64c3.74,0,11.41-.26,11.41-4.12a3,3,0,0,0-2.79-3.29c3.5-1.38,1.4-5.77.24-5,4.19-12.91-7.69-11.81-11.18-10.44,13.74-12.37-.23-17.31-4.89-15.11,3.26-5.22-2.09-6.32-2.8-5.22-1.39-13.19-16.29-10.71-17.46-4.67-15.61-12.09-21.43,6-19.57,9.34-9.55-.28-6.29,8.52-5.12,9.34-9.32.55-7.92,9.89-4.2,14-6,0-4.19,8.52-.93,8.52-2.33.28-6.53-.28-6.29,3.85.14,2.45,1.16,2.47,5.35,2.74S1138.7,574.64,1140.33,574.64Z"/><path class="cls-12" d="M1088.61,537.7c-1.63,1.92.47,4.12,2.33,1.92S1090.24,535.77,1088.61,537.7Z"/><path class="cls-12" d="M1081.16,545.38c.93,3,4-1.38,2.79-2.2S1080.23,542.37,1081.16,545.38Z"/><path class="cls-12" d="M1089.78,544.56c-1.63.82-.23,2.75,1.86,1.92S1091.41,543.74,1089.78,544.56Z"/><path class="cls-12" d="M1106.77,557.47c-1.63,1.92,1.63,3,2.33,1.38S1108.41,555.55,1106.77,557.47Z"/><path class="cls-12" d="M1116.09,556.65c-1.16-2.75-3.26-1.1-2.33,1.38S1117.26,559.39,1116.09,556.65Z"/><path class="cls-13" d="M833.53,546s-7.35-7.64-4.75-10.19,6.48,4.08,6.48,4.08-6.92-13.25-1.3-16.3,8.64,13.76,8.64,13.76-3.89-29.06,6.48-30.07,6,26,6,26,1.72-15.79,6.48-14.27,0,15.3,0,15.3,4.75-11.22,7.35-9.69-4.75,17.33-4.75,17.33,4.75-6.63,6.91-5.1S866.8,546,866.8,546H833.53Z"/><path class="cls-14" d="M953.8,609.46s-14.7-15.3-9.52-20.4,13,8.17,13,8.17-13.84-26.53-2.6-32.65S972,592.12,972,592.12s-7.78-58.14,13-60.18S997,584,997,584s3.45-31.62,13-28.56,0,30.6,0,30.6,9.51-22.45,14.69-19.39-9.51,34.68-9.51,34.68,9.51-13.26,13.84-10.2-8.65,18.36-8.65,18.36H953.8Z"/><path class="cls-15" d="M815.72,407.2a3.7,3.7,0,0,1-.89,1.3c0,.12.54-.23.59-.12a4.91,4.91,0,0,1-1.17,1.48c.09.17.68-.23.73-.12a5.48,5.48,0,0,1-1.28,1.54c.2.23,1-.35,1-.23a9.2,9.2,0,0,1-1.82,2.36c.05.18,1.08-.35,1.13-.23a12.45,12.45,0,0,1-1.77,2.72c.09.23,1-.53,1.13-.3a10.81,10.81,0,0,1-2.12,2.85c.1.17,1.62-.42,1.67-.24a9.88,9.88,0,0,1-2.21,3c.06.23,1.58-.59,1.68-.36a11.69,11.69,0,0,1-2.56,3c0,.29,2.46-.48,2.51-.3a12.44,12.44,0,0,1-2.51,2.25c0,.24,5.36-.83,5.7-.83s6,1,6.1.71a6.93,6.93,0,0,1-2.61-2c.05-.23,2.51.53,2.61.24-1.37-1-2.9-2.72-2.8-2.91s1.77.53,1.82.24a7.16,7.16,0,0,1-2.26-3c.05-.17,1.67.59,1.77.24-1.53-1.36-2.36-2.49-2.31-2.72s1.32.47,1.37.17a8,8,0,0,1-1.87-2.66c0-.17,1.09.35,1.13.12-1.08-.88-1.77-1.95-1.67-2.07s.83.29.93.06a5.71,5.71,0,0,1-1.38-1.54c0-.18.69.23.74.06a4.71,4.71,0,0,1-1-1.36c0-.12.35.12.39-.06A4.33,4.33,0,0,1,815.72,407.2Z"/><path class="cls-16" d="M704.31,363.37c1.67.34.24,17.35,1.2,17.63s4.56-4.33,5.29-3.18-5,6.65-5.29,9,.48,2.6,1.21,2,2.88-3.76,3.36-2.89-2.4,4-3.6,6.36-1.44,4.63-.25,4,4.09-4.91,4.56-4-2.4,4.91-3.12,6.36-.47,2.89.72,1.73,8.41-8.38,9.13-7.81-1.68,4.63-3.84,7.23-7,6.36-7.45,8.38-.24,3.18,1,2,9.36-7.52,9.84-6.65-2.64,5.2-4.8,7.23-5,5.78-5.29,7.22-.47,2.32,2.16.87,6.48-3.46,9.37-5.2,3.84-4,4.32-3.46.48,2.31-1.68,4.62-7.44,6.65-7.44,7.23,1,.58,3.36,0,4.56-1.45,4.8-1.15-2.4,4.33-6,6.36-5.52,3.18-4.81,5.49,3.37.29,5.77-1.15,4.55-3.76,5-3.18-4.32,6.36-3.84,6.65,2.16,0,5-2,4.33-3.47,4.56-2.6-.72,3.76-3.84,6.07-7.68,5.2-7.68,6.08,1,2,4.08.86,6.48-3.76,6.72-2.89-3.12,4.63-5.52,6.07-4.08,2-4.08,2.6,1.93,1.45,6.48,0,5.77-2.6,6-1.73-2.4,5.49-6.48,6.07-6,.87-6.24,1.16a5.28,5.28,0,0,1-4.08,2.89c-2.88.29-7.45-2.31-10.09-2s-4.32,2.32-7.92,1.74-2.88-1.74-5-1.74-14.17-2-14.17-3.18,13-1.44,14.17-2,.24-1.74-1.93-2.6-15.84-10.13-15.6-11.56,6.48,2,10.56,3.46,6.24,2.6,6.72,1.74-1.92-1.74-5.76-4.63-7-5.2-6.24-6.08,4.56,2,8.17,3.76,4.32,1.74,4.55.87-5.52-5.49-5-6.07,4.33,1.73,6.24,2.6,2.88,1.44,3.12.28-3.61-3.18-7-4.91-9.6-6.65-9.37-8.09,5,2,8.17,3.46,4.55,2,4.55.87-2.4-3.76-4.8-5.78-4.32-4.05-4.08-4.91,6.73,3.46,7.45,2.31-.72-2.31-3.12-6.07-2.88-5.2-2.4-5.78,11.52,11.27,12.48,11.55,1.21-1.73.25-2.89-8.89-9-8.41-9.54,5.76,4.33,6.72,3.76-5-7.23-4.55-7.81,7.92,6.94,8.64,6.36,1.2-2.31-.25-4S689,389.1,689.67,388.52s9.36,6.64,10.32,7.8.47-3.46-.48-5.19-5.76-4.92-5-5.2,4.8.58,6,1.44,2.16-.28,1.44-2.6-7.2-11.56-7-12.14,6.24,6.36,7,6.08S702.87,363.09,704.31,363.37Z"/><path class="cls-16" d="M861.84,406c.51.1.07,5.23.37,5.32s1.37-1.31,1.59-1-1.52,2-1.59,2.7.14.79.36.61.87-1.14,1-.88-.72,1.23-1.08,1.92-.43,1.39-.07,1.22,1.23-1.48,1.38-1.22-.73,1.48-.94,1.91-.15.88.21.52,2.54-2.53,2.76-2.35-.51,1.39-1.16,2.18-2.1,1.92-2.25,2.53-.07,1,.29.61,2.82-2.27,3-2-.8,1.56-1.45,2.18a6.54,6.54,0,0,0-1.59,2.18c-.07.44-.15.71.65.26s2-1.05,2.82-1.56,1.16-1.23,1.3-1.05.15.7-.51,1.39-2.24,2-2.24,2.19.28.17,1,0a6.05,6.05,0,0,1,1.45-.35,4.36,4.36,0,0,1-1.81,1.91c-1.09.61-1.67,1-1.45,1.66s1,.09,1.74-.35,1.38-1.13,1.53-1-1.3,1.92-1.16,2,.65,0,1.52-.6,1.3-1,1.38-.79a2.42,2.42,0,0,1-1.16,1.83c-1,.7-2.32,1.56-2.32,1.82s.29.61,1.24.26,2-1.13,2-.87-.94,1.39-1.66,1.83-1.23.6-1.23.79.58.43,2,0,1.74-.79,1.81-.52a2.55,2.55,0,0,1-2,1.82,7.85,7.85,0,0,0-1.88.35,1.57,1.57,0,0,1-1.23.88c-.87.08-2.25-.71-3-.61s-1.3.7-2.39.52-.87-.52-1.53-.52-4.27-.61-4.27-1,3.91-.44,4.27-.61.07-.52-.58-.79-4.78-3-4.71-3.49,2,.61,3.19,1,1.88.79,2,.52-.58-.52-1.74-1.4-2.1-1.57-1.88-1.83,1.38.61,2.46,1.14,1.3.52,1.38.26-1.67-1.66-1.53-1.83,1.3.52,1.88.79.87.43,1,.09-1.09-1-2.1-1.49-2.89-2-2.82-2.44,1.52.61,2.46,1.05,1.37.61,1.37.26-.72-1.14-1.44-1.74-1.3-1.22-1.23-1.48,2,1,2.24.7-.22-.7-.94-1.83-.87-1.57-.73-1.74,3.47,3.4,3.77,3.49.36-.52.07-.88-2.68-2.7-2.54-2.87,1.74,1.31,2,1.13-1.53-2.18-1.38-2.35,2.39,2.09,2.61,1.91a.89.89,0,0,0-.07-1.22c-.44-.52-3-3.49-2.83-3.67s2.83,2,3.11,2.36.15-1.05-.14-1.57-1.75-1.48-1.53-1.57a3.92,3.92,0,0,1,1.81.44c.37.26.65-.09.43-.79s-2.17-3.49-2.09-3.67,1.88,1.92,2.09,1.83S861.41,405.93,861.84,406Z"/><path class="cls-16" d="M548.59,407.56c.85.18.12,8.76.61,8.9s2.3-2.19,2.66-1.6-2.54,3.35-2.66,4.52.24,1.32.6,1,1.46-1.9,1.7-1.46-1.21,2-1.82,3.21-.73,2.33-.12,2,2.06-2.48,2.3-2-1.21,2.47-1.57,3.2-.25,1.46.36.88,4.24-4.23,4.6-3.95-.85,2.34-1.94,3.65-3.52,3.21-3.76,4.23-.12,1.6.49,1,4.72-3.79,5-3.35-1.33,2.63-2.43,3.65a11,11,0,0,0-2.66,3.65c-.13.72-.25,1.17,1.09.44s3.27-1.75,4.72-2.63,1.94-2,2.18-1.75.25,1.17-.85,2.33-3.76,3.36-3.76,3.65.49.3,1.7,0a10.6,10.6,0,0,1,2.43-.58,7.28,7.28,0,0,1-3,3.21c-1.82,1-2.79,1.6-2.43,2.77s1.7.15,2.91-.58,2.31-1.9,2.55-1.6-2.18,3.2-1.94,3.35,1.09,0,2.55-1,2.18-1.75,2.3-1.32-.36,1.9-1.94,3.07-3.87,2.62-3.87,3.06.48,1,2.06.45,3.27-1.9,3.39-1.46-1.57,2.33-2.79,3.07-2.06,1-2.06,1.32,1,.72,3.28,0,2.91-1.32,3-.88-1.21,2.77-3.27,3.07a13.41,13.41,0,0,0-3.16.58,2.63,2.63,0,0,1-2.06,1.45c-1.46.15-3.76-1.17-5.09-1s-2.18,1.17-4,.88-1.46-.88-2.55-.88-7.15-1-7.15-1.6,6.54-.73,7.15-1,.12-.88-1-1.32-8-5.11-7.88-5.84,3.28,1,5.33,1.75,3.16,1.32,3.4.87-1-.87-2.91-2.33-3.52-2.62-3.16-3.06,2.31,1,4.12,1.89,2.18.88,2.3.45-2.79-2.78-2.54-3.07,2.18.87,3.15,1.31,1.46.73,1.58.15-1.82-1.6-3.52-2.48-4.84-3.35-4.72-4.08,2.54,1,4.11,1.75,2.31,1,2.31.44S540.7,436,539.48,435s-2.18-2-2.06-2.47,3.4,1.75,3.76,1.17-.36-1.17-1.58-3.07-1.45-2.63-1.21-2.92,5.81,5.69,6.3,5.84.61-.88.12-1.46-4.48-4.52-4.24-4.81,2.92,2.19,3.4,1.89-2.55-3.64-2.3-3.94,4,3.5,4.35,3.21a1.47,1.47,0,0,0-.12-2.05c-.72-.87-5.08-5.84-4.72-6.12s4.72,3.35,5.21,3.94.24-1.75-.24-2.63-2.92-2.48-2.55-2.62a6.43,6.43,0,0,1,3,.72c.61.44,1.09-.14.73-1.31s-3.64-5.84-3.52-6.13,3.15,3.21,3.52,3.07S547.86,407.42,548.59,407.56Z"/><path class="cls-16" d="M802.43,392.48c1.05.19.14,9.82.75,10s2.88-2.46,3.33-1.8-3.18,3.77-3.33,5.07.3,1.48.75,1.15,1.82-2.13,2.13-1.64-1.52,2.3-2.27,3.6-.91,2.62-.15,2.3,2.57-2.78,2.88-2.3-1.52,2.79-2,3.61-.3,1.64.45,1,5.29-4.75,5.75-4.42-1,2.62-2.41,4.1-4.4,3.6-4.69,4.75-.15,1.8.6,1.14,5.91-4.26,6.21-3.77-1.67,2.95-3,4.1-3.18,3.27-3.32,4.1-.31,1.31,1.36.49,4.09-2,5.9-2.94,2.42-2.3,2.72-2,.3,1.31-1.06,2.62-4.69,3.76-4.69,4.09.6.33,2.12,0,2.88-.82,3-.65-1.51,2.46-3.78,3.6-3.49,1.8-3,3.11,2.12.17,3.63-.66,2.88-2.13,3.18-1.8-2.72,3.6-2.42,3.77,1.37,0,3.19-1.14,2.72-2,2.87-1.48-.45,2.13-2.42,3.44-4.84,2.95-4.84,3.44.61,1.15,2.57.5,4.09-2.14,4.24-1.64-2,2.62-3.48,3.44-2.58,1.14-2.58,1.47,1.22.83,4.09,0,3.63-1.47,3.79-1-1.52,3.11-4.09,3.44a17.92,17.92,0,0,0-3.93.66,3.27,3.27,0,0,1-2.58,1.64c-1.82.16-4.68-1.31-6.36-1.14s-2.72,1.3-5,1-1.82-1-3.18-1-8.93-1.15-8.93-1.81,8.17-.82,8.93-1.14.15-1-1.21-1.47-10-5.74-9.84-6.55,4.09,1.14,6.67,2,3.93,1.48,4.23,1-1.21-1-3.63-2.62-4.39-2.94-3.93-3.44,2.88,1.15,5.15,2.14,2.72,1,2.87.49-3.48-3.11-3.18-3.44,2.72,1,3.94,1.47,1.82.83,2,.17-2.27-1.8-4.39-2.78-6.06-3.77-5.9-4.59,3.18,1.15,5.15,2,2.87,1.14,2.87.49-1.51-2.13-3-3.27-2.72-2.3-2.57-2.78,4.23,2,4.68,1.3-.45-1.3-2-3.44-1.82-2.94-1.52-3.27,7.26,6.39,7.87,6.55.75-1,.15-1.64-5.6-5.08-5.3-5.4,3.63,2.46,4.24,2.13-3.18-4.1-2.88-4.42,5,3.93,5.45,3.6.76-1.31-.14-2.29-6.36-6.55-5.91-6.88,5.91,3.77,6.51,4.42.31-2-.3-2.95-3.63-2.78-3.18-2.95a8.75,8.75,0,0,1,3.79.83c.76.49,1.36-.17.91-1.48s-4.55-6.55-4.4-6.88,3.94,3.61,4.4,3.44S801.52,392.31,802.43,392.48Z"/><path class="cls-16" d="M907.88,420.42c.33.06,0,3.07.23,3.12s.91-.76,1-.56-1,1.18-1,1.58.1.46.24.36.56-.67.66-.51-.47.72-.71,1.12-.29.82,0,.72.81-.86.9-.72-.46.87-.61,1.13-.1.51.14.3,1.65-1.48,1.79-1.37-.33.81-.75,1.27-1.37,1.13-1.47,1.48,0,.57.19.36,1.85-1.33,1.94-1.18-.52.92-1,1.27a4.12,4.12,0,0,0-1,1.28c0,.25-.09.4.43.15s1.27-.61,1.84-.92.76-.72.85-.61.1.41-.33.81-1.46,1.18-1.46,1.28.19.1.66,0a5,5,0,0,1,.94-.21,2.78,2.78,0,0,1-1.18,1.13c-.71.36-1.08.56-.94,1s.66.05,1.13-.21.9-.67,1-.57-.85,1.13-.75,1.18.42,0,1-.35.84-.62.9-.46-.14.67-.76,1.07-1.51.92-1.51,1.08.2.35.81.15,1.27-.66,1.33-.51-.62.82-1.09,1.08-.8.35-.8.46.38.25,1.27,0,1.14-.46,1.18-.31a1.6,1.6,0,0,1-1.27,1.08,4.68,4.68,0,0,0-1.23.21,1.06,1.06,0,0,1-.81.51c-.56.05-1.46-.41-2-.36s-.85.41-1.56.3-.57-.3-1-.3a9.18,9.18,0,0,1-2.78-.56c0-.21,2.54-.25,2.78-.36s0-.3-.38-.46-3.12-1.78-3.07-2,1.27.35,2.08.61,1.23.46,1.32.31-.38-.31-1.13-.82-1.37-.92-1.23-1.07.9.35,1.6.67.85.3.9.15-1.08-1-1-1.07.84.3,1.23.46.56.25.61,0-.71-.57-1.37-.87-1.89-1.18-1.84-1.43,1,.36,1.6.62.9.35.9.15-.47-.66-.94-1-.85-.72-.81-.87,1.33.62,1.46.41-.13-.41-.61-1.07-.56-.92-.47-1,2.27,2,2.45,2,.24-.3,0-.51-1.75-1.59-1.66-1.69,1.14.76,1.33.67-1-1.28-.9-1.38,1.56,1.23,1.69,1.12.24-.4,0-.72-2-2-1.84-2.14a8.74,8.74,0,0,1,2,1.37c.19.21.1-.61-.09-.91s-1.14-.87-1-.92a2.61,2.61,0,0,1,1.18.25c.23.15.42-.05.28-.46s-1.41-2-1.37-2.15,1.23,1.13,1.37,1.07S907.59,420.37,907.88,420.42Z"/><path class="cls-16" d="M848.71,410.84c.33.06,0,3.07.23,3.12s.9-.76,1-.57-1,1.18-1,1.59.1.46.23.36.57-.67.66-.52-.46.72-.71,1.13-.28.82,0,.72.81-.87.9-.72-.47.87-.61,1.13-.1.51.13.3,1.66-1.48,1.8-1.38-.33.82-.76,1.28-1.37,1.12-1.46,1.48,0,.56.19.35,1.84-1.32,1.93-1.17-.52.91-.94,1.27a3.86,3.86,0,0,0-1,1.27c-.05.25-.1.41.42.16s1.28-.62,1.84-.92.75-.72.85-.61.09.4-.33.81-1.46,1.18-1.46,1.27.19.11.65,0a4.62,4.62,0,0,1,.95-.2,2.73,2.73,0,0,1-1.18,1.12c-.71.37-1.08.57-.94,1s.65.05,1.13-.21.9-.66,1-.56-.85,1.13-.76,1.18.43,0,1-.36.85-.61.9-.45-.14.66-.75,1.07-1.51.92-1.51,1.07.19.36.81.16,1.27-.67,1.32-.51-.61.81-1.08,1.07-.81.36-.81.46.39.25,1.28,0,1.13-.46,1.18-.3a1.58,1.58,0,0,1-1.28,1.07,6.19,6.19,0,0,0-1.23.21,1,1,0,0,1-.8.51c-.57.05-1.47-.4-2-.35s-.85.4-1.56.3-.56-.3-1-.3a9.22,9.22,0,0,1-2.78-.57c0-.2,2.55-.25,2.78-.35s0-.3-.38-.46-3.12-1.79-3.06-2.05,1.27.36,2.08.62,1.23.46,1.32.3-.38-.3-1.13-.81-1.37-.92-1.23-1.08.9.36,1.6.67.85.3.9.16-1.08-1-1-1.08.85.31,1.23.46.57.25.62.05-.71-.56-1.37-.86-1.89-1.18-1.85-1.43,1,.35,1.61.61.9.36.9.16-.47-.67-1-1-.85-.72-.8-.87,1.32.62,1.46.41-.14-.41-.61-1.08-.57-.92-.47-1,2.27,2,2.45,2.05.23-.31,0-.52-1.75-1.58-1.65-1.69,1.13.77,1.32.67-1-1.27-.9-1.38,1.56,1.23,1.7,1.13.24-.41,0-.72-2-2-1.85-2.15a8.91,8.91,0,0,1,2,1.38c.19.21.1-.62-.1-.92s-1.13-.86-1-.92a3,3,0,0,1,1.18.25c.23.16.42-.05.28-.45s-1.41-2.05-1.37-2.15,1.23,1.12,1.37,1.07S848.42,410.8,848.71,410.84Z"/><path class="cls-16" d="M969.06,417.63c.27.05,0,2.48.19,2.52s.73-.62.84-.46-.8.95-.84,1.29.08.37.19.28.46-.53.54-.41-.39.58-.58.91-.22.66,0,.58.65-.7.73-.58-.38.7-.5.91-.08.41.12.25,1.33-1.2,1.44-1.11-.27.66-.6,1-1.11.91-1.18,1.2,0,.45.15.28,1.49-1.07,1.56-.94-.41.74-.76,1a3,3,0,0,0-.84,1c0,.21-.08.33.35.12s1-.49,1.48-.74.61-.58.68-.5.08.33-.27.66-1.17.94-1.17,1,.15.09.53,0a2.69,2.69,0,0,1,.77-.16,2.34,2.34,0,0,1-1,.91c-.57.28-.87.45-.76.78s.54,0,.92-.17.73-.54.8-.45-.69.91-.61.95.35,0,.8-.29.68-.49.72-.37-.11.53-.6.86-1.22.75-1.22.87.15.29.65.12,1-.54,1.06-.41-.49.65-.87.86-.65.29-.65.37.3.21,1,0,.92-.37,1-.25a1.29,1.29,0,0,1-1,.87,5.55,5.55,0,0,0-1,.16.78.78,0,0,1-.65.42c-.46,0-1.18-.33-1.6-.29s-.69.33-1.26.26-.46-.26-.79-.26a7.43,7.43,0,0,1-2.25-.45,16.42,16.42,0,0,1,2.25-.28c.19-.09,0-.25-.31-.37A11.23,11.23,0,0,1,964,428c0-.21,1,.28,1.68.49s1,.38,1.06.25-.3-.25-.92-.65-1.11-.75-1-.87.72.29,1.3.54.68.25.72.12-.87-.78-.79-.87.68.25,1,.37.46.21.5.05-.57-.45-1.11-.7-1.53-.95-1.48-1.16.79.29,1.3.5.72.28.72.12-.38-.54-.76-.83-.68-.58-.65-.7,1.07.5,1.18.33-.11-.33-.49-.86-.46-.75-.38-.83,1.82,1.61,2,1.65.19-.25,0-.42-1.41-1.28-1.33-1.36.92.62,1.07.54-.8-1-.73-1.11,1.25,1,1.37.91a.39.39,0,0,0,0-.58c-.22-.25-1.6-1.65-1.49-1.73a6.78,6.78,0,0,1,1.64,1.11c.15.16.08-.5-.08-.75s-.92-.7-.8-.74a2.12,2.12,0,0,1,1,.2c.19.12.34,0,.22-.37s-1.14-1.65-1.11-1.73,1,.91,1.11.86S968.83,417.6,969.06,417.63Z"/><path class="cls-16" d="M976.75,423.52c.22,0,0,2,.16,2s.59-.5.67-.36-.65.77-.67,1,.06.3.15.23.38-.43.44-.33-.32.46-.46.73-.18.54,0,.47.53-.57.59-.47-.31.57-.4.74-.06.34.1.2,1.08-1,1.17-.9-.22.53-.5.83-.89.73-1,1,0,.36.12.23,1.21-.86,1.27-.77-.34.6-.62.83a2.51,2.51,0,0,0-.67.84c0,.16-.06.26.27.1s.84-.4,1.21-.6.49-.47.55-.4.06.27-.21.54-1,.77-1,.83.12.07.44,0a3,3,0,0,1,.61-.13s-.31.5-.77.74-.71.36-.61.63.43,0,.73-.13.59-.43.65-.36-.55.73-.49.77.28,0,.65-.24.55-.39.59-.3-.1.43-.5.7-1,.6-1,.7.12.24.52.11.84-.43.87-.34-.4.54-.71.7-.53.24-.53.31.24.16.83,0,.74-.31.77-.2-.31.63-.83.7a4.24,4.24,0,0,0-.8.13.73.73,0,0,1-.53.34c-.37,0-1-.27-1.3-.24s-.56.27-1,.2-.38-.2-.65-.2a6.28,6.28,0,0,1-1.82-.36,13.93,13.93,0,0,1,1.82-.24c.15-.06,0-.19-.25-.3a8.9,8.9,0,0,1-2-1.33c0-.17.83.23,1.36.4s.81.3.87.19-.24-.19-.74-.53-.89-.6-.8-.7.59.23,1,.43.56.2.59.1-.71-.63-.65-.7.56.2.81.3.37.17.4,0-.46-.36-.89-.57-1.23-.77-1.21-.94.65.24,1,.4.59.23.59.1-.31-.43-.62-.66-.55-.47-.52-.58.86.4.95.27-.1-.27-.4-.7-.37-.6-.31-.67,1.48,1.3,1.6,1.34.16-.2,0-.34-1.15-1-1.09-1.1.74.5.87.43-.65-.83-.59-.9,1,.8,1.11.74.16-.27,0-.47-1.3-1.33-1.2-1.4a5.78,5.78,0,0,1,1.33.9c.12.13.06-.4-.06-.6s-.74-.57-.65-.6a1.86,1.86,0,0,1,.77.17c.15.1.27,0,.18-.31s-.93-1.33-.89-1.4.8.74.89.7S976.57,423.48,976.75,423.52Z"/><path class="cls-17" d="M787.8,387.83a6.74,6.74,0,0,1-1.73,2.37c0,.21,1-.43,1.15-.22a9.27,9.27,0,0,1-2.31,2.69c.19.32,1.35-.44,1.44-.22s-1.63,2.15-2.49,2.8c.38.43,1.92-.64,2-.43a17.26,17.26,0,0,1-3.56,4.3c.1.32,2.12-.64,2.21-.43a21.76,21.76,0,0,1-3.46,4.95c.2.43,2-1,2.21-.54s-3.26,4.63-4.13,5.17c.19.32,3.17-.76,3.27-.44s-3,4.73-4.33,5.49c.1.43,3.08-1.08,3.27-.64s-3.74,4.62-5,5.38c0,.53,4.8-.86,4.9-.54s-3.75,3.44-4.9,4.09c0,.43,10.47-1.51,11.14-1.51s11.62,1.73,11.92,1.29c-2.12-.85-5.19-3.22-5.1-3.65s4.9,1,5.1.43c-2.69-1.83-5.67-4.95-5.48-5.27s3.46,1,3.55.43c-3-2.36-4.51-5.16-4.42-5.48s3.27,1.07,3.46.43c-3-2.47-4.61-4.51-4.51-4.95s2.59.86,2.68.33c-2.11-1.94-3.74-4.52-3.64-4.85s2.11.64,2.21.22c-2.12-1.61-3.46-3.55-3.27-3.76s1.63.53,1.83.1a10.24,10.24,0,0,1-2.69-2.8c0-.32,1.34.44,1.44.11a9.15,9.15,0,0,1-2-2.47c0-.21.68.21.77-.11A7,7,0,0,1,787.8,387.83Z"/><path class="cls-16" d="M513.93,421.58A6.84,6.84,0,0,1,512.2,424c0,.21,1-.44,1.16-.22a9.19,9.19,0,0,1-2.32,2.7c.19.33,1.35-.43,1.45-.21A10.77,10.77,0,0,1,510,429c.39.43,1.93-.65,2-.44a17.18,17.18,0,0,1-3.57,4.33c.1.32,2.13-.65,2.22-.44a22.23,22.23,0,0,1-3.47,5c.19.43,2-1,2.22-.54s-3.29,4.65-4.16,5.18c.2.32,3.18-.75,3.29-.43s-3,4.76-4.34,5.51c.09.43,3.08-1.08,3.28-.65s-3.76,4.64-5,5.4c0,.54,4.83-.87,4.93-.54s-3.76,3.46-4.93,4.11c0,.43,10.52-1.52,11.19-1.52s11.67,1.73,12,1.3c-2.13-.86-5.21-3.24-5.11-3.67s4.92,1,5.11.43c-2.71-1.84-5.7-5-5.5-5.29s3.47,1,3.57.43c-3-2.37-4.54-5.18-4.44-5.51s3.28,1.08,3.47.43c-3-2.48-4.62-4.54-4.53-5s2.61.86,2.71.32c-2.13-1.94-3.77-4.54-3.67-4.86s2.12.65,2.22.21c-2.12-1.62-3.48-3.56-3.29-3.77s1.64.53,1.84.1a10.62,10.62,0,0,1-2.7-2.81c0-.32,1.35.44,1.44.11a8.75,8.75,0,0,1-2-2.49c0-.22.67.22.77-.1A7,7,0,0,1,513.93,421.58Z"/><path class="cls-17" d="M646.92,381.57s-1.82,4.06-4.09,5.59c0,.51,2.5-1,2.72-.51S641.7,392,640.1,393c.45.76,3.18-1,3.41-.51s-3.86,5.08-5.9,6.61c.91,1,4.54-1.53,4.76-1S636,407.23,634,408.26c.22.76,5-1.53,5.22-1s-6.13,10.18-8.17,11.7c.45,1,4.77-2.29,5.22-1.27s-7.72,10.93-9.76,12.2c.45.76,7.49-1.78,7.72-1s-7,11.19-10.22,13c.23,1,7.26-2.54,7.72-1.53s-8.85,10.94-11.8,12.71c0,1.28,11.35-2,11.58-1.27s-8.86,8.14-11.58,9.66c0,1,24.75-3.56,26.34-3.56s27.46,4.06,28.15,3.05c-5-2-12.26-7.63-12-8.64s11.58,2.29,12,1c-6.36-4.32-13.4-11.69-12.94-12.46s8.17,2.29,8.4,1c-7-5.59-10.67-12.2-10.44-13s7.72,2.53,8.17,1c-7-5.85-10.9-10.68-10.67-11.7s6.13,2,6.36.76c-5-4.57-8.86-10.67-8.63-11.43s5,1.52,5.23.51c-5-3.82-8.18-8.39-7.73-8.9s3.86,1.27,4.32.25c-2.72-2-6.36-5.85-6.36-6.61s3.18,1,3.41.25c-2.73-2.54-4.77-5.34-4.77-5.85s1.59.51,1.82-.25A16.58,16.58,0,0,1,646.92,381.57Z"/><path class="cls-16" d="M663.56,379.4s-1.77,4-4,5.43c0,.5,2.43-1,2.64-.49s-3.75,5.18-5.29,6.17c.44.74,3.08-1,3.31-.49s-3.75,4.94-5.74,6.42c.89,1,4.41-1.48,4.63-1s-6.18,8.89-8.16,9.88c.21.73,4.85-1.48,5.07-1s-6,9.88-7.94,11.36c.44,1,4.63-2.22,5.07-1.23s-7.5,10.61-9.48,11.85c.44.74,7.28-1.72,7.49-1s-6.83,10.86-9.92,12.59c.22,1,7.05-2.47,7.5-1.49s-8.6,10.62-11.47,12.35c0,1.23,11-2,11.25-1.23s-8.6,7.9-11.25,9.39c0,1,24-3.46,25.58-3.46s26.68,3.95,27.34,3c-4.85-2-11.9-7.41-11.69-8.39s11.25,2.21,11.69,1c-6.18-4.19-13-11.36-12.57-12.09s7.94,2.22,8.16,1c-6.84-5.43-10.36-11.85-10.15-12.59s7.5,2.47,7.94,1C676.76,420.66,673,416,673.24,415s6,2,6.18.74c-4.86-4.45-8.6-10.37-8.38-11.11s4.85,1.48,5.07.49c-4.86-3.7-7.94-8.14-7.5-8.64s3.75,1.24,4.19.25c-2.64-2-6.17-5.68-6.17-6.42s3.08,1,3.31.24c-2.65-2.47-4.63-5.18-4.63-5.68s1.54.5,1.77-.24A16.46,16.46,0,0,1,663.56,379.4Z"/><path class="cls-18" d="M761.35,392a4.21,4.21,0,0,0,1.15,2c.81.66,1.14.88,1,1.09s-.41-.32-.58-.11.17.44,0,.66-.33-.22-.49,0,.65,1.31,1,1.53.65.43.65.65-.49.22-.65,0-.33-.65-.49-.43,0,.43-.17.43-.16-.21-.33,0,.33.88.65,1.1,1.75.65,1.8,1.09-.39.32-.58.32-.18.08-.12.32a.29.29,0,0,1-.3.4c-.24,0-.66-.57-.84-.57s-.24.25-.12.49a17.69,17.69,0,0,0,2.4,2.24c.66.49,1.32.89,1.37,1.21s-.59.4-.78.32-.3-.17-.36-.08-.06.49-.48.49-.71-.57-.78-.57-.06.49-.3.49-.36-.4-.48-.4-.18.16-.06.56a18.66,18.66,0,0,0,2.83,3.37c.78.65,1.8.81,1.86,1s-.06.56-.84.64a1.26,1.26,0,0,1-1.14-.32c-.06-.08-.12,0-.12.24s0,.32-.25.32-.47-.64-.53-.56,0,.39-.19.64-.42-.08-.53-.08-.18.16-.12.32a13.73,13.73,0,0,0,2.4,3.45,15.89,15.89,0,0,0,2.94,1.92.88.88,0,0,1-.84.57c-.47,0-.72,0-.72.07s-.12.64-.47.57-1.21-.72-1.33-.72.06.8-.36.88-.66-.64-.72-.64.12.81-.37.72-1-1.13-1.14-1.13.12.64-.12.72-1-.56-1.09-.56-.06,1-.42.88-.54-.72-.84-.72-.54.64-.78.64-.06-.71-.3-.8-.54.56-1,.56-.12-.72-.42-.8-.84.72-1.14.72-.12-.65-.37-.72-.66.88-1,.88.06-.88-.12-.88-.72.56-1.08.56-.19-.81-.37-.81-.36.49-.84.4-.6-.32-.47-.48a36.37,36.37,0,0,0,3.24-3.37c1.31-1.68,1.49-2.33,1.37-2.58s-.42.4-.65.32.12-.72-.07-.8-.59.72-1.08.72-.3-.4-.3-.57-.9.17-1-.16,1.68-1,2.82-2.09a5.75,5.75,0,0,0,1.5-3.05c0-.24-.3-.16-.42,0a2.65,2.65,0,0,1-.91.56c-.12,0-.18-.39-.24-.39s-.18.39-.54.39-.24-.32-.36-.39-.42,0-.72-.08-.24-.25,0-.32a7.1,7.1,0,0,0,2.4-1.85c1.08-1.2,1.27-1.77,1.21-1.92s-.6.24-.72.24-.19-.32-.25-.32-.42.32-.53.24.12-.48.06-.56-.78.16-.72-.08.72-.24,1.38-.81a4.23,4.23,0,0,0,1.26-1.68c-.06-.17-.42.39-.6.32s-.18-.25-.24-.17-.12.24-.24.24.06-.32-.12-.24-.43.17-.43,0,.37-.4,1.09-1.2a2,2,0,0,0,.59-1.53s-.42.32-.53.24,0-.32-.13-.32-.53.08-.47-.07.47.07,1.2-1S761.17,391.94,761.35,392Z"/><path class="cls-18" d="M874.29,411.58a3.85,3.85,0,0,0,1.07,1.84c.77.62,1.08.82.92,1s-.38-.3-.54-.1.16.41,0,.61-.3-.2-.46,0,.62,1.24.92,1.43.62.41.62.62-.46.21-.62,0-.3-.62-.46-.41,0,.41-.15.41-.16-.21-.31,0,.31.82.62,1,1.64.62,1.68,1-.37.31-.54.31-.16.08-.11.3,0,.37-.28.37-.61-.52-.79-.52-.22.22-.11.45a17.3,17.3,0,0,0,2.25,2.1c.62.45,1.24.83,1.29,1.13s-.56.37-.72.3-.28-.15-.34-.08-.06.45-.45.45-.68-.52-.73-.52-.06.45-.28.45-.33-.38-.45-.38-.16.15-.05.53a17.5,17.5,0,0,0,2.64,3.16c.73.6,1.69.76,1.74.91s0,.52-.78.6-1-.22-1.07-.3-.11,0-.11.22,0,.31-.23.31-.45-.61-.5-.53,0,.37-.16.6-.39-.08-.51-.08-.16.15-.11.3a12.9,12.9,0,0,0,2.25,3.24,15.27,15.27,0,0,0,2.76,1.81.85.85,0,0,1-.79.52c-.45,0-.68,0-.68.08s-.11.61-.45.53-1.12-.68-1.24-.68.06.76-.33.84-.62-.6-.68-.6.11.75-.34.67-.95-1-1.06-1,.11.6-.12.67-.9-.53-1-.53,0,.91-.39.84-.5-.68-.79-.68-.5.61-.73.61-.05-.68-.27-.76-.51.53-.9.53-.12-.67-.39-.75-.79.67-1.07.67-.11-.59-.34-.67-.61.83-.9.83,0-.83-.11-.83-.68.53-1,.53-.16-.76-.33-.76-.34.45-.79.38-.57-.31-.45-.46a30.33,30.33,0,0,0,3-3.16c1.24-1.58,1.4-2.18,1.29-2.41s-.39.38-.62.31.12-.68-.05-.76-.56.68-1,.68-.28-.37-.28-.53-.84.15-.9-.15,1.58-.9,2.64-2a5.35,5.35,0,0,0,1.41-2.86c0-.22-.28-.14-.39,0a2.72,2.72,0,0,1-.84.53c-.12,0-.17-.37-.23-.37s-.16.37-.5.37-.23-.3-.34-.37-.39,0-.68-.08-.22-.22,0-.3a6.87,6.87,0,0,0,2.26-1.73c1-1.13,1.18-1.66,1.12-1.81s-.56.23-.67.23-.17-.3-.23-.3-.39.3-.5.22.11-.45.05-.53-.73.15-.67-.08.67-.22,1.29-.75a4,4,0,0,0,1.18-1.58c-.06-.14-.39.38-.57.31s-.16-.23-.22-.15-.11.23-.23.23,0-.31-.11-.23-.39.15-.39,0,.34-.37,1-1.13a1.86,1.86,0,0,0,.57-1.43s-.39.31-.51.23,0-.3-.11-.3-.5.07-.45-.08.45.08,1.13-.9S874.11,411.55,874.29,411.58Z"/><path class="cls-18" d="M849.83,430.62a5.7,5.7,0,0,0,1.75,2.7c1.25.91,1.75,1.21,1.5,1.5s-.62-.45-.87-.14.25.59,0,.9-.51-.31-.75,0,1,1.8,1.5,2.1,1,.6,1,.9-.75.31-1,0-.5-.9-.74-.59,0,.59-.26.59-.25-.3-.5,0,.5,1.21,1,1.5,2.68.91,2.75,1.5-.59.44-.87.44-.28.12-.18.45-.1.55-.46.55-1-.77-1.28-.77-.37.33-.19.66A28.17,28.17,0,0,0,855.9,446c1,.67,2,1.22,2.1,1.66s-.91.55-1.19.44-.46-.22-.56-.11-.09.65-.73.65-1.1-.77-1.2-.77-.09.66-.46.66-.55-.55-.73-.55-.28.21-.1.77a25.46,25.46,0,0,0,4.32,4.63c1.19.89,2.75,1.11,2.84,1.33s-.1.77-1.28.88-1.66-.33-1.75-.44-.18,0-.18.33,0,.44-.36.44-.74-.88-.83-.77,0,.56-.27.89-.64-.12-.83-.12-.27.22-.18.45a19.55,19.55,0,0,0,3.67,4.74c2,1.77,4.5,2.43,4.5,2.66a1.37,1.37,0,0,1-1.29.77c-.73,0-1.1,0-1.1.11s-.18.88-.73.77-1.84-1-2-1,.09,1.1-.56,1.22-1-.89-1.1-.89.18,1.1-.55,1-1.56-1.54-1.74-1.54.18.88-.19,1-1.46-.77-1.65-.77-.1,1.33-.64,1.22-.83-1-1.29-1-.82.88-1.19.88-.1-1-.46-1.1-.82.77-1.46.77-.19-1-.65-1.1-1.28,1-1.74,1-.18-.88-.55-1-1,1.22-1.47,1.22.1-1.22-.18-1.22-1.1.77-1.65.77-.28-1.1-.56-1.1-.55.66-1.28.56-.92-.44-.74-.66a50.43,50.43,0,0,0,5-4.64c2-2.32,2.3-3.2,2.11-3.53s-.65.55-1,.44.18-1-.1-1.1-.91,1-1.65,1-.46-.56-.46-.77-1.38.21-1.46-.22,2.56-1.33,4.31-2.87a7.5,7.5,0,0,0,2.3-4.19c0-.33-.46-.22-.64,0a4.68,4.68,0,0,1-1.38.77c-.18,0-.28-.56-.37-.56s-.27.56-.82.56-.36-.44-.55-.56-.64,0-1.1-.11-.37-.33,0-.44a11,11,0,0,0,3.66-2.54c1.66-1.65,1.93-2.43,1.84-2.65s-.92.33-1.1.33-.28-.44-.37-.44-.64.44-.82.33.18-.66.1-.78-1.2.22-1.1-.11,1.1-.33,2.1-1.1,2-2.1,1.93-2.32-.65.55-.92.44-.28-.33-.37-.22-.18.33-.36.33.09-.44-.18-.33-.64.22-.64,0,.55-.55,1.65-1.65a2.56,2.56,0,0,0,.92-2.1s-.64.44-.82.33,0-.44-.19-.44-.82.11-.73-.11.73.11,1.83-1.33S849.56,430.59,849.83,430.62Z"/><path class="cls-18" d="M856.55,421.61a4.62,4.62,0,0,0,1.46,2.26c1,.76,1.47,1,1.26,1.26s-.52-.38-.73-.13.21.5,0,.75-.41-.25-.62,0,.83,1.51,1.25,1.76.84.5.84.75-.63.26-.84,0-.41-.75-.62-.5,0,.5-.21.5-.21-.25-.41,0,.41,1,.83,1.26,2.24.76,2.29,1.26-.49.37-.72.37-.24.1-.16.37-.08.46-.38.46-.85-.65-1.08-.65-.3.28-.15.56a23.23,23.23,0,0,0,3.08,2.59c.84.55,1.68,1,1.76,1.38s-.77.46-1,.38-.38-.19-.46-.1-.08.56-.62.56-.92-.65-1-.65-.08.55-.39.55-.46-.46-.61-.46-.24.18-.08.65a21.54,21.54,0,0,0,3.61,3.88,18.07,18.07,0,0,0,2.39,1.11c.08.18-.08.65-1.08.74s-1.38-.28-1.45-.37-.16,0-.16.27,0,.38-.3.38-.62-.74-.7-.65,0,.46-.23.73-.54-.09-.69-.09-.24.18-.16.37a16.19,16.19,0,0,0,3.08,4c1.69,1.48,3.76,2,3.76,2.22a1.14,1.14,0,0,1-1.08.65c-.61,0-.92,0-.92.09s-.15.74-.61.65-1.53-.83-1.69-.83.08.93-.46,1-.85-.73-.92-.73.16.92-.46.83-1.31-1.29-1.45-1.29.15.73-.16.83-1.23-.65-1.39-.65-.07,1.11-.53,1-.7-.83-1.08-.83-.69.74-1,.74-.08-.83-.38-.93-.7.65-1.24.65-.15-.83-.53-.93-1.08.83-1.46.83-.15-.73-.46-.83-.85,1-1.23,1,.08-1-.15-1-.92.65-1.39.65-.23-.92-.46-.92-.46.55-1.07.45-.78-.37-.62-.55a40.56,40.56,0,0,0,4.15-3.88c1.69-1.94,1.92-2.69,1.77-3s-.54.46-.85.38.16-.83-.08-.93-.77.83-1.38.83-.39-.46-.39-.65-1.15.18-1.23-.18,2.15-1.11,3.62-2.41a6.33,6.33,0,0,0,1.92-3.52c0-.27-.38-.18-.54,0a3.44,3.44,0,0,1-1.15.65c-.15,0-.23-.46-.3-.46s-.24.46-.7.46-.3-.37-.45-.46-.54,0-.92-.09-.31-.28,0-.37a9.39,9.39,0,0,0,3.07-2.14c1.39-1.38,1.61-2,1.54-2.21s-.77.27-.92.27-.24-.37-.31-.37-.53.37-.69.28.16-.56.08-.65-1,.18-.92-.1.92-.27,1.77-.92,1.69-1.76,1.61-1.95-.54.46-.77.38-.23-.28-.3-.18-.16.27-.31.27.08-.37-.15-.27-.54.18-.54,0,.46-.46,1.39-1.39a2.2,2.2,0,0,0,.77-1.76s-.54.37-.7.28,0-.38-.15-.38-.7.1-.62-.09.62.09,1.54-1.11S856.31,421.58,856.55,421.61Z"/><path class="cls-15" d="M917.2,428.68a3.12,3.12,0,0,1-.75,1.11c0,.1.46-.2.5-.1a4.17,4.17,0,0,1-1,1.25c.08.15.58-.2.62-.1a4.9,4.9,0,0,1-1.08,1.31c.16.2.83-.31.87-.2a7.82,7.82,0,0,1-1.54,2c0,.14.92-.31,1-.2a10,10,0,0,1-1.5,2.31c.09.2.88-.45,1-.25a8.92,8.92,0,0,1-1.8,2.41c.09.15,1.38-.36,1.42-.2A8.42,8.42,0,0,1,913,440.6c0,.19,1.34-.51,1.42-.31a9.44,9.44,0,0,1-2.17,2.51c0,.26,2.09-.39,2.13-.25a10.52,10.52,0,0,1-2.13,1.91c0,.2,4.55-.7,4.84-.7s5,.8,5.18.6a5.66,5.66,0,0,1-2.2-1.7c0-.2,2.13.45,2.2.2a9.17,9.17,0,0,1-2.38-2.46c.09-.15,1.5.45,1.54.2A6.21,6.21,0,0,1,919.5,438c0-.16,1.42.5,1.5.2a6.58,6.58,0,0,1-2-2.31c0-.2,1.13.39,1.17.14a6.32,6.32,0,0,1-1.58-2.26c0-.15.91.3,1,.11a4.1,4.1,0,0,1-1.42-1.76c.08-.11.71.25.79.05a4.64,4.64,0,0,1-1.17-1.31c0-.15.58.2.63.05a4.26,4.26,0,0,1-.88-1.15c0-.1.3.1.34-.05A3.57,3.57,0,0,1,917.2,428.68Z"/><path class="cls-15" d="M927.59,420.29a2.49,2.49,0,0,1-.59.87c0,.08.37-.16.39-.08a3.39,3.39,0,0,1-.78,1c.07.12.46-.16.49-.08a3.79,3.79,0,0,1-.85,1c.13.16.66-.23.69-.15a5.92,5.92,0,0,1-1.21,1.57c0,.12.72-.23.75-.15a8.34,8.34,0,0,1-1.17,1.82c.07.15.69-.36.75-.2a7.2,7.2,0,0,1-1.41,1.9c.07.12,1.08-.28,1.12-.16a6.9,6.9,0,0,1-1.48,2c0,.15,1.05-.4,1.12-.24a7.55,7.55,0,0,1-1.71,2c0,.2,1.64-.31,1.68-.2a8.45,8.45,0,0,1-1.68,1.5c0,.16,3.58-.55,3.81-.55a38.54,38.54,0,0,0,4.07.47,4.66,4.66,0,0,1-1.74-1.34c0-.16,1.67.35,1.74.15a7,7,0,0,1-1.87-1.93c.07-.12,1.18.36,1.21.16a4.88,4.88,0,0,1-1.51-2c0-.12,1.12.4,1.18.16a5.26,5.26,0,0,1-1.54-1.82c0-.16.88.31.92.12a5.23,5.23,0,0,1-1.25-1.78c0-.12.72.23.75.08a3.22,3.22,0,0,1-1.11-1.39c.07-.08.55.2.62.05a3.72,3.72,0,0,1-.92-1c0-.12.46.16.5.05a3.48,3.48,0,0,1-.7-.91c0-.08.24.08.26-.05A2.72,2.72,0,0,1,927.59,420.29Z"/><path class="cls-15" d="M895.42,415.25a3.77,3.77,0,0,1-.88,1.3c0,.12.53-.23.59-.12a5.14,5.14,0,0,1-1.18,1.48c.09.17.68-.23.73-.12a5.31,5.31,0,0,1-1.28,1.54c.2.23,1-.35,1-.23a9.2,9.2,0,0,1-1.82,2.36c0,.18,1.09-.35,1.13-.23A12.45,12.45,0,0,1,892,424c.1.23,1-.53,1.13-.3A10.59,10.59,0,0,1,891,426.5c.1.17,1.62-.42,1.68-.24a10.23,10.23,0,0,1-2.21,3c0,.23,1.57-.59,1.67-.36a11.69,11.69,0,0,1-2.56,3c0,.29,2.46-.48,2.51-.3a12.44,12.44,0,0,1-2.51,2.25c0,.24,5.36-.83,5.7-.83s6,.95,6.1.71a6.76,6.76,0,0,1-2.61-2c0-.23,2.5.53,2.61.24-1.38-1-2.91-2.72-2.8-2.91s1.77.53,1.82.24a7,7,0,0,1-2.26-3c0-.17,1.67.59,1.76.24-1.52-1.36-2.35-2.49-2.31-2.72s1.33.47,1.38.17a7.71,7.71,0,0,1-1.87-2.66c0-.17,1.08.35,1.12.12-1.08-.88-1.77-2-1.67-2.07s.83.29.94.06a5.71,5.71,0,0,1-1.38-1.54c0-.18.68.23.73.06a4.92,4.92,0,0,1-1-1.36c0-.12.35.12.39-.06A4.45,4.45,0,0,1,895.42,415.25Z"/><path class="cls-15" d="M842,404.29a3,3,0,0,1-.75,1.1c0,.1.46-.2.5-.11a4.17,4.17,0,0,1-1,1.26c.08.15.58-.2.62-.1a5.29,5.29,0,0,1-1.08,1.31c.16.19.83-.31.87-.2a8,8,0,0,1-1.54,2c0,.14.92-.31,1-.2a9.74,9.74,0,0,1-1.5,2.3c.09.2.88-.45,1-.25a8.86,8.86,0,0,1-1.79,2.41c.09.15,1.38-.36,1.42-.2a8.39,8.39,0,0,1-1.87,2.56c0,.2,1.33-.51,1.42-.31a10,10,0,0,1-2.16,2.52c0,.25,2.08-.4,2.12-.26A11.33,11.33,0,0,1,837.1,420c0,.2,4.54-.7,4.83-.7s5,.81,5.16.6a5.75,5.75,0,0,1-2.2-1.71c0-.2,2.12.45,2.2.2a8.47,8.47,0,0,1-2.37-2.46c.09-.15,1.5.45,1.54.2a5.94,5.94,0,0,1-1.91-2.56c0-.15,1.42.5,1.5.2-1.29-1.15-2-2.1-2-2.3s1.13.39,1.17.14a6.47,6.47,0,0,1-1.59-2.26c0-.15.92.31,1,.11a4.29,4.29,0,0,1-1.42-1.76c.09-.11.71.25.79.05a4.64,4.64,0,0,1-1.17-1.31c0-.16.58.2.63,0a3.9,3.9,0,0,1-.88-1.15c0-.1.3.1.33-.05A3.34,3.34,0,0,1,842,404.29Z"/><path class="cls-15" d="M593.39,387.83s-1.65,4-3.71,5.46c0,.5,2.27-1,2.47-.49s-3.5,5.21-4.95,6.2c.42.75,2.89-1,3.09-.49s-3.5,4.95-5.35,6.45c.82,1,4.11-1.5,4.32-1s-5.77,8.92-7.62,9.92c.21.74,4.53-1.49,4.74-1s-5.57,9.92-7.42,11.41c.42,1,4.32-2.23,4.74-1.24s-7,10.67-8.86,11.91c.42.74,6.81-1.73,7-1s-6.39,10.91-9.28,12.65c.21,1,6.6-2.48,7-1.49s-8,10.67-10.71,12.4c0,1.24,10.3-2,10.5-1.24s-8,7.94-10.5,9.43c0,1,22.45-3.47,23.89-3.47s24.93,4,25.55,3c-4.53-2-11.13-7.44-10.92-8.43s10.5,2.23,10.92,1c-5.77-4.22-12.16-11.42-11.74-12.16s7.41,2.23,7.62,1c-6.38-5.46-9.68-11.91-9.48-12.66s7,2.48,7.42,1c-6.39-5.7-9.89-10.41-9.68-11.41s5.56,2,5.77.75c-4.53-4.47-8-10.42-7.82-11.17s4.53,1.5,4.74.5c-4.53-3.72-7.42-8.19-7-8.68s3.5,1.24,3.91.25c-2.47-2-5.77-5.7-5.77-6.45s2.89,1,3.1.25c-2.47-2.48-4.33-5.21-4.33-5.7s1.44.49,1.65-.25A16.68,16.68,0,0,1,593.39,387.83Z"/><path class="cls-16" d="M746.41,382.43a8.47,8.47,0,0,1-2.19,3c0,.26,1.34-.55,1.46-.27s-2.06,2.85-2.91,3.38c.24.41,1.69-.54,1.82-.26s-2.07,2.71-3.16,3.52c.49.55,2.43-.81,2.55-.54s-3.39,4.88-4.48,5.42c.12.41,2.67-.81,2.79-.54a28.63,28.63,0,0,1-4.36,6.23c.24.55,2.55-1.22,2.79-.67s-4.11,5.83-5.21,6.51c.25.41,4-.95,4.12-.54s-3.75,6-5.45,6.91c.12.55,3.87-1.36,4.11-.81s-4.72,5.83-6.29,6.78c0,.68,6-1.08,6.17-.67s-4.72,4.34-6.17,5.15c0,.55,13.2-1.89,14-1.89s14.66,2.17,15,1.62c-2.67-1.08-6.55-4.07-6.43-4.6s6.18,1.22,6.43.54c-3.39-2.3-7.15-6.24-6.91-6.65s4.36,1.23,4.48.55c-3.75-3-5.69-6.52-5.57-6.91s4.11,1.36,4.36.54c-3.76-3.12-5.82-5.7-5.7-6.24s3.28,1.09,3.39.41c-2.67-2.44-4.72-5.7-4.6-6.11s2.67.82,2.79.27c-2.67-2-4.36-4.48-4.12-4.75s2.07.68,2.31.14c-1.46-1.08-3.39-3.12-3.39-3.53s1.7.55,1.82.14a11.26,11.26,0,0,1-2.55-3.12c0-.27.85.27,1-.14A8.84,8.84,0,0,1,746.41,382.43Z"/><path class="cls-17" d="M750.7,401.5a9.35,9.35,0,0,1-2.4,3.29c0,.3,1.47-.6,1.61-.3s-2.27,3.13-3.21,3.73c.27.45,1.87-.6,2-.3s-2.27,3-3.47,3.89c.53.6,2.67-.9,2.8-.6s-3.73,5.38-4.93,6c.13.45,2.93-.9,3.06-.6s-3.6,6-4.81,6.88c.27.6,2.81-1.34,3.07-.74s-4.54,6.43-5.74,7.17c.27.45,4.4-1,4.54-.6s-4.14,6.58-6,7.63c.13.6,4.27-1.5,4.54-.9s-5.21,6.43-6.94,7.48c0,.74,6.67-1.2,6.81-.75s-5.21,4.78-6.81,5.69c0,.59,14.55-2.1,15.49-2.1s16.15,2.39,16.56,1.79c-2.94-1.19-7.21-4.49-7.08-5.08s6.81,1.34,7.08.59c-3.74-2.54-7.88-6.88-7.61-7.32s4.81,1.34,4.94.6c-4.15-3.29-6.28-7.18-6.15-7.63s4.54,1.5,4.81.6c-4.14-3.44-6.41-6.28-6.27-6.88s3.6,1.2,3.73.45c-2.93-2.69-5.2-6.28-5.07-6.72s2.94.9,3.07.3c-2.94-2.24-4.81-4.93-4.54-5.23s2.27.74,2.54.15c-1.6-1.2-3.73-3.44-3.73-3.9s1.87.6,2,.15a12,12,0,0,1-2.81-3.44c0-.3.94.31,1.07-.15A9.83,9.83,0,0,1,750.7,401.5Z"/><path class="cls-15" d="M723.89,385s-2,4.87-4.54,6.69c0,.61,2.78-1.21,3-.6s-4.29,6.38-6.06,7.6c.5.91,3.53-1.22,3.79-.61s-4.29,6.08-6.56,7.9c1,1.22,5.05-1.82,5.3-1.21s-7.07,10.94-9.34,12.16c.25.91,5.55-1.82,5.8-1.22s-6.82,12.16-9.09,14c.51,1.21,5.31-2.74,5.81-1.52s-8.59,13.07-10.86,14.59c.5.91,8.33-2.13,8.59-1.21s-7.83,13.37-11.36,15.5c.25,1.22,8.08-3,8.59-1.82s-9.85,13.07-13.13,15.2c0,1.52,12.62-2.43,12.88-1.51s-9.85,9.73-12.88,11.55c0,1.21,27.52-4.26,29.29-4.26s30.54,4.86,31.3,3.65c-5.55-2.43-13.63-9.12-13.37-10.34s12.87,2.74,13.37,1.22c-7.07-5.17-14.89-14-14.39-14.9s9.09,2.74,9.34,1.21c-7.82-6.69-11.86-14.59-11.61-15.5s8.59,3,9.09,1.21c-7.82-7-12.11-12.76-11.86-14s6.82,2.43,7.07.91c-5.56-5.47-9.84-12.76-9.59-13.68s5.55,1.82,5.8.6c-5.55-4.55-9.09-10-8.58-10.64s4.28,1.52,4.8.31c-3-2.44-7.07-7-7.07-7.91s3.53,1.22,3.78.31c-3-3.05-5.3-6.39-5.3-7s1.77.61,2-.3A20.24,20.24,0,0,1,723.89,385Z"/><path class="cls-16" d="M770.23,400.63s-1.67,3.72-3.76,5.11c0,.47,2.3-.92,2.51-.46s-3.56,4.87-5,5.8c.42.69,2.93-.93,3.15-.47s-3.56,4.65-5.44,6c.84.93,4.18-1.39,4.4-.92s-5.87,8.36-7.75,9.28c.21.7,4.61-1.39,4.82-.92s-5.66,9.29-7.54,10.68c.42.93,4.4-2.09,4.82-1.16s-7.12,10-9,11.15c.41.7,6.91-1.63,7.12-.92s-6.49,10.21-9.43,11.84c.21.93,6.7-2.32,7.12-1.39s-8.17,10-10.89,11.61c0,1.16,10.47-1.86,10.69-1.16s-8.18,7.43-10.69,8.83c0,.92,22.83-3.25,24.3-3.25s25.34,3.71,26,2.79c-4.61-1.86-11.31-7-11.1-7.9s10.68,2.09,11.1.93c-5.87-3.95-12.36-10.68-11.94-11.38s7.54,2.09,7.74.93c-6.49-5.11-9.84-11.15-9.63-11.85s7.12,2.33,7.54.93c-6.49-5.34-10-9.76-9.85-10.68s5.66,1.85,5.87.69c-4.61-4.18-8.17-9.76-8-10.45s4.61,1.4,4.82.47c-4.61-3.49-7.54-7.67-7.12-8.13s3.56,1.16,4,.23c-2.52-1.85-5.87-5.34-5.87-6s2.93.93,3.15.24c-2.52-2.32-4.41-4.88-4.41-5.35s1.47.47,1.68-.23A15.47,15.47,0,0,1,770.23,400.63Z"/><path class="cls-16" d="M829.31,392.46c.65.13.09,6.74.46,6.85s1.78-1.68,2.06-1.24-2,2.59-2.06,3.49.19,1,.47.79,1.12-1.47,1.31-1.13-.94,1.58-1.4,2.47-.57,1.79-.1,1.58,1.59-1.91,1.78-1.58-.94,1.91-1.22,2.47-.19,1.13.28.68,3.27-3.26,3.55-3-.65,1.8-1.5,2.81-2.7,2.47-2.89,3.26-.09,1.24.37.79,3.64-2.92,3.83-2.59-1,2-1.86,2.81a8.51,8.51,0,0,0-2,2.81c-.1.56-.19.9.84.34s2.52-1.35,3.64-2,1.49-1.58,1.68-1.35.19.9-.65,1.79S833,415,833,415.26s.38.22,1.31,0,1.78-.57,1.86-.45a5.6,5.6,0,0,1-2.33,2.47c-1.39.79-2.14,1.24-1.86,2.13s1.31.11,2.24-.45,1.77-1.47,2-1.24-1.68,2.47-1.49,2.58.84,0,2-.79,1.68-1.35,1.78-1a3.11,3.11,0,0,1-1.49,2.36c-1.21.9-3,2-3,2.35s.37.79,1.59.34,2.52-1.46,2.61-1.13-1.21,1.8-2.15,2.36-1.58.79-1.58,1,.74.57,2.52,0,2.23-1,2.33-.67a3.29,3.29,0,0,1-2.52,2.36,9.43,9.43,0,0,0-2.43.45,2,2,0,0,1-1.58,1.12c-1.12.12-2.9-.9-3.92-.79s-1.68.91-3.08.68-1.11-.68-1.95-.68-5.51-.78-5.51-1.23,5-.57,5.51-.79.09-.68-.75-1-6.16-3.93-6.07-4.49,2.53.78,4.11,1.35,2.43,1,2.62.67-.75-.67-2.24-1.79-2.7-2-2.42-2.36,1.77.79,3.17,1.47,1.68.67,1.77.34-2.14-2.14-1.95-2.36,1.68.67,2.42,1,1.12.57,1.22.11-1.41-1.23-2.71-1.9-3.73-2.58-3.64-3.15,2,.79,3.17,1.35,1.78.79,1.78.34-.94-1.46-1.86-2.24-1.68-1.58-1.59-1.91,2.62,1.35,2.9.9-.28-.9-1.22-2.35-1.11-2-.93-2.25,4.48,4.39,4.85,4.5.47-.68.09-1.13-3.44-3.48-3.26-3.71,2.23,1.68,2.61,1.47-1.95-2.81-1.77-3,3.07,2.69,3.36,2.47a1.14,1.14,0,0,0-.09-1.58c-.57-.68-3.92-4.5-3.64-4.72s3.64,2.58,4,3,.19-1.35-.19-2-2.24-1.91-2-2a5,5,0,0,1,2.33.56c.47.34.84-.11.56-1s-2.8-4.5-2.7-4.72,2.43,2.47,2.7,2.35S828.75,392.35,829.31,392.46Z"/><path class="cls-18" d="M833.82,411.82a5.78,5.78,0,0,0,1.59,2.73c1.13.91,1.58,1.21,1.36,1.51s-.57-.46-.8-.15.22.6,0,.91-.45-.31-.69,0,.91,1.82,1.36,2.12.91.61.91.91-.68.3-.91,0-.45-.91-.68-.61,0,.61-.23.61-.22-.3-.45,0,.45,1.21.91,1.52,2.44.92,2.5,1.51-.54.45-.79.45-.25.12-.16.45a.4.4,0,0,1-.42.55c-.34,0-.92-.78-1.17-.78s-.34.34-.16.67a24.54,24.54,0,0,0,3.33,3.12c.92.66,1.84,1.23,1.92,1.67s-.83.55-1.09.44-.41-.22-.5-.11-.09.67-.67.67-1-.78-1.08-.78-.09.66-.41.66-.51-.55-.67-.55-.25.22-.09.78a25.38,25.38,0,0,0,3.93,4.69c1.08.89,2.5,1.11,2.58,1.33s-.09.78-1.17.89a1.68,1.68,0,0,1-1.59-.44c-.08-.1-.16,0-.16.34s0,.44-.34.44-.67-.89-.75-.78,0,.56-.25.89-.59-.11-.76-.11-.25.23-.16.44a18.9,18.9,0,0,0,3.33,4.8c1.84,1.79,4.09,2.46,4.09,2.68a1.23,1.23,0,0,1-1.17.78c-.66,0-1,0-1,.11s-.17.9-.67.78-1.67-1-1.84-1,.09,1.12-.5,1.23-.92-.89-1-.89.16,1.11-.51,1-1.42-1.56-1.58-1.56.16.89-.17,1-1.33-.78-1.5-.78-.08,1.33-.58,1.23-.75-1-1.17-1-.75.9-1.08.9-.09-1-.42-1.12-.75.78-1.33.78-.16-1-.58-1.12-1.17,1-1.59,1-.16-.89-.5-1-.92,1.23-1.33,1.23.08-1.23-.17-1.23-1,.78-1.5.78-.25-1.12-.5-1.12-.5.67-1.17.56-.83-.45-.67-.67a48.08,48.08,0,0,0,4.51-4.69c1.84-2.35,2.09-3.23,1.91-3.57s-.58.56-.91.44.16-1-.09-1.11-.83,1-1.5,1-.42-.55-.42-.78-1.24.23-1.33-.22,2.34-1.34,3.93-2.91a8,8,0,0,0,2.08-4.23c0-.33-.41-.23-.58,0a3.82,3.82,0,0,1-1.24.77c-.17,0-.26-.55-.34-.55s-.25.55-.76.55-.33-.44-.5-.55-.58,0-1-.11-.34-.34,0-.44a10.35,10.35,0,0,0,3.33-2.57c1.5-1.67,1.75-2.45,1.67-2.68s-.83.34-1,.34-.25-.44-.34-.44-.58.44-.75.34.16-.67.08-.78-1.08.22-1-.12,1-.33,1.91-1.11a5.74,5.74,0,0,0,1.75-2.34c-.08-.22-.58.55-.83.44s-.25-.34-.34-.23-.16.34-.33.34.08-.44-.17-.34-.58.23-.58,0,.5-.55,1.5-1.67a2.7,2.7,0,0,0,.83-2.12s-.58.44-.75.34,0-.45-.17-.45-.75.12-.66-.11.66.11,1.67-1.33S833.57,411.78,833.82,411.82Z"/><path class="cls-16" d="M822.58,436.22c.33.06,0,3.07.24,3.12s.9-.76,1-.56-1,1.17-1,1.58.09.46.23.36.56-.67.66-.52-.47.72-.71,1.13-.29.82,0,.72.81-.87.9-.72-.46.87-.61,1.13-.1.51.14.3,1.65-1.48,1.79-1.38-.33.82-.75,1.28-1.37,1.12-1.47,1.48,0,.56.19.35,1.85-1.32,1.94-1.17-.52.91-1,1.27a4,4,0,0,0-1,1.27c0,.25-.09.41.43.16s1.27-.62,1.84-.92.76-.72.85-.61.1.4-.33.81-1.46,1.18-1.46,1.27.19.11.66,0a4.59,4.59,0,0,1,.94-.2,2.73,2.73,0,0,1-1.18,1.12c-.71.37-1.08.57-.94,1s.66.05,1.13-.21.9-.66,1-.56-.85,1.13-.75,1.18.42,0,1-.36.84-.61.9-.45-.14.66-.76,1.07-1.5.92-1.5,1.07.19.36.8.16,1.27-.67,1.33-.51-.62.81-1.09,1.07-.8.36-.8.46.38.25,1.27,0,1.14-.46,1.18-.3a1.58,1.58,0,0,1-1.27,1.07,6,6,0,0,0-1.23.21,1,1,0,0,1-.81.51c-.56.06-1.46-.4-2-.35s-.85.41-1.56.3-.57-.3-1-.3A9.15,9.15,0,0,1,817,452c0-.2,2.54-.25,2.78-.35s0-.3-.38-.46-3.12-1.78-3.07-2,1.27.35,2.08.61,1.23.46,1.32.3-.38-.3-1.13-.81-1.37-.92-1.23-1.08.9.36,1.6.67.85.31.9.16-1.08-1-1-1.08.84.31,1.23.46.56.25.61.05-.71-.56-1.37-.86-1.89-1.18-1.84-1.43,1,.35,1.6.61.9.36.9.16-.47-.67-.94-1-.85-.72-.81-.87,1.33.62,1.46.41-.13-.41-.61-1.08-.56-.92-.47-1,2.27,2,2.45,2.05.24-.31,0-.52-1.75-1.58-1.66-1.69,1.14.77,1.33.67-1-1.27-.9-1.38,1.56,1.23,1.69,1.13.24-.41,0-.72-2-2-1.84-2.15a9.09,9.09,0,0,1,2,1.38c.19.21.1-.61-.09-.92s-1.14-.86-1-.92a3,3,0,0,1,1.18.25c.23.16.42,0,.28-.45s-1.41-2.05-1.36-2.15,1.23,1.12,1.36,1.07S822.3,436.17,822.58,436.22Z"/><path class="cls-18" d="M812.63,406.7a9.68,9.68,0,0,0,3,4.64c2.14,1.55,3,2.06,2.58,2.58s-1.08-.77-1.5-.26.42,1,0,1.55-.86-.52-1.29,0,1.72,3.1,2.58,3.62,1.71,1,1.71,1.55-1.28.52-1.71,0-.86-1.55-1.29-1,0,1-.42,1-.42-.52-.86,0,.86,2.06,1.72,2.58,4.6,1.56,4.71,2.58c.09.77-1,.77-1.49.77s-.48.19-.31.76-.16.94-.79.94-1.73-1.32-2.2-1.32-.63.57-.31,1.13a45.76,45.76,0,0,0,6.3,5.31c1.73,1.14,3.46,2.09,3.62,2.85s-1.58.94-2,.76-.78-.38-.94-.19-.16,1.13-1.26,1.13-1.89-1.32-2-1.32-.16,1.13-.79,1.13-.94-.94-1.26-.94-.47.38-.15,1.32,5.35,6.45,7.4,8,4.72,1.89,4.89,2.28-.16,1.32-2.21,1.51-2.83-.57-3-.76-.31,0-.31.57,0,.76-.63.76-1.26-1.51-1.42-1.32,0,.94-.48,1.52-1.1-.2-1.42-.2-.48.39-.31.77a32.47,32.47,0,0,0,6.3,8.15c3.47,3,7.72,4.18,7.72,4.55a2.31,2.31,0,0,1-2.2,1.33c-1.26,0-1.89,0-1.89.19s-.31,1.51-1.26,1.32-3.15-1.7-3.46-1.7.15,1.89-.95,2.08-1.73-1.51-1.89-1.51.32,1.89-.94,1.7-2.68-2.65-3-2.65.31,1.52-.31,1.71-2.52-1.33-2.84-1.33-.15,2.28-1.1,2.09-1.42-1.7-2.2-1.7-1.42,1.51-2,1.51-.16-1.71-.79-1.9-1.42,1.33-2.52,1.33-.31-1.71-1.1-1.9-2.2,1.71-3,1.71-.31-1.52-1-1.71-1.73,2.09-2.52,2.09.16-2.09-.31-2.09-1.89,1.33-2.83,1.33-.48-1.9-.95-1.9-.94,1.14-2.2.94-1.58-.76-1.26-1.13a86.17,86.17,0,0,0,8.51-8c3.47-4,3.94-5.51,3.63-6.07s-1.1.95-1.74.76.31-1.7-.15-1.89-1.58,1.7-2.84,1.7-.79-.94-.79-1.32-2.36.38-2.52-.38,4.41-2.28,7.4-4.94a13,13,0,0,0,3.94-7.2c0-.58-.79-.39-1.1,0a7.43,7.43,0,0,1-2.37,1.32c-.31,0-.48-.94-.63-.94s-.48.94-1.42.94-.64-.76-.95-.94-1.1,0-1.89-.19-.63-.58,0-.77a18.89,18.89,0,0,0,6.3-4.35c2.84-2.85,3.31-4.18,3.16-4.55s-1.58.57-1.89.57-.48-.76-.63-.76-1.1.76-1.43.57.32-1.14.16-1.33-2,.38-1.89-.19,1.89-.57,3.62-1.9,3.47-3.6,3.31-4-1.1.94-1.57.76-.48-.57-.64-.38-.31.57-.63.57.16-.76-.31-.57-1.1.38-1.1,0,.94-.95,2.83-2.84,1.58-3.61,1.58-3.61-1.1.76-1.42.57,0-.76-.31-.76-1.42.19-1.26-.19,1.26.19,3.15-2.28S812.16,406.64,812.63,406.7Z"/><path class="cls-16" d="M890.33,416.69c.56.1.07,5.25.4,5.34s1.54-1.31,1.78-1-1.7,2-1.78,2.72.17.78.41.61,1-1.13,1.14-.87-.81,1.22-1.22,1.92-.48,1.4-.08,1.22,1.38-1.49,1.54-1.22-.81,1.49-1,1.92-.17.88.24.53,2.84-2.54,3.08-2.36-.57,1.4-1.29,2.18-2.35,1.92-2.51,2.54-.08,1,.32.61,3.16-2.28,3.32-2-.89,1.58-1.62,2.19a6.52,6.52,0,0,0-1.77,2.18c-.08.44-.17.7.72.26s2.19-1.05,3.16-1.58,1.29-1.22,1.45-1,.17.7-.56,1.4-2.5,2-2.5,2.18.32.18,1.13,0a7.58,7.58,0,0,1,1.62-.34,4.61,4.61,0,0,1-2,1.92c-1.21.61-1.86,1-1.62,1.66s1.14.09,1.94-.34,1.54-1.14,1.7-1-1.45,1.93-1.29,2,.73,0,1.7-.62,1.45-1,1.53-.79-.24,1.14-1.29,1.84-2.59,1.58-2.59,1.84.32.61,1.38.26,2.18-1.14,2.26-.88-1.05,1.4-1.86,1.84-1.38.61-1.38.79.65.43,2.18,0,1.94-.79,2-.53a2.69,2.69,0,0,1-2.18,1.83,10,10,0,0,0-2.11.35,1.76,1.76,0,0,1-1.38.88c-1,.08-2.5-.71-3.39-.62s-1.46.7-2.67.53-1-.53-1.7-.53-4.77-.61-4.77-1,4.36-.44,4.77-.62.08-.52-.65-.78-5.34-3.06-5.26-3.51,2.18.62,3.56,1.05,2.11.79,2.26.53-.65-.53-1.94-1.4-2.35-1.58-2.1-1.84,1.53.62,2.74,1.14,1.46.52,1.54.26-1.87-1.67-1.7-1.84,1.46.53,2.1.79,1,.44,1.05.08-1.21-1-2.34-1.49-3.24-2-3.16-2.45,1.7.62,2.75,1,1.53.62,1.53.26-.8-1.14-1.62-1.75-1.45-1.22-1.38-1.49,2.27,1.05,2.51.7-.24-.7-1-1.84-1-1.57-.81-1.75,3.89,3.42,4.21,3.5.4-.52.07-.87-3-2.71-2.83-2.89,1.94,1.31,2.26,1.14-1.7-2.18-1.53-2.37,2.67,2.1,2.91,1.93a.82.82,0,0,0-.08-1.23c-.48-.52-3.39-3.5-3.15-3.67s3.15,2,3.47,2.37.17-1.05-.16-1.58-1.94-1.49-1.7-1.58a4.8,4.8,0,0,1,2,.44c.41.26.73-.08.48-.78s-2.42-3.5-2.34-3.68,2.1,1.93,2.34,1.84S889.84,416.6,890.33,416.69Z"/><path class="cls-17" d="M871.47,433.85a5.43,5.43,0,0,1-1.4,1.92c0,.17.86-.35.94-.17a7.78,7.78,0,0,1-1.86,2.17c.15.26,1.09-.35,1.17-.17a8.72,8.72,0,0,1-2,2.26c.31.34,1.55-.52,1.63-.35a14,14,0,0,1-2.88,3.49c.08.26,1.71-.52,1.79-.35a18.33,18.33,0,0,1-2.8,4c.15.35,1.63-.78,1.78-.43s-2.64,3.74-3.34,4.18c.15.26,2.56-.61,2.64-.35a15,15,0,0,1-3.5,4.44c.08.34,2.49-.87,2.64-.52s-3,3.74-4,4.35c0,.43,3.9-.7,4-.44s-3,2.78-4,3.31c0,.35,8.48-1.22,9-1.22s9.41,1.4,9.64,1c-1.71-.69-4.19-2.61-4.12-3s4,.78,4.12.34c-2.17-1.48-4.58-4-4.43-4.26s2.8.78,2.88.35c-2.41-1.92-3.66-4.18-3.58-4.44s2.64.87,2.8.35c-2.41-2-3.74-3.66-3.66-4s2.1.7,2.18.26a11.56,11.56,0,0,1-3-3.91c.08-.26,1.71.52,1.79.17-1.71-1.31-2.8-2.87-2.64-3.05s1.32.43,1.47.09a8.45,8.45,0,0,1-2.18-2.27c0-.26,1.1.35,1.17.09a7.17,7.17,0,0,1-1.63-2c0-.17.55.17.63-.09A5.55,5.55,0,0,1,871.47,433.85Z"/><path class="cls-18" d="M675.78,377.59s1.54,6.07,5.38,9.1,5.38,4.05,4.62,5.06-1.93-1.52-2.7-.5.77,2,0,3-1.54-1-2.3,0,3.07,6.07,4.61,7.08,3.08,2,3.08,3-2.3,1-3.08,0-1.54-3-2.3-2,0,2-.77,2-.77-1-1.54,0,1.54,4.05,3.07,5.06,8.26,3.05,8.46,5.06c.15,1.5-1.83,1.5-2.68,1.5s-.85.37-.56,1.49a1.36,1.36,0,0,1-1.41,1.87c-1.14,0-3.11-2.6-4-2.6s-1.14,1.11-.57,2.22,8.2,8.18,11.31,10.41,6.22,4.09,6.5,5.58-2.83,1.86-3.67,1.49-1.42-.74-1.7-.37-.29,2.22-2.26,2.22-3.4-2.59-3.68-2.59-.28,2.22-1.41,2.22-1.7-1.86-2.26-1.86-.85.74-.29,2.6,9.61,12.64,13.29,15.61,8.48,3.72,8.76,4.47-.29,2.6-4,3-5.09-1.12-5.38-1.49-.56,0-.56,1.12,0,1.49-1.13,1.49-2.27-3-2.55-2.6,0,1.86-.85,3-2-.37-2.55-.37-.85.74-.56,1.49,5.08,10,11.31,16,13.85,8.18,13.85,8.93-1.7,2.6-4,2.6-3.4,0-3.4.37-.56,3-2.26,2.6-5.66-3.34-6.22-3.34.29,3.71-1.7,4.09-3.11-3-3.39-3,.56,3.72-1.7,3.35-4.81-5.21-5.37-5.21.56,3-.57,3.34-4.52-2.59-5.08-2.59-.29,4.46-2,4.09-2.55-3.35-4-3.35-2.55,3-3.67,3-.29-3.34-1.42-3.71-2.54,2.59-4.52,2.59-.56-3.34-2-3.71-3.95,3.34-5.37,3.34-.56-3-1.7-3.34-3.11,4.09-4.52,4.09.29-4.09-.56-4.09-3.4,2.6-5.09,2.6-.85-3.72-1.7-3.72-1.7,2.23-4,1.86-2.82-1.49-2.26-2.22,9-7.81,15.27-15.62,7.07-10.78,6.5-11.9-2,1.87-3.11,1.49.56-3.34-.29-3.71-2.82,3.34-5.08,3.34-1.42-1.86-1.42-2.6-4.23.75-4.52-.74,7.92-4.47,13.28-9.67a26.29,26.29,0,0,0,7.07-14.13c0-1.12-1.41-.74-2,0a13,13,0,0,1-4.24,2.6c-.56,0-.85-1.86-1.13-1.86s-.85,1.86-2.55,1.86-1.14-1.49-1.7-1.86-2,0-3.4-.37-1.13-1.12,0-1.49,6.22-3,11.31-8.56,5.94-8.18,5.66-8.92-2.83,1.12-3.4,1.12-.85-1.49-1.13-1.49-2,1.49-2.55,1.11.56-2.22.29-2.6-3.68.75-3.4-.37,3.4-1.12,6.5-3.72,6.22-7.06,5.93-7.8-2,1.86-2.82,1.49-.85-1.12-1.14-.75-.56,1.12-1.13,1.12.28-1.49-.56-1.12-2,.75-2,0,1.7-1.86,5.09-5.58,2.82-7.06,2.82-7.06-2,1.49-2.55,1.12,0-1.49-.56-1.49-2.55.37-2.26-.38,2.26.38,5.66-4.46S674.93,377.47,675.78,377.59Z"/><path class="cls-16" d="M620.29,372.05c2.55.51.37,26.4,1.83,26.83s6.94-6.59,8-4.83-7.67,10.12-8,13.63.73,4,1.83,3.08,4.38-5.72,5.11-4.4-3.65,6.16-5.47,9.68-2.2,7-.37,6.16,6.21-7.48,6.94-6.16-3.65,7.48-4.75,9.68-.72,4.4,1.1,2.64,12.79-12.76,13.88-11.88-2.56,7-5.85,11-10.6,9.67-11.33,12.75-.36,4.84,1.47,3.08,14.24-11.44,15-10.12-4,7.92-7.31,11-7.66,8.8-8,11-.72,3.52,3.29,1.32,9.86-5.28,14.24-7.92,5.85-6.17,6.58-5.28.73,3.52-2.56,7-11.32,10.13-11.32,11,1.46.88,5.11,0,6.94-2.2,7.31-1.76-3.66,6.6-9.14,9.68-8.4,4.84-7.3,8.35,5.11.45,8.77-1.76,6.94-5.71,7.67-4.83-6.58,9.68-5.85,10.12,3.28,0,7.67-3.08,6.57-5.27,6.94-4-1.1,5.72-5.85,9.24-11.69,7.92-11.69,9.24,1.46,3.07,6.21,1.32,9.86-5.72,10.23-4.41-4.75,7-8.41,9.24-6.21,3.08-6.21,4,2.92,2.2,9.86,0,8.77-4,9.13-2.64-3.65,8.35-9.86,9.23-9.13,1.32-9.5,1.76a8,8,0,0,1-6.21,4.41c-4.38.44-11.32-3.52-15.35-3.08S611.5,515.88,606,515s-4.38-2.64-7.67-2.64-21.55-3.08-21.55-4.84,19.73-2.2,21.55-3.07.37-2.64-2.92-4-24.11-15.4-23.74-17.59,9.86,3.07,16.07,5.28,9.5,4,10.23,2.64-2.92-2.64-8.77-7-10.6-7.92-9.5-9.24,6.94,3.08,12.42,5.72,6.58,2.65,6.94,1.32-8.4-8.35-7.67-9.24,6.58,2.65,9.5,4,4.38,2.2,4.75.45-5.48-4.84-10.6-7.48S580.45,459.15,580.81,457s7.67,3.08,12.42,5.28,6.94,3.08,6.94,1.32-3.65-5.72-7.3-8.8-6.58-6.16-6.21-7.47,10.22,5.27,11.32,3.51-1.09-3.51-4.75-9.23-4.38-7.92-3.65-8.8,17.53,17.16,19,17.59,1.83-2.64.36-4.4-13.51-13.64-12.79-14.51,8.77,6.59,10.23,5.71-7.67-11-6.94-11.88,12.05,10.56,13.15,9.68,1.83-3.51-.36-6.16S596.87,411.2,598,410.32s14.25,10.12,15.71,11.88.73-5.28-.73-7.92-8.77-7.48-7.66-7.92,7.3.88,9.13,2.2,3.28-.44,2.19-4-11-17.59-10.6-18.47,9.5,9.67,10.6,9.23S618.1,371.61,620.29,372.05Z"/><path class="cls-16" d="M558.32,418.47s-1.73,3.88-3.9,5.34c0,.49,2.38-1,2.6-.48s-3.68,5.09-5.2,6.06c.43.73,3-1,3.25-.48s-3.68,4.85-5.63,6.3c.86,1,4.33-1.45,4.55-1s-6.07,8.73-8,9.7c.22.73,4.77-1.46,5-1s-5.84,9.7-7.79,11.15c.43,1,4.54-2.18,5-1.21s-7.37,10.42-9.32,11.64c.44.72,7.15-1.7,7.37-1s-6.72,10.67-9.75,12.37c.22,1,6.93-2.43,7.37-1.46s-8.45,10.43-11.27,12.13c0,1.21,10.83-1.94,11.05-1.22s-8.45,7.77-11.05,9.21c0,1,23.6-3.39,25.12-3.39s26.2,3.88,26.85,2.91c-4.76-1.94-11.69-7.28-11.48-8.25s11.05,2.18,11.48,1c-6.06-4.12-12.78-11.15-12.34-11.88s7.8,2.18,8,1c-6.71-5.34-10.18-11.64-10-12.36s7.36,2.42,7.8,1c-6.72-5.58-10.4-10.18-10.19-11.16s5.85,1.95,6.07.73c-4.77-4.36-8.45-10.18-8.23-10.91s4.76,1.46,5,.49c-4.77-3.64-7.8-8-7.37-8.49s3.69,1.21,4.12.24c-2.6-1.94-6.06-5.58-6.06-6.31s3,1,3.24.24C562,427,560,424.28,560,423.79s1.51.49,1.73-.24A16.14,16.14,0,0,1,558.32,418.47Z"/><path class="cls-19" d="M687.54,525.11c6.18-8.34,13.62-15.63,21.31-22.55,13.12-11.34,29.56-18.16,46.28-22.15,27-6,54.76-7.23,82.29-8.1-27.52.94-55.31,2.2-82.25,8.27-16.69,4-33.06,10.85-46.13,22.2C701.4,509.7,694,517,687.83,525.33l-.29-.22Z"/><path class="cls-6" d="M760,525.32a19,19,0,0,1,4.29-20.39c5.06-5.42,12.32-7.84,19.07-10.41q20.63-7.25,41.77-12.93c-13.77,4-28.14,8.48-41.66,13.24-10,3.6-21.44,8.2-24.07,19.73a18.29,18.29,0,0,0,.93,10.62l-.33.14Z"/><path class="cls-16" d="M2332.73,406.87a10.32,10.32,0,0,1-3.9,5c-2.78,1.66-3.89,2.22-3.34,2.78s1.39-.84,2-.28-.56,1.11,0,1.67,1.11-.56,1.67,0-2.23,3.34-3.34,3.89-2.22,1.12-2.22,1.67,1.67.56,2.22,0,1.11-1.67,1.67-1.11,0,1.11.56,1.11.55-.55,1.11,0-1.11,2.23-2.23,2.78-6,1.68-6.12,2.79c-.1.82,1.33.82,1.94.82s.61.2.41.82.2,1,1,1,2.25-1.43,2.87-1.43.81.61.4,1.23-5.93,4.5-8.18,5.72-4.5,2.25-4.7,3.07,2.05,1,2.66.82,1-.41,1.23-.21.2,1.23,1.63,1.23,2.46-1.43,2.66-1.43.21,1.23,1,1.23,1.23-1,1.64-1,.61.41.2,1.43-6.95,7-9.61,8.59-6.13,2.05-6.34,2.46.21,1.43,2.87,1.63,3.68-.61,3.88-.81.41,0,.41.61,0,.82.82.82,1.63-1.64,1.84-1.43,0,1,.61,1.63,1.43-.2,1.84-.2.62.41.41.82a36.4,36.4,0,0,1-8.18,8.79c-4.5,3.27-10,4.5-10,4.91s1.23,1.43,2.86,1.43,2.46,0,2.46.2.41,1.64,1.63,1.44,4.09-1.84,4.5-1.84-.2,2,1.23,2.25,2.25-1.64,2.45-1.64-.4,2,1.23,1.84,3.48-2.86,3.89-2.86-.41,1.63.41,1.84,3.27-1.43,3.68-1.43.2,2.45,1.43,2.25,1.84-1.85,2.86-1.85,1.84,1.64,2.66,1.64.2-1.84,1-2,1.84,1.43,3.28,1.43.4-1.84,1.43-2.05,2.86,1.84,3.88,1.84.41-1.63,1.23-1.84,2.25,2.25,3.27,2.25-.2-2.25.41-2.25,2.45,1.43,3.68,1.43.62-2,1.23-2,1.23,1.23,2.86,1,2-.82,1.64-1.23-6.55-4.29-11-8.59-5.11-5.93-4.7-6.54,1.43,1,2.25.82-.41-1.84.2-2,2,1.84,3.69,1.84,1-1,1-1.43,3.07.41,3.27-.41-5.73-2.45-9.61-5.31a13.29,13.29,0,0,1-5.11-7.78c0-.61,1-.4,1.43,0a10.38,10.38,0,0,0,3.07,1.44c.4,0,.61-1,.81-1s.62,1,1.84,1,.82-.82,1.23-1,1.43,0,2.46-.2.81-.61,0-.82a25.76,25.76,0,0,1-8.19-4.7c-3.68-3.07-4.29-4.5-4.09-4.91s2.05.61,2.46.61.61-.82.82-.82,1.43.82,1.84.62-.41-1.23-.21-1.43,2.66.41,2.46-.21-2.46-.61-4.71-2-4.5-3.89-4.29-4.3,1.43,1,2,.82.62-.61.82-.41.41.61.82.61-.2-.81.41-.61,1.43.41,1.43,0-1.23-1-3.68-3.07-2.05-3.88-2.05-3.88,1.44.82,1.84.61,0-.82.41-.82,1.84.21,1.64-.2-1.64.2-4.09-2.46S2333.35,406.8,2332.73,406.87Z"/><polygon class="cls-20" points="1503.98 573.3 1509.15 661.21 1488.46 661.21 1488.46 573.3 1503.98 573.3"/><path class="cls-21" d="M1460,451.77s10.34-36.2,46.54-31,46.54,51.72,46.54,51.72,25.86-5.18,31,25.85-20.68,41.37-20.68,41.37,20.68,25.86-5.17,46.55-56.89,5.17-56.89,5.17-31,31-62.06,5.17-20.68-41.37-20.68-41.37-31-15.52-25.86-41.37S1418.65,488,1418.65,488s-20.69-20.69,0-36.2S1460,451.77,1460,451.77Z"/><circle class="cls-22" cx="1506.56" cy="467.28" r="12.93"/><circle class="cls-22" cx="1553.1" cy="508.66" r="12.93"/><circle class="cls-22" cx="1529.83" cy="552.61" r="10.34"/><circle class="cls-22" cx="1493.63" cy="516.41" r="15.51"/><circle class="cls-22" cx="1452.26" cy="485.38" r="10.34"/><circle class="cls-22" cx="1431.58" cy="526.76" r="10.34"/><circle class="cls-22" cx="1465.19" cy="560.37" r="12.93"/><polygon class="cls-20" points="2539.25 452.23 2541.65 493.08 2532.04 493.08 2532.04 452.23 2539.25 452.23"/><path class="cls-21" d="M2518.82,395.75s4.81-16.82,21.63-14.42,21.63,24,21.63,24,12-2.4,14.42,12-9.61,19.22-9.61,19.22,9.61,12-2.41,21.63-26.43,2.41-26.43,2.41-14.42,14.42-28.84,2.4-9.62-19.23-9.62-19.23-14.42-7.21-12-19.22,12-12,12-12-9.61-9.61,0-16.82S2518.82,395.75,2518.82,395.75Z"/><circle class="cls-22" cx="2540.45" cy="402.96" r="6.01"/><circle class="cls-22" cx="2562.08" cy="422.19" r="6.01"/><circle class="cls-22" cx="2551.27" cy="442.61" r="4.81"/><circle class="cls-22" cx="2534.44" cy="425.79" r="7.21"/><circle class="cls-22" cx="2515.22" cy="411.37" r="4.81"/><circle class="cls-22" cx="2505.6" cy="430.6" r="4.81"/><circle class="cls-22" cx="2521.22" cy="446.22" r="6.01"/><path class="cls-21" d="M2391.27,391.21c-1.58.26-.22,13.63-1.13,13.85s-4.32-3.4-5-2.49,4.77,5.22,5,7-.46,2-1.14,1.59-2.72-3-3.18-2.27,2.27,3.18,3.41,5,1.36,3.64.23,3.18-3.86-3.86-4.32-3.18,2.27,3.86,3,5,.46,2.27-.68,1.36-7.95-6.58-8.63-6.13,1.59,3.63,3.64,5.68,6.58,5,7,6.59.22,2.49-.91,1.58-8.86-5.9-9.31-5.22,2.49,4.09,4.54,5.68,4.77,4.54,5,5.68.45,1.81-2.05.68-6.13-2.73-8.86-4.09-3.63-3.18-4.09-2.73-.45,1.82,1.59,3.64,7.05,5.22,7.05,5.68-.91.45-3.18,0-4.32-1.14-4.55-.91,2.27,3.41,5.68,5,5.23,2.49,4.54,4.31-3.18.23-5.45-.91-4.31-2.95-4.77-2.5,4.09,5,3.64,5.23-2,0-4.77-1.59-4.09-2.73-4.32-2.05.68,3,3.64,4.77,7.26,4.09,7.26,4.77-.9,1.59-3.86.69-6.13-3-6.36-2.28,3,3.64,5.23,4.77,3.86,1.59,3.86,2.05-1.82,1.13-6.13,0-5.46-2.05-5.68-1.36,2.27,4.31,6.13,4.77,5.68.68,5.91.9a4.87,4.87,0,0,0,3.86,2.28c2.72.22,7-1.82,9.54-1.59s4.08,1.81,7.49,1.36,2.73-1.36,4.77-1.36,13.4-1.59,13.4-2.5-12.26-1.14-13.4-1.59-.23-1.37,1.82-2.05,15-7.95,14.76-9.08-6.13,1.59-10,2.72-5.91,2.05-6.36,1.37,1.82-1.37,5.45-3.64,6.59-4.09,5.91-4.77-4.32,1.59-7.73,2.95-4.09,1.37-4.31.69,5.22-4.32,4.77-4.77-4.09,1.36-5.91,2-2.72,1.14-2.95.23,3.41-2.5,6.59-3.86,9.08-5.23,8.85-6.36-4.77,1.59-7.72,2.72-4.31,1.59-4.31.68,2.27-2.95,4.54-4.54,4.09-3.18,3.86-3.86-6.36,2.72-7,1.82.68-1.82,2.95-4.77,2.73-4.09,2.27-4.55-10.9,8.86-11.81,9.09-1.13-1.36-.23-2.27,8.41-7,8-7.5-5.45,3.41-6.36,3,4.77-5.68,4.32-6.14-7.5,5.45-8.18,5-1.13-1.82.23-3.18,9.54-9.09,8.86-9.54-8.86,5.22-9.77,6.13-.45-2.72.46-4.09,5.45-3.86,4.77-4.08a13.93,13.93,0,0,0-5.68,1.13c-1.14.68-2-.23-1.37-2s6.82-9.09,6.59-9.54-5.9,5-6.59,4.77S2392.64,391,2391.27,391.21Z"/><path class="cls-21" d="M2208.26,426.44c-1.18.19-.17,10.16-.85,10.33s-3.21-2.54-3.72-1.87,3.55,3.9,3.72,5.25-.34,1.53-.84,1.19-2-2.2-2.37-1.7,1.69,2.37,2.54,3.73,1,2.71.17,2.37-2.88-2.88-3.22-2.37,1.69,2.88,2.2,3.72.34,1.7-.51,1-5.92-4.91-6.43-4.57,1.18,2.71,2.71,4.23,4.91,3.73,5.25,4.91.16,1.86-.68,1.19-6.61-4.41-6.94-3.9,1.86,3,3.38,4.24,3.56,3.38,3.73,4.23.34,1.35-1.53.51-4.57-2-6.6-3.05-2.71-2.37-3.05-2-.34,1.35,1.19,2.71,5.25,3.89,5.25,4.23-.68.34-2.37,0-3.22-.85-3.39-.68,1.69,2.54,4.23,3.73,3.9,1.86,3.39,3.21-2.37.17-4.06-.67-3.22-2.21-3.56-1.87,3,3.73,2.71,3.9-1.52,0-3.56-1.19-3-2-3.21-1.52.5,2.2,2.71,3.55,5.41,3.05,5.41,3.56-.67,1.18-2.87.51-4.58-2.2-4.75-1.7,2.21,2.71,3.9,3.56,2.88,1.19,2.88,1.52-1.36.85-4.57,0-4.07-1.52-4.24-1,1.7,3.22,4.57,3.55,4.24.51,4.41.68a3.63,3.63,0,0,0,2.87,1.69c2,.17,5.25-1.35,7.12-1.18s3,1.35,5.58,1,2-1,3.56-1,10-1.19,10-1.86-9.14-.85-10-1.19-.17-1,1.35-1.52,11.18-5.93,11-6.78-4.57,1.19-7.45,2-4.4,1.52-4.74,1,1.35-1,4.06-2.71,4.91-3,4.4-3.55-3.21,1.18-5.75,2.2-3.05,1-3.22.51,3.89-3.22,3.56-3.56-3,1-4.41,1.53-2,.84-2.2.16,2.54-1.86,4.91-2.87,6.78-3.9,6.61-4.74-3.56,1.18-5.76,2-3.22,1.18-3.22.5,1.7-2.2,3.39-3.38,3.05-2.37,2.88-2.88-4.74,2-5.25,1.35.51-1.35,2.2-3.55,2-3.05,1.69-3.39-8.12,6.61-8.8,6.78-.85-1-.17-1.7,6.26-5.25,5.92-5.59-4.06,2.54-4.74,2.21,3.56-4.24,3.22-4.58-5.59,4.07-6.09,3.73-.85-1.36.16-2.37,7.12-6.77,6.61-7.11-6.61,3.89-7.28,4.57-.34-2,.34-3.05,4.06-2.88,3.55-3.05a10.39,10.39,0,0,0-4.23.85c-.85.51-1.52-.17-1-1.52s5.08-6.78,4.91-7.11-4.4,3.72-4.91,3.55S2209.28,426.27,2208.26,426.44Z"/><path class="cls-18" d="M2665,383.4c-1.18.2-.17,10.16-.85,10.33s-3.21-2.54-3.72-1.86,3.55,3.89,3.72,5.25-.34,1.52-.84,1.18-2-2.2-2.37-1.69,1.69,2.37,2.53,3.72,1,2.71.17,2.37-2.87-2.87-3.21-2.37,1.69,2.88,2.2,3.73.34,1.69-.51,1-5.93-4.91-6.43-4.58,1.18,2.71,2.71,4.24,4.91,3.72,5.24,4.91.17,1.86-.67,1.18-6.61-4.4-7-3.89,1.87,3.05,3.39,4.23,3.56,3.39,3.73,4.23.33,1.36-1.53.51-4.57-2-6.6-3.05-2.71-2.37-3.05-2-.34,1.36,1.19,2.71,5.25,3.9,5.25,4.23-.68.34-2.38,0-3.21-.84-3.38-.67,1.69,2.54,4.23,3.72,3.9,1.86,3.39,3.22-2.37.17-4.07-.68-3.21-2.2-3.55-1.86,3,3.72,2.71,3.89-1.53,0-3.56-1.18-3.05-2-3.21-1.53.5,2.21,2.7,3.56,5.42,3.05,5.42,3.56-.68,1.18-2.88.5-4.57-2.2-4.74-1.69,2.2,2.71,3.9,3.56,2.88,1.18,2.88,1.52-1.36.85-4.58,0-4.06-1.52-4.23-1,1.69,3.22,4.57,3.56,4.24.51,4.4.68a3.66,3.66,0,0,0,2.88,1.69c2,.17,5.25-1.35,7.11-1.19s3.05,1.36,5.59,1,2-1,3.56-1,10-1.18,10-1.86-9.15-.84-10-1.18-.17-1,1.35-1.53,11.18-5.92,11-6.77-4.57,1.19-7.45,2-4.4,1.53-4.74,1,1.35-1,4.06-2.71,4.91-3.05,4.4-3.56-3.21,1.19-5.75,2.2-3.05,1-3.22.51,3.89-3.21,3.55-3.55-3,1-4.4,1.52-2,.85-2.2.17,2.54-1.86,4.91-2.88,6.77-3.89,6.6-4.74-3.55,1.19-5.75,2-3.22,1.19-3.22.51,1.69-2.2,3.39-3.39,3-2.37,2.88-2.87-4.75,2-5.25,1.35.5-1.35,2.2-3.56,2-3,1.69-3.38-8.13,6.6-8.8,6.77-.85-1-.17-1.69,6.26-5.25,5.92-5.59-4.06,2.54-4.74,2.2,3.56-4.23,3.22-4.57-5.59,4.06-6.1,3.72-.84-1.35.17-2.37,7.11-6.77,6.61-7.11-6.61,3.9-7.28,4.57-.34-2,.33-3,4.07-2.88,3.56-3.05a10.36,10.36,0,0,0-4.23.85c-.85.5-1.53-.17-1-1.53s5.08-6.77,4.91-7.11-4.4,3.73-4.91,3.56S2666,383.23,2665,383.4Z"/><path class="cls-21" d="M2727.78,363c6.22.32,7.79,3.89,8.95,9.34s-.77,9.73-10.89,10.12-10.12-7.4-10.12-10.9S2720.39,362.57,2727.78,363Z"/><path class="cls-21" d="M2743,377.75c7.26,1.45,9.34,6.22,9.73,11.67s-14.79,10.9-20.24,7-5.84-14.4-1.17-16.74A20.53,20.53,0,0,1,2743,377.75Z"/><path class="cls-21" d="M2745.3,392.93c6.21-.52,9.34,7.78,7,12.45s-13.41,8-16.43,2S2736,393.71,2745.3,392.93Z"/><path class="cls-21" d="M2712.6,380.08c9-.22,10.51,6.62,9,10.51s-5.44,5.06-10.89,4.28S2696.64,380.47,2712.6,380.08Z"/><path class="cls-21" d="M2710.66,393.32c7.79,0,10.5,8.17,9,13.62s-7.79,7.78-14.79,6.23-7.79-7.79-6.23-12.85S2703.26,393.32,2710.66,393.32Z"/><path class="cls-20" d="M2724.79,376.56v54.07h4.64S2727.88,376.56,2724.79,376.56Z"/><path class="cls-20" d="M2717.07,390.46a15.42,15.42,0,0,0,3.71,6.75c1.45,1.63,5.56,2.52,5.56,2.52v1.55a12.86,12.86,0,0,1-6.18-3.09,25.43,25.43,0,0,1-4.64-6.18Z"/><path class="cls-20" d="M2716.17,401.24a15.6,15.6,0,0,0,4.7,6.1c1.69,1.39,5.88,1.64,5.88,1.64l.24,1.52a12.81,12.81,0,0,1-6.58-2.1,25.68,25.68,0,0,1-5.53-5.4Z"/><path class="cls-20" d="M2736.27,394.74a15.42,15.42,0,0,1-3.71,6.75c-1.45,1.63-5.56,2.52-5.56,2.52v1.55a12.71,12.71,0,0,0,6.18-3.09,25.43,25.43,0,0,0,4.64-6.18Z"/><path class="cls-20" d="M2738,404a15.53,15.53,0,0,1-4.7,6.1c-1.69,1.39-5.88,1.64-5.88,1.64l-.24,1.53a12.76,12.76,0,0,0,6.58-2.11,25.53,25.53,0,0,0,5.53-5.39Z"/><path class="cls-20" d="M2735.11,387a15.61,15.61,0,0,1-3.71,6.75c-1.45,1.63-5.56,2.52-5.56,2.52v1.54a12.75,12.75,0,0,0,6.18-3.09,25.31,25.31,0,0,0,4.63-6.18Z"/><path class="cls-8" d="M2800.37,625.3c-166.69-4.25-279.63,4.25-469.17-15.95-55.14-4.1-89.77-19.89-121.91-35.17-34.85-16.57-62.13-45.71-95.84-64.49-33.07-18.41-66.6-26.72-108.75-30.19-125.11-10.3-248.28-13.84-409.45-16.37-.61,0,32.91,5.87,32.3,5.93,91.2,4.8,165.88,4.47,242.79,15.13s143.85,27.44,204.39,76.07c29.57,23.75,95.3,77.55,127,98.44,44.45,29.34,105.51,54.55,186,64.12,149.7,17.8,272.62,33.72,412.66,42.21Z"/><path class="cls-6" d="M2800.37,631.41c-50.74-1.27-101.45-1.72-152.16-2.22-25.61-.34-51.21-.71-76.81-1.38s-51.18-1.67-76.76-2.95c-51.15-2.53-102.24-6.29-153.15-11.88l-19.08-2.19c-6.35-.8-12.72-1.43-19-2.57a342.32,342.32,0,0,1-37.45-8.3,294.71,294.71,0,0,1-70.41-30,284.51,284.51,0,0,1-31.61-21.72c-9.93-8.07-19.94-16.1-30.48-23.38a251.34,251.34,0,0,0-33-19.67q-8.66-4.2-17.66-7.59c-6-2.19-12.16-4.1-18.34-5.78a357.12,357.12,0,0,0-75.75-12.2q-38.32-2.56-76.68-4.75c-102.27-5.86-204.67-9.69-307.1-10.64,102.43,1.08,204.82,5.05,307.07,11.05q38.36,2.24,76.67,4.84a359.38,359.38,0,0,1,75.66,12.19c6.17,1.69,12.28,3.59,18.29,5.78s11.86,4.78,17.61,7.57a252,252,0,0,1,32.93,19.62c10.53,7.28,20.52,15.29,30.46,23.37a285.46,285.46,0,0,0,31.66,21.76,294.83,294.83,0,0,0,70.54,30.06,345.79,345.79,0,0,0,37.51,8.32c6.31,1.13,12.68,1.78,19,2.59l19.08,2.22c50.91,5.68,102,9.52,153.17,12.15,101.93,5.86,203.61,4.32,305.77,8.51Z"/><path class="cls-6" d="M2800.37,756.64c-38.07-2-76.29-4.69-114.46-7.33-38.54-2.58-77-6.07-115.45-10.07s-76.8-8.52-115.14-13.27l-28.75-3.64-28.74-3.76-28.72-3.86c-4.76-.76-9.53-1.43-14.28-2.27l-7.12-1.31-3.56-.66-3.54-.74a426.69,426.69,0,0,1-55.72-15.47,398.67,398.67,0,0,1-53-23.17,452.54,452.54,0,0,1-49.37-30.16c-1-.69-2-1.36-3-2.06l-2.9-2.18-5.78-4.36-11.52-8.78q-11.48-8.84-22.81-17.86t-22.48-18.28L2103,578.12c-3.73-3.09-7.52-6.08-11.32-9.07a535.2,535.2,0,0,0-47.35-33.45,297.14,297.14,0,0,0-51.87-25.81,325.22,325.22,0,0,0-55.81-15.57h0a2.46,2.46,0,0,1-.91-.36c-.31-.18-.63-.39-.94-.59s-.63-.42-1-.62a2.85,2.85,0,0,0-1.18-.43h0c-16.19-3.32-32.5-6.11-48.85-8.51s-32.77-4.44-49.18-6.42h-10c-33.3-3.45-66.74-5.18-100.18-6.31s-66.91-1.64-100.36-2.71v0c33.44,1.12,66.91,1.69,100.35,2.87s66.88,3,100.16,6.47h10c16.4,2,32.8,4.06,49.14,6.49s32.63,5.23,48.81,8.58h.06a2.42,2.42,0,0,1,.91.35l.94.6c.31.21.63.42,1,.62a2.71,2.71,0,0,0,1.18.43h0a324.65,324.65,0,0,1,55.68,15.63,297.22,297.22,0,0,1,51.71,25.84,535.19,535.19,0,0,1,47.23,33.48c3.79,3,7.57,6,11.29,9.06l11.1,9.31q11.14,9.27,22.46,18.33t22.8,17.91l11.51,8.8,5.78,4.38,2.9,2.18c1,.71,2,1.38,3,2.08a453.74,453.74,0,0,0,49.44,30.31,412.67,412.67,0,0,0,109,39l3.55.75,3.57.67,7.13,1.33c4.76.86,9.55,1.54,14.33,2.31l28.72,3.94,28.73,3.83,28.74,3.71q57.51,7.33,115.18,13.31t115.47,10.57c38.17,3,76.37,5.64,114.61,8.56Z"/><path class="cls-6" d="M2268.48,642.2q-8-2.94-15.8-6.22l1-2.47q7.78,3.21,15.72,6.09Z"/><path class="cls-6" d="M2237.17,629.05q-7.68-3.64-15.16-7.67l1.18-2.21q7.44,4,15.08,7.54Z"/><path class="cls-6" d="M2207.27,612.91q-7.24-4.44-14.21-9.32l1.33-1.91q6.93,4.8,14.14,9.17Z"/><path class="cls-6" d="M2179.48,593.36q-3.32-2.67-6.52-5.47c-2.13-1.86-4.24-3.77-6.29-5.7l1.46-1.59c2.07,1.92,4.15,3.8,6.28,5.63s4.28,3.63,6.47,5.39Z"/><path class="cls-6" d="M2154,571q-6.45-5.43-13.16-10.58l1.21-1.57q6.75,5.13,13.28,10.57Z"/><path class="cls-6" d="M2127.26,550.45q-6.93-4.83-14.07-9.35l1-1.53q7.18,4.5,14.18,9.32Z"/><path class="cls-6" d="M2098.73,532.38q-7.32-4.2-14.83-8.09l.75-1.45q7.56,3.85,14.93,8Z"/><path class="cls-6" d="M2068.74,516.85q-7.66-3.54-15.49-6.75l.55-1.35q7.88,3.17,15.59,6.7Z"/><path class="cls-6" d="M2037.46,504.14c-2.69-.92-5.4-1.82-8.11-2.6l.07,0-8.26-1.41.21-1.27,8.27,1.36h.07c2.77.78,5.48,1.66,8.19,2.57Z"/><polygon class="cls-6" points="2004.47 497.34 1987.78 494.53 1987.97 493.34 2004.67 496.11 2004.47 497.34"/><polygon class="cls-6" points="1971.08 491.72 1954.39 488.91 1954.58 487.79 1971.28 490.56 1971.08 491.72"/><polygon class="cls-6" points="1937.7 486.1 1921.01 483.29 1921.18 482.24 1937.88 485.02 1937.7 486.1"/><polygon class="cls-6" points="1904.38 480.22 1895.92 479.33 1896.03 478.33 1904.48 479.21 1904.38 480.22"/><path class="cls-6" d="M2293.71,647.35c3,.93,6,1.82,9.06,2.69s6.08,1.7,9.13,2.52l-.85,3.15q-4.59-1.26-9.17-2.59c-3.05-.89-6.08-1.79-9.14-2.77Z"/><path class="cls-6" d="M2348.9,661.45q18.61,4,37.4,7l-.6,3.62q-18.85-3.18-37.53-7.29Z"/><path class="cls-6" d="M2424,673.62q9.45,1,18.93,1.76c6.31.49,12.65.84,19,1.25l-.27,4.08c-6.33-.45-12.68-.84-19.05-1.37s-12.7-1.15-19-1.86Z"/><polygon class="cls-6" points="2499.99 679.2 2538.05 681.87 2537.72 686.35 2499.68 683.47 2499.99 679.2"/><polygon class="cls-6" points="2576.06 684.6 2614.08 687.37 2613.71 692.25 2575.7 689.28 2576.06 684.6"/><polygon class="cls-6" points="2652.12 690.17 2690.16 692.98 2689.75 698.26 2651.73 695.24 2652.12 690.17"/><polygon class="cls-6" points="2728.2 695.82 2766.24 698.67 2765.8 704.35 2727.78 701.3 2728.2 695.82"/></svg>