<svg width="293" height="153" viewBox="0 0 293 153" fill="none" xmlns="http://www.w3.org/2000/svg">
<g clip-path="url(#clip0_249_320)">
<path d="M231.323 138.111H166.572C167.997 129.327 165.646 121.853 158.922 115.99C154.69 112.266 149.188 110.313 143.555 110.534C139.064 110.605 134.698 112.031 131.032 114.627C127.339 117.173 124.488 120.761 122.843 124.935C121.189 129.138 120.79 133.731 121.693 138.157H108.946C106.406 138.157 104.924 136.725 104.924 134.133C104.889 130.206 104.924 126.274 104.924 122.348C104.924 119.531 104.998 116.714 104.924 113.897C104.87 112.461 105.121 111.031 105.659 109.698C106.197 108.366 107.009 107.162 108.044 106.165C110.987 103.147 114.607 101.153 118.492 99.7154C122.377 98.2782 126.538 97.1458 130.526 95.8351C131.103 95.6549 131.618 95.3186 132.015 94.8636C138.275 86.9189 144.517 78.959 150.739 70.9837C151.402 70.1329 152.122 69.3281 152.894 68.575C153.61 67.8736 154.458 67.3217 155.39 66.9516C156.321 66.5815 157.317 66.4005 158.319 66.4193C177.993 66.4193 197.665 66.4193 217.335 66.4193C220.082 66.4193 222.335 67.638 224.26 69.4833C226.186 71.3286 227.961 73.1854 229.795 75.0537C236.277 81.6685 242.766 88.2814 249.26 94.8923C249.738 95.3613 250.333 95.6929 250.984 95.8523C260.518 98.0655 269.984 100.537 279.035 104.343C282.633 105.861 286.138 107.562 289.161 110.092C290.03 110.833 290.827 111.655 291.541 112.546C292.501 113.729 293.011 115.214 292.977 116.737C292.977 122.595 292.977 128.459 292.977 134.322C292.977 136.783 291.581 138.157 289.138 138.162C285.144 138.162 281.15 138.162 277.162 138.162H276.139C277.518 130.062 275.61 123.049 269.909 117.266C267.815 115.083 265.291 113.358 262.496 112.2C259.702 111.043 256.697 110.477 253.673 110.54C250.267 110.493 246.896 111.234 243.823 112.706C240.751 114.178 238.06 116.341 235.961 119.025C231.438 124.578 230.048 130.999 231.323 138.111ZM190.663 95.6454H232.685C233.109 95.6628 233.534 95.6455 233.955 95.5936C234.823 95.4384 235.214 94.8061 234.841 94.007C234.545 93.3533 234.143 92.7531 233.651 92.2307C229.329 87.81 225.03 83.3663 220.611 79.0088C219.552 77.9126 218.279 77.0454 216.871 76.461C215.464 75.8766 213.951 75.5874 212.427 75.6114C196.527 75.6842 180.627 75.6842 164.727 75.6114C163.364 75.5741 162.01 75.8549 160.774 76.4317C159.538 77.0084 158.454 77.8652 157.606 78.9341C153.986 83.326 150.515 87.8387 147.003 92.3284C146.428 93.047 145.9 93.892 146.382 94.8521C146.865 95.8121 147.819 95.6109 148.681 95.6166L190.663 95.6454Z" fill="#AFAFAF"/>
<path d="M144.134 113.68C148.024 113.691 151.823 114.857 155.05 117.029C158.277 119.202 160.787 122.283 162.263 125.883C163.738 129.483 164.112 133.44 163.338 137.253C162.564 141.066 160.676 144.564 157.914 147.303C155.151 150.042 151.638 151.9 147.819 152.641C144.001 153.382 140.048 152.972 136.462 151.465C132.876 149.958 129.818 147.42 127.675 144.173C125.531 140.926 124.399 137.116 124.422 133.225C124.45 128.02 126.541 123.038 130.236 119.374C133.932 115.709 138.931 113.661 144.134 113.68ZM134.031 133.369C134.033 135.365 134.627 137.316 135.737 138.975C136.847 140.635 138.424 141.927 140.269 142.691C142.113 143.454 144.142 143.653 146.099 143.264C148.057 142.874 149.855 141.913 151.267 140.501C152.678 139.09 153.64 137.292 154.031 135.334C154.422 133.376 154.223 131.347 153.461 129.501C152.699 127.656 151.408 126.078 149.75 124.967C148.092 123.855 146.142 123.26 144.146 123.257C141.464 123.257 138.893 124.322 136.996 126.218C135.099 128.115 134.033 130.687 134.031 133.369Z" fill="#AFAFAF"/>
<path d="M253.742 113.68C257.633 113.685 261.435 114.846 264.666 117.015C267.897 119.184 270.412 122.263 271.891 125.863C273.371 129.463 273.749 133.421 272.978 137.236C272.207 141.051 270.322 144.551 267.56 147.293C264.799 150.035 261.286 151.895 257.467 152.639C253.647 153.382 249.693 152.974 246.106 151.468C242.518 149.961 239.458 147.424 237.313 144.176C235.169 140.928 234.036 137.117 234.059 133.225C234.089 128.026 236.177 123.05 239.866 119.387C243.555 115.724 248.545 113.672 253.742 113.68ZM263.828 133.369C263.831 131.368 263.239 129.412 262.128 127.748C261.017 126.084 259.437 124.788 257.588 124.023C255.74 123.259 253.706 123.061 251.745 123.454C249.784 123.848 247.983 124.815 246.573 126.234C245.162 127.652 244.204 129.458 243.821 131.422C243.437 133.385 243.646 135.419 244.419 137.264C245.193 139.109 246.497 140.683 248.166 141.785C249.835 142.888 251.794 143.47 253.794 143.458C256.457 143.435 259.004 142.363 260.883 140.475C262.761 138.586 263.819 136.033 263.828 133.369Z" fill="#AFAFAF"/>
<path d="M134.033 133.368C134.024 131.367 134.61 129.408 135.715 127.74C136.821 126.073 138.396 124.771 140.243 124C142.089 123.23 144.122 123.025 146.085 123.413C148.048 123.8 149.851 124.762 151.267 126.176C152.682 127.59 153.646 129.393 154.035 131.356C154.424 133.319 154.222 135.353 153.454 137.2C152.686 139.048 151.386 140.626 149.72 141.734C148.054 142.841 146.097 143.429 144.096 143.422C141.434 143.409 138.884 142.345 137 140.463C135.116 138.581 134.05 136.031 134.033 133.368Z" fill="white"/>
<path d="M263.828 133.368C263.832 135.365 263.245 137.318 262.141 138.981C261.036 140.644 259.464 141.942 257.622 142.711C255.781 143.481 253.752 143.687 251.793 143.304C249.835 142.921 248.033 141.966 246.617 140.56C245.2 139.153 244.232 137.358 243.835 135.402C243.438 133.445 243.629 131.415 244.384 129.567C245.14 127.719 246.426 126.137 248.08 125.02C249.735 123.903 251.683 123.301 253.679 123.291C256.36 123.283 258.934 124.34 260.837 126.23C262.74 128.119 263.816 130.687 263.828 133.368Z" fill="white"/>
<path d="M48.3522 76.2806C62.281 65.19 65.6949 46.3001 55.9773 34.0887C46.2598 21.8774 27.0906 20.9688 13.1618 32.0594C-0.767049 43.1499 -4.18096 62.0399 5.5366 74.2512C15.2542 86.4626 34.4233 87.3712 48.3522 76.2806Z" fill="#AFAFAF"/>
<path d="M70.5241 41.0325C81.5574 32.2475 84.2905 17.3208 76.6287 7.69277C68.967 -1.93522 53.8116 -2.61856 42.7783 6.1665C31.745 14.9515 29.0119 29.8783 36.6736 39.5063C44.3354 49.1342 59.4908 49.8176 70.5241 41.0325Z" fill="#AFAFAF"/>
<path d="M52.2408 107.927C62.5713 99.7012 64.8854 85.4174 57.4095 76.0229C49.9335 66.6284 35.4985 65.6808 25.168 73.9062C14.8374 82.1317 12.5234 96.4155 19.9993 105.81C27.4753 115.205 41.9103 116.152 52.2408 107.927Z" fill="#AFAFAF"/>
<path d="M104.823 56.7938C117.11 47.0102 118.789 28.6724 108.574 15.835C98.358 2.99773 80.1157 0.522185 67.8283 10.3058C55.541 20.0893 53.8615 38.4272 64.0772 51.2645C74.2929 64.1018 92.5353 66.5774 104.823 56.7938Z" fill="#AFAFAF"/>
<path d="M97.544 85.743C109.439 76.2718 110.901 58.3141 100.81 45.6332C90.719 32.9524 72.8957 30.3505 61.0007 39.8216C49.1057 49.2928 47.6434 67.2505 57.7346 79.9314C67.8257 92.6122 85.649 95.2141 97.544 85.743Z" fill="#AFAFAF"/>
<path d="M37.392 58.1543C37.9407 57.7174 38.1325 57.0451 37.8202 56.6527C37.5079 56.2603 36.8099 56.2963 36.2612 56.7333C35.7124 57.1702 35.5207 57.8425 35.833 58.2349C36.1453 58.6273 36.8433 58.5912 37.392 58.1543Z" fill="#AFAFAF"/>
<path d="M40.2858 123.456C44.7458 119.904 45.6853 113.663 42.3842 109.514C39.0831 105.366 32.7914 104.882 28.3314 108.433C23.8714 111.984 22.9319 118.226 26.2331 122.374C29.5342 126.523 35.8258 127.007 40.2858 123.456Z" fill="#AFAFAF"/>
<path d="M62.3906 130.869C69.0434 125.572 69.9417 115.63 64.397 108.662C58.8523 101.694 48.9643 100.34 42.3115 105.637C35.6587 110.934 34.7605 120.877 40.3052 127.845C45.8499 134.812 55.7379 136.166 62.3906 130.869Z" fill="#AFAFAF"/>
<path d="M62.5271 115.019C72.6299 115.019 80.8199 106.826 80.8199 96.7208C80.8199 86.6151 72.6299 78.4229 62.5271 78.4229C52.4243 78.4229 44.2344 86.6151 44.2344 96.7208C44.2344 106.826 52.4243 115.019 62.5271 115.019Z" fill="#AFAFAF"/>
<path d="M61.6304 128.464C57.3316 123.061 58.9178 114.639 65.182 109.655C71.4463 104.671 80.0036 105.01 84.2966 110.414C85.2563 111.615 88.7965 113.909 92.5033 116.128C93.3171 116.616 93.9723 117.328 94.3899 118.181C94.8075 119.033 94.9696 119.987 94.8565 120.93C94.7435 121.872 94.3602 122.761 93.7529 123.49C93.1457 124.219 92.3404 124.757 91.4344 125.038C86.7793 126.487 82.1242 128.119 80.7449 129.217C74.4864 134.201 65.9234 133.862 61.6304 128.464Z" fill="#AFAFAF"/>
<path d="M111.43 118.025H98.9355V128.534H111.43V118.025Z" fill="#AFAFAF"/>
<path d="M100.406 28.9145L63.3781 65.9587L99.0096 101.6L89.5557 111.057L53.9242 75.4152L16.5687 112.781L6.49414 102.681L43.8497 65.3149L8.21824 29.6733L17.6778 20.2456L53.3093 55.8871L90.3373 18.8486L100.406 28.9145Z" fill="#0A93FD"/>
</g>
<defs>
<clipPath id="clip0_249_320">
<rect width="293" height="153" fill="white"/>
</clipPath>
</defs>
</svg>
