<svg width="196" height="159" viewBox="0 0 196 159" fill="none" xmlns="http://www.w3.org/2000/svg">
<path d="M5.28699 87.5737H82.287C85.1262 87.5737 87.3779 89.8744 87.3779 92.6646V142.986C87.3779 145.825 85.0772 148.077 82.287 148.077H5.28699C2.44783 148.077 0.196079 145.777 0.196079 142.986V92.6646C0.147128 89.8744 2.44783 87.5737 5.28699 87.5737Z" fill="#AFAFAF"/>
<path d="M2.25195 147.833H83.5107V97.5108C83.5107 94.6717 81.21 92.4199 78.4198 92.4199H7.34286C4.5037 92.4199 5.77643 94.6227 5.77643 97.4619L2.25195 147.833Z" fill="#0585DD"/>
<path d="M27.7065 99.1264C38.3312 99.1264 46.9443 90.5134 46.9443 79.8886C46.9443 69.2639 38.3312 60.6509 27.7065 60.6509C17.0818 60.6509 8.46875 69.2639 8.46875 79.8886C8.46875 90.5134 17.0818 99.1264 27.7065 99.1264Z" fill="#0A93FD"/>
<path d="M27.7054 94.0354C35.5185 94.0354 41.8523 87.7016 41.8523 79.8885C41.8523 72.0755 35.5185 65.7417 27.7054 65.7417C19.8924 65.7417 13.5586 72.0755 13.5586 79.8885C13.5586 87.7016 19.8924 94.0354 27.7054 94.0354Z" fill="white"/>
<path d="M27.8522 60.9927H27.6074V63.685H27.8522V60.9927Z" fill="white"/>
<path d="M27.8522 96.0425H27.6074V98.7837H27.8522V96.0425Z" fill="white"/>
<path d="M46.6495 79.7417H43.9082V79.9865H46.6495V79.7417Z" fill="white"/>
<path d="M11.5517 79.7417H8.85938V79.9865H11.5517V79.7417Z" fill="white"/>
<path d="M41.0243 66.4118L39.0859 68.3501L39.259 68.5232L41.1974 66.5848L41.0243 66.4118Z" fill="white"/>
<path d="M16.1576 91.2384L14.2539 93.1421L14.427 93.3152L16.3307 91.4114L16.1576 91.2384Z" fill="white"/>
<path d="M39.2317 91.2244L39.0586 91.3975L40.9969 93.3358L41.17 93.1627L39.2317 91.2244Z" fill="white"/>
<path d="M14.4778 66.4295L14.3047 66.6025L16.243 68.5409L16.4161 68.3678L14.4778 66.4295Z" fill="white"/>
<path d="M32.8064 61.6381L32.0566 64.2749L32.2921 64.3418L33.0418 61.705L32.8064 61.6381Z" fill="white"/>
<path d="M23.1953 95.4186L22.459 98.0083L22.6944 98.0752L23.4308 95.4855L23.1953 95.4186Z" fill="white"/>
<path d="M43.3248 84.1586L43.2578 84.394L45.8944 85.1441L45.9613 84.9086L43.3248 84.1586Z" fill="white"/>
<path d="M9.59822 74.559L9.53125 74.7944L12.1678 75.5444L12.2348 75.309L9.59822 74.559Z" fill="white"/>
<path d="M44.254 70.1354L41.9082 71.4565L42.0283 71.6698L44.3741 70.3487L44.254 70.1354Z" fill="white"/>
<path d="M13.5792 87.6452L11.1836 88.978L11.3026 89.1919L13.6982 87.8591L13.5792 87.6452Z" fill="white"/>
<path d="M35.6923 93.9595L35.4785 94.0786L36.8124 96.4734L37.0262 96.3543L35.6923 93.9595Z" fill="white"/>
<path d="M18.6533 63.3003L18.4395 63.4194L19.7733 65.8142L19.9872 65.6951L18.6533 63.3003Z" fill="white"/>
<path d="M37.2614 63.5354L35.8652 65.8945L36.0759 66.0192L37.472 63.6601L37.2614 63.5354Z" fill="white"/>
<path d="M19.3882 93.7746L18.0156 96.0908L18.2262 96.2156L19.5987 93.8994L19.3882 93.7746Z" fill="white"/>
<path d="M41.701 88.0742L41.5762 88.2847L43.8918 89.658L44.0167 89.4475L41.701 88.0742Z" fill="white"/>
<path d="M11.5622 70.1507L11.4375 70.3613L13.7964 71.758L13.9211 71.5474L11.5622 70.1507Z" fill="white"/>
<path d="M46.0366 75.0467L43.3809 75.7266L43.4416 75.9637L46.0973 75.2838L46.0366 75.0467Z" fill="white"/>
<path d="M12.0639 83.7601L9.4082 84.4399L9.4689 84.6771L12.1246 83.9972L12.0639 83.7601Z" fill="white"/>
<path d="M31.8699 95.5105L31.6328 95.5713L32.3132 98.2267L32.5503 98.166L31.8699 95.5105Z" fill="white"/>
<path d="M23.157 61.5418L22.9199 61.6025L23.6003 64.258L23.8374 64.1973L23.157 61.5418Z" fill="white"/>
<path d="M22.5665 85.861C22.7134 85.0288 22.8113 83.9519 22.9092 82.5813L23.0071 82.4834H23.4966L23.5945 82.5813C23.5945 83.7561 23.6435 84.4414 23.6435 84.6372C24.084 85.0778 24.5735 85.4205 25.112 85.7142C25.6994 85.9589 26.3847 86.1058 27.0211 86.1058V79.5953C26.3847 79.4974 25.6994 79.3995 25.063 79.2037C24.5735 79.0568 24.084 78.8121 23.6924 78.5183C23.3008 78.2246 23.0071 77.7841 22.8113 77.3435C22.6155 76.854 22.5176 76.3156 22.5176 75.7771C22.5176 74.6512 22.9092 73.5743 23.6435 72.6932C24.3777 71.8121 25.5036 71.2246 27.0211 70.9799C27.0211 70.2456 27.0211 69.7561 26.9721 69.5603L27.07 69.4624H27.9022L28.0001 69.5603C28.0001 69.6093 27.9511 70.0988 27.9511 70.9799C29.8113 71.1267 31.084 71.4204 31.7693 71.91L31.8183 72.0568C31.7693 72.3016 31.7204 72.4974 31.6714 72.7421C31.6225 72.9869 31.6225 73.2316 31.5735 73.6232L31.4756 74.7981L31.3777 74.896H30.9372L30.8393 74.7981C30.8393 74.1617 30.7414 73.5253 30.6435 72.889C29.9581 72.1547 28.9791 71.7142 27.9511 71.7631V77.833C28.6854 77.9309 29.4686 78.0778 30.2029 78.2736C30.7414 78.4204 31.2309 78.6163 31.6714 78.9589C32.063 79.2526 32.4057 79.6442 32.6015 80.0848C32.7973 80.5743 32.8952 81.1128 32.8952 81.6512C32.8952 82.5323 32.6994 83.3645 32.3078 84.1477C31.9651 84.882 31.3777 85.4694 30.7414 85.91C29.9092 86.3995 28.9791 86.7911 28.0001 86.9379C28.0001 88.1128 28.049 88.847 28.049 89.1897L27.9511 89.2876H27.07L26.9721 89.1897C26.9721 88.9449 27.0211 88.2107 27.0211 86.9869C25.5036 86.9869 24.0351 86.6442 22.6644 86.0568L22.5665 85.861ZM27.0211 71.8121C26.5805 71.861 26.14 72.0079 25.7483 72.2037C25.3567 72.4484 25.0141 72.7911 24.7693 73.2316C24.4756 73.7701 24.3288 74.4065 24.3288 75.0428C24.3288 76.0218 24.5735 76.7072 25.112 77.0498C25.6994 77.4414 26.3358 77.6372 27.0211 77.7351V71.8121ZM28.0001 86.0568C28.8323 86.0568 29.6644 85.6652 30.2029 85.0288C30.7903 84.3435 31.084 83.4624 31.084 82.5323C31.133 81.847 30.8882 81.2107 30.4476 80.6722C30.0071 80.2316 29.2239 79.889 28.0001 79.6932V86.0568Z" fill="#0A93FD"/>
<path d="M57.6635 112.441C68.2883 112.441 76.9013 103.828 76.9013 93.2031C76.9013 82.5784 68.2883 73.9653 57.6635 73.9653C47.0388 73.9653 38.4258 82.5784 38.4258 93.2031C38.4258 103.828 47.0388 112.441 57.6635 112.441Z" fill="#0A93FD"/>
<path d="M57.6644 107.35C65.4775 107.35 71.8113 101.017 71.8113 93.2035C71.8113 85.3904 65.4775 79.0566 57.6644 79.0566C49.8513 79.0566 43.5176 85.3904 43.5176 93.2035C43.5176 101.017 49.8513 107.35 57.6644 107.35Z" fill="white"/>
<path d="M57.7623 74.3086H57.5176V77.0498H57.7623V74.3086Z" fill="white"/>
<path d="M57.7623 109.357H57.5176V112.098H57.7623V109.357Z" fill="white"/>
<path d="M76.5596 93.0566H73.8184V93.3014H76.5596V93.0566Z" fill="white"/>
<path d="M41.5088 93.0566H38.7676V93.3014H41.5088V93.0566Z" fill="white"/>
<path d="M70.9383 79.7355L69 81.6738L69.1731 81.8469L71.1114 79.9086L70.9383 79.7355Z" fill="white"/>
<path d="M46.1395 104.494L44.2012 106.432L44.3742 106.605L46.3126 104.667L46.1395 104.494Z" fill="white"/>
<path d="M69.1828 104.514L69.0098 104.688L70.9481 106.626L71.1212 106.453L69.1828 104.514Z" fill="white"/>
<path d="M44.3938 79.7512L44.2207 79.9243L46.159 81.8627L46.3321 81.6896L44.3938 79.7512Z" fill="white"/>
<path d="M62.7227 75.0143L61.9863 77.604L62.2218 77.6709L62.9581 75.0812L62.7227 75.0143Z" fill="white"/>
<path d="M53.1325 108.69L52.3828 111.327L52.6182 111.394L53.368 108.757L53.1325 108.69Z" fill="white"/>
<path d="M73.2447 97.4843L73.1777 97.7197L75.8143 98.4697L75.8812 98.2343L73.2447 97.4843Z" fill="white"/>
<path d="M39.5123 87.8886L39.4453 88.124L42.0819 88.874L42.1488 88.6386L39.5123 87.8886Z" fill="white"/>
<path d="M74.1333 83.8778L71.7383 85.2114L71.8574 85.4253L74.2524 84.0916L74.1333 83.8778Z" fill="white"/>
<path d="M43.4932 100.964L41.0977 102.297L41.2167 102.511L43.6122 101.178L43.4932 100.964Z" fill="white"/>
<path d="M65.6474 107.257L65.4336 107.376L66.7675 109.771L66.9813 109.652L65.6474 107.257Z" fill="white"/>
<path d="M48.5673 76.6221L48.3535 76.7412L49.6874 79.136L49.9012 79.0169L48.5673 76.6221Z" fill="white"/>
<path d="M67.1774 76.8596L65.7812 79.2188L65.9919 79.3434L67.388 76.9843L67.1774 76.8596Z" fill="white"/>
<path d="M49.3155 106.992L47.918 109.351L48.1285 109.475L49.526 107.117L49.3155 106.992Z" fill="white"/>
<path d="M71.6306 101.288L71.5059 101.499L73.8647 102.895L73.9894 102.685L71.6306 101.288Z" fill="white"/>
<path d="M41.4763 83.4715L41.3516 83.6821L43.7104 85.0788L43.8351 84.8682L41.4763 83.4715Z" fill="white"/>
<path d="M75.9468 88.3641L73.291 89.0439L73.3517 89.2811L76.0074 88.6012L75.9468 88.3641Z" fill="white"/>
<path d="M41.976 97.078L39.3203 97.7578L39.381 97.9949L42.0367 97.3151L41.976 97.078Z" fill="white"/>
<path d="M61.7801 108.829L61.543 108.89L62.2233 111.545L62.4604 111.484L61.7801 108.829Z" fill="white"/>
<path d="M53.0652 74.8592L52.8281 74.9199L53.5085 77.5754L53.7456 77.5146L53.0652 74.8592Z" fill="white"/>
<path d="M52.4747 99.1757C52.6216 98.3435 52.7195 97.2666 52.8174 95.896L52.9153 95.7981H53.4048L53.5027 95.896C53.5027 97.0708 53.5517 97.7561 53.5517 97.9519C53.9922 98.3925 54.4817 98.7351 55.0202 99.0289C55.6076 99.2736 56.2929 99.4205 56.9293 99.4205V92.91C56.2929 92.8121 55.6076 92.7142 54.9712 92.5184C54.4817 92.3715 53.9922 92.1268 53.6006 91.8331C53.209 91.5393 52.9153 91.0988 52.7195 90.6582C52.5237 90.1687 52.4258 89.6302 52.4258 89.0428C52.4258 87.917 52.8174 86.84 53.5027 85.9589C54.237 85.0289 55.3628 84.4904 56.8803 84.2456C56.8803 83.5114 56.8803 83.0219 56.8314 82.7771L56.9293 82.6792H57.7614L57.8593 82.7771C57.8593 82.8261 57.8593 83.3156 57.8104 84.1967C59.6705 84.3435 60.9433 84.6372 61.6286 85.1268L61.6775 85.2736C61.6286 85.5184 61.5796 85.7142 61.5307 85.9589C61.4817 86.2037 61.4817 86.4484 61.4328 86.84L61.3349 88.0149L61.237 88.1128H60.7964L60.6985 88.0149C60.6985 87.3785 60.6006 86.7421 60.5027 86.1058C59.8174 85.3715 58.8384 84.9799 57.8104 84.9799V91.0498C58.5447 91.1477 59.3279 91.2946 60.0621 91.4904C60.6006 91.6372 61.0901 91.882 61.5307 92.1757C61.9223 92.4694 62.2649 92.861 62.4607 93.3016C62.6566 93.7911 62.7545 94.3296 62.7545 94.868C62.7545 95.7491 62.5586 96.5813 62.167 97.3645C61.8244 98.0988 61.2859 98.6862 60.6006 99.1268C59.7684 99.6163 58.8384 100.008 57.8593 100.155C57.8593 101.33 57.9083 102.064 57.9083 102.406L57.8104 102.504H56.9782L56.8803 102.406C56.8803 102.162 56.9293 101.427 56.9293 100.204C55.4118 100.204 53.9433 99.91 52.5726 99.2736L52.4747 99.1757ZM56.9293 85.1268C56.4887 85.1757 56.0482 85.2736 55.6565 85.5184C55.2649 85.7631 54.9223 86.1058 54.6775 86.5463C54.3838 87.0848 54.237 87.7212 54.237 88.3575C54.237 89.3365 54.4817 90.0219 55.0202 90.3645C55.5586 90.7561 56.244 90.9519 56.9293 91.0498V85.1268ZM57.9083 99.3715C58.7405 99.3715 59.5726 98.9799 60.1111 98.3435C60.6985 97.6582 60.9922 96.7771 60.9922 95.847C61.0412 95.1617 60.7964 94.5254 60.3559 93.9869C59.9153 93.5463 59.1321 93.2037 57.9083 93.0079V99.3715Z" fill="#0A93FD"/>
<path d="M5.38464 94.3779H76.4616C79.3007 94.3779 81.5525 96.6786 81.5525 99.4688V149.791C81.5525 152.63 79.2518 154.881 76.4616 154.881H5.38464C2.54548 154.881 0.293736 152.581 0.293736 149.791V99.4688C0.244785 96.6297 2.54548 94.3779 5.38464 94.3779Z" fill="#AFAFAF"/>
<path d="M68.5307 116.455H87.4258V132.805H68.5307C64.0272 132.805 60.4048 129.133 60.4048 124.63C60.3558 120.126 64.0272 116.455 68.5307 116.455Z" fill="#0A93FD"/>
<path d="M67.7968 128.497C69.9326 128.497 71.6639 126.766 71.6639 124.63C71.6639 122.494 69.9326 120.763 67.7968 120.763C65.6611 120.763 63.9297 122.494 63.9297 124.63C63.9297 126.766 65.6611 128.497 67.7968 128.497Z" fill="white"/>
<path d="M56.1953 48.8046H58.7408C62.1184 27.0703 80.1813 10.5249 103.58 10.6717V8.17523C78.8107 8.02837 59.6219 25.6997 56.1953 48.8046Z" fill="#0A93FD" stroke="#0A93FD" stroke-width="1.95804" stroke-miterlimit="10"/>
<path d="M57.5172 59.6229L64.3214 47.8257H50.6641L57.5172 59.6229Z" fill="#0A93FD"/>
<path d="M113.565 59.6709C109.796 59.6709 105.977 58.8388 102.404 57.0276L102.257 56.9297L99.369 55.3632C96.8725 53.9926 95.9424 50.8108 97.313 48.3143C98.6837 45.8178 101.865 44.8877 104.362 46.2583L107.152 47.7758C114.201 51.3003 122.865 48.4611 126.537 41.5101L130.502 33.9716C131.824 31.4262 134.956 30.4472 137.502 31.7688C140.047 33.0905 141.026 36.2234 139.705 38.7688L135.74 46.3073C131.334 54.8248 122.572 59.6709 113.565 59.6709Z" fill="#AFAFAF"/>
<path d="M105.296 78.9089C116.759 78.9089 126.052 69.6165 126.052 58.1537C126.052 46.6909 116.759 37.3984 105.296 37.3984C93.8335 37.3984 84.541 46.6909 84.541 58.1537C84.541 69.6165 93.8335 78.9089 105.296 78.9089Z" fill="#0A93FD"/>
<path d="M105.298 73.3772C113.706 73.3772 120.522 66.5613 120.522 58.1535C120.522 49.7456 113.706 42.9297 105.298 42.9297C96.8901 42.9297 90.0742 49.7456 90.0742 58.1535C90.0742 66.5613 96.8901 73.3772 105.298 73.3772Z" fill="white"/>
<path d="M105.446 37.791H105.201V40.7281H105.446V37.791Z" fill="white"/>
<path d="M105.446 75.6304H105.201V78.5674H105.446V75.6304Z" fill="white"/>
<path d="M125.71 58.0078H122.773V58.2526H125.71V58.0078Z" fill="white"/>
<path d="M87.8707 58.0078H84.9336V58.2526H87.8707V58.0078Z" fill="white"/>
<path d="M119.647 43.6351L117.57 45.7119L117.743 45.885L119.82 43.8082L119.647 43.6351Z" fill="white"/>
<path d="M92.8873 70.4188L90.8105 72.4956L90.9836 72.6687L93.0604 70.5919L92.8873 70.4188Z" fill="white"/>
<path d="M117.722 70.4114L117.549 70.5845L119.626 72.6613L119.799 72.4882L117.722 70.4114Z" fill="white"/>
<path d="M90.9719 43.6804L90.7988 43.8535L92.8756 45.9303L93.0487 45.7572L90.9719 43.6804Z" fill="white"/>
<path d="M110.785 38.5205L109.982 41.3457L110.218 41.4126L111.021 38.5875L110.785 38.5205Z" fill="white"/>
<path d="M100.41 74.8858L99.6074 77.7109L99.8429 77.7779L100.646 74.9527L100.41 74.8858Z" fill="white"/>
<path d="M122.151 62.8081L122.084 63.0435L124.909 63.847L124.976 63.6116L122.151 62.8081Z" fill="white"/>
<path d="M85.7232 52.4658L85.6562 52.7012L88.4811 53.5048L88.5481 53.2693L85.7232 52.4658Z" fill="white"/>
<path d="M123.052 48.1134L120.486 49.542L120.605 49.7558L123.171 48.3272L123.052 48.1134Z" fill="white"/>
<path d="M90.0273 66.5515L87.4609 67.9795L87.5799 68.1934L90.1463 66.7654L90.0273 66.5515Z" fill="white"/>
<path d="M113.927 73.3526L113.713 73.4717L115.142 76.0375L115.356 75.9184L113.927 73.3526Z" fill="white"/>
<path d="M95.499 40.2666L95.2852 40.3857L96.7143 42.9516L96.9281 42.8325L95.499 40.2666Z" fill="white"/>
<path d="M115.594 40.5669L114.098 43.0942L114.308 43.2189L115.804 40.6916L115.594 40.5669Z" fill="white"/>
<path d="M96.3193 73.0836L94.8223 75.6104L95.0328 75.7351L96.5298 73.2083L96.3193 73.0836Z" fill="white"/>
<path d="M120.379 66.9608L120.254 67.1714L122.781 68.6675L122.906 68.4569L120.379 66.9608Z" fill="white"/>
<path d="M87.8161 47.6702L87.6914 47.8809L90.2187 49.377L90.3434 49.1664L87.8161 47.6702Z" fill="white"/>
<path d="M125.038 52.9962L122.193 53.7246L122.254 53.9617L125.099 53.2333L125.038 52.9962Z" fill="white"/>
<path d="M88.3647 62.3458L85.5195 63.0742L85.5802 63.3113L88.4254 62.5829L88.3647 62.3458Z" fill="white"/>
<path d="M109.776 75.0579L109.539 75.1187L110.268 77.9638L110.505 77.903L109.776 75.0579Z" fill="white"/>
<path d="M100.38 38.387L100.143 38.4478L100.872 41.2929L101.109 41.2321L100.38 38.387Z" fill="white"/>
<path d="M99.7638 64.6153C99.9107 63.7342 100.009 62.5594 100.106 61.0908L100.204 60.9929H100.743L100.841 61.0908C100.89 62.3636 100.89 63.0978 100.939 63.2936C101.428 63.7831 101.967 64.1747 102.505 64.4684C103.044 64.7132 103.729 64.8601 104.561 64.8601V57.8601C103.68 57.7132 102.995 57.6153 102.456 57.4684C101.918 57.3216 101.428 57.0768 100.988 56.7342C100.547 56.3915 100.253 55.951 100.009 55.4615C99.8127 54.9719 99.7148 54.3845 99.7148 53.7482C99.7148 52.5244 100.106 51.3985 100.89 50.4195C101.673 49.4405 102.897 48.8531 104.512 48.5594C104.512 47.7761 104.463 47.2377 104.463 46.9929L104.61 46.895H105.491L105.638 46.9929C105.638 47.0419 105.589 47.5803 105.589 48.5104C107.596 48.6573 108.967 48.9999 109.701 49.5384L109.75 49.6852C109.701 49.93 109.652 50.1747 109.603 50.4195C109.554 50.6642 109.554 50.958 109.505 51.3496L109.407 52.6223L109.309 52.7202H108.82L108.722 52.6223C108.673 51.7901 108.624 51.1538 108.526 50.5663C107.841 49.7831 106.862 49.3915 105.589 49.3426V55.8531C106.617 55.9999 107.4 56.1468 107.988 56.2936C108.575 56.4405 109.113 56.6852 109.554 57.0279C109.995 57.3705 110.337 57.7622 110.533 58.2517C110.729 58.7412 110.876 59.2796 110.876 59.916C110.876 60.895 110.68 61.7761 110.239 62.6083C109.799 63.4405 109.26 64.0768 108.526 64.5174C107.841 65.0069 106.862 65.3496 105.589 65.5943C105.589 66.867 105.638 67.6503 105.687 68.0419L105.589 68.1398H104.659L104.512 68.0419C104.512 67.7482 104.561 66.965 104.561 65.6433C102.799 65.5943 101.232 65.3006 99.8617 64.6643L99.7638 64.6153ZM104.561 49.4405C104.023 49.4894 103.582 49.6363 103.19 49.8321C102.799 50.0279 102.456 50.4195 102.113 50.958C101.82 51.4964 101.673 52.1328 101.673 52.916C101.673 53.944 101.967 54.6782 102.505 55.0698C103.044 55.4615 103.778 55.7062 104.561 55.8041V49.4405ZM105.589 64.8111C106.568 64.7621 107.351 64.4195 107.939 63.6852C108.575 62.951 108.869 62.0698 108.869 60.9929C108.869 60.1608 108.624 59.5244 108.183 59.0349C107.743 58.5454 106.862 58.2027 105.589 58.0069V64.8111Z" fill="#0A93FD"/>
<path d="M167.363 37.6904C167.706 34.2148 164.915 31.1799 161.44 31.3757C160.461 31.4246 159.335 31.6204 158.013 32.061C155.517 32.8932 152.678 33.2848 149.741 33.5295C146.069 33.4316 142.349 33.1379 139.167 32.061C137.894 31.6204 136.769 31.4246 135.741 31.3757C132.265 31.1799 129.475 34.2638 129.818 37.6904L130.062 39.8932L135.055 81.2568L165.307 81.8932L167.363 37.6904Z" fill="#AFAFAF"/>
<path d="M189.148 122.474C172.26 106.418 164.623 87.5715 163.987 67.3057C162.567 64.4666 159.141 63.2917 156.302 64.6624C153.462 66.082 151.358 69.9491 152.777 72.8372C154.637 94.9141 163.644 113.956 180.581 129.669L175.882 131.774C172.945 132.998 171.574 136.376 172.798 139.313C174.022 142.25 177.4 143.62 180.337 142.397L193.211 136.425C198.302 132.9 192.819 126.096 189.148 122.474Z" fill="#AFAFAF"/>
<path d="M140 143.033C142.154 142.984 143.916 141.368 144.161 139.214L146.119 70.9277C146.51 67.7459 144.21 64.9068 141.077 64.5151C137.944 64.1235 135.056 66.4242 134.664 69.5571L133.44 131.676L127.028 131.872C123.846 131.97 121.301 134.662 121.447 137.893C121.594 141.075 124.385 143.473 127.566 143.375L140 143.033Z" fill="#AFAFAF"/>
<path d="M148.664 28.6829C156.478 28.6829 162.811 22.3491 162.811 14.536C162.811 6.72292 156.478 0.38916 148.664 0.38916C140.851 0.38916 134.518 6.72292 134.518 14.536C134.518 22.3491 140.851 28.6829 148.664 28.6829Z" fill="#AFAFAF"/>
<path d="M130.455 69.6574C129.818 69.6574 129.231 69.6574 128.595 69.6085L117.776 68.7763C114.937 68.5805 112.783 66.084 112.979 63.1959C113.175 60.3567 115.72 58.2029 118.56 58.3987L129.378 59.2309C137.259 59.8183 144.259 53.8952 144.993 46.0141C145.238 43.1749 147.783 41.07 150.623 41.3148C153.462 41.5595 155.567 44.105 155.322 46.9441C154.098 59.8183 143.133 69.6574 130.455 69.6574Z" fill="#AFAFAF"/>
<path d="M152.824 14.0494C153.635 14.0494 154.293 13.2604 154.293 12.2871C154.293 11.3139 153.635 10.5249 152.824 10.5249C152.013 10.5249 151.355 11.3139 151.355 12.2871C151.355 13.2604 152.013 14.0494 152.824 14.0494Z" fill="white"/>
<path d="M141.125 14.0494C141.936 14.0494 142.593 13.2604 142.593 12.2871C142.593 11.3139 141.936 10.5249 141.125 10.5249C140.314 10.5249 139.656 11.3139 139.656 12.2871C139.656 13.2604 140.314 14.0494 141.125 14.0494Z" fill="white"/>
<path d="M151.747 19.8252C151.502 20.8042 150.866 21.7343 149.985 22.4196C149.103 23.056 148.026 23.4476 146.95 23.4476C146.656 23.4476 146.411 23.4476 146.117 23.3986L145.726 23.3497C145.579 23.3007 145.481 23.2518 145.334 23.2028L144.943 23.056C144.796 23.007 144.698 22.9091 144.6 22.8602L144.257 22.6644L143.915 22.4196C143.082 21.7343 142.446 20.8042 142.152 19.8252C142.789 20.6574 143.474 21.3427 144.306 21.8322C145.138 22.3217 146.019 22.5665 146.95 22.5665C147.88 22.5665 148.81 22.3217 149.642 21.8322C150.425 21.3916 151.159 20.6574 151.747 19.8252Z" fill="white"/>
</svg>
