<svg width="293" height="95" viewBox="0 0 293 95" fill="none" xmlns="http://www.w3.org/2000/svg">
<g clip-path="url(#clip0_249_987)">
<path d="M136.201 48.1351C143.408 48.1351 149.25 41.9133 149.25 34.2384C149.25 26.5635 143.408 20.3418 136.201 20.3418C128.995 20.3418 123.152 26.5635 123.152 34.2384C123.152 41.9133 128.995 48.1351 136.201 48.1351Z" fill="#0A93FD"/>
<path d="M133.855 31.6785C134.387 33.5687 135.174 35.3772 136.195 37.054C140.166 37.292 144.131 37.8197 148.108 37.649C148.372 36.5318 148.505 35.3876 148.505 34.2395C148.508 32.1534 148.065 30.0909 147.204 28.1914C146.714 28.5749 146.196 28.9208 145.655 29.2262C142.066 31.2594 137.873 31.425 133.855 31.6785Z" fill="white"/>
<path d="M6.06134 7.29102L38.0873 0.0788431C38.542 -0.0271771 39.0147 -0.0288797 39.4702 0.0738627C39.9256 0.176605 40.352 0.381136 40.7174 0.672174C41.0829 0.963212 41.378 1.33323 41.5807 1.75459C41.7833 2.17594 41.8884 2.63774 41.8879 3.10547V16.8728C41.8916 17.4643 41.698 18.04 41.3378 18.5087C40.9776 18.9774 40.4715 19.3121 39.8998 19.4596L29.0042 22.2483L28.6737 40.6047C28.6737 40.6047 55.5875 41.2669 55.8095 40.6047C56.0316 39.9424 78.3496 20.8721 95.6329 18.9009C95.6329 16.5882 97.4815 12.532 99.7897 12.4906L113.603 12.2578C114.371 12.2434 115.133 12.3825 115.847 12.667C116.56 12.9515 117.21 13.3758 117.757 13.9149C118.305 14.454 118.74 15.0971 119.036 15.8067C119.333 16.5162 119.485 17.2779 119.485 18.0472V35.8034C119.485 35.8034 118.829 44.5988 126.714 44.7954C131.847 44.9351 141.72 44.7074 147.978 44.5315C149.662 44.4815 151.296 43.9471 152.685 42.9921C154.074 42.0371 155.16 40.7018 155.812 39.1457L156.401 37.7488C156.91 36.5297 157.835 35.5315 159.01 34.9326C160.186 34.3336 161.536 34.1729 162.819 34.479C182.71 39.1922 260.26 58.899 267.417 61.4548C278.468 65.4023 304.184 80.0802 287.556 83.3811C270.929 86.6819 51.002 83.3811 51.002 83.3811L5.10603 73.2095C3.5664 72.8729 2.20065 71.9888 1.26168 70.7208C0.322715 69.4528 -0.125861 67.8868 -0.000979412 66.3129L1.54816 47.4495C1.67365 45.8644 2.3726 44.3798 3.51366 43.2746C4.65472 42.1695 6.15933 41.5199 7.74474 41.448L15.5834 41.0651L16.2444 24.7368L9.36102 26.0147C8.6767 26.1476 7.9677 26.0048 7.38773 25.6174C6.80775 25.23 6.40354 24.6292 6.26273 23.9453L3.68082 11.1248C3.57325 10.716 3.55016 10.2895 3.61296 9.87141C3.67576 9.45336 3.82312 9.05257 4.04602 8.6936C4.26891 8.33464 4.56263 8.02508 4.90918 7.7839C5.25573 7.54271 5.6478 7.37499 6.06134 7.29102Z" fill="#0A93FD"/>
<path d="M6.08929 44.303L30.984 43.1286L31.1131 40.3555L7.70556 41.4471C6.3233 41.5131 4.99797 42.0187 3.92182 42.8903C2.84568 43.762 2.0747 44.9545 1.7207 46.2949C2.8694 45.0961 4.43257 44.3834 6.08929 44.303Z" fill="#AFAFAF"/>
<path d="M98.1794 15.3663L111.993 15.1128C112.76 15.0983 113.523 15.2374 114.236 15.522C114.95 15.8065 115.599 16.2307 116.147 16.7699C116.695 17.309 117.129 17.9521 117.426 18.6617C117.723 19.3712 117.875 20.1329 117.874 20.9022V38.6584C117.874 38.6584 117.218 47.4538 125.104 47.6504C130.236 47.7952 140.11 47.5624 146.368 47.3865C148.051 47.3369 149.685 46.8033 151.074 45.8492C152.463 44.8952 153.549 43.561 154.202 42.0058L154.47 41.3591C153.675 42.3187 152.684 43.0978 151.565 43.6446C150.446 44.1914 149.224 44.4934 147.979 44.5306C141.721 44.7065 131.847 44.9342 126.715 44.7945C118.835 44.572 119.485 35.8025 119.485 35.8025V18.0463C119.486 17.277 119.334 16.5153 119.037 15.8058C118.741 15.0962 118.306 14.4531 117.758 13.914C117.21 13.3748 116.561 12.9506 115.847 12.6661C115.134 12.3815 114.371 12.2424 113.604 12.2569L99.7905 12.5104C98.1794 12.5363 96.7955 14.5281 96.1035 16.5097C96.3533 16.1872 96.6664 15.9195 97.0234 15.7228C97.3804 15.5262 97.7738 15.4048 98.1794 15.3663Z" fill="#AFAFAF"/>
<path d="M267.413 61.4556C260.256 58.8998 182.727 39.2086 162.815 34.4798C161.529 34.175 160.177 34.3388 159.001 34.9417C157.825 35.5446 156.902 36.5473 156.396 37.7703L155.916 38.9085C156.586 38.2123 157.426 37.703 158.352 37.4309C159.278 37.1587 160.259 37.133 161.199 37.3564C181.095 42.0748 258.645 61.7815 265.802 64.3374C274.121 67.3071 290.748 76.3663 291.363 82.0625C299.088 77.2096 277.343 64.9996 267.413 61.4556Z" fill="#AFAFAF"/>
<path d="M4.45074 10.1469L36.4664 2.93474C36.9235 2.82649 37.3992 2.82378 37.8575 2.92681C38.3158 3.02985 38.7447 3.23593 39.1118 3.52948C39.4789 3.82304 39.7746 4.19637 39.9765 4.62127C40.1784 5.04616 40.2813 5.51149 40.2773 5.98207V19.3355C40.7566 19.1329 41.1656 18.7931 41.4531 18.3588C41.7406 17.9244 41.8938 17.4147 41.8936 16.8935L41.8884 3.10547C41.8889 2.63774 41.7839 2.17594 41.5812 1.75459C41.3785 1.33323 41.0834 0.963212 40.718 0.672174C40.3525 0.381136 39.9261 0.176605 39.4707 0.0738627C39.0152 -0.0288797 38.5425 -0.0271771 38.0878 0.0788431L6.07218 7.29102C5.35393 7.44231 4.71262 7.84416 4.26247 8.42497C3.81233 9.00578 3.5826 9.72784 3.6142 10.4625C3.87666 10.318 4.15834 10.2117 4.45074 10.1469Z" fill="#AFAFAF"/>
<path d="M115.908 13.4524V39.4297C115.908 39.4297 115.217 48.6648 123.515 48.8925C128.921 49.0477 142.926 48.8045 149.515 48.6183C151.292 48.5672 153.018 48.003 154.483 46.9934C155.949 45.9839 157.092 44.572 157.777 42.9272L158.391 41.4526C159.501 38.8037 160.896 37.3499 163.689 38.0121C184.634 42.9789 266.305 63.7307 273.844 66.4211C279.441 68.5488 284.816 71.2209 289.893 74.399C284.564 69.308 273.663 63.6635 267.425 61.4336C260.268 58.8778 182.739 39.1866 162.827 34.4578C161.537 34.1517 160.181 34.3171 159.002 34.9241C157.824 35.5312 156.9 36.5401 156.398 37.7689L155.809 39.1659C155.157 40.722 154.072 42.0573 152.683 43.0123C151.294 43.9673 149.66 44.5017 147.976 44.5517C141.717 44.7276 131.844 44.9553 126.711 44.8156C118.831 44.5931 119.482 35.8236 119.482 35.8236V18.0467C119.484 16.8909 119.14 15.761 118.496 14.8022C117.852 13.8434 116.937 13.0994 115.867 12.666C115.9 12.9268 115.914 13.1896 115.908 13.4524Z" fill="#AFAFAF"/>
<path d="M226.278 95.0016C241.747 95.0016 254.287 82.4376 254.287 66.9393C254.287 51.4409 241.747 38.877 226.278 38.877C210.809 38.877 198.27 51.4409 198.27 66.9393C198.27 82.4376 210.809 95.0016 226.278 95.0016Z" fill="#AFAFAF"/>
<path d="M226.278 85.7901C236.67 85.7901 245.095 77.3493 245.095 66.9371C245.095 56.5248 236.67 48.084 226.278 48.084C215.886 48.084 207.461 56.5248 207.461 66.9371C207.461 77.3493 215.886 85.7901 226.278 85.7901Z" fill="white"/>
<path d="M33.7097 95.0016C49.1784 95.0016 61.7182 82.4376 61.7182 66.9393C61.7182 51.4409 49.1784 38.877 33.7097 38.877C18.241 38.877 5.70117 51.4409 5.70117 66.9393C5.70117 82.4376 18.241 95.0016 33.7097 95.0016Z" fill="#AFAFAF"/>
<path d="M33.7076 85.7901C44.0999 85.7901 52.5245 77.3493 52.5245 66.9371C52.5245 56.5248 44.0999 48.084 33.7076 48.084C23.3153 48.084 14.8906 56.5248 14.8906 66.9371C14.8906 77.3493 23.3153 85.7901 33.7076 85.7901Z" fill="white"/>
<path d="M96.0476 49.9732C96.3367 54.9607 96.502 59.9482 96.6827 64.9357C96.6773 66.146 96.7463 67.3555 96.8893 68.5573C97.1959 70.2182 98.0453 71.7297 99.3037 72.8537C100.562 73.9777 102.158 74.6504 103.84 74.7657L118.691 74.5847L133.64 74.5019L148.579 74.5691L163.43 74.7554C165.11 74.6363 166.704 73.9623 167.96 72.8388C169.217 71.7153 170.067 70.2059 170.375 68.5469C170.516 67.3449 170.585 66.1355 170.582 64.9253C170.763 59.9378 170.928 54.9504 171.217 49.9629C171.506 54.9504 171.672 59.9378 171.852 64.9253L171.904 66.7982C171.904 67.1086 171.904 67.4191 171.904 67.7657V68.2831L171.842 68.8004C171.67 70.1606 171.197 71.4651 170.458 72.6187C169.697 73.7809 168.687 74.759 167.502 75.482C166.317 76.205 164.986 76.6549 163.606 76.799C163.27 76.799 162.888 76.8611 162.573 76.8611H161.638L159.769 76.9025L156.036 76.9491L148.569 77.0422L133.64 77.0888L118.706 77.0163L111.234 76.9284L107.501 76.8766L105.637 76.8404H104.702C104.403 76.8404 104.02 76.8042 103.669 76.7835C102.29 76.6397 100.96 76.1899 99.7753 75.4668C98.5909 74.7438 97.5821 73.7655 96.8221 72.6031C96.079 71.4509 95.6043 70.146 95.4331 68.7849L95.3711 68.2675V67.7502C95.3711 67.4035 95.3711 67.0931 95.3711 66.7827L95.4227 64.9098C95.6086 59.9482 95.779 54.9607 96.0476 49.9732Z" fill="white"/>
</g>
<defs>
<clipPath id="clip0_249_987">
<rect width="293" height="95" fill="white"/>
</clipPath>
</defs>
</svg>
