<svg width="41" height="99" viewBox="0 0 41 99" fill="none" xmlns="http://www.w3.org/2000/svg">
<g clip-path="url(#clip0_249_69)">
<path d="M29.9741 43.5622C32.4885 43.5638 34.9681 42.9737 37.2122 41.8395L37.3231 41.7804L39.1715 40.7675C39.579 40.5427 39.9383 40.2399 40.2288 39.8763C40.5193 39.5127 40.7353 39.0954 40.8646 38.6483C40.9938 38.2012 41.0337 37.733 40.982 37.2705C40.9303 36.8079 40.788 36.3601 40.5633 35.9526C40.3385 35.545 40.0357 35.1857 39.6721 34.8952C39.3084 34.6047 38.8912 34.3887 38.4441 34.2595C37.9969 34.1302 37.5288 34.0903 37.0662 34.142C36.6037 34.1937 36.1559 34.336 35.7483 34.5608L33.9665 35.5404C31.833 36.5905 29.3745 36.7687 27.1118 36.0373C24.8492 35.3058 22.9602 33.7222 21.8451 31.6219L19.3128 26.7977C18.8761 25.9644 18.1261 25.3386 17.228 25.0582C16.3299 24.7778 15.3571 24.8656 14.5238 25.3024C13.6904 25.7392 13.0647 26.4891 12.7843 27.3872C12.5039 28.2854 12.5917 29.2581 13.0285 30.0915L15.5644 34.8972C16.9491 37.5171 19.0232 39.709 21.5627 41.2361C24.1023 42.7632 27.0108 43.5675 29.9741 43.5622Z" fill="#AFAFAF"/>
<path d="M2.76606 27.0259C2.71011 26.4796 2.77208 25.9277 2.94776 25.4074C3.12345 24.8871 3.40877 24.4106 3.78444 24.0101C4.16011 23.6095 4.61738 23.2943 5.12535 23.0856C5.63332 22.877 6.18016 22.7798 6.72891 22.8006C7.50584 22.8491 8.27285 23.0008 9.00977 23.2516C10.8031 23.7896 12.6527 24.1183 14.5215 24.2312C16.9577 24.1536 19.4455 23.9577 21.597 23.2516C22.3339 23.0008 23.1009 22.8491 23.8779 22.8006C24.4266 22.7798 24.9735 22.877 25.4814 23.0856C25.9894 23.2943 26.4467 23.6095 26.8223 24.0101C27.198 24.4106 27.4833 24.8871 27.659 25.4074C27.8347 25.9277 27.8967 26.4796 27.8407 27.0259L27.6928 28.5046H27.8666L26.9868 35.3915L24.3658 56.1152L4.16341 56.5292L4.43696 43.3838H4.41109L2.76606 27.0259Z" fill="#AFAFAF"/>
<path d="M0.0012647 94.42L4.9844 47.3464C5.07945 46.3276 5.56848 45.3862 6.34734 44.7226C7.1262 44.0591 8.13334 43.7258 9.15427 43.7938C9.66304 43.8382 10.1579 43.9834 10.6099 44.2211C11.0619 44.4588 11.462 44.7842 11.7869 45.1782C12.1118 45.5723 12.3549 46.0271 12.5021 46.5162C12.6492 47.0052 12.6974 47.5187 12.6439 48.0266L8.20792 90.0542L12.4332 90.3611C12.9376 90.3853 13.4323 90.5087 13.889 90.7242C14.3457 90.9396 14.7555 91.2429 15.095 91.6167C15.4345 91.9905 15.697 92.4276 15.8676 92.9029C16.0382 93.3781 16.1135 93.8824 16.0893 94.3868C16.065 94.8911 15.9416 95.3858 15.7262 95.8425C15.5107 96.2992 15.2074 96.709 14.8336 97.0485C14.4598 97.388 14.0228 97.6506 13.5475 97.8212C13.0722 97.9917 12.568 98.0671 12.0636 98.0428L2.63331 97.4994C2.25494 97.4793 1.8846 97.3826 1.54479 97.215C1.20498 97.0474 0.902799 96.8124 0.656615 96.5244C0.410432 96.2364 0.225386 95.9013 0.112726 95.5396C6.58352e-05 95.1778 -0.0378562 94.7969 0.0012647 94.42Z" fill="#AFAFAF"/>
<path d="M23.8996 97.3743C23.2293 97.355 22.5883 97.0953 22.0936 96.6426C21.5988 96.19 21.2834 95.5745 21.2047 94.9086L15.8408 49.2175C15.7217 48.2047 16.0098 47.1861 16.6417 46.3857C17.2736 45.5854 18.1975 45.0688 19.2103 44.9497C20.2231 44.8306 21.2417 45.1186 22.0421 45.7505C22.8425 46.3825 23.359 47.3064 23.4782 48.3192L28.3467 89.8293L32.6349 89.9476C33.1447 89.9633 33.6463 90.0801 34.1106 90.2911C34.5749 90.5022 34.9927 90.8034 35.3397 91.1772C35.6867 91.551 35.956 91.99 36.132 92.4688C36.3079 92.9475 36.3871 93.4564 36.3648 93.966C36.2981 94.9861 35.8358 95.9399 35.0763 96.6242C34.3167 97.3084 33.32 97.6691 32.2985 97.6294L23.8996 97.3743Z" fill="#AFAFAF"/>
<path d="M16.3478 21.2185C22.2073 21.2185 26.9573 16.4685 26.9573 10.609C26.9573 4.74955 22.2073 -0.000488281 16.3478 -0.000488281C10.4883 -0.000488281 5.73828 4.74955 5.73828 10.609C5.73828 16.4685 10.4883 21.2185 16.3478 21.2185Z" fill="#AFAFAF"/>
<path d="M27.3032 47.2208C28.1093 46.9562 28.7935 46.411 29.2315 45.6844C29.6694 44.9578 29.832 44.0981 29.6897 43.2618C29.5473 42.4255 29.1094 41.668 28.4557 41.1273C27.802 40.5866 26.9759 40.2985 26.1277 40.3154L19.1705 40.4374C16.783 40.47 14.4774 39.5675 12.7463 37.9228C11.0153 36.2781 9.99614 34.0217 9.9066 31.6356L9.72177 26.1904C9.69039 25.2516 9.28739 24.3638 8.6014 23.7221C7.91542 23.0805 7.00265 22.7377 6.06389 22.7691C5.12514 22.8004 4.23729 23.2034 3.59568 23.8894C2.95406 24.5754 2.61123 25.4882 2.6426 26.4269L2.82374 31.8759C2.98541 36.1166 4.79807 40.1262 7.87491 43.049C10.9517 45.9718 15.0491 47.5764 19.2925 47.5203L26.246 47.3983C26.6055 47.395 26.9623 47.3351 27.3032 47.2208Z" fill="#AFAFAF"/>
<path d="M18.9998 47.8941C10.0205 47.8941 2.52732 40.7891 2.2168 31.9207L2.95614 31.8949C3.24078 40.3677 10.405 47.1548 18.9887 47.1548H19.2733L26.2453 47.0291C26.5658 47.0247 26.8837 46.9711 27.1879 46.8702C27.9102 46.633 28.5233 46.1444 28.9156 45.4932C29.3079 44.8419 29.4532 44.0715 29.3251 43.3222C29.197 42.5728 28.804 41.8944 28.2177 41.4105C27.6314 40.9265 26.8907 40.6693 26.1307 40.6856L19.1735 40.8076H19.0109C16.5558 40.797 14.1996 39.8386 12.4342 38.1324C10.6688 36.4263 9.63058 34.1042 9.53624 31.6509L10.2756 31.625C10.3614 33.8877 11.3181 36.0298 12.9458 37.6038C14.5736 39.1779 16.7466 40.0621 19.0109 40.0719H19.1624L26.1196 39.9499C27.0535 39.9363 27.9614 40.2569 28.6796 40.854C29.3978 41.4511 29.8788 42.2852 30.0359 43.2059C30.193 44.1265 30.0158 45.073 29.5362 45.8744C29.0567 46.6759 28.3064 47.2794 27.4208 47.5762C27.0444 47.6984 26.6521 47.7644 26.2564 47.7721L19.2992 47.8941H18.9998Z" fill="white"/>
<path d="M22.3869 23.0637C23.2173 22.6257 24.1877 22.5355 25.0847 22.8128C25.9817 23.09 26.7319 23.7122 27.1704 24.5424L29.7063 29.3481C30.6896 31.2159 32.2956 32.6807 34.2459 33.4884L34.2237 34.3275C34.1756 36.4975 34.1239 38.6711 34.0425 40.8374C31.7913 40.3084 29.6796 39.3032 27.8495 37.8895C26.0194 36.4758 24.5135 34.6864 23.433 32.6418L20.9008 27.8361C20.4669 27.0058 20.3797 26.0375 20.6582 25.143C20.9367 24.2485 21.5583 23.5009 22.3869 23.0637Z" fill="#AFAFAF"/>
<path d="M19.2671 39.8979H37.7949V24.3164H19.2671L19.2671 39.8979Z" fill="#0A93FD"/>
<path d="M19.2671 29.0039L37.7949 29.0039V24.3202L19.2671 24.3202V29.0039Z" fill="white"/>
<path d="M18.8442 27.8828L38.2148 27.8828V24.3155L18.8442 24.3155V27.8828Z" fill="#0A93FD"/>
<path d="M26.1809 31.6177H30.4395V24.2724H26.1809V31.6177Z" fill="white"/>
<path d="M13.2419 10.6311C13.8727 10.6311 14.3842 10.0187 14.3842 9.26328C14.3842 8.50788 13.8727 7.89551 13.2419 7.89551C12.611 7.89551 12.0996 8.50788 12.0996 9.26328C12.0996 10.0187 12.611 10.6311 13.2419 10.6311Z" fill="white"/>
<path d="M22.3239 10.6311C22.9548 10.6311 23.4662 10.0187 23.4662 9.26328C23.4662 8.50788 22.9548 7.89551 22.3239 7.89551C21.6931 7.89551 21.1816 8.50788 21.1816 9.26328C21.1816 10.0187 21.6931 10.6311 22.3239 10.6311Z" fill="white"/>
<path d="M14.0977 15.1113C14.3148 15.9103 14.7938 16.6133 15.458 17.1075C16.1401 17.6228 16.9691 17.9065 17.8239 17.9171C18.0445 17.9234 18.2651 17.9061 18.4819 17.8654L18.7961 17.8062C18.9004 17.7809 19.0029 17.7488 19.103 17.7101L19.4024 17.6029C19.4985 17.5548 19.5909 17.5031 19.6834 17.4513L19.9606 17.2998L20.2083 17.1038C20.8531 16.5905 21.3305 15.8969 21.5798 15.1113C21.1258 15.7332 20.5621 16.2669 19.9162 16.6861C19.293 17.0666 18.5763 17.2663 17.8461 17.2628C17.1127 17.2556 16.394 17.0568 15.7612 16.6861C15.0942 16.2944 14.5253 15.7558 14.0977 15.1113Z" fill="white"/>
</g>
<defs>
<clipPath id="clip0_249_69">
<rect width="41" height="98.0473" fill="white"/>
</clipPath>
</defs>
</svg>
