<svg width="175" height="175" viewBox="0 0 175 175" fill="none" xmlns="http://www.w3.org/2000/svg">
<g clip-path="url(#clip0_249_1145)">
<path d="M87.4973 174.995C135.821 174.995 174.995 135.821 174.995 87.4973C174.995 39.1739 135.821 0 87.4973 0C39.1739 0 0 39.1739 0 87.4973C0 135.821 39.1739 174.995 87.4973 174.995Z" fill="#AFAFAF"/>
<path d="M87.4971 151.775C122.997 151.775 151.775 122.997 151.775 87.4971C151.775 51.9971 122.997 23.2188 87.4971 23.2188C51.9971 23.2188 23.2188 51.9971 23.2188 87.4971C23.2188 122.997 51.9971 151.775 87.4971 151.775Z" fill="white"/>
<path d="M81.0918 131.423H72.7497V124.351C72.7497 122.517 72.7121 120.682 72.7497 118.848C72.7497 118.063 72.4593 117.896 71.7439 117.902C67.1453 117.902 62.5467 117.902 57.9481 117.902C56.6842 117.902 56.6788 117.902 56.6788 116.692V110.313C56.6788 109.151 56.6788 109.156 57.8889 109.162C59.5025 109.162 61.073 109.162 62.665 109.162C64.8917 109.162 66.075 108.054 66.1449 105.811C66.2256 103.407 66.1933 101.003 66.1933 98.5984C66.1933 88.7988 66.1933 79.0009 66.1933 69.2049C66.1933 66.3812 65.4188 65.5368 62.5844 65.44C60.632 65.3647 58.6796 65.3916 56.7272 65.44C56.0495 65.44 55.8451 65.2087 55.8559 64.5471C55.8881 62.2936 55.8935 60.04 55.8559 57.7864C55.8559 57.0173 56.1409 56.8182 56.8616 56.8236C61.7023 56.8236 66.5429 56.8236 71.3836 56.8236C72.2226 56.8236 72.5292 56.6408 72.5184 55.7479C72.47 52.0529 72.5184 48.3525 72.4754 44.6575C72.4754 43.7593 72.7712 43.5334 73.621 43.5818C75.724 43.6409 77.8324 43.6248 79.9354 43.5818C80.6023 43.5818 80.8067 43.8023 80.8013 44.4692C80.7744 48.2342 80.8013 52.0475 80.7744 55.834C80.7744 56.6031 80.9412 56.9097 81.7641 56.8559C82.9643 56.7887 84.1674 56.7887 85.3677 56.8559C86.2013 56.8989 86.3627 56.5601 86.3573 55.7802C86.325 52.0583 86.3573 48.331 86.3304 44.6037C86.3304 43.813 86.5671 43.5549 87.3577 43.571C89.4607 43.6194 91.5691 43.614 93.672 43.571C94.3874 43.571 94.5971 43.8184 94.5918 44.5176C94.5918 48.2826 94.5918 52.0475 94.5918 55.8125C94.5918 57.0065 94.5918 56.9904 95.7481 57.1248C100.815 57.7165 105.682 58.9535 109.883 62.0031C111.238 62.9341 112.378 64.1453 113.225 65.5548C114.073 66.9642 114.607 68.5391 114.793 70.173C115.41 75.2719 113.797 79.5137 109.953 82.8986C109.415 83.388 108.769 83.7914 108.06 84.3131C109.135 84.7595 110.103 85.0984 111.018 85.5663C113.705 86.9166 115.917 89.0542 117.358 91.6939C118.8 94.3337 119.402 97.3501 119.085 100.341C118.806 103.294 118.263 106.15 116.843 108.801C115.119 111.967 112.351 114.438 109.011 115.793C104.924 117.568 100.6 117.945 96.2268 117.977C94.5165 117.977 94.7477 117.934 94.7477 119.515C94.7477 123.033 94.7477 126.55 94.7477 130.063C94.7477 131.725 94.8768 131.531 93.3117 131.542C91.5099 131.542 89.7081 131.542 87.9009 131.542C86.6531 131.542 86.6424 131.542 86.6424 130.251C86.6424 126.523 86.6424 122.796 86.6424 119.074C86.6424 118.251 86.4111 117.929 85.5667 117.966C84.3673 118.02 83.1625 118.02 81.9631 117.966C81.2531 117.939 81.0326 118.181 81.038 118.891C81.0756 122.586 81.038 126.281 81.0649 129.982L81.0918 131.423ZM80.7906 99.4052C80.7906 102.094 80.7906 104.784 80.7906 107.43C80.7906 108.108 80.9896 108.307 81.6619 108.296C83.582 108.258 85.5075 108.323 87.4276 108.296C89.7619 108.231 92.1284 108.296 94.4197 107.919C98.7709 107.215 102.052 105.02 102.945 100.465C103.611 97.0386 103.187 94.4193 99.2711 92.397C97.2876 91.3805 95.0989 90.8287 92.8706 90.7834C89.1057 90.6705 85.3031 90.7189 81.5167 90.6705C80.8605 90.6705 80.8067 90.9932 80.8067 91.5149C80.8013 94.1235 80.7906 96.7643 80.7906 99.4052ZM80.7906 73.9703C80.7906 76.3422 80.8175 78.7195 80.7906 81.0914C80.7906 81.8713 80.9734 82.1294 81.7856 82.1133C84.7617 82.0667 87.7378 82.0667 90.7139 82.1133C92.5284 82.1453 94.2999 81.5592 95.7374 80.4513C99.0236 77.9987 100.04 72.787 97.8081 69.646C96.2591 67.4946 93.8818 66.6179 91.4238 66.3651C88.1483 66.0208 84.8298 66.08 81.5328 65.9402C80.8766 65.9402 80.8067 66.2521 80.8121 66.7792C80.8013 69.1619 80.7906 71.5661 80.7906 73.9703Z" fill="#0A93FD"/>
<path d="M88.0347 1.52734H86.959V13.8817H88.0347V1.52734Z" fill="white"/>
<path d="M88.0347 161.117H86.959V173.472H88.0347V161.117Z" fill="white"/>
<path d="M173.472 86.959H161.117V88.0347H173.472V86.959Z" fill="white"/>
<path d="M13.8817 86.959H1.52734V88.0347H13.8817V86.959Z" fill="white"/>
<path d="M147.91 26.3305L139.174 35.0664L139.934 35.827L148.67 27.0912L147.91 26.3305Z" fill="white"/>
<path d="M35.064 139.176L26.3281 147.912L27.0888 148.673L35.8246 139.937L35.064 139.176Z" fill="white"/>
<path d="M139.933 139.177L139.172 139.938L147.908 148.673L148.668 147.913L139.933 139.177Z" fill="white"/>
<path d="M27.0888 26.3253L26.3281 27.0859L35.064 35.8218L35.8246 35.0612L27.0888 26.3253Z" fill="white"/>
<path d="M110.509 4.66337L107.131 16.5469L108.166 16.841L111.544 4.95753L110.509 4.66337Z" fill="white"/>
<path d="M66.8374 158.163L63.459 170.047L64.4937 170.341L67.8721 158.458L66.8374 158.163Z" fill="white"/>
<path d="M158.456 107.127L158.162 108.162L170.045 111.543L170.339 110.508L158.456 107.127Z" fill="white"/>
<path d="M4.95254 63.4634L4.6582 64.498L16.5411 67.8785L16.8355 66.8439L4.95254 63.4634Z" fill="white"/>
<path d="M162.341 45.1772L151.547 51.1875L152.07 52.1273L162.864 46.1171L162.341 45.1772Z" fill="white"/>
<path d="M22.921 122.863L12.125 128.869L12.648 129.809L23.444 123.803L22.921 122.863Z" fill="white"/>
<path d="M123.793 151.553L122.854 152.076L128.866 162.869L129.805 162.346L123.793 151.553Z" fill="white"/>
<path d="M46.1292 12.1308L45.1895 12.6543L51.2016 23.4471L52.1413 22.9236L46.1292 12.1308Z" fill="white"/>
<path d="M130.906 13.3283L124.605 23.9531L125.531 24.5017L131.831 13.8769L130.906 13.3283Z" fill="white"/>
<path d="M49.5345 150.582L43.2363 161.211L44.1617 161.759L50.4599 151.131L49.5345 150.582Z" fill="white"/>
<path d="M151.124 124.551L150.576 125.477L161.207 131.771L161.755 130.845L151.124 124.551Z" fill="white"/>
<path d="M13.7961 43.2385L13.248 44.1641L23.8787 50.4585L24.4268 49.5329L13.7961 43.2385Z" fill="white"/>
<path d="M170.646 65.6449L158.678 68.709L158.945 69.7511L170.913 66.687L170.646 65.6449Z" fill="white"/>
<path d="M16.0446 105.254L4.07617 108.318L4.34296 109.36L16.3114 106.296L16.0446 105.254Z" fill="white"/>
<path d="M106.288 158.688L105.246 158.955L108.312 170.923L109.354 170.656L106.288 158.688Z" fill="white"/>
<path d="M66.6807 4.08655L65.6387 4.35352L68.7048 16.3214L69.7469 16.0544L66.6807 4.08655Z" fill="white"/>
</g>
<defs>
<clipPath id="clip0_249_1145">
<rect width="175" height="175" fill="white"/>
</clipPath>
</defs>
</svg>
