<svg width="293" height="145" viewBox="0 0 293 145" fill="none" xmlns="http://www.w3.org/2000/svg">
<g clip-path="url(#clip0_249_396)">
<path d="M61.8175 145C95.9584 145 123.635 117.277 123.635 83.0797C123.635 48.8819 95.9584 21.1592 61.8175 21.1592C27.6766 21.1592 0 48.8819 0 83.0797C0 117.277 27.6766 145 61.8175 145Z" fill="#AFAFAF"/>
<path d="M61.8177 128.569C86.8988 128.569 107.231 108.203 107.231 83.0799C107.231 57.957 86.8988 37.5908 61.8177 37.5908C36.7366 37.5908 16.4043 57.957 16.4043 83.0799C16.4043 108.203 36.7366 128.569 61.8177 128.569Z" fill="white"/>
<path d="M62.3042 22.2373H61.3301V30.9799H62.3042V22.2373Z" fill="white"/>
<path d="M62.3042 135.175H61.3301V143.917H62.3042V135.175Z" fill="white"/>
<path d="M122.558 82.5918H113.83V83.5682H122.558V82.5918Z" fill="white"/>
<path d="M9.80427 82.5918H1.07617V83.5682H9.80427V82.5918Z" fill="white"/>
<path d="M104.424 39.7135L98.252 45.8955L98.9408 46.5855L105.112 40.4035L104.424 39.7135Z" fill="white"/>
<path d="M24.6971 119.569L18.5254 125.751L19.2142 126.441L25.3859 120.259L24.6971 119.569Z" fill="white"/>
<path d="M98.9388 119.572L98.25 120.262L104.422 126.444L105.11 125.754L98.9388 119.572Z" fill="white"/>
<path d="M19.2161 39.7124L18.5273 40.4023L24.699 46.5843L25.3878 45.8944L19.2161 39.7124Z" fill="white"/>
<path d="M77.9688 24.4246L75.582 32.834L76.519 33.1008L78.9058 24.6914L77.9688 24.4246Z" fill="white"/>
<path d="M47.1192 133.062L44.7324 141.472L45.6694 141.739L48.0562 133.329L47.1192 133.062Z" fill="white"/>
<path d="M111.974 96.8607L111.707 97.7998L120.102 100.192L120.369 99.253L111.974 96.8607Z" fill="white"/>
<path d="M3.52649 65.9583L3.25977 66.8975L11.6552 69.2898L11.922 68.3507L3.52649 65.9583Z" fill="white"/>
<path d="M114.647 53.0542L107.02 57.3047L107.493 58.1573L115.12 53.9068L114.647 53.0542Z" fill="white"/>
<path d="M16.1427 108.008L8.51562 112.259L8.98922 113.111L16.6163 108.861L16.1427 108.008Z" fill="white"/>
<path d="M87.5522 128.361L86.7012 128.836L90.9486 136.474L91.7996 135.999L87.5522 128.361Z" fill="white"/>
<path d="M32.683 29.6922L31.832 30.167L36.0795 37.8046L36.9305 37.3297L32.683 29.6922Z" fill="white"/>
<path d="M92.346 30.4797L87.8965 38.001L88.7345 38.4984L93.184 30.9771L92.346 30.4797Z" fill="white"/>
<path d="M34.9046 127.672L30.4551 135.193L31.2931 135.691L35.7426 128.17L34.9046 127.672Z" fill="white"/>
<path d="M106.824 109.206L106.328 110.046L113.838 114.5L114.335 113.661L106.824 109.206Z" fill="white"/>
<path d="M9.79904 51.6633L9.30273 52.5029L16.813 56.9572L17.3093 56.1176L9.79904 51.6633Z" fill="white"/>
<path d="M120.538 67.5074L112.082 69.6758L112.324 70.6217L120.78 68.4533L120.538 67.5074Z" fill="white"/>
<path d="M11.3132 95.5396L2.85742 97.708L3.09918 98.6539L11.555 96.4855L11.3132 95.5396Z" fill="white"/>
<path d="M75.2034 133.426L74.2598 133.668L76.4259 142.137L77.3696 141.895L75.2034 133.426Z" fill="white"/>
<path d="M47.2151 24.0264L46.2715 24.2686L48.4376 32.7377L49.3813 32.4955L47.2151 24.0264Z" fill="white"/>
<path d="M45.2491 102.414C45.668 99.7311 46.0122 96.2233 46.2817 91.891L46.6129 91.5934H48.2738L48.566 91.9252C48.6439 95.7403 48.7186 97.9309 48.7901 98.4968C50.1447 99.8854 51.7197 101.039 53.4512 101.912C55.381 102.767 57.4793 103.172 59.5882 103.097V82.2165C57.486 81.934 55.4013 81.5333 53.3441 81.0164C51.7452 80.594 50.2586 79.8245 48.9898 78.7624C47.7365 77.7383 46.7559 76.4191 46.1356 74.9229C45.4964 73.2957 45.1836 71.5583 45.215 69.81C45.186 66.199 46.4334 62.6942 48.7365 59.916C51.0809 57.0083 54.6981 55.1739 59.5882 54.4128C59.5882 52.0466 59.5151 50.5098 59.442 49.7585L59.8122 49.4268H62.4277L62.7979 49.7585C62.7492 49.9585 62.7005 51.4563 62.6518 54.2664C68.5971 54.7283 72.6998 55.7366 74.9597 57.2912L75.1107 57.7791C74.911 58.5402 74.76 59.2427 74.6237 59.9355C74.4873 60.6283 74.4094 61.5552 74.3119 62.7603L74.0343 66.5949L73.7421 66.9316H72.2809L71.9838 66.634C71.9245 64.5903 71.7161 62.5537 71.3604 60.5404C69.3212 58.2279 66.4216 57.0343 62.6615 56.9595V76.4743C65.0871 76.7806 67.4925 77.2302 69.8651 77.8208C71.5419 78.2485 73.1221 78.9919 74.5214 80.0114C75.8091 80.9632 76.8251 82.2366 77.4681 83.7045C78.1352 85.2875 78.4669 86.992 78.4422 88.7101C78.4751 91.5046 77.8157 94.2637 76.5232 96.7404C75.3457 99.0529 73.6094 101.034 71.4724 102.502C69.3878 103.917 66.4524 105.005 62.6664 105.766C62.7151 109.532 62.7881 111.972 62.8855 113.084L62.5543 113.416H59.8268L59.4566 113.084C59.5054 112.271 59.5541 109.884 59.6028 105.922C54.7702 105.903 49.9923 104.897 45.5609 102.966L45.2491 102.414ZM59.5882 57.1058C58.1545 57.2468 56.7608 57.6607 55.4822 58.3255C54.1451 59.1124 53.0525 60.2559 52.3261 61.6284C51.3652 63.4116 50.8945 65.4186 50.9623 67.4438C50.9623 70.5727 51.8114 72.7275 53.5097 73.9081C55.3194 75.1315 57.4123 75.869 59.5882 76.0499V57.1058ZM62.6518 102.941C64.0017 102.931 65.3329 102.624 66.5521 102.043C67.7713 101.463 68.8488 100.622 69.7092 99.5799C71.5856 97.3549 72.576 94.5145 72.4903 91.6032C72.4903 89.1443 71.8085 87.1749 70.4447 85.6951C69.0809 84.2152 66.4833 83.1825 62.6518 82.5971V102.941Z" fill="#0A93FD"/>
<path d="M129.88 145C158.42 145 181.557 121.825 181.557 93.2367C181.557 64.6487 158.42 41.4736 129.88 41.4736C101.34 41.4736 78.2031 64.6487 78.2031 93.2367C78.2031 121.825 101.34 145 129.88 145Z" fill="#AFAFAF"/>
<path d="M129.879 131.262C150.845 131.262 167.841 114.238 167.841 93.2375C167.841 72.2371 150.845 55.2129 129.879 55.2129C108.914 55.2129 91.918 72.2371 91.918 93.2375C91.918 114.238 108.914 131.262 129.879 131.262Z" fill="white"/>
<path d="M130.367 42.377H129.393V49.6853H130.367V42.377Z" fill="white"/>
<path d="M130.367 136.789H129.393V144.097H130.367V136.789Z" fill="white"/>
<path d="M180.654 92.749H173.357V93.7255H180.654V92.749Z" fill="white"/>
<path d="M86.3997 92.749H79.1035V93.7255H86.3997V92.749Z" fill="white"/>
<path d="M165.44 56.926L160.281 62.0938L160.97 62.7837L166.129 57.616L165.44 56.926Z" fill="white"/>
<path d="M98.79 123.689L93.6309 128.856L94.3197 129.546L99.4788 124.379L98.79 123.689Z" fill="white"/>
<path d="M160.97 123.688L160.281 124.378L165.44 129.546L166.129 128.856L160.97 123.688Z" fill="white"/>
<path d="M94.3197 56.9263L93.6309 57.6162L98.79 62.784L99.4788 62.094L94.3197 56.9263Z" fill="white"/>
<path d="M143.302 44.189L141.307 51.2188L142.244 51.4856L144.239 44.4558L143.302 44.189Z" fill="white"/>
<path d="M117.515 134.997L115.52 142.026L116.457 142.293L118.452 135.263L117.515 134.997Z" fill="white"/>
<path d="M171.839 104.684L171.572 105.623L178.59 107.623L178.857 106.684L171.839 104.684Z" fill="white"/>
<path d="M81.1769 78.846L80.9102 79.7852L87.9282 81.785L88.195 80.8459L81.1769 78.846Z" fill="white"/>
<path d="M174.001 68.0709L167.625 71.624L168.099 72.4767L174.474 68.9235L174.001 68.0709Z" fill="white"/>
<path d="M91.657 114.015L85.2812 117.568L85.7548 118.421L92.1306 114.868L91.657 114.015Z" fill="white"/>
<path d="M151.464 131.052L150.613 131.526L154.164 137.911L155.015 137.436L151.464 131.052Z" fill="white"/>
<path d="M105.595 48.572L104.744 49.0469L108.295 55.4314L109.146 54.9566L105.595 48.572Z" fill="white"/>
<path d="M155.333 49.2342L151.613 55.5215L152.451 56.0189L156.171 49.7316L155.333 49.2342Z" fill="white"/>
<path d="M107.315 130.474L103.596 136.762L104.434 137.259L108.153 130.972L107.315 130.474Z" fill="white"/>
<path d="M167.545 115.021L167.049 115.86L173.327 119.584L173.823 118.744L167.545 115.021Z" fill="white"/>
<path d="M86.4377 66.9114L85.9414 67.751L92.2196 71.4745L92.7159 70.6349L86.4377 66.9114Z" fill="white"/>
<path d="M178.945 80.1493L171.877 81.9619L172.119 82.9078L179.187 81.0952L178.945 80.1493Z" fill="white"/>
<path d="M87.6369 103.581L80.5684 105.394L80.8101 106.339L87.8786 104.527L87.6369 103.581Z" fill="white"/>
<path d="M141.151 135.292L140.207 135.534L142.019 142.614L142.963 142.371L141.151 135.292Z" fill="white"/>
<path d="M117.746 43.8387L116.803 44.0811L118.615 51.1604L119.558 50.9181L117.746 43.8387Z" fill="white"/>
<path d="M116.027 109.4C116.378 107.156 116.665 104.229 116.889 100.619L117.167 100.37H118.555L118.803 100.648C118.862 103.838 118.923 105.67 118.988 106.141C120.119 107.309 121.436 108.28 122.885 109.015C124.499 109.723 126.252 110.057 128.014 109.991V92.515C126.256 92.2875 124.513 91.9617 122.792 91.5393C121.458 91.1826 120.216 90.5401 119.154 89.6561C118.106 88.7997 117.286 87.6969 116.767 86.4459C116.234 85.0839 115.972 83.6302 115.998 82.1673C115.962 79.1435 116.998 76.205 118.92 73.8735C120.868 71.4439 123.893 69.9103 127.994 69.2729C127.994 67.297 127.936 66.0041 127.872 65.3699L128.179 65.0918H130.366L130.678 65.3699C130.634 65.5358 130.595 66.7896 130.551 69.1362C135.526 69.5265 138.956 70.3706 140.843 71.6683L140.969 72.0683C140.804 72.7075 140.677 73.3075 140.585 73.8735C140.492 74.4394 140.404 75.2249 140.322 76.2348L140.073 79.4449L139.83 79.723H138.617L138.368 79.4742C138.316 77.7722 138.139 76.0763 137.838 74.4004C136.133 72.4489 133.709 71.4504 130.566 71.4048V87.6997C132.595 87.9559 134.606 88.3322 136.591 88.8267C137.996 89.1884 139.319 89.8178 140.487 90.6806C141.562 91.4764 142.412 92.5391 142.952 93.764C143.503 95.0892 143.775 96.5143 143.75 97.9499C143.777 100.286 143.226 102.592 142.148 104.663C141.163 106.595 139.711 108.25 137.925 109.478C136.182 110.659 133.727 111.57 130.561 112.21C130.606 115.355 130.668 117.392 130.746 118.318L130.468 118.597H128.189L127.882 118.318C127.921 117.639 127.962 115.643 128.004 112.332C123.964 112.316 119.971 111.476 116.266 109.864L116.027 109.4ZM128.014 71.5268C126.823 71.6464 125.666 71.9925 124.604 72.5465C123.487 73.2038 122.574 74.16 121.969 75.3078C121.162 76.8032 120.768 78.4876 120.829 80.1865C120.829 82.7885 121.537 84.5887 122.953 85.5872C124.468 86.6083 126.218 87.2246 128.038 87.3777L128.014 71.5268ZM130.571 109.83C131.7 109.823 132.813 109.569 133.834 109.084C134.854 108.599 135.755 107.896 136.474 107.024C138.046 105.165 138.878 102.791 138.812 100.355C138.812 98.2963 138.24 96.6505 137.097 95.4178C135.954 94.1851 133.782 93.3216 130.58 92.8272L130.571 109.83Z" fill="#0A93FD"/>
<path d="M198.687 144.995C221.403 144.995 239.819 126.549 239.819 103.794C239.819 81.0399 221.403 62.5938 198.687 62.5938C175.97 62.5938 157.555 81.0399 157.555 103.794C157.555 126.549 175.97 144.995 198.687 144.995Z" fill="#AFAFAF"/>
<path d="M198.686 134.063C215.374 134.063 228.903 120.512 228.903 103.796C228.903 87.0795 215.374 73.5283 198.686 73.5283C181.997 73.5283 168.469 87.0795 168.469 103.796C168.469 120.512 181.997 134.063 198.686 134.063Z" fill="white"/>
<path d="M199.173 63.3115H198.199V69.1318H199.173V63.3115Z" fill="white"/>
<path d="M199.173 138.463H198.199V144.278H199.173V138.463Z" fill="white"/>
<path d="M239.102 103.312H233.291V104.289H239.102V103.312Z" fill="white"/>
<path d="M164.075 103.312H158.27V104.289H164.075V103.312Z" fill="white"/>
<path d="M226.921 74.8278L222.812 78.9434L223.501 79.6333L227.61 75.5177L226.921 74.8278Z" fill="white"/>
<path d="M173.867 127.961L169.758 132.076L170.447 132.766L174.555 128.651L173.867 127.961Z" fill="white"/>
<path d="M223.501 127.962L222.812 128.652L226.921 132.768L227.61 132.078L223.501 127.962Z" fill="white"/>
<path d="M170.452 74.8227L169.764 75.5127L173.872 79.6283L174.561 78.9383L170.452 74.8227Z" fill="white"/>
<path d="M209.281 64.7305L207.693 70.3242L208.63 70.591L210.218 64.9973L209.281 64.7305Z" fill="white"/>
<path d="M188.747 137.011L187.158 142.609L188.095 142.876L189.684 137.278L188.747 137.011Z" fill="white"/>
<path d="M232.105 112.815L231.838 113.754L237.422 115.345L237.689 114.406L232.105 112.815Z" fill="white"/>
<path d="M159.948 92.2542L159.682 93.1934L165.271 94.786L165.538 93.8469L159.948 92.2542Z" fill="white"/>
<path d="M233.76 83.6766L228.682 86.5068L229.156 87.36L234.234 84.5298L233.76 83.6766Z" fill="white"/>
<path d="M168.217 120.252L163.139 123.082L163.613 123.935L168.691 121.105L168.217 120.252Z" fill="white"/>
<path d="M215.951 133.846L215.1 134.321L217.927 139.406L218.778 138.931L215.951 133.846Z" fill="white"/>
<path d="M179.443 68.1961L178.592 68.6709L181.419 73.7555L182.27 73.2807L179.443 68.1961Z" fill="white"/>
<path d="M218.865 68.7213L215.902 73.7285L216.74 74.2259L219.703 69.2188L218.865 68.7213Z" fill="white"/>
<path d="M180.644 133.389L177.682 138.396L178.52 138.894L181.482 133.887L180.644 133.389Z" fill="white"/>
<path d="M228.719 121.052L228.223 121.892L233.223 124.857L233.719 124.017L228.719 121.052Z" fill="white"/>
<path d="M164.162 82.7678L163.666 83.6074L168.666 86.5728L169.162 85.7332L164.162 82.7678Z" fill="white"/>
<path d="M237.712 93.2852L232.088 94.7275L232.33 95.6734L237.954 94.2311L237.712 93.2852Z" fill="white"/>
<path d="M165.039 111.937L159.41 113.381L159.652 114.327L165.281 112.883L165.039 111.937Z" fill="white"/>
<path d="M207.742 137.26L206.799 137.502L208.241 143.14L209.185 142.898L207.742 137.26Z" fill="white"/>
<path d="M189.127 64.4688L188.184 64.7109L189.624 70.3444L190.568 70.1022L189.127 64.4688Z" fill="white"/>
<path d="M187.659 116.665C187.935 114.879 188.164 112.544 188.346 109.659L188.565 109.464H189.67L189.865 109.683C189.914 112.223 189.963 113.687 190.011 114.074C190.913 115.003 191.963 115.775 193.119 116.357C194.402 116.926 195.798 117.194 197.2 117.143V103.238C195.8 103.052 194.411 102.785 193.041 102.438C191.978 102.158 190.99 101.647 190.148 100.941C189.313 100.26 188.66 99.381 188.248 98.3841C187.82 97.2977 187.611 96.1369 187.635 94.9691C187.614 92.5653 188.444 90.232 189.977 88.3828C191.536 86.4508 193.944 85.2312 197.2 84.7238C197.2 83.1528 197.168 82.1202 197.103 81.6258L197.346 81.4062H199.09L199.334 81.6258C199.3 81.7575 199.27 82.7577 199.236 84.6262C203.191 84.9514 205.922 85.6231 207.429 86.6411L207.526 86.9582C207.395 87.4461 207.292 87.934 207.219 88.3974C207.146 88.8609 207.078 89.4756 207.01 90.2757L206.815 92.8322L206.62 93.0517H205.646L205.451 92.8566C205.413 91.4966 205.273 90.1413 205.032 88.8024C203.678 87.2607 201.75 86.4655 199.246 86.4167V99.3892C200.86 99.5929 202.46 99.8926 204.039 100.287C205.158 100.572 206.213 101.069 207.146 101.75C207.997 102.379 208.669 103.22 209.094 104.19C209.537 105.242 209.754 106.376 209.732 107.517C209.758 109.384 209.32 111.229 208.456 112.884C207.673 114.42 206.52 115.737 205.1 116.713C203.707 117.657 201.759 118.382 199.256 118.889C199.29 121.392 199.339 123.017 199.402 123.768L199.183 123.988H197.366L197.122 123.768C197.157 123.227 197.186 121.636 197.22 119.002C194.004 118.994 190.824 118.33 187.873 117.05L187.659 116.665ZM197.2 86.5191C196.244 86.6079 195.314 86.8831 194.463 87.329C193.576 87.8525 192.85 88.6125 192.369 89.5244C191.729 90.7123 191.417 92.0493 191.463 93.3981C191.463 95.4764 192.026 96.9092 193.153 97.6962C194.359 98.5082 195.752 98.9985 197.2 99.1208V86.5191ZM199.236 117.006C200.134 117 201.02 116.797 201.831 116.411C202.643 116.025 203.359 115.465 203.932 114.772C205.182 113.292 205.843 111.402 205.787 109.464C205.856 108.026 205.368 106.617 204.423 105.531C203.518 104.556 201.788 103.868 199.236 103.468V117.006Z" fill="#0A93FD"/>
<path d="M293.001 89.6377H250.816L271.906 126.228L293.001 89.6377Z" fill="#0A93FD"/>
<path d="M273.367 93.9541L268.01 93.8712L268.424 67.8774L61.7207 5.13728L63.2744 0L273.845 63.9159L273.367 93.9541Z" fill="#0A93FD"/>
</g>
<defs>
<clipPath id="clip0_249_396">
<rect width="293" height="145" fill="white"/>
</clipPath>
</defs>
</svg>
