<svg width="92" height="210" viewBox="0 0 92 210" fill="none" xmlns="http://www.w3.org/2000/svg">
<g clip-path="url(#clip0_249_913)" filter="url(#filter0_dd_249_913)">
<path d="M26.5921 89.4653C21.4406 89.4686 16.3606 88.2566 11.7628 85.9273L11.5356 85.8058L7.74873 83.7256C6.91377 83.2639 6.17769 82.642 5.58251 81.8952C4.98733 81.1484 4.54471 80.2914 4.27992 79.3731C4.01514 78.4548 3.93337 77.4933 4.03929 76.5433C4.14521 75.5934 4.43674 74.6736 4.89724 73.8366C5.35773 72.9996 5.97817 72.2617 6.72314 71.6651C7.46811 71.0685 8.32302 70.6247 9.23905 70.3593C10.1551 70.0939 11.1143 70.0119 12.0619 70.1181C13.0095 70.2243 13.927 70.5165 14.762 70.9781L18.4125 72.9901C22.7836 75.1468 27.8206 75.5129 32.4563 74.0106C37.092 72.5084 40.9621 69.2559 43.2467 64.9423L48.4347 55.0344C49.3296 53.3228 50.866 52.0377 52.7061 51.4618C54.5461 50.8858 56.5391 51.0662 58.2464 51.9633C59.9538 52.8603 61.2358 54.4006 61.8103 56.2451C62.3848 58.0897 62.2049 60.0875 61.31 61.7991L56.1144 71.669C53.2775 77.0499 49.0281 81.5515 43.8252 84.6879C38.6222 87.8243 32.6633 89.4762 26.5921 89.4653Z" fill="#AFAFAF"/>
<path d="M82.3341 55.5047C82.4487 54.3827 82.3218 53.2491 81.9618 52.1806C81.6019 51.112 81.0173 50.1333 80.2477 49.3107C79.478 48.488 78.5412 47.8406 77.5004 47.412C76.4597 46.9835 75.3394 46.7839 74.2151 46.8267C72.6233 46.9264 71.0519 47.2378 69.5421 47.753C65.8679 48.8579 62.0786 49.533 58.2497 49.7649C53.2586 49.6055 48.1615 49.2031 43.7536 47.753C42.2438 47.2378 40.6724 46.9264 39.0807 46.8267C37.9564 46.7839 36.836 46.9835 35.7953 47.412C34.7546 47.8406 33.8177 48.488 33.0481 49.3107C32.2784 50.1333 31.6939 51.112 31.3339 52.1806C30.974 53.2491 30.847 54.3827 30.9616 55.5047L31.2646 58.5416H30.9086L32.7112 72.686L38.0809 115.248L79.4712 116.099L78.9108 89.1005H78.9638L82.3341 55.5047Z" fill="#AFAFAF"/>
<path d="M88.0006 193.923L77.7913 97.2435C77.5966 95.1511 76.5946 93.2177 74.9989 91.8549C73.4032 90.4921 71.3398 89.8076 69.2481 89.9473C68.2058 90.0383 67.192 90.3367 66.2659 90.8248C65.3398 91.313 64.52 91.9813 63.8544 92.7906C63.1888 93.5999 62.6908 94.534 62.3893 95.5384C62.0878 96.5428 61.989 97.5973 62.0986 98.6404L71.187 184.957L62.5303 185.587C61.4969 185.637 60.4834 185.89 59.5477 186.333C58.612 186.775 57.7724 187.398 57.0769 188.166C56.3814 188.934 55.8435 189.831 55.494 190.807C55.1444 191.784 54.9901 192.819 55.0399 193.855C55.0896 194.891 55.3424 195.907 55.7838 196.845C56.2252 197.783 56.8466 198.625 57.6124 199.322C58.3783 200.019 59.2737 200.558 60.2474 200.909C61.2212 201.259 62.2543 201.414 63.2876 201.364L82.6082 200.248C83.3834 200.207 84.1421 200.008 84.8383 199.664C85.5345 199.32 86.1536 198.837 86.658 198.245C87.1624 197.654 87.5415 196.966 87.7723 196.223C88.0031 195.48 88.0808 194.697 88.0006 193.923Z" fill="#AFAFAF"/>
<path d="M39.0369 199.986C40.4102 199.947 41.7234 199.413 42.737 198.484C43.7506 197.554 44.397 196.29 44.5582 194.922L55.5476 101.082C55.7917 99.0018 55.2014 96.9097 53.9068 95.2659C52.6121 93.6221 50.7191 92.5612 48.6442 92.3165C46.5692 92.0719 44.4823 92.6636 42.8425 93.9614C41.2027 95.2592 40.1444 97.1569 39.9003 99.2369L29.9257 184.491L21.1402 184.733C20.0958 184.766 19.0681 185.005 18.1168 185.439C17.1655 185.872 16.3096 186.491 15.5986 187.259C14.8877 188.027 14.336 188.928 13.9755 189.911C13.6149 190.895 13.4527 191.94 13.4984 192.986C13.635 195.081 14.5822 197.04 16.1384 198.446C17.6945 199.851 19.7365 200.592 21.8294 200.51L39.0369 199.986Z" fill="#AFAFAF"/>
<path d="M54.5096 43.5789C42.5048 43.5789 32.773 33.8233 32.773 21.7891C32.773 9.7549 42.5048 -0.000732422 54.5096 -0.000732422C66.5143 -0.000732422 76.2461 9.7549 76.2461 21.7891C76.2461 33.8233 66.5143 43.5789 54.5096 43.5789Z" fill="#AFAFAF"/>
<path d="M32.0596 96.9802C30.4082 96.4367 29.0064 95.3169 28.1091 93.8247C27.2118 92.3324 26.8787 90.5669 27.1704 88.8492C27.4621 87.1315 28.3592 85.5759 29.6985 84.4653C31.0378 83.3548 32.7303 82.7631 34.4681 82.7979L48.7218 83.0484C53.6133 83.1153 58.337 81.2618 61.8835 77.8839C65.43 74.5061 67.5181 69.8718 67.7015 64.9712L68.0802 53.7878C68.1445 51.8598 68.9701 50.0363 70.3756 48.7186C71.781 47.4008 73.6511 46.6967 75.5744 46.7611C77.4977 46.8256 79.3167 47.6533 80.6312 49.0622C81.9457 50.471 82.6481 52.3457 82.5838 54.2737L82.2127 65.4647C81.8815 74.1743 78.1678 82.4092 71.864 88.4121C65.5602 94.415 57.1657 97.7105 48.4719 97.5952L34.2257 97.3447C33.4891 97.338 32.7581 97.215 32.0596 96.9802Z" fill="#AFAFAF"/>
<path d="M49.0743 98.3655C67.4709 98.3655 82.8228 83.7731 83.459 65.5593L81.9442 65.5061C81.3611 82.9076 66.6832 96.847 49.0971 96.847H48.5139L34.2299 96.5889C33.5732 96.5798 32.9219 96.4697 32.2986 96.2624C30.8187 95.7754 29.5626 94.7718 28.759 93.4344C27.9553 92.0969 27.6576 90.5146 27.9201 88.9756C28.1825 87.4365 28.9877 86.0432 30.1889 85.0493C31.3901 84.0554 32.9075 83.5271 34.4647 83.5606L48.7184 83.8111H49.0516C54.0816 83.7894 58.9088 81.821 62.5258 78.3169C66.1427 74.8128 68.2698 70.0437 68.463 65.005L66.9483 64.9519C66.7725 69.5991 64.8125 73.9985 61.4776 77.2312C58.1426 80.464 53.6907 82.2801 49.0516 82.3002H48.7411L34.4874 82.0497C32.5741 82.0216 30.7139 82.6802 29.2425 83.9065C27.7712 85.1327 26.7856 86.8459 26.4638 88.7367C26.1419 90.6276 26.505 92.5714 27.4875 94.2174C28.47 95.8634 30.0071 97.1031 31.8214 97.7126C32.5926 97.9635 33.3965 98.0991 34.2072 98.115L48.4609 98.3655H49.0743Z" fill="white"/>
<path d="M42.1322 47.3667C40.4307 46.4672 38.4426 46.2818 36.6048 46.8513C34.7671 47.4208 33.2301 48.6985 32.3318 50.4036L27.1362 60.2735C25.1217 64.1097 21.8313 67.1181 17.8357 68.7769L17.8812 70.5003C17.9796 74.957 18.0857 79.4213 18.2523 83.8703C22.8645 82.7839 27.191 80.7195 30.9404 77.816C34.6899 74.9126 37.7753 71.2375 39.9888 67.0383L45.1768 57.1683C46.0658 55.4631 46.2445 53.4742 45.6739 51.6372C45.1032 49.8001 43.8297 48.2645 42.1322 47.3667Z" fill="#AFAFAF"/>
<path d="M48.5278 81.9424H10.5684L10.5684 49.9409L48.5278 49.9409L48.5278 81.9424Z" fill="#0A93FD"/>
<path d="M48.5278 59.5679L10.5684 59.5679L10.5684 49.9485L48.5278 49.9485V59.5679Z" fill="white"/>
<path d="M49.3913 57.2671L9.70508 57.2671L9.70508 49.9405L49.3913 49.9405V57.2671Z" fill="#0A93FD"/>
<path d="M34.3636 64.938H25.6387L25.6387 49.8521H34.3636V64.938Z" fill="white"/>
<path d="M60.8726 21.8336C59.5801 21.8336 58.5323 20.5759 58.5323 19.0245C58.5323 17.473 59.5801 16.2153 60.8726 16.2153C62.1651 16.2153 63.2129 17.473 63.2129 19.0245C63.2129 20.5759 62.1651 21.8336 60.8726 21.8336Z" fill="white"/>
<path d="M42.2613 21.8336C40.9688 21.8336 39.921 20.5759 39.921 19.0245C39.921 17.473 40.9688 16.2153 42.2613 16.2153C43.5538 16.2153 44.6016 17.473 44.6016 19.0245C44.6016 20.5759 43.5538 21.8336 42.2613 21.8336Z" fill="white"/>
<path d="M59.1152 31.0352C58.6704 32.6761 57.6889 34.1198 56.3281 35.135C54.9307 36.1933 53.2322 36.7759 51.4809 36.7977C51.0291 36.8106 50.5771 36.775 50.1328 36.6914L49.4891 36.5699C49.2754 36.518 49.0654 36.4521 48.8604 36.3725L48.247 36.1523C48.05 36.0536 47.8607 35.9474 47.6714 35.8411L47.1033 35.5298L46.5959 35.1274C45.2748 34.0732 44.2967 32.6486 43.786 31.0352C44.716 32.3124 45.871 33.4086 47.1942 34.2695C48.4711 35.0509 49.9395 35.461 51.4355 35.4539C52.938 35.4391 54.4105 35.0308 55.7071 34.2695C57.0735 33.4649 58.2391 32.3588 59.1152 31.0352Z" fill="white"/>
</g>
<defs>
<filter id="filter0_dd_249_913" x="0" y="0" width="92" height="209.37" filterUnits="userSpaceOnUse" color-interpolation-filters="sRGB">
<feFlood flood-opacity="0" result="BackgroundImageFix"/>
<feColorMatrix in="SourceAlpha" type="matrix" values="0 0 0 0 0 0 0 0 0 0 0 0 0 0 0 0 0 0 127 0" result="hardAlpha"/>
<feOffset dy="4"/>
<feGaussianBlur stdDeviation="2"/>
<feComposite in2="hardAlpha" operator="out"/>
<feColorMatrix type="matrix" values="0 0 0 0 0 0 0 0 0 0 0 0 0 0 0 0 0 0 0.25 0"/>
<feBlend mode="normal" in2="BackgroundImageFix" result="effect1_dropShadow_249_913"/>
<feColorMatrix in="SourceAlpha" type="matrix" values="0 0 0 0 0 0 0 0 0 0 0 0 0 0 0 0 0 0 127 0" result="hardAlpha"/>
<feOffset dy="4"/>
<feGaussianBlur stdDeviation="2"/>
<feComposite in2="hardAlpha" operator="out"/>
<feColorMatrix type="matrix" values="0 0 0 0 0 0 0 0 0 0 0 0 0 0 0 0 0 0 0.25 0"/>
<feBlend mode="normal" in2="effect1_dropShadow_249_913" result="effect2_dropShadow_249_913"/>
<feBlend mode="normal" in="SourceGraphic" in2="effect2_dropShadow_249_913" result="shape"/>
</filter>
<clipPath id="clip0_249_913">
<rect width="84" height="201.37" fill="white" transform="matrix(-1 0 0 1 88 0)"/>
</clipPath>
</defs>
</svg>
