<svg width="202" height="175" viewBox="0 0 202 175" fill="none" xmlns="http://www.w3.org/2000/svg">
<g clip-path="url(#clip0_249_850)">
<path d="M8.1117 118.478C6.61 118.394 5.18051 117.806 4.05372 116.809C2.92693 115.812 2.16849 114.464 1.90069 112.984C-1.32023 95.0819 -0.429107 77.6152 4.62774 61.0508C5.6638 49.7716 14.2529 41.8224 24.9356 42.4186L51.4868 43.9064L57.0804 42.1393C67.8495 38.7181 77.1728 31.8051 83.5779 22.492L91.2598 11.2772C92.2656 9.80997 93.8128 8.80263 95.561 8.47678C97.3092 8.15092 99.1152 8.53326 100.582 9.53966C102.048 10.5461 103.055 12.0941 103.381 13.8432C103.706 15.5924 103.324 17.3993 102.318 18.8665L94.631 30.0759C86.5256 41.8524 74.7326 50.5942 61.1119 54.9225L53.1831 57.4254L24.1948 55.8141C19.9003 55.5724 18.1341 59.3643 17.9516 62.689L17.9033 63.5215L17.651 64.3218C13.0451 79.0117 12.1862 94.5824 15.0904 110.594C15.4086 112.339 15.0222 114.139 14.016 115.6C13.0097 117.061 11.4656 118.063 9.72216 118.387C9.19116 118.484 8.65023 118.514 8.1117 118.478Z" fill="#0A93FD"/>
<path d="M14.9023 174.995L19.7981 87.2638C19.8471 86.3846 20.0687 85.5236 20.4503 84.7301C20.8318 83.9366 21.3658 83.226 22.0218 82.639C22.6778 82.052 23.443 81.6 24.2736 81.3088C25.1042 81.0176 25.984 80.893 26.8627 80.942C27.7414 80.9911 28.6019 81.2128 29.395 81.5945C30.1881 81.9763 30.8983 82.5106 31.485 83.1669C32.0717 83.8233 32.5235 84.5888 32.8145 85.4199C33.1055 86.2509 33.2301 87.1312 33.1811 88.0104L29.0744 161.594H40.3476C42.1273 161.594 43.8341 162.301 45.0925 163.56C46.3509 164.819 47.0579 166.527 47.0579 168.308C47.0579 170.088 46.3509 171.796 45.0925 173.055C43.8341 174.314 42.1273 175.022 40.3476 175.022L14.9023 174.995Z" fill="#0A93FD"/>
<path d="M52.8068 173.071L38.8495 89.8195C38.7029 88.9509 38.7287 88.0619 38.9254 87.2032C39.1222 86.3446 39.486 85.5331 39.9962 84.8151C41.0266 83.3652 42.5905 82.3841 44.3438 82.0879C46.0972 81.7916 47.8963 82.2043 49.3455 83.2352C50.0631 83.7457 50.6731 84.3926 51.1408 85.1389C51.6085 85.8853 51.9247 86.7165 52.0714 87.5851L64.1122 159.428L71.5848 159.267C73.3644 159.23 75.0862 159.901 76.3713 161.133C77.6564 162.366 78.3996 164.058 78.4373 165.839C78.475 167.619 77.8042 169.342 76.5725 170.628C75.3408 171.914 73.649 172.657 71.8693 172.695L52.8068 173.071Z" fill="#0A93FD"/>
<path d="M19.1433 103.544L17.8066 54.5171L57.9984 52.6855L54.2782 101.09L19.1433 103.544Z" fill="#0A93FD"/>
<path d="M37.824 39.9705C48.0347 39.9705 56.3121 31.6887 56.3121 21.4726C56.3121 11.2564 48.0347 2.97461 37.824 2.97461C27.6133 2.97461 19.3359 11.2564 19.3359 21.4726C19.3359 31.6887 27.6133 39.9705 37.824 39.9705Z" fill="#0A93FD"/>
<path d="M195.053 113.924C196.544 113.759 197.937 113.097 199.008 112.045C200.078 110.994 200.765 109.613 200.958 108.124C203.32 90.0876 201.543 72.6746 195.67 56.3896C194.06 45.1855 185.111 37.6661 174.471 38.7886L148.028 41.5816L142.359 40.0884C131.433 37.2045 121.777 30.7623 114.917 21.7784L106.714 10.9611C105.638 9.5466 104.044 8.61782 102.283 8.37909C100.522 8.14037 98.7387 8.61126 97.3249 9.68818C95.9112 10.7651 94.9829 12.3598 94.7443 14.1215C94.5057 15.8833 94.9763 17.6676 96.0527 19.0822L104.282 29.8995C112.958 41.2606 125.166 49.409 138.982 53.0595L147.034 55.1704L175.905 52.0981C180.199 51.6469 182.132 55.3207 182.481 58.6562L182.572 59.4887L182.862 60.2729C188.182 74.721 189.814 90.2273 187.693 106.362C187.566 107.366 187.668 108.385 187.99 109.344C188.313 110.303 188.847 111.177 189.555 111.9C190.262 112.623 191.123 113.177 192.074 113.52C193.026 113.863 194.042 113.987 195.048 113.881L195.053 113.924Z" fill="#AFAFAF"/>
<path d="M191.06 170.703L181.843 83.3212C181.636 81.5708 180.747 79.9727 179.37 78.8729C177.993 77.7731 176.239 77.2602 174.487 77.4453C172.735 77.6303 171.126 78.4984 170.009 79.8616C168.892 81.2247 168.357 82.9732 168.519 84.7285L176.244 158.017L164.998 158.554C164.119 158.597 163.258 158.814 162.462 159.191C161.667 159.568 160.954 160.098 160.364 160.75C159.773 161.403 159.317 162.165 159.021 162.994C158.725 163.823 158.595 164.703 158.639 165.582C158.683 166.461 158.899 167.323 159.276 168.118C159.653 168.914 160.182 169.628 160.834 170.218C161.487 170.809 162.249 171.266 163.077 171.562C163.906 171.858 164.785 171.988 165.663 171.944L191.06 170.703Z" fill="#AFAFAF"/>
<path d="M153.106 170.656L162.94 86.803C163.148 85.0374 162.645 83.2617 161.544 81.8666C160.999 81.1758 160.323 80.5993 159.555 80.1699C158.786 79.7405 157.941 79.4667 157.068 79.3641C155.303 79.1568 153.528 79.6595 152.134 80.7614C150.74 81.8634 149.84 83.4744 149.633 85.24L141.146 157.583L133.673 157.798C132.794 157.823 131.928 158.021 131.125 158.381C130.322 158.741 129.598 159.255 128.993 159.895C128.389 160.535 127.917 161.288 127.604 162.11C127.29 162.933 127.142 163.809 127.167 164.689C127.192 165.569 127.39 166.435 127.749 167.238C128.109 168.042 128.623 168.766 129.263 169.371C129.903 169.975 130.655 170.448 131.477 170.761C132.299 171.075 133.175 171.224 134.054 171.199L153.106 170.656Z" fill="#AFAFAF"/>
<path d="M183.298 99.5461L182.219 50.5137L141.984 50.6694L148.088 98.8318L183.298 99.5461Z" fill="#AFAFAF"/>
<path d="M160.596 36.9959C170.806 36.9959 179.084 28.7141 179.084 18.4979C179.084 8.28181 170.806 0 160.596 0C150.385 0 142.107 8.28181 142.107 18.4979C142.107 28.7141 150.385 36.9959 160.596 36.9959Z" fill="#AFAFAF"/>
<path d="M34.3466 22.2734C35.3784 22.2734 36.2148 21.2682 36.2148 20.0283C36.2148 18.7884 35.3784 17.7832 34.3466 17.7832C33.3149 17.7832 32.4785 18.7884 32.4785 20.0283C32.4785 21.2682 33.3149 22.2734 34.3466 22.2734Z" fill="white"/>
<path d="M49.2275 22.2734C50.2592 22.2734 51.0956 21.2682 51.0956 20.0283C51.0956 18.7884 50.2592 17.7832 49.2275 17.7832C48.1958 17.7832 47.3594 18.7884 47.3594 20.0283C47.3594 21.2682 48.1958 22.2734 49.2275 22.2734Z" fill="white"/>
<path d="M35.7461 29.6152C36.4351 30.6675 37.3526 31.5506 38.4302 32.1987C39.4751 32.8089 40.6614 33.1348 41.8712 33.144C43.0689 33.1519 44.2446 32.8224 45.2639 32.1933C46.3225 31.5096 47.2453 30.6354 47.9856 29.6152C47.5778 30.9038 46.7968 32.0422 45.7417 32.8862L45.3391 33.2031L44.8828 33.4555C44.7271 33.5361 44.5768 33.622 44.4211 33.6972L43.9272 33.8799C43.7608 33.9336 43.5998 33.998 43.428 34.0356L42.8912 34.1269C42.5375 34.195 42.1775 34.2238 41.8175 34.2129C40.4175 34.1994 39.0587 33.7362 37.9417 32.8916C36.8638 32.0763 36.0906 30.9225 35.7461 29.6152Z" fill="white"/>
<path d="M164.819 20.4785C165.851 20.4785 166.687 19.4733 166.687 18.2334C166.687 16.9934 165.851 15.9883 164.819 15.9883C163.788 15.9883 162.951 16.9934 162.951 18.2334C162.951 19.4733 163.788 20.4785 164.819 20.4785Z" fill="white"/>
<path d="M149.94 20.4785C150.972 20.4785 151.809 19.4733 151.809 18.2334C151.809 16.9934 150.972 15.9883 149.94 15.9883C148.909 15.9883 148.072 16.9934 148.072 18.2334C148.072 19.4733 148.909 20.4785 149.94 20.4785Z" fill="white"/>
<path d="M163.42 27.8223C163.064 29.1343 162.277 30.2884 161.186 31.0986C160.064 31.9476 158.697 32.411 157.289 32.4199C156.929 32.4308 156.569 32.402 156.216 32.334L155.679 32.2427C155.507 32.2051 155.346 32.1406 155.179 32.0869L154.686 31.9043C154.53 31.8291 154.38 31.7431 154.224 31.6626L153.773 31.4101L153.365 31.0879C152.309 30.2471 151.528 29.11 151.121 27.8223C151.861 28.8425 152.784 29.7166 153.843 30.4004C154.878 31.0377 156.074 31.3656 157.289 31.3457C158.49 31.3364 159.667 31.0124 160.703 30.4057C161.792 29.7601 162.72 28.877 163.42 27.8223Z" fill="white"/>
</g>
<defs>
<clipPath id="clip0_249_850">
<rect width="202" height="175" fill="white"/>
</clipPath>
</defs>
</svg>
