<svg width="188" height="175" viewBox="0 0 188 175" fill="none" xmlns="http://www.w3.org/2000/svg">
<g clip-path="url(#clip0_249_1231)">
<path d="M128.096 117.325V75.0762H59.9044V117.325H0V174.999H61.8718H63.2375H188V117.325H128.096Z" fill="#0A93FD"/>
<path d="M97.7938 83.7685V112.826H94.2751V87.4574H94.1049L87.0107 92.168V88.5925L94.2751 83.7685H97.7938Z" fill="white"/>
<path d="M23.6251 158.012V155.458L33.2164 144.958C34.342 143.729 35.269 142.66 35.9973 141.752C36.7257 140.834 37.2648 139.974 37.6148 139.17C37.9742 138.356 38.154 137.505 38.154 136.616C38.154 135.594 37.908 134.71 37.4162 133.963C36.9338 133.215 36.2716 132.638 35.4298 132.232C34.588 131.825 33.6421 131.621 32.5921 131.621C31.476 131.621 30.5017 131.853 29.6693 132.317C28.8464 132.771 28.2079 133.409 27.7539 134.232C27.3093 135.055 27.0871 136.02 27.0871 137.126H23.7386C23.7386 135.424 24.1312 133.929 24.9163 132.643C25.7013 131.357 26.7702 130.354 28.1228 129.635C29.4849 128.916 31.0125 128.557 32.7056 128.557C34.4082 128.557 35.9169 128.916 37.2317 129.635C38.5465 130.354 39.5775 131.323 40.3248 132.544C41.072 133.764 41.4457 135.121 41.4457 136.616C41.4457 137.685 41.2517 138.73 40.8639 139.751C40.4856 140.763 39.8235 141.894 38.8776 143.142C37.9411 144.381 36.6405 145.895 34.9758 147.683L28.4491 154.663V154.89H41.9564V158.012H23.6251Z" fill="white"/>
<path d="M156.746 158.409C154.873 158.409 153.204 158.087 151.738 157.444C150.281 156.801 149.122 155.907 148.262 154.763C147.41 153.609 146.947 152.27 146.871 150.747H150.447C150.522 151.684 150.844 152.492 151.411 153.173C151.979 153.845 152.721 154.365 153.639 154.734C154.556 155.103 155.573 155.288 156.689 155.288C157.938 155.288 159.045 155.07 160.009 154.635C160.974 154.2 161.731 153.594 162.28 152.819C162.828 152.043 163.103 151.145 163.103 150.123C163.103 149.054 162.838 148.113 162.308 147.3C161.778 146.477 161.003 145.833 159.981 145.37C158.96 144.906 157.711 144.675 156.235 144.675H153.909V141.553H156.235C157.389 141.553 158.401 141.345 159.272 140.929C160.151 140.513 160.837 139.926 161.329 139.17C161.83 138.413 162.081 137.524 162.081 136.502C162.081 135.518 161.863 134.662 161.428 133.934C160.993 133.206 160.378 132.638 159.584 132.232C158.799 131.825 157.872 131.621 156.803 131.621C155.8 131.621 154.854 131.806 153.965 132.175C153.086 132.534 152.367 133.059 151.809 133.75C151.251 134.431 150.948 135.254 150.901 136.218H147.495C147.552 134.696 148.011 133.362 148.872 132.217C149.732 131.063 150.858 130.165 152.248 129.522C153.648 128.878 155.185 128.557 156.86 128.557C158.657 128.557 160.199 128.921 161.485 129.649C162.771 130.368 163.76 131.319 164.45 132.501C165.141 133.683 165.486 134.96 165.486 136.332C165.486 137.968 165.056 139.364 164.195 140.518C163.344 141.671 162.185 142.471 160.719 142.915V143.142C162.554 143.445 163.987 144.225 165.018 145.483C166.049 146.732 166.564 148.279 166.564 150.123C166.564 151.703 166.134 153.121 165.273 154.38C164.422 155.628 163.259 156.612 161.783 157.331C160.307 158.05 158.628 158.409 156.746 158.409Z" fill="white"/>
<path d="M131.82 13.1952C131.669 9.72223 130.465 7.33488 128.249 6.098C125.788 4.72608 122.677 5.16358 120.217 5.91435L120.309 5.46065C120.448 4.80066 120.437 4.11815 120.277 3.46286C120.118 2.80757 119.813 2.19604 119.386 1.67284C118.96 1.14964 118.421 0.727974 117.81 0.438575C117.199 0.149176 116.53 -0.000656742 115.854 2.16381e-06H74.6259C73.9371 -0.000569118 73.2572 0.154795 72.6375 0.454368C72.0178 0.75394 71.4745 1.18989 71.0486 1.72932C70.6227 2.26874 70.3253 2.89754 70.1789 3.56826C70.0325 4.23897 70.0408 4.93407 70.2034 5.60108L70.2793 5.91976C67.8187 5.16358 64.6969 4.72608 62.2309 6.098C60.0143 7.33488 58.8111 9.72223 58.6647 13.1952C58.2095 23.652 72.7561 31.6728 77.8669 34.1628C80.131 38.2537 83.7467 41.4371 88.0994 43.1721C87.9491 43.7342 87.8726 44.3134 87.8717 44.8951C87.878 45.9421 88.1256 46.9737 88.5954 47.9102C89.0653 48.8468 89.7448 49.6631 90.5816 50.2963V68.5957H84.2405C83.3996 68.5957 82.5932 68.9286 81.9986 69.5211C81.404 70.1137 81.07 70.9174 81.07 71.7554C81.07 72.5934 81.404 73.3971 81.9986 73.9897C82.5932 74.5822 83.3996 74.9151 84.2405 74.9151H106.228C107.069 74.9151 107.876 74.5822 108.47 73.9897C109.065 73.3971 109.399 72.5934 109.399 71.7554C109.399 70.9174 109.065 70.1137 108.47 69.5211C107.876 68.9286 107.069 68.5957 106.228 68.5957H99.8873V50.2963C100.724 49.6631 101.404 48.8468 101.873 47.9102C102.343 46.9737 102.591 45.9421 102.597 44.8951C102.598 44.4062 102.544 43.9188 102.435 43.4421C107.293 41.7139 111.308 38.2067 113.664 33.6335C119.491 30.6574 132.243 23.0039 131.82 13.1952ZM61.6619 13.3248C61.7648 10.9591 62.4477 9.40895 63.6943 8.71219C65.6671 7.63195 68.9297 8.50695 71.1247 9.41436L75.9158 29.1667C75.97 29.3989 76.0296 29.6312 76.0946 29.858C70.3389 26.6119 61.3529 20.4221 61.6619 13.3248ZM115.317 29.3179C115.382 29.0532 115.442 28.7778 115.496 28.5239L119.507 9.34954C121.675 8.46374 124.851 7.62655 126.796 8.70679C128.043 9.40355 128.726 10.9591 128.829 13.3248C129.111 20.0494 121.051 25.9691 115.306 29.3179H115.317Z" fill="#AFAFAF"/>
</g>
<defs>
<clipPath id="clip0_249_1231">
<rect width="188" height="175" fill="white"/>
</clipPath>
</defs>
</svg>
