<svg width="175" height="175" viewBox="0 0 175 175" fill="none" xmlns="http://www.w3.org/2000/svg">
<g clip-path="url(#clip0_249_1059)">
<path d="M87.4973 174.995C135.821 174.995 174.995 135.821 174.995 87.4973C174.995 39.1739 135.821 0 87.4973 0C39.1739 0 0 39.1739 0 87.4973C0 135.821 39.1739 174.995 87.4973 174.995Z" fill="#AFAFAF"/>
<path d="M87.4971 151.774C122.997 151.774 151.775 122.995 151.775 87.4951C151.775 51.9952 122.997 23.2168 87.4971 23.2168C51.9971 23.2168 23.2188 51.9952 23.2188 87.4951C23.2188 122.995 51.9971 151.774 87.4971 151.774Z" fill="white"/>
<path d="M88.0347 1.52734H86.959V13.8817H88.0347V1.52734Z" fill="white"/>
<path d="M88.0347 161.121H86.959V173.475H88.0347V161.121Z" fill="white"/>
<path d="M173.472 86.957H161.117V88.0327H173.472V86.957Z" fill="white"/>
<path d="M13.8817 86.957H1.52734V88.0327H13.8817V86.957Z" fill="white"/>
<path d="M147.91 26.3305L139.174 35.0664L139.934 35.827L148.67 27.0912L147.91 26.3305Z" fill="white"/>
<path d="M35.064 139.174L26.3281 147.91L27.0888 148.671L35.8246 139.935L35.064 139.174Z" fill="white"/>
<path d="M139.933 139.177L139.172 139.938L147.908 148.673L148.668 147.913L139.933 139.177Z" fill="white"/>
<path d="M27.0888 26.3253L26.3281 27.0859L35.064 35.8218L35.8246 35.0612L27.0888 26.3253Z" fill="white"/>
<path d="M110.509 4.66141L107.131 16.5449L108.166 16.8391L111.544 4.95557L110.509 4.66141Z" fill="white"/>
<path d="M66.8374 158.163L63.459 170.047L64.4937 170.341L67.8721 158.458L66.8374 158.163Z" fill="white"/>
<path d="M158.456 107.127L158.162 108.162L170.045 111.543L170.339 110.508L158.456 107.127Z" fill="white"/>
<path d="M4.95449 63.4634L4.66016 64.498L16.5431 67.8785L16.8374 66.8439L4.95449 63.4634Z" fill="white"/>
<path d="M162.341 45.1792L151.547 51.1895L152.07 52.1293L162.864 46.119L162.341 45.1792Z" fill="white"/>
<path d="M22.921 122.863L12.125 128.869L12.648 129.809L23.444 123.803L22.921 122.863Z" fill="white"/>
<path d="M123.793 151.553L122.854 152.076L128.866 162.869L129.805 162.346L123.793 151.553Z" fill="white"/>
<path d="M46.1272 12.1308L45.1875 12.6543L51.1996 23.4471L52.1394 22.9237L46.1272 12.1308Z" fill="white"/>
<path d="M130.908 13.3303L124.607 23.9551L125.533 24.5037L131.833 13.8789L130.908 13.3303Z" fill="white"/>
<path d="M49.5345 150.582L43.2363 161.211L44.1617 161.759L50.4599 151.131L49.5345 150.582Z" fill="white"/>
<path d="M151.124 124.551L150.576 125.477L161.207 131.771L161.755 130.845L151.124 124.551Z" fill="white"/>
<path d="M13.7961 43.2385L13.248 44.1641L23.8787 50.4585L24.4268 49.5329L13.7961 43.2385Z" fill="white"/>
<path d="M170.646 65.6449L158.678 68.709L158.945 69.7511L170.913 66.687L170.646 65.6449Z" fill="white"/>
<path d="M16.0465 105.252L4.07812 108.316L4.34491 109.358L16.3133 106.294L16.0465 105.252Z" fill="white"/>
<path d="M106.288 158.686L105.246 158.953L108.312 170.921L109.354 170.654L106.288 158.686Z" fill="white"/>
<path d="M66.6807 4.08655L65.6387 4.35352L68.7048 16.3214L69.7469 16.0544L66.6807 4.08655Z" fill="white"/>
<path d="M64.0475 114.817C64.6391 111.027 65.1249 106.07 65.505 99.9458L65.9783 99.5317H68.3072L68.7267 99.9996C68.8271 105.378 68.9311 108.474 69.0387 109.288C70.9574 111.254 73.1872 112.889 75.6381 114.129C77.9186 115.24 80.814 115.798 84.3244 115.802V86.2791C81.3474 85.8815 78.3952 85.3158 75.4821 84.5849C73.2223 83.9837 71.1207 82.8971 69.3238 81.4008C67.5485 79.9545 66.1604 78.0896 65.2845 75.9739C64.3858 73.6722 63.9508 71.2156 64.0044 68.7452C63.9624 63.6412 65.7287 58.6872 68.9903 54.7611C72.307 50.6591 77.4273 48.0667 84.3513 46.9838C84.319 43.642 84.2509 41.4511 84.1469 40.4113L84.6847 39.9434H88.3851L88.923 40.4113C88.8549 40.691 88.7867 42.8119 88.7186 46.774C97.1377 47.4338 102.947 48.8681 106.145 51.0768L106.349 51.7545C106.075 52.8302 105.854 53.8521 105.698 54.8041C105.543 55.7561 105.397 57.0954 105.257 58.8004L104.838 64.2219L104.424 64.6952H102.337L101.917 64.2757C101.833 61.3892 101.537 58.5129 101.03 55.6701C98.1399 52.4 94.0361 50.7129 88.7186 50.6089V78.1576C92.1599 78.588 95.5723 79.2238 98.9377 80.0615C101.318 80.6715 103.559 81.7342 105.537 83.1918C107.362 84.5344 108.802 86.3338 109.711 88.409C110.649 90.6451 111.112 93.0517 111.072 95.4763C111.124 99.423 110.2 103.322 108.382 106.825C106.717 110.092 104.259 112.89 101.234 114.963C98.2762 116.963 94.1204 118.503 88.767 119.583C88.8351 124.9 88.9391 128.344 89.079 129.915L88.611 130.383H84.6578L84.12 129.915C84.1881 128.764 84.2562 125.39 84.3244 119.792C76.9522 119.653 70.3188 118.261 64.4239 115.619L64.0475 114.817ZM84.3405 50.8133C82.3106 51.0049 80.3367 51.5856 78.5264 52.5237C76.8375 53.4272 75.3495 54.9834 74.0622 57.1922C72.7749 59.401 72.1313 62.1404 72.1313 65.4105C72.1313 69.8245 73.3325 72.8723 75.7349 74.554C78.2972 76.2829 81.2602 77.3255 84.3405 77.5821V50.8133ZM88.6756 115.565C90.5882 115.55 92.4741 115.115 94.1999 114.29C95.9258 113.466 97.4496 112.272 98.6634 110.794C101.295 107.736 102.609 103.98 102.606 99.5263C102.606 96.0482 101.64 93.2657 99.7069 91.1789C97.7742 89.092 94.0971 87.6309 88.6756 86.7954V115.565Z" fill="#0A93FD"/>
</g>
<defs>
<clipPath id="clip0_249_1059">
<rect width="175" height="175" fill="white"/>
</clipPath>
</defs>
</svg>
