<svg width="239" height="152" viewBox="0 0 239 152" fill="none" xmlns="http://www.w3.org/2000/svg">
<g clip-path="url(#clip0_249_1283)" filter="url(#filter0_dd_249_1283)">
<path d="M161.583 125.402H84.5053C86.2033 114.948 83.3956 106.053 75.3998 99.0785C70.1951 94.5396 64.0249 92.42 57.089 92.5864C51.7497 92.6722 46.5608 94.3684 42.2017 97.4527C37.8062 100.484 34.4124 104.755 32.4525 109.721C30.4272 114.765 30.0999 119.981 31.1042 125.457H15.9173C12.8876 125.457 11.1231 123.754 11.0954 120.696C11.0565 116.019 11.0954 111.341 11.0954 106.669C11.0954 103.34 11.1786 99.9607 11.0954 96.6148C10.9733 92.9305 12.3882 89.9563 14.8907 87.3817C18.3532 83.7861 22.6701 81.4334 27.3033 79.7244C31.9365 78.0154 36.8582 76.6671 41.6302 75.1079C42.3168 74.891 42.9296 74.4876 43.4002 73.9426C50.8503 64.495 58.2801 55.0251 65.6895 45.533C66.4788 44.5204 67.3353 43.5621 68.2531 42.6643C69.1065 41.8294 70.1176 41.1727 71.2274 40.7326C72.3373 40.2925 73.5236 40.0777 74.7174 40.1008C98.1331 40.1008 121.549 40.1008 144.965 40.1008C148.227 40.1008 150.918 41.5435 153.204 43.7408C155.49 45.9381 157.61 48.1465 159.796 50.3993C167.516 58.2711 175.238 66.1411 182.962 74.0092C183.536 74.567 184.249 74.9616 185.026 75.1523C196.379 77.7879 207.643 80.701 218.419 85.2565C222.702 87.0599 226.875 89.0852 230.471 92.0871C231.504 92.9723 232.453 93.9512 233.306 95.0112C234.454 96.4186 235.06 98.1899 235.015 100.005C235.015 106.985 235.015 113.96 235.015 120.935C235.015 123.859 233.351 125.502 230.443 125.507H214.94C216.604 115.875 214.318 107.529 207.527 100.649C205.04 98.045 202.039 95.9856 198.716 94.6008C195.392 93.2159 191.817 92.5357 188.217 92.6031C179.633 92.6586 172.542 96.0655 167.132 102.702C161.722 109.338 160.063 116.951 161.583 125.402ZM113.187 74.8637H163.203C163.709 74.888 164.216 74.8675 164.718 74.8027C165.75 74.6196 166.211 73.8705 165.772 72.9161C165.418 72.14 164.938 71.4277 164.352 70.8076C159.208 65.5418 154.081 60.265 148.815 55.0935C147.556 53.7921 146.045 52.7618 144.373 52.0662C142.701 51.3706 140.905 51.0243 139.094 51.0485C120.162 51.1373 101.229 51.1373 82.2969 51.0485C80.6741 51.0001 79.0623 51.3316 77.5903 52.0166C76.1183 52.7016 74.8266 53.721 73.8185 54.9937C69.5126 60.2206 65.3788 65.5973 61.2006 70.9352C60.5292 71.7953 59.8855 72.7996 60.4626 73.9426C61.0397 75.0857 62.1661 74.8471 63.1704 74.8471L113.187 74.8637Z" fill="#AFAFAF"/>
<path d="M57.8237 96.337C62.4528 96.3503 66.974 97.7366 70.8148 100.321C74.6557 102.904 77.6436 106.57 79.4004 110.853C81.1571 115.136 81.6037 119.843 80.6836 124.38C79.7635 128.917 77.5181 133.079 74.2316 136.339C70.9451 139.599 66.7653 141.811 62.2212 142.694C57.6772 143.577 52.9732 143.093 48.7046 141.302C44.4361 139.51 40.7949 136.493 38.2421 132.631C35.6892 128.77 34.3395 124.238 34.3636 119.608C34.3944 113.413 36.882 107.483 41.2804 103.12C45.6787 98.7575 51.6285 96.3178 57.8237 96.337ZM45.7774 119.769C45.7807 122.143 46.4872 124.463 47.8077 126.435C49.1283 128.408 51.0036 129.945 53.1971 130.853C55.3905 131.761 57.8037 131.998 60.132 131.535C62.4603 131.073 64.5993 129.93 66.279 128.253C67.9587 126.576 69.1038 124.438 69.5698 122.111C70.0357 119.783 69.8016 117.369 68.897 115.175C67.9923 112.98 66.4578 111.103 64.487 109.779C62.5162 108.456 60.1975 107.746 57.8237 107.74C54.6322 107.741 51.5715 109.009 49.3132 111.264C47.0548 113.519 45.7833 116.578 45.7774 119.769Z" fill="#AFAFAF"/>
<path d="M188.269 96.343C192.898 96.3497 197.421 97.7295 201.266 100.308C205.11 102.886 208.103 106.548 209.866 110.828C211.629 115.108 212.082 119.815 211.169 124.354C210.255 128.892 208.016 133.057 204.734 136.321C201.452 139.586 197.275 141.804 192.732 142.694C188.19 143.584 183.485 143.106 179.214 141.321C174.943 139.535 171.297 136.523 168.739 132.665C166.181 128.807 164.824 124.277 164.842 119.648C164.867 113.454 167.347 107.522 171.738 103.153C176.13 98.7847 182.074 96.3356 188.269 96.343ZM200.276 119.731C200.278 117.35 199.574 115.023 198.251 113.043C196.929 111.064 195.048 109.522 192.848 108.613C190.648 107.703 188.227 107.468 185.893 107.936C183.559 108.405 181.417 109.556 179.738 111.243C178.059 112.931 176.919 115.079 176.462 117.416C176.006 119.752 176.253 122.171 177.174 124.367C178.094 126.562 179.646 128.435 181.632 129.747C183.618 131.06 185.949 131.753 188.33 131.739C191.5 131.711 194.532 130.435 196.768 128.187C199.004 125.94 200.265 122.901 200.276 119.731Z" fill="#AFAFAF"/>
<path d="M45.7774 119.768C45.7697 117.389 46.4686 115.061 47.7854 113.08C49.1022 111.099 50.9776 109.553 53.174 108.639C55.3703 107.725 57.7887 107.483 60.1225 107.945C62.4562 108.407 64.6003 109.551 66.2829 111.233C67.9655 112.915 69.1109 115.058 69.5738 117.392C70.0367 119.725 69.7964 122.144 68.8832 124.341C67.97 126.537 66.4251 128.414 64.4443 129.731C62.4636 131.049 60.1362 131.749 57.7572 131.742C54.5854 131.728 51.5476 130.462 49.3043 128.219C47.0609 125.977 45.7935 122.94 45.7774 119.768Z" fill="white"/>
<path d="M200.277 119.729C200.283 122.105 199.584 124.43 198.268 126.409C196.952 128.389 195.08 129.933 192.886 130.848C190.693 131.763 188.278 132.008 185.945 131.55C183.613 131.093 181.469 129.954 179.784 128.278C178.099 126.602 176.948 124.465 176.478 122.135C176.008 119.805 176.238 117.389 177.141 115.19C178.044 112.992 179.579 111.111 181.551 109.784C183.522 108.458 185.843 107.745 188.22 107.738C191.407 107.736 194.464 108.997 196.724 111.244C198.984 113.491 200.261 116.542 200.277 119.729Z" fill="white"/>
<path d="M18.8762 101.509H4V114.011H18.8762V101.509Z" fill="#AFAFAF"/>
<path d="M112.245 5.40332H71.0957V40.0053H112.245V5.40332Z" fill="#0A93FD"/>
<path d="M112.245 5.40332H71.0957V15.8072H112.245V5.40332Z" fill="white"/>
<path d="M113.184 5.40332H70.1641V13.3269H113.184V5.40332Z" fill="#0A93FD"/>
<path d="M146.735 0.414307H116.184V40.0046H146.735V0.414307Z" fill="#0A93FD"/>
<path d="M146.735 0.414307H116.184V12.0667H146.735V0.414307Z" fill="white"/>
<path d="M147.824 0.181885H115.092V9.69244H147.824V0.181885Z" fill="#0A93FD"/>
<path d="M96.8887 5.29883H87.4336V21.6122H96.8887V5.29883Z" fill="white"/>
<path d="M134.979 0.000244141H127.494V13.9498H134.979V0.000244141Z" fill="white"/>
</g>
<defs>
<filter id="filter0_dd_249_1283" x="0" y="0" width="239" height="151.125" filterUnits="userSpaceOnUse" color-interpolation-filters="sRGB">
<feFlood flood-opacity="0" result="BackgroundImageFix"/>
<feColorMatrix in="SourceAlpha" type="matrix" values="0 0 0 0 0 0 0 0 0 0 0 0 0 0 0 0 0 0 127 0" result="hardAlpha"/>
<feOffset dy="4"/>
<feGaussianBlur stdDeviation="2"/>
<feComposite in2="hardAlpha" operator="out"/>
<feColorMatrix type="matrix" values="0 0 0 0 0 0 0 0 0 0 0 0 0 0 0 0 0 0 0.25 0"/>
<feBlend mode="normal" in2="BackgroundImageFix" result="effect1_dropShadow_249_1283"/>
<feColorMatrix in="SourceAlpha" type="matrix" values="0 0 0 0 0 0 0 0 0 0 0 0 0 0 0 0 0 0 127 0" result="hardAlpha"/>
<feOffset dy="4"/>
<feGaussianBlur stdDeviation="2"/>
<feComposite in2="hardAlpha" operator="out"/>
<feColorMatrix type="matrix" values="0 0 0 0 0 0 0 0 0 0 0 0 0 0 0 0 0 0 0.25 0"/>
<feBlend mode="normal" in2="effect1_dropShadow_249_1283" result="effect2_dropShadow_249_1283"/>
<feBlend mode="normal" in="SourceGraphic" in2="effect2_dropShadow_249_1283" result="shape"/>
</filter>
<clipPath id="clip0_249_1283">
<rect width="231" height="143.124" fill="white" transform="translate(4)"/>
</clipPath>
</defs>
</svg>
