<svg width="720" height="572" viewBox="0 0 720 572" fill="none" xmlns="http://www.w3.org/2000/svg">
<path d="M373.908 385.404H346.092V571.429H373.908V385.404Z" fill="#606060"/>
<path d="M711.442 10.6865H10.6992V383.804H711.442V10.6865Z" fill="#FFFFFE"/>
<path d="M709.302 10.691V381.136H10.6984V10.691H709.302ZM720 0H0V391.827H720V0Z" fill="#232323"/>
<path d="M151.833 428.717H124.018V422.303H151.833V428.717ZM125.087 427.648H150.763V423.372H125.087V427.648Z" fill="black"/>
<path d="M141.669 391.829H134.18V405.727H141.669V391.829Z" fill="black"/>
<path d="M154.505 404.647H121.34V407.855H154.505V404.647Z" fill="black"/>
<path d="M151.297 407.862H124.551V417.484H151.297V407.862Z" fill="#606060"/>
<path d="M152.897 417.482H122.941V422.828H152.897V417.482Z" fill="#232323"/>
<path d="M140.599 422.827H135.25V430.311H140.599V422.827Z" fill="black"/>
<path d="M269.509 428.717H241.693V422.303H269.509V428.717ZM242.763 427.648H268.439V423.372H242.763V427.648Z" fill="black"/>
<path d="M259.348 391.829H251.859V405.727H259.348V391.829Z" fill="black"/>
<path d="M272.188 404.647H239.023V407.855H272.188V404.647Z" fill="black"/>
<path d="M268.978 407.862H242.232V417.484H268.978V407.862Z" fill="#606060"/>
<path d="M270.58 417.482H240.625V422.828H270.58V417.482Z" fill="#232323"/>
<path d="M258.283 422.827H252.934V430.311H258.283V422.827Z" fill="black"/>
<path d="M474.923 428.717H447.107V422.303H474.923V428.717ZM448.177 427.648H473.853V423.372H448.177V427.648Z" fill="black"/>
<path d="M464.758 391.829H457.27V405.727H464.758V391.829Z" fill="black"/>
<path d="M477.597 404.647H444.432V407.855H477.597V404.647Z" fill="black"/>
<path d="M474.385 407.862H447.639V417.484H474.385V407.862Z" fill="#606060"/>
<path d="M475.991 417.482H446.035V422.828H475.991V417.482Z" fill="#232323"/>
<path d="M463.689 422.827H458.34V430.311H463.689V422.827Z" fill="black"/>
<path d="M592.603 428.717H564.787V422.303H592.603V428.717ZM565.857 427.648H591.533V423.372H565.857V427.648Z" fill="black"/>
<path d="M582.436 391.829H574.947V405.727H582.436V391.829Z" fill="black"/>
<path d="M595.28 404.647H562.115V407.855H595.28V404.647Z" fill="black"/>
<path d="M592.068 407.862H565.322V417.484H592.068V407.862Z" fill="#606060"/>
<path d="M593.676 417.482H563.721V422.828H593.676V417.482Z" fill="#232323"/>
</svg>
