<svg width="1830" height="885" viewBox="0 0 1830 885" fill="none" xmlns="http://www.w3.org/2000/svg">
<path d="M139.552 543.729H132.533V556.758H139.552V543.729Z" fill="black"/>
<path d="M151.583 555.756H120.498V558.763H151.583V555.756Z" fill="black"/>
<path d="M148.574 558.76H123.506V567.78H148.574V558.76Z" fill="#606060"/>
<path d="M150.081 567.779H122.004V572.791H150.081V567.779Z" fill="#232323"/>
<path d="M259.378 578.307H233.307V572.293H259.378V578.307ZM234.309 577.304H258.375V573.295H234.309V577.304Z" fill="black"/>
<path d="M249.855 543.729H242.836V556.758H249.855V543.729Z" fill="black"/>
<path d="M261.886 555.756H230.801V558.763H261.886V555.756Z" fill="black"/>
<path d="M258.877 558.76H233.809V567.78H258.877V558.76Z" fill="#606060"/>
<path d="M260.379 567.779H232.303V572.791H260.379V567.779Z" fill="#232323"/>
<path d="M401.595 540.221H375.523V884.999H401.595V540.221Z" fill="#606060"/>
<path d="M418.645 867.963H358.48V885.001H418.645V867.963Z" fill="#606060"/>
<path d="M1454.47 540.221H1428.4V884.999H1454.47V540.221Z" fill="#606060"/>
<path d="M1471.52 867.963H1411.36V885.001H1471.52V867.963Z" fill="#606060"/>
<path d="M1830 0H0V546.233H1830V0Z" fill="white"/>
<path d="M1819.97 10.0226V536.211H10.0274V10.0226H1819.97ZM1830 0H0V546.233H1830V0Z" fill="#232323"/>
<path d="M469.956 578.307H443.885V572.293H469.956V578.307ZM444.888 577.304H468.953V573.295H444.888V577.304Z" fill="black"/>
<path d="M460.429 543.729H453.41V556.758H460.429V543.729Z" fill="black"/>
<path d="M472.46 555.756H441.375V558.763H472.46V555.756Z" fill="black"/>
<path d="M469.453 558.76H444.385V567.78H469.453V558.76Z" fill="#606060"/>
<path d="M470.958 567.779H442.881V572.791H470.958V567.779Z" fill="#232323"/>
<path d="M459.424 572.795H454.41V579.811H459.424V572.795Z" fill="black"/>
<path d="M580.255 578.307H554.184V572.293H580.255V578.307ZM555.186 577.304H579.252V573.295H555.186V577.304Z" fill="black"/>
<path d="M570.728 543.729H563.709V556.758H570.728V543.729Z" fill="black"/>
<path d="M582.763 555.756H551.678V558.763H582.763V555.756Z" fill="black"/>
<path d="M579.756 558.76H554.688V567.78H579.756V558.76Z" fill="#606060"/>
<path d="M581.256 567.779H553.18V572.791H581.256V567.779Z" fill="#232323"/>
<path d="M569.727 572.795H564.713V579.811H569.727V572.795Z" fill="black"/>
<path d="M730.669 578.307H704.598V572.293H730.669V578.307ZM705.6 577.304H729.666V573.295H705.6V577.304Z" fill="black"/>
<path d="M721.14 543.729H714.121V556.758H721.14V543.729Z" fill="black"/>
<path d="M733.175 555.756H702.09V558.763H733.175V555.756Z" fill="black"/>
<path d="M730.166 558.76H705.098V567.78H730.166V558.76Z" fill="#606060"/>
<path d="M731.669 567.779H703.592V572.791H731.669V567.779Z" fill="#232323"/>
<path d="M720.137 572.795H715.123V579.811H720.137V572.795Z" fill="black"/>
<path d="M840.966 578.307H814.895V572.293H840.966V578.307ZM815.897 577.304H839.963V573.295H815.897V577.304Z" fill="black"/>
<path d="M831.441 543.729H824.422V556.758H831.441V543.729Z" fill="black"/>
<path d="M843.474 555.756H812.389V558.763H843.474V555.756Z" fill="black"/>
<path d="M840.467 558.76H815.398V567.78H840.467V558.76Z" fill="#606060"/>
<path d="M841.969 567.779H813.893V572.791H841.969V567.779Z" fill="#232323"/>
<path d="M830.438 572.795H825.424V579.811H830.438V572.795Z" fill="black"/>
<path d="M961.296 578.307H935.225V572.293H961.296V578.307ZM936.227 577.304H960.293V573.295H936.227V577.304Z" fill="black"/>
<path d="M951.769 543.729H944.75V556.758H951.769V543.729Z" fill="black"/>
<path d="M963.804 555.756H932.719V558.763H963.804V555.756Z" fill="black"/>
<path d="M960.795 558.76H935.727V567.78H960.795V558.76Z" fill="#606060"/>
<path d="M962.299 567.779H934.223V572.791H962.299V567.779Z" fill="#232323"/>
<path d="M950.768 572.795H945.754V579.811H950.768V572.795Z" fill="black"/>
<path d="M1071.6 578.307H1045.53V572.293H1071.6V578.307ZM1046.53 577.304H1070.6V573.295H1046.53V577.304Z" fill="black"/>
<path d="M1062.07 543.729H1055.05V556.758H1062.07V543.729Z" fill="black"/>
<path d="M1074.1 555.756H1043.02V558.763H1074.1V555.756Z" fill="black"/>
<path d="M1071.1 558.76H1046.03V567.78H1071.1V558.76Z" fill="#606060"/>
<path d="M1072.6 567.779H1044.53V572.791H1072.6V567.779Z" fill="#232323"/>
<path d="M1061.07 572.795H1056.06V579.811H1061.07V572.795Z" fill="black"/>
<path d="M1222.01 578.307H1195.94V572.293H1222.01V578.307ZM1196.94 577.304H1221.01V573.295H1196.94V577.304Z" fill="black"/>
<path d="M1212.48 543.729H1205.46V556.758H1212.48V543.729Z" fill="black"/>
<path d="M1224.51 555.756H1193.43V558.763H1224.51V555.756Z" fill="black"/>
<path d="M1221.51 558.76H1196.44V567.78H1221.51V558.76Z" fill="#606060"/>
<path d="M1223.01 567.779H1194.94V572.791H1223.01V567.779Z" fill="#232323"/>
<path d="M1211.48 572.795H1206.47V579.811H1211.48V572.795Z" fill="black"/>
<path d="M1332.31 578.307H1306.24V572.293H1332.31V578.307ZM1307.24 577.304H1331.31V573.295H1307.24V577.304Z" fill="black"/>
<path d="M1322.78 543.729H1315.77V556.758H1322.78V543.729Z" fill="black"/>
<path d="M1334.82 555.756H1303.73V558.763H1334.82V555.756Z" fill="black"/>
<path d="M1331.81 558.76H1306.74V567.78H1331.81V558.76Z" fill="#606060"/>
<path d="M1333.31 567.779H1305.24V572.791H1333.31V567.779Z" fill="#232323"/>
<path d="M1321.78 572.795H1316.77V579.811H1321.78V572.795Z" fill="black"/>
<path d="M1557.93 578.307H1531.86V572.293H1557.93V578.307ZM1532.86 577.304H1556.92V573.295H1532.86V577.304Z" fill="black"/>
<path d="M1548.4 543.729H1541.38V556.758H1548.4V543.729Z" fill="black"/>
<path d="M1560.43 555.756H1529.35V558.763H1560.43V555.756Z" fill="black"/>
<path d="M1557.43 558.76H1532.36V567.78H1557.43V558.76Z" fill="#606060"/>
<path d="M1558.93 567.779H1530.85V572.791H1558.93V567.779Z" fill="#232323"/>
<path d="M1547.4 572.795H1542.38V579.811H1547.4V572.795Z" fill="black"/>
<path d="M1668.23 578.307H1642.16V572.293H1668.23V578.307ZM1643.16 577.304H1667.23V573.295H1643.16V577.304Z" fill="black"/>
<path d="M1658.7 543.729H1651.68V556.758H1658.7V543.729Z" fill="black"/>
<path d="M1670.74 555.756H1639.65V558.763H1670.74V555.756Z" fill="black"/>
<path d="M1667.73 558.76H1642.66V567.78H1667.73V558.76Z" fill="#606060"/>
<path d="M1669.23 567.779H1641.15V572.791H1669.23V567.779Z" fill="#232323"/>
<path d="M1657.7 572.795H1652.69V579.811H1657.7V572.795Z" fill="black"/>
</svg>
