<svg width="1603" height="1189" viewBox="0 0 1603 1189" fill="none" xmlns="http://www.w3.org/2000/svg">
<path d="M235.044 383.644H65.8335L45.8086 322.541H255.069L235.044 383.644Z" fill="#232323"/>
<path d="M235.044 453.765H65.8335L45.8086 392.662H255.069L235.044 453.765Z" fill="#232323"/>
<path d="M235.044 523.88H65.8335L45.8086 462.777H255.069L235.044 523.88Z" fill="#232323"/>
<path d="M173.969 300.51H126.91C108.662 300.51 93.8691 315.309 93.8691 333.565V533.902C93.8691 552.159 108.662 566.958 126.91 566.958H173.969C192.217 566.958 207.01 552.159 207.01 533.902V333.565C207.01 315.309 192.217 300.51 173.969 300.51Z" fill="#232323"/>
<path d="M1563.95 201.338H21.0262C9.41374 201.338 0 210.756 0 222.373C0 233.991 9.41374 243.409 21.0262 243.409H1563.95C1575.56 243.409 1584.97 233.991 1584.97 222.373C1584.97 210.756 1575.56 201.338 1563.95 201.338Z" fill="#232323"/>
<path d="M159.198 228.387H146.182V309.523H159.198V228.387Z" fill="#232323"/>
<path d="M458.573 228.387H442.553V309.523H458.573V228.387Z" fill="#232323"/>
<path d="M1361.69 222.371H1346.68V309.518H1361.69V222.371Z" fill="#232323"/>
<path d="M1550.93 57.0957H1475.84V1189H1550.93V57.0957Z" fill="#232323"/>
<path d="M1431.78 294.494H321.398V827.391H1431.78V294.494Z" fill="white"/>
<path d="M1421.77 304.511V817.374H331.411V304.511H1421.77ZM1431.78 294.494H321.398V827.391H1431.78V294.494Z" fill="#232323"/>
<path d="M152.689 386.651C170.661 386.651 185.23 372.075 185.23 354.096C185.23 336.116 170.661 321.541 152.689 321.541C134.717 321.541 120.148 336.116 120.148 354.096C120.148 372.075 134.717 386.651 152.689 386.651Z" fill="#6B3425"/>
<path d="M152.689 456.768C170.661 456.768 185.23 442.192 185.23 424.213C185.23 406.233 170.661 391.658 152.689 391.658C134.717 391.658 120.148 406.233 120.148 424.213C120.148 442.192 134.717 456.768 152.689 456.768Z" fill="#FFE051"/>
<path d="M152.689 526.889C170.661 526.889 185.23 512.314 185.23 494.334C185.23 476.355 170.661 461.779 152.689 461.779C134.717 461.779 120.148 476.355 120.148 494.334C120.148 512.314 134.717 526.889 152.689 526.889Z" fill="#7FA024"/>
<path d="M1590.99 0H1393.74C1387.1 0 1381.72 5.38164 1381.72 12.0202V77.1298C1381.72 83.7683 1387.1 89.15 1393.74 89.15H1590.99C1597.62 89.15 1603 83.7683 1603 77.1298V12.0202C1603 5.38164 1597.62 0 1590.99 0Z" fill="#0C96FD"/>
<path d="M1590.99 10.0169C1591.52 10.0169 1592.03 10.2281 1592.4 10.6038C1592.78 10.9795 1592.99 11.4889 1592.99 12.0202V77.1298C1592.99 77.6611 1592.78 78.1705 1592.4 78.5462C1592.03 78.9219 1591.52 79.1331 1590.99 79.1331H1393.74C1393.21 79.1331 1392.7 78.9219 1392.32 78.5462C1391.95 78.1705 1391.74 77.6611 1391.74 77.1298V12.0202C1391.74 11.4889 1391.95 10.9795 1392.32 10.6038C1392.7 10.2281 1393.21 10.0169 1393.74 10.0169H1590.99ZM1590.99 0H1393.74C1390.55 0 1387.5 1.26634 1385.24 3.52057C1382.99 5.7748 1381.72 8.83226 1381.72 12.0202V77.1298C1381.72 80.3177 1382.99 83.3752 1385.24 85.6294C1387.5 87.8836 1390.55 89.15 1393.74 89.15H1590.99C1594.17 89.15 1597.23 87.8836 1599.48 85.6294C1601.73 83.3752 1603 80.3177 1603 77.1298V12.0202C1603 8.83226 1601.73 5.7748 1599.48 3.52057C1597.23 1.26634 1594.17 0 1590.99 0Z" fill="white"/>
<path d="M1590.99 91.1504H1393.74C1387.1 91.1504 1381.72 96.532 1381.72 103.171V168.28C1381.72 174.919 1387.1 180.3 1393.74 180.3H1590.99C1597.62 180.3 1603 174.919 1603 168.28V103.171C1603 96.532 1597.62 91.1504 1590.99 91.1504Z" fill="#0C96FD"/>
<path d="M1590.99 101.167C1591.52 101.167 1592.03 101.378 1592.4 101.754C1592.78 102.13 1592.99 102.639 1592.99 103.171V168.28C1592.99 168.811 1592.78 169.321 1592.4 169.697C1592.03 170.072 1591.52 170.284 1590.99 170.284H1393.74C1393.21 170.284 1392.7 170.072 1392.32 169.697C1391.95 169.321 1391.74 168.811 1391.74 168.28V103.171C1391.74 102.639 1391.95 102.13 1392.32 101.754C1392.7 101.378 1393.21 101.167 1393.74 101.167H1590.99ZM1590.99 91.1504H1393.74C1390.55 91.1504 1387.5 92.4167 1385.24 94.671C1382.99 96.9252 1381.72 99.9827 1381.72 103.171V168.28C1381.72 171.468 1382.99 174.526 1385.24 176.78C1387.5 179.034 1390.55 180.3 1393.74 180.3H1590.99C1594.17 180.3 1597.23 179.034 1599.48 176.78C1601.73 174.526 1603 171.468 1603 168.28V103.171C1603 99.9827 1601.73 96.9252 1599.48 94.671C1597.23 92.4167 1594.17 91.1504 1590.99 91.1504Z" fill="white"/>
</svg>
