<svg width="1585" height="1132" viewBox="0 0 1585 1132" fill="none" xmlns="http://www.w3.org/2000/svg">
<path d="M235.044 326.644H65.8335L45.8086 265.541H255.069L235.044 326.644Z" fill="#232323"/>
<path d="M235.044 396.765H65.8335L45.8086 335.662H255.069L235.044 396.765Z" fill="#232323"/>
<path d="M235.044 466.88H65.8335L45.8086 405.777H255.069L235.044 466.88Z" fill="#232323"/>
<path d="M173.969 243.51H126.91C108.662 243.51 93.8691 258.309 93.8691 276.565V476.902C93.8691 495.159 108.662 509.958 126.91 509.958H173.969C192.217 509.958 207.01 495.159 207.01 476.902V276.565C207.01 258.309 192.217 243.51 173.969 243.51Z" fill="#232323"/>
<path d="M1563.95 144.338H21.0262C9.41374 144.338 0 153.756 0 165.373C0 176.991 9.41374 186.409 21.0262 186.409H1563.95C1575.56 186.409 1584.97 176.991 1584.97 165.373C1584.97 153.756 1575.56 144.338 1563.95 144.338Z" fill="#232323"/>
<path d="M159.198 171.387H146.182V252.523H159.198V171.387Z" fill="#232323"/>
<path d="M458.573 171.387H442.553V252.523H458.573V171.387Z" fill="#232323"/>
<path d="M1361.69 165.371H1346.68V252.518H1361.69V165.371Z" fill="#232323"/>
<path d="M1550.93 0.0957031H1475.84V1132H1550.93V0.0957031Z" fill="#232323"/>
<path d="M1431.78 237.494H321.398V770.391H1431.78V237.494Z" fill="white"/>
<path d="M1421.77 247.511V760.374H331.411V247.511H1421.77ZM1431.78 237.494H321.398V770.391H1431.78V237.494Z" fill="#232323"/>
<path d="M152.689 329.651C170.661 329.651 185.23 315.075 185.23 297.096C185.23 279.116 170.661 264.541 152.689 264.541C134.717 264.541 120.148 279.116 120.148 297.096C120.148 315.075 134.717 329.651 152.689 329.651Z" fill="#6B3425"/>
<path d="M152.689 399.768C170.661 399.768 185.23 385.192 185.23 367.213C185.23 349.233 170.661 334.658 152.689 334.658C134.717 334.658 120.148 349.233 120.148 367.213C120.148 385.192 134.717 399.768 152.689 399.768Z" fill="#FFE051"/>
<path d="M152.689 469.889C170.661 469.889 185.23 455.314 185.23 437.334C185.23 419.355 170.661 404.779 152.689 404.779C134.717 404.779 120.148 419.355 120.148 437.334C120.148 455.314 134.717 469.889 152.689 469.889Z" fill="#7FA024"/>
</svg>
