<svg width="1279" height="992" viewBox="0 0 1279 992" fill="none" xmlns="http://www.w3.org/2000/svg">
<path d="M1272.44 11.6074H11.6094V552.514H1272.44V11.6074Z" fill="#FAFAFA"/>
<path d="M1144.74 595.4H1079.13V990.989H1144.74V595.4Z" fill="#303030"/>
<path d="M1089.22 991.999H1068.02V594.393H1089.22V991.999ZM1070.04 989.981H1087.2V596.411H1070.04V989.981Z" fill="#232323"/>
<path d="M1087.3 609.132L1069.13 616.195L1069.87 618.077L1088.03 611.014L1087.3 609.132Z" fill="#232323"/>
<path d="M1087.3 639.406L1069.13 646.469L1069.86 648.35L1088.03 641.287L1087.3 639.406Z" fill="#232323"/>
<path d="M1087.3 669.677L1069.13 676.74L1069.86 678.622L1088.03 671.559L1087.3 669.677Z" fill="#232323"/>
<path d="M1087.3 699.953L1069.13 707.016L1069.87 708.897L1088.03 701.834L1087.3 699.953Z" fill="#232323"/>
<path d="M1087.3 730.228L1069.13 737.291L1069.86 739.173L1088.03 732.11L1087.3 730.228Z" fill="#232323"/>
<path d="M1087.3 760.505L1069.13 767.568L1069.86 769.45L1088.03 762.387L1087.3 760.505Z" fill="#232323"/>
<path d="M1087.3 790.779L1069.13 797.842L1069.87 799.723L1088.03 792.66L1087.3 790.779Z" fill="#232323"/>
<path d="M1087.29 821.056L1069.12 828.119L1069.86 830.001L1088.03 822.938L1087.29 821.056Z" fill="#232323"/>
<path d="M1087.3 851.33L1069.13 858.393L1069.86 860.274L1088.03 853.211L1087.3 851.33Z" fill="#232323"/>
<path d="M1087.3 881.607L1069.13 888.67L1069.87 890.552L1088.03 883.489L1087.3 881.607Z" fill="#232323"/>
<path d="M1087.29 911.876L1069.12 918.939L1069.86 920.821L1088.03 913.758L1087.29 911.876Z" fill="#232323"/>
<path d="M1087.3 942.152L1069.13 949.215L1069.86 951.096L1088.03 944.033L1087.3 942.152Z" fill="#232323"/>
<path d="M1266.89 12.1098V544.943H12.1137V12.1098H1266.89ZM1279 0H0V557.053H1279V0Z" fill="#232323"/>
<path d="M1216.92 557.051H57.541V606.499H1216.92V557.051Z" fill="#232323"/>
<path d="M1218.94 569.514H55.5234L57.5424 561.088H1216.92L1218.94 569.514Z" fill="#606060"/>
<path d="M1218.94 582.743H55.5234L57.5424 574.316H1216.92L1218.94 582.743Z" fill="#606060"/>
<path d="M1218.94 595.796H55.5234L57.5424 587.369H1216.92L1218.94 595.796Z" fill="#606060"/>
<path d="M1218.94 609.026H55.5234L57.5424 600.6H1216.92L1218.94 609.026Z" fill="#606060"/>
<path d="M103.976 608.52H93.8809V646.867H103.976V608.52Z" fill="#303030"/>
<path d="M1279 627.691H4.03711V633.746H1279V627.691Z" fill="#606060"/>
<path d="M275.587 608.52H265.492V646.867H275.587V608.52Z" fill="#303030"/>
<path d="M275.587 637.785H265.492V646.868H275.587V637.785Z" fill="#606060"/>
<path d="M302.839 608.52H292.744V646.867H302.839V608.52Z" fill="#303030"/>
<path d="M302.839 637.785H292.744V646.868H302.839V637.785Z" fill="#606060"/>
<path d="M474.452 608.52H464.357V646.867H474.452V608.52Z" fill="#303030"/>
<path d="M552.181 608.52H542.086V646.867H552.181V608.52Z" fill="#303030"/>
<path d="M552.181 637.785H542.086V646.868H552.181V637.785Z" fill="#606060"/>
<path d="M723.79 608.52H713.695V646.867H723.79V608.52Z" fill="#303030"/>
<path d="M723.79 637.785H713.695V646.868H723.79V637.785Z" fill="#606060"/>
<path d="M784.358 608.52H774.264V646.867H784.358V608.52Z" fill="#303030"/>
<path d="M784.358 637.785H774.264V646.868H784.358V637.785Z" fill="#606060"/>
<path d="M955.97 608.52H945.875V646.867H955.97V608.52Z" fill="#303030"/>
<path d="M955.97 637.785H945.875V646.868H955.97V637.785Z" fill="#606060"/>
<path d="M1172 608.52H1161.9V646.867H1172V608.52Z" fill="#303030"/>
<path d="M1172 637.785H1161.9V646.868H1172V637.785Z" fill="#606060"/>
<path d="M1054.84 600.449H1047.89C1041.45 600.449 1035.27 597.891 1030.72 593.338C1026.17 588.784 1023.61 582.608 1023.61 576.169V574.211H1079.13V576.169C1079.13 582.608 1076.57 588.784 1072.01 593.338C1067.46 597.891 1061.28 600.449 1054.84 600.449Z" fill="#8A9995"/>
<path d="M1047.83 636.772H1050.86L1052.88 632.988V599.434H1049.85V633.119L1047.83 636.772Z" fill="#303030"/>
<path d="M180.697 574.207H236.218V576.165C236.218 579.353 235.59 582.511 234.369 585.457C233.149 588.402 231.36 591.079 229.104 593.334C226.849 595.588 224.172 597.377 221.225 598.597C218.278 599.817 215.12 600.445 211.93 600.445H204.985C201.796 600.445 198.637 599.817 195.691 598.597C192.744 597.377 190.066 595.588 187.811 593.334C185.556 591.079 183.767 588.402 182.546 585.457C181.325 582.511 180.697 579.353 180.697 576.165V574.207Z" fill="#8A9995"/>
<path d="M211.987 636.772H208.958L206.939 632.988V599.434H209.968V633.119L211.987 636.772Z" fill="#303030"/>
</svg>
