<svg width="460" height="371" viewBox="0 0 460 371" fill="none" xmlns="http://www.w3.org/2000/svg">
<path d="M459.998 110.447H4.03516V315.694H459.998V110.447Z" fill="#606060"/>
<path d="M18.1578 104.031H0V321.464H18.1578V104.031Z" fill="#8A9995"/>
<path d="M459.998 104.672H441.84V322.105H459.998V104.672Z" fill="#8A9995"/>
<path d="M435 -0.427734H31V461.027H435V-0.427734Z" fill="#3D3B38"/>
<path d="M237.802 21.8984H230.539V68.7781H237.802V21.8984Z" fill="white"/>
<path d="M237.802 88.1367H230.539V135.016H237.802V88.1367Z" fill="white"/>
<path d="M237.802 154.887H230.539V201.766H237.802V154.887Z" fill="white"/>
<path d="M237.802 221.129H230.539V268.008H237.802V221.129Z" fill="white"/>
<path d="M48 -1H43V461.597H48V-1Z" fill="white"/>
<path d="M423.132 -0.431641H418.027V462.001H423.132V-0.431641Z" fill="white"/>
<path d="M237.802 282.301H230.539V329.18H237.802V282.301Z" fill="white"/>
<path d="M237.802 348.541H230.539V395.421H237.802V348.541Z" fill="white"/>
<path d="M427.718 80.2988H411.578V345.195H427.718V80.2988Z" fill="#8A9995"/>
<path d="M425.198 96.3438H413.598V321.474H425.198V96.3438Z" fill="#FAFAFA"/>
<path d="M49.4293 80.2988H33.2891V345.195H49.4293V80.2988Z" fill="#8A9995"/>
<path d="M46.9055 96.3438H35.3047V321.474H46.9055V96.3438Z" fill="#FAFAFA"/>
</svg>
