<svg width="378" height="793" viewBox="0 0 378 793" fill="none" xmlns="http://www.w3.org/2000/svg">
<path d="M286.852 181.33C311.279 192.28 309.594 204.073 311.279 205.757C312.963 207.442 338.233 209.126 340.76 205.757C343.287 202.388 341.602 189.753 356.764 174.591C342.444 178.803 334.864 193.965 334.864 193.965C334.864 193.965 337.391 172.065 350.868 152.691C333.179 161.957 325.598 183.015 325.598 183.015C321.387 172.907 317.175 156.903 298.644 143.426C314.648 170.38 314.648 189.753 314.648 189.753C314.648 189.753 304.54 178.803 286.852 181.33Z" fill="#7FA024"/>
<path d="M0 472.32C23.5848 479.059 46.3274 496.748 49.6966 498.432C53.0659 500.117 82.547 501.801 85.0739 498.432C87.6009 495.063 96.8663 472.32 112.028 452.105C91.8124 459.686 80.02 482.428 80.02 482.428C80.02 482.428 70.7545 464.74 73.2815 443.682C59.8044 457.159 65.7007 476.532 65.7007 476.532C51.8193 466.492 48.012 453.789 25.2695 451.262C48.012 468.109 47.1697 479.901 47.1697 479.901C47.1697 479.901 17.6886 468.109 0 472.32Z" fill="#7FA024"/>
<path d="M378 761.336C372.396 770.054 371.774 784.997 371.151 786.865C370.528 788.733 353.094 789.979 351.848 786.865C350.603 783.752 348.113 775.658 334.414 767.563C345.622 767.563 356.207 776.903 356.207 776.903C356.207 776.903 358.075 768.808 352.471 757.6C357.452 759.468 359.943 766.318 359.943 766.318C359.943 766.318 363.679 750.129 375.509 743.279C369.283 753.242 369.283 770.676 369.283 770.676C369.283 770.676 372.396 762.582 378 761.336Z" fill="#7FA024"/>
<path d="M250.977 791.845C253.324 790.805 235.41 789.977 237.278 787.486C239.146 784.996 282.11 787.486 293.317 787.486C304.525 787.486 303.903 764.448 280.864 768.184C282.732 760.09 274.015 755.731 269.034 759.467C272.147 751.372 265.921 742.655 257.826 745.768C269.034 712.768 229.184 716.503 212.995 728.957C215.485 723.975 211.127 718.371 206.768 721.485C205.523 702.182 181.239 712.145 179.371 715.258C181.239 709.654 173.767 687.239 151.974 701.56C157.578 680.389 133.294 671.672 117.105 701.56C115.237 689.729 80.9912 683.503 87.2177 714.013C83.4818 712.768 64.1794 711.522 70.406 727.711C67.2927 725.843 49.2356 731.447 61.6888 742.032C56.0849 742.032 31.8012 750.127 43.009 771.92C35.5371 766.316 16.8574 767.561 25.5746 781.883C21.8387 780.637 14.3668 782.505 12.4988 786.864C10.6308 791.222 14.9894 791.845 21.216 791.845C27.4426 791.845 245.373 794.336 250.977 791.845Z" fill="#7FA024"/>
<path d="M138.587 734.248C142.323 737.984 132.983 744.833 131.115 740.474C129.247 736.116 134.851 730.512 138.587 734.248Z" fill="#512176"/>
<path d="M141.701 747.327C143.949 749.575 138.588 751.686 137.343 749.195C136.097 746.704 139.833 745.459 141.701 747.327Z" fill="#512176"/>
<path d="M151.665 737.364C153.484 739.182 147.929 745.458 146.062 741.722C144.194 737.986 149.797 735.496 151.665 737.364Z" fill="#512176"/>
<path d="M129.25 746.702C129.53 747.536 125.514 749.192 124.269 746.702C123.023 744.211 128.004 742.966 129.25 746.702Z" fill="#512176"/>
<path d="M123.02 736.741C122.479 738.921 116.794 738.609 118.039 735.496C119.284 732.383 123.643 734.251 123.02 736.741Z" fill="#512176"/>
<path d="M120.531 753.556C121.776 755.424 118.04 758.537 116.172 756.046C114.304 753.556 119.285 751.688 120.531 753.556Z" fill="#512176"/>
<path d="M118.041 746.082C118.664 747.327 113.682 749.818 112.437 746.704C111.192 743.591 116.796 743.591 118.041 746.082Z" fill="#512176"/>
<path d="M161.005 750.44C160.382 752.308 153.533 751.685 154.778 749.195C156.023 746.704 161.627 748.572 161.005 750.44Z" fill="#512176"/>
<path d="M102.475 751.685C103.098 754.175 98.1166 756.666 96.8712 754.798C95.6259 752.93 101.852 749.194 102.475 751.685Z" fill="#512176"/>
<path d="M356.551 586.906C356.551 586.906 356.869 576.405 343.187 579.269C365.779 567.496 346.687 554.768 340.005 560.177C347.96 515.948 309.14 518.493 293.548 522.63C320.595 473.309 267.774 473.309 248.364 488.265C230.864 440.217 186.952 470.764 188.225 487.947C183.77 472.673 170.406 484.765 172.315 491.765C160.86 477.128 148.769 489.219 150.042 494.947C114.404 465.036 111.222 498.765 116.313 505.766C107.403 500.038 104.221 508.947 108.676 513.402C94.039 508.947 87.0387 521.039 93.4026 530.585C71.1288 519.766 65.4013 537.585 68.5833 543.313C36.1272 532.494 41.2184 566.859 54.5826 567.496C43.1275 575.132 48.8551 584.678 57.1282 586.587C64.0585 588.178 357.506 591.679 356.551 586.906Z" fill="#7FA024"/>
<path d="M270.637 514.355C266.183 512.446 264.91 521.992 268.092 522.629C271.274 523.265 275.092 516.265 270.637 514.355Z" fill="#512176"/>
<path d="M247.091 507.993C244.978 509.679 249 514.993 251.545 513.084C254.091 511.175 250.273 505.447 247.091 507.993Z" fill="#512176"/>
<path d="M259.184 520.084C256.931 518.734 255.366 523.266 257.275 523.902C259.184 524.538 262.366 521.993 259.184 520.084Z" fill="#512176"/>
<path d="M261.728 504.809C259.227 504.312 259.183 509.9 261.728 510.536C264.274 511.172 264.91 505.445 261.728 504.809Z" fill="#512176"/>
<path d="M256.637 513.72C254.091 514.993 259.182 517.538 260.455 516.266C261.728 514.993 259.182 512.447 256.637 513.72Z" fill="#512176"/>
<path d="M171.359 520.083C169.106 517.83 166.904 521.356 168.813 522.628C170.722 523.901 172.632 521.356 171.359 520.083Z" fill="#512176"/>
<path d="M168.179 527.721C167.543 528.994 171.998 528.358 171.998 527.721C171.998 527.085 168.816 526.448 168.179 527.721Z" fill="#512176"/>
<path d="M157.359 527.719C157.359 529.628 161.178 530.265 161.178 528.356C161.178 526.446 157.359 525.81 157.359 527.719Z" fill="#512176"/>
<path d="M166.27 532.175C164.093 532.901 166.906 535.357 168.816 534.084C170.725 532.812 168.179 531.539 166.27 532.175Z" fill="#512176"/>
<path d="M165.632 523.902C163.01 524.538 164.996 527.084 166.269 526.448C167.541 525.811 168.178 523.266 165.632 523.902Z" fill="#512176"/>
<path d="M97.5379 549.356C96.2651 551.902 98.8107 553.175 100.72 550.629C102.629 548.084 98.8107 546.811 97.5379 549.356Z" fill="#512176"/>
<path d="M102.63 551.904C100.721 553.177 103.266 556.359 104.539 554.45C105.812 552.541 104.539 550.632 102.63 551.904Z" fill="#512176"/>
<path d="M99.4499 555.086C97.5407 553.813 95.6315 555.086 96.9043 556.359C98.1771 557.631 101.359 556.359 99.4499 555.086Z" fill="#512176"/>
<path d="M89.2646 554.451C88.1827 555.889 91.8101 556.996 92.4465 555.723C93.0829 554.451 91.1737 551.905 89.2646 554.451Z" fill="#512176"/>
<path d="M86.7202 561.451C87.1657 562.8 91.175 560.814 89.2658 559.542C87.3566 558.269 86.0838 559.542 86.7202 561.451Z" fill="#512176"/>
<path d="M261.03 174.877C275.645 174.877 305.673 174.035 305.673 161.207C305.673 154.833 302.023 151.183 294.723 150.257C308.402 145.691 300.198 131.111 295.641 133.848C312.049 90.9996 265.554 94.647 251.841 99.2039C305.623 58.1915 250.931 41.7832 232.703 49.0692C245.464 31.7512 224.499 28.1124 221.753 31.7512C216.287 -11.9987 157.948 -3.79469 153.391 16.2609C92.3145 -23.8502 69.5299 36.308 76.8243 47.2497C39.4507 46.34 52.2118 75.5094 56.7688 78.2385C20.3049 80.0664 25.78 111.089 40.3605 124.726C16.6577 124.726 23.9521 152.986 36.7132 152.986C27.5994 153.896 11.1911 152.076 12.1008 165.747C12.6483 173.884 16.6577 173.951 33.066 174.861C49.4743 175.77 254.629 174.877 261.03 174.877Z" fill="#7FA024"/>
<path d="M136.585 52.2772C130.2 58.6619 138.404 65.948 145.698 58.662C152.993 51.376 142.961 45.9008 136.585 52.2772Z" fill="#512176"/>
<path d="M107.418 77.7999C111.049 87.7897 122.917 73.243 118.368 70.5139C113.82 67.7848 103.771 67.7763 107.418 77.7999Z" fill="#512176"/>
<path d="M141.143 75.0936C134.758 77.8227 140.233 84.2073 148.437 81.4697C156.641 78.7322 147.519 72.3308 141.143 75.0936Z" fill="#512176"/>
</svg>
