<svg width="361" height="773" viewBox="0 0 361 773" fill="none" xmlns="http://www.w3.org/2000/svg">
<path d="M56.9707 646.618C78.7696 655.255 107.149 684.458 107.149 684.458C107.149 684.458 126.48 692.272 142.932 684.869C142.932 684.869 190.643 642.094 206.684 634.279C185.707 634.69 160.618 653.199 160.618 653.199C160.618 653.199 167.61 614.948 200.103 581.633C169.255 589.448 142.521 647.441 142.521 647.441C142.521 647.441 143.755 612.48 157.328 593.149C134.706 610.012 126.069 648.263 126.069 648.263C126.069 648.263 107.561 629.755 93.9876 600.553C100.157 631.4 111.674 665.127 111.674 665.127C111.674 665.127 81.2374 642.916 56.9707 646.618Z" fill="#7FA024"/>
<path d="M233.184 700.656C252.103 708.882 272.668 743.431 272.668 743.431C272.668 743.431 285.83 688.317 308.04 667.752C297.346 689.14 291.588 740.141 291.588 740.141C291.588 740.141 307.217 705.591 326.96 692.43C313.798 710.527 304.75 759.06 303.104 761.528C301.459 763.996 268.555 777.158 265.265 771.399C261.975 765.641 254.571 731.092 233.184 700.656Z" fill="#7FA024"/>
<path d="M0.00268613 143.858C0.00268613 143.858 -0.365107 131.72 15.45 135.031C-10.6633 121.422 11.4043 106.71 19.128 112.963C9.93311 61.8396 54.8039 64.782 72.8258 69.5633C41.5634 12.5553 102.617 12.5553 125.053 29.8416C145.281 -25.6953 196.037 9.61293 194.566 29.4738C199.715 11.8197 215.162 25.7958 212.955 33.8873C226.196 16.9688 240.172 30.945 238.701 37.5652C279.894 2.99264 283.572 41.9788 277.687 50.0702C287.985 43.4499 291.663 53.7481 286.514 58.8973C303.432 53.7481 311.524 67.7243 304.168 78.7581C329.914 66.2531 336.534 86.8496 332.856 93.4699C370.371 80.9649 364.486 120.687 349.039 121.422C362.279 130.249 355.659 141.283 346.096 143.49C338.086 145.329 -1.10069 149.374 0.00268613 143.858Z" fill="#7FA024"/>
<path d="M99.3047 60.0022C104.454 57.7954 105.925 68.8292 102.247 69.5648C98.5691 70.3004 94.1556 62.209 99.3047 60.0022Z" fill="#512176"/>
<path d="M126.524 52.6435C128.959 54.5928 124.318 60.7349 121.375 58.5282C118.433 56.3214 122.847 49.7011 126.524 52.6435Z" fill="#512176"/>
<path d="M112.547 66.6224C115.151 65.063 116.961 70.3004 114.754 71.036C112.547 71.7715 108.869 68.8292 112.547 66.6224Z" fill="#512176"/>
<path d="M109.604 48.9657C112.487 48.392 112.546 54.8504 109.604 55.586C106.661 56.3216 105.926 49.7013 109.604 48.9657Z" fill="#512176"/>
<path d="M115.492 59.2623C118.435 60.7335 112.55 63.6758 111.079 62.2046C109.608 60.7335 112.55 57.7911 115.492 59.2623Z" fill="#512176"/>
<path d="M214.06 66.6213C216.664 64.0173 219.209 68.0925 217.003 69.5636C214.796 71.0348 212.589 68.0925 214.06 66.6213Z" fill="#512176"/>
<path d="M217.738 75.449C218.473 76.9202 213.324 76.1846 213.324 75.449C213.324 74.7134 217.002 73.9778 217.738 75.449Z" fill="#512176"/>
<path d="M225.093 64.4155C227.299 65.8867 223.621 70.3002 222.15 68.0935C220.679 65.8867 222.886 62.9443 225.093 64.4155Z" fill="#512176"/>
<path d="M230.242 75.4477C230.242 77.6544 225.828 78.39 225.828 76.1833C225.828 73.9765 230.242 73.2409 230.242 75.4477Z" fill="#512176"/>
<path d="M219.943 80.598C222.458 81.4366 219.207 84.2759 217 82.8048C214.794 81.3336 217.736 79.8624 219.943 80.598Z" fill="#512176"/>
<path d="M220.681 71.0331C223.712 71.7687 221.417 74.711 219.945 73.9754C218.474 73.2398 217.739 70.2975 220.681 71.0331Z" fill="#512176"/>
<path d="M299.386 100.457C300.857 103.4 297.915 104.871 295.708 101.929C293.501 98.9862 297.915 97.515 299.386 100.457Z" fill="#512176"/>
<path d="M293.502 103.398C295.709 104.869 292.766 108.547 291.295 106.341C289.824 104.134 291.295 101.927 293.502 103.398Z" fill="#512176"/>
<path d="M297.18 107.078C299.387 105.607 301.594 107.078 300.123 108.549C298.652 110.02 294.974 108.549 297.18 107.078Z" fill="#512176"/>
<path d="M308.949 106.343C310.2 108.005 306.007 109.285 305.271 107.814C304.536 106.343 306.742 103.401 308.949 106.343Z" fill="#512176"/>
<path d="M311.891 114.436C311.368 115.995 306.742 113.7 308.948 112.229C311.155 110.758 312.626 112.229 311.891 114.436Z" fill="#512176"/>
<path d="M118.475 540.703C105.314 540.703 78.168 539.881 78.168 528.364C78.168 522.606 81.4584 519.316 88.0392 518.493C75.7002 514.38 83.1036 501.218 87.2166 503.686C72.4098 465.024 114.362 468.314 126.701 472.427C78.168 435.41 127.524 420.604 143.976 427.184C132.459 411.555 151.379 408.265 153.847 411.555C158.783 372.07 211.429 379.474 215.542 397.571C270.656 361.377 291.221 415.668 284.64 425.539C318.367 424.717 306.85 451.04 302.737 453.508C335.641 455.153 330.706 483.121 317.544 495.46C338.932 495.46 332.351 520.961 320.835 520.961C329.061 521.783 343.867 520.138 343.045 532.477C342.559 539.815 338.932 539.881 324.125 540.703C309.318 541.526 124.234 540.703 118.475 540.703Z" fill="#7FA024"/>
<path d="M230.761 430.063C236.519 435.821 229.116 442.402 222.535 435.821C215.954 429.241 225.003 424.305 230.761 430.063Z" fill="#512176"/>
<path d="M257.083 453.095C253.792 462.144 243.098 448.982 247.211 446.514C251.324 444.046 260.373 444.046 257.083 453.095Z" fill="#512176"/>
<path d="M226.65 450.623C232.408 453.091 227.473 458.849 220.069 456.382C212.666 453.914 220.892 448.156 226.65 450.623Z" fill="#512176"/>
<path d="M166.596 489.288C172.354 495.047 160.838 498.337 158.37 493.401C155.902 488.466 160.838 483.53 166.596 489.288Z" fill="#512176"/>
<path d="M133.693 486.82C137.806 478.594 145.209 483.53 141.919 490.933C138.628 498.336 129.58 495.046 133.693 486.82Z" fill="#512176"/>
</svg>
