<svg width="65" height="47" viewBox="0 0 65 47" fill="none" xmlns="http://www.w3.org/2000/svg">
<path id="Vector" d="M0.457031 28.6327C9.81666 32.3413 22.0018 44.8796 22.0018 44.8796C22.0018 44.8796 30.3019 48.235 37.3657 45.0562C37.3657 45.0562 57.851 26.6902 64.7382 23.3348C55.7318 23.5114 44.9594 31.4583 44.9594 31.4583C44.9594 31.4583 47.9615 15.0348 61.9127 0.730469C48.6679 4.08581 37.1891 28.9859 37.1891 28.9859C37.1891 28.9859 37.7189 13.9752 43.5466 5.67518C33.8338 12.9156 30.1253 29.3391 30.1253 29.3391C30.1253 29.3391 22.1784 21.3923 16.3507 8.85392C18.9997 22.0987 23.9444 36.5796 23.9444 36.5796C23.9444 36.5796 10.8762 27.0434 0.457031 28.6327Z" fill="#7FA024"/>
</svg>
