<svg width="168" height="52" viewBox="0 0 168 52" fill="none" xmlns="http://www.w3.org/2000/svg">
<g id="&#208;&#186;&#209;&#131;&#209;&#129;&#209;&#130;&#209;&#139;">
<path id="Vector" d="M61.797 32.4141C61.797 32.4141 54.5639 26.0284 57.1155 23.8999C59.6671 21.7713 63.487 27.3086 63.487 27.3086C63.487 27.3086 56.6816 16.2249 62.2127 13.6676C67.7437 11.1103 70.708 25.1771 70.708 25.1771C70.708 25.1771 66.879 0.874893 77.0794 0.0234677C87.2799 -0.827958 83.0656 21.7713 83.0656 21.7713C83.0656 21.7713 84.7677 8.553 89.4371 9.83318C94.1065 11.1134 89.4371 22.6227 89.4371 22.6227C89.4371 22.6227 94.1186 13.2449 96.6702 14.5221C99.2218 15.7992 91.9917 29.0176 91.9917 29.0176C91.9917 29.0176 96.6702 23.4772 98.7971 24.7605C100.924 26.0437 94.5494 32.4354 94.5494 32.4354L61.797 32.4141Z" fill="#7FA024"/>
<path id="Vector_2" d="M0.07724 43.2753C0.07724 43.2753 -12.1772 37.9569 -9.65898 34.7428C-7.14073 31.5287 -1.20616 37.5342 -1.20616 37.5342C-1.20616 37.5342 -12.2561 28.1563 -8.77001 24.7111C-3.97927 19.9553 3.70594 33.1372 3.70594 33.1372C3.70594 33.1372 -7.25299 14.1382 -2.03445 11.958C4.77392 9.12395 9.4342 31.252 9.4342 31.252C9.4342 31.252 7.15867 21.7585 11.2728 21.1048C17.1194 20.1773 15.7359 34.7489 15.7359 34.7489C15.7359 34.7489 16.5824 27.7915 19.225 28.4331C23.7488 29.5309 18.8245 36.9138 18.8245 36.9138L0.07724 43.2753Z" fill="#7FA024"/>
<path id="Vector_3" d="M134.756 42.8405C134.756 42.8405 125.791 35.3175 128.327 32.6021C130.863 29.8867 135.791 36.4 135.791 36.4C135.791 36.4 129.298 21.7404 133.494 20.001C137.69 18.2617 144.058 33.2771 144.058 33.2771C144.058 33.2771 139.113 18.7573 144.608 17.8693C150.102 16.9814 150.497 33.119 150.497 33.119C150.497 33.119 153.646 10.2157 161.374 12.1071C169.101 13.9985 156.28 38.3309 156.28 38.3309C156.28 38.3309 161.635 29.7954 165.057 32.5868C168.479 35.3783 160.124 45.6623 160.124 45.6623C160.124 45.6623 166.034 40.122 167.785 43.1324C169.535 46.1428 159.92 51.9994 159.92 51.9994L134.756 42.8405Z" fill="#7FA024"/>
</g>
</svg>
