<svg width="768" height="420" viewBox="0 0 768 420" fill="none" xmlns="http://www.w3.org/2000/svg">
<path d="M824 406.696C824 406.696 747.789 419.063 666.18 419.063C584.571 419.063 468.355 373.081 408.339 375.709C348.324 378.336 117.157 425.631 47.932 419.063C-21.2896 412.496 -54.9492 410.744 -54.9492 410.744L-54.6311 21.0166C-54.6311 21.0166 104.426 -33.4112 342.057 32.9114C440.602 60.4136 483.961 74.9144 566.964 53.4569C698.026 19.5748 824 24.621 824 24.621V406.696Z" fill="#567A4D"/>
<path d="M824 376.061C824 376.061 747.188 406.699 665.579 406.699C583.97 406.699 465.059 361.899 405.044 364.526C345.028 367.154 113.527 413.266 44.3023 406.699C-24.9224 400.132 -54.9492 377.503 -54.9492 377.503L-54.6311 21.0191C-54.6311 21.0191 104.108 -21.5139 341.739 44.8087C440.284 72.3109 475.69 94.7416 558.693 73.2841C689.755 39.4019 824 32.5534 824 32.5534V376.061Z" fill="#3E893F"/>
<path d="M824 351.91C824 351.91 745.915 391.56 664.306 391.56C582.697 391.56 465.059 361.898 405.044 364.526C345.028 367.154 112.573 403.894 43.348 397.327C-25.8768 390.759 -54.9492 361.282 -54.9492 361.282L-54.6311 39.4014C-54.6311 39.4014 104.108 -21.5144 341.739 44.8081C440.284 72.3103 475.69 94.741 558.693 73.2836C689.755 39.4014 824 99.5963 824 99.5963V351.91Z" fill="#567A4D"/>
<path d="M-54.6289 39.4009C-54.6289 39.4009 25.8285 15.6113 126.06 15.6113C302.613 15.6113 649.039 185.743 649.039 185.743C649.039 185.743 301.659 129.513 113.653 159.43C13.7401 175.33 -54.6289 196.556 -54.6289 196.556V39.4009Z" fill="#3E893F"/>
<path d="M108.888 77.9653C95.9785 52.5789 85.3566 32.0586 77.6933 17.3848C66.5752 18.1886 55.8929 19.2193 45.7578 20.4016C55.7943 35.0718 68.1753 56.0176 81.2116 84.8138C91.7539 108.099 101.972 134.732 110.904 159.866C111.821 159.719 112.737 159.571 113.659 159.427C122.131 158.079 130.926 156.907 139.996 155.894C130.077 127.026 119.032 97.9197 108.888 77.9653Z" fill="#567A4D"/>
<path d="M236.77 77.9675C226.065 56.4884 214.944 38.2064 205.503 24.0588C191.849 21.5141 178.606 19.4776 165.91 18.043C175.819 33.1313 188.63 55.043 202.414 84.816C211.833 105.163 221.373 128.387 230.064 150.782C241.92 150.619 253.958 150.62 266.1 150.76C256.617 123.892 246.205 96.9019 236.77 77.9675Z" fill="#567A4D"/>
<path d="M173.784 84.8155C160.522 53.0888 147.877 30.7303 138.117 15.8618C134.02 15.696 129.999 15.6094 126.067 15.6094C120.414 15.6094 114.825 15.685 109.309 15.8292C120.239 32.4639 134.853 57.3241 148.971 89.5013C157.484 108.904 165.907 131.274 173.491 152.951C182.147 152.374 190.981 151.913 199.961 151.563C191.627 129.23 182.57 105.833 173.784 84.8155Z" fill="#567A4D"/>
<path d="M-16.1332 106.08C-27.2513 83.9993 -41.7382 61.1829 -54.625 42.3711V89.9899C-47.3116 100.843 -40.8125 111.869 -36.1744 122.297C-28.352 139.887 -21.8561 163.478 -16.7822 186.158C-8.98839 184.179 -0.109833 182.002 9.74215 179.709C2.66412 153.411 -6.16354 125.887 -16.1332 106.08Z" fill="#567A4D"/>
<path d="M45.9011 77.9671C33.975 55.5796 23.4709 37.9681 14.9518 24.6387C3.10522 26.5166 -7.5516 28.4992 -16.7578 30.3772C-5.23891 44.9969 7.68606 63.8736 17.274 84.8121C26.4739 104.903 37.1816 138.923 46.515 171.666C56.4306 169.626 66.9348 167.571 77.9638 165.545C69.3747 134.356 58.5016 101.623 45.9011 77.9671Z" fill="#567A4D"/>
<path d="M823.999 118.18C823.999 118.18 743.049 94.4336 643.002 94.4336C572.435 94.4336 474.984 122.783 382.823 154.315C166.34 139.861 -5.42196 179.564 -54.9491 204.172C-55.0636 204.23 -54.9491 344.851 -54.9491 344.851C23.8 413.931 205.516 353.708 363.886 345.929C443.036 342.04 601.422 351.091 663.96 361.039C763.695 376.91 823.999 331.176 823.999 331.176V118.18Z" fill="#3E893F"/>
<path d="M50.1557 221.44C57.3451 201.961 64.1336 184.746 70.4577 169.582C54.393 172.422 39.5021 175.454 25.8868 178.575C20.8351 190.279 16.0666 202.43 11.7339 214.966C-6.67852 268.244 -17.5389 330.237 -22.5938 364.354C-11.1194 368.968 1.47792 372.208 15.0168 374.335C18.5416 345.247 28.2249 280.86 50.1557 221.44Z" fill="#567A4D"/>
<path d="M189.557 218.204C198.897 192.894 207.562 171.411 215.41 153.27C201.203 154.048 187.381 155.029 173.982 156.182C165.695 173.592 157.886 192.194 151.135 211.727C129.796 273.475 118.599 346.928 114.832 375.126C127.741 373.994 140.975 372.537 154.447 370.883C157.991 341.69 167.68 277.476 189.557 218.204Z" fill="#567A4D"/>
<path d="M805.761 113.629C797.862 111.751 787.53 109.469 775.216 107.145C751.611 141.607 721.944 191.789 701.747 250.228C688.854 287.535 679.664 329.112 673.578 362.403C687.158 364.076 699.943 364.616 711.879 364.31C717.503 333.088 726.433 293.922 740.169 256.705C771.121 172.844 794.624 130.985 805.761 113.629Z" fill="#567A4D"/>
<path d="M823.998 141.238C803.747 173.538 781.018 214.838 764.934 261.376C753.482 294.512 744.953 331.018 738.922 362.092C756.994 359.573 772.441 355.269 784.991 350.655C788.49 324.897 794.169 295.993 803.353 267.849C810.106 247.149 817.486 228.867 823.995 212.809V141.238H823.998Z" fill="#567A4D"/>
<path d="M520.453 112.688C506.685 116.094 492.662 119.868 478.5 123.926C456.941 157.271 432.443 201.571 415.004 252.022C404.475 282.488 396.417 315.804 390.5 345.13C404.068 344.932 418.93 344.982 434.543 345.238C437.991 318.511 443.771 288.085 453.426 258.5C481.236 173.293 508.857 128.98 520.453 112.688Z" fill="#567A4D"/>
<path d="M79.9258 377.35C84.1726 345.432 93.9896 287.13 113.983 232.954C124.894 203.39 134.88 179.046 143.723 159.156C129.027 160.778 114.928 162.598 101.478 164.574C92.0522 183.786 83.1387 204.547 75.5612 226.477C56.9325 280.382 46.0339 343.208 41.0586 377.058C53.4555 377.786 66.4473 377.833 79.9258 377.35Z" fill="#567A4D"/>
<path d="M609.344 227.558C635.273 157.303 655.976 116.525 668.561 94.9382C660.217 94.6102 651.685 94.4336 643.004 94.4336C639.848 94.4336 636.635 94.4912 633.374 94.6029C612.07 127.757 588.078 171.44 570.922 221.081C555.843 264.713 545.829 314.188 539.922 349.411C553.019 350.201 565.87 351.069 578.201 352.006C583.459 318.874 593.002 271.835 609.344 227.558Z" fill="#567A4D"/>
<path d="M539.485 227.557C564.346 160.2 584.399 119.941 597.102 97.709C584.326 99.3743 571.029 101.634 557.35 104.377C537.694 136.147 516.584 176.175 501.063 221.08C486.443 263.382 476.584 311.177 470.613 346.152C483.29 346.577 496.177 347.107 509.029 347.734C514.418 314.904 523.834 269.964 539.485 227.557Z" fill="#567A4D"/>
<path d="M259.413 218.202C269.106 191.94 278.067 169.801 286.148 151.238C272.45 151.278 259.016 151.523 245.871 151.948C236.83 170.562 228.289 190.607 220.988 211.729C201.507 268.099 190.478 334.231 185.84 366.772C198.94 364.974 212.199 363.074 225.544 361.182C229.892 328.972 239.712 271.585 259.413 218.202Z" fill="#567A4D"/>
<path d="M676.344 245.188C707.551 160.63 731.19 118.775 742.213 101.682C732.116 100.244 721.306 98.9104 709.915 97.793C686.559 132.18 657.699 181.486 637.922 238.71C624.546 277.415 615.158 320.716 609.082 354.587C623.082 355.878 635.905 357.247 647.02 358.653C652.559 326.566 661.733 284.776 676.344 245.188Z" fill="#567A4D"/>
<path d="M390.243 247.346C409.275 195.774 425.493 160.085 437.753 136.213C422.588 140.989 407.398 145.985 392.317 151.085C377.661 177.484 363.231 207.859 351.824 240.869C339.472 276.611 330.52 316.271 324.438 348.813C337.611 347.573 350.698 346.585 363.629 345.944C369.295 316.383 377.798 281.066 390.243 247.346Z" fill="#567A4D"/>
<path d="M326.415 235.836C339.04 201.626 350.426 174.416 360.236 152.998C347.305 152.346 334.546 151.884 321.98 151.6C309.612 175.058 297.705 201.255 287.993 229.363C273.045 272.616 263.075 321.612 257.148 356.774C270.315 354.986 283.514 353.281 296.674 351.753C302.162 319.356 311.431 276.437 326.415 235.836Z" fill="#567A4D"/>
<path d="M17.2378 397.157C27.4418 397.157 35.7138 387.784 35.7138 376.222C35.7138 364.66 27.4418 355.287 17.2378 355.287C7.03373 355.287 -1.23828 364.66 -1.23828 376.222C-1.23828 387.784 7.03373 397.157 17.2378 397.157Z" fill="#38AF38"/>
<path d="M31.6932 383.048C34.5053 377.133 29.2819 358.473 16.4301 358.473C4.78075 358.473 1.16697 371.215 2.37262 378.041C3.57827 384.868 9.123 392.095 17.6357 391.695C27.2746 391.241 30.6879 381.001 29.0815 374.628C27.475 368.255 23.6703 362.567 16.8309 362.567C11.6106 362.567 5.38516 365.981 6.18681 374.628C6.99164 383.275 13.0135 387.828 17.6326 387.143C22.646 386.4 26.0657 381.682 25.4645 375.536C24.9683 370.479 24.0585 366.662 16.8277 367.116C10.6945 367.502 8.9703 375.962 12.2087 379.631C16.4269 384.411 21.0459 380.085 21.0459 375.99C21.0459 371.896 19.6176 370.818 16.8277 371.211C13.6148 371.665 14.5818 377.652 17.0281 375.99" stroke="#6C7C7F" stroke-width="0.318403" stroke-miterlimit="10"/>
<path d="M730.132 272.081C740.336 272.081 748.608 262.708 748.608 251.146C748.608 239.584 740.336 230.211 730.132 230.211C719.928 230.211 711.656 239.584 711.656 251.146C711.656 262.708 719.928 272.081 730.132 272.081Z" fill="#38AF38"/>
<path d="M744.588 257.972C747.4 252.057 742.176 233.396 729.325 233.396C717.675 233.396 714.062 246.138 715.267 252.965C716.473 259.792 722.018 267.019 730.53 266.619C740.169 266.165 743.582 255.924 741.976 249.552C740.37 243.179 736.565 237.491 729.725 237.491C724.505 237.491 718.28 240.905 719.081 249.552C719.883 258.199 725.908 262.751 730.527 262.067C735.541 261.324 738.96 256.606 738.359 250.46C737.863 245.403 736.953 241.586 729.722 242.04C723.589 242.426 721.865 250.886 725.103 254.555C729.321 259.334 733.94 255.009 733.94 250.914C733.94 246.82 732.512 245.742 729.722 246.135C726.509 246.589 727.476 252.576 729.923 250.914" stroke="#6C7C7F" stroke-width="0.318403" stroke-miterlimit="10"/>
<path d="M670.545 389.941C681.747 389.941 690.828 379.651 690.828 366.959C690.828 354.266 681.747 343.977 670.545 343.977C659.343 343.977 650.262 354.266 650.262 366.959C650.262 379.651 659.343 389.941 670.545 389.941Z" fill="#59C659"/>
<path d="M686.423 374.458C689.509 367.963 683.776 347.479 669.665 347.479C656.877 347.479 652.907 361.467 654.23 368.965C655.553 376.459 661.642 384.396 670.988 383.956C681.572 383.455 685.319 372.213 683.557 365.22C681.794 358.224 677.618 351.981 670.107 351.981C664.375 351.981 657.538 355.729 658.423 365.22C659.304 374.714 665.921 379.71 670.991 378.96C676.498 378.145 680.252 372.966 679.59 366.218C679.046 360.667 678.047 356.475 670.11 356.976C663.376 357.402 661.483 366.687 665.039 370.717C669.671 375.965 674.742 371.218 674.742 366.719C674.742 362.221 673.174 361.039 670.11 361.471C666.582 361.972 667.645 368.543 670.33 366.719" stroke="#6C7C7F" stroke-width="0.349575" stroke-miterlimit="10"/>
</svg>
