<svg width="1920" height="1986" viewBox="0 0 1920 1986" fill="none" xmlns="http://www.w3.org/2000/svg">
<g clip-path="url(#clip0_131_3493)">
<rect width="1920" height="1986" fill="white"/>
<path d="M1921 0H0V1986H1921V0Z" fill="#96C22F"/>
<path d="M2086.98 1903.64C2086.98 1903.64 1885.42 1936.35 1669.58 1936.35C1453.74 1936.35 1146.36 1814.73 987.634 1821.68C828.905 1828.63 217.51 1953.72 34.4225 1936.35C-148.656 1918.98 -237.68 1914.34 -237.68 1914.34L-236.838 883.585C-236.838 883.585 183.839 739.634 812.33 915.045C1072.96 987.783 1187.64 1026.14 1407.17 969.384C1753.8 879.772 2086.98 893.118 2086.98 893.118V1903.64Z" fill="#567A4D"/>
<path d="M2086.98 1822.61C2086.98 1822.61 1883.83 1903.64 1667.99 1903.64C1452.15 1903.64 1137.65 1785.15 978.918 1792.1C820.188 1799.05 207.91 1921.01 24.8227 1903.64C-158.264 1886.27 -237.68 1826.42 -237.68 1826.42L-236.838 883.587C-236.838 883.587 182.997 771.095 811.489 946.506C1072.12 1019.24 1165.77 1078.57 1385.29 1021.82C1731.93 932.207 2086.98 914.093 2086.98 914.093V1822.61Z" fill="#3E893F"/>
<path d="M2086.98 1758.74C2086.98 1758.74 1880.46 1863.6 1664.62 1863.6C1448.78 1863.6 1137.65 1785.15 978.918 1792.1C820.188 1799.05 205.386 1896.22 22.2986 1878.85C-160.788 1861.49 -237.68 1783.52 -237.68 1783.52L-236.838 932.207C-236.838 932.207 182.997 771.096 811.489 946.507C1072.12 1019.25 1165.77 1078.57 1385.29 1021.82C1731.93 932.207 2086.98 1091.41 2086.98 1091.41V1758.74Z" fill="#567A4D"/>
<path d="M-236.834 932.206C-236.834 932.206 -24.0388 869.287 241.055 869.287C708.006 869.287 1624.24 1319.25 1624.24 1319.25C1624.24 1319.25 705.482 1170.54 208.242 1249.66C-56.0102 1291.71 -236.834 1347.85 -236.834 1347.85V932.206Z" fill="#3E893F"/>
<path d="M195.625 1034.21C161.483 967.066 133.39 912.794 113.122 873.984C83.7169 876.11 55.4642 878.836 28.6587 881.963C55.2034 920.763 87.9489 976.161 122.428 1052.32C150.31 1113.91 177.334 1184.35 200.96 1250.82C203.383 1250.43 205.806 1250.04 208.246 1249.66C230.651 1246.09 253.914 1243 277.901 1240.32C251.668 1163.97 222.456 1086.98 195.625 1034.21Z" fill="#567A4D"/>
<path d="M533.842 1034.22C505.531 977.407 476.117 929.054 451.146 891.636C415.035 884.906 380.009 879.52 346.431 875.726C372.639 915.632 406.52 973.584 442.976 1052.33C467.888 1106.14 493.121 1167.57 516.106 1226.8C547.464 1226.37 579.3 1226.37 611.415 1226.74C586.334 1155.68 558.797 1084.29 533.842 1034.22Z" fill="#567A4D"/>
<path d="M367.263 1052.32C332.187 968.412 298.743 909.278 272.93 869.954C262.094 869.515 251.459 869.286 241.06 869.286C226.109 869.286 211.326 869.486 196.737 869.868C225.646 913.863 264.298 979.614 301.637 1064.72C324.152 1116.03 346.431 1175.2 366.489 1232.53C389.382 1231 412.746 1229.78 436.498 1228.86C414.454 1169.79 390.501 1107.91 367.263 1052.32Z" fill="#567A4D"/>
<path d="M29.0344 1034.21C-2.50792 974.998 -30.2894 928.419 -52.8209 893.165C-84.1529 898.132 -112.338 903.375 -136.687 908.342C-106.222 947.009 -72.0374 996.934 -46.679 1052.31C-22.347 1105.45 5.97292 1195.43 30.6582 1282.03C56.8832 1276.63 84.6647 1271.2 113.834 1265.84C91.1179 1183.35 62.3605 1096.78 29.0344 1034.21Z" fill="#567A4D"/>
<path d="M2086.98 1140.56C2086.98 1140.56 1872.88 1077.76 1608.27 1077.76C1421.64 1077.76 1163.9 1152.74 920.147 1236.13C347.589 1197.91 -106.691 1302.91 -237.682 1368C-237.985 1368.15 -237.682 1740.07 -237.682 1740.07C-29.4047 1922.77 451.202 1763.49 870.061 1742.92C1079.4 1732.63 1498.3 1756.57 1663.7 1782.88C1927.48 1824.86 2086.98 1703.9 2086.98 1703.9V1140.56Z" fill="#3E893F"/>
<path d="M40.3066 1413.67C59.3212 1362.16 77.2757 1316.63 94.0018 1276.52C51.5135 1284.03 12.1297 1292.05 -23.8802 1300.31C-37.241 1331.26 -49.8528 1363.4 -61.3121 1396.55C-110.01 1537.46 -138.733 1701.42 -152.103 1791.66C-121.755 1803.86 -88.4373 1812.43 -52.6293 1818.05C-43.3071 1741.12 -17.6963 1570.83 40.3066 1413.67Z" fill="#567A4D"/>
<path d="M408.996 1405.11C433.698 1338.17 456.617 1281.35 477.373 1233.37C439.798 1235.43 403.241 1238.02 367.804 1241.07C345.886 1287.12 325.231 1336.32 307.378 1387.98C250.94 1551.29 221.324 1745.56 211.362 1820.14C245.504 1817.15 280.505 1813.3 316.136 1808.92C325.509 1731.71 351.136 1561.88 408.996 1405.11Z" fill="#567A4D"/>
<path d="M2038.74 1128.53C2017.85 1123.56 1990.53 1117.52 1957.96 1111.38C1895.53 1202.52 1817.06 1335.24 1763.65 1489.81C1729.55 1588.47 1705.24 1698.44 1689.15 1786.49C1725.06 1790.91 1758.88 1792.34 1790.44 1791.53C1805.32 1708.95 1828.94 1605.37 1865.27 1506.94C1947.13 1285.14 2009.29 1174.43 2038.74 1128.53Z" fill="#567A4D"/>
<path d="M2086.99 1201.56C2033.42 1286.98 1973.31 1396.22 1930.77 1519.3C1900.48 1606.94 1877.93 1703.49 1861.97 1785.68C1909.77 1779.01 1950.63 1767.63 1983.82 1755.43C1993.07 1687.3 2008.09 1610.86 2032.38 1536.42C2050.24 1481.67 2069.76 1433.32 2086.98 1390.85V1201.56H2086.99Z" fill="#567A4D"/>
<path d="M1284.16 1126.04C1247.75 1135.05 1210.66 1145.03 1173.2 1155.76C1116.19 1243.95 1051.39 1361.12 1005.27 1494.55C977.422 1575.13 956.11 1663.24 940.461 1740.81C976.345 1740.28 1015.65 1740.42 1056.95 1741.09C1066.07 1670.4 1081.35 1589.93 1106.89 1511.69C1180.44 1286.33 1253.49 1169.13 1284.16 1126.04Z" fill="#567A4D"/>
<path d="M119.042 1826.02C130.274 1741.6 156.238 1587.4 209.117 1444.12C237.975 1365.93 264.386 1301.54 287.775 1248.94C248.905 1253.23 211.616 1258.04 176.043 1263.27C151.114 1314.08 127.539 1368.99 107.498 1426.99C58.2287 1569.56 29.4039 1735.72 16.2451 1825.25C49.0327 1827.17 83.3936 1827.3 119.042 1826.02Z" fill="#567A4D"/>
<path d="M1519.26 1429.85C1587.84 1244.04 1642.59 1136.19 1675.88 1079.1C1653.81 1078.23 1631.24 1077.76 1608.28 1077.76C1599.93 1077.76 1591.44 1077.91 1582.81 1078.21C1526.47 1165.9 1463.01 1281.43 1417.64 1412.72C1377.76 1528.12 1351.27 1658.97 1335.65 1752.13C1370.29 1754.22 1404.28 1756.52 1436.89 1758.99C1450.8 1671.36 1476.04 1546.96 1519.26 1429.85Z" fill="#567A4D"/>
<path d="M1334.5 1429.85C1400.25 1251.7 1453.29 1145.23 1486.88 1086.42C1453.1 1090.83 1417.93 1096.81 1381.75 1104.06C1329.76 1188.09 1273.93 1293.95 1232.88 1412.72C1194.21 1524.6 1168.14 1651.01 1152.35 1743.51C1185.87 1744.64 1219.96 1746.04 1253.95 1747.7C1268.2 1660.87 1293.1 1542.01 1334.5 1429.85Z" fill="#567A4D"/>
<path d="M593.755 1405.11C619.391 1335.65 643.092 1277.1 664.463 1228C628.234 1228.11 592.704 1228.76 557.939 1229.88C534.028 1279.11 511.437 1332.12 492.128 1387.99C440.604 1537.08 411.434 1711.99 399.167 1798.05C433.814 1793.29 468.882 1788.27 504.176 1783.26C515.678 1698.08 541.65 1546.3 593.755 1405.11Z" fill="#567A4D"/>
<path d="M1696.47 1476.48C1779 1252.84 1841.52 1142.14 1870.68 1096.93C1843.97 1093.13 1815.38 1089.6 1785.25 1086.64C1723.48 1177.59 1647.15 1308 1594.85 1459.34C1559.47 1561.71 1534.64 1676.23 1518.57 1765.82C1555.6 1769.23 1589.51 1772.85 1618.91 1776.57C1633.56 1691.71 1657.82 1581.18 1696.47 1476.48Z" fill="#567A4D"/>
<path d="M939.77 1482.19C990.108 1345.79 1033 1251.4 1065.43 1188.26C1025.32 1200.89 985.144 1214.11 945.256 1227.6C906.494 1297.42 868.331 1377.75 838.16 1465.06C805.49 1559.59 781.814 1664.48 765.728 1750.55C800.568 1747.27 835.181 1744.66 869.382 1742.96C884.367 1664.78 906.856 1571.37 939.77 1482.19Z" fill="#567A4D"/>
<path d="M770.965 1451.74C804.359 1361.26 834.471 1289.3 860.418 1232.65C826.217 1230.92 792.47 1229.7 759.237 1228.95C726.525 1290.99 695.033 1360.28 669.347 1434.62C629.812 1549.02 603.443 1678.6 587.769 1771.6C622.593 1766.87 657.5 1762.36 692.307 1758.32C706.821 1672.64 731.338 1559.12 770.965 1451.74Z" fill="#567A4D"/>
<path d="M-46.7704 1878.41C-19.7825 1878.41 2.09541 1853.62 2.09541 1823.04C2.09541 1792.46 -19.7825 1767.67 -46.7704 1767.67C-73.7582 1767.67 -95.6362 1792.46 -95.6362 1823.04C-95.6362 1853.62 -73.7582 1878.41 -46.7704 1878.41Z" fill="#38AF38"/>
<path d="M1838.71 1547.61C1865.7 1547.61 1887.58 1522.82 1887.58 1492.24C1887.58 1461.66 1865.7 1436.87 1838.71 1436.87C1811.73 1436.87 1789.85 1461.66 1789.85 1492.24C1789.85 1522.82 1811.73 1547.61 1838.71 1547.61Z" fill="#38AF38"/>
<path d="M1876.96 1510.29C1884.4 1494.65 1870.58 1445.3 1836.59 1445.3C1805.78 1445.3 1796.22 1479 1799.41 1497.05C1802.6 1515.11 1817.26 1534.22 1839.78 1533.16C1865.27 1531.96 1874.3 1504.88 1870.05 1488.02C1865.8 1471.17 1855.74 1456.13 1837.65 1456.13C1823.84 1456.13 1807.38 1465.15 1809.5 1488.02C1811.62 1510.89 1827.55 1522.93 1839.77 1521.12C1853.03 1519.16 1862.07 1506.68 1860.48 1490.43C1859.17 1477.05 1856.76 1466.96 1837.64 1468.16C1821.42 1469.18 1816.86 1491.55 1825.42 1501.26C1836.58 1513.9 1848.8 1502.46 1848.8 1491.63C1848.8 1480.8 1845.02 1477.95 1837.64 1478.99C1829.14 1480.19 1831.7 1496.02 1838.17 1491.63" stroke="#6C7C7F" stroke-width="0.842119" stroke-miterlimit="10"/>
<path d="M1681.12 1859.33C1710.75 1859.33 1734.77 1832.11 1734.77 1798.54C1734.77 1764.97 1710.75 1737.76 1681.12 1737.76C1651.49 1737.76 1627.48 1764.97 1627.48 1798.54C1627.48 1832.11 1651.49 1859.33 1681.12 1859.33Z" fill="#59C659"/>
<path d="M1723.11 1818.37C1731.27 1801.19 1716.11 1747.02 1678.79 1747.02C1644.96 1747.02 1634.46 1784.02 1637.96 1803.84C1641.46 1823.66 1657.57 1844.66 1682.29 1843.49C1710.28 1842.17 1720.19 1812.43 1715.53 1793.94C1710.87 1775.44 1699.82 1758.92 1679.96 1758.92C1664.79 1758.92 1646.71 1768.84 1649.05 1793.94C1651.38 1819.05 1668.88 1832.26 1682.3 1830.28C1696.86 1828.13 1706.79 1814.43 1705.04 1796.58C1703.6 1781.9 1700.96 1770.81 1679.96 1772.14C1662.15 1773.26 1657.15 1797.82 1666.55 1808.48C1678.8 1822.36 1692.21 1809.8 1692.21 1797.91C1692.21 1786.01 1688.07 1782.88 1679.96 1784.03C1670.63 1785.35 1673.44 1802.73 1680.55 1797.91" stroke="#6C7C7F" stroke-width="0.924562" stroke-miterlimit="10"/>
<path d="M68.6055 225.895C87.5503 233.401 112.214 258.78 112.214 258.78C112.214 258.78 129.014 265.572 143.312 259.138C143.312 259.138 184.777 221.963 198.717 215.171C180.487 215.529 158.683 231.614 158.683 231.614C158.683 231.614 164.759 198.371 192.998 169.418C166.189 176.21 142.955 226.61 142.955 226.61C142.955 226.61 144.027 196.227 155.823 179.427C136.163 194.082 128.657 227.325 128.657 227.325C128.657 227.325 112.572 211.24 100.776 185.861C106.138 212.669 116.146 241.98 116.146 241.98C116.146 241.98 89.695 222.678 68.6055 225.895Z" fill="#7FA024"/>
<path d="M89 529.367C105.443 536.516 123.315 566.542 123.315 566.542C123.315 566.542 134.754 518.644 154.056 500.771C144.762 519.359 139.758 563.683 139.758 563.683C139.758 563.683 153.341 533.657 170.498 522.218C159.06 537.946 151.196 580.125 149.766 582.27C148.337 584.415 119.741 595.853 116.881 590.849C114.021 585.844 107.587 555.819 89 529.367Z" fill="#7FA024"/>
<path d="M116.445 356.434C137.177 363.583 152.905 390.034 152.905 390.034C152.905 390.034 162.199 362.868 181.501 350C165.773 369.302 160.769 394.324 161.484 393.609C162.199 392.894 170.063 381.456 181.501 380.026C174.352 385.03 167.203 397.898 165.058 399.328C162.914 400.758 148.616 402.188 146.471 399.328C144.326 396.468 142.897 380.026 116.445 356.434Z" fill="#7FA024"/>
<path d="M347.773 461.742C363.501 481.044 362.071 495.342 362.786 496.772C363.501 498.201 389.952 501.776 390.667 500.346C391.382 498.916 392.097 483.903 417.119 472.465C402.821 472.465 392.097 483.903 392.097 483.903C392.097 483.903 389.238 474.61 397.816 463.886C391.382 465.316 389.238 472.465 389.238 472.465C391.382 464.601 392.097 459.597 390.667 443.869C388.523 466.031 378.514 480.329 378.514 480.329C378.514 480.329 379.944 466.746 375.654 456.737C375.654 475.325 371.365 483.189 371.365 483.189C371.365 483.189 361.357 468.176 347.773 461.742Z" fill="#7FA024"/>
<path d="M376.01 256.276C359.568 263.425 341.695 293.45 341.695 293.45C341.695 293.45 330.257 245.552 310.954 227.68C320.248 246.267 325.252 290.591 325.252 290.591C325.252 290.591 311.669 260.565 294.512 249.127C305.95 264.854 313.814 307.033 315.244 309.178C316.674 311.323 345.27 322.761 348.129 317.757C350.989 312.753 357.423 282.727 376.01 256.276Z" fill="#7FA024"/>
<path d="M125.082 123.307C105.064 129.026 85.7621 144.039 82.9025 145.468C80.0429 146.898 55.0215 148.328 52.8768 145.468C50.7321 142.609 42.8682 123.307 30 106.149C47.1576 112.583 57.1662 131.885 57.1662 131.885C57.1662 131.885 65.03 116.872 62.8853 99C74.3237 110.438 69.3194 126.881 69.3194 126.881C81.101 118.359 84.3323 107.579 103.635 105.434C84.3323 119.732 85.0472 129.741 85.0472 129.741C85.0472 129.741 110.069 119.732 125.082 123.307Z" fill="#7FA024"/>
<path d="M252.333 307.749C236.606 327.052 238.035 341.35 237.321 342.779C236.606 344.209 210.154 347.784 209.44 346.354C208.725 344.924 208.01 329.911 182.988 318.473C197.286 318.473 208.01 329.911 208.01 329.911C208.01 329.911 210.869 320.618 202.291 309.894C208.725 311.324 210.869 318.473 210.869 318.473C208.725 310.609 208.01 305.605 209.44 289.877C211.584 312.039 221.593 326.337 221.593 326.337C221.593 326.337 220.163 312.754 224.452 302.745C224.452 321.333 228.742 329.196 228.742 329.196C228.742 329.196 238.75 314.184 252.333 307.749Z" fill="#7FA024"/>
<path d="M368.185 403.494C367.713 397.331 356.811 398.282 356.811 406.339C353.966 401.599 341.169 403.494 343.535 412.03C331.211 412.501 333.584 427.671 342.113 425.777C333.577 430.989 341.162 441.419 347.324 435.728C345.43 443.785 358.227 444.264 360.121 438.102C361.072 443.792 374.819 446.159 374.34 436.207C377.186 442.842 387.616 440.003 385.715 431.468C390.926 435.257 400.413 424.354 389.032 419.143C396.617 412.029 388.081 401.606 380.975 407.769C384.778 400.648 372.453 394.486 368.185 403.494Z" fill="#C1D375"/>
<path d="M355.389 423.873C356.111 427.248 375.299 427.663 373.405 420.557C371.503 413.443 353.966 417.239 355.389 423.873Z" fill="#7FA024"/>
<path d="M1662.95 481.444C1683.06 489.414 1709.25 516.36 1709.25 516.36C1709.25 516.36 1727.09 523.571 1742.27 516.74C1742.27 516.74 1786.29 477.269 1801.09 470.058C1781.74 470.437 1758.59 487.516 1758.59 487.516C1758.59 487.516 1765.04 452.22 1795.02 421.479C1766.56 428.69 1741.89 482.203 1741.89 482.203C1741.89 482.203 1743.03 449.943 1755.55 432.105C1734.68 447.666 1726.71 482.962 1726.71 482.962C1726.71 482.962 1709.63 465.883 1697.1 438.937C1702.8 467.401 1713.42 498.522 1713.42 498.522C1713.42 498.522 1685.34 478.028 1662.95 481.444Z" fill="#7FA024"/>
<path d="M1808.3 414.268C1825.76 421.859 1844.74 453.739 1844.74 453.739C1844.74 453.739 1856.88 402.883 1877.38 383.906C1867.51 403.642 1862.2 450.703 1862.2 450.703C1862.2 450.703 1876.62 418.823 1894.84 406.678C1882.69 423.377 1874.34 468.161 1872.82 470.438C1871.31 472.715 1840.94 484.86 1837.91 479.547C1834.87 474.234 1828.04 442.353 1808.3 414.268Z" fill="#7FA024"/>
<path d="M1831.08 644.261C1853.09 651.852 1869.79 679.937 1869.79 679.937C1869.79 679.937 1879.66 651.093 1900.16 637.43C1883.46 657.924 1878.14 684.491 1878.9 683.732C1879.66 682.973 1888.01 670.828 1900.16 669.31C1892.57 674.623 1884.97 688.286 1882.7 689.804C1880.42 691.322 1865.24 692.841 1862.96 689.804C1860.69 686.768 1859.17 669.31 1831.08 644.261Z" fill="#7FA024"/>
<path d="M1866 527.366C1888.01 537.234 1886.49 547.861 1888.01 549.379C1889.53 550.897 1912.3 552.415 1914.58 549.379C1916.85 546.343 1915.33 534.957 1929 521.294C1916.09 525.089 1909.26 538.752 1909.26 538.752C1909.26 538.752 1911.54 519.017 1923.68 501.559C1907.74 509.908 1900.91 528.884 1900.91 528.884C1897.12 519.776 1893.32 505.354 1876.62 493.209C1891.04 517.499 1891.04 534.957 1891.04 534.957C1891.04 534.957 1881.94 525.089 1866 527.366Z" fill="#7FA024"/>
<path d="M1799.2 336.845C1820.45 342.917 1840.95 358.857 1843.98 360.376C1847.02 361.894 1873.59 363.412 1875.86 360.376C1878.14 357.339 1886.49 336.845 1900.15 318.628C1881.94 325.459 1871.31 345.954 1871.31 345.954C1871.31 345.954 1862.96 330.013 1865.24 311.037C1853.09 323.182 1858.41 340.64 1858.41 340.64C1845.9 331.592 1842.47 320.146 1821.97 317.869C1842.47 333.05 1841.71 343.676 1841.71 343.676C1841.71 343.676 1815.14 333.05 1799.2 336.845Z" fill="#7FA024"/>
<path d="M1800.72 371.761C1793.88 382.387 1793.13 400.605 1792.37 402.882C1791.61 405.159 1770.35 406.677 1768.84 402.882C1767.32 399.086 1764.28 389.219 1747.58 379.351C1761.24 379.351 1774.15 390.737 1774.15 390.737C1774.15 390.737 1776.43 380.869 1769.59 367.206C1775.67 369.483 1778.7 377.833 1778.7 377.833C1778.7 377.833 1783.26 358.098 1797.68 349.748C1790.09 361.893 1790.09 383.146 1790.09 383.146C1790.09 383.146 1793.88 373.279 1800.72 371.761Z" fill="#7FA024"/>
<path d="M1788.57 574.429C1805.27 594.924 1803.76 610.105 1804.51 611.623C1805.27 613.141 1833.36 616.936 1834.12 615.418C1834.88 613.9 1835.64 597.96 1862.2 585.815C1847.02 585.815 1835.64 597.96 1835.64 597.96C1835.64 597.96 1832.6 588.092 1841.71 576.707C1834.88 578.225 1832.6 585.815 1832.6 585.815C1834.88 577.466 1835.64 572.152 1834.12 555.453C1831.84 578.984 1821.21 594.165 1821.21 594.165C1821.21 594.165 1822.73 579.743 1818.18 569.116C1818.18 588.851 1813.62 597.201 1813.62 597.201C1813.62 597.201 1803 581.261 1788.57 574.429Z" fill="#7FA024"/>
<path d="M1782.12 188.831C1760.11 196.422 1743.41 224.507 1743.41 224.507C1743.41 224.507 1733.54 195.663 1713.05 182C1729.75 202.494 1735.06 229.061 1734.3 228.302C1733.54 227.543 1725.19 215.398 1713.05 213.88C1720.64 219.194 1728.23 232.857 1730.51 234.375C1732.78 235.893 1747.96 237.411 1750.24 234.375C1752.52 231.338 1754.04 213.88 1782.12 188.831Z" fill="#7FA024"/>
<path d="M1754.1 698.157C1732.09 708.025 1733.61 718.652 1732.09 720.17C1730.57 721.688 1707.8 723.206 1705.52 720.17C1703.25 717.134 1704.76 705.748 1691.1 692.085C1704.01 695.88 1710.84 709.543 1710.84 709.543C1710.84 709.543 1708.56 689.808 1696.41 672.35C1712.36 680.699 1719.19 699.675 1719.19 699.675C1722.98 690.567 1726.78 676.145 1743.48 664C1729.05 688.29 1729.05 705.748 1729.05 705.748C1729.05 705.748 1738.16 695.88 1754.1 698.157Z" fill="#7FA024"/>
<path d="M1406.71 842.818C1395.98 848.511 1382 867.745 1382 867.745C1382 867.745 1372.49 872.892 1364.39 868.019C1364.39 868.019 1340.89 839.835 1333 834.689C1343.33 834.962 1355.68 847.152 1355.68 847.152C1355.68 847.152 1352.23 821.952 1336.24 800C1351.43 805.146 1364.59 843.357 1364.59 843.357C1364.59 843.357 1363.98 820.32 1357.3 807.591C1368.44 818.703 1372.69 843.903 1372.69 843.903C1372.69 843.903 1381.8 831.713 1388.49 812.471C1385.45 832.791 1379.78 855.016 1379.78 855.016C1379.78 855.016 1394.76 840.374 1406.71 842.818Z" fill="#7FA024"/>
<path d="M1654.24 713.049C1653.74 706.506 1642.16 707.515 1642.16 716.07C1639.14 711.037 1625.55 713.049 1628.07 722.112C1614.98 722.613 1617.49 738.72 1626.55 736.708C1617.49 742.242 1625.55 753.316 1632.09 747.274C1630.08 755.829 1643.66 756.337 1645.68 749.794C1646.68 755.836 1661.28 758.349 1660.77 747.783C1663.79 754.827 1674.87 751.813 1672.85 742.75C1678.38 746.773 1688.46 735.197 1676.37 729.664C1684.43 722.111 1675.36 711.045 1667.82 717.588C1671.86 710.028 1658.77 703.484 1654.24 713.049Z" fill="#C1D375"/>
<path d="M1640.65 734.69C1641.42 738.272 1661.79 738.713 1659.78 731.168C1657.76 723.615 1639.14 727.646 1640.65 734.69Z" fill="#7FA024"/>
<path d="M59.5118 623.678L87.5197 620.207C102.216 618.383 115.608 628.821 117.431 643.517L146.314 876.304L65.0915 886.384L36.2083 653.597C34.3776 638.893 44.8149 625.502 59.5118 623.678Z" fill="#8A9995"/>
<path d="M119.106 657.552L37.8784 667.628L38.5284 672.868L119.756 662.793L119.106 657.552Z" fill="#72645D"/>
<path d="M122.687 686.368L41.459 696.443L42.1091 701.684L123.337 691.608L122.687 686.368Z" fill="#72645D"/>
<path d="M126.26 715.194L45.0322 725.27L45.6823 730.51L126.91 720.434L126.26 715.194Z" fill="#72645D"/>
<path d="M129.834 744.012L48.606 754.088L49.256 759.329L130.484 749.253L129.834 744.012Z" fill="#72645D"/>
<path d="M133.404 772.838L52.1758 782.914L52.8259 788.155L134.054 778.079L133.404 772.838Z" fill="#72645D"/>
<path d="M136.981 801.664L55.7529 811.739L56.403 816.98L137.631 806.904L136.981 801.664Z" fill="#72645D"/>
<path d="M140.558 830.479L59.3301 840.555L59.9801 845.795L141.208 835.719L140.558 830.479Z" fill="#72645D"/>
<path d="M154.153 799.155L159.944 872.814L251.575 865.608L238.862 703.921L180.454 742.862L165.881 787.39L154.153 799.155Z" fill="#EFE6E4"/>
<path d="M148.631 806.412L146.137 803.808L164.305 786.398L178.937 741.709L237.863 702.418L239.861 705.423L181.971 744.014L167.449 788.374L148.631 806.412Z" fill="#3D3B38"/>
<path d="M223.567 762.893L203.804 764.447L205.217 782.414L224.98 780.86L223.567 762.893Z" fill="white"/>
<path d="M205.817 813.094L168.087 816.062L170.489 846.6L208.219 843.633L205.817 813.094Z" fill="white"/>
<path d="M247.287 811.639L213.149 814.323L213.431 817.915L247.569 815.23L247.287 811.639Z" fill="white"/>
<path d="M247.43 813.431L216.884 815.833L220.981 867.93L251.527 865.528L247.43 813.431Z" fill="white"/>
<path d="M243.977 815.514L220.623 817.351L224.296 864.06L247.651 862.223L243.977 815.514Z" fill="#897F7D"/>
<path d="M249.358 860.357L223.677 815.377L220.526 815.625L249.642 863.953L249.358 860.357Z" fill="white"/>
<path d="M243.887 813.785L222.691 866.067L226.28 865.79L246.432 813.589L243.887 813.785Z" fill="white"/>
<path d="M186.34 818.237L171.965 819.367L173.802 842.722L188.177 841.592L186.34 818.237Z" fill="#897F7D"/>
<path d="M180.804 816.865L177.212 817.147L179.332 844.094L182.923 843.811L180.804 816.865Z" fill="white"/>
<path d="M188.561 823.488L168.798 825.042L169.08 828.634L188.843 827.08L188.561 823.488Z" fill="white"/>
<path d="M189.268 832.464L169.505 834.019L169.788 837.611L189.551 836.057L189.268 832.464Z" fill="white"/>
<path d="M220.255 766.768L207.676 767.757L208.523 778.533L221.102 777.544L220.255 766.768Z" fill="#897F7D"/>
<path d="M214.722 765.396L212.926 765.537L214.057 779.912L215.853 779.771L214.722 765.396Z" fill="white"/>
<path d="M222.338 770.217L204.372 771.63L204.513 773.426L222.48 772.013L222.338 770.217Z" fill="white"/>
<path d="M204.304 816.822L189.929 817.952L191.766 841.307L206.141 840.177L204.304 816.822Z" fill="#897F7D"/>
<path d="M198.776 815.448L195.184 815.73L197.303 842.677L200.895 842.395L198.776 815.448Z" fill="white"/>
<path d="M206.525 822.071L186.762 823.625L187.044 827.217L206.807 825.663L206.525 822.071Z" fill="white"/>
<path d="M207.232 831.056L187.469 832.61L187.752 836.202L207.515 834.648L207.232 831.056Z" fill="white"/>
<path d="M335.366 784.905L341.157 858.564L249.519 865.77L236.806 704.083L300.582 733.411L321.938 775.117L335.366 784.905Z" fill="#EFE6E4"/>
<path d="M341.945 791.203L344.002 788.25L323.339 773.888L301.903 732.03L237.558 702.446L236.055 705.721L299.263 734.787L320.538 776.332L341.945 791.203Z" fill="#3D3B38"/>
<path d="M262.557 778.054L282.32 776.5L280.907 758.533L261.144 760.087L262.557 778.054Z" fill="white"/>
<path d="M287.13 837.579L324.86 834.611L322.458 804.073L284.728 807.04L287.13 837.579Z" fill="white"/>
<path d="M245.618 815.533L279.755 812.849L279.473 809.257L245.335 811.941L245.618 815.533Z" fill="white"/>
<path d="M249.572 865.84L280.118 863.438L276.021 811.34L245.475 813.742L249.572 865.84Z" fill="white"/>
<path d="M252.884 861.959L276.239 860.122L272.566 813.412L249.211 815.249L252.884 861.959Z" fill="#897F7D"/>
<path d="M250.895 860.232L269.231 811.795L272.375 811.547L251.172 863.828L250.895 860.232Z" fill="white"/>
<path d="M249.012 813.386L278.129 861.707L274.533 861.991L246.467 813.59L249.012 813.386Z" fill="white"/>
<path d="M306.604 832.43L320.979 831.3L319.142 807.945L304.767 809.075L306.604 832.43Z" fill="#897F7D"/>
<path d="M312.14 833.801L315.731 833.519L313.612 806.572L310.02 806.854L312.14 833.801Z" fill="white"/>
<path d="M303.68 818.203L323.442 816.648L323.16 813.057L303.397 814.611L303.68 818.203Z" fill="white"/>
<path d="M304.383 827.181L324.146 825.627L323.863 822.035L304.101 823.589L304.383 827.181Z" fill="white"/>
<path d="M265.862 774.173L278.441 773.184L277.593 762.408L265.014 763.397L265.862 774.173Z" fill="#897F7D"/>
<path d="M271.398 775.544L273.194 775.402L272.063 761.027L270.267 761.169L271.398 775.544Z" fill="white"/>
<path d="M263.649 768.931L281.616 767.518L281.474 765.722L263.508 767.135L263.649 768.931Z" fill="white"/>
<path d="M288.644 833.839L303.019 832.709L301.182 809.354L286.807 810.485L288.644 833.839Z" fill="#897F7D"/>
<path d="M294.173 835.212L297.765 834.93L295.645 807.983L292.054 808.265L294.173 835.212Z" fill="white"/>
<path d="M285.713 819.614L305.476 818.06L305.193 814.468L285.43 816.022L285.713 819.614Z" fill="white"/>
<path d="M286.428 828.592L306.19 827.038L305.908 823.446L286.145 825L286.428 828.592Z" fill="white"/>
<path d="M204.477 1193.37L201.867 1193.08L221.975 1001.12L224.585 1001.4L204.477 1193.37Z" fill="#72645D"/>
<path d="M254.413 1193.79L232.482 1001.47L235.092 1001.23L257.024 1193.55L254.413 1193.79Z" fill="#72645D"/>
<path d="M256.819 1148.17L199.011 1147.69L199 1145.15L256.802 1145.65L256.819 1148.17Z" fill="#72645D"/>
<path d="M253.975 1102.65L204.055 1102.22L204.038 1099.7L253.959 1100.12L253.975 1102.65Z" fill="#72645D"/>
<path d="M245.888 1059.6L211.73 1059.31L211.719 1056.78L245.877 1057.07L245.888 1059.6Z" fill="#72645D"/>
<path d="M237.802 1016.55L216.779 1016.38L216.768 1013.85L237.791 1014.02L237.802 1016.55Z" fill="#72645D"/>
<path d="M227.483 952L230.581 972.241L233.585 972.263L240.995 953.557L227.483 952Z" fill="white"/>
<path d="M248.593 959.145L236.405 975.706L238.594 977.706L257.416 969.204L248.593 959.145Z" fill="white"/>
<path d="M259.64 975.257L239.239 980.616L239.649 983.482L260.001 988.331L259.64 975.257Z" fill="white"/>
<path d="M255.35 996.24L236.523 986.585L234.777 988.913L246.272 1005.85L255.35 996.24Z" fill="white"/>
<path d="M235.94 1008.38L230.547 988.569L227.565 988.858L222.35 1008.27L235.94 1008.38Z" fill="white"/>
<path d="M214.175 1003.51L224.373 985.736L221.968 983.974L204.265 994.438L214.175 1003.51Z" fill="white"/>
<path d="M201.367 988.647L220.999 981.148L220.262 978.338L199.511 975.672L201.367 988.647Z" fill="white"/>
<path d="M203.217 967.302L223.015 974.917L224.478 972.418L211.126 956.771L203.217 967.302Z" fill="white"/>
<path d="M228.548 1003.83C216.958 1003.73 207.486 994.583 207.431 983.432C207.375 972.28 216.764 963.285 228.354 963.385C239.943 963.484 249.415 972.635 249.47 983.792C249.52 994.943 240.137 1003.93 228.548 1003.83ZM228.365 965.912C218.222 965.823 210.008 973.694 210.058 983.454C210.102 993.214 218.394 1001.22 228.536 1001.31C238.679 1001.39 246.893 993.524 246.843 983.764C246.793 974.004 238.507 966 228.365 965.912Z" fill="#72645D"/>
<path d="M233.701 981.899C234.166 979.15 232.221 976.528 229.357 976.043C226.493 975.558 223.794 977.394 223.329 980.144C222.863 982.893 224.808 985.515 227.672 986C230.536 986.485 233.235 984.649 233.701 981.899Z" fill="#D3B9B2"/>
<path d="M1841.12 899.382L1815.33 1085L1797.74 1082.3L1838.61 899L1841.12 899.382Z" fill="#D1DBD1"/>
<path d="M1829.17 960.74L1876 999.538L1875.5 1002.1L1827.18 970.97L1829.17 960.74Z" fill="#D1DBD1"/>
<path d="M1819.86 1088.33L1792.21 1084.08L1793.2 1078.97L1820.86 1083.22L1819.86 1088.33Z" fill="#D1DBD1"/>
<path d="M1829.17 960.74L1770.39 983.3L1769.9 985.858L1827.18 970.97L1829.17 960.74Z" fill="#D1DBD1"/>
<path d="M1831.17 950.517L1811.12 1081.72L1801.69 1080.27L1831.17 950.517Z" fill="#D1DBD1"/>
<path d="M1713.37 928.971L1720.18 1072.24L1706.56 1072.69L1711.42 929.031L1713.37 928.971Z" fill="#D1DBD1"/>
<path d="M1713.04 976.812L1753.75 999.388L1753.74 1001.38L1712.99 984.785L1713.04 976.812Z" fill="#D1DBD1"/>
<path d="M1724.06 1074.11L1702.65 1074.81L1702.68 1070.83L1724.09 1070.12L1724.06 1074.11Z" fill="#D1DBD1"/>
<path d="M1713.04 976.812L1672.02 1002.09L1672 1004.08L1712.99 984.785L1713.04 976.812Z" fill="#D1DBD1"/>
<path d="M1713.1 968.84L1716.54 1070.37L1709.24 1070.61L1713.1 968.84Z" fill="#D1DBD1"/>
</g>
<defs>
<clipPath id="clip0_131_3493">
<rect width="1920" height="1986" fill="white"/>
</clipPath>
</defs>
</svg>
