<svg width="1920" height="930" viewBox="0 0 1920 930" fill="none" xmlns="http://www.w3.org/2000/svg">
<g clip-path="url(#clip0_113_29350)">
<rect width="1920" height="930" fill="white"/>
<path d="M1921 416H0V930H1921V416Z" fill="#96C22F"/>
<path d="M1317 415H603V1217.48H1317V415Z" fill="#3D3B38"/>
<path d="M966.41 440.974H953.584V523.371H966.41V440.974Z" fill="white"/>
<path d="M966.41 557.407H953.584V639.804H966.41V557.407Z" fill="white"/>
<path d="M966.41 674.727H953.584V757.124H966.41V674.727Z" fill="white"/>
<path d="M966 790.765H954V889.967H966V790.765Z" fill="white"/>
<path d="M633.418 415H624.93V1217.48H633.418V415Z" fill="white"/>
<path d="M1295.06 415H1286.57V1217.48H1295.06V415Z" fill="white"/>
<path d="M1920 0H0V416H1920V0Z" fill="#9ECBDD"/>
<path d="M1774.66 385.052H1739.7V416.033H1774.66V385.052Z" fill="#749DC1"/>
<path d="M1771.64 381.866H1746.85V391.559H1771.64V381.866Z" fill="#749DC1"/>
<path d="M1760.68 378.808H1748.92V385.052H1760.68V378.808Z" fill="#749DC1"/>
<path d="M1767.98 361.22H1764.17V386.72H1767.98V361.22Z" fill="#749DC1"/>
<path d="M1735.09 384.094H1696.32V416.027H1735.09V384.094Z" fill="#749DC1"/>
<path d="M1746.86 398.711H1726.99V416.027H1746.86V398.711Z" fill="#749DC1"/>
<path d="M1733.35 335.479H1701.25V385.043H1733.35V335.479Z" fill="#749DC1"/>
<path d="M1728.26 303.229H1706.18V339.452H1728.26V303.229Z" fill="#749DC1"/>
<path d="M1725.88 252.553H1709.52V305.935H1725.88V252.553Z" fill="#749DC1"/>
<path d="M1721.9 253.667H1713.32V223.799L1717.69 219.354L1721.9 223.799V253.667Z" fill="#749DC1"/>
<path d="M1638.97 313.874H1622.6V283.055L1630.78 277.335L1638.97 283.055V313.874Z" fill="#749DC1"/>
<path d="M1654.22 313.874H1637.85V283.055L1646.04 277.335L1654.22 283.055V313.874Z" fill="#749DC1"/>
<path d="M1670.11 313.874H1653.74V283.055L1661.92 277.335L1670.11 283.055V313.874Z" fill="#749DC1"/>
<path d="M1670.1 305.934H1613.7V416.031H1670.1V305.934Z" fill="#749DC1"/>
<path d="M1637.85 309.746H1609.88V416.026H1637.85V309.746Z" fill="#749DC1"/>
<path d="M1696.32 369.477H1661.93V416.026H1696.32V369.477Z" fill="#749DC1"/>
<path d="M1605.12 337.39H1549.19V416.027H1605.12V337.39Z" fill="#749DC1"/>
<path d="M1622.6 389.813H1590.5V416.026H1622.6V389.813Z" fill="#749DC1"/>
<path d="M1599.09 224.593H1549.19V337.388H1599.09V224.593Z" fill="#749DC1"/>
<path d="M1595.59 240.797H1569.85V219.354L1595.59 221.89V240.797Z" fill="#749DC1"/>
<path d="M1565.4 197.268H1561.9V230.073H1565.4V197.268Z" fill="#749DC1"/>
<path d="M1557.13 197.268H1553.64V230.073H1557.13V197.268Z" fill="#749DC1"/>
<path d="M1538.38 319.277H1528.85V361.22H1538.38V319.277Z" fill="#749DC1"/>
<path d="M1541.56 327.223H1509.15V372.343H1541.56V327.223Z" fill="#749DC1"/>
<path d="M1553.64 356.45H1509.15V416.025H1553.64V356.45Z" fill="#749DC1"/>
<path d="M1525.36 311.965H1520.27V329.759H1525.36V311.965Z" fill="#749DC1"/>
<path d="M1499.93 416.026H1461.8V261.767L1470.7 255.413L1499.93 264.944V416.026Z" fill="#749DC1"/>
<path d="M1503.74 265.578H1459.89V416.026H1503.74V265.578Z" fill="#749DC1"/>
<path d="M1517.09 407.367H1485.63V416.025H1517.09V407.367Z" fill="#749DC1"/>
<path d="M1444 343.897H1403.32V416.025H1444V343.897Z" fill="#749DC1"/>
<path d="M1466.56 376.711H1431.93V416.033H1466.56V376.711Z" fill="#749DC1"/>
<path d="M1398.87 396.367H1386.8V416.024H1398.87V396.367Z" fill="#749DC1"/>
<path d="M1416.03 409.191H1380.76V416.024H1416.03V409.191Z" fill="#749DC1"/>
<path d="M1432.99 349.779H1414.66V339.057L1423.82 333.971L1432.99 339.057V349.779Z" fill="#749DC1"/>
<path d="M1441.73 315.62H1436.91V343.69H1441.73V315.62Z" fill="#749DC1"/>
<path d="M1410.53 315.992H1405.82V343.951H1410.53V315.992Z" fill="#749DC1"/>
<path d="M1550.77 381.251H1490.09V415.377H1550.77V381.251Z" fill="#69879E"/>
<path d="M1554.4 389.094H1524.4V415.377H1554.4V389.094Z" fill="#69879E"/>
<path d="M1549.92 373.149H1500.96V392.626H1549.92V373.149Z" fill="#69879E"/>
<path d="M1524.41 369.359H1492.34V387.458H1524.41V369.359Z" fill="#69879E"/>
<path d="M1542.85 322.129H1499.75V376.081H1542.85V322.129Z" fill="#69879E"/>
<path d="M1532.33 342.124H1503.37V318.856L1517.85 314.715L1532.33 318.856V342.124Z" fill="#69879E"/>
<path d="M1476.39 359.648H1444.15V416.026H1476.39V359.648Z" fill="#69879E"/>
<path d="M1482.78 402.883H1468.64V416.025H1482.78V402.883Z" fill="#69879E"/>
<path d="M1453.46 400.34H1334.34V416.025H1453.46V400.34Z" fill="#69879E"/>
<path d="M1607.44 402.883H1598.12V416.025H1607.44V402.883Z" fill="#69879E"/>
<path d="M1369.46 356.631H1318V414.867H1369.46V356.631Z" fill="#69879E"/>
<path d="M1416.22 391.203H1378.3V410.337H1416.22V391.203Z" fill="#69879E"/>
<path d="M1446.95 339.322H1399.67V408.182H1446.95V339.322Z" fill="#69879E"/>
<path d="M1467.59 291.518H1409.33V372.42H1467.59V291.518Z" fill="#69879E"/>
<path d="M1454.66 286.23H1414.15V303.985H1454.66V286.23Z" fill="#69879E"/>
<path d="M1451.05 281.237H1435.19V294.34H1451.05V281.237Z" fill="#69879E"/>
<path d="M1430.01 278.646H1418.63V292.261H1430.01V278.646Z" fill="#69879E"/>
<path d="M1432.25 283.649H1416.22V296.059H1432.25V283.649Z" fill="#69879E"/>
<path d="M1426.61 254.176H1422.43V281.236H1426.61V254.176Z" fill="#69879E"/>
<path d="M1350.24 326.467H1318V368.869H1350.24V326.467Z" fill="#69879E"/>
<path d="M1348 324.394H1331.28V335.769H1348V324.394Z" fill="#69879E"/>
<path d="M1344.76 320.778H1334.12V331.422H1344.76V320.778Z" fill="#69879E"/>
<path d="M1328.86 313.195H1325.58V330.09H1328.86V313.195Z" fill="#69879E"/>
<path d="M1323.69 318.189H1321.97V328.186H1323.69V318.189Z" fill="#69879E"/>
<path d="M1921.17 210.648H1769.93V416.025H1921.17V210.648Z" fill="#A59D9A"/>
<path d="M1866.99 210.648H1842.17V416.025H1866.99V210.648Z" fill="#686463"/>
<path d="M1921.16 210.648H1894.07V416.025H1921.16V210.648Z" fill="#686463"/>
<path d="M1889.57 199.364H1812.82V210.648H1889.57V199.364Z" fill="#51616B"/>
<path d="M1837.65 226.451H1769.93V411.516H1837.65V226.451Z" fill="white"/>
<path d="M1837.65 233.221H1769.93V235.479H1837.65V233.221Z" fill="#3D3B38"/>
<path d="M1837.65 242.246H1769.93V244.504H1837.65V242.246Z" fill="#3D3B38"/>
<path d="M1837.65 251.271H1769.93V253.529H1837.65V251.271Z" fill="#3D3B38"/>
<path d="M1837.65 262.557H1769.93V264.815H1837.65V262.557Z" fill="#3D3B38"/>
<path d="M1837.65 271.584H1769.93V273.842H1837.65V271.584Z" fill="#3D3B38"/>
<path d="M1837.65 280.617H1769.93V282.875H1837.65V280.617Z" fill="#3D3B38"/>
<path d="M1837.65 289.644H1769.93V291.902H1837.65V289.644Z" fill="#3D3B38"/>
<path d="M1837.65 298.669H1769.93V300.927H1837.65V298.669Z" fill="#3D3B38"/>
<path d="M1837.65 307.696H1769.93V309.954H1837.65V307.696Z" fill="#3D3B38"/>
<path d="M1837.65 318.98H1769.93V321.238H1837.65V318.98Z" fill="#3D3B38"/>
<path d="M1837.65 328.007H1769.93V330.266H1837.65V328.007Z" fill="#3D3B38"/>
<path d="M1837.65 337.034H1769.93V339.292H1837.65V337.034Z" fill="#3D3B38"/>
<path d="M1837.65 346.067H1769.93V348.325H1837.65V346.067Z" fill="#3D3B38"/>
<path d="M1837.65 355.094H1769.93V357.352H1837.65V355.094Z" fill="#3D3B38"/>
<path d="M1837.65 364.119H1769.93V366.377H1837.65V364.119Z" fill="#3D3B38"/>
<path d="M1837.65 375.403H1769.93V377.662H1837.65V375.403Z" fill="#3D3B38"/>
<path d="M1837.65 384.43H1769.93V386.688H1837.65V384.43Z" fill="#3D3B38"/>
<path d="M1837.65 393.458H1769.93V395.716H1837.65V393.458Z" fill="#3D3B38"/>
<path d="M1837.65 402.482H1769.93V404.741H1837.65V402.482Z" fill="#3D3B38"/>
<path d="M1891.82 228.701H1866.99V413.766H1891.82V228.701Z" fill="white"/>
<path d="M1891.82 235.476H1866.99V237.734H1891.82V235.476Z" fill="#3D3B38"/>
<path d="M1891.82 244.501H1866.99V246.759H1891.82V244.501Z" fill="#3D3B38"/>
<path d="M1891.82 253.528H1866.99V255.787H1891.82V253.528Z" fill="#3D3B38"/>
<path d="M1891.82 264.814H1866.99V267.073H1891.82V264.814Z" fill="#3D3B38"/>
<path d="M1891.82 273.839H1866.99V276.098H1891.82V273.839Z" fill="#3D3B38"/>
<path d="M1891.82 282.867H1866.99V285.125H1891.82V282.867Z" fill="#3D3B38"/>
<path d="M1891.82 291.899H1866.99V294.157H1891.82V291.899Z" fill="#3D3B38"/>
<path d="M1891.82 300.924H1866.99V303.183H1891.82V300.924Z" fill="#3D3B38"/>
<path d="M1891.82 309.953H1866.99V312.211H1891.82V309.953Z" fill="#3D3B38"/>
<path d="M1891.82 321.237H1866.99V323.496H1891.82V321.237Z" fill="#3D3B38"/>
<path d="M1891.82 330.265H1866.99V332.523H1891.82V330.265Z" fill="#3D3B38"/>
<path d="M1891.82 339.29H1866.99V341.548H1891.82V339.29Z" fill="#3D3B38"/>
<path d="M1891.82 348.317H1866.99V350.575H1891.82V348.317Z" fill="#3D3B38"/>
<path d="M1891.82 357.349H1866.99V359.607H1891.82V357.349Z" fill="#3D3B38"/>
<path d="M1891.82 366.376H1866.99V368.635H1891.82V366.376Z" fill="#3D3B38"/>
<path d="M1891.82 377.661H1866.99V379.919H1891.82V377.661Z" fill="#3D3B38"/>
<path d="M1891.82 386.688H1866.99V388.946H1891.82V386.688Z" fill="#3D3B38"/>
<path d="M1891.82 395.713H1866.99V397.971H1891.82V395.713Z" fill="#3D3B38"/>
<path d="M1891.82 404.742H1866.99V407H1891.82V404.742Z" fill="#3D3B38"/>
<path d="M1747.36 185.82H1609.66V416.025H1747.36V185.82Z" fill="#8A9995"/>
<path d="M1742.84 194.855H1616.43V201.623H1742.84V194.855Z" fill="white"/>
<path d="M1632.23 194.855H1629.98V201.623H1632.23V194.855Z" fill="#8A9995"/>
<path d="M1645.78 194.855H1643.52V201.623H1645.78V194.855Z" fill="#8A9995"/>
<path d="M1670.61 194.855H1659.32V201.623H1670.61V194.855Z" fill="#8A9995"/>
<path d="M1697.7 194.855H1695.44V201.623H1697.7V194.855Z" fill="#8A9995"/>
<path d="M1722.53 194.855H1720.27V201.623H1722.53V194.855Z" fill="#8A9995"/>
<path d="M1731.56 161H1670.61V185.828H1731.56V161Z" fill="#51616B"/>
<path d="M1742.84 210.65H1616.43V217.419H1742.84V210.65Z" fill="white"/>
<path d="M1632.23 210.65H1629.98V217.419H1632.23V210.65Z" fill="#8A9995"/>
<path d="M1645.78 210.65H1643.52V217.419H1645.78V210.65Z" fill="#8A9995"/>
<path d="M1670.61 210.65H1659.32V217.419H1670.61V210.65Z" fill="#8A9995"/>
<path d="M1697.7 210.65H1695.44V217.419H1697.7V210.65Z" fill="#8A9995"/>
<path d="M1722.53 210.65H1720.27V217.419H1722.53V210.65Z" fill="#8A9995"/>
<path d="M1742.84 226.45H1616.43V233.218H1742.84V226.45Z" fill="white"/>
<path d="M1632.23 226.45H1629.98V233.218H1632.23V226.45Z" fill="#8A9995"/>
<path d="M1645.78 226.45H1643.52V233.218H1645.78V226.45Z" fill="#8A9995"/>
<path d="M1670.61 226.45H1659.32V233.218H1670.61V226.45Z" fill="#8A9995"/>
<path d="M1697.7 226.45H1695.44V233.218H1697.7V226.45Z" fill="#8A9995"/>
<path d="M1722.53 226.45H1720.27V233.218H1722.53V226.45Z" fill="#8A9995"/>
<path d="M1742.84 242.246H1616.43V249.014H1742.84V242.246Z" fill="white"/>
<path d="M1632.23 242.246H1629.98V249.014H1632.23V242.246Z" fill="#8A9995"/>
<path d="M1645.78 242.246H1643.52V249.014H1645.78V242.246Z" fill="#8A9995"/>
<path d="M1670.61 242.246H1659.32V249.014H1670.61V242.246Z" fill="#8A9995"/>
<path d="M1697.7 242.246H1695.44V249.014H1697.7V242.246Z" fill="#8A9995"/>
<path d="M1722.53 242.246H1720.27V249.014H1722.53V242.246Z" fill="#8A9995"/>
<path d="M1742.84 255.789H1616.43V262.557H1742.84V255.789Z" fill="white"/>
<path d="M1632.23 255.789H1629.98V262.557H1632.23V255.789Z" fill="#8A9995"/>
<path d="M1645.78 255.789H1643.52V262.557H1645.78V255.789Z" fill="#8A9995"/>
<path d="M1670.61 255.789H1659.32V262.557H1670.61V255.789Z" fill="#8A9995"/>
<path d="M1697.7 255.789H1695.44V262.557H1697.7V255.789Z" fill="#8A9995"/>
<path d="M1722.53 255.789H1720.27V262.557H1722.53V255.789Z" fill="#8A9995"/>
<path d="M1742.84 271.583H1616.43V278.351H1742.84V271.583Z" fill="white"/>
<path d="M1632.23 271.583H1629.98V278.351H1632.23V271.583Z" fill="#8A9995"/>
<path d="M1645.78 271.583H1643.52V278.351H1645.78V271.583Z" fill="#8A9995"/>
<path d="M1670.61 271.583H1659.32V278.351H1670.61V271.583Z" fill="#8A9995"/>
<path d="M1697.7 271.583H1695.44V278.351H1697.7V271.583Z" fill="#8A9995"/>
<path d="M1722.53 271.583H1720.27V278.351H1722.53V271.583Z" fill="#8A9995"/>
<path d="M1742.84 287.385H1616.43V294.153H1742.84V287.385Z" fill="white"/>
<path d="M1632.23 287.385H1629.98V294.153H1632.23V287.385Z" fill="#8A9995"/>
<path d="M1645.78 287.385H1643.52V294.153H1645.78V287.385Z" fill="#8A9995"/>
<path d="M1670.61 287.385H1659.32V294.153H1670.61V287.385Z" fill="#8A9995"/>
<path d="M1697.7 287.385H1695.44V294.153H1697.7V287.385Z" fill="#8A9995"/>
<path d="M1722.53 287.385H1720.27V294.153H1722.53V287.385Z" fill="#8A9995"/>
<path d="M1742.84 303.187H1616.43V309.955H1742.84V303.187Z" fill="white"/>
<path d="M1632.23 303.187H1629.98V309.955H1632.23V303.187Z" fill="#8A9995"/>
<path d="M1645.78 303.187H1643.52V309.955H1645.78V303.187Z" fill="#8A9995"/>
<path d="M1670.61 303.187H1659.32V309.955H1670.61V303.187Z" fill="#8A9995"/>
<path d="M1697.7 303.187H1695.44V309.955H1697.7V303.187Z" fill="#8A9995"/>
<path d="M1722.53 303.187H1720.27V309.955H1722.53V303.187Z" fill="#8A9995"/>
<path d="M1742.84 318.98H1616.43V325.748H1742.84V318.98Z" fill="white"/>
<path d="M1632.23 318.98H1629.98V325.748H1632.23V318.98Z" fill="#8A9995"/>
<path d="M1645.78 318.98H1643.52V325.748H1645.78V318.98Z" fill="#8A9995"/>
<path d="M1670.61 318.98H1659.32V325.748H1670.61V318.98Z" fill="#8A9995"/>
<path d="M1697.7 318.98H1695.44V325.748H1697.7V318.98Z" fill="#8A9995"/>
<path d="M1722.53 318.98H1720.27V325.748H1722.53V318.98Z" fill="#8A9995"/>
<path d="M1742.84 334.782H1616.43V341.55H1742.84V334.782Z" fill="white"/>
<path d="M1632.23 334.782H1629.98V341.55H1632.23V334.782Z" fill="#8A9995"/>
<path d="M1645.78 334.782H1643.52V341.55H1645.78V334.782Z" fill="#8A9995"/>
<path d="M1670.61 334.782H1659.32V341.55H1670.61V334.782Z" fill="#8A9995"/>
<path d="M1697.7 334.782H1695.44V341.55H1697.7V334.782Z" fill="#8A9995"/>
<path d="M1722.53 334.782H1720.27V341.55H1722.53V334.782Z" fill="#8A9995"/>
<path d="M1742.84 350.575H1616.43V357.343H1742.84V350.575Z" fill="white"/>
<path d="M1632.23 350.575H1629.98V357.343H1632.23V350.575Z" fill="#8A9995"/>
<path d="M1645.78 350.575H1643.52V357.343H1645.78V350.575Z" fill="#8A9995"/>
<path d="M1670.61 350.575H1659.32V357.343H1670.61V350.575Z" fill="#8A9995"/>
<path d="M1697.7 350.575H1695.44V357.343H1697.7V350.575Z" fill="#8A9995"/>
<path d="M1722.53 350.575H1720.27V357.343H1722.53V350.575Z" fill="#8A9995"/>
<path d="M1742.84 366.375H1616.43V373.144H1742.84V366.375Z" fill="white"/>
<path d="M1632.23 366.375H1629.98V373.144H1632.23V366.375Z" fill="#8A9995"/>
<path d="M1645.78 366.375H1643.52V373.144H1645.78V366.375Z" fill="#8A9995"/>
<path d="M1670.61 366.375H1659.32V373.144H1670.61V366.375Z" fill="#8A9995"/>
<path d="M1697.7 366.375H1695.44V373.144H1697.7V366.375Z" fill="#8A9995"/>
<path d="M1722.53 366.375H1720.27V373.144H1722.53V366.375Z" fill="#8A9995"/>
<path d="M1742.84 382.171H1616.43V388.939H1742.84V382.171Z" fill="white"/>
<path d="M1632.23 382.171H1629.98V388.939H1632.23V382.171Z" fill="#8A9995"/>
<path d="M1645.78 382.171H1643.52V388.939H1645.78V382.171Z" fill="#8A9995"/>
<path d="M1670.61 382.171H1659.32V388.939H1670.61V382.171Z" fill="#8A9995"/>
<path d="M1697.7 382.171H1695.44V388.939H1697.7V382.171Z" fill="#8A9995"/>
<path d="M1722.53 382.171H1720.27V388.939H1722.53V382.171Z" fill="#8A9995"/>
<path d="M1742.84 397.973H1616.43V404.741H1742.84V397.973Z" fill="white"/>
<path d="M1632.23 397.973H1629.98V404.741H1632.23V397.973Z" fill="#8A9995"/>
<path d="M1645.78 397.973H1643.52V404.741H1645.78V397.973Z" fill="#8A9995"/>
<path d="M1670.61 397.973H1659.32V404.741H1670.61V397.973Z" fill="#8A9995"/>
<path d="M1697.7 397.973H1695.44V404.741H1697.7V397.973Z" fill="#8A9995"/>
<path d="M1722.53 397.973H1720.27V404.741H1722.53V397.973Z" fill="#8A9995"/>
<path d="M1668.36 185.82H1661.58V416.025H1668.36V185.82Z" fill="#768C86"/>
<path d="M485.999 396.815H414.806V416.074H485.999V396.815Z" fill="white"/>
<path d="M486.998 398.255H414.787V373.596H472.861L486.998 385.705V398.255Z" fill="#72645D"/>
<path d="M454.265 416.074H414.806V390.631L434.538 374.606L454.265 390.631V416.074Z" fill="white"/>
<path d="M460.209 360.823H454.266V374.606H460.209V360.823Z" fill="#5E5D5C"/>
<path d="M462.452 371.916H452.251V376.4H462.452V371.916Z" fill="#E7D0B0"/>
<path d="M433.528 385.925H431.172V391.755H433.528V385.925Z" fill="#417A8C"/>
<path d="M437.23 385.925H434.539V391.755H437.23V385.925Z" fill="#417A8C"/>
<path d="M424.673 400.498H421.42V401.616H424.673V400.498Z" fill="#417A8C"/>
<path d="M428.374 400.498H425.684V401.616H428.374V400.498Z" fill="#417A8C"/>
<path d="M424.673 402.399H421.42V409.575H424.673V402.399Z" fill="#417A8C"/>
<path d="M428.374 402.399H425.684V409.575H428.374V402.399Z" fill="#417A8C"/>
<path d="M461.666 401.617H458.078V404.194H461.666V401.617Z" fill="#417A8C"/>
<path d="M461.666 405.988H458.078V408.344H461.666V405.988Z" fill="#417A8C"/>
<path d="M461.666 409.575H458.078V411.931H461.666V409.575Z" fill="#417A8C"/>
<path d="M467.045 401.617H463.457V404.194H467.045V401.617Z" fill="#417A8C"/>
<path d="M467.045 405.988H463.457V408.344H467.045V405.988Z" fill="#417A8C"/>
<path d="M467.045 409.575H463.457V411.931H467.045V409.575Z" fill="#417A8C"/>
<path d="M472.424 401.617H468.836V404.194H472.424V401.617Z" fill="#417A8C"/>
<path d="M472.424 405.988H468.836V408.344H472.424V405.988Z" fill="#417A8C"/>
<path d="M472.424 409.575H468.836V411.931H472.424V409.575Z" fill="#417A8C"/>
<path d="M477.807 401.617H474.219V404.194H477.807V401.617Z" fill="#417A8C"/>
<path d="M477.807 405.988H474.219V408.344H477.807V405.988Z" fill="#417A8C"/>
<path d="M477.807 409.575H474.219V411.931H477.807V409.575Z" fill="#417A8C"/>
<path d="M483.188 401.617H479.601V404.194H483.188V401.617Z" fill="#417A8C"/>
<path d="M483.188 405.988H479.601V408.344H483.188V405.988Z" fill="#417A8C"/>
<path d="M483.188 409.575H479.601V411.931H483.188V409.575Z" fill="#417A8C"/>
<path d="M443.509 400.498H440.256V401.616H443.509V400.498Z" fill="#417A8C"/>
<path d="M447.205 400.498H444.514V401.616H447.205V400.498Z" fill="#417A8C"/>
<path d="M443.509 402.399H440.256V409.575H443.509V402.399Z" fill="#417A8C"/>
<path d="M447.205 402.399H444.514V409.575H447.205V402.399Z" fill="#417A8C"/>
<path d="M400.644 366.749H398.357V375.137H400.644V366.749Z" fill="#6B3425"/>
<path d="M447.86 395.9H388.971V375.137L418.418 368.101L447.86 375.137V395.9Z" fill="#8A9995"/>
<path d="M449.735 395.899H386.854V416.074H449.735V395.899Z" fill="#776B67"/>
<path d="M399.998 381.353H396.714V389.444H399.998V381.353Z" fill="#417A8C"/>
<path d="M404.983 381.353H400.644V389.444H404.983V381.353Z" fill="#417A8C"/>
<path d="M418.298 381.353H415.014V389.444H418.298V381.353Z" fill="#417A8C"/>
<path d="M423.283 381.353H418.943V389.444H423.283V381.353Z" fill="#417A8C"/>
<path d="M435.189 381.353H431.904V389.444H435.189V381.353Z" fill="#417A8C"/>
<path d="M440.179 381.353H435.84V389.444H440.179V381.353Z" fill="#417A8C"/>
<path d="M399.998 398.248H396.714V406.339H399.998V398.248Z" fill="#417A8C"/>
<path d="M404.983 398.248H400.644V406.339H404.983V398.248Z" fill="#417A8C"/>
<path d="M418.298 398.248H415.014V406.339H418.298V398.248Z" fill="#417A8C"/>
<path d="M423.283 398.248H418.943V406.339H423.283V398.248Z" fill="#417A8C"/>
<path d="M435.189 398.248H431.904V406.339H435.189V398.248Z" fill="#417A8C"/>
<path d="M440.179 398.248H435.84V406.339H440.179V398.248Z" fill="#417A8C"/>
<path d="M448.409 375.585L418.323 368.176L388.13 375.478L388.073 375.263L418.323 367.949L418.348 367.955L448.459 375.371L448.409 375.585Z" fill="#6B3425"/>
<path d="M395.261 380.524H263.84V416.074H395.261V380.524Z" fill="white"/>
<path d="M397.093 383.178H263.796V337.667H371L397.093 360.009V383.178Z" fill="#818986"/>
<path d="M336.676 416.073H263.84V369.11L300.255 339.523L336.676 369.11V416.073Z" fill="white"/>
<path d="M347.642 314.081H336.677V339.53H347.642V314.081Z" fill="white"/>
<path d="M351.779 334.559H332.949V342.834H351.779V334.559Z" fill="#417A8C"/>
<path d="M298.392 360.418H294.046V371.176H298.392V360.418Z" fill="#417A8C"/>
<path d="M305.22 360.418H300.255V371.176H305.22V360.418Z" fill="#417A8C"/>
<path d="M282.045 387.315H276.044V389.387H282.045V387.315Z" fill="#417A8C"/>
<path d="M288.872 387.315H283.907V389.387H288.872V387.315Z" fill="#417A8C"/>
<path d="M282.045 390.833H276.044V404.073H282.045V390.833Z" fill="#417A8C"/>
<path d="M288.872 390.833H283.907V404.073H288.872V390.833Z" fill="#417A8C"/>
<path d="M350.332 389.389H343.712V394.145H350.332V389.389Z" fill="#417A8C"/>
<path d="M350.332 397.455H343.712V401.8H350.332V397.455Z" fill="#417A8C"/>
<path d="M350.332 404.081H343.712V408.426H350.332V404.081Z" fill="#417A8C"/>
<path d="M360.262 389.389H353.643V394.145H360.262V389.389Z" fill="#417A8C"/>
<path d="M360.262 397.455H353.643V401.8H360.262V397.455Z" fill="#417A8C"/>
<path d="M360.262 404.081H353.643V408.426H360.262V404.081Z" fill="#417A8C"/>
<path d="M370.193 389.389H363.573V394.145H370.193V389.389Z" fill="#417A8C"/>
<path d="M370.193 397.455H363.573V401.8H370.193V397.455Z" fill="#417A8C"/>
<path d="M370.193 404.081H363.573V408.426H370.193V404.081Z" fill="#417A8C"/>
<path d="M380.127 389.389H373.507V394.145H380.127V389.389Z" fill="#417A8C"/>
<path d="M380.127 397.455H373.507V401.8H380.127V397.455Z" fill="#417A8C"/>
<path d="M380.127 404.081H373.507V408.426H380.127V404.081Z" fill="#417A8C"/>
<path d="M390.057 389.389H383.438V394.145H390.057V389.389Z" fill="#417A8C"/>
<path d="M390.057 397.455H383.438V401.8H390.057V397.455Z" fill="#417A8C"/>
<path d="M390.057 404.081H383.438V408.426H390.057V404.081Z" fill="#417A8C"/>
<path d="M316.809 387.315H310.809V389.387H316.809V387.315Z" fill="#417A8C"/>
<path d="M323.637 387.315H318.672V389.387H323.637V387.315Z" fill="#417A8C"/>
<path d="M316.809 390.833H310.809V404.073H316.809V390.833Z" fill="#417A8C"/>
<path d="M323.637 390.833H318.672V404.073H323.637V390.833Z" fill="#417A8C"/>
<path d="M220.756 311.91H215.924V329.621H220.756V311.91Z" fill="#6B3425"/>
<path d="M320.482 373.47H196.109V329.621L258.296 314.758L320.482 329.621V373.47Z" fill="#EAE7E4"/>
<path d="M324.448 373.471H191.649V416.076H324.448V373.471Z" fill="#686665"/>
<path d="M219.393 342.754H212.457V359.846H219.393V342.754Z" fill="#AFD1D3"/>
<path d="M229.923 342.754H220.758V359.846H229.923V342.754Z" fill="#AFD1D3"/>
<path d="M258.044 342.755H251.108V359.848H258.044V342.755Z" fill="#AFD1D3"/>
<path d="M268.573 342.755H259.408V359.848H268.573V342.755Z" fill="#AFD1D3"/>
<path d="M293.716 342.755H286.78V359.848H293.716V342.755Z" fill="#AFD1D3"/>
<path d="M304.247 342.755H295.082V359.848H304.247V342.755Z" fill="#AFD1D3"/>
<path d="M219.393 378.424H212.457V395.516H219.393V378.424Z" fill="#417A8C"/>
<path d="M229.923 378.424H220.758V395.516H229.923V378.424Z" fill="#417A8C"/>
<path d="M258.043 378.424H251.107V395.516H258.043V378.424Z" fill="#417A8C"/>
<path d="M268.573 378.424H259.408V395.516H268.573V378.424Z" fill="#417A8C"/>
<path d="M293.717 378.424H286.781V395.516H293.717V378.424Z" fill="#417A8C"/>
<path d="M304.247 378.424H295.082V395.516H304.247V378.424Z" fill="#417A8C"/>
<path d="M321.631 330.568L258.093 314.916L194.328 330.335L194.221 329.886L258.093 314.442L258.15 314.455L321.739 330.12L321.631 330.568Z" fill="#6B3425"/>
<path d="M204.965 365.739H0V296.093H164.836L204.965 330.284V365.739Z" fill="#A09795"/>
<path d="M112.063 416.075H0.0644531V344.212L56.0604 298.941L112.063 344.212V416.075Z" fill="#AFABAA"/>
<path d="M128.927 260H112.062V298.941H128.927V260Z" fill="#AFABAA"/>
<path d="M135.287 291.342H106.332V304.006H135.287V291.342Z" fill="#E0DDDA"/>
<path d="M53.1985 330.916H46.5156V347.376H53.1985V330.916Z" fill="#417A8C"/>
<path d="M63.6962 330.916H56.0596V347.376H63.6962V330.916Z" fill="#417A8C"/>
<path d="M28.0644 372.073H18.8359V375.237H28.0644V372.073Z" fill="#6F99A3"/>
<path d="M38.5634 372.073H30.9268V375.237H38.5634V372.073Z" fill="#6F99A3"/>
<path d="M28.0644 377.455H18.8359V397.718H28.0644V377.455Z" fill="#6F99A3"/>
<path d="M38.5634 377.455H30.9268V397.718H38.5634V377.455Z" fill="#6F99A3"/>
<path d="M133.056 375.238H122.874V382.521H133.056V375.238Z" fill="#417A8C"/>
<path d="M133.056 387.582H122.874V394.233H133.056V387.582Z" fill="#417A8C"/>
<path d="M133.056 397.712H122.874V404.364H133.056V397.712Z" fill="#417A8C"/>
<path d="M148.333 375.238H138.15V382.521H148.333V375.238Z" fill="#417A8C"/>
<path d="M148.333 387.582H138.15V394.233H148.333V387.582Z" fill="#417A8C"/>
<path d="M148.333 397.712H138.15V404.364H148.333V397.712Z" fill="#417A8C"/>
<path d="M163.606 375.238H153.424V382.521H163.606V375.238Z" fill="#417A8C"/>
<path d="M163.606 387.582H153.424V394.233H163.606V387.582Z" fill="#417A8C"/>
<path d="M163.606 397.712H153.424V404.364H163.606V397.712Z" fill="#417A8C"/>
<path d="M178.872 375.238H168.689V382.521H178.872V375.238Z" fill="#417A8C"/>
<path d="M178.872 387.582H168.689V394.233H178.872V387.582Z" fill="#417A8C"/>
<path d="M178.872 397.712H168.689V404.364H178.872V397.712Z" fill="#417A8C"/>
<path d="M194.144 375.238H183.962V382.521H194.144V375.238Z" fill="#417A8C"/>
<path d="M194.144 387.582H183.962V394.233H194.144V387.582Z" fill="#417A8C"/>
<path d="M194.144 397.712H183.962V404.364H194.144V397.712Z" fill="#417A8C"/>
<path d="M81.5155 372.074H72.2871V375.238H81.5155V372.074Z" fill="#6F99A3"/>
<path d="M92.0136 372.074H84.377V375.238H92.0136V372.074Z" fill="#6F99A3"/>
<path d="M81.5155 377.455H72.2871V397.718H81.5155V377.455Z" fill="#6F99A3"/>
<path d="M92.0136 377.455H84.377V397.718H92.0136V377.455Z" fill="#6F99A3"/>
<path d="M581.228 277.042C593.255 277.042 603.001 286.788 603.001 298.815V416.081H559.455V298.815C559.455 286.788 569.201 277.042 581.228 277.042Z" fill="#8A9995"/>
<path d="M603.001 298.809H559.455V301.619H603.001V298.809Z" fill="#72645D"/>
<path d="M603.001 314.258H559.455V317.069H603.001V314.258Z" fill="#72645D"/>
<path d="M603.001 329.702H559.455V332.512H603.001V329.702Z" fill="#72645D"/>
<path d="M603.001 345.153H559.455V347.964H603.001V345.153Z" fill="#72645D"/>
<path d="M603.001 360.602H559.455V363.413H603.001V360.602Z" fill="#72645D"/>
<path d="M603.001 376.053H559.455V378.864H603.001V376.053Z" fill="#72645D"/>
<path d="M603.001 391.497H559.455V394.307H603.001V391.497Z" fill="#72645D"/>
<path d="M481.596 379.439V416.075H527.182V335.647L496.793 352.626L487.849 374.077L481.596 379.439Z" fill="#EFE6E4"/>
<path d="M478.589 382.806L477.452 381.422L487.11 373.527L496.086 352L526.74 334.87L527.618 336.43L497.494 353.257L488.595 374.626L478.589 382.806Z" fill="#3D3B38"/>
<path d="M517.353 364.242H507.519V373.18H517.353V364.242Z" fill="white"/>
<path d="M506.622 388.37H487.85V403.561H506.622V388.37Z" fill="white"/>
<path d="M527.182 389.267H510.197V391.055H527.182V389.267Z" fill="white"/>
<path d="M527.182 390.158H511.984V416.074H527.182V390.158Z" fill="white"/>
<path d="M525.395 391.055H513.772V414.287H525.395V391.055Z" fill="#897F7D"/>
<path d="M526.285 413.396L515.339 390.158H513.772L526.285 415.184V413.396Z" fill="white"/>
<path d="M525.395 390.158L512.882 415.184H514.669L526.658 390.158H525.395Z" fill="white"/>
<path d="M496.789 390.157H489.639V401.773H496.789V390.157Z" fill="#897F7D"/>
<path d="M494.11 389.266H492.322V402.67H494.11V389.266Z" fill="white"/>
<path d="M497.685 392.841H487.851V394.629H497.685V392.841Z" fill="white"/>
<path d="M497.685 397.307H487.851V399.095H497.685V397.307Z" fill="white"/>
<path d="M515.566 366.029H509.307V371.392H515.566V366.029Z" fill="#897F7D"/>
<path d="M512.881 365.138H511.984V372.288H512.881V365.138Z" fill="white"/>
<path d="M516.456 367.817H507.519V368.708H516.456V367.817Z" fill="white"/>
<path d="M505.731 390.157H498.581V401.773H505.731V390.157Z" fill="#897F7D"/>
<path d="M503.046 389.266H501.259V402.67H503.046V389.266Z" fill="white"/>
<path d="M506.628 392.841H496.793V394.629H506.628V392.841Z" fill="white"/>
<path d="M506.628 397.307H496.793V399.095H506.628V397.307Z" fill="white"/>
<path d="M571.738 379.439V416.075H526.158V335.647L556.547 352.626L565.485 374.077L571.738 379.439Z" fill="#EFE6E4"/>
<path d="M574.751 382.806L575.882 381.422L566.224 373.527L557.248 352L526.594 334.87L525.723 336.43L555.84 353.257L564.746 374.626L574.751 382.806Z" fill="#3D3B38"/>
<path d="M535.986 373.183L545.821 373.183L545.821 364.245L535.986 364.245L535.986 373.183Z" fill="white"/>
<path d="M545.815 403.567L564.588 403.567L564.588 388.376L545.815 388.376L545.815 403.567Z" fill="white"/>
<path d="M526.152 391.052L543.137 391.052L543.137 389.265L526.152 389.265L526.152 391.052Z" fill="white"/>
<path d="M526.151 416.078L541.349 416.078L541.349 390.161L526.151 390.161L526.151 416.078Z" fill="white"/>
<path d="M527.939 414.288L539.562 414.288L539.562 391.055L527.939 391.055L527.939 414.288Z" fill="#897F7D"/>
<path d="M527.049 413.396L538.002 390.158H539.562L527.049 415.184V413.396Z" fill="white"/>
<path d="M527.946 390.158L540.459 415.184H538.672L526.677 390.158H527.946Z" fill="white"/>
<path d="M555.652 401.78L562.803 401.78L562.803 390.164L555.652 390.164L555.652 401.78Z" fill="#897F7D"/>
<path d="M558.331 402.67L560.118 402.67L560.118 389.267L558.331 389.267L558.331 402.67Z" fill="white"/>
<path d="M554.753 394.626L564.588 394.626L564.588 392.839L554.753 392.839L554.753 394.626Z" fill="white"/>
<path d="M554.753 399.098L564.588 399.098L564.588 397.31L554.753 397.31L554.753 399.098Z" fill="white"/>
<path d="M537.774 371.396L544.033 371.396L544.033 366.033L537.774 366.033L537.774 371.396Z" fill="#897F7D"/>
<path d="M540.452 372.287L541.349 372.287L541.349 365.136L540.452 365.136L540.452 372.287Z" fill="white"/>
<path d="M536.879 368.713L545.817 368.713L545.817 367.823L536.879 367.823L536.879 368.713Z" fill="white"/>
<path d="M546.716 401.78L553.866 401.78L553.866 390.164L546.716 390.164L546.716 401.78Z" fill="#897F7D"/>
<path d="M549.394 402.67L551.182 402.67L551.182 389.267L549.394 389.267L549.394 402.67Z" fill="white"/>
<path d="M545.817 394.626L555.651 394.626L555.651 392.839L545.817 392.839L545.817 394.626Z" fill="white"/>
<path d="M545.817 399.098L555.651 399.098L555.651 397.31L545.817 397.31L545.817 399.098Z" fill="white"/>
</g>
<defs>
<clipPath id="clip0_113_29350">
<rect width="1920" height="930" fill="white"/>
</clipPath>
</defs>
</svg>
