<svg width="1920" height="972" viewBox="0 0 1920 972" fill="none" xmlns="http://www.w3.org/2000/svg">
<g clip-path="url(#clip0_131_3737)">
<rect width="1920" height="972" fill="white"/>
<path d="M1921 0H0V972H1921V0Z" fill="#96C22F"/>
<path d="M340.852 237.33C365.279 248.28 363.594 260.073 365.279 261.757C366.963 263.442 392.233 265.126 394.76 261.757C397.287 258.388 395.602 245.753 410.764 230.591C396.444 234.803 388.864 249.965 388.864 249.965C388.864 249.965 391.391 228.065 404.868 208.691C387.179 217.957 379.598 239.015 379.598 239.015C375.387 228.907 371.175 212.903 352.644 199.426C368.648 226.38 368.648 245.753 368.648 245.753C368.648 245.753 358.54 234.803 340.852 237.33Z" fill="#7FA024"/>
<path d="M54 528.32C77.5848 535.059 100.327 552.748 103.697 554.432C107.066 556.117 136.547 557.801 139.074 554.432C141.601 551.063 150.866 528.32 166.028 508.105C145.812 515.686 134.02 538.428 134.02 538.428C134.02 538.428 124.755 520.74 127.281 499.682C113.804 513.159 119.701 532.532 119.701 532.532C105.819 522.492 102.012 509.789 79.2695 507.262C102.012 524.109 101.17 535.901 101.17 535.901C101.17 535.901 71.6886 524.109 54 528.32Z" fill="#7FA024"/>
<path d="M432 817.336C426.396 826.054 425.774 840.997 425.151 842.865C424.528 844.733 407.094 845.979 405.848 842.865C404.603 839.752 402.113 831.658 388.414 823.563C399.622 823.563 410.207 832.903 410.207 832.903C410.207 832.903 412.075 824.808 406.471 813.6C411.452 815.468 413.943 822.318 413.943 822.318C413.943 822.318 417.679 806.129 429.509 799.279C423.283 809.242 423.283 826.676 423.283 826.676C423.283 826.676 426.396 818.582 432 817.336Z" fill="#7FA024"/>
<path d="M304.977 847.845C307.324 846.805 289.41 845.977 291.278 843.486C293.146 840.996 336.11 843.486 347.317 843.486C358.525 843.486 357.903 820.448 334.864 824.184C336.732 816.09 328.015 811.731 323.034 815.467C326.147 807.372 319.921 798.655 311.826 801.768C323.034 768.768 283.184 772.503 266.995 784.957C269.485 779.975 265.127 774.371 260.768 777.485C259.523 758.182 235.239 768.145 233.371 771.258C235.239 765.654 227.767 743.239 205.974 757.56C211.578 736.389 187.294 727.672 171.105 757.56C169.237 745.729 134.991 739.503 141.218 770.013C137.482 768.768 118.179 767.522 124.406 783.711C121.293 781.843 103.236 787.447 115.689 798.032C110.085 798.032 85.8012 806.127 97.009 827.92C89.5371 822.316 70.8574 823.561 79.5746 837.883C75.8387 836.637 68.3668 838.505 66.4988 842.864C64.6308 847.222 68.9894 847.845 75.216 847.845C81.4426 847.845 299.373 850.336 304.977 847.845Z" fill="#7FA024"/>
<path d="M192.587 790.248C196.323 793.984 186.983 800.833 185.115 796.474C183.247 792.116 188.851 786.512 192.587 790.248Z" fill="#512176"/>
<path d="M195.701 803.327C197.949 805.575 192.588 807.686 191.343 805.195C190.097 802.704 193.833 801.459 195.701 803.327Z" fill="#512176"/>
<path d="M205.665 793.364C207.484 795.182 201.929 801.458 200.062 797.722C198.194 793.986 203.797 791.496 205.665 793.364Z" fill="#512176"/>
<path d="M183.25 802.702C183.53 803.536 179.514 805.192 178.269 802.702C177.023 800.211 182.004 798.966 183.25 802.702Z" fill="#512176"/>
<path d="M177.02 792.741C176.479 794.921 170.794 794.609 172.039 791.496C173.284 788.383 177.643 790.251 177.02 792.741Z" fill="#512176"/>
<path d="M174.531 809.556C175.776 811.424 172.04 814.537 170.172 812.046C168.304 809.556 173.285 807.688 174.531 809.556Z" fill="#512176"/>
<path d="M172.041 802.082C172.664 803.327 167.682 805.818 166.437 802.704C165.192 799.591 170.796 799.591 172.041 802.082Z" fill="#512176"/>
<path d="M215.005 806.44C214.382 808.308 207.533 807.685 208.778 805.195C210.023 802.704 215.627 804.572 215.005 806.44Z" fill="#512176"/>
<path d="M156.475 807.685C157.098 810.175 152.117 812.666 150.871 810.798C149.626 808.93 155.852 805.194 156.475 807.685Z" fill="#512176"/>
<path d="M410.551 642.906C410.551 642.906 410.869 632.405 397.187 635.269C419.779 623.496 400.687 610.768 394.005 616.177C401.96 571.948 363.14 574.493 347.548 578.63C374.595 529.309 321.774 529.309 302.364 544.265C284.864 496.217 240.952 526.764 242.225 543.947C237.77 528.673 224.406 540.765 226.315 547.765C214.86 533.128 202.769 545.219 204.042 550.947C168.404 521.036 165.222 554.765 170.313 561.766C161.403 556.038 158.221 564.947 162.676 569.402C148.039 564.947 141.039 577.039 147.403 586.585C125.129 575.766 119.401 593.585 122.583 599.313C90.1272 588.494 95.2184 622.859 108.583 623.496C97.1275 631.132 102.855 640.678 111.128 642.587C118.059 644.178 411.506 647.679 410.551 642.906Z" fill="#7FA024"/>
<path d="M324.637 570.355C320.183 568.446 318.91 577.992 322.092 578.629C325.274 579.265 329.092 572.265 324.637 570.355Z" fill="#512176"/>
<path d="M301.091 563.993C298.978 565.679 303 570.993 305.545 569.084C308.091 567.175 304.273 561.447 301.091 563.993Z" fill="#512176"/>
<path d="M313.184 576.084C310.931 574.734 309.366 579.266 311.275 579.902C313.184 580.538 316.366 577.993 313.184 576.084Z" fill="#512176"/>
<path d="M315.728 560.809C313.227 560.312 313.183 565.9 315.728 566.536C318.274 567.172 318.91 561.445 315.728 560.809Z" fill="#512176"/>
<path d="M310.637 569.72C308.091 570.993 313.182 573.538 314.455 572.266C315.728 570.993 313.182 568.447 310.637 569.72Z" fill="#512176"/>
<path d="M225.359 576.083C223.106 573.83 220.904 577.356 222.813 578.628C224.722 579.901 226.632 577.356 225.359 576.083Z" fill="#512176"/>
<path d="M222.179 583.721C221.543 584.994 225.998 584.358 225.998 583.721C225.998 583.085 222.816 582.448 222.179 583.721Z" fill="#512176"/>
<path d="M211.359 583.719C211.359 585.628 215.178 586.265 215.178 584.356C215.178 582.446 211.359 581.81 211.359 583.719Z" fill="#512176"/>
<path d="M220.27 588.175C218.093 588.901 220.906 591.357 222.816 590.084C224.725 588.812 222.179 587.539 220.27 588.175Z" fill="#512176"/>
<path d="M219.632 579.902C217.01 580.538 218.996 583.084 220.269 582.448C221.541 581.811 222.178 579.266 219.632 579.902Z" fill="#512176"/>
<path d="M151.538 605.356C150.265 607.902 152.811 609.175 154.72 606.629C156.629 604.084 152.811 602.811 151.538 605.356Z" fill="#512176"/>
<path d="M156.63 607.904C154.721 609.177 157.266 612.359 158.539 610.45C159.812 608.541 158.539 606.632 156.63 607.904Z" fill="#512176"/>
<path d="M153.45 611.086C151.541 609.813 149.632 611.086 150.904 612.359C152.177 613.631 155.359 612.359 153.45 611.086Z" fill="#512176"/>
<path d="M143.265 610.451C142.183 611.889 145.81 612.996 146.447 611.723C147.083 610.451 145.174 607.905 143.265 610.451Z" fill="#512176"/>
<path d="M140.72 617.451C141.166 618.8 145.175 616.814 143.266 615.542C141.357 614.269 140.084 615.542 140.72 617.451Z" fill="#512176"/>
<path d="M315.03 230.877C329.645 230.877 359.673 230.035 359.673 217.207C359.673 210.833 356.023 207.183 348.723 206.257C362.402 201.691 354.198 187.111 349.641 189.848C366.049 147 319.554 150.647 305.841 155.204C359.623 114.192 304.931 97.7832 286.703 105.069C299.464 87.7512 278.499 84.1124 275.753 87.7512C270.287 44.0013 211.948 52.2053 207.391 72.2609C146.314 32.1498 123.53 92.308 130.824 103.25C93.4507 102.34 106.212 131.509 110.769 134.239C74.3049 136.066 79.78 167.089 94.3605 180.726C70.6577 180.726 77.9521 208.986 90.7132 208.986C81.5994 209.896 65.1911 208.076 66.1008 221.747C66.6483 229.884 70.6577 229.951 87.066 230.861C103.474 231.77 308.629 230.877 315.03 230.877Z" fill="#7FA024"/>
<path d="M190.585 108.277C184.2 114.662 192.404 121.948 199.698 114.662C206.993 107.376 196.961 101.901 190.585 108.277Z" fill="#512176"/>
<path d="M161.418 133.8C165.049 143.79 176.917 129.243 172.368 126.514C167.82 123.785 157.771 123.776 161.418 133.8Z" fill="#512176"/>
<path d="M195.143 131.094C188.758 133.823 194.233 140.207 202.437 137.47C210.641 134.732 201.519 128.331 195.143 131.094Z" fill="#512176"/>
<path d="M1521.97 669.618C1543.77 678.255 1572.15 707.458 1572.15 707.458C1572.15 707.458 1591.48 715.272 1607.93 707.869C1607.93 707.869 1655.64 665.094 1671.68 657.279C1650.71 657.69 1625.62 676.199 1625.62 676.199C1625.62 676.199 1632.61 637.948 1665.1 604.633C1634.26 612.448 1607.52 670.441 1607.52 670.441C1607.52 670.441 1608.75 635.48 1622.33 616.149C1599.71 633.012 1591.07 671.263 1591.07 671.263C1591.07 671.263 1572.56 652.755 1558.99 623.553C1565.16 654.4 1576.67 688.127 1576.67 688.127C1576.67 688.127 1546.24 665.916 1521.97 669.618Z" fill="#7FA024"/>
<path d="M1698.18 723.656C1717.1 731.882 1737.67 766.431 1737.67 766.431C1737.67 766.431 1750.83 711.317 1773.04 690.752C1762.35 712.14 1756.59 763.141 1756.59 763.141C1756.59 763.141 1772.22 728.591 1791.96 715.43C1778.8 733.527 1769.75 782.06 1768.1 784.528C1766.46 786.996 1733.56 800.158 1730.26 794.399C1726.97 788.641 1719.57 754.092 1698.18 723.656Z" fill="#7FA024"/>
<path d="M1465 166.858C1465 166.858 1464.63 154.72 1480.45 158.031C1454.34 144.422 1476.4 129.71 1484.13 135.963C1474.93 84.8396 1519.8 87.782 1537.83 92.5633C1506.56 35.5553 1567.62 35.5553 1590.05 52.8416C1610.28 -2.69526 1661.04 32.6129 1659.57 52.4738C1664.71 34.8197 1680.16 48.7958 1677.96 56.8873C1691.2 39.9688 1705.17 53.945 1703.7 60.5652C1744.89 25.9926 1748.57 64.9788 1742.69 73.0702C1752.99 66.4499 1756.66 76.7481 1751.51 81.8973C1768.43 76.7481 1776.52 90.7243 1769.17 101.758C1794.91 89.2531 1801.53 109.85 1797.86 116.47C1835.37 103.965 1829.49 143.687 1814.04 144.422C1827.28 153.249 1820.66 164.283 1811.1 166.49C1803.09 168.329 1463.9 172.374 1465 166.858Z" fill="#7FA024"/>
<path d="M1564.3 83.0022C1569.45 80.7954 1570.93 91.8292 1567.25 92.5648C1563.57 93.3004 1559.16 85.209 1564.3 83.0022Z" fill="#512176"/>
<path d="M1591.52 75.6435C1593.96 77.5928 1589.32 83.7349 1586.38 81.5282C1583.43 79.3214 1587.85 72.7011 1591.52 75.6435Z" fill="#512176"/>
<path d="M1577.55 89.6224C1580.15 88.063 1581.96 93.3004 1579.75 94.036C1577.55 94.7715 1573.87 91.8292 1577.55 89.6224Z" fill="#512176"/>
<path d="M1574.6 71.9657C1577.49 71.392 1577.55 77.8504 1574.6 78.586C1571.66 79.3216 1570.93 72.7013 1574.6 71.9657Z" fill="#512176"/>
<path d="M1580.49 82.2623C1583.43 83.7335 1577.55 86.6758 1576.08 85.2046C1574.61 83.7335 1577.55 80.7911 1580.49 82.2623Z" fill="#512176"/>
<path d="M1679.06 89.6213C1681.66 87.0173 1684.21 91.0925 1682 92.5636C1679.8 94.0348 1677.59 91.0925 1679.06 89.6213Z" fill="#512176"/>
<path d="M1682.74 98.449C1683.47 99.9202 1678.32 99.1846 1678.32 98.449C1678.32 97.7134 1682 96.9778 1682.74 98.449Z" fill="#512176"/>
<path d="M1690.09 87.4155C1692.3 88.8867 1688.62 93.3002 1687.15 91.0935C1685.68 88.8867 1687.89 85.9443 1690.09 87.4155Z" fill="#512176"/>
<path d="M1695.24 98.4477C1695.24 100.654 1690.83 101.39 1690.83 99.1833C1690.83 96.9765 1695.24 96.2409 1695.24 98.4477Z" fill="#512176"/>
<path d="M1684.94 103.598C1687.46 104.437 1684.21 107.276 1682 105.805C1679.79 104.334 1682.74 102.862 1684.94 103.598Z" fill="#512176"/>
<path d="M1685.68 94.0331C1688.71 94.7687 1686.42 97.711 1684.95 96.9754C1683.47 96.2398 1682.74 93.2975 1685.68 94.0331Z" fill="#512176"/>
<path d="M1764.39 123.457C1765.86 126.4 1762.91 127.871 1760.71 124.929C1758.5 121.986 1762.91 120.515 1764.39 123.457Z" fill="#512176"/>
<path d="M1758.5 126.398C1760.71 127.869 1757.77 131.547 1756.3 129.341C1754.82 127.134 1756.3 124.927 1758.5 126.398Z" fill="#512176"/>
<path d="M1762.18 130.078C1764.39 128.607 1766.59 130.078 1765.12 131.549C1763.65 133.02 1759.97 131.549 1762.18 130.078Z" fill="#512176"/>
<path d="M1773.95 129.343C1775.2 131.005 1771.01 132.285 1770.27 130.814C1769.54 129.343 1771.74 126.401 1773.95 129.343Z" fill="#512176"/>
<path d="M1776.89 137.436C1776.37 138.995 1771.74 136.7 1773.95 135.229C1776.16 133.758 1777.63 135.229 1776.89 137.436Z" fill="#512176"/>
<path d="M1583.48 563.703C1570.31 563.703 1543.17 562.881 1543.17 551.364C1543.17 545.606 1546.46 542.316 1553.04 541.493C1540.7 537.38 1548.1 524.218 1552.22 526.686C1537.41 488.024 1579.36 491.314 1591.7 495.427C1543.17 458.41 1592.52 443.604 1608.98 450.184C1597.46 434.555 1616.38 431.265 1618.85 434.555C1623.78 395.07 1676.43 402.474 1680.54 420.571C1735.66 384.377 1756.22 438.668 1749.64 448.539C1783.37 447.717 1771.85 474.04 1767.74 476.508C1800.64 478.153 1795.71 506.121 1782.54 518.46C1803.93 518.46 1797.35 543.961 1785.83 543.961C1794.06 544.783 1808.87 543.138 1808.04 555.477C1807.56 562.815 1803.93 562.881 1789.13 563.703C1774.32 564.526 1589.23 563.703 1583.48 563.703Z" fill="#7FA024"/>
<path d="M1695.76 453.063C1701.52 458.821 1694.12 465.402 1687.54 458.821C1680.95 452.241 1690 447.305 1695.76 453.063Z" fill="#512176"/>
<path d="M1722.08 476.095C1718.79 485.144 1708.1 471.982 1712.21 469.514C1716.32 467.046 1725.37 467.046 1722.08 476.095Z" fill="#512176"/>
<path d="M1691.65 473.623C1697.41 476.091 1692.47 481.849 1685.07 479.382C1677.67 476.914 1685.89 471.156 1691.65 473.623Z" fill="#512176"/>
<path d="M1631.6 512.288C1637.35 518.047 1625.84 521.337 1623.37 516.401C1620.9 511.466 1625.84 506.53 1631.6 512.288Z" fill="#512176"/>
<path d="M1598.69 509.82C1602.81 501.594 1610.21 506.53 1606.92 513.933C1603.63 521.336 1594.58 518.046 1598.69 509.82Z" fill="#512176"/>
</g>
<defs>
<clipPath id="clip0_131_3737">
<rect width="1920" height="972" fill="white"/>
</clipPath>
</defs>
</svg>
