<svg width="1920" height="1711" viewBox="0 0 1920 1711" fill="none" xmlns="http://www.w3.org/2000/svg">
<g clip-path="url(#clip0_131_3905)">
<rect width="1920" height="1711" fill="white"/>
<path d="M1921 0H0V1711H1921V0Z" fill="#96C22F"/>
<path d="M-191.221 260.343C-191.221 260.343 70.0297 164.87 306.267 227.9C542.504 290.931 753.413 279.595 1189.14 254.781C1417.04 241.804 1936.77 188.043 2083.14 168.577C2229.51 149.112 2363.85 217.704 2363.85 217.704V765.515C2363.85 765.515 2094.26 792.395 1835.79 765.515C1577.31 738.634 939.938 901.772 691.657 894.357C443.377 886.941 -194 635.746 -194 635.746L-191.221 260.343Z" fill="#7FA024"/>
<path opacity="0.21" d="M-191.221 331.713C-191.221 331.713 64.4712 235.313 300.708 298.344C536.945 361.375 657.695 379.969 1091.87 424.405C1535.63 469.824 2014.58 283.513 2160.96 264.048C2307.33 244.582 2363.85 277.025 2363.85 277.025V1082.52H-194L-191.221 331.713Z" fill="#305937"/>
<path opacity="0.21" d="M-191.221 443.871C-191.221 443.871 41.3107 355.573 283.106 391.964C597.163 439.237 642.557 629.255 1076.12 679.309C1509.69 729.363 1828.25 443.769 2025.7 391.964C2234.15 337.275 2363.85 360.448 2363.85 360.448V1082.52H-194L-191.221 443.871Z" fill="#305937"/>
<path d="M-193.398 943.623C-193.398 943.623 89.4845 859.134 308.12 894.357C526.755 929.58 882.5 1010.22 1077.05 1007.44C1271.6 1004.66 1862.65 920.311 2039.6 922.165C2216.54 924.019 2363.85 990.025 2363.85 990.025V1082.52H-194L-193.398 943.623Z" fill="#96C22F"/>
<path d="M252.067 230.147C252.067 230.147 228.789 209.631 237.001 202.792C245.212 195.954 257.506 213.744 257.506 213.744C257.506 213.744 235.604 178.134 253.405 169.918C271.205 161.701 280.745 206.896 280.745 206.896C280.745 206.896 268.422 128.817 301.25 126.081C334.078 123.346 320.515 195.954 320.515 195.954C320.515 195.954 325.993 153.485 341.02 157.598C356.048 161.711 341.02 198.689 341.02 198.689C341.02 198.689 356.087 168.56 364.298 172.663C372.51 176.766 349.242 219.235 349.242 219.235C349.242 219.235 364.298 201.434 371.143 205.557C377.988 209.68 357.473 230.216 357.473 230.216L252.067 230.147Z" fill="#7FA024"/>
<path d="M53.4313 265.042C53.4313 265.042 13.9931 247.955 22.0975 237.629C30.2019 227.302 49.301 246.597 49.301 246.597C49.301 246.597 13.7392 216.467 24.9585 205.398C40.3764 190.119 65.1094 232.47 65.1094 232.47C65.1094 232.47 29.8406 171.429 46.6353 164.425C68.5465 155.319 83.5445 226.413 83.5445 226.413C83.5445 226.413 76.2212 195.912 89.4617 193.812C108.278 190.832 103.825 237.648 103.825 237.648C103.825 237.648 106.549 215.295 115.054 217.357C129.613 220.883 113.765 244.604 113.765 244.604L53.4313 265.042Z" fill="#7FA024"/>
<path d="M486.87 263.647C486.87 263.647 458.016 239.477 466.179 230.753C474.342 222.028 490.2 242.955 490.2 242.955C490.2 242.955 469.304 195.856 482.808 190.267C496.312 184.679 516.807 232.921 516.807 232.921C516.807 232.921 500.892 186.271 518.575 183.419C536.258 180.566 537.527 232.413 537.527 232.413C537.527 232.413 547.663 158.829 572.533 164.905C597.402 170.982 556.138 249.158 556.138 249.158C556.138 249.158 573.372 221.735 584.386 230.704C595.401 239.672 568.51 272.713 568.51 272.713C568.51 272.713 587.531 254.913 593.165 264.585C598.799 274.257 567.855 293.073 567.855 293.073L486.87 263.647Z" fill="#7FA024"/>
<path d="M1849.77 204.462C1849.77 204.462 1818.78 191.036 1825.15 182.922C1831.52 174.808 1846.53 189.968 1846.53 189.968C1846.53 189.968 1818.58 166.318 1827.39 157.597C1839.51 145.591 1858.94 178.868 1858.94 178.868C1858.94 178.868 1831.2 130.906 1844.43 125.402C1861.65 118.248 1873.43 174.109 1873.43 174.109C1873.43 174.109 1867.68 150.143 1878.08 148.493C1892.87 146.152 1889.37 182.937 1889.37 182.937C1889.37 182.937 1891.51 165.373 1898.19 166.993C1909.63 169.764 1897.18 188.402 1897.18 188.402L1849.77 204.462Z" fill="#7FA024"/>
<path d="M1950.32 211.401C1950.32 211.401 1922.7 200.908 1926.48 192.326C1930.26 183.744 1947.46 195.181 1947.46 195.181C1947.46 195.181 1919.84 165.612 1928.39 157.981C1936.95 150.351 1964.62 180.873 1964.62 180.873C1964.62 180.873 1940.78 150.351 1953.18 143.673C1965.58 136.994 1979.87 175.146 1979.87 175.146C1979.87 175.146 1968.43 117.911 1988.45 116.038C2008.47 114.165 1997.99 182.822 1997.99 182.822C1997.99 182.822 2003.7 158.02 2014.19 161.835C2024.68 165.65 2013.24 197.146 2013.24 197.146C2013.24 197.146 2022.78 179.023 2029.44 184.749C2036.11 190.476 2018 212.384 2018 212.384L1950.32 211.401Z" fill="#7FA024"/>
<path d="M1722.15 233.749C1722.15 233.749 1690.25 217.498 1695.49 207.273C1700.73 197.048 1723.77 211.626 1723.77 211.626C1723.77 211.626 1689.93 182.072 1699.54 172.952C1715.98 157.346 1743.91 197.647 1743.91 197.647C1743.91 197.647 1714.64 148.656 1732.61 139.614C1750.58 130.571 1763.3 187.031 1763.3 187.031C1763.3 187.031 1758.86 170.334 1768.43 168.661C1778.01 166.988 1783.58 194.492 1783.58 194.492C1783.58 194.492 1781.81 176.76 1789.06 177.005C1796.31 177.251 1794.99 205.408 1794.99 205.408L1722.15 233.749Z" fill="#7FA024"/>
<path d="M1581.3 233.431C1581.3 233.431 1600.02 205.313 1590.26 201.958C1580.5 198.603 1576.15 219.491 1576.15 219.491C1576.15 219.491 1586.76 184.448 1574.62 181.915C1557.92 178.422 1559.69 216.92 1559.69 216.92C1559.69 216.92 1556.92 161.573 1542.81 164.152C1524.46 167.506 1544.91 220.811 1544.91 220.811C1544.91 220.811 1536.72 197.559 1527.09 201.835C1513.41 207.907 1536.3 236.886 1536.3 236.886C1536.3 236.886 1524.97 223.306 1520.24 228.296C1512.2 236.809 1532.79 245.713 1532.79 245.713L1581.3 233.431Z" fill="#7FA024"/>
<path opacity="0.21" d="M1686.06 393.641C1686.06 393.641 1719.12 388.689 1713.77 380.975C1708.41 373.26 1693.71 387.73 1693.71 387.73C1693.71 387.73 1715.3 353.493 1705.44 347.613C1695.59 341.733 1674.16 376.906 1674.16 376.906C1674.16 376.906 1691.81 342.447 1678.41 338.217C1665.02 333.987 1658.11 374.15 1658.11 374.15C1658.11 374.15 1658.59 315.81 1638.57 317.683C1618.56 319.556 1641.75 385.058 1641.75 385.058C1641.75 385.058 1631.47 361.776 1621.89 367.495C1612.3 373.214 1629.46 401.977 1629.46 401.977C1629.46 401.977 1616.68 385.972 1611.21 392.842C1605.73 399.713 1636.19 407.428 1636.19 407.428L1686.06 393.641Z" fill="#305937"/>
<path d="M1728.12 774.736C1728.12 774.736 1704.55 750.54 1713.54 745.458C1722.54 740.376 1730.64 760.097 1730.64 760.097C1730.64 760.097 1713.76 727.603 1725.27 722.882C1741.03 716.38 1746.37 754.547 1746.37 754.547C1746.37 754.547 1738.92 699.638 1753.28 699.576C1771.92 699.507 1761.61 755.66 1761.61 755.66C1761.61 755.66 1765.39 731.303 1775.63 733.729C1790.21 737.183 1773 769.884 1773 769.884C1773 769.884 1781.64 754.447 1787.21 758.485C1796.74 765.394 1778.14 777.906 1778.14 777.906L1728.12 774.736Z" fill="#709936"/>
<path d="M1799.16 783.192C1799.16 783.192 1771.54 772.699 1775.32 764.117C1779.11 755.535 1796.3 766.972 1796.3 766.972C1796.3 766.972 1768.68 737.403 1777.23 729.772C1785.79 722.142 1813.46 752.664 1813.46 752.664C1813.46 752.664 1789.63 722.142 1802.02 715.464C1814.42 708.785 1828.72 746.937 1828.72 746.937C1828.72 746.937 1817.28 689.702 1837.29 687.829C1857.31 685.956 1846.83 754.613 1846.83 754.613C1846.83 754.613 1852.55 729.811 1863.03 733.626C1873.52 737.441 1862.08 768.937 1862.08 768.937C1862.08 768.937 1871.62 750.814 1878.29 756.54C1884.95 762.267 1866.85 784.175 1866.85 784.175L1799.16 783.192Z" fill="#709936"/>
<path d="M1486.67 795.79C1486.67 795.79 1461.46 770.382 1469.63 762.306C1477.8 754.23 1495.13 775.287 1495.13 775.287C1495.13 775.287 1472.22 736.628 1484.2 730.971C1504.69 721.291 1518.63 768.309 1518.63 768.309C1518.63 768.309 1506.14 712.617 1526.04 709.653C1545.93 706.69 1540.38 764.294 1540.38 764.294C1540.38 764.294 1541.37 747.045 1550.99 748.45C1560.61 749.855 1557.32 777.728 1557.32 777.728C1557.32 777.728 1561.15 760.325 1567.99 762.836C1574.82 765.346 1564.73 791.66 1564.73 791.66L1486.67 795.79Z" fill="#709936"/>
<path d="M1782.82 949.126C1782.82 949.126 1802.09 918.957 1792.41 912.793C1782.72 906.629 1770.21 930.871 1770.21 930.871C1770.21 930.871 1784.44 888.244 1771.54 885.243C1749.47 880.115 1745.77 928.998 1745.77 928.998C1745.77 928.998 1746.22 871.917 1726.15 873.229C1706.08 874.542 1723.67 929.666 1723.67 929.666C1723.67 929.666 1719.07 913.023 1709.94 916.424C1700.82 919.825 1709.94 946.362 1709.94 946.362C1709.94 946.362 1702.5 930.172 1696.36 934.08C1690.23 937.987 1705.63 961.577 1705.63 961.577L1782.82 949.126Z" fill="#96C22F"/>
<path d="M1511.04 969.778C1511.04 969.778 1482.66 961.588 1485.73 952.722C1488.79 943.855 1506.86 953.85 1506.86 953.85C1506.86 953.85 1476.88 926.652 1484.8 918.339C1492.73 910.025 1522.79 938.182 1522.79 938.182C1522.79 938.182 1496.54 909.718 1508.34 902.05C1520.15 894.381 1537.5 931.22 1537.5 931.22C1537.5 931.22 1521.39 875.121 1541.2 871.582C1561.02 868.043 1556.18 937.346 1556.18 937.346C1556.18 937.346 1559.85 912.16 1570.61 915.084C1581.37 918.009 1572.55 950.334 1572.55 950.334C1572.55 950.334 1580.57 931.489 1587.69 936.647C1594.81 941.806 1578.55 965.157 1578.55 965.157L1511.04 969.778Z" fill="#96C22F"/>
<path d="M25 638.023L185.139 595.077L206.668 642.226L384.489 573.363L375.302 609.77L491.566 639.141L506.841 697.812L528.984 687.321L515.698 739.972L458.766 769.075L422.481 716.417L260.619 737.477L181.938 687.211L113.985 700.425L104.602 658.139L25 638.023Z" fill="#776B67"/>
<path d="M25 638.021L174.874 618.102L195.577 659.679L360.098 599.371L351.823 658.64L475.433 658.892L494.697 714.997L524.461 705.246L511.175 757.889L458.766 769.072L422.481 716.414L260.619 737.474L181.938 687.208L113.985 700.422L104.602 658.137L25 638.021Z" fill="#847D7B"/>
<path d="M313.246 833.695C313.246 833.695 344.862 820.194 340.001 810.406C335.141 800.617 315.779 814.725 315.779 814.725C315.779 814.725 346.485 779.032 336.158 770.618C325.83 762.203 295.133 798.922 295.133 798.922C295.133 798.922 321.362 762.337 306.656 755.199C291.95 748.06 277.145 793.023 277.145 793.023C277.145 793.023 287.713 726.011 264.374 724.744C241.035 723.476 256.464 802.75 256.464 802.75C256.464 802.75 248.651 774.196 236.647 779.148C224.643 784.1 239.43 820.087 239.43 820.087C239.43 820.087 227.497 799.493 220.014 806.453C212.532 813.413 234.614 838.041 234.614 838.041L313.246 833.695Z" fill="#709936"/>
<path d="M15.6876 750.804C15.6876 750.804 51.9495 730.414 45.3857 718.787C38.8218 707.161 12.7446 725.185 12.7446 725.185C12.7446 725.185 50.6474 689.252 39.0536 679.115C19.2282 661.76 -11.3081 709.945 -11.3081 709.945C-11.3081 709.945 20.3608 651.65 -0.936089 642.004C-22.233 632.358 -34.3441 698.532 -34.3441 698.532C-34.3441 698.532 -29.983 678.901 -41.1845 677.437C-52.3859 675.974 -57.5585 708.16 -57.5585 708.16C-57.5585 708.16 -56.3367 687.476 -64.7467 688.109C-73.1566 688.743 -70.2849 721.375 -70.2849 721.375L15.6876 750.804Z" fill="#709936"/>
<path d="M97.443 773.025C97.443 773.025 74.3624 741.259 85.5371 736.904C96.7117 732.55 102.758 756.597 102.758 756.597C102.758 756.597 88.7655 716.398 102.758 712.874C121.977 708.029 121.763 752.823 121.763 752.823C121.763 752.823 122.343 688.407 138.833 690.735C160.299 693.76 139.074 756.642 139.074 756.642C139.074 756.642 147.484 729.248 158.872 733.754C175.05 740.161 149.811 774.898 149.811 774.898C149.811 774.898 162.297 758.587 168.058 764.191C177.868 773.729 154.395 785.018 154.395 785.018L97.443 773.025Z" fill="#709936"/>
<path d="M399.365 845.352C399.365 845.352 369.381 828.541 375.232 819.332C381.082 810.124 398.856 826.221 398.856 826.221C398.856 826.221 372.146 787.477 383.32 780.178C394.495 772.879 421.036 812.721 421.036 812.721C421.036 812.721 398.874 773.539 414.276 767.988C429.678 762.438 439.559 808.759 439.559 808.759C439.559 808.759 436.224 740.996 459.572 742.246C482.92 743.495 459.073 820.644 459.073 820.644C459.073 820.644 469.908 793.116 481.306 799.309C492.704 805.501 474.171 839.713 474.171 839.713C474.171 839.713 488.245 820.519 494.933 828.247C501.622 835.974 477.034 858.086 477.034 858.086L399.365 845.352Z" fill="#709936"/>
<path d="M131.303 912.07C131.303 912.07 150.008 882.792 140.611 876.809C131.214 870.827 119.07 894.354 119.07 894.354C119.07 894.354 132.882 852.984 120.365 850.071C98.9432 845.095 95.3542 892.537 95.3542 892.537C95.3542 892.537 95.7861 837.138 76.3074 838.412C56.8287 839.686 73.9023 893.184 73.9023 893.184C73.9023 893.184 69.4347 877.033 60.5815 880.333C51.7282 883.634 60.5815 909.388 60.5815 909.388C60.5815 909.388 53.3589 893.676 47.4021 897.468C41.4453 901.26 56.3968 924.154 56.3968 924.154L131.303 912.07Z" fill="#96C22F"/>
</g>
<defs>
<clipPath id="clip0_131_3905">
<rect width="1920" height="1711" fill="white"/>
</clipPath>
</defs>
</svg>
