<svg width="1920" height="608" viewBox="0 0 1920 608" fill="none" xmlns="http://www.w3.org/2000/svg">
<g clip-path="url(#clip0_131_3356)">
<rect width="1920" height="608" fill="white"/>
<path d="M1921 0H0V2401H1921V0Z" fill="#96C22F"/>
<path d="M1922 94C1922 94 1846 197.557 1706.56 180.461C1567.12 163.366 1454.17 135.031 1385.15 165.806C1316.12 196.581 1222 261.059 1093.02 260.083C964.032 259.107 931.96 238.588 805.765 212.7C679.57 186.813 574.291 280.595 498.992 281.578C423.693 282.554 420.904 175.093 261.94 147.734C102.976 120.376 -3 157.502 -3 157.502L-1.95418 270.583C-1.95418 270.583 192.568 222.224 287.388 275.958C382.209 329.692 364.779 402.474 272.747 388.307C180.715 374.14 -1.25697 360.955 -1.25697 360.955L-2.65139 465.488C-2.65139 465.488 163.285 409.802 261.592 466.464C359.898 523.127 517.517 397.447 559.301 367.307C653.076 299.656 746.153 288.661 850.038 314.061C953.922 339.46 1345.52 353.293 1426.98 331.888C1633.35 277.666 1658.7 327.154 1731.31 363.883C1846.7 422.254 1921.65 394.17 1921.65 394.17L1922 94Z" fill="#8DB0C6"/>
<path opacity="0.62" d="M1922 151.15C1922 151.15 1843.91 225.884 1704.47 208.789C1565.03 191.693 1462.54 158.478 1393.51 189.253C1324.49 220.028 1233.16 276.69 1104.17 275.714C975.187 274.738 929.171 255.69 802.976 229.796C676.781 203.901 566.622 300.626 491.323 301.602C416.024 302.578 404.171 201.956 245.207 174.598C86.243 147.239 -3 176.062 -3 176.062L-1.60558 253.243C-1.60558 253.243 221.502 222.468 316.323 276.202C411.143 329.936 348.394 417.855 277.976 407.599C185.721 394.163 -0.908367 375.848 -0.908367 375.848L-2.30279 448.141C-2.30279 448.141 169.211 397.831 267.518 454.493C365.825 511.155 508.802 374.244 550.586 344.097C644.361 276.446 747.896 274.243 851.781 299.649C955.665 325.056 1312.05 318.607 1393.51 297.209C1599.89 242.987 1668.81 294.183 1741.42 330.912C1856.81 389.283 1922 358.752 1922 358.752V151.15Z" fill="#7A94A5"/>
<path d="M1696.78 430.414C1696.22 430.414 1695.76 430.976 1695.74 430.414C1695.72 429.859 1694.2 368.959 1695.74 343.729C1697.28 318.55 1702.96 233.343 1703.02 232.488C1703.06 231.915 1703.56 231.484 1704.12 231.522C1704.7 231.559 1705.13 232.058 1705.09 232.626C1705.03 233.486 1699.35 318.681 1697.81 343.854C1696.27 368.984 1697.8 429.853 1697.81 430.408C1697.83 430.982 1697.37 430.39 1696.8 430.408C1696.8 430.415 1696.79 430.414 1696.78 430.414Z" fill="#EAB83D"/>
<path d="M1723.81 309.488C1710.3 328.199 1700.42 430.415 1700.42 430.415H1688.47C1688.47 430.415 1698.34 331.324 1723.81 309.488Z" fill="#7FA024"/>
<path d="M1682.23 328.723C1694.7 342.239 1700.42 430.415 1700.42 430.415H1688.47C1688.47 430.415 1692.1 361.469 1682.23 328.723Z" fill="#7FA024"/>
<path d="M1742.53 361.468C1705.1 371.865 1706.14 430.414 1706.14 430.414H1694.96C1694.97 430.414 1697.31 357.308 1742.53 361.468Z" fill="#7FA024"/>
<path d="M1662.48 387.977C1691.59 393.172 1697.04 430.415 1697.04 430.415H1682.23C1682.23 430.415 1682.23 403.052 1662.48 387.977Z" fill="#7FA024"/>
<path d="M1708.22 245.03C1709.61 248.735 1708.74 277.257 1707.18 282.453C1705.62 287.649 1698.34 290.25 1695.75 283.495C1693.15 276.74 1695.23 253.344 1696.79 247.631C1698.34 241.911 1706.66 240.876 1708.22 245.03Z" fill="#4E5E0B"/>
<path d="M1690.23 330.829C1677.24 354.742 1678.27 423.682 1678.27 423.682H1664.24C1664.24 423.688 1665.28 343.827 1690.23 330.829Z" fill="#7FA024"/>
<path d="M1636.17 349.545C1651.76 358.901 1664.24 423.687 1664.24 423.687H1650.21C1650.21 423.687 1648.12 374.494 1636.17 349.545Z" fill="#7FA024"/>
<path d="M1663.21 423.689C1663.02 422.566 1644.47 306.03 1640.39 295.339C1640.19 294.803 1640.46 294.204 1640.99 293.998C1641.53 293.792 1642.13 294.06 1642.33 294.597C1645.15 301.994 1654.37 354.15 1660.23 388.293C1657.85 363.762 1654.76 330.629 1653.84 314.78C1652.3 288.029 1652.79 212.041 1652.8 211.274C1652.81 210.7 1653.27 210.238 1653.84 210.238H1653.85C1654.42 210.245 1654.88 210.712 1654.88 211.286C1654.88 212.047 1654.38 287.973 1655.92 314.662C1657.46 341.357 1665.19 422.928 1665.27 423.689H1663.21Z" fill="#EAB83D"/>
<path d="M1669.43 423.689C1669 423.689 1668.6 424.119 1668.45 423.689C1661.18 402.401 1673.09 287.555 1673.59 282.896C1673.66 282.328 1674.17 281.917 1674.74 281.973C1675.31 282.035 1675.73 282.547 1675.66 283.121C1675.54 284.256 1663.3 402.832 1670.42 423.683C1670.61 424.225 1670.31 423.496 1669.77 423.683C1669.66 423.726 1669.55 423.689 1669.43 423.689Z" fill="#EAB83D"/>
<path d="M1660.08 224.271C1662.28 229.23 1661.12 257.54 1660.08 264.295C1659.04 271.05 1648.12 273.651 1646.56 264.295C1645.01 254.939 1646.05 231.55 1647.61 225.83C1649.17 220.111 1658 219.593 1660.08 224.271Z" fill="#4E5E0B"/>
<path d="M1677.23 294.447C1677.23 301.283 1675.15 319.395 1674.63 326.157C1674.11 332.912 1664.76 336.03 1664.23 327.198C1663.71 318.36 1667.35 298.607 1668.91 294.453C1670.47 290.299 1677.23 290.804 1677.23 294.447Z" fill="#4E5E0B"/>
<path d="M1647.09 305.881C1649.44 308.232 1654.37 328.753 1654.88 337.067C1655.34 344.346 1648.13 347.982 1644.49 341.227C1640.84 334.472 1637.73 316.278 1638.25 311.076C1638.77 305.88 1644.49 303.286 1647.09 305.881Z" fill="#4E5E0B"/>
<path d="M1677.23 321.997C1670.48 340.191 1669.7 423.688 1669.7 423.688H1657.48C1657.48 423.688 1658.52 332.388 1677.23 321.997Z" fill="#7FA024"/>
<path d="M1913 409.595C1855.93 397.975 1836.64 459.805 1836.64 459.805L1855 461.882C1855 461.875 1866.58 414.959 1913 409.595Z" fill="#7FA024"/>
<path d="M1910.73 367.168C1857.45 375.296 1829.14 458.955 1829.14 458.955L1843.53 460.583C1843.53 460.577 1859.19 392.354 1910.73 367.168Z" fill="#7FA024"/>
<path d="M1763.17 366.271C1818.7 366.015 1832.77 459.361 1832.77 459.361L1816.74 457.552C1816.74 457.552 1807.54 385.98 1763.17 366.271Z" fill="#7FA024"/>
<path d="M1770.02 412.207C1817.82 396.932 1823.97 458.369 1823.97 458.369L1809.5 456.735C1809.5 456.735 1804.66 416.118 1770.02 412.207Z" fill="#7FA024"/>
<path d="M1826.89 458.7L1825.84 458.582C1825.68 457.815 1810.54 377.903 1812.94 338.222C1815.35 298.659 1816.58 287.538 1816.59 287.432C1816.66 286.84 1817.17 286.409 1817.74 286.472C1818.32 286.534 1818.72 287.071 1818.65 287.663C1818.64 287.769 1817.41 298.865 1815.02 338.341C1812.91 372.976 1823.8 443.407 1826.76 458.682L1883 316.392C1883.22 315.843 1883.83 315.581 1884.36 315.812C1884.89 316.043 1885.13 316.673 1884.91 317.228L1826.89 458.7Z" fill="#EAB83D"/>
<path d="M1829.15 458.955C1828.62 458.893 1828.11 459.398 1828.12 458.837C1828.13 458.12 1829.85 383.329 1834.22 358.455C1838.63 333.381 1853.26 250.158 1853.26 250.158L1855.31 250.526C1855.31 250.526 1840.67 333.749 1836.27 358.823C1831.93 383.523 1830.19 458.351 1830.17 459.068C1830.16 459.667 1829.82 458.968 1829.25 458.962C1829.21 458.962 1829.18 458.955 1829.15 458.955Z" fill="#EAB83D"/>
<path d="M1846.23 261.404C1848.02 256.058 1856.27 256.008 1857.21 261.553C1858.15 267.098 1852.07 298.434 1850.92 303.28C1848.92 311.757 1838.13 309.998 1838.33 303.492C1838.61 295.103 1844.66 266.119 1846.23 261.404Z" fill="#4E5E0B"/>
<path d="M1820.48 299.294C1822.3 302.176 1820.27 333.549 1819.39 336.711C1818.52 339.873 1810.97 341.744 1809.97 336.736C1808.97 331.728 1810.66 307.433 1811.73 302.656C1812.79 297.884 1818.26 295.782 1820.48 299.294Z" fill="#4E5E0B"/>
<path d="M1884.81 327.786C1883.58 333.599 1874.63 357.65 1872.07 361.71C1869.52 365.777 1861.31 364.305 1861.98 358.392C1862.64 352.486 1871.52 329.545 1874.07 325.485C1876.62 321.424 1885.93 322.472 1884.81 327.786Z" fill="#4E5E0B"/>
<path d="M1851.02 334.846C1856.17 358.822 1836.64 459.796 1836.64 459.796L1823.97 458.368C1823.97 458.368 1838.35 358.99 1851.02 334.846Z" fill="#7FA024"/>
<path d="M1824.84 339.505C1833.06 359.477 1832.53 459.335 1832.53 459.335L1821.91 458.138C1821.91 458.131 1811.56 369.02 1824.84 339.505Z" fill="#7FA024"/>
<path d="M1605.13 316.652C1589.78 339.125 1583.85 407.828 1583.85 407.828L1569.89 406.412C1569.89 406.406 1578.99 327.062 1605.13 316.652Z" fill="#7FA024"/>
<path d="M1549.45 329.806C1564.02 340.69 1569.89 406.405 1569.89 406.405L1555.92 404.99C1555.92 404.99 1558.82 355.84 1549.45 329.806Z" fill="#7FA024"/>
<path d="M1568.86 406.306C1568.79 405.171 1562.11 287.356 1559.13 276.303C1558.98 275.748 1559.31 275.18 1559.87 275.031C1560.42 274.881 1560.99 275.212 1561.14 275.767C1563.2 283.407 1567.09 336.23 1569.47 370.791C1569.58 346.148 1569.85 312.866 1570.55 297.011C1571.71 270.241 1579.89 194.689 1579.97 193.928C1580.03 193.361 1580.54 192.949 1581.11 193.005H1581.12C1581.69 193.067 1582.1 193.579 1582.04 194.153C1581.96 194.914 1573.8 270.397 1572.63 297.104C1571.46 323.818 1570.91 405.751 1570.91 406.524L1568.86 406.306Z" fill="#EAB83D"/>
<path d="M1575.06 406.93C1574.63 406.886 1574.18 407.273 1574.08 406.83C1568.99 384.919 1592.45 271.863 1593.42 267.278C1593.54 266.717 1594.09 266.361 1594.66 266.48C1595.22 266.598 1595.58 267.153 1595.46 267.715C1595.22 268.831 1571.06 385.567 1576.04 407.029C1576.17 407.591 1575.95 406.836 1575.39 406.967C1575.27 406.992 1575.16 406.942 1575.06 406.93Z" fill="#EAB83D"/>
<path d="M1585.9 207.596C1587.59 212.754 1583.57 240.796 1581.86 247.414C1580.14 254.032 1569.02 255.516 1568.41 246.048C1567.81 236.58 1571.21 213.415 1573.33 207.883C1575.46 202.356 1584.3 202.731 1585.9 207.596Z" fill="#4E5E0B"/>
<path d="M1595.87 279.142C1595.18 285.947 1591.28 303.754 1590.08 310.428C1588.89 317.102 1579.26 319.254 1579.64 310.409C1580.01 301.565 1585.63 282.279 1587.6 278.3C1589.57 274.321 1596.24 275.518 1595.87 279.142Z" fill="#4E5E0B"/>
<path d="M1564.72 287.468C1566.82 290.05 1569.65 310.957 1569.33 319.284C1569.05 326.575 1561.5 329.463 1558.56 322.372C1555.62 315.28 1554.36 296.867 1555.4 291.747C1556.45 286.632 1562.4 284.624 1564.72 287.468Z" fill="#4E5E0B"/>
<path d="M1593.09 306.547C1584.53 323.962 1575.31 406.96 1575.31 406.96L1563.16 405.725C1563.16 405.725 1573.42 314.999 1593.09 306.547Z" fill="#7FA024"/>
<path d="M1672 99.9419C1664.02 117.049 1667.67 164.735 1667.67 164.735L1657.95 165.332C1657.95 165.332 1655.28 109.999 1672 99.9419Z" fill="#7FA024"/>
<path d="M1635.37 115.194C1646.56 121.011 1657.95 165.33 1657.95 165.33L1648.23 165.926C1648.23 165.926 1644.71 131.956 1635.37 115.194Z" fill="#7FA024"/>
<path d="M1657.25 165.378C1657.07 164.609 1639.27 84.7183 1635.99 77.4876C1635.82 77.1264 1635.99 76.6947 1636.35 76.5298C1636.71 76.3649 1637.14 76.5298 1637.3 76.8909C1639.57 81.8919 1648.17 117.614 1653.67 141.002C1650.98 124.122 1647.43 101.307 1646.13 90.3789C1643.92 71.9214 1641.03 19.2888 1641 18.7628C1640.98 18.3702 1641.29 18.0248 1641.68 18.0013C1641.68 18.0013 1641.68 18.0013 1641.69 18.0013C1642.09 17.9777 1642.42 18.284 1642.45 18.6844C1642.48 19.2104 1645.36 71.7956 1647.57 90.206C1649.76 108.624 1658.59 164.766 1658.68 165.292L1657.25 165.378Z" fill="#EAB83D"/>
<path d="M1661.55 165.113C1661.25 165.129 1660.99 165.451 1660.86 165.152C1654.93 150.723 1658.29 70.706 1658.44 67.4557C1658.45 67.0553 1658.79 66.7492 1659.19 66.7728C1659.59 66.7885 1659.9 67.126 1659.88 67.5264C1659.84 68.3194 1656.41 150.934 1662.22 165.066C1662.37 165.435 1662.14 164.94 1661.78 165.09C1661.7 165.129 1661.63 165.105 1661.55 165.113Z" fill="#EAB83D"/>
<path d="M1646.59 27.4466C1648.33 30.7833 1648.73 50.4341 1648.3 55.1604C1647.87 59.8866 1640.41 62.1476 1638.94 55.7335C1637.46 49.3193 1637.19 33.0836 1638.02 29.0561C1638.85 25.0286 1644.95 24.2984 1646.59 27.4466Z" fill="#4E5E0B"/>
<path d="M1661.45 75.2985C1661.74 80.0326 1661.08 92.6648 1661.01 97.3597C1660.94 102.062 1654.59 104.614 1653.85 98.5216C1653.12 92.4293 1654.8 78.5961 1655.7 75.652C1656.59 72.7079 1661.3 72.7784 1661.45 75.2985Z" fill="#4E5E0B"/>
<path d="M1641.06 84.4997C1642.79 86.0306 1647.08 100.029 1647.79 105.76C1648.42 110.784 1643.58 113.603 1640.77 109.081C1637.97 104.559 1635.04 92.0914 1635.18 88.4721C1635.31 84.8529 1639.16 82.8118 1641.06 84.4997Z" fill="#4E5E0B"/>
<path d="M1662.63 94.375C1658.72 107.258 1661.73 165.104 1661.73 165.104L1653.27 165.622C1653.27 165.622 1650.11 102.367 1662.63 94.375Z" fill="#7FA024"/>
<path d="M1496.03 123.604C1455.27 120.133 1446.68 163.141 1446.68 163.141H1459.65C1459.65 163.133 1464.04 130.732 1496.03 123.604Z" fill="#7FA024"/>
<path d="M1491.09 95.2686C1454.53 104.776 1441.37 163.132 1441.37 163.132H1451.55C1451.55 163.132 1457.1 116.105 1491.09 95.2686Z" fill="#7FA024"/>
<path d="M1388 105.867C1426.75 101.479 1443.94 163.132 1443.94 163.132H1432.6C1432.6 163.132 1420.53 115.736 1388 105.867Z" fill="#7FA024"/>
<path d="M1396.41 136.212C1428.58 122.316 1437.72 163.132 1437.72 163.132H1427.48C1427.48 163.132 1420.9 136.212 1396.41 136.212Z" fill="#7FA024"/>
<path d="M1439.78 163.132H1439.04C1438.87 162.63 1421.99 110.084 1420.54 83.2417C1419.1 56.478 1419.08 48.9096 1419.08 48.839C1419.08 48.4386 1419.41 48.1089 1419.81 48.1089C1420.21 48.1089 1420.54 48.4386 1420.54 48.839C1420.54 48.9096 1420.56 56.4622 1422 83.1631C1423.27 106.598 1436.42 153.091 1439.7 163.132L1467.73 63.2533C1467.85 62.8686 1468.25 62.6487 1468.64 62.7586C1469.03 62.8764 1469.25 63.2769 1469.14 63.6694L1439.78 163.132Z" fill="#EAB83D"/>
<path d="M1441.37 163.133C1441 163.133 1440.68 163.51 1440.64 163.133C1440.59 162.646 1435.9 112.267 1436.98 95.2224C1438.08 78.0368 1441.73 21.0078 1441.73 21.0078L1443.19 21.1021C1443.19 21.1021 1439.53 78.1309 1438.44 95.3165C1437.36 112.243 1442.04 162.654 1442.09 163.133C1442.13 163.533 1441.84 163.093 1441.43 163.133C1441.42 163.133 1441.4 163.133 1441.37 163.133Z" fill="#EAB83D"/>
<path d="M1437.72 29.0944C1438.54 25.3652 1444.3 24.7058 1445.4 28.3643C1446.5 32.0228 1444.72 53.5341 1444.3 56.8786C1443.57 62.7276 1435.89 62.3587 1435.52 57.9779C1435.05 52.3252 1436.99 32.3839 1437.72 29.0944Z" fill="#4E5E0B"/>
<path d="M1422.73 56.518C1424.23 58.3158 1425.29 79.5526 1424.92 81.743C1424.56 83.9334 1419.44 85.7626 1418.35 82.4731C1417.25 79.1836 1416.52 62.728 1416.89 59.4385C1417.25 56.149 1420.9 54.3197 1422.73 56.518Z" fill="#4E5E0B"/>
<path d="M1469.89 70.7753C1469.49 74.7793 1465.14 91.6117 1463.68 94.54C1462.21 97.4684 1456.37 97.0996 1456.37 93.0799C1456.37 89.0602 1460.75 72.9737 1462.22 70.0453C1463.68 67.1169 1470.25 67.1168 1469.89 70.7753Z" fill="#4E5E0B"/>
<path d="M1446.86 78.083C1452.34 93.8005 1446.68 163.132 1446.68 163.132H1437.72C1437.72 163.132 1439.91 95.2686 1446.86 78.083Z" fill="#7FA024"/>
<path d="M1428.94 83.2041C1436.25 96.0011 1443.77 163.134 1443.77 163.134H1436.26C1436.26 163.134 1422 104.04 1428.94 83.2041Z" fill="#7FA024"/>
<path d="M1421.61 402.923C1421.06 403.029 1420.71 403.665 1420.59 403.116C1420.47 402.574 1407.63 343.021 1404.45 317.953C1401.27 292.923 1390.98 208.153 1390.88 207.299C1390.81 206.731 1391.22 206.213 1391.78 206.138C1392.35 206.07 1392.87 206.475 1392.95 207.043C1393.05 207.897 1403.34 292.661 1406.51 317.685C1409.68 342.665 1422.52 402.181 1422.63 402.723C1422.76 403.285 1422.2 402.786 1421.64 402.91C1421.63 402.923 1421.62 402.923 1421.61 402.923Z" fill="#EAB83D"/>
<path d="M1425.64 279.082C1415.85 299.983 1425.18 402.248 1425.18 402.248L1413.44 404.475C1413.44 404.469 1404.69 305.272 1425.64 279.082Z" fill="#7FA024"/>
<path d="M1388.37 305.722C1403.15 316.675 1425.18 402.249 1425.18 402.249L1413.44 404.476C1413.44 404.47 1404.17 336.054 1388.37 305.722Z" fill="#7FA024"/>
<path d="M1453.71 326.666C1418.88 343.849 1430.8 401.182 1430.8 401.182L1419.82 403.265C1419.82 403.259 1408.5 331 1453.71 326.666Z" fill="#7FA024"/>
<path d="M1380 367.62C1409.56 367.308 1421.86 402.872 1421.86 402.872L1407.31 405.629C1407.31 405.635 1402.21 378.753 1380 367.62Z" fill="#7FA024"/>
<path d="M1398.32 218.656C1400.38 222.036 1404.83 250.222 1404.27 255.618C1403.71 261.013 1397.04 264.924 1393.23 258.767C1389.42 252.611 1387.11 229.24 1387.57 223.334C1388.04 217.433 1396.01 214.863 1398.32 218.656Z" fill="#4E5E0B"/>
<path d="M1589.23 348.009C1531.28 343.069 1519.06 404.219 1519.06 404.219H1537.51C1537.52 404.219 1543.75 358.144 1589.23 348.009Z" fill="#7FA024"/>
<path d="M1582.22 307.721C1530.23 321.237 1511.52 404.217 1511.52 404.217H1525.99C1525.99 404.217 1533.88 337.354 1582.22 307.721Z" fill="#7FA024"/>
<path d="M1435.64 322.796C1490.74 316.559 1515.17 404.217 1515.17 404.217H1499.06C1499.05 404.217 1481.9 336.83 1435.64 322.796Z" fill="#7FA024"/>
<path d="M1447.59 365.94C1493.33 346.187 1506.33 404.218 1506.33 404.218H1491.77C1491.77 404.218 1482.41 365.94 1447.59 365.94Z" fill="#7FA024"/>
<path d="M1509.26 404.22H1508.21C1507.96 403.503 1483.97 328.793 1481.91 290.628C1479.85 252.574 1479.82 241.815 1479.82 241.709C1479.82 241.135 1480.29 240.667 1480.86 240.667C1481.44 240.667 1481.91 241.135 1481.91 241.709C1481.91 241.815 1481.93 252.549 1483.98 290.515C1485.79 323.835 1504.49 389.943 1509.14 404.22L1549 262.211C1549.16 261.662 1549.74 261.344 1550.29 261.506C1550.84 261.668 1551.16 262.248 1551 262.797L1509.26 404.22Z" fill="#EAB83D"/>
<path d="M1511.53 404.219C1511 404.219 1510.55 404.755 1510.49 404.219C1510.42 403.532 1503.74 331.892 1505.29 307.66C1506.85 283.229 1512.04 202.139 1512.04 202.139L1514.12 202.27C1514.12 202.27 1508.93 283.36 1507.37 307.791C1505.83 331.86 1512.49 403.532 1512.56 404.219C1512.62 404.792 1512.2 404.162 1511.63 404.219C1511.59 404.225 1511.56 404.219 1511.53 404.219Z" fill="#EAB83D"/>
<path d="M1506.33 213.639C1507.51 208.344 1515.69 207.402 1517.24 212.598C1518.8 217.793 1516.28 248.387 1515.69 253.14C1514.64 261.454 1503.73 260.936 1503.21 254.699C1502.54 246.659 1505.29 218.317 1506.33 213.639Z" fill="#4E5E0B"/>
<path d="M1485.02 252.623C1487.15 255.18 1488.65 285.368 1488.14 288.487C1487.62 291.605 1480.34 294.206 1478.78 289.528C1477.22 284.85 1476.18 261.461 1476.7 256.783C1477.22 252.105 1482.42 249.504 1485.02 252.623Z" fill="#4E5E0B"/>
<path d="M1552.07 272.899C1551.51 278.588 1545.32 302.526 1543.24 306.686C1541.16 310.847 1532.84 310.323 1532.84 304.61C1532.84 298.896 1539.08 276.018 1541.15 271.864C1543.24 267.698 1552.59 267.698 1552.07 272.899Z" fill="#4E5E0B"/>
<path d="M1519.32 283.29C1527.12 305.644 1519.06 404.217 1519.06 404.217H1506.32C1506.33 404.217 1509.45 307.721 1519.32 283.29Z" fill="#7FA024"/>
<path d="M1493.85 290.569C1504.25 308.763 1514.92 404.218 1514.92 404.218H1504.24C1504.25 404.218 1483.97 320.196 1493.85 290.569Z" fill="#7FA024"/>
<path d="M241 320.17C261.732 329.464 260.302 339.473 261.732 340.903C263.162 342.332 284.609 343.762 286.754 340.903C288.898 338.043 287.468 327.319 300.337 314.451C288.183 318.026 281.749 330.894 281.749 330.894C281.749 330.894 283.894 312.307 295.332 295.864C280.319 303.728 273.885 321.6 273.885 321.6C270.311 313.021 266.736 299.438 251.009 288C264.592 310.877 264.592 327.319 264.592 327.319C264.592 327.319 256.013 318.026 241 320.17Z" fill="#7FA024"/>
<path d="M130.672 528.85C130.108 521.483 117.076 522.62 117.076 532.251C113.675 526.585 98.3777 528.85 101.206 539.053C86.4733 539.617 89.302 557.752 99.5057 555.487C89.302 561.717 98.3691 574.186 105.736 567.383C103.471 577.014 118.768 577.587 121.033 570.22C122.169 577.023 138.603 579.851 138.03 567.956C141.432 575.886 153.9 572.485 151.627 562.29C157.857 566.819 169.197 553.787 155.592 547.557C164.659 539.054 154.455 526.594 145.961 533.96C150.507 525.448 135.774 518.082 130.672 528.85Z" fill="#7FA024"/>
<path d="M115.377 553.215C116.24 557.248 139.177 557.744 136.912 549.249C134.639 540.746 113.676 545.284 115.377 553.215Z" fill="#C1D375"/>
<path d="M1608.2 473.868C1601.1 484.908 1600.31 503.833 1599.52 506.199C1598.74 508.564 1576.66 510.141 1575.08 506.199C1573.5 502.256 1570.35 492.005 1553 481.754C1567.19 481.754 1580.6 493.582 1580.6 493.582C1580.6 493.582 1582.97 483.331 1575.87 469.137C1582.18 471.502 1585.33 480.176 1585.33 480.176C1585.33 480.176 1590.06 459.674 1605.04 451C1597.16 463.617 1597.16 485.696 1597.16 485.696C1597.16 485.696 1601.1 475.445 1608.2 473.868Z" fill="#7FA024"/>
<path d="M1801 544.05C1778.13 551.936 1760.78 581.112 1760.78 581.112C1760.78 581.112 1750.53 551.147 1729.24 536.953C1746.59 558.244 1752.11 585.843 1751.32 585.055C1750.53 584.266 1741.86 571.649 1729.24 570.072C1737.13 575.592 1745.01 589.786 1747.38 591.363C1749.74 592.94 1765.52 594.518 1767.88 591.363C1770.25 588.209 1771.82 570.072 1801 544.05Z" fill="#7FA024"/>
</g>
<defs>
<clipPath id="clip0_131_3356">
<rect width="1920" height="608" fill="white"/>
</clipPath>
</defs>
</svg>
