<svg width="198" height="703" viewBox="0 0 198 703" fill="none" xmlns="http://www.w3.org/2000/svg">
<path d="M107.764 116.333C107.764 116.333 109.796 122.434 114.88 125.482C119.964 128.531 121.997 129.55 120.981 130.581C119.964 131.612 118.431 129.055 117.422 130.071C116.413 131.087 118.438 132.107 117.422 133.123C116.406 134.139 115.386 132.107 114.37 133.123C113.354 134.139 118.439 139.224 120.471 140.24C122.503 141.256 124.539 142.272 124.539 143.289C124.539 144.305 121.487 144.305 120.471 143.289C119.455 142.272 118.438 140.24 117.422 141.256C116.406 142.272 117.422 143.289 116.406 143.289C115.39 143.289 115.386 142.272 114.37 143.289C113.354 144.305 116.406 147.357 118.438 148.388C120.471 149.418 129.365 151.454 129.623 153.487C129.82 154.991 127.205 154.991 126.083 154.991C124.961 154.991 124.961 155.355 125.355 156.488C125.748 157.62 124.991 158.356 123.486 158.356C121.982 158.356 119.374 155.741 118.253 155.741C117.131 155.741 116.76 156.859 117.506 157.981C118.253 159.103 128.345 166.205 132.457 168.445C136.569 170.685 140.677 172.557 141.052 174.054C141.427 175.551 137.315 175.922 136.194 175.547C135.072 175.172 134.325 174.8 133.95 175.183C133.575 175.565 133.586 177.426 130.96 177.426C128.334 177.426 126.477 174.811 126.101 174.811C125.726 174.811 125.737 177.051 124.233 177.051C122.729 177.051 121.993 175.183 121.243 175.183C120.493 175.183 120.121 175.933 120.879 177.802C121.636 179.67 133.582 190.505 138.441 193.496C143.299 196.486 149.655 197.232 150.026 197.983C150.398 198.733 149.662 200.598 144.796 200.969C139.93 201.341 138.069 199.851 137.694 199.476C137.319 199.101 136.966 199.476 136.966 200.598C136.966 201.72 136.966 202.091 135.469 202.091C133.972 202.091 132.482 199.101 132.107 199.476C131.732 199.851 132.107 201.344 130.986 202.466C129.864 203.588 128.37 202.102 127.624 202.102C126.877 202.102 126.502 202.852 126.874 203.599C127.245 204.346 133.6 213.688 141.824 219.668C150.048 225.649 160.137 227.888 160.137 228.639C160.137 229.389 157.893 231.254 154.903 231.254C151.913 231.254 150.42 231.254 150.42 231.618C150.42 231.982 149.673 234.605 147.429 234.233C145.186 233.862 139.956 230.868 139.209 230.868C138.463 230.868 139.574 234.605 136.966 234.98C134.358 235.355 132.854 231.989 132.482 231.989C132.111 231.989 133.211 235.726 130.239 235.355C127.267 234.983 123.887 230.121 123.137 230.121C122.387 230.121 123.887 233.111 122.408 233.486C120.93 233.862 116.428 230.868 115.681 230.868C114.935 230.868 115.317 235.355 113.066 234.98C110.816 234.605 109.701 231.618 107.833 231.618C105.964 231.618 104.471 234.605 102.974 234.605C101.477 234.605 102.61 231.243 101.106 230.868C99.6017 230.493 97.7442 233.486 95.1292 233.486C92.5141 233.486 94.3789 230.121 92.5105 229.746C90.6421 229.371 87.2805 233.111 85.4121 233.111C83.5437 233.111 84.6655 230.121 83.1686 229.746C81.6717 229.371 79.0566 233.858 77.1883 233.858C75.3199 233.858 77.5525 229.746 76.4598 229.746C75.3672 229.746 71.9765 232.365 69.7329 232.365C67.4894 232.365 68.6112 228.628 67.4894 228.628C66.3677 228.628 65.2496 230.868 62.2594 230.496C59.2693 230.125 58.5226 228.999 59.2692 228.253C60.0159 227.506 71.2299 220.404 79.4501 212.555C87.6702 204.706 88.792 201.72 88.0453 200.598C87.2987 199.476 85.4303 202.466 83.9334 202.091C82.4365 201.716 84.6837 198.729 83.5692 198.354C82.4547 197.979 79.8324 201.72 76.8423 201.72C73.8521 201.72 74.9739 199.851 74.9739 199.101C74.9739 198.351 69.3651 199.851 68.9936 198.372C68.6221 196.894 79.4573 193.889 86.5593 188.655C93.6614 183.421 95.9013 175.576 95.9013 174.451C95.9013 173.325 94.033 173.704 93.2863 174.451C92.5397 175.197 88.4277 177.066 87.6775 177.066C86.9272 177.066 86.5594 175.197 86.1843 175.197C85.8091 175.197 85.0625 177.066 82.819 177.066C80.5755 177.066 81.3257 175.573 80.5791 175.197C79.8324 174.822 77.964 175.197 76.092 174.833C74.22 174.469 74.5987 173.711 76.092 173.336C77.5852 172.961 84.3158 170.346 91.0428 164.741C97.7697 159.136 98.8914 156.521 98.5163 155.774C98.1412 155.027 94.7795 156.892 94.0329 156.892C93.2863 156.892 92.9112 155.399 92.536 155.399C92.1609 155.399 89.921 156.892 89.1744 156.52C88.4278 156.149 89.921 154.277 89.5386 153.905C89.1562 153.534 84.6837 154.634 85.0552 153.541C85.4267 152.449 89.5386 152.419 93.6505 149.804C97.7624 147.189 101.874 142.702 101.499 141.956C101.124 141.209 98.8841 143.824 97.7624 143.453C96.6406 143.081 96.6407 142.331 96.2655 142.702C95.8904 143.074 95.5189 143.824 94.7722 143.824C94.0256 143.824 95.1364 142.331 94.0438 142.702C92.9512 143.074 91.4252 143.452 91.4252 142.702C91.4252 141.952 93.6687 140.834 98.1521 137.097C102.635 133.36 101.893 129.998 101.893 129.998C101.893 129.998 99.2739 131.492 98.5272 131.117C97.7806 130.741 98.5272 129.623 97.7806 129.623C97.034 129.623 94.4153 129.987 94.7905 129.259C95.1656 128.531 97.7806 129.623 102.264 124.776C106.747 119.928 106.631 116.209 107.764 116.333Z" fill="#305937"/>
<path d="M175.04 33.8646C177.648 34.2981 175.405 56.2857 176.909 56.6609C178.413 57.036 184.011 51.0556 185.133 52.5489C186.254 54.0422 177.284 61.1444 176.909 64.1346C176.534 67.1248 177.655 67.4999 178.777 66.7496C179.899 65.9993 183.264 61.891 184.011 63.0128C184.757 64.1346 180.274 68.2466 178.406 71.2368C176.537 74.227 176.162 77.2172 178.041 76.4669C179.921 75.7167 184.393 70.115 185.144 71.2368C185.894 72.3586 181.407 77.5887 180.285 79.4571C179.163 81.3255 179.535 83.1939 181.407 81.7007C183.279 80.2074 194.485 70.8616 195.611 71.6083C196.736 72.3549 192.992 77.5887 189.63 80.954C186.269 84.3193 178.792 89.1743 178.045 91.7894C177.298 94.4045 177.681 95.9014 179.538 94.4081C181.396 92.9148 194.107 84.6909 194.864 85.8127C195.622 86.9344 190.752 92.5397 187.387 95.1547C184.022 97.7698 179.538 102.628 179.167 104.497C178.795 106.365 178.438 107.487 182.528 105.619C186.618 103.75 192.621 101.135 197.097 98.8916C201.573 96.648 203.077 93.6578 203.824 94.4081C204.57 95.1584 204.552 97.3947 201.209 100.385C197.865 103.375 189.623 108.98 189.623 109.731C189.623 110.481 191.117 110.477 194.857 109.731C198.597 108.984 201.955 107.862 202.33 108.234C202.706 108.605 198.594 113.839 192.985 116.458C187.376 119.076 184.39 120.566 185.511 123.556C186.633 126.546 190.745 123.92 194.482 122.063C198.219 120.205 201.58 117.204 202.33 117.951C203.081 118.698 195.604 126.171 196.35 126.546C197.097 126.922 199.712 126.546 204.199 123.931C208.686 121.316 210.926 119.444 211.297 120.566C211.669 121.688 210.179 125.425 205.321 128.415C200.462 131.405 193.36 135.142 193.36 136.264C193.36 137.385 194.857 138.879 199.712 137.385C204.567 135.892 209.804 132.527 210.179 133.649C210.554 134.77 205.321 139.625 201.58 141.494C197.84 143.362 195.228 144.112 195.228 144.859C195.228 145.606 198.219 146.728 205.321 144.859C212.423 142.991 214.287 141.494 214.663 142.616C215.038 143.737 210.926 149.718 204.57 150.464C198.215 151.211 195.228 151.586 194.857 151.961C194.485 152.336 192.985 155.323 188.502 155.698C184.018 156.073 176.923 152.726 172.8 153.09C168.678 153.455 166.074 156.081 160.465 155.334C154.856 154.587 155.981 153.09 152.62 153.09C149.258 153.09 130.571 150.475 130.571 148.982C130.571 147.489 150.751 147.114 152.62 146.363C154.488 145.613 152.984 144.123 149.63 143.002C146.275 141.88 124.962 129.923 125.337 128.051C125.712 126.179 135.425 130.669 141.781 132.538C148.136 134.406 151.498 135.899 152.245 134.778C152.991 133.656 149.254 132.538 143.274 128.801C137.294 125.064 132.439 122.074 133.557 120.952C134.675 119.83 140.659 123.567 146.264 125.811C151.869 128.054 152.991 128.051 153.366 126.932C153.741 125.814 144.771 119.83 145.518 119.084C146.264 118.337 152.245 121.327 155.235 122.445C158.225 123.564 159.718 124.314 160.093 122.81C160.468 121.305 154.488 118.698 149.254 116.458C144.021 114.218 134.322 107.862 134.686 105.99C135.05 104.118 142.535 108.609 147.393 110.477C152.252 112.346 154.495 113.092 154.495 111.599C154.495 110.106 150.759 106.74 147.018 104.122C143.278 101.503 140.291 98.8916 140.666 97.7699C141.042 96.6481 151.13 102.253 152.252 100.76C153.374 99.2668 151.13 97.7698 147.393 92.9112C143.657 88.0526 142.91 86.1842 143.657 85.4375C144.403 84.6909 161.594 100.006 163.091 100.37C164.588 100.735 164.959 98.1304 163.455 96.6335C161.951 95.1365 149.615 85.0478 150.376 84.3011C151.137 83.5545 159.347 89.9064 160.84 89.1598C162.333 88.4131 152.991 79.8177 153.738 79.071C154.484 78.3244 166.074 88.038 167.192 87.2914C168.31 86.5448 169.06 84.3011 166.827 82.0576C164.595 79.814 151.13 67.1247 152.259 66.3635C153.388 65.6023 166.827 74.9591 168.328 76.4524C169.829 77.9456 169.056 71.9689 167.581 69.7253C166.106 67.4818 158.611 63.3733 159.733 62.9982C160.854 62.623 167.206 63.7485 169.075 64.8667C170.943 65.9848 172.44 64.5024 171.318 61.505C170.196 58.5075 160.108 46.5721 160.479 45.8073C160.851 45.0424 170.196 54.0313 171.318 53.6561C172.44 53.281 172.801 33.4895 175.04 33.8646Z" fill="#305937"/>
<path d="M211.293 114.586C211.293 114.586 214.283 120.563 218.019 122.806C218.019 123.535 213.911 121.313 213.536 122.06C213.161 122.806 219.888 129.908 222.506 131.402C221.756 132.523 217.273 129.908 216.901 130.655C216.53 131.402 223.253 138.129 226.615 140.372C225.121 141.866 219.141 138.129 218.77 138.875C218.398 139.622 229.233 152.33 232.61 153.826C232.245 154.945 224.389 151.583 224.014 152.329C223.639 153.076 234.106 167.262 237.468 169.52C236.721 171.017 229.619 166.159 228.873 167.652C228.126 169.145 241.58 183.721 244.942 185.59C244.195 186.711 232.61 182.975 232.238 184.096C231.867 185.218 243.82 200.541 249.054 203.156C248.689 204.653 237.093 199.419 236.346 200.912C235.6 202.405 250.915 216.985 255.78 219.6C255.78 221.468 237.093 216.61 236.721 217.732C236.35 218.853 251.29 229.689 255.78 231.936C255.78 233.433 215.044 226.706 212.44 226.706C209.836 226.706 167.22 232.683 166.102 231.189C174.322 228.199 186.279 219.979 185.907 218.482C185.536 216.985 166.848 221.847 166.102 219.979C176.565 213.623 188.151 202.788 187.4 201.666C186.65 200.544 173.947 205.028 173.561 203.159C185.146 194.939 191.123 185.222 190.751 184.1C190.38 182.978 178.044 187.837 177.297 185.593C188.883 176.998 195.235 169.899 194.863 168.402C194.492 166.905 184.771 171.392 184.396 169.524C192.62 162.797 198.964 153.83 198.6 152.708C198.236 151.586 190.376 154.948 190.004 153.455C198.225 147.85 203.458 141.123 202.708 140.376C201.958 139.629 196.356 142.244 195.61 140.74C200.093 137.75 206.073 132.145 206.073 131.023C206.073 129.901 200.84 132.52 200.468 131.387C204.952 127.65 208.313 123.538 208.313 122.792C208.313 122.045 205.698 123.52 205.327 122.427C209.053 119.441 211.293 114.586 211.293 114.586Z" fill="#406632"/>
<path d="M223.73 401.304C226.279 401.726 224.094 423.157 225.551 423.521C227.007 423.885 232.471 418.058 233.563 419.515C234.656 420.972 225.915 427.892 225.551 430.805C225.186 433.719 226.279 434.083 227.372 433.355C228.464 432.626 231.742 428.62 232.471 429.713C233.199 430.805 228.828 434.812 227.007 437.725C225.186 440.639 224.822 443.553 226.643 442.824C228.464 442.096 232.835 436.633 233.563 437.725C234.292 438.818 229.921 443.917 228.828 445.738C227.736 447.559 228.1 449.38 229.921 447.923C231.742 446.467 242.668 437.361 243.761 438.09C244.854 438.818 241.212 443.917 237.934 447.195C234.656 450.473 227.372 455.208 226.643 457.757C225.915 460.307 226.279 461.764 228.1 460.307C229.921 458.85 242.304 450.837 243.033 451.93C243.761 453.022 239.026 458.486 235.748 461.035C232.471 463.585 228.1 468.319 227.736 470.141C227.372 471.962 227.007 473.054 231.014 471.233C235.02 469.412 240.847 466.863 245.218 464.677C249.588 462.492 251.045 459.578 251.774 460.307C252.502 461.035 252.502 463.22 249.224 466.134C245.946 469.048 237.934 474.511 237.934 475.24C237.934 475.968 239.391 475.968 243.033 475.24C246.675 474.511 249.953 473.418 250.317 473.783C250.681 474.147 246.675 479.246 241.212 481.795C235.748 484.345 232.835 485.802 233.927 488.715C235.02 491.629 239.026 489.08 242.668 487.259C246.31 485.438 249.588 482.524 250.317 483.252C251.045 483.981 243.761 491.265 244.489 491.629C245.218 491.993 247.767 491.629 252.138 489.08C256.508 486.53 258.694 484.709 259.058 485.802C259.422 486.894 257.965 490.537 253.23 493.45C248.496 496.364 241.576 500.006 241.576 501.099C241.576 502.191 243.033 503.648 247.767 502.191C252.502 500.735 257.601 497.457 257.965 498.549C258.329 499.642 253.23 504.377 249.588 506.198C245.946 508.019 243.397 508.747 243.397 509.476C243.397 510.204 246.31 511.297 253.23 509.476C260.15 507.655 261.971 506.198 262.336 507.29C262.7 508.383 258.694 514.211 252.502 514.939C246.31 515.667 243.397 516.032 243.033 516.396C242.668 516.76 241.212 519.674 236.841 520.038C232.471 520.402 225.551 517.124 221.544 517.488C217.538 517.853 214.989 520.402 209.525 519.674C204.062 518.945 205.155 517.488 201.877 517.488C198.599 517.488 180.389 514.939 180.389 513.482C180.389 512.025 200.056 511.661 201.877 510.933C203.698 510.204 202.241 508.747 198.963 507.655C195.686 506.562 174.926 494.907 175.29 493.086C175.654 491.265 185.124 495.636 191.315 497.457C197.507 499.278 200.784 500.735 201.513 499.642C202.241 498.549 198.599 497.457 192.772 493.814C186.945 490.172 182.21 487.259 183.302 486.166C184.395 485.073 190.222 488.715 195.686 490.901C201.149 493.086 202.241 493.086 202.605 491.993C202.97 490.901 194.229 485.073 194.957 484.345C195.686 483.616 201.513 486.53 204.427 487.623C207.34 488.715 208.797 489.444 209.161 487.987C209.525 486.53 203.698 483.981 198.599 481.795C193.5 479.61 184.031 473.418 184.395 471.597C184.759 469.776 192.043 474.147 196.778 475.968C201.513 477.789 203.698 478.517 203.698 477.061C203.698 475.604 200.056 472.326 196.414 469.776C192.772 467.227 189.858 464.677 190.222 463.585C190.587 462.492 200.42 467.955 201.513 466.498C202.605 465.042 200.42 463.585 196.778 458.85C193.136 454.115 192.408 452.294 193.136 451.566C193.865 450.837 210.618 465.77 212.075 466.134C213.532 466.498 213.896 463.949 212.439 462.492C210.982 461.035 198.963 451.201 199.692 450.473C200.42 449.744 208.433 455.936 209.89 455.208C211.346 454.479 202.241 446.102 202.97 445.374C203.698 444.645 214.989 454.115 216.081 453.387C217.174 452.658 217.902 450.473 215.717 448.288C213.532 446.102 200.42 433.719 201.513 432.991C202.605 432.262 215.717 441.368 217.174 442.824C218.631 444.281 217.902 438.454 216.445 436.269C214.989 434.083 207.704 430.077 208.797 429.713C209.89 429.348 216.081 430.441 217.902 431.534C219.723 432.626 221.18 431.17 220.087 428.256C218.995 425.342 209.161 413.687 209.525 412.959C209.89 412.23 218.995 420.972 220.087 420.607C221.18 420.243 221.544 400.94 223.73 401.304Z" fill="#305937"/>
<path d="M46.3582 50.1992C46.3582 50.1992 49.2719 56.0267 52.914 58.2119C52.914 58.9404 48.9077 56.7551 48.5435 57.4835C48.1793 58.2119 54.735 65.132 57.2845 66.5889C56.5561 67.6815 52.1856 65.132 51.8214 65.8605C51.4572 66.5889 58.0129 73.1448 61.2908 75.33C59.8339 76.7869 54.0066 73.1448 53.6424 73.8732C53.2782 74.6016 63.8402 86.9849 67.1181 88.4418C66.7539 89.5344 59.1055 86.2565 58.7413 86.9849C58.3771 87.7133 68.5749 101.554 71.8528 103.739C71.1244 105.196 64.2044 100.461 63.476 101.918C62.7476 103.375 75.8591 117.579 79.137 119.4C78.4085 120.493 67.1181 116.851 66.7539 117.943C66.3897 119.036 78.0443 133.969 83.1433 136.518C82.779 137.975 71.4886 132.876 70.7602 134.333C70.0318 135.79 84.9643 149.994 89.699 152.544C89.699 154.365 71.4886 149.63 71.1244 150.723C70.7602 151.815 85.3285 162.377 89.699 164.563C89.699 166.02 50.0003 159.464 47.4509 159.464C44.9014 159.464 3.38169 165.291 2.28906 163.834C10.3016 160.921 21.9563 152.908 21.5921 151.451C21.2279 149.994 3.01748 154.729 2.28906 152.908C12.4869 146.716 23.7773 136.154 23.0489 135.061C22.3205 133.969 9.93743 138.339 9.57322 136.518C20.8637 128.505 26.691 119.036 26.3268 117.943C25.9626 116.851 13.9437 121.585 13.2153 119.4C24.5058 111.023 30.6973 104.103 30.3331 102.646C29.9689 101.189 20.4995 105.56 20.1353 103.739C28.1478 97.1829 34.3394 88.4418 33.9752 87.3491C33.611 86.2565 25.9626 89.5344 25.5984 88.0776C33.611 82.6143 38.7099 76.0585 37.9815 75.33C37.253 74.6016 31.7899 77.1511 31.0615 75.6943C35.432 72.7805 41.2593 67.3173 41.2593 66.2247C41.2593 65.132 36.1604 67.6815 35.7962 66.5889C40.1667 62.9467 43.4446 58.9404 43.4446 58.2119C43.4446 57.4835 40.8951 58.9404 40.5309 57.8477C44.173 54.934 46.3582 50.1992 46.3582 50.1992Z" fill="#305937"/>
<path d="M158.349 167.896C155.741 168.329 157.985 190.317 156.48 190.692C154.976 191.067 149.378 185.087 148.257 186.58C147.135 188.073 156.105 195.176 156.48 198.166C156.856 201.156 155.73 201.531 154.612 200.781C153.494 200.031 150.125 195.922 149.378 197.044C148.632 198.166 153.115 202.278 154.983 205.268C156.852 208.258 157.227 211.248 155.348 210.498C153.468 209.748 148.992 204.146 148.246 205.268C147.499 206.39 151.982 211.62 153.104 213.488C154.226 215.357 153.833 217.225 151.982 215.732C150.132 214.239 138.904 204.893 137.778 205.64C136.653 206.386 140.393 211.62 143.759 214.985C147.124 218.351 154.597 223.206 155.344 225.821C156.091 228.436 155.708 229.933 153.847 228.439C151.986 226.946 139.279 218.722 138.525 219.844C137.771 220.966 142.637 226.571 145.998 229.186C149.36 231.801 153.847 236.66 154.222 238.528C154.597 240.397 154.951 241.518 150.857 239.65C146.763 237.781 140.768 235.166 136.289 232.923C131.809 230.679 130.308 227.689 129.562 228.439C128.815 229.19 128.811 231.426 132.177 234.416C135.542 237.406 143.762 243.012 143.762 243.762C143.762 244.512 142.265 244.509 138.529 243.762C134.792 243.015 131.43 241.894 131.055 242.265C130.68 242.636 134.792 247.87 140.397 250.489C146.002 253.108 148.992 254.597 147.874 257.587C146.756 260.578 142.641 257.952 138.904 256.094C135.167 254.237 131.802 251.236 131.055 251.982C130.308 252.729 137.782 260.203 137.035 260.578C136.289 260.953 133.67 260.578 129.187 257.963C124.703 255.348 122.46 253.475 122.085 254.597C121.709 255.719 123.206 259.456 128.065 262.446C132.923 265.436 140.025 269.173 140.025 270.295C140.025 271.417 138.529 272.91 133.67 271.417C128.811 269.923 123.581 266.558 123.206 267.68C122.831 268.802 128.065 273.657 131.802 275.525C135.538 277.393 138.157 278.144 138.157 278.89C138.157 279.637 135.167 280.759 128.065 278.89C120.963 277.022 119.098 275.525 118.723 276.647C118.348 277.769 122.46 283.749 128.811 284.496C135.163 285.242 138.157 285.617 138.529 285.993C138.9 286.368 140.397 289.354 144.884 289.729C149.371 290.105 156.469 286.739 160.578 287.111C164.686 287.482 167.305 290.101 172.91 289.354C178.515 288.608 177.397 287.111 180.758 287.111C184.12 287.111 202.808 284.496 202.808 283.002C202.808 281.509 182.627 281.134 180.758 280.384C178.89 279.633 180.394 278.144 183.749 277.022C187.103 275.9 208.413 263.943 208.041 262.071C207.67 260.199 197.949 264.69 191.597 266.558C185.246 268.427 181.88 269.92 181.134 268.798C180.387 267.676 184.124 266.558 190.1 262.821C196.077 259.084 200.939 256.094 199.818 254.972C198.696 253.851 192.719 257.588 187.114 259.831C181.509 262.075 180.387 262.071 180.012 260.953C179.637 259.835 188.607 253.851 187.861 253.104C187.114 252.357 181.134 255.348 178.144 256.466C175.153 257.584 173.66 258.334 173.285 256.83C172.91 255.326 178.89 252.718 184.124 250.478C189.357 248.238 199.056 241.883 198.692 240.01C198.328 238.138 190.843 242.629 185.985 244.498C181.126 246.366 178.883 247.113 178.883 245.619C178.883 244.126 182.62 240.761 186.356 238.142C190.093 235.523 193.083 232.912 192.712 231.79C192.34 230.668 182.248 236.274 181.126 234.78C180.005 233.287 182.248 231.79 185.985 226.932C189.722 222.073 190.468 220.204 189.722 219.458C188.975 218.711 171.784 234.026 170.288 234.391C168.791 234.755 168.419 232.151 169.923 230.654C171.427 229.157 183.763 219.068 183.002 218.322C182.241 217.575 174.032 223.927 172.538 223.18C171.045 222.433 180.387 213.838 179.637 213.091C178.886 212.345 167.305 222.058 166.183 221.312C165.061 220.565 164.314 218.321 166.547 216.078C168.78 213.834 182.244 201.145 181.115 200.384C179.986 199.623 166.547 208.979 165.047 210.473C163.546 211.966 164.296 205.989 165.793 203.746C167.29 201.502 174.76 197.394 173.642 197.019C172.524 196.643 166.165 197.769 164.296 198.887C162.428 200.005 160.935 198.523 162.056 195.525C163.178 192.528 173.267 180.592 172.892 179.828C172.516 179.063 163.178 188.052 162.056 187.676C160.935 187.301 160.574 167.521 158.349 167.896Z" fill="#305937"/>
<path d="M48.015 196.68C43.8922 196.906 46.285 215.816 40.4067 227.274C34.5284 238.732 34.5357 241.351 28.752 245.601C30.0887 249.56 39.6783 245.51 39.6783 245.51C39.6783 245.51 35.5409 255.934 24.4544 260.202C25.3685 263.845 36.6226 263.331 36.6226 263.331C36.6226 263.331 31.6912 273.496 22.5022 275.219C23.4127 278.861 35.8869 278.927 35.8869 278.927C35.8869 278.927 30.2125 289.198 23.0339 291.762C24.7931 296.038 35.2021 294.89 35.2021 294.89C35.2021 294.89 29.4659 302.149 20.8633 305.299C21.6208 310.475 45.2325 306.64 45.2325 306.64C45.2325 306.64 45.0904 310.814 42.7704 313.043C45.3199 314.937 61.4943 301.614 61.4943 301.614C61.4943 301.614 69.3576 314.059 73.4258 313.465C73.2546 309.71 72.956 299.935 72.956 299.935C72.956 299.935 87.4223 311.036 90.438 308.312C86.774 303.941 84.6907 297.443 84.6907 297.443C84.6907 297.443 98.771 303.315 100.872 299.607C95.5223 296.613 88.362 288.975 88.362 288.975C88.362 288.975 102.93 287.97 102.348 283.906C92.6705 282.299 85.3026 275.824 85.3026 275.824C85.3026 275.824 94.6555 275.212 94.7975 271.034C85.8052 268.951 78.0038 259.521 78.0038 259.521C78.0038 259.521 89.8443 260.428 89.99 256.243C82.0502 253.628 74.7369 247.524 74.7369 247.524C74.7369 247.524 84.0351 246.537 83.3868 242.101C71.4335 240.451 65.1765 233.815 65.1765 233.815C65.1765 233.815 75.9606 235.272 75.6365 233.039C71.6703 231.732 61.7639 226.006 57.6592 216.03C53.5546 206.055 52.1378 196.454 48.015 196.68Z" fill="#305937"/>
<path d="M40.1809 286.717C42.825 286.673 44.5805 308.708 46.1175 308.807C47.6544 308.905 52.0941 302.014 53.4672 303.285C54.8403 304.556 47.2757 313.152 47.4614 316.16C47.6471 319.168 48.798 319.332 49.7668 318.396C50.7356 317.46 53.3069 312.809 54.243 313.778C55.179 314.747 51.5077 319.605 50.2075 322.883C48.9073 326.161 49.0748 329.166 50.7793 328.095C52.4838 327.025 55.8782 320.705 56.8252 321.674C57.7721 322.643 54.2757 328.594 53.5218 330.634C52.7679 332.674 53.4599 334.444 55.0297 332.637C56.5994 330.831 65.9559 319.627 67.1833 320.159C68.4107 320.691 65.6864 326.511 62.9803 330.426C60.2742 334.342 53.7986 340.46 53.5327 343.174C53.2668 345.887 53.897 347.282 55.474 345.479C57.051 343.676 68.0647 333.3 69.0007 334.269C69.9367 335.238 66.1671 341.626 63.3299 344.802C60.4927 347.978 56.9527 353.565 56.9199 355.47C56.8871 357.375 56.7232 358.547 60.4308 355.969C64.1385 353.39 69.536 349.744 73.5423 346.732C77.5486 343.72 78.4846 340.511 79.3696 341.112C80.2546 341.713 80.6407 343.92 77.8691 347.464C75.0975 351.008 68.0355 358.001 68.152 358.737C68.2686 359.472 69.7582 359.203 73.2983 357.797C76.8384 356.391 79.9487 354.683 80.3858 354.982C80.8228 355.28 77.7162 361.173 72.6719 364.75C67.6276 368.326 64.9543 370.341 66.5933 373.08C68.2322 375.818 71.8087 372.508 75.1485 369.995C78.4883 367.482 81.2599 363.941 82.1303 364.531C83.0008 365.121 76.9914 373.826 77.7927 374.059C78.5939 374.292 81.1033 373.458 85.044 370.078C88.9847 366.698 90.8713 364.455 91.4249 365.493C91.9785 366.531 91.1955 370.472 86.9525 374.289C82.7094 378.106 76.3904 383.055 76.598 384.155C76.8056 385.255 78.5393 386.461 83.0482 384.119C87.5571 381.777 92.1023 377.527 92.6705 378.561C93.2387 379.595 88.9666 385.317 85.6268 387.827C82.287 390.336 79.8468 391.542 79.9816 392.277C80.1163 393.013 83.2594 393.578 89.9062 390.456C96.553 387.335 98.1264 385.536 98.6945 386.57C99.2627 387.604 96.2944 394.219 90.1794 396.105C84.0643 397.992 81.1907 398.888 80.8884 399.321C80.5861 399.755 79.6574 402.963 75.3124 404.14C70.9674 405.316 63.3773 403.28 59.4002 404.387C55.423 405.495 53.3215 408.536 47.6726 408.809C42.0238 409.082 42.8578 407.41 39.5472 408.015C36.2365 408.62 17.3887 409.403 17.1192 407.931C16.8497 406.46 36.6371 402.468 38.3416 401.397C40.0461 400.326 38.3052 399.125 34.7942 398.626C31.2833 398.127 8.18156 390.19 8.20705 388.286C8.23255 386.381 18.6052 389.047 25.1901 389.742C31.775 390.438 35.3515 391.305 35.8869 390.066C36.4222 388.828 32.5434 388.398 25.9877 385.798C19.4319 383.197 14.1181 381.129 15.0214 379.821C15.9246 378.514 22.4767 381.121 28.3915 382.32C34.3062 383.518 35.4134 383.314 35.5773 382.145C35.7412 380.976 25.8456 376.703 26.4466 375.837C27.0475 374.97 33.4685 376.831 36.6116 377.399C39.7547 377.967 41.3464 378.43 41.4593 376.893C41.5722 375.356 35.2058 373.855 29.6553 372.591C24.1047 371.328 13.4043 366.822 13.4371 364.918C13.4699 363.013 21.6281 366.079 26.7416 367.044C31.8551 368.01 34.1969 368.341 33.9274 366.87C33.6579 365.398 29.3785 362.761 25.2338 360.86C21.0891 358.959 17.6764 356.923 17.8403 355.761C18.0042 354.599 28.9414 358.292 29.7754 356.621C30.6095 354.949 28.1329 353.878 23.5839 349.773C19.0349 345.669 17.9642 343.946 18.5651 343.09C19.166 342.234 38.8297 354.206 40.3703 354.304C41.9109 354.403 41.8052 351.755 40.0643 350.56C38.3234 349.365 24.3816 341.648 24.9825 340.781C25.5834 339.914 34.8161 344.682 36.1491 343.695C37.4821 342.708 26.7489 335.915 27.3498 335.045C27.9508 334.174 41.095 341.651 42.0638 340.715C43.0326 339.779 43.364 337.437 40.7527 335.638C38.1413 333.839 22.626 323.75 23.5948 322.814C24.5636 321.878 39.478 328.642 41.2189 329.855C42.9598 331.067 41.146 325.305 39.274 323.371C37.402 321.438 29.3093 318.731 30.3436 318.163C31.378 317.595 37.8317 317.555 39.8713 318.323C41.9108 319.092 43.1127 317.351 41.4702 314.612C39.8276 311.873 27.7577 301.919 27.9945 301.136C28.2312 300.353 39.03 307.477 40.0643 306.909C41.0987 306.341 37.9082 286.757 40.1809 286.717Z" fill="#305937"/>
<path d="M128.613 244.615C128.613 244.615 131.603 250.592 135.34 252.836C135.34 253.564 131.231 251.342 130.856 252.089C130.481 252.836 137.208 259.938 139.827 261.431C139.076 262.553 134.593 259.938 134.222 260.684C133.85 261.431 140.573 268.158 143.935 270.402C142.442 271.895 136.461 268.158 136.09 268.905C135.718 269.651 146.554 282.359 149.93 283.856C149.566 284.974 141.71 281.612 141.335 282.359C140.959 283.105 151.427 297.292 154.788 299.55C154.042 301.047 146.94 296.188 146.193 297.681C145.446 299.175 158.9 313.75 162.262 315.619C161.515 316.741 149.93 313.004 149.558 314.126C149.187 315.247 161.14 330.57 166.374 333.185C166.01 334.682 154.413 329.448 153.667 330.941C152.92 332.435 168.235 347.014 173.101 349.629C173.101 351.498 154.413 346.639 154.042 347.761C153.67 348.883 168.61 359.718 173.101 361.965C173.101 363.462 132.364 356.735 129.76 356.735C127.156 356.735 84.54 362.712 83.4219 361.219C91.642 358.228 103.599 350.008 103.227 348.511C102.856 347.014 84.1685 351.876 83.4219 350.008C93.8856 343.652 105.471 332.817 104.721 331.695C103.97 330.574 91.2669 335.057 90.8808 333.189C102.466 324.968 108.443 315.251 108.071 314.129C107.7 313.007 95.3643 317.866 94.6176 315.623C106.203 307.027 112.555 299.929 112.183 298.432C111.812 296.935 102.091 301.422 101.716 299.553C109.94 292.826 116.284 283.859 115.92 282.738C115.556 281.616 107.696 284.978 107.325 283.484C115.545 277.879 120.779 271.152 120.028 270.405C119.278 269.659 113.677 272.274 112.93 270.77C117.413 267.779 123.394 262.174 123.394 261.052C123.394 259.93 118.16 262.549 117.788 261.416C122.272 257.68 125.634 253.568 125.634 252.821C125.634 252.074 123.019 253.549 122.647 252.457C126.373 249.47 128.613 244.615 128.613 244.615Z" fill="#305937"/>
<path d="M48.7636 354.163C48.7636 354.163 50.7959 360.264 55.8802 363.312C60.9645 366.361 62.9968 367.38 61.9807 368.411C60.9645 369.442 59.4312 366.885 58.4224 367.901C57.4135 368.917 59.4385 369.937 58.4224 370.953C57.4062 371.97 56.3864 369.937 55.3703 370.953C54.3542 371.97 59.4385 377.054 61.4708 378.07C63.5031 379.086 65.539 380.103 65.539 381.119C65.539 382.135 62.4869 382.135 61.4708 381.119C60.4546 380.103 59.4385 378.07 58.4224 379.086C57.4062 380.103 58.4223 381.119 57.4062 381.119C56.3901 381.119 56.3864 380.103 55.3703 381.119C54.3542 382.135 57.4062 385.187 59.4385 386.218C61.4708 387.248 70.3647 389.284 70.6233 391.317C70.82 392.821 68.205 392.821 67.0832 392.821C65.9615 392.821 65.9615 393.185 66.3366 394.318C66.7117 395.451 65.9724 396.186 64.4682 396.186C62.964 396.186 60.3563 393.571 59.2345 393.571C58.1128 393.571 57.7413 394.689 58.5061 395.811C59.271 396.933 69.3449 404.035 73.4568 406.275C77.5687 408.515 81.677 410.387 82.0522 411.884C82.4273 413.381 78.3154 413.752 77.1936 413.377C76.0719 413.002 75.3253 412.631 74.9501 413.013C74.575 413.395 74.5859 415.257 71.96 415.257C69.3341 415.257 67.4766 412.641 67.1014 412.641C66.7263 412.641 66.7372 414.881 65.233 414.881C63.7289 414.881 62.9932 413.013 62.2429 413.013C61.4926 413.013 61.1211 413.763 61.8787 415.632C62.6362 417.5 74.5823 428.335 79.4408 431.326C84.2994 434.316 90.6547 435.063 91.0262 435.813C91.3977 436.563 90.6621 438.428 85.7963 438.799C80.9304 439.171 79.0693 437.681 78.6942 437.306C78.3191 436.931 77.9658 437.306 77.9658 438.428C77.9658 439.55 77.9657 439.921 76.4688 439.921C74.972 439.921 73.4823 436.931 73.1072 437.306C72.7321 437.681 73.1073 439.175 71.9855 440.296C70.8638 441.418 69.3705 439.932 68.6238 439.932C67.8772 439.932 67.5021 440.682 67.8735 441.429C68.245 442.176 74.6004 451.518 82.8243 457.498C91.0481 463.479 101.137 465.718 101.137 466.469C101.137 467.219 98.8932 469.084 95.903 469.084C92.9129 469.084 91.4196 469.084 91.4196 469.448C91.4196 469.812 90.673 472.435 88.4295 472.063C86.186 471.692 80.9559 468.698 80.2093 468.698C79.4626 468.698 80.5735 472.435 77.9658 472.81C75.358 473.185 73.8539 469.82 73.4824 469.82C73.1109 469.82 74.2108 473.556 71.2389 473.185C68.2669 472.813 64.887 467.951 64.1368 467.951C63.3865 467.951 64.887 470.941 63.4083 471.316C61.9297 471.692 57.4281 468.698 56.6814 468.698C55.9348 468.698 56.3173 473.185 54.0664 472.81C51.8156 472.435 50.7012 469.448 48.8328 469.448C46.9644 469.448 45.4711 472.435 43.9742 472.435C42.4773 472.435 43.61 469.073 42.1058 468.698C40.6016 468.323 38.7442 471.316 36.1292 471.316C33.5142 471.316 35.3789 467.951 33.5105 467.576C31.6421 467.201 28.2805 470.941 26.4121 470.941C24.5437 470.941 25.6837 467.951 24.1686 467.576C22.6535 467.201 20.0567 471.688 18.1883 471.688C16.3199 471.688 18.5525 467.576 17.4599 467.576C16.3673 467.576 12.9765 470.195 10.7329 470.195C8.48941 470.195 9.6112 466.458 8.48944 466.458C7.36768 466.458 6.24957 468.698 3.25942 468.326C0.269271 467.955 -0.477386 466.829 0.269241 466.083C1.01587 465.336 12.2298 458.234 20.45 450.385C28.6702 442.536 29.792 439.55 29.0453 438.428C28.2987 437.306 26.4303 440.296 24.9334 439.921C23.4366 439.546 25.6837 436.559 24.5692 436.184C23.4548 435.809 20.8324 439.55 17.8423 439.55C14.8521 439.55 15.9739 437.681 15.9739 436.931C15.9739 436.181 10.3651 437.681 9.99362 436.203C9.62213 434.724 20.4573 431.719 27.5594 426.485C34.6614 421.251 36.9013 413.406 36.9013 412.281C36.9013 411.155 35.0329 411.534 34.2863 412.281C33.5397 413.028 29.4277 414.896 28.6775 414.896C27.9272 414.896 27.5594 413.028 27.1842 413.028C26.8091 413.028 26.0625 414.896 23.8189 414.896C21.5754 414.896 22.3257 413.403 21.5791 413.028C20.8324 412.652 18.9641 413.028 17.092 412.663C15.22 412.299 15.5988 411.542 17.092 411.166C18.5853 410.791 25.3159 408.176 32.0246 402.571C38.7333 396.966 39.8733 394.351 39.4981 393.604C39.123 392.857 35.7613 394.722 35.0147 394.722C34.2681 394.722 33.8929 393.229 33.5178 393.229C33.1427 393.229 30.9028 394.722 30.1562 394.351C29.4095 393.979 30.9028 392.107 30.5204 391.736C30.138 391.364 25.6655 392.464 26.037 391.371C26.4085 390.279 30.5204 390.25 34.6323 387.634C38.7442 385.019 42.8561 380.532 42.481 379.786C42.1058 379.039 39.8659 381.654 38.7442 381.283C37.6224 380.911 37.6224 380.161 37.2473 380.532C36.8722 380.904 36.5189 381.654 35.7541 381.654C34.9892 381.654 36.1183 380.161 35.0256 380.532C33.933 380.904 32.407 381.283 32.407 380.532C32.407 379.782 34.6505 378.664 39.1339 374.927C43.6173 371.19 42.8743 367.829 42.8743 367.829C42.8743 367.829 40.2556 369.322 39.509 368.947C38.7624 368.571 39.509 367.453 38.7806 367.453C38.0522 367.453 35.4153 367.818 35.7905 367.089C36.1656 366.361 38.7806 367.453 43.264 362.606C47.7474 357.758 47.6309 354.039 48.7636 354.163Z" fill="#305937"/>
<path d="M46.3042 500.293C46.3042 500.293 49.2943 506.27 53.0311 508.513C53.0311 509.242 48.9229 507.02 48.5477 507.767C48.1726 508.513 54.8995 515.615 57.5182 517.109C56.7679 518.231 52.2845 515.615 51.913 516.362C51.5415 517.109 58.2648 523.836 61.6264 526.079C60.1332 527.573 54.1529 523.836 53.7814 524.582C53.4099 525.329 64.2451 538.037 67.6213 539.533C67.2571 540.652 59.4011 537.29 59.026 538.037C58.6509 538.783 69.1182 552.969 72.4798 555.228C71.7332 556.724 64.6311 551.866 63.8845 553.359C63.1379 554.852 76.5917 569.428 79.9534 571.297C79.2067 572.418 67.6213 568.682 67.2498 569.803C66.8783 570.925 78.8316 586.248 84.0653 588.863C83.7011 590.36 72.1047 585.126 71.358 586.619C70.6114 588.112 85.9264 602.692 90.7922 605.307C90.7922 607.175 72.1047 602.317 71.7332 603.439C71.3617 604.56 86.3015 615.396 90.7922 617.643C90.7922 619.14 50.0555 612.413 47.4515 612.413C44.8474 612.413 2.2314 618.39 1.11328 616.896C9.33346 613.906 21.2904 605.686 20.9189 604.189C20.5474 602.692 1.85991 607.554 1.11328 605.686C11.577 599.33 23.1624 588.495 22.4122 587.373C21.6619 586.251 8.95831 590.735 8.57225 588.866C20.1577 580.646 26.1343 570.929 25.7629 569.807C25.3914 568.685 13.0557 573.544 12.309 571.3C23.8945 562.705 30.2463 555.606 29.8748 554.109C29.5033 552.612 19.7826 557.1 19.4074 555.231C27.6313 548.504 33.9758 539.537 33.6116 538.415C33.2473 537.294 25.3877 540.655 25.0163 539.162C33.2364 533.557 38.4701 526.83 37.7198 526.083C36.9696 525.336 31.368 527.951 30.6214 526.447C35.1048 523.457 41.0851 517.852 41.0851 516.73C41.0851 515.608 35.8514 518.227 35.4799 517.094C39.9633 513.357 43.325 509.245 43.325 508.499C43.325 507.752 40.71 509.227 40.3385 508.135C44.0643 505.148 46.3042 500.293 46.3042 500.293Z" fill="#305937"/>
<path d="M108.276 41.457C108.276 41.457 111.19 47.2845 114.832 49.4698C114.832 50.1982 110.826 48.0129 110.461 48.7413C110.097 49.4698 116.653 56.3898 119.202 57.8467C118.474 58.9393 114.104 56.3898 113.739 57.1183C113.375 57.8467 119.931 64.4026 123.209 66.5879C121.752 68.0447 115.925 64.4026 115.56 65.131C115.196 65.8594 125.758 78.2427 129.036 79.6996C128.672 80.7922 121.023 77.5143 120.659 78.2427C120.295 78.9712 130.493 92.8113 133.771 94.9966C133.042 96.4535 126.122 91.7187 125.394 93.1755C124.666 94.6324 137.777 108.837 141.055 110.658C140.327 111.751 129.036 108.108 128.672 109.201C128.308 110.294 139.962 125.226 145.061 127.776C144.697 129.233 133.407 124.134 132.678 125.591C131.95 127.048 146.882 141.252 151.617 143.801C151.617 145.622 133.407 140.888 133.042 141.98C132.678 143.073 147.246 153.635 151.617 155.821C151.617 157.277 111.918 150.721 109.369 150.721C106.819 150.721 65.2997 156.549 64.207 155.092C72.2196 152.178 83.8743 144.166 83.5101 142.709C83.1459 141.252 64.9354 145.987 64.207 144.166C74.4049 137.974 85.6953 127.412 84.9669 126.319C84.2385 125.226 71.8554 129.597 71.4912 127.776C82.7816 119.763 88.609 110.294 88.2448 109.201C87.8806 108.108 75.8617 112.843 75.1333 110.658C86.4237 102.281 92.6153 95.3608 92.2511 93.904C91.8868 92.4471 82.4174 96.8177 82.0532 94.9966C90.0658 88.4408 96.2573 79.6996 95.8931 78.6069C95.5289 77.5143 87.8806 80.7922 87.5163 79.3354C95.5289 73.8722 100.628 67.3163 99.8994 66.5879C99.171 65.8594 93.7079 68.4089 92.9795 66.9521C97.35 64.0384 103.177 58.5751 103.177 57.4825C103.177 56.3898 98.0784 58.9393 97.7142 57.8467C102.085 54.2046 105.363 50.1982 105.363 49.4698C105.363 48.7413 102.813 50.1982 102.449 49.1055C106.091 46.1918 108.276 41.457 108.276 41.457Z" fill="#45684A"/>
<path d="M245.643 122.524C245.643 122.524 243.611 128.625 238.527 131.674C233.442 134.722 231.41 135.742 232.426 136.773C233.442 137.803 234.976 135.247 235.985 136.263C236.994 137.279 234.969 138.299 235.985 139.315C237.001 140.331 238.017 138.299 239.033 139.315C240.049 140.331 234.969 145.415 232.936 146.432C230.904 147.448 228.868 148.464 228.868 149.48C228.868 150.496 231.916 150.496 232.936 149.48C233.956 148.464 234.969 146.432 235.985 147.448C237.001 148.464 235.985 149.48 237.001 149.48C238.017 149.48 238.017 148.464 239.033 149.48C240.049 150.496 237.001 153.548 234.969 154.579C232.936 155.61 224.042 157.646 223.784 159.678C223.583 161.182 226.202 161.182 227.324 161.182C228.446 161.182 228.442 161.546 228.052 162.679C227.662 163.812 228.416 164.548 229.921 164.548C231.425 164.548 234.033 161.933 235.151 161.933C236.269 161.933 236.648 163.051 235.901 164.172C235.154 165.294 225.062 172.396 220.95 174.636C216.838 176.876 212.73 178.748 212.355 180.245C211.98 181.742 216.092 182.114 217.213 181.738C218.335 181.363 219.082 180.992 219.457 181.374C219.832 181.757 219.821 183.618 222.447 183.618C225.073 183.618 226.93 181.003 227.306 181.003C227.681 181.003 227.67 183.243 229.174 183.243C230.678 183.243 231.414 181.374 232.16 181.374C232.907 181.374 233.282 182.125 232.525 183.993C231.767 185.861 219.817 196.697 214.959 199.687C210.1 202.677 203.749 203.424 203.377 204.174C203.006 204.924 203.741 206.789 208.607 207.161C213.473 207.532 215.334 206.043 215.709 205.667C216.084 205.292 216.438 205.667 216.438 206.789C216.438 207.911 216.438 208.283 217.931 208.283C219.424 208.283 220.921 205.292 221.296 205.667C221.671 206.043 221.296 207.536 222.418 208.658C223.54 209.779 225.033 208.293 225.78 208.293C226.526 208.293 226.901 209.044 226.526 209.79C226.151 210.537 219.799 219.879 211.594 225.86C203.388 231.84 193.281 234.08 193.281 234.83C193.281 235.58 195.525 237.445 198.515 237.445C201.505 237.445 202.998 237.445 202.998 237.809C202.998 238.174 203.745 240.796 205.989 240.424C208.232 240.053 213.462 237.059 214.209 237.059C214.955 237.059 213.844 240.796 216.452 241.171C219.06 241.546 220.564 238.181 220.936 238.181C221.307 238.181 220.207 241.918 223.179 241.546C226.151 241.175 229.531 236.312 230.278 236.312C231.024 236.312 229.549 239.303 231.028 239.678C232.507 240.053 237.004 237.059 237.755 237.059C238.505 237.059 238.119 241.546 240.37 241.171C242.621 240.796 243.731 237.809 245.6 237.809C247.468 237.809 248.965 240.796 250.458 240.796C251.952 240.796 250.823 237.434 252.327 237.059C253.831 236.684 255.692 239.678 258.307 239.678C260.922 239.678 259.054 236.312 260.922 235.937C262.79 235.562 266.156 239.303 268.024 239.303C269.892 239.303 268.771 236.312 270.268 235.937C271.764 235.562 274.376 240.049 276.244 240.049C278.113 240.049 275.88 235.937 276.995 235.937C278.109 235.937 281.478 238.556 283.721 238.556C285.965 238.556 284.843 234.819 285.961 234.819C287.079 234.819 288.205 237.059 291.195 236.688C294.185 236.316 294.932 235.191 294.185 234.444C293.438 233.697 282.225 226.595 274.004 218.746C265.784 210.898 264.662 207.911 265.409 206.789C266.156 205.667 268.024 208.658 269.517 208.283C271.011 207.907 268.771 204.921 269.882 204.546C270.992 204.171 273.618 207.911 276.608 207.911C279.599 207.911 278.477 206.043 278.477 205.292C278.477 204.542 284.082 206.043 284.457 204.564C284.832 203.085 273.993 200.08 266.891 194.847C259.789 189.613 257.549 181.768 257.549 180.642C257.549 179.517 259.418 179.896 260.164 180.642C260.911 181.389 265.023 183.257 265.77 183.257C266.516 183.257 266.891 181.389 267.267 181.389C267.642 181.389 268.388 183.257 270.628 183.257C272.868 183.257 272.125 181.764 272.872 181.389C273.618 181.014 275.487 181.389 277.355 181.025C279.223 180.66 278.852 179.903 277.355 179.528C275.858 179.153 269.135 176.538 262.423 170.932C255.71 165.327 254.574 162.712 254.949 161.965C255.324 161.219 258.686 163.083 259.432 163.083C260.179 163.083 260.554 161.59 260.926 161.59C261.297 161.59 263.544 163.083 264.291 162.712C265.038 162.34 263.544 160.468 263.927 160.097C264.309 159.725 268.785 160.825 268.414 159.733C268.042 158.64 263.927 158.611 259.818 155.996C255.71 153.381 251.595 148.894 251.97 148.147C252.345 147.4 254.585 150.015 255.707 149.644C256.828 149.272 256.828 148.522 257.2 148.894C257.571 149.265 257.95 150.015 258.697 150.015C259.443 150.015 258.332 148.522 259.425 148.894C260.518 149.265 262.04 149.644 262.04 148.894C262.04 148.143 259.8 147.025 255.313 143.288C250.826 139.552 251.576 136.19 251.576 136.19C251.576 136.19 254.191 137.683 254.942 137.308C255.692 136.933 254.942 135.815 255.688 135.815C256.435 135.815 259.05 136.179 258.678 135.45C258.307 134.722 255.688 135.815 251.205 130.967C246.722 126.119 246.772 122.401 245.643 122.524Z" fill="#305937"/>
<path d="M210.586 490.461C210.586 490.461 207.599 496.438 203.859 498.681C203.859 499.41 207.971 497.188 208.346 497.935C208.721 498.681 201.991 505.783 199.376 507.277C200.122 508.398 204.609 505.783 204.981 506.53C205.352 507.277 198.629 514.004 195.264 516.247C196.761 517.741 202.741 514.004 203.112 514.75C203.484 515.497 192.649 528.205 189.272 529.701C189.637 530.82 197.493 527.458 197.868 528.204C198.243 528.951 187.776 543.137 184.414 545.395C185.161 546.892 192.263 542.034 193.009 543.527C193.756 545.02 180.302 559.596 176.94 561.465C177.687 562.586 189.272 558.85 189.644 559.971C190.015 561.093 178.058 576.416 172.828 579.031C173.193 580.528 184.785 575.294 185.536 576.787C186.286 578.28 170.967 592.86 166.102 595.475C166.102 597.343 184.785 592.485 185.161 593.607C185.536 594.728 170.592 605.564 166.102 607.811C166.102 609.308 206.835 602.581 209.442 602.581C212.05 602.581 254.659 608.558 255.78 607.064C247.56 604.074 235.6 595.854 235.975 594.357C236.35 592.86 255.034 597.722 255.78 595.854C245.317 589.498 233.731 578.663 234.478 577.541C235.225 576.419 247.932 580.903 248.318 579.034C236.732 570.814 230.752 561.097 231.127 559.975C231.502 558.853 243.834 563.712 244.581 561.468C232.996 552.873 226.644 545.774 227.015 544.277C227.387 542.78 237.108 547.267 237.479 545.399C229.259 538.672 222.911 529.705 223.275 528.583C223.639 527.461 231.499 530.823 231.87 529.33C223.65 523.725 218.416 516.998 219.163 516.251C219.91 515.504 225.518 518.119 226.265 516.615C221.782 513.625 215.801 508.02 215.801 506.898C215.801 505.776 221.035 508.395 221.406 507.262C216.923 503.525 213.558 499.413 213.558 498.667C213.558 497.92 216.177 499.395 216.548 498.302C212.829 495.316 210.586 490.461 210.586 490.461Z" fill="#45684A"/>
<path d="M104.127 497.304C104.127 497.304 106.159 503.404 111.243 506.453C116.328 509.501 118.36 510.521 117.344 511.552C116.328 512.583 114.794 510.026 113.786 511.042C112.777 512.058 114.802 513.078 113.786 514.094C112.769 515.11 111.75 513.078 110.734 514.094C109.717 515.11 114.802 520.195 116.834 521.211C118.866 522.227 120.902 523.243 120.902 524.259C120.902 525.275 117.85 525.275 116.834 524.259C115.818 523.243 114.802 521.211 113.786 522.227C112.769 523.243 113.786 524.259 112.77 524.259C111.753 524.259 111.75 523.243 110.734 524.259C109.717 525.275 112.769 528.328 114.802 529.358C116.834 530.389 125.728 532.425 125.987 534.457C126.183 535.962 123.568 535.962 122.446 535.962C121.325 535.962 121.325 536.326 121.718 537.458C122.111 538.591 121.354 539.327 119.85 539.327C118.346 539.327 115.738 536.712 114.616 536.712C113.494 536.712 113.123 537.83 113.869 538.952C114.616 540.073 124.708 547.176 128.82 549.416C132.932 551.656 137.04 553.528 137.415 555.025C137.791 556.521 133.679 556.893 132.557 556.518C131.435 556.143 130.689 555.771 130.313 556.154C129.938 556.536 129.949 558.397 127.323 558.397C124.697 558.397 122.84 555.782 122.465 555.782C122.09 555.782 122.101 558.022 120.596 558.022C119.092 558.022 118.356 556.154 117.606 556.154C116.856 556.154 116.484 556.904 117.242 558.772C118 560.641 129.946 571.476 134.804 574.466C139.663 577.457 146.018 578.203 146.39 578.953C146.761 579.704 146.025 581.568 141.16 581.94C136.294 582.311 134.433 580.822 134.057 580.447C133.682 580.072 133.329 580.447 133.329 581.568C133.329 582.69 133.329 583.062 131.832 583.062C130.335 583.062 128.846 580.072 128.47 580.447C128.095 580.822 128.471 582.315 127.349 583.437C126.227 584.559 124.734 583.073 123.987 583.073C123.24 583.073 122.865 583.823 123.237 584.57C123.608 585.316 129.964 594.658 138.188 600.639C146.411 606.619 156.5 608.859 156.5 609.609C156.5 610.36 154.256 612.225 151.266 612.225C148.276 612.225 146.783 612.225 146.783 612.589C146.783 612.953 146.036 615.575 143.793 615.204C141.549 614.832 136.319 611.838 135.573 611.838C134.826 611.838 135.937 615.575 133.329 615.95C130.721 616.326 129.217 612.96 128.846 612.96C128.474 612.96 129.574 616.697 126.602 616.326C123.63 615.954 120.25 611.092 119.5 611.092C118.75 611.092 120.25 614.082 118.772 614.457C117.293 614.832 112.791 611.838 112.045 611.838C111.298 611.838 111.68 616.326 109.43 615.95C107.179 615.575 106.064 612.589 104.196 612.589C102.328 612.589 100.834 615.575 99.3375 615.575C97.8406 615.575 98.9733 612.214 97.4691 611.838C95.965 611.463 94.1074 614.457 91.4924 614.457C88.8774 614.457 90.7422 611.092 88.8738 610.717C87.0054 610.341 83.6438 614.082 81.7754 614.082C79.907 614.082 81.0288 611.092 79.5319 610.717C78.035 610.341 75.4199 614.829 73.5515 614.829C71.6832 614.829 73.9158 610.717 72.8231 610.717C71.7305 610.717 68.3397 613.335 66.0962 613.335C63.8527 613.335 64.9745 609.598 63.8527 609.598C62.731 609.598 61.6128 611.838 58.6227 611.467C55.6326 611.095 54.8859 609.97 55.6325 609.223C56.3791 608.477 67.5932 601.375 75.8133 593.526C84.0335 585.677 85.1552 582.69 84.4086 581.568C83.662 580.447 81.7936 583.437 80.2967 583.062C78.7998 582.687 81.047 579.7 79.9325 579.325C78.818 578.95 76.1957 582.69 73.2056 582.69C70.2154 582.69 71.3372 580.822 71.3372 580.072C71.3372 579.321 65.7284 580.822 65.3569 579.343C64.9854 577.864 75.8206 574.86 82.9226 569.626C90.0247 564.392 92.2646 556.547 92.2646 555.421C92.2646 554.296 90.3962 554.675 89.6496 555.421C88.903 556.168 84.791 558.037 84.0408 558.037C83.2905 558.037 82.9227 556.168 82.5476 556.168C82.1724 556.168 81.4258 558.037 79.1823 558.037C76.9388 558.037 77.689 556.543 76.9423 556.168C76.1957 555.793 74.3273 556.168 72.4553 555.804C70.5832 555.44 70.962 554.682 72.4553 554.307C73.9485 553.932 80.6791 551.317 87.406 545.712C94.133 540.106 95.2547 537.491 94.8796 536.745C94.5045 535.998 91.1428 537.863 90.3962 537.863C89.6495 537.863 89.2745 536.369 88.8993 536.369C88.5242 536.369 86.2843 537.863 85.5377 537.491C84.7911 537.12 86.2843 535.248 85.9019 534.876C85.5195 534.505 81.047 535.605 81.4185 534.512C81.79 533.419 85.9019 533.39 90.0138 530.775C94.1257 528.16 98.2376 523.673 97.8624 522.926C97.4873 522.18 95.2474 524.795 94.1257 524.423C93.0039 524.052 93.0039 523.301 92.6288 523.673C92.2537 524.044 91.8821 524.795 91.1355 524.795C90.3889 524.795 91.4997 523.301 90.4071 523.673C89.3145 524.044 87.7885 524.423 87.7885 523.673C87.7885 522.923 90.032 521.805 94.5154 518.068C98.9988 514.331 98.2558 510.969 98.2558 510.969C98.2558 510.969 95.6371 512.462 94.8905 512.087C94.1439 511.712 94.8905 510.594 94.1439 510.594C93.3973 510.594 90.7786 510.958 91.1537 510.23C91.5289 509.501 94.1439 510.594 98.6273 505.746C103.111 500.899 102.994 497.18 104.127 497.304Z" fill="#305937"/>
<path d="M32.5285 127.557C35.1727 127.513 36.9282 149.548 38.4651 149.646C40.0021 149.745 44.4418 142.854 45.8148 144.125C47.1879 145.396 39.6233 153.991 39.8091 157C39.9948 160.008 41.1457 160.172 42.1145 159.236C43.0833 158.3 45.6546 153.649 46.5906 154.618C47.5266 155.587 43.8554 160.445 42.5552 163.723C41.2549 167.001 41.4225 170.006 43.127 168.935C44.8315 167.864 48.2259 161.545 49.1728 162.514C50.1198 163.483 46.6234 169.434 45.8695 171.474C45.1156 173.513 45.8076 175.283 47.3773 173.477C48.947 171.67 58.3036 160.467 59.5309 160.999C60.7583 161.531 58.034 167.351 55.328 171.266C52.6219 175.181 46.1463 181.3 45.8804 184.014C45.6145 186.727 46.2446 188.122 47.8216 186.319C49.3987 184.516 60.4123 174.14 61.3483 175.109C62.2843 176.077 58.5148 182.466 55.6776 185.642C52.8404 188.818 49.3003 194.405 49.2675 196.31C49.2348 198.214 49.0709 199.387 52.7785 196.809C56.4861 194.23 61.8837 190.584 65.89 187.572C69.8963 184.56 70.8323 181.351 71.7173 181.952C72.6023 182.553 72.9884 184.76 70.2168 188.304C67.4452 191.848 60.3831 198.841 60.4997 199.577C60.6162 200.312 62.1059 200.043 65.646 198.637C69.1861 197.231 72.2964 195.523 72.7334 195.822C73.1705 196.12 70.0638 202.013 65.0195 205.59C59.9752 209.166 57.302 211.18 58.9409 213.919C60.5799 216.658 64.1564 213.348 67.4962 210.834C70.8359 208.321 73.6075 204.781 74.478 205.371C75.3485 205.961 69.3391 214.666 70.1403 214.899C70.9416 215.132 73.4509 214.298 77.3917 210.918C81.3324 207.538 83.219 205.295 83.7726 206.333C84.3262 207.371 83.5431 211.312 79.3001 215.129C75.0571 218.946 68.7381 223.895 68.9457 224.995C69.1533 226.095 70.8869 227.301 75.3958 224.959C79.9047 222.617 84.45 218.366 85.0182 219.401C85.5863 220.435 81.3142 226.157 77.9744 228.666C74.6346 231.176 72.1945 232.381 72.3292 233.117C72.464 233.853 75.6071 234.417 82.2539 231.296C88.9007 228.175 90.474 226.376 91.0422 227.41C91.6103 228.444 88.6421 235.058 82.527 236.945C76.412 238.832 73.5384 239.728 73.2361 240.161C72.9338 240.594 72.005 243.803 67.66 244.98C63.315 246.156 55.725 244.12 51.7478 245.227C47.7707 246.334 45.6692 249.376 40.0203 249.649C34.3714 249.922 35.2055 248.25 31.8948 248.855C28.5842 249.459 9.73638 250.243 9.46687 248.771C9.19735 247.3 28.9848 243.308 30.6893 242.237C32.3938 241.166 30.6529 239.964 27.1419 239.465C23.6309 238.966 0.529214 231.03 0.554709 229.125C0.580203 227.221 10.9528 229.887 17.5377 230.582C24.1226 231.278 27.6991 232.145 28.2345 230.906C28.7699 229.668 24.8911 229.238 18.3353 226.638C11.7796 224.037 6.46579 221.969 7.36903 220.661C8.27226 219.353 14.8244 221.961 20.7391 223.159C26.6539 224.358 27.7611 224.154 27.925 222.985C28.0888 221.816 18.1933 217.543 18.7942 216.677C19.3952 215.81 25.8162 217.671 28.9593 218.239C32.1024 218.807 33.694 219.27 33.8069 217.733C33.9198 216.196 27.5535 214.695 22.0029 213.431C16.4524 212.167 5.75195 207.662 5.78473 205.757C5.81751 203.853 13.9758 206.919 19.0893 207.884C24.2027 208.849 26.5446 209.181 26.2751 207.709C26.0056 206.238 21.7261 203.601 17.5814 201.7C13.4367 199.799 10.0241 197.763 10.188 196.601C10.3519 195.439 21.2891 199.132 22.1231 197.461C22.9571 195.789 20.4805 194.718 15.9316 190.613C11.3826 186.509 10.3118 184.786 10.9128 183.93C11.5137 183.074 31.1773 195.046 32.7179 195.144C34.2585 195.242 34.1529 192.595 32.412 191.4C30.6711 190.205 16.7292 182.488 17.3302 181.621C17.9311 180.754 27.1637 185.522 28.4967 184.535C29.8297 183.548 19.0966 176.755 19.6975 175.884C20.2984 175.014 33.4427 182.491 34.4115 181.555C35.3803 180.619 35.7117 178.277 33.1003 176.478C30.489 174.679 14.9737 164.59 15.9425 163.654C16.9113 162.718 31.8256 169.482 33.5665 170.694C35.3074 171.907 33.4937 166.145 31.6217 164.211C29.7496 162.277 21.6569 159.571 22.6913 159.003C23.7256 158.435 30.1794 158.395 32.2189 159.163C34.2585 159.932 35.4604 158.191 33.8178 155.452C32.1752 152.713 20.1054 142.759 20.3421 141.976C20.5788 141.193 31.3776 148.317 32.412 147.749C33.4463 147.181 30.2559 127.597 32.5285 127.557Z" fill="#305937"/>
<path d="M75.4449 377.551C75.4449 377.551 78.435 383.528 82.1718 385.771C82.1718 386.5 78.0635 384.278 77.6884 385.024C77.3132 385.771 84.0401 392.873 86.6587 394.367C85.9085 395.488 81.4251 392.873 81.0536 393.62C80.6821 394.367 87.4054 401.094 90.767 403.337C89.2738 404.83 83.2935 401.094 82.922 401.84C82.5505 402.587 93.3857 415.294 96.7619 416.791C96.3977 417.909 88.5418 414.548 88.1666 415.294C87.7915 416.041 98.2588 430.227 101.62 432.485C100.874 433.982 93.7717 429.124 93.0251 430.617C92.2785 432.11 105.732 446.686 109.094 448.554C108.347 449.676 96.762 445.939 96.3905 447.061C96.019 448.183 107.972 463.505 113.206 466.121C112.842 467.617 101.245 462.384 100.499 463.877C99.752 465.37 115.067 479.95 119.933 482.565C119.933 484.433 101.245 479.575 100.874 480.696C100.502 481.818 115.442 492.654 119.933 494.901C119.933 496.398 79.1962 489.671 76.5921 489.671C73.988 489.671 31.372 495.647 30.2539 494.154C38.4741 491.164 50.431 482.944 50.0595 481.447C49.688 479.95 31.0005 484.812 30.2539 482.944C40.7176 476.588 52.3031 465.753 51.5528 464.631C50.8025 463.509 38.0989 467.993 37.7129 466.124C49.2983 457.904 55.275 448.187 54.9035 447.065C54.532 445.943 42.1963 450.802 41.4497 448.558C53.0351 439.963 59.3869 432.864 59.0154 431.367C58.6439 429.87 48.9232 434.357 48.5481 432.489C56.7719 425.762 63.1164 416.795 62.7522 415.673C62.388 414.551 54.5284 417.913 54.1569 416.42C62.3771 410.815 67.6107 404.087 66.8605 403.341C66.1102 402.594 60.5087 405.209 59.762 403.705C64.2454 400.715 70.2257 395.11 70.2257 393.988C70.2257 392.866 64.9921 395.485 64.6206 394.352C69.104 390.615 72.4656 386.503 72.4656 385.757C72.4656 385.01 69.8506 386.485 69.4791 385.392C73.2049 382.406 75.4449 377.551 75.4449 377.551Z" fill="#305937"/>
<path d="M205.121 225.676C205.121 225.676 202.135 231.653 198.394 233.896C198.394 234.625 202.506 232.403 202.881 233.149C203.256 233.896 196.526 240.998 193.911 242.492C194.657 243.613 199.144 240.998 199.516 241.745C199.887 242.492 193.164 249.219 189.799 251.462C191.296 252.955 197.276 249.219 197.647 249.965C198.019 250.712 187.184 263.419 183.808 264.916C184.172 266.034 192.028 262.673 192.403 263.419C192.778 264.166 182.311 278.352 178.949 280.61C179.696 282.107 186.798 277.249 187.544 278.742C188.291 280.235 174.837 294.811 171.476 296.679C172.222 297.801 183.808 294.064 184.179 295.186C184.551 296.308 172.594 311.63 167.364 314.246C167.728 315.742 179.321 310.509 180.071 312.002C180.821 313.495 165.503 328.075 160.637 330.69C160.637 332.558 179.321 327.7 179.696 328.821C180.071 329.943 165.127 340.779 160.637 343.026C160.637 344.523 201.37 337.796 203.977 337.796C206.585 337.796 249.194 343.772 250.316 342.279C242.095 339.289 230.135 331.069 230.51 329.572C230.885 328.075 249.569 332.937 250.316 331.069C239.852 324.713 228.266 313.878 229.013 312.756C229.76 311.634 242.467 316.118 242.853 314.249C231.268 306.029 225.287 296.312 225.662 295.19C226.038 294.068 238.37 298.927 239.116 296.683C227.531 288.088 221.179 280.989 221.551 279.492C221.922 277.995 231.643 282.482 232.014 280.614C223.794 273.887 217.446 264.92 217.81 263.798C218.174 262.676 226.034 266.038 226.405 264.545C218.185 258.94 212.952 252.212 213.698 251.466C214.445 250.719 220.054 253.334 220.8 251.83C216.317 248.84 210.337 243.235 210.337 242.113C210.337 240.991 215.57 243.61 215.942 242.477C211.458 238.74 208.093 234.628 208.093 233.882C208.093 233.135 210.712 234.61 211.083 233.517C207.365 230.531 205.121 225.676 205.121 225.676Z" fill="#45684A"/>
<path d="M191.76 323.791C195.883 324.017 193.49 342.927 199.368 354.385C205.246 365.843 205.235 368.462 211.023 372.712C209.686 376.671 200.096 372.621 200.096 372.621C200.096 372.621 204.234 383.045 215.317 387.314C214.406 390.956 203.152 390.442 203.152 390.442C203.152 390.442 208.084 400.608 217.272 402.33C216.362 405.973 203.888 406.038 203.888 406.038C203.888 406.038 209.559 416.309 216.737 418.873C214.978 423.149 204.573 422.002 204.573 422.002C204.573 422.002 210.305 429.26 218.911 432.411C218.154 437.586 194.542 433.751 194.542 433.751C194.542 433.751 194.684 437.925 197.004 440.154C194.455 442.048 178.28 428.725 178.28 428.725C178.28 428.725 170.413 441.17 166.349 440.577C166.52 436.822 166.819 427.046 166.819 427.046C166.819 427.046 152.349 438.147 149.337 435.423C152.997 431.052 155.084 424.555 155.084 424.555C155.084 424.555 141.004 430.426 138.902 426.718C144.252 423.724 151.413 416.087 151.413 416.087C151.413 416.087 136.844 415.081 137.427 411.017C147.104 409.411 154.472 402.935 154.472 402.935C154.472 402.935 145.119 402.323 144.977 398.146C153.97 396.062 161.771 386.633 161.771 386.633C161.771 386.633 149.93 387.54 149.785 383.355C157.721 380.74 165.038 374.635 165.038 374.635C165.038 374.635 155.74 373.648 156.388 369.212C168.338 367.562 174.598 360.926 174.598 360.926C174.598 360.926 163.81 362.383 164.138 360.151C168.104 358.843 178.007 353.118 182.115 343.142C186.224 333.166 187.637 323.565 191.76 323.791Z" fill="#406632"/>
<path d="M131.218 355.047C131.218 355.047 134.131 360.874 137.773 363.06C137.773 363.788 133.767 361.603 133.403 362.331C133.039 363.06 139.594 369.98 142.144 371.437C141.415 372.529 137.045 369.98 136.681 370.708C136.317 371.437 142.872 377.992 146.15 380.178C144.693 381.635 138.866 377.992 138.502 378.721C138.138 379.449 148.7 391.833 151.977 393.289C151.613 394.382 143.965 391.104 143.601 391.833C143.236 392.561 153.434 406.401 156.712 408.586C155.984 410.043 149.064 405.309 148.335 406.765C147.607 408.222 160.718 422.427 163.996 424.248C163.268 425.34 151.977 421.698 151.613 422.791C151.249 423.883 162.904 438.816 168.003 441.366C167.638 442.823 156.348 437.724 155.62 439.181C154.891 440.637 169.824 454.842 174.558 457.391C174.558 459.212 156.348 454.478 155.984 455.57C155.62 456.663 170.188 467.225 174.558 469.41C174.558 470.867 134.86 464.311 132.31 464.311C129.761 464.311 88.2411 470.139 87.1484 468.682C95.161 465.768 106.816 457.755 106.451 456.299C106.087 454.842 87.8769 459.577 87.1484 457.755C97.3463 451.564 108.637 441.002 107.908 439.909C107.18 438.816 94.7968 443.187 94.4326 441.366C105.723 433.353 111.55 423.883 111.186 422.791C110.822 421.698 98.8031 426.433 98.0747 424.248C109.365 415.871 115.557 408.951 115.192 407.494C114.828 406.037 105.359 410.408 104.995 408.586C113.007 402.031 119.199 393.289 118.835 392.197C118.47 391.104 110.822 394.382 110.458 392.925C118.47 387.462 123.569 380.906 122.841 380.178C122.112 379.449 116.649 381.999 115.921 380.542C120.291 377.628 126.119 372.165 126.119 371.072C126.119 369.98 121.02 372.529 120.656 371.437C125.026 367.794 128.304 363.788 128.304 363.06C128.304 362.331 125.754 363.788 125.39 362.695C129.032 359.782 131.218 355.047 131.218 355.047Z" fill="#305937"/>
<path d="M155.705 448.352C159.828 448.577 157.435 467.487 163.313 478.946C169.192 490.404 169.181 493.023 174.968 497.273C173.631 501.232 164.042 497.182 164.042 497.182C164.042 497.182 168.179 507.606 179.262 511.874C178.351 515.516 167.097 515.003 167.097 515.003C167.097 515.003 172.029 525.168 181.218 526.891C180.307 530.533 167.833 530.599 167.833 530.599C167.833 530.599 173.504 540.869 180.682 543.434C178.923 547.709 168.518 546.562 168.518 546.562C168.518 546.562 174.251 553.821 182.857 556.971C182.099 562.147 158.488 558.312 158.488 558.312C158.488 558.312 158.63 562.486 160.95 564.715C158.4 566.608 142.226 553.286 142.226 553.286C142.226 553.286 134.359 565.731 130.294 565.137C130.465 561.382 130.764 551.606 130.764 551.606C130.764 551.606 116.294 562.708 113.282 559.983C116.942 555.613 119.029 549.115 119.029 549.115C119.029 549.115 104.949 554.986 102.848 551.279C108.198 548.285 115.358 540.647 115.358 540.647C115.358 540.647 100.79 539.642 101.372 535.577C111.05 533.971 118.417 527.495 118.417 527.495C118.417 527.495 109.065 526.884 108.923 522.706C117.915 520.623 125.716 511.193 125.716 511.193C125.716 511.193 113.876 512.1 113.73 507.915C121.666 505.3 128.983 499.196 128.983 499.196C128.983 499.196 119.685 498.209 120.333 493.773C132.283 492.123 138.544 485.487 138.544 485.487C138.544 485.487 127.756 486.944 128.083 484.711C132.05 483.404 141.953 477.678 146.061 467.702C150.169 457.727 151.582 448.126 155.705 448.352Z" fill="#406632"/>
<path d="M168.617 583.015C168.617 583.015 170.598 588.962 175.537 591.934C180.476 594.906 182.457 595.897 181.481 596.888C180.505 597.878 179.004 595.401 178.014 596.392C177.023 597.383 179.004 598.374 178.014 599.364C177.023 600.355 176.032 598.374 175.042 599.364C174.051 600.355 179.004 605.308 180.986 606.284C182.967 607.26 184.948 608.266 184.948 609.256C184.948 610.247 181.976 610.247 180.986 609.256C179.995 608.266 179.004 606.284 178.014 607.275C177.023 608.266 178.014 609.256 177.023 609.256C176.032 609.256 176.032 608.266 175.042 609.256C174.051 610.247 177.023 613.223 179.004 614.213C180.986 615.204 189.643 617.203 189.905 619.167C190.098 620.623 187.549 620.623 186.456 620.623C185.363 620.623 185.363 620.988 185.728 622.08C186.092 623.173 185.363 623.901 183.907 623.901C182.45 623.901 179.9 621.352 178.808 621.352C177.715 621.352 177.351 622.444 178.079 623.537C178.808 624.63 188.641 631.55 192.648 633.735C196.654 635.92 200.66 637.741 201.024 639.198C201.389 640.655 197.382 641.019 196.29 640.655C195.197 640.291 194.469 639.927 194.104 640.291C193.74 640.655 193.74 642.476 191.191 642.476C188.641 642.476 186.82 639.927 186.456 639.927C186.092 639.927 186.092 642.112 184.635 642.112C183.178 642.112 182.45 640.291 181.721 640.291C180.993 640.291 180.629 641.019 181.357 642.84C182.085 644.662 193.74 655.224 198.475 658.138C203.21 661.051 209.401 661.78 209.765 662.508C210.13 663.237 209.401 665.058 204.666 665.422C199.932 665.786 198.111 664.329 197.746 663.965C197.382 663.601 197.018 663.965 197.018 665.058C197.018 666.15 197.018 666.514 195.561 666.514C194.104 666.514 192.648 663.601 192.283 663.965C191.919 664.329 192.283 665.786 191.191 666.879C190.098 667.971 188.641 666.514 187.913 666.514C187.184 666.514 186.82 667.243 187.184 667.971C187.549 668.7 193.74 677.805 201.753 683.633C209.765 689.46 219.599 691.645 219.599 692.374C219.599 693.102 217.414 694.923 214.5 694.923C211.586 694.923 210.13 694.923 210.13 695.287C210.13 695.652 209.401 698.201 207.216 697.837C205.031 697.473 199.932 694.559 199.203 694.559C198.475 694.559 199.567 698.201 197.018 698.565C194.469 698.93 193.012 695.652 192.648 695.652C192.283 695.652 193.376 699.294 190.462 698.93C187.549 698.565 184.271 693.831 183.542 693.831C182.814 693.831 184.271 696.744 182.814 697.108C181.357 697.473 176.987 694.559 176.258 694.559C175.53 694.559 175.894 698.93 173.709 698.565C171.523 698.201 170.431 695.287 168.61 695.287C166.789 695.287 165.332 698.201 163.875 698.201C162.418 698.201 163.511 694.923 162.054 694.559C160.597 694.195 158.776 697.108 156.227 697.108C153.677 697.108 155.498 693.831 153.677 693.466C151.856 693.102 148.578 696.744 146.757 696.744C144.936 696.744 146.029 693.831 144.572 693.466C143.115 693.102 140.566 697.473 138.745 697.473C136.924 697.473 139.109 693.466 138.016 693.466C136.924 693.466 133.646 696.016 131.461 696.016C129.275 696.016 130.368 692.374 129.275 692.374C128.183 692.374 127.09 694.559 124.176 694.195C121.263 693.831 120.534 692.738 121.263 692.009C121.991 691.281 132.917 684.361 140.93 676.712C148.943 669.064 150.035 666.15 149.307 665.058C148.578 663.965 146.757 666.879 145.3 666.514C143.844 666.15 146.029 663.237 144.936 662.872C143.844 662.508 141.294 666.15 138.381 666.15C135.467 666.15 136.559 664.329 136.559 663.601C136.559 662.872 131.096 664.329 130.732 662.872C130.368 661.415 140.93 658.502 147.85 653.403C154.77 648.304 156.955 640.655 156.955 639.563C156.955 638.47 155.134 638.834 154.406 639.563C153.677 640.291 149.671 642.112 148.943 642.112C148.214 642.112 147.85 640.291 147.486 640.291C147.122 640.291 146.393 642.112 144.208 642.112C142.023 642.112 142.751 640.655 142.023 640.291C141.294 639.927 139.473 640.291 137.652 639.927C135.831 639.563 136.195 638.834 137.652 638.47C139.109 638.106 145.665 635.556 152.22 630.093C158.776 624.63 159.869 622.08 159.505 621.352C159.14 620.623 155.862 622.444 155.134 622.444C154.406 622.444 154.041 620.988 153.677 620.988C153.313 620.988 151.128 622.444 150.399 622.08C149.671 621.716 151.128 619.895 150.764 619.531C150.399 619.167 146.029 620.259 146.393 619.167C146.757 618.074 150.764 618.074 154.77 615.524C158.776 612.975 162.782 608.604 162.418 607.876C162.054 607.147 159.869 609.697 158.776 609.333C157.684 608.969 157.684 608.24 157.319 608.604C156.955 608.969 156.591 609.697 155.862 609.697C155.134 609.697 156.227 608.24 155.134 608.604C154.041 608.969 152.585 609.333 152.585 608.604C152.585 607.876 154.77 606.783 159.14 603.141C163.511 599.499 162.782 596.221 162.782 596.221C162.782 596.221 160.233 597.678 159.505 597.314C158.776 596.949 159.505 595.857 158.776 595.857C158.048 595.857 155.498 596.221 155.862 595.493C156.227 594.764 158.776 595.857 163.147 591.122C167.517 586.387 167.514 582.898 168.617 583.015Z" fill="#406632"/>
<path d="M69.2236 609.012C69.2236 609.012 66.6523 613.794 63.4399 615.586C63.4399 616.183 66.9764 614.391 67.2969 614.988C67.6174 615.586 61.8338 621.264 59.5867 622.459C60.2277 623.354 64.0846 621.264 64.4052 621.861C64.7257 622.459 58.9421 627.834 56.0502 629.63C57.3359 630.825 62.4785 627.834 62.799 628.435C63.1195 629.036 53.803 639.191 50.9112 640.385C51.2317 641.281 57.9805 638.593 58.301 639.191C58.6215 639.788 49.6256 651.144 46.7338 652.936C47.3784 654.131 53.4826 650.244 54.1236 651.443C54.7646 652.641 43.1973 664.289 40.3092 665.785C40.9502 666.681 50.9113 663.691 51.2354 664.587C51.5596 665.483 41.2779 677.735 36.7799 679.826C37.1004 681.024 47.0579 676.839 47.7062 678.034C48.3545 679.229 35.1775 690.884 31 692.967C31 694.46 47.0616 690.578 47.3894 691.474C47.7171 692.37 34.857 701.034 31 702.826C31 704.024 66.0185 698.645 68.2693 698.645C70.5202 698.645 107.141 703.423 108.106 702.229C101.037 699.84 90.7556 693.266 91.0797 692.071C91.4039 690.876 107.469 694.759 108.106 693.266C99.1105 688.185 89.1494 679.52 89.7941 678.624C90.4387 677.728 101.361 681.316 101.682 679.819C91.7207 673.263 86.5818 665.476 86.9023 664.58C87.2228 663.684 97.8285 667.57 98.4695 665.778C88.5084 658.906 83.0453 653.227 83.3695 652.033C83.6936 650.838 92.0413 654.422 92.3654 652.929C85.2961 647.549 79.833 640.378 80.1535 639.482C80.474 638.586 87.2228 641.274 87.5433 640.079C80.4777 635.599 75.9797 630.22 76.6171 629.623C77.2544 629.025 82.0802 631.116 82.7212 629.921C78.8679 627.528 73.7253 623.049 73.7253 622.153C73.7253 621.257 78.2232 623.347 78.5437 622.451C74.6904 619.461 71.7986 616.176 71.7986 615.579C71.7986 614.981 74.0457 616.176 74.3698 615.28C71.1502 612.898 69.2236 609.012 69.2236 609.012Z" fill="#305937"/>
</svg>
