<svg width="174" height="309" viewBox="0 0 174 309" fill="none" xmlns="http://www.w3.org/2000/svg">
<path d="M29.3672 159.786C40.3022 164.119 54.5383 178.768 54.5383 178.768C54.5383 178.768 64.2354 182.688 72.4882 178.974C72.4882 178.974 96.4214 157.517 104.468 153.597C93.9455 153.803 81.36 163.087 81.36 163.087C81.36 163.087 84.8674 143.899 101.167 127.188C85.6927 131.108 72.2819 160.199 72.2819 160.199C72.2819 160.199 72.9008 142.662 79.7094 132.964C68.3618 141.424 64.029 160.611 64.029 160.611C64.029 160.611 54.7446 151.327 47.936 136.678C51.0308 152.152 56.8078 169.071 56.8078 169.071C56.8078 169.071 41.5401 157.929 29.3672 159.786Z" fill="#7FA024"/>
<path d="M108.391 123.267C117.881 127.394 128.197 144.725 128.197 144.725C128.197 144.725 134.8 117.078 145.941 106.762C140.577 117.49 137.688 143.074 137.688 143.074C137.688 143.074 145.528 125.743 155.432 119.141C148.829 128.219 144.29 152.565 143.465 153.803C142.64 155.041 126.134 161.643 124.484 158.755C122.833 155.866 119.119 138.535 108.391 123.267Z" fill="#7FA024"/>
<path d="M120.773 248.298C132.74 252.424 141.818 267.692 141.818 267.692C141.818 267.692 147.182 252.012 158.324 244.584C149.246 255.725 146.357 270.168 146.77 269.755C147.182 269.342 151.722 262.74 158.324 261.915C154.197 264.803 150.071 272.231 148.833 273.056C147.595 273.882 139.342 274.707 138.104 273.056C136.866 271.406 136.041 261.915 120.773 248.298Z" fill="#7FA024"/>
<path d="M139.754 184.75C151.721 190.115 150.895 195.892 151.721 196.717C152.546 197.542 164.925 198.368 166.163 196.717C167.401 195.067 166.576 188.877 174.003 181.449C166.988 183.513 163.274 190.94 163.274 190.94C163.274 190.94 164.512 180.211 171.115 170.721C162.449 175.26 158.735 185.576 158.735 185.576C156.672 180.624 154.609 172.784 145.531 166.182C153.371 179.386 153.371 188.877 153.371 188.877C153.371 188.877 148.419 183.513 139.754 184.75Z" fill="#7FA024"/>
<path d="M103.441 81.1782C114.995 84.4794 126.137 93.1448 127.787 93.9701C129.438 94.7954 143.88 95.6207 145.118 93.9701C146.356 92.3196 150.895 81.1782 158.323 71.2748C148.419 74.9886 142.642 86.1299 142.642 86.1299C142.642 86.1299 138.103 77.4645 139.341 67.1484C132.739 73.7507 135.627 83.2414 135.627 83.2414C128.827 78.3228 126.962 72.1001 115.821 70.8622C126.962 79.115 126.549 84.892 126.549 84.892C126.549 84.892 112.107 79.115 103.441 81.1782Z" fill="#7FA024"/>
<path d="M104.264 100.158C100.55 105.935 100.137 115.838 99.7247 117.076C99.3121 118.314 87.7581 119.139 86.9329 117.076C86.1076 115.013 84.457 109.649 75.3789 104.284C82.8064 104.284 89.8214 110.474 89.8214 110.474C89.8214 110.474 91.0593 105.11 87.3455 97.6822C90.6466 98.9201 92.2972 103.459 92.2972 103.459C92.2972 103.459 94.773 92.7305 102.613 88.1914C98.4868 94.7937 98.4868 106.348 98.4868 106.348C98.4868 106.348 100.55 100.983 104.264 100.158Z" fill="#7FA024"/>
<path d="M97.6641 210.336C106.742 221.477 105.917 229.73 106.33 230.555C106.742 231.38 122.01 233.443 122.423 232.618C122.835 231.793 123.248 223.127 137.69 216.525C129.437 216.525 123.248 223.127 123.248 223.127C123.248 223.127 121.597 217.763 126.549 211.573C122.835 212.399 121.597 216.525 121.597 216.525C122.835 211.986 123.248 209.098 122.423 200.02C121.185 212.811 115.408 221.064 115.408 221.064C115.408 221.064 116.233 213.224 113.757 207.447C113.757 218.176 111.281 222.715 111.281 222.715C111.281 222.715 105.504 214.049 97.6641 210.336Z" fill="#7FA024"/>
<path d="M66.5504 3.71377C54.5838 7.84018 45.5056 23.1079 45.5056 23.1079C45.5056 23.1079 40.1413 7.42754 29 0C38.0781 11.1413 40.9666 25.5838 40.554 25.1711C40.1413 24.7585 35.6023 18.1562 29 17.3309C33.1264 20.2194 37.2528 27.647 38.4907 28.4722C39.7287 29.2975 47.9815 30.1228 49.2194 28.4722C50.4573 26.8217 51.2826 17.3309 66.5504 3.71377Z" fill="#7FA024"/>
<path d="M78.925 277.596C66.9584 282.961 67.7837 288.738 66.9584 289.563C66.1331 290.388 53.7539 291.213 52.516 289.563C51.278 287.912 52.1033 281.723 44.6758 274.295C51.6907 276.358 55.4045 283.786 55.4045 283.786C55.4045 283.786 54.1665 273.057 47.5643 263.566C56.2297 268.105 59.9435 278.421 59.9435 278.421C62.0067 273.47 64.0699 265.63 73.148 259.027C65.3078 272.232 65.3078 281.723 65.3078 281.723C65.3078 281.723 70.2595 276.358 78.925 277.596Z" fill="#7FA024"/>
<path d="M40.0716 76.2772C34.2368 79.372 26.6401 89.8282 26.6401 89.8282C26.6401 89.8282 21.4656 92.6259 17.0627 89.9767C17.0627 89.9767 4.29147 74.6555 0 71.8578C5.61605 72.0063 12.3297 78.6333 12.3297 78.6333C12.3297 78.6333 10.4563 64.9336 1.76199 53C10.0189 55.7977 17.1741 76.5701 17.1741 76.5701C17.1741 76.5701 16.844 64.0464 13.2128 57.1264C19.2662 63.1675 21.577 76.8671 21.577 76.8671C21.577 76.8671 26.5287 70.2402 30.1641 59.7798C28.5135 70.8262 25.4311 82.9082 25.4311 82.9082C25.4311 82.9082 33.5766 74.9485 40.0716 76.2772Z" fill="#7FA024"/>
<path d="M24.6365 285.691C24.3642 282.134 18.0714 282.683 18.0714 287.334C16.4291 284.598 9.04283 285.691 10.4087 290.618C3.29474 290.891 4.66059 299.647 9.58752 298.553C4.66059 301.562 9.03873 307.582 12.5957 304.297C11.5022 308.948 18.8884 309.224 19.9819 305.667C20.5307 308.952 28.4659 310.318 28.1894 304.574C29.8317 308.403 35.8521 306.765 34.7545 301.838C37.7627 304.025 43.2385 297.732 36.6692 294.724C41.0473 290.618 36.1204 284.602 32.0187 288.159C34.214 284.049 27.1 280.492 24.6365 285.691Z" fill="#C1D375"/>
<path d="M17.2505 297.457C17.6672 299.405 28.7425 299.644 27.649 295.542C26.5514 291.437 16.4293 293.628 17.2505 297.457Z" fill="#7FA024"/>
</svg>
