<svg width="768" height="738" viewBox="0 0 768 738" fill="none" xmlns="http://www.w3.org/2000/svg">
<path d="M-25.5037 113.75C-25.5037 113.75 -27.1391 67.4208 -26.9904 67.369C29.6404 48.1948 94.9479 30.8343 205.837 43.7899C250.642 49.0239 320.677 77.4744 372.39 69.0455C432.033 59.3184 490.76 48.0341 535.755 35.7574C642.261 6.69544 794 0 794 0V50.0085C794 50.0085 503.487 21.5063 384.545 128.778C231.254 75.4015 -25.5037 113.75 -25.5037 113.75Z" fill="#7FA024"/>
<path d="M794.004 258.594C794.004 258.594 677.442 269.217 637.002 281.362C596.562 293.506 495.164 319.485 387.82 309.418C316.797 302.759 241.82 298.062 207.922 296.683C131.502 293.574 -22.2291 310.416 -22.2291 310.416L-25.5 425.98C281.071 506.304 692.309 435.715 794.004 421.057V258.594Z" fill="#7FA024"/>
<path d="M793.998 60.4534C793.998 60.4534 723.526 48.1949 629.86 53.3771C536.194 58.5593 442.527 81.8794 442.527 81.8794C442.527 81.8794 358.079 153.708 298.014 113.75C208.808 54.4135 -25.5054 123.91 -25.5054 123.91L-26.9922 224.489C-26.9922 224.489 246.275 182.156 309.611 203.921C372.947 225.686 465.721 219.209 524.597 200.293C583.473 181.378 678.411 168.7 709.443 181.637C740.475 194.575 793.998 215.021 793.998 215.021V60.4534Z" fill="#7FA024"/>
<path opacity="0.21" d="M-25.5054 134.737C-25.5054 134.737 38.4254 110.121 97.3012 108.048C156.177 105.975 333.696 137.069 385.436 134.737C437.175 132.405 534.921 68.899 638.59 66.0592C742.259 63.2193 793.998 79.2868 793.998 79.2868V388.925C793.998 388.925 594.177 431.679 380.976 430.901C167.774 430.124 -25.5054 372.342 -25.5054 372.342C-25.5054 372.342 161.529 445.152 306.043 448.521C450.556 451.889 589.717 425.46 589.717 425.46C589.717 425.46 398.817 464.327 271.55 459.922C144.283 455.517 -26.9922 408.099 -26.9922 408.099L-25.5054 134.737Z" fill="#305937"/>
<path opacity="0.21" d="M-25.8028 169.459C-25.8028 169.459 39.9121 146.398 98.7879 144.325C157.664 142.253 329.534 168.682 381.273 166.35C433.012 164.018 548.492 104.928 652.161 102.09C755.83 99.253 793.998 122.042 793.998 122.042V345.137C793.998 345.137 594.177 431.68 380.976 430.903C167.774 430.125 -25.5054 372.344 -25.5054 372.344C-25.5054 372.344 161.529 445.154 306.043 448.522C450.556 451.891 589.717 425.461 589.717 425.461C589.717 425.461 398.817 464.328 271.55 459.923C144.283 455.518 -26.9922 408.101 -26.9922 408.101L-25.8028 169.459Z" fill="#305937"/>
<path d="M1.15737 447.433C1.15737 447.433 -0.376581 408.571 -0.237131 408.528C52.8794 392.444 114.134 377.882 218.142 388.749C260.167 393.14 325.856 417.004 374.359 409.934C430.301 401.775 485.384 392.309 527.587 382.011C627.484 357.634 769.807 352.018 769.807 352.018V393.966C769.807 393.966 497.321 370.057 385.761 460.039C241.982 415.266 1.15737 447.433 1.15737 447.433Z" fill="#7FA024"/>
<path d="M769.806 568.93C769.806 568.93 660.477 577.841 622.546 588.028C584.616 598.215 489.511 620.006 388.828 611.562C322.212 605.976 251.888 602.036 220.093 600.88C148.416 598.272 4.22415 612.399 4.22415 612.399L1.15625 709.336C288.703 776.713 674.422 717.502 769.806 705.206V568.93Z" fill="#7FA024"/>
<path d="M769.806 402.726C769.806 402.726 703.706 392.443 615.853 396.79C527.999 401.137 440.145 420.698 440.145 420.698C440.145 420.698 360.938 480.949 304.6 447.432C220.93 397.66 1.15622 455.954 1.15622 455.954L-0.238281 540.322C-0.238281 540.322 256.071 504.812 315.477 523.069C374.883 541.326 461.9 535.892 517.122 520.026C572.344 504.16 661.391 493.525 690.498 504.377C719.604 515.229 769.806 532.38 769.806 532.38V402.726Z" fill="#7FA024"/>
<path opacity="0.21" d="M1.15622 465.037C1.15622 465.037 61.1198 444.389 116.342 442.65C171.564 440.911 338.068 466.993 386.597 465.037C435.125 463.08 526.805 409.811 624.041 407.429C721.277 405.047 769.806 418.524 769.806 418.524V678.254C769.806 678.254 582.385 714.116 382.413 713.464C182.441 712.812 1.15622 664.344 1.15622 664.344C1.15622 664.344 176.585 725.418 312.13 728.244C447.676 731.069 578.201 708.9 578.201 708.9C578.201 708.9 399.147 741.502 279.778 737.807C160.408 734.112 -0.238281 694.338 -0.238281 694.338L1.15622 465.037Z" fill="#305937"/>
<path opacity="0.21" d="M0.87732 494.163C0.87732 494.163 62.5143 474.819 117.737 473.08C172.959 471.341 334.163 493.511 382.692 491.554C431.221 489.598 539.534 440.032 636.77 437.652C734.006 435.272 769.806 454.388 769.806 454.388V641.524C769.806 641.524 582.385 714.118 382.413 713.466C182.441 712.814 1.15622 664.345 1.15622 664.345C1.15622 664.345 176.585 725.42 312.13 728.245C447.676 731.071 578.201 708.901 578.201 708.901C578.201 708.901 399.147 741.503 279.778 737.808C160.408 734.114 -0.238281 694.339 -0.238281 694.339L0.87732 494.163Z" fill="#305937"/>
</svg>
