<svg width="19" height="34" viewBox="0 0 19 34" fill="none" xmlns="http://www.w3.org/2000/svg">
<path id="Vector" d="M13.5424 28.6712C13.5424 28.6712 20.8183 17.2779 17.163 14.95C13.5076 12.6221 8.78344 21.7774 8.78344 21.7774C8.78344 21.7774 14.1564 5.67894 9.28743 4.54541C0.954241 2.60884 -0.441862 21.07 -0.441862 21.07C-0.441862 21.07 -0.27387 -0.487317 -7.85107 0.00842087C-15.4283 0.504159 -8.78663 21.3221 -8.78663 21.3221C-8.78663 21.3221 -10.5245 15.037 -13.9684 16.3213C-17.4124 17.6055 -13.9684 27.6276 -13.9684 27.6276C-13.9684 27.6276 -16.778 21.5135 -19.0952 22.9891C-21.4124 24.4647 -15.5963 33.3736 -15.5963 33.3736L13.5424 28.6712Z" fill="#96C22F"/>
</svg>
