<svg width="1920" height="1879" viewBox="0 0 1920 1879" fill="none" xmlns="http://www.w3.org/2000/svg">
<path d="M-77.1909 289.517C-77.1909 289.517 -81.3542 171.6 -80.9757 171.468C63.188 122.665 229.44 78.4795 511.727 111.454C625.786 124.776 804.073 197.188 935.717 175.735C1087.55 150.977 1237.05 122.257 1351.59 91.0098C1622.72 17.0413 2009 0 2009 0V127.282C2009 127.282 1269.45 54.7378 966.661 327.767C576.432 191.912 -77.1909 289.517 -77.1909 289.517Z" fill="#7FA024"/>
<path d="M2009 658.172C2009 658.172 1712.27 685.211 1609.32 716.121C1506.38 747.032 1248.25 813.152 974.988 787.531C794.187 770.582 603.319 758.626 517.025 755.117C322.485 747.203 -68.8648 790.07 -68.8648 790.07L-77.1914 1084.2C703.238 1288.65 1750.12 1108.98 2009 1071.67V658.172Z" fill="#7FA024"/>
<path d="M2009 153.866C2009 153.866 1829.6 122.665 1591.16 135.855C1352.71 149.045 1114.27 208.399 1114.27 208.399C1114.27 208.399 899.291 391.217 746.384 289.516C519.295 138.493 -77.1917 315.375 -77.1917 315.375L-80.9766 571.37C-80.9766 571.37 614.673 463.622 775.906 519.02C937.139 574.417 1173.31 557.93 1323.19 509.787C1473.07 461.644 1714.75 429.375 1793.75 462.303C1872.75 495.232 2009 547.272 2009 547.272V153.866Z" fill="#7FA024"/>
<path opacity="0.21" d="M-77.1917 342.936C-77.1917 342.936 85.5554 280.284 235.434 275.008C385.313 269.732 837.22 348.871 968.932 342.936C1100.64 337.001 1349.47 175.366 1613.38 168.138C1877.29 160.91 2009 201.805 2009 201.805V989.897C2009 989.897 1500.32 1098.71 957.577 1096.73C414.834 1094.76 -77.1917 947.69 -77.1917 947.69C-77.1917 947.69 398.938 1133.01 766.822 1141.58C1134.71 1150.15 1488.97 1082.89 1488.97 1082.89C1488.97 1082.89 1002.99 1181.81 679.015 1170.6C355.034 1159.39 -80.9766 1038.7 -80.9766 1038.7L-77.1917 342.936Z" fill="#305937"/>
<path opacity="0.21" d="M-77.9487 431.307C-77.9487 431.307 89.3402 372.612 239.219 367.336C389.098 362.06 826.622 429.329 958.334 423.393C1090.05 417.458 1384.02 267.061 1647.93 259.839C1911.84 252.618 2009 310.62 2009 310.62V878.442C2009 878.442 1500.32 1098.71 957.577 1096.73C414.834 1094.76 -77.1917 947.689 -77.1917 947.689C-77.1917 947.689 398.938 1133.01 766.822 1141.58C1134.71 1150.15 1488.97 1082.88 1488.97 1082.88C1488.97 1082.88 1002.99 1181.81 679.015 1170.6C355.034 1159.39 -80.9766 1038.7 -80.9766 1038.7L-77.9487 431.307Z" fill="#305937"/>
<path d="M-9.31786 1138.81C-9.31786 1138.81 -13.2228 1039.9 -12.8678 1039.79C122.35 998.857 278.285 961.793 543.054 989.452C650.036 1000.63 817.26 1061.37 940.734 1043.37C1083.14 1022.61 1223.37 998.514 1330.8 972.303C1585.11 910.257 1947.41 895.963 1947.41 895.963V1002.73C1947.41 1002.73 1253.75 941.878 969.758 1170.9C603.744 1056.94 -9.31786 1138.81 -9.31786 1138.81Z" fill="#7FA024"/>
<path d="M1947.41 1448.05C1947.41 1448.05 1669.1 1470.73 1572.54 1496.66C1475.98 1522.58 1233.87 1578.05 977.566 1556.56C807.985 1542.34 628.961 1532.31 548.022 1529.37C365.554 1522.73 -1.51042 1558.69 -1.51042 1558.69L-9.32031 1805.41C722.679 1976.9 1704.6 1826.19 1947.41 1794.9V1448.05Z" fill="#7FA024"/>
<path d="M1947.41 1025.03C1947.41 1025.03 1779.14 998.859 1555.5 1009.92C1331.85 1020.99 1108.2 1070.77 1108.2 1070.77C1108.2 1070.77 906.566 1224.12 763.148 1138.82C550.151 1012.14 -9.32114 1160.51 -9.32114 1160.51L-12.8711 1375.24C-12.8711 1375.24 639.61 1284.86 790.838 1331.33C942.065 1377.8 1163.58 1363.97 1304.16 1323.58C1444.74 1283.2 1671.42 1256.13 1745.52 1283.75C1819.61 1311.37 1947.41 1355.03 1947.41 1355.03V1025.03Z" fill="#7FA024"/>
<path opacity="0.21" d="M-9.32114 1183.62C-9.32114 1183.62 143.327 1131.07 283.905 1126.64C424.483 1122.22 848.347 1188.6 971.885 1183.62C1095.42 1178.64 1328.81 1043.06 1576.34 1037C1823.87 1030.93 1947.41 1065.24 1947.41 1065.24V1726.3C1947.41 1726.3 1470.3 1817.58 961.235 1815.92C452.172 1814.26 -9.32114 1690.9 -9.32114 1690.9C-9.32114 1690.9 437.263 1846.35 782.318 1853.54C1127.37 1860.73 1459.65 1804.3 1459.65 1804.3C1459.65 1804.3 1003.83 1887.28 699.959 1877.88C396.083 1868.47 -12.8711 1767.24 -12.8711 1767.24L-9.32114 1183.62Z" fill="#305937"/>
<path opacity="0.21" d="M-10.0311 1257.75C-10.0311 1257.75 146.877 1208.52 287.455 1204.09C428.033 1199.67 838.407 1256.09 961.945 1251.11C1085.48 1246.13 1361.22 1119.98 1608.75 1113.92C1856.28 1107.86 1947.41 1156.52 1947.41 1156.52V1632.81C1947.41 1632.81 1470.3 1817.58 961.235 1815.92C452.172 1814.26 -9.32114 1690.9 -9.32114 1690.9C-9.32114 1690.9 437.263 1846.35 782.318 1853.54C1127.37 1860.73 1459.65 1804.3 1459.65 1804.3C1459.65 1804.3 1003.83 1887.28 699.959 1877.88C396.083 1868.47 -12.8711 1767.24 -12.8711 1767.24L-10.0311 1257.75Z" fill="#305937"/>
</svg>
