<svg width="110" height="95" viewBox="0 0 110 95" fill="none" xmlns="http://www.w3.org/2000/svg">
<g id="&#208;&#177;&#209;&#131;&#208;&#180;&#208;&#184;&#208;&#189;&#208;&#190;&#209;&#135;&#208;&#186;&#208;&#184;">
<g id="Group">
<path id="Vector" d="M8.39699 1.31184L18.3997 0.0737518C23.6485 -0.576535 28.4311 3.1457 29.0823 8.38701L39.3976 91.4051L10.3897 95L0.0744098 11.9817C-0.579414 6.73783 3.14817 1.96212 8.39699 1.31184Z" fill="#8A9995"/>
<path id="Vector_2" d="M29.6816 13.393L0.671875 16.9863L0.904025 18.8552L29.9138 15.2619L29.6816 13.393Z" fill="#72645D"/>
<path id="Vector_3" d="M30.959 23.6684L1.94922 27.2617L2.18138 29.1307L31.1911 25.5374L30.959 23.6684Z" fill="#72645D"/>
<path id="Vector_4" d="M32.2363 33.9477L3.22656 37.541L3.45871 39.4099L32.4685 35.8166L32.2363 33.9477Z" fill="#72645D"/>
<path id="Vector_5" d="M33.5137 44.227L4.50391 47.8203L4.73607 49.6893L33.7458 46.096L33.5137 44.227Z" fill="#72645D"/>
<path id="Vector_6" d="M34.7871 54.5063L5.77734 58.0996L6.00951 59.9686L35.0193 56.3753L34.7871 54.5063Z" fill="#72645D"/>
<path id="Vector_7" d="M36.0644 64.7856L7.05469 68.3789L7.28685 70.2479L36.2966 66.6546L36.0644 64.7856Z" fill="#72645D"/>
<path id="Vector_8" d="M37.3418 75.063L8.33203 78.6562L8.56418 80.5251L37.5739 76.9318L37.3418 75.063Z" fill="#72645D"/>
</g>
<g id="Group 245">
<path id="Vector_9" d="M42.1992 63.8929L44.2675 90.1619L76.9926 87.592L72.4523 29.9297L51.5924 43.8172L46.3879 59.6972L42.1992 63.8929Z" fill="#EFE6E4"/>
<path id="Vector_10" d="M40.2268 66.4798L39.3359 65.5512L45.8247 59.3422L51.0501 43.405L72.0949 29.3926L72.8086 30.4643L52.1337 44.227L46.9474 60.0471L40.2268 66.4798Z" fill="#3D3B38"/>
<path id="Vector_11" d="M66.9878 50.9594L59.9297 51.5137L60.4343 57.9212L67.4924 57.3669L66.9878 50.9594Z" fill="white"/>
<path id="Vector_12" d="M60.6506 68.8617L47.1758 69.9199L48.0335 80.8109L61.5083 79.7527L60.6506 68.8617Z" fill="white"/>
<path id="Vector_13" d="M75.4615 68.3433L63.2695 69.3008L63.3704 70.5817L75.5624 69.6243L75.4615 68.3433Z" fill="white"/>
<path id="Vector_14" d="M75.5107 68.9831L64.6016 69.8398L66.0648 88.4193L76.974 87.5626L75.5107 68.9831Z" fill="white"/>
<path id="Vector_15" d="M74.2784 69.7256L65.9375 70.3806L67.2494 87.0385L75.5903 86.3835L74.2784 69.7256Z" fill="#897F7D"/>
<path id="Vector_16" d="M76.1994 85.717L67.0277 69.6758L65.9023 69.7642L76.301 86.9994L76.1994 85.717Z" fill="white"/>
<path id="Vector_17" d="M74.2456 69.1089L66.6758 87.754L67.9574 87.6552L75.1547 69.0388L74.2456 69.1089Z" fill="white"/>
<g id="Group_2">
<path id="Vector_18" d="M53.6925 70.6984L48.5586 71.1016L49.2146 79.4306L54.3484 79.0274L53.6925 70.6984Z" fill="#897F7D"/>
<path id="Vector_19" d="M51.7125 70.2118L50.4297 70.3125L51.1865 79.9224L52.4693 79.8216L51.7125 70.2118Z" fill="white"/>
<path id="Vector_20" d="M54.4839 72.5727L47.4258 73.127L47.5267 74.4079L54.5848 73.8536L54.4839 72.5727Z" fill="white"/>
<path id="Vector_21" d="M54.7339 75.7719L47.6758 76.3262L47.7767 77.6073L54.8348 77.053L54.7339 75.7719Z" fill="white"/>
</g>
<path id="Vector_22" d="M65.8089 52.3406L61.3164 52.6934L61.6191 56.5364L66.1115 56.1836L65.8089 52.3406Z" fill="#897F7D"/>
<path id="Vector_23" d="M63.8328 51.852L63.1914 51.9023L63.5952 57.0289L64.2366 56.9785L63.8328 51.852Z" fill="white"/>
<path id="Vector_24" d="M66.5496 53.5723L60.1328 54.0762L60.1833 54.7176L66.6001 54.2137L66.5496 53.5723Z" fill="white"/>
<g id="Group_3">
<path id="Vector_25" d="M60.1104 70.1906L54.9766 70.5938L55.6325 78.9228L60.7664 78.5196L60.1104 70.1906Z" fill="#897F7D"/>
<path id="Vector_26" d="M58.1344 69.7018L56.8516 69.8027L57.6073 79.4128L58.8901 79.3119L58.1344 69.7018Z" fill="white"/>
<path id="Vector_27" d="M60.9019 72.0629L53.8438 72.6172L53.9446 73.8983L61.0027 73.344L60.9019 72.0629Z" fill="white"/>
<path id="Vector_28" d="M61.1519 75.266L54.0938 75.8203L54.1946 77.1013L61.2527 76.547L61.1519 75.266Z" fill="white"/>
</g>
<path id="Vector_29" d="M106.915 58.8097L108.983 85.0786L76.2551 87.6485L71.7148 29.9863L94.4919 40.4455L102.119 55.3189L106.915 58.8097Z" fill="#EFE6E4"/>
<path id="Vector_30" d="M109.267 61.0576L110.001 60.0042L102.622 54.8826L94.9661 39.9546L71.9858 29.4043L71.4492 30.5723L94.0231 40.9379L101.622 55.754L109.267 61.0576Z" fill="#3D3B38"/>
<path id="Vector_31" d="M80.9146 56.3687L87.9727 55.8145L87.468 49.407L80.4099 49.9612L80.9146 56.3687Z" fill="white"/>
<path id="Vector_32" d="M89.6893 77.5933L103.164 76.5352L102.306 65.6442L88.8315 66.7024L89.6893 77.5933Z" fill="white"/>
<path id="Vector_33" d="M74.8627 69.7331L87.0547 68.7756L86.9538 67.4947L74.7618 68.4521L74.8627 69.7331Z" fill="white"/>
<path id="Vector_34" d="M76.2744 87.6731L87.1836 86.8164L85.7203 68.2369L74.8112 69.0936L76.2744 87.6731Z" fill="white"/>
<path id="Vector_35" d="M77.4599 86.2898L85.8008 85.6348L84.4889 68.9767L76.1479 69.6318L77.4599 86.2898Z" fill="#897F7D"/>
<path id="Vector_36" d="M76.75 85.6732L83.2987 68.3989L84.4214 68.3105L76.849 86.9556L76.75 85.6732Z" fill="white"/>
<path id="Vector_37" d="M76.0771 68.9668L86.4757 86.1994L85.1915 86.3009L75.168 69.0397L76.0771 68.9668Z" fill="white"/>
<g id="Group_4">
<path id="Vector_38" d="M96.6435 75.7586L101.777 75.3555L101.121 67.0265L95.9875 67.4296L96.6435 75.7586Z" fill="#897F7D"/>
<path id="Vector_39" d="M98.6234 76.2472L99.9062 76.1465L99.1494 66.5365L97.8666 66.6372L98.6234 76.2472Z" fill="white"/>
<path id="Vector_40" d="M95.6021 70.6871L102.66 70.1328L102.559 68.8518L95.5012 69.4061L95.6021 70.6871Z" fill="white"/>
<path id="Vector_41" d="M95.8521 73.8863L102.91 73.332L102.809 72.0509L95.7512 72.6052L95.8521 73.8863Z" fill="white"/>
</g>
<path id="Vector_42" d="M82.0974 54.9817L86.5898 54.6289L86.2872 50.7859L81.7947 51.1387L82.0974 54.9817Z" fill="#897F7D"/>
<path id="Vector_43" d="M84.0695 55.4722L84.7109 55.4219L84.3072 50.2953L83.6658 50.3457L84.0695 55.4722Z" fill="white"/>
<path id="Vector_44" d="M81.302 53.1113L87.7188 52.6074L87.6682 51.9661L81.2515 52.47L81.302 53.1113Z" fill="white"/>
<g id="Group_5">
<path id="Vector_45" d="M90.2333 76.2606L95.3672 75.8574L94.7112 67.5284L89.5774 67.9316L90.2333 76.2606Z" fill="#897F7D"/>
<path id="Vector_46" d="M92.2094 76.7492L93.4922 76.6484L92.7353 67.0385L91.4525 67.1392L92.2094 76.7492Z" fill="white"/>
<path id="Vector_47" d="M89.188 71.189L96.2461 70.6348L96.1452 69.3538L89.0871 69.9081L89.188 71.189Z" fill="white"/>
<path id="Vector_48" d="M89.4419 74.3883L96.5 73.834L96.3991 72.553L89.341 73.1073L89.4419 74.3883Z" fill="white"/>
</g>
</g>
</g>
</svg>
