<svg width="198" height="171" viewBox="0 0 198 171" fill="none" xmlns="http://www.w3.org/2000/svg">
<path d="M8.15283 97.1552L13.944 170.814L105.575 163.608L92.8621 1.9209L34.454 40.8622L19.8811 85.3902L8.15283 97.1552Z" fill="#EFE6E4"/>
<path d="M2.63118 104.412L0.136719 101.808L18.3054 84.3979L32.9366 39.7093L91.8625 0.417969L93.861 3.42307L35.9708 42.0142L21.449 86.3745L2.63118 104.412Z" fill="#3D3B38"/>
<path d="M77.5671 60.893L57.8042 62.4473L59.2172 80.4141L78.98 78.8599L77.5671 60.893Z" fill="white"/>
<path d="M59.8172 111.094L22.0874 114.062L24.4891 144.6L62.2188 141.633L59.8172 111.094Z" fill="white"/>
<path d="M101.287 109.639L67.1489 112.323L67.4314 115.915L101.569 113.23L101.287 109.639Z" fill="white"/>
<path d="M101.43 111.431L70.8843 113.833L74.9814 165.93L105.527 163.528L101.43 111.431Z" fill="white"/>
<path d="M97.9773 113.514L74.6226 115.351L78.296 162.06L101.651 160.223L97.9773 113.514Z" fill="#897F7D"/>
<path d="M103.358 158.357L77.6768 113.377L74.5259 113.625L103.642 161.953L103.358 158.357Z" fill="white"/>
<path d="M97.8869 111.785L76.6914 164.067L80.2799 163.79L100.432 111.589L97.8869 111.785Z" fill="white"/>
<path d="M40.3403 116.237L25.9653 117.367L27.802 140.722L42.177 139.592L40.3403 116.237Z" fill="#897F7D"/>
<path d="M34.8043 114.865L31.2124 115.147L33.3316 142.094L36.9235 141.811L34.8043 114.865Z" fill="white"/>
<path d="M42.5607 121.488L22.7979 123.042L23.0803 126.634L42.8432 125.08L42.5607 121.488Z" fill="white"/>
<path d="M43.2682 130.464L23.5054 132.019L23.7879 135.611L43.5507 134.057L43.2682 130.464Z" fill="white"/>
<path d="M74.2548 64.7676L61.6758 65.7568L62.5232 76.5328L75.1023 75.5436L74.2548 64.7676Z" fill="#897F7D"/>
<path d="M68.7222 63.3959L66.9263 63.5371L68.0568 77.9121L69.8527 77.7709L68.7222 63.3959Z" fill="white"/>
<path d="M76.3385 68.2169L58.3716 69.6299L58.5128 71.426L76.4797 70.013L76.3385 68.2169Z" fill="white"/>
<path d="M58.3042 114.822L43.9292 115.952L45.7659 139.307L60.1409 138.177L58.3042 114.822Z" fill="#897F7D"/>
<path d="M52.7755 113.448L49.1836 113.73L51.3028 140.677L54.8947 140.395L52.7755 113.448Z" fill="white"/>
<path d="M60.5246 120.071L40.7617 121.625L41.0442 125.217L60.8071 123.663L60.5246 120.071Z" fill="white"/>
<path d="M61.2321 129.056L41.4692 130.61L41.7517 134.202L61.5146 132.648L61.2321 129.056Z" fill="white"/>
<path d="M189.366 82.9047L195.157 156.564L103.519 163.77L90.8057 2.08301L154.582 31.411L175.938 73.1166L189.366 82.9047Z" fill="#EFE6E4"/>
<path d="M195.945 89.2035L198.002 86.2497L177.339 71.8884L155.903 30.0296L91.5577 0.446289L90.0552 3.72134L153.263 32.7869L174.538 74.3319L195.945 89.2035Z" fill="#3D3B38"/>
<path d="M116.557 76.0542L136.32 74.5L134.907 56.5331L115.144 58.0873L116.557 76.0542Z" fill="white"/>
<path d="M141.13 135.579L178.86 132.611L176.458 102.073L138.728 105.04L141.13 135.579Z" fill="white"/>
<path d="M99.6175 113.533L133.755 110.849L133.473 107.257L99.3351 109.941L99.6175 113.533Z" fill="white"/>
<path d="M103.572 163.84L134.118 161.438L130.021 109.34L99.4751 111.742L103.572 163.84Z" fill="white"/>
<path d="M106.884 159.959L130.239 158.122L126.566 111.412L103.211 113.249L106.884 159.959Z" fill="#897F7D"/>
<path d="M104.895 158.232L123.231 109.795L126.375 109.547L105.172 161.828L104.895 158.232Z" fill="white"/>
<path d="M103.012 111.386L132.129 159.707L128.533 159.991L100.467 111.59L103.012 111.386Z" fill="white"/>
<path d="M160.604 130.43L174.979 129.3L173.142 105.945L158.767 107.075L160.604 130.43Z" fill="#897F7D"/>
<path d="M166.14 131.801L169.731 131.519L167.612 104.572L164.02 104.854L166.14 131.801Z" fill="white"/>
<path d="M157.68 116.203L177.442 114.648L177.16 111.057L157.397 112.611L157.68 116.203Z" fill="white"/>
<path d="M158.383 125.181L178.146 123.627L177.863 120.035L158.101 121.589L158.383 125.181Z" fill="white"/>
<path d="M119.862 72.1729L132.441 71.1836L131.593 60.4076L119.014 61.3968L119.862 72.1729Z" fill="#897F7D"/>
<path d="M125.398 73.5436L127.194 73.4023L126.063 59.0274L124.267 59.1686L125.398 73.5436Z" fill="white"/>
<path d="M117.649 66.9306L135.616 65.5176L135.474 63.7218L117.508 65.1348L117.649 66.9306Z" fill="white"/>
<path d="M142.644 131.839L157.019 130.709L155.182 107.354L140.807 108.485L142.644 131.839Z" fill="#897F7D"/>
<path d="M148.173 133.212L151.765 132.93L149.645 105.983L146.054 106.265L148.173 133.212Z" fill="white"/>
<path d="M139.713 117.614L159.476 116.06L159.193 112.468L139.43 114.022L139.713 117.614Z" fill="white"/>
<path d="M140.428 126.592L160.19 125.038L159.908 121.446L140.145 123L140.428 126.592Z" fill="white"/>
</svg>
