<svg width="111" height="267" viewBox="0 0 111 267" fill="none" xmlns="http://www.w3.org/2000/svg">
<path d="M23.5118 3.67844L51.5197 0.206803C66.2165 -1.61663 79.6078 8.82065 81.4312 23.5175L110.314 256.304L29.0915 266.384L0.208349 33.5973C-1.62237 18.8932 8.81495 5.50187 23.5118 3.67844Z" fill="#8A9995"/>
<path d="M83.1065 37.5522L1.87842 47.6279L2.52844 52.8683L83.7565 42.7925L83.1065 37.5522Z" fill="#72645D"/>
<path d="M86.687 66.3676L5.45898 76.4434L6.10905 81.684L87.3371 71.6083L86.687 66.3676Z" fill="#72645D"/>
<path d="M90.2603 95.1938L9.03223 105.27L9.68225 110.51L90.9103 100.434L90.2603 95.1938Z" fill="#72645D"/>
<path d="M93.834 124.012L12.606 134.088L13.256 139.329L94.4841 129.253L93.834 124.012Z" fill="#72645D"/>
<path d="M97.4038 152.838L16.1758 162.914L16.8259 168.155L98.0539 158.079L97.4038 152.838Z" fill="#72645D"/>
<path d="M100.981 181.664L19.7529 191.739L20.403 196.98L101.631 186.904L100.981 181.664Z" fill="#72645D"/>
<path d="M104.558 210.479L23.3301 220.555L23.9801 225.795L105.208 215.719L104.558 210.479Z" fill="#72645D"/>
</svg>
