<svg width="165" height="244" viewBox="0 0 165 244" fill="none" xmlns="http://www.w3.org/2000/svg">
<path d="M134.32 174.871C134.082 174.871 133.886 175.109 133.878 174.871C133.87 174.636 133.225 148.813 133.878 138.116C134.531 127.439 136.941 91.3103 136.964 90.9479C136.98 90.7046 137.192 90.5222 137.432 90.5381C137.676 90.5539 137.858 90.7655 137.842 91.0061C137.819 91.3711 135.409 127.495 134.756 138.168C134.103 148.824 134.751 174.633 134.756 174.868C134.764 175.112 134.571 174.861 134.328 174.868C134.328 174.871 134.325 174.871 134.32 174.871Z" fill="#EAB83D"/>
<path d="M145.78 123.598C140.049 131.532 135.863 174.872 135.863 174.872H130.793C130.793 174.872 134.979 132.857 145.78 123.598Z" fill="#7FA024"/>
<path d="M128.148 131.752C133.438 137.483 135.863 174.871 135.863 174.871H130.793C130.793 174.871 132.335 145.636 128.148 131.752Z" fill="#7FA024"/>
<path d="M153.715 145.637C137.847 150.046 138.286 174.871 138.286 174.871H133.547C133.55 174.871 134.541 143.873 153.715 145.637Z" fill="#7FA024"/>
<path d="M119.773 156.877C132.116 159.08 134.43 174.871 134.43 174.871H128.149C128.149 174.871 128.149 163.269 119.773 156.877Z" fill="#7FA024"/>
<path d="M139.168 96.265C139.757 97.8359 139.387 109.93 138.726 112.133C138.065 114.336 134.979 115.439 133.878 112.575C132.776 109.71 133.659 99.7903 134.32 97.3678C134.979 94.9426 138.507 94.5036 139.168 96.265Z" fill="#4E5E0B"/>
<path d="M131.54 132.645C126.031 142.784 126.47 172.016 126.47 172.016H120.52C120.52 172.018 120.961 138.156 131.54 132.645Z" fill="#7FA024"/>
<path d="M108.617 140.582C115.229 144.549 120.518 172.019 120.518 172.019H114.568C114.568 172.019 113.684 151.161 108.617 140.582Z" fill="#7FA024"/>
<path d="M120.082 172.019C120.003 171.543 112.135 122.13 110.408 117.597C110.321 117.37 110.435 117.116 110.662 117.029C110.89 116.942 111.143 117.055 111.231 117.283C112.426 120.419 116.332 142.534 118.818 157.011C117.808 146.609 116.499 132.561 116.11 125.841C115.457 114.498 115.666 82.278 115.668 81.9527C115.671 81.7094 115.867 81.5137 116.11 81.5137H116.113C116.356 81.5163 116.552 81.7146 116.552 81.958C116.549 82.2806 116.34 114.474 116.991 125.791C117.644 137.11 120.923 171.697 120.955 172.019H120.082Z" fill="#EAB83D"/>
<path d="M122.72 172.019C122.538 172.019 122.366 172.202 122.302 172.019C119.221 162.993 124.27 114.297 124.484 112.321C124.51 112.081 124.727 111.906 124.971 111.93C125.211 111.956 125.389 112.173 125.362 112.417C125.309 112.898 120.118 163.176 123.138 172.017C123.217 172.247 123.093 171.937 122.863 172.017C122.815 172.035 122.768 172.019 122.72 172.019Z" fill="#EAB83D"/>
<path d="M118.753 87.4642C119.687 89.5667 119.195 101.571 118.753 104.435C118.311 107.299 113.683 108.402 113.022 104.435C112.361 100.468 112.803 90.5505 113.464 88.1253C114.125 85.7002 117.872 85.4807 118.753 87.4642Z" fill="#4E5E0B"/>
<path d="M126.029 117.22C126.029 120.119 125.148 127.799 124.926 130.666C124.706 133.53 120.739 134.852 120.517 131.107C120.298 127.36 121.84 118.984 122.501 117.223C123.162 115.461 126.029 115.676 126.029 117.22Z" fill="#4E5E0B"/>
<path d="M113.244 122.068C114.241 123.065 116.33 131.766 116.55 135.292C116.743 138.378 113.686 139.92 112.141 137.056C110.597 134.191 109.277 126.477 109.497 124.271C109.716 122.068 112.141 120.968 113.244 122.068Z" fill="#4E5E0B"/>
<path d="M126.025 128.9C123.161 136.615 122.831 172.019 122.831 172.019H117.652C117.65 172.019 118.091 133.306 126.025 128.9Z" fill="#7FA024"/>
<path d="M162.469 147.672C186.014 147.564 191.978 187.144 191.978 187.144L185.181 186.377C185.181 186.377 181.283 156.029 162.469 147.672Z" fill="#7FA024"/>
<path d="M95.4541 126.633C88.9482 136.162 86.4331 165.292 86.4331 165.292L80.5117 164.692C80.5117 164.689 84.3703 131.047 95.4541 126.633Z" fill="#7FA024"/>
<path d="M71.8477 132.211C78.0256 136.826 80.5116 164.69 80.5116 164.69L74.5902 164.09C74.5902 164.09 75.8199 143.25 71.8477 132.211Z" fill="#7FA024"/>
<path d="M80.0785 164.647C80.0467 164.166 77.2143 114.211 75.9528 109.525C75.8893 109.289 76.0295 109.049 76.2648 108.985C76.5002 108.922 76.7409 109.062 76.8044 109.297C77.6771 112.537 79.3274 134.935 80.3376 149.589C80.3826 139.14 80.499 125.028 80.7925 118.305C81.2871 106.954 84.7542 74.9194 84.7886 74.5967C84.815 74.356 85.0293 74.1815 85.2726 74.2053H85.2752C85.5185 74.2317 85.6931 74.4486 85.6666 74.6919C85.6322 75.0145 82.1703 107.02 81.6758 118.345C81.1812 129.672 80.9485 164.412 80.9485 164.74L80.0785 164.647Z" fill="#EAB83D"/>
<path d="M82.705 164.912C82.5226 164.893 82.3348 165.057 82.2898 164.869C80.1344 155.579 90.0784 107.642 90.4936 105.698C90.5438 105.46 90.7765 105.309 91.0172 105.359C91.2552 105.41 91.406 105.645 91.3557 105.883C91.2552 106.356 81.0098 155.854 83.1203 164.954C83.1758 165.192 83.0832 164.872 82.8479 164.928C82.7976 164.938 82.75 164.917 82.705 164.912Z" fill="#EAB83D"/>
<path d="M87.3012 80.3922C88.0179 82.5794 86.3147 94.4698 85.5874 97.2758C84.8601 100.082 80.1421 100.711 79.8856 96.6966C79.6291 92.682 81.0704 82.8597 81.9722 80.5139C82.874 78.1707 86.6241 78.3294 87.3012 80.3922Z" fill="#4E5E0B"/>
<path d="M91.5291 110.727C91.2356 113.613 89.5827 121.163 89.0749 123.993C88.5672 126.823 84.4865 127.735 84.6451 123.985C84.8038 120.235 87.1866 112.058 88.0223 110.37C88.858 108.683 91.6852 109.191 91.5291 110.727Z" fill="#4E5E0B"/>
<path d="M78.3214 114.259C79.2126 115.354 80.4107 124.219 80.2732 127.75C80.1541 130.841 76.9541 132.066 75.7085 129.059C74.4628 126.052 73.9259 118.245 74.3676 116.074C74.8146 113.905 77.3375 113.053 78.3214 114.259Z" fill="#4E5E0B"/>
<path d="M90.3492 122.348C86.7181 129.732 82.812 164.924 82.812 164.924L77.6602 164.4C77.6602 164.4 82.0106 125.931 90.3492 122.348Z" fill="#7FA024"/>
<path d="M123.811 34.7441C120.429 41.9978 121.977 62.2174 121.977 62.2174L117.856 62.4704C117.856 62.4704 116.721 39.0084 123.811 34.7441Z" fill="#7FA024"/>
<path d="M108.277 41.2109C113.024 43.6776 117.855 62.4692 117.855 62.4692L113.733 62.7222C113.733 62.7222 112.239 48.3181 108.277 41.2109Z" fill="#7FA024"/>
<path d="M117.553 62.4903C117.477 62.1641 109.93 28.2894 108.539 25.2235C108.469 25.0704 108.539 24.8873 108.692 24.8174C108.845 24.7475 109.028 24.8174 109.098 24.9705C110.06 27.091 113.705 42.2374 116.039 52.1542C114.897 44.9971 113.392 35.3234 112.84 30.6896C111.904 22.8634 110.679 0.546466 110.666 0.323431C110.656 0.156987 110.786 0.0105261 110.952 0.000539488C110.952 0.000539488 110.952 0.000539488 110.956 0.000539488C111.125 -0.00944716 111.269 0.120418 111.279 0.290191C111.292 0.513226 112.514 22.81 113.449 30.6163C114.381 38.4258 118.123 62.2307 118.159 62.4537L117.553 62.4903Z" fill="#EAB83D"/>
<path d="M119.378 62.3778C119.252 62.3845 119.142 62.521 119.089 62.3945C116.572 56.276 117.997 22.348 118.06 20.9698C118.067 20.8 118.21 20.6702 118.38 20.6802C118.549 20.6869 118.679 20.83 118.669 20.9998C118.653 21.336 117.198 56.3658 119.665 62.3578C119.728 62.5143 119.631 62.3046 119.475 62.3678C119.445 62.3845 119.412 62.3745 119.378 62.3778Z" fill="#EAB83D"/>
<path d="M113.039 4.00573C113.775 5.4205 113.945 13.7527 113.761 15.7567C113.578 17.7607 110.419 18.7194 109.793 15.9997C109.168 13.28 109.051 6.39588 109.404 4.68817C109.757 2.98045 112.343 2.67085 113.039 4.00573Z" fill="#4E5E0B"/>
<path d="M119.339 24.2945C119.462 26.3018 119.179 31.658 119.149 33.6487C119.119 35.6427 116.429 36.7246 116.116 34.1413C115.804 31.5581 116.516 25.6927 116.899 24.4444C117.278 23.196 119.272 23.2259 119.339 24.2945Z" fill="#4E5E0B"/>
<path d="M110.694 28.1961C111.426 28.8453 113.244 34.7806 113.547 37.2107C113.813 39.3412 111.759 40.5363 110.571 38.6188C109.382 36.7014 108.137 31.4151 108.197 29.8805C108.254 28.3459 109.885 27.4804 110.694 28.1961Z" fill="#4E5E0B"/>
<path d="M119.835 32.3848C118.18 37.8475 119.455 62.3747 119.455 62.3747L115.87 62.5944C115.87 62.5944 114.529 35.7736 119.835 32.3848Z" fill="#7FA024"/>
<path d="M49.1988 44.7778C31.9153 43.3065 28.2734 61.5421 28.2734 61.5421H33.7761C33.7761 61.5388 35.637 47.8005 49.1988 44.7778Z" fill="#7FA024"/>
<path d="M47.1053 32.7637C31.6027 36.7949 26.0234 61.5385 26.0234 61.5385H30.3377C30.341 61.5385 32.6912 41.5985 47.1053 32.7637Z" fill="#7FA024"/>
<path d="M3.39453 37.2569C19.8259 35.3961 27.1128 61.5378 27.1128 61.5378H22.3059C22.3059 61.5378 17.1894 41.4413 3.39453 37.2569Z" fill="#7FA024"/>
<path d="M6.96094 50.1237C20.6027 44.2316 24.4776 61.5384 24.4776 61.5384H20.1367C20.1367 61.5384 17.347 50.1237 6.96094 50.1237Z" fill="#7FA024"/>
<path d="M25.3491 61.539H25.0363C24.963 61.326 17.8092 39.0458 17.1934 27.6643C16.5809 16.3162 16.5742 13.1071 16.5742 13.0771C16.5742 12.9074 16.714 12.7676 16.8838 12.7676C17.0536 12.7676 17.1934 12.9074 17.1934 13.0771C17.1934 13.1071 17.2001 16.3095 17.8126 27.631C18.3485 37.5677 23.9278 57.2814 25.3159 61.539L37.2033 19.189C37.2533 19.0259 37.423 18.9326 37.5895 18.9792C37.7526 19.0292 37.8458 19.199 37.7992 19.3654L25.3491 61.539Z" fill="#EAB83D"/>
<path d="M26.0234 61.5381C25.867 61.5381 25.7305 61.6979 25.7139 61.5381C25.6939 61.3318 23.7032 39.9703 24.1626 32.7433C24.6286 25.4564 26.1765 1.27539 26.1765 1.27539L26.7958 1.31538C26.7958 1.31538 25.2445 25.4963 24.7818 32.7832C24.3224 39.9603 26.3097 61.3351 26.3297 61.5381C26.3463 61.7079 26.2232 61.5215 26.0501 61.5381C26.0468 61.5381 26.0367 61.5381 26.0234 61.5381Z" fill="#EAB83D"/>
<path d="M24.4747 4.70308C24.8242 3.12186 27.2643 2.84225 27.7304 4.39351C28.1964 5.94477 27.444 15.0659 27.2643 16.484C26.9547 18.964 23.6991 18.8076 23.5426 16.95C23.3429 14.5533 24.1651 6.09788 24.4747 4.70308Z" fill="#4E5E0B"/>
<path d="M18.1226 16.331C18.7584 17.0933 19.2078 26.098 19.0513 27.0268C18.8949 27.9555 16.7278 28.7311 16.2617 27.3363C15.7957 25.9415 15.4861 18.9642 15.6426 17.5694C15.7957 16.1746 17.3469 15.3989 18.1226 16.331Z" fill="#4E5E0B"/>
<path d="M38.1185 22.3772C37.9487 24.075 36.1044 31.2121 35.4819 32.4538C34.8628 33.6954 32.3828 33.539 32.3828 31.8346C32.3828 30.1302 34.2436 23.3093 34.8628 22.0677C35.482 20.826 38.2716 20.826 38.1185 22.3772Z" fill="#4E5E0B"/>
<path d="M28.3513 25.4766C30.6749 32.141 28.2748 61.5384 28.2748 61.5384H24.4766C24.4766 61.5384 25.4053 32.7635 28.3513 25.4766Z" fill="#7FA024"/>
<path d="M20.7569 27.6465C23.8561 33.0726 27.0419 61.5379 27.0419 61.5379H23.8594C23.8594 61.5379 17.8142 36.4813 20.7569 27.6465Z" fill="#7FA024"/>
<path d="M17.6428 163.212C17.4101 163.257 17.262 163.527 17.2091 163.294C17.1588 163.064 11.7135 137.813 10.3647 127.184C9.01855 116.571 4.65486 80.627 4.61255 80.2647C4.58345 80.024 4.75799 79.8045 4.99601 79.7727C5.23667 79.7436 5.45621 79.9156 5.48794 80.1563C5.5329 80.5186 9.89395 116.46 11.2401 127.07C12.5836 137.662 18.0263 162.897 18.0765 163.127C18.1294 163.365 17.8941 163.154 17.656 163.207C17.6507 163.212 17.6454 163.212 17.6428 163.212Z" fill="#EAB83D"/>
<path d="M19.3542 110.701C15.202 119.563 19.1585 162.925 19.1585 162.925L14.1786 163.869C14.1786 163.867 10.4681 121.806 19.3542 110.701Z" fill="#7FA024"/>
<path d="M3.55078 121.998C9.81599 126.642 19.1596 162.927 19.1596 162.927L14.1797 163.871C14.1797 163.868 10.2497 134.859 3.55078 121.998Z" fill="#7FA024"/>
<path d="M31.2557 130.879C16.4853 138.165 21.5419 162.475 21.5419 162.475L16.8873 163.358C16.8846 163.355 12.0872 132.717 31.2557 130.879Z" fill="#7FA024"/>
<path d="M0 148.243C12.5357 148.111 17.751 163.191 17.751 163.191L11.5783 164.36C11.5783 164.362 9.41764 152.964 0 148.243Z" fill="#7FA024"/>
<path d="M7.76963 85.0794C8.64237 86.5128 10.5306 98.464 10.2926 100.752C10.0546 103.039 7.22746 104.698 5.61158 102.087C3.99569 99.4769 3.0145 89.5674 3.21285 87.0629C3.40855 84.561 6.7911 83.4714 7.76963 85.0794Z" fill="#4E5E0B"/>
<path d="M88.716 139.929C64.1418 137.834 58.9609 163.763 58.9609 163.763H66.7839C66.7865 163.763 69.4312 144.227 88.716 139.929Z" fill="#7FA024"/>
<path d="M85.7402 122.846C63.6996 128.577 55.7656 163.761 55.7656 163.761H61.9013C61.9013 163.761 65.2441 135.41 85.7402 122.846Z" fill="#7FA024"/>
<path d="M23.5898 129.238C46.9528 126.594 57.3119 163.762 57.3119 163.762H50.4807C50.4781 163.762 43.2053 135.189 23.5898 129.238Z" fill="#7FA024"/>
<path d="M28.6562 147.532C48.0522 139.156 53.5611 163.762 53.5611 163.762H47.3911C47.3911 163.762 43.4214 147.532 28.6562 147.532Z" fill="#7FA024"/>
<path d="M54.8044 163.762H54.3601C54.2569 163.458 44.0829 131.78 43.2075 115.598C42.3348 99.4627 42.3242 94.9007 42.3242 94.8557C42.3242 94.6124 42.5225 94.4141 42.7659 94.4141C43.0092 94.4141 43.2075 94.6124 43.2075 94.8557C43.2075 94.9007 43.2181 99.4521 44.0882 115.55C44.8525 129.678 52.7839 157.709 54.7541 163.762L71.6561 103.549C71.7249 103.316 71.9709 103.181 72.2036 103.25C72.4363 103.319 72.5712 103.565 72.5024 103.797L54.8044 163.762Z" fill="#EAB83D"/>
<path d="M55.7666 163.763C55.5418 163.763 55.3514 163.99 55.3276 163.763C55.2985 163.472 52.4661 133.095 53.122 122.821C53.7831 112.461 55.9861 78.0781 55.9861 78.0781L56.8668 78.1337C56.8668 78.1337 54.6638 112.517 54.0027 122.876C53.3521 133.082 56.1766 163.472 56.2057 163.763C56.2295 164.006 56.0523 163.739 55.809 163.763C55.7958 163.765 55.7825 163.763 55.7666 163.763Z" fill="#EAB83D"/>
<path d="M53.5654 82.9545C54.0652 80.7092 57.5324 80.3099 58.1935 82.5129C58.8547 84.7159 57.7836 97.688 57.5324 99.7032C57.0907 103.229 52.4625 103.009 52.243 100.364C51.96 96.9554 53.1237 84.938 53.5654 82.9545Z" fill="#4E5E0B"/>
<path d="M44.5286 99.4833C45.4331 100.568 46.0705 113.368 45.851 114.69C45.6315 116.012 42.5451 117.115 41.884 115.132C41.2228 113.148 40.7812 103.231 41.0034 101.247C41.2229 99.2638 43.4258 98.1609 44.5286 99.4833Z" fill="#4E5E0B"/>
<path d="M72.9608 108.081C72.7201 110.493 70.0966 120.643 69.2133 122.407C68.3326 124.171 64.8047 123.949 64.8047 121.526C64.8047 119.104 67.4493 109.403 68.33 107.642C69.2133 105.875 73.1803 105.875 72.9608 108.081Z" fill="#4E5E0B"/>
<path d="M59.0739 112.486C62.3798 121.965 58.9629 163.761 58.9629 163.761H53.5625C53.5651 163.761 54.8874 122.845 59.0739 112.486Z" fill="#7FA024"/>
<path d="M48.2756 115.574C52.6842 123.289 57.2093 163.763 57.2093 163.763H52.6816C52.6842 163.763 44.0864 128.136 48.2756 115.574Z" fill="#7FA024"/>
<path d="M96.7604 193.294C93.7512 197.975 93.4169 206 93.0825 207.003C92.7481 208.006 83.3862 208.674 82.7175 207.003C82.0487 205.331 80.7113 200.984 73.3555 196.638C79.3739 196.638 85.0579 201.653 85.0579 201.653C85.0579 201.653 86.061 197.306 83.0518 191.288C85.7267 192.291 87.0641 195.969 87.0641 195.969C87.0641 195.969 89.0702 187.276 95.423 183.598C92.0794 188.947 92.0794 198.309 92.0794 198.309C92.0794 198.309 93.7512 193.963 96.7604 193.294Z" fill="#7FA024"/>
<path d="M178.508 223.052C168.812 226.396 161.456 238.767 161.456 238.767C161.456 238.767 157.11 226.061 148.082 220.043C155.438 229.071 157.778 240.773 157.444 240.439C157.11 240.104 153.432 234.755 148.082 234.086C151.426 236.426 154.769 242.445 155.772 243.114C156.775 243.782 163.462 244.451 164.465 243.114C165.469 241.776 166.137 234.086 178.508 223.052Z" fill="#7FA024"/>
</svg>
