<svg width="766" height="154" viewBox="0 0 766 154" fill="none" xmlns="http://www.w3.org/2000/svg">
<path d="M766 0C766 0 735.76 41.213 680.272 34.4094C624.785 27.6058 579.841 16.3293 552.375 28.5769C524.908 40.8245 487.455 66.4852 436.129 66.0967C384.803 65.7083 372.041 57.5423 321.825 47.2397C271.61 36.9372 229.717 74.26 199.754 74.6512C169.791 75.0397 168.681 32.2729 105.426 21.3848C42.1702 10.4968 0 25.2722 0 25.2722L0.416154 70.2755C0.416154 70.2755 77.8207 51.03 115.552 72.4148C153.283 93.7996 146.347 122.765 109.726 117.127C73.1043 111.489 0.693589 106.242 0.693589 106.242L0.138718 147.843C0.138718 147.843 66.1684 125.681 105.287 148.231C144.405 170.782 207.125 120.764 223.752 108.769C261.067 81.8461 298.105 77.4703 339.443 87.5787C380.781 97.687 536.605 103.192 569.021 94.6736C651.142 73.0946 661.226 92.7896 690.121 107.407C736.037 130.637 765.861 119.46 765.861 119.46L766 0Z" fill="#8DB0C6"/>
<path opacity="0.62" d="M766 22.7441C766 22.7441 734.927 52.4864 679.44 45.6828C623.953 38.8792 583.17 25.6604 555.704 37.9081C528.238 50.1557 491.894 72.7058 440.568 72.3174C389.242 71.9289 370.932 64.3484 320.716 54.0431C270.5 43.7377 226.665 82.2315 196.702 82.62C166.739 83.0084 162.022 42.9636 98.7671 32.0756C35.5118 21.1876 0 32.6582 0 32.6582L0.554871 63.3744C0.554871 63.3744 89.3343 51.1268 127.066 72.5117C164.797 93.8965 139.828 128.886 111.807 124.804C75.0963 119.457 0.832307 112.168 0.832307 112.168L0.277436 140.939C0.277436 140.939 68.5266 120.917 107.645 143.467C146.763 166.017 203.657 111.53 220.284 99.5319C257.599 72.6087 298.798 71.7319 340.136 81.843C381.474 91.9541 523.288 89.3875 555.704 80.8719C637.825 59.2928 665.249 79.6677 694.144 94.2849C740.06 117.515 766 105.364 766 105.364V22.7441Z" fill="#7A94A5"/>
</svg>
