<svg width="714" height="1986" viewBox="0 0 714 1986" fill="none" xmlns="http://www.w3.org/2000/svg">
<path d="M714 -1H0V799.849H714V-1Z" fill="#3D3B38"/>
<path d="M714 798.324H0V1599.17H714V798.324Z" fill="#3D3B38"/>
<path d="M365.41 24.9219H352.584V107.151H365.41V24.9219Z" fill="white"/>
<path d="M714 1599.25H0V2400.1H714V1599.25Z" fill="#3D3B38"/>
<path d="M363.41 824.246H350.584V906.475H363.41V824.246Z" fill="white"/>
<path d="M363.41 141.117H350.584V223.346H363.41V141.117Z" fill="white"/>
<path d="M363.41 1625.17H350.584V1707.4H363.41V1625.17Z" fill="white"/>
<path d="M363.41 940.441H350.584V1022.67H363.41V940.441Z" fill="white"/>
<path d="M363.41 1741.37H350.584V1823.6H363.41V1741.37Z" fill="white"/>
<path d="M363.41 258.197H350.584V340.427H363.41V258.197Z" fill="white"/>
<path d="M363.41 1057.52H350.584V1139.75H363.41V1057.52Z" fill="white"/>
<path d="M363.41 374.393H350.584V456.622H363.41V374.393Z" fill="white"/>
<path d="M363.41 1858.45H350.584V1940.68H363.41V1858.45Z" fill="white"/>
<path d="M363.41 1173.72H350.584V1255.95H363.41V1173.72Z" fill="white"/>
<path d="M363.41 489.695H350.584V571.925H363.41V489.695Z" fill="white"/>
<path d="M363.41 1974.64H350.584V2056.87H363.41V1974.64Z" fill="white"/>
<path d="M363.41 1289.02H350.584V1371.25H363.41V1289.02Z" fill="white"/>
<path d="M363.41 605.895H350.584V688.124H363.41V605.895Z" fill="white"/>
<path d="M363.41 1405.22H350.584V1487.45H363.41V1405.22Z" fill="white"/>
<path d="M363.41 722.977H350.584V799.839H363.41V722.977Z" fill="white"/>
<path d="M363.41 1522.3H350.584V1599.16H363.41V1522.3Z" fill="white"/>
<path d="M30.4182 -1H21.9297V799.849H30.4182V-1Z" fill="white"/>
<path d="M30.4182 798.324H21.9297V1599.17H30.4182V798.324Z" fill="white"/>
<path d="M30.4182 1599.25H21.9297V2400.1H30.4182V1599.25Z" fill="white"/>
<path d="M692.063 -1H683.574V799.849H692.063V-1Z" fill="white"/>
<path d="M692.063 798.324H683.574V1599.17H692.063V798.324Z" fill="white"/>
<path d="M692.063 1599.25H683.574V2400.1H692.063V1599.25Z" fill="white"/>
</svg>
