<svg width="811" height="608" viewBox="0 0 811 608" fill="none" xmlns="http://www.w3.org/2000/svg">
<path d="M811 145.656H7.11719V507.83H811V145.656Z" fill="#606060"/>
<path d="M32.013 134.336H0V518.014H32.013V134.336Z" fill="#8A9995"/>
<path d="M810.995 135.469H778.982V519.147H810.995V135.469Z" fill="#8A9995"/>
<path d="M768 -51H54V766H768V-51Z" fill="#3D3B38"/>
<path d="M419.254 -10.5957H406.449V72.1272H419.254V-10.5957Z" fill="white"/>
<path d="M419.254 106.291H406.449V189.014H419.254V106.291Z" fill="white"/>
<path d="M419.254 224.076H406.449V306.799H419.254V224.076Z" fill="white"/>
<path d="M419.254 340.965H406.449V423.687H419.254V340.965Z" fill="white"/>
<path d="M84 -51H76V766H84V-51Z" fill="white"/>
<path d="M746 -50H737V766H746V-50Z" fill="white"/>
<path d="M419.254 448.906H406.449V531.629H419.254V448.906Z" fill="white"/>
<path d="M419.254 565.795H406.449V648.518H419.254V565.795Z" fill="white"/>
<path d="M754.081 92.457H725.625V559.888H754.081V92.457Z" fill="#8A9995"/>
<path d="M749.64 120.77H729.188V518.029H749.64V120.77Z" fill="#FAFAFA"/>
<path d="M87.1474 92.457H58.6914V559.888H87.1474V92.457Z" fill="#8A9995"/>
<path d="M82.6989 120.77H62.2461V518.029H82.6989V120.77Z" fill="#FAFAFA"/>
</svg>
