<svg width="714" height="2115" viewBox="0 0 714 2115" fill="none" xmlns="http://www.w3.org/2000/svg">
<path d="M714 -1H0V799.849H714V-1Z" fill="#3D3B38"/>
<path d="M714 798.324H0V1599.17H714V798.324Z" fill="#3D3B38"/>
<path d="M363.412 24.9219H350.586V107.151H363.412V24.9219Z" fill="white"/>
<path d="M714 1598.25H0V2399.1H714V1598.25Z" fill="#3D3B38"/>
<path d="M363.412 824.246H350.586V906.475H363.412V824.246Z" fill="white"/>
<path d="M363.412 141.117H350.586V223.346H363.412V141.117Z" fill="white"/>
<path d="M363.412 1625.17H350.586V1707.4H363.412V1625.17Z" fill="white"/>
<path d="M363.412 940.441H350.586V1022.67H363.412V940.441Z" fill="white"/>
<path d="M363.412 1741.37H350.586V1823.6H363.412V1741.37Z" fill="white"/>
<path d="M363.412 258.197H350.586V340.427H363.412V258.197Z" fill="white"/>
<path d="M363.412 1057.52H350.586V1139.75H363.412V1057.52Z" fill="white"/>
<path d="M363.412 374.393H350.586V456.622H363.412V374.393Z" fill="white"/>
<path d="M363.412 1858.45H350.586V1940.68H363.412V1858.45Z" fill="white"/>
<path d="M363.412 1173.72H350.586V1255.95H363.412V1173.72Z" fill="white"/>
<path d="M363.412 489.695H350.586V571.925H363.412V489.695Z" fill="white"/>
<path d="M363.412 1974.64H350.586V2056.87H363.412V1974.64Z" fill="white"/>
<path d="M363.412 1289.02H350.586V1371.25H363.412V1289.02Z" fill="white"/>
<path d="M363.412 605.895H350.586V688.124H363.412V605.895Z" fill="white"/>
<path d="M363.412 1405.22H350.586V1487.45H363.412V1405.22Z" fill="white"/>
<path d="M363.412 722.977H350.586V799.839H363.412V722.977Z" fill="white"/>
<path d="M363.412 1522.3H350.586V1599.16H363.412V1522.3Z" fill="white"/>
<path d="M30.4182 -1H21.9297V799.849H30.4182V-1Z" fill="white"/>
<path d="M30.4182 798.324H21.9297V1599.17H30.4182V798.324Z" fill="white"/>
<path d="M30.4182 1599.25H21.9297V2400.1H30.4182V1599.25Z" fill="white"/>
<path d="M692.063 -1H683.574V799.849H692.063V-1Z" fill="white"/>
<path d="M692.063 798.324H683.574V1599.17H692.063V798.324Z" fill="white"/>
<path d="M692.063 1599.25H683.574V2400.1H692.063V1599.25Z" fill="white"/>
</svg>
