<svg width="714" height="972" viewBox="0 0 714 972" fill="none" xmlns="http://www.w3.org/2000/svg">
<path d="M714 0H0V800.849H714V0Z" fill="#3D3B38"/>
<path d="M714 799.324H0V1600.17H714V799.324Z" fill="#3D3B38"/>
<path d="M363.41 25.9219H350.584V108.151H363.41V25.9219Z" fill="white"/>
<path d="M363.41 825.246H350.584V907.475H363.41V825.246Z" fill="white"/>
<path d="M363.41 142.117H350.584V224.346H363.41V142.117Z" fill="white"/>
<path d="M363.41 259.197H350.584V341.427H363.41V259.197Z" fill="white"/>
<path d="M363.41 375.393H350.584V457.622H363.41V375.393Z" fill="white"/>
<path d="M363.41 490.695H350.584V572.925H363.41V490.695Z" fill="white"/>
<path d="M363.41 606.895H350.584V689.124H363.41V606.895Z" fill="white"/>
<path d="M363.41 723.977H350.584V800.839H363.41V723.977Z" fill="white"/>
<path d="M30.4182 0H21.9297V800.849H30.4182V0Z" fill="white"/>
<path d="M30.4182 799.324H21.9297V1600.17H30.4182V799.324Z" fill="white"/>
<path d="M692.063 0H683.574V800.849H692.063V0Z" fill="white"/>
<path d="M692.063 799.324H683.574V1600.17H692.063V799.324Z" fill="white"/>
</svg>
