<svg width="156" height="61" viewBox="0 0 156 61" fill="none" xmlns="http://www.w3.org/2000/svg">
<path d="M0 20.0144L49.5685 6.721L56.2324 21.3153L111.274 0L108.43 11.2691L144.418 20.3603L149.146 38.5211L156 35.2738L151.888 51.5709L134.265 60.5794L123.034 44.2799L72.9321 50.7987L48.5776 35.2397L27.544 39.3298L24.6394 26.241L0 20.0144Z" fill="#776B67"/>
<path d="M0 20.0144L46.3912 13.8488L52.7994 26.7184L103.724 8.05103L101.163 26.3969L139.424 26.4748L145.387 43.8413L154.6 40.823L150.488 57.1177L134.265 60.5793L123.034 44.2799L72.9321 50.7986L48.5776 35.2396L27.544 39.3298L24.6394 26.2409L0 20.0144Z" fill="#847D7B"/>
</svg>
