<svg width="183" height="141" viewBox="0 0 183 141" fill="none" xmlns="http://www.w3.org/2000/svg">
<path d="M29.1146 102.006L31.0585 134.931H25.2305V103.94L29.1146 102.006Z" fill="#6B3425"/>
<path d="M13.5719 55.5174C13.5719 55.5174 5.80002 49.7068 -0.0279703 55.5174C-5.85596 61.3279 -1.97183 69.0766 -1.97183 69.0766C-1.97183 69.0766 -11.684 72.9491 -9.74369 84.5738C-7.79982 96.1949 -0.0315733 92.3224 -0.0315733 92.3224C-0.0315733 92.3224 -5.85956 105.882 9.68055 111.692C25.2243 117.503 31.0523 107.82 31.0523 107.82C31.0523 107.82 40.7644 117.503 48.5362 107.82C56.3081 98.1365 54.3642 88.4499 54.3642 88.4499C54.3642 88.4499 62.1361 84.5774 58.2484 71.0182C54.3642 57.459 46.5924 61.3352 46.5924 61.3352C46.5924 61.3352 46.5924 47.776 34.9364 45.8379C23.2876 43.8963 13.5719 55.5174 13.5719 55.5174Z" fill="#7FA024"/>
<path d="M32.033 65.2028C33.6433 65.2028 34.9488 63.9013 34.9488 62.2957C34.9488 60.6902 33.6433 59.3887 32.033 59.3887C30.4226 59.3887 29.1172 60.6902 29.1172 62.2957C29.1172 63.9013 30.4226 65.2028 32.033 65.2028Z" fill="#61C10C"/>
<path d="M45.6267 80.7009C47.2371 80.7009 48.5425 79.3993 48.5425 77.7938C48.5425 76.1883 47.2371 74.8867 45.6267 74.8867C44.0164 74.8867 42.7109 76.1883 42.7109 77.7938C42.7109 79.3993 44.0164 80.7009 45.6267 80.7009Z" fill="#61C10C"/>
<path d="M38.8294 100.065C40.9746 100.065 42.7136 98.3316 42.7136 96.1928C42.7136 94.0541 40.9746 92.3203 38.8294 92.3203C36.6843 92.3203 34.9453 94.0541 34.9453 96.1928C34.9453 98.3316 36.6843 100.065 38.8294 100.065Z" fill="#61C10C"/>
<path d="M13.5716 96.1923C15.7168 96.1923 17.4557 94.4585 17.4557 92.3198C17.4557 90.1811 15.7168 88.4473 13.5716 88.4473C11.4265 88.4473 9.6875 90.1811 9.6875 92.3198C9.6875 94.4585 11.4265 96.1923 13.5716 96.1923Z" fill="#61C10C"/>
<path d="M10.6619 71.0153C12.2722 71.0153 13.5777 69.7138 13.5777 68.1083C13.5777 66.5027 12.2722 65.2012 10.6619 65.2012C9.05153 65.2012 7.74609 66.5027 7.74609 68.1083C7.74609 69.7138 9.05153 71.0153 10.6619 71.0153Z" fill="#61C10C"/>
<path d="M98.1888 113.559L99.7295 139.647H93.5703V113.559H98.1888Z" fill="#6B3425"/>
<path d="M85.1094 77.4967C85.1094 77.4967 88.1872 66.7549 98.9612 68.291C109.735 69.827 112.813 83.6374 112.813 83.6374C112.813 83.6374 120.509 82.1014 122.046 91.3107C123.587 100.516 115.891 103.589 115.891 103.589C115.891 103.589 122.046 111.262 114.35 117.399C106.654 123.536 97.4205 118.935 97.4205 118.935C97.4205 118.935 88.1872 128.141 78.9502 120.471C69.7169 112.798 72.7947 108.193 72.7947 108.193C72.7947 108.193 63.5613 103.589 65.0984 95.9154C66.6391 88.2421 72.7947 88.2421 72.7947 88.2421C72.7947 88.2421 66.6391 82.105 72.7947 77.5003C78.9502 72.8956 85.1094 77.4967 85.1094 77.4967Z" fill="#59843D"/>
<path d="M98.9614 85.9369C101.087 85.9369 102.81 84.2192 102.81 82.1003C102.81 79.9814 101.087 78.2637 98.9614 78.2637C96.8361 78.2637 95.1133 79.9814 95.1133 82.1003C95.1133 84.2192 96.8361 85.9369 98.9614 85.9369Z" fill="#8CCE4D"/>
<path d="M112.813 98.2143C114.938 98.2143 116.661 96.4965 116.661 94.3776C116.661 92.2587 114.938 90.541 112.813 90.541C110.688 90.541 108.965 92.2587 108.965 94.3776C108.965 96.4965 110.688 98.2143 112.813 98.2143Z" fill="#8CCE4D"/>
<path d="M105.89 110.489C107.59 110.489 108.968 109.115 108.968 107.42C108.968 105.725 107.59 104.352 105.89 104.352C104.19 104.352 102.812 105.725 102.812 107.42C102.812 109.115 104.19 110.489 105.89 110.489Z" fill="#8CCE4D"/>
<path d="M95.1185 101.284C97.6692 101.284 99.7369 99.222 99.7369 96.6789C99.7369 94.1358 97.6692 92.0742 95.1185 92.0742C92.5678 92.0742 90.5 94.1358 90.5 96.6789C90.5 99.222 92.5678 101.284 95.1185 101.284Z" fill="#8CCE4D"/>
<path d="M82.8004 90.5395C84.5002 90.5395 85.8782 89.1657 85.8782 87.4709C85.8782 85.7762 84.5002 84.4023 82.8004 84.4023C81.1006 84.4023 79.7227 85.7762 79.7227 87.4709C79.7227 89.1657 81.1006 90.5395 82.8004 90.5395Z" fill="#8CCE4D"/>
<path d="M76.6442 102.815C78.344 102.815 79.722 101.441 79.722 99.7463C79.722 98.0516 78.344 96.6777 76.6442 96.6777C74.9444 96.6777 73.5664 98.0516 73.5664 99.7463C73.5664 101.441 74.9444 102.815 76.6442 102.815Z" fill="#8CCE4D"/>
<path d="M86.6489 113.556C88.7742 113.556 90.497 111.838 90.497 109.719C90.497 107.601 88.7742 105.883 86.6489 105.883C84.5236 105.883 82.8008 107.601 82.8008 109.719C82.8008 111.838 84.5236 113.556 86.6489 113.556Z" fill="#8CCE4D"/>
<path d="M161.2 134.938L152.633 135.021L152.691 141.001L161.259 140.917L161.2 134.938Z" fill="#6B3425"/>
<path d="M169.386 121.34L180.264 121.232L176.909 104.755L169.191 101.324L176.197 101.256L175.333 97.0101L162.942 95.9837L174.519 93.0264L172.798 84.5743L162.795 80.8669C162.795 80.8669 168.227 80.4326 171.898 80.1491L166.675 54.4987L158.551 53.727L166.29 52.6073L155.577 0L149.861 31.1775L153.587 31.1416L149.357 33.9302L147.546 43.8179L154.476 43.7497L147.157 45.939L146.524 49.3916L150.401 49.3521L146.218 51.0532L142.409 71.8335L152.021 74.195L141.481 76.9011L138.414 93.6221L148.385 93.5252L137.463 98.801L134.296 116.086C139.562 116.968 147.251 118.21 147.251 118.21L133.453 120.683L130.793 135.19L183 134.68L181.362 126.63L169.386 121.34Z" fill="#7EA21A"/>
</svg>
