<svg width="57" height="71" viewBox="0 0 57 71" fill="none" xmlns="http://www.w3.org/2000/svg">
<path d="M33.0767 45.0957L34.6087 71.0005H28.4844V45.0957H33.0767Z" fill="#6B3425"/>
<path d="M20.0694 9.29027C20.0694 9.29027 23.1297 -1.37601 33.8427 0.149275C44.5558 1.67455 47.6161 15.3878 47.6161 15.3878C47.6161 15.3878 55.2689 13.8625 56.7973 23.0071C58.3292 32.1481 50.6765 35.1987 50.6765 35.1987C50.6765 35.1987 56.7972 42.8179 49.1445 48.9119C41.4918 55.0059 32.3108 50.4372 32.3108 50.4372C32.3108 50.4372 23.1297 59.5782 13.9451 51.9625C4.76401 44.3432 7.82434 39.7709 7.82434 39.7709C7.82434 39.7709 -1.35674 35.1987 0.17165 27.5794C1.70362 19.9601 7.82434 19.9601 7.82434 19.9601C7.82434 19.9601 1.70362 13.8661 7.82434 9.29384C13.9451 4.72156 20.0694 9.29027 20.0694 9.29027Z" fill="#59843D"/>
<path d="M33.8419 17.6681C35.9552 17.6681 37.6684 15.9625 37.6684 13.8585C37.6684 11.7545 35.9552 10.0488 33.8419 10.0488C31.7287 10.0488 30.0156 11.7545 30.0156 13.8585C30.0156 15.9625 31.7287 17.6681 33.8419 17.6681Z" fill="#8CCE4D"/>
<path d="M47.6193 29.8595C49.7325 29.8595 51.4457 28.1539 51.4457 26.0498C51.4457 23.9458 49.7325 22.2402 47.6193 22.2402C45.5061 22.2402 43.793 23.9458 43.793 26.0498C43.793 28.1539 45.5061 29.8595 47.6193 29.8595Z" fill="#8CCE4D"/>
<path d="M40.7283 42.0471C42.4184 42.0471 43.7886 40.6829 43.7886 39.0001C43.7886 37.3173 42.4184 35.9531 40.7283 35.9531C39.0381 35.9531 37.668 37.3173 37.668 39.0001C37.668 40.6829 39.0381 42.0471 40.7283 42.0471Z" fill="#8CCE4D"/>
<path d="M30.0181 32.9082C32.5544 32.9082 34.6105 30.8612 34.6105 28.336C34.6105 25.8108 32.5544 23.7637 30.0181 23.7637C27.4819 23.7637 25.4258 25.8108 25.4258 28.336C25.4258 30.8612 27.4819 32.9082 30.0181 32.9082Z" fill="#8CCE4D"/>
<path d="M17.7713 22.2425C19.4615 22.2425 20.8317 20.8783 20.8317 19.1955C20.8317 17.5126 19.4615 16.1484 17.7713 16.1484C16.0811 16.1484 14.7109 17.5126 14.7109 19.1955C14.7109 20.8783 16.0811 22.2425 17.7713 22.2425Z" fill="#8CCE4D"/>
<path d="M11.6541 34.428C13.3443 34.428 14.7145 33.0638 14.7145 31.381C14.7145 29.6981 13.3443 28.334 11.6541 28.334C9.96394 28.334 8.59375 29.6981 8.59375 31.381C8.59375 33.0638 9.96394 34.428 11.6541 34.428Z" fill="#8CCE4D"/>
<path d="M21.5959 45.0958C23.7091 45.0958 25.4222 43.3902 25.4222 41.2862C25.4222 39.1822 23.7091 37.4766 21.5959 37.4766C19.4826 37.4766 17.7695 39.1822 17.7695 41.2862C17.7695 43.3902 19.4826 45.0958 21.5959 45.0958Z" fill="#8CCE4D"/>
</svg>
