<svg width="70" height="65" viewBox="0 0 70 65" fill="none" xmlns="http://www.w3.org/2000/svg">
<path d="M58.034 0.131258L49.1861 63.8569L43.1484 62.9299L57.1718 0L58.034 0.131258Z" fill="#D1DBD1"/>
<path d="M53.9281 21.1953L69.9974 34.5151L69.8276 35.3932L53.2461 24.7075L53.9281 21.1953Z" fill="#D1DBD1"/>
<path d="M50.7387 65.0008L41.25 63.5409L41.5897 61.7874L51.081 63.2473L50.7387 65.0008Z" fill="#D1DBD1"/>
<path d="M53.9326 21.1953L33.7636 28.9406L33.5938 29.8186L53.2506 24.7075L53.9326 21.1953Z" fill="#D1DBD1"/>
<path d="M54.6141 17.6855L47.735 62.7304L44.5 62.2334L54.6141 17.6855Z" fill="#D1DBD1"/>
<path d="M14.1961 10.2871L16.5329 59.4749L11.8594 59.6294L13.527 10.3077L14.1961 10.2871Z" fill="#D1DBD1"/>
<path d="M14.0805 26.7148L28.0498 34.4652L28.0447 35.1501L14.0625 29.4519L14.0805 26.7148Z" fill="#D1DBD1"/>
<path d="M17.8644 60.1153L10.5195 60.3572L10.5272 58.9906L17.8747 58.7461L17.8644 60.1153Z" fill="#D1DBD1"/>
<path d="M14.0825 26.7148L0.00515215 35.3921L0 36.0745L14.0645 29.4519L14.0825 26.7148Z" fill="#D1DBD1"/>
<path d="M14.1002 23.9766L15.2814 58.8352L12.7773 58.9175L14.1002 23.9766Z" fill="#D1DBD1"/>
</svg>
