<svg width="24" height="96" viewBox="0 0 24 96" fill="none" xmlns="http://www.w3.org/2000/svg">
<g id="&#208;&#178;&#209;&#150;&#209;&#130;&#209;&#128;&#209;&#143;&#208;&#186;">
<path id="Vector" d="M2.15587 94.9556L1.12891 94.8444L9.03937 19.3242L10.0663 19.4376L2.15587 94.9556Z" fill="#72645D"/>
<path id="Vector_2" d="M21.7997 95.1206L13.1719 19.461L14.1988 19.3672L22.8267 95.0247L21.7997 95.1206Z" fill="#72645D"/>
<path id="Vector_3" d="M22.7459 77.1746L0.00435839 76.9827L0 75.9863L22.7393 76.1803L22.7459 77.1746Z" fill="#72645D"/>
<path id="Vector_4" d="M21.6258 59.2636L1.98701 59.0958L1.98047 58.1016L21.6193 58.2695L21.6258 59.2636Z" fill="#72645D"/>
<path id="Vector_5" d="M18.446 42.3305L5.00826 42.215L5.00391 41.2207L18.4417 41.3362L18.446 42.3305Z" fill="#72645D"/>
<path id="Vector_6" d="M15.2668 25.3941L6.99654 25.3244L6.99219 24.3301L15.2624 24.3998L15.2668 25.3941Z" fill="#72645D"/>
<path id="Vector_7" d="M11.207 0L12.4259 7.9628L13.6076 7.97143L16.5228 0.612597L11.207 0Z" fill="white"/>
<path id="Vector_8" d="M19.5134 2.80859L14.7188 9.32369L15.58 10.1108L22.9846 6.76609L19.5134 2.80859Z" fill="white"/>
<path id="Vector_9" d="M23.8581 9.15039L15.832 11.2588L15.9934 12.3861L23.9998 14.2939L23.8581 9.15039Z" fill="white"/>
<path id="Vector_10" d="M22.1678 17.4057L14.761 13.6074L14.0742 14.5231L18.5964 21.1864L22.1678 17.4057Z" fill="white"/>
<path id="Vector_11" d="M14.5338 22.1816L12.4123 14.3867L11.2393 14.5001L9.1875 22.1358L14.5338 22.1816Z" fill="white"/>
<path id="Vector_12" d="M5.97276 20.264L9.98469 13.2714L9.03839 12.5781L2.07422 16.6947L5.97276 20.264Z" fill="white"/>
<path id="Vector_13" d="M0.929645 14.4167L8.6526 11.4667L8.36261 10.3613L0.199219 9.3125L0.929645 14.4167Z" fill="white"/>
<path id="Vector_14" d="M1.65625 6.0197L9.44462 9.01551L10.0202 8.0322L4.76768 1.87695L1.65625 6.0197Z" fill="white"/>
<path id="Vector_15" d="M11.6238 20.3913C7.06461 20.3521 3.33831 16.7523 3.3165 12.3653C3.2947 7.97835 6.98829 4.43959 11.5475 4.47884C16.1067 4.51809 19.833 8.11788 19.8548 12.507C19.8744 16.894 16.183 20.4306 11.6238 20.3913ZM11.5519 5.473C7.56173 5.43812 4.33039 8.53436 4.35001 12.374C4.36746 16.2137 7.62932 19.3644 11.6194 19.3971C15.6096 19.4298 18.8409 16.3357 18.8213 12.496C18.8017 8.65637 15.542 5.50789 11.5519 5.473Z" fill="#72645D"/>
<path id="Vector_16" d="M13.6502 11.7634C13.8333 10.6817 13.0683 9.65025 11.9415 9.45952C10.8147 9.26879 9.7529 9.99104 9.5698 11.0727C9.38671 12.1544 10.1517 13.1859 11.2785 13.3766C12.4052 13.5673 13.4672 12.8451 13.6502 11.7634Z" fill="#D3B9B2"/>
</g>
</svg>
