<svg id="Слой_2" data-name="Слой 2" xmlns="http://www.w3.org/2000/svg" viewBox="0 0 194.76 64.43"><defs><style>.cls-1{fill:#0a93fd;}.cls-2{fill:#fff;}</style></defs><title>arrow right</title><rect class="cls-1" x="1.5" y="1.5" width="191.76" height="61.43" rx="9.01"/><path class="cls-2" d="M184.25,64.43H10.51A10.53,10.53,0,0,1,0,53.92V10.51A10.53,10.53,0,0,1,10.51,0H184.25a10.53,10.53,0,0,1,10.51,10.51V53.92A10.53,10.53,0,0,1,184.25,64.43ZM10.51,3A7.52,7.52,0,0,0,3,10.51V53.92a7.52,7.52,0,0,0,7.51,7.51H184.25a7.52,7.52,0,0,0,7.51-7.51V10.51A7.52,7.52,0,0,0,184.25,3Z"/><polygon class="cls-2" points="185.26 34.11 169.29 21.23 169.29 29.16 143.34 29.16 143.34 39.05 169.29 39.05 169.29 46.98 185.26 34.11"/></svg>