<?xml version="1.0" encoding="utf-8"?>
<!-- Generator: Adobe Illustrator 24.0.1, SVG Export Plug-In . SVG Version: 6.00 Build 0)  -->
<svg version="1.1" id="Слой_2_1_" xmlns="http://www.w3.org/2000/svg" xmlns:xlink="http://www.w3.org/1999/xlink" x="0px"
	 y="0px" viewBox="0 0 194.8 99.2" style="enable-background:new 0 0 194.8 99.2;" xml:space="preserve">
<style type="text/css">
	.st0{fill:#303030;}
	.st1{fill:#0A93FD;}
	.st2{fill:#FFFFFF;}
</style>
<rect x="12.7" y="60.8" class="st0" width="6.8" height="38"/>
<rect x="172.2" y="60.8" class="st0" width="6.8" height="38"/>
<title>arrow right</title>
<path class="st1" d="M184.3,62.9H10.5c-5,0-9-4-9-9V10.5c0-5,4-9,9-9h173.7c5,0,9,4,9,9v43.4C193.3,58.9,189.2,62.9,184.3,62.9z"/>
<path class="st2" d="M0,53.9V10.5C0,4.7,4.7,0,10.5,0h173.7c5.8,0,10.5,4.7,10.5,10.5v43.4c0,5.8-4.7,10.5-10.5,10.5H10.5
	C4.7,64.4,0,59.7,0,53.9z M10.5,3C6.4,3,3,6.4,3,10.5v43.4c0,4.1,3.4,7.5,7.5,7.5h173.7c4.1,0,7.5-3.4,7.5-7.5V10.5
	c0-4.1-3.4-7.5-7.5-7.5H10.5z"/>
<polygon class="st2" points="9.5,34.1 25.5,21.2 25.5,29.2 51.4,29.2 51.4,39 25.5,39 25.5,47 "/>
</svg>
