<svg id="Слой_2" data-name="Слой 2" xmlns="http://www.w3.org/2000/svg" viewBox="0 0 326.9 253.63"><defs><style>.cls-1{fill:#fafafa;}.cls-2{fill:#303030;}.cls-3{fill:#232323;}.cls-4{fill:#606060;}.cls-5{fill:#8a9995;}</style></defs><title>road detail</title><rect class="cls-1" x="2.97" y="2.97" width="322.26" height="138.29"/><rect class="cls-2" x="275.82" y="152.23" width="16.77" height="101.14"/><path class="cls-3" d="M278.4,253.63H273V152h5.42Zm-4.91-.52h4.39V152.49h-4.39Z"/><rect class="cls-3" x="273.2" y="156.61" width="4.98" height="0.52" transform="translate(-38.11 110.59) rotate(-21.25)"/><rect class="cls-3" x="273.2" y="164.35" width="4.98" height="0.52" transform="translate(-40.92 111.11) rotate(-21.25)"/><rect class="cls-3" x="273.2" y="172.09" width="4.98" height="0.52" transform="translate(-43.72 111.64) rotate(-21.25)"/><rect class="cls-3" x="273.2" y="179.84" width="4.98" height="0.52" transform="translate(-46.53 112.17) rotate(-21.25)"/><rect class="cls-3" x="273.2" y="187.58" width="4.98" height="0.52" transform="translate(-49.33 112.69) rotate(-21.25)"/><rect class="cls-3" x="273.2" y="195.32" width="4.98" height="0.52" transform="translate(-52.14 113.22) rotate(-21.25)"/><rect class="cls-3" x="273.2" y="203.06" width="4.98" height="0.52" transform="translate(-54.95 113.75) rotate(-21.25)"/><rect class="cls-3" x="273.2" y="210.8" width="4.98" height="0.52" transform="translate(-57.75 114.27) rotate(-21.25)"/><rect class="cls-3" x="273.2" y="218.54" width="4.98" height="0.52" transform="translate(-60.56 114.8) rotate(-21.25)"/><rect class="cls-3" x="273.2" y="226.28" width="4.98" height="0.52" transform="translate(-63.36 115.32) rotate(-21.25)"/><rect class="cls-3" x="273.2" y="234.02" width="4.98" height="0.52" transform="translate(-66.17 115.85) rotate(-21.25)"/><rect class="cls-3" x="273.2" y="241.76" width="4.98" height="0.52" transform="translate(-68.97 116.38) rotate(-21.25)"/><path class="cls-3" d="M323.81,3.1V139.33H3.1V3.1H323.81M326.9,0H0V142.42H326.9V0Z"/><rect class="cls-3" x="14.71" y="142.42" width="296.33" height="12.64"/><polygon class="cls-4" points="311.55 145.61 14.19 145.61 14.71 143.46 311.03 143.46 311.55 145.61"/><polygon class="cls-4" points="311.55 148.99 14.19 148.99 14.71 146.84 311.03 146.84 311.55 148.99"/><polygon class="cls-4" points="311.55 152.33 14.19 152.33 14.71 150.17 311.03 150.17 311.55 152.33"/><polygon class="cls-4" points="311.55 155.71 14.19 155.71 14.71 153.56 311.03 153.56 311.55 155.71"/><rect class="cls-2" x="24" y="155.58" width="2.58" height="9.8"/><rect class="cls-4" x="24" y="163.06" width="2.58" height="2.32"/><rect class="cls-4" x="1.03" y="160.48" width="325.87" height="1.55"/><rect class="cls-2" x="96.24" y="155.58" width="0.77" height="4.9"/><rect class="cls-2" x="67.86" y="155.58" width="2.58" height="9.8"/><rect class="cls-4" x="67.86" y="163.06" width="2.58" height="2.32"/><rect class="cls-2" x="74.82" y="155.58" width="2.58" height="9.8"/><rect class="cls-4" x="74.82" y="163.06" width="2.58" height="2.32"/><rect class="cls-2" x="118.69" y="155.58" width="2.58" height="9.8"/><rect class="cls-4" x="118.69" y="163.06" width="2.58" height="2.32"/><rect class="cls-2" x="138.55" y="155.58" width="2.58" height="9.8"/><rect class="cls-4" x="138.55" y="163.06" width="2.58" height="2.32"/><rect class="cls-2" x="182.42" y="155.58" width="2.58" height="9.8"/><rect class="cls-4" x="182.42" y="163.06" width="2.58" height="2.32"/><rect class="cls-2" x="197.9" y="155.58" width="2.58" height="9.8"/><rect class="cls-4" x="197.9" y="163.06" width="2.58" height="2.32"/><rect class="cls-2" x="241.76" y="155.58" width="2.58" height="9.8"/><rect class="cls-4" x="241.76" y="163.06" width="2.58" height="2.32"/><rect class="cls-2" x="296.97" y="155.58" width="2.58" height="9.8"/><rect class="cls-4" x="296.97" y="163.06" width="2.58" height="2.32"/><path class="cls-5" d="M267.83,146.81h1.77a6.21,6.21,0,0,1,6.21,6.21v.5a0,0,0,0,1,0,0H261.62a0,0,0,0,1,0,0V153A6.21,6.21,0,0,1,267.83,146.81Z" transform="translate(537.44 300.33) rotate(-180)"/><polygon class="cls-2" points="267.82 162.81 268.59 162.81 269.11 161.84 269.11 153.26 268.33 153.26 268.33 161.87 267.82 162.81"/><path class="cls-5" d="M46.18,146.81H60.37a0,0,0,0,1,0,0v.5a6.21,6.21,0,0,1-6.21,6.21H52.39a6.21,6.21,0,0,1-6.21-6.21v-.5A0,0,0,0,1,46.18,146.81Z"/><polygon class="cls-2" points="54.18 162.81 53.41 162.81 52.89 161.84 52.89 153.26 53.67 153.26 53.67 161.87 54.18 162.81"/></svg>