<svg id="Слой_2" data-name="Слой 2" xmlns="http://www.w3.org/2000/svg" viewBox="0 0 267.18 218.74"><defs><style>.cls-1{fill:#a4a2a1;}.cls-2{fill:#686463;}.cls-3{fill:#51616b;}.cls-4{fill:#fff;}.cls-5{fill:#3d3b38;}.cls-6{fill:#8a9995;}.cls-7{fill:#768c86;}</style></defs><title>road detail</title><rect class="cls-1" x="137.46" y="42.59" width="129.72" height="176.16"/><rect class="cls-2" x="199.42" y="42.59" width="21.3" height="176.16"/><rect class="cls-2" x="243.95" y="42.59" width="23.23" height="176.16"/><rect class="cls-3" x="174.25" y="32.91" width="65.83" height="9.68"/><rect class="cls-4" x="137.46" y="56.14" width="58.08" height="158.73"/><rect class="cls-5" x="137.46" y="61.95" width="58.08" height="1.94"/><rect class="cls-5" x="137.46" y="69.69" width="58.08" height="1.94"/><rect class="cls-5" x="137.46" y="77.43" width="58.08" height="1.94"/><rect class="cls-5" x="137.46" y="87.11" width="58.08" height="1.94"/><rect class="cls-5" x="137.46" y="94.85" width="58.08" height="1.94"/><rect class="cls-5" x="137.46" y="102.6" width="58.08" height="1.94"/><rect class="cls-5" x="137.46" y="110.34" width="58.08" height="1.94"/><rect class="cls-5" x="137.46" y="118.08" width="58.08" height="1.94"/><rect class="cls-5" x="137.46" y="125.83" width="58.08" height="1.94"/><rect class="cls-5" x="137.46" y="135.51" width="58.08" height="1.94"/><rect class="cls-5" x="137.46" y="143.25" width="58.08" height="1.94"/><rect class="cls-5" x="137.46" y="150.99" width="58.08" height="1.94"/><rect class="cls-5" x="137.46" y="158.73" width="58.08" height="1.94"/><rect class="cls-5" x="137.46" y="166.48" width="58.08" height="1.94"/><rect class="cls-5" x="137.46" y="174.22" width="58.08" height="1.94"/><rect class="cls-5" x="137.46" y="183.9" width="58.08" height="1.94"/><rect class="cls-5" x="137.46" y="191.64" width="58.08" height="1.94"/><rect class="cls-5" x="137.46" y="199.39" width="58.08" height="1.94"/><rect class="cls-5" x="137.46" y="207.13" width="58.08" height="1.94"/><rect class="cls-4" x="220.71" y="58.07" width="21.3" height="158.73"/><rect class="cls-5" x="220.71" y="63.88" width="21.3" height="1.94"/><rect class="cls-5" x="220.71" y="71.62" width="21.3" height="1.94"/><rect class="cls-5" x="220.71" y="79.37" width="21.3" height="1.94"/><rect class="cls-5" x="220.71" y="89.05" width="21.3" height="1.94"/><rect class="cls-5" x="220.71" y="96.79" width="21.3" height="1.94"/><rect class="cls-5" x="220.71" y="104.53" width="21.3" height="1.94"/><rect class="cls-5" x="220.71" y="112.28" width="21.3" height="1.94"/><rect class="cls-5" x="220.71" y="120.02" width="21.3" height="1.94"/><rect class="cls-5" x="220.71" y="127.76" width="21.3" height="1.94"/><rect class="cls-5" x="220.71" y="137.44" width="21.3" height="1.94"/><rect class="cls-5" x="220.71" y="145.18" width="21.3" height="1.94"/><rect class="cls-5" x="220.71" y="152.93" width="21.3" height="1.94"/><rect class="cls-5" x="220.71" y="160.67" width="21.3" height="1.94"/><rect class="cls-5" x="220.71" y="168.41" width="21.3" height="1.94"/><rect class="cls-5" x="220.71" y="176.16" width="21.3" height="1.94"/><rect class="cls-5" x="220.71" y="185.84" width="21.3" height="1.94"/><rect class="cls-5" x="220.71" y="193.58" width="21.3" height="1.94"/><rect class="cls-5" x="220.71" y="201.32" width="21.3" height="1.94"/><rect class="cls-5" x="220.71" y="209.07" width="21.3" height="1.94"/><rect class="cls-6" y="21.29" width="118.1" height="197.45"/><rect class="cls-4" x="5.81" y="29.04" width="108.42" height="5.81"/><rect class="cls-6" x="17.42" y="29.04" width="1.94" height="5.81"/><rect class="cls-6" x="29.04" y="29.04" width="1.94" height="5.81"/><rect class="cls-6" x="42.59" y="29.04" width="9.68" height="5.81"/><rect class="cls-6" x="73.57" y="29.04" width="1.94" height="5.81"/><rect class="cls-6" x="94.87" y="29.04" width="1.94" height="5.81"/><rect class="cls-3" x="52.27" width="52.27" height="21.29"/><rect class="cls-4" x="5.81" y="42.59" width="108.42" height="5.81"/><rect class="cls-6" x="17.42" y="42.59" width="1.94" height="5.81"/><rect class="cls-6" x="29.04" y="42.59" width="1.94" height="5.81"/><rect class="cls-6" x="42.59" y="42.59" width="9.68" height="5.81"/><rect class="cls-6" x="73.57" y="42.59" width="1.94" height="5.81"/><rect class="cls-6" x="94.87" y="42.59" width="1.94" height="5.81"/><rect class="cls-4" x="5.81" y="56.14" width="108.42" height="5.81"/><rect class="cls-6" x="17.42" y="56.14" width="1.94" height="5.81"/><rect class="cls-6" x="29.04" y="56.14" width="1.94" height="5.81"/><rect class="cls-6" x="42.59" y="56.14" width="9.68" height="5.81"/><rect class="cls-6" x="73.57" y="56.14" width="1.94" height="5.81"/><rect class="cls-6" x="94.87" y="56.14" width="1.94" height="5.81"/><rect class="cls-4" x="5.81" y="69.69" width="108.42" height="5.81"/><rect class="cls-6" x="17.42" y="69.69" width="1.94" height="5.81"/><rect class="cls-6" x="29.04" y="69.69" width="1.94" height="5.81"/><rect class="cls-6" x="42.59" y="69.69" width="9.68" height="5.81"/><rect class="cls-6" x="73.57" y="69.69" width="1.94" height="5.81"/><rect class="cls-6" x="94.87" y="69.69" width="1.94" height="5.81"/><rect class="cls-4" x="5.81" y="81.3" width="108.42" height="5.81"/><rect class="cls-6" x="17.42" y="81.3" width="1.94" height="5.81"/><rect class="cls-6" x="29.04" y="81.3" width="1.94" height="5.81"/><rect class="cls-6" x="42.59" y="81.3" width="9.68" height="5.81"/><rect class="cls-6" x="73.57" y="81.3" width="1.94" height="5.81"/><rect class="cls-6" x="94.87" y="81.3" width="1.94" height="5.81"/><rect class="cls-4" x="5.81" y="94.85" width="108.42" height="5.81"/><rect class="cls-6" x="17.42" y="94.85" width="1.94" height="5.81"/><rect class="cls-6" x="29.04" y="94.85" width="1.94" height="5.81"/><rect class="cls-6" x="42.59" y="94.85" width="9.68" height="5.81"/><rect class="cls-6" x="73.57" y="94.85" width="1.94" height="5.81"/><rect class="cls-6" x="94.87" y="94.85" width="1.94" height="5.81"/><rect class="cls-4" x="5.81" y="108.4" width="108.42" height="5.81"/><rect class="cls-6" x="17.42" y="108.4" width="1.94" height="5.81"/><rect class="cls-6" x="29.04" y="108.4" width="1.94" height="5.81"/><rect class="cls-6" x="42.59" y="108.4" width="9.68" height="5.81"/><rect class="cls-6" x="73.57" y="108.4" width="1.94" height="5.81"/><rect class="cls-6" x="94.87" y="108.4" width="1.94" height="5.81"/><rect class="cls-4" x="5.81" y="121.95" width="108.42" height="5.81"/><rect class="cls-6" x="17.42" y="121.95" width="1.94" height="5.81"/><rect class="cls-6" x="29.04" y="121.95" width="1.94" height="5.81"/><rect class="cls-6" x="42.59" y="121.95" width="9.68" height="5.81"/><rect class="cls-6" x="73.57" y="121.95" width="1.94" height="5.81"/><rect class="cls-6" x="94.87" y="121.95" width="1.94" height="5.81"/><rect class="cls-4" x="5.81" y="135.51" width="108.42" height="5.81"/><rect class="cls-6" x="17.42" y="135.51" width="1.94" height="5.81"/><rect class="cls-6" x="29.04" y="135.51" width="1.94" height="5.81"/><rect class="cls-6" x="42.59" y="135.51" width="9.68" height="5.81"/><rect class="cls-6" x="73.57" y="135.51" width="1.94" height="5.81"/><rect class="cls-6" x="94.87" y="135.51" width="1.94" height="5.81"/><rect class="cls-4" x="5.81" y="149.06" width="108.42" height="5.81"/><rect class="cls-6" x="17.42" y="149.06" width="1.94" height="5.81"/><rect class="cls-6" x="29.04" y="149.06" width="1.94" height="5.81"/><rect class="cls-6" x="42.59" y="149.06" width="9.68" height="5.81"/><rect class="cls-6" x="73.57" y="149.06" width="1.94" height="5.81"/><rect class="cls-6" x="94.87" y="149.06" width="1.94" height="5.81"/><rect class="cls-4" x="5.81" y="162.61" width="108.42" height="5.81"/><rect class="cls-6" x="17.42" y="162.61" width="1.94" height="5.81"/><rect class="cls-6" x="29.04" y="162.61" width="1.94" height="5.81"/><rect class="cls-6" x="42.59" y="162.61" width="9.68" height="5.81"/><rect class="cls-6" x="73.57" y="162.61" width="1.94" height="5.81"/><rect class="cls-6" x="94.87" y="162.61" width="1.94" height="5.81"/><rect class="cls-4" x="5.81" y="176.16" width="108.42" height="5.81"/><rect class="cls-6" x="17.42" y="176.16" width="1.94" height="5.81"/><rect class="cls-6" x="29.04" y="176.16" width="1.94" height="5.81"/><rect class="cls-6" x="42.59" y="176.16" width="9.68" height="5.81"/><rect class="cls-6" x="73.57" y="176.16" width="1.94" height="5.81"/><rect class="cls-6" x="94.87" y="176.16" width="1.94" height="5.81"/><rect class="cls-4" x="5.81" y="189.71" width="108.42" height="5.81"/><rect class="cls-6" x="17.42" y="189.71" width="1.94" height="5.81"/><rect class="cls-6" x="29.04" y="189.71" width="1.94" height="5.81"/><rect class="cls-6" x="42.59" y="189.71" width="9.68" height="5.81"/><rect class="cls-6" x="73.57" y="189.71" width="1.94" height="5.81"/><rect class="cls-6" x="94.87" y="189.71" width="1.94" height="5.81"/><rect class="cls-4" x="5.81" y="203.26" width="108.42" height="5.81"/><rect class="cls-6" x="17.42" y="203.26" width="1.94" height="5.81"/><rect class="cls-6" x="29.04" y="203.26" width="1.94" height="5.81"/><rect class="cls-6" x="42.59" y="203.26" width="9.68" height="5.81"/><rect class="cls-6" x="73.57" y="203.26" width="1.94" height="5.81"/><rect class="cls-6" x="94.87" y="203.26" width="1.94" height="5.81"/><rect class="cls-7" x="44.53" y="21.29" width="5.81" height="197.45"/></svg>