<svg id="Слой_1" data-name="Слой 1" xmlns="http://www.w3.org/2000/svg" xmlns:xlink="http://www.w3.org/1999/xlink" viewBox="0 0 292.57 270.68"><defs><style>.cls-1{fill:none;}.cls-2{fill:#f69576;}.cls-3{fill:#dd866f;}.cls-4{fill:#a5713d;}.cls-5{fill:#6b3425;}.cls-6{fill:#fff;}.cls-7{fill:#72645d;}.cls-8{opacity:0.15;}.cls-9{fill:#232323;}.cls-10{clip-path:url(#clip-path);}.cls-11{clip-path:url(#clip-path-2);}.cls-12,.cls-19{fill:#0c96fd;}.cls-13{fill:#1d7dcc;}.cls-14{fill:#8a9995;}.cls-15{fill:#606060;}.cls-16{fill:#303030;}.cls-17{fill:#3b3b3b;}.cls-18{opacity:0.53;}.cls-19{opacity:0.21;}</style><clipPath id="clip-path"><rect class="cls-1" x="4.86" y="179.64" width="102.71" height="35.27" rx="5.98" transform="translate(252.6 138.02) rotate(89.11)"/></clipPath><clipPath id="clip-path-2"><rect class="cls-1" x="193.09" y="179.64" width="102.71" height="35.27" rx="5.98" transform="translate(437.92 -50.19) rotate(89.11)"/></clipPath></defs><title>car</title><rect class="cls-2" x="151.23" y="76.31" width="72.51" height="25.84"/><path d="M155.47,54.71c1.75-9,18.52-6.56,30.47-6.17s22-4.63,28.16-.39,4.63,54,4.63,54H162S152.77,68.6,155.47,54.71Z"/><polygon class="cls-2" points="198.48 52.21 174.13 52.21 176.16 29.64 193.41 29.64 198.48 52.21"/><path class="cls-3" d="M175,43.14a21.93,21.93,0,0,0,11.36,3,22.51,22.51,0,0,0,10.27-2.34l-3.17-14.11H176.16Z"/><path class="cls-4" d="M175.92,6.11a10.62,10.62,0,0,0-7.33,7.71c-.77,3.86.77,15.43,5,18.52s22.87-.45,23.92-.77c6.17-1.93,3.85-17.36.77-20.45S184,3.41,175.92,6.11Z"/><path class="cls-3" d="M167.21,19.76c.81-4,6.74-.38,5.64,7C171.75,34.38,166,25.7,167.21,19.76Z"/><path class="cls-5" d="M171.75,27.71s0,0-.06,0a.23.23,0,0,1,0-.23,8.65,8.65,0,0,0,0-3.86c-.22-1.15-.78-3.16-2.06-3.47a1.13,1.13,0,0,0-1.43.7,5.58,5.58,0,0,0-.21,2.43.35.35,0,0,1-.06.23s-.1,0-.12-.12a6.38,6.38,0,0,1,.25-2.74,1.27,1.27,0,0,1,1.59-.81c1,.23,1.8,1.58,2.19,3.71a9.26,9.26,0,0,1,0,4.2Z"/><path class="cls-5" d="M169.63,27.05s-.06,0-.08-.11a16.84,16.84,0,0,1,.3-7c0-.08.07-.12.11-.08a.29.29,0,0,1,0,.23,16.15,16.15,0,0,0-.29,6.71.31.31,0,0,1,0,.24S169.63,27.05,169.63,27.05Z"/><path class="cls-3" d="M196.88,26.78c-1.1-7.4,4.83-11,5.64-7C203.72,25.7,198,34.38,196.88,26.78Z"/><path class="cls-5" d="M197.93,27.71a9.26,9.26,0,0,1,0-4.2c.39-2.13,1.18-3.48,2.19-3.71a1.27,1.27,0,0,1,1.59.81,6.38,6.38,0,0,1,.25,2.74c0,.08-.08.16-.12.12a.34.34,0,0,1,0-.23,5.65,5.65,0,0,0-.22-2.43,1.13,1.13,0,0,0-1.43-.7c-1.28.31-1.84,2.32-2.06,3.47a8.65,8.65,0,0,0,0,3.86.23.23,0,0,1,0,.23s0,0,0,0Z"/><path class="cls-5" d="M200.06,27a.31.31,0,0,1,0-.24,16.15,16.15,0,0,0-.29-6.71.29.29,0,0,1,0-.23s.1,0,.12.08a16.75,16.75,0,0,1,.29,7c0,.08,0,.11-.08.11S200.08,27.05,200.06,27Z"/><path class="cls-2" d="M184.92,6.71c-8.43-2.43-14.79,2.48-14.79,15.47,0,6.36,1.34,7.68,3.63,13.12,1.12,2.68,7.08,8,10.92,9h.48c3.84-1,9.8-6.32,10.92-9,2.28-5.44,3.63-6.76,3.63-13.12C199.71,9.19,193.35,4.28,184.92,6.71Z"/><path class="cls-4" d="M170.13,11.51s5.37,0,8.87,1.93c4.24,2.31,11.56,5.65,18.13,5,12-1.15,3.47-14.65.39-14.65.77,1.15-.78,2.7-2.32,2.31S179.39-10.48,170.13,11.51Z"/><path class="cls-6" d="M180.7,32.76s.5,3.09,2.31,3.74,3.71.24,4.52-.81a8.8,8.8,0,0,0,1.27-3Z"/><path class="cls-5" d="M184.79,31.49a.46.46,0,0,1-.35-.12.93.93,0,0,1-.23-.73v-.11a.73.73,0,0,0-.27.23.65.65,0,0,1-.58.19.92.92,0,0,1-.58-.73,4.21,4.21,0,0,1,.5-1.82.19.19,0,0,1,.23-.07.18.18,0,0,1,.08.23,2.91,2.91,0,0,0-.46,1.54c.08.31.19.43.31.46s.15,0,.19-.07c.27-.27.46-.39.62-.39a.33.33,0,0,1,.23.16.68.68,0,0,1,0,.3.8.8,0,0,0,.11.51.45.45,0,0,0,.23,0c.24,0,.27-.23.27-.61,0-.2,0-.35.08-.43a.29.29,0,0,1,.19-.07c.16,0,.24.11.35.19s.31.19.46.08a.4.4,0,0,0,.08-.39,2.57,2.57,0,0,0-.62-1.43c-.07,0-.07-.15,0-.23a.17.17,0,0,1,.23,0,2.84,2.84,0,0,1,.77,1.7.82.82,0,0,1-.19.66.66.66,0,0,1-.93,0l-.08-.08v.08c0,.31,0,.88-.58,1Zm-.54-1Z"/><ellipse class="cls-5" cx="177.58" cy="25.59" rx="0.66" ry="1.31"/><path class="cls-5" d="M175.29,22.16a5.25,5.25,0,0,1,2.63-1.08,4.57,4.57,0,0,1,2.31.54c.46.11.54-.54.27-1.08s-1.23-1-2.85-.93a3.83,3.83,0,0,0-2.94,1.27C174.25,21.35,174.6,22.73,175.29,22.16Z"/><ellipse class="cls-5" cx="190.61" cy="25.67" rx="0.66" ry="1.31"/><path class="cls-5" d="M188,21.46a5.31,5.31,0,0,1,2.8-.42,4.56,4.56,0,0,1,2.12,1.08c.42.22.65-.4.52-1s-1-1.23-2.55-1.58a4,4,0,0,0-3.15.53C187.17,20.46,187.19,21.85,188,21.46Z"/><path class="cls-5" d="M189.69,37.2a26.55,26.55,0,0,1-2,3.82,10.61,10.61,0,0,1-5.48,0,26.55,26.55,0,0,1-2-3.82l-1,.23s1.54,5,1.78,5.4a12.9,12.9,0,0,0,3.74,2.23v.08l.19,0,.19,0v-.08a12.9,12.9,0,0,0,3.74-2.23c.24-.42,1.78-5.4,1.78-5.4Z"/><rect class="cls-5" x="184.4" y="37.35" width="1.54" height="3.09"/><ellipse class="cls-2" cx="186.14" cy="51.66" rx="13.69" ry="5.37"/><path d="M160.1,50.91c7.27,1,8.1,5.8,8.87,9.11s.77,20.72.77,20.72l-23.14,2.9s.77-15.33,3.09-24C151.59,52.44,157,50.49,160.1,50.91Z"/><path d="M211.9,49c-7.27,1-8.1,5.8-8.87,9.11s-.77,20.72-.77,20.72l23.14,2.9s-.77-15.33-3.08-24C220.41,50.51,215,48.56,211.9,49Z"/><path class="cls-2" d="M211.87,64.18c-.5-.94-2.34.26-2.61,1s.54,8.87.54,8.87-2.55,2.08-2.61,4.79,3.56,4.78,3.78,5.1-.43,2.81,3,4.25,6.11.42,6.38-1.38-5.63-15-6.59-17.54S212.29,65,211.87,64.18Z"/><path class="cls-2" d="M161.87,66c.5-.93,2.34.27,2.61,1s-.54,8.88-.54,8.88,2.55,2.07,2.61,4.78-3.56,4.79-3.78,5.1.43,2.82-3,4.26-6.11.42-6.38-1.39,5.63-15,6.59-17.53S161.45,66.78,161.87,66Z"/><path class="cls-7" d="M220.08,102.54l-.57-9.11s-1.28,4.1-5,4.1-8.45-3.09-15.1-5.69a34,34,0,0,0-13.21-2,28.77,28.77,0,0,0-11.23,2c-6.64,2.6-11.32,5.69-15.09,5.69s-5.05-4.1-5.05-4.1l-.57,9.11Z"/><path class="cls-7" d="M155.56,102.54c0-.59-.05-1.19-.05-1.79a32.1,32.1,0,0,1,64.2,0c0,.6,0,1.2-.06,1.79h6.63c0-.59,0-1.19,0-1.79a38.72,38.72,0,0,0-77.43,0c0,.6,0,1.2,0,1.79Z"/><path class="cls-2" d="M155.25,68.93a48.52,48.52,0,0,1,7.92,7.82c.75,1.27.27,3.34-1.48,2.87s-8-6.17-9.09-7.6S153.24,67.76,155.25,68.93Z"/><path class="cls-2" d="M151.34,71.55c1.67.79,7.67,6,8.51,7.17s.53,3.31-1.26,3-8.43-5.52-9.65-6.86S149.24,70.54,151.34,71.55Z"/><path class="cls-2" d="M150.12,76.65a47.09,47.09,0,0,1,9.08,5.68c1,1,1,3.09-.8,3s-8.78-4.13-10.13-5.24S148,76,150.12,76.65Z"/><path class="cls-2" d="M150.66,81.53a39.42,39.42,0,0,1,7.39,5.13c.75.9.58,2.55-.93,2.38s-7.25-3.85-8.33-4.83A1.7,1.7,0,0,1,150.66,81.53Z"/><path class="cls-2" d="M218.49,67.13a48.08,48.08,0,0,0-7.92,7.81c-.75,1.28-.27,3.35,1.48,2.87s8-6.17,9.09-7.6S220.5,66,218.49,67.13Z"/><path class="cls-2" d="M222.4,69.74a48.78,48.78,0,0,0-8.51,7.17c-.84,1.21-.53,3.32,1.26,3s8.43-5.53,9.65-6.87S224.5,68.73,222.4,69.74Z"/><path class="cls-2" d="M223.62,74.84a47.09,47.09,0,0,0-9.08,5.68c-1,1-.95,3.1.8,3s8.78-4.12,10.13-5.24S225.76,74.16,223.62,74.84Z"/><path class="cls-2" d="M223.08,79.72a39.42,39.42,0,0,0-7.39,5.13c-.75.9-.58,2.55.93,2.39s7.25-3.86,8.33-4.84A1.7,1.7,0,0,0,223.08,79.72Z"/><path class="cls-8" d="M292.57,251.07c0,10.83-65.49,19.61-146.28,19.61S0,261.9,0,251.07c0-5.66,17.83-66.8,46.35-70.38,26.15-3.28,61.3-5.29,99.94-5.29,40.39,0,77,2.2,103.44,5.75S292.57,245.65,292.57,251.07Z"/><rect class="cls-9" x="4.86" y="179.64" width="102.71" height="35.27" rx="5.98" transform="translate(252.6 138.02) rotate(89.11)"/><g class="cls-10"><polygon points="62.6 156.12 66.83 148.34 74.9 147.8 74.75 137.75 68.38 137.85 62.47 147.53 62.6 156.12"/><polygon points="51.61 152.1 55.93 158.71 60.05 152.28 59.91 143.22 55.78 149.13 51.46 142.62 51.61 152.1"/><polygon points="48.79 147.74 42.59 138.25 36.22 138.35 36.37 148.4 44.46 148.69 48.93 156.34 48.79 147.74"/><polygon points="62.81 169.8 67.04 162.01 75.11 161.47 74.96 151.43 68.59 151.53 62.68 161.2 62.81 169.8"/><polygon points="56.14 172.38 60.26 165.95 60.12 156.89 55.99 162.81 51.67 156.29 51.82 165.77 56.14 172.38"/><polygon points="49 161.41 42.8 151.92 36.43 152.02 36.58 162.07 44.67 162.36 49.14 170.01 49 161.41"/><polygon points="63.04 184.71 67.27 176.93 75.34 176.39 75.19 166.34 68.82 166.44 62.91 176.11 63.04 184.71"/><polygon points="56.37 187.3 60.49 180.87 60.35 171.8 56.22 177.72 51.9 171.21 52.05 180.69 56.37 187.3"/><polygon points="49.23 176.32 43.03 166.84 36.66 166.94 36.81 176.98 44.9 177.27 49.37 184.92 49.23 176.32"/><polygon points="63.25 198.38 67.48 190.6 75.55 190.06 75.4 180.01 69.03 180.11 63.12 189.79 63.25 198.38"/><polygon points="56.58 200.97 60.7 194.54 60.56 185.47 56.44 191.39 52.11 184.88 52.26 194.36 56.58 200.97"/><polygon points="49.45 190 43.24 180.51 36.87 180.61 37.02 190.66 45.11 190.94 49.58 198.59 49.45 190"/><polygon points="63.46 212.05 67.69 204.27 75.77 203.73 75.61 193.69 69.24 193.78 63.33 203.46 63.46 212.05"/><polygon points="56.79 214.64 60.92 208.21 60.78 199.15 56.65 205.06 52.32 198.55 52.47 208.03 56.79 214.64"/><polygon points="49.66 203.67 43.45 194.18 37.08 194.28 37.24 204.33 45.32 204.62 49.79 212.27 49.66 203.67"/><polygon points="63.67 225.73 67.9 217.94 75.98 217.4 75.82 207.36 69.45 207.46 63.54 217.13 63.67 225.73"/><polygon points="57.01 228.32 61.13 221.88 60.99 212.82 56.86 218.74 52.53 212.22 52.68 221.7 57.01 228.32"/><polygon points="49.87 217.34 43.66 207.85 37.29 207.95 37.45 218 45.53 218.29 50 225.94 49.87 217.34"/><polygon points="63.9 240.64 68.14 232.86 76.21 232.32 76.05 222.27 69.68 222.37 63.77 232.04 63.9 240.64"/><polygon points="57.24 243.23 61.36 236.79 61.22 227.73 57.09 233.65 52.77 227.14 52.91 236.62 57.24 243.23"/><polygon points="50.1 232.25 43.89 222.77 37.52 222.87 37.68 232.91 45.76 233.2 50.23 240.85 50.1 232.25"/><polygon points="64.11 254.31 68.35 246.53 76.42 245.99 76.26 235.94 69.89 236.04 63.98 245.72 64.11 254.31"/><polygon points="57.45 256.9 61.57 250.47 61.43 241.4 57.3 247.32 52.98 240.81 53.12 250.29 57.45 256.9"/><polygon points="44.1 236.44 37.73 236.54 37.89 246.59 45.97 246.88 50.44 254.52 50.31 245.93 44.1 236.44"/></g><rect class="cls-9" x="193.09" y="179.64" width="102.71" height="35.27" rx="5.98" transform="translate(437.92 -50.19) rotate(89.11)"/><g class="cls-11"><polygon points="250.83 156.12 255.06 148.34 263.13 147.8 262.97 137.75 256.6 137.85 250.69 147.53 250.83 156.12"/><polygon points="239.83 152.1 244.16 158.71 248.28 152.28 248.14 143.22 244.01 149.13 239.69 142.62 239.83 152.1"/><polygon points="237.02 147.74 230.81 138.25 224.44 138.35 224.6 148.4 232.69 148.69 237.15 156.34 237.02 147.74"/><polygon points="251.04 169.8 255.27 162.01 263.34 161.47 263.19 151.43 256.82 151.53 250.91 161.2 251.04 169.8"/><polygon points="244.37 172.38 248.49 165.95 248.35 156.89 244.22 162.81 239.9 156.29 240.05 165.77 244.37 172.38"/><polygon points="237.23 161.41 231.03 151.92 224.66 152.02 224.81 162.07 232.9 162.36 237.37 170.01 237.23 161.41"/><polygon points="251.27 184.71 255.5 176.93 263.57 176.39 263.42 166.34 257.05 166.44 251.13 176.11 251.27 184.71"/><polygon points="244.6 187.3 248.72 180.87 248.58 171.8 244.45 177.72 240.13 171.21 240.28 180.69 244.6 187.3"/><polygon points="237.46 176.32 231.26 166.84 224.89 166.94 225.04 176.98 233.13 177.27 237.6 184.92 237.46 176.32"/><polygon points="251.48 198.38 255.71 190.6 263.78 190.06 263.63 180.01 257.26 180.11 251.35 189.79 251.48 198.38"/><polygon points="244.81 200.97 248.93 194.54 248.79 185.47 244.66 191.39 240.34 184.88 240.49 194.36 244.81 200.97"/><polygon points="237.67 190 231.47 180.51 225.1 180.61 225.25 190.66 233.34 190.94 237.81 198.59 237.67 190"/><polygon points="251.69 212.05 255.92 204.27 263.99 203.73 263.84 193.69 257.47 193.78 251.56 203.46 251.69 212.05"/><polygon points="245.02 214.64 249.14 208.21 249 199.15 244.87 205.06 240.55 198.55 240.7 208.03 245.02 214.64"/><polygon points="237.89 203.67 231.68 194.18 225.31 194.28 225.46 204.33 233.55 204.62 238.02 212.27 237.89 203.67"/><polygon points="251.9 225.73 256.13 217.94 264.2 217.4 264.05 207.36 257.68 207.46 251.77 217.13 251.9 225.73"/><polygon points="245.23 228.32 249.36 221.88 249.22 212.82 245.09 218.74 240.76 212.22 240.91 221.7 245.23 228.32"/><polygon points="238.1 217.34 231.89 207.85 225.52 207.95 225.68 218 233.76 218.29 238.23 225.94 238.1 217.34"/><polygon points="252.13 240.64 256.36 232.86 264.44 232.32 264.28 222.27 257.91 222.37 252 232.04 252.13 240.64"/><polygon points="245.46 243.23 249.59 236.79 249.45 227.73 245.32 233.65 240.99 227.14 241.14 236.62 245.46 243.23"/><polygon points="238.33 232.25 232.12 222.77 225.75 222.87 225.91 232.91 233.99 233.2 238.46 240.85 238.33 232.25"/><polygon points="252.34 254.31 256.57 246.53 264.65 245.99 264.49 235.94 258.12 236.04 252.21 245.72 252.34 254.31"/><polygon points="245.68 256.9 249.8 250.47 249.66 241.4 245.53 247.32 241.21 240.81 241.35 250.29 245.68 256.9"/><polygon points="232.33 236.44 225.96 236.54 226.12 246.59 234.2 246.88 238.67 254.52 238.54 245.93 232.33 236.44"/></g><path class="cls-12" d="M64.24,44.5c-4.06,9.57-8.87,20.42-12.32,26.86-7.2,13.42-12.12,29.8-17.51,36.92S20.48,123.1,16.22,132s-3.93,18.83-3.93,18.83l144.44-3.11V44.5Z"/><path class="cls-13" d="M156.73,147.67H17.93a8.58,8.58,0,0,0-8.58,8.58v38.91H288V156.25a8.58,8.58,0,0,0-8.58-8.58Z"/><path class="cls-12" d="M24.92,77.58h15a3.36,3.36,0,0,1,3.36,3.36v9.31a0,0,0,0,1,0,0H24.92a2.15,2.15,0,0,1-2.15-2.15V79.73a2.15,2.15,0,0,1,2.15-2.15Z"/><path class="cls-14" d="M14.26,169.94s15.61-2.29,18.78,0S43.3,189.26,43.3,189.26H22.77Z"/><path class="cls-6" d="M20.81,138.82c2.51-4.8,33.08-6.22,38.32-2.62s11.79,13.43,10.48,15.72S13.28,153.23,20.81,138.82Z"/><circle class="cls-6" cx="80.99" cy="144.64" r="5.16"/><path class="cls-15" d="M6.73,195.16h150a0,0,0,0,1,0,0v21.29a0,0,0,0,1,0,0H9.63a2.9,2.9,0,0,1-2.9-2.9V195.16A0,0,0,0,1,6.73,195.16Z"/><path class="cls-16" d="M156.73,189.26h-67a5.19,5.19,0,0,1-5.14-5.92L87.9,160a8.32,8.32,0,0,1,8.24-7.14h60.59Z"/><rect class="cls-15" x="106.78" y="154.54" width="49.95" height="5.39"/><rect class="cls-15" x="106.78" y="164.14" width="49.95" height="5.39"/><rect class="cls-15" x="106.78" y="171.33" width="49.95" height="5.39"/><rect class="cls-15" x="106.78" y="180.92" width="49.95" height="5.39"/><polygon class="cls-14" points="107.27 191.88 101.05 191.88 106.29 149.8 112.51 149.8 107.27 191.88"/><rect class="cls-16" x="131.75" y="205.8" width="24.97" height="6.71"/><path class="cls-12" d="M262.91,108.28c-5.4-7.12-10.31-23.5-17.51-36.92-3.45-6.44-8.26-17.29-12.32-26.86H140.59V147.67L285,150.78s.32-10-3.93-18.83S268.31,115.39,262.91,108.28Z"/><path class="cls-12" d="M256.17,77.58h18.37a0,0,0,0,1,0,0v9.31a3.36,3.36,0,0,1-3.36,3.36h-15A2.15,2.15,0,0,1,254,88.1V79.73A2.15,2.15,0,0,1,256.17,77.58Z" transform="translate(528.57 167.83) rotate(180)"/><path class="cls-14" d="M283.06,169.94s-15.61-2.29-18.78,0S254,189.26,254,189.26h20.53Z"/><path class="cls-6" d="M276.51,138.82c-2.51-4.8-33.08-6.22-38.32-2.62s-11.79,13.43-10.48,15.72S284,153.23,276.51,138.82Z"/><circle class="cls-6" cx="216.33" cy="144.64" r="5.16"/><path class="cls-15" d="M143.49,195.16h147.1a0,0,0,0,1,0,0v21.29a0,0,0,0,1,0,0h-150a0,0,0,0,1,0,0V198.06A2.9,2.9,0,0,1,143.49,195.16Z" transform="translate(431.19 411.6) rotate(-180)"/><path class="cls-17" d="M67.79,44.5,51.6,85.44s5.24,14.08,26.85,15.72c14.25,1.08,43.7,1.45,62.14,1.57v.07l8.07,0,8.07,0v-.07c18.44-.12,47.89-.49,62.14-1.57,21.61-1.64,26.85-15.72,26.85-15.72L229.53,44.5Z"/><path class="cls-16" d="M140.59,189.26h67a5.18,5.18,0,0,0,5.13-5.92L209.42,160a8.33,8.33,0,0,0-8.25-7.14H140.59Z"/><rect class="cls-15" x="140.59" y="154.54" width="49.95" height="5.39" transform="translate(331.13 314.48) rotate(-180)"/><rect class="cls-15" x="140.59" y="164.14" width="49.95" height="5.39" transform="translate(331.13 333.66) rotate(-180)"/><rect class="cls-15" x="140.59" y="171.33" width="49.95" height="5.39" transform="translate(331.13 348.05) rotate(-180)"/><rect class="cls-15" x="140.59" y="180.92" width="49.95" height="5.39" transform="translate(331.13 367.23) rotate(-180)"/><polygon class="cls-14" points="190.05 191.88 196.27 191.88 191.03 149.8 184.81 149.8 190.05 191.88"/><rect class="cls-16" x="140.59" y="205.8" width="24.97" height="6.71" transform="translate(306.16 418.31) rotate(-180)"/><g class="cls-18"><rect class="cls-2" x="151.23" y="76.31" width="72.51" height="25.84"/><path d="M155.47,54.71c1.75-9,18.52-6.56,30.47-6.17s22-4.63,28.16-.39,4.63,54,4.63,54H162S152.77,68.6,155.47,54.71Z"/><polygon class="cls-2" points="198.48 52.21 174.13 52.21 176.16 29.64 193.41 29.64 198.48 52.21"/><path class="cls-3" d="M175,43.14a21.93,21.93,0,0,0,11.36,3,22.51,22.51,0,0,0,10.27-2.34l-3.17-14.11H176.16Z"/><path class="cls-4" d="M175.92,6.11a10.62,10.62,0,0,0-7.33,7.71c-.77,3.86.77,15.43,5,18.52s22.87-.45,23.92-.77c6.17-1.93,3.85-17.36.77-20.45S184,3.41,175.92,6.11Z"/><path class="cls-3" d="M167.21,19.76c.81-4,6.74-.38,5.64,7C171.75,34.38,166,25.7,167.21,19.76Z"/><path class="cls-5" d="M171.75,27.71s0,0-.06,0a.23.23,0,0,1,0-.23,8.65,8.65,0,0,0,0-3.86c-.22-1.15-.78-3.16-2.06-3.47a1.13,1.13,0,0,0-1.43.7,5.58,5.58,0,0,0-.21,2.43.35.35,0,0,1-.06.23s-.1,0-.12-.12a6.38,6.38,0,0,1,.25-2.74,1.27,1.27,0,0,1,1.59-.81c1,.23,1.8,1.58,2.19,3.71a9.26,9.26,0,0,1,0,4.2Z"/><path class="cls-5" d="M169.63,27.05s-.06,0-.08-.11a16.84,16.84,0,0,1,.3-7c0-.08.07-.12.11-.08a.29.29,0,0,1,0,.23,16.15,16.15,0,0,0-.29,6.71.31.31,0,0,1,0,.24S169.63,27.05,169.63,27.05Z"/><path class="cls-3" d="M196.88,26.78c-1.1-7.4,4.83-11,5.64-7C203.72,25.7,198,34.38,196.88,26.78Z"/><path class="cls-5" d="M197.93,27.71a9.26,9.26,0,0,1,0-4.2c.39-2.13,1.18-3.48,2.19-3.71a1.27,1.27,0,0,1,1.59.81,6.38,6.38,0,0,1,.25,2.74c0,.08-.08.16-.12.12a.34.34,0,0,1,0-.23,5.65,5.65,0,0,0-.22-2.43,1.13,1.13,0,0,0-1.43-.7c-1.28.31-1.84,2.32-2.06,3.47a8.65,8.65,0,0,0,0,3.86.23.23,0,0,1,0,.23s0,0,0,0Z"/><path class="cls-5" d="M200.06,27a.31.31,0,0,1,0-.24,16.15,16.15,0,0,0-.29-6.71.29.29,0,0,1,0-.23s.1,0,.12.08a16.75,16.75,0,0,1,.29,7c0,.08,0,.11-.08.11S200.08,27.05,200.06,27Z"/><path class="cls-2" d="M184.92,6.71c-8.43-2.43-14.79,2.48-14.79,15.47,0,6.36,1.34,7.68,3.63,13.12,1.12,2.68,7.08,8,10.92,9h.48c3.84-1,9.8-6.32,10.92-9,2.28-5.44,3.63-6.76,3.63-13.12C199.71,9.19,193.35,4.28,184.92,6.71Z"/><path class="cls-4" d="M170.13,11.51s5.37,0,8.87,1.93c4.24,2.31,11.56,5.65,18.13,5,12-1.15,3.47-14.65.39-14.65.77,1.15-.78,2.7-2.32,2.31S179.39-10.48,170.13,11.51Z"/><path class="cls-6" d="M180.7,32.76s.5,3.09,2.31,3.74,3.71.24,4.52-.81a8.8,8.8,0,0,0,1.27-3Z"/><path class="cls-5" d="M184.79,31.49a.46.46,0,0,1-.35-.12.93.93,0,0,1-.23-.73v-.11a.73.73,0,0,0-.27.23.65.65,0,0,1-.58.19.92.92,0,0,1-.58-.73,4.21,4.21,0,0,1,.5-1.82.19.19,0,0,1,.23-.07.18.18,0,0,1,.08.23,2.91,2.91,0,0,0-.46,1.54c.08.31.19.43.31.46s.15,0,.19-.07c.27-.27.46-.39.62-.39a.33.33,0,0,1,.23.16.68.68,0,0,1,0,.3.8.8,0,0,0,.11.51.45.45,0,0,0,.23,0c.24,0,.27-.23.27-.61,0-.2,0-.35.08-.43a.29.29,0,0,1,.19-.07c.16,0,.24.11.35.19s.31.19.46.08a.4.4,0,0,0,.08-.39,2.57,2.57,0,0,0-.62-1.43c-.07,0-.07-.15,0-.23a.17.17,0,0,1,.23,0,2.84,2.84,0,0,1,.77,1.7.82.82,0,0,1-.19.66.66.66,0,0,1-.93,0l-.08-.08v.08c0,.31,0,.88-.58,1Zm-.54-1Z"/><ellipse class="cls-5" cx="177.58" cy="25.59" rx="0.66" ry="1.31"/><path class="cls-5" d="M175.29,22.16a5.25,5.25,0,0,1,2.63-1.08,4.57,4.57,0,0,1,2.31.54c.46.11.54-.54.27-1.08s-1.23-1-2.85-.93a3.83,3.83,0,0,0-2.94,1.27C174.25,21.35,174.6,22.73,175.29,22.16Z"/><ellipse class="cls-5" cx="190.61" cy="25.67" rx="0.66" ry="1.31"/><path class="cls-5" d="M188,21.46a5.31,5.31,0,0,1,2.8-.42,4.56,4.56,0,0,1,2.12,1.08c.42.22.65-.4.52-1s-1-1.23-2.55-1.58a4,4,0,0,0-3.15.53C187.17,20.46,187.19,21.85,188,21.46Z"/><path class="cls-5" d="M189.69,37.2a26.55,26.55,0,0,1-2,3.82,10.61,10.61,0,0,1-5.48,0,26.55,26.55,0,0,1-2-3.82l-1,.23s1.54,5,1.78,5.4a12.9,12.9,0,0,0,3.74,2.23v.08l.19,0,.19,0v-.08a12.9,12.9,0,0,0,3.74-2.23c.24-.42,1.78-5.4,1.78-5.4Z"/><rect class="cls-5" x="184.4" y="37.35" width="1.54" height="3.09"/><ellipse class="cls-2" cx="186.14" cy="51.66" rx="13.69" ry="5.37"/><path d="M160.1,50.91c7.27,1,8.1,5.8,8.87,9.11s.77,20.72.77,20.72l-23.14,2.9s.77-15.33,3.09-24C151.59,52.44,157,50.49,160.1,50.91Z"/><path d="M211.9,49c-7.27,1-8.1,5.8-8.87,9.11s-.77,20.72-.77,20.72l23.14,2.9s-.77-15.33-3.08-24C220.41,50.51,215,48.56,211.9,49Z"/><path class="cls-2" d="M211.87,64.18c-.5-.94-2.34.26-2.61,1s.54,8.87.54,8.87-2.55,2.08-2.61,4.79,3.56,4.78,3.78,5.1-.43,2.81,3,4.25,6.11.42,6.38-1.38-5.63-15-6.59-17.54S212.29,65,211.87,64.18Z"/><path class="cls-2" d="M161.87,66c.5-.93,2.34.27,2.61,1s-.54,8.88-.54,8.88,2.55,2.07,2.61,4.78-3.56,4.79-3.78,5.1.43,2.82-3,4.26-6.11.42-6.38-1.39,5.63-15,6.59-17.53S161.45,66.78,161.87,66Z"/><path class="cls-7" d="M220.08,102.54l-.57-9.11s-1.28,4.1-5,4.1-8.45-3.09-15.1-5.69a34,34,0,0,0-13.21-2,28.77,28.77,0,0,0-11.23,2c-6.64,2.6-11.32,5.69-15.09,5.69s-5.05-4.1-5.05-4.1l-.57,9.11Z"/><path class="cls-7" d="M155.56,102.54c0-.59-.05-1.19-.05-1.79a32.1,32.1,0,0,1,64.2,0c0,.6,0,1.2-.06,1.79h6.63c0-.59,0-1.19,0-1.79a38.72,38.72,0,0,0-77.43,0c0,.6,0,1.2,0,1.79Z"/><path class="cls-2" d="M155.25,68.93a48.52,48.52,0,0,1,7.92,7.82c.75,1.27.27,3.34-1.48,2.87s-8-6.17-9.09-7.6S153.24,67.76,155.25,68.93Z"/><path class="cls-2" d="M151.34,71.55c1.67.79,7.67,6,8.51,7.17s.53,3.31-1.26,3-8.43-5.52-9.65-6.86S149.24,70.54,151.34,71.55Z"/><path class="cls-2" d="M150.12,76.65a47.09,47.09,0,0,1,9.08,5.68c1,1,1,3.09-.8,3s-8.78-4.13-10.13-5.24S148,76,150.12,76.65Z"/><path class="cls-2" d="M150.66,81.53a39.42,39.42,0,0,1,7.39,5.13c.75.9.58,2.55-.93,2.38s-7.25-3.85-8.33-4.83A1.7,1.7,0,0,1,150.66,81.53Z"/><path class="cls-2" d="M218.49,67.13a48.08,48.08,0,0,0-7.92,7.81c-.75,1.28-.27,3.35,1.48,2.87s8-6.17,9.09-7.6S220.5,66,218.49,67.13Z"/><path class="cls-2" d="M222.4,69.74a48.78,48.78,0,0,0-8.51,7.17c-.84,1.21-.53,3.32,1.26,3s8.43-5.53,9.65-6.87S224.5,68.73,222.4,69.74Z"/><path class="cls-2" d="M223.62,74.84a47.09,47.09,0,0,0-9.08,5.68c-1,1-.95,3.1.8,3s8.78-4.12,10.13-5.24S225.76,74.16,223.62,74.84Z"/><path class="cls-2" d="M223.08,79.72a39.42,39.42,0,0,0-7.39,5.13c-.75.9-.58,2.55.93,2.39s7.25-3.86,8.33-4.84A1.7,1.7,0,0,0,223.08,79.72Z"/></g><path class="cls-19" d="M88.56,44.5l-33.71,46c3.57,4.18,10.57,9.58,23.36,10.61L121.94,44.5Z"/><path class="cls-19" d="M147,44.5l-44.72,57.67c2.7.07,5.45.13,8.23.18L155.38,44.5Z"/><path class="cls-19" d="M161.32,44.5l-45,58,8.28.12L169.72,44.5Z"/></svg>