<svg id="Слой_2" data-name="Слой 2" xmlns="http://www.w3.org/2000/svg" viewBox="0 0 409.19 109.17"><defs><style>.cls-1{fill:#b0d4e2;}</style></defs><title>road detail</title><path class="cls-1" d="M171.7,34.35c-8.57,3-17.89-.46-27-.81-11.32-.45-22.23,4-33.46,5.49-29.3,4-59.17-11.5-88.07-5.19C11.9,36.31,0,44.38,0,56,.05,67,11.2,75,22.05,77c22.84,4.25,47.1-9.11,69.07-1.55,10.56,3.64,19.62,11.91,30.76,12.74,6.32.47,12.84-1.55,18.93.19,7.56,2.16,12.33,9.38,18.54,14.2,12.05,9.37,30.84,8.63,42.11-1.66,6.62-6,10.63-14.66,17.78-20,9.34-7,22-7.16,33.67-7,14.59.19,29.4.43,43.38,4.61,8.7,2.61,17.2,6.76,26.28,6.64,14.35-.2,27-11,41.34-11,9,0,17.46,4.32,26.42,4.89s19.77-5.35,18.8-14.28C408,54.12,393.3,52.32,382.78,54.09c-8.14,1.37-16.42,3.12-24.58,1.82s-16.31-6.44-18.43-14.42c-.89-3.36-.66-6.93-1.56-10.28-7.9-29.43-38.63-8.07-54.5-4.6-13.68,3-23.14-4.1-33.42-12-8.91-6.82-17-16-29.34-14.49C200.82,2.55,190.09,28,171.7,34.35Z"/></svg>