<svg id="Слой_2" data-name="Слой 2" xmlns="http://www.w3.org/2000/svg" viewBox="0 0 1917.57 605"><defs><style>.cls-1{fill:#7fa024;}.cls-2{fill:#96c22f;}.cls-3{fill:#6c9e25;}</style></defs><title>road detail</title><path class="cls-1" d="M1783.45.24c-194.56-6.11-400.84,105.22-591,137.58-106.87,18.19-216,29.68-324.31,18.33C671,135.47,482,39.29,284.28,55,187.34,62.7,94.78,99.62,0,120.91V471.76c521.37,6.17,1044.38,7,1560.28-66.49,92-13.11,185.86-29.35,266.4-75.64a349,349,0,0,0,89.86-74.4V16.3C1872.82,6.67,1828.18,1.65,1783.45.24Z"/><path class="cls-2" d="M0,196.1V597.35l76.62.36L305.43,221.06C197.41,194.92,89.62,191.29,0,196.1Z"/><path class="cls-1" d="M94.1,97.85C63.89,99.53,31.81,95.09,0,87.64V362.28l102.22,1.32c92.92,1.23,230.24,3,358.53,4.69l198.76,2.59S101.3,97.45,94.1,97.85Z"/><path class="cls-2" d="M1052.43,181.88c-2.52.17-117.8.33-120.3.5C804.64,190.94,741.62,224.8,661.22,245q-3.68.92-7.4,1.75C373.88,240.05,412,244,79.18,170.87c-31-6.8-39.79-6-78.27-14.41l-.91-.2V605H1917.11V77.25C1653,173.19,1332.07,163.78,1052.43,181.88Z"/><path class="cls-3" d="M1489.67,311.57c-10.41,2.18,127.12,11.28,123.92,21.6-3.88,12.52-14,22.07-24,29.88-19.77,15.38-42,25.76-64.45,36.49-23.08,11-47.57,23.41-62.73,44.84-9.08,12.84-13.23,24.87-13.58,36.12h467.73V77.25c-264.16,95.94-584.47,86.53-864.11,104.63-2.52.17-117.8.33-120.3.5a711.45,711.45,0,0,0-96.46,12.84,37.22,37.22,0,0,0-4,5.22c-15.7,25.1,26,35.27,42.45,37.69,30,4.39,60.79,4.36,91,4.55,75.29.48,150.4-4.4,225.59-7.29,37.37-1.43,74.76-1.79,112.15-1.88,37.7-.09,75.41-1.26,113.09.2,31.64,1.23,139.27,14.1,155.91,27.85C1594.94,280.58,1550.73,298.81,1489.67,311.57Z"/><path class="cls-1" d="M296.7,298.51C198.58,300.25,98.72,313.42,0,322v56.58H1c23.31,0,62.82-7.75,101.18-14.94,33.35-6.24,65.84-12.08,86.11-12.08,90.21,0,134.29-3.54,228,9.42,14.6,2,29.45,4.56,44.45,7.35,65.54,12.18,232.82,11.64,152.16,39.43L1139.7,497c-10-69.67-14.44-135.07,20-170.89l-271.37-8.43C669,358.05,406.32,296.56,296.7,298.51Z"/><path class="cls-1" d="M1917.57,271.77c-88-9.62-176.23-7.11-264.16,4.58-89.67,11.93-175.59,39.95-263.45,60-55.64,12.7-266.21,32.63-230.21-10.21-81.57,30.53-65.07,104.94-55.59,140.52,11.64,43.69,68,33.09,105.83,36.74,43.61,4.21,86.48,11.8,130.28,14.59,84.07,5.35,164-.36,247.56-9.29,76.55-8.18,158.15,10.47,232.73-7.56,32.16-7.78,63.87-18.37,96.94-21.7h.07Z"/></svg>