<?xml version="1.0" encoding="UTF-8"?>
<!DOCTYPE svg PUBLIC "-//W3C//DTD SVG 1.1//EN" "http://www.w3.org/Graphics/SVG/1.1/DTD/svg11.dtd">
<svg xmlns="http://www.w3.org/2000/svg" version="1.1" width="1650px" height="685px" style="shape-rendering:geometricPrecision; text-rendering:geometricPrecision; image-rendering:optimizeQuality; fill-rule:evenodd; clip-rule:evenodd" xmlns:xlink="http://www.w3.org/1999/xlink">
<g><path style="opacity:0.994" fill="#828641" d="M 1166.5,325.5 C 1157.08,324.264 1147.75,322.598 1138.5,320.5C 1102.25,314.354 1065.91,308.687 1029.5,303.5C 1010.48,301.226 991.483,298.893 972.5,296.5C 946.85,293.946 921.183,291.613 895.5,289.5C 814.825,284.206 734.159,284.206 653.5,289.5C 632.129,291.458 610.795,293.791 589.5,296.5C 574.464,298.708 559.464,301.041 544.5,303.5C 518.194,307.94 492.194,313.606 466.5,320.5C 459.084,322.187 451.75,324.187 444.5,326.5C 435.79,329.042 427.123,331.708 418.5,334.5C 410.305,336.565 402.305,339.232 394.5,342.5C 389.003,344.329 383.67,346.329 378.5,348.5C 365.67,353.11 353.003,358.11 340.5,363.5C 333.167,366.833 325.833,370.167 318.5,373.5C 313.833,375.833 309.167,378.167 304.5,380.5C 302.847,380.66 301.514,381.326 300.5,382.5C 292.036,386.565 283.703,390.899 275.5,395.5C 270.554,397.803 265.887,400.469 261.5,403.5C 257.7,405.234 254.034,407.234 250.5,409.5C 242.876,413.806 235.543,418.473 228.5,423.5C 225.46,424.68 222.794,426.347 220.5,428.5C 214.663,431.918 208.996,435.584 203.5,439.5C 197.462,443.845 191.462,448.179 185.5,452.5C 181.854,454.817 178.52,457.484 175.5,460.5C 170.833,463.5 166.167,466.5 161.5,469.5C 155.053,461.017 151.22,451.351 150,440.5C 145.435,415.201 150.102,391.868 164,370.5C 171.695,358.621 182.528,351.954 196.5,350.5C 203.862,350.431 210.362,352.764 216,357.5C 215.055,329.718 216.722,302.052 221,274.5C 229.947,240.206 251.78,226.372 286.5,233C 306.845,240.682 319.345,255.182 324,276.5C 325.023,282.793 325.689,289.126 326,295.5C 333.086,281.651 341.419,268.651 351,256.5C 367.947,239.88 385.78,224.38 404.5,210C 412.521,204.709 421.187,202.209 430.5,202.5C 435.367,214.57 441.534,225.903 449,236.5C 448.77,217.855 453.437,200.522 463,184.5C 483.5,152 510,125.5 542.5,105C 574.067,86.0844 600.233,91.5844 621,121.5C 628.468,133.77 634.302,146.77 638.5,160.5C 644.236,139.356 654.403,120.69 669,104.5C 685.792,86.0357 705.626,71.8691 728.5,62C 769.028,47.6786 794.861,61.1786 806,102.5C 806.953,108.46 807.453,114.46 807.5,120.5C 806.791,129.498 806.625,138.498 807,147.5C 811.669,140.351 817.169,133.851 823.5,128C 827.177,125.69 831.011,125.19 835,126.5C 838.822,145.74 842.155,165.074 845,184.5C 848.817,163.675 860.317,157.841 879.5,167C 884.333,170.5 888.5,174.667 892,179.5C 888.443,154.81 889.11,130.144 894,105.5C 901.894,64.6044 926.394,41.1044 967.5,35C 981.556,34.0976 994.556,37.4309 1006.5,45C 1039.49,65.6515 1064.32,93.4848 1081,128.5C 1089.82,154.421 1093.99,181.087 1093.5,208.5C 1134.75,201.711 1161.25,218.377 1173,258.5C 1177.94,281.575 1175.77,303.908 1166.5,325.5 Z"/></g>
<g><path style="opacity:1" fill="#bbd784" d="M 895.5,289.5 C 814.833,290.833 734.167,290.833 653.5,289.5C 734.159,284.206 814.825,284.206 895.5,289.5 Z"/></g>
<g><path style="opacity:1" fill="#b9d684" d="M 653.5,289.5 C 734.167,290.833 814.833,290.833 895.5,289.5C 921.183,291.613 946.85,293.946 972.5,296.5C 844.833,297.833 717.167,297.833 589.5,296.5C 610.795,293.791 632.129,291.458 653.5,289.5 Z"/></g>
<g><path style="opacity:1" fill="#b7d482" d="M 589.5,296.5 C 717.167,297.833 844.833,297.833 972.5,296.5C 991.483,298.893 1010.48,301.226 1029.5,303.5C 867.833,304.833 706.167,304.833 544.5,303.5C 559.464,301.041 574.464,298.708 589.5,296.5 Z"/></g>
<g><path style="opacity:1" fill="#b1d07f" d="M 544.5,303.5 C 706.167,304.833 867.833,304.833 1029.5,303.5C 1065.91,308.687 1102.25,314.354 1138.5,320.5C 914.5,321.833 690.5,321.833 466.5,320.5C 492.194,313.606 518.194,307.94 544.5,303.5 Z"/></g>
<g><path style="opacity:0.998" fill="#accd7d" d="M 466.5,320.5 C 690.5,321.833 914.5,321.833 1138.5,320.5C 1147.75,322.598 1157.08,324.264 1166.5,325.5C 1169.73,325.676 1172.73,326.343 1175.5,327.5C 931.666,327.833 687.999,327.5 444.5,326.5C 451.75,324.187 459.084,322.187 466.5,320.5 Z"/></g>
<g><path style="opacity:0.997" fill="#a9cb7b" d="M 444.5,326.5 C 687.999,327.5 931.666,327.833 1175.5,327.5C 1189.13,329.292 1202.46,331.959 1215.5,335.5C 949.666,335.833 683.999,335.5 418.5,334.5C 427.123,331.708 435.79,329.042 444.5,326.5 Z"/></g>
<g><path style="opacity:0.998" fill="#a5c879" d="M 418.5,334.5 C 683.999,335.5 949.666,335.833 1215.5,335.5C 1227.61,337.321 1239.61,339.655 1251.5,342.5C 965.833,343.833 680.167,343.833 394.5,342.5C 402.305,339.232 410.305,336.565 418.5,334.5 Z"/></g>
<g><path style="opacity:0.997" fill="#a3c677" d="M 394.5,342.5 C 680.167,343.833 965.833,343.833 1251.5,342.5C 1260,344.263 1268.34,346.263 1276.5,348.5C 977.167,349.833 677.833,349.833 378.5,348.5C 383.67,346.329 389.003,344.329 394.5,342.5 Z"/></g>
<g><path style="opacity:0.998" fill="#9fc375" d="M 378.5,348.5 C 677.833,349.833 977.167,349.833 1276.5,348.5C 1299.13,353.074 1321.46,358.408 1343.5,364.5C 1009,364.833 674.666,364.5 340.5,363.5C 353.003,358.11 365.67,353.11 378.5,348.5 Z"/></g>
<g><path style="opacity:0.998" fill="#9ac071" d="M 340.5,363.5 C 674.666,364.5 1009,364.833 1343.5,364.5C 1356.52,366.92 1369.18,370.253 1381.5,374.5C 1027,374.833 672.666,374.5 318.5,373.5C 325.833,370.167 333.167,366.833 340.5,363.5 Z"/></g>
<g><path style="opacity:0.998" fill="#96bd6f" d="M 318.5,373.5 C 672.666,374.5 1027,374.833 1381.5,374.5C 1390.15,376.076 1398.48,378.409 1406.5,381.5C 1039,381.833 671.666,381.5 304.5,380.5C 309.167,378.167 313.833,375.833 318.5,373.5 Z"/></g>
<g><path style="opacity:0.999" fill="#94bb6e" d="M 304.5,380.5 C 671.666,381.5 1039,381.833 1406.5,381.5C 1408.29,381.366 1409.96,381.699 1411.5,382.5C 1041.17,383.833 670.833,383.833 300.5,382.5C 301.514,381.326 302.847,380.66 304.5,380.5 Z"/></g>
<g><path style="opacity:0.999" fill="#91b96c" d="M 300.5,382.5 C 670.833,383.833 1041.17,383.833 1411.5,382.5C 1425.64,386.435 1439.64,390.768 1453.5,395.5C 1060.83,396.833 668.167,396.833 275.5,395.5C 283.703,390.899 292.036,386.565 300.5,382.5 Z"/></g>
<g><path style="opacity:0.999" fill="#8db76a" d="M 275.5,395.5 C 668.167,396.833 1060.83,396.833 1453.5,395.5C 1462.14,397.932 1470.47,400.932 1478.5,404.5C 1072.67,404.833 667,404.5 261.5,403.5C 265.887,400.469 270.554,397.803 275.5,395.5 Z"/></g>
<g><path style="opacity:0.999" fill="#8ab468" d="M 261.5,403.5 C 667,404.5 1072.67,404.833 1478.5,404.5C 1484.13,405.929 1489.46,407.929 1494.5,410.5C 1079.67,410.833 665,410.5 250.5,409.5C 254.034,407.234 257.7,405.234 261.5,403.5 Z"/></g>
<g><path style="opacity:0.999" fill="#86b166" d="M 250.5,409.5 C 665,410.5 1079.67,410.833 1494.5,410.5C 1506.3,414.207 1517.63,418.873 1528.5,424.5C 1095,424.833 661.666,424.5 228.5,423.5C 235.543,418.473 242.876,413.806 250.5,409.5 Z"/></g>
<g><path style="opacity:0.999" fill="#82af64" d="M 228.5,423.5 C 661.666,424.5 1095,424.833 1528.5,424.5C 1531.48,425.326 1534.15,426.659 1536.5,428.5C 1097.83,429.833 659.167,429.833 220.5,428.5C 222.794,426.347 225.46,424.68 228.5,423.5 Z"/></g>
<g><path style="opacity:0.999" fill="#7fad62" d="M 220.5,428.5 C 659.167,429.833 1097.83,429.833 1536.5,428.5C 1544.65,431.739 1552.31,435.739 1559.5,440.5C 1107.33,440.833 655.333,440.5 203.5,439.5C 208.996,435.584 214.663,431.918 220.5,428.5 Z"/></g>
<g><path style="opacity:0.999" fill="#7aaa60" d="M 203.5,439.5 C 655.333,440.5 1107.33,440.833 1559.5,440.5C 1566.86,443.841 1573.52,448.174 1579.5,453.5C 1114.67,453.833 650,453.5 185.5,452.5C 191.462,448.179 197.462,443.845 203.5,439.5 Z"/></g>
<g><path style="opacity:0.999" fill="#76a75e" d="M 185.5,452.5 C 650,453.5 1114.67,453.833 1579.5,453.5C 1583.05,455.111 1586.05,457.444 1588.5,460.5C 1117.5,460.5 646.5,460.5 175.5,460.5C 178.52,457.484 181.854,454.817 185.5,452.5 Z"/></g>
<g><path style="opacity:0.999" fill="#72a55c" d="M 175.5,460.5 C 646.5,460.5 1117.5,460.5 1588.5,460.5C 1593.17,463.167 1596.83,466.833 1599.5,471.5C 1119.6,472.833 639.598,472.833 159.5,471.5C 160.167,470.833 160.833,470.167 161.5,469.5C 166.167,466.5 170.833,463.5 175.5,460.5 Z"/></g>
<g><path style="opacity:0.999" fill="#6ea35a" d="M 159.5,471.5 C 639.598,472.833 1119.6,472.833 1599.5,471.5C 1601.97,473.77 1603.97,476.437 1605.5,479.5C 1120.33,479.833 635.333,479.5 150.5,478.5C 153.19,475.815 156.19,473.482 159.5,471.5 Z"/></g>
<g><path style="opacity:0.999" fill="#6ba159" d="M 150.5,478.5 C 635.333,479.5 1120.33,479.833 1605.5,479.5C 1607.07,481.635 1608.4,483.968 1609.5,486.5C 1120,486.833 630.666,486.5 141.5,485.5C 144.319,482.925 147.319,480.592 150.5,478.5 Z"/></g>
<g><path style="opacity:0.999" fill="#69a057" d="M 141.5,485.5 C 630.666,486.5 1120,486.833 1609.5,486.5C 1609.56,487.609 1609.89,488.609 1610.5,489.5C 1119.67,489.833 629,489.5 138.5,488.5C 139.167,487.167 140.167,486.167 141.5,485.5 Z"/></g>
<g><path style="opacity:0.999" fill="#669e56" d="M 138.5,488.5 C 629,489.5 1119.67,489.833 1610.5,489.5C 1611.8,494.193 1612.13,498.86 1611.5,503.5C 1114.5,503.5 617.5,503.5 120.5,503.5C 125.891,497.776 131.891,492.776 138.5,488.5 Z"/></g>
<g><path style="opacity:0.999" fill="#629d54" d="M 120.5,503.5 C 617.5,503.5 1114.5,503.5 1611.5,503.5C 1611.5,504.833 1611.5,506.167 1611.5,507.5C 1112.83,507.5 614.167,507.5 115.5,507.5C 116.579,505.457 118.246,504.124 120.5,503.5 Z"/></g>
<g><path style="opacity:0.999" fill="#5f9b53" d="M 115.5,507.5 C 614.167,507.5 1112.83,507.5 1611.5,507.5C 1610.73,511.149 1609.4,514.482 1607.5,517.5C 1106.17,517.5 604.833,517.5 103.5,517.5C 107.183,513.82 111.183,510.486 115.5,507.5 Z"/></g>
<g><path style="opacity:0.999" fill="#5c9952" d="M 103.5,517.5 C 604.833,517.5 1106.17,517.5 1607.5,517.5C 1607.01,519.819 1606.01,521.819 1604.5,523.5C 1101.83,523.5 599.167,523.5 96.5,523.5C 98.8082,521.529 101.142,519.529 103.5,517.5 Z"/></g>
<g><path style="opacity:0.999" fill="#599850" d="M 96.5,523.5 C 599.167,523.5 1101.83,523.5 1604.5,523.5C 1602.52,526.81 1600.18,529.81 1597.5,532.5C 1094,532.833 590.666,532.5 87.5,531.5C 90.4744,528.862 93.4744,526.195 96.5,523.5 Z"/></g>
<g><path style="opacity:0.999" fill="#55964f" d="M 87.5,531.5 C 590.666,532.5 1094,532.833 1597.5,532.5C 1594.79,536.212 1591.46,539.212 1587.5,541.5C 1084.33,540.5 581,540.167 77.5,540.5C 80.2109,536.788 83.5442,533.788 87.5,531.5 Z"/></g>
<g><path style="opacity:0.999" fill="#52944d" d="M 77.5,540.5 C 581,540.167 1084.33,540.5 1587.5,541.5C 1585.54,543.156 1583.54,544.823 1581.5,546.5C 1077.83,546.5 574.167,546.5 70.5,546.5C 72.2393,543.757 74.5726,541.757 77.5,540.5 Z"/></g>
<g><path style="opacity:0.999" fill="#4d924c" d="M 70.5,546.5 C 574.167,546.5 1077.83,546.5 1581.5,546.5C 1574.05,552.257 1566.05,557.257 1557.5,561.5C 1056.33,560.5 555,560.167 53.5,560.5C 58.579,555.085 64.2457,550.418 70.5,546.5 Z"/></g>
<g><path style="opacity:0.996" fill="#49904b" d="M 53.5,560.5 C 555,560.167 1056.33,560.5 1557.5,561.5C 1554.48,563.674 1551.15,565.341 1547.5,566.5C 1073.5,566.5 599.5,566.5 125.5,566.5C 102.816,565.332 80.1498,563.832 57.5,562C 55.2636,561.921 53.9303,561.421 53.5,560.5 Z"/></g>
<g><path style="opacity:0.994" fill="#468f4a" d="M 125.5,566.5 C 599.5,566.5 1073.5,566.5 1547.5,566.5C 1544.48,568.674 1541.15,570.341 1537.5,571.5C 1086.83,570.167 636.167,570.167 185.5,571.5C 165.322,570.203 145.322,568.537 125.5,566.5 Z"/></g>
<g><path style="opacity:0.997" fill="#458f49" d="M 185.5,571.5 C 636.167,570.167 1086.83,570.167 1537.5,571.5C 1536.79,572.404 1535.79,572.737 1534.5,572.5C 1091.5,572.5 648.5,572.5 205.5,572.5C 198.814,572.473 192.148,572.139 185.5,571.5 Z"/></g>
<g><path style="opacity:0.995" fill="#428d49" d="M 205.5,572.5 C 648.5,572.5 1091.5,572.5 1534.5,572.5C 1529.56,575.596 1524.23,577.929 1518.5,579.5C 1112.17,579.5 705.833,579.5 299.5,579.5C 267.973,577.767 236.64,575.433 205.5,572.5 Z"/></g>
<g><path style="opacity:0.994" fill="#3b8c48" d="M 299.5,579.5 C 705.833,579.5 1112.17,579.5 1518.5,579.5C 1510.29,583.796 1501.62,587.13 1492.5,589.5C 1139.83,589.5 787.167,589.5 434.5,589.5C 389.3,586.867 344.3,583.534 299.5,579.5 Z"/></g>
<g><path style="opacity:0.993" fill="#348a47" d="M 434.5,589.5 C 787.167,589.5 1139.83,589.5 1492.5,589.5C 1483.2,593.603 1473.53,596.936 1463.5,599.5C 1165.17,599.5 866.833,599.5 568.5,599.5C 523.636,596.82 478.969,593.486 434.5,589.5 Z"/></g>
<g><path style="opacity:0.992" fill="#2e8846" d="M 568.5,599.5 C 866.833,599.5 1165.17,599.5 1463.5,599.5C 1456.16,602.59 1448.49,604.924 1440.5,606.5C 1181.17,606.5 921.833,606.5 662.5,606.5C 630.969,604.82 599.636,602.486 568.5,599.5 Z"/></g>
<g><path style="opacity:0.989" fill="#288645" d="M 662.5,606.5 C 921.833,606.5 1181.17,606.5 1440.5,606.5C 1430.78,610.101 1420.78,613.101 1410.5,615.5C 1199.5,614.167 988.5,614.167 777.5,615.5C 738.991,612.846 700.658,609.846 662.5,606.5 Z"/></g>
<g><path style="opacity:0.987" fill="#238544" d="M 777.5,615.5 C 988.5,614.167 1199.5,614.167 1410.5,615.5C 1400.95,618.304 1391.28,620.637 1381.5,622.5C 1213.5,622.5 1045.5,622.5 877.5,622.5C 844.144,620.473 810.81,618.139 777.5,615.5 Z"/></g>
<g><path style="opacity:0.984" fill="#1c8342" d="M 877.5,622.5 C 1045.5,622.5 1213.5,622.5 1381.5,622.5C 1367.45,626.593 1353.12,629.927 1338.5,632.5C 1229.83,632.5 1121.17,632.5 1012.5,632.5C 967.307,629.772 922.307,626.439 877.5,622.5 Z"/></g>
<g><path style="opacity:0.969" fill="#148141" d="M 1012.5,632.5 C 1121.17,632.5 1229.83,632.5 1338.5,632.5C 1308.23,639.887 1277.56,645.887 1246.5,650.5C 1168.32,644.774 1090.32,638.774 1012.5,632.5 Z"/></g>
</svg>
