<svg id="Слой_2" data-name="Слой 2" xmlns="http://www.w3.org/2000/svg" viewBox="0 0 274.4 161.48"><defs><style>.cls-1{fill:#59843d;}.cls-2{fill:#606060;}.cls-3{fill:#c4c4c4;}.cls-4{fill:#818986;}.cls-5{fill:#eae7e4;}.cls-6{fill:#51616b;}</style></defs><title>road detail</title><path class="cls-1" d="M42.25,50.52c8.8.47,11,5.51,12.67,13.22S53.82,77.51,39.5,78.06,25.18,67.59,25.18,62.64,31.79,50,42.25,50.52Z"/><path class="cls-1" d="M63.73,71.45C74,73.5,77,80.26,77.5,88s-20.93,15.42-28.64,9.91S40.6,77.51,47.21,74.2A29,29,0,0,1,63.73,71.45Z"/><path class="cls-1" d="M67,92.92c8.8-.73,13.22,11,9.92,17.63s-19,11.25-23.26,2.87S53.82,94,67,92.92Z"/><path class="cls-1" d="M20.78,74.75c12.71-.31,14.87,9.36,12.66,14.87S25.73,96.78,18,95.68-1.8,75.3,20.78,74.75Z"/><path class="cls-1" d="M18,93.47c11,0,14.87,11.57,12.67,19.28s-11,11-20.93,8.81-11-11-8.81-18.17S7.56,93.47,18,93.47Z"/><path class="cls-2" d="M38,69.76v76.51h6.56S42.4,69.76,38,69.76Z"/><path class="cls-2" d="M27.09,89.44A22,22,0,0,0,32.34,99c2,2.31,7.87,3.57,7.87,3.57v2.19s-5.31-.9-8.74-4.37a35.68,35.68,0,0,1-6.56-8.75Z"/><path class="cls-2" d="M25.83,104.68a21.85,21.85,0,0,0,6.65,8.63c2.38,2,8.32,2.32,8.32,2.32l.33,2.16s-5.38-.07-9.31-3A36,36,0,0,1,24,107.18Z"/><path class="cls-2" d="M54.27,95.49A21.93,21.93,0,0,1,49,105c-2.05,2.31-7.87,3.57-7.87,3.57v2.18s5.31-.89,8.75-4.37a35.85,35.85,0,0,0,6.55-8.74Z"/><path class="cls-2" d="M56.64,108.54A22,22,0,0,1,50,117.16c-2.39,2-8.33,2.33-8.33,2.33l-.33,2.16s5.38-.07,9.31-3A35.9,35.9,0,0,0,58.46,111Z"/><path class="cls-2" d="M52.61,84.48A22,22,0,0,1,47.37,94c-2.06,2.31-7.87,3.57-7.87,3.57v2.18s5.31-.89,8.74-4.37a36.09,36.09,0,0,0,6.56-8.74Z"/><rect class="cls-3" x="63.43" y="105.19" width="208.06" height="56.28"/><polygon class="cls-4" points="274.4 109.4 63.37 109.4 63.37 79.96 115.88 37.34 233.09 37.34 274.4 72.71 274.4 109.4"/><polygon class="cls-5" points="178.75 161.47 63.43 161.47 63.43 87.12 121.09 40.29 178.75 87.12 178.75 161.47"/><rect class="cls-3" x="178.74" width="17.36" height="40.29"/><rect class="cls-6" x="172.85" y="32.43" width="29.81" height="13.1"/><rect class="cls-6" x="111.26" y="73.37" width="6.88" height="17.03"/><rect class="cls-6" x="121.09" y="73.37" width="7.86" height="17.03"/><rect class="cls-6" x="82.76" y="115.95" width="9.5" height="3.28"/><rect class="cls-6" x="95.21" y="115.95" width="7.86" height="3.28"/><rect class="cls-6" x="82.76" y="121.52" width="9.5" height="20.96"/><rect class="cls-6" x="95.21" y="121.52" width="7.86" height="20.96"/><rect class="cls-6" x="189.88" y="119.22" width="10.48" height="7.53"/><rect class="cls-6" x="189.88" y="132" width="10.48" height="6.88"/><rect class="cls-6" x="189.88" y="142.48" width="10.48" height="6.88"/><rect class="cls-6" x="205.61" y="119.22" width="10.48" height="7.53"/><rect class="cls-6" x="205.61" y="132" width="10.48" height="6.88"/><rect class="cls-6" x="205.61" y="142.48" width="10.48" height="6.88"/><rect class="cls-6" x="221.33" y="119.22" width="10.48" height="7.53"/><rect class="cls-6" x="221.33" y="132" width="10.48" height="6.88"/><rect class="cls-6" x="221.33" y="142.48" width="10.48" height="6.88"/><rect class="cls-6" x="237.06" y="119.22" width="10.48" height="7.53"/><rect class="cls-6" x="237.06" y="132" width="10.48" height="6.88"/><rect class="cls-6" x="237.06" y="142.48" width="10.48" height="6.88"/><rect class="cls-6" x="252.78" y="119.22" width="10.48" height="7.53"/><rect class="cls-6" x="252.78" y="132" width="10.48" height="6.88"/><rect class="cls-6" x="252.78" y="142.48" width="10.48" height="6.88"/><rect class="cls-6" x="137.8" y="115.95" width="9.5" height="3.28"/><rect class="cls-6" x="150.24" y="115.95" width="7.86" height="3.28"/><rect class="cls-6" x="137.8" y="121.52" width="9.5" height="20.96"/><rect class="cls-6" x="150.24" y="121.52" width="7.86" height="20.96"/></svg>