<svg id="Слой_2" data-name="Слой 2" xmlns="http://www.w3.org/2000/svg" viewBox="0 0 131.11 69.97"><defs><style>.cls-1{fill:#406632;}.cls-2{fill:#606060;}.cls-3{fill:#fff;}.cls-4{fill:#686665;}.cls-5{fill:#5e5d5c;}.cls-6{fill:#dbdbdb;}.cls-7{fill:#51616b;}.cls-8{fill:#8a9995;}.cls-9{fill:#3d3b38;}.cls-10{fill:#897f7d;}.cls-11{fill:#59843d;}.cls-12{fill:#8cce4d;}</style></defs><title>road detail</title><path class="cls-1" d="M11.59,43.7c2.42.13,3,1.51,3.48,3.63s-.3,3.77-4.23,3.92S6.91,48.38,6.91,47,8.72,43.55,11.59,43.7Z"/><path class="cls-1" d="M17.49,49.44c2.82.56,3.62,2.42,3.77,4.53s-5.74,4.23-7.85,2.72S11.14,51.1,13,50.2A8,8,0,0,1,17.49,49.44Z"/><path class="cls-1" d="M18.39,55.33c2.42-.2,3.63,3,2.72,4.84s-5.2,3.09-6.38.79S14.77,55.64,18.39,55.33Z"/><path class="cls-1" d="M5.7,50.35c3.49-.09,4.08,2.57,3.48,4.08s-2.12,2-4.23,1.66S-.49,50.5,5.7,50.35Z"/><path class="cls-1" d="M5,55.48c3,0,4.08,3.18,3.47,5.29s-3,3-5.74,2.42-3-3-2.42-5S2.07,55.48,5,55.48Z"/><path class="cls-2" d="M10.43,49V70h1.8S11.63,49,10.43,49Z"/><path class="cls-2" d="M7.43,54.38A6.14,6.14,0,0,0,8.87,57,5.28,5.28,0,0,0,11,58v.59a5,5,0,0,1-2.4-1.19A10,10,0,0,1,6.83,55Z"/><path class="cls-2" d="M7.09,58.56a6,6,0,0,0,1.82,2.37,5.15,5.15,0,0,0,2.28.63l.1.6a5,5,0,0,1-2.56-.82,9.85,9.85,0,0,1-2.14-2.1Z"/><path class="cls-2" d="M14.89,56a6,6,0,0,1-1.44,2.62,5.23,5.23,0,0,1-2.16,1v.6a5,5,0,0,0,2.4-1.2,10,10,0,0,0,1.8-2.4Z"/><path class="cls-2" d="M15.54,59.62A6,6,0,0,1,13.72,62a5.24,5.24,0,0,1-2.29.64l-.09.59a4.91,4.91,0,0,0,2.56-.81A9.85,9.85,0,0,0,16,60.3Z"/><path class="cls-2" d="M14.44,53A6,6,0,0,1,13,55.64a5.28,5.28,0,0,1-2.16,1v.6a5,5,0,0,0,2.4-1.2,10,10,0,0,0,1.8-2.4Z"/><rect class="cls-3" x="29.14" y="51.38" width="30.54" height="8.26"/><polygon class="cls-4" points="60.11 52 29.13 52 29.13 47.72 37.13 41.42 54.04 41.42 60.11 46.61 60.11 52"/><polygon class="cls-3" points="46.07 59.64 29.14 59.64 29.14 48.73 37.6 41.85 46.07 48.73 46.07 59.64"/><rect class="cls-5" x="46.07" y="35.94" width="2.55" height="5.91"/><rect class="cls-6" x="45.2" y="40.7" width="4.38" height="1.92"/><rect class="cls-7" x="36.16" y="46.71" width="1.01" height="2.5"/><rect class="cls-7" x="37.6" y="46.71" width="1.15" height="2.5"/><rect class="cls-7" x="31.98" y="52.96" width="1.39" height="0.48"/><rect class="cls-7" x="33.81" y="52.96" width="1.15" height="0.48"/><rect class="cls-7" x="31.98" y="53.77" width="1.39" height="3.08"/><rect class="cls-7" x="33.81" y="53.77" width="1.15" height="3.08"/><rect class="cls-7" x="47.7" y="53.44" width="1.54" height="1.11"/><rect class="cls-7" x="47.7" y="55.31" width="1.54" height="1.01"/><rect class="cls-7" x="47.7" y="56.85" width="1.54" height="1.01"/><rect class="cls-7" x="50.01" y="53.44" width="1.54" height="1.11"/><rect class="cls-7" x="50.01" y="55.31" width="1.54" height="1.01"/><rect class="cls-7" x="50.01" y="56.85" width="1.54" height="1.01"/><rect class="cls-7" x="52.32" y="53.44" width="1.54" height="1.11"/><rect class="cls-7" x="52.32" y="55.31" width="1.54" height="1.01"/><rect class="cls-7" x="52.32" y="56.85" width="1.54" height="1.01"/><rect class="cls-7" x="54.63" y="53.44" width="1.54" height="1.11"/><rect class="cls-7" x="54.63" y="55.31" width="1.54" height="1.01"/><rect class="cls-7" x="54.63" y="56.85" width="1.54" height="1.01"/><rect class="cls-7" x="56.93" y="53.44" width="1.54" height="1.11"/><rect class="cls-7" x="56.93" y="55.31" width="1.54" height="1.01"/><rect class="cls-7" x="56.93" y="56.85" width="1.54" height="1.01"/><rect class="cls-7" x="40.06" y="52.96" width="1.39" height="0.48"/><rect class="cls-7" x="41.88" y="52.96" width="1.15" height="0.48"/><rect class="cls-7" x="40.06" y="53.77" width="1.39" height="3.08"/><rect class="cls-7" x="41.88" y="53.77" width="1.15" height="3.08"/><path class="cls-8" d="M100.53,0h0a9.34,9.34,0,0,1,9.34,9.34v50.3a0,0,0,0,1,0,0H91.19a0,0,0,0,1,0,0V9.34A9.34,9.34,0,0,1,100.53,0Z"/><rect class="cls-4" x="91.19" y="9.34" width="18.68" height="1.2"/><rect class="cls-4" x="91.19" y="15.96" width="18.68" height="1.2"/><rect class="cls-4" x="91.19" y="22.59" width="18.68" height="1.2"/><rect class="cls-4" x="91.19" y="29.22" width="18.68" height="1.2"/><rect class="cls-4" x="91.19" y="35.84" width="18.68" height="1.2"/><rect class="cls-4" x="91.19" y="42.47" width="18.68" height="1.2"/><rect class="cls-4" x="91.19" y="49.1" width="18.68" height="1.2"/><polygon class="cls-6" points="57.79 43.92 57.79 59.64 77.34 59.64 77.34 25.14 64.31 32.42 60.48 41.62 57.79 43.92"/><polygon class="cls-9" points="56.5 45.37 56.02 44.78 60.16 41.39 64.01 32.15 77.16 24.8 77.53 25.47 64.61 32.69 60.79 41.86 56.5 45.37"/><rect class="cls-3" x="68.91" y="37.41" width="4.22" height="3.83"/><rect class="cls-3" x="60.47" y="47.76" width="8.05" height="6.52"/><rect class="cls-3" x="70.06" y="48.14" width="7.28" height="0.77"/><rect class="cls-3" x="70.83" y="48.52" width="6.52" height="11.12"/><rect class="cls-10" x="71.59" y="48.91" width="4.98" height="9.97"/><polygon class="cls-3" points="76.96 58.49 72.26 48.52 71.59 48.52 76.96 59.26 76.96 58.49"/><polygon class="cls-3" points="76.58 48.52 71.21 59.26 71.98 59.26 77.12 48.52 76.58 48.52"/><rect class="cls-10" x="61.24" y="48.52" width="3.07" height="4.98"/><rect class="cls-3" x="62.39" y="48.14" width="0.77" height="5.75"/><rect class="cls-3" x="60.47" y="49.67" width="4.22" height="0.77"/><rect class="cls-3" x="60.47" y="51.59" width="4.22" height="0.77"/><rect class="cls-10" x="69.68" y="38.17" width="2.68" height="2.3"/><rect class="cls-3" x="70.83" y="37.79" width="0.38" height="3.07"/><rect class="cls-3" x="68.91" y="38.94" width="3.83" height="0.38"/><rect class="cls-10" x="65.08" y="48.52" width="3.07" height="4.98"/><rect class="cls-3" x="66.23" y="48.14" width="0.77" height="5.75"/><rect class="cls-3" x="64.31" y="49.67" width="4.22" height="0.77"/><rect class="cls-3" x="64.31" y="51.59" width="4.22" height="0.77"/><polygon class="cls-6" points="96.46 43.92 96.46 59.64 76.91 59.64 76.91 25.14 89.94 32.42 93.78 41.62 96.46 43.92"/><polygon class="cls-9" points="97.75 45.37 98.23 44.78 94.09 41.39 90.24 32.15 77.09 24.8 76.72 25.47 89.64 32.69 93.46 41.86 97.75 45.37"/><rect class="cls-3" x="81.12" y="37.41" width="4.22" height="3.83" transform="translate(166.46 78.65) rotate(-180)"/><rect class="cls-3" x="85.34" y="47.76" width="8.05" height="6.52" transform="translate(178.73 102.03) rotate(-180)"/><rect class="cls-3" x="76.91" y="48.14" width="7.28" height="0.77" transform="translate(161.1 97.05) rotate(-180)"/><rect class="cls-3" x="76.91" y="48.52" width="6.52" height="11.12" transform="translate(160.33 108.16) rotate(-180)"/><rect class="cls-10" x="77.67" y="48.91" width="4.98" height="9.97" transform="translate(160.33 107.78) rotate(-180)"/><polygon class="cls-3" points="77.29 58.49 81.98 48.52 82.66 48.52 77.29 59.26 77.29 58.49"/><polygon class="cls-3" points="77.67 48.52 83.04 59.26 82.27 59.26 77.13 48.52 77.67 48.52"/><rect class="cls-10" x="89.56" y="48.52" width="3.07" height="4.98" transform="translate(182.18 102.03) rotate(-180)"/><rect class="cls-3" x="90.71" y="48.14" width="0.77" height="5.75" transform="translate(182.18 102.03) rotate(-180)"/><rect class="cls-3" x="89.17" y="49.67" width="4.22" height="0.77" transform="translate(182.57 100.11) rotate(-180)"/><rect class="cls-3" x="89.17" y="51.59" width="4.22" height="0.77" transform="translate(182.57 103.95) rotate(-180)"/><rect class="cls-10" x="81.89" y="38.17" width="2.68" height="2.3" transform="translate(166.46 78.65) rotate(-180)"/><rect class="cls-3" x="83.04" y="37.79" width="0.38" height="3.07" transform="translate(166.46 78.65) rotate(-180)"/><rect class="cls-3" x="81.51" y="38.94" width="3.83" height="0.38" transform="translate(166.85 78.26) rotate(-180)"/><rect class="cls-10" x="85.72" y="48.52" width="3.07" height="4.98" transform="translate(174.51 102.03) rotate(-180)"/><rect class="cls-3" x="86.87" y="48.14" width="0.77" height="5.75" transform="translate(174.51 102.03) rotate(-180)"/><rect class="cls-3" x="85.34" y="49.67" width="4.22" height="0.77" transform="translate(174.9 100.11) rotate(-180)"/><rect class="cls-3" x="85.34" y="51.59" width="4.22" height="0.77" transform="translate(174.9 103.95) rotate(-180)"/><polygon class="cls-2" points="122.71 45.19 123.25 54.32 121.1 54.32 121.1 45.19 122.71 45.19"/><path class="cls-11" d="M118.15,32.56s1.07-3.76,4.83-3.22,4.84,5.37,4.84,5.37,2.68-.53,3.22,2.69a3.82,3.82,0,0,1-2.15,4.3,3.36,3.36,0,0,1-.54,4.83c-2.68,2.15-5.91.54-5.91.54s-3.22,3.22-6.44.54-2.15-4.3-2.15-4.3-3.23-1.61-2.69-4.3a2.94,2.94,0,0,1,2.69-2.68s-2.15-2.15,0-3.77A3.68,3.68,0,0,1,118.15,32.56Z"/><circle class="cls-12" cx="122.98" cy="34.18" r="1.34"/><circle class="cls-12" cx="127.82" cy="38.47" r="1.34"/><circle class="cls-12" cx="125.4" cy="43.04" r="1.07"/><circle class="cls-12" cx="121.64" cy="39.28" r="1.61"/><circle class="cls-12" cx="117.34" cy="36.06" r="1.07"/><circle class="cls-12" cx="115.19" cy="40.35" r="1.07"/><circle class="cls-12" cx="118.68" cy="43.85" r="1.34"/></svg>