<svg id="Слой_2" data-name="Слой 2" xmlns="http://www.w3.org/2000/svg" viewBox="0 0 188.38 86.06"><defs><style>.cls-1{fill:#305937;}.cls-2{fill:#59843d;}.cls-3{fill:#606060;}.cls-4{fill:#a4a2a1;}.cls-5{fill:#818986;}.cls-6{fill:#c4c4c4;}.cls-7{fill:#afabaa;}.cls-8{fill:#e0ddda;}.cls-9{fill:#51616b;}.cls-10{fill:#406632;}</style></defs><title>road detail</title><path class="cls-1" d="M21.15,21.05c-1.39.23-.2,12-1,12.16s-3.79-3-4.39-2.19S20,35.6,20.15,37.2s-.4,1.79-1,1.4-2.39-2.6-2.79-2,2,2.79,3,4.39,1.2,3.19.2,2.79S16.16,40.39,15.76,41s2,3.39,2.6,4.38.39,2-.6,1.2-7-5.78-7.58-5.38,1.4,3.19,3.19,5,5.78,4.39,6.18,5.78.2,2.2-.8,1.4S11,48.17,10.58,48.76s2.19,3.59,4,5,4.18,4,4.38,5,.4,1.6-1.79.6-5.38-2.39-7.78-3.59S6.19,53,5.79,53.35s-.39,1.59,1.4,3.19,6.18,4.59,6.18,5-.8.4-2.79,0-3.79-1-4-.79,2,3,5,4.38,4.58,2.2,4,3.79-2.79.2-4.78-.8S7,65.51,6.59,65.91s3.59,4.39,3.19,4.59S8,70.5,5.6,69.1,2,66.71,1.81,67.31,2.41,69.9,5,71.49s6.38,3.59,6.38,4.19-.8,1.4-3.39.6-5.39-2.59-5.58-2S5,77.48,7,78.47s3.39,1.4,3.39,1.8-1.59,1-5.38,0-4.79-1.8-5-1.2,2,3.79,5.39,4.19,5,.6,5.18.8a4.34,4.34,0,0,0,3.39,2c2.39.2,6.18-1.6,8.37-1.4s3.59,1.6,6.58,1.2,2.4-1.2,4.19-1.2,11.76-1.39,11.76-2.19-10.76-1-11.76-1.4-.2-1.19,1.6-1.79,13.16-7,13-8-5.39,1.4-8.78,2.4-5.18,1.79-5.58,1.19,1.6-1.19,4.79-3.19,5.78-3.59,5.18-4.18S39.49,68.9,36.5,70.1s-3.59,1.19-3.79.6,4.59-3.79,4.19-4.19-3.59,1.2-5.18,1.79-2.4,1-2.6.2,3-2.19,5.79-3.39,8-4.58,7.77-5.58-4.19,1.4-6.78,2.39-3.79,1.4-3.79.6,2-2.59,4-4,3.59-2.79,3.39-3.39-5.58,2.4-6.18,1.6.6-1.6,2.59-4.19,2.39-3.59,2-4-9.57,7.78-10.37,8-1-1.2-.2-2,7.38-6.18,7-6.58-4.79,3-5.59,2.59,4.19-5,3.79-5.39S25.93,50,25.33,49.56s-1-1.59.2-2.79,8.38-8,7.78-8.37S25.53,43,24.74,43.78s-.4-2.39.4-3.59,4.78-3.39,4.18-3.59a12.21,12.21,0,0,0-5,1c-1,.6-1.8-.2-1.2-1.8s6-8,5.78-8.37-5.18,4.39-5.78,4.19S22.34,20.85,21.15,21.05Z"/><path class="cls-2" d="M63.14,18.73c5.14.27,6.43,3.22,7.39,7.72s-.64,8-9,8.35-8.35-6.1-8.35-9S57,18.41,63.14,18.73Z"/><path class="cls-2" d="M75.68,31c6,1.2,7.71,5.14,8,9.64S71.5,49.59,67,46.37s-4.82-11.89-1-13.82A17,17,0,0,1,75.68,31Z"/><path class="cls-2" d="M77.6,43.48c5.14-.43,7.72,6.43,5.79,10.29s-11.07,6.57-13.57,1.68S69.89,44.13,77.6,43.48Z"/><path class="cls-2" d="M50.61,32.88c7.41-.19,8.67,5.46,7.39,8.67s-4.5,4.18-9,3.54S37.43,33.2,50.61,32.88Z"/><path class="cls-2" d="M49,43.8c6.44,0,8.68,6.75,7.39,11.25S50,61.48,44.18,60.2,37.75,53.77,39,49.59,42.89,43.8,49,43.8Z"/><path class="cls-3" d="M60.67,30V74.62H64.5S63.22,30,60.67,30Z"/><path class="cls-3" d="M54.29,41.45A12.74,12.74,0,0,0,57.36,47C58.55,48.37,62,49.1,62,49.1v1.28a10.56,10.56,0,0,1-5.11-2.55A20.92,20.92,0,0,1,53,42.72Z"/><path class="cls-3" d="M53.55,50.35a12.83,12.83,0,0,0,3.88,5c1.4,1.15,4.86,1.36,4.86,1.36l.2,1.26a10.56,10.56,0,0,1-5.44-1.74,20.85,20.85,0,0,1-4.56-4.46Z"/><path class="cls-3" d="M70.15,45a12.78,12.78,0,0,1-3.06,5.57c-1.2,1.35-4.59,2.09-4.59,2.09v1.27a10.51,10.51,0,0,0,5.1-2.55,21.24,21.24,0,0,0,3.83-5.1Z"/><path class="cls-3" d="M71.54,52.6a12.83,12.83,0,0,1-3.88,5C66.26,58.78,62.8,59,62.8,59l-.2,1.26A10.56,10.56,0,0,0,68,58.51a20.85,20.85,0,0,0,4.56-4.46Z"/><path class="cls-3" d="M69.19,38.55a12.84,12.84,0,0,1-3.06,5.58c-1.2,1.34-4.6,2.08-4.6,2.08v1.27a10.56,10.56,0,0,0,5.11-2.55,20.78,20.78,0,0,0,3.82-5.1Z"/><rect class="cls-4" x="110.54" y="38.62" width="76.76" height="20.67"/><polygon class="cls-5" points="188.38 40.17 110.52 40.17 110.52 30.18 130.58 13.71 173.13 13.71 188.38 26.7 188.38 40.17"/><polygon class="cls-6" points="153.09 59.29 110.54 59.29 110.54 31.99 131.81 14.79 153.09 31.99 153.09 59.29"/><rect class="cls-7" x="153.08" width="6.41" height="14.79"/><rect class="cls-8" x="150.91" y="11.91" width="11" height="4.81"/><rect class="cls-9" x="128.19" y="26.94" width="2.54" height="6.25"/><rect class="cls-9" x="131.81" y="26.94" width="2.9" height="6.25"/><rect class="cls-9" x="117.67" y="42.57" width="3.51" height="1.2"/><rect class="cls-9" x="122.26" y="42.57" width="2.9" height="1.2"/><rect class="cls-9" x="117.67" y="44.62" width="3.51" height="7.7"/><rect class="cls-9" x="122.26" y="44.62" width="2.9" height="7.7"/><rect class="cls-9" x="157.19" y="43.78" width="3.87" height="2.77"/><rect class="cls-9" x="157.19" y="48.47" width="3.87" height="2.53"/><rect class="cls-9" x="157.19" y="52.32" width="3.87" height="2.53"/><rect class="cls-9" x="163" y="43.78" width="3.87" height="2.77"/><rect class="cls-9" x="163" y="48.47" width="3.87" height="2.53"/><rect class="cls-9" x="163" y="52.32" width="3.87" height="2.53"/><rect class="cls-9" x="168.8" y="43.78" width="3.87" height="2.77"/><rect class="cls-9" x="168.8" y="48.47" width="3.87" height="2.53"/><rect class="cls-9" x="168.8" y="52.32" width="3.87" height="2.53"/><rect class="cls-9" x="174.6" y="43.78" width="3.87" height="2.77"/><rect class="cls-9" x="174.6" y="48.47" width="3.87" height="2.53"/><rect class="cls-9" x="174.6" y="52.32" width="3.87" height="2.53"/><rect class="cls-9" x="180.4" y="43.78" width="3.87" height="2.77"/><rect class="cls-9" x="180.4" y="48.47" width="3.87" height="2.53"/><rect class="cls-9" x="180.4" y="52.32" width="3.87" height="2.53"/><rect class="cls-9" x="137.98" y="42.57" width="3.51" height="1.2"/><rect class="cls-9" x="142.57" y="42.57" width="2.9" height="1.2"/><rect class="cls-9" x="137.98" y="44.62" width="3.51" height="7.7"/><rect class="cls-9" x="142.57" y="44.62" width="2.9" height="7.7"/><path class="cls-10" d="M98.84,7.78s1.41,2.82,3.18,3.88c0,.36-2-.7-2.12-.35s3,3.71,4.23,4.41c-.35.53-2.47-.7-2.64-.35s3,3.53,4.58,4.59c-.7.7-3.52-1.06-3.7-.71s4.94,6.35,6.53,7.06c-.18.53-3.88-1.06-4.06-.71s4.76,7.06,6.35,8.12c-.35.71-3.7-1.59-4.06-.88s6,7.58,7.59,8.47c-.35.53-5.82-1.24-6-.71s5.47,7.77,7.94,9c-.17.71-5.64-1.76-6-1.06s6.88,7.59,9.18,8.82c0,.89-8.82-1.41-9-.88s6.88,5.65,9,6.71c0,.7-19.24-2.47-20.47-2.47S78,63.54,77.49,62.83c3.88-1.41,9.53-5.29,9.35-6s-9,1.58-9.35.7c4.94-3,10.41-8.12,10.06-8.65s-6.36,1.59-6.53.71c5.47-3.88,8.29-8.47,8.11-9s-6,1.77-6.35.71c5.47-4.06,8.47-7.41,8.3-8.12s-4.77,1.41-5,.53C90,30.54,93,26.31,92.84,25.78s-3.88,1.06-4.06.35c3.88-2.64,6.35-5.82,6-6.17s-3,.88-3.35.17c2.12-1.41,4.94-4.06,4.94-4.59s-2.47.71-2.65.18c2.12-1.76,3.71-3.7,3.71-4.06S96.19,12,96,11.49A11.82,11.82,0,0,0,98.84,7.78Z"/></svg>