<svg id="Слой_2" data-name="Слой 2" xmlns="http://www.w3.org/2000/svg" viewBox="0 0 68.4 47.4"><defs><style>.cls-1{fill:#406632;}.cls-2{fill:#606060;}.cls-3{fill:#8a9995;}.cls-4{fill:#686665;}.cls-5{fill:#51616b;}.cls-6{fill:#a4a2a1;}</style></defs><title>road detail</title><path class="cls-1" d="M18.23,0A9.64,9.64,0,0,0,21,3.32c0,.3-1.66-.61-1.81-.31s2.56,3.17,3.61,3.77c-.3.45-2.11-.6-2.26-.3s2.57,3,3.92,3.92c-.6.6-3-.91-3.16-.61s4.22,5.43,5.57,6c-.15.45-3.31-.9-3.46-.6s4.07,6,5.42,6.93c-.3.6-3.16-1.35-3.46-.75s5.12,6.48,6.48,7.23c-.31.45-5-1.05-5.13-.6s4.67,6.63,6.78,7.68c-.15.61-4.82-1.5-5.12-.9s5.88,6.48,7.84,7.53c0,.76-7.54-1.2-7.69-.75s5.88,4.82,7.69,5.73c0,.6-16.43-2.11-17.48-2.11S.45,47.62,0,47c3.32-1.21,8.14-4.53,8-5.13s-7.69,1.36-8,.6c4.22-2.56,8.89-6.93,8.59-7.38s-5.43,1.36-5.58.6C7.69,32.4,10.1,28.48,10,28s-5.13,1.51-5.43.6c4.67-3.46,7.23-6.33,7.08-6.93s-4.07,1.21-4.22.45c3.32-2.71,5.88-6.33,5.73-6.78s-3.32.9-3.47.3c3.32-2.26,5.43-5,5.13-5.27s-2.56.75-2.87.15c1.81-1.21,4.22-3.47,4.22-3.92s-2.11.6-2.26.15A12.69,12.69,0,0,0,17,3.32c0-.31-1.06.3-1.21-.16A9.86,9.86,0,0,0,18.23,0Z"/><rect class="cls-2" x="32.34" y="11.84" width="1.61" height="5.89"/><polygon class="cls-3" points="67.08 32.3 25.76 32.3 25.76 17.73 46.42 12.79 67.08 17.73 67.08 32.3"/><rect class="cls-4" x="24.28" y="32.29" width="44.13" height="14.16"/><rect class="cls-5" x="31.19" y="22.09" width="2.31" height="5.68"/><rect class="cls-5" x="33.95" y="22.09" width="3.05" height="5.68"/><rect class="cls-5" x="44.03" y="22.09" width="2.31" height="5.68"/><rect class="cls-5" x="46.79" y="22.09" width="3.05" height="5.68"/><rect class="cls-5" x="55.89" y="22.09" width="2.31" height="5.68"/><rect class="cls-5" x="58.65" y="22.09" width="3.05" height="5.68"/><rect class="cls-6" x="31.19" y="33.94" width="2.31" height="5.68"/><rect class="cls-6" x="33.95" y="33.94" width="3.05" height="5.68"/><rect class="cls-6" x="44.03" y="33.94" width="2.31" height="5.68"/><rect class="cls-6" x="46.79" y="33.94" width="3.05" height="5.68"/><rect class="cls-6" x="55.89" y="33.94" width="2.31" height="5.68"/><rect class="cls-6" x="58.65" y="33.94" width="3.05" height="5.68"/><polygon class="cls-2" points="67.47 18.04 46.35 12.84 25.17 17.96 25.13 17.81 46.36 12.68 46.37 12.69 67.5 17.89 67.47 18.04"/></svg>