<svg id="Слой_2" data-name="Слой 2" xmlns="http://www.w3.org/2000/svg" viewBox="0 0 89.31 45.83"><defs><style>.cls-1{fill:#606060;}.cls-2{fill:#eae7e4;}.cls-3{fill:#686665;}.cls-4{fill:#51616b;}.cls-5{fill:#a4a2a1;}.cls-6{fill:#96c22f;}.cls-7{fill:#59843d;}</style></defs><title>road detail</title><rect class="cls-1" x="42.59" width="2.08" height="7.63"/><polygon class="cls-2" points="87.61 26.5 34.06 26.5 34.06 7.63 60.83 1.23 87.61 7.63 87.61 26.5"/><rect class="cls-3" x="32.14" y="26.5" width="57.17" height="18.34"/><rect class="cls-4" x="41.1" y="13.28" width="2.99" height="7.36"/><rect class="cls-4" x="44.67" y="13.28" width="3.95" height="7.36"/><rect class="cls-4" x="57.74" y="13.28" width="2.99" height="7.36"/><rect class="cls-4" x="61.31" y="13.28" width="3.95" height="7.36"/><rect class="cls-4" x="73.1" y="13.28" width="2.99" height="7.36"/><rect class="cls-4" x="76.67" y="13.28" width="3.95" height="7.36"/><rect class="cls-5" x="41.1" y="28.64" width="2.99" height="7.36"/><rect class="cls-5" x="44.67" y="28.64" width="3.95" height="7.36"/><rect class="cls-5" x="57.74" y="28.64" width="2.99" height="7.36"/><rect class="cls-5" x="61.31" y="28.64" width="3.95" height="7.36"/><rect class="cls-5" x="73.1" y="28.64" width="2.99" height="7.36"/><rect class="cls-5" x="76.67" y="28.64" width="3.95" height="7.36"/><polygon class="cls-1" points="88.1 8.03 60.75 1.29 33.29 7.93 33.25 7.74 60.75 1.09 60.77 1.09 88.15 7.84 88.1 8.03"/><polygon class="cls-1" points="17.09 32.39 17.88 45.83 14.71 45.83 14.71 32.39 17.09 32.39"/><path class="cls-6" d="M10.37,13.81S12,8.28,17.48,9.07,24.59,17,24.59,17s4-.79,4.75,3.95a5.61,5.61,0,0,1-3.16,6.32s3.16,4-.8,7.12-8.69.79-8.69.79S12,39.9,7.2,36,4,29.62,4,29.62-.7,27.25.09,23.3s4-3.95,4-3.95S.88,16.19,4,13.81A5.42,5.42,0,0,1,10.37,13.81Z"/><circle class="cls-7" cx="17.48" cy="16.19" r="1.98"/><circle class="cls-7" cx="24.59" cy="22.51" r="1.98"/><circle class="cls-7" cx="21.04" cy="29.23" r="1.58"/><circle class="cls-7" cx="15.5" cy="23.7" r="2.37"/><circle class="cls-7" cx="9.18" cy="18.95" r="1.58"/><circle class="cls-7" cx="6.02" cy="25.28" r="1.58"/><circle class="cls-7" cx="11.16" cy="30.42" r="1.98"/></svg>