<svg id="Слой_2" data-name="Слой 2" xmlns="http://www.w3.org/2000/svg" viewBox="0 0 71.17 52.95"><defs><style>.cls-1{fill:#305937;}.cls-2{fill:#406632;}</style></defs><title>road detail</title><path class="cls-1" d="M61.73,20.62c-.49.08-.07,4.26-.35,4.33s-1.35-1.07-1.56-.78,1.49,1.63,1.56,2.2-.14.63-.36.49-.85-.92-1-.71.71,1,1.07,1.56.42,1.14.07,1-1.21-1.21-1.35-1,.71,1.21.92,1.57.14.71-.21.42-2.49-2.06-2.7-1.91.5,1.13,1.14,1.77,2.05,1.56,2.2,2.06.07.78-.29.5S58.11,30.27,58,30.48s.78,1.28,1.42,1.78A5.47,5.47,0,0,1,61,34c.07.36.15.57-.64.21S58.4,33.39,57.55,33s-1.14-1-1.28-.85-.14.56.5,1.13S59,34.88,59,35s-.29.14-1,0a7.06,7.06,0,0,0-1.42-.29,3.84,3.84,0,0,0,1.78,1.56c1.06.5,1.63.78,1.42,1.35s-1,.07-1.71-.28-1.35-.93-1.49-.78,1.28,1.56,1.14,1.63-.64,0-1.49-.5-1.28-.85-1.35-.64.21.93,1.13,1.49a11.11,11.11,0,0,1,2.28,1.49c0,.22-.29.5-1.21.22s-1.92-.93-2-.71.92,1.13,1.63,1.49,1.21.5,1.21.64-.57.35-1.92,0-1.7-.64-1.77-.43a2.32,2.32,0,0,0,1.92,1.49,7.91,7.91,0,0,1,1.84.29,1.57,1.57,0,0,0,1.21.71c.85.07,2.2-.57,3-.5s1.28.57,2.34.42.85-.42,1.49-.42,4.19-.5,4.19-.78S66.35,42.12,66,42s-.07-.42.57-.64,4.68-2.48,4.61-2.84-1.91.5-3.12.85-1.84.64-2,.43.57-.43,1.71-1.13,2.06-1.28,1.84-1.5-1.35.5-2.41.93-1.28.42-1.35.21,1.63-1.35,1.49-1.49-1.28.43-1.84.64-.86.35-.93.07,1.07-.78,2.06-1.21,2.84-1.63,2.77-2-1.49.49-2.41.85-1.35.49-1.35.21.71-.92,1.42-1.42,1.27-1,1.2-1.21-2,.86-2.2.57.22-.57.93-1.49.85-1.28.71-1.42S64.29,33.18,64,33.25s-.36-.42-.08-.71,2.63-2.2,2.49-2.34-1.71,1.06-2,.92,1.49-1.77,1.35-1.91-2.34,1.7-2.56,1.56-.35-.57.08-1,3-2.84,2.76-3S63.3,28.42,63,28.71s-.14-.85.14-1.28,1.71-1.21,1.49-1.28a4.43,4.43,0,0,0-1.77.36c-.36.21-.64-.07-.43-.64s2.13-2.84,2.06-3-1.84,1.56-2.06,1.49S62.16,20.55,61.73,20.62Z"/><path class="cls-2" d="M14.24,0a7.53,7.53,0,0,0,2.11,2.59c0,.23-1.29-.47-1.41-.24s2,2.47,2.83,2.94c-.24.36-1.65-.47-1.77-.23s2,2.35,3.06,3.06c-.47.47-2.35-.71-2.47-.47s3.29,4.23,4.35,4.7c-.12.36-2.59-.7-2.7-.47a24.11,24.11,0,0,0,4.23,5.41c-.23.48-2.47-1.05-2.7-.58s4,5.06,5.05,5.64c-.23.36-3.88-.82-4-.47s3.65,5.18,5.3,6c-.12.47-3.77-1.17-4-.7s4.59,5.06,6.12,5.88c0,.59-5.89-.94-6-.59s4.58,3.77,6,4.47c0,.47-12.83-1.64-13.65-1.64S.35,37.18,0,36.71c2.59-.94,6.35-3.53,6.24-4s-6,1.06-6.24.47c3.29-2,6.94-5.41,6.71-5.77s-4.24,1.06-4.36.47c3.65-2.58,5.53-5.64,5.42-6s-4,1.18-4.24.47c3.65-2.7,5.65-4.94,5.53-5.41s-3.18.94-3.3.35c2.59-2.11,4.59-4.94,4.48-5.29s-2.59.71-2.71.24c2.59-1.77,4.24-3.89,4-4.12s-2,.59-2.24.12c1.42-1,3.3-2.71,3.3-3.06s-1.65.47-1.77.11a9.66,9.66,0,0,0,2.47-2.7c0-.24-.82.23-.94-.12A7.8,7.8,0,0,0,14.24,0Z"/><path class="cls-1" d="M39.18,15.49a5.91,5.91,0,0,1-2.24,2.88c-1.6,1-2.24,1.28-1.92,1.6s.8-.48,1.12-.16-.32.64,0,1,.64-.32,1,0S35.82,22.69,35.18,23s-1.28.64-1.28,1,1,.32,1.28,0,.64-1,1-.64,0,.64.32.64.32-.32.64,0-.64,1.28-1.28,1.6-3.44,1-3.52,1.6c-.07.47.76.47,1.11.47s.35.12.23.47.12.59.59.59,1.3-.82,1.65-.82.47.35.23.7a33.47,33.47,0,0,1-4.7,3.3c-1.3.7-2.59,1.29-2.71,1.76s1.18.59,1.53.47.59-.23.71-.11.12.7.94.7,1.41-.82,1.53-.82.12.7.59.7.7-.58.94-.58.35.23.12.82a30.3,30.3,0,0,1-5.53,4.94C28,40.7,26,40.94,25.88,41.17s.12.83,1.65.94a2.81,2.81,0,0,0,2.23-.47c.12-.11.24,0,.24.36s0,.47.47.47.94-.94,1.06-.83,0,.59.35.94.82-.11,1.06-.11.35.23.23.47A21,21,0,0,1,28.47,48c-2.59,1.88-5.77,2.59-5.77,2.82s.71.82,1.65.82,1.41,0,1.41.12.24.94.94.83,2.36-1.06,2.59-1.06-.12,1.17.71,1.29,1.29-.94,1.41-.94-.24,1.18.7,1.06,2-1.65,2.24-1.65-.24.94.24,1.06,1.88-.82,2.11-.82.12,1.41.83,1.29,1.06-1.06,1.64-1.06,1.06.94,1.53.94.12-1.06.59-1.17,1.06.82,1.88.82.24-1.06.83-1.18,1.64,1.06,2.23,1.06.24-.94.71-1.06,1.29,1.3,1.88,1.3-.12-1.3.24-1.3,1.41.83,2.11.83.36-1.18.71-1.18.71.71,1.65.59,1.17-.47.94-.71a59.34,59.34,0,0,1-6.35-4.94c-2.59-2.47-2.95-3.41-2.71-3.76s.82.58,1.29.47-.23-1.06.12-1.18,1.18,1.06,2.12,1.06.59-.59.59-.82,1.76.23,1.88-.24-3.29-1.41-5.53-3.06a7.64,7.64,0,0,1-2.94-4.47c0-.35.59-.23.82,0a5.86,5.86,0,0,0,1.77.82c.23,0,.35-.58.47-.58s.35.58,1.06.58.47-.47.7-.58.83,0,1.41-.12.47-.35,0-.47a14.78,14.78,0,0,1-4.7-2.71c-2.12-1.76-2.47-2.59-2.35-2.82s1.17.35,1.41.35.35-.47.47-.47.82.47,1.06.35-.24-.7-.12-.82,1.53.24,1.41-.12-1.41-.35-2.71-1.17-2.58-2.24-2.47-2.47.83.58,1.18.47.35-.36.47-.24.24.35.47.35-.12-.47.24-.35.82.24.82,0-.71-.59-2.12-1.76-1.17-2.24-1.17-2.24.82.47,1.06.35,0-.47.23-.47,1.06.12.94-.12-.94.12-2.35-1.41S39.53,15.45,39.18,15.49Z"/></svg>