<svg id="Слой_2" data-name="Слой 2" xmlns="http://www.w3.org/2000/svg" viewBox="0 0 16.97 23.14"><defs><style>.cls-1{fill:#305937;}</style></defs><title>road detail</title><path class="cls-1" d="M7.53,0c-.5.08-.07,4.26-.36,4.33S5.82,3.27,5.61,3.55,7.1,5.18,7.17,5.75s-.14.64-.35.5-.85-.93-1-.71.71,1,1.07,1.56.43,1.13.07,1-1.21-1.2-1.35-1,.71,1.21.92,1.56.15.71-.21.43S3.84,7,3.62,7.17s.5,1.14,1.14,1.77S6.82,10.51,7,11s.07.78-.28.5S3.91,9.65,3.77,9.87s.78,1.27,1.42,1.77a5.61,5.61,0,0,1,1.56,1.78c.07.35.14.56-.64.21s-1.92-.85-2.77-1.28-1.14-1-1.28-.85-.14.57.5,1.13,2.2,1.64,2.2,1.78-.28.14-1,0a6.69,6.69,0,0,0-1.42-.28,3.91,3.91,0,0,0,1.77,1.56c1.07.49,1.63.78,1.42,1.35s-1,.07-1.7-.29S2.49,15.83,2.35,16s1.27,1.56,1.13,1.63-.64,0-1.49-.49S.71,16.25.64,16.47s.22.92,1.14,1.49a11.24,11.24,0,0,1,2.27,1.49c0,.21-.28.5-1.21.21S.93,18.74.86,19s.92,1.14,1.63,1.49,1.21.5,1.21.64-.57.36-1.92,0S.08,20.44,0,20.66a2.34,2.34,0,0,0,1.92,1.49,9.15,9.15,0,0,1,1.85.28,1.51,1.51,0,0,0,1.2.71c.85.07,2.2-.57,3-.5s1.28.57,2.35.43.85-.43,1.49-.43S16,22.15,16,21.86s-3.83-.35-4.18-.5-.07-.42.56-.63S17,18.24,17,17.89s-1.92.49-3.13.85-1.84.64-2,.42.57-.42,1.7-1.13,2.06-1.28,1.85-1.49-1.35.5-2.42.92-1.27.43-1.35.21,1.64-1.34,1.5-1.49-1.28.43-1.85.64-.85.36-.92.07,1.06-.78,2.06-1.2,2.83-1.64,2.76-2-1.49.5-2.41.85-1.35.5-1.35.21.71-.92,1.42-1.42,1.28-1,1.21-1.2-2,.85-2.2.57.21-.57.92-1.49.85-1.28.71-1.42-3.41,2.76-3.69,2.83-.36-.42-.07-.71,2.62-2.2,2.48-2.34-1.7,1.07-2,.93,1.49-1.78,1.34-1.92S9.23,10.29,9,10.15s-.36-.57.07-1,3-2.84,2.77-3-2.77,1.63-3,1.91S8.66,7.24,9,6.81s1.7-1.2,1.49-1.27a4.48,4.48,0,0,0-1.78.35c-.35.21-.64-.07-.42-.64s2.13-2.84,2.06-3S8.45,3.83,8.24,3.76,8-.07,7.53,0Z"/></svg>