<?xml version="1.0" encoding="utf-8"?>
<!-- Generator: Adobe Illustrator 24.0.1, SVG Export Plug-In . SVG Version: 6.00 Build 0)  -->
<svg version="1.1" id="Слой_2_1_" xmlns="http://www.w3.org/2000/svg" xmlns:xlink="http://www.w3.org/1999/xlink" x="0px"
	 y="0px" viewBox="0 0 553.4 124" style="enable-background:new 0 0 553.4 124;" xml:space="preserve">
<style type="text/css">
	.st0{fill:#749DC1;}
	.st1{fill:#69879E;}
</style>
<title>road detail</title>
<rect x="228.5" y="107.2" class="st0" width="18.9" height="16.8"/>
<rect x="232.3" y="105.5" class="st0" width="13.4" height="5.3"/>
<rect x="233.4" y="103.8" class="st0" width="6.4" height="3.4"/>
<rect x="241.7" y="94.3" class="st0" width="2.1" height="13.8"/>
<rect x="205" y="106.7" class="st0" width="21" height="17.3"/>
<rect x="221.6" y="114.6" class="st0" width="10.8" height="9.4"/>
<rect x="207.6" y="80.3" class="st0" width="17.4" height="26.8"/>
<rect x="210.3" y="62.9" class="st0" width="12" height="19.6"/>
<rect x="212.1" y="35.4" class="st0" width="8.9" height="28.9"/>
<polygon class="st0" points="218.8,36 214.2,36 214.2,19.8 216.5,17.4 218.8,19.8 "/>
<polygon class="st0" points="173.9,68.6 165,68.6 165,51.9 169.4,48.8 173.9,51.9 "/>
<polygon class="st0" points="182.1,68.6 173.3,68.6 173.3,51.9 177.7,48.8 182.1,51.9 "/>
<polygon class="st0" points="190.8,68.6 181.9,68.6 181.9,51.9 186.3,48.8 190.8,51.9 "/>
<rect x="160.2" y="64.3" class="st0" width="30.6" height="59.6"/>
<rect x="158.1" y="66.4" class="st0" width="15.1" height="57.6"/>
<rect x="186.3" y="98.8" class="st0" width="18.6" height="25.2"/>
<rect x="125.3" y="81.4" class="st0" width="30.3" height="42.6"/>
<rect x="147.6" y="109.8" class="st0" width="17.4" height="14.2"/>
<rect x="125.3" y="20.3" class="st0" width="27" height="61.1"/>
<polygon class="st0" points="150.4,29 136.4,29 136.4,17.4 150.4,18.8 "/>
<rect x="132.1" y="5.5" class="st0" width="1.9" height="17.8"/>
<rect x="127.7" y="5.5" class="st0" width="1.9" height="17.8"/>
<rect x="114.2" y="71.6" class="st0" width="5.2" height="22.7"/>
<rect x="103.6" y="75.9" class="st0" width="17.6" height="24.4"/>
<rect x="103.6" y="91.7" class="st0" width="24.1" height="32.3"/>
<rect x="109.6" y="67.6" class="st0" width="2.8" height="9.6"/>
<polygon class="st0" points="98.6,124 77.9,124 77.9,40.4 82.7,37 98.6,42.1 "/>
<rect x="76.9" y="42.5" class="st0" width="23.8" height="81.5"/>
<rect x="90.8" y="119.3" class="st0" width="17" height="4.7"/>
<rect x="46.2" y="84.9" class="st0" width="22" height="39.1"/>
<rect x="61.7" y="102.7" class="st0" width="18.8" height="21.3"/>
<rect x="37.3" y="113.3" class="st0" width="6.5" height="10.7"/>
<rect x="34" y="120.3" class="st0" width="19.1" height="3.7"/>
<polygon class="st0" points="62.3,88.1 52.4,88.1 52.4,82.3 57.3,79.5 62.3,82.3 "/>
<rect x="64.4" y="69.6" class="st0" width="2.6" height="15.2"/>
<rect x="47.6" y="69.8" class="st0" width="2.5" height="15.2"/>
<rect x="93.2" y="105.1" class="st1" width="32.9" height="18.5"/>
<rect x="111.8" y="109.4" class="st1" width="16.3" height="14.2"/>
<rect x="99.1" y="100.8" class="st1" width="26.5" height="10.6"/>
<rect x="94.4" y="98.7" class="st1" width="17.4" height="9.8"/>
<rect x="98.5" y="73.1" class="st1" width="23.3" height="29.2"/>
<polygon class="st1" points="116.1,83.9 100.4,83.9 100.4,71.3 108.3,69.1 116.1,71.3 "/>
<rect x="68.3" y="93.4" class="st1" width="17.5" height="30.5"/>
<rect x="81.6" y="116.9" class="st1" width="7.7" height="7.1"/>
<rect x="8.9" y="115.5" class="st1" width="64.5" height="8.5"/>
<rect x="151.8" y="116.9" class="st1" width="5" height="7.1"/>
<rect y="91.8" class="st1" width="27.9" height="31.6"/>
<rect x="32.7" y="110.5" class="st1" width="20.5" height="10.4"/>
<rect x="44.3" y="82.4" class="st1" width="25.6" height="37.3"/>
<rect x="49.5" y="56.5" class="st1" width="31.6" height="43.8"/>
<rect x="52.1" y="53.7" class="st1" width="22" height="9.6"/>
<rect x="63.5" y="51" class="st1" width="8.6" height="7.1"/>
<rect x="54.5" y="49.6" class="st1" width="6.2" height="7.4"/>
<rect x="53.2" y="52.3" class="st1" width="8.7" height="6.7"/>
<rect x="56.6" y="36.3" class="st1" width="2.3" height="14.7"/>
<rect y="75.5" class="st1" width="17.5" height="23"/>
<rect x="7.2" y="74.3" class="st1" width="9.1" height="6.2"/>
<rect x="8.7" y="72.4" class="st1" width="5.8" height="5.8"/>
<rect x="4.1" y="68.3" class="st1" width="1.8" height="9.2"/>
<rect x="2.2" y="71" class="st1" width="0.9" height="5.4"/>
<rect x="478.6" y="101.7" class="st0" width="18.9" height="16.8"/>
<rect x="482.5" y="100" class="st0" width="13.4" height="5.3"/>
<rect x="483.6" y="98.3" class="st0" width="6.4" height="3.4"/>
<rect x="491.9" y="88.8" class="st0" width="2.1" height="13.8"/>
<rect x="455.1" y="101.2" class="st0" width="21" height="17.3"/>
<rect x="471.8" y="109.1" class="st0" width="10.8" height="9.4"/>
<rect x="457.8" y="74.9" class="st0" width="17.4" height="26.8"/>
<rect x="460.5" y="57.4" class="st0" width="12" height="19.6"/>
<rect x="462.3" y="30" class="st0" width="8.9" height="28.9"/>
<polygon class="st0" points="469,30.5 464.4,30.5 464.4,14.4 466.7,12 469,14.4 "/>
<polygon class="st0" points="424.1,63.2 415.2,63.2 415.2,46.5 419.6,43.4 424.1,46.5 "/>
<polygon class="st0" points="432.3,63.2 423.5,63.2 423.5,46.5 427.9,43.4 432.3,46.5 "/>
<polygon class="st0" points="440.9,63.2 432.1,63.2 432.1,46.5 436.5,43.4 440.9,46.5 "/>
<rect x="410.4" y="58.9" class="st0" width="30.6" height="59.6"/>
<rect x="408.3" y="60.9" class="st0" width="15.1" height="57.6"/>
<rect x="436.5" y="93.3" class="st0" width="18.6" height="25.2"/>
<rect x="375.4" y="75.9" class="st0" width="30.3" height="42.6"/>
<rect x="397.8" y="104.3" class="st0" width="17.4" height="14.2"/>
<rect x="375.4" y="14.8" class="st0" width="27" height="61.1"/>
<polygon class="st0" points="400.6,23.6 386.6,23.6 386.6,12 400.6,13.3 "/>
<rect x="382.3" class="st0" width="1.9" height="17.8"/>
<rect x="377.8" class="st0" width="1.9" height="17.8"/>
<rect x="364.4" y="66.1" class="st0" width="5.2" height="22.7"/>
<rect x="353.7" y="70.4" class="st0" width="17.6" height="24.4"/>
<rect x="353.7" y="86.2" class="st0" width="24.1" height="32.3"/>
<rect x="359.8" y="62.1" class="st0" width="2.8" height="9.6"/>
<polygon class="st0" points="348.7,118.5 328.1,118.5 328.1,34.9 332.9,31.5 348.7,36.7 "/>
<rect x="327" y="37" class="st0" width="23.8" height="81.5"/>
<rect x="341" y="113.8" class="st0" width="17" height="4.7"/>
<rect x="296.4" y="79.4" class="st0" width="22" height="39.1"/>
<rect x="311.9" y="97.2" class="st0" width="18.8" height="21.3"/>
<rect x="287.5" y="107.9" class="st0" width="6.5" height="10.7"/>
<rect x="284.2" y="114.8" class="st0" width="19.1" height="3.7"/>
<polygon class="st0" points="312.5,82.6 302.5,82.6 302.5,76.8 307.5,74.1 312.5,76.8 "/>
<rect x="314.6" y="64.1" class="st0" width="2.6" height="15.2"/>
<rect x="297.8" y="64.3" class="st0" width="2.5" height="15.2"/>
<rect x="343.4" y="99.7" class="st1" width="32.9" height="18.5"/>
<rect x="362" y="103.9" class="st1" width="16.3" height="14.2"/>
<rect x="349.3" y="95.3" class="st1" width="26.5" height="10.6"/>
<rect x="344.6" y="93.2" class="st1" width="17.4" height="9.8"/>
<rect x="348.6" y="67.6" class="st1" width="23.4" height="29.2"/>
<polygon class="st1" points="366.3,78.5 350.6,78.5 350.6,65.9 358.4,63.6 366.3,65.9 "/>
<rect x="318.5" y="88" class="st1" width="17.5" height="30.5"/>
<rect x="331.8" y="111.4" class="st1" width="7.7" height="7.1"/>
<rect x="259" y="110" class="st1" width="64.5" height="8.5"/>
<rect x="401.9" y="111.4" class="st1" width="5" height="7.1"/>
<rect x="250.2" y="86.3" class="st1" width="27.9" height="31.6"/>
<rect x="282.8" y="105.1" class="st1" width="20.5" height="10.4"/>
<rect x="294.4" y="77" class="st1" width="25.6" height="37.3"/>
<rect x="299.6" y="51.1" class="st1" width="31.6" height="43.8"/>
<rect x="302.3" y="48.2" class="st1" width="22" height="9.6"/>
<rect x="313.7" y="45.5" class="st1" width="8.6" height="7.1"/>
<rect x="304.7" y="44.1" class="st1" width="6.2" height="7.4"/>
<rect x="303.4" y="46.8" class="st1" width="8.7" height="6.7"/>
<rect x="306.8" y="30.8" class="st1" width="2.3" height="14.7"/>
<rect x="250.2" y="70" class="st1" width="17.5" height="23"/>
<rect x="257.4" y="68.9" class="st1" width="9.1" height="6.2"/>
<rect x="258.9" y="66.9" class="st1" width="5.8" height="5.8"/>
<rect x="254.3" y="62.8" class="st1" width="1.8" height="9.1"/>
<rect x="252.3" y="65.5" class="st1" width="0.9" height="5.4"/>
<polygon class="st0" points="484.4,93.2 498.8,93.2 498.8,34.7 495.4,32.3 484.4,35.9 "/>
<rect x="482.9" y="36.2" class="st0" width="16.6" height="57.1"/>
<rect x="477.8" y="89.9" class="st0" width="11.9" height="3.3"/>
<rect x="505.6" y="65.9" class="st0" width="15.4" height="27.4"/>
<rect x="497" y="78.3" class="st0" width="13.1" height="14.9"/>
<rect x="522.7" y="85.8" class="st0" width="4.6" height="7.5"/>
<rect x="516.2" y="90.6" class="st0" width="13.4" height="2.6"/>
<polygon class="st0" points="509.8,68.1 516.7,68.1 516.7,64 513.2,62.1 509.8,64 "/>
<rect x="506.4" y="55.1" class="st0" width="1.8" height="10.7"/>
<rect x="518.3" y="55.3" class="st0" width="1.8" height="10.6"/>
<rect x="493.3" y="71.9" class="st1" width="12.2" height="21.4"/>
<rect x="490.9" y="88.2" class="st1" width="5.4" height="5"/>
<rect x="502" y="87.3" class="st1" width="45.2" height="5.9"/>
<rect x="533.8" y="70.7" class="st1" width="19.5" height="22.1"/>
<rect x="516.1" y="83.8" class="st1" width="14.4" height="7.3"/>
<rect x="504.4" y="64.1" class="st1" width="17.9" height="26.1"/>
<rect x="496.6" y="46" class="st1" width="22.1" height="30.7"/>
<rect x="501.5" y="44" class="st1" width="15.4" height="6.7"/>
<rect x="502.9" y="42.1" class="st1" width="6" height="5"/>
<rect x="510.9" y="41.1" class="st1" width="4.3" height="5.2"/>
<rect x="510" y="43" class="st1" width="6.1" height="4.7"/>
<rect x="512.2" y="31.8" class="st1" width="1.6" height="10.3"/>
<rect x="541.2" y="59.3" class="st1" width="12.2" height="16.1"/>
<rect x="542" y="58.5" class="st1" width="6.3" height="4.3"/>
<rect x="543.2" y="57.1" class="st1" width="4" height="4"/>
<rect x="549.3" y="54.2" class="st1" width="1.2" height="6.4"/>
<rect x="551.2" y="56.1" class="st1" width="0.7" height="3.8"/>
</svg>
