<svg id="Слой_2" data-name="Слой 2" xmlns="http://www.w3.org/2000/svg" viewBox="0 0 74.98 92.01"><defs><style>.cls-1{fill:#59843d;}.cls-2{fill:#606060;}</style></defs><title>road detail</title><path class="cls-1" d="M40.59,0c8.46.44,10.58,5.29,12.17,12.69S51.7,26,38,26.48s-13.76-10-13.76-14.81S30.54-.5,40.59,0Z"/><path class="cls-1" d="M61.23,20.13c9.87,2,12.69,8.46,13.22,15.87s-20.1,14.81-27.51,9.52S39,26,45.35,22.78A27.83,27.83,0,0,1,61.23,20.13Z"/><path class="cls-1" d="M64.4,40.76c8.45-.7,12.7,10.58,9.52,16.93S55.7,68.51,51.58,60.45,51.7,41.82,64.4,40.76Z"/><path class="cls-1" d="M20,23.3c12.21-.29,14.29,9,12.17,14.29s-7.41,6.88-14.81,5.82S-1.73,23.83,20,23.3Z"/><path class="cls-1" d="M17.32,41.29c10.59,0,14.28,11.11,12.16,18.52S18.9,70.39,9.38,68.27-1.2,57.69.92,50.81,7.26,41.29,17.32,41.29Z"/><path class="cls-2" d="M36.53,18.51V92h6.3S40.73,18.51,36.53,18.51Z"/><path class="cls-2" d="M26,37.41a21.09,21.09,0,0,0,5,9.17C33,48.8,38.63,50,38.63,50v2.1s-5.1-.86-8.4-4.2a34.4,34.4,0,0,1-6.3-8.4Z"/><path class="cls-2" d="M24.81,52.06a21.16,21.16,0,0,0,6.39,8.29c2.29,1.89,8,2.23,8,2.23l.32,2.07a17.32,17.32,0,0,1-9-2.86,34.74,34.74,0,0,1-7.51-7.33Z"/><path class="cls-2" d="M52.14,43.23a21.05,21.05,0,0,1-5,9.17c-2,2.22-7.55,3.43-7.55,3.43v2.1s5.1-.86,8.4-4.2a34.4,34.4,0,0,0,6.3-8.4Z"/><path class="cls-2" d="M54.41,55.76A21,21,0,0,1,48,64.05c-2.29,1.89-8,2.23-8,2.23l-.32,2.08s5.17-.07,8.94-2.87a34.18,34.18,0,0,0,7.51-7.33Z"/><path class="cls-2" d="M50.55,32.65a21.09,21.09,0,0,1-5,9.17C43.53,44,38,45.25,38,45.25v2.1s5.1-.86,8.4-4.2a34.4,34.4,0,0,0,6.3-8.4Z"/></svg>