<?xml version="1.0" encoding="UTF-8"?>
<!DOCTYPE svg PUBLIC "-//W3C//DTD SVG 1.1//EN" "http://www.w3.org/Graphics/SVG/1.1/DTD/svg11.dtd">
<svg xmlns="http://www.w3.org/2000/svg" version="1.1" width="3354px" height="3907px" style="shape-rendering:geometricPrecision; text-rendering:geometricPrecision; image-rendering:optimizeQuality; fill-rule:evenodd; clip-rule:evenodd" xmlns:xlink="http://www.w3.org/1999/xlink">
<g><path style="opacity:0.999" fill="#44a347" d="M 1298.5,-0.5 C 1308.83,-0.5 1319.17,-0.5 1329.5,-0.5C 1429.47,4.99027 1521.81,34.4903 1606.5,88C 1722.1,161.431 1806.43,261.265 1859.5,387.5C 1925.2,365.882 1991.87,362.215 2059.5,376.5C 2131.43,508.393 2137.6,643.393 2078,781.5C 2063.46,812.828 2046.29,842.494 2026.5,870.5C 2129.92,952.116 2202.75,1055.45 2245,1180.5C 2285.13,1314.61 2277.46,1445.95 2222,1574.5C 2199.63,1624.8 2171.63,1671.46 2138,1714.5C 2138.48,1716.54 2139.32,1718.54 2140.5,1720.5C 2074.5,1790.87 2038.83,1874.54 2033.5,1971.5C 1969.98,1990.2 1919.15,2026.53 1881,2080.5C 1866.55,2100.73 1854.72,2122.4 1845.5,2145.5C 1833.04,2152.33 1820.71,2160.16 1808.5,2169C 1711.83,2239.49 1637.16,2328.32 1584.5,2435.5C 1567.21,2427.19 1550.55,2417.86 1534.5,2407.5C 1502.84,2224.5 1471,2041.5 1439,1858.5C 1428.67,2047.47 1418.83,2236.47 1409.5,2425.5C 1372.28,2445.11 1333.61,2461.44 1293.5,2474.5C 1243.24,2424.26 1187.24,2382.09 1125.5,2348C 1166.49,2390.86 1201.49,2438.02 1230.5,2489.5C 1230.42,2490.75 1229.76,2491.58 1228.5,2492C 1069,2520.37 919.998,2492.7 781.5,2409C 762.09,2396.75 743.09,2383.92 724.5,2370.5C 648.07,2435.03 559.737,2471.53 459.5,2480C 427.949,2481.63 396.616,2479.79 365.5,2474.5C 343.186,2431.72 328.353,2386.39 321,2338.5C 318.827,2322.39 316.993,2306.39 315.5,2290.5C 313.788,2159.96 353.455,2043.96 434.5,1942.5C 335.875,1820.03 298.708,1680.69 323,1524.5C 340.718,1424.1 380.885,1334.1 443.5,1254.5C 406.217,1163.78 398.051,1070.44 419,974.5C 449.327,844.249 517.827,739.416 624.5,660C 668.152,629.095 715.985,606.928 768,593.5C 774.93,433.064 831.93,293.731 939,175.5C 1001.82,106.995 1076.99,56.8283 1164.5,25C 1208.12,10.2408 1252.79,1.74077 1298.5,-0.5 Z"/></g>
<g><path style="opacity:1" fill="#398e3d" d="M 2059.5,376.5 C 2144.98,395.404 2220.31,433.571 2285.5,491C 2364.35,560.162 2417.19,645.662 2444,747.5C 2468.78,862.363 2452.45,971.03 2395,1073.5C 2385.58,1090.01 2375.42,1106.01 2364.5,1121.5C 2449.01,1189.21 2513.84,1272.21 2559,1370.5C 2610.02,1486.85 2620.85,1606.85 2591.5,1730.5C 2535.24,1673.53 2467.24,1639.03 2387.5,1627C 2325.89,1620.09 2268.22,1632.09 2214.5,1663C 2187.67,1679.32 2163,1698.49 2140.5,1720.5C 2139.32,1718.54 2138.48,1716.54 2138,1714.5C 2171.63,1671.46 2199.63,1624.8 2222,1574.5C 2277.46,1445.95 2285.13,1314.61 2245,1180.5C 2202.75,1055.45 2129.92,952.116 2026.5,870.5C 2046.29,842.494 2063.46,812.828 2078,781.5C 2137.6,643.393 2131.43,508.393 2059.5,376.5 Z"/></g>
<g><path style="opacity:1" fill="#56bb56" d="M 2591.5,1730.5 C 2626.33,1765.04 2653.33,1805.04 2672.5,1850.5C 2710.66,1838.3 2749.33,1836.3 2788.5,1844.5C 2834.24,1928.63 2835.07,2013.3 2791,2098.5C 2784.58,2110.34 2777.42,2121.67 2769.5,2132.5C 2807.69,2163.84 2839.53,2200.51 2865,2242.5C 2919.38,2337.77 2926.38,2436.44 2886,2538.5C 2872.64,2570.23 2855.48,2599.57 2834.5,2626.5C 2902.92,2715.48 2913.76,2811.15 2867,2913.5C 2826.86,2990.66 2765.02,3041.5 2681.5,3066C 2649.3,3073.98 2616.8,3075.48 2584,3070.5C 2582.32,3070.39 2581.15,3069.73 2580.5,3068.5C 2600.3,3002.96 2631.47,2943.62 2674,2890.5C 2687.4,2875.59 2701.23,2861.93 2715.5,2849.5C 2624.54,2891.46 2556.54,2957.13 2511.5,3046.5C 2501.43,3042.3 2491.77,3037.3 2482.5,3031.5C 2463.74,2925.61 2445.41,2819.61 2427.5,2713.5C 2426.26,2706.99 2425.59,2706.99 2425.5,2713.5C 2420.18,2822.87 2414.52,2932.2 2408.5,3041.5C 2387.13,3053.18 2364.8,3062.51 2341.5,3069.5C 2313.01,3041.94 2281.67,3018.27 2247.5,2998.5C 2246.33,2996.58 2244.67,2995.75 2242.5,2996C 2243.71,2997.38 2245.04,2998.54 2246.5,2999.5C 2269.27,3023.72 2288.6,3050.39 2304.5,3079.5C 2196.09,3098.81 2097.76,3075.48 2009.5,3009.5C 1974.69,3037.74 1935.36,3057.24 1891.5,3068C 1861.98,3074.15 1832.31,3074.98 1802.5,3070.5C 1801.27,3070.52 1800.27,3070.85 1799.5,3071.5C 1773.17,3020.16 1764.33,2965.83 1773,2908.5C 1781.87,2852.82 1804.04,2803.32 1839.5,2760C 1813.83,2729.1 1795.16,2694.26 1783.5,2655.5C 1766.55,2597.26 1766.21,2538.92 1782.5,2480.5C 1789.54,2455.08 1799.38,2430.74 1812,2407.5C 1822.1,2390.09 1832.94,2373.26 1844.5,2357C 1826.05,2311.45 1820.05,2264.28 1826.5,2215.5C 1830.02,2191.42 1836.35,2168.08 1845.5,2145.5C 1854.72,2122.4 1866.55,2100.73 1881,2080.5C 1919.15,2026.53 1969.98,1990.2 2033.5,1971.5C 2038.83,1874.54 2074.5,1790.87 2140.5,1720.5C 2163,1698.49 2187.67,1679.32 2214.5,1663C 2268.22,1632.09 2325.89,1620.09 2387.5,1627C 2467.24,1639.03 2535.24,1673.53 2591.5,1730.5 Z"/></g>
<g><path style="opacity:1" fill="#44a448" d="M 2788.5,1844.5 C 2856.58,1860.12 2912.75,1894.79 2957,1948.5C 3023.81,2032.81 3037.47,2125.14 2998,2225.5C 2989.66,2245.02 2979.16,2263.19 2966.5,2280C 3038.81,2336.71 3084.64,2410.21 3104,2500.5C 3117.54,2587.46 3100.87,2668.13 3054,2742.5C 3046.99,2753 3039.83,2763.33 3032.5,2773.5C 3061.22,2810.11 3080.06,2851.44 3089,2897.5C 3100.66,2981.5 3079.32,3055.84 3025,3120.5C 2978.96,3174.48 2920.79,3207.31 2850.5,3219C 2775.98,3226.34 2709.81,3206.5 2652,3159.5C 2620.89,3182.31 2587.06,3200.31 2550.5,3213.5C 2555.15,3163.93 2565.15,3115.6 2580.5,3068.5C 2581.15,3069.73 2582.32,3070.39 2584,3070.5C 2616.8,3075.48 2649.3,3073.98 2681.5,3066C 2765.02,3041.5 2826.86,2990.66 2867,2913.5C 2913.76,2811.15 2902.92,2715.48 2834.5,2626.5C 2855.48,2599.57 2872.64,2570.23 2886,2538.5C 2926.38,2436.44 2919.38,2337.77 2865,2242.5C 2839.53,2200.51 2807.69,2163.84 2769.5,2132.5C 2777.42,2121.67 2784.58,2110.34 2791,2098.5C 2835.07,2013.3 2834.24,1928.63 2788.5,1844.5 Z"/></g>
<g><path style="opacity:0.999" fill="#704b2a" d="M 1534.5,2407.5 C 1539.96,2442.59 1545.96,2477.59 1552.5,2512.5C 1561.26,2485.98 1571.93,2460.31 1584.5,2435.5C 1637.16,2328.32 1711.83,2239.49 1808.5,2169C 1820.71,2160.16 1833.04,2152.33 1845.5,2145.5C 1836.35,2168.08 1830.02,2191.42 1826.5,2215.5C 1771.62,2294.69 1730.29,2380.69 1702.5,2473.5C 1690.68,2509.52 1680.85,2546.18 1673,2583.5C 1664.1,2627.93 1656.6,2672.6 1650.5,2717.5C 1650.54,2718.42 1650.88,2719.08 1651.5,2719.5C 1644.68,2776.61 1640.85,2833.94 1640,2891.5C 1639.5,3090.17 1639.33,3288.83 1639.5,3487.5C 1622.2,3502.64 1606.03,3518.97 1591,3536.5C 1576.11,3556.26 1563.78,3577.6 1554,3600.5C 1549.49,3593.49 1545.49,3586.15 1542,3578.5C 1533.17,3553.35 1523.17,3528.69 1512,3504.5C 1473.62,3442.7 1417.78,3409.7 1344.5,3405.5C 1346.31,3256.48 1345.47,3107.48 1342,2958.5C 1340.77,2901.04 1337.43,2843.71 1332,2786.5C 1330.16,2771.77 1327.99,2757.11 1325.5,2742.5C 1308.99,2652.27 1277.32,2567.94 1230.5,2489.5C 1201.49,2438.02 1166.49,2390.86 1125.5,2348C 1187.24,2382.09 1243.24,2424.26 1293.5,2474.5C 1339.25,2519.44 1374.08,2571.78 1398,2631.5C 1402.17,2562.86 1406,2494.19 1409.5,2425.5C 1418.83,2236.47 1428.67,2047.47 1439,1858.5C 1471,2041.5 1502.84,2224.5 1534.5,2407.5 Z"/></g>
<g><path style="opacity:1" fill="#44a347" d="M 1826.5,2215.5 C 1820.05,2264.28 1826.05,2311.45 1844.5,2357C 1832.94,2373.26 1822.1,2390.09 1812,2407.5C 1799.38,2430.74 1789.54,2455.08 1782.5,2480.5C 1755.43,2481.09 1728.76,2478.76 1702.5,2473.5C 1730.29,2380.69 1771.62,2294.69 1826.5,2215.5 Z"/></g>
<g><path style="opacity:0.999" fill="#3a9239" d="M 315.5,2290.5 C 316.993,2306.39 318.827,2322.39 321,2338.5C 328.353,2386.39 343.186,2431.72 365.5,2474.5C 406.128,2553.31 464.128,2616.47 539.5,2664C 645.222,2728.51 758.555,2746.51 879.5,2718C 947.623,2699.2 1008.12,2667.03 1061,2621.5C 1061.75,2622.13 1062.58,2622.63 1063.5,2623C 1062.2,2624.62 1062.2,2626.12 1063.5,2627.5C 1068.61,2705 1047.27,2774.17 999.5,2835C 1059.36,2913.33 1066.86,2996.49 1022,3084.5C 994.894,3131.11 957.394,3166.45 909.5,3190.5C 875.161,3173.98 839.161,3164.31 801.5,3161.5C 808.605,3147.29 815.772,3132.96 823,3118.5C 842.729,3081.68 867.895,3049.68 898.5,3022.5C 830.264,3053.4 777.598,3101.4 740.5,3166.5C 728.409,3169.42 716.742,3173.76 705.5,3179.5C 689.716,3087.85 673.882,2996.18 658,2904.5C 652.768,2997.15 647.934,3089.81 643.5,3182.5C 631.61,3188.28 619.61,3193.78 607.5,3199C 600.614,3201.64 593.614,3203.8 586.5,3205.5C 562.19,3181.39 535.19,3161.22 505.5,3145C 524.997,3165.85 541.664,3188.69 555.5,3213.5C 553.337,3214.47 551.004,3215.3 548.5,3216C 474.013,3227.63 404.347,3214.29 339.5,3176C 329.167,3169.17 318.833,3162.33 308.5,3155.5C 257.24,3197.34 198.906,3215 133.5,3208.5C 107.3,3156.53 101.467,3102.19 116,3045.5C 126.122,3008.75 142.956,2975.59 166.5,2946C 113.528,2879.59 96.6947,2804.75 116,2721.5C 126.597,2680.14 144.764,2642.64 170.5,2609C 146.1,2544.65 148.266,2481.15 177,2418.5C 202.777,2363.72 242.943,2323.22 297.5,2297C 303.413,2294.54 309.413,2292.37 315.5,2290.5 Z"/></g>
<g><path style="opacity:1" fill="#398d3d" d="M 1230.5,2489.5 C 1277.32,2567.94 1308.99,2652.27 1325.5,2742.5C 1289.95,2735.54 1255.28,2725.54 1221.5,2712.5C 1164.91,2689.97 1112.41,2660.63 1064,2624.5C 1063.52,2625.45 1063.35,2626.45 1063.5,2627.5C 1062.2,2626.12 1062.2,2624.62 1063.5,2623C 1062.58,2622.63 1061.75,2622.13 1061,2621.5C 1008.12,2667.03 947.623,2699.2 879.5,2718C 758.555,2746.51 645.222,2728.51 539.5,2664C 464.128,2616.47 406.128,2553.31 365.5,2474.5C 396.616,2479.79 427.949,2481.63 459.5,2480C 559.737,2471.53 648.07,2435.03 724.5,2370.5C 743.09,2383.92 762.09,2396.75 781.5,2409C 919.998,2492.7 1069,2520.37 1228.5,2492C 1229.76,2491.58 1230.42,2490.75 1230.5,2489.5 Z"/></g>
<g><path style="opacity:1" fill="#398d3c" d="M 1534.5,2407.5 C 1550.55,2417.86 1567.21,2427.19 1584.5,2435.5C 1571.93,2460.31 1561.26,2485.98 1552.5,2512.5C 1545.96,2477.59 1539.96,2442.59 1534.5,2407.5 Z"/></g>
<g><path style="opacity:1" fill="#398d3c" d="M 1409.5,2425.5 C 1406,2494.19 1402.17,2562.86 1398,2631.5C 1374.08,2571.78 1339.25,2519.44 1293.5,2474.5C 1333.61,2461.44 1372.28,2445.11 1409.5,2425.5 Z"/></g>
<g><path style="opacity:1" fill="#398d3d" d="M 1702.5,2473.5 C 1728.76,2478.76 1755.43,2481.09 1782.5,2480.5C 1766.21,2538.92 1766.55,2597.26 1783.5,2655.5C 1741.92,2681.62 1697.92,2702.95 1651.5,2719.5C 1650.88,2719.08 1650.54,2718.42 1650.5,2717.5C 1656.6,2672.6 1664.1,2627.93 1673,2583.5C 1680.85,2546.18 1690.68,2509.52 1702.5,2473.5 Z"/></g>
<g><path style="opacity:1" fill="#317c31" d="M 1221.5,2712.5 C 1238.68,2788.42 1227.18,2859.75 1187,2926.5C 1180.2,2937.28 1173.03,2947.78 1165.5,2958C 1224.61,3036.89 1231.78,3120.39 1187,3208.5C 1159.33,3257.34 1119.83,3293.01 1068.5,3315.5C 1034.56,3273.39 994.556,3238.22 948.5,3210C 936.036,3202.43 923.036,3195.93 909.5,3190.5C 957.394,3166.45 994.894,3131.11 1022,3084.5C 1066.86,2996.49 1059.36,2913.33 999.5,2835C 1047.27,2774.17 1068.61,2705 1063.5,2627.5C 1063.35,2626.45 1063.52,2625.45 1064,2624.5C 1112.41,2660.63 1164.91,2689.97 1221.5,2712.5 Z"/></g>
<g><path style="opacity:1" fill="#638842" d="M 2427.5,2713.5 C 2426.83,2713.5 2426.17,2713.5 2425.5,2713.5C 2425.59,2706.99 2426.26,2706.99 2427.5,2713.5 Z"/></g>
<g><path style="opacity:0.999" fill="#704b2a" d="M 2425.5,2713.5 C 2426.17,2713.5 2426.83,2713.5 2427.5,2713.5C 2445.41,2819.61 2463.74,2925.61 2482.5,3031.5C 2485.17,3051.34 2488.67,3071 2493,3090.5C 2498.1,3075.36 2504.27,3060.69 2511.5,3046.5C 2556.54,2957.13 2624.54,2891.46 2715.5,2849.5C 2701.23,2861.93 2687.4,2875.59 2674,2890.5C 2631.47,2943.62 2600.3,3002.96 2580.5,3068.5C 2565.15,3115.6 2555.15,3163.93 2550.5,3213.5C 2546.82,3245.05 2544.65,3276.72 2544,3308.5C 2543.5,3377.5 2543.33,3446.5 2543.5,3515.5C 2543.5,3592.83 2543.5,3670.17 2543.5,3747.5C 2543.5,3800.5 2543.5,3853.5 2543.5,3906.5C 2484.17,3906.5 2424.83,3906.5 2365.5,3906.5C 2365.8,3894.83 2366.13,3883.17 2366.5,3871.5C 2367.78,3811.16 2369.11,3750.83 2370.5,3690.5C 2370.49,3688.63 2370.16,3686.96 2369.5,3685.5C 2371.84,3582.18 2372.01,3478.84 2370,3375.5C 2369.36,3343.47 2368.03,3311.47 2366,3279.5C 2364.9,3261.68 2362.73,3244.01 2359.5,3226.5C 2350.38,3173.95 2332.05,3124.95 2304.5,3079.5C 2288.6,3050.39 2269.27,3023.72 2246.5,2999.5C 2246.5,2998.83 2246.83,2998.5 2247.5,2998.5C 2281.67,3018.27 2313.01,3041.94 2341.5,3069.5C 2364.79,3093.31 2383.62,3120.31 2398,3150.5C 2399.46,3153.75 2400.63,3157.08 2401.5,3160.5C 2401.78,3161.29 2402.28,3161.96 2403,3162.5C 2403.5,3159.85 2403.66,3157.19 2403.5,3154.5C 2405.06,3116.83 2406.73,3079.16 2408.5,3041.5C 2414.52,2932.2 2420.18,2822.87 2425.5,2713.5 Z"/></g>
<g><path style="opacity:1" fill="#704b2a" d="M 705.5,3179.5 C 678.978,3194.35 657.645,3214.69 641.5,3240.5C 640.837,3238.53 640.504,3236.36 640.5,3234C 641.45,3216.82 642.45,3199.66 643.5,3182.5C 647.934,3089.81 652.768,2997.15 658,2904.5C 673.882,2996.18 689.716,3087.85 705.5,3179.5 Z"/></g>
<g><path style="opacity:1" fill="#697339" d="M 2247.5,2998.5 C 2246.83,2998.5 2246.5,2998.83 2246.5,2999.5C 2245.04,2998.54 2243.71,2997.38 2242.5,2996C 2244.67,2995.75 2246.33,2996.58 2247.5,2998.5 Z"/></g>
<g><path style="opacity:1" fill="#44a448" d="M 2304.5,3079.5 C 2332.05,3124.95 2350.38,3173.95 2359.5,3226.5C 2318.75,3218.42 2280.42,3203.92 2244.5,3183C 2231.36,3174.7 2218.36,3166.2 2205.5,3157.5C 2114.98,3229.58 2017.65,3240.08 1913.5,3189C 1863.44,3161.44 1825.44,3122.27 1799.5,3071.5C 1800.27,3070.85 1801.27,3070.52 1802.5,3070.5C 1832.31,3074.98 1861.98,3074.15 1891.5,3068C 1935.36,3057.24 1974.69,3037.74 2009.5,3009.5C 2097.76,3075.48 2196.09,3098.81 2304.5,3079.5 Z"/></g>
<g><path style="opacity:1" fill="#704b2a" d="M 801.5,3161.5 C 789.829,3161.33 778.162,3161.5 766.5,3162C 757.641,3162.53 748.974,3164.03 740.5,3166.5C 777.598,3101.4 830.264,3053.4 898.5,3022.5C 867.895,3049.68 842.729,3081.68 823,3118.5C 815.772,3132.96 808.605,3147.29 801.5,3161.5 Z"/></g>
<g><path style="opacity:1" fill="#45a247" d="M 2482.5,3031.5 C 2491.77,3037.3 2501.43,3042.3 2511.5,3046.5C 2504.27,3060.69 2498.1,3075.36 2493,3090.5C 2488.67,3071 2485.17,3051.34 2482.5,3031.5 Z"/></g>
<g><path style="opacity:1" fill="#44a347" d="M 2408.5,3041.5 C 2406.73,3079.16 2405.06,3116.83 2403.5,3154.5C 2402.83,3156.5 2402.17,3158.5 2401.5,3160.5C 2400.63,3157.08 2399.46,3153.75 2398,3150.5C 2383.62,3120.31 2364.79,3093.31 2341.5,3069.5C 2364.8,3062.51 2387.13,3053.18 2408.5,3041.5 Z"/></g>
<g><path style="opacity:1" fill="#704b2a" d="M 586.5,3205.5 C 603.193,3222.19 617.193,3240.85 628.5,3261.5C 617.667,3283.33 609.001,3306 602.5,3329.5C 592.984,3292.09 579.151,3256.09 561,3221.5C 559.391,3218.59 557.558,3215.93 555.5,3213.5C 541.664,3188.69 524.997,3165.85 505.5,3145C 535.19,3161.22 562.19,3181.39 586.5,3205.5 Z"/></g>
<g><path style="opacity:1" fill="#317c31" d="M 555.5,3213.5 C 557.558,3215.93 559.391,3218.59 561,3221.5C 579.151,3256.09 592.984,3292.09 602.5,3329.5C 601.195,3332.05 600.195,3334.72 599.5,3337.5C 553.394,3326.78 511.394,3307.44 473.5,3279.5C 400.008,3338.31 320.341,3348.14 234.5,3309C 190.338,3286.01 156.672,3252.51 133.5,3208.5C 198.906,3215 257.24,3197.34 308.5,3155.5C 318.833,3162.33 329.167,3169.17 339.5,3176C 404.347,3214.29 474.013,3227.63 548.5,3216C 551.004,3215.3 553.337,3214.47 555.5,3213.5 Z"/></g>
<g><path style="opacity:1" fill="#616a34" d="M 2403.5,3154.5 C 2403.66,3157.19 2403.5,3159.85 2403,3162.5C 2402.28,3161.96 2401.78,3161.29 2401.5,3160.5C 2402.17,3158.5 2402.83,3156.5 2403.5,3154.5 Z"/></g>
<g><path style="opacity:0.998" fill="#44a347" d="M 801.5,3161.5 C 839.161,3164.31 875.161,3173.98 909.5,3190.5C 923.036,3195.93 936.036,3202.43 948.5,3210C 994.556,3238.22 1034.56,3273.39 1068.5,3315.5C 1122.24,3384.05 1152.41,3462.05 1159,3549.5C 1178.21,3486.29 1218.38,3442.12 1279.5,3417C 1300.45,3409.11 1322.12,3405.28 1344.5,3405.5C 1417.78,3409.7 1473.62,3442.7 1512,3504.5C 1523.17,3528.69 1533.17,3553.35 1542,3578.5C 1545.49,3586.15 1549.49,3593.49 1554,3600.5C 1563.78,3577.6 1576.11,3556.26 1591,3536.5C 1606.03,3518.97 1622.2,3502.64 1639.5,3487.5C 1730.01,3421.61 1827.01,3410.44 1930.5,3454C 2037.61,3506.64 2098.11,3592.48 2112,3711.5C 2117.56,3780.19 2104.73,3845.19 2073.5,3906.5C 2056.83,3906.5 2040.17,3906.5 2023.5,3906.5C 1998.58,3847.07 1960.58,3797.57 1909.5,3758C 1837.16,3703.45 1755.49,3677.78 1664.5,3681C 1635.23,3683.76 1608.23,3693.09 1583.5,3709C 1559.6,3725.22 1537.77,3744.05 1518,3765.5C 1508.33,3776.5 1498.67,3787.5 1489,3798.5C 1464.47,3749.3 1429.3,3709.47 1383.5,3679C 1299.37,3630.96 1221.37,3638.96 1149.5,3703C 1124.02,3727.82 1097.35,3751.16 1069.5,3773C 1061.97,3778.03 1054.3,3782.86 1046.5,3787.5C 1039.15,3730.59 1019.31,3678.59 987,3631.5C 935.54,3562.69 867.04,3533.19 781.5,3543C 742.846,3552.4 710.346,3571.9 684,3601.5C 657.248,3633.3 635.248,3668.3 618,3706.5C 609.472,3725.75 601.139,3745.08 593,3764.5C 572.919,3738.41 549.086,3716.58 521.5,3699C 474.525,3674.46 434.358,3682.63 401,3723.5C 384.329,3746.83 374.329,3772.83 371,3801.5C 368.804,3818.79 367.137,3836.13 366,3853.5C 308.061,3818.06 245.561,3805.89 178.5,3817C 164.767,3820.4 155.933,3828.9 152,3842.5C 150.503,3850.78 150.169,3859.11 151,3867.5C 152.732,3880.76 155.565,3893.76 159.5,3906.5C 121.5,3906.5 83.5,3906.5 45.5,3906.5C 26.2406,3870.89 12.4072,3833.23 4,3793.5C 2.01127,3781.74 0.511271,3770.08 -0.5,3758.5C -0.5,3752.83 -0.5,3747.17 -0.5,3741.5C 4.45694,3668.78 42.7903,3625.62 114.5,3612C 160.025,3606.84 200.359,3618.84 235.5,3648C 254.328,3663.82 269.828,3682.32 282,3703.5C 283.4,3668.29 288.4,3633.63 297,3599.5C 305.85,3564.26 324.35,3535.42 352.5,3513C 383.239,3493.21 416.572,3487.21 452.5,3495C 491.11,3503.64 519.943,3525.14 539,3559.5C 558.863,3485.38 579.03,3411.38 599.5,3337.5C 600.195,3334.72 601.195,3332.05 602.5,3329.5C 609.001,3306 617.667,3283.33 628.5,3261.5C 632.569,3254.37 636.902,3247.37 641.5,3240.5C 657.645,3214.69 678.978,3194.35 705.5,3179.5C 716.742,3173.76 728.409,3169.42 740.5,3166.5C 748.974,3164.03 757.641,3162.53 766.5,3162C 778.162,3161.5 789.829,3161.33 801.5,3161.5 Z"/></g>
<g><path style="opacity:1" fill="#317b31" d="M 643.5,3182.5 C 642.45,3199.66 641.45,3216.82 640.5,3234C 640.504,3236.36 640.837,3238.53 641.5,3240.5C 636.902,3247.37 632.569,3254.37 628.5,3261.5C 617.193,3240.85 603.193,3222.19 586.5,3205.5C 593.614,3203.8 600.614,3201.64 607.5,3199C 619.61,3193.78 631.61,3188.28 643.5,3182.5 Z"/></g>
<g><path style="opacity:0.996" fill="#43a347" d="M 3353.5,3795.5 C 3353.5,3808.5 3353.5,3821.5 3353.5,3834.5C 3350.43,3859.71 3343.1,3883.71 3331.5,3906.5C 3322.17,3906.5 3312.83,3906.5 3303.5,3906.5C 3274.85,3842.7 3226.52,3802.2 3158.5,3785C 3132.11,3777.85 3105.77,3777.85 3079.5,3785C 3058.53,3793.4 3040.37,3805.9 3025,3822.5C 3017.95,3830.04 3011.12,3837.71 3004.5,3845.5C 2989.93,3817.76 2969.59,3795.26 2943.5,3778C 2896.42,3752.83 2853.09,3757.83 2813.5,3793C 2802.13,3804.04 2790.47,3814.7 2778.5,3825C 2771.61,3830.22 2764.44,3835.06 2757,3839.5C 2752.01,3801.21 2737.01,3767.54 2712,3738.5C 2681.8,3708.32 2645.64,3696.82 2603.5,3704C 2579.03,3712.39 2559.03,3726.89 2543.5,3747.5C 2543.5,3670.17 2543.5,3592.83 2543.5,3515.5C 2562.45,3497.51 2585.11,3488.51 2611.5,3488.5C 2651.78,3490.98 2688.11,3504.15 2720.5,3528C 2779.45,3572.37 2812.62,3631.54 2820,3705.5C 2836.42,3656.26 2870.59,3629.59 2922.5,3625.5C 2969.37,3628.01 3002.87,3650.34 3023,3692.5C 3027.45,3707.19 3033.45,3721.19 3041,3734.5C 3062.55,3685.63 3099.39,3654.8 3151.5,3642C 3219.31,3631.27 3274.81,3652.43 3318,3705.5C 3337.91,3732.32 3349.74,3762.32 3353.5,3795.5 Z"/></g>
<g><path style="opacity:1" fill="#398e3d" d="M 2023.5,3906.5 C 1402.17,3906.5 780.833,3906.5 159.5,3906.5C 155.565,3893.76 152.732,3880.76 151,3867.5C 150.169,3859.11 150.503,3850.78 152,3842.5C 155.933,3828.9 164.767,3820.4 178.5,3817C 245.561,3805.89 308.061,3818.06 366,3853.5C 367.137,3836.13 368.804,3818.79 371,3801.5C 374.329,3772.83 384.329,3746.83 401,3723.5C 434.358,3682.63 474.525,3674.46 521.5,3699C 549.086,3716.58 572.919,3738.41 593,3764.5C 601.139,3745.08 609.472,3725.75 618,3706.5C 635.248,3668.3 657.248,3633.3 684,3601.5C 710.346,3571.9 742.846,3552.4 781.5,3543C 867.04,3533.19 935.54,3562.69 987,3631.5C 1019.31,3678.59 1039.15,3730.59 1046.5,3787.5C 1054.3,3782.86 1061.97,3778.03 1069.5,3773C 1097.35,3751.16 1124.02,3727.82 1149.5,3703C 1221.37,3638.96 1299.37,3630.96 1383.5,3679C 1429.3,3709.47 1464.47,3749.3 1489,3798.5C 1498.67,3787.5 1508.33,3776.5 1518,3765.5C 1537.77,3744.05 1559.6,3725.22 1583.5,3709C 1608.23,3693.09 1635.23,3683.76 1664.5,3681C 1755.49,3677.78 1837.16,3703.45 1909.5,3758C 1960.58,3797.57 1998.58,3847.07 2023.5,3906.5 Z"/></g>
<g><path style="opacity:0.992" fill="#44a347" d="M 2369.5,3685.5 C 2370.16,3686.96 2370.49,3688.63 2370.5,3690.5C 2369.11,3750.83 2367.78,3811.16 2366.5,3871.5C 2336.64,3855.97 2304.97,3850.8 2271.5,3856C 2265,3857.82 2260.16,3861.66 2257,3867.5C 2254.4,3880.84 2255.56,3893.84 2260.5,3906.5C 2239.17,3906.5 2217.83,3906.5 2196.5,3906.5C 2179.41,3877.12 2170.91,3845.45 2171,3811.5C 2172.95,3781.42 2187.45,3759.92 2214.5,3747C 2252.3,3734.16 2285.14,3741.99 2313,3770.5C 2318.78,3776.94 2323.78,3783.94 2328,3791.5C 2329.43,3767.94 2333.76,3744.94 2341,3722.5C 2346.95,3707.39 2356.45,3695.05 2369.5,3685.5 Z"/></g>
<g><path style="opacity:1" fill="#398e3d" d="M 3303.5,3906.5 C 3050.17,3906.5 2796.83,3906.5 2543.5,3906.5C 2543.5,3853.5 2543.5,3800.5 2543.5,3747.5C 2559.03,3726.89 2579.03,3712.39 2603.5,3704C 2645.64,3696.82 2681.8,3708.32 2712,3738.5C 2737.01,3767.54 2752.01,3801.21 2757,3839.5C 2764.44,3835.06 2771.61,3830.22 2778.5,3825C 2790.47,3814.7 2802.13,3804.04 2813.5,3793C 2853.09,3757.83 2896.42,3752.83 2943.5,3778C 2969.59,3795.26 2989.93,3817.76 3004.5,3845.5C 3011.12,3837.71 3017.95,3830.04 3025,3822.5C 3040.37,3805.9 3058.53,3793.4 3079.5,3785C 3105.77,3777.85 3132.11,3777.85 3158.5,3785C 3226.52,3802.2 3274.85,3842.7 3303.5,3906.5 Z"/></g>
<g><path style="opacity:1" fill="#398e3d" d="M 2366.5,3871.5 C 2366.13,3883.17 2365.8,3894.83 2365.5,3906.5C 2330.5,3906.5 2295.5,3906.5 2260.5,3906.5C 2255.56,3893.84 2254.4,3880.84 2257,3867.5C 2260.16,3861.66 2265,3857.82 2271.5,3856C 2304.97,3850.8 2336.64,3855.97 2366.5,3871.5 Z"/></g>
</svg>
