<svg id="Слой_2" data-name="Слой 2" xmlns="http://www.w3.org/2000/svg" viewBox="0 0 192.61 240.98"><defs><style>.cls-1{fill:#606060;}.cls-2{fill:#59843d;}.cls-3{fill:#8cce4d;}</style></defs><title>road detail</title><polygon class="cls-1" points="111.77 153.06 116.94 240.98 96.25 240.98 96.25 153.06 111.77 153.06"/><path class="cls-2" d="M67.81,31.53s10.34-36.2,46.54-31S160.9,52.22,160.9,52.22s25.85-5.17,31,25.86-20.68,41.37-20.68,41.37,20.68,25.86-5.17,46.54-56.89,5.17-56.89,5.17-31,31-62.06,5.17S26.44,135,26.44,135-4.59,119.45.58,93.59,26.44,67.73,26.44,67.73s-20.69-20.68,0-36.2S67.81,31.53,67.81,31.53Z"/><circle class="cls-3" cx="114.35" cy="47.05" r="12.93"/><circle class="cls-3" cx="160.9" cy="88.42" r="12.93"/><circle class="cls-3" cx="137.62" cy="132.38" r="10.34"/><circle class="cls-3" cx="101.42" cy="96.18" r="15.51"/><circle class="cls-3" cx="60.05" cy="65.15" r="10.34"/><circle class="cls-3" cx="39.37" cy="106.52" r="10.34"/><circle class="cls-3" cx="72.98" cy="140.13" r="12.93"/></svg>