<?xml version="1.0" encoding="UTF-8"?>
<!DOCTYPE svg PUBLIC "-//W3C//DTD SVG 1.1//EN" "http://www.w3.org/Graphics/SVG/1.1/DTD/svg11.dtd">
<svg xmlns="http://www.w3.org/2000/svg" version="1.1" width="1200px" height="1200px" style="shape-rendering:geometricPrecision; text-rendering:geometricPrecision; image-rendering:optimizeQuality; fill-rule:evenodd; clip-rule:evenodd" xmlns:xlink="http://www.w3.org/1999/xlink">
<g><path style="opacity:0.929" fill="#2b150f" d="M 644.5,226.5 C 643.957,226.56 643.624,226.893 643.5,227.5C 644.602,228.176 645.602,228.842 646.5,229.5C 646.5,230.167 646.167,230.5 645.5,230.5C 637.832,226.72 629.832,223.72 621.5,221.5C 620.737,220.732 619.737,220.232 618.5,220C 618.833,219.667 619.167,219.333 619.5,219C 611.027,217.568 602.693,217.735 594.5,219.5C 588.134,219.704 582.134,221.037 576.5,223.5C 574.401,224.231 572.401,224.231 570.5,223.5C 568.306,219.09 565.639,215.09 562.5,211.5C 548.506,196.363 531.172,190.529 510.5,194C 493.158,199.01 480.325,209.51 472,225.5C 453.399,211.315 432.899,207.815 410.5,215C 382.32,229.189 370.32,252.022 374.5,283.5C 332.785,275.616 300.285,289.283 277,324.5C 262.042,352.958 261.708,381.625 276,410.5C 281.279,418.61 287.446,425.943 294.5,432.5C 296.481,434.303 298.648,435.97 301,437.5C 301.47,438.577 301.303,439.577 300.5,440.5C 286.816,460.075 281.982,481.742 286,505.5C 288.411,515.9 291.911,525.9 296.5,535.5C 296.5,536.167 296.167,536.5 295.5,536.5C 293.902,532.289 291.568,528.622 288.5,525.5C 282.018,510.583 279.851,494.916 282,478.5C 283.634,464.76 288.134,452.094 295.5,440.5C 296.525,440.103 296.692,439.437 296,438.5C 294.296,436.627 292.463,434.96 290.5,433.5C 266.896,411.19 257.73,383.857 263,351.5C 273.36,310.14 299.527,285.64 341.5,278C 351.183,277.38 360.85,277.546 370.5,278.5C 368.649,245.032 383.315,222.199 414.5,210C 435.083,204.402 453.916,207.902 471,220.5C 488.895,192.422 513.728,183.589 545.5,194C 557.587,199.92 566.92,208.754 573.5,220.5C 598.138,212.366 621.804,214.366 644.5,226.5 Z"/></g>
<g><path style="opacity:1" fill="#88b540" d="M 562.5,211.5 C 565.639,215.09 568.306,219.09 570.5,223.5C 572.401,224.231 574.401,224.231 576.5,223.5C 577.552,223.351 578.552,223.517 579.5,224C 582.16,228.183 585.16,232.017 588.5,235.5C 608.639,229.908 628.639,230.241 648.5,236.5C 659.496,260.882 659.163,285.215 647.5,309.5C 667.118,344.25 665.951,378.25 644,411.5C 620.941,439.441 591.441,450.774 555.5,445.5C 556.106,498.729 530.439,531.229 478.5,543C 450.856,546.063 426.856,538.229 406.5,519.5C 377.76,547.624 344.426,554.958 306.5,541.5C 293.727,510.386 296.393,480.719 314.5,452.5C 310.114,448.109 305.447,444.109 300.5,440.5C 301.303,439.577 301.47,438.577 301,437.5C 298.648,435.97 296.481,434.303 294.5,432.5C 268.684,387.562 274.684,347.395 312.5,312C 335.132,295.01 360.466,289.01 388.5,294C 384.734,265.199 395.401,243.532 420.5,229C 444.453,218.37 466.619,221.203 487,237.5C 499.356,214.067 518.856,203.233 545.5,205C 551.583,206.302 557.249,208.468 562.5,211.5 Z"/></g>
<g><path style="opacity:1" fill="#94bd53" d="M 562.5,211.5 C 557.249,208.468 551.583,206.302 545.5,205C 518.856,203.233 499.356,214.067 487,237.5C 466.619,221.203 444.453,218.37 420.5,229C 395.401,243.532 384.734,265.199 388.5,294C 360.466,289.01 335.132,295.01 312.5,312C 274.684,347.395 268.684,387.562 294.5,432.5C 287.446,425.943 281.279,418.61 276,410.5C 261.708,381.625 262.042,352.958 277,324.5C 300.285,289.283 332.785,275.616 374.5,283.5C 370.32,252.022 382.32,229.189 410.5,215C 432.899,207.815 453.399,211.315 472,225.5C 480.325,209.51 493.158,199.01 510.5,194C 531.172,190.529 548.506,196.363 562.5,211.5 Z"/></g>
<g><path style="opacity:1" fill="#433322" d="M 621.5,221.5 C 612.59,219.838 603.59,219.171 594.5,219.5C 602.693,217.735 611.027,217.568 619.5,219C 619.167,219.333 618.833,219.667 618.5,220C 619.737,220.232 620.737,220.732 621.5,221.5 Z"/></g>
<g><path style="opacity:1" fill="#94bd53" d="M 594.5,219.5 C 603.59,219.171 612.59,219.838 621.5,221.5C 629.832,223.72 637.832,226.72 645.5,230.5C 646.167,231.167 646.833,231.833 647.5,232.5C 647.833,233.833 648.167,235.167 648.5,236.5C 628.639,230.241 608.639,229.908 588.5,235.5C 585.16,232.017 582.16,228.183 579.5,224C 578.552,223.517 577.552,223.351 576.5,223.5C 582.134,221.037 588.134,219.704 594.5,219.5 Z"/></g>
<g><path style="opacity:0.601" fill="#221004" d="M 717.5,649.5 C 718.609,648.71 719.942,648.21 721.5,648C 720.906,647.536 720.239,647.369 719.5,647.5C 753.401,640.44 776.401,620.606 788.5,588C 774.652,581.648 762.652,572.815 752.5,561.5C 749.551,558.212 746.551,554.879 743.5,551.5C 738.389,553.53 733.389,555.53 728.5,557.5C 723.823,557.835 719.156,558.335 714.5,559C 687.205,587.466 658.205,613.966 627.5,638.5C 620.021,595.412 610.021,553.078 597.5,511.5C 597.194,507.611 597.194,503.945 597.5,500.5C 608.428,538.213 618.095,576.213 626.5,614.5C 627.345,620.551 628.512,626.551 630,632.5C 638.692,625.302 647.192,617.968 655.5,610.5C 672.129,596.205 688.129,581.205 703.5,565.5C 705.63,563.873 707.63,562.04 709.5,560C 677.299,557.994 653.132,543.161 637,515.5C 633.634,508.441 631.134,501.108 629.5,493.5C 629.328,492.508 629.662,491.842 630.5,491.5C 631.024,493.306 631.691,494.972 632.5,496.5C 632.557,497.609 632.89,498.609 633.5,499.5C 648.393,539.87 677.393,558.703 720.5,556C 728.898,554.735 736.898,552.235 744.5,548.5C 776.99,590.415 817.99,601.915 867.5,583C 902.307,563.974 919.974,534.474 920.5,494.5C 920.883,486.933 919.883,479.6 917.5,472.5C 936.575,446.616 940.409,418.616 929,388.5C 924.961,379.742 919.461,372.076 912.5,365.5C 900.364,352.26 885.364,343.926 867.5,340.5C 867.167,339.167 866.833,337.833 866.5,336.5C 871.201,314.382 867.201,294.049 854.5,275.5C 834.251,246.717 806.584,234.884 771.5,240C 763.46,241.938 755.96,245.105 749,249.5C 726.743,230.71 701.243,224.21 672.5,230C 667.626,231.346 662.959,233.179 658.5,235.5C 663.854,240.188 668.854,245.188 673.5,250.5C 676.309,255.445 679.143,260.445 682,265.5C 683.467,268.758 684.633,272.092 685.5,275.5C 682.672,270.881 679.839,265.548 677,259.5C 676.124,257.365 674.624,256.031 672.5,255.5C 672.611,254.883 672.944,254.383 673.5,254C 665.929,244.263 656.929,236.096 646.5,229.5C 645.602,228.842 644.602,228.176 643.5,227.5C 643.624,226.893 643.957,226.56 644.5,226.5C 648.694,228.183 652.527,230.516 656,233.5C 689.599,218.753 720.766,222.753 749.5,245.5C 788.662,227.83 822.828,234.83 852,266.5C 868.506,287.858 874.339,311.858 869.5,338.5C 905.616,346.448 928.116,368.448 937,404.5C 941.772,429.91 936.272,452.743 920.5,473C 929.488,518.382 915.155,554.382 877.5,581C 849.838,597.257 821.005,599.757 791,588.5C 778.288,623.098 753.788,643.431 717.5,649.5 Z"/></g>
<g><path style="opacity:1" fill="#94bd53" d="M 854.5,275.5 C 829.359,254.338 801.026,249.171 769.5,260C 766.603,261.365 763.77,262.865 761,264.5C 735.973,243.635 707.806,238.135 676.5,248C 675.058,248.377 674.058,249.21 673.5,250.5C 668.854,245.188 663.854,240.188 658.5,235.5C 662.959,233.179 667.626,231.346 672.5,230C 701.243,224.21 726.743,230.71 749,249.5C 755.96,245.105 763.46,241.938 771.5,240C 806.584,234.884 834.251,246.717 854.5,275.5 Z"/></g>
<g><path style="opacity:1" fill="#3f3617" d="M 646.5,229.5 C 656.929,236.096 665.929,244.263 673.5,254C 672.944,254.383 672.611,254.883 672.5,255.5C 665.771,246.105 657.438,238.439 647.5,232.5C 646.833,231.833 646.167,231.167 645.5,230.5C 646.167,230.5 646.5,230.167 646.5,229.5 Z"/></g>
<g><path style="opacity:1" fill="#7ca636" d="M 647.5,232.5 C 657.438,238.439 665.771,246.105 672.5,255.5C 690.231,283.64 692.231,312.973 678.5,343.5C 680.127,347.111 682.127,350.445 684.5,353.5C 688.699,362.377 691.366,371.711 692.5,381.5C 693.795,397.953 691.128,413.62 684.5,428.5C 672.645,451.684 654.311,467.351 629.5,475.5C 616.291,478.525 602.957,479.191 589.5,477.5C 587.744,478.552 587.077,480.219 587.5,482.5C 587.666,487.179 587.499,491.845 587,496.5C 585.494,503.187 583.994,509.854 582.5,516.5C 579.341,523.688 575.675,530.688 571.5,537.5C 568.936,540.28 566.603,543.28 564.5,546.5C 544.187,567.053 519.52,576.386 490.5,574.5C 485.65,573.377 480.65,572.377 475.5,571.5C 461.678,567.502 449.512,560.502 439,550.5C 434.318,554.352 429.818,558.352 425.5,562.5C 398.4,581.01 369.4,584.51 338.5,573C 333.473,570.155 328.473,567.321 323.5,564.5C 314.797,558.131 307.464,550.464 301.5,541.5C 301.369,540.624 301.702,539.957 302.5,539.5C 303.86,540.18 305.193,540.847 306.5,541.5C 344.426,554.958 377.76,547.624 406.5,519.5C 426.856,538.229 450.856,546.063 478.5,543C 530.439,531.229 556.106,498.729 555.5,445.5C 591.441,450.774 620.941,439.441 644,411.5C 665.951,378.25 667.118,344.25 647.5,309.5C 659.163,285.215 659.496,260.882 648.5,236.5C 648.167,235.167 647.833,233.833 647.5,232.5 Z"/></g>
<g><path style="opacity:1" fill="#87b43f" d="M 854.5,275.5 C 867.201,294.049 871.201,314.382 866.5,336.5C 866.833,337.833 867.167,339.167 867.5,340.5C 885.364,343.926 900.364,352.26 912.5,365.5C 910.629,365.141 909.129,364.141 908,362.5C 912.286,388.141 906.786,411.475 891.5,432.5C 899.785,474.58 887.118,508.747 853.5,535C 816.983,557.325 780.65,556.992 744.5,534C 734.313,526.646 725.646,517.813 718.5,507.5C 693.093,518.917 668.093,518.084 643.5,505C 640.577,502.955 637.743,500.788 635,498.5C 634.617,499.056 634.117,499.389 633.5,499.5C 632.89,498.609 632.557,497.609 632.5,496.5C 632.966,494.799 632.966,493.299 632.5,492C 676.681,479.467 700.348,450.3 703.5,404.5C 703.447,391.511 700.614,379.178 695,367.5C 695.412,369.995 695.245,372.329 694.5,374.5C 693.211,368.721 691.544,363.054 689.5,357.5C 694.874,344.203 697.874,330.37 698.5,316C 697.874,302.875 694.707,290.375 689,278.5C 688.617,279.056 688.117,279.389 687.5,279.5C 687.34,277.847 686.674,276.514 685.5,275.5C 684.633,272.092 683.467,268.758 682,265.5C 679.143,260.445 676.309,255.445 673.5,250.5C 674.058,249.21 675.058,248.377 676.5,248C 707.806,238.135 735.973,243.635 761,264.5C 763.77,262.865 766.603,261.365 769.5,260C 801.026,249.171 829.359,254.338 854.5,275.5 Z"/></g>
<g><path style="opacity:1" fill="#7ca636" d="M 689.5,357.5 C 687.055,352.776 684.722,347.942 682.5,343C 689.555,325.78 691.889,307.947 689.5,289.5C 689.149,286.097 688.482,282.763 687.5,279.5C 688.117,279.389 688.617,279.056 689,278.5C 694.707,290.375 697.874,302.875 698.5,316C 697.874,330.37 694.874,344.203 689.5,357.5 Z"/></g>
<g><path style="opacity:1" fill="#31270a" d="M 672.5,255.5 C 674.624,256.031 676.124,257.365 677,259.5C 679.839,265.548 682.672,270.881 685.5,275.5C 686.674,276.514 687.34,277.847 687.5,279.5C 688.482,282.763 689.149,286.097 689.5,289.5C 690.57,307.909 687.57,325.742 680.5,343C 681.903,346.473 683.57,349.806 685.5,353C 685.272,353.399 684.938,353.565 684.5,353.5C 682.127,350.445 680.127,347.111 678.5,343.5C 692.231,312.973 690.231,283.64 672.5,255.5 Z"/></g>
<g><path style="opacity:1" fill="#7ca636" d="M 912.5,365.5 C 919.461,372.076 924.961,379.742 929,388.5C 940.409,418.616 936.575,446.616 917.5,472.5C 919.883,479.6 920.883,486.933 920.5,494.5C 919.974,534.474 902.307,563.974 867.5,583C 817.99,601.915 776.99,590.415 744.5,548.5C 736.898,552.235 728.898,554.735 720.5,556C 677.393,558.703 648.393,539.87 633.5,499.5C 634.117,499.389 634.617,499.056 635,498.5C 637.743,500.788 640.577,502.955 643.5,505C 668.093,518.084 693.093,518.917 718.5,507.5C 725.646,517.813 734.313,526.646 744.5,534C 780.65,556.992 816.983,557.325 853.5,535C 887.118,508.747 899.785,474.58 891.5,432.5C 906.786,411.475 912.286,388.141 908,362.5C 909.129,364.141 910.629,365.141 912.5,365.5 Z"/></g>
<g><path style="opacity:1" fill="#241506" d="M 689.5,289.5 C 691.889,307.947 689.555,325.78 682.5,343C 684.722,347.942 687.055,352.776 689.5,357.5C 691.544,363.054 693.211,368.721 694.5,374.5C 698.428,400.028 693.095,423.361 678.5,444.5C 677.957,444.44 677.624,444.107 677.5,443.5C 681.193,439.114 683.527,434.114 684.5,428.5C 686.335,427.878 687.502,426.544 688,424.5C 693.335,410.458 694.835,396.125 692.5,381.5C 691.366,371.711 688.699,362.377 684.5,353.5C 684.938,353.565 685.272,353.399 685.5,353C 683.57,349.806 681.903,346.473 680.5,343C 687.57,325.742 690.57,307.909 689.5,289.5 Z"/></g>
<g><path style="opacity:1" fill="#7ca636" d="M 632.5,496.5 C 631.691,494.972 631.024,493.306 630.5,491.5C 630.261,487.158 629.927,482.824 629.5,478.5C 642.006,474.582 653.339,468.582 663.5,460.5C 669.205,455.796 674.205,450.463 678.5,444.5C 693.095,423.361 698.428,400.028 694.5,374.5C 695.245,372.329 695.412,369.995 695,367.5C 700.614,379.178 703.447,391.511 703.5,404.5C 700.348,450.3 676.681,479.467 632.5,492C 632.966,493.299 632.966,494.799 632.5,496.5 Z"/></g>
<g><path style="opacity:1" fill="#352d0c" d="M 692.5,381.5 C 694.835,396.125 693.335,410.458 688,424.5C 687.502,426.544 686.335,427.878 684.5,428.5C 691.128,413.62 693.795,397.953 692.5,381.5 Z"/></g>
<g><path style="opacity:0.325" fill="#668e21" d="M 290.5,433.5 C 292.463,434.96 294.296,436.627 296,438.5C 296.692,439.437 296.525,440.103 295.5,440.5C 292.677,439.008 291.01,436.674 290.5,433.5 Z"/></g>
<g><path style="opacity:1" fill="#93bc52" d="M 300.5,440.5 C 305.447,444.109 310.114,448.109 314.5,452.5C 296.393,480.719 293.727,510.386 306.5,541.5C 305.193,540.847 303.86,540.18 302.5,539.5C 301.702,539.957 301.369,540.624 301.5,541.5C 299.833,539.5 298.167,537.5 296.5,535.5C 291.911,525.9 288.411,515.9 286,505.5C 281.982,481.742 286.816,460.075 300.5,440.5 Z"/></g>
<g><path style="opacity:1" fill="#30250a" d="M 684.5,428.5 C 683.527,434.114 681.193,439.114 677.5,443.5C 677.624,444.107 677.957,444.44 678.5,444.5C 674.205,450.463 669.205,455.796 663.5,460.5C 663.103,459.475 662.437,459.308 661.5,460C 652.246,468.128 641.579,473.294 629.5,475.5C 654.311,467.351 672.645,451.684 684.5,428.5 Z"/></g>
<g><path style="opacity:1" fill="#1f0c03" d="M 663.5,460.5 C 653.339,468.582 642.006,474.582 629.5,478.5C 628.127,478.657 626.793,478.49 625.5,478C 627.437,477.878 628.77,477.045 629.5,475.5C 641.579,473.294 652.246,468.128 661.5,460C 662.437,459.308 663.103,459.475 663.5,460.5 Z"/></g>
<g><path style="opacity:1" fill="#2e2209" d="M 629.5,475.5 C 628.77,477.045 627.437,477.878 625.5,478C 626.793,478.49 628.127,478.657 629.5,478.5C 629.927,482.824 630.261,487.158 630.5,491.5C 629.662,491.842 629.328,492.508 629.5,493.5C 628.028,489.081 627.362,484.414 627.5,479.5C 622.798,480.004 618.131,480.671 613.5,481.5C 605.971,480.765 598.304,479.932 590.5,479C 589.944,478.617 589.611,478.117 589.5,477.5C 602.957,479.191 616.291,478.525 629.5,475.5 Z"/></g>
<g><path style="opacity:1" fill="#230f03" d="M 589.5,477.5 C 589.611,478.117 589.944,478.617 590.5,479C 598.304,479.932 605.971,480.765 613.5,481.5C 607.5,481.5 601.5,481.5 595.5,481.5C 594.081,480.549 592.415,480.216 590.5,480.5C 590.5,482.833 590.5,485.167 590.5,487.5C 590.322,494.093 589.322,500.426 587.5,506.5C 588.629,498.344 588.629,490.344 587.5,482.5C 587.077,480.219 587.744,478.552 589.5,477.5 Z"/></g>
<g><path style="opacity:1" fill="#37300c" d="M 595.5,481.5 C 594.624,481.369 593.957,481.702 593.5,482.5C 594.08,485.311 594.746,487.977 595.5,490.5C 596.167,493.833 596.833,497.167 597.5,500.5C 597.194,503.945 597.194,507.611 597.5,511.5C 597.167,511.5 596.833,511.5 596.5,511.5C 595.556,503.115 593.556,495.115 590.5,487.5C 590.5,485.167 590.5,482.833 590.5,480.5C 592.415,480.216 594.081,480.549 595.5,481.5 Z"/></g>
<g><path style="opacity:1" fill="#81a53c" d="M 703.5,565.5 C 688.129,581.205 672.129,596.205 655.5,610.5C 655.217,609.784 654.884,608.951 654.5,608C 647.537,606.023 640.87,603.189 634.5,599.5C 632.187,604.847 629.52,609.847 626.5,614.5C 618.095,576.213 608.428,538.213 597.5,500.5C 596.833,497.167 596.167,493.833 595.5,490.5C 595.351,489.448 595.517,488.448 596,487.5C 596.402,488.872 596.902,490.205 597.5,491.5C 602.628,492.86 607.795,493.86 613,494.5C 619.373,528.872 639.206,551.372 672.5,562C 682.248,564.514 692.081,565.014 702,563.5C 703.03,563.836 703.53,564.503 703.5,565.5 Z"/></g>
<g><path style="opacity:1" fill="#769a32" d="M 629.5,493.5 C 631.134,501.108 633.634,508.441 637,515.5C 653.132,543.161 677.299,557.994 709.5,560C 707.63,562.04 705.63,563.873 703.5,565.5C 703.53,564.503 703.03,563.836 702,563.5C 692.081,565.014 682.248,564.514 672.5,562C 639.206,551.372 619.373,528.872 613,494.5C 607.795,493.86 602.628,492.86 597.5,491.5C 596.902,490.205 596.402,488.872 596,487.5C 595.517,488.448 595.351,489.448 595.5,490.5C 594.746,487.977 594.08,485.311 593.5,482.5C 593.957,481.702 594.624,481.369 595.5,481.5C 601.5,481.5 607.5,481.5 613.5,481.5C 618.131,480.671 622.798,480.004 627.5,479.5C 627.362,484.414 628.028,489.081 629.5,493.5 Z"/></g>
<g><path style="opacity:1" fill="#352c0d" d="M 587.5,482.5 C 588.629,490.344 588.629,498.344 587.5,506.5C 586.6,510.192 584.933,513.525 582.5,516.5C 583.994,509.854 585.494,503.187 587,496.5C 587.499,491.845 587.666,487.179 587.5,482.5 Z"/></g>
<g><path style="opacity:1" fill="#231003" d="M 587.5,506.5 C 586.875,513.043 584.875,519.043 581.5,524.5C 582.092,521.873 582.425,519.206 582.5,516.5C 584.933,513.525 586.6,510.192 587.5,506.5 Z"/></g>
<g><path style="opacity:1" fill="#624f1d" d="M 590.5,487.5 C 593.556,495.115 595.556,503.115 596.5,511.5C 595.804,518.285 594.471,524.951 592.5,531.5C 587.581,544.09 580.248,555.09 570.5,564.5C 569.054,558.726 568.388,552.726 568.5,546.5C 574.375,540.084 578.708,532.751 581.5,524.5C 584.875,519.043 586.875,513.043 587.5,506.5C 589.322,500.426 590.322,494.093 590.5,487.5 Z"/></g>
<g><path style="opacity:1" fill="#5a3019" d="M 596.5,511.5 C 596.833,511.5 597.167,511.5 597.5,511.5C 610.021,553.078 620.021,595.412 627.5,638.5C 624.236,641.147 620.903,643.814 617.5,646.5C 610.366,607.879 602.032,569.546 592.5,531.5C 594.471,524.951 595.804,518.285 596.5,511.5 Z"/></g>
<g><path style="opacity:1" fill="#352d0c" d="M 582.5,516.5 C 582.425,519.206 582.092,521.873 581.5,524.5C 579.36,528.103 577.193,531.77 575,535.5C 574.184,536.823 573.017,537.489 571.5,537.5C 575.675,530.688 579.341,523.688 582.5,516.5 Z"/></g>
<g><path style="opacity:1" fill="#65391c" d="M 592.5,531.5 C 602.032,569.546 610.366,607.879 617.5,646.5C 620.903,643.814 624.236,641.147 627.5,638.5C 658.205,613.966 687.205,587.466 714.5,559C 719.156,558.335 723.823,557.835 728.5,557.5C 728.5,557.833 728.5,558.167 728.5,558.5C 698.952,600.574 665.452,639.574 628,675.5C 627.333,683.167 627.333,690.833 628,698.5C 632.482,766.119 636.149,833.786 639,901.5C 640.236,927.824 640.569,954.158 640,980.5C 638.378,982.906 636.211,984.739 633.5,986C 609.821,991.259 585.821,994.426 561.5,995.5C 558.731,995.471 556.397,994.805 554.5,993.5C 570.79,890.875 578.957,787.542 579,683.5C 578.853,665.5 576.519,647.834 572,630.5C 562.679,613.191 550.512,598.191 535.5,585.5C 544.592,582.456 552.925,578.122 560.5,572.5C 560.833,572.5 561.167,572.5 561.5,572.5C 565.104,575.602 568.604,578.935 572,582.5C 571.836,576.832 571.336,571.165 570.5,565.5C 570.5,565.167 570.5,564.833 570.5,564.5C 580.248,555.09 587.581,544.09 592.5,531.5 Z"/></g>
<g><path style="opacity:1" fill="#241405" d="M 581.5,524.5 C 578.708,532.751 574.375,540.084 568.5,546.5C 567.512,547.795 566.512,549.128 565.5,550.5C 565.167,550.5 564.833,550.5 564.5,550.5C 564.074,549.472 564.074,548.139 564.5,546.5C 566.603,543.28 568.936,540.28 571.5,537.5C 573.017,537.489 574.184,536.823 575,535.5C 577.193,531.77 579.36,528.103 581.5,524.5 Z"/></g>
<g><path style="opacity:1" fill="#41391a" d="M 296.5,535.5 C 298.167,537.5 299.833,539.5 301.5,541.5C 307.464,550.464 314.797,558.131 323.5,564.5C 322.883,564.611 322.383,564.944 322,565.5C 310.864,557.861 302.031,548.194 295.5,536.5C 296.167,536.5 296.5,536.167 296.5,535.5 Z"/></g>
<g><path style="opacity:1" fill="#564619" d="M 752.5,561.5 C 751.504,561.414 750.671,561.748 750,562.5C 748.021,566.3 745.521,569.634 742.5,572.5C 741.391,572.443 740.391,572.11 739.5,571.5C 736.179,566.848 732.513,562.515 728.5,558.5C 728.5,558.167 728.5,557.833 728.5,557.5C 733.389,555.53 738.389,553.53 743.5,551.5C 746.551,554.879 749.551,558.212 752.5,561.5 Z"/></g>
<g><path style="opacity:1" fill="#789c33" d="M 564.5,550.5 C 564.833,550.5 565.167,550.5 565.5,550.5C 565.949,555.876 566.616,561.209 567.5,566.5C 567.663,568.857 567.497,571.19 567,573.5C 565.871,571.859 564.371,570.859 562.5,570.5C 559.617,567.049 556.284,564.049 552.5,561.5C 556.532,557.826 560.532,554.159 564.5,550.5 Z"/></g>
<g><path style="opacity:1" fill="#779b33" d="M 519.5,576.5 C 523.167,579.833 526.833,583.167 530.5,586.5C 499.271,594.151 471.771,587.151 448,565.5C 432.704,581.221 414.538,591.221 393.5,595.5C 392.265,591.69 391.265,587.69 390.5,583.5C 390.608,582.558 390.941,581.725 391.5,581C 406.62,577.939 419.953,571.439 431.5,561.5C 434.13,559.372 436.63,557.039 439,554.5C 462.219,574.782 489.052,582.115 519.5,576.5 Z"/></g>
<g><path style="opacity:1" fill="#352e0b" d="M 568.5,546.5 C 568.388,552.726 569.054,558.726 570.5,564.5C 570.5,564.833 570.5,565.167 570.5,565.5C 569.609,566.11 568.609,566.443 567.5,566.5C 566.616,561.209 565.949,555.876 565.5,550.5C 566.512,549.128 567.512,547.795 568.5,546.5 Z"/></g>
<g><path style="opacity:1" fill="#5a3019" d="M 728.5,558.5 C 732.513,562.515 736.179,566.848 739.5,571.5C 725.028,592.816 709.194,613.15 692,632.5C 675.673,650.827 658.673,668.493 641,685.5C 644.92,759.478 648.92,833.478 653,907.5C 654.916,938.477 655.582,969.477 655,1000.5C 653.2,1002.32 651.034,1003.48 648.5,1004C 627.292,1007.34 605.958,1008.34 584.5,1007C 575.623,1006.41 566.956,1004.74 558.5,1002C 556.91,1000.95 555.41,999.787 554,998.5C 553.22,996.613 553.387,994.946 554.5,993.5C 556.397,994.805 558.731,995.471 561.5,995.5C 585.821,994.426 609.821,991.259 633.5,986C 636.211,984.739 638.378,982.906 640,980.5C 640.569,954.158 640.236,927.824 639,901.5C 636.149,833.786 632.482,766.119 628,698.5C 627.333,690.833 627.333,683.167 628,675.5C 665.452,639.574 698.952,600.574 728.5,558.5 Z"/></g>
<g><path style="opacity:1" fill="#64501e" d="M 547.5,563.5 C 552.318,565.747 556.652,568.747 560.5,572.5C 552.925,578.122 544.592,582.456 535.5,585.5C 535.167,585.5 534.833,585.5 534.5,585.5C 530.479,582.146 526.812,578.479 523.5,574.5C 532.317,572.422 540.317,568.755 547.5,563.5 Z"/></g>
<g><path style="opacity:1" fill="#81a53c" d="M 530.5,586.5 C 531.167,586.833 531.833,587.167 532.5,587.5C 544.919,598.085 555.752,610.085 565,623.5C 569.836,631.506 572.336,640.173 572.5,649.5C 572.5,651.167 572.5,652.833 572.5,654.5C 529.086,661.615 495.752,646.781 472.5,610C 466.197,611.091 459.864,612.425 453.5,614C 437.769,616.134 422.769,613.801 408.5,607C 403.667,604.311 399,601.478 394.5,598.5C 393.89,597.609 393.557,596.609 393.5,595.5C 414.538,591.221 432.704,581.221 448,565.5C 471.771,587.151 499.271,594.151 530.5,586.5 Z"/></g>
<g><path style="opacity:1" fill="#342c0c" d="M 564.5,546.5 C 564.074,548.139 564.074,549.472 564.5,550.5C 560.532,554.159 556.532,557.826 552.5,561.5C 556.284,564.049 559.617,567.049 562.5,570.5C 562.167,571.167 561.833,571.833 561.5,572.5C 561.167,572.5 560.833,572.5 560.5,572.5C 556.652,568.747 552.318,565.747 547.5,563.5C 537.742,568.809 527.409,572.642 516.5,575C 507.657,575.824 498.99,575.657 490.5,574.5C 519.52,576.386 544.187,567.053 564.5,546.5 Z"/></g>
<g><path style="opacity:1" fill="#281a08" d="M 475.5,571.5 C 480.106,573.876 485.106,574.876 490.5,574.5C 498.99,575.657 507.657,575.824 516.5,575C 527.409,572.642 537.742,568.809 547.5,563.5C 540.317,568.755 532.317,572.422 523.5,574.5C 522.167,575.167 520.833,575.833 519.5,576.5C 489.052,582.115 462.219,574.782 439,554.5C 436.63,557.039 434.13,559.372 431.5,561.5C 431.44,560.957 431.107,560.624 430.5,560.5C 429.15,561.95 427.484,562.617 425.5,562.5C 429.818,558.352 434.318,554.352 439,550.5C 449.512,560.502 461.678,567.502 475.5,571.5 Z"/></g>
<g><path style="opacity:1" fill="#231004" d="M 570.5,565.5 C 571.336,571.165 571.836,576.832 572,582.5C 568.604,578.935 565.104,575.602 561.5,572.5C 561.833,571.833 562.167,571.167 562.5,570.5C 564.371,570.859 565.871,571.859 567,573.5C 567.497,571.19 567.663,568.857 567.5,566.5C 568.609,566.443 569.609,566.11 570.5,565.5 Z"/></g>
<g><path style="opacity:1" fill="#71942d" d="M 752.5,561.5 C 762.652,572.815 774.652,581.648 788.5,588C 776.401,620.606 753.401,640.44 719.5,647.5C 713.833,647.759 708.166,648.092 702.5,648.5C 696.299,648.578 690.299,647.578 684.5,645.5C 705.403,622.281 724.736,597.947 742.5,572.5C 745.521,569.634 748.021,566.3 750,562.5C 750.671,561.748 751.504,561.414 752.5,561.5 Z"/></g>
<g><path style="opacity:0.729" fill="#240e03" d="M 288.5,525.5 C 291.568,528.622 293.902,532.289 295.5,536.5C 302.031,548.194 310.864,557.861 322,565.5C 322.383,564.944 322.883,564.611 323.5,564.5C 323.511,566.017 324.177,567.184 325.5,568C 355.768,585.237 386.435,585.903 417.5,570C 419.5,568.667 421.5,567.333 423.5,566C 424.823,565.184 425.489,564.017 425.5,562.5C 427.484,562.617 429.15,561.95 430.5,560.5C 431.107,560.624 431.44,560.957 431.5,561.5C 419.953,571.439 406.62,577.939 391.5,581C 390.941,581.725 390.608,582.558 390.5,583.5C 391.265,587.69 392.265,591.69 393.5,595.5C 393.557,596.609 393.89,597.609 394.5,598.5C 405.242,628.058 426.242,645.558 457.5,651C 470.635,652.19 483.301,650.356 495.5,645.5C 513.669,675.586 540.336,691.253 575.5,692.5C 575.666,683.161 575.5,673.827 575,664.5C 574.818,659.253 573.984,654.253 572.5,649.5C 572.336,640.173 569.836,631.506 565,623.5C 555.752,610.085 544.919,598.085 532.5,587.5C 533.167,586.833 533.833,586.167 534.5,585.5C 534.833,585.5 535.167,585.5 535.5,585.5C 550.512,598.191 562.679,613.191 572,630.5C 576.519,647.834 578.853,665.5 579,683.5C 578.957,787.542 570.79,890.875 554.5,993.5C 553.387,994.946 553.22,996.613 554,998.5C 555.41,999.787 556.91,1000.95 558.5,1002C 566.956,1004.74 575.623,1006.41 584.5,1007C 605.958,1008.34 627.292,1007.34 648.5,1004C 651.034,1003.48 653.2,1002.32 655,1000.5C 655.582,969.477 654.916,938.477 653,907.5C 648.92,833.478 644.92,759.478 641,685.5C 658.673,668.493 675.673,650.827 692,632.5C 709.194,613.15 725.028,592.816 739.5,571.5C 740.391,572.11 741.391,572.443 742.5,572.5C 724.736,597.947 705.403,622.281 684.5,645.5C 690.299,647.578 696.299,648.578 702.5,648.5C 708.166,648.092 713.833,647.759 719.5,647.5C 720.239,647.369 720.906,647.536 721.5,648C 719.942,648.21 718.609,648.71 717.5,649.5C 713.347,650.166 709.013,650.499 704.5,650.5C 696.754,650.409 689.087,649.909 681.5,649C 670.064,662.438 657.898,675.271 645,687.5C 650.223,786.297 655.057,885.131 659.5,984C 659.333,989.833 659.167,995.667 659,1001.5C 656.259,1004.79 652.759,1006.96 648.5,1008C 627.969,1011.37 607.303,1012.37 586.5,1011C 576.237,1010.28 566.237,1008.28 556.5,1005C 552.872,1003.21 550.539,1000.37 549.5,996.5C 557.85,953.185 563.683,909.518 567,865.5C 572.493,808.964 575.327,752.297 575.5,695.5C 540.883,694.032 514.217,678.866 495.5,650C 490.176,650.66 484.843,651.66 479.5,653C 436.249,656.806 406.749,638.639 391,598.5C 389.454,593.27 388.62,587.937 388.5,582.5C 345.939,587.136 313.772,571.136 292,534.5C 290.346,531.707 289.179,528.707 288.5,525.5 Z"/></g>
<g><path style="opacity:1" fill="#70932c" d="M 394.5,598.5 C 399,601.478 403.667,604.311 408.5,607C 422.769,613.801 437.769,616.134 453.5,614C 459.864,612.425 466.197,611.091 472.5,610C 495.752,646.781 529.086,661.615 572.5,654.5C 572.5,652.833 572.5,651.167 572.5,649.5C 573.984,654.253 574.818,659.253 575,664.5C 575.5,673.827 575.666,683.161 575.5,692.5C 540.336,691.253 513.669,675.586 495.5,645.5C 483.301,650.356 470.635,652.19 457.5,651C 426.242,645.558 405.242,628.058 394.5,598.5 Z"/></g>
<g><path style="opacity:1" fill="#71942d" d="M 655.5,610.5 C 647.192,617.968 638.692,625.302 630,632.5C 628.512,626.551 627.345,620.551 626.5,614.5C 629.52,609.847 632.187,604.847 634.5,599.5C 640.87,603.189 647.537,606.023 654.5,608C 654.884,608.951 655.217,609.784 655.5,610.5 Z"/></g>
<g><path style="opacity:1" fill="#362f0c" d="M 523.5,574.5 C 526.812,578.479 530.479,582.146 534.5,585.5C 533.833,586.167 533.167,586.833 532.5,587.5C 531.833,587.167 531.167,586.833 530.5,586.5C 526.833,583.167 523.167,579.833 519.5,576.5C 520.833,575.833 522.167,575.167 523.5,574.5 Z"/></g>
<g><path style="opacity:1" fill="#5c7022" d="M 475.5,571.5 C 480.65,572.377 485.65,573.377 490.5,574.5C 485.106,574.876 480.106,573.876 475.5,571.5 Z"/></g>
<g><path style="opacity:1" fill="#32280b" d="M 425.5,562.5 C 425.489,564.017 424.823,565.184 423.5,566C 421.5,567.333 419.5,568.667 417.5,570C 386.435,585.903 355.768,585.237 325.5,568C 324.177,567.184 323.511,566.017 323.5,564.5C 328.473,567.321 333.473,570.155 338.5,573C 369.4,584.51 398.4,581.01 425.5,562.5 Z"/></g>
</svg>
