<svg id="Слой_1" data-name="Слой 1" xmlns="http://www.w3.org/2000/svg" viewBox="0 0 108.58 20.35"><defs><style>.cls-1{isolation:isolate}.cls-2{fill:#fff}.cls-3{fill:#0c96fd}</style></defs><title>logo</title><g class="cls-1"><g class="cls-1"><path class="cls-2" d="M.87 8.26V4.2H8.4v15.51h3v4.09H.62v-4.09h2.91V8.26z" transform="translate(-.62 -3.86)"/></g><g class="cls-1"><path class="cls-2" d="M13.95 8.26V4.2h7.53v15.51h3v4.09H13.7v-4.09h2.91V8.26z" transform="translate(-.62 -3.86)"/></g><g class="cls-1"><path class="cls-2" d="M32.82 8.37a1.72 1.72 0 0 0-1.93 1.9h-4.26C26.57 6 29.43 4 32.9 3.89c5.63-.14 8.09 5.43 5.18 9.94l-3.95 5.49H40v4.48H26.18V23l7.36-10.78c.98-1.27 1.74-3.85-.72-3.85z" transform="translate(-.62 -3.86)"/></g><g class="cls-1"><path class="cls-3" d="M43.34 23.8V4.2h5.1v7.42h.36c5 0 4.76-3.75 4.76-7.42h5.15c0 4 .11 7.7-3.78 10.19L60.25 23v.78h-5.57l-4.31-7.59a11.32 11.32 0 0 1-1.93.11v7.5zm28.11-4.4v4.4h-9.94v-4.4H64V8.57h-2.3V4.2h9.55v4.37H69V19.4zm8.29-.11h7.11v4.51H74.7V4.2h5zM89.09 14c0-13.55 20.1-13.55 20.1 0s-20.1 13.61-20.1 0zm15 0a4.93 4.93 0 1 0-9.83 0 4.93 4.93 0 1 0 9.81 0z" transform="translate(-.62 -3.86)"/></g></g></svg>