<svg id="Слой_1" data-name="Слой 1" xmlns="http://www.w3.org/2000/svg" viewBox="0 0 520.69 242.58"><defs><style>.cls-1{opacity:0.15;}.cls-2{fill:#a5713d;}.cls-3{fill:#dd866f;}.cls-4,.cls-8{fill:#254b6b;}.cls-5{fill:#f69576;}.cls-6{fill:#bf644b;}.cls-7{fill:#6b3425;}.cls-8{opacity:0.4;isolation:isolate;}.cls-9{fill:#424b6a;}.cls-10{fill:#1d7dcc;}.cls-11{fill:#0c96fd;}.cls-12{fill:#f1f3f2;}.cls-13{fill:#7d009b;}.cls-14{fill:#024168;}.cls-15{fill:#fff;}.cls-16{fill:#606060;}.cls-17{fill:#a8a9ad;}</style></defs><title>car</title><path class="cls-1" d="M493.29,242.58H50.16A6.76,6.76,0,0,1,45.82,241L27.17,225.29a6.73,6.73,0,0,1,4.33-11.87H503.11a6.72,6.72,0,0,1,5.7,10.29L499,239.42A6.71,6.71,0,0,1,493.29,242.58Z"/><path class="cls-2" d="M268.45,4.38A13.08,13.08,0,0,0,255.11,7c-4.29,3.74-3.28,14.6-1,18s11.45,8.84,11.45,8.84S292.69,7,268.45,4.38Z"/><path class="cls-3" d="M318.44,80.38c-.34-.84-.72-1.68-1.05-2.48h0C317.72,78.74,318.1,79.58,318.44,80.38Z"/><path class="cls-3" d="M317.3,77.9c-5.76.92-16.53,2.44-16.53,2.44L298.33,64.6,286,67.29s2.78,16.12,4.42,20.16,4.58,4.25,6.56,4c1.52-.17,15.66-4.08,23.4-6.19C319.28,82.9,318.23,80.42,317.3,77.9Z"/><path class="cls-4" d="M288.31,151.75c-1.81-16.08-8.92-45.58-8.92-45.58l20.7-4.58s3,12,4.88,32.53"/><path class="cls-4" d="M258.73,109.29l24.11-3.62s9.13,48,7.62,50.54"/><path d="M266.89,41.62c11.95-2.06,16.12-.84,19.48,4.38s17.17,53.65,19.28,63.63S306.7,125.91,293,128s-34.21-6.31-34.21-6.31-.25,3.62-.51,5.81-5.72,5.43-6.27,1.72-6.73-61.73-7.78-71.49S257.8,43.18,266.89,41.62Z"/><path d="M280.15,43c4.54-1.93,8.92-2.52,13.46,3.91s10.52,27.74,10.52,27.74L289,83.45S268.07,48.19,280.15,43Z"/><path class="cls-5" d="M270.85,40c-4.25.63-9.18,1.81-11.53,3.88-2.86,2.52-1.69,10.14,12.41,8.66s12.62-7.91,10.94-9.63C280.19,40.4,274.09,39.56,270.85,40Z"/><path class="cls-5" d="M275,30.47l5.34,17.09L263.82,50s-.25-7.07,0-11.74a27.84,27.84,0,0,1,.8-6.31Z"/><path class="cls-3" d="M268.49,36.32s.34,3.24,2.69,4.33,7.07.38,7.07.38l-3.32-10.56L268,31.52A23.45,23.45,0,0,0,268.49,36.32Z"/><path class="cls-5" d="M274.13,8.88A10.82,10.82,0,0,1,278,14c1.13,2.81,1.47,6,2.1,7.7a18.93,18.93,0,0,1,1.52,7,9.63,9.63,0,0,1-5.68,8c-3.88,1.72-7.33,1.43-10-1.06a35.54,35.54,0,0,1-7.53-10.48c-1.35-3.36-2.82-9.93.51-13.42A12.68,12.68,0,0,1,274.13,8.88Z"/><path class="cls-6" d="M270.05,30.43s0,.92,1.22,1A8.3,8.3,0,0,0,274.8,31a6.72,6.72,0,0,0,1.39-1Z"/><path class="cls-7" d="M272.82,26.6a.64.64,0,0,1-.29,0,.79.79,0,0,1-.29-.55v-.08a.69.69,0,0,0-.17.21.56.56,0,0,1-.42.21.69.69,0,0,1-.51-.51,2.63,2.63,0,0,1,.21-1.43c0-.08.13-.12.17-.08s.13.12.08.17a3.18,3.18,0,0,0-.21,1.26.58.58,0,0,0,.3.33.25.25,0,0,0,.17-.08c.16-.25.29-.38.42-.38s.12,0,.21.09,0,.12.08.25,0,.29.17.38.08,0,.17,0,.21-.21.12-.51a.47.47,0,0,1,0-.33c.05-.05.09-.09.13-.09a.56.56,0,0,1,.3.09c.21.08.25.12.37,0s.05-.17.05-.3a1.56,1.56,0,0,0-.68-1,.12.12,0,0,1,.13-.21,2.23,2.23,0,0,1,.8,1.22c0,.25,0,.42-.09.55a.49.49,0,0,1-.71.08s0,0-.08,0v0c0,.25.12.68-.34.84C272.91,26.56,272.87,26.56,272.82,26.6Zm-.54-.72Z"/><path class="cls-5" d="M251.83,23.44c.8-3.28,10.31-1.85,9.51,4.13C260.45,33.71,250.69,28.33,251.83,23.44Z"/><path class="cls-7" d="M259.74,28.54s-.09,0-.09-.05-.08-.12,0-.21a3.59,3.59,0,0,0-.46-3,3.85,3.85,0,0,0-3.54-2.19,2.66,2.66,0,0,0-2.14.84,2.4,2.4,0,0,0,0,1.93c0,.09,0,.17-.09.17s-.17,0-.17-.08a2.53,2.53,0,0,1,0-2.19,2.57,2.57,0,0,1,2.36-1,4.14,4.14,0,0,1,3.79,2.36c.67,1.22.88,2.65.46,3.28C259.78,28.54,259.74,28.54,259.74,28.54Z"/><path class="cls-7" d="M256.37,28.54s-.13,0-.13-.09a6.68,6.68,0,0,1-.37-5.47c0-.08.08-.13.16-.08s.13.08.09.17a6.66,6.66,0,0,0,.34,5.26c0,.08,0,.16,0,.16S256.41,28.54,256.37,28.54Z"/><ellipse class="cls-7" cx="267.87" cy="23.58" rx="0.5" ry="1.01" transform="translate(-0.52 40.15) rotate(-8.56)"/><path class="cls-7" d="M265.17,21.26a4.21,4.21,0,0,1,1.89-1.14,3.37,3.37,0,0,1,1.85.13c.38,0,.34-.47.09-.89s-1.1-.59-2.32-.38a2.91,2.91,0,0,0-2.1,1.35C264.28,20.79,264.7,21.8,265.17,21.26Z"/><ellipse class="cls-7" cx="275.54" cy="22.19" rx="0.5" ry="1.01" transform="translate(-0.23 41.27) rotate(-8.56)"/><path class="cls-7" d="M273.25,19.66a4.21,4.21,0,0,1,1.89-1.14,3.37,3.37,0,0,1,1.85.13c.38,0,.34-.47.08-.89s-1.09-.59-2.31-.38a2.86,2.86,0,0,0-2.1,1.35C272.36,19.15,272.78,20.2,273.25,19.66Z"/><path class="cls-7" d="M278,31.48l-.59.25s-.76,2.61-1.68,3.29a9.81,9.81,0,0,1-4.67.88A18.4,18.4,0,0,1,269,33.25l-.76.34s1.89,3.57,2.14,3.87a10,10,0,0,0,3.5,1.17c.84-.08,3.49-2.27,3.57-2.65C277.71,34.81,278,31.48,278,31.48Z"/><polygon class="cls-7" points="274.51 33.67 273.04 33.92 273.5 36.49 274.63 36.49 274.51 33.67"/><path class="cls-5" d="M267.31,77.05l2.48,15.74s18.86-2.61,20-3.11,6.53-6.23,7.11-6.57,1.23-.21,1.1.59-.72,3.24-.72,3.24,4.55-1.22,4.93-1.51,2.82-2.86,3.36-3.12,1.56,0,1.39.59-2.27,4.38-2.27,4.38,1.05,3.49-.08,5-7.41,3.58-10.48,4.25S268,103.78,266,104s-4.93,0-6.57-4S255,79.79,255,79.79Z"/><polygon class="cls-8" points="248.54 58.54 255.44 78.99 249.09 82.02 248.54 58.54"/><path class="cls-2" d="M257.46,7.71s4.42,5.72,14.1,4.83C291.76,10.69,280.9.85,280.9.85s1.14,2.86-2.27,3.53C274,5.31,265-8,257.46,7.71Z"/><polygon class="cls-9" points="378.81 101.05 299.72 34.85 357.06 99.85 378.81 101.05"/><path class="cls-9" d="M241.51,92.6S234.09,69.76,230.75,61,218.5,54.35,220,61s6.68,30.31,6.68,30.31Z"/><polygon class="cls-9" points="299.72 34.85 299.72 95.07 344.75 97.6 299.72 34.85"/><path class="cls-10" d="M366.84,93.06c-3.39-.17-124.59-4.54-155-3.34S52.44,95.94,50.6,95.94s-31.86,24.9-31.86,24.9v9.55S1,141.61.21,144.08s.35,29.1,5.18,39.46,14.09,24.9,14.09,24.9l482.7-2.07s17.43-29.51,18.18-32.84,0-26.58,0-26.58l-7.77-1.26s-21.1-22-23.35-23.3C486.94,121.3,378.63,93.69,366.84,93.06Z"/><path class="cls-11" d="M512.54,145.8s-21.11-22-23.36-23.29S378.69,93.69,366.84,93c-3.39-.17-124.59-4.54-155-3.33S52.44,95.88,50.6,95.88s-31.86,24.9-31.86,24.9v9.55S1,141.55.21,144c-.69,2.3.23,25.25,4.2,36.87,0,0,40.21-45.21,115.39-47.22s111.7,47.22,158.92,47.22,101-48.83,147.83-43.77,90.19,43.77,90.19,43.77a63,63,0,0,0,3.62-7.36c.75-3.34,0-26.58,0-26.58Z"/><polygon class="cls-12" points="498.04 161.62 498.04 173.24 520.3 173.64 520.3 161.62 498.04 161.62"/><polygon class="cls-13" points="49.1 130.45 39.44 117.56 22.7 117.56 18.68 120.9 18.68 130.45 49.1 130.45"/><path d="M209.24,89.84l-40-25.48s-55.63,8.39-70.47,12.71S75,87.59,75,89.49v5.58Z"/><path class="cls-11" d="M63.2,98.87s-3.34-14.55-.75-15S73.55,97.2,73.55,97.2Z"/><path class="cls-14" d="M355.34,186.76H227.93c-13.4,0-18.58-9-18.86-22.66-.35-17.66,2.58-73.86,2.58-74.38,0-.11.12-.17.23-.17s.18.12.18.23c-.06.58-1.38,57.06-1,74.72.29,13.4,5.46,19.84,18.58,19.84,7.88,0,117.57.4,123.32.52-.12-2.19-.4-17.72-2.47-40.26-2.19-23.87-17.09-52.29-17.2-52.52a.27.27,0,0,1,.05-.29.26.26,0,0,1,.29.06c.18.29,16.34,28.3,18.58,52.29s3.34,42.33,3.34,42.5a.22.22,0,0,1-.06.18C355.45,186.7,355.39,186.76,355.34,186.76Z"/><path class="cls-10" d="M220.74,108.82h20a.77.77,0,0,0,.75-.75V103a.77.77,0,0,0-.75-.75h-20a.77.77,0,0,0-.75.75v5.12A.77.77,0,0,0,220.74,108.82Z"/><path class="cls-15" d="M493.33,126.25s8.11-3.34,13.63,2.07,2.24,14,2.24,14Z"/><polygon class="cls-11" points="299.72 34.85 342.8 99.85 357.06 99.85 308.52 34.85 299.72 34.85"/><path class="cls-11" d="M322,68.27s-3.39,6-5.63,11.44a41.08,41.08,0,0,0-2.59,11.68l24.1.63Z"/><path class="cls-14" d="M371.62,208.5a53.56,53.56,0,0,1-.93-9.72,52.81,52.81,0,0,1,105.61,0,54.47,54.47,0,0,1-.92,9.72Z"/><circle cx="423.32" cy="195.33" r="44.52"/><circle class="cls-16" cx="423.32" cy="195.33" r="29.97"/><circle cx="423.32" cy="195.33" r="20.94"/><path class="cls-17" d="M448.69,211.49a30,30,0,0,1-4.14,5.24,34.86,34.86,0,0,1-4.77,3.91l-41.42-41.59a30,30,0,0,1,9.15-8.92Z"/><path class="cls-17" d="M440.12,170.42a30,30,0,0,1,5.18,4.26,32.58,32.58,0,0,1,3.79,4.83l-42.16,40.78a30,30,0,0,1-4.71-4,31.4,31.4,0,0,1-4.09-5.29Z"/><path class="cls-14" d="M74.47,208.16a54.67,54.67,0,0,1-.92-9.73,52.81,52.81,0,0,1,105.61,0,54.67,54.67,0,0,1-.92,9.73Z"/><circle cx="126.35" cy="192.91" r="44.52"/><circle class="cls-16" cx="126.35" cy="192.91" r="29.97"/><circle cx="126.35" cy="192.91" r="20.94"/><path class="cls-17" d="M151.72,209.08a29.55,29.55,0,0,1-4.14,5.23,33.65,33.65,0,0,1-4.78,3.91l-41.41-41.59a30.94,30.94,0,0,1,3.91-4.77,29.61,29.61,0,0,1,5.24-4.14Z"/><path class="cls-17" d="M143.15,168a29.93,29.93,0,0,1,5.18,4.25,34.37,34.37,0,0,1,3.79,4.83L110,217.88a31.13,31.13,0,0,1-4.72-4,31.86,31.86,0,0,1-4.08-5.29Z"/></svg>