<svg id="Слой_1" data-name="Слой 1" xmlns="http://www.w3.org/2000/svg" xmlns:xlink="http://www.w3.org/1999/xlink" viewBox="0 0 322.05 263.54"><defs><style>.cls-1{fill:none;}.cls-2{opacity:0.15;}.cls-3{fill:#232323;}.cls-4{clip-path:url(#clip-path);}.cls-5{clip-path:url(#clip-path-2);}.cls-6{fill:#424b6a;}.cls-27,.cls-7{fill:#0c96fd;}.cls-8{fill:#7d009b;}.cls-9{fill:#024168;}.cls-10{fill:#1d7dcc;}.cls-11{clip-path:url(#clip-path-3);}.cls-12{clip-path:url(#clip-path-4);}.cls-13{fill:#606060;}.cls-14{fill:#8a9995;}.cls-15{fill:#fff;}.cls-16{fill:#303030;}.cls-17{clip-path:url(#clip-path-5);}.cls-18{fill:#a8a9ad;}.cls-19{clip-path:url(#clip-path-6);}.cls-20{fill:#f69576;}.cls-21{fill:#dd866f;}.cls-22{fill:#a5713d;}.cls-23{fill:#6b3425;}.cls-24{fill:#72645d;}.cls-25{fill:#3b3b3b;}.cls-26{opacity:0.53;}.cls-27{opacity:0.21;}</style><clipPath id="clip-path"><path class="cls-1" d="M50.13,183.47c.74,26-2.92,48.13-8.17,49.49-.19,0-21.72.59-21.91.59-5-.14,1.06-20.73.35-45.78-.72-25.39-7.71-46.18-2.64-48.42.11,0,21.42-.42,21.53-.45C44.55,137.54,49.4,157.49,50.13,183.47Z"/></clipPath><clipPath id="clip-path-2"><path class="cls-1" d="M294.09,193.67c.81,28.4-3.2,52.63-8.94,54.12-.2.05-23.74.64-23.94.64-5.5-.15,1.15-22.67.37-50.05-.78-27.77-8.42-50.5-2.88-52.94.12-.06,23.41-.47,23.54-.5C288,143.45,293.29,165.27,294.09,193.67Z"/></clipPath><clipPath id="clip-path-3"><path class="cls-1" d="M105.07,196.71c.81,28.4-3.2,52.63-8.94,54.12-.2,0-23.74.64-23.94.64-5.5-.15,1.15-22.67.37-50.06-.78-27.76-8.42-50.49-2.88-52.93.12-.06,23.42-.47,23.54-.5C99,146.49,104.27,168.31,105.07,196.71Z"/></clipPath><clipPath id="clip-path-4"><path class="cls-1" d="M242.62,181.24c.74,26-2.93,48.14-8.18,49.5-.18,0-21.71.59-21.9.58-5-.13,1.05-20.73.34-45.77-.71-25.4-7.7-46.19-2.63-48.42.11,0,21.41-.43,21.53-.46C237,135.31,241.89,155.27,242.62,181.24Z"/></clipPath><clipPath id="clip-path-5"><ellipse class="cls-1" cx="70.73" cy="200.09" rx="7.63" ry="37.6" transform="translate(-3.67 1.34) rotate(-1.05)"/></clipPath><clipPath id="clip-path-6"><ellipse class="cls-1" cx="17.5" cy="188.52" rx="6.1" ry="32.83" transform="translate(-3.78 0.39) rotate(-1.15)"/></clipPath></defs><title>car</title><path class="cls-2" d="M310.66,243.93c0,10.83-83.3,19.61-164.09,19.61S.28,254.76.28,243.93c0-5.66-4.65-68.64,23.88-72.22,26.15-3.28,83.77-3.45,122.41-3.45,40.39,0,94.78,2.2,121.25,5.75S310.66,238.51,310.66,243.93Z"/><path class="cls-3" d="M50.13,183.47c.74,26-2.92,48.13-8.17,49.49-.19,0-21.72.59-21.91.59-5-.14,1.06-20.73.35-45.78-.72-25.39-7.71-46.18-2.64-48.42.11,0,21.42-.42,21.53-.45C44.55,137.54,49.4,157.49,50.13,183.47Z"/><g class="cls-4"><polygon points="42.95 150.81 47.22 143.93 54.62 143.85 55 134.67 49.18 134.43 43.28 142.96 42.95 150.81"/><polygon points="33.13 146.56 36.73 152.83 40.83 147.17 41.17 138.88 37.09 144.07 33.49 137.9 33.13 146.56"/><polygon points="42.43 163.31 46.7 156.42 54.1 156.35 54.48 147.17 48.66 146.92 42.76 155.45 42.43 163.31"/><polygon points="36.21 165.32 40.31 159.66 40.65 151.38 36.57 156.57 32.97 150.4 32.61 159.06 36.21 165.32"/><polygon points="41.87 176.94 46.13 170.05 53.53 169.98 53.92 160.8 48.09 160.56 42.19 169.08 41.87 176.94"/><polygon points="35.64 178.95 39.74 173.29 40.09 165.01 36.01 170.2 32.4 164.03 32.04 172.69 35.64 178.95"/><polygon points="41.35 189.43 45.62 182.55 53.01 182.47 53.4 173.29 47.58 173.05 41.67 181.58 41.35 189.43"/><polygon points="35.12 191.45 39.22 185.79 39.57 177.51 35.49 182.69 31.88 176.52 31.52 185.18 35.12 191.45"/><polygon points="40.83 201.93 45.09 195.04 52.49 194.97 52.88 185.79 47.05 185.55 41.15 194.07 40.83 201.93"/><polygon points="34.6 203.94 38.7 198.28 39.05 190 34.97 195.19 31.36 189.02 31 197.68 34.6 203.94"/><polygon points="40.31 214.42 44.58 207.54 51.97 207.47 52.36 198.28 46.53 198.04 40.63 206.57 40.31 214.42"/><polygon points="34.08 216.44 38.18 210.78 38.53 202.5 34.45 207.68 30.84 201.51 30.48 210.17 34.08 216.44"/><polygon points="39.74 228.05 44.01 221.17 51.41 221.1 51.79 211.91 45.97 211.67 40.06 220.2 39.74 228.05"/><polygon points="33.51 230.07 37.61 224.41 37.96 216.13 33.88 221.31 30.27 215.14 29.91 223.81 33.51 230.07"/><polygon points="39.22 240.55 43.49 233.66 50.89 233.59 51.27 224.41 45.45 224.17 39.55 232.69 39.22 240.55"/><polygon points="30.39 149.87 26.64 142.69 19.26 142.08 19.55 132.89 25.38 133.07 30.64 142.01 30.39 149.87"/><polygon points="30 162.37 26.24 155.19 18.87 154.57 19.16 145.39 24.98 145.57 30.25 154.51 30 162.37"/><polygon points="29.56 176 25.81 168.82 18.44 168.21 18.73 159.03 24.55 159.21 29.81 168.15 29.56 176"/><polygon points="29.17 188.5 25.41 181.32 18.04 180.71 18.33 171.53 24.16 171.71 29.42 180.65 29.17 188.5"/><polygon points="28.77 201 25.02 193.82 17.64 193.21 17.94 184.03 23.76 184.21 29.02 193.14 28.77 201"/><polygon points="28.38 213.5 24.62 206.32 17.25 205.71 17.54 196.53 23.36 196.71 28.63 205.64 28.38 213.5"/><polygon points="27.95 227.14 24.19 219.96 16.82 219.35 17.11 210.16 22.93 210.34 28.19 219.28 27.95 227.14"/><polygon points="27.55 239.64 23.8 232.46 16.42 231.85 16.71 222.66 22.54 222.84 27.8 231.78 27.55 239.64"/><polygon points="32.99 242.57 37.09 236.91 37.44 228.62 33.36 233.81 29.75 227.64 29.39 236.3 32.99 242.57"/></g><path class="cls-3" d="M294.09,193.67c.81,28.4-3.2,52.63-8.94,54.12-.2.05-23.74.64-23.94.64-5.5-.15,1.15-22.67.37-50.05-.78-27.77-8.42-50.5-2.88-52.94.12-.06,23.41-.47,23.54-.5C288,143.45,293.29,165.27,294.09,193.67Z"/><g class="cls-5"><polygon points="286.24 157.97 290.91 150.44 299 150.36 299.42 140.32 293.06 140.06 286.6 149.38 286.24 157.97"/><polygon points="275.5 153.32 279.44 160.17 283.92 153.98 284.3 144.93 279.84 150.6 275.89 143.85 275.5 153.32"/><polygon points="285.68 171.63 290.34 164.1 298.43 164.02 298.85 153.98 292.49 153.72 286.03 163.04 285.68 171.63"/><polygon points="278.87 173.83 283.35 167.64 283.73 158.59 279.27 164.26 275.32 157.51 274.93 166.98 278.87 173.83"/><polygon points="285.06 186.53 289.72 179 297.81 178.92 298.23 168.88 291.87 168.62 285.41 177.94 285.06 186.53"/><polygon points="278.25 188.74 282.73 182.55 283.11 173.49 278.65 179.16 274.7 172.42 274.31 181.89 278.25 188.74"/><polygon points="284.49 200.19 289.15 192.66 297.24 192.59 297.66 182.55 291.3 182.28 284.84 191.6 284.49 200.19"/><polygon points="277.68 202.4 282.16 196.21 282.54 187.15 278.08 192.82 274.14 186.08 273.74 195.55 277.68 202.4"/><polygon points="283.92 213.85 288.58 206.32 296.68 206.25 297.09 196.21 290.73 195.94 284.27 205.26 283.92 213.85"/><polygon points="277.11 216.06 281.6 209.87 281.97 200.81 277.51 206.49 273.57 199.74 273.17 209.21 277.11 216.06"/><polygon points="283.35 227.52 288.02 219.99 296.11 219.91 296.52 209.87 290.16 209.6 283.71 218.93 283.35 227.52"/><polygon points="276.54 229.72 281.03 223.53 281.4 214.48 276.94 220.15 273 213.4 272.6 222.87 276.54 229.72"/><polygon points="282.73 242.42 287.4 234.89 295.49 234.81 295.9 224.77 289.54 224.51 283.09 233.83 282.73 242.42"/><polygon points="275.92 244.63 280.41 238.44 280.78 229.38 276.32 235.05 272.38 228.3 271.98 237.77 275.92 244.63"/><polygon points="282.16 256.08 286.83 248.55 294.92 248.47 295.33 238.44 288.97 238.17 282.52 247.49 282.16 256.08"/><polygon points="272.51 156.94 268.4 149.09 260.34 148.41 260.66 138.37 267.03 138.57 272.78 148.34 272.51 156.94"/><polygon points="272.08 170.6 267.97 162.75 259.91 162.08 260.23 152.04 266.6 152.24 272.35 162.01 272.08 170.6"/><polygon points="271.61 185.51 267.5 177.66 259.44 176.99 259.76 166.95 266.12 167.15 271.88 176.92 271.61 185.51"/><polygon points="271.17 199.18 267.07 191.33 259 190.66 259.32 180.61 265.69 180.82 271.44 190.59 271.17 199.18"/><polygon points="270.74 212.84 266.63 204.99 258.57 204.32 258.89 194.28 265.26 194.48 271.01 204.25 270.74 212.84"/><polygon points="270.31 226.51 266.2 218.66 258.14 217.99 258.46 207.95 264.82 208.15 270.58 217.92 270.31 226.51"/><polygon points="269.83 241.42 265.73 233.57 257.67 232.9 257.99 222.86 264.35 223.06 270.11 232.83 269.83 241.42"/><polygon points="269.4 255.09 265.3 247.24 257.24 246.57 257.55 236.52 263.92 236.72 269.67 246.49 269.4 255.09"/><polygon points="275.36 258.29 279.84 252.1 280.21 243.04 275.75 248.71 271.81 241.97 271.42 251.44 275.36 258.29"/></g><path d="M110,178.36c.7,24.79-2.79,45.95-7.8,47.25-.18,0-5.52.56-5.7.55-4.8-.13-4-19.19-4.65-43.09-.68-24.24-1.89-44.69,3-46.82.11,0,4.75-.4,4.86-.43C104.7,134.52,109.33,153.57,110,178.36Z"/><ellipse cx="95.93" cy="181.23" rx="8.35" ry="44.97" transform="translate(-3.62 1.96) rotate(-1.15)"/><ellipse cx="260.26" cy="196.74" rx="10.46" ry="51.5" transform="translate(-3.58 4.82) rotate(-1.05)"/><path d="M14.66,88.25S16.87,74.88,22,73.06s6-1.82,6-1.82l36.73-1.83L69.45,92.2Z"/><path class="cls-6" d="M43.26,94.93V73.82a6,6,0,0,1,5.93-6L92.54,67l9.63,29.47Z"/><path class="cls-7" d="M69.5,85.14l116-1.37s34.91,20.51,39.2,47.85,2.71,22.55,2.71,22.55,2.11,42.38-2.86,48.76c-18.16,18.2-118.29,12.82-133.5,11.4-21.9-2.05-83.85-25.07-83.85-25.07C-.64,160.1,1,121.82,1,121.82a85.77,85.77,0,0,1,4.37-12.3c2.56-5.47.3-9.57.3-9.57s4-9.12,7.63-11.85S69.5,85.14,69.5,85.14Z"/><path class="cls-8" d="M5.68,100a59.22,59.22,0,0,0-1.13,11.5c.08,5.81,4.1.57,4.1.57l1.62-7.74Z"/><path class="cls-7" d="M10.5,91.9l2.66-11.55s1.6-4.1,1.5,7.9S10.5,91.9,10.5,91.9Z"/><path class="cls-9" d="M26.77,186.13c.09,3.49.12,6.93.09,10.25L8.29,189.67c-.65-27,2.82-49.75,7.84-51S26,158.57,26.77,186.13Z"/><path class="cls-9" d="M82.28,197.09c.16,5.49.15,10.83,0,15.93l-23-6.08c-.06-1.27-.1-2.56-.14-3.86-.89-31.56,3.56-58.48,9.94-60.13S81.39,165.54,82.28,197.09Z"/><path class="cls-10" d="M79.77,212.35,62.3,207.73C68.53,209.55,74.52,211.16,79.77,212.35Z"/><path class="cls-10" d="M82.28,213v-.12c-.81-.17-1.65-.35-2.51-.55Z"/><path class="cls-10" d="M59.32,206.94l3,.79-3-.89Z"/><path class="cls-3" d="M105.07,196.71c.81,28.4-3.2,52.63-8.94,54.12-.2,0-23.74.64-23.94.64-5.5-.15,1.15-22.67.37-50.06-.78-27.76-8.42-50.49-2.88-52.93.12-.06,23.42-.47,23.54-.5C99,146.49,104.27,168.31,105.07,196.71Z"/><g class="cls-11"><polygon points="97.22 161 101.89 153.47 109.98 153.4 110.4 143.36 104.03 143.09 97.58 152.41 97.22 161"/><polygon points="86.48 156.36 90.42 163.21 94.9 157.02 95.28 147.96 90.82 153.64 86.88 146.89 86.48 156.36"/><polygon points="96.66 174.67 101.32 167.14 109.41 167.06 109.83 157.02 103.47 156.75 97.01 166.08 96.66 174.67"/><polygon points="89.85 176.87 94.33 170.68 94.71 161.63 90.25 167.3 86.31 160.55 85.91 170.02 89.85 176.87"/><polygon points="96.04 189.57 100.7 182.04 108.79 181.96 109.21 171.92 102.85 171.66 96.39 180.98 96.04 189.57"/><polygon points="89.23 191.78 93.71 185.59 94.09 176.53 89.63 182.2 85.69 175.45 85.29 184.92 89.23 191.78"/><polygon points="95.47 203.23 100.14 195.7 108.22 195.62 108.64 185.59 102.28 185.32 95.83 194.64 95.47 203.23"/><polygon points="88.66 205.44 93.14 199.25 93.52 190.19 89.06 195.86 85.12 189.12 84.72 198.59 88.66 205.44"/><polygon points="94.9 216.89 99.57 209.36 107.66 209.28 108.07 199.25 101.71 198.98 95.26 208.3 94.9 216.89"/><polygon points="88.09 219.1 92.58 212.91 92.95 203.85 88.49 209.52 84.55 202.78 84.15 212.25 88.09 219.1"/><polygon points="94.33 230.56 99 223.03 107.09 222.95 107.5 212.91 101.14 212.64 94.69 221.96 94.33 230.56"/><polygon points="87.53 232.76 92.01 226.57 92.38 217.51 87.92 223.19 83.98 216.44 83.58 225.91 87.53 232.76"/><polygon points="93.71 245.46 98.38 237.93 106.47 237.85 106.89 227.81 100.52 227.55 94.07 236.87 93.71 245.46"/><polygon points="86.91 247.66 91.39 241.47 91.76 232.42 87.3 238.09 83.36 231.34 82.97 240.81 86.91 247.66"/><polygon points="93.14 259.12 97.81 251.59 105.9 251.51 106.32 241.47 99.95 241.21 93.5 250.53 93.14 259.12"/><polygon points="83.49 159.97 79.39 152.12 71.32 151.45 71.64 141.41 78.01 141.61 83.76 151.38 83.49 159.97"/><polygon points="83.06 173.64 78.95 165.79 70.89 165.12 71.21 155.08 77.58 155.28 83.33 165.05 83.06 173.64"/><polygon points="82.59 188.55 78.48 180.7 70.42 180.03 70.74 169.99 77.1 170.19 82.86 179.96 82.59 188.55"/><polygon points="82.15 202.22 78.05 194.37 69.99 193.69 70.3 183.65 76.67 183.85 82.42 193.62 82.15 202.22"/><polygon points="81.72 215.88 77.62 208.03 69.55 207.36 69.87 197.32 76.24 197.52 81.99 207.29 81.72 215.88"/><polygon points="81.29 229.55 77.18 221.7 69.12 221.03 69.44 210.99 75.81 211.19 81.56 220.96 81.29 229.55"/><polygon points="80.81 244.46 76.71 236.61 68.65 235.94 68.97 225.9 75.33 226.1 81.09 235.87 80.81 244.46"/><polygon points="80.38 258.13 76.28 250.27 68.22 249.6 68.53 239.56 74.9 239.76 80.66 249.53 80.38 258.13"/><polygon points="86.34 261.32 90.82 255.13 91.19 246.08 86.73 251.75 82.79 245 82.4 254.47 86.34 261.32"/></g><path class="cls-10" d="M225.59,138.22c2.46,27.8-129.36,28.59-142.69,6.84-17.31-28.25-22.28,21.8-35.82,20.28-9.64-1.08-21.76-39.19-36.13-33.27-3.53,1.46-7.36,13.08-8.68,28.52a182.74,182.74,0,0,0,4.91,28.67l1.11.41c-.65-27,2.82-49.75,7.84-51S26,158.57,26.77,186.13c.09,3.46.12,6.85.09,10.15,9.5,3.29,21.24,7.21,32.45,10.56-.05-1.24-.09-2.49-.13-3.76-.89-31.56,3.56-58.48,9.94-60.13s12.27,22.59,13.16,54.14c.16,5.45.15,10.75,0,15.81A80.55,80.55,0,0,0,91,214.33c15.21,1.42,115.34,6.8,133.5-11.4C229.5,196.55,229,151.59,225.59,138.22Z"/><ellipse cx="17.5" cy="188.52" rx="8.35" ry="44.97" transform="translate(-3.78 0.39) rotate(-1.15)"/><path class="cls-3" d="M242.62,181.24c.74,26-2.93,48.14-8.18,49.5-.18,0-21.71.59-21.9.58-5-.13,1.05-20.73.34-45.77-.71-25.4-7.7-46.19-2.63-48.42.11,0,21.41-.43,21.53-.46C237,135.31,241.89,155.27,242.62,181.24Z"/><g class="cls-12"><polygon points="235.44 148.59 239.71 141.7 247.11 141.63 247.49 132.45 241.67 132.21 235.77 140.73 235.44 148.59"/><polygon points="225.62 144.34 229.22 150.6 233.32 144.94 233.66 136.66 229.58 141.85 225.97 135.68 225.62 144.34"/><polygon points="234.92 161.08 239.19 154.2 246.59 154.13 246.97 144.94 241.15 144.7 235.25 153.23 234.92 161.08"/><polygon points="228.7 163.1 232.8 157.44 233.14 149.16 229.06 154.34 225.46 148.17 225.09 156.83 228.7 163.1"/><polygon points="234.35 174.71 238.62 167.83 246.02 167.76 246.41 158.57 240.58 158.33 234.68 166.86 234.35 174.71"/><polygon points="228.13 176.73 232.23 171.07 232.57 162.79 228.5 167.97 224.89 161.8 224.53 170.46 228.13 176.73"/><polygon points="233.83 187.21 238.1 180.32 245.5 180.25 245.88 171.07 240.06 170.83 234.16 179.35 233.83 187.21"/><polygon points="227.61 189.23 231.71 183.56 232.06 175.28 227.97 180.47 224.37 174.3 224.01 182.96 227.61 189.23"/><polygon points="233.31 199.7 237.58 192.82 244.98 192.75 245.36 183.56 239.54 183.32 233.64 191.85 233.31 199.7"/><polygon points="227.09 201.72 231.19 196.06 231.53 187.78 227.46 192.97 223.85 186.79 223.49 195.46 227.09 201.72"/><polygon points="232.79 212.2 237.06 205.31 244.46 205.24 244.84 196.06 239.02 195.82 233.12 204.34 232.79 212.2"/><polygon points="226.57 214.22 230.67 208.56 231.01 200.27 226.93 205.46 223.33 199.29 222.97 207.95 226.57 214.22"/><polygon points="232.23 225.83 236.5 218.94 243.9 218.87 244.28 209.69 238.46 209.45 232.55 217.97 232.23 225.83"/><polygon points="226 227.85 230.1 222.19 230.45 213.9 226.37 219.09 222.76 212.92 222.4 221.58 226 227.85"/><polygon points="231.71 238.32 235.97 231.44 243.38 231.37 243.76 222.19 237.94 221.94 232.03 230.47 231.71 238.32"/><polygon points="222.88 147.65 219.13 140.47 211.75 139.85 212.04 130.67 217.87 130.85 223.13 139.79 222.88 147.65"/><polygon points="222.48 160.15 218.73 152.96 211.36 152.35 211.65 143.17 217.47 143.35 222.73 152.28 222.48 160.15"/><polygon points="222.05 173.78 218.3 166.6 210.92 165.99 211.22 156.8 217.04 156.99 222.3 165.92 222.05 173.78"/><polygon points="221.66 186.28 217.9 179.1 210.53 178.49 210.82 169.3 216.64 169.49 221.91 178.42 221.66 186.28"/><polygon points="221.26 198.78 217.51 191.6 210.13 190.99 210.42 181.8 216.25 181.99 221.51 190.92 221.26 198.78"/><polygon points="220.87 211.28 217.11 204.1 209.74 203.49 210.03 194.3 215.85 194.49 221.11 203.42 220.87 211.28"/><polygon points="220.43 224.92 216.68 217.74 209.31 217.12 209.6 207.94 215.42 208.12 220.68 217.06 220.43 224.92"/><polygon points="220.04 237.42 216.28 230.24 208.91 229.62 209.2 220.44 215.02 220.62 220.29 229.56 220.04 237.42"/><polygon points="225.48 240.34 229.58 234.68 229.93 226.4 225.85 231.59 222.24 225.41 221.88 234.08 225.48 240.34"/></g><ellipse cx="209.99" cy="186.3" rx="8.35" ry="44.97" transform="matrix(1, -0.02, 0.02, 1, -3.7, 4.25)"/><ellipse class="cls-13" cx="17.5" cy="188.52" rx="6.1" ry="32.83" transform="translate(-3.78 0.39) rotate(-1.15)"/><ellipse cx="17.5" cy="188.52" rx="3.96" ry="21.34" transform="translate(-3.78 0.39) rotate(-1.15)"/><ellipse cx="70.73" cy="200.09" rx="10.46" ry="51.5" transform="translate(-3.67 1.34) rotate(-1.05)"/><ellipse class="cls-13" cx="70.73" cy="200.09" rx="7.63" ry="37.6" transform="translate(-3.67 1.34) rotate(-1.05)"/><ellipse cx="70.73" cy="200.09" rx="4.96" ry="24.44" transform="translate(-3.67 1.34) rotate(-1.05)"/><path class="cls-14" d="M225.35,163.29s-4.46-2.06-5.34.44-2.73,20.72-2.73,20.72l5.83-.48Z"/><path class="cls-15" d="M223.72,131.89c-.81-5-9.52-4.9-10.94-.82s-3.07,14.81-2.65,17.17S226.16,146.76,223.72,131.89Z"/><ellipse class="cls-15" cx="206.75" cy="141.11" rx="5.45" ry="1.47" transform="translate(62.17 345.44) rotate(-89.03)"/><path class="cls-14" d="M102.85,163.29s4.46-2.06,5.34.44,2.74,20.72,2.74,20.72l-5.84-.48Z"/><path class="cls-15" d="M130.44,138.61c.71-5.1,9.4-6.74,10.9-2.94s3.38,14.18,3,16.62S128.32,153.93,130.44,138.61Z"/><ellipse class="cls-15" cx="147.57" cy="144.51" rx="1.49" ry="5.4" transform="translate(-4.75 5.02) rotate(-1.92)"/><path class="cls-13" d="M87,208.86c0,3.91,1.11,7,2.4,6.95,24.34,2.18,106.71,1,131.8-3.32.5,0,.9-1.31.89-2.85l-.18-19.79c-23.5,4.8-107.22,5.53-135,3.49Z"/><path class="cls-16" d="M207.83,178.14l-1.33-24.58c-.24-4.32-1.28-7.4-2.46-7.24l-52.17,1.58c-1.18,0-2.18,3.17-2.36,7.51l-1,24.71c-.14,3.31.55,6.29,1.44,6.32l56.54-1.83C207.36,184.49,208,181.43,207.83,178.14Z"/><polygon class="cls-13" points="154.62 156.12 201.23 154.66 201.19 148.94 154.58 150.4 154.62 156.12"/><polygon class="cls-13" points="154.69 166.28 201.3 164.83 201.26 159.11 154.65 160.56 154.69 166.28"/><polygon class="cls-13" points="154.75 173.91 201.35 172.45 201.31 166.73 154.71 168.19 154.75 173.91"/><polygon class="cls-13" points="154.82 184.08 201.43 182.62 201.39 176.9 154.78 178.36 154.82 184.08"/><polygon class="cls-14" points="201.5 188.08 203.27 187.84 201.11 143.46 189.72 143.71 201.5 188.08"/><polygon class="cls-14" points="154.92 189.34 153.15 189.3 154.77 144.71 156.54 144.75 154.92 189.34"/><polygon class="cls-16" points="161.09 211.75 203.11 210.28 203.05 203.16 161.02 204.63 161.09 211.75"/><g class="cls-17"><polygon class="cls-18" points="77.49 172.08 75.13 167.96 70.56 191.91 66 167.96 63.64 172.08 68.99 200.15 63.64 228.23 66 232.35 70.56 208.4 75.13 232.35 77.49 228.23 72.14 200.15 77.49 172.08"/></g><g class="cls-19"><polygon class="cls-18" points="24.14 161.68 21.88 157.73 17.5 180.68 13.13 157.73 10.87 161.68 15.99 188.58 10.87 215.48 13.13 219.43 17.5 196.48 21.88 219.43 24.14 215.48 19.01 188.58 24.14 161.68"/></g><path class="cls-9" d="M62.65,88.1l-1.83,14.68c-.29,2.45-.58,4.9-.84,7.35-.12,1.23-.25,2.44-.29,3.66l-.09,3.7-.74,29.59-.94,29.56c-.05,1.26-.05,2.42-.14,3.75a12.52,12.52,0,0,1-.31,2,5,5,0,0,1-.94,2.07,1.24,1.24,0,0,1-.28.28,1.54,1.54,0,0,1-.4.26,1.65,1.65,0,0,1-.57.15,1.51,1.51,0,0,1-.3,0l-.16,0h-.06l-.9-.22-1.79-.43-3.6-.87L34.1,180l-.37-.09-.19-.29a3.5,3.5,0,0,1-.24-.47,3.08,3.08,0,0,1-.16-.38c-.09-.25-.19-.51-.25-.75-.15-.5-.27-1-.37-1.47-.22-1-.35-2-.48-2.93-.23-1.95-.34-3.89-.4-5.83-.13-3.89,0-7.74.14-11.57.19-7.69.46-15.37.74-23l.83-23,.24-5.75a50.66,50.66,0,0,1,.5-5.77c.28-1.92.75-3.79,1.16-5.66l1.29-5.62-1,5.67c-.32,1.9-.75,3.77-.95,5.67a49.58,49.58,0,0,0-.3,5.72l0,5.77-.3,23c-.1,7.68-.21,15.36-.39,23-.08,3.85-.21,7.68-.06,11.48.08,1.9.19,3.79.43,5.66.13.93.26,1.86.47,2.76a11.44,11.44,0,0,0,.34,1.31,5.64,5.64,0,0,0,.21.62l.11.28a.89.89,0,0,0,.09.17l-.56-.38,14.38,3.47,3.59.89,1.8.45.89.22h-.06s-.11,0-.12,0,0,0,0,0a3.8,3.8,0,0,0,.54-1.28,11.19,11.19,0,0,0,.27-1.67c.08-1.13.1-2.44.16-3.65L57.2,147l1.35-29.57.18-3.69c.09-1.24.26-2.48.43-3.7.33-2.45.71-4.89,1.09-7.33Q61.38,95.4,62.65,88.1Z"/><path class="cls-10" d="M40.74,104.54,36,104.09c-.24,0-.43-.62-.43-1.35v-3c0-.76.21-1.37.46-1.35l4.75.45c.24,0,.43.62.43,1.35v3C41.2,104,41,104.56,40.74,104.54Z"/><rect class="cls-20" x="164.88" y="76.31" width="72.51" height="25.84"/><path d="M169.12,54.71c1.75-9,18.52-6.56,30.47-6.17s22-4.63,28.16-.39,4.63,54,4.63,54h-56.7S166.42,68.6,169.12,54.71Z"/><polygon class="cls-20" points="212.13 52.21 187.78 52.21 189.81 29.64 207.06 29.64 212.13 52.21"/><path class="cls-21" d="M188.6,43.14a21.93,21.93,0,0,0,11.36,3,22.51,22.51,0,0,0,10.27-2.34l-3.17-14.11H189.81Z"/><path class="cls-22" d="M189.56,6.11a10.62,10.62,0,0,0-7.32,7.71c-.78,3.86.77,15.43,5,18.52s22.87-.45,23.91-.77c6.18-1.93,3.86-17.36.78-20.45S197.66,3.41,189.56,6.11Z"/><path class="cls-21" d="M180.86,19.76c.81-4,6.74-.38,5.64,7C185.39,34.38,179.66,25.7,180.86,19.76Z"/><path class="cls-23" d="M185.39,27.71s0,0,0,0a.23.23,0,0,1,0-.23,8.65,8.65,0,0,0,0-3.86c-.22-1.15-.78-3.16-2.06-3.47a1.13,1.13,0,0,0-1.43.7,5.65,5.65,0,0,0-.22,2.43.34.34,0,0,1-.05.23s-.1,0-.12-.12a6.38,6.38,0,0,1,.25-2.74,1.27,1.27,0,0,1,1.59-.81c1,.23,1.8,1.58,2.19,3.71a9.26,9.26,0,0,1,0,4.2Z"/><path class="cls-23" d="M183.28,27.05s-.06,0-.08-.11a16.75,16.75,0,0,1,.29-7c0-.08.08-.12.12-.08a.29.29,0,0,1,0,.23,16.15,16.15,0,0,0-.29,6.71.31.31,0,0,1,0,.24S183.28,27.05,183.28,27.05Z"/><path class="cls-21" d="M210.53,26.78c-1.1-7.4,4.83-11,5.64-7C217.37,25.7,211.63,34.38,210.53,26.78Z"/><path class="cls-23" d="M211.58,27.71a9.26,9.26,0,0,1,0-4.2c.38-2.13,1.18-3.48,2.19-3.71a1.27,1.27,0,0,1,1.59.81,6.38,6.38,0,0,1,.25,2.74c0,.08-.08.16-.12.12a.35.35,0,0,1-.06-.23,5.58,5.58,0,0,0-.21-2.43,1.13,1.13,0,0,0-1.43-.7c-1.28.31-1.84,2.32-2.06,3.47a8.65,8.65,0,0,0,0,3.86.23.23,0,0,1,0,.23s0,0-.06,0Z"/><path class="cls-23" d="M213.71,27a.31.31,0,0,1,0-.24,16.15,16.15,0,0,0-.29-6.71.29.29,0,0,1,0-.23s.1,0,.11.08a16.84,16.84,0,0,1,.3,7c0,.08,0,.11-.08.11S213.73,27.05,213.71,27Z"/><path class="cls-20" d="M198.57,6.71c-8.43-2.43-14.79,2.48-14.79,15.47,0,6.36,1.34,7.68,3.63,13.12,1.12,2.68,7.08,8,10.92,9h.48c3.84-1,9.79-6.32,10.92-9,2.28-5.44,3.63-6.76,3.63-13.12C213.36,9.19,207,4.28,198.57,6.71Z"/><path class="cls-22" d="M183.78,11.51s5.37,0,8.87,1.93c4.24,2.31,11.56,5.65,18.13,5,12-1.15,3.47-14.65.38-14.65.78,1.15-.77,2.7-2.31,2.31S193-10.48,183.78,11.51Z"/><path class="cls-15" d="M194.35,32.76s.5,3.09,2.31,3.74,3.7.24,4.51-.81a8.68,8.68,0,0,0,1.28-3Z"/><path class="cls-23" d="M198.44,31.49a.46.46,0,0,1-.35-.12.93.93,0,0,1-.23-.73v-.11a.73.73,0,0,0-.27.23A.65.65,0,0,1,197,31a.92.92,0,0,1-.58-.73,4.07,4.07,0,0,1,.5-1.82.19.19,0,0,1,.23-.07.18.18,0,0,1,.08.23,2.91,2.91,0,0,0-.46,1.54c.07.31.19.43.31.46s.15,0,.19-.07c.27-.27.46-.39.62-.39a.33.33,0,0,1,.23.16.68.68,0,0,1,0,.3.8.8,0,0,0,.11.51.45.45,0,0,0,.23,0c.23,0,.27-.23.27-.61,0-.2,0-.35.08-.43a.29.29,0,0,1,.19-.07c.16,0,.23.11.35.19s.31.19.46.08a.4.4,0,0,0,.08-.39,2.64,2.64,0,0,0-.62-1.43c-.07,0-.07-.15,0-.23a.19.19,0,0,1,.24,0,2.84,2.84,0,0,1,.77,1.7c0,.31,0,.54-.2.66a.65.65,0,0,1-.92,0l-.08-.08v.08c0,.31,0,.88-.58,1Zm-.54-1Z"/><ellipse class="cls-23" cx="191.23" cy="25.59" rx="0.66" ry="1.31"/><path class="cls-23" d="M188.94,22.16a5.22,5.22,0,0,1,2.62-1.08,4.59,4.59,0,0,1,2.32.54c.46.11.54-.54.27-1.08s-1.24-1-2.86-.93a3.81,3.81,0,0,0-2.93,1.27C187.9,21.35,188.25,22.73,188.94,22.16Z"/><ellipse class="cls-23" cx="204.26" cy="25.67" rx="0.66" ry="1.31"/><path class="cls-23" d="M201.65,21.46a5.31,5.31,0,0,1,2.8-.42,4.56,4.56,0,0,1,2.12,1.08c.42.22.65-.4.52-1s-1-1.23-2.55-1.58a4,4,0,0,0-3.15.53C200.82,20.46,200.83,21.85,201.65,21.46Z"/><path class="cls-23" d="M203.33,37.2a26.37,26.37,0,0,1-2,3.82,10.61,10.61,0,0,1-5.48,0,26.55,26.55,0,0,1-2-3.82l-1,.23s1.54,5,1.77,5.4a13.13,13.13,0,0,0,3.75,2.23v.08l.19,0,.19,0v-.08a13,13,0,0,0,3.74-2.23c.23-.42,1.78-5.4,1.78-5.4Z"/><rect class="cls-23" x="198.05" y="37.35" width="1.54" height="3.09"/><ellipse class="cls-20" cx="199.79" cy="51.66" rx="13.69" ry="5.37"/><path d="M173.75,50.91c7.27,1,8.1,5.8,8.87,9.11s.77,20.72.77,20.72l-23.14,2.9s.77-15.33,3.09-24C165.24,52.44,170.66,50.49,173.75,50.91Z"/><path d="M225.55,49c-7.27,1-8.1,5.8-8.87,9.11s-.77,20.72-.77,20.72l23.14,2.9s-.77-15.33-3.08-24C234.06,50.51,228.64,48.56,225.55,49Z"/><path class="cls-20" d="M225.52,64.18c-.5-.94-2.34.26-2.61,1s.53,8.87.53,8.87-2.55,2.08-2.6,4.79,3.56,4.78,3.77,5.1-.42,2.81,3,4.25,6.11.42,6.38-1.38-5.64-15-6.59-17.54S225.94,65,225.52,64.18Z"/><path class="cls-20" d="M175.52,66c.5-.93,2.34.27,2.6,1s-.53,8.88-.53,8.88,2.55,2.07,2.61,4.78-3.56,4.79-3.78,5.1.43,2.82-3,4.26-6.11.42-6.38-1.39,5.63-15,6.59-17.53S175.09,66.78,175.52,66Z"/><path class="cls-24" d="M233.73,102.54l-.57-9.11s-1.28,4.1-5,4.1-8.45-3.09-15.1-5.69a34,34,0,0,0-13.21-2,28.74,28.74,0,0,0-11.23,2c-6.65,2.6-11.32,5.69-15.1,5.69s-5.05-4.1-5.05-4.1l-.57,9.11Z"/><path class="cls-24" d="M169.21,102.54c0-.59-.05-1.19-.05-1.79a32.1,32.1,0,0,1,64.19,0c0,.6,0,1.2,0,1.79h6.63c0-.59,0-1.19,0-1.79a38.72,38.72,0,0,0-77.43,0c0,.6,0,1.2,0,1.79Z"/><path class="cls-20" d="M168.9,68.93a48.52,48.52,0,0,1,7.92,7.82c.75,1.27.27,3.34-1.49,2.87s-8-6.17-9.08-7.6S166.88,67.76,168.9,68.93Z"/><path class="cls-20" d="M165,71.55c1.67.79,7.67,6,8.51,7.17s.53,3.31-1.26,3-8.43-5.52-9.65-6.86S162.89,70.54,165,71.55Z"/><path class="cls-20" d="M163.77,76.65a47.09,47.09,0,0,1,9.08,5.68c1,1,1,3.09-.8,3s-8.78-4.13-10.13-5.24S161.63,76,163.77,76.65Z"/><path class="cls-20" d="M164.31,81.53a39.42,39.42,0,0,1,7.39,5.13c.75.9.57,2.55-.93,2.38s-7.25-3.85-8.33-4.83A1.69,1.69,0,0,1,164.31,81.53Z"/><path class="cls-20" d="M232.13,67.13a48.4,48.4,0,0,0-7.91,7.81c-.75,1.28-.27,3.35,1.48,2.87s8-6.17,9.09-7.6S234.15,66,232.13,67.13Z"/><path class="cls-20" d="M236,69.74a49.08,49.08,0,0,0-8.5,7.17c-.84,1.21-.53,3.32,1.26,3s8.43-5.53,9.65-6.87S238.15,68.73,236,69.74Z"/><path class="cls-20" d="M237.27,74.84a46.78,46.78,0,0,0-9.08,5.68c-1,1-.95,3.1.8,3s8.78-4.12,10.13-5.24S239.41,74.16,237.27,74.84Z"/><path class="cls-20" d="M236.73,79.72a39.42,39.42,0,0,0-7.39,5.13c-.75.9-.58,2.55.93,2.39s7.25-3.86,8.33-4.84A1.7,1.7,0,0,0,236.73,79.72Z"/><path class="cls-7" d="M82.59,44.5c-2.16,5.08-13.82,40.86-13.82,40.86s-.87,7.91-1.23,14.16c1,2.93,2,5.9,2.89,8.88,1.35,4.45,2.57,8.95,4.16,13.32,3.29,9,7,17.88,10.08,27,.09.27.16.54.25.81l85.46,22.06V44.5Z"/><path class="cls-10" d="M310.85,147.67c-70.5,16.84-181.76,19.23-226.54,0l.36,1c2.94,8.76,4.23,18,5.11,27.13.44,4.59-4.37,10.33-4,14.91.16,1.86.39,1.87.53,3.73l233.08.69V156.25A8.58,8.58,0,0,0,310.85,147.67Z"/><path class="cls-7" d="M51,77.58H66a3.36,3.36,0,0,1,3.36,3.36v9.31a0,0,0,0,1,0,0H51a2.15,2.15,0,0,1-2.15-2.15V79.73A2.15,2.15,0,0,1,51,77.58Z"/><path class="cls-15" d="M88.28,138.82c2-4.8,26.12-6.22,30.25-2.62s9.31,13.43,8.28,15.72S82.34,153.23,88.28,138.82Z"/><circle class="cls-15" cx="138.28" cy="144.64" r="5.16"/><path class="cls-7" d="M276.91,101.62c-5.4-7.12-10.66-16.84-17.86-30.26-3.46-6.44-8.26-17.29-12.32-26.86H154.24V165l164-12.15s.33-10-3.93-18.84S282.31,108.73,276.91,101.62Z"/><path class="cls-7" d="M266.33,77.58H284.7a0,0,0,0,1,0,0v9.31a3.36,3.36,0,0,1-3.36,3.36h-15a2.15,2.15,0,0,1-2.15-2.15V79.73a2.15,2.15,0,0,1,2.15-2.15Z" transform="translate(548.88 167.83) rotate(180)"/><path class="cls-16" d="M216,189.26H139.35a5.19,5.19,0,0,1-5.14-5.92L137.57,160a8.32,8.32,0,0,1,8.24-7.14H216Z"/><path class="cls-14" d="M314.52,169.94s-15.61-2.29-18.78,0-10.26,19.32-10.26,19.32H306Z"/><path class="cls-14" d="M93.69,169.94s15.61-2.29,18.78,0,10.26,19.32,10.26,19.32H102.21Z"/><path class="cls-15" d="M312.53,138.82c-2.07-4.8-27.34-6.22-31.67-2.62s-9.74,13.43-8.66,15.72S318.76,153.23,312.53,138.82Z"/><circle class="cls-15" cx="265.71" cy="144.64" r="5.16"/><path class="cls-13" d="M157.14,195.16H322.05a0,0,0,0,1,0,0v21.29a0,0,0,0,1,0,0H154.24a0,0,0,0,1,0,0V198.06A2.9,2.9,0,0,1,157.14,195.16Z" transform="translate(476.29 411.6) rotate(-180)"/><path class="cls-25" d="M87.75,44.5,73.47,89.92s-3,9.6,18.63,11.24c14.25,1.08,43.7,1.45,62.14,1.57v.07l8.07,0,8.07,0v-.07c18.43-.12,47.89-.49,62.14-1.57,21.61-1.64,26.85-15.72,26.85-15.72L243.18,44.5Z"/><path class="cls-16" d="M180.22,189.26h84.86a5.19,5.19,0,0,0,5.13-5.92L266.85,160a8.32,8.32,0,0,0-8.24-7.14H180.22Z"/><rect class="cls-13" x="156.94" y="154.54" width="91.03" height="5.39" transform="translate(404.91 314.48) rotate(-180)"/><rect class="cls-13" x="156.94" y="163.68" width="91.03" height="5.39" transform="translate(404.91 332.75) rotate(-180)"/><rect class="cls-13" x="156.94" y="171.9" width="91.03" height="5.39" transform="translate(404.91 349.19) rotate(-180)"/><rect class="cls-13" x="156.94" y="180.92" width="91.03" height="5.39" transform="translate(404.91 367.23) rotate(-180)"/><polygon class="cls-14" points="247.48 191.88 253.7 191.88 248.46 149.8 242.24 149.8 247.48 191.88"/><rect class="cls-16" x="168.55" y="205.8" width="60.76" height="6.71" transform="translate(397.86 418.31) rotate(-180)"/><polygon class="cls-14" points="156.94 191.88 150.72 191.88 155.96 149.8 162.18 149.8 156.94 191.88"/><g class="cls-26"><rect class="cls-20" x="164.88" y="76.31" width="72.51" height="25.84"/><path d="M169.12,54.71c1.75-9,18.52-6.56,30.47-6.17s22-4.63,28.16-.39,4.63,54,4.63,54h-56.7S166.42,68.6,169.12,54.71Z"/><polygon class="cls-20" points="212.13 52.21 187.78 52.21 189.81 29.64 207.06 29.64 212.13 52.21"/><path class="cls-21" d="M188.6,43.14a21.93,21.93,0,0,0,11.36,3,22.51,22.51,0,0,0,10.27-2.34l-3.17-14.11H189.81Z"/><path class="cls-22" d="M189.56,6.11a10.62,10.62,0,0,0-7.32,7.71c-.78,3.86.77,15.43,5,18.52s22.87-.45,23.91-.77c6.18-1.93,3.86-17.36.78-20.45S197.66,3.41,189.56,6.11Z"/><path class="cls-21" d="M180.86,19.76c.81-4,6.74-.38,5.64,7C185.39,34.38,179.66,25.7,180.86,19.76Z"/><path class="cls-23" d="M185.39,27.71s0,0,0,0a.23.23,0,0,1,0-.23,8.65,8.65,0,0,0,0-3.86c-.22-1.15-.78-3.16-2.06-3.47a1.13,1.13,0,0,0-1.43.7,5.65,5.65,0,0,0-.22,2.43.34.34,0,0,1-.05.23s-.1,0-.12-.12a6.38,6.38,0,0,1,.25-2.74,1.27,1.27,0,0,1,1.59-.81c1,.23,1.8,1.58,2.19,3.71a9.26,9.26,0,0,1,0,4.2Z"/><path class="cls-23" d="M183.28,27.05s-.06,0-.08-.11a16.75,16.75,0,0,1,.29-7c0-.08.08-.12.12-.08a.29.29,0,0,1,0,.23,16.15,16.15,0,0,0-.29,6.71.31.31,0,0,1,0,.24S183.28,27.05,183.28,27.05Z"/><path class="cls-21" d="M210.53,26.78c-1.1-7.4,4.83-11,5.64-7C217.37,25.7,211.63,34.38,210.53,26.78Z"/><path class="cls-23" d="M211.58,27.71a9.26,9.26,0,0,1,0-4.2c.38-2.13,1.18-3.48,2.19-3.71a1.27,1.27,0,0,1,1.59.81,6.38,6.38,0,0,1,.25,2.74c0,.08-.08.16-.12.12a.35.35,0,0,1-.06-.23,5.58,5.58,0,0,0-.21-2.43,1.13,1.13,0,0,0-1.43-.7c-1.28.31-1.84,2.32-2.06,3.47a8.65,8.65,0,0,0,0,3.86.23.23,0,0,1,0,.23s0,0-.06,0Z"/><path class="cls-23" d="M213.71,27a.31.31,0,0,1,0-.24,16.15,16.15,0,0,0-.29-6.71.29.29,0,0,1,0-.23s.1,0,.11.08a16.84,16.84,0,0,1,.3,7c0,.08,0,.11-.08.11S213.73,27.05,213.71,27Z"/><path class="cls-20" d="M198.57,6.71c-8.43-2.43-14.79,2.48-14.79,15.47,0,6.36,1.34,7.68,3.63,13.12,1.12,2.68,7.08,8,10.92,9h.48c3.84-1,9.79-6.32,10.92-9,2.28-5.44,3.63-6.76,3.63-13.12C213.36,9.19,207,4.28,198.57,6.71Z"/><path class="cls-22" d="M183.78,11.51s5.37,0,8.87,1.93c4.24,2.31,11.56,5.65,18.13,5,12-1.15,3.47-14.65.38-14.65.78,1.15-.77,2.7-2.31,2.31S193-10.48,183.78,11.51Z"/><path class="cls-15" d="M194.35,32.76s.5,3.09,2.31,3.74,3.7.24,4.51-.81a8.68,8.68,0,0,0,1.28-3Z"/><path class="cls-23" d="M198.44,31.49a.46.46,0,0,1-.35-.12.93.93,0,0,1-.23-.73v-.11a.73.73,0,0,0-.27.23A.65.65,0,0,1,197,31a.92.92,0,0,1-.58-.73,4.07,4.07,0,0,1,.5-1.82.19.19,0,0,1,.23-.07.18.18,0,0,1,.08.23,2.91,2.91,0,0,0-.46,1.54c.07.31.19.43.31.46s.15,0,.19-.07c.27-.27.46-.39.62-.39a.33.33,0,0,1,.23.16.68.68,0,0,1,0,.3.8.8,0,0,0,.11.51.45.45,0,0,0,.23,0c.23,0,.27-.23.27-.61,0-.2,0-.35.08-.43a.29.29,0,0,1,.19-.07c.16,0,.23.11.35.19s.31.19.46.08a.4.4,0,0,0,.08-.39,2.64,2.64,0,0,0-.62-1.43c-.07,0-.07-.15,0-.23a.19.19,0,0,1,.24,0,2.84,2.84,0,0,1,.77,1.7c0,.31,0,.54-.2.66a.65.65,0,0,1-.92,0l-.08-.08v.08c0,.31,0,.88-.58,1Zm-.54-1Z"/><ellipse class="cls-23" cx="191.23" cy="25.59" rx="0.66" ry="1.31"/><path class="cls-23" d="M188.94,22.16a5.22,5.22,0,0,1,2.62-1.08,4.59,4.59,0,0,1,2.32.54c.46.11.54-.54.27-1.08s-1.24-1-2.86-.93a3.81,3.81,0,0,0-2.93,1.27C187.9,21.35,188.25,22.73,188.94,22.16Z"/><ellipse class="cls-23" cx="204.26" cy="25.67" rx="0.66" ry="1.31"/><path class="cls-23" d="M201.65,21.46a5.31,5.31,0,0,1,2.8-.42,4.56,4.56,0,0,1,2.12,1.08c.42.22.65-.4.52-1s-1-1.23-2.55-1.58a4,4,0,0,0-3.15.53C200.82,20.46,200.83,21.85,201.65,21.46Z"/><path class="cls-23" d="M203.33,37.2a26.37,26.37,0,0,1-2,3.82,10.61,10.61,0,0,1-5.48,0,26.55,26.55,0,0,1-2-3.82l-1,.23s1.54,5,1.77,5.4a13.13,13.13,0,0,0,3.75,2.23v.08l.19,0,.19,0v-.08a13,13,0,0,0,3.74-2.23c.23-.42,1.78-5.4,1.78-5.4Z"/><rect class="cls-23" x="198.05" y="37.35" width="1.54" height="3.09"/><ellipse class="cls-20" cx="199.79" cy="51.66" rx="13.69" ry="5.37"/><path d="M173.75,50.91c7.27,1,8.1,5.8,8.87,9.11s.77,20.72.77,20.72l-23.14,2.9s.77-15.33,3.09-24C165.24,52.44,170.66,50.49,173.75,50.91Z"/><path d="M225.55,49c-7.27,1-8.1,5.8-8.87,9.11s-.77,20.72-.77,20.72l23.14,2.9s-.77-15.33-3.08-24C234.06,50.51,228.64,48.56,225.55,49Z"/><path class="cls-20" d="M225.52,64.18c-.5-.94-2.34.26-2.61,1s.53,8.87.53,8.87-2.55,2.08-2.6,4.79,3.56,4.78,3.77,5.1-.42,2.81,3,4.25,6.11.42,6.38-1.38-5.64-15-6.59-17.54S225.94,65,225.52,64.18Z"/><path class="cls-20" d="M175.52,66c.5-.93,2.34.27,2.6,1s-.53,8.88-.53,8.88,2.55,2.07,2.61,4.78-3.56,4.79-3.78,5.1.43,2.82-3,4.26-6.11.42-6.38-1.39,5.63-15,6.59-17.53S175.09,66.78,175.52,66Z"/><path class="cls-24" d="M233.73,102.54l-.57-9.11s-1.28,4.1-5,4.1-8.45-3.09-15.1-5.69a34,34,0,0,0-13.21-2,28.74,28.74,0,0,0-11.23,2c-6.65,2.6-11.32,5.69-15.1,5.69s-5.05-4.1-5.05-4.1l-.57,9.11Z"/><path class="cls-24" d="M169.21,102.54c0-.59-.05-1.19-.05-1.79a32.1,32.1,0,0,1,64.19,0c0,.6,0,1.2,0,1.79h6.63c0-.59,0-1.19,0-1.79a38.72,38.72,0,0,0-77.43,0c0,.6,0,1.2,0,1.79Z"/><path class="cls-20" d="M168.9,68.93a48.52,48.52,0,0,1,7.92,7.82c.75,1.27.27,3.34-1.49,2.87s-8-6.17-9.08-7.6S166.88,67.76,168.9,68.93Z"/><path class="cls-20" d="M165,71.55c1.67.79,7.67,6,8.51,7.17s.53,3.31-1.26,3-8.43-5.52-9.65-6.86S162.89,70.54,165,71.55Z"/><path class="cls-20" d="M163.77,76.65a47.09,47.09,0,0,1,9.08,5.68c1,1,1,3.09-.8,3s-8.78-4.13-10.13-5.24S161.63,76,163.77,76.65Z"/><path class="cls-20" d="M164.31,81.53a39.42,39.42,0,0,1,7.39,5.13c.75.9.57,2.55-.93,2.38s-7.25-3.85-8.33-4.83A1.69,1.69,0,0,1,164.31,81.53Z"/><path class="cls-20" d="M232.13,67.13a48.4,48.4,0,0,0-7.91,7.81c-.75,1.28-.27,3.35,1.48,2.87s8-6.17,9.09-7.6S234.15,66,232.13,67.13Z"/><path class="cls-20" d="M236,69.74a49.08,49.08,0,0,0-8.5,7.17c-.84,1.21-.53,3.32,1.26,3s8.43-5.53,9.65-6.87S238.15,68.73,236,69.74Z"/><path class="cls-20" d="M237.27,74.84a46.78,46.78,0,0,0-9.08,5.68c-1,1-.95,3.1.8,3s8.78-4.12,10.13-5.24S239.41,74.16,237.27,74.84Z"/><path class="cls-20" d="M236.73,79.72a39.42,39.42,0,0,0-7.39,5.13c-.75.9-.58,2.55.93,2.39s7.25-3.86,8.33-4.84A1.7,1.7,0,0,0,236.73,79.72Z"/></g><path class="cls-27" d="M102.21,44.5l-33.71,46c3.57,4.18,10.57,9.58,23.36,10.61L135.59,44.5Z"/><path class="cls-27" d="M160.63,44.5l-44.72,57.67c2.7.07,5.45.13,8.23.18L169,44.5Z"/><path class="cls-27" d="M175,44.5l-45,58,8.29.12L183.37,44.5Z"/></svg>