<svg id="Слой_1" data-name="Слой 1" xmlns="http://www.w3.org/2000/svg" xmlns:xlink="http://www.w3.org/1999/xlink" viewBox="0 0 519.54 261.74"><defs><style>.cls-1{fill:none;}.cls-2{opacity:0.15;}.cls-3{fill:#3b3b3b;}.cls-4,.cls-6{fill:#0c96fd;}.cls-5{fill:#fcfcfc;}.cls-6{opacity:0.21;}.cls-7{fill:#f69576;}.cls-8{fill:#dd866f;}.cls-9{fill:#a5713d;}.cls-10{fill:#6b3425;}.cls-11{fill:#fff;}.cls-12{fill:#424b6a;}.cls-13{fill:#7d009b;}.cls-14{fill:#024168;}.cls-15{fill:#1d7dcc;}.cls-16{fill:#606060;}.cls-17{clip-path:url(#clip-path);}.cls-18{fill:#a8a9ad;}.cls-19{clip-path:url(#clip-path-2);}</style><clipPath id="clip-path"><ellipse class="cls-1" cx="307.66" cy="201.02" rx="37.68" ry="23.06" transform="translate(81.11 490.4) rotate(-85.1)"/></clipPath><clipPath id="clip-path-2"><ellipse class="cls-1" cx="468.8" cy="189.45" rx="32.9" ry="18.41" transform="matrix(0.09, -1, 1, 0.09, 240.03, 640.38)"/></clipPath></defs><title>car</title><path class="cls-2" d="M503.53,212.53,343.12,200.68,5.91,222.55s-16.41,27.34,5.46,27.34S301.2,261.74,301.2,261.74l196-30.07Z"/><polygon class="cls-3" points="234.88 87.44 212.55 41.95 352.6 42.25 427.19 85.39 423.54 89.94 235.34 91.77 234.88 87.44"/><path class="cls-4" d="M202.5,44.49l25.55,48.19L243,93,212.55,41.94l-8.71.24A1.57,1.57,0,0,0,202.5,44.49Z"/><path class="cls-5" d="M502.18,102.44l2.87,1.25s12.79,3.38,10.72,24-19.63-17.16-19.4-17.5S502.18,102.44,502.18,102.44Z"/><path class="cls-6" d="M253.67,91.59q2-5.55,3.93-11.1c1.44-4,2.89-8,4.35-12.06s2.92-7.77,4.22-11.7c1.61-4.89,3.1-9.85,4.94-14.66l-17.82,0c-2.81,6.44-5.29,13-7.7,19.62-2.88,7.86-6,15.64-8.93,23.48-.53,1.41-1,2.82-1.58,4.24l.26,2.4Z"/><path class="cls-6" d="M352.16,63.45c1.49-6.23,3-12.48,4.94-18.6l-4.5-2.6h-4.16c-2,5.66-4,11.32-5.87,17q-4.45,13.31-8.67,26.69c-.52,1.63-1,3.26-1.53,4.89l12.78-.13C347.51,81.63,350,72.58,352.16,63.45Z"/><path class="cls-6" d="M278.43,70c1.43-5.94,2.94-11.86,4.41-17.79.84-3.38,1.71-6.75,2.77-10.07H282q-2.55,7.68-5,15.4-5.26,16.89-9.91,34l6.3-.06Q275.87,80.66,278.43,70Z"/><polygon class="cls-7" points="240.8 47.48 258.95 49.23 257.43 27.86 244.58 27.16 240.8 47.48"/><path class="cls-8" d="M258.34,40.63a12.92,12.92,0,0,1-8.47,2,15.42,15.42,0,0,1-7.65-2.78l2.36-12.74,12.85.71Z"/><path class="cls-9" d="M257.62,5.75c2.57,1.12,7.09,3.72,7.66,7.4s-.57,14.63-3.73,17.37-19.26-1.43-20-1.77c-4.6-2-2.88-15.88-.58-18.62S251.58,3.18,257.62,5.75Z"/><path class="cls-8" d="M266.31,18.83c-.61-3.84-5-.55-4.2,6.47C262.93,32.53,267.21,24.53,266.31,18.83Z"/><path class="cls-10" d="M262.93,26.22a0,0,0,0,0,0,0,.28.28,0,0,0,0-.22,10.31,10.31,0,0,1,0-3.65c.16-1.09.58-3,1.53-3.23.5-.12.87.11,1.07.7a7,7,0,0,1,.16,2.32.31.31,0,0,0,0,.22s.07,0,.09-.1a7.62,7.62,0,0,0-.19-2.62c-.23-.7-.64-.94-1.19-.81-.75.19-1.34,1.45-1.63,3.44a10.91,10.91,0,0,0,0,4Z"/><path class="cls-10" d="M264.5,25.68s.05,0,.06-.11a19.91,19.91,0,0,0-.21-6.67c0-.07-.06-.11-.09-.07a.36.36,0,0,0,0,.22,19.43,19.43,0,0,1,.22,6.37.31.31,0,0,0,0,.22S264.5,25.68,264.5,25.68Z"/><path class="cls-10" d="M239.62,24.51a.34.34,0,0,0,0-.21,17.75,17.75,0,0,1,.22-6.08.35.35,0,0,0,0-.21s-.08,0-.09.07a18.31,18.31,0,0,0-.22,6.36c0,.07,0,.1.06.11S239.61,24.55,239.62,24.51Z"/><path class="cls-7" d="M250.91,6.24C257.19,4,264.13,8.72,264.13,21c0,6-1,7.22-2.7,12.26-.84,2.47-7.48,7.12-10.34,7.82l-.36,0c-2.86-1.15-7.3-6.37-8.14-8.87-1.71-5.06-2.71-6.31-2.71-12.08C239.88,8.35,244.62,3.93,250.91,6.24Z"/><path class="cls-9" d="M264.13,10.92s-6.2-.06-8.81,1.67c-3.16,2.07-8.62,5-13.52,4.23-8.91-1.34-5.32-13.82-3-13.8-.57,1.05,3.31,2.91,4.46,2.57S257.23-9.79,264.13,10.92Z"/><path class="cls-11" d="M254.05,30.6s-.37,2.85-1.72,3.37A2.77,2.77,0,0,1,249,33a9.6,9.6,0,0,1-.94-2.8Z"/><path class="cls-10" d="M251,29.23c-.46-.14-.43-.67-.43-1V28.2l-.06.07a.42.42,0,0,1-.69,0,.88.88,0,0,1-.14-.62,2.68,2.68,0,0,1,.57-1.54.12.12,0,0,1,.17.05c0,.07,0,.18,0,.21a2.61,2.61,0,0,0-.46,1.3.48.48,0,0,0,.06.36c.12.11.17.08.35-.06s.14-.17.26-.16a.2.2,0,0,1,.14.08.71.71,0,0,1,.06.4c0,.35,0,.53.2.58s.14,0,.17,0a.76.76,0,0,0,.09-.46.8.8,0,0,1,0-.28.19.19,0,0,1,.17-.13c.11,0,.26.12.46.38,0,0,.08.11.14.08s.17-.13.23-.42a3.33,3.33,0,0,0-.34-1.45.19.19,0,0,1,0-.21.13.13,0,0,1,.18.08,4.58,4.58,0,0,1,.37,1.7.77.77,0,0,1-.43.66.43.43,0,0,1-.43-.2,1.05,1.05,0,0,0-.2-.23v.11a.94.94,0,0,1-.18.67.26.26,0,0,1-.25.09Zm.46-.87Z"/><path class="cls-10" d="M256.38,22.78c-.27,0-.49.53-.49,1.21s.22,1.24.49,1.25.49-.53.49-1.21S256.65,22.79,256.38,22.78Z"/><path class="cls-10" d="M258.08,20.86a3.79,3.79,0,0,0-1.95-1.09,2.88,2.88,0,0,0-1.73.43c-.34.1-.4-.52-.2-1s.92-.87,2.13-.79a2.72,2.72,0,0,1,2.18,1.28C258.86,20.13,258.6,21.43,258.08,20.86Z"/><path class="cls-10" d="M246.66,22.41c-.27,0-.49.52-.49,1.19s.22,1.21.49,1.23.49-.52.49-1.19S246.93,22.43,246.66,22.41Z"/><path class="cls-10" d="M248.61,19.83a3.32,3.32,0,0,0-2.09-.47,3.09,3.09,0,0,0-1.58.93c-.31.19-.49-.39-.39-.92s.72-1.1,1.9-1.38a2.53,2.53,0,0,1,2.35.57C249.23,18.93,249.22,20.22,248.61,19.83Z"/><path class="cls-10" d="M247.35,34.28a30.06,30.06,0,0,0,1.47,3.63,5,5,0,0,0,2,.49,4.66,4.66,0,0,0,2-.18,24.74,24.74,0,0,0,1.47-3.46l.75.27S254,39.59,253.79,40A8.5,8.5,0,0,1,251,41.83v.07l-.15,0-.14,0V41.8a10.68,10.68,0,0,1-2.79-2.29c-.17-.4-1.32-5.07-1.32-5.07Z"/><polygon class="cls-10" points="250.14 37.47 251.29 37.56 251.29 34.69 250.14 34.61 250.14 37.47"/><path class="cls-7" d="M239.79,46.88c0,2.69,4.57,5.35,10.21,5.94s10.21-1.2,10.21-4-4.57-5.46-10.21-5.94S239.79,44.19,239.79,46.88Z"/><path d="M269.41,49c-5.42.42-6,5-6.62,8s-.57,19.59-.57,19.59L279.47,82s-.57-15.11-2.3-23.82C275.75,51.06,271.71,48.79,269.41,49Z"/><path class="cls-7" d="M230.82,57.17c.37-.79,1.74.45,1.94,1.13s-.4,7.89-.4,7.89a8.08,8.08,0,0,1,1.94,4.55c0,2.44-2.65,3.88-2.81,4.14s.32,2.57-2.22,3.44-4.55-.37-4.75-2,4.2-12.67,4.91-14.79S230.5,57.84,230.82,57.17Z"/><path class="cls-7" d="M273,66.78a36,36,0,0,0-5.9,6.73c-.56,1.14-.2,3.18,1.11,2.91S274.17,71.31,275,70,274.53,65.84,273,66.78Z"/><path class="cls-7" d="M275.94,69.7a33.52,33.52,0,0,0-6.34,6.06c-.63,1.07-.4,3.13.93,3s6.29-4.44,7.2-5.62S277.51,68.92,275.94,69.7Z"/><path class="cls-7" d="M225.88,59.19a48.28,48.28,0,0,1,5.91,7.7c.55,1.22.2,3-1.11,2.4s-5.94-6.27-6.78-7.64S224.38,58,225.88,59.19Z"/><path d="M271.8,51.67C270,43,257.58,44.9,248.66,45s-20.82-1.68-25.22,2,3.4,44.41,3.4,44.41l42.65,5.54S274.59,65.23,271.8,51.67Z"/><polygon class="cls-7" points="240.8 47.48 258.95 49.23 257.43 27.86 244.58 27.16 240.8 47.48"/><path class="cls-8" d="M258.34,40.63a12.92,12.92,0,0,1-8.47,2,15.42,15.42,0,0,1-7.65-2.78l2.36-12.74,12.85.71Z"/><path class="cls-9" d="M257.62,5.75c2.57,1.12,7.09,3.72,7.66,7.4s-.57,14.63-3.73,17.37-19.26-1.43-20-1.77c-4.6-2-2.88-15.88-.58-18.62S251.58,3.18,257.62,5.75Z"/><path class="cls-8" d="M266.31,18.83c-.61-3.84-5-.55-4.2,6.47C262.93,32.53,267.21,24.53,266.31,18.83Z"/><path class="cls-7" d="M239.79,45.94c0,2.07,4.57,4.12,10.21,4.58s10.21-.93,10.21-3.08-4.57-4.21-10.21-4.58S239.79,43.87,239.79,45.94Z"/><path class="cls-9" d="M264.13,10.92s3.14,15.83-5.52,23.28c-2.87,2.46-12.3,1.64-16.64-.76-6.3-3.5-3.67-18-4.29-19.27C235.8,10.22,237.06,3,238.78,3c-.57,1.05,3.31,2.91,4.46,2.57S257.23-9.79,264.13,10.92Z"/><path d="M269.41,49c-5.42.42-6,5-6.62,8s-.57,19.59-.57,19.59L279.47,82s-.57-15.11-2.3-23.82C275.75,51.06,271.71,48.79,269.41,49Z"/><path d="M269.41,49c-5.42.42-6,5-6.62,8s-.57,19.59-.57,19.59L279.47,82s-.57-15.11-2.3-23.82C275.75,51.06,271.71,48.79,269.41,49Z"/><path d="M227.8,45.43c5.49,1.06,6.36,5.42,7.1,8.44s1.65,18.72,1.65,18.72l-17.22,1s-.19-13.31,1.11-20.81C221.51,46.57,225.47,45,227.8,45.43Z"/><path class="cls-7" d="M273,66.78a36,36,0,0,0-5.9,6.73c-.56,1.14-.2,3.18,1.11,2.91S274.17,71.31,275,70,274.53,65.84,273,66.78Z"/><path class="cls-7" d="M275.94,69.7a33.52,33.52,0,0,0-6.34,6.06c-.63,1.07-.4,3.13.93,3s6.29-4.44,7.2-5.62S277.51,68.92,275.94,69.7Z"/><path d="M268.12,47.87c-5.39.72-5.74,5.28-6.14,8.4s.55,19.59.55,19.59l17.53,4.42s-1.44-15-3.66-23.65C274.57,49.58,270.41,47.55,268.12,47.87Z"/><path class="cls-4" d="M352.6,42.25l76.26,48.91,19.44-1.22L365.84,43.08A8.27,8.27,0,0,0,361.55,42Z"/><path d="M20.77,190.35c-2.43,28.4,9.68,52.63,27.06,54.12.62.05,19.13.64,19.75.64,16.65-.15,13.78-22,16.13-49.37,2.37-27.76,6.55-51.18-10.21-53.62-.38-.05-16.47-.46-16.86-.5C39.26,140.13,23.2,162,20.77,190.35Z"/><path d="M188.68,179.29c-2.12,24.8,8.46,46,23.63,47.25.54.05,16.7.56,17.24.56,14.54-.13,12-19.19,14.08-43.1,2.07-24.24,5.72-44.68-8.91-46.81-.34-.05-14.38-.41-14.72-.44C204.83,135.45,190.81,154.5,188.68,179.29Z"/><ellipse cx="231.38" cy="182.16" rx="45.07" ry="25.22" transform="translate(30.14 397.16) rotate(-85.1)"/><ellipse cx="70.24" cy="193.73" rx="51.61" ry="31.58" transform="translate(-128.78 247.18) rotate(-85.1)"/><path class="cls-12" d="M326.11,87s-12.14-26.73-18.52-27c-5.44-.25-102.3-.74-130.46-.87A11.65,11.65,0,0,0,166.43,66L156.08,89.26Z"/><path d="M277.81,86.15s-6.22-14.66-21.71-16.48-18.7-.54-18.7-.54l-107.28-.65A28.09,28.09,0,0,0,104.5,84.71l-1.66,3.56Z"/><path class="cls-4" d="M311.38,86.07,105.63,84.7s-76.56,20.51-89.55,47.85-8.2,22.56-8.2,22.56-6.38,42.38,8.66,48.76c55,18.2,183.61,12.82,229.67,11.39,66.3-2,253.82-25.06,253.82-25.06,23.7-29.17,19.16-67.83,19.16-67.83l-3.08-.25A71.75,71.75,0,0,0,506,113.26c-7.75-5.47-.91-9.57-.91-9.57s-12.82-10.48-23.76-13.21S311.38,86.07,311.38,86.07Z"/><path class="cls-13" d="M210.94,124.66s5.65,6.65,6.37,14.12c.33,3.53-3.16,4.37-6.94,4.27-2.5-.06-12.4-1.41-20.09-2.51a3,3,0,0,1-.85-5.58Z"/><path class="cls-13" d="M32.46,119.48s-6.61,5.7-8.47,13c-.87,3.42,2.45,4.79,6.2,5.28,2.48.33,12.47.52,20.23.62A3,3,0,0,0,52.13,133Z"/><path class="cls-4" d="M246.42,94.54l-1.18-16.37s-139.13-2-140.2-1.82c-1.28.24-2.65,2-2.49,8.54C102.86,96.89,246.42,94.54,246.42,94.54Z"/><path class="cls-4" d="M254.91,90.36l-8-11.54s-4.86-4.1-4.56,7.9S254.91,90.36,254.91,90.36Z"/><path class="cls-14" d="M440.76,187.06a89,89,0,0,0-.29,10.26l56.23-6.72c1.94-27-8.56-49.74-23.75-51C457.53,138.23,443.12,159.5,440.76,187.06Z"/><path class="cls-14" d="M272.69,198a92.09,92.09,0,0,0,0,15.93l69.52-6.09c.16-1.27.3-2.56.41-3.85,2.7-31.56-10.76-58.48-30.07-60.14S275.39,166.47,272.69,198Z"/><path class="cls-15" d="M280.31,213.29l52.88-4.63C314.33,210.49,296.21,212.1,280.31,213.29Z"/><path class="cls-15" d="M272.69,214v-.12c2.47-.17,5-.35,7.62-.55Z"/><path class="cls-15" d="M342.21,207.87l-9,.79,9-.88A.28.28,0,0,1,342.21,207.87Z"/><path d="M258.19,197.64c-2.43,28.4,9.68,52.63,27.06,54.12.62.05,19.13.65,19.75.64,16.65-.15,13.78-22,16.12-49.37,2.38-27.76,6.56-51.18-10.2-53.62-.38,0-16.47-.46-16.86-.5C276.68,147.43,260.62,169.24,258.19,197.64Z"/><path d="M426.1,186.59c-2.12,24.79,8.46,45.94,23.63,47.24.54,0,16.7.56,17.24.56,14.53-.13,12-19.19,14.08-43.1,2.07-24.24,5.72-44.68-8.91-46.81-.34,0-14.38-.41-14.72-.44C442.25,142.75,428.22,161.79,426.1,186.59Z"/><path class="cls-15" d="M13.35,139.16C5.91,167,230.48,167.74,270.82,146c52.4-28.26,67.44,21.79,108.45,20.27,29.18-1.08,65.85-39.19,109.37-33.26,10.68,1.45,22.28,13.08,26.26,28.52A82.57,82.57,0,0,1,500,190.2l-3.33.4c1.94-27-8.56-49.74-23.75-51-15.42-1.32-29.83,19.95-32.19,47.51a87.18,87.18,0,0,0-.29,10.16c-28.75,3.28-64.3,7.2-98.25,10.56.16-1.24.29-2.5.4-3.76,2.7-31.56-10.76-58.48-30.07-60.14S275.39,166.47,272.69,198a90.71,90.71,0,0,0,0,15.81c-10.06.7-19,1.19-26.48,1.42-46.06,1.43-174.68,6.81-229.67-11.39C1.5,197.49,3.17,152.53,13.35,139.16Z"/><ellipse cx="468.8" cy="189.45" rx="45.07" ry="25.22" transform="translate(240.03 640.38) rotate(-85.1)"/><ellipse class="cls-16" cx="468.8" cy="189.45" rx="32.9" ry="18.41" transform="matrix(0.09, -1, 1, 0.09, 240.03, 640.38)"/><ellipse cx="468.8" cy="189.45" rx="21.39" ry="11.97" transform="translate(240.03 640.38) rotate(-85.1)"/><ellipse cx="307.66" cy="201.02" rx="51.61" ry="31.58" transform="translate(81.11 490.4) rotate(-85.1)"/><ellipse class="cls-16" cx="307.66" cy="201.02" rx="37.68" ry="23.06" transform="translate(81.11 490.4) rotate(-85.1)"/><ellipse cx="307.66" cy="201.02" rx="24.49" ry="14.99" transform="matrix(0.09, -1, 1, 0.09, 81.11, 490.4)"/><path class="cls-16" d="M240.78,209.79a7.15,7.15,0,0,1-7.25,7Q123,220,9,213.43a2.77,2.77,0,0,1-2.69-2.85l.53-19.8c71.14,4.81,150.1,5.53,234.35,3.5Z"/><g class="cls-17"><polygon class="cls-18" points="287.2 173.02 294.34 168.89 308.17 192.85 322 168.89 329.14 173.02 312.93 201.09 329.14 229.16 322 233.28 308.17 209.33 294.34 233.28 287.2 229.16 303.41 201.09 287.2 173.02"/></g><g class="cls-19"><polygon class="cls-18" points="448.71 162.61 455.55 158.66 468.8 181.62 482.05 158.66 488.89 162.61 473.36 189.51 488.89 216.41 482.05 220.36 468.8 197.41 455.55 220.36 448.71 216.41 464.24 189.51 448.71 162.61"/></g><path class="cls-14" d="M332.11,89c2.95,6.2,5.82,12.44,8.47,18.79.65,1.6,1.3,3.19,1.85,4.83a25.65,25.65,0,0,1,1,5.12c.47,3.41.85,6.82,1.27,10.23,1.58,13.64,3.16,27.29,4.58,40.95l1.07,10.24.14,1.27a3.92,3.92,0,0,0,.26,1,4.18,4.18,0,0,0,1.22,1.71,4.32,4.32,0,0,0,1.89.91,4.1,4.1,0,0,0,1.05.07l1.25-.1,20.53-1.71c13.69-1.15,27.38-2.16,41.07-3.24l-.31.08a5,5,0,0,0,1-.73,7.29,7.29,0,0,0,.9-1,11.32,11.32,0,0,0,1.41-2.38,19.59,19.59,0,0,0,1.51-5.49c.56-3.83.17-7.76-.09-11.75L420.58,134c-.52-7.94-1.05-15.89-1.52-23.84l-.36-6a16.22,16.22,0,0,0-1.5-5.66A28.68,28.68,0,0,0,415.75,96l-1.53-2.57-3.05-5.14,3.24,5L416,95.81a29.59,29.59,0,0,1,1.54,2.57,16.68,16.68,0,0,1,1.7,5.79l.53,6c.72,7.93,1.37,15.87,2,23.8l2,23.82a54.7,54.7,0,0,1,.18,12.08,21.82,21.82,0,0,1-1.62,6,13.84,13.84,0,0,1-1.61,2.75,9.61,9.61,0,0,1-1.09,1.22,6.49,6.49,0,0,1-1.41,1.06l-.13.07h-.19c-13.69,1.13-27.37,2.33-41.06,3.39l-20.54,1.6c-.44,0-.82.08-1.31.1a5.93,5.93,0,0,1-1.51-.12,6,6,0,0,1-4.78-5.22l-.14-1.3-1-10.25-4-41-1.06-10.24a24.79,24.79,0,0,0-.85-5c-.49-1.62-1.1-3.23-1.7-4.83C337.51,101.66,334.81,95.35,332.11,89Z"/><path class="cls-15" d="M345.58,105.7l14.39-.45a1.34,1.34,0,0,0,1.3-1.35v-3a1.34,1.34,0,0,0-1.39-1.35l-14.39.45a1.33,1.33,0,0,0-1.3,1.34v3A1.35,1.35,0,0,0,345.58,105.7Z"/><polygon class="cls-5" points="130.94 171.21 75.34 169.69 75.34 155.41 130.94 156.93 130.94 171.21"/><circle class="cls-5" cx="47.09" cy="146.3" r="5.01"/><circle class="cls-5" cx="192.61" cy="148.27" r="5.01"/><path class="cls-14" d="M107.85,90.1a193.13,193.13,0,0,0-18.67,13.51,69.6,69.6,0,0,0-8.28,7.9,20.82,20.82,0,0,0-3.11,4.62,7.3,7.3,0,0,0-.68,2.5,3.39,3.39,0,0,0,.67,2.23,5.46,5.46,0,0,0,2,1.53c.82.38,1.7.76,2.58,1.09a56,56,0,0,0,5.41,1.76A102.55,102.55,0,0,0,99,127.58a184.1,184.1,0,0,0,22.87,2,193.23,193.23,0,0,0,23-.53,106.07,106.07,0,0,0,11.33-1.54,53.84,53.84,0,0,0,10.74-3.67,103.6,103.6,0,0,0,19.47-12A170,170,0,0,0,203.7,96.63c-2.56,2.88-5.28,5.62-8.08,8.26s-5.7,5.21-8.7,7.65a104,104,0,0,1-19.42,12.68,50,50,0,0,1-11,4A106,106,0,0,1,145,130.84a193.08,193.08,0,0,1-23.19.73,184.59,184.59,0,0,1-23.1-2.19,104,104,0,0,1-11.38-2.48A53.16,53.16,0,0,1,81.73,125c-.92-.37-1.8-.77-2.71-1.22a6.86,6.86,0,0,1-2.48-2.06,4.89,4.89,0,0,1-.89-3.21,8.34,8.34,0,0,1,.87-3A21.71,21.71,0,0,1,80,110.68a69.24,69.24,0,0,1,8.61-7.83c3.06-2.36,6.22-4.58,9.44-6.7S104.5,92,107.85,90.1Z"/><path class="cls-4" d="M431.66,70.86h23a0,0,0,0,1,0,0V82.49a4.2,4.2,0,0,1-4.2,4.2H431.66A2.68,2.68,0,0,1,429,84V73.55a2.68,2.68,0,0,1,2.68-2.68Z" transform="translate(883.59 157.56) rotate(180)"/></svg>