<svg id="Слой_1" data-name="Слой 1" xmlns="http://www.w3.org/2000/svg" xmlns:xlink="http://www.w3.org/1999/xlink" viewBox="0 0 384.15 252.45"><defs><style>.cls-1{fill:none;}.cls-2{fill:#fff;}.cls-3{fill:#024168;}.cls-4{fill:#606060;}.cls-5{clip-path:url(#clip-path);}.cls-6{fill:#a8a9ad;}.cls-7{fill:#3b3b3b;}.cls-8,.cls-9{fill:#0c96fd;}.cls-9{opacity:0.21;}.cls-10{fill:#f69576;}.cls-11{fill:#dd866f;}.cls-12{fill:#a5713d;}.cls-13{fill:#6b3425;}.cls-14{fill:#424b6a;}.cls-15{fill:#7d009b;}.cls-16{fill:#1d7dcc;}.cls-17{clip-path:url(#clip-path-2);}.cls-18{fill:#fcfcfc;}.cls-19{opacity:0.15;}</style><clipPath id="clip-path"><ellipse class="cls-1" cx="276.52" cy="195.67" rx="37.6" ry="10.64" transform="translate(73.52 466.86) rotate(-88.47)"/></clipPath><clipPath id="clip-path-2"><ellipse class="cls-1" cx="357.03" cy="181.42" rx="32.83" ry="8.5" transform="translate(165.34 533.05) rotate(-88.34)"/></clipPath></defs><title>car</title><path class="cls-2" d="M375.36,111.28a5.14,5.14,0,0,1,5.75,3c2.62,5.81-.6,22.85-.6,22.85l-6.81-13.51Z"/><path class="cls-3" d="M344.12,179c-.14,3.5-.18,6.93-.14,10.26l25.89-6.72c.9-27-3.94-49.74-10.93-51S345.2,151.47,344.12,179Z"/><path class="cls-3" d="M260.42,192.68c-.22,5.49-.21,10.83,0,15.93l32-6.08c.07-1.28.14-2.56.19-3.86,1.24-31.56-5-58.48-13.85-60.13S261.66,161.12,260.42,192.68Z"/><path d="M236.17,192.3c-1.12,28.4,4.46,52.63,12.46,54.11.28.06,26.38.65,26.66.64,7.67-.15,6.35-22,7.43-49.36,1.09-27.77,3-51.18-4.7-53.62-.18-.06-25.16-.47-25.34-.5C244.68,142.08,237.29,163.89,236.17,192.3Z"/><ellipse cx="276.52" cy="195.67" rx="51.51" ry="14.57" transform="translate(73.52 466.86) rotate(-88.47)"/><ellipse class="cls-4" cx="276.52" cy="195.67" rx="37.6" ry="10.64" transform="translate(73.52 466.86) rotate(-88.47)"/><ellipse cx="276.52" cy="195.67" rx="24.44" ry="6.91" transform="translate(73.52 466.86) rotate(-88.47)"/><g class="cls-5"><polygon class="cls-6" points="267.1 167.67 270.39 163.55 276.75 187.5 283.12 163.55 286.41 167.67 278.95 195.74 286.41 223.82 283.12 227.94 276.75 203.99 270.39 227.94 267.1 223.82 274.56 195.74 267.1 167.67"/></g><polygon class="cls-7" points="173.72 82.09 163.43 36.6 297.21 36.9 331.55 80.04 329.87 84.6 173.92 86.42 173.72 82.09"/><path class="cls-8" d="M158.8,39.14l11.77,48.19,6.87.34-14-51.07-4,.23C158.89,36.86,158.55,38.11,158.8,39.14Z"/><path class="cls-9" d="M251.66,86.24q.9-5.55,1.81-11.09c.67-4,1.33-8.05,2-12.07s1.34-7.77,1.94-11.7c.74-4.89,1.42-9.85,2.27-14.66l-8.2,0c-1.3,6.43-71.73,13-72.85,19.61-1.32,7.86-2.74,15.65-4.1,23.48-.25,1.41-.49,2.83-.73,4.24l.11,2.4Z"/><path d="M323.18,178.56c-1,24.79,3.89,45.94,10.87,47.24.25,0,21.84.56,22.09.56,6.69-.13-1.94-19.19-1-43.1,1-24.24,10.1-44.68,3.36-46.81-.15,0-14.09-.41-14.24-.44C337.28,134.71,324.15,153.76,323.18,178.56Z"/><path class="cls-9" d="M297,58.11c.69-6.24,1.38-12.49,2.27-18.61l-2.07-2.6H295.3q-1.38,8.49-2.7,17-2.07,13.31-4,26.69c-.24,1.63-.47,3.26-.7,4.89l5.88-.12C294.87,76.28,296,67.23,297,58.11Z"/><path class="cls-9" d="M263.06,64.61c.66-5.94,1.36-11.86,2-17.78.39-3.38.79-6.76,1.28-10.07H264.7q-1.18,7.68-2.29,15.4Q260,69,257.85,86.11l2.9-.06Q261.88,75.33,263.06,64.61Z"/><path class="cls-8" d="M297.21,36.9l35.11,48.91,8.95-1.21-38-46.87a2.43,2.43,0,0,0-2-1.07Z"/><polygon class="cls-10" points="169.61 47.51 187.76 49.26 186.25 27.9 173.39 27.2 169.61 47.51"/><path class="cls-11" d="M187.15,40.66a12.91,12.91,0,0,1-8.47,2.06A15.43,15.43,0,0,1,171,39.93l2.36-12.73,12.86.7Z"/><path class="cls-12" d="M186.43,5.79c2.57,1.11,7.09,3.71,7.66,7.39s-.57,14.63-3.73,17.37-19.26-1.42-20-1.77c-4.6-2-2.88-15.87-.58-18.62S180.39,3.21,186.43,5.79Z"/><path class="cls-11" d="M195.12,18.86c-.61-3.84-5-.55-4.2,6.48C191.74,32.57,196,24.56,195.12,18.86Z"/><path class="cls-13" d="M191.74,26.25s0,0,0,0a.28.28,0,0,0,0-.22,10.56,10.56,0,0,1,0-3.65c.16-1.08.58-3,1.53-3.22.51-.13.87.1,1.07.7a6.92,6.92,0,0,1,.16,2.31.33.33,0,0,0,0,.23s.07,0,.09-.11a7.56,7.56,0,0,0-.19-2.61c-.23-.71-.64-.94-1.18-.82-.76.19-1.35,1.45-1.64,3.45a11.09,11.09,0,0,0,0,4Z"/><path class="cls-13" d="M193.32,25.71s0,0,.05-.1a19.92,19.92,0,0,0-.21-6.67c0-.08-.06-.12-.09-.08a.38.38,0,0,0,0,.22,19.42,19.42,0,0,1,.22,6.37.3.3,0,0,0,0,.22S193.32,25.71,193.32,25.71Z"/><path class="cls-13" d="M168.43,24.54a.3.3,0,0,0,0-.2,17.76,17.76,0,0,1,.22-6.08.34.34,0,0,0,0-.21s-.07,0-.09.06a18.31,18.31,0,0,0-.22,6.36c0,.07,0,.11.06.11S168.42,24.58,168.43,24.54Z"/><path class="cls-10" d="M179.72,6.27c6.28-2.21,13.22,2.49,13.22,14.81,0,6-1,7.22-2.7,12.26-.84,2.46-7.48,7.12-10.34,7.81l-.36,0c-2.86-1.16-7.3-6.38-8.14-8.88-1.71-5.06-2.71-6.31-2.71-12.08C168.69,8.38,173.43,4,179.72,6.27Z"/><path class="cls-2" d="M182.86,30.63s-.37,2.86-1.72,3.38a2.78,2.78,0,0,1-3.37-1,9.6,9.6,0,0,1-.94-2.8Z"/><path class="cls-13" d="M179.76,29.26c-.46-.13-.43-.67-.43-1v-.07l-.06.06a.42.42,0,0,1-.69,0,.85.85,0,0,1-.14-.61,2.72,2.72,0,0,1,.57-1.55.12.12,0,0,1,.17.05c0,.07,0,.18,0,.21a2.61,2.61,0,0,0-.46,1.3.46.46,0,0,0,.06.36c.12.11.17.08.35,0s.14-.17.26-.17a.32.32,0,0,1,.14.08.73.73,0,0,1,.06.4c0,.36,0,.54.2.58s.14,0,.17,0a.78.78,0,0,0,.09-.46.83.83,0,0,1,0-.29.21.21,0,0,1,.17-.13c.11,0,.26.12.46.38,0,0,.09.12.14.08s.18-.13.23-.42a3.33,3.33,0,0,0-.34-1.45.18.18,0,0,1,.06-.21.14.14,0,0,1,.17.08,4.64,4.64,0,0,1,.37,1.71.77.77,0,0,1-.43.65.43.43,0,0,1-.43-.2,1.05,1.05,0,0,0-.2-.23v.11a.94.94,0,0,1-.18.67.26.26,0,0,1-.25.09Zm.46-.87Z"/><path class="cls-13" d="M185.19,22.81c-.27,0-.49.53-.49,1.21s.22,1.24.49,1.25.49-.52.49-1.2S185.46,22.82,185.19,22.81Z"/><path class="cls-13" d="M186.89,20.89a3.79,3.79,0,0,0-1.95-1.09,2.87,2.87,0,0,0-1.73.44c-.34.09-.4-.52-.2-1s.92-.87,2.13-.79a2.78,2.78,0,0,1,2.19,1.28C187.67,20.16,187.41,21.46,186.89,20.89Z"/><path class="cls-13" d="M175.47,22.45c-.27,0-.48.52-.48,1.18s.21,1.22.48,1.23.49-.52.49-1.18S175.74,22.46,175.47,22.45Z"/><path class="cls-13" d="M177.42,19.86a3.39,3.39,0,0,0-2.09-.47,3.29,3.29,0,0,0-1.58.93c-.31.19-.48-.38-.39-.92s.73-1.1,1.9-1.38a2.53,2.53,0,0,1,2.35.58C178,19,178,20.25,177.42,19.86Z"/><path class="cls-13" d="M176.16,34.31a29.42,29.42,0,0,0,1.47,3.63,5,5,0,0,0,2,.49,4.48,4.48,0,0,0,2-.18,24.24,24.24,0,0,0,1.47-3.46l.75.27s-1.15,4.57-1.32,4.95a8.69,8.69,0,0,1-2.79,1.85v.08l-.15,0h-.14v-.07a10.85,10.85,0,0,1-2.79-2.3c-.17-.4-1.32-5.07-1.32-5.07Z"/><polygon class="cls-13" points="178.95 37.5 180.1 37.59 180.1 34.73 178.95 34.65 178.95 37.5"/><path class="cls-10" d="M168.6,46.91c0,2.69,4.57,5.35,10.21,5.94s10.21-1.19,10.21-4-4.57-5.46-10.21-6S168.6,44.22,168.6,46.91Z"/><path d="M198.22,49c-5.42.42-6,5-6.61,8S191,76.64,191,76.64l17.25,5.41S207.71,67,206,58.24C204.56,51.1,200.52,48.83,198.22,49Z"/><path class="cls-10" d="M159.63,57.2c.37-.79,1.74.45,1.94,1.14s-.4,7.88-.4,7.88a8.09,8.09,0,0,1,1.94,4.56c0,2.43-2.65,3.88-2.81,4.14s.32,2.56-2.22,3.43-4.55-.37-4.75-2,4.2-12.66,4.91-14.79S159.31,57.88,159.63,57.2Z"/><path class="cls-10" d="M201.83,66.81a36,36,0,0,0-5.9,6.73c-.56,1.14-.2,3.18,1.11,2.91s5.94-5.11,6.77-6.39S203.34,65.87,201.83,66.81Z"/><path class="cls-10" d="M204.75,69.73a33.52,33.52,0,0,0-6.34,6.06c-.63,1.07-.4,3.13.93,3s6.29-4.44,7.2-5.63S206.32,69,204.75,69.73Z"/><path class="cls-10" d="M154.7,59.22a48.8,48.8,0,0,1,5.9,7.7c.55,1.22.2,3-1.11,2.41s-5.94-6.28-6.78-7.65S153.19,58,154.7,59.22Z"/><path d="M204.38,51.22c-1.8-8.71-18-6.29-26.91-6.22s-20.82-1.67-25.22,2,3.4,44.41,3.4,44.41l42.65,5.53S207.17,64.78,204.38,51.22Z"/><polygon class="cls-10" points="169.61 47.51 187.76 49.26 186.25 27.9 173.39 27.2 169.61 47.51"/><path class="cls-11" d="M187.15,40.66a12.91,12.91,0,0,1-8.47,2.06A15.43,15.43,0,0,1,171,39.93l2.36-12.73,12.86.7Z"/><path class="cls-12" d="M186.43,5.79c2.57,1.11,7.09,3.71,7.66,7.39s-.57,14.63-3.73,17.37-19.26-1.42-20-1.77c-4.6-2-2.88-15.87-.58-18.62S180.39,3.21,186.43,5.79Z"/><path class="cls-11" d="M195.12,18.86c-.61-3.84-5-.55-4.2,6.48C191.74,32.57,196,24.56,195.12,18.86Z"/><path class="cls-10" d="M168.6,46c0,2.07,4.57,4.12,10.21,4.58S189,49.63,189,47.47s-4.57-4.2-10.21-4.57S168.6,43.9,168.6,46Z"/><path class="cls-12" d="M192.94,11s3.14,15.83-5.52,23.27c-2.87,2.47-12.3,1.64-16.63-.76C164.48,30,166,15,164.86,14.11c-5.2-4.08.2-10.41,1.92-10.4-.57,1,2.5,2.16,3.65,1.82S186-9.76,192.94,11Z"/><path d="M198.12,45.6c-5.42.42-6,4.95-6.62,8s-.57,19.59-.57,19.59l17.25,5.41s-.57-15.1-2.3-23.81C204.46,47.69,200.42,45.42,198.12,45.6Z"/><path class="cls-14" d="M259.8,81.64s-5.59-26.74-8.52-27c-2.51-.26-116.41-.74-129.37-.88-2.13,0-4.06,2.7-4.93,6.92l-4.76,23.27Z"/><path d="M237.56,80.8s-2.86-14.66-10-16.48-77.91-.53-77.91-.53l-49.4-.65c-5.05-.07-9.66,6.27-11.79,16.22l-.77,3.57Z"/><path class="cls-8" d="M384,125.31s-.66-.19-1.95-.47a14.78,14.78,0,0,1-2.93-3.54c-3.57-5.46,0-9.34,0-9.34s-5.37-10.5-38.41-29.19c-5-2.73-62.48-2-62.48-2l-164-1.36S79,99.86,73,127.21s-3.78,22.55-3.78,22.55-2.94,42.38,4,48.76c25.31,18.2,84.54,12.82,105.74,11.39,11.77-.79,42.11-4.69,75-9.19a158.5,158.5,0,0,1,3.55-30,118,118,0,0,1,5.11-16c1.55-4,3-8.24,5.64-11.74s6.78-6.46,11.35-5.2c5.21,1.43,7.87,6.25,9.64,10.93,2.16,5.7,3.56,11.6,5.2,17.45,1.71,6.08,3.63,12.16,4.48,18.43.44,3.23.79,6.48,1.1,9.73,12.47-1.78,30.87-6.29,41.33-7.92a126.33,126.33,0,0,1,3.23-31.84c1.1-4.45,2.3-8.92,3.73-13.28,1-3.15,2.52-6.46,5.05-8.69,2.21-2,5.38-2.94,8.19-1.71,2.47,1.08,4,3.52,5,5.91a38.06,38.06,0,0,1,2.22,8.73c.81,4.94,1.51,9.89,1.84,14.89a123,123,0,0,0,2,14.54c.39,2.06-.7,4.92-.43,7l1.07-.18C386.28,154.24,384,125.31,384,125.31Z"/><path class="cls-15" d="M162.69,119.32a49.78,49.78,0,0,1,2.93,14.12c.16,3.52-1.45,4.36-3.19,4.26a77.82,77.82,0,0,1-9.25-2.51c-1.33-.41-1.61-4.31-.39-5.57Z"/><path class="cls-15" d="M80.52,114.13a40.51,40.51,0,0,0-3.9,13c-.41,3.43,1.12,4.8,2.85,5.28a71.57,71.57,0,0,0,9.32.62c1.34,0,1.89-3.72.78-5.38Z"/><path class="cls-8" d="M179,89.19l-.55-16.37s-64.06-2-64.55-1.82-1.22,2-1.14,8.55C112.93,91.55,179,89.19,179,89.19Z"/><path class="cls-8" d="M252.23,85l-73-11.55s-2.24-4.1-2.1,7.9S252.23,85,252.23,85Z"/><path class="cls-16" d="M263.93,207.94l24.34-4.62C279.59,205.14,271.25,206.75,263.93,207.94Z"/><path class="cls-16" d="M260.42,208.61v-.12c1.14-.17,2.31-.35,3.51-.55Z"/><path class="cls-16" d="M292.43,202.53l-4.16.79,4.16-.89Z"/><path class="cls-16" d="M71.72,133.81c-3.43,27.8,169.27,28.59,187.84,6.84,24.13-28.25,31.05,21.8,49.93,20.28,13.44-1.08,36.64-41.88,56.67-35.95,4.92,1.45,12.06,18.15,13.89,33.59-1.3,9.48-2.14,13.56-6.83,23.17l-3.35.83c.9-27-3.94-49.74-10.93-51S345.2,151.47,344.12,179c-.14,3.46-.18,6.86-.14,10.15-13.23,3.29-35.91,9.89-51.55,13.25.08-1.24.14-2.49.19-3.76,1.24-31.56-5-58.48-13.85-60.13s-17.11,22.58-18.35,54.14c-.21,5.44-.21,10.75,0,15.81-4.63.7-78.06,1.19-81.49,1.42-21.2,1.43-80.43,6.81-105.74-11.39C66.26,192.14,67,147.18,71.72,133.81Z"/><ellipse cx="357.03" cy="181.42" rx="44.98" ry="11.64" transform="translate(165.34 533.05) rotate(-88.34)"/><ellipse class="cls-4" cx="357.03" cy="181.42" rx="32.83" ry="8.5" transform="translate(165.34 533.05) rotate(-88.34)"/><ellipse cx="357.03" cy="181.42" rx="21.34" ry="5.52" transform="translate(165.34 533.05) rotate(-88.34)"/><path class="cls-4" d="M176.43,204.44c-.05,3.91-1.54,7-3.34,7a555.41,555.41,0,0,1-103.37-3.32c-.7,0-1.26-1.32-1.24-2.85l.25-19.79c32.75,4.8,69.11,5.52,107.89,3.49Z"/><g class="cls-17"><polygon class="cls-6" points="347.78 154.58 350.93 150.63 357.03 173.59 363.13 150.63 366.28 154.58 359.13 181.48 366.28 208.38 363.13 212.33 357.03 189.38 350.93 212.33 347.78 208.38 354.93 181.48 347.78 154.58"/></g><path class="cls-3" d="M287.78,83.69q1.8,7.73,3.43,15.51c.53,2.6,1.07,5.19,1.52,7.81.11.65.21,1.32.3,2l.13,2,.23,4,1.88,31.71.84,15.88.42,7.93.21,4a13,13,0,0,0,.17,1.85,6.29,6.29,0,0,0,.51,1.64c.21.48.6.86.73.86h.1l.48-.09,1-.18,3.91-.69,7.82-1.4,15.65-2.69-.51.28s.06-.09.1-.15.1-.17.15-.25.19-.38.28-.58c.17-.4.32-.82.46-1.26a21.25,21.25,0,0,0,.64-2.7,45.67,45.67,0,0,0,.61-5.64c.21-3.79,0-7.63-.09-11.5-.26-7.71-.41-15.43-.61-23.15s-.4-15.43-.53-23.15l-.1-5.78a35.35,35.35,0,0,0-.48-5.73c-.31-1.88-.9-3.73-1.37-5.6l-1.46-5.6,1.71,5.53c.55,1.85,1.19,3.67,1.57,5.59a35.2,35.2,0,0,1,.68,5.78l.29,5.79c.4,7.71.7,15.42,1.06,23.13s.71,15.43,1,23.14c.13,3.85.35,7.73.16,11.64a48.45,48.45,0,0,1-.6,5.87,23.42,23.42,0,0,1-.68,2.93,13.38,13.38,0,0,1-.52,1.46,7,7,0,0,1-.35.73,3.72,3.72,0,0,1-.22.38,3.82,3.82,0,0,1-.32.43l-.2.22-.32,0-15.64,2.8L304,179.75l-3.92.67-1,.17-.49.09a2.45,2.45,0,0,1-.89,0,2.53,2.53,0,0,1-1.3-.84,4.64,4.64,0,0,1-.68-1,10.46,10.46,0,0,1-.85-4.24l-.18-4-.36-7.93-.74-15.85L292.33,115l-.16-4-.06-2c-.06-.65-.13-1.3-.23-2-.36-2.61-.81-5.22-1.26-7.83Z"/><path class="cls-16" d="M294,100.35l6.62-.45c.34,0,.61-.62.61-1.34v-3c0-.76-.29-1.37-.64-1.35l-6.63.45c-.34,0-.6.62-.6,1.35v3C293.34,99.76,293.63,100.38,294,100.35Z"/><polygon class="cls-18" points="125.86 165.86 100.26 164.34 100.26 150.07 125.86 151.59 125.86 165.86"/><ellipse class="cls-18" cx="87.25" cy="140.95" rx="2.31" ry="5.01"/><ellipse class="cls-18" cx="154.25" cy="142.93" rx="2.31" ry="5.01"/><path class="cls-3" d="M115.23,84.75c-2.68,3.92-5.25,7.9-7.52,12-1.15,2.06-2.23,4.15-3.2,6.29a38.57,38.57,0,0,0-2.38,6.54c-.53,2.19-.85,4.57,0,6.43a3.92,3.92,0,0,0,.81,1.19,14.74,14.74,0,0,0,1.24,1.12,19.94,19.94,0,0,0,2.81,1.88,35.07,35.07,0,0,0,13.18,3.85,40.3,40.3,0,0,0,13.77-.81,21.06,21.06,0,0,0,3.23-1,13.6,13.6,0,0,0,2.81-1.79,32.4,32.4,0,0,0,4.85-4.94,95.36,95.36,0,0,0,7.91-11.68c2.4-4.07,4.59-8.28,6.67-12.54a135,135,0,0,1-5.89,13,83.67,83.67,0,0,1-7.53,12.17,34.52,34.52,0,0,1-4.94,5.33,15.34,15.34,0,0,1-3.14,2.06,21.18,21.18,0,0,1-3.5,1.23,40.26,40.26,0,0,1-14.45,1A36,36,0,0,1,106,121.91a19.89,19.89,0,0,1-3.06-2.12c-.47-.4-.93-.83-1.37-1.28a6,6,0,0,1-1.13-1.76,8.8,8.8,0,0,1-.54-3.89,17.57,17.57,0,0,1,.68-3.65,54,54,0,0,1,6.26-12.94A114.5,114.5,0,0,1,115.23,84.75Z"/><path class="cls-19" d="M383.7,232.83c0,10.84-100.45,19.62-197.86,19.62S9.45,243.67,9.45,232.83c0-5.65-5.61-68.64,28.79-72.22,31.53-3.28,101-3.44,147.6-3.44,48.7,0,114.28,2.19,146.19,5.74S383.7,227.41,383.7,232.83Z"/><path class="cls-8" d="M336.42,65.52h23a0,0,0,0,1,0,0V77.15a4.2,4.2,0,0,1-4.2,4.2H336.42a2.68,2.68,0,0,1-2.68-2.68V68.2a2.68,2.68,0,0,1,2.68-2.68Z" transform="translate(693.11 146.87) rotate(180)"/><path d="M13.56,185c-2.16,28.41,8.58,52.63,24,54.12.55.06,17,.65,17.51.64,14.76-.15,12.22-22,14.3-49.37,2.11-27.76,5.81-51.17-9-53.62-.34-.05-14.6-.46-15-.49C30,134.79,15.71,156.6,13.56,185Z"/><path d="M162.44,174c-1.88,24.79,7.49,45.94,20.95,47.24.48.05,14.8.57,15.28.56,12.89-.13,10.67-19.19,12.49-43.1,1.84-24.24,5.07-44.68-7.9-46.81-.3-.05-12.75-.4-13-.43C176.75,130.11,164.32,149.15,162.44,174Z"/><ellipse cx="200.3" cy="176.82" rx="45.04" ry="22.38" transform="translate(10.08 364.43) rotate(-86.04)"/><ellipse cx="57.42" cy="188.38" rx="51.58" ry="28.02" transform="translate(-134.4 233.02) rotate(-86.15)"/><path class="cls-8" d="M229.1,160.49c2.14-13,9.15-23.94,15.77-34.46a184.25,184.25,0,0,0,9.66-16.66,70.63,70.63,0,0,0,6.14-19.25c.55-3.14,1-6.3,1.25-9.47L88.8,79.36S20.92,99.86,9.4,127.21s-7.27,22.55-7.27,22.55-5.66,42.38,7.68,48.76c48.75,18.2,162.8,12.82,203.64,11.39,4.59-.16,9.85-.45,15.63-.84C228.54,192.93,226.44,176.52,229.1,160.49Z"/><path class="cls-15" d="M182.18,119.32s5,6.65,5.64,14.12c.3,3.52-2.8,4.36-6.15,4.26-2.22-.06-11-1.41-17.81-2.51-2.56-.41-3.1-4.31-.76-5.57Z"/><path class="cls-15" d="M23.92,114.13s-5.86,5.7-7.51,13c-.77,3.43,2.17,4.8,5.5,5.28,2.2.33,11.06.52,17.94.62,2.58,0,3.64-3.72,1.51-5.38Z"/><path class="cls-8" d="M213.63,89.19l-1-16.37S89.22,70.8,88.28,71c-1.14.24-2.36,2-2.21,8.55C86.34,91.55,213.63,89.19,213.63,89.19Z"/><path class="cls-8" d="M221.16,85,214,73.47s-4.31-4.1-4,7.9S221.16,85,221.16,85Z"/><path class="cls-16" d="M236.93,208.61a.49.49,0,0,1,0-.12q3.3-.26,6.76-.55Z"/><path class="cls-16" d="M229.1,160.49c1.22-7.43,26.68-12.36,30.12-18.78l-1.33.78C222.12,164.24.38,161.61,7,133.81c-9,13.37-10.51,58.33,2.83,64.71,48.75,18.2,162.8,12.82,203.64,11.39,4.59-.16,9.85-.45,15.63-.84C228.54,192.93,226.44,176.52,229.1,160.49Z"/><path class="cls-4" d="M208.63,204.44c-.09,3.91-3,7-6.43,7q-98,3.27-199.07-3.32a2.65,2.65,0,0,1-2.39-2.85l.48-19.79c63.07,4.8,133.09,5.52,207.78,3.49Z"/><polygon class="cls-18" points="111.24 165.86 61.94 164.34 61.94 150.07 111.24 151.59 111.24 165.86"/><ellipse class="cls-18" cx="36.89" cy="140.95" rx="4.44" ry="5.01"/><ellipse class="cls-18" cx="165.92" cy="142.93" rx="4.44" ry="5.01"/><path class="cls-3" d="M90.76,84.75A174.28,174.28,0,0,0,74.45,98.09a66.74,66.74,0,0,0-7.16,7.61A24.85,24.85,0,0,0,64.53,110a6.73,6.73,0,0,0-.76,4.58A3.77,3.77,0,0,0,65,116.38a9.44,9.44,0,0,0,2.08,1.23,42.34,42.34,0,0,0,4.79,1.92A77.58,77.58,0,0,0,82,122.06a141.29,141.29,0,0,0,20.85,2.15,149.65,149.65,0,0,0,21-.55c1.73-.18,3.47-.39,5.19-.66s3.44-.57,5.09-1a48.07,48.07,0,0,0,9.6-3.86,94.22,94.22,0,0,0,17.07-12.11,159.92,159.92,0,0,0,15-14.78,141.41,141.41,0,0,1-14.38,15.5,94.15,94.15,0,0,1-17,12.72,44.47,44.47,0,0,1-9.88,4.19c-1.76.45-3.5.79-5.26,1.06s-3.51.51-5.27.72a152.11,152.11,0,0,1-21.23.74,142.81,142.81,0,0,1-21.11-2.36,77.61,77.61,0,0,1-10.33-2.68,42.13,42.13,0,0,1-5-2.06,10.61,10.61,0,0,1-2.41-1.52A5.33,5.33,0,0,1,62.29,115a8.08,8.08,0,0,1,1-5.6,24.89,24.89,0,0,1,3-4.49,66,66,0,0,1,7.49-7.56c2.67-2.32,5.45-4.5,8.28-6.6S87.79,86.64,90.76,84.75Z"/></svg>