<svg id="Слой_1" data-name="Слой 1" xmlns="http://www.w3.org/2000/svg" xmlns:xlink="http://www.w3.org/1999/xlink" viewBox="0 0 292.57 262.81"><defs><style>.cls-1{fill:none;}.cls-2{opacity:0.15;}.cls-3{fill:#232323;}.cls-4{clip-path:url(#clip-path);}.cls-5{clip-path:url(#clip-path-2);}.cls-6,.cls-9{fill:#0c96fd;}.cls-7{fill:#606060;}.cls-8{fill:#3b3b3b;}.cls-9{opacity:0.21;}.cls-10{fill:#1d7dcc;}.cls-11{fill:#fff;}.cls-12{fill:#7d009b;}.cls-13{fill:#fcfcfc;}.cls-14{fill:#f69576;}.cls-15{fill:#dd866f;}.cls-16{fill:#a5713d;}.cls-17{fill:#424b6a;}.cls-18{fill:#024168;}</style><clipPath id="clip-path"><rect class="cls-1" x="4.86" y="171.76" width="102.71" height="35.27" rx="5.98" transform="translate(244.72 130.26) rotate(89.11)"/></clipPath><clipPath id="clip-path-2"><rect class="cls-1" x="193.09" y="171.76" width="102.71" height="35.27" rx="5.98" transform="translate(430.04 -57.94) rotate(89.11)"/></clipPath></defs><title>car</title><path class="cls-2" d="M292.57,243.19c0,10.83-65.49,19.62-146.28,19.62S0,254,0,243.19c0-5.65,17.83-66.79,46.35-70.37,26.15-3.29,61.3-5.3,99.94-5.3,40.39,0,77,2.2,103.44,5.75S292.57,237.77,292.57,243.19Z"/><rect class="cls-3" x="4.86" y="171.76" width="102.71" height="35.27" rx="5.98" transform="translate(244.72 130.26) rotate(89.11)"/><g class="cls-4"><polygon points="62.6 148.25 66.83 140.46 74.9 139.93 74.75 129.88 68.38 129.98 62.47 139.65 62.6 148.25"/><polygon points="51.61 144.22 55.93 150.84 60.05 144.4 59.91 135.34 55.78 141.26 51.46 134.75 51.61 144.22"/><polygon points="48.79 139.86 42.59 130.38 36.22 130.47 36.37 140.52 44.46 140.81 48.93 148.46 48.79 139.86"/><polygon points="62.81 161.92 67.04 154.14 75.11 153.6 74.96 143.55 68.59 143.65 62.68 153.32 62.81 161.92"/><polygon points="56.14 164.51 60.26 158.07 60.12 149.01 55.99 154.93 51.67 148.42 51.82 157.89 56.14 164.51"/><polygon points="49 153.53 42.8 144.05 36.43 144.15 36.58 154.19 44.67 154.48 49.14 162.13 49 153.53"/><polygon points="63.04 176.83 67.27 169.05 75.34 168.51 75.19 158.47 68.82 158.56 62.91 168.24 63.04 176.83"/><polygon points="56.37 179.42 60.49 172.99 60.35 163.93 56.22 169.84 51.9 163.33 52.05 172.81 56.37 179.42"/><polygon points="49.23 168.45 43.03 158.96 36.66 159.06 36.81 169.11 44.9 169.4 49.37 177.04 49.23 168.45"/><polygon points="63.25 190.51 67.48 182.72 75.55 182.18 75.4 172.14 69.03 172.24 63.12 181.91 63.25 190.51"/><polygon points="56.58 193.09 60.7 186.66 60.56 177.6 56.44 183.51 52.11 177 52.26 186.48 56.58 193.09"/><polygon points="49.45 182.12 43.24 172.63 36.87 172.73 37.02 182.78 45.11 183.07 49.58 190.72 49.45 182.12"/><polygon points="63.46 204.18 67.69 196.39 75.77 195.85 75.61 185.81 69.24 185.91 63.33 195.58 63.46 204.18"/><polygon points="56.79 206.77 60.92 200.33 60.78 191.27 56.65 197.19 52.32 190.68 52.47 200.15 56.79 206.77"/><polygon points="49.66 195.79 43.45 186.31 37.08 186.4 37.24 196.45 45.32 196.74 49.79 204.39 49.66 195.79"/><polygon points="63.67 217.85 67.9 210.07 75.98 209.53 75.82 199.48 69.45 199.58 63.54 209.25 63.67 217.85"/><polygon points="57.01 220.44 61.13 214 60.99 204.94 56.86 210.86 52.53 204.35 52.68 213.82 57.01 220.44"/><polygon points="49.87 209.46 43.66 199.98 37.29 200.08 37.45 210.12 45.53 210.41 50 218.06 49.87 209.46"/><polygon points="63.9 232.76 68.14 224.98 76.21 224.44 76.05 214.4 69.68 214.49 63.77 224.17 63.9 232.76"/><polygon points="57.24 235.35 61.36 228.92 61.22 219.86 57.09 225.77 52.77 219.26 52.91 228.74 57.24 235.35"/><polygon points="50.1 224.38 43.89 214.89 37.52 214.99 37.68 225.04 45.76 225.33 50.23 232.97 50.1 224.38"/><polygon points="64.11 246.44 68.35 238.65 76.42 238.11 76.26 228.07 69.89 228.16 63.98 237.84 64.11 246.44"/><polygon points="57.45 249.03 61.57 242.59 61.43 233.53 57.3 239.44 52.98 232.93 53.12 242.41 57.45 249.03"/><polygon points="44.1 228.56 37.73 228.66 37.89 238.71 45.97 239 50.44 246.65 50.31 238.05 44.1 228.56"/></g><rect class="cls-3" x="193.09" y="171.76" width="102.71" height="35.27" rx="5.98" transform="translate(430.04 -57.94) rotate(89.11)"/><g class="cls-5"><polygon points="250.83 148.25 255.06 140.46 263.13 139.93 262.97 129.88 256.6 129.98 250.69 139.65 250.83 148.25"/><polygon points="239.83 144.22 244.16 150.84 248.28 144.4 248.14 135.34 244.01 141.26 239.69 134.75 239.83 144.22"/><polygon points="237.02 139.86 230.81 130.38 224.44 130.47 224.6 140.52 232.69 140.81 237.15 148.46 237.02 139.86"/><polygon points="251.04 161.92 255.27 154.14 263.34 153.6 263.19 143.55 256.82 143.65 250.91 153.32 251.04 161.92"/><polygon points="244.37 164.51 248.49 158.07 248.35 149.01 244.22 154.93 239.9 148.42 240.05 157.89 244.37 164.51"/><polygon points="237.23 153.53 231.03 144.05 224.66 144.15 224.81 154.19 232.9 154.48 237.37 162.13 237.23 153.53"/><polygon points="251.27 176.83 255.5 169.05 263.57 168.51 263.42 158.47 257.05 158.56 251.13 168.24 251.27 176.83"/><polygon points="244.6 179.42 248.72 172.99 248.58 163.93 244.45 169.84 240.13 163.33 240.28 172.81 244.6 179.42"/><polygon points="237.46 168.45 231.26 158.96 224.89 159.06 225.04 169.11 233.13 169.4 237.6 177.04 237.46 168.45"/><polygon points="251.48 190.51 255.71 182.72 263.78 182.18 263.63 172.14 257.26 172.24 251.35 181.91 251.48 190.51"/><polygon points="244.81 193.09 248.93 186.66 248.79 177.6 244.66 183.51 240.34 177 240.49 186.48 244.81 193.09"/><polygon points="237.67 182.12 231.47 172.63 225.1 172.73 225.25 182.78 233.34 183.07 237.81 190.72 237.67 182.12"/><polygon points="251.69 204.18 255.92 196.39 263.99 195.85 263.84 185.81 257.47 185.91 251.56 195.58 251.69 204.18"/><polygon points="245.02 206.77 249.14 200.33 249 191.27 244.87 197.19 240.55 190.68 240.7 200.15 245.02 206.77"/><polygon points="237.89 195.79 231.68 186.31 225.31 186.4 225.46 196.45 233.55 196.74 238.02 204.39 237.89 195.79"/><polygon points="251.9 217.85 256.13 210.07 264.2 209.53 264.05 199.48 257.68 199.58 251.77 209.25 251.9 217.85"/><polygon points="245.23 220.44 249.36 214 249.22 204.94 245.09 210.86 240.76 204.35 240.91 213.82 245.23 220.44"/><polygon points="238.1 209.46 231.89 199.98 225.52 200.08 225.68 210.12 233.76 210.41 238.23 218.06 238.1 209.46"/><polygon points="252.13 232.76 256.36 224.98 264.44 224.44 264.28 214.4 257.91 214.49 252 224.17 252.13 232.76"/><polygon points="245.46 235.35 249.59 228.92 249.45 219.86 245.32 225.77 240.99 219.26 241.14 228.74 245.46 235.35"/><polygon points="238.33 224.38 232.12 214.89 225.75 214.99 225.91 225.04 233.99 225.33 238.46 232.97 238.33 224.38"/><polygon points="252.34 246.44 256.57 238.65 264.65 238.11 264.49 228.07 258.12 228.16 252.21 237.84 252.34 246.44"/><polygon points="245.68 249.03 249.8 242.59 249.66 233.53 245.53 239.44 241.21 232.93 241.35 242.41 245.68 249.03"/><polygon points="232.33 228.56 225.96 228.66 226.12 238.71 234.2 239 238.67 246.65 238.54 238.05 232.33 228.56"/></g><path class="cls-6" d="M64.24,36.63c-4.06,9.56-8.87,20.42-12.32,26.85-7.2,13.43-12.12,29.8-17.51,36.92s-11.9,14.83-16.16,23.67-3.93,18.84-3.93,18.84l142.41-3.12V36.63Z"/><path class="cls-6" d="M24.92,69.7h15a3.36,3.36,0,0,1,3.36,3.36v9.31a0,0,0,0,1,0,0H24.92a2.15,2.15,0,0,1-2.15-2.15V71.85a2.15,2.15,0,0,1,2.15-2.15Z"/><rect class="cls-7" x="106.78" y="146.67" width="49.95" height="5.39"/><rect class="cls-7" x="106.78" y="163.45" width="49.95" height="5.39"/><path class="cls-6" d="M262.91,100.4c-5.4-7.12-10.31-23.49-17.51-36.92-3.45-6.43-8.26-17.29-12.32-26.85H140.59V139.79l141.57,3.12s.32-10-3.93-18.84S268.31,107.52,262.91,100.4Z"/><path class="cls-6" d="M256.17,69.7h18.37a0,0,0,0,1,0,0V79a3.36,3.36,0,0,1-3.36,3.36h-15A2.15,2.15,0,0,1,254,80.23V71.85a2.15,2.15,0,0,1,2.15-2.15Z" transform="translate(528.57 152.08) rotate(180)"/><path class="cls-8" d="M67.79,36.63,51.6,77.56s5.24,14.09,26.85,15.72c14.25,1.08,43.7,1.45,62.14,1.58v.06l8.07,0,8.07,0v-.06c18.44-.13,47.89-.5,62.14-1.58,21.61-1.63,26.85-15.72,26.85-15.72L229.53,36.63Z"/><rect class="cls-7" x="140.59" y="146.67" width="49.95" height="5.39" transform="translate(331.13 298.73) rotate(-180)"/><rect class="cls-7" x="140.59" y="163.45" width="49.95" height="5.39" transform="translate(331.13 332.3) rotate(-180)"/><path class="cls-9" d="M88.56,36.63l-33.71,46c3.57,4.19,10.57,9.58,23.36,10.61l43.73-56.63Z"/><path class="cls-9" d="M147,36.63,102.26,94.29l8.23.19,44.89-57.85Z"/><path class="cls-9" d="M161.32,36.63l-45,58,8.28.12,45.11-58.07Z"/><rect class="cls-6" x="14.32" y="106.98" width="268.46" height="99.8" rx="32.42"/><path class="cls-10" d="M276.31,120.05a26.4,26.4,0,0,1,2.85,9.55,33.46,33.46,0,0,1-2.4,15.49,23.81,23.81,0,0,1-9.06,10.8,46.36,46.36,0,0,1-13,5.54,137.93,137.93,0,0,1-17.24,3.74c-13.76,2.05-27.69,1.8-41.52.77-14-1-27.94-2.94-42-3.57-14.51-.66-29-.24-43.56.38-13.78.58-27.57,1.45-41.36,1.49-9.28,0-18.65,0-27.79-1.82-8.82-1.8-17.75-5.7-22.11-14.39-3.39-6.75-3.5-14.5-1.86-21.83A33.94,33.94,0,0,0,14.32,140v33.71c0,18.25,14.24,33.05,31.81,33.05H251c17.57,0,31.81-14.8,31.81-33.05V140A33.73,33.73,0,0,0,276.31,120.05Z"/><rect class="cls-7" x="38.98" y="184.12" width="223.75" height="22.56"/><rect class="cls-11" x="118.24" y="153.06" width="56.54" height="16.56"/><path class="cls-12" d="M44.42,117.12s-5.86,5.7-7.5,13c-.78,3.43,2.16,4.8,5.49,5.29,2.2.32,11.06.51,17.94.62,2.59,0,3.65-3.73,1.51-5.38Z"/><ellipse class="cls-13" cx="57.39" cy="143.95" rx="4.44" ry="5.01"/><path class="cls-12" d="M261.8,117.12s5.86,5.7,7.51,13c.78,3.43-2.17,4.8-5.5,5.29-2.2.32-11.05.51-17.94.62-2.58,0-3.64-3.73-1.51-5.38Z"/><path d="M70.2,53.91c1.75-9,18.52-6.55,30.47-6.17s22-4.63,28.16-.38,4.63,54,4.63,54H76.76S67.5,67.8,70.2,53.91Z"/><polygon class="cls-14" points="113.21 51.42 88.86 51.42 90.89 28.84 108.14 28.84 113.21 51.42"/><path class="cls-15" d="M89.68,42.35A22,22,0,0,0,101,45.29,22.64,22.64,0,0,0,111.31,43l-3.17-14.12H90.89Z"/><path class="cls-16" d="M90.65,5.31A10.61,10.61,0,0,0,83.32,13c-.77,3.85.77,15.43,5,18.51S108,33.93,109,33.61c6.17-1.93,7.11-20.2,4-23.28S98.75,2.61,90.65,5.31Z"/><path class="cls-15" d="M81.94,19c.81-4,6.74-.39,5.64,7C86.47,33.59,80.74,24.91,81.94,19Z"/><path class="cls-15" d="M111.61,26c-1.1-7.41,4.83-11,5.64-7C118.45,24.91,112.72,33.59,111.61,26Z"/><path class="cls-16" d="M113.84,11.51s-5.37,0-8.87,1.93c-4.24,2.31-11.56,5.65-18.13,5-12-1.15-3.47-14.65-.39-14.65-.77,1.15.78,2.7,2.32,2.31S104.58-10.48,113.84,11.51Z"/><ellipse class="cls-14" cx="100.87" cy="50.86" rx="13.69" ry="5.37"/><path d="M74.83,50.11c7.27,1,8.1,5.8,8.87,9.11s.77,20.72.77,20.72l-23.14,2.9s.77-15.33,3.09-24C66.32,51.64,71.75,49.69,74.83,50.11Z"/><path d="M126.63,48.18c-7.27,1-8.1,5.8-8.87,9.12S117,78,117,78l23.14,2.9s-.77-15.33-3.08-24C135.14,49.71,129.72,47.77,126.63,48.18Z"/><path class="cls-16" d="M83.36,13.44c-.52,3.78.43,7.28,1.11,10.94a34.38,34.38,0,0,0,2.42,8.77c1.31,2.71,3.41,4.2,5.59,6.15,1.1,1,1.78,1.87,3.21,2.28a15.68,15.68,0,0,0,5.42.89c3.91-.25,5.52-1.6,7.31-4.9,1.4-2.58,3.21-4.66,4.1-7.52a38.67,38.67,0,0,0,1.37-9.88c.07-1.52.51-3.45-.42-4.8a13.81,13.81,0,0,0-4.9-3.89A27.46,27.46,0,0,0,99.24,9c-2.06-.26-4.11-.95-6.19-1C89.74,7.83,85.57,10.06,83.36,13.44Z"/><ellipse class="cls-13" cx="248.83" cy="143.95" rx="4.44" ry="5.01"/><rect class="cls-17" x="63.29" y="56.15" width="170.73" height="40.41" rx="10.94"/><rect x="52.66" y="65.57" width="192" height="33.11" rx="12.3"/><rect class="cls-6" x="48.33" y="76.96" width="200.28" height="26.2"/><path class="cls-18" d="M200.3,85.92c2.18,7.85,4.24,15.73,6.36,23.59a20.53,20.53,0,0,1,1,6.15,14.32,14.32,0,0,1-1.54,6.12,14.63,14.63,0,0,1-9.74,7.69c-.53.09-1.06.22-1.59.28l-1.61.11-3.05,0-6.11,0-12.21.05-24.43.09L123,130l-12.22-.05-6.11,0c-1,0-2,0-3.06-.05l-1.61-.11-1.58-.31a14.67,14.67,0,0,1-9.63-7.84,14.27,14.27,0,0,1-1.44-6.15,19.52,19.52,0,0,1,1.12-6.13c2.36-7.79,4.65-15.61,7.06-23.39-2,7.9-4.08,15.77-6.11,23.66a18.4,18.4,0,0,0-.95,5.84,13.29,13.29,0,0,0,10.3,12.51l1.42.24,1.44.07c1,0,2,0,3,0l6.11,0,12.22,0,24.43-.09,24.43.09,12.21,0,6.11,0,3.05,0,1.44-.07c.48,0,1-.15,1.43-.22a13.26,13.26,0,0,0,10.49-12.35,20,20,0,0,0-.84-5.87C203.91,101.81,202,93.88,200.3,85.92Z"/></svg>