<svg id="Слой_1" data-name="Слой 1" xmlns="http://www.w3.org/2000/svg" xmlns:xlink="http://www.w3.org/1999/xlink" viewBox="0 0 292.57 322.03"><defs><style>.cls-1{fill:none;}.cls-2{fill:#7c5349;}.cls-3{fill:#8a9995;}.cls-4{fill:#7ea21a;}.cls-5{fill:#3d211c;}.cls-6{fill:#f69576;}.cls-7{fill:#dd866f;}.cls-8{fill:#a5713d;}.cls-9{fill:#6b3425;}.cls-10{fill:#fff;}.cls-11{fill:#72645d;}.cls-12{opacity:0.15;}.cls-13{fill:#232323;}.cls-14{clip-path:url(#clip-path);}.cls-15{clip-path:url(#clip-path-2);}.cls-16,.cls-25{fill:#0c96fd;}.cls-17{fill:#1d7dcc;}.cls-18{fill:#606060;}.cls-19{fill:#303030;}.cls-20{fill:#3b3b3b;}.cls-21{fill:#ff6d00;}.cls-22{fill:#ffdfc6;}.cls-23{fill:#a84400;}.cls-24{opacity:0.53;}.cls-25{opacity:0.21;}</style><clipPath id="clip-path"><rect class="cls-1" x="4.86" y="230.98" width="102.71" height="35.27" rx="5.98" transform="translate(303.93 188.57) rotate(89.11)"/></clipPath><clipPath id="clip-path-2"><rect class="cls-1" x="193.09" y="230.98" width="102.71" height="35.27" rx="5.98" transform="translate(489.25 0.36) rotate(89.11)"/></clipPath></defs><title>car with dog</title><path class="cls-2" d="M216.43,89.49a111.9,111.9,0,0,1-2.16-16.85c-.16-7.31-1.78-18.62-2.79-26.42S209.85,32.06,208.7,30s-2.24-1.63-2.24-1.63,1.67-.71,2.86,2.15c1,2.51,2.07,10.85,2.54,15.36s2.27,17.91,2.5,21.24.38,7.81.95,11.27,1.85,11,1.85,11Z"/><path class="cls-2" d="M207.38,27.31a5.32,5.32,0,0,0,.15,1.11C207.66,28.74,207.77,27.86,207.38,27.31Z"/><path class="cls-2" d="M206.52,29.07s1.11,0,1.08-.15l0-.32A3.57,3.57,0,0,1,206.52,29.07Z"/><path class="cls-2" d="M208,27.23a8.68,8.68,0,0,1,0,.87,2.33,2.33,0,0,1-.12.46.36.36,0,0,0,.38-.33A3.16,3.16,0,0,0,208,27.23Z"/><path class="cls-2" d="M206.87,29.29a5.92,5.92,0,0,0,1.54.9c.4,0,.45-.15.45-.15a.87.87,0,0,1-.51-.27A5,5,0,0,0,206.87,29.29Z"/><path class="cls-2" d="M208.79,27.29a12,12,0,0,0-.35,1.43l.07.51s.17.06.28-.3A8.74,8.74,0,0,0,208.79,27.29Z"/><path class="cls-2" d="M206.61,29.67s1.06,1.4,1.63,1.58a1.19,1.19,0,0,0,1-.14V31a.57.57,0,0,1-.57-.1C208.41,30.71,206.61,29.67,206.61,29.67Z"/><path class="cls-2" d="M209.62,27.6s-.17,1.58-.28,1.94a1.39,1.39,0,0,1-.31.57s.27.22.53-.16A7.3,7.3,0,0,0,209.62,27.6Z"/><path class="cls-2" d="M210.77,29a21.49,21.49,0,0,0-.91,2.54.91.91,0,0,1-.16.55l0,.16a.67.67,0,0,0,.53-.16A18.8,18.8,0,0,0,210.77,29Z"/><path class="cls-2" d="M209.56,32.19a.36.36,0,0,1-.35-.21,19.32,19.32,0,0,0-3-1.22,25.59,25.59,0,0,0,2.6,1.71c.41.11.53-.16.53-.16l.23,0Z"/><path class="cls-2" d="M205.87,31.76a42,42,0,0,1,3.7,2.24.61.61,0,0,1,.06.43l.4,0-.06.09-.4,0s.2.32-.29.21A13.27,13.27,0,0,1,205.87,31.76Z"/><path class="cls-2" d="M212.06,30.37a20.4,20.4,0,0,0-1.65,3.43.49.49,0,0,1-.24.55l0,.09s.19-.29.37-.14.42.2.67-.27A14.69,14.69,0,0,0,212.06,30.37Z"/><path class="cls-2" d="M206.05,33a23.39,23.39,0,0,0,2.56,3.09c.89.74,1.41.5,1.41.5l.23.08.07-.21a1,1,0,0,1-.37-.38C209.84,35.87,206.78,33.7,206.05,33Z"/><path class="cls-2" d="M212.86,32.16s-2,3.39-2,3.74a3.27,3.27,0,0,0,0,.68l-.3.13,0,.17.29-.13s.08.51.43.2S213.24,33.15,212.86,32.16Z"/><path class="cls-2" d="M206,35.8s3.89,2.48,4.1,2.28a.83.83,0,0,1,.44-.23l0-.17a1.5,1.5,0,0,1-.46-.46C209.82,36.9,206.7,35.44,206,35.8Z"/><path class="cls-2" d="M213.73,34.16s-2.2,2.81-2.23,3.76a1.26,1.26,0,0,1-.62,1.21l0,.17a.82.82,0,0,1,.66-.35c.39,0,.39,0,1.48-1.76A3.89,3.89,0,0,0,213.73,34.16Z"/><path class="cls-2" d="M206.13,37a3.93,3.93,0,0,0,2.1,2c1.69.8,2,.84,2.15.73a.6.6,0,0,1,.39,0l0-.17s-.14.11-.62-.52S206.13,37,206.13,37Z"/><path class="cls-2" d="M205.85,38.93s-.07.61,1.13,1.31a9.53,9.53,0,0,0,2.67,1.09c.66.17.87,0,.85-.12s.49.11.49.11l0-.26-.4,0s.21-.2-.47-.53-1.68-.2-3-.8S205.85,38.93,205.85,38.93Z"/><path class="cls-2" d="M214.67,36.05a7.8,7.8,0,0,1-1.21,2.07c-.81,1-2,1.41-1.93,2l.09.59-.43.32,0,.26.42-.41s-.06.7.71,0a8.41,8.41,0,0,0,2.05-2.79C215.14,36.59,214.67,36.05,214.67,36.05Z"/><path class="cls-2" d="M205.84,41.09a3.6,3.6,0,0,0,2.57,1.45c1.67.12,2.21.64,2.34.45s.12-.27.12-.27l.35.21,0-.17s-.43-.29-.47-.54-1.9-.08-3-.45A11.68,11.68,0,0,1,205.84,41.09Z"/><path class="cls-2" d="M215.36,38.2c-.08,0-2,2.53-2.62,3.22s-.9.9-.77,1.23-.49.5-.49.5l0,.18.67-.27s-.09.45.64.09a4.31,4.31,0,0,0,2-2A6.34,6.34,0,0,0,215.36,38.2Z"/><path class="cls-2" d="M216.38,40.39s-1.22,2-1.95,3-1.22,1.47-1.55,1.34l-.33-.12-1,.48-.05-.34s.84-.21.82-.38-.56-.61.79-1.66A15.48,15.48,0,0,1,216.38,40.39Z"/><path class="cls-2" d="M206,42.36a4.79,4.79,0,0,0,2.48,2c1.74.63,2.6.59,2.59.51s.5.19.5.19l-.1-.16a1.25,1.25,0,0,1-.49-.71c-.15-.5-1.33-.51-2.91-1.06Z"/><path class="cls-2" d="M206,43.66a10.81,10.81,0,0,0,3.28,2.57c1.94.94,1.91.16,1.91.16l.42.2,0-.34-.39,0s.64-.43-.37-.9S206.68,44.25,206,43.66Z"/><path class="cls-2" d="M216.77,42.67s-3.75,1.91-4.12,2.65a3.12,3.12,0,0,0-.38,1.18l-.51.33,0,.25.5-.33s.1.68.94,0,1.59-2.12,2.37-2.75A5.08,5.08,0,0,0,216.77,42.67Z"/><path class="cls-2" d="M205.78,46.28s2.66,1,3.67,1.47,1.7.89,2,.68a.51.51,0,0,1,.54-.08l0-.25s-.14.1-.62-.52S206.16,45.62,205.78,46.28Z"/><path class="cls-2" d="M217.26,44.5s-2.68,2.79-3.38,3.41a1.73,1.73,0,0,1-1.52.39l-.35.29-.14.12a2.5,2.5,0,0,0,.44-.75c.05-.27-.65-.17.93-1.26S216.45,44.27,217.26,44.5Z"/><path class="cls-2" d="M206.22,47.17a4.33,4.33,0,0,0,2.43,2.16c1.83.7,2.57.94,2.7.75a.57.57,0,0,0,.11-.36l.59.26,0-.25s-.48,0-.51-.28-.81-.14-2.84-1.15A20,20,0,0,0,206.22,47.17Z"/><path class="cls-2" d="M217.49,46.11a14.79,14.79,0,0,0-3.58,2,3.38,3.38,0,0,0-1,1.78l-.66.35,0,.26s.65-.44.67-.27.09.59,1.19-.51S217,46.27,217.49,46.11Z"/><path class="cls-2" d="M217.72,47.72s-2,2.35-2.94,3.26a2.42,2.42,0,0,1-1.69.84l-.72.45,0-.17.73-.45s-.35-.21.2-.8S216.84,47.67,217.72,47.72Z"/><path class="cls-2" d="M212.21,51.17l-.59-.27a1.12,1.12,0,0,0-.86-1.08c-.91-.31-2.84,0-3.74-.26a6.29,6.29,0,0,1-1.58-.64,3.76,3.76,0,0,0,2,1.53c1.22.26,2.43.44,3.17.68a1.65,1.65,0,0,0,1,.11l.58.18Z"/><path class="cls-2" d="M212.41,52.61l-.51-.28s-.26-.74-1.93-.85a8.31,8.31,0,0,1-3-.36,5.48,5.48,0,0,1-1.18-.53,9.51,9.51,0,0,0,3,1.83,5.66,5.66,0,0,0,3.11.25l.5.19Z"/><path class="cls-2" d="M217.68,49.19a21,21,0,0,1-2.33,3.61,3.35,3.35,0,0,1-2,1.15l-.65.44.12-.28.34-.39s-.23-.49.39-1.18S217,49.11,217.68,49.19Z"/><path class="cls-2" d="M205.49,52.11A9.16,9.16,0,0,0,209,54.29a12,12,0,0,0,3.63.1l.07-.16s-.38.2-.5-.13-.78-.49-3-1.05Z"/><path class="cls-2" d="M218.74,51.64a29,29,0,0,1-3.42,3.15c-1.3.87-1.86.78-1.86.78l-.47.58,0-.25.41-.49s-.57-.7.66-1.47S218.74,51.64,218.74,51.64Z"/><path class="cls-2" d="M205.81,54.39a2.3,2.3,0,0,0,2.08,1.35,12.27,12.27,0,0,1,3.74.26c.91.3,1.41.49,1.41.49l-.12-.24-.5-.19s.46-.67-.7-1.11-3,.42-4,.13S205.81,54.39,205.81,54.39Z"/><path class="cls-2" d="M219.34,53.11a12.62,12.62,0,0,1-2.72,2.54c-1.73,1.19-2.29,2.22-2.61,2.18a2.52,2.52,0,0,0-.85.11l0-.25a1.37,1.37,0,0,0,.49-.5c.11-.27-.47-.54.46-1.19s3.57-2,4.23-2.4A9.53,9.53,0,0,1,219.34,53.11Z"/><path class="cls-2" d="M212.55,57c-.07-.49-1.34-.59-3-.28s-2.28.58-2.87.32-1.1-.54-1.1-.54a1.61,1.61,0,0,0,1.75,1.23c1.58,0,2.42-.17,3.38,0s1.48.48,1.7.36.18-.45.18-.45l.52.35,0-.25A1.14,1.14,0,0,1,212.55,57Z"/><path class="cls-2" d="M219.61,55.06a3.83,3.83,0,0,1-1.89,2.25c-1.54.82-2.08.89-2.46,1.55a7.55,7.55,0,0,1-1.81,1.59l0-.3.49-.42s-.88-.13.07-1.22a5,5,0,0,1,2.95-2A5.09,5.09,0,0,0,219.61,55.06Z"/><path class="cls-2" d="M213.41,59.72l-.77-.41s.28-.29-.73-.76-2.14,0-3.69.09a6.11,6.11,0,0,1-2.65-.33,3.1,3.1,0,0,0,2.4,1.4,22.18,22.18,0,0,1,3.66.26,1.15,1.15,0,0,0,1.21-.34l.6.35Z"/><path class="cls-2" d="M205.54,60.91a7.67,7.67,0,0,0,3.75,1.46c2.07.15,3.37.48,3.66.27a.93.93,0,0,0,.34-.4l.42.21,0-.26-.41-.11s.46-.67-.83-.92-2.89.75-4.61.29S205.54,60.91,205.54,60.91Z"/><path class="cls-2" d="M219.84,56.75a3.25,3.25,0,0,1-1.48,2.37,18.79,18.79,0,0,0-3,1.8,8,8,0,0,1-1.75,1l0-.26s.4,0,.45-.15-.32-1.16.32-1.68A11.77,11.77,0,0,1,217.81,58,4.26,4.26,0,0,0,219.84,56.75Z"/><path class="cls-2" d="M219.93,59.07a18.7,18.7,0,0,1-2.86,3.16,5.62,5.62,0,0,1-2.6,1.15l-.54.67,0-.25.39-.57a1.21,1.21,0,0,1,.29-1.34,15.11,15.11,0,0,1,3.71-2.16C219.42,59.32,219.93,59.07,219.93,59.07Z"/><path class="cls-2" d="M213.94,64.66l-.7-.51s.16-.54-.75-.84-1.64,0-3.56-.11a8.11,8.11,0,0,1-3.2-.93s.68,1.46,3.6,2.08,3.87.07,3.87.07l.76.41Z"/><path class="cls-2" d="M214.23,66.69a4.63,4.63,0,0,0-.72-.59c-.16-.06-.41-.12-.41-.12s.33-.47-.09-.67-1.74,0-3.78,0a11.29,11.29,0,0,1-3.71-.61,6.49,6.49,0,0,0,3.7,1.65c2.49.34,3.63.61,3.82.32a.73.73,0,0,0,.18-.45s.83.31.95.64S214.23,66.69,214.23,66.69Z"/><path class="cls-2" d="M220.26,60.84l-4.1,2.21c-.66.35-1.38.28-1.58,1.09a3.49,3.49,0,0,0-.15,1.23l-.35.3,0,.27.43-.32s-.24.55,1.07-.24a18.46,18.46,0,0,0,3.19-2.51C220,61.74,220.38,61.17,220.26,60.84Z"/><path class="cls-2" d="M220.89,62.56a26.57,26.57,0,0,0-4.19,1.54,6,6,0,0,0-2.22,2.73,1.72,1.72,0,0,1-.23.63l-.11.28s-.19.37.9-.3,1.79-1.8,3.08-2.76S220.89,62.56,220.89,62.56Z"/><path class="cls-2" d="M214.25,68.59s-.49-.71-.73-.76l-.49-.11s.1-.44-.64-.6-2,.2-3.69.08a9,9,0,0,1-3.2-.93,10.83,10.83,0,0,0,4.32,2.16,4.93,4.93,0,0,0,3.19-.27.44.44,0,0,1,.55,0l.72.59Z"/><path class="cls-2" d="M221.18,64.08a5.6,5.6,0,0,1-2.43,1.2,5.79,5.79,0,0,0-2.87.83,9,9,0,0,0-1.1,2.84l-.44.23,0,.17.44-.23s.24.57,1.08-.16.83-1.41,2.62-2.09S221.2,64.77,221.18,64.08Z"/><path class="cls-2" d="M214.37,70a3.66,3.66,0,0,0-.5-.7c-.17-.15-.22-1-2-1.11s-2.76.56-4.07.74a5.85,5.85,0,0,1-2,0s.47.54,3,.53,3.12-.18,4,0,.85-.12.85-.12l.66.77Z"/><path class="cls-2" d="M214.42,71.5l-.33-.13a1,1,0,0,0-.63-1.12c-.83-.31-1.19.51-4,.4a22.34,22.34,0,0,1-4.16-.46,6,6,0,0,0,4.17,1.66,13.94,13.94,0,0,0,4.61-.3Z"/><path class="cls-2" d="M214.43,73.23l-.34-.21s-.1-.68-.57-.7a8.29,8.29,0,0,1-4.26,0c-2.84-.64-3.47-1.16-3.47-1.16a7.84,7.84,0,0,0,4.52,2.48c3.08.61,3.81-.36,3.81-.36l.33.13Z"/><path class="cls-2" d="M221.72,66.25a6.43,6.43,0,0,1-2.55,2c-1.5.55-3.51,1.35-3.94,2.27a2.18,2.18,0,0,0-.17,1.58l-.65.44,0,.17.63-.52s0,.43,1.23-.26,2.5-1.82,3.86-2.79S221.91,66.48,221.72,66.25Z"/><path class="cls-2" d="M222.58,69a.74.74,0,0,1-.69.7c-.7.1-3.68.17-4.68.91a12.44,12.44,0,0,0-2.16,2.55l-.5.41-.06.1.66-.35s.15.5,1.53-.3,1.1-1.19,2.94-1.54S223.49,69.89,222.58,69Z"/><path class="cls-2" d="M222.8,71.71a15.17,15.17,0,0,0-4.74,1c-1.46.81-2.75,1.16-2.85,1.61a2.46,2.46,0,0,0-.06.7l-.46.06,0,.25.46-.06s-.24.55.59.26,1.78-1.37,3.5-2S222.71,72.16,222.8,71.71Z"/><path class="cls-2" d="M214.5,74.86l-.25-.14a.3.3,0,0,0-.3-.39,15.33,15.33,0,0,1-4,.56,19.56,19.56,0,0,1-4.6-.22s.81,1.27,4,1.26,3.75-.18,4.23-.16.61-.08.74-.28a.45.45,0,0,0,0-.43l.23,0Z"/><path class="cls-2" d="M224.18,74.8a6.88,6.88,0,0,0-4.63-.47c-2.43.68-3.91,1.32-4,1.76a5.56,5.56,0,0,0-.12.8l-.62.09,0,.25.62-.09s-.26.39.68.34A9.68,9.68,0,0,0,219.86,76C221.62,75.07,223.43,74.47,224.18,74.8Z"/><path class="cls-2" d="M214.67,76.65l-.38,0a.79.79,0,0,0-.78-.49c-.54.07-3.7,1.12-5.72.8a5.18,5.18,0,0,1-2.47-.78,4.14,4.14,0,0,0,2.76,1.69,20.7,20.7,0,0,0,6-.33.67.67,0,0,0,.3-.64l.3-.13Z"/><path class="cls-2" d="M215,78.85l-.39.05s-.26-.74-.57-.69a28.26,28.26,0,0,1-5.12,1.06,9,9,0,0,1-3.34-.22s-.26,1,2.52,1.11,5.88-.13,6.31-.45.15-.63.15-.63l.48,0Z"/><path class="cls-2" d="M224,77.07s-3.47-.64-5.49.16-2.82,1.17-2.85,1.52a.64.64,0,0,1-.41.49l-.13.19s.58-.34.62-.08.38.46,1.54.3,2.53-1.05,4.42-1.57A4.94,4.94,0,0,0,224,77.07Z"/><path class="cls-3" d="M219.42,91.33s4.61-13.82,5.91-24.71,5.54-27.45,8.3-38.9S238.29,6.92,240.47,4s3.87-2,3.87-2-2.62-1.39-5,2.64c-2.06,3.55-4.91,15.8-6.32,22.44S226.82,53.4,226,58.33,224.24,69.91,222.83,75s-4.57,16-4.57,16Z"/><path class="cls-3" d="M243,.32a6.92,6.92,0,0,1-.41,1.61C242.33,2.39,242.28,1.06,243,.32Z"/><path class="cls-3" d="M244.13,3.11s-1.8-.19-1.73-.44l.12-.47A6.17,6.17,0,0,0,244.13,3.11Z"/><path class="cls-3" d="M242,.07a10.41,10.41,0,0,0-.07,1.3,3.59,3.59,0,0,0,.13.72.59.59,0,0,1-.56-.57A4.39,4.39,0,0,1,242,.07Z"/><path class="cls-3" d="M243.54,3.36a9.84,9.84,0,0,1-2.64,1.05c-.65,0-.71-.31-.71-.31a1.45,1.45,0,0,0,.87-.31A8.47,8.47,0,0,1,243.54,3.36Z"/><path class="cls-3" d="M240.69,0a16.58,16.58,0,0,1,.37,2.21l-.19.74s-.28.06-.4-.5A11.6,11.6,0,0,1,240.69,0Z"/><path class="cls-3" d="M243.91,4S242,5.87,241,6a2.08,2.08,0,0,1-1.61-.4l0-.13a1,1,0,0,0,.93,0C240.84,5.18,243.91,4,243.91,4Z"/><path class="cls-3" d="M239.3.31s0,2.39.18,2.95a2.09,2.09,0,0,0,.43.9s-.47.28-.84-.35S239.3.31,239.3.31Z"/><path class="cls-3" d="M237.24,2.17a28.84,28.84,0,0,1,1.11,4,1.37,1.37,0,0,0,.19.84l-.07.25a1.24,1.24,0,0,1-.83-.34C237.33,6.54,237.24,2.17,237.24,2.17Z"/><path class="cls-3" d="M238.75,7.17a.56.56,0,0,0,.59-.25c.22-.34,5.07-1.23,5.07-1.23a39.22,39.22,0,0,1-4.48,2c-.68.09-.84-.34-.84-.34l-.37-.1Z"/><path class="cls-3" d="M244.81,7.24s-6.12,2.29-6.34,2.63a.89.89,0,0,0-.16.62l-.65,0,.09.15.65,0s-.37.44.44.38S244.65,7.86,244.81,7.24Z"/><path class="cls-3" d="M234.94,4s2.35,4.82,2.19,5.44a.75.75,0,0,0,.31.87l0,.12s-.28-.46-.59-.28-.71.22-1-.53A20.56,20.56,0,0,1,234.94,4Z"/><path class="cls-3" d="M244.34,9.1a34.44,34.44,0,0,1-4.61,4.12c-1.55.93-2.36.46-2.36.46l-.39.08-.07-.33a1.43,1.43,0,0,0,.65-.49C237.78,12.6,243.06,10,244.34,9.1Z"/><path class="cls-3" d="M233.38,6.47a65.13,65.13,0,0,1,2.72,6,4.85,4.85,0,0,1-.12,1l.46.25-.06.25-.47-.25s-.18.75-.71.22S232.64,7.87,233.38,6.47Z"/><path class="cls-3" d="M244.08,13.26s-6.68,2.94-7,2.6a1.47,1.47,0,0,0-.68-.44l.06-.25a2.12,2.12,0,0,0,.81-.59C237.65,14.15,242.93,12.58,244.08,13.26Z"/><path class="cls-3" d="M231.69,9.28s3.18,4.63,3.09,6.06a2,2,0,0,0,.83,1.93l-.06.24a1.4,1.4,0,0,0-1-.65c-.66,0-.66,0-2.17-2.92S231.69,9.28,231.69,9.28Z"/><path class="cls-3" d="M243.64,15a5.89,5.89,0,0,1-3.7,2.63c-2.86.87-3.39.86-3.6.68a1,1,0,0,0-.62-.16l.06-.25s.22.19,1.09-.65S243.64,15,243.64,15Z"/><path class="cls-3" d="M243.82,18s0,.93-2,1.74a16.15,16.15,0,0,1-4.51,1.1c-1.08.12-1.39-.22-1.36-.34s-.81.06-.81.06l.1-.37.65,0s-.31-.34.84-.71,2.76,0,4.9-.61S243.82,18,243.82,18Z"/><path class="cls-3" d="M229.89,11.93a12.14,12.14,0,0,0,1.67,3.32c1.18,1.62,3.07,2.49,2.85,3.36l-.22.87.65.56-.09.37-.62-.68s0,1.06-1.15-.16A13.1,13.1,0,0,1,230,15C229.06,12.64,229.89,11.93,229.89,11.93Z"/><path class="cls-3" d="M243.53,21.18a5.77,5.77,0,0,1-4.38,1.67c-2.73-.17-3.69.52-3.88.2s-.15-.43-.15-.43l-.59.25.06-.25s.75-.34.84-.71,3.1.25,4.91-.09A20,20,0,0,0,243.53,21.18Z"/><path class="cls-3" d="M228.46,15c.12,0,2.91,4.17,3.81,5.32s1.33,1.52,1.08,2,.71.84.71.84l.06.27-1.05-.53s.09.69-1.06,0a7,7,0,0,1-3-3.39A8.81,8.81,0,0,1,228.46,15Z"/><path class="cls-3" d="M226.5,18.07s1.7,3.2,2.75,4.78,1.76,2.43,2.32,2.31l.56-.13,1.49.91.13-.5s-1.34-.47-1.28-.72,1-.8-1.05-2.64S227.58,18.47,226.5,18.07Z"/><path class="cls-3" d="M243.06,23a7.44,7.44,0,0,1-4.32,2.48c-2.92.58-4.31.36-4.28.23s-.84.19-.84.19l.19-.22a1.91,1.91,0,0,0,.9-1c.31-.71,2.24-.49,4.88-1S243.06,23,243.06,23Z"/><path class="cls-3" d="M243,25a17,17,0,0,1-5.69,3.18c-3.29,1-3.14-.13-3.14-.13l-.71.22.12-.5.66,0s-1-.78.71-1.27S241.72,25.74,243,25Z"/><path class="cls-3" d="M225.53,21.39s5.83,3.58,6.32,4.76a4.79,4.79,0,0,1,.46,1.83l.78.6L233,29l-.77-.59s-.25,1-1.52-.26-2.29-3.48-3.47-4.57A8.27,8.27,0,0,1,225.53,21.39Z"/><path class="cls-3" d="M242.9,28.94s-4.48,1-6.19,1.48-2.89,1-3.32.61a.94.94,0,0,0-.87-.22l.1-.37s.21.18,1.08-.65S242.37,27.88,242.9,28.94Z"/><path class="cls-3" d="M224.47,24s4,4.7,5,5.76a3.07,3.07,0,0,0,2.42.87l.53.51.22.21a3.82,3.82,0,0,1-.62-1.21c0-.41,1.08-.12-1.33-2.06S225.83,23.84,224.47,24Z"/><path class="cls-3" d="M242.05,30.18a6.56,6.56,0,0,1-4.25,2.75c-3.08.68-4.32.89-4.51.58a.82.82,0,0,1-.12-.56l-1,.28.09-.37s.78.06.87-.31,1.33-.06,4.78-1.17A35.91,35.91,0,0,1,242.05,30.18Z"/><path class="cls-3" d="M223.87,26.38s4.22,2.12,5.55,3.65a5.15,5.15,0,0,1,1.39,2.86l1,.65-.09.37s-1-.78-1.06-.53-.21.87-1.86-1S224.71,26.73,223.87,26.38Z"/><path class="cls-3" d="M223.28,28.74s2.84,3.89,4.3,5.44a4.22,4.22,0,0,0,2.63,1.59l1.12.81.06-.25-1.11-.81s.59-.24-.22-1.24S224.7,28.84,223.28,28.74Z"/><path class="cls-3" d="M231.74,35l1-.28s0-1.18,1.56-1.45,4.62.5,6.11.35a10.24,10.24,0,0,0,2.67-.65,5.84,5.84,0,0,1-3.51,1.89c-2,.15-4,.18-5.25.39a2.88,2.88,0,0,1-1.7,0l-1,.15Z"/><path class="cls-3" d="M231.2,37.08l.87-.31s.53-1.05,3.27-.89,3.19.41,4.87,0a8.85,8.85,0,0,0,2-.56A15.35,15.35,0,0,1,237,37.49a10.09,10.09,0,0,1-5.09-.22l-.84.18Z"/><path class="cls-3" d="M223.12,30.94a33.26,33.26,0,0,0,3.27,5.85,5.91,5.91,0,0,0,3.16,2.12l1,.77-.16-.43-.49-.65s.43-.69-.46-1.84S224.17,31,223.12,30.94Z"/><path class="cls-3" d="M242.53,37.69s-3.23,2.36-6.06,2.57a21.48,21.48,0,0,1-5.92-.58l-.09-.24s.58.37.83-.1,1.34-.58,5-1Z"/><path class="cls-3" d="M221.06,34.39a47.64,47.64,0,0,0,5.11,5.38c2,1.55,2.91,1.53,2.91,1.53l.68,1,.1-.37-.59-.81s1-.93-.86-2.33S221.06,34.39,221.06,34.39Z"/><path class="cls-3" d="M241.69,41a3.62,3.62,0,0,1-3.58,1.61A21.45,21.45,0,0,0,232,42.3c-1.52.27-2.36.46-2.36.46l.22-.35.84-.18s-.65-1.09,1.3-1.52,4.84,1.22,6.49,1S241.69,41,241.69,41Z"/><path class="cls-3" d="M219.87,36.46a20.72,20.72,0,0,0,4.06,4.33c2.64,2.11,3.41,3.76,3.94,3.76a4.73,4.73,0,0,1,1.36.35l.09-.38a2.33,2.33,0,0,1-.71-.83c-.15-.44.84-.72-.58-1.87s-5.52-3.77-6.54-4.42A16.51,16.51,0,0,0,219.87,36.46Z"/><path class="cls-3" d="M230.35,43.6c.18-.73,2.27-.62,4.84.16s3.63,1.31,4.63,1,1.86-.59,1.86-.59-.44,1.74-3,1.48-3.91-.72-5.5-.72-2.48.43-2.82.21-.22-.72-.22-.72l-.9.44.09-.38S230.19,44.22,230.35,43.6Z"/><path class="cls-3" d="M219.15,39.32a6.07,6.07,0,0,0,2.76,3.73c2.39,1.53,3.25,1.74,3.78,2.8a12.51,12.51,0,0,0,2.71,2.73l0-.46-.75-.71s1.46,0,.07-1.83a8.6,8.6,0,0,0-4.53-3.52C220.7,41,219.31,39.75,219.15,39.32Z"/><path class="cls-3" d="M228.57,47.5l1.31-.46s-.4-.5,1.3-1,3.48.35,6,.85a10.85,10.85,0,0,0,4.35,0,4.94,4.94,0,0,1-4.1,1.61c-2.73-.16-4.75-.54-6-.33a2,2,0,0,1-1.93-.75l-1,.41Z"/><path class="cls-3" d="M241.2,50.82a12.9,12.9,0,0,1-6.3,1.45c-3.39-.2-5.56,0-6-.33a1.39,1.39,0,0,1-.49-.65l-.72.22.1-.38.68-.09s-.65-1.09,1.49-1.2,4.6,1.68,7.45,1.35S241.2,50.82,241.2,50.82Z"/><path class="cls-3" d="M218.53,41.8a4.91,4.91,0,0,0,2.07,3.82,36,36,0,0,1,4.59,3.27,13.33,13.33,0,0,0,2.69,1.87l.1-.37s-.66,0-.72-.31S228,48.4,227,47.5A20.49,20.49,0,0,0,221.66,44,7.39,7.39,0,0,1,218.53,41.8Z"/><path class="cls-3" d="M218.05,45.24c.25.07,1.92,3.39,4.21,5.29a10,10,0,0,0,4.07,2.22l.77,1.11.09-.37-.55-.93a1.71,1.71,0,0,0-.28-2.05,25.86,25.86,0,0,0-5.73-4C218.86,45.71,218.05,45.24,218.05,45.24Z"/><path class="cls-3" d="M227,54.76l1.22-.61s-.19-.84,1.33-1.12,2.67.41,5.81.54a14.05,14.05,0,0,0,5.34-.76s-1.31,2-6.15,2.41-6.3-.67-6.3-.67l-1.31.46Z"/><path class="cls-3" d="M226.25,57.74A7.59,7.59,0,0,1,227.5,57a6.23,6.23,0,0,1,.68-.09s-.46-.78.25-1,2.82.31,6.15.76a19.5,19.5,0,0,0,6.11-.18,10.57,10.57,0,0,1-6.24,1.73c-4.1,0-6,.2-6.27-.26a1.09,1.09,0,0,1-.22-.72s-1.4.31-1.65.77S226.25,57.74,226.25,57.74Z"/><path class="cls-3" d="M217.27,47.82s5.33,3.46,6.36,4.11,2.2.69,2.41,1.93a4.92,4.92,0,0,1,.06,1.87l.53.52,0,.41L226,56.1s.31.87-1.71-.57a31.48,31.48,0,0,1-4.83-4.38C217.58,49.22,217,48.28,217.27,47.82Z"/><path class="cls-3" d="M216,50.27a46.84,46.84,0,0,1,6.61,3.12,9.4,9.4,0,0,1,3.22,4.51,2.9,2.9,0,0,0,.27,1l.16.44s.25.59-1.43-.63-2.66-3.05-4.61-4.73S216,50.27,216,50.27Z"/><path class="cls-3" d="M225.94,60.57s.9-1,1.3-1l.81-.06s-.09-.69,1.12-.78,3.26.69,6,.86a15.39,15.39,0,0,0,5.34-.77s-3.89,2.32-7.33,2.37-4.94-.84-5.15-1a.79.79,0,0,0-.9-.1l-1.25.75Z"/><path class="cls-3" d="M215.31,52.47a9.77,9.77,0,0,0,3.78,2.28c2,.5,3.72.94,4.56,1.81S225,61,225,61l.69.44-.07.24-.68-.43s-.47.8-1.74-.44-1.14-2.27-4-3.64S215.18,53.5,215.31,52.47Z"/><path class="cls-3" d="M225.56,62.58a5.78,5.78,0,0,1,.9-1c.31-.18.5-1.45,3.36-1.26s4.4,1.38,6.51,1.91a10.15,10.15,0,0,0,3.2.41s-.84.71-4.94.2-5.06-.88-6.55-.72-1.36-.35-1.36-.35l-1.18,1Z"/><path class="cls-3" d="M225.24,64.88l.56-.12A1.37,1.37,0,0,1,227,63.21c1.39-.31,1.86,1,6.51,1.38a40.43,40.43,0,0,0,6.83.14s-2.21,2-7,1.66A26.18,26.18,0,0,1,225.86,65Z"/><path class="cls-3" d="M225,67.46l.59-.25s.25-1,1-.93a14.61,14.61,0,0,0,6.92.82c4.72-.39,5.81-1,5.81-1a12.71,12.71,0,0,1-7.71,2.81c-5.09.3-6.14-1.29-6.14-1.29l-.56.13Z"/><path class="cls-3" d="M214.12,55.6A10.7,10.7,0,0,0,218,59.09c2.36,1.12,5.52,2.71,6.08,4.17a3.06,3.06,0,0,1,.05,2.4l1,.77-.07.25-1-.9s0,.65-2-.63-3.81-3.2-5.89-4.91S213.78,55.91,214.12,55.6Z"/><path class="cls-3" d="M212.34,59.51a1.16,1.16,0,0,0,1,1.18c1.12.29,6,1,7.48,2.29A19.86,19.86,0,0,1,224,67.21l.74.71.09.16-1-.66s-.31.72-2.45-.75-1.61-2-4.56-2.86S210.72,60.69,212.34,59.51Z"/><path class="cls-3" d="M211.59,63.55s5.3.94,7.57,2.44,4.31,2.27,4.4,3a3.2,3.2,0,0,1,0,1.06l.74.19-.09.37-.75-.19s.31.87-1,.28-2.7-2.4-5.43-3.61S211.68,64.23,211.59,63.55Z"/><path class="cls-3" d="M224.64,69.88l.44-.16s-.13-.55.53-.52a28.44,28.44,0,0,0,6.45,1.63,35.94,35.94,0,0,0,7.51.57s-1.49,1.74-6.61,1.11-6.09-1-6.86-1.08-1-.25-1.18-.56a.66.66,0,0,1,0-.65l-.37-.09Z"/><path class="cls-3" d="M208.91,67.89a12.11,12.11,0,0,1,7.6.2c3.85,1.5,6.17,2.75,6.27,3.43a10.26,10.26,0,0,1,.09,1.21l1,.25-.1.37-1-.25s.37.62-1.15.37-3.13-1.18-5.86-2.93S210.18,67.55,208.91,67.89Z"/><path class="cls-3" d="M224.11,72.52l.62.15a1.26,1.26,0,0,1,1.34-.58c.86.22,5.86,2.4,9.18,2.31s4.13-.67,4.13-.67a6.61,6.61,0,0,1-4.72,2c-3,0-9.19-1.27-9.75-1.67a1,1,0,0,1-.4-1l-.46-.25Z"/><path class="cls-3" d="M223.29,75.74l.62.16s.53-1.05,1-.93a50.35,50.35,0,0,0,8.19,2.6,15.63,15.63,0,0,0,5.46.32s.28,1.52-4.25,1.17-9.56-1.36-10.21-1.92-.15-1-.15-1l-.78-.06Z"/><path class="cls-3" d="M208.84,71.3s5.74-.26,8.9,1.33,4.44,2.3,4.44,2.83a1,1,0,0,0,.58.81l.19.31s-.9-.62-1-.25-.69.62-2.55.15-4-2.06-7-3.21S208.84,71.3,208.84,71.3Z"/><path class="cls-4" d="M219.23,97.63a172.37,172.37,0,0,1,11.65-17.46c5.64-7,13.33-18.88,18.71-27s9.93-14.54,10.72-17.31-.37-3.08-.37-3.08,1.79.47.42,4c-1.21,3.1-7,11.72-10.2,16.32S237.75,71.66,235.3,75s-5.85,7.67-8.16,11.34S219.88,98,219.88,98Z"/><path class="cls-4" d="M261.43,32.44a7.56,7.56,0,0,0-.75,1.15C260.51,34,261.29,33.23,261.43,32.44Z"/><path class="cls-4" d="M259.42,33.53s.8.77.91.59l.22-.33A3.22,3.22,0,0,1,259.42,33.53Z"/><path class="cls-4" d="M262,32.78s-.47.58-.71.8a2.55,2.55,0,0,1-.45.36.34.34,0,0,0,.53,0A4.75,4.75,0,0,0,262,32.78Z"/><path class="cls-4" d="M259.51,34a6.37,6.37,0,0,0,.42,1.92c.27.3.45.17.45.17a.86.86,0,0,1-.16-.61C260.26,35.09,259.51,34,259.51,34Z"/><path class="cls-4" d="M262.49,33.39a14.86,14.86,0,0,0-1.38,1.12l-.35.53s.07.17.44-.1A12.71,12.71,0,0,0,262.49,33.39Z"/><path class="cls-4" d="M259,34.15a7.79,7.79,0,0,0,0,2.62,1,1,0,0,0,.85.56l.06-.09a.49.49,0,0,1-.34-.48C259.52,36.37,259,34.15,259,34.15Z"/><path class="cls-4" d="M262.85,34.26s-1.36,1.38-1.73,1.65a1.75,1.75,0,0,1-.67.31s0,.4.52.21S262.85,34.26,262.85,34.26Z"/><path class="cls-4" d="M262.6,36.36a27.93,27.93,0,0,0-2.67,1.8,1.27,1.27,0,0,1-.54.4l-.12.18a.6.6,0,0,0,.52.21A28,28,0,0,0,262.6,36.36Z"/><path class="cls-4" d="M259.2,38.56s-.2-.12-.09-.43a18.51,18.51,0,0,0-1.25-3.22,27.57,27.57,0,0,0,.57,3.4c.21.39.52.21.52.21l.19.13Z"/><path class="cls-4" d="M256.83,35.63a44.79,44.79,0,0,1,1,4.66,1,1,0,0,1-.29.45l.27.3-.12,0-.27-.3s-.1.44-.38,0A15.69,15.69,0,0,1,256.83,35.63Z"/><path class="cls-4" d="M262.47,38.55a26.36,26.36,0,0,0-3.9,2.12c-.29.45-.61.36-.61.36l-.06.09s.37-.13.38.13.16.48.71.21A21.49,21.49,0,0,0,262.47,38.55Z"/><path class="cls-4" d="M256,37a31.73,31.73,0,0,0-.56,4.7c.08,1.31.65,1.43.65,1.43l.11.24.21-.16a1.14,1.14,0,0,1,0-.61C256.52,42.24,256,38.09,256,37Z"/><path class="cls-4" d="M261.65,40.8s-4.1,1.86-4.4,2.17a4.87,4.87,0,0,0-.53.67l-.32-.08-.11.17.32.08s-.35.54.15.48S261.16,42,261.65,40.8Z"/><path class="cls-4" d="M253.72,39.53s.92,5,1.23,5a.77.77,0,0,1,.51.08l.11-.18a1.68,1.68,0,0,1,0-.74C255.69,43.22,254.55,39.69,253.72,39.53Z"/><path class="cls-4" d="M260.73,43.29s-3.84,1.15-4.6,2-1.41.73-1.41.73l-.11.17s.49-.18.76.12.27.3,2.47-.65A5.68,5.68,0,0,0,260.73,43.29Z"/><path class="cls-4" d="M252.91,40.77a5,5,0,0,0-.06,3.37c.61,1.92.82,2.17,1,2.17s.32.21.32.21l.12-.17s-.19,0-.05-.92S252.91,40.77,252.91,40.77Z"/><path class="cls-4" d="M251.18,42.42s-.53.53-.2,2a9.23,9.23,0,0,0,1.11,2.87c.35.61.66.56.72.47s.27.44.27.44l.18-.27-.27-.3s.31,0,.08-.83S252,45.47,251.53,44,251.18,42.42,251.18,42.42Z"/><path class="cls-4" d="M259.92,45.73a9.84,9.84,0,0,1-2.51,1.13c-1.36.38-2.58,0-3,.58l-.4.62h-.57l-.17.26.62-.09s-.59.62.53.47a9.52,9.52,0,0,0,3.7-1.24C259.84,46.56,259.92,45.73,259.92,45.73Z"/><path class="cls-4" d="M249.48,44.46a3.91,3.91,0,0,0,.74,3.14c1.14,1.25,1.13,2.12,1.37,2a.65.65,0,0,0,.31-.18l.08.44.12-.18a1.44,1.44,0,0,1,.08-.83c.17-.27-1.34-1.38-1.84-2.47A11.48,11.48,0,0,1,249.48,44.46Z"/><path class="cls-4" d="M258.74,48.24c-.06,0-3.46,1-4.45,1.26s-1.37.24-1.54.64-.74.14-.74.14l-.18.14.7.2s-.42.36.41.52a4.44,4.44,0,0,0,3.05-.53A9,9,0,0,0,258.74,48.24Z"/><path class="cls-4" d="M257.77,51s-2.46,1-3.75,1.46-2.05.56-2.19.21l-.15-.35-1.08-.2.23-.35s.78.38.9.2.07-1,1.89-1S257.12,50.72,257.77,51Z"/><path class="cls-4" d="M248.61,45.79a5.73,5.73,0,0,0,.26,3.58c.8,1.78,1.46,2.34,1.52,2.25s.21.52.21.52l.05-.22a1.78,1.78,0,0,1,.2-1c.28-.57-.58-1.39-1.3-3S248.61,45.79,248.61,45.79Z"/><path class="cls-4" d="M247.54,47a12.69,12.69,0,0,0,.4,4.68c.69,2.22,1.27,1.47,1.27,1.47l.16.48.23-.36-.27-.3s.82,0,.44-1.1S247.6,48,247.54,47Z"/><path class="cls-4" d="M256.27,53.45s-4.25-.76-5.11-.31A4.67,4.67,0,0,0,250,54l-.63,0-.17.26.63,0s-.46.7.73.6,2.84-.93,3.9-1A5.71,5.71,0,0,0,256.27,53.45Z"/><path class="cls-4" d="M245.35,49.34s1.17,2.78,1.54,3.91.56,2,.93,2a.45.45,0,0,1,.46.3l.18-.26s-.19,0-.06-.92S246.15,49,245.35,49.34Z"/><path class="cls-4" d="M255.2,55.52s-4.17.82-5.17.92a1.43,1.43,0,0,1-1.42-.68l-.49,0-.2,0a3.12,3.12,0,0,0,.92-.41c.24-.22-.35-.61,1.67-.55S254.77,54.74,255.2,55.52Z"/><path class="cls-4" d="M245,50.49a5.32,5.32,0,0,0,.08,3.71c.8,1.92,1.16,2.65,1.4,2.56a.79.79,0,0,0,.37-.27l.22.66.18-.27s-.34-.34-.16-.61-.48-.69-1.18-3A21.67,21.67,0,0,0,245,50.49Z"/><path class="cls-4" d="M254.1,57.2a13.33,13.33,0,0,0-4.19-.58,4.3,4.3,0,0,0-2.14,1L247,57.5l-.17.26s.81,0,.7.21-.41.62,1.28.33S253.58,57,254.1,57.2Z"/><path class="cls-4" d="M253,58.89s-3.28.88-4.72,1.08-1.91-.36-1.91-.36l-.88-.07.12-.18.88.07s-.09-.43.78-.62S252.4,58.24,253,58.89Z"/><path class="cls-4" d="M246.24,58.39l-.22-.66a1.52,1.52,0,0,0,.22-1.62c-.43-.91-2.06-2-2.55-2.8a6,6,0,0,1-.66-1.7,4.41,4.41,0,0,0,.29,2.84c.69,1.08,1.43,2.08,1.79,2.82s.68.82.68.82l.28.56Z"/><path class="cls-4" d="M245.26,59.89l-.16-.61s.39-.88-.75-2.13-1.46-1.33-1.9-2.38a6,6,0,0,1-.45-1.3,10.49,10.49,0,0,0,.78,3.79,4.8,4.8,0,0,0,2.09,2.37l.22.53Z"/><path class="cls-4" d="M251.82,60.26a25.27,25.27,0,0,1-4.55,1.83,3,3,0,0,1-2.41-.31l-.82,0,.31-.18.56-.14a1.56,1.56,0,0,1,1.21-.85C247.11,60.34,251.41,59.74,251.82,60.26Z"/><path class="cls-4" d="M240.56,54.67s-.08,3,.89,4.5A10,10,0,0,0,244,61.75l.17-.1a.32.32,0,0,1-.26-.47c.17-.4-.18-1-1.37-3S240.56,54.67,240.56,54.67Z"/><path class="cls-4" d="M250.67,63.3a29.36,29.36,0,0,1-5,.65c-1.64-.06-2-.53-2-.53l-.81.23.18-.27.68-.18s.13-1.05,1.64-1A49,49,0,0,1,250.67,63.3Z"/><path class="cls-4" d="M239,57.06a2.61,2.61,0,0,0,.47,2.71,10.45,10.45,0,0,1,2.55,2.8c.42.91.64,1.43.64,1.43l.11-.3-.22-.53s.87-.32.36-1.53-2.55-1.67-3-2.62A19.48,19.48,0,0,1,239,57.06Z"/><path class="cls-4" d="M250,65.11a13,13,0,0,1-4,.55c-2.2-.06-3.42.53-3.63.27a2.22,2.22,0,0,0-.72-.46l.18-.27a1.42,1.42,0,0,0,.74-.14c.31-.18.08-.84,1.28-.81s4.24.5,5,.61A8,8,0,0,1,250,65.11Z"/><path class="cls-4" d="M241.92,64.15c.33-.52-.53-1.48-2-2.29s-2.13-1-2.35-1.67-.39-1.26-.39-1.26a1.88,1.88,0,0,0,.32,2.36c1.13,1.12,1.91,1.5,2.52,2.28s.71,1.47,1,1.51.48-.31.48-.31l.1.7.18-.27A1.47,1.47,0,0,1,241.92,64.15Z"/><path class="cls-4" d="M248.63,67.14a4.4,4.4,0,0,1-3.16.84c-1.78-.27-2.24-.57-3-.21a7.75,7.75,0,0,1-2.58.27l.25-.27.69-.06s-.55-.73,1-1.11a4.77,4.77,0,0,1,3.72.16A4.65,4.65,0,0,0,248.63,67.14Z"/><path class="cls-4" d="M240.4,67.32l-.24-.91s.43-.1.06-1.23-1.54-1.5-2.78-2.45a5.36,5.36,0,0,1-1.7-2.11,3.41,3.41,0,0,0,.68,3,19.19,19.19,0,0,1,2.48,2.76,1,1,0,0,0,1.16.51l.17.74Z"/><path class="cls-4" d="M233.68,63.06a7.58,7.58,0,0,0,1.61,4c1.41,1.56,2.11,2.77,2.48,2.76a1,1,0,0,0,.56-.14l.15.48.18-.26-.21-.39s.86-.32.1-1.45-2.71-1.27-3.62-2.87S233.68,63.06,233.68,63.06Z"/><path class="cls-4" d="M247.47,68.91a4,4,0,0,1-2.95,1.23,18.89,18.89,0,0,0-3.6-.33,7.06,7.06,0,0,1-2.09-.23l.17-.26s.27.3.45.16.68-1.32,1.56-1.38a10.47,10.47,0,0,1,4,.59A4,4,0,0,0,247.47,68.91Z"/><path class="cls-4" d="M245.71,71.17c-.13-.08-2.64,1-4.59,1a4.79,4.79,0,0,1-2.81-.69l-.93.27.18-.26.74-.28a1.71,1.71,0,0,1,1.26-1.07,13.47,13.47,0,0,1,4.42.5C245.14,71.05,245.71,71.17,245.71,71.17Z"/><path class="cls-4" d="M236.91,72.37l-.11-1s.54-.4.11-1.31-1.25-1.08-2.53-2.55a7.55,7.55,0,0,1-1.62-3.08s-.65,1.85,1,4.45,2.8,2.71,2.8,2.71l.24.92Z"/><path class="cls-4" d="M235.53,74.49a5.94,5.94,0,0,0-.06-1c-.08-.18-.21-.4-.21-.4s.61-.22.46-.7-1.26-1.21-2.79-2.58a9.92,9.92,0,0,1-2.25-3.12,6.63,6.63,0,0,0,1.43,4.09c1.56,2,2.18,3.07,2.55,2.94a1,1,0,0,0,.49-.32s.36.87.19,1.27S235.53,74.49,235.53,74.49Z"/><path class="cls-4" d="M244.56,73.08l-4.75-.71c-.77-.12-1.24-.68-2-.06a5.47,5.47,0,0,0-1.07,1.07l-.5.05-.24.23h.57s-.61.36,1,.51a18.46,18.46,0,0,0,4.32-.21C243.66,73.75,244.39,73.47,244.56,73.08Z"/><path class="cls-4" d="M243.67,75.15a22,22,0,0,0-4.29-1.42,6.77,6.77,0,0,0-3.77,1.07,2.5,2.5,0,0,1-.67.45l-.3.18s-.43.22.89.33,2.74-.48,4.44-.51S243.67,75.15,243.67,75.15Z"/><path class="cls-4" d="M234.06,76.31s.19-1,.05-1.22l-.27-.44s.42-.35,0-1-1.64-1.2-2.78-2.45a8.38,8.38,0,0,1-1.62-3.08s.19,3.28,1.48,5,2.37,1.93,2.56,1.92a.39.39,0,0,1,.4.39l.06,1Z"/><path class="cls-4" d="M242.7,76.78a5.06,5.06,0,0,1-2.74-.52c-1-.68-2-1.28-2.77-1.18s-3,1.93-3,1.93l-.51-.08-.11.18.5.08s-.27.7.92.6,1.71-.78,3.57-.19A4.21,4.21,0,0,0,242.7,76.78Z"/><path class="cls-4" d="M233.07,77.69a5,5,0,0,0,.19-1,2.09,2.09,0,0,0-.58-2.4c-1.2-1.29-2.46-1.36-3.57-2.09a4.62,4.62,0,0,1-1.46-1.33s-.08.83,1.78,2.55,2.44,2,2.92,2.8.72.47.72.47L233,77.86Z"/><path class="cls-4" d="M231.89,79.19l-.14-.34a1.35,1.35,0,0,0,.42-1.5c-.37-.87-1.28-.33-3.28-2.39a18.73,18.73,0,0,1-2.7-3.29A6.1,6.1,0,0,0,228,76.11,11.59,11.59,0,0,0,231.57,79Z"/><path class="cls-4" d="M230.54,80.84l-.09-.44s.47-.71.13-1.05a6.88,6.88,0,0,1-3.12-2.93c-1.59-2.55-1.64-3.47-1.64-3.47a8.46,8.46,0,0,0,1.38,5.45c1.78,2.68,3.08,2.27,3.08,2.27l.15.34Z"/><path class="cls-4" d="M241.39,79.21a6.39,6.39,0,0,1-3.45.15c-1.54-.5-3.65-1.12-4.68-.54a3.23,3.23,0,0,0-1.37,1.38l-.82,0-.12.18.88-.06s-.35.4,1.1.59a46.64,46.64,0,0,0,5,0A4.4,4.4,0,0,0,241.39,79.21Z"/><path class="cls-4" d="M239.87,82.39a.82.82,0,0,1-1.06.19c-.58-.38-2.83-2.36-4.15-2.34a13.78,13.78,0,0,0-3.6.94l-.68,0-.13,0,.76.12s-.28.57,1.37.76,1.74-.38,3.36.56S239.83,83.88,239.87,82.39Z"/><path class="cls-4" d="M237.89,85.13s-2.57-2-4.28-2.29-2.94-.78-3.36-.42a3,3,0,0,0-.59.62l-.39-.26-.17.27.39.25s-.61.36.22.66,2.39-.09,4.12.54S237.47,85.49,237.89,85.13Z"/><path class="cls-4" d="M229.31,82.43l-.08-.3s.36-.27.09-.57a13.5,13.5,0,0,1-3.39-2.22A16.84,16.84,0,0,1,222.72,76s-.4,1.75,1.92,3.9,2.9,2.41,3.24,2.75.52.34.77.25a.72.72,0,0,0,.35-.4l.2.13Z"/><path class="cls-4" d="M236.47,89a6,6,0,0,0-3-3.63c-2.32-1-3.92-1.42-4.34-1.06a7.78,7.78,0,0,0-.71.67l-.52-.35-.18.27.52.34s-.49.18.24.79,1.87.84,3.9,1.16S236.18,88.18,236.47,89Z"/><path class="cls-4" d="M228,84.25l-.32-.22s.27-.7-.19-1-3.6-1.47-4.83-3.16-1.21-2.43-1.21-2.43a4.6,4.6,0,0,0,.71,3.49,17,17,0,0,0,4.68,3.82.92.92,0,0,0,.73-.41l.32.08Z"/><path class="cls-4" d="M226.53,86.55l-.33-.21s.39-.89.13-1.06a23,23,0,0,1-4.61-2.5,7.59,7.59,0,0,1-2.28-2.5s-1,.76,1,2.78,4.43,3.91,5,3.9a.56.56,0,0,0,.6-.49l.33.34Z"/><path class="cls-4" d="M234.58,91.05s-2.06-3-4.17-3.6-3-.83-3.29-.52a.72.72,0,0,1-.69.19l-.24.09s.69.08.52.34-.09.7.89,1.34,2.69.75,4.49,1.55S234.58,91.05,234.58,91.05Z"/><polygon class="cls-5" points="219.29 137.47 195.68 131.2 203.7 83.15 236.16 91.77 219.29 137.47"/><rect class="cls-6" x="151.23" y="127.65" width="72.51" height="25.84"/><path d="M155.47,106.05c1.75-9,18.52-6.56,30.47-6.17s22-4.63,28.16-.39,4.63,54,4.63,54H162S152.77,119.94,155.47,106.05Z"/><polygon class="cls-6" points="198.48 103.56 174.13 103.56 176.16 80.98 193.41 80.98 198.48 103.56"/><path class="cls-7" d="M175,94.49a22,22,0,0,0,11.36,2.94,22.51,22.51,0,0,0,10.27-2.34L193.41,81H176.16Z"/><path class="cls-8" d="M175.92,57.45a10.61,10.61,0,0,0-7.33,7.72c-.77,3.85.77,15.42,5,18.51s22.87-.45,23.92-.77c6.17-1.93,3.85-17.36.77-20.44S184,54.75,175.92,57.45Z"/><path class="cls-7" d="M167.21,71.11c.81-4,6.74-.39,5.64,7C171.75,85.72,166,77.05,167.21,71.11Z"/><path class="cls-9" d="M171.75,79.05s0,0-.06,0a.23.23,0,0,1,0-.23,8.65,8.65,0,0,0,0-3.86c-.22-1.15-.78-3.16-2.06-3.47a1.13,1.13,0,0,0-1.43.7,5.58,5.58,0,0,0-.21,2.43.35.35,0,0,1-.06.23s-.1,0-.12-.12A6.39,6.39,0,0,1,168,72a1.27,1.27,0,0,1,1.59-.81c1,.24,1.8,1.59,2.19,3.71a9.26,9.26,0,0,1,0,4.2Z"/><path class="cls-9" d="M169.63,78.4s-.06,0-.08-.12a16.83,16.83,0,0,1,.3-7c0-.08.07-.12.11-.08a.29.29,0,0,1,0,.23,16.2,16.2,0,0,0-.29,6.72.29.29,0,0,1,0,.23S169.63,78.4,169.63,78.4Z"/><path class="cls-7" d="M196.88,78.13c-1.1-7.41,4.83-11,5.64-7C203.72,77.05,198,85.72,196.88,78.13Z"/><path class="cls-9" d="M197.93,79.05a9.26,9.26,0,0,1,0-4.2c.39-2.12,1.18-3.47,2.19-3.71a1.27,1.27,0,0,1,1.59.81,6.39,6.39,0,0,1,.25,2.74c0,.08-.08.16-.12.12a.34.34,0,0,1,0-.23,5.65,5.65,0,0,0-.22-2.43,1.13,1.13,0,0,0-1.43-.7c-1.28.31-1.84,2.32-2.06,3.47a8.65,8.65,0,0,0,0,3.86.23.23,0,0,1,0,.23s0,0,0,0Z"/><path class="cls-9" d="M200.06,78.36a.29.29,0,0,1,0-.23,16.2,16.2,0,0,0-.29-6.72.29.29,0,0,1,0-.23s.1,0,.12.08a16.73,16.73,0,0,1,.29,7c0,.08,0,.12-.08.12S200.08,78.4,200.06,78.36Z"/><path class="cls-6" d="M184.92,58.05c-8.43-2.43-14.79,2.48-14.79,15.47,0,6.36,1.34,7.68,3.63,13.12,1.12,2.68,7.08,8,10.92,9h.48c3.84-1,9.8-6.32,10.92-9,2.28-5.44,3.63-6.76,3.63-13.12C199.71,60.53,193.35,55.62,184.92,58.05Z"/><path class="cls-8" d="M170.13,62.85s5.37,0,8.87,1.93c4.24,2.31,11.56,5.65,18.13,5,12-1.15,3.47-14.65.39-14.65.77,1.15-.78,2.7-2.32,2.31S179.39,40.87,170.13,62.85Z"/><path class="cls-10" d="M180.7,84.1s.5,3.09,2.31,3.75,3.71.23,4.52-.81a8.88,8.88,0,0,0,1.27-3Z"/><path class="cls-9" d="M184.79,82.83a.51.51,0,0,1-.35-.11,1,1,0,0,1-.23-.74v-.11a.85.85,0,0,0-.27.23.65.65,0,0,1-.58.19.92.92,0,0,1-.58-.73,4.11,4.11,0,0,1,.5-1.81.18.18,0,0,1,.23-.08.18.18,0,0,1,.08.23,2.91,2.91,0,0,0-.46,1.54c.08.31.19.43.31.47s.15,0,.19-.08c.27-.27.46-.39.62-.39a.33.33,0,0,1,.23.16.71.71,0,0,1,0,.31.79.79,0,0,0,.11.5s.12,0,.23,0,.27-.24.27-.62c0-.19,0-.35.08-.43a.36.36,0,0,1,.19-.07c.16,0,.24.11.35.19s.31.19.46.08a.4.4,0,0,0,.08-.39,2.57,2.57,0,0,0-.62-1.43c-.07,0-.07-.15,0-.23a.2.2,0,0,1,.23,0,2.84,2.84,0,0,1,.77,1.7.82.82,0,0,1-.19.66.66.66,0,0,1-.93,0l-.08-.08v.08c0,.31,0,.89-.58,1Zm-.54-1Z"/><ellipse class="cls-9" cx="177.58" cy="76.93" rx="0.66" ry="1.31"/><path class="cls-9" d="M175.29,73.5a5.25,5.25,0,0,1,2.63-1.08,4.57,4.57,0,0,1,2.31.54c.46.11.54-.54.27-1.08s-1.23-1-2.85-.93a3.83,3.83,0,0,0-2.94,1.27C174.25,72.69,174.6,74.08,175.29,73.5Z"/><ellipse class="cls-9" cx="190.61" cy="77.01" rx="0.66" ry="1.31"/><path class="cls-9" d="M188,72.8a5.31,5.31,0,0,1,2.8-.42,4.56,4.56,0,0,1,2.12,1.08c.42.22.65-.4.52-1s-1-1.23-2.55-1.58a4,4,0,0,0-3.15.53C187.17,71.8,187.19,73.19,188,72.8Z"/><path class="cls-9" d="M189.69,88.54a26.55,26.55,0,0,1-2,3.82,10.61,10.61,0,0,1-5.48,0,26.55,26.55,0,0,1-2-3.82l-1,.23s1.54,5,1.78,5.4a13.1,13.1,0,0,0,3.74,2.24v.08l.19,0,.19,0v-.08a13.1,13.1,0,0,0,3.74-2.24c.24-.42,1.78-5.4,1.78-5.4Z"/><rect class="cls-9" x="184.4" y="88.69" width="1.54" height="3.09"/><ellipse class="cls-6" cx="186.14" cy="103" rx="13.69" ry="5.37"/><path d="M160.1,102.25c7.27,1,8.1,5.8,8.87,9.11s.77,20.72.77,20.72L146.6,135s.77-15.33,3.09-24C151.59,103.78,157,101.83,160.1,102.25Z"/><path d="M211.9,100.32c-7.27,1-8.1,5.8-8.87,9.11s-.77,20.72-.77,20.72l23.14,2.9s-.77-15.33-3.08-24C220.41,101.85,215,99.9,211.9,100.32Z"/><path class="cls-6" d="M211.87,115.52c-.5-.94-2.34.27-2.61,1s.54,8.87.54,8.87-2.55,2.08-2.61,4.79,3.56,4.78,3.78,5.1-.43,2.82,3,4.25,6.11.43,6.38-1.38-5.63-15-6.59-17.54S212.29,116.32,211.87,115.52Z"/><path class="cls-6" d="M161.87,117.33c.5-.94,2.34.26,2.61,1s-.54,8.87-.54,8.87,2.55,2.07,2.61,4.78-3.56,4.79-3.78,5.11.43,2.81-3,4.25-6.11.42-6.38-1.38,5.63-15,6.59-17.54S161.45,118.12,161.87,117.33Z"/><path class="cls-11" d="M220.08,153.88l-.57-9.1s-1.28,4.09-5,4.09-8.45-3.08-15.1-5.69a34.19,34.19,0,0,0-13.21-2,29,29,0,0,0-11.23,2c-6.64,2.61-11.32,5.69-15.09,5.69s-5.05-4.09-5.05-4.09l-.57,9.1Z"/><path class="cls-11" d="M155.56,153.88c0-.59-.05-1.18-.05-1.78a32.1,32.1,0,1,1,64.2,0c0,.6,0,1.19-.06,1.78h6.63c0-.59,0-1.19,0-1.78a38.72,38.72,0,1,0-77.43,0c0,.59,0,1.19,0,1.78Z"/><path class="cls-6" d="M155.25,120.28a48.08,48.08,0,0,1,7.92,7.81c.75,1.27.27,3.35-1.48,2.87s-8-6.17-9.09-7.6S153.24,119.11,155.25,120.28Z"/><path class="cls-6" d="M151.34,122.89c1.67.79,7.67,6,8.51,7.17s.53,3.31-1.26,3-8.43-5.52-9.65-6.86S149.24,121.88,151.34,122.89Z"/><path class="cls-6" d="M150.12,128a47.09,47.09,0,0,1,9.08,5.68c1,1.05,1,3.09-.8,3s-8.78-4.12-10.13-5.24S148,127.31,150.12,128Z"/><path class="cls-6" d="M150.66,132.87a39.42,39.42,0,0,1,7.39,5.13c.75.9.58,2.55-.93,2.38s-7.25-3.85-8.33-4.83A1.7,1.7,0,0,1,150.66,132.87Z"/><path class="cls-6" d="M218.49,118.47c-1.6.92-7.18,6.54-7.92,7.81s-.27,3.35,1.48,2.87,8-6.16,9.09-7.6S220.5,117.3,218.49,118.47Z"/><path class="cls-6" d="M222.4,121.08a48.78,48.78,0,0,0-8.51,7.17c-.84,1.21-.53,3.32,1.26,3s8.43-5.52,9.65-6.87S224.5,120.07,222.4,121.08Z"/><path class="cls-6" d="M223.62,126.18a47.12,47.12,0,0,0-9.08,5.69c-1,1-.95,3.09.8,3s8.78-4.13,10.13-5.25S225.76,125.5,223.62,126.18Z"/><path class="cls-6" d="M223.08,131.06a39.42,39.42,0,0,0-7.39,5.13c-.75.9-.58,2.56.93,2.39s7.25-3.85,8.33-4.83A1.7,1.7,0,0,0,223.08,131.06Z"/><path class="cls-12" d="M292.57,302.41c0,10.83-65.49,19.62-146.28,19.62S0,313.24,0,302.41c0-5.65,17.83-66.8,46.35-70.38,26.15-3.28,61.3-5.29,99.94-5.29,40.39,0,77,2.2,103.44,5.75S292.57,297,292.57,302.41Z"/><rect class="cls-13" x="4.86" y="230.98" width="102.71" height="35.27" rx="5.98" transform="translate(303.93 188.57) rotate(89.11)"/><g class="cls-14"><polygon points="62.6 207.47 66.83 199.68 74.9 199.14 74.75 189.1 68.38 189.19 62.47 198.87 62.6 207.47"/><polygon points="51.61 203.44 55.93 210.06 60.05 203.62 59.91 194.56 55.78 200.47 51.46 193.96 51.61 203.44"/><polygon points="48.79 199.08 42.59 189.59 36.22 189.69 36.37 199.74 44.46 200.03 48.93 207.68 48.79 199.08"/><polygon points="62.81 221.14 67.04 213.35 75.11 212.81 74.96 202.77 68.59 202.87 62.68 212.54 62.81 221.14"/><polygon points="56.14 223.73 60.26 217.29 60.12 208.23 55.99 214.15 51.67 207.63 51.82 217.11 56.14 223.73"/><polygon points="49 212.75 42.8 203.26 36.43 203.36 36.58 213.41 44.67 213.7 49.14 221.35 49 212.75"/><polygon points="63.04 236.05 67.27 228.27 75.34 227.73 75.19 217.68 68.82 217.78 62.91 227.46 63.04 236.05"/><polygon points="56.37 238.64 60.49 232.21 60.35 223.14 56.22 229.06 51.9 222.55 52.05 232.03 56.37 238.64"/><polygon points="49.23 227.67 43.03 218.18 36.66 218.28 36.81 228.32 44.9 228.62 49.37 236.26 49.23 227.67"/><polygon points="63.25 249.72 67.48 241.94 75.55 241.4 75.4 231.35 69.03 231.45 63.12 241.13 63.25 249.72"/><polygon points="56.58 252.31 60.7 245.88 60.56 236.82 56.44 242.73 52.11 236.22 52.26 245.7 56.58 252.31"/><polygon points="49.45 241.34 43.24 231.85 36.87 231.95 37.02 242 45.11 242.29 49.58 249.94 49.45 241.34"/><polygon points="63.46 263.4 67.69 255.61 75.77 255.07 75.61 245.03 69.24 245.13 63.33 254.8 63.46 263.4"/><polygon points="56.79 265.99 60.92 259.55 60.78 250.49 56.65 256.4 52.32 249.89 52.47 259.37 56.79 265.99"/><polygon points="49.66 255.01 43.45 245.52 37.08 245.62 37.24 255.67 45.32 255.96 49.79 263.61 49.66 255.01"/><polygon points="63.67 277.07 67.9 269.28 75.98 268.75 75.82 258.7 69.45 258.8 63.54 268.47 63.67 277.07"/><polygon points="57.01 279.66 61.13 273.22 60.99 264.16 56.86 270.08 52.53 263.56 52.68 273.04 57.01 279.66"/><polygon points="49.87 268.68 43.66 259.2 37.29 259.29 37.45 269.34 45.53 269.63 50 277.28 49.87 268.68"/><polygon points="63.9 291.98 68.14 284.2 76.21 283.66 76.05 273.61 69.68 273.71 63.77 283.39 63.9 291.98"/><polygon points="57.24 294.57 61.36 288.14 61.22 279.07 57.09 284.99 52.77 278.48 52.91 287.96 57.24 294.57"/><polygon points="50.1 283.6 43.89 274.11 37.52 274.21 37.68 284.25 45.76 284.55 50.23 292.19 50.1 283.6"/><polygon points="64.11 305.65 68.35 297.87 76.42 297.33 76.26 287.29 69.89 287.38 63.98 297.06 64.11 305.65"/><polygon points="57.45 308.24 61.57 301.81 61.43 292.75 57.3 298.66 52.98 292.15 53.12 301.63 57.45 308.24"/><polygon points="44.1 287.78 37.73 287.88 37.89 297.93 45.97 298.22 50.44 305.87 50.31 297.27 44.1 287.78"/></g><rect class="cls-13" x="193.09" y="230.98" width="102.71" height="35.27" rx="5.98" transform="translate(489.25 0.36) rotate(89.11)"/><g class="cls-15"><polygon points="250.83 207.47 255.06 199.68 263.13 199.14 262.97 189.1 256.6 189.19 250.69 198.87 250.83 207.47"/><polygon points="239.83 203.44 244.16 210.06 248.28 203.62 248.14 194.56 244.01 200.47 239.69 193.96 239.83 203.44"/><polygon points="237.02 199.08 230.81 189.59 224.44 189.69 224.6 199.74 232.69 200.03 237.15 207.68 237.02 199.08"/><polygon points="251.04 221.14 255.27 213.35 263.34 212.81 263.19 202.77 256.82 202.87 250.91 212.54 251.04 221.14"/><polygon points="244.37 223.73 248.49 217.29 248.35 208.23 244.22 214.15 239.9 207.63 240.05 217.11 244.37 223.73"/><polygon points="237.23 212.75 231.03 203.26 224.66 203.36 224.81 213.41 232.9 213.7 237.37 221.35 237.23 212.75"/><polygon points="251.27 236.05 255.5 228.27 263.57 227.73 263.42 217.68 257.05 217.78 251.13 227.46 251.27 236.05"/><polygon points="244.6 238.64 248.72 232.21 248.58 223.14 244.45 229.06 240.13 222.55 240.28 232.03 244.6 238.64"/><polygon points="237.46 227.67 231.26 218.18 224.89 218.28 225.04 228.32 233.13 228.62 237.6 236.26 237.46 227.67"/><polygon points="251.48 249.72 255.71 241.94 263.78 241.4 263.63 231.35 257.26 231.45 251.35 241.13 251.48 249.72"/><polygon points="244.81 252.31 248.93 245.88 248.79 236.82 244.66 242.73 240.34 236.22 240.49 245.7 244.81 252.31"/><polygon points="237.67 241.34 231.47 231.85 225.1 231.95 225.25 242 233.34 242.29 237.81 249.94 237.67 241.34"/><polygon points="251.69 263.4 255.92 255.61 263.99 255.07 263.84 245.03 257.47 245.13 251.56 254.8 251.69 263.4"/><polygon points="245.02 265.99 249.14 259.55 249 250.49 244.87 256.4 240.55 249.89 240.7 259.37 245.02 265.99"/><polygon points="237.89 255.01 231.68 245.52 225.31 245.62 225.46 255.67 233.55 255.96 238.02 263.61 237.89 255.01"/><polygon points="251.9 277.07 256.13 269.28 264.2 268.75 264.05 258.7 257.68 258.8 251.77 268.47 251.9 277.07"/><polygon points="245.23 279.66 249.36 273.22 249.22 264.16 245.09 270.08 240.76 263.56 240.91 273.04 245.23 279.66"/><polygon points="238.1 268.68 231.89 259.2 225.52 259.29 225.68 269.34 233.76 269.63 238.23 277.28 238.1 268.68"/><polygon points="252.13 291.98 256.36 284.2 264.44 283.66 264.28 273.61 257.91 273.71 252 283.39 252.13 291.98"/><polygon points="245.46 294.57 249.59 288.14 249.45 279.07 245.32 284.99 240.99 278.48 241.14 287.96 245.46 294.57"/><polygon points="238.33 283.6 232.12 274.11 225.75 274.21 225.91 284.25 233.99 284.55 238.46 292.19 238.33 283.6"/><polygon points="252.34 305.65 256.57 297.87 264.65 297.33 264.49 287.29 258.12 287.38 252.21 297.06 252.34 305.65"/><polygon points="245.68 308.24 249.8 301.81 249.66 292.75 245.53 298.66 241.21 292.15 241.35 301.63 245.68 308.24"/><polygon points="232.33 287.78 225.96 287.88 226.12 297.93 234.2 298.22 238.67 305.87 238.54 297.27 232.33 287.78"/></g><path class="cls-16" d="M64.24,95.85c-4.06,9.56-8.87,20.42-12.32,26.85-7.2,13.43-12.12,29.8-17.51,36.92s-13.93,14.82-18.19,23.67-3.93,18.83-3.93,18.83L156.73,199V95.85Z"/><path class="cls-17" d="M156.73,199H17.93a8.58,8.58,0,0,0-8.58,8.58V246.5H288V207.59a8.58,8.58,0,0,0-8.58-8.58Z"/><path class="cls-16" d="M24.92,128.92h15a3.36,3.36,0,0,1,3.36,3.36v9.31a0,0,0,0,1,0,0H24.92a2.15,2.15,0,0,1-2.15-2.15v-8.38A2.15,2.15,0,0,1,24.92,128.92Z"/><path class="cls-3" d="M14.26,221.28s15.61-2.29,18.78,0S43.3,240.6,43.3,240.6H22.77Z"/><path class="cls-10" d="M20.81,190.17c2.51-4.81,33.08-6.23,38.32-2.62S70.92,201,69.61,203.27,13.28,204.58,20.81,190.17Z"/><circle class="cls-10" cx="80.99" cy="195.98" r="5.16"/><path class="cls-18" d="M6.73,246.5h150a0,0,0,0,1,0,0v21.29a0,0,0,0,1,0,0H9.63a2.9,2.9,0,0,1-2.9-2.9V246.5A0,0,0,0,1,6.73,246.5Z"/><path class="cls-19" d="M156.73,240.6h-67a5.19,5.19,0,0,1-5.14-5.92l3.36-23.33a8.32,8.32,0,0,1,8.24-7.14h60.59Z"/><rect class="cls-18" x="106.78" y="205.89" width="49.95" height="5.39"/><rect class="cls-18" x="106.78" y="215.48" width="49.95" height="5.39"/><rect class="cls-18" x="106.78" y="222.67" width="49.95" height="5.39"/><rect class="cls-18" x="106.78" y="232.26" width="49.95" height="5.39"/><polygon class="cls-3" points="107.27 243.22 101.05 243.22 106.29 201.14 112.51 201.14 107.27 243.22"/><rect class="cls-19" x="131.75" y="257.14" width="24.97" height="6.71"/><path class="cls-16" d="M262.91,159.62c-5.4-7.12-10.31-23.49-17.51-36.92-3.45-6.43-8.26-17.29-12.32-26.85H140.59V199L285,202.12s.32-10-3.93-18.83S268.31,166.73,262.91,159.62Z"/><path class="cls-16" d="M256.17,128.92h18.37a0,0,0,0,1,0,0v9.31a3.36,3.36,0,0,1-3.36,3.36h-15a2.15,2.15,0,0,1-2.15-2.15v-8.38a2.15,2.15,0,0,1,2.15-2.15Z" transform="translate(528.57 270.51) rotate(180)"/><path class="cls-3" d="M283.06,221.28s-15.61-2.29-18.78,0S254,240.6,254,240.6h20.53Z"/><path class="cls-10" d="M276.51,190.17c-2.51-4.81-33.08-6.23-38.32-2.62S226.4,201,227.71,203.27,284,204.58,276.51,190.17Z"/><circle class="cls-10" cx="216.33" cy="195.98" r="5.16"/><path class="cls-18" d="M143.49,246.5h147.1a0,0,0,0,1,0,0v21.29a0,0,0,0,1,0,0h-150a0,0,0,0,1,0,0V249.4A2.9,2.9,0,0,1,143.49,246.5Z" transform="translate(431.19 514.28) rotate(-180)"/><path class="cls-20" d="M67.79,95.85,51.6,136.78s5.24,14.08,26.85,15.72c14.25,1.08,43.7,1.45,62.14,1.57v.07l8.07,0,8.07,0v-.07c18.44-.12,47.89-.49,62.14-1.57,21.61-1.64,26.85-15.72,26.85-15.72L229.53,95.85Z"/><path class="cls-21" d="M91.94,153q13.78.62,27.61.76c-.42-3.56-2.55-19.43-7.48-22.78-5.66-3.86-13-2.16-16.65-.14-2.77,1.56-5.7,15.63-6.9,22C89.66,152.89,90.8,152.93,91.94,153Z"/><path class="cls-22" d="M97.34,153.2q7.65.3,15.31.44c-1.28-6-3.16-15.53-2.54-17.71a9.21,9.21,0,0,0-1.1-6.49,17.7,17.7,0,0,0-12,.62c-.6,4,1.37,9.27,1.9,10.18S98.32,148,97.34,153.2Z"/><path class="cls-21" d="M100.74,97.17c9.67.42,9.31,9.16,10.44,14.15s2.67,11.08,1.92,16.72c-1.25,9.37-18.26,10.41-19.63-.74-1-8.19-.51-10.26-.48-14.37S92.54,96.81,100.74,97.17Z"/><path class="cls-22" d="M113.1,128a28.29,28.29,0,0,0,0-7.06,57.1,57.1,0,0,0-7.51-1.2c-.29,0-1.8-9.82-2-10.86a2.15,2.15,0,0,1,1.48-2.34s-1.63.29-2,0a5.26,5.26,0,0,1-1.74-2.66c.29,1.47-.6,2-.9,2.64s-1.47.86-1.47.86,1.47,0,2,3,1.4,8.22.8,9.68c-.47,1.15-5.69,1.17-8.6,4.16.08.93.2,2,.34,3.1C94.84,138.45,111.85,137.41,113.1,128Z"/><path class="cls-23" d="M94.66,99.53c2.6,0-.45,7.55-2.54,13.4s.49,11.73-2.45,12.29-15.53-.12-15.8-3.35,4.71-2,8.84-5.5S92.41,99.57,94.66,99.53Z"/><path class="cls-23" d="M106.58,99.56c1.53-1.5,6.71,4.45,7.85,8.56s5.51,7.67,7.55,8.86,7,3.86,5.82,5.32-6.15-.64-7.33-.06-2.94,2-4.7,1.43-1.87-2.54-3.18-5.3c-4-8.54-1.39-10-4-15.28C107.88,101.6,105.7,100.43,106.58,99.56Z"/><path class="cls-9" d="M107.86,123c.44,1.12-1.78,2.92-3.24,2.9s-3.51-1.2-3.5-2.37S107.29,121.55,107.86,123Z"/><path class="cls-22" d="M100.61,114c0,2.16-.94,2.25-2.07,2.24s-2.05-.12-2-2.27,1-3.89,2.09-3.88S100.62,111.81,100.61,114Z"/><ellipse class="cls-9" cx="98.77" cy="113.33" rx="1.64" ry="0.62" transform="translate(-15.35 211.19) rotate(-89.54)"/><path class="cls-9" d="M99,128.81c.19-.37,1.75,1.48,2.92,1.49s2.07-2,2.66-2,.86,1.47,2.33,1.48,1.77-1.45,2.35-1.15-.6,1.75-2.06,1.74-2.34-1.19-2.63-1.19-1.48,1.75-2.65,1.74S98.73,129.39,99,128.81Z"/><path class="cls-22" d="M109.11,113.74c0,2.15-.94,2.25-2.07,2.24s-2.05-.12-2-2.28.95-3.89,2.08-3.88S109.13,111.58,109.11,113.74Z"/><ellipse class="cls-9" cx="107.27" cy="113.11" rx="1.64" ry="0.62" transform="translate(-6.69 219.47) rotate(-89.54)"/><path class="cls-21" d="M89.88,152.9c1.62-2.11,6.21-15.71,2.82-17.18s-8.81,13-9.1,17C85.7,152.75,87.79,152.82,89.88,152.9Z"/><path class="cls-22" d="M90.77,152.94c-.64-1.37-1.69-2.73-2.76-2.82a3.48,3.48,0,0,0-3.83,2.62C86.38,152.77,88.58,152.85,90.77,152.94Z"/><path class="cls-19" d="M140.59,240.6h67a5.18,5.18,0,0,0,5.13-5.92l-3.35-23.33a8.33,8.33,0,0,0-8.25-7.14H140.59Z"/><rect class="cls-18" x="140.59" y="205.89" width="49.95" height="5.39" transform="translate(331.13 417.17) rotate(-180)"/><rect class="cls-18" x="140.59" y="215.48" width="49.95" height="5.39" transform="translate(331.13 436.35) rotate(-180)"/><rect class="cls-18" x="140.59" y="222.67" width="49.95" height="5.39" transform="translate(331.13 450.73) rotate(-180)"/><rect class="cls-18" x="140.59" y="232.26" width="49.95" height="5.39" transform="translate(331.13 469.92) rotate(-180)"/><polygon class="cls-3" points="190.05 243.22 196.27 243.22 191.03 201.14 184.81 201.14 190.05 243.22"/><rect class="cls-19" x="140.59" y="257.14" width="24.97" height="6.71" transform="translate(306.16 521) rotate(-180)"/><g class="cls-24"><rect class="cls-6" x="151.23" y="127.65" width="72.51" height="25.84"/><path d="M155.47,106.05c1.75-9,18.52-6.56,30.47-6.17s22-4.63,28.16-.39,4.63,54,4.63,54H162S152.77,119.94,155.47,106.05Z"/><polygon class="cls-6" points="198.48 103.56 174.13 103.56 176.16 80.98 193.41 80.98 198.48 103.56"/><path class="cls-7" d="M175,94.49a22,22,0,0,0,11.36,2.94,22.51,22.51,0,0,0,10.27-2.34L193.41,81H176.16Z"/><path class="cls-8" d="M175.92,57.45a10.61,10.61,0,0,0-7.33,7.72c-.77,3.85.77,15.42,5,18.51s22.87-.45,23.92-.77c6.17-1.93,3.85-17.36.77-20.44S184,54.75,175.92,57.45Z"/><path class="cls-7" d="M167.21,71.11c.81-4,6.74-.39,5.64,7C171.75,85.72,166,77.05,167.21,71.11Z"/><path class="cls-9" d="M171.75,79.05s0,0-.06,0a.23.23,0,0,1,0-.23,8.65,8.65,0,0,0,0-3.86c-.22-1.15-.78-3.16-2.06-3.47a1.13,1.13,0,0,0-1.43.7,5.58,5.58,0,0,0-.21,2.43.35.35,0,0,1-.06.23s-.1,0-.12-.12A6.39,6.39,0,0,1,168,72a1.27,1.27,0,0,1,1.59-.81c1,.24,1.8,1.59,2.19,3.71a9.26,9.26,0,0,1,0,4.2Z"/><path class="cls-9" d="M169.63,78.4s-.06,0-.08-.12a16.83,16.83,0,0,1,.3-7c0-.08.07-.12.11-.08a.29.29,0,0,1,0,.23,16.2,16.2,0,0,0-.29,6.72.29.29,0,0,1,0,.23S169.63,78.4,169.63,78.4Z"/><path class="cls-7" d="M196.88,78.13c-1.1-7.41,4.83-11,5.64-7C203.72,77.05,198,85.72,196.88,78.13Z"/><path class="cls-9" d="M197.93,79.05a9.26,9.26,0,0,1,0-4.2c.39-2.12,1.18-3.47,2.19-3.71a1.27,1.27,0,0,1,1.59.81,6.39,6.39,0,0,1,.25,2.74c0,.08-.08.16-.12.12a.34.34,0,0,1,0-.23,5.65,5.65,0,0,0-.22-2.43,1.13,1.13,0,0,0-1.43-.7c-1.28.31-1.84,2.32-2.06,3.47a8.65,8.65,0,0,0,0,3.86.23.23,0,0,1,0,.23s0,0,0,0Z"/><path class="cls-9" d="M200.06,78.36a.29.29,0,0,1,0-.23,16.2,16.2,0,0,0-.29-6.72.29.29,0,0,1,0-.23s.1,0,.12.08a16.73,16.73,0,0,1,.29,7c0,.08,0,.12-.08.12S200.08,78.4,200.06,78.36Z"/><path class="cls-6" d="M184.92,58.05c-8.43-2.43-14.79,2.48-14.79,15.47,0,6.36,1.34,7.68,3.63,13.12,1.12,2.68,7.08,8,10.92,9h.48c3.84-1,9.8-6.32,10.92-9,2.28-5.44,3.63-6.76,3.63-13.12C199.71,60.53,193.35,55.62,184.92,58.05Z"/><path class="cls-8" d="M170.13,62.85s5.37,0,8.87,1.93c4.24,2.31,11.56,5.65,18.13,5,12-1.15,3.47-14.65.39-14.65.77,1.15-.78,2.7-2.32,2.31S179.39,40.87,170.13,62.85Z"/><path class="cls-10" d="M180.7,84.1s.5,3.09,2.31,3.75,3.71.23,4.52-.81a8.88,8.88,0,0,0,1.27-3Z"/><path class="cls-9" d="M184.79,82.83a.51.51,0,0,1-.35-.11,1,1,0,0,1-.23-.74v-.11a.85.85,0,0,0-.27.23.65.65,0,0,1-.58.19.92.92,0,0,1-.58-.73,4.11,4.11,0,0,1,.5-1.81.18.18,0,0,1,.23-.08.18.18,0,0,1,.08.23,2.91,2.91,0,0,0-.46,1.54c.08.31.19.43.31.47s.15,0,.19-.08c.27-.27.46-.39.62-.39a.33.33,0,0,1,.23.16.71.71,0,0,1,0,.31.79.79,0,0,0,.11.5s.12,0,.23,0,.27-.24.27-.62c0-.19,0-.35.08-.43a.36.36,0,0,1,.19-.07c.16,0,.24.11.35.19s.31.19.46.08a.4.4,0,0,0,.08-.39,2.57,2.57,0,0,0-.62-1.43c-.07,0-.07-.15,0-.23a.2.2,0,0,1,.23,0,2.84,2.84,0,0,1,.77,1.7.82.82,0,0,1-.19.66.66.66,0,0,1-.93,0l-.08-.08v.08c0,.31,0,.89-.58,1Zm-.54-1Z"/><ellipse class="cls-9" cx="177.58" cy="76.93" rx="0.66" ry="1.31"/><path class="cls-9" d="M175.29,73.5a5.25,5.25,0,0,1,2.63-1.08,4.57,4.57,0,0,1,2.31.54c.46.11.54-.54.27-1.08s-1.23-1-2.85-.93a3.83,3.83,0,0,0-2.94,1.27C174.25,72.69,174.6,74.08,175.29,73.5Z"/><ellipse class="cls-9" cx="190.61" cy="77.01" rx="0.66" ry="1.31"/><path class="cls-9" d="M188,72.8a5.31,5.31,0,0,1,2.8-.42,4.56,4.56,0,0,1,2.12,1.08c.42.22.65-.4.52-1s-1-1.23-2.55-1.58a4,4,0,0,0-3.15.53C187.17,71.8,187.19,73.19,188,72.8Z"/><path class="cls-9" d="M189.69,88.54a26.55,26.55,0,0,1-2,3.82,10.61,10.61,0,0,1-5.48,0,26.55,26.55,0,0,1-2-3.82l-1,.23s1.54,5,1.78,5.4a13.1,13.1,0,0,0,3.74,2.24v.08l.19,0,.19,0v-.08a13.1,13.1,0,0,0,3.74-2.24c.24-.42,1.78-5.4,1.78-5.4Z"/><rect class="cls-9" x="184.4" y="88.69" width="1.54" height="3.09"/><ellipse class="cls-6" cx="186.14" cy="103" rx="13.69" ry="5.37"/><path d="M160.1,102.25c7.27,1,8.1,5.8,8.87,9.11s.77,20.72.77,20.72L146.6,135s.77-15.33,3.09-24C151.59,103.78,157,101.83,160.1,102.25Z"/><path d="M211.9,100.32c-7.27,1-8.1,5.8-8.87,9.11s-.77,20.72-.77,20.72l23.14,2.9s-.77-15.33-3.08-24C220.41,101.85,215,99.9,211.9,100.32Z"/><path class="cls-6" d="M211.87,115.52c-.5-.94-2.34.27-2.61,1s.54,8.87.54,8.87-2.55,2.08-2.61,4.79,3.56,4.78,3.78,5.1-.43,2.82,3,4.25,6.11.43,6.38-1.38-5.63-15-6.59-17.54S212.29,116.32,211.87,115.52Z"/><path class="cls-6" d="M161.87,117.33c.5-.94,2.34.26,2.61,1s-.54,8.87-.54,8.87,2.55,2.07,2.61,4.78-3.56,4.79-3.78,5.11.43,2.81-3,4.25-6.11.42-6.38-1.38,5.63-15,6.59-17.54S161.45,118.12,161.87,117.33Z"/><path class="cls-11" d="M220.08,153.88l-.57-9.1s-1.28,4.09-5,4.09-8.45-3.08-15.1-5.69a34.19,34.19,0,0,0-13.21-2,29,29,0,0,0-11.23,2c-6.64,2.61-11.32,5.69-15.09,5.69s-5.05-4.09-5.05-4.09l-.57,9.1Z"/><path class="cls-11" d="M155.56,153.88c0-.59-.05-1.18-.05-1.78a32.1,32.1,0,1,1,64.2,0c0,.6,0,1.19-.06,1.78h6.63c0-.59,0-1.19,0-1.78a38.72,38.72,0,1,0-77.43,0c0,.59,0,1.19,0,1.78Z"/><path class="cls-6" d="M155.25,120.28a48.08,48.08,0,0,1,7.92,7.81c.75,1.27.27,3.35-1.48,2.87s-8-6.17-9.09-7.6S153.24,119.11,155.25,120.28Z"/><path class="cls-6" d="M151.34,122.89c1.67.79,7.67,6,8.51,7.17s.53,3.31-1.26,3-8.43-5.52-9.65-6.86S149.24,121.88,151.34,122.89Z"/><path class="cls-6" d="M150.12,128a47.09,47.09,0,0,1,9.08,5.68c1,1.05,1,3.09-.8,3s-8.78-4.12-10.13-5.24S148,127.31,150.12,128Z"/><path class="cls-6" d="M150.66,132.87a39.42,39.42,0,0,1,7.39,5.13c.75.9.58,2.55-.93,2.38s-7.25-3.85-8.33-4.83A1.7,1.7,0,0,1,150.66,132.87Z"/><path class="cls-6" d="M218.49,118.47c-1.6.92-7.18,6.54-7.92,7.81s-.27,3.35,1.48,2.87,8-6.16,9.09-7.6S220.5,117.3,218.49,118.47Z"/><path class="cls-6" d="M222.4,121.08a48.78,48.78,0,0,0-8.51,7.17c-.84,1.21-.53,3.32,1.26,3s8.43-5.52,9.65-6.87S224.5,120.07,222.4,121.08Z"/><path class="cls-6" d="M223.62,126.18a47.12,47.12,0,0,0-9.08,5.69c-1,1-.95,3.09.8,3s8.78-4.13,10.13-5.25S225.76,125.5,223.62,126.18Z"/><path class="cls-6" d="M223.08,131.06a39.42,39.42,0,0,0-7.39,5.13c-.75.9-.58,2.56.93,2.39s7.25-3.85,8.33-4.83A1.7,1.7,0,0,0,223.08,131.06Z"/></g><path class="cls-25" d="M88.56,95.85l-33.71,46c3.57,4.18,10.57,9.58,23.36,10.61l43.73-56.63Z"/><path class="cls-25" d="M147,95.85l-44.72,57.66,8.23.19,44.89-57.85Z"/><path class="cls-25" d="M161.32,95.85l-45,58,8.28.12,45.11-58.07Z"/></svg>