<svg xmlns="http://www.w3.org/2000/svg" xmlns:xlink="http://www.w3.org/1999/xlink" viewBox="0 0 365.5 430.53"><defs><style>.cls-1{fill:none;}.cls-2{fill:#7c5349;}.cls-3{fill:#8a9995;}.cls-4{fill:#7ea21a;}.cls-5{fill:#3d211c;}.cls-6{opacity:0.15;}.cls-7{fill:#232323;}.cls-8{clip-path:url(#clip-path);}.cls-9{clip-path:url(#clip-path-2);}.cls-10,.cls-21{fill:#0c96fd;}.cls-11{fill:#1d7dcc;}.cls-12{fill:#fff;}.cls-13{fill:#606060;}.cls-14{fill:#303030;}.cls-15{fill:#3b3b3b;}.cls-16{fill:#f69576;}.cls-17{fill:#dd866f;}.cls-18{fill:#a5713d;}.cls-19{fill:#6b3425;}.cls-20{fill:#72645d;}.cls-21{opacity:0.21;}.cls-22{fill:#ff6d00;}.cls-23{fill:#ffdfc6;}.cls-24{fill:#a84400;}</style><clipPath id="clip-path"><rect class="cls-1" x="6.07" y="316.79" width="128.31" height="44.06" rx="7.47" transform="translate(407.93 263.37) rotate(89.11)"/></clipPath><clipPath id="clip-path-2"><rect class="cls-1" x="241.22" y="316.79" width="128.31" height="44.06" rx="7.47" transform="translate(639.44 28.26) rotate(89.11)"/></clipPath></defs><title>people</title><g id="Слой_7" data-name="Слой 7"><path class="cls-2" d="M257.56,116.52s-2.6-12.4-2.81-21.93-2.31-24.25-3.63-34.41S249,41.75,247.5,39s-2.92-2.13-2.92-2.13,2.18-.92,3.73,2.8c1.36,3.27,2.69,14.13,3.31,20s2.95,23.32,3.25,27.66.5,10.17,1.23,14.67,2.41,14.29,2.41,14.29Z"/><path class="cls-2" d="M245.78,35.56A6.74,6.74,0,0,0,246,37C246.14,37.43,246.29,36.28,245.78,35.56Z"/><path class="cls-2" d="M244.67,37.86s1.43,0,1.4-.2l-.06-.42A4.69,4.69,0,0,1,244.67,37.86Z"/><path class="cls-2" d="M246.59,35.45s0,.79-.05,1.13a3.55,3.55,0,0,1-.16.61.46.46,0,0,0,.49-.43A4.26,4.26,0,0,0,246.59,35.45Z"/><path class="cls-2" d="M245.11,38.13a8,8,0,0,0,2,1.18c.52,0,.59-.19.59-.19a1.17,1.17,0,0,1-.66-.36A6.61,6.61,0,0,0,245.11,38.13Z"/><path class="cls-2" d="M247.62,35.53a14.85,14.85,0,0,0-.46,1.86l.1.67s.21.08.35-.39A10.8,10.8,0,0,0,247.62,35.53Z"/><path class="cls-2" d="M244.77,38.63s1.39,1.83,2.14,2.06a1.56,1.56,0,0,0,1.31-.18l0-.11a.75.75,0,0,1-.74-.12C247.12,40,244.77,38.63,244.77,38.63Z"/><path class="cls-2" d="M248.7,35.94s-.22,2.06-.36,2.53a1.79,1.79,0,0,1-.41.73s.35.29.69-.21S248.7,35.94,248.7,35.94Z"/><path class="cls-2" d="M250.19,37.76A27.64,27.64,0,0,0,249,41.07a1.2,1.2,0,0,1-.21.71l0,.22a.94.94,0,0,0,.69-.21A24.84,24.84,0,0,0,250.19,37.76Z"/><path class="cls-2" d="M248.62,41.92a.45.45,0,0,1-.45-.28c-.15-.32-3.92-1.59-3.92-1.59a32.79,32.79,0,0,0,3.39,2.23c.54.15.69-.21.69-.21l.3,0Z"/><path class="cls-2" d="M243.82,41.35s4.67,2.61,4.82,2.92a.85.85,0,0,1,.08.56l.51,0-.08.12-.52,0s.26.41-.37.28S243.9,41.9,243.82,41.35Z"/><path class="cls-2" d="M251.88,39.55s-2.23,3.91-2.15,4.46a.64.64,0,0,1-.31.72l0,.11s.25-.38.48-.18.55.26.88-.35A19.4,19.4,0,0,0,251.88,39.55Z"/><path class="cls-2" d="M244.05,43a31.42,31.42,0,0,0,3.33,4c1.16,1,1.84.64,1.84.64l.3.11.09-.28a1.21,1.21,0,0,1-.48-.49C249,46.7,245,43.88,244.05,43Z"/><path class="cls-2" d="M252.92,41.88s-2.56,4.4-2.6,4.86a4.53,4.53,0,0,0,0,.89l-.39.17,0,.22.39-.17s.09.67.55.27S253.41,43.16,252.92,41.88Z"/><path class="cls-2" d="M243.94,46.62s5.07,3.22,5.34,3a1.12,1.12,0,0,1,.57-.3l0-.22a1.79,1.79,0,0,1-.59-.6C249,48.05,244.9,46.15,243.94,46.62Z"/><path class="cls-2" d="M254.05,44.47s-2.87,3.67-2.9,4.91a1.64,1.64,0,0,1-.81,1.57l0,.22a1.07,1.07,0,0,1,.86-.46c.52,0,.52,0,1.94-2.29A5.1,5.1,0,0,0,254.05,44.47Z"/><path class="cls-2" d="M244.16,48.16a5.13,5.13,0,0,0,2.73,2.66c2.19,1,2.61,1.09,2.8,1a.77.77,0,0,1,.5-.07l0-.22s-.19.14-.81-.67S244.16,48.16,244.16,48.16Z"/><path class="cls-2" d="M243.79,50.69s-.09.8,1.47,1.7a12.57,12.57,0,0,0,3.48,1.43c.85.22,1.13,0,1.11-.16s.63.14.63.14l0-.33-.52,0s.27-.26-.61-.7-2.19-.26-3.84-1S243.79,50.69,243.79,50.69Z"/><path class="cls-2" d="M255.27,47a10.33,10.33,0,0,1-1.57,2.69c-1.06,1.27-2.62,1.83-2.51,2.6l.11.77-.56.42,0,.33.54-.53s-.08.91.92,0a10.83,10.83,0,0,0,2.67-3.64C255.88,47.65,255.27,47,255.27,47Z"/><path class="cls-2" d="M243.78,53.5a4.63,4.63,0,0,0,3.34,1.89c2.17.15,2.88.84,3,.59s.16-.36.16-.36l.45.28,0-.23s-.57-.37-.61-.7-2.48-.1-3.88-.58A16.75,16.75,0,0,1,243.78,53.5Z"/><path class="cls-2" d="M256.17,49.74c-.1,0-2.61,3.29-3.41,4.19s-1.17,1.18-1,1.6-.62.65-.62.65l-.07.24.87-.35s-.12.58.84.11a5.51,5.51,0,0,0,2.6-2.61A8.15,8.15,0,0,0,256.17,49.74Z"/><path class="cls-2" d="M257.49,52.59s-1.58,2.59-2.53,3.85-1.58,1.9-2,1.74l-.43-.17-1.25.63-.06-.44s1.09-.27,1.06-.49-.72-.8,1-2.17S256.6,52.83,257.49,52.59Z"/><path class="cls-2" d="M244,55.15a6.22,6.22,0,0,0,3.23,2.59c2.27.81,3.39.76,3.37.65s.65.25.65.25l-.13-.21a1.64,1.64,0,0,1-.64-.92c-.19-.65-1.73-.66-3.78-1.38S244,55.15,244,55.15Z"/><path class="cls-2" d="M243.94,56.85a14.06,14.06,0,0,0,4.26,3.34c2.53,1.22,2.49.22,2.49.22l.55.26-.06-.45-.52,0s.84-.56-.47-1.17S244.87,57.62,243.94,56.85Z"/><path class="cls-2" d="M258,55.56S253.13,58,252.65,59a4.36,4.36,0,0,0-.51,1.53l-.65.43,0,.33.66-.43s.12.88,1.22-.06,2.08-2.76,3.09-3.58A6.72,6.72,0,0,0,258,55.56Z"/><path class="cls-2" d="M243.7,60.26s3.46,1.31,4.78,1.92,2.21,1.15,2.58.87a.69.69,0,0,1,.7-.1l0-.33s-.19.14-.81-.67S244.19,59.4,243.7,60.26Z"/><path class="cls-2" d="M258.65,57.94s-3.49,3.64-4.4,4.44a2.26,2.26,0,0,1-2,.5l-.46.39-.18.15a3.28,3.28,0,0,0,.58-1c0-.34-.86-.22,1.2-1.63S257.59,57.64,258.65,57.94Z"/><path class="cls-2" d="M244.27,61.42a5.67,5.67,0,0,0,3.16,2.82c2.38.9,3.35,1.21,3.52,1a.7.7,0,0,0,.14-.46l.77.34-.05-.33s-.62,0-.66-.36-1.06-.19-3.7-1.51A28.85,28.85,0,0,0,244.27,61.42Z"/><path class="cls-2" d="M259,60s-3.5,1.39-4.67,2.56A4.49,4.49,0,0,0,253,64.92l-.86.46.05.33s.84-.57.87-.35.11.78,1.55-.66S258.26,60.25,259,60Z"/><path class="cls-2" d="M259.24,62.13s-2.55,3.06-3.82,4.25a3.12,3.12,0,0,1-2.2,1.09l-.95.59,0-.22.95-.59s-.45-.27.26-1S258.1,62.07,259.24,62.13Z"/><path class="cls-2" d="M252.07,66.62l-.76-.34a1.48,1.48,0,0,0-1.12-1.42c-1.19-.39-3.7,0-4.87-.33a8.2,8.2,0,0,1-2.07-.84,4.92,4.92,0,0,0,2.64,2c1.59.34,3.16.57,4.12.88a2.14,2.14,0,0,0,1.36.15l.75.23Z"/><path class="cls-2" d="M252.33,68.5l-.66-.36s-.34-1-2.51-1.11-2.57,0-3.86-.47a7,7,0,0,1-1.54-.69,12.52,12.52,0,0,0,3.93,2.38,7.34,7.34,0,0,0,4,.33l.65.25Z"/><path class="cls-2" d="M259.2,64.05a28,28,0,0,1-3,4.7,4.38,4.38,0,0,1-2.66,1.5l-.84.56.15-.36.44-.51s-.29-.63.51-1.53S258.36,63.94,259.2,64.05Z"/><path class="cls-2" d="M243.32,67.85s2.38,2.36,4.6,2.84a15.59,15.59,0,0,0,4.74.12l.08-.19s-.48.25-.65-.18-1-.64-3.88-1.37Z"/><path class="cls-2" d="M260.57,67.23a37.13,37.13,0,0,1-4.45,4.11c-1.69,1.14-2.43,1-2.43,1l-.61.76,0-.33.52-.64s-.74-.91.86-1.92S260.57,67.23,260.57,67.23Z"/><path class="cls-2" d="M243.74,70.82a3,3,0,0,0,2.71,1.76,16.35,16.35,0,0,1,4.86.33c1.19.4,1.84.65,1.84.65l-.15-.32-.65-.25s.59-.87-.92-1.44-3.92.55-5.21.16S243.74,70.82,243.74,70.82Z"/><path class="cls-2" d="M261.35,69.15a16.18,16.18,0,0,1-3.54,3.3c-2.24,1.56-3,2.9-3.4,2.84a3.55,3.55,0,0,0-1.1.16l-.05-.33a2,2,0,0,0,.63-.65c.15-.36-.61-.71.6-1.55s4.65-2.68,5.51-3.13A12,12,0,0,1,261.35,69.15Z"/><path class="cls-2" d="M252.52,74.21c-.09-.65-1.75-.77-3.85-.36s-3,.75-3.73.41-1.43-.7-1.43-.7.21,1.54,2.27,1.59,3.15-.22,4.4-.05,1.94.63,2.22.47.23-.59.23-.59l.68.47-.05-.33A1.52,1.52,0,0,1,252.52,74.21Z"/><path class="cls-2" d="M261.7,71.69a5,5,0,0,1-2.46,2.93c-2,1.06-2.71,1.16-3.2,2a9.91,9.91,0,0,1-2.36,2.07l0-.4.64-.54s-1.15-.17.09-1.58a6.55,6.55,0,0,1,3.84-2.56A6.62,6.62,0,0,0,261.7,71.69Z"/><path class="cls-2" d="M253.63,77.76l-1-.53s.36-.39-1-1-2.77-.06-4.8.11a8,8,0,0,1-3.44-.42,4,4,0,0,0,3.12,1.81,28.56,28.56,0,0,1,4.77.35,1.51,1.51,0,0,0,1.58-.45l.78.45Z"/><path class="cls-2" d="M243.39,79.31a10,10,0,0,0,4.88,1.9c2.69.19,4.39.62,4.76.35a1.19,1.19,0,0,0,.44-.51l.55.26,0-.33-.54-.15s.6-.88-1.09-1.2-3.76,1-6,.39S243.39,79.31,243.39,79.31Z"/><path class="cls-2" d="M262,73.89A4.2,4.2,0,0,1,260.08,77a27.64,27.64,0,0,0-3.87,2.34,10.09,10.09,0,0,1-2.28,1.33l-.05-.33s.52,0,.59-.19-.41-1.52.41-2.2a15.53,15.53,0,0,1,4.48-2.42A5.63,5.63,0,0,0,262,73.89Z"/><path class="cls-2" d="M262.13,76.91c-.21,0-1.78,2.72-3.73,4.12A7.3,7.3,0,0,1,255,82.52l-.69.88,0-.33.51-.75a1.56,1.56,0,0,1,.37-1.73A19.47,19.47,0,0,1,260,77.77C261.45,77.23,262.13,76.91,262.13,76.91Z"/><path class="cls-2" d="M254.32,84.19l-.91-.66s.21-.71-1-1.1-2.15.07-4.64-.14a10.72,10.72,0,0,1-4.17-1.22s.88,1.9,4.69,2.72,5,.08,5,.08l1,.54Z"/><path class="cls-2" d="M254.69,86.84a6.43,6.43,0,0,0-.92-.77,3.39,3.39,0,0,0-.54-.15s.43-.63-.12-.89-2.26,0-4.92,0a14.71,14.71,0,0,1-4.83-.79,8.41,8.41,0,0,0,4.81,2.14c3.24.44,4.73.8,5,.43a1,1,0,0,0,.23-.6s1.08.41,1.24.84S254.69,86.84,254.69,86.84Z"/><path class="cls-2" d="M262.55,79.21l-5.34,2.89c-.86.46-1.79.36-2.06,1.41a4.64,4.64,0,0,0-.18,1.6l-.46.4,0,.35.55-.42s-.31.72,1.4-.31a24,24,0,0,0,4.15-3.28C262.2,80.39,262.71,79.64,262.55,79.21Z"/><path class="cls-2" d="M263.38,81.46a34.29,34.29,0,0,0-5.47,2A7.79,7.79,0,0,0,255,87a2.62,2.62,0,0,1-.3.83l-.15.36s-.24.48,1.17-.39,2.34-2.35,4-3.6S263.38,81.46,263.38,81.46Z"/><path class="cls-2" d="M254.73,89.3s-.64-.92-1-1l-.63-.13s.12-.58-.83-.79-2.63.26-4.8.11a11.6,11.6,0,0,1-4.17-1.21s2.9,2.4,5.62,2.81,4-.22,4.16-.36a.57.57,0,0,1,.71,0l.93.77Z"/><path class="cls-2" d="M263.76,83.43A7.44,7.44,0,0,1,260.59,85c-1.61.22-3,.42-3.74,1.08s-1.44,3.69-1.44,3.69l-.57.31,0,.22.57-.31s.31.75,1.41-.2,1.08-1.83,3.41-2.72S263.78,84.33,263.76,83.43Z"/><path class="cls-2" d="M254.88,91.08a5,5,0,0,0-.64-.92c-.24-.19-.29-1.31-2.56-1.44s-3.59.73-5.3,1a7.62,7.62,0,0,1-2.56,0s.61.7,3.89.69,4.07-.23,5.23,0,1.11-.15,1.11-.15l.86,1Z"/><path class="cls-2" d="M255,93.1l-.43-.17a1.23,1.23,0,0,0-.82-1.46c-1.08-.41-1.55.67-5.26.51a28.92,28.92,0,0,1-5.41-.59s1.6,1.91,5.43,2.17a19,19,0,0,0,6-.39Z"/><path class="cls-2" d="M255,95.34l-.45-.27s-.12-.88-.74-.91a10.7,10.7,0,0,1-5.54,0c-3.7-.83-4.52-1.51-4.52-1.51a10.21,10.21,0,0,0,5.89,3.23c4,.79,5-.47,5-.47l.43.17Z"/><path class="cls-2" d="M264.46,86.26a8.4,8.4,0,0,1-3.33,2.6c-1.95.72-4.57,1.76-5.12,3a2.86,2.86,0,0,0-.23,2.06l-.84.57,0,.22.83-.68s0,.57,1.59-.33,3.26-2.37,5-3.63S264.71,86.56,264.46,86.26Z"/><path class="cls-2" d="M265.57,89.81a1,1,0,0,1-.9.92c-.9.12-4.79.22-6.09,1.18a16,16,0,0,0-2.81,3.32l-.65.54-.08.13.86-.46s.19.65,2-.39,1.43-1.55,3.83-2S266.76,91,265.57,89.81Z"/><path class="cls-2" d="M265.86,93.37s-4.27.26-6.17,1.31-3.58,1.52-3.71,2.1a3.12,3.12,0,0,0-.08.91l-.6.08,0,.33L256,98s-.31.72.77.34,2.31-1.78,4.56-2.55S265.74,94,265.86,93.37Z"/><path class="cls-2" d="M255.05,97.47l-.33-.18a.38.38,0,0,0-.38-.51,20.13,20.13,0,0,1-5.23.73,26.16,26.16,0,0,1-6-.28s1.06,1.65,5.16,1.64,4.89-.24,5.5-.21.81-.11,1-.36a.63.63,0,0,0,0-.57l.3,0Z"/><path class="cls-2" d="M267.66,97.39a9,9,0,0,0-6-.62c-3.15.9-5.09,1.73-5.21,2.31a8.8,8.8,0,0,0-.17,1l-.8.12.05.33.8-.12s-.34.5.88.44,2.57-.69,4.86-1.91S266.67,97,267.66,97.39Z"/><path class="cls-2" d="M255.28,99.8l-.51.07a1,1,0,0,0-1-.65c-.7.1-4.82,1.47-7.44,1s-3.22-1-3.22-1a5.38,5.38,0,0,0,3.59,2.2,27.31,27.31,0,0,0,7.84-.42.88.88,0,0,0,.39-.84l.39-.17Z"/><path class="cls-2" d="M255.68,102.67l-.5.07s-.34-1-.75-.91a35.74,35.74,0,0,1-6.67,1.38,11.6,11.6,0,0,1-4.35-.29s-.34,1.28,3.28,1.45,7.66-.17,8.22-.58.2-.82.2-.82l.61,0Z"/><path class="cls-2" d="M267.45,100.35s-4.52-.83-7.14.21-3.69,1.52-3.73,2a.83.83,0,0,1-.52.64l-.17.24s.76-.44.8-.11.5.61,2,.4,3.3-1.36,5.77-2S267.45,100.35,267.45,100.35Z"/><path class="cls-3" d="M261.46,118.92s6-18,7.7-32.18S276.37,51,280,36.1,286,9,288.86,5.25s5-2.59,5-2.59S290.49.85,287.45,6.1c-2.68,4.62-6.39,20.56-8.23,29.21S271.1,69.53,270,76,267.73,91,265.9,97.61,260,118.45,260,118.45Z"/><path class="cls-3" d="M292.15.41a9.1,9.1,0,0,1-.53,2.1C291.29,3.12,291.22,1.38,292.15.41Z"/><path class="cls-3" d="M293.64,4.05s-2.35-.25-2.27-.57l.16-.62A8.25,8.25,0,0,0,293.64,4.05Z"/><path class="cls-3" d="M290.86.08a13.6,13.6,0,0,0-.09,1.7,4.4,4.4,0,0,0,.17.93s-.74,0-.73-.73A5.8,5.8,0,0,1,290.86.08Z"/><path class="cls-3" d="M292.87,4.37s-2.59,1.41-3.44,1.37-.93-.41-.93-.41a1.82,1.82,0,0,0,1.13-.4C290.08,4.53,292.87,4.37,292.87,4.37Z"/><path class="cls-3" d="M289.16,0a21.33,21.33,0,0,1,.48,2.87l-.25,1s-.36.08-.52-.65A14.79,14.79,0,0,1,289.16,0Z"/><path class="cls-3" d="M293.35,5.18s-2.51,2.46-3.76,2.66a2.73,2.73,0,0,1-2.1-.53l0-.16a1.28,1.28,0,0,0,1.21,0C289.35,6.75,293.35,5.18,293.35,5.18Z"/><path class="cls-3" d="M287.34.4s.07,3.11.23,3.84a2.69,2.69,0,0,0,.57,1.17s-.61.37-1.09-.44S287.34.4,287.34.4Z"/><path class="cls-3" d="M284.67,2.82s1.56,4.69,1.44,5.18a1.77,1.77,0,0,0,.24,1.09l-.08.32A1.61,1.61,0,0,1,285.18,9C284.77,8.52,284.67,2.82,284.67,2.82Z"/><path class="cls-3" d="M286.63,9.33A.73.73,0,0,0,287.4,9c.28-.44,6.59-1.6,6.59-1.6a52,52,0,0,1-5.82,2.65c-.89.12-1.09-.44-1.09-.44l-.49-.13Z"/><path class="cls-3" d="M294.51,9.43s-8,3-8.25,3.42a1.17,1.17,0,0,0-.2.81l-.85-.05.12.21.85,0s-.49.56.56.48S294.31,10.24,294.51,9.43Z"/><path class="cls-3" d="M281.67,5.16s3.06,6.27,2.85,7.08a1,1,0,0,0,.41,1.13l-.05.16s-.36-.61-.76-.36-.93.28-1.38-.69S281.42,6.13,281.67,5.16Z"/><path class="cls-3" d="M293.9,11.85s-4,4.16-6,5.37-3.08.6-3.08.6l-.51.1-.09-.43a1.86,1.86,0,0,0,.85-.64C285.36,16.4,292.24,13,293.9,11.85Z"/><path class="cls-3" d="M279.64,8.43s3.54,7.08,3.54,7.77a6.33,6.33,0,0,1-.16,1.33l.6.32-.08.33-.61-.33s-.24,1-.93.28S278.67,10.24,279.64,8.43Z"/><path class="cls-3" d="M293.57,17.27s-8.7,3.82-9.11,3.38a1.94,1.94,0,0,0-.88-.57l.08-.33a2.82,2.82,0,0,0,1-.76C285.2,18.42,292.07,16.38,293.57,17.27Z"/><path class="cls-3" d="M277.43,12.08s4.15,6,4,7.89a2.56,2.56,0,0,0,1.09,2.51l-.08.32a1.82,1.82,0,0,0-1.33-.85c-.85,0-.85,0-2.82-3.8S277.43,12.08,277.43,12.08Z"/><path class="cls-3" d="M293,19.53s-1.1,2.3-4.82,3.43-4.41,1.12-4.69.88a1.29,1.29,0,0,0-.81-.21l.08-.32s.28.24,1.42-.85S293,19.53,293,19.53Z"/><path class="cls-3" d="M293.23,23.37s0,1.22-2.63,2.26a20.93,20.93,0,0,1-5.87,1.44c-1.41.16-1.82-.28-1.78-.45s-1.05.08-1.05.08l.13-.48.84,0s-.4-.44,1.1-.93,3.6.05,6.39-.79S293.23,23.37,293.23,23.37Z"/><path class="cls-3" d="M275.1,15.53a15.54,15.54,0,0,0,2.17,4.33c1.53,2.11,4,3.24,3.71,4.38l-.29,1.13.85.73-.12.48-.81-.89s0,1.37-1.49-.21a17,17,0,0,1-3.83-5.95C274,16.46,275.1,15.53,275.1,15.53Z"/><path class="cls-3" d="M292.86,27.58a7.53,7.53,0,0,1-5.71,2.17c-3.55-.21-4.81.67-5,.27s-.2-.57-.2-.57l-.77.32.08-.32s1-.44,1.09-.93,4.05.34,6.39-.1A28.51,28.51,0,0,0,292.86,27.58Z"/><path class="cls-3" d="M273.23,19.53c.16,0,3.79,5.42,5,6.92s1.73,2,1.4,2.59.93,1.1.93,1.1l.08.36-1.37-.69s.12.89-1.38,0A9.15,9.15,0,0,1,274,25.39,11.56,11.56,0,0,1,273.23,19.53Z"/><path class="cls-3" d="M270.67,23.52s2.22,4.17,3.59,6.24,2.29,3.16,3,3l.73-.16L280,33.77l.16-.64s-1.74-.61-1.65-.94,1.29-1-1.37-3.44S272.09,24.05,270.67,23.52Z"/><path class="cls-3" d="M292.24,30a9.64,9.64,0,0,1-5.62,3.22c-3.8.76-5.62.47-5.58.31s-1.09.24-1.09.24l.24-.28a2.48,2.48,0,0,0,1.18-1.25c.4-.93,2.91-.64,6.35-1.32S292.24,30,292.24,30Z"/><path class="cls-3" d="M292.12,32.55a21.94,21.94,0,0,1-7.41,4.14c-4.29,1.33-4.08-.17-4.08-.17l-.93.28.16-.64.85,0s-1.29-1,.93-1.66S290.5,33.51,292.12,32.55Z"/><path class="cls-3" d="M269.41,27.85s7.59,4.66,8.23,6.2a6,6,0,0,1,.6,2.39l1,.77-.12.48-1-.77s-.32,1.29-2-.33-3-4.53-4.51-6A10.79,10.79,0,0,1,269.41,27.85Z"/><path class="cls-3" d="M292,37.68S286.2,39,284,39.6s-3.77,1.29-4.33.8a1.21,1.21,0,0,0-1.13-.28l.12-.49s.28.24,1.42-.84S291.34,36.3,292,37.68Z"/><path class="cls-3" d="M268,31.28s5.16,6.12,6.53,7.49a4,4,0,0,0,3.15,1.14l.69.67.28.26a5,5,0,0,1-.81-1.57c0-.53,1.42-.16-1.73-2.68S269.81,31,268,31.28Z"/><path class="cls-3" d="M290.93,39.29a8.59,8.59,0,0,1-5.55,3.59c-4,.88-5.62,1.16-5.86.75a1,1,0,0,1-.16-.72l-1.29.36.12-.49s1,.09,1.13-.4,1.74-.08,6.23-1.52A47,47,0,0,1,290.93,39.29Z"/><path class="cls-3" d="M267.25,34.35s5.49,2.76,7.23,4.75a6.72,6.72,0,0,1,1.81,3.72l1.33.85-.12.49s-1.29-1-1.37-.69-.29,1.13-2.43-1.3S268.34,34.8,267.25,34.35Z"/><path class="cls-3" d="M266.48,37.42s3.71,5.06,5.6,7.09,3.43,2.07,3.43,2.07L277,47.63l.08-.32-1.46-1.06s.77-.32-.28-1.61S268.34,37.55,266.48,37.42Z"/><path class="cls-3" d="M277.5,45.53l1.29-.36a2.16,2.16,0,0,1,2-1.9c2-.36,6,.66,8,.47a13.76,13.76,0,0,0,3.48-.84,7.68,7.68,0,0,1-4.58,2.45c-2.63.2-5.21.23-6.83.51a3.84,3.84,0,0,1-2.22,0l-1.26.2Z"/><path class="cls-3" d="M276.8,48.28l1.14-.4s.69-1.38,4.24-1.17,4.16.54,6.35.06a12.22,12.22,0,0,0,2.59-.72,20.17,20.17,0,0,1-6.72,2.77,13.17,13.17,0,0,1-6.63-.3l-1.09.24Z"/><path class="cls-3" d="M266.27,40.29s2.29,5.22,4.27,7.61a7.61,7.61,0,0,0,4.11,2.76l1.3,1-.2-.57-.65-.85s.57-.88-.6-2.38S267.64,40.29,266.27,40.29Z"/><path class="cls-3" d="M291.55,49.08s-4.21,3.06-7.89,3.34a28.25,28.25,0,0,1-7.71-.75l-.11-.31s.75.47,1.08-.13,1.74-.77,6.51-1.28Z"/><path class="cls-3" d="M263.59,44.77a61,61,0,0,0,6.66,7c2.58,2,3.79,2,3.79,2l.89,1.25.12-.48-.77-1s1.34-1.21-1.12-3S263.59,44.77,263.59,44.77Z"/><path class="cls-3" d="M290.45,53.44a4.7,4.7,0,0,1-4.65,2.09c-3.15-.45-6-.82-8-.46s-3.08.6-3.08.6l.29-.44,1.09-.24s-.85-1.42,1.7-2,6.31,1.59,8.45,1.27S290.45,53.44,290.45,53.44Z"/><path class="cls-3" d="M262.05,47.48a26.71,26.71,0,0,0,5.28,5.63c3.43,2.75,4.44,4.9,5.13,4.9a6.19,6.19,0,0,1,1.77.45l.13-.49a2.92,2.92,0,0,1-.93-1.09c-.2-.57,1.09-.93-.76-2.43s-7.19-4.9-8.52-5.76A20.6,20.6,0,0,0,262.05,47.48Z"/><path class="cls-3" d="M275.69,56.76c.24-.94,2.95-.8,6.31.22s4.72,1.71,6,1.35,2.42-.77,2.42-.77-.57,2.27-3.92,1.94-5.09-.94-7.15-1-3.24.56-3.68.28-.28-.94-.28-.94l-1.18.57.13-.49S275.49,57.57,275.69,56.76Z"/><path class="cls-3" d="M261.11,51.19a7.89,7.89,0,0,0,3.59,4.86c3.11,2,4.24,2.28,4.92,3.65s3.53,3.55,3.53,3.55l0-.59-1-.93s1.9,0,.09-2.39a11.24,11.24,0,0,0-5.89-4.58C263.13,53.42,261.31,51.76,261.11,51.19Z"/><path class="cls-3" d="M273.38,61.85l1.7-.6s-.53-.65,1.7-1.29,4.52.45,7.8,1.11a14.07,14.07,0,0,0,5.65,0,6.42,6.42,0,0,1-5.34,2.09c-3.55-.21-6.18-.7-7.8-.42a2.61,2.61,0,0,1-2.5-1l-1.34.53Z"/><path class="cls-3" d="M289.82,66.17a16.8,16.8,0,0,1-8.21,1.89c-4.41-.26-7.24.06-7.8-.43a1.8,1.8,0,0,1-.65-.85l-.93.28.13-.48.88-.12s-.84-1.42,1.95-1.57,6,2.19,9.7,1.76S289.82,66.17,289.82,66.17Z"/><path class="cls-3" d="M260.3,54.42a6.41,6.41,0,0,0,2.69,5,45.74,45.74,0,0,1,6,4.26,17.52,17.52,0,0,0,3.51,2.43l.12-.48s-.85,0-.93-.41.9-2.18-.36-3.35a26.27,26.27,0,0,0-6.94-4.51A9.58,9.58,0,0,1,260.3,54.42Z"/><path class="cls-3" d="M259.68,58.91c.32.08,2.5,4.41,5.48,6.88a12.85,12.85,0,0,0,5.29,2.89l1,1.45.12-.48-.72-1.21a2.23,2.23,0,0,0-.36-2.67A33.31,33.31,0,0,0,263,60.62C260.73,59.52,259.68,58.91,259.68,58.91Z"/><path class="cls-3" d="M271.33,71.31l1.58-.81s-.24-1.09,1.74-1.45,3.48.53,7.56.7a18.08,18.08,0,0,0,7-1s-1.71,2.66-8,3.13S273,71,273,71l-1.7.6Z"/><path class="cls-3" d="M270.35,75.18a10.13,10.13,0,0,1,1.62-1,8.12,8.12,0,0,1,.89-.12s-.6-1,.33-1.29,3.68.41,8,1a25.5,25.5,0,0,0,8-.22s-2.8,2.22-8.13,2.24-7.81.27-8.17-.34a1.38,1.38,0,0,1-.28-.93s-1.82.4-2.15,1S270.35,75.18,270.35,75.18Z"/><path class="cls-3" d="M258.66,62.26s6.94,4.51,8.28,5.36,2.86.89,3.14,2.51a6.57,6.57,0,0,1,.08,2.43l.68.69,0,.52L270,73s.4,1.13-2.23-.73a41,41,0,0,1-6.29-5.72C259.06,64.08,258.34,62.87,258.66,62.26Z"/><path class="cls-3" d="M257,65.45s6.26,2.44,8.6,4.06a12.4,12.4,0,0,1,4.19,5.88,3.78,3.78,0,0,0,.36,1.29l.2.57s.32.76-1.86-.82-3.46-4-6-6.15S257,65.45,257,65.45Z"/><path class="cls-3" d="M269.94,78.86s1.18-1.25,1.7-1.29l1.05-.08s-.11-.89,1.46-1,4.24.9,7.8,1.11a20,20,0,0,0,7-1s-5.06,3-9.55,3.09-6.43-1.1-6.71-1.35a1,1,0,0,0-1.17-.12l-1.62,1Z"/><path class="cls-3" d="M256.1,68.32a12.81,12.81,0,0,0,4.93,3c2.58.66,4.84,1.23,5.93,2.36s1.81,5.79,1.81,5.79l.89.56-.08.33-.89-.57s-.61,1-2.27-.57-1.48-3-5.16-4.74S255.94,69.65,256.1,68.32Z"/><path class="cls-3" d="M269.45,81.49a7.12,7.12,0,0,1,1.18-1.25c.4-.24.65-1.9,4.37-1.65s5.73,1.79,8.48,2.49a13.09,13.09,0,0,0,4.16.53s-1.09.93-6.43.27-6.58-1.15-8.52-.95-1.78-.45-1.78-.45l-1.54,1.33Z"/><path class="cls-3" d="M269,84.48l.73-.16a1.78,1.78,0,0,1,1.54-2c1.82-.4,2.42,1.3,8.48,1.8a51.78,51.78,0,0,0,8.9.18s-2.88,2.54-9.14,2.16a33.91,33.91,0,0,1-9.7-1.76Z"/><path class="cls-3" d="M268.71,87.83l.77-.32s.32-1.29,1.34-1.21,2.86,1.58,9,1.07S287.39,86,287.39,86s-3.4,3.26-10,3.65-8-1.67-8-1.67l-.73.16Z"/><path class="cls-3" d="M254.56,72.4a14,14,0,0,0,5,4.54c3.07,1.46,7.19,3.53,7.91,5.43a4,4,0,0,1,.07,3.12l1.29,1-.08.32-1.25-1.17s0,.85-2.54-.82-5-4.17-7.67-6.4S254.11,72.8,254.56,72.4Z"/><path class="cls-3" d="M252.24,77.49A1.51,1.51,0,0,0,253.57,79c1.46.36,7.76,1.27,9.74,3a26,26,0,0,1,4.11,5.51l1,.93.13.2-1.34-.85s-.4.93-3.19-1-2.09-2.59-5.93-3.73S250.13,79,252.24,77.49Z"/><path class="cls-3" d="M251.26,82.74s6.91,1.23,9.85,3.18,5.62,3,5.74,3.85a3.81,3.81,0,0,1,0,1.37l1,.25-.12.48-1-.24s.4,1.13-1.29.36-3.51-3.12-7.07-4.71S251.38,83.63,251.26,82.74Z"/><path class="cls-3" d="M268.26,91l.56-.21s-.16-.72.69-.68,1.62,1.09,8.41,2.12a46,46,0,0,0,9.78.75s-1.95,2.26-8.62,1.44-7.92-1.32-8.93-1.4-1.29-.33-1.53-.73a.88.88,0,0,1,0-.85l-.48-.12Z"/><path class="cls-3" d="M247.77,88.39a15.84,15.84,0,0,1,9.9.27c5,2,8,3.57,8.16,4.46A13.15,13.15,0,0,1,266,94.7l1.29.33-.12.48-1.3-.33s.49.81-1.49.49-4.08-1.55-7.64-3.82S249.43,88,247.77,88.39Z"/><path class="cls-3" d="M267.56,94.42l.81.2a1.62,1.62,0,0,1,1.74-.76c1.13.28,7.63,3.13,12,3s5.38-.88,5.38-.88a8.59,8.59,0,0,1-6.15,2.57c-4,0-12-1.64-12.69-2.17a1.29,1.29,0,0,1-.52-1.33l-.61-.33Z"/><path class="cls-3" d="M266.5,98.62l.81.2s.69-1.37,1.34-1.2A65.1,65.1,0,0,0,279.31,101c4.93.9,7.11.42,7.11.42s.36,2-5.54,1.53-12.44-1.77-13.29-2.5-.2-1.25-.2-1.25l-1-.08Z"/><path class="cls-3" d="M247.68,92.84s7.48-.35,11.6,1.72,5.77,3,5.77,3.69a1.36,1.36,0,0,0,.76,1.06l.25.4s-1.18-.81-1.3-.32-.89.8-3.31.19-5.17-2.68-9.09-4.18S247.68,92.84,247.68,92.84Z"/><path class="cls-4" d="M261.22,127.12s7.82-13.55,15.16-22.73,17.35-24.59,24.37-35.14,12.92-18.93,13.94-22.54-.47-4-.47-4,2.33.62.54,5.21c-1.57,4-9.12,15.25-13.28,21.25S285.33,93.3,282.14,97.63s-7.62,10-10.63,14.76-9.45,15.2-9.45,15.2Z"/><path class="cls-4" d="M316.16,42.24a10.12,10.12,0,0,0-1,1.5C315,44.26,316,43.27,316.16,42.24Z"/><path class="cls-4" d="M313.54,43.65s1,1,1.19.78L315,44A4.1,4.1,0,0,1,313.54,43.65Z"/><path class="cls-4" d="M316.84,42.69s-.61.75-.92,1a5.65,5.65,0,0,1-.59.47s.3.33.69-.08A6.14,6.14,0,0,0,316.84,42.69Z"/><path class="cls-4" d="M313.65,44.22a8.36,8.36,0,0,0,.55,2.5c.35.39.59.22.59.22a1.15,1.15,0,0,1-.21-.8C314.64,45.69,313.65,44.22,313.65,44.22Z"/><path class="cls-4" d="M317.54,43.47a21.15,21.15,0,0,0-1.8,1.46l-.45.69s.09.22.56-.12A16.53,16.53,0,0,0,317.54,43.47Z"/><path class="cls-4" d="M313,44.46s-.42,2.68-.05,3.42a1.28,1.28,0,0,0,1.1.72l.08-.11a.66.66,0,0,1-.45-.62C313.67,47.36,313,44.46,313,44.46Z"/><path class="cls-4" d="M318,44.6s-1.78,1.8-2.25,2.15a2.16,2.16,0,0,1-.88.41s0,.52.67.28S318,44.6,318,44.6Z"/><path class="cls-4" d="M317.68,47.35a36.35,36.35,0,0,0-3.47,2.33,1.66,1.66,0,0,1-.71.53l-.15.23a.74.74,0,0,0,.67.27A35.25,35.25,0,0,0,317.68,47.35Z"/><path class="cls-4" d="M313.25,50.21a.47.47,0,0,1-.11-.57c.14-.4-1.63-4.19-1.63-4.19a36.74,36.74,0,0,0,.74,4.44c.28.5.67.27.67.27l.26.17Z"/><path class="cls-4" d="M310.17,46.39a58.71,58.71,0,0,1,1.25,6.07A1.21,1.21,0,0,1,311,53l.35.39-.16.06-.35-.39s-.13.57-.49,0S309.8,47,310.17,46.39Z"/><path class="cls-4" d="M317.51,50.2s-4.71,2.18-5.08,2.76-.79.47-.79.47l-.08.11s.48-.17.5.17.2.62.92.27A27.71,27.71,0,0,0,317.51,50.2Z"/><path class="cls-4" d="M309,48.12a40.77,40.77,0,0,0-.71,6.11c.09,1.7.84,1.86.84,1.86l.14.31.27-.2a1.56,1.56,0,0,1,0-.8C309.76,55,309,49.6,309,48.12Z"/><path class="cls-4" d="M316.45,53.12s-5.35,2.43-5.73,2.83a6.93,6.93,0,0,0-.69.87l-.42-.11-.15.23.42.11s-.45.69.2.62S315.8,54.67,316.45,53.12Z"/><path class="cls-4" d="M306.12,51.47s1.19,6.53,1.6,6.47a1,1,0,0,1,.66.1l.15-.23a2.1,2.1,0,0,1,0-1C308.69,56.27,307.2,51.68,306.12,51.47Z"/><path class="cls-4" d="M315.24,56.36s-5,1.51-6,2.66-1.83.95-1.83.95l-.15.23s.64-.24,1,.15.35.4,3.23-.85A7.25,7.25,0,0,0,315.24,56.36Z"/><path class="cls-4" d="M305.07,53.08a6.47,6.47,0,0,0-.08,4.39c.8,2.5,1.06,2.83,1.31,2.83s.42.28.42.28l.15-.23s-.24,0-.07-1.2S305.07,53.08,305.07,53.08Z"/><path class="cls-4" d="M302.82,55.23s-.7.69-.26,2.62A11.85,11.85,0,0,0,304,61.59c.45.79.86.73.93.61s.36.57.36.57l.23-.35-.35-.39s.4-.07.1-1.09-1.41-1.74-2-3.61S302.82,55.23,302.82,55.23Z"/><path class="cls-4" d="M314.19,59.54A13,13,0,0,1,310.92,61c-1.77.49-3.36-.06-3.89.75l-.52.81h-.74l-.23.34.82-.12s-.78.81.69.61a12.28,12.28,0,0,0,4.82-1.62C314.09,60.63,314.19,59.54,314.19,59.54Z"/><path class="cls-4" d="M300.59,57.89a5.11,5.11,0,0,0,1,4.08c1.49,1.63,1.47,2.77,1.79,2.65a.82.82,0,0,0,.39-.23l.12.57.15-.23a2,2,0,0,1,.1-1.09c.23-.35-1.74-1.79-2.39-3.21A16.32,16.32,0,0,1,300.59,57.89Z"/><path class="cls-4" d="M312.66,62.81c-.09-.05-4.51,1.33-5.8,1.64s-1.78.31-2,.83-1,.19-1,.19l-.24.17.92.27s-.55.47.53.68a5.77,5.77,0,0,0,4-.7A11.75,11.75,0,0,0,312.66,62.81Z"/><path class="cls-4" d="M311.39,66.43s-3.2,1.36-4.88,1.9-2.66.73-2.85.28l-.19-.46-1.41-.26.3-.46s1,.5,1.16.27.1-1.26,2.46-1.36S310.55,66,311.39,66.43Z"/><path class="cls-4" d="M299.46,59.61a7.52,7.52,0,0,0,.35,4.67c1,2.32,1.89,3,2,2.93s.28.68.28.68l.07-.28a2.21,2.21,0,0,1,.25-1.32c.37-.75-.76-1.81-1.7-3.9S299.46,59.61,299.46,59.61Z"/><path class="cls-4" d="M298.08,61.18a16.65,16.65,0,0,0,.51,6.09c.9,2.89,1.66,1.91,1.66,1.91l.2.62.3-.46-.35-.4s1.07,0,.57-1.43S298.16,62.54,298.08,61.18Z"/><path class="cls-4" d="M309.44,69.59s-5.54-1-6.65-.4a6.17,6.17,0,0,0-1.58,1.11l-.82,0-.22.34.82,0s-.6.93.94.79,3.7-1.2,5.09-1.28A7.3,7.3,0,0,0,309.44,69.59Z"/><path class="cls-4" d="M295.22,64.24s1.52,3.63,2,5.1.72,2.61,1.21,2.6a.58.58,0,0,1,.6.39l.22-.35s-.24,0-.06-1.19S296.26,63.77,295.22,64.24Z"/><path class="cls-4" d="M308,72.29s-5.42,1.06-6.73,1.2a1.9,1.9,0,0,1-1.85-.88l-.64,0-.25,0a3.89,3.89,0,0,0,1.19-.53c.32-.29-.45-.79,2.17-.72S307.49,71.28,308,72.29Z"/><path class="cls-4" d="M294.73,65.73a7,7,0,0,0,.12,4.85c1,2.49,1.5,3.45,1.82,3.33a1,1,0,0,0,.47-.35l.3.85.22-.35s-.43-.45-.21-.79-.62-.9-1.53-4A27,27,0,0,0,294.73,65.73Z"/><path class="cls-4" d="M306.61,74.48s-3.66-1.08-5.45-.76a5.62,5.62,0,0,0-2.79,1.3l-1-.16-.22.35s1.06,0,.91.27-.53.81,1.66.43S305.94,74.21,306.61,74.48Z"/><path class="cls-4" d="M305.18,76.67s-4.27,1.16-6.14,1.42-2.49-.48-2.49-.48l-1.15-.09.15-.23,1.16.09s-.12-.56,1-.81S304.39,75.83,305.18,76.67Z"/><path class="cls-4" d="M296.38,76l-.29-.85a2,2,0,0,0,.29-2.11c-.56-1.19-2.69-2.58-3.32-3.65a8.05,8.05,0,0,1-.86-2.21,5.72,5.72,0,0,0,.37,3.7c.9,1.41,1.87,2.7,2.34,3.66s.88,1.07.88,1.07l.37.74Z"/><path class="cls-4" d="M295.1,78l-.21-.79s.51-1.15-1-2.78-1.9-1.74-2.47-3.09a7.31,7.31,0,0,1-.59-1.7,13.71,13.71,0,0,0,1,4.94,6.21,6.21,0,0,0,2.71,3.09l.29.68Z"/><path class="cls-4" d="M303.64,78.46a33.22,33.22,0,0,1-5.92,2.38,3.83,3.83,0,0,1-3.13-.4l-1.07,0,.4-.24.72-.18a2.08,2.08,0,0,1,1.58-1.11C297.51,78.57,303.11,77.79,303.64,78.46Z"/><path class="cls-4" d="M289,71.19s-.11,3.87,1.15,5.85a12.92,12.92,0,0,0,3.38,3.36l.22-.13a.42.42,0,0,1-.34-.61c.21-.52-.24-1.31-1.78-4Z"/><path class="cls-4" d="M302.15,82.42a38,38,0,0,1-6.5.85c-2.14-.08-2.58-.7-2.58-.7l-1.05.3.23-.34.89-.24s.16-1.37,2.14-1.24A63.12,63.12,0,0,1,302.15,82.42Z"/><path class="cls-4" d="M287,74.3s-.85,2.23.61,3.52a13.36,13.36,0,0,1,3.32,3.65c.56,1.19.84,1.87.84,1.87l.14-.41-.28-.67s1.12-.42.46-2-3.32-2.16-4-3.41A27.43,27.43,0,0,1,287,74.3Z"/><path class="cls-4" d="M301.22,84.77a17.07,17.07,0,0,1-5.2.72c-2.87-.07-4.46.7-4.73.36a2.72,2.72,0,0,0-.93-.61l.22-.35a1.91,1.91,0,0,0,1-.18c.4-.24.11-1.09,1.66-1.06s5.53.65,6.52.81A10.69,10.69,0,0,1,301.22,84.77Z"/><path class="cls-4" d="M290.75,83.52c.44-.67-.68-1.92-2.54-3s-2.78-1.32-3.07-2.17-.5-1.64-.5-1.64a2.45,2.45,0,0,0,.41,3.07c1.48,1.46,2.49,2,3.28,3s.93,1.92,1.26,2,.63-.41.63-.41l.14.91.22-.35A1.91,1.91,0,0,1,290.75,83.52Z"/><path class="cls-4" d="M299.49,87.42a5.75,5.75,0,0,1-4.12,1.1c-2.31-.36-2.91-.75-3.94-.28a10,10,0,0,1-3.36.35l.33-.36.89-.07s-.7-1,1.31-1.44,2.83-.62,4.85.2S299.09,87.66,299.49,87.42Z"/><path class="cls-4" d="M288.78,87.66l-.32-1.19s.57-.13.07-1.6-2-2-3.61-3.19a6.89,6.89,0,0,1-2.21-2.75,4.42,4.42,0,0,0,.88,3.86c1.48,1.62,2.77,2.63,3.23,3.59a1.29,1.29,0,0,0,1.51.66l.22,1Z"/><path class="cls-4" d="M280,82.11a9.91,9.91,0,0,0,2.09,5.15c1.84,2,2.74,3.6,3.23,3.59a1.38,1.38,0,0,0,.73-.18l.2.62.23-.35-.28-.5s1.12-.42.14-1.89-3.53-1.65-4.71-3.74S280,82.11,280,82.11Z"/><path class="cls-4" d="M298,89.73s-1.86,1.91-3.84,1.6a23.49,23.49,0,0,0-4.69-.43,9.41,9.41,0,0,1-2.72-.3l.23-.35s.35.4.58.22.89-1.72,2-1.8a13.52,13.52,0,0,1,5.2.77A5.3,5.3,0,0,0,298,89.73Z"/><path class="cls-4" d="M295.69,92.67c-.17-.11-3.44,1.37-6,1.36a6.19,6.19,0,0,1-3.65-.91l-1.21.36.22-.35,1-.35a2.23,2.23,0,0,1,1.64-1.4,17.5,17.5,0,0,1,5.76.65C294.94,92.51,295.69,92.67,295.69,92.67Z"/><path class="cls-4" d="M284.24,94.23,284.08,93s.71-.53.15-1.71-1.63-1.4-3.3-3.31a10,10,0,0,1-2.11-4s-.84,2.41,1.31,5.79,3.64,3.53,3.64,3.53l.32,1.19Z"/><path class="cls-4" d="M282.43,97a7.16,7.16,0,0,0-.08-1.37,3.56,3.56,0,0,0-.27-.51s.8-.3.6-.92-1.65-1.57-3.63-3.36a12.85,12.85,0,0,1-2.93-4A8.54,8.54,0,0,0,278,92.11c2,2.65,2.84,4,3.32,3.82a1.31,1.31,0,0,0,.64-.41s.47,1.13.25,1.65S282.43,97,282.43,97Z"/><path class="cls-4" d="M294.19,95.15s-5.2-.77-6.19-.93-1.6-.88-2.62-.07a7,7,0,0,0-1.4,1.4l-.65.06-.31.29h.74s-.79.47,1.26.66a23.36,23.36,0,0,0,5.64-.26C293,96,294,95.66,294.19,95.15Z"/><path class="cls-4" d="M293,97.84A29.2,29.2,0,0,0,287.45,96a8.9,8.9,0,0,0-4.92,1.39,3.29,3.29,0,0,1-.86.59l-.4.23s-.56.3,1.17.44S286,98,288.21,98,293,97.84,293,97.84Z"/><path class="cls-4" d="M280.52,99.36s.25-1.31.07-1.59l-.36-.57s.55-.46,0-1.31-2.14-1.56-3.62-3.19a10.76,10.76,0,0,1-2.11-4s.24,4.27,1.92,6.52,3.09,2.52,3.34,2.51a.52.52,0,0,1,.52.51l.08,1.36Z"/><path class="cls-4" d="M291.77,100a6.53,6.53,0,0,1-3.56-.68c-1.36-.89-2.55-1.66-3.61-1.53s-4,2.51-4,2.51l-.66-.1-.15.23.66.1s-.36.92,1.19.78,2.23-1,4.65-.25S291.08,100.84,291.77,100Z"/><path class="cls-4" d="M279.23,101.15a6.88,6.88,0,0,0,.25-1.31,2.74,2.74,0,0,0-.75-3.12c-1.57-1.69-3.21-1.78-4.66-2.72a6.14,6.14,0,0,1-1.9-1.73s-.1,1.08,2.32,3.32,3.17,2.57,3.81,3.64.93.61.93.61l-.15,1.54Z"/><path class="cls-4" d="M277.7,103.11l-.19-.45a1.74,1.74,0,0,0,.55-1.94c-.48-1.14-1.67-.43-4.27-3.12a25.39,25.39,0,0,1-3.52-4.28,7.93,7.93,0,0,0,2.29,5.78,15.41,15.41,0,0,0,4.72,3.74Z"/><path class="cls-4" d="M275.94,105.25l-.12-.57s.61-.92.17-1.37a8.85,8.85,0,0,1-4.06-3.8c-2.07-3.33-2.14-4.53-2.14-4.53a11.07,11.07,0,0,0,1.79,7.1c2.33,3.49,4,3,4,3l.19.45Z"/><path class="cls-4" d="M290.06,103.14a8.35,8.35,0,0,1-4.49.19c-2-.65-4.75-1.46-6.1-.7a4.24,4.24,0,0,0-1.78,1.8l-1.06,0-.15.23,1.14-.08s-.46.52,1.43.77a59.37,59.37,0,0,0,6.55,0C287.9,105.34,290,103.59,290.06,103.14Z"/><path class="cls-4" d="M288.09,107.27a1.06,1.06,0,0,1-1.38.25c-.77-.5-3.69-3.07-5.41-3a18.05,18.05,0,0,0-4.68,1.22l-.9.07-.16.06,1,.15s-.36.75,1.78,1,2.26-.49,4.38.72S288,109.21,288.09,107.27Z"/><path class="cls-4" d="M285.51,110.85s-3.35-2.68-5.58-3-3.82-1-4.37-.55a4.36,4.36,0,0,0-.77.81l-.51-.33-.22.34.51.34s-.8.47.29.85,3.1-.11,5.36.7S285,111.31,285.51,110.85Z"/><path class="cls-4" d="M274.34,107.33l-.11-.4s.47-.35.13-.74-1.24-.15-4.43-2.89a21.87,21.87,0,0,1-4.17-4.37s-.53,2.28,2.5,5.08,3.78,3.13,4.21,3.58.68.44,1,.32a.9.9,0,0,0,.46-.52l.26.17Z"/><path class="cls-4" d="M283.66,115.89a7.84,7.84,0,0,0-4-4.72c-3-1.31-5.1-1.85-5.64-1.38a12.53,12.53,0,0,0-.94.87l-.68-.45-.22.35.68.44s-.64.24.3,1,2.44,1.1,5.08,1.51S283.28,114.82,283.66,115.89Z"/><path class="cls-4" d="M272.67,109.69l-.42-.27s.35-.92-.24-1.31-4.69-1.92-6.29-4.11-1.57-3.17-1.57-3.17a6,6,0,0,0,.91,4.55c1.5,2,5.52,4.92,6.09,5a1.2,1.2,0,0,0,1-.53l.41.1Z"/><path class="cls-4" d="M270.71,112.69l-.42-.28s.51-1.15.17-1.37a29.06,29.06,0,0,1-6-3.26,9.81,9.81,0,0,1-3-3.26s-1.25,1,1.27,3.63,5.77,5.09,6.51,5.08a.73.73,0,0,0,.78-.64l.44.45Z"/><path class="cls-4" d="M281.2,118.56s-2.68-3.89-5.43-4.7-3.91-1.07-4.29-.67a.89.89,0,0,1-.89.24l-.32.12s.91.1.68.45-.11.91,1.16,1.74,3.5,1,5.85,2S281.2,118.56,281.2,118.56Z"/><polygon class="cls-5" points="261.29 178.99 230.54 170.83 240.99 108.27 283.25 119.48 261.29 178.99"/><path class="cls-6" d="M365.5,406c0,13.53-81.82,24.5-182.75,24.5S0,419.56,0,406c0-7.06,22.27-83.45,57.91-87.92,32.67-4.1,76.57-6.61,124.84-6.61,50.46,0,96.15,2.74,129.22,7.18S365.5,399.26,365.5,406Z"/><rect class="cls-7" x="6.07" y="316.79" width="128.31" height="44.06" rx="7.47" transform="translate(407.93 263.37) rotate(89.11)"/><g class="cls-8"><polygon points="78.2 287.42 83.49 277.7 93.57 277.02 93.38 264.47 85.42 264.59 78.03 276.68 78.2 287.42"/><polygon points="64.47 282.39 69.87 290.65 75.02 282.62 74.85 271.29 69.69 278.69 64.29 270.55 64.47 282.39"/><polygon points="60.95 276.94 53.2 265.09 45.24 265.21 45.44 277.77 55.54 278.13 61.12 287.68 60.95 276.94"/><polygon points="78.47 304.5 83.75 294.77 93.83 294.1 93.64 281.55 85.68 281.67 78.3 293.76 78.47 304.5"/><polygon points="70.14 307.73 75.28 299.69 75.11 288.37 69.95 295.76 64.55 287.63 64.73 299.47 70.14 307.73"/><polygon points="61.22 294.02 53.47 282.17 45.51 282.29 45.7 294.85 55.8 295.21 61.38 304.76 61.22 294.02"/><polygon points="78.75 323.13 84.04 313.41 94.12 312.73 93.93 300.18 85.97 300.31 78.59 312.39 78.75 323.13"/><polygon points="70.42 326.37 75.57 318.33 75.4 307 70.24 314.4 64.84 306.26 65.02 318.1 70.42 326.37"/><polygon points="61.51 312.66 53.75 300.8 45.8 300.93 45.99 313.48 56.09 313.84 61.67 323.39 61.51 312.66"/><polygon points="79.02 340.21 84.3 330.49 94.39 329.81 94.19 317.26 86.23 317.39 78.85 329.47 79.02 340.21"/><polygon points="70.69 343.45 75.84 335.41 75.66 324.08 70.5 331.48 65.1 323.34 65.28 335.18 70.69 343.45"/><polygon points="61.77 329.74 54.02 317.88 46.06 318.01 46.25 330.56 56.35 330.92 61.94 340.48 61.77 329.74"/><polygon points="79.28 357.29 84.57 347.57 94.65 346.89 94.46 334.34 86.5 334.46 79.11 346.55 79.28 357.29"/><polygon points="70.95 360.52 76.1 352.49 75.92 341.17 70.77 348.56 65.37 340.42 65.55 352.26 70.95 360.52"/><polygon points="62.03 346.81 54.28 334.96 46.32 335.09 46.52 347.64 56.62 348 62.2 357.55 62.03 346.81"/><polygon points="79.54 374.37 84.83 364.65 94.91 363.97 94.72 351.42 86.76 351.55 79.38 363.63 79.54 374.37"/><polygon points="71.21 377.61 76.36 369.57 76.19 358.24 71.03 365.64 65.63 357.5 65.81 369.34 71.21 377.61"/><polygon points="62.3 363.89 54.55 352.04 46.59 352.17 46.78 364.72 56.88 365.08 62.47 374.63 62.3 363.89"/><polygon points="79.83 393 85.12 383.28 95.2 382.61 95.01 370.05 87.05 370.18 79.67 382.26 79.83 393"/><polygon points="71.5 396.24 76.65 388.2 76.48 376.88 71.32 384.27 65.92 376.13 66.1 387.97 71.5 396.24"/><polygon points="62.59 382.53 54.83 370.68 46.88 370.8 47.07 383.35 57.17 383.71 62.75 393.27 62.59 382.53"/><polygon points="80.1 410.08 85.38 400.36 95.47 399.69 95.27 387.13 87.31 387.26 79.93 399.34 80.1 410.08"/><polygon points="71.77 413.32 76.92 405.28 76.74 393.96 71.58 401.35 66.18 393.21 66.36 405.05 71.77 413.32"/><polygon points="55.1 387.75 47.14 387.88 47.33 400.43 57.43 400.79 63.02 410.35 62.85 399.61 55.1 387.75"/></g><rect class="cls-7" x="241.22" y="316.79" width="128.31" height="44.06" rx="7.47" transform="translate(639.44 28.26) rotate(89.11)"/><g class="cls-9"><polygon points="313.35 287.42 318.63 277.7 328.72 277.02 328.52 264.47 320.57 264.59 313.18 276.68 313.35 287.42"/><polygon points="299.62 282.39 305.02 290.65 310.17 282.62 309.99 271.29 304.83 278.69 299.43 270.55 299.62 282.39"/><polygon points="296.1 276.94 288.35 265.09 280.39 265.21 280.58 277.77 290.68 278.13 296.27 287.68 296.1 276.94"/><polygon points="313.61 304.5 318.9 294.77 328.98 294.1 328.79 281.55 320.83 281.67 313.44 293.76 313.61 304.5"/><polygon points="305.28 307.73 310.43 299.69 310.26 288.37 305.1 295.76 299.7 287.63 299.88 299.47 305.28 307.73"/><polygon points="296.37 294.02 288.61 282.17 280.65 282.29 280.85 294.85 290.95 295.21 296.53 304.76 296.37 294.02"/><polygon points="313.9 323.13 319.18 313.41 329.27 312.73 329.07 300.18 321.12 300.31 313.73 312.39 313.9 323.13"/><polygon points="305.57 326.37 310.72 318.33 310.54 307 305.38 314.4 299.98 306.26 300.17 318.1 305.57 326.37"/><polygon points="296.65 312.66 288.9 300.8 280.94 300.93 281.13 313.48 291.24 313.84 296.82 323.39 296.65 312.66"/><polygon points="314.16 340.21 319.45 330.49 329.53 329.81 329.34 317.26 321.38 317.39 314 329.47 314.16 340.21"/><polygon points="305.83 343.45 310.98 335.41 310.81 324.08 305.65 331.48 300.25 323.34 300.43 335.18 305.83 343.45"/><polygon points="296.92 329.74 289.16 317.88 281.2 318.01 281.4 330.56 291.5 330.92 297.08 340.48 296.92 329.74"/><polygon points="314.43 357.29 319.71 347.57 329.8 346.89 329.6 334.34 321.64 334.46 314.26 346.55 314.43 357.29"/><polygon points="306.1 360.52 311.25 352.49 311.07 341.17 305.91 348.56 300.51 340.42 300.69 352.26 306.1 360.52"/><polygon points="297.18 346.81 289.43 334.96 281.47 335.09 281.66 347.64 291.76 348 297.35 357.55 297.18 346.81"/><polygon points="314.69 374.37 319.98 364.65 330.06 363.97 329.87 351.42 321.91 351.55 314.52 363.63 314.69 374.37"/><polygon points="306.36 377.61 311.51 369.57 311.33 358.24 306.18 365.64 300.78 357.5 300.96 369.34 306.36 377.61"/><polygon points="297.44 363.89 289.69 352.04 281.73 352.17 281.93 364.72 292.03 365.08 297.61 374.63 297.44 363.89"/><polygon points="314.98 393 320.26 383.28 330.35 382.61 330.15 370.05 322.2 370.18 314.81 382.26 314.98 393"/><polygon points="306.65 396.24 311.8 388.2 311.62 376.88 306.46 384.27 301.06 376.13 301.25 387.97 306.65 396.24"/><polygon points="297.73 382.53 289.98 370.68 282.02 370.8 282.21 383.35 292.31 383.71 297.9 393.27 297.73 382.53"/><polygon points="315.24 410.08 320.53 400.36 330.61 399.69 330.42 387.13 322.46 387.26 315.08 399.34 315.24 410.08"/><polygon points="306.91 413.32 312.06 405.28 311.89 393.96 306.73 401.35 301.33 393.21 301.51 405.05 306.91 413.32"/><polygon points="290.24 387.75 282.29 387.88 282.48 400.43 292.58 400.79 298.16 410.35 298 399.61 290.24 387.75"/></g><path class="cls-10" d="M195.79,276.85H15.36s-.41-8.59,4.91-19.64,16-20.68,22.71-29.57,12.88-29.34,21.89-46.12c7.42-13.83,19.85-44.07,24-54.24a5.48,5.48,0,0,1,5.09-3.41H190.3a5.49,5.49,0,0,1,5.49,5.49Z"/><path class="cls-10" d="M31.14,189.3H49.89a4.2,4.2,0,0,1,4.2,4.2v11.63a0,0,0,0,1,0,0h-23a2.68,2.68,0,0,1-2.68-2.68V192a2.68,2.68,0,0,1,2.68-2.68Z"/><rect class="cls-11" x="11.68" y="276.85" width="184.12" height="59.33"/><path class="cls-3" d="M17.81,304.68s19.5-2.87,23.46,0,12.82,24.14,12.82,24.14H28.45Z"/><path class="cls-12" d="M26,265.81c3.13-6,41.32-7.78,47.87-3.28S88.6,279.31,87,282.17,16.59,283.81,26,265.81Z"/><circle class="cls-12" cx="101.18" cy="273.07" r="6.44"/><path class="cls-13" d="M8.4,336.18H195.79a0,0,0,0,1,0,0v26.59a0,0,0,0,1,0,0H12a3.63,3.63,0,0,1-3.62-3.62v-23A0,0,0,0,1,8.4,336.18Z"/><path class="cls-14" d="M195.79,328.82H112a6.49,6.49,0,0,1-6.41-7.41l4.19-29.14a10.4,10.4,0,0,1,10.3-8.91h75.68Z"/><rect class="cls-13" x="133.4" y="285.45" width="62.4" height="6.74"/><rect class="cls-13" x="133.4" y="297.43" width="62.4" height="6.74"/><rect class="cls-13" x="133.4" y="306.41" width="62.4" height="6.74"/><rect class="cls-13" x="133.4" y="318.39" width="62.4" height="6.74"/><polygon class="cls-3" points="134.01 332.09 126.24 332.09 132.78 279.51 140.56 279.51 134.01 332.09"/><rect class="cls-14" x="164.6" y="349.48" width="31.2" height="8.39"/><path class="cls-10" d="M175.64,276.85H356.07s.41-8.59-4.91-19.64-16-20.68-22.71-29.57-12.88-29.34-21.89-46.12c-7.42-13.83-19.85-44.07-24-54.24a5.48,5.48,0,0,0-5.09-3.41H181.13a5.48,5.48,0,0,0-5.49,5.49Z"/><path class="cls-10" d="M320,189.3h23a0,0,0,0,1,0,0v11.63a4.2,4.2,0,0,1-4.2,4.2H320a2.68,2.68,0,0,1-2.68-2.68V192A2.68,2.68,0,0,1,320,189.3Z" transform="translate(660.32 394.42) rotate(180)"/><rect class="cls-11" x="175.64" y="276.85" width="184.12" height="59.33" transform="translate(535.39 613.03) rotate(-180)"/><path class="cls-3" d="M353.62,304.68s-19.5-2.87-23.46,0-12.82,24.14-12.82,24.14H343Z"/><path class="cls-12" d="M345.43,265.81c-3.13-6-41.32-7.78-47.87-3.28s-14.73,16.78-13.09,19.64S354.84,283.81,345.43,265.81Z"/><circle class="cls-12" cx="270.25" cy="273.07" r="6.44"/><path class="cls-13" d="M179.26,336.18H363a0,0,0,0,1,0,0v26.59a0,0,0,0,1,0,0H175.64a0,0,0,0,1,0,0v-23A3.62,3.62,0,0,1,179.26,336.18Z" transform="translate(538.66 698.96) rotate(-180)"/><path class="cls-15" d="M279.56,129.83H91.87L64.46,199.11S71,216.71,98,218.75c17.79,1.35,54.59,1.81,77.63,2v.08s3.86,0,10.07,0,10.08,0,10.08,0v-.08c23-.16,59.84-.62,77.63-2,27-2,33.55-19.64,33.55-19.64Z"/><path class="cls-14" d="M175.64,328.82H259.4a6.49,6.49,0,0,0,6.41-7.41l-4.2-29.14a10.38,10.38,0,0,0-10.29-8.91H175.64Z"/><rect class="cls-13" x="175.64" y="285.45" width="62.4" height="6.74" transform="translate(413.67 577.63) rotate(-180)"/><rect class="cls-13" x="175.64" y="297.43" width="62.4" height="6.74" transform="translate(413.67 601.59) rotate(-180)"/><rect class="cls-13" x="175.64" y="306.41" width="62.4" height="6.74" transform="translate(413.67 619.56) rotate(-180)"/><rect class="cls-13" x="175.64" y="318.39" width="62.4" height="6.74" transform="translate(413.67 643.53) rotate(-180)"/><polygon class="cls-3" points="237.42 332.09 245.19 332.09 238.65 279.51 230.87 279.51 237.42 332.09"/><rect class="cls-14" x="175.64" y="349.48" width="31.2" height="8.39" transform="translate(382.47 707.34) rotate(-180)"/><rect class="cls-16" x="200.67" y="196.45" width="66.42" height="23.67"/><path d="M204.55,176.67c1.6-8.22,17-6,27.92-5.66s20.13-4.24,25.79-.35,4.24,49.46,4.24,49.46H210.56S202.08,189.39,204.55,176.67Z"/><polygon class="cls-16" points="243.95 174.38 221.65 174.38 223.51 153.7 239.3 153.7 243.95 174.38"/><path class="cls-17" d="M222.4,166.07a20,20,0,0,0,10.4,2.7,20.65,20.65,0,0,0,9.4-2.14l-2.9-12.93H223.51Z"/><path class="cls-18" d="M223.28,132.15a9.71,9.71,0,0,0-6.71,7.07c-.71,3.53.7,14.13,4.59,17s21-.41,21.9-.71c5.66-1.77,3.54-15.9.71-18.73S230.7,129.68,223.28,132.15Z"/><path class="cls-17" d="M215.3,144.66c.75-3.68,6.18-.36,5.17,6.43C219.46,158.05,214.2,150.1,215.3,144.66Z"/><path class="cls-19" d="M219.46,151.94s0,0-.05,0,0-.18,0-.21a8,8,0,0,0,0-3.53c-.2-1.06-.71-2.9-1.88-3.18a1,1,0,0,0-1.32.63,5.21,5.21,0,0,0-.19,2.23.29.29,0,0,1-.06.21s-.09,0-.1-.11a5.67,5.67,0,0,1,.23-2.5,1.15,1.15,0,0,1,1.45-.75c.93.22,1.66,1.45,2,3.39a8.51,8.51,0,0,1,0,3.86Z"/><path class="cls-19" d="M217.52,151.34s-.05,0-.07-.11a15.3,15.3,0,0,1,.27-6.43c0-.07.07-.11.11-.07a.28.28,0,0,1,0,.21,14.87,14.87,0,0,0-.27,6.15.29.29,0,0,1,0,.21S217.52,151.34,217.52,151.34Z"/><path class="cls-17" d="M242.48,151.09c-1-6.79,4.42-10.11,5.17-6.43C248.75,150.1,243.5,158.05,242.48,151.09Z"/><path class="cls-19" d="M243.44,151.94a8.65,8.65,0,0,1,0-3.86c.36-1.94,1.09-3.17,2-3.39a1.16,1.16,0,0,1,1.46.75,5.83,5.83,0,0,1,.23,2.5c0,.07-.07.14-.11.11a.29.29,0,0,1,0-.21,5.11,5.11,0,0,0-.2-2.23,1,1,0,0,0-1.31-.63c-1.17.28-1.69,2.12-1.88,3.18a7.81,7.81,0,0,0,0,3.53.25.25,0,0,1,0,.21s0,0-.05,0Z"/><path class="cls-19" d="M245.4,151.3a.25.25,0,0,1,0-.21,14.87,14.87,0,0,0-.27-6.15c0-.07,0-.18,0-.21s.09,0,.11.07a15.2,15.2,0,0,1,.26,6.43c0,.07,0,.11-.07.11S245.41,151.34,245.4,151.3Z"/><path class="cls-16" d="M231.53,132.7C223.8,130.47,218,135,218,146.87c0,5.83,1.23,7,3.32,12,1,2.45,6.49,7.32,10,8.24h.43c3.52-.92,9-5.79,10-8.24,2.09-5,3.32-6.19,3.32-12C245.07,135,239.25,130.47,231.53,132.7Z"/><path class="cls-18" d="M218,137.1s4.92,0,8.13,1.76c3.88,2.12,10.58,5.18,16.6,4.6,10.95-1.06,3.18-13.43.35-13.43.71,1.06-.7,2.47-2.12,2.12S226.46,117,218,137.1Z"/><path class="cls-12" d="M227.66,156.56s.46,2.83,2.12,3.43a3.76,3.76,0,0,0,4.13-.74,7.88,7.88,0,0,0,1.17-2.72Z"/><path class="cls-19" d="M231.41,155.4a.43.43,0,0,1-.32-.11.84.84,0,0,1-.21-.67v-.1a.73.73,0,0,0-.25.21.57.57,0,0,1-.53.17.81.81,0,0,1-.53-.67,3.68,3.68,0,0,1,.46-1.66.17.17,0,0,1,.21-.07.16.16,0,0,1,.07.21,2.67,2.67,0,0,0-.42,1.42c.07.28.17.39.28.42s.14,0,.18-.07c.24-.25.42-.35.56-.35a.28.28,0,0,1,.21.14.59.59,0,0,1,0,.28.73.73,0,0,0,.1.46s.11,0,.22,0,.24-.22.24-.57c0-.18,0-.32.07-.39A.33.33,0,0,1,232,154c.14,0,.21.11.32.18s.28.17.42.07a.36.36,0,0,0,.07-.36,2.31,2.31,0,0,0-.56-1.3.17.17,0,0,1,0-.21.16.16,0,0,1,.22,0,2.58,2.58,0,0,1,.7,1.55c0,.29,0,.5-.18.61a.59.59,0,0,1-.84,0l-.07-.07v.07c0,.28,0,.81-.53.92Zm-.5-.88Z"/><ellipse class="cls-19" cx="224.8" cy="149.99" rx="0.6" ry="1.2"/><path class="cls-19" d="M222.71,146.85a4.9,4.9,0,0,1,2.4-1,4.29,4.29,0,0,1,2.12.49c.43.11.5-.49.25-1s-1.13-.88-2.62-.84a3.45,3.45,0,0,0-2.68,1.16C221.76,146.11,222.07,147.38,222.71,146.85Z"/><ellipse class="cls-19" cx="236.74" cy="150.06" rx="0.6" ry="1.2"/><path class="cls-19" d="M234.35,146.21a4.89,4.89,0,0,1,2.57-.39,4.35,4.35,0,0,1,1.94,1c.38.21.59-.36.47-.9s-.88-1.13-2.33-1.45a3.6,3.6,0,0,0-2.89.49C233.59,145.29,233.6,146.57,234.35,146.21Z"/><path class="cls-19" d="M235.89,160.63a24,24,0,0,1-1.8,3.49,7,7,0,0,1-2.51.34,7.13,7.13,0,0,1-2.51-.34,24,24,0,0,1-1.8-3.49l-.92.21s1.42,4.56,1.63,4.95a11.93,11.93,0,0,0,3.43,2v.08l.17,0,.18,0v-.08a12.08,12.08,0,0,0,3.43-2c.21-.39,1.62-4.95,1.62-4.95Z"/><rect class="cls-19" x="231.05" y="160.77" width="1.41" height="2.83"/><ellipse class="cls-16" cx="232.64" cy="173.87" rx="12.54" ry="4.92"/><path d="M208.79,173.18c6.67.9,7.42,5.32,8.13,8.35s.71,19,.71,19l-21.2,2.65s.71-14,2.83-22C201,174.58,206,172.8,208.79,173.18Z"/><path d="M256.24,171.42c-6.66.89-7.42,5.31-8.12,8.35s-.71,19-.71,19l21.2,2.66s-.71-14-2.83-22C264,172.82,259.07,171,256.24,171.42Z"/><path class="cls-16" d="M256.21,185.34c-.46-.86-2.14.24-2.38.92s.48,8.13.48,8.13-2.33,1.9-2.38,4.38,3.26,4.39,3.45,4.68-.39,2.58,2.73,3.89,5.6.39,5.84-1.26-5.16-13.78-6-16.07S256.6,186.07,256.21,185.34Z"/><path class="cls-16" d="M210.42,187c.45-.85,2.14.25,2.38.93s-.49,8.13-.49,8.13,2.34,1.9,2.39,4.38-3.26,4.38-3.46,4.67.39,2.58-2.72,3.9-5.6.39-5.84-1.27,5.16-13.77,6-16.06S210,187.72,210.42,187Z"/><path class="cls-20" d="M263.73,220.48l-.52-8.34s-1.17,3.75-4.63,3.75-7.74-2.83-13.82-5.21a31.38,31.38,0,0,0-12.1-1.86,26.57,26.57,0,0,0-10.29,1.86c-6.09,2.38-10.37,5.21-13.83,5.21s-4.62-3.75-4.62-3.75l-.53,8.34Z"/><path class="cls-20" d="M204.63,220.48c0-.54,0-1.09,0-1.64a29.4,29.4,0,1,1,58.8,0c0,.55,0,1.1-.05,1.64h6.07c0-.54,0-1.09,0-1.64a35.46,35.46,0,1,0-70.92,0c0,.55,0,1.1,0,1.64Z"/><path class="cls-16" d="M204.35,189.7a44,44,0,0,1,7.26,7.15c.68,1.17.24,3.07-1.37,2.63s-7.3-5.65-8.32-7S202.5,188.63,204.35,189.7Z"/><path class="cls-16" d="M200.77,192.09a44,44,0,0,1,7.79,6.57c.78,1.11.49,3-1.15,2.72s-7.72-5-8.84-6.28S198.85,191.17,200.77,192.09Z"/><path class="cls-16" d="M199.65,196.76A43,43,0,0,1,208,202c.88.95.87,2.83-.73,2.75s-8.05-3.78-9.28-4.8S197.69,196.14,199.65,196.76Z"/><path class="cls-16" d="M200.15,201.23a36.11,36.11,0,0,1,6.76,4.7c.69.82.53,2.34-.84,2.18s-6.65-3.52-7.64-4.42A1.56,1.56,0,0,1,200.15,201.23Z"/><path class="cls-16" d="M262.27,188A44.73,44.73,0,0,0,255,195.2c-.68,1.17-.24,3.06,1.36,2.63s7.3-5.65,8.33-7S264.12,187,262.27,188Z"/><path class="cls-16" d="M265.85,190.43a44.84,44.84,0,0,0-7.79,6.57c-.77,1.11-.48,3,1.15,2.73s7.73-5.06,8.85-6.29S267.78,189.51,265.85,190.43Z"/><path class="cls-16" d="M267,195.11a42.61,42.61,0,0,0-8.31,5.2c-.89,1-.87,2.83.73,2.76s8-3.78,9.28-4.8S268.94,194.49,267,195.11Z"/><path class="cls-16" d="M266.48,199.57a36.67,36.67,0,0,0-6.77,4.7c-.69.83-.53,2.34.85,2.19s6.65-3.53,7.63-4.43A1.56,1.56,0,0,0,266.48,199.57Z"/><path class="cls-21" d="M68.52,205.47c4.46,5.23,13.21,12,29.19,13.26l67.56-87.5H122.9Z"/><path class="cls-21" d="M196.6,131.23,127.75,220l10.28.23,69.08-89Z"/><path class="cls-21" d="M214.53,131.23l-69.21,89.15,10.36.15L225,131.23Z"/><rect class="cls-10" x="197.71" y="125.14" width="66.34" height="4.83"/><path class="cls-22" d="M140.29,187.38c7.27,4.87,10.09,30.53,10.09,30.53l-41.22,2.29s4.78-30.15,9.45-32.82S132.88,182.42,140.29,187.38Z"/><path class="cls-23" d="M141.61,218.4c-1.7-7.54-4.65-21.5-3.83-24.53a11.91,11.91,0,0,0-1.49-8.44c-5.53-1.85-11.52-.78-15.59.93-.74,5.16,1.87,12,2.58,13.23.81,1.35-1.23,13.13-2.5,20Z"/><path class="cls-22" d="M125.19,143.49c12.59.45,12.21,11.83,13.74,18.32s3.59,14.4,2.67,21.75c-1.53,12.22-23.66,13.74-25.57-.76-1.4-10.65-.76-13.36-.76-18.7S114.5,143.11,125.19,143.49Z"/><path class="cls-23" d="M141.6,183.56a36.83,36.83,0,0,0-.14-9.2,75.73,75.73,0,0,0-9.78-1.48c-.38,0-2.45-12.77-2.67-14.12a2.81,2.81,0,0,1,1.9-3.06s-2.12.39-2.67,0a6.74,6.74,0,0,1-2.29-3.43c.38,1.91-.76,2.67-1.14,3.43s-1.91,1.15-1.91,1.15,1.91,0,2.67,3.82,1.91,10.68,1.15,12.59c-.61,1.51-7.4,1.59-11.17,5.5.13,1.21.28,2.55.48,4C117.94,197.3,140.07,195.78,141.6,183.56Z"/><path class="cls-24" d="M117.29,146.62c3.38-.09-.5,9.85-3.17,17.48s.76,15.27-3.05,16-20.23,0-20.61-4.2,6.11-2.67,11.45-7.25S114.36,146.7,117.29,146.62Z"/><path class="cls-24" d="M132.82,146.55c2-2,8.78,5.72,10.31,11.06s7.25,9.93,9.92,11.45,9.16,5,7.63,6.87-8-.76-9.54,0-3.82,2.67-6.11,1.91-2.46-3.28-4.19-6.87c-5.35-11.07-1.91-13-5.35-19.85C134.53,149.19,131.68,147.69,132.82,146.55Z"/><path class="cls-19" d="M134.73,177.08c.58,1.46-2.29,3.81-4.2,3.81s-4.58-1.52-4.58-3S134,175.17,134.73,177.08Z"/><path class="cls-23" d="M125.19,165.36c0,2.8-1.2,2.94-2.67,2.94s-2.67-.14-2.67-2.94,1.19-5.08,2.67-5.08S125.19,162.56,125.19,165.36Z"/><ellipse class="cls-19" cx="122.78" cy="164.56" rx="0.8" ry="2.14"/><path class="cls-19" d="M123.28,184.71c.24-.48,2.29,1.91,3.82,1.91s2.67-2.67,3.43-2.67,1.15,1.9,3.05,1.9,2.29-1.9,3.06-1.52-.77,2.29-2.67,2.29-3.06-1.53-3.44-1.53-1.91,2.29-3.43,2.29S122.9,185.47,123.28,184.71Z"/><path class="cls-23" d="M136.26,165c0,2.8-1.2,2.94-2.68,2.94s-2.67-.14-2.67-2.94,1.2-5.08,2.67-5.08S136.26,162.17,136.26,165Z"/><ellipse class="cls-19" cx="133.85" cy="164.18" rx="0.8" ry="2.14"/><path class="cls-22" d="M115.12,193.76c4.56,2-1.76,20.72-3.67,22.62s-8,4.58-8,0S110.4,191.75,115.12,193.76Z"/><path class="cls-23" d="M109.16,212.57c2.67.19,5.34,6.49,4.2,7.25a3,3,0,0,1-2.67,0s.38.38-1.53.76-1.53-1.14-1.53-1.14-1.14,1.91-2.67,1.14a2.05,2.05,0,0,1-1.14-2.29S103.82,212.19,109.16,212.57Z"/></g></svg>