<svg xmlns="http://www.w3.org/2000/svg" xmlns:xlink="http://www.w3.org/1999/xlink" viewBox="0 0 365.5 306.67"><defs><style>.cls-1{fill:none;}.cls-2{opacity:0.15;}.cls-3{fill:#232323;}.cls-4{clip-path:url(#clip-path);}.cls-5{clip-path:url(#clip-path-2);}.cls-18,.cls-6{fill:#0c96fd;}.cls-7{fill:#1d7dcc;}.cls-8{fill:#8a9995;}.cls-9{fill:#fff;}.cls-10{fill:#606060;}.cls-11{fill:#303030;}.cls-12{fill:#3b3b3b;}.cls-13{fill:#f69576;}.cls-14{fill:#dd866f;}.cls-15{fill:#a5713d;}.cls-16{fill:#6b3425;}.cls-17{fill:#72645d;}.cls-18{opacity:0.21;}.cls-19{fill:#ff6d00;}.cls-20{fill:#ffdfc6;}.cls-21{fill:#a84400;}</style><clipPath id="clip-path"><rect class="cls-1" x="6.07" y="192.93" width="128.31" height="44.06" rx="7.47" transform="translate(284.08 141.42) rotate(89.11)"/></clipPath><clipPath id="clip-path-2"><rect class="cls-1" x="241.22" y="192.93" width="128.31" height="44.06" rx="7.47" transform="translate(515.59 -93.7) rotate(89.11)"/></clipPath></defs><title>people</title><g id="Слой_7" data-name="Слой 7"><path class="cls-2" d="M365.5,282.16c0,13.54-81.82,24.51-182.75,24.51S0,295.7,0,282.16c0-7.06,22.27-83.44,57.91-87.91,32.67-4.1,76.57-6.61,124.84-6.61,50.46,0,96.15,2.74,129.22,7.17S365.5,275.39,365.5,282.16Z"/><rect class="cls-3" x="6.07" y="192.93" width="128.31" height="44.06" rx="7.47" transform="translate(284.08 141.42) rotate(89.11)"/><g class="cls-4"><polygon points="78.2 163.55 83.49 153.83 93.57 153.16 93.38 140.61 85.42 140.73 78.03 152.81 78.2 163.55"/><polygon points="64.47 158.53 69.87 166.79 75.02 158.75 74.85 147.43 69.69 154.82 64.29 146.69 64.47 158.53"/><polygon points="60.95 153.08 53.2 141.23 45.24 141.35 45.44 153.9 55.54 154.26 61.12 163.82 60.95 153.08"/><polygon points="78.47 180.63 83.75 170.91 93.83 170.24 93.64 157.69 85.68 157.81 78.3 169.89 78.47 180.63"/><polygon points="70.14 183.87 75.28 175.83 75.11 164.51 69.95 171.9 64.55 163.76 64.73 175.6 70.14 183.87"/><polygon points="61.22 170.16 53.47 158.31 45.51 158.43 45.7 170.98 55.8 171.34 61.38 180.9 61.22 170.16"/><polygon points="78.75 199.27 84.04 189.54 94.12 188.87 93.93 176.32 85.97 176.44 78.59 188.53 78.75 199.27"/><polygon points="70.42 202.5 75.57 194.46 75.4 183.14 70.24 190.53 64.84 182.4 65.02 194.24 70.42 202.5"/><polygon points="61.51 188.79 53.75 176.94 45.8 177.06 45.99 189.61 56.09 189.97 61.67 199.53 61.51 188.79"/><polygon points="79.02 216.35 84.3 206.62 94.39 205.95 94.19 193.4 86.23 193.52 78.85 205.61 79.02 216.35"/><polygon points="70.69 219.58 75.84 211.54 75.66 200.22 70.5 207.61 65.1 199.48 65.28 211.32 70.69 219.58"/><polygon points="61.77 205.87 54.02 194.02 46.06 194.14 46.25 206.69 56.35 207.05 61.94 216.61 61.77 205.87"/><polygon points="79.28 233.43 84.57 223.7 94.65 223.03 94.46 210.48 86.5 210.6 79.11 222.69 79.28 233.43"/><polygon points="70.95 236.66 76.1 228.62 75.92 217.3 70.77 224.69 65.37 216.56 65.55 228.4 70.95 236.66"/><polygon points="62.03 222.95 54.28 211.1 46.32 211.22 46.52 223.77 56.62 224.13 62.2 233.69 62.03 222.95"/><polygon points="79.54 250.5 84.83 240.78 94.91 240.11 94.72 227.56 86.76 227.68 79.38 239.76 79.54 250.5"/><polygon points="71.21 253.74 76.36 245.7 76.19 234.38 71.03 241.77 65.63 233.64 65.81 245.48 71.21 253.74"/><polygon points="62.3 240.03 54.55 228.18 46.59 228.3 46.78 240.85 56.88 241.21 62.47 250.77 62.3 240.03"/><polygon points="79.83 269.14 85.12 259.41 95.2 258.74 95.01 246.19 87.05 246.31 79.67 258.4 79.83 269.14"/><polygon points="71.5 272.37 76.65 264.33 76.48 253.01 71.32 260.4 65.92 252.27 66.1 264.11 71.5 272.37"/><polygon points="62.59 258.66 54.83 246.81 46.88 246.93 47.07 259.48 57.17 259.85 62.75 269.4 62.59 258.66"/><polygon points="80.1 286.22 85.38 276.49 95.47 275.82 95.27 263.27 87.31 263.39 79.93 275.48 80.1 286.22"/><polygon points="71.77 289.45 76.92 281.41 76.74 270.09 71.58 277.48 66.18 269.35 66.36 281.19 71.77 289.45"/><polygon points="55.1 263.89 47.14 264.01 47.33 276.56 57.43 276.93 63.02 286.48 62.85 275.74 55.1 263.89"/></g><rect class="cls-3" x="241.22" y="192.93" width="128.31" height="44.06" rx="7.47" transform="translate(515.59 -93.7) rotate(89.11)"/><g class="cls-5"><polygon points="313.35 163.55 318.63 153.83 328.72 153.16 328.52 140.61 320.57 140.73 313.18 152.81 313.35 163.55"/><polygon points="299.62 158.53 305.02 166.79 310.17 158.75 309.99 147.43 304.83 154.82 299.43 146.69 299.62 158.53"/><polygon points="296.1 153.08 288.35 141.23 280.39 141.35 280.58 153.9 290.68 154.26 296.27 163.82 296.1 153.08"/><polygon points="313.61 180.63 318.9 170.91 328.98 170.24 328.79 157.69 320.83 157.81 313.44 169.89 313.61 180.63"/><polygon points="305.28 183.87 310.43 175.83 310.26 164.51 305.1 171.9 299.7 163.76 299.88 175.6 305.28 183.87"/><polygon points="296.37 170.16 288.61 158.31 280.65 158.43 280.85 170.98 290.95 171.34 296.53 180.9 296.37 170.16"/><polygon points="313.9 199.27 319.18 189.54 329.27 188.87 329.07 176.32 321.12 176.44 313.73 188.53 313.9 199.27"/><polygon points="305.57 202.5 310.72 194.46 310.54 183.14 305.38 190.53 299.98 182.4 300.17 194.24 305.57 202.5"/><polygon points="296.65 188.79 288.9 176.94 280.94 177.06 281.13 189.61 291.24 189.97 296.82 199.53 296.65 188.79"/><polygon points="314.16 216.35 319.45 206.62 329.53 205.95 329.34 193.4 321.38 193.52 314 205.61 314.16 216.35"/><polygon points="305.83 219.58 310.98 211.54 310.81 200.22 305.65 207.61 300.25 199.48 300.43 211.32 305.83 219.58"/><polygon points="296.92 205.87 289.16 194.02 281.2 194.14 281.4 206.69 291.5 207.05 297.08 216.61 296.92 205.87"/><polygon points="314.43 233.43 319.71 223.7 329.8 223.03 329.6 210.48 321.64 210.6 314.26 222.69 314.43 233.43"/><polygon points="306.1 236.66 311.25 228.62 311.07 217.3 305.91 224.69 300.51 216.56 300.69 228.4 306.1 236.66"/><polygon points="297.18 222.95 289.43 211.1 281.47 211.22 281.66 223.77 291.76 224.13 297.35 233.69 297.18 222.95"/><polygon points="314.69 250.5 319.98 240.78 330.06 240.11 329.87 227.56 321.91 227.68 314.52 239.76 314.69 250.5"/><polygon points="306.36 253.74 311.51 245.7 311.33 234.38 306.18 241.77 300.78 233.64 300.96 245.48 306.36 253.74"/><polygon points="297.44 240.03 289.69 228.18 281.73 228.3 281.93 240.85 292.03 241.21 297.61 250.77 297.44 240.03"/><polygon points="314.98 269.14 320.26 259.41 330.35 258.74 330.15 246.19 322.2 246.31 314.81 258.4 314.98 269.14"/><polygon points="306.65 272.37 311.8 264.33 311.62 253.01 306.46 260.4 301.06 252.27 301.25 264.11 306.65 272.37"/><polygon points="297.73 258.66 289.98 246.81 282.02 246.93 282.21 259.48 292.31 259.85 297.9 269.4 297.73 258.66"/><polygon points="315.24 286.22 320.53 276.49 330.61 275.82 330.42 263.27 322.46 263.39 315.08 275.48 315.24 286.22"/><polygon points="306.91 289.45 312.06 281.41 311.89 270.09 306.73 277.48 301.33 269.35 301.51 281.19 306.91 289.45"/><polygon points="290.24 263.89 282.29 264.01 282.48 276.56 292.58 276.93 298.16 286.48 298 275.74 290.24 263.89"/></g><path class="cls-6" d="M195.79,153H15.36s-.41-8.59,4.91-19.64,16-20.68,22.71-29.57S55.86,74.43,64.87,57.66c7.42-13.84,19.85-44.07,24-54.24A5.48,5.48,0,0,1,93.94,0H190.3a5.49,5.49,0,0,1,5.49,5.49Z"/><path class="cls-6" d="M31.14,65.43H49.89a4.2,4.2,0,0,1,4.2,4.2V81.26a0,0,0,0,1,0,0h-23a2.68,2.68,0,0,1-2.68-2.68V68.11A2.68,2.68,0,0,1,31.14,65.43Z"/><rect class="cls-7" x="11.68" y="152.99" width="184.12" height="59.33"/><path class="cls-8" d="M17.81,180.81s19.5-2.86,23.46,0S54.09,205,54.09,205H28.45Z"/><path class="cls-9" d="M26,141.94c3.13-6,41.32-7.77,47.87-3.27S88.6,155.44,87,158.31,16.59,159.94,26,141.94Z"/><circle class="cls-9" cx="101.18" cy="149.2" r="6.44"/><path class="cls-10" d="M8.4,212.32H195.79a0,0,0,0,1,0,0v26.59a0,0,0,0,1,0,0H12a3.63,3.63,0,0,1-3.62-3.62v-23A0,0,0,0,1,8.4,212.32Z"/><path class="cls-11" d="M195.79,205H112a6.48,6.48,0,0,1-6.41-7.4l4.19-29.14a10.41,10.41,0,0,1,10.3-8.92h75.68Z"/><rect class="cls-10" x="133.4" y="161.58" width="62.4" height="6.74"/><rect class="cls-10" x="133.4" y="173.56" width="62.4" height="6.74"/><rect class="cls-10" x="133.4" y="182.55" width="62.4" height="6.74"/><rect class="cls-10" x="133.4" y="194.53" width="62.4" height="6.74"/><polygon class="cls-8" points="134.01 208.22 126.24 208.22 132.78 155.65 140.56 155.65 134.01 208.22"/><rect class="cls-11" x="164.6" y="225.61" width="31.2" height="8.39"/><path class="cls-6" d="M175.64,153H356.07s.41-8.59-4.91-19.64-16-20.68-22.71-29.57-12.88-29.35-21.89-46.12c-7.42-13.84-19.85-44.07-24-54.24A5.48,5.48,0,0,0,277.49,0H181.13a5.49,5.49,0,0,0-5.49,5.49Z"/><path class="cls-6" d="M320,65.43h23a0,0,0,0,1,0,0V77.06a4.2,4.2,0,0,1-4.2,4.2H320a2.68,2.68,0,0,1-2.68-2.68V68.11A2.68,2.68,0,0,1,320,65.43Z" transform="translate(660.32 146.69) rotate(180)"/><rect class="cls-7" x="175.64" y="152.99" width="184.12" height="59.33" transform="translate(535.39 365.3) rotate(-180)"/><path class="cls-8" d="M353.62,180.81s-19.5-2.86-23.46,0S317.34,205,317.34,205H343Z"/><path class="cls-9" d="M345.43,141.94c-3.13-6-41.32-7.77-47.87-3.27s-14.73,16.77-13.09,19.64S354.84,159.94,345.43,141.94Z"/><circle class="cls-9" cx="270.25" cy="149.2" r="6.44"/><path class="cls-10" d="M179.26,212.32H363a0,0,0,0,1,0,0v26.59a0,0,0,0,1,0,0H175.64a0,0,0,0,1,0,0v-23A3.62,3.62,0,0,1,179.26,212.32Z" transform="translate(538.66 451.23) rotate(-180)"/><path class="cls-12" d="M279.56,6H91.87L64.46,75.25S71,92.84,98,94.89c17.79,1.35,54.59,1.81,77.63,2v.08l10.07,0,10.08,0v-.08c23-.15,59.84-.61,77.63-2,27-2,33.55-19.64,33.55-19.64Z"/><path class="cls-11" d="M175.64,205H259.4a6.48,6.48,0,0,0,6.41-7.4l-4.2-29.14a10.39,10.39,0,0,0-10.29-8.92H175.64Z"/><rect class="cls-10" x="175.64" y="161.58" width="62.4" height="6.74" transform="translate(413.67 329.9) rotate(-180)"/><rect class="cls-10" x="175.64" y="173.56" width="62.4" height="6.74" transform="translate(413.67 353.86) rotate(-180)"/><rect class="cls-10" x="175.64" y="182.55" width="62.4" height="6.74" transform="translate(413.67 371.83) rotate(-180)"/><rect class="cls-10" x="175.64" y="194.53" width="62.4" height="6.74" transform="translate(413.67 395.8) rotate(-180)"/><polygon class="cls-8" points="237.42 208.22 245.19 208.22 238.65 155.65 230.87 155.65 237.42 208.22"/><rect class="cls-11" x="175.64" y="225.61" width="31.2" height="8.39" transform="translate(382.47 459.61) rotate(-180)"/><rect class="cls-13" x="200.67" y="72.59" width="66.42" height="23.67"/><path d="M204.55,52.8c1.6-8.22,17-6,27.92-5.65s20.13-4.24,25.79-.35,4.24,49.46,4.24,49.46H210.56S202.08,65.52,204.55,52.8Z"/><polygon class="cls-13" points="243.95 50.52 221.65 50.52 223.51 29.84 239.3 29.84 243.95 50.52"/><path class="cls-14" d="M222.4,42.21a20.13,20.13,0,0,0,10.4,2.7,20.65,20.65,0,0,0,9.4-2.14l-2.9-12.93H223.51Z"/><path class="cls-15" d="M223.28,8.29a9.71,9.71,0,0,0-6.71,7.06c-.71,3.53.7,14.13,4.59,17s21-.41,21.9-.71c5.66-1.76,3.54-15.89.71-18.72S230.7,5.81,223.28,8.29Z"/><path class="cls-14" d="M215.3,20.79c.75-3.67,6.18-.35,5.17,6.43C219.46,34.18,214.2,26.23,215.3,20.79Z"/><path class="cls-16" d="M219.46,28.07s0,0-.05,0a.21.21,0,0,1,0-.22,8,8,0,0,0,0-3.53c-.2-1.06-.71-2.9-1.88-3.18a1,1,0,0,0-1.32.64A5.16,5.16,0,0,0,216,24a.28.28,0,0,1-.06.21s-.09,0-.1-.1a5.71,5.71,0,0,1,.23-2.51,1.15,1.15,0,0,1,1.45-.74c.93.21,1.66,1.45,2,3.39a8.46,8.46,0,0,1,0,3.85Z"/><path class="cls-16" d="M217.52,27.47s-.05,0-.07-.11a15.29,15.29,0,0,1,.27-6.43c0-.07.07-.1.11-.07a.31.31,0,0,1,0,.22,14.81,14.81,0,0,0-.27,6.14.28.28,0,0,1,0,.21S217.52,27.47,217.52,27.47Z"/><path class="cls-14" d="M242.48,27.22c-1-6.78,4.42-10.1,5.17-6.43C248.75,26.23,243.5,34.18,242.48,27.22Z"/><path class="cls-16" d="M243.44,28.07a8.61,8.61,0,0,1,0-3.85c.36-1.94,1.09-3.18,2-3.39a1.16,1.16,0,0,1,1.46.74,5.88,5.88,0,0,1,.23,2.51c0,.07-.07.14-.11.1a.28.28,0,0,1,0-.21,5.06,5.06,0,0,0-.2-2.22,1,1,0,0,0-1.31-.64c-1.17.28-1.69,2.12-1.88,3.18a7.8,7.8,0,0,0,0,3.53.28.28,0,0,1,0,.22.05.05,0,0,1-.05,0Z"/><path class="cls-16" d="M245.4,27.43a.24.24,0,0,1,0-.21,14.81,14.81,0,0,0-.27-6.14.3.3,0,0,1,0-.22s.09,0,.11.07a15.2,15.2,0,0,1,.26,6.43c0,.07,0,.11-.07.11S245.41,27.47,245.4,27.43Z"/><path class="cls-13" d="M231.53,8.84C223.8,6.61,218,11.11,218,23c0,5.82,1.23,7,3.32,12,1,2.46,6.49,7.33,10,8.24h.43c3.52-.91,9-5.78,10-8.24,2.09-5,3.32-6.19,3.32-12C245.07,11.11,239.25,6.61,231.53,8.84Z"/><path class="cls-15" d="M218,13.23s4.92,0,8.13,1.77c3.88,2.12,10.58,5.17,16.6,4.59,10.95-1.06,3.18-13.42.35-13.42.71,1.06-.7,2.47-2.12,2.12S226.46-6.91,218,13.23Z"/><path class="cls-9" d="M227.66,32.7s.46,2.83,2.12,3.43a3.74,3.74,0,0,0,4.13-.75,7.88,7.88,0,0,0,1.17-2.72Z"/><path class="cls-16" d="M231.41,31.53a.42.42,0,0,1-.32-.1.86.86,0,0,1-.21-.67v-.11a.88.88,0,0,0-.25.21.6.6,0,0,1-.53.18.83.83,0,0,1-.53-.67,3.6,3.6,0,0,1,.46-1.66.16.16,0,0,1,.28.14,2.63,2.63,0,0,0-.42,1.41c.07.28.17.39.28.43s.14,0,.18-.08c.24-.24.42-.35.56-.35a.28.28,0,0,1,.21.14.64.64,0,0,1,0,.29.69.69,0,0,0,.1.45s.11,0,.22,0,.24-.21.24-.57c0-.17,0-.31.07-.38a.27.27,0,0,1,.18-.07c.14,0,.21.1.32.17s.28.18.42.07a.34.34,0,0,0,.07-.35,2.35,2.35,0,0,0-.56-1.31c-.07,0-.07-.14,0-.21a.19.19,0,0,1,.22,0,2.58,2.58,0,0,1,.7,1.56c0,.28,0,.49-.18.6a.58.58,0,0,1-.84,0l-.07-.07v.07c0,.29,0,.82-.53.92Zm-.5-.88Z"/><ellipse class="cls-16" cx="224.8" cy="26.13" rx="0.6" ry="1.2"/><path class="cls-16" d="M222.71,23a4.9,4.9,0,0,1,2.4-1,4.26,4.26,0,0,1,2.12.5c.43.1.5-.5.25-1s-1.13-.88-2.62-.85a3.48,3.48,0,0,0-2.68,1.17C221.76,22.24,222.07,23.51,222.71,23Z"/><ellipse class="cls-16" cx="236.74" cy="26.2" rx="0.6" ry="1.2"/><path class="cls-16" d="M234.35,22.34a4.9,4.9,0,0,1,2.57-.38,4.25,4.25,0,0,1,1.94,1c.38.2.59-.36.47-.9s-.88-1.13-2.33-1.45a3.61,3.61,0,0,0-2.89.48C233.59,21.43,233.6,22.71,234.35,22.34Z"/><path class="cls-16" d="M235.89,36.76a24,24,0,0,1-1.8,3.5,6.89,6.89,0,0,1-2.51.33,7,7,0,0,1-2.51-.33,24,24,0,0,1-1.8-3.5l-.92.21s1.42,4.56,1.63,5a12.14,12.14,0,0,0,3.43,2V44l.17,0a.62.62,0,0,0,.18,0V44a12.29,12.29,0,0,0,3.43-2c.21-.39,1.62-5,1.62-5Z"/><rect class="cls-16" x="231.05" y="36.9" width="1.41" height="2.83"/><ellipse class="cls-13" cx="232.64" cy="50.01" rx="12.54" ry="4.92"/><path d="M208.79,49.32c6.67.89,7.42,5.31,8.13,8.35s.71,19,.71,19l-21.2,2.66s.71-14,2.83-22C201,50.72,206,48.94,208.79,49.32Z"/><path d="M256.24,47.55c-6.66.9-7.42,5.31-8.12,8.35s-.71,19-.71,19l21.2,2.65s-.71-14-2.83-22C264,49,259.07,47.17,256.24,47.55Z"/><path class="cls-13" d="M256.21,61.47c-.46-.85-2.14.25-2.38.93s.48,8.13.48,8.13-2.33,1.9-2.38,4.38,3.26,4.38,3.45,4.67-.39,2.58,2.73,3.9,5.6.39,5.84-1.27-5.16-13.77-6-16.06S256.6,62.2,256.21,61.47Z"/><path class="cls-13" d="M210.42,63.13c.45-.86,2.14.24,2.38.92s-.49,8.13-.49,8.13,2.34,1.9,2.39,4.38-3.26,4.39-3.46,4.68.39,2.58-2.72,3.89-5.6.39-5.84-1.26,5.16-13.78,6-16.07S210,63.86,210.42,63.13Z"/><path class="cls-17" d="M263.73,96.61l-.52-8.34S262,92,258.58,92s-7.74-2.82-13.82-5.21A31.11,31.11,0,0,0,232.66,85a26.5,26.5,0,0,0-10.29,1.85C216.28,89.2,212,92,208.54,92s-4.62-3.75-4.62-3.75l-.53,8.34Z"/><path class="cls-17" d="M204.63,96.61c0-.54,0-1.08,0-1.63a29.4,29.4,0,1,1,58.8,0c0,.55,0,1.09-.05,1.63h6.07c0-.54,0-1.08,0-1.63a35.46,35.46,0,1,0-70.92,0c0,.55,0,1.09,0,1.63Z"/><path class="cls-13" d="M204.35,65.83A44.41,44.41,0,0,1,211.61,73c.68,1.17.24,3.06-1.37,2.63s-7.3-5.65-8.32-7S202.5,64.76,204.35,65.83Z"/><path class="cls-13" d="M200.77,68.22a44.47,44.47,0,0,1,7.79,6.57c.78,1.11.49,3-1.15,2.73s-7.72-5.06-8.84-6.29S198.85,67.3,200.77,68.22Z"/><path class="cls-13" d="M199.65,72.9A43,43,0,0,1,208,78.1c.88,1,.87,2.83-.73,2.76s-8.05-3.78-9.28-4.8S197.69,72.28,199.65,72.9Z"/><path class="cls-13" d="M200.15,77.36a36.58,36.58,0,0,1,6.76,4.7c.69.83.53,2.34-.84,2.19s-6.65-3.53-7.64-4.43A1.56,1.56,0,0,1,200.15,77.36Z"/><path class="cls-13" d="M262.27,64.18A44.28,44.28,0,0,0,255,71.33c-.68,1.17-.24,3.07,1.36,2.63s7.3-5.65,8.33-7S264.12,63.1,262.27,64.18Z"/><path class="cls-13" d="M265.85,66.57a44.41,44.41,0,0,0-7.79,6.57c-.77,1.11-.48,3,1.15,2.72s7.73-5,8.85-6.29S267.78,65.65,265.85,66.57Z"/><path class="cls-13" d="M267,71.24a42.64,42.64,0,0,0-8.31,5.21c-.89,1-.87,2.83.73,2.75s8-3.78,9.28-4.8S268.94,70.62,267,71.24Z"/><path class="cls-13" d="M266.48,75.71a36.19,36.19,0,0,0-6.77,4.7c-.69.82-.53,2.34.85,2.18s6.65-3.52,7.63-4.42A1.55,1.55,0,0,0,266.48,75.71Z"/><path class="cls-18" d="M68.52,81.61c4.46,5.22,13.21,12,29.19,13.25l67.56-87.5H122.9Z"/><path class="cls-18" d="M196.6,7.36,127.75,96.15c3.37.09,6.81.16,10.28.23l69.08-89Z"/><path class="cls-18" d="M214.53,7.36,145.32,96.51l10.36.15L225,7.36Z"/><rect class="cls-6" x="197.71" y="1.28" width="66.34" height="4.83"/><path class="cls-19" d="M140.29,63.51c7.27,4.87,10.09,30.54,10.09,30.54l-41.22,2.29s4.78-30.15,9.45-32.83S132.88,58.55,140.29,63.51Z"/><path class="cls-20" d="M141.61,94.53C139.91,87,137,73,137.78,70a11.93,11.93,0,0,0-1.49-8.44c-5.53-1.85-11.52-.77-15.59.93-.74,5.17,1.87,12.06,2.58,13.24.81,1.34-1.23,13.13-2.5,20Z"/><path class="cls-19" d="M125.19,19.63c12.59.45,12.21,11.83,13.74,18.32s3.59,14.4,2.67,21.75c-1.53,12.21-23.66,13.74-25.57-.76-1.4-10.66-.76-13.36-.76-18.7S114.5,19.25,125.19,19.63Z"/><path class="cls-20" d="M141.6,59.7a36.83,36.83,0,0,0-.14-9.2A76.54,76.54,0,0,0,131.68,49c-.38,0-2.45-12.76-2.67-14.12a2.79,2.79,0,0,1,1.9-3.05s-2.12.39-2.67,0A6.81,6.81,0,0,1,126,28.4c.38,1.91-.76,2.68-1.14,3.44S122.9,33,122.9,33s1.91,0,2.67,3.82,1.91,10.69,1.15,12.59c-.61,1.51-7.4,1.59-11.17,5.51.13,1.21.28,2.54.48,4C117.94,73.44,140.07,71.91,141.6,59.7Z"/><path class="cls-21" d="M117.29,22.76c3.38-.09-.5,9.84-3.17,17.48s.76,15.26-3.05,16-20.23,0-20.61-4.19,6.11-2.68,11.45-7.26S114.36,22.84,117.29,22.76Z"/><path class="cls-21" d="M132.82,22.68c2-2,8.78,5.72,10.31,11.07s7.25,9.92,9.92,11.45,9.16,5,7.63,6.87-8-.77-9.54,0S147.32,54.74,145,54s-2.46-3.28-4.19-6.87c-5.35-11.06-1.91-13-5.35-19.84C134.53,25.33,131.68,23.83,132.82,22.68Z"/><path class="cls-16" d="M134.73,53.21c.58,1.46-2.29,3.82-4.2,3.82S126,55.5,126,54,134,51.3,134.73,53.21Z"/><path class="cls-20" d="M125.19,41.49c0,2.81-1.2,2.94-2.67,2.94s-2.67-.13-2.67-2.94,1.19-5.07,2.67-5.07S125.19,38.69,125.19,41.49Z"/><ellipse class="cls-16" cx="122.78" cy="40.69" rx="0.8" ry="2.14"/><path class="cls-16" d="M123.28,60.84c.24-.48,2.29,1.91,3.82,1.91s2.67-2.67,3.43-2.67S131.68,62,133.58,62s2.29-1.91,3.06-1.53-.77,2.29-2.67,2.29-3.06-1.52-3.44-1.52-1.91,2.28-3.43,2.28S122.9,61.61,123.28,60.84Z"/><path class="cls-20" d="M136.26,41.11c0,2.81-1.2,2.94-2.68,2.94s-2.67-.13-2.67-2.94,1.2-5.07,2.67-5.07S136.26,38.31,136.26,41.11Z"/><ellipse class="cls-16" cx="133.85" cy="40.31" rx="0.8" ry="2.14"/><path class="cls-19" d="M115.12,69.9c4.56,1.94-1.76,20.71-3.67,22.62s-8,4.58-8,0S110.4,67.89,115.12,69.9Z"/><path class="cls-20" d="M109.16,88.7c2.67.19,5.34,6.49,4.2,7.25a2.94,2.94,0,0,1-2.67,0s.38.39-1.53.77-1.53-1.15-1.53-1.15-1.14,1.91-2.67,1.15a2.06,2.06,0,0,1-1.14-2.29S103.82,88.32,109.16,88.7Z"/></g></svg>