<svg xmlns="http://www.w3.org/2000/svg" viewBox="0 0 190.37 321.15"><defs><style>.cls-1{fill:#f69576;}.cls-2{fill:#512176;}.cls-3{fill:#7d009b;}.cls-4{fill:#dd866f;}.cls-5{fill:#ffe051;}.cls-6{fill:#dbac73;}.cls-7{fill:#fff;}.cls-8{fill:#6b3425;}.cls-9{fill:#e7d0b0;}.cls-10{fill:#dbb5a2;}.cls-11{fill:#a84400;}.cls-12{fill:#ffdfc6;}.cls-13{fill:#ff6d00;}</style></defs><title>people</title><g id="Слой_8" data-name="Слой 8"><path class="cls-1" d="M85.7,126.92s6,8.81,9.7,29,1.38,52.14,0,58.38-16.16,86.64-15.24,89.21S95.4,315.26,95.4,315.26H67.7s-5-55.07-4.34-64.62,8-23.12,8-23.12L45.54,133.9Z"/><path class="cls-2" d="M67,306.92a12.67,12.67,0,0,0-1.58,6c0,3.43,1.69,5,4.77,5.39s8.77-.49,10.46,0,.77,2.57,4.93,2.69,18.46.25,19.08,0-.46-3.67-1.85-4.65-9.8-2.69-9.8-2.69-7.74,1.47-14-1.47S67,306.92,67,306.92Z"/><polygon class="cls-3" points="73.7 316.73 72.78 321.15 68.62 321.15 66.62 315.26 73.7 316.73"/><path class="cls-1" d="M70.44,126.92s6,8.81,9.69,29,1.39,52.14,0,58.38-31.14,87-30.22,89.6,13,14.12,13,14.12l-32.43-7.25s7.89-52.18,11.45-61.06a72.18,72.18,0,0,1,14.23-22.19L44.57,132.93Z"/><path class="cls-2" d="M28.8,306.92a12.73,12.73,0,0,0-1.57,6c0,3.43,1.69,5,4.77,5.39s8.77-.49,10.46,0,.77,2.57,4.93,2.69,18.46.25,19.07,0-.46-3.67-1.84-4.65-9.8-2.69-9.8-2.69-7.74,1.47-14-1.47S28.8,306.92,28.8,306.92Z"/><polygon class="cls-3" points="35.54 316.73 34.61 321.15 30.46 321.15 28.46 315.26 35.54 316.73"/><path class="cls-4" d="M87.41,82.05l27.44,14.38s27.63-5.92,29.17-6.6,8.45-8.52,9.23-9,1.63-.3,1.49.74-.84,4.32-.84,4.32a65.73,65.73,0,0,0,6.49-2.2c.49-.42,3.65-3.92,4.36-4.29s2.08-.11,1.89.74-2.85,5.93-2.85,5.93,1.54,4.64.05,6.71-9.72,5-13.79,6-34.56,10.54-37.19,10.88-4.85-1.12-10.15-3.57C93.85,102,77.81,92,77.81,92Z"/><path class="cls-5" d="M57.8,64c5.58-1.33,18.53-3,23.44,3.33a30.1,30.1,0,0,1,5.83,12.57s5.36,1.39,6,3.35S84.5,95.72,81.76,95,55.08,79.18,55.08,79.18Z"/><path class="cls-6" d="M68.1,17.41c6.62,4.36,3.37,22.6,8.53,28.65-8.33,1.06-56.86,9.49-56.86,9.49s-7.25-21.23-2.69-29.23S57,10.08,68.1,17.41Z"/><path class="cls-5" d="M75.32,82.25c2.61,2.28,3.71,11.39,1.78,14-5.63,7.58,12.3,31.35,12.3,31.35l-45,2.06c.9-15.68-3.17-32.06-9.93-35.2-8.59-4,7.41-23,7.41-23l17.67-2.26S69.52,77.19,75.32,82.25Z"/><circle class="cls-7" cx="47.67" cy="88.23" r="4.54"/><circle class="cls-7" cx="60.27" cy="99.41" r="4.54"/><circle class="cls-7" cx="72.09" cy="110.08" r="4.54"/><circle class="cls-7" cx="47.67" cy="103.84" r="4.54"/><circle class="cls-7" cx="57.61" cy="119.16" r="4.54"/><circle class="cls-7" cx="63.55" cy="82.88" r="4.54"/><path d="M88.4,125.09S94.93,141.15,99.55,156s3.23,64.68,3.23,64.68l-57.24,2.11v-33l-6.75,33H26.62s.92-68.48,6.46-81.17S45.6,127.2,45.6,127.2Z"/><circle class="cls-7" cx="67.55" cy="69.16" r="4.54"/><circle class="cls-7" cx="79.16" cy="85.3" r="4.54"/><path class="cls-1" d="M57.87,50.89l3.81,24.5H38.59s1.12-9.73,2.42-16,2.41-8.45,2.41-8.45Z"/><circle class="cls-2" cx="40.06" cy="66.05" r="1.29"/><circle class="cls-2" cx="42.33" cy="67.34" r="1.29"/><circle class="cls-2" cx="44.51" cy="68.63" r="1.29"/><circle class="cls-2" cx="47.03" cy="69.36" r="1.29"/><circle class="cls-2" cx="49.54" cy="69.92" r="1.29"/><circle class="cls-2" cx="52.22" cy="69.92" r="1.29"/><circle class="cls-2" cx="54.81" cy="69.92" r="1.29"/><circle class="cls-2" cx="57.43" cy="69.36" r="1.29"/><circle class="cls-2" cx="59.81" cy="68.34" r="1.29"/><path class="cls-4" d="M47.81,57.56s-.19,4.52,2.8,6.49,9.62,2,9.62,2L57.87,50.89H48.13A26.47,26.47,0,0,0,47.81,57.56Z"/><path class="cls-1" d="M61.17,21.18a14.92,14.92,0,0,1,4.2,7.76c1,4.11.76,8.52,1.27,11s1.34,6.43.64,9.86a13.39,13.39,0,0,1-9.42,9.74C52.2,61.13,47.56,60,44.44,56s-7-11-8.14-15.9S34.51,26,39.74,21.88C46.41,16.67,54.36,16.6,61.17,21.18Z"/><path class="cls-8" d="M55.73,45.14a.56.56,0,0,1-.39-.13,1,1,0,0,1-.27-.81.34.34,0,0,1,0-.1,1.33,1.33,0,0,0-.3.27.6.6,0,0,1-.61.19,1,1,0,0,1-.61-.79,3.8,3.8,0,0,1,.56-2,.2.2,0,0,1,.26-.07.18.18,0,0,1,.07.26,3.46,3.46,0,0,0-.51,1.68c.06.32.21.47.33.5a.23.23,0,0,0,.23-.08c.27-.31.48-.43.66-.42a.35.35,0,0,1,.25.16.8.8,0,0,1,.06.34c0,.17,0,.43.13.53a.31.31,0,0,0,.25,0c.26,0,.3-.24.28-.67,0-.21,0-.37.1-.47a.24.24,0,0,1,.21-.07.86.86,0,0,1,.39.2c.24.18.34.23.51.07a.58.58,0,0,0,.1-.42,2.58,2.58,0,0,0-.69-1.54.19.19,0,1,1,.23-.31,3,3,0,0,1,.84,1.83.87.87,0,0,1-.22.72.69.69,0,0,1-1-.05L56.49,44a.19.19,0,0,0,0,.08c0,.34,0,1-.61,1.07Zm-.62-1.07Z"/><path class="cls-1" d="M27.62,36.54c1.75-4.36,14.51-.41,12.15,7.6C37.35,52.35,25,43,27.62,36.54Z"/><path class="cls-8" d="M37.38,45.14a.24.24,0,0,1-.13,0,.2.2,0,0,1,0-.27c.52-.57.64-2.38,0-4.17a5.45,5.45,0,0,0-4.41-3.76c-1.47-.18-2.51.06-3.1.73a3.23,3.23,0,0,0-.44,2.63.2.2,0,0,1-.14.23.18.18,0,0,1-.23-.14,3.55,3.55,0,0,1,.53-3c.67-.77,1.83-1.06,3.43-.86a5.8,5.8,0,0,1,4.71,4c.67,1.8.65,3.81,0,4.57A.18.18,0,0,1,37.38,45.14Z"/><path class="cls-8" d="M32.8,44.43a.19.19,0,0,1-.17-.12,9.27,9.27,0,0,1,.62-7.59.19.19,0,0,1,.26-.08.19.19,0,0,1,.08.26A9,9,0,0,0,33,44.16a.2.2,0,0,1-.1.25Z"/><ellipse class="cls-8" cx="49.56" cy="40.01" rx="0.7" ry="1.4"/><path class="cls-8" d="M45.15,35A8.62,8.62,0,0,1,48,34.36a8.74,8.74,0,0,1,2.51.31c.51.07.58-.31.31-.64s-1.35-.57-3.1-.53a6.14,6.14,0,0,0-3.18.75C44,34.54,44.41,35.35,45.15,35Z"/><ellipse class="cls-8" cx="60.33" cy="39.65" rx="0.7" ry="1.4"/><path class="cls-8" d="M57.75,34.5a7.9,7.9,0,0,1,5.34-.33c.51.07.58-.31.31-.64S62.05,33,60.3,33a6.14,6.14,0,0,0-3.18.75C56.64,34,57,34.84,57.75,34.5Z"/><ellipse class="cls-9" cx="42.33" cy="23.82" rx="43.9" ry="9.92" transform="translate(-4.89 12.45) rotate(-15.82)"/><path class="cls-9" d="M15.46,26.11S18.09,12,20.84,8.75,52-.54,53.93,0s16.88,12,16.88,12Z"/><path class="cls-2" d="M13.9,14.6a9.54,9.54,0,0,1,1.54-1.18c.52-.23,1.39-1.81,1.39-1.81s.23,1,.64,1.1,1.35.22,1.46.4a4,4,0,0,0,.25.38l.71-.49a.85.85,0,0,0,.34-.42,2,2,0,0,0,.6,1.08c.43.27,1.17.76,1.19,1s.87.42,1.64.63,1.18-.17,1.7-.33a1.08,1.08,0,0,1,.71,0,.56.56,0,0,0-.06.66,4.42,4.42,0,0,1,.63,2.73,3.38,3.38,0,0,1-1.33,2.07,6.74,6.74,0,0,1,2,.79,4.23,4.23,0,0,1,1.06,1.44,3,3,0,0,1,.39,1.95c-.07.66-.05.87-.4,1a7.36,7.36,0,0,0-2,1.25,3.6,3.6,0,0,1-.91.78l-.5-.05a1.88,1.88,0,0,0-.3,1.31,4.46,4.46,0,0,1,.07,1.83,1,1,0,0,1-1,.69,8.29,8.29,0,0,1-1.11-.11,3.08,3.08,0,0,1-1.09.85,2.08,2.08,0,0,0-.9.66s-.26-.32-.94-.1A1.58,1.58,0,0,1,18,32.5a18.59,18.59,0,0,0-1.76-2c-.36-.16-.35-.66-.35-1.07a7.36,7.36,0,0,0-.54-1.64,1,1,0,0,1-.93.11c-.51-.21-.61-.47-1-.43a6.69,6.69,0,0,1-1.64-.25c-.9-.17-2-.45-2.32-.94s-.07-2.55-.41-2.5-.6.19-.88,0-.28-1.36-.06-1.46a2.32,2.32,0,0,1,.72-.09s-.68-.24-.75-.62-.06-.88.1-1S9.44,19.6,9.44,19.6a4.37,4.37,0,0,0-.91-.47,2.53,2.53,0,0,0-.63.1,12.93,12.93,0,0,1,2.31-1.47,6.22,6.22,0,0,1,1,0,1.1,1.1,0,0,1-.22-1.1,6,6,0,0,0,.29-1.22l1.51-.1c.17,0,.36-.26.36-.26l-.24-.94Z"/><path class="cls-3" d="M17.29,15.24a2.32,2.32,0,0,0-1.12-.45,13.9,13.9,0,0,0-1.64.16l-1.62-.79a4.38,4.38,0,0,1,.19,1.36A1.84,1.84,0,0,0,13,16.75a7.44,7.44,0,0,1,.23,1.4c.09.38,0,.8.47,1.13s.57.93.83,1.25,0,.54.78.87a7.34,7.34,0,0,1,1.31.69,6.11,6.11,0,0,1-1.54-1.67,5.29,5.29,0,0,0-1.16-1.66c-.38-.41-.12-.93-.3-1.57a5,5,0,0,1,.11-1.86A4.52,4.52,0,0,0,15,15.5,19.19,19.19,0,0,0,17.29,15.24Z"/><path class="cls-3" d="M16.88,23a8.89,8.89,0,0,0,1.37,2.55,3.77,3.77,0,0,0,1.67.75c.69.16,1.87,0,1.93-.18s-.25-.81-.25-.81.91.47.79.83-.2.73-.9.7a11.51,11.51,0,0,1-2.35-.24c-1.1-.24-1.15-.2-1.47-.73s-1-2.35-1-2.35-.9.74-1.48.64-.34-.29-1-.64-1.27-.22-1.44-.65.7-1.08.7-1.08-.36.62,0,.73.58.1.84.38.27.65.86.54S16.88,23,16.88,23Z"/><path class="cls-3" d="M21.37,17.73s.24.95-.27,1a8.51,8.51,0,0,0-1.71.8s-.84-.32-.39-1a1.69,1.69,0,0,1,1.34-.93A2.44,2.44,0,0,1,21.37,17.73Z"/><path class="cls-3" d="M22.12,16.93s.87-.7,1.26-.49.7.86,1.19.95.46,0,.75.41a5.46,5.46,0,0,1,.52,1.45L24,20.62s1.44-1.07,1.4-1.48A1.36,1.36,0,0,0,24.71,18c-.51-.28-1.33-.66-1.4-.91s-1.25.37-1.25.37Z"/><path class="cls-3" d="M20.77,26.54a1.46,1.46,0,0,0,.76.7,15.28,15.28,0,0,0,1.46.6,7.88,7.88,0,0,0,2.46-.25l-.8.71a4.62,4.62,0,0,1-1.69.17c-.88-.09-.86-.34-1.54-.62s-.74-.07-1.19-.52a2.13,2.13,0,0,1-.58-.91Z"/><path class="cls-3" d="M15.39,27.82a1.18,1.18,0,0,1,1-.36,9.48,9.48,0,0,0,1.36.37c.4,0,.75-.15.7-.49s-.28-1.49-.28-1.49l.42.25s.55,1,.38,1.46-.31.93-.8.92-2.6-.27-2.6-.27Z"/><path class="cls-3" d="M11.21,17.78A6.37,6.37,0,0,1,13,17.43a10.41,10.41,0,0,1,1,1.33l.45.88s-.8,0-1.67,0a16.15,16.15,0,0,0-2.64.27H9.11l.33-.3s1.76-.2,2.33-.22l1.91-.1-.9-1.35L11.15,18Z"/><path class="cls-3" d="M20.27,20.33a8.72,8.72,0,0,1,2.91.46,32.7,32.7,0,0,1,3.2,3.2l.19,1.67a6.19,6.19,0,0,0-1.18-2c-.58-.43-2-1.66-2.47-2s-2.53,0-2.53,0Z"/><path class="cls-3" d="M18,20.09s-1.27-2.54-.79-3.49,3.1-1.69,3.1-1.69,1.83,2.44,1.5,2.86a4.71,4.71,0,0,1-1.31.86s.66-1.12.41-1.66-.67-1.37-.67-1.37-2.08.83-2.32,1.35.73,2.48.73,2.48Z"/><path class="cls-3" d="M21.09,19.5s-.21,2.85-.67,3-3.37.31-3.37.31S15.78,20.06,16,19.9l1.94-1.45.13.5s-1.61.89-1.53,1.27.74,1.94.74,1.94l2.86-.48V18.6Z"/><path d="M62.76,33.17a17.5,17.5,0,0,0-6.08,2.71l0,0a1.1,1.1,0,0,0-.7-.4,10.18,10.18,0,0,0-1.17.09c-.23,0-.77,0-1.17.09a1.11,1.11,0,0,0-.64.5l0,0a49.35,49.35,0,0,0-8.41-1.6,14.46,14.46,0,0,0-6.76,1.52L38,38.21a10.61,10.61,0,0,1,.77,1.48,9,9,0,0,0,3,5.33c2.58,2.16,6.37,1.64,8.78.58S53.66,40.75,53.6,39c0-.05,0-.1,0-.14a.94.94,0,0,1-.55-.8.92.92,0,0,1,.81-1l2-.15a.82.82,0,0,1,.53.14h.09v.08a1,1,0,0,1,.33.65,1,1,0,0,1-.32.8,1.23,1.23,0,0,0,0,.2c.2,1.72,1.51,5.33,4.06,6s4.38.77,6.6-1.76a9,9,0,0,0,2.15-5.72,11,11,0,0,1,.54-1.59l-.17-2.12A14.43,14.43,0,0,0,62.76,33.17ZM51,44c-1.73,1.71-6.14,2.24-8,1s-4.32-4.45-2.64-7.78c1-1.93,3.78-2.1,5.71-1.77s5.48,1.2,6,2.89S52.78,42.29,51,44Zm14.84-.81a4.7,4.7,0,0,1-6.11.13c-2-1.43-2.12-3.73-1.87-5.48a4.68,4.68,0,0,1,3.49-3.62c1.85-.62,4.66-.88,5.91.87C69.47,38.13,67.56,41.63,65.88,43.2Z"/><path class="cls-3" d="M50,50.11s2.77-1.59,3.61-1.44a1.47,1.47,0,0,1,1.08,1s1.09-1.25,1.8-.72a6.83,6.83,0,0,1,1.4,2.31s-1.44,3.32-3.77,3.08S50,50.11,50,50.11Z"/><circle class="cls-2" cx="36.1" cy="47.35" r="1.29"/><path class="cls-10" d="M139.45,103.21c-.72,4.2-1.14,11.18-.11,13.21s.84,2.51,3.38,2.49,8.72-1.31,9.31-.4-3.53,8-4.49,8.23-3.8-.43-6.41.32-4.75,1.87-6.28-.2-9.4-17.54-9.4-17.54Z"/><path class="cls-10" d="M159.38,64.64s11.17-.13,14.67-1.66,4.15-2.63,6.07-2,2.8,3.49,0,6.82S161,75.32,161,75.32Z"/><path class="cls-11" d="M154.32,26.41c3.77-.92,14.28,23.13,16.74,27.13,4,6.48,3.5,9.59-1.4,10.66s-11.08.23-13.06-5.24C153.52,50.46,148.83,27.75,154.32,26.41Z"/><path class="cls-12" d="M105.17,102.1a38,38,0,0,1,7.94-12.48c3.51-3.89,10.27-8.55,14.75-15.05a29.27,29.27,0,0,0,5.32-16c.18-3.66.4-14.25.4-14.25l23.21.69a7.62,7.62,0,0,0,2.38,4.92,26.6,26.6,0,0,1,7.89,10.73,24.22,24.22,0,0,1-1.89,21.84c-5.11,8.41-10.6,15.42-18.62,20.72s-28.25,12.35-28.25,12.35Z"/><path class="cls-12" d="M125.05,100a10.07,10.07,0,0,1,8.69,11.79c-.86,4.59-3.6,9.37-4.43,13.5s-1.27,10.92-.35,14,2.17,4.13,3.64,4.27,1.94-.62,2.42.52-4.34,7.86-5,7.87a5.91,5.91,0,0,1-3.63-1.73c-1.38-1.34-6.51-5.75-7-6.87S117,128.24,117,128.24s-12.06-9.37-11.78-16.6S111.25,98.36,125.05,100Z"/><path class="cls-13" d="M133,105.8a9.67,9.67,0,0,0-7.9-5.79c-13.8-1.65-19.53,4.4-19.81,11.63S117,128.24,117,128.24s.71,4.92,1.38,9.15c3.64-2.28,7.27-7.75,8.65-11.39,2-5.31,1.08-11.47,1-12.7C128,112.4,130.51,108.65,133,105.8Z"/><path class="cls-12" d="M157.57,67.1A23.6,23.6,0,0,0,167,70c5.14.31,12,1.1,13.86.27s3.6-2.09,5.84-1.7,4.42,1.2,3.41,2.51-4.8,7.85-6,8.09-6.54.87-11.82,1.39-17-.07-17-.07Z"/><path class="cls-13" d="M171.93,70.31c-1.67-.12-3.37-.26-4.92-.35a23.6,23.6,0,0,1-9.44-2.86l-2.23,13.11c3.94-.1,9-.41,11.43-1.26,4.18-1.5,5.42-3.46,5.48-5.29A23.65,23.65,0,0,0,171.93,70.31Z"/><path class="cls-13" d="M107.46,97.2s-6.33,9.51-9.93,11-9.16,3.2-14.91.06S70.3,97.07,68.56,98.79s-.19,5.39,5.42,10.64,14.64,8.44,21.22,7.45,18.26-8.66,18.26-8.66Z"/><path class="cls-12" d="M77.69,104.74c-4.14-3.4-7.88-7.19-9.13-5.95-1.75,1.72-.19,5.39,5.42,10.64l.43.4A13.32,13.32,0,0,0,77.69,104.74Z"/><path class="cls-8" d="M97.53,108.16c-3.6,1.45-9.16,3.2-14.91.06l-.11-.06a13.42,13.42,0,0,0,5.59,4.74c4.93,2.21,13.1,2.71,18-1.75,2.19-2,3.56-5.34,4.41-8.39l-3-5.56S101.13,106.71,97.53,108.16Z"/><path class="cls-13" d="M133.18,58.58a29.27,29.27,0,0,1-5.32,16c-4.48,6.5-11.24,11.16-14.75,15.05a38,38,0,0,0-7.94,12.48l13.13,13.48s4.57-1.59,10.24-3.83c1.14-2.78,4.49-6,10.38-10.35,6.46-4.72,20.19-17.51,22-23.15s.75-10.67-2.69-14.8-7.65-4.62-6-7.71,4.73-7.07,3.23-9.64a5.3,5.3,0,0,0-2.51-1.2l-19.34-.57S133.36,54.92,133.18,58.58Z"/><path class="cls-8" d="M133.18,58.58a29.27,29.27,0,0,1-5.32,16c-4.48,6.5-11.24,11.16-14.75,15.05S106,97,104.29,101.57l4.62,5.52c1.18-1.8,2.63-5.2,4.52-4.8,3.41.71,6.78,3.2,9.48,2.33s3.47-2.56,1.92-6.45-4.88-8.56-2.56-10.65S137.4,92.06,145,89.1s9.4-8.87,7.47-15C151,69.59,139.56,59,133.36,53.44,133.3,55.48,133.24,57.39,133.18,58.58Z"/><path class="cls-13" d="M136,23.68c2.73-3.86,9.92-5.8,15.17-5.53s8.27,1.46,10.08,3.75,5.81,9.92,6.41,11.28,2.71,7.72.72,10.15S155.8,51.24,152.92,52s-11.87-2-18-4.21S131.83,29.59,136,23.68Z"/><path class="cls-12" d="M172.83,32.31c2.34.71,2.48,6.2.71,10s-2.22,6.54-6.21,7.84-15.13,5.57-15.13,5.57,1.15-6.74.05-8.1-3.11-5.88.51-8.81,4.57-3.8,4.27-6.31-1.57-5.87-2.79-6.93-4.8-1.32-5.11-2.26.65-3.2,3.59-3.12,4.7.72,4.66,1.39-.67,1.39-.35,1.94,3.75,8.41,6.06,8.55S171.13,31.79,172.83,32.31Z"/><path class="cls-8" d="M173.14,33.51a4.78,4.78,0,0,1-1.16,4,3.69,3.69,0,0,1-3.71.26c-.91-.7-2.41-1.64-1.94-3.11S173,32.68,173.14,33.51Z"/><path class="cls-8" d="M154.43,46.34s5.73,2.47,7.6,2.62,3.25-.08,4.19-1,2-2.82,2.4-2.61a6.94,6.94,0,0,1,1.43,2.1c.07.28-.37.74-.59.43s-.69-1.68-.82-1.52-2,3-4,3.38-4.59-.58-6.79-1.33S154.07,46.66,154.43,46.34Z"/><path class="cls-7" d="M151.52,29.48c3-.23,4.95,6.42,1.42,6.58S148,29.74,151.52,29.48Z"/><path class="cls-8" d="M153.29,31.1c.74-.51,1.56,2.82.7,3.34S152.54,31.61,153.29,31.1Z"/><path class="cls-11" d="M139.58,23.81c1.77.92-1.26,7.44-.59,11.56s3.23,10.68,3,17.4.3,11.79-5.47,13.21-8.22,1-8.88.63.19-2.69-1.4-3.6-4.47-3.66-2.93-8.92,5.93-13.64,6.91-19.69S136.54,22.24,139.58,23.81Z"/><path class="cls-7" d="M162.9,26.39c2.27-.18,3.8,5.64,1.13,5.75S160.19,26.59,162.9,26.39Z"/><path class="cls-8" d="M164.25,27.82c.56-.45,1.2,2.47.56,2.91S163.68,28.26,164.25,27.82Z"/><path class="cls-1" d="M53.2,88.25l28.52,14.94s28.73-6.15,30.33-6.86,8.78-8.85,9.59-9.36,1.7-.32,1.55.76-.88,4.5-.88,4.5,6.23-1.85,6.75-2.29,3.79-4.07,4.53-4.46,2.17-.12,2,.77-3,6.16-3,6.16,1.61,4.82,0,7-10.09,5.21-14.33,6.25S82.39,116.6,79.66,117s-5-1.17-10.55-3.72c-9.22-4.28-25.89-14.7-25.89-14.7Z"/><path class="cls-5" d="M22.66,69.14c-5.94,6.25-3.45,17,2.57,22.64s16.43,7.63,16.43,7.63,4,6.29,5.51,4.25S58,87.16,56.7,86.19s-5.57-1-5.57-1S53.52,73,45.54,67.6C40.37,64.07,32,59.33,22.66,69.14Z"/><circle class="cls-7" cx="37.79" cy="70.64" r="4.54"/><circle class="cls-7" cx="28.82" cy="86.22" r="4.54"/><circle class="cls-7" cx="44.23" cy="90.32" r="4.54"/><path class="cls-2" d="M76.63,100.52c1.06.46,2.6,1.36,3.28,1.72a14.07,14.07,0,0,0-1.53-4.1c-1.55-2.64-5.58-4.73-11,.38S56.2,117.79,56.2,117.79l2.64,1.78s2.08-5.48,4.65-10.62S70.06,99.36,72,98.8C73.24,98.43,75.27,97.78,76.63,100.52Z"/><path class="cls-2" d="M78.35,117.06c-.16,4-.61,7.22-.61,7.22l2.56-.41s.35-3.46.56-7.2A22.44,22.44,0,0,1,78.35,117.06Z"/><path class="cls-2" d="M52,116.14c1.26-3.2,6.74-1.13,8.09.4s2.49,1.94,5.2,1.3,5.56-.88,7.59,1.14,2.64,3.61,5.13,3.29,2.84-3.38,5.32-.9,2.57,4.67,3.4,16.85,1.14,17.44,0,18.9a7.4,7.4,0,0,1-2.93,2.15L41.32,149.2a4.86,4.86,0,0,1-2-5.16C40.06,140.57,50.47,119.93,52,116.14Z"/><path class="cls-9" d="M81,124.19s-4.18.73-6.54,0a57,57,0,0,1-5.51-2.22s-.73,1.84-.44,2a15.69,15.69,0,0,0,6,2,16.22,16.22,0,0,0,6.15-.2C80.87,125.62,81.47,124.11,81,124.19Z"/><path class="cls-9" d="M67.65,121.29c.36.16.21,2.12-.45,2s-3.85-.29-6.52-.62a22.35,22.35,0,0,1-5.23-1.44l.38-1.74a19.25,19.25,0,0,0,4.81,1C63.33,120.79,66.78,120.9,67.65,121.29Z"/><path class="cls-9" d="M52.75,117.27a6.89,6.89,0,0,1,3.48-3c2.64-1.16,6-1.46,7-.75s.3,2.09-.27,2.71A13.89,13.89,0,0,0,61,120c-.65,1.68-.48,5.09-1.5,6.3s-2.56,2.26-4.41,1.22-2.68-3.85-2.79-4.76a12.79,12.79,0,0,0-.37-1.76l-.93-.09s-.69,1.46-3.43,3.09-7,2.29-8,1.63-1-2.41.15-3.58S42.64,119,42.64,119s0-3.06-.47-3.91S41,112.65,41.91,112s1.83-.64,3.71.26,3.47.81,4.52,1.73a9.74,9.74,0,0,1,1.9,3.13Z"/></g></svg>