<svg xmlns="http://www.w3.org/2000/svg" viewBox="0 0 79.82 314.63"><defs><style>.cls-1{fill:#dbac73;}.cls-2{fill:#fff;}.cls-3{fill:#f69576;}.cls-4{fill:#dd866f;}.cls-5{fill:#6b3425;}.cls-6{fill:#a5713d;}.cls-7{fill:#eaeaea;}</style></defs><title>people</title><g id="Слой_8" data-name="Слой 8"><path d="M28.6,280.59l.25,16.26s-14.22,2.68-18,3.85C6.3,302.1,1,303.36.28,307.8c-.64,3.83,0,5.32,0,5.32h44l-4.78-32.53Z"/><path d="M28.85,296.85s-14.22,2.68-18,3.85C6.3,302.1,1,303.36.28,307.8c-.64,3.83,0,5.32,0,5.32h44l-1.7-16.27Z"/><path d="M.28,307.8a20.49,20.49,0,0,0-.24,2H44l-1.36-13H28.85s-14.22,2.68-18,3.85C6.3,302.1,1,303.36.28,307.8Z"/><path d="M49.25,282.09l.25,16.27s-14.22,2.67-18,3.84c-4.54,1.41-9.82,2.67-10.56,7.1-.64,3.84,0,5.33,0,5.33H65l-4.78-32.54Z"/><path d="M49.5,298.36s-14.22,2.67-18,3.84c-4.54,1.41-9.82,2.67-10.56,7.1-.64,3.84,0,5.33,0,5.33H65l-1.7-16.27Z"/><path d="M20.93,309.3c-.13.78-.2,1.45-.24,2.05H64.61l-1.36-13H49.5s-14.22,2.67-18,3.84C27,303.61,21.67,304.87,20.93,309.3Z"/><path class="cls-1" d="M30.6,2.14a17,17,0,0,1,17.65.71c6.27,4,7,18.13,4.7,22.94S40,39.34,40,39.34,0,10.25,30.6,2.14Z"/><path d="M8.81,133.13s-1.53,16,0,42.73,8,52.26,8.77,55.31,10.3,54.18,10.3,54.18H42.76s-8.39-69.05-9.16-90S36.27,135,36.27,135Z"/><path d="M63.36,135H31.7s-2.46,63.42,0,66.38,9.92,14.88,11.06,24S47,285.35,47,285.35H63.36Z"/><path class="cls-2" d="M39.84,49.71c-15.78-.34-20.86,2-24.17,9.41S3.11,145.55,2.35,158.78c0,0,5.2,4.29,23.26,4.29s43-2.48,43-2.48c0-4.83,4.07-81.89,3.57-94.61S51.79,50,39.84,49.71Z"/><path class="cls-3" d="M34.41,48.4c5.56,0,12.14.53,15.57,2.73,4.18,2.69-21.8,16.74-21.8,16.74S18,57,19.81,54.41C22.5,50.71,30.15,48.41,34.41,48.4Z"/><path class="cls-3" d="M27.27,36.91l-3.58,23,21.67-4.8s-1-4.34-2.27-10.26-2.27-7.93-2.27-7.93Z"/><path class="cls-4" d="M36.7,43.17s.18,4.23-2.62,6.08-9,1.88-9,1.88l2.21-14.22h9.14A24.9,24.9,0,0,1,36.7,43.17Z"/><path class="cls-3" d="M24.17,9a14.06,14.06,0,0,0-3.94,7.28c-.91,3.86-.71,8-1.19,10.33s-1.25,6-.6,9.25A12.54,12.54,0,0,0,27.27,45c5.32,1.49,9.67.41,12.6-3.29s6.56-10.32,7.64-14.91S49.3,13.37,44.28,9.69c-4-2.93-7.51,2.76-12.93,1.07C28.39,9.85,27,7.1,24.17,9Z"/><path class="cls-2" d="M33.81,34.94s-.51,3.14-2.36,3.79a4.24,4.24,0,0,1-4.59-.82,8.78,8.78,0,0,1-1.28-3Z"/><path class="cls-5" d="M29.13,31.5c-.61-.1-.58-.69-.57-1v-.08l-.08.06c-.21.15-.55.41-.94.05a.83.83,0,0,1-.2-.68,2.71,2.71,0,0,1,.78-1.72.19.19,0,0,1,.25,0,.18.18,0,0,1,0,.25,2.42,2.42,0,0,0-.65,1.45.54.54,0,0,0,.09.4c.16.14.25.09.48-.07a.7.7,0,0,1,.37-.19.22.22,0,0,1,.19.06c.11.1.1.25.1.44,0,.41,0,.59.26.63a.3.3,0,0,0,.24,0c.11-.08.12-.33.12-.49a.7.7,0,0,1,.06-.32.31.31,0,0,1,.23-.15c.17,0,.36.11.62.4a.22.22,0,0,0,.21.07c.12,0,.26-.17.32-.47a3.34,3.34,0,0,0-.49-1.58.18.18,0,1,1,.31-.17,3.51,3.51,0,0,1,.53,1.82.91.91,0,0,1-.57.75.57.57,0,0,1-.57-.19,1.74,1.74,0,0,0-.29-.25v.1a1,1,0,0,1-.25.76.59.59,0,0,1-.37.12Zm.73-1Z"/><path class="cls-3" d="M55.65,23.44C54,19.36,42,23.06,44.25,30.58,46.52,38.27,58.07,29.46,55.65,23.44Z"/><path class="cls-5" d="M46.49,31.51a.15.15,0,0,0,.12-.05.18.18,0,0,0,0-.25c-.49-.53-.59-2.24,0-3.92a5.1,5.1,0,0,1,4.13-3.52,3.17,3.17,0,0,1,2.9.69,3,3,0,0,1,.43,2.46.18.18,0,0,0,.12.22.18.18,0,0,0,.22-.13,3.33,3.33,0,0,0-.5-2.79,3.48,3.48,0,0,0-3.21-.8,5.44,5.44,0,0,0-4.43,3.75c-.62,1.69-.6,3.57,0,4.28A.16.16,0,0,0,46.49,31.51Z"/><path class="cls-5" d="M50.79,30.84a.17.17,0,0,0,.16-.11,8.72,8.72,0,0,0-.58-7.12.19.19,0,0,0-.25-.08.19.19,0,0,0-.07.25,8.51,8.51,0,0,1,.57,6.82.18.18,0,0,0,.1.23Z"/><ellipse class="cls-5" cx="35.06" cy="26.7" rx="0.66" ry="1.31"/><path class="cls-6" d="M38.11,23.21a5.42,5.42,0,0,0-2.66-1.11,4.75,4.75,0,0,0-2.36.54c-.47.12-.54-.54-.28-1.11s1.27-1,2.91-.92a4,4,0,0,1,3,1.29C39.15,22.4,38.81,23.8,38.11,23.21Z"/><ellipse class="cls-5" cx="24.96" cy="26.36" rx="0.66" ry="1.31"/><path class="cls-6" d="M27.38,22.71a5.42,5.42,0,0,0-2.66-1.11,4.79,4.79,0,0,0-2.35.54c-.48.12-.54-.54-.29-1.1s1.27-1,2.91-.93a4,4,0,0,1,3,1.3C28.42,21.9,28.08,23.3,27.38,22.71Z"/><path class="cls-7" d="M52.4,55.1,50.44,73,28.18,67.87s20.31,1.91,20.07,2S52.4,55.1,52.4,55.1Z"/><circle cx="25.94" cy="74.43" r="1.4"/><circle cx="23.69" cy="85.03" r="1.4"/><circle cx="21.93" cy="97.01" r="1.4"/><path class="cls-3" d="M58.76,86.21,60,112.06s-2.54,33.24-4,34-11.6,1.49-12.44,1.81-1.21,1.08-.31,1.59,3.84,1.91,3.84,1.91a63.22,63.22,0,0,1-5.55,3.72c-.62.13-.17,4-.17,4s2.68,4,5.17,4,9.64-4.56,12.83-7.12,14.46-34.71,15-38.7c.33-2.56,1.4-4.25,1.29-9.94C75.56,101.17,71.52,76,71.52,76Z"/><path class="cls-2" d="M69.87,67.33c-10.48.24-13.74,5-14.88,13.74s-.77,38.54-.77,38.54l22.9,5.73S86.66,67,69.87,67.33Z"/></g></svg>