<svg xmlns="http://www.w3.org/2000/svg" viewBox="0 0 89.72 318.33"><defs><style>.cls-1{fill:#f69576;}.cls-2{fill:#032240;}.cls-3{fill:#bfbfbf;}.cls-4{fill:#254b6b;}.cls-5{fill:#dd866f;}.cls-6{fill:#a5713d;}.cls-7{fill:#6b3425;}.cls-8{fill:#fff;}</style></defs><title>people</title><g id="Слой_7" data-name="Слой 7"><path class="cls-1" d="M29.94,282.66v16.1l1.75,7.75-1.75,10.07H13.88s-1.35-7.62,0-8.64a24.83,24.83,0,0,0,4.93-8.32l-.49-17Z"/><path class="cls-2" d="M29.94,296.32H18.72l.09,3.3a24.83,24.83,0,0,1-4.93,8.32c-1.35,1,0,8.64,0,8.64H29.94l1.75-10.07-1.75-7.75Z"/><path class="cls-3" d="M30.47,314.66l-.75,3.55-15.56.12a23.3,23.3,0,0,1-.53-3.54Z"/><path class="cls-4" d="M17,131H50s2.57,66.09,0,69.19-10.36,15.49-11.54,25S34,287.63,34,287.63H16.94V131Z"/><path class="cls-1" d="M65.83,282.66H77.45l-.49,17a24.83,24.83,0,0,0,4.93,8.32c1.35,1,0,8.64,0,8.64H65.83l-1.75-10.07,1.75-7.75v-16.1Z"/><path class="cls-2" d="M65.83,296.32H77.05l-.09,3.3a24.83,24.83,0,0,0,4.93,8.32c1.35,1,0,8.64,0,8.64H65.83l-1.75-10.07,1.75-7.75Z"/><path class="cls-3" d="M82.14,314.79a23.3,23.3,0,0,1-.53,3.54l-15.56-.12-.75-3.55Z"/><path class="cls-4" d="M78.83,131V287.63H61.75s-3.22-52.87-4.4-62.41-9-21.93-11.54-25,0-69.19,0-69.19h33Z"/><path d="M12.53,56.91c1.85-8.49,19.57-6.21,32.21-5.84S68,46.69,74.5,50.7s13,116.77,13,116.77-8.16,10.21-37.1,10.21-38.32-13.13-38.32-13.13S9.68,70,12.53,56.91Z"/><polygon class="cls-1" points="57.99 55.19 32.26 55.19 34.4 31.33 52.63 31.33 57.99 55.19"/><path class="cls-5" d="M33.12,45.6a23.22,23.22,0,0,0,12,3.12A23.86,23.86,0,0,0,56,46.24L52.63,31.33H34.4Z"/><path class="cls-6" d="M34.14,6.46a11.22,11.22,0,0,0-7.75,8.15c-.81,4.08.82,16.31,5.3,19.57s24.18-.47,25.28-.82c6.52-2,4.08-18.34.82-21.6S42.7,3.6,34.14,6.46Z"/><path class="cls-5" d="M24.94,20.89c.86-4.24,7.13-.41,6,7.42C29.73,36.34,23.67,27.17,24.94,20.89Z"/><path class="cls-7" d="M29.73,29.29s0,0-.06,0a.27.27,0,0,1,0-.25,9,9,0,0,0,0-4.07c-.23-1.23-.82-3.35-2.17-3.67A1.2,1.2,0,0,0,26,22a6,6,0,0,0-.22,2.57.28.28,0,0,1-.07.24s-.1,0-.12-.12a6.69,6.69,0,0,1,.27-2.89,1.33,1.33,0,0,1,1.68-.86c1.06.25,1.9,1.67,2.31,3.91a9.77,9.77,0,0,1,0,4.45Z"/><path class="cls-7" d="M27.5,28.59s-.06,0-.08-.12a17.57,17.57,0,0,1,.3-7.42c0-.08.09-.12.13-.08a.33.33,0,0,1,0,.25,17,17,0,0,0-.31,7.09.31.31,0,0,1,0,.24S27.5,28.59,27.5,28.59Z"/><path class="cls-5" d="M56.3,28.31c-1.17-7.83,5.1-11.66,6-7.42C63.53,27.17,57.47,36.34,56.3,28.31Z"/><path class="cls-7" d="M57.41,29.29a9.89,9.89,0,0,1,0-4.45c.41-2.24,1.25-3.66,2.32-3.91a1.33,1.33,0,0,1,1.68.86,6.69,6.69,0,0,1,.27,2.89c0,.08-.09.16-.13.12a.31.31,0,0,1-.06-.24A6,6,0,0,0,61.24,22a1.2,1.2,0,0,0-1.52-.73c-1.35.32-1.95,2.44-2.17,3.67a9,9,0,0,0,0,4.07.27.27,0,0,1,0,.25s0,0-.06,0Z"/><path class="cls-7" d="M59.66,28.55a.31.31,0,0,1,0-.24,17.18,17.18,0,0,0-.31-7.09.33.33,0,0,1,0-.25s.1,0,.12.08a17.47,17.47,0,0,1,.31,7.42c0,.08,0,.12-.08.12S59.68,28.59,59.66,28.55Z"/><path class="cls-1" d="M43.65,7.09C34.74,4.52,28,9.71,28,23.45c0,6.72,1.42,8.11,3.84,13.86,1.19,2.83,7.48,8.45,11.54,9.51h.51c4.06-1.06,10.35-6.68,11.54-9.51,2.42-5.75,3.84-7.14,3.84-13.86C59.29,9.71,52.57,4.52,43.65,7.09Z"/><path class="cls-6" d="M28,12.17s5.68,0,9.38,2c4.49,2.45,12.22,6,19.16,5.3C69.2,18.28,60.23,4,57,4c.82,1.22-.82,2.86-2.45,2.45S37.81-11.07,28,12.17Z"/><path class="cls-8" d="M39.19,34.63s.53,3.26,2.45,3.95,3.91.25,4.77-.85a9.12,9.12,0,0,0,1.35-3.14Z"/><path class="cls-7" d="M43.52,33.28a.5.5,0,0,1-.37-.12,1,1,0,0,1-.25-.77v-.13a1.2,1.2,0,0,0-.28.25.68.68,0,0,1-.61.2.93.93,0,0,1-.61-.77A4.26,4.26,0,0,1,41.93,30a.18.18,0,1,1,.32.16,3.17,3.17,0,0,0-.49,1.64c.08.32.21.44.33.48s.16,0,.2-.08c.29-.28.49-.4.66-.4a.33.33,0,0,1,.24.16.78.78,0,0,1,0,.32.79.79,0,0,0,.12.53c0,.05.13.05.25.05s.28-.25.28-.66a.71.71,0,0,1,.08-.45.36.36,0,0,1,.21-.08c.16,0,.24.13.37.21s.32.2.48.08a.4.4,0,0,0,.09-.41,2.72,2.72,0,0,0-.66-1.51c-.08,0-.08-.16,0-.24a.2.2,0,0,1,.25,0,3,3,0,0,1,.81,1.79c0,.33,0,.57-.2.69a.68.68,0,0,1-1,0l-.08-.08v.08c0,.33,0,.94-.61,1.06Zm-.57-1Z"/><ellipse class="cls-7" cx="35.9" cy="27.05" rx="0.69" ry="1.39"/><path class="cls-7" d="M33.48,23.42a5.6,5.6,0,0,1,2.77-1.14,4.78,4.78,0,0,1,2.45.57c.49.12.57-.57.29-1.14s-1.31-1-3-1a4,4,0,0,0-3.1,1.34C32.38,22.56,32.75,24,33.48,23.42Z"/><ellipse class="cls-7" cx="49.67" cy="27.13" rx="0.69" ry="1.39"/><path class="cls-7" d="M46.91,22.68a5.68,5.68,0,0,1,3-.45,4.91,4.91,0,0,1,2.23,1.15c.45.23.69-.42.55-1S51.64,21,50,20.66a4.14,4.14,0,0,0-3.33.57C46,21.62,46.05,23.1,46.91,22.68Z"/><path class="cls-7" d="M48.69,39.32a27,27,0,0,1-2.08,4,7.8,7.8,0,0,1-2.89.38,7.8,7.8,0,0,1-2.89-.38,27,27,0,0,1-2.08-4l-1.06.24s1.63,5.26,1.87,5.71a13.83,13.83,0,0,0,4,2.36v.09l.2,0,.2,0v-.09a13.83,13.83,0,0,0,4-2.36c.24-.45,1.87-5.71,1.87-5.71Z"/><rect class="cls-7" x="43.11" y="39.48" width="1.63" height="3.26"/><ellipse class="cls-1" cx="44.94" cy="54.6" rx="14.47" ry="5.67"/><path d="M70.18,51.44c-7.14,2.28-7.09,8-7.26,11.88s3,23.89,3,23.89l23.8-.37s-3.57-17.46-7.49-27.08C79,51.84,73.21,50.48,70.18,51.44Z"/><path class="cls-1" d="M79.94,123.13c5.52,1.57,6.15,5.37,6.16,8s-5.23,33.39-5.68,37.49-2.2,12.45-4,14.18-6.52.84-6.52.84-4.58,3.27-5.37,3.55-1.22-1-1-1.73,3.24-4.27,3.57-4.81,1.3-6.58,1.3-6.58-3.11,1.12-4.11,1.4-1.31-.53-.93-1.34S70.49,165.5,71,164s1.2-26.36,1.2-26.36S69.72,120.87,79.94,123.13Z"/><polygon class="cls-1" points="85.69 128.72 72.76 127.78 72.67 87.33 85.67 85.41 85.69 128.72"/><path class="cls-1" d="M71.29,180.83s-5.57,6.29-5.29,7.88.64,2,1.45,1.68,6.89-8.16,6.89-8.16Z"/><path class="cls-1" d="M77.22,180.47s-4.06,7.18-4.51,7.94-2.79.51-2-1.57,1.89-7.1,1.89-7.1Z"/><path d="M24.35,51.89c6.85,3,6.2,8.66,5.95,12.59s-5.53,23.43-5.53,23.43L1.15,85S6.56,68,11.47,58.88C15.53,51.35,21.44,50.61,24.35,51.89Z"/><path class="cls-1" d="M13.2,137.34s-1.9,24.74-1.61,26.34,6.11,10,6.41,10.89-.11,1.6-1.07,1.22S13,174,13,174s.27,6.12.58,6.69,2.86,4.4,3,5.16-.37,2-1.13,1.62-5-4.11-5-4.11-4.78.4-6.39-1.52-2.46-10.39-2.47-14.52S-.26,132,0,129.39s1.32-6.29,7-7.25C17.4,121,13.2,137.34,13.2,137.34Z"/><polygon class="cls-1" points="0.69 127.08 13.64 127.53 18.02 87.74 5.33 84.02 0.69 127.08"/><path class="cls-1" d="M9.45,180.42s4.87,6.85,4.42,8.41-.85,1.93-1.62,1.51-6-8.85-6-8.85Z"/><path class="cls-1" d="M3.59,179.43s3.27,7.58,3.64,8.38a1.3,1.3,0,0,0,2.2-1.34c-.51-2.14-1.12-7.27-1.12-7.27Z"/></g></svg>