<svg xmlns="http://www.w3.org/2000/svg" viewBox="0 0 104.8 321.15"><defs><style>.cls-1{fill:#f69576;}.cls-2{fill:#512176;}.cls-3{fill:#7d009b;}.cls-4{fill:#ffe051;}.cls-5{fill:#dbac73;}.cls-6{fill:#fff;}.cls-7{fill:#dd866f;}.cls-8{fill:#6b3425;}.cls-9{fill:#e7d0b0;}</style></defs><title>people</title><g id="Слой_8" data-name="Слой 8"><path class="cls-1" d="M19.1,126.92s-6,8.81-9.69,29S8,208.06,9.41,214.3s16.16,86.64,15.23,89.21S9.41,315.26,9.41,315.26h27.7s5-55.07,4.34-64.62-8-23.12-8-23.12L59.26,133.9Z"/><path class="cls-2" d="M37.84,306.92a12.73,12.73,0,0,1,1.57,6c0,3.43-1.69,5-4.77,5.39s-8.77-.49-10.46,0-.77,2.57-4.92,2.69S.79,321.26.18,321s.46-3.67,1.84-4.65,9.81-2.69,9.81-2.69,7.73,1.47,14-1.47S37.84,306.92,37.84,306.92Z"/><polygon class="cls-3" points="31.1 316.73 32.03 321.15 36.18 321.15 38.18 315.26 31.1 316.73"/><path class="cls-1" d="M34.37,126.92s-6,8.81-9.7,29-1.38,52.14,0,58.38,31.15,87,30.23,89.6-13,14.12-13,14.12l32.44-7.25s-7.9-52.18-11.45-61.06a72.18,72.18,0,0,0-14.23-22.19l11.56-94.59Z"/><path class="cls-2" d="M76,306.92a12.67,12.67,0,0,1,1.58,6c0,3.43-1.7,5-4.77,5.39s-8.77-.49-10.47,0-.77,2.57-4.92,2.69-18.46.25-19.08,0,.46-3.67,1.85-4.65,9.8-2.69,9.8-2.69,7.74,1.47,14.05-1.47S76,306.92,76,306.92Z"/><polygon class="cls-3" points="69.27 316.73 70.19 321.15 74.34 321.15 76.34 315.26 69.27 316.73"/><path class="cls-4" d="M30.09,68.05c-10.87,8.33-8.2,20.61,1,24.71,7.35,3.26,12.55,5.85,12.55,5.85s1.39,5.36,3.34,6,12.51-8.49,11.84-11.23S43,66.62,43,66.62Z"/><path class="cls-5" d="M36.71,17.41c-6.62,4.36-3.37,22.6-8.54,28.65C36.51,47.12,85,55.55,85,55.55s7.26-21.23,2.7-29.23S47.83,10.08,36.71,17.41Z"/><path class="cls-4" d="M29.48,82.25c-2.61,2.28-3.71,11.39-1.78,14,5.64,7.58-12.29,31.35-12.29,31.35l45,2.06c-.9-15.68,3.17-32.06,9.92-35.2,8.59-4-7.41-23-7.41-23L45.23,69.16S35.28,77.19,29.48,82.25Z"/><circle class="cls-6" cx="57.13" cy="88.23" r="4.54"/><circle class="cls-6" cx="44.54" cy="99.41" r="4.54"/><circle class="cls-6" cx="32.72" cy="110.08" r="4.54"/><circle class="cls-6" cx="57.13" cy="103.84" r="4.54"/><circle class="cls-6" cx="47.2" cy="119.16" r="4.54"/><circle class="cls-6" cx="41.25" cy="82.88" r="4.54"/><path d="M16.41,125.09S9.87,141.15,5.25,156,2,220.63,2,220.63l57.24,2.11v-33l6.75,33H78.19s-.93-68.48-6.47-81.17S59.2,127.2,59.2,127.2Z"/><circle class="cls-6" cx="34.97" cy="75.27" r="4.54"/><path class="cls-1" d="M46.93,50.89l-3.8,24.5H66.22s-1.12-9.73-2.42-16-2.42-8.45-2.42-8.45Z"/><circle class="cls-2" cx="64.75" cy="66.05" r="1.29"/><circle class="cls-2" cx="62.48" cy="67.34" r="1.29"/><circle class="cls-2" cx="60.3" cy="68.63" r="1.29"/><circle class="cls-2" cx="57.78" cy="69.36" r="1.29"/><circle class="cls-2" cx="55.26" cy="69.92" r="1.29"/><circle class="cls-2" cx="52.59" cy="69.92" r="1.29"/><circle class="cls-2" cx="49.99" cy="69.92" r="1.29"/><circle class="cls-2" cx="47.37" cy="69.36" r="1.29"/><circle class="cls-2" cx="45" cy="68.34" r="1.29"/><path class="cls-7" d="M57,57.56s.19,4.52-2.8,6.49-9.61,2-9.61,2l2.35-15.16h9.74A26,26,0,0,1,57,57.56Z"/><path class="cls-1" d="M43.63,21.18a15,15,0,0,0-4.19,7.76c-1,4.11-.77,8.52-1.28,11s-1.33,6.43-.63,9.86a13.38,13.38,0,0,0,9.41,9.74C52.6,61.13,57.25,60,60.36,56s7-11,8.14-15.9S70.29,26,65.07,21.88C58.39,16.67,50.44,16.6,43.63,21.18Z"/><path class="cls-8" d="M48.91,45.13c-.64-.11-.61-.73-.6-1.07V44l-.09.06a.68.68,0,0,1-1,.05.84.84,0,0,1-.22-.72,2.86,2.86,0,0,1,.84-1.83.19.19,0,0,1,.26,0,.18.18,0,0,1,0,.27,2.57,2.57,0,0,0-.68,1.54.53.53,0,0,0,.1.42c.16.16.26.11.5-.07a.91.91,0,0,1,.39-.2.23.23,0,0,1,.21.07c.11.1.11.26.1.47,0,.43,0,.63.29.67a.32.32,0,0,0,.25,0c.11-.1.12-.36.13-.53a.67.67,0,0,1,.06-.34.31.31,0,0,1,.24-.16c.18,0,.39.11.67.42a.22.22,0,0,0,.23.08c.12,0,.27-.18.33-.5A3.46,3.46,0,0,0,50.37,42a.19.19,0,1,1,.33-.19,3.8,3.8,0,0,1,.56,2,1,1,0,0,1-.6.79.62.62,0,0,1-.62-.19,1.38,1.38,0,0,0-.29-.27.34.34,0,0,0,0,.1,1,1,0,0,1-.27.81.59.59,0,0,1-.39.13Zm.78-1.06Z"/><path class="cls-1" d="M77.19,36.54c-1.75-4.36-14.51-.41-12.15,7.6C67.45,52.35,79.76,43,77.19,36.54Z"/><path class="cls-8" d="M67.42,45.14a.19.19,0,0,0,.13,0,.18.18,0,0,0,0-.27c-.52-.57-.63-2.38,0-4.17A5.42,5.42,0,0,1,72,36.89c1.48-.18,2.51.06,3.1.73a3.29,3.29,0,0,1,.45,2.63.19.19,0,0,0,.13.23.19.19,0,0,0,.24-.14,3.55,3.55,0,0,0-.53-3c-.67-.77-1.83-1.06-3.43-.86a5.8,5.8,0,0,0-4.72,4c-.66,1.8-.64,3.81,0,4.57A.2.2,0,0,0,67.42,45.14Z"/><path class="cls-8" d="M72,44.43a.2.2,0,0,0,.18-.12,9.34,9.34,0,0,0-.63-7.59.18.18,0,0,0-.25-.08.19.19,0,0,0-.08.26,9.13,9.13,0,0,1,.61,7.26.19.19,0,0,0,.1.25Z"/><ellipse class="cls-8" cx="55.24" cy="40.01" rx="0.7" ry="1.4"/><path class="cls-8" d="M59.65,35a8.62,8.62,0,0,0-2.83-.65,8.79,8.79,0,0,0-2.51.31c-.51.07-.57-.31-.3-.64s1.35-.57,3.1-.53a6.18,6.18,0,0,1,3.18.75C60.77,34.54,60.4,35.35,59.65,35Z"/><ellipse class="cls-8" cx="44.47" cy="39.65" rx="0.7" ry="1.4"/><path class="cls-8" d="M47.05,34.5a7.9,7.9,0,0,0-5.34-.33c-.51.07-.57-.31-.3-.64s1.35-.58,3.1-.54a6.18,6.18,0,0,1,3.18.75C48.17,34,47.8,34.84,47.05,34.5Z"/><ellipse class="cls-9" cx="62.48" cy="23.82" rx="9.92" ry="43.9" transform="translate(22.52 77.44) rotate(-74.18)"/><path class="cls-9" d="M89.35,26.11S86.71,12,84,8.75,52.77-.54,50.88,0,34,12.07,34,12.07Z"/><path class="cls-2" d="M90.9,14.6a9.33,9.33,0,0,0-1.53-1.18c-.53-.23-1.4-1.81-1.4-1.81s-.23,1-.63,1.1-1.35.22-1.46.4-.25.38-.25.38L84.91,13a.79.79,0,0,1-.33-.42,2,2,0,0,1-.6,1.08c-.43.27-1.17.76-1.19,1s-.88.42-1.65.63-1.18-.17-1.69-.33a1.11,1.11,0,0,0-.72,0,.57.57,0,0,1,.07.66,4.41,4.41,0,0,0-.64,2.73,3.37,3.37,0,0,0,1.34,2.07,6.87,6.87,0,0,0-2,.79,4.36,4.36,0,0,0-1.06,1.44A3,3,0,0,0,76,24.52c.07.66,0,.87.4,1a7.36,7.36,0,0,1,2,1.25,3.6,3.6,0,0,0,.91.78l.49-.05a1.88,1.88,0,0,1,.3,1.31,4.27,4.27,0,0,0-.06,1.83,1,1,0,0,0,1,.69,8.51,8.51,0,0,0,1.11-.11,3.11,3.11,0,0,0,1.08.85,2,2,0,0,1,.9.66s.26-.32,1-.1a1.58,1.58,0,0,0,1.65-.17,19.75,19.75,0,0,1,1.75-2c.36-.16.35-.66.35-1.07a7.36,7.36,0,0,1,.54-1.64,1,1,0,0,0,.93.11c.52-.21.62-.47,1-.43A6.69,6.69,0,0,0,93,27.25a4.13,4.13,0,0,0,2.32-.94c.32-.49.07-2.55.41-2.5s.6.19.88,0,.27-1.36,0-1.46a2.23,2.23,0,0,0-.71-.09s.68-.24.75-.62,0-.88-.1-1-1.22-1.08-1.22-1.08a4.65,4.65,0,0,1,.91-.47,2.54,2.54,0,0,1,.64.1,13.06,13.06,0,0,0-2.32-1.47,6.07,6.07,0,0,0-1,0,1.1,1.1,0,0,0,.22-1.1,6,6,0,0,1-.29-1.22L92,15.36c-.17,0-.36-.26-.36-.26l.24-.94Z"/><path class="cls-3" d="M87.51,15.24a2.32,2.32,0,0,1,1.12-.45,13.66,13.66,0,0,1,1.64.16l1.63-.79a4.35,4.35,0,0,0-.2,1.36,1.84,1.84,0,0,1,.13,1.23,6.7,6.7,0,0,0-.24,1.4c-.08.38,0,.8-.46,1.13s-.57.93-.83,1.25,0,.54-.79.87a7,7,0,0,0-1.3.69s1.31-1,1.53-1.67a5.31,5.31,0,0,1,1.17-1.66c.37-.41.11-.93.3-1.57a5,5,0,0,0-.11-1.86,4.52,4.52,0,0,1-1.31.17A19.45,19.45,0,0,1,87.51,15.24Z"/><path class="cls-3" d="M87.92,23a8.8,8.8,0,0,1-1.36,2.55,3.77,3.77,0,0,1-1.67.75c-.7.16-1.87,0-1.94-.18s.25-.81.25-.81-.91.47-.79.83.2.73.91.7a11.57,11.57,0,0,0,2.35-.24c1.1-.24,1.14-.2,1.46-.73s1-2.35,1-2.35.91.74,1.48.64.35-.29,1-.64,1.27-.22,1.43-.65-.69-1.08-.69-1.08.35.62,0,.73-.57.1-.84.38-.26.65-.86.54S87.92,23,87.92,23Z"/><path class="cls-3" d="M83.43,17.73s-.23.95.28,1a8.35,8.35,0,0,1,1.7.8s.84-.32.4-1a1.72,1.72,0,0,0-1.35-.93A2.47,2.47,0,0,0,83.43,17.73Z"/><path class="cls-3" d="M82.69,16.93s-.87-.7-1.27-.49-.69.86-1.18.95-.46,0-.75.41A5.46,5.46,0,0,0,79,19.25l1.8,1.37s-1.44-1.07-1.4-1.48A1.36,1.36,0,0,1,80.09,18c.51-.28,1.34-.66,1.4-.91s1.25.37,1.25.37Z"/><path class="cls-3" d="M84,26.54a1.46,1.46,0,0,1-.76.7,15.28,15.28,0,0,1-1.46.6,7.84,7.84,0,0,1-2.46-.25l.8.71a4.59,4.59,0,0,0,1.68.17c.89-.09.86-.34,1.54-.62s.74-.07,1.2-.52a2.17,2.17,0,0,0,.57-.91Z"/><path class="cls-3" d="M89.41,27.82a1.16,1.16,0,0,0-1-.36,9.48,9.48,0,0,1-1.36.37c-.39,0-.74-.15-.69-.49s.27-1.49.27-1.49l-.41.25s-.55,1-.38,1.46.3.93.8.92,2.6-.27,2.6-.27Z"/><path class="cls-3" d="M93.6,17.78a6.45,6.45,0,0,0-1.75-.35,11.29,11.29,0,0,0-.94,1.33l-.45.88s.79,0,1.66,0a16.17,16.17,0,0,1,2.65.27h.92l-.33-.3s-1.76-.2-2.33-.22l-1.9-.1.9-1.35,1.63.05Z"/><path class="cls-3" d="M84.53,20.33a8.72,8.72,0,0,0-2.91.46A32.4,32.4,0,0,0,78.43,24l-.2,1.67a6.09,6.09,0,0,1,1.19-2c.58-.43,2-1.66,2.46-2s2.53,0,2.53,0Z"/><path class="cls-3" d="M86.85,20.09s1.28-2.54.8-3.49-3.1-1.69-3.1-1.69-1.84,2.44-1.5,2.86a4.57,4.57,0,0,0,1.31.86s-.67-1.12-.42-1.66.68-1.37.68-1.37,2.08.83,2.31,1.35-.72,2.48-.72,2.48Z"/><path class="cls-3" d="M83.71,19.5s.21,2.85.67,3,3.37.31,3.37.31,1.27-2.73,1-2.89l-1.94-1.45-.13.5s1.62.89,1.53,1.27-.74,1.94-.74,1.94l-2.85-.48V18.6Z"/><path d="M35.13,33.63,35,35.75a10.22,10.22,0,0,1,.53,1.59,9,9,0,0,0,2.15,5.72c2.23,2.53,4.07,2.45,6.61,1.76s3.86-4.3,4.06-6c0-.06,0-.13,0-.2a1,1,0,0,1,0-1.45v-.08h.09a.83.83,0,0,1,.53-.14l2,.15a.91.91,0,0,1,.8,1,.94.94,0,0,1-.55.8V39c-.07,1.72.68,5.5,3.09,6.57s6.19,1.58,8.78-.58a9,9,0,0,0,3-5.33,10.61,10.61,0,0,1,.77-1.48L67,36.09a14.5,14.5,0,0,0-6.76-1.52,49.56,49.56,0,0,0-8.42,1.6l0,0a1.09,1.09,0,0,0-.63-.5c-.4-.06-.95-.08-1.17-.09a10.57,10.57,0,0,0-1.17-.09,1.12,1.12,0,0,0-.71.4v0a17.61,17.61,0,0,0-6.08-2.71A14.46,14.46,0,0,0,35.13,33.63ZM52.75,38.3c.51-1.69,4.06-2.56,6-2.89s4.74-.16,5.71,1.77c1.67,3.33-.75,6.49-2.64,7.78s-6.31.76-8.05-1S52.24,40,52.75,38.3ZM37.51,35.1c1.25-1.75,4.05-1.49,5.91-.87a4.71,4.71,0,0,1,3.49,3.62c.24,1.75.1,4-1.88,5.48a4.7,4.7,0,0,1-6.11-.13C37.25,41.63,35.34,38.13,37.51,35.1Z"/><path class="cls-3" d="M54.78,50.11S52,48.52,51.17,48.67a1.5,1.5,0,0,0-1.09,1S49,48.43,48.28,49a6.92,6.92,0,0,0-1.39,2.31s1.44,3.32,3.76,3.08S54.78,50.11,54.78,50.11Z"/><circle class="cls-2" cx="68.71" cy="47.35" r="1.29"/><path class="cls-4" d="M82.14,69.14c5.94,6.25,3.45,17-2.56,22.64s-16.43,7.63-16.43,7.63-4,6.29-5.52,4.25-10.87-16.5-9.52-17.47,5.56-1,5.56-1S51.28,73,59.26,67.6C64.43,64.07,72.82,59.33,82.14,69.14Z"/><circle class="cls-6" cx="67.02" cy="70.64" r="4.54"/><circle class="cls-6" cx="75.98" cy="86.22" r="4.54"/><circle class="cls-6" cx="60.58" cy="90.32" r="4.54"/><path class="cls-2" d="M60.8,136.52c.16,4,.61,7.22.61,7.22l-2.55-.41s-.35-3.46-.57-7.2A22.79,22.79,0,0,0,60.8,136.52Z"/><path class="cls-2" d="M87.18,135.6c-1.26-3.2-6.74-1.13-8.08.4s-2.49,1.94-5.21,1.3-5.56-.87-7.59,1.14-2.63,3.61-5.13,3.29-2.83-3.37-5.32-.9-2.57,4.68-3.4,16.85-1.13,17.45,0,18.9a7.4,7.4,0,0,0,2.93,2.15l42.48-10.07a4.86,4.86,0,0,0,2-5.16C99.09,160,88.68,139.4,87.18,135.6Z"/><path class="cls-9" d="M58.2,143.65s4.19.73,6.54,0a58.81,58.81,0,0,0,5.51-2.23s.73,1.84.44,2a16.08,16.08,0,0,1-6,2,16.34,16.34,0,0,1-6.15-.21C58.29,145.09,57.68,143.58,58.2,143.65Z"/><path class="cls-9" d="M71.51,140.75c-.37.16-.22,2.12.44,2s3.85-.29,6.52-.63a22.35,22.35,0,0,0,5.23-1.44L83.33,139a19.13,19.13,0,0,1-4.81,1C75.82,140.25,72.37,140.36,71.51,140.75Z"/><path class="cls-9" d="M86.41,136.74a6.84,6.84,0,0,0-3.49-3.05c-2.64-1.16-6-1.46-7-.76s-.3,2.1.27,2.71a13.89,13.89,0,0,1,2,3.83c.65,1.69.48,5.09,1.5,6.3S82.2,148,84.05,147s2.68-3.85,2.79-4.76a12,12,0,0,1,.38-1.76l.92-.08s.69,1.46,3.43,3.09,7,2.28,8,1.62,1-2.4-.15-3.58-2.93-3.07-2.93-3.07,0-3.06.47-3.91,1.17-2.43.26-3.12-1.83-.64-3.71.26-3.46.8-4.52,1.72a9.64,9.64,0,0,0-1.89,3.13Z"/><path class="cls-1" d="M60.57,94.94c.15,1.23,1.26,25.85,1.26,25.85s-2.53,33.24-4,34-11.6,1.5-12.45,1.81-1.2,1.09-.31,1.59S49,160.13,49,160.13a62.5,62.5,0,0,1-5.55,3.72c-.62.14-.17,4-.17,4s2.68,4,5.17,4,9.64-4.55,12.83-7.11,14.46-34.72,15-38.71c.34-2.56,1.41-4.24,1.3-9.94-.12-6.25-4.17-31.44-4.17-31.44S59.48,86,60.57,94.94Z"/><path class="cls-2" d="M62.52,120c-1.06.45-2.6,1.35-3.28,1.72a14.45,14.45,0,0,1,1.53-4.11c1.55-2.64,5.58-4.72,11.06.38S83,137.25,83,137.25L80.31,139s-2.08-5.48-4.65-10.61-6.56-9.6-8.48-10.15C65.91,117.9,63.88,117.24,62.52,120Z"/></g></svg>