<svg xmlns="http://www.w3.org/2000/svg" viewBox="0 0 126.04 366.37"><defs><style>.cls-1{fill:#dbac73;}.cls-2{fill:#dd866f;}.cls-3{fill:#eaeaea;}.cls-4{fill:#fff;}.cls-5{fill:#f69576;}.cls-6{fill:#6b3425;}.cls-7{fill:#a5713d;}.cls-8{fill:#7c5349;}.cls-9{fill:#8a9995;}.cls-10{fill:#7ea21a;}.cls-11{fill:#3d211c;}</style></defs><title>people</title><g id="Слой_8" data-name="Слой 8"><path d="M43.58,332.33l-.25,16.26s14.22,2.68,18,3.85c4.54,1.4,9.81,2.66,10.56,7.1.64,3.83,0,5.32,0,5.32h-44l4.78-32.53Z"/><path d="M43.33,348.59s14.22,2.68,18,3.85c4.54,1.4,9.81,2.66,10.56,7.1.64,3.83,0,5.32,0,5.32h-44l1.7-16.27Z"/><path d="M71.9,359.54a20.49,20.49,0,0,1,.24,2H28.22l1.36-13H43.33s14.22,2.68,18,3.85C65.88,353.84,71.15,355.1,71.9,359.54Z"/><path d="M22.93,333.83l-.25,16.27s14.22,2.67,18,3.85c4.54,1.4,9.82,2.66,10.56,7.09.64,3.84,0,5.33,0,5.33h-44L12,333.83Z"/><path d="M22.68,350.1s14.22,2.67,18,3.85c4.54,1.4,9.82,2.66,10.56,7.09.64,3.84,0,5.33,0,5.33h-44l1.7-16.27Z"/><path d="M51.25,361c.13.78.2,1.46.24,2H7.57l1.36-13H22.68s14.22,2.67,18,3.85C45.23,355.35,50.51,356.61,51.25,361Z"/><path class="cls-1" d="M41.58,53.88a17,17,0,0,0-17.65.71c-6.27,4-7,18.13-4.7,22.94s13,13.55,13,13.55S72.23,62,41.58,53.88Z"/><path class="cls-2" d="M60.32,139.35,60.44,160s24.7.28,26.3-.11,9.56-6.73,10.4-7.07,1.62,0,1.3,1-1.55,4-1.55,4a61.07,61.07,0,0,0,6.61-1c.55-.32,4.18-3.13,4.92-3.37s2,.25,1.69,1-3.75,5.21-3.75,5.21.69,4.72-1.1,6.46S95.07,169.28,91,169.55s-35,4.21-37.57,4.1-6.35-.92-7.67-6.46S44,140.43,44,140.43Z"/><path d="M63.37,184.87s1.53,16,0,42.73-8,52.26-8.77,55.31-10.3,54.18-10.3,54.18H29.42s8.39-69,9.16-90-2.67-60.27-2.67-60.27Z"/><path d="M8.82,186.78H40.48s2.46,63.43,0,66.38-9.92,14.88-11.06,24-4.22,59.9-4.22,59.9H8.82Z"/><path class="cls-3" d="M47.12,102.87c6.23-1.62,10.42.74,14.89,9.95,4.1,8.43,7.16,23,8.63,32.39,2,12.41,20.42,10.38,20.42,10.38l-1.16,16S49.54,176,47,167.82C42.42,152.89,36.46,105.66,47.12,102.87Z"/><path class="cls-4" d="M32.34,101.45c15.78-.34,20.86,2,24.17,9.41s12.56,86.43,13.32,99.66c0,0-5.2,4.29-23.26,4.29s-43-2.48-43-2.48c0-4.83-4.07-81.89-3.57-94.61S20.39,101.7,32.34,101.45Z"/><path class="cls-5" d="M37.77,100.14c-5.56,0-12.14.53-15.57,2.73C18,105.56,44,119.62,44,119.62s10.22-10.93,8.37-13.47C49.68,102.45,42,100.16,37.77,100.14Z"/><path class="cls-5" d="M44.91,88.65l3.58,23-21.67-4.79s1.05-4.35,2.27-10.27,2.27-7.93,2.27-7.93Z"/><path class="cls-2" d="M35.48,94.91S35.3,99.14,38.1,101s9,1.88,9,1.88L44.91,88.65H35.77A24.9,24.9,0,0,0,35.48,94.91Z"/><path class="cls-5" d="M48,60.77A14.06,14.06,0,0,1,52,68.05c.91,3.86.71,8,1.19,10.33s1.25,6,.6,9.25a12.54,12.54,0,0,1-8.83,9.13c-5.32,1.49-9.67.42-12.6-3.28s-6.56-10.33-7.64-14.92S22.88,65.11,27.9,61.43c4-2.93,7.51,2.76,12.93,1.07C43.79,61.59,45.14,58.84,48,60.77Z"/><path class="cls-4" d="M38.37,86.68s.51,3.14,2.36,3.79a4.24,4.24,0,0,0,4.59-.82,8.78,8.78,0,0,0,1.28-3Z"/><path class="cls-6" d="M42.9,83.25a.59.59,0,0,1-.37-.12,1,1,0,0,1-.25-.76v-.1a1.53,1.53,0,0,0-.29.26.57.57,0,0,1-.57.18.91.91,0,0,1-.57-.75,3.51,3.51,0,0,1,.53-1.82.17.17,0,0,1,.24-.07.18.18,0,0,1,.07.25,3.16,3.16,0,0,0-.49,1.57c.06.3.2.44.32.47a.22.22,0,0,0,.21-.07c.26-.29.45-.41.62-.4a.31.31,0,0,1,.23.15.7.7,0,0,1,.06.32c0,.16,0,.41.12.49a.34.34,0,0,0,.24,0c.24,0,.28-.23.26-.64,0-.19,0-.34.1-.44a.22.22,0,0,1,.19-.06.77.77,0,0,1,.37.19c.23.17.32.21.48.07a.54.54,0,0,0,.09-.4,2.42,2.42,0,0,0-.65-1.45.18.18,0,0,1,0-.25.19.19,0,0,1,.25,0,2.74,2.74,0,0,1,.78,1.72.83.83,0,0,1-.2.68.65.65,0,0,1-.94,0l-.08-.06v.08c0,.31,0,.9-.57,1Zm-.58-1Z"/><path class="cls-5" d="M16.53,75.18c1.64-4.08,13.61-.38,11.4,7.14C25.66,90,14.11,81.2,16.53,75.18Z"/><path class="cls-6" d="M25.69,83.25a.15.15,0,0,1-.12,0,.17.17,0,0,1,0-.25c.49-.53.59-2.24,0-3.91a5.09,5.09,0,0,0-4.13-3.53c-1.38-.17-2.36.06-2.9.69a3,3,0,0,0-.43,2.46.18.18,0,1,1-.34.09,3.31,3.31,0,0,1,.5-2.78c.63-.73,1.71-1,3.21-.81a5.44,5.44,0,0,1,4.43,3.75c.62,1.69.6,3.57-.05,4.28A.16.16,0,0,1,25.69,83.25Z"/><path class="cls-6" d="M21.39,82.58a.17.17,0,0,1-.16-.11,8.71,8.71,0,0,1,.58-7.12.19.19,0,0,1,.25-.08.19.19,0,0,1,.07.25,8.51,8.51,0,0,0-.57,6.82.18.18,0,0,1-.1.23Z"/><ellipse class="cls-6" cx="37.12" cy="78.44" rx="0.66" ry="1.31"/><path class="cls-7" d="M34.07,75a5.42,5.42,0,0,1,2.66-1.11,4.86,4.86,0,0,1,2.36.54c.47.12.54-.54.28-1.11s-1.27-1-2.91-.92a4,4,0,0,0-3,1.29C33,74.14,33.37,75.54,34.07,75Z"/><ellipse class="cls-6" cx="47.22" cy="78.1" rx="0.66" ry="1.31"/><path class="cls-7" d="M44.8,74.45a5.33,5.33,0,0,1,2.66-1.1,4.7,4.7,0,0,1,2.35.53c.48.12.54-.53.29-1.1s-1.27-1-2.91-.93a4,4,0,0,0-3,1.3C43.76,73.64,44.1,75,44.8,74.45Z"/><polygon class="cls-3" points="5.55 119.61 26.19 165.63 50.25 169.82 50.25 183.61 5.49 188.02 5.55 119.61"/><path class="cls-3" d="M19.78,106.85l2,17.93L44,119.62s-20.31,1.91-20.07,2S19.78,106.85,19.78,106.85Z"/><circle cx="46.24" cy="126.18" r="1.4"/><circle cx="48.49" cy="136.77" r="1.4"/><circle cx="50.25" cy="148.75" r="1.4"/><path class="cls-8" d="M85.12,121.09s-5.7-11.31-8.35-20.47S68.32,77.77,64.44,68.29,57.66,51,55.51,48.79s-3.36-1.31-3.36-1.31S54,46,56.47,49.23c2.15,2.81,6.23,13,8.33,18.48S73.63,89.49,75,93.61s3.09,9.7,4.95,13.87,6,13.19,6,13.19Z"/><path class="cls-8" d="M53,45.87a6.88,6.88,0,0,0,.56,1.34C53.79,47.58,53.64,46.43,53,45.87Z"/><path class="cls-8" d="M52.47,48.37s1.4-.34,1.31-.55l-.16-.39A4.63,4.63,0,0,1,52.47,48.37Z"/><path class="cls-8" d="M53.71,45.56a8.84,8.84,0,0,1,.24,1.1,3.18,3.18,0,0,1,0,.63.46.46,0,0,0,.36-.54A4.21,4.21,0,0,0,53.71,45.56Z"/><path class="cls-8" d="M53,48.52a7.89,7.89,0,0,0,2.24.63c.51-.09.52-.34.52-.34a1.1,1.1,0,0,1-.73-.17A6.48,6.48,0,0,0,53,48.52Z"/><path class="cls-8" d="M54.73,45.37a14.28,14.28,0,0,0,0,1.92l.26.61s.23,0,.24-.46A10.4,10.4,0,0,0,54.73,45.37Z"/><path class="cls-8" d="M52.77,49.09a8.05,8.05,0,0,0,2.6,1.45A1.54,1.54,0,0,0,56.58,50l0-.11a.74.74,0,0,1-.74.07C55.39,49.8,52.77,49.09,52.77,49.09Z"/><path class="cls-8" d="M55.88,45.49s.31,2,.3,2.53a1.71,1.71,0,0,1-.21.81s.41.19.61-.37S55.88,45.49,55.88,45.49Z"/><path class="cls-8" d="M57.79,46.86a26.58,26.58,0,0,0-.29,3.51,1.2,1.2,0,0,1,0,.73l.08.21a.93.93,0,0,0,.61-.38A24.2,24.2,0,0,0,57.79,46.86Z"/><path class="cls-8" d="M57.33,51.28a.44.44,0,0,1-.5-.15c-.23-.27-4.19-.53-4.19-.53a32.93,32.93,0,0,0,3.84,1.28c.56,0,.61-.38.61-.38l.29-.12Z"/><path class="cls-8" d="M52.55,52A53.76,53.76,0,0,1,58,53.56a.81.81,0,0,1,.21.51l.52-.09,0,.14-.52.09s.36.33-.28.36S52.77,52.48,52.55,52Z"/><path class="cls-8" d="M59.87,48.16S58.73,52.51,59,53a.64.64,0,0,1-.12.77l0,.11s.15-.43.43-.3.6.11.75-.56A18.92,18.92,0,0,0,59.87,48.16Z"/><path class="cls-8" d="M53.2,53.51a31.24,31.24,0,0,0,4.25,3c1.37.63,1.94.15,1.94.15l.32,0v-.29a1.27,1.27,0,0,1-.59-.36C58.91,55.81,54.34,54.11,53.2,53.51Z"/><path class="cls-8" d="M61.48,50.14s-1.35,4.92-1.27,5.37a4.7,4.7,0,0,0,.25.86l-.33.26.09.2.33-.26s.26.62.6.11S62.28,51.25,61.48,50.14Z"/><path class="cls-8" d="M54,57s5.72,1.82,5.92,1.49a1.13,1.13,0,0,1,.47-.44l-.08-.2a1.85,1.85,0,0,1-.73-.42C59.24,57.13,54.83,56.32,54,57Z"/><path class="cls-8" d="M63.24,52.36s-1.84,4.28-1.55,5.49a1.65,1.65,0,0,1-.37,1.72l.08.21a1.08,1.08,0,0,1,.72-.66c.51-.1.51-.1,1.28-2.72A5.06,5.06,0,0,0,63.24,52.36Z"/><path class="cls-8" d="M54.62,58.46a5.1,5.1,0,0,0,3.32,1.87c2.39.44,2.81.39,3,.21a.72.72,0,0,1,.46-.2l-.08-.21s-.15.19-1-.44S54.62,58.46,54.62,58.46Z"/><path class="cls-8" d="M54.92,61s.12.8,1.86,1.27a12.19,12.19,0,0,0,3.73.48c.88,0,1.07-.33,1-.43s.65,0,.65,0L62.06,62l-.52.1s.2-.33-.77-.53-2.18.32-4,0S54.92,61,54.92,61Z"/><path class="cls-8" d="M65.05,54.44a10.29,10.29,0,0,1-.83,3c-.69,1.5-2.06,2.44-1.75,3.16l.3.72-.43.54.13.31.39-.65s.15.9.88-.25a10.64,10.64,0,0,0,1.65-4.2C65.82,55,65.05,54.44,65.05,54.44Z"/><path class="cls-8" d="M55.63,63.72a4.67,4.67,0,0,0,3.71,1c2.14-.42,3,.06,3.1-.22s.06-.39.06-.39l.51.15-.09-.2s-.64-.22-.77-.53-2.42.54-3.9.43A15.67,15.67,0,0,1,55.63,63.72Z"/><path class="cls-8" d="M66.64,56.91c-.09,0-1.68,3.85-2.22,4.92s-.83,1.44-.56,1.81-.44.79-.44.79v.24l.76-.56s0,.6.83-.1a5.56,5.56,0,0,0,1.85-3.2A8.13,8.13,0,0,0,66.64,56.91Z"/><path class="cls-8" d="M68.65,59.33s-.87,2.9-1.47,4.36-1,2.25-1.5,2.2l-.46,0-1,.93L64,66.36s1-.54.9-.74-.91-.59.44-2.36S67.85,59.78,68.65,59.33Z"/><path class="cls-8" d="M56.27,65.26a6.25,6.25,0,0,0,3.79,1.67c2.4.2,3.47-.13,3.43-.23s.69.07.69.07L64,66.6a1.71,1.71,0,0,1-.86-.73c-.35-.57-1.84-.19-4-.36Z"/><path class="cls-8" d="M56.64,66.92a14.14,14.14,0,0,0,5,2.13c2.75.54,2.46-.43,2.46-.43l.6.11-.18-.41-.51.1s.67-.77-.75-1S57.74,67.43,56.64,66.92Z"/><path class="cls-8" d="M69.91,62.06s-4.08,3.65-4.3,4.71a4.38,4.38,0,0,0-.09,1.61L65,69l.13.31.53-.58s.34.82,1.17-.37,1.29-3.21,2.06-4.26A6.81,6.81,0,0,0,69.91,62.06Z"/><path class="cls-8" d="M57.28,70.27s3.69.39,5.11.63,2.44.55,2.73.19a.66.66,0,0,1,.65-.28l-.13-.31s-.14.18-1-.44S57.54,69.32,57.28,70.27Z"/><path class="cls-8" d="M71.14,64.2S68.7,68.61,68,69.62a2.26,2.26,0,0,1-1.79,1l-.35.49-.13.2a3.38,3.38,0,0,0,.31-1.1c0-.34-.88,0,.75-1.88S70,64.18,71.14,64.2Z"/><path class="cls-8" d="M58.13,71.25a5.65,5.65,0,0,0,3.78,1.91c2.54.26,3.55.32,3.65,0a.76.76,0,0,0,0-.49l.83.14-.13-.31s-.61.14-.74-.17-1.06.08-4-.51A25.64,25.64,0,0,0,58.13,71.25Z"/><path class="cls-8" d="M72,66.15s-3,2.24-3.85,3.68a4.45,4.45,0,0,0-.68,2.58l-.71.66.13.31s.67-.77.76-.56.3.72,1.32-1S71.35,66.53,72,66.15Z"/><path class="cls-8" d="M72.78,68.1s-1.67,3.61-2.59,5.08-1.86,1.63-1.86,1.63l-.76.8-.08-.2.76-.81s-.51-.15,0-1.08S71.67,68.33,72.78,68.1Z"/><path class="cls-8" d="M67,74.28l-.83-.14a1.47,1.47,0,0,0-1.45-1.08C63.49,73,61.15,74,60,74a8.1,8.1,0,0,1-2.21-.28A4.87,4.87,0,0,0,60.8,75c1.62-.08,3.19-.26,4.21-.2a2.16,2.16,0,0,0,1.34-.21l.79,0Z"/><path class="cls-8" d="M67.74,76,67,75.85s-.58-.85-2.71-.43-2.47.68-3.86.53a6.79,6.79,0,0,1-1.65-.27A12.46,12.46,0,0,0,63.19,77a7.42,7.42,0,0,0,4-.71l.69.07Z"/><path class="cls-8" d="M73.24,70a27.7,27.7,0,0,1-1.73,5.32,4.37,4.37,0,0,1-2.19,2.13l-.67.77.06-.39.29-.61s-.44-.53.1-1.61S72.4,70.07,73.24,70Z"/><path class="cls-8" d="M58.87,77.7s2.9,1.68,5.17,1.57a15.86,15.86,0,0,0,4.61-1.09l0-.22s-.4.37-.67,0-1.14-.36-4.1-.32Z"/><path class="cls-8" d="M75.38,72.69a37.11,37.11,0,0,1-3.25,5.11c-1.34,1.53-2.08,1.6-2.08,1.6l-.4.89-.13-.3.35-.75s-1-.69.34-2.08S75.38,72.69,75.38,72.69Z"/><path class="cls-8" d="M60,80.48a3,3,0,0,0,3.07,1,16,16,0,0,1,4.79-.93c1.24.08,1.94.15,1.94.15l-.23-.26-.69-.08s.35-1-1.26-1.16-3.65,1.54-5,1.5S60,80.48,60,80.48Z"/><path class="cls-8" d="M76.62,74.34a16.2,16.2,0,0,1-2.57,4.1c-1.77,2.08-2.14,3.56-2.55,3.62a3.35,3.35,0,0,0-1,.43l-.13-.31a1.83,1.83,0,0,0,.44-.79c0-.39-.77-.52.18-1.65S74.77,76,75.49,75.3A12.88,12.88,0,0,1,76.62,74.34Z"/><path class="cls-8" d="M69.39,81.49c-.26-.6-1.89-.29-3.81.64s-2.68,1.49-3.51,1.35-1.56-.3-1.56-.3a2.08,2.08,0,0,0,2.6.95c2-.48,3-1,4.25-1.18s2,.11,2.26-.11.07-.63.07-.63l.78.28-.13-.31A1.47,1.47,0,0,1,69.39,81.49Z"/><path class="cls-8" d="M77.62,76.7A5,5,0,0,1,76,80.16c-1.66,1.55-2.32,1.83-2.58,2.78a9.81,9.81,0,0,1-1.74,2.6l-.08-.38.48-.69s-1.16.13-.32-1.55a6.6,6.6,0,0,1,3.06-3.47A6.59,6.59,0,0,0,77.62,76.7Z"/><path class="cls-8" d="M71.37,84.64l-1.1-.26s.25-.46-1.18-.71-2.7.65-4.61,1.34a7.94,7.94,0,0,1-3.44.48,4,4,0,0,0,3.49,1,28,28,0,0,1,4.69-.89,1.47,1.47,0,0,0,1.41-.84l.87.24Z"/><path class="cls-8" d="M61.87,88.77a10,10,0,0,0,5.2.58c2.65-.51,4.41-.52,4.7-.88a1.13,1.13,0,0,0,.29-.61l.6.11-.13-.31H72s.35-1-1.36-.87-3.39,1.9-5.7,1.91S61.87,88.77,61.87,88.77Z"/><path class="cls-8" d="M78.48,78.75a4.25,4.25,0,0,1-1.07,3.48,25.57,25.57,0,0,0-3.15,3.25,10.25,10.25,0,0,1-1.86,1.87L72.27,87s.51-.09.52-.33-.79-1.36-.16-2.23A15,15,0,0,1,76.33,81,5.68,5.68,0,0,0,78.48,78.75Z"/><path class="cls-8" d="M79.37,81.64c-.19.08-1,3.09-2.55,4.94a7.3,7.3,0,0,1-2.89,2.31l-.45,1-.13-.31.31-.85A1.58,1.58,0,0,1,73.57,87a19.42,19.42,0,0,1,4-4C78.8,82.12,79.37,81.64,79.37,81.64Z"/><path class="cls-8" d="M73.69,90.68l-1-.41s0-.73-1.22-.81-2.06.62-4.52,1.05a10.52,10.52,0,0,1-4.34-.1S63.9,92,67.79,91.83s4.89-1.21,4.89-1.21l1.1.26Z"/><path class="cls-8" d="M74.73,93.14a6.53,6.53,0,0,0-1.1-.51,4.55,4.55,0,0,0-.55,0s.25-.71-.35-.82-2.18.55-4.75,1.27a14.51,14.51,0,0,1-4.87.48,8.42,8.42,0,0,0,5.2.83c3.25-.4,4.78-.44,4.93-.86a1,1,0,0,0,.06-.64s1.16.12,1.42.5S74.73,93.14,74.73,93.14Z"/><path class="cls-8" d="M80.37,83.76,76,87.92c-.72.66-1.65.81-1.63,1.89a4.51,4.51,0,0,0,.23,1.59l-.34.51,0,.35.43-.55s-.12.78,1.27-.65a24.52,24.52,0,0,0,3.17-4.24C80.33,85,80.63,84.13,80.37,83.76Z"/><path class="cls-8" d="M81.74,85.72A34.46,34.46,0,0,0,77,89.05a7.8,7.8,0,0,0-1.88,4.18,2.29,2.29,0,0,1-.08.87l0,.39s-.11.53,1-.68,1.66-2.87,3-4.5S81.74,85.72,81.74,85.72Z"/><path class="cls-8" d="M75.4,95.52s-.86-.73-1.18-.71l-.65,0s0-.6-1-.55-2.48.92-4.62,1.34a11.58,11.58,0,0,1-4.34-.11S67,97.11,69.77,96.8s3.78-1.23,3.92-1.41a.59.59,0,0,1,.7-.17l1.1.5Z"/><path class="cls-8" d="M82.61,87.53A7.39,7.39,0,0,1,80,89.85c-1.5.63-2.81,1.18-3.34,2s-.44,3.93-.44,3.93l-.48.45.09.2.47-.44s.49.64,1.31-.55.57-2,2.6-3.51S82.87,88.39,82.61,87.53Z"/><path class="cls-8" d="M76,97.2a5.42,5.42,0,0,0-.86-.73c-.27-.12-.61-1.19-2.84-.73S69,97.36,67.42,98a7.39,7.39,0,0,1-2.47.68s.77.52,3.94-.33,3.87-1.27,5.08-1.29,1-.44,1-.44l1.08.75Z"/><path class="cls-8" d="M76.59,99.13l-.46,0A1.25,1.25,0,0,0,75,97.88c-1.15-.12-1.33,1-4.95,1.84a30,30,0,0,1-5.39.82s2,1.44,5.8.7a18.68,18.68,0,0,0,5.7-1.92Z"/><path class="cls-8" d="M77.17,101.3l-.5-.15s-.35-.82-1-.69a10.92,10.92,0,0,1-5.36,1.41c-3.8.15-4.75-.3-4.75-.3a10.22,10.22,0,0,0,6.51,1.61c4.08-.27,4.68-1.73,4.68-1.73l.46,0Z"/><path class="cls-8" d="M84,90.08a8.41,8.41,0,0,1-2.55,3.37c-1.7,1.19-4,2.87-4.19,4.18a2.84,2.84,0,0,0,.31,2l-.67.77.08.2.63-.87s.12.56,1.46-.73,2.54-3.12,3.93-4.8S84.34,90.31,84,90.08Z"/><path class="cls-8" d="M86,93.23a1,1,0,0,1-.64,1.11c-.84.36-4.57,1.44-5.58,2.71A16,16,0,0,0,77.92,101l-.48.69,0,.14.71-.66s.35.57,1.83-.89,1-1.87,3.18-2.91S87.46,94.07,86,93.23Z"/><path class="cls-8" d="M87.2,96.59s-4.06,1.35-5.63,2.85-3.07,2.39-3,3a2.93,2.93,0,0,0,.16.9l-.56.24.13.3.56-.23s-.11.77.83.13,1.78-2.32,3.76-3.63S87.23,97.18,87.2,96.59Z"/><path class="cls-8" d="M77.8,103.33l-.36-.09a.39.39,0,0,0-.5-.4,19.89,19.89,0,0,1-4.87,2,25.72,25.72,0,0,1-5.86,1.26s1.44,1.33,5.4.27,4.67-1.48,5.27-1.62.75-.31.85-.6a.63.63,0,0,0-.12-.55l.28-.12Z"/><path class="cls-8" d="M90,100a9,9,0,0,0-6,1c-2.82,1.67-4.47,3-4.45,3.56a9.31,9.31,0,0,0,.11,1l-.75.31.13.31.75-.32s-.2.57,1,.2,2.3-1.33,4.2-3.1S88.91,99.86,90,100Z"/><path class="cls-8" d="M78.62,105.52l-.47.2a1,1,0,0,0-1.15-.37c-.65.28-4.28,2.65-6.92,2.92s-3.37-.15-3.37-.15a5.39,5.39,0,0,0,4,1.2,27.37,27.37,0,0,0,7.47-2.42.88.88,0,0,0,.16-.91l.33-.26Z"/><path class="cls-8" d="M79.74,108.19l-.47.2s-.57-.85-1-.69a35.78,35.78,0,0,1-6.1,3,11.32,11.32,0,0,1-4.27.83s0,1.33,3.54.57,7.37-2.14,7.8-2.68,0-.84,0-.84l.6-.13Z"/><path class="cls-8" d="M90.53,102.92s-4.59.36-6.86,2-3.17,2.43-3.09,2.88a.83.83,0,0,1-.34.75l-.1.28s.62-.62.75-.32.63.46,2-.13,2.84-2.16,5-3.45S90.53,102.92,90.53,102.92Z"/><path class="cls-9" d="M89.5,122.42s1.19-18.94-.82-33.08S86.49,53,86.14,37.62s-1.09-27.74.69-32.1S91,1.72,91,1.72s-3.76-.87-5.35,5c-1.41,5.15-.91,21.52-.47,30.35s.93,35.15,1.51,41.65,1.69,15.14,1.6,22-.4,21.67-.4,21.67Z"/><path class="cls-9" d="M88.76,0a8.82,8.82,0,0,1,0,2.17C88.63,2.84,88.11,1.17,88.76,0Z"/><path class="cls-9" d="M91.13,3.14s-2.33.36-2.33,0V2.53A8.4,8.4,0,0,0,91.13,3.14Z"/><path class="cls-9" d="M87.43,0a14.38,14.38,0,0,0,.35,1.66,4.39,4.39,0,0,0,.4.86A.75.75,0,0,1,87.29,2,5.61,5.61,0,0,1,87.43,0Z"/><path class="cls-9" d="M90.47,3.65s-2.14,2-3,2.2-1-.16-1-.16a1.88,1.88,0,0,0,1-.67C87.82,4.51,90.47,3.65,90.47,3.65Z"/><path class="cls-9" d="M85.77.37A20.71,20.71,0,0,1,87,3l0,1s-.33.17-.68-.49A14.76,14.76,0,0,1,85.77.37Z"/><path class="cls-9" d="M91.15,4.3s-1.8,3-3,3.54a2.74,2.74,0,0,1-2.17,0V7.7a1.29,1.29,0,0,0,1.16-.35C87.68,6.85,91.15,4.3,91.15,4.3Z"/><path class="cls-9" d="M84.11,1.22s.87,3,1.21,3.66a2.78,2.78,0,0,0,.85,1s-.5.5-1.17-.16S84.11,1.22,84.11,1.22Z"/><path class="cls-9" d="M82.15,4.25s2.71,4.13,2.72,4.63a1.8,1.8,0,0,0,.51,1v.33a1.67,1.67,0,0,1-1.17-.15C83.71,9.73,82.15,4.25,82.15,4.25Z"/><path class="cls-9" d="M85.72,10a.73.73,0,0,0,.66-.51c.16-.5,6-3.24,6-3.24a51.38,51.38,0,0,1-5,4.06c-.83.34-1.17-.15-1.17-.15h-.5Z"/><path class="cls-9" d="M93.36,8.11s-6.94,4.92-7.1,5.42a1.15,1.15,0,0,0,0,.83l-.83.18.17.17.83-.18s-.33.67.67.32S93.37,8.94,93.36,8.11Z"/><path class="cls-9" d="M79.85,7.28s4.56,5.27,4.57,6.11a1,1,0,0,0,.68,1v.17s-.5-.5-.83-.16-.83.51-1.5-.32S79.86,8.28,79.85,7.28Z"/><path class="cls-9" d="M93.39,10.61s-2.77,5-4.42,6.72-2.81,1.37-2.81,1.37l-.47.23-.2-.39a1.88,1.88,0,0,0,.65-.84C86.3,17.2,92.08,12.13,93.39,10.61Z"/><path class="cls-9" d="M78.73,11s5.24,5.93,5.41,6.6a5.74,5.74,0,0,1,.18,1.33l.67.16v.33l-.67-.16s0,1-.83.51S78.25,13,78.73,11Z"/><path class="cls-9" d="M94.46,15.93s-7.43,5.93-7.94,5.6a1.93,1.93,0,0,0-1-.32v-.34a2.73,2.73,0,0,0,.82-1C86.66,19.19,92.78,15.45,94.46,15.93Z"/><path class="cls-9" d="M77.53,15.05s5.56,4.77,5.91,6.6a2.57,2.57,0,0,0,1.69,2.15v.33a1.84,1.84,0,0,0-1.51-.48c-.83.17-.83.17-3.7-3S77.53,15.05,77.53,15.05Z"/><path class="cls-9" d="M94.48,18.26s-.47,2.51-3.77,4.55-4,2.22-4.31,2.05a1.34,1.34,0,0,0-.84,0v-.33s.34.16,1.15-1.18S94.48,18.26,94.48,18.26Z"/><path class="cls-9" d="M95.7,21.92s.34,1.16-2,2.85a20.66,20.66,0,0,1-5.3,2.9c-1.33.52-1.83.19-1.83,0s-1,.34-1,.34v-.5l.83-.18s-.51-.32.82-1.17,3.49-.88,6-2.41S95.7,21.92,95.7,21.92Z"/><path class="cls-9" d="M76.16,19a15.78,15.78,0,0,0,3.21,3.63c2,1.64,4.69,2.11,4.71,3.27v1.17l1,.49v.5l-1-.66s.35,1.33-1.49.19a17,17,0,0,1-5.23-4.77C75.34,20.17,76.16,19,76.16,19Z"/><path class="cls-9" d="M96.41,26.08a7.5,7.5,0,0,1-5,3.56c-3.5.71-4.48,1.88-4.82,1.55s-.34-.49-.34-.49l-.66.51v-.34s.82-.67.82-1.17,4-.72,6.14-1.74A29.18,29.18,0,0,0,96.41,26.08Z"/><path class="cls-9" d="M75.38,23.33c.16,0,5.05,4.27,6.56,5.42s2.19,1.48,2,2.14,1.18.82,1.18.82l.17.33-1.51-.31s.35.83-1.32.35a9,9,0,0,1-4.88-3.28A11.46,11.46,0,0,1,75.38,23.33Z"/><path class="cls-9" d="M73.93,27.85S77.14,31.31,79,33s3,2.47,3.69,2.13l.66-.34,2.18.64v-.67s-1.84-.15-1.84-.48,1-1.34-2.2-3S75.43,28,73.93,27.85Z"/><path class="cls-9" d="M96.44,28.58a9.66,9.66,0,0,1-4.61,4.55c-3.48,1.71-5.31,1.9-5.31,1.73s-1,.52-1,.52l.16-.34a2.46,2.46,0,0,0,.81-1.51c.16-1,2.65-1.37,5.8-2.9S96.44,28.58,96.44,28.58Z"/><path class="cls-9" d="M97,31.07A22,22,0,0,1,90.88,37c-3.81,2.38-4,.88-4,.88l-.83.51V37.7l.84-.17s-1.51-.65.47-1.84S95.66,32.42,97,31.07Z"/><path class="cls-9" d="M73.82,32.35s8.53,2.56,9.55,3.89a6,6,0,0,1,1.19,2.15l1.17.48v.5l-1.17-.48s0,1.33-2,.19-4-3.62-5.89-4.6A10.82,10.82,0,0,1,73.82,32.35Z"/><path class="cls-9" d="M98.2,36.05S92.9,38.79,90.92,40s-3.31,2.2-4,1.88a1.2,1.2,0,0,0-1.17,0v-.5s.33.17,1.15-1.18S97.19,34.9,98.2,36.05Z"/><path class="cls-9" d="M73.37,36s6.55,4.59,8.23,5.57a4,4,0,0,0,3.34.29l.84.47.33.19a5.05,5.05,0,0,1-1.18-1.32c-.17-.5,1.33-.52-2.36-2.14S75,35.34,73.37,36Z"/><path class="cls-9" d="M97.56,37.9a8.59,8.59,0,0,1-4.44,4.88C89.47,44.66,88,45.35,87.64,45a1.08,1.08,0,0,1-.34-.67L86.14,45v-.5s1-.18,1-.68,1.66-.52,5.63-3.07A46,46,0,0,1,97.56,37.9Z"/><path class="cls-9" d="M73.4,39.19s6,1.26,8.21,2.73a6.74,6.74,0,0,1,2.7,3.14l1.51.48V46s-1.51-.65-1.5-.32,0,1.17-2.68-.63S74.57,39.34,73.4,39.19Z"/><path class="cls-9" d="M73.44,42.36s4.88,3.94,7.24,5.41,3.84,1.12,3.84,1.12l1.68.65V49.2l-1.67-.64s.66-.51-.69-1.5S75.27,42,73.44,42.36Z"/><path class="cls-9" d="M86.17,47.37l1.16-.68a2.16,2.16,0,0,1,1.47-2.35c1.82-.86,6-.91,7.82-1.6A13.74,13.74,0,0,0,99.76,41,7.61,7.61,0,0,1,96,44.58c-2.49.87-5,1.56-6.47,2.25a3.82,3.82,0,0,1-2.16.52l-1.16.52Z"/><path class="cls-9" d="M86.21,50.2l1-.68s.31-1.5,3.8-2.21,4.17-.55,6.15-1.58a11.73,11.73,0,0,0,2.32-1.36,20,20,0,0,1-5.78,4.41,13.14,13.14,0,0,1-6.48,1.41l-1,.51Z"/><path class="cls-9" d="M74,45.18s3.55,4.46,6.07,6.26a7.58,7.58,0,0,0,4.69,1.61l1.51.65-.34-.49-.84-.66s.32-1-1.19-2.15S75.31,44.83,74,45.18Z"/><path class="cls-9" d="M100.67,47.19s-3.28,4-6.77,5.25a28.11,28.11,0,0,1-7.65,1.26l-.19-.27s.86.26,1-.41,1.49-1.18,6-2.9Z"/><path class="cls-9" d="M72.54,50.2a61.22,61.22,0,0,0,8.23,5.07c3,1.3,4.18.95,4.18.95l1.17,1v-.5l-1-.82s1-1.51-1.87-2.64S72.54,50.2,72.54,50.2Z"/><path class="cls-9" d="M100.73,51.69a4.74,4.74,0,0,1-4,3.22c-3.16.37-6,.74-7.81,1.59s-2.82,1.37-2.82,1.37l.16-.5,1-.51s-1.18-1.16,1.14-2.35,6.5-.08,8.48-.94S100.73,51.69,100.73,51.69Z"/><path class="cls-9" d="M71.74,53.21a26.87,26.87,0,0,0,6.55,4.09c4,1.78,5.55,3.6,6.21,3.42a6.38,6.38,0,0,1,1.83,0v-.5a3,3,0,0,1-1.18-.82c-.34-.49.82-1.17-1.36-2.15s-8.2-2.9-9.71-3.38A22.28,22.28,0,0,0,71.74,53.21Z"/><path class="cls-9" d="M87.31,58.69c0-1,2.65-1.53,6.15-1.41s5,.44,6.16-.24,2.15-1.36,2.15-1.36,0,2.33-3.29,2.87-5.17.4-7.16.92-3,1.37-3.49,1.21-.51-.82-.51-.82l-1,.84v-.5S87.32,59.52,87.31,58.69Z"/><path class="cls-9" d="M71.79,57a7.87,7.87,0,0,0,4.71,3.78c3.52,1.12,4.68,1.11,5.7,2.26s4.32,2.53,4.32,2.53L86.39,65l-1.18-.65s1.83-.52-.53-2.33a11.29,11.29,0,0,0-6.87-2.91C74.31,58.68,72.13,57.54,71.79,57Z"/><path class="cls-9" d="M86.38,64.2l1.48-1s-.67-.49,1.32-1.68,4.49-.72,7.82-.93a14.1,14.1,0,0,0,5.48-1.4,6.42,6.42,0,0,1-4.62,3.39c-3.49.71-6.16.91-7.65,1.59a2.6,2.6,0,0,1-2.67-.3l-1.16.85Z"/><path class="cls-9" d="M103.38,64.16a16.74,16.74,0,0,1-7.45,3.92c-4.33.89-7,1.92-7.65,1.6a1.86,1.86,0,0,1-.84-.66l-.83.51V69l.83-.34s-1.18-1.15,1.48-2,6.34.59,9.82-.79S103.38,64.16,103.38,64.16Z"/><path class="cls-9" d="M71.83,60.38a6.42,6.42,0,0,0,3.88,4.12,44.36,44.36,0,0,1,6.87,2.58,17.61,17.61,0,0,0,4,1.45V68s-.83.18-1-.15.3-2.34-1.21-3.15a26.52,26.52,0,0,0-7.86-2.58A9.7,9.7,0,0,1,71.83,60.38Z"/><path class="cls-9" d="M72.38,64.87c.34,0,3.55,3.63,7.07,5.25a12.92,12.92,0,0,0,5.85,1.43l1.35,1.15v-.5l-1-1a2.23,2.23,0,0,0-1-2.49,33.58,33.58,0,0,0-8.54-3.06C73.55,65.19,72.38,64.87,72.38,64.87Z"/><path class="cls-9" d="M86.83,73.86l1.32-1.18s-.52-1,1.31-1.85,3.49-.38,7.48-1.26a18.21,18.21,0,0,0,6.47-2.74s-1,3-6.94,5.08-8.15,1.27-8.15,1.27l-1.49,1Z"/><path class="cls-9" d="M86.88,77.86a9.79,9.79,0,0,1,1.31-1.35,8.49,8.49,0,0,1,.83-.34s-.84-.82,0-1.33,3.66-.55,8-1.1a25.41,25.41,0,0,0,7.64-2.26s-2.13,2.86-7.28,4.25-7.47,2.26-8,1.77a1.44,1.44,0,0,1-.51-.83s-1.65.85-1.81,1.52S86.88,77.86,86.88,77.86Z"/><path class="cls-9" d="M72.26,68.37l9.37,3.06c1.51.48,3,.13,3.69,1.62A6.5,6.5,0,0,1,86,75.37l.84.49.18.5-1-.49s.68,1-2.34-.14a41.38,41.38,0,0,1-7.54-3.9C73.11,70,72.1,69,72.26,68.37Z"/><path class="cls-9" d="M71.47,71.88s6.68.75,9.35,1.72a12.34,12.34,0,0,1,5.56,4.6,3.64,3.64,0,0,0,.68,1.16l.34.5s.51.66-2-.31S81,76.6,78,75.14,71.47,71.88,71.47,71.88Z"/><path class="cls-9" d="M87.42,81.52s.82-1.51,1.31-1.68l1-.35s-.34-.82,1.15-1.34,4.33-.22,7.82-.93a20.11,20.11,0,0,0,6.47-2.75s-4.12,4.22-8.43,5.44-6.5.58-6.83.42a1,1,0,0,0-1.17.18l-1.31,1.35Z"/><path class="cls-9" d="M71.34,74.88a12.7,12.7,0,0,0,5.52,1.6c2.67,0,5-.06,6.34.76s3.23,5.13,3.23,5.13l1,.32V83l-1-.32s-.32,1.17-2.34,0-2.19-2.47-6.2-3.26S71.52,76.22,71.34,74.88Z"/><path class="cls-9" d="M87.62,84.19a7.17,7.17,0,0,1,.82-1.51c.32-.34.14-2,3.8-2.72s6,.26,8.83.23a13.27,13.27,0,0,0,4.16-.55s-.82,1.18-6.14,1.91-6.66.58-8.49,1.27-1.83,0-1.83,0l-1.15,1.68Z"/><path class="cls-9" d="M88,87.18l.66-.34a1.78,1.78,0,0,1,1-2.34c1.66-.86,2.68.63,8.67-.44A52.8,52.8,0,0,0,106.93,82s-2.13,3.19-8.28,4.44a33.67,33.67,0,0,1-9.83.78Z"/><path class="cls-9" d="M88.53,90.51l.66-.51s0-1.33,1-1.51,3.18.79,9-1.28,7-3.25,7-3.25-2.45,4-8.76,6.11-8.16.43-8.16.43l-.66.34Z"/><path class="cls-9" d="M70.89,79.22a14.1,14.1,0,0,0,6,3.1c3.34.62,7.85,1.57,9,3.22a3.93,3.93,0,0,1,.87,3l1.51.65v.33l-1.51-.81s.18.83-2.67-.14-5.86-2.76-9-4.22S70.57,79.73,70.89,79.22Z"/><path class="cls-9" d="M70,84.74a1.5,1.5,0,0,0,1.68,1.14c1.5,0,7.82-.76,10.17.38a25.83,25.83,0,0,1,5.39,4.27l1.17.65.17.16L87,90.86s-.16,1-3.34-.12S81,88.77,77,88.65,68.32,86.76,70,84.74Z"/><path class="cls-9" d="M70.36,90.06s7-.58,10.34.55,6.18,1.42,6.53,2.25a4.14,4.14,0,0,1,.35,1.33h1v.5h-1s.68,1-1.16.68-4.19-2.12-8-2.74S70.7,90.89,70.36,90.06Z"/><path class="cls-9" d="M88.9,93.67l.5-.34s-.34-.66.49-.84,1.84.65,8.66-.1,9.65-1.79,9.65-1.79-1.3,2.69-8,3.6-8,.76-9,.94-1.33,0-1.67-.31a.88.88,0,0,1-.17-.83h-.5Z"/><path class="cls-9" d="M68.44,96.42a15.8,15.8,0,0,1,9.63-2.28c5.35.6,8.69,1.39,9,2.22a11.93,11.93,0,0,1,.52,1.49H89v.5H87.63s.67.66-1.33.85S82,98.76,78,97.47,69.92,95.57,68.44,96.42Z"/><path class="cls-9" d="M89.11,97.17H90A1.62,1.62,0,0,1,91.43,96c1.17,0,8.18,1.07,12.33-.15s5-2.22,5-2.22a8.59,8.59,0,0,1-5.29,4.06c-3.82,1-12,1.48-12.82,1.16a1.33,1.33,0,0,1-.84-1.16l-.67-.16Z"/><path class="cls-9" d="M89.17,101.5H90s.31-1.5,1-1.51a64.44,64.44,0,0,0,11.17.53c5-.39,7-1.42,7-1.42s.85,1.83-5,2.9-12.48,1.48-13.49,1-.51-1.16-.51-1.16l-1,.18Z"/><path class="cls-9" d="M69.49,100.74s7.14-2.25,11.65-1.31,6.35,1.43,6.53,2.09,1,.82,1,.82l.33.33s-1.34-.48-1.33,0-.65,1-3.15,1-5.69-1.27-9.86-1.72S69.49,100.74,69.49,100.74Z"/><path class="cls-10" d="M91.37,130.41s4.09-15.11,8.82-25.87,10.46-28.22,14.54-40.21,7.63-21.61,7.7-25.36-1.49-3.76-1.49-3.76,2.41,0,1.86,4.9c-.48,4.3-4.9,17.08-7.39,23.94S106,91.53,104,96.53s-4.8,11.61-6.48,17-5.23,17.11-5.23,17.11Z"/><path class="cls-10" d="M122.7,34.27a9.61,9.61,0,0,0-.56,1.7C122.06,36.53,122.78,35.31,122.7,34.27Z"/><path class="cls-10" d="M120.53,36.31s1.26.71,1.35.45l.16-.5A4.12,4.12,0,0,1,120.53,36.31Z"/><path class="cls-10" d="M123.47,34.53s-.4.88-.63,1.24a3.87,3.87,0,0,1-.45.6.45.45,0,0,0,.66-.24A6.3,6.3,0,0,0,123.47,34.53Z"/><path class="cls-10" d="M120.78,36.83A8.4,8.4,0,0,0,122,39.1c.43.29.62.06.62.06a1.15,1.15,0,0,1-.41-.71C122.11,38,120.78,36.83,120.78,36.83Z"/><path class="cls-10" d="M124.35,35.11A20.46,20.46,0,0,0,123,37l-.26.78s.15.19.52-.26A17,17,0,0,0,124.35,35.11Z"/><path class="cls-10" d="M120.22,37.22s.29,2.71.83,3.32a1.28,1.28,0,0,0,1.25.42l0-.13a.66.66,0,0,1-.59-.49C121.6,39.85,120.22,37.22,120.22,37.22Z"/><path class="cls-10" d="M125.09,36.08s-1.26,2.19-1.62,2.65a2.31,2.31,0,0,1-.74.63s.16.48.71.09S125.09,36.08,125.09,36.08Z"/><path class="cls-10" d="M125.47,38.82A36.35,36.35,0,0,0,122.72,42a1.6,1.6,0,0,1-.55.69l-.09.26a.78.78,0,0,0,.72.1A35.86,35.86,0,0,0,125.47,38.82Z"/><path class="cls-10" d="M121.93,42.72a.47.47,0,0,1-.25-.52c0-.42-2.65-3.63-2.65-3.63a36.59,36.59,0,0,0,1.85,4.09c.4.42.72.09.72.09l.29.1Z"/><path class="cls-10" d="M118,39.81a58.82,58.82,0,0,1,2.76,5.56,1.32,1.32,0,0,1-.22.65l.44.29-.14.1-.44-.29s0,.59-.47.13S117.76,40.47,118,39.81Z"/><path class="cls-10" d="M126,41.61s-4,3.33-4.2,4-.64.66-.64.66l0,.13s.42-.3.53,0,.35.56.95,0A26.74,26.74,0,0,0,126,41.61Z"/><path class="cls-10" d="M117.33,41.77a41,41,0,0,0,.87,6.09c.53,1.63,1.29,1.59,1.29,1.59l.22.27.21-.27a1.56,1.56,0,0,1-.17-.78C119.79,48.24,117.71,43.21,117.33,41.77Z"/><path class="cls-10" d="M125.77,44.71s-4.55,3.72-4.82,4.21a6.7,6.7,0,0,0-.44,1h-.43l-.08.26h.42s-.26.79.36.56S125.54,46.38,125.77,44.71Z"/><path class="cls-10" d="M115.36,45.77s2.83,6,3.21,5.84a1,1,0,0,1,.66-.07l.09-.26a2.18,2.18,0,0,1-.23-1C119.07,49.75,116.46,45.69,115.36,45.77Z"/><path class="cls-10" d="M125.43,48.15s-4.43,2.74-5.1,4.12-1.53,1.38-1.53,1.38l-.09.26s.56-.4,1-.11.44.29,2.9-1.65A7.3,7.3,0,0,0,125.43,48.15Z"/><path class="cls-10" d="M114.76,47.6a6.49,6.49,0,0,0,1,4.26c1.41,2.2,1.75,2.46,2,2.4a.6.6,0,0,1,.48.15l.09-.26s-.24.07-.38-1.13S114.76,47.6,114.76,47.6Z"/><path class="cls-10" d="M113.13,50.25s-.49.85.42,2.6a12,12,0,0,0,2.35,3.24c.65.65,1,.49,1.07.36s.49.45.49.45l.13-.39-.44-.29s.37-.17-.18-1.08-1.81-1.32-2.87-3S113.13,50.25,113.13,50.25Z"/><path class="cls-10" d="M125.24,51.5a13.16,13.16,0,0,1-2.79,2.27c-1.59.92-3.26.8-3.56,1.72l-.31.91-.7.2-.13.39.75-.33s-.54,1,.82.42a12.25,12.25,0,0,0,4.25-2.8C125.41,52.57,125.24,51.5,125.24,51.5Z"/><path class="cls-10" d="M111.67,53.39a5.09,5.09,0,0,0,2,3.7c1.85,1.19,2.13,2.3,2.41,2.1s.32-.33.32-.33l.26.52.08-.26a2,2,0,0,1-.18-1.07c.13-.4-2.14-1.29-3.13-2.49A15.11,15.11,0,0,1,111.67,53.39Z"/><path class="cls-10" d="M124.59,55.05c-.09,0-4,2.45-5.18,3.07s-1.65.76-1.72,1.32-.89.43-.89.43l-.19.23,1,0s-.41.59.68.52A5.73,5.73,0,0,0,121.91,59,11.69,11.69,0,0,0,124.59,55.05Z"/><path class="cls-10" d="M124.29,58.87S121.55,61,120.06,62s-2.38,1.39-2.68,1l-.3-.39-1.43.11.17-.52s1.11.22,1.19,0-.23-1.24,2-1.94S123.38,58.71,124.29,58.87Z"/><path class="cls-10" d="M111,55.35a7.49,7.49,0,0,0,1.53,4.42c1.59,2,2.61,2.46,2.65,2.33s.45.58.45.58v-.29a2.29,2.29,0,0,1-.09-1.34c.16-.81-1.2-1.55-2.64-3.34S111,55.35,111,55.35Z"/><path class="cls-10" d="M110.08,57.21a16.67,16.67,0,0,0,2,5.76c1.62,2.56,2.1,1.42,2.1,1.42l.35.55.18-.53-.44-.29s1-.23.18-1.53S110.5,58.51,110.08,57.21Z"/><path class="cls-10" d="M123.22,62.43s-5.61.46-6.53,1.32a5.82,5.82,0,0,0-1.24,1.47l-.8.17-.13.39.8-.16s-.34,1,1.12.51S119.7,64,121,63.59A7.6,7.6,0,0,0,123.22,62.43Z"/><path class="cls-10" d="M108.11,60.91s2.39,3.11,3.24,4.41,1.37,2.34,1.84,2.2a.58.58,0,0,1,.68.23l.13-.4s-.24.07-.37-1.14S109,60.19,108.11,60.91Z"/><path class="cls-10" d="M122.56,65.4s-5,2.42-6.19,2.88a1.88,1.88,0,0,1-2-.38l-.61.22-.24.08a3.82,3.82,0,0,0,1-.82c.23-.36-.64-.65,1.92-1.25S121.77,64.56,122.56,65.4Z"/><path class="cls-10" d="M108,62.47a7,7,0,0,0,1.35,4.66c1.64,2.13,2.34,2.94,2.62,2.75a1,1,0,0,0,.36-.46l.5.74.13-.39s-.53-.32-.4-.71-.84-.71-2.5-3.44A29.09,29.09,0,0,0,108,62.47Z"/><path class="cls-10" d="M121.74,67.88s-3.82-.1-5.46.66a5.69,5.69,0,0,0-2.37,2l-1,.1-.13.39s1-.23.95,0-.3.91,1.72,0S121,67.79,121.74,67.88Z"/><path class="cls-10" d="M120.92,70.37s-3.84,2.21-5.58,2.94-2.52.18-2.52.18l-1.13.2.08-.26,1.14-.2s-.26-.52.77-1S119.94,69.76,120.92,70.37Z"/><path class="cls-10" d="M112.25,72l-.5-.74a2,2,0,0,0-.27-2.12c-.84-1-3.25-1.8-4.14-2.67a8,8,0,0,1-1.4-1.92A5.74,5.74,0,0,0,107.25,68c1.23,1.13,2.5,2.13,3.2,2.94s1.12.81,1.12.81l.55.62Z"/><path class="cls-10" d="M111.51,74.22l-.4-.72s.19-1.24-1.66-2.43-2.28-1.19-3.18-2.36a7.32,7.32,0,0,1-1-1.49,13.61,13.61,0,0,0,2.25,4.51A6.18,6.18,0,0,0,110.93,74l.45.59Z"/><path class="cls-10" d="M119.89,72.49a33.52,33.52,0,0,1-5.11,3.82,3.84,3.84,0,0,1-3.13.41L110.6,77l.33-.33.65-.36a2.09,2.09,0,0,1,1.24-1.48C114,74.17,119.21,72,119.89,72.49Z"/><path class="cls-10" d="M103.86,69.22s.89,3.77,2.61,5.36A13.06,13.06,0,0,0,110.6,77l.18-.18s-.56,0-.48-.5-.57-1.2-2.74-3.37Z"/><path class="cls-10" d="M119.46,76.7a38,38,0,0,1-6.06,2.49c-2.08.47-2.67,0-2.67,0l-.94.56.13-.4.8-.46s-.19-1.37,1.75-1.74A63.23,63.23,0,0,1,119.46,76.7Z"/><path class="cls-10" d="M102.69,72.75s-.25,2.38,1.49,3.25a13.4,13.4,0,0,1,4.15,2.67c.84,1,1.29,1.59,1.29,1.59l0-.42-.45-.59s1-.69-.06-2-3.77-1.25-4.71-2.28A26.74,26.74,0,0,1,102.69,72.75Z"/><path class="cls-10" d="M119.17,79.21a17.24,17.24,0,0,1-4.85,2c-2.78.67-4.13,1.82-4.47,1.56a2.77,2.77,0,0,0-1.06-.35l.13-.39a1.88,1.88,0,0,0,.89-.43c.32-.33-.18-1.08,1.33-1.45s5.51-.79,6.5-.89A10.31,10.31,0,0,1,119.17,79.21Z"/><path class="cls-10" d="M108.73,80.69c.25-.76-1.15-1.69-3.22-2.23s-3-.56-3.53-1.31-.9-1.46-.9-1.46a2.44,2.44,0,0,0,1.19,2.86c1.8,1,2.9,1.25,3.93,2s1.39,1.62,1.72,1.58.51-.56.51-.56l.36.85.13-.39A1.92,1.92,0,0,1,108.73,80.69Z"/><path class="cls-10" d="M118.17,82.22a5.71,5.71,0,0,1-3.69,2.11c-2.33.25-3,0-3.89.75a10,10,0,0,1-3.15,1.2l.22-.43.85-.3s-.93-.75.9-1.74,2.57-1.32,4.73-1A6,6,0,0,0,118.17,82.22Z"/><path class="cls-10" d="M107.88,85.19l-.61-1.07s.52-.26-.34-1.56-2.43-1.38-4.31-2.15a6.92,6.92,0,0,1-2.84-2.1,4.43,4.43,0,0,0,1.84,3.51c1.85,1.19,3.35,1.83,4,2.64a1.29,1.29,0,0,0,1.63.25l.46.88Z"/><path class="cls-10" d="M98,82.07a9.92,9.92,0,0,0,3.35,4.44c2.29,1.48,3.57,2.78,4,2.65a1.4,1.4,0,0,0,.66-.37l.35.55.13-.39-.4-.42s1-.69-.34-1.85S102,86,100.27,84.27,98,82.07,98,82.07Z"/><path class="cls-10" d="M117.31,84.83S116,87.16,114,87.37a23.71,23.71,0,0,0-4.65.78,9,9,0,0,1-2.7.41l.13-.39s.44.29.62.06.41-1.9,1.5-2.26a13.38,13.38,0,0,1,5.22-.59A5.32,5.32,0,0,0,117.31,84.83Z"/><path class="cls-10" d="M115.85,88.27c-.19-.07-3,2.2-5.43,2.84a6.27,6.27,0,0,1-3.77.06l-1.07.66.13-.4.84-.59a2.25,2.25,0,0,1,1.22-1.77,17.67,17.67,0,0,1,5.74-.85C115.09,88.3,115.85,88.27,115.85,88.27Z"/><path class="cls-10" d="M105.18,92.71l-.47-1.17s.55-.69-.29-1.69-1.94-.93-4-2.35a9.93,9.93,0,0,1-3.07-3.34s-.2,2.54,2.75,5.26,4.42,2.48,4.42,2.48l.61,1.07Z"/><path class="cls-10" d="M104.14,95.85a7.28,7.28,0,0,0-.42-1.3,3.92,3.92,0,0,0-.4-.43s.7-.49.35-1-2-1.09-4.37-2.32a12.82,12.82,0,0,1-3.88-3.16,8.62,8.62,0,0,0,3.17,4.67c2.64,2,3.77,3.13,4.19,2.84a1.36,1.36,0,0,0,.51-.56s.75,1,.67,1.53S104.14,95.85,104.14,95.85Z"/><path class="cls-10" d="M115,91l-6.22.7c-1,.1-1.78-.45-2.56.6a7.08,7.08,0,0,0-1,1.71l-.61.23-.23.36.71-.2s-.64.65,1.4.31a23.49,23.49,0,0,0,5.37-1.7C114.12,92.19,115,91.6,115,91Z"/><path class="cls-10" d="M114.61,94a28.36,28.36,0,0,0-5.87-.35,8.8,8.8,0,0,0-4.4,2.6,3.31,3.31,0,0,1-.68.79l-.33.33s-.46.43,1.25.12,3.28-1.52,5.41-2.12S114.61,94,114.61,94Z"/><path class="cls-10" d="M102.9,98.63s-.09-1.34-.34-1.57l-.49-.45s.41-.59-.33-1.27-2.46-1-4.31-2.15a10.78,10.78,0,0,1-3.07-3.34s1.33,4.07,3.53,5.81,3.63,1.64,3.87,1.57a.51.51,0,0,1,.63.36l.42,1.3Z"/><path class="cls-10" d="M113.93,96.33a6.55,6.55,0,0,1-3.61.25c-1.55-.51-2.9-1-3.88-.55s-3.18,3.44-3.18,3.44l-.66.07-.09.26.67-.07s-.11,1,1.35.45,1.9-1.55,4.43-1.43S113.49,97.34,113.93,96.33Z"/><path class="cls-10" d="M102.11,100.68a6.51,6.51,0,0,0-.09-1.33,2.76,2.76,0,0,0-1.53-2.83c-1.94-1.22-3.55-.88-5.19-1.43A6,6,0,0,1,93,93.9s.18,1.08,3.09,2.62,3.73,1.67,4.61,2.55,1.06.35,1.06.35L102,101Z"/><path class="cls-10" d="M101.14,103l-.3-.39a1.73,1.73,0,0,0,0-2c-.75-1-1.72,0-4.93-1.92a25.11,25.11,0,0,1-4.49-3.22,7.93,7.93,0,0,0,3.69,5,15.33,15.33,0,0,0,5.52,2.4Z"/><path class="cls-10" d="M100,105.49l-.26-.52s.35-1-.19-1.37a8.85,8.85,0,0,1-4.9-2.63c-2.86-2.69-3.23-3.83-3.23-3.83a11,11,0,0,0,3.55,6.4c3.15,2.78,4.64,1.82,4.64,1.82l.3.39Z"/><path class="cls-10" d="M113.1,99.82a8.44,8.44,0,0,1-4.3,1.34c-2.1-.12-5-.19-6.07.89a4.16,4.16,0,0,0-1.26,2.19l-1,.24-.09.26,1.09-.37s-.32.62,1.58.38a60.09,60.09,0,0,0,6.33-1.67C111.57,102.51,113.16,100.28,113.1,99.82Z"/><path class="cls-10" d="M112.25,104.33a1.05,1.05,0,0,1-1.27.59c-.87-.28-4.36-2-6-1.55a18.14,18.14,0,0,0-4.21,2.38l-.85.3-.14.09,1-.1s-.16.82,2,.51,2.06-1.06,4.42-.43S112.69,106.22,112.25,104.33Z"/><path class="cls-10" d="M110.67,108.45s-3.92-1.74-6.15-1.46-4,0-4.37.59a4.35,4.35,0,0,0-.54,1l-.57-.19-.13.39.57.19s-.64.66.51.75,3-.91,5.36-.69S110.26,109,110.67,108.45Z"/><path class="cls-10" d="M99,107.91l-.2-.36s.37-.46-.07-.75-1.24.18-5-1.65A22.16,22.16,0,0,1,88.52,102s.08,2.34,3.72,4.27,4.46,2.06,5,2.38.77.26,1,.06a1,1,0,0,0,.32-.62l.29.09Z"/><path class="cls-10" d="M110.18,113.8a7.8,7.8,0,0,0-5-3.55c-3.25-.5-5.4-.49-5.81.1s-.68,1.08-.68,1.08l-.77-.25-.13.39.77.26s-.56.39.56.9,2.64.44,5.3.16S109.53,112.85,110.18,113.8Z"/><path class="cls-10" d="M98,110.62l-.48-.16s.11-1-.57-1.2-5-.65-7.13-2.36-2.33-2.66-2.33-2.66a6,6,0,0,0,2,4.16c2,1.52,6.6,3.34,7.17,3.24a1.15,1.15,0,0,0,.78-.75h.43Z"/><path class="cls-10" d="M96.84,114l-.48-.16s.2-1.24-.19-1.37a28.82,28.82,0,0,1-6.63-1.61,9.67,9.67,0,0,1-3.7-2.39s-1,1.28,2.15,3.18,6.89,3.44,7.6,3.24a.72.72,0,0,0,.59-.82l.53.32Z"/><path class="cls-10" d="M108.48,117s-3.58-3.07-6.45-3.15-4,0-4.32.46a.89.89,0,0,1-.79.46l-.28.2s.9-.14.77.25.13.91,1.57,1.39,3.63,0,6.17.45S108.48,117,108.48,117Z"/><polygon class="cls-11" points="104.75 180.52 72.93 180.52 66.98 117.37 110.7 117.37 104.75 180.52"/><path class="cls-5" d="M36.38,145.53l.12,20.68s24.71.28,26.3-.11,9.57-6.73,10.4-7.07,1.62,0,1.3,1S73,164,73,164a63.24,63.24,0,0,0,6.6-1c.55-.33,4.18-3.14,4.93-3.38s2,.25,1.69,1-3.76,5.21-3.76,5.21.69,4.72-1.1,6.46-10.18,3.15-14.26,3.41-35,4.21-37.57,4.1-6.35-.92-7.67-6.46-1.76-26.76-1.76-26.76Z"/><path class="cls-4" d="M22.69,114.27c8.16-.12,14.75,7.07,15.81,16.4s0,33.12,0,33.12l22,.31v14.82s-33.84,6.46-36.75,3.17-3.29-6.31-4.68-13.29S6.78,114.5,22.69,114.27Z"/></g></svg>